<?xml version="1.0" encoding="UTF-8" standalone="no"?>
<svg xmlns:ffdec="https://www.free-decompiler.com/flash" xmlns:xlink="http://www.w3.org/1999/xlink" ffdec:objectType="shape" height="161.0px" width="250.0px" xmlns="http://www.w3.org/2000/svg">
  <g transform="matrix(1.0, 0.0, 0.0, 1.0, 150.15, 82.3)">
    <path d="M-150.15 56.2 L-150.15 40.2 -134.15 40.2 -134.15 56.2 -150.15 56.2" fill="#424242" fill-rule="evenodd" stroke="none"/>
    <path d="M-150.15 -10.3 L-134.15 -10.3 -134.15 5.7 -150.15 5.7 -150.15 -10.3" fill="#424242" fill-rule="evenodd" stroke="none"/>
    <path d="M-86.65 -78.8 L-118.65 -78.8 -118.65 75.2 -4.65 75.2 -4.65 78.7 -121.65 78.7 -121.65 -82.3 99.85 -82.3 99.85 -26.3 96.85 -26.3 96.85 -78.8 72.35 -78.8 72.35 -42.3 70.85 -42.3 70.85 -35.8 72.35 -35.8 72.35 -18.3 68.35 -10.8 72.35 -4.8 72.35 4.2 70.85 4.2 70.85 9.7 72.35 9.7 72.35 46.7 70.35 46.7 70.35 56.2 62.85 56.2 62.85 57.7 24.35 57.7 24.35 56.2 18.35 56.2 18.35 57.2 3.35 57.2 3.35 56.2 2.35 56.2 -3.65 52.2 -12.15 56.2 -26.15 56.2 -26.15 57.7 -65.15 57.7 -65.15 56.2 -100.15 56.2 -100.15 40.2 -99.65 40.2 -99.65 -10.3 -86.65 -10.3 -86.65 -78.8" fill="#424242" fill-rule="evenodd" stroke="none"/>
    <path d="M96.85 75.2 L96.85 -3.8 99.85 -3.8 99.85 78.7 9.35 78.7 9.35 75.2 96.85 75.2" fill="#424242" fill-rule="evenodd" stroke="none"/>
    <path d="M60.35 -72.8 L62.35 -72.8 62.35 -47.8 60.35 -47.8 60.35 -28.8 62.85 -28.8 62.85 -18.3 72.35 -18.3 Q69.85 -14.3 67.35 -10.8 L72.35 -4.8 62.85 -4.8 62.85 -3.8 60.35 -3.8 60.35 14.7 62.35 14.7 62.35 41.2 60.35 41.2 60.35 45.2 56.85 45.2 56.85 47.2 29.85 47.2 29.85 45.2 11.85 45.2 11.85 48.7 2.85 48.7 2.85 56.2 -4.15 50.2 -12.15 56.2 -12.15 48.7 -14.15 48.7 -14.15 45.2 -32.65 45.2 -32.65 47.2 -59.15 47.2 -59.15 45.2 -79.15 45.2 -79.15 -79.8 60.35 -79.8 60.35 -72.8" fill="#959595" fill-rule="evenodd" stroke="none"/>
    <path d="M72.35 -18.3 L72.35 -4.8 62.85 -4.8 62.85 -18.3 72.35 -18.3" fill="#ffffff" fill-rule="evenodd" stroke="none"/>
    <path d="M2.85 48.7 L2.85 56.2 -12.15 56.2 -12.15 48.7 2.85 48.7" fill="#ffffff" fill-rule="evenodd" stroke="none"/>
    <path d="M-47.65 8.2 L-35.65 -6.3 -4.65 20.2 -16.65 34.2 -47.65 8.2" fill="#6f6f6f" fill-rule="evenodd" stroke="none"/>
    <path d="M-50.15 18.7 L-46.15 19.2 Q-46.65 23.2 -47.65 27.2 L-46.65 31.2 -56.15 34.2 -57.15 29.2 -60.15 28.7 -59.15 22.2 Q-60.15 18.2 -61.65 13.7 -56.65 12.7 -52.15 11.2 L-50.15 18.7" fill="#6f6f6f" fill-rule="evenodd" stroke="none"/>
    <path d="M11.85 42.2 Q12.85 37.7 13.35 33.2 L22.35 34.7 Q21.85 39.2 20.85 43.7 L11.85 42.2" fill="#6f6f6f" fill-rule="evenodd" stroke="none"/>
    <path d="M45.85 23.7 L47.85 12.7 56.85 14.2 54.85 25.2 45.85 23.7" fill="#6f6f6f" fill-rule="evenodd" stroke="none"/>
    <path d="M29.35 21.2 Q23.85 25.2 18.35 28.7 L11.35 19.2 22.35 11.2 29.35 21.2" fill="#6f6f6f" fill-rule="evenodd" stroke="none"/>
    <path d="M22.85 32.2 L37.85 26.2 Q40.35 31.7 42.35 37.2 L27.35 43.2 Q25.35 37.7 22.85 32.2" fill="#6f6f6f" fill-rule="evenodd" stroke="none"/>
    <path d="M18.85 -77.3 L34.85 -78.8 35.85 -67.8 Q36.85 -67.3 37.35 -67.3 37.85 -72.8 37.85 -78.8 L47.85 -78.8 47.85 -76.3 Q52.85 -77.3 57.85 -78.8 L60.35 -68.3 55.85 -67.3 60.85 -66.3 59.85 -60.8 55.85 -61.3 54.85 -54.8 59.35 -54.8 60.35 -48.3 Q43.35 -44.3 25.85 -40.8 24.35 -48.3 22.35 -55.8 24.85 -60.8 26.85 -65.8 L19.85 -65.3 18.85 -77.3" fill="#6f6f6f" fill-rule="evenodd" stroke="none"/>
    <path d="M-71.15 -50.8 L-45.15 -50.8 -33.65 -60.8 Q-28.65 -55.3 -24.15 -49.8 -30.15 -44.3 -36.65 -39.3 -40.65 -44.3 -45.15 -49.3 L-45.15 -5.3 -71.15 -5.3 -71.15 -50.8" fill="#6f6f6f" fill-rule="evenodd" stroke="none"/>
    <path d="M-24.65 -79.8 L-24.65 -59.8 -58.65 -59.8 -58.65 -13.8 -79.15 -13.8 -79.15 -79.8 -24.65 -79.8" fill="#ffffff" fill-rule="evenodd" stroke="none"/>
  </g>
</svg>
