<?xml version="1.0" encoding="UTF-8" standalone="no"?>
<svg xmlns:ffdec="https://www.free-decompiler.com/flash" xmlns:xlink="http://www.w3.org/1999/xlink" ffdec:objectType="shape" height="1053.5px" width="379.5px" xmlns="http://www.w3.org/2000/svg">
  <g transform="matrix(1.0, 0.0, 0.0, 1.0, 304.4, 983.15)">
    <path d="M-111.4 16.85 L-121.4 16.85 -121.4 18.85 -122.9 18.85 -122.9 26.35 -121.4 26.35 -121.4 28.35 -111.4 28.35 -111.4 16.85 M-131.4 -527.65 L-137.4 -587.15 Q-138.9 -586.65 -140.9 -586.65 L-151.9 -695.15 -148.4 -695.65 -153.4 -747.65 -147.4 -748.65 Q-225.9 -831.65 -304.4 -915.15 -303.4 -941.65 -302.9 -968.15 L-287.9 -983.15 61.1 -972.15 61.1 -738.15 66.1 -738.15 66.1 -688.15 70.1 -688.15 70.1 -580.15 67.1 -580.15 67.1 -385.15 62.6 -385.15 62.6 -342.65 67.1 -342.65 67.1 -299.15 71.1 -299.15 71.1 -191.65 72.6 -191.65 72.6 -90.15 66.6 -90.15 66.6 -86.65 75.1 -86.65 75.1 59.85 -87.9 59.85 -92.9 55.85 -92.9 70.35 -141.9 70.35 -141.9 55.85 -149.9 55.85 -149.9 47.35 -165.4 47.35 -165.4 -1.65 -151.4 -1.65 -151.4 -2.15 -149.9 -2.15 -149.9 -10.65 -142.4 -10.65 -142.4 -31.15 -93.9 -31.15 -93.9 -27.15 -90.9 -27.15 -90.9 -86.15 -103.4 -86.15 -103.4 -83.15 -117.4 -83.15 -117.4 -192.15 -148.9 -192.15 -164.9 -216.15 -175.9 -243.65 Q-179.4 -260.65 -183.4 -278.15 L-186.4 -316.15 Q-184.9 -334.15 -183.9 -352.65 -180.4 -371.15 -177.4 -389.65 L-166.4 -418.15 Q-157.4 -431.15 -148.9 -444.65 L-131.4 -444.65 -131.4 -527.65" fill="#424242" fill-rule="evenodd" stroke="none"/>
    <path d="M-122.9 27.35 L-122.9 17.85 -118.9 17.85 -118.9 27.35 -122.9 27.35" fill="#ffffff" fill-rule="evenodd" stroke="none"/>
    <path d="M-149.9 30.35 L-142.4 30.35 -142.4 27.85 -149.9 27.85 -149.9 30.35 M-149.9 17.35 L-142.4 17.35 -142.4 14.85 -149.9 14.85 -149.9 17.35 M-110.4 15.85 L-123.4 15.85 -123.4 29.35 -110.4 29.35 -110.4 15.85 M-109.9 47.85 L-111.9 47.85 -111.9 54.85 -109.9 54.85 -109.9 47.85 M-122.9 47.85 L-124.9 47.85 -124.9 54.85 -122.9 54.85 -122.9 47.85 M-124.9 -9.65 L-124.9 -2.65 -122.9 -2.65 -122.9 -9.65 -124.9 -9.65 M-109.9 -2.65 L-109.9 -9.65 -111.9 -9.65 -111.9 -2.65 -109.9 -2.65 M3.1 -84.65 L65.1 -84.65 65.1 49.85 -84.9 49.85 -84.9 29.35 -91.9 29.35 -91.9 46.85 -98.9 46.85 -98.9 54.35 -97.4 54.35 -97.4 66.85 -137.4 66.85 -137.4 54.35 -134.9 54.35 -134.9 46.85 -141.9 46.85 -141.9 40.85 -149.9 40.85 -149.9 42.35 -161.4 42.35 -161.4 1.85 -149.9 1.85 -149.9 4.35 -141.9 4.35 -141.9 -2.65 -134.9 -2.65 -134.9 -10.15 -137.4 -10.15 -137.4 -27.65 -97.4 -27.65 -97.4 -10.15 -98.9 -10.15 -98.9 -2.65 -91.9 -2.65 -91.9 14.85 -84.9 14.85 -84.9 -5.15 -81.4 -5.15 -81.4 -85.15 -63.9 -85.15 -63.9 -49.65 3.1 -49.65 3.1 -84.65" fill="#959595" fill-rule="evenodd" stroke="none"/>
    <path d="M-108.9 -91.65 L-108.9 -191.65 20.6 -191.65 20.6 -91.65 -108.9 -91.65" fill="#959595" fill-rule="evenodd" stroke="none"/>
    <path d="M-126.9 -539.15 L-61.4 -535.65 -61.4 -441.65 -126.9 -441.65 -126.9 -539.15" fill="#959595" fill-rule="evenodd" stroke="none"/>
    <path d="M-47.9 -519.15 L-44.4 -519.15 -44.4 -535.15 -26.9 -534.15 -26.9 -531.65 -19.9 -531.15 -19.9 -533.65 17.1 -532.15 17.1 -491.15 10.6 -491.15 10.6 -489.15 40.1 -489.15 40.1 -491.15 21.1 -491.15 21.1 -532.65 60.6 -530.15 60.6 -390.15 55.1 -390.15 55.1 -338.65 60.6 -338.65 60.6 -190.15 62.1 -190.15 62.1 -91.15 26.1 -91.15 Q26.6 -266.65 26.6 -442.15 L21.1 -442.15 21.1 -476.65 40.1 -476.65 40.1 -478.15 10.6 -478.15 10.6 -476.65 17.1 -476.65 17.1 -441.65 -47.9 -441.65 -47.9 -519.15" fill="#959595" fill-rule="evenodd" stroke="none"/>
    <path d="M21.6 -223.15 L21.6 -195.65 -39.9 -195.65 -39.9 -223.15 21.6 -223.15" fill="#959595" fill-rule="evenodd" stroke="none"/>
    <path d="M-59.9 -535.65 L-45.4 -535.15 -45.4 -520.15 -48.9 -520.15 -48.9 -429.15 -47.9 -429.15 -47.9 -436.65 18.6 -436.65 18.6 -268.65 -51.4 -268.65 -51.4 -223.15 -42.4 -223.15 -42.4 -198.15 -146.4 -198.15 -160.9 -220.65 Q-165.9 -233.65 -171.4 -247.15 L-178.4 -279.65 Q-179.4 -297.15 -180.9 -315.15 L-178.9 -351.65 Q-175.4 -368.15 -172.4 -384.65 L-162.4 -411.65 -146.4 -436.65 -61.4 -436.65 -61.4 -429.15 -59.9 -429.15 -59.9 -535.65" fill="#959595" fill-rule="evenodd" stroke="none"/>
    <path d="M-59.9 -663.15 L-59.9 -597.15 -28.9 -597.15 -28.9 -663.15 -59.9 -663.15 M-66.4 -575.15 Q-71.9 -633.65 -77.9 -692.65 L4.6 -692.65 4.6 -575.15 -66.4 -575.15" fill="#959595" fill-rule="evenodd" stroke="none"/>
    <path d="M-103.9 -745.15 L-103.9 -744.65 60.1 -732.15 60.1 -690.15 24.6 -690.15 24.6 -577.65 59.6 -577.65 59.6 -535.65 -126.9 -544.15 -126.9 -545.65 Q-126.9 -545.15 -127.4 -545.15 -129.4 -565.65 -131.9 -586.15 L-88.4 -591.15 -99.4 -702.65 -142.9 -697.15 -147.9 -739.65 -103.9 -745.15 M8.6 -696.65 L-82.4 -696.65 Q-75.9 -634.15 -69.9 -571.65 L8.6 -571.65 8.6 -696.65" fill="#959595" fill-rule="evenodd" stroke="none"/>
    <path d="M29.1 -774.65 L31.1 -815.15 -34.4 -818.65 -36.4 -777.65 29.1 -774.65 M52.1 -964.65 L52.1 -744.15 -103.9 -756.15 -143.4 -752.65 -281.4 -898.65 -236.4 -898.65 Q-229.4 -905.65 -222.4 -913.15 L-220.4 -965.15 -226.4 -974.15 52.1 -964.65" fill="#959595" fill-rule="evenodd" stroke="none"/>
    <path d="M-25.9 -534.15 L-20.9 -534.15 -20.9 -532.15 -25.9 -532.15 -25.9 -534.15" fill="#959595" fill-rule="evenodd" stroke="none"/>
    <path d="M48.6 9.35 L48.6 14.35 55.6 14.35 55.6 26.85 48.6 26.85 48.6 30.85 16.1 30.85 16.1 9.35 48.6 9.35" fill="#6f6f6f" fill-rule="evenodd" stroke="none"/>
    <path d="M-49.9 -13.65 L-39.9 -13.65 -39.9 5.35 -49.9 5.35 -49.9 -13.65" fill="#6f6f6f" fill-rule="evenodd" stroke="none"/>
    <path d="M-117.9 47.35 L-117.9 36.85 -97.9 36.85 -97.9 47.35 -117.9 47.35" fill="#6f6f6f" fill-rule="evenodd" stroke="none"/>
    <path d="M-42.9 -45.15 L-42.9 -49.65 -27.4 -49.65 -27.4 -45.15 -42.9 -45.15" fill="#6f6f6f" fill-rule="evenodd" stroke="none"/>
    <path d="M-79.9 -25.15 Q-65.9 -25.15 -51.9 -25.65 L-51.9 13.35 -69.9 13.35 -69.9 -11.15 -136.9 -11.15 -136.9 -27.15 -79.9 -27.15 -79.9 -25.15" fill="#6f6f6f" fill-rule="evenodd" stroke="none"/>
    <path d="M48.1 -19.15 L48.1 -35.15 57.1 -35.15 57.1 -19.15 48.1 -19.15" fill="#6f6f6f" fill-rule="evenodd" stroke="none"/>
    <path d="M45.1 -41.65 Q46.1 -43.15 46.6 -45.15 L50.6 -46.15 Q52.6 -45.15 54.1 -44.15 L55.1 -40.65 Q54.1 -38.65 53.1 -37.15 L49.6 -36.15 Q48.1 -36.65 46.1 -37.65 L45.1 -41.65" fill="#6f6f6f" fill-rule="evenodd" stroke="none"/>
    <path d="M54.6 -59.15 Q56.6 -58.15 58.1 -57.65 L59.6 -54.15 Q59.1 -52.15 58.1 -50.65 56.6 -49.65 54.6 -49.15 53.1 -49.65 51.1 -50.65 L49.6 -54.15 Q50.6 -55.65 51.1 -57.65 53.1 -58.15 54.6 -59.15" fill="#6f6f6f" fill-rule="evenodd" stroke="none"/>
    <path d="M55.6 -166.15 L51.6 -166.15 Q50.1 -167.15 48.6 -168.65 L48.6 -172.65 Q50.1 -173.65 51.1 -175.15 L55.1 -175.65 58.1 -172.65 58.1 -169.15 55.6 -166.15" fill="#6f6f6f" fill-rule="evenodd" stroke="none"/>
    <path d="M55.6 -507.65 L51.6 -507.65 Q50.1 -508.65 48.6 -510.15 L48.6 -514.15 Q50.1 -515.15 51.1 -516.65 L55.1 -516.65 Q56.6 -515.15 58.1 -514.15 L58.1 -510.15 Q57.1 -508.65 55.6 -507.65" fill="#6f6f6f" fill-rule="evenodd" stroke="none"/>
    <path d="M-29.9 -461.65 L-32.4 -464.15 -32.4 -468.15 Q-30.9 -469.15 -29.9 -470.65 L-26.4 -470.65 Q-24.9 -469.15 -23.4 -468.15 L-23.4 -464.15 Q-24.4 -462.65 -25.9 -461.65 L-29.9 -461.65" fill="#6f6f6f" fill-rule="evenodd" stroke="none"/>
    <path d="M-73.9 -482.15 L-69.4 -482.15 Q-67.4 -480.15 -65.4 -478.65 L-65.4 -474.15 Q-66.9 -472.15 -68.9 -470.15 L-73.9 -470.15 -77.4 -473.65 -77.4 -478.65 Q-75.4 -480.15 -73.9 -482.15" fill="#6f6f6f" fill-rule="evenodd" stroke="none"/>
    <path d="M-67.4 -498.15 L-65.4 -493.15 -67.4 -488.65 Q-69.4 -487.65 -71.9 -487.15 L-76.4 -489.15 -78.4 -493.65 -76.4 -498.15 -71.4 -500.15 -67.4 -498.15" fill="#6f6f6f" fill-rule="evenodd" stroke="none"/>
    <path d="M-4.4 -710.15 Q-6.4 -709.15 -8.9 -708.65 L-13.4 -710.65 -15.4 -715.15 -13.4 -719.65 -8.4 -721.65 Q-5.9 -720.65 -3.9 -719.65 -2.9 -717.15 -2.4 -714.65 L-4.4 -710.15" fill="#6f6f6f" fill-rule="evenodd" stroke="none"/>
    <path d="M35.6 -936.15 Q33.6 -937.15 31.1 -938.15 L29.6 -942.65 31.6 -947.15 36.1 -949.15 40.6 -947.15 Q41.6 -944.65 42.1 -942.15 L40.1 -937.65 Q38.1 -936.65 35.6 -936.15" fill="#6f6f6f" fill-rule="evenodd" stroke="none"/>
    <path d="M-25.4 -723.15 L-21.4 -721.15 -19.4 -716.65 -21.4 -712.15 Q-23.4 -711.15 -25.9 -710.15 L-30.4 -712.15 -32.4 -717.15 -30.4 -721.65 Q-27.9 -722.15 -25.4 -723.15" fill="#6f6f6f" fill-rule="evenodd" stroke="none"/>
    <path d="M4.1 -938.65 Q2.1 -939.65 -0.4 -941.15 -0.9 -943.15 -1.9 -945.65 -0.4 -947.65 0.6 -950.15 3.1 -950.65 5.1 -951.65 7.6 -950.15 9.6 -949.15 L11.1 -944.65 Q10.1 -942.15 8.6 -940.15 6.6 -939.15 4.1 -938.65" fill="#6f6f6f" fill-rule="evenodd" stroke="none"/>
    <path d="M-130.9 -266.65 L-147.4 -283.15 -156.4 -304.65 Q-156.4 -316.15 -156.9 -328.15 L-148.9 -349.65 -133.9 -367.65 Q-123.4 -373.15 -113.4 -378.65 L-89.9 -381.15 -67.4 -375.65 Q-57.9 -368.65 -48.4 -362.15 L-35.9 -342.65 -30.9 -319.65 Q-32.4 -308.15 -34.4 -296.65 L-46.4 -276.65 Q-55.4 -269.15 -64.4 -262.15 L-86.4 -255.15 -109.9 -256.65 -130.9 -266.65" fill="#6f6f6f" fill-rule="evenodd" stroke="none"/>
    <path d="M-60.9 -188.15 L-60.9 -176.65 -53.9 -176.65 -53.9 -160.65 -57.9 -160.65 -57.9 -123.15 -20.4 -123.15 -20.4 -141.65 2.6 -141.65 2.6 -136.65 30.1 -136.65 30.1 -134.15 30.6 -134.15 30.6 -119.15 26.1 -119.15 26.1 -131.65 2.6 -131.65 2.6 -108.15 -3.9 -108.15 -3.9 -101.65 -15.4 -101.65 -15.4 -108.15 -20.4 -108.15 -20.4 -117.15 -57.9 -117.15 -57.9 -107.65 -64.4 -107.65 -64.4 -117.15 -93.9 -117.15 -93.9 -110.15 -92.4 -110.15 -92.4 -95.15 -101.4 -95.15 -101.4 -110.15 -98.9 -110.15 -98.9 -119.65 -97.4 -119.65 -97.4 -123.15 -64.4 -123.15 -64.4 -160.65 -70.9 -160.65 -70.9 -176.65 -68.9 -176.65 -68.9 -188.15 -60.9 -188.15" fill="#6f6f6f" fill-rule="evenodd" stroke="none"/>
    <path d="M-15.9 -200.15 L-20.4 -200.15 -20.4 -205.15 -26.9 -205.15 -26.9 -217.65 -20.4 -217.65 -20.4 -223.15 13.6 -223.15 13.6 -200.15 -9.9 -200.15 -9.9 -191.65 16.6 -191.65 16.6 -188.65 -65.4 -188.65 -65.4 -191.65 -15.9 -191.65 -15.9 -200.15" fill="#6f6f6f" fill-rule="evenodd" stroke="none"/>
    <path d="M-93.9 -246.65 L-81.4 -246.65 -81.4 -239.15 -76.9 -239.15 -76.9 -205.15 -98.9 -205.15 -98.9 -239.15 -93.9 -239.15 -93.9 -246.65" fill="#6f6f6f" fill-rule="evenodd" stroke="none"/>
    <path d="M-118.9 -239.15 L-118.9 -205.15 -140.9 -205.15 -140.9 -239.15 -136.4 -239.15 -136.4 -245.65 -122.9 -245.65 -122.9 -239.15 -118.9 -239.15" fill="#6f6f6f" fill-rule="evenodd" stroke="none"/>
    <path d="M-164.9 -259.65 L-164.9 -276.65 -148.4 -276.65 -148.4 -259.65 -164.9 -259.65" fill="#6f6f6f" fill-rule="evenodd" stroke="none"/>
    <path d="M26.1 -259.15 L27.6 -259.15 27.6 -202.65 26.1 -202.65 26.1 -259.15" fill="#6f6f6f" fill-rule="evenodd" stroke="none"/>
    <path d="M7.6 -344.15 L7.6 -327.65 -9.4 -327.65 -9.4 -344.15 7.6 -344.15" fill="#6f6f6f" fill-rule="evenodd" stroke="none"/>
    <path d="M26.6 -298.15 L26.6 -302.65 60.6 -302.65 60.6 -298.15 26.6 -298.15" fill="#6f6f6f" fill-rule="evenodd" stroke="none"/>
    <path d="M26.6 -329.15 L26.6 -333.15 60.6 -333.15 60.6 -329.15 26.6 -329.15" fill="#6f6f6f" fill-rule="evenodd" stroke="none"/>
    <path d="M29.6 -383.15 L38.1 -383.15 38.1 -366.65 29.6 -366.65 29.6 -383.15" fill="#6f6f6f" fill-rule="evenodd" stroke="none"/>
    <path d="M26.6 -395.65 L26.6 -400.15 60.6 -400.15 60.6 -395.65 26.6 -395.65" fill="#6f6f6f" fill-rule="evenodd" stroke="none"/>
    <path d="M26.6 -426.15 L26.6 -431.65 60.6 -431.65 60.6 -426.15 26.6 -426.15" fill="#6f6f6f" fill-rule="evenodd" stroke="none"/>
    <path d="M-3.9 -382.15 L-16.4 -382.15 -16.4 -388.15 -21.4 -388.15 -21.4 -422.65 1.1 -422.65 1.1 -388.15 -3.9 -388.15 -3.9 -382.15" fill="#6f6f6f" fill-rule="evenodd" stroke="none"/>
    <path d="M-121.4 -424.15 L-121.4 -408.65 -129.4 -408.65 -129.4 -424.15 -121.4 -424.15" fill="#6f6f6f" fill-rule="evenodd" stroke="none"/>
    <path d="M-134.4 -408.15 L-142.4 -408.15 -142.4 -424.15 -134.4 -424.15 -134.4 -408.15" fill="#6f6f6f" fill-rule="evenodd" stroke="none"/>
    <path d="M23.1 -459.15 L23.1 -474.15 28.1 -474.15 28.1 -459.15 23.1 -459.15" fill="#6f6f6f" fill-rule="evenodd" stroke="none"/>
    <path d="M31.1 -682.65 L63.6 -682.65 63.6 -583.15 31.1 -583.15 31.1 -682.65" fill="#6f6f6f" fill-rule="evenodd" stroke="none"/>
    <path d="M-94.9 -595.65 L-133.9 -591.65 -144.9 -690.65 -104.4 -695.65 Q-99.4 -645.65 -94.9 -595.65" fill="#6f6f6f" fill-rule="evenodd" stroke="none"/>
    <path d="M-44.9 -458.15 L-44.9 -449.15 -47.9 -449.15 -47.9 -458.15 -44.9 -458.15" fill="#6f6f6f" fill-rule="evenodd" stroke="none"/>
    <path d="M-116.4 -513.65 L-116.4 -531.15 -99.9 -531.15 -99.9 -529.15 -92.9 -529.15 -92.9 -536.65 -84.9 -536.65 -84.9 -527.15 -79.9 -527.15 -79.9 -530.65 -63.9 -530.65 -63.9 -528.65 -61.4 -528.65 -61.4 -520.15 -63.9 -520.15 -63.9 -514.15 -79.9 -514.15 -79.9 -522.15 -84.9 -522.15 -84.9 -516.65 -85.9 -513.65 -85.9 -462.65 -86.9 -461.15 Q-87.4 -460.65 -88.4 -460.65 L-94.9 -460.65 -94.9 -455.65 -76.4 -455.65 Q-74.9 -456.15 -73.9 -457.15 -71.9 -457.65 -70.4 -458.65 L-61.4 -458.65 -61.4 -449.65 -76.4 -450.15 -108.9 -450.15 -108.9 -455.65 -99.9 -455.65 -99.9 -460.65 Q-102.4 -459.15 -105.4 -458.15 L-116.4 -458.15 -116.4 -467.65 -105.4 -467.65 -99.9 -465.65 -99.9 -486.65 -106.4 -486.65 -106.4 -485.15 -122.4 -485.15 -122.4 -494.15 -106.4 -494.15 -106.4 -492.15 -100.9 -492.15 -96.9 -491.15 Q-95.9 -490.15 -95.4 -489.15 -94.9 -487.65 -94.9 -486.65 L-94.9 -465.65 -90.9 -465.65 -90.9 -513.15 -92.9 -520.15 -99.9 -520.15 -99.9 -513.65 -116.4 -513.65" fill="#6f6f6f" fill-rule="evenodd" stroke="none"/>
    <path d="M-39.9 -512.65 L-31.4 -512.65 -31.4 -496.65 -33.4 -496.65 -33.4 -472.65 -38.4 -472.65 -38.4 -473.15 -47.9 -473.15 -47.9 -477.65 -38.4 -477.65 -38.4 -496.65 -39.9 -496.65 -39.9 -512.65" fill="#6f6f6f" fill-rule="evenodd" stroke="none"/>
    <path d="M-111.9 -555.15 L-110.9 -572.65 -94.9 -571.65 -95.9 -554.15 -111.9 -555.15" fill="#6f6f6f" fill-rule="evenodd" stroke="none"/>
    <path d="M-28.9 -644.15 L-28.9 -653.15 -5.4 -653.15 Q-3.4 -652.15 -1.4 -651.65 L2.1 -647.65 Q2.6 -645.65 2.6 -644.15 L2.6 -525.15 -7.4 -525.15 -7.4 -644.15 -28.9 -644.15" fill="#6f6f6f" fill-rule="evenodd" stroke="none"/>
    <path d="M-18.9 -632.15 L-28.9 -632.15 -28.9 -641.65 -8.9 -641.65 -8.9 -574.65 -41.9 -574.65 -41.9 -569.65 -39.9 -569.65 -39.9 -564.65 -48.9 -564.65 Q-48.4 -567.15 -48.4 -569.65 L-46.9 -569.65 -46.9 -574.65 -61.4 -574.65 -63.9 -576.15 -66.4 -578.15 -67.4 -581.65 -67.4 -594.15 -58.9 -594.15 -58.9 -584.15 -18.9 -584.15 -18.9 -632.15" fill="#6f6f6f" fill-rule="evenodd" stroke="none"/>
    <path d="M-35.9 -574.15 L-30.9 -574.15 -30.9 -569.65 -29.9 -569.65 -29.9 -564.15 -37.9 -564.15 -37.9 -569.65 -35.9 -569.65 -35.9 -574.15" fill="#6f6f6f" fill-rule="evenodd" stroke="none"/>
    <path d="M-8.9 -570.15 L-8.9 -568.65 -28.4 -568.65 -28.4 -570.15 -8.9 -570.15" fill="#6f6f6f" fill-rule="evenodd" stroke="none"/>
    <path d="M-63.9 -660.15 L-62.9 -660.15 -62.9 -661.15 -59.9 -661.15 -59.9 -659.65 -61.9 -659.65 -61.9 -601.65 -58.4 -601.65 -58.4 -599.15 -62.4 -599.15 -62.4 -600.65 -63.9 -600.65 -63.9 -660.15" fill="#6f6f6f" fill-rule="evenodd" stroke="none"/>
    <path d="M-28.9 -655.65 L-28.9 -657.65 -17.9 -657.65 -17.9 -655.65 -28.9 -655.65" fill="#6f6f6f" fill-rule="evenodd" stroke="none"/>
    <path d="M-67.4 -711.65 L-84.9 -712.65 -83.9 -729.65 -66.9 -729.15 Q-66.9 -720.15 -67.4 -711.65" fill="#6f6f6f" fill-rule="evenodd" stroke="none"/>
    <path d="M-34.9 -810.65 Q-35.4 -798.65 -36.4 -786.65 L-105.4 -790.15 -104.4 -813.15 -34.9 -810.65" fill="#6f6f6f" fill-rule="evenodd" stroke="none"/>
    <path d="M31.1 -892.65 L33.6 -888.65 Q33.6 -884.65 33.1 -880.65 L35.1 -873.15 37.1 -873.15 Q37.1 -866.65 36.6 -860.15 L23.1 -860.65 Q23.6 -867.15 23.6 -873.65 L26.1 -873.15 28.1 -881.65 28.1 -887.65 -20.9 -888.65 Q-23.4 -887.65 -26.4 -886.65 -26.4 -883.15 -26.9 -880.15 L-19.9 -880.15 Q-19.9 -872.15 -20.4 -864.15 L-37.9 -864.65 Q-37.4 -872.65 -37.4 -880.65 L-35.4 -880.65 -35.4 -887.65 -48.4 -887.65 -48.4 -876.15 -71.4 -877.15 -70.4 -910.15 -65.9 -910.15 Q-65.4 -913.65 -65.4 -917.65 L-52.9 -917.65 Q-52.9 -913.65 -53.4 -909.65 L-47.4 -909.65 Q-47.4 -902.65 -47.9 -896.15 L-33.9 -895.65 Q-32.9 -897.65 -32.4 -900.15 L-36.9 -900.15 Q-36.4 -908.15 -36.4 -916.15 L-18.9 -915.65 Q-18.9 -907.65 -19.4 -899.65 L-27.4 -899.15 -27.4 -896.65 -19.9 -894.15 28.6 -893.15 31.1 -892.65" fill="#6f6f6f" fill-rule="evenodd" stroke="none"/>
    <path d="M-167.9 -948.15 L-165.9 -948.15 Q-165.4 -953.15 -165.4 -958.65 L-156.4 -958.65 -156.4 -947.65 -149.9 -947.65 Q-149.9 -938.65 -150.4 -930.15 L-154.9 -930.65 -155.9 -894.15 Q-146.4 -893.65 -136.9 -893.65 -133.4 -894.15 -130.4 -895.15 L-119.9 -894.65 Q-119.4 -902.65 -119.4 -910.65 -107.9 -910.15 -96.9 -910.15 -96.9 -893.65 -97.4 -877.15 L-102.4 -877.15 -102.4 -869.15 -114.9 -869.65 -114.9 -877.65 -120.4 -877.65 -120.4 -886.15 -130.9 -886.15 Q-133.9 -886.65 -137.4 -887.65 L-156.4 -887.65 -156.4 -878.65 -161.9 -878.65 -161.9 -888.15 Q-177.4 -888.15 -192.9 -888.65 L-192.9 -883.15 -190.9 -883.15 Q-190.9 -874.65 -191.4 -866.65 L-200.4 -866.65 -200.4 -883.15 -198.4 -883.15 -198.4 -890.15 -197.4 -892.65 Q-196.4 -893.15 -195.4 -894.15 L-191.4 -894.65 Q-176.4 -894.15 -161.4 -894.15 -160.9 -902.15 -160.9 -910.65 L-163.9 -917.65 Q-163.4 -924.15 -163.4 -930.65 L-168.4 -930.65 Q-167.9 -939.15 -167.9 -948.15" fill="#6f6f6f" fill-rule="evenodd" stroke="none"/>
  </g>
</svg>
