<?xml version="1.0" encoding="UTF-8" standalone="no"?>
<svg xmlns:ffdec="https://www.free-decompiler.com/flash" xmlns:xlink="http://www.w3.org/1999/xlink" ffdec:objectType="shape" height="180.0px" width="55.9px" xmlns="http://www.w3.org/2000/svg">
  <g transform="matrix(1.0, 0.0, 0.0, 1.0, 0.0, 0.0)">
    <path d="M49.05 27.0 L28.9 6.75 28.9 0.0 35.65 0.0 55.9 20.15 55.9 27.0 49.05 27.0 M26.85 6.85 L6.7 27.0 0.0 27.0 0.0 20.15 20.15 0.1 26.85 0.1 26.85 6.85 M0.0 153.0 L6.85 153.0 27.0 173.25 27.0 180.0 20.25 180.0 0.0 159.85 0.0 153.0 M55.9 159.85 L35.75 179.9 29.05 179.9 29.05 173.15 49.2 153.0 55.9 153.0 55.9 159.85" fill="#ffffff" fill-rule="evenodd" stroke="none"/>
  </g>
</svg>
