<?xml version="1.0" encoding="UTF-8" standalone="no"?>
<svg xmlns:ffdec="https://www.free-decompiler.com/flash" xmlns:xlink="http://www.w3.org/1999/xlink" ffdec:objectType="shape" height="1115.45px" width="496.5px" xmlns="http://www.w3.org/2000/svg">
  <g transform="matrix(1.0, 0.0, 0.0, 1.0, 351.0, 267.75)">
    <path d="M-304.95 -267.75 L145.5 -267.75 145.5 847.7 -303.6 847.7 -303.6 189.0 -351.0 189.0 -351.0 -21.0 -304.95 -21.0 -304.95 -267.75" fill="#434343" fill-rule="evenodd" stroke="none"/>
    <path d="M-213.75 -252.25 L-213.75 -261.05 133.4 -261.05 133.4 -252.25 136.9 -252.25 137.3 -150.25 133.4 -150.25 133.4 -138.75 137.05 -138.75 136.9 -36.75 137.4 -24.75 137.4 87.25 133.4 87.25 133.4 99.4 137.05 99.4 137.05 108.55 145.5 108.55 145.5 211.25 137.05 211.25 137.05 218.55 133.4 218.55 133.4 230.7 136.4 230.7 136.4 383.25 132.05 383.25 132.05 393.0 137.65 393.0 137.65 518.05 18.25 518.05 18.25 393.0 36.25 393.0 36.25 383.25 11.4 383.25 11.4 524.55 134.9 524.55 134.9 535.55 138.05 535.55 138.05 683.25 134.9 683.25 134.9 695.05 138.05 695.05 138.05 826.75 134.9 826.75 134.9 838.75 -214.95 838.75 -214.95 828.75 -224.25 828.75 -224.25 775.55 -214.25 775.55 -214.25 763.75 -233.25 763.75 -233.25 746.0 -246.6 746.0 -246.6 762.25 -295.15 762.25 -295.15 297.55 -244.6 297.55 -244.6 316.75 -234.25 316.75 -234.25 297.55 -213.75 297.55 -213.75 286.75 -217.05 286.75 -217.05 224.55 -213.75 224.55 -213.75 214.25 -230.25 214.25 -230.25 184.05 -158.75 184.05 -158.75 160.5 -161.7 160.5 -161.7 181.3 -239.7 181.3 -239.7 140.0 -254.5 140.0 -254.5 127.0 -252.75 127.0 -252.75 121.25 -292.25 121.25 -292.25 126.5 -257.5 126.5 -257.5 181.75 -343.25 181.75 -343.25 79.0 -293.25 79.0 -293.25 82.0 -285.5 82.0 -285.5 73.25 -293.0 73.25 -293.0 76.5 -343.25 76.5 -343.25 -13.5 -239.25 -13.5 -239.25 -10.25 -236.5 -10.25 -236.5 -13.75 -194.75 -13.75 -194.75 19.25 -236.5 19.25 -236.5 15.5 -239.25 15.5 -239.25 19.25 -242.5 19.25 -242.5 27.25 -232.7 27.25 -232.7 21.65 -161.7 21.65 -161.7 123.25 -178.5 123.25 -178.5 126.5 -161.7 126.5 -161.7 134.25 -158.75 134.25 -158.75 -17.05 -230.7 -17.05 -230.7 -24.0 -213.75 -24.0 -213.75 -36.75 -216.75 -36.75 -216.75 -138.75 -213.75 -138.75 -213.75 -150.25 -217.75 -150.25 -217.75 -252.25 -213.75 -252.25" fill="#969696" fill-rule="evenodd" stroke="none"/>
    <path d="M-6.75 427.65 L11.4 427.65 11.4 507.25 -6.75 507.25 -6.75 427.65" fill="#707070" fill-rule="evenodd" stroke="none"/>
    <path d="M-224.25 828.75 L-224.25 795.05 -142.0 795.05 -142.0 836.35 -214.95 836.35 -214.95 828.75 -224.25 828.75" fill="#707070" fill-rule="evenodd" stroke="none"/>
    <path d="M-55.1 795.05 L-55.1 836.35 -136.25 836.35 -136.25 795.05 -55.1 795.05" fill="#707070" fill-rule="evenodd" stroke="none"/>
    <path d="M31.8 795.05 L31.8 836.35 -49.35 836.35 -49.35 795.05 31.8 795.05" fill="#707070" fill-rule="evenodd" stroke="none"/>
    <path d="M88.0 795.2 L88.0 813.8 47.15 813.8 47.15 795.2 88.0 795.2" fill="#707070" fill-rule="evenodd" stroke="none"/>
    <path d="M16.3 775.35 L39.3 777.4 38.15 790.4 15.15 788.3 16.3 775.35" fill="#707070" fill-rule="evenodd" stroke="none"/>
    <path d="M-7.45 519.95 L0.8 514.1 8.8 525.4 0.5 531.2 -7.45 519.95" fill="#707070" fill-rule="evenodd" stroke="none"/>
    <path d="M111.9 819.35 L97.45 807.4 106.95 795.85 121.45 807.8 111.9 819.35" fill="#707070" fill-rule="evenodd" stroke="none"/>
    <path d="M108.05 666.4 L124.85 667.05 121.7 746.35 104.9 745.7 108.05 666.4" fill="#707070" fill-rule="evenodd" stroke="none"/>
    <path d="M109.05 759.0 L129.75 757.65 131.8 790.15 111.1 791.45 109.05 759.0" fill="#707070" fill-rule="evenodd" stroke="none"/>
    <path d="M93.7 591.75 L108.35 587.25 129.65 656.6 114.95 661.1 93.7 591.75" fill="#707070" fill-rule="evenodd" stroke="none"/>
    <path d="M33.6 395.15 L56.5 395.15 56.5 497.2 33.6 497.2 33.6 395.15" fill="#707070" fill-rule="evenodd" stroke="none"/>
    <path d="M111.35 497.2 L111.35 512.5 56.5 512.5 56.5 497.2 111.35 497.2" fill="#707070" fill-rule="evenodd" stroke="none"/>
    <path d="M111.35 497.2 L111.35 395.15 134.25 395.15 134.25 497.2 111.35 497.2" fill="#707070" fill-rule="evenodd" stroke="none"/>
    <path d="M-179.75 35.75 L-161.7 35.75 -161.7 95.0 -179.75 95.0 -179.75 35.75" fill="#707070" fill-rule="evenodd" stroke="none"/>
    <path d="M-293.55 19.6 L-293.55 52.25 -311.65 52.25 -311.65 19.6 -293.55 19.6" fill="#707070" fill-rule="evenodd" stroke="none"/>
    <path d="M-343.25 11.5 L-325.0 11.5 -325.0 59.25 -343.25 59.25 -343.25 11.5" fill="#707070" fill-rule="evenodd" stroke="none"/>
    <path d="M-322.95 -13.5 L-279.2 -13.5 -279.2 6.15 -322.95 6.15 -322.95 -13.5" fill="#707070" fill-rule="evenodd" stroke="none"/>
    <path d="M-271.45 -13.5 L-252.85 -13.5 -252.85 -3.35 -271.45 -3.35 -271.45 -13.5" fill="#707070" fill-rule="evenodd" stroke="none"/>
    <path d="M-216.0 -107.0 L-199.2 -106.65 -200.25 -58.95 -217.05 -59.35 -216.0 -107.0" fill="#707070" fill-rule="evenodd" stroke="none"/>
    <path d="M-212.8 -109.2 L-212.4 -129.0 -191.95 -128.55 -192.4 -108.75 -212.8 -109.2" fill="#707070" fill-rule="evenodd" stroke="none"/>
    <path d="M-171.7 -109.05 L-166.0 -127.25 -111.15 -110.1 -116.85 -91.9 -171.7 -109.05" fill="#707070" fill-rule="evenodd" stroke="none"/>
    <path d="M-157.5 -20.5 L-144.75 -20.5 -144.75 9.0 -138.0 9.0 -138.0 87.5 -157.5 87.5 -157.5 -20.5" fill="#707070" fill-rule="evenodd" stroke="none"/>
    <path d="M-217.75 -237.0 L-201.25 -237.0 -201.25 -157.05 -217.75 -157.05 -217.75 -237.0" fill="#707070" fill-rule="evenodd" stroke="none"/>
    <path d="M126.85 -226.35 L136.9 -226.35 136.9 -179.25 126.85 -179.25 126.85 -226.35" fill="#707070" fill-rule="evenodd" stroke="none"/>
    <path d="M135.55 -47.85 L136.55 -17.55 119.3 -16.1 118.4 -47.6 135.55 -47.85" fill="#707070" fill-rule="evenodd" stroke="none"/>
    <path d="M-198.7 -13.75 L-194.75 -13.75 -194.75 19.25 -198.7 19.25 -198.7 5.1 -199.15 5.5 -201.6 6.35 -204.3 6.35 -206.75 5.5 -208.4 4.0 -209.0 2.1 -208.4 0.2 -206.75 -1.25 -204.3 -2.1 -201.6 -2.1 -199.15 -1.25 -198.7 -0.85 -198.7 -13.75" fill="#707070" fill-rule="evenodd" stroke="none"/>
    <path d="M-226.5 -13.5 L-216.1 -13.5 -216.1 -9.55 -226.5 -9.55 -226.5 -13.5" fill="#707070" fill-rule="evenodd" stroke="none"/>
    <path d="M-273.2 181.75 L-273.2 167.5 -275.2 167.5 -275.2 126.5 -257.5 126.5 -257.5 181.75 -273.2 181.75" fill="#707070" fill-rule="evenodd" stroke="none"/>
    <path d="M-343.25 127.3 L-336.35 127.3 -336.35 156.15 -343.25 156.15 -343.25 127.3" fill="#707070" fill-rule="evenodd" stroke="none"/>
    <path d="M-327.95 79.0 L-300.7 79.0 -300.7 89.0 -327.95 89.0 -327.95 79.0" fill="#707070" fill-rule="evenodd" stroke="none"/>
    <path d="M-207.95 115.15 L-207.95 99.15 -187.5 99.15 -187.5 115.15 -207.95 115.15" fill="#707070" fill-rule="evenodd" stroke="none"/>
    <path d="M-218.25 33.0 L-218.25 22.8 -195.2 22.8 -195.2 33.0 -218.25 33.0" fill="#707070" fill-rule="evenodd" stroke="none"/>
    <path d="M-182.25 36.9 L-184.05 23.9 -166.75 21.5 -164.95 34.5 -182.25 36.9" fill="#707070" fill-rule="evenodd" stroke="none"/>
    <path d="M-224.8 25.8 L-222.1 36.0 -232.35 38.7 -235.05 28.5 -224.8 25.8" fill="#707070" fill-rule="evenodd" stroke="none"/>
    <path d="M-184.05 121.45 L-182.2 100.95 -163.2 102.65 -165.05 123.15 -184.05 121.45" fill="#707070" fill-rule="evenodd" stroke="none"/>
    <path d="M-251.3 130.7 L-243.7 124.2 -237.65 131.3 -245.25 137.8 -251.3 130.7" fill="#707070" fill-rule="evenodd" stroke="none"/>
    <path d="M-341.5 175.4 L-336.75 166.6 -327.1 171.8 -331.85 180.6 -341.5 175.4" fill="#707070" fill-rule="evenodd" stroke="none"/>
    <path d="M-246.6 83.35 L-237.6 71.15 -225.65 80.05 -234.6 92.2 -246.6 83.35" fill="#707070" fill-rule="evenodd" stroke="none"/>
    <path d="M-239.7 181.3 L-239.7 168.8 -207.0 168.8 -207.0 165.15 -190.0 165.15 -190.0 181.3 -239.7 181.3" fill="#707070" fill-rule="evenodd" stroke="none"/>
    <path d="M-252.85 667.0 L-279.0 667.0 -279.0 631.15 -252.85 631.15 -252.85 667.0" fill="#707070" fill-rule="evenodd" stroke="none"/>
    <path d="M-257.65 582.1 L-257.65 603.5 -278.25 603.5 -278.25 582.1 -257.65 582.1" fill="#707070" fill-rule="evenodd" stroke="none"/>
    <path d="M-256.2 520.15 L-256.2 537.15 -270.45 537.15 -270.45 520.15 -256.2 520.15" fill="#707070" fill-rule="evenodd" stroke="none"/>
    <path d="M128.25 370.75 L114.0 370.75 114.0 338.55 128.25 338.55 128.25 370.75" fill="#707070" fill-rule="evenodd" stroke="none"/>
    <path d="M128.25 334.35 L113.35 334.35 113.35 321.7 128.25 321.7 128.25 334.35" fill="#707070" fill-rule="evenodd" stroke="none"/>
    <path d="M11.95 344.65 L51.1 381.85 46.55 386.6 7.45 349.4 11.95 344.65" fill="#707070" fill-rule="evenodd" stroke="none"/>
    <path d="M122.75 277.75 L95.35 277.75 95.35 259.5 122.75 259.5 122.75 277.75" fill="#707070" fill-rule="evenodd" stroke="none"/>
    <path d="M-199.5 280.5 L-217.05 280.5 -217.05 260.55 -199.5 260.55 -199.5 280.5" fill="#707070" fill-rule="evenodd" stroke="none"/>
    <path d="M-199.7 234.5 L-199.7 254.4 -217.05 254.4 -217.05 234.5 -199.7 234.5" fill="#707070" fill-rule="evenodd" stroke="none"/>
    <path d="M75.3 664.0 L62.55 671.35 54.8 657.9 67.55 650.55 75.3 664.0" fill="#707070" fill-rule="evenodd" stroke="none"/>
    <path d="M5.4 422.05 L3.75 424.6 1.05 426.05 -2.0 425.9 -4.55 424.3 -6.0 421.6 -5.85 418.55 -4.25 415.95 -1.55 414.55 1.5 414.65 4.1 416.3 5.5 419.0 5.4 422.05" fill="#707070" fill-rule="evenodd" stroke="none"/>
    <path d="M9.9 410.4 L8.25 413.0 5.55 414.4 2.5 414.3 -0.05 412.65 -1.5 409.95 -1.35 406.9 0.25 404.35 2.95 402.9 6.0 403.05 8.6 404.65 10.0 407.35 9.9 410.4" fill="#707070" fill-rule="evenodd" stroke="none"/>
    <path d="M69.5 772.3 L69.65 769.25 71.25 766.65 73.95 765.25 77.0 765.35 79.6 767.0 81.0 769.7 80.9 772.75 79.25 775.35 76.55 776.75 73.5 776.65 70.95 775.0 69.5 772.3" fill="#707070" fill-rule="evenodd" stroke="none"/>
    <path d="M-10.4 419.55 L-12.2 418.4 -13.25 416.45 -13.15 414.3 -12.0 412.5 -10.05 411.5 -7.9 411.55 -6.1 412.75 -5.1 414.65 -5.15 416.8 -6.35 418.6 -8.25 419.65 -10.4 419.55" fill="#707070" fill-rule="evenodd" stroke="none"/>
    <path d="M-172.75 -17.05 L-189.1 -17.05 -189.1 -33.75 -172.75 -33.75 -172.75 -17.05" fill="#707070" fill-rule="evenodd" stroke="none"/>
    <path d="M-0.2 -267.75 L112.0 -267.75 112.0 -259.9 -0.2 -259.9 -0.2 -267.75" fill="#ffffff" fill-rule="evenodd" stroke="none"/>
    <path d="M145.5 108.55 L145.5 211.25 137.05 211.25 137.05 108.55 145.5 108.55" fill="#ffffff" fill-rule="evenodd" stroke="none"/>
    <path d="M-295.15 346.75 L-295.15 381.05 -303.6 381.05 -303.6 346.75 -295.15 346.75" fill="#ffffff" fill-rule="evenodd" stroke="none"/>
    <path d="M145.5 -120.75 L145.5 -56.25 137.05 -56.25 137.05 -120.75 145.5 -120.75" fill="#ffffff" fill-rule="evenodd" stroke="none"/>
  </g>
</svg>
