<?xml version="1.0" encoding="UTF-8" standalone="no"?>
<svg xmlns:ffdec="https://www.free-decompiler.com/flash" xmlns:xlink="http://www.w3.org/1999/xlink" ffdec:objectType="shape" height="997.9px" width="889.8px" xmlns="http://www.w3.org/2000/svg">
  <g transform="matrix(1.0, 0.0, 0.0, 1.0, 205.8, 666.95)">
    <path d="M507.0 -176.65 L507.0 -79.1 263.95 -79.1 263.95 330.95 -205.8 330.95 -205.8 -70.05 -128.1 -70.05 -128.1 -550.2 196.6 -550.2 196.6 -666.95 684.0 -666.95 684.0 -176.65 507.0 -176.65" fill="#434343" fill-rule="evenodd" stroke="none"/>
    <path d="M-169.55 264.8 L-169.55 270.7 -139.8 270.7 -139.8 264.8 -169.55 264.8 M-87.65 180.1 L-83.2 185.35 -80.0 190.8 -77.5 197.05 -75.75 203.9 -74.9 211.05 -74.9 218.4 -75.75 225.55 -77.5 232.4 -80.0 238.65 -83.2 244.1 -87.65 249.35 -82.3 253.85 -77.45 248.15 -73.7 241.75 -70.85 234.55 -68.9 226.85 -67.9 218.8 -67.9 210.65 -68.9 202.6 -70.85 194.9 -73.7 187.7 -77.45 181.3 -82.3 175.6 -87.65 180.1 M-169.55 158.5 L-169.55 164.35 -139.8 164.35 -139.8 158.5 -169.55 158.5 M123.35 118.85 L122.75 117.35 121.55 116.15 120.05 115.55 118.4 115.55 116.9 116.15 115.7 117.35 115.1 118.85 115.1 120.5 115.7 122.05 116.9 123.2 118.4 123.8 120.05 123.8 121.55 123.2 122.75 122.05 123.35 120.5 123.35 118.85 M51.95 -104.8 L50.1 -105.2 48.2 -104.8 46.6 -103.7 45.65 -102.0 45.45 -100.05 46.05 -98.25 47.35 -96.8 49.1 -96.0 51.05 -96.0 52.8 -96.8 54.1 -98.25 54.7 -100.05 54.5 -102.0 53.55 -103.7 51.95 -104.8 M89.0 -146.5 L88.05 -148.2 86.45 -149.3 84.6 -149.7 82.7 -149.3 81.1 -148.2 80.15 -146.5 79.95 -144.55 80.55 -142.75 81.85 -141.3 83.6 -140.5 85.55 -140.5 87.3 -141.3 88.6 -142.75 89.2 -144.55 89.0 -146.5 M175.6 -92.9 L176.2 -94.75 176.0 -96.65 175.05 -98.35 173.45 -99.5 171.6 -99.9 169.7 -99.5 168.1 -98.35 167.15 -96.65 166.95 -94.75 167.55 -92.9 168.85 -91.45 170.6 -90.65 172.55 -90.65 174.3 -91.45 175.6 -92.9 M142.95 -147.15 L141.1 -147.55 139.2 -147.15 137.6 -146.0 136.65 -144.35 136.45 -142.4 137.05 -140.55 138.35 -139.1 140.1 -138.35 142.05 -138.35 143.8 -139.1 145.1 -140.55 145.7 -142.4 145.5 -144.35 144.55 -146.0 142.95 -147.15 M-5.95 -329.2 L1.8 -332.15 -0.2 -336.1 -7.4 -333.4 -15.1 -331.4 -14.15 -327.1 -5.95 -329.2 M37.1 -377.95 L34.4 -370.75 38.35 -368.7 41.3 -376.5 43.4 -384.7 39.05 -385.65 37.1 -377.95 M115.3 -339.1 L120.25 -334.15 119.35 -321.25 116.6 -308.75 112.15 -297.05 106.15 -286.4 98.65 -276.9 93.9 -272.15 84.4 -264.65 73.75 -258.65 62.05 -254.25 49.55 -251.45 36.95 -250.4 36.5 -249.75 31.0 -254.3 6.5 -229.5 40.0 -196.0 35.35 -191.85 44.5 -179.75 48.25 -183.0 46.85 -185.75 66.25 -196.35 68.05 -193.25 76.3 -196.75 87.5 -200.0 88.85 -199.95 89.75 -198.8 93.5 -195.4 97.8 -192.7 102.5 -190.9 107.45 -189.95 112.5 -189.95 117.45 -190.9 122.15 -192.7 126.45 -195.4 130.2 -198.8 130.9 -199.75 132.25 -199.75 144.55 -196.75 153.8 -193.0 155.8 -195.75 174.05 -186.0 173.3 -182.75 177.0 -180.25 186.15 -191.8 181.25 -195.35 178.75 -194.0 155.9 -205.55 157.45 -212.45 161.7 -222.3 166.8 -231.25 173.9 -238.9 177.4 -241.9 178.65 -237.15 181.4 -237.65 180.0 -246.75 178.8 -250.9 173.65 -264.3 168.3 -273.15 160.5 -283.3 148.0 -294.5 137.65 -301.0 138.15 -310.65 142.0 -326.15 145.5 -336.0 147.3 -335.8 152.1 -342.0 146.6 -347.75 147.35 -354.1 148.75 -360.0 150.35 -362.35 152.35 -360.75 158.6 -367.1 153.45 -372.25 147.3 -366.0 148.65 -364.5 144.8 -360.8 140.8 -364.65 115.3 -339.1 M487.25 -342.1 L493.85 -338.45 499.8 -333.95 505.05 -328.6 507.35 -325.65 511.35 -319.3 514.35 -312.45 516.4 -305.2 517.3 -297.8 517.2 -290.3 515.95 -282.9 513.7 -275.75 510.45 -269.0 506.25 -262.8 501.2 -257.3 498.35 -254.8 492.25 -250.5 486.25 -247.4 487.5 -244.7 493.75 -247.9 500.25 -252.45 506.0 -257.9 510.9 -264.1 513.0 -267.45 516.5 -274.6 518.9 -282.15 520.15 -289.95 520.3 -297.9 519.35 -305.75 517.2 -313.4 515.75 -317.1 512.05 -324.1 507.35 -330.5 501.8 -336.15 498.75 -338.65 492.1 -343.0 488.6 -344.8 487.25 -342.1 M343.6 -262.9 L344.15 -265.6 340.6 -265.75 333.35 -267.0 326.3 -269.15 319.55 -272.1 313.2 -275.9 307.35 -280.45 302.15 -285.65 297.6 -291.45 293.85 -297.8 290.85 -304.55 288.7 -311.6 287.5 -318.9 287.05 -325.0 282.75 -325.5 284.5 -312.8 282.55 -311.3 282.2 -312.5 278.75 -319.5 274.05 -325.7 268.3 -330.95 261.65 -335.05 254.4 -337.85 246.75 -339.3 239.1 -339.3 233.1 -338.75 230.35 -338.1 231.1 -335.2 233.45 -335.8 239.15 -336.3 246.45 -336.3 253.55 -334.95 260.3 -332.35 266.45 -328.55 271.8 -323.65 276.15 -317.9 279.4 -311.4 279.95 -309.35 279.5 -309.0 275.75 -286.5 252.75 -263.0 230.0 -261.75 229.6 -260.55 225.4 -262.2 219.25 -266.0 213.9 -270.85 209.55 -276.65 206.3 -283.1 204.35 -290.05 203.65 -297.25 204.35 -304.5 205.2 -308.7 202.25 -309.3 201.4 -305.05 200.65 -297.25 201.4 -289.5 203.5 -282.0 207.0 -275.05 211.65 -268.85 217.45 -263.6 224.05 -259.5 228.65 -257.7 228.25 -256.5 215.1 -257.75 215.0 -253.1 225.0 -252.8 235.3 -249.95 244.95 -245.3 253.65 -239.0 261.05 -231.25 266.95 -222.3 271.15 -212.45 273.55 -202.0 273.85 -195.0 274.0 -195.25 277.75 -195.25 276.5 -207.5 278.2 -208.65 278.65 -207.25 282.1 -200.25 286.8 -194.05 292.55 -188.8 299.15 -184.7 306.45 -181.9 314.1 -180.45 321.8 -180.45 327.75 -181.0 330.45 -181.65 329.75 -184.55 327.35 -183.95 321.65 -183.45 314.35 -183.45 307.25 -184.8 300.5 -187.4 294.35 -191.2 289.0 -196.1 284.65 -201.85 281.45 -208.3 281.0 -209.9 285.1 -211.6 285.4 -211.65 285.0 -212.75 289.25 -241.25 303.4 -252.4 329.55 -259.5 329.75 -259.75 335.45 -257.55 341.6 -253.75 346.95 -248.85 351.3 -243.1 354.5 -236.65 356.5 -229.65 357.15 -222.5 356.5 -215.2 355.65 -211.0 358.55 -210.45 359.45 -214.7 360.15 -222.5 359.45 -230.25 357.3 -237.7 353.85 -244.7 349.15 -250.9 343.4 -256.15 336.8 -260.25 332.0 -262.1 334.15 -264.3 343.6 -262.9 M415.25 -317.2 L412.55 -309.7 411.0 -301.95 410.55 -294.0 411.25 -286.15 413.1 -278.45 416.05 -271.05 420.0 -264.2 424.9 -257.95 427.65 -255.15 433.8 -250.1 443.5 -244.55 444.85 -247.25 435.55 -252.55 429.75 -257.3 424.7 -262.8 420.5 -269.0 417.25 -275.75 416.0 -279.3 414.25 -286.6 413.55 -294.05 413.65 -297.8 414.55 -305.2 416.6 -312.45 419.6 -319.3 423.6 -325.65 428.45 -331.35 434.05 -336.3 437.1 -338.45 443.7 -342.1 442.35 -344.8 435.5 -341.0 429.2 -336.2 423.65 -330.55 418.95 -324.2 415.25 -317.2 M362.35 -423.4 L358.7 -416.8 354.2 -410.8 348.85 -405.55 342.8 -401.15 336.15 -397.65 332.7 -396.25 325.45 -394.25 318.05 -393.3 310.55 -393.45 303.15 -394.65 299.55 -395.65 292.6 -398.4 289.25 -400.2 283.05 -404.4 277.55 -409.45 272.8 -415.25 270.75 -418.35 267.5 -424.5 264.8 -423.15 268.15 -416.85 272.7 -410.4 278.15 -404.65 284.35 -399.7 291.2 -395.75 298.6 -392.8 306.3 -390.95 314.25 -390.25 322.1 -390.65 329.85 -392.2 333.65 -393.4 340.9 -396.6 347.6 -400.8 353.65 -405.9 358.9 -411.85 361.2 -415.1 365.05 -422.05 362.35 -423.4 M339.55 -491.0 L345.9 -487.05 351.6 -482.2 354.2 -479.45 358.7 -473.5 362.35 -466.9 365.05 -468.25 361.25 -475.1 359.0 -478.35 353.75 -484.3 347.7 -489.45 341.0 -493.65 333.75 -496.85 326.1 -498.95 322.2 -499.6 314.25 -500.05 310.35 -499.85 302.5 -498.55 294.95 -496.2 287.8 -492.75 281.25 -488.3 275.4 -482.95 270.35 -476.8 268.2 -473.5 264.95 -467.2 267.65 -465.9 268.9 -468.65 272.8 -475.05 275.05 -478.05 280.2 -483.5 286.1 -488.1 292.6 -491.85 296.0 -493.4 303.15 -495.65 310.55 -496.85 314.3 -497.05 321.75 -496.65 325.45 -496.05 332.7 -494.05 339.55 -491.0 M333.95 -649.0 L333.95 -645.15 335.5 -645.15 335.5 -647.0 353.15 -647.0 353.15 -631.95 335.5 -631.95 335.5 -633.35 333.95 -633.35 333.95 -629.5 335.5 -629.5 335.5 -630.95 353.15 -630.95 353.15 -614.45 335.5 -614.45 335.5 -615.85 333.95 -615.85 333.95 -612.0 335.5 -612.0 335.5 -613.45 353.15 -613.45 353.15 -597.1 335.5 -597.1 335.5 -598.5 333.95 -598.5 333.95 -594.7 335.5 -594.7 335.5 -596.1 353.15 -596.1 353.15 -579.15 335.5 -579.15 335.5 -580.85 333.95 -580.85 333.95 -579.15 333.0 -579.15 333.0 -575.15 339.0 -575.15 339.0 -545.15 332.5 -545.15 332.5 -541.3 322.5 -541.3 322.5 -538.0 336.25 -538.0 336.25 -529.05 332.3 -529.05 332.3 -527.85 338.95 -526.3 348.75 -522.65 358.0 -517.85 366.6 -511.95 374.4 -505.05 375.25 -504.15 377.15 -506.15 372.65 -511.85 385.3 -511.85 385.3 -514.15 399.65 -514.15 399.65 -511.85 407.75 -512.0 414.5 -505.25 436.25 -520.25 464.0 -530.5 488.75 -529.25 512.0 -522.5 529.75 -511.0 543.75 -494.25 Q548.75 -474.5 548.75 -473.75 L551.5 -438.15 542.5 -418.8 522.8 -396.5 531.8 -388.5 531.9 -378.85 534.35 -378.85 534.35 -365.5 531.9 -365.5 531.9 -351.05 526.7 -356.25 524.95 -354.5 525.4 -354.1 532.3 -346.3 538.2 -337.7 543.0 -328.4 546.6 -318.65 548.3 -312.45 549.7 -312.45 549.7 -316.95 559.15 -316.95 559.15 -302.05 561.6 -302.05 561.6 -312.05 565.85 -312.05 565.85 -318.55 595.35 -318.55 595.35 -312.05 599.45 -312.05 599.45 -313.25 601.4 -313.25 601.4 -314.75 599.45 -314.75 599.45 -332.75 616.6 -332.75 616.6 -314.75 615.2 -314.75 615.2 -313.25 619.05 -313.25 619.05 -314.75 617.6 -314.75 617.6 -332.75 633.85 -332.75 633.85 -314.75 632.45 -314.75 632.45 -313.25 636.3 -313.25 636.3 -314.75 634.85 -314.75 634.85 -332.75 651.25 -332.75 651.25 -314.75 649.85 -314.75 649.85 -313.25 653.65 -313.25 653.65 -314.75 652.25 -314.75 652.25 -332.75 667.8 -332.75 667.8 -314.75 665.95 -314.75 665.95 -313.25 669.8 -313.25 669.8 -278.55 665.95 -278.55 665.95 -272.4 599.95 -272.4 599.95 -278.55 595.35 -278.55 595.35 -273.55 565.85 -273.55 565.85 -278.55 561.6 -278.55 561.6 -288.25 559.15 -288.25 559.15 -273.9 549.7 -273.9 549.7 -277.8 548.3 -277.8 546.5 -268.0 542.6 -258.3 537.55 -249.2 531.35 -240.8 524.25 -233.2 516.2 -226.55 507.4 -220.9 498.0 -217.0 494.3 -216.3 494.3 -214.6 499.25 -214.6 499.25 -203.15 475.65 -203.15 475.65 -201.15 455.05 -201.15 455.05 -203.15 432.85 -203.15 432.85 -214.6 439.7 -214.6 439.7 -216.3 435.5 -216.8 427.3 -219.65 418.35 -225.05 410.1 -231.45 402.75 -238.8 396.3 -247.05 390.95 -256.0 386.75 -265.55 383.75 -275.5 382.45 -283.05 378.65 -283.25 380.75 -273.2 384.05 -263.4 388.5 -253.95 394.05 -245.05 400.55 -236.85 408.0 -229.4 416.2 -222.9 423.7 -218.2 422.55 -207.4 420.25 -196.95 417.95 -188.65 415.25 -181.85 413.6 -183.5 409.1 -179.0 408.75 -179.15 414.25 -173.65 414.6 -170.1 413.5 -164.45 412.1 -160.2 410.0 -156.65 408.4 -158.25 402.55 -152.4 411.0 -144.35 396.5 -129.85 388.05 -137.95 382.1 -132.0 383.7 -130.4 380.15 -128.25 375.95 -126.85 370.25 -125.8 366.75 -126.15 361.25 -131.65 356.9 -126.8 358.55 -125.15 351.7 -122.45 333.3 -118.2 326.15 -117.15 320.25 -116.75 317.3 -123.3 311.8 -130.0 Q311.15 -130.5 303.8 -139.15 L294.8 -146.3 284.5 -152.65 269.0 -158.5 258.3 -160.95 257.95 -158.95 257.9 -158.05 262.3 -156.9 258.8 -152.8 253.3 -148.0 247.0 -143.5 240.5 -140.15 232.8 -137.3 232.55 -137.25 230.2 -136.35 226.65 -135.7 226.6 -135.75 226.15 -135.65 221.8 -144.0 220.25 -147.15 218.65 -150.65 215.0 -157.5 213.65 -158.8 216.15 -160.5 212.8 -165.9 200.65 -156.5 203.5 -151.5 206.3 -153.15 211.65 -144.15 208.3 -143.0 213.5 -136.85 212.45 -134.8 211.05 -129.9 210.6 -124.9 211.05 -119.85 212.45 -115.0 214.7 -110.5 217.75 -106.45 221.5 -103.05 222.6 -102.35 222.2 -92.3 222.3 -92.1 222.3 -89.5 225.5 -89.5 225.15 -78.3 223.8 -68.65 221.65 -59.65 218.8 -50.15 213.0 -37.8 199.15 -46.3 189.65 -48.65 186.9 -44.9 189.15 -40.95 194.05 -39.25 187.05 -37.25 179.05 -32.55 175.65 -29.3 174.0 -26.75 179.7 -21.85 185.0 -26.65 189.4 -29.15 189.4 -31.5 213.15 -31.5 213.15 -28.0 215.05 -28.0 215.05 -12.5 213.15 -12.5 213.15 -8.1 214.8 -8.1 214.8 7.35 213.15 7.35 213.15 11.75 214.8 11.75 214.8 27.25 213.15 27.25 213.15 32.65 189.4 32.65 189.4 30.0 184.4 27.25 179.7 23.65 174.0 28.5 178.2 32.6 184.2 36.35 188.65 38.2 194.05 39.35 189.05 41.2 184.4 46.75 190.0 49.5 195.5 47.15 201.65 45.15 216.0 35.5 216.0 71.65 209.8 74.25 204.05 81.0 196.25 105.5 191.75 145.5 166.5 179.5 109.0 207.75 103.5 220.5 97.0 228.5 89.0 220.05 85.75 223.0 79.5 216.0 79.3 215.2 73.6 220.85 77.5 224.75 30.5 271.75 23.6 264.9 16.5 271.95 9.2 264.6 10.9 262.9 -24.6 227.35 -26.3 229.1 -32.9 222.45 -26.05 215.55 -32.55 209.0 -31.15 207.6 -32.75 206.0 -37.45 210.7 -59.3 188.85 -35.4 164.95 -28.65 171.7 -27.8 170.85 -34.55 164.1 -23.65 153.2 -5.15 171.7 -16.05 182.6 -18.5 180.1 -19.35 180.95 -13.55 186.8 -18.1 191.35 -16.5 192.95 14.75 161.65 18.45 165.35 23.95 159.85 17.4 153.35 19.85 151.3 11.3 143.5 3.8 139.0 -60.4 118.35 -64.5 118.0 -67.75 119.25 -69.15 122.15 -69.75 124.8 -69.75 136.5 -73.25 136.5 -73.25 145.3 -88.8 145.3 -88.8 147.15 -73.25 147.15 -73.25 155.45 -75.5 161.25 -79.0 166.75 -83.25 172.25 -83.25 173.25 -82.35 173.8 -78.25 177.7 -74.6 182.7 -71.6 188.7 -69.2 195.45 -67.6 202.75 -66.75 210.45 -66.75 218.25 -67.6 225.95 -69.2 233.25 -71.6 240.0 -74.6 246.0 -78.25 251.0 -82.35 254.9 -84.4 256.15 -84.45 257.9 -83.3 258.75 -91.7 265.0 -97.9 268.8 -104.8 271.8 -114.55 274.3 -112.9 281.15 -102.55 278.45 -94.85 275.15 -87.9 270.9 -78.5 263.85 -75.35 269.75 -73.5 276.5 -73.5 296.5 -77.5 296.5 -77.5 298.25 -89.75 298.25 -89.75 296.5 -133.5 296.5 -133.5 272.75 -175.75 272.75 -175.75 268.5 -186.5 268.5 -186.5 160.4 -175.75 160.4 -175.75 155.95 -133.2 155.95 -133.2 147.15 -117.5 147.15 -117.5 145.3 -133.2 145.3 -133.2 136.5 -136.7 136.5 -136.45 116.3 -135.1 107.8 -132.7 99.5 -129.3 91.55 -124.95 84.05 -119.65 77.15 -113.6 70.95 -110.85 68.8 -115.4 62.75 -131.15 76.75 -142.6 65.2 -144.65 67.25 -156.65 55.5 -154.7 53.0 -166.4 41.25 -161.4 33.45 -157.4 22.25 -154.85 10.65 -153.75 -1.1 -153.9 -6.25 -158.95 -6.25 -158.95 -9.5 -160.3 -9.5 -160.3 -23.5 -158.95 -23.5 -158.95 -27.75 -154.05 -27.75 -154.05 -33.0 -148.65 -33.0 -148.65 -30.45 -81.9 -30.45 -81.9 -33.0 -76.9 -33.0 -77.2 -1.1 -76.1 10.65 -73.55 22.25 -69.55 33.45 -65.85 40.8 -58.6 37.15 -59.25 36.15 -63.15 28.45 -66.05 20.3 -67.9 11.85 -68.7 3.25 -68.45 -5.3 -67.1 -13.85 -64.7 -22.15 -57.3 -38.3 -48.65 -48.8 -38.0 -57.0 -31.35 -60.6 -23.4 -64.2 -15.05 -66.85 -6.45 -68.4 2.2 -68.95 10.95 -68.4 16.6 -67.35 18.8 -75.5 -3.4 -76.75 -4.15 -89.5 -0.55 -91.0 -1.65 -102.3 -1.25 -103.2 -0.5 -103.65 3.2 -107.1 6.25 -111.1 8.5 -115.65 9.9 -120.5 10.35 -125.5 9.9 -130.55 8.5 -135.4 8.35 -135.75 11.65 -142.65 Q10.35 -143.55 9.0 -144.5 L14.9 -153.65 17.5 -152.0 20.5 -156.5 8.5 -166.0 4.5 -161.0 -32.85 -197.6 -34.6 -196.0 -50.25 -213.75 -55.0 -224.0 -57.0 -231.25 -58.0 -241.75 -57.5 -249.5 -55.0 -257.25 -51.8 -263.5 -46.5 -271.5 -38.15 -280.15 -36.15 -279.0 -35.15 -278.8 -15.15 -280.65 -3.0 -282.3 16.8 -290.0 6.95 -300.15 4.5 -297.7 -6.75 -292.0 -42.25 -288.75 -56.25 -293.45 -60.7 -297.95 -62.15 -296.5 -76.05 -310.4 -74.6 -311.85 -83.1 -320.35 -69.65 -333.75 -62.9 -331.05 -59.95 -333.2 -60.95 -335.6 -67.0 -338.1 -74.8 -342.8 -86.25 -351.8 -98.95 -364.2 -102.3 -378.05 -104.9 -386.75 -106.45 -395.7 -106.85 -404.8 -106.15 -413.85 -104.35 -422.75 -101.45 -431.35 -97.55 -439.55 -92.65 -447.2 -86.85 -454.2 -80.2 -460.4 -72.9 -465.8 -64.95 -470.2 -56.55 -473.6 -47.75 -475.95 -38.75 -477.2 -29.65 -477.35 -20.65 -476.4 -11.8 -474.3 -6.25 -472.25 8.25 -465.25 19.25 -455.55 25.05 -449.0 30.2 -441.55 34.35 -433.45 35.05 -431.65 38.0 -429.7 39.65 -431.8 36.35 -439.85 49.8 -453.25 58.3 -444.8 60.0 -446.35 73.9 -432.45 72.2 -430.85 76.65 -426.4 81.0 -409.0 81.0 -387.5 76.5 -372.25 72.15 -365.3 70.65 -363.8 80.5 -354.0 84.15 -364.35 87.5 -376.65 89.65 -389.5 90.95 -406.6 88.5 -408.65 96.8 -415.3 108.5 -423.65 116.8 -426.8 126.3 -428.65 135.8 -428.3 144.3 -426.15 155.0 -421.15 169.0 -410.5 178.15 -401.5 176.5 -399.65 180.3 -396.15 176.0 -391.8 174.4 -393.55 167.85 -386.85 173.0 -381.7 179.5 -388.25 177.85 -390.35 187.0 -393.75 193.1 -394.1 199.1 -388.0 204.5 -393.5 203.6 -395.25 209.05 -397.55 217.35 -399.85 227.8 -402.15 238.6 -403.35 243.3 -395.8 249.8 -387.6 257.25 -380.15 265.45 -373.65 274.35 -368.1 283.8 -363.65 294.0 -360.65 303.15 -358.8 303.4 -362.1 295.85 -363.4 285.85 -366.45 276.3 -370.65 267.35 -376.0 259.15 -382.4 251.75 -389.8 245.35 -398.0 240.0 -406.95 235.8 -416.1 234.5 -416.1 234.5 -412.55 223.45 -412.55 223.45 -434.25 221.3 -434.25 221.05 -433.35 218.45 -428.55 215.1 -424.35 211.0 -420.75 206.35 -418.0 201.25 -416.05 195.95 -415.1 190.5 -415.1 185.2 -416.05 180.1 -418.0 175.45 -420.75 171.35 -424.35 168.0 -428.55 165.4 -433.35 165.15 -434.25 163.5 -434.25 163.5 -430.75 107.0 -430.75 107.0 -515.5 163.5 -515.5 163.5 -456.5 165.3 -456.5 166.6 -459.55 169.6 -464.1 173.35 -468.0 177.7 -471.2 182.6 -473.55 183.05 -473.65 183.05 -475.5 179.4 -475.5 179.4 -504.0 207.65 -504.0 207.65 -475.5 205.05 -475.5 205.05 -472.95 208.75 -471.2 213.1 -468.0 216.85 -464.1 219.85 -459.55 221.15 -456.5 223.45 -456.5 223.45 -477.95 234.5 -477.95 234.5 -474.0 236.25 -474.0 241.25 -487.1 246.85 -495.9 253.5 -503.9 261.1 -511.05 269.55 -517.2 278.65 -522.25 288.3 -526.2 298.4 -528.9 298.5 -529.75 294.7 -529.75 294.7 -538.0 308.65 -538.0 308.65 -541.3 299.0 -541.3 299.0 -545.15 294.0 -545.15 294.0 -575.15 298.5 -575.15 298.5 -579.15 292.8 -579.15 292.8 -645.15 299.0 -645.15 299.0 -649.0 333.95 -649.0" fill="#969696" fill-rule="evenodd" stroke="none"/>
    <path d="M164.65 -10.3 L166.25 -14.85 168.35 -19.2 171.0 -23.25 174.0 -26.75 179.7 -21.85 174.9 -15.45 173.15 -11.95 171.85 -8.25 170.7 -0.45 171.05 6.2 171.85 10.05 173.15 13.75 177.05 20.5 179.7 23.65 174.0 28.5 171.0 25.0 168.35 21.0 166.25 16.65 164.65 12.1 163.6 7.35 163.2 2.45 163.6 -5.55 164.65 -10.3" fill="#707070" fill-rule="evenodd" stroke="none"/>
    <path d="M134.6 -19.35 L138.85 -27.25 145.1 -22.75 141.35 -15.75 138.55 -7.75 137.7 -3.95 137.35 2.75 137.7 6.7 138.55 10.55 141.55 17.75 145.1 23.1 138.6 27.85 132.9 17.15 131.3 12.6 130.3 7.85 129.85 -0.5 130.3 -5.05 131.3 -9.8 134.6 -19.35" fill="#707070" fill-rule="evenodd" stroke="none"/>
    <path d="M-26.9 -29.05 L-23.1 -32.1 -18.95 -34.65 -14.5 -36.7 -9.9 -38.2 -5.1 -39.1 -0.2 -39.4 4.6 -39.1 9.4 -38.2 14.05 -36.7 18.45 -34.65 22.6 -32.1 26.4 -29.05 29.8 -25.55 32.75 -21.65 35.15 -17.45 37.05 -12.95 38.4 -8.25 39.15 -3.45 39.3 1.4 38.85 6.25 37.8 11.0 36.2 15.6 34.0 19.95 31.3 24.0 28.15 27.7 24.55 31.0 20.55 33.8 16.25 36.1 11.75 37.9 7.0 39.05 2.15 39.65 -2.65 39.65 -7.5 39.05 -12.2 37.9 -16.75 36.1 -21.05 33.8 -25.05 31.0 -28.65 27.7 -31.8 24.0 -34.5 19.95 -36.7 15.6 -38.3 11.0 -39.35 6.25 -39.8 1.4 -39.65 -3.45 -38.9 -8.25 -37.55 -12.95 -35.65 -17.45 -33.2 -21.65 -30.3 -25.55 -26.9 -29.05" fill="#707070" fill-rule="evenodd" stroke="none"/>
    <path d="M136.65 -88.7 L135.6 -82.2 133.2 -76.55 128.3 -79.0 130.35 -83.85 131.15 -88.9 130.65 -93.95 129.95 -96.4 127.7 -100.95 126.15 -103.0 124.4 -104.8 120.25 -107.75 115.5 -109.6 110.45 -110.2 105.4 -109.6 100.65 -107.75 98.5 -106.4 94.7 -103.0 91.9 -98.75 90.2 -93.95 89.75 -88.9 90.55 -83.85 91.35 -81.45 92.6 -79.0 87.65 -76.55 85.2 -82.5 84.5 -85.65 84.35 -92.1 84.9 -95.3 87.05 -101.35 88.7 -104.15 92.9 -109.0 98.2 -112.7 104.2 -114.95 110.45 -115.75 117.0 -114.9 120.05 -113.9 125.7 -110.8 130.45 -106.45 133.95 -101.05 135.2 -98.05 136.55 -91.75 136.65 -88.7" fill="#707070" fill-rule="evenodd" stroke="none"/>
    <path d="M53.35 -42.6 L59.75 -47.4 63.7 -42.15 68.45 -33.95 72.15 -25.2 74.75 -16.1 76.2 -6.75 76.5 2.7 75.65 12.15 73.6 21.4 70.45 30.35 66.2 38.8 61.0 46.7 54.8 53.9 47.8 60.3 40.05 65.8 31.7 70.25 22.9 73.7 13.7 76.0 4.3 77.15 -5.15 77.15 -14.55 76.0 -16.8 75.45 -16.75 75.35 -15.95 75.55 -13.8 67.95 -13.1 68.15 -4.65 69.15 3.8 69.15 12.2 68.15 20.45 66.05 28.35 63.0 35.85 58.95 42.8 54.05 49.05 48.35 54.6 41.9 59.3 34.8 63.05 27.2 65.9 19.2 67.7 10.9 68.5 2.45 68.25 -6.0 66.9 -14.4 64.6 -22.55 61.3 -30.4 57.05 -37.75 53.35 -42.6" fill="#707070" fill-rule="evenodd" stroke="none"/>
    <path d="M-96.0 -6.15 L-96.0 3.0 -135.75 3.0 -135.75 -6.15 -96.0 -6.15" fill="#707070" fill-rule="evenodd" stroke="none"/>
    <path d="M57.1 233.8 L62.05 238.75 35.75 265.1 30.8 260.15 57.1 233.8" fill="#707070" fill-rule="evenodd" stroke="none"/>
    <path d="M45.1 226.05 L34.5 215.45 45.1 204.85 55.7 215.45 45.1 226.05" fill="#707070" fill-rule="evenodd" stroke="none"/>
    <path d="M13.65 193.15 L24.25 203.75 13.65 214.4 3.05 203.75 13.65 193.15" fill="#707070" fill-rule="evenodd" stroke="none"/>
    <path d="M-10.2 224.1 L-4.35 218.25 21.25 243.9 15.4 249.75 -10.2 224.1" fill="#707070" fill-rule="evenodd" stroke="none"/>
    <path d="M-8.8 187.75 L-5.15 184.05 -1.45 187.75 -5.15 191.4 -8.8 187.75" fill="#707070" fill-rule="evenodd" stroke="none"/>
    <path d="M5.25 181.0 L1.6 184.65 -2.05 181.0 1.6 177.3 5.25 181.0" fill="#707070" fill-rule="evenodd" stroke="none"/>
    <path d="M-46.2 175.75 L-40.9 170.45 -35.55 175.85 -40.8 181.1 -46.2 175.75" fill="#707070" fill-rule="evenodd" stroke="none"/>
    <path d="M12.0 174.2 L8.35 177.9 4.7 174.2 8.35 170.55 12.0 174.2" fill="#707070" fill-rule="evenodd" stroke="none"/>
    <path d="M4.75 165.55 L7.85 168.65 -10.3 186.85 -13.4 183.75 4.75 165.55" fill="#707070" fill-rule="evenodd" stroke="none"/>
    <path d="M144.35 -154.35 L144.35 -148.1 137.85 -148.1 137.85 -154.35 144.35 -154.35" fill="#707070" fill-rule="evenodd" stroke="none"/>
    <path d="M107.45 -189.95 L112.5 -189.95 113.0 -190.05 113.0 -182.85 106.5 -182.85 106.5 -190.15 107.45 -189.95" fill="#707070" fill-rule="evenodd" stroke="none"/>
    <path d="M113.15 -190.1 L117.45 -190.9 119.5 -191.7 121.3 -184.85 115.05 -183.2 113.15 -190.1" fill="#707070" fill-rule="evenodd" stroke="none"/>
    <path d="M119.65 -191.75 L122.15 -192.7 125.45 -194.75 128.8 -188.9 123.2 -185.65 119.65 -191.75" fill="#707070" fill-rule="evenodd" stroke="none"/>
    <path d="M126.45 -195.4 L130.2 -198.8 130.5 -199.2 135.2 -194.5 130.6 -189.9 125.65 -194.85 126.45 -195.4" fill="#707070" fill-rule="evenodd" stroke="none"/>
    <path d="M100.2 -191.8 L102.5 -190.9 106.5 -190.15 104.6 -183.2 98.35 -184.85 100.2 -191.8" fill="#707070" fill-rule="evenodd" stroke="none"/>
    <path d="M94.3 -194.9 L97.8 -192.7 100.05 -191.85 96.45 -185.65 90.85 -188.9 94.3 -194.9" fill="#707070" fill-rule="evenodd" stroke="none"/>
    <path d="M93.5 -195.4 L94.15 -195.0 89.05 -189.9 84.45 -194.5 89.3 -199.35 89.75 -198.8 93.5 -195.4" fill="#707070" fill-rule="evenodd" stroke="none"/>
    <path d="M8.5 -115.65 L9.9 -120.5 9.9 -120.8 16.2 -119.1 14.45 -112.9 8.05 -114.7 8.5 -115.65" fill="#707070" fill-rule="evenodd" stroke="none"/>
    <path d="M9.95 -121.15 L10.35 -125.5 10.15 -127.55 16.45 -127.5 16.4 -121.1 9.95 -121.15" fill="#707070" fill-rule="evenodd" stroke="none"/>
    <path d="M10.1 -127.9 L9.9 -130.55 8.85 -134.15 14.6 -135.65 16.2 -129.45 10.1 -127.9" fill="#707070" fill-rule="evenodd" stroke="none"/>
    <path d="M4.7 -109.1 L6.25 -111.1 8.0 -114.6 13.65 -111.25 10.45 -105.7 4.7 -109.1" fill="#707070" fill-rule="evenodd" stroke="none"/>
    <path d="M0.1 -104.25 L3.2 -107.1 4.55 -108.85 9.2 -104.15 4.65 -99.65 0.1 -104.25" fill="#707070" fill-rule="evenodd" stroke="none"/>
    <path d="M211.05 -119.85 L212.45 -115.0 212.65 -114.6 206.65 -112.9 204.95 -119.1 211.0 -120.75 211.05 -119.85" fill="#707070" fill-rule="evenodd" stroke="none"/>
    <path d="M210.85 -127.55 L210.6 -124.9 210.95 -121.15 204.7 -121.1 204.65 -127.5 210.85 -127.55" fill="#707070" fill-rule="evenodd" stroke="none"/>
    <path d="M212.3 -134.15 L211.05 -129.9 210.9 -127.9 204.9 -129.45 206.5 -135.65 212.3 -134.15" fill="#707070" fill-rule="evenodd" stroke="none"/>
    <path d="M212.75 -114.35 L214.7 -110.5 215.95 -108.85 210.7 -105.7 207.45 -111.25 212.75 -114.35" fill="#707070" fill-rule="evenodd" stroke="none"/>
    <path d="M216.2 -108.5 L217.75 -106.45 220.6 -103.85 216.5 -99.65 211.9 -104.15 216.2 -108.5" fill="#707070" fill-rule="evenodd" stroke="none"/>
    <path d="M153.3 -143.75 L147.5 -141.4 145.05 -147.45 150.85 -149.8 153.3 -143.75" fill="#707070" fill-rule="evenodd" stroke="none"/>
    <path d="M150.55 -135.5 L145.35 -131.55 141.6 -136.55 146.8 -140.45 150.55 -135.5" fill="#707070" fill-rule="evenodd" stroke="none"/>
    <path d="M137.15 -147.45 L134.7 -141.4 128.9 -143.75 131.35 -149.8 137.15 -147.45" fill="#707070" fill-rule="evenodd" stroke="none"/>
    <path d="M140.6 -136.55 L136.8 -131.55 131.65 -135.5 135.4 -140.45 140.6 -136.55" fill="#707070" fill-rule="evenodd" stroke="none"/>
    <path d="M88.0 -156.7 L88.0 -150.45 81.5 -150.45 81.5 -156.7 88.0 -156.7" fill="#707070" fill-rule="evenodd" stroke="none"/>
    <path d="M91.15 -143.75 L88.7 -149.8 94.5 -152.1 96.95 -146.1 91.15 -143.75" fill="#707070" fill-rule="evenodd" stroke="none"/>
    <path d="M89.05 -133.9 L85.25 -138.9 90.45 -142.8 94.2 -137.8 89.05 -133.9" fill="#707070" fill-rule="evenodd" stroke="none"/>
    <path d="M75.0 -152.1 L80.8 -149.8 78.4 -143.75 72.6 -146.1 75.0 -152.1" fill="#707070" fill-rule="evenodd" stroke="none"/>
    <path d="M79.05 -142.8 L84.25 -138.9 80.5 -133.9 75.3 -137.8 79.05 -142.8" fill="#707070" fill-rule="evenodd" stroke="none"/>
    <path d="M174.5 -106.35 L174.5 -100.1 168.0 -100.1 168.0 -106.35 174.5 -106.35" fill="#707070" fill-rule="evenodd" stroke="none"/>
    <path d="M183.45 -95.75 L177.65 -93.4 175.2 -99.45 181.0 -101.8 183.45 -95.75" fill="#707070" fill-rule="evenodd" stroke="none"/>
    <path d="M180.7 -87.5 L175.55 -83.55 171.75 -88.55 176.95 -92.45 180.7 -87.5" fill="#707070" fill-rule="evenodd" stroke="none"/>
    <path d="M167.3 -99.45 L164.9 -93.4 159.1 -95.75 161.5 -101.8 167.3 -99.45" fill="#707070" fill-rule="evenodd" stroke="none"/>
    <path d="M170.75 -88.55 L167.0 -83.55 161.8 -87.5 165.55 -92.45 170.75 -88.55" fill="#707070" fill-rule="evenodd" stroke="none"/>
    <path d="M53.5 -112.2 L53.5 -105.95 47.0 -105.95 47.0 -112.2 53.5 -112.2" fill="#707070" fill-rule="evenodd" stroke="none"/>
    <path d="M62.45 -101.6 L56.65 -99.25 54.2 -105.3 60.0 -107.6 62.45 -101.6" fill="#707070" fill-rule="evenodd" stroke="none"/>
    <path d="M55.95 -98.3 L59.7 -93.3 54.55 -89.4 50.75 -94.4 55.95 -98.3" fill="#707070" fill-rule="evenodd" stroke="none"/>
    <path d="M40.5 -107.6 L46.3 -105.3 43.9 -99.25 38.1 -101.6 40.5 -107.6" fill="#707070" fill-rule="evenodd" stroke="none"/>
    <path d="M49.75 -94.4 L46.0 -89.4 40.8 -93.3 44.55 -98.3 49.75 -94.4" fill="#707070" fill-rule="evenodd" stroke="none"/>
    <path d="M131.0 99.95 L127.35 98.2 123.5 97.1 119.5 96.75 115.5 97.15 111.6 98.2 108.0 99.95 104.75 102.3 101.95 105.2 99.75 108.55 98.2 112.25 97.3 116.2 97.1 120.2 97.65 124.2 98.9 128.0 100.8 131.55 103.3 134.7 106.35 137.3 109.8 139.4 113.55 140.8 117.5 141.5 121.55 141.5 125.5 140.75 129.25 139.35 132.7 137.3 135.7 134.65 138.2 131.5 140.1 127.95 141.35 124.15 141.9 120.15 141.7 116.15 140.8 112.25 139.2 108.55 137.0 105.2 134.25 102.3 131.0 99.95 M113.65 88.1 L119.45 87.6 125.2 88.1 130.8 89.65 136.05 92.15 140.75 95.55 144.75 99.75 148.0 104.6 150.25 109.95 151.55 115.6 151.85 121.4 151.05 127.15 149.25 132.7 146.5 137.8 142.9 142.35 138.5 146.15 133.55 149.15 128.1 151.2 122.4 152.25 116.6 152.25 110.85 151.2 105.45 149.2 100.45 146.2 96.05 142.4 92.45 137.85 89.7 132.75 87.9 127.2 87.1 121.45 87.35 115.65 88.65 110.0 90.9 104.65 94.1 99.8 98.1 95.6 102.8 92.2 108.05 89.65 113.65 88.1" fill="#707070" fill-rule="evenodd" stroke="none"/>
    <path d="M121.55 116.15 L120.05 115.55 118.4 115.55 116.9 116.15 115.7 117.35 115.1 118.85 115.1 120.5 115.7 122.05 116.9 123.2 118.4 123.8 120.05 123.8 121.55 123.2 122.75 122.05 123.35 120.5 123.35 118.85 122.75 117.35 121.55 116.15 M117.3 109.55 L121.2 109.55 124.8 111.05 127.55 113.8 129.05 117.4 129.05 121.3 127.55 124.9 124.8 127.65 121.15 129.15 117.25 129.15 113.65 127.65 110.9 124.9 109.4 121.3 109.4 117.4 110.9 113.8 113.65 111.05 117.3 109.55" fill="#707070" fill-rule="evenodd" stroke="none"/>
    <path d="M102.8 -101.5 L117.95 -101.5 117.95 -98.1 126.25 -98.1 126.25 -96.35 94.5 -96.35 94.5 -98.1 102.8 -98.1 102.8 -101.5" fill="#707070" fill-rule="evenodd" stroke="none"/>
    <path d="M179.4 -41.95 L180.05 -50.25 189.65 -48.65 189.15 -40.95 179.4 -41.95" fill="#707070" fill-rule="evenodd" stroke="none"/>
    <path d="M179.8 41.95 L189.05 41.2 190.0 49.5 180.45 50.25 179.8 41.95" fill="#707070" fill-rule="evenodd" stroke="none"/>
    <path d="M328.35 -425.8 L335.9 -433.35 352.3 -416.95 342.8 -407.45 337.4 -412.9 337.8 -416.35 328.35 -425.8" fill="#707070" fill-rule="evenodd" stroke="none"/>
    <path d="M297.5 -476.8 L306.95 -467.35 299.4 -459.8 283.0 -476.2 292.5 -485.7 297.9 -480.3 297.5 -476.8" fill="#707070" fill-rule="evenodd" stroke="none"/>
    <path d="M488.3 -266.85 L478.85 -276.3 486.4 -283.85 502.8 -267.45 493.3 -257.95 487.9 -263.4 488.3 -266.85" fill="#707070" fill-rule="evenodd" stroke="none"/>
    <path d="M448.4 -330.8 L448.0 -327.3 457.45 -317.85 449.9 -310.3 433.5 -326.7 443.0 -336.2 448.4 -330.8" fill="#707070" fill-rule="evenodd" stroke="none"/>
    <path d="M452.7 -480.9 L443.25 -471.45 435.7 -479.0 452.1 -495.4 461.6 -485.9 456.15 -480.5 452.7 -480.9" fill="#707070" fill-rule="evenodd" stroke="none"/>
    <path d="M489.85 -423.95 L495.3 -429.35 498.75 -428.95 508.2 -438.4 515.75 -430.85 499.35 -414.45 489.85 -423.95" fill="#707070" fill-rule="evenodd" stroke="none"/>
    <path d="M22.25 -418.45 L19.15 -421.5 31.3 -433.65 34.35 -430.6 22.25 -418.45" fill="#707070" fill-rule="evenodd" stroke="none"/>
    <path d="M-48.0 -348.1 L-60.1 -336.0 -63.2 -339.05 -51.05 -351.2 -48.0 -348.1" fill="#707070" fill-rule="evenodd" stroke="none"/>
    <path d="M1.4 -398.15 L-27.7 -369.05 -30.75 -372.1 -1.65 -401.2 1.4 -398.15" fill="#707070" fill-rule="evenodd" stroke="none"/>
    <path d="M-42.75 -384.8 L-47.6 -389.6 -18.5 -418.75 -13.65 -413.9 -42.75 -384.8" fill="#707070" fill-rule="evenodd" stroke="none"/>
    <path d="M-67.7 -409.4 L-38.6 -438.5 -33.55 -433.5 -62.7 -404.4 -67.7 -409.4" fill="#707070" fill-rule="evenodd" stroke="none"/>
    <path d="M-7.8 -468.6 L-3.1 -463.85 -18.2 -448.7 -22.95 -453.45 -7.8 -468.6" fill="#707070" fill-rule="evenodd" stroke="none"/>
    <path d="M5.1 -433.65 L0.35 -438.4 15.5 -453.55 20.25 -448.8 5.1 -433.65" fill="#707070" fill-rule="evenodd" stroke="none"/>
    <path d="M-67.35 -370.8 L-62.6 -366.05 -77.75 -350.9 -82.5 -355.65 -67.35 -370.8" fill="#707070" fill-rule="evenodd" stroke="none"/>
    <path d="M-77.85 -389.1 L-93.0 -373.95 -97.75 -378.7 -82.6 -393.8 -77.85 -389.1" fill="#707070" fill-rule="evenodd" stroke="none"/>
    <path d="M43.4 -384.7 L39.05 -385.65 40.25 -390.4 40.9 -395.45 46.85 -394.7 46.1 -389.15 42.8 -376.0 39.85 -368.2 34.2 -358.75 29.15 -362.0 34.4 -370.75 38.35 -368.7 41.3 -376.5 43.4 -384.7" fill="#707070" fill-rule="evenodd" stroke="none"/>
    <path d="M36.4 -439.15 L37.65 -440.4 42.95 -428.2 43.5 -426.25 37.7 -424.6 37.2 -426.45 35.3 -431.2 39.05 -432.7 36.4 -439.15" fill="#707070" fill-rule="evenodd" stroke="none"/>
    <path d="M-0.2 -336.1 L8.5 -341.35 11.75 -336.3 2.3 -330.65 -5.45 -327.7 -18.6 -324.4 -24.15 -323.65 -24.9 -329.6 -19.85 -330.25 -15.1 -331.4 -14.15 -327.1 -5.95 -329.2 1.8 -332.15 -0.2 -336.1" fill="#707070" fill-rule="evenodd" stroke="none"/>
    <path d="M-70.4 -332.3 L-69.35 -333.35 -62.6 -330.6 -60.65 -335.2 -55.9 -333.3 -54.05 -332.8 -55.7 -327.0 -63.15 -329.4 -70.4 -332.3" fill="#707070" fill-rule="evenodd" stroke="none"/>
    <path d="M460.9 -419.45 L465.95 -424.5 467.85 -422.0 469.0 -419.15 469.35 -416.1 468.8 -413.2 467.45 -410.6 465.35 -408.5 462.75 -407.15 459.8 -406.6 456.8 -406.95 453.9 -408.1 451.45 -410.0 456.3 -414.85 458.1 -414.95 460.9 -417.75 460.9 -419.45" fill="#707070" fill-rule="evenodd" stroke="none"/>
    <path d="M511.15 -469.55 L512.9 -469.6 515.75 -472.45 515.75 -474.1 520.8 -479.15 522.7 -476.7 523.85 -473.8 524.15 -470.8 523.6 -467.85 522.25 -465.25 520.2 -463.2 517.6 -461.8 514.65 -461.3 511.6 -461.6 508.75 -462.75 506.25 -464.65 511.15 -469.55" fill="#707070" fill-rule="evenodd" stroke="none"/>
    <path d="M439.95 -448.3 L442.85 -447.15 445.35 -445.25 440.45 -440.4 438.7 -440.3 435.85 -437.45 435.85 -435.8 430.8 -430.75 428.9 -433.2 427.75 -436.1 427.45 -439.1 427.95 -442.05 429.35 -444.65 431.4 -446.75 434.0 -448.1 436.95 -448.65 439.95 -448.3" fill="#707070" fill-rule="evenodd" stroke="none"/>
    <path d="M340.05 -473.9 L340.15 -472.1 342.95 -469.3 344.65 -469.3 349.7 -464.25 347.2 -462.35 344.35 -461.2 341.3 -460.85 338.4 -461.4 335.8 -462.75 333.7 -464.85 332.35 -467.45 331.8 -470.35 332.15 -473.4 333.3 -476.25 335.2 -478.75 340.05 -473.9" fill="#707070" fill-rule="evenodd" stroke="none"/>
    <path d="M296.1 -428.0 L298.2 -425.9 299.55 -423.3 300.1 -420.35 299.75 -417.35 298.6 -414.45 296.7 -412.0 291.85 -416.85 291.75 -418.65 288.9 -421.45 287.25 -421.45 282.2 -426.5 284.65 -428.4 287.55 -429.55 290.55 -429.9 293.5 -429.35 296.1 -428.0" fill="#707070" fill-rule="evenodd" stroke="none"/>
    <path d="M490.55 -324.4 L490.65 -322.6 493.45 -319.8 495.15 -319.8 500.2 -314.75 497.7 -312.85 494.85 -311.7 491.8 -311.35 488.9 -311.9 486.3 -313.25 484.2 -315.35 482.85 -317.95 482.3 -320.85 482.65 -323.9 483.8 -326.75 485.7 -329.25 490.55 -324.4" fill="#707070" fill-rule="evenodd" stroke="none"/>
    <path d="M432.7 -277.0 L435.15 -278.9 438.05 -280.05 441.05 -280.4 444.0 -279.85 446.6 -278.5 448.7 -276.4 450.05 -273.8 450.6 -270.85 450.25 -267.85 449.1 -264.95 447.2 -262.5 442.35 -267.35 442.25 -269.15 439.4 -271.95 437.75 -271.95 432.7 -277.0" fill="#707070" fill-rule="evenodd" stroke="none"/>
    <path d="M494.95 -503.0 L497.85 -501.8 500.35 -499.95 495.45 -495.05 493.7 -494.95 490.85 -492.15 490.85 -490.45 485.8 -485.4 483.9 -487.9 482.75 -490.75 482.45 -493.8 482.95 -496.7 484.35 -499.35 486.4 -501.4 489.0 -502.75 491.95 -503.3 494.95 -503.0" fill="#707070" fill-rule="evenodd" stroke="none"/>
    <path d="M334.0 -545.15 L334.0 -575.15 341.4 -575.15 341.4 -545.15 334.0 -545.15" fill="#707070" fill-rule="evenodd" stroke="none"/>
    <path d="M296.9 -575.15 L296.9 -545.15 291.65 -545.15 291.65 -575.15 296.9 -575.15" fill="#707070" fill-rule="evenodd" stroke="none"/>
    <path d="M296.05 -641.5 L296.05 -636.8 292.8 -636.8 292.8 -641.5 296.05 -641.5" fill="#707070" fill-rule="evenodd" stroke="none"/>
    <path d="M296.05 -631.1 L296.05 -626.6 292.8 -626.6 292.8 -631.1 296.05 -631.1" fill="#707070" fill-rule="evenodd" stroke="none"/>
    <path d="M296.05 -621.2 L296.05 -616.75 292.8 -616.75 292.8 -621.2 296.05 -621.2" fill="#707070" fill-rule="evenodd" stroke="none"/>
    <path d="M296.05 -610.85 L296.05 -606.35 292.8 -606.35 292.8 -610.85 296.05 -610.85" fill="#707070" fill-rule="evenodd" stroke="none"/>
    <path d="M296.05 -600.95 L296.05 -596.5 292.8 -596.5 292.8 -600.95 296.05 -600.95" fill="#707070" fill-rule="evenodd" stroke="none"/>
    <path d="M296.05 -590.6 L296.05 -586.1 292.8 -586.1 292.8 -590.6 296.05 -590.6" fill="#707070" fill-rule="evenodd" stroke="none"/>
    <path d="M347.15 -641.9 L348.1 -642.2 349.45 -642.2 350.35 -641.85 350.35 -642.2 353.15 -642.2 353.15 -637.5 350.35 -637.5 350.35 -637.85 349.45 -637.5 348.1 -637.5 347.15 -637.8 346.4 -638.3 345.95 -639.0 345.95 -640.65 346.4 -641.35 347.15 -641.9" fill="#707070" fill-rule="evenodd" stroke="none"/>
    <path d="M350.35 -624.3 L350.35 -624.65 353.15 -624.65 353.15 -619.95 350.35 -619.95 350.35 -620.25 349.45 -619.95 348.1 -619.95 347.15 -620.25 346.4 -620.75 345.95 -621.45 345.95 -623.1 346.4 -623.8 347.15 -624.35 348.1 -624.65 349.45 -624.65 350.35 -624.3" fill="#707070" fill-rule="evenodd" stroke="none"/>
    <path d="M345.95 -604.4 L345.95 -606.05 346.4 -606.75 347.15 -607.3 348.1 -607.6 349.45 -607.6 350.35 -607.25 350.35 -607.6 353.15 -607.6 353.15 -602.9 350.35 -602.9 350.35 -603.2 349.45 -602.9 348.1 -602.9 347.15 -603.15 346.4 -603.7 345.95 -604.4" fill="#707070" fill-rule="evenodd" stroke="none"/>
    <path d="M346.4 -586.15 L345.95 -586.85 345.95 -588.5 346.4 -589.2 347.15 -589.75 348.1 -590.0 349.45 -590.0 350.35 -589.7 350.35 -590.05 353.15 -590.05 353.15 -585.3 350.35 -585.3 350.35 -585.65 349.45 -585.35 348.1 -585.35 347.15 -585.6 346.4 -586.15" fill="#707070" fill-rule="evenodd" stroke="none"/>
    <path d="M494.15 -524.95 L481.1 -527.0 467.95 -526.55 455.05 -523.75 442.95 -518.6 431.95 -511.3 422.5 -502.1 415.8 -494.3 412.8 -488.8 402.25 -495.0 404.5 -500.0 410.95 -509.25 412.75 -507.45 424.05 -518.05 430.65 -522.6 429.0 -525.0 433.55 -528.4 440.8 -532.25 448.55 -535.3 457.8 -537.8 468.15 -539.4 478.55 -539.65 488.2 -538.75 492.3 -537.8 491.6 -535.1 498.9 -533.25 506.5 -529.9 507.8 -533.0 518.05 -528.0 526.65 -522.1 534.45 -515.2 541.35 -507.4 547.25 -498.8 552.05 -490.05 553.15 -487.05 550.4 -486.05 553.35 -478.8 554.9 -471.05 557.8 -471.55 559.0 -466.55 559.05 -448.8 557.6 -438.45 554.9 -428.4 550.95 -418.7 545.9 -409.6 545.3 -408.3 542.9 -410.25 539.15 -404.8 532.4 -397.4 527.25 -393.15 529.75 -390.5 524.0 -386.0 515.25 -381.75 509.8 -392.4 521.6 -400.05 531.05 -409.2 538.65 -420.0 544.15 -431.95 547.4 -444.75 548.2 -457.9 546.55 -471.0 542.55 -483.55 536.3 -495.15 528.05 -505.45 518.0 -514.0 506.6 -520.6 494.15 -524.95" fill="#707070" fill-rule="evenodd" stroke="none"/>
    <path d="M392.0 -333.35 L390.95 -327.65 385.05 -328.7 386.05 -334.4 392.0 -333.35" fill="#707070" fill-rule="evenodd" stroke="none"/>
    <path d="M391.5 -326.9 L397.2 -328.1 398.45 -322.25 392.75 -321.0 391.5 -326.9" fill="#707070" fill-rule="evenodd" stroke="none"/>
    <path d="M386.6 -317.55 L392.0 -320.25 394.65 -315.1 389.25 -312.35 386.6 -317.55" fill="#707070" fill-rule="evenodd" stroke="none"/>
    <path d="M384.3 -328.2 L381.1 -323.1 376.2 -326.15 379.4 -331.25 384.3 -328.2" fill="#707070" fill-rule="evenodd" stroke="none"/>
    <path d="M377.35 -318.15 L381.6 -322.1 385.7 -317.7 381.45 -313.75 377.35 -318.15" fill="#707070" fill-rule="evenodd" stroke="none"/>
    <path d="M342.3 -371.45 L343.3 -377.15 349.25 -376.1 348.2 -370.4 342.3 -371.45" fill="#707070" fill-rule="evenodd" stroke="none"/>
    <path d="M354.45 -370.85 L355.7 -365.0 350.0 -363.75 348.75 -369.65 354.45 -370.85" fill="#707070" fill-rule="evenodd" stroke="none"/>
    <path d="M343.85 -360.3 L349.25 -363.0 351.9 -357.85 346.5 -355.1 343.85 -360.3" fill="#707070" fill-rule="evenodd" stroke="none"/>
    <path d="M336.65 -374.0 L341.55 -370.95 338.35 -365.85 333.45 -368.9 336.65 -374.0" fill="#707070" fill-rule="evenodd" stroke="none"/>
    <path d="M338.85 -364.85 L342.95 -360.45 338.7 -356.5 334.6 -360.9 338.85 -364.85" fill="#707070" fill-rule="evenodd" stroke="none"/>
    <path d="M565.85 -313.55 L565.85 -320.95 595.35 -320.95 595.35 -313.55 565.85 -313.55" fill="#707070" fill-rule="evenodd" stroke="none"/>
    <path d="M595.35 -276.45 L595.35 -271.2 565.85 -271.2 565.85 -276.45 595.35 -276.45" fill="#707070" fill-rule="evenodd" stroke="none"/>
    <path d="M661.55 -276.6 L661.55 -272.4 657.1 -272.4 657.1 -276.6 661.55 -276.6" fill="#707070" fill-rule="evenodd" stroke="none"/>
    <path d="M646.85 -272.4 L646.85 -276.6 651.25 -276.6 651.25 -272.4 646.85 -272.4" fill="#707070" fill-rule="evenodd" stroke="none"/>
    <path d="M637.05 -272.4 L637.05 -276.6 641.45 -276.6 641.45 -272.4 637.05 -272.4" fill="#707070" fill-rule="evenodd" stroke="none"/>
    <path d="M626.75 -272.4 L626.75 -276.6 631.15 -276.6 631.15 -272.4 626.75 -272.4" fill="#707070" fill-rule="evenodd" stroke="none"/>
    <path d="M616.45 -272.4 L616.45 -276.6 620.9 -276.6 620.9 -272.4 616.45 -272.4" fill="#707070" fill-rule="evenodd" stroke="none"/>
    <path d="M606.65 -272.4 L606.65 -276.6 611.1 -276.6 611.1 -272.4 606.65 -272.4" fill="#707070" fill-rule="evenodd" stroke="none"/>
    <path d="M659.6 -325.5 L658.9 -326.0 658.35 -326.75 658.05 -327.7 658.05 -329.0 658.4 -329.95 658.05 -329.95 658.05 -332.7 662.75 -332.7 662.75 -329.95 662.45 -329.95 662.75 -329.0 662.75 -327.7 662.45 -326.75 661.95 -326.0 661.25 -325.5 659.6 -325.5" fill="#707070" fill-rule="evenodd" stroke="none"/>
    <path d="M640.5 -332.7 L645.2 -332.7 645.2 -329.95 644.85 -329.95 645.2 -329.0 645.2 -327.7 644.9 -326.75 644.4 -326.0 643.7 -325.5 642.05 -325.5 641.35 -326.0 640.8 -326.75 640.5 -327.7 640.5 -329.0 640.85 -329.95 640.5 -329.95 640.5 -332.7" fill="#707070" fill-rule="evenodd" stroke="none"/>
    <path d="M622.95 -332.7 L627.65 -332.7 627.65 -329.95 627.3 -329.95 627.65 -329.0 627.65 -327.7 627.35 -326.75 626.85 -326.0 626.15 -325.5 624.5 -325.5 623.75 -326.0 623.25 -326.75 622.95 -327.7 622.95 -329.0 623.3 -329.95 622.95 -329.95 622.95 -332.7" fill="#707070" fill-rule="evenodd" stroke="none"/>
    <path d="M605.4 -332.7 L610.1 -332.7 610.1 -329.95 609.75 -329.95 610.1 -329.0 610.1 -327.7 609.8 -326.75 609.25 -326.0 608.55 -325.5 606.9 -325.5 606.2 -326.0 605.7 -326.75 605.4 -327.7 605.4 -329.0 605.75 -329.95 605.4 -329.95 605.4 -332.7" fill="#707070" fill-rule="evenodd" stroke="none"/>
    <path d="M443.7 -342.1 L440.8 -348.65 438.3 -347.2 434.75 -354.1 439.2 -356.35 446.4 -342.35 437.65 -337.65 434.65 -335.5 429.15 -330.65 424.4 -325.05 420.5 -318.85 417.5 -312.1 415.55 -305.0 414.65 -297.75 414.75 -290.4 415.2 -286.95 415.2 -286.75 416.95 -279.6 418.15 -276.15 421.35 -269.5 423.35 -266.4 429.15 -259.3 433.2 -255.6 439.2 -251.35 445.85 -248.0 444.8 -245.7 444.2 -246.0 444.85 -247.25 435.55 -252.55 429.75 -257.3 424.7 -262.8 420.5 -269.0 417.25 -275.75 416.0 -279.3 414.25 -286.6 413.55 -294.05 413.95 -301.5 414.55 -305.2 416.6 -312.45 419.6 -319.3 423.6 -325.65 428.45 -331.35 434.05 -336.3 437.1 -338.45 443.7 -342.1" fill="#707070" fill-rule="evenodd" stroke="none"/>
    <path d="M491.75 -356.45 L496.2 -354.15 492.75 -347.4 492.25 -347.75 491.0 -350.25 489.5 -348.0 487.9 -343.45 487.25 -342.1 493.85 -338.45 499.8 -333.95 505.05 -328.6 507.35 -325.65 511.35 -319.3 514.35 -312.45 516.4 -305.2 517.0 -301.5 517.4 -294.05 517.2 -290.3 515.95 -282.9 513.7 -275.75 510.45 -269.0 506.25 -262.8 501.2 -257.3 498.35 -254.8 492.25 -250.5 486.25 -247.4 486.9 -246.05 486.15 -245.7 485.1 -248.0 491.75 -251.35 497.75 -255.6 503.05 -260.65 507.6 -266.4 511.3 -272.75 514.0 -279.6 515.75 -286.75 516.4 -294.05 516.3 -297.9 515.4 -305.0 513.45 -312.1 510.45 -318.85 506.55 -325.05 504.3 -327.95 499.15 -333.2 493.3 -337.65 484.55 -342.35 491.75 -356.45" fill="#707070" fill-rule="evenodd" stroke="none"/>
    <path d="M415.25 -317.2 L412.55 -309.7 411.0 -301.95 410.55 -294.0 411.25 -286.15 413.1 -278.45 416.05 -271.05 420.0 -264.2 424.9 -257.95 427.65 -255.15 433.8 -250.1 443.5 -244.55 444.2 -246.0 444.8 -245.7 442.6 -240.5 431.55 -246.8 428.15 -249.4 421.95 -255.25 416.7 -261.9 412.45 -269.25 409.3 -277.15 408.15 -281.25 406.8 -289.65 406.65 -298.15 407.7 -306.6 410.0 -314.8 413.4 -322.6 417.95 -329.8 423.45 -336.25 429.8 -341.9 433.3 -344.35 440.8 -348.65 443.05 -343.45 442.35 -344.8 435.5 -341.0 429.2 -336.2 423.65 -330.55 418.95 -324.2 415.25 -317.2" fill="#707070" fill-rule="evenodd" stroke="none"/>
    <path d="M492.1 -343.0 L488.6 -344.8 487.9 -343.45 489.5 -348.0 491.0 -350.25 492.25 -347.75 501.15 -341.9 507.5 -336.25 513.0 -329.8 515.4 -326.25 519.4 -318.75 520.95 -314.8 523.25 -306.6 523.95 -302.4 524.4 -293.9 524.15 -289.65 522.8 -281.25 520.2 -273.15 516.5 -265.5 514.25 -261.9 509.0 -255.25 502.8 -249.4 499.4 -246.8 492.9 -242.85 487.85 -240.65 486.15 -245.7 486.9 -246.05 487.5 -244.7 493.75 -247.9 500.25 -252.45 506.0 -257.9 510.9 -264.1 513.0 -267.45 516.5 -274.6 518.9 -282.15 520.15 -289.95 520.4 -294.0 519.95 -301.85 519.35 -305.75 517.2 -313.4 514.05 -320.65 509.8 -327.35 507.35 -330.5 501.8 -336.15 498.75 -338.65 492.1 -343.0" fill="#707070" fill-rule="evenodd" stroke="none"/>
    <path d="M348.2 -406.35 L353.45 -411.5 357.9 -417.35 362.6 -426.1 376.6 -418.85 374.35 -414.4 367.45 -417.95 368.9 -420.5 362.35 -423.4 358.7 -416.8 354.2 -410.8 348.85 -405.55 342.8 -401.15 336.15 -397.65 329.1 -395.1 325.45 -394.25 318.05 -393.3 310.55 -393.45 303.15 -394.65 299.55 -395.65 292.6 -398.4 286.1 -402.15 283.05 -404.4 277.55 -409.45 272.8 -415.25 270.75 -418.35 267.5 -424.5 266.25 -423.85 265.95 -424.5 268.25 -425.5 271.6 -418.9 278.25 -410.1 283.7 -405.15 289.75 -401.05 293.0 -399.3 303.4 -395.6 310.65 -394.45 314.3 -394.25 321.65 -394.65 325.25 -395.2 332.35 -397.2 335.75 -398.55 342.25 -402.0 348.2 -406.35" fill="#707070" fill-rule="evenodd" stroke="none"/>
    <path d="M342.8 -489.15 L348.85 -484.7 354.2 -479.45 358.7 -473.5 362.35 -466.9 363.7 -467.55 368.25 -469.15 370.5 -470.65 368.0 -471.9 367.65 -472.4 374.4 -475.85 376.7 -471.4 362.6 -464.2 357.9 -472.95 353.45 -478.8 348.2 -483.95 342.25 -488.3 335.75 -491.75 328.85 -494.2 321.65 -495.65 314.3 -496.05 307.0 -495.4 303.4 -494.65 296.4 -492.45 289.75 -489.25 283.7 -485.1 278.25 -480.15 275.85 -477.4 271.6 -471.4 268.25 -464.75 265.95 -465.8 266.3 -466.55 267.65 -465.9 268.9 -468.65 272.8 -475.05 275.05 -478.05 280.2 -483.5 286.1 -488.1 292.6 -491.85 296.0 -493.4 303.15 -495.65 310.55 -496.85 314.3 -497.05 321.75 -496.65 325.45 -496.05 332.7 -494.05 336.15 -492.65 342.8 -489.15" fill="#707070" fill-rule="evenodd" stroke="none"/>
    <path d="M365.05 -422.05 L363.7 -422.7 368.9 -420.5 362.15 -409.5 356.5 -403.1 350.05 -397.6 342.85 -393.1 335.05 -389.65 326.85 -387.35 318.4 -386.3 309.9 -386.45 301.5 -387.85 293.4 -390.4 285.75 -394.1 278.7 -398.9 272.45 -404.6 267.05 -411.2 260.75 -422.3 265.95 -424.5 266.25 -423.85 264.8 -423.15 268.15 -416.85 272.7 -410.4 278.15 -404.65 284.35 -399.7 291.2 -395.75 294.85 -394.15 302.4 -391.75 310.2 -390.45 318.15 -390.3 326.0 -391.3 333.65 -393.4 340.9 -396.6 347.6 -400.8 353.65 -405.9 358.9 -411.85 361.2 -415.1 365.05 -422.05" fill="#707070" fill-rule="evenodd" stroke="none"/>
    <path d="M342.85 -497.2 L346.5 -495.1 353.35 -490.05 356.5 -487.2 362.15 -480.8 368.0 -471.9 370.5 -470.65 368.25 -469.15 363.7 -467.55 365.05 -468.25 363.3 -471.7 359.0 -478.35 353.75 -484.3 347.7 -489.45 344.45 -491.65 337.45 -495.35 329.95 -498.05 322.2 -499.6 314.25 -500.05 310.35 -499.85 302.5 -498.55 294.95 -496.2 291.3 -494.6 284.45 -490.65 281.25 -488.3 275.4 -482.95 270.35 -476.8 266.25 -470.05 264.95 -467.2 266.3 -466.55 265.95 -465.8 260.9 -467.5 263.1 -472.55 267.05 -479.1 272.45 -485.65 278.7 -491.4 285.75 -496.15 293.4 -499.9 301.5 -502.45 309.9 -503.85 314.15 -504.05 322.65 -503.6 331.0 -501.9 335.05 -500.65 342.85 -497.2" fill="#707070" fill-rule="evenodd" stroke="none"/>
    <path d="M300.5 -257.55 L307.25 -260.15 314.35 -261.5 321.6 -261.5 328.7 -260.15 335.45 -257.55 341.6 -253.75 346.95 -248.85 351.3 -243.1 354.5 -236.65 356.5 -229.65 346.65 -227.8 344.5 -234.0 339.15 -241.75 335.25 -245.35 330.75 -248.1 325.8 -250.0 320.6 -251.0 315.35 -251.0 310.15 -250.0 305.2 -248.1 300.7 -245.35 296.8 -241.75 293.65 -237.55 291.25 -232.8 289.85 -227.75 289.35 -222.5 289.85 -217.2 291.25 -212.15 293.65 -207.4 296.8 -203.2 300.7 -199.6 305.3 -196.3 312.3 -193.5 310.75 -184.15 307.25 -184.8 300.5 -187.4 294.35 -191.2 289.0 -196.1 284.65 -201.85 281.45 -208.3 279.45 -215.3 278.8 -222.5 279.45 -229.65 281.45 -236.65 284.65 -243.1 289.0 -248.85 294.35 -253.75 300.5 -257.55" fill="#707070" fill-rule="evenodd" stroke="none"/>
    <path d="M322.6 -242.65 L323.5 -240.85 323.55 -238.85 322.9 -236.95 321.55 -235.45 319.75 -234.6 317.7 -234.5 315.8 -235.2 314.35 -236.55 313.5 -238.35 313.4 -240.35 314.05 -242.25 315.4 -243.75 317.25 -244.6 319.25 -244.7 321.15 -244.0 322.6 -242.65" fill="#707070" fill-rule="evenodd" stroke="none"/>
    <path d="M303.25 -226.25 L304.75 -224.9 305.6 -223.1 305.7 -221.1 305.0 -219.2 303.65 -217.7 301.85 -216.85 299.85 -216.75 297.95 -217.45 296.45 -218.8 295.6 -220.6 295.5 -222.6 296.2 -224.5 297.55 -226.0 299.35 -226.85 301.35 -226.95 303.25 -226.25" fill="#707070" fill-rule="evenodd" stroke="none"/>
    <path d="M322.5 -191.9 L323.35 -190.1 323.45 -188.1 322.75 -186.2 321.4 -184.7 319.6 -183.85 317.6 -183.75 315.7 -184.45 314.2 -185.8 313.35 -187.6 313.25 -189.6 313.95 -191.5 315.3 -193.0 317.1 -193.85 319.1 -193.95 321.0 -193.25 322.5 -191.9" fill="#707070" fill-rule="evenodd" stroke="none"/>
    <path d="M356.0 -223.5 L356.05 -221.45 355.4 -219.55 354.05 -218.1 352.25 -217.25 350.2 -217.15 348.3 -217.8 346.85 -219.15 346.0 -221.0 345.9 -223.0 346.55 -224.9 347.9 -226.35 349.75 -227.25 351.75 -227.3 353.65 -226.65 355.1 -225.3 356.0 -223.5" fill="#707070" fill-rule="evenodd" stroke="none"/>
    <path d="M337.8 -262.3 L344.8 -258.0 350.85 -252.45 355.8 -245.9 359.5 -238.55 361.75 -230.65 362.5 -222.5 361.7 -214.25 360.8 -209.85 355.9 -210.85 355.95 -210.95 358.55 -210.45 359.45 -214.7 360.15 -222.5 359.45 -230.25 357.3 -237.7 353.85 -244.7 349.15 -250.9 343.4 -256.15 336.8 -260.25 331.85 -262.15 332.7 -264.3 337.8 -262.3" fill="#707070" fill-rule="evenodd" stroke="none"/>
    <path d="M329.8 -184.25 L329.9 -184.25 331.1 -179.4 328.35 -178.7 321.95 -178.15 313.85 -178.15 305.8 -179.65 298.15 -182.65 291.15 -186.95 285.1 -192.5 280.15 -199.05 276.45 -206.4 275.8 -208.8 278.0 -209.45 278.65 -207.25 282.1 -200.25 286.8 -194.05 292.55 -188.8 299.15 -184.7 306.45 -181.9 314.1 -180.45 321.8 -180.45 327.75 -181.0 330.45 -181.65 329.8 -184.25" fill="#707070" fill-rule="evenodd" stroke="none"/>
    <path d="M248.5 -326.25 L250.05 -335.6 253.55 -334.95 260.3 -332.35 266.45 -328.55 271.8 -323.65 276.15 -317.9 279.4 -311.4 281.35 -304.45 282.05 -297.25 281.35 -290.05 279.4 -283.1 276.15 -276.65 271.8 -270.85 266.45 -266.0 260.3 -262.2 253.55 -259.6 246.45 -258.25 239.25 -258.25 232.15 -259.6 225.4 -262.2 219.25 -266.0 213.9 -270.85 209.55 -276.65 206.3 -283.1 204.35 -290.05 214.2 -291.95 216.35 -285.75 221.7 -278.0 225.6 -274.4 230.1 -271.65 235.0 -269.75 240.2 -268.75 245.5 -268.75 250.7 -269.75 255.6 -271.65 260.1 -274.4 264.0 -278.0 267.2 -282.2 269.55 -286.9 271.0 -292.0 271.5 -297.25 271.0 -302.55 269.55 -307.6 267.2 -312.35 264.0 -316.55 260.1 -320.1 255.5 -323.45 248.5 -326.25" fill="#707070" fill-rule="evenodd" stroke="none"/>
    <path d="M237.95 -282.8 L239.3 -284.3 241.1 -285.15 243.1 -285.25 245.0 -284.55 246.5 -283.2 247.35 -281.4 247.45 -279.4 246.75 -277.5 245.4 -276.0 243.6 -275.15 241.6 -275.05 239.7 -275.7 238.2 -277.05 237.35 -278.9 237.25 -280.9 237.95 -282.8" fill="#707070" fill-rule="evenodd" stroke="none"/>
    <path d="M255.8 -300.55 L257.15 -302.05 259.0 -302.9 261.0 -303.0 262.9 -302.3 264.35 -300.95 265.25 -299.15 265.3 -297.15 264.65 -295.25 263.3 -293.75 261.5 -292.9 259.45 -292.8 257.55 -293.45 256.1 -294.8 255.25 -296.65 255.15 -298.65 255.8 -300.55" fill="#707070" fill-rule="evenodd" stroke="none"/>
    <path d="M238.05 -333.55 L239.4 -335.05 241.25 -335.9 243.25 -336.0 245.15 -335.3 246.6 -333.95 247.5 -332.15 247.55 -330.15 246.9 -328.25 245.55 -326.75 243.75 -325.9 241.7 -325.8 239.8 -326.45 238.35 -327.8 237.5 -329.65 237.4 -331.65 238.05 -333.55" fill="#707070" fill-rule="evenodd" stroke="none"/>
    <path d="M205.45 -300.15 L206.8 -301.65 208.6 -302.5 210.6 -302.6 212.5 -301.95 214.0 -300.6 214.85 -298.75 214.95 -296.75 214.25 -294.85 212.9 -293.4 211.1 -292.5 209.1 -292.4 207.2 -293.1 205.7 -294.45 204.85 -296.25 204.75 -298.3 205.45 -300.15" fill="#707070" fill-rule="evenodd" stroke="none"/>
    <path d="M200.0 -309.9 L204.9 -308.9 204.9 -308.8 202.25 -309.3 201.4 -305.05 200.65 -297.25 201.4 -289.5 203.5 -282.0 207.0 -275.05 211.65 -268.85 217.45 -263.6 224.05 -259.5 228.95 -257.6 228.1 -255.45 223.0 -257.4 Q219.55 -259.55 216.05 -261.75 L209.95 -267.3 205.0 -273.85 201.35 -281.2 199.1 -289.1 198.35 -297.25 199.1 -305.5 200.0 -309.9" fill="#707070" fill-rule="evenodd" stroke="none"/>
    <path d="M246.75 -339.3 L239.1 -339.3 233.1 -338.75 230.35 -338.1 231.0 -335.5 230.95 -335.5 229.75 -340.35 232.5 -341.05 239.0 -341.6 246.95 -341.6 255.05 -340.1 262.7 -337.1 269.7 -332.8 275.75 -327.25 280.7 -320.7 284.35 -313.35 285.05 -310.95 282.8 -310.3 282.2 -312.5 278.75 -319.5 274.05 -325.7 268.3 -330.95 261.65 -335.05 254.4 -337.85 246.75 -339.3" fill="#707070" fill-rule="evenodd" stroke="none"/>
    <path d="M312.35 -296.6 L316.65 -300.95 321.25 -296.35 316.95 -292.0 312.35 -296.6" fill="#707070" fill-rule="evenodd" stroke="none"/>
    <path d="M306.25 -300.0 L309.35 -305.4 315.0 -302.15 311.9 -296.75 306.25 -300.0" fill="#707070" fill-rule="evenodd" stroke="none"/>
    <path d="M307.5 -306.15 L305.85 -300.0 299.55 -301.7 301.2 -307.85 307.5 -306.15" fill="#707070" fill-rule="evenodd" stroke="none"/>
    <path d="M299.25 -308.4 L299.25 -301.65 292.75 -301.65 292.75 -308.4 299.25 -308.4" fill="#707070" fill-rule="evenodd" stroke="none"/>
    <path d="M317.0 -291.7 L322.35 -294.8 325.6 -289.15 320.25 -286.05 317.0 -291.7" fill="#707070" fill-rule="evenodd" stroke="none"/>
    <path d="M320.55 -285.7 L326.4 -287.25 328.05 -281.0 322.2 -279.45 320.55 -285.7" fill="#707070" fill-rule="evenodd" stroke="none"/>
    <path d="M322.15 -272.5 L322.15 -279.0 328.65 -279.0 328.65 -272.5 322.15 -272.5" fill="#707070" fill-rule="evenodd" stroke="none"/>
    <path d="M-5.6 -472.15 L-3.45 -476.1 11.15 -467.7 22.6 -458.4 19.7 -454.9 8.55 -464.05 -5.6 -472.15" fill="#707070" fill-rule="evenodd" stroke="none"/>
    <path d="M-105.65 -374.65 L-101.65 -376.7 -94.75 -364.1 -84.6 -351.2 -88.1 -348.4 -98.5 -361.65 -105.65 -374.65" fill="#707070" fill-rule="evenodd" stroke="none"/>
    <path d="M78.5 -414.5 L76.75 -426.25 80.8 -422.3 82.45 -423.95 84.6 -404.4 84.35 -394.75 82.7 -383.2 80.6 -373.55 78.45 -369.05 77.3 -370.25 72.3 -365.25 75.75 -376.75 77.25 -383.75 78.75 -395.75 79.25 -405.5 78.5 -414.5" fill="#707070" fill-rule="evenodd" stroke="none"/>
    <path d="M-34.15 -285.6 L-53.7 -287.75 -52.05 -289.4 -56.1 -293.4 -33.8 -291.15 -25.3 -291.65 -5.8 -294.3 4.65 -297.6 0.0 -292.9 1.15 -291.75 -3.25 -289.6 -12.95 -287.5 -24.5 -285.85 -34.15 -285.6" fill="#707070" fill-rule="evenodd" stroke="none"/>
    <path d="M-13.55 67.05 L-15.95 75.55 -18.0 75.0 -15.65 66.45 -13.55 67.05" fill="#707070" fill-rule="evenodd" stroke="none"/>
    <path d="M200.3 81.25 L207.75 68.8 208.8 67.3 215.3 72.0 214.3 73.35 207.5 84.7 203.75 94.1 201.25 101.8 200.05 108.75 198.95 129.55 198.1 135.05 196.05 143.6 189.95 157.9 184.75 166.8 179.65 172.65 172.45 179.85 163.65 186.35 155.75 190.85 149.95 193.5 131.4 200.15 118.05 207.45 113.05 211.2 103.35 220.85 97.6 215.35 107.9 205.1 113.65 200.75 128.2 192.8 147.1 186.0 152.25 183.65 159.3 179.6 167.2 173.75 173.9 167.05 178.2 162.15 182.75 154.3 188.4 141.1 190.3 133.35 191.0 128.6 191.45 114.8 192.15 107.55 193.45 99.9 196.25 91.25 200.3 81.25" fill="#707070" fill-rule="evenodd" stroke="none"/>
    <path d="M121.9 178.55 L123.6 179.55 124.75 181.1 125.2 182.95 124.9 184.9 123.95 186.55 122.4 187.7 120.5 188.15 118.6 187.9 116.95 186.9 115.8 185.35 115.35 183.5 115.6 181.55 116.6 179.9 118.15 178.75 120.0 178.3 121.9 178.55" fill="#707070" fill-rule="evenodd" stroke="none"/>
    <path d="M99.75 202.15 L98.75 203.8 97.2 204.95 95.35 205.4 93.45 205.15 91.8 204.15 90.65 202.6 90.15 200.75 90.45 198.8 91.45 197.15 93.0 196.0 94.85 195.55 96.75 195.8 98.4 196.8 99.55 198.35 100.05 200.2 99.75 202.15" fill="#707070" fill-rule="evenodd" stroke="none"/>
    <path d="M149.75 169.95 L150.9 171.5 151.35 173.4 151.1 175.3 150.1 176.95 148.55 178.1 146.7 178.6 144.8 178.3 143.1 177.3 141.95 175.75 141.5 173.9 141.8 172.0 142.75 170.35 144.3 169.2 146.2 168.7 148.1 169.0 149.75 169.95" fill="#707070" fill-rule="evenodd" stroke="none"/>
    <path d="M161.0 158.05 L161.3 156.15 162.25 154.5 163.8 153.35 165.7 152.85 167.6 153.15 169.25 154.15 170.4 155.7 170.85 157.55 170.6 159.45 169.6 161.1 168.05 162.25 166.2 162.75 164.3 162.45 162.6 161.5 161.45 159.95 161.0 158.05" fill="#707070" fill-rule="evenodd" stroke="none"/>
    <path d="M175.65 130.85 L177.5 130.35 179.4 130.65 181.1 131.65 182.25 133.2 182.7 135.05 182.4 136.95 181.45 138.6 179.9 139.75 178.0 140.25 176.1 139.95 174.45 139.0 173.3 137.45 172.85 135.55 173.1 133.65 174.1 132.0 175.65 130.85" fill="#707070" fill-rule="evenodd" stroke="none"/>
    <path d="M175.95 113.6 L175.5 111.75 175.8 109.8 176.75 108.15 178.3 107.0 180.2 106.55 182.1 106.8 183.75 107.8 184.9 109.35 185.35 111.2 185.1 113.15 184.1 114.8 182.55 115.95 180.7 116.4 178.8 116.15 177.1 115.15 175.95 113.6" fill="#707070" fill-rule="evenodd" stroke="none"/>
    <path d="M183.6 87.15 L182.45 85.6 182.0 83.75 182.3 81.8 183.25 80.15 184.8 79.0 186.7 78.55 188.6 78.8 190.25 79.8 191.4 81.35 191.85 83.2 191.6 85.15 190.6 86.8 189.05 87.95 187.2 88.4 185.3 88.15 183.6 87.15" fill="#707070" fill-rule="evenodd" stroke="none"/>
    <path d="M163.5 -453.5 L143.25 -453.5 143.25 -495.0 128.0 -495.0 128.0 -453.5 107.0 -453.5 107.0 -515.5 163.5 -515.5 163.5 -453.5" fill="#ffffff" fill-rule="evenodd" stroke="none"/>
    <path d="M-117.5 144.85 L-88.8 144.85 -88.8 147.55 -117.5 147.55 -117.5 144.85" fill="#ffffff" fill-rule="evenodd" stroke="none"/>
    <path d="M-179.05 70.65 L-160.65 52.25 -156.95 55.95 -154.25 53.2 -143.0 64.45 -145.75 67.15 -142.15 70.75 -160.55 89.15 -179.05 70.65" fill="#ffffff" fill-rule="evenodd" stroke="none"/>
  </g>
</svg>
