<?xml version="1.0" encoding="UTF-8" standalone="no"?>
<svg xmlns:ffdec="https://www.free-decompiler.com/flash" xmlns:xlink="http://www.w3.org/1999/xlink" ffdec:objectType="shape" height="997.9px" width="889.8px" xmlns="http://www.w3.org/2000/svg">
  <g transform="matrix(1.0, 0.0, 0.0, 1.0, 205.8, 666.95)">
    <path d="M507.0 -176.65 L507.0 -79.1 263.95 -79.1 263.95 330.95 -205.8 330.95 -205.8 -70.05 -128.1 -70.05 -128.1 -550.2 196.6 -550.2 196.6 -666.95 684.0 -666.95 684.0 -176.65 507.0 -176.65" fill="#434343" fill-rule="evenodd" stroke="none"/>
    <path d="M177.7 -471.2 L182.6 -473.55 183.05 -473.65 183.05 -475.5 179.4 -475.5 179.4 -504.0 207.65 -504.0 207.65 -475.5 205.05 -475.5 205.05 -472.95 208.75 -471.2 213.1 -468.0 216.85 -464.1 219.85 -459.55 221.15 -456.5 224.95 -456.5 224.95 -434.25 221.3 -434.25 221.05 -433.35 218.45 -428.55 215.1 -424.35 211.0 -420.75 206.35 -418.0 204.75 -417.35 204.75 -414.65 209.25 -414.65 209.25 -384.0 204.75 -384.0 204.75 -381.65 210.5 -381.65 210.5 -375.9 216.75 -375.9 216.75 -373.15 217.75 -373.15 217.75 -358.0 216.75 -358.0 216.75 -355.25 210.5 -355.25 210.5 -313.25 182.75 -313.25 182.75 -311.25 134.05 -311.25 134.05 -343.75 128.3 -343.75 128.3 -349.25 126.0 -349.25 126.0 -311.0 123.0 -311.0 123.0 -312.3 120.8 -312.3 120.8 -309.0 122.8 -309.0 122.8 -310.0 148.9 -310.0 148.9 -249.8 152.0 -249.8 152.0 -247.0 153.15 -247.0 153.15 -232.0 152.0 -232.0 152.0 -213.25 148.0 -213.25 148.0 -199.5 145.1 -200.4 143.55 -198.25 136.45 -201.15 127.95 -203.95 119.05 -205.0 102.35 -205.0 92.55 -203.65 84.0 -201.15 77.65 -198.45 76.25 -200.85 73.0 -200.25 73.0 -213.25 69.0 -213.25 69.0 -221.8 68.0 -221.8 68.0 -224.15 66.05 -224.15 66.05 -218.05 40.25 -218.05 40.25 -243.75 66.05 -243.75 66.05 -238.15 68.0 -238.15 68.0 -240.0 69.0 -240.0 69.0 -249.8 72.25 -249.8 72.25 -258.25 64.75 -258.25 64.75 -300.0 73.0 -300.0 73.0 -310.0 97.75 -310.0 97.75 -309.0 100.0 -309.0 100.0 -312.3 97.8 -312.3 97.8 -311.0 94.8 -311.0 94.8 -378.15 97.8 -378.15 97.8 -376.65 100.0 -376.65 100.0 -379.0 120.8 -379.0 120.8 -376.65 123.0 -376.65 123.0 -378.15 126.0 -378.15 126.0 -369.9 128.3 -369.9 128.3 -375.65 177.05 -375.65 177.05 -381.65 183.3 -381.65 183.3 -384.0 178.3 -384.0 178.3 -414.65 183.3 -414.65 183.3 -416.8 180.1 -418.0 175.45 -420.75 171.35 -424.35 168.0 -428.55 165.4 -433.35 165.15 -434.25 163.5 -434.25 163.5 -430.75 107.0 -430.75 107.0 -435.5 105.8 -435.5 105.8 -451.15 107.0 -451.15 107.0 -456.5 127.75 -510.25 152.5 -508.0 163.5 -456.5 165.3 -456.5 166.6 -459.55 169.6 -464.1 173.35 -468.0 177.7 -471.2" fill="#969696" fill-rule="evenodd" stroke="none"/>
    <path d="M126.5 -239.25 L126.5 -229.0 94.0 -229.0 94.0 -239.25 126.5 -239.25" fill="#707070" fill-rule="evenodd" stroke="none"/>
    <path d="M148.9 -257.75 L148.9 -300.25 160.75 -300.25 160.75 -270.75 152.5 -270.75 152.5 -257.75 148.9 -257.75" fill="#707070" fill-rule="evenodd" stroke="none"/>
    <path d="M92.65 -269.15 L81.0 -269.15 81.0 -289.5 92.65 -289.5 92.65 -269.15" fill="#707070" fill-rule="evenodd" stroke="none"/>
    <path d="M66.3 -287.25 L66.3 -294.05 75.3 -294.05 75.3 -264.75 66.3 -264.75 66.3 -271.55 64.65 -271.55 64.65 -287.25 66.3 -287.25" fill="#707070" fill-rule="evenodd" stroke="none"/>
    <path d="M155.0 -348.15 L165.15 -348.15 165.15 -321.0 155.0 -321.0 155.0 -348.15" fill="#707070" fill-rule="evenodd" stroke="none"/>
    <path d="M78.3 -308.65 L93.65 -308.65 93.65 -303.5 78.3 -303.5 78.3 -308.65" fill="#707070" fill-rule="evenodd" stroke="none"/>
    <path d="M102.25 -208.35 L110.3 -208.8 118.95 -208.35 127.8 -207.3 137.0 -204.5 143.4 -201.6 145.1 -200.4 143.55 -198.25 136.45 -201.15 127.95 -203.95 119.05 -205.0 102.35 -205.0 92.55 -203.65 84.0 -201.15 77.65 -198.45 76.25 -200.85 77.5 -201.8 82.25 -204.0 92.45 -207.0 102.25 -208.35" fill="#707070" fill-rule="evenodd" stroke="none"/>
    <path d="M163.5 -456.5 L143.25 -456.5 143.25 -495.0 128.0 -495.0 128.0 -456.5 107.0 -456.5 107.0 -515.5 163.5 -515.5 163.5 -456.5" fill="#ffffff" fill-rule="evenodd" stroke="none"/>
  </g>
</svg>
