<?xml version="1.0" encoding="UTF-8" standalone="no"?>
<svg xmlns:ffdec="https://www.free-decompiler.com/flash" xmlns:xlink="http://www.w3.org/1999/xlink" ffdec:objectType="shape" height="773.3px" width="882.5px" xmlns="http://www.w3.org/2000/svg">
  <g transform="matrix(1.0, 0.0, 0.0, 1.0, 431.0, 319.65)">
    <path d="M451.5 453.65 L-341.45 453.65 -341.45 -319.65 451.5 -319.65 451.5 453.65" fill="#434343" fill-rule="evenodd" stroke="none"/>
    <path d="M-431.0 177.0 L-431.0 40.3 -312.35 40.3 -312.35 177.0 -431.0 177.0" fill="#434343" fill-rule="evenodd" stroke="none"/>
    <path d="M348.15 -165.65 L330.15 -165.65 330.15 -153.0 348.15 -153.0 348.15 200.3 377.65 200.3 377.65 232.5 382.15 232.5 382.15 262.5 377.65 262.5 377.65 297.0 195.25 297.0 195.25 301.65 206.25 301.65 206.25 339.8 218.0 339.8 218.0 317.65 277.65 317.65 277.65 355.3 294.0 355.3 294.0 442.0 217.3 442.0 217.3 425.3 206.25 425.3 206.25 436.3 132.4 436.3 132.4 425.3 120.65 425.3 120.65 442.0 44.0 442.0 44.0 355.3 61.0 355.3 61.0 317.0 121.0 317.0 121.0 339.8 132.4 339.8 132.4 301.65 143.55 301.65 143.55 297.0 -110.0 297.0 -110.0 301.65 -99.0 301.65 -99.0 339.8 -87.35 339.8 -87.35 317.65 -27.7 317.65 -27.7 355.3 -11.35 355.3 -11.35 442.0 -88.0 442.0 -88.0 425.3 -99.0 425.3 -99.0 437.0 -172.85 437.0 -172.85 425.3 -184.7 425.3 -184.7 442.0 -261.35 442.0 -261.35 355.3 -244.35 355.3 -244.35 317.0 -184.35 317.0 -184.35 339.8 -172.85 339.8 -172.85 301.65 -161.7 301.65 -161.7 297.0 -224.5 297.0 -224.5 274.3 -226.35 274.3 -226.35 288.95 -285.05 288.95 -285.05 413.65 -337.0 413.65 -337.0 379.65 -339.7 379.65 -339.7 325.0 -337.0 325.0 -337.0 209.0 -226.35 209.0 -226.35 223.65 -224.5 223.65 -224.5 200.3 -335.5 200.3 -335.5 88.15 -341.0 88.15 -341.0 168.3 -420.35 168.3 -420.35 49.0 -341.0 49.0 -341.0 59.65 -335.5 59.65 -335.5 -153.0 146.5 -153.0 146.5 -165.65 -335.5 -165.65 -335.5 -311.0 348.15 -311.0 348.15 -165.65" fill="#969696" fill-rule="evenodd" stroke="none"/>
    <path d="M-106.85 -153.0 L-284.0 -153.0 -284.0 -165.65 -106.85 -165.65 -106.85 -153.0" fill="#707070" fill-rule="evenodd" stroke="none"/>
    <path d="M97.75 -153.0 L-58.7 -153.0 -58.7 -165.65 97.75 -165.65 97.75 -153.0" fill="#707070" fill-rule="evenodd" stroke="none"/>
    <path d="M-32.7 333.65 L-80.35 333.65 -80.35 317.65 -32.7 317.65 -32.7 333.65" fill="#707070" fill-rule="evenodd" stroke="none"/>
    <path d="M-132.7 437.0 L-172.35 437.0 -172.35 415.3 -132.7 415.3 -132.7 437.0" fill="#707070" fill-rule="evenodd" stroke="none"/>
    <path d="M-375.75 49.0 L-375.75 54.5 -406.75 54.5 -406.75 114.25 -411.25 114.25 -411.25 143.55 -408.5 143.55 -408.5 167.5 -420.35 167.5 -420.35 49.0 -375.75 49.0" fill="#707070" fill-rule="evenodd" stroke="none"/>
    <path d="M105.65 442.0 L46.55 442.0 46.55 431.3 105.65 431.3 105.65 442.0" fill="#707070" fill-rule="evenodd" stroke="none"/>
    <path d="M294.0 442.0 L234.25 442.0 234.25 431.3 294.0 431.3 294.0 442.0" fill="#707070" fill-rule="evenodd" stroke="none"/>
    <path d="M276.3 327.9 L217.25 327.9 217.25 317.65 276.3 317.65 276.3 327.9" fill="#707070" fill-rule="evenodd" stroke="none"/>
    <path d="M121.0 327.9 L60.9 327.9 60.9 317.0 121.0 317.0 121.0 327.9" fill="#707070" fill-rule="evenodd" stroke="none"/>
    <path d="M-153.85 173.0 L-153.85 204.15 -224.0 204.15 -224.0 201.15 -156.85 201.15 -156.85 173.0 -153.85 173.0" fill="#707070" fill-rule="evenodd" stroke="none"/>
    <path d="M-109.85 173.0 L-109.85 201.15 -89.7 201.15 -89.7 204.15 -112.85 204.15 -112.85 173.0 -109.85 173.0" fill="#707070" fill-rule="evenodd" stroke="none"/>
    <path d="M-35.7 204.15 L-70.7 204.15 -70.7 201.15 -35.7 201.15 -35.7 204.15" fill="#707070" fill-rule="evenodd" stroke="none"/>
    <path d="M15.0 204.15 L8.0 204.15 8.0 201.15 15.0 201.15 15.0 204.15" fill="#707070" fill-rule="evenodd" stroke="none"/>
    <path d="M113.3 204.15 L29.65 204.15 29.65 201.15 113.3 201.15 113.3 204.15" fill="#707070" fill-rule="evenodd" stroke="none"/>
    <path d="M155.5 173.0 L155.5 204.15 134.65 204.15 134.65 201.15 152.5 201.15 152.5 173.0 155.5 173.0" fill="#707070" fill-rule="evenodd" stroke="none"/>
    <path d="M333.65 204.15 L289.0 204.15 289.0 201.15 333.65 201.15 333.65 204.15" fill="#707070" fill-rule="evenodd" stroke="none"/>
    <path d="M199.5 173.0 L199.5 201.15 243.0 201.15 243.0 204.15 196.5 204.15 196.5 173.0 199.5 173.0" fill="#707070" fill-rule="evenodd" stroke="none"/>
    <path d="M-312.75 177.0 L-249.5 177.0 -249.5 195.5 -312.75 195.5 -312.75 177.0" fill="#707070" fill-rule="evenodd" stroke="none"/>
    <path d="M-335.5 -97.65 L-319.0 -97.65 -319.0 17.0 -335.5 17.0 -335.5 -97.65" fill="#707070" fill-rule="evenodd" stroke="none"/>
    <path d="M-255.7 -153.3 L-255.7 -114.3 -287.7 -114.3 -287.7 -153.3 -255.7 -153.3" fill="#707070" fill-rule="evenodd" stroke="none"/>
    <path d="M381.65 277.65 L381.65 217.65 445.0 217.65 445.0 277.65 381.65 277.65" fill="#ffffff" fill-rule="evenodd" stroke="none"/>
    <path d="M-341.45 -290.0 L-334.1 -290.0 -334.1 -182.3 -341.45 -182.3 -341.45 -290.0" fill="#ffffff" fill-rule="evenodd" stroke="none"/>
  </g>
</svg>
