<?xml version="1.0" encoding="UTF-8" standalone="no"?>
<svg xmlns:ffdec="https://www.free-decompiler.com/flash" xmlns:xlink="http://www.w3.org/1999/xlink" ffdec:objectType="shape" height="209.45px" width="395.35px" xmlns="http://www.w3.org/2000/svg">
  <g transform="matrix(1.0, 0.0, 0.0, 1.0, 0.0, -66.9)">
    <path d="M25.0 66.9 Q27.25 66.9 29.15 68.1 31.0 69.25 32.0 71.25 33.0 73.3 32.8 75.55 32.6 77.65 31.3 79.4 L39.2 94.05 48.95 80.5 Q48.35 79.3 48.25 78.4 47.6 75.3 49.35 72.55 50.55 70.85 52.4 69.85 54.3 68.95 56.4 69.1 58.5 69.25 60.2 70.4 62.9 72.2 63.55 75.35 64.2 78.45 62.45 81.25 61.2 83.0 59.4 83.85 57.15 85.0 54.8 84.65 L46.2 98.7 62.95 100.35 Q64.15 98.55 66.15 97.55 67.9 96.6 70.1 96.7 73.35 96.95 75.45 99.35 L76.55 101.0 76.55 104.2 Q76.8 105.3 76.7 106.55 L76.55 107.7 76.55 108.1 76.35 108.45 75.9 109.6 75.9 109.15 Q74.8 110.7 73.1 111.55 71.35 112.35 69.6 112.35 L69.1 112.3 Q65.9 112.15 63.75 109.65 62.85 108.65 62.4 107.45 L45.65 107.05 52.6 122.4 Q54.8 122.45 56.7 123.65 58.55 124.75 59.5 126.75 60.95 129.65 59.9 132.7 58.9 135.75 56.0 137.25 54.35 138.05 52.55 138.05 50.3 138.05 48.4 136.9 46.55 135.7 45.55 133.7 44.55 131.7 44.8 129.5 44.95 127.3 46.25 125.55 L38.15 110.75 28.35 124.45 Q29.05 125.6 29.3 126.9 29.95 130.1 28.15 132.8 26.9 134.55 25.1 135.4 23.2 136.35 21.1 136.25 19.0 136.1 17.3 134.95 14.6 133.05 13.95 129.95 13.3 126.8 15.1 124.1 16.35 122.35 18.15 121.45 20.1 120.45 22.35 120.65 L31.25 106.1 14.65 104.45 Q13.45 106.55 11.3 107.6 9.4 108.55 7.3 108.45 4.1 108.25 2.0 105.8 -0.25 103.35 0.05 100.1 0.15 98.05 1.35 96.3 2.5 94.55 4.4 93.6 6.25 92.65 8.3 92.85 10.5 92.95 12.25 94.2 14.0 95.4 14.95 97.35 L31.75 97.75 24.9 82.6 Q22.7 82.5 20.85 81.4 19.0 80.25 18.0 78.25 16.6 75.3 17.65 72.25 18.7 69.2 21.55 67.75 23.2 66.9 25.0 66.9 M26.8 70.3 Q24.85 69.7 23.05 70.55 21.2 71.45 20.55 73.35 19.9 75.3 20.8 77.1 21.6 78.75 23.4 79.45 L26.85 79.55 36.6 101.0 12.9 100.4 Q12.7 98.6 11.4 97.3 L10.9 96.85 Q9.75 96.0 8.3 95.9 6.85 95.9 5.85 96.4 4.65 97.0 3.9 98.1 3.2 99.15 3.15 100.45 2.95 102.5 4.3 104.05 5.65 105.5 7.65 105.7 9.0 105.8 10.2 105.15 L10.9 104.75 Q12.55 103.65 12.8 101.45 L36.35 103.8 23.85 124.2 Q21.75 123.2 19.65 124.2 18.45 124.85 17.75 125.9 16.6 127.5 17.0 129.55 17.45 131.6 19.1 132.65 21.45 134.25 23.95 133.0 25.15 132.35 25.85 131.3 27.0 129.75 26.6 127.7 26.25 125.85 24.8 124.75 L38.7 105.4 50.05 126.25 Q48.55 127.25 48.0 129.1 47.5 130.9 48.3 132.55 49.25 134.35 51.2 135.0 53.05 135.65 54.85 134.75 56.7 133.9 57.35 131.95 58.0 130.0 57.1 128.2 56.3 126.55 54.5 125.85 52.75 125.15 51.0 125.8 L41.2 104.1 64.9 104.75 Q64.9 106.6 66.15 107.9 67.4 109.45 69.5 109.55 70.75 109.6 71.95 109.1 73.1 108.5 73.85 107.45 74.6 106.35 74.65 105.05 74.75 103.05 73.45 101.45 72.1 99.95 70.1 99.8 68.75 99.7 67.6 100.35 65.5 101.35 65.0 103.7 L41.4 101.35 53.7 81.35 58.25 81.45 Q59.45 80.8 60.15 79.75 61.3 78.05 60.85 76.05 60.5 74.2 58.8 72.95 56.45 71.45 53.9 72.65 52.7 73.3 52.0 74.35 50.85 76.15 51.3 78.0 51.6 79.65 52.75 80.65 L39.05 99.75 27.85 79.05 Q29.4 78.05 29.9 76.25 30.4 74.45 29.6 72.8 28.65 70.95 26.8 70.3 M26.25 71.8 Q27.6 72.2 28.2 73.45 28.8 74.7 28.35 76.0 27.9 77.3 26.65 77.95 L24.15 78.1 Q22.85 77.65 22.2 76.4 21.55 75.2 22.05 73.9 22.45 72.55 23.75 71.95 L26.25 71.8 M8.2 97.45 Q9.6 97.6 10.55 98.6 L10.9 99.05 Q11.5 99.95 11.35 101.0 L10.9 102.6 9.5 103.8 7.8 104.15 Q6.35 104.05 5.5 103.0 4.55 102.0 4.65 100.6 4.8 98.7 6.5 97.85 7.3 97.35 8.2 97.45 M59.35 76.4 Q59.6 77.75 58.85 78.9 L57.55 80.05 Q55.8 80.95 54.25 79.8 53.1 79.1 52.8 77.7 52.6 76.35 53.3 75.2 53.9 74.35 54.6 74.05 56.35 73.2 57.9 74.25 59.05 75.0 59.35 76.4 M73.1 104.9 Q73.0 106.8 71.3 107.7 L69.6 108.05 Q68.25 107.9 67.3 106.9 66.3 105.9 66.45 104.5 66.6 102.5 68.3 101.7 69.1 101.35 70.0 101.35 71.35 101.45 72.3 102.45 73.25 103.5 73.1 104.9 M53.75 127.2 Q55.05 127.7 55.7 128.9 56.35 130.15 55.85 131.45 55.45 132.8 54.15 133.35 L51.65 133.55 Q50.35 133.15 49.7 131.9 49.15 130.65 49.55 129.3 50.0 128.05 51.25 127.4 L53.75 127.2 M19.05 126.75 Q19.5 125.95 20.35 125.6 22.1 124.75 23.65 125.85 24.8 126.6 25.1 127.95 25.35 129.3 24.6 130.5 L23.25 131.6 19.9 131.45 Q18.8 130.55 18.5 129.25 18.2 127.9 19.05 126.75" fill="#94d0e7" fill-rule="evenodd" stroke="none"/>
    <path d="M19.05 126.75 Q18.2 127.9 18.5 129.25 18.8 130.55 19.9 131.45 L23.25 131.6 24.6 130.5 Q25.35 129.3 25.1 127.95 24.8 126.6 23.65 125.85 22.1 124.75 20.35 125.6 19.5 125.95 19.05 126.75 M53.75 127.2 L51.25 127.4 Q50.0 128.05 49.55 129.3 49.15 130.65 49.7 131.9 50.35 133.15 51.65 133.55 L54.15 133.35 Q55.45 132.8 55.85 131.45 56.35 130.15 55.7 128.9 55.05 127.7 53.75 127.2 M73.1 104.9 Q73.25 103.5 72.3 102.45 71.35 101.45 70.0 101.35 69.1 101.35 68.3 101.7 66.6 102.5 66.45 104.5 66.3 105.9 67.3 106.9 68.25 107.9 69.6 108.05 L71.3 107.7 Q73.0 106.8 73.1 104.9 M59.35 76.4 Q59.05 75.0 57.9 74.25 56.35 73.2 54.6 74.05 53.9 74.35 53.3 75.2 52.6 76.35 52.8 77.7 53.1 79.1 54.25 79.8 55.8 80.95 57.55 80.05 L58.85 78.9 Q59.6 77.75 59.35 76.4 M8.2 97.45 Q7.3 97.35 6.5 97.85 4.8 98.7 4.65 100.6 4.55 102.0 5.5 103.0 6.35 104.05 7.8 104.15 L9.5 103.8 10.9 102.6 11.35 101.0 Q11.5 99.95 10.9 99.05 L10.55 98.6 Q9.6 97.6 8.2 97.45 M26.25 71.8 L23.75 71.95 Q22.45 72.55 22.05 73.9 21.55 75.2 22.2 76.4 22.85 77.65 24.15 78.1 L26.65 77.95 Q27.9 77.3 28.35 76.0 28.8 74.7 28.2 73.45 27.6 72.2 26.25 71.8 M26.8 70.3 Q28.65 70.95 29.6 72.8 30.4 74.45 29.9 76.25 29.4 78.05 27.85 79.05 L39.05 99.75 52.75 80.65 Q51.6 79.65 51.3 78.0 50.85 76.15 52.0 74.35 52.7 73.3 53.9 72.65 56.45 71.45 58.8 72.95 60.5 74.2 60.85 76.05 61.3 78.05 60.15 79.75 59.45 80.8 58.25 81.45 L53.7 81.35 41.4 101.35 65.0 103.7 Q65.5 101.35 67.6 100.35 68.75 99.7 70.1 99.8 72.1 99.95 73.45 101.45 74.75 103.05 74.65 105.05 74.6 106.35 73.85 107.45 73.1 108.5 71.95 109.1 70.75 109.6 69.5 109.55 67.4 109.45 66.15 107.9 64.9 106.6 64.9 104.75 L41.2 104.1 51.0 125.8 Q52.75 125.15 54.5 125.85 56.3 126.55 57.1 128.2 58.0 130.0 57.35 131.95 56.7 133.9 54.85 134.75 53.05 135.65 51.2 135.0 49.25 134.35 48.3 132.55 47.5 130.9 48.0 129.1 48.55 127.25 50.05 126.25 L38.7 105.4 24.8 124.75 Q26.25 125.85 26.6 127.7 27.0 129.75 25.85 131.3 25.15 132.35 23.95 133.0 21.45 134.25 19.1 132.65 17.45 131.6 17.0 129.55 16.6 127.5 17.75 125.9 18.45 124.85 19.65 124.2 21.75 123.2 23.85 124.2 L36.35 103.8 12.8 101.45 Q12.55 103.65 10.9 104.75 L10.2 105.15 Q9.0 105.8 7.65 105.7 5.65 105.5 4.3 104.05 2.95 102.5 3.15 100.45 3.2 99.15 3.9 98.1 4.65 97.0 5.85 96.4 6.85 95.9 8.3 95.9 9.75 96.0 10.9 96.85 L11.4 97.3 Q12.7 98.6 12.9 100.4 L36.6 101.0 26.85 79.55 23.4 79.45 Q21.6 78.75 20.8 77.1 19.9 75.3 20.55 73.35 21.2 71.45 23.05 70.55 24.85 69.7 26.8 70.3" fill="#ffffff" fill-rule="evenodd" stroke="none"/>
    <path d="M372.2 221.4 Q373.55 220.5 375.2 220.35 376.85 220.25 378.3 220.95 380.6 222.05 381.45 224.4 382.3 226.8 381.25 229.15 380.45 230.65 379.1 231.45 377.5 232.6 375.65 232.6 L370.5 244.45 383.65 243.95 Q384.4 242.4 385.85 241.4 387.1 240.45 388.85 240.3 391.4 240.15 393.3 241.8 L394.35 242.95 394.55 244.45 Q395.15 245.4 395.3 246.55 L395.35 247.1 Q395.45 248.35 395.05 249.55 L394.95 248.9 394.85 249.1 Q394.1 250.6 392.75 251.55 391.5 252.35 390.15 252.5 L389.75 252.5 Q387.25 252.75 385.3 251.05 L384.05 249.5 371.0 251.0 378.05 262.15 Q379.75 261.95 381.35 262.7 382.9 263.35 383.85 264.8 385.3 266.9 384.8 269.35 384.4 271.9 382.3 273.35 381.1 274.1 379.7 274.3 377.95 274.55 376.3 273.85 374.8 273.15 373.8 271.75 372.8 270.3 372.75 268.55 372.65 266.8 373.45 265.3 L365.55 254.7 359.4 266.4 Q360.1 267.2 360.45 268.2 361.3 270.6 360.2 272.9 359.35 274.4 358.1 275.25 356.7 276.2 355.05 276.35 353.45 276.45 351.95 275.75 349.65 274.6 348.8 272.25 348.0 269.85 349.1 267.6 349.9 266.05 351.2 265.15 352.6 264.2 354.35 264.1 L359.7 251.85 346.6 252.35 Q345.95 254.1 344.35 255.15 343.0 256.1 341.35 256.25 338.8 256.4 336.95 254.75 334.95 253.1 334.8 250.55 334.65 248.95 335.4 247.45 336.1 246.0 337.5 245.05 338.8 244.1 340.45 244.0 342.15 243.9 343.65 244.65 345.1 245.4 346.1 246.8 L359.2 245.25 352.2 234.25 Q350.45 234.4 348.9 233.75 347.4 233.05 346.35 231.6 344.95 229.5 345.45 227.0 345.95 224.55 347.95 223.1 349.2 222.25 350.6 222.05 352.35 221.8 353.9 222.55 355.5 223.25 356.5 224.7 357.5 226.2 357.55 227.9 357.65 229.6 356.85 231.05 L364.6 241.6 370.65 230.0 Q370.1 229.15 369.9 228.5 369.05 226.15 370.1 223.8 370.85 222.35 372.2 221.4 M377.5 223.1 Q375.55 222.2 373.65 223.35 372.8 224.05 372.35 224.95 371.7 226.45 372.2 227.85 372.6 229.05 373.6 229.75 L365.05 246.05 354.1 231.2 Q355.2 230.25 355.4 228.75 355.6 227.3 354.75 226.15 353.85 224.8 352.35 224.5 350.8 224.25 349.5 225.1 348.15 226.0 347.85 227.55 347.55 229.15 348.45 230.45 349.2 231.6 350.7 232.0 352.1 232.35 353.4 231.7 L363.3 247.3 344.8 249.35 Q344.45 248.05 343.35 247.15 L342.9 246.85 Q341.9 246.3 340.8 246.4 339.65 246.55 338.9 247.05 338.05 247.65 337.55 248.6 337.15 249.45 337.25 250.45 337.3 252.1 338.5 253.15 339.7 254.15 341.3 254.1 342.35 254.0 343.25 253.35 L343.75 253.0 Q344.9 251.95 344.85 250.25 L363.4 249.45 355.9 266.7 Q354.15 266.15 352.65 267.15 351.75 267.75 351.35 268.7 350.6 270.0 351.2 271.55 351.75 273.1 353.1 273.75 355.15 274.75 356.95 273.5 357.8 272.9 358.2 271.95 358.95 270.65 358.45 269.15 357.95 267.7 356.7 267.05 L365.4 250.45 376.45 265.45 Q375.45 266.4 375.2 267.85 374.95 269.3 375.8 270.55 376.75 271.8 378.3 272.1 379.85 272.4 381.15 271.5 382.45 270.65 382.75 269.1 383.1 267.5 382.2 266.15 381.35 265.0 379.9 264.65 378.45 264.3 377.15 265.0 L367.2 249.2 385.7 247.15 Q385.9 248.6 387.0 249.45 388.15 250.5 389.75 250.4 L391.6 249.75 Q392.45 249.15 392.95 248.25 393.35 247.3 393.25 246.3 393.15 244.75 392.0 243.65 390.75 242.65 389.2 242.7 388.15 242.8 387.3 243.45 385.75 244.4 385.6 246.3 L367.05 247.05 374.45 230.2 Q376.4 230.9 377.95 229.75 L379.3 228.25 Q380.0 226.75 379.4 225.25 378.9 223.9 377.5 223.1 M378.3 225.75 Q378.6 226.75 378.2 227.75 L377.3 228.7 Q376.0 229.6 374.7 228.9 373.7 228.5 373.35 227.45 373.05 226.4 373.5 225.45 373.85 224.7 374.35 224.4 375.6 223.55 376.95 224.2 377.9 224.65 378.3 225.75 M389.25 243.9 Q390.35 243.9 391.2 244.5 392.0 245.25 392.05 246.35 392.2 247.85 390.95 248.75 390.35 249.2 389.7 249.15 388.65 249.2 387.75 248.5 386.9 247.9 386.85 246.75 386.75 245.2 388.0 244.4 388.55 244.0 389.25 243.9 M353.8 226.8 Q354.4 227.7 354.15 228.75 353.95 229.85 353.1 230.5 L351.15 230.85 Q350.1 230.65 349.4 229.75 348.8 228.9 349.05 227.8 349.2 226.75 350.2 226.15 351.0 225.55 352.05 225.7 353.15 225.85 353.8 226.8 M353.35 268.15 Q354.6 267.3 355.95 268.0 356.9 268.45 357.3 269.45 357.6 270.45 357.2 271.5 L356.25 272.5 Q355.0 273.4 353.65 272.75 352.7 272.2 352.3 271.2 351.9 270.2 352.45 269.2 352.75 268.5 353.35 268.15 M343.1 248.6 Q343.65 249.2 343.7 250.05 L343.5 251.35 342.55 252.4 341.25 252.85 Q340.1 252.95 339.35 252.2 338.5 251.5 338.45 250.45 338.35 248.95 339.6 248.1 340.15 247.6 340.85 247.65 341.95 247.55 342.75 248.25 L343.1 248.6 M376.4 267.85 Q376.6 266.85 377.55 266.2 378.4 265.65 379.45 265.8 380.55 266.05 381.15 266.85 381.8 267.8 381.55 268.85 381.4 269.95 380.45 270.5 379.55 271.1 378.5 270.9 377.45 270.75 376.85 269.9 376.25 268.95 376.4 267.85" fill="#94d0e7" fill-rule="evenodd" stroke="none"/>
    <path d="M376.4 267.85 Q376.25 268.95 376.85 269.9 377.45 270.75 378.5 270.9 379.55 271.1 380.45 270.5 381.4 269.95 381.55 268.85 381.8 267.8 381.15 266.85 380.55 266.05 379.45 265.8 378.4 265.65 377.55 266.2 376.6 266.85 376.4 267.85 M343.1 248.6 L342.75 248.25 Q341.95 247.55 340.85 247.65 340.15 247.6 339.6 248.1 338.35 248.95 338.45 250.45 338.5 251.5 339.35 252.2 340.1 252.95 341.25 252.85 L342.55 252.4 343.5 251.35 343.7 250.05 Q343.65 249.2 343.1 248.6 M353.35 268.15 Q352.75 268.5 352.45 269.2 351.9 270.2 352.3 271.2 352.7 272.2 353.65 272.75 355.0 273.4 356.25 272.5 L357.2 271.5 Q357.6 270.45 357.3 269.45 356.9 268.45 355.95 268.0 354.6 267.3 353.35 268.15 M353.8 226.8 Q353.15 225.85 352.05 225.7 351.0 225.55 350.2 226.15 349.2 226.75 349.05 227.8 348.8 228.9 349.4 229.75 350.1 230.65 351.15 230.85 L353.1 230.5 Q353.95 229.85 354.15 228.75 354.4 227.7 353.8 226.8 M389.25 243.9 Q388.55 244.0 388.0 244.4 386.75 245.2 386.85 246.75 386.9 247.9 387.75 248.5 388.65 249.2 389.7 249.15 390.35 249.2 390.95 248.75 392.2 247.85 392.05 246.35 392.0 245.25 391.2 244.5 390.35 243.9 389.25 243.9 M378.3 225.75 Q377.9 224.65 376.95 224.2 375.6 223.55 374.35 224.4 373.85 224.7 373.5 225.45 373.05 226.4 373.35 227.45 373.7 228.5 374.7 228.9 376.0 229.6 377.3 228.7 L378.2 227.75 Q378.6 226.75 378.3 225.75 M377.5 223.1 Q378.9 223.9 379.4 225.25 380.0 226.75 379.3 228.25 L377.95 229.75 Q376.4 230.9 374.45 230.2 L367.05 247.05 385.6 246.3 Q385.75 244.4 387.3 243.45 388.15 242.8 389.2 242.7 390.75 242.65 392.0 243.65 393.15 244.75 393.25 246.3 393.35 247.3 392.95 248.25 392.45 249.15 391.6 249.75 L389.75 250.4 Q388.15 250.5 387.0 249.45 385.9 248.6 385.7 247.15 L367.2 249.2 377.15 265.0 Q378.45 264.3 379.9 264.65 381.35 265.0 382.2 266.15 383.1 267.5 382.75 269.1 382.45 270.65 381.15 271.5 379.85 272.4 378.3 272.1 376.75 271.8 375.8 270.55 374.95 269.3 375.2 267.85 375.45 266.4 376.45 265.45 L365.4 250.45 356.7 267.05 Q357.95 267.7 358.45 269.15 358.95 270.65 358.2 271.95 357.8 272.9 356.95 273.5 355.15 274.75 353.1 273.75 351.75 273.1 351.2 271.55 350.6 270.0 351.35 268.7 351.75 267.75 352.65 267.15 354.15 266.15 355.9 266.7 L363.4 249.45 344.85 250.25 Q344.9 251.95 343.75 253.0 L343.25 253.35 Q342.35 254.0 341.3 254.1 339.7 254.15 338.5 253.15 337.3 252.1 337.25 250.45 337.15 249.45 337.55 248.6 338.05 247.65 338.9 247.05 339.65 246.55 340.8 246.4 341.9 246.3 342.9 246.85 L343.35 247.15 Q344.45 248.05 344.8 249.35 L363.3 247.3 353.4 231.7 Q352.1 232.35 350.7 232.0 349.2 231.6 348.45 230.45 347.55 229.15 347.85 227.55 348.15 226.0 349.5 225.1 350.8 224.25 352.35 224.5 353.85 224.8 354.75 226.15 355.6 227.3 355.4 228.75 355.2 230.25 354.1 231.2 L365.05 246.05 373.6 229.75 Q372.6 229.05 372.2 227.85 371.7 226.45 372.35 224.95 372.8 224.05 373.65 223.35 375.55 222.2 377.5 223.1" fill="#ffffff" fill-rule="evenodd" stroke="none"/>
  </g>
</svg>
