<?xml version="1.0" encoding="UTF-8" standalone="no"?>
<svg xmlns:ffdec="https://www.free-decompiler.com/flash" xmlns:xlink="http://www.w3.org/1999/xlink" ffdec:objectType="shape" height="3.0px" width="429.0px" xmlns="http://www.w3.org/2000/svg">
  <g transform="matrix(1.0, 0.0, 0.0, 1.0, -230.65, -387.1)">
    <path d="M658.15 388.6 L652.15 388.6 M334.15 388.6 L328.15 388.6 M346.15 388.6 L340.15 388.6 M358.15 388.6 L352.15 388.6 M382.15 388.6 L376.15 388.6 M394.15 388.6 L388.15 388.6 M370.15 388.6 L364.15 388.6 M418.15 388.6 L412.15 388.6 M430.15 388.6 L424.15 388.6 M442.15 388.6 L436.15 388.6 M454.15 388.6 L448.15 388.6 M466.15 388.6 L460.15 388.6 M478.15 388.6 L472.15 388.6 M406.15 388.6 L400.15 388.6 M502.15 388.6 L496.15 388.6 M514.15 388.6 L508.15 388.6 M526.15 388.6 L520.15 388.6 M538.15 388.6 L532.15 388.6 M550.15 388.6 L544.15 388.6 M562.15 388.6 L556.15 388.6 M574.15 388.6 L568.15 388.6 M586.15 388.6 L580.15 388.6 M598.15 388.6 L592.15 388.6 M622.15 388.6 L616.15 388.6 M634.15 388.6 L628.15 388.6 M646.15 388.6 L640.15 388.6 M610.15 388.6 L604.15 388.6 M490.15 388.6 L484.15 388.6 M238.15 388.6 L232.15 388.6 M250.15 388.6 L244.15 388.6 M262.15 388.6 L256.15 388.6 M274.15 388.6 L268.15 388.6 M298.15 388.6 L292.15 388.6 M310.15 388.6 L304.15 388.6 M322.15 388.6 L316.15 388.6 M286.15 388.6 L280.15 388.6" fill="none" stroke="#0588bc" stroke-linecap="round" stroke-linejoin="round" stroke-width="3.0"/>
  </g>
</svg>
