<?xml version="1.0" encoding="UTF-8" standalone="no"?>
<svg xmlns:ffdec="https://www.free-decompiler.com/flash" xmlns:xlink="http://www.w3.org/1999/xlink" ffdec:objectType="shape" height="292.9px" width="397.7px" xmlns="http://www.w3.org/2000/svg">
  <g transform="matrix(1.0, 0.0, 0.0, 1.0, 198.85, 146.45)">
    <path d="M-198.15 -111.25 Q-183.4 -111.25 -173.0 -121.7 -162.65 -132.0 -162.55 -146.45 L198.85 -146.45 198.85 146.45 -162.6 146.45 -162.55 145.8 Q-162.55 131.05 -173.0 120.65 -183.4 110.3 -198.15 110.3 L-198.85 110.3 -198.85 80.25 Q-194.15 80.15 -190.9 76.8 -187.6 73.4 -187.6 68.7 -187.6 64.0 -190.9 60.65 -194.15 57.3 -198.85 57.2 L-198.85 52.6 Q-194.15 52.45 -190.9 49.1 -187.6 45.75 -187.6 41.05 -187.6 36.35 -190.9 33.0 -194.15 29.65 -198.85 29.5 L-198.85 24.85 Q-194.15 24.7 -190.9 21.35 -187.6 18.0 -187.6 13.3 -187.6 8.6 -190.9 5.25 -194.15 1.9 -198.85 1.75 L-198.85 -2.9 Q-194.15 -3.0 -190.9 -6.35 -187.6 -9.7 -187.6 -14.35 -187.6 -19.05 -190.9 -22.45 -194.15 -25.8 -198.85 -25.9 L-198.85 -30.55 Q-194.15 -30.7 -190.9 -34.05 -187.6 -37.4 -187.6 -42.1 -187.6 -46.8 -190.9 -50.15 -194.15 -53.5 -198.85 -53.65 L-198.85 -58.3 Q-194.15 -58.45 -190.9 -61.8 -187.6 -65.15 -187.6 -69.85 -187.6 -74.5 -190.9 -77.85 -194.15 -81.2 -198.85 -81.3 L-198.85 -111.3 -198.15 -111.25" fill="#94d0e7" fill-rule="evenodd" stroke="none"/>
  </g>
</svg>
