<?xml version="1.0" encoding="UTF-8" standalone="no"?>
<svg xmlns:ffdec="https://www.free-decompiler.com/flash" xmlns:xlink="http://www.w3.org/1999/xlink" ffdec:objectType="shape" height="371.25px" width="516.25px" xmlns="http://www.w3.org/2000/svg">
  <g transform="matrix(1.0, 0.0, 0.0, 1.0, 0.0, 0.0)">
    <path d="M516.25 1.25 L516.25 10.25 478.2 10.25 477.65 10.1 Q472.55 8.9 465.95 9.0 452.8 9.2 444.85 15.5 433.75 24.2 433.75 44.75 433.75 69.65 419.1 83.9 409.3 93.4 394.25 97.0 386.1 98.95 379.7 98.75 L46.75 98.75 Q25.1 98.75 15.7 109.6 10.5 115.65 9.3 124.65 8.75 129.15 9.2 132.55 L9.25 133.25 9.25 371.25 0.25 366.35 0.25 133.5 Q-0.35 128.05 0.6 122.1 2.3 111.35 8.8 103.8 20.8 89.75 46.75 89.75 L379.85 89.75 383.25 89.6 391.55 88.35 Q404.7 85.35 412.9 77.4 424.75 65.8 424.75 44.75 424.75 19.85 439.3 8.4 448.85 0.9 463.5 0.1 471.95 -0.4 479.25 1.25 L516.25 1.25" fill="#0588bc" fill-rule="evenodd" stroke="none"/>
  </g>
</svg>
