<?xml version="1.0" encoding="UTF-8" standalone="no"?>
<svg xmlns:ffdec="https://www.free-decompiler.com/flash" xmlns:xlink="http://www.w3.org/1999/xlink" ffdec:objectType="shape" height="406.45px" width="406.45px" xmlns="http://www.w3.org/2000/svg">
  <g transform="matrix(1.0, 0.0, 0.0, 1.0, 203.2, 203.2)">
    <path d="M65.3 -0.4 Q65.3 -27.5 46.15 -46.65 27.0 -65.8 -0.1 -65.8 -27.2 -65.8 -46.35 -46.65 -65.5 -27.5 -65.5 -0.4 -65.5 26.7 -46.35 45.85 -27.2 65.0 -0.1 65.0 27.0 65.0 46.15 45.85 65.3 26.7 65.3 -0.4 M79.75 -0.4 Q79.75 32.7 56.35 56.05 33.0 79.45 -0.1 79.45 -33.2 79.45 -56.6 56.05 -79.95 32.7 -79.95 -0.4 -79.95 -33.5 -56.6 -56.9 -33.2 -80.25 -0.1 -80.25 33.0 -80.25 56.35 -56.9 79.75 -33.5 79.75 -0.4" fill="#f4f4f2" fill-rule="evenodd" stroke="none"/>
    <path d="M162.6 -121.85 Q186.3 -90.2 196.5 -51.75 206.6 -13.25 201.55 26.0 196.35 66.6 175.5 102.3 154.7 138.05 121.9 162.6 90.25 186.35 51.75 196.5 13.35 206.6 -25.95 201.6 -66.55 196.4 -102.3 175.55 -138.0 154.75 -162.6 121.95 -186.3 90.3 -196.4 51.8 -206.55 13.35 -201.5 -25.9 -196.3 -66.55 -175.5 -102.3 -154.7 -138.0 -121.9 -162.55 -90.25 -186.25 -51.8 -196.4 -13.3 -206.6 25.95 -201.55 66.6 -196.3 102.35 -175.45 138.05 -154.65 162.6 -121.85 M35.75 -61.3 Q23.25 -68.5 9.05 -70.35 -4.7 -72.1 -18.1 -68.55 -31.5 -64.95 -42.55 -56.75 -54.0 -48.15 -61.3 -35.65 -68.5 -23.2 -70.35 -8.95 -72.1 4.7 -68.55 18.15 -65.0 31.6 -56.8 42.65 -48.2 54.1 -35.7 61.35 -23.25 68.65 -9.0 70.4 4.65 72.15 18.1 68.6 46.55 61.1 61.3 35.75 68.6 23.3 70.4 9.1 72.15 -4.65 68.6 -18.05 65.1 -31.5 56.8 -42.55 48.25 -54.0 35.75 -61.3" fill="#f4f4f2" fill-rule="evenodd" stroke="none"/>
    <path d="M13.05 -198.25 L7.05 -198.5 M131.85 -148.7 L127.35 -152.6 M93.1 -176.1 L87.8 -178.85 M103.35 -170.15 L98.3 -173.2 M113.3 -163.55 L108.4 -166.95 M141.05 -139.9 L140.45 -140.5 136.2 -144.65 M149.5 -130.95 L145.45 -135.4 M157.25 -121.8 L153.45 -126.4 M122.75 -156.4 L118.05 -160.05 M48.6 -193.1 L42.75 -194.4 M60.15 -189.9 L54.4 -191.6 M71.4 -186.0 L65.8 -188.05 M25.0 -197.25 L19.0 -197.85 M36.85 -195.5 L31.0 -196.45 M82.45 -181.4 L76.95 -183.8 M170.95 -102.2 L167.75 -107.25 M176.9 -91.8 L174.0 -97.05 M182.1 -81.0 L179.6 -86.45 M186.6 -69.9 L184.45 -75.45 M190.4 -58.6 L188.6 -64.25 M195.75 -35.4 L194.65 -41.25 M197.35 -23.6 L196.65 -29.55 M198.3 -11.75 L197.9 -17.7 M198.55 0.55 L198.55 -0.25 198.5 -5.8 M193.4 -47.1 L192.0 -52.85 M164.4 -112.2 L160.9 -117.05 M198.2 12.55 L198.45 6.55 M197.2 24.5 L197.8 18.5 M195.5 36.3 L196.4 30.45 M193.1 48.05 L194.4 42.2 M189.9 59.6 L191.6 53.85 M186.05 70.9 L188.05 65.3 M181.45 81.95 L183.85 76.45 M176.1 92.65 L178.85 87.35 M163.45 112.95 L166.85 108.0 M170.1 102.95 L173.2 97.85 M23.85 196.85 L29.8 196.1 M11.9 197.8 L17.9 197.4 M70.45 185.95 L76.0 183.75 M59.05 189.75 L64.8 187.95 M47.45 192.8 L53.3 191.35 M35.7 195.2 L41.6 194.1 M156.2 122.5 L159.9 117.8 M148.45 131.6 L152.4 127.1 M140.15 140.3 L140.45 140.0 144.4 135.95 M131.5 148.45 L135.8 144.5 M112.75 163.4 L117.65 159.85 M102.75 170.0 L107.8 166.8 M92.35 176.0 L97.6 173.1 M81.55 181.35 L87.0 178.75 M122.4 156.15 L127.05 152.35 M0.25 198.05 L5.95 198.0 M-163.05 -113.3 L-166.45 -108.35 M-189.5 -59.75 L-191.2 -53.95 M-185.6 -71.1 L-187.65 -65.45 M-181.0 -82.25 L-183.4 -76.7 M-175.65 -92.95 L-178.4 -87.65 M-197.8 -12.3 L-198.05 -6.25 M-196.8 -24.4 L-197.4 -18.35 M-195.1 -36.35 L-196.0 -30.4 M-192.7 -48.1 L-194.0 -42.25 M-169.65 -103.3 L-172.75 -98.2 M-23.6 -197.3 L-29.5 -196.6 M-70.0 -186.45 L-75.55 -184.25 M-58.7 -190.25 L-64.35 -188.45 M-47.1 -193.3 L-52.95 -191.85 M-35.4 -195.7 L-41.25 -194.6 M-112.15 -164.05 L-117.0 -160.55 M-102.15 -170.7 L-107.2 -167.45 M-91.75 -176.65 L-97.0 -173.75 M-121.75 -156.9 L-126.4 -153.1 M-155.9 -122.8 L-159.55 -118.1 M-148.15 -131.9 L-152.1 -127.4 M-139.7 -140.8 L-140.0 -140.5 -144.1 -136.25 M-130.9 -149.15 L-135.25 -145.1 M-81.0 -181.85 L-86.4 -179.35 M-11.75 -198.25 L-17.7 -197.85 M-140.0 140.0 L-135.85 144.05 M-148.05 131.5 L-144.0 135.9 M-155.9 122.3 L-152.05 126.95 M-92.35 175.8 L-87.0 178.55 M-102.75 169.8 L-97.6 172.9 M-112.75 163.1 L-107.8 166.5 M-122.35 155.85 L-117.6 159.55 M-131.45 148.1 L-126.95 152.05 M-47.2 192.8 L-41.25 194.1 M-58.85 189.6 L-53.05 191.3 M-70.35 185.75 L-64.6 187.75 M-23.35 196.8 L-17.3 197.4 M-35.35 195.2 L-29.4 196.1 M-81.55 181.15 L-76.0 183.55 M-195.2 35.3 L-194.1 41.2 M-196.85 23.4 L-196.1 29.35 M-197.8 11.5 L-197.4 17.45 M-175.95 91.95 L-173.05 97.3 M-181.3 81.15 L-178.7 86.6 M-185.9 70.05 L-183.7 75.6 M-189.7 58.65 L-187.9 64.4 M-192.8 47.05 L-191.3 52.9 M-169.95 102.5 L-166.65 107.6 M-11.25 197.8 L-5.2 198.0 M-163.25 112.55 L-159.65 117.45 M-198.1 -0.25 L-198.05 5.55 M0.15 -198.6 L-5.8 -198.5" fill="none" stroke="#0588bc" stroke-linecap="round" stroke-linejoin="round" stroke-width="1.5"/>
  </g>
</svg>
