<?xml version="1.0" encoding="UTF-8" standalone="no"?>
<svg xmlns:ffdec="https://www.free-decompiler.com/flash" xmlns:xlink="http://www.w3.org/1999/xlink" ffdec:objectType="shape" height="301.45px" width="13.15px" xmlns="http://www.w3.org/2000/svg">
  <g transform="matrix(1.0, 0.0, 0.0, 1.0, 6.55, 150.7)">
    <path d="M4.7 -144.45 Q3.55 -143.2 0.85 -141.55 L-2.25 -139.3 Q-3.4 -138.15 -3.4 -136.7 -3.4 -135.25 -2.25 -134.05 -1.45 -133.25 0.85 -131.85 3.55 -130.2 4.7 -128.95 6.6 -126.9 6.6 -124.25 6.6 -121.65 4.7 -119.6 3.55 -118.35 0.85 -116.7 L-2.25 -114.45 Q-3.4 -113.3 -3.4 -111.85 -3.4 -110.4 -2.25 -109.2 L0.85 -106.95 Q3.5 -105.35 4.7 -104.1 6.6 -102.05 6.6 -99.4 6.6 -96.75 4.7 -94.7 L0.85 -91.85 -2.25 -89.6 Q-3.4 -88.45 -3.4 -87.0 -3.4 -85.55 -2.25 -84.35 L0.85 -82.1 Q3.5 -80.5 4.7 -79.25 6.6 -77.2 6.6 -74.55 6.6 -71.9 4.7 -69.85 L0.85 -67.0 -2.25 -64.75 Q-3.4 -63.6 -3.4 -62.15 -3.4 -60.7 -2.25 -59.5 L0.85 -57.25 Q3.5 -55.65 4.7 -54.4 6.6 -52.35 6.6 -49.7 6.6 -47.1 4.7 -45.05 3.55 -43.8 0.85 -42.15 L-2.25 -39.9 Q-3.4 -38.75 -3.4 -37.3 -3.4 -35.85 -2.25 -34.65 -1.45 -33.85 0.85 -32.45 3.55 -30.8 4.7 -29.55 6.6 -27.5 6.6 -24.85 6.6 -22.25 4.7 -20.2 3.55 -18.95 0.85 -17.3 L-2.25 -15.05 Q-3.4 -13.9 -3.4 -12.45 -3.4 -11.0 -2.25 -9.8 L0.85 -7.55 Q3.5 -5.95 4.7 -4.7 6.6 -2.65 6.6 0.0 6.6 2.65 4.7 4.7 L0.85 7.55 -2.25 9.8 Q-3.4 10.95 -3.4 12.4 -3.4 13.85 -2.25 15.05 L0.85 17.3 Q3.5 18.9 4.7 20.15 6.6 22.2 6.6 24.85 6.6 27.5 4.7 29.55 L0.85 32.4 -2.25 34.65 Q-3.4 35.8 -3.4 37.25 -3.4 38.7 -2.25 39.9 L0.85 42.15 Q3.6 43.85 4.7 45.05 6.6 47.05 6.6 49.7 6.6 52.35 4.7 54.4 L0.85 57.25 -2.25 59.5 Q-3.4 60.7 -3.4 62.15 -3.4 63.6 -2.25 64.75 L0.85 67.0 Q3.6 68.7 4.7 69.9 6.6 71.9 6.6 74.55 6.6 77.2 4.7 79.25 L0.85 82.1 -2.25 84.35 Q-3.4 85.55 -3.4 87.0 -3.4 88.45 -2.25 89.6 L0.85 91.85 Q3.6 93.55 4.7 94.75 6.6 96.75 6.6 99.4 6.6 102.05 4.7 104.1 L0.85 106.95 -2.25 109.2 Q-3.4 110.4 -3.4 111.85 -3.4 113.3 -2.25 114.45 L0.85 116.7 Q3.55 118.35 4.7 119.6 6.6 121.65 6.6 124.25 6.6 126.9 4.7 128.95 3.55 130.2 0.85 131.85 L-2.25 134.1 Q-3.4 135.25 -3.4 136.7 -3.4 138.15 -2.25 139.35 L0.85 141.6 Q3.5 143.2 4.7 144.45 6.6 146.5 6.6 149.15 L6.15 150.25 Q5.7 150.75 5.05 150.75 4.4 150.75 3.9 150.25 3.45 149.8 3.45 149.15 3.45 147.65 2.3 146.5 1.5 145.7 -0.8 144.25 -3.5 142.6 -4.65 141.4 -6.55 139.35 -6.55 136.7 -6.55 134.05 -4.65 132.05 -3.55 130.85 -0.8 129.15 L2.3 126.9 Q3.45 125.75 3.45 124.25 3.45 122.8 2.3 121.65 1.5 120.85 -0.8 119.4 -3.55 117.7 -4.65 116.55 -6.55 114.5 -6.55 111.85 -6.55 109.2 -4.65 107.15 -3.5 105.95 -0.8 104.3 L2.3 102.05 Q3.45 100.9 3.45 99.4 3.45 97.95 2.3 96.8 1.5 96.0 -0.8 94.55 L-4.65 91.65 Q-6.55 89.6 -6.55 87.0 -6.55 84.35 -4.65 82.3 -3.5 81.1 -0.8 79.4 1.5 78.05 2.3 77.15 3.45 76.0 3.45 74.55 3.45 73.1 2.3 71.95 1.5 71.15 -0.8 69.7 L-4.65 66.8 Q-6.55 64.75 -6.55 62.15 -6.55 59.5 -4.65 57.45 -3.5 56.25 -0.8 54.55 1.5 53.2 2.3 52.3 3.45 51.15 3.45 49.7 3.45 48.25 2.3 47.1 1.5 46.25 -0.8 44.85 L-4.65 41.95 Q-6.55 39.9 -6.55 37.25 -6.55 34.65 -4.65 32.6 -3.5 31.4 -0.8 29.7 L2.3 27.45 Q3.45 26.3 3.45 24.85 3.45 23.35 2.3 22.2 L-0.8 20.0 -4.65 17.1 Q-6.55 15.05 -6.55 12.4 -6.55 9.8 -4.65 7.75 -3.5 6.55 -0.8 4.85 L2.3 2.6 Q3.45 1.45 3.45 0.0 3.45 -1.5 2.3 -2.65 L-0.8 -4.9 Q-3.5 -6.55 -4.65 -7.75 -6.55 -9.8 -6.55 -12.45 -6.55 -15.1 -4.65 -17.1 L-0.8 -20.0 Q1.5 -21.45 2.3 -22.25 3.45 -23.4 3.45 -24.85 3.45 -26.35 2.3 -27.5 L-0.8 -29.75 Q-3.5 -31.4 -4.65 -32.6 -6.55 -34.65 -6.55 -37.3 -6.55 -39.95 -4.65 -41.95 L-0.8 -44.85 Q1.5 -46.3 2.3 -47.1 3.45 -48.25 3.45 -49.7 3.45 -51.2 2.3 -52.35 L-0.8 -54.6 Q-3.5 -56.25 -4.65 -57.45 -6.55 -59.5 -6.55 -62.15 -6.55 -64.8 -4.65 -66.8 L-0.8 -69.7 Q1.5 -71.15 2.3 -71.95 3.45 -73.1 3.45 -74.55 3.45 -76.05 2.3 -77.2 L-0.8 -79.45 Q-3.5 -81.1 -4.65 -82.3 -6.55 -84.35 -6.55 -87.0 -6.55 -89.6 -4.65 -91.65 L-0.8 -94.55 Q1.5 -96.0 2.3 -96.8 3.45 -97.95 3.45 -99.4 3.45 -100.9 2.3 -102.05 L-0.8 -104.3 Q-3.5 -105.95 -4.65 -107.15 -6.55 -109.2 -6.55 -111.85 -6.55 -114.5 -4.65 -116.5 L-0.8 -119.4 Q1.5 -120.85 2.3 -121.65 3.45 -122.8 3.45 -124.25 3.45 -125.75 2.3 -126.9 L-0.8 -129.15 Q-3.5 -130.8 -4.65 -132.0 -6.55 -134.05 -6.55 -136.7 -6.55 -139.35 -4.65 -141.35 L-0.8 -144.25 Q1.5 -145.7 2.3 -146.5 3.45 -147.65 3.45 -149.1 3.45 -149.75 3.9 -150.25 4.4 -150.7 5.05 -150.7 5.7 -150.7 6.15 -150.25 6.6 -149.75 6.6 -149.1 6.6 -146.5 4.7 -144.45" fill="#94d0e7" fill-rule="evenodd" stroke="none"/>
  </g>
</svg>
