<?xml version="1.0" encoding="UTF-8" standalone="no"?>
<svg xmlns:ffdec="https://www.free-decompiler.com/flash" xmlns:xlink="http://www.w3.org/1999/xlink" ffdec:objectType="shape" height="347.55px" width="432.05px" xmlns="http://www.w3.org/2000/svg">
  <g transform="matrix(1.0, 0.0, 0.0, 1.0, 212.2, 316.35)">
    <path d="M149.85 -301.35 L149.85 -299.85 163.85 -299.85 163.85 -301.35 204.85 -301.35 204.85 -299.35 209.85 -299.85 209.85 -230.35 211.35 -228.85 211.35 -221.35 213.35 -221.35 213.35 -175.85 211.35 -175.85 211.35 -169.85 217.85 -169.85 217.85 -51.3 219.85 -51.3 219.85 -36.3 217.85 -36.3 217.85 18.2 213.35 18.2 213.35 22.7 205.85 22.7 205.85 18.2 95.85 18.2 95.85 22.7 88.35 22.7 88.35 18.2 30.85 18.2 30.85 31.2 26.85 31.2 26.85 28.7 -13.15 28.7 -13.15 31.2 -17.15 31.2 -17.15 18.2 -144.2 18.2 -144.2 10.2 -194.2 10.2 -194.2 15.2 -201.7 15.2 -201.7 10.2 -203.7 10.2 -210.2 3.7 -210.2 -163.35 -212.2 -163.35 -212.2 -170.85 -210.2 -170.85 -210.2 -300.35 -75.65 -300.35 -75.65 -316.35 -60.65 -316.35 -60.65 -301.35 -30.65 -301.35 -30.65 -299.35 -28.15 -299.35 -28.15 -302.35 -20.65 -302.35 -20.65 -299.35 -13.15 -299.35 -13.15 -300.35 26.85 -300.35 26.85 -299.35 Q65.35 -299.35 103.85 -299.85 L103.85 -301.35 149.85 -301.35" fill="#424242" fill-rule="evenodd" stroke="none"/>
    <path d="M-13.15 -8.8 L-13.15 -10.3 2.85 -11.3 17.35 -10.3 17.35 -8.8 23.35 -8.8 23.35 -10.3 36.35 -10.3 36.35 -8.8 42.35 -8.8 42.35 8.2 20.85 8.2 20.85 9.7 18.85 9.7 18.85 10.2 -5.15 10.2 -5.15 9.7 -6.65 9.7 -6.65 8.2 -22.65 8.2 -22.65 6.2 -24.15 6.2 -24.15 -6.3 -22.65 -6.3 -22.65 -8.8 -13.15 -8.8" fill="#939393" fill-rule="evenodd" stroke="none"/>
    <path d="M18.85 12.7 L-5.15 12.7 -5.15 10.2 18.85 10.2 18.85 12.7" fill="#ffffff" fill-rule="evenodd" stroke="none"/>
    <path d="M40.85 7.7 L34.35 7.7 34.35 -0.8 40.85 -0.8 40.85 7.7" fill="#6f6f6f" fill-rule="evenodd" stroke="none"/>
    <path d="M17.35 -84.8 L17.35 -10.3 -13.15 -10.3 -13.15 -84.8 17.35 -84.8" fill="#ffffff" fill-rule="evenodd" stroke="none"/>
    <path d="M17.55 -84.95 L17.55 -10.45 -12.95 -10.45 -12.95 -84.95 17.55 -84.95" fill="#ffffff" fill-rule="evenodd" stroke="none"/>
    <path d="M-12.45 -84.95 L-12.45 -21.45 18.05 -21.45 18.05 -84.95 -12.45 -84.95 M-46.45 -84.45 L-46.45 -86.45 -48.95 -86.45 -48.95 -84.45 -46.45 -84.45 M-71.95 -124.95 L-75.95 -124.95 -75.95 -121.45 -94.95 -121.45 -94.95 -119.45 -75.95 -119.45 -75.95 -110.45 -71.95 -110.45 -71.95 -124.95 M17.05 -162.45 L17.05 -161.45 36.55 -161.45 36.55 -95.45 38.05 -95.45 38.05 -82.45 36.55 -82.45 36.55 -59.95 38.05 -59.95 38.05 -46.95 36.55 -46.95 36.55 7.05 23.55 7.05 23.55 9.55 -9.45 9.55 -9.45 7.05 -36.45 7.05 -36.45 9.55 -69.45 9.55 -69.45 7.05 -71.95 7.05 -71.95 -95.45 -75.95 -95.45 -75.95 -57.95 -134.95 -57.95 -134.95 -62.45 -136.45 -62.45 -136.45 -94.45 -135.45 -94.45 Q-134.95 -106.95 -134.95 -119.45 L-108.95 -119.45 -108.95 -121.45 -134.95 -121.45 -134.95 -122.45 -136.45 -122.45 -136.45 -154.95 -134.95 -154.95 -134.95 -158.95 -75.95 -158.95 -75.95 -138.45 -71.95 -138.45 -71.95 -161.45 -64.45 -161.45 -64.45 -162.45 -42.95 -162.45 -42.95 -161.45 -4.95 -161.45 -4.95 -162.45 17.05 -162.45" fill="#939393" fill-rule="evenodd" stroke="none"/>
    <path d="M25.05 -106.45 Q16.05 -106.45 7.05 -106.95 L7.05 -107.95 1.55 -107.95 1.55 -113.95 7.05 -113.95 7.05 -116.45 Q16.05 -115.95 25.05 -115.95 L25.05 -106.45" fill="#6f6f6f" fill-rule="evenodd" stroke="none"/>
    <path d="M25.05 -140.95 L25.05 -130.95 7.05 -130.95 7.05 -140.95 25.05 -140.95" fill="#6f6f6f" fill-rule="evenodd" stroke="none"/>
    <path d="M0.05 -140.95 L0.05 -131.45 -17.95 -131.45 -17.95 -140.95 0.05 -140.95" fill="#6f6f6f" fill-rule="evenodd" stroke="none"/>
    <path d="M-25.45 -131.95 L-43.95 -131.95 -43.95 -141.45 -25.45 -141.45 -25.45 -138.95 Q-22.95 -139.45 -20.95 -140.45 L-18.95 -133.95 -25.45 -131.95" fill="#6f6f6f" fill-rule="evenodd" stroke="none"/>
    <path d="M-2.45 -116.95 L-2.45 -107.45 -20.45 -107.45 -20.45 -111.45 -24.45 -111.45 -24.45 -117.45 -18.45 -117.45 -18.45 -116.95 -2.45 -116.95" fill="#6f6f6f" fill-rule="evenodd" stroke="none"/>
    <path d="M-37.95 -159.95 L-37.95 -153.95 -51.45 -153.95 -51.45 -159.95 -37.95 -159.95" fill="#6f6f6f" fill-rule="evenodd" stroke="none"/>
    <path d="M-21.95 -160.45 L-21.95 -154.45 -35.45 -154.45 -35.45 -160.45 -21.95 -160.45" fill="#6f6f6f" fill-rule="evenodd" stroke="none"/>
    <path d="M-52.45 -160.45 L-52.45 -154.45 -65.95 -154.45 -65.95 -160.45 -52.45 -160.45" fill="#6f6f6f" fill-rule="evenodd" stroke="none"/>
    <path d="M-5.95 -160.45 L-5.95 -154.95 -19.45 -154.95 -19.45 -160.45 -5.95 -160.45" fill="#6f6f6f" fill-rule="evenodd" stroke="none"/>
    <path d="M23.55 -160.45 L23.55 -154.45 10.05 -154.45 10.05 -160.45 23.55 -160.45" fill="#6f6f6f" fill-rule="evenodd" stroke="none"/>
    <path d="M36.55 -154.45 L36.55 -137.45 34.05 -137.45 34.05 -154.45 36.55 -154.45" fill="#6f6f6f" fill-rule="evenodd" stroke="none"/>
    <path d="M34.05 -118.45 L34.05 -135.45 36.55 -135.45 36.55 -118.45 34.05 -118.45" fill="#6f6f6f" fill-rule="evenodd" stroke="none"/>
    <path d="M32.05 -63.95 L32.05 -78.45 36.05 -78.45 36.05 -63.95 32.05 -63.95" fill="#6f6f6f" fill-rule="evenodd" stroke="none"/>
    <path d="M8.55 -160.45 L8.55 -154.45 -4.95 -154.45 -4.95 -160.45 8.55 -160.45" fill="#6f6f6f" fill-rule="evenodd" stroke="none"/>
    <path d="M35.05 -34.95 L35.05 -28.95 29.55 -28.95 29.55 -34.95 35.05 -34.95" fill="#6f6f6f" fill-rule="evenodd" stroke="none"/>
    <path d="M28.55 -21.45 L28.55 -27.45 35.55 -27.45 35.55 6.05 22.05 6.05 22.05 -21.45 28.55 -21.45" fill="#6f6f6f" fill-rule="evenodd" stroke="none"/>
    <path d="M37.05 -1.45 L41.05 -1.45 41.05 7.55 37.05 7.55 37.05 -1.45" fill="#6f6f6f" fill-rule="evenodd" stroke="none"/>
    <path d="M-25.95 7.05 L-25.95 0.55 -12.45 0.55 -12.45 7.05 -25.95 7.05" fill="#6f6f6f" fill-rule="evenodd" stroke="none"/>
    <path d="M-42.45 6.05 L-42.45 -0.95 -29.95 -0.95 -29.95 6.05 -42.45 6.05" fill="#6f6f6f" fill-rule="evenodd" stroke="none"/>
    <path d="M-58.95 5.55 L-58.95 -0.95 -46.45 -0.95 -46.45 5.55 -58.95 5.55" fill="#6f6f6f" fill-rule="evenodd" stroke="none"/>
    <path d="M-16.45 -78.95 L-16.45 -63.45 -20.45 -63.45 -20.45 -78.95 -16.45 -78.95" fill="#6f6f6f" fill-rule="evenodd" stroke="none"/>
    <path d="M-15.95 -57.95 L-15.95 -41.95 -19.95 -41.95 -19.95 -57.95 -15.95 -57.95" fill="#6f6f6f" fill-rule="evenodd" stroke="none"/>
    <path d="M-15.45 -37.45 L-15.45 -22.95 -19.45 -22.95 -19.45 -37.45 -15.45 -37.45" fill="#6f6f6f" fill-rule="evenodd" stroke="none"/>
    <path d="M-37.95 -15.95 L-37.95 -29.95 -27.95 -29.95 -27.95 -15.95 -37.95 -15.95" fill="#6f6f6f" fill-rule="evenodd" stroke="none"/>
    <path d="M-36.95 -38.45 L-36.95 -52.45 -27.45 -52.45 -27.45 -38.45 -36.95 -38.45" fill="#6f6f6f" fill-rule="evenodd" stroke="none"/>
    <path d="M-27.45 -59.95 L-37.45 -59.95 -37.45 -74.45 -27.45 -74.45 -27.45 -59.95" fill="#6f6f6f" fill-rule="evenodd" stroke="none"/>
    <path d="M-47.95 -71.45 L-47.95 -56.45 -52.95 -56.45 -52.95 -71.45 -47.95 -71.45" fill="#6f6f6f" fill-rule="evenodd" stroke="none"/>
    <path d="M-52.95 -28.95 L-52.95 -43.95 -47.95 -43.95 -47.95 -28.95 -52.95 -28.95" fill="#6f6f6f" fill-rule="evenodd" stroke="none"/>
    <path d="M-71.45 -38.45 L-71.45 -59.95 -62.45 -59.95 -62.45 -38.45 -71.45 -38.45" fill="#6f6f6f" fill-rule="evenodd" stroke="none"/>
    <path d="M-71.45 -22.95 L-71.45 -35.95 -64.95 -35.95 -64.95 -22.95 -71.45 -22.95" fill="#6f6f6f" fill-rule="evenodd" stroke="none"/>
    <path d="M-70.95 -8.45 L-70.95 -21.95 -64.95 -21.95 -64.95 -8.45 -70.95 -8.45" fill="#6f6f6f" fill-rule="evenodd" stroke="none"/>
    <path d="M-71.45 -7.45 L-64.95 -7.45 -64.95 6.05 -71.45 6.05 -71.45 -7.45" fill="#6f6f6f" fill-rule="evenodd" stroke="none"/>
    <path d="M-48.95 -83.95 L-48.95 -86.45 -46.45 -86.45 -46.45 -83.95 -48.95 -83.95" fill="#6f6f6f" fill-rule="evenodd" stroke="none"/>
    <path d="M-14.45 -83.95 L-15.45 -83.95 -15.45 -86.45 -12.45 -86.45 -12.45 -22.95 17.55 -22.95 17.55 -84.95 18.05 -84.95 18.05 -86.45 20.55 -86.45 20.55 -83.95 19.55 -83.95 19.55 -19.95 -14.45 -19.95 -14.45 -83.95" fill="#6f6f6f" fill-rule="evenodd" stroke="none"/>
    <path d="M32.05 -101.95 L32.05 -116.95 36.55 -116.95 36.55 -101.95 32.05 -101.95" fill="#6f6f6f" fill-rule="evenodd" stroke="none"/>
    <path d="M-56.45 -142.45 L-62.45 -145.45 Q-60.95 -148.45 -59.95 -151.45 L-53.95 -148.45 Q-54.95 -145.45 -56.45 -142.45" fill="#6f6f6f" fill-rule="evenodd" stroke="none"/>
    <path d="M-69.95 -139.95 L-69.95 -142.95 -71.45 -142.95 -71.45 -148.95 -70.45 -148.95 Q-70.45 -150.95 -70.95 -152.95 L-64.45 -153.45 -63.45 -140.45 -69.95 -139.95" fill="#6f6f6f" fill-rule="evenodd" stroke="none"/>
    <path d="M-63.95 -117.95 L-63.95 -110.95 -69.95 -110.95 -69.95 -118.95 -68.95 -118.95 -68.95 -123.45 -62.95 -123.45 -62.95 -117.95 -63.95 -117.95" fill="#6f6f6f" fill-rule="evenodd" stroke="none"/>
    <path d="M-76.45 -112.45 L-92.95 -112.45 -92.95 -117.95 -82.45 -117.95 -82.45 -117.45 -76.45 -117.45 -76.45 -112.45" fill="#6f6f6f" fill-rule="evenodd" stroke="none"/>
    <path d="M-106.95 -149.45 L-106.95 -143.95 -133.95 -143.95 -133.95 -157.45 -99.95 -157.45 -99.95 -151.45 -106.45 -151.45 -106.45 -149.45 -106.95 -149.45" fill="#6f6f6f" fill-rule="evenodd" stroke="none"/>
    <path d="M-92.95 -157.45 L-92.95 -151.45 -98.95 -151.45 -98.95 -157.45 -92.95 -157.45" fill="#6f6f6f" fill-rule="evenodd" stroke="none"/>
    <path d="M-133.95 -127.45 L-127.45 -128.45 -126.45 -121.95 -132.95 -121.45 -133.95 -127.45" fill="#6f6f6f" fill-rule="evenodd" stroke="none"/>
    <path d="M-122.45 -113.45 L-126.95 -113.45 -126.95 -117.95 -122.45 -117.95 -122.45 -113.45" fill="#6f6f6f" fill-rule="evenodd" stroke="none"/>
    <path d="M-133.45 -98.95 Q-133.45 -101.45 -133.95 -103.95 L-130.95 -103.95 -130.95 -98.95 -133.45 -98.95" fill="#6f6f6f" fill-rule="evenodd" stroke="none"/>
    <path d="M-111.45 -116.45 Q-119.45 -107.95 -127.45 -99.95 L-129.45 -101.45 -113.45 -118.45 -111.45 -116.45" fill="#6f6f6f" fill-rule="evenodd" stroke="none"/>
    <path d="M-134.45 -113.45 Q-133.95 -113.45 -133.95 -113.95 L-134.45 -113.95 -134.45 -118.45 -129.95 -118.45 -129.95 -116.95 Q-128.95 -116.45 -127.95 -116.45 L-129.95 -111.95 Q-131.95 -112.45 -134.45 -113.45" fill="#6f6f6f" fill-rule="evenodd" stroke="none"/>
    <path d="M-129.45 -110.95 Q-128.95 -108.95 -128.95 -107.45 L-133.45 -106.95 Q-133.45 -108.45 -133.95 -110.45 L-129.45 -110.95" fill="#6f6f6f" fill-rule="evenodd" stroke="none"/>
    <path d="M-82.95 -82.95 L-75.95 -82.95 -75.95 -65.95 -82.95 -65.95 -82.95 -82.95" fill="#6f6f6f" fill-rule="evenodd" stroke="none"/>
    <path d="M-83.45 -64.95 L-83.45 -59.95 -79.45 -59.95 -79.45 -57.95 -95.95 -57.95 -95.95 -59.95 -117.95 -59.95 -117.95 -71.45 -88.45 -71.45 -88.45 -64.95 -83.45 -64.95" fill="#6f6f6f" fill-rule="evenodd" stroke="none"/>
    <path d="M-119.45 -70.95 Q-123.45 -69.95 -127.95 -69.45 -127.95 -66.95 -128.45 -64.45 L-127.45 -64.45 -127.45 -57.95 -133.95 -57.95 Q-133.95 -64.95 -134.45 -71.95 L-128.45 -71.95 Q-130.45 -84.45 -132.95 -97.45 L-123.95 -98.95 Q-121.45 -84.95 -119.45 -70.95" fill="#6f6f6f" fill-rule="evenodd" stroke="none"/>
    <path d="M-126.45 -61.45 Q-125.45 -64.45 -124.95 -67.95 -121.95 -66.95 -118.95 -66.45 -119.45 -63.45 -120.45 -60.45 L-126.45 -61.45" fill="#6f6f6f" fill-rule="evenodd" stroke="none"/>
    <path d="M-71.45 -74.95 L-71.45 -81.45 -64.95 -81.45 -64.95 -74.95 -71.45 -74.95" fill="#6f6f6f" fill-rule="evenodd" stroke="none"/>
    <path d="M-64.45 -73.45 L-65.45 -67.45 -71.95 -68.45 -70.95 -74.45 -64.45 -73.45" fill="#6f6f6f" fill-rule="evenodd" stroke="none"/>
  </g>
</svg>
