<?xml version="1.0" encoding="UTF-8" standalone="no"?>
<svg xmlns:ffdec="https://www.free-decompiler.com/flash" xmlns:xlink="http://www.w3.org/1999/xlink" ffdec:objectType="shape" height="406.3px" width="377.65px" xmlns="http://www.w3.org/2000/svg">
  <g transform="matrix(1.0, 0.0, 0.0, 1.0, 185.15, 200.95)">
    <path d="M-54.35 68.1 L-38.45 81.95 -36.25 83.55 -34.0 84.0 10.2 84.0 10.6 83.65 11.1 83.0 11.25 81.75 11.25 71.8 12.15 68.65 14.25 66.4 38.85 53.7 21.95 21.45 -15.2 21.5 -54.35 68.1 M-73.1 51.8 L-57.75 65.15 -21.1 21.5 -74.5 21.55 -74.5 46.45 -74.05 49.95 -73.1 51.8 M-74.5 1.75 L-74.5 16.05 60.05 15.95 60.05 21.45 27.05 21.45 42.85 51.65 67.05 39.25 69.3 43.7 45.2 56.1 48.7 62.8 63.2 66.9 62.7 68.85 49.9 65.2 56.55 77.5 52.65 79.75 45.7 67.2 42.2 80.05 40.3 79.5 44.25 64.75 41.15 58.15 17.3 70.45 16.6 71.2 16.25 72.45 16.25 82.1 15.85 85.05 14.15 87.2 11.95 89.0 -5.0 89.0 -5.0 94.25 6.1 105.3 4.65 106.7 -5.0 97.1 -5.0 111.15 -9.5 111.15 -9.5 97.0 -18.65 106.2 -20.05 104.8 -9.5 94.2 -9.5 89.0 -34.45 89.0 -38.2 88.3 -41.6 85.9 -41.65 85.8 -57.35 72.15 -62.2 78.05 -60.8 93.65 -62.8 93.8 -64.0 80.25 -73.05 91.0 -76.5 88.1 -67.4 77.3 -80.35 78.45 -80.5 76.45 -65.75 75.15 -66.0 75.0 -60.95 69.0 -77.05 54.95 -78.9 51.5 -79.5 46.8 -79.5 28.45 -85.5 28.45 -96.6 39.5 -98.0 38.1 -88.35 28.45 -102.4 28.45 -102.4 23.95 -88.3 23.95 -97.45 14.75 -96.05 13.35 -85.45 23.95 -79.5 23.95 -79.5 1.75 -74.5 1.75" fill="#363636" fill-rule="evenodd" stroke="none"/>
    <path d="M8.45 -48.5 L8.45 -89.15 -13.55 -89.15 -48.7 -48.5 8.45 -48.5 M13.95 -89.15 L13.95 -78.15 54.8 -78.15 38.9 -89.15 13.95 -89.15 M8.7 -102.6 L8.7 -116.7 13.2 -116.7 13.2 -102.55 22.35 -111.75 23.8 -110.3 13.2 -99.7 13.2 -94.65 40.65 -94.65 59.6 -81.45 62.4 -85.45 59.7 -100.85 61.65 -101.2 64.0 -87.75 72.1 -99.3 75.8 -96.7 67.65 -85.15 80.45 -87.4 80.8 -85.4 66.05 -82.8 62.75 -78.15 72.15 -78.15 72.15 -55.9 67.65 -55.9 67.65 -73.65 59.6 -73.65 53.7 -65.2 50.0 -67.75 54.15 -73.65 13.95 -73.65 13.95 -43.0 -54.35 -43.0 -54.35 -50.4 -34.55 -73.3 -38.4 -76.55 -54.0 -75.2 -54.15 -77.2 -40.6 -78.4 -51.35 -87.45 -48.45 -90.9 -37.65 -81.8 -38.75 -94.75 -36.8 -94.9 -35.45 -80.0 -31.6 -76.7 -16.1 -94.65 8.7 -94.65 8.7 -99.8 -2.35 -110.85 -0.95 -112.25 8.7 -102.6" fill="#363636" fill-rule="evenodd" stroke="none"/>
    <path d="M135.85 -109.85 L131.05 -122.45 75.25 -168.25 63.1 -172.55 -38.7 -168.6 -51.5 -161.95 -115.6 -100.0 -123.9 -88.4 -152.55 -10.45 -153.75 4.6 -153.8 4.6 -149.15 98.65 -144.05 108.75 -45.5 171.3 -31.65 173.05 49.1 160.85 63.35 153.3 110.15 104.3 113.9 92.5 106.75 44.3 109.6 -1.15 109.6 -10.4 118.6 -10.4 118.6 -0.7 115.8 43.95 124.45 102.35 61.7 168.05 -42.55 183.8 -157.55 110.9 -163.35 -7.05 -129.65 -98.95 -48.7 -177.2 72.7 -181.95 148.9 -119.45 119.6 -38.7 119.6 -35.65 110.6 -35.65 110.6 -40.3 135.85 -109.85" fill="#272727" fill-rule="evenodd" stroke="none"/>
    <path d="M115.0 -102.55 L116.25 -106.05 116.15 -111.2 114.45 -115.4 112.25 -118.6 105.25 -124.1 70.3 -146.15 65.4 -148.9 56.95 -152.2 51.05 -153.35 37.35 -153.8 -25.4 -152.05 -33.75 -150.8 -38.3 -149.55 -41.7 -147.7 -47.15 -143.5 -104.65 -83.95 -107.0 -79.95 -133.85 -3.55 -135.3 3.5 -135.85 10.55 -131.25 91.3 -130.55 93.9 -129.35 96.3 -126.9 99.45 -123.2 102.3 -86.3 126.8 -48.0 149.3 -42.35 151.35 -31.1 151.85 -23.65 150.7 -23.55 150.7 20.7 145.65 37.1 141.4 45.7 138.05 51.9 134.4 59.05 128.75 74.8 113.75 90.95 100.5 92.75 96.95 94.85 91.15 94.8 86.85 88.85 62.25 88.2 56.0 91.15 35.6 92.5 30.55 92.5 -20.75 -37.05 -20.6 -37.05 -30.6 92.5 -30.75 92.5 -62.3 94.1 -69.35 96.0 -74.9 98.9 -79.65 115.0 -102.55 M95.15 -182.65 L85.2 -188.1 75.7 -191.55 59.05 -192.45 -45.75 -187.55 -58.05 -184.05 -67.35 -178.05 -138.6 -105.15 -147.7 -89.95 -176.6 -4.95 -170.05 117.2 -165.05 125.6 -154.45 133.45 -57.75 191.8 -46.8 194.8 -36.4 196.7 67.9 178.6 102.45 151.75 126.6 126.3 145.65 96.25 156.4 64.9 157.55 54.0 156.0 54.0 152.0 41.1 152.0 -20.8 102.0 -20.75 102.0 31.85 100.4 37.65 97.75 56.05 98.25 60.65 104.3 85.6 104.35 88.6 111.9 91.25 107.95 102.6 101.65 100.4 101.5 100.75 98.5 106.55 81.1 120.9 65.3 135.9 57.25 142.25 56.0 143.0 60.75 152.45 50.0 157.8 45.3 148.4 40.05 150.45 22.45 155.0 -22.4 160.15 -30.55 161.4 -31.5 161.35 -32.75 171.2 -44.65 169.65 -43.55 160.8 -44.3 160.75 -52.05 157.95 -91.35 134.85 -128.75 110.05 -133.65 106.2 -134.15 105.6 -140.15 108.75 -145.7 98.1 -140.05 95.15 -140.7 92.85 -145.4 10.5 -144.8 3.25 -151.1 2.9 -150.4 -9.1 -142.15 -8.65 -115.85 -83.4 -122.35 -87.95 -115.45 -97.75 -109.0 -93.2 -53.5 -150.65 -46.95 -155.65 -46.75 -155.75 -49.55 -161.35 -38.8 -166.7 -35.55 -160.15 -26.25 -161.5 37.4 -163.35 52.1 -162.8 59.5 -161.35 59.8 -161.25 63.25 -170.7 74.5 -166.55 70.9 -156.7 110.75 -131.9 119.3 -125.15 122.85 -119.95 128.7 -121.9 132.45 -110.45 125.7 -108.3 125.8 -104.5 123.45 -98.1 104.65 -70.85 103.25 -66.75 102.0 -61.25 102.0 -30.75 152.0 -30.8 152.0 -91.2 156.0 -104.1 158.0 -104.1 158.0 -116.55 156.65 -123.6 154.45 -129.4 150.6 -135.95 95.15 -182.65 M59.05 -200.95 L77.45 -200.0 88.75 -195.85 100.0 -189.7 100.3 -189.4 157.15 -141.5 162.15 -133.1 164.9 -125.95 166.5 -117.35 166.5 -104.1 186.3 -104.1 186.3 54.0 166.1 54.0 164.75 66.75 153.35 99.95 133.35 131.55 133.1 131.85 108.2 158.1 71.45 186.6 -36.45 205.35 -48.7 203.1 -61.1 199.7 -159.2 140.55 -171.5 131.4 -178.4 119.75 -185.15 -6.1 -155.45 -93.55 -145.4 -110.35 -72.75 -184.65 -61.6 -191.9 -47.1 -196.0 59.05 -200.95" fill="#b4b4b4" fill-rule="evenodd" stroke="none"/>
    <path d="M9.2 99.65 L7.75 101.1 6.3 99.65 7.75 98.2 9.2 99.65" fill="#6f6f6f" fill-rule="evenodd" stroke="none"/>
    <path d="M-19.8 100.65 L-20.7 101.55 -22.15 100.1 -21.25 99.2 -19.8 100.65" fill="#6f6f6f" fill-rule="evenodd" stroke="none"/>
    <path d="M1.6 104.25 L3.0 105.6 0.5 108.1 -0.9 106.75 1.6 104.25" fill="#6f6f6f" fill-rule="evenodd" stroke="none"/>
    <path d="M-22.35 -118.9 L-22.35 -120.2 -21.25 -120.2 -21.25 -118.9 -22.35 -118.9" fill="#6f6f6f" fill-rule="evenodd" stroke="none"/>
    <path d="M-56.8 124.95 L-56.8 123.15 -53.35 123.25 -53.4 125.05 -56.8 124.95" fill="#6f6f6f" fill-rule="evenodd" stroke="none"/>
    <path d="M-58.45 124.2 L-58.4 123.3 -56.55 123.35 -56.6 124.25 -58.45 124.2" fill="#6f6f6f" fill-rule="evenodd" stroke="none"/>
    <path d="M27.65 124.8 L27.7 123.05 31.15 123.1 31.1 124.9 27.65 124.8" fill="#6f6f6f" fill-rule="evenodd" stroke="none"/>
    <path d="M26.05 124.6 L26.05 123.65 27.9 123.7 27.85 124.65 26.05 124.6" fill="#6f6f6f" fill-rule="evenodd" stroke="none"/>
    <path d="M-12.95 29.25 L-12.95 27.8 -11.0 27.8 -11.0 29.25 -12.95 29.25" fill="#6f6f6f" fill-rule="evenodd" stroke="none"/>
    <path d="M-11.8 27.25 L-11.8 26.25 -10.8 26.25 -10.8 27.25 -11.8 27.25" fill="#6f6f6f" fill-rule="evenodd" stroke="none"/>
    <path d="M-90.9 42.6 L-92.35 41.15 -90.9 39.7 -89.45 41.15 -90.9 42.6" fill="#6f6f6f" fill-rule="evenodd" stroke="none"/>
    <path d="M-91.9 13.6 L-92.8 12.7 -91.4 11.3 -90.5 12.2 -91.9 13.6" fill="#6f6f6f" fill-rule="evenodd" stroke="none"/>
    <path d="M-96.85 36.4 L-99.4 33.9 -98.0 32.5 -95.5 35.05 -96.85 36.4" fill="#6f6f6f" fill-rule="evenodd" stroke="none"/>
    <path d="M-51.65 -69.2 L-51.85 -71.2 -49.8 -71.4 -49.6 -69.35 -51.65 -69.2" fill="#6f6f6f" fill-rule="evenodd" stroke="none"/>
    <path d="M-33.75 -92.05 L-33.9 -93.3 -31.85 -93.5 -31.75 -92.2 -33.75 -92.05" fill="#6f6f6f" fill-rule="evenodd" stroke="none"/>
    <path d="M-52.2 -77.75 L-52.55 -81.3 -50.6 -81.45 -50.3 -77.95 -52.2 -77.75" fill="#6f6f6f" fill-rule="evenodd" stroke="none"/>
    <path d="M9.2 99.65 L7.75 101.1 6.3 99.65 7.75 98.2 9.2 99.65" fill="#6f6f6f" fill-rule="evenodd" stroke="none"/>
    <path d="M-19.8 100.65 L-20.7 101.55 -22.15 100.1 -21.25 99.2 -19.8 100.65" fill="#6f6f6f" fill-rule="evenodd" stroke="none"/>
    <path d="M1.6 104.25 L3.0 105.6 0.5 108.1 -0.9 106.75 1.6 104.25" fill="#6f6f6f" fill-rule="evenodd" stroke="none"/>
    <path d="M-54.8 91.3 L-56.8 91.5 -57.0 89.45 -55.0 89.25 -54.8 91.3" fill="#6f6f6f" fill-rule="evenodd" stroke="none"/>
    <path d="M-79.1 71.5 L-77.8 71.4 -77.65 73.45 -78.9 73.55 -79.1 71.5" fill="#6f6f6f" fill-rule="evenodd" stroke="none"/>
    <path d="M-63.4 91.9 L-66.9 92.2 -67.1 90.25 -63.55 89.95 -63.4 91.9" fill="#6f6f6f" fill-rule="evenodd" stroke="none"/>
    <path d="M-45.7 13.3 L-45.7 15.35 -49.3 15.35 -49.3 13.3 -45.7 13.3" fill="#6f6f6f" fill-rule="evenodd" stroke="none"/>
    <path d="M-68.15 12.45 L-68.15 15.25 -71.75 15.25 -71.75 12.45 -68.15 12.45" fill="#6f6f6f" fill-rule="evenodd" stroke="none"/>
    <path d="M-60.75 -4.4 L-60.75 -6.55 -58.0 -6.55 -58.0 -4.4 -60.75 -4.4" fill="#6f6f6f" fill-rule="evenodd" stroke="none"/>
    <path d="M63.05 60.45 L62.55 62.4 60.55 61.85 61.1 59.9 63.05 60.45" fill="#6f6f6f" fill-rule="evenodd" stroke="none"/>
    <path d="M132.95 59.25 L132.95 61.3 130.9 61.25 130.9 59.25 132.95 59.25" fill="#6f6f6f" fill-rule="evenodd" stroke="none"/>
    <path d="M135.3 59.6 L135.2 61.6 133.15 61.5 133.25 59.5 135.3 59.6" fill="#6f6f6f" fill-rule="evenodd" stroke="none"/>
    <path d="M137.25 59.95 L137.0 61.8 134.95 61.5 135.25 59.65 137.25 59.95" fill="#6f6f6f" fill-rule="evenodd" stroke="none"/>
    <path d="M38.45 75.8 L38.1 77.05 36.15 76.5 36.5 75.3 38.45 75.8" fill="#6f6f6f" fill-rule="evenodd" stroke="none"/>
    <path d="M60.65 68.7 L59.75 72.15 57.85 71.6 58.8 68.2 60.65 68.7" fill="#6f6f6f" fill-rule="evenodd" stroke="none"/>
    <path d="M-5.45 -105.2 L-4.05 -106.6 -2.6 -105.15 -4.0 -103.75 -5.45 -105.2" fill="#6f6f6f" fill-rule="evenodd" stroke="none"/>
    <path d="M23.5 -106.15 L24.4 -107.05 25.85 -105.65 24.95 -104.75 23.5 -106.15" fill="#6f6f6f" fill-rule="evenodd" stroke="none"/>
    <path d="M4.6 -112.25 L2.1 -109.75 0.75 -111.15 3.25 -113.65 4.6 -112.25" fill="#6f6f6f" fill-rule="evenodd" stroke="none"/>
    <path d="M53.9 -98.0 L55.9 -98.35 56.25 -96.3 54.25 -95.95 53.9 -98.0" fill="#6f6f6f" fill-rule="evenodd" stroke="none"/>
    <path d="M78.2 -82.2 L79.45 -82.4 79.8 -80.4 78.55 -80.2 78.2 -82.2" fill="#6f6f6f" fill-rule="evenodd" stroke="none"/>
    <path d="M62.4 -99.3 L65.9 -99.9 66.2 -98.0 62.7 -97.4 62.4 -99.3" fill="#6f6f6f" fill-rule="evenodd" stroke="none"/>
    <path d="M12.2 92.1 L20.35 92.3 20.35 141.45 17.2 141.45 17.2 144.35 -31.6 144.35 -31.6 141.45 -34.75 141.45 -34.75 92.3 -26.35 92.1 -22.5 95.7 -23.4 98.25 -19.65 102.1 -17.6 100.1 -16.25 101.45 -18.25 103.5 -11.25 110.65 -3.15 110.65 3.9 103.5 1.85 101.45 3.25 100.1 5.25 102.1 9.05 98.25 8.0 96.0 12.2 92.1" fill="#424242" fill-rule="evenodd" stroke="none"/>
    <path d="M-4.0 -79.4 L-4.0 -65.05 -7.05 -65.05 -7.05 -39.8 -11.65 -39.8 -11.65 -65.05 -14.8 -65.05 -14.8 -79.4 -4.0 -79.4" fill="#424242" fill-rule="evenodd" stroke="none"/>
    <path d="M-22.65 -41.2 L-22.65 13.1 -34.05 13.1 -34.05 -41.2 -22.65 -41.2" fill="#424242" fill-rule="evenodd" stroke="none"/>
    <path d="M-25.2 -38.05 L-25.2 10.65 -36.6 10.65 -36.6 -38.05 -25.2 -38.05" fill="#424242" fill-rule="evenodd" stroke="none"/>
    <path d="M15.15 -39.85 L15.15 8.6 3.75 8.6 3.75 -39.85 15.15 -39.85" fill="#424242" fill-rule="evenodd" stroke="none"/>
    <path d="M17.85 -38.05 L17.85 10.4 6.45 10.4 6.45 -38.05 17.85 -38.05" fill="#424242" fill-rule="evenodd" stroke="none"/>
    <path d="M14.85 13.25 L-30.3 13.25 -30.3 4.55 14.85 4.55 14.85 13.25" fill="#424242" fill-rule="evenodd" stroke="none"/>
    <path d="M-33.6 -40.9 L15.15 -40.9 15.15 -34.0 -33.6 -34.0 -33.6 -40.9" fill="#424242" fill-rule="evenodd" stroke="none"/>
    <path d="M7.7 4.75 L-25.25 4.75 -25.25 -11.55 7.7 -11.55 7.7 4.75" fill="#424242" fill-rule="evenodd" stroke="none"/>
    <path d="M65.5 10.3 L8.9 10.3 8.9 -8.55 65.5 -8.55 65.5 10.3" fill="#424242" fill-rule="evenodd" stroke="none"/>
    <path d="M50.65 16.2 L22.55 16.2 22.55 -14.7 50.65 -14.7 50.65 16.2" fill="#424242" fill-rule="evenodd" stroke="none"/>
    <path d="M73.9 -38.25 L73.9 10.7 59.5 10.7 59.5 -38.25 73.9 -38.25" fill="#424242" fill-rule="evenodd" stroke="none"/>
    <path d="M92.25 -38.25 L92.25 10.7 77.85 10.7 77.85 -38.25 92.25 -38.25" fill="#424242" fill-rule="evenodd" stroke="none"/>
    <path d="M89.75 13.65 L62.65 13.65 62.65 -8.5 89.75 -8.5 89.75 13.65" fill="#424242" fill-rule="evenodd" stroke="none"/>
    <path d="M62.75 -41.15 L89.2 -41.15 89.2 -34.25 62.75 -34.25 62.75 -41.15" fill="#424242" fill-rule="evenodd" stroke="none"/>
    <path d="M26.25 -10.65 L20.4 -4.8 17.45 -7.8 23.3 -13.65 26.25 -10.65" fill="#424242" fill-rule="evenodd" stroke="none"/>
    <path d="M47.2 -10.4 L50.15 -13.35 56.0 -7.5 53.05 -4.55 47.2 -10.4" fill="#424242" fill-rule="evenodd" stroke="none"/>
    <path d="M26.35 12.6 L23.35 15.6 17.5 9.75 20.5 6.75 26.35 12.6" fill="#424242" fill-rule="evenodd" stroke="none"/>
    <path d="M47.25 12.35 L53.1 6.5 56.05 9.45 50.2 15.3 47.25 12.35" fill="#424242" fill-rule="evenodd" stroke="none"/>
    <path d="M89.7 38.75 L75.85 38.75 75.85 13.15 89.7 13.15 89.7 38.75" fill="#424242" fill-rule="evenodd" stroke="none"/>
    <path d="M92.0 21.25 L92.0 37.0 80.4 37.0 80.4 21.25 92.0 21.25" fill="#424242" fill-rule="evenodd" stroke="none"/>
    <path d="M75.9 33.7 L93.0 33.7 93.0 39.0 75.9 39.0 75.9 33.7" fill="#424242" fill-rule="evenodd" stroke="none"/>
    <path d="M140.0 59.3 L126.05 59.3 126.05 25.45 140.0 25.45 140.0 59.3" fill="#424242" fill-rule="evenodd" stroke="none"/>
    <path d="M126.9 12.0 L117.2 12.0 117.2 -1.4 126.9 -1.4 126.9 12.0" fill="#424242" fill-rule="evenodd" stroke="none"/>
    <path d="M138.5 0.75 L126.0 0.75 126.0 -12.55 138.5 -12.55 138.5 0.75" fill="#424242" fill-rule="evenodd" stroke="none"/>
    <path d="M145.5 -11.55 L119.2 -11.55 119.2 -17.25 145.5 -17.25 145.5 -11.55" fill="#424242" fill-rule="evenodd" stroke="none"/>
    <path d="M145.4 11.75 L132.3 11.75 132.3 -14.45 145.4 -14.45 145.4 11.75" fill="#424242" fill-rule="evenodd" stroke="none"/>
    <path d="M140.25 16.45 L131.9 16.45 131.9 12.6 140.25 12.6 140.25 16.45" fill="#424242" fill-rule="evenodd" stroke="none"/>
    <path d="M144.55 -35.25 L134.7 -35.25 134.7 -39.2 144.55 -39.2 144.55 -35.25" fill="#424242" fill-rule="evenodd" stroke="none"/>
    <path d="M49.55 -8.9 L23.5 -8.9 23.5 -22.7 49.55 -22.7 49.55 -8.9" fill="#424242" fill-rule="evenodd" stroke="none"/>
    <path d="M22.4 -71.3 L50.7 -71.3 50.7 -70.05 55.45 -65.55 88.05 -65.55 88.05 -53.05 80.95 -53.05 80.95 -46.6 55.25 -46.6 50.7 -42.25 50.7 -40.45 49.65 -40.45 49.65 -32.45 23.3 -32.45 23.3 -40.45 22.4 -40.45 22.4 -42.25 18.05 -46.6 17.95 -65.45 22.4 -69.9 22.4 -71.3" fill="#424242" fill-rule="evenodd" stroke="none"/>
    <path d="M64.5 -39.25 L59.05 -39.25 59.05 -47.25 64.5 -47.25 64.5 -39.25" fill="#424242" fill-rule="evenodd" stroke="none"/>
    <path d="M-40.0 -5.2 L-36.3 -1.1 -35.6 9.6 -39.6 14.1 -74.45 14.1 -74.45 -5.2 -40.0 -5.2" fill="#424242" fill-rule="evenodd" stroke="none"/>
    <path d="M-67.5 -28.85 L-67.5 -8.5 -80.1 -8.5 -80.1 -28.85 -67.5 -28.85" fill="#424242" fill-rule="evenodd" stroke="none"/>
    <path d="M-68.8 -33.25 L-68.8 -12.9 -78.8 -12.9 -78.8 -33.25 -68.8 -33.25" fill="#424242" fill-rule="evenodd" stroke="none"/>
    <path d="M-69.7 -33.65 L-76.05 -33.65 -76.55 -34.1 -76.65 -34.7 -76.55 -35.25 -76.05 -35.65 -69.7 -35.65 -69.3 -35.25 -69.2 -34.7 -69.3 -34.1 -69.7 -33.65" fill="#424242" fill-rule="evenodd" stroke="none"/>
    <path d="M-38.2 -8.25 L-37.8 -7.85 -37.7 -7.3 -37.8 -6.7 -38.2 -6.25 -44.55 -6.25 -45.05 -6.7 -45.15 -7.3 -45.05 -7.85 -44.55 -8.25 -38.2 -8.25" fill="#424242" fill-rule="evenodd" stroke="none"/>
    <path d="M-100.5 -41.95 L-100.5 -39.2 -101.45 -36.55 -103.3 -34.5 -105.8 -33.25 -108.55 -32.95 -111.2 -33.65 -113.45 -35.3 -114.95 -37.65 -115.5 -40.4 -115.0 -43.1 -113.6 -45.5 -111.4 -47.2 -108.7 -48.0 -105.95 -47.75 -103.45 -46.55 -101.55 -44.55 -100.5 -41.95" fill="#424242" fill-rule="evenodd" stroke="none"/>
    <path d="M-83.85 -15.0 L-83.8 -13.15 -84.45 -11.45 -85.7 -10.05 -87.35 -9.2 -89.2 -9.0 -91.0 -9.5 -92.45 -10.6 -93.45 -12.15 -93.8 -14.0 -93.5 -15.8 -92.55 -17.4 -91.1 -18.5 -89.3 -19.05 -87.45 -18.9 -85.8 -18.1 -84.55 -16.75 -83.85 -15.0" fill="#424242" fill-rule="evenodd" stroke="none"/>
    <path d="M-114.4 -15.45 L-113.15 -14.05 -112.45 -12.35 -112.4 -10.5 -113.05 -8.75 -114.3 -7.4 Q-115.1 -6.95 -115.95 -6.55 L-117.8 -6.35 -119.6 -6.85 -121.05 -7.95 -122.05 -9.5 -122.4 -11.3 -122.1 -13.15 -121.15 -14.7 -119.7 -15.85 -117.9 -16.4 -116.05 -16.25 -114.4 -15.45" fill="#424242" fill-rule="evenodd" stroke="none"/>
    <path d="M-80.6 -71.55 L-80.6 -35.4 -93.9 -35.4 -93.9 -71.55 -80.6 -71.55" fill="#424242" fill-rule="evenodd" stroke="none"/>
    <path d="M-82.1 -75.4 L-82.1 -31.4 -92.45 -31.4 -92.45 -75.4 -82.1 -75.4" fill="#424242" fill-rule="evenodd" stroke="none"/>
    <path d="M-116.85 -29.55 L-117.25 -29.95 -117.25 -30.4 -116.85 -30.8 -116.4 -30.8 -116.0 -30.4 -116.0 -29.95 -116.4 -29.55 -116.85 -29.55" fill="#424242" fill-rule="evenodd" stroke="none"/>
    <path d="M-119.05 71.4 L-118.7 71.75 -118.7 72.25 -119.1 72.6 -119.55 72.6 -119.95 72.25 -119.9 71.75 -119.55 71.4 -119.05 71.4" fill="#424242" fill-rule="evenodd" stroke="none"/>
    <path d="M-72.35 41.25 L-72.7 40.85 -72.7 40.4 -72.35 40.0 -71.85 40.05 -71.5 40.4 -71.5 40.9 -71.85 41.25 -72.35 41.25" fill="#424242" fill-rule="evenodd" stroke="none"/>
    <path d="M-35.45 78.0 L-35.8 77.65 -35.8 77.15 -35.45 76.8 -34.95 76.8 -34.6 77.2 -34.6 77.65 -34.95 78.0 -35.45 78.0" fill="#424242" fill-rule="evenodd" stroke="none"/>
    <path d="M-51.45 128.7 L-51.8 128.35 -51.8 127.85 -51.45 127.5 -50.95 127.5 -50.6 127.85 -50.6 128.35 -50.95 128.7 -51.45 128.7" fill="#424242" fill-rule="evenodd" stroke="none"/>
    <path d="M35.55 126.75 L35.2 126.4 35.2 125.95 35.55 125.55 36.05 125.55 36.4 125.95 36.4 126.4 36.05 126.8 35.55 126.75" fill="#424242" fill-rule="evenodd" stroke="none"/>
    <path d="M8.45 36.35 L8.05 36.0 8.05 35.5 8.45 35.15 8.9 35.15 9.3 35.55 9.3 36.0 8.9 36.4 8.45 36.35" fill="#424242" fill-rule="evenodd" stroke="none"/>
    <path d="M66.4 33.55 L66.05 33.2 66.05 32.7 66.4 32.35 66.9 32.35 67.25 32.7 67.25 33.2 66.9 33.55 66.4 33.55" fill="#424242" fill-rule="evenodd" stroke="none"/>
    <path d="M-37.15 -55.9 L-37.5 -56.25 -37.5 -56.75 -37.15 -57.1 -36.65 -57.1 -36.3 -56.75 -36.3 -56.25 -36.65 -55.9 -37.15 -55.9" fill="#424242" fill-rule="evenodd" stroke="none"/>
    <path d="M26.15 -84.95 L25.8 -85.3 25.8 -85.8 26.15 -86.15 26.65 -86.15 27.0 -85.8 27.0 -85.3 26.65 -84.95 26.15 -84.95" fill="#424242" fill-rule="evenodd" stroke="none"/>
    <path d="M-27.3 -111.85 L-26.9 -120.75 -21.85 -120.5 -22.25 -111.65 -27.3 -111.85" fill="#424242" fill-rule="evenodd" stroke="none"/>
    <path d="M-29.05 -115.45 L-28.9 -118.2 -25.35 -118.05 -25.5 -115.3 -29.05 -115.45" fill="#424242" fill-rule="evenodd" stroke="none"/>
    <path d="M-26.05 -141.8 L-35.9 -139.55 -36.75 -143.45 -26.95 -145.7 -26.05 -141.8" fill="#424242" fill-rule="evenodd" stroke="none"/>
    <path d="M52.9 -135.55 L49.05 -135.55 49.05 -145.7 52.9 -145.7 52.9 -135.55" fill="#424242" fill-rule="evenodd" stroke="none"/>
    <path d="M112.9 -52.6 L109.25 -53.65 112.1 -63.2 115.75 -62.1 112.9 -52.6" fill="#424242" fill-rule="evenodd" stroke="none"/>
    <path d="M82.35 53.8 L85.9 53.8 85.9 63.8 82.35 63.8 82.35 53.8" fill="#424242" fill-rule="evenodd" stroke="none"/>
    <path d="M-114.2 62.95 L-114.2 72.75 -117.75 72.75 -117.75 62.95 -114.2 62.95" fill="#424242" fill-rule="evenodd" stroke="none"/>
    <path d="M-43.75 134.45 L-47.5 134.35 -47.15 124.4 -43.4 124.55 -43.75 134.45" fill="#424242" fill-rule="evenodd" stroke="none"/>
    <path d="M-38.65 134.0 L-44.1 133.8 -43.75 124.7 -38.35 124.9 -38.65 134.0" fill="#424242" fill-rule="evenodd" stroke="none"/>
    <path d="M-52.2 133.35 L-63.0 133.05 -62.7 123.9 -51.95 124.25 -52.2 133.35" fill="#424242" fill-rule="evenodd" stroke="none"/>
    <path d="M41.65 133.65 L37.9 133.55 38.25 123.6 42.0 123.75 41.65 133.65" fill="#424242" fill-rule="evenodd" stroke="none"/>
    <path d="M41.9 124.7 L47.3 124.9 46.95 134.0 41.55 133.8 41.9 124.7" fill="#424242" fill-rule="evenodd" stroke="none"/>
    <path d="M33.3 133.3 L22.55 133.0 22.8 123.9 33.55 124.2 33.3 133.3" fill="#424242" fill-rule="evenodd" stroke="none"/>
    <path d="M-126.45 63.6 L-126.45 73.45 -130.0 73.45 -130.0 63.6 -126.45 63.6" fill="#424242" fill-rule="evenodd" stroke="none"/>
    <path d="M192.5 -130.15 L170.3 -119.8 159.7 -142.6 181.9 -152.9 192.5 -130.15" fill="#424242" fill-rule="evenodd" stroke="none"/>
    <path d="M163.25 -155.3 L155.85 -151.2 154.25 -154.2 161.6 -158.25 163.25 -155.3" fill="#424242" fill-rule="evenodd" stroke="none"/>
    <path d="M127.45 108.05 L123.95 109.4 120.5 107.9 119.2 104.35 120.7 100.95 124.2 99.6 127.65 101.1 129.0 104.6 127.45 108.05" fill="#424242" fill-rule="evenodd" stroke="none"/>
    <path d="M66.45 169.65 L65.1 173.15 61.65 174.65 58.15 173.3 56.65 169.85 58.0 166.35 61.45 164.85 64.95 166.2 66.45 169.65" fill="#424242" fill-rule="evenodd" stroke="none"/>
    <path d="M-36.75 187.4 L-39.55 189.9 -43.3 189.7 -45.8 186.85 -45.55 183.1 -42.75 180.65 -39.0 180.85 -36.5 183.7 -36.75 187.4" fill="#424242" fill-rule="evenodd" stroke="none"/>
    <path d="M-156.3 114.15 L-159.85 115.3 -163.2 113.6 -164.35 110.05 -162.65 106.7 -159.1 105.55 -155.75 107.25 -154.6 110.8 -156.3 114.15" fill="#424242" fill-rule="evenodd" stroke="none"/>
    <path d="M-163.45 -0.75 L-167.2 -0.75 -169.85 -3.4 -169.8 -7.15 -167.15 -9.8 -163.4 -9.8 -160.75 -7.15 -160.75 -3.4 -163.45 -0.75" fill="#424242" fill-rule="evenodd" stroke="none"/>
    <path d="M-131.25 -95.65 L-134.4 -97.75 -135.1 -101.45 -133.05 -104.55 -129.35 -105.3 -126.25 -103.2 -125.5 -99.5 -127.6 -96.4 -131.25 -95.65" fill="#424242" fill-rule="evenodd" stroke="none"/>
    <path d="M-45.55 -177.85 L-47.15 -174.5 -50.7 -173.2 -54.1 -174.8 -55.35 -178.35 -53.75 -181.75 -50.2 -183.0 -46.8 -181.4 -45.55 -177.85" fill="#424242" fill-rule="evenodd" stroke="none"/>
    <path d="M70.3 -178.8 L68.4 -182.0 69.3 -185.65 72.55 -187.55 76.2 -186.65 78.1 -183.4 77.15 -179.75 73.95 -177.85 70.3 -178.8" fill="#424242" fill-rule="evenodd" stroke="none"/>
    <path d="M147.05 -114.85 L144.25 -117.35 144.05 -121.1 146.6 -123.9 150.3 -124.1 153.1 -121.6 153.3 -117.85 150.8 -115.05 147.05 -114.85" fill="#424242" fill-rule="evenodd" stroke="none"/>
    <path d="M125.65 -36.65 L121.9 -36.65 119.2 -39.3 119.2 -43.05 121.85 -45.7 125.6 -45.7 128.25 -43.05 128.3 -39.3 125.65 -36.65" fill="#424242" fill-rule="evenodd" stroke="none"/>
    <path d="M-6.85 12.45 L-6.85 37.65 -3.75 37.65 -3.75 52.0 -14.5 52.0 -14.5 37.65 -11.5 37.65 -11.5 12.45 -6.85 12.45" fill="#424242" fill-rule="evenodd" stroke="none"/>
    <path d="M-84.3 -24.35 L-84.95 -24.35 -84.95 -25.0 -84.3 -25.0 -84.3 -24.35" fill="#424242" fill-rule="evenodd" stroke="none"/>
    <path d="M-89.6 -24.35 L-90.25 -24.35 -90.25 -25.0 -89.6 -25.0 -89.6 -24.35" fill="#424242" fill-rule="evenodd" stroke="none"/>
    <path d="M-84.7 -30.0 L-85.35 -30.0 -85.35 -30.65 -84.7 -30.65 -84.7 -30.0" fill="#424242" fill-rule="evenodd" stroke="none"/>
    <path d="M-90.0 -30.0 L-90.65 -30.0 -90.65 -30.65 -90.0 -30.65 -90.0 -30.0" fill="#424242" fill-rule="evenodd" stroke="none"/>
    <path d="M-83.55 -1.3 L-83.4 7.05 -86.95 10.95 -89.5 10.0 -93.4 13.75 -91.4 15.8 -92.7 17.2 -94.75 15.15 -101.95 22.15 -101.95 30.3 -94.75 37.3 -92.7 35.25 -91.4 36.65 -93.4 38.7 -89.5 42.45 -87.25 41.45 -83.4 45.6 -83.55 53.75 -132.75 53.75 -132.75 50.65 -135.6 50.65 -135.6 1.8 -132.75 1.8 -132.75 -1.3 -83.55 -1.3" fill="#424242" fill-rule="evenodd" stroke="none"/>
    <path d="M-17.8 -98.1 L-23.0 -91.6 -28.25 -90.9 -29.6 -93.25 -35.0 -92.9 -34.8 -90.0 -36.7 -89.85 -36.95 -92.7 -46.95 -91.95 -52.15 -85.7 -51.2 -75.75 -48.3 -75.95 -48.2 -74.05 -51.05 -73.8 -50.45 -68.4 -48.1 -67.7 -47.8 -62.05 -53.2 -55.9 -90.85 -87.55 -88.85 -89.95 -91.05 -91.8 -59.65 -129.15 -57.45 -127.3 -55.45 -129.7 -17.8 -98.1" fill="#424242" fill-rule="evenodd" stroke="none"/>
    <path d="M12.2 92.1 L20.35 92.3 20.35 141.45 17.2 141.45 17.2 144.35 -31.6 144.35 -31.6 141.45 -34.75 141.45 -34.75 92.3 -26.35 92.1 -22.5 95.7 -23.4 98.25 -19.65 102.1 -17.6 100.1 -16.25 101.45 -18.25 103.5 -11.25 110.65 -3.15 110.65 3.9 103.5 1.85 101.45 3.25 100.1 5.25 102.1 9.05 98.25 8.0 96.0 12.2 92.1" fill="#424242" fill-rule="evenodd" stroke="none"/>
    <path d="M-77.2 62.7 L-76.5 67.9 -78.85 69.25 -78.5 74.65 -75.65 74.45 -75.45 76.35 -78.3 76.6 -77.55 86.6 -71.35 91.8 -61.35 90.85 -61.6 88.0 -59.65 87.85 -59.4 90.7 -54.0 90.15 -53.35 87.75 -47.65 87.45 -41.5 92.85 -73.15 130.5 -75.55 128.5 -77.4 130.7 -114.75 99.35 -112.9 97.15 -115.3 95.1 -83.7 57.45 -77.2 62.7" fill="#424242" fill-rule="evenodd" stroke="none"/>
    <path d="M61.9 52.45 L69.05 48.5 93.65 91.1 90.9 92.65 92.35 95.15 50.1 119.55 48.65 117.05 45.95 118.6 21.35 76.0 28.5 71.7 33.65 72.85 34.1 75.55 39.3 77.0 40.1 74.25 41.95 74.7 41.2 77.5 50.9 80.2 57.9 76.15 60.4 66.45 57.6 65.65 58.15 63.85 60.9 64.55 62.2 59.3 60.2 57.85 61.9 52.45" fill="#424242" fill-rule="evenodd" stroke="none"/>
    <path d="M-16.6 -147.0 L-13.5 -147.0 -13.5 -149.9 35.3 -149.9 35.3 -147.0 38.45 -147.0 38.45 -97.8 30.1 -97.65 26.2 -101.2 27.15 -103.75 23.4 -107.65 21.35 -105.65 19.95 -107.0 22.0 -109.05 14.95 -116.2 6.85 -116.2 -0.15 -109.05 1.85 -107.0 0.5 -105.65 -1.55 -107.65 -5.3 -103.75 -4.3 -101.5 -8.45 -97.65 -16.6 -97.8 -16.6 -147.0" fill="#424242" fill-rule="evenodd" stroke="none"/>
    <path d="M68.75 -138.65 L71.3 -136.85 72.95 -139.2 112.95 -111.2 111.3 -108.85 113.85 -107.05 85.65 -66.75 78.7 -71.45 77.55 -76.55 79.8 -78.15 78.95 -83.45 76.1 -83.0 75.75 -84.9 78.6 -85.4 76.95 -95.3 70.3 -99.95 60.45 -98.1 60.95 -95.25 59.05 -94.95 58.5 -97.75 53.2 -96.75 52.75 -94.3 47.1 -93.55 40.55 -98.35 68.75 -138.65" fill="#424242" fill-rule="evenodd" stroke="none"/>
    <path d="M-5.1 39.0 L-13.15 39.0 -13.15 50.65 -5.1 50.65 -5.1 39.0 M22.7 -12.5 L22.7 11.3 35.7 11.3 35.7 -12.5 22.7 -12.5 M50.55 11.3 L50.55 -12.5 37.7 -12.5 37.7 11.3 50.55 11.3 M50.55 15.75 L50.55 12.95 22.7 12.95 22.7 15.75 50.55 15.75 M50.55 -14.05 L50.55 -14.7 22.7 -14.7 22.7 -14.05 50.55 -14.05 M37.5 -66.4 L37.5 -42.6 50.4 -42.6 50.4 -66.4 37.5 -66.4 M22.5 -42.6 L35.5 -42.6 35.5 -66.4 22.5 -66.4 22.5 -42.6 M22.5 -41.0 L22.5 -40.8 50.4 -40.8 50.4 -41.0 22.5 -41.0 M22.5 -71.2 L22.5 -68.0 50.4 -68.0 50.4 -71.2 22.5 -71.2 M-34.0 -38.05 L-36.75 -38.05 -36.75 10.6 -34.0 10.6 -34.0 13.45 15.0 13.45 15.0 10.45 18.0 10.45 18.0 -38.3 15.0 -38.3 15.0 -41.0 -34.0 -41.0 -34.0 -38.05 M-5.35 -78.0 L-13.5 -78.0 -13.5 -66.4 -5.35 -66.4 -5.35 -78.0 M-14.5 -79.0 L-4.35 -79.0 -4.35 -65.4 -8.05 -65.4 -8.05 -42.55 16.55 -42.55 16.55 -39.9 20.9 -39.9 20.9 -72.8 52.0 -72.8 52.0 -39.2 22.5 -39.2 22.5 -38.3 19.55 -38.3 19.55 0.65 21.05 0.65 21.05 -16.25 52.2 -16.25 52.2 -3.05 58.35 -3.05 58.35 -39.75 61.1 -39.75 61.1 -42.8 92.75 -42.8 92.75 -41.2 62.7 -41.2 62.7 -38.2 59.95 -38.2 59.95 10.7 62.85 10.7 62.85 13.7 92.9 13.7 92.9 15.25 61.25 15.25 61.25 12.25 58.35 12.25 58.35 -1.5 52.2 -1.5 52.2 17.3 21.05 17.3 21.05 2.25 19.55 2.25 19.55 12.0 16.55 12.0 16.55 15.0 -8.0 15.0 -8.0 38.0 -4.1 38.0 -4.1 51.65 -14.15 51.65 -14.15 38.0 -10.5 38.0 -10.5 15.0 -35.6 15.0 -35.6 12.25 -38.3 12.25 -38.3 -39.7 -35.6 -39.7 -35.6 -42.55 -10.55 -42.55 -10.55 -65.4 -14.5 -65.4 -14.5 -79.0" fill="#959595" fill-rule="evenodd" stroke="none"/>
    <path d="M-70.25 -28.5 L-68.75 -28.5 -68.75 -9.05 -70.25 -9.05 -70.25 -28.5" fill="#959595" fill-rule="evenodd" stroke="none"/>
    <path d="M160.85 -141.15 L160.3 -142.35 178.3 -150.85 178.85 -149.7 170.5 -145.75 179.6 -125.95 187.9 -129.9 188.45 -128.7 170.45 -120.2 169.9 -121.35 178.4 -125.4 169.35 -145.2 160.85 -141.15" fill="#959595" fill-rule="evenodd" stroke="none"/>
    <path d="M-68.0 -21.5 L-69.05 -21.5 -69.05 -22.4 -68.0 -22.4 -68.0 -21.5" fill="#959595" fill-rule="evenodd" stroke="none"/>
    <path d="M-92.7 16.7 L-95.25 14.2 -102.95 21.75 -102.95 30.7 -95.25 38.25 -92.75 35.75 -91.85 36.65 -94.35 39.15 -85.4 47.9 -84.15 46.65 -83.7 48.0 -84.55 48.9 -84.55 52.75 -131.75 52.75 -131.75 49.65 -134.6 49.65 -134.6 2.8 -131.75 2.8 -131.75 -0.3 -84.55 -0.3 -84.55 3.5 -83.7 4.4 -84.15 5.75 -85.4 4.5 -94.3 13.25 -91.8 15.8 -92.7 16.7" fill="#959595" fill-rule="evenodd" stroke="none"/>
    <path d="M-19.2 -98.0 L-21.65 -95.05 -21.6 -93.85 -22.8 -93.05 -22.95 -94.85 -35.4 -93.85 -35.1 -90.3 -36.4 -90.2 -36.7 -93.75 -47.45 -92.9 -53.2 -86.05 -52.15 -75.3 -48.65 -75.6 -48.55 -74.35 -52.05 -74.0 -50.85 -61.6 -49.05 -61.75 -49.6 -60.4 -50.8 -60.3 -53.3 -57.3 -89.45 -87.65 -87.45 -90.05 -89.65 -91.9 -59.55 -127.75 -57.35 -125.9 -55.35 -128.3 -19.2 -98.0" fill="#959595" fill-rule="evenodd" stroke="none"/>
    <path d="M15.5 93.3 L19.35 93.3 19.35 140.45 16.2 140.45 16.2 143.35 -30.6 143.35 -30.6 140.45 -33.75 140.45 -33.75 93.3 -29.9 93.3 -29.0 92.45 -27.65 92.9 -28.9 94.15 -20.15 103.05 -17.6 100.55 -16.7 101.45 -19.2 103.95 -11.65 111.65 -2.7 111.65 4.85 104.0 2.35 101.5 3.25 100.55 5.75 103.05 14.5 94.15 13.25 92.9 14.6 92.45 15.5 93.3" fill="#959595" fill-rule="evenodd" stroke="none"/>
    <path d="M-83.6 58.85 L-80.65 61.3 -79.45 61.25 -78.65 62.45 -80.45 62.6 -79.45 75.05 -75.9 74.75 -75.8 76.05 -79.35 76.35 -78.5 87.1 -71.65 92.85 -60.9 91.8 -61.25 88.3 -59.95 88.2 -59.65 91.7 -47.2 90.5 -47.35 88.7 -46.0 89.25 -45.9 90.45 -42.95 92.95 -73.25 129.1 -75.65 127.1 -77.5 129.3 -113.35 99.2 -111.5 97.0 -113.9 95.0 -83.6 58.85" fill="#959595" fill-rule="evenodd" stroke="none"/>
    <path d="M65.3 51.8 L68.65 49.85 92.25 90.7 89.55 92.3 91.0 94.8 50.45 118.2 49.0 115.7 46.3 117.25 22.7 76.4 26.0 74.5 26.4 73.3 27.75 73.0 27.3 74.7 39.35 78.05 40.3 74.6 41.55 74.95 40.6 78.4 51.0 81.3 58.75 76.8 61.45 66.35 58.05 65.45 58.35 64.2 61.8 65.1 64.9 53.05 63.15 52.55 64.15 51.5 65.3 51.8" fill="#959595" fill-rule="evenodd" stroke="none"/>
    <path d="M-12.5 -146.0 L-12.5 -148.9 34.3 -148.9 34.3 -146.0 37.45 -146.0 37.45 -98.8 33.6 -98.8 32.75 -98.0 31.35 -98.4 32.65 -99.65 23.85 -108.6 21.35 -106.05 20.4 -107.0 22.95 -109.5 15.4 -117.2 6.45 -117.2 -1.1 -109.5 1.4 -107.0 0.45 -106.1 -2.05 -108.6 -10.8 -99.7 -9.5 -98.4 -10.9 -98.0 -11.75 -98.8 -15.6 -98.8 -15.6 -146.0 -12.5 -146.0" fill="#959595" fill-rule="evenodd" stroke="none"/>
    <path d="M71.55 -135.45 L73.2 -137.8 111.55 -110.95 109.9 -108.6 112.45 -106.8 85.4 -68.15 82.25 -70.35 81.05 -70.2 80.2 -71.3 81.95 -71.6 79.85 -83.95 76.35 -83.35 76.15 -84.6 79.65 -85.25 77.85 -95.9 70.55 -101.0 59.95 -99.05 60.55 -95.55 59.3 -95.35 58.65 -98.8 46.4 -96.55 46.7 -94.75 45.3 -95.2 45.1 -96.4 41.9 -98.6 69.0 -137.25 71.55 -135.45" fill="#959595" fill-rule="evenodd" stroke="none"/>
    <path d="M7.15 15.5 L7.15 15.1 1.7 15.1 1.7 15.5 7.15 15.5 M8.45 13.8 L8.45 16.8 0.4 16.8 0.4 13.8 8.45 13.8" fill="#ffffff" fill-rule="evenodd" stroke="none"/>
    <path d="M43.05 18.0 L43.05 17.6 37.6 17.6 37.6 18.0 43.05 18.0 M44.35 16.3 L44.35 19.3 36.3 19.3 36.3 16.3 44.35 16.3" fill="#ffffff" fill-rule="evenodd" stroke="none"/>
    <path d="M38.55 -72.95 L33.1 -72.95 33.1 -72.6 38.55 -72.6 38.55 -72.95 M39.85 -74.25 L39.85 -71.3 31.8 -71.3 31.8 -74.25 39.85 -74.25" fill="#ffffff" fill-rule="evenodd" stroke="none"/>
    <path d="M57.9 -16.3 L57.9 -10.85 58.25 -10.85 58.25 -16.3 57.9 -16.3 M56.6 -17.6 L59.55 -17.6 59.55 -9.55 56.6 -9.55 56.6 -17.6" fill="#ffffff" fill-rule="evenodd" stroke="none"/>
    <path d="M-20.0 15.1 L-25.45 15.1 -25.45 15.5 -20.0 15.5 -20.0 15.1 M-18.7 13.8 L-18.7 16.8 -26.75 16.8 -26.75 13.8 -18.7 13.8" fill="#ffffff" fill-rule="evenodd" stroke="none"/>
    <path d="M-2.7 -43.1 L-2.7 -42.7 2.75 -42.7 2.75 -43.1 -2.7 -43.1 M-4.0 -41.4 L-4.0 -44.4 4.05 -44.4 4.05 -41.4 -4.0 -41.4" fill="#ffffff" fill-rule="evenodd" stroke="none"/>
    <path d="M-24.4 -43.2 L-29.85 -43.2 -29.85 -42.8 -24.4 -42.8 -24.4 -43.2 M-23.1 -44.5 L-23.1 -41.5 -31.15 -41.5 -31.15 -44.5 -23.1 -44.5" fill="#ffffff" fill-rule="evenodd" stroke="none"/>
    <path d="M-67.3 -21.5 L-68.2 -21.5 -68.2 -22.4 -67.3 -22.4 -67.3 -21.5" fill="#ffffff" fill-rule="evenodd" stroke="none"/>
    <path d="M-88.15 -18.6 L-89.2 -18.6 -89.2 -19.55 -88.15 -19.55 -88.15 -18.6" fill="#ffffff" fill-rule="evenodd" stroke="none"/>
    <path d="M-117.0 -16.1 L-118.05 -16.1 -118.05 -17.05 -117.0 -17.05 -117.0 -16.1" fill="#ffffff" fill-rule="evenodd" stroke="none"/>
    <path d="M-100.0 -41.2 L-100.0 -39.85 -100.95 -39.85 -100.95 -41.2 -100.0 -41.2" fill="#ffffff" fill-rule="evenodd" stroke="none"/>
    <path d="M170.05 -146.95 L168.4 -146.25 168.0 -147.1 169.65 -147.85 170.05 -146.95" fill="#ffffff" fill-rule="evenodd" stroke="none"/>
    <path d="M23.0 -12.75 L22.3 -12.75 22.3 -13.85 23.0 -13.85 23.0 -12.75" fill="#ffffff" fill-rule="evenodd" stroke="none"/>
    <path d="M23.0 12.7 L22.3 12.7 22.3 11.6 23.0 11.6 23.0 12.7" fill="#ffffff" fill-rule="evenodd" stroke="none"/>
    <path d="M22.8 -66.7 L22.1 -66.7 22.1 -67.8 22.8 -67.8 22.8 -66.7" fill="#ffffff" fill-rule="evenodd" stroke="none"/>
    <path d="M22.8 -41.25 L22.1 -41.25 22.1 -42.3 22.8 -42.3 22.8 -41.25" fill="#ffffff" fill-rule="evenodd" stroke="none"/>
    <path d="M-83.45 46.0 L-87.3 42.15 -87.55 42.4 -83.7 46.25 -83.45 46.0 M-81.6 46.0 L-83.7 48.1 -89.4 42.4 -87.3 40.3 -81.6 46.0" fill="#ffffff" fill-rule="evenodd" stroke="none"/>
    <path d="M-83.45 6.5 L-83.7 6.25 -87.55 10.1 -87.3 10.35 -83.45 6.5 M-81.6 6.5 L-87.3 12.2 -89.4 10.1 -83.7 4.4 -81.6 6.5" fill="#ffffff" fill-rule="evenodd" stroke="none"/>
    <path d="M-48.1 -61.8 L-48.6 -67.25 -48.95 -67.2 -48.5 -61.75 -48.1 -61.8 M-46.7 -60.6 L-49.65 -60.35 -50.35 -68.35 -47.4 -68.65 -46.7 -60.6" fill="#ffffff" fill-rule="evenodd" stroke="none"/>
    <path d="M-22.75 -92.05 L-22.75 -92.4 -28.2 -91.95 -28.15 -91.6 -22.75 -92.05 M-21.3 -90.85 L-29.35 -90.15 -29.6 -93.15 -21.6 -93.85 -21.3 -90.85" fill="#ffffff" fill-rule="evenodd" stroke="none"/>
    <path d="M12.55 92.2 L8.75 96.05 9.0 96.3 12.85 92.45 12.55 92.2 M12.55 90.35 L14.65 92.45 9.0 98.15 6.9 96.05 12.55 90.35" fill="#ffffff" fill-rule="evenodd" stroke="none"/>
    <path d="M-26.9 92.2 L-27.15 92.45 -23.35 96.3 -23.05 96.05 -26.9 92.2 M-26.9 90.35 L-21.25 96.05 -23.35 98.15 -29.0 92.45 -26.9 90.35" fill="#ffffff" fill-rule="evenodd" stroke="none"/>
    <path d="M-47.4 87.75 L-52.85 88.25 -52.8 88.6 -47.4 88.15 -47.4 87.75 M-46.25 86.35 L-45.95 89.3 -54.0 90.0 -54.25 87.05 -46.25 86.35" fill="#ffffff" fill-rule="evenodd" stroke="none"/>
    <path d="M-77.65 62.4 L-78.05 62.4 -77.55 67.85 -77.2 67.8 -77.65 62.4 M-78.75 69.25 L-79.45 61.25 -76.5 61.0 -75.8 69.0 -78.75 69.25" fill="#ffffff" fill-rule="evenodd" stroke="none"/>
    <path d="M62.25 52.3 L60.85 57.55 61.2 57.65 62.6 52.4 62.25 52.3 M61.35 50.7 L64.2 51.45 62.15 59.25 59.25 58.45 61.35 50.7" fill="#ffffff" fill-rule="evenodd" stroke="none"/>
    <path d="M28.05 72.05 L27.95 72.4 33.2 73.8 33.3 73.45 28.05 72.05 M34.9 72.5 L34.15 75.4 26.4 73.3 27.15 70.45 34.9 72.5" fill="#ffffff" fill-rule="evenodd" stroke="none"/>
    <path d="M-8.85 -97.7 L-5.0 -101.55 -5.25 -101.85 -9.1 -98.0 -8.85 -97.7 M-8.85 -95.9 L-10.95 -98.0 -5.25 -103.65 -3.15 -101.55 -8.85 -95.9" fill="#ffffff" fill-rule="evenodd" stroke="none"/>
    <path d="M30.65 -97.7 L30.9 -98.0 27.05 -101.85 26.8 -101.55 30.65 -97.7 M30.65 -95.9 L24.95 -101.55 27.05 -103.65 32.75 -98.0 30.65 -95.9" fill="#ffffff" fill-rule="evenodd" stroke="none"/>
    <path d="M46.85 -93.8 L52.2 -94.75 52.15 -95.15 46.75 -94.2 46.85 -93.8 M45.8 -92.3 L45.25 -95.25 53.2 -96.65 53.7 -93.7 45.8 -92.3" fill="#ffffff" fill-rule="evenodd" stroke="none"/>
    <path d="M78.6 -76.6 L78.25 -76.55 79.2 -71.15 79.55 -71.25 78.6 -76.6 M76.75 -77.6 L79.65 -78.1 81.05 -70.2 78.15 -69.65 76.75 -77.6" fill="#ffffff" fill-rule="evenodd" stroke="none"/>
    <path d="M-52.3 41.3 L-44.2 31.6 -43.55 32.15 -51.65 41.85 -52.3 41.3" fill="#6f6f6f" fill-rule="evenodd" stroke="none"/>
    <path d="M16.75 52.35 L17.1 53.1 5.45 59.2 5.05 58.45 16.75 52.35" fill="#6f6f6f" fill-rule="evenodd" stroke="none"/>
    <path d="M42.7 40.95 L39.9 42.25 38.35 38.9 41.15 37.65 42.7 40.95" fill="#6f6f6f" fill-rule="evenodd" stroke="none"/>
    <path d="M43.45 42.3 L45.0 45.6 42.25 46.9 40.65 43.55 43.45 42.3" fill="#6f6f6f" fill-rule="evenodd" stroke="none"/>
    <path d="M-73.85 -37.0 L-71.9 -37.1 -71.85 -35.95 -73.8 -35.85 -73.85 -37.0" fill="#6f6f6f" fill-rule="evenodd" stroke="none"/>
    <path d="M-78.85 -33.45 L-78.9 -34.65 -76.95 -34.7 -76.9 -33.55 -78.85 -33.45" fill="#6f6f6f" fill-rule="evenodd" stroke="none"/>
    <path d="M-74.35 -36.65 L-73.95 -35.7 -74.9 -35.3 -75.3 -36.2 -74.35 -36.65" fill="#6f6f6f" fill-rule="evenodd" stroke="none"/>
    <path d="M-95.05 -18.25 L-95.3 -18.55 -95.3 -18.9 -95.05 -19.25 -94.7 -19.35 -94.35 -19.25 -94.1 -18.95 -94.1 -18.55 -94.3 -18.25 -94.7 -18.1 -95.05 -18.25" fill="#6f6f6f" fill-rule="evenodd" stroke="none"/>
    <path d="M-96.15 -24.05 L-95.75 -23.95 -95.55 -23.65 -95.5 -23.25 -95.75 -22.95 -96.1 -22.8 -96.5 -22.95 -96.7 -23.25 -96.75 -23.6 -96.5 -23.95 -96.15 -24.05" fill="#6f6f6f" fill-rule="evenodd" stroke="none"/>
    <path d="M-100.4 -25.95 L-100.65 -26.25 -100.65 -26.6 -100.45 -26.95 -100.05 -27.05 -99.7 -26.95 -99.45 -26.65 -99.45 -26.25 -99.7 -25.95 Q-99.85 -25.85 -100.05 -25.8 L-100.4 -25.95" fill="#6f6f6f" fill-rule="evenodd" stroke="none"/>
    <path d="M-102.45 -19.65 L-102.0 -19.55 -101.7 -19.15 -101.7 -18.65 -102.0 -18.25 -102.45 -18.1 -102.9 -18.25 -103.2 -18.65 -103.2 -19.1 -102.95 -19.5 -102.45 -19.65" fill="#6f6f6f" fill-rule="evenodd" stroke="none"/>
    <path d="M-105.15 -27.1 L-104.75 -27.25 -104.4 -27.1 -104.15 -26.8 -104.15 -26.45 -104.4 -26.1 -104.75 -26.0 -105.1 -26.1 -105.35 -26.4 -105.35 -26.8 -105.15 -27.1" fill="#6f6f6f" fill-rule="evenodd" stroke="none"/>
    <path d="M-108.65 -24.35 L-108.45 -24.05 -108.45 -23.65 -108.65 -23.35 -109.0 -23.2 -109.4 -23.35 -109.6 -23.65 -109.6 -24.0 -109.4 -24.35 -109.05 -24.45 -108.65 -24.35" fill="#6f6f6f" fill-rule="evenodd" stroke="none"/>
    <path d="M-110.65 -19.75 L-110.3 -19.65 -110.05 -19.35 -110.05 -18.95 -110.3 -18.65 -110.65 -18.5 -111.0 -18.65 -111.25 -18.95 -111.25 -19.3 -111.05 -19.65 -110.65 -19.75" fill="#6f6f6f" fill-rule="evenodd" stroke="none"/>
    <path d="M-108.85 -14.95 L-108.65 -14.65 -108.6 -14.25 -108.85 -13.95 -109.2 -13.8 -109.6 -13.95 -109.8 -14.25 -109.8 -14.6 -109.6 -14.95 -109.25 -15.05 -108.85 -14.95" fill="#6f6f6f" fill-rule="evenodd" stroke="none"/>
    <path d="M-105.95 -11.6 L-105.75 -11.95 -105.35 -12.05 -105.0 -11.95 -104.75 -11.65 -104.75 -11.25 -105.0 -10.95 -105.35 -10.8 -105.7 -10.95 -105.95 -11.25 -105.95 -11.6" fill="#6f6f6f" fill-rule="evenodd" stroke="none"/>
    <path d="M-100.85 -11.8 L-100.45 -11.95 -100.1 -11.8 -99.85 -11.5 -99.85 -11.15 -100.1 -10.8 -100.45 -10.7 -100.8 -10.8 -101.05 -11.1 -101.05 -11.5 -100.85 -11.8" fill="#6f6f6f" fill-rule="evenodd" stroke="none"/>
    <path d="M-96.7 -13.5 L-96.9 -13.8 -96.95 -14.2 -96.7 -14.5 -96.35 -14.65 -95.95 -14.5 -95.75 -14.2 -95.75 -13.85 -95.95 -13.5 -96.3 -13.4 -96.7 -13.5" fill="#6f6f6f" fill-rule="evenodd" stroke="none"/>
    <path d="M-83.15 -13.2 L-84.45 -13.2 -84.45 -15.15 -83.15 -15.15 -83.15 -13.2" fill="#6f6f6f" fill-rule="evenodd" stroke="none"/>
    <path d="M-93.9 -44.55 L-93.9 -41.65 -95.35 -41.65 -95.35 -44.55 -93.9 -44.55" fill="#6f6f6f" fill-rule="evenodd" stroke="none"/>
    <path d="M-93.9 -65.8 L-93.9 -62.9 -95.4 -62.9 -95.4 -65.8 -93.9 -65.8" fill="#6f6f6f" fill-rule="evenodd" stroke="none"/>
    <path d="M-111.65 -12.5 L-111.65 -10.5 -112.95 -10.5 -112.95 -12.5 -111.65 -12.5" fill="#6f6f6f" fill-rule="evenodd" stroke="none"/>
    <path d="M-12.3 79.75 L-14.85 82.6 -17.3 80.4 -14.75 77.55 -12.3 79.75" fill="#6f6f6f" fill-rule="evenodd" stroke="none"/>
    <path d="M-10.2 77.3 L-12.65 75.1 -10.1 72.25 -7.65 74.45 -10.2 77.3" fill="#6f6f6f" fill-rule="evenodd" stroke="none"/>
    <path d="M-9.65 71.7 L-7.1 68.85 -4.65 71.05 -7.2 73.9 -9.65 71.7" fill="#6f6f6f" fill-rule="evenodd" stroke="none"/>
    <path d="M-21.6 53.7 L-24.05 51.5 -21.5 48.65 -19.05 50.85 -21.6 53.7" fill="#6f6f6f" fill-rule="evenodd" stroke="none"/>
    <path d="M-25.6 58.45 L-28.15 61.3 -30.6 59.1 -28.05 56.25 -25.6 58.45" fill="#6f6f6f" fill-rule="evenodd" stroke="none"/>
    <path d="M-34.5 64.15 L-32.05 66.35 -34.6 69.15 -37.05 66.95 -34.5 64.15" fill="#6f6f6f" fill-rule="evenodd" stroke="none"/>
    <path d="M-60.35 56.5 L-58.9 57.85 -59.35 58.35 -60.8 57.0 -60.35 56.5" fill="#6f6f6f" fill-rule="evenodd" stroke="none"/>
    <path d="M-54.6 49.3 L-54.3 49.55 -56.95 52.8 -57.3 52.5 -54.6 49.3" fill="#6f6f6f" fill-rule="evenodd" stroke="none"/>
    <path d="M-56.35 55.65 L-55.75 56.15 -56.8 57.45 -57.4 56.95 -56.35 55.65" fill="#6f6f6f" fill-rule="evenodd" stroke="none"/>
    <path d="M-53.75 42.75 L-53.15 43.25 -54.25 44.5 -54.85 44.05 -53.75 42.75" fill="#6f6f6f" fill-rule="evenodd" stroke="none"/>
    <path d="M-70.3 33.3 L-71.5 34.5 -72.4 33.55 -71.2 32.35 -70.3 33.3" fill="#6f6f6f" fill-rule="evenodd" stroke="none"/>
    <path d="M-66.55 33.65 L-67.75 34.85 -68.7 33.9 -67.5 32.7 -66.55 33.65" fill="#6f6f6f" fill-rule="evenodd" stroke="none"/>
    <path d="M-68.8 29.5 L-67.85 30.45 -69.05 31.65 -70.0 30.7 -68.8 29.5" fill="#6f6f6f" fill-rule="evenodd" stroke="none"/>
    <path d="M-66.8 29.3 L-67.75 28.35 -66.55 27.15 -65.6 28.1 -66.8 29.3" fill="#6f6f6f" fill-rule="evenodd" stroke="none"/>
    <path d="M-64.05 30.9 L-65.25 32.05 -66.2 31.15 -65.0 29.95 -64.05 30.9" fill="#6f6f6f" fill-rule="evenodd" stroke="none"/>
    <path d="M-42.1 26.3 L-40.9 25.1 -39.95 26.05 -41.15 27.2 -42.1 26.3" fill="#6f6f6f" fill-rule="evenodd" stroke="none"/>
    <path d="M-39.25 28.8 L-38.05 27.6 -37.1 28.55 -38.3 29.7 -39.25 28.8" fill="#6f6f6f" fill-rule="evenodd" stroke="none"/>
    <path d="M-34.2 31.45 L-35.4 32.6 -36.35 31.7 -35.15 30.5 -34.2 31.45" fill="#6f6f6f" fill-rule="evenodd" stroke="none"/>
    <path d="M-32.65 29.55 L-33.55 28.6 -32.4 27.4 -31.45 28.35 -32.65 29.55" fill="#6f6f6f" fill-rule="evenodd" stroke="none"/>
    <path d="M-34.15 25.75 L-35.35 26.9 -36.3 26.0 -35.1 24.8 -34.15 25.75" fill="#6f6f6f" fill-rule="evenodd" stroke="none"/>
    <path d="M-28.25 25.75 L-29.45 26.9 -30.4 26.0 -29.2 24.8 -28.25 25.75" fill="#6f6f6f" fill-rule="evenodd" stroke="none"/>
    <path d="M5.0 25.45 L5.0 26.8 3.3 26.8 3.3 25.45 5.0 25.45" fill="#6f6f6f" fill-rule="evenodd" stroke="none"/>
    <path d="M-14.9 26.0 L-14.9 25.5 -13.25 25.5 -13.25 26.0 -14.9 26.0" fill="#6f6f6f" fill-rule="evenodd" stroke="none"/>
    <path d="M5.7 30.2 L5.75 28.9 7.4 28.9 7.4 30.2 5.7 30.2" fill="#6f6f6f" fill-rule="evenodd" stroke="none"/>
    <path d="M7.05 27.7 L7.05 27.6 7.0 27.6 7.0 26.25 8.7 26.25 8.7 26.4 8.75 26.4 8.75 27.7 7.05 27.7" fill="#6f6f6f" fill-rule="evenodd" stroke="none"/>
    <path d="M10.8 25.9 L12.45 25.9 12.45 27.25 10.75 27.25 10.8 25.9" fill="#6f6f6f" fill-rule="evenodd" stroke="none"/>
    <path d="M14.45 24.95 L16.1 24.95 16.1 26.25 14.4 26.25 14.45 24.95" fill="#6f6f6f" fill-rule="evenodd" stroke="none"/>
    <path d="M-61.7 28.5 L-62.9 29.65 -63.85 28.75 -62.65 27.55 -61.7 28.5" fill="#6f6f6f" fill-rule="evenodd" stroke="none"/>
    <path d="M-51.7 50.85 L-48.8 47.35 -48.45 47.65 -51.35 51.15 -51.7 50.85" fill="#6f6f6f" fill-rule="evenodd" stroke="none"/>
    <path d="M-63.5 53.55 L-63.95 54.05 -65.5 52.65 -65.05 52.15 -63.5 53.55" fill="#6f6f6f" fill-rule="evenodd" stroke="none"/>
    <path d="M-66.15 50.65 L-67.3 51.9 -67.85 51.4 -66.7 50.15 -66.15 50.65" fill="#6f6f6f" fill-rule="evenodd" stroke="none"/>
    <path d="M-68.35 53.05 L-69.15 53.9 -69.7 53.4 -68.9 52.55 -68.35 53.05" fill="#6f6f6f" fill-rule="evenodd" stroke="none"/>
    <path d="M-61.05 50.5 L-61.5 51.0 -63.05 49.65 -62.6 49.15 -61.05 50.5" fill="#6f6f6f" fill-rule="evenodd" stroke="none"/>
    <path d="M-60.4 46.75 L-59.95 46.25 -58.4 47.6 -58.85 48.1 -60.4 46.75" fill="#6f6f6f" fill-rule="evenodd" stroke="none"/>
    <path d="M-56.3 44.8 L-56.75 45.3 Q-57.5 44.65 -58.3 43.95 L-57.85 43.45 -56.3 44.8" fill="#6f6f6f" fill-rule="evenodd" stroke="none"/>
    <path d="M-66.0 26.0 L-66.0 25.4 -64.4 25.4 -64.4 26.0 -66.0 26.0" fill="#6f6f6f" fill-rule="evenodd" stroke="none"/>
    <path d="M-31.05 -51.75 L-31.05 -50.0 -33.8 -50.0 -33.8 -51.75 -31.05 -51.75" fill="#6f6f6f" fill-rule="evenodd" stroke="none"/>
    <path d="M-23.65 -52.95 L-23.65 -52.05 -25.0 -52.05 -25.0 -52.95 -23.65 -52.95" fill="#6f6f6f" fill-rule="evenodd" stroke="none"/>
    <path d="M-1.95 -50.05 L-1.95 -51.8 0.8 -51.8 0.8 -50.05 -1.95 -50.05" fill="#6f6f6f" fill-rule="evenodd" stroke="none"/>
    <path d="M6.25 -96.75 L6.25 -95.0 3.5 -95.0 3.5 -96.75 6.25 -96.75" fill="#6f6f6f" fill-rule="evenodd" stroke="none"/>
    <path d="M14.2 -95.0 L14.2 -96.75 16.95 -96.75 16.95 -95.0 14.2 -95.0" fill="#6f6f6f" fill-rule="evenodd" stroke="none"/>
    <path d="M4.5 -52.9 L4.5 -52.0 3.15 -52.0 3.15 -52.9 4.5 -52.9" fill="#6f6f6f" fill-rule="evenodd" stroke="none"/>
    <path d="M-12.8 -52.0 L-12.75 -50.9 -14.7 -50.7 -14.8 -51.8 -12.8 -52.0" fill="#6f6f6f" fill-rule="evenodd" stroke="none"/>
    <path d="M-45.7 -7.95 L-45.55 -6.75 -47.45 -6.55 -47.6 -7.75 -45.7 -7.95" fill="#6f6f6f" fill-rule="evenodd" stroke="none"/>
    <path d="M-41.5 -9.7 L-39.6 -9.75 -39.6 -8.65 -41.5 -8.65 -41.5 -9.7" fill="#6f6f6f" fill-rule="evenodd" stroke="none"/>
    <path d="M-44.05 -9.2 L-43.3 -9.5 -43.0 -8.65 -43.75 -8.35 -44.05 -9.2" fill="#6f6f6f" fill-rule="evenodd" stroke="none"/>
    <path d="M-108.25 2.3 L-108.25 1.75 -105.3 1.75 -105.3 3.55 -108.25 3.55 -108.25 2.85 -110.7 2.85 -110.7 12.0 -110.5 12.0 -110.5 14.2 -109.9 14.2 -109.9 16.65 -103.65 16.65 -103.65 15.7 -101.85 15.7 -101.85 18.5 -103.65 18.5 -103.65 17.35 -105.05 17.35 -105.05 19.1 -107.3 19.1 -107.3 20.1 -109.2 20.1 -109.2 18.35 -107.3 18.35 -107.3 18.4 -105.75 18.4 -105.75 17.35 -109.9 17.35 -109.9 21.45 -109.7 21.45 -109.7 26.65 -109.9 26.65 -109.9 24.75 -114.3 24.75 -114.3 23.85 -109.9 23.85 -109.9 22.4 -112.2 22.4 -112.2 14.2 -111.45 14.2 -111.45 12.0 -111.3 12.0 -111.3 10.6 -112.15 10.6 -112.15 12.05 -114.45 12.05 -114.45 8.6 -112.15 8.6 -112.15 10.2 -111.3 10.2 -111.3 2.55 -110.9 2.3 -108.25 2.3" fill="#6f6f6f" fill-rule="evenodd" stroke="none"/>
    <path d="M-97.15 39.3 L-97.15 42.75 -99.45 42.75 -99.45 42.3 -100.7 42.3 -100.7 44.2 -103.1 44.2 -103.1 44.9 -104.9 44.9 -104.9 43.25 -103.1 43.25 -103.1 43.5 -101.4 43.5 -101.4 42.3 -105.55 42.3 -105.55 43.05 -108.7 43.05 -108.7 42.6 -110.65 42.6 -110.65 43.9 -110.4 43.9 -110.4 50.55 -111.45 50.55 -111.45 43.9 -111.35 43.9 -111.35 38.4 -112.2 38.4 -112.2 30.2 -109.9 30.2 -109.9 38.4 -110.65 38.4 -110.65 41.9 -108.7 41.9 -108.7 40.75 -105.55 40.75 -105.55 41.6 -99.45 41.6 -99.45 39.3 -97.15 39.3" fill="#6f6f6f" fill-rule="evenodd" stroke="none"/>
    <path d="M-127.1 39.5 L-127.1 38.35 -128.65 38.35 -128.65 39.5 -127.1 39.5 M-129.35 40.2 L-129.35 38.4 -130.7 38.4 -130.7 40.95 -133.0 40.95 -133.0 37.5 -130.7 37.5 -130.7 37.7 -126.0 37.65 -126.0 37.5 -124.2 37.5 -124.2 35.1 -119.35 35.1 -119.35 38.9 -124.2 38.9 -124.2 38.55 -125.2 38.55 -125.2 40.2 -129.35 40.2" fill="#6f6f6f" fill-rule="evenodd" stroke="none"/>
    <path d="M-118.3 31.15 L-118.3 32.45 -112.25 32.4 -112.25 33.1 -116.4 33.1 -116.4 34.25 -114.65 34.25 -114.65 33.65 -112.95 33.65 -112.95 36.45 -114.65 36.45 -114.65 34.95 -117.1 34.95 -117.1 33.15 -118.3 33.15 -118.3 33.5 -121.75 33.5 -121.75 31.15 -118.3 31.15" fill="#6f6f6f" fill-rule="evenodd" stroke="none"/>
    <path d="M-115.7 11.75 L-115.7 13.45 -120.15 13.45 -120.15 12.65 -122.6 12.65 -122.6 22.05 -122.35 22.05 -122.35 23.9 -115.85 23.9 -115.85 26.25 -123.8 26.25 -123.8 25.55 -124.65 25.55 -124.65 27.35 -123.25 27.35 -123.25 29.05 -126.05 29.05 -126.05 27.35 -125.35 27.35 -125.35 25.55 -126.05 25.55 -126.05 25.45 -131.4 25.45 -131.95 24.8 -131.95 23.2 -131.25 23.2 -131.25 24.55 -131.1 24.75 -126.05 24.75 -126.05 24.5 -123.8 24.5 -123.8 23.9 -123.4 23.9 -123.4 22.05 -123.3 22.05 -123.3 20.45 -125.15 20.45 -125.15 21.4 -127.05 21.4 -127.05 19.65 -125.15 19.65 -125.15 19.75 -123.3 19.75 -123.3 11.95 -120.15 11.95 -120.15 11.75 -115.7 11.75" fill="#6f6f6f" fill-rule="evenodd" stroke="none"/>
    <path d="M-121.85 16.25 L-121.85 14.35 -120.1 14.35 -120.1 16.25 -121.85 16.25" fill="#6f6f6f" fill-rule="evenodd" stroke="none"/>
    <path d="M-125.6 52.85 L-125.6 51.05 -122.65 51.05 -122.65 52.85 -125.6 52.85" fill="#6f6f6f" fill-rule="evenodd" stroke="none"/>
    <path d="M-103.2 52.9 L-103.2 51.1 -100.3 51.1 -100.3 52.9 -103.2 52.9" fill="#6f6f6f" fill-rule="evenodd" stroke="none"/>
    <path d="M-133.0 31.35 L-133.0 34.2 -134.9 34.2 -134.9 31.35 -133.0 31.35" fill="#6f6f6f" fill-rule="evenodd" stroke="none"/>
    <path d="M-122.65 -0.35 L-122.65 1.45 -125.6 1.45 -125.6 -0.35 -122.65 -0.35" fill="#6f6f6f" fill-rule="evenodd" stroke="none"/>
    <path d="M-133.0 9.0 L-133.0 11.85 -134.9 11.85 -134.9 9.0 -133.0 9.0" fill="#6f6f6f" fill-rule="evenodd" stroke="none"/>
    <path d="M-95.9 46.85 L-95.5 47.0 -95.3 47.3 -95.3 47.75 -95.5 48.05 -95.9 48.15 -96.3 48.05 -96.5 47.75 -96.5 47.3 -96.3 47.0 -95.9 46.85" fill="#6f6f6f" fill-rule="evenodd" stroke="none"/>
    <path d="M-127.4 46.75 L-127.0 46.9 -126.8 47.2 -126.8 47.65 -127.0 47.95 -127.4 48.05 -127.8 47.95 -128.0 47.65 -128.0 47.2 -127.8 46.9 -127.4 46.75" fill="#6f6f6f" fill-rule="evenodd" stroke="none"/>
    <path d="M-95.9 6.65 L-95.5 6.8 -95.3 7.1 -95.3 7.55 -95.5 7.85 -95.9 7.95 -96.3 7.85 -96.5 7.55 -96.5 7.1 -96.3 6.8 -95.9 6.65" fill="#6f6f6f" fill-rule="evenodd" stroke="none"/>
    <path d="M-127.9 6.8 L-127.5 6.65 -127.1 6.8 -126.9 7.1 -126.9 7.55 -127.1 7.85 -127.5 7.95 -127.9 7.85 -128.1 7.55 -128.1 7.1 -127.9 6.8" fill="#6f6f6f" fill-rule="evenodd" stroke="none"/>
    <path d="M-108.3 21.45 L-108.1 21.45 -108.1 23.9 -107.15 23.9 -107.1 23.8 -107.0 23.75 -107.0 23.45 -106.3 23.45 -106.3 23.5 -102.7 23.5 -102.7 24.4 -105.0 24.4 -104.95 24.5 -104.95 25.35 -105.45 26.05 -105.7 26.15 -105.7 26.8 -105.25 26.8 -105.25 29.65 -107.15 29.65 -107.15 26.8 -106.35 26.8 -106.35 26.3 -107.1 26.05 -107.6 25.35 -107.6 24.8 -108.1 24.8 -108.1 26.65 -108.3 26.65 -108.3 21.45" fill="#6f6f6f" fill-rule="evenodd" stroke="none"/>
    <path d="M-117.05 19.85 L-117.05 21.65 -119.85 21.65 -119.85 19.85 -117.05 19.85" fill="#6f6f6f" fill-rule="evenodd" stroke="none"/>
    <path d="M-76.65 -95.7 L-77.85 -96.7 -78.55 -95.85 -77.35 -94.85 -76.65 -95.7 M-75.35 -95.55 L-75.25 -95.65 -73.85 -94.5 -72.3 -96.35 -68.6 -93.2 -71.05 -90.3 -74.75 -93.45 -74.55 -93.7 -75.3 -94.3 -76.35 -93.05 -79.55 -95.75 -78.35 -97.15 -79.4 -98.0 -81.05 -96.05 -82.8 -97.5 -80.6 -100.15 -78.8 -98.7 -78.95 -98.5 -75.35 -95.55" fill="#6f6f6f" fill-rule="evenodd" stroke="none"/>
    <path d="M-64.6 -85.55 L-65.25 -86.1 -60.0 -92.35 -58.25 -90.85 -63.5 -84.6 -64.05 -85.1 -66.3 -82.4 -64.8 -81.15 -64.05 -82.05 -61.65 -80.0 -62.2 -79.35 -57.55 -75.45 -56.05 -77.2 -54.3 -75.7 -56.5 -73.05 -58.3 -74.55 -58.0 -74.9 -58.95 -75.7 -60.15 -74.25 -62.0 -75.8 -62.45 -75.25 -63.8 -76.4 -62.75 -77.7 -61.4 -76.55 -61.55 -76.35 -60.25 -75.25 -59.45 -76.15 -62.65 -78.85 -63.15 -78.25 -65.55 -80.3 -65.25 -80.65 -66.75 -81.9 -67.6 -80.9 -67.4 -80.75 -71.65 -75.65 -72.45 -76.3 -68.2 -81.4 -68.1 -81.35 -64.6 -85.55" fill="#6f6f6f" fill-rule="evenodd" stroke="none"/>
    <path d="M-67.9 -97.75 L-65.25 -95.55 -66.1 -94.6 -61.4 -90.75 -61.85 -90.2 -65.05 -92.85 -65.8 -91.95 -64.45 -90.85 -64.05 -91.3 -62.75 -90.2 -64.55 -88.05 -65.85 -89.15 -64.9 -90.3 -66.75 -91.9 -65.6 -93.3 -66.55 -94.05 -66.75 -93.75 -69.4 -96.0 -67.9 -97.75" fill="#6f6f6f" fill-rule="evenodd" stroke="none"/>
    <path d="M-56.75 -113.5 L-54.35 -111.45 -54.2 -111.6 -50.8 -108.75 -51.9 -107.45 -55.3 -110.3 -54.75 -110.95 -56.65 -112.5 -62.7 -105.3 -62.5 -105.15 -63.7 -103.7 -58.75 -99.55 -60.25 -97.75 -66.35 -102.85 -65.9 -103.4 -66.55 -103.9 -67.65 -102.55 -66.6 -101.65 -67.7 -100.35 -69.85 -102.15 -68.75 -103.45 -68.2 -103.0 -67.05 -104.35 -67.6 -104.85 -67.55 -104.95 -71.65 -108.35 -71.65 -109.2 -70.6 -110.45 -70.05 -110.0 -70.95 -108.95 -70.95 -108.7 -67.1 -105.45 -66.95 -105.65 -65.2 -104.2 -64.8 -104.65 -64.5 -104.4 -63.3 -105.8 -63.25 -105.75 -62.2 -107.0 -63.6 -108.15 -64.25 -107.45 -65.7 -108.65 -64.55 -110.0 -63.1 -108.8 -63.15 -108.7 -61.75 -107.5 -56.75 -113.5" fill="#6f6f6f" fill-rule="evenodd" stroke="none"/>
    <path d="M-57.2 -110.7 L-55.85 -109.6 -57.1 -108.15 -58.45 -109.25 -57.2 -110.7" fill="#6f6f6f" fill-rule="evenodd" stroke="none"/>
    <path d="M-81.4 -83.1 L-82.55 -81.7 -84.8 -83.6 -83.65 -85.0 -81.4 -83.1" fill="#6f6f6f" fill-rule="evenodd" stroke="none"/>
    <path d="M-36.4 -109.75 L-37.55 -108.35 -39.85 -110.25 -39.4 -110.8 -41.25 -112.35 -47.15 -105.35 -47.0 -105.2 -48.4 -103.55 -47.95 -103.15 -49.45 -101.25 -44.7 -97.25 -44.1 -98.0 -42.7 -96.85 -44.5 -94.7 -45.9 -95.85 -45.15 -96.7 -46.25 -97.6 -47.35 -96.3 -49.1 -97.75 -49.7 -96.95 -51.2 -98.2 -50.05 -99.55 -48.6 -98.3 -48.65 -98.25 -47.45 -97.25 -46.75 -98.05 -49.95 -100.75 -52.6 -97.6 -52.45 -97.5 -55.8 -93.5 -55.95 -93.6 -54.7 -95.05 -58.05 -97.9 -57.5 -98.6 -54.1 -95.75 -53.2 -96.9 -54.95 -98.35 -49.7 -104.6 -49.15 -104.15 -47.7 -105.85 -47.6 -105.75 -46.7 -106.8 -47.35 -107.35 -48.25 -106.25 -50.05 -107.75 -47.85 -110.4 -46.05 -108.9 -47.1 -107.7 -46.4 -107.1 -41.5 -112.95 -41.05 -112.9 -39.05 -111.25 -38.7 -111.65 -36.4 -109.75" fill="#6f6f6f" fill-rule="evenodd" stroke="none"/>
    <path d="M-66.5 -70.6 L-64.3 -68.7 -65.45 -67.35 -67.65 -69.2 -66.5 -70.6" fill="#6f6f6f" fill-rule="evenodd" stroke="none"/>
    <path d="M-76.65 -104.85 L-78.45 -102.7 -79.95 -103.9 -78.1 -106.1 -76.65 -104.85" fill="#6f6f6f" fill-rule="evenodd" stroke="none"/>
    <path d="M-48.35 -122.5 L-49.5 -121.1 -51.75 -123.0 -50.6 -124.4 -48.35 -122.5" fill="#6f6f6f" fill-rule="evenodd" stroke="none"/>
    <path d="M-62.3 -121.95 L-64.1 -119.8 -65.6 -121.0 -63.75 -123.2 -62.3 -121.95" fill="#6f6f6f" fill-rule="evenodd" stroke="none"/>
    <path d="M-51.35 -96.55 L-51.2 -96.45 -52.8 -94.6 -52.05 -93.95 -51.95 -94.0 -51.85 -93.95 -51.65 -94.2 -51.1 -93.75 -51.15 -93.7 -48.4 -91.4 -49.0 -90.7 -50.75 -92.2 -50.75 -92.1 -51.3 -91.4 -52.15 -91.2 -52.4 -91.3 -52.8 -90.8 -52.45 -90.5 -54.3 -88.35 -55.75 -89.55 -53.9 -91.75 -53.3 -91.2 -53.0 -91.6 -53.4 -92.25 -53.35 -93.15 -53.0 -93.55 -53.4 -93.85 -54.6 -92.45 -54.7 -92.55 -51.35 -96.55" fill="#6f6f6f" fill-rule="evenodd" stroke="none"/>
    <path d="M-58.0 -68.8 L-58.05 -68.4 -58.3 -68.1 -58.7 -68.0 -59.05 -68.15 -59.25 -68.45 -59.25 -68.85 -59.0 -69.2 -58.6 -69.3 -58.2 -69.15 -58.0 -68.8" fill="#6f6f6f" fill-rule="evenodd" stroke="none"/>
    <path d="M-83.3 -89.2 L-83.05 -89.5 -82.65 -89.6 -82.3 -89.45 -82.05 -89.1 -82.1 -88.7 -82.35 -88.4 -82.75 -88.3 -83.1 -88.45 -83.35 -88.8 -83.3 -89.2" fill="#6f6f6f" fill-rule="evenodd" stroke="none"/>
    <path d="M-32.45 -98.85 L-32.85 -98.8 -33.2 -98.95 -33.4 -99.25 -33.4 -99.65 -33.15 -100.0 -32.75 -100.05 -32.35 -99.9 -32.15 -99.6 -32.2 -99.2 -32.45 -98.85" fill="#6f6f6f" fill-rule="evenodd" stroke="none"/>
    <path d="M-56.6 -120.25 L-56.35 -119.9 -56.4 -119.5 -56.65 -119.2 -57.05 -119.1 -57.4 -119.25 -57.65 -119.6 -57.6 -120.0 -57.35 -120.3 -56.95 -120.4 -56.6 -120.25" fill="#6f6f6f" fill-rule="evenodd" stroke="none"/>
    <path d="M-59.15 -105.2 L-57.05 -103.4 -58.2 -102.05 -60.35 -103.85 -59.15 -105.2" fill="#6f6f6f" fill-rule="evenodd" stroke="none"/>
    <path d="M-30.85 120.0 L-31.1 119.6 -31.1 117.0 -31.65 117.0 -31.65 114.05 -29.85 114.05 -29.85 117.0 -30.55 117.0 -30.55 119.45 -21.4 119.45 -21.4 119.25 -19.2 119.25 -19.2 118.6 -16.75 118.6 -16.75 112.35 -17.75 112.35 -17.75 110.55 -14.95 110.55 -14.95 112.35 -16.05 112.35 -16.05 113.75 -14.3 113.75 -14.3 116.0 -13.3 116.0 -13.3 117.95 -15.05 117.95 -15.05 116.0 -15.0 116.0 -15.0 114.5 -16.05 114.5 -16.05 118.6 -12.0 118.6 -12.0 118.45 -6.75 118.45 -6.75 118.65 -8.7 118.65 -8.7 123.0 -9.55 123.0 -9.55 118.65 -11.0 118.65 -11.0 120.95 -19.2 120.95 -19.2 120.2 -21.4 120.2 -21.4 120.0 -22.8 120.0 -22.8 120.9 -21.4 120.9 -21.4 123.2 -24.85 123.2 -24.85 120.9 -23.25 120.9 -23.25 120.0 -30.85 120.0" fill="#6f6f6f" fill-rule="evenodd" stroke="none"/>
    <path d="M-1.0 121.0 L-0.3 120.95 -0.3 125.1 0.8 125.1 0.8 123.35 0.25 123.35 0.25 121.7 3.0 121.7 3.0 123.35 1.5 123.35 1.5 125.8 -0.3 125.8 -0.3 127.0 0.05 127.0 0.05 130.5 -2.25 130.5 -2.25 127.0 -1.0 127.0 -1.0 121.0" fill="#6f6f6f" fill-rule="evenodd" stroke="none"/>
    <path d="M-6.05 133.35 L-6.05 132.0 -4.35 132.0 -4.35 134.75 -6.05 134.75 -6.05 134.05 -7.85 134.05 -7.85 134.8 -8.0 134.8 -8.0 140.15 -8.6 140.7 -10.25 140.7 -10.25 140.0 -8.85 140.0 -8.7 139.8 -8.7 134.8 -8.9 134.8 -8.9 132.5 -9.5 132.5 -9.5 132.1 -11.35 132.1 -11.35 132.0 -13.0 132.0 -13.0 133.85 -12.0 133.85 -12.0 135.75 -13.75 135.75 -13.75 133.85 -13.7 133.85 -13.7 132.0 -21.5 132.0 -21.5 128.85 -21.7 128.85 -21.7 124.45 -20.0 124.45 -20.0 128.85 -20.75 128.85 -20.75 131.3 -11.35 131.3 -11.35 131.05 -9.5 131.05 -9.5 124.55 -7.15 124.55 -7.15 132.5 -7.85 132.5 -7.85 133.35 -6.05 133.35" fill="#6f6f6f" fill-rule="evenodd" stroke="none"/>
    <path d="M6.05 135.8 L4.95 135.8 4.95 137.35 6.05 137.35 6.05 135.8 M1.7 132.95 L1.7 128.05 5.5 128.05 5.5 132.95 5.15 132.95 5.15 133.95 6.75 133.95 6.75 138.05 4.95 138.05 4.95 139.4 7.5 139.4 7.5 141.75 4.05 141.75 4.05 139.4 4.25 139.4 4.25 134.75 4.1 134.75 4.1 132.95 1.7 132.95" fill="#6f6f6f" fill-rule="evenodd" stroke="none"/>
    <path d="M8.2 108.2 L5.9 108.2 5.9 105.85 9.35 105.85 9.35 108.2 8.9 108.2 8.9 109.45 10.75 109.45 10.75 111.8 11.5 111.8 11.5 113.6 9.8 113.6 9.8 111.8 10.05 111.8 10.05 110.1 8.9 110.1 8.9 114.25 9.65 114.25 9.65 117.45 9.2 117.45 9.2 119.35 10.5 119.35 10.5 119.1 17.15 119.1 17.15 120.2 10.5 120.2 10.5 120.05 5.0 120.05 5.0 120.95 -3.2 120.95 -3.2 118.6 5.0 118.6 5.0 119.35 8.5 119.35 8.5 117.45 7.3 117.45 7.3 114.25 8.2 114.25 8.2 108.2" fill="#6f6f6f" fill-rule="evenodd" stroke="none"/>
    <path d="M-17.15 130.6 L-19.05 130.6 -19.05 128.85 -17.15 128.85 -17.15 130.6" fill="#6f6f6f" fill-rule="evenodd" stroke="none"/>
    <path d="M17.65 134.3 L17.65 131.35 19.45 131.35 19.45 134.3 17.65 134.3" fill="#6f6f6f" fill-rule="evenodd" stroke="none"/>
    <path d="M17.7 111.95 L17.7 109.0 19.5 109.0 19.5 111.95 17.7 111.95" fill="#6f6f6f" fill-rule="evenodd" stroke="none"/>
    <path d="M-2.05 143.6 L-2.05 141.75 0.75 141.75 0.75 143.6 -2.05 143.6" fill="#6f6f6f" fill-rule="evenodd" stroke="none"/>
    <path d="M-33.75 134.3 L-33.75 131.35 -32.0 131.35 -32.0 134.3 -33.75 134.3" fill="#6f6f6f" fill-rule="evenodd" stroke="none"/>
    <path d="M-24.4 143.6 L-24.4 141.75 -21.55 141.75 -21.55 143.6 -24.4 143.6" fill="#6f6f6f" fill-rule="evenodd" stroke="none"/>
    <path d="M-8.9 113.7 L-8.05 113.7 -7.35 114.2 -7.25 114.45 -6.6 114.45 -6.6 114.0 -3.75 114.0 -3.75 115.85 -6.6 115.85 -6.6 115.05 -7.1 115.05 -7.35 115.85 -8.05 116.35 -8.6 116.35 -8.6 116.85 -6.75 116.85 -6.75 117.05 -12.0 117.05 -12.0 116.85 -9.5 116.85 -9.5 115.9 -9.6 115.85 -9.65 115.75 -10.0 115.75 -10.0 115.0 -9.95 115.0 -9.95 111.45 -9.0 111.45 -9.0 113.75 -8.9 113.7" fill="#6f6f6f" fill-rule="evenodd" stroke="none"/>
    <path d="M13.9 104.0 L14.3 104.0 14.65 104.25 14.75 104.65 14.65 105.0 14.3 105.25 13.9 105.25 13.6 105.0 13.45 104.65 13.6 104.25 13.9 104.0" fill="#6f6f6f" fill-rule="evenodd" stroke="none"/>
    <path d="M13.5 135.75 L13.8 135.5 14.2 135.5 14.55 135.75 14.65 136.15 14.55 136.5 14.2 136.75 13.8 136.75 13.5 136.5 13.35 136.15 13.5 135.75" fill="#6f6f6f" fill-rule="evenodd" stroke="none"/>
    <path d="M-26.3 104.0 L-25.9 104.0 -25.55 104.25 -25.45 104.65 -25.55 105.0 -25.9 105.25 -26.3 105.25 -26.6 105.0 -26.75 104.65 -26.6 104.25 -26.3 104.0" fill="#6f6f6f" fill-rule="evenodd" stroke="none"/>
    <path d="M-25.9 135.6 L-25.55 135.85 -25.45 136.25 -25.55 136.6 -25.9 136.85 -26.3 136.85 -26.6 136.6 -26.75 136.25 -26.6 135.85 -26.3 135.6 -25.9 135.6" fill="#6f6f6f" fill-rule="evenodd" stroke="none"/>
    <path d="M-11.75 128.55 L-13.55 128.55 -13.55 125.75 -11.75 125.75 -11.75 128.55" fill="#6f6f6f" fill-rule="evenodd" stroke="none"/>
    <path d="M-61.3 93.95 L-58.65 96.15 -60.15 97.95 -60.5 97.65 -61.3 98.6 -59.85 99.8 -61.4 101.65 -60.85 102.1 -62.05 103.5 -63.3 102.4 -62.15 101.05 -61.95 101.2 -60.85 99.9 -61.75 99.15 -64.45 102.3 -63.85 102.8 -65.9 105.2 -66.25 104.9 -67.5 106.4 -66.5 107.25 -66.35 107.05 -61.25 111.35 -61.9 112.15 -67.0 107.85 -66.95 107.8 -71.15 104.25 -71.7 104.9 -77.95 99.65 -76.5 97.9 -70.2 103.15 -70.7 103.7 -68.0 105.95 -66.75 104.45 -67.65 103.7 -65.65 101.3 -65.0 101.85 -61.05 97.2 -62.8 95.75 -61.3 93.95" fill="#6f6f6f" fill-rule="evenodd" stroke="none"/>
    <path d="M-81.3 116.3 L-82.3 117.5 -81.45 118.2 -80.45 117.0 -81.3 116.3 M-79.05 114.4 L-79.3 114.2 -79.9 114.95 -78.7 116.0 -79.75 117.3 -79.9 117.45 -81.35 119.2 -82.75 118.0 -83.6 119.05 -81.65 120.7 -83.15 122.45 -85.75 120.25 -84.3 118.5 -84.15 118.6 -81.15 115.0 -81.25 114.9 -80.1 113.5 -81.95 111.95 -78.8 108.25 -75.9 110.7 -79.05 114.4" fill="#6f6f6f" fill-rule="evenodd" stroke="none"/>
    <path d="M-76.35 101.1 L-75.8 101.5 -78.45 104.75 -77.6 105.45 -76.45 104.1 -76.9 103.7 -75.8 102.4 -73.7 104.2 -74.75 105.5 -75.9 104.55 -77.5 106.45 -78.9 105.25 -79.65 106.2 -79.4 106.4 -81.6 109.05 -83.35 107.55 -81.15 104.95 -80.2 105.75 -76.35 101.1" fill="#6f6f6f" fill-rule="evenodd" stroke="none"/>
    <path d="M-97.05 94.0 L-97.25 93.85 -94.35 90.45 -93.05 91.55 -95.9 94.95 -96.55 94.45 -98.1 96.3 -90.9 102.35 -90.75 102.15 -89.3 103.35 -85.15 98.4 -83.35 99.9 -88.45 106.0 -89.0 105.55 -89.55 106.2 -88.15 107.35 -87.25 106.25 -85.95 107.35 -87.75 109.5 -89.05 108.4 -88.6 107.85 -90.0 106.7 -90.45 107.3 -90.55 107.2 -93.95 111.3 -94.8 111.3 -96.05 110.25 -95.6 109.7 -94.55 110.6 -94.3 110.6 -91.1 106.75 -91.25 106.6 -89.8 104.85 -90.25 104.5 -90.0 104.15 -91.45 102.95 -91.35 102.9 -92.6 101.85 -93.8 103.3 -93.05 103.9 -94.25 105.35 -95.6 104.2 -94.4 102.75 -94.3 102.85 -93.1 101.4 -99.1 96.4 -97.05 94.0" fill="#6f6f6f" fill-rule="evenodd" stroke="none"/>
    <path d="M-94.85 98.1 L-96.3 96.85 -95.2 95.5 -93.75 96.75 -94.85 98.1" fill="#6f6f6f" fill-rule="evenodd" stroke="none"/>
    <path d="M-67.35 122.2 L-69.25 124.45 -70.6 123.3 -68.7 121.05 -67.35 122.2" fill="#6f6f6f" fill-rule="evenodd" stroke="none"/>
    <path d="M-82.85 84.35 L-83.6 83.75 -82.45 82.35 -80.3 84.15 -81.45 85.55 -82.3 84.8 -83.2 85.9 -81.9 87.0 -83.35 88.75 -82.55 89.4 -83.8 90.85 -85.15 89.7 -83.9 88.25 -83.85 88.3 -82.9 87.1 -83.65 86.45 -86.35 89.6 -83.2 92.25 -83.1 92.1 -79.1 95.45 -79.2 95.6 -80.7 94.35 -83.5 97.75 -84.2 97.15 -81.35 93.8 -82.5 92.85 -83.95 94.6 -90.2 89.35 -89.75 88.8 -91.45 87.35 -91.35 87.25 -92.4 86.35 -92.95 87.0 -91.85 87.95 -93.35 89.7 -96.0 87.5 -94.5 85.7 -93.3 86.75 -92.75 86.1 -98.55 81.15 -98.5 80.7 -96.85 78.7 -97.25 78.35 -95.35 76.1 -93.95 77.25 -95.85 79.5 -96.4 79.05 -98.0 80.95 -90.95 86.8 -90.85 86.65 -89.15 88.05 -88.75 87.6 -86.9 89.15 -82.85 84.35" fill="#6f6f6f" fill-rule="evenodd" stroke="none"/>
    <path d="M-56.2 106.15 L-54.3 103.95 -52.95 105.1 -54.8 107.3 -56.2 106.15" fill="#6f6f6f" fill-rule="evenodd" stroke="none"/>
    <path d="M-91.7 117.75 L-90.45 116.3 -88.3 118.15 -89.5 119.6 -91.7 117.75" fill="#6f6f6f" fill-rule="evenodd" stroke="none"/>
    <path d="M-106.7 89.15 L-108.6 91.4 -110.0 90.25 -108.1 88.0 -106.7 89.15" fill="#6f6f6f" fill-rule="evenodd" stroke="none"/>
    <path d="M-108.8 103.4 L-107.55 101.95 -105.4 103.8 -106.6 105.25 -108.8 103.4" fill="#6f6f6f" fill-rule="evenodd" stroke="none"/>
    <path d="M-77.0 88.05 L-76.3 88.65 -77.8 90.4 -77.7 90.45 -77.0 91.0 -76.8 91.8 -76.9 92.05 -76.4 92.45 -76.1 92.1 -73.95 93.95 -75.15 95.4 -77.35 93.55 -76.85 92.95 -77.2 92.65 -77.85 93.1 -78.75 93.0 -79.15 92.65 -79.5 93.05 -78.05 94.25 -78.2 94.35 -82.2 91.0 -82.05 90.9 -80.2 92.45 -79.6 91.75 -79.6 91.65 -79.55 91.5 -79.8 91.3 -79.35 90.75 -79.3 90.8 -77.0 88.05" fill="#6f6f6f" fill-rule="evenodd" stroke="none"/>
    <path d="M-54.0 97.7 L-53.7 97.95 -53.6 98.35 -53.75 98.7 -54.1 98.9 -54.5 98.9 -54.8 98.65 -54.9 98.25 -54.75 97.85 -54.4 97.65 -54.0 97.7" fill="#6f6f6f" fill-rule="evenodd" stroke="none"/>
    <path d="M-74.3 121.75 L-74.0 122.0 -73.9 122.4 -74.05 122.75 -74.4 123.0 -74.8 122.95 -75.1 122.7 -75.2 122.3 -75.05 121.95 -74.7 121.7 -74.3 121.75" fill="#6f6f6f" fill-rule="evenodd" stroke="none"/>
    <path d="M-85.2 71.8 L-84.8 71.85 -84.5 72.1 -84.4 72.5 -84.55 72.85 -84.85 73.1 -85.25 73.05 -85.6 72.8 -85.7 72.4 -85.55 72.05 -85.2 71.8" fill="#6f6f6f" fill-rule="evenodd" stroke="none"/>
    <path d="M-105.1 96.05 L-104.8 96.3 -104.7 96.7 -104.85 97.05 -105.2 97.3 -105.6 97.25 -105.9 97.0 -106.0 96.6 -105.85 96.25 -105.5 96.0 -105.1 96.05" fill="#6f6f6f" fill-rule="evenodd" stroke="none"/>
    <path d="M-89.45 100.0 L-90.85 98.85 -89.05 96.7 -87.65 97.85 -89.45 100.0" fill="#6f6f6f" fill-rule="evenodd" stroke="none"/>
    <path d="M64.9 84.0 L65.5 83.65 67.6 87.25 Q68.1 87.0 68.55 86.7 L67.7 85.15 67.15 85.45 66.3 84.0 68.75 82.6 69.6 84.05 68.3 84.8 69.5 86.95 67.95 87.85 68.55 88.9 68.85 88.7 70.6 91.7 68.55 92.85 66.85 89.85 67.95 89.25 64.9 84.0" fill="#6f6f6f" fill-rule="evenodd" stroke="none"/>
    <path d="M38.55 98.1 L38.15 97.9 36.8 95.65 36.35 95.9 34.9 93.35 36.45 92.45 37.9 95.0 37.3 95.35 38.55 97.45 46.45 92.9 46.35 92.7 48.3 91.6 47.95 91.05 50.35 89.7 50.05 89.85 46.95 84.45 46.1 84.9 45.2 83.35 47.65 81.95 48.55 83.5 47.55 84.1 48.25 85.3 49.75 84.45 50.9 86.4 51.75 85.9 52.7 87.55 51.2 88.4 50.25 86.75 50.3 86.75 49.5 85.4 48.6 85.9 50.65 89.5 54.2 87.45 54.15 87.3 58.65 84.7 58.75 84.85 57.1 85.8 59.25 89.6 58.5 90.05 56.3 86.25 Q55.7 86.65 55.05 87.0 L56.2 89.0 49.1 93.05 48.75 92.4 46.85 93.55 46.75 93.4 45.55 94.1 46.0 94.85 47.2 94.1 48.35 96.15 45.35 97.85 44.2 95.85 45.6 95.05 45.15 94.3 38.55 98.1" fill="#6f6f6f" fill-rule="evenodd" stroke="none"/>
    <path d="M77.45 93.9 L78.25 95.25 79.2 94.65 78.45 93.35 77.45 93.9 M73.2 93.0 L70.75 88.8 74.05 86.9 76.5 91.1 76.2 91.3 76.7 92.15 78.1 91.35 80.2 94.95 78.6 95.85 79.3 97.0 81.5 95.7 82.65 97.7 79.65 99.45 78.5 97.45 78.7 97.35 76.3 93.3 76.2 93.4 75.3 91.8 73.2 93.0" fill="#6f6f6f" fill-rule="evenodd" stroke="none"/>
    <path d="M66.0 96.05 L67.45 95.2 68.85 97.65 67.4 98.5 67.05 97.9 65.5 98.8 65.9 99.4 65.75 99.45 68.45 104.1 68.15 104.85 66.75 105.7 66.4 105.05 67.6 104.4 67.65 104.15 65.15 99.8 64.95 99.95 63.85 97.95 63.3 98.25 63.1 97.9 61.5 98.85 61.45 98.75 60.05 99.55 61.0 101.15 61.8 100.7 62.75 102.35 61.25 103.2 60.3 101.55 60.35 101.5 59.45 99.9 52.7 103.8 51.1 101.1 50.95 101.2 48.7 97.35 50.2 96.5 52.4 100.35 51.7 100.75 52.95 102.85 61.1 98.15 60.95 97.95 62.6 97.0 59.35 91.35 61.35 90.2 65.35 97.1 64.75 97.45 65.15 98.15 66.7 97.3 66.0 96.05" fill="#6f6f6f" fill-rule="evenodd" stroke="none"/>
    <path d="M66.45 68.35 L64.5 69.5 63.3 67.45 66.3 65.75 67.45 67.75 67.05 68.0 67.65 69.05 69.3 68.1 70.5 70.2 71.15 69.85 72.05 71.4 70.6 72.25 69.7 70.65 69.9 70.55 69.05 69.05 68.0 69.65 70.1 73.25 70.75 72.9 72.3 75.6 71.95 75.85 72.9 77.55 74.05 76.9 73.9 76.65 79.65 73.35 80.2 74.25 74.45 77.6 74.4 77.5 69.6 80.25 70.05 81.0 62.95 85.05 61.8 83.05 68.9 79.0 69.25 79.65 72.3 77.9 71.35 76.2 70.35 76.75 68.75 74.05 69.5 73.6 66.45 68.35" fill="#6f6f6f" fill-rule="evenodd" stroke="none"/>
    <path d="M54.1 101.35 L53.2 99.85 Q54.05 99.4 54.85 98.9 L55.7 100.4 54.1 101.35" fill="#6f6f6f" fill-rule="evenodd" stroke="none"/>
    <path d="M86.25 83.7 L87.8 82.8 89.3 85.35 87.7 86.25 86.25 83.7" fill="#6f6f6f" fill-rule="evenodd" stroke="none"/>
    <path d="M76.65 63.4 L78.1 65.95 76.55 66.85 75.1 64.3 76.65 63.4" fill="#6f6f6f" fill-rule="evenodd" stroke="none"/>
    <path d="M74.35 102.5 L76.8 101.1 77.75 102.75 75.3 104.15 74.35 102.5" fill="#6f6f6f" fill-rule="evenodd" stroke="none"/>
    <path d="M43.25 108.5 L44.75 111.05 43.2 111.95 41.7 109.4 43.25 108.5" fill="#6f6f6f" fill-rule="evenodd" stroke="none"/>
    <path d="M55.0 113.7 L57.5 112.25 58.45 113.9 55.95 115.3 55.0 113.7" fill="#6f6f6f" fill-rule="evenodd" stroke="none"/>
    <path d="M69.25 62.65 L69.15 62.25 69.35 61.85 69.7 61.65 70.1 61.7 70.4 62.0 70.45 62.35 70.3 62.75 69.95 62.95 69.55 62.9 69.25 62.65" fill="#6f6f6f" fill-rule="evenodd" stroke="none"/>
    <path d="M85.95 90.05 L85.6 90.25 85.2 90.25 84.9 89.95 84.85 89.55 85.0 89.2 85.35 89.0 85.75 89.05 86.05 89.3 86.1 89.7 85.95 90.05" fill="#6f6f6f" fill-rule="evenodd" stroke="none"/>
    <path d="M35.15 83.05 L34.75 83.0 34.45 82.75 34.35 82.35 34.5 81.95 34.85 81.75 35.25 81.8 35.55 82.1 35.65 82.45 35.5 82.85 35.15 83.05" fill="#6f6f6f" fill-rule="evenodd" stroke="none"/>
    <path d="M51.05 109.2 L51.35 109.45 51.45 109.85 51.3 110.2 50.95 110.4 50.55 110.35 50.25 110.1 50.15 109.7 50.3 109.35 50.65 109.15 51.05 109.2" fill="#6f6f6f" fill-rule="evenodd" stroke="none"/>
    <path d="M56.75 81.15 L56.55 80.75 59.0 79.35 59.95 81.0 57.5 82.4 57.1 81.7 56.65 81.95 56.85 82.75 56.5 83.5 56.0 83.8 56.25 84.25 57.85 83.3 57.95 83.45 53.4 86.05 53.35 85.9 55.45 84.7 55.0 83.85 54.9 83.85 54.8 83.8 54.5 83.95 54.15 83.35 54.2 83.3 52.4 80.2 53.2 79.75 54.35 81.75 54.4 81.65 55.15 81.2 56.0 81.3 56.2 81.45 56.75 81.15" fill="#6f6f6f" fill-rule="evenodd" stroke="none"/>
    <path d="M56.4 94.45 L57.95 93.55 59.35 96.0 57.8 96.85 56.4 94.45" fill="#6f6f6f" fill-rule="evenodd" stroke="none"/>
    <path d="M0.7 -127.2 L0.7 -128.9 2.2 -128.9 2.2 -131.35 4.0 -131.35 4.0 -132.55 3.65 -132.55 3.65 -136.0 5.95 -136.0 5.95 -132.55 4.7 -132.55 4.75 -126.5 4.05 -126.5 4.0 -130.65 2.9 -130.65 2.9 -128.9 3.5 -128.9 3.5 -127.2 0.7 -127.2" fill="#6f6f6f" fill-rule="evenodd" stroke="none"/>
    <path d="M13.95 -146.2 L13.95 -145.5 12.55 -145.5 12.4 -145.35 12.4 -140.35 12.6 -140.35 12.6 -138.05 13.2 -138.05 13.2 -137.65 15.1 -137.65 15.1 -137.55 16.7 -137.55 16.7 -139.4 15.75 -139.4 15.75 -141.3 17.5 -141.3 17.5 -139.4 17.4 -139.4 17.4 -137.55 25.2 -137.55 25.2 -134.4 25.4 -134.4 25.4 -129.95 23.7 -129.95 23.7 -134.4 24.5 -134.4 24.5 -136.85 15.1 -136.85 15.1 -136.6 13.2 -136.6 13.2 -130.1 10.85 -130.1 10.85 -138.05 11.55 -138.05 11.55 -138.9 9.8 -138.9 9.8 -137.5 8.1 -137.5 8.1 -140.3 9.8 -140.3 9.8 -139.6 11.55 -139.6 11.55 -140.35 11.7 -140.35 11.7 -145.65 12.3 -146.2 13.95 -146.2" fill="#6f6f6f" fill-rule="evenodd" stroke="none"/>
    <path d="M-1.25 -142.9 L-2.35 -142.9 -2.35 -141.35 -1.25 -141.35 -1.25 -142.9 M-0.35 -147.25 L-0.35 -144.95 -0.55 -144.95 -0.5 -140.3 -0.4 -140.3 -0.4 -138.45 2.05 -138.45 2.05 -133.6 -1.75 -133.6 -1.75 -138.45 -1.45 -138.45 -1.45 -139.45 -3.05 -139.45 -3.05 -143.6 -1.25 -143.6 -1.25 -144.95 -3.8 -144.95 -3.8 -147.25 -0.35 -147.25" fill="#6f6f6f" fill-rule="evenodd" stroke="none"/>
    <path d="M-1.25 -126.45 L6.9 -126.45 6.9 -124.15 -1.25 -124.15 -1.25 -124.9 -4.75 -124.9 -4.75 -122.95 -3.6 -122.95 -3.6 -119.8 -4.45 -119.8 -4.45 -113.7 -2.2 -113.7 -2.2 -111.4 -5.65 -111.4 -5.65 -113.7 -5.15 -113.7 -5.15 -114.95 -7.05 -114.95 -7.05 -117.35 -7.75 -117.35 -7.75 -119.15 -6.1 -119.15 -6.1 -117.35 -6.35 -117.35 -6.35 -115.65 -5.15 -115.65 -5.15 -119.8 -5.9 -119.8 -5.9 -122.95 -5.45 -122.95 -5.45 -124.9 -6.75 -124.9 -6.75 -124.65 -13.4 -124.65 -13.4 -125.7 -6.75 -125.7 -6.75 -125.6 -1.25 -125.6 -1.25 -126.45" fill="#6f6f6f" fill-rule="evenodd" stroke="none"/>
    <path d="M22.75 -134.4 L20.85 -134.4 20.85 -136.15 22.75 -136.15 22.75 -134.4" fill="#6f6f6f" fill-rule="evenodd" stroke="none"/>
    <path d="M-13.95 -139.85 L-13.95 -136.9 -15.75 -136.9 -15.75 -139.85 -13.95 -139.85" fill="#6f6f6f" fill-rule="evenodd" stroke="none"/>
    <path d="M12.4 -128.55 L13.3 -128.55 13.3 -124.15 14.75 -124.15 14.75 -126.45 22.9 -126.45 22.9 -125.7 25.15 -125.7 25.15 -125.55 26.5 -125.55 26.5 -126.4 25.1 -126.4 25.1 -128.75 28.55 -128.75 28.55 -126.4 26.95 -126.4 26.95 -125.55 34.6 -125.55 34.85 -125.15 34.85 -122.55 35.4 -122.55 35.4 -119.6 33.6 -119.6 33.6 -122.55 34.3 -122.55 34.3 -125.0 25.15 -125.0 25.15 -124.75 22.9 -124.75 22.9 -124.15 20.5 -124.15 20.5 -117.9 21.45 -117.9 21.45 -116.1 18.65 -116.1 18.65 -117.9 19.8 -117.9 19.8 -119.3 18.05 -119.3 18.05 -121.55 17.05 -121.55 17.05 -123.45 18.8 -123.45 18.8 -121.55 18.75 -121.55 18.75 -120.0 19.8 -120.0 19.8 -124.15 15.7 -124.15 15.7 -124.0 10.45 -124.0 10.45 -124.15 12.4 -124.15 12.4 -128.55" fill="#6f6f6f" fill-rule="evenodd" stroke="none"/>
    <path d="M-13.95 -117.45 L-13.95 -114.55 -15.75 -114.55 -15.75 -117.45 -13.95 -117.45" fill="#6f6f6f" fill-rule="evenodd" stroke="none"/>
    <path d="M5.8 -149.15 L5.8 -147.25 2.95 -147.25 2.95 -149.15 5.8 -149.15" fill="#6f6f6f" fill-rule="evenodd" stroke="none"/>
    <path d="M37.5 -139.85 L37.5 -136.9 35.7 -136.9 35.7 -139.85 37.5 -139.85" fill="#6f6f6f" fill-rule="evenodd" stroke="none"/>
    <path d="M28.1 -149.15 L28.1 -147.25 25.25 -147.25 25.25 -149.15 28.1 -149.15" fill="#6f6f6f" fill-rule="evenodd" stroke="none"/>
    <path d="M15.7 -122.55 L15.7 -122.4 13.25 -122.4 13.25 -121.45 13.35 -121.35 13.35 -121.25 13.7 -121.25 13.7 -120.55 13.65 -120.55 13.65 -116.95 12.7 -116.95 12.7 -119.3 12.65 -119.2 11.75 -119.2 11.05 -119.7 11.0 -119.95 10.35 -119.95 10.35 -119.5 7.5 -119.5 7.5 -121.4 10.35 -121.4 10.35 -120.6 10.8 -120.6 11.05 -121.35 11.75 -121.9 12.3 -121.9 12.3 -122.4 10.45 -122.4 10.45 -122.55 15.7 -122.55" fill="#6f6f6f" fill-rule="evenodd" stroke="none"/>
    <path d="M-10.9 -110.55 L-10.6 -110.8 -10.2 -110.8 -9.85 -110.55 -9.75 -110.15 -9.85 -109.8 -10.2 -109.55 -10.6 -109.55 -10.9 -109.8 -11.05 -110.15 -10.9 -110.55" fill="#6f6f6f" fill-rule="evenodd" stroke="none"/>
    <path d="M-10.1 -142.3 L-9.75 -142.05 -9.65 -141.65 -9.75 -141.3 -10.1 -141.05 -10.5 -141.05 -10.8 -141.3 -10.95 -141.65 -10.8 -142.05 -10.5 -142.3 -10.1 -142.3" fill="#6f6f6f" fill-rule="evenodd" stroke="none"/>
    <path d="M29.3 -110.55 L29.6 -110.8 30.0 -110.8 Q30.2 -110.65 30.35 -110.55 L30.45 -110.15 30.35 -109.8 30.0 -109.55 29.6 -109.55 29.3 -109.8 29.15 -110.15 29.3 -110.55" fill="#6f6f6f" fill-rule="evenodd" stroke="none"/>
    <path d="M30.35 -142.15 L30.45 -141.75 30.35 -141.4 30.0 -141.15 29.6 -141.15 29.3 -141.4 29.15 -141.75 29.3 -142.15 29.6 -142.4 30.0 -142.4 Q30.2 -142.25 30.35 -142.15" fill="#6f6f6f" fill-rule="evenodd" stroke="none"/>
    <path d="M17.3 -131.3 L15.5 -131.3 15.5 -134.1 17.3 -134.1 17.3 -131.3" fill="#6f6f6f" fill-rule="evenodd" stroke="none"/>
    <path d="M65.2 -114.15 L64.15 -114.9 64.0 -114.7 58.55 -118.5 59.15 -119.35 64.6 -115.55 64.55 -115.45 69.05 -112.3 69.55 -113.0 76.25 -108.3 74.9 -106.45 68.2 -111.1 68.65 -111.75 65.8 -113.75 64.65 -112.15 65.6 -111.5 63.8 -108.9 63.1 -109.4 59.6 -104.4 61.5 -103.1 60.15 -101.2 57.3 -103.2 58.65 -105.05 59.05 -104.8 59.75 -105.8 58.2 -106.9 59.55 -108.85 59.0 -109.25 60.05 -110.75 61.4 -109.8 60.35 -108.35 60.15 -108.45 59.15 -107.1 60.15 -106.4 62.55 -109.8 61.9 -110.2 63.75 -112.8 64.1 -112.55 65.2 -114.15" fill="#6f6f6f" fill-rule="evenodd" stroke="none"/>
    <path d="M79.0 -126.45 L78.1 -127.1 77.2 -125.85 78.1 -125.2 79.0 -126.45 M80.9 -127.65 L80.75 -127.75 78.1 -123.9 78.2 -123.8 77.15 -122.35 79.15 -120.95 76.35 -116.95 73.25 -119.15 76.0 -123.1 76.3 -122.95 76.85 -123.75 75.5 -124.7 77.9 -128.1 79.4 -127.05 80.15 -128.15 78.05 -129.6 79.4 -131.5 82.2 -129.5 80.9 -127.65" fill="#6f6f6f" fill-rule="evenodd" stroke="none"/>
    <path d="M75.2 -115.05 L76.65 -114.0 77.35 -115.0 77.05 -115.2 79.05 -118.0 80.95 -116.7 78.95 -113.85 77.9 -114.6 74.5 -109.6 73.9 -110.0 76.25 -113.4 75.35 -114.05 74.35 -112.65 74.85 -112.3 73.85 -110.9 71.55 -112.5 72.55 -113.9 73.75 -113.05 75.2 -115.05" fill="#6f6f6f" fill-rule="evenodd" stroke="none"/>
    <path d="M91.15 -121.3 L92.0 -121.4 93.3 -120.45 92.9 -119.9 91.8 -120.65 91.55 -120.65 88.7 -116.55 88.85 -116.4 87.55 -114.55 88.05 -114.2 87.8 -113.85 89.35 -112.8 89.3 -112.7 90.6 -111.8 91.65 -113.3 90.9 -113.85 92.0 -115.4 93.4 -114.4 92.35 -112.85 92.25 -112.9 91.2 -111.4 97.55 -106.9 95.75 -104.35 95.95 -104.25 93.4 -100.6 92.0 -101.55 94.55 -105.2 95.2 -104.75 96.6 -106.75 88.9 -112.15 88.75 -111.95 87.2 -113.0 83.5 -107.7 81.55 -109.05 86.15 -115.55 86.7 -115.15 87.2 -115.85 85.75 -116.85 84.95 -115.7 83.55 -116.7 85.15 -119.0 86.55 -118.0 86.15 -117.45 87.6 -116.4 88.0 -117.0 88.1 -116.95 91.15 -121.3" fill="#6f6f6f" fill-rule="evenodd" stroke="none"/>
    <path d="M93.2 -108.25 L94.75 -107.15 93.75 -105.7 92.2 -106.8 93.2 -108.25" fill="#6f6f6f" fill-rule="evenodd" stroke="none"/>
    <path d="M66.85 -131.25 L65.15 -128.85 63.7 -129.85 65.35 -132.3 66.85 -131.25" fill="#6f6f6f" fill-rule="evenodd" stroke="none"/>
    <path d="M54.0 -112.9 L52.3 -110.55 50.85 -111.55 52.5 -113.95 54.0 -112.9" fill="#6f6f6f" fill-rule="evenodd" stroke="none"/>
    <path d="M84.9 -127.65 L86.0 -129.2 88.35 -127.55 87.25 -126.0 84.9 -127.65" fill="#6f6f6f" fill-rule="evenodd" stroke="none"/>
    <path d="M107.5 -102.8 L108.95 -101.75 107.3 -99.35 105.8 -100.35 107.5 -102.8" fill="#6f6f6f" fill-rule="evenodd" stroke="none"/>
    <path d="M104.3 -116.4 L106.6 -114.75 105.55 -113.2 103.2 -114.8 104.3 -116.4" fill="#6f6f6f" fill-rule="evenodd" stroke="none"/>
    <path d="M52.95 -104.3 L52.55 -104.3 52.2 -104.5 52.05 -104.9 52.2 -105.25 52.5 -105.5 52.9 -105.5 53.25 -105.3 53.35 -104.9 53.25 -104.5 52.95 -104.3" fill="#6f6f6f" fill-rule="evenodd" stroke="none"/>
    <path d="M71.05 -131.25 L71.4 -131.05 71.5 -130.65 71.4 -130.25 71.1 -130.05 70.7 -130.0 70.35 -130.25 70.2 -130.65 70.35 -131.0 70.65 -131.25 71.05 -131.25" fill="#6f6f6f" fill-rule="evenodd" stroke="none"/>
    <path d="M86.15 -82.25 L86.3 -81.85 86.2 -81.45 85.85 -81.25 85.45 -81.2 85.15 -81.45 85.0 -81.85 85.1 -82.2 85.45 -82.45 85.85 -82.45 86.15 -82.25" fill="#6f6f6f" fill-rule="evenodd" stroke="none"/>
    <path d="M103.95 -108.35 L104.3 -108.1 104.4 -107.75 104.3 -107.35 104.0 -107.1 103.6 -107.1 103.25 -107.35 103.1 -107.7 103.25 -108.1 103.55 -108.35 103.95 -108.35" fill="#6f6f6f" fill-rule="evenodd" stroke="none"/>
    <path d="M98.4 -91.7 L98.35 -91.25 96.85 -89.1 97.3 -88.75 95.6 -86.35 94.15 -87.4 95.85 -89.8 96.4 -89.4 97.8 -91.4 90.3 -96.65 90.2 -96.5 88.35 -97.75 88.0 -97.25 86.05 -98.65 82.45 -93.55 83.25 -93.0 82.2 -91.5 79.9 -93.1 80.95 -94.6 81.85 -93.95 82.65 -95.1 81.25 -96.05 82.55 -97.9 81.7 -98.5 82.8 -100.05 84.25 -99.05 83.15 -97.5 83.1 -97.5 82.25 -96.25 83.1 -95.65 85.45 -99.05 82.1 -101.4 82.0 -101.25 77.75 -104.25 77.85 -104.4 79.4 -103.3 81.95 -106.9 82.65 -106.4 80.15 -102.75 81.35 -101.95 82.65 -103.8 89.35 -99.15 88.9 -98.55 90.75 -97.25 90.65 -97.15 91.75 -96.35 92.25 -97.05 91.1 -97.85 92.45 -99.75 95.25 -97.75 93.95 -95.9 92.6 -96.8 92.15 -96.1 98.4 -91.7" fill="#6f6f6f" fill-rule="evenodd" stroke="none"/>
    <path d="M76.05 -101.3 L76.7 -101.75 77.6 -101.8 78.05 -101.45 78.3 -101.9 76.8 -102.95 76.9 -103.1 81.2 -100.1 81.1 -99.95 79.1 -101.35 78.55 -100.55 78.55 -100.35 78.8 -100.15 78.4 -99.6 78.35 -99.6 76.3 -96.65 75.55 -97.2 76.9 -99.1 76.75 -99.1 76.05 -99.6 75.75 -100.4 75.85 -100.65 75.3 -101.0 75.05 -100.65 72.7 -102.3 73.8 -103.85 76.15 -102.2 75.7 -101.55 76.05 -101.3" fill="#6f6f6f" fill-rule="evenodd" stroke="none"/>
    <path d="M86.05 -107.35 L87.65 -109.65 89.1 -108.65 87.5 -106.35 86.05 -107.35" fill="#6f6f6f" fill-rule="evenodd" stroke="none"/>
  </g>
</svg>
