<?xml version="1.0" encoding="UTF-8" standalone="no"?>
<svg xmlns:ffdec="https://www.free-decompiler.com/flash" xmlns:xlink="http://www.w3.org/1999/xlink" ffdec:objectType="shape" height="18.55px" width="168.3px" xmlns="http://www.w3.org/2000/svg">
  <g transform="matrix(1.0, 0.0, 0.0, 1.0, 0.0, 0.0)">
    <path d="M165.55 10.3 L168.3 10.3 168.05 11.65 163.55 11.65 164.7 6.1 166.45 6.1 165.55 10.3 M161.95 6.1 L162.85 11.65 161.15 11.65 161.1 10.75 159.3 10.75 158.85 11.65 157.0 11.65 160.15 6.1 161.95 6.1 M153.8 6.1 L155.2 9.35 155.9 6.1 157.45 6.1 156.3 11.65 154.7 11.65 153.3 8.4 152.6 11.65 151.0 11.65 152.2 6.1 153.8 6.1 M159.85 9.55 L161.0 9.55 160.8 7.55 159.85 9.55 M148.2 6.0 Q149.5 6.0 150.05 6.7 150.65 7.35 150.65 8.35 L150.55 9.25 150.1 10.25 149.3 11.15 148.35 11.65 147.35 11.75 Q146.15 11.75 145.5 11.15 144.8 10.55 144.8 9.45 L145.0 8.35 145.5 7.35 146.3 6.5 Q146.75 6.2 147.25 6.1 L148.2 6.0 M144.4 6.1 L143.2 11.65 141.45 11.65 142.65 6.1 144.4 6.1 M146.75 10.2 L147.45 10.45 Q147.95 10.45 148.3 10.1 L148.85 9.2 148.95 8.35 148.7 7.55 148.0 7.3 Q147.55 7.3 147.2 7.6 146.85 8.0 146.65 8.55 L146.5 9.5 Q146.5 9.95 146.75 10.2 M145.55 14.85 L146.0 15.7 146.75 14.85 147.9 14.85 146.45 16.45 147.25 18.0 146.25 18.0 145.85 17.1 145.1 18.0 143.9 18.0 145.4 16.3 144.6 14.85 145.55 14.85 M142.15 18.0 L139.5 18.0 140.15 14.85 142.7 14.85 142.55 15.5 140.95 15.5 140.9 16.0 142.4 16.0 142.25 16.65 140.75 16.65 140.6 17.25 142.3 17.25 142.15 18.0 M134.95 6.1 L135.8 11.65 134.15 11.65 134.1 10.75 132.25 10.75 131.8 11.65 130.0 11.65 133.1 6.1 134.95 6.1 M132.8 9.55 L134.0 9.55 133.8 7.55 132.8 9.55 M137.95 7.5 L136.25 7.5 136.5 6.1 141.8 6.1 141.5 7.5 139.7 7.5 138.8 11.65 137.05 11.65 137.95 7.5 M130.45 6.1 L129.25 11.65 127.65 11.65 126.25 8.4 125.6 11.65 123.95 11.65 125.15 6.1 126.75 6.1 128.15 9.35 128.85 6.1 130.45 6.1 M129.4 18.0 L130.0 14.85 130.9 14.85 131.7 16.7 132.1 14.85 133.0 14.85 132.3 18.0 131.4 18.0 130.65 16.15 130.25 18.0 129.4 18.0 M127.75 14.85 L127.1 18.0 126.15 18.0 126.8 14.85 127.75 14.85 M136.7 15.7 Q136.65 15.55 136.35 15.55 L136.05 15.55 135.65 17.3 136.05 17.3 136.65 16.9 136.85 16.1 136.7 15.7 M136.85 17.8 L136.15 18.0 134.55 18.0 135.2 14.85 136.45 14.85 Q137.15 14.85 137.45 15.25 L137.75 16.15 137.5 17.2 136.85 17.8 M113.55 7.5 L112.6 11.65 110.9 11.65 111.8 7.5 110.1 7.5 110.35 6.1 115.6 6.1 115.35 7.5 113.55 7.5 M117.05 11.65 L117.55 9.5 115.85 6.1 117.65 6.1 118.5 8.15 119.9 6.1 121.9 6.1 119.2 9.55 118.8 11.65 117.05 11.65 M109.5 6.1 L108.3 11.65 106.55 11.65 107.7 6.1 109.5 6.1 M103.95 7.3 Q103.6 7.3 103.25 7.55 102.9 7.8 102.65 8.4 L102.45 9.5 102.65 10.2 Q102.9 10.45 103.3 10.45 L103.95 10.25 104.45 9.45 106.05 9.7 Q105.8 10.6 105.05 11.15 104.35 11.75 103.25 11.75 102.0 11.75 101.4 11.15 100.75 10.45 100.75 9.4 100.75 8.55 101.15 7.8 101.5 6.95 102.25 6.5 102.95 6.0 103.95 6.0 105.05 6.0 105.65 6.5 106.25 7.1 106.35 7.95 L104.75 8.1 104.5 7.5 103.95 7.3 M109.3 16.15 L109.25 16.15 108.9 18.0 108.0 18.0 108.65 14.85 109.55 14.85 110.3 16.7 110.7 14.85 111.6 14.85 110.9 18.0 110.0 18.0 109.3 16.15 M105.55 14.85 L106.05 18.0 105.1 18.0 105.05 17.45 104.05 17.45 103.8 18.0 102.75 18.0 104.55 14.85 105.55 14.85 M104.35 16.8 L105.0 16.8 104.9 15.65 104.35 16.8 M121.0 18.0 L118.35 18.0 119.0 14.85 121.55 14.85 121.4 15.5 119.85 15.5 119.7 16.0 121.25 16.0 121.1 16.65 119.6 16.65 119.45 17.25 121.15 17.25 121.0 18.0 M115.25 14.85 Q116.4 14.85 116.6 15.75 L115.65 15.9 Q115.55 15.5 115.15 15.5 114.75 15.5 114.55 15.9 L114.3 16.7 114.5 17.15 114.9 17.3 115.45 17.2 115.5 16.85 114.9 16.85 115.05 16.2 116.5 16.2 116.2 17.65 114.75 18.0 113.75 17.7 Q113.35 17.3 113.35 16.7 L113.6 15.7 114.3 15.05 115.25 14.85 M98.3 6.1 L95.65 9.55 95.2 11.65 93.45 11.65 93.9 9.5 92.25 6.1 94.05 6.1 94.95 8.15 96.35 6.1 98.3 6.1 M91.75 7.5 L89.9 7.5 89.05 11.65 87.3 11.65 88.2 7.5 86.5 7.5 86.75 6.1 92.0 6.1 91.75 7.5 M84.45 6.1 Q85.2 6.1 85.6 6.5 86.0 6.95 86.0 7.55 86.0 8.2 85.6 8.7 85.15 9.2 84.3 9.3 84.85 9.75 85.55 11.65 L83.75 11.65 83.2 10.35 82.75 9.5 82.35 9.4 82.25 9.4 81.8 11.65 80.05 11.65 81.25 6.1 84.45 6.1 M84.25 8.0 L84.35 7.7 84.25 7.35 83.6 7.2 82.75 7.2 82.5 8.35 82.8 8.35 83.9 8.3 84.25 8.0 M89.6 14.85 L90.0 15.7 90.75 14.85 91.9 14.85 90.45 16.45 91.25 18.0 90.3 18.0 89.85 17.1 89.1 18.0 87.9 18.0 89.4 16.3 88.6 14.85 89.6 14.85 M86.25 16.65 L84.75 16.65 84.6 17.25 86.3 17.25 86.15 18.0 83.5 18.0 84.15 14.85 86.65 14.85 86.5 15.5 84.95 15.5 84.85 16.0 86.4 16.0 86.25 16.65 M100.3 15.95 L100.5 14.85 101.5 14.85 100.8 18.0 99.85 18.0 100.1 16.7 99.1 16.7 98.8 18.0 97.85 18.0 98.5 14.85 99.45 14.85 99.25 15.95 100.3 15.95 M95.8 15.15 L96.2 15.9 95.35 16.0 95.35 15.95 95.2 15.6 94.9 15.5 Q94.75 15.5 94.5 15.65 L94.15 16.15 94.05 16.75 94.15 17.15 94.55 17.3 94.9 17.15 95.15 16.75 96.05 16.9 95.55 17.7 94.45 18.0 Q93.8 18.0 93.45 17.65 93.1 17.3 93.1 16.7 L93.3 15.8 93.95 15.1 94.9 14.85 Q95.5 14.85 95.8 15.15 M72.85 6.15 L73.4 6.35 73.85 6.8 74.0 7.4 73.75 8.2 72.95 8.75 72.95 8.8 Q73.85 9.05 73.85 9.9 73.85 10.6 73.3 11.15 72.75 11.65 71.75 11.65 L68.3 11.65 69.5 6.1 72.05 6.1 72.85 6.15 M72.25 7.35 L71.7 7.2 70.95 7.2 70.75 8.3 71.95 8.2 72.25 8.0 72.35 7.7 72.25 7.35 M72.05 9.45 L71.45 9.35 70.55 9.35 70.25 10.45 71.2 10.45 Q72.15 10.45 72.15 9.85 L72.05 9.45 M79.45 10.4 L79.15 11.65 74.4 11.65 75.6 6.1 80.1 6.1 79.85 7.3 77.05 7.3 76.85 8.2 79.6 8.2 79.35 9.3 76.6 9.3 76.4 10.4 79.45 10.4 M68.25 6.1 L67.0 11.65 65.3 11.65 66.5 6.1 68.25 6.1 M62.9 6.1 L62.0 10.3 64.75 10.3 64.45 11.65 60.0 11.65 61.15 6.1 62.9 6.1" fill="#ffffff" fill-rule="evenodd" stroke="none"/>
    <path d="M49.85 18.25 L44.35 18.25 40.6 9.35 50.3 15.85 49.85 18.25 M40.55 6.65 L40.85 7.5 52.2 14.6 52.65 14.55 Q53.1 14.6 53.45 14.95 53.8 15.3 53.75 15.75 53.75 16.25 53.35 16.55 L52.55 16.9 Q52.1 16.9 51.8 16.55 51.45 16.25 51.45 15.85 L40.35 8.4 39.6 8.65 39.55 8.65 Q39.0 8.6 38.65 8.1 L31.7 10.1 31.35 10.65 30.7 10.85 Q30.35 10.8 30.1 10.55 L29.8 10.0 22.5 6.35 21.85 6.65 21.4 6.45 17.45 9.5 17.45 9.6 17.25 10.05 16.75 10.2 Q16.45 10.2 16.3 10.0 L16.1 9.5 16.15 9.4 11.6 5.95 11.3 6.05 10.95 5.9 10.75 5.55 1.25 3.55 0.8 3.85 0.5 3.7 0.4 3.4 0.5 3.05 0.85 2.95 1.15 3.1 1.3 3.45 10.85 5.2 Q11.0 4.9 11.35 4.9 L11.75 5.1 11.85 5.5 11.85 5.65 16.4 9.0 16.8 8.9 17.2 9.0 21.1 5.85 21.1 5.8 Q21.15 5.45 21.35 5.25 L21.95 5.05 22.4 5.25 22.7 5.65 30.05 9.25 Q30.35 8.9 30.8 8.9 31.25 8.95 31.5 9.3 L38.55 7.1 38.9 6.6 Q39.25 6.25 39.7 6.3 40.2 6.3 40.55 6.65 M41.5 0.3 L45.45 9.65 41.45 7.15 41.0 6.25 Q40.5 5.7 39.75 5.7 39.05 5.65 38.45 6.15 L38.05 6.6 34.75 7.65 36.3 0.3 41.5 0.3 M46.1 10.05 L47.9 0.3 53.1 0.3 50.8 13.0 46.1 10.05 M39.6 9.25 L37.65 18.25 32.45 18.25 34.25 10.05 38.45 8.85 39.55 9.25 39.6 9.25 M8.95 0.3 L8.05 4.4 2.8 3.3 3.35 0.3 8.95 0.3 M21.5 7.75 Q20.8 9.6 20.8 11.3 20.8 12.65 21.55 13.55 22.25 14.45 23.65 14.45 24.9 14.45 25.8 13.65 26.65 12.85 27.3 11.15 L32.5 12.0 Q31.7 14.75 29.35 16.65 L27.25 17.85 Q25.55 18.55 23.35 18.55 21.15 18.55 19.55 17.85 18.3 17.35 17.4 16.45 15.35 14.4 15.35 10.95 L15.45 9.65 15.5 9.7 15.85 10.4 15.85 10.45 16.75 10.85 17.65 10.5 18.05 9.8 21.45 7.2 21.7 7.25 21.5 7.75 M31.1 1.7 Q33.05 3.4 33.35 6.2 L28.25 6.75 28.25 6.65 Q28.25 5.35 27.5 4.7 26.7 4.1 25.75 4.1 24.5 4.1 23.35 5.0 L23.2 5.15 22.85 4.8 22.8 4.75 Q22.45 4.45 21.95 4.4 21.35 4.4 20.95 4.8 L20.5 5.5 17.1 8.3 16.85 8.25 16.55 8.3 15.8 7.75 16.6 5.7 Q17.8 3.05 20.15 1.5 20.9 1.05 21.8 0.65 23.6 0.0 25.75 0.0 27.85 0.0 29.4 0.65 30.3 1.05 31.1 1.7 M7.85 5.3 L6.0 13.85 14.9 13.85 14.0 18.25 0.0 18.25 2.6 4.35 7.85 5.3" fill="#ffffff" fill-rule="evenodd" stroke="none"/>
  </g>
</svg>
