<?xml version="1.0" encoding="UTF-8" standalone="no"?>
<svg xmlns:ffdec="https://www.free-decompiler.com/flash" xmlns:xlink="http://www.w3.org/1999/xlink" ffdec:objectType="shape" height="9.1px" width="58.0px" xmlns="http://www.w3.org/2000/svg">
  <g transform="matrix(1.0, 0.0, 0.0, 1.0, -4.0, -7.0)">
    <path d="M60.0 12.05 L59.7 13.0 Q59.45 13.35 58.85 13.5 L57.5 13.65 57.0 13.65 57.0 14.9 59.8 14.9 59.8 16.1 56.45 16.1 55.45 15.85 Q55.0 15.6 55.0 15.1 L55.0 13.65 54.55 13.65 52.7 13.3 Q52.05 12.95 52.05 12.05 L52.05 8.6 Q52.05 7.7 52.7 7.35 L54.55 7.0 57.5 7.0 59.35 7.35 Q60.0 7.7 60.0 8.6 L60.0 12.05 M55.0 9.1 L55.0 11.55 Q55.0 12.35 56.0 12.35 56.6 12.35 56.8 12.05 L57.0 11.55 57.0 9.1 Q57.0 8.3 56.0 8.3 L55.35 8.45 Q55.0 8.65 55.0 9.1 M61.55 15.2 L61.45 15.05 61.3 15.05 61.15 15.05 61.15 15.3 61.3 15.3 61.55 15.2 M61.4 14.95 L61.65 15.0 61.75 15.15 61.5 15.4 61.2 15.45 61.15 15.45 61.15 15.8 60.95 15.8 60.95 14.95 61.4 14.95 M61.2 14.45 L60.85 14.55 60.55 14.8 60.5 15.15 60.55 15.5 60.85 15.75 61.2 15.85 61.55 15.75 61.8 15.5 61.9 15.15 61.8 14.8 61.55 14.55 61.2 14.45 M60.6 14.6 L60.85 14.4 61.2 14.35 61.6 14.45 61.9 14.75 62.0 15.15 61.9 15.55 61.6 15.85 61.2 16.0 60.75 15.85 60.45 15.55 60.35 15.15 60.4 14.85 60.45 14.75 60.6 14.6 M48.0 10.95 L47.15 8.3 47.1 8.3 46.25 10.95 48.0 10.95 M45.8 12.3 L45.35 13.55 42.55 13.55 44.75 7.05 49.75 7.05 51.95 13.55 48.9 13.55 48.45 12.3 45.8 12.3 M42.4 8.6 L42.4 9.0 39.5 9.0 Q39.5 8.6 39.15 8.4 L38.55 8.3 37.9 8.5 Q37.65 8.65 37.65 9.1 L37.65 9.6 40.15 9.7 41.2 9.75 41.95 10.05 Q42.5 10.45 42.5 11.0 L42.5 12.05 42.2 13.0 Q41.9 13.35 41.35 13.5 L40.0 13.65 37.05 13.65 35.75 13.5 34.9 13.0 Q34.6 12.65 34.6 12.05 L34.6 11.7 37.55 11.7 Q37.6 12.0 37.8 12.15 L38.5 12.35 39.25 12.15 39.5 11.6 39.5 11.15 36.7 11.05 Q34.65 11.0 34.65 9.65 L34.65 8.6 Q34.65 8.0 34.95 7.65 35.2 7.3 35.8 7.15 L37.15 7.0 39.9 7.0 Q41.15 7.0 41.75 7.35 42.4 7.7 42.4 8.6 M30.65 11.4 L31.7 7.05 34.5 7.05 32.9 13.55 28.65 13.55 27.65 9.0 26.5 13.55 22.25 13.55 20.75 7.05 23.7 7.05 24.65 11.2 25.65 7.05 29.65 7.05 30.65 11.4 M18.0 12.3 L15.3 12.3 14.85 13.55 12.1 13.55 14.3 7.05 19.3 7.05 21.45 13.55 18.4 13.55 18.0 12.3 M17.55 10.95 L16.7 8.3 16.65 8.3 15.75 10.95 17.55 10.95 M11.85 8.7 L11.65 9.6 11.05 10.05 10.2 10.3 10.2 10.35 11.35 10.65 11.8 11.25 11.95 11.9 Q11.95 12.85 11.35 13.2 L9.45 13.55 4.0 13.55 4.0 7.05 9.35 7.05 Q10.65 7.05 11.25 7.4 11.85 7.8 11.85 8.7 M8.9 9.0 L8.6 8.55 7.8 8.4 6.95 8.4 6.95 9.65 7.75 9.65 8.65 9.4 8.9 9.0 M8.7 11.1 Q8.45 10.85 7.8 10.85 L6.95 10.85 6.95 12.25 7.6 12.25 8.5 12.1 Q8.95 12.0 8.95 11.55 L8.7 11.1" fill="#ffffff" fill-rule="evenodd" stroke="none"/>
  </g>
</svg>
