<?xml version="1.0" encoding="UTF-8" standalone="no"?>
<svg xmlns:ffdec="https://www.free-decompiler.com/flash" xmlns:xlink="http://www.w3.org/1999/xlink" ffdec:objectType="shape" height="11.0px" width="32.2px" xmlns="http://www.w3.org/2000/svg">
  <g transform="matrix(1.0, 0.0, 0.0, 1.0, 0.0, 0.0)">
    <path d="M31.95 8.85 L32.2 9.35 31.9 9.95 31.35 10.15 Q31.05 10.15 30.85 9.95 L30.8 9.95 30.6 9.5 24.1 5.15 24.0 5.15 23.7 5.25 23.6 5.25 23.0 4.95 19.0 6.05 18.8 6.4 18.35 6.55 Q18.1 6.55 17.9 6.35 L17.95 6.35 17.7 6.05 13.45 3.9 13.1 4.05 13.05 4.05 12.75 3.95 10.5 5.65 10.5 5.7 10.35 6.05 10.0 6.2 9.6 6.05 9.55 5.65 9.55 5.6 6.9 3.65 6.75 3.7 6.5 3.6 6.45 3.6 6.3 3.4 0.8 2.25 0.5 2.4 0.2 2.3 0.1 2.05 0.2 1.75 0.25 1.75 Q0.35 1.65 0.55 1.65 0.75 1.65 0.75 1.8 L0.75 1.75 0.9 2.0 6.4 2.95 6.75 2.85 7.1 2.95 7.2 3.25 7.2 3.3 7.15 3.35 9.8 5.2 10.0 5.2 10.25 5.25 12.5 3.45 12.65 3.0 12.7 3.0 13.1 2.95 13.45 3.0 13.5 3.05 13.6 3.3 17.95 5.4 Q18.15 5.15 18.35 5.2 L18.4 5.2 18.8 5.4 22.9 4.15 23.1 3.9 Q23.35 3.65 23.7 3.65 L23.75 3.65 24.3 3.85 24.3 3.9 24.5 4.4 27.4 6.25 27.5 6.25 31.15 8.6 31.35 8.55 Q31.75 8.5 31.95 8.8 L31.95 8.85" fill="#666666" fill-rule="evenodd" stroke="none"/>
    <path d="M1.5 2.9 L4.65 3.45 3.6 8.25 8.9 8.25 8.35 10.85 0.0 10.85 1.5 2.9 M1.7 1.65 L2.0 0.2 5.35 0.2 4.9 2.3 1.7 1.65 M11.05 6.05 L12.85 4.65 Q12.45 5.7 12.45 6.7 12.45 7.55 12.85 8.05 13.3 8.55 14.1 8.55 14.85 8.55 15.35 8.1 L16.25 6.65 17.55 6.85 18.25 7.15 18.3 7.15 18.8 7.05 19.4 7.15 Q18.9 8.75 17.5 9.9 L16.25 10.65 13.9 11.0 11.65 10.65 10.4 9.8 Q9.15 8.55 9.15 6.5 L9.15 6.4 9.2 6.45 9.2 6.5 9.25 6.5 10.0 6.75 10.7 6.5 10.8 6.45 11.05 6.05 M16.4 2.8 Q15.95 2.45 15.35 2.45 14.7 2.45 14.1 2.9 L14.1 2.85 14.05 2.8 13.95 2.75 13.9 2.65 13.8 2.55 Q13.55 2.35 13.15 2.3 L13.1 2.3 Q12.65 2.3 12.35 2.55 L12.25 2.6 12.2 2.65 12.0 3.15 10.1 4.6 10.05 4.6 9.9 4.6 9.55 4.35 9.9 3.4 Q10.6 1.8 12.0 0.9 12.45 0.6 13.0 0.4 L15.3 0.0 Q16.6 0.0 17.55 0.4 L18.55 1.0 Q19.7 2.05 19.9 3.65 L16.85 4.0 16.85 3.95 Q16.85 3.2 16.4 2.8 M29.95 9.75 L29.75 10.85 26.5 10.85 24.45 6.05 29.8 9.65 29.9 9.7 29.95 9.75 M23.55 5.85 L23.6 5.85 22.45 10.85 19.35 10.85 20.35 6.25 22.9 5.6 23.55 5.85 M22.7 3.4 L22.7 3.5 22.55 3.7 20.8 4.25 21.65 0.2 24.75 0.2 26.9 5.2 25.0 4.05 24.7 3.5 24.7 3.45 24.65 3.45 Q24.3 3.1 23.7 3.1 23.2 3.0 22.75 3.4 L22.7 3.4 M31.65 0.2 L30.4 7.4 27.6 5.65 28.55 0.2 31.65 0.2" fill="#333333" fill-rule="evenodd" stroke="none"/>
  </g>
</svg>
