<?xml version="1.0" encoding="UTF-8" standalone="no"?>
<svg xmlns:ffdec="https://www.free-decompiler.com/flash" xmlns:xlink="http://www.w3.org/1999/xlink" ffdec:objectType="shape" height="1.0px" width="411.0px" xmlns="http://www.w3.org/2000/svg">
  <g transform="matrix(1.0, 0.0, 0.0, 1.0, 0.0, 0.5)">
    <path d="M0.5 -0.5 L0.85 -0.35 1.0 0.0 0.85 0.35 0.5 0.5 0.15 0.35 0.0 0.0 0.15 -0.35 0.5 -0.5 M4.85 -0.35 L5.0 0.0 4.85 0.35 4.5 0.5 Q4.3 0.5 4.15 0.35 L4.0 0.0 4.15 -0.35 Q4.3 -0.5 4.5 -0.5 L4.85 -0.35 M2.85 -0.35 L3.0 0.0 2.85 0.35 2.5 0.5 2.15 0.35 2.0 0.0 2.15 -0.35 2.5 -0.5 2.85 -0.35 M8.85 -0.35 L9.0 0.0 8.85 0.35 8.5 0.5 8.15 0.35 8.0 0.0 8.15 -0.35 8.5 -0.5 8.85 -0.35 M6.85 -0.35 L7.0 0.0 6.85 0.35 6.5 0.5 6.15 0.35 6.0 0.0 6.15 -0.35 6.5 -0.5 6.85 -0.35 M10.5 -0.5 L10.85 -0.35 11.0 0.0 10.85 0.35 10.5 0.5 10.15 0.35 10.0 0.0 10.15 -0.35 10.5 -0.5 M12.5 -0.5 L12.85 -0.35 13.0 0.0 12.85 0.35 12.5 0.5 12.15 0.35 12.0 0.0 12.15 -0.35 12.5 -0.5 M14.5 -0.5 L14.85 -0.35 15.0 0.0 14.85 0.35 14.5 0.5 14.15 0.35 14.0 0.0 14.15 -0.35 14.5 -0.5 M16.5 -0.5 L16.85 -0.35 17.0 0.0 16.85 0.35 16.5 0.5 16.15 0.35 16.0 0.0 16.15 -0.35 16.5 -0.5 M18.5 -0.5 L18.85 -0.35 19.0 0.0 18.85 0.35 18.5 0.5 18.15 0.35 18.0 0.0 18.15 -0.35 18.5 -0.5 M24.85 -0.35 L25.0 0.0 24.85 0.35 24.5 0.5 24.15 0.35 24.0 0.0 24.15 -0.35 24.5 -0.5 24.85 -0.35 M22.85 -0.35 L23.0 0.0 22.85 0.35 22.5 0.5 22.15 0.35 22.0 0.0 22.15 -0.35 22.5 -0.5 22.85 -0.35 M20.85 -0.35 L21.0 0.0 20.85 0.35 20.5 0.5 20.15 0.35 20.0 0.0 20.15 -0.35 20.5 -0.5 20.85 -0.35 M28.85 -0.35 L29.0 0.0 28.85 0.35 28.5 0.5 28.15 0.35 28.0 0.0 28.15 -0.35 28.5 -0.5 28.85 -0.35 M26.85 -0.35 L27.0 0.0 26.85 0.35 26.5 0.5 26.15 0.35 26.0 0.0 26.15 -0.35 26.5 -0.5 26.85 -0.35 M34.85 -0.35 L35.0 0.0 34.85 0.35 34.5 0.5 34.15 0.35 34.0 0.0 34.15 -0.35 34.5 -0.5 34.85 -0.35 M32.85 -0.35 L33.0 0.0 32.85 0.35 32.5 0.5 32.15 0.35 32.0 0.0 32.15 -0.35 32.5 -0.5 32.85 -0.35 M30.85 -0.35 L31.0 0.0 30.85 0.35 30.5 0.5 30.15 0.35 30.0 0.0 30.15 -0.35 30.5 -0.5 30.85 -0.35 M38.85 -0.35 L39.0 0.0 38.85 0.35 38.5 0.5 38.15 0.35 38.0 0.0 38.15 -0.35 38.5 -0.5 38.85 -0.35 M36.85 -0.35 L37.0 0.0 36.85 0.35 36.5 0.5 36.15 0.35 36.0 0.0 36.15 -0.35 36.5 -0.5 36.85 -0.35 M40.85 -0.35 L41.0 0.0 40.85 0.35 40.5 0.5 40.15 0.35 40.0 0.0 40.15 -0.35 40.5 -0.5 40.85 -0.35 M44.85 -0.35 L45.0 0.0 44.85 0.35 44.5 0.5 44.15 0.35 44.0 0.0 44.15 -0.35 44.5 -0.5 44.85 -0.35 M42.85 -0.35 L43.0 0.0 42.85 0.35 42.5 0.5 42.15 0.35 42.0 0.0 42.15 -0.35 42.5 -0.5 42.85 -0.35 M50.5 -0.5 L50.85 -0.35 51.0 0.0 50.85 0.35 50.5 0.5 50.15 0.35 50.0 0.0 50.15 -0.35 50.5 -0.5 M48.85 -0.35 L49.0 0.0 48.85 0.35 48.5 0.5 48.15 0.35 48.0 0.0 48.15 -0.35 48.5 -0.5 48.85 -0.35 M46.85 -0.35 L47.0 0.0 46.85 0.35 46.5 0.5 Q46.3 0.5 46.15 0.35 L46.0 0.0 46.15 -0.35 Q46.3 -0.5 46.5 -0.5 L46.85 -0.35 M52.5 -0.5 L52.85 -0.35 53.0 0.0 52.85 0.35 52.5 0.5 52.15 0.35 52.0 0.0 52.15 -0.35 52.5 -0.5 M54.5 -0.5 L54.85 -0.35 55.0 0.0 54.85 0.35 54.5 0.5 54.15 0.35 54.0 0.0 54.15 -0.35 54.5 -0.5 M56.5 -0.5 L56.85 -0.35 57.0 0.0 56.85 0.35 56.5 0.5 56.15 0.35 56.0 0.0 56.15 -0.35 56.5 -0.5 M58.5 -0.5 L58.85 -0.35 59.0 0.0 58.85 0.35 58.5 0.5 58.15 0.35 58.0 0.0 58.15 -0.35 58.5 -0.5 M60.5 -0.5 L60.85 -0.35 61.0 0.0 60.85 0.35 60.5 0.5 60.15 0.35 60.0 0.0 60.15 -0.35 60.5 -0.5 M62.5 -0.5 L62.85 -0.35 63.0 0.0 62.85 0.35 62.5 0.5 62.15 0.35 62.0 0.0 62.15 -0.35 62.5 -0.5 M64.85 -0.35 L65.0 0.0 64.85 0.35 64.5 0.5 64.15 0.35 64.0 0.0 64.15 -0.35 64.5 -0.5 64.85 -0.35 M70.85 -0.35 L71.0 0.0 70.85 0.35 70.5 0.5 70.15 0.35 70.0 0.0 70.15 -0.35 70.5 -0.5 70.85 -0.35 M68.85 -0.35 L69.0 0.0 68.85 0.35 68.5 0.5 68.15 0.35 68.0 0.0 68.15 -0.35 68.5 -0.5 68.85 -0.35 M66.85 -0.35 L67.0 0.0 66.85 0.35 66.5 0.5 66.15 0.35 66.0 0.0 66.15 -0.35 66.5 -0.5 66.85 -0.35 M72.5 -0.5 L72.85 -0.35 73.0 0.0 72.85 0.35 72.5 0.5 72.15 0.35 72.0 0.0 72.15 -0.35 72.5 -0.5 M74.85 -0.35 L75.0 0.0 74.85 0.35 74.5 0.5 74.15 0.35 74.0 0.0 74.15 -0.35 74.5 -0.5 74.85 -0.35 M80.85 -0.35 L81.0 0.0 80.85 0.35 80.5 0.5 80.15 0.35 80.0 0.0 80.15 -0.35 80.5 -0.5 80.85 -0.35 M78.85 -0.35 L79.0 0.0 78.85 0.35 78.5 0.5 78.15 0.35 78.0 0.0 78.15 -0.35 78.5 -0.5 78.85 -0.35 M76.85 -0.35 L77.0 0.0 76.85 0.35 76.5 0.5 76.15 0.35 76.0 0.0 76.15 -0.35 76.5 -0.5 76.85 -0.35 M82.5 -0.5 L82.85 -0.35 83.0 0.0 82.85 0.35 82.5 0.5 82.15 0.35 82.0 0.0 82.15 -0.35 82.5 -0.5 M84.85 -0.35 L85.0 0.0 84.85 0.35 84.5 0.5 84.15 0.35 84.0 0.0 84.15 -0.35 84.5 -0.5 84.85 -0.35 M90.85 -0.35 L91.0 0.0 90.85 0.35 90.5 0.5 90.15 0.35 90.0 0.0 90.15 -0.35 90.5 -0.5 90.85 -0.35 M88.85 -0.35 L89.0 0.0 88.85 0.35 88.5 0.5 Q88.3 0.5 88.15 0.35 L88.0 0.0 88.15 -0.35 Q88.3 -0.5 88.5 -0.5 L88.85 -0.35 M86.85 -0.35 L87.0 0.0 86.85 0.35 86.5 0.5 86.15 0.35 86.0 0.0 86.15 -0.35 86.5 -0.5 86.85 -0.35 M92.5 -0.5 L92.85 -0.35 93.0 0.0 92.85 0.35 92.5 0.5 92.15 0.35 92.0 0.0 92.15 -0.35 92.5 -0.5 M94.5 -0.5 L94.85 -0.35 95.0 0.0 94.85 0.35 94.5 0.5 94.15 0.35 94.0 0.0 94.15 -0.35 94.5 -0.5 M96.85 -0.35 L97.0 0.0 96.85 0.35 96.5 0.5 96.15 0.35 96.0 0.0 96.15 -0.35 96.5 -0.5 96.85 -0.35 M98.5 -0.5 L98.85 -0.35 99.0 0.0 98.85 0.35 98.5 0.5 98.15 0.35 98.0 0.0 98.15 -0.35 98.5 -0.5 M100.5 -0.5 L100.85 -0.35 101.0 0.0 100.85 0.35 100.5 0.5 100.15 0.35 100.0 0.0 100.15 -0.35 100.5 -0.5 M102.5 -0.5 L102.85 -0.35 103.0 0.0 102.85 0.35 102.5 0.5 102.15 0.35 102.0 0.0 102.15 -0.35 102.5 -0.5 M104.85 -0.35 L105.0 0.0 104.85 0.35 104.5 0.5 104.15 0.35 104.0 0.0 104.15 -0.35 104.5 -0.5 104.85 -0.35 M110.85 -0.35 L111.0 0.0 110.85 0.35 110.5 0.5 110.15 0.35 110.0 0.0 110.15 -0.35 110.5 -0.5 110.85 -0.35 M108.85 -0.35 L109.0 0.0 108.85 0.35 108.5 0.5 108.15 0.35 108.0 0.0 108.15 -0.35 108.5 -0.5 108.85 -0.35 M106.85 -0.35 L107.0 0.0 106.85 0.35 106.5 0.5 106.15 0.35 106.0 0.0 106.15 -0.35 106.5 -0.5 106.85 -0.35 M112.5 -0.5 L112.85 -0.35 113.0 0.0 112.85 0.35 112.5 0.5 112.15 0.35 112.0 0.0 112.15 -0.35 112.5 -0.5 M114.85 -0.35 L115.0 0.0 114.85 0.35 114.5 0.5 114.15 0.35 114.0 0.0 114.15 -0.35 114.5 -0.5 114.85 -0.35 M120.85 -0.35 L121.0 0.0 120.85 0.35 120.5 0.5 120.15 0.35 120.0 0.0 120.15 -0.35 120.5 -0.5 120.85 -0.35 M118.85 -0.35 L119.0 0.0 118.85 0.35 118.5 0.5 118.15 0.35 118.0 0.0 118.15 -0.35 118.5 -0.5 118.85 -0.35 M116.85 -0.35 L117.0 0.0 116.85 0.35 116.5 0.5 116.15 0.35 116.0 0.0 116.15 -0.35 116.5 -0.5 116.85 -0.35 M122.5 -0.5 L122.85 -0.35 123.0 0.0 122.85 0.35 122.5 0.5 122.15 0.35 122.0 0.0 122.15 -0.35 122.5 -0.5 M126.5 -0.5 L126.85 -0.35 127.0 0.0 126.85 0.35 126.5 0.5 126.15 0.35 126.0 0.0 126.15 -0.35 126.5 -0.5 M124.85 -0.35 L125.0 0.0 124.85 0.35 124.5 0.5 124.15 0.35 124.0 0.0 124.15 -0.35 124.5 -0.5 124.85 -0.35 M130.85 -0.35 L131.0 0.0 130.85 0.35 130.5 0.5 Q130.3 0.5 130.15 0.35 L130.0 0.0 130.15 -0.35 Q130.3 -0.5 130.5 -0.5 L130.85 -0.35 M128.85 -0.35 L129.0 0.0 128.85 0.35 128.5 0.5 128.15 0.35 128.0 0.0 128.15 -0.35 128.5 -0.5 128.85 -0.35 M132.5 -0.5 L132.85 -0.35 133.0 0.0 132.85 0.35 132.5 0.5 132.15 0.35 132.0 0.0 132.15 -0.35 132.5 -0.5 M134.5 -0.5 L134.85 -0.35 135.0 0.0 134.85 0.35 134.5 0.5 134.15 0.35 134.0 0.0 134.15 -0.35 134.5 -0.5 M136.5 -0.5 L136.85 -0.35 137.0 0.0 136.85 0.35 136.5 0.5 136.15 0.35 136.0 0.0 136.15 -0.35 136.5 -0.5 M138.5 -0.5 L138.85 -0.35 139.0 0.0 138.85 0.35 138.5 0.5 138.15 0.35 138.0 0.0 138.15 -0.35 138.5 -0.5 M140.5 -0.5 L140.85 -0.35 141.0 0.0 140.85 0.35 140.5 0.5 140.15 0.35 140.0 0.0 140.15 -0.35 140.5 -0.5 M142.5 -0.5 L142.85 -0.35 143.0 0.0 142.85 0.35 142.5 0.5 142.15 0.35 142.0 0.0 142.15 -0.35 142.5 -0.5 M146.5 -0.5 L146.85 -0.35 147.0 0.0 146.85 0.35 146.5 0.5 146.15 0.35 146.0 0.0 146.15 -0.35 146.5 -0.5 M144.85 -0.35 L145.0 0.0 144.85 0.35 144.5 0.5 144.15 0.35 144.0 0.0 144.15 -0.35 144.5 -0.5 144.85 -0.35 M150.85 -0.35 L151.0 0.0 150.85 0.35 150.5 0.5 150.15 0.35 150.0 0.0 150.15 -0.35 150.5 -0.5 150.85 -0.35 M148.85 -0.35 L149.0 0.0 148.85 0.35 148.5 0.5 148.15 0.35 148.0 0.0 148.15 -0.35 148.5 -0.5 148.85 -0.35 M152.5 -0.5 L152.85 -0.35 153.0 0.0 152.85 0.35 152.5 0.5 152.15 0.35 152.0 0.0 152.15 -0.35 152.5 -0.5 M156.85 -0.35 L157.0 0.0 156.85 0.35 156.5 0.5 156.15 0.35 156.0 0.0 156.15 -0.35 156.5 -0.5 156.85 -0.35 M154.85 -0.35 L155.0 0.0 154.85 0.35 154.5 0.5 154.15 0.35 154.0 0.0 154.15 -0.35 154.5 -0.5 154.85 -0.35 M160.85 -0.35 L161.0 0.0 160.85 0.35 160.5 0.5 160.15 0.35 160.0 0.0 160.15 -0.35 160.5 -0.5 160.85 -0.35 M158.85 -0.35 L159.0 0.0 158.85 0.35 158.5 0.5 158.15 0.35 158.0 0.0 158.15 -0.35 158.5 -0.5 158.85 -0.35 M162.5 -0.5 L162.85 -0.35 163.0 0.0 162.85 0.35 162.5 0.5 162.15 0.35 162.0 0.0 162.15 -0.35 162.5 -0.5 M166.85 -0.35 L167.0 0.0 166.85 0.35 166.5 0.5 166.15 0.35 166.0 0.0 166.15 -0.35 166.5 -0.5 166.85 -0.35 M164.85 -0.35 L165.0 0.0 164.85 0.35 164.5 0.5 164.15 0.35 164.0 0.0 164.15 -0.35 164.5 -0.5 164.85 -0.35 M170.85 -0.35 L171.0 0.0 170.85 0.35 170.5 0.5 170.15 0.35 170.0 0.0 170.15 -0.35 170.5 -0.5 170.85 -0.35 M168.85 -0.35 L169.0 0.0 168.85 0.35 168.5 0.5 168.15 0.35 168.0 0.0 168.15 -0.35 168.5 -0.5 168.85 -0.35 M172.5 -0.5 L172.85 -0.35 173.0 0.0 172.85 0.35 172.5 0.5 Q172.3 0.5 172.15 0.35 L172.0 0.0 172.15 -0.35 Q172.3 -0.5 172.5 -0.5 M174.5 -0.5 L174.85 -0.35 175.0 0.0 174.85 0.35 174.5 0.5 174.15 0.35 174.0 0.0 174.15 -0.35 174.5 -0.5 M176.5 -0.5 L176.85 -0.35 177.0 0.0 176.85 0.35 176.5 0.5 176.15 0.35 176.0 0.0 176.15 -0.35 176.5 -0.5 M178.5 -0.5 L178.85 -0.35 179.0 0.0 178.85 0.35 178.5 0.5 178.15 0.35 178.0 0.0 178.15 -0.35 178.5 -0.5 M180.5 -0.5 L180.85 -0.35 181.0 0.0 180.85 0.35 180.5 0.5 180.15 0.35 180.0 0.0 180.15 -0.35 180.5 -0.5 M186.85 -0.35 L187.0 0.0 186.85 0.35 186.5 0.5 186.15 0.35 186.0 0.0 186.15 -0.35 186.5 -0.5 186.85 -0.35 M184.85 -0.35 L185.0 0.0 184.85 0.35 184.5 0.5 184.15 0.35 184.0 0.0 184.15 -0.35 184.5 -0.5 184.85 -0.35 M182.85 -0.35 L183.0 0.0 182.85 0.35 182.5 0.5 182.15 0.35 182.0 0.0 182.15 -0.35 182.5 -0.5 182.85 -0.35 M190.85 -0.35 L191.0 0.0 190.85 0.35 190.5 0.5 190.15 0.35 190.0 0.0 190.15 -0.35 190.5 -0.5 190.85 -0.35 M188.85 -0.35 L189.0 0.0 188.85 0.35 188.5 0.5 188.15 0.35 188.0 0.0 188.15 -0.35 188.5 -0.5 188.85 -0.35 M196.85 -0.35 L197.0 0.0 196.85 0.35 196.5 0.5 196.15 0.35 196.0 0.0 196.15 -0.35 196.5 -0.5 196.85 -0.35 M194.85 -0.35 L195.0 0.0 194.85 0.35 194.5 0.5 194.15 0.35 194.0 0.0 194.15 -0.35 194.5 -0.5 194.85 -0.35 M192.85 -0.35 L193.0 0.0 192.85 0.35 192.5 0.5 192.15 0.35 192.0 0.0 192.15 -0.35 192.5 -0.5 192.85 -0.35 M200.85 -0.35 L201.0 0.0 200.85 0.35 200.5 0.5 200.15 0.35 200.0 0.0 200.15 -0.35 200.5 -0.5 200.85 -0.35 M198.85 -0.35 L199.0 0.0 198.85 0.35 198.5 0.5 198.15 0.35 198.0 0.0 198.15 -0.35 198.5 -0.5 198.85 -0.35 M202.85 -0.35 L203.0 0.0 202.85 0.35 202.5 0.5 202.15 0.35 202.0 0.0 202.15 -0.35 202.5 -0.5 202.85 -0.35 M206.85 -0.35 L207.0 0.0 206.85 0.35 206.5 0.5 206.15 0.35 206.0 0.0 206.15 -0.35 206.5 -0.5 206.85 -0.35 M204.85 -0.35 L205.0 0.0 204.85 0.35 204.5 0.5 204.15 0.35 204.0 0.0 204.15 -0.35 204.5 -0.5 204.85 -0.35 M212.5 -0.5 L212.85 -0.35 213.0 0.0 212.85 0.35 212.5 0.5 212.15 0.35 212.0 0.0 212.15 -0.35 212.5 -0.5 M210.85 -0.35 L211.0 0.0 210.85 0.35 210.5 0.5 210.15 0.35 210.0 0.0 210.15 -0.35 210.5 -0.5 210.85 -0.35 M208.85 -0.35 L209.0 0.0 208.85 0.35 208.5 0.5 208.15 0.35 208.0 0.0 208.15 -0.35 208.5 -0.5 208.85 -0.35 M214.5 -0.5 L214.85 -0.35 215.0 0.0 214.85 0.35 214.5 0.5 Q214.3 0.5 214.15 0.35 L214.0 0.0 214.15 -0.35 Q214.3 -0.5 214.5 -0.5 M216.5 -0.5 L216.85 -0.35 217.0 0.0 216.85 0.35 216.5 0.5 216.15 0.35 216.0 0.0 216.15 -0.35 216.5 -0.5 M218.5 -0.5 L218.85 -0.35 219.0 0.0 218.85 0.35 218.5 0.5 218.15 0.35 218.0 0.0 218.15 -0.35 218.5 -0.5 M220.5 -0.5 L220.85 -0.35 221.0 0.0 220.85 0.35 220.5 0.5 220.15 0.35 220.0 0.0 220.15 -0.35 220.5 -0.5 M222.5 -0.5 L222.85 -0.35 223.0 0.0 222.85 0.35 222.5 0.5 222.15 0.35 222.0 0.0 222.15 -0.35 222.5 -0.5 M224.5 -0.5 L224.85 -0.35 225.0 0.0 224.85 0.35 224.5 0.5 224.15 0.35 224.0 0.0 224.15 -0.35 224.5 -0.5 M226.85 -0.35 L227.0 0.0 226.85 0.35 226.5 0.5 226.15 0.35 226.0 0.0 226.15 -0.35 226.5 -0.5 226.85 -0.35 M232.85 -0.35 L233.0 0.0 232.85 0.35 232.5 0.5 232.15 0.35 232.0 0.0 232.15 -0.35 232.5 -0.5 232.85 -0.35 M230.85 -0.35 L231.0 0.0 230.85 0.35 230.5 0.5 230.15 0.35 230.0 0.0 230.15 -0.35 230.5 -0.5 230.85 -0.35 M228.85 -0.35 L229.0 0.0 228.85 0.35 228.5 0.5 228.15 0.35 228.0 0.0 228.15 -0.35 228.5 -0.5 228.85 -0.35 M234.5 -0.5 L234.85 -0.35 235.0 0.0 234.85 0.35 234.5 0.5 234.15 0.35 234.0 0.0 234.15 -0.35 234.5 -0.5 M236.85 -0.35 L237.0 0.0 236.85 0.35 236.5 0.5 236.15 0.35 236.0 0.0 236.15 -0.35 236.5 -0.5 236.85 -0.35 M242.85 -0.35 L243.0 0.0 242.85 0.35 242.5 0.5 242.15 0.35 242.0 0.0 242.15 -0.35 242.5 -0.5 242.85 -0.35 M240.85 -0.35 L241.0 0.0 240.85 0.35 240.5 0.5 240.15 0.35 240.0 0.0 240.15 -0.35 240.5 -0.5 240.85 -0.35 M238.85 -0.35 L239.0 0.0 238.85 0.35 238.5 0.5 238.15 0.35 238.0 0.0 238.15 -0.35 238.5 -0.5 238.85 -0.35 M244.5 -0.5 L244.85 -0.35 245.0 0.0 244.85 0.35 244.5 0.5 244.15 0.35 244.0 0.0 244.15 -0.35 244.5 -0.5 M246.85 -0.35 L247.0 0.0 246.85 0.35 246.5 0.5 246.15 0.35 246.0 0.0 246.15 -0.35 246.5 -0.5 246.85 -0.35 M252.85 -0.35 L253.0 0.0 252.85 0.35 252.5 0.5 252.15 0.35 252.0 0.0 252.15 -0.35 252.5 -0.5 252.85 -0.35 M250.85 -0.35 L251.0 0.0 250.85 0.35 250.5 0.5 250.15 0.35 250.0 0.0 250.15 -0.35 250.5 -0.5 250.85 -0.35 M248.85 -0.35 L249.0 0.0 248.85 0.35 248.5 0.5 248.15 0.35 248.0 0.0 248.15 -0.35 248.5 -0.5 248.85 -0.35 M254.5 -0.5 L254.85 -0.35 255.0 0.0 254.85 0.35 254.5 0.5 254.15 0.35 254.0 0.0 254.15 -0.35 254.5 -0.5 M256.5 -0.5 L256.85 -0.35 257.0 0.0 256.85 0.35 256.5 0.5 Q256.3 0.5 256.15 0.35 L256.0 0.0 256.15 -0.35 Q256.3 -0.5 256.5 -0.5 M258.85 -0.35 L259.0 0.0 258.85 0.35 258.5 0.5 258.15 0.35 258.0 0.0 258.15 -0.35 258.5 -0.5 258.85 -0.35 M260.5 -0.5 L260.85 -0.35 261.0 0.0 260.85 0.35 260.5 0.5 260.15 0.35 260.0 0.0 260.15 -0.35 260.5 -0.5 M262.5 -0.5 L262.85 -0.35 263.0 0.0 262.85 0.35 262.5 0.5 262.15 0.35 262.0 0.0 262.15 -0.35 262.5 -0.5 M264.5 -0.5 L264.85 -0.35 265.0 0.0 264.85 0.35 264.5 0.5 264.15 0.35 264.0 0.0 264.15 -0.35 264.5 -0.5 M266.85 -0.35 L267.0 0.0 266.85 0.35 266.5 0.5 266.15 0.35 266.0 0.0 266.15 -0.35 266.5 -0.5 266.85 -0.35 M272.85 -0.35 L273.0 0.0 272.85 0.35 272.5 0.5 272.15 0.35 272.0 0.0 272.15 -0.35 272.5 -0.5 272.85 -0.35 M270.85 -0.35 L271.0 0.0 270.85 0.35 270.5 0.5 270.15 0.35 270.0 0.0 270.15 -0.35 270.5 -0.5 270.85 -0.35 M268.85 -0.35 L269.0 0.0 268.85 0.35 268.5 0.5 268.15 0.35 268.0 0.0 268.15 -0.35 268.5 -0.5 268.85 -0.35 M274.5 -0.5 L274.85 -0.35 275.0 0.0 274.85 0.35 274.5 0.5 274.15 0.35 274.0 0.0 274.15 -0.35 274.5 -0.5 M276.85 -0.35 L277.0 0.0 276.85 0.35 276.5 0.5 276.15 0.35 276.0 0.0 276.15 -0.35 276.5 -0.5 276.85 -0.35 M282.85 -0.35 L283.0 0.0 282.85 0.35 282.5 0.5 282.15 0.35 282.0 0.0 282.15 -0.35 282.5 -0.5 282.85 -0.35 M280.85 -0.35 L281.0 0.0 280.85 0.35 280.5 0.5 280.15 0.35 280.0 0.0 280.15 -0.35 280.5 -0.5 280.85 -0.35 M278.85 -0.35 L279.0 0.0 278.85 0.35 278.5 0.5 278.15 0.35 278.0 0.0 278.15 -0.35 278.5 -0.5 278.85 -0.35 M284.5 -0.5 L284.85 -0.35 285.0 0.0 284.85 0.35 284.5 0.5 284.15 0.35 284.0 0.0 284.15 -0.35 284.5 -0.5 M288.5 -0.5 L288.85 -0.35 289.0 0.0 288.85 0.35 288.5 0.5 288.15 0.35 288.0 0.0 288.15 -0.35 288.5 -0.5 M286.85 -0.35 L287.0 0.0 286.85 0.35 286.5 0.5 286.15 0.35 286.0 0.0 286.15 -0.35 286.5 -0.5 286.85 -0.35 M292.85 -0.35 L293.0 0.0 292.85 0.35 292.5 0.5 292.15 0.35 292.0 0.0 292.15 -0.35 292.5 -0.5 292.85 -0.35 M290.85 -0.35 L291.0 0.0 290.85 0.35 290.5 0.5 290.15 0.35 290.0 0.0 290.15 -0.35 290.5 -0.5 290.85 -0.35 M294.5 -0.5 L294.85 -0.35 295.0 0.0 294.85 0.35 294.5 0.5 294.15 0.35 294.0 0.0 294.15 -0.35 294.5 -0.5 M296.5 -0.5 L296.85 -0.35 297.0 0.0 296.85 0.35 296.5 0.5 296.15 0.35 296.0 0.0 296.15 -0.35 296.5 -0.5 M298.5 -0.5 L298.85 -0.35 299.0 0.0 298.85 0.35 298.5 0.5 Q298.3 0.5 298.15 0.35 L298.0 0.0 298.15 -0.35 Q298.3 -0.5 298.5 -0.5 M300.5 -0.5 L300.85 -0.35 301.0 0.0 300.85 0.35 300.5 0.5 300.15 0.35 300.0 0.0 300.15 -0.35 300.5 -0.5 M302.5 -0.5 L302.85 -0.35 303.0 0.0 302.85 0.35 302.5 0.5 302.15 0.35 302.0 0.0 302.15 -0.35 302.5 -0.5 M304.5 -0.5 L304.85 -0.35 305.0 0.0 304.85 0.35 304.5 0.5 304.15 0.35 304.0 0.0 304.15 -0.35 304.5 -0.5 M308.5 -0.5 L308.85 -0.35 309.0 0.0 308.85 0.35 308.5 0.5 308.15 0.35 308.0 0.0 308.15 -0.35 308.5 -0.5 M306.85 -0.35 L307.0 0.0 306.85 0.35 306.5 0.5 306.15 0.35 306.0 0.0 306.15 -0.35 306.5 -0.5 306.85 -0.35 M312.85 -0.35 L313.0 0.0 312.85 0.35 312.5 0.5 312.15 0.35 312.0 0.0 312.15 -0.35 312.5 -0.5 312.85 -0.35 M310.85 -0.35 L311.0 0.0 310.85 0.35 310.5 0.5 310.15 0.35 310.0 0.0 310.15 -0.35 310.5 -0.5 310.85 -0.35 M314.5 -0.5 L314.85 -0.35 315.0 0.0 314.85 0.35 314.5 0.5 314.15 0.35 314.0 0.0 314.15 -0.35 314.5 -0.5 M318.85 -0.35 L319.0 0.0 318.85 0.35 318.5 0.5 318.15 0.35 318.0 0.0 318.15 -0.35 318.5 -0.5 318.85 -0.35 M316.85 -0.35 L317.0 0.0 316.85 0.35 316.5 0.5 316.15 0.35 316.0 0.0 316.15 -0.35 316.5 -0.5 316.85 -0.35 M322.85 -0.35 L323.0 0.0 322.85 0.35 322.5 0.5 322.15 0.35 322.0 0.0 322.15 -0.35 322.5 -0.5 322.85 -0.35 M320.85 -0.35 L321.0 0.0 320.85 0.35 320.5 0.5 320.15 0.35 320.0 0.0 320.15 -0.35 320.5 -0.5 320.85 -0.35 M324.5 -0.5 L324.85 -0.35 325.0 0.0 324.85 0.35 324.5 0.5 324.15 0.35 324.0 0.0 324.15 -0.35 324.5 -0.5 M328.85 -0.35 L329.0 0.0 328.85 0.35 328.5 0.5 328.15 0.35 328.0 0.0 328.15 -0.35 328.5 -0.5 328.85 -0.35 M326.85 -0.35 L327.0 0.0 326.85 0.35 326.5 0.5 326.15 0.35 326.0 0.0 326.15 -0.35 326.5 -0.5 326.85 -0.35 M332.85 -0.35 L333.0 0.0 332.85 0.35 332.5 0.5 332.15 0.35 332.0 0.0 332.15 -0.35 332.5 -0.5 332.85 -0.35 M330.85 -0.35 L331.0 0.0 330.85 0.35 330.5 0.5 330.15 0.35 330.0 0.0 330.15 -0.35 330.5 -0.5 330.85 -0.35 M334.5 -0.5 L334.85 -0.35 335.0 0.0 334.85 0.35 334.5 0.5 334.15 0.35 334.0 0.0 334.15 -0.35 334.5 -0.5 M336.5 -0.5 L336.85 -0.35 337.0 0.0 336.85 0.35 336.5 0.5 336.15 0.35 336.0 0.0 336.15 -0.35 336.5 -0.5 M338.5 -0.5 L338.85 -0.35 339.0 0.0 338.85 0.35 338.5 0.5 338.15 0.35 338.0 0.0 338.15 -0.35 338.5 -0.5 M340.5 -0.5 L340.85 -0.35 341.0 0.0 340.85 0.35 340.5 0.5 Q340.3 0.5 340.15 0.35 L340.0 0.0 340.15 -0.35 Q340.3 -0.5 340.5 -0.5 M342.5 -0.5 L342.85 -0.35 343.0 0.0 342.85 0.35 342.5 0.5 342.15 0.35 342.0 0.0 342.15 -0.35 342.5 -0.5 M348.85 -0.35 L349.0 0.0 348.85 0.35 348.5 0.5 348.15 0.35 348.0 0.0 348.15 -0.35 348.5 -0.5 348.85 -0.35 M346.85 -0.35 L347.0 0.0 346.85 0.35 346.5 0.5 346.15 0.35 346.0 0.0 346.15 -0.35 346.5 -0.5 346.85 -0.35 M344.85 -0.35 L345.0 0.0 344.85 0.35 344.5 0.5 344.15 0.35 344.0 0.0 344.15 -0.35 344.5 -0.5 344.85 -0.35 M352.85 -0.35 L353.0 0.0 352.85 0.35 352.5 0.5 352.15 0.35 352.0 0.0 352.15 -0.35 352.5 -0.5 352.85 -0.35 M350.85 -0.35 L351.0 0.0 350.85 0.35 350.5 0.5 350.15 0.35 350.0 0.0 350.15 -0.35 350.5 -0.5 350.85 -0.35 M358.85 -0.35 L359.0 0.0 358.85 0.35 358.5 0.5 358.15 0.35 358.0 0.0 358.15 -0.35 358.5 -0.5 358.85 -0.35 M356.85 -0.35 L357.0 0.0 356.85 0.35 356.5 0.5 356.15 0.35 356.0 0.0 356.15 -0.35 356.5 -0.5 356.85 -0.35 M354.85 -0.35 L355.0 0.0 354.85 0.35 354.5 0.5 354.15 0.35 354.0 0.0 354.15 -0.35 354.5 -0.5 354.85 -0.35 M362.85 -0.35 L363.0 0.0 362.85 0.35 362.5 0.5 362.15 0.35 362.0 0.0 362.15 -0.35 362.5 -0.5 362.85 -0.35 M360.85 -0.35 L361.0 0.0 360.85 0.35 360.5 0.5 360.15 0.35 360.0 0.0 360.15 -0.35 360.5 -0.5 360.85 -0.35 M364.85 -0.35 L365.0 0.0 364.85 0.35 364.5 0.5 364.15 0.35 364.0 0.0 364.15 -0.35 364.5 -0.5 364.85 -0.35 M368.85 -0.35 L369.0 0.0 368.85 0.35 368.5 0.5 368.15 0.35 368.0 0.0 368.15 -0.35 368.5 -0.5 368.85 -0.35 M366.85 -0.35 L367.0 0.0 366.85 0.35 366.5 0.5 366.15 0.35 366.0 0.0 366.15 -0.35 366.5 -0.5 366.85 -0.35 M374.5 -0.5 L374.85 -0.35 375.0 0.0 374.85 0.35 374.5 0.5 374.15 0.35 374.0 0.0 374.15 -0.35 374.5 -0.5 M372.85 -0.35 L373.0 0.0 372.85 0.35 372.5 0.5 372.15 0.35 372.0 0.0 372.15 -0.35 372.5 -0.5 372.85 -0.35 M370.85 -0.35 L371.0 0.0 370.85 0.35 370.5 0.5 370.15 0.35 370.0 0.0 370.15 -0.35 370.5 -0.5 370.85 -0.35 M376.5 -0.5 L376.85 -0.35 377.0 0.0 376.85 0.35 376.5 0.5 376.15 0.35 376.0 0.0 376.15 -0.35 376.5 -0.5 M378.5 -0.5 L378.85 -0.35 379.0 0.0 378.85 0.35 378.5 0.5 378.15 0.35 378.0 0.0 378.15 -0.35 378.5 -0.5 M380.5 -0.5 L380.85 -0.35 381.0 0.0 380.85 0.35 380.5 0.5 380.15 0.35 380.0 0.0 380.15 -0.35 380.5 -0.5 M382.5 -0.5 L382.85 -0.35 383.0 0.0 382.85 0.35 382.5 0.5 Q382.3 0.5 382.15 0.35 L382.0 0.0 382.15 -0.35 Q382.3 -0.5 382.5 -0.5 M384.5 -0.5 L384.85 -0.35 385.0 0.0 384.85 0.35 384.5 0.5 384.15 0.35 384.0 0.0 384.15 -0.35 384.5 -0.5 M386.5 -0.5 L386.85 -0.35 387.0 0.0 386.85 0.35 386.5 0.5 386.15 0.35 386.0 0.0 386.15 -0.35 386.5 -0.5 M388.85 -0.35 L389.0 0.0 388.85 0.35 388.5 0.5 388.15 0.35 388.0 0.0 388.15 -0.35 388.5 -0.5 388.85 -0.35 M394.85 -0.35 L395.0 0.0 394.85 0.35 394.5 0.5 394.15 0.35 394.0 0.0 394.15 -0.35 394.5 -0.5 394.85 -0.35 M392.85 -0.35 L393.0 0.0 392.85 0.35 392.5 0.5 392.15 0.35 392.0 0.0 392.15 -0.35 392.5 -0.5 392.85 -0.35 M390.85 -0.35 L391.0 0.0 390.85 0.35 390.5 0.5 390.15 0.35 390.0 0.0 390.15 -0.35 390.5 -0.5 390.85 -0.35 M396.5 -0.5 L396.85 -0.35 397.0 0.0 396.85 0.35 396.5 0.5 396.15 0.35 396.0 0.0 396.15 -0.35 396.5 -0.5 M398.85 -0.35 L399.0 0.0 398.85 0.35 398.5 0.5 398.15 0.35 398.0 0.0 398.15 -0.35 398.5 -0.5 398.85 -0.35 M404.85 -0.35 L405.0 0.0 404.85 0.35 404.5 0.5 404.15 0.35 404.0 0.0 404.15 -0.35 404.5 -0.5 404.85 -0.35 M402.85 -0.35 L403.0 0.0 402.85 0.35 402.5 0.5 402.15 0.35 402.0 0.0 402.15 -0.35 402.5 -0.5 402.85 -0.35 M400.85 -0.35 L401.0 0.0 400.85 0.35 400.5 0.5 400.15 0.35 400.0 0.0 400.15 -0.35 400.5 -0.5 400.85 -0.35 M406.5 -0.5 L406.85 -0.35 407.0 0.0 406.85 0.35 406.5 0.5 406.15 0.35 406.0 0.0 406.15 -0.35 406.5 -0.5 M408.5 -0.5 L408.85 -0.35 409.0 0.0 408.85 0.35 408.5 0.5 408.15 0.35 408.0 0.0 408.15 -0.35 408.5 -0.5 M410.5 -0.5 L410.85 -0.35 411.0 0.0 410.85 0.35 410.5 0.5 410.15 0.35 410.0 0.0 410.15 -0.35 410.5 -0.5" fill="#636363" fill-rule="evenodd" stroke="none"/>
  </g>
</svg>
