<?xml version="1.0" encoding="UTF-8" standalone="no"?>
<svg xmlns:ffdec="https://www.free-decompiler.com/flash" xmlns:xlink="http://www.w3.org/1999/xlink" ffdec:objectType="shape" height="18.0px" width="37.2px" xmlns="http://www.w3.org/2000/svg">
  <g transform="matrix(1.0, 0.0, 0.0, 1.0, 37.0, 0.05)">
    <path d="M-34.9 15.85 Q-36.75 13.95 -36.95 11.35 L-37.0 10.75 -37.0 9.55 -21.95 9.55 -8.9 9.55 0.2 9.55 0.2 10.75 0.2 11.35 Q-0.05 13.95 -1.9 15.85 -4.0 17.95 -7.0 17.95 L-8.9 17.95 -21.95 17.95 -29.8 17.95 Q-32.8 17.95 -34.9 15.85" fill="#ffffff" fill-opacity="0.24705882" fill-rule="evenodd" stroke="none"/>
    <path d="M-34.9 2.05 Q-32.8 -0.05 -29.8 -0.05 L-21.95 -0.05 -8.9 -0.05 -7.0 -0.05 Q-4.0 -0.05 -1.9 2.05 -1.1 2.85 -0.65 3.75 0.2 5.3 0.2 7.15 L0.2 8.35 -8.9 8.35 -21.95 8.35 -37.0 8.35 -37.0 7.15 Q-37.0 5.3 -36.15 3.75 L-34.9 2.05" fill="#000000" fill-opacity="0.24705882" fill-rule="evenodd" stroke="none"/>
    <path d="M-34.9 14.65 Q-36.35 13.2 -36.75 11.35 L-37.0 9.55 -37.0 8.35 Q-37.0 5.65 -35.3 3.75 L-34.9 3.25 Q-32.8 1.15 -29.8 1.15 L-21.95 1.15 -8.9 1.15 -7.0 1.15 Q-4.0 1.15 -1.9 3.25 L-1.5 3.75 Q0.2 5.65 0.2 8.35 L0.2 9.55 0.0 11.35 Q-0.45 13.2 -1.9 14.65 -4.0 16.75 -7.0 16.75 L-8.9 16.75 -21.95 16.75 -29.8 16.75 Q-32.8 16.75 -34.9 14.65" fill="#ffffff" fill-rule="evenodd" stroke="none"/>
    <path d="M-7.0 2.35 L-8.9 2.35 -21.95 2.35 -29.8 2.35 Q-32.2 2.35 -34.0 3.75 L-34.9 4.45 Q-36.9 6.5 -37.0 9.45 L-37.0 8.35 Q-37.0 5.65 -35.3 3.75 L-34.9 3.25 Q-32.8 1.15 -29.8 1.15 L-21.95 1.15 -8.9 1.15 -7.0 1.15 Q-4.0 1.15 -1.9 3.25 L-1.5 3.75 Q0.2 5.65 0.2 8.35 L0.2 9.45 Q0.15 6.5 -1.9 4.45 L-2.75 3.75 Q-4.6 2.35 -7.0 2.35" fill="#000000" fill-opacity="0.24705882" fill-rule="evenodd" stroke="none"/>
  </g>
</svg>
