<?xml version="1.0" encoding="UTF-8" standalone="no"?>
<svg xmlns:ffdec="https://www.free-decompiler.com/flash" xmlns:xlink="http://www.w3.org/1999/xlink" ffdec:objectType="shape" height="1.0px" width="63.0px" xmlns="http://www.w3.org/2000/svg">
  <g transform="matrix(1.0, 0.0, 0.0, 1.0, -1.0, 0.0)">
    <path d="M64.0 0.5 L63.85 0.85 63.5 1.0 63.15 0.85 63.0 0.5 63.15 0.15 Q63.3 0.0 63.5 0.0 63.7 0.0 63.85 0.15 L64.0 0.5 M61.15 0.15 Q61.3 0.0 61.5 0.0 61.7 0.0 61.85 0.15 L62.0 0.5 61.85 0.85 61.5 1.0 61.15 0.85 61.0 0.5 Q61.0 0.3 61.15 0.15 M59.85 0.15 L60.0 0.5 59.85 0.85 59.5 1.0 59.15 0.85 59.0 0.5 59.15 0.15 Q59.3 0.0 59.5 0.0 L59.85 0.15 M57.85 0.15 L58.0 0.5 57.85 0.85 57.5 1.0 57.15 0.85 57.0 0.5 Q57.0 0.3 57.15 0.15 57.3 0.0 57.5 0.0 57.7 0.0 57.85 0.15 M56.0 0.5 L55.85 0.85 55.5 1.0 55.15 0.85 55.0 0.5 55.15 0.15 Q55.3 0.0 55.5 0.0 L55.85 0.15 56.0 0.5 M54.0 0.5 L53.85 0.85 53.5 1.0 53.15 0.85 53.0 0.5 53.15 0.15 Q53.3 0.0 53.5 0.0 L53.85 0.15 54.0 0.5 M51.15 0.15 L51.5 0.0 Q51.7 0.0 51.85 0.15 L52.0 0.5 51.85 0.85 51.5 1.0 51.15 0.85 51.0 0.5 51.15 0.15 M49.15 0.15 Q49.3 0.0 49.5 0.0 49.7 0.0 49.85 0.15 L50.0 0.5 49.85 0.85 49.5 1.0 49.15 0.85 49.0 0.5 Q49.0 0.3 49.15 0.15 M47.85 0.15 L48.0 0.5 47.85 0.85 47.5 1.0 47.15 0.85 47.0 0.5 47.15 0.15 47.5 0.0 47.85 0.15 M46.0 0.5 L45.85 0.85 45.5 1.0 45.15 0.85 45.0 0.5 Q45.0 0.3 45.15 0.15 45.3 0.0 45.5 0.0 45.7 0.0 45.85 0.15 L46.0 0.5 M44.0 0.5 L43.85 0.85 43.5 1.0 43.15 0.85 43.0 0.5 Q43.0 0.3 43.15 0.15 43.3 0.0 43.5 0.0 L43.85 0.15 44.0 0.5 M41.15 0.15 Q41.3 0.0 41.5 0.0 L41.85 0.15 42.0 0.5 41.85 0.85 41.5 1.0 41.15 0.85 41.0 0.5 41.15 0.15 M39.15 0.15 Q39.3 0.0 39.5 0.0 L39.85 0.15 40.0 0.5 39.85 0.85 39.5 1.0 39.15 0.85 39.0 0.5 39.15 0.15 M37.85 0.15 L38.0 0.5 37.85 0.85 37.5 1.0 37.15 0.85 37.0 0.5 Q37.0 0.3 37.15 0.15 37.3 0.0 37.5 0.0 37.7 0.0 37.85 0.15 M36.0 0.5 L35.85 0.85 35.5 1.0 35.15 0.85 35.0 0.5 35.15 0.15 35.5 0.0 35.85 0.15 36.0 0.5 M33.15 0.15 Q33.3 0.0 33.5 0.0 33.7 0.0 33.85 0.15 L34.0 0.5 33.85 0.85 33.5 1.0 33.15 0.85 33.0 0.5 Q33.0 0.3 33.15 0.15 M31.15 0.15 Q31.3 0.0 31.5 0.0 L31.85 0.15 32.0 0.5 31.85 0.85 31.5 1.0 31.15 0.85 31.0 0.5 Q31.0 0.3 31.15 0.15 M29.85 0.15 L30.0 0.5 29.85 0.85 29.5 1.0 29.15 0.85 29.0 0.5 29.15 0.15 Q29.3 0.0 29.5 0.0 L29.85 0.15 M28.0 0.5 L27.85 0.85 27.5 1.0 27.15 0.85 27.0 0.5 27.15 0.15 Q27.3 0.0 27.5 0.0 L27.85 0.15 28.0 0.5 M26.0 0.5 L25.85 0.85 25.5 1.0 Q25.3 1.0 25.15 0.85 L25.0 0.5 25.15 0.15 Q25.3 0.0 25.5 0.0 L25.85 0.15 26.0 0.5 M23.15 0.15 L23.5 0.0 23.85 0.15 24.0 0.5 23.85 0.85 23.5 1.0 23.15 0.85 23.0 0.5 23.15 0.15 M21.15 0.15 Q21.3 0.0 21.5 0.0 21.7 0.0 21.85 0.15 L22.0 0.5 21.85 0.85 21.5 1.0 21.15 0.85 21.0 0.5 21.15 0.15 M19.15 0.15 Q19.3 0.0 19.5 0.0 19.7 0.0 19.85 0.15 L20.0 0.5 19.85 0.85 19.5 1.0 19.15 0.85 19.0 0.5 Q19.0 0.3 19.15 0.15 M18.0 0.5 L17.85 0.85 17.5 1.0 17.15 0.85 17.0 0.5 17.15 0.15 Q17.3 0.0 17.5 0.0 L17.85 0.15 18.0 0.5 M16.0 0.5 L15.85 0.85 15.5 1.0 15.15 0.85 15.0 0.5 Q15.0 0.3 15.15 0.15 15.3 0.0 15.5 0.0 15.7 0.0 15.85 0.15 L16.0 0.5 M13.15 0.15 Q13.3 0.0 13.5 0.0 L13.85 0.15 14.0 0.5 13.85 0.85 13.5 1.0 13.15 0.85 13.0 0.5 13.15 0.15 M11.15 0.15 Q11.3 0.0 11.5 0.0 L11.85 0.15 12.0 0.5 11.85 0.85 11.5 1.0 11.15 0.85 11.0 0.5 11.15 0.15 M9.85 0.15 L10.0 0.5 9.85 0.85 9.5 1.0 9.15 0.85 9.0 0.5 9.15 0.15 9.5 0.0 Q9.7 0.0 9.85 0.15 M8.0 0.5 L7.85 0.85 7.5 1.0 7.15 0.85 7.0 0.5 Q7.0 0.3 7.15 0.15 7.3 0.0 7.5 0.0 7.7 0.0 7.85 0.15 L8.0 0.5 M6.0 0.5 L5.85 0.85 5.5 1.0 5.15 0.85 5.0 0.5 5.15 0.15 5.5 0.0 5.85 0.15 6.0 0.5 M3.85 0.15 L4.0 0.5 3.85 0.85 3.5 1.0 3.15 0.85 3.0 0.5 Q3.0 0.3 3.15 0.15 3.3 0.0 3.5 0.0 3.7 0.0 3.85 0.15 M1.15 0.15 Q1.3 0.0 1.5 0.0 L1.85 0.15 2.0 0.5 1.85 0.85 1.5 1.0 1.15 0.85 1.0 0.5 Q1.0 0.3 1.15 0.15" fill="#636363" fill-rule="evenodd" stroke="none"/>
  </g>
</svg>
