<?xml version="1.0" encoding="UTF-8" standalone="no"?>
<svg xmlns:ffdec="https://www.free-decompiler.com/flash" xmlns:xlink="http://www.w3.org/1999/xlink" ffdec:objectType="shape" height="358.0px" width="347.95px" xmlns="http://www.w3.org/2000/svg">
  <g transform="matrix(1.0, 0.0, 0.0, 1.0, 187.95, 408.3)">
    <path d="M158.65 -264.35 L158.65 -50.3 -187.95 -50.3 -187.95 -408.3 109.65 -408.3 109.65 -264.35 158.65 -264.35" fill="#434343" fill-rule="evenodd" stroke="none"/>
    <path d="M-63.95 -307.85 L-54.95 -307.85 -54.95 -309.5 -56.75 -309.5 -56.75 -311.8 -71.45 -311.8 -71.45 -399.7 1.5 -399.7 1.5 -344.25 3.0 -344.25 3.0 -350.9 28.4 -350.9 28.4 -311.8 3.0 -311.8 3.0 -328.4 1.5 -328.4 1.5 -311.8 -25.1 -311.8 -25.1 -309.5 -27.95 -309.5 -27.95 -307.85 -17.95 -307.85 -17.95 -265.0 103.0 -265.0 103.0 -249.0 106.65 -249.0 106.65 -150.35 103.0 -150.35 103.0 -134.35 -17.55 -134.35 -17.55 -132.15 -27.65 -132.15 -27.65 -129.7 -25.0 -129.7 -25.0 -127.45 -18.0 -127.45 -18.0 -114.65 0.65 -114.65 0.65 -66.0 -73.2 -66.0 -73.2 -127.45 -56.55 -127.45 -56.55 -129.7 -53.9 -129.7 -53.9 -132.15 -64.0 -132.15 -64.0 -169.35 -68.35 -169.35 -68.35 -173.85 -73.35 -173.85 -73.35 -148.5 -176.7 -148.5 -176.7 -250.85 -73.35 -250.85 -73.35 -204.2 -68.35 -204.2 -68.35 -264.7 -63.95 -264.7 -63.95 -307.85" fill="#969696" fill-rule="evenodd" stroke="none"/>
    <path d="M106.3 -248.7 L109.65 -248.7 109.65 -259.9 154.75 -259.9 154.75 -143.25 109.65 -143.25 109.65 -150.35 106.3 -150.35 106.3 -248.7" fill="#707070" fill-rule="evenodd" stroke="none"/>
    <path d="M109.65 -263.25 L109.65 -266.35 160.0 -266.35 160.0 -137.7 109.65 -137.7 109.65 -139.9 158.1 -139.9 158.1 -263.25 109.65 -263.25" fill="#707070" fill-rule="evenodd" stroke="none"/>
    <path d="M-13.6 -224.45 L-13.6 -223.4 43.1 -223.4 43.1 -174.5 -13.6 -174.5 -13.6 -173.35 -25.35 -173.35 -25.35 -224.45 -13.6 -224.45" fill="#707070" fill-rule="evenodd" stroke="none"/>
    <path d="M-176.7 -234.95 L-176.7 -250.85 -89.6 -250.85 -89.6 -234.95 -176.7 -234.95" fill="#707070" fill-rule="evenodd" stroke="none"/>
    <path d="M-88.9 -164.85 L-88.9 -148.5 -176.7 -148.5 -176.7 -164.85 -88.9 -164.85" fill="#707070" fill-rule="evenodd" stroke="none"/>
    <path d="M52.85 -252.0 L52.85 -265.0 86.2 -265.0 86.2 -252.0 52.85 -252.0" fill="#707070" fill-rule="evenodd" stroke="none"/>
    <path d="M63.75 -153.1 L63.75 -135.6 45.55 -135.6 45.55 -153.1 63.75 -153.1" fill="#707070" fill-rule="evenodd" stroke="none"/>
    <path d="M-87.15 -162.85 L-75.8 -162.85 -75.8 -149.4 -87.15 -149.4 -87.15 -162.85" fill="#707070" fill-rule="evenodd" stroke="none"/>
    <path d="M39.55 -143.65 L41.3 -142.45 42.25 -140.55 42.05 -138.45 40.85 -136.7 38.95 -135.75 36.85 -135.95 35.1 -137.15 34.15 -139.05 34.35 -141.15 35.55 -142.9 37.45 -143.85 39.55 -143.65" fill="#707070" fill-rule="evenodd" stroke="none"/>
    <path d="M92.35 -137.1 L91.2 -139.45 91.4 -142.05 92.9 -144.2 95.25 -145.3 97.85 -145.1 100.0 -143.65 101.15 -141.3 100.95 -138.7 99.45 -136.55 97.1 -135.4 94.5 -135.6 92.35 -137.1" fill="#707070" fill-rule="evenodd" stroke="none"/>
    <path d="M5.75 -345.9 L5.75 -350.9 24.2 -350.9 24.2 -345.9 5.75 -345.9" fill="#707070" fill-rule="evenodd" stroke="none"/>
    <path d="M-30.9 -360.25 L-30.9 -399.7 1.5 -399.7 1.5 -360.25 -30.9 -360.25" fill="#707070" fill-rule="evenodd" stroke="none"/>
    <path d="M-64.0 -378.5 L-64.0 -377.35 -58.2 -377.35 -58.2 -332.9 -64.0 -332.9 -64.0 -331.75 -71.45 -331.75 -71.45 -378.5 -64.0 -378.5" fill="#707070" fill-rule="evenodd" stroke="none"/>
    <path d="M-63.5 -393.85 L-62.0 -393.85 -60.55 -393.5 -59.3 -392.75 -58.45 -391.75 -57.95 -390.55 -57.95 -389.3 -58.4 -388.05 -59.25 -387.05 -60.45 -386.3 -61.9 -385.9 -63.4 -385.85 -64.8 -386.25 -65.5 -386.65 -65.5 -385.3 -71.45 -385.3 -71.45 -394.45 -65.5 -394.45 -65.5 -393.05 -64.9 -393.45 -63.5 -393.85" fill="#707070" fill-rule="evenodd" stroke="none"/>
    <path d="M92.95 -146.5 L92.75 -144.0 91.65 -141.75 89.85 -140.0 87.5 -139.1 85.0 -139.05 82.65 -139.9 80.8 -141.6 79.65 -143.8 79.4 -146.3 80.05 -148.7 81.5 -150.75 83.65 -152.1 86.1 -152.6 88.55 -152.15 90.7 -150.85 92.25 -148.9 92.95 -146.5" fill="#707070" fill-rule="evenodd" stroke="none"/>
    <path d="M49.55 -258.6 L49.4 -256.85 48.65 -255.3 47.35 -254.1 45.75 -253.45 44.05 -253.45 42.4 -254.05 41.1 -255.2 40.3 -256.75 40.15 -258.45 40.6 -260.15 41.6 -261.55 43.05 -262.45 44.75 -262.8 46.5 -262.5 47.95 -261.6 49.05 -260.25 49.55 -258.6" fill="#707070" fill-rule="evenodd" stroke="none"/>
    <path d="M-66.75 -320.85 L-66.45 -321.95 -65.75 -322.9 -64.75 -323.55 -63.6 -323.75 -62.45 -323.55 -61.45 -322.95 -60.75 -322.05 -60.4 -320.9 -60.5 -319.75 -61.0 -318.7 -61.85 -317.9 -62.95 -317.45 -64.1 -317.45 -65.2 -317.85 -66.1 -318.6 -66.65 -319.65 -66.75 -320.85" fill="#707070" fill-rule="evenodd" stroke="none"/>
    <path d="M98.45 -258.45 L99.55 -257.1 100.05 -255.4 99.9 -253.7 99.15 -252.15 97.85 -250.95 96.25 -250.3 94.55 -250.25 92.9 -250.9 91.6 -252.05 90.8 -253.55 90.65 -255.3 91.1 -256.95 92.1 -258.35 93.55 -259.3 95.25 -259.65 97.0 -259.35 98.45 -258.45" fill="#707070" fill-rule="evenodd" stroke="none"/>
    <path d="M0.65 -59.35 L0.65 -114.65 98.4 -114.65 98.4 -59.35 0.65 -59.35" fill="#ffffff" fill-rule="evenodd" stroke="none"/>
  </g>
</svg>
