<?xml version="1.0" encoding="UTF-8" standalone="no"?>
<svg xmlns:ffdec="https://www.free-decompiler.com/flash" xmlns:xlink="http://www.w3.org/1999/xlink" ffdec:objectType="shape" height="100.0px" width="100.0px" xmlns="http://www.w3.org/2000/svg">
  <g transform="matrix(1.0, 0.0, 0.0, 1.0, 0.0, 0.0)">
    <path d="M86.75 22.65 Q86.65 18.7 84.05 15.95 81.3 13.3 77.35 13.2 L22.65 13.2 Q18.7 13.3 15.95 15.95 13.3 18.7 13.2 22.65 L13.2 77.35 Q13.3 81.3 15.95 84.05 18.7 86.65 22.65 86.75 L77.35 86.75 Q81.3 86.65 84.05 84.05 86.65 81.3 86.75 77.35 L86.75 22.65 M88.75 3.1 Q93.85 6.15 96.85 11.25 99.9 16.35 100.0 22.65 L100.0 77.35 Q99.9 83.65 96.85 88.75 93.85 93.85 88.75 96.85 83.65 99.9 77.35 100.0 L22.65 100.0 Q16.35 99.9 11.25 96.85 6.15 93.85 3.1 88.75 0.1 83.65 0.0 77.35 L0.0 22.65 Q0.1 16.35 3.1 11.25 6.15 6.15 11.25 3.1 16.35 0.1 22.65 0.0 L77.35 0.0 Q83.65 0.1 88.75 3.1" fill="#ffffff" fill-rule="evenodd" stroke="none"/>
  </g>
</svg>
