<?xml version="1.0" encoding="UTF-8" standalone="no"?>
<svg xmlns:ffdec="https://www.free-decompiler.com/flash" xmlns:xlink="http://www.w3.org/1999/xlink" ffdec:objectType="shape" height="150.0px" width="150.0px" xmlns="http://www.w3.org/2000/svg">
  <g transform="matrix(1.0, 0.0, 0.0, 1.0, 2.0, 2.0)">
    <path d="M136.85 0.0 L142.15 0.0 Q145.85 0.0 146.0 3.55 M146.0 41.85 L146.0 47.85 M146.0 22.85 L146.0 28.85 M146.0 3.85 L146.0 9.85 M98.85 0.0 L104.85 0.0 M146.0 79.85 L146.0 85.85 M146.0 60.85 L146.0 66.85 M117.85 0.0 L123.85 0.0 M60.85 0.0 L66.85 0.0 M41.85 0.0 L47.85 0.0 M0.0 9.15 L0.0 3.85 Q0.0 0.15 3.55 0.0 M0.0 28.15 L0.0 22.15 M0.0 47.15 L0.0 41.15 M22.85 0.0 L28.85 0.0 M3.85 0.0 L9.85 0.0 M0.0 66.15 L0.0 60.15 M0.0 85.15 L0.0 79.15 M47.15 146.0 L41.15 146.0 M66.15 146.0 L60.15 146.0 M9.15 146.0 L3.85 146.0 Q0.15 146.0 0.0 142.45 M28.15 146.0 L22.15 146.0 M0.0 123.15 L0.0 117.15 M0.0 142.15 L0.0 136.15 M146.0 136.85 L146.0 142.15 Q146.0 145.85 142.45 146.0 M146.0 117.85 L146.0 123.85 M142.15 146.0 L136.15 146.0 M104.15 146.0 L98.15 146.0 M123.15 146.0 L117.15 146.0 M146.0 98.85 L146.0 104.85 M85.15 146.0 L79.15 146.0 M0.0 104.15 L0.0 98.15 M79.85 0.0 L85.85 0.0" fill="none" stroke="#221e1f" stroke-linecap="round" stroke-linejoin="round" stroke-width="4.0"/>
  </g>
</svg>
