<?xml version="1.0" encoding="UTF-8" standalone="no"?>
<svg xmlns:ffdec="https://www.free-decompiler.com/flash" xmlns:xlink="http://www.w3.org/1999/xlink" ffdec:objectType="shape" height="358.0px" width="347.95px" xmlns="http://www.w3.org/2000/svg">
  <g transform="matrix(1.0, 0.0, 0.0, 1.0, 187.95, 408.3)">
    <path d="M158.65 -264.35 L158.65 -50.3 -187.95 -50.3 -187.95 -408.3 109.65 -408.3 109.65 -264.35 158.65 -264.35" fill="#434343" fill-rule="evenodd" stroke="none"/>
    <path d="M-14.65 -229.35 L-21.7 -229.35 -21.7 -169.0 -14.65 -169.0 -14.65 -229.35 M-67.8 -376.85 L-67.8 -378.9 -71.4 -378.9 -71.4 -397.5 -67.85 -397.5 -67.85 -399.7 1.5 -399.7 1.5 -344.25 3.0 -344.25 3.0 -350.9 28.4 -350.9 28.4 -311.8 3.0 -311.8 3.0 -328.4 1.5 -328.4 1.5 -311.8 -25.1 -311.8 -25.1 -309.5 -27.95 -309.5 -27.95 -307.85 -17.95 -307.85 -17.95 -265.0 103.0 -265.0 103.0 -249.0 106.65 -249.0 106.65 -150.35 103.0 -150.35 103.0 -134.35 -17.55 -134.35 -17.55 -132.15 -27.65 -132.15 -27.65 -129.7 -25.0 -129.7 -25.0 -127.45 -18.0 -127.45 -18.0 -114.65 0.65 -114.65 0.65 -66.0 -73.2 -66.0 -73.2 -127.45 -56.55 -127.45 -56.55 -129.7 -53.9 -129.7 -53.9 -132.15 -64.0 -132.15 -64.0 -169.35 -68.35 -169.35 -68.35 -173.85 -73.35 -173.85 -73.35 -148.5 -176.7 -148.5 -176.7 -250.85 -73.35 -250.85 -73.35 -204.2 -68.35 -204.2 -68.35 -264.7 -63.95 -264.7 -63.95 -307.85 -54.95 -307.85 -54.95 -309.5 -56.75 -309.5 -56.75 -311.8 -67.8 -311.8 -67.8 -324.45 -71.4 -324.45 -71.4 -376.85 -67.8 -376.85" fill="#969696" fill-rule="evenodd" stroke="none"/>
    <path d="M106.3 -248.7 L109.65 -248.7 109.65 -259.9 154.75 -259.9 154.75 -143.25 109.65 -143.25 109.65 -150.35 106.3 -150.35 106.3 -248.7" fill="#707070" fill-rule="evenodd" stroke="none"/>
    <path d="M109.65 -263.25 L109.65 -266.35 160.0 -266.35 160.0 -137.7 109.65 -137.7 109.65 -139.9 158.1 -139.9 158.1 -263.25 109.65 -263.25" fill="#707070" fill-rule="evenodd" stroke="none"/>
    <path d="M-14.65 -220.75 L42.75 -220.75 42.75 -177.5 -14.65 -177.5 -14.65 -220.75" fill="#707070" fill-rule="evenodd" stroke="none"/>
    <path d="M-176.7 -234.95 L-176.7 -250.85 -89.35 -250.85 -89.35 -234.95 -176.7 -234.95" fill="#707070" fill-rule="evenodd" stroke="none"/>
    <path d="M-86.7 -163.35 L-76.25 -163.35 -76.25 -149.2 -86.7 -149.2 -86.7 -163.35" fill="#707070" fill-rule="evenodd" stroke="none"/>
    <path d="M-89.6 -164.85 L-89.6 -148.5 -176.7 -148.5 -176.7 -164.85 -89.6 -164.85" fill="#707070" fill-rule="evenodd" stroke="none"/>
    <path d="M45.25 -251.7 L45.25 -265.0 80.3 -265.0 80.3 -251.7 45.25 -251.7" fill="#707070" fill-rule="evenodd" stroke="none"/>
    <path d="M87.5 -137.15 L71.85 -153.15 89.7 -170.6 105.35 -154.6 87.5 -137.15" fill="#707070" fill-rule="evenodd" stroke="none"/>
    <path d="M99.1 -263.1 L101.2 -261.7 102.3 -259.4 102.1 -256.9 100.65 -254.8 98.4 -253.7 95.85 -253.9 93.8 -255.35 92.7 -257.6 92.9 -260.15 94.3 -262.2 96.6 -263.3 99.1 -263.1" fill="#707070" fill-rule="evenodd" stroke="none"/>
    <path d="M81.6 -136.45 L79.85 -137.65 78.95 -139.55 79.1 -141.65 80.3 -143.4 82.2 -144.3 84.3 -144.15 86.05 -142.95 86.95 -141.05 86.8 -138.95 85.6 -137.2 83.7 -136.3 81.6 -136.45" fill="#707070" fill-rule="evenodd" stroke="none"/>
    <path d="M36.4 -263.3 L38.45 -261.95 39.5 -259.7 39.3 -257.25 37.95 -255.25 35.7 -254.2 33.25 -254.35 31.25 -255.75 30.2 -257.95 30.35 -260.4 31.75 -262.45 33.95 -263.5 36.4 -263.3" fill="#707070" fill-rule="evenodd" stroke="none"/>
    <path d="M5.75 -345.9 L5.75 -350.9 24.2 -350.9 24.2 -345.9 5.75 -345.9" fill="#707070" fill-rule="evenodd" stroke="none"/>
    <path d="M-22.45 -396.35 L1.5 -396.35 1.5 -351.6 -22.45 -351.6 -22.45 -396.35" fill="#707070" fill-rule="evenodd" stroke="none"/>
    <path d="M-0.7 -402.35 L-0.7 -366.9 -20.0 -366.9 -20.0 -402.35 -0.7 -402.35" fill="#707070" fill-rule="evenodd" stroke="none"/>
    <path d="M6.0 -389.0 L6.0 -360.45 -13.35 -360.45 -13.35 -389.0 6.0 -389.0" fill="#707070" fill-rule="evenodd" stroke="none"/>
    <path d="M-59.45 -384.55 L-63.1 -384.55 -63.1 -383.95 -68.95 -383.95 -68.95 -393.1 -63.1 -393.1 -63.1 -392.5 -59.55 -392.55 -58.1 -392.15 -56.9 -391.4 -56.0 -390.4 -55.5 -389.2 -55.5 -387.95 -55.95 -386.75 -56.8 -385.7 -58.0 -384.95 -59.45 -384.55" fill="#707070" fill-rule="evenodd" stroke="none"/>
    <path d="M-71.4 -325.0 L-71.4 -376.85 -58.0 -376.85 -58.0 -325.0 -71.4 -325.0" fill="#707070" fill-rule="evenodd" stroke="none"/>
    <path d="M0.65 -59.35 L0.65 -114.65 98.4 -114.65 98.4 -59.35 0.65 -59.35" fill="#ffffff" fill-rule="evenodd" stroke="none"/>
  </g>
</svg>
