<?xml version="1.0" encoding="UTF-8" standalone="no"?>
<svg xmlns:ffdec="https://www.free-decompiler.com/flash" xmlns:xlink="http://www.w3.org/1999/xlink" ffdec:objectType="shape" height="886.05px" width="1599.8px" xmlns="http://www.w3.org/2000/svg">
  <g transform="matrix(1.0, 0.0, 0.0, 1.0, 629.5, 199.5)">
    <path d="M466.95 -19.9 L479.45 -10.2 506.1 14.0 528.3 38.0 558.3 79.5 566.75 93.85 574.75 109.55 593.9 155.85 598.85 171.7 615.45 239.05 621.15 255.8 623.2 260.8 636.95 286.55 649.65 305.9 668.9 328.0 680.8 339.75 686.7 343.85 970.3 581.5 882.7 686.55 782.25 602.95 776.85 597.75 644.1 487.3 638.8 482.3 572.85 426.7 561.5 414.9 549.85 401.2 521.2 361.1 512.8 347.2 504.6 331.4 498.4 317.8 485.3 284.05 480.4 268.3 463.85 201.2 458.35 185.05 441.95 153.2 433.35 139.45 429.55 135.65 414.25 117.65 398.35 101.35 392.8 97.35 385.2 91.05 365.95 77.75 348.35 68.15 332.3 60.85 306.3 52.3 300.55 51.85 281.75 48.15 245.85 46.1 -20.1 46.1 -20.1 150.9 -629.5 150.9 -629.5 -199.5 -20.1 -199.5 -20.1 -91.25 267.75 -91.0 301.95 -88.2 319.0 -85.35 350.65 -77.75 383.3 -67.2 399.4 -60.45 437.3 -40.1 466.95 -19.9" fill="#434343" fill-rule="evenodd" stroke="none"/>
    <path d="M-97.2 40.1 L-97.2 36.75 -158.9 36.75 -158.9 6.0 -168.5 6.0 -168.5 28.7 -177.85 28.7 -177.85 42.2 -168.5 42.2 -168.5 93.0 -165.45 93.0 -165.45 40.1 -97.2 40.1 M-249.55 28.7 L-268.5 28.7 -268.5 42.2 -249.55 42.2 -249.55 28.7 M-249.55 -75.2 L-249.55 -88.0 -268.5 -88.0 -268.5 -75.2 -249.55 -75.2 M-358.45 28.7 L-358.45 42.2 -339.55 42.2 -339.55 28.7 -358.45 28.7 M-428.05 42.2 L-428.05 28.7 -448.45 28.7 -448.45 42.2 -428.05 42.2 M-358.45 -88.0 L-358.45 -75.2 -339.55 -75.2 -339.55 -88.0 -358.45 -88.0 M-448.45 -88.0 L-448.45 -75.2 -428.05 -75.2 -428.05 -88.0 -448.45 -88.0 M299.5 -70.85 L315.5 -68.2 324.5 -65.85 321.3 -51.1 330.9 -48.5 334.7 -63.55 345.4 -61.05 361.75 -56.15 376.95 -50.9 391.9 -44.6 400.1 -40.3 393.25 -25.75 402.5 -21.1 409.8 -35.2 428.15 -25.2 456.5 -5.85 468.15 3.15 458.3 15.35 462.8 18.5 465.8 21.75 475.8 10.5 493.8 26.5 514.8 49.15 523.8 60.8 511.5 70.35 517.25 78.15 529.8 69.15 543.5 88.8 551.15 101.8 558.8 116.8 564.5 129.5 550.9 135.65 551.75 138.0 553.75 141.75 554.7 144.95 568.45 139.25 571.6 146.45 577.35 161.5 581.85 175.9 585.95 192.25 588.6 205.85 573.85 208.8 575.8 217.2 590.95 214.2 594.4 228.7 598.65 244.05 604.75 261.9 590.35 267.85 593.35 274.7 607.3 268.2 614.1 281.5 621.85 295.4 632.0 311.35 619.95 320.15 624.2 325.85 635.9 316.75 645.5 328.2 656.2 340.0 669.6 353.25 660.25 364.05 666.25 368.75 675.75 357.5 715.75 391.0 706.25 402.35 712.05 407.2 721.5 396.0 761.5 429.5 752.0 440.85 758.2 446.05 767.8 434.65 807.8 468.15 798.2 479.7 804.05 484.6 813.8 473.0 853.8 506.5 844.0 518.2 850.0 523.25 859.7 511.7 899.7 545.2 889.95 556.85 895.9 561.85 905.7 550.2 945.7 583.7 935.85 595.45 937.75 597.0 891.25 652.25 889.75 650.75 880.45 661.95 839.95 628.45 849.55 616.95 843.85 612.15 834.45 623.45 793.95 589.95 803.65 578.35 797.9 573.5 788.55 584.75 748.05 551.25 757.7 539.75 752.05 535.0 742.55 546.4 702.05 512.9 711.9 501.2 705.9 496.15 696.25 507.75 655.75 474.25 665.7 462.35 660.1 457.65 650.5 469.25 610.0 435.75 619.6 424.3 613.3 418.2 602.95 430.15 585.1 414.15 574.6 403.3 563.7 390.5 555.25 379.45 567.9 369.6 562.5 363.25 561.95 362.45 549.8 371.35 536.0 351.75 528.2 338.85 520.4 323.9 514.65 311.25 529.1 304.55 526.25 300.0 524.15 295.25 Q517.45 298.05 510.7 300.8 L501.9 278.55 497.4 264.1 493.35 247.75 490.75 234.15 505.05 231.3 505.0 230.75 503.1 223.05 488.4 226.05 484.95 211.55 480.65 196.15 474.5 178.3 488.3 172.6 487.5 170.0 485.35 165.5 471.5 171.8 464.8 158.5 457.15 144.5 447.15 128.5 458.55 120.3 454.7 114.35 442.5 123.8 433.5 112.8 418.5 96.8 413.9 92.0 Q409.15 87.15 408.5 87.15 408.1 87.15 417.9 75.95 L412.95 71.7 403.5 83.5 395.8 77.15 375.15 62.8 362.5 55.8 369.2 42.9 362.4 39.3 356.15 52.45 338.7 44.55 330.85 41.7 309.8 35.05 313.25 21.3 311.25 20.5 306.2 19.2 302.95 34.5 284.15 30.8 275.8 29.8 253.8 28.15 254.05 12.45 246.15 12.45 246.15 28.6 193.8 28.6 193.8 12.45 186.5 12.45 186.5 28.6 134.15 28.6 134.15 12.45 126.8 12.45 126.8 28.6 74.5 28.6 74.5 12.45 66.8 12.45 66.8 28.6 14.5 28.6 14.5 12.45 6.5 12.45 6.5 28.6 -45.85 28.6 -45.85 12.45 -49.9 12.45 -49.9 6.0 -54.75 6.0 -54.75 36.75 -83.85 36.75 -83.85 40.1 -59.65 40.1 -59.65 88.85 -71.65 88.85 -71.65 90.25 -86.75 90.25 -86.75 88.85 -121.9 88.85 -121.9 69.7 -131.25 69.7 -131.25 71.5 -125.75 71.5 -125.75 114.25 -131.25 114.25 -131.25 124.2 -165.45 124.2 -165.45 106.5 -168.5 106.5 -168.5 109.2 -177.85 109.2 -177.85 117.95 -188.2 117.95 -188.2 124.5 -239.05 124.5 -239.05 117.95 -249.55 117.95 -249.55 109.2 -268.5 109.2 -268.5 117.95 -278.2 117.95 -278.2 124.5 -329.05 124.5 -329.05 117.95 -339.55 117.95 -339.55 109.2 -358.45 109.2 -358.45 117.95 -368.2 117.95 -368.2 124.5 -419.05 124.5 -419.05 117.95 -428.05 117.95 -428.05 109.2 -448.45 109.2 -448.45 118.5 -518.0 118.5 -518.0 109.2 -528.5 109.2 -528.5 42.2 -518.0 42.2 -518.0 28.7 -528.5 28.7 -528.5 4.95 -499.8 4.95 -499.8 1.25 -571.5 1.25 -571.5 -41.9 -483.35 -41.9 -483.35 1.25 -486.45 1.25 -486.45 4.95 -433.3 4.95 -433.3 -11.95 -440.35 -11.95 -440.35 -32.9 -433.3 -32.9 -433.3 -51.5 -528.5 -51.5 -528.5 -75.2 -518.0 -75.2 -518.0 -88.0 -528.5 -88.0 -528.5 -155.0 -518.0 -155.0 -518.0 -164.2 -448.45 -164.2 -448.45 -155.0 -428.05 -155.0 -428.05 -164.2 -419.05 -164.2 -419.05 -170.75 -368.2 -170.75 -368.2 -164.2 -358.45 -164.2 -358.45 -155.0 -339.55 -155.0 -339.55 -164.2 -329.05 -164.2 -329.05 -170.75 -278.2 -170.75 -278.2 -164.2 -268.5 -164.2 -268.5 -155.0 -249.55 -155.0 -249.55 -164.2 -239.05 -164.2 -239.05 -170.75 -188.2 -170.75 -188.2 -164.2 -177.85 -164.2 -177.85 -155.0 -168.5 -155.0 -168.5 -88.0 -177.85 -88.0 -177.85 -75.2 -168.5 -75.2 -168.5 -52.1 -158.9 -52.1 -158.9 -82.6 -54.75 -82.6 -54.75 -52.1 -49.9 -52.1 -49.9 -58.15 -45.85 -58.15 -45.85 -73.75 6.5 -73.75 6.5 -58.15 14.5 -58.15 14.5 -73.75 66.8 -73.75 66.8 -58.15 74.5 -58.15 74.5 -73.75 126.8 -73.75 126.8 -58.15 134.15 -58.15 134.15 -73.75 186.5 -73.75 186.5 -58.15 193.8 -58.15 193.8 -73.75 246.15 -73.75 246.15 -58.15 255.2 -58.15 255.5 -73.5 266.5 -73.5 283.5 -72.5 299.5 -70.85" fill="#969696" fill-rule="evenodd" stroke="none"/>
    <path d="M-110.5 40.1 L-110.5 49.0 -156.85 49.0 -156.85 90.15 -165.45 90.15 -165.45 40.1 -110.5 40.1" fill="#707070" fill-rule="evenodd" stroke="none"/>
    <path d="M-134.35 71.5 L-125.75 71.5 -125.75 114.25 -134.35 114.25 -134.35 71.5" fill="#707070" fill-rule="evenodd" stroke="none"/>
    <path d="M-95.7 69.8 L-95.7 82.65 -92.5 82.65 -92.5 88.85 -121.9 88.85 -121.9 69.8 -95.7 69.8" fill="#707070" fill-rule="evenodd" stroke="none"/>
    <path d="M-66.0 42.8 L-59.65 42.8 -59.65 78.65 -66.0 78.65 -66.0 42.8" fill="#707070" fill-rule="evenodd" stroke="none"/>
    <path d="M-475.35 -40.15 L-440.35 -40.15 -440.35 -4.25 -475.35 -4.25 -475.35 -40.15" fill="#ffffff" fill-rule="evenodd" stroke="none"/>
    <path d="M-548.1 -18.85 L-541.6 -18.85 -541.6 1.05 -548.1 1.05 -548.1 -18.85" fill="#ffffff" fill-rule="evenodd" stroke="none"/>
    <path d="M-539.15 -18.85 L-532.7 -18.85 -532.7 1.05 -539.15 1.05 -539.15 -18.85" fill="#ffffff" fill-rule="evenodd" stroke="none"/>
    <path d="M-530.25 -18.85 L-523.75 -18.85 -523.75 1.05 -530.25 1.05 -530.25 -18.85" fill="#ffffff" fill-rule="evenodd" stroke="none"/>
    <path d="M-521.3 -18.85 L-514.85 -18.85 -514.85 1.05 -521.3 1.05 -521.3 -18.85" fill="#ffffff" fill-rule="evenodd" stroke="none"/>
    <path d="M-512.4 -18.85 L-505.9 -18.85 -505.9 1.05 -512.4 1.05 -512.4 -18.85" fill="#ffffff" fill-rule="evenodd" stroke="none"/>
    <path d="M-548.1 -21.45 L-548.1 -41.85 -541.6 -41.85 -541.6 -21.45 -548.1 -21.45" fill="#ffffff" fill-rule="evenodd" stroke="none"/>
    <path d="M-539.15 -21.45 L-539.15 -41.85 -532.7 -41.85 -532.7 -21.45 -539.15 -21.45" fill="#ffffff" fill-rule="evenodd" stroke="none"/>
    <path d="M-530.25 -21.45 L-530.25 -41.85 -523.75 -41.85 -523.75 -21.45 -530.25 -21.45" fill="#ffffff" fill-rule="evenodd" stroke="none"/>
    <path d="M-521.3 -21.45 L-521.3 -41.85 -514.85 -41.85 -514.85 -21.45 -521.3 -21.45" fill="#ffffff" fill-rule="evenodd" stroke="none"/>
    <path d="M-512.4 -21.45 L-512.4 -41.85 -505.9 -41.85 -505.9 -21.45 -512.4 -21.45" fill="#ffffff" fill-rule="evenodd" stroke="none"/>
  </g>
</svg>
