<?xml version="1.0" encoding="UTF-8" standalone="no"?>
<svg xmlns:ffdec="https://www.free-decompiler.com/flash" xmlns:xlink="http://www.w3.org/1999/xlink" ffdec:objectType="shape" height="1406.1px" width="240.5px" xmlns="http://www.w3.org/2000/svg">
  <g transform="matrix(1.0, 0.0, 0.0, 1.0, 105.2, 794.5)">
    <path d="M55.55 -741.0 L56.15 -739.3 100.4 -739.3 100.4 -702.0 68.25 -702.0 75.55 -664.5 80.9 -624.7 86.7 353.35 135.3 333.5 135.3 408.5 87.1 433.0 87.55 519.5 79.6 550.3 75.0 562.75 69.35 574.2 62.7 584.4 55.25 593.2 47.05 600.45 38.3 606.0 29.1 609.75 19.7 611.6 10.2 611.6 0.75 609.65 -8.4 605.9 -17.15 600.3 -25.3 593.0 -32.75 584.2 -39.3 573.95 -44.9 562.45 -49.45 549.95 -52.85 536.65 -55.95 519.5 -56.6 435.5 -105.2 408.5 -105.2 333.5 -57.2 353.3 -57.45 319.0 -51.2 -624.7 -51.15 -624.7 -45.8 -664.5 -38.5 -702.0 -70.3 -702.0 -70.3 -739.3 -26.45 -739.3 -25.8 -741.0 -18.3 -756.0 -9.3 -770.0 -4.8 -778.0 4.1 -787.85 11.8 -794.5 16.95 -794.5 25.65 -787.85 34.55 -778.0 39.05 -770.0 48.05 -756.0 55.55 -741.0" fill="#434343" fill-rule="evenodd" stroke="none"/>
    <path d="M-23.0 -549.85 L53.5 -549.85 56.0 -377.0 36.75 -377.0 36.75 -374.75 56.0 -374.75 56.0 -305.9 4.85 -306.0 4.85 -303.95 5.85 -303.95 5.85 -285.0 4.85 -285.0 4.85 -282.75 53.65 -282.75 53.65 -219.25 23.15 -219.25 23.15 -215.35 22.15 -215.35 22.15 -213.5 61.5 -213.5 61.5 2.5 21.55 2.5 21.55 3.05 23.2 3.05 23.2 12.2 39.45 12.2 39.45 35.65 37.55 35.65 37.55 37.7 55.7 37.7 55.7 92.5 31.5 92.5 31.5 93.0 32.5 93.0 32.5 99.25 31.5 99.25 31.5 100.2 55.7 100.2 55.7 139.85 9.5 139.85 9.5 141.0 10.5 141.0 10.5 149.0 9.5 149.0 9.5 149.75 37.75 149.75 37.75 210.0 9.75 210.0 9.75 211.5 10.75 211.5 10.75 219.5 9.75 219.5 9.75 221.7 49.7 221.7 49.7 356.25 -22.3 356.25 -22.3 221.7 -3.75 221.7 -3.75 219.5 -5.0 219.5 -5.0 211.5 -3.75 211.5 -3.75 210.0 -8.0 210.0 -8.0 149.75 -4.0 149.75 -4.0 149.0 -5.25 149.0 -5.25 141.0 -4.0 141.0 -4.0 139.85 -26.65 139.85 -26.65 100.2 18.0 100.2 18.0 99.25 16.75 99.25 16.75 93.0 18.0 93.0 18.0 92.5 -26.65 92.5 -26.65 62.5 -13.3 62.5 -13.3 48.5 5.35 48.5 5.35 37.7 25.55 37.7 25.55 35.65 23.65 35.65 23.65 27.5 7.2 27.5 7.2 3.05 9.55 3.05 9.55 2.5 -33.0 2.5 -33.0 -213.5 8.65 -213.5 8.65 -215.35 7.4 -215.35 7.4 -219.25 -25.0 -219.25 -25.0 -282.75 -8.65 -282.75 -8.65 -285.0 -17.5 -285.0 -17.5 -303.95 -8.65 -303.95 -8.65 -306.0 -27.0 -306.0 -27.0 -374.75 22.9 -374.75 22.9 -377.0 -27.0 -377.0 -23.0 -549.85" fill="#969696" fill-rule="evenodd" stroke="none"/>
    <path d="M17.15 221.7 L39.65 221.7 39.65 225.0 38.65 225.0 38.65 356.25 29.0 356.25 29.0 260.0 35.15 260.0 35.15 225.0 31.25 225.0 31.25 229.0 17.15 229.0 17.15 221.7" fill="#707070" fill-rule="evenodd" stroke="none"/>
    <path d="M40.0 230.25 L48.0 230.25 48.0 259.25 40.0 259.25 40.0 230.25" fill="#707070" fill-rule="evenodd" stroke="none"/>
    <path d="M42.75 350.5 L42.75 346.75 48.0 346.75 48.0 350.5 42.75 350.5" fill="#707070" fill-rule="evenodd" stroke="none"/>
    <path d="M-19.25 351.75 L-19.25 347.75 -14.5 347.75 -14.5 351.75 -19.25 351.75" fill="#707070" fill-rule="evenodd" stroke="none"/>
    <path d="M-10.5 249.0 L-12.1 249.0 -12.1 253.4 -10.5 253.4 -10.5 249.0 M-12.1 237.6 L-12.1 239.1 -10.5 239.1 -10.5 237.6 -12.1 237.6 M-10.5 241.3 L-12.1 241.3 -12.1 244.25 -10.5 244.25 -10.5 241.3 M-10.5 235.45 L-10.5 233.95 -12.1 233.95 -12.1 235.45 -10.5 235.45 M-14.1 221.7 L-12.1 221.7 -12.1 231.75 -10.5 231.75 -10.5 221.7 -6.25 221.7 -6.25 245.0 -0.25 245.0 -0.25 257.5 -6.25 257.5 -6.25 259.75 -1.5 259.75 -1.5 356.25 -10.5 356.25 -10.5 258.15 -12.1 258.15 -12.1 356.25 -14.1 356.25 -14.1 258.0 -20.5 258.0 -20.5 243.9 -14.1 243.9 -14.1 241.3 -20.6 241.3 -20.6 239.1 -14.1 239.1 -14.1 237.6 -20.6 237.6 -20.6 235.45 -14.1 235.45 -14.1 233.95 -20.5 233.95 -20.5 231.75 -14.1 231.75 -14.1 221.7" fill="#707070" fill-rule="evenodd" stroke="none"/>
    <path d="M-15.85 226.65 L-15.85 229.9 -19.1 229.9 -19.1 226.65 -15.85 226.65" fill="#707070" fill-rule="evenodd" stroke="none"/>
    <path d="M-18.75 262.4 L-15.5 262.4 -15.5 265.65 -18.75 265.65 -18.75 262.4" fill="#707070" fill-rule="evenodd" stroke="none"/>
    <path d="M26.0 210.0 L21.0 210.0 21.0 204.05 26.0 204.05 26.0 210.0" fill="#707070" fill-rule="evenodd" stroke="none"/>
    <path d="M28.35 187.25 L35.5 187.25 35.5 210.0 28.35 210.0 28.35 187.25" fill="#707070" fill-rule="evenodd" stroke="none"/>
    <path d="M31.7 183.85 L30.25 182.85 29.95 181.85 29.85 180.85 30.25 179.95 31.7 178.95 35.5 178.95 35.5 183.85 31.7 183.85" fill="#707070" fill-rule="evenodd" stroke="none"/>
    <path d="M-8.0 181.1 L-4.8 181.1 -4.8 193.1 -8.0 193.1 -8.0 181.1" fill="#707070" fill-rule="evenodd" stroke="none"/>
    <path d="M-4.8 152.35 L-4.8 166.1 -8.0 166.1 -8.0 152.35 -4.8 152.35" fill="#707070" fill-rule="evenodd" stroke="none"/>
    <path d="M9.9 152.15 L9.9 149.75 37.75 149.75 37.75 172.75 26.5 172.75 26.5 152.15 9.9 152.15" fill="#707070" fill-rule="evenodd" stroke="none"/>
    <path d="M37.1 129.1 L50.0 129.1 50.0 139.85 37.1 139.85 37.1 129.1" fill="#707070" fill-rule="evenodd" stroke="none"/>
    <path d="M5.95 100.2 L5.95 107.7 -8.75 107.7 -8.75 137.6 -6.15 137.6 -6.15 139.85 -15.0 139.85 -15.0 127.0 -19.0 127.0 -19.0 112.25 -15.0 112.25 -15.0 110.95 -18.05 110.95 -18.05 108.2 -15.0 108.2 -15.0 100.2 5.95 100.2" fill="#707070" fill-rule="evenodd" stroke="none"/>
    <path d="M14.0 100.2 L14.0 103.75 7.3 103.75 7.3 100.2 14.0 100.2" fill="#707070" fill-rule="evenodd" stroke="none"/>
    <path d="M41.8 102.85 L41.8 101.95 50.1 101.95 50.1 109.0 41.8 109.0 41.8 108.25 35.2 108.25 35.2 106.2 41.8 106.2 41.8 104.95 35.05 104.95 35.05 102.85 41.8 102.85" fill="#707070" fill-rule="evenodd" stroke="none"/>
    <path d="M37.15 108.9 L41.1 108.9 41.1 113.0 43.4 113.0 43.4 109.9 48.9 109.9 48.9 113.9 45.1 113.9 45.1 114.65 46.9 114.65 46.9 117.2 45.1 117.2 45.1 121.1 38.8 121.1 38.8 115.95 37.15 115.95 37.15 108.9" fill="#707070" fill-rule="evenodd" stroke="none"/>
    <path d="M35.05 123.7 L35.05 121.9 42.0 121.9 42.0 123.7 35.05 123.7" fill="#707070" fill-rule="evenodd" stroke="none"/>
    <path d="M35.05 127.65 L35.05 125.8 42.0 125.8 42.0 127.65 35.05 127.65" fill="#707070" fill-rule="evenodd" stroke="none"/>
    <path d="M36.9 43.25 L44.4 43.25 44.4 58.0 44.75 58.0 44.75 65.5 45.0 65.5 45.0 80.9 44.65 80.9 44.65 87.25 41.75 87.25 41.75 80.9 36.65 80.9 36.65 65.5 41.9 65.5 41.9 58.65 36.9 58.65 36.9 43.25" fill="#707070" fill-rule="evenodd" stroke="none"/>
    <path d="M-14.6 80.75 L-17.6 80.75 -17.6 65.4 -14.6 65.4 -14.6 80.75" fill="#707070" fill-rule="evenodd" stroke="none"/>
    <path d="M-13.85 85.5 L-13.85 70.15 -10.85 70.15 -10.85 85.5 -13.85 85.5" fill="#707070" fill-rule="evenodd" stroke="none"/>
    <path d="M5.35 62.15 L5.35 42.5 7.4 42.5 7.4 62.15 5.35 62.15" fill="#707070" fill-rule="evenodd" stroke="none"/>
    <path d="M10.35 53.65 L11.1 54.05 11.6 54.8 11.75 55.65 11.5 56.5 10.9 57.15 10.1 57.5 9.2 57.4 8.45 57.0 7.95 56.25 7.8 55.4 8.05 54.55 8.65 53.9 9.45 53.55 10.35 53.65" fill="#707070" fill-rule="evenodd" stroke="none"/>
    <path d="M12.3 55.25 L12.2 54.4 12.45 53.55 13.0 52.9 13.85 52.55 14.7 52.65 15.5 53.05 16.0 53.8 16.1 54.65 15.85 55.5 15.25 56.15 14.45 56.5 13.6 56.4 12.8 56.0 12.3 55.25" fill="#707070" fill-rule="evenodd" stroke="none"/>
    <path d="M15.7 46.9 L16.5 47.3 17.0 48.05 17.1 48.9 16.85 49.75 16.25 50.4 15.45 50.75 14.6 50.65 13.8 50.25 13.3 49.5 13.2 48.65 13.45 47.8 14.0 47.15 14.85 46.8 15.7 46.9" fill="#707070" fill-rule="evenodd" stroke="none"/>
    <path d="M8.8 51.25 L9.05 50.4 9.65 49.75 10.45 49.45 11.35 49.5 12.1 49.95 12.6 50.65 12.75 51.55 12.5 52.4 11.9 53.0 11.1 53.35 10.2 53.3 9.45 52.85 8.95 52.15 8.8 51.25" fill="#707070" fill-rule="evenodd" stroke="none"/>
    <path d="M11.35 43.75 L12.1 44.2 12.6 44.9 12.75 45.8 12.5 46.65 11.9 47.25 11.1 47.6 10.2 47.55 9.45 47.1 8.95 46.4 8.8 45.5 9.05 44.65 9.65 44.0 10.45 43.7 11.35 43.75" fill="#707070" fill-rule="evenodd" stroke="none"/>
    <path d="M-14.0 88.75 L-2.75 88.75 -2.75 90.65 9.5 90.65 9.5 91.75 -14.0 92.15 -14.0 88.75" fill="#707070" fill-rule="evenodd" stroke="none"/>
    <path d="M39.45 21.2 L39.45 32.45 37.2 32.45 37.2 28.85 36.45 28.85 36.45 21.2 39.45 21.2" fill="#707070" fill-rule="evenodd" stroke="none"/>
    <path d="M37.25 18.6 L37.25 16.1 39.45 16.1 39.45 18.6 37.25 18.6" fill="#707070" fill-rule="evenodd" stroke="none"/>
    <path d="M37.95 12.2 L37.95 13.85 29.6 13.85 29.6 12.2 37.95 12.2" fill="#707070" fill-rule="evenodd" stroke="none"/>
    <path d="M22.75 24.45 L22.75 27.5 7.85 27.5 7.85 24.45 22.75 24.45" fill="#707070" fill-rule="evenodd" stroke="none"/>
    <path d="M44.95 -220.25 L44.95 -231.55 50.75 -231.55 50.75 -220.25 44.95 -220.25" fill="#707070" fill-rule="evenodd" stroke="none"/>
    <path d="M29.25 -221.4 L29.25 -232.3 38.5 -232.3 38.5 -221.4 29.25 -221.4" fill="#707070" fill-rule="evenodd" stroke="none"/>
    <path d="M25.35 -219.25 L25.35 -221.25 29.45 -221.25 29.45 -219.25 25.35 -219.25" fill="#707070" fill-rule="evenodd" stroke="none"/>
    <path d="M-11.3 -219.25 L-11.3 -221.1 -1.4 -221.1 -1.4 -223.0 5.0 -223.0 5.0 -221.1 5.6 -221.1 5.6 -219.25 -11.3 -219.25" fill="#707070" fill-rule="evenodd" stroke="none"/>
    <path d="M-22.35 -282.75 L-14.25 -282.75 -14.25 -278.75 -10.1 -278.75 -10.1 -268.1 -14.25 -268.1 -14.25 -267.35 -7.25 -267.35 -7.25 -263.75 -14.25 -263.75 -14.25 -260.75 -6.25 -260.75 -6.25 -257.1 -14.25 -257.1 -14.25 -255.75 -7.6 -255.75 -7.6 -252.1 -14.25 -252.1 -14.25 -248.85 -10.1 -248.85 -10.1 -238.25 -14.25 -238.25 -14.25 -236.75 -7.6 -236.75 -7.6 -224.6 -14.25 -224.6 -14.25 -219.25 -22.35 -219.25 -22.35 -282.75" fill="#707070" fill-rule="evenodd" stroke="none"/>
    <path d="M-17.5 -285.0 L-17.5 -303.95 -8.0 -303.95 -8.0 -285.0 -17.5 -285.0" fill="#707070" fill-rule="evenodd" stroke="none"/>
    <path d="M-21.25 -374.75 L-14.75 -374.75 -14.75 -367.75 -10.75 -367.75 -10.75 -354.4 -14.75 -354.4 -14.75 -351.75 -7.4 -351.75 -7.4 -348.75 -14.75 -348.75 -14.75 -333.25 -10.4 -333.25 -10.4 -319.9 -14.75 -319.9 -14.75 -306.0 -21.25 -306.0 -21.25 -374.75" fill="#707070" fill-rule="evenodd" stroke="none"/>
    <path d="M41.25 -374.75 L51.1 -374.75 51.1 -305.9 41.25 -305.9 41.25 -335.9 33.8 -335.9 33.8 -338.6 41.25 -338.6 41.25 -339.65 33.95 -339.65 33.95 -342.35 41.25 -342.35 41.25 -343.4 33.95 -343.4 33.95 -346.1 41.25 -346.1 41.25 -349.8 35.1 -349.8 35.1 -352.5 41.25 -352.5 41.25 -354.3 35.25 -354.3 35.25 -357.0 41.25 -357.0 41.25 -374.75" fill="#707070" fill-rule="evenodd" stroke="none"/>
    <path d="M4.25 -286.75 L4.25 -302.75 5.85 -302.75 5.85 -286.75 4.25 -286.75" fill="#707070" fill-rule="evenodd" stroke="none"/>
    <path d="M0.75 -374.0 L0.75 -371.85 -4.35 -371.85 -4.35 -374.0 0.75 -374.0" fill="#707070" fill-rule="evenodd" stroke="none"/>
    <path d="M3.0 -372.35 L3.0 -374.75 6.15 -374.75 6.15 -372.35 3.0 -372.35" fill="#707070" fill-rule="evenodd" stroke="none"/>
    <path d="M-9.5 -372.25 L-12.6 -372.25 -12.6 -374.75 -9.5 -374.75 -9.5 -372.25" fill="#707070" fill-rule="evenodd" stroke="none"/>
    <path d="M20.9 -374.75 L20.9 -372.35 17.75 -372.35 17.75 -374.75 20.9 -374.75" fill="#707070" fill-rule="evenodd" stroke="none"/>
    <path d="M-6.15 -378.8 L-6.15 -384.15 7.85 -384.15 7.85 -377.0 -13.65 -377.0 -13.65 -378.8 -6.15 -378.8" fill="#707070" fill-rule="evenodd" stroke="none"/>
    <path d="M-8.5 -398.8 L-8.5 -385.3 -15.0 -385.3 -15.0 -398.8 -8.5 -398.8" fill="#707070" fill-rule="evenodd" stroke="none"/>
    <path d="M-3.3 -404.15 L-3.3 -401.15 -15.15 -401.15 -15.15 -404.15 -3.3 -404.15" fill="#707070" fill-rule="evenodd" stroke="none"/>
    <path d="M37.7 -437.65 L37.7 -447.45 45.0 -447.45 45.0 -437.65 37.7 -437.65" fill="#707070" fill-rule="evenodd" stroke="none"/>
    <path d="M-8.5 -446.65 L-8.5 -437.3 -16.5 -437.3 -16.5 -446.65 -8.5 -446.65" fill="#707070" fill-rule="evenodd" stroke="none"/>
    <path d="M41.5 -430.0 L41.5 -434.5 45.35 -434.5 45.35 -430.0 41.5 -430.0" fill="#707070" fill-rule="evenodd" stroke="none"/>
    <path d="M46.2 -381.3 L41.0 -381.3 41.0 -386.15 39.85 -386.15 39.85 -392.3 47.85 -392.3 47.85 -386.15 46.2 -386.15 46.2 -381.3" fill="#707070" fill-rule="evenodd" stroke="none"/>
    <path d="M49.5 -401.3 L49.5 -397.3 44.35 -397.3 44.35 -395.0 38.85 -395.0 38.85 -402.15 44.35 -402.15 44.35 -401.3 49.5 -401.3" fill="#707070" fill-rule="evenodd" stroke="none"/>
    <path d="M36.0 -524.8 L36.0 -514.5 27.5 -514.5 27.5 -524.8 36.0 -524.8" fill="#707070" fill-rule="evenodd" stroke="none"/>
    <path d="M-0.15 -524.8 L-0.15 -514.5 -8.65 -514.5 -8.65 -524.8 -0.15 -524.8" fill="#707070" fill-rule="evenodd" stroke="none"/>
    <path d="M43.7 -530.8 L41.35 -530.8 41.35 -527.0 35.5 -527.0 35.5 -531.3 37.2 -531.3 37.2 -534.8 40.7 -534.8 40.7 -533.65 43.7 -533.65 43.7 -530.8" fill="#707070" fill-rule="evenodd" stroke="none"/>
    <path d="M26.9 -543.5 L26.9 -531.75 23.0 -531.75 23.0 -543.5 26.9 -543.5" fill="#707070" fill-rule="evenodd" stroke="none"/>
    <path d="M1.5 -543.5 L1.5 -531.75 -2.35 -531.75 -2.35 -543.5 1.5 -543.5" fill="#707070" fill-rule="evenodd" stroke="none"/>
    <path d="M-14.75 266.25 L7.5 266.25 7.5 337.75 -14.75 337.75 -14.75 266.25" fill="#434343" fill-rule="evenodd" stroke="none"/>
    <path d="M21.25 266.5 L43.25 266.5 43.25 337.25 21.25 337.25 21.25 266.5" fill="#434343" fill-rule="evenodd" stroke="none"/>
    <path d="M17.6 175.9 L15.0 175.9 15.0 172.75 40.15 172.75 40.15 175.9 38.95 175.9 38.95 210.0 35.5 210.0 35.5 175.9 19.25 175.9 19.25 181.6 17.6 181.6 17.6 175.9" fill="#434343" fill-rule="evenodd" stroke="none"/>
    <path d="M0.0 172.75 L0.0 175.9 -16.6 175.9 -16.6 172.75 0.0 172.75" fill="#434343" fill-rule="evenodd" stroke="none"/>
    <path d="M17.6 210.0 L17.6 195.15 19.25 195.15 19.25 210.0 17.6 210.0" fill="#434343" fill-rule="evenodd" stroke="none"/>
    <path d="M26.0 115.5 L26.0 119.0 24.7 119.0 24.7 140.7 12.5 140.7 12.5 119.0 11.35 119.0 11.35 115.5 26.0 115.5" fill="#434343" fill-rule="evenodd" stroke="none"/>
    <path d="M32.25 -209.15 L35.1 -210.4 38.1 -211.05 41.2 -211.15 44.25 -210.65 47.15 -209.6 49.8 -208.0 52.1 -205.95 54.0 -203.5 55.35 -200.7 56.2 -197.7 56.4 -194.65 56.05 -191.55 55.15 -188.6 53.7 -185.9 51.7 -183.5 49.35 -181.5 46.65 -180.0 43.7 -179.05 40.65 -178.65 37.55 -178.85 34.55 -179.65 31.75 -180.95 29.25 -182.8 27.2 -185.1 25.55 -187.7 24.45 -190.6 23.9 -193.65 24.0 -196.75 24.6 -199.8 25.8 -202.65 27.55 -205.2 29.7 -207.4 32.25 -209.15" fill="#434343" fill-rule="evenodd" stroke="none"/>
    <path d="M55.35 -164.5 L56.2 -161.5 56.4 -158.45 56.05 -155.35 55.15 -152.4 53.7 -149.7 51.7 -147.3 49.35 -145.3 46.65 -143.8 43.7 -142.85 40.65 -142.45 37.55 -142.65 34.55 -143.45 31.75 -144.75 29.25 -146.6 27.2 -148.9 25.55 -151.5 24.45 -154.4 23.9 -157.45 24.0 -160.55 24.6 -163.6 25.8 -166.45 27.55 -169.0 29.7 -171.2 32.25 -172.95 35.1 -174.2 38.1 -174.85 41.2 -174.95 44.25 -174.45 47.15 -173.4 49.8 -171.8 52.1 -169.75 54.0 -167.25 55.35 -164.5" fill="#434343" fill-rule="evenodd" stroke="none"/>
    <path d="M55.35 -128.3 L56.2 -125.3 56.4 -122.25 56.05 -119.15 55.15 -116.2 53.7 -113.5 51.7 -111.1 49.35 -109.1 46.65 -107.6 43.7 -106.65 40.65 -106.25 37.55 -106.45 34.55 -107.25 31.75 -108.55 29.25 -110.4 27.2 -112.7 25.55 -115.3 24.45 -118.2 23.9 -121.25 24.0 -124.35 24.6 -127.4 25.8 -130.25 27.55 -132.8 29.7 -135.0 32.25 -136.75 35.1 -138.0 38.1 -138.65 41.2 -138.75 44.25 -138.25 47.15 -137.2 49.8 -135.6 52.1 -133.55 54.0 -131.1 55.35 -128.3" fill="#434343" fill-rule="evenodd" stroke="none"/>
    <path d="M49.8 -98.4 L52.1 -96.35 54.0 -93.85 55.35 -91.1 56.2 -88.1 56.4 -85.05 56.05 -81.95 55.15 -79.0 53.7 -76.3 51.7 -73.9 49.35 -71.9 46.65 -70.4 43.7 -69.45 40.65 -69.05 37.55 -69.25 34.55 -70.05 31.75 -71.35 29.25 -73.2 27.2 -75.5 25.55 -78.1 24.45 -81.0 23.9 -84.05 24.0 -87.15 24.6 -90.2 25.8 -93.05 27.55 -95.6 29.7 -97.8 32.25 -99.55 35.1 -100.8 38.1 -101.45 41.2 -101.55 44.25 -101.05 47.15 -100.0 49.8 -98.4" fill="#434343" fill-rule="evenodd" stroke="none"/>
    <path d="M29.7 -61.6 L32.25 -63.35 35.1 -64.6 38.1 -65.25 41.2 -65.35 44.25 -64.85 47.15 -63.8 49.8 -62.2 52.1 -60.15 54.0 -57.7 55.35 -54.9 56.2 -51.9 56.4 -48.85 56.05 -45.75 55.15 -42.8 53.7 -40.1 51.7 -37.7 49.35 -35.7 46.65 -34.2 43.7 -33.25 40.65 -32.85 40.45 -32.85 40.95 -32.45 41.3 -31.8 41.35 -31.05 41.0 -30.4 40.45 -29.9 39.75 -29.75 39.0 -29.85 38.4 -30.3 38.1 -30.95 38.05 -31.7 38.35 -32.4 38.9 -32.85 39.2 -32.95 37.55 -33.05 34.55 -33.85 31.75 -35.15 29.25 -37.0 27.2 -39.3 25.55 -41.9 24.45 -44.8 23.9 -47.85 24.0 -50.95 24.6 -54.0 25.8 -56.85 27.55 -59.4 29.7 -61.6" fill="#434343" fill-rule="evenodd" stroke="none"/>
    <path d="M23.9 -12.15 L24.0 -15.25 24.6 -18.3 25.8 -21.15 27.55 -23.7 29.7 -25.9 32.25 -27.65 35.1 -28.9 38.1 -29.55 41.2 -29.65 44.25 -29.15 47.15 -28.1 49.8 -26.5 52.1 -24.45 54.0 -22.0 55.35 -19.2 56.2 -16.2 56.4 -13.15 56.05 -10.05 55.15 -7.1 53.7 -4.4 51.7 -2.0 49.35 0.0 46.65 1.5 43.7 2.45 40.65 2.85 37.55 2.65 34.55 1.85 31.75 0.55 29.25 -1.3 27.2 -3.6 25.55 -6.2 24.45 -9.1 23.9 -12.15" fill="#434343" fill-rule="evenodd" stroke="none"/>
    <path d="M-18.05 -209.15 L-15.25 -210.4 -12.2 -211.05 -9.15 -211.15 -6.05 -210.65 -3.15 -209.6 -0.5 -208.0 1.8 -205.95 3.65 -203.5 5.05 -200.7 5.85 -197.7 6.1 -194.65 5.75 -191.55 4.8 -188.6 3.35 -185.9 1.4 -183.5 -1.0 -181.5 -3.7 -180.0 -6.65 -179.05 -9.7 -178.65 -12.8 -178.85 -15.8 -179.65 -18.55 -180.95 -21.05 -182.8 -23.15 -185.1 -24.8 -187.7 -25.9 -190.6 -26.4 -193.65 -26.35 -196.75 -25.7 -199.8 -24.5 -202.65 -22.8 -205.2 -20.6 -207.4 -18.05 -209.15" fill="#434343" fill-rule="evenodd" stroke="none"/>
    <path d="M-26.35 -160.55 L-25.7 -163.6 -24.5 -166.45 -22.8 -169.0 -20.6 -171.2 -18.05 -172.95 -15.25 -174.2 -12.2 -174.85 -9.15 -174.95 -6.05 -174.45 -3.15 -173.4 -0.5 -171.8 1.8 -169.75 3.65 -167.25 5.05 -164.5 5.85 -161.5 6.1 -158.45 5.75 -155.35 4.8 -152.4 3.35 -149.7 1.4 -147.3 -1.0 -145.3 -3.7 -143.8 -6.65 -142.85 -9.7 -142.45 -12.8 -142.65 -15.8 -143.45 -18.55 -144.75 -21.05 -146.6 -23.15 -148.9 -24.8 -151.5 -25.9 -154.4 -26.4 -157.45 -26.35 -160.55" fill="#434343" fill-rule="evenodd" stroke="none"/>
    <path d="M-6.05 -138.25 L-3.15 -137.2 -0.5 -135.6 1.8 -133.55 3.65 -131.1 5.05 -128.3 5.85 -125.3 6.1 -122.25 5.75 -119.15 4.8 -116.2 3.35 -113.5 1.4 -111.1 -1.0 -109.1 -3.7 -107.6 -6.65 -106.65 -9.7 -106.25 -12.8 -106.45 -15.8 -107.25 -18.55 -108.55 -21.05 -110.4 -23.15 -112.7 -24.8 -115.3 -25.9 -118.2 -26.4 -121.25 -26.35 -124.35 -25.7 -127.4 -24.5 -130.25 -22.8 -132.8 -20.6 -135.0 -18.05 -136.75 -15.25 -138.0 -12.2 -138.65 -9.15 -138.75 -6.05 -138.25" fill="#434343" fill-rule="evenodd" stroke="none"/>
    <path d="M-6.05 -101.05 L-3.15 -100.0 -0.5 -98.4 1.8 -96.35 3.65 -93.85 5.05 -91.1 5.85 -88.1 6.1 -85.05 5.75 -81.95 4.8 -79.0 3.35 -76.3 1.4 -73.9 -1.0 -71.9 -3.7 -70.4 -6.65 -69.45 -9.7 -69.05 -12.8 -69.25 -15.8 -70.05 -18.55 -71.35 -21.05 -73.2 -23.15 -75.5 -24.8 -78.1 -25.9 -81.0 -26.4 -84.05 -26.35 -87.15 -25.7 -90.2 -24.5 -93.05 -22.8 -95.6 -20.6 -97.8 -18.05 -99.55 -15.25 -100.8 -12.2 -101.45 -9.15 -101.55 -6.05 -101.05" fill="#434343" fill-rule="evenodd" stroke="none"/>
    <path d="M-20.6 -61.6 L-18.05 -63.35 -15.25 -64.6 -12.2 -65.25 -9.15 -65.35 -6.05 -64.85 -3.15 -63.8 -0.5 -62.2 1.8 -60.15 3.65 -57.7 5.05 -54.9 5.85 -51.9 6.1 -48.85 5.75 -45.75 4.8 -42.8 3.35 -40.1 1.4 -37.7 -1.0 -35.7 -3.7 -34.2 -6.65 -33.25 -9.7 -32.85 -12.8 -33.05 -15.8 -33.85 -18.55 -35.15 -21.05 -37.0 -23.15 -39.3 -24.8 -41.9 -25.9 -44.8 -26.4 -47.85 -26.35 -50.95 -25.7 -54.0 -24.5 -56.85 -22.8 -59.4 -20.6 -61.6" fill="#434343" fill-rule="evenodd" stroke="none"/>
    <path d="M-9.45 -32.6 L-8.85 -32.15 -8.55 -31.5 -8.5 -30.75 -8.8 -30.05 -9.3 -29.65 -9.15 -29.65 -6.05 -29.15 -3.15 -28.1 -0.5 -26.5 1.8 -24.45 3.65 -22.0 5.05 -19.2 5.85 -16.2 6.1 -13.15 5.75 -10.05 4.8 -7.1 3.35 -4.4 1.4 -2.0 -1.0 0.0 -3.7 1.5 -6.65 2.45 -9.7 2.85 -12.8 2.65 -15.8 1.85 -18.55 0.55 -21.05 -1.3 -23.15 -3.6 -24.8 -6.2 -25.9 -9.1 -26.4 -12.15 -26.35 -15.25 -25.7 -18.3 -24.5 -21.15 -22.8 -23.7 -20.6 -25.9 -18.05 -27.65 -15.25 -28.9 -12.2 -29.55 -10.9 -29.6 -11.4 -30.0 -11.75 -30.65 -11.8 -31.4 -11.5 -32.05 -10.9 -32.55 -10.2 -32.7 -9.45 -32.6" fill="#434343" fill-rule="evenodd" stroke="none"/>
    <path d="M-9.4 -178.5 L-8.85 -178.05 -8.5 -177.4 -8.45 -176.65 -8.75 -176.0 -9.35 -175.5 -10.05 -175.3 -10.8 -175.45 -11.35 -175.9 -11.7 -176.55 -11.75 -177.3 -11.45 -178.0 -10.85 -178.45 -10.15 -178.65 -9.4 -178.5" fill="#434343" fill-rule="evenodd" stroke="none"/>
    <path d="M-1.35 -142.7 L-1.0 -142.0 -0.95 -141.3 -1.25 -140.6 -1.85 -140.1 -2.55 -139.95 -3.3 -140.1 -3.85 -140.5 -4.2 -141.2 -4.25 -141.9 -3.95 -142.6 -3.35 -143.1 -2.65 -143.25 -1.9 -143.1 -1.35 -142.7" fill="#434343" fill-rule="evenodd" stroke="none"/>
    <path d="M33.8 -137.75 L33.05 -137.55 32.35 -137.7 31.75 -138.15 31.4 -138.8 31.4 -139.55 31.7 -140.25 32.25 -140.7 33.0 -140.9 33.7 -140.75 34.3 -140.3 34.65 -139.65 34.65 -138.9 34.35 -138.25 33.8 -137.75" fill="#434343" fill-rule="evenodd" stroke="none"/>
    <path d="M39.25 -103.15 L38.9 -103.8 38.9 -104.55 39.2 -105.25 39.75 -105.7 40.5 -105.9 41.2 -105.75 41.8 -105.3 42.15 -104.65 42.15 -103.9 41.85 -103.25 41.3 -102.75 40.55 -102.55 39.85 -102.7 39.25 -103.15" fill="#434343" fill-rule="evenodd" stroke="none"/>
    <path d="M-11.5 -104.9 L-10.9 -105.35 -10.2 -105.55 -9.45 -105.4 -8.85 -104.95 -8.55 -104.3 -8.5 -103.55 -8.8 -102.9 -9.35 -102.4 -10.1 -102.25 -10.8 -102.35 -11.4 -102.8 -11.75 -103.45 -11.8 -104.2 -11.5 -104.9" fill="#434343" fill-rule="evenodd" stroke="none"/>
    <path d="M-1.65 -70.1 L-1.05 -69.65 -0.7 -69.0 -0.65 -68.25 -1.0 -67.55 -1.55 -67.1 -2.25 -66.9 -3.0 -67.05 -3.6 -67.5 -3.9 -68.15 -3.95 -68.9 -3.65 -69.55 -3.1 -70.05 -2.35 -70.2 -1.65 -70.1" fill="#434343" fill-rule="evenodd" stroke="none"/>
    <path d="M32.35 -65.05 L31.75 -65.5 31.4 -66.15 31.4 -66.9 31.7 -67.55 32.25 -68.05 32.95 -68.2 33.7 -68.1 34.3 -67.65 34.65 -67.0 34.65 -66.25 34.35 -65.55 33.8 -65.1 33.05 -64.9 32.35 -65.05" fill="#434343" fill-rule="evenodd" stroke="none"/>
    <path d="M39.3 -177.75 L39.9 -178.2 40.6 -178.4 41.35 -178.25 41.9 -177.8 42.25 -177.15 42.3 -176.4 42.0 -175.75 41.4 -175.25 40.7 -175.05 39.95 -175.2 39.4 -175.65 39.05 -176.3 39.0 -177.05 39.3 -177.75" fill="#434343" fill-rule="evenodd" stroke="none"/>
    <path d="M7.2 -314.15 L7.2 -341.3 13.35 -341.3 13.35 -343.8 20.7 -343.8 20.7 -341.3 26.85 -341.3 26.85 -314.15 20.7 -314.15 20.7 -311.0 24.7 -311.0 24.7 -307.3 20.7 -307.3 20.7 -305.9 13.35 -305.9 13.35 -307.3 9.85 -307.3 9.85 -311.0 13.35 -311.0 13.35 -314.15 7.2 -314.15" fill="#434343" fill-rule="evenodd" stroke="none"/>
    <path d="M13.35 -373.8 L15.3 -373.35 17.1 -372.45 18.6 -371.2 19.8 -369.6 20.55 -367.75 20.9 -365.8 20.8 -363.8 20.2 -361.9 19.2 -360.2 17.85 -358.75 16.2 -357.65 14.3 -356.95 12.35 -356.75 10.35 -356.95 8.5 -357.65 6.85 -358.75 5.45 -360.2 4.5 -361.95 3.9 -363.85 3.8 -365.8 4.15 -367.8 4.95 -369.6 6.15 -371.2 7.65 -372.5 9.45 -373.35 11.4 -373.8 13.35 -373.8" fill="#434343" fill-rule="evenodd" stroke="none"/>
    <path d="M-4.85 -543.3 L-4.85 -549.85 29.7 -549.85 29.7 -543.3 22.55 -543.3 22.55 -527.0 19.95 -527.0 19.95 -515.05 22.8 -515.05 22.8 -511.25 33.0 -511.25 33.0 -512.2 44.35 -512.2 44.35 -506.05 33.0 -506.05 33.0 -507.05 22.8 -507.05 22.8 -497.75 33.0 -497.75 33.0 -498.7 44.35 -498.7 44.35 -492.55 33.0 -492.55 33.0 -493.55 22.8 -493.55 22.8 -484.9 33.0 -484.9 33.0 -485.9 44.35 -485.9 44.35 -479.75 33.0 -479.75 33.0 -480.7 22.8 -480.7 22.8 -473.3 27.45 -473.3 27.45 -452.5 33.35 -452.5 33.35 -449.5 27.45 -449.5 27.45 -443.15 33.35 -443.15 33.35 -439.5 27.45 -439.5 27.45 -409.45 14.0 -409.45 14.0 -377.0 10.0 -377.0 10.0 -409.45 7.75 -409.45 7.75 -406.3 1.0 -406.3 1.0 -409.45 -3.05 -409.45 -3.05 -473.3 1.55 -473.3 1.55 -480.7 -5.65 -480.7 -5.65 -479.75 -17.0 -479.75 -17.0 -485.9 -5.65 -485.9 -5.65 -484.9 1.55 -484.9 1.55 -493.55 -5.65 -493.55 -5.65 -492.55 -17.0 -492.55 -17.0 -498.7 -5.65 -498.7 -5.65 -497.75 1.55 -497.75 1.55 -507.05 -5.65 -507.05 -5.65 -506.05 -17.0 -506.05 -17.0 -512.2 -5.65 -512.2 -5.65 -511.25 1.55 -511.25 1.55 -515.05 4.45 -515.05 4.45 -527.0 1.8 -527.0 1.8 -543.3 -4.85 -543.3" fill="#434343" fill-rule="evenodd" stroke="none"/>
    <path d="M15.8 205.4 L16.45 206.1 16.75 207.05 16.55 207.95 16.05 208.75 15.2 209.2 14.25 209.25 13.35 208.9 12.75 208.2 12.45 207.3 12.6 206.35 13.15 205.6 14.0 205.1 14.95 205.05 15.8 205.4" fill="#434343" fill-rule="evenodd" stroke="none"/>
    <path d="M-5.05 167.7 L-4.2 168.1 -3.55 168.8 -3.25 169.7 -3.45 170.65 -3.95 171.4 -4.8 171.9 -5.75 171.95 -6.65 171.6 -7.25 170.9 -7.55 169.95 -7.4 169.05 -6.85 168.25 -6.0 167.8 -5.05 167.7" fill="#434343" fill-rule="evenodd" stroke="none"/>
    <path d="M26.15 134.95 L27.2 134.35 28.4 134.25 29.5 134.7 30.35 135.6 30.7 136.75 30.5 137.95 29.8 138.95 28.75 139.55 27.55 139.65 26.4 139.2 25.6 138.3 25.25 137.1 25.45 135.95 26.15 134.95" fill="#434343" fill-rule="evenodd" stroke="none"/>
    <path d="M15.75 38.0 L16.85 38.45 17.65 39.35 18.0 40.5 17.8 41.7 17.15 42.7 16.05 43.3 14.85 43.4 13.75 42.95 12.95 42.05 12.6 40.85 12.8 39.7 13.5 38.7 14.55 38.1 15.75 38.0" fill="#434343" fill-rule="evenodd" stroke="none"/>
    <path d="M37.35 -307.7 L36.25 -308.15 35.45 -309.05 35.1 -310.2 35.3 -311.4 35.95 -312.4 37.05 -313.0 38.25 -313.05 39.35 -312.6 40.15 -311.7 40.5 -310.55 40.3 -309.35 39.6 -308.35 38.55 -307.75 37.35 -307.7" fill="#434343" fill-rule="evenodd" stroke="none"/>
    <path d="M-9.05 -370.55 L-8.35 -371.55 -7.3 -372.15 -6.1 -372.2 -5.0 -371.75 -4.15 -370.85 -3.8 -369.7 -4.0 -368.5 -4.7 -367.5 -5.75 -366.95 -6.95 -366.85 -8.1 -367.3 -8.9 -368.2 -9.25 -369.35 -9.05 -370.55" fill="#434343" fill-rule="evenodd" stroke="none"/>
    <path d="M7.3 38.95 L8.35 38.35 9.55 38.25 10.7 38.7 11.5 39.6 11.85 40.75 11.65 41.95 10.95 42.95 9.9 43.55 8.7 43.65 7.6 43.2 6.75 42.3 6.4 41.1 6.6 39.95 7.3 38.95" fill="#434343" fill-rule="evenodd" stroke="none"/>
    <path d="M10.0 -258.2 L12.25 -252.7 23.65 -239.55 30.35 -236.0 53.65 -236.0 53.65 -232.0 29.35 -232.0 21.1 -236.4 8.8 -250.6 6.0 -257.4 6.0 -282.75 10.0 -282.75 10.0 -258.2" fill="#434343" fill-rule="evenodd" stroke="none"/>
    <path d="M-12.8 21.7 L4.2 21.7 4.2 51.35 -12.8 51.35 -12.8 21.7" fill="#ffffff" fill-rule="evenodd" stroke="none"/>
    <path d="M42.2 -427.15 L42.2 -397.65 28.85 -397.65 28.85 -427.15 42.2 -427.15" fill="#ffffff" fill-rule="evenodd" stroke="none"/>
  </g>
</svg>
