<?xml version="1.0" encoding="UTF-8" standalone="no"?>
<svg xmlns:ffdec="https://www.free-decompiler.com/flash" xmlns:xlink="http://www.w3.org/1999/xlink" ffdec:objectType="shape" height="1406.1px" width="240.5px" xmlns="http://www.w3.org/2000/svg">
  <g transform="matrix(1.0, 0.0, 0.0, 1.0, 105.2, 794.5)">
    <path d="M55.55 -741.0 L56.15 -739.3 100.4 -739.3 100.4 -702.0 68.25 -702.0 75.55 -664.5 80.9 -624.7 86.7 353.35 135.3 333.5 135.3 408.5 87.1 433.0 87.55 519.5 79.6 550.3 75.0 562.75 69.35 574.2 62.7 584.4 55.25 593.2 47.05 600.45 38.3 606.0 29.1 609.75 19.7 611.6 10.2 611.6 0.75 609.65 -8.4 605.9 -17.15 600.3 -25.3 593.0 -32.75 584.2 -39.3 573.95 -44.9 562.45 -49.45 549.95 -52.85 536.65 -55.95 519.5 -56.6 435.5 -105.2 408.5 -105.2 333.5 -57.2 353.3 -57.45 319.0 -51.2 -624.7 -51.15 -624.7 -45.8 -664.5 -38.5 -702.0 -70.3 -702.0 -70.3 -739.3 -26.45 -739.3 -25.8 -741.0 -18.3 -756.0 -9.3 -770.0 -4.8 -778.0 4.1 -787.85 11.8 -794.5 16.95 -794.5 25.65 -787.85 34.55 -778.0 39.05 -770.0 48.05 -756.0 55.55 -741.0" fill="#434343" fill-rule="evenodd" stroke="none"/>
    <path d="M35.2 203.0 L35.2 200.85 32.35 200.85 32.35 197.5 -3.15 197.5 -3.15 200.85 -5.8 200.85 -5.8 203.2 -0.3 203.2 -0.3 220.7 -5.8 220.7 -5.8 223.0 35.2 223.0 35.2 221.5 30.35 221.5 30.35 203.0 35.2 203.0 M8.65 -213.5 L8.65 -215.35 22.15 -215.35 22.15 -213.5 61.5 -213.5 61.5 2.5 21.55 2.5 21.55 3.05 23.2 3.05 23.2 3.35 23.75 3.35 23.75 60.5 21.2 60.5 21.2 61.35 22.2 61.35 22.2 74.7 21.2 74.7 21.2 76.5 53.0 76.5 53.0 144.55 19.7 144.55 19.7 146.35 23.05 146.35 23.05 182.55 37.2 182.55 37.2 146.7 52.0 146.7 52.0 200.85 49.0 200.85 49.0 203.0 57.2 203.0 57.2 221.5 49.0 221.5 49.0 223.0 58.85 223.0 58.85 261.5 49.2 261.5 49.2 263.2 57.35 263.2 57.35 297.85 -27.8 297.85 -27.8 263.2 35.35 263.2 35.35 261.5 -28.15 261.5 -28.15 223.0 -19.65 223.0 -19.65 220.7 -26.5 220.7 -26.5 203.2 -19.65 203.2 -19.65 200.85 -23.15 200.85 -23.15 146.55 -9.65 146.55 -9.65 182.55 3.55 182.55 3.55 146.35 6.2 146.35 6.2 144.55 -25.25 144.55 -25.25 76.5 7.5 76.5 7.5 74.7 6.35 74.7 6.35 61.35 7.5 61.35 7.5 60.5 5.35 60.5 5.35 22.35 -12.8 22.35 -12.8 7.2 5.35 7.2 5.35 3.35 7.2 3.35 7.2 3.05 9.55 3.05 9.55 2.5 -33.0 2.5 -33.0 -213.5 8.65 -213.5" fill="#969696" fill-rule="evenodd" stroke="none"/>
    <path d="M39.2 -374.3 L39.2 -376.2 -11.4 -376.2 -11.4 -374.3 39.2 -374.3 M-26.8 -551.25 L-9.4 -551.25 -9.4 -505.65 38.55 -505.65 38.55 -548.9 54.6 -548.9 54.6 -426.5 28.55 -426.5 28.55 -445.4 38.55 -445.4 38.55 -478.75 -9.4 -478.75 -9.4 -390.95 55.1 -390.95 55.1 -376.2 53.1 -376.2 53.1 -374.3 57.75 -374.3 57.75 -350.55 43.25 -350.55 43.25 -327.25 -11.5 -327.25 -11.5 -325.75 -4.25 -325.75 -4.25 -291.0 -27.25 -291.0 -27.25 -325.75 -25.0 -325.75 -25.0 -327.25 -27.0 -327.25 -27.0 -374.3 -25.3 -374.3 -25.3 -376.2 -26.95 -376.2 -26.95 -390.95 -26.8 -390.95 -26.8 -551.25" fill="#969696" fill-rule="evenodd" stroke="none"/>
    <path d="M54.35 223.0 L60.85 223.0 60.85 248.7 54.35 248.7 54.35 223.0" fill="#707070" fill-rule="evenodd" stroke="none"/>
    <path d="M-36.6 297.85 L-36.6 263.2 -27.8 263.2 -27.8 297.85 -36.6 297.85" fill="#707070" fill-rule="evenodd" stroke="none"/>
    <path d="M59.5 263.2 L62.0 263.2 62.0 297.85 -7.25 297.85 -7.25 296.15 38.65 296.15 38.65 291.15 45.5 291.15 45.5 280.15 49.25 280.15 49.25 291.15 55.25 291.15 55.25 296.15 59.5 296.15 59.5 290.9 56.4 290.9 56.4 278.25 59.5 278.25 59.5 263.2" fill="#707070" fill-rule="evenodd" stroke="none"/>
    <path d="M-23.6 297.85 L-23.6 296.3 -11.5 296.3 -11.5 297.85 -23.6 297.85" fill="#707070" fill-rule="evenodd" stroke="none"/>
    <path d="M7.25 279.15 L11.25 279.15 11.25 295.65 7.25 295.65 7.25 279.15" fill="#707070" fill-rule="evenodd" stroke="none"/>
    <path d="M35.4 290.65 L35.4 293.65 32.65 293.65 32.65 295.75 19.65 295.75 19.65 293.65 15.65 293.65 15.65 290.65 19.75 290.65 19.75 287.0 21.25 287.0 21.25 290.65 31.75 290.65 31.75 287.0 33.25 287.0 33.25 290.65 35.4 290.65" fill="#707070" fill-rule="evenodd" stroke="none"/>
    <path d="M31.9 263.2 L31.9 269.75 16.9 269.75 16.9 263.2 31.9 263.2" fill="#707070" fill-rule="evenodd" stroke="none"/>
    <path d="M2.15 271.15 L2.15 263.2 12.9 263.2 12.9 271.15 2.15 271.15" fill="#707070" fill-rule="evenodd" stroke="none"/>
    <path d="M-0.1 263.2 L-0.1 265.25 -7.85 265.25 -7.85 263.2 -0.1 263.2" fill="#707070" fill-rule="evenodd" stroke="none"/>
    <path d="M-23.85 272.4 L-23.85 265.15 -9.1 265.15 -9.1 272.4 -23.85 272.4" fill="#707070" fill-rule="evenodd" stroke="none"/>
    <path d="M-13.85 278.0 L-13.85 285.0 -24.85 285.0 -24.85 278.0 -13.85 278.0" fill="#707070" fill-rule="evenodd" stroke="none"/>
    <path d="M-6.5 282.4 L0.5 282.4 0.5 295.15 -6.5 295.15 -6.5 282.4" fill="#707070" fill-rule="evenodd" stroke="none"/>
    <path d="M-26.5 261.5 L-26.5 259.25 -23.0 259.25 -23.0 257.5 -6.35 257.5 -6.35 259.15 -0.35 259.15 -0.35 257.15 24.15 257.15 24.15 258.9 29.0 258.9 29.0 261.5 -26.5 261.5" fill="#707070" fill-rule="evenodd" stroke="none"/>
    <path d="M58.85 251.25 L58.85 253.65 49.0 253.65 49.0 251.25 58.85 251.25" fill="#707070" fill-rule="evenodd" stroke="none"/>
    <path d="M-34.0 252.75 L-34.0 223.0 -27.0 223.0 -27.0 252.75 -34.0 252.75" fill="#707070" fill-rule="evenodd" stroke="none"/>
    <path d="M-30.85 260.15 L-30.85 253.65 -27.35 253.65 -27.35 260.15 -30.85 260.15" fill="#707070" fill-rule="evenodd" stroke="none"/>
    <path d="M7.65 245.0 L7.65 241.25 13.15 241.25 13.15 245.0 7.65 245.0" fill="#707070" fill-rule="evenodd" stroke="none"/>
    <path d="M5.5 241.25 L5.5 243.75 1.9 243.75 1.9 241.25 5.5 241.25" fill="#707070" fill-rule="evenodd" stroke="none"/>
    <path d="M17.9 241.25 L17.9 243.4 14.65 243.4 14.65 241.25 17.9 241.25" fill="#707070" fill-rule="evenodd" stroke="none"/>
    <path d="M22.3 243.25 L19.5 243.25 19.5 241.25 22.3 241.25 22.3 243.25" fill="#707070" fill-rule="evenodd" stroke="none"/>
    <path d="M57.2 216.4 L57.2 219.25 49.4 219.25 49.4 216.4 57.2 216.4" fill="#707070" fill-rule="evenodd" stroke="none"/>
    <path d="M57.2 211.45 L57.2 214.35 49.4 214.35 49.4 211.45 57.2 211.45" fill="#707070" fill-rule="evenodd" stroke="none"/>
    <path d="M57.2 206.5 L57.2 209.4 49.4 209.4 49.4 206.5 57.2 206.5" fill="#707070" fill-rule="evenodd" stroke="none"/>
    <path d="M52.15 118.65 L52.15 128.4 17.5 128.4 17.5 118.65 52.15 118.65" fill="#707070" fill-rule="evenodd" stroke="none"/>
    <path d="M17.9 101.25 L17.9 91.5 52.5 91.5 52.5 101.25 17.9 101.25" fill="#707070" fill-rule="evenodd" stroke="none"/>
    <path d="M1.5 76.5 L1.5 86.05 -19.5 86.05 -19.5 136.65 -7.0 136.65 -7.0 100.8 1.5 100.8 1.5 144.55 -30.75 144.55 -30.75 136.65 -28.5 136.65 -28.5 76.5 1.5 76.5" fill="#707070" fill-rule="evenodd" stroke="none"/>
    <path d="M19.75 13.15 L22.9 13.15 22.9 44.65 19.75 44.65 19.75 13.15" fill="#707070" fill-rule="evenodd" stroke="none"/>
    <path d="M2.15 7.2 L2.15 9.9 -6.0 9.9 -6.0 7.2 2.15 7.2" fill="#707070" fill-rule="evenodd" stroke="none"/>
    <path d="M4.2 20.75 L6.65 20.75 6.65 60.75 4.2 60.75 4.2 20.75" fill="#707070" fill-rule="evenodd" stroke="none"/>
    <path d="M-16.25 7.2 L-12.8 7.2 -12.8 8.65 -10.1 8.65 -10.1 13.15 -12.8 13.15 -12.8 59.4 -16.25 59.4 -16.25 7.2" fill="#707070" fill-rule="evenodd" stroke="none"/>
    <path d="M-32.25 -306.5 L-32.25 -315.75 -25.5 -315.75 -25.5 -306.5 -32.25 -306.5" fill="#707070" fill-rule="evenodd" stroke="none"/>
    <path d="M-26.25 -297.75 L-26.25 -302.0 -23.5 -302.0 -23.5 -297.75 -26.25 -297.75" fill="#707070" fill-rule="evenodd" stroke="none"/>
    <path d="M-6.75 -311.25 L-4.25 -311.25 -4.25 -294.5 -6.75 -294.5 -6.75 -311.25" fill="#707070" fill-rule="evenodd" stroke="none"/>
    <path d="M-7.0 -292.75 L-7.0 -291.0 -11.5 -291.0 -11.5 -292.75 -7.0 -292.75" fill="#707070" fill-rule="evenodd" stroke="none"/>
    <path d="M7.5 -329.5 L7.5 -327.5 -6.75 -327.5 -6.75 -329.5 7.5 -329.5" fill="#707070" fill-rule="evenodd" stroke="none"/>
    <path d="M24.0 -330.0 L24.0 -327.0 12.5 -327.0 12.5 -330.0 24.0 -330.0" fill="#707070" fill-rule="evenodd" stroke="none"/>
    <path d="M-32.25 -317.15 L-32.25 -324.8 -26.15 -324.8 -26.15 -317.15 -32.25 -317.15" fill="#707070" fill-rule="evenodd" stroke="none"/>
    <path d="M-27.0 -353.8 L-27.0 -356.5 -22.65 -356.5 -22.65 -353.8 -27.0 -353.8" fill="#707070" fill-rule="evenodd" stroke="none"/>
    <path d="M-27.0 -357.9 L-27.0 -360.6 -22.65 -360.6 -22.65 -357.9 -27.0 -357.9" fill="#707070" fill-rule="evenodd" stroke="none"/>
    <path d="M-27.0 -362.05 L-27.0 -364.7 -22.65 -364.7 -22.65 -362.05 -27.0 -362.05" fill="#707070" fill-rule="evenodd" stroke="none"/>
    <path d="M-22.65 -368.8 L-22.65 -366.15 -27.0 -366.15 -27.0 -368.8 -22.65 -368.8" fill="#707070" fill-rule="evenodd" stroke="none"/>
    <path d="M13.0 -374.3 L22.65 -374.3 22.65 -372.5 32.4 -372.5 32.4 -368.85 24.0 -368.85 24.0 -353.6 27.4 -353.6 27.4 -349.85 8.15 -349.85 8.15 -353.6 11.25 -353.6 11.25 -372.25 13.0 -372.25 13.0 -374.3" fill="#707070" fill-rule="evenodd" stroke="none"/>
    <path d="M1.0 -374.3 L1.0 -372.5 -4.85 -372.5 -4.85 -374.3 1.0 -374.3" fill="#707070" fill-rule="evenodd" stroke="none"/>
    <path d="M3.15 -374.3 L5.9 -374.3 5.9 -372.25 3.15 -372.25 3.15 -374.3" fill="#707070" fill-rule="evenodd" stroke="none"/>
    <path d="M-6.75 -374.3 L-6.75 -373.35 -10.0 -373.35 -10.0 -374.3 -6.75 -374.3" fill="#707070" fill-rule="evenodd" stroke="none"/>
    <path d="M57.75 -365.7 L57.75 -363.65 55.05 -363.65 55.05 -365.7 57.75 -365.7" fill="#707070" fill-rule="evenodd" stroke="none"/>
    <path d="M57.75 -362.75 L57.75 -360.7 55.05 -360.7 55.05 -362.75 57.75 -362.75" fill="#707070" fill-rule="evenodd" stroke="none"/>
    <path d="M55.05 -357.75 L55.05 -359.8 57.75 -359.8 57.75 -357.75 55.05 -357.75" fill="#707070" fill-rule="evenodd" stroke="none"/>
    <path d="M34.5 -378.8 L34.5 -376.2 9.85 -376.2 9.85 -378.8 34.5 -378.8" fill="#707070" fill-rule="evenodd" stroke="none"/>
    <path d="M8.2 -378.5 L8.2 -376.2 0.0 -376.2 0.0 -378.5 8.2 -378.5" fill="#707070" fill-rule="evenodd" stroke="none"/>
    <path d="M-28.6 -415.75 L-29.6 -415.75 -29.6 -440.5 -28.6 -440.5 -28.6 -551.25 -24.0 -551.25 -24.0 -529.1 -21.1 -529.1 -21.1 -504.1 -25.3 -504.1 -25.3 -495.5 -21.5 -495.5 -21.5 -493.75 -25.3 -493.75 -25.3 -492.4 -21.5 -492.4 -21.5 -490.65 -25.3 -490.65 -25.3 -489.3 -21.5 -489.3 -21.5 -487.55 -25.3 -487.55 -25.3 -486.25 -21.5 -486.25 -21.5 -484.5 -25.3 -484.5 -25.3 -479.6 -23.0 -479.6 -23.0 -476.35 -25.3 -476.35 -25.3 -475.35 -22.75 -475.35 -22.75 -472.1 -25.3 -472.1 -25.3 -440.5 -24.1 -440.5 -24.1 -415.75 -25.3 -415.75 -25.3 -405.5 -24.25 -405.5 -24.25 -404.0 -25.3 -404.0 -25.3 -402.45 -24.25 -402.45 -24.25 -400.95 -25.3 -400.95 -25.3 -399.4 -24.35 -399.4 -24.35 -397.9 -25.3 -397.9 -25.3 -396.35 -24.5 -396.35 -24.5 -394.85 -25.3 -394.85 -25.3 -375.75 -28.6 -375.75 -28.6 -415.75" fill="#707070" fill-rule="evenodd" stroke="none"/>
    <path d="M52.35 -462.65 L52.35 -488.95 58.7 -488.95 58.7 -462.65 52.35 -462.65" fill="#707070" fill-rule="evenodd" stroke="none"/>
    <path d="M53.2 -427.15 L53.2 -443.8 58.7 -443.8 58.7 -427.15 53.2 -427.15" fill="#707070" fill-rule="evenodd" stroke="none"/>
    <path d="M58.7 -445.0 L54.0 -445.0 54.0 -449.3 58.7 -449.3 58.7 -445.0" fill="#707070" fill-rule="evenodd" stroke="none"/>
    <path d="M58.7 -455.15 L58.7 -451.0 53.7 -451.0 53.7 -455.15 58.7 -455.15" fill="#707070" fill-rule="evenodd" stroke="none"/>
    <path d="M49.35 -489.65 L49.35 -491.95 58.7 -491.95 58.7 -489.65 49.35 -489.65" fill="#707070" fill-rule="evenodd" stroke="none"/>
    <path d="M53.2 -522.15 L53.2 -524.8 58.7 -524.8 58.7 -509.4 53.2 -509.4 53.2 -511.8 50.2 -511.8 50.2 -513.3 53.2 -513.3 53.2 -514.75 50.2 -514.75 50.2 -516.25 53.2 -516.25 53.2 -517.7 50.2 -517.7 50.2 -519.2 53.2 -519.2 53.2 -520.65 50.2 -520.65 50.2 -522.15 53.2 -522.15" fill="#707070" fill-rule="evenodd" stroke="none"/>
    <path d="M53.0 -527.15 L53.0 -538.7 58.7 -538.7 58.7 -527.15 53.0 -527.15" fill="#707070" fill-rule="evenodd" stroke="none"/>
    <path d="M58.7 -543.9 L58.7 -540.9 52.1 -540.9 52.1 -543.9 58.7 -543.9" fill="#707070" fill-rule="evenodd" stroke="none"/>
    <path d="M51.95 -548.9 L51.95 -547.15 47.85 -547.15 47.85 -548.9 51.95 -548.9" fill="#707070" fill-rule="evenodd" stroke="none"/>
    <path d="M47.35 -548.9 L47.35 -546.75 40.2 -546.75 40.2 -548.9 47.35 -548.9" fill="#707070" fill-rule="evenodd" stroke="none"/>
    <path d="M32.25 -209.15 L35.1 -210.4 38.1 -211.05 41.2 -211.15 44.25 -210.65 47.15 -209.6 49.8 -208.0 52.1 -205.95 54.0 -203.5 55.35 -200.7 56.2 -197.7 56.4 -194.65 56.05 -191.55 55.15 -188.6 53.7 -185.9 51.7 -183.5 49.35 -181.5 46.65 -180.0 43.7 -179.05 40.65 -178.65 37.55 -178.85 34.55 -179.65 31.75 -180.95 29.25 -182.8 27.2 -185.1 25.55 -187.7 24.45 -190.6 23.9 -193.65 24.0 -196.75 24.6 -199.8 25.8 -202.65 27.55 -205.2 29.7 -207.4 32.25 -209.15" fill="#434343" fill-rule="evenodd" stroke="none"/>
    <path d="M55.35 -164.5 L56.2 -161.5 56.4 -158.45 56.05 -155.35 55.15 -152.4 53.7 -149.7 51.7 -147.3 49.35 -145.3 46.65 -143.8 43.7 -142.85 40.65 -142.45 37.55 -142.65 34.55 -143.45 31.75 -144.75 29.25 -146.6 27.2 -148.9 25.55 -151.5 24.45 -154.4 23.9 -157.45 24.0 -160.55 24.6 -163.6 25.8 -166.45 27.55 -169.0 29.7 -171.2 32.25 -172.95 35.1 -174.2 38.1 -174.85 41.2 -174.95 44.25 -174.45 47.15 -173.4 49.8 -171.8 52.1 -169.75 54.0 -167.25 55.35 -164.5" fill="#434343" fill-rule="evenodd" stroke="none"/>
    <path d="M55.35 -128.3 L56.2 -125.3 56.4 -122.25 56.05 -119.15 55.15 -116.2 53.7 -113.5 51.7 -111.1 49.35 -109.1 46.65 -107.6 43.7 -106.65 40.65 -106.25 37.55 -106.45 34.55 -107.25 31.75 -108.55 29.25 -110.4 27.2 -112.7 25.55 -115.3 24.45 -118.2 23.9 -121.25 24.0 -124.35 24.6 -127.4 25.8 -130.25 27.55 -132.8 29.7 -135.0 32.25 -136.75 35.1 -138.0 38.1 -138.65 41.2 -138.75 44.25 -138.25 47.15 -137.2 49.8 -135.6 52.1 -133.55 54.0 -131.1 55.35 -128.3" fill="#434343" fill-rule="evenodd" stroke="none"/>
    <path d="M49.8 -98.4 L52.1 -96.35 54.0 -93.85 55.35 -91.1 56.2 -88.1 56.4 -85.05 56.05 -81.95 55.15 -79.0 53.7 -76.3 51.7 -73.9 49.35 -71.9 46.65 -70.4 43.7 -69.45 40.65 -69.05 37.55 -69.25 34.55 -70.05 31.75 -71.35 29.25 -73.2 27.2 -75.5 25.55 -78.1 24.45 -81.0 23.9 -84.05 24.0 -87.15 24.6 -90.2 25.8 -93.05 27.55 -95.6 29.7 -97.8 32.25 -99.55 35.1 -100.8 38.1 -101.45 41.2 -101.55 44.25 -101.05 47.15 -100.0 49.8 -98.4" fill="#434343" fill-rule="evenodd" stroke="none"/>
    <path d="M29.7 -61.6 L32.25 -63.35 35.1 -64.6 38.1 -65.25 41.2 -65.35 44.25 -64.85 47.15 -63.8 49.8 -62.2 52.1 -60.15 54.0 -57.7 55.35 -54.9 56.2 -51.9 56.4 -48.85 56.05 -45.75 55.15 -42.8 53.7 -40.1 51.7 -37.7 49.35 -35.7 46.65 -34.2 43.7 -33.25 40.65 -32.85 40.45 -32.85 40.95 -32.45 41.3 -31.8 41.35 -31.05 41.0 -30.4 40.45 -29.9 39.75 -29.75 39.0 -29.85 38.4 -30.3 38.1 -30.95 38.05 -31.7 38.35 -32.4 38.9 -32.85 39.2 -32.95 37.55 -33.05 34.55 -33.85 31.75 -35.15 29.25 -37.0 27.2 -39.3 25.55 -41.9 24.45 -44.8 23.9 -47.85 24.0 -50.95 24.6 -54.0 25.8 -56.85 27.55 -59.4 29.7 -61.6" fill="#434343" fill-rule="evenodd" stroke="none"/>
    <path d="M23.9 -12.15 L24.0 -15.25 24.6 -18.3 25.8 -21.15 27.55 -23.7 29.7 -25.9 32.25 -27.65 35.1 -28.9 38.1 -29.55 41.2 -29.65 44.25 -29.15 47.15 -28.1 49.8 -26.5 52.1 -24.45 54.0 -22.0 55.35 -19.2 56.2 -16.2 56.4 -13.15 56.05 -10.05 55.15 -7.1 53.7 -4.4 51.7 -2.0 49.35 0.0 46.65 1.5 43.7 2.45 40.65 2.85 37.55 2.65 34.55 1.85 31.75 0.55 29.25 -1.3 27.2 -3.6 25.55 -6.2 24.45 -9.1 23.9 -12.15" fill="#434343" fill-rule="evenodd" stroke="none"/>
    <path d="M-18.05 -209.15 L-15.25 -210.4 -12.2 -211.05 -9.15 -211.15 -6.05 -210.65 -3.15 -209.6 -0.5 -208.0 1.8 -205.95 3.65 -203.5 5.05 -200.7 5.85 -197.7 6.1 -194.65 5.75 -191.55 4.8 -188.6 3.35 -185.9 1.4 -183.5 -1.0 -181.5 -3.7 -180.0 -6.65 -179.05 -9.7 -178.65 -12.8 -178.85 -15.8 -179.65 -18.55 -180.95 -21.05 -182.8 -23.15 -185.1 -24.8 -187.7 -25.9 -190.6 -26.4 -193.65 -26.35 -196.75 -25.7 -199.8 -24.5 -202.65 -22.8 -205.2 -20.6 -207.4 -18.05 -209.15" fill="#434343" fill-rule="evenodd" stroke="none"/>
    <path d="M-26.35 -160.55 L-25.7 -163.6 -24.5 -166.45 -22.8 -169.0 -20.6 -171.2 -18.05 -172.95 -15.25 -174.2 -12.2 -174.85 -9.15 -174.95 -6.05 -174.45 -3.15 -173.4 -0.5 -171.8 1.8 -169.75 3.65 -167.25 5.05 -164.5 5.85 -161.5 6.1 -158.45 5.75 -155.35 4.8 -152.4 3.35 -149.7 1.4 -147.3 -1.0 -145.3 -3.7 -143.8 -6.65 -142.85 -9.7 -142.45 -12.8 -142.65 -15.8 -143.45 -18.55 -144.75 -21.05 -146.6 -23.15 -148.9 -24.8 -151.5 -25.9 -154.4 -26.4 -157.45 -26.35 -160.55" fill="#434343" fill-rule="evenodd" stroke="none"/>
    <path d="M-6.05 -138.25 L-3.15 -137.2 -0.5 -135.6 1.8 -133.55 3.65 -131.1 5.05 -128.3 5.85 -125.3 6.1 -122.25 5.75 -119.15 4.8 -116.2 3.35 -113.5 1.4 -111.1 -1.0 -109.1 -3.7 -107.6 -6.65 -106.65 -9.7 -106.25 -12.8 -106.45 -15.8 -107.25 -18.55 -108.55 -21.05 -110.4 -23.15 -112.7 -24.8 -115.3 -25.9 -118.2 -26.4 -121.25 -26.35 -124.35 -25.7 -127.4 -24.5 -130.25 -22.8 -132.8 -20.6 -135.0 -18.05 -136.75 -15.25 -138.0 -12.2 -138.65 -9.15 -138.75 -6.05 -138.25" fill="#434343" fill-rule="evenodd" stroke="none"/>
    <path d="M-6.05 -101.05 L-3.15 -100.0 -0.5 -98.4 1.8 -96.35 3.65 -93.85 5.05 -91.1 5.85 -88.1 6.1 -85.05 5.75 -81.95 4.8 -79.0 3.35 -76.3 1.4 -73.9 -1.0 -71.9 -3.7 -70.4 -6.65 -69.45 -9.7 -69.05 -12.8 -69.25 -15.8 -70.05 -18.55 -71.35 -21.05 -73.2 -23.15 -75.5 -24.8 -78.1 -25.9 -81.0 -26.4 -84.05 -26.35 -87.15 -25.7 -90.2 -24.5 -93.05 -22.8 -95.6 -20.6 -97.8 -18.05 -99.55 -15.25 -100.8 -12.2 -101.45 -9.15 -101.55 -6.05 -101.05" fill="#434343" fill-rule="evenodd" stroke="none"/>
    <path d="M-20.6 -61.6 L-18.05 -63.35 -15.25 -64.6 -12.2 -65.25 -9.15 -65.35 -6.05 -64.85 -3.15 -63.8 -0.5 -62.2 1.8 -60.15 3.65 -57.7 5.05 -54.9 5.85 -51.9 6.1 -48.85 5.75 -45.75 4.8 -42.8 3.35 -40.1 1.4 -37.7 -1.0 -35.7 -3.7 -34.2 -6.65 -33.25 -9.7 -32.85 -12.8 -33.05 -15.8 -33.85 -18.55 -35.15 -21.05 -37.0 -23.15 -39.3 -24.8 -41.9 -25.9 -44.8 -26.4 -47.85 -26.35 -50.95 -25.7 -54.0 -24.5 -56.85 -22.8 -59.4 -20.6 -61.6" fill="#434343" fill-rule="evenodd" stroke="none"/>
    <path d="M-9.45 -32.6 L-8.85 -32.15 -8.55 -31.5 -8.5 -30.75 -8.8 -30.05 -9.3 -29.65 -9.15 -29.65 -6.05 -29.15 -3.15 -28.1 -0.5 -26.5 1.8 -24.45 3.65 -22.0 5.05 -19.2 5.85 -16.2 6.1 -13.15 5.75 -10.05 4.8 -7.1 3.35 -4.4 1.4 -2.0 -1.0 0.0 -3.7 1.5 -6.65 2.45 -9.7 2.85 -12.8 2.65 -15.8 1.85 -18.55 0.55 -21.05 -1.3 -23.15 -3.6 -24.8 -6.2 -25.9 -9.1 -26.4 -12.15 -26.35 -15.25 -25.7 -18.3 -24.5 -21.15 -22.8 -23.7 -20.6 -25.9 -18.05 -27.65 -15.25 -28.9 -12.2 -29.55 -10.9 -29.6 -11.4 -30.0 -11.75 -30.65 -11.8 -31.4 -11.5 -32.05 -10.9 -32.55 -10.2 -32.7 -9.45 -32.6" fill="#434343" fill-rule="evenodd" stroke="none"/>
    <path d="M-9.4 -178.5 L-8.85 -178.05 -8.5 -177.4 -8.45 -176.65 -8.75 -176.0 -9.35 -175.5 -10.05 -175.3 -10.8 -175.45 -11.35 -175.9 -11.7 -176.55 -11.75 -177.3 -11.45 -178.0 -10.85 -178.45 -10.15 -178.65 -9.4 -178.5" fill="#434343" fill-rule="evenodd" stroke="none"/>
    <path d="M-1.35 -142.7 L-1.0 -142.0 -0.95 -141.3 -1.25 -140.6 -1.85 -140.1 -2.55 -139.95 -3.3 -140.1 -3.85 -140.5 -4.2 -141.2 -4.25 -141.9 -3.95 -142.6 -3.35 -143.1 -2.65 -143.25 -1.9 -143.1 -1.35 -142.7" fill="#434343" fill-rule="evenodd" stroke="none"/>
    <path d="M33.8 -137.75 L33.05 -137.55 32.35 -137.7 31.75 -138.15 31.4 -138.8 31.4 -139.55 31.7 -140.25 32.25 -140.7 33.0 -140.9 33.7 -140.75 34.3 -140.3 34.65 -139.65 34.65 -138.9 34.35 -138.25 33.8 -137.75" fill="#434343" fill-rule="evenodd" stroke="none"/>
    <path d="M39.25 -103.15 L38.9 -103.8 38.9 -104.55 39.2 -105.25 39.75 -105.7 40.5 -105.9 41.2 -105.75 41.8 -105.3 42.15 -104.65 42.15 -103.9 41.85 -103.25 41.3 -102.75 40.55 -102.55 39.85 -102.7 39.25 -103.15" fill="#434343" fill-rule="evenodd" stroke="none"/>
    <path d="M-11.75 -103.45 L-11.8 -104.2 -11.5 -104.9 -10.9 -105.35 -10.2 -105.55 -9.45 -105.4 -8.85 -104.95 -8.55 -104.3 -8.5 -103.55 -8.8 -102.9 -9.35 -102.4 -10.1 -102.25 -10.8 -102.35 -11.4 -102.8 -11.75 -103.45" fill="#434343" fill-rule="evenodd" stroke="none"/>
    <path d="M-1.65 -70.1 L-1.05 -69.65 -0.7 -69.0 -0.65 -68.25 -1.0 -67.55 -1.55 -67.1 -2.25 -66.9 -3.0 -67.05 -3.6 -67.5 -3.9 -68.15 -3.95 -68.9 -3.65 -69.55 -3.1 -70.05 -2.35 -70.2 -1.65 -70.1" fill="#434343" fill-rule="evenodd" stroke="none"/>
    <path d="M32.35 -65.05 L31.75 -65.5 31.4 -66.15 31.4 -66.9 31.7 -67.55 32.25 -68.05 32.95 -68.2 33.7 -68.1 34.3 -67.65 34.65 -67.0 34.65 -66.25 34.35 -65.55 33.8 -65.1 33.05 -64.9 32.35 -65.05" fill="#434343" fill-rule="evenodd" stroke="none"/>
    <path d="M39.3 -177.75 L39.9 -178.2 40.6 -178.4 41.35 -178.25 41.9 -177.8 42.25 -177.15 42.3 -176.4 42.0 -175.75 41.4 -175.25 40.7 -175.05 39.95 -175.2 39.4 -175.65 39.05 -176.3 39.0 -177.05 39.3 -177.75" fill="#434343" fill-rule="evenodd" stroke="none"/>
    <path d="M53.85 256.05 L55.0 256.0 56.1 256.4 56.9 257.3 57.25 258.4 57.05 259.6 56.35 260.55 55.35 261.1 54.15 261.2 53.1 260.75 52.3 259.9 51.95 258.75 52.15 257.6 52.8 256.65 53.85 256.05" fill="#434343" fill-rule="evenodd" stroke="none"/>
    <path d="M50.85 76.75 L51.75 77.1 52.35 77.8 52.65 78.7 52.5 79.65 51.95 80.4 51.1 80.9 50.15 80.95 49.3 80.6 48.65 79.9 48.35 79.0 48.55 78.05 49.05 77.25 49.9 76.8 50.85 76.75" fill="#434343" fill-rule="evenodd" stroke="none"/>
    <path d="M55.65 -373.55 L56.55 -373.2 57.2 -372.45 57.45 -371.55 57.3 -370.6 56.75 -369.85 55.95 -369.35 55.0 -369.3 54.1 -369.65 53.45 -370.4 53.2 -371.3 53.35 -372.25 53.9 -373.0 54.7 -373.5 55.65 -373.55" fill="#434343" fill-rule="evenodd" stroke="none"/>
    <path d="M-17.7 -547.5 L-17.05 -546.8 -16.8 -545.9 -16.95 -544.95 -17.5 -544.2 -18.3 -543.7 -19.25 -543.65 -20.15 -544.0 -20.8 -544.7 -21.05 -545.6 -20.9 -546.55 -20.35 -547.35 -19.55 -547.8 -18.6 -547.85 -17.7 -547.5" fill="#434343" fill-rule="evenodd" stroke="none"/>
    <path d="M18.0 35.65 L18.0 30.9 25.4 30.9 25.4 35.65 18.0 35.65" fill="#434343" fill-rule="evenodd" stroke="none"/>
    <path d="M-16.25 35.65 L-16.25 30.9 -8.85 30.9 -8.85 35.65 -16.25 35.65" fill="#434343" fill-rule="evenodd" stroke="none"/>
    <path d="M-12.8 21.7 L4.2 21.7 4.2 51.35 -12.8 51.35 -12.8 21.7" fill="#ffffff" fill-rule="evenodd" stroke="none"/>
    <path d="M22.3 241.25 L-15.9 241.25 -15.9 223.0 22.3 223.0 22.3 241.25" fill="#ffffff" fill-rule="evenodd" stroke="none"/>
    <path d="M42.2 -427.15 L42.2 -397.65 28.85 -397.65 28.85 -427.15 42.2 -427.15" fill="#ffffff" fill-rule="evenodd" stroke="none"/>
    <path d="M-9.25 -296.45 L-11.15 -294.05 Q-12.55 -293.35 -13.95 -292.7 L-17.0 -292.7 -19.8 -294.05 -21.7 -296.45 -22.4 -299.45 -21.7 -302.45 -19.8 -304.85 -17.0 -306.2 -13.95 -306.2 -11.15 -304.85 -9.25 -302.45 -8.55 -299.45 -9.25 -296.45" fill="#ffffff" fill-rule="evenodd" stroke="none"/>
  </g>
</svg>
