<?xml version="1.0" encoding="UTF-8" standalone="no"?>
<svg xmlns:ffdec="https://www.free-decompiler.com/flash" xmlns:xlink="http://www.w3.org/1999/xlink" ffdec:objectType="shape" height="1406.1px" width="240.5px" xmlns="http://www.w3.org/2000/svg">
  <g transform="matrix(1.0, 0.0, 0.0, 1.0, 105.2, 794.5)">
    <path d="M55.55 -741.0 L56.15 -739.3 100.4 -739.3 100.4 -702.0 68.25 -702.0 75.55 -664.5 80.9 -624.7 86.7 353.35 135.3 333.5 135.3 408.5 87.1 433.0 87.55 519.5 79.6 550.3 75.0 562.75 69.35 574.2 62.7 584.4 55.25 593.2 47.05 600.45 38.3 606.0 29.1 609.75 19.7 611.6 10.2 611.6 0.75 609.65 -8.4 605.9 -17.15 600.3 -25.3 593.0 -32.75 584.2 -39.3 573.95 -44.9 562.45 -49.45 549.95 -52.85 536.65 -55.95 519.5 -56.6 435.5 -105.2 408.5 -105.2 333.5 -57.2 353.3 -57.45 319.0 -51.2 -624.7 -51.15 -624.7 -45.8 -664.5 -38.5 -702.0 -70.3 -702.0 -70.3 -739.3 -26.45 -739.3 -25.8 -741.0 -18.3 -756.0 -9.3 -770.0 -4.8 -778.0 4.1 -787.85 11.8 -794.5 16.95 -794.5 25.65 -787.85 34.55 -778.0 39.05 -770.0 48.05 -756.0 55.55 -741.0" fill="#434343" fill-rule="evenodd" stroke="none"/>
    <path d="M-32.0 -325.8 L-32.0 -349.15 9.2 -349.15 9.2 -350.5 -3.65 -350.5 -3.65 -374.65 34.5 -374.65 34.5 -350.5 22.5 -350.5 22.5 -349.15 62.35 -349.15 62.35 -325.8 42.35 -325.8 42.35 -325.15 44.5 -325.15 44.5 -279.8 42.35 -279.8 42.35 -278.3 54.5 -278.3 54.5 -229.15 22.0 -229.15 22.0 -227.85 23.25 -227.85 23.25 -215.35 22.15 -215.35 22.15 -213.5 61.5 -213.5 61.5 2.5 22.25 2.5 22.25 3.05 23.2 3.05 23.2 3.35 23.75 3.35 23.75 12.2 23.2 12.2 23.2 12.55 22.25 12.55 22.25 13.2 33.85 13.2 33.85 55.0 -1.2 55.0 -1.2 55.7 0.45 55.7 0.45 71.85 -1.2 71.85 -1.2 72.45 40.25 72.45 40.25 125.75 54.5 125.75 54.5 201.5 44.5 201.5 44.5 202.85 46.2 202.85 46.2 221.5 44.5 221.5 44.5 223.0 56.5 223.0 56.5 259.5 -41.75 259.5 -41.75 223.0 32.2 223.0 32.2 221.5 30.0 221.5 30.0 202.85 32.2 202.85 32.2 201.5 -32.15 201.5 -32.15 72.45 -13.55 72.45 -13.55 71.85 -15.7 71.85 -15.7 55.7 -13.55 55.7 -13.55 55.0 -28.8 55.0 -28.8 13.2 7.2 13.2 7.2 3.05 9.55 3.05 9.55 2.5 -33.0 2.5 -33.0 -213.5 8.65 -213.5 8.65 -215.35 6.9 -215.35 6.9 -227.85 8.75 -227.85 8.75 -229.15 -5.5 -229.15 -5.5 -278.3 29.85 -278.3 29.85 -279.8 28.35 -279.8 28.35 -325.15 29.85 -325.15 29.85 -325.8 5.35 -325.8 5.35 -324.8 8.0 -324.8 8.0 -313.5 5.35 -313.5 5.35 -312.3 17.5 -312.3 17.5 -280.85 -26.65 -280.85 -26.65 -312.3 -6.0 -312.3 -6.0 -313.5 -7.8 -313.5 -7.8 -324.8 -6.0 -324.8 -6.0 -325.8 -32.0 -325.8" fill="#969696" fill-rule="evenodd" stroke="none"/>
    <path d="M56.5 223.0 L56.5 237.85 48.7 237.85 48.7 223.0 56.5 223.0" fill="#707070" fill-rule="evenodd" stroke="none"/>
    <path d="M53.0 245.2 L53.0 238.5 56.5 238.5 56.5 245.2 53.0 245.2" fill="#707070" fill-rule="evenodd" stroke="none"/>
    <path d="M56.5 245.7 L56.5 248.35 47.45 248.35 47.45 245.7 56.5 245.7" fill="#707070" fill-rule="evenodd" stroke="none"/>
    <path d="M56.5 248.85 L56.5 251.55 47.45 251.55 47.45 248.85 56.5 248.85" fill="#707070" fill-rule="evenodd" stroke="none"/>
    <path d="M4.95 259.5 L4.95 256.35 20.25 256.35 20.25 259.5 4.95 259.5" fill="#707070" fill-rule="evenodd" stroke="none"/>
    <path d="M-19.4 259.5 L-19.4 256.7 -8.9 256.7 -8.9 259.5 -19.4 259.5" fill="#707070" fill-rule="evenodd" stroke="none"/>
    <path d="M-7.4 259.5 L-7.4 258.1 3.1 258.1 3.1 259.5 -7.4 259.5" fill="#707070" fill-rule="evenodd" stroke="none"/>
    <path d="M-37.4 259.5 L-37.4 256.95 -26.3 256.95 -26.3 259.5 -37.4 259.5" fill="#707070" fill-rule="evenodd" stroke="none"/>
    <path d="M-41.75 223.0 L-39.4 223.0 -39.4 248.5 -30.3 248.5 -30.3 251.0 -39.4 251.0 -39.4 252.6 -30.5 252.6 -30.5 255.1 -39.4 255.1 -39.4 259.5 -41.75 259.5 -41.75 223.0" fill="#707070" fill-rule="evenodd" stroke="none"/>
    <path d="M-32.75 223.0 L-32.75 234.35 -36.9 234.35 -36.9 223.0 -32.75 223.0" fill="#707070" fill-rule="evenodd" stroke="none"/>
    <path d="M-31.05 230.5 L-31.05 226.35 -27.05 226.35 -27.05 230.5 -31.05 230.5" fill="#707070" fill-rule="evenodd" stroke="none"/>
    <path d="M51.0 187.5 L54.5 187.5 54.5 195.75 51.0 195.75 51.0 187.5" fill="#707070" fill-rule="evenodd" stroke="none"/>
    <path d="M34.2 88.35 L32.2 88.35 32.2 81.7 40.25 81.7 40.25 125.75 54.5 125.75 54.5 183.55 48.85 183.55 48.85 153.85 45.85 153.85 45.85 131.5 34.2 131.5 34.2 92.85 33.2 92.85 33.2 90.05 34.2 90.05 34.2 88.35" fill="#707070" fill-rule="evenodd" stroke="none"/>
    <path d="M1.2 159.35 L1.2 144.55 21.7 144.55 21.7 159.35 1.2 159.35" fill="#707070" fill-rule="evenodd" stroke="none"/>
    <path d="M-20.5 72.45 L-20.5 88.5 -17.3 88.5 -17.3 186.85 -9.8 191.7 -2.0 191.7 11.2 183.2 20.5 182.5 21.2 201.5 -32.15 201.5 -32.15 72.45 -20.5 72.45" fill="#707070" fill-rule="evenodd" stroke="none"/>
    <path d="M19.3 98.8 L21.2 99.8 22.85 101.1 24.25 102.75 25.3 104.6 26.0 106.65 26.3 108.6 26.15 110.9 25.65 113.0 24.7 114.9 23.45 116.65 21.9 118.1 20.1 119.25 18.1 120.05 16.0 120.4 14.0 120.4 11.75 119.95 9.75 119.15 8.0 117.95 6.45 116.5 5.2 114.75 4.35 112.75 3.85 110.7 3.75 108.7 4.1 106.45 4.85 104.4 5.9 102.55 7.35 100.95 9.05 99.65 10.7 98.8 12.05 101.45 10.55 102.25 9.3 103.25 8.3 104.4 7.5 105.8 7.0 107.25 6.75 108.8 6.85 110.4 7.25 111.9 7.9 113.35 8.8 114.6 9.95 115.7 11.25 116.55 12.7 117.1 14.25 117.4 15.85 117.4 17.4 117.1 18.85 116.5 20.15 115.65 21.3 114.6 22.2 113.3 22.85 111.85 23.2 110.35 23.25 108.75 23.05 107.2 22.55 105.75 21.75 104.4 20.7 103.2 19.45 102.25 17.95 101.45 19.3 98.8" fill="#707070" fill-rule="evenodd" stroke="none"/>
    <path d="M7.0 85.4 L5.7 81.85 5.7 72.45 23.7 72.45 23.75 83.2 23.25 84.8 22.25 86.1 21.0 87.25 19.55 88.1 18.0 88.75 16.35 89.1 14.65 89.15 12.0 88.95 10.5 88.4 9.1 87.65 7.95 86.6 7.0 85.4" fill="#707070" fill-rule="evenodd" stroke="none"/>
    <path d="M0.45 60.2 L0.45 68.7 -2.15 68.7 -2.15 60.2 0.45 60.2" fill="#707070" fill-rule="evenodd" stroke="none"/>
    <path d="M-15.0 69.2 L-15.7 69.2 -15.7 58.35 -15.0 58.35 -15.0 69.2" fill="#707070" fill-rule="evenodd" stroke="none"/>
    <path d="M25.85 13.2 L32.0 13.2 32.0 55.0 25.85 55.0 25.85 13.2" fill="#707070" fill-rule="evenodd" stroke="none"/>
    <path d="M24.0 46.5 L24.0 55.0 20.85 55.0 20.85 46.5 24.0 46.5" fill="#707070" fill-rule="evenodd" stroke="none"/>
    <path d="M-26.75 13.2 L-22.25 13.2 -22.25 30.25 -13.75 30.25 -13.75 32.25 -22.25 32.25 -22.25 34.0 -13.75 34.0 -13.75 36.0 -22.25 36.0 -22.25 37.75 -13.75 37.75 -13.75 39.75 -22.25 39.75 -22.25 52.0 -15.0 52.0 -15.0 55.0 -26.75 55.0 -26.75 13.2" fill="#707070" fill-rule="evenodd" stroke="none"/>
    <path d="M-6.75 13.2 L-6.75 20.9 -21.0 20.9 -21.0 13.2 -6.75 13.2" fill="#707070" fill-rule="evenodd" stroke="none"/>
    <path d="M0.0 13.2 L0.0 15.65 -6.0 15.65 -6.0 13.2 0.0 13.2" fill="#707070" fill-rule="evenodd" stroke="none"/>
    <path d="M5.65 14.15 L3.5 14.15 3.5 13.2 5.65 13.2 5.65 14.15" fill="#707070" fill-rule="evenodd" stroke="none"/>
    <path d="M49.75 -252.5 L49.75 -253.85 47.4 -253.85 47.4 -256.1 49.75 -256.1 49.75 -278.3 53.5 -278.3 53.5 -229.15 49.75 -229.15 49.75 -246.6 47.4 -246.6 47.4 -248.85 49.75 -248.85 49.75 -250.25 47.4 -250.25 47.4 -252.5 49.75 -252.5" fill="#707070" fill-rule="evenodd" stroke="none"/>
    <path d="M47.5 -235.75 L47.5 -229.15 33.0 -229.15 33.0 -235.75 47.5 -235.75" fill="#707070" fill-rule="evenodd" stroke="none"/>
    <path d="M31.65 -231.1 L31.65 -229.15 25.5 -229.15 25.5 -231.1 31.65 -231.1" fill="#707070" fill-rule="evenodd" stroke="none"/>
    <path d="M-7.6 -278.3 L-1.1 -278.3 -1.1 -271.15 5.05 -271.15 5.05 -267.3 -1.1 -267.3 -1.1 -256.0 5.9 -256.0 5.9 -253.75 -1.1 -253.75 -1.1 -252.35 5.9 -252.35 5.9 -250.1 -1.1 -250.1 -1.1 -248.75 5.9 -248.75 5.9 -246.5 -1.1 -246.5 -1.1 -229.15 -7.6 -229.15 -7.6 -278.3" fill="#707070" fill-rule="evenodd" stroke="none"/>
    <path d="M17.85 -278.3 L17.85 -275.55 3.85 -275.55 3.85 -278.3 17.85 -278.3" fill="#707070" fill-rule="evenodd" stroke="none"/>
    <path d="M-27.1 -312.3 L-23.0 -312.3 -23.0 -280.85 -27.1 -280.85 -27.1 -312.3" fill="#707070" fill-rule="evenodd" stroke="none"/>
    <path d="M16.5 -283.85 L16.5 -280.85 -21.35 -280.85 -21.35 -283.85 16.5 -283.85" fill="#707070" fill-rule="evenodd" stroke="none"/>
    <path d="M28.35 -287.15 L28.35 -296.8 30.35 -296.8 30.35 -287.15 28.35 -287.15" fill="#707070" fill-rule="evenodd" stroke="none"/>
    <path d="M28.35 -308.15 L29.7 -308.15 29.7 -300.0 28.35 -300.0 28.35 -308.15" fill="#707070" fill-rule="evenodd" stroke="none"/>
    <path d="M30.05 -318.0 L30.05 -309.8 28.35 -309.8 28.35 -318.0 30.05 -318.0" fill="#707070" fill-rule="evenodd" stroke="none"/>
    <path d="M56.85 -349.15 L60.7 -349.15 60.7 -325.8 56.85 -325.8 56.85 -340.3 52.5 -340.3 52.5 -343.3 56.85 -343.3 56.85 -349.15" fill="#707070" fill-rule="evenodd" stroke="none"/>
    <path d="M-33.15 -325.8 L-33.15 -349.15 -18.65 -349.15 -18.65 -325.8 -33.15 -325.8" fill="#707070" fill-rule="evenodd" stroke="none"/>
    <path d="M-9.9 -327.95 L-9.9 -325.8 -14.8 -325.8 -14.8 -327.95 -9.9 -327.95" fill="#707070" fill-rule="evenodd" stroke="none"/>
    <path d="M24.2 -327.45 L24.2 -325.8 19.0 -325.8 19.0 -327.45 24.2 -327.45" fill="#707070" fill-rule="evenodd" stroke="none"/>
    <path d="M40.9 -349.15 L40.9 -345.5 39.15 -345.5 39.15 -349.15 40.9 -349.15" fill="#707070" fill-rule="evenodd" stroke="none"/>
    <path d="M46.15 -349.15 L46.15 -345.5 44.4 -345.5 44.4 -349.15 46.15 -349.15" fill="#707070" fill-rule="evenodd" stroke="none"/>
    <path d="M43.5 -349.15 L43.5 -345.5 41.75 -345.5 41.75 -349.15 43.5 -349.15" fill="#707070" fill-rule="evenodd" stroke="none"/>
    <path d="M-2.0 -349.15 L-2.0 -347.1 -10.85 -347.1 -10.85 -349.15 -2.0 -349.15" fill="#707070" fill-rule="evenodd" stroke="none"/>
    <path d="M3.9 -354.45 L3.9 -350.5 0.15 -350.5 0.15 -354.45 3.9 -354.45" fill="#707070" fill-rule="evenodd" stroke="none"/>
    <path d="M31.05 -354.45 L31.05 -350.5 27.3 -350.5 27.3 -354.45 31.05 -354.45" fill="#707070" fill-rule="evenodd" stroke="none"/>
    <path d="M9.5 -325.8 L9.5 -328.15 13.25 -328.15 13.25 -325.8 9.5 -325.8" fill="#707070" fill-rule="evenodd" stroke="none"/>
    <path d="M31.05 -374.65 L31.05 -371.05 27.3 -371.05 27.3 -374.65 31.05 -374.65" fill="#707070" fill-rule="evenodd" stroke="none"/>
    <path d="M3.9 -374.65 L3.9 -371.05 0.15 -371.05 0.15 -374.65 3.9 -374.65" fill="#707070" fill-rule="evenodd" stroke="none"/>
    <path d="M44.5 -321.3 L49.35 -321.3 49.35 -282.3 44.5 -282.3 44.5 -321.3" fill="#707070" fill-rule="evenodd" stroke="none"/>
    <path d="M25.5 75.9 L25.5 72.45 40.25 72.45 40.25 75.9 25.5 75.9" fill="#707070" fill-rule="evenodd" stroke="none"/>
    <path d="M32.25 -209.15 L35.1 -210.4 38.1 -211.05 41.2 -211.15 44.25 -210.65 47.15 -209.6 49.8 -208.0 52.1 -205.95 54.0 -203.5 55.35 -200.7 56.2 -197.7 56.4 -194.65 56.05 -191.55 55.15 -188.6 53.7 -185.9 51.7 -183.5 49.35 -181.5 46.65 -180.0 43.7 -179.05 40.65 -178.65 37.55 -178.85 34.55 -179.65 31.75 -180.95 29.25 -182.8 27.2 -185.1 25.55 -187.7 24.45 -190.6 23.9 -193.65 24.0 -196.75 24.6 -199.8 25.8 -202.65 27.55 -205.2 29.7 -207.4 32.25 -209.15" fill="#434343" fill-rule="evenodd" stroke="none"/>
    <path d="M55.35 -164.5 L56.2 -161.5 56.4 -158.45 56.05 -155.35 55.15 -152.4 53.7 -149.7 51.7 -147.3 49.35 -145.3 46.65 -143.8 43.7 -142.85 40.65 -142.45 37.55 -142.65 34.55 -143.45 31.75 -144.75 29.25 -146.6 27.2 -148.9 25.55 -151.5 24.45 -154.4 23.9 -157.45 24.0 -160.55 24.6 -163.6 25.8 -166.45 27.55 -169.0 29.7 -171.2 32.25 -172.95 35.1 -174.2 38.1 -174.85 41.2 -174.95 44.25 -174.45 47.15 -173.4 49.8 -171.8 52.1 -169.75 54.0 -167.25 55.35 -164.5" fill="#434343" fill-rule="evenodd" stroke="none"/>
    <path d="M55.35 -128.3 L56.2 -125.3 56.4 -122.25 56.05 -119.15 55.15 -116.2 53.7 -113.5 51.7 -111.1 49.35 -109.1 46.65 -107.6 43.7 -106.65 40.65 -106.25 37.55 -106.45 34.55 -107.25 31.75 -108.55 29.25 -110.4 27.2 -112.7 25.55 -115.3 24.45 -118.2 23.9 -121.25 24.0 -124.35 24.6 -127.4 25.8 -130.25 27.55 -132.8 29.7 -135.0 32.25 -136.75 35.1 -138.0 38.1 -138.65 41.2 -138.75 44.25 -138.25 47.15 -137.2 49.8 -135.6 52.1 -133.55 54.0 -131.1 55.35 -128.3" fill="#434343" fill-rule="evenodd" stroke="none"/>
    <path d="M49.8 -98.4 L52.1 -96.35 54.0 -93.85 55.35 -91.1 56.2 -88.1 56.4 -85.05 56.05 -81.95 55.15 -79.0 53.7 -76.3 51.7 -73.9 49.35 -71.9 46.65 -70.4 43.7 -69.45 40.65 -69.05 37.55 -69.25 34.55 -70.05 31.75 -71.35 29.25 -73.2 27.2 -75.5 25.55 -78.1 24.45 -81.0 23.9 -84.05 24.0 -87.15 24.6 -90.2 25.8 -93.05 27.55 -95.6 29.7 -97.8 32.25 -99.55 35.1 -100.8 38.1 -101.45 41.2 -101.55 44.25 -101.05 47.15 -100.0 49.8 -98.4" fill="#434343" fill-rule="evenodd" stroke="none"/>
    <path d="M29.7 -61.6 L32.25 -63.35 35.1 -64.6 38.1 -65.25 41.2 -65.35 44.25 -64.85 47.15 -63.8 49.8 -62.2 52.1 -60.15 54.0 -57.7 55.35 -54.9 56.2 -51.9 56.4 -48.85 56.05 -45.75 55.15 -42.8 53.7 -40.1 51.7 -37.7 49.35 -35.7 46.65 -34.2 43.7 -33.25 40.65 -32.85 40.45 -32.85 40.95 -32.45 41.3 -31.8 41.35 -31.05 41.0 -30.4 40.45 -29.9 39.75 -29.75 39.0 -29.85 38.4 -30.3 38.1 -30.95 38.05 -31.7 38.35 -32.4 38.9 -32.85 39.2 -32.95 37.55 -33.05 34.55 -33.85 31.75 -35.15 29.25 -37.0 27.2 -39.3 25.55 -41.9 24.45 -44.8 23.9 -47.85 24.0 -50.95 24.6 -54.0 25.8 -56.85 27.55 -59.4 29.7 -61.6" fill="#434343" fill-rule="evenodd" stroke="none"/>
    <path d="M23.9 -12.15 L24.0 -15.25 24.6 -18.3 25.8 -21.15 27.55 -23.7 29.7 -25.9 32.25 -27.65 35.1 -28.9 38.1 -29.55 41.2 -29.65 44.25 -29.15 47.15 -28.1 49.8 -26.5 52.1 -24.45 54.0 -22.0 55.35 -19.2 56.2 -16.2 56.4 -13.15 56.05 -10.05 55.15 -7.1 53.7 -4.4 51.7 -2.0 49.35 0.0 46.65 1.5 43.7 2.45 40.65 2.85 37.55 2.65 34.55 1.85 31.75 0.55 29.25 -1.3 27.2 -3.6 25.55 -6.2 24.45 -9.1 23.9 -12.15" fill="#434343" fill-rule="evenodd" stroke="none"/>
    <path d="M-18.05 -209.15 L-15.25 -210.4 -12.2 -211.05 -9.15 -211.15 -6.05 -210.65 -3.15 -209.6 -0.5 -208.0 1.8 -205.95 3.65 -203.5 5.05 -200.7 5.85 -197.7 6.1 -194.65 5.75 -191.55 4.8 -188.6 3.35 -185.9 1.4 -183.5 -1.0 -181.5 -3.7 -180.0 -6.65 -179.05 -9.7 -178.65 -12.8 -178.85 -15.8 -179.65 -18.55 -180.95 -21.05 -182.8 -23.15 -185.1 -24.8 -187.7 -25.9 -190.6 -26.4 -193.65 -26.35 -196.75 -25.7 -199.8 -24.5 -202.65 -22.8 -205.2 -20.6 -207.4 -18.05 -209.15" fill="#434343" fill-rule="evenodd" stroke="none"/>
    <path d="M-26.35 -160.55 L-25.7 -163.6 -24.5 -166.45 -22.8 -169.0 -20.6 -171.2 -18.05 -172.95 -15.25 -174.2 -12.2 -174.85 -9.15 -174.95 -6.05 -174.45 -3.15 -173.4 -0.5 -171.8 1.8 -169.75 3.65 -167.25 5.05 -164.5 5.85 -161.5 6.1 -158.45 5.75 -155.35 4.8 -152.4 3.35 -149.7 1.4 -147.3 -1.0 -145.3 -3.7 -143.8 -6.65 -142.85 -9.7 -142.45 -12.8 -142.65 -15.8 -143.45 -18.55 -144.75 -21.05 -146.6 -23.15 -148.9 -24.8 -151.5 -25.9 -154.4 -26.4 -157.45 -26.35 -160.55" fill="#434343" fill-rule="evenodd" stroke="none"/>
    <path d="M-6.05 -138.25 L-3.15 -137.2 -0.5 -135.6 1.8 -133.55 3.65 -131.1 5.05 -128.3 5.85 -125.3 6.1 -122.25 5.75 -119.15 4.8 -116.2 3.35 -113.5 1.4 -111.1 -1.0 -109.1 -3.7 -107.6 -6.65 -106.65 -9.7 -106.25 -12.8 -106.45 -15.8 -107.25 -18.55 -108.55 -21.05 -110.4 -23.15 -112.7 -24.8 -115.3 -25.9 -118.2 -26.4 -121.25 -26.35 -124.35 -25.7 -127.4 -24.5 -130.25 -22.8 -132.8 -20.6 -135.0 -18.05 -136.75 -15.25 -138.0 -12.2 -138.65 -9.15 -138.75 -6.05 -138.25" fill="#434343" fill-rule="evenodd" stroke="none"/>
    <path d="M-6.05 -101.05 L-3.15 -100.0 -0.5 -98.4 1.8 -96.35 3.65 -93.85 5.05 -91.1 5.85 -88.1 6.1 -85.05 5.75 -81.95 4.8 -79.0 3.35 -76.3 1.4 -73.9 -1.0 -71.9 -3.7 -70.4 -6.65 -69.45 -9.7 -69.05 -12.8 -69.25 -15.8 -70.05 -18.55 -71.35 -21.05 -73.2 -23.15 -75.5 -24.8 -78.1 -25.9 -81.0 -26.4 -84.05 -26.35 -87.15 -25.7 -90.2 -24.5 -93.05 -22.8 -95.6 -20.6 -97.8 -18.05 -99.55 -15.25 -100.8 -12.2 -101.45 -9.15 -101.55 -6.05 -101.05" fill="#434343" fill-rule="evenodd" stroke="none"/>
    <path d="M-20.6 -61.6 L-18.05 -63.35 -15.25 -64.6 -12.2 -65.25 -9.15 -65.35 -6.05 -64.85 -3.15 -63.8 -0.5 -62.2 1.8 -60.15 3.65 -57.7 5.05 -54.9 5.85 -51.9 6.1 -48.85 5.75 -45.75 4.8 -42.8 3.35 -40.1 1.4 -37.7 -1.0 -35.7 -3.7 -34.2 -6.65 -33.25 -9.7 -32.85 -12.8 -33.05 -15.8 -33.85 -18.55 -35.15 -21.05 -37.0 -23.15 -39.3 -24.8 -41.9 -25.9 -44.8 -26.4 -47.85 -26.35 -50.95 -25.7 -54.0 -24.5 -56.85 -22.8 -59.4 -20.6 -61.6" fill="#434343" fill-rule="evenodd" stroke="none"/>
    <path d="M-9.45 -32.6 L-8.85 -32.15 -8.55 -31.5 -8.5 -30.75 -8.8 -30.05 -9.3 -29.65 -9.15 -29.65 -6.05 -29.15 -3.15 -28.1 -0.5 -26.5 1.8 -24.45 3.65 -22.0 5.05 -19.2 5.85 -16.2 6.1 -13.15 5.75 -10.05 4.8 -7.1 3.35 -4.4 1.4 -2.0 -1.0 0.0 -3.7 1.5 -6.65 2.45 -9.7 2.85 -12.8 2.65 -15.8 1.85 -18.55 0.55 -21.05 -1.3 -23.15 -3.6 -24.8 -6.2 -25.9 -9.1 -26.4 -12.15 -26.35 -15.25 -25.7 -18.3 -24.5 -21.15 -22.8 -23.7 -20.6 -25.9 -18.05 -27.65 -15.25 -28.9 -12.2 -29.55 -10.9 -29.6 -11.4 -30.0 -11.75 -30.65 -11.8 -31.4 -11.5 -32.05 -10.9 -32.55 -10.2 -32.7 -9.45 -32.6" fill="#434343" fill-rule="evenodd" stroke="none"/>
    <path d="M-9.4 -178.5 L-8.85 -178.05 -8.5 -177.4 -8.45 -176.65 -8.75 -176.0 -9.35 -175.5 -10.05 -175.3 -10.8 -175.45 -11.35 -175.9 -11.7 -176.55 -11.75 -177.3 -11.45 -178.0 -10.85 -178.45 -10.15 -178.65 -9.4 -178.5" fill="#434343" fill-rule="evenodd" stroke="none"/>
    <path d="M-1.35 -142.7 L-1.0 -142.0 -0.95 -141.3 -1.25 -140.6 -1.85 -140.1 -2.55 -139.95 -3.3 -140.1 -3.85 -140.5 -4.2 -141.2 -4.25 -141.9 -3.95 -142.6 -3.35 -143.1 -2.65 -143.25 -1.9 -143.1 -1.35 -142.7" fill="#434343" fill-rule="evenodd" stroke="none"/>
    <path d="M33.8 -137.75 L33.05 -137.55 32.35 -137.7 31.75 -138.15 31.4 -138.8 31.4 -139.55 31.7 -140.25 32.25 -140.7 33.0 -140.9 33.7 -140.75 34.3 -140.3 34.65 -139.65 34.65 -138.9 34.35 -138.25 33.8 -137.75" fill="#434343" fill-rule="evenodd" stroke="none"/>
    <path d="M39.25 -103.15 L38.9 -103.8 38.9 -104.55 39.2 -105.25 39.75 -105.7 40.5 -105.9 41.2 -105.75 41.8 -105.3 42.15 -104.65 42.15 -103.9 41.85 -103.25 41.3 -102.75 40.55 -102.55 39.85 -102.7 39.25 -103.15" fill="#434343" fill-rule="evenodd" stroke="none"/>
    <path d="M-11.5 -104.9 L-10.9 -105.35 -10.2 -105.55 -9.45 -105.4 -8.85 -104.95 -8.55 -104.3 -8.5 -103.55 -8.8 -102.9 -9.35 -102.4 -10.1 -102.25 -10.8 -102.35 -11.4 -102.8 -11.75 -103.45 -11.8 -104.2 -11.5 -104.9" fill="#434343" fill-rule="evenodd" stroke="none"/>
    <path d="M-1.65 -70.1 L-1.05 -69.65 -0.7 -69.0 -0.65 -68.25 -1.0 -67.55 -1.55 -67.1 -2.25 -66.9 -3.0 -67.05 -3.6 -67.5 -3.9 -68.15 -3.95 -68.9 -3.65 -69.55 -3.1 -70.05 -2.35 -70.2 -1.65 -70.1" fill="#434343" fill-rule="evenodd" stroke="none"/>
    <path d="M32.35 -65.05 L31.75 -65.5 31.4 -66.15 31.4 -66.9 31.7 -67.55 32.25 -68.05 32.95 -68.2 33.7 -68.1 34.3 -67.65 34.65 -67.0 34.65 -66.25 34.35 -65.55 33.8 -65.1 33.05 -64.9 32.35 -65.05" fill="#434343" fill-rule="evenodd" stroke="none"/>
    <path d="M39.3 -177.75 L39.9 -178.2 40.6 -178.4 41.35 -178.25 41.9 -177.8 42.25 -177.15 42.3 -176.4 42.0 -175.75 41.4 -175.25 40.7 -175.05 39.95 -175.2 39.4 -175.65 39.05 -176.3 39.0 -177.05 39.3 -177.75" fill="#434343" fill-rule="evenodd" stroke="none"/>
    <path d="M25.2 197.6 L25.75 198.2 26.0 198.9 25.85 199.7 25.4 200.3 24.7 200.7 23.9 200.75 23.15 200.45 22.6 199.85 22.35 199.15 22.5 198.4 22.95 197.75 23.65 197.35 24.45 197.3 25.2 197.6" fill="#434343" fill-rule="evenodd" stroke="none"/>
    <path d="M18.3 50.25 L19.0 51.05 19.3 52.0 19.1 53.0 18.5 53.85 17.6 54.35 16.55 54.4 15.55 54.05 14.85 53.3 14.55 52.3 14.75 51.3 15.35 50.45 16.25 49.95 17.3 49.9 18.3 50.25" fill="#434343" fill-rule="evenodd" stroke="none"/>
    <path d="M23.65 -277.25 L24.5 -276.4 24.85 -275.25 24.65 -274.05 23.95 -273.1 22.85 -272.5 21.65 -272.4 20.5 -272.85 19.65 -273.75 19.3 -274.9 19.5 -276.05 20.2 -277.05 21.3 -277.65 22.5 -277.7 23.65 -277.25" fill="#434343" fill-rule="evenodd" stroke="none"/>
    <path d="M51.8 -348.1 L52.65 -347.2 53.0 -346.05 52.8 -344.9 52.1 -343.9 51.0 -343.35 49.8 -343.25 48.65 -343.7 47.85 -344.6 47.5 -345.75 47.7 -346.9 48.4 -347.9 49.45 -348.45 50.7 -348.55 51.8 -348.1" fill="#434343" fill-rule="evenodd" stroke="none"/>
    <path d="M55.35 253.9 L56.1 254.75 56.45 255.85 56.25 256.95 55.6 257.85 54.6 258.4 53.45 258.5 52.35 258.05 51.6 257.25 51.25 256.15 51.45 255.05 52.1 254.1 53.1 253.55 54.25 253.5 55.35 253.9" fill="#434343" fill-rule="evenodd" stroke="none"/>
    <path d="M23.0 226.7 L23.0 222.5 25.85 222.5 25.85 226.7 23.0 226.7" fill="#434343" fill-rule="evenodd" stroke="none"/>
    <path d="M-24.25 260.3 L-24.25 256.1 -21.4 256.1 -21.4 260.3 -24.25 260.3" fill="#434343" fill-rule="evenodd" stroke="none"/>
    <path d="M23.1 260.3 L23.1 256.1 25.95 256.1 25.95 260.3 23.1 260.3" fill="#434343" fill-rule="evenodd" stroke="none"/>
    <path d="M-24.4 226.7 L-24.4 222.5 -21.55 222.5 -21.55 226.7 -24.4 226.7" fill="#434343" fill-rule="evenodd" stroke="none"/>
    <path d="M20.3 241.25 L-15.9 241.25 -15.9 223.0 20.3 223.0 20.3 241.25" fill="#ffffff" fill-rule="evenodd" stroke="none"/>
    <path d="M-9.25 -296.45 L-11.15 -294.05 Q-12.55 -293.35 -13.95 -292.7 L-17.0 -292.7 -19.8 -294.05 -21.7 -296.45 -22.4 -299.45 -21.7 -302.45 -19.8 -304.85 -17.0 -306.2 -13.95 -306.2 -11.15 -304.85 -9.25 -302.45 -8.55 -299.45 -9.25 -296.45" fill="#ffffff" fill-rule="evenodd" stroke="none"/>
    <path d="M10.45 74.4 L13.25 73.05 16.3 73.05 19.1 74.4 21.0 76.8 21.7 79.8 21.0 82.8 19.1 85.2 16.3 86.55 13.25 86.55 10.45 85.2 8.55 82.8 7.85 79.8 8.55 76.8 10.45 74.4" fill="#ffffff" fill-rule="evenodd" stroke="none"/>
    <path d="M23.0 223.0 L23.0 243.9 -15.9 243.9 -15.9 241.25 20.3 241.25 20.3 223.0 23.0 223.0" fill="#ffffff" fill-rule="evenodd" stroke="none"/>
  </g>
</svg>
