<?xml version="1.0" encoding="UTF-8" standalone="no"?>
<svg xmlns:ffdec="https://www.free-decompiler.com/flash" xmlns:xlink="http://www.w3.org/1999/xlink" ffdec:objectType="shape" height="725.2px" width="534.2px" xmlns="http://www.w3.org/2000/svg">
  <g transform="matrix(1.0, 0.0, 0.0, 1.0, 236.0, 322.0)">
    <path d="M-79.75 -322.0 L298.2 -322.0 298.2 403.2 -236.0 403.2 -236.0 -60.75 -79.75 -60.75 -79.75 -322.0" fill="#434343" fill-rule="evenodd" stroke="none"/>
    <path d="M160.95 17.4 L160.95 27.0 157.75 27.0 157.75 28.25 160.3 28.25 160.3 29.7 153.4 29.7 153.4 31.25 150.3 31.25 150.3 34.75 134.95 34.75 134.95 31.25 132.15 31.25 132.15 29.7 125.25 29.7 125.25 28.25 127.75 28.25 127.75 27.0 125.4 27.0 125.4 25.5 121.95 25.5 121.95 27.15 119.7 27.15 119.7 28.15 122.3 28.15 122.3 29.65 115.3 29.65 115.3 31.25 112.2 31.25 112.2 34.75 96.8 34.75 96.8 31.25 94.05 31.25 94.05 29.65 87.2 29.65 87.2 28.15 89.7 28.15 89.7 27.15 86.4 27.15 86.4 17.4 80.7 17.4 80.7 28.2 79.8 28.2 79.8 26.95 77.2 26.95 77.2 28.2 79.4 28.2 79.4 29.7 54.0 29.7 54.0 32.5 55.25 32.5 55.25 35.25 58.15 35.25 58.15 90.25 55.3 90.25 55.3 91.75 53.8 91.75 53.8 94.9 84.0 94.9 84.0 108.45 87.8 108.45 87.8 93.2 161.55 93.2 161.55 105.0 165.55 105.0 165.55 94.05 176.5 94.05 176.5 41.05 165.4 41.05 165.4 17.4 160.95 17.4 M-133.45 109.2 L-136.85 109.2 -136.85 125.55 -147.85 125.55 -147.85 229.4 -136.85 229.4 -136.85 245.8 -135.35 245.8 -135.35 264.95 -136.85 264.95 -136.85 281.25 -147.85 281.25 -147.85 310.75 -8.45 310.75 -8.45 299.4 7.7 299.4 7.7 298.05 26.9 298.05 26.9 299.4 43.4 299.4 43.4 310.75 176.15 310.75 176.15 275.3 165.5 275.3 165.5 259.05 163.8 259.05 163.8 239.9 165.5 239.9 165.5 223.65 176.55 223.65 176.55 144.9 165.55 144.9 165.55 134.25 161.55 134.25 161.55 159.0 87.8 159.0 87.8 128.0 84.0 128.0 84.0 149.05 36.25 149.05 36.25 157.2 16.25 157.2 16.25 149.05 -1.55 149.05 -1.55 138.9 -4.3 138.9 -4.3 158.9 -86.25 158.9 -86.25 136.4 -133.45 136.4 -133.45 109.2 M-102.25 30.7 L-102.25 29.4 -118.5 29.4 -118.5 18.2 -147.85 18.2 -147.85 73.7 -136.85 73.7 -136.85 90.05 -133.45 90.05 -133.45 77.2 -86.25 77.2 -86.25 71.9 -31.8 71.9 -31.8 95.9 -4.3 95.9 -4.3 117.9 -1.55 117.9 -1.55 94.9 40.25 94.9 40.25 91.75 38.65 91.75 38.65 90.25 -24.95 90.25 -24.95 35.25 38.7 35.25 38.7 32.5 40.0 32.5 40.0 29.7 -28.55 29.7 -28.55 28.2 -26.0 28.2 -26.0 26.95 -28.45 26.95 -28.45 13.0 -31.95 13.0 -31.95 18.2 -66.6 18.2 -66.6 29.4 -82.85 29.4 -82.85 30.7 -102.25 30.7 M99.0 -213.1 L99.0 -211.35 79.7 -211.35 79.7 -213.1 63.65 -213.1 63.65 -224.3 8.4 -224.3 8.4 -162.85 19.15 -162.85 19.15 -146.3 20.7 -146.3 20.7 -127.1 19.15 -127.1 19.15 -110.95 8.4 -110.95 8.4 -36.35 3.2 -36.35 3.2 -33.1 25.65 -33.1 25.65 -31.95 23.15 -31.95 23.15 -30.6 26.9 -30.6 26.9 -42.85 42.4 -42.85 42.4 -44.25 62.15 -44.25 62.15 -42.85 77.4 -42.85 77.4 -31.8 79.8 -31.8 79.8 -32.85 80.7 -32.85 80.7 -22.1 86.3 -22.1 86.3 -31.6 89.5 -31.6 89.5 -32.8 87.15 -32.8 87.15 -34.35 94.05 -34.35 94.05 -35.7 96.75 -35.7 96.75 -37.5 112.15 -37.5 112.15 -35.7 115.05 -35.7 115.05 -34.35 122.0 -34.35 122.0 -32.8 119.55 -32.8 119.55 -31.6 121.9 -31.6 121.9 -30.3 125.25 -30.3 125.25 -31.6 127.95 -31.6 127.95 -32.8 125.5 -32.8 125.5 -34.35 132.45 -34.35 132.45 -35.7 135.0 -35.7 135.0 -37.5 150.9 -37.5 150.9 -35.7 153.45 -35.7 153.45 -34.35 160.4 -34.35 160.4 -32.8 158.0 -32.8 158.0 -31.6 161.05 -31.6 161.05 -22.1 165.4 -22.1 165.4 -45.95 176.75 -45.95 176.75 -90.35 165.65 -90.35 165.65 -106.95 164.05 -106.95 164.05 -126.05 165.65 -126.05 165.65 -142.3 176.75 -142.3 176.75 -223.7 176.5 -223.7 176.5 -224.3 115.25 -224.3 115.25 -213.1 99.0 -213.1 M63.55 -262.95 L63.55 -253.75 83.45 -253.75 83.45 -262.95 92.55 -262.95 92.55 -264.5 106.25 -264.5 106.25 -262.95 115.55 -262.95 115.55 -253.75 135.4 -253.75 135.4 -262.95 144.55 -262.95 144.55 -264.5 158.2 -264.5 158.2 -262.95 167.5 -262.95 167.5 -253.75 176.5 -253.75 176.5 -279.3 182.4 -279.3 182.4 -280.95 202.2 -280.95 202.2 -279.3 208.15 -279.3 208.15 -223.7 206.4 -223.7 206.4 -200.6 216.2 -200.6 216.2 -191.45 217.7 -191.45 217.7 -177.75 216.2 -177.75 216.2 -168.55 206.4 -168.55 206.4 -148.75 216.3 -148.75 216.3 -139.6 217.8 -139.6 217.8 -125.95 216.3 -125.95 216.3 -116.75 206.4 -116.75 206.4 -96.85 216.45 -96.85 216.45 -87.75 217.95 -87.75 217.95 -74.05 216.45 -74.05 216.45 -64.85 206.4 -64.85 206.4 -55.2 207.75 -55.2 207.75 -35.75 205.9 -35.75 205.9 70.55 207.9 70.55 207.9 84.45 205.9 84.45 205.9 113.75 215.9 113.75 215.9 122.75 217.4 122.75 217.4 136.55 215.9 136.55 215.9 145.55 205.95 145.55 205.95 165.65 216.05 165.65 216.05 174.65 217.55 174.65 217.55 188.2 216.05 188.2 216.05 197.5 205.95 197.5 205.95 217.5 216.3 217.5 216.3 226.55 217.55 226.55 217.55 240.4 216.3 240.4 216.3 249.4 206.15 249.4 206.15 269.05 216.25 269.05 216.25 278.8 217.4 278.8 217.4 292.55 216.25 292.55 216.25 301.25 206.15 301.25 206.15 310.25 231.9 310.25 231.9 316.4 233.55 316.4 233.55 336.4 231.9 336.4 231.9 342.4 176.55 342.4 176.55 340.0 153.05 340.0 153.05 350.3 144.4 350.3 144.4 351.8 130.8 351.8 130.8 350.3 121.7 350.3 121.7 340.0 101.3 340.0 101.3 350.3 92.65 350.3 92.65 351.8 79.05 351.8 79.05 350.3 69.95 350.3 69.95 340.0 49.15 340.0 49.15 350.3 40.45 350.3 40.45 351.8 26.9 351.8 26.9 350.3 17.75 350.3 17.75 340.25 -2.95 340.25 -2.95 350.3 -11.6 350.3 -11.6 351.8 -25.25 351.8 -25.25 350.3 -34.35 350.3 -34.35 340.0 -55.45 340.0 -55.45 350.3 -64.1 350.3 -64.1 351.8 -77.75 351.8 -77.75 350.3 -86.85 350.3 -86.85 340.0 -106.95 340.0 -106.95 350.3 -115.6 350.3 -115.6 351.8 -129.25 351.8 -129.25 350.3 -138.35 350.3 -138.35 340.0 -147.85 340.0 -147.85 366.15 -153.6 366.15 -153.6 367.7 -173.6 367.7 -173.6 366.15 -179.35 366.15 -179.35 310.4 -177.8 310.4 -177.8 287.15 -187.25 287.15 -187.25 278.2 -188.85 278.2 -188.85 264.65 -187.25 264.65 -187.25 255.7 -177.8 255.7 -177.8 235.2 -187.25 235.2 -187.25 226.25 -188.85 226.25 -188.85 212.7 -187.25 212.7 -187.25 203.75 -177.8 203.75 -177.8 183.3 -187.25 183.3 -187.25 174.4 -188.85 174.4 -188.85 160.8 -187.25 160.8 -187.25 151.9 -177.8 151.9 -177.8 131.4 -187.25 131.4 -187.25 122.45 -188.85 122.45 -188.85 108.9 -187.25 108.9 -187.25 99.95 -177.8 99.95 -177.8 79.25 -187.25 79.25 -187.25 70.3 -188.85 70.3 -188.85 56.75 -187.25 56.75 -187.25 47.8 -177.8 47.8 -177.8 18.5 -203.05 18.5 -203.05 12.45 -204.75 12.45 -204.75 -7.1 -203.05 -7.1 -203.05 -13.45 -148.05 -13.45 -148.05 -11.6 -31.95 -11.6 -31.95 -6.55 -28.45 -6.55 -28.45 -30.6 -26.0 -30.6 -26.0 -31.95 -28.5 -31.95 -28.5 -33.1 -16.35 -33.1 -16.35 -36.35 -21.6 -36.35 -21.6 -78.75 -31.35 -78.75 -31.35 -87.85 -32.85 -87.85 -32.85 -101.55 -31.35 -101.55 -31.35 -110.75 -21.6 -110.75 -21.6 -130.6 -31.25 -130.6 -31.25 -139.75 -32.8 -139.75 -32.8 -153.45 -31.25 -153.45 -31.25 -162.6 -21.6 -162.6 -21.6 -182.45 -31.1 -182.45 -31.1 -191.6 -32.6 -191.6 -32.6 -205.3 -31.1 -205.3 -31.1 -214.5 -21.6 -214.5 -21.6 -224.3 -47.25 -224.3 -47.25 -229.7 -48.75 -229.7 -48.75 -249.5 -47.45 -249.5 -47.45 -255.6 8.2 -255.6 8.2 -253.75 31.45 -253.75 31.45 -262.95 40.65 -262.95 40.65 -264.5 54.25 -264.5 54.25 -262.95 63.55 -262.95" fill="#969696" fill-rule="evenodd" stroke="none"/>
    <path d="M132.8 156.3 L114.75 156.3 114.75 147.25 132.8 147.25 132.8 156.3" fill="#707070" fill-rule="evenodd" stroke="none"/>
    <path d="M134.45 137.55 L114.55 137.55 114.55 128.7 134.45 128.7 134.45 137.55" fill="#707070" fill-rule="evenodd" stroke="none"/>
    <path d="M151.55 147.75 L142.9 154.15 137.45 146.65 146.15 140.25 151.55 147.75" fill="#707070" fill-rule="evenodd" stroke="none"/>
    <path d="M96.4 145.3 L103.45 139.3 110.4 147.55 103.4 153.55 96.4 145.3" fill="#707070" fill-rule="evenodd" stroke="none"/>
    <path d="M114.3 103.5 L104.2 103.5 104.2 93.75 114.3 93.75 114.3 103.5" fill="#707070" fill-rule="evenodd" stroke="none"/>
    <path d="M124.8 103.5 L114.7 103.5 114.7 94.9 124.8 94.9 124.8 103.5" fill="#707070" fill-rule="evenodd" stroke="none"/>
    <path d="M135.25 103.5 L125.2 103.5 125.2 94.9 135.25 94.9 135.25 103.5" fill="#707070" fill-rule="evenodd" stroke="none"/>
    <path d="M144.15 103.5 L135.75 103.5 135.75 97.05 144.15 97.05 144.15 103.5" fill="#707070" fill-rule="evenodd" stroke="none"/>
    <path d="M157.45 155.4 L155.2 155.65 153.4 154.25 153.15 151.95 154.55 150.2 156.8 149.9 158.65 151.3 158.9 153.55 157.45 155.4" fill="#707070" fill-rule="evenodd" stroke="none"/>
    <path d="M95.55 155.4 L93.3 155.65 91.5 154.25 91.25 151.95 92.7 150.2 94.95 149.9 96.75 151.3 97.0 153.55 95.55 155.4" fill="#707070" fill-rule="evenodd" stroke="none"/>
    <path d="M124.95 24.75 L122.65 24.75 121.0 23.2 121.0 20.9 122.65 19.25 124.95 19.25 126.55 20.9 126.55 23.15 124.95 24.75" fill="#707070" fill-rule="evenodd" stroke="none"/>
    <path d="M157.7 101.5 L155.4 101.5 153.75 99.95 153.75 97.65 155.4 96.0 157.7 96.0 159.3 97.65 159.3 99.9 157.7 101.5" fill="#707070" fill-rule="evenodd" stroke="none"/>
    <path d="M94.95 101.5 L92.65 101.5 91.0 99.95 91.0 97.65 92.65 96.0 94.95 96.0 96.55 97.65 96.55 99.9 94.95 101.5" fill="#707070" fill-rule="evenodd" stroke="none"/>
    <path d="M124.9 -23.95 L122.55 -23.95 121.0 -25.55 121.0 -27.85 122.55 -29.5 124.9 -29.5 126.5 -27.85 126.5 -25.55 124.9 -23.95" fill="#707070" fill-rule="evenodd" stroke="none"/>
    <path d="M72.7 -36.8 L70.45 -36.8 68.8 -38.35 68.8 -40.7 70.45 -42.3 72.7 -42.3 74.3 -40.7 74.3 -38.45 72.7 -36.8" fill="#707070" fill-rule="evenodd" stroke="none"/>
    <path d="M34.9 -36.6 L32.55 -36.6 31.0 -38.25 31.0 -40.5 32.55 -42.1 34.9 -42.1 36.5 -40.5 36.5 -38.25 34.9 -36.6" fill="#707070" fill-rule="evenodd" stroke="none"/>
    <path d="M-23.6 -18.95 L-25.95 -18.95 -27.5 -20.55 -27.5 -22.85 -25.95 -24.5 -23.6 -24.5 -22.0 -22.85 -22.0 -20.55 -23.6 -18.95" fill="#707070" fill-rule="evenodd" stroke="none"/>
    <path d="M-20.95 28.4 L-23.25 28.4 -24.85 26.75 -24.85 24.5 -23.25 22.9 -20.95 22.9 -19.35 24.5 -19.35 26.75 -20.95 28.4" fill="#707070" fill-rule="evenodd" stroke="none"/>
    <path d="M12.25 -6.55 L13.0 -7.45 13.95 -8.0 14.95 -8.3 37.95 -8.3 38.95 -8.0 39.9 -7.45 40.65 -6.55 41.15 -5.55 41.45 -4.45 41.55 -3.45 41.55 -1.1 41.45 -0.2 41.15 0.95 40.65 2.0 39.9 2.8 38.95 3.45 37.95 3.75 14.95 3.75 13.95 3.45 13.0 2.8 12.25 2.0 11.75 0.95 11.45 -0.2 11.3 -1.1 11.3 -3.45 11.45 -4.45 11.75 -5.55 12.25 -6.55" fill="#707070" fill-rule="evenodd" stroke="none"/>
    <path d="M112.5 -7.25 L113.25 -6.45 113.75 -5.35 114.15 -3.3 114.15 -1.0 114.0 -0.05 113.75 1.05 113.25 2.15 112.5 2.95 111.65 3.55 110.65 3.8 98.55 3.8 97.55 3.55 96.7 2.95 95.95 2.15 95.45 1.05 95.05 -0.6 95.05 -3.7 95.45 -5.35 95.95 -6.45 96.7 -7.25 97.55 -7.85 98.55 -8.1 110.65 -8.1 111.65 -7.85 112.5 -7.25" fill="#707070" fill-rule="evenodd" stroke="none"/>
    <path d="M133.95 -6.45 L134.7 -7.25 135.55 -7.85 136.55 -8.1 148.65 -8.1 149.65 -7.85 150.5 -7.25 151.25 -6.45 151.75 -5.35 152.15 -3.3 152.15 -1.0 152.0 -0.05 151.75 1.05 151.25 2.15 150.5 2.95 149.65 3.55 148.65 3.8 136.55 3.8 135.55 3.55 134.7 2.95 133.95 2.15 133.45 1.05 133.05 -0.6 133.05 -3.7 133.45 -5.35 133.95 -6.45" fill="#707070" fill-rule="evenodd" stroke="none"/>
    <path d="M25.8 157.2 L18.0 157.2 18.0 147.4 25.8 147.4 25.8 157.2" fill="#707070" fill-rule="evenodd" stroke="none"/>
    <path d="M35.25 157.2 L27.4 157.2 27.4 147.4 35.25 147.4 35.25 157.2" fill="#707070" fill-rule="evenodd" stroke="none"/>
    <path d="M42.4 149.05 L42.4 139.25 57.4 139.25 57.4 134.05 84.0 134.05 84.0 149.05 42.4 149.05" fill="#707070" fill-rule="evenodd" stroke="none"/>
    <path d="M-1.55 113.75 L-1.55 94.9 22.5 94.9 22.5 109.7 12.75 109.7 12.75 113.75 -1.55 113.75" fill="#707070" fill-rule="evenodd" stroke="none"/>
    <path d="M-75.95 152.5 L-6.0 152.5 -6.0 159.0 -75.95 159.0 -75.95 152.5" fill="#707070" fill-rule="evenodd" stroke="none"/>
    <path d="M-84.95 158.4 L-84.95 135.25 -78.5 135.25 -78.5 158.4 -84.95 158.4" fill="#707070" fill-rule="evenodd" stroke="none"/>
    <path d="M-132.55 120.7 L-126.2 120.7 -126.2 135.25 -132.55 135.25 -132.55 120.7" fill="#707070" fill-rule="evenodd" stroke="none"/>
    <path d="M-125.55 135.9 L-125.55 131.05 -110.1 131.05 -110.1 135.9 -125.55 135.9" fill="#707070" fill-rule="evenodd" stroke="none"/>
    <path d="M-109.55 134.65 L-108.8 129.2 -98.75 130.65 -99.55 136.05 -109.55 134.65" fill="#707070" fill-rule="evenodd" stroke="none"/>
    <path d="M-81.2 133.4 L-84.95 133.4 -84.95 129.25 -81.2 129.25 -81.2 133.4" fill="#707070" fill-rule="evenodd" stroke="none"/>
    <path d="M-32.6 132.75 L-57.5 132.75 -57.5 117.5 -32.6 117.5 -32.6 132.75" fill="#707070" fill-rule="evenodd" stroke="none"/>
    <path d="M-5.45 103.05 L-52.25 103.05 -52.25 96.55 -5.45 96.55 -5.45 103.05" fill="#707070" fill-rule="evenodd" stroke="none"/>
    <path d="M-31.6 99.7 L-36.25 99.7 -36.25 71.55 -31.6 71.55 -31.6 99.7" fill="#707070" fill-rule="evenodd" stroke="none"/>
    <path d="M-60.95 78.4 L-85.1 78.4 -85.1 72.2 -60.95 72.2 -60.95 78.4" fill="#707070" fill-rule="evenodd" stroke="none"/>
    <path d="M-110.45 77.2 L-86.45 77.2 -86.45 92.4 -95.95 92.4 -96.1 87.4 -110.45 87.4 -110.45 77.2" fill="#707070" fill-rule="evenodd" stroke="none"/>
    <path d="M117.65 34.75 L117.65 60.9 91.4 60.9 91.4 34.75 117.65 34.75" fill="#ffffff" fill-rule="evenodd" stroke="none"/>
    <path d="M129.5 34.75 L155.75 34.75 155.75 60.9 129.5 60.9 129.5 34.75" fill="#ffffff" fill-rule="evenodd" stroke="none"/>
    <path d="M-2.3 90.25 L-2.3 69.75 4.15 69.75 4.15 90.25 -2.3 90.25" fill="#ffffff" fill-rule="evenodd" stroke="none"/>
    <path d="M6.65 90.25 L6.65 69.75 13.05 69.75 13.05 90.25 6.65 90.25" fill="#ffffff" fill-rule="evenodd" stroke="none"/>
    <path d="M15.5 90.25 L15.5 69.75 22.0 69.75 22.0 90.25 15.5 90.25" fill="#ffffff" fill-rule="evenodd" stroke="none"/>
    <path d="M24.45 90.25 L24.45 69.75 30.95 69.75 30.95 90.25 24.45 90.25" fill="#ffffff" fill-rule="evenodd" stroke="none"/>
    <path d="M-2.3 55.7 L-2.3 35.25 4.15 35.25 4.15 55.7 -2.3 55.7" fill="#ffffff" fill-rule="evenodd" stroke="none"/>
    <path d="M13.05 35.25 L13.05 55.7 6.65 55.7 6.65 35.25 13.05 35.25" fill="#ffffff" fill-rule="evenodd" stroke="none"/>
    <path d="M15.5 55.7 L15.5 35.25 22.0 35.25 22.0 55.7 15.5 55.7" fill="#ffffff" fill-rule="evenodd" stroke="none"/>
    <path d="M24.45 55.7 L24.45 35.25 30.95 35.25 30.95 55.7 24.45 55.7" fill="#ffffff" fill-rule="evenodd" stroke="none"/>
    <path d="M209.3 96.55 L209.3 84.55 204.55 84.55 204.55 70.4 209.3 70.4 209.3 51.05 262.95 51.05 262.95 65.4 264.45 65.4 264.45 79.55 262.95 79.55 262.95 96.55 209.3 96.55" fill="#969696" fill-rule="evenodd" stroke="none"/>
    <path d="M244.45 -62.45 L244.45 -64.85 259.15 -64.85 259.15 -62.45 263.15 -62.45 263.15 48.8 209.8 48.8 209.8 -35.75 202.2 -35.75 201.15 -55.2 209.8 -55.2 209.8 -62.45 244.45 -62.45" fill="#969696" fill-rule="evenodd" stroke="none"/>
    <path d="M226.05 44.45 L226.05 55.55 211.95 55.55 211.95 44.45 226.05 44.45" fill="#969696" fill-rule="evenodd" stroke="none"/>
    <path d="M235.15 -3.45 L260.15 -3.45 260.15 3.05 235.15 3.05 235.15 -3.45" fill="#ffffff" fill-rule="evenodd" stroke="none"/>
    <path d="M260.15 -5.85 L235.15 -5.85 235.15 -12.3 260.15 -12.3 260.15 -5.85" fill="#ffffff" fill-rule="evenodd" stroke="none"/>
    <path d="M260.15 -14.75 L235.15 -14.75 235.15 -21.25 260.15 -21.25 260.15 -14.75" fill="#ffffff" fill-rule="evenodd" stroke="none"/>
    <path d="M260.15 -23.7 L235.15 -23.7 235.15 -30.2 260.15 -30.2 260.15 -23.7" fill="#ffffff" fill-rule="evenodd" stroke="none"/>
    <path d="M260.15 20.8 L235.15 20.8 235.15 14.3 260.15 14.3 260.15 20.8" fill="#ffffff" fill-rule="evenodd" stroke="none"/>
    <path d="M260.15 11.9 L235.15 11.9 235.15 5.45 260.15 5.45 260.15 11.9" fill="#ffffff" fill-rule="evenodd" stroke="none"/>
  </g>
</svg>
