<?xml version="1.0" encoding="UTF-8" standalone="no"?>
<svg xmlns:ffdec="https://www.free-decompiler.com/flash" xmlns:xlink="http://www.w3.org/1999/xlink" ffdec:objectType="shape" height="1000.0px" width="954.7px" xmlns="http://www.w3.org/2000/svg">
  <g transform="matrix(1.0, 0.0, 0.0, 1.0, 454.7, 500.0)">
    <path d="M-52.2 -383.7 L-52.2 -500.0 500.0 -500.0 500.0 500.0 -454.7 500.0 -454.7 96.45 -376.95 96.45 -376.95 -383.7 -52.2 -383.7" fill="#434343" fill-rule="evenodd" stroke="none"/>
    <path d="M-68.05 -309.0 L-46.05 -309.0 -46.05 -306.5 -42.3 -304.7 -37.95 -301.5 -34.2 -297.55 -31.25 -293.05 -29.95 -290.0 -26.1 -290.0 -26.1 -267.75 -29.75 -267.75 -30.05 -266.85 -32.6 -262.05 -36.0 -257.8 -40.05 -254.25 -44.75 -251.5 -46.35 -250.85 -46.35 -248.2 -41.85 -248.2 -41.85 -217.5 -46.35 -217.5 -46.35 -215.2 -40.6 -215.2 -40.6 -209.45 -33.25 -209.45 -33.25 -216.75 -8.5 -216.75 -8.5 -221.75 -15.75 -221.75 -15.75 -251.25 -4.35 -251.25 -4.35 -252.7 -8.45 -252.7 -8.45 -312.35 30.05 -312.35 30.05 -252.7 9.65 -252.7 9.65 -251.25 35.7 -251.25 35.7 -252.7 31.75 -252.7 31.75 -312.35 70.25 -312.35 70.25 -252.7 49.7 -252.7 49.7 -251.25 83.2 -251.25 83.2 -246.05 87.55 -246.05 87.55 -224.25 83.2 -224.25 83.2 -221.55 72.55 -221.55 72.55 -223.5 60.95 -223.5 60.95 -216.85 70.95 -216.85 70.95 -215.5 72.8 -215.5 72.8 -219.5 132.55 -219.5 132.55 -181.0 72.8 -181.0 72.8 -201.5 70.95 -201.5 70.95 -175.35 72.8 -175.35 72.8 -179.35 132.55 -179.35 132.55 -140.85 72.8 -140.85 72.8 -161.35 70.95 -161.35 70.95 -142.75 60.95 -142.75 60.95 -136.5 70.65 -136.5 70.65 -135.3 72.8 -135.3 72.8 -139.3 132.55 -139.3 132.55 -100.8 72.8 -100.8 72.8 -121.3 70.65 -121.3 70.65 -95.25 72.8 -95.25 72.8 -99.25 132.55 -99.25 132.55 -60.75 72.8 -60.75 72.8 -81.25 70.65 -81.25 70.65 -62.35 60.95 -62.35 60.95 -56.75 70.25 -56.75 70.25 -11.8 54.9 -11.8 54.9 -9.5 73.95 -9.5 73.95 -55.05 157.05 -55.05 157.05 -9.6 162.45 -9.6 162.45 4.75 163.95 4.75 163.95 19.0 162.45 19.0 162.45 25.2 154.55 25.2 154.55 41.95 139.7 41.95 139.7 44.95 122.75 44.95 122.75 41.95 101.65 41.95 101.65 44.95 84.65 44.95 84.65 41.95 73.95 41.95 73.95 25.0 65.0 25.0 65.0 31.25 53.75 31.25 53.75 32.5 55.25 32.5 55.25 35.25 58.15 35.25 58.15 90.25 55.3 90.25 55.3 91.75 53.8 91.75 53.8 94.9 40.25 94.9 40.25 91.75 38.65 91.75 38.65 90.25 -22.45 90.25 -22.45 35.25 38.7 35.25 38.7 32.5 40.0 32.5 40.0 31.25 14.0 31.25 14.0 -9.5 33.4 -9.5 33.4 -11.8 26.3 -11.8 26.3 -24.5 24.45 -24.5 24.45 -20.5 -8.8 -20.5 -8.8 -59.0 24.45 -59.0 24.45 -38.5 26.3 -38.5 26.3 -64.55 24.45 -64.55 24.45 -60.55 -35.55 -60.55 -35.55 -99.05 24.45 -99.05 24.45 -78.55 26.3 -78.55 26.3 -104.6 24.45 -104.6 24.45 -100.6 -35.55 -100.6 -35.55 -139.1 24.45 -139.1 24.45 -118.6 26.3 -118.6 26.3 -144.75 24.45 -144.75 24.45 -140.75 -35.55 -140.75 -35.55 -179.25 24.45 -179.25 24.45 -158.75 26.3 -158.75 26.3 -181.0 -33.25 -181.0 -33.25 -188.75 -40.6 -188.75 -40.6 -146.75 -68.35 -146.75 -68.35 -144.75 -117.0 -144.75 -117.0 -177.25 -122.75 -177.25 -122.75 -182.75 -125.1 -182.75 -125.1 -144.5 -128.1 -144.5 -128.1 -145.8 -130.25 -145.8 -130.25 -142.5 -128.25 -142.5 -128.25 -143.5 -102.2 -143.5 -102.2 -83.3 -99.1 -83.3 -99.1 -80.5 -97.95 -80.5 -97.95 -65.5 -99.1 -65.5 -99.1 -46.75 -103.1 -46.75 -103.1 -33.0 -106.0 -33.85 -107.55 -31.8 -123.1 -37.5 -132.0 -38.5 -148.75 -38.5 -158.5 -37.2 -167.1 -34.7 -173.45 -32.0 -174.85 -34.35 -178.1 -33.75 -178.1 -46.75 -182.1 -46.75 -182.1 -55.3 -183.1 -55.3 -183.1 -57.7 -185.0 -57.7 -185.0 -51.55 -210.85 -51.55 -210.85 -77.25 -185.0 -77.25 -185.0 -71.7 -183.1 -71.7 -183.1 -73.5 -182.1 -73.5 -182.1 -83.3 -178.85 -83.3 -178.85 -91.75 -186.35 -91.75 -186.35 -133.5 -178.1 -133.5 -178.1 -143.5 -153.35 -143.5 -153.35 -142.5 -151.1 -142.5 -151.1 -145.8 -153.25 -145.8 -153.25 -144.5 -156.25 -144.5 -156.25 -211.7 -153.25 -211.7 -153.25 -210.2 -151.1 -210.2 -151.1 -212.5 -130.25 -212.5 -130.25 -210.2 -128.1 -210.2 -128.1 -211.7 -125.1 -211.7 -125.1 -203.45 -122.75 -203.45 -122.75 -209.2 -74.0 -209.2 -74.0 -215.2 -67.75 -215.2 -67.75 -217.5 -72.75 -217.5 -72.75 -248.2 -67.75 -248.2 -67.75 -250.3 Q-69.35 -250.85 -71.0 -251.5 L-75.6 -254.25 -79.7 -257.8 -83.05 -262.05 -85.6 -266.85 -85.95 -267.75 -87.6 -267.75 -87.6 -264.25 -144.1 -264.25 -144.1 -269.0 -145.25 -269.0 -145.25 -284.7 -144.1 -284.7 -144.05 -341.0 -123.35 -343.75 -87.8 -341.5 -87.6 -290.0 -85.8 -290.0 -84.5 -293.05 -81.5 -297.55 -77.75 -301.5 -73.35 -304.7 Q-70.95 -305.85 -68.5 -307.05 L-68.05 -307.2 -68.05 -309.0" fill="#969696" fill-rule="evenodd" stroke="none"/>
    <path d="M-157.1 -62.5 L-157.1 -72.75 -124.6 -72.75 -124.6 -62.5 -157.1 -62.5" fill="#707070" fill-rule="evenodd" stroke="none"/>
    <path d="M-102.2 -133.75 L-90.35 -133.75 -90.35 -104.25 -98.6 -104.25 -98.6 -91.25 -102.2 -91.25 -102.2 -133.75" fill="#707070" fill-rule="evenodd" stroke="none"/>
    <path d="M-170.1 -123.0 L-158.45 -123.0 -158.45 -102.7 -170.1 -102.7 -170.1 -123.0" fill="#707070" fill-rule="evenodd" stroke="none"/>
    <path d="M-184.75 -127.55 L-175.75 -127.55 -175.75 -98.25 -184.75 -98.25 -184.75 -105.05 -186.45 -105.05 -186.45 -120.75 -184.75 -120.75 -184.75 -127.55" fill="#707070" fill-rule="evenodd" stroke="none"/>
    <path d="M-85.95 -181.7 L-85.95 -154.5 -96.1 -154.5 -96.1 -181.7 -85.95 -181.7" fill="#707070" fill-rule="evenodd" stroke="none"/>
    <path d="M-157.45 -142.2 L-157.45 -137.0 -172.75 -137.0 -172.75 -142.2 -157.45 -142.2" fill="#707070" fill-rule="evenodd" stroke="none"/>
    <path d="M-107.55 -31.8 L-123.1 -37.5 -132.0 -38.5 -148.75 -38.5 -158.5 -37.2 -167.1 -34.7 -173.45 -32.0 -174.85 -34.35 -173.55 -35.3 Q-171.2 -36.35 -168.85 -37.5 L-158.6 -40.5 -148.85 -41.85 -140.75 -42.3 -123.25 -40.8 -114.1 -38.0 -107.7 -35.1 -106.0 -33.85 -107.55 -31.8" fill="#707070" fill-rule="evenodd" stroke="none"/>
    <path d="M151.8 -14.3 L152.65 -14.8 153.55 -15.0 154.5 -14.8 155.3 -14.3 155.9 -13.55 156.15 -12.6 156.05 -11.7 155.65 -10.8 154.95 -10.2 154.05 -9.8 153.05 -9.8 152.2 -10.2 151.5 -10.8 151.05 -11.7 151.0 -12.6 151.25 -13.55 151.8 -14.3" fill="#707070" fill-rule="evenodd" stroke="none"/>
    <path d="M76.05 -13.85 L76.9 -14.35 77.8 -14.55 78.75 -14.35 79.55 -13.85 80.15 -13.1 80.4 -12.2 80.3 -11.25 79.9 -10.35 79.2 -9.75 78.3 -9.35 77.3 -9.35 76.45 -9.75 75.75 -10.35 75.3 -11.25 75.25 -12.2 75.5 -13.1 76.05 -13.85" fill="#707070" fill-rule="evenodd" stroke="none"/>
    <path d="M22.65 21.95 L23.45 22.45 24.0 23.2 24.25 24.15 24.2 25.05 23.75 25.9 23.05 26.55 22.2 26.9 21.2 26.9 20.3 26.55 19.65 25.9 19.2 25.05 19.15 24.15 19.4 23.2 19.95 22.45 20.75 21.95 21.7 21.75 22.65 21.95" fill="#707070" fill-rule="evenodd" stroke="none"/>
    <path d="M122.5 -34.0 L122.5 -22.25 102.5 -22.25 102.5 -34.0 122.5 -34.0" fill="#707070" fill-rule="evenodd" stroke="none"/>
    <path d="M126.15 -55.05 L126.15 -43.75 97.4 -43.75 97.4 -55.05 126.15 -55.05" fill="#707070" fill-rule="evenodd" stroke="none"/>
    <path d="M151.25 -26.1 L156.75 -26.1 156.75 -19.35 151.25 -19.35 151.25 -26.1" fill="#707070" fill-rule="evenodd" stroke="none"/>
    <path d="M156.55 -43.5 L156.55 -33.75 147.8 -33.75 147.8 -43.5 156.55 -43.5" fill="#707070" fill-rule="evenodd" stroke="none"/>
    <path d="M84.55 -53.25 L84.55 -45.85 76.9 -45.85 76.9 -53.25 84.55 -53.25" fill="#707070" fill-rule="evenodd" stroke="none"/>
    <path d="M75.7 -14.75 L75.7 -43.75 85.05 -43.75 85.05 -14.75 75.7 -14.75" fill="#707070" fill-rule="evenodd" stroke="none"/>
    <path d="M103.9 -60.75 L103.9 -81.75 113.05 -81.75 113.05 -60.75 103.9 -60.75" fill="#707070" fill-rule="evenodd" stroke="none"/>
    <path d="M104.4 -100.8 L104.4 -121.75 113.55 -121.75 113.55 -100.8 104.4 -100.8" fill="#707070" fill-rule="evenodd" stroke="none"/>
    <path d="M103.9 -140.85 L103.9 -162.0 113.05 -162.0 113.05 -140.85 103.9 -140.85" fill="#707070" fill-rule="evenodd" stroke="none"/>
    <path d="M104.15 -181.0 L104.15 -202.25 113.3 -202.25 113.3 -181.0 104.15 -181.0" fill="#707070" fill-rule="evenodd" stroke="none"/>
    <path d="M70.0 -292.85 L70.0 -283.75 49.3 -283.75 49.3 -292.85 70.0 -292.85" fill="#707070" fill-rule="evenodd" stroke="none"/>
    <path d="M30.0 -292.85 L30.0 -283.75 9.3 -283.75 9.3 -292.85 30.0 -292.85" fill="#707070" fill-rule="evenodd" stroke="none"/>
    <path d="M-16.0 -158.05 L-16.0 -179.25 -6.85 -179.25 -6.85 -158.05 -16.0 -158.05" fill="#707070" fill-rule="evenodd" stroke="none"/>
    <path d="M-16.0 -139.05 L-6.85 -139.05 -6.85 -118.35 -16.0 -118.35 -16.0 -139.05" fill="#707070" fill-rule="evenodd" stroke="none"/>
    <path d="M-16.0 -78.75 L-16.0 -99.05 -6.85 -99.05 -6.85 -78.75 -16.0 -78.75" fill="#707070" fill-rule="evenodd" stroke="none"/>
    <path d="M13.15 -58.35 L13.15 -37.7 3.95 -37.7 3.95 -58.35 13.15 -58.35" fill="#707070" fill-rule="evenodd" stroke="none"/>
    <path d="M106.65 44.95 L106.65 77.45 79.65 77.45 79.65 44.95 106.65 44.95" fill="#ffffff" fill-rule="evenodd" stroke="none"/>
    <path d="M144.9 44.95 L144.9 77.45 117.55 77.45 117.55 44.95 144.9 44.95" fill="#ffffff" fill-rule="evenodd" stroke="none"/>
    <path d="M-87.6 -349.0 L-87.6 -323.25 -107.85 -323.25 -107.85 -328.5 -123.1 -328.5 -123.1 -323.25 -144.1 -323.25 -144.1 -349.0 -87.6 -349.0" fill="#ffffff" fill-rule="evenodd" stroke="none"/>
    <path d="M-123.1 -293.85 L-123.1 -287.45 -144.1 -287.45 -144.1 -293.85 -123.1 -293.85" fill="#ffffff" fill-rule="evenodd" stroke="none"/>
    <path d="M-123.1 -302.8 L-123.1 -296.3 -144.1 -296.3 -144.1 -302.8 -123.1 -302.8" fill="#ffffff" fill-rule="evenodd" stroke="none"/>
    <path d="M-144.1 -311.75 L-123.1 -311.75 -123.1 -305.25 -144.1 -305.25 -144.1 -311.75" fill="#ffffff" fill-rule="evenodd" stroke="none"/>
    <path d="M-144.1 -314.2 L-144.1 -320.6 -123.1 -320.6 -123.1 -314.2 -144.1 -314.2" fill="#ffffff" fill-rule="evenodd" stroke="none"/>
    <path d="M-87.6 -293.85 L-87.6 -287.45 -107.85 -287.45 -107.85 -293.85 -87.6 -293.85" fill="#ffffff" fill-rule="evenodd" stroke="none"/>
    <path d="M-87.6 -302.8 L-87.6 -296.3 -107.85 -296.3 -107.85 -302.8 -87.6 -302.8" fill="#ffffff" fill-rule="evenodd" stroke="none"/>
    <path d="M-87.6 -311.75 L-87.6 -305.25 -107.85 -305.25 -107.85 -311.75 -87.6 -311.75" fill="#ffffff" fill-rule="evenodd" stroke="none"/>
    <path d="M-87.6 -320.6 L-87.6 -314.2 -107.85 -314.2 -107.85 -320.6 -87.6 -320.6" fill="#ffffff" fill-rule="evenodd" stroke="none"/>
    <path d="M-2.3 90.25 L-2.3 69.75 4.15 69.75 4.15 90.25 -2.3 90.25" fill="#ffffff" fill-rule="evenodd" stroke="none"/>
    <path d="M6.65 90.25 L6.65 69.75 13.05 69.75 13.05 90.25 6.65 90.25" fill="#ffffff" fill-rule="evenodd" stroke="none"/>
    <path d="M15.5 90.25 L15.5 69.75 22.0 69.75 22.0 90.25 15.5 90.25" fill="#ffffff" fill-rule="evenodd" stroke="none"/>
    <path d="M24.45 90.25 L24.45 69.75 30.95 69.75 30.95 90.25 24.45 90.25" fill="#ffffff" fill-rule="evenodd" stroke="none"/>
    <path d="M-2.3 55.7 L-2.3 35.25 4.15 35.25 4.15 55.7 -2.3 55.7" fill="#ffffff" fill-rule="evenodd" stroke="none"/>
    <path d="M13.05 35.25 L13.05 55.7 6.65 55.7 6.65 35.25 13.05 35.25" fill="#ffffff" fill-rule="evenodd" stroke="none"/>
    <path d="M15.5 55.7 L15.5 35.25 22.0 35.25 22.0 55.7 15.5 55.7" fill="#ffffff" fill-rule="evenodd" stroke="none"/>
    <path d="M24.45 55.7 L24.45 35.25 30.95 35.25 30.95 55.7 24.45 55.7" fill="#ffffff" fill-rule="evenodd" stroke="none"/>
    <path d="M-43.45 -309.0 L-71.7 -309.0 -71.7 -337.5 -43.45 -337.5 -43.45 -309.0" fill="#ffffff" fill-rule="evenodd" stroke="none"/>
  </g>
</svg>
