<?xml version="1.0" encoding="UTF-8" standalone="no"?>
<svg xmlns:ffdec="https://www.free-decompiler.com/flash" xmlns:xlink="http://www.w3.org/1999/xlink" ffdec:objectType="shape" height="623.95px" width="460.65px" xmlns="http://www.w3.org/2000/svg">
  <g transform="matrix(1.0, 0.0, 0.0, 1.0, 251.0, 167.95)">
    <path d="M188.9 -76.85 L200.3 -63.7 203.65 -56.35 209.65 -56.35 209.65 296.3 203.65 296.3 200.3 303.65 188.9 316.8 173.0 337.0 159.85 355.0 163.5 360.5 151.0 378.0 131.5 397.0 118.0 408.0 68.0 442.45 68.0 455.0 -251.0 456.0 -251.0 209.0 -238.4 209.45 -238.4 -167.95 46.55 -167.95 46.55 -162.0 54.3 -162.0 65.05 -159.35 86.75 -150.15 108.7 -138.7 130.45 -125.3 151.4 -110.25 171.05 -94.0 188.9 -76.85" fill="#434343" fill-rule="evenodd" stroke="none"/>
    <path d="M146.15 -102.9 L165.55 -86.8 183.2 -69.9 194.45 -56.9 195.1 -56.5 201.2 -56.5 201.2 64.5 200.55 64.5 174.9 75.05 187.15 109.2 201.2 103.75 201.2 211.5 195.6 211.5 195.5 214.5 192.0 227.5 184.5 259.0 178.5 274.0 169.0 295.5 159.0 315.0 146.5 334.5 138.0 345.5 156.0 360.0 145.5 373.0 130.0 388.0 110.0 404.5 90.5 419.0 66.0 433.5 45.0 442.5 34.5 421.0 3.0 432.0 6.0 442.0 -101.5 443.0 -102.05 439.6 -105.0 440.5 -135.5 434.5 -166.5 424.5 -200.5 408.0 -230.0 389.0 -231.85 384.5 -243.0 384.5 -243.0 226.5 -232.0 226.5 -232.0 212.0 -104.1 212.0 -104.1 -162.0 20.2 -162.0 37.5 -159.0 49.5 -156.0 82.35 -142.25 104.05 -130.95 125.5 -117.75 146.15 -102.9" fill="#969696" fill-rule="evenodd" stroke="none"/>
    <path d="M27.4 135.9 L32.45 150.1 35.45 164.9 36.3 179.95 35.0 194.95 31.55 209.6 26.1 223.65 18.65 236.8 9.45 248.7 -1.35 259.2 -13.55 268.05 -26.9 275.1 -41.1 280.15 -55.85 283.15 -70.9 284.0 -85.9 282.7 -100.6 279.25 -114.65 273.8 -127.75 266.35 -139.7 257.15 -150.2 246.35 -159.05 234.15 -166.05 220.8 -171.15 206.6 -174.1 191.85 -174.95 176.8 -173.65 161.75 -170.25 147.1 -164.75 133.05 -157.35 119.95 -148.15 108.0 -137.3 97.5 -125.1 88.65 -111.8 81.65 -97.6 76.55 -82.8 73.6 -67.75 72.75 -52.75 74.05 -38.05 77.45 -24.05 82.95 -10.9 90.35 1.0 99.55 11.5 110.35 20.35 122.55 27.4 135.9" fill="#707070" fill-rule="evenodd" stroke="none"/>
    <path d="M-105.7 -78.0 L-101.7 -78.0 -101.7 82.3 -105.7 82.3 -105.7 -78.0" fill="#707070" fill-rule="evenodd" stroke="none"/>
    <path d="M-162.35 209.65 L-162.35 213.65 -232.0 213.65 -232.0 209.65 -162.35 209.65" fill="#707070" fill-rule="evenodd" stroke="none"/>
    <path d="M7.0 108.0 L15.0 118.0 -4.7 132.65 -10.0 125.3 7.0 108.0" fill="#434343" fill-rule="evenodd" stroke="none"/>
    <path d="M-73.85 256.65 L-64.8 257.4 -62.8 281.6 -75.6 281.1 -73.85 256.65" fill="#434343" fill-rule="evenodd" stroke="none"/>
    <path d="M-141.05 209.4 L-163.45 218.75 -166.95 206.45 -143.15 200.55 -141.05 209.4" fill="#434343" fill-rule="evenodd" stroke="none"/>
    <path d="M-98.85 105.45 L-109.3 83.5 -97.15 79.45 -90.15 102.95 -98.85 105.45" fill="#434343" fill-rule="evenodd" stroke="none"/>
    <path d="M-104.1 -162.0 L-104.1 -122.5 -180.0 -122.5 -180.0 -117.5 -104.1 -117.5 -104.1 -78.0 -221.25 -78.0 -221.25 -162.0 -104.1 -162.0" fill="#ffffff" fill-rule="evenodd" stroke="none"/>
  </g>
</svg>
