<?xml version="1.0" encoding="UTF-8" standalone="no"?>
<svg xmlns:ffdec="https://www.free-decompiler.com/flash" xmlns:xlink="http://www.w3.org/1999/xlink" ffdec:objectType="shape" height="50.65px" width="38.5px" xmlns="http://www.w3.org/2000/svg">
  <g transform="matrix(1.0, 0.0, 0.0, 1.0, 19.25, 48.65)">
    <path d="M14.15 -43.45 L19.25 -43.45 19.25 2.0 -19.25 2.0 -19.25 -43.45 -14.15 -43.45 -14.15 -46.85 -6.45 -46.85 -6.45 -48.65 6.45 -48.65 6.45 -46.85 14.15 -46.85 14.15 -43.45" fill="#ffffff" fill-rule="evenodd" stroke="none"/>
    <path d="M4.45 -46.65 L4.45 -41.35 -4.45 -41.35 -4.45 -46.65 4.45 -46.65" fill="#52a872" fill-rule="evenodd" stroke="none"/>
    <path d="M12.15 -44.85 L12.15 -27.25 -12.15 -27.25 -12.15 -44.85 12.15 -44.85" fill="#52a872" fill-rule="evenodd" stroke="none"/>
    <path d="M17.25 -41.45 L17.25 0.0 -17.25 0.0 -17.25 -41.45 17.25 -41.45" fill="#6fca90" fill-rule="evenodd" stroke="none"/>
    <path d="M-3.2 -35.9 L3.2 -35.9 3.2 -29.5 -3.2 -29.5 -3.2 -35.9" fill="#ffffff" fill-rule="evenodd" stroke="none"/>
    <path d="M-3.2 -20.55 L-3.2 -26.95 3.2 -26.95 3.2 -20.55 -3.2 -20.55" fill="#ffffff" fill-rule="evenodd" stroke="none"/>
    <path d="M-3.2 -11.65 L-3.2 -18.0 3.2 -18.0 3.2 -11.65 -3.2 -11.65" fill="#ffffff" fill-rule="evenodd" stroke="none"/>
    <path d="M-12.15 -29.5 L-12.15 -35.9 -5.75 -35.9 -5.75 -29.5 -12.15 -29.5" fill="#ffffff" fill-rule="evenodd" stroke="none"/>
    <path d="M-12.15 -20.55 L-12.15 -26.95 -5.75 -26.95 -5.75 -20.55 -12.15 -20.55" fill="#ffffff" fill-rule="evenodd" stroke="none"/>
    <path d="M-12.15 -11.65 L-12.15 -18.0 -5.75 -18.0 -5.75 -11.65 -12.15 -11.65" fill="#ffffff" fill-rule="evenodd" stroke="none"/>
    <path d="M5.75 -35.9 L12.15 -35.9 12.15 -29.5 5.75 -29.5 5.75 -35.9" fill="#ffffff" fill-rule="evenodd" stroke="none"/>
    <path d="M12.15 -26.95 L12.15 -20.55 5.75 -20.55 5.75 -26.95 12.15 -26.95" fill="#ffffff" fill-rule="evenodd" stroke="none"/>
    <path d="M12.15 -18.0 L12.15 -11.65 5.75 -11.65 5.75 -18.0 12.15 -18.0" fill="#ffffff" fill-rule="evenodd" stroke="none"/>
    <path d="M-4.9 0.0 L-4.9 -6.4 -0.4 -6.4 -0.4 0.0 -4.9 0.0" fill="#ffffff" fill-rule="evenodd" stroke="none"/>
    <path d="M0.3 0.0 L0.3 -6.4 4.8 -6.4 4.8 0.0 0.3 0.0" fill="#ffffff" fill-rule="evenodd" stroke="none"/>
    <path d="M-5.75 -35.9 L-12.15 -29.5 -12.15 -35.9 -5.75 -35.9" fill="#e5e5df" fill-rule="evenodd" stroke="none"/>
    <path d="M-3.2 -35.9 L3.2 -35.9 -3.2 -29.5 -3.2 -35.9" fill="#e5e5df" fill-rule="evenodd" stroke="none"/>
    <path d="M5.75 -35.9 L12.15 -35.9 5.75 -29.5 5.75 -35.9" fill="#e5e5df" fill-rule="evenodd" stroke="none"/>
    <path d="M-12.15 -20.55 L-12.15 -26.95 -5.75 -26.95 -12.15 -20.55" fill="#e5e5df" fill-rule="evenodd" stroke="none"/>
    <path d="M3.2 -26.95 L-3.2 -20.55 -3.2 -26.95 3.2 -26.95" fill="#e5e5df" fill-rule="evenodd" stroke="none"/>
    <path d="M12.15 -26.95 L5.75 -20.55 5.75 -26.95 12.15 -26.95" fill="#e5e5df" fill-rule="evenodd" stroke="none"/>
    <path d="M-12.15 -11.65 L-12.15 -18.0 -5.75 -18.0 -12.15 -11.65" fill="#e5e5df" fill-rule="evenodd" stroke="none"/>
    <path d="M3.2 -18.0 L-3.2 -11.65 -3.2 -18.0 3.2 -18.0" fill="#e5e5df" fill-rule="evenodd" stroke="none"/>
    <path d="M12.15 -18.0 L5.75 -11.65 5.75 -18.0 12.15 -18.0" fill="#e5e5df" fill-rule="evenodd" stroke="none"/>
  </g>
</svg>
