<?xml version="1.0" encoding="UTF-8" standalone="no"?>
<svg xmlns:ffdec="https://www.free-decompiler.com/flash" xmlns:xlink="http://www.w3.org/1999/xlink" ffdec:objectType="shape" height="65.0px" width="81.0px" xmlns="http://www.w3.org/2000/svg">
  <g transform="matrix(1.0, 0.0, 0.0, 1.0, 40.5, 62.5)">
    <path d="M38.0 -62.5 Q38.9 -62.5 39.65 -61.9 40.35 -61.3 40.5 -60.35 40.6 -59.45 40.1 -58.65 L2.1 1.35 0.85 2.35 Q0.0 2.65 -0.8 2.35 -1.65 2.05 -2.1 1.35 L-40.1 -58.65 Q-40.6 -59.45 -40.45 -60.35 -40.35 -61.3 -39.6 -61.9 -38.9 -62.5 -38.0 -62.5 L38.0 -62.5" fill="#ffffff" fill-rule="evenodd" stroke="none"/>
    <path d="M0.0 -60.0 L0.0 0.0 -38.0 -60.0 0.0 -60.0" fill="#4ea278" fill-rule="evenodd" stroke="none"/>
    <path d="M38.0 -60.0 L0.0 0.0 0.0 -60.0 38.0 -60.0" fill="#66cc9a" fill-rule="evenodd" stroke="none"/>
  </g>
</svg>
