<?xml version="1.0" encoding="UTF-8" standalone="no"?>
<svg xmlns:ffdec="https://www.free-decompiler.com/flash" xmlns:xlink="http://www.w3.org/1999/xlink" ffdec:objectType="shape" height="20.0px" width="13.0px" xmlns="http://www.w3.org/2000/svg">
  <g transform="matrix(1.0, 0.0, 0.0, 1.0, 0.5, 0.5)">
    <path d="M6.55 13.2 L8.35 17.7 6.3 18.4 4.5 13.85 4.3 13.6 4.0 13.5 3.7 13.6 0.5 16.0 0.5 1.2 11.0 11.7 6.9 12.5 6.65 12.65 6.5 12.9 6.55 13.2" fill="#ffffff" fill-rule="evenodd" stroke="none"/>
    <path d="M0.0 -0.5 L0.35 -0.35 12.35 11.65 12.5 12.0 12.4 12.3 12.1 12.5 7.7 13.4 9.5 17.85 9.5 18.1 9.4 18.35 9.15 18.5 6.15 19.5 5.8 19.45 5.55 19.2 3.8 14.8 0.3 17.4 -0.05 17.5 -0.35 17.35 -0.5 17.0 -0.5 0.0 -0.35 -0.35 0.0 -0.5 M6.55 13.2 L6.5 12.9 6.65 12.65 6.9 12.5 11.0 11.7 0.5 1.2 0.5 16.0 3.7 13.6 4.0 13.5 4.3 13.6 4.5 13.85 6.3 18.4 8.35 17.7 6.55 13.2" fill="#000000" fill-rule="evenodd" stroke="none"/>
  </g>
</svg>
