<?xml version="1.0" encoding="UTF-8" standalone="no"?>
<svg xmlns:ffdec="https://www.free-decompiler.com/flash" xmlns:xlink="http://www.w3.org/1999/xlink" ffdec:objectType="shape" height="238.0px" width="240.0px" xmlns="http://www.w3.org/2000/svg">
  <g transform="matrix(1.0, 0.0, 0.0, 1.0, 0.0, 0.0)">
    <path d="M240.0 1.0 L0.0 1.0 0.0 0.0 240.0 0.0 240.0 1.0" fill="#000000" fill-rule="evenodd" stroke="none"/>
    <path d="M240.0 4.0 L0.0 4.0 0.0 3.0 240.0 3.0 240.0 4.0" fill="#000000" fill-rule="evenodd" stroke="none"/>
    <path d="M240.0 7.0 L0.0 7.0 0.0 6.0 240.0 6.0 240.0 7.0" fill="#000000" fill-rule="evenodd" stroke="none"/>
    <path d="M240.0 10.0 L0.0 10.0 0.0 9.0 240.0 9.0 240.0 10.0" fill="#000000" fill-rule="evenodd" stroke="none"/>
    <path d="M240.0 13.0 L0.0 13.0 0.0 12.0 240.0 12.0 240.0 13.0" fill="#000000" fill-rule="evenodd" stroke="none"/>
    <path d="M240.0 16.0 L0.0 16.0 0.0 15.0 240.0 15.0 240.0 16.0" fill="#000000" fill-rule="evenodd" stroke="none"/>
    <path d="M240.0 19.0 L0.0 19.0 0.0 18.0 240.0 18.0 240.0 19.0" fill="#000000" fill-rule="evenodd" stroke="none"/>
    <path d="M240.0 22.0 L0.0 22.0 0.0 21.0 240.0 21.0 240.0 22.0" fill="#000000" fill-rule="evenodd" stroke="none"/>
    <path d="M240.0 25.0 L0.0 25.0 0.0 24.0 240.0 24.0 240.0 25.0" fill="#000000" fill-rule="evenodd" stroke="none"/>
    <path d="M240.0 28.0 L0.0 28.0 0.0 27.0 240.0 27.0 240.0 28.0" fill="#000000" fill-rule="evenodd" stroke="none"/>
    <path d="M240.0 31.0 L0.0 31.0 0.0 30.0 240.0 30.0 240.0 31.0" fill="#000000" fill-rule="evenodd" stroke="none"/>
    <path d="M240.0 34.0 L0.0 34.0 0.0 33.0 240.0 33.0 240.0 34.0" fill="#000000" fill-rule="evenodd" stroke="none"/>
    <path d="M240.0 37.0 L0.0 37.0 0.0 36.0 240.0 36.0 240.0 37.0" fill="#000000" fill-rule="evenodd" stroke="none"/>
    <path d="M240.0 40.0 L0.0 40.0 0.0 39.0 240.0 39.0 240.0 40.0" fill="#000000" fill-rule="evenodd" stroke="none"/>
    <path d="M240.0 43.0 L0.0 43.0 0.0 42.0 240.0 42.0 240.0 43.0" fill="#000000" fill-rule="evenodd" stroke="none"/>
    <path d="M240.0 46.0 L0.0 46.0 0.0 45.0 240.0 45.0 240.0 46.0" fill="#000000" fill-rule="evenodd" stroke="none"/>
    <path d="M240.0 49.0 L0.0 49.0 0.0 48.0 240.0 48.0 240.0 49.0" fill="#000000" fill-rule="evenodd" stroke="none"/>
    <path d="M240.0 52.0 L0.0 52.0 0.0 51.0 240.0 51.0 240.0 52.0" fill="#000000" fill-rule="evenodd" stroke="none"/>
    <path d="M240.0 55.0 L0.0 55.0 0.0 54.0 240.0 54.0 240.0 55.0" fill="#000000" fill-rule="evenodd" stroke="none"/>
    <path d="M240.0 58.0 L0.0 58.0 0.0 57.0 240.0 57.0 240.0 58.0" fill="#000000" fill-rule="evenodd" stroke="none"/>
    <path d="M240.0 61.0 L0.0 61.0 0.0 60.0 240.0 60.0 240.0 61.0" fill="#000000" fill-rule="evenodd" stroke="none"/>
    <path d="M240.0 64.0 L0.0 64.0 0.0 63.0 240.0 63.0 240.0 64.0" fill="#000000" fill-rule="evenodd" stroke="none"/>
    <path d="M240.0 67.0 L0.0 67.0 0.0 66.0 240.0 66.0 240.0 67.0" fill="#000000" fill-rule="evenodd" stroke="none"/>
    <path d="M240.0 70.0 L0.0 70.0 0.0 69.0 240.0 69.0 240.0 70.0" fill="#000000" fill-rule="evenodd" stroke="none"/>
    <path d="M240.0 73.0 L0.0 73.0 0.0 72.0 240.0 72.0 240.0 73.0" fill="#000000" fill-rule="evenodd" stroke="none"/>
    <path d="M240.0 76.0 L0.0 76.0 0.0 75.0 240.0 75.0 240.0 76.0" fill="#000000" fill-rule="evenodd" stroke="none"/>
    <path d="M240.0 79.0 L0.0 79.0 0.0 78.0 240.0 78.0 240.0 79.0" fill="#000000" fill-rule="evenodd" stroke="none"/>
    <path d="M240.0 82.0 L0.0 82.0 0.0 81.0 240.0 81.0 240.0 82.0" fill="#000000" fill-rule="evenodd" stroke="none"/>
    <path d="M240.0 85.0 L0.0 85.0 0.0 84.0 240.0 84.0 240.0 85.0" fill="#000000" fill-rule="evenodd" stroke="none"/>
    <path d="M240.0 88.0 L0.0 88.0 0.0 87.0 240.0 87.0 240.0 88.0" fill="#000000" fill-rule="evenodd" stroke="none"/>
    <path d="M240.0 91.0 L0.0 91.0 0.0 90.0 240.0 90.0 240.0 91.0" fill="#000000" fill-rule="evenodd" stroke="none"/>
    <path d="M240.0 94.0 L0.0 94.0 0.0 93.0 240.0 93.0 240.0 94.0" fill="#000000" fill-rule="evenodd" stroke="none"/>
    <path d="M240.0 97.0 L0.0 97.0 0.0 96.0 240.0 96.0 240.0 97.0" fill="#000000" fill-rule="evenodd" stroke="none"/>
    <path d="M240.0 100.0 L0.0 100.0 0.0 99.0 240.0 99.0 240.0 100.0" fill="#000000" fill-rule="evenodd" stroke="none"/>
    <path d="M240.0 103.0 L0.0 103.0 0.0 102.0 240.0 102.0 240.0 103.0" fill="#000000" fill-rule="evenodd" stroke="none"/>
    <path d="M240.0 106.0 L0.0 106.0 0.0 105.0 240.0 105.0 240.0 106.0" fill="#000000" fill-rule="evenodd" stroke="none"/>
    <path d="M240.0 109.0 L0.0 109.0 0.0 108.0 240.0 108.0 240.0 109.0" fill="#000000" fill-rule="evenodd" stroke="none"/>
    <path d="M240.0 112.0 L0.0 112.0 0.0 111.0 240.0 111.0 240.0 112.0" fill="#000000" fill-rule="evenodd" stroke="none"/>
    <path d="M240.0 115.0 L0.0 115.0 0.0 114.0 240.0 114.0 240.0 115.0" fill="#000000" fill-rule="evenodd" stroke="none"/>
    <path d="M240.0 118.0 L0.0 118.0 0.0 117.0 240.0 117.0 240.0 118.0" fill="#000000" fill-rule="evenodd" stroke="none"/>
    <path d="M240.0 121.0 L0.0 121.0 0.0 120.0 240.0 120.0 240.0 121.0" fill="#000000" fill-rule="evenodd" stroke="none"/>
    <path d="M240.0 124.0 L0.0 124.0 0.0 123.0 240.0 123.0 240.0 124.0" fill="#000000" fill-rule="evenodd" stroke="none"/>
    <path d="M240.0 127.0 L0.0 127.0 0.0 126.0 240.0 126.0 240.0 127.0" fill="#000000" fill-rule="evenodd" stroke="none"/>
    <path d="M240.0 130.0 L0.0 130.0 0.0 129.0 240.0 129.0 240.0 130.0" fill="#000000" fill-rule="evenodd" stroke="none"/>
    <path d="M240.0 133.0 L0.0 133.0 0.0 132.0 240.0 132.0 240.0 133.0" fill="#000000" fill-rule="evenodd" stroke="none"/>
    <path d="M240.0 136.0 L0.0 136.0 0.0 135.0 240.0 135.0 240.0 136.0" fill="#000000" fill-rule="evenodd" stroke="none"/>
    <path d="M240.0 139.0 L0.0 139.0 0.0 138.0 240.0 138.0 240.0 139.0" fill="#000000" fill-rule="evenodd" stroke="none"/>
    <path d="M240.0 142.0 L0.0 142.0 0.0 141.0 240.0 141.0 240.0 142.0" fill="#000000" fill-rule="evenodd" stroke="none"/>
    <path d="M240.0 145.0 L0.0 145.0 0.0 144.0 240.0 144.0 240.0 145.0" fill="#000000" fill-rule="evenodd" stroke="none"/>
    <path d="M240.0 148.0 L0.0 148.0 0.0 147.0 240.0 147.0 240.0 148.0" fill="#000000" fill-rule="evenodd" stroke="none"/>
    <path d="M240.0 151.0 L0.0 151.0 0.0 150.0 240.0 150.0 240.0 151.0" fill="#000000" fill-rule="evenodd" stroke="none"/>
    <path d="M240.0 154.0 L0.0 154.0 0.0 153.0 240.0 153.0 240.0 154.0" fill="#000000" fill-rule="evenodd" stroke="none"/>
    <path d="M240.0 157.0 L0.0 157.0 0.0 156.0 240.0 156.0 240.0 157.0" fill="#000000" fill-rule="evenodd" stroke="none"/>
    <path d="M240.0 160.0 L0.0 160.0 0.0 159.0 240.0 159.0 240.0 160.0" fill="#000000" fill-rule="evenodd" stroke="none"/>
    <path d="M240.0 163.0 L0.0 163.0 0.0 162.0 240.0 162.0 240.0 163.0" fill="#000000" fill-rule="evenodd" stroke="none"/>
    <path d="M240.0 166.0 L0.0 166.0 0.0 165.0 240.0 165.0 240.0 166.0" fill="#000000" fill-rule="evenodd" stroke="none"/>
    <path d="M240.0 169.0 L0.0 169.0 0.0 168.0 240.0 168.0 240.0 169.0" fill="#000000" fill-rule="evenodd" stroke="none"/>
    <path d="M240.0 172.0 L0.0 172.0 0.0 171.0 240.0 171.0 240.0 172.0" fill="#000000" fill-rule="evenodd" stroke="none"/>
    <path d="M240.0 175.0 L0.0 175.0 0.0 174.0 240.0 174.0 240.0 175.0" fill="#000000" fill-rule="evenodd" stroke="none"/>
    <path d="M240.0 178.0 L0.0 178.0 0.0 177.0 240.0 177.0 240.0 178.0" fill="#000000" fill-rule="evenodd" stroke="none"/>
    <path d="M240.0 181.0 L0.0 181.0 0.0 180.0 240.0 180.0 240.0 181.0" fill="#000000" fill-rule="evenodd" stroke="none"/>
    <path d="M240.0 184.0 L0.0 184.0 0.0 183.0 240.0 183.0 240.0 184.0" fill="#000000" fill-rule="evenodd" stroke="none"/>
    <path d="M240.0 187.0 L0.0 187.0 0.0 186.0 240.0 186.0 240.0 187.0" fill="#000000" fill-rule="evenodd" stroke="none"/>
    <path d="M240.0 190.0 L0.0 190.0 0.0 189.0 240.0 189.0 240.0 190.0" fill="#000000" fill-rule="evenodd" stroke="none"/>
    <path d="M240.0 193.0 L0.0 193.0 0.0 192.0 240.0 192.0 240.0 193.0" fill="#000000" fill-rule="evenodd" stroke="none"/>
    <path d="M240.0 196.0 L0.0 196.0 0.0 195.0 240.0 195.0 240.0 196.0" fill="#000000" fill-rule="evenodd" stroke="none"/>
    <path d="M0.0 198.0 L240.0 198.0 240.0 199.0 0.0 199.0 0.0 198.0" fill="#000000" fill-rule="evenodd" stroke="none"/>
    <path d="M0.0 201.0 L240.0 201.0 240.0 202.0 0.0 202.0 0.0 201.0" fill="#000000" fill-rule="evenodd" stroke="none"/>
    <path d="M0.0 204.0 L240.0 204.0 240.0 205.0 0.0 205.0 0.0 204.0" fill="#000000" fill-rule="evenodd" stroke="none"/>
    <path d="M0.0 207.0 L240.0 207.0 240.0 208.0 0.0 208.0 0.0 207.0" fill="#000000" fill-rule="evenodd" stroke="none"/>
    <path d="M0.0 210.0 L240.0 210.0 240.0 211.0 0.0 211.0 0.0 210.0" fill="#000000" fill-rule="evenodd" stroke="none"/>
    <path d="M0.0 213.0 L240.0 213.0 240.0 214.0 0.0 214.0 0.0 213.0" fill="#000000" fill-rule="evenodd" stroke="none"/>
    <path d="M0.0 216.0 L240.0 216.0 240.0 217.0 0.0 217.0 0.0 216.0" fill="#000000" fill-rule="evenodd" stroke="none"/>
    <path d="M0.0 219.0 L240.0 219.0 240.0 220.0 0.0 220.0 0.0 219.0" fill="#000000" fill-rule="evenodd" stroke="none"/>
    <path d="M0.0 222.0 L240.0 222.0 240.0 223.0 0.0 223.0 0.0 222.0" fill="#000000" fill-rule="evenodd" stroke="none"/>
    <path d="M0.0 225.0 L240.0 225.0 240.0 226.0 0.0 226.0 0.0 225.0" fill="#000000" fill-rule="evenodd" stroke="none"/>
    <path d="M0.0 228.0 L240.0 228.0 240.0 229.0 0.0 229.0 0.0 228.0" fill="#000000" fill-rule="evenodd" stroke="none"/>
    <path d="M0.0 231.0 L240.0 231.0 240.0 232.0 0.0 232.0 0.0 231.0" fill="#000000" fill-rule="evenodd" stroke="none"/>
    <path d="M0.0 234.0 L240.0 234.0 240.0 235.0 0.0 235.0 0.0 234.0" fill="#000000" fill-rule="evenodd" stroke="none"/>
    <path d="M0.0 237.0 L240.0 237.0 240.0 238.0 0.0 238.0 0.0 237.0" fill="#000000" fill-rule="evenodd" stroke="none"/>
  </g>
</svg>
