<?xml version="1.0" encoding="UTF-8" standalone="no"?>
<svg xmlns:ffdec="https://www.free-decompiler.com/flash" xmlns:xlink="http://www.w3.org/1999/xlink" ffdec:objectType="shape" height="250.0px" width="471.0px" xmlns="http://www.w3.org/2000/svg">
  <g transform="matrix(1.0, 0.0, 0.0, 1.0, -50.0, -70.0)">
    <path d="M61.0 70.0 L61.0 320.0 60.0 320.0 60.0 70.0 61.0 70.0" fill="#ffffff" fill-rule="evenodd" stroke="none"/>
    <path d="M521.0 311.0 L50.0 311.0 50.0 310.0 521.0 310.0 521.0 311.0" fill="#ffffff" fill-rule="evenodd" stroke="none"/>
    <path d="M55.0 70.0 L60.0 70.0 60.0 71.0 55.0 71.0 55.0 70.0" fill="#ffffff" fill-rule="evenodd" stroke="none"/>
    <path d="M55.0 130.0 L60.0 130.0 60.0 131.0 55.0 131.0 55.0 130.0" fill="#ffffff" fill-rule="evenodd" stroke="none"/>
    <path d="M55.0 190.0 L60.0 190.0 60.0 191.0 55.0 191.0 55.0 190.0" fill="#ffffff" fill-rule="evenodd" stroke="none"/>
    <path d="M55.0 250.0 L60.0 250.0 60.0 251.0 55.0 251.0 55.0 250.0" fill="#ffffff" fill-rule="evenodd" stroke="none"/>
  </g>
</svg>
