<?xml version="1.0" encoding="UTF-8" standalone="no"?>
<svg xmlns:ffdec="https://www.free-decompiler.com/flash" xmlns:xlink="http://www.w3.org/1999/xlink" ffdec:objectType="shape" height="126.0px" width="126.0px" xmlns="http://www.w3.org/2000/svg">
  <g transform="matrix(1.0, 0.0, 0.0, 1.0, 0.0, 0.0)">
    <path d="M104.7 21.3 Q122.05 38.55 122.05 63.0 122.05 87.45 104.7 104.7 87.45 122.05 63.0 122.05 38.55 122.05 21.3 104.7 3.95 87.45 3.95 63.0 3.95 38.55 21.3 21.3 L22.4 20.25 Q39.3 3.95 63.0 3.95 86.7 3.95 103.65 20.25 L104.7 21.3" fill="#000000" fill-opacity="0.105882354" fill-rule="evenodd" stroke="none"/>
    <path d="M122.05 63.0 Q122.05 38.55 104.7 21.3 87.45 3.95 63.0 3.95 38.55 3.95 21.3 21.3 3.95 38.55 3.95 63.0 3.95 87.45 21.3 104.7 38.55 122.05 63.0 122.05 87.45 122.05 104.7 104.7 122.05 87.45 122.05 63.0 M126.0 63.0 Q126.0 89.1 107.5 107.5 89.1 126.0 63.0 126.0 36.9 126.0 18.5 107.5 0.0 89.1 0.0 63.0 0.0 36.9 18.5 18.5 36.9 0.0 63.0 0.0 89.1 0.0 107.5 18.5 126.0 36.9 126.0 63.0" fill="#000000" fill-opacity="0.6" fill-rule="evenodd" stroke="none"/>
    <path d="M122.05 63.0 Q122.05 87.45 104.7 104.7 87.45 122.05 63.0 122.05 38.55 122.05 21.3 104.7 3.95 87.45 3.95 63.0 3.95 38.55 21.3 21.3 38.55 3.95 63.0 3.95 87.45 3.95 104.7 21.3 122.05 38.55 122.05 63.0" fill="#000000" fill-opacity="0.29803923" fill-rule="evenodd" stroke="none"/>
  </g>
</svg>
