<?xml version="1.0" encoding="UTF-8" standalone="no"?>
<svg xmlns:ffdec="https://www.free-decompiler.com/flash" xmlns:xlink="http://www.w3.org/1999/xlink" ffdec:objectType="shape" height="54.8px" width="52.05px" xmlns="http://www.w3.org/2000/svg">
  <g transform="matrix(1.0, 0.0, 0.0, 1.0, -23.45, 26.55)">
    <path d="M28.35 -0.35 Q28.0 -1.35 28.3 -1.75 L28.7 -2.0 Q28.3 -2.8 28.0 -4.1 27.2 -6.8 27.2 -9.55 27.2 -17.4 33.65 -23.25 37.0 -26.35 41.9 -26.5 L47.7 -26.0 49.9 -25.5 Q53.05 -24.65 56.2 -19.85 58.75 -15.95 59.4 -13.25 59.95 -10.85 59.6 -5.25 L60.2 -5.25 60.95 -5.25 Q61.55 -5.0 61.55 -3.0 L61.35 -0.25 61.1 2.7 Q61.1 4.25 59.3 5.8 L59.15 7.7 Q59.15 8.75 58.55 11.25 L60.05 11.85 Q60.65 12.0 61.3 13.65 L61.65 14.6 65.1 18.0 69.25 19.05 73.15 20.1 75.5 20.8 71.1 22.85 Q58.5 28.25 44.7 28.25 33.7 28.25 23.45 24.8 29.6 21.8 30.3 21.25 L31.35 19.75 31.4 19.6 32.5 16.9 Q32.95 15.65 33.95 14.9 L34.75 14.35 34.3 14.0 33.45 11.15 32.9 9.2 32.0 8.3 Q30.75 6.65 30.6 5.7 L29.65 2.85 28.35 -0.35" fill="#000000" fill-rule="evenodd" stroke="none"/>
  </g>
</svg>
