<?xml version="1.0" encoding="UTF-8" standalone="no"?>
<svg xmlns:ffdec="https://www.free-decompiler.com/flash" xmlns:xlink="http://www.w3.org/1999/xlink" ffdec:objectType="shape" height="30.0px" width="19.5px" xmlns="http://www.w3.org/2000/svg">
  <g transform="matrix(1.0, 0.0, 0.0, 1.0, 0.8, 0.8)">
    <path d="M-0.8 -0.05 L-0.55 -0.55 -0.05 -0.8 Q0.25 -0.65 0.5 -0.55 L18.5 17.45 18.7 17.95 18.55 18.4 18.1 18.7 11.5 20.05 14.2 26.75 14.2 27.1 14.05 27.5 13.7 27.7 9.2 29.2 8.65 29.15 8.3 28.75 5.65 22.15 0.4 26.05 -0.1 26.2 -0.55 26.0 -0.8 25.45 -0.8 -0.05 M9.7 19.3 L9.95 18.95 10.3 18.7 16.45 17.5 0.7 1.75 0.7 23.95 5.5 20.35 5.95 20.2 6.4 20.35 6.7 20.75 9.4 27.55 12.5 26.5 9.8 19.75 9.7 19.3" fill="#000000" fill-rule="evenodd" stroke="none"/>
    <path d="M9.7 19.3 L9.8 19.75 12.5 26.5 9.4 27.55 6.7 20.75 6.4 20.35 5.95 20.2 5.5 20.35 0.7 23.95 0.7 1.75 16.45 17.5 10.3 18.7 9.95 18.95 9.7 19.3" fill="#ffffff" fill-rule="evenodd" stroke="none"/>
  </g>
</svg>
