<?xml version="1.0" encoding="UTF-8" standalone="no"?>
<svg xmlns:ffdec="https://www.free-decompiler.com/flash" xmlns:xlink="http://www.w3.org/1999/xlink" ffdec:objectType="shape" height="158.35px" width="305.35px" xmlns="http://www.w3.org/2000/svg">
  <g transform="matrix(1.0, 0.0, 0.0, 1.0, -239.5, -457.45)">
    <path d="M282.85 476.05 L284.1 475.9 494.4 457.55 Q513.25 456.3 527.85 468.55 542.5 480.85 544.55 499.55 L544.75 502.05 Q546.0 520.8 533.7 535.4 521.6 549.85 503.15 552.1 L502.0 552.2 501.45 552.25 292.4 570.5 291.15 570.65 289.95 570.75 Q271.1 571.95 256.5 559.65 241.85 547.4 239.8 528.7 L239.7 527.45 239.6 526.2 Q238.35 507.45 250.65 492.8 262.9 478.2 281.65 476.15 L282.85 476.05" fill="#ffffff" fill-rule="evenodd" stroke="none"/>
    <path d="M307.65 615.8 L303.5 568.5 350.85 564.35 350.9 564.65 308.0 615.75 307.65 615.8" fill="#ffffff" fill-rule="evenodd" stroke="none"/>
  </g>
</svg>
