<?xml version="1.0" encoding="UTF-8" standalone="no"?>
<svg xmlns:ffdec="https://www.free-decompiler.com/flash" xmlns:xlink="http://www.w3.org/1999/xlink" ffdec:objectType="shape" height="226.4px" width="580.0px" xmlns="http://www.w3.org/2000/svg">
  <g transform="matrix(1.0, 0.0, 0.0, 1.0, -217.5, -114.0)">
    <path d="M366.75 293.25 L319.6 340.4 319.25 340.4 319.25 292.95 366.75 292.95 366.75 293.25" fill="#ffffff" fill-rule="evenodd" stroke="none"/>
    <path d="M771.1 140.35 Q796.7 165.95 797.5 201.7 L797.5 206.35 Q796.7 242.05 771.1 267.6 745.9 292.85 710.75 294.0 L708.5 294.0 707.5 294.0 309.85 294.0 307.5 294.0 305.2 294.0 Q269.45 293.2 243.85 267.6 218.3 242.05 217.55 206.35 L217.5 204.0 217.55 201.7 Q218.3 165.95 243.85 140.35 269.45 114.8 305.2 114.05 L307.5 114.0 309.85 114.05 709.85 114.05 Q745.55 114.8 771.1 140.35" fill="#ffffff" fill-rule="evenodd" stroke="none"/>
  </g>
</svg>
