<?xml version="1.0" encoding="UTF-8" standalone="no"?>
<svg xmlns:ffdec="https://www.free-decompiler.com/flash" xmlns:xlink="http://www.w3.org/1999/xlink" ffdec:objectType="morphshape" height="123.0px" width="123.0px" xmlns="http://www.w3.org/2000/svg">
  <g transform="matrix(1.0, 0.0, 0.0, 1.0, 61.5, 61.5)">
    <path d="M-2.45 0.0 L-2.45 0.1 Q-2.4 1.05 -1.7 1.7 L-1.7 1.7 -1.7 1.7 Q-1.0 2.4 0.0 2.4 0.95 2.4 1.7 1.7 L1.7 1.7 Q2.4 1.0 2.4 0.0 L2.4 0.0 Q2.4 -1.0 1.7 -1.7 1.0 -2.45 0.0 -2.45 L-0.1 -2.45 Q-1.05 -2.4 -1.7 -1.7 -2.45 -1.0 -2.45 0.0 M-2.5 0.0 L-2.5 0.0 Q-2.5 1.0 -1.85 1.65 L-1.85 1.65 -1.75 1.75 Q-1.0 2.5 0.0 2.5 L0.0 2.5 Q0.9 2.5 1.65 1.85 L1.65 1.85 1.75 1.75 Q2.5 1.05 2.5 0.1 L2.5 0.0 Q2.5 -1.05 1.75 -1.75 L1.75 -1.75 1.75 -1.75 Q1.0 -2.5 0.0 -2.5 L-0.1 -2.5 Q-1.05 -2.45 -1.75 -1.75 L-1.75 -1.75 Q-2.5 -1.05 -2.5 0.0" fill="#ffffff" fill-rule="evenodd" stroke="none">
      <animate attributeName="fill" dur="2s" repeatCount="indefinite" values="#ffffff;#ffffff"/>
      <animate attributeName="fill-opacity" dur="2s" repeatCount="indefinite" values="1.0;1.0"/>
      <animate attributeName="d" dur="2s" repeatCount="indefinite" values="M-2.45 0.0 L-2.45 0.1 Q-2.4 1.05 -1.7 1.7 L-1.7 1.7 -1.7 1.7 Q-1.0 2.4 0.0 2.4 0.95 2.4 1.7 1.7 L1.7 1.7 Q2.4 1.0 2.4 0.0 L2.4 0.0 Q2.4 -1.0 1.7 -1.7 1.0 -2.45 0.0 -2.45 L-0.1 -2.45 Q-1.05 -2.4 -1.7 -1.7 -2.45 -1.0 -2.45 0.0 M-2.5 0.0 L-2.5 0.0 Q-2.5 1.0 -1.85 1.65 L-1.85 1.65 -1.75 1.75 Q-1.0 2.5 0.0 2.5 L0.0 2.5 Q0.9 2.5 1.65 1.85 L1.65 1.85 1.75 1.75 Q2.5 1.05 2.5 0.1 L2.5 0.0 Q2.5 -1.05 1.75 -1.75 L1.75 -1.75 1.75 -1.75 Q1.0 -2.5 0.0 -2.5 L-0.1 -2.5 Q-1.05 -2.45 -1.75 -1.75 L-1.75 -1.75 Q-2.5 -1.05 -2.5 0.0;M-58.25 -0.05 L-58.25 -0.05 Q-58.25 23.95 -41.25 41.15 L-41.1 41.4 -40.5 42.0 Q-23.2 58.15 -0.2 58.15 23.65 58.1 40.8 41.0 L41.75 40.0 Q57.6 23.6 58.05 1.25 L58.05 -0.05 Q58.05 -23.35 40.6 -41.2 24.5 -57.3 2.15 -58.15 L-0.3 -58.2 Q-23.6 -58.2 -41.55 -40.85 -58.25 -23.8 -58.25 -0.05 M-61.5 0.0 L-61.5 0.6 Q-61.3 25.55 -43.55 43.5 L-43.55 43.6 -41.45 45.55 Q-23.65 61.5 -0.25 61.5 L0.15 61.5 Q25.15 61.35 43.05 43.5 L43.1 43.5 45.45 41.1 Q61.5 23.7 61.5 0.0 L61.5 -0.8 Q61.2 -25.65 43.1 -43.45 L43.05 -43.5 42.55 -43.95 Q25.6 -60.6 2.25 -61.45 L-0.25 -61.5 Q-25.05 -61.5 -43.55 -43.5 L-43.55 -43.45 Q-61.5 -25.35 -61.5 0.0"/>
    </path>
    <path d="M-2.5 0.0 Q-2.5 -1.05 -1.75 -1.75 L-1.75 -1.75 Q-1.05 -2.45 -0.1 -2.5 L0.0 -2.5 Q1.0 -2.5 1.75 -1.75 L1.75 -1.75 1.75 -1.75 Q2.5 -1.05 2.5 0.0 L2.5 0.1 Q2.5 1.05 1.75 1.75 L1.65 1.85 1.65 1.85 Q0.9 2.5 0.0 2.5 L0.0 2.5 Q-1.0 2.5 -1.75 1.75 L-1.85 1.65 -1.85 1.65 Q-2.5 1.0 -2.5 0.0 L-2.5 0.0 M-2.45 0.0 Q-2.45 -1.0 -1.7 -1.7 -1.05 -2.4 -0.1 -2.45 L0.0 -2.45 Q1.0 -2.45 1.7 -1.7 2.4 -1.0 2.4 0.0 L2.4 0.0 Q2.4 1.0 1.7 1.7 L1.7 1.7 Q0.95 2.4 0.0 2.4 -1.0 2.4 -1.7 1.7 L-1.7 1.7 -1.7 1.7 Q-2.4 1.05 -2.45 0.1 L-2.45 0.0 Z" fill="none" stroke="#000000" stroke-linecap="round" stroke-linejoin="round" stroke-opacity="0.0" stroke-width="0.0">
      <animate attributeName="stroke" dur="2s" repeatCount="indefinite" values="#000000;#000001"/>
      <animate attributeName="stroke-width" dur="2s" repeatCount="indefinite" values="0.0;0.0"/>
      <animate attributeName="fill-opacity" dur="2s" repeatCount="indefinite" values="0.0;0.0"/>
      <animate attributeName="d" dur="2s" repeatCount="indefinite" values="M-2.5 0.0 Q-2.5 -1.05 -1.75 -1.75 L-1.75 -1.75 Q-1.05 -2.45 -0.1 -2.5 L0.0 -2.5 Q1.0 -2.5 1.75 -1.75 L1.75 -1.75 1.75 -1.75 Q2.5 -1.05 2.5 0.0 L2.5 0.1 Q2.5 1.05 1.75 1.75 L1.65 1.85 1.65 1.85 Q0.9 2.5 0.0 2.5 L0.0 2.5 Q-1.0 2.5 -1.75 1.75 L-1.85 1.65 -1.85 1.65 Q-2.5 1.0 -2.5 0.0 L-2.5 0.0 M-2.45 0.0 Q-2.45 -1.0 -1.7 -1.7 -1.05 -2.4 -0.1 -2.45 L0.0 -2.45 Q1.0 -2.45 1.7 -1.7 2.4 -1.0 2.4 0.0 L2.4 0.0 Q2.4 1.0 1.7 1.7 L1.7 1.7 Q0.95 2.4 0.0 2.4 -1.0 2.4 -1.7 1.7 L-1.7 1.7 -1.7 1.7 Q-2.4 1.05 -2.45 0.1 L-2.45 0.0 Z;M-61.5 0.0 Q-61.5 -25.35 -43.55 -43.45 L-43.55 -43.5 Q-25.05 -61.5 -0.25 -61.5 L2.25 -61.45 Q25.6 -60.6 42.55 -43.95 L43.05 -43.5 43.1 -43.45 Q61.2 -25.65 61.5 -0.8 L61.5 0.0 Q61.5 23.7 45.45 41.1 L43.1 43.5 43.05 43.5 Q25.15 61.35 0.15 61.5 L-0.25 61.5 Q-23.65 61.5 -41.45 45.55 L-43.55 43.6 -43.55 43.5 Q-61.3 25.55 -61.5 0.6 L-61.5 0.0 M-58.25 -0.05 Q-58.25 -23.8 -41.55 -40.85 -23.6 -58.2 -0.3 -58.2 L2.15 -58.15 Q24.5 -57.3 40.6 -41.2 58.05 -23.35 58.05 -0.05 L58.05 1.25 Q57.6 23.6 41.75 40.0 L40.8 41.0 Q23.65 58.1 -0.2 58.15 -23.2 58.15 -40.5 42.0 L-41.1 41.4 -41.25 41.15 Q-58.25 23.95 -58.25 -0.05 L-58.25 -0.05 Z"/>
    </path>
  </g>
</svg>
