<?xml version="1.0" encoding="UTF-8" standalone="no"?>
<svg xmlns:ffdec="https://www.free-decompiler.com/flash" xmlns:xlink="http://www.w3.org/1999/xlink" ffdec:objectType="shape" height="23.7px" width="23.7px" xmlns="http://www.w3.org/2000/svg">
  <g transform="matrix(1.0, 0.0, 0.0, 1.0, 11.85, 11.8)">
    <path d="M1.35 -1.75 Q0.9 -2.25 0.1 -2.25 L-0.95 -2.0 -1.85 -1.25 -2.35 -0.15 -2.65 1.0 Q-2.65 1.75 -2.1 2.4 -1.65 2.9 -0.85 2.9 L0.25 2.65 1.05 1.8 1.65 0.75 1.85 -0.4 Q1.85 -1.3 1.35 -1.75 M5.8 -6.6 L5.9 -6.55 Q8.15 -4.3 8.3 -1.95 L8.15 -0.4 7.65 1.25 Q6.85 2.7 6.05 3.35 L6.05 3.4 4.45 4.5 4.2 4.6 Q3.35 5.0 2.75 5.0 L2.65 5.0 Q1.85 5.0 1.45 4.6 L1.45 4.55 Q1.05 4.3 1.05 3.75 L1.0 3.75 0.0 4.7 -1.35 5.0 -2.7 4.75 -3.85 3.9 -4.6 2.7 -4.85 1.25 Q-4.85 0.15 -4.45 -0.8 L-3.5 -2.65 -2.05 -3.9 0.0 -4.35 1.45 -4.05 2.55 -2.85 2.9 -4.05 4.7 -4.05 3.2 2.15 3.1 2.5 3.3 2.85 3.6 2.95 4.65 2.65 5.55 1.75 6.15 0.35 6.45 -1.45 6.15 -3.05 Q5.3 -4.75 3.6 -5.85 1.95 -6.9 -0.1 -6.9 -2.95 -6.9 -5.0 -4.9 -7.0 -2.85 -7.0 0.05 -7.0 2.9 -5.0 4.95 -2.95 7.0 -0.1 7.0 1.7 7.0 3.1 6.2 L4.75 7.5 Q2.55 8.9 -0.1 8.9 -3.75 8.9 -6.3 6.3 -8.95 3.75 -8.95 0.05 -8.95 -3.65 -6.3 -6.2 -3.75 -8.85 -0.1 -8.85 2.6 -8.85 4.7 -7.45 L5.0 -7.3 Q5.4 -6.9 5.8 -6.6" fill="#000000" fill-rule="evenodd" stroke="none"/>
    <path d="M4.3 -9.15 Q2.15 -10.15 0.0 -10.15 -4.3 -10.15 -7.2 -7.2 -10.2 -4.2 -10.2 0.05 -10.2 4.25 -7.2 7.25 -4.3 10.25 0.0 10.25 3.3 10.25 5.9 8.3 L5.9 8.25 6.95 7.5 Q10.2 4.45 10.2 0.05 10.2 -2.15 9.25 -4.25 8.4 -6.05 6.85 -7.45 5.75 -8.5 4.3 -9.15 M8.0 -8.65 Q9.7 -7.15 10.75 -4.95 L10.75 -5.0 Q11.85 -2.45 11.85 0.05 11.85 5.0 8.1 8.65 L6.95 9.6 7.05 9.55 6.95 9.65 Q3.75 11.9 0.0 11.9 -4.9 11.9 -8.4 8.4 -11.85 4.95 -11.85 0.05 -11.85 -4.9 -8.4 -8.3 -4.95 -11.8 0.0 -11.8 2.55 -11.8 4.85 -10.7 L4.95 -10.7 5.15 -10.6 Q6.75 -9.8 8.0 -8.65 M7.3 9.5 L7.5 9.4 7.45 9.45 7.3 9.5" fill="#000000" fill-rule="evenodd" stroke="none"/>
    <path d="M5.95 -6.55 L5.8 -6.65 5.05 -7.35 4.7 -7.45 Q2.6 -8.85 -0.05 -8.85 -3.75 -8.85 -6.3 -6.25 -8.95 -3.7 -8.95 0.0 -8.95 3.7 -6.3 6.25 -3.75 8.85 -0.05 8.85 2.55 8.85 4.8 7.45 L3.1 6.2 Q1.7 6.95 -0.05 6.95 -2.95 6.95 -4.95 4.9 -7.0 2.85 -7.0 0.0 -7.0 -2.85 -4.95 -4.9 -2.95 -6.95 -0.05 -6.95 2.0 -6.95 3.65 -5.85 5.3 -4.8 6.2 -3.05 L6.45 -1.45 6.2 0.3 5.55 1.7 4.65 2.6 3.65 2.95 3.3 2.8 3.1 2.5 3.2 2.1 4.7 -4.1 2.95 -4.1 2.55 -2.85 1.45 -4.1 0.0 -4.4 -2.05 -3.95 -3.5 -2.7 -4.45 -0.85 Q-4.85 0.15 -4.85 1.2 L-4.6 2.7 -3.85 3.9 -2.7 4.7 -1.35 4.95 0.0 4.65 1.0 3.7 1.1 3.7 Q1.1 4.25 1.45 4.55 L1.45 4.6 2.7 4.95 2.75 4.95 4.2 4.6 4.45 4.45 6.05 3.4 6.05 3.3 Q6.9 2.7 7.65 1.2 L8.15 -0.45 8.3 -2.0 Q8.15 -4.35 5.95 -6.55 M4.35 -9.2 Q5.75 -8.55 6.9 -7.45 8.4 -6.05 9.25 -4.25 10.2 -2.15 10.2 0.0 10.2 4.4 6.95 7.45 L5.95 8.2 5.95 8.3 Q3.3 10.2 0.0 10.2 -4.25 10.2 -7.2 7.2 -10.2 4.2 -10.2 0.0 -10.2 -4.2 -7.2 -7.2 -4.25 -10.2 0.0 -10.2 2.15 -10.2 4.35 -9.2" fill="#dcdcdc" fill-rule="evenodd" stroke="none"/>
    <path d="M0.15 -2.3 Q0.9 -2.3 1.35 -1.8 1.85 -1.35 1.85 -0.45 L1.65 0.7 1.1 1.8 0.25 2.6 -0.85 2.85 Q-1.65 2.85 -2.1 2.35 L-2.6 0.95 -2.35 -0.2 -1.85 -1.3 -0.95 -2.05 0.15 -2.3" fill="#dcdcdc" fill-rule="evenodd" stroke="none"/>
  </g>
</svg>
