<?xml version="1.0" encoding="UTF-8" standalone="no"?>
<svg xmlns:ffdec="https://www.free-decompiler.com/flash" xmlns:xlink="http://www.w3.org/1999/xlink" ffdec:objectType="shape" height="25.15px" width="19.65px" xmlns="http://www.w3.org/2000/svg">
  <g transform="matrix(1.0, 0.0, 0.0, 1.0, 9.8, 12.6)">
    <path d="M5.4 -12.6 Q6.05 -12.6 6.5 -12.1 L6.55 -12.1 Q7.05 -11.6 7.05 -10.95 L7.05 -10.65 Q7.05 -10.3 7.35 -10.0 7.6 -9.75 7.95 -9.75 L8.2 -9.75 Q8.85 -9.75 9.3 -9.25 L9.35 -9.2 Q9.85 -8.75 9.85 -8.1 L9.85 -6.0 Q9.85 -5.3 9.35 -4.85 L9.3 -4.8 Q8.85 -4.35 8.2 -4.35 L7.95 -4.35 7.35 -4.05 Q7.05 -3.8 7.05 -3.45 L7.05 -3.15 Q7.05 -2.45 6.55 -1.9 6.05 -1.5 5.4 -1.5 L2.85 -1.5 2.3 -1.3 2.0 -0.8 1.3 0.7 Q1.15 0.9 1.15 1.2 L1.3 1.65 1.7 2.0 Q3.35 2.75 3.8 4.6 L3.9 5.55 3.9 9.4 Q3.9 10.35 3.15 10.8 0.4 12.55 -2.9 12.55 -6.25 12.55 -8.95 10.8 L-9.0 10.8 Q-9.8 10.35 -9.8 9.4 L-9.8 5.55 -9.65 4.55 Q-9.15 2.7 -7.55 2.0 L-7.2 1.65 -7.05 1.15 Q-7.05 0.85 -7.2 0.65 -8.0 -0.55 -8.0 -2.15 -8.0 -4.25 -6.45 -5.7 -5.0 -7.25 -2.9 -7.25 L-2.15 -7.2 Q-1.8 -7.2 -1.5 -7.45 L-1.25 -8.1 Q-1.25 -8.75 -0.75 -9.2 -0.25 -9.75 0.4 -9.75 L0.65 -9.75 Q1.0 -9.75 1.3 -10.0 L1.55 -10.65 1.55 -10.95 Q1.55 -11.6 2.1 -12.1 2.55 -12.6 3.2 -12.6 L5.4 -12.6 M1.5 3.8 Q0.9 3.25 0.15 3.25 L-6.05 3.25 Q-7.65 3.25 -8.05 4.9 L-8.15 5.45 -8.15 9.4 Q-5.7 10.9 -2.9 10.9 -0.15 10.9 2.25 9.4 L2.25 5.45 2.2 5.0 Q2.05 4.3 1.5 3.8 M0.45 -2.15 L0.2 -3.45 Q-0.3 -4.85 -1.65 -5.3 L-2.9 -5.6 Q-4.3 -5.6 -5.35 -4.6 -6.35 -3.55 -6.35 -2.15 -6.35 -0.95 -5.6 0.0 -4.9 0.9 -3.75 1.15 L-2.9 1.3 -2.15 1.15 Q-0.8 0.85 -0.15 -0.2 0.45 -0.9 0.45 -2.15 M8.2 -8.1 L5.4 -8.1 5.4 -10.95 3.2 -10.95 3.2 -8.1 0.4 -8.1 0.4 -6.0 3.2 -6.0 3.2 -3.15 5.4 -3.15 5.4 -6.0 8.2 -6.0 8.2 -8.1" fill="#000000" fill-rule="evenodd" stroke="none"/>
    <path d="M5.35 -8.1 L8.15 -8.1 8.15 -6.0 5.35 -6.0 5.35 -3.15 3.2 -3.15 3.2 -6.0 0.4 -6.0 0.4 -8.1 3.2 -8.1 3.2 -10.95 5.35 -10.95 5.35 -8.1" fill="#dcdcdc" fill-rule="evenodd" stroke="none"/>
    <path d="M-8.15 5.45 L-8.1 4.9 Q-7.65 3.25 -6.05 3.25 L0.15 3.25 Q0.9 3.25 1.5 3.8 2.05 4.3 2.2 5.0 L2.25 5.45 2.25 9.4 Q-0.2 10.9 -2.9 10.9 -5.75 10.9 -8.15 9.4 L-8.15 5.45" fill="#dcdcdc" fill-rule="evenodd" stroke="none"/>
    <path d="M-1.65 -5.3 Q-0.3 -4.85 0.2 -3.45 L0.45 -2.15 Q0.45 -0.9 -0.2 -0.2 -0.8 0.85 -2.15 1.15 L-2.9 1.3 -3.75 1.15 Q-4.9 0.9 -5.6 0.0 -6.35 -0.95 -6.35 -2.15 -6.35 -3.55 -5.35 -4.55 -4.3 -5.6 -2.9 -5.6 L-1.65 -5.3" fill="#dcdcdc" fill-rule="evenodd" stroke="none"/>
  </g>
</svg>
