<?xml version="1.0" encoding="UTF-8" standalone="no"?>
<svg xmlns:ffdec="https://www.free-decompiler.com/flash" xmlns:xlink="http://www.w3.org/1999/xlink" ffdec:objectType="shape" height="20.2px" width="16.2px" xmlns="http://www.w3.org/2000/svg">
  <g transform="matrix(1.0, 0.0, 0.0, 1.0, 8.1, 10.05)">
    <path d="M8.1 -8.4 L8.1 5.1 Q8.1 5.8 7.65 6.25 L7.65 6.3 4.25 9.7 Q3.75 10.15 3.1 10.15 L-6.35 10.15 Q-7.05 10.15 -7.55 9.7 -7.95 9.15 -8.05 7.4 L-8.05 7.2 -8.05 7.15 -8.05 1.45 -8.0 -8.4 Q-8.0 -9.05 -7.5 -9.55 -7.0 -10.05 -6.35 -10.05 L6.45 -10.05 Q7.15 -10.05 7.6 -9.55 8.1 -9.05 8.1 -8.4 M1.75 8.5 L1.75 3.85 6.45 3.85 6.45 -8.4 -6.55 -8.4 -6.55 8.5 1.75 8.5 M3.4 5.5 L3.4 8.45 6.35 5.5 3.4 5.5" fill="#000000" fill-rule="evenodd" stroke="none"/>
    <path d="M4.55 -6.15 L6.0 -5.2 -1.05 6.45 -1.1 6.6 -1.25 6.75 -1.55 6.6 -6.2 3.1 -5.0 1.5 -4.75 1.65 -4.65 1.75 -1.85 3.85 4.3 -6.3 4.55 -6.15" fill="#000000" fill-rule="evenodd" stroke="none"/>
    <path d="M3.4 8.4 L3.4 5.5 6.3 5.5 3.4 8.4" fill="#dcdcdc" fill-rule="evenodd" stroke="none"/>
    <path d="M1.7 3.85 L1.7 8.5 -6.55 8.5 -6.55 -8.4 6.45 -8.4 6.45 3.85 1.7 3.85 M6.0 -5.25 L4.55 -6.2 4.25 -6.3 -1.85 3.85 -4.65 1.7 -4.8 1.65 -5.05 1.45 -6.25 3.05 -1.6 6.55 -1.3 6.75 -1.15 6.55 -1.1 6.45 6.0 -5.25" fill="#dcdcdc" fill-rule="evenodd" stroke="none"/>
  </g>
</svg>
