<?xml version="1.0" encoding="UTF-8" standalone="no"?>
<svg xmlns:ffdec="https://www.free-decompiler.com/flash" xmlns:xlink="http://www.w3.org/1999/xlink" ffdec:objectType="shape" height="28.7px" width="23.6px" xmlns="http://www.w3.org/2000/svg">
  <g transform="matrix(1.0, 0.0, 0.0, 1.0, 11.8, 14.35)">
    <path d="M3.85 -12.4 Q5.7 -12.05 7.25 -11.15 L7.3 -11.15 Q9.6 -9.9 11.25 -7.85 11.9 -7.1 11.75 -6.1 L11.75 -6.05 Q11.7 -5.05 10.9 -4.45 L11.2 -4.6 10.95 -4.45 10.5 -4.1 10.3 -3.6 10.3 4.7 Q10.3 5.35 9.9 5.8 L9.85 5.85 Q9.35 6.3 8.65 6.35 L8.15 6.55 7.85 6.95 7.85 7.45 7.95 7.95 7.95 8.0 7.9 8.1 7.9 8.25 7.9 8.55 7.1 12.4 7.1 12.45 Q6.9 13.3 6.25 13.8 5.6 14.3 4.8 14.35 L4.15 14.3 4.15 14.35 Q2.9 14.1 2.5 13.0 L2.1 12.5 1.45 12.45 -2.45 12.65 -3.75 12.45 Q-5.65 12.05 -7.2 11.2 L-7.2 11.15 Q-9.55 9.9 -11.25 7.9 -11.9 7.1 -11.75 6.2 L-11.75 6.15 Q-11.65 5.1 -10.85 4.45 L-10.8 4.4 -10.55 4.2 -10.3 3.55 -10.3 -3.55 Q-10.3 -4.45 -9.45 -4.95 L-9.4 -4.95 -8.7 -5.2 -8.25 -5.3 -7.95 -5.6 -7.7 -5.9 -7.55 -6.25 -7.6 -6.65 -7.65 -6.85 -7.9 -7.8 -7.85 -8.25 -7.85 -8.5 -7.05 -12.4 -7.05 -12.35 Q-6.8 -13.4 -5.95 -13.95 -5.1 -14.5 -4.1 -14.3 -2.9 -14.1 -2.4 -12.95 L-2.0 -12.5 -1.4 -12.4 2.5 -12.65 3.9 -12.4 3.85 -12.4 M8.65 -3.55 L0.05 1.1 -8.65 -3.55 -8.65 4.7 8.65 4.7 8.65 -3.55 M0.7 7.25 Q0.8 7.75 1.3 7.9 L3.5 8.3 1.55 9.1 -0.1 9.4 -2.2 9.4 Q-3.95 9.2 -5.75 8.3 -7.6 7.3 -8.7 5.85 L-9.85 5.75 Q-10.4 6.3 -9.95 6.85 -8.55 8.65 -6.45 9.7 -4.95 10.55 -3.45 10.8 L-2.3 11.0 2.0 10.6 2.1 10.55 3.4 10.1 4.3 9.65 3.85 11.75 3.85 12.1 Q4.0 12.6 4.5 12.7 5.25 12.85 5.4 12.1 L6.25 8.05 6.3 7.9 6.15 7.6 6.15 7.5 6.1 7.5 6.1 7.45 5.9 7.25 5.7 7.15 5.65 7.15 1.65 6.35 Q0.95 6.15 0.7 6.9 L0.7 7.25 M0.05 -1.05 L6.6 -4.6 -6.6 -4.6 0.05 -1.05 M10.0 -6.85 Q8.6 -8.65 6.5 -9.7 4.95 -10.55 3.5 -10.8 L2.35 -11.0 -2.0 -10.6 -2.05 -10.55 -3.4 -10.1 -4.3 -9.65 -3.85 -11.75 -3.85 -12.1 Q-3.95 -12.6 -4.5 -12.7 -5.25 -12.85 -5.4 -12.1 L-6.25 -8.05 -6.25 -7.85 -6.15 -7.6 -6.15 -7.5 -6.1 -7.5 -6.1 -7.4 -5.75 -7.15 -5.65 -7.15 -1.6 -6.35 Q-0.9 -6.15 -0.65 -6.9 L-0.65 -7.25 Q-0.8 -7.75 -1.3 -7.85 L-3.45 -8.3 -1.55 -9.1 0.1 -9.4 2.2 -9.4 Q4.0 -9.2 5.8 -8.3 L7.7 -6.9 8.7 -5.85 Q9.3 -5.25 9.85 -5.75 10.5 -6.3 10.0 -6.85" fill="#000000" fill-rule="evenodd" stroke="none"/>
    <path d="M6.5 -9.7 Q8.6 -8.6 10.0 -6.85 10.55 -6.25 9.9 -5.75 L8.75 -5.8 7.75 -6.9 Q6.95 -7.65 5.8 -8.3 4.05 -9.2 2.25 -9.4 L0.15 -9.4 -1.5 -9.05 -3.45 -8.3 -1.25 -7.85 Q-0.75 -7.75 -0.6 -7.2 L-0.6 -6.9 Q-0.9 -6.15 -1.6 -6.3 L-5.6 -7.15 -5.7 -7.15 -5.85 -7.2 -6.05 -7.4 -6.05 -7.45 -6.1 -7.45 -6.1 -7.6 -6.25 -7.85 -6.25 -8.05 -5.35 -12.05 Q-5.2 -12.85 -4.45 -12.7 -3.95 -12.55 -3.8 -12.05 L-3.8 -11.75 -4.25 -9.65 -3.35 -10.1 -2.0 -10.55 -1.95 -10.6 2.35 -11.0 3.5 -10.8 Q5.0 -10.55 6.5 -9.7" fill="#dcdcdc" fill-rule="evenodd" stroke="none"/>
    <path d="M1.35 7.9 Q0.85 7.75 0.7 7.25 L0.7 6.95 Q0.95 6.15 1.65 6.35 L5.7 7.2 5.75 7.2 5.95 7.25 6.15 7.45 6.15 7.5 6.2 7.5 6.2 7.65 6.35 7.9 6.25 8.1 5.45 12.1 Q5.3 12.85 4.55 12.75 4.05 12.6 3.9 12.1 L3.9 11.8 4.35 9.7 3.45 10.1 2.1 10.55 2.05 10.65 -2.3 11.0 -3.45 10.8 Q-4.9 10.55 -6.4 9.75 -8.55 8.65 -9.95 6.85 -10.4 6.3 -9.8 5.8 L-8.65 5.85 Q-7.55 7.3 -5.7 8.35 -3.95 9.25 -2.15 9.4 L-0.05 9.4 1.6 9.1 3.5 8.35 1.35 7.9" fill="#dcdcdc" fill-rule="evenodd" stroke="none"/>
    <path d="M0.1 -1.05 L-6.55 -4.6 6.65 -4.6 0.1 -1.05" fill="#dcdcdc" fill-rule="evenodd" stroke="none"/>
    <path d="M8.7 -3.5 L8.7 4.7 -8.6 4.7 -8.6 -3.5 0.1 1.15 8.7 -3.5" fill="#dcdcdc" fill-rule="evenodd" stroke="none"/>
  </g>
</svg>
