<?xml version="1.0" encoding="UTF-8" standalone="no"?>
<svg xmlns:ffdec="https://www.free-decompiler.com/flash" xmlns:xlink="http://www.w3.org/1999/xlink" ffdec:objectType="shape" height="24.4px" width="22.05px" xmlns="http://www.w3.org/2000/svg">
  <g transform="matrix(1.0, 0.0, 0.0, 1.0, 10.25, 11.7)">
    <path d="M6.3 -10.95 L6.55 -11.45 7.05 -11.7 11.0 -11.7 11.55 -11.45 11.75 -10.95 11.75 -10.1 11.6 -9.6 9.9 -7.65 11.05 -7.65 11.6 -7.4 11.8 -6.9 11.8 -6.0 11.6 -5.45 Q11.35 -5.25 11.05 -5.25 L6.85 -5.25 Q6.55 -5.25 6.35 -5.45 L6.1 -6.0 6.1 -6.8 4.65 -5.1 6.5 -5.1 7.05 -4.85 7.25 -4.35 7.25 -3.15 7.05 -2.6 6.5 -2.4 3.3 -2.4 3.3 12.0 3.1 12.5 3.1 12.55 2.55 12.7 -9.5 12.7 -10.0 12.55 -10.25 12.0 -10.25 -5.45 -10.0 -5.95 -10.0 -6.0 -9.5 -6.2 1.8 -6.2 2.95 -7.6 1.45 -7.6 Q1.15 -7.6 0.95 -7.8 0.7 -8.05 0.7 -8.35 L0.7 -9.55 0.95 -10.05 1.45 -10.3 6.3 -10.3 6.3 -10.95 M7.05 -10.05 L9.5 -10.05 6.85 -6.85 6.85 -6.0 11.05 -6.0 11.05 -6.9 8.3 -6.9 11.0 -10.1 11.0 -10.95 7.05 -10.95 7.05 -10.05 M7.2 -9.3 L7.2 -8.45 7.9 -9.3 7.2 -9.3 M6.45 -9.55 L1.45 -9.55 1.45 -8.35 4.55 -8.35 1.2 -4.3 1.2 -3.15 6.5 -3.15 6.5 -4.35 3.0 -4.35 6.45 -8.4 6.45 -9.55 M1.2 -5.45 L-9.5 -5.45 -9.5 12.0 2.55 12.0 2.55 -2.4 1.2 -2.4 1.05 -2.4 1.05 8.65 -8.0 8.65 -8.0 -4.1 0.45 -4.1 0.45 -4.3 0.65 -4.75 1.2 -5.45 M-3.5 9.25 Q-3.1 9.25 -2.75 9.6 -2.45 9.9 -2.45 10.35 -2.45 10.75 -2.75 11.1 L-3.5 11.35 -4.2 11.1 -4.5 10.35 -4.2 9.6 Q-3.9 9.25 -3.5 9.25" fill="#000000" fill-opacity="0.6" fill-rule="evenodd" stroke="none"/>
    <path d="M7.05 -10.05 L7.05 -10.95 11.0 -10.95 11.0 -10.1 8.3 -6.9 11.05 -6.9 11.05 -6.0 6.85 -6.0 6.85 -6.85 9.5 -10.05 7.05 -10.05 M6.45 -9.55 L6.45 -8.4 3.0 -4.35 6.5 -4.35 6.5 -3.15 1.2 -3.15 1.2 -4.3 4.55 -8.35 1.45 -8.35 1.45 -9.55 6.45 -9.55" fill="#ffffff" fill-opacity="0.49803922" fill-rule="evenodd" stroke="none"/>
    <path d="M-3.5 9.25 Q-3.9 9.25 -4.2 9.6 L-4.5 10.35 -4.2 11.1 -3.5 11.35 -2.75 11.1 Q-2.45 10.75 -2.45 10.35 -2.45 9.9 -2.75 9.6 -3.1 9.25 -3.5 9.25 M1.2 -5.45 L0.65 -4.75 0.45 -4.3 0.45 -4.1 -8.0 -4.1 -8.0 8.65 1.05 8.65 1.05 -2.4 1.2 -2.4 2.55 -2.4 2.55 12.0 -9.5 12.0 -9.5 -5.45 1.2 -5.45" fill="#ffffff" fill-opacity="0.39607844" fill-rule="evenodd" stroke="none"/>
  </g>
</svg>
