<?xml version="1.0" encoding="UTF-8" standalone="no"?>
<svg xmlns:ffdec="https://www.free-decompiler.com/flash" xmlns:xlink="http://www.w3.org/1999/xlink" ffdec:objectType="shape" height="24.1px" width="21.6px" xmlns="http://www.w3.org/2000/svg">
  <g transform="matrix(1.0, 0.0, 0.0, 1.0, 9.3, 12.0)">
    <path d="M0.9 -6.5 Q3.25 -3.8 3.25 -0.2 3.25 3.8 0.85 6.6 L-1.2 4.4 Q0.35 2.5 0.35 -0.1 0.35 -2.5 -1.0 -4.4 L0.9 -6.5" fill="#ffffff" fill-opacity="0.39607844" fill-rule="evenodd" stroke="none"/>
    <path d="M4.6 -0.1 Q4.6 4.5 1.75 7.6 L1.2 8.0 0.45 8.0 -0.1 7.6 -2.1 5.4 Q-2.6 4.9 -2.5 4.4 -2.7 3.8 -2.2 3.3 -1.55 2.4 -1.2 1.4 L-1.0 -0.2 Q-1.0 -1.2 -1.4 -2.0 -1.55 -2.8 -2.05 -3.3 -2.4 -3.9 -2.3 -4.4 -2.3 -5.0 -1.95 -5.4 L0.0 -7.5 0.55 -7.9 1.3 -7.9 2.05 -7.5 Q4.55 -4.4 4.7 -0.2 L4.6 -0.1 M0.9 -6.5 L-1.0 -4.4 Q0.35 -2.5 0.35 -0.1 0.35 2.5 -1.2 4.4 L0.85 6.6 Q3.25 3.8 3.25 -0.2 3.25 -3.8 0.9 -6.5" fill="#000000" fill-opacity="0.6" fill-rule="evenodd" stroke="none"/>
    <path d="M7.5 -11.6 Q12.3 -6.8 12.3 0.0 12.3 6.6 7.5 11.4 L7.3 11.6 Q6.9 12.0 6.2 12.1 5.6 12.1 5.1 11.6 L3.4 9.9 Q3.0 9.5 3.0 8.9 3.0 8.1 3.4 7.7 L3.6 7.5 Q6.8 4.3 6.8 -0.1 L6.7 -0.2 Q6.8 -4.5 3.6 -7.7 3.2 -8.1 3.2 -8.7 3.2 -9.5 3.6 -9.9 L5.4 -11.7 Q5.8 -12.1 6.5 -12.0 7.1 -12.0 7.5 -11.6 M8.3 -0.2 Q8.3 5.0 4.7 8.6 L4.5 8.8 6.2 10.5 6.4 10.3 Q10.8 5.9 10.8 -0.1 10.9 -6.2 6.5 -10.6 L4.7 -8.8 Q8.3 -5.2 8.3 -0.2" fill="#000000" fill-opacity="0.6" fill-rule="evenodd" stroke="none"/>
    <path d="M8.3 -0.2 Q8.3 -5.2 4.7 -8.8 L6.5 -10.6 Q10.9 -6.2 10.8 -0.1 10.8 5.9 6.4 10.3 L6.2 10.5 4.5 8.8 4.7 8.6 Q8.3 5.0 8.3 -0.2" fill="#ffffff" fill-opacity="0.39607844" fill-rule="evenodd" stroke="none"/>
    <path d="M-8.3 -2.6 Q-7.4 -3.3 -6.0 -3.3 -4.6 -3.3 -3.6 -2.6 L-3.5 -2.5 Q-2.7 -1.5 -2.6 0.0 -2.6 1.4 -3.5 2.4 -4.6 3.4 -6.0 3.4 -7.4 3.4 -8.4 2.4 -9.4 1.4 -9.3 0.0 -9.3 -1.5 -8.4 -2.5 L-8.3 -2.6 M-4.5 -1.4 L-4.6 -1.4 -6.0 -1.8 Q-6.8 -1.9 -7.4 -1.4 -7.9 -0.8 -7.8 0.0 -7.8 0.8 -7.3 1.3 -6.8 1.8 -6.0 1.9 -5.2 1.8 -4.6 1.3 -4.2 0.8 -4.1 0.0 -4.1 -0.8 -4.5 -1.4" fill="#000000" fill-opacity="0.6" fill-rule="evenodd" stroke="none"/>
    <path d="M-4.5 -1.4 Q-4.1 -0.8 -4.1 0.0 -4.2 0.8 -4.6 1.3 -5.2 1.8 -6.0 1.9 -6.8 1.8 -7.3 1.3 -7.8 0.8 -7.8 0.0 -7.9 -0.8 -7.4 -1.4 -6.8 -1.9 -6.0 -1.8 L-4.6 -1.4 -4.5 -1.4" fill="#ffffff" fill-opacity="0.4" fill-rule="evenodd" stroke="none"/>
  </g>
</svg>
