<?xml version="1.0" encoding="UTF-8" standalone="no"?>
<svg xmlns:ffdec="https://www.free-decompiler.com/flash" xmlns:xlink="http://www.w3.org/1999/xlink" ffdec:objectType="shape" height="41.55px" width="41.35px" xmlns="http://www.w3.org/2000/svg">
  <g transform="matrix(1.0, 0.0, 0.0, 1.0, 7.3, 34.15)">
    <path d="M23.4 -5.85 Q20.45 -14.15 13.6 -19.25 6.75 -24.4 -2.05 -24.95 L-2.15 -24.95 -2.75 -25.0 -3.35 -25.35 -3.6 -26.0 -3.6 -33.1 -3.35 -33.75 -2.75 -34.05 -1.65 -34.15 -1.6 -34.15 Q12.6 -33.6 22.85 -23.3 33.1 -12.95 34.05 1.85 L34.05 3.3 34.05 3.5 33.9 4.3 33.55 4.9 32.9 5.1 26.0 5.1 25.35 4.85 25.0 4.2 24.9 3.3 24.9 3.25 Q24.8 -1.95 23.4 -5.85 M5.15 -5.2 Q7.4 -3.05 7.4 -0.05 7.4 3.0 5.15 5.25 L5.15 5.2 Q2.9 7.45 -0.1 7.4 -3.1 7.35 -5.2 5.25 -7.3 3.1 -7.3 0.15 L-7.3 0.1 Q-7.35 -2.95 -5.3 -5.05 -3.25 -7.2 -0.25 -7.3 L-0.2 -7.3 Q2.9 -7.35 5.15 -5.2 M14.8 -20.85 Q22.15 -15.35 25.3 -6.5 26.8 -2.4 26.9 3.1 L32.05 3.1 32.05 1.95 Q31.2 -12.05 21.45 -21.9 11.75 -31.6 -1.6 -32.15 L-1.6 -26.9 Q7.6 -26.3 14.8 -20.85 M5.4 -0.05 Q5.4 -2.25 3.75 -3.75 2.1 -5.35 -0.15 -5.3 -2.35 -5.2 -3.85 -3.65 -5.35 -2.15 -5.3 0.1 -5.3 2.3 -3.75 3.85 L-3.8 3.85 Q-2.3 5.35 -0.05 5.4 2.1 5.45 3.75 3.8 5.4 2.2 5.4 -0.05 M21.2 4.4 L20.85 4.9 20.25 5.1 13.2 5.1 12.6 4.9 12.25 4.35 12.0 3.0 Q11.35 -3.45 7.55 -7.4 3.65 -11.35 -2.6 -12.0 -3.0 -12.0 -3.3 -12.3 L-3.6 -13.0 -3.6 -20.3 -3.3 -21.0 -2.6 -21.3 -1.75 -21.3 Q7.55 -20.8 14.35 -13.85 21.1 -6.9 21.45 2.4 L21.45 2.45 21.2 4.4 M14.05 3.1 L19.45 3.1 19.45 2.5 Q19.1 -6.1 12.9 -12.45 6.75 -18.7 -1.6 -19.25 L-1.6 -13.9 Q4.9 -13.0 9.0 -8.8 13.25 -4.45 14.0 2.8 L14.0 2.9 14.05 3.1" fill="#000001" fill-opacity="0.6" fill-rule="evenodd" stroke="none"/>
    <path d="M5.4 -0.05 Q5.4 2.2 3.75 3.8 2.1 5.45 -0.05 5.4 -2.3 5.35 -3.8 3.85 L-3.75 3.85 Q-5.3 2.3 -5.3 0.1 -5.35 -2.15 -3.85 -3.65 -2.35 -5.2 -0.15 -5.3 2.1 -5.35 3.75 -3.75 5.4 -2.25 5.4 -0.05 M14.8 -20.85 Q7.6 -26.3 -1.6 -26.9 L-1.6 -32.15 Q11.75 -31.6 21.45 -21.9 31.2 -12.05 32.05 1.95 L32.05 3.1 26.9 3.1 Q26.8 -2.4 25.3 -6.5 22.15 -15.35 14.8 -20.85 M14.05 3.1 L14.0 2.9 14.0 2.8 Q13.25 -4.45 9.0 -8.8 4.9 -13.0 -1.6 -13.9 L-1.6 -19.25 Q6.75 -18.7 12.9 -12.45 19.1 -6.1 19.45 2.5 L19.45 3.1 14.05 3.1" fill="#e03232" fill-opacity="0.6" fill-rule="evenodd" stroke="none"/>
  </g>
</svg>
