<?xml version="1.0" encoding="UTF-8" standalone="no"?>
<svg xmlns:ffdec="https://www.free-decompiler.com/flash" xmlns:xlink="http://www.w3.org/1999/xlink" ffdec:objectType="shape" height="24.6px" width="23.0px" xmlns="http://www.w3.org/2000/svg">
  <g transform="matrix(1.0, 0.0, 0.0, 1.0, 11.55, 12.25)">
    <path d="M9.8 -7.55 Q9.7 -8.9 8.65 -9.8 7.65 -10.7 6.25 -10.6 4.85 -10.55 3.85 -9.6 5.3 -9.0 6.0 -8.5 L7.7 -7.05 9.15 -5.2 Q9.95 -6.3 9.8 -7.55 M9.7 -11.0 Q11.2 -9.7 11.4 -7.75 11.6 -5.85 10.55 -4.25 L10.65 -4.35 10.15 -3.8 9.9 -3.4 9.9 -2.9 10.05 -2.55 10.05 -2.6 10.5 0.5 Q10.5 3.65 8.65 6.35 8.45 6.6 8.5 6.95 L8.8 7.5 10.85 9.55 Q11.6 10.3 11.2 11.4 10.75 12.35 9.7 12.35 L7.55 12.35 Q6.95 12.35 6.45 11.95 L6.4 11.9 4.95 10.4 Q4.8 10.2 4.55 10.15 L4.05 10.15 3.35 10.4 3.3 10.4 Q0.0 11.6 -3.4 10.4 L-3.35 10.45 -4.05 10.2 -4.55 10.15 -5.0 10.4 -6.5 11.95 Q-7.0 12.35 -7.65 12.35 L-9.75 12.35 Q-10.85 12.35 -11.3 11.4 L-11.3 11.35 Q-11.7 10.3 -10.9 9.55 L-8.85 7.5 -8.6 6.95 Q-8.55 6.6 -8.75 6.35 -10.6 3.65 -10.6 0.5 -10.6 -1.0 -10.1 -2.6 L-9.95 -2.95 -9.95 -3.4 -10.15 -3.75 -10.6 -4.3 -10.55 -4.25 Q-11.7 -5.85 -11.5 -7.75 -11.3 -9.7 -9.8 -11.0 -8.4 -12.25 -6.45 -12.25 -4.4 -12.25 -2.95 -10.9 L-2.5 -10.3 -2.05 -9.95 -1.5 -9.9 -1.1 -9.95 -1.2 -9.95 Q0.0 -10.15 1.1 -9.95 L1.25 -9.95 1.65 -9.9 2.1 -10.0 2.4 -10.3 2.85 -10.9 Q4.3 -12.25 6.35 -12.25 8.3 -12.25 9.7 -11.0 M-9.75 10.7 L-7.65 10.7 -6.25 9.3 -7.4 8.4 -9.75 10.7 M-8.75 -9.8 Q-9.7 -8.9 -9.85 -7.55 -10.0 -6.2 -9.25 -5.2 L-7.8 -7.05 -6.05 -8.5 -3.95 -9.6 Q-4.9 -10.55 -6.35 -10.6 -7.75 -10.7 -8.75 -9.8 M6.15 9.3 L7.55 10.7 9.7 10.7 7.3 8.4 6.15 9.3 M6.0 0.15 L6.0 2.45 -1.25 2.45 -1.25 -6.35 1.15 -6.35 1.15 0.15 6.0 0.15 M5.0 -6.85 L3.0 -7.85 0.95 -8.3 0.0 -8.4 -1.05 -8.3 -3.05 -7.85 Q-4.1 -7.5 -5.1 -6.8 L-6.35 -5.75 -7.75 -4.0 -8.55 -2.05 Q-8.95 -0.9 -8.95 0.5 -8.95 3.15 -7.4 5.4 L-6.25 6.8 -6.15 6.85 -6.05 7.0 -4.85 7.85 -4.75 8.0 -4.6 8.05 Q-3.65 8.65 -2.9 8.85 L0.0 9.35 2.8 8.9 4.5 8.05 4.75 7.95 6.0 7.0 6.15 6.8 7.3 5.4 Q8.85 3.15 8.85 0.5 8.85 -0.9 8.45 -2.05 L7.65 -4.0 6.3 -5.75 5.0 -6.85" fill="#000000" fill-rule="evenodd" stroke="none"/>
    <path d="M8.7 -9.8 Q9.7 -8.95 9.85 -7.6 9.95 -6.3 9.2 -5.25 L7.7 -7.1 6.0 -8.55 3.9 -9.65 Q4.85 -10.6 6.25 -10.65 7.65 -10.7 8.7 -9.8 M6.0 2.4 L6.0 0.1 1.15 0.1 1.15 -6.4 -1.2 -6.4 -1.2 2.4 6.0 2.4 M3.0 -7.9 Q3.9 -7.6 5.05 -6.9 L6.3 -5.8 7.65 -4.0 8.5 -2.1 8.85 0.45 Q8.85 3.1 7.35 5.35 L6.2 6.75 6.0 6.95 4.8 7.9 Q4.7 8.0 4.55 8.05 L2.8 8.85 0.0 9.3 -2.85 8.8 Q-3.6 8.6 -4.6 8.05 L-4.7 7.95 -6.05 6.95 -6.1 6.8 -6.25 6.75 -7.4 5.35 Q-8.9 3.1 -8.9 0.45 -8.9 -0.95 -8.55 -2.1 L-7.7 -4.0 -6.3 -5.8 -5.1 -6.8 Q-4.05 -7.55 -3.05 -7.9 L-1.0 -8.35 0.0 -8.4 0.95 -8.35 3.0 -7.9 M-9.75 10.65 L-7.4 8.35 -6.25 9.25 -7.65 10.65 -9.75 10.65 M-6.05 -8.55 L-7.75 -7.1 -9.25 -5.25 Q-10.0 -6.25 -9.8 -7.6 -9.7 -8.95 -8.7 -9.8 -7.7 -10.7 -6.3 -10.65 -4.9 -10.6 -3.95 -9.65 L-6.05 -8.55 M6.2 9.25 L7.35 8.35 9.7 10.65 7.6 10.65 6.2 9.25" fill="#dcdcdc" fill-rule="evenodd" stroke="none"/>
  </g>
</svg>
