<?xml version="1.0" encoding="UTF-8" standalone="no"?>
<svg xmlns:ffdec="https://www.free-decompiler.com/flash" xmlns:xlink="http://www.w3.org/1999/xlink" ffdec:objectType="shape" height="295.45px" width="128.95px" xmlns="http://www.w3.org/2000/svg">
  <g transform="matrix(1.0, 0.0, 0.0, 1.0, 63.95, 172.95)">
    <path d="M-63.95 -172.95 L65.0 -172.95 65.0 122.5 38.55 122.5 22.55 106.5 22.55 84.5 12.05 84.5 1.05 82.0 Q-2.95 83.5 -6.95 84.5 L-17.95 84.5 -17.95 106.5 Q-25.45 114.5 -33.45 122.5 L-63.95 122.5 -63.95 -172.95" fill="#424242" fill-rule="evenodd" stroke="none"/>
    <path d="M7.55 -167.45 L7.55 -169.95 21.05 -169.95 21.05 -167.45 24.05 -167.45 24.05 -116.45 49.5 -116.45 49.5 -78.95 44.05 -78.95 44.05 -66.95 49.5 -66.95 49.5 -7.45 38.55 -7.45 38.55 -4.45 60.5 -4.45 60.5 121.0 40.05 121.0 24.55 106.0 24.55 84.5 25.05 84.5 25.05 80.5 12.05 80.5 2.05 82.0 -6.95 80.5 -21.45 80.5 -21.45 84.5 -20.45 84.5 -20.45 106.0 Q-27.45 113.5 -34.95 121.0 L-58.95 121.0 -58.95 -4.45 -49.45 -4.45 -49.45 -15.95 -55.95 -15.95 -55.95 -72.45 -40.95 -72.45 -40.95 -116.45 5.05 -116.45 5.05 -128.45 2.05 -128.45 2.05 -153.95 5.05 -153.95 5.05 -167.45 7.55 -167.45" fill="#959595" fill-rule="evenodd" stroke="none"/>
    <path d="M34.05 14.05 L34.05 16.05 38.55 16.05 38.55 50.5 34.05 50.5 34.05 54.0 19.55 54.0 19.55 50.5 15.05 50.5 15.05 16.05 19.55 16.05 19.55 14.05 34.05 14.05" fill="#6f6f6f" fill-rule="evenodd" stroke="none"/>
    <path d="M-32.95 50.5 L-32.95 29.55 -9.95 29.55 -9.95 50.5 -32.95 50.5" fill="#6f6f6f" fill-rule="evenodd" stroke="none"/>
    <path d="M-52.45 57.0 L-52.45 74.5 -58.95 74.5 -58.95 57.0 -52.45 57.0" fill="#6f6f6f" fill-rule="evenodd" stroke="none"/>
    <path d="M-52.95 -4.45 L-52.95 17.55 -58.45 17.55 -58.45 -4.45 -52.95 -4.45" fill="#6f6f6f" fill-rule="evenodd" stroke="none"/>
    <path d="M-51.45 19.05 L-51.45 41.05 -56.95 41.05 -56.95 19.05 -51.45 19.05" fill="#6f6f6f" fill-rule="evenodd" stroke="none"/>
    <path d="M-10.45 15.55 L-31.95 13.05 Q-31.45 10.55 -31.45 7.55 L-9.95 10.05 Q-9.95 13.05 -10.45 15.55" fill="#6f6f6f" fill-rule="evenodd" stroke="none"/>
    <path d="M-55.95 47.5 L-55.95 53.0 -58.95 53.0 -58.95 47.5 -55.95 47.5" fill="#6f6f6f" fill-rule="evenodd" stroke="none"/>
    <path d="M-54.95 91.0 L-54.95 96.0 -58.95 96.0 -58.95 91.0 -54.95 91.0" fill="#6f6f6f" fill-rule="evenodd" stroke="none"/>
    <path d="M-57.45 87.5 Q-54.45 84.0 -51.95 80.5 L-44.95 86.5 Q-47.45 90.0 -50.45 93.5 L-57.45 87.5" fill="#6f6f6f" fill-rule="evenodd" stroke="none"/>
    <path d="M-56.95 98.5 L-52.45 95.5 -47.95 102.0 Q-49.95 103.5 -51.95 104.5 L-54.95 105.5 -52.45 105.5 -52.45 120.0 -58.95 120.0 -58.95 105.5 -55.45 105.5 -58.95 101.5 -56.95 98.5" fill="#6f6f6f" fill-rule="evenodd" stroke="none"/>
    <path d="M54.5 107.5 L54.5 90.0 60.5 90.0 60.5 107.5 54.5 107.5" fill="#6f6f6f" fill-rule="evenodd" stroke="none"/>
    <path d="M59.5 64.0 L59.5 87.5 53.5 87.5 53.5 64.0 59.5 64.0" fill="#6f6f6f" fill-rule="evenodd" stroke="none"/>
    <path d="M59.5 40.05 L59.5 63.0 53.5 63.0 53.5 40.05 59.5 40.05" fill="#6f6f6f" fill-rule="evenodd" stroke="none"/>
    <path d="M55.0 -3.45 L60.5 -3.45 60.5 36.55 55.0 36.55 55.0 -3.45" fill="#6f6f6f" fill-rule="evenodd" stroke="none"/>
    <path d="M44.05 -33.45 L44.05 -54.45 49.5 -54.45 49.5 -33.45 44.05 -33.45" fill="#6f6f6f" fill-rule="evenodd" stroke="none"/>
    <path d="M-48.95 -71.45 L-48.95 -64.95 -55.95 -64.95 -55.95 -71.45 -48.95 -71.45" fill="#6f6f6f" fill-rule="evenodd" stroke="none"/>
    <path d="M-49.45 -63.45 L-49.45 -15.95 -55.95 -15.95 -55.95 -63.45 -49.45 -63.45" fill="#6f6f6f" fill-rule="evenodd" stroke="none"/>
    <path d="M-30.45 -59.95 L-30.45 -16.95 -37.45 -16.95 -37.45 -59.95 -30.45 -59.95" fill="#6f6f6f" fill-rule="evenodd" stroke="none"/>
    <path d="M-32.45 -104.95 L-32.45 -73.45 -40.95 -73.45 -40.95 -104.95 -32.45 -104.95" fill="#6f6f6f" fill-rule="evenodd" stroke="none"/>
    <path d="M1.05 -87.45 L-7.95 -65.95 Q-10.45 -66.95 -13.45 -68.45 L-4.45 -89.45 1.05 -87.45" fill="#6f6f6f" fill-rule="evenodd" stroke="none"/>
    <path d="M24.05 -154.45 L24.05 -131.45 18.05 -131.45 18.05 -154.45 24.05 -154.45" fill="#6f6f6f" fill-rule="evenodd" stroke="none"/>
    <path d="M-13.95 -20.45 Q-9.45 -30.95 -5.45 -41.95 L0.55 -39.95 -8.45 -18.45 -13.95 -20.45" fill="#6f6f6f" fill-rule="evenodd" stroke="none"/>
    <path d="M21.55 -45.95 L26.05 -22.45 20.55 -21.45 Q18.55 -32.95 16.05 -44.95 L21.55 -45.95" fill="#6f6f6f" fill-rule="evenodd" stroke="none"/>
    <path d="M-7.45 -116.45 L-7.45 -107.45 -40.95 -107.45 -40.95 -116.45 -7.45 -116.45" fill="#6f6f6f" fill-rule="evenodd" stroke="none"/>
    <path d="M21.05 -59.95 L25.05 -73.95 Q28.05 -72.95 31.05 -72.45 L27.05 -58.45 Q24.05 -58.95 21.05 -59.95" fill="#6f6f6f" fill-rule="evenodd" stroke="none"/>
    <path d="M22.05 -93.45 L28.05 -93.95 29.05 -79.45 23.05 -78.95 22.05 -93.45" fill="#6f6f6f" fill-rule="evenodd" stroke="none"/>
    <path d="M-31.45 -14.95 L-31.45 -11.95 -33.95 -11.95 -33.95 -14.95 -31.45 -14.95" fill="#6f6f6f" fill-rule="evenodd" stroke="none"/>
    <path d="M-33.45 -64.45 Q-32.95 -63.95 -32.45 -63.95 -31.95 -62.95 -31.95 -61.95 L-32.95 -60.95 Q-33.45 -60.45 -34.45 -60.45 L-35.45 -61.45 Q-35.45 -61.95 -35.95 -62.95 -35.45 -63.45 -34.95 -64.45 L-33.45 -64.45" fill="#6f6f6f" fill-rule="evenodd" stroke="none"/>
    <path d="M-0.45 -100.45 Q0.55 -99.95 1.05 -99.45 L1.05 -97.95 Q1.05 -97.45 0.55 -96.95 0.05 -96.45 -0.95 -96.45 -1.45 -96.95 -2.45 -97.45 -2.45 -97.95 -2.95 -98.95 -2.45 -99.45 -1.95 -100.45 L-0.45 -100.45" fill="#6f6f6f" fill-rule="evenodd" stroke="none"/>
    <path d="M26.05 -110.95 L25.05 -111.95 24.55 -113.45 Q25.05 -113.95 25.55 -114.95 L27.05 -114.95 28.05 -113.95 28.55 -112.45 27.55 -111.45 Q27.05 -110.95 26.05 -110.95" fill="#6f6f6f" fill-rule="evenodd" stroke="none"/>
    <path d="M-11.45 -17.95 Q-10.95 -17.45 -10.95 -16.95 L-10.95 -15.45 Q-11.45 -14.95 -11.95 -14.95 L-13.45 -14.95 Q-13.45 -15.45 -13.95 -16.45 L-13.95 -17.45 -12.95 -18.45 Q-11.95 -17.95 -11.45 -17.95" fill="#6f6f6f" fill-rule="evenodd" stroke="none"/>
    <path d="M-5.45 -108.45 Q-5.95 -108.45 -6.45 -108.95 -6.45 -109.45 -6.95 -110.45 L-5.95 -111.45 Q-4.95 -111.45 -4.45 -111.95 L-3.45 -110.95 -3.45 -109.45 Q-3.45 -108.95 -3.95 -108.45 L-5.45 -108.45" fill="#6f6f6f" fill-rule="evenodd" stroke="none"/>
    <path d="M15.05 78.5 L14.05 78.5 14.05 74.5 15.05 74.5 15.05 78.5" fill="#6f6f6f" fill-rule="evenodd" stroke="none"/>
    <path d="M-8.95 78.5 L-9.95 78.5 -9.95 74.5 -8.95 74.5 -8.95 78.5" fill="#6f6f6f" fill-rule="evenodd" stroke="none"/>
    <path d="M47.5 -3.45 L47.5 2.55 40.05 2.55 40.05 -3.45 47.5 -3.45" fill="#6f6f6f" fill-rule="evenodd" stroke="none"/>
    <path d="M43.05 -7.95 L38.55 -12.45 Q41.55 -14.95 44.05 -17.95 L48.5 -12.95 43.05 -7.95" fill="#6f6f6f" fill-rule="evenodd" stroke="none"/>
    <path d="M12.05 84.5 L-6.95 84.5 -6.95 80.5 12.05 80.5 12.05 84.5" fill="#ffffff" fill-rule="evenodd" stroke="none"/>
  </g>
</svg>
