<?xml version="1.0" encoding="UTF-8" standalone="no"?>
<svg xmlns:ffdec="https://www.free-decompiler.com/flash" xmlns:xlink="http://www.w3.org/1999/xlink" ffdec:objectType="shape" height="1237.95px" width="510.0px" xmlns="http://www.w3.org/2000/svg">
  <g transform="matrix(1.0, 0.0, 0.0, 1.0, 255.0, 512.95)">
    <path d="M-182.4 -494.0 L-182.4 -512.95 174.6 -512.95 174.6 -494.0 255.0 -494.0 255.0 694.4 174.6 694.4 174.6 725.0 -182.4 725.0 -182.4 694.4 -255.0 694.4 -255.0 -494.0 -182.4 -494.0" fill="#434343" fill-rule="evenodd" stroke="none"/>
    <path d="M-41.9 312.5 L-37.95 312.5 -37.95 302.85 -28.45 302.85 -28.45 296.85 28.1 296.85 28.1 302.85 37.9 302.85 37.9 312.5 41.55 312.5 41.55 380.0 37.9 380.0 37.9 395.55 39.05 395.55 39.05 401.4 84.65 401.4 120.6 462.5 120.6 543.75 59.65 543.75 55.2 691.6 39.2 691.6 39.2 696.0 -39.4 696.0 -39.4 691.6 -120.75 691.6 -120.75 401.4 -39.7 401.4 -39.7 395.55 -37.95 395.55 -37.95 380.0 -41.9 380.0 -41.9 312.5" fill="#969696" fill-rule="evenodd" stroke="none"/>
    <path d="M51.55 438.35 L51.55 401.4 120.6 401.4 120.6 499.65 93.75 499.7 93.75 480.0 51.55 438.35" fill="#707070" fill-rule="evenodd" stroke="none"/>
    <path d="M-92.85 449.4 L-92.85 468.2 -45.35 523.75 -45.35 546.0 -42.2 546.0 -42.2 548.75 -45.35 548.75 -45.35 570.65 -92.85 627.2 -92.85 645.65 -120.65 645.65 -120.65 449.4 -92.85 449.4" fill="#707070" fill-rule="evenodd" stroke="none"/>
    <path d="M91.55 -100.85 L91.55 -91.55 96.75 -91.55 96.75 54.25 91.55 54.25 91.55 65.0 96.75 65.0 96.75 213.0 91.55 213.0 91.55 223.75 96.75 223.75 96.75 292.05 91.55 292.05 91.55 300.7 -92.85 300.7 -92.85 292.05 -97.0 292.05 -97.0 223.75 -92.85 223.75 -92.85 213.0 -97.0 213.0 -97.0 65.0 -92.85 65.0 -92.85 54.25 -97.0 54.25 -97.0 -91.55 -92.85 -91.55 -92.85 -100.85 91.55 -100.85" fill="#969696" fill-rule="evenodd" stroke="none"/>
    <path d="M-143.6 -299.5 L-120.85 -299.5 -120.85 -207.5 -143.6 -207.5 -143.6 -299.5" fill="#969696" fill-rule="evenodd" stroke="none"/>
    <path d="M120.6 -299.5 L142.65 -299.5 142.65 -207.5 120.6 -207.5 120.6 -299.5" fill="#969696" fill-rule="evenodd" stroke="none"/>
    <path d="M-55.65 -487.7 L-38.35 -487.7 -38.35 -496.85 -28.45 -496.85 -28.45 -503.15 28.1 -503.15 28.1 -496.85 37.7 -496.85 37.7 -487.7 55.2 -487.7 55.2 -419.95 37.9 -419.95 37.9 -404.45 39.05 -404.45 39.05 -398.65 120.6 -398.65 120.6 -327.5 119.35 -327.5 119.35 -303.75 104.35 -303.75 104.35 -299.5 120.6 -299.5 120.6 -207.5 105.0 -207.5 105.0 -203.25 120.0 -203.25 120.0 -180.3 120.6 -180.3 120.6 -108.4 39.2 -108.4 39.2 -104.0 28.1 -104.0 28.1 -91.2 -28.45 -91.2 -28.45 -104.0 -39.4 -104.0 -39.4 -108.4 -120.85 -108.4 -120.85 -203.25 -105.95 -203.25 -105.95 -207.5 -120.85 -207.5 -120.85 -299.5 -105.3 -299.5 -105.3 -303.75 -120.3 -303.75 -120.3 -327.5 -120.85 -327.5 -120.85 -398.65 -39.7 -398.65 -39.7 -404.45 -37.95 -404.45 -37.95 -419.95 -55.65 -419.95 -55.65 -487.7" fill="#969696" fill-rule="evenodd" stroke="none"/>
    <path d="M119.35 -303.75 L104.35 -303.75 104.35 -299.5 142.65 -299.5 142.65 -207.5 105.0 -207.5 105.0 -203.25 120.0 -203.25 120.0 -180.3 148.1 -180.3 148.1 -108.4 90.0 -108.4 90.0 -398.65 148.1 -398.65 148.1 -327.5 119.35 -327.5 119.35 -303.75" fill="#707070" fill-rule="evenodd" stroke="none"/>
    <path d="M-150.0 -327.5 L-150.0 -398.65 -76.9 -398.65 -76.9 -301.85 -91.25 -287.15 -91.25 -219.95 -76.9 -205.25 -76.9 -108.4 -150.0 -108.4 -150.0 -180.3 -120.95 -180.3 -120.95 -203.25 -105.95 -203.25 -105.95 -207.5 -143.6 -207.5 -143.6 -299.5 -105.3 -299.5 -105.3 -303.75 -120.3 -303.75 -120.3 -327.5 -150.0 -327.5" fill="#707070" fill-rule="evenodd" stroke="none"/>
    <path d="M-28.45 -512.95 L28.1 -512.95 28.1 -503.15 -28.45 -503.15 -28.45 -512.95" fill="#ffffff" fill-rule="evenodd" stroke="none"/>
  </g>
</svg>
