<?xml version="1.0" encoding="UTF-8" standalone="no"?>
<svg xmlns:ffdec="https://www.free-decompiler.com/flash" xmlns:xlink="http://www.w3.org/1999/xlink" ffdec:objectType="shape" height="128.0px" width="129.35px" xmlns="http://www.w3.org/2000/svg">
  <g transform="matrix(1.0, 0.0, 0.0, 1.0, 64.65, 64.0)">
    <path d="M8.9 -52.55 L8.9 -54.25 0.7 -54.25 0.7 -27.75 8.9 -27.75 8.9 -47.6 10.9 -47.6 10.9 -27.75 19.15 -27.75 19.15 -50.9 19.1 -51.45 18.95 -52.0 18.7 -52.5 18.35 -52.9 18.0 -53.25 17.55 -53.5 17.15 -53.75 16.7 -53.95 16.2 -54.05 15.8 -54.15 15.4 -54.2 15.05 -54.25 11.45 -53.8 Q9.95 -53.4 8.9 -52.55 M16.75 -57.15 L17.2 -57.05 17.6 -56.9 18.05 -56.7 18.5 -56.55 18.9 -56.3 19.35 -56.1 19.7 -55.8 20.1 -55.5 20.55 -55.85 20.95 -56.15 21.45 -56.45 21.95 -56.7 22.5 -56.9 23.05 -57.05 23.55 -57.2 24.15 -57.3 24.7 -57.35 25.3 -57.35 28.35 -57.35 28.35 -64.0 42.85 -64.0 42.85 -24.65 -8.25 -24.65 -8.25 -22.4 -4.8 -22.4 -4.3 -22.35 -3.8 -22.3 -3.3 -22.2 -2.85 -22.1 -2.35 -21.95 -1.9 -21.75 -1.4 -21.55 -1.0 -21.3 -0.55 -21.0 -0.15 -20.7 0.25 -21.0 0.7 -21.3 1.15 -21.6 1.65 -21.8 2.15 -22.0 2.7 -22.15 3.25 -22.3 3.8 -22.35 4.35 -22.45 4.9 -22.45 15.6 -22.45 16.35 -22.35 16.8 -22.25 17.3 -22.15 17.85 -22.0 18.4 -21.8 20.3 -20.65 20.75 -21.0 21.2 -21.3 21.65 -21.55 22.15 -21.8 22.7 -22.0 23.2 -22.15 23.75 -22.3 24.3 -22.35 24.9 -22.45 25.45 -22.45 40.05 -22.45 40.05 -23.65 54.5 -23.65 54.5 -20.75 64.7 -20.75 64.7 3.9 64.45 5.85 63.65 7.45 62.45 8.7 60.95 9.6 60.15 9.9 59.3 10.15 58.4 10.25 57.5 10.3 46.8 10.3 46.0 10.2 45.55 10.15 45.05 10.0 44.5 9.85 43.95 9.65 43.4 9.4 42.85 9.05 42.3 8.7 41.8 8.2 Q40.9 7.35 40.5 6.25 40.05 5.2 40.05 3.9 L40.05 -1.3 32.7 -1.3 32.7 7.4 33.5 7.55 34.2 7.75 34.95 8.05 35.6 8.45 36.25 8.85 36.8 9.35 37.75 10.55 38.1 11.25 38.35 12.0 38.55 12.85 38.6 13.75 38.6 33.55 38.3 35.45 37.55 37.0 50.6 37.0 51.15 37.05 51.7 37.15 52.2 37.35 52.7 37.55 53.1 37.85 53.5 38.2 53.85 38.6 54.15 39.05 54.4 39.55 54.6 40.05 54.7 40.6 54.75 41.15 54.75 59.85 54.7 60.4 54.6 60.95 54.4 61.45 54.15 61.95 53.85 62.35 53.5 62.75 53.1 63.1 52.7 63.4 52.2 63.65 51.7 63.85 51.15 63.95 50.6 64.0 -58.5 64.0 -60.9 63.5 -62.85 62.2 -64.15 60.25 Q-64.65 59.1 -64.65 57.85 L-64.65 43.15 -64.6 42.3 -64.4 41.55 -64.15 40.75 -63.8 40.05 -62.85 38.8 -61.6 37.85 -60.9 37.5 -60.1 37.25 -59.3 37.05 -58.5 37.0 -48.7 37.0 -49.45 35.45 -49.75 33.55 -49.75 13.7 -49.45 11.8 -48.65 10.15 -47.5 8.9 -46.0 8.0 -45.2 7.7 -44.3 7.45 -43.45 7.3 -42.55 7.25 -42.3 7.25 -43.0 5.75 -43.25 3.9 -43.25 -7.9 -45.3 -7.9 -45.3 -16.4 -64.05 -16.4 -64.05 -50.95 -64.0 -51.7 -63.8 -52.5 -63.55 -53.25 -63.15 -54.0 -62.05 -55.3 -60.65 -56.4 Q-59.85 -56.85 -58.85 -57.1 L-56.85 -57.4 -39.25 -57.4 -39.25 -57.35 -25.85 -57.35 -25.45 -57.3 -25.15 -57.3 -23.9 -57.05 -23.4 -56.95 -22.9 -56.75 -22.35 -56.55 -21.85 -56.3 -21.3 -55.95 -20.8 -55.55 -20.4 -55.9 -19.95 -56.2 -19.45 -56.45 -18.95 -56.7 -18.45 -56.9 -17.9 -57.05 -17.4 -57.2 -16.8 -57.3 -16.25 -57.35 -15.7 -57.35 -5.4 -57.35 -4.9 -57.35 -4.4 -57.3 -3.9 -57.2 -3.4 -57.1 -2.9 -57.0 -2.4 -56.8 -2.4 -57.35 12.05 -57.35 12.05 -57.1 15.05 -57.35 15.45 -57.35 15.9 -57.3 16.3 -57.25 16.75 -57.15 M25.1 -54.25 L24.65 -54.2 24.0 -54.1 23.6 -54.0 23.2 -53.85 22.85 -53.65 22.45 -53.45 22.1 -53.15 21.8 -52.85 21.55 -52.45 21.35 -52.0 21.2 -51.5 21.15 -50.9 21.15 -31.05 21.2 -30.45 21.35 -29.95 21.55 -29.5 21.8 -29.15 22.1 -28.85 22.45 -28.55 22.85 -28.35 23.2 -28.15 23.6 -28.05 24.0 -27.9 24.65 -27.8 25.1 -27.75 39.75 -27.75 39.75 -60.9 31.45 -60.9 31.45 -54.25 25.1 -54.25 M31.45 -47.6 L31.45 -34.25 29.45 -34.25 29.45 -47.6 31.45 -47.6 M16.45 -19.15 L16.15 -19.25 15.8 -19.3 15.35 -19.35 4.7 -19.35 4.25 -19.3 3.95 -19.25 3.6 -19.15 3.25 -19.05 2.85 -18.9 2.45 -18.75 2.1 -18.5 1.75 -18.25 1.45 -17.9 1.15 -17.55 0.95 -17.1 0.85 -16.55 0.8 -16.0 0.8 3.9 0.85 4.5 0.95 5.0 1.15 5.45 1.45 5.85 1.75 6.15 2.1 6.4 2.45 6.65 2.85 6.8 3.25 6.95 3.6 7.05 3.95 7.15 4.25 7.2 4.75 7.25 15.35 7.25 15.8 7.2 16.15 7.15 16.45 7.05 16.85 6.95 17.2 6.8 17.6 6.65 18.0 6.4 18.3 6.15 18.65 5.85 18.9 5.45 19.1 5.0 19.25 4.5 19.3 3.9 19.3 -1.05 11.05 -1.05 11.05 0.6 9.05 0.6 9.05 -2.7 19.25 -2.7 19.3 -2.75 19.3 -16.0 19.25 -16.6 19.1 -17.1 18.9 -17.55 18.65 -17.9 18.3 -18.25 18.0 -18.55 17.6 -18.75 17.2 -18.9 16.85 -19.05 16.45 -19.15 M9.05 -12.65 L11.05 -12.65 11.05 -9.4 9.05 -9.4 9.05 -12.65 M39.9 -12.65 L39.9 -19.35 25.25 -19.35 24.8 -19.3 24.5 -19.25 24.15 -19.15 23.75 -19.05 23.4 -18.9 23.0 -18.75 22.65 -18.5 22.3 -18.25 21.95 -17.9 21.7 -17.55 21.5 -17.1 21.35 -16.55 21.3 -16.0 21.3 7.25 29.6 7.25 29.6 -4.4 39.9 -4.4 39.9 -11.05 29.6 -11.05 29.6 -12.65 39.9 -12.65 M51.4 -17.65 L51.4 -20.55 43.15 -20.55 43.15 -17.65 41.15 -17.65 41.1 -17.6 41.1 -11.0 43.15 -11.0 43.15 3.9 43.2 4.5 43.35 5.0 43.55 5.45 43.8 5.8 44.1 6.15 44.45 6.4 44.8 6.6 45.2 6.8 45.6 6.95 45.95 7.05 46.6 7.15 47.1 7.2 57.7 7.2 58.2 7.15 58.85 7.05 59.2 6.95 59.6 6.8 59.95 6.6 60.35 6.4 60.7 6.15 61.0 5.8 61.25 5.45 61.45 5.0 61.55 4.5 61.6 3.9 61.6 -9.4 53.4 -9.4 53.4 0.55 51.4 0.55 51.4 -11.0 61.6 -11.0 61.6 -17.65 51.4 -17.65 M46.15 47.55 L45.8 47.5 40.25 47.5 40.25 45.8 50.6 45.8 50.9 45.75 51.2 45.6 51.4 45.35 51.6 45.1 51.65 44.75 51.65 41.15 51.6 40.8 51.4 40.55 51.2 40.3 50.9 40.15 50.6 40.1 34.75 40.1 34.4 40.15 34.1 40.3 33.9 40.55 33.75 40.8 33.7 41.15 33.7 59.85 Q33.7 60.3 34.0 60.6 34.3 60.85 34.75 60.9 L50.6 60.9 50.9 60.85 51.2 60.7 51.4 60.45 51.6 60.15 51.65 59.85 51.65 56.0 51.6 55.65 51.4 55.35 51.2 55.15 50.9 55.0 50.6 54.95 40.25 54.95 40.25 53.2 45.8 53.2 46.15 53.15 46.45 53.0 46.65 52.8 46.8 52.5 46.85 52.15 46.85 48.55 46.8 48.25 46.65 47.95 46.45 47.7 46.15 47.55 M59.15 39.95 L59.15 41.65 58.95 41.65 58.95 40.3 58.45 41.65 58.25 41.65 57.75 40.3 57.75 41.65 57.5 41.65 57.5 39.95 57.85 39.95 58.35 41.35 58.85 39.95 59.15 39.95 M57.3 39.95 L57.3 40.15 56.75 40.15 56.75 41.65 56.55 41.65 56.55 40.15 56.0 40.15 56.0 39.95 57.3 39.95 M32.0 10.45 L31.55 10.4 20.95 10.4 20.45 10.45 19.8 10.6 19.45 10.7 19.05 10.8 18.65 11.0 18.3 11.2 17.95 11.5 17.65 11.8 17.35 12.2 17.15 12.65 17.05 13.15 17.0 13.75 17.0 33.55 17.05 34.15 17.15 34.65 17.35 35.1 17.65 35.5 17.95 35.8 18.3 36.05 18.65 36.3 19.05 36.45 19.45 36.6 19.8 36.7 20.7 36.85 31.55 36.85 32.0 36.8 32.7 36.7 33.05 36.6 33.45 36.45 33.8 36.3 34.2 36.05 34.55 35.8 34.85 35.5 35.1 35.1 35.3 34.65 35.45 34.15 35.5 33.55 35.5 13.75 35.45 13.15 35.3 12.65 35.1 12.2 34.85 11.8 34.55 11.45 34.2 11.2 33.8 11.0 33.45 10.8 33.05 10.65 32.7 10.55 32.0 10.45 M25.25 17.05 L27.25 17.05 27.25 30.25 25.25 30.25 25.25 17.05 M4.7 12.0 L4.7 9.0 -3.5 9.0 -3.55 9.05 -3.55 12.0 -5.55 12.0 -5.6 12.05 -5.6 18.65 -3.55 18.65 -3.55 33.6 -3.5 34.15 -3.35 34.65 -3.15 35.1 -2.9 35.45 -2.6 35.75 -2.25 36.05 -1.9 36.25 -1.5 36.45 -1.1 36.55 -0.75 36.65 -0.4 36.75 -0.1 36.8 0.35 36.85 11.0 36.85 11.45 36.8 12.1 36.7 12.5 36.6 12.85 36.45 13.25 36.3 13.6 36.05 13.95 35.8 14.25 35.5 14.55 35.1 14.75 34.65 14.85 34.15 14.9 33.6 14.9 20.25 6.7 20.25 6.7 30.25 4.7 30.25 4.7 18.65 14.9 18.65 14.9 12.0 4.7 12.0 M0.3 55.15 L0.0 55.0 -0.3 54.95 -9.85 54.95 -9.9 54.9 -9.9 41.15 -9.95 40.8 -10.1 40.55 -10.35 40.3 -10.65 40.15 -10.95 40.1 -15.45 40.1 -15.8 40.15 -16.05 40.3 -16.3 40.55 -16.45 40.8 -16.5 41.15 -16.5 59.85 -16.2 60.6 -15.45 60.9 -0.3 60.9 0.0 60.85 0.3 60.7 0.55 60.45 0.7 60.15 0.75 59.85 0.75 56.0 0.7 55.65 0.55 55.35 0.3 55.15 M16.6 40.65 L16.4 40.45 16.15 40.35 15.9 40.2 15.6 40.15 15.35 40.1 12.6 40.1 12.3 40.15 12.0 40.3 11.8 40.55 11.65 40.8 11.55 41.15 11.55 59.85 Q11.6 60.3 11.9 60.6 L12.6 60.9 16.8 60.9 17.1 60.85 17.4 60.7 17.6 60.45 17.75 60.15 17.85 59.85 17.85 51.6 26.5 60.35 26.8 60.55 27.1 60.75 27.45 60.85 27.8 60.9 30.5 60.9 30.85 60.85 31.1 60.7 31.35 60.45 31.5 60.15 31.55 59.85 31.55 41.15 31.5 40.8 31.35 40.55 31.1 40.3 30.85 40.15 30.5 40.1 26.35 40.1 26.0 40.15 25.75 40.3 25.5 40.55 25.35 40.8 25.3 41.15 25.3 49.35 16.6 40.65 M9.4 41.15 L9.35 40.8 9.25 40.55 9.0 40.3 8.7 40.15 8.4 40.1 3.9 40.1 3.55 40.15 3.25 40.3 3.05 40.55 2.9 40.8 2.85 41.15 2.85 59.85 Q2.85 60.3 3.15 60.6 3.45 60.85 3.9 60.9 L8.4 60.9 8.7 60.85 9.0 60.7 9.25 60.45 9.35 60.15 9.4 59.85 9.4 41.15 M-25.7 -54.2 L-25.9 -54.25 -40.25 -54.25 -40.25 -22.45 -32.05 -22.45 -32.05 -37.65 -30.05 -37.65 -30.05 -22.75 -30.0 -22.2 -29.85 -21.7 -29.7 -21.25 -29.4 -20.85 -29.1 -20.55 -28.75 -20.25 -28.35 -20.05 -27.95 -19.85 -27.6 -19.75 -27.2 -19.65 -26.3 -19.45 -19.6 -19.45 -19.6 7.25 -11.35 7.25 -11.35 -12.65 -9.4 -12.65 -9.4 7.25 -1.15 7.25 -1.15 -15.95 -1.2 -16.5 -1.3 -17.05 -1.5 -17.5 -1.7 -17.85 -2.0 -18.2 -2.3 -18.45 -2.65 -18.65 -3.0 -18.85 -3.35 -19.0 -3.65 -19.1 -4.25 -19.2 -4.65 -19.25 -4.8 -19.3 -11.35 -19.3 -11.35 -26.05 -21.8 -26.05 -21.8 -39.35 -21.85 -39.8 -21.95 -40.25 -22.15 -40.55 -22.3 -40.85 -22.7 -41.2 -22.8 -41.25 -22.7 -41.35 -22.3 -41.6 -21.95 -42.0 -21.85 -42.3 -21.8 -42.6 -21.8 -50.9 -21.85 -51.45 -22.0 -52.0 -22.2 -52.45 -22.45 -52.8 -22.75 -53.15 -23.1 -53.4 -23.45 -53.65 -23.85 -53.8 -24.25 -53.95 -24.6 -54.05 -24.95 -54.1 -25.25 -54.2 -25.7 -54.2 M-15.85 -54.25 L-16.3 -54.2 -16.65 -54.15 -17.0 -54.05 -17.35 -53.95 -17.75 -53.85 -18.15 -53.65 -18.5 -53.45 -18.85 -53.15 -19.15 -52.85 -19.4 -52.45 -19.6 -52.0 -19.75 -51.5 -19.8 -50.9 -19.8 -46.0 -11.55 -46.0 -11.55 -47.6 -9.55 -47.6 -9.55 -44.3 -15.85 -44.3 -16.3 -44.25 -16.65 -44.25 -17.0 -44.15 -17.35 -44.05 -17.75 -43.9 -18.15 -43.75 -18.5 -43.5 -18.85 -43.25 -19.15 -42.95 -19.4 -42.55 -19.6 -42.1 -19.75 -41.6 -19.8 -41.05 -19.8 -31.05 -19.75 -30.5 -19.6 -29.95 -19.4 -29.55 -19.15 -29.15 -18.85 -28.85 -18.5 -28.55 -18.15 -28.35 -17.75 -28.15 -17.35 -28.05 -17.0 -27.95 -16.65 -27.85 -16.3 -27.8 -15.85 -27.75 -1.3 -27.75 -1.3 -50.9 -1.35 -51.5 -1.5 -52.0 -1.7 -52.45 -1.95 -52.85 -2.3 -53.15 -2.6 -53.45 -3.0 -53.65 -3.4 -53.85 -3.75 -54.0 -4.15 -54.05 -4.8 -54.2 -5.25 -54.25 -15.85 -54.25 M-60.9 -51.35 L-60.95 -50.95 -60.95 -31.0 -60.9 -30.4 -60.75 -29.9 -60.55 -29.45 -60.3 -29.1 -60.0 -28.8 -59.65 -28.5 -59.25 -28.3 -58.85 -28.1 -58.5 -28.0 -58.1 -27.85 -57.45 -27.75 -57.0 -27.7 -50.65 -27.7 -50.65 -26.05 -60.95 -26.05 -60.95 -19.4 -46.45 -19.4 -45.7 -19.45 -45.1 -19.55 -44.55 -19.75 -44.1 -19.95 -43.7 -20.2 -43.35 -20.55 -43.1 -20.85 -42.85 -21.15 -42.7 -21.5 -42.6 -21.8 -42.4 -22.35 -42.35 -22.75 -42.35 -54.25 -56.85 -54.25 -57.45 -54.25 -58.0 -54.1 -58.5 -53.95 -59.0 -53.75 -59.45 -53.5 -59.8 -53.2 -60.15 -52.85 -60.45 -52.5 -60.65 -52.1 -60.8 -51.7 -60.9 -51.35 M-52.65 -47.6 L-50.65 -47.6 -50.65 -34.3 -52.65 -34.3 -52.65 -47.6 M-42.2 -17.6 L-42.2 -11.0 -40.15 -11.0 -40.15 3.9 -40.1 4.5 -39.95 5.0 -39.8 5.45 -39.5 5.8 -39.2 6.15 -38.85 6.4 -38.5 6.65 -38.1 6.8 -37.7 6.95 -37.35 7.05 -37.0 7.15 -36.7 7.2 -36.2 7.25 -25.6 7.25 -25.4 7.2 -25.15 7.2 -24.5 7.05 -24.15 6.95 -23.75 6.8 -23.35 6.65 -23.0 6.4 -22.65 6.15 -22.3 5.85 -22.05 5.45 -21.85 5.0 -21.75 4.5 -21.7 3.9 -21.7 -9.35 -29.9 -9.35 -29.9 0.6 -31.9 0.6 -31.9 -11.0 -21.7 -11.0 -21.7 -17.65 -32.0 -17.65 -32.0 -20.65 -40.3 -20.65 -40.25 -17.65 -42.2 -17.6 M-11.55 -37.7 L-9.55 -37.7 -9.55 -34.35 -11.55 -34.35 -11.55 -37.7 M-30.05 -47.6 L-30.05 -44.3 -32.05 -44.3 -32.05 -47.6 -30.05 -47.6 M-7.65 10.35 L-15.9 10.35 -15.9 30.25 -17.85 30.25 -17.85 10.35 -26.1 10.35 -26.1 33.5 -26.05 34.1 -25.95 34.6 -25.7 35.05 -25.45 35.45 -25.15 35.75 -24.8 36.05 -24.45 36.25 -24.05 36.45 -23.65 36.6 -23.3 36.7 -22.65 36.8 -22.2 36.85 -11.6 36.85 -11.1 36.8 -10.45 36.7 -10.1 36.6 -9.7 36.45 -9.35 36.25 -8.95 36.05 -8.6 35.8 -8.3 35.45 -8.05 35.1 -7.85 34.65 -7.7 34.15 -7.65 33.55 -7.65 10.35 M-28.55 12.15 L-28.8 11.8 -29.1 11.45 -29.45 11.2 -29.85 10.95 -30.2 10.8 -30.6 10.65 -31.0 10.55 -31.65 10.4 -32.1 10.35 -42.7 10.35 -43.2 10.4 -43.85 10.55 -44.2 10.65 -44.6 10.8 -44.95 10.95 -45.35 11.2 -45.7 11.45 -46.0 11.8 -46.25 12.15 -46.45 12.6 -46.6 13.15 -46.65 13.7 -46.65 18.65 -38.4 18.65 -38.4 17.05 -36.4 17.05 -36.4 20.3 -42.7 20.3 -43.2 20.35 -43.85 20.45 -44.2 20.55 -44.6 20.7 -44.95 20.85 -45.35 21.1 -45.7 21.35 -46.0 21.7 -46.25 22.05 -46.45 22.5 -46.6 23.0 -46.65 23.6 -46.65 33.55 -46.6 34.15 -46.45 34.65 -46.25 35.1 -46.0 35.5 -45.7 35.8 -45.35 36.05 -44.95 36.3 -44.6 36.45 -44.2 36.6 -43.85 36.7 -43.2 36.8 -42.7 36.85 -28.2 36.85 -28.2 13.7 -28.25 13.15 -28.35 12.6 -28.55 12.15 M-38.4 26.95 L-36.4 26.95 -36.4 30.25 -38.4 30.25 -38.4 26.95 M-54.6 45.85 L-54.3 45.8 -47.95 45.8 -47.5 46.0 Q-47.35 46.15 -47.35 46.45 L-47.35 54.3 -47.4 54.55 -47.5 54.75 -47.7 54.9 -47.95 54.95 -54.3 54.95 -54.6 54.9 -54.75 54.75 -54.9 54.55 -54.95 54.3 -54.95 46.45 -54.9 46.2 -54.75 46.0 -54.6 45.85 M-61.3 41.95 L-61.4 42.35 -61.5 42.75 -61.55 43.15 -61.55 57.85 -61.3 59.0 -60.65 60.0 -59.65 60.65 -58.5 60.9 -43.8 60.9 -43.4 60.85 -43.0 60.75 -42.6 60.65 -42.25 60.45 -41.95 60.25 -41.65 60.0 -41.4 59.7 -41.15 59.35 -41.0 59.0 -40.85 58.65 -40.8 58.25 -40.75 57.85 -40.75 43.15 -40.8 42.75 -40.85 42.35 -41.0 41.95 -41.15 41.6 -41.4 41.3 -41.65 41.0 -41.95 40.75 -42.25 40.5 -42.6 40.35 -43.0 40.2 -43.4 40.15 -43.8 40.1 -58.5 40.1 -58.9 40.15 -59.3 40.2 -59.65 40.35 -60.0 40.5 -60.35 40.75 -60.65 41.0 -60.9 41.3 -61.1 41.6 -61.3 41.95 M-33.6 40.65 L-33.8 40.45 -34.05 40.35 -34.3 40.2 -34.6 40.15 -34.85 40.1 -37.6 40.1 -37.9 40.15 -38.2 40.3 -38.45 40.55 -38.55 40.8 -38.6 41.15 -38.6 59.85 -38.3 60.6 Q-38.05 60.85 -37.6 60.9 L-33.4 60.9 -33.1 60.85 -32.8 60.7 -32.6 60.45 -32.45 60.15 -32.4 59.85 -32.4 51.6 -23.7 60.35 -23.45 60.55 -23.1 60.75 -22.75 60.85 -22.4 60.9 -19.7 60.9 -19.35 60.85 -19.05 60.7 -18.85 60.45 -18.7 60.15 -18.65 59.85 -18.65 41.15 -18.7 40.8 -18.85 40.55 -19.05 40.3 -19.35 40.15 -19.7 40.1 -23.85 40.1 -24.2 40.15 -24.45 40.3 -24.7 40.55 -24.85 40.8 -24.9 41.15 -24.9 49.35 -33.6 40.65" fill="#000000" fill-rule="evenodd" stroke="none"/>
    <path d="M8.9 -52.55 Q9.95 -53.4 11.45 -53.8 L15.05 -54.25 15.4 -54.2 15.8 -54.15 16.2 -54.05 16.7 -53.95 17.15 -53.75 17.55 -53.5 18.0 -53.25 18.35 -52.9 18.7 -52.5 18.95 -52.0 19.1 -51.45 19.15 -50.9 19.15 -27.75 10.9 -27.75 10.9 -47.6 8.9 -47.6 8.9 -27.75 0.7 -27.75 0.7 -54.25 8.9 -54.25 8.9 -52.55 M9.3 -52.1 L8.35 -51.25 8.35 -53.6 1.35 -53.6 1.35 -28.35 8.3 -28.35 8.05 -28.6 1.6 -28.6 1.6 -53.3 8.05 -53.3 8.05 -50.7 8.1 -50.7 9.5 -51.85 Q10.35 -52.55 11.7 -52.9 L15.05 -53.3 15.45 -53.3 15.85 -53.25 16.2 -53.15 16.55 -53.0 16.85 -52.85 17.2 -52.65 17.4 -52.8 17.4 -52.85 16.85 -53.2 16.3 -53.4 15.7 -53.55 15.05 -53.6 11.65 -53.2 Q10.25 -52.8 9.3 -52.1 M25.1 -54.25 L31.45 -54.25 31.45 -60.9 39.75 -60.9 39.75 -27.75 25.1 -27.75 24.65 -27.8 24.0 -27.9 23.6 -28.05 23.2 -28.15 22.85 -28.35 22.45 -28.55 22.1 -28.85 21.8 -29.15 21.55 -29.5 21.35 -29.95 21.2 -30.45 21.15 -31.05 21.15 -50.9 21.2 -51.5 21.35 -52.0 21.55 -52.45 21.8 -52.85 22.1 -53.15 22.45 -53.45 22.85 -53.65 23.2 -53.85 23.6 -54.0 24.0 -54.1 24.65 -54.2 25.1 -54.25 M32.25 -48.45 L32.0 -48.2 32.0 -33.65 28.75 -33.6 28.5 -33.35 32.25 -33.35 32.25 -48.45 M23.4 -52.9 L23.7 -53.05 24.3 -53.25 24.8 -53.3 25.15 -53.35 32.4 -53.35 32.4 -60.0 38.9 -60.0 39.15 -60.25 39.15 -60.3 32.1 -60.3 32.1 -53.65 25.15 -53.65 24.75 -53.6 24.2 -53.5 23.9 -53.4 23.55 -53.3 23.25 -53.15 22.9 -52.95 22.6 -52.75 22.35 -52.5 22.15 -52.15 21.95 -51.8 21.85 -51.4 21.8 -50.9 21.8 -31.05 21.85 -30.55 21.95 -30.15 22.15 -29.8 22.35 -29.5 22.6 -29.2 22.9 -29.0 23.25 -28.85 23.55 -28.7 23.9 -28.55 24.2 -28.5 24.75 -28.4 25.15 -28.35 39.15 -28.35 38.9 -28.6 25.3 -28.6 25.15 -28.65 24.8 -28.65 24.3 -28.75 23.7 -28.95 23.4 -29.05 23.1 -29.2 22.6 -29.65 22.4 -29.95 22.25 -30.25 22.1 -30.6 22.1 -31.05 22.1 -50.9 22.1 -51.35 22.25 -51.7 22.4 -52.05 22.6 -52.3 22.85 -52.55 23.1 -52.75 23.4 -52.9 M31.45 -47.6 L29.45 -47.6 29.45 -34.25 31.45 -34.25 31.45 -47.6 M11.8 -48.45 L11.55 -48.2 11.55 -28.35 18.55 -28.35 18.3 -28.6 11.8 -28.6 11.8 -48.45 M16.45 -19.15 L16.85 -19.05 17.2 -18.9 17.6 -18.75 18.0 -18.55 18.3 -18.25 18.65 -17.9 18.9 -17.55 19.1 -17.1 19.25 -16.6 19.3 -16.0 19.3 -2.75 19.25 -2.7 9.05 -2.7 9.05 0.6 11.05 0.6 11.05 -1.05 19.3 -1.05 19.3 3.9 19.25 4.5 19.1 5.0 18.9 5.45 18.65 5.85 18.3 6.15 18.0 6.4 17.6 6.65 17.2 6.8 16.85 6.95 16.45 7.05 16.15 7.15 15.8 7.2 15.35 7.25 4.75 7.25 4.25 7.2 3.95 7.15 3.6 7.05 3.25 6.95 2.85 6.8 2.45 6.65 2.1 6.4 1.75 6.15 1.45 5.85 1.15 5.45 0.95 5.0 0.85 4.5 0.8 3.9 0.8 -16.0 0.85 -16.55 0.95 -17.1 1.15 -17.55 1.45 -17.9 1.75 -18.25 2.1 -18.5 2.45 -18.75 2.85 -18.9 3.25 -19.05 3.6 -19.15 3.95 -19.25 4.25 -19.3 4.7 -19.35 15.35 -19.35 15.8 -19.3 16.15 -19.25 16.45 -19.15 M18.7 -0.4 L18.7 -0.45 11.65 -0.45 11.65 1.25 8.45 1.25 8.15 1.5 8.2 1.55 11.95 1.55 11.95 -0.15 18.4 -0.15 18.7 -0.4 M8.15 -3.6 L8.45 -3.3 18.7 -3.3 18.7 -3.35 18.4 -3.6 8.15 -3.6 M8.15 -13.55 L8.45 -13.3 11.65 -13.3 11.65 -8.75 8.45 -8.75 8.15 -8.5 11.95 -8.5 11.95 -13.55 8.15 -13.55 M15.7 -18.65 L15.2 -18.7 4.75 -18.7 4.4 -18.65 4.1 -18.65 3.8 -18.55 3.5 -18.5 3.2 -18.35 2.85 -18.25 2.55 -18.05 2.25 -17.85 2.0 -17.55 1.75 -17.25 1.6 -16.85 1.45 -16.45 1.4 -15.95 1.4 3.8 1.45 4.3 1.6 4.75 1.75 5.1 1.95 5.45 2.25 5.7 2.5 5.95 2.85 6.15 3.15 6.25 3.5 6.4 3.8 6.5 4.35 6.6 4.75 6.6 15.2 6.6 15.55 6.6 15.95 6.55 16.3 6.45 16.65 6.35 17.0 6.15 17.35 5.95 17.4 5.9 17.15 5.75 16.7 6.0 16.2 6.2 15.7 6.3 15.2 6.35 4.75 6.35 4.4 6.3 3.6 6.15 3.3 6.05 3.0 5.9 2.7 5.75 2.45 5.5 2.2 5.25 2.0 5.0 1.85 4.65 1.75 4.25 1.7 3.8 1.7 -15.95 1.75 -16.4 1.85 -16.8 2.0 -17.1 2.2 -17.4 2.7 -17.85 3.0 -18.0 3.3 -18.1 3.6 -18.25 4.4 -18.4 4.75 -18.4 4.9 -18.45 15.2 -18.45 15.65 -18.4 16.1 -18.3 16.5 -18.2 16.8 -18.05 17.25 -17.8 17.4 -17.7 17.6 -17.9 17.45 -18.05 17.2 -18.15 16.95 -18.3 16.6 -18.45 16.2 -18.6 15.7 -18.65 M9.05 -12.65 L9.05 -9.4 11.05 -9.4 11.05 -12.65 9.05 -12.65 M39.05 -18.45 L39.35 -18.7 25.3 -18.7 24.9 -18.65 24.65 -18.65 24.35 -18.55 24.05 -18.5 23.7 -18.35 23.4 -18.25 23.1 -18.05 22.8 -17.85 22.5 -17.55 22.3 -17.25 22.1 -16.85 22.0 -16.45 21.95 -15.95 21.95 6.6 29.05 6.6 28.75 6.35 22.25 6.35 22.25 -15.95 22.3 -16.4 22.4 -16.8 22.55 -17.1 22.75 -17.4 23.0 -17.6 23.25 -17.85 23.55 -18.0 23.85 -18.1 24.15 -18.25 24.95 -18.4 25.35 -18.4 25.45 -18.45 39.05 -18.45 M39.3 -13.3 L39.05 -13.55 28.75 -13.55 29.0 -13.3 39.3 -13.3 M39.9 -12.65 L29.6 -12.65 29.6 -11.05 39.9 -11.05 39.9 -4.4 29.6 -4.4 29.6 7.25 21.3 7.25 21.3 -16.0 21.35 -16.55 21.5 -17.1 21.7 -17.55 21.95 -17.9 22.3 -18.25 22.65 -18.5 23.0 -18.75 23.4 -18.9 23.75 -19.05 24.15 -19.15 24.5 -19.25 24.8 -19.3 25.25 -19.35 39.9 -19.35 39.9 -12.65 M29.0 -10.45 L28.75 -10.2 28.75 -10.15 39.05 -10.15 39.35 -10.4 39.3 -10.45 29.0 -10.45 M28.75 -5.3 L28.75 -5.25 29.0 -5.0 39.35 -5.0 39.05 -5.3 28.75 -5.3 M51.4 -17.65 L61.6 -17.65 61.6 -11.0 51.4 -11.0 51.4 0.55 53.4 0.55 53.4 -9.4 61.6 -9.4 61.6 3.9 61.55 4.5 61.45 5.0 61.25 5.45 61.0 5.8 60.7 6.15 60.35 6.4 59.95 6.6 59.6 6.8 59.2 6.95 58.85 7.05 58.2 7.15 57.7 7.2 47.1 7.2 46.6 7.15 45.95 7.05 45.6 6.95 45.2 6.8 44.8 6.6 44.45 6.4 44.1 6.15 43.8 5.8 43.55 5.45 43.35 5.0 43.2 4.5 43.15 3.9 43.15 -11.0 41.1 -11.0 41.1 -17.6 41.15 -17.65 43.15 -17.65 43.15 -20.55 51.4 -20.55 51.4 -17.65 M60.75 -8.5 L61.0 -8.75 54.05 -8.75 54.05 1.2 50.8 1.2 50.55 1.45 50.55 1.5 54.35 1.5 54.35 -8.5 60.75 -8.5 M50.8 -17.0 L50.55 -16.75 60.75 -16.75 61.0 -17.0 50.8 -17.0 M50.55 -11.9 L50.55 -11.85 50.8 -11.6 61.0 -11.6 60.75 -11.9 50.55 -11.9 M42.05 -16.75 L44.1 -16.75 44.1 -19.65 50.55 -19.65 50.8 -19.9 43.8 -19.9 43.8 -17.0 41.75 -17.0 41.75 -11.6 43.8 -11.6 43.8 3.8 43.85 4.3 43.95 4.75 44.1 5.1 44.3 5.4 44.6 5.7 44.85 5.95 45.15 6.1 45.45 6.25 45.8 6.4 46.1 6.45 46.6 6.55 47.0 6.6 57.75 6.6 58.25 6.5 58.6 6.4 58.95 6.3 59.35 6.1 59.75 5.9 59.55 5.7 59.15 5.9 58.75 6.05 58.1 6.25 57.7 6.3 46.8 6.3 46.5 6.25 46.0 6.2 45.75 6.1 45.5 6.0 45.25 5.85 45.0 5.7 44.5 5.25 44.35 5.0 44.2 4.65 44.1 4.25 44.1 3.8 44.05 -11.9 42.05 -11.9 42.05 -16.75 M32.25 11.35 L32.6 11.5 32.95 11.6 33.35 11.85 33.55 11.95 33.7 11.8 33.55 11.65 33.35 11.5 33.05 11.35 32.7 11.2 32.3 11.1 31.85 11.0 31.35 11.0 20.9 11.0 20.5 11.0 19.95 11.1 19.65 11.2 19.3 11.3 19.0 11.45 18.65 11.65 18.35 11.85 18.1 12.15 17.9 12.45 17.7 12.85 17.6 13.25 17.55 13.75 17.55 33.2 Q17.55 33.9 17.85 34.4 L18.5 35.25 18.9 35.55 19.35 35.8 19.8 35.95 20.25 36.05 20.65 36.15 21.0 36.2 21.4 36.2 31.8 36.2 32.1 36.1 32.5 36.05 Q32.65 35.95 32.85 35.9 L33.25 35.7 33.6 35.5 33.6 35.45 33.4 35.25 33.05 35.5 32.65 35.65 32.35 35.8 32.0 35.85 31.55 35.9 21.3 35.9 20.9 35.9 20.3 35.8 20.0 35.7 19.65 35.6 19.3 35.45 19.0 35.25 18.7 35.05 18.4 34.75 18.2 34.45 18.0 34.1 17.9 33.65 17.85 33.2 17.85 13.7 17.9 13.3 18.0 12.9 18.15 12.55 18.35 12.3 18.6 12.05 18.85 11.85 19.15 11.7 19.45 11.55 19.75 11.45 20.55 11.3 20.9 11.25 31.35 11.25 31.8 11.3 32.25 11.35 M32.0 10.45 L32.7 10.55 33.05 10.65 33.45 10.8 33.8 11.0 34.2 11.2 34.55 11.45 34.85 11.8 35.1 12.2 35.3 12.65 35.45 13.15 35.5 13.75 35.5 33.55 35.45 34.15 35.3 34.65 35.1 35.1 34.85 35.5 34.55 35.8 34.2 36.05 33.8 36.3 33.45 36.45 33.05 36.6 32.7 36.7 32.0 36.8 31.55 36.85 20.7 36.85 19.8 36.7 19.45 36.6 19.05 36.45 18.65 36.3 18.3 36.05 17.95 35.8 17.65 35.5 17.35 35.1 17.15 34.65 17.05 34.15 17.0 33.55 17.0 13.75 17.05 13.15 17.15 12.65 17.35 12.2 17.65 11.8 17.95 11.5 18.3 11.2 18.65 11.0 19.05 10.8 19.45 10.7 19.8 10.6 20.45 10.45 20.95 10.4 31.55 10.4 32.0 10.45 M28.05 16.1 L24.3 16.1 24.3 16.15 24.6 16.4 27.8 16.4 27.8 30.85 24.6 30.85 24.3 31.1 24.3 31.15 28.05 31.15 28.05 16.1 M25.25 17.05 L25.25 30.25 27.25 30.25 27.25 17.05 25.25 17.05 M3.75 10.1 L4.0 9.8 -3.0 9.8 -3.0 12.65 -5.0 12.65 -5.0 18.1 -3.0 18.1 -3.0 33.5 -2.95 33.95 -2.8 34.4 -2.6 34.75 -2.35 35.1 Q-2.2 35.2 -2.0 35.35 L-1.65 35.55 -1.25 35.75 -0.85 35.9 -0.5 36.05 -0.1 36.1 0.25 36.2 0.6 36.25 1.05 36.3 10.75 36.3 11.15 36.25 11.4 36.2 12.35 35.9 12.65 35.75 12.95 35.55 12.75 35.35 12.4 35.55 12.05 35.7 11.7 35.85 11.4 35.9 10.95 36.0 1.05 36.0 0.65 35.95 -0.75 35.65 -1.1 35.55 -1.45 35.35 -1.8 35.15 -2.1 34.9 -2.35 34.6 -2.55 34.3 -2.65 33.9 -2.7 33.5 -2.7 17.8 -4.75 17.8 -4.75 12.95 -2.7 12.95 -2.7 10.1 3.75 10.1 M4.7 12.0 L14.9 12.0 14.9 18.65 4.7 18.65 4.7 30.25 6.7 30.25 6.7 20.25 14.9 20.25 14.9 33.6 14.85 34.15 14.75 34.65 14.55 35.1 14.25 35.5 13.95 35.8 13.6 36.05 13.25 36.3 12.85 36.45 12.5 36.6 12.1 36.7 11.45 36.8 11.0 36.85 0.35 36.85 -0.1 36.8 -0.4 36.75 -0.75 36.65 -1.1 36.55 -1.5 36.45 -1.9 36.25 -2.25 36.05 -2.6 35.75 -2.9 35.45 -3.15 35.1 -3.35 34.65 -3.5 34.15 -3.55 33.6 -3.55 18.65 -5.6 18.65 -5.6 12.05 -5.55 12.0 -3.55 12.0 -3.55 9.05 -3.5 9.0 4.7 9.0 4.7 12.0 M13.95 21.2 L14.25 20.9 7.3 20.9 7.3 30.9 4.0 30.9 3.75 31.15 7.55 31.15 7.55 21.2 13.95 21.2 M3.75 17.8 L4.0 18.1 14.2 18.1 14.2 18.05 13.95 17.8 3.75 17.8 M4.0 12.65 L3.75 12.95 13.95 12.95 14.25 12.7 14.2 12.65 4.0 12.65 M-25.7 -54.2 L-25.25 -54.2 -24.95 -54.1 -24.6 -54.05 -24.25 -53.95 -23.85 -53.8 -23.45 -53.65 -23.1 -53.4 -22.75 -53.15 -22.45 -52.8 -22.2 -52.45 -22.0 -52.0 -21.85 -51.45 -21.8 -50.9 -21.8 -42.6 -21.85 -42.3 -21.95 -42.0 -22.3 -41.6 -22.7 -41.35 -22.8 -41.25 -22.7 -41.2 -22.3 -40.85 -22.15 -40.55 -21.95 -40.25 -21.85 -39.8 -21.8 -39.35 -21.8 -26.05 -11.35 -26.05 -11.35 -19.3 -4.8 -19.3 -4.65 -19.25 -4.25 -19.2 -3.65 -19.1 -3.35 -19.0 -3.0 -18.85 -2.65 -18.65 -2.3 -18.45 -2.0 -18.2 -1.7 -17.85 -1.5 -17.5 -1.3 -17.05 -1.2 -16.5 -1.15 -15.95 -1.15 7.25 -9.4 7.25 -9.4 -12.65 -11.35 -12.65 -11.35 7.25 -19.6 7.25 -19.6 -19.45 -26.3 -19.45 -27.2 -19.65 -27.6 -19.75 -27.95 -19.85 -28.35 -20.05 -28.75 -20.25 -29.1 -20.55 -29.4 -20.85 -29.7 -21.25 -29.85 -21.7 -30.0 -22.2 -30.05 -22.75 -30.05 -37.65 -32.05 -37.65 -32.05 -22.45 -40.25 -22.45 -40.25 -54.25 -25.9 -54.25 -25.7 -54.2 M-24.3 -53.3 L-24.75 -53.4 -25.1 -53.5 -25.7 -53.6 -39.6 -53.6 -39.6 -23.05 -32.65 -23.05 -32.65 -23.1 -32.9 -23.35 -39.35 -23.35 -39.35 -53.3 -25.7 -53.3 -25.2 -53.25 -24.85 -53.15 -24.45 -53.0 -24.05 -52.8 -23.6 -52.55 -23.55 -52.55 -23.45 -52.75 -23.85 -53.05 -24.3 -53.3 M-15.85 -54.25 L-5.25 -54.25 -4.8 -54.2 -4.15 -54.05 -3.75 -54.0 -3.4 -53.85 -3.0 -53.65 -2.6 -53.45 -2.3 -53.15 -1.95 -52.85 -1.7 -52.45 -1.5 -52.0 -1.35 -51.5 -1.3 -50.9 -1.3 -27.75 -15.85 -27.75 -16.3 -27.8 -16.65 -27.85 -17.0 -27.95 -17.35 -28.05 -17.75 -28.15 -18.15 -28.35 -18.5 -28.55 -18.85 -28.85 -19.15 -29.15 -19.4 -29.55 -19.6 -29.95 -19.75 -30.5 -19.8 -31.05 -19.8 -41.05 -19.75 -41.6 -19.6 -42.1 -19.4 -42.55 -19.15 -42.95 -18.85 -43.25 -18.5 -43.5 -18.15 -43.75 -17.75 -43.9 -17.35 -44.05 -17.0 -44.15 -16.65 -44.25 -16.3 -44.25 -15.85 -44.3 -9.55 -44.3 -9.55 -47.6 -11.55 -47.6 -11.55 -46.0 -19.8 -46.0 -19.8 -50.9 -19.75 -51.5 -19.6 -52.0 -19.4 -52.45 -19.15 -52.85 -18.85 -53.15 -18.5 -53.45 -18.15 -53.65 -17.75 -53.85 -17.35 -53.95 -17.0 -54.05 -16.65 -54.15 -16.3 -54.2 -15.85 -54.25 M-17.25 -53.05 L-16.95 -53.15 -16.15 -53.3 -15.85 -53.35 -5.4 -53.35 -5.0 -53.3 -4.6 -53.25 -4.25 -53.15 -4.2 -53.1 -4.0 -53.05 -3.6 -52.85 -3.45 -52.75 -3.4 -52.75 -3.2 -52.95 -3.4 -53.05 -3.85 -53.3 -4.15 -53.4 -4.5 -53.5 -4.9 -53.6 -4.95 -53.6 -5.4 -53.65 -15.85 -53.65 -16.25 -53.6 -16.8 -53.5 -17.0 -53.4 -17.1 -53.4 -17.4 -53.3 -17.75 -53.15 -18.05 -52.95 -18.35 -52.75 -18.6 -52.5 -18.85 -52.15 -19.0 -51.8 -19.0 -51.75 -19.15 -51.4 -19.15 -50.95 -19.15 -46.6 -12.15 -46.6 -12.45 -46.9 -18.85 -46.9 -18.85 -50.9 -18.85 -51.25 -18.85 -51.3 -18.75 -51.7 -18.55 -52.0 -18.35 -52.3 -18.15 -52.5 -18.15 -52.55 -17.85 -52.75 -17.55 -52.9 -17.25 -53.05 M-60.9 -51.35 L-60.8 -51.7 -60.65 -52.1 -60.45 -52.5 -60.15 -52.85 -59.8 -53.2 -59.45 -53.5 -59.0 -53.75 -58.5 -53.95 -58.0 -54.1 -57.45 -54.25 -56.85 -54.25 -42.35 -54.25 -42.35 -22.75 -42.4 -22.35 -42.6 -21.8 -42.7 -21.5 -42.85 -21.15 -43.1 -20.85 -43.35 -20.55 -43.7 -20.2 -44.1 -19.95 -44.55 -19.75 -45.1 -19.55 -45.7 -19.45 -46.45 -19.4 -60.95 -19.4 -60.95 -26.05 -50.65 -26.05 -50.65 -27.7 -57.0 -27.7 -57.45 -27.75 -58.1 -27.85 -58.5 -28.0 -58.85 -28.1 -59.25 -28.3 -59.65 -28.5 -60.0 -28.8 -60.3 -29.1 -60.55 -29.45 -60.75 -29.9 -60.9 -30.4 -60.95 -31.0 -60.95 -50.95 -60.9 -51.35 M-49.75 -48.45 L-50.0 -48.2 -50.0 -33.7 -53.25 -33.7 -53.5 -33.45 -53.5 -33.4 -49.75 -33.4 -49.75 -48.45 M-58.0 -53.15 L-57.5 -53.3 -56.95 -53.35 -43.2 -53.35 -42.95 -53.65 -57.0 -53.65 -57.6 -53.55 -58.1 -53.4 -58.55 -53.25 -58.9 -53.05 -59.25 -52.85 -59.5 -52.6 -59.75 -52.4 -59.9 -52.15 -60.15 -51.65 -60.25 -51.25 -60.3 -51.0 -60.3 -30.85 -60.25 -30.55 -60.1 -30.15 -59.85 -29.65 -59.7 -29.4 -59.45 -29.15 -59.15 -28.9 -58.8 -28.7 -58.4 -28.55 -57.95 -28.4 -57.4 -28.3 -56.8 -28.3 -50.0 -28.3 -50.0 -25.45 -60.3 -25.4 -60.3 -20.0 -46.45 -20.0 -46.15 -20.05 -45.85 -20.05 -45.6 -20.15 -45.3 -20.2 -45.0 -20.3 -44.15 -20.8 -44.1 -20.8 -44.05 -20.85 -44.05 -20.9 -44.25 -21.05 -44.3 -21.0 -45.1 -20.55 -45.35 -20.5 -45.65 -20.4 -45.9 -20.35 -46.2 -20.3 -60.0 -20.3 -60.0 -25.15 -49.75 -25.15 -49.75 -28.55 -56.8 -28.55 -57.35 -28.6 -57.85 -28.7 -58.3 -28.8 -58.65 -28.95 -59.0 -29.15 -59.25 -29.35 -59.6 -29.8 -59.85 -30.25 -59.95 -30.6 -60.0 -30.9 -60.0 -51.0 -60.0 -51.2 -59.9 -51.6 -59.65 -52.0 -59.3 -52.45 -59.05 -52.65 -58.75 -52.85 -58.4 -53.0 -58.0 -53.15 M-52.65 -47.6 L-52.65 -34.3 -50.65 -34.3 -50.65 -47.6 -52.65 -47.6 M-41.35 -11.9 L-41.35 -16.75 -39.3 -16.75 -39.3 -19.65 -32.85 -19.65 -32.6 -19.9 -39.6 -19.9 -39.6 -17.0 -41.65 -17.0 -41.6 -11.6 -39.6 -11.6 -39.6 3.8 -39.55 4.3 -39.45 4.75 -39.25 5.1 -39.05 5.4 -38.8 5.7 -38.5 5.95 -38.2 6.1 -37.9 6.25 -37.6 6.4 -37.3 6.45 -36.75 6.55 -36.4 6.6 -25.65 6.6 -25.1 6.5 -24.8 6.4 -24.4 6.3 -24.0 6.1 -23.65 5.9 -23.85 5.7 -24.25 5.9 -24.65 6.05 -25.3 6.25 -25.7 6.3 -36.6 6.3 -36.9 6.25 -37.15 6.25 -37.65 6.1 -37.9 6.0 -38.4 5.7 -38.85 5.25 -39.05 5.0 -39.2 4.65 -39.25 4.25 -39.3 3.8 -39.3 -11.9 -41.35 -11.9 M-42.2 -17.6 L-40.25 -17.65 -40.3 -20.65 -32.0 -20.65 -32.0 -17.65 -21.7 -17.65 -21.7 -11.0 -31.9 -11.0 -31.9 0.6 -29.9 0.6 -29.9 -9.35 -21.7 -9.35 -21.7 3.9 -21.75 4.5 -21.85 5.0 -22.05 5.45 -22.3 5.85 -22.65 6.15 -23.0 6.4 -23.35 6.65 -23.75 6.8 -24.15 6.95 -24.5 7.05 -25.15 7.2 -25.4 7.2 -25.6 7.25 -36.2 7.25 -36.7 7.2 -37.0 7.15 -37.35 7.05 -37.7 6.95 -38.1 6.8 -38.5 6.65 -38.85 6.4 -39.2 6.15 -39.5 5.8 -39.8 5.45 -39.95 5.0 -40.1 4.5 -40.15 3.9 -40.15 -11.0 -42.2 -11.0 -42.2 -17.6 M-12.2 -25.15 L-11.95 -25.45 -22.4 -25.45 -22.7 -25.15 -12.2 -25.15 M-12.45 -38.55 L-12.15 -38.3 -8.95 -38.3 -8.95 -33.7 -12.2 -33.7 -12.45 -33.45 -8.65 -33.45 -8.65 -38.55 -12.45 -38.55 M-8.95 -48.2 L-8.95 -43.7 -15.85 -43.7 -16.25 -43.65 -16.8 -43.55 -17.0 -43.5 -17.1 -43.5 -17.4 -43.35 -17.75 -43.2 -18.05 -43.05 -18.35 -42.85 -18.6 -42.55 -18.85 -42.25 -19.0 -41.9 -19.0 -41.85 -19.15 -41.5 -19.15 -41.05 -19.15 -31.0 -19.15 -30.6 -19.0 -30.2 -19.0 -30.15 -18.85 -29.8 -18.6 -29.5 -18.35 -29.25 -18.05 -29.0 -17.75 -28.85 -17.4 -28.7 -17.1 -28.6 -17.0 -28.55 -16.8 -28.5 -16.25 -28.4 -16.2 -28.4 -15.85 -28.35 -2.0 -28.35 -1.95 -28.4 -2.25 -28.65 -15.85 -28.65 -16.15 -28.7 -16.2 -28.7 -16.65 -28.8 -16.95 -28.85 -17.25 -28.95 -17.55 -29.1 -17.85 -29.25 -18.15 -29.45 -18.25 -29.55 -18.35 -29.65 -18.55 -29.95 -18.75 -30.25 -18.85 -30.65 -18.85 -31.05 -18.85 -41.0 -18.85 -41.4 -18.85 -41.45 -18.75 -41.8 -18.55 -42.15 -18.35 -42.4 -18.0 -42.75 -17.85 -42.85 -17.55 -43.0 -17.25 -43.1 -16.65 -43.3 -16.15 -43.4 -15.85 -43.4 -8.65 -43.4 -8.65 -48.5 -12.45 -48.5 -12.15 -48.2 -8.95 -48.2 M-11.55 -37.7 L-11.55 -34.35 -9.55 -34.35 -9.55 -37.7 -11.55 -37.7 M-29.4 -48.2 L-29.4 -43.65 -32.65 -43.65 -32.9 -43.4 -29.15 -43.4 -29.15 -48.45 -29.4 -48.2 M-30.05 -47.6 L-32.05 -47.6 -32.05 -44.3 -30.05 -44.3 -30.05 -47.6 M-18.55 11.0 L-18.55 10.95 -25.55 10.95 -25.55 33.55 -25.5 34.0 -25.4 34.4 -25.25 34.8 -25.0 35.1 -24.75 35.35 -24.45 35.55 -24.15 35.75 -23.8 35.9 -23.5 36.0 -23.15 36.1 -22.6 36.2 -22.2 36.25 -11.8 36.25 -11.45 36.25 -11.1 36.15 -10.75 36.1 -10.45 35.95 -9.95 35.75 -9.6 35.55 -9.85 35.35 -10.1 35.5 -10.55 35.7 -10.8 35.8 -11.1 35.9 -11.45 35.95 -11.8 35.95 -22.2 35.95 -22.55 35.9 -22.8 35.9 -23.4 35.75 -23.65 35.65 -23.95 35.5 -24.25 35.35 -24.55 35.15 -24.75 34.9 -24.95 34.65 -25.1 34.35 -25.25 33.95 -25.25 33.55 -25.25 11.25 -18.8 11.25 -18.55 11.0 M-8.6 11.25 L-8.35 11.0 -15.35 11.0 -15.35 30.85 -18.55 30.85 -18.85 31.1 -15.05 31.1 -15.05 11.25 -8.6 11.25 M-12.25 -13.5 L-11.95 -13.25 -8.75 -13.25 -8.75 6.6 -1.75 6.6 -2.0 6.35 -8.45 6.35 -8.45 -13.5 -12.25 -13.5 M-4.2 -18.25 L-3.75 -18.05 -3.3 -17.85 -3.1 -17.7 -2.9 -17.9 -3.15 -18.05 -3.6 -18.3 -4.1 -18.5 -4.65 -18.6 -5.2 -18.65 -12.0 -18.65 -12.25 -18.4 -12.2 -18.35 -5.2 -18.35 -4.7 -18.35 -4.2 -18.25 M-22.35 -8.75 L-29.35 -8.75 -29.35 1.2 -32.6 1.2 -32.85 1.45 -32.85 1.5 -29.05 1.5 -29.05 -8.5 -22.65 -8.5 -22.35 -8.75 M-32.85 -11.9 L-32.85 -11.85 -32.6 -11.6 -22.35 -11.6 -22.65 -11.9 -32.85 -11.9 M-22.65 -16.75 L-22.35 -17.0 -32.6 -17.0 -32.85 -16.75 -22.65 -16.75 M-29.15 -38.55 L-29.4 -38.25 -29.4 -22.75 -29.4 -22.25 -29.25 -21.85 -29.1 -21.5 -28.85 -21.2 -28.6 -20.95 -28.3 -20.7 -28.0 -20.55 -27.65 -20.4 -27.3 -20.3 -27.0 -20.2 -26.45 -20.1 -26.05 -20.05 -18.95 -20.05 -18.95 6.6 -11.95 6.6 -12.2 6.35 -18.7 6.35 -18.7 -20.35 -26.05 -20.35 -26.4 -20.4 -26.9 -20.5 -27.2 -20.55 -27.5 -20.65 -27.8 -20.8 -28.1 -20.95 -28.4 -21.15 -28.65 -21.35 -28.85 -21.65 -29.0 -21.95 -29.1 -22.35 -29.15 -22.75 -29.15 -38.55 M-7.65 10.35 L-7.65 33.55 -7.7 34.15 -7.85 34.65 -8.05 35.1 -8.3 35.45 -8.6 35.8 -8.95 36.05 -9.35 36.25 -9.7 36.45 -10.1 36.6 -10.45 36.7 -11.1 36.8 -11.6 36.85 -22.2 36.85 -22.65 36.8 -23.3 36.7 -23.65 36.6 -24.05 36.45 -24.45 36.25 -24.8 36.05 -25.15 35.75 -25.45 35.45 -25.7 35.05 -25.95 34.6 -26.05 34.1 -26.1 33.5 -26.1 10.35 -17.85 10.35 -17.85 30.25 -15.9 30.25 -15.9 10.35 -7.65 10.35 M-30.15 11.6 L-30.3 11.5 -30.75 11.3 -31.1 11.15 -31.45 11.05 -31.9 11.0 -32.35 10.95 -42.75 10.95 -43.15 11.0 -43.7 11.1 -44.05 11.2 -44.35 11.3 -44.65 11.45 -45.0 11.65 -45.25 11.85 -45.55 12.1 -45.75 12.45 -45.95 12.8 -46.05 13.2 -46.1 13.7 -46.1 18.0 -39.1 18.0 -39.1 17.95 -39.35 17.7 -45.8 17.7 -45.8 13.7 -45.75 13.25 -45.65 12.9 -45.5 12.55 -45.3 12.25 -45.05 12.05 -44.8 11.85 -44.5 11.7 -44.2 11.55 -43.9 11.45 -43.6 11.35 -43.1 11.3 -42.75 11.25 -32.35 11.25 -31.9 11.25 -31.55 11.35 -31.2 11.45 -30.9 11.55 -30.5 11.75 -30.35 11.8 -30.15 11.65 -30.15 11.6 M-28.55 12.15 L-28.35 12.6 -28.25 13.15 -28.2 13.7 -28.2 36.85 -42.7 36.85 -43.2 36.8 -43.85 36.7 -44.2 36.6 -44.6 36.45 -44.95 36.3 -45.35 36.05 -45.7 35.8 -46.0 35.5 -46.25 35.1 -46.45 34.65 -46.6 34.15 -46.65 33.55 -46.65 23.6 -46.6 23.0 -46.45 22.5 -46.25 22.05 -46.0 21.7 -45.7 21.35 -45.35 21.1 -44.95 20.85 -44.6 20.7 -44.2 20.55 -43.85 20.45 -43.2 20.35 -42.7 20.3 -36.4 20.3 -36.4 17.05 -38.4 17.05 -38.4 18.65 -46.65 18.65 -46.65 13.7 -46.6 13.15 -46.45 12.6 -46.25 12.15 -46.0 11.8 -45.7 11.45 -45.35 11.2 -44.95 10.95 -44.6 10.8 -44.2 10.65 -43.85 10.55 -43.2 10.4 -42.7 10.35 -32.1 10.35 -31.65 10.4 -31.0 10.55 -30.6 10.65 -30.2 10.8 -29.85 10.95 -29.45 11.2 -29.1 11.45 -28.8 11.8 -28.55 12.15 M-39.35 26.05 L-39.1 26.3 -35.85 26.3 -35.85 30.85 -39.1 30.85 -39.4 31.15 -35.6 31.15 -35.6 26.0 -39.35 26.0 -39.35 26.05 M-35.6 16.1 L-39.35 16.1 -39.1 16.35 -35.85 16.35 -35.85 20.85 -42.6 20.85 -42.75 20.9 -43.15 20.9 -43.7 21.0 -44.05 21.1 -44.35 21.2 -44.65 21.35 -45.0 21.55 -45.25 21.75 -45.55 22.0 -45.75 22.35 -45.95 22.7 -46.05 23.1 -46.1 23.55 -46.1 33.55 -46.05 34.0 -45.95 34.4 -45.75 34.8 -45.55 35.1 -45.0 35.55 -44.65 35.75 -44.35 35.9 -44.05 36.0 -43.7 36.1 -43.15 36.2 -42.75 36.2 -42.6 36.25 -28.9 36.25 -28.9 36.2 -29.15 35.9 -42.75 35.95 -43.1 35.9 -43.6 35.8 -43.9 35.75 -44.2 35.65 -44.5 35.5 -44.8 35.35 -45.3 34.9 -45.5 34.65 -45.65 34.35 -45.75 33.95 -45.8 33.55 -45.8 23.55 -45.75 23.15 -45.65 22.75 -45.5 22.45 -45.3 22.2 -45.05 21.95 -44.8 21.75 -44.5 21.6 -44.2 21.45 -43.9 21.35 -43.1 21.2 -42.75 21.15 -35.6 21.15 -35.6 16.1 M-38.4 26.95 L-38.4 30.25 -36.4 30.25 -36.4 26.95 -38.4 26.95" fill="#ffffff" fill-rule="evenodd" stroke="none"/>
    <path d="M9.3 -52.1 Q10.25 -52.8 11.65 -53.2 L15.05 -53.6 15.7 -53.55 16.3 -53.4 16.85 -53.2 17.4 -52.85 17.4 -52.8 17.2 -52.65 16.85 -52.85 16.55 -53.0 16.2 -53.15 15.85 -53.25 15.45 -53.3 15.05 -53.3 11.7 -52.9 Q10.35 -52.55 9.5 -51.85 L8.1 -50.7 8.05 -50.7 8.05 -53.3 1.6 -53.3 1.6 -28.6 8.05 -28.6 8.3 -28.35 1.35 -28.35 1.35 -53.6 8.35 -53.6 8.35 -51.25 9.3 -52.1 M23.4 -52.9 L23.1 -52.75 22.85 -52.55 22.6 -52.3 22.4 -52.05 22.25 -51.7 22.1 -51.35 22.1 -50.9 22.1 -31.05 22.1 -30.6 22.25 -30.25 22.4 -29.95 22.6 -29.65 23.1 -29.2 23.4 -29.05 23.7 -28.95 24.3 -28.75 24.8 -28.65 25.15 -28.65 25.3 -28.6 38.9 -28.6 39.15 -28.35 25.15 -28.35 24.75 -28.4 24.2 -28.5 23.9 -28.55 23.55 -28.7 23.25 -28.85 22.9 -29.0 22.6 -29.2 22.35 -29.5 22.15 -29.8 21.95 -30.15 21.85 -30.55 21.8 -31.05 21.8 -50.9 21.85 -51.4 21.95 -51.8 22.15 -52.15 22.35 -52.5 22.6 -52.75 22.9 -52.95 23.25 -53.15 23.55 -53.3 23.9 -53.4 24.2 -53.5 24.75 -53.6 25.15 -53.65 32.1 -53.65 32.1 -60.3 39.15 -60.3 39.15 -60.25 38.9 -60.0 32.4 -60.0 32.4 -53.35 25.15 -53.35 24.8 -53.3 24.3 -53.25 23.7 -53.05 23.4 -52.9 M32.25 -48.45 L32.25 -33.35 28.5 -33.35 28.75 -33.6 32.0 -33.65 32.0 -48.2 32.25 -48.45 M11.8 -48.45 L11.8 -28.6 18.3 -28.6 18.55 -28.35 11.55 -28.35 11.55 -48.2 11.8 -48.45 M15.7 -18.65 L16.2 -18.6 16.6 -18.45 16.95 -18.3 17.2 -18.15 17.45 -18.05 17.6 -17.9 17.4 -17.7 17.25 -17.8 16.8 -18.05 16.5 -18.2 16.1 -18.3 15.65 -18.4 15.2 -18.45 4.9 -18.45 4.75 -18.4 4.4 -18.4 3.6 -18.25 3.3 -18.1 3.0 -18.0 2.7 -17.85 2.2 -17.4 2.0 -17.1 1.85 -16.8 1.75 -16.4 1.7 -15.95 1.7 3.8 1.75 4.25 1.85 4.65 2.0 5.0 2.2 5.25 2.45 5.5 2.7 5.75 3.0 5.9 3.3 6.05 3.6 6.15 4.4 6.3 4.75 6.35 15.2 6.35 15.7 6.3 16.2 6.2 16.7 6.0 17.15 5.75 17.4 5.9 17.35 5.95 17.0 6.15 16.65 6.35 16.3 6.45 15.95 6.55 15.55 6.6 15.2 6.6 4.75 6.6 4.35 6.6 3.8 6.5 3.5 6.4 3.15 6.25 2.85 6.15 2.5 5.95 2.25 5.7 1.95 5.45 1.75 5.1 1.6 4.75 1.45 4.3 1.4 3.8 1.4 -15.95 1.45 -16.45 1.6 -16.85 1.75 -17.25 2.0 -17.55 2.25 -17.85 2.55 -18.05 2.85 -18.25 3.2 -18.35 3.5 -18.5 3.8 -18.55 4.1 -18.65 4.4 -18.65 4.75 -18.7 15.2 -18.7 15.7 -18.65 M8.15 -13.55 L11.95 -13.55 11.95 -8.5 8.15 -8.5 8.45 -8.75 11.65 -8.75 11.65 -13.3 8.45 -13.3 8.15 -13.55 M8.15 -3.6 L18.4 -3.6 18.7 -3.35 18.7 -3.3 8.45 -3.3 8.15 -3.6 M18.7 -0.4 L18.4 -0.15 11.95 -0.15 11.95 1.55 8.2 1.55 8.15 1.5 8.45 1.25 11.65 1.25 11.65 -0.45 18.7 -0.45 18.7 -0.4 M39.3 -13.3 L29.0 -13.3 28.75 -13.55 39.05 -13.55 39.3 -13.3 M39.05 -18.45 L25.45 -18.45 25.35 -18.4 24.95 -18.4 24.15 -18.25 23.85 -18.1 23.55 -18.0 23.25 -17.85 23.0 -17.6 22.75 -17.4 22.55 -17.1 22.4 -16.8 22.3 -16.4 22.25 -15.95 22.25 6.35 28.75 6.35 29.05 6.6 21.95 6.6 21.95 -15.95 22.0 -16.45 22.1 -16.85 22.3 -17.25 22.5 -17.55 22.8 -17.85 23.1 -18.05 23.4 -18.25 23.7 -18.35 24.05 -18.5 24.35 -18.55 24.65 -18.65 24.9 -18.65 25.3 -18.7 39.35 -18.7 39.05 -18.45 M28.75 -5.3 L39.05 -5.3 39.35 -5.0 29.0 -5.0 28.75 -5.25 28.75 -5.3 M29.0 -10.45 L39.3 -10.45 39.35 -10.4 39.05 -10.15 28.75 -10.15 28.75 -10.2 29.0 -10.45 M42.05 -16.75 L42.05 -11.9 44.05 -11.9 44.1 3.8 44.1 4.25 44.2 4.65 44.35 5.0 44.5 5.25 45.0 5.7 45.25 5.85 45.5 6.0 45.75 6.1 46.0 6.2 46.5 6.25 46.8 6.3 57.7 6.3 58.1 6.25 58.75 6.05 59.15 5.9 59.55 5.7 59.75 5.9 59.35 6.1 58.95 6.3 58.6 6.4 58.25 6.5 57.75 6.6 47.0 6.6 46.6 6.55 46.1 6.45 45.8 6.4 45.45 6.25 45.15 6.1 44.85 5.95 44.6 5.7 44.3 5.4 44.1 5.1 43.95 4.75 43.85 4.3 43.8 3.8 43.8 -11.6 41.75 -11.6 41.75 -17.0 43.8 -17.0 43.8 -19.9 50.8 -19.9 50.55 -19.65 44.1 -19.65 44.1 -16.75 42.05 -16.75 M50.55 -11.9 L60.75 -11.9 61.0 -11.6 50.8 -11.6 50.55 -11.85 50.55 -11.9 M50.8 -17.0 L61.0 -17.0 60.75 -16.75 50.55 -16.75 50.8 -17.0 M60.75 -8.5 L54.35 -8.5 54.35 1.5 50.55 1.5 50.55 1.45 50.8 1.2 54.05 1.2 54.05 -8.75 61.0 -8.75 60.75 -8.5 M32.25 11.35 L31.8 11.3 31.35 11.25 20.9 11.25 20.55 11.3 19.75 11.45 19.45 11.55 19.15 11.7 18.85 11.85 18.6 12.05 18.35 12.3 18.15 12.55 18.0 12.9 17.9 13.3 17.85 13.7 17.85 33.2 17.9 33.65 18.0 34.1 18.2 34.45 18.4 34.75 18.7 35.05 19.0 35.25 19.3 35.45 19.65 35.6 20.0 35.7 20.3 35.8 20.9 35.9 21.3 35.9 31.55 35.9 32.0 35.85 32.35 35.8 32.65 35.65 33.05 35.5 33.4 35.25 33.6 35.45 33.6 35.5 33.25 35.7 32.85 35.9 Q32.65 35.95 32.5 36.05 L32.1 36.1 31.8 36.2 21.4 36.2 21.0 36.2 20.65 36.15 20.25 36.05 19.8 35.95 19.35 35.8 18.9 35.55 18.5 35.25 17.85 34.4 Q17.55 33.9 17.55 33.2 L17.55 13.75 17.6 13.25 17.7 12.85 17.9 12.45 18.1 12.15 18.35 11.85 18.65 11.65 19.0 11.45 19.3 11.3 19.65 11.2 19.95 11.1 20.5 11.0 20.9 11.0 31.35 11.0 31.85 11.0 32.3 11.1 32.7 11.2 33.05 11.35 33.35 11.5 33.55 11.65 33.7 11.8 33.55 11.95 33.35 11.85 32.95 11.6 32.6 11.5 32.25 11.35 M28.05 16.1 L28.05 31.15 24.3 31.15 24.3 31.1 24.6 30.85 27.8 30.85 27.8 16.4 24.6 16.4 24.3 16.15 24.3 16.1 28.05 16.1 M3.75 10.1 L-2.7 10.1 -2.7 12.95 -4.75 12.95 -4.75 17.8 -2.7 17.8 -2.7 33.5 -2.65 33.9 -2.55 34.3 -2.35 34.6 -2.1 34.9 -1.8 35.15 -1.45 35.35 -1.1 35.55 -0.75 35.65 0.65 35.95 1.05 36.0 10.95 36.0 11.4 35.9 11.7 35.85 12.05 35.7 12.4 35.55 12.75 35.35 12.95 35.55 12.65 35.75 12.35 35.9 11.4 36.2 11.15 36.25 10.75 36.3 1.05 36.3 0.6 36.25 0.25 36.2 -0.1 36.1 -0.5 36.05 -0.85 35.9 -1.25 35.75 -1.65 35.55 -2.0 35.35 Q-2.2 35.2 -2.35 35.1 L-2.6 34.75 -2.8 34.4 -2.95 33.95 -3.0 33.5 -3.0 18.1 -5.0 18.1 -5.0 12.65 -3.0 12.65 -3.0 9.8 4.0 9.8 3.75 10.1 M4.0 12.65 L14.2 12.65 14.25 12.7 13.95 12.95 3.75 12.95 4.0 12.65 M3.75 17.8 L13.95 17.8 14.2 18.05 14.2 18.1 4.0 18.1 3.75 17.8 M13.95 21.2 L7.55 21.2 7.55 31.15 3.75 31.15 4.0 30.9 7.3 30.9 7.3 20.9 14.25 20.9 13.95 21.2 M-24.3 -53.3 L-23.85 -53.05 -23.45 -52.75 -23.55 -52.55 -23.6 -52.55 -24.05 -52.8 -24.45 -53.0 -24.85 -53.15 -25.2 -53.25 -25.7 -53.3 -39.35 -53.3 -39.35 -23.35 -32.9 -23.35 -32.65 -23.1 -32.65 -23.05 -39.6 -23.05 -39.6 -53.6 -25.7 -53.6 -25.1 -53.5 -24.75 -53.4 -24.3 -53.3 M-17.25 -53.05 L-17.55 -52.9 -17.85 -52.75 -18.15 -52.55 -18.15 -52.5 -18.35 -52.3 -18.55 -52.0 -18.75 -51.7 -18.85 -51.3 -18.85 -51.25 -18.85 -50.9 -18.85 -46.9 -12.45 -46.9 -12.15 -46.6 -19.15 -46.6 -19.15 -50.95 -19.15 -51.4 -19.0 -51.75 -19.0 -51.8 -18.85 -52.15 -18.6 -52.5 -18.35 -52.75 -18.05 -52.95 -17.75 -53.15 -17.4 -53.3 -17.1 -53.4 -17.0 -53.4 -16.8 -53.5 -16.25 -53.6 -15.85 -53.65 -5.4 -53.65 -4.95 -53.6 -4.9 -53.6 -4.5 -53.5 -4.15 -53.4 -3.85 -53.3 -3.4 -53.05 -3.2 -52.95 -3.4 -52.75 -3.45 -52.75 -3.6 -52.85 -4.0 -53.05 -4.2 -53.1 -4.25 -53.15 -4.6 -53.25 -5.0 -53.3 -5.4 -53.35 -15.85 -53.35 -16.15 -53.3 -16.95 -53.15 -17.25 -53.05 M-58.0 -53.15 L-58.4 -53.0 -58.75 -52.85 -59.05 -52.65 -59.3 -52.45 -59.65 -52.0 -59.9 -51.6 -60.0 -51.2 -60.0 -51.0 -60.0 -30.9 -59.95 -30.6 -59.85 -30.25 -59.6 -29.8 -59.25 -29.35 -59.0 -29.15 -58.65 -28.95 -58.3 -28.8 -57.85 -28.7 -57.35 -28.6 -56.8 -28.55 -49.75 -28.55 -49.75 -25.15 -60.0 -25.15 -60.0 -20.3 -46.2 -20.3 -45.9 -20.35 -45.65 -20.4 -45.35 -20.5 -45.1 -20.55 -44.3 -21.0 -44.25 -21.05 -44.05 -20.9 -44.05 -20.85 -44.1 -20.8 -44.15 -20.8 -45.0 -20.3 -45.3 -20.2 -45.6 -20.15 -45.85 -20.05 -46.15 -20.05 -46.45 -20.0 -60.3 -20.0 -60.3 -25.4 -50.0 -25.45 -50.0 -28.3 -56.8 -28.3 -57.4 -28.3 -57.95 -28.4 -58.4 -28.55 -58.8 -28.7 -59.15 -28.9 -59.45 -29.15 -59.7 -29.4 -59.85 -29.65 -60.1 -30.15 -60.25 -30.55 -60.3 -30.85 -60.3 -51.0 -60.25 -51.25 -60.15 -51.65 -59.9 -52.15 -59.75 -52.4 -59.5 -52.6 -59.25 -52.85 -58.9 -53.05 -58.55 -53.25 -58.1 -53.4 -57.6 -53.55 -57.0 -53.65 -42.95 -53.65 -43.2 -53.35 -56.95 -53.35 -57.5 -53.3 -58.0 -53.15 M-49.75 -48.45 L-49.75 -33.4 -53.5 -33.4 -53.5 -33.45 -53.25 -33.7 -50.0 -33.7 -50.0 -48.2 -49.75 -48.45 M-41.35 -11.9 L-39.3 -11.9 -39.3 3.8 -39.25 4.25 -39.2 4.65 -39.05 5.0 -38.85 5.25 -38.4 5.7 -37.9 6.0 -37.65 6.1 -37.15 6.25 -36.9 6.25 -36.6 6.3 -25.7 6.3 -25.3 6.25 -24.65 6.05 -24.25 5.9 -23.85 5.7 -23.65 5.9 -24.0 6.1 -24.4 6.3 -24.8 6.4 -25.1 6.5 -25.65 6.6 -36.4 6.6 -36.75 6.55 -37.3 6.45 -37.6 6.4 -37.9 6.25 -38.2 6.1 -38.5 5.95 -38.8 5.7 -39.05 5.4 -39.25 5.1 -39.45 4.75 -39.55 4.3 -39.6 3.8 -39.6 -11.6 -41.6 -11.6 -41.65 -17.0 -39.6 -17.0 -39.6 -19.9 -32.6 -19.9 -32.85 -19.65 -39.3 -19.65 -39.3 -16.75 -41.35 -16.75 -41.35 -11.9 M-8.95 -48.2 L-12.15 -48.2 -12.45 -48.5 -8.65 -48.5 -8.65 -43.4 -15.85 -43.4 -16.15 -43.4 -16.65 -43.3 -17.25 -43.1 -17.55 -43.0 -17.85 -42.85 -18.0 -42.75 -18.35 -42.4 -18.55 -42.15 -18.75 -41.8 -18.85 -41.45 -18.85 -41.4 -18.85 -41.0 -18.85 -31.05 -18.85 -30.65 -18.75 -30.25 -18.55 -29.95 -18.35 -29.65 -18.25 -29.55 -18.15 -29.45 -17.85 -29.25 -17.55 -29.1 -17.25 -28.95 -16.95 -28.85 -16.65 -28.8 -16.2 -28.7 -16.15 -28.7 -15.85 -28.65 -2.25 -28.65 -1.95 -28.4 -2.0 -28.35 -15.85 -28.35 -16.2 -28.4 -16.25 -28.4 -16.8 -28.5 -17.0 -28.55 -17.1 -28.6 -17.4 -28.7 -17.75 -28.85 -18.05 -29.0 -18.35 -29.25 -18.6 -29.5 -18.85 -29.8 -19.0 -30.15 -19.0 -30.2 -19.15 -30.6 -19.15 -31.0 -19.15 -41.05 -19.15 -41.5 -19.0 -41.85 -19.0 -41.9 -18.85 -42.25 -18.6 -42.55 -18.35 -42.85 -18.05 -43.05 -17.75 -43.2 -17.4 -43.35 -17.1 -43.5 -17.0 -43.5 -16.8 -43.55 -16.25 -43.65 -15.85 -43.7 -8.95 -43.7 -8.95 -48.2 M-12.45 -38.55 L-8.65 -38.55 -8.65 -33.45 -12.45 -33.45 -12.2 -33.7 -8.95 -33.7 -8.95 -38.3 -12.15 -38.3 -12.45 -38.55 M-12.2 -25.15 L-22.7 -25.15 -22.4 -25.45 -11.95 -25.45 -12.2 -25.15 M-29.4 -48.2 L-29.15 -48.45 -29.15 -43.4 -32.9 -43.4 -32.65 -43.65 -29.4 -43.65 -29.4 -48.2 M-29.15 -38.55 L-29.15 -22.75 -29.1 -22.35 -29.0 -21.95 -28.85 -21.65 -28.65 -21.35 -28.4 -21.15 -28.1 -20.95 -27.8 -20.8 -27.5 -20.65 -27.2 -20.55 -26.9 -20.5 -26.4 -20.4 -26.05 -20.35 -18.7 -20.35 -18.7 6.35 -12.2 6.35 -11.95 6.6 -18.95 6.6 -18.95 -20.05 -26.05 -20.05 -26.45 -20.1 -27.0 -20.2 -27.3 -20.3 -27.65 -20.4 -28.0 -20.55 -28.3 -20.7 -28.6 -20.95 -28.85 -21.2 -29.1 -21.5 -29.25 -21.85 -29.4 -22.25 -29.4 -22.75 -29.4 -38.25 -29.15 -38.55 M-22.65 -16.75 L-32.85 -16.75 -32.6 -17.0 -22.35 -17.0 -22.65 -16.75 M-32.85 -11.9 L-22.65 -11.9 -22.35 -11.6 -32.6 -11.6 -32.85 -11.85 -32.85 -11.9 M-22.35 -8.75 L-22.65 -8.5 -29.05 -8.5 -29.05 1.5 -32.85 1.5 -32.85 1.45 -32.6 1.2 -29.35 1.2 -29.35 -8.75 -22.35 -8.75 M-4.2 -18.25 L-4.7 -18.35 -5.2 -18.35 -12.2 -18.35 -12.25 -18.4 -12.0 -18.65 -5.2 -18.65 -4.65 -18.6 -4.1 -18.5 -3.6 -18.3 -3.15 -18.05 -2.9 -17.9 -3.1 -17.7 -3.3 -17.85 -3.75 -18.05 -4.2 -18.25 M-12.25 -13.5 L-8.45 -13.5 -8.45 6.35 -2.0 6.35 -1.75 6.6 -8.75 6.6 -8.75 -13.25 -11.95 -13.25 -12.25 -13.5 M-8.6 11.25 L-15.05 11.25 -15.05 31.1 -18.85 31.1 -18.55 30.85 -15.35 30.85 -15.35 11.0 -8.35 11.0 -8.6 11.25 M-18.55 11.0 L-18.8 11.25 -25.25 11.25 -25.25 33.55 -25.25 33.95 -25.1 34.35 -24.95 34.65 -24.75 34.9 -24.55 35.15 -24.25 35.35 -23.95 35.5 -23.65 35.65 -23.4 35.75 -22.8 35.9 -22.55 35.9 -22.2 35.95 -11.8 35.95 -11.45 35.95 -11.1 35.9 -10.8 35.8 -10.55 35.7 -10.1 35.5 -9.85 35.35 -9.6 35.55 -9.95 35.75 -10.45 35.95 -10.75 36.1 -11.1 36.15 -11.45 36.25 -11.8 36.25 -22.2 36.25 -22.6 36.2 -23.15 36.1 -23.5 36.0 -23.8 35.9 -24.15 35.75 -24.45 35.55 -24.75 35.35 -25.0 35.1 -25.25 34.8 -25.4 34.4 -25.5 34.0 -25.55 33.55 -25.55 10.95 -18.55 10.95 -18.55 11.0 M-30.15 11.6 L-30.15 11.65 -30.35 11.8 -30.5 11.75 -30.9 11.55 -31.2 11.45 -31.55 11.35 -31.9 11.25 -32.35 11.25 -42.75 11.25 -43.1 11.3 -43.6 11.35 -43.9 11.45 -44.2 11.55 -44.5 11.7 -44.8 11.85 -45.05 12.05 -45.3 12.25 -45.5 12.55 -45.65 12.9 -45.75 13.25 -45.8 13.7 -45.8 17.7 -39.35 17.7 -39.1 17.95 -39.1 18.0 -46.1 18.0 -46.1 13.7 -46.05 13.2 -45.95 12.8 -45.75 12.45 -45.55 12.1 -45.25 11.85 -45.0 11.65 -44.65 11.45 -44.35 11.3 -44.05 11.2 -43.7 11.1 -43.15 11.0 -42.75 10.95 -32.35 10.95 -31.9 11.0 -31.45 11.05 -31.1 11.15 -30.75 11.3 -30.3 11.5 -30.15 11.6 M-35.6 16.1 L-35.6 21.15 -42.75 21.15 -43.1 21.2 -43.9 21.35 -44.2 21.45 -44.5 21.6 -44.8 21.75 -45.05 21.95 -45.3 22.2 -45.5 22.45 -45.65 22.75 -45.75 23.15 -45.8 23.55 -45.8 33.55 -45.75 33.95 -45.65 34.35 -45.5 34.65 -45.3 34.9 -44.8 35.35 -44.5 35.5 -44.2 35.65 -43.9 35.75 -43.6 35.8 -43.1 35.9 -42.75 35.95 -29.15 35.9 -28.9 36.2 -28.9 36.25 -42.6 36.25 -42.75 36.2 -43.15 36.2 -43.7 36.1 -44.05 36.0 -44.35 35.9 -44.65 35.75 -45.0 35.55 -45.55 35.1 -45.75 34.8 -45.95 34.4 -46.05 34.0 -46.1 33.55 -46.1 23.55 -46.05 23.1 -45.95 22.7 -45.75 22.35 -45.55 22.0 -45.25 21.75 -45.0 21.55 -44.65 21.35 -44.35 21.2 -44.05 21.1 -43.7 21.0 -43.15 20.9 -42.75 20.9 -42.6 20.85 -35.85 20.85 -35.85 16.35 -39.1 16.35 -39.35 16.1 -35.6 16.1 M-39.35 26.05 L-39.35 26.0 -35.6 26.0 -35.6 31.15 -39.4 31.15 -39.1 30.85 -35.85 30.85 -35.85 26.3 -39.1 26.3 -39.35 26.05" fill="#96989a" fill-rule="evenodd" stroke="none"/>
    <path d="M46.15 47.55 L46.45 47.7 46.65 47.95 46.8 48.25 46.85 48.55 46.85 52.15 46.8 52.5 46.65 52.8 46.45 53.0 46.15 53.15 45.8 53.2 40.25 53.2 40.25 54.95 50.6 54.95 50.9 55.0 51.2 55.15 51.4 55.35 51.6 55.65 51.65 56.0 51.65 59.85 51.6 60.15 51.4 60.45 51.2 60.7 50.9 60.85 50.6 60.9 34.75 60.9 Q34.3 60.85 34.0 60.6 33.7 60.3 33.7 59.85 L33.7 41.15 33.75 40.8 33.9 40.55 34.1 40.3 34.4 40.15 34.75 40.1 50.6 40.1 50.9 40.15 51.2 40.3 51.4 40.55 51.6 40.8 51.65 41.15 51.65 44.75 51.6 45.1 51.4 45.35 51.2 45.6 50.9 45.75 50.6 45.8 40.25 45.8 40.25 47.5 45.8 47.5 46.15 47.55 M9.4 41.15 L9.4 59.85 9.35 60.15 9.25 60.45 9.0 60.7 8.7 60.85 8.4 60.9 3.9 60.9 Q3.45 60.85 3.15 60.6 2.85 60.3 2.85 59.85 L2.85 41.15 2.9 40.8 3.05 40.55 3.25 40.3 3.55 40.15 3.9 40.1 8.4 40.1 8.7 40.15 9.0 40.3 9.25 40.55 9.35 40.8 9.4 41.15 M16.6 40.65 L25.3 49.35 25.3 41.15 25.35 40.8 25.5 40.55 25.75 40.3 26.0 40.15 26.35 40.1 30.5 40.1 30.85 40.15 31.1 40.3 31.35 40.55 31.5 40.8 31.55 41.15 31.55 59.85 31.5 60.15 31.35 60.45 31.1 60.7 30.85 60.85 30.5 60.9 27.8 60.9 27.45 60.85 27.1 60.75 26.8 60.55 26.5 60.35 17.85 51.6 17.85 59.85 17.75 60.15 17.6 60.45 17.4 60.7 17.1 60.85 16.8 60.9 12.6 60.9 11.9 60.6 Q11.6 60.3 11.55 59.85 L11.55 41.15 11.65 40.8 11.8 40.55 12.0 40.3 12.3 40.15 12.6 40.1 15.35 40.1 15.6 40.15 15.9 40.2 16.15 40.35 16.4 40.45 16.6 40.65 M0.3 55.15 L0.55 55.35 0.7 55.65 0.75 56.0 0.75 59.85 0.7 60.15 0.55 60.45 0.3 60.7 0.0 60.85 -0.3 60.9 -15.45 60.9 -16.2 60.6 -16.5 59.85 -16.5 41.15 -16.45 40.8 -16.3 40.55 -16.05 40.3 -15.8 40.15 -15.45 40.1 -10.95 40.1 -10.65 40.15 -10.35 40.3 -10.1 40.55 -9.95 40.8 -9.9 41.15 -9.9 54.9 -9.85 54.95 -0.3 54.95 0.0 55.0 0.3 55.15 M-33.6 40.65 L-24.9 49.35 -24.9 41.15 -24.85 40.8 -24.7 40.55 -24.45 40.3 -24.2 40.15 -23.85 40.1 -19.7 40.1 -19.35 40.15 -19.05 40.3 -18.85 40.55 -18.7 40.8 -18.65 41.15 -18.65 59.85 -18.7 60.15 -18.85 60.45 -19.05 60.7 -19.35 60.85 -19.7 60.9 -22.4 60.9 -22.75 60.85 -23.1 60.75 -23.45 60.55 -23.7 60.35 -32.4 51.6 -32.4 59.85 -32.45 60.15 -32.6 60.45 -32.8 60.7 -33.1 60.85 -33.4 60.9 -37.6 60.9 Q-38.05 60.85 -38.3 60.6 L-38.6 59.85 -38.6 41.15 -38.55 40.8 -38.45 40.55 -38.2 40.3 -37.9 40.15 -37.6 40.1 -34.85 40.1 -34.6 40.15 -34.3 40.2 -34.05 40.35 -33.8 40.45 -33.6 40.65 M-61.3 41.95 L-61.1 41.6 -60.9 41.3 -60.65 41.0 -60.35 40.75 -60.0 40.5 -59.65 40.35 -59.3 40.2 -58.9 40.15 -58.5 40.1 -43.8 40.1 -43.4 40.15 -43.0 40.2 -42.6 40.35 -42.25 40.5 -41.95 40.75 -41.65 41.0 -41.4 41.3 -41.15 41.6 -41.0 41.95 -40.85 42.35 -40.8 42.75 -40.75 43.15 -40.75 57.85 -40.8 58.25 -40.85 58.65 -41.0 59.0 -41.15 59.35 -41.4 59.7 -41.65 60.0 -41.95 60.25 -42.25 60.45 -42.6 60.65 -43.0 60.75 -43.4 60.85 -43.8 60.9 -58.5 60.9 -59.65 60.65 -60.65 60.0 -61.3 59.0 -61.55 57.85 -61.55 43.15 -61.5 42.75 -61.4 42.35 -61.3 41.95 M-54.6 45.85 L-54.75 46.0 -54.9 46.2 -54.95 46.45 -54.95 54.3 -54.9 54.55 -54.75 54.75 -54.6 54.9 -54.3 54.95 -47.95 54.95 -47.7 54.9 -47.5 54.75 -47.4 54.55 -47.35 54.3 -47.35 46.45 Q-47.35 46.15 -47.5 46.0 L-47.95 45.8 -54.3 45.8 -54.6 45.85" fill="#e30513" fill-rule="evenodd" stroke="none"/>
  </g>
</svg>
