<?xml version="1.0" encoding="UTF-8" standalone="no"?>
<svg xmlns:ffdec="https://www.free-decompiler.com/flash" xmlns:xlink="http://www.w3.org/1999/xlink" ffdec:objectType="shape" height="152.0px" width="1194.05px" xmlns="http://www.w3.org/2000/svg">
  <g transform="matrix(1.0, 0.0, 0.0, 1.0, 386.75, 80.5)">
    <path d="M765.6 -78.85 L783.55 -72.6 792.25 -67.75 799.35 -60.85 804.35 -52.45 806.95 -43.1 806.95 -37.1 807.3 -37.1 807.3 34.1 804.7 43.45 799.65 51.9 792.6 58.75 783.9 63.6 765.95 69.85 737.7 69.85 728.6 71.5 -114.4 71.5 -144.65 69.5 -194.3 63.35 -219.0 58.85 -243.65 53.8 -293.35 39.85 -335.4 22.75 -381.05 2.4 -384.6 -0.5 -386.15 -2.05 -386.75 -4.1 -386.75 -4.5 -386.15 -6.55 -384.6 -8.1 -381.05 -11.0 -335.4 -31.35 -293.35 -48.45 -243.65 -62.4 -219.0 -67.45 -194.3 -71.9 -144.65 -78.1 -114.4 -80.1 -114.4 -80.5 728.3 -80.5 737.35 -78.85 765.6 -78.85" fill="#434343" fill-rule="evenodd" stroke="none"/>
    <path d="M589.4 -55.75 L594.05 -48.2 597.95 -39.55 601.0 -30.05 603.05 -19.9 603.1 -19.4 606.4 -19.4 606.4 -21.9 626.4 -21.9 626.4 14.2 606.4 14.2 606.4 10.35 603.2 10.35 603.05 11.9 601.0 22.05 598.05 31.55 594.15 40.2 589.5 47.75 584.15 54.05 578.25 58.9 571.95 62.2 569.6 63.15 565.85 55.95 557.9 60.15 537.5 65.25 533.3 65.25 533.3 65.35 512.6 65.35 512.6 69.0 445.3 69.0 445.3 67.0 131.15 67.0 131.15 64.9 125.85 64.9 125.85 52.0 454.8 52.0 467.3 48.8 473.55 46.2 479.45 42.3 484.8 37.3 489.5 31.25 493.35 24.35 496.35 16.7 498.35 8.65 496.6 8.65 496.6 5.0 493.6 5.0 493.6 -14.35 496.6 -14.35 496.6 -18.0 498.05 -18.0 496.3 -24.95 493.3 -32.55 489.4 -39.45 484.7 -45.5 479.35 -50.5 473.45 -54.35 467.15 -57.0 454.35 -60.2 125.85 -60.2 125.85 -73.1 131.85 -73.1 131.85 -75.45 445.6 -75.45 445.6 -78.0 533.6 -78.0 533.6 -74.3 537.65 -74.3 565.55 -65.15 569.6 -72.2 571.85 -70.15 578.15 -66.85 584.05 -62.05 589.4 -55.75" fill="#969696" fill-rule="evenodd" stroke="none"/>
    <path d="M182.65 -39.65 L180.6 -39.65 180.6 -29.6 174.3 -29.6 174.3 20.25 180.6 20.25 180.6 30.5 182.65 30.5 182.65 17.95 182.7 17.9 184.1 17.25 184.9 16.55 185.35 15.6 185.4 14.1 182.65 14.1 182.65 12.5 186.1 12.5 186.1 -21.35 182.65 -21.35 182.65 -22.45 185.4 -22.45 185.35 -23.95 184.9 -24.9 184.1 -25.6 182.7 -26.2 182.65 -26.25 182.65 -39.65 M98.7 -18.75 L98.7 -16.45 101.4 -16.45 101.4 -18.75 108.95 -18.75 112.3 -20.1 113.6 -22.3 113.6 -58.35 180.05 -58.35 180.05 -52.75 182.95 -52.75 182.95 -58.65 214.15 -58.65 214.25 -53.95 214.55 -52.65 215.7 -50.2 216.55 -49.2 218.7 -47.55 219.95 -47.0 221.25 -46.7 222.95 -45.95 223.6 -45.85 223.6 -23.05 225.2 -20.6 226.3 -19.55 227.6 -18.7 228.95 -18.05 233.7 -17.15 238.2 -17.15 238.2 7.65 233.7 7.65 227.6 10.2 226.3 11.1 225.2 12.15 223.6 14.55 223.6 37.15 222.95 37.25 221.25 37.95 219.95 38.3 218.7 38.85 216.55 40.45 215.7 41.5 214.55 43.95 214.25 45.25 214.15 49.35 182.95 49.35 182.95 43.0 180.05 43.0 180.05 49.45 113.6 49.45 113.6 14.1 112.3 11.25 108.95 9.9 101.4 9.9 101.4 7.55 98.7 7.55 98.7 9.9 87.25 9.9 87.25 50.15 16.5 50.15 5.3 48.5 -5.4 45.7 -13.3 42.5 -24.25 36.5 -31.85 30.35 -37.95 23.35 -42.35 15.75 -45.0 7.7 -45.8 -0.6 -45.8 -7.7 -45.0 -15.95 -42.35 -24.05 -37.9 -31.7 -31.75 -38.7 -24.15 -44.85 -15.3 -50.05 -5.35 -54.1 5.35 -56.85 16.55 -58.35 87.25 -58.4 87.25 -18.75 98.7 -18.75" fill="#969696" fill-rule="evenodd" stroke="none"/>
    <path d="M-217.25 -58.3 L-192.85 -62.7 -143.8 -68.8 -113.85 -71.15 10.15 -72.45 -1.95 -70.35 -12.6 -66.45 -22.45 -60.8 -31.2 -53.65 -38.7 -45.15 -44.65 -35.5 -49.0 -25.05 -51.5 -14.0 -52.2 -2.65 -51.0 8.6 -47.95 19.5 -43.15 29.8 -36.75 39.15 -28.9 47.3 -19.8 54.05 -9.7 59.2 1.1 62.65 10.15 64.25 -113.85 62.15 -143.8 60.2 -192.85 54.1 -217.25 49.7 -241.45 44.75 -290.3 31.0 -331.55 14.2 -354.9 2.6 -367.25 -4.3 -354.9 -11.2 -331.55 -22.8 -290.3 -39.6 -241.45 -53.35 -217.25 -58.3 M-189.05 -18.35 L-201.4 -18.35 -218.2 -23.15 -213.5 -34.9 -210.0 -35.85 -210.45 -37.8 -234.3 -32.0 -239.8 -16.35 -206.7 -16.35 -206.7 7.5 -239.75 7.5 -234.35 24.0 -210.45 29.65 -210.0 27.7 -213.7 27.0 -218.4 18.35 -201.4 9.5 -189.05 9.5 -189.05 -18.35" fill="#969696" fill-rule="evenodd" stroke="none"/>
    <path d="M216.95 24.05 L221.85 31.4 209.2 39.85 204.3 32.5 216.95 24.05" fill="#707070" fill-rule="evenodd" stroke="none"/>
    <path d="M207.85 48.55 L198.7 48.55 198.7 39.45 207.85 39.45 207.85 48.55" fill="#707070" fill-rule="evenodd" stroke="none"/>
    <path d="M216.3 -33.45 L203.6 -41.85 208.5 -49.25 221.2 -40.8 216.3 -33.45" fill="#707070" fill-rule="evenodd" stroke="none"/>
    <path d="M207.15 -57.95 L207.15 -48.85 198.05 -48.85 198.05 -57.95 207.15 -57.95" fill="#707070" fill-rule="evenodd" stroke="none"/>
    <path d="M129.6 -57.65 L156.95 -57.65 156.95 -47.65 129.6 -47.65 129.6 -57.65" fill="#707070" fill-rule="evenodd" stroke="none"/>
    <path d="M133.15 -28.35 L133.15 -39.45 151.6 -39.45 151.6 -28.35 133.15 -28.35" fill="#707070" fill-rule="evenodd" stroke="none"/>
    <path d="M24.15 -41.9 L24.15 -53.45 77.3 -53.45 77.3 -41.9 24.15 -41.9" fill="#707070" fill-rule="evenodd" stroke="none"/>
    <path d="M24.15 45.0 L24.15 33.45 77.3 33.45 77.3 45.0 24.15 45.0" fill="#707070" fill-rule="evenodd" stroke="none"/>
    <path d="M115.85 -23.45 L115.85 -50.75 125.6 -50.75 125.6 -23.45 115.85 -23.45" fill="#707070" fill-rule="evenodd" stroke="none"/>
    <path d="M119.5 -52.5 L118.95 -53.95 119.2 -55.5 120.15 -56.7 121.6 -57.3 123.15 -57.05 124.4 -56.05 124.95 -54.6 124.7 -53.05 123.7 -51.85 122.25 -51.25 120.7 -51.5 119.5 -52.5" fill="#707070" fill-rule="evenodd" stroke="none"/>
    <path d="M129.6 47.9 L129.6 37.9 156.95 37.9 156.95 47.9 129.6 47.9" fill="#707070" fill-rule="evenodd" stroke="none"/>
    <path d="M151.6 29.65 L133.15 29.65 133.15 18.55 151.6 18.55 151.6 29.65" fill="#707070" fill-rule="evenodd" stroke="none"/>
    <path d="M125.6 13.65 L125.6 41.0 115.85 41.0 115.85 13.65 125.6 13.65" fill="#707070" fill-rule="evenodd" stroke="none"/>
    <path d="M120.7 41.75 L122.25 41.5 123.7 42.05 124.7 43.3 124.95 44.85 124.4 46.3 123.15 47.25 121.6 47.5 120.15 46.95 119.2 45.75 118.95 44.2 119.5 42.75 120.7 41.75" fill="#707070" fill-rule="evenodd" stroke="none"/>
    <path d="M192.5 -2.25 L194.05 -2.5 195.5 -1.95 196.5 -0.7 196.75 0.85 196.15 2.3 194.95 3.25 193.4 3.5 191.95 2.95 190.95 1.75 190.7 0.2 191.3 -1.25 192.5 -2.25" fill="#707070" fill-rule="evenodd" stroke="none"/>
    <path d="M188.4 -31.7 L189.35 -30.5 189.6 -28.95 189.05 -27.5 187.85 -26.5 186.3 -26.25 184.85 -26.85 183.85 -28.05 183.6 -29.6 184.15 -31.05 185.4 -32.05 186.95 -32.3 188.4 -31.7" fill="#707070" fill-rule="evenodd" stroke="none"/>
    <path d="M180.6 28.1 L179.65 28.1 178.9 28.0 178.15 27.75 177.45 27.35 176.85 26.9 176.35 26.35 175.15 24.5 174.3 20.25 180.6 20.25 180.6 28.1" fill="#707070" fill-rule="evenodd" stroke="none"/>
    <path d="M177.5 -36.75 L178.9 -37.35 179.65 -37.5 180.6 -37.5 180.6 -29.6 174.3 -29.6 175.2 -33.9 176.35 -35.7 176.9 -36.3 177.5 -36.75" fill="#707070" fill-rule="evenodd" stroke="none"/>
    <path d="M42.6 -28.35 L42.6 -29.9 41.5 -29.9 41.5 -36.35 42.6 -36.35 42.6 -37.9 58.6 -37.9 58.6 -36.35 59.7 -36.35 59.7 -29.9 58.6 -29.9 58.6 -28.35 42.6 -28.35" fill="#707070" fill-rule="evenodd" stroke="none"/>
    <path d="M14.7 -46.45 L24.55 -40.65 17.35 -28.5 7.5 -34.3 14.7 -46.45" fill="#707070" fill-rule="evenodd" stroke="none"/>
    <path d="M15.7 19.65 L25.2 30.1 16.8 37.8 7.25 27.4 15.7 19.65" fill="#707070" fill-rule="evenodd" stroke="none"/>
    <path d="M7.05 -48.35 L-2.6 -45.85 -8.75 -43.35 -13.1 -50.9 -5.35 -54.1 5.35 -56.85 16.55 -58.35 23.25 -58.4 23.25 -51.75 20.85 -50.45 7.05 -48.35 M-32.5 -27.75 L-34.6 -27.65 -37.9 -31.7 -31.75 -38.7 -24.15 -44.85 -19.85 -40.2 -21.4 -38.0 -32.5 -27.75" fill="#707070" fill-rule="evenodd" stroke="none"/>
    <path d="M59.7 27.6 L58.6 27.6 58.6 29.15 42.6 29.15 42.6 27.6 41.5 27.6 41.5 21.15 42.6 21.15 42.6 19.6 58.6 19.6 58.6 21.15 59.7 21.15 59.7 27.6" fill="#707070" fill-rule="evenodd" stroke="none"/>
    <path d="M-21.55 29.55 L-20.0 31.8 -24.25 36.5 -31.85 30.35 -37.95 23.35 -34.75 19.25 -32.65 19.35 -21.55 29.55 M23.1 43.35 L23.1 50.15 16.5 50.15 5.3 48.5 -5.4 45.7 -13.3 42.5 -8.9 34.9 -2.75 37.4 6.85 39.9 20.65 42.0 23.1 43.35" fill="#707070" fill-rule="evenodd" stroke="none"/>
    <path d="M-14.8 -30.9 L-10.6 -28.6 -6.8 -25.7 -3.55 -22.15 -0.95 -18.15 1.0 -13.8 2.15 -9.15 2.55 -4.4 2.15 0.4 1.0 5.0 -0.95 9.4 -3.55 13.4 -6.8 16.9 -10.6 19.85 -14.8 22.1 -19.05 23.55 -21.65 16.0 -18.05 14.75 -15.0 13.1 -12.25 11.0 -9.9 8.45 -8.0 5.55 -6.6 2.4 -5.75 -0.95 -5.45 -4.4 -5.75 -7.85 -6.6 -11.15 -8.0 -14.35 -9.9 -17.25 -12.25 -19.75 -15.0 -21.9 -18.05 -23.55 -21.65 -24.75 -19.05 -32.35 -14.8 -30.9" fill="#707070" fill-rule="evenodd" stroke="none"/>
    <path d="M-45.0 -15.95 L-42.95 -22.25 -33.75 -20.2 -35.8 -14.05 -36.45 -7.25 -36.45 -1.05 -35.8 5.75 -34.55 11.35 -43.1 13.35 -45.0 7.7 -45.8 -0.6 -45.8 -7.7 -45.0 -15.95" fill="#707070" fill-rule="evenodd" stroke="none"/>
    <path d="M-213.5 -34.9 L-201.4 -18.35 -237.0 -18.35 -232.8 -30.3 -213.5 -34.9" fill="#707070" fill-rule="evenodd" stroke="none"/>
    <path d="M-232.8 22.35 L-237.0 9.5 -201.4 9.5 -213.7 26.85 -232.8 22.35" fill="#707070" fill-rule="evenodd" stroke="none"/>
    <path d="M267.3 -18.2 L267.3 9.8 238.2 9.8 238.2 -18.2 267.3 -18.2" fill="#ffffff" fill-rule="evenodd" stroke="none"/>
    <path d="M635.55 -77.85 L635.45 -57.85 632.25 -57.8 630.55 -57.3 629.75 -56.9 628.3 -55.6 627.65 -54.7 626.7 -52.6 626.45 -51.35 626.35 -49.8 626.4 -21.9 606.4 -21.9 606.6 -54.2 608.75 -61.75 610.6 -65.25 612.95 -68.5 615.7 -71.3 618.85 -73.7 622.35 -75.6 626.05 -76.95 630.0 -77.7 635.55 -77.85" fill="#ffffff" fill-rule="evenodd" stroke="none"/>
    <path d="M608.75 54.05 L606.6 46.45 606.4 14.2 626.4 14.2 626.35 42.1 626.45 43.65 626.7 44.85 627.65 47.0 629.0 48.6 630.55 49.6 631.4 49.9 632.25 50.05 635.45 50.1 635.55 70.1 630.0 70.0 626.05 69.25 622.35 67.9 618.85 66.0 615.7 63.6 612.95 60.75 610.6 57.55 608.75 54.05" fill="#ffffff" fill-rule="evenodd" stroke="none"/>
    <path d="M543.75 45.9 L544.85 45.25 545.9 44.35 546.9 43.15 547.8 41.75 548.55 40.15 548.85 39.0 548.85 37.1 568.85 37.1 568.85 41.75 567.4 46.9 565.5 51.15 563.05 55.1 560.0 58.65 556.4 61.65 552.4 64.0 548.0 65.65 543.4 66.5 500.7 66.5 498.7 61.45 507.4 54.8 511.85 50.55 515.3 46.5 541.6 46.5 542.65 46.3 543.75 45.9" fill="#ffffff" fill-rule="evenodd" stroke="none"/>
    <path d="M498.7 -69.55 L500.7 -74.55 543.4 -74.55 548.0 -73.75 552.4 -72.1 556.4 -69.7 560.0 -66.75 563.05 -63.2 565.5 -59.25 567.4 -55.0 568.85 -49.85 568.85 -45.2 548.85 -45.2 548.85 -47.1 548.55 -48.2 547.8 -49.85 546.9 -51.25 545.9 -52.45 544.85 -53.35 543.75 -53.95 542.65 -54.35 541.6 -54.55 515.3 -54.55 511.85 -58.65 507.4 -62.9 498.7 -69.55" fill="#ffffff" fill-rule="evenodd" stroke="none"/>
  </g>
</svg>
