<?xml version="1.0" encoding="UTF-8" standalone="no"?>
<svg xmlns:ffdec="https://www.free-decompiler.com/flash" xmlns:xlink="http://www.w3.org/1999/xlink" ffdec:objectType="shape" height="15.1px" width="19.75px" xmlns="http://www.w3.org/2000/svg">
  <g transform="matrix(1.0, 0.0, 0.0, 1.0, 0.0, 0.0)">
    <path d="M4.05 7.8 Q3.55 7.3 2.85 7.3 2.15 7.3 1.65 7.8 1.15 8.3 1.15 9.0 1.15 9.7 1.65 10.2 2.15 10.7 2.85 10.7 3.55 10.7 4.05 10.2 4.55 9.7 4.55 9.0 4.55 8.3 4.05 7.8 M18.65 9.0 Q18.65 8.3 18.15 7.8 17.65 7.3 16.95 7.3 16.25 7.3 15.75 7.8 15.25 8.3 15.25 9.0 15.25 9.7 15.75 10.2 16.25 10.7 16.95 10.7 17.65 10.7 18.15 10.2 18.65 9.7 18.65 9.0 M16.7 5.45 L16.1 1.95 Q16.1 1.25 15.45 1.25 L4.35 1.25 Q3.7 1.25 3.7 1.95 L3.1 5.45 16.7 5.45 M16.15 0.0 Q16.7 0.0 17.1 0.4 17.5 0.8 17.5 1.35 L18.25 6.65 18.4 6.65 Q18.95 6.65 19.35 7.05 19.75 7.45 19.75 8.0 L19.75 9.9 19.4 10.8 18.6 11.25 18.6 13.75 Q18.6 14.3 18.2 14.7 17.75 15.1 17.2 15.1 L16.7 15.1 Q16.15 15.1 15.75 14.7 15.35 14.3 15.35 13.75 L15.35 11.25 4.45 11.25 4.45 13.75 Q4.45 14.3 4.05 14.7 3.65 15.1 3.1 15.1 L2.55 15.1 Q2.0 15.1 1.6 14.7 1.2 14.3 1.2 13.75 L1.2 11.25 0.35 10.8 Q0.0 10.4 0.0 9.9 L0.0 8.0 Q0.0 7.45 0.4 7.05 0.85 6.65 1.4 6.65 L1.55 6.65 2.3 1.35 Q2.3 0.8 2.7 0.4 3.1 0.0 3.65 0.0 L16.15 0.0" fill="#000000" fill-rule="evenodd" stroke="none"/>
  </g>
</svg>
