<?xml version="1.0" encoding="UTF-8" standalone="no"?>
<svg xmlns:ffdec="https://www.free-decompiler.com/flash" xmlns:xlink="http://www.w3.org/1999/xlink" ffdec:objectType="shape" height="11.0px" width="11.0px" xmlns="http://www.w3.org/2000/svg">
  <g transform="matrix(1.0, 0.0, 0.0, 1.0, 0.0, 0.0)">
    <path d="M9.35 1.6 Q11.0 3.25 11.0 5.5 11.0 7.75 9.35 9.35 7.75 11.0 5.5 11.0 3.25 11.0 1.6 9.35 0.0 7.75 0.0 5.5 0.0 3.25 1.6 1.6 3.25 0.0 5.5 0.0 7.75 0.0 9.35 1.6 M8.85 2.15 Q7.45 0.75 5.5 0.75 3.6 0.75 2.15 2.15 0.75 3.6 0.75 5.5 0.75 7.45 2.15 8.85 3.6 10.25 5.5 10.25 7.45 10.25 8.85 8.85 10.25 7.45 10.25 5.5 10.25 3.6 8.85 2.15" fill="#666666" fill-rule="evenodd" stroke="none"/>
  </g>
</svg>
