<?xml version="1.0" encoding="UTF-8" standalone="no"?>
<svg xmlns:ffdec="https://www.free-decompiler.com/flash" xmlns:xlink="http://www.w3.org/1999/xlink" ffdec:objectType="shape" height="27.25px" width="34.9px" xmlns="http://www.w3.org/2000/svg">
  <g transform="matrix(1.0, 0.0, 0.0, 1.0, 17.45, -3.25)">
    <path d="M2.9 23.65 L5.25 23.65 5.25 25.05 2.9 25.05 2.9 29.0 5.55 29.0 5.55 30.4 1.15 30.4 1.15 18.65 5.55 18.65 5.55 20.1 2.9 20.1 2.9 23.65 M9.95 21.15 Q9.95 19.9 8.95 19.9 7.9 19.9 7.9 21.15 L7.9 27.95 Q7.9 29.15 8.95 29.15 9.95 29.15 9.95 27.95 L9.95 26.7 11.75 26.7 11.75 28.0 Q11.75 29.2 11.0 29.85 10.3 30.5 8.95 30.5 7.6 30.5 6.85 29.85 6.1 29.25 6.1 28.0 L6.1 21.05 Q6.1 19.85 6.85 19.2 7.6 18.5 8.95 18.5 10.3 18.5 11.0 19.2 11.75 19.85 11.75 21.05 L11.75 22.4 9.95 22.4 9.95 21.15 M11.75 20.1 L11.75 18.65 17.45 18.65 17.45 20.1 15.5 20.1 15.5 30.4 13.7 30.4 13.7 20.1 11.75 20.1 M-15.8 18.75 L-14.5 18.5 Q-13.1 18.5 -12.35 19.2 -11.6 19.85 -11.6 21.05 L-11.6 22.4 -13.4 22.4 -13.4 21.15 Q-13.4 20.5 -13.7 20.2 -14.0 19.9 -14.5 19.9 -15.05 19.9 -15.3 20.3 L-15.6 21.3 -15.45 22.25 -14.75 23.1 -12.75 25.0 Q-12.05 25.65 -11.8 26.3 -11.55 26.95 -11.55 27.8 -11.55 29.0 -12.3 29.75 -13.0 30.5 -14.55 30.5 -15.85 30.5 -16.65 29.9 -17.45 29.25 -17.45 28.0 L-17.45 26.7 -15.65 26.7 -15.65 27.95 -15.35 28.85 -14.55 29.15 Q-13.3 29.15 -13.3 27.8 -13.3 27.25 -13.45 26.8 -13.65 26.4 -14.1 25.95 L-16.15 24.05 -17.1 22.75 -17.35 21.25 -17.2 20.15 -16.65 19.3 -15.8 18.75 M-6.5 23.65 L-6.5 25.05 -8.85 25.05 -8.85 29.0 -6.2 29.0 -6.2 30.4 -10.6 30.4 -10.6 18.65 -6.2 18.65 -6.2 20.1 -8.85 20.1 -8.85 23.65 -6.5 23.65 M-2.9 18.65 L-2.9 29.0 -0.25 29.0 -0.25 30.4 -4.65 30.4 -4.65 18.65 -2.9 18.65" fill="#ff33cc" fill-rule="evenodd" stroke="none"/>
    <path d="M14.5 3.4 L12.25 7.8 14.65 15.15 12.85 15.15 11.1 9.25 10.4 10.6 10.4 15.15 8.65 15.15 8.65 3.4 10.4 3.4 10.4 8.4 10.45 8.4 10.6 7.8 10.8 7.3 11.05 6.7 12.7 3.4 14.5 3.4 M5.55 4.95 Q5.25 4.65 4.75 4.65 4.2 4.65 3.95 5.05 3.65 5.4 3.65 6.05 3.65 6.6 3.8 7.0 L4.5 7.85 6.5 9.75 7.45 11.05 7.7 12.55 Q7.7 13.75 6.95 14.5 6.25 15.25 4.7 15.25 3.4 15.25 2.6 14.65 1.8 14.0 1.8 12.75 L1.8 11.45 3.6 11.45 3.6 12.7 Q3.6 13.3 3.9 13.6 L4.7 13.9 Q5.95 13.9 5.95 12.55 L5.8 11.55 5.15 10.7 3.1 8.8 Q2.4 8.15 2.15 7.5 1.9 6.9 1.9 6.0 L2.05 4.9 Q2.25 4.4 2.6 4.05 2.95 3.7 3.45 3.5 L4.75 3.25 Q6.15 3.25 6.9 3.95 7.65 4.6 7.65 5.8 L7.65 7.15 5.85 7.15 5.85 5.9 Q5.85 5.25 5.55 4.95 M-2.35 5.9 L-2.45 6.65 -2.55 7.35 -3.05 10.85 -1.5 10.85 -2.0 7.35 -2.1 6.65 -2.15 5.9 -2.25 5.05 -2.3 5.05 -2.35 5.9 M-1.1 3.4 L0.95 15.15 -0.85 15.15 -1.25 12.15 -3.25 12.15 -3.7 15.15 -5.5 15.15 -3.45 3.4 -1.1 3.4 M-5.9 3.4 L-5.9 15.15 -7.6 15.15 -7.6 7.5 -7.6 6.65 -7.55 5.8 -7.45 5.0 -7.5 5.0 -9.4 15.15 -11.15 15.15 -13.05 5.0 -13.1 5.0 -13.05 5.8 -13.0 6.6 -12.95 7.5 -12.95 15.15 -14.65 15.15 -14.65 3.4 -11.95 3.4 -10.5 10.8 -10.45 11.55 -10.35 12.3 -10.3 13.1 -10.25 13.1 -10.2 12.3 -10.15 11.55 -10.05 10.8 -8.6 3.4 -5.9 3.4" fill="#ff33cc" fill-rule="evenodd" stroke="none"/>
  </g>
</svg>
