<?xml version="1.0" encoding="UTF-8" standalone="no"?>
<svg xmlns:ffdec="https://www.free-decompiler.com/flash" xmlns:xlink="http://www.w3.org/1999/xlink" ffdec:objectType="shape" height="100.0px" width="200.0px" xmlns="http://www.w3.org/2000/svg">
  <g transform="matrix(1.0, 0.0, 0.0, 1.0, 0.0, 0.0)">
    <path d="M200.0 100.0 L0.0 100.0 0.0 0.0 200.0 0.0 200.0 100.0 M90.55 39.95 L92.05 32.6 98.05 32.6 Q102.45 32.6 102.45 35.8 102.45 39.95 96.95 39.95 L90.55 39.95 M94.6 45.7 Q98.6 45.7 98.6 49.8 L98.4 55.05 Q98.4 56.7 98.9 57.5 L104.8 63.65 99.75 74.5 110.5 68.1 118.6 74.3 117.05 64.05 126.35 57.6 116.1 57.6 114.45 47.3 108.45 57.5 107.3 57.5 Q106.3 55.85 106.3 53.55 L106.45 47.9 Q106.45 45.65 105.75 44.4 105.0 43.25 103.3 42.75 L103.3 42.7 Q106.9 42.2 108.7 39.9 110.4 37.75 110.4 34.2 110.4 29.65 107.55 27.8 105.25 26.25 100.45 26.25 L85.15 26.25 78.7 56.8 86.8 56.8 89.2 45.7 94.6 45.7 M114.8 59.05 L121.6 59.05 115.45 63.35 116.6 70.85 110.65 66.35 103.15 70.8 106.6 63.4 102.4 59.0 109.3 59.0 113.6 51.65 114.8 59.05" fill="#000000" fill-rule="evenodd" stroke="none"/>
  </g>
</svg>
