<?xml version="1.0" encoding="UTF-8" standalone="no"?>
<svg xmlns:ffdec="https://www.free-decompiler.com/flash" xmlns:xlink="http://www.w3.org/1999/xlink" ffdec:objectType="shape" height="1237.95px" width="510.0px" xmlns="http://www.w3.org/2000/svg">
  <g transform="matrix(1.0, 0.0, 0.0, 1.0, 255.0, 512.95)">
    <path d="M-182.4 -494.0 L-182.4 -512.95 174.6 -512.95 174.6 -494.0 255.0 -494.0 255.0 694.4 174.6 694.4 174.6 725.0 -182.4 725.0 -182.4 694.4 -255.0 694.4 -255.0 -494.0 -182.4 -494.0" fill="#434343" fill-rule="evenodd" stroke="none"/>
    <path d="M-41.9 312.5 L-37.95 312.5 -37.95 302.85 -28.45 302.85 -28.45 296.85 28.1 296.85 28.1 302.85 37.9 302.85 37.9 312.5 41.55 312.5 41.55 380.0 37.9 380.0 37.9 395.55 39.05 395.55 39.05 401.4 84.65 401.4 120.6 462.5 120.6 543.75 59.65 543.75 55.2 691.6 39.2 691.6 39.2 696.0 -39.4 696.0 -39.4 691.6 -120.75 691.6 -120.75 401.4 -39.7 401.4 -39.7 395.55 -37.95 395.55 -37.95 380.0 -41.9 380.0 -41.9 312.5" fill="#969696" fill-rule="evenodd" stroke="none"/>
    <path d="M51.55 438.35 L51.55 401.4 120.6 401.4 120.6 499.65 93.75 499.7 93.75 480.0 51.55 438.35" fill="#707070" fill-rule="evenodd" stroke="none"/>
    <path d="M-92.85 449.4 L-92.85 468.2 -45.35 523.75 -45.35 546.0 -42.2 546.0 -42.2 548.75 -45.35 548.75 -45.35 570.65 -92.85 627.2 -92.85 645.65 -120.65 645.65 -120.65 449.4 -92.85 449.4" fill="#707070" fill-rule="evenodd" stroke="none"/>
    <path d="M-143.6 100.5 L-120.85 100.5 -120.85 192.5 -143.6 192.5 -143.6 100.5" fill="#969696" fill-rule="evenodd" stroke="none"/>
    <path d="M120.6 100.5 L142.65 100.5 142.65 192.5 120.6 192.5 120.6 100.5" fill="#969696" fill-rule="evenodd" stroke="none"/>
    <path d="M28.1 -103.15 L28.1 -96.85 37.7 -96.85 37.7 -87.7 55.2 -87.7 55.2 -19.95 37.9 -19.95 37.9 -4.45 39.05 -4.45 39.05 1.35 120.6 1.35 120.6 72.5 119.35 72.5 119.35 96.25 104.35 96.25 104.35 100.5 120.6 100.5 120.6 192.5 105.0 192.5 105.0 196.75 120.0 196.75 120.0 219.7 120.6 219.7 120.6 291.6 39.2 291.6 39.2 296.0 28.1 296.0 28.1 308.8 -28.45 308.8 -28.45 296.0 -39.4 296.0 -39.4 291.6 -120.85 291.6 -120.85 196.75 -105.95 196.75 -105.95 192.5 -120.85 192.5 -120.85 100.5 -105.3 100.5 -105.3 96.25 -120.3 96.25 -120.3 72.5 -120.85 72.5 -120.85 1.35 -39.7 1.35 -39.7 -4.45 -37.95 -4.45 -37.95 -19.95 -55.65 -19.95 -55.65 -87.7 -38.35 -87.7 -38.35 -96.85 -28.45 -96.85 -28.45 -103.15 28.1 -103.15" fill="#969696" fill-rule="evenodd" stroke="none"/>
    <path d="M119.35 96.25 L104.35 96.25 104.35 100.5 142.65 100.5 142.65 192.5 105.0 192.5 105.0 196.75 120.0 196.75 120.0 219.7 148.1 219.7 148.1 291.6 90.0 291.6 90.0 1.35 148.1 1.35 148.1 72.5 119.35 72.5 119.35 96.25" fill="#707070" fill-rule="evenodd" stroke="none"/>
    <path d="M-150.0 72.5 L-150.0 1.35 -76.9 1.35 -76.9 98.15 -91.25 112.85 -91.25 180.05 -76.9 194.75 -76.9 291.6 -150.0 291.6 -150.0 219.7 -120.95 219.7 -120.95 196.75 -105.95 196.75 -105.95 192.5 -143.6 192.5 -143.6 100.5 -105.3 100.5 -105.3 96.25 -120.3 96.25 -120.3 72.5 -150.0 72.5" fill="#707070" fill-rule="evenodd" stroke="none"/>
    <path d="M-97.0 -488.1 L-92.85 -488.1 -92.85 -496.05 91.55 -496.05 91.55 -488.1 96.75 -488.1 96.75 -345.75 91.55 -345.75 91.55 -334.95 96.75 -334.95 96.75 -187.0 91.55 -187.0 91.55 -176.2 96.75 -176.2 96.75 -107.95 91.55 -107.95 91.55 -99.3 -92.85 -99.3 -92.85 -107.95 -97.0 -107.95 -97.0 -176.2 -92.85 -176.2 -92.85 -187.0 -97.0 -187.0 -97.0 -334.95 -92.85 -334.95 -92.85 -345.75 -97.0 -345.75 -97.0 -488.1" fill="#969696" fill-rule="evenodd" stroke="none"/>
    <path d="M-92.85 -512.95 L91.55 -512.95 91.55 -496.05 -92.85 -496.05 -92.85 -512.95" fill="#ffffff" fill-rule="evenodd" stroke="none"/>
  </g>
</svg>
