<?xml version="1.0" encoding="UTF-8" standalone="no"?>
<svg xmlns:ffdec="https://www.free-decompiler.com/flash" xmlns:xlink="http://www.w3.org/1999/xlink" ffdec:objectType="shape" height="47.0px" width="486.0px" xmlns="http://www.w3.org/2000/svg">
  <g transform="matrix(1.0, 0.0, 0.0, 1.0, 0.0, 0.0)">
    <path d="M486.0 44.0 Q486.0 47.0 483.0 47.0 L3.0 47.0 Q0.0 47.0 0.0 44.0 L0.0 3.0 Q0.0 0.0 3.0 0.0 L483.0 0.0 Q486.0 0.0 486.0 3.0 L486.0 44.0" fill="#999999" fill-rule="evenodd" stroke="none"/>
    <path d="M435.0 1.0 Q438.0 1.0 438.0 4.0 L438.0 43.0 Q438.0 46.0 435.0 46.0 L51.0 46.0 Q48.0 46.0 48.0 43.0 L48.0 4.0 Q48.0 1.0 51.0 1.0 L435.0 1.0" fill="#ffffff" fill-rule="evenodd" stroke="none"/>
  </g>
</svg>
