<?xml version="1.0" encoding="UTF-8" standalone="no"?>
<svg xmlns:ffdec="https://www.free-decompiler.com/flash" xmlns:xlink="http://www.w3.org/1999/xlink" ffdec:objectType="shape" height="14.0px" width="14.0px" xmlns="http://www.w3.org/2000/svg">
  <g transform="matrix(1.0, 0.0, 0.0, 1.0, 0.0, 0.0)">
    <path d="M11.95 11.95 Q9.9 14.0 7.0 14.0 4.1 14.0 2.05 11.95 0.0 9.9 0.0 7.0 0.0 4.1 2.05 2.05 4.1 0.0 7.0 0.0 9.9 0.0 11.95 2.05 14.0 4.1 14.0 7.0 14.0 9.9 11.95 11.95" fill="#000000" fill-rule="evenodd" stroke="none"/>
    <path d="M7.0 13.0 Q4.5 13.0 2.75 11.25 1.0 9.5 1.0 7.0 1.0 4.5 2.75 2.75 4.5 1.0 7.0 1.0 9.5 1.0 11.25 2.75 13.0 4.5 13.0 7.0 13.0 9.5 11.25 11.25 9.5 13.0 7.0 13.0" fill="#ffffff" fill-rule="evenodd" stroke="none"/>
  </g>
</svg>
