<?xml version="1.0" encoding="UTF-8" standalone="no"?>
<svg xmlns:ffdec="https://www.free-decompiler.com/flash" xmlns:xlink="http://www.w3.org/1999/xlink" ffdec:objectType="shape" height="352.9px" width="514.15px" xmlns="http://www.w3.org/2000/svg">
  <g transform="matrix(1.0, 0.0, 0.0, 1.0, 217.45, 275.9)">
    <path d="M296.7 -47.75 L214.2 -47.75 214.2 77.0 -217.45 77.0 -217.45 -275.9 296.7 -275.9 296.7 -47.75" fill="#434343" fill-rule="evenodd" stroke="none"/>
    <path d="M-19.3 -96.25 L-20.9 -95.95 -22.05 -94.7 -22.2 -93.05 -21.4 -91.6 -19.9 -90.95 -18.25 -91.25 -17.15 -92.5 -16.95 -94.15 -17.8 -95.6 -19.3 -96.25 M214.6 -95.75 L213.45 -94.55 213.3 -92.9 214.1 -91.45 215.6 -90.75 217.25 -91.1 218.35 -92.35 218.55 -94.0 217.7 -95.4 216.2 -96.1 214.6 -95.75 M201.35 -92.5 L201.55 -94.15 200.7 -95.6 199.2 -96.25 197.6 -95.95 196.45 -94.7 196.3 -93.05 197.1 -91.6 198.6 -90.95 200.25 -91.25 201.35 -92.5 M-196.8 -270.3 L-197.55 -271.65 -78.5 -271.65 -78.5 -192.0 -84.2 -192.0 -84.2 -188.3 -45.45 -188.3 -45.85 -187.85 -46.05 -186.2 -45.25 -184.8 -43.7 -184.1 -42.1 -184.45 -40.95 -185.65 -40.8 -187.3 -41.35 -188.3 -39.85 -188.3 -39.85 -98.25 -38.85 -98.25 -38.85 -88.15 -30.55 -88.15 -30.55 -98.25 82.95 -98.25 82.95 -88.15 91.3 -88.15 91.3 -98.25 208.8 -98.25 208.8 -85.3 212.3 -85.3 212.3 -185.65 293.15 -185.65 293.15 -173.4 292.55 -174.4 291.05 -175.1 289.4 -174.75 288.3 -173.55 288.1 -171.9 288.95 -170.45 290.45 -169.75 292.1 -170.1 293.15 -171.25 293.15 -51.65 212.3 -51.65 212.3 -57.3 208.8 -57.3 208.8 72.0 98.05 72.0 98.55 71.45 98.7 69.8 97.9 68.35 96.35 67.7 94.75 68.0 93.65 69.25 93.45 70.9 94.05 72.0 91.3 72.0 91.3 62.8 82.95 62.8 82.95 72.0 74.35 72.0 74.7 71.6 74.9 69.95 74.05 68.55 72.55 67.85 70.9 68.2 69.8 69.4 69.6 71.05 70.15 72.0 -30.55 72.0 -30.55 63.3 -38.85 63.3 -38.85 72.0 -144.8 72.0 -144.3 71.45 -144.1 69.8 -144.95 68.35 -146.45 67.7 -148.1 68.0 -149.2 69.25 -149.4 70.9 -148.75 72.0 -158.0 72.0 -158.0 -88.2 -147.1 -88.2 -147.1 -96.55 -158.0 -96.55 -158.0 -188.3 -112.7 -188.3 -112.7 -192.0 -118.55 -192.0 -117.65 -193.0 -117.45 -194.65 -118.3 -196.1 -119.8 -196.75 -121.4 -196.45 -122.55 -195.2 -122.7 -193.55 -121.9 -192.1 -121.6 -192.0 -213.7 -192.0 -213.7 -271.65 -201.15 -271.65 -201.85 -270.85 -202.05 -269.2 -201.25 -267.8 -199.7 -267.1 -198.1 -267.45 -196.95 -268.65 -196.8 -270.3" fill="#969696" fill-rule="evenodd" stroke="none"/>
    <path d="M138.5 -98.25 L138.5 -76.0 93.5 -76.0 93.5 -98.25 138.5 -98.25" fill="#707070" fill-rule="evenodd" stroke="none"/>
    <path d="M-213.7 -235.5 L-202.5 -235.5 -202.5 -195.5 -213.7 -195.5 -213.7 -235.5" fill="#707070" fill-rule="evenodd" stroke="none"/>
    <path d="M-197.0 -271.65 L-197.0 -275.9 -168.5 -275.9 -168.5 -271.65 -197.0 -271.65" fill="#ffffff" fill-rule="evenodd" stroke="none"/>
    <path d="M208.8 -47.75 L214.2 -47.75 214.2 23.25 208.8 23.25 208.8 -47.75" fill="#ffffff" fill-rule="evenodd" stroke="none"/>
    <path d="M296.7 -169.75 L296.7 -141.2 293.15 -141.2 293.15 -169.75 296.7 -169.75" fill="#ffffff" fill-rule="evenodd" stroke="none"/>
  </g>
</svg>
