<?xml version="1.0" encoding="UTF-8" standalone="no"?>
<svg xmlns:ffdec="https://www.free-decompiler.com/flash" xmlns:xlink="http://www.w3.org/1999/xlink" ffdec:objectType="shape" height="26.6px" width="9.7px" xmlns="http://www.w3.org/2000/svg">
  <g transform="matrix(1.0, 0.0, 0.0, 1.0, -0.6, -0.75)">
    <path d="M8.05 0.75 L8.85 2.9 9.15 5.1 9.15 8.0 10.3 21.95 10.05 23.95 9.2 27.35 7.0 27.25 5.45 27.0 3.75 26.25 2.5 25.35 1.45 24.25 0.95 23.2 0.7 22.35 0.6 21.05 0.85 19.9 1.35 19.05 2.15 18.25 4.35 16.75 4.35 14.6 4.15 13.85 3.35 12.5 2.65 11.6 2.25 10.65 2.1 9.55 2.35 8.9 3.6 7.15 4.05 5.9 4.3 4.4 4.5 3.95 5.45 2.9 6.5 2.1 7.15 1.35 8.05 0.75" fill="#ffffff" fill-rule="evenodd" stroke="none"/>
  </g>
</svg>
