<?xml version="1.0" encoding="UTF-8" standalone="no"?>
<svg xmlns:ffdec="https://www.free-decompiler.com/flash" xmlns:xlink="http://www.w3.org/1999/xlink" ffdec:objectType="shape" height="17.7px" width="21.55px" xmlns="http://www.w3.org/2000/svg">
  <g transform="matrix(1.0, 0.0, 0.0, 1.0, 7.4, 24.15)">
    <path d="M0.5 -8.8 L0.5 -22.3 -4.0 -22.3 -4.0 -22.0 -4.3 -22.0 -4.3 -13.6 -2.85 -13.6 -2.85 -8.8 0.5 -8.8 M14.15 -24.15 L14.15 -21.8 3.65 -21.8 3.65 -18.45 14.15 -18.45 14.15 -12.35 3.65 -12.35 3.65 -9.15 14.15 -9.15 14.15 -6.55 6.75 -6.55 6.75 -7.05 6.15 -7.05 6.15 -6.45 -7.4 -6.45 -7.4 -24.15 6.15 -24.15 6.15 -23.55 6.75 -23.55 6.75 -24.15 14.15 -24.15" fill="#ffffff" fill-rule="evenodd" stroke="none"/>
  </g>
</svg>
