<?xml version="1.0" encoding="UTF-8" standalone="no"?>
<svg xmlns:ffdec="https://www.free-decompiler.com/flash" xmlns:xlink="http://www.w3.org/1999/xlink" ffdec:objectType="shape" height="20.25px" width="21.25px" xmlns="http://www.w3.org/2000/svg">
  <g transform="matrix(1.0, 0.0, 0.0, 1.0, 10.25, 9.5)">
    <path d="M6.55 -8.5 L7.3 -8.6 7.75 -8.5 7.95 -8.1 8.2 -8.1 8.85 -7.8 8.95 -7.6 8.95 -7.3 8.8 -6.95 8.15 -6.75 8.8 -6.0 8.7 -5.35 9.25 -5.15 9.75 -4.85 10.0 -4.3 9.85 -3.6 10.2 -3.4 10.6 -2.6 10.6 -1.6 11.0 -0.85 10.7 -0.35 11.0 0.25 10.35 1.55 9.8 1.55 9.4 1.7 9.45 2.35 9.05 2.9 8.45 3.45 8.8 3.8 9.2 4.5 9.05 5.4 8.55 6.0 8.05 6.15 7.85 6.85 7.3 7.7 6.7 8.05 6.15 7.9 5.85 8.4 Q5.7 8.55 5.5 8.65 L4.55 8.65 4.5 9.0 4.05 9.3 3.3 9.65 2.45 9.65 2.3 10.45 1.55 10.7 0.95 10.75 0.15 10.5 -0.25 9.95 -0.7 10.15 -1.85 10.15 -2.55 9.65 -3.05 9.6 -3.5 9.45 -3.85 9.0 -4.0 8.3 -3.95 8.0 -3.85 7.75 -4.4 7.15 -5.45 6.75 -6.15 6.85 -6.7 6.85 -7.5 6.5 -7.7 6.05 -7.6 5.8 -7.9 5.65 -8.35 5.3 -8.65 4.65 -8.45 3.05 -8.9 2.65 -9.05 2.15 -8.95 1.65 -9.55 0.85 -9.55 -0.35 -10.15 -1.25 -10.25 -3.7 -10.0 -3.7 -9.9 -3.8 -9.7 -3.8 -9.6 -3.9 -9.55 -3.9 -9.35 -5.25 -8.65 -5.85 -8.7 -6.05 -8.45 -6.9 -8.0 -7.3 -7.05 -7.6 -6.45 -7.95 -5.15 -7.9 -4.0 -8.5 -3.85 -8.6 -3.45 -8.5 -3.35 -8.4 -3.1 -8.3 -3.05 -8.3 -3.05 -8.75 -2.15 -9.1 -1.8 -9.1 -1.65 -9.0 -1.05 -9.3 1.25 -9.2 1.3 -9.1 2.15 -9.5 2.55 -9.4 2.65 -9.25 2.95 -9.05 3.55 -8.25 4.15 -8.0 4.25 -7.9 4.35 -7.9 4.45 -7.8 5.6 -7.8 5.75 -8.2 6.55 -8.5" fill="#ffffff" fill-rule="evenodd" stroke="none"/>
  </g>
</svg>
