<?xml version="1.0" encoding="UTF-8" standalone="no"?>
<svg xmlns:ffdec="https://www.free-decompiler.com/flash" xmlns:xlink="http://www.w3.org/1999/xlink" ffdec:objectType="shape" height="828.75px" width="1763.45px" xmlns="http://www.w3.org/2000/svg">
  <g transform="matrix(1.0, 0.0, 0.0, 1.0, 491.5, -821.0)">
    <path d="M542.35 1203.7 L541.45 1199.0 512.95 1199.7 512.95 1205.45 542.35 1203.7 M488.0 1168.3 L535.55 1168.3 617.8 1163.05 628.25 1167.7 728.95 1163.7 737.95 1227.7 622.6 1231.7 621.05 1240.0 542.45 1235.75 489.0 1238.95 488.0 1168.3" fill="#1e1e1e" fill-rule="evenodd" stroke="none"/>
    <path d="M197.45 1152.05 L207.35 1153.05 252.05 1165.25 368.95 1167.45 368.35 1239.95 203.45 1239.95 197.45 1152.05" fill="#1e1e1e" fill-rule="evenodd" stroke="none"/>
    <path d="M31.65 1176.75 L89.95 1172.75 95.6 1243.75 38.05 1249.1 31.65 1176.75" fill="#1e1e1e" fill-rule="evenodd" stroke="none"/>
    <path d="M197.25 1242.7 L168.35 1251.75 147.1 1260.75 132.75 1269.35 116.25 1275.1 101.85 1277.5 98.25 1255.8 110.8 1253.7 123.4 1249.3 137.1 1241.1 160.75 1231.05 190.7 1221.7 197.25 1242.7" fill="#1e1e1e" fill-rule="evenodd" stroke="none"/>
    <path d="M-125.15 1173.8 L-82.75 1165.3 -65.55 1196.5 -21.05 1200.5 18.9 1248.85 17.05 1270.75 -64.25 1263.95 -64.25 1264.0 -95.2 1261.6 -157.4 1250.15 -153.4 1228.55 -123.0 1234.1 -125.15 1173.8" fill="#1e1e1e" fill-rule="evenodd" stroke="none"/>
    <path d="M816.0 1206.55 L816.9 1224.5 787.65 1225.95 777.05 1228.3 773.15 1210.75 785.25 1208.05 816.0 1206.55" fill="#1e1e1e" fill-rule="evenodd" stroke="none"/>
    <path d="M771.9 1161.75 L777.45 1163.0 815.0 1161.85 815.55 1179.85 775.75 1181.05 767.95 1179.3 771.9 1161.75" fill="#1e1e1e" fill-rule="evenodd" stroke="none"/>
    <path d="M-421.6 1245.25 L-427.8 1261.9 -430.35 1277.9 -430.35 1300.35 -427.3 1321.45 -421.4 1355.3 -421.3 1244.65 -421.6 1245.25 M-421.1 1062.5 L-423.85 1070.9 -432.0 1151.5 -432.0 1167.5 -426.35 1183.95 -421.25 1190.45 -421.1 1062.5 M-275.9 1176.55 L-248.0 1177.55 -247.8 1232.35 -239.6 1231.85 -238.75 1249.85 -285.6 1251.15 -295.25 1252.65 -305.1 1253.65 -316.65 1256.8 -325.9 1259.95 -339.35 1268.0 -348.4 1277.0 -355.65 1287.4 -361.75 1300.3 -365.55 1314.25 -366.45 1326.05 -371.8 1325.65 -374.05 1338.9 -375.65 1358.15 -386.45 1384.55 -386.4 1454.2 -388.55 1484.25 -392.75 1511.95 -396.7 1528.2 -387.5 1503.85 -380.65 1480.55 -367.25 1484.45 -374.3 1508.55 -386.95 1541.95 -397.9 1569.3 -410.25 1585.15 -429.6 1604.5 -431.35 1607.55 -446.1 1627.6 -460.45 1645.6 -487.25 1623.05 -475.35 1608.15 -464.55 1582.8 -450.95 1544.1 -450.05 1530.55 -451.5 1511.55 -437.55 1510.5 -436.0 1530.5 -436.45 1536.95 -432.05 1525.5 -426.95 1504.45 -423.25 1479.7 -421.8 1460.5 -422.05 1460.55 -433.3 1389.1 -434.05 1364.35 -441.15 1323.55 -443.9 1304.35 -457.05 1303.6 -455.15 1271.2 -450.85 1251.5 -440.25 1230.35 -424.45 1213.65 -428.1 1210.75 -442.35 1192.75 -450.0 1170.55 -449.95 1150.1 -441.55 1067.15 -432.35 1039.05 -432.35 992.8 -421.0 960.7 -420.85 867.0 -385.85 867.05 -385.95 958.65 -374.6 993.0 -374.6 1036.1 -368.85 1065.2 -369.85 1106.45 -364.3 1131.6 -357.45 1145.9 -374.6 1154.1 -382.4 1137.8 -386.15 1120.7 -386.25 1192.8 -381.75 1191.35 -364.5 1191.35 -364.5 1209.35 -378.9 1209.35 -386.25 1211.75 -386.25 1215.1 -379.1 1217.5 -368.05 1218.7 -363.0 1218.7 -363.0 1236.7 -369.0 1236.7 -382.95 1235.2 -386.3 1234.1 -386.4 1327.85 -383.35 1311.2 -378.7 1294.0 -371.25 1278.35 -362.25 1265.4 -350.5 1253.7 -333.5 1243.55 -321.7 1239.5 -308.4 1235.9 -298.65 1234.9 -299.25 1174.8 -275.9 1176.55" fill="#1e1e1e" fill-rule="evenodd" stroke="none"/>
    <path d="M987.75 1159.95 L1007.4 1168.8 1096.45 1165.3 1108.1 1156.85 1122.65 1149.85 1147.4 1145.6 1150.3 1162.3 1175.1 1160.2 1195.6 1155.95 1203.7 1153.0 1197.8 1137.05 1236.5 1122.8 1260.05 1186.6 1221.35 1200.85 1215.45 1184.9 1204.9 1188.75 1180.05 1193.85 1148.7 1196.45 1149.65 1196.6 1147.2 1214.45 1128.45 1211.85 1100.4 1203.2 1095.05 1199.4 1083.65 1199.8 1082.3 1200.9 1060.95 1225.75 1043.75 1220.8 1053.5 1206.4 1058.75 1200.65 1017.1 1202.1 1011.3 1206.4 996.05 1215.1 972.25 1221.2 981.3 1226.1 995.4 1236.5 983.8 1250.3 971.55 1241.3 951.25 1229.45 930.95 1222.5 910.95 1220.5 852.45 1221.0 853.45 1158.5 917.45 1156.0 941.4 1147.6 960.95 1136.5 966.7 1139.6 969.05 1141.3 972.8 1150.1 969.75 1154.2 987.75 1159.95" fill="#1e1e1e" fill-rule="evenodd" stroke="none"/>
    <path d="M127.85 1211.05 L34.1 1218.2 -373.3 1218.15 -379.1 1217.5 -398.7 1211.0 -399.35 1210.45 -380.6 1210.15 33.8 1210.2 127.35 1203.05 192.95 1199.35 485.95 1199.4 497.75 1198.75 501.75 1197.2 515.25 1197.35 510.15 1202.45 499.45 1206.65 486.05 1207.4 193.05 1207.35 127.85 1211.05" fill="#dcdcdc" fill-rule="evenodd" stroke="none"/>
    <path d="M-427.0 1232.35 L-431.15 1236.75 -440.4 1255.2 -444.2 1272.7 -446.1 1304.25 -451.0 1320.5 -454.05 1303.8 -452.15 1271.6 -448.0 1252.5 -437.75 1232.1 -422.05 1215.5 -407.35 1227.05 -405.8 1227.6 -405.8 1364.8 -406.7 1401.0 -406.4 1455.45 -408.35 1481.6 -412.3 1507.6 -417.7 1529.95 -427.2 1554.75 -436.65 1576.25 -448.15 1596.7 -461.85 1615.25 -475.95 1632.9 -491.5 1641.5 -484.65 1624.65 -472.75 1609.7 -461.75 1583.9 -447.95 1544.7 -447.05 1530.55 -448.5 1511.6 -452.4 1494.5 -451.25 1482.25 -444.6 1492.65 -440.55 1510.7 -439.0 1530.5 -440.05 1546.35 -450.85 1577.0 -447.25 1570.65 -438.2 1550.05 -429.2 1526.4 -424.0 1505.05 -420.25 1480.05 -418.75 1460.05 -419.1 1460.1 -430.3 1388.8 -431.05 1364.05 -438.2 1323.1 -441.35 1300.85 -441.35 1277.05 -438.5 1259.1 -431.5 1240.35 -427.0 1232.35 M-417.8 1232.9 L-419.3 1234.9 -424.35 1244.0 -430.7 1261.15 -433.35 1277.7 -433.35 1300.6 -430.3 1321.9 -423.1 1363.25 -422.35 1388.1 -418.7 1411.0 -417.8 1364.65 -417.8 1232.9" fill="#b4b4b4" fill-rule="evenodd" stroke="none"/>
    <path d="M1078.45 1199.95 L1066.6 1213.8 1056.65 1227.05 1049.0 1244.45 1037.75 1263.7 1037.65 1240.45 1046.2 1220.95 1057.35 1206.1 1062.15 1200.55 1078.45 1199.95" fill="#b4b4b4" fill-rule="evenodd" stroke="none"/>
    <path d="M-384.5 1069.55 L-389.5 1041.05 -389.5 1197.25 -379.55 1194.45 -259.25 1194.3 -259.2 1191.05 -310.25 1189.0 -327.45 1186.5 -346.9 1177.1 -362.05 1164.85 -372.2 1151.1 -380.15 1134.5 -384.5 1107.0 -384.5 1069.55 M1271.95 1172.7 L1262.05 1183.45 1196.3 1207.3 1163.6 1220.6 1144.2 1233.35 1133.85 1241.9 1133.85 1241.0 1117.05 1241.0 1122.6 1235.6 1137.35 1223.5 1156.2 1211.15 1148.15 1211.55 1129.15 1208.9 1101.75 1200.45 1099.95 1199.2 1114.85 1198.7 1133.85 1197.45 1148.7 1199.5 1177.15 1198.05 1199.15 1193.5 1257.5 1172.3 1271.95 1172.7 M1101.8 1165.1 L1109.65 1159.45 1123.6 1152.75 1151.05 1148.1 1151.05 1147.95 1189.6 1141.0 1204.25 1137.7 1238.0 1125.35 1252.95 1126.7 1241.4 1136.5 1204.5 1151.25 1179.4 1156.15 1147.1 1160.8 1131.7 1163.5 1101.8 1165.1 M212.2 1192.95 L173.6 1194.55 30.65 1206.15 -125.2 1207.4 -186.95 1206.25 -377.85 1206.45 -389.5 1209.7 -389.5 1214.05 -398.7 1211.0 -415.3 1197.95 -417.8 1194.75 -417.8 1045.35 -427.1 1070.4 -435.0 1151.3 -435.0 1168.0 -429.0 1185.45 -417.4 1200.05 -400.15 1213.65 -379.8 1220.45 -365.45 1221.7 -162.3 1221.45 -162.3 1221.55 35.15 1221.15 130.15 1212.95 168.3 1211.95 492.6 1210.95 555.7 1206.4 618.35 1202.75 618.25 1200.3 578.55 1196.5 318.3 1195.95 212.2 1192.95 M513.0 1171.75 L610.25 1166.6 648.6 1146.25 659.95 1151.5 651.8 1158.15 627.6 1171.0 728.35 1167.15 717.95 1159.0 716.45 1151.0 734.6 1156.85 776.75 1165.3 914.7 1160.1 941.9 1150.05 968.05 1135.55 983.8 1130.45 974.8 1145.5 958.0 1154.85 962.5 1155.05 989.7 1162.05 1002.7 1168.6 971.3 1169.7 960.7 1167.0 923.65 1171.35 923.75 1174.15 1113.55 1167.7 1153.85 1165.05 1175.55 1163.15 1196.6 1158.8 1211.5 1153.85 1246.25 1140.3 1263.25 1149.0 1255.7 1166.65 1220.7 1180.3 1203.9 1185.9 1179.65 1190.9 1155.85 1193.0 1114.75 1195.7 924.75 1202.1 924.85 1205.35 943.05 1204.7 974.7 1206.4 986.55 1203.2 1013.5 1202.25 1009.9 1204.9 995.3 1213.25 976.5 1218.3 962.15 1218.9 979.65 1228.65 993.5 1238.8 998.05 1250.85 985.75 1248.0 973.15 1238.75 953.95 1228.1 939.6 1221.8 931.85 1219.45 913.05 1218.2 786.3 1223.0 741.05 1234.35 720.95 1240.7 723.25 1232.35 733.45 1225.0 625.0 1229.1 652.65 1240.7 662.95 1246.0 650.45 1252.8 609.05 1235.45 539.55 1231.6 493.5 1234.95 209.1 1235.85 167.3 1248.9 145.75 1258.05 131.5 1266.65 115.5 1272.15 101.35 1274.5 83.95 1264.7 98.75 1258.75 111.55 1256.6 124.7 1252.05 138.5 1243.8 156.2 1236.3 131.6 1236.9 36.25 1245.15 -51.55 1246.0 21.95 1252.2 36.6 1261.0 21.25 1268.2 -94.5 1258.45 -164.45 1245.55 -175.8 1245.5 -255.45 1248.9 -288.65 1249.5 -306.4 1251.35 -317.4 1254.4 -326.95 1257.7 -340.9 1266.0 -350.3 1275.4 -357.8 1286.15 -364.1 1299.4 -367.2 1310.85 -367.2 1350.5 -370.25 1369.0 -375.2 1361.5 -375.2 1328.85 -376.9 1341.35 -378.45 1357.2 -389.6 1388.6 -389.35 1455.95 -391.5 1483.8 -395.65 1511.25 -401.45 1535.0 -411.55 1561.4 -419.05 1578.4 -418.5 1577.85 -407.5 1563.75 -397.15 1537.9 -384.65 1504.8 -377.9 1481.7 -371.0 1465.25 -370.0 1483.35 -377.1 1507.5 -389.7 1540.8 -400.5 1567.8 -412.7 1583.35 -432.0 1602.65 -433.85 1605.95 -448.45 1625.7 -463.25 1644.25 -478.5 1649.75 -471.95 1636.0 -457.9 1618.35 -443.95 1599.4 -432.25 1578.6 -422.55 1556.7 -412.95 1531.45 -407.4 1508.65 -403.4 1482.25 -401.4 1455.6 -401.5 1229.0 -389.5 1233.0 -389.5 1364.45 -386.3 1355.45 -384.85 1340.35 -380.8 1310.85 -380.65 1310.85 -376.35 1294.9 -369.1 1279.6 -360.3 1267.0 -348.95 1255.65 -332.45 1245.85 -321.05 1241.95 -308.8 1238.5 -289.15 1236.5 -258.55 1235.95 -258.65 1233.55 -365.95 1233.7 -382.25 1232.25 -405.9 1224.4 -425.95 1208.65 -439.7 1191.3 -447.0 1170.05 -447.0 1150.45 -438.9 1067.65 -429.35 1041.95 -429.35 994.7 -417.8 961.35 -417.8 837.85 -411.9 821.0 -405.8 838.1 -405.8 1204.8 -401.5 1203.5 -401.5 837.3 -395.6 823.5 -389.5 838.1 -389.5 959.6 -378.35 994.75 -378.35 1035.15 -372.5 1068.5 -372.5 1106.05 -368.55 1130.9 -361.85 1144.9 -353.3 1156.5 -340.45 1166.9 -323.9 1174.9 -309.15 1177.05 -218.8 1180.65 -146.2 1182.0 -67.7 1166.15 -67.35 1166.15 -31.4 1171.35 -64.2 1181.9 29.5 1181.15 172.4 1169.6 172.55 1169.6 135.75 1166.95 102.95 1158.5 136.15 1150.95 207.85 1156.05 255.35 1169.15 318.85 1170.95 513.0 1171.75" fill="#b4b4b4" fill-rule="evenodd" stroke="none"/>
  </g>
</svg>
