<?xml version="1.0" encoding="UTF-8" standalone="no"?>
<svg xmlns:ffdec="https://www.free-decompiler.com/flash" xmlns:xlink="http://www.w3.org/1999/xlink" ffdec:objectType="shape" height="1000.0px" width="954.7px" xmlns="http://www.w3.org/2000/svg">
  <g transform="matrix(1.0, 0.0, 0.0, 1.0, 454.7, 500.0)">
    <path d="M-54.2 -383.7 L-54.2 -500.0 500.0 -500.0 500.0 500.0 -454.7 500.0 -454.7 96.45 -376.95 96.45 -378.95 -383.7 -54.2 -383.7" fill="#434343" fill-rule="evenodd" stroke="none"/>
    <path d="M-390.7 431.3 L-420.45 431.3 -420.45 437.2 -390.7 437.2 -390.7 431.3 M-324.55 354.25 L-328.3 347.9 -333.2 342.15 -338.5 346.65 -334.05 351.9 -330.85 357.4 -328.35 363.55 -326.6 370.45 -325.75 377.65 -325.75 384.95 -326.6 392.15 -328.35 398.95 -330.85 405.2 -334.05 410.65 -338.5 415.9 -333.2 420.4 -328.3 414.7 -324.55 408.25 -321.7 401.15 -319.75 393.4 -318.75 385.3 -318.75 377.2 -319.75 369.15 -321.7 361.45 -324.55 354.25 M-420.45 325.0 L-420.45 330.9 -390.7 330.9 -390.7 325.0 -420.45 325.0 M-437.35 326.95 L-426.6 326.95 -426.6 322.5 -384.05 322.5 -384.05 313.7 -324.1 313.7 -324.1 322.0 -326.35 327.75 -334.1 338.75 -334.1 339.8 -333.25 340.3 -329.1 344.25 -325.5 349.25 -322.45 355.2 -320.05 361.95 -318.45 369.3 -317.6 377.0 -317.6 384.8 -318.45 392.5 -320.05 399.8 -322.45 406.55 -325.5 412.55 -329.1 417.55 -333.25 421.45 -335.3 422.7 -335.3 424.45 -334.2 425.3 -348.75 435.3 -355.7 438.3 -365.45 440.9 -363.8 447.7 -353.45 445.0 -345.75 441.7 -338.8 437.45 -329.35 430.4 -326.25 436.25 -324.35 443.0 -324.35 463.0 -328.35 463.0 -328.35 464.75 -340.6 464.75 -340.6 463.0 -384.35 463.0 -384.35 439.25 -426.6 439.25 -426.6 435.0 -437.35 435.0 -437.35 326.95" fill="#707070" fill-rule="evenodd" stroke="none"/>
    <path d="M293.0 383.65 L291.2 383.65 291.2 428.25 293.0 428.25 293.0 383.65 M229.7 359.5 L229.7 361.7 230.8 361.7 230.8 363.65 240.7 363.65 240.7 366.25 244.45 366.25 244.45 363.4 254.05 363.4 254.05 361.7 255.0 361.7 255.0 359.5 252.95 359.5 252.95 349.15 241.95 349.15 241.95 359.5 229.7 359.5 M267.15 359.5 L267.15 361.7 268.05 361.7 268.05 363.4 291.2 363.4 291.2 369.2 293.0 369.2 293.0 363.4 302.5 363.4 302.5 361.7 303.95 361.7 303.95 359.5 267.15 359.5 M163.2 359.5 L163.2 349.15 159.4 349.15 159.4 346.4 155.05 346.4 155.05 349.15 151.75 349.15 151.75 359.5 128.45 359.5 128.45 361.7 129.7 361.7 129.7 363.65 216.8 363.65 216.8 361.7 217.55 361.7 217.55 359.5 163.2 359.5 M24.9 280.15 L24.9 268.15 18.4 268.15 18.4 311.75 10.95 311.75 10.95 320.0 10.15 320.0 10.15 321.25 155.05 321.25 155.05 327.65 159.4 327.65 159.4 321.3 265.75 321.3 265.75 318.65 250.65 318.65 250.65 278.5 291.75 278.5 291.75 275.65 250.9 275.65 250.9 254.4 243.95 254.4 243.95 268.25 242.5 268.25 242.5 270.25 228.65 270.25 228.65 272.75 214.45 272.75 214.45 270.25 197.5 270.25 197.5 205.0 197.9 205.0 197.9 188.25 191.9 188.25 191.9 283.0 184.05 283.0 184.05 286.2 191.95 286.2 191.95 318.45 144.05 318.45 144.05 286.2 170.05 286.2 170.05 283.0 161.75 283.0 161.75 270.95 152.2 270.95 152.2 282.95 130.55 282.95 130.55 284.65 116.25 284.65 116.25 282.95 73.9 282.95 73.9 265.25 70.0 265.25 70.0 271.0 64.45 271.0 64.45 280.15 24.9 280.15 M92.9 248.2 L92.9 246.0 95.75 246.0 95.75 244.5 95.95 244.5 95.95 242.8 24.25 242.8 24.25 199.7 112.4 199.7 112.4 242.8 109.3 242.8 109.3 244.5 109.55 244.5 109.55 246.0 112.45 246.0 112.45 248.2 161.75 248.2 161.75 229.5 155.45 229.5 155.45 208.7 161.75 208.7 161.75 195.25 25.15 195.25 25.15 189.5 21.25 189.5 21.25 195.0 2.5 195.0 2.5 198.2 18.4 198.2 18.4 242.9 12.5 242.9 12.5 247.4 18.4 247.4 18.4 254.25 24.9 254.25 24.9 248.3 70.0 248.3 70.0 251.05 73.9 251.05 73.9 248.2 92.9 248.2 M-33.35 153.75 L-38.2 153.75 -38.2 158.4 -36.5 158.4 -36.5 173.9 -38.2 173.9 -38.2 178.25 -36.5 178.25 -36.5 193.75 -38.2 193.75 -38.2 199.2 -61.45 199.2 -61.45 196.5 -66.45 193.8 -71.1 190.2 -76.8 195.05 -72.6 199.15 -66.6 202.9 -62.2 204.7 -56.75 205.9 -61.75 207.75 -66.45 213.25 -60.8 216.05 -49.2 211.7 -35.35 202.0 -35.35 211.05 -32.2 211.05 -32.2 198.2 -11.35 198.2 -11.35 195.0 -33.35 195.0 -33.35 153.75 M-76.5 75.0 L-75.2 73.55 -74.6 71.75 -74.8 69.8 -75.8 68.15 -77.35 67.0 -79.25 66.65 -81.1 67.0 -82.7 68.15 -83.7 69.8 -83.85 71.75 -83.25 73.55 -82.0 75.0 -80.2 75.8 -78.25 75.8 -76.5 75.0 M250.9 130.95 L247.3 130.95 247.3 154.0 238.2 154.0 238.2 157.25 235.55 157.25 235.55 160.5 242.2 160.5 242.2 174.5 244.05 174.5 244.05 183.25 250.9 183.25 250.9 174.45 251.4 174.45 251.4 168.25 263.55 168.25 263.55 164.75 250.9 164.75 250.9 130.95 M161.55 154.0 L161.55 134.25 157.15 134.25 157.15 154.0 67.4 154.0 67.4 124.45 63.45 124.45 63.45 153.5 54.0 153.5 54.0 155.25 39.9 155.25 39.9 153.5 25.0 153.5 25.0 133.25 21.25 133.25 21.25 168.45 25.15 168.45 25.15 160.15 64.55 160.15 64.55 172.3 73.55 172.3 73.55 160.15 152.2 160.15 152.2 172.3 161.75 172.3 161.75 160.25 191.9 160.25 191.9 174.15 197.9 174.15 197.9 160.5 220.9 160.5 220.9 157.25 218.15 157.25 218.15 154.0 161.55 154.0 M336.75 342.75 L334.45 342.75 334.45 359.5 330.2 359.5 330.2 349.15 318.95 349.15 318.95 359.5 316.05 359.5 316.05 361.7 316.9 361.7 316.9 363.4 352.5 363.4 352.5 361.7 353.7 361.7 353.7 361.0 336.75 361.0 336.75 342.75 M363.2 320.75 L363.2 318.4 319.7 318.4 319.7 308.15 314.9 308.15 314.9 318.65 284.55 318.65 284.55 321.3 334.45 321.3 334.45 329.25 336.75 329.25 336.75 320.75 363.2 320.75 M328.0 268.15 L319.7 268.15 319.7 264.45 315.05 264.45 315.05 275.65 306.55 275.65 306.55 278.5 314.9 278.5 314.9 288.7 319.7 288.7 319.7 280.3 328.0 280.3 328.0 268.15 M319.7 174.4 L328.0 174.4 328.0 161.75 319.7 161.75 319.7 164.75 278.55 164.75 278.55 168.25 314.55 168.25 314.55 205.65 315.05 205.65 315.05 249.65 319.7 249.65 319.7 174.4 M417.9 9.45 L417.9 22.2 418.45 22.2 418.45 22.4 426.55 22.4 426.55 9.4 418.45 9.4 418.45 9.45 417.9 9.45 M-127.45 287.05 L-127.45 285.4 -128.05 283.9 -129.25 282.7 -130.75 282.05 -132.45 282.05 -133.95 282.7 -135.1 283.9 -135.75 285.4 -135.75 287.05 -135.1 288.55 -133.95 289.75 -132.45 290.4 -130.75 290.4 -129.25 289.75 -128.1 288.55 -127.45 287.05 M-197.3 62.8 L-198.85 61.7 -200.75 61.25 -202.6 61.7 -204.2 62.8 -205.2 64.5 -205.35 66.45 -204.75 68.25 -203.5 69.7 -201.7 70.5 -199.75 70.5 -198.0 69.7 -196.7 68.25 -196.1 66.45 -196.3 64.5 -197.3 62.8 M-105.1 24.05 L-105.3 22.15 -106.3 20.5 -107.85 19.3 -109.75 18.95 -111.6 19.3 -113.2 20.5 -114.2 22.15 -114.35 24.05 -113.75 25.95 -112.5 27.4 -110.7 28.15 -108.75 28.15 -107.0 27.4 -105.7 25.95 -105.1 24.05 M-162.2 23.75 L-161.6 21.95 -161.8 20.0 -162.8 18.3 -164.35 17.2 -166.25 16.75 -168.1 17.2 -169.7 18.3 -170.7 20.0 -170.85 21.95 -170.25 23.75 -169.0 25.2 -167.2 26.0 -165.25 26.0 -163.5 25.2 -162.2 23.75 M-256.8 -162.75 L-249.0 -165.6 -251.05 -169.6 -258.3 -166.95 -266.0 -164.95 -265.0 -160.6 -256.8 -162.75 M-207.45 -218.2 L-211.75 -219.2 -213.75 -211.45 -216.45 -204.25 -212.45 -202.2 -209.55 -210.0 -207.45 -218.2 M268.5 -139.25 L266.4 -146.95 263.2 -154.2 259.0 -160.85 253.9 -166.95 247.95 -172.2 244.7 -174.5 Q241.25 -176.35 237.75 -178.3 L236.4 -175.6 243.0 -172.0 249.0 -167.45 254.25 -162.1 258.65 -156.05 262.2 -149.45 264.7 -142.35 266.2 -135.05 266.5 -131.3 266.4 -123.8 265.15 -116.45 262.9 -109.25 259.65 -102.5 255.45 -96.3 250.4 -90.8 244.55 -86.05 241.45 -84.0 235.45 -80.95 236.7 -78.2 242.95 -81.35 246.25 -83.55 252.4 -88.55 257.75 -94.45 262.2 -101.0 265.65 -108.1 268.05 -115.7 268.8 -119.55 269.55 -127.5 269.5 -131.45 268.5 -139.25 M129.95 -106.7 L133.2 -96.85 137.65 -87.5 143.2 -78.55 149.7 -70.35 157.2 -62.95 165.4 -56.45 172.9 -51.7 171.7 -40.95 167.15 -22.2 164.4 -15.3 162.75 -17.0 158.25 -12.5 157.9 -12.6 163.4 -7.1 163.75 -3.6 162.7 2.05 161.3 6.3 159.2 9.8 157.55 8.25 151.75 14.05 160.15 22.15 145.65 36.65 137.25 28.55 131.3 34.5 132.9 36.15 129.4 38.25 125.15 39.65 119.45 40.7 115.95 40.3 110.45 34.9 106.05 39.7 107.7 41.3 100.9 44.05 77.3 49.3 69.4 49.75 66.5 43.2 53.0 27.3 44.0 20.2 33.65 13.8 18.15 8.0 9.45 5.5 9.05 8.45 11.5 9.55 8.0 13.7 2.5 18.5 -3.85 23.0 -10.35 26.3 -18.0 29.2 -18.3 29.25 -20.6 30.15 -24.7 30.8 -35.85 9.0 -37.2 7.7 -34.7 6.0 -38.0 0.65 -50.2 10.0 -47.35 15.0 -44.5 13.3 -39.2 22.3 -42.5 23.5 -37.3 29.65 -38.35 31.7 -39.75 36.55 -40.25 41.55 -39.75 46.65 -38.35 51.5 -36.1 56.0 -33.05 60.0 -29.35 63.45 -28.25 64.15 -28.6 74.2 -28.5 74.4 -28.5 77.0 -26.35 77.0 -26.45 88.2 -29.2 106.8 -32.0 116.3 -37.85 128.7 -51.7 120.2 -61.2 117.8 -63.95 121.55 -61.7 125.55 -56.75 127.25 -63.75 129.25 -71.75 133.95 -75.2 137.2 -76.8 139.75 -71.1 144.65 -65.85 139.8 -61.45 137.3 -61.45 135.0 -38.2 135.0 -38.2 138.95 -33.35 138.95 -33.35 135.65 -26.6 122.75 -22.2 108.55 -19.75 95.95 21.25 95.95 21.25 112.15 25.0 112.15 25.0 94.25 40.15 94.25 40.15 92.8 40.25 92.8 40.25 91.75 38.65 91.75 38.65 90.25 -22.45 90.25 -22.45 35.25 58.15 35.25 58.15 90.25 55.3 90.25 55.3 91.75 53.8 91.75 53.8 92.8 54.05 92.8 54.05 94.25 63.45 94.25 63.45 110.25 67.9 110.25 67.9 91.75 73.9 91.75 73.9 80.25 84.65 80.25 84.65 77.45 101.65 77.45 101.65 80.25 122.75 80.25 122.75 77.45 139.7 77.45 139.7 80.25 152.4 80.25 152.4 91.75 156.8 91.75 156.8 104.45 161.55 104.45 161.55 94.75 225.4 94.75 225.4 92.5 217.15 92.5 217.15 82.5 191.55 82.5 191.55 54.25 204.65 54.25 204.65 51.4 191.95 51.4 191.95 26.0 203.75 26.0 203.75 5.65 199.9 5.65 197.9 -34.8 203.2 -34.8 203.2 -36.25 204.25 -36.25 204.25 -36.7 182.0 -36.7 182.0 -48.1 188.9 -48.1 188.9 -49.8 184.65 -50.3 176.45 -53.2 Q172.0 -55.85 167.5 -58.55 L159.25 -64.95 151.9 -72.3 145.5 -80.55 140.15 -89.5 135.95 -99.05 132.95 -109.05 131.65 -116.55 127.8 -116.75 129.95 -106.7 M192.9 -175.6 L191.55 -178.3 188.15 -176.55 181.45 -172.25 175.5 -167.0 170.4 -161.0 166.15 -154.25 162.95 -147.0 161.75 -143.25 160.2 -135.45 159.75 -127.5 160.45 -119.7 162.25 -111.95 165.2 -104.55 169.2 -97.7 174.05 -91.5 179.8 -86.0 186.3 -81.45 192.7 -78.05 194.0 -80.75 184.75 -86.05 178.95 -90.8 176.3 -93.5 171.7 -99.35 167.95 -105.8 165.15 -112.8 163.45 -120.05 162.95 -123.8 162.8 -131.3 163.75 -138.75 165.75 -145.95 168.75 -152.8 172.75 -159.2 177.65 -164.85 180.3 -167.45 186.3 -172.0 192.9 -175.6 M-77.2 -97.8 L-82.5 -106.7 -90.35 -116.8 -102.85 -128.0 -113.2 -134.5 -112.7 -144.2 -108.85 -159.7 -105.35 -169.5 -103.5 -169.3 -98.75 -175.5 -104.25 -181.25 -103.5 -187.6 -102.1 -193.5 -100.5 -195.85 -98.5 -194.25 -92.2 -200.6 -97.35 -205.75 -103.5 -199.5 -102.2 -198.0 -106.0 -194.3 -110.05 -198.1 -135.55 -172.6 -130.55 -167.7 -131.45 -154.75 -134.25 -142.25 -138.7 -130.55 -144.7 -119.95 -152.2 -110.35 -156.85 -105.7 -166.45 -98.2 -177.05 -92.2 -188.75 -87.75 -201.25 -84.95 -213.85 -83.95 -214.35 -83.25 -219.85 -87.8 -244.35 -63.0 -210.85 -29.5 -215.5 -25.35 -206.35 -13.25 -202.6 -16.5 -204.0 -19.25 -184.6 -29.85 -182.75 -26.75 -174.5 -30.25 -163.35 -33.5 -162.0 -33.5 -161.05 -32.3 -157.35 -28.85 -153.05 -26.25 -148.3 -24.45 -143.35 -23.5 -138.3 -23.5 -133.35 -24.45 -128.6 -26.25 -124.35 -28.85 -120.6 -32.3 -119.95 -33.25 -118.6 -33.25 -106.25 -30.25 -97.0 -26.5 -95.0 -29.25 -76.75 -19.5 -77.5 -16.25 -73.8 -13.75 -64.7 -25.3 -69.6 -28.85 -72.1 -27.5 -94.95 -39.05 -93.35 -45.95 -89.1 -55.8 -84.0 -64.75 -76.95 -72.45 -73.45 -75.45 -72.2 -70.7 -69.45 -71.2 -70.85 -80.25 -72.05 -84.45 -77.2 -97.8 M10.8 -168.55 L3.55 -171.35 -4.05 -172.8 -11.75 -172.8 -17.75 -172.25 -20.45 -171.6 -19.75 -168.7 -17.35 -169.3 -4.35 -169.8 2.75 -168.45 9.5 -165.85 15.65 -162.05 21.0 -157.2 25.3 -151.45 28.55 -144.95 29.15 -142.85 28.65 -142.5 24.9 -120.0 1.9 -96.5 -20.85 -95.25 -21.25 -94.05 -25.45 -95.7 -31.55 -99.5 -36.95 -104.35 -41.3 -110.2 -44.5 -116.6 -46.5 -123.55 -47.1 -130.8 -46.5 -138.05 -45.6 -142.25 -48.55 -142.8 -49.45 -138.55 -50.2 -130.8 -49.45 -123.0 -47.3 -115.55 -43.85 -108.55 -39.1 -102.35 -33.35 -97.1 -26.8 -93.0 -22.2 -91.25 -22.6 -90.0 -35.75 -91.25 -35.85 -86.6 -25.85 -86.3 -15.5 -83.45 -5.85 -78.8 2.8 -72.5 10.2 -64.75 16.15 -55.8 20.3 -45.95 22.7 -35.5 23.0 -28.5 23.15 -28.75 26.9 -28.75 25.65 -41.0 27.4 -42.2 27.8 -40.75 31.25 -33.75 35.95 -27.55 41.75 -22.3 48.3 -18.25 55.65 -15.45 63.25 -14.0 76.9 -14.5 79.65 -15.2 78.95 -18.05 76.5 -17.5 63.5 -17.0 56.45 -18.3 49.7 -20.95 43.55 -24.75 38.2 -29.6 33.8 -35.35 30.65 -41.8 30.2 -43.45 34.25 -45.1 34.55 -45.2 34.15 -46.25 38.4 -74.75 52.55 -85.95 78.75 -93.0 78.95 -93.25 84.65 -91.05 90.75 -87.25 96.15 -82.35 100.45 -76.6 103.7 -70.1 105.7 -63.2 106.3 -56.0 104.8 -44.55 107.75 -43.95 108.65 -48.2 109.3 -56.0 108.65 -63.75 106.5 -71.25 103.0 -78.2 98.3 -84.45 92.55 -89.7 85.95 -93.75 81.2 -95.6 83.3 -97.8 92.75 -96.45 93.3 -99.1 89.8 -99.25 82.5 -100.5 75.45 -102.6 68.7 -105.6 62.4 -109.45 56.55 -113.95 51.3 -119.2 46.8 -125.0 43.0 -131.3 40.0 -138.05 37.9 -145.1 36.65 -152.45 36.25 -158.5 31.9 -159.0 33.65 -146.3 31.7 -144.8 31.4 -146.0 27.9 -153.0 23.2 -159.2 17.45 -164.45 10.8 -168.55 M111.55 -256.85 L107.9 -250.3 103.4 -244.3 98.0 -239.05 95.05 -236.75 85.4 -231.1 78.3 -228.6 74.65 -227.75 67.2 -226.8 63.45 -226.75 56.0 -227.45 48.7 -229.2 41.75 -231.95 35.25 -235.7 29.4 -240.3 26.7 -242.95 21.95 -248.75 16.7 -258.0 14.0 -256.7 17.3 -250.35 21.9 -243.85 27.3 -238.1 33.55 -233.25 40.4 -229.25 44.0 -227.6 51.55 -225.25 59.4 -223.95 67.3 -223.8 75.2 -224.8 82.8 -226.95 90.05 -230.1 96.8 -234.3 102.9 -239.45 108.05 -245.35 112.45 -252.0 114.25 -255.55 111.55 -256.85 M26.7 -314.35 L32.25 -319.45 38.45 -323.6 45.2 -326.85 52.3 -329.2 63.45 -330.55 70.95 -330.2 78.3 -328.7 81.9 -327.55 88.75 -324.55 95.05 -320.55 100.8 -315.7 103.4 -313.0 107.9 -307.0 111.55 -300.45 114.25 -301.75 110.45 -308.6 105.65 -314.95 100.0 -320.5 93.65 -325.2 86.65 -328.85 79.15 -331.55 71.4 -333.1 63.45 -333.55 55.55 -332.85 47.9 -331.0 44.15 -329.7 37.0 -326.25 30.45 -321.8 24.55 -316.45 19.55 -310.3 15.45 -303.55 14.15 -300.7 16.8 -299.45 19.95 -305.45 24.25 -311.55 26.7 -314.35 M148.8 -345.35 L156.9 -345.5 163.65 -338.75 185.4 -353.75 213.15 -364.0 237.9 -362.75 261.15 -356.0 278.9 -344.5 292.9 -327.75 297.9 -307.25 300.65 -271.7 291.65 -252.3 272.0 -230.0 281.0 -222.0 281.05 -212.35 283.5 -212.35 283.5 -199.0 281.05 -199.0 281.05 -184.55 275.9 -189.75 274.15 -188.0 274.55 -187.6 281.5 -179.8 287.4 -171.2 292.2 -161.95 297.5 -146.0 298.9 -146.0 298.9 -150.5 308.3 -150.5 308.3 -135.55 310.8 -135.55 310.8 -145.55 314.75 -145.55 314.75 -152.05 344.25 -152.05 344.25 -145.55 348.4 -145.55 348.4 -146.75 350.3 -146.75 350.3 -148.25 348.4 -148.25 348.4 -166.25 365.55 -166.25 365.55 -148.25 364.15 -148.25 364.15 -146.75 367.95 -146.75 367.95 -148.25 366.55 -148.25 366.55 -166.25 382.8 -166.25 382.8 -148.25 381.4 -148.25 381.4 -146.75 385.2 -146.75 385.2 -148.25 383.8 -148.25 383.8 -166.25 400.2 -166.25 400.2 -148.25 398.75 -148.25 398.75 -146.75 402.55 -146.75 402.55 -148.25 401.2 -148.25 401.2 -166.25 416.4 -166.25 416.4 -148.25 414.9 -148.25 414.9 -146.75 418.7 -146.75 418.7 -112.05 414.9 -112.05 414.9 -105.85 348.9 -105.85 348.9 -112.05 344.25 -112.05 344.25 -107.05 314.75 -107.05 314.75 -112.05 310.8 -112.05 310.8 -121.75 308.3 -121.75 308.3 -107.45 298.9 -107.45 298.9 -111.3 297.5 -111.3 295.7 -101.5 291.75 -91.8 286.7 -82.75 280.55 -74.3 273.4 -66.7 265.4 -60.05 256.65 -54.45 247.15 -50.5 243.5 -49.8 243.5 -48.1 248.45 -48.1 248.45 -36.7 224.8 -36.7 224.8 -34.8 250.5 -34.8 250.5 -26.6 252.4 -26.6 252.4 -6.6 250.5 -6.6 250.5 14.15 245.55 14.15 245.55 26.0 257.2 26.0 257.2 51.4 235.65 51.4 235.65 54.25 247.55 54.25 247.55 59.5 249.25 59.5 249.25 73.75 247.55 73.75 247.55 80.2 245.25 80.2 245.25 92.5 239.55 92.5 239.55 94.75 247.3 94.75 247.3 106.2 249.9 106.2 249.9 90.9 252.75 90.9 252.75 81.9 320.25 81.9 320.25 90.9 328.0 90.9 328.0 80.9 352.55 80.9 352.55 78.4 338.45 78.4 338.45 70.0 335.65 70.0 335.65 48.4 338.45 48.4 338.45 43.4 394.65 43.4 394.65 48.4 398.0 48.4 398.0 40.15 344.75 40.9 344.75 -21.35 343.55 -21.35 343.55 -42.55 344.75 -42.55 344.75 -66.85 381.95 -66.85 381.95 -70.85 361.05 -70.85 361.05 -79.75 359.25 -79.75 359.25 -93.75 361.05 -93.75 361.05 -103.05 429.95 -103.05 429.95 -105.85 419.45 -105.85 419.45 -131.75 424.25 -131.75 424.25 -144.25 419.4 -144.25 419.4 -161.35 417.05 -161.35 419.3 -183.6 421.4 -183.6 421.4 -208.75 426.25 -208.75 426.25 -220.75 421.4 -220.75 421.4 -288.0 426.25 -288.0 426.25 -298.25 421.4 -298.25 421.4 -362.75 426.25 -362.75 426.25 -375.25 421.4 -375.25 421.4 -398.75 410.7 -398.75 410.7 -391.0 401.95 -391.0 401.95 -388.5 380.25 -388.5 380.25 -391.0 347.3 -391.0 347.3 -459.6 355.7 -459.6 355.7 -463.0 377.75 -463.0 377.75 -459.6 410.7 -459.6 410.7 -424.85 421.4 -424.85 421.4 -439.75 426.25 -439.75 426.25 -452.0 472.2 -452.0 472.2 -419.0 474.0 -419.0 474.0 -404.0 472.2 -404.0 472.2 -346.75 474.25 -346.75 474.25 -324.5 472.2 -324.5 472.2 -262.0 474.25 -262.0 474.25 -239.75 472.2 -239.75 472.2 -179.0 474.4 -179.0 474.4 -164.35 472.2 -164.35 472.2 -137.5 474.4 -137.5 474.4 -122.85 472.2 -122.85 472.2 -105.85 451.05 -105.85 451.05 -103.05 460.05 -103.05 460.05 -70.85 416.4 -70.85 416.4 -66.85 418.45 -66.85 418.45 -56.1 425.9 -56.1 425.9 -67.05 450.55 -67.05 450.55 -47.25 453.55 -47.25 453.55 -6.35 450.9 -6.35 450.9 70.15 398.0 71.15 398.0 62.15 394.65 62.15 394.65 78.4 383.75 78.4 383.75 80.9 407.75 80.9 407.75 223.95 409.5 223.95 409.5 173.75 416.4 173.75 416.4 162.25 410.8 162.25 410.8 119.75 412.95 119.75 413.15 81.5 459.45 81.5 459.45 110.75 462.2 110.75 462.2 132.75 459.45 132.75 459.45 244.75 458.2 244.75 458.2 247.55 415.05 247.55 415.05 244.75 412.65 244.75 412.65 242.45 409.55 242.45 409.55 240.65 407.75 240.65 407.75 318.4 384.15 318.4 384.15 320.75 395.5 320.75 395.5 361.0 372.5 361.0 372.5 361.7 373.65 361.7 373.65 363.4 394.0 363.4 394.0 363.65 404.9 363.65 404.9 387.95 408.55 387.95 408.55 402.65 404.9 402.65 404.9 412.15 394.0 412.15 394.0 460.0 329.25 460.0 329.25 449.75 319.7 449.75 319.7 460.0 293.0 460.0 293.0 442.65 291.25 442.65 291.25 460.0 249.25 460.0 249.25 449.75 244.45 449.75 244.45 380.25 240.7 380.25 240.7 450.0 106.9 450.0 106.9 446.0 103.4 446.0 103.4 432.0 106.9 432.0 106.9 386.25 103.2 386.25 103.2 372.25 106.9 372.25 106.9 363.65 115.65 363.65 115.65 361.7 116.3 361.7 116.3 359.5 73.0 359.5 73.0 349.15 61.55 349.15 61.55 359.5 51.55 359.5 51.55 361.65 39.45 361.65 39.45 359.5 11.95 359.5 11.95 361.65 -6.85 361.65 -6.85 359.5 -17.2 359.5 -17.2 349.15 -28.45 349.15 -28.45 359.5 -46.25 359.5 -46.25 347.75 -48.75 347.75 -48.75 334.75 -46.2 334.75 -46.2 321.25 -14.3 321.25 -14.3 320.0 -15.0 320.0 -15.0 311.75 -22.45 311.75 -22.45 280.15 -18.75 280.15 -18.75 268.15 -22.8 268.15 -22.8 247.4 -13.5 247.4 -13.5 242.9 -32.2 242.9 -32.2 225.15 -35.35 225.15 -35.35 238.5 -41.0 240.75 -46.75 247.5 -54.6 272.0 -57.1 312.0 -84.35 346.0 -141.85 374.25 -147.35 387.0 -153.85 395.0 -161.8 386.55 -165.1 389.5 -171.35 382.5 -233.45 319.9 -231.0 317.8 -239.5 310.0 -247.0 305.5 -311.25 284.9 -315.35 284.5 -318.6 285.75 -320.0 288.7 -320.6 291.3 -320.6 303.0 -324.1 303.0 -324.1 311.8 -384.05 311.8 -384.05 303.0 -387.55 303.0 -387.3 282.8 -386.0 274.3 -383.55 266.0 -380.2 258.05 -375.8 250.55 -370.55 243.7 -364.45 237.5 -361.7 235.3 -366.25 229.25 -382.0 243.25 -393.5 231.75 -395.5 233.75 -407.5 222.0 -405.55 219.55 -417.25 207.75 -412.25 200.0 -408.3 188.8 -405.7 177.2 -404.6 165.4 -404.75 160.25 -409.8 160.25 -409.8 157.0 -411.2 157.0 -411.2 143.0 -409.8 143.0 -409.8 138.75 -404.95 138.75 -404.95 133.5 -399.5 133.5 -399.5 136.05 -332.75 136.05 -332.75 133.5 -327.75 133.5 -328.1 165.4 -327.0 177.2 -324.45 188.8 -320.45 200.0 -316.7 207.4 -309.45 203.7 -310.1 202.7 -314.0 195.0 -316.95 186.8 -318.8 178.4 -319.6 169.8 -319.3 161.2 -318.0 152.65 -315.6 144.4 -308.2 128.2 -299.5 117.7 -288.85 109.5 -274.25 102.25 -265.95 99.65 -257.35 98.05 -248.6 97.55 -239.85 98.05 -234.2 99.15 -232.0 91.0 -254.25 89.75 -255.0 77.0 -251.45 75.5 -252.5 64.2 -252.1 63.3 -251.35 62.8 -247.6 59.4 -244.55 55.4 -242.3 50.9 -240.95 46.0 -240.5 40.95 -240.95 35.95 -242.3 31.05 -242.5 30.75 -239.2 23.8 -241.85 22.0 -235.95 12.8 -233.35 14.5 -230.35 10.0 -242.35 0.5 -246.35 5.5 -283.75 -31.1 -285.5 -29.5 -301.1 -47.25 -305.85 -57.5 -307.85 -64.75 -308.85 -75.25 -308.35 -83.0 -305.85 -90.75 -302.7 -97.0 -297.35 -105.0 -289.0 -113.7 -287.0 -112.5 -286.05 -112.3 -253.85 -115.8 -234.0 -123.5 -243.85 -133.6 -246.3 -131.2 Q-251.95 -128.3 -257.6 -125.5 L-293.1 -122.25 -307.1 -127.0 -311.55 -131.45 -313.0 -130.0 -326.95 -143.85 -325.5 -145.35 -333.95 -153.8 -320.5 -167.25 -313.75 -164.55 -310.85 -166.7 -311.8 -169.1 -317.85 -171.6 -325.6 -176.3 -337.1 -185.3 -349.8 -197.7 -355.75 -220.25 -357.3 -229.25 -357.75 -238.3 -357.05 -247.35 -355.25 -256.25 -352.3 -264.85 -348.45 -273.05 -343.5 -280.75 -337.7 -287.7 -331.05 -293.95 -323.75 -299.3 -315.8 -303.75 -307.35 -307.1 -298.6 -309.5 -289.6 -310.75 -280.55 -310.85 -271.5 -309.85 -262.7 -307.8 -257.1 -305.75 -242.6 -298.75 -231.55 -289.05 -225.75 -282.55 -220.6 -275.05 -216.45 -267.0 -215.8 -265.1 -212.8 -263.2 -211.2 -265.3 -214.45 -273.35 -201.0 -286.75 -192.55 -278.3 -190.85 -279.85 -176.95 -265.95 -178.6 -264.35 -174.2 -259.95 -169.85 -242.5 -169.85 -221.0 -174.35 -205.75 -178.7 -198.8 -180.2 -197.3 -170.35 -187.5 -166.7 -197.85 -163.35 -210.2 -161.2 -223.0 -159.85 -240.1 -162.35 -242.2 -142.35 -257.2 -134.0 -260.3 -124.5 -262.2 -115.0 -261.8 -106.5 -259.7 -95.85 -254.7 -81.85 -244.0 -72.7 -235.0 -74.35 -233.2 -70.5 -229.7 -74.85 -225.3 -76.45 -227.05 -83.0 -220.35 -77.8 -215.2 -71.35 -221.75 -73.0 -223.85 -63.85 -227.25 -57.75 -227.6 -51.75 -221.5 -46.35 -227.0 -47.25 -228.75 -41.75 -231.05 -23.05 -235.7 -12.25 -236.85 -7.5 -229.3 -1.05 -221.1 6.45 -213.7 14.65 -207.2 23.5 -201.6 32.95 -197.2 43.15 -194.2 52.3 -192.3 52.65 -195.6 45.0 -196.95 35.0 -199.95 25.5 -204.1 16.55 -209.5 8.3 -215.95 0.95 -223.3 -5.5 -231.5 -10.8 -240.5 -15.05 -249.6 -16.35 -249.6 -16.35 -246.05 -27.35 -246.05 -27.35 -267.75 -29.5 -267.75 -29.8 -266.85 -32.35 -262.05 -35.75 -257.8 -39.8 -254.25 Q-42.1 -252.85 -44.5 -251.5 L-49.55 -249.55 -54.85 -248.6 -60.3 -248.6 -65.6 -249.55 -70.75 -251.5 -75.35 -254.25 -79.45 -257.8 -82.8 -262.05 -85.45 -266.85 -85.7 -267.75 -87.35 -267.75 -87.35 -264.25 -143.85 -264.25 -143.85 -349.0 -87.35 -349.0 -87.35 -290.0 -85.55 -290.0 -84.25 -293.05 -81.25 -297.55 -77.5 -301.5 -73.1 -304.7 -68.25 -307.05 -67.8 -307.2 -67.8 -309.0 -45.8 -309.0 -45.8 -306.5 -42.05 -304.7 -37.7 -301.5 -33.95 -297.55 -31.0 -293.05 -29.6 -290.0 -27.35 -290.0 -27.35 -311.5 -16.35 -311.5 -16.35 -307.5 -14.6 -307.5 -9.55 -320.6 -3.95 -329.35 2.7 -337.45 10.3 -344.55 18.7 -350.7 27.8 -355.8 37.5 -359.7 47.55 -362.45 47.65 -363.25 43.9 -363.25 43.9 -371.5 57.8 -371.5 57.8 -374.8 48.15 -374.8 48.15 -378.7 43.15 -378.7 43.15 -408.7 47.65 -408.7 47.65 -412.7 42.0 -412.7 42.0 -478.7 48.15 -478.7 48.15 -482.5 83.15 -482.5 83.15 -478.7 84.65 -478.7 84.65 -480.5 102.3 -480.5 102.3 -465.45 84.65 -465.45 84.65 -466.85 83.15 -466.85 83.15 -463.05 84.65 -463.05 84.65 -464.45 102.3 -464.45 102.3 -447.95 84.65 -447.95 84.65 -449.35 83.15 -449.35 83.15 -445.55 84.65 -445.55 84.65 -446.95 102.3 -446.95 102.3 -430.6 84.65 -430.6 84.65 -432.05 83.15 -432.05 83.15 -428.2 84.65 -428.2 84.65 -429.6 102.3 -429.6 102.3 -412.7 84.65 -412.7 84.65 -414.35 83.15 -414.35 83.15 -412.7 82.15 -412.7 82.15 -408.7 88.15 -408.7 88.15 -378.7 81.65 -378.7 81.65 -374.8 71.65 -374.8 71.65 -371.5 85.45 -371.5 85.45 -362.55 81.5 -362.55 81.5 -361.35 88.15 -359.8 97.95 -356.2 117.8 -345.5 124.45 -337.6 126.3 -339.7 123.8 -345.35 134.5 -345.35 134.5 -347.7 148.8 -347.7 148.8 -345.35" fill="#969696" fill-rule="evenodd" stroke="none"/>
    <path d="M-73.8 147.75 L-77.7 154.55 -79.8 162.05 -80.1 168.8 -79.8 172.75 -77.7 180.25 -73.8 187.05 -71.1 190.2 -76.8 195.05 -79.8 191.55 -84.6 183.2 -87.2 173.9 -87.6 165.5 -87.2 160.95 -84.6 151.65 -79.8 143.25 -76.8 139.75 -71.1 144.65 -73.8 147.75" fill="#707070" fill-rule="evenodd" stroke="none"/>
    <path d="M-105.75 143.75 L-109.5 150.75 -112.3 158.75 -113.1 162.55 -113.5 169.3 -112.3 177.05 -109.25 184.3 -105.75 189.65 -112.25 194.4 -117.95 183.7 -120.55 174.4 -121.0 169.45 -120.55 161.45 -119.5 156.7 -116.25 147.15 -112.0 139.25 -105.75 143.75" fill="#707070" fill-rule="evenodd" stroke="none"/>
    <path d="M-260.75 128.3 L-251.1 127.15 -241.45 128.3 -236.8 129.75 -228.25 134.4 -224.45 137.45 -218.1 144.8 -213.75 153.55 -212.45 158.25 -211.5 167.95 -213.0 177.5 -214.6 182.15 -219.5 190.55 -226.25 197.55 -234.55 202.7 -243.8 205.65 -248.7 206.2 -258.35 205.65 -263.1 204.45 -267.6 202.7 -275.95 197.55 -282.7 190.55 -287.55 182.15 -289.2 177.5 -290.7 167.95 -289.75 158.25 -286.55 149.05 -284.1 144.8 -281.2 140.95 -274.0 134.4 -265.35 129.75 -260.75 128.3" fill="#707070" fill-rule="evenodd" stroke="none"/>
    <path d="M-160.2 59.8 L-157.95 57.5 -152.6 53.8 -146.6 51.5 -140.35 50.75 -133.8 51.65 -130.75 52.55 -125.1 55.7 -122.6 57.7 -118.45 62.65 -115.6 68.45 -114.75 71.5 -114.2 77.75 -114.5 81.15 -116.3 87.3 -117.6 89.95 -122.55 87.45 -121.3 85.0 -120.5 82.65 -119.7 77.65 -119.75 75.05 -120.85 70.05 -123.1 65.5 -124.7 63.5 -128.45 60.05 -130.6 58.75 -135.3 56.9 -140.35 56.25 -145.45 56.9 -147.85 57.7 -152.35 60.05 -156.1 63.5 -158.95 67.75 -159.95 70.05 -161.0 75.05 -161.05 77.65 -160.3 82.65 -158.25 87.45 -163.2 89.95 -165.6 84.0 -166.3 80.8 -166.45 74.4 -165.05 68.15 -163.75 65.15 -160.2 59.8" fill="#707070" fill-rule="evenodd" stroke="none"/>
    <path d="M-193.8 128.75 L-197.45 123.9 -191.05 119.05 -187.1 124.3 -182.35 132.5 -178.7 141.25 -176.05 150.4 -174.6 159.75 -174.3 169.25 -175.2 178.7 -177.25 187.95 -180.35 196.9 -184.6 205.4 -189.8 213.25 -196.0 220.45 -203.0 226.8 -210.75 232.3 -219.1 236.8 -227.95 240.25 -237.1 242.55 -246.55 243.7 -256.0 243.7 -265.45 242.55 -267.7 242.0 -267.6 241.9 -268.85 241.5 -266.5 233.0 -264.45 233.55 -264.7 234.5 -263.95 234.7 -255.55 235.7 -247.05 235.7 -238.6 234.7 -230.35 232.55 -222.45 229.5 -215.0 225.5 -208.05 220.65 -201.75 214.9 -196.25 208.45 -191.55 201.3 -187.75 193.75 -184.95 185.75 -183.1 177.45 -182.3 169.0 -182.6 160.5 -183.85 152.15 -186.25 143.95 -189.55 136.15 -193.8 128.75" fill="#707070" fill-rule="evenodd" stroke="none"/>
    <path d="M-386.6 169.5 L-386.6 160.3 -346.85 160.3 -346.85 169.5 -386.6 169.5" fill="#707070" fill-rule="evenodd" stroke="none"/>
    <path d="M-106.5 12.15 L-106.5 18.4 -113.0 18.4 -113.0 12.15 -106.5 12.15" fill="#707070" fill-rule="evenodd" stroke="none"/>
    <path d="M-137.8 -23.55 L-137.8 -16.35 -144.3 -16.35 -144.3 -23.7 -143.35 -23.5 -138.3 -23.5 -137.8 -23.55" fill="#707070" fill-rule="evenodd" stroke="none"/>
    <path d="M-129.5 -18.35 L-135.8 -16.7 -137.6 -23.6 -133.35 -24.45 -131.35 -25.2 -129.5 -18.35" fill="#707070" fill-rule="evenodd" stroke="none"/>
    <path d="M-122.0 -22.45 L-127.6 -19.2 -131.2 -25.25 -128.6 -26.25 -125.35 -28.25 -122.0 -22.45" fill="#707070" fill-rule="evenodd" stroke="none"/>
    <path d="M-115.6 -28.0 L-120.2 -23.45 -125.2 -28.35 -124.35 -28.85 -120.6 -32.3 -120.3 -32.7 -115.6 -28.0" fill="#707070" fill-rule="evenodd" stroke="none"/>
    <path d="M-146.2 -16.7 L-152.5 -18.35 -150.6 -25.3 -148.3 -24.45 -144.3 -23.7 -146.2 -16.7" fill="#707070" fill-rule="evenodd" stroke="none"/>
    <path d="M-154.35 -19.2 L-160.0 -22.45 -156.55 -28.35 -153.05 -26.25 -150.8 -25.35 -154.35 -19.2" fill="#707070" fill-rule="evenodd" stroke="none"/>
    <path d="M-161.8 -23.45 L-166.35 -28.0 -161.5 -32.85 -161.05 -32.3 -157.35 -28.85 -156.7 -28.5 -161.8 -23.45" fill="#707070" fill-rule="evenodd" stroke="none"/>
    <path d="M-242.8 51.75 L-242.3 50.9 -240.95 46.0 -240.95 45.7 -234.6 47.4 -236.35 53.55 -242.8 51.75" fill="#707070" fill-rule="evenodd" stroke="none"/>
    <path d="M-234.35 39.0 L-234.45 45.4 -240.85 45.3 -240.5 40.95 -240.7 38.95 -234.35 39.0" fill="#707070" fill-rule="evenodd" stroke="none"/>
    <path d="M-240.7 38.55 L-240.95 35.95 -242.0 32.3 -236.25 30.8 -234.6 37.0 -240.7 38.55" fill="#707070" fill-rule="evenodd" stroke="none"/>
    <path d="M-246.1 57.4 L-244.55 55.4 -242.85 51.9 -237.2 55.25 -240.35 60.75 -246.1 57.4" fill="#707070" fill-rule="evenodd" stroke="none"/>
    <path d="M-247.6 59.4 L-246.25 57.65 -241.6 62.3 -246.2 66.8 -250.7 62.2 -247.6 59.4" fill="#707070" fill-rule="evenodd" stroke="none"/>
    <path d="M-44.2 53.55 L-45.85 47.4 -39.8 45.75 -39.75 46.65 -38.35 51.5 -38.2 51.9 -44.2 53.55" fill="#707070" fill-rule="evenodd" stroke="none"/>
    <path d="M-46.1 45.4 L-46.2 39.0 -40.0 38.95 -40.25 41.55 -39.85 45.3 -46.1 45.4" fill="#707070" fill-rule="evenodd" stroke="none"/>
    <path d="M-45.95 37.0 L-44.3 30.8 -38.55 32.3 -39.75 36.55 -39.95 38.55 -45.95 37.0" fill="#707070" fill-rule="evenodd" stroke="none"/>
    <path d="M-40.1 60.75 L-43.35 55.25 -38.05 52.15 -36.1 56.0 -34.85 57.7 -40.1 60.75" fill="#707070" fill-rule="evenodd" stroke="none"/>
    <path d="M-34.6 58.0 L-33.05 60.0 -30.25 62.65 -34.35 66.8 -38.85 62.3 -34.6 58.0" fill="#707070" fill-rule="evenodd" stroke="none"/>
    <path d="M-97.55 22.75 L-103.35 25.05 -105.75 19.05 -100.0 16.7 -97.55 22.75" fill="#707070" fill-rule="evenodd" stroke="none"/>
    <path d="M-100.25 31.0 L-105.45 34.95 -109.25 29.95 -104.05 26.0 -100.25 31.0" fill="#707070" fill-rule="evenodd" stroke="none"/>
    <path d="M-121.95 22.75 L-119.5 16.7 -113.7 19.05 -116.1 25.05 -121.95 22.75" fill="#707070" fill-rule="evenodd" stroke="none"/>
    <path d="M-115.45 26.0 L-110.25 29.95 -114.0 34.95 -119.2 31.0 -115.45 26.0" fill="#707070" fill-rule="evenodd" stroke="none"/>
    <path d="M-169.3 9.8 L-162.8 9.8 -162.8 16.05 -169.3 16.05 -169.3 9.8" fill="#707070" fill-rule="evenodd" stroke="none"/>
    <path d="M-156.3 14.4 L-153.85 20.4 -159.7 22.75 -162.1 16.7 -156.3 14.4" fill="#707070" fill-rule="evenodd" stroke="none"/>
    <path d="M-156.6 28.7 L-161.8 32.55 -165.55 27.65 -160.35 23.7 -156.6 28.7" fill="#707070" fill-rule="evenodd" stroke="none"/>
    <path d="M-178.25 20.4 L-175.8 14.4 -170.0 16.7 -172.45 22.75 -178.25 20.4" fill="#707070" fill-rule="evenodd" stroke="none"/>
    <path d="M-171.75 23.7 L-166.55 27.65 -170.3 32.55 Q-172.85 30.65 -175.5 28.7 L-171.75 23.7" fill="#707070" fill-rule="evenodd" stroke="none"/>
    <path d="M-82.8 60.15 L-76.3 60.15 -76.3 66.4 -82.8 66.4 -82.8 60.15" fill="#707070" fill-rule="evenodd" stroke="none"/>
    <path d="M-67.35 70.75 L-73.2 73.05 -75.6 67.05 -69.8 64.7 -67.35 70.75" fill="#707070" fill-rule="evenodd" stroke="none"/>
    <path d="M-70.1 79.0 L-75.3 82.95 -79.05 77.95 -73.85 74.0 -70.1 79.0" fill="#707070" fill-rule="evenodd" stroke="none"/>
    <path d="M-83.5 67.05 L-85.95 73.05 -91.75 70.75 -89.3 64.7 -83.5 67.05" fill="#707070" fill-rule="evenodd" stroke="none"/>
    <path d="M-80.05 77.95 L-83.8 82.95 -89.0 79.0 -85.25 74.0 -80.05 77.95" fill="#707070" fill-rule="evenodd" stroke="none"/>
    <path d="M-197.3 54.3 L-197.3 60.55 -203.8 60.55 -203.8 54.3 -197.3 54.3" fill="#707070" fill-rule="evenodd" stroke="none"/>
    <path d="M-188.35 64.9 L-194.2 67.25 -196.6 61.2 -190.8 58.9 -188.35 64.9" fill="#707070" fill-rule="evenodd" stroke="none"/>
    <path d="M-200.05 72.15 L-194.85 68.2 -191.1 73.2 -196.3 77.05 -200.05 72.15" fill="#707070" fill-rule="evenodd" stroke="none"/>
    <path d="M-210.3 58.9 L-204.5 61.2 -206.95 67.25 -212.75 64.9 -210.3 58.9" fill="#707070" fill-rule="evenodd" stroke="none"/>
    <path d="M-201.05 72.15 L-204.8 77.05 -210.0 73.2 -206.25 68.2 -201.05 72.15" fill="#707070" fill-rule="evenodd" stroke="none"/>
    <path d="M-148.85 271.75 L-151.05 275.15 -152.6 278.8 -153.55 282.75 -153.7 286.75 -153.2 290.7 -151.95 294.55 -150.0 298.05 -147.5 301.2 -144.5 303.9 -141.05 305.95 -137.25 307.3 -133.3 308.05 -129.3 308.0 -125.35 307.3 -121.55 305.9 -118.1 303.8 -115.1 301.2 -112.6 298.05 -110.7 294.5 -109.5 290.7 -108.95 286.7 -109.1 282.7 -110.0 278.75 -111.6 275.05 -113.8 271.75 -116.6 268.8 -119.85 266.45 -123.5 264.75 -127.35 263.7 -131.35 263.3 -135.35 263.7 -139.25 264.75 -142.8 266.5 -146.05 268.9 -148.85 271.75 M-148.0 258.7 L-142.75 256.2 -137.2 254.65 -131.35 254.15 -125.6 254.65 -120.0 256.2 -114.75 258.7 -110.05 262.05 -106.05 266.3 -102.85 271.15 -100.55 276.5 -99.25 282.15 -99.0 287.95 -99.75 293.7 -101.55 299.2 -104.3 304.3 -107.95 308.9 -112.3 312.7 -117.3 315.7 -122.75 317.75 -128.45 318.75 -134.25 318.8 -139.95 317.75 Q-142.6 316.75 -145.35 315.7 L-150.35 312.75 -154.75 308.95 -158.35 304.4 -161.1 299.25 -162.95 293.75 -163.75 288.0 -163.5 282.2 -162.2 276.5 -159.95 271.2 -156.7 266.3 -152.7 262.15 -148.0 258.7" fill="#707070" fill-rule="evenodd" stroke="none"/>
    <path d="M-127.45 287.05 L-127.45 285.4 -128.05 283.9 -129.25 282.7 -130.75 282.05 -132.45 282.05 -133.95 282.7 -135.1 283.9 -135.75 285.4 -135.75 287.05 -135.1 288.55 -133.95 289.75 -132.45 290.4 -130.75 290.4 -129.25 289.75 -128.1 288.55 -127.45 287.05 M-141.35 287.8 L-141.35 283.95 -139.95 280.3 -137.1 277.55 -133.55 276.05 -129.6 276.05 -126.05 277.55 -123.3 280.3 -121.8 283.95 -121.8 287.8 -123.3 291.45 -126.05 294.2 -129.6 295.7 -133.55 295.7 -137.2 294.2 -139.95 291.45 -141.35 287.8" fill="#707070" fill-rule="evenodd" stroke="none"/>
    <path d="M-132.85 65.0 L-132.85 68.4 -124.55 68.4 -124.55 70.15 -156.3 70.15 -156.3 68.4 -148.0 68.4 -148.0 65.0 -132.85 65.0" fill="#707070" fill-rule="evenodd" stroke="none"/>
    <path d="M-71.45 124.55 L-70.75 116.25 -61.2 117.8 -61.7 125.55 -71.45 124.55" fill="#707070" fill-rule="evenodd" stroke="none"/>
    <path d="M-71.05 208.5 L-61.75 207.75 -60.8 216.05 -70.35 216.8 -71.05 208.5" fill="#707070" fill-rule="evenodd" stroke="none"/>
    <path d="M86.55 -246.45 L86.95 -249.85 77.5 -259.3 85.05 -266.85 101.45 -250.5 92.0 -241.0 86.55 -246.45" fill="#707070" fill-rule="evenodd" stroke="none"/>
    <path d="M32.2 -309.75 L41.7 -319.2 47.05 -313.8 46.7 -310.3 56.15 -300.85 48.55 -293.3 32.2 -309.75" fill="#707070" fill-rule="evenodd" stroke="none"/>
    <path d="M237.45 -100.35 L228.0 -109.8 235.55 -117.35 251.95 -101.0 242.5 -91.5 237.05 -96.95 237.45 -100.35" fill="#707070" fill-rule="evenodd" stroke="none"/>
    <path d="M192.2 -169.7 L197.55 -164.3 197.2 -160.8 206.65 -151.35 199.05 -143.8 182.7 -160.25 192.2 -169.7" fill="#707070" fill-rule="evenodd" stroke="none"/>
    <path d="M184.9 -312.5 L201.25 -328.95 210.75 -319.45 205.4 -314.0 201.9 -314.45 192.45 -304.95 184.9 -312.5" fill="#707070" fill-rule="evenodd" stroke="none"/>
    <path d="M244.45 -262.85 L247.95 -262.45 257.4 -271.95 264.95 -264.35 248.5 -247.95 239.05 -257.45 244.45 -262.85" fill="#707070" fill-rule="evenodd" stroke="none"/>
    <path d="M-228.6 -252.0 L-231.7 -255.05 -219.5 -267.2 -216.45 -264.1 -228.6 -252.0" fill="#707070" fill-rule="evenodd" stroke="none"/>
    <path d="M-311.0 -169.5 L-314.05 -172.55 -301.95 -184.7 -298.85 -181.6 -311.0 -169.5" fill="#707070" fill-rule="evenodd" stroke="none"/>
    <path d="M-249.45 -231.7 L-278.55 -202.55 -281.6 -205.6 -252.5 -234.75 -249.45 -231.7" fill="#707070" fill-rule="evenodd" stroke="none"/>
    <path d="M-293.6 -218.3 L-298.45 -223.1 -269.35 -252.25 -264.5 -247.45 -293.6 -218.3" fill="#707070" fill-rule="evenodd" stroke="none"/>
    <path d="M-313.55 -237.85 L-318.55 -242.85 -289.45 -272.0 -284.45 -267.0 -313.55 -237.85" fill="#707070" fill-rule="evenodd" stroke="none"/>
    <path d="M-253.95 -297.35 L-269.1 -282.25 -273.8 -286.95 -258.7 -302.1 -253.95 -297.35" fill="#707070" fill-rule="evenodd" stroke="none"/>
    <path d="M-235.3 -287.05 L-230.6 -282.3 -245.75 -267.2 -250.5 -271.95 -235.3 -287.05" fill="#707070" fill-rule="evenodd" stroke="none"/>
    <path d="M-318.25 -204.3 L-313.5 -199.55 -328.6 -184.45 -333.35 -189.2 -318.25 -204.3" fill="#707070" fill-rule="evenodd" stroke="none"/>
    <path d="M-343.85 -207.45 L-348.6 -212.2 -333.5 -227.3 -328.75 -222.55 -343.85 -207.45" fill="#707070" fill-rule="evenodd" stroke="none"/>
    <path d="M-211.75 -219.2 L-209.95 -229.0 -204.0 -228.25 -204.7 -222.7 -208.05 -209.5 -210.95 -201.7 -216.6 -192.25 -221.7 -195.5 -216.45 -204.25 -212.45 -202.2 -209.55 -210.0 -207.45 -218.2 -211.75 -219.2" fill="#707070" fill-rule="evenodd" stroke="none"/>
    <path d="M-213.2 -273.95 L-207.85 -261.75 -207.3 -259.75 -213.1 -258.1 -213.6 -259.95 -215.5 -264.75 -211.8 -266.2 -214.45 -272.7 -213.2 -273.95" fill="#707070" fill-rule="evenodd" stroke="none"/>
    <path d="M-251.05 -169.6 L-242.3 -174.85 -239.05 -169.8 -248.5 -164.1 -256.3 -161.25 -269.5 -157.85 -275.05 -157.2 -275.8 -163.1 -266.0 -164.95 -265.0 -160.6 -256.8 -162.75 -249.0 -165.6 -251.05 -169.6" fill="#707070" fill-rule="evenodd" stroke="none"/>
    <path d="M-306.75 -166.8 L-304.95 -166.3 -306.55 -160.5 -308.55 -161.05 -321.25 -165.8 -320.25 -166.85 -313.5 -164.1 -311.55 -168.7 -306.75 -166.8" fill="#707070" fill-rule="evenodd" stroke="none"/>
    <path d="M215.15 -258.0 L217.0 -255.55 218.2 -252.7 218.5 -249.6 217.95 -246.7 216.65 -244.1 214.55 -242.0 Q213.25 -241.3 211.95 -240.7 L209.0 -240.1 205.95 -240.45 203.05 -241.6 200.65 -243.5 205.5 -248.35 207.25 -248.5 210.05 -251.3 210.05 -252.95 215.15 -258.0" fill="#707070" fill-rule="evenodd" stroke="none"/>
    <path d="M264.9 -307.6 L269.95 -312.7 271.9 -310.2 273.0 -307.3 273.3 -304.3 272.8 -301.35 271.45 -298.75 269.4 -296.7 266.75 -295.3 263.8 -294.8 260.8 -295.1 257.95 -296.25 255.45 -298.2 260.3 -303.05 262.05 -303.1 264.9 -305.95 264.9 -307.6" fill="#707070" fill-rule="evenodd" stroke="none"/>
    <path d="M189.15 -281.8 L192.0 -280.7 194.5 -278.75 189.65 -273.85 187.9 -273.8 185.05 -271.0 185.05 -269.3 180.0 -264.25 178.05 -266.75 176.95 -269.6 176.65 -272.6 177.15 -275.55 178.5 -278.2 180.55 -280.25 183.2 -281.6 186.15 -282.1 189.15 -281.8" fill="#707070" fill-rule="evenodd" stroke="none"/>
    <path d="M82.45 -309.8 L84.4 -312.25 89.25 -307.35 89.3 -305.6 92.15 -302.8 93.8 -302.8 98.9 -297.75 96.4 -295.85 93.5 -294.7 90.5 -294.35 87.55 -294.95 Q86.25 -295.55 84.95 -296.25 L82.9 -298.35 81.5 -300.95 81.0 -303.85 81.3 -306.95 82.45 -309.8" fill="#707070" fill-rule="evenodd" stroke="none"/>
    <path d="M31.4 -260.0 L33.8 -261.95 36.7 -263.05 39.75 -263.35 42.7 -262.85 45.3 -261.5 47.4 -259.45 48.7 -256.8 49.25 -253.85 48.95 -250.85 47.75 -248.0 45.9 -245.5 41.0 -250.35 40.9 -252.1 38.05 -254.95 36.45 -254.95 31.4 -260.0" fill="#707070" fill-rule="evenodd" stroke="none"/>
    <path d="M239.75 -157.85 L239.8 -156.1 242.65 -153.3 244.3 -153.3 249.4 -148.25 246.9 -146.35 244.0 -145.2 241.0 -144.85 238.05 -145.45 Q236.75 -146.05 235.45 -146.75 L233.4 -148.85 232.0 -151.45 231.5 -154.35 231.8 -157.45 232.95 -160.3 234.9 -162.75 239.75 -157.85" fill="#707070" fill-rule="evenodd" stroke="none"/>
    <path d="M195.8 -112.0 L197.9 -109.95 199.2 -107.3 199.75 -104.35 199.45 -101.35 198.25 -98.5 196.4 -96.0 191.5 -100.85 191.4 -102.6 188.55 -105.45 186.95 -105.45 181.9 -110.5 184.3 -112.45 187.2 -113.55 190.25 -113.85 193.2 -113.35 195.8 -112.0" fill="#707070" fill-rule="evenodd" stroke="none"/>
    <path d="M235.55 -334.95 L238.2 -336.25 241.15 -336.8 244.15 -336.5 Q245.55 -335.85 247.0 -335.3 L249.5 -333.45 244.65 -328.55 242.9 -328.45 240.05 -325.6 240.05 -324.0 235.0 -318.95 233.05 -321.35 231.95 -324.25 231.65 -327.3 232.15 -330.25 233.5 -332.8 235.55 -334.95" fill="#707070" fill-rule="evenodd" stroke="none"/>
    <path d="M90.55 -408.7 L90.55 -378.7 83.15 -378.7 83.15 -408.7 90.55 -408.7" fill="#707070" fill-rule="evenodd" stroke="none"/>
    <path d="M46.05 -408.7 L46.05 -378.7 40.8 -378.7 40.8 -408.7 46.05 -408.7" fill="#707070" fill-rule="evenodd" stroke="none"/>
    <path d="M45.2 -475.0 L45.2 -470.3 42.0 -470.3 42.0 -475.0 45.2 -475.0" fill="#707070" fill-rule="evenodd" stroke="none"/>
    <path d="M45.2 -464.6 L45.2 -460.1 42.0 -460.1 42.0 -464.6 45.2 -464.6" fill="#707070" fill-rule="evenodd" stroke="none"/>
    <path d="M45.2 -454.75 L45.2 -450.25 42.0 -450.25 42.0 -454.75 45.2 -454.75" fill="#707070" fill-rule="evenodd" stroke="none"/>
    <path d="M45.2 -444.35 L45.2 -439.85 42.0 -439.85 42.0 -444.35 45.2 -444.35" fill="#707070" fill-rule="evenodd" stroke="none"/>
    <path d="M42.0 -434.5 L45.2 -434.5 45.2 -430.0 42.0 -430.0 42.0 -434.5" fill="#707070" fill-rule="evenodd" stroke="none"/>
    <path d="M45.2 -424.05 L45.2 -419.6 42.0 -419.6 42.0 -424.05 45.2 -424.05" fill="#707070" fill-rule="evenodd" stroke="none"/>
    <path d="M97.3 -475.7 L98.65 -475.7 99.55 -475.35 99.55 -475.7 102.3 -475.7 102.3 -471.0 99.55 -471.0 99.55 -471.35 98.65 -471.0 97.3 -471.0 96.3 -471.3 95.55 -471.8 95.15 -472.55 95.15 -474.2 95.55 -474.85 96.3 -475.45 97.3 -475.7" fill="#707070" fill-rule="evenodd" stroke="none"/>
    <path d="M102.3 -458.2 L102.3 -453.45 99.55 -453.45 99.55 -453.8 98.65 -453.45 97.3 -453.45 96.3 -453.75 95.55 -454.25 95.15 -455.0 95.15 -456.6 95.55 -457.3 96.3 -457.85 97.3 -458.1 98.65 -458.1 99.55 -457.8 99.55 -458.2 102.3 -458.2" fill="#707070" fill-rule="evenodd" stroke="none"/>
    <path d="M95.15 -439.55 L95.55 -440.25 96.3 -440.8 97.3 -441.1 98.65 -441.1 99.55 -440.75 99.55 -441.1 102.3 -441.1 102.3 -436.35 99.55 -436.35 99.55 -436.75 98.65 -436.35 97.3 -436.35 96.3 -436.7 95.55 -437.25 95.15 -437.95 95.15 -439.55" fill="#707070" fill-rule="evenodd" stroke="none"/>
    <path d="M102.3 -423.55 L102.3 -418.8 99.55 -418.8 99.55 -419.2 98.65 -418.85 97.3 -418.85 96.3 -419.1 95.55 -419.7 95.15 -420.35 95.15 -422.0 95.55 -422.75 96.3 -423.25 97.3 -423.55 98.65 -423.55 99.55 -423.2 99.55 -423.55 102.3 -423.55" fill="#707070" fill-rule="evenodd" stroke="none"/>
    <path d="M153.65 -333.5 L160.15 -342.75 161.95 -340.95 173.25 -351.55 179.8 -356.1 178.2 -358.5 182.75 -361.95 190.0 -365.75 197.75 -368.8 207.0 -371.3 217.3 -372.95 227.75 -373.2 237.4 -372.25 241.45 -371.3 240.75 -368.6 248.05 -366.75 255.65 -363.45 256.95 -366.5 267.25 -361.5 275.8 -355.6 283.65 -348.7 290.55 -340.85 296.45 -332.3 301.25 -323.55 302.3 -320.55 299.55 -319.55 302.5 -312.3 304.05 -304.55 307.0 -305.05 308.15 -300.05 308.2 -282.3 306.75 -272.0 304.05 -261.85 300.15 -252.25 295.05 -243.1 294.5 -241.8 292.05 -243.75 288.3 -238.3 281.55 -230.95 276.4 -226.7 278.9 -224.0 273.15 -219.5 264.4 -215.25 258.95 -225.85 270.75 -233.55 280.25 -242.75 287.8 -253.5 293.4 -265.5 296.55 -278.25 297.4 -291.45 295.75 -304.5 291.75 -317.05 285.5 -328.7 277.2 -338.95 267.2 -347.5 255.75 -354.1 243.3 -358.5 230.3 -360.5 217.15 -360.05 204.25 -357.25 192.15 -352.1 181.15 -344.8 171.7 -335.6 165.0 -327.8 162.0 -322.3 151.4 -328.5 153.65 -333.5" fill="#707070" fill-rule="evenodd" stroke="none"/>
    <path d="M141.15 -166.85 L140.15 -161.1 134.2 -162.2 135.2 -167.85 141.15 -166.85" fill="#707070" fill-rule="evenodd" stroke="none"/>
    <path d="M141.95 -154.55 L140.7 -160.45 146.4 -161.6 147.65 -155.75 141.95 -154.55" fill="#707070" fill-rule="evenodd" stroke="none"/>
    <path d="M135.8 -151.05 L141.2 -153.8 143.8 -148.6 138.45 -145.85 135.8 -151.05" fill="#707070" fill-rule="evenodd" stroke="none"/>
    <path d="M130.3 -156.6 L125.4 -159.7 128.55 -164.75 133.5 -161.7 130.3 -156.6" fill="#707070" fill-rule="evenodd" stroke="none"/>
    <path d="M130.75 -155.6 L134.9 -151.2 130.65 -147.25 126.5 -151.7 130.75 -155.6" fill="#707070" fill-rule="evenodd" stroke="none"/>
    <path d="M91.45 -204.95 L92.45 -210.6 98.4 -209.6 97.4 -203.85 91.45 -204.95" fill="#707070" fill-rule="evenodd" stroke="none"/>
    <path d="M103.65 -204.35 L104.9 -198.5 99.2 -197.3 97.95 -203.2 103.65 -204.35" fill="#707070" fill-rule="evenodd" stroke="none"/>
    <path d="M93.05 -193.8 L98.45 -196.55 101.05 -191.35 95.7 -188.6 93.05 -193.8" fill="#707070" fill-rule="evenodd" stroke="none"/>
    <path d="M82.65 -202.45 L85.8 -207.5 90.75 -204.45 87.55 -199.35 82.65 -202.45" fill="#707070" fill-rule="evenodd" stroke="none"/>
    <path d="M83.75 -194.45 L88.0 -198.35 92.15 -193.95 87.9 -190.0 83.75 -194.45" fill="#707070" fill-rule="evenodd" stroke="none"/>
    <path d="M314.75 -147.05 L314.75 -154.5 344.25 -154.5 344.25 -147.05 314.75 -147.05" fill="#707070" fill-rule="evenodd" stroke="none"/>
    <path d="M314.75 -104.75 L314.75 -110.0 344.25 -110.0 344.25 -104.75 314.75 -104.75" fill="#707070" fill-rule="evenodd" stroke="none"/>
    <path d="M410.45 -110.1 L410.45 -105.85 406.05 -105.85 406.05 -110.1 410.45 -110.1" fill="#707070" fill-rule="evenodd" stroke="none"/>
    <path d="M400.2 -110.1 L400.2 -105.85 395.75 -105.85 395.75 -110.1 400.2 -110.1" fill="#707070" fill-rule="evenodd" stroke="none"/>
    <path d="M390.4 -110.1 L390.4 -105.85 385.95 -105.85 385.95 -110.1 390.4 -110.1" fill="#707070" fill-rule="evenodd" stroke="none"/>
    <path d="M375.7 -105.85 L375.7 -110.1 380.15 -110.1 380.15 -105.85 375.7 -105.85" fill="#707070" fill-rule="evenodd" stroke="none"/>
    <path d="M365.4 -105.85 L365.4 -110.1 369.8 -110.1 369.8 -105.85 365.4 -105.85" fill="#707070" fill-rule="evenodd" stroke="none"/>
    <path d="M355.55 -105.85 L355.55 -110.1 360.0 -110.1 360.0 -105.85 355.55 -105.85" fill="#707070" fill-rule="evenodd" stroke="none"/>
    <path d="M411.7 -166.25 L411.7 -163.45 411.4 -163.45 411.7 -162.5 411.7 -161.2 411.4 -160.25 410.9 -159.5 410.2 -159.05 408.5 -159.05 407.8 -159.5 407.25 -160.25 407.0 -161.2 407.0 -162.5 407.3 -163.45 407.0 -163.45 407.0 -166.25 411.7 -166.25" fill="#707070" fill-rule="evenodd" stroke="none"/>
    <path d="M394.15 -166.25 L394.15 -163.45 393.8 -163.45 394.15 -162.5 394.15 -161.2 393.8 -160.25 393.3 -159.5 392.65 -159.05 390.95 -159.05 390.25 -159.5 389.75 -160.25 389.45 -161.2 389.45 -162.5 389.75 -163.45 389.45 -163.45 389.45 -166.25 394.15 -166.25" fill="#707070" fill-rule="evenodd" stroke="none"/>
    <path d="M376.55 -166.25 L376.55 -163.45 376.25 -163.45 376.55 -162.5 376.55 -161.2 376.3 -160.25 375.75 -159.5 375.05 -159.05 373.4 -159.05 372.7 -159.5 372.2 -160.25 371.9 -161.2 371.9 -162.5 372.2 -163.45 371.9 -163.45 371.9 -166.25 376.55 -166.25" fill="#707070" fill-rule="evenodd" stroke="none"/>
    <path d="M354.3 -161.2 L354.3 -162.5 354.65 -163.45 354.3 -163.45 354.3 -166.25 359.0 -166.25 359.0 -163.45 358.7 -163.45 359.0 -162.5 359.0 -161.2 358.75 -160.25 358.2 -159.5 357.5 -159.05 355.8 -159.05 355.15 -159.5 354.65 -160.25 354.3 -161.2" fill="#707070" fill-rule="evenodd" stroke="none"/>
    <path d="M192.9 -175.6 L191.55 -178.3 184.7 -174.5 181.45 -172.25 175.5 -167.0 172.8 -164.05 168.15 -157.7 164.45 -150.7 161.75 -143.25 160.2 -135.45 159.75 -127.5 160.45 -119.7 162.25 -111.95 165.2 -104.55 169.2 -97.7 171.5 -94.5 176.8 -88.6 179.8 -86.0 186.3 -81.45 192.7 -78.05 194.0 -80.75 184.75 -86.05 178.95 -90.8 173.9 -96.3 167.95 -105.8 165.15 -112.8 163.45 -120.05 162.75 -127.55 162.8 -131.3 163.75 -138.75 165.75 -145.95 168.75 -152.8 172.75 -159.2 177.65 -164.85 180.3 -167.45 186.3 -172.0 192.9 -175.6 M183.95 -187.6 L188.4 -189.85 195.55 -175.85 186.8 -171.1 181.0 -166.7 175.8 -161.45 171.5 -155.5 168.05 -149.05 165.55 -142.1 164.15 -134.95 163.75 -127.55 164.4 -120.5 164.4 -120.25 167.3 -109.6 168.8 -106.25 172.5 -99.95 177.05 -94.1 182.4 -89.05 188.4 -84.85 195.05 -81.5 191.8 -74.0 180.7 -80.3 174.15 -85.7 171.15 -88.75 165.9 -95.45 163.65 -99.0 159.95 -106.7 157.3 -114.8 156.5 -118.95 155.75 -127.45 156.2 -135.95 157.9 -144.25 160.75 -152.25 164.7 -159.75 169.75 -166.6 175.7 -172.7 182.45 -177.85 187.5 -180.75 183.95 -187.6" fill="#707070" fill-rule="evenodd" stroke="none"/>
    <path d="M268.5 -139.25 L266.4 -146.95 263.2 -154.2 261.25 -157.6 256.55 -164.0 251.0 -169.7 244.7 -174.5 Q241.25 -176.35 237.75 -178.3 L236.4 -175.6 243.0 -172.0 249.0 -167.45 254.25 -162.1 258.65 -156.05 262.2 -149.45 264.7 -142.35 266.2 -135.05 266.55 -127.55 265.9 -120.05 265.15 -116.45 262.9 -109.25 259.65 -102.5 255.45 -96.3 250.4 -90.8 244.55 -86.05 241.45 -84.0 235.45 -80.95 236.7 -78.2 242.95 -81.35 249.4 -85.95 255.2 -91.45 260.05 -97.6 262.2 -101.0 265.65 -108.1 267.0 -111.85 268.8 -119.55 269.55 -127.5 269.5 -131.45 268.5 -139.25 M240.95 -189.95 L245.4 -187.7 241.95 -180.95 250.3 -175.35 256.7 -169.8 262.2 -163.3 266.7 -156.05 270.15 -148.3 272.45 -140.1 273.15 -135.95 273.55 -127.45 272.8 -118.95 270.8 -110.7 267.7 -102.8 265.7 -99.0 260.95 -92.0 255.2 -85.7 248.65 -80.3 242.05 -76.35 237.0 -74.1 235.3 -79.25 234.25 -81.5 240.9 -84.85 246.95 -89.05 252.25 -94.1 256.8 -99.95 260.5 -106.25 263.2 -113.1 264.9 -120.25 265.55 -127.55 265.5 -131.45 265.2 -134.95 262.65 -145.6 259.65 -152.3 255.75 -158.55 253.45 -161.45 248.3 -166.7 242.45 -171.1 233.7 -175.85 240.95 -189.95" fill="#707070" fill-rule="evenodd" stroke="none"/>
    <path d="M107.05 -250.85 L111.8 -259.6 125.8 -252.35 123.5 -247.95 116.65 -251.5 113.75 -246.5 108.65 -239.7 102.55 -233.75 95.7 -228.75 88.2 -224.75 80.2 -221.85 71.8 -220.2 63.3 -219.75 54.9 -220.5 50.7 -221.35 42.55 -223.95 34.95 -227.6 27.9 -232.35 21.65 -238.1 16.25 -244.7 9.95 -255.8 17.4 -259.05 20.75 -252.35 25.0 -246.35 30.05 -241.05 35.8 -236.5 42.2 -232.8 49.0 -230.1 56.2 -228.45 63.5 -227.75 70.8 -228.1 78.0 -229.55 84.95 -232.05 91.45 -235.5 97.4 -239.85 102.65 -245.0 107.05 -250.85 M111.55 -256.85 L107.9 -250.3 103.4 -244.3 98.0 -239.05 95.05 -236.75 85.4 -231.1 78.3 -228.6 74.65 -227.75 67.2 -226.8 63.45 -226.75 56.0 -227.45 48.7 -229.2 41.75 -231.95 35.25 -235.7 29.4 -240.3 24.25 -245.75 19.95 -251.85 16.7 -258.0 14.0 -256.7 17.3 -250.35 21.9 -243.85 27.3 -238.1 33.55 -233.25 40.4 -229.25 47.75 -226.3 55.45 -224.45 63.45 -223.75 67.3 -223.8 75.2 -224.8 82.8 -226.95 90.05 -230.1 96.8 -234.3 102.9 -239.45 108.05 -245.35 112.45 -252.0 114.25 -255.55 111.55 -256.85" fill="#707070" fill-rule="evenodd" stroke="none"/>
    <path d="M29.4 -317.0 L35.25 -321.6 38.45 -323.6 45.2 -326.85 52.3 -329.2 63.45 -330.55 70.95 -330.2 74.65 -329.55 81.9 -327.55 88.75 -324.55 95.05 -320.55 100.8 -315.7 105.75 -310.05 109.8 -303.8 111.55 -300.45 114.25 -301.75 112.5 -305.2 108.15 -311.85 105.65 -314.95 100.0 -320.5 96.9 -322.95 90.2 -327.2 86.65 -328.85 79.15 -331.55 71.4 -333.1 63.45 -333.55 55.55 -332.85 47.9 -331.0 44.15 -329.7 37.0 -326.25 30.45 -321.8 24.55 -316.45 19.55 -310.3 17.4 -307.0 14.15 -300.7 16.8 -299.45 19.95 -305.45 24.25 -311.55 29.4 -317.0 M16.25 -312.6 L21.65 -319.2 24.65 -322.2 31.3 -327.45 38.7 -331.7 46.65 -334.8 54.9 -336.8 63.3 -337.55 71.8 -337.1 80.2 -335.45 88.2 -332.55 95.7 -328.55 99.2 -326.2 105.7 -320.7 111.3 -314.3 116.8 -305.95 123.55 -309.35 125.9 -304.95 111.8 -297.75 107.05 -306.5 104.95 -309.5 100.05 -315.0 94.5 -319.75 88.25 -323.6 81.5 -326.6 74.45 -328.55 70.8 -329.2 63.5 -329.55 56.2 -328.95 49.0 -327.2 45.55 -325.95 38.95 -322.75 32.9 -318.6 27.45 -313.7 25.0 -310.95 20.75 -304.95 17.4 -298.25 15.15 -299.3 10.05 -301.0 12.25 -306.05 16.25 -312.6" fill="#707070" fill-rule="evenodd" stroke="none"/>
    <path d="M49.7 -91.05 L56.45 -93.7 63.5 -95.0 70.75 -95.0 77.9 -93.7 84.65 -91.05 90.75 -87.25 96.15 -82.35 100.45 -76.6 103.7 -70.1 105.7 -63.2 95.8 -61.3 93.65 -67.5 88.3 -75.3 84.4 -78.8 79.95 -81.6 75.0 -83.55 69.8 -84.5 64.5 -84.5 59.3 -83.55 54.4 -81.6 49.9 -78.8 46.0 -75.3 42.8 -71.05 40.45 -66.3 39.0 -61.25 38.5 -56.0 39.0 -50.75 40.45 -45.6 42.8 -40.95 46.0 -36.7 49.9 -33.1 54.5 -29.8 61.5 -27.0 59.95 -17.6 56.45 -18.3 49.7 -20.95 43.55 -24.75 38.2 -29.6 33.8 -35.35 30.65 -41.8 28.65 -48.8 27.95 -56.0 28.65 -63.2 30.65 -70.1 33.8 -76.6 38.2 -82.35 43.55 -87.25 49.7 -91.05" fill="#707070" fill-rule="evenodd" stroke="none"/>
    <path d="M63.25 -75.75 L64.55 -77.25 66.4 -78.1 68.45 -78.2 70.3 -77.55 71.8 -76.2 72.65 -74.35 72.75 -72.35 72.05 -70.45 70.7 -69.0 68.9 -68.1 66.9 -68.0 65.0 -68.7 63.5 -70.05 62.65 -71.85 62.55 -73.85 63.25 -75.75" fill="#707070" fill-rule="evenodd" stroke="none"/>
    <path d="M48.5 -60.35 L50.55 -60.45 52.45 -59.8 53.95 -58.45 54.75 -56.6 54.9 -54.6 54.2 -52.7 52.8 -51.25 51.0 -50.35 49.0 -50.25 Q48.05 -50.55 47.15 -50.95 L45.65 -52.3 44.75 -54.1 44.7 -56.1 45.4 -58.0 46.7 -59.5 48.5 -60.35" fill="#707070" fill-rule="evenodd" stroke="none"/>
    <path d="M68.3 -27.45 L70.2 -26.8 71.7 -25.45 72.5 -23.6 72.65 -21.6 71.95 -19.7 70.55 -18.25 68.75 -17.35 66.75 -17.25 64.9 -17.95 63.4 -19.3 62.5 -21.1 62.45 -23.1 63.15 -25.0 64.45 -26.5 66.25 -27.35 68.3 -27.45" fill="#707070" fill-rule="evenodd" stroke="none"/>
    <path d="M98.9 -60.75 L100.95 -60.8 102.8 -60.2 104.3 -58.8 105.15 -57.0 105.25 -55.0 104.55 -53.05 103.2 -51.6 101.4 -50.75 99.4 -50.6 97.5 -51.3 96.0 -52.7 95.15 -54.5 95.05 -56.5 95.75 -58.35 97.05 -59.85 98.9 -60.75" fill="#707070" fill-rule="evenodd" stroke="none"/>
    <path d="M81.9 -97.8 L87.0 -95.8 94.0 -91.5 100.05 -86.0 105.0 -79.45 108.65 -72.05 110.9 -64.2 111.7 -56.0 110.9 -47.75 110.0 -43.35 105.05 -44.35 105.15 -44.5 107.75 -43.95 108.65 -48.2 109.3 -56.0 108.65 -63.75 106.5 -71.25 103.0 -78.2 98.3 -84.45 92.55 -89.7 85.95 -93.75 81.05 -95.7 81.9 -97.8" fill="#707070" fill-rule="evenodd" stroke="none"/>
    <path d="M79.0 -17.75 L79.05 -17.75 80.25 -12.95 77.5 -12.25 71.15 -11.7 63.05 -11.7 54.95 -13.2 Q51.15 -14.6 47.3 -16.1 L40.3 -20.5 34.25 -26.0 29.3 -32.55 25.65 -39.95 24.95 -42.3 27.2 -42.95 27.8 -40.75 31.25 -33.75 35.95 -27.55 41.75 -22.3 48.3 -18.25 55.65 -15.45 63.25 -14.0 76.9 -14.5 79.65 -15.2 79.0 -17.75" fill="#707070" fill-rule="evenodd" stroke="none"/>
    <path d="M9.3 -153.6 L4.7 -156.95 -2.3 -159.8 -0.75 -169.1 2.75 -168.45 9.5 -165.85 15.65 -162.05 21.0 -157.2 25.3 -151.45 28.55 -144.95 30.55 -138.0 31.2 -130.8 30.55 -123.55 28.55 -116.6 25.3 -110.2 21.0 -104.35 15.65 -99.5 9.5 -95.7 2.75 -93.1 -4.35 -91.75 -11.55 -91.75 -18.7 -93.1 -25.45 -95.7 -31.55 -99.5 -36.95 -104.35 -41.3 -110.2 -44.5 -116.6 -46.5 -123.55 -36.6 -125.45 -34.5 -119.3 -29.1 -111.5 -25.25 -107.95 -20.75 -105.1 -15.8 -103.25 -10.6 -102.25 -5.3 -102.25 -0.1 -103.25 4.8 -105.1 9.3 -107.95 13.2 -111.5 16.4 -115.7 18.75 -120.45 20.2 -125.5 20.7 -130.8 20.2 -136.05 18.75 -141.1 16.4 -145.85 13.2 -150.05 9.3 -153.6" fill="#707070" fill-rule="evenodd" stroke="none"/>
    <path d="M-5.8 -118.05 L-4.3 -116.75 -3.5 -114.95 -3.35 -112.85 -4.05 -111.0 -5.45 -109.5 Q-6.3 -109.05 -7.25 -108.7 L-9.25 -108.55 -11.1 -109.25 -12.6 -110.55 -13.5 -112.45 -13.55 -114.45 -12.85 -116.3 -11.55 -117.8 -9.75 -118.7 -7.7 -118.75 -5.8 -118.05" fill="#707070" fill-rule="evenodd" stroke="none"/>
    <path d="M5.0 -134.05 L6.3 -135.55 8.15 -136.45 10.2 -136.5 12.05 -135.8 13.55 -134.5 14.4 -132.7 14.5 -130.6 13.8 -128.75 12.45 -127.25 10.65 -126.45 8.65 -126.3 6.75 -127.0 5.25 -128.3 4.4 -130.2 4.3 -132.2 5.0 -134.05" fill="#707070" fill-rule="evenodd" stroke="none"/>
    <path d="M-11.45 -168.55 L-9.6 -169.45 -7.55 -169.5 -5.7 -168.8 -4.2 -167.5 -3.35 -165.7 -3.25 -163.6 -3.95 -161.75 -5.3 -160.25 -7.1 -159.45 -9.1 -159.3 -11.0 -160.0 -12.5 -161.3 -13.35 -163.2 -13.45 -165.2 -12.75 -167.05 -11.45 -168.55" fill="#707070" fill-rule="evenodd" stroke="none"/>
    <path d="M-38.3 -135.45 L-36.8 -134.1 -36.0 -132.3 -35.85 -130.25 -36.55 -128.35 -37.95 -126.85 -39.75 -126.05 -41.75 -125.95 -43.6 -126.6 -45.1 -127.95 -46.0 -129.8 -46.05 -131.8 -45.35 -133.7 -44.05 -135.2 -42.25 -136.05 -40.2 -136.1 -38.3 -135.45" fill="#707070" fill-rule="evenodd" stroke="none"/>
    <path d="M-50.8 -143.45 L-45.95 -142.45 -45.95 -142.3 -48.55 -142.8 -49.45 -138.55 -50.2 -130.8 -49.45 -123.0 -47.3 -115.55 -43.85 -108.55 -39.1 -102.35 -33.35 -97.1 -26.8 -93.0 -21.85 -91.1 -22.7 -88.95 -27.8 -90.95 -34.8 -95.25 -40.85 -100.8 -45.8 -107.35 -49.5 -114.7 -51.75 -122.6 -52.5 -130.8 -50.8 -143.45" fill="#707070" fill-rule="evenodd" stroke="none"/>
    <path d="M-4.05 -172.8 L-11.75 -172.8 -17.75 -172.25 -20.45 -171.6 -19.8 -169.0 -19.85 -169.0 -21.1 -173.85 -18.3 -174.55 -11.85 -175.1 -3.85 -175.1 4.2 -173.6 11.9 -170.6 18.9 -166.3 24.95 -160.75 29.9 -154.2 33.5 -146.85 34.2 -144.45 32.0 -143.8 31.4 -146.0 27.9 -153.0 23.2 -159.2 17.45 -164.45 10.8 -168.55 3.55 -171.35 -4.05 -172.8" fill="#707070" fill-rule="evenodd" stroke="none"/>
    <path d="M70.45 -129.85 L66.15 -125.55 61.5 -130.1 65.8 -134.45 70.45 -129.85" fill="#707070" fill-rule="evenodd" stroke="none"/>
    <path d="M61.05 -130.3 L55.45 -133.55 58.55 -138.95 64.2 -135.7 61.05 -130.3" fill="#707070" fill-rule="evenodd" stroke="none"/>
    <path d="M48.75 -135.2 L50.4 -141.35 56.7 -139.7 55.0 -133.5 48.75 -135.2" fill="#707070" fill-rule="evenodd" stroke="none"/>
    <path d="M41.95 -135.2 L41.95 -141.95 48.45 -141.95 48.45 -135.2 41.95 -135.2" fill="#707070" fill-rule="evenodd" stroke="none"/>
    <path d="M66.2 -125.2 L71.55 -128.3 74.8 -122.7 69.45 -119.55 66.2 -125.2" fill="#707070" fill-rule="evenodd" stroke="none"/>
    <path d="M77.25 -114.5 L71.4 -112.95 69.7 -119.25 75.55 -120.8 77.25 -114.5" fill="#707070" fill-rule="evenodd" stroke="none"/>
    <path d="M77.8 -112.55 L77.8 -106.05 71.3 -106.05 71.3 -112.55 77.8 -112.55" fill="#707070" fill-rule="evenodd" stroke="none"/>
    <path d="M-235.95 -298.5 L-228.25 -291.85 -231.1 -288.45 -242.3 -297.55 -256.5 -305.7 -254.3 -309.6 -243.7 -303.8 -235.95 -298.5" fill="#707070" fill-rule="evenodd" stroke="none"/>
    <path d="M-352.5 -210.2 L-350.85 -206.8 -343.05 -193.95 -335.5 -184.75 -339.0 -181.95 -349.35 -195.2 -356.5 -208.1 -352.5 -210.2" fill="#707070" fill-rule="evenodd" stroke="none"/>
    <path d="M-172.35 -248.0 L-174.1 -259.75 -170.0 -255.8 -168.35 -257.5 -166.25 -237.95 -166.5 -228.25 -168.1 -216.7 -170.25 -207.05 -172.35 -202.55 -173.55 -203.75 -178.55 -198.75 -175.1 -210.25 -173.6 -217.25 -172.1 -229.25 -171.6 -239.0 -172.35 -248.0" fill="#707070" fill-rule="evenodd" stroke="none"/>
    <path d="M-302.95 -122.85 L-306.95 -126.95 -284.7 -124.7 -264.85 -126.5 -256.7 -127.8 -246.2 -131.1 -250.85 -126.45 -249.7 -125.25 -254.1 -123.1 -263.8 -121.0 -275.35 -119.35 -285.0 -119.1 -304.55 -121.25 -302.95 -122.85" fill="#707070" fill-rule="evenodd" stroke="none"/>
    <path d="M-137.2 367.25 L-122.6 359.3 -103.75 352.55 -91.55 346.2 -83.6 340.3 -72.6 328.7 -68.05 320.8 -62.45 307.65 -59.8 295.15 -59.35 281.4 -57.35 266.45 -54.55 257.75 -50.55 247.75 -43.1 235.3 -42.0 233.8 -35.35 238.5 -36.5 239.9 -43.3 251.25 -49.55 268.3 -51.35 282.0 -51.85 296.05 -52.7 301.55 -54.8 310.15 -60.85 324.45 -66.05 333.4 -78.35 346.4 -87.1 352.9 -95.05 357.4 -119.35 366.7 -132.75 374.0 -137.75 377.75 -147.45 387.4 -153.25 381.9 -142.95 371.65 -137.2 367.25" fill="#707070" fill-rule="evenodd" stroke="none"/>
    <path d="M-127.25 346.05 L-126.1 347.65 -125.6 349.5 -125.85 351.45 -126.85 353.05 -128.45 354.25 -130.3 354.7 -132.2 354.45 -133.85 353.45 -135.0 351.9 -135.5 350.0 -135.2 348.15 -134.25 346.45 -132.7 345.3 -130.8 344.8 -128.85 345.15 -127.25 346.05" fill="#707070" fill-rule="evenodd" stroke="none"/>
    <path d="M-156.0 362.05 L-154.05 362.4 -152.45 363.3 -151.25 364.9 -150.8 366.75 -151.05 368.7 -152.05 370.3 -153.6 371.5 -155.5 371.95 -157.35 371.7 -159.05 370.7 -160.2 369.15 -160.7 367.25 -160.35 365.4 -159.35 363.7 -157.85 362.55 -156.0 362.05" fill="#707070" fill-rule="evenodd" stroke="none"/>
    <path d="M-109.3 340.45 L-109.05 338.5 -108.05 336.9 -106.5 335.7 -104.6 335.25 -102.75 335.5 -101.05 336.5 -99.95 338.05 -99.45 339.95 -99.75 341.8 -100.75 343.5 -102.25 344.65 -104.1 345.15 -106.05 344.8 -107.7 343.8 -108.85 342.3 -109.3 340.45" fill="#707070" fill-rule="evenodd" stroke="none"/>
    <path d="M-89.8 324.65 L-89.55 322.7 -88.55 321.0 -87.0 319.9 -85.1 319.4 -83.25 319.7 -81.55 320.7 -80.45 322.2 -79.95 324.05 -80.25 326.0 -81.25 327.65 -82.75 328.8 -84.6 329.25 -86.55 329.0 -88.2 328.0 -89.35 326.45 -89.8 324.65" fill="#707070" fill-rule="evenodd" stroke="none"/>
    <path d="M-77.5 303.95 L-78.0 302.15 -77.7 300.2 -76.75 298.5 -75.2 297.4 -73.3 296.9 -71.35 297.2 -69.75 298.2 -68.6 299.7 -68.1 301.55 -68.35 303.5 -69.35 305.15 -70.95 306.3 -72.8 306.75 -74.7 306.5 -76.35 305.5 -77.5 303.95" fill="#707070" fill-rule="evenodd" stroke="none"/>
    <path d="M-74.85 280.15 L-75.3 278.25 -75.05 276.4 -74.05 274.7 -72.5 273.55 -70.6 273.05 -68.75 273.4 -67.05 274.3 -65.95 275.9 -65.45 277.75 -65.75 279.7 -66.75 281.3 -68.25 282.5 -70.1 282.95 -72.05 282.7 -73.7 281.7 -74.85 280.15" fill="#707070" fill-rule="evenodd" stroke="none"/>
    <path d="M-64.1 245.05 L-62.25 245.4 -60.55 246.3 -59.45 247.9 -58.95 249.75 -59.25 251.7 -60.25 253.3 -61.75 254.5 -63.6 254.95 -65.55 254.7 -67.2 253.7 -68.35 252.15 -68.8 250.25 -68.55 248.4 -67.55 246.7 -66.0 245.55 -64.1 245.05" fill="#707070" fill-rule="evenodd" stroke="none"/>
    <path d="M117.7 139.05 L118.05 149.15 108.3 149.45 107.95 139.45 117.7 139.05" fill="#707070" fill-rule="evenodd" stroke="none"/>
    <path d="M122.5 151.4 L121.8 141.4 134.7 140.45 135.4 150.45 122.5 151.4" fill="#707070" fill-rule="evenodd" stroke="none"/>
    <path d="M89.75 149.45 L90.9 139.45 103.7 140.95 102.55 150.9 89.75 149.45" fill="#707070" fill-rule="evenodd" stroke="none"/>
    <path d="M256.25 198.15 L256.25 239.5 238.4 239.5 238.4 198.15 256.25 198.15" fill="#707070" fill-rule="evenodd" stroke="none"/>
    <path d="M191.9 196.55 L197.9 196.55 197.9 190.45 206.75 190.45 206.75 270.25 197.5 270.25 197.5 263.9 191.9 263.9 191.9 196.55" fill="#707070" fill-rule="evenodd" stroke="none"/>
    <path d="M276.75 201.25 L285.55 201.25 285.55 227.75 276.75 227.75 276.75 201.25" fill="#707070" fill-rule="evenodd" stroke="none"/>
    <path d="M342.65 145.55 L347.95 152.45 351.5 160.55 352.75 167.55 353.05 171.65 353.05 243.15 353.3 243.15 353.3 244.4 319.7 244.4 319.7 243.75 319.4 243.75 319.4 231.15 314.7 231.15 314.7 241.75 305.55 241.75 305.55 177.25 282.75 177.25 282.75 168.95 314.7 168.95 314.7 185.95 319.4 185.95 319.4 174.65 323.75 174.65 323.75 234.75 325.55 234.75 325.55 243.15 337.55 243.15 337.55 234.75 346.05 234.75 346.05 171.75 344.75 162.65 341.9 156.05 337.65 150.5 332.25 146.3 326.05 143.7 312.65 142.45 277.8 142.45 277.8 136.9 266.15 136.9 266.15 142.45 251.05 142.45 251.05 135.45 312.9 135.45 327.95 136.9 335.8 140.25 342.65 145.55" fill="#707070" fill-rule="evenodd" stroke="none"/>
    <path d="M144.05 288.15 L148.15 288.15 148.15 313.0 188.15 313.0 188.15 287.25 191.95 287.25 191.95 318.45 144.05 318.45 144.05 288.15" fill="#707070" fill-rule="evenodd" stroke="none"/>
    <path d="M203.05 363.45 L203.05 373.25 138.05 373.25 138.05 363.45 203.05 363.45" fill="#707070" fill-rule="evenodd" stroke="none"/>
    <path d="M238.55 450.45 L238.55 454.65 199.4 454.65 199.4 450.45 238.55 450.45" fill="#707070" fill-rule="evenodd" stroke="none"/>
    <path d="M141.55 450.45 L141.55 455.15 107.2 455.15 107.2 450.45 141.55 450.45" fill="#707070" fill-rule="evenodd" stroke="none"/>
    <path d="M196.25 445.45 L196.25 448.45 198.55 448.45 198.55 454.65 167.2 454.65 167.2 452.45 165.7 452.45 166.9 449.75 153.4 449.25 154.4 454.65 142.9 454.65 142.9 448.45 144.9 448.45 144.9 445.45 196.25 445.45" fill="#707070" fill-rule="evenodd" stroke="none"/>
    <path d="M138.2 400.75 L142.75 400.75 142.75 399.3 144.65 399.3 144.65 405.95 197.0 405.95 197.0 398.8 198.9 398.8 198.9 400.25 203.5 400.25 203.5 420.95 198.9 420.95 198.9 422.3 197.0 422.3 197.0 416.75 144.65 416.75 144.65 422.8 142.75 422.8 142.75 421.45 138.2 421.45 138.2 400.75" fill="#707070" fill-rule="evenodd" stroke="none"/>
    <path d="M111.05 423.75 L111.05 427.95 106.75 427.95 106.75 388.75 111.05 388.75 111.05 398.25 116.4 398.25 116.4 423.75 111.05 423.75" fill="#707070" fill-rule="evenodd" stroke="none"/>
    <path d="M244.05 390.4 L244.05 385.75 249.05 385.75 249.05 429.9 244.05 429.9 244.05 428.0 238.75 428.0 238.75 390.4 244.05 390.4" fill="#707070" fill-rule="evenodd" stroke="none"/>
    <path d="M348.4 388.55 L348.4 396.65 354.4 396.65 354.4 414.15 348.4 414.15 348.4 420.75 296.25 420.75 296.25 388.55 348.4 388.55" fill="#707070" fill-rule="evenodd" stroke="none"/>
    <path d="M273.75 369.25 L273.75 365.15 290.55 365.15 290.55 369.25 273.75 369.25" fill="#707070" fill-rule="evenodd" stroke="none"/>
    <path d="M289.55 453.75 L289.55 460.0 250.25 460.0 250.25 453.75 289.55 453.75" fill="#707070" fill-rule="evenodd" stroke="none"/>
    <path d="M296.05 460.0 L296.05 454.15 319.25 454.15 319.25 460.0 296.05 460.0" fill="#707070" fill-rule="evenodd" stroke="none"/>
    <path d="M374.25 444.65 L374.25 453.25 388.55 453.25 388.55 460.0 329.25 460.0 329.25 444.65 374.25 444.65" fill="#707070" fill-rule="evenodd" stroke="none"/>
    <path d="M251.55 275.4 L251.55 269.65 286.65 269.65 286.65 275.4 251.55 275.4" fill="#707070" fill-rule="evenodd" stroke="none"/>
    <path d="M198.05 166.45 L198.05 161.15 216.05 161.15 216.05 166.45 198.05 166.45" fill="#707070" fill-rule="evenodd" stroke="none"/>
    <path d="M12.5 233.7 L13.4 233.15 14.45 232.95 15.45 233.15 16.4 233.7 17.0 234.55 17.3 235.55 17.2 236.65 16.7 237.55 15.95 238.25 14.95 238.65 13.9 238.65 12.95 238.25 12.15 237.55 11.7 236.65 11.55 235.55 11.9 234.55 12.5 233.7" fill="#707070" fill-rule="evenodd" stroke="none"/>
    <path d="M12.5 202.7 L13.4 202.15 14.45 201.95 15.45 202.15 16.4 202.7 17.0 203.55 17.3 204.55 17.2 205.65 16.7 206.55 15.95 207.25 14.95 207.65 13.9 207.65 12.95 207.25 12.15 206.55 11.7 205.65 11.55 204.55 11.9 203.55 12.5 202.7" fill="#707070" fill-rule="evenodd" stroke="none"/>
    <path d="M78.65 138.55 L79.25 139.3 79.5 140.25 79.4 141.2 79.0 142.05 78.25 142.7 77.4 143.05 76.45 143.05 75.5 142.7 74.8 142.05 74.4 141.2 74.3 140.25 74.55 139.3 75.15 138.55 75.95 138.05 76.9 137.9 77.8 138.05 78.65 138.55" fill="#707070" fill-rule="evenodd" stroke="none"/>
    <path d="M148.45 143.4 L149.4 143.2 150.3 143.4 151.15 143.9 151.75 144.65 152.0 145.55 151.9 146.5 151.5 147.4 150.75 148.0 149.9 148.4 148.95 148.4 148.0 148.0 147.3 147.4 146.9 146.5 146.8 145.55 147.05 144.65 147.65 143.9 148.45 143.4" fill="#707070" fill-rule="evenodd" stroke="none"/>
    <path d="M258.05 96.55 L258.3 97.5 258.25 98.45 257.8 99.3 257.15 99.95 256.2 100.3 255.25 100.3 254.4 99.95 253.7 99.3 253.25 98.45 253.15 97.5 253.4 96.55 254.0 95.8 254.8 95.3 255.75 95.15 256.7 95.3 257.5 95.8 258.05 96.55" fill="#707070" fill-rule="evenodd" stroke="none"/>
    <path d="M329.9 86.3 L330.7 85.8 331.65 85.65 332.55 85.8 333.4 86.3 333.95 87.05 334.2 88.0 334.15 88.95 333.7 89.8 333.0 90.45 332.05 90.8 331.15 90.8 330.25 90.45 329.55 89.8 329.15 88.95 329.0 88.0 329.25 87.05 329.9 86.3" fill="#707070" fill-rule="evenodd" stroke="none"/>
    <path d="M400.55 86.7 L401.5 86.9 402.3 87.4 402.95 88.15 403.2 89.05 403.05 90.0 402.7 90.9 401.95 91.5 401.05 91.9 400.15 91.9 399.2 91.5 398.5 90.9 398.05 90.0 398.0 89.05 398.25 88.15 398.8 87.4 399.65 86.9 400.55 86.7" fill="#707070" fill-rule="evenodd" stroke="none"/>
    <path d="M222.7 0.55 L224.7 0.55 224.7 25.0 245.55 25.0 245.55 27.0 222.7 27.0 222.7 0.55" fill="#707070" fill-rule="evenodd" stroke="none"/>
    <path d="M204.45 0.4 L206.5 0.4 206.5 26.25 204.45 26.25 204.45 0.4" fill="#707070" fill-rule="evenodd" stroke="none"/>
    <path d="M285.05 81.9 L285.05 89.9 257.55 89.9 257.55 81.9 285.05 81.9" fill="#707070" fill-rule="evenodd" stroke="none"/>
    <path d="M315.9 81.9 L315.9 89.5 288.4 89.5 288.4 81.9 315.9 81.9" fill="#707070" fill-rule="evenodd" stroke="none"/>
    <path d="M380.9 106.0 L390.9 106.0 390.9 136.0 380.9 136.0 380.9 106.0" fill="#707070" fill-rule="evenodd" stroke="none"/>
    <path d="M400.05 97.25 L406.2 97.25 406.2 140.75 400.05 140.75 400.05 97.25" fill="#707070" fill-rule="evenodd" stroke="none"/>
    <path d="M410.8 142.75 L410.8 119.75 417.9 119.75 417.9 142.75 410.8 142.75" fill="#707070" fill-rule="evenodd" stroke="none"/>
    <path d="M409.5 173.75 L417.55 173.75 417.55 192.95 409.5 192.95 409.5 173.75" fill="#707070" fill-rule="evenodd" stroke="none"/>
    <path d="M443.4 40.0 L450.9 40.0 450.9 64.25 443.4 64.25 443.4 40.0" fill="#707070" fill-rule="evenodd" stroke="none"/>
    <path d="M365.7 74.25 L370.25 74.25 370.25 85.25 365.7 85.25 365.7 74.25" fill="#707070" fill-rule="evenodd" stroke="none"/>
    <path d="M382.55 74.25 L382.55 85.25 380.25 85.25 380.25 74.25 382.55 74.25" fill="#707070" fill-rule="evenodd" stroke="none"/>
    <path d="M356.45 74.25 L356.45 85.25 354.05 85.25 354.05 74.25 356.45 74.25" fill="#707070" fill-rule="evenodd" stroke="none"/>
    <path d="M430.9 -3.25 L448.45 -3.25 448.45 7.75 430.9 7.75 430.9 -3.25" fill="#707070" fill-rule="evenodd" stroke="none"/>
    <path d="M448.55 -36.35 L448.55 -25.35 428.9 -25.35 428.9 -36.35 448.55 -36.35" fill="#707070" fill-rule="evenodd" stroke="none"/>
    <path d="M430.4 -65.55 L448.2 -65.55 448.2 -54.55 430.4 -54.55 430.4 -65.55" fill="#707070" fill-rule="evenodd" stroke="none"/>
    <path d="M417.9 9.65 L417.9 12.25 373.9 12.25 373.9 7.95 401.75 7.95 401.75 9.65 417.9 9.65" fill="#707070" fill-rule="evenodd" stroke="none"/>
    <path d="M346.95 40.65 L346.95 34.25 393.55 34.25 393.55 40.65 346.95 40.65" fill="#707070" fill-rule="evenodd" stroke="none"/>
    <path d="M371.75 -65.6 L378.5 -65.6 378.5 -56.75 371.75 -56.75 371.75 -65.6" fill="#707070" fill-rule="evenodd" stroke="none"/>
    <path d="M363.3 -65.6 L370.15 -65.6 370.15 -56.75 363.3 -56.75 363.3 -65.6" fill="#707070" fill-rule="evenodd" stroke="none"/>
    <path d="M354.95 -65.6 L361.75 -65.6 361.75 -56.75 354.95 -56.75 354.95 -65.6" fill="#707070" fill-rule="evenodd" stroke="none"/>
    <path d="M427.2 -391.05 L429.25 -391.05 429.25 -200.85 427.2 -200.85 427.2 -391.05" fill="#707070" fill-rule="evenodd" stroke="none"/>
    <path d="M445.25 -431.75 L421.4 -431.75 421.4 -433.75 447.2 -433.75 447.2 -200.85 445.25 -200.85 445.25 -431.75" fill="#707070" fill-rule="evenodd" stroke="none"/>
    <path d="M458.2 142.2 L458.2 163.25 449.25 163.25 449.25 142.2 458.2 142.2" fill="#707070" fill-rule="evenodd" stroke="none"/>
    <path d="M449.45 173.45 L458.45 173.45 458.45 194.5 449.45 194.5 449.45 173.45" fill="#707070" fill-rule="evenodd" stroke="none"/>
    <path d="M418.45 195.75 L418.45 220.75 409.5 220.75 409.5 195.75 418.45 195.75" fill="#707070" fill-rule="evenodd" stroke="none"/>
    <path d="M457.2 171.75 L450.0 171.75 450.0 164.95 457.2 164.95 457.2 171.75" fill="#707070" fill-rule="evenodd" stroke="none"/>
    <path d="M450.9 9.65 L450.9 12.25 426.55 12.25 426.55 9.65 450.9 9.65" fill="#707070" fill-rule="evenodd" stroke="none"/>
    <path d="M400.7 -11.25 L400.7 -9.5 344.75 -9.5 344.75 -11.25 400.7 -11.25" fill="#707070" fill-rule="evenodd" stroke="none"/>
    <path d="M-339.7 314.05 L-368.35 314.05 -368.35 311.4 -339.7 311.4 -339.7 314.05" fill="#ffffff" fill-rule="evenodd" stroke="none"/>
    <path d="M-339.7 314.05 L-368.35 314.05 -368.35 311.4 -339.7 311.4 -339.7 314.05" fill="#ffffff" fill-rule="evenodd" stroke="none"/>
    <path d="M47.7 242.65 L47.7 222.75 54.15 222.75 54.15 242.65 47.7 242.65" fill="#ffffff" fill-rule="evenodd" stroke="none"/>
    <path d="M63.05 222.75 L63.05 242.65 56.65 242.65 56.65 222.75 63.05 222.75" fill="#ffffff" fill-rule="evenodd" stroke="none"/>
    <path d="M65.5 242.65 L65.5 222.75 72.0 222.75 72.0 242.65 65.5 242.65" fill="#ffffff" fill-rule="evenodd" stroke="none"/>
    <path d="M74.45 242.65 L74.45 222.75 80.95 222.75 80.95 242.65 74.45 242.65" fill="#ffffff" fill-rule="evenodd" stroke="none"/>
    <path d="M83.4 242.65 L83.4 222.75 89.8 222.75 89.8 242.65 83.4 242.65" fill="#ffffff" fill-rule="evenodd" stroke="none"/>
    <path d="M47.7 220.15 L47.7 199.75 54.15 199.75 54.15 220.15 47.7 220.15" fill="#ffffff" fill-rule="evenodd" stroke="none"/>
    <path d="M63.05 199.75 L63.05 220.15 56.65 220.15 56.65 199.75 63.05 199.75" fill="#ffffff" fill-rule="evenodd" stroke="none"/>
    <path d="M65.5 220.15 L65.5 199.75 72.0 199.75 72.0 220.15 65.5 220.15" fill="#ffffff" fill-rule="evenodd" stroke="none"/>
    <path d="M74.45 220.15 L74.45 199.75 80.95 199.75 80.95 220.15 74.45 220.15" fill="#ffffff" fill-rule="evenodd" stroke="none"/>
    <path d="M83.4 220.15 L83.4 199.75 89.8 199.75 89.8 220.15 83.4 220.15" fill="#ffffff" fill-rule="evenodd" stroke="none"/>
    <path d="M-87.35 -349.0 L-87.35 -323.25 -107.6 -323.25 -107.6 -328.5 -122.95 -328.5 -122.95 -323.25 -143.85 -323.25 -143.85 -349.0 -87.35 -349.0" fill="#ffffff" fill-rule="evenodd" stroke="none"/>
    <path d="M-122.95 -293.85 L-122.95 -287.45 -143.85 -287.45 -143.85 -293.85 -122.95 -293.85" fill="#ffffff" fill-rule="evenodd" stroke="none"/>
    <path d="M-122.95 -302.8 L-122.95 -296.3 -143.85 -296.3 -143.85 -302.8 -122.95 -302.8" fill="#ffffff" fill-rule="evenodd" stroke="none"/>
    <path d="M-143.85 -311.75 L-122.95 -311.75 -122.95 -305.25 -143.85 -305.25 -143.85 -311.75" fill="#ffffff" fill-rule="evenodd" stroke="none"/>
    <path d="M-143.85 -314.2 L-143.85 -320.6 -122.95 -320.6 -122.95 -314.2 -143.85 -314.2" fill="#ffffff" fill-rule="evenodd" stroke="none"/>
    <path d="M-87.35 -293.85 L-87.35 -287.45 -107.6 -287.45 -107.6 -293.85 -87.35 -293.85" fill="#ffffff" fill-rule="evenodd" stroke="none"/>
    <path d="M-87.35 -302.8 L-87.35 -296.3 -107.6 -296.3 -107.6 -302.8 -87.35 -302.8" fill="#ffffff" fill-rule="evenodd" stroke="none"/>
    <path d="M-87.35 -311.75 L-87.35 -305.25 -107.6 -305.25 -107.6 -311.75 -87.35 -311.75" fill="#ffffff" fill-rule="evenodd" stroke="none"/>
    <path d="M-87.35 -320.6 L-87.35 -314.2 -107.6 -314.2 -107.6 -320.6 -87.35 -320.6" fill="#ffffff" fill-rule="evenodd" stroke="none"/>
    <path d="M-2.3 90.25 L-2.3 69.75 4.15 69.75 4.15 90.25 -2.3 90.25" fill="#ffffff" fill-rule="evenodd" stroke="none"/>
    <path d="M6.65 90.25 L6.65 69.75 13.05 69.75 13.05 90.25 6.65 90.25" fill="#ffffff" fill-rule="evenodd" stroke="none"/>
    <path d="M15.5 90.25 L15.5 69.75 22.0 69.75 22.0 90.25 15.5 90.25" fill="#ffffff" fill-rule="evenodd" stroke="none"/>
    <path d="M24.45 90.25 L24.45 69.75 30.95 69.75 30.95 90.25 24.45 90.25" fill="#ffffff" fill-rule="evenodd" stroke="none"/>
    <path d="M-2.3 55.7 L-2.3 35.25 4.15 35.25 4.15 55.7 -2.3 55.7" fill="#ffffff" fill-rule="evenodd" stroke="none"/>
    <path d="M13.05 35.25 L13.05 55.7 6.65 55.7 6.65 35.25 13.05 35.25" fill="#ffffff" fill-rule="evenodd" stroke="none"/>
    <path d="M15.5 55.7 L15.5 35.25 22.0 35.25 22.0 55.7 15.5 55.7" fill="#ffffff" fill-rule="evenodd" stroke="none"/>
    <path d="M24.45 55.7 L24.45 35.25 30.95 35.25 30.95 55.7 24.45 55.7" fill="#ffffff" fill-rule="evenodd" stroke="none"/>
    <path d="M155.45 237.4 L120.45 237.4 120.45 201.45 155.45 201.45 155.45 237.4" fill="#ffffff" fill-rule="evenodd" stroke="none"/>
    <path d="M106.65 49.45 L106.65 77.45 79.65 77.45 79.65 49.45 106.65 49.45" fill="#ffffff" fill-rule="evenodd" stroke="none"/>
    <path d="M144.9 49.45 L144.9 77.45 117.55 77.45 117.55 49.45 144.9 49.45" fill="#ffffff" fill-rule="evenodd" stroke="none"/>
    <path d="M-43.2 -309.0 L-71.45 -309.0 -71.45 -337.5 -43.2 -337.5 -43.2 -309.0" fill="#ffffff" fill-rule="evenodd" stroke="none"/>
  </g>
</svg>
