<?xml version="1.0" encoding="UTF-8" standalone="no"?>
<svg xmlns:ffdec="https://www.free-decompiler.com/flash" xmlns:xlink="http://www.w3.org/1999/xlink" ffdec:objectType="shape" height="725.2px" width="534.2px" xmlns="http://www.w3.org/2000/svg">
  <g transform="matrix(1.0, 0.0, 0.0, 1.0, 236.0, 322.0)">
    <path d="M-79.75 -322.0 L298.2 -322.0 298.2 403.2 -236.0 403.2 -236.0 -60.75 -79.75 -60.75 -79.75 -322.0" fill="#434343" fill-rule="evenodd" stroke="none"/>
    <path d="M58.15 35.25 L58.15 90.25 55.3 90.25 55.3 91.75 38.65 91.75 38.65 90.25 -24.95 90.25 -24.95 35.25 38.7 35.25 38.7 33.45 55.25 33.45 55.25 35.25 58.15 35.25" fill="#969696" fill-rule="evenodd" stroke="none"/>
    <path d="M-2.3 90.25 L-2.3 69.75 4.15 69.75 4.15 90.25 -2.3 90.25" fill="#ffffff" fill-rule="evenodd" stroke="none"/>
    <path d="M6.65 90.25 L6.65 69.75 13.05 69.75 13.05 90.25 6.65 90.25" fill="#ffffff" fill-rule="evenodd" stroke="none"/>
    <path d="M15.5 90.25 L15.5 69.75 22.0 69.75 22.0 90.25 15.5 90.25" fill="#ffffff" fill-rule="evenodd" stroke="none"/>
    <path d="M24.45 90.25 L24.45 69.75 30.95 69.75 30.95 90.25 24.45 90.25" fill="#ffffff" fill-rule="evenodd" stroke="none"/>
    <path d="M-2.3 55.7 L-2.3 35.25 4.15 35.25 4.15 55.7 -2.3 55.7" fill="#ffffff" fill-rule="evenodd" stroke="none"/>
    <path d="M13.05 35.25 L13.05 55.7 6.65 55.7 6.65 35.25 13.05 35.25" fill="#ffffff" fill-rule="evenodd" stroke="none"/>
    <path d="M15.5 55.7 L15.5 35.25 22.0 35.25 22.0 55.7 15.5 55.7" fill="#ffffff" fill-rule="evenodd" stroke="none"/>
    <path d="M24.45 55.7 L24.45 35.25 30.95 35.25 30.95 55.7 24.45 55.7" fill="#ffffff" fill-rule="evenodd" stroke="none"/>
  </g>
</svg>
