<?xml version="1.0" encoding="UTF-8" standalone="no"?>
<svg xmlns:ffdec="https://www.free-decompiler.com/flash" xmlns:xlink="http://www.w3.org/1999/xlink" ffdec:objectType="shape" height="725.15px" width="534.2px" xmlns="http://www.w3.org/2000/svg">
  <g transform="matrix(1.0, 0.0, 0.0, 1.0, 235.95, 321.95)">
    <path d="M-79.7 -321.95 L298.25 -321.95 298.25 403.2 -235.95 403.2 -235.95 -60.7 -79.7 -60.7 -79.7 -321.95" fill="#434343" fill-rule="evenodd" stroke="none"/>
    <path d="M213.0 -66.55 L213.0 -71.7 211.5 -71.7 211.5 -92.55 213.0 -92.55 213.0 -137.45 263.4 -137.45 263.4 -126.7 264.95 -126.7 264.95 -114.3 263.4 -114.3 263.4 -66.55 259.2 -66.55 259.2 -62.35 263.2 -62.35 263.2 48.9 201.2 48.9 201.2 -62.35 244.5 -62.35 244.5 -66.55 213.0 -66.55" fill="#969696" fill-rule="evenodd" stroke="none"/>
    <path d="M38.75 35.3 L38.75 33.75 40.05 33.75 40.05 32.4 54.05 32.4 54.05 33.75 55.3 33.75 55.3 35.3 58.15 35.3 58.15 90.3 55.4 90.3 55.4 91.8 53.9 91.8 53.9 93.4 40.3 93.4 40.3 91.8 38.7 91.8 38.7 90.3 -24.85 90.3 -24.85 35.3 38.75 35.3" fill="#969696" fill-rule="evenodd" stroke="none"/>
    <path d="M229.95 -3.35 L229.95 3.15 204.95 3.15 204.95 -3.35 229.95 -3.35" fill="#ffffff" fill-rule="evenodd" stroke="none"/>
    <path d="M229.95 -12.25 L229.95 -5.8 204.95 -5.8 204.95 -12.25 229.95 -12.25" fill="#ffffff" fill-rule="evenodd" stroke="none"/>
    <path d="M229.95 -21.2 L229.95 -14.7 204.95 -14.7 204.95 -21.2 229.95 -21.2" fill="#ffffff" fill-rule="evenodd" stroke="none"/>
    <path d="M229.95 -30.1 L229.95 -23.6 204.95 -23.6 204.95 -30.1 229.95 -30.1" fill="#ffffff" fill-rule="evenodd" stroke="none"/>
    <path d="M229.95 14.4 L229.95 20.9 204.95 20.9 204.95 14.4 229.95 14.4" fill="#ffffff" fill-rule="evenodd" stroke="none"/>
    <path d="M229.95 5.5 L229.95 11.95 204.95 11.95 204.95 5.5 229.95 5.5" fill="#ffffff" fill-rule="evenodd" stroke="none"/>
    <path d="M235.2 -3.35 L260.2 -3.35 260.2 3.15 235.2 3.15 235.2 -3.35" fill="#ffffff" fill-rule="evenodd" stroke="none"/>
    <path d="M260.2 -5.8 L235.2 -5.8 235.2 -12.25 260.2 -12.25 260.2 -5.8" fill="#ffffff" fill-rule="evenodd" stroke="none"/>
    <path d="M260.2 -14.7 L235.2 -14.7 235.2 -21.2 260.2 -21.2 260.2 -14.7" fill="#ffffff" fill-rule="evenodd" stroke="none"/>
    <path d="M260.2 -23.6 L235.2 -23.6 235.2 -30.1 260.2 -30.1 260.2 -23.6" fill="#ffffff" fill-rule="evenodd" stroke="none"/>
    <path d="M260.2 20.9 L235.2 20.9 235.2 14.4 260.2 14.4 260.2 20.9" fill="#ffffff" fill-rule="evenodd" stroke="none"/>
    <path d="M260.2 11.95 L235.2 11.95 235.2 5.5 260.2 5.5 260.2 11.95" fill="#ffffff" fill-rule="evenodd" stroke="none"/>
    <path d="M-2.25 90.3 L-2.25 69.8 4.2 69.8 4.2 90.3 -2.25 90.3" fill="#ffffff" fill-rule="evenodd" stroke="none"/>
    <path d="M6.7 90.3 L6.7 69.8 13.15 69.8 13.15 90.3 6.7 90.3" fill="#ffffff" fill-rule="evenodd" stroke="none"/>
    <path d="M15.55 90.3 L15.55 69.8 22.05 69.8 22.05 90.3 15.55 90.3" fill="#ffffff" fill-rule="evenodd" stroke="none"/>
    <path d="M24.5 90.3 L24.5 69.8 31.0 69.8 31.0 90.3 24.5 90.3" fill="#ffffff" fill-rule="evenodd" stroke="none"/>
    <path d="M-2.25 55.75 L-2.25 35.3 4.2 35.3 4.2 55.75 -2.25 55.75" fill="#ffffff" fill-rule="evenodd" stroke="none"/>
    <path d="M13.15 35.3 L13.15 55.75 6.7 55.75 6.7 35.3 13.15 35.3" fill="#ffffff" fill-rule="evenodd" stroke="none"/>
    <path d="M15.55 55.75 L15.55 35.3 22.05 35.3 22.05 55.75 15.55 55.75" fill="#ffffff" fill-rule="evenodd" stroke="none"/>
    <path d="M24.5 55.75 L24.5 35.3 31.0 35.3 31.0 55.75 24.5 55.75" fill="#ffffff" fill-rule="evenodd" stroke="none"/>
  </g>
</svg>
