<?xml version="1.0" encoding="UTF-8" standalone="no"?>
<svg xmlns:ffdec="https://www.free-decompiler.com/flash" xmlns:xlink="http://www.w3.org/1999/xlink" ffdec:objectType="shape" height="725.2px" width="534.2px" xmlns="http://www.w3.org/2000/svg">
  <g transform="matrix(1.0, 0.0, 0.0, 1.0, 236.0, 322.0)">
    <path d="M-79.75 -322.0 L298.2 -322.0 298.2 403.2 -236.0 403.2 -236.0 -60.75 -79.75 -60.75 -79.75 -322.0" fill="#434343" fill-rule="evenodd" stroke="none"/>
    <path d="M157.9 52.3 L162.4 52.3 162.4 48.05 157.9 48.05 157.9 52.3 M122.4 52.3 L122.4 48.05 118.15 48.05 118.15 52.3 122.4 52.3 M122.4 8.8 L118.15 8.8 118.15 12.55 122.4 12.55 122.4 8.8 M161.9 12.55 L161.9 8.8 157.9 8.8 157.9 12.55 161.9 12.55 M197.9 -69.3 L197.9 -62.7 177.65 -62.7 177.65 -59.7 183.9 -59.7 183.9 10.3 178.15 10.3 178.15 12.55 197.9 12.55 197.9 28.05 201.15 28.05 201.15 -62.45 214.25 -62.45 214.25 -65.35 201.9 -65.35 201.9 -69.3 197.9 -69.3 M162.4 -62.7 L157.9 -62.7 157.9 -58.45 162.4 -58.45 162.4 -62.7 M122.4 -62.7 L118.65 -62.7 118.65 -58.45 122.4 -58.45 122.4 -62.7 M122.4 -101.95 L118.65 -101.95 118.65 -97.7 122.4 -97.7 122.4 -101.95 M162.4 -101.95 L157.9 -101.95 157.9 -97.7 162.4 -97.7 162.4 -101.95 M167.9 -137.8 L167.9 -140.95 181.9 -140.95 181.9 -137.8 197.25 -137.8 197.25 -135.3 198.45 -135.3 198.45 -101.95 197.4 -101.95 197.4 -97.7 197.9 -97.7 197.9 -97.3 198.4 -97.3 198.4 -94.6 201.9 -94.6 201.9 -99.45 210.8 -99.45 210.8 -101.05 223.95 -101.05 223.95 -99.45 235.15 -99.45 235.15 -65.35 229.25 -65.35 229.25 -62.45 263.15 -62.45 263.15 48.8 201.15 48.8 201.15 42.05 198.15 42.05 198.15 48.05 197.15 48.05 197.15 77.55 182.15 77.55 182.15 81.3 167.9 81.3 167.9 77.55 93.9 77.55 93.9 -137.8 167.9 -137.8" fill="#969696" fill-rule="evenodd" stroke="none"/>
    <path d="M125.65 16.2 L154.4 16.2 154.4 45.2 125.65 45.2 125.65 16.2" fill="#707070" fill-rule="evenodd" stroke="none"/>
    <path d="M200.9 -62.3 L209.3 -62.3 209.3 9.3 193.8 9.3 193.8 -58.55 200.9 -58.55 200.9 -62.3" fill="#707070" fill-rule="evenodd" stroke="none"/>
    <path d="M232.8 -62.45 L235.15 -62.45 235.15 20.95 232.8 20.95 232.8 -62.45" fill="#707070" fill-rule="evenodd" stroke="none"/>
    <path d="M178.95 -59.8 L184.15 -59.8 184.15 10.3 178.95 10.3 178.95 -59.8" fill="#707070" fill-rule="evenodd" stroke="none"/>
    <path d="M176.05 -39.7 L176.05 -27.05 119.7 -27.05 119.7 -39.7 176.05 -39.7" fill="#707070" fill-rule="evenodd" stroke="none"/>
    <path d="M154.15 -66.8 L125.65 -66.8 125.65 -95.7 154.15 -95.7 154.15 -66.8" fill="#707070" fill-rule="evenodd" stroke="none"/>
    <path d="M191.3 52.7 L197.15 52.7 197.15 77.55 191.3 77.55 191.3 52.7" fill="#707070" fill-rule="evenodd" stroke="none"/>
    <path d="M159.9 60.8 L159.9 77.55 93.9 77.55 93.9 47.95 83.4 47.95 83.4 13.55 97.9 13.55 97.9 60.8 159.9 60.8" fill="#707070" fill-rule="evenodd" stroke="none"/>
    <path d="M83.7 -58.3 L101.3 -58.3 101.3 9.4 83.7 9.4 83.7 -58.3" fill="#707070" fill-rule="evenodd" stroke="none"/>
    <path d="M97.95 -118.95 L97.95 -62.8 83.55 -62.8 83.55 -118.95 97.95 -118.95" fill="#707070" fill-rule="evenodd" stroke="none"/>
    <path d="M93.9 -118.95 L93.9 -137.8 164.8 -137.8 164.8 -118.95 93.9 -118.95" fill="#707070" fill-rule="evenodd" stroke="none"/>
    <path d="M198.45 -135.0 L198.45 -127.05 195.25 -127.05 195.25 -135.0 198.45 -135.0" fill="#707070" fill-rule="evenodd" stroke="none"/>
    <path d="M196.75 -124.75 L198.45 -124.75 198.45 -104.45 196.75 -104.45 196.75 -124.75" fill="#707070" fill-rule="evenodd" stroke="none"/>
    <path d="M127.4 43.05 L127.4 16.2 142.25 16.2 142.25 43.05 127.4 43.05" fill="#ffffff" fill-rule="evenodd" stroke="none"/>
    <path d="M235.15 -3.45 L260.15 -3.45 260.15 3.05 235.15 3.05 235.15 -3.45" fill="#ffffff" fill-rule="evenodd" stroke="none"/>
    <path d="M260.15 -5.85 L235.15 -5.85 235.15 -12.3 260.15 -12.3 260.15 -5.85" fill="#ffffff" fill-rule="evenodd" stroke="none"/>
    <path d="M260.15 -14.75 L235.15 -14.75 235.15 -21.25 260.15 -21.25 260.15 -14.75" fill="#ffffff" fill-rule="evenodd" stroke="none"/>
    <path d="M260.15 -23.7 L235.15 -23.7 235.15 -30.2 260.15 -30.2 260.15 -23.7" fill="#ffffff" fill-rule="evenodd" stroke="none"/>
    <path d="M260.15 20.8 L235.15 20.8 235.15 14.3 260.15 14.3 260.15 20.8" fill="#ffffff" fill-rule="evenodd" stroke="none"/>
    <path d="M260.15 11.9 L235.15 11.9 235.15 5.45 260.15 5.45 260.15 11.9" fill="#ffffff" fill-rule="evenodd" stroke="none"/>
  </g>
</svg>
