<?xml version="1.0" encoding="UTF-8" standalone="no"?>
<svg xmlns:ffdec="https://www.free-decompiler.com/flash" xmlns:xlink="http://www.w3.org/1999/xlink" ffdec:objectType="shape" height="886.1px" width="1599.8px" xmlns="http://www.w3.org/2000/svg">
  <g transform="matrix(1.0, 0.0, 0.0, 1.0, 33.75, -42.05)">
    <path d="M1162.4 335.2 L1170.5 351.15 1189.7 397.45 1194.65 413.25 1211.2 480.65 1218.95 502.45 1232.7 528.15 1245.45 547.5 1264.65 569.55 1276.55 581.3 1282.05 585.15 1566.05 823.05 1478.45 928.15 1378.0 844.55 1372.65 839.4 1239.9 728.9 1234.55 723.9 1168.65 668.25 1157.25 656.5 1145.65 642.8 1116.95 602.7 1108.55 588.75 1100.4 573.0 1094.2 559.4 1081.05 525.7 1076.2 509.95 1059.65 442.8 1054.15 426.65 1037.75 394.8 1029.15 381.05 1025.3 377.25 1010.0 359.25 994.15 342.95 980.95 332.7 961.75 319.3 944.15 309.75 928.05 302.45 902.05 293.9 896.3 293.45 877.5 289.75 841.65 287.7 575.65 287.7 575.65 392.5 -33.75 392.5 -33.75 42.05 575.65 42.05 575.65 150.4 863.05 150.55 897.7 153.4 915.15 156.3 946.05 163.75 946.4 163.9 979.05 174.4 995.2 181.15 1033.05 201.5 1062.7 221.7 1075.25 231.4 1101.9 255.55 1102.15 255.9 1124.05 279.55 1154.05 321.15 1162.4 335.2" fill="#434343" fill-rule="evenodd" stroke="none"/>
    <path d="M147.3 270.3 L147.3 283.8 167.75 283.8 167.75 270.3 147.3 270.3 M256.25 283.8 L256.25 270.3 237.3 270.3 237.3 283.8 256.25 283.8 M256.25 166.4 L256.25 153.55 237.3 153.55 237.3 166.4 256.25 166.4 M147.3 153.55 L147.3 166.4 167.75 166.4 167.75 153.55 147.3 153.55 M346.25 283.8 L346.25 270.3 327.25 270.3 327.25 283.8 346.25 283.8 M436.9 247.55 L427.25 247.55 427.25 270.3 417.9 270.3 417.9 283.8 427.25 283.8 427.25 334.55 430.3 334.55 430.3 281.7 498.55 281.7 498.55 278.3 436.9 278.3 436.9 247.55 M346.25 166.4 L346.25 153.55 327.25 153.55 327.25 166.4 346.25 166.4 M1139.25 330.4 L1146.9 343.4 1154.55 358.4 1160.25 371.05 1146.7 377.25 1147.5 379.55 1149.5 383.3 1150.5 386.55 1164.25 380.8 1173.15 403.05 1177.65 417.5 1181.7 433.8 1184.4 447.45 1169.65 450.45 1171.55 458.8 1186.75 455.75 1194.45 485.65 1200.5 503.5 1186.15 509.45 1189.15 516.3 1203.05 509.8 1217.65 537.0 1227.75 552.95 1215.7 561.75 1220.0 567.45 1231.7 558.4 1251.95 581.65 1265.4 594.9 1256.0 605.7 1262.0 610.4 1271.5 599.05 1311.5 632.55 1302.0 643.95 1307.8 648.8 1317.25 637.55 1357.25 671.05 1347.75 682.45 1354.0 687.65 1363.55 676.25 1403.55 709.75 1393.95 721.25 1399.8 726.2 1409.55 714.55 1449.55 748.05 1439.75 759.8 1445.75 764.8 1455.45 753.25 1495.45 786.75 1485.7 798.45 1491.65 803.45 1501.45 791.75 1541.45 825.25 1531.65 837.05 1533.5 838.55 1487.05 893.8 1485.5 892.4 1476.2 903.5 1435.7 870.0 1445.3 858.55 1439.65 853.75 1430.2 865.0 1389.7 831.5 1399.45 819.95 1393.7 815.15 1384.3 826.3 1343.8 792.8 1353.5 781.3 1347.8 776.55 1338.3 788.0 1297.8 754.5 1307.65 742.8 1301.65 737.75 1292.0 749.3 1251.5 715.8 1261.45 703.95 1255.9 699.25 1246.25 710.8 1205.75 677.3 1215.4 665.9 1209.05 659.8 1198.7 671.75 1180.9 655.75 1170.4 644.9 1159.45 632.05 1151.0 621.05 1163.7 611.2 1160.5 607.8 1157.7 604.05 1145.55 612.95 1131.75 593.4 1124.0 580.45 1116.2 565.5 1110.45 552.9 1124.9 546.15 1122.0 541.55 1119.95 536.8 1106.5 542.4 1097.7 520.15 1093.2 505.7 1089.15 489.4 1086.5 475.75 1100.8 472.9 1100.75 472.3 1098.9 464.7 1084.2 467.65 1076.4 437.75 1070.3 419.95 1084.05 414.2 1083.25 411.55 1081.75 408.3 1081.05 407.15 1067.25 413.4 1052.9 386.05 1042.9 370.05 1054.3 361.9 1050.45 355.95 1038.25 365.4 1029.25 354.4 1014.25 338.4 1009.65 333.55 Q1004.9 328.75 1004.25 328.75 1003.9 328.75 1013.7 317.5 L1008.7 313.3 999.25 325.05 991.55 318.75 970.9 304.4 958.25 297.4 964.95 284.5 958.15 280.95 951.95 294.05 934.5 286.2 926.65 283.25 905.55 276.65 909.05 262.9 907.0 262.05 902.0 260.8 898.7 276.05 879.9 272.4 849.55 269.75 849.8 254.05 841.9 254.05 841.9 270.2 789.55 270.2 789.55 254.05 782.25 254.05 782.25 270.2 729.9 270.2 729.9 254.05 722.55 254.05 722.55 270.2 670.25 270.2 670.25 254.05 662.55 254.05 662.55 270.2 610.25 270.2 610.25 254.05 602.25 254.05 602.25 270.2 549.9 270.2 549.9 254.05 545.9 254.05 545.9 247.55 541.0 247.55 541.0 278.3 511.9 278.3 511.9 281.7 536.15 281.7 536.15 330.45 524.15 330.45 524.15 331.8 509.0 331.8 509.0 330.45 473.9 330.45 473.9 311.3 464.5 311.3 464.5 313.05 470.0 313.05 470.0 355.8 464.5 355.8 464.5 365.8 430.3 365.8 430.3 348.05 427.25 348.05 427.25 350.8 417.9 350.8 417.9 359.55 407.55 359.55 407.55 366.15 356.75 366.15 356.75 359.55 346.25 359.55 346.25 350.8 327.25 350.8 327.25 359.55 317.55 359.55 317.55 366.15 266.75 366.15 266.75 359.55 256.25 359.55 256.25 350.8 237.3 350.8 237.3 359.55 227.55 359.55 227.55 366.15 176.75 366.15 176.75 359.55 167.75 359.55 167.75 350.8 147.3 350.8 147.3 360.15 77.75 360.15 77.75 350.8 67.25 350.8 67.25 283.8 77.75 283.8 77.75 270.3 67.25 270.3 67.25 246.5 95.95 246.5 95.95 242.8 24.25 242.8 24.25 199.7 112.4 199.7 112.4 242.8 109.3 242.8 109.3 246.5 162.5 246.5 162.5 229.65 155.45 229.65 155.45 208.7 162.5 208.7 162.5 190.05 67.25 190.05 67.25 166.4 77.75 166.4 77.75 153.55 67.25 153.55 67.25 86.55 77.75 86.55 77.75 77.4 147.3 77.4 147.3 86.55 167.75 86.55 167.75 77.4 176.75 77.4 176.75 70.8 227.55 70.8 227.55 77.4 237.3 77.4 237.3 86.55 256.25 86.55 256.25 77.4 266.75 77.4 266.75 70.8 317.55 70.8 317.55 77.4 327.25 77.4 327.25 86.55 346.25 86.55 346.25 77.4 356.75 77.4 356.75 70.8 407.55 70.8 407.55 77.4 417.9 77.4 417.9 86.55 427.25 86.55 427.25 153.55 417.9 153.55 417.9 166.4 427.25 166.4 427.25 189.5 436.9 189.5 436.9 159.0 541.0 159.0 541.0 189.5 545.9 189.5 545.9 183.45 549.9 183.45 549.9 167.9 602.25 167.9 602.25 183.45 610.25 183.45 610.25 167.9 662.55 167.9 662.55 183.45 670.25 183.45 670.25 167.9 722.55 167.9 722.55 183.45 729.9 183.45 729.9 167.9 782.25 167.9 782.25 183.45 789.55 183.45 789.55 167.9 841.9 167.9 841.9 183.45 851.0 183.45 851.25 168.05 862.25 168.05 879.25 169.05 895.25 170.75 911.25 173.4 920.25 175.75 917.05 190.5 926.7 193.05 930.5 178.05 941.2 180.55 957.5 185.45 972.7 190.7 987.7 197.0 995.9 201.3 989.0 215.8 998.25 220.5 1005.55 206.4 1023.9 216.4 1052.25 235.75 1063.9 244.75 1054.05 256.95 1058.55 260.05 1061.55 263.3 1071.55 252.05 1089.55 268.05 1110.55 290.75 1119.55 302.4 1107.25 311.95 1113.0 319.75 1125.55 310.75 1139.25 330.4" fill="#969696" fill-rule="evenodd" stroke="none"/>
    <path d="M485.25 281.7 L485.25 290.55 438.9 290.55 438.9 331.75 430.3 331.75 430.3 281.7 485.25 281.7" fill="#707070" fill-rule="evenodd" stroke="none"/>
    <path d="M470.0 313.05 L470.0 355.8 461.4 355.8 461.4 313.05 470.0 313.05" fill="#707070" fill-rule="evenodd" stroke="none"/>
    <path d="M500.05 311.4 L500.05 324.25 503.25 324.25 503.25 330.45 473.9 330.45 473.9 311.4 500.05 311.4" fill="#707070" fill-rule="evenodd" stroke="none"/>
    <path d="M529.75 284.4 L536.15 284.4 536.15 320.25 529.75 320.25 529.75 284.4" fill="#707070" fill-rule="evenodd" stroke="none"/>
    <path d="M120.45 201.45 L155.45 201.45 155.45 237.4 120.45 237.4 120.45 201.45" fill="#ffffff" fill-rule="evenodd" stroke="none"/>
    <path d="M47.7 242.65 L47.7 222.75 54.15 222.75 54.15 242.65 47.7 242.65" fill="#ffffff" fill-rule="evenodd" stroke="none"/>
    <path d="M63.05 222.75 L63.05 242.65 56.65 242.65 56.65 222.75 63.05 222.75" fill="#ffffff" fill-rule="evenodd" stroke="none"/>
    <path d="M65.5 242.65 L65.5 222.75 72.0 222.75 72.0 242.65 65.5 242.65" fill="#ffffff" fill-rule="evenodd" stroke="none"/>
    <path d="M74.45 242.65 L74.45 222.75 80.95 222.75 80.95 242.65 74.45 242.65" fill="#ffffff" fill-rule="evenodd" stroke="none"/>
    <path d="M83.4 242.65 L83.4 222.75 89.8 222.75 89.8 242.65 83.4 242.65" fill="#ffffff" fill-rule="evenodd" stroke="none"/>
    <path d="M47.7 220.15 L47.7 199.75 54.15 199.75 54.15 220.15 47.7 220.15" fill="#ffffff" fill-rule="evenodd" stroke="none"/>
    <path d="M63.05 199.75 L63.05 220.15 56.65 220.15 56.65 199.75 63.05 199.75" fill="#ffffff" fill-rule="evenodd" stroke="none"/>
    <path d="M65.5 220.15 L65.5 199.75 72.0 199.75 72.0 220.15 65.5 220.15" fill="#ffffff" fill-rule="evenodd" stroke="none"/>
    <path d="M74.45 220.15 L74.45 199.75 80.95 199.75 80.95 220.15 74.45 220.15" fill="#ffffff" fill-rule="evenodd" stroke="none"/>
    <path d="M83.4 220.15 L83.4 199.75 89.8 199.75 89.8 220.15 83.4 220.15" fill="#ffffff" fill-rule="evenodd" stroke="none"/>
  </g>
</svg>
