<?xml version="1.0" encoding="UTF-8" standalone="no"?>
<svg xmlns:ffdec="https://www.free-decompiler.com/flash" xmlns:xlink="http://www.w3.org/1999/xlink" ffdec:objectType="shape" height="380.55px" width="181.5px" xmlns="http://www.w3.org/2000/svg">
  <g transform="matrix(1.0, 0.0, 0.0, 1.0, 109.15, 38.5)">
    <path d="M-107.15 329.55 L-107.15 181.5 -107.65 181.5 -107.65 180.5 -108.65 180.5 Q-108.65 71.0 -109.15 -38.5 L72.35 -38.5 72.35 34.5 66.85 34.5 66.85 175.0 69.85 175.0 69.85 187.5 70.85 187.5 70.85 189.0 69.85 189.0 69.85 341.55 8.35 341.55 8.35 342.05 -1.65 342.05 -2.15 341.55 -47.65 341.55 -47.65 329.55 -107.15 329.55" fill="#424242" fill-rule="evenodd" stroke="none"/>
    <path d="M26.85 29.5 L64.85 29.5 64.85 53.0 62.85 53.0 62.85 57.0 49.35 57.0 49.35 53.0 44.35 53.0 44.35 155.5 46.35 155.5 46.35 113.0 64.35 113.0 64.35 181.5 26.85 181.5 26.85 29.5" fill="#6f6f6f" fill-rule="evenodd" stroke="none"/>
    <path d="M-15.15 -31.5 L18.35 -31.5 18.35 -30.0 24.35 -30.0 24.35 -0.5 25.85 -0.5 25.85 -30.0 31.85 -30.0 31.85 -31.5 64.85 -31.5 64.85 -30.0 66.35 -30.0 66.35 7.5 65.85 7.5 65.85 28.5 53.35 28.5 53.35 29.5 40.35 29.5 40.35 28.5 13.35 28.5 13.35 30.0 0.35 30.0 0.35 28.5 -26.65 28.5 -26.65 26.5 -27.65 26.5 -27.65 13.5 -26.65 13.5 -26.65 11.5 0.35 11.5 0.35 9.0 -26.15 9.0 -26.15 -2.0 Q-25.15 -5.5 -24.65 -9.5 -25.15 -13.5 -26.15 -18.0 L-26.15 -30.0 -15.15 -30.0 -15.15 -31.5" fill="#959595" fill-rule="evenodd" stroke="none"/>
    <path d="M14.85 -24.0 L24.35 -24.0 24.35 0.0 14.85 0.0 14.85 -24.0" fill="#6f6f6f" fill-rule="evenodd" stroke="none"/>
    <path d="M19.85 6.0 L19.85 1.0 24.35 1.0 24.35 6.0 19.85 6.0" fill="#6f6f6f" fill-rule="evenodd" stroke="none"/>
    <path d="M-4.15 -10.5 L-4.15 -22.0 7.35 -22.0 7.35 -10.5 -4.15 -10.5" fill="#6f6f6f" fill-rule="evenodd" stroke="none"/>
    <path d="M-16.65 -28.5 L-11.15 -25.0 -18.15 -13.5 -23.65 -17.0 -16.65 -28.5 M-26.15 -18.0 L-23.65 -18.0 -23.65 -17.0 -23.65 -1.5 -26.15 -1.5 -26.15 -18.0" fill="#6f6f6f" fill-rule="evenodd" stroke="none"/>
    <path d="M-5.15 8.5 L-5.15 3.0 0.35 3.0 0.35 8.5 -5.15 8.5" fill="#6f6f6f" fill-rule="evenodd" stroke="none"/>
    <path d="M-14.65 -0.5 Q-10.65 -1.0 -7.15 -2.0 L-6.15 3.5 Q-6.65 5.0 -7.65 6.5 L-10.65 7.0 -13.65 5.0 -14.65 -0.5" fill="#6f6f6f" fill-rule="evenodd" stroke="none"/>
    <path d="M57.35 -22.5 L30.85 -22.5 30.85 -15.0 25.85 -15.0 25.85 -30.0 64.85 -30.0 64.85 -3.0 57.35 -3.0 57.35 -22.5" fill="#6f6f6f" fill-rule="evenodd" stroke="none"/>
    <path d="M52.35 -2.5 L64.85 -2.5 64.85 7.0 52.35 7.0 50.85 5.0 50.85 -1.0 Q51.85 -1.5 52.35 -2.5" fill="#6f6f6f" fill-rule="evenodd" stroke="none"/>
    <path d="M57.35 15.0 L57.35 7.5 65.85 7.5 65.85 15.0 57.35 15.0" fill="#6f6f6f" fill-rule="evenodd" stroke="none"/>
    <path d="M57.85 23.5 L57.85 16.0 65.85 16.0 65.85 23.5 57.85 23.5" fill="#6f6f6f" fill-rule="evenodd" stroke="none"/>
    <path d="M53.85 29.5 L40.35 29.5 40.35 27.0 53.85 27.0 53.85 29.5" fill="#ffffff" fill-rule="evenodd" stroke="none"/>
  </g>
</svg>
