<?xml version="1.0" encoding="UTF-8" standalone="no"?>
<svg xmlns:ffdec="https://www.free-decompiler.com/flash" xmlns:xlink="http://www.w3.org/1999/xlink" ffdec:objectType="shape" height="400.0px" width="244.0px" xmlns="http://www.w3.org/2000/svg">
  <g transform="matrix(1.0, 0.0, 0.0, 1.0, 0.0, 0.0)">
    <path d="M0.0 384.0 L0.45 0.0 244.0 0.0 244.0 384.0 244.0 389.0 244.0 400.0 0.0 400.0 0.0 389.0 0.0 384.0" fill="#f3f3f3" fill-rule="evenodd" stroke="none"/>
    <path d="M244.0 387.95 L244.0 399.95 0.0 399.95 0.0 387.95 244.0 387.95" fill="#cf2037" fill-rule="evenodd" stroke="none"/>
    <path d="M0.0 344.7 L244.0 344.7 244.0 348.7 0.0 348.7 0.0 344.7" fill="#cf2037" fill-rule="evenodd" stroke="none"/>
    <path d="M0.0 288.3 L244.0 288.3 244.0 292.3 0.0 292.3 0.0 288.3" fill="#cf2037" fill-rule="evenodd" stroke="none"/>
    <path d="M0.0 213.5 L244.0 213.5 244.0 217.5 0.0 217.5 0.0 213.5" fill="#cf2037" fill-rule="evenodd" stroke="none"/>
    <path d="M244.0 177.5 L0.0 177.5 0.0 173.5 244.0 173.5 244.0 177.5" fill="#cf2037" fill-rule="evenodd" stroke="none"/>
    <path d="M244.0 137.5 L0.0 137.5 0.0 133.5 244.0 133.5 244.0 137.5" fill="#cf2037" fill-rule="evenodd" stroke="none"/>
    <path d="M244.0 97.5 L0.0 97.5 0.0 93.5 244.0 93.5 244.0 97.5" fill="#cf2037" fill-rule="evenodd" stroke="none"/>
  </g>
</svg>
