<?xml version="1.0" encoding="UTF-8" standalone="no"?>
<svg xmlns:ffdec="https://www.free-decompiler.com/flash" xmlns:xlink="http://www.w3.org/1999/xlink" ffdec:objectType="shape" height="146.4px" width="146.45px" xmlns="http://www.w3.org/2000/svg">
  <g transform="matrix(1.0, 0.0, 0.0, 1.0, 73.2, 73.2)">
    <path d="M58.05 -29.6 L69.7 -22.65 64.35 -10.2 73.25 0.0 64.35 10.15 69.7 22.6 58.05 29.55 59.3 43.05 46.05 46.0 43.1 59.25 29.6 58.0 22.65 69.65 10.2 64.3 0.05 73.2 -10.15 64.3 -22.6 69.65 -29.55 58.0 -43.05 59.25 -46.0 46.0 -59.25 43.05 -58.0 29.55 -69.65 22.6 -64.3 10.15 -73.2 0.0 -64.3 -10.2 -69.65 -22.65 -58.0 -29.6 -59.25 -43.1 -46.0 -46.05 -43.05 -59.25 -29.55 -58.0 -22.6 -69.65 -10.15 -64.3 0.05 -73.2 10.2 -64.3 22.65 -69.65 29.6 -58.0 43.1 -59.25 46.05 -46.05 59.3 -43.1 58.05 -29.6" fill="#ffffff" fill-rule="evenodd" stroke="none"/>
  </g>
</svg>
