<?xml version="1.0" encoding="UTF-8" standalone="no"?>
<svg xmlns:ffdec="https://www.free-decompiler.com/flash" xmlns:xlink="http://www.w3.org/1999/xlink" ffdec:objectType="shape" height="1480.0px" width="1280.0px" xmlns="http://www.w3.org/2000/svg">
  <g transform="matrix(1.0, 0.0, 0.0, 1.0, 0.0, 0.0)">
    <path d="M1280.0 0.0 L1280.0 7.85 1280.0 81.6 1280.0 82.15 1280.0 92.0 1280.0 806.25 1280.0 1479.95 0.0 1480.0 0.0 806.2 0.0 739.4 0.0 721.6 0.0 532.15 0.0 528.5 0.0 378.75 0.0 92.0 0.0 82.1 0.0 81.6 0.0 7.85 0.0 0.0 1280.0 0.0" fill="#ffffff" fill-rule="evenodd" stroke="none"/>
    <path d="M1280.0 0.0 L1280.0 13.5 1280.0 120.3 1280.0 121.2 1280.0 140.0 0.0 140.0 0.0 121.2 0.0 120.3 0.0 13.45 0.0 0.0 1280.0 0.0" fill="#f3f3f3" fill-rule="evenodd" stroke="none"/>
  </g>
</svg>
