<?xml version="1.0" encoding="UTF-8" standalone="no"?>
<svg xmlns:ffdec="https://www.free-decompiler.com/flash" xmlns:xlink="http://www.w3.org/1999/xlink" ffdec:objectType="shape" height="39.35px" width="39.35px" xmlns="http://www.w3.org/2000/svg">
  <g transform="matrix(1.0, 0.0, 0.0, 1.0, 19.65, 19.2)">
    <path d="M9.15 -7.35 L9.15 -6.5 8.45 1.9 6.15 2.05 3.65 -10.2 5.55 -10.3 7.2 -0.25 7.25 -0.25 8.1 -10.45 9.95 -10.55 11.95 -0.5 12.5 -10.7 14.4 -10.8 13.25 1.65 10.95 1.75 9.2 -7.35 9.15 -7.35 M0.6 -8.55 L0.8 -4.8 3.25 -4.95 3.35 -3.45 0.9 -3.3 1.1 0.85 3.9 0.7 4.0 2.15 -0.65 2.4 -1.35 -9.95 3.3 -10.2 3.4 -8.7 0.6 -8.55 M7.75 2.6 L7.95 12.35 6.75 12.4 5.9 2.7 7.75 2.6 M1.4 5.2 L0.3 5.25 0.55 9.8 1.65 9.75 Q2.25 9.75 2.55 9.35 L2.75 8.4 2.65 6.4 2.3 5.45 Q2.0 5.15 1.4 5.2 M2.7 3.8 L3.7 4.3 4.25 5.1 4.5 6.2 4.6 8.4 Q4.7 9.6 4.0 10.4 3.45 11.1 1.75 11.25 L0.65 11.3 0.9 16.1 -0.95 16.2 -1.65 3.85 1.35 3.7 2.7 3.8 M6.4 13.9 L8.45 13.8 8.6 15.7 6.5 15.8 6.4 13.9 M-13.3 -7.95 Q-14.4 -7.85 -14.35 -6.6 L-13.95 0.5 Q-13.85 1.75 -12.75 1.75 -11.7 1.7 -11.8 0.4 L-11.85 -0.9 -10.0 -1.0 -9.9 0.4 Q-9.85 1.6 -10.55 2.4 -11.25 3.15 -12.7 3.2 -14.1 3.25 -14.95 2.65 -15.75 1.95 -15.8 0.75 L-16.2 -6.6 Q-16.25 -7.85 -15.55 -8.6 -14.8 -9.3 -13.4 -9.4 -11.9 -9.5 -11.15 -8.85 -10.35 -8.15 -10.3 -6.95 L-10.25 -5.55 -12.1 -5.45 -12.2 -6.75 Q-12.2 -8.05 -13.3 -7.95 M-3.7 -9.05 L-3.1 -8.25 -2.9 -7.15 -2.8 -5.5 Q-2.75 -4.9 -3.05 -4.35 L-3.85 -3.65 -2.95 -2.95 Q-2.6 -2.35 -2.6 -1.75 L-2.45 1.1 -2.35 1.85 -2.1 2.5 -4.0 2.6 -4.2 2.1 -4.3 1.35 -4.45 -1.55 Q-4.45 -2.1 -4.8 -2.45 -5.1 -2.8 -5.7 -2.75 L-6.7 -2.7 -6.4 2.7 -8.3 2.85 -8.95 -9.5 -6.05 -9.65 -4.65 -9.55 Q-4.0 -9.35 -3.7 -9.05 M-6.0 -8.2 L-7.0 -8.15 -6.8 -4.05 -5.75 -4.15 Q-5.25 -4.15 -4.9 -4.5 -4.65 -4.8 -4.65 -5.45 L-4.75 -7.0 Q-4.75 -7.55 -5.1 -7.9 -5.4 -8.2 -6.0 -8.2 M-7.55 4.15 L-7.0 13.9 -6.65 14.85 -5.8 15.1 Q-5.3 15.1 -5.0 14.75 -4.75 14.5 -4.75 13.8 L-5.3 4.05 -3.4 3.95 -2.9 13.8 Q-2.8 15.1 -3.55 15.8 -4.35 16.55 -5.7 16.6 -7.1 16.65 -7.95 16.05 -8.8 15.4 -8.9 14.1 L-9.4 4.25 -7.55 4.15" fill="#15080d" fill-rule="evenodd" stroke="none"/>
    <path d="M0.6 -8.55 L3.4 -8.7 3.3 -10.2 -1.35 -9.95 -0.65 2.4 4.0 2.15 3.9 0.7 1.1 0.85 0.9 -3.3 3.35 -3.45 3.25 -4.95 0.8 -4.8 0.6 -8.55 M9.15 -7.35 L9.2 -7.35 10.95 1.75 13.25 1.65 14.4 -10.8 12.5 -10.7 11.95 -0.5 9.95 -10.55 8.1 -10.45 7.25 -0.25 7.2 -0.25 5.55 -10.3 3.65 -10.2 6.15 2.05 8.45 1.9 9.15 -6.5 9.15 -7.35 M13.95 -13.45 Q19.7 -7.65 19.7 0.5 19.7 8.65 13.95 14.4 8.15 20.15 0.0 20.15 -8.15 20.15 -13.9 14.4 -19.65 8.65 -19.65 0.5 -19.65 -7.65 -13.9 -13.45 -8.15 -19.2 0.0 -19.2 8.2 -19.2 13.95 -13.45 M-7.55 4.15 L-9.4 4.25 -8.9 14.1 Q-8.8 15.4 -7.95 16.05 -7.1 16.65 -5.7 16.6 -4.35 16.55 -3.55 15.8 -2.8 15.1 -2.9 13.8 L-3.4 3.95 -5.3 4.05 -4.75 13.8 Q-4.75 14.5 -5.0 14.75 -5.3 15.1 -5.8 15.1 L-6.65 14.85 -7.0 13.9 -7.55 4.15 M-6.0 -8.2 Q-5.4 -8.2 -5.1 -7.9 -4.75 -7.55 -4.75 -7.0 L-4.65 -5.45 Q-4.65 -4.8 -4.9 -4.5 -5.25 -4.15 -5.75 -4.15 L-6.8 -4.05 -7.0 -8.15 -6.0 -8.2 M-3.7 -9.05 Q-4.0 -9.35 -4.65 -9.55 L-6.05 -9.65 -8.95 -9.5 -8.3 2.85 -6.4 2.7 -6.7 -2.7 -5.7 -2.75 Q-5.1 -2.8 -4.8 -2.45 -4.45 -2.1 -4.45 -1.55 L-4.3 1.35 -4.2 2.1 -4.0 2.6 -2.1 2.5 -2.35 1.85 -2.45 1.1 -2.6 -1.75 Q-2.6 -2.35 -2.95 -2.95 L-3.85 -3.65 -3.05 -4.35 Q-2.75 -4.9 -2.8 -5.5 L-2.9 -7.15 -3.1 -8.25 -3.7 -9.05 M-13.3 -7.95 Q-12.2 -8.05 -12.2 -6.75 L-12.1 -5.45 -10.25 -5.55 -10.3 -6.95 Q-10.35 -8.15 -11.15 -8.85 -11.9 -9.5 -13.4 -9.4 -14.8 -9.3 -15.55 -8.6 -16.25 -7.85 -16.2 -6.6 L-15.8 0.75 Q-15.75 1.95 -14.95 2.65 -14.1 3.25 -12.7 3.2 -11.25 3.15 -10.55 2.4 -9.85 1.6 -9.9 0.4 L-10.0 -1.0 -11.85 -0.9 -11.8 0.4 Q-11.7 1.7 -12.75 1.75 -13.85 1.75 -13.95 0.5 L-14.35 -6.6 Q-14.4 -7.85 -13.3 -7.95 M6.4 13.9 L6.5 15.8 8.6 15.7 8.45 13.8 6.4 13.9 M2.7 3.8 L1.35 3.7 -1.65 3.85 -0.95 16.2 0.9 16.1 0.65 11.3 1.75 11.25 Q3.45 11.1 4.0 10.4 4.7 9.6 4.6 8.4 L4.5 6.2 4.25 5.1 3.7 4.3 2.7 3.8 M1.4 5.2 Q2.0 5.15 2.3 5.45 L2.65 6.4 2.75 8.4 2.55 9.35 Q2.25 9.75 1.65 9.75 L0.55 9.8 0.3 5.25 1.4 5.2 M7.75 2.6 L5.9 2.7 6.75 12.4 7.95 12.35 7.75 2.6" fill="#ffffff" fill-rule="evenodd" stroke="none"/>
  </g>
</svg>
