<?xml version="1.0" encoding="UTF-8" standalone="no"?>
<svg xmlns:ffdec="https://www.free-decompiler.com/flash" xmlns:xlink="http://www.w3.org/1999/xlink" ffdec:objectType="shape" height="24.5px" width="24.5px" xmlns="http://www.w3.org/2000/svg">
  <g transform="matrix(1.0, 0.0, 0.0, 1.0, 12.25, 12.25)">
    <path d="M-5.2 9.4 Q-5.9 7.25 -6.2 4.6 L-9.75 4.6 Q-8.2 7.75 -5.2 9.4 M-5.35 -9.35 L-5.3 -9.45 Q-8.3 -7.7 -9.8 -4.55 L-6.25 -4.55 Q-6.0 -7.2 -5.35 -9.35 M-10.35 -2.9 L-10.55 -0.15 -10.25 2.9 -6.4 2.9 -6.55 -0.15 -6.45 -2.9 -10.35 -2.9 M3.05 10.35 L3.1 10.25 Q4.15 8.0 4.55 4.6 L-4.55 4.6 Q-4.1 8.05 -3.05 10.3 L-3.05 10.35 -0.85 10.75 0.85 10.75 1.65 10.65 3.05 10.35 M9.8 4.6 L6.2 4.6 Q5.95 7.2 5.25 9.35 L5.2 9.45 Q8.3 7.75 9.8 4.6 M0.0 -12.25 Q5.05 -12.25 8.65 -8.7 12.25 -5.1 12.25 0.0 12.25 5.05 8.65 8.65 5.05 12.25 0.0 12.25 -5.1 12.25 -8.7 8.65 -12.25 5.05 -12.25 0.0 -12.25 -5.1 -8.7 -8.7 -5.1 -12.25 0.0 -12.25 M6.45 -2.9 L6.55 -0.15 6.4 2.9 10.3 2.9 10.55 -0.15 10.35 -2.9 6.45 -2.9 M4.85 -0.15 L4.75 -2.9 -4.75 -2.9 -4.85 -0.15 -4.75 2.9 4.75 2.9 4.85 -0.15 M3.25 -10.3 L3.2 -10.35 0.85 -10.8 -0.85 -10.8 -3.2 -10.35 -3.2 -10.3 Q-4.2 -8.0 -4.6 -4.55 L4.6 -4.55 Q4.2 -8.0 3.25 -10.3 M5.3 -9.45 L5.35 -9.35 6.25 -4.55 9.85 -4.55 Q8.35 -7.75 5.3 -9.45" fill="#ffffff" fill-opacity="0.69411767" fill-rule="evenodd" stroke="none"/>
  </g>
</svg>
