<?xml version="1.0" encoding="UTF-8" standalone="no"?>
<svg xmlns:ffdec="https://www.free-decompiler.com/flash" xmlns:xlink="http://www.w3.org/1999/xlink" ffdec:objectType="shape" height="17.65px" width="13.1px" xmlns="http://www.w3.org/2000/svg">
  <g transform="matrix(1.0, 0.0, 0.0, 1.0, 6.55, 8.8)">
    <path d="M3.75 -2.3 Q3.75 -3.85 2.65 -4.95 1.55 -6.05 0.0 -6.05 -1.55 -6.05 -2.7 -4.95 -3.8 -3.85 -3.8 -2.3 -3.8 -0.7 -2.7 0.4 -1.55 1.5 0.0 1.5 1.55 1.5 2.65 0.4 3.75 -0.7 3.75 -2.3 M0.0 -8.8 Q2.35 -8.8 4.15 -7.35 5.9 -5.9 6.4 -3.65 L6.4 -3.6 6.45 -3.4 6.45 -3.35 6.55 -2.4 6.55 -2.3 Q6.55 -1.05 6.1 0.05 3.7 4.4 0.0 8.85 -3.7 4.4 -6.15 0.05 -6.55 -1.15 -6.55 -2.3 L-6.5 -3.4 -6.4 -3.6 -6.4 -3.65 Q-5.95 -5.9 -4.15 -7.35 -2.35 -8.8 0.0 -8.8" fill="#f5f5f5" fill-rule="evenodd" stroke="none"/>
  </g>
</svg>
