<?xml version="1.0" encoding="UTF-8" standalone="no"?>
<svg xmlns:ffdec="https://www.free-decompiler.com/flash" xmlns:xlink="http://www.w3.org/1999/xlink" ffdec:objectType="shape" height="65.0px" width="91.95px" xmlns="http://www.w3.org/2000/svg">
  <g transform="matrix(1.0, 0.0, 0.0, 1.0, -0.05, -9.0)">
    <path d="M31.4 41.95 L30.75 47.3 30.35 51.45 Q30.0 55.55 29.9 59.9 L68.5 64.0 Q69.75 57.2 70.3 51.55 L71.1 40.35 32.3 36.25 31.4 41.95 M9.45 33.8 Q8.1 39.1 7.5 44.85 6.8 50.9 7.2 57.5 L23.0 59.15 23.4 51.45 23.85 46.6 24.4 41.95 25.4 35.5 9.45 33.8 M32.85 9.25 Q26.5 12.05 21.25 16.6 16.0 21.2 12.45 27.15 L12.5 27.15 26.8 28.7 Q29.15 18.25 32.8 9.45 L32.85 9.25 M92.0 35.65 L92.0 42.6 78.0 41.1 77.2 52.25 Q76.5 58.8 75.35 64.75 L91.2 66.4 92.0 63.3 92.0 74.0 87.85 74.0 88.4 73.1 73.9 71.55 73.3 74.0 66.2 74.0 67.0 70.8 29.9 66.85 30.3 74.0 23.4 74.0 23.0 66.15 8.65 64.6 8.6 64.6 Q10.35 69.55 13.2 74.0 L6.1 74.0 Q-1.35 60.7 0.35 44.65 2.55 23.95 18.75 10.85 L21.2 9.0 40.55 9.0 Q36.4 17.65 33.7 29.4 L71.2 33.4 Q71.0 19.65 68.1 9.5 L68.0 9.2 67.55 9.0 79.7 9.0 Q85.05 12.9 89.5 18.4 L92.0 21.75 92.0 34.3 Q89.8 28.5 86.05 23.45 81.9 17.85 76.2 13.8 L76.3 14.2 Q77.95 23.35 78.1 34.15 L92.0 35.65" fill="#000000" fill-rule="evenodd" stroke="none"/>
  </g>
</svg>
