<?xml version="1.0" encoding="UTF-8" standalone="no"?>
<svg xmlns:ffdec="https://www.free-decompiler.com/flash" xmlns:xlink="http://www.w3.org/1999/xlink" ffdec:objectType="shape" height="54.8px" width="59.8px" xmlns="http://www.w3.org/2000/svg">
  <g transform="matrix(1.0, 0.0, 0.0, 1.0, 0.0, 0.0)">
    <path d="M49.5 21.45 Q50.2 20.75 49.95 19.7 L49.3 18.85 Q48.75 18.4 47.4 18.45 L37.1 19.0 36.6 18.9 36.65 17.5 36.85 14.65 37.0 11.8 37.05 10.55 Q37.05 8.65 35.75 8.2 34.7 7.95 34.0 8.6 L33.05 9.75 26.95 18.4 26.45 19.0 Q25.95 19.45 25.2 19.55 L14.3 20.15 14.15 20.2 13.25 20.6 Q12.65 21.0 12.35 21.9 12.2 22.35 12.35 23.05 12.5 23.75 13.3 24.6 L18.95 30.05 19.0 30.35 18.6 31.35 12.3 40.75 Q11.65 41.75 11.8 42.35 L12.2 43.2 Q13.0 43.95 13.9 43.6 14.85 43.3 15.55 42.8 L25.35 37.0 25.8 36.9 Q26.15 36.9 26.75 37.45 L32.1 42.4 33.05 42.95 34.25 42.9 Q35.3 42.35 35.55 41.3 L35.75 39.65 36.1 30.85 Q36.05 30.75 36.35 30.2 L37.65 29.05 48.25 22.4 Q48.85 22.1 49.5 21.45 M40.5 21.6 L42.95 21.5 44.5 21.4 41.15 23.5 37.75 25.65 36.2 26.6 36.25 26.55 Q34.75 27.45 34.1 28.4 33.5 29.3 33.35 30.0 L33.25 30.85 33.2 31.95 33.1 34.6 33.0 37.5 32.9 39.35 31.1 37.65 29.4 36.05 28.65 35.35 Q27.05 33.95 25.7 34.05 24.35 34.1 23.65 34.7 L22.45 35.45 19.95 36.9 17.1 38.55 18.9 35.9 20.35 33.75 20.95 32.9 Q21.9 31.35 21.75 30.1 L21.5 28.9 20.95 28.05 19.8 26.95 17.5 24.7 15.6 22.9 17.25 22.8 20.55 22.6 23.85 22.45 25.3 22.35 Q26.55 22.25 27.4 21.75 L28.7 20.65 29.25 19.95 30.1 18.75 32.0 16.05 34.05 13.15 33.9 15.6 33.8 17.65 33.75 18.5 33.75 18.95 34.05 20.15 34.55 20.85 Q35.35 21.55 36.15 21.7 L37.2 21.8 38.2 21.75 40.5 21.6 M58.5 4.65 Q59.75 6.8 59.8 9.45 L59.8 45.35 Q59.75 48.0 58.5 50.15 57.2 52.25 55.0 53.5 52.85 54.75 50.1 54.8 L9.7 54.8 Q6.95 54.75 4.75 53.5 2.6 52.25 1.3 50.15 0.05 48.0 0.0 45.35 L0.0 9.45 Q0.05 6.8 1.3 4.65 2.6 2.5 4.8 1.25 7.0 0.05 9.8 0.0 L50.2 0.0 Q52.9 0.05 55.05 1.25 57.25 2.5 58.5 4.65" fill="#ffffff" fill-rule="evenodd" stroke="none"/>
  </g>
</svg>
