<?xml version="1.0" encoding="UTF-8" standalone="no"?>
<svg xmlns:ffdec="https://www.free-decompiler.com/flash" xmlns:xlink="http://www.w3.org/1999/xlink" ffdec:objectType="shape" height="56.1px" width="61.0px" xmlns="http://www.w3.org/2000/svg">
  <g transform="matrix(1.0, 0.0, 0.0, 1.0, 0.0, 0.0)">
    <path d="M59.85 54.1 L59.5 54.05 59.3 54.05 59.3 54.6 59.55 54.6 59.8 54.55 59.95 54.35 59.85 54.1 M59.55 53.85 L60.0 53.9 60.2 54.3 60.05 54.6 59.85 54.7 Q60.05 54.7 60.1 54.85 L60.2 55.1 60.2 55.2 60.2 55.3 60.2 55.4 59.95 55.4 59.95 55.2 59.8 54.85 59.5 54.8 59.3 54.8 59.3 55.4 59.0 55.4 59.0 53.85 59.55 53.85 M59.55 53.25 Q60.15 53.25 60.6 53.65 61.0 54.1 61.0 54.65 61.0 55.25 60.6 55.7 60.15 56.1 59.55 56.1 59.0 56.1 58.55 55.7 58.15 55.25 58.15 54.65 58.15 54.1 58.55 53.65 59.0 53.25 59.55 53.25 M60.45 53.8 Q60.1 53.45 59.55 53.45 59.05 53.45 58.7 53.8 58.35 54.15 58.35 54.65 58.35 55.2 58.7 55.55 59.05 55.9 59.55 55.9 60.1 55.9 60.45 55.55 60.8 55.2 60.8 54.65 60.8 54.15 60.45 53.8 M25.05 19.3 L26.2 13.7 30.75 13.7 Q32.05 13.65 33.05 14.15 34.0 14.65 34.05 16.1 34.0 17.95 32.85 18.65 31.65 19.3 29.95 19.3 L25.05 19.3 M41.25 30.35 L42.55 28.15 42.9 30.4 43.3 32.75 43.45 33.8 44.4 33.8 46.45 33.8 48.65 33.8 46.7 35.15 44.8 36.45 43.95 37.05 44.15 38.15 44.45 40.5 44.8 42.75 43.0 41.35 41.15 39.95 40.3 39.3 39.25 39.9 36.9 41.3 34.6 42.65 35.7 40.35 36.75 38.1 37.2 37.05 36.65 36.45 35.35 35.1 34.05 33.7 36.15 33.7 38.25 33.7 39.25 33.7 39.9 32.65 41.25 30.35 M51.15 33.35 L52.2 32.65 51.1 32.65 48.6 32.65 45.95 32.65 44.4 32.65 44.15 31.05 43.7 28.45 43.35 25.95 43.15 24.85 42.5 26.0 41.0 28.55 39.45 31.15 38.6 32.6 37.75 32.6 37.2 31.05 37.0 29.6 37.05 27.55 37.1 25.25 Q37.1 23.6 36.55 22.65 36.0 21.7 34.7 21.4 L34.7 21.35 Q37.5 20.95 38.8 19.25 40.1 17.55 40.1 14.9 40.05 11.25 37.95 10.05 35.85 8.8 32.55 8.9 L20.95 8.9 16.05 32.05 22.2 32.05 24.0 23.6 28.1 23.6 Q29.7 23.6 30.45 24.4 31.15 25.2 31.15 26.75 L31.0 30.7 31.1 31.65 31.4 32.6 32.45 33.7 34.5 35.85 35.85 37.25 35.1 38.8 33.8 41.6 32.55 44.3 32.0 45.5 33.2 44.8 35.9 43.2 38.65 41.55 40.2 40.65 41.4 41.55 43.45 43.15 45.4 44.65 46.3 45.3 46.15 44.2 45.75 41.65 45.35 39.05 45.15 37.55 46.45 36.65 48.85 34.95 51.15 33.35 M55.05 1.25 Q57.25 2.5 58.5 4.65 59.75 6.8 59.8 9.45 L59.8 45.35 Q59.75 48.0 58.5 50.15 57.2 52.25 55.0 53.5 52.85 54.75 50.1 54.8 L9.7 54.8 Q6.95 54.75 4.75 53.5 2.6 52.25 1.3 50.15 0.05 48.0 0.0 45.35 L0.0 9.45 Q0.05 6.8 1.3 4.65 2.6 2.5 4.8 1.25 7.0 0.05 9.8 0.0 L50.2 0.0 Q52.9 0.05 55.05 1.25" fill="#ffffff" fill-rule="evenodd" stroke="none"/>
  </g>
</svg>
