<?xml version="1.0" encoding="UTF-8" standalone="no"?>
<svg xmlns:ffdec="https://www.free-decompiler.com/flash" xmlns:xlink="http://www.w3.org/1999/xlink" ffdec:objectType="shape" height="36.0px" width="36.1px" xmlns="http://www.w3.org/2000/svg">
  <g transform="matrix(1.0, 0.0, 0.0, 1.0, -3.8, 0.1)">
    <path d="M12.0 1.6 Q11.95 2.2 11.35 2.25 L11.3 2.25 Q8.8 2.3 6.8 3.45 6.55 3.6 6.35 3.7 L5.85 4.1 5.0 4.25 Q4.65 3.95 4.9 3.3 L5.3 2.75 6.1 2.2 Q8.4 0.95 11.3 0.9 L11.35 0.9 Q11.95 0.95 12.0 1.6 M37.4 29.8 L39.75 29.8 39.75 30.4 39.9 30.45 38.95 31.0 38.75 31.15 38.2 31.55 37.8 31.9 37.35 32.45 Q36.95 33.1 37.0 33.4 L36.95 35.1 36.9 35.1 36.9 35.9 35.05 35.9 35.1 34.95 35.1 34.2 35.15 33.45 35.15 33.4 35.25 32.6 Q35.35 31.95 35.95 31.1 L36.3 30.7 37.4 29.8" fill="#000000" fill-opacity="0.2" fill-rule="evenodd" stroke="none"/>
    <path d="M10.35 -0.1 Q10.95 -0.05 11.0 0.6 10.95 1.2 10.35 1.25 L10.3 1.25 Q7.8 1.3 5.8 2.45 L5.35 2.7 4.85 3.1 Q4.55 3.55 4.0 3.25 3.65 2.95 3.9 2.3 L4.3 1.75 5.1 1.2 Q7.4 -0.05 10.3 -0.1 L10.35 -0.1 M36.25 30.05 L37.75 29.1 38.2 28.8 37.75 29.1 36.25 30.05 M38.2 28.8 L38.75 28.8 38.75 29.4 38.9 29.45 37.95 30.0 37.75 30.15 37.2 30.55 36.8 30.9 36.35 31.45 Q35.95 32.1 36.0 32.4 L35.95 34.1 35.9 34.1 35.9 34.9 34.95 34.9 34.05 34.9 34.1 33.95 34.1 33.2 34.15 32.45 34.15 32.4 34.25 31.6 Q34.35 30.95 34.95 30.1 L35.3 29.7 36.4 28.8 38.2 28.8 M35.0 34.1 L34.95 34.9 35.0 34.1" fill="#ffffff" fill-rule="evenodd" stroke="none"/>
    <path d="M38.2 28.8 L37.75 29.1 36.25 30.05 M38.2 28.8 L38.65 28.55 M34.95 34.9 L35.0 34.1" fill="none" stroke="#ffffff" stroke-linecap="round" stroke-linejoin="miter-clip" stroke-miterlimit="10.0" stroke-width="1.9000000000000001"/>
  </g>
</svg>
