<?xml version="1.0" encoding="UTF-8" standalone="no"?>
<svg xmlns:ffdec="https://www.free-decompiler.com/flash" xmlns:xlink="http://www.w3.org/1999/xlink" ffdec:objectType="shape" height="39.5px" width="39.05px" xmlns="http://www.w3.org/2000/svg">
  <g transform="matrix(1.0, 0.0, 0.0, 1.0, -0.55, 0.1)">
    <path d="M12.0 1.6 Q11.95 2.2 11.35 2.25 8.8 2.3 6.8 3.45 4.75 4.55 3.6 6.55 L3.25 7.15 3.15 7.35 2.9 7.9 2.6 8.35 2.1 8.4 1.7 8.1 Q1.5 7.85 1.6 7.6 L1.9 6.9 1.95 6.7 2.4 5.8 Q3.75 3.6 6.1 2.2 8.4 0.95 11.35 0.9 11.95 0.95 12.0 1.6 M38.75 29.8 L38.7 30.3 38.75 31.0 38.95 31.0 38.75 31.15 38.2 31.55 37.8 31.9 37.35 32.45 Q36.95 33.1 37.0 33.4 L36.8 39.4 34.95 39.4 35.0 38.45 35.05 36.85 35.1 35.1 35.1 34.2 35.15 33.45 35.15 33.4 35.25 32.6 Q35.35 31.95 35.95 31.1 L36.05 31.0 36.3 30.7 Q36.7 30.25 37.4 29.8 L38.75 29.8" fill="#000000" fill-opacity="0.2" fill-rule="evenodd" stroke="none"/>
    <path d="M10.35 1.25 Q7.8 1.3 5.8 2.45 3.75 3.55 2.6 5.55 L2.25 6.15 2.15 6.35 1.9 6.9 1.6 7.35 1.1 7.4 0.7 7.1 Q0.5 6.85 0.6 6.6 L0.9 5.9 0.95 5.7 1.4 4.8 Q2.75 2.6 5.1 1.2 7.4 -0.05 10.35 -0.1 10.95 -0.05 11.0 0.6 10.95 1.2 10.35 1.25 M37.75 29.1 L37.7 29.3 37.75 30.0 37.95 30.0 37.75 30.15 37.2 30.55 36.8 30.9 36.35 31.45 Q35.95 32.1 36.0 32.4 L35.95 34.1 35.8 38.4 34.85 38.4 33.95 38.4 34.0 37.45 34.05 35.85 34.1 34.1 34.1 33.2 34.15 32.45 34.15 32.4 34.25 31.6 Q34.35 30.95 34.95 30.1 L35.05 30.0 35.3 29.7 36.4 28.8 37.75 28.8 37.75 29.1 36.35 30.0 37.75 29.1 M35.0 34.1 L34.85 38.4 35.0 34.1" fill="#ffffff" fill-rule="evenodd" stroke="none"/>
    <path d="M37.75 29.1 L38.65 28.55 M37.75 29.1 L36.35 30.0 M34.85 38.4 L35.0 34.1" fill="none" stroke="#ffffff" stroke-linecap="round" stroke-linejoin="miter-clip" stroke-miterlimit="10.0" stroke-width="1.9000000000000001"/>
  </g>
</svg>
