<?xml version="1.0" encoding="UTF-8" standalone="no"?>
<svg xmlns:ffdec="https://www.free-decompiler.com/flash" xmlns:xlink="http://www.w3.org/1999/xlink" ffdec:objectType="shape" height="42.95px" width="58.1px" xmlns="http://www.w3.org/2000/svg">
  <g transform="matrix(1.0, 0.0, 0.0, 1.0, 0.0, 0.1)">
    <path d="M12.0 1.6 Q11.95 2.2 11.35 2.25 8.8 2.3 6.8 3.45 4.75 4.55 3.6 6.55 L3.25 7.15 Q2.4 8.8 2.35 10.9 L2.35 13.15 Q2.3 13.7 1.7 13.8 1.05 13.7 1.0 13.15 L1.0 10.9 Q1.05 8.9 1.75 7.15 L2.4 5.8 Q3.75 3.6 6.1 2.2 8.4 0.95 11.35 0.9 11.95 0.95 12.0 1.6 M37.4 29.8 L38.75 29.8 38.7 30.3 38.75 31.15 37.8 31.9 37.5 32.2 37.55 32.2 37.35 32.45 Q36.95 33.1 37.0 33.4 L36.7 41.1 34.85 41.1 35.05 36.85 35.1 35.1 35.1 34.2 35.15 33.45 35.15 33.4 35.25 32.6 35.35 32.2 35.95 31.1 36.3 30.7 Q36.7 30.25 37.4 29.8" fill="#000000" fill-opacity="0.2" fill-rule="evenodd" stroke="none"/>
    <path d="M58.1 7.6 L58.1 7.65 58.1 7.75 58.1 7.6 M10.35 1.25 Q7.8 1.3 5.8 2.45 3.75 3.55 2.6 5.55 L2.25 6.15 Q1.4 7.8 1.35 9.9 L1.35 12.15 Q1.3 12.7 0.7 12.8 0.05 12.7 0.0 12.15 L0.0 9.9 Q0.05 7.9 0.75 6.15 L1.4 4.8 Q2.75 2.6 5.1 1.2 7.4 -0.05 10.35 -0.1 10.95 -0.05 11.0 0.6 10.95 1.2 10.35 1.25 M37.75 29.1 L37.7 29.3 37.75 30.15 Q37.15 30.55 36.8 30.9 L36.5 31.2 36.55 31.2 36.35 31.45 Q35.95 32.1 36.0 32.4 L35.95 34.1 35.7 40.1 34.8 40.1 33.85 40.1 34.05 35.85 34.1 34.1 34.1 33.2 34.15 32.45 34.15 32.4 34.25 31.6 34.35 31.2 34.95 30.1 35.3 29.7 36.4 28.8 37.75 28.8 37.75 29.1 36.25 30.05 37.75 29.1 M34.9 37.5 L34.8 40.1 34.9 37.5" fill="#ffffff" fill-rule="evenodd" stroke="none"/>
    <path d="M34.8 40.1 L34.75 41.9 M37.75 29.1 L38.65 28.55 M37.75 29.1 L36.25 30.05 M34.8 40.1 L34.9 37.5" fill="none" stroke="#ffffff" stroke-linecap="round" stroke-linejoin="miter-clip" stroke-miterlimit="10.0" stroke-width="1.9000000000000001"/>
  </g>
</svg>
