<?xml version="1.0" encoding="UTF-8" standalone="no"?>
<svg xmlns:ffdec="https://www.free-decompiler.com/flash" xmlns:xlink="http://www.w3.org/1999/xlink" ffdec:objectType="shape" height="54.65px" width="39.6px" xmlns="http://www.w3.org/2000/svg">
  <g transform="matrix(1.0, 0.0, 0.0, 1.0, 0.0, 0.1)">
    <path d="M12.0 1.6 Q11.95 2.2 11.35 2.25 8.8 2.3 6.8 3.45 4.75 4.55 3.6 6.55 L3.25 7.15 Q2.4 8.85 2.35 10.95 L2.35 45.8 Q2.4 48.25 3.6 50.2 4.4 51.6 5.7 52.6 L5.6 52.65 Q5.35 52.85 5.25 53.15 5.1 53.35 5.1 53.65 L5.15 53.95 Q3.45 52.7 2.35 50.9 1.05 48.65 1.0 45.8 L1.0 10.95 Q1.05 8.9 1.75 7.15 L2.4 5.8 Q3.75 3.6 6.1 2.2 8.4 0.95 11.35 0.9 11.95 0.95 12.0 1.6 M18.2 41.85 L24.7 38.0 25.4 37.6 26.55 37.4 Q27.95 37.4 29.3 38.65 L33.85 42.9 34.25 43.05 34.45 43.0 34.8 42.45 34.8 42.3 35.05 36.85 35.1 35.9 35.1 35.1 35.1 34.9 35.1 34.2 35.15 33.45 35.15 33.4 35.25 32.6 Q35.35 31.95 35.95 31.1 L36.3 30.7 Q36.7 30.25 37.4 29.8 L38.75 29.8 38.7 30.3 38.75 31.15 37.8 31.9 37.35 32.45 Q36.95 33.1 37.0 33.4 L36.65 42.75 36.6 43.75 36.25 44.85 35.4 45.7 34.9 45.8 Q34.15 45.75 33.7 45.3 L28.0 40.0 Q27.2 39.3 26.55 39.3 26.0 39.35 25.8 39.5 L18.2 44.05 18.0 43.05 17.75 42.15 18.2 41.9 18.2 41.85" fill="#000000" fill-opacity="0.2" fill-rule="evenodd" stroke="none"/>
    <path d="M4.25 52.15 Q4.1 52.35 4.1 52.65 L4.15 52.95 Q2.45 51.7 1.35 49.9 0.05 47.65 0.0 44.8 L0.0 9.95 Q0.05 7.9 0.75 6.15 L1.4 4.8 Q2.75 2.6 5.1 1.2 7.4 -0.05 10.35 -0.1 10.95 -0.05 11.0 0.6 10.95 1.2 10.35 1.25 7.8 1.3 5.8 2.45 3.75 3.55 2.6 5.55 L2.25 6.15 Q1.4 7.85 1.35 9.95 L1.35 44.8 Q1.4 47.25 2.6 49.2 3.4 50.6 4.7 51.6 L4.6 51.65 4.25 52.15 Q3.25 51.45 2.6 50.5 3.25 51.45 4.25 52.15 M17.0 42.05 L16.75 41.15 17.2 40.9 17.2 40.85 23.7 37.0 24.4 36.6 25.55 36.4 Q26.95 36.4 28.3 37.65 L32.85 41.9 33.25 42.05 33.45 42.0 33.8 41.45 33.8 41.3 34.05 35.85 34.1 34.9 34.1 34.1 34.1 33.9 34.1 33.2 34.15 32.45 34.15 32.4 34.25 31.6 Q34.35 30.95 34.95 30.1 L35.3 29.7 36.4 28.8 37.75 28.8 37.75 29.1 37.7 29.3 37.75 30.15 Q37.15 30.55 36.8 30.9 L36.35 31.45 Q35.95 32.1 36.0 32.4 L35.65 41.75 35.6 42.75 35.25 43.85 34.4 44.7 33.9 44.8 Q33.15 44.75 32.7 44.3 L27.0 39.0 Q26.2 38.3 25.55 38.3 L24.8 38.5 17.2 43.05 17.0 42.05 M36.25 30.05 L37.75 29.1 36.25 30.05" fill="#ffffff" fill-rule="evenodd" stroke="none"/>
    <path d="M17.0 42.05 L16.55 42.3 M37.75 29.1 L38.65 28.55 M37.75 29.1 L36.25 30.05" fill="none" stroke="#ffffff" stroke-linecap="round" stroke-linejoin="miter-clip" stroke-miterlimit="10.0" stroke-width="1.9000000000000001"/>
    <path d="M4.25 52.15 Q5.8 53.3 8.1 53.85 M2.6 50.5 Q3.25 51.45 4.25 52.15" fill="none" stroke="#ffffff" stroke-linecap="round" stroke-linejoin="round" stroke-width="1.4000000000000001"/>
  </g>
</svg>
