<?xml version="1.0" encoding="UTF-8" standalone="no"?>
<svg xmlns:ffdec="https://www.free-decompiler.com/flash" xmlns:xlink="http://www.w3.org/1999/xlink" ffdec:objectType="shape" height="55.9px" width="60.8px" xmlns="http://www.w3.org/2000/svg">
  <g transform="matrix(1.0, 0.0, 0.0, 1.0, 0.0, 0.1)">
    <path d="M60.1 29.3 Q60.75 29.45 60.8 30.0 L60.8 45.8 Q60.75 48.6 59.4 50.9 58.05 53.1 55.75 54.45 53.45 55.75 50.55 55.8 L11.25 55.8 8.25 55.4 Q7.05 55.05 6.0 54.45 3.7 53.15 2.35 50.9 1.05 48.65 1.0 45.8 L1.0 10.95 Q1.05 8.9 1.75 7.15 L2.4 5.8 Q3.75 3.6 6.1 2.2 8.4 0.95 11.35 0.9 11.95 0.95 12.0 1.6 11.95 2.2 11.35 2.25 8.8 2.3 6.8 3.45 4.75 4.55 3.6 6.55 L3.25 7.15 Q2.4 8.85 2.35 10.95 L2.35 45.8 Q2.4 48.25 3.6 50.2 4.7 52.1 6.75 53.25 7.45 53.65 8.25 53.9 L11.25 54.4 50.55 54.4 Q53.05 54.35 55.05 53.25 57.05 52.1 58.2 50.2 59.35 48.25 59.4 45.8 L59.4 30.0 Q59.45 29.45 60.1 29.3 M29.05 19.4 L29.9 19.9 31.0 19.9 30.8 20.2 29.85 21.55 29.35 22.2 28.05 23.25 Q27.25 23.8 26.1 23.85 L15.75 24.4 Q15.45 24.45 15.3 24.8 15.15 25.1 15.45 25.4 L18.85 28.7 20.4 30.2 21.1 30.85 21.5 31.45 21.85 32.7 Q21.85 33.95 21.0 35.3 L16.95 41.35 Q16.75 41.7 17.0 42.0 L17.7 42.15 24.7 38.0 25.4 37.6 26.55 37.4 Q27.95 37.4 29.3 38.65 L33.85 42.9 34.25 43.05 34.45 43.0 34.8 42.45 34.8 42.3 35.05 36.85 35.1 35.1 35.1 34.2 35.15 33.45 35.15 33.4 35.25 32.6 35.5 31.9 35.95 31.1 36.3 30.7 Q36.7 30.25 37.4 29.8 L38.75 29.8 38.7 30.3 38.75 31.15 37.8 31.9 37.35 32.45 Q36.95 33.1 37.0 33.4 L36.65 42.75 36.6 43.75 36.25 44.85 35.4 45.7 34.9 45.8 Q34.15 45.75 33.7 45.3 L28.0 40.0 Q27.2 39.3 26.55 39.3 26.0 39.35 25.8 39.5 L15.4 45.7 14.45 46.25 13.35 46.55 Q12.9 46.55 12.55 46.2 L12.25 45.55 Q12.2 45.05 12.75 44.25 L19.45 34.25 Q20.05 33.3 19.9 32.55 L19.75 32.2 13.75 26.35 Q12.55 25.15 12.85 24.05 13.1 23.3 13.65 23.0 14.15 22.65 14.4 22.6 L26.0 22.0 Q26.95 21.85 27.55 21.35 L28.3 20.5 29.05 19.4" fill="#000000" fill-opacity="0.2" fill-rule="evenodd" stroke="none"/>
    <path d="M59.8 44.8 Q59.75 47.6 58.4 49.9 57.05 52.1 54.75 53.45 52.45 54.75 49.55 54.8 L10.25 54.8 7.25 54.4 5.0 53.45 Q2.7 52.15 1.35 49.9 0.05 47.65 0.0 44.8 L0.0 9.95 Q0.05 7.9 0.75 6.15 L1.4 4.8 Q2.75 2.6 5.1 1.2 7.4 -0.05 10.35 -0.1 10.95 -0.05 11.0 0.6 10.95 1.2 10.35 1.25 7.8 1.3 5.8 2.45 3.75 3.55 2.6 5.55 L2.25 6.15 Q1.4 7.85 1.35 9.95 L1.35 44.8 Q1.4 47.25 2.6 49.2 3.7 51.1 5.75 52.25 6.45 52.65 7.25 52.9 L10.25 53.4 49.55 53.4 Q52.05 53.35 54.05 52.25 56.05 51.1 57.2 49.2 58.35 47.25 58.4 44.8 L58.4 29.0 Q58.45 28.45 59.1 28.3 59.75 28.45 59.8 29.0 L59.8 44.8 M37.75 29.1 L37.7 29.3 37.75 30.15 Q37.15 30.55 36.8 30.9 L36.35 31.45 Q35.95 32.1 36.0 32.4 L35.95 34.1 35.65 41.75 35.6 42.75 35.25 43.85 34.4 44.7 33.9 44.8 Q33.15 44.75 32.7 44.3 L27.0 39.0 Q26.2 38.3 25.55 38.3 L24.8 38.5 14.4 44.7 13.45 45.25 12.35 45.55 Q11.9 45.55 11.55 45.2 L11.25 44.55 Q11.2 44.05 11.75 43.25 L18.45 33.25 Q19.05 32.3 18.9 31.55 L18.75 31.2 12.75 25.35 Q11.55 24.15 11.85 23.05 12.1 22.3 12.65 22.0 13.15 21.65 13.4 21.6 L25.0 21.0 Q25.95 20.85 26.55 20.35 L27.3 19.5 28.05 18.4 28.9 18.9 30.0 18.9 29.8 19.2 28.85 20.55 28.35 21.2 27.05 22.25 Q26.25 22.8 25.1 22.85 L14.75 23.4 14.3 23.8 Q14.15 24.1 14.45 24.4 L17.85 27.7 19.4 29.2 20.1 29.85 20.5 30.45 20.85 31.7 Q20.85 32.95 20.0 34.3 L15.95 40.35 Q15.75 40.7 16.0 41.0 L16.7 41.15 23.7 37.0 24.4 36.6 25.55 36.4 Q26.95 36.4 28.3 37.65 L32.85 41.9 33.25 42.05 33.45 42.0 33.8 41.45 33.8 41.3 34.05 35.85 34.1 34.1 34.1 33.2 34.15 32.45 34.15 32.4 34.25 31.6 34.5 30.9 34.95 30.1 35.3 29.7 36.4 28.8 37.75 28.8 37.75 29.1 36.25 30.05 37.75 29.1" fill="#ffffff" fill-rule="evenodd" stroke="none"/>
    <path d="M37.75 29.1 L36.25 30.05 M28.9 18.9 L29.15 18.55 M38.65 28.55 L37.75 29.1" fill="none" stroke="#ffffff" stroke-linecap="round" stroke-linejoin="miter-clip" stroke-miterlimit="10.0" stroke-width="1.9000000000000001"/>
  </g>
</svg>
