<?xml version="1.0" encoding="UTF-8" standalone="no"?>
<svg xmlns:ffdec="https://www.free-decompiler.com/flash" xmlns:xlink="http://www.w3.org/1999/xlink" ffdec:objectType="shape" height="56.6px" width="61.75px" xmlns="http://www.w3.org/2000/svg">
  <g transform="matrix(1.0, 0.0, 0.0, 1.0, 0.0, 0.0)">
    <path d="M51.85 0.0 Q54.65 0.05 56.85 1.3 59.15 2.6 60.45 4.8 61.7 7.0 61.75 9.75 L61.75 46.85 Q61.7 49.6 60.45 51.8 59.1 54.0 56.8 55.25 54.6 56.55 51.75 56.6 L10.0 56.6 Q7.2 56.55 4.9 55.25 2.7 54.0 1.35 51.8 0.05 49.6 0.0 46.85 L0.0 9.75 Q0.05 7.0 1.35 4.8 2.7 2.6 4.95 1.3 7.25 0.05 10.1 0.0 L51.85 0.0 M53.8 20.95 Q53.3 19.4 50.95 19.45 L39.2 20.1 38.65 20.0 39.2 10.55 Q39.3 8.3 37.75 7.8 36.2 7.35 34.65 9.6 L27.75 19.4 Q26.85 20.7 25.7 20.75 L13.15 21.4 Q11.45 21.95 11.1 23.35 10.75 24.9 12.25 26.4 L18.65 32.65 18.7 33.0 18.25 34.1 11.0 44.8 Q9.85 46.4 10.9 47.55 11.6 48.4 12.85 48.05 13.55 47.85 14.7 47.05 L25.9 40.55 Q26.4 40.05 27.45 41.05 L33.5 46.75 Q34.65 47.8 35.95 47.2 37.65 46.55 37.65 43.6 L38.1 33.5 Q38.1 33.2 38.4 32.85 38.8 32.15 39.85 31.5 L51.9 24.0 Q54.35 22.55 53.8 20.95 M30.35 21.25 L35.85 13.5 35.5 20.1 Q35.55 21.4 36.4 22.25 37.45 23.35 39.4 23.35 L47.75 22.9 38.2 28.75 38.35 28.75 Q36.15 29.95 35.3 31.75 34.85 32.7 34.85 33.5 L34.5 43.2 29.65 38.7 Q28.1 37.2 26.35 37.2 24.95 37.2 23.95 37.95 L16.55 42.3 20.85 35.85 Q21.95 34.25 21.85 32.75 21.8 31.25 20.85 30.35 L14.9 24.5 25.9 23.9 Q28.65 23.8 30.35 21.25" fill="#000000" fill-opacity="0.2" fill-rule="evenodd" stroke="none"/>
  </g>
</svg>
