<?xml version="1.0" encoding="UTF-8" standalone="no"?>
<svg xmlns:ffdec="https://www.free-decompiler.com/flash" xmlns:xlink="http://www.w3.org/1999/xlink" ffdec:objectType="shape" height="34.6px" width="41.65px" xmlns="http://www.w3.org/2000/svg">
  <g transform="matrix(1.0, 0.0, 0.0, 1.0, -0.55, 0.1)">
    <path d="M41.8 30.3 L42.15 30.65 42.1 31.15 42.05 31.3 42.05 31.35 40.35 34.2 39.9 34.45 39.4 34.45 39.1 34.0 39.2 33.5 40.85 30.65 40.9 30.65 40.9 30.6 41.25 30.25 41.8 30.3 M30.1 20.3 L30.1 21.0 27.25 21.0 Q26.7 20.95 26.55 20.3 26.7 19.65 27.25 19.6 L30.1 19.6 30.1 20.3 29.15 20.3 30.1 20.3 M12.0 1.6 Q11.95 2.2 11.35 2.25 8.8 2.3 6.8 3.45 4.75 4.55 3.6 6.55 L3.25 7.15 3.15 7.35 2.9 7.9 2.6 8.35 2.1 8.4 1.7 8.1 Q1.5 7.85 1.6 7.6 L1.9 6.9 1.95 6.7 2.4 5.8 Q3.75 3.6 6.1 2.2 8.4 0.95 11.35 0.9 11.95 0.95 12.0 1.6 M31.45 27.15 Q31.5 26.6 32.15 26.45 32.8 26.6 32.85 27.15 L32.85 28.3 32.75 29.6 32.65 31.25 32.75 31.9 32.9 32.6 32.9 33.1 32.55 33.45 32.25 33.5 31.6 33.15 31.35 32.15 31.25 31.25 31.35 29.5 31.45 28.1 31.45 27.15" fill="#000000" fill-opacity="0.2" fill-rule="evenodd" stroke="none"/>
    <path d="M30.1 20.3 L29.15 20.3" fill="none" stroke="#ffffff" stroke-linecap="round" stroke-linejoin="round" stroke-width="1.4000000000000001"/>
    <path d="M41.15 29.65 L41.1 30.15 41.05 30.3 41.05 30.35 39.35 33.2 38.9 33.45 38.4 33.45 38.1 33.0 38.2 32.5 39.85 29.65 39.9 29.65 39.9 29.6 40.25 29.25 40.8 29.3 41.15 29.65 M28.15 19.3 L29.1 19.3 28.15 19.3 M29.1 19.3 L29.1 20.0 26.25 20.0 Q25.7 19.95 25.55 19.3 25.7 18.65 26.25 18.6 L29.1 18.6 29.1 19.3 M10.35 1.25 Q7.8 1.3 5.8 2.45 3.75 3.55 2.6 5.55 L2.25 6.15 2.15 6.35 1.9 6.9 1.6 7.35 1.1 7.4 0.7 7.1 Q0.5 6.85 0.6 6.6 L0.9 5.9 0.95 5.7 1.4 4.8 Q2.75 2.6 5.1 1.2 7.4 -0.05 10.35 -0.1 10.95 -0.05 11.0 0.6 10.95 1.2 10.35 1.25 M31.15 25.45 Q31.8 25.6 31.85 26.15 L31.85 27.3 31.75 28.6 31.65 30.25 31.75 30.9 31.9 31.6 31.9 32.1 31.55 32.45 31.25 32.5 Q30.85 32.45 30.6 32.15 L30.35 31.15 30.25 30.25 30.35 28.5 30.45 27.1 30.45 26.15 Q30.5 25.6 31.15 25.45" fill="#ffffff" fill-rule="evenodd" stroke="none"/>
    <path d="M29.1 19.3 L28.15 19.3" fill="none" stroke="#ffffff" stroke-linecap="round" stroke-linejoin="round" stroke-width="1.4000000000000001"/>
  </g>
</svg>
