<?xml version="1.0" encoding="UTF-8" standalone="no"?>
<svg xmlns:ffdec="https://www.free-decompiler.com/flash" xmlns:xlink="http://www.w3.org/1999/xlink" ffdec:objectType="shape" height="34.6px" width="58.1px" xmlns="http://www.w3.org/2000/svg">
  <g transform="matrix(1.0, 0.0, 0.0, 1.0, 0.0, 0.1)">
    <path d="M43.15 28.05 L43.5 28.4 43.45 28.9 40.35 34.2 39.9 34.45 39.4 34.45 39.1 34.0 39.2 33.5 42.25 28.35 42.6 28.0 43.15 28.05 M27.95 23.75 L29.15 23.75 Q32.8 23.75 32.85 27.5 L32.75 29.6 32.65 31.25 32.75 31.9 32.9 32.6 32.9 33.1 32.55 33.45 32.25 33.5 31.6 33.15 31.35 32.15 31.25 31.25 31.35 29.5 31.45 27.5 Q31.45 26.2 30.9 25.7 30.4 25.1 29.15 25.15 L27.95 25.15 Q27.4 25.1 27.25 24.45 27.4 23.8 27.95 23.75 M31.05 20.3 L31.05 21.0 30.9 21.0 27.25 21.0 Q26.7 20.95 26.55 20.3 26.7 19.65 27.25 19.6 L30.9 19.6 31.05 19.6 31.05 20.3 30.05 20.3 31.05 20.3 M11.35 2.25 Q8.8 2.3 6.8 3.45 4.75 4.55 3.6 6.55 L3.25 7.15 Q2.4 8.8 2.35 10.9 L2.35 13.15 Q2.3 13.7 1.7 13.8 1.05 13.7 1.0 13.15 L1.0 10.9 Q1.05 8.9 1.75 7.15 L2.4 5.8 Q3.75 3.6 6.1 2.2 8.4 0.95 11.35 0.9 11.95 0.95 12.0 1.6 11.95 2.2 11.35 2.25 M26.4 25.15 L26.4 25.1 26.45 25.15 26.4 25.15" fill="#000000" fill-opacity="0.2" fill-rule="evenodd" stroke="none"/>
    <path d="M31.05 20.3 L30.05 20.3" fill="none" stroke="#ffffff" stroke-linecap="round" stroke-linejoin="round" stroke-width="1.4000000000000001"/>
    <path d="M42.15 27.05 L42.5 27.4 42.45 27.9 39.35 33.2 38.9 33.45 38.4 33.45 38.1 33.0 38.2 32.5 41.25 27.35 41.6 27.0 42.15 27.05 M30.05 19.3 L30.05 20.0 29.9 20.0 26.25 20.0 Q25.7 19.95 25.55 19.3 25.7 18.65 26.25 18.6 L29.9 18.6 30.05 18.6 30.05 19.3 29.05 19.3 30.05 19.3 M58.1 7.6 L58.1 7.65 58.1 7.75 58.1 7.6 M26.25 23.45 Q26.4 22.8 26.95 22.75 L28.15 22.75 Q31.8 22.75 31.85 26.5 L31.75 28.6 31.65 30.25 31.75 30.9 31.9 31.6 31.9 32.1 31.55 32.45 31.25 32.5 Q30.85 32.45 30.6 32.15 L30.35 31.15 30.25 30.25 30.35 28.5 30.45 26.5 Q30.45 25.2 29.9 24.7 29.4 24.1 28.15 24.15 L26.95 24.15 Q26.4 24.1 26.25 23.45 M25.4 24.1 L25.45 24.15 25.4 24.15 25.4 24.1 M10.35 1.25 Q7.8 1.3 5.8 2.45 3.75 3.55 2.6 5.55 L2.25 6.15 Q1.4 7.8 1.35 9.9 L1.35 12.15 Q1.3 12.7 0.7 12.8 0.05 12.7 0.0 12.15 L0.0 9.9 Q0.05 7.9 0.75 6.15 L1.4 4.8 Q2.75 2.6 5.1 1.2 7.4 -0.05 10.35 -0.1 10.95 -0.05 11.0 0.6 10.95 1.2 10.35 1.25" fill="#ffffff" fill-rule="evenodd" stroke="none"/>
    <path d="M30.05 19.3 L29.05 19.3" fill="none" stroke="#ffffff" stroke-linecap="round" stroke-linejoin="round" stroke-width="1.4000000000000001"/>
  </g>
</svg>
