<?xml version="1.0" encoding="UTF-8" standalone="no"?>
<svg xmlns:ffdec="https://www.free-decompiler.com/flash" xmlns:xlink="http://www.w3.org/1999/xlink" ffdec:objectType="shape" height="34.6px" width="45.05px" xmlns="http://www.w3.org/2000/svg">
  <g transform="matrix(1.0, 0.0, 0.0, 1.0, 0.0, 0.1)">
    <path d="M44.2 25.9 Q44.6 26.0 44.7 26.45 L45.05 28.7 45.05 28.75 45.0 29.0 44.6 29.4 44.1 29.4 43.8 29.0 43.75 28.9 43.65 28.65 40.35 34.2 39.9 34.45 39.4 34.45 39.1 34.0 39.2 33.5 43.45 26.2 Q43.7 25.85 44.2 25.9 M25.4 23.75 L29.15 23.75 Q32.8 23.75 32.85 27.5 L32.75 29.6 32.65 31.25 32.75 31.9 32.9 32.6 32.9 33.1 32.55 33.45 32.25 33.5 31.6 33.15 31.35 32.15 31.25 31.25 31.35 29.5 31.45 27.5 Q31.45 26.2 30.9 25.7 30.4 25.1 29.15 25.15 L25.4 25.15 Q24.85 25.1 24.7 24.45 24.85 23.8 25.4 23.75 M26.55 20.3 Q26.7 19.65 27.25 19.6 L30.9 19.6 31.3 19.6 31.3 20.3 31.3 21.0 30.9 21.0 27.25 21.0 Q26.7 20.95 26.55 20.3 M11.35 2.25 Q8.8 2.3 6.8 3.45 4.75 4.55 3.6 6.55 L3.25 7.15 Q2.4 8.85 2.35 10.95 L2.35 20.65 Q2.3 21.2 1.7 21.3 1.05 21.2 1.0 20.65 L1.0 10.95 Q1.05 8.9 1.75 7.15 L2.4 5.8 Q3.75 3.6 6.1 2.2 8.4 0.95 11.35 0.9 11.95 0.95 12.0 1.6 11.95 2.2 11.35 2.25" fill="#000000" fill-opacity="0.2" fill-rule="evenodd" stroke="none"/>
    <path d="M31.6 20.3 L31.3 20.3" fill="none" stroke="#ffffff" stroke-linecap="round" stroke-linejoin="round" stroke-width="1.4000000000000001"/>
    <path d="M44.05 27.75 L44.0 28.0 43.6 28.4 43.1 28.4 42.8 28.0 42.75 27.9 42.65 27.65 39.35 33.2 38.9 33.45 38.4 33.45 38.1 33.0 38.2 32.5 42.45 25.2 Q42.7 24.85 43.2 24.9 43.6 25.0 43.7 25.45 L44.05 27.7 44.05 27.75 M24.4 22.75 L28.15 22.75 Q31.8 22.75 31.85 26.5 L31.75 28.6 31.65 30.25 31.75 30.9 31.9 31.6 31.9 32.1 31.55 32.45 31.25 32.5 Q30.85 32.45 30.6 32.15 L30.35 31.15 30.25 30.25 30.35 28.5 30.45 26.5 Q30.45 25.2 29.9 24.7 29.4 24.1 28.15 24.15 L24.4 24.15 Q23.85 24.1 23.7 23.45 23.85 22.8 24.4 22.75 M30.3 19.3 L30.3 20.0 29.9 20.0 26.25 20.0 Q25.7 19.95 25.55 19.3 25.7 18.65 26.25 18.6 L29.9 18.6 30.3 18.6 30.3 19.3 M10.35 1.25 Q7.8 1.3 5.8 2.45 3.75 3.55 2.6 5.55 L2.25 6.15 Q1.4 7.85 1.35 9.95 L1.35 19.65 Q1.3 20.2 0.7 20.3 0.05 20.2 0.0 19.65 L0.0 9.95 Q0.05 7.9 0.75 6.15 L1.4 4.8 Q2.75 2.6 5.1 1.2 7.4 -0.05 10.35 -0.1 10.95 -0.05 11.0 0.6 10.95 1.2 10.35 1.25" fill="#ffffff" fill-rule="evenodd" stroke="none"/>
    <path d="M30.3 19.3 L30.6 19.3" fill="none" stroke="#ffffff" stroke-linecap="round" stroke-linejoin="round" stroke-width="1.4000000000000001"/>
  </g>
</svg>
