<?xml version="1.0" encoding="UTF-8" standalone="no"?>
<svg xmlns:ffdec="https://www.free-decompiler.com/flash" xmlns:xlink="http://www.w3.org/1999/xlink" ffdec:objectType="shape" height="55.65px" width="50.05px" xmlns="http://www.w3.org/2000/svg">
  <g transform="matrix(1.0, 0.0, 0.0, 1.0, 0.0, 0.1)">
    <path d="M44.2 25.9 Q44.6 26.0 44.7 26.45 L45.75 33.25 49.3 33.25 49.55 33.25 49.55 33.3 Q49.9 33.35 50.05 33.9 L49.55 34.55 45.2 34.55 44.5 34.0 43.7 28.55 40.35 34.2 39.9 34.45 39.4 34.45 39.1 34.0 39.2 33.5 43.45 26.2 Q43.7 25.85 44.2 25.9 M29.15 23.75 Q32.8 23.75 32.85 27.5 L32.75 29.6 32.65 31.25 32.75 31.9 32.9 32.6 32.9 33.1 32.55 33.45 32.25 33.5 31.6 33.15 31.35 32.15 31.25 31.25 31.35 29.5 31.45 27.5 Q31.45 26.2 30.9 25.7 30.4 25.1 29.15 25.15 L25.85 25.15 24.2 32.7 Q24.05 33.15 23.6 33.25 L17.4 33.25 Q16.85 33.15 16.7 32.55 16.8 31.9 17.35 31.85 L23.05 31.9 24.6 24.3 Q24.75 23.8 25.3 23.75 L29.15 23.75 M34.0 19.55 L34.65 19.75 33.85 20.35 Q32.9 20.95 30.9 21.0 L27.25 21.0 Q26.7 20.95 26.55 20.3 26.7 19.65 27.25 19.6 L30.9 19.6 33.15 19.2 33.6 18.9 34.0 19.55 M5.25 53.15 Q5.1 53.35 5.1 53.65 L5.15 53.95 Q3.45 52.7 2.35 50.9 1.05 48.65 1.0 45.8 L1.0 10.95 Q1.05 8.9 1.75 7.15 L2.4 5.8 Q3.75 3.6 6.1 2.2 8.4 0.95 11.35 0.9 11.95 0.95 12.0 1.6 11.95 2.2 11.35 2.25 8.8 2.3 6.8 3.45 4.75 4.55 3.6 6.55 L3.25 7.15 Q2.4 8.85 2.35 10.95 L2.35 45.8 Q2.4 48.25 3.6 50.2 4.4 51.6 5.7 52.6 L5.6 52.65 Q5.35 52.85 5.25 53.15 4.25 52.45 3.6 51.5 4.25 52.45 5.25 53.15" fill="#000000" fill-opacity="0.2" fill-rule="evenodd" stroke="none"/>
    <path d="M5.25 53.15 Q6.8 54.3 9.1 54.85 M3.6 51.5 Q4.25 52.45 5.25 53.15" fill="none" stroke="#ffffff" stroke-linecap="round" stroke-linejoin="round" stroke-width="1.4000000000000001"/>
    <path d="M34.0 19.55 L34.4 19.15 34.75 18.4" fill="none" stroke="#ffffff" stroke-linecap="round" stroke-linejoin="round" stroke-width="1.4500000000000002"/>
    <path d="M43.2 24.9 Q43.6 25.0 43.7 25.45 L44.75 32.25 48.3 32.25 48.55 32.25 48.55 32.3 Q48.9 32.35 49.05 32.9 L48.55 33.55 44.2 33.55 Q43.65 33.5 43.5 33.0 L42.7 27.55 39.35 33.2 38.9 33.45 38.4 33.45 38.1 33.0 38.2 32.5 42.45 25.2 Q42.7 24.85 43.2 24.9 M24.3 22.75 L28.15 22.75 Q31.8 22.75 31.85 26.5 L31.75 28.6 31.65 30.25 31.75 30.9 31.9 31.6 31.9 32.1 31.55 32.45 31.25 32.5 Q30.85 32.45 30.6 32.15 L30.35 31.15 30.25 30.25 30.35 28.5 30.45 26.5 Q30.45 25.2 29.9 24.7 29.4 24.1 28.15 24.15 L24.85 24.15 23.2 31.7 22.6 32.25 17.6 32.25 16.4 32.25 Q15.85 32.15 15.7 31.55 15.8 30.9 16.35 30.85 L22.05 30.9 23.6 23.3 Q23.75 22.8 24.3 22.75 M33.0 18.55 L33.65 18.75 32.85 19.35 Q31.9 19.95 29.9 20.0 L26.25 20.0 Q25.7 19.95 25.55 19.3 25.7 18.65 26.25 18.6 L29.9 18.6 32.15 18.2 32.6 17.9 33.0 18.55 M4.25 52.15 Q4.1 52.35 4.1 52.65 L4.15 52.95 Q2.45 51.7 1.35 49.9 0.05 47.65 0.0 44.8 L0.0 9.95 Q0.05 7.9 0.75 6.15 L1.4 4.8 Q2.75 2.6 5.1 1.2 7.4 -0.05 10.35 -0.1 10.95 -0.05 11.0 0.6 10.95 1.2 10.35 1.25 7.8 1.3 5.8 2.45 3.75 3.55 2.6 5.55 L2.25 6.15 Q1.4 7.85 1.35 9.95 L1.35 44.8 Q1.4 47.25 2.6 49.2 3.4 50.6 4.7 51.6 L4.6 51.65 4.25 52.15 Q3.25 51.45 2.6 50.5 3.25 51.45 4.25 52.15" fill="#ffffff" fill-rule="evenodd" stroke="none"/>
    <path d="M4.25 52.15 Q5.8 53.3 8.1 53.85 M2.6 50.5 Q3.25 51.45 4.25 52.15" fill="none" stroke="#ffffff" stroke-linecap="round" stroke-linejoin="round" stroke-width="1.4000000000000001"/>
    <path d="M33.0 18.55 L33.4 18.15 33.75 17.4" fill="none" stroke="#ffffff" stroke-linecap="round" stroke-linejoin="round" stroke-width="1.4500000000000002"/>
  </g>
</svg>
