<?xml version="1.0" encoding="UTF-8" standalone="no"?>
<svg xmlns:ffdec="https://www.free-decompiler.com/flash" xmlns:xlink="http://www.w3.org/1999/xlink" ffdec:objectType="shape" height="55.9px" width="53.15px" xmlns="http://www.w3.org/2000/svg">
  <g transform="matrix(1.0, 0.0, 0.0, 1.0, 0.0, 0.1)">
    <path d="M52.9 34.45 L46.65 38.8 47.25 42.65 47.2 43.05 46.75 43.35 46.3 43.25 46.0 42.9 45.3 38.6 Q45.2 38.2 45.55 37.95 L50.3 34.55 45.2 34.55 44.5 34.0 43.7 28.55 40.35 34.2 39.9 34.45 39.4 34.45 39.1 34.0 39.2 33.5 43.45 26.2 Q43.7 25.85 44.2 25.9 44.6 26.0 44.7 26.45 L45.75 33.25 52.55 33.25 Q53.0 33.25 53.15 33.7 L52.9 34.45 M22.5 13.25 L22.25 14.4 22.2 14.4 22.15 14.75 18.55 31.9 23.05 31.9 24.6 24.3 Q24.75 23.8 25.3 23.75 L29.15 23.75 Q32.8 23.75 32.85 27.5 L32.75 29.6 32.65 31.25 32.75 31.9 32.9 32.6 32.9 33.1 32.55 33.45 32.25 33.5 31.6 33.15 31.35 32.15 31.25 31.25 31.35 29.5 31.45 27.5 Q31.45 26.2 30.9 25.7 30.4 25.1 29.15 25.15 L25.85 25.15 24.2 32.7 Q24.05 33.15 23.6 33.25 L17.7 33.25 Q17.35 33.2 17.15 32.95 16.95 32.75 17.0 32.4 L21.05 13.15 Q21.15 12.55 21.85 12.45 22.5 12.7 22.5 13.25 M33.45 15.2 L33.45 14.45 34.2 14.8 Q35.0 15.3 35.3 15.95 L35.5 17.25 Q35.55 18.15 35.2 18.9 34.85 19.8 33.85 20.35 32.9 20.95 30.9 21.0 L27.2 21.0 Q26.7 20.9 26.55 20.3 26.7 19.7 27.2 19.6 L30.9 19.6 33.15 19.2 34.0 18.35 34.2 17.25 34.1 16.55 33.5 15.9 33.4 15.85 33.45 15.85 33.45 15.2 M11.35 2.25 Q8.8 2.3 6.8 3.45 4.75 4.55 3.6 6.55 L3.25 7.15 Q2.4 8.85 2.35 10.95 L2.35 45.8 Q2.4 48.25 3.6 50.2 4.7 52.1 6.75 53.25 7.45 53.65 8.25 53.9 L11.25 54.4 50.25 54.4 Q50.8 54.45 50.95 55.1 50.8 55.75 50.25 55.8 L11.25 55.8 8.25 55.4 Q7.05 55.05 6.0 54.45 3.7 53.15 2.35 50.9 1.05 48.65 1.0 45.8 L1.0 10.95 Q1.05 8.9 1.75 7.15 L2.4 5.8 Q3.75 3.6 6.1 2.2 8.4 0.95 11.35 0.9 11.95 0.95 12.0 1.6 11.95 2.2 11.35 2.25" fill="#000000" fill-opacity="0.2" fill-rule="evenodd" stroke="none"/>
    <path d="M33.45 15.2 L32.95 15.05" fill="none" stroke="#ffffff" stroke-linecap="round" stroke-linejoin="round" stroke-width="1.4500000000000002"/>
    <path d="M51.9 33.45 L45.65 37.8 46.25 41.65 46.2 42.05 45.75 42.35 45.3 42.25 45.0 41.9 44.65 40.05 44.3 37.6 Q44.2 37.2 44.55 36.95 L49.3 33.55 44.2 33.55 Q43.65 33.5 43.5 33.0 L42.7 27.55 39.35 33.2 38.9 33.45 38.4 33.45 38.1 33.0 38.2 32.5 42.45 25.2 Q42.7 24.85 43.2 24.9 43.6 25.0 43.7 25.45 L44.75 32.25 51.55 32.25 Q52.0 32.25 52.15 32.7 52.25 33.15 51.9 33.45 M21.5 12.25 L21.25 13.4 21.2 13.4 21.15 13.75 17.55 30.9 22.05 30.9 23.6 23.3 Q23.75 22.8 24.3 22.75 L28.15 22.75 Q31.8 22.75 31.85 26.5 L31.75 28.6 31.65 30.25 31.75 30.9 31.9 31.6 31.9 32.1 31.55 32.45 31.25 32.5 Q30.85 32.45 30.6 32.15 L30.35 31.15 30.25 30.25 30.35 28.5 30.45 26.5 Q30.45 25.2 29.9 24.7 29.4 24.1 28.15 24.15 L24.85 24.15 23.2 31.7 22.6 32.25 16.7 32.25 16.15 31.95 16.0 31.4 19.8 13.55 20.05 12.15 Q20.15 11.55 20.85 11.45 21.5 11.7 21.5 12.25 M32.45 14.2 L32.45 13.45 33.2 13.8 Q34.0 14.3 34.3 14.95 L34.5 16.25 Q34.55 17.15 34.2 17.9 33.85 18.8 32.85 19.35 31.9 19.95 29.9 20.0 L26.2 20.0 Q25.7 19.9 25.55 19.3 25.7 18.7 26.2 18.6 L29.9 18.6 32.15 18.2 33.0 17.35 33.2 16.25 33.1 15.55 Q33.0 15.25 32.5 14.9 L32.4 14.85 32.45 14.85 32.45 14.2 M10.35 1.25 Q7.8 1.3 5.8 2.45 3.75 3.55 2.6 5.55 L2.25 6.15 Q1.4 7.85 1.35 9.95 L1.35 44.8 Q1.4 47.25 2.6 49.2 3.7 51.1 5.75 52.25 6.45 52.65 7.25 52.9 L10.25 53.4 49.25 53.4 Q49.8 53.45 49.95 54.1 49.8 54.75 49.25 54.8 L10.25 54.8 7.25 54.4 5.0 53.45 Q2.7 52.15 1.35 49.9 0.05 47.65 0.0 44.8 L0.0 9.95 Q0.05 7.9 0.75 6.15 L1.4 4.8 Q2.75 2.6 5.1 1.2 7.4 -0.05 10.35 -0.1 10.95 -0.05 11.0 0.6 10.95 1.2 10.35 1.25" fill="#ffffff" fill-rule="evenodd" stroke="none"/>
    <path d="M32.45 14.2 L31.95 14.05" fill="none" stroke="#ffffff" stroke-linecap="round" stroke-linejoin="round" stroke-width="1.4500000000000002"/>
  </g>
</svg>
