<?xml version="1.0" encoding="UTF-8" standalone="no"?>
<svg xmlns:ffdec="https://www.free-decompiler.com/flash" xmlns:xlink="http://www.w3.org/1999/xlink" ffdec:objectType="shape" height="55.9px" width="60.8px" xmlns="http://www.w3.org/2000/svg">
  <g transform="matrix(1.0, 0.0, 0.0, 1.0, 0.0, 0.1)">
    <path d="M55.8 2.2 Q58.1 3.6 59.4 5.8 60.75 8.1 60.8 10.95 L60.8 45.8 Q60.75 48.6 59.4 50.9 58.05 53.1 55.75 54.45 53.45 55.75 50.55 55.8 L11.25 55.8 8.25 55.4 Q7.05 55.05 6.0 54.45 3.7 53.15 2.35 50.9 1.05 48.65 1.0 45.8 L1.0 10.95 Q1.05 8.9 1.75 7.15 L2.4 5.8 Q3.75 3.6 6.1 2.2 8.4 0.95 11.35 0.9 11.95 0.95 12.0 1.6 11.95 2.2 11.35 2.25 8.8 2.3 6.8 3.45 4.75 4.55 3.6 6.55 L3.25 7.15 Q2.4 8.85 2.35 10.95 L2.35 45.8 Q2.4 48.25 3.6 50.2 4.7 52.1 6.75 53.25 7.45 53.65 8.25 53.9 L11.25 54.4 50.55 54.4 Q53.05 54.35 55.05 53.25 57.05 52.1 58.2 50.2 59.35 48.25 59.4 45.8 L59.4 10.95 Q59.35 8.5 58.2 6.55 57.05 4.55 55.1 3.45 53.15 2.3 50.65 2.25 L38.1 2.25 Q37.55 2.2 37.45 1.6 37.55 0.95 38.1 0.9 L50.65 0.9 Q53.5 0.95 55.8 2.2 M53.15 33.7 L52.9 34.45 46.65 38.8 47.65 45.65 Q47.7 46.1 47.3 46.35 L46.6 46.3 41.15 42.2 34.0 46.55 33.6 46.65 Q33.35 46.65 33.15 46.45 32.8 46.05 33.0 45.6 L35.95 39.25 36.3 38.65 36.85 38.6 37.3 38.9 37.35 39.45 35.7 43.05 35.1 44.25 40.95 40.75 41.6 40.85 46.05 44.25 45.3 38.6 Q45.2 38.2 45.55 37.95 L50.3 34.55 45.2 34.55 44.5 34.0 43.7 28.55 40.35 34.2 39.9 34.45 39.4 34.45 39.1 34.0 39.2 33.5 43.45 26.2 Q43.7 25.85 44.2 25.9 44.6 26.0 44.7 26.45 L45.75 33.25 52.55 33.25 Q53.0 33.25 53.15 33.7 M37.95 11.1 Q38.55 11.35 39.15 11.9 40.05 12.7 40.4 13.8 41.05 15.8 40.45 18.1 39.85 20.35 38.2 21.4 39.85 20.35 40.45 18.1 41.05 15.8 40.4 13.8 40.05 12.7 39.15 11.9 38.55 11.35 37.95 11.1 M38.2 21.4 L37.0 21.25 38.3 20.5 Q39.3 19.55 39.65 18.45 40.05 17.25 40.05 16.1 40.1 13.45 38.5 12.25 36.95 11.0 33.45 11.05 L22.9 11.05 18.55 31.9 23.05 31.9 24.6 24.3 Q24.75 23.8 25.3 23.75 L29.15 23.75 Q32.8 23.75 32.85 27.5 L32.75 29.6 32.65 31.25 32.75 31.9 32.9 32.6 32.9 33.1 32.55 33.45 32.25 33.5 31.6 33.15 31.35 32.15 31.25 31.25 31.35 29.5 31.45 27.5 Q31.45 26.2 30.9 25.7 30.4 25.1 29.15 25.15 L25.85 25.15 24.2 32.7 Q24.05 33.15 23.6 33.25 L17.7 33.25 Q17.35 33.2 17.15 32.95 16.95 32.75 17.0 32.4 L21.7 10.2 Q21.85 9.75 22.35 9.7 L33.45 9.7 37.15 10.05 Q38.95 10.55 40.1 11.9 41.3 13.35 41.35 16.1 41.35 18.6 40.25 20.2 L39.25 21.45 38.2 21.4 M26.95 17.35 L26.25 17.35 26.75 14.8 Q26.9 14.3 27.4 14.2 L31.75 14.2 Q33.4 14.25 34.2 14.8 35.0 15.3 35.3 15.95 L35.5 17.25 Q35.55 18.15 35.2 18.9 34.85 19.8 33.85 20.35 32.9 20.95 30.9 21.0 L27.25 21.0 Q26.7 20.95 26.55 20.3 26.7 19.65 27.25 19.6 L30.9 19.6 33.15 19.2 34.0 18.35 34.2 17.25 34.1 16.55 33.5 15.9 31.75 15.6 28.0 15.6 27.6 17.35 26.95 17.35 27.45 14.95 26.95 17.35" fill="#000000" fill-opacity="0.2" fill-rule="evenodd" stroke="none"/>
    <path d="M38.2 21.4 Q39.85 20.35 40.45 18.1 41.05 15.8 40.4 13.8 40.05 12.7 39.15 11.9 38.55 11.35 37.95 11.1 M38.2 21.4 L37.45 21.8 M26.95 17.35 L27.45 14.95 M26.95 17.35 L26.7 18.65" fill="none" stroke="#ffffff" stroke-linecap="round" stroke-linejoin="round" stroke-width="1.35"/>
    <path d="M49.65 -0.1 Q52.5 -0.05 54.8 1.2 57.1 2.6 58.4 4.8 59.75 7.1 59.8 9.95 L59.8 44.8 Q59.75 47.6 58.4 49.9 57.05 52.1 54.75 53.45 52.45 54.75 49.55 54.8 L10.25 54.8 7.25 54.4 5.0 53.45 Q2.7 52.15 1.35 49.9 0.05 47.65 0.0 44.8 L0.0 9.95 Q0.05 7.9 0.75 6.15 L1.4 4.8 Q2.75 2.6 5.1 1.2 7.4 -0.05 10.35 -0.1 10.95 -0.05 11.0 0.6 10.95 1.2 10.35 1.25 7.8 1.3 5.8 2.45 3.75 3.55 2.6 5.55 L2.25 6.15 Q1.4 7.85 1.35 9.95 L1.35 44.8 Q1.4 47.25 2.6 49.2 3.7 51.1 5.75 52.25 6.45 52.65 7.25 52.9 L10.25 53.4 49.55 53.4 Q52.05 53.35 54.05 52.25 56.05 51.1 57.2 49.2 58.35 47.25 58.4 44.8 L58.4 9.95 Q58.35 7.5 57.2 5.55 56.05 3.55 54.1 2.45 52.15 1.3 49.65 1.25 L37.1 1.25 Q36.55 1.2 36.45 0.6 36.55 -0.05 37.1 -0.1 L49.65 -0.1 M52.15 32.7 Q52.25 33.15 51.9 33.45 L45.65 37.8 46.65 44.65 Q46.7 45.1 46.3 45.35 L45.6 45.3 40.15 41.2 33.0 45.55 32.6 45.65 Q32.35 45.65 32.15 45.45 31.8 45.05 32.0 44.6 L34.95 38.25 35.3 37.65 35.85 37.6 36.3 37.9 36.35 38.45 34.7 42.05 34.1 43.25 39.95 39.75 40.6 39.85 45.05 43.25 44.3 37.6 Q44.2 37.2 44.55 36.95 L49.3 33.55 44.2 33.55 Q43.65 33.5 43.5 33.0 L42.7 27.55 39.35 33.2 38.9 33.45 38.4 33.45 38.1 33.0 38.2 32.5 42.45 25.2 Q42.7 24.85 43.2 24.9 43.6 25.0 43.7 25.45 L44.75 32.25 51.55 32.25 Q52.0 32.25 52.15 32.7 M37.2 20.4 L36.0 20.25 37.3 19.5 Q38.3 18.55 38.65 17.45 39.05 16.25 39.05 15.1 39.1 12.45 37.5 11.25 35.95 10.0 32.45 10.05 L21.9 10.05 17.55 30.9 22.05 30.9 23.6 23.3 Q23.75 22.8 24.3 22.75 L28.15 22.75 Q31.8 22.75 31.85 26.5 L31.75 28.6 31.65 30.25 31.75 30.9 31.9 31.6 31.9 32.1 31.55 32.45 31.25 32.5 Q30.85 32.45 30.6 32.15 L30.35 31.15 30.25 30.25 30.35 28.5 30.45 26.5 Q30.45 25.2 29.9 24.7 29.4 24.1 28.15 24.15 L24.85 24.15 23.2 31.7 22.6 32.25 16.7 32.25 16.15 31.95 16.0 31.4 20.7 9.2 Q20.85 8.75 21.35 8.7 L32.45 8.7 36.15 9.05 Q37.95 9.55 39.1 10.9 40.3 12.35 40.35 15.1 40.35 17.6 39.25 19.2 L38.25 20.45 37.2 20.4 Q38.85 19.35 39.45 17.1 40.05 14.8 39.4 12.8 39.05 11.7 38.15 10.9 37.55 10.35 36.95 10.1 37.55 10.35 38.15 10.9 39.05 11.7 39.4 12.8 40.05 14.8 39.45 17.1 38.85 19.35 37.2 20.4 M26.45 13.95 L25.95 16.35 26.45 13.95 M25.95 16.35 L25.25 16.35 25.75 13.8 Q25.9 13.3 26.4 13.2 L30.75 13.2 Q32.4 13.25 33.2 13.8 34.0 14.3 34.3 14.95 L34.5 16.25 Q34.55 17.15 34.2 17.9 33.85 18.8 32.85 19.35 31.9 19.95 29.9 20.0 L26.25 20.0 Q25.7 19.95 25.55 19.3 25.7 18.65 26.25 18.6 L29.9 18.6 32.15 18.2 33.0 17.35 33.2 16.25 33.1 15.55 Q33.0 15.25 32.5 14.9 L30.75 14.6 27.0 14.6 26.6 16.35 25.95 16.35" fill="#ffffff" fill-rule="evenodd" stroke="none"/>
    <path d="M37.2 20.4 Q38.85 19.35 39.45 17.1 40.05 14.8 39.4 12.8 39.05 11.7 38.15 10.9 37.55 10.35 36.95 10.1 M25.95 16.35 L26.45 13.95 M25.95 16.35 L25.7 17.65 M37.2 20.4 L36.45 20.8" fill="none" stroke="#ffffff" stroke-linecap="round" stroke-linejoin="round" stroke-width="1.35"/>
  </g>
</svg>
