<?xml version="1.0" encoding="UTF-8" standalone="no"?>
<svg xmlns:ffdec="https://www.free-decompiler.com/flash" xmlns:xlink="http://www.w3.org/1999/xlink" ffdec:objectType="shape" height="57.8px" width="63.0px" xmlns="http://www.w3.org/2000/svg">
  <g transform="matrix(1.0, 0.0, 0.0, 1.0, 1.1, 1.0)">
    <path d="M25.85 20.0 L27.05 14.2 31.8 14.2 Q33.15 14.15 34.15 14.65 35.15 15.2 35.2 16.7 35.15 18.6 33.95 19.35 32.7 20.0 30.95 20.0 L25.85 20.0 M40.6 34.95 L41.25 33.85 42.65 31.45 44.0 29.2 44.4 31.5 44.8 33.95 44.95 35.05 45.95 35.05 48.05 35.05 50.35 35.05 48.3 36.45 46.35 37.8 45.45 38.4 45.7 39.55 46.0 42.0 46.35 44.3 44.5 42.85 42.55 41.4 41.7 40.75 40.6 41.35 38.15 42.8 35.75 44.2 36.9 41.85 38.0 39.5 38.45 38.4 37.9 37.8 36.55 36.4 35.2 34.95 37.4 34.95 39.55 34.95 40.6 34.95 M54.05 33.85 L52.9 33.85 50.3 33.85 47.55 33.85 45.95 33.85 45.7 32.2 45.2 29.5 44.85 26.9 44.65 25.75 43.95 26.95 42.4 29.6 40.8 32.3 39.9 33.8 39.05 33.8 38.45 32.2 38.25 30.7 38.3 28.55 38.35 26.15 Q38.35 24.45 37.8 23.45 37.25 22.5 35.9 22.2 L35.9 22.15 Q38.8 21.7 40.15 19.95 41.5 18.2 41.5 15.45 41.45 11.65 39.25 10.4 37.05 9.1 33.65 9.2 L21.6 9.2 16.55 33.2 22.9 33.2 24.8 24.45 29.05 24.45 Q30.7 24.45 31.45 25.3 32.2 26.1 32.2 27.75 L32.05 31.8 32.15 32.8 32.45 33.8 33.55 34.95 35.65 37.15 37.05 38.6 36.3 40.2 34.95 43.15 33.65 45.95 33.1 47.15 34.3 46.45 37.1 44.8 39.95 43.05 41.6 42.15 42.85 43.05 44.95 44.75 46.95 46.3 47.9 46.95 47.75 45.8 47.35 43.2 46.9 40.5 46.7 38.95 48.05 38.0 50.55 36.25 52.95 34.55 54.05 33.85 M51.95 0.0 Q54.75 0.05 57.0 1.3 59.25 2.6 60.55 4.8 61.85 7.05 61.9 9.8 L61.9 47.0 Q61.85 49.75 60.55 52.0 59.2 54.15 56.95 55.45 54.7 56.75 51.85 56.8 L9.95 56.8 Q7.1 56.75 4.8 55.45 2.6 54.15 1.25 52.0 -0.05 49.75 -0.1 47.0 L-0.1 9.8 Q-0.05 7.05 1.25 4.8 2.6 2.6 4.85 1.3 7.15 0.05 10.05 0.0 L51.95 0.0" fill="#000000" fill-opacity="0.2" fill-rule="evenodd" stroke="none"/>
    <path d="M24.85 19.0 L26.05 13.2 30.8 13.2 Q32.15 13.15 33.15 13.65 34.15 14.2 34.2 15.7 34.15 17.6 32.95 18.35 31.7 19.0 29.95 19.0 L24.85 19.0 M41.65 30.45 L43.0 28.2 43.4 30.5 43.8 32.95 43.95 34.05 44.95 34.05 47.05 34.05 49.35 34.05 47.3 35.45 45.35 36.8 44.45 37.4 44.7 38.55 45.0 41.0 45.35 43.3 43.5 41.85 41.55 40.4 40.7 39.75 39.6 40.35 37.15 41.8 34.75 43.2 35.9 40.85 37.0 38.5 37.45 37.4 36.9 36.8 35.55 35.4 34.2 33.95 36.4 33.95 38.55 33.95 39.6 33.95 40.25 32.85 41.65 30.45 M53.05 32.85 L51.9 32.85 49.3 32.85 46.55 32.85 44.95 32.85 44.7 31.2 44.2 28.5 43.85 25.9 43.65 24.75 42.95 25.95 41.4 28.6 39.8 31.3 38.9 32.8 38.05 32.8 37.45 31.2 37.25 29.7 37.3 27.55 37.35 25.15 Q37.35 23.45 36.8 22.45 36.25 21.5 34.9 21.2 L34.9 21.15 Q37.8 20.7 39.15 18.95 40.5 17.2 40.5 14.45 40.45 10.65 38.25 9.4 36.05 8.1 32.65 8.2 L20.6 8.2 15.55 32.2 21.9 32.2 23.8 23.45 28.05 23.45 Q29.7 23.45 30.45 24.3 31.2 25.1 31.2 26.75 L31.05 30.8 31.15 31.8 31.45 32.8 32.55 33.95 34.65 36.15 36.05 37.6 35.3 39.2 33.95 42.15 32.65 44.95 32.1 46.15 33.3 45.45 36.1 43.8 38.95 42.05 40.6 41.15 41.85 42.05 43.95 43.75 45.95 45.3 46.9 45.95 46.75 44.8 46.35 42.2 45.9 39.5 45.7 37.95 47.05 37.0 49.55 35.25 51.95 33.55 53.05 32.85 M9.05 -1.0 L50.95 -1.0 Q53.75 -0.95 56.0 0.3 58.25 1.6 59.55 3.8 60.85 6.05 60.9 8.8 L60.9 46.0 Q60.85 48.75 59.55 51.0 58.2 53.15 55.95 54.45 53.7 55.75 50.85 55.8 L8.95 55.8 Q6.1 55.75 3.8 54.45 1.6 53.15 0.25 51.0 -1.05 48.75 -1.1 46.0 L-1.1 8.8 Q-1.05 6.05 0.25 3.8 1.6 1.6 3.85 0.3 6.15 -0.95 9.05 -1.0" fill="#ffffff" fill-rule="evenodd" stroke="none"/>
  </g>
</svg>
