<?xml version="1.0" encoding="UTF-8" standalone="no"?>
<svg xmlns:ffdec="https://www.free-decompiler.com/flash" xmlns:xlink="http://www.w3.org/1999/xlink" ffdec:objectType="shape" height="530.95px" width="396.45px" xmlns="http://www.w3.org/2000/svg">
  <g transform="matrix(1.0, 0.0, 0.0, 1.0, 214.95, 299.95)">
    <path d="M71.0 -292.95 L71.0 -299.95 157.0 -299.95 157.0 -282.95 171.0 -282.95 171.0 -151.45 181.5 -151.45 181.5 138.0 171.0 138.0 171.0 217.0 141.0 217.0 141.0 231.0 -167.45 231.0 -167.45 217.0 -201.45 217.0 -201.45 138.0 -214.95 138.0 -214.95 -151.45 -201.45 -151.45 -201.45 -282.95 -191.45 -282.95 -191.45 -299.95 -104.95 -299.95 -104.95 -292.95 71.0 -292.95" fill="#5a5a5a" fill-rule="evenodd" stroke="none"/>
    <path d="M126.0 -117.45 L121.0 -117.45 121.0 -108.95 125.0 -108.95 Q122.0 -22.45 118.5 64.0 L108.5 143.0 105.0 143.0 Q105.0 150.0 104.5 156.5 103.0 163.5 101.0 170.0 L98.0 177.0 91.0 186.5 79.5 177.0 85.0 170.0 Q86.0 168.0 86.5 166.0 L89.5 154.0 Q90.0 148.5 90.0 143.0 L87.5 143.0 47.5 155.0 21.05 160.0 -31.45 160.0 -59.95 155.0 -95.95 143.0 -99.95 143.0 -99.95 146.0 -98.95 154.0 -95.95 166.0 Q-94.95 168.0 -94.45 170.0 -91.45 173.5 -88.95 177.0 L-100.95 186.5 -107.95 177.0 -113.95 156.5 -114.95 146.0 -114.95 143.0 -118.95 143.0 Q-124.45 103.5 -130.45 64.0 L-136.45 -108.95 -133.95 -108.95 -133.95 -117.45 -135.45 -117.45 -135.45 -183.95 -132.45 -183.95 -132.45 -187.95 123.5 -187.95 123.5 -183.95 126.0 -183.95 126.0 -117.45" fill="#959595" fill-rule="evenodd" stroke="none"/>
    <path d="M6.05 -221.45 L6.05 -189.95 -51.45 -189.95 -51.45 -221.45 6.05 -221.45" fill="#959595" fill-rule="evenodd" stroke="none"/>
    <path d="M118.0 -109.95 L91.0 -109.95 91.0 -114.95 118.0 -114.95 118.0 -109.95" fill="#ffffff" fill-rule="evenodd" stroke="none"/>
    <path d="M-101.95 -109.95 L-128.95 -109.95 -128.95 -114.95 -101.95 -114.95 -101.95 -109.95" fill="#ffffff" fill-rule="evenodd" stroke="none"/>
    <path d="M78.0 45.55 L64.5 43.05 -6.45 40.05 -76.95 43.05 -90.45 45.55 -91.45 39.55 -77.4 37.05 -6.45 34.05 64.6 37.45 79.0 39.55 78.0 45.55 M78.0 35.25 L64.5 32.75 -6.45 29.75 -76.95 32.75 -90.45 35.25 -91.45 29.25 -77.4 26.75 -6.45 23.75 64.6 27.15 79.0 29.25 78.0 35.25 M64.5 53.95 L-6.45 50.95 -76.95 53.95 -90.45 56.45 -91.45 50.45 -77.4 47.95 -6.45 44.95 64.6 48.35 79.0 50.45 78.0 56.45 64.5 53.95 M79.0 61.55 L78.0 67.55 64.5 65.05 -6.45 62.05 -76.95 65.05 -90.45 67.55 -91.45 61.55 -77.4 59.05 -6.45 56.05 64.6 59.45 79.0 61.55 M79.0 73.15 L78.0 79.15 64.5 76.65 -6.45 73.65 -76.95 76.65 -90.45 79.15 -91.45 73.15 -77.4 70.65 -6.45 67.65 64.6 71.05 79.0 73.15 M64.5 88.0 L-6.45 85.0 -76.95 88.0 -90.45 90.5 -91.45 84.5 -77.4 82.0 -6.45 79.0 64.6 82.4 79.0 84.5 78.0 90.5 64.5 88.0 M79.0 96.0 L78.0 102.0 64.5 99.5 -6.45 96.5 -76.95 99.5 -90.45 102.0 -91.45 96.0 -77.4 93.5 -6.45 90.5 64.6 93.9 79.0 96.0 M79.0 107.5 L78.0 113.5 64.5 111.0 -6.45 108.0 -76.95 111.0 -90.45 113.5 -91.45 107.5 -77.4 105.0 -6.45 102.0 64.6 105.4 79.0 107.5" fill="#6f6f6f" fill-rule="evenodd" stroke="none"/>
    <path d="M-33.95 -9.95 L-33.95 -3.95 -74.95 -3.95 -74.95 -9.95 -33.95 -9.95" fill="#6f6f6f" fill-rule="evenodd" stroke="none"/>
    <path d="M66.0 -16.45 L-77.45 -16.45 -77.45 -22.45 66.0 -22.45 66.0 -16.45" fill="#6f6f6f" fill-rule="evenodd" stroke="none"/>
    <path d="M66.0 -25.45 L-77.45 -25.45 -77.45 -31.45 66.0 -31.45 66.0 -25.45" fill="#6f6f6f" fill-rule="evenodd" stroke="none"/>
    <path d="M66.0 -34.95 L-77.45 -34.95 -77.45 -41.45 66.0 -41.45 66.0 -34.95" fill="#6f6f6f" fill-rule="evenodd" stroke="none"/>
    <path d="M66.0 -44.95 L-77.45 -44.95 -77.45 -50.45 66.0 -50.45 66.0 -44.95" fill="#6f6f6f" fill-rule="evenodd" stroke="none"/>
    <path d="M66.0 -53.95 L-77.45 -53.95 -77.45 -59.95 66.0 -59.95 66.0 -53.95" fill="#6f6f6f" fill-rule="evenodd" stroke="none"/>
    <path d="M66.0 -63.95 L-77.45 -63.95 -77.45 -69.95 66.0 -69.95 66.0 -63.95" fill="#6f6f6f" fill-rule="evenodd" stroke="none"/>
    <path d="M66.0 -72.95 L-77.45 -72.95 -77.45 -78.95 66.0 -78.95 66.0 -72.95" fill="#6f6f6f" fill-rule="evenodd" stroke="none"/>
    <path d="M66.0 -82.45 L-77.45 -82.45 -77.45 -88.95 66.0 -88.95 66.0 -82.45" fill="#6f6f6f" fill-rule="evenodd" stroke="none"/>
    <path d="M66.0 -92.45 L-77.45 -92.45 -77.45 -97.95 66.0 -97.95 66.0 -92.45" fill="#6f6f6f" fill-rule="evenodd" stroke="none"/>
    <path d="M66.0 -101.45 L-77.45 -101.45 -77.45 -107.45 66.0 -107.45 66.0 -101.45" fill="#6f6f6f" fill-rule="evenodd" stroke="none"/>
    <path d="M66.0 -111.45 L-77.45 -111.45 -77.45 -117.45 66.0 -117.45 66.0 -111.45" fill="#6f6f6f" fill-rule="evenodd" stroke="none"/>
    <path d="M66.0 -120.45 L-77.45 -120.45 -77.45 -126.45 66.0 -126.45 66.0 -120.45" fill="#6f6f6f" fill-rule="evenodd" stroke="none"/>
    <path d="M66.0 -129.95 L-77.45 -129.95 -77.45 -136.45 66.0 -136.45 66.0 -129.95" fill="#6f6f6f" fill-rule="evenodd" stroke="none"/>
    <path d="M66.0 -139.95 L-77.45 -139.95 -77.45 -145.45 66.0 -145.45 66.0 -139.95" fill="#6f6f6f" fill-rule="evenodd" stroke="none"/>
    <path d="M66.0 -148.95 L-77.45 -148.95 -77.45 -154.95 66.0 -154.95 66.0 -148.95" fill="#6f6f6f" fill-rule="evenodd" stroke="none"/>
    <path d="M66.0 -158.95 L-77.45 -158.95 -77.45 -164.95 66.0 -164.95 66.0 -158.95" fill="#6f6f6f" fill-rule="evenodd" stroke="none"/>
    <path d="M66.0 -167.95 L-77.45 -167.95 -77.45 -173.95 66.0 -173.95 66.0 -167.95" fill="#6f6f6f" fill-rule="evenodd" stroke="none"/>
    <path d="M66.0 -177.45 L-77.45 -177.45 -77.45 -183.95 66.0 -183.95 66.0 -177.45" fill="#6f6f6f" fill-rule="evenodd" stroke="none"/>
    <path d="M-129.95 -175.45 Q-129.95 -177.95 -130.45 -180.95 L-101.95 -183.95 Q-101.45 -180.95 -101.45 -178.45 L-129.95 -175.45" fill="#6f6f6f" fill-rule="evenodd" stroke="none"/>
    <path d="M-129.95 -166.45 Q-129.95 -168.95 -130.45 -171.95 L-101.95 -174.95 Q-101.45 -171.95 -101.45 -169.45 L-129.95 -166.45" fill="#6f6f6f" fill-rule="evenodd" stroke="none"/>
    <path d="M-129.95 -157.45 Q-129.95 -159.95 -130.45 -162.95 L-101.95 -165.95 Q-101.45 -162.95 -101.45 -160.45 L-129.95 -157.45" fill="#6f6f6f" fill-rule="evenodd" stroke="none"/>
    <path d="M-129.95 -148.45 Q-129.95 -150.95 -130.45 -153.95 L-101.95 -156.95 Q-101.45 -153.95 -101.45 -151.45 L-129.95 -148.45" fill="#6f6f6f" fill-rule="evenodd" stroke="none"/>
    <path d="M-129.95 -139.45 Q-129.95 -141.95 -130.45 -144.95 L-101.95 -147.95 Q-101.45 -144.95 -101.45 -142.45 L-129.95 -139.45" fill="#6f6f6f" fill-rule="evenodd" stroke="none"/>
    <path d="M-129.95 -130.45 Q-129.95 -132.95 -130.45 -135.95 L-101.95 -138.95 Q-101.45 -135.95 -101.45 -133.45 L-129.95 -130.45" fill="#6f6f6f" fill-rule="evenodd" stroke="none"/>
    <path d="M120.0 -175.45 L91.5 -178.45 Q92.0 -180.95 92.0 -183.95 L120.5 -180.95 Q120.5 -177.95 120.0 -175.45" fill="#6f6f6f" fill-rule="evenodd" stroke="none"/>
    <path d="M120.0 -166.45 L91.5 -169.45 Q92.0 -171.95 92.0 -174.95 L120.5 -171.95 Q120.5 -168.95 120.0 -166.45" fill="#6f6f6f" fill-rule="evenodd" stroke="none"/>
    <path d="M120.0 -157.45 L91.5 -160.45 Q92.0 -162.95 92.0 -165.95 L120.5 -162.95 Q120.5 -159.95 120.0 -157.45" fill="#6f6f6f" fill-rule="evenodd" stroke="none"/>
    <path d="M120.0 -148.45 L91.5 -151.45 Q92.0 -153.95 92.0 -156.95 L120.5 -153.95 Q120.5 -150.95 120.0 -148.45" fill="#6f6f6f" fill-rule="evenodd" stroke="none"/>
    <path d="M120.0 -139.45 L91.5 -142.45 Q92.0 -144.95 92.0 -147.95 L120.5 -144.95 Q120.5 -141.95 120.0 -139.45" fill="#6f6f6f" fill-rule="evenodd" stroke="none"/>
    <path d="M120.0 -130.45 L91.5 -133.45 Q92.0 -135.95 92.0 -138.95 L120.5 -135.95 Q120.5 -132.95 120.0 -130.45" fill="#6f6f6f" fill-rule="evenodd" stroke="none"/>
    <path d="M17.05 -9.95 L17.05 -3.95 -23.95 -3.95 -23.95 -9.95 17.05 -9.95" fill="#6f6f6f" fill-rule="evenodd" stroke="none"/>
    <path d="M65.0 -9.95 L65.0 -3.95 23.55 -3.95 23.55 -9.95 65.0 -9.95" fill="#6f6f6f" fill-rule="evenodd" stroke="none"/>
  </g>
</svg>
