<?xml version="1.0" encoding="UTF-8" standalone="no"?>
<svg xmlns:ffdec="https://www.free-decompiler.com/flash" xmlns:xlink="http://www.w3.org/1999/xlink" ffdec:objectType="shape" height="14.15px" width="14.15px" xmlns="http://www.w3.org/2000/svg">
  <g transform="matrix(1.0, 0.0, 0.0, 1.0, 7.05, 7.05)">
    <path d="M3.9 3.85 Q5.45 2.25 5.45 0.0 5.45 -2.25 3.9 -3.85 2.3 -5.45 0.05 -5.45 -1.75 -5.45 -3.2 -4.4 L0.6 -0.6 -0.55 0.6 -4.35 -3.2 Q-5.4 -1.75 -5.4 0.0 -5.4 2.25 -3.8 3.85 -2.2 5.45 0.05 5.45 2.3 5.45 3.9 3.85 M5.05 -5.0 Q7.1 -2.9 7.1 0.0 7.1 2.95 5.05 5.0 2.95 7.1 0.05 7.1 -2.85 7.1 -4.95 5.0 -7.05 2.95 -7.05 0.0 -7.05 -2.9 -4.95 -5.0 -2.9 -7.05 0.05 -7.05 3.0 -7.05 5.05 -5.0" fill="#ffffff" fill-rule="evenodd" stroke="none"/>
  </g>
</svg>
