<?xml version="1.0" encoding="UTF-8" standalone="no"?>
<svg xmlns:ffdec="https://www.free-decompiler.com/flash" xmlns:xlink="http://www.w3.org/1999/xlink" ffdec:objectType="shape" height="18.3px" width="18.4px" xmlns="http://www.w3.org/2000/svg">
  <g transform="matrix(1.0, 0.0, 0.0, 1.0, 9.2, 9.15)">
    <path d="M5.85 -9.15 L5.85 -5.75 1.55 -5.75 1.55 -9.15 5.85 -9.15" fill="#ffffff" fill-rule="evenodd" stroke="none"/>
    <path d="M-2.7 -5.75 L1.55 -5.75 1.55 -2.25 -2.7 -2.25 -2.7 -5.75" fill="#ffffff" fill-rule="evenodd" stroke="none"/>
    <path d="M1.55 -2.25 L5.85 -2.25 5.85 -0.4 4.75 -0.5 3.6 -0.25 1.55 0.5 1.55 -2.25" fill="#ffffff" fill-rule="evenodd" stroke="none"/>
    <path d="M-2.7 -9.15 L-2.7 -5.75 -6.95 -5.75 -6.95 -2.25 -2.7 -2.25 -2.7 1.2 -6.95 1.2 -6.95 8.4 -9.2 8.4 -9.2 -9.15 -2.7 -9.15" fill="#ffffff" fill-rule="evenodd" stroke="none"/>
    <path d="M4.2 0.85 L4.75 0.75 Q6.05 0.75 7.4 1.35 9.05 2.15 9.15 3.3 9.35 5.4 8.8 8.25 L1.3 9.15 0.65 7.5 Q0.6 7.2 1.1 6.25 L1.65 5.4 2.65 6.55 5.35 5.8 5.45 4.8 Q5.3 3.8 4.15 3.65 L1.9 3.65 -0.5 2.1 Q1.9 2.1 4.2 0.85" fill="#ffffff" fill-rule="evenodd" stroke="none"/>
  </g>
</svg>
