<?xml version="1.0" encoding="UTF-8" standalone="no"?>
<svg xmlns:ffdec="https://www.free-decompiler.com/flash" xmlns:xlink="http://www.w3.org/1999/xlink" ffdec:objectType="shape" height="19.2px" width="18.45px" xmlns="http://www.w3.org/2000/svg">
  <g transform="matrix(1.0, 0.0, 0.0, 1.0, 9.2, 9.6)">
    <path d="M-2.65 -6.15 L1.6 -6.15 1.6 -2.65 -2.65 -2.65 -2.65 -6.15" fill="#ffffff" fill-rule="evenodd" stroke="none"/>
    <path d="M-2.65 -9.6 L-2.65 -6.15 -6.9 -6.15 -6.9 -2.65 -2.65 -2.65 -2.65 0.8 -6.9 0.8 -6.9 8.0 -9.2 8.0 -9.2 -9.6 -2.65 -9.6" fill="#ffffff" fill-rule="evenodd" stroke="none"/>
    <path d="M5.85 -9.6 L5.85 -6.15 1.6 -6.15 1.6 -9.6 5.85 -9.6" fill="#ffffff" fill-rule="evenodd" stroke="none"/>
    <path d="M1.6 -2.65 L5.85 -2.65 5.85 0.35 5.5 0.8 4.35 0.8 1.85 0.1 1.6 0.05 1.6 -2.65" fill="#ffffff" fill-rule="evenodd" stroke="none"/>
    <path d="M1.5 1.3 L5.75 2.55 7.25 0.65 7.6 0.35 8.4 0.1 8.8 0.25 Q9.35 0.7 8.75 1.85 L7.2 3.7 9.25 7.6 8.25 8.8 5.6 5.5 3.6 7.75 4.15 8.7 3.45 9.6 2.2 8.25 0.75 7.4 1.45 6.5 2.55 6.85 4.35 4.45 0.5 2.55 1.5 1.3" fill="#ffffff" fill-rule="evenodd" stroke="none"/>
  </g>
</svg>
