<?xml version="1.0" encoding="UTF-8" standalone="no"?>
<svg xmlns:ffdec="https://www.free-decompiler.com/flash" xmlns:xlink="http://www.w3.org/1999/xlink" ffdec:objectType="shape" height="21.0px" width="21.0px" xmlns="http://www.w3.org/2000/svg">
  <g transform="matrix(1.0, 0.0, 0.0, 1.0, 10.5, 10.5)">
    <path d="M8.7 -10.5 L10.5 -8.7 7.4 -5.5 Q6.8 -6.6 5.7 -7.55 L8.7 -10.5" fill="#ffffff" fill-rule="evenodd" stroke="none"/>
    <path d="M-5.3 6.65 L-4.95 6.85 -8.7 10.5 -10.5 8.65 -6.95 5.05 -6.4 5.8 -5.3 6.65" fill="#ffffff" fill-rule="evenodd" stroke="none"/>
    <path d="M6.35 5.8 L7.0 5.1 10.5 8.7 8.7 10.5 5.0 6.85 5.1 6.8 6.35 5.8" fill="#ffffff" fill-rule="evenodd" stroke="none"/>
    <path d="M-10.5 -8.7 L-8.7 -10.5 -5.65 -7.55 Q-6.7 -6.7 -7.35 -5.5 L-10.5 -8.7" fill="#ffffff" fill-rule="evenodd" stroke="none"/>
    <path d="M-0.45 2.6 Q-0.95 2.8 -0.95 3.2 L-0.95 4.35 Q-0.85 5.2 -0.3 5.25 L0.45 5.25 Q0.95 5.2 1.05 4.35 L1.05 3.2 Q1.05 2.8 0.55 2.6 L0.05 2.5 -0.45 2.6 M-2.4 -0.8 Q-3.1 -0.8 -4.05 -0.05 L-4.85 0.65 Q-5.2 1.8 -4.75 2.65 L-4.2 3.25 -3.6 3.45 -2.55 3.25 -1.15 1.55 Q-0.85 1.15 -0.9 0.65 -0.85 0.1 -1.6 -0.4 L-2.3 -0.8 -2.4 -0.8 M0.85 0.95 Q0.9 1.3 1.1 1.55 L1.65 2.3 2.5 3.2 3.5 3.4 4.1 3.2 4.6 2.6 Q5.05 1.8 4.7 0.65 3.45 -0.75 2.35 -0.75 L2.25 -0.75 1.55 -0.35 Q0.8 0.1 0.85 0.65 L0.85 0.95 M0.2 -7.8 Q1.8 -7.8 3.3 -7.1 6.0 -5.9 6.6 -3.0 L6.6 -2.95 6.7 -1.0 6.6 2.1 Q6.3 3.55 5.35 4.55 L4.35 5.35 4.05 5.45 3.75 5.35 3.45 5.1 3.35 5.25 3.05 6.55 Q2.4 7.75 0.55 7.75 L-0.55 7.75 Q-2.4 7.75 -3.05 6.55 L-3.3 5.25 -3.4 5.1 -3.7 5.35 -4.05 5.45 -4.3 5.35 -5.2 4.65 -6.25 3.0 -6.55 2.1 -6.7 -1.0 -6.6 -2.95 -6.55 -3.0 Q-6.0 -5.9 -3.3 -7.1 L-0.15 -7.8 0.2 -7.8" fill="#ffffff" fill-rule="evenodd" stroke="none"/>
  </g>
</svg>
