<?xml version="1.0" encoding="UTF-8" standalone="no"?>
<svg xmlns:ffdec="https://www.free-decompiler.com/flash" xmlns:xlink="http://www.w3.org/1999/xlink" ffdec:objectType="shape" height="16.0px" width="28.0px" xmlns="http://www.w3.org/2000/svg">
  <g transform="matrix(1.0, 0.0, 0.0, 1.0, 0.0, 0.0)">
    <path d="M24.0 0.0 L28.0 0.0 28.0 16.0 24.0 16.0 24.0 0.0 M22.0 16.0 L18.0 16.0 18.0 3.0 22.0 3.0 22.0 16.0 M16.0 6.0 L16.0 16.0 12.0 16.0 12.0 6.0 16.0 6.0 M10.0 10.0 L10.0 16.0 6.0 16.0 6.0 10.0 10.0 10.0 M0.0 13.0 L4.0 13.0 4.0 16.0 0.0 16.0 0.0 15.95 0.0 13.0" fill="#ffffff" fill-rule="evenodd" stroke="none"/>
  </g>
</svg>
