<?xml version="1.0" encoding="UTF-8" standalone="no"?>
<svg xmlns:ffdec="https://www.free-decompiler.com/flash" xmlns:xlink="http://www.w3.org/1999/xlink" ffdec:objectType="shape" height="25.0px" width="21.0px" xmlns="http://www.w3.org/2000/svg">
  <g transform="matrix(1.0, 0.0, 0.0, 1.0, 10.0, 13.0)">
    <path d="M3.05 -9.6 L3.0 -5.0 7.6 -5.0 3.05 -9.6 M1.0 -4.0 L1.05 -11.0 -7.95 -10.95 -8.0 10.0 9.0 10.0 9.0 -3.0 2.0 -3.0 1.3 -3.3 1.0 -4.0 M2.05 -13.0 L2.75 -12.7 2.8 -12.7 2.9 -12.55 10.5 -4.85 10.7 -4.7 11.0 -4.0 11.0 11.0 10.7 11.7 10.0 12.0 -9.0 12.0 -9.7 11.7 -10.0 11.0 -9.95 -11.95 -9.65 -12.65 -8.95 -12.95 2.05 -13.0" fill="#ffffff" fill-rule="evenodd" stroke="none"/>
  </g>
</svg>
