<?xml version="1.0" encoding="UTF-8" standalone="no"?>
<svg xmlns:ffdec="https://www.free-decompiler.com/flash" xmlns:xlink="http://www.w3.org/1999/xlink" ffdec:objectType="shape" height="91.25px" width="140.85px" xmlns="http://www.w3.org/2000/svg">
  <g transform="matrix(1.0, 0.0, 0.0, 1.0, 70.4, 45.6)">
    <path d="M18.55 -45.6 L55.6 -45.6 Q61.4 -45.6 65.8 -42.05 70.45 -38.3 70.45 -34.1 L70.45 34.25 Q70.45 38.5 65.8 42.2 61.25 45.65 55.6 45.65 L18.55 45.65 Q12.8 45.65 8.35 42.2 3.75 38.5 3.75 34.25 L3.75 -34.1 Q3.75 -38.3 8.35 -42.05 12.8 -45.6 18.55 -45.6 M33.4 -22.7 L33.4 22.85 40.8 22.85 40.8 -22.7 33.4 -22.7 M-55.6 -45.6 L-18.55 -45.6 Q-12.75 -45.6 -8.35 -42.05 -3.7 -38.25 -3.7 -34.1 L-3.7 -11.3 -33.35 -11.3 -33.35 -22.7 -40.75 -22.7 -40.75 22.85 -33.35 22.85 -33.35 -5.8 -3.7 -5.8 -3.7 45.65 -55.6 45.65 Q-61.35 45.65 -65.8 42.2 -70.4 38.5 -70.4 34.25 L-70.4 -34.1 Q-70.4 -38.3 -65.8 -42.05 -61.35 -45.6 -55.6 -45.6" fill="#ffffff" fill-rule="evenodd" stroke="none"/>
  </g>
</svg>
