<?xml version="1.0" encoding="UTF-8" standalone="no"?>
<svg xmlns:ffdec="https://www.free-decompiler.com/flash" xmlns:xlink="http://www.w3.org/1999/xlink" ffdec:objectType="shape" height="75.9px" width="78.1px" xmlns="http://www.w3.org/2000/svg">
  <g transform="matrix(1.0, 0.0, 0.0, 1.0, 47.55, 41.45)">
    <path d="M10.7 -10.45 Q10.45 -15.1 7.05 -18.35 3.6 -21.6 -1.1 -21.6 L-1.15 -21.6 Q-5.8 -21.6 -9.25 -18.35 -12.65 -15.1 -12.9 -10.45 L-12.85 -9.8 -12.95 -9.8 -12.95 5.8 1.35 5.8 -23.1 30.25 -47.55 5.8 -32.75 5.8 -32.75 -11.1 Q-32.2 -23.75 -23.05 -32.6 -13.85 -41.45 -1.15 -41.45 L-1.1 -41.45 Q11.6 -41.45 20.8 -32.6 30.0 -23.75 30.5 -11.1 L30.55 34.45 10.7 34.45 10.7 -9.8 10.65 -9.8 10.7 -10.45" fill="#ffffff" fill-rule="evenodd" stroke="none"/>
  </g>
</svg>
