<?xml version="1.0" encoding="UTF-8" standalone="no"?>
<svg xmlns:ffdec="https://www.free-decompiler.com/flash" xmlns:xlink="http://www.w3.org/1999/xlink" ffdec:objectType="shape" height="550.8px" width="474.05px" xmlns="http://www.w3.org/2000/svg">
  <g transform="matrix(1.0, 0.0, 0.0, 1.0, 252.7, 242.25)">
    <path d="M-195.4 -242.25 L-44.45 -242.25 -44.45 -167.95 221.35 -167.95 221.35 308.55 -195.65 308.55 -195.65 100.55 -252.7 100.55 -252.7 -83.45 -195.4 -83.45 -195.4 -242.25" fill="#434343" fill-rule="evenodd" stroke="none"/>
    <path d="M116.65 170.3 L116.65 135.0 184.3 135.0 184.3 284.0 125.0 284.0 125.0 245.0 150.3 245.0 150.3 170.3 116.65 170.3" fill="#ffffff" fill-rule="evenodd" stroke="none"/>
    <path d="M125.0 185.0 L70.0 185.0 70.0 98.5 125.0 98.5 125.0 185.0" fill="#434343" fill-rule="evenodd" stroke="none"/>
    <path d="M-4.7 225.8 L-4.7 232.15 2.3 232.15 2.3 225.8 -4.7 225.8 M-131.35 225.8 L-131.35 232.15 -124.35 232.15 -124.35 225.8 -131.35 225.8 M-97.6 37.3 L-75.35 37.3 -75.35 61.55 -80.6 61.55 -80.6 63.15 -75.35 63.15 -75.35 130.65 -110.5 130.65 -110.5 132.0 120.3 131.65 120.3 242.25 125.0 242.25 125.0 301.0 63.3 301.0 63.3 297.0 58.0 297.0 58.0 301.0 18.0 301.0 18.0 302.3 -20.2 302.3 -20.2 301.0 -59.7 301.0 -59.7 297.0 -66.0 297.0 -66.0 301.0 -73.0 301.0 -73.0 302.3 -153.2 302.3 -153.2 301.0 -185.7 301.0 -185.7 232.0 -184.0 232.0 -184.0 227.25 -185.7 227.25 -185.7 162.0 -184.0 162.0 -184.0 157.0 -185.7 157.0 -185.7 132.0 -131.0 132.0 -131.0 130.65 -146.7 130.65 -146.7 37.3 -99.55 37.3 -99.55 63.15 -97.6 63.15 -97.6 37.3" fill="#969696" fill-rule="evenodd" stroke="none"/>
    <path d="M74.3 221.3 L74.3 239.65 24.3 239.65 24.3 221.3 74.3 221.3" fill="#707070" fill-rule="evenodd" stroke="none"/>
    <path d="M-14.85 170.65 L4.95 168.75 10.6 221.7 -9.2 223.6 -14.85 170.65" fill="#707070" fill-rule="evenodd" stroke="none"/>
    <path d="M-62.0 186.0 L-43.7 186.0 -43.7 198.0 -62.0 198.0 -62.0 186.0" fill="#707070" fill-rule="evenodd" stroke="none"/>
    <path d="M-84.35 276.0 L-59.7 276.0 -59.7 294.3 -84.35 294.3 -84.35 276.0" fill="#707070" fill-rule="evenodd" stroke="none"/>
    <path d="M-55.7 281.3 L-43.7 281.3 -43.7 294.3 -55.7 294.3 -55.7 281.3" fill="#707070" fill-rule="evenodd" stroke="none"/>
    <path d="M-184.35 282.0 L-172.35 282.0 -172.35 295.0 -131.5 295.0 -131.5 301.0 -185.7 301.0 -185.7 295.0 -184.35 295.0 -184.35 282.0" fill="#707070" fill-rule="evenodd" stroke="none"/>
    <path d="M25.65 298.65 L25.65 292.3 52.0 292.3 52.0 298.65 25.65 298.65" fill="#707070" fill-rule="evenodd" stroke="none"/>
    <path d="M-110.25 301.0 L-110.25 291.9 -86.75 291.9 -86.75 301.0 -110.25 301.0" fill="#707070" fill-rule="evenodd" stroke="none"/>
    <path d="M-90.15 132.0 L-75.0 132.0 -75.0 147.5 -90.15 147.5 -90.15 132.0" fill="#707070" fill-rule="evenodd" stroke="none"/>
    <path d="M-133.5 130.65 L-146.65 130.65 -146.65 114.15 -133.5 114.15 -133.5 130.65" fill="#707070" fill-rule="evenodd" stroke="none"/>
    <path d="M-136.5 178.75 L-124.25 178.75 -124.25 197.5 -136.5 197.5 -136.5 178.75" fill="#707070" fill-rule="evenodd" stroke="none"/>
    <path d="M79.05 180.95 L93.85 186.9 87.4 202.9 72.6 196.9 79.05 180.95" fill="#707070" fill-rule="evenodd" stroke="none"/>
    <path d="M56.25 169.1 L67.2 174.65 61.85 185.3 50.85 179.75 56.25 169.1" fill="#707070" fill-rule="evenodd" stroke="none"/>
    <path d="M9.7 156.75 L8.05 144.95 52.35 138.65 54.05 150.5 9.7 156.75" fill="#707070" fill-rule="evenodd" stroke="none"/>
    <path d="M117.45 150.3 L117.95 168.4 97.1 168.95 96.65 150.85 117.45 150.3" fill="#707070" fill-rule="evenodd" stroke="none"/>
    <path d="M-99.55 37.3 L-99.55 43.25 -146.7 43.25 -146.7 37.3 -99.55 37.3" fill="#707070" fill-rule="evenodd" stroke="none"/>
    <path d="M-90.1 37.55 L-82.7 37.55 -82.7 41.35 -82.05 42.95 -81.9 45.5 -82.5 47.95 -83.8 49.85 -85.55 50.9 -87.45 50.85 -89.2 49.8 -90.5 47.9 -91.05 45.45 -90.85 42.9 -90.1 41.35 -90.1 37.55" fill="#707070" fill-rule="evenodd" stroke="none"/>
    <path d="M-75.35 71.8 L-75.35 81.8 -80.85 81.8 -80.85 71.8 -75.35 71.8" fill="#707070" fill-rule="evenodd" stroke="none"/>
  </g>
</svg>
