<?xml version="1.0" encoding="UTF-8" standalone="no"?>
<svg xmlns:ffdec="https://www.free-decompiler.com/flash" xmlns:xlink="http://www.w3.org/1999/xlink" ffdec:objectType="shape" height="254.0px" width="258.5px" xmlns="http://www.w3.org/2000/svg">
  <g transform="matrix(1.0, 0.0, 0.0, 1.0, 55.2, 196.85)">
    <path d="M80.3 -169.85 L187.8 -169.85 187.8 -105.35 188.3 -104.35 203.3 -104.35 203.3 57.15 -50.2 57.15 -50.2 -71.85 -55.2 -71.85 -55.2 -103.85 -50.2 -103.85 -50.2 -196.85 4.3 -196.85 4.3 -171.85 58.3 -171.85 58.3 -150.35 80.3 -150.35 80.3 -169.85" fill="#424242" fill-rule="evenodd" stroke="none"/>
    <path d="M3.3 -147.35 L-20.2 -147.35 -20.2 -168.35 57.8 -168.35 57.8 -150.85 3.3 -150.85 3.3 -147.35" fill="#6f6f6f" fill-rule="evenodd" stroke="none"/>
    <path d="M-46.7 -21.85 L-46.7 -55.85 13.8 -55.85 13.8 -45.35 43.8 -45.35 43.8 -41.85 45.8 -41.85 45.8 -47.85 18.8 -47.85 18.8 -58.85 17.3 -58.85 17.3 -72.85 45.8 -72.85 45.8 -83.85 76.8 -83.85 76.8 -24.85 45.8 -24.85 45.8 -28.85 43.8 -28.85 43.8 -21.85 -24.2 -21.85 -24.2 -18.85 43.8 -18.85 43.8 -15.35 73.8 -15.35 73.8 53.65 12.3 53.65 12.3 57.15 -14.2 57.15 -14.2 53.65 -38.2 53.65 -38.2 24.15 -46.7 24.15 -46.7 -18.85 -39.7 -18.85 -39.7 -21.85 -46.7 -21.85" fill="#959595" fill-rule="evenodd" stroke="none"/>
    <path d="M-15.2 -17.85 L-15.2 -15.35 -21.2 -15.35 -21.2 -18.85 32.3 -18.85 32.3 -7.35 26.3 -1.35 -21.2 -1.35 -21.2 -7.85 26.3 -7.85 26.3 -16.85 9.3 -16.85 9.3 -17.85 -15.2 -17.85" fill="#6f6f6f" fill-rule="evenodd" stroke="none"/>
    <path d="M25.3 13.65 L25.3 30.15 10.8 30.15 10.8 13.65 25.3 13.65" fill="#6f6f6f" fill-rule="evenodd" stroke="none"/>
    <path d="M-32.7 24.15 L-32.7 39.65 -23.2 39.65 -23.2 53.65 -38.2 53.65 -38.2 24.15 -32.7 24.15" fill="#6f6f6f" fill-rule="evenodd" stroke="none"/>
    <path d="M-46.7 24.15 L-46.7 -4.35 -41.7 -4.35 -41.7 24.15 -46.7 24.15" fill="#6f6f6f" fill-rule="evenodd" stroke="none"/>
    <path d="M38.3 30.15 L38.3 13.15 52.8 13.15 52.8 30.15 38.3 30.15" fill="#6f6f6f" fill-rule="evenodd" stroke="none"/>
    <path d="M67.8 41.65 L67.8 -4.35 73.8 -4.35 73.8 41.65 67.8 41.65" fill="#6f6f6f" fill-rule="evenodd" stroke="none"/>
    <path d="M14.3 53.65 L14.3 49.15 73.8 49.15 73.8 53.65 14.3 53.65" fill="#6f6f6f" fill-rule="evenodd" stroke="none"/>
    <path d="M38.8 -11.35 Q40.8 -12.35 42.8 -13.85 L45.3 -9.85 Q43.3 -8.35 41.3 -7.35 L38.8 -11.35" fill="#6f6f6f" fill-rule="evenodd" stroke="none"/>
    <path d="M43.3 -45.35 L43.3 -40.85 22.3 -40.85 22.3 -45.35 43.3 -45.35" fill="#6f6f6f" fill-rule="evenodd" stroke="none"/>
    <path d="M3.3 -48.35 L3.3 -51.85 -0.7 -51.85 -0.7 -55.85 13.8 -55.85 13.8 -51.85 12.8 -51.85 12.8 -48.35 3.3 -48.35" fill="#6f6f6f" fill-rule="evenodd" stroke="none"/>
    <path d="M-2.7 -41.35 L-22.2 -41.35 -22.2 -42.85 -32.2 -42.85 -32.2 -45.85 -37.7 -45.85 -37.7 -55.85 -2.7 -55.85 -2.7 -41.35" fill="#6f6f6f" fill-rule="evenodd" stroke="none"/>
    <path d="M-45.7 -45.85 L-45.7 -54.85 -38.7 -54.85 -38.7 -45.85 -45.7 -45.85" fill="#6f6f6f" fill-rule="evenodd" stroke="none"/>
    <path d="M76.8 -41.35 L71.3 -41.35 71.3 -54.35 76.8 -54.35 76.8 -41.35" fill="#6f6f6f" fill-rule="evenodd" stroke="none"/>
    <path d="M70.8 -40.35 L76.8 -40.35 76.8 -27.85 70.8 -27.85 70.8 -40.35" fill="#6f6f6f" fill-rule="evenodd" stroke="none"/>
    <path d="M76.8 -82.85 L76.8 -61.35 66.3 -61.35 66.3 -82.85 76.8 -82.85" fill="#6f6f6f" fill-rule="evenodd" stroke="none"/>
    <path d="M64.3 -82.85 L64.3 -77.35 46.3 -77.35 46.3 -82.85 64.3 -82.85" fill="#6f6f6f" fill-rule="evenodd" stroke="none"/>
    <path d="M73.3 -10.35 L44.8 -10.35 44.8 -15.35 73.3 -15.35 73.3 -10.35" fill="#6f6f6f" fill-rule="evenodd" stroke="none"/>
    <path d="M40.3 -13.35 L38.3 -11.35 35.8 -11.35 33.8 -12.85 33.3 -15.35 34.3 -17.85 Q35.8 -17.85 36.8 -18.35 L39.3 -17.85 40.3 -15.85 40.3 -13.35" fill="#6f6f6f" fill-rule="evenodd" stroke="none"/>
    <path d="M-46.2 -36.85 L-46.2 -45.85 -39.2 -45.85 -39.2 -36.85 -46.2 -36.85" fill="#6f6f6f" fill-rule="evenodd" stroke="none"/>
    <path d="M12.3 53.65 L12.3 57.15 -14.2 57.15 -14.2 53.65 12.3 53.65" fill="#ffffff" fill-rule="evenodd" stroke="none"/>
    <path d="M-30.2 -82.85 L-30.2 -72.85 17.3 -72.85 17.3 -58.85 -45.2 -58.85 -45.2 -82.85 -30.2 -82.85" fill="#ffffff" fill-rule="evenodd" stroke="none"/>
  </g>
</svg>
