<?xml version="1.0" encoding="UTF-8" standalone="no"?>
<svg xmlns:ffdec="https://www.free-decompiler.com/flash" xmlns:xlink="http://www.w3.org/1999/xlink" ffdec:objectType="shape" height="268.5px" width="258.5px" xmlns="http://www.w3.org/2000/svg">
  <g transform="matrix(1.0, 0.0, 0.0, 1.0, 55.2, 196.85)">
    <path d="M80.3 -169.85 L187.8 -169.85 187.8 -105.35 188.3 -104.35 203.3 -104.35 203.3 71.15 Q203.3 71.65 202.8 71.65 L-32.7 71.65 -32.7 57.15 -50.2 57.15 -50.2 -71.85 -55.2 -71.85 -55.2 -103.85 -50.2 -103.85 -50.2 -196.85 4.3 -196.85 4.3 -171.85 57.8 -171.85 57.8 -150.35 80.3 -150.35 80.3 -169.85" fill="#424242" fill-rule="evenodd" stroke="none"/>
    <path d="M186.3 -168.35 L186.3 -105.35 81.8 -105.35 81.8 -168.35 186.3 -168.35" fill="#6f6f6f" fill-rule="evenodd" stroke="none"/>
    <path d="M80.3 -100.85 L184.3 -100.85 184.3 52.65 80.3 52.65 80.3 -100.85" fill="#6f6f6f" fill-rule="evenodd" stroke="none"/>
    <path d="M57.8 -168.35 L57.8 -150.85 3.3 -150.85 3.3 -147.35 77.3 -147.35 77.3 -104.85 -47.2 -104.85 -47.2 -147.35 -20.2 -147.35 -20.2 -168.35 57.8 -168.35" fill="#6f6f6f" fill-rule="evenodd" stroke="none"/>
    <path d="M188.3 -102.85 L201.8 -102.85 201.8 69.65 -31.2 69.65 -31.2 57.15 Q24.3 57.65 79.8 57.65 L79.8 57.15 85.8 57.15 85.8 56.65 187.8 56.65 Q188.3 56.65 188.3 56.15 L188.3 -102.85" fill="#6f6f6f" fill-rule="evenodd" stroke="none"/>
    <path d="M-30.2 -82.85 L-30.2 -72.85 17.3 -72.85 17.3 -58.85 -45.2 -58.85 -45.2 -82.85 -30.2 -82.85" fill="#ffffff" fill-rule="evenodd" stroke="none"/>
    <path d="M-0.2 4.65 L-9.2 4.65 -9.2 6.65 -0.2 6.65 -0.2 4.65 M30.3 -25.35 L28.3 -25.35 28.3 4.65 10.8 4.65 10.8 7.15 28.3 7.15 28.3 24.15 30.3 24.15 30.3 -25.35 M45.8 -56.85 L45.8 -58.85 24.8 -58.85 24.8 -56.85 27.8 -56.85 27.8 -36.35 30.3 -36.35 30.3 -56.85 45.8 -56.85 M-16.2 -101.85 L-16.2 -103.35 -3.2 -103.35 -3.2 -101.85 22.8 -101.85 22.8 -102.85 42.3 -102.85 42.3 -101.85 54.3 -101.85 54.3 -102.85 73.3 -102.85 73.3 -101.85 76.3 -101.85 76.3 -58.85 59.3 -58.85 59.3 -56.85 76.3 -56.85 76.3 -53.85 77.3 -53.85 77.3 -34.85 76.3 -34.85 76.3 -13.35 77.8 -5.85 Q77.3 -2.85 76.3 -0.35 L76.3 18.15 77.3 18.15 77.3 47.15 76.3 47.15 76.3 52.15 30.3 52.15 30.3 36.65 27.8 36.65 27.8 52.15 -45.7 52.15 -45.7 47.15 -47.7 47.15 -47.7 18.15 -46.7 18.15 -46.7 6.65 -37.7 6.65 -37.7 4.65 -45.7 4.65 -45.7 -34.85 -46.7 -34.85 -46.7 -53.85 -45.7 -53.85 -45.7 -56.85 11.8 -56.85 11.8 -58.85 7.8 -58.85 7.8 -76.35 -28.2 -76.35 -28.2 -83.85 -30.2 -83.85 -30.2 -82.35 -45.2 -82.35 -45.2 -101.85 -42.2 -101.85 -42.2 -102.85 -23.2 -102.85 -23.2 -101.85 -16.2 -101.85" fill="#959595" fill-rule="evenodd" stroke="none"/>
    <path d="M76.3 -13.35 L80.3 -13.35 80.3 -0.35 76.3 -0.35 76.3 -13.35" fill="#ffffff" fill-rule="evenodd" stroke="none"/>
    <path d="M76.3 -66.85 L76.3 -59.35 68.8 -59.35 68.8 -66.85 76.3 -66.85" fill="#6f6f6f" fill-rule="evenodd" stroke="none"/>
    <path d="M41.3 -56.35 L41.3 -46.35 31.3 -46.35 31.3 -56.35 41.3 -56.35" fill="#6f6f6f" fill-rule="evenodd" stroke="none"/>
    <path d="M-3.7 52.15 L-3.7 42.15 17.8 42.15 17.8 52.15 -3.7 52.15" fill="#6f6f6f" fill-rule="evenodd" stroke="none"/>
    <path d="M33.3 -22.85 L33.3 -9.85 30.3 -9.85 30.3 -22.85 33.3 -22.85" fill="#6f6f6f" fill-rule="evenodd" stroke="none"/>
    <path d="M30.8 1.65 L48.3 -0.85 Q49.3 4.65 49.8 9.65 L32.8 12.65 30.8 1.65" fill="#6f6f6f" fill-rule="evenodd" stroke="none"/>
    <path d="M76.3 -96.85 L71.8 -91.85 65.3 -97.85 69.8 -101.85 76.3 -96.85" fill="#6f6f6f" fill-rule="evenodd" stroke="none"/>
    <path d="M71.8 -81.85 L75.8 -81.85 75.8 -68.35 71.8 -68.35 71.8 -81.85" fill="#6f6f6f" fill-rule="evenodd" stroke="none"/>
    <path d="M67.3 45.65 L75.8 44.65 Q76.3 47.65 76.3 50.65 L68.3 52.15 67.3 45.65" fill="#6f6f6f" fill-rule="evenodd" stroke="none"/>
    <path d="M76.3 25.15 L76.3 39.65 74.3 39.65 74.3 25.15 76.3 25.15" fill="#6f6f6f" fill-rule="evenodd" stroke="none"/>
    <path d="M74.3 -50.85 L76.3 -50.85 76.3 -36.35 74.3 -36.35 74.3 -50.85" fill="#6f6f6f" fill-rule="evenodd" stroke="none"/>
    <path d="M30.3 52.15 L30.3 44.15 37.3 44.15 37.3 52.15 30.3 52.15" fill="#6f6f6f" fill-rule="evenodd" stroke="none"/>
    <path d="M20.8 52.15 L20.8 43.65 27.8 43.65 27.8 52.15 20.8 52.15" fill="#6f6f6f" fill-rule="evenodd" stroke="none"/>
    <path d="M12.8 -10.35 L7.3 -10.85 Q7.8 -12.35 7.8 -13.85 L12.8 -12.85 12.8 -10.35" fill="#6f6f6f" fill-rule="evenodd" stroke="none"/>
    <path d="M21.3 3.65 L19.8 3.65 18.3 2.65 17.8 1.15 Q18.3 0.15 18.3 -0.85 L19.8 -1.85 Q20.8 -1.35 21.8 -1.35 L22.8 -0.35 23.3 1.15 Q23.3 2.15 22.8 2.65 L21.3 3.65" fill="#6f6f6f" fill-rule="evenodd" stroke="none"/>
    <path d="M30.3 42.15 L30.3 39.15 31.8 38.15 33.8 38.15 34.8 39.15 35.3 40.65 Q35.3 41.65 34.8 42.65 L33.3 43.65 31.8 43.65 30.3 42.15" fill="#6f6f6f" fill-rule="evenodd" stroke="none"/>
    <path d="M27.3 39.15 L27.8 40.65 Q27.8 41.65 27.3 42.65 L25.8 43.65 23.8 43.65 22.8 42.15 22.3 41.15 Q22.8 40.15 22.8 38.65 23.8 38.65 24.3 38.15 L25.8 38.15 27.3 39.15" fill="#6f6f6f" fill-rule="evenodd" stroke="none"/>
    <path d="M22.3 -5.35 Q21.8 -5.85 21.3 -6.85 L20.8 -8.35 Q21.3 -8.85 21.3 -9.85 L22.8 -10.85 24.3 -10.85 25.8 -9.85 26.3 -8.35 Q26.3 -7.35 25.8 -6.35 L24.3 -5.35 22.3 -5.35" fill="#6f6f6f" fill-rule="evenodd" stroke="none"/>
    <path d="M26.3 -17.85 L27.3 -16.35 27.8 -14.85 Q27.8 -13.85 27.3 -13.35 L25.8 -12.35 24.3 -12.35 22.8 -13.35 Q22.8 -14.35 22.3 -15.35 22.8 -15.85 22.8 -16.85 L24.3 -17.85 26.3 -17.85" fill="#6f6f6f" fill-rule="evenodd" stroke="none"/>
    <path d="M3.8 -46.35 L2.3 -47.85 1.8 -49.35 Q2.3 -49.85 2.3 -50.85 L3.8 -51.85 5.8 -51.85 6.8 -50.85 Q7.3 -49.85 7.3 -48.85 7.3 -47.85 6.8 -47.35 L5.3 -46.35 3.8 -46.35" fill="#6f6f6f" fill-rule="evenodd" stroke="none"/>
    <path d="M-25.2 -82.85 L-23.2 -82.85 Q-22.2 -82.35 -21.7 -81.85 L-21.7 -80.35 Q-21.7 -79.35 -22.2 -78.35 L-23.7 -77.35 Q-24.2 -77.35 -25.2 -77.85 -25.7 -78.35 -26.7 -78.85 -26.7 -79.35 -27.2 -80.35 -26.7 -80.85 -26.7 -81.85 L-25.2 -82.85" fill="#6f6f6f" fill-rule="evenodd" stroke="none"/>
    <path d="M6.8 26.65 L9.8 22.15 12.3 23.65 9.3 28.15 6.8 26.65" fill="#6f6f6f" fill-rule="evenodd" stroke="none"/>
    <path d="M24.3 23.65 L22.8 22.65 22.8 20.65 Q23.3 20.15 23.3 19.15 24.3 19.15 24.8 18.65 L26.8 18.65 27.8 20.15 28.3 21.65 27.3 23.15 25.8 24.15 24.3 23.65" fill="#6f6f6f" fill-rule="evenodd" stroke="none"/>
    <path d="M16.3 12.65 L17.8 11.65 Q18.8 12.15 19.3 12.15 20.3 12.65 20.8 13.15 21.3 14.15 21.3 15.15 L20.3 16.65 Q19.8 17.15 18.8 17.15 L16.8 17.15 15.8 15.65 15.3 14.15 16.3 12.65" fill="#6f6f6f" fill-rule="evenodd" stroke="none"/>
    <path d="M10.8 8.15 Q11.8 8.15 12.3 7.65 L14.3 7.65 15.3 9.15 15.8 10.65 14.8 12.15 13.3 13.15 Q12.8 13.15 11.8 12.65 11.3 12.15 10.3 11.65 10.3 10.65 9.8 9.65 L10.8 8.15" fill="#6f6f6f" fill-rule="evenodd" stroke="none"/>
    <path d="M37.3 14.15 L37.3 21.15 30.3 21.15 30.3 14.15 37.3 14.15" fill="#6f6f6f" fill-rule="evenodd" stroke="none"/>
    <path d="M-26.2 49.65 Q-25.7 46.65 -25.7 43.15 L-4.2 44.65 Q-4.2 48.15 -4.7 51.15 L-26.2 49.65" fill="#6f6f6f" fill-rule="evenodd" stroke="none"/>
    <path d="M-16.2 -4.85 L-16.2 17.15 -26.7 17.15 -26.7 -4.85 -16.2 -4.85" fill="#6f6f6f" fill-rule="evenodd" stroke="none"/>
    <path d="M-26.7 -5.35 L-26.7 -26.85 -15.7 -26.85 -15.7 -5.35 -26.7 -5.35" fill="#6f6f6f" fill-rule="evenodd" stroke="none"/>
    <path d="M-15.2 -19.35 L-4.7 -19.35 -4.7 2.15 -15.2 2.15 -15.2 -19.35" fill="#6f6f6f" fill-rule="evenodd" stroke="none"/>
    <path d="M-0.2 -56.35 L-0.2 -45.85 -22.7 -45.85 -22.7 -56.35 -0.2 -56.35" fill="#6f6f6f" fill-rule="evenodd" stroke="none"/>
    <path d="M-5.7 -76.35 L-28.2 -76.35 -28.2 -77.35 -20.2 -77.35 -20.2 -79.85 -5.7 -79.85 -5.7 -76.35" fill="#6f6f6f" fill-rule="evenodd" stroke="none"/>
  </g>
</svg>
