<?xml version="1.0" encoding="UTF-8" standalone="no"?>
<svg xmlns:ffdec="https://www.free-decompiler.com/flash" xmlns:xlink="http://www.w3.org/1999/xlink" ffdec:objectType="shape" height="569.0px" width="303.5px" xmlns="http://www.w3.org/2000/svg">
  <g transform="matrix(1.0, 0.0, 0.0, 1.0, 101.65, 494.95)">
    <path d="M201.85 -423.95 Q172.85 -209.45 143.35 4.55 L137.35 4.55 127.35 67.55 117.35 67.55 117.35 74.05 65.85 74.05 65.85 67.55 -101.65 67.55 -101.65 -494.95 119.85 -494.95 119.85 -423.95 201.85 -423.95" fill="#424242" fill-rule="evenodd" stroke="none"/>
    <path d="M-70.15 -253.95 L-68.65 -253.95 -68.65 -258.45 -70.15 -258.45 -70.15 -364.45 Q-69.15 -364.45 -68.65 -364.95 L-68.65 -369.45 -70.15 -369.45 -70.15 -397.95 59.85 -397.95 59.85 -369.45 58.35 -369.45 58.35 -364.95 59.85 -364.95 59.85 -258.45 58.35 -258.45 58.35 -253.95 59.85 -253.95 59.85 -182.45 57.85 -182.45 57.85 -170.95 59.85 -170.95 59.85 -167.45 58.35 -167.45 58.35 -162.95 59.85 -162.95 59.85 -96.95 56.35 -96.95 56.35 -83.95 59.85 -83.95 Q59.85 -70.95 59.35 -57.95 L-51.15 -57.95 -51.15 -55.45 59.85 -55.45 59.85 -41.95 62.85 -41.95 62.85 -51.95 66.35 -51.95 66.35 -54.95 139.35 -52.45 Q137.85 -28.95 135.85 -5.95 L132.85 -5.95 132.85 5.55 Q128.85 31.55 124.35 57.05 L116.85 57.05 116.85 62.55 104.85 62.55 104.85 74.05 78.85 74.05 78.85 62.55 66.85 62.55 66.85 57.05 62.85 57.05 62.85 5.05 66.35 5.05 66.35 -5.95 63.35 -5.95 Q63.35 -10.95 62.85 -15.95 L59.85 -15.95 59.85 -5.95 55.85 -5.95 55.85 -0.95 37.35 -0.95 37.35 0.55 55.85 0.55 55.85 5.05 59.35 5.05 59.35 57.05 55.85 57.05 55.85 62.55 4.85 62.55 4.85 57.05 0.35 57.05 0.35 5.05 4.85 5.05 4.85 0.55 23.35 0.55 23.35 -0.95 4.85 -0.95 4.85 -5.95 -5.65 -5.45 -5.65 5.05 -1.65 5.05 -1.65 57.05 -6.15 57.05 -6.15 62.55 -66.15 62.55 -66.15 57.05 -69.65 57.05 Q-69.65 31.05 -70.15 4.55 L-66.15 4.55 -66.15 -5.95 -70.15 -5.95 -70.15 -55.45 -65.65 -55.45 -65.65 -57.95 -70.15 -57.95 -70.15 -83.95 -66.65 -83.95 -66.65 -96.45 -70.15 -96.45 -70.15 -162.95 -68.65 -162.95 -68.65 -167.45 -70.15 -167.45 -70.15 -253.95" fill="#939393" fill-rule="evenodd" stroke="none"/>
    <path d="M74.85 45.05 L74.85 -1.45 81.85 -1.45 81.85 45.05 74.85 45.05" fill="#6f6f6f" fill-rule="evenodd" stroke="none"/>
    <path d="M107.35 20.05 L97.85 20.05 97.85 1.05 107.35 1.05 107.35 20.05" fill="#6f6f6f" fill-rule="evenodd" stroke="none"/>
    <path d="M62.85 27.55 L62.85 6.05 66.85 6.05 66.85 27.55 62.85 27.55" fill="#6f6f6f" fill-rule="evenodd" stroke="none"/>
    <path d="M62.85 49.05 L62.85 28.05 66.85 28.05 66.85 49.05 62.85 49.05" fill="#6f6f6f" fill-rule="evenodd" stroke="none"/>
    <path d="M68.85 56.05 L64.85 56.05 Q64.85 54.55 64.35 52.55 L68.35 52.05 Q68.85 54.05 68.85 56.05" fill="#6f6f6f" fill-rule="evenodd" stroke="none"/>
    <path d="M125.85 -11.45 L132.85 -4.45 132.85 3.05 118.85 -10.95 118.85 -31.45 78.35 -31.45 78.35 -38.95 125.85 -38.95 125.85 -11.45" fill="#6f6f6f" fill-rule="evenodd" stroke="none"/>
    <path d="M135.85 -50.95 L76.35 -50.95 Q76.35 -52.95 75.85 -54.95 L142.35 -54.95 Q140.85 -42.45 138.85 -29.95 L132.85 -30.45 135.85 -50.95" fill="#6f6f6f" fill-rule="evenodd" stroke="none"/>
    <path d="M59.85 35.55 L49.35 35.55 49.35 7.55 59.85 7.55 59.85 35.55" fill="#6f6f6f" fill-rule="evenodd" stroke="none"/>
    <path d="M59.85 46.05 L54.85 46.05 54.85 41.05 59.85 41.05 59.85 46.05" fill="#6f6f6f" fill-rule="evenodd" stroke="none"/>
    <path d="M59.35 51.55 L54.85 51.55 54.85 46.05 59.35 46.05 59.35 51.55" fill="#6f6f6f" fill-rule="evenodd" stroke="none"/>
    <path d="M59.35 57.05 L53.35 57.05 53.35 52.55 59.35 52.55 59.35 57.05" fill="#6f6f6f" fill-rule="evenodd" stroke="none"/>
    <path d="M55.85 62.55 L51.35 62.55 51.35 57.55 55.85 57.55 55.85 62.55" fill="#6f6f6f" fill-rule="evenodd" stroke="none"/>
    <path d="M53.85 62.55 L30.85 62.55 30.85 60.05 53.85 60.05 53.85 62.55" fill="#6f6f6f" fill-rule="evenodd" stroke="none"/>
    <path d="M32.35 62.05 L16.85 62.05 16.85 54.55 32.35 54.55 32.35 62.05" fill="#6f6f6f" fill-rule="evenodd" stroke="none"/>
    <path d="M10.85 62.55 L4.85 62.55 4.85 56.55 10.85 56.55 10.85 62.55" fill="#6f6f6f" fill-rule="evenodd" stroke="none"/>
    <path d="M19.85 62.05 L9.85 62.05 9.85 60.55 19.85 60.55 19.85 62.05" fill="#6f6f6f" fill-rule="evenodd" stroke="none"/>
    <path d="M0.85 44.55 L0.85 39.55 6.35 39.55 6.35 44.55 0.85 44.55" fill="#6f6f6f" fill-rule="evenodd" stroke="none"/>
    <path d="M13.35 10.05 L13.35 38.05 1.85 38.05 1.85 10.05 13.35 10.05" fill="#6f6f6f" fill-rule="evenodd" stroke="none"/>
    <path d="M23.35 5.55 L4.85 5.55 4.85 1.05 23.35 1.05 23.35 5.55" fill="#6f6f6f" fill-rule="evenodd" stroke="none"/>
    <path d="M-49.65 45.55 L-49.65 41.05 -19.15 41.05 -19.15 45.55 -49.65 45.55" fill="#6f6f6f" fill-rule="evenodd" stroke="none"/>
    <path d="M-48.15 40.05 L-52.15 40.05 -51.15 10.05 -47.65 10.05 Q-47.65 25.05 -48.15 40.05" fill="#6f6f6f" fill-rule="evenodd" stroke="none"/>
    <path d="M-6.15 62.55 L-65.65 62.55 -65.65 60.05 -6.15 60.05 -6.15 62.55" fill="#6f6f6f" fill-rule="evenodd" stroke="none"/>
    <path d="M-14.65 53.55 L-10.65 53.55 -7.65 54.55 -7.65 62.55 -17.65 62.55 -17.65 54.55 -14.65 53.55" fill="#6f6f6f" fill-rule="evenodd" stroke="none"/>
    <path d="M-69.65 52.05 L-69.65 9.05 -67.65 9.05 -67.65 52.05 -69.65 52.05" fill="#6f6f6f" fill-rule="evenodd" stroke="none"/>
    <path d="M-65.65 3.05 L-65.65 -3.45 -63.15 -3.45 -63.15 3.05 -65.65 3.05" fill="#6f6f6f" fill-rule="evenodd" stroke="none"/>
    <path d="M-70.15 -6.45 L-70.15 -15.95 -60.15 -15.95 -60.15 -6.45 -70.15 -6.45" fill="#6f6f6f" fill-rule="evenodd" stroke="none"/>
    <path d="M-70.15 -17.95 L-70.15 -24.95 -63.65 -24.95 -63.65 -17.95 -70.15 -17.95" fill="#6f6f6f" fill-rule="evenodd" stroke="none"/>
    <path d="M-69.65 -31.95 L-69.65 -43.45 -63.15 -43.45 -63.15 -31.95 -69.65 -31.95" fill="#6f6f6f" fill-rule="evenodd" stroke="none"/>
    <path d="M2.85 -5.45 L-4.65 -5.45 -4.65 -9.95 2.85 -9.95 2.85 -5.45" fill="#6f6f6f" fill-rule="evenodd" stroke="none"/>
    <path d="M59.35 -54.95 L59.35 -52.45 55.35 -52.45 55.35 -54.95 59.35 -54.95" fill="#6f6f6f" fill-rule="evenodd" stroke="none"/>
    <path d="M129.85 5.05 L132.85 5.55 Q129.85 25.05 126.35 44.05 L123.35 43.55 Q126.85 24.55 129.85 5.05 M116.35 55.55 Q116.35 54.05 115.85 52.05 116.35 50.55 116.35 48.55 L118.35 46.05 125.85 47.55 Q125.35 52.55 124.35 57.05 L116.35 55.55" fill="#6f6f6f" fill-rule="evenodd" stroke="none"/>
    <path d="M54.35 -94.95 L54.35 -92.95 15.85 -92.95 15.85 -92.45 -24.15 -92.45 -24.15 -92.95 -63.65 -92.95 -63.65 -94.95 54.35 -94.95" fill="#6f6f6f" fill-rule="evenodd" stroke="none"/>
    <path d="M-48.65 -15.95 L-51.15 -17.95 -52.15 -20.95 Q-51.65 -22.45 -51.65 -24.45 -50.65 -25.45 -50.15 -26.95 -48.65 -27.45 -47.15 -28.45 L-43.65 -28.45 Q-42.15 -27.45 -40.65 -26.95 -39.65 -25.45 -38.65 -24.45 L-38.65 -20.95 -39.65 -17.95 Q-40.65 -16.45 -42.15 -15.45 L-45.65 -14.95 -48.65 -15.95" fill="#6f6f6f" fill-rule="evenodd" stroke="none"/>
    <path d="M-3.65 38.05 L-5.65 38.55 Q-6.65 38.55 -7.65 38.05 L-8.65 36.55 -9.65 34.55 Q-9.15 34.05 -9.15 33.05 L-8.15 31.05 Q-7.15 31.05 -6.65 30.55 L-4.65 30.55 -2.65 31.55 -1.65 33.05 -1.65 35.05 Q-1.65 36.05 -2.15 36.55 -2.65 37.55 -3.65 38.05" fill="#6f6f6f" fill-rule="evenodd" stroke="none"/>
    <path d="M-15.15 -41.45 L-18.65 -40.45 -21.65 -41.45 -24.15 -43.45 -25.15 -46.45 Q-24.65 -47.95 -24.65 -49.95 -23.65 -50.95 -23.15 -52.45 -21.65 -52.95 -20.15 -53.95 L-16.65 -53.95 Q-15.15 -52.95 -13.65 -52.45 -12.65 -50.95 -11.65 -49.95 L-11.65 -46.45 -12.65 -43.45 -15.15 -41.45" fill="#6f6f6f" fill-rule="evenodd" stroke="none"/>
    <path d="M22.85 -53.95 L26.35 -53.95 Q27.85 -52.95 29.35 -52.45 30.35 -50.95 31.35 -49.95 L31.35 -46.45 30.35 -43.45 27.85 -41.45 24.35 -40.45 21.35 -41.45 18.85 -43.45 17.85 -46.45 Q18.35 -47.95 18.35 -49.95 19.35 -50.95 19.85 -52.45 21.35 -52.95 22.85 -53.95" fill="#6f6f6f" fill-rule="evenodd" stroke="none"/>
    <path d="M55.35 -7.45 L54.35 -3.95 51.85 -1.95 48.35 -0.95 45.35 -1.95 42.85 -4.45 41.85 -7.45 Q42.35 -8.95 42.35 -10.45 43.35 -11.95 43.85 -13.45 45.35 -13.95 46.85 -14.95 L50.35 -14.95 Q51.85 -13.95 53.35 -13.45 L55.35 -10.45 55.35 -7.45" fill="#6f6f6f" fill-rule="evenodd" stroke="none"/>
    <path d="M-3.65 30.05 L-5.15 30.05 -5.15 5.55 -3.65 5.55 -3.65 30.05" fill="#6f6f6f" fill-rule="evenodd" stroke="none"/>
    <path d="M16.35 -85.45 L14.85 -85.45 14.85 -94.95 16.35 -94.95 16.35 -85.45" fill="#424242" fill-rule="evenodd" stroke="none"/>
    <path d="M26.35 -85.45 L24.85 -85.45 24.85 -94.95 26.35 -94.95 26.35 -85.45" fill="#424242" fill-rule="evenodd" stroke="none"/>
    <path d="M36.35 -85.45 L34.85 -85.45 34.85 -94.95 36.35 -94.95 36.35 -85.45" fill="#424242" fill-rule="evenodd" stroke="none"/>
    <path d="M45.85 -85.95 L44.85 -85.95 44.85 -94.95 45.85 -94.95 45.85 -85.95" fill="#424242" fill-rule="evenodd" stroke="none"/>
    <path d="M-63.65 -85.45 L-65.15 -85.45 -65.15 -94.95 -63.65 -94.95 -63.65 -85.45" fill="#424242" fill-rule="evenodd" stroke="none"/>
    <path d="M-53.65 -85.45 L-55.15 -85.45 -55.15 -94.95 -53.65 -94.95 -53.65 -85.45" fill="#424242" fill-rule="evenodd" stroke="none"/>
    <path d="M-43.65 -85.45 L-45.15 -85.45 -45.15 -94.95 -43.65 -94.95 -43.65 -85.45" fill="#424242" fill-rule="evenodd" stroke="none"/>
    <path d="M-34.15 -85.95 L-35.15 -85.95 -35.15 -94.95 -34.15 -94.95 -34.15 -85.95" fill="#424242" fill-rule="evenodd" stroke="none"/>
    <path d="M-24.15 -85.95 L-25.15 -85.95 -25.15 -94.95 -24.15 -94.95 -24.15 -85.95" fill="#424242" fill-rule="evenodd" stroke="none"/>
    <path d="M104.85 71.05 L78.85 71.05 78.85 66.55 104.85 66.55 104.85 71.05" fill="#ffffff" fill-rule="evenodd" stroke="none"/>
  </g>
</svg>
