<?xml version="1.0" encoding="UTF-8" standalone="no"?>
<svg xmlns:ffdec="https://www.free-decompiler.com/flash" xmlns:xlink="http://www.w3.org/1999/xlink" ffdec:objectType="shape" height="165.0px" width="198.3px" xmlns="http://www.w3.org/2000/svg">
  <g transform="matrix(1.0, 0.0, 0.0, 1.0, 112.0, 74.7)">
    <path d="M86.3 90.3 L-112.0 90.3 -112.0 -74.7 86.3 -74.7 86.3 90.3" fill="#424242" fill-rule="evenodd" stroke="none"/>
    <path d="M-12.0 -63.7 L-12.0 -66.35 77.05 -66.35 77.05 3.6 74.0 3.6 74.0 13.15 77.05 13.15 77.05 83.5 -102.55 83.5 -102.55 13.75 -100.25 13.75 -100.25 3.6 -102.55 3.6 -102.55 -66.35 -20.7 -66.35 -20.7 -63.7 -12.0 -63.7" fill="#959595" fill-rule="evenodd" stroke="none"/>
    <path d="M77.05 -66.35 L77.05 -27.0 65.0 -27.0 65.0 -50.35 61.35 -54.7 15.0 -54.7 15.0 -57.7 2.3 -57.7 2.3 -66.35 77.05 -66.35" fill="#6f6f6f" fill-rule="evenodd" stroke="none"/>
    <path d="M77.05 55.6 L77.05 62.45 70.6 62.45 70.6 55.6 77.05 55.6" fill="#6f6f6f" fill-rule="evenodd" stroke="none"/>
    <path d="M71.85 40.6 L77.05 40.6 77.05 54.35 71.85 54.35 71.85 40.6" fill="#6f6f6f" fill-rule="evenodd" stroke="none"/>
    <path d="M68.9 40.65 L68.9 17.25 77.05 17.25 77.05 40.65 68.9 40.65" fill="#6f6f6f" fill-rule="evenodd" stroke="none"/>
    <path d="M-102.55 71.25 L-102.55 40.5 -94.75 40.5 -94.75 71.25 -102.55 71.25" fill="#6f6f6f" fill-rule="evenodd" stroke="none"/>
    <path d="M-95.5 13.75 L-95.5 37.35 -102.55 37.35 -102.55 13.75 -95.5 13.75" fill="#6f6f6f" fill-rule="evenodd" stroke="none"/>
    <path d="M-102.2 -23.7 L-95.4 -25.7 -94.0 -21.35 -95.4 -18.0 -95.4 1.1 -102.2 1.1 -102.2 -23.7" fill="#6f6f6f" fill-rule="evenodd" stroke="none"/>
    <path d="M-79.7 -58.35 L-94.7 -58.35 -94.7 -64.7 -79.7 -64.7 -79.7 -58.35" fill="#6f6f6f" fill-rule="evenodd" stroke="none"/>
    <path d="M-66.35 -61.0 L-76.0 -61.0 -76.0 -64.35 -66.35 -64.35 -66.35 -61.0" fill="#6f6f6f" fill-rule="evenodd" stroke="none"/>
    <path d="M-23.2 -58.55 L-29.15 -59.55 -28.15 -65.15 -22.25 -64.15 -23.2 -58.55" fill="#6f6f6f" fill-rule="evenodd" stroke="none"/>
    <path d="M10.0 74.5 L66.75 74.5 66.75 83.5 10.0 83.5 10.0 74.5" fill="#6f6f6f" fill-rule="evenodd" stroke="none"/>
    <path d="M-83.45 83.5 L-23.85 83.5 -23.85 90.3 -83.45 90.3 -83.45 83.5" fill="#ffffff" fill-rule="evenodd" stroke="none"/>
    <path d="M79.9 -12.75 L79.9 0.55 77.05 0.55 77.05 -12.75 79.9 -12.75" fill="#ffffff" fill-rule="evenodd" stroke="none"/>
    <path d="M0.65 81.0 L0.05 81.35 -1.9 82.95 -4.5 82.95 -6.45 81.3 -6.9 78.8 -5.6 76.6 -3.2 75.7 -0.75 76.6 0.1 77.8 1.75 75.0 4.8 73.9 7.9 75.0 9.5 77.85 8.95 81.05 6.45 83.15 3.15 83.1 0.65 81.0" fill="#959595" fill-rule="evenodd" stroke="none"/>
  </g>
</svg>
