<?xml version="1.0" encoding="UTF-8" standalone="no"?>
<svg xmlns:ffdec="https://www.free-decompiler.com/flash" xmlns:xlink="http://www.w3.org/1999/xlink" ffdec:objectType="shape" height="388.0px" width="388.0px" xmlns="http://www.w3.org/2000/svg">
  <g transform="matrix(1.0, 0.0, 0.0, 1.0, 194.0, 194.0)">
    <path d="M75.05 -177.65 Q39.2 -192.8 0.0 -192.8 -39.25 -192.8 -75.05 -177.65 -109.65 -163.0 -136.35 -136.3 -163.05 -109.65 -177.7 -75.05 -192.85 -39.2 -192.85 0.0 -192.85 39.25 -177.7 75.05 -163.05 109.65 -136.35 136.35 -109.65 163.05 -75.05 177.7 -39.25 192.85 0.0 192.85 39.2 192.85 75.05 177.7 109.65 163.05 136.3 136.35 163.0 109.65 177.65 75.05 192.8 39.25 192.8 0.0 192.8 -39.2 177.65 -75.05 163.0 -109.65 136.3 -136.3 109.65 -163.0 75.05 -177.65 M0.0 -194.0 Q39.45 -194.0 75.5 -178.75 110.3 -164.0 137.15 -137.15 164.0 -110.3 178.75 -75.5 194.0 -39.45 194.0 0.0 194.0 39.45 178.75 75.5 164.0 110.35 137.15 137.2 110.3 164.05 75.5 178.75 39.45 194.0 0.0 194.0 -39.45 194.0 -75.5 178.75 -110.35 164.05 -137.2 137.2 -164.05 110.35 -178.75 75.5 -194.0 39.45 -194.0 0.0 -194.0 -39.45 -178.75 -75.5 -164.05 -110.3 -137.2 -137.15 -110.35 -164.0 -75.5 -178.75 -39.45 -194.0 0.0 -194.0" fill="#41afcb" fill-rule="evenodd" stroke="none"/>
  </g>
</svg>
