<?xml version="1.0" encoding="UTF-8" standalone="no"?>
<svg xmlns:ffdec="https://www.free-decompiler.com/flash" xmlns:xlink="http://www.w3.org/1999/xlink" ffdec:objectType="shape" height="653.3px" width="1200.5px" xmlns="http://www.w3.org/2000/svg">
  <g transform="matrix(1.0, 0.0, 0.0, 1.0, 600.25, 320.6)">
    <path d="M40.9 -308.6 L40.9 -306.1 1.25 -306.1 1.25 -201.2 -1.25 -201.2 -1.25 -306.1 -41.1 -306.1 -41.1 -308.6 40.9 -308.6 M0.65 -0.5 L64.0 -0.5 64.0 0.4 0.65 0.4 0.65 63.95 -0.65 63.95 -0.65 0.4 -63.95 0.4 -63.95 -0.5 -0.65 -0.5 -0.65 -4.2 0.65 -4.2 0.65 -0.5 M0.65 -4.55 L-0.65 -4.55 -0.65 -64.0 0.65 -64.0 0.65 -4.55 M600.25 -210.05 L600.25 209.9 597.75 209.9 597.75 -210.05 600.25 -210.05 M340.5 -318.1 L-340.7 -318.1 -340.7 -320.6 340.5 -320.6 340.5 -318.1 M553.65 -158.4 L561.2 -158.4 561.2 -155.9 553.65 -155.9 553.65 -158.4 M561.2 -169.9 L546.7 -169.9 546.7 -172.4 561.2 -172.4 561.2 -169.9 M553.65 -129.9 L561.2 -129.9 561.2 -127.4 553.65 -127.4 553.65 -129.9 M561.2 -141.4 L546.7 -141.4 546.7 -143.9 561.2 -143.9 561.2 -141.4 M546.7 -115.4 L561.2 -115.4 561.2 -112.9 546.7 -112.9 546.7 -115.4 M561.2 -101.4 L561.2 -98.9 553.65 -98.9 553.65 -101.4 561.2 -101.4 M561.2 -84.4 L546.7 -84.4 546.7 -86.9 561.2 -86.9 561.2 -84.4 M546.7 -58.4 L561.2 -58.4 561.2 -55.9 546.7 -55.9 546.7 -58.4 M561.2 -70.4 L553.65 -70.4 553.65 -72.9 561.2 -72.9 561.2 -70.4 M561.2 -27.4 L546.7 -27.4 546.7 -29.9 561.2 -29.9 561.2 -27.4 M553.65 -44.4 L561.2 -44.4 561.2 -41.9 553.65 -41.9 553.65 -44.4 M561.2 -15.9 L561.2 -13.4 553.65 -13.4 553.65 -15.9 561.2 -15.9 M561.2 -1.4 L561.2 1.1 546.7 1.1 546.7 -1.4 561.2 -1.4 M584.9 -41.1 L584.9 40.9 582.4 40.9 582.4 -41.1 584.9 -41.1 M351.15 -0.5 L351.15 0.4 201.0 0.4 201.0 -0.5 351.15 -0.5 M-597.75 -210.05 L-597.75 209.9 -600.25 209.9 -600.25 -210.05 -597.75 -210.05 M-547.05 -172.4 L-547.05 -169.9 -561.55 -169.9 -561.55 -172.4 -547.05 -172.4 M-554.0 -158.4 L-554.0 -155.9 -561.55 -155.9 -561.55 -158.4 -554.0 -158.4 M-561.55 -129.9 L-554.0 -129.9 -554.0 -127.4 -561.55 -127.4 -561.55 -129.9 M-561.55 -141.4 L-561.55 -143.9 -547.05 -143.9 -547.05 -141.4 -561.55 -141.4 M-554.0 -101.4 L-554.0 -98.9 -561.55 -98.9 -561.55 -101.4 -554.0 -101.4 M-561.55 -115.4 L-547.05 -115.4 -547.05 -112.9 -561.55 -112.9 -561.55 -115.4 M-582.75 -41.1 L-582.75 40.9 -585.25 40.9 -585.25 -41.1 -582.75 -41.1 M-561.55 -84.4 L-561.55 -86.9 -547.05 -86.9 -547.05 -84.4 -561.55 -84.4 M-561.55 -55.9 L-561.55 -58.4 -547.05 -58.4 -547.05 -55.9 -561.55 -55.9 M-554.0 -72.9 L-554.0 -70.4 -561.55 -70.4 -561.55 -72.9 -554.0 -72.9 M-561.55 -44.4 L-554.0 -44.4 -554.0 -41.9 -561.55 -41.9 -561.55 -44.4 M-561.55 -27.4 L-561.55 -29.9 -547.05 -29.9 -547.05 -27.4 -561.55 -27.4 M-561.55 -15.9 L-554.0 -15.9 -554.0 -13.4 -561.55 -13.4 -561.55 -15.9 M-547.05 -1.4 L-547.05 1.1 -561.55 1.1 -561.55 -1.4 -547.05 -1.4 M-200.3 -0.5 L-200.3 0.4 -348.5 0.4 -348.5 -0.5 -200.3 -0.5 M-41.1 317.9 L-1.25 317.9 -1.25 200.6 1.25 200.6 1.25 317.9 40.9 317.9 40.9 320.4 -41.1 320.4 -41.1 317.9 M-561.55 12.6 L-554.0 12.6 -554.0 15.1 -561.55 15.1 -561.55 12.6 M-561.55 43.6 L-561.55 41.1 -554.0 41.1 -554.0 43.6 -561.55 43.6 M-561.55 27.1 L-547.05 27.1 -547.05 29.6 -561.55 29.6 -561.55 27.1 M-561.55 69.6 L-554.0 69.6 -554.0 72.1 -561.55 72.1 -561.55 69.6 M-561.55 58.1 L-561.55 55.6 -547.05 55.6 -547.05 58.1 -561.55 58.1 M-554.0 98.1 L-554.0 100.6 -561.55 100.6 -561.55 98.1 -554.0 98.1 M-561.55 84.1 L-547.05 84.1 -547.05 86.6 -561.55 86.6 -561.55 84.1 M-561.55 115.1 L-561.55 112.6 -547.05 112.6 -547.05 115.1 -561.55 115.1 M-561.55 143.6 L-561.55 141.1 -547.05 141.1 -547.05 143.6 -561.55 143.6 M-554.0 126.6 L-554.0 129.1 -561.55 129.1 -561.55 126.6 -554.0 126.6 M-547.05 169.6 L-547.05 172.1 -561.55 172.1 -561.55 169.6 -547.05 169.6 M-554.0 155.1 L-554.0 157.6 -561.55 157.6 -561.55 155.1 -554.0 155.1 M-340.7 330.2 L340.5 330.2 340.5 332.7 -340.7 332.7 -340.7 330.2 M553.65 12.6 L561.2 12.6 561.2 15.1 553.65 15.1 553.65 12.6 M546.7 27.1 L561.2 27.1 561.2 29.6 546.7 29.6 546.7 27.1 M553.65 43.6 L553.65 41.1 561.2 41.1 561.2 43.6 553.65 43.6 M553.65 72.1 L553.65 69.6 561.2 69.6 561.2 72.1 553.65 72.1 M561.2 58.1 L546.7 58.1 546.7 55.6 561.2 55.6 561.2 58.1 M546.7 84.1 L561.2 84.1 561.2 86.6 546.7 86.6 546.7 84.1 M561.2 98.1 L561.2 100.6 553.65 100.6 553.65 98.1 561.2 98.1 M561.2 115.1 L546.7 115.1 546.7 112.6 561.2 112.6 561.2 115.1 M546.7 141.1 L561.2 141.1 561.2 143.6 546.7 143.6 546.7 141.1 M561.2 129.1 L553.65 129.1 553.65 126.6 561.2 126.6 561.2 129.1 M546.7 172.1 L546.7 169.6 561.2 169.6 561.2 172.1 546.7 172.1 M553.65 155.1 L561.2 155.1 561.2 157.6 553.65 157.6 553.65 155.1" fill="#387f9b" fill-rule="evenodd" stroke="none"/>
    <path d="M214.55 -2.15 Q215.45 -1.25 215.45 0.05 215.45 1.35 214.55 2.2 213.7 3.1 212.4 3.1 211.15 3.1 210.25 2.2 209.35 1.35 209.35 0.05 209.35 -1.25 210.25 -2.15 211.15 -3.05 212.4 -3.05 213.65 -3.05 214.55 -2.15 M282.4 -3.05 Q283.65 -3.05 284.55 -2.15 285.45 -1.25 285.45 0.05 285.45 1.35 284.55 2.2 283.7 3.1 282.4 3.1 281.15 3.1 280.25 2.2 279.35 1.35 279.35 0.05 279.35 -1.25 280.25 -2.15 281.15 -3.05 282.4 -3.05 M3.35 -64.05 L-3.3 -64.05 -3.3 -201.15 3.35 -201.15 3.35 -64.05 M200.95 -3.4 L200.95 3.3 64.0 3.3 64.0 -3.4 200.95 -3.4 M583.45 -1.3 L583.45 1.2 351.15 1.2 351.15 -1.3 583.45 -1.3 M3.35 200.6 L-3.3 200.6 -3.3 63.95 3.35 63.95 3.35 200.6 M-348.55 -1.3 L-348.55 1.2 -580.85 1.2 -580.85 -1.3 -348.55 -1.3 M-279.45 -2.15 Q-278.55 -1.25 -278.55 0.05 -278.55 1.35 -279.45 2.2 -280.3 3.1 -281.6 3.1 -282.85 3.1 -283.75 2.2 -284.65 1.35 -284.65 0.05 -284.65 -1.25 -283.75 -2.15 -282.85 -3.05 -281.6 -3.05 -280.35 -3.05 -279.45 -2.15 M-210.45 -2.15 Q-209.55 -1.25 -209.55 0.05 -209.55 1.35 -210.45 2.2 -211.3 3.1 -212.6 3.1 -213.85 3.1 -214.75 2.2 -215.65 1.35 -215.65 0.05 -215.65 -1.25 -214.75 -2.15 -213.85 -3.05 -212.6 -3.05 -211.35 -3.05 -210.45 -2.15 M-64.0 -3.4 L-64.0 3.3 -200.3 3.3 -200.3 -3.4 -64.0 -3.4" fill="#387f9b" fill-rule="evenodd" stroke="none"/>
  </g>
</svg>
