<?xml version="1.0" encoding="UTF-8" standalone="no"?>
<svg xmlns:ffdec="https://www.free-decompiler.com/flash" xmlns:xlink="http://www.w3.org/1999/xlink" ffdec:objectType="shape" height="541.95px" width="1041.25px" xmlns="http://www.w3.org/2000/svg">
  <g transform="matrix(1.0, 0.0, 0.0, 1.0, 0.0, 0.0)">
    <path d="M1028.75 395.0 L1013.25 395.0 1013.25 424.5 875.25 424.5 853.75 446.0 739.55 446.0 738.8 446.8 Q697.35 491.55 641.9 516.3 584.5 541.95 521.15 541.95 457.5 541.95 399.9 516.1 344.2 491.15 302.75 446.05 L302.6 446.0 187.5 446.0 166.0 424.5 28.0 424.5 28.0 395.0 12.5 395.0 Q6.65 395.0 3.35 391.85 0.0 388.55 0.0 382.5 L0.0 31.25 142.25 31.25 173.5 0.0 867.75 0.0 899.0 31.25 1041.25 31.25 1041.25 382.5 Q1041.25 388.55 1037.9 391.85 1034.6 395.0 1028.75 395.0 M1034.95 38.0 L1034.95 35.6 823.95 35.6 823.95 104.55 705.65 104.55 Q673.2 62.1 625.7 38.1 576.55 13.25 521.15 13.25 465.7 13.25 416.55 38.1 369.0 62.15 336.6 104.6 L217.3 104.55 217.3 35.6 6.3 35.6 6.3 304.8 Q6.3 307.55 13.4 313.05 20.5 318.55 20.5 321.0 L20.5 366.5 6.5 366.5 6.5 380.5 Q6.5 383.25 7.8 384.1 8.9 384.85 12.0 384.85 L335.65 384.85 Q368.05 427.85 415.85 452.25 465.25 477.45 521.15 477.45 577.0 477.45 626.45 452.25 674.3 427.85 706.65 384.85 L1029.25 384.85 Q1032.35 384.85 1033.45 384.1 1034.75 383.25 1034.75 380.5 L1034.75 366.5 1020.75 366.5 1020.75 321.0 Q1020.75 318.55 1027.85 313.05 1034.95 307.55 1034.95 304.8 L1034.95 148.75 1007.45 148.5 1007.45 65.5 Q1007.45 61.5 1021.2 51.0 L1030.65 43.55 Q1034.95 39.8 1034.95 38.0" fill="#35649d" fill-opacity="0.2" fill-rule="evenodd" stroke="none"/>
  </g>
</svg>
