<?xml version="1.0" encoding="UTF-8" standalone="no"?>
<svg xmlns:ffdec="https://www.free-decompiler.com/flash" xmlns:xlink="http://www.w3.org/1999/xlink" ffdec:objectType="shape" height="89.85px" width="89.9px" xmlns="http://www.w3.org/2000/svg">
  <g transform="matrix(1.0, 0.0, 0.0, 1.0, 44.95, 44.9)">
    <path d="M27.25 -26.3 L26.3 -27.25 30.25 -31.2 31.2 -30.25 27.25 -26.3 M0.65 -31.4 Q13.45 -31.15 22.45 -22.0 31.45 -12.8 31.45 0.0 31.45 13.0 22.25 22.25 13.0 31.45 0.0 31.45 -13.0 31.45 -22.2 22.25 -31.4 13.0 -31.4 0.0 -31.4 -12.8 -22.4 -22.0 -13.45 -31.15 -0.65 -31.4 L-0.65 -43.45 0.65 -43.45 0.65 -31.4 M0.65 -12.7 L0.0 0.0 -0.65 0.05 -0.65 -12.7 Q-5.7 -12.45 -9.25 -8.75 -12.75 -5.1 -12.75 0.0 -12.75 5.3 -9.0 9.0 -5.25 12.75 0.0 12.75 5.3 12.75 9.0 9.0 12.75 5.3 12.75 0.0 12.75 -5.1 9.25 -8.75 5.75 -12.45 0.65 -12.7 M9.35 -8.9 Q12.95 -5.15 12.95 0.0 12.95 5.35 9.15 9.15 5.35 12.95 0.0 12.95 -5.35 12.95 -9.1 9.15 -12.9 5.35 -12.9 0.0 -12.9 -5.15 -9.35 -8.9 -5.8 -12.6 -0.65 -12.9 L-0.65 -30.95 Q-13.25 -30.65 -22.1 -21.65 -30.95 -12.6 -30.95 0.0 -30.95 12.8 -21.85 21.9 -12.8 31.0 0.0 31.0 12.85 31.0 21.9 21.9 31.0 12.8 31.0 0.0 31.0 -12.65 22.15 -21.65 13.25 -30.7 0.65 -30.95 L0.65 -12.9 Q5.8 -12.65 9.35 -8.9 M0.0 -44.25 Q-18.3 -44.25 -31.25 -31.3 -44.25 -18.3 -44.25 0.0 -44.25 18.35 -31.25 31.3 -18.3 44.3 0.0 44.3 18.3 44.3 31.3 31.3 44.3 18.35 44.3 0.0 44.3 -18.3 31.3 -31.3 18.3 -44.25 0.0 -44.25 M31.8 -31.75 Q44.95 -18.55 44.95 0.0 44.95 18.6 31.8 31.75 18.6 44.95 0.0 44.95 -18.55 44.95 -31.75 31.75 -44.95 18.6 -44.95 0.0 -44.95 -18.55 -31.75 -31.75 -18.55 -44.9 0.0 -44.9 18.6 -44.9 31.8 -31.75 M43.45 -0.65 L43.45 0.7 37.9 0.7 37.9 -0.65 43.45 -0.65 M0.65 37.9 L0.65 43.5 -0.65 43.5 -0.65 37.9 0.0 37.95 0.65 37.9 M27.25 26.35 L31.2 30.25 30.25 31.2 26.3 27.3 27.25 26.35 M-30.25 -31.2 L-26.3 -27.25 -27.25 -26.3 -31.2 -30.25 -30.25 -31.2 M-37.9 -0.65 L-37.9 0.7 -43.5 0.7 -43.5 -0.65 -37.9 -0.65 M-27.25 26.3 L-26.3 27.25 -30.25 31.25 -31.2 30.3 -27.25 26.3" fill="#387f9b" fill-rule="evenodd" stroke="none"/>
  </g>
</svg>
