<?xml version="1.0" encoding="UTF-8" standalone="no"?>
<svg xmlns:ffdec="https://www.free-decompiler.com/flash" xmlns:xlink="http://www.w3.org/1999/xlink" ffdec:objectType="shape" height="127.05px" width="153.75px" xmlns="http://www.w3.org/2000/svg">
  <g transform="matrix(1.0, 0.0, 0.0, 1.0, 0.0, 0.0)">
    <path d="M151.25 17.05 L151.25 2.55 136.75 2.55 136.75 0.05 153.75 0.05 153.75 17.05 151.25 17.05 M0.0 17.05 L0.0 0.0 17.0 0.0 17.0 2.5 2.5 2.5 2.5 17.05 0.0 17.05 M17.0 127.05 L0.0 127.05 0.0 110.05 2.5 110.05 2.5 124.55 17.0 124.55 17.0 127.05 M153.75 127.05 L136.75 127.05 136.75 124.55 151.25 124.55 151.25 110.0 153.75 110.0 153.75 127.05" fill="#387f9b" fill-rule="evenodd" stroke="none"/>
  </g>
</svg>
