<?xml version="1.0" encoding="UTF-8" standalone="no"?>
<svg xmlns:ffdec="https://www.free-decompiler.com/flash" xmlns:xlink="http://www.w3.org/1999/xlink" ffdec:objectType="shape" height="439.4px" width="439.35px" xmlns="http://www.w3.org/2000/svg">
  <g transform="matrix(1.0, 0.0, 0.0, 1.0, 219.65, 219.7)">
    <path d="M0.55 -203.45 L-0.45 -203.45 -0.45 -219.7 0.55 -219.7 0.55 -203.45 M18.35 -202.65 L19.85 -218.8 20.8 -218.7 19.35 -202.55 18.35 -202.65 M39.45 -199.65 L42.65 -215.5 43.6 -215.3 40.45 -199.45 39.45 -199.65 M63.35 -210.35 L58.7 -194.9 57.75 -195.2 62.35 -210.65 63.35 -210.35 M83.65 -203.15 L77.5 -188.25 76.6 -188.6 82.7 -203.55 83.65 -203.15 M137.45 -171.4 L138.25 -170.75 128.1 -158.2 127.35 -158.85 137.45 -171.4 M155.75 -155.0 L144.3 -143.6 143.6 -144.3 155.0 -155.7 155.75 -155.0 M101.15 -195.05 L102.05 -194.55 94.6 -180.25 93.7 -180.75 101.15 -195.05 M112.1 -169.9 L121.05 -183.35 121.85 -182.8 112.95 -169.35 112.1 -169.9 M156.35 -130.4 L168.75 -140.7 169.4 -139.95 157.0 -129.65 156.35 -130.4 M169.15 -113.35 L182.55 -122.25 183.1 -121.45 169.7 -112.5 169.15 -113.35 M193.55 -104.0 L179.4 -96.35 178.95 -97.25 193.05 -104.9 193.55 -104.0 M209.75 -65.45 L194.45 -60.65 194.15 -61.6 209.45 -66.4 209.75 -65.45 M187.6 -79.25 L202.4 -85.45 202.8 -84.55 188.0 -78.35 187.6 -79.25 M199.5 -40.9 L215.25 -44.1 215.45 -43.1 199.7 -39.95 199.5 -40.9 M218.5 -23.05 L202.55 -21.3 202.45 -22.3 218.4 -24.0 218.5 -23.05 M219.7 -0.5 L219.7 0.5 203.65 0.5 203.65 -0.5 219.7 -0.5 M202.85 18.3 L218.85 19.8 218.75 20.8 202.75 19.3 202.85 18.3 M215.35 43.6 L199.6 40.45 199.8 39.45 215.55 42.6 215.35 43.6 M180.8 93.7 L195.05 101.15 194.6 102.0 180.35 94.6 180.8 93.7 M188.7 76.6 L203.55 82.7 203.2 83.6 188.35 77.55 188.7 76.6 M195.3 57.75 L210.7 62.35 210.4 63.3 195.05 58.7 195.3 57.75 M182.85 121.85 L169.45 112.95 170.0 112.1 183.4 121.0 182.85 121.85 M170.8 138.2 L158.25 128.1 158.9 127.3 171.45 137.45 170.8 138.2 M61.6 194.0 L66.45 209.4 65.5 209.7 60.65 194.3 61.6 194.0 M79.25 187.5 L85.5 202.4 84.55 202.8 78.35 187.9 79.25 187.5 M144.3 143.6 L155.75 155.0 155.0 155.7 143.6 144.3 144.3 143.6 M113.35 169.1 L122.3 182.55 121.45 183.1 112.5 169.65 113.35 169.1 M97.25 178.85 L104.9 193.05 104.0 193.5 96.35 179.35 97.25 178.85 M140.75 168.7 L139.95 169.35 129.65 156.95 130.45 156.3 140.75 168.7 M43.15 215.4 L39.95 199.55 40.9 199.35 44.15 215.2 43.15 215.4 M24.05 218.4 L23.05 218.5 21.3 202.35 22.3 202.25 24.05 218.4 M0.55 219.7 L-0.45 219.7 -0.45 203.45 0.55 203.45 0.55 219.7 M-84.5 -202.75 L-78.25 -187.8 -79.15 -187.4 -85.45 -202.4 -84.5 -202.75 M-65.4 -209.7 L-60.55 -194.2 -61.5 -193.9 -66.4 -209.4 -65.4 -209.7 M-44.1 -215.2 L-43.1 -215.4 -39.85 -199.5 -40.85 -199.3 -44.1 -215.2 M-23.0 -218.5 L-21.25 -202.3 -22.25 -202.2 -24.0 -218.35 -23.0 -218.5 M-170.75 -138.2 L-158.0 -127.95 -158.65 -127.15 -171.4 -137.4 -170.75 -138.2 M-182.8 -121.85 L-169.15 -112.8 -169.7 -111.95 -183.35 -121.0 -182.8 -121.85 M-194.55 -102.0 L-180.05 -94.45 -180.5 -93.55 -195.0 -101.1 -194.55 -102.0 M-194.95 -57.65 L-210.65 -62.35 -210.35 -63.3 -194.7 -58.6 -194.95 -57.65 M-188.4 -76.5 L-203.5 -82.65 -203.15 -83.6 -188.0 -77.4 -188.4 -76.5 M-203.25 -0.5 L-203.25 0.5 -219.65 0.5 -219.65 -0.5 -203.25 -0.5 M-218.7 -20.8 L-202.35 -19.3 -202.45 -18.3 -218.75 -19.8 -218.7 -20.8 M-215.3 -43.6 L-199.25 -40.4 -199.45 -39.4 -215.5 -42.6 -215.3 -43.6 M-97.1 -178.7 L-104.85 -193.05 -103.95 -193.5 -96.25 -179.2 -97.1 -178.7 M-113.2 -168.95 L-122.25 -182.5 -121.4 -183.1 -112.35 -169.5 -113.2 -168.95 M-154.95 -155.7 L-143.4 -144.1 -144.1 -143.4 -155.65 -155.0 -154.95 -155.7 M-129.45 -156.75 L-130.25 -156.15 -140.7 -168.7 -139.9 -169.35 -129.45 -156.75 M-156.1 130.25 L-168.7 140.7 -169.35 139.95 -156.75 129.5 -156.1 130.25 M-143.4 144.15 L-154.95 155.7 -155.65 155.0 -144.1 143.4 -143.4 144.15 M-138.2 170.8 L-127.9 158.05 -127.15 158.7 -137.4 171.4 -138.2 170.8 M-111.95 169.75 L-120.95 183.35 -121.8 182.8 -112.8 169.2 -111.95 169.75 M-101.1 195.05 L-102.0 194.6 -94.45 180.15 -93.55 180.6 -101.1 195.05 M-76.5 188.5 L-82.65 203.55 -83.55 203.15 -77.4 188.1 -76.5 188.5 M-57.65 195.1 L-62.3 210.65 -63.25 210.4 -58.65 194.8 -57.65 195.1 M-199.15 40.85 L-215.2 44.1 -215.4 43.1 -199.35 39.85 -199.15 40.85 M-202.05 22.25 L-218.35 24.05 -218.45 23.05 -202.15 21.3 -202.05 22.25 M-209.7 65.45 L-194.1 60.55 -193.8 61.5 -209.4 66.4 -209.7 65.45 M-187.3 79.15 L-202.35 85.45 -202.75 84.55 -187.65 78.2 -187.3 79.15 M-178.65 97.1 L-193.0 104.9 -193.5 104.0 -179.1 96.25 -178.65 97.1 M-168.9 113.2 L-182.5 122.25 -183.05 121.45 -169.45 112.35 -168.9 113.2 M-18.25 202.6 L-19.75 218.8 -20.75 218.7 -19.25 202.55 -18.25 202.6 M-39.4 199.6 L-42.6 215.5 -43.55 215.35 -40.4 199.4 -39.4 199.6" fill="#00ccff" fill-rule="evenodd" stroke="none"/>
  </g>
</svg>
