<?xml version="1.0" encoding="UTF-8" standalone="no"?>
<svg xmlns:ffdec="https://www.free-decompiler.com/flash" xmlns:xlink="http://www.w3.org/1999/xlink" ffdec:objectType="shape" height="593.2px" width="593.15px" xmlns="http://www.w3.org/2000/svg">
  <g transform="matrix(1.0, 0.0, 0.0, 1.0, -1.6, 0.0)">
    <path d="M462.3 132.5 Q430.15 100.35 388.5 82.75 345.4 64.5 298.2 64.5 251.0 64.5 207.85 82.75 166.2 100.35 134.1 132.5 101.95 164.6 84.35 206.25 66.1 249.4 66.1 296.6 66.1 343.8 84.35 386.95 101.95 428.6 134.1 460.75 166.2 492.85 207.85 510.45 250.95 528.7 298.2 528.7 345.4 528.7 388.5 510.45 430.15 492.85 462.3 460.75 494.4 428.6 512.0 386.95 530.25 343.8 530.25 296.6 530.25 249.4 512.0 206.25 494.4 164.6 462.3 132.5 M507.9 86.9 Q548.95 127.95 571.45 181.15 594.75 236.25 594.75 296.6 594.75 356.95 571.45 412.05 548.95 465.25 507.9 506.35 466.85 547.4 413.65 569.9 358.55 593.2 298.2 593.2 237.85 593.2 182.75 569.9 129.55 547.4 88.5 506.35 47.4 465.25 24.9 412.05 1.6 356.95 1.6 296.6 1.6 236.25 24.9 181.15 47.45 127.95 88.5 86.9 129.55 45.85 182.75 23.3 237.85 0.0 298.2 0.0 358.55 0.0 413.65 23.3 466.85 45.8 507.9 86.9" fill="#35649d" fill-opacity="0.2" fill-rule="evenodd" stroke="none"/>
  </g>
</svg>
