<?xml version="1.0" encoding="UTF-8" standalone="no"?>
<svg xmlns:ffdec="https://www.free-decompiler.com/flash" xmlns:xlink="http://www.w3.org/1999/xlink" ffdec:objectType="shape" height="163.95px" width="79.5px" xmlns="http://www.w3.org/2000/svg">
  <g transform="matrix(1.0, 0.0, 0.0, 1.0, 42.0, 100.5)">
    <path d="M-42.0 -100.5 L37.5 -100.5 37.5 63.45 -42.0 63.45 -42.0 -100.5" fill="#424242" fill-rule="evenodd" stroke="none"/>
    <path d="M-4.0 51.45 Q-3.0 53.95 -2.5 56.45 L0.0 59.95 2.0 61.95 4.0 63.45 -16.0 63.45 -16.0 50.45 -4.0 50.45 -4.0 51.45" fill="#6f6f6f" fill-rule="evenodd" stroke="none"/>
    <path d="M12.45 -55.05 L25.45 -55.05 25.45 -50.55 31.95 -50.55 31.95 58.95 27.95 58.95 27.95 60.95 5.95 60.95 3.45 59.95 1.45 57.95 0.45 55.95 -1.05 53.45 -2.05 50.45 -4.05 50.45 -4.05 51.45 -16.05 51.45 -16.05 50.45 -26.05 50.45 -26.05 -50.55 12.45 -50.55 12.45 -55.05" fill="#959595" fill-rule="evenodd" stroke="none"/>
    <path d="M-16.05 50.45 L-4.05 50.45 -4.05 53.95 -16.05 53.95 -16.05 50.45" fill="#ffffff" fill-rule="evenodd" stroke="none"/>
    <path d="M-26.0 23.5 L-26.0 16.0 -13.5 16.0 -13.5 23.5 -26.0 23.5" fill="#6f6f6f" fill-rule="evenodd" stroke="none"/>
    <path d="M19.5 -4.0 L22.0 -3.0 22.5 -3.0 22.5 1.0 22.0 1.0 19.5 2.0 19.5 2.5 14.5 2.0 14.0 1.5 12.5 1.5 12.0 0.5 12.0 -3.5 Q13.0 -3.5 14.0 -4.0 L14.5 -4.0 Q15.5 -5.0 19.5 -4.5 L19.5 -4.0" fill="#6f6f6f" fill-rule="evenodd" stroke="none"/>
    <path d="M12.0 15.5 L12.0 11.5 14.0 11.5 Q14.5 11.5 14.5 11.0 L19.5 10.5 19.5 11.0 22.0 12.0 22.5 12.0 22.5 16.5 22.0 16.5 19.5 17.0 19.5 17.5 14.5 17.0 14.0 16.5 12.5 16.5 12.0 15.5" fill="#6f6f6f" fill-rule="evenodd" stroke="none"/>
    <path d="M12.0 -14.5 L12.0 -18.5 Q13.0 -18.5 14.0 -19.0 L14.5 -19.0 Q15.5 -20.0 19.5 -19.5 L19.5 -19.0 22.0 -18.0 22.5 -18.0 22.5 -14.0 22.0 -14.0 19.5 -13.0 19.5 -12.5 14.5 -13.0 14.0 -13.5 12.5 -13.5 12.0 -14.5" fill="#6f6f6f" fill-rule="evenodd" stroke="none"/>
    <path d="M28.5 -25.5 L28.5 -26.0 32.0 -26.0 32.0 24.0 27.0 24.0 27.0 18.5 28.5 18.5 28.5 9.0 26.5 9.0 26.5 3.5 28.5 3.5 28.5 -4.0 26.5 -4.0 26.5 -11.5 28.5 -11.5 28.5 -20.0 26.5 -20.0 26.5 -25.5 28.5 -25.5" fill="#6f6f6f" fill-rule="evenodd" stroke="none"/>
    <path d="M23.0 54.95 L23.0 27.0 32.0 27.0 32.0 54.95 23.0 54.95" fill="#6f6f6f" fill-rule="evenodd" stroke="none"/>
    <path d="M8.0 56.45 L8.0 46.95 18.0 46.95 18.0 56.45 8.0 56.45" fill="#6f6f6f" fill-rule="evenodd" stroke="none"/>
    <path d="M-26.0 42.0 L-26.0 30.0 -23.5 30.0 -23.5 42.0 -26.0 42.0" fill="#6f6f6f" fill-rule="evenodd" stroke="none"/>
    <path d="M-4.0 -50.5 L-4.0 -44.5 -10.5 -44.5 -10.5 -47.0 -19.0 -47.0 -19.0 -45.5 -21.5 -45.5 -21.5 -24.5 -19.5 -24.5 -19.5 3.0 -26.0 3.0 -26.0 -50.5 -4.0 -50.5" fill="#6f6f6f" fill-rule="evenodd" stroke="none"/>
    <path d="M11.0 -50.5 L11.0 -46.0 -2.5 -46.0 -2.5 -50.5 11.0 -50.5" fill="#6f6f6f" fill-rule="evenodd" stroke="none"/>
    <path d="M32.0 -45.5 L32.0 -31.0 28.5 -31.0 28.5 -45.5 32.0 -45.5" fill="#6f6f6f" fill-rule="evenodd" stroke="none"/>
  </g>
</svg>
