<?xml version="1.0" encoding="UTF-8" standalone="no"?>
<svg xmlns:ffdec="https://www.free-decompiler.com/flash" xmlns:xlink="http://www.w3.org/1999/xlink" ffdec:objectType="shape" height="358.0px" width="347.95px" xmlns="http://www.w3.org/2000/svg">
  <g transform="matrix(1.0, 0.0, 0.0, 1.0, 187.95, 408.3)">
    <path d="M158.65 -264.35 L158.65 -50.3 -187.95 -50.3 -187.95 -408.3 109.65 -408.3 109.65 -264.35 158.65 -264.35" fill="#434343" fill-rule="evenodd" stroke="none"/>
    <path d="M-14.25 -229.35 L-22.5 -229.35 -22.5 -168.7 -14.25 -168.7 -14.25 -229.35 M-68.35 -376.7 L-68.35 -378.8 -71.45 -378.8 -71.45 -397.6 -68.15 -397.6 -68.15 -399.7 -22.25 -399.7 -22.25 -396.7 1.5 -396.7 1.5 -344.25 3.0 -344.25 3.0 -350.9 28.4 -350.9 28.4 -311.8 3.0 -311.8 3.0 -328.4 1.5 -328.4 1.5 -311.8 -25.1 -311.8 -25.1 -309.5 -27.95 -309.5 -27.95 -307.85 -17.95 -307.85 -17.95 -265.0 103.0 -265.0 103.0 -249.0 106.65 -249.0 106.65 -150.35 103.0 -150.35 103.0 -134.35 -17.55 -134.35 -17.55 -132.15 -27.65 -132.15 -27.65 -129.7 -25.0 -129.7 -25.0 -127.45 -18.0 -127.45 -18.0 -114.65 0.65 -114.65 0.65 -66.0 -73.2 -66.0 -73.2 -127.45 -56.55 -127.45 -56.55 -129.7 -53.9 -129.7 -53.9 -132.15 -64.0 -132.15 -64.0 -169.35 -68.35 -169.35 -68.35 -173.85 -73.35 -173.85 -73.35 -148.5 -176.7 -148.5 -176.7 -250.85 -73.35 -250.85 -73.35 -204.2 -68.35 -204.2 -68.35 -264.7 -63.95 -264.7 -63.95 -307.85 -54.95 -307.85 -54.95 -309.5 -56.75 -309.5 -56.75 -311.8 -67.45 -311.8 -67.45 -325.1 -71.45 -325.1 -71.45 -376.7 -68.35 -376.7" fill="#969696" fill-rule="evenodd" stroke="none"/>
    <path d="M106.3 -248.7 L109.65 -248.7 109.65 -259.9 154.75 -259.9 154.75 -143.25 109.65 -143.25 109.65 -150.35 106.3 -150.35 106.3 -248.7" fill="#707070" fill-rule="evenodd" stroke="none"/>
    <path d="M109.65 -263.25 L109.65 -266.35 160.0 -266.35 160.0 -137.7 109.65 -137.7 109.65 -139.9 158.1 -139.9 158.1 -263.25 109.65 -263.25" fill="#707070" fill-rule="evenodd" stroke="none"/>
    <path d="M-14.25 -220.8 L42.25 -220.8 42.25 -177.35 -14.25 -177.35 -14.25 -220.8" fill="#707070" fill-rule="evenodd" stroke="none"/>
    <path d="M-176.7 -234.95 L-176.7 -250.85 -89.6 -250.85 -89.6 -234.95 -176.7 -234.95" fill="#707070" fill-rule="evenodd" stroke="none"/>
    <path d="M-88.9 -164.85 L-88.9 -148.5 -176.7 -148.5 -176.7 -164.85 -88.9 -164.85" fill="#707070" fill-rule="evenodd" stroke="none"/>
    <path d="M44.65 -251.15 L44.65 -265.0 80.2 -265.0 80.2 -251.15 44.65 -251.15" fill="#707070" fill-rule="evenodd" stroke="none"/>
    <path d="M82.5 -137.1 L80.65 -137.25 79.1 -138.3 78.3 -140.0 78.45 -141.85 79.5 -143.4 80.3 -143.8 73.45 -150.9 92.2 -169.25 104.4 -157.0 85.65 -138.7 84.95 -139.05 84.2 -137.9 82.5 -137.1" fill="#707070" fill-rule="evenodd" stroke="none"/>
    <path d="M-87.15 -162.85 L-75.8 -162.85 -75.8 -149.4 -87.15 -149.4 -87.15 -162.85" fill="#707070" fill-rule="evenodd" stroke="none"/>
    <path d="M30.15 -258.25 L30.35 -260.7 31.75 -262.75 34.0 -263.85 36.45 -263.65 38.5 -262.25 39.55 -260.0 39.35 -257.55 37.95 -255.5 35.75 -254.45 33.3 -254.65 31.25 -256.05 30.15 -258.25" fill="#707070" fill-rule="evenodd" stroke="none"/>
    <path d="M94.05 -257.85 L94.2 -260.0 95.4 -261.75 97.3 -262.65 99.4 -262.5 101.15 -261.3 102.05 -259.4 101.9 -257.25 100.7 -255.5 98.8 -254.6 96.7 -254.75 94.95 -255.95 94.05 -257.85" fill="#707070" fill-rule="evenodd" stroke="none"/>
    <path d="M5.75 -345.9 L5.75 -350.9 24.2 -350.9 24.2 -345.9 5.75 -345.9" fill="#707070" fill-rule="evenodd" stroke="none"/>
    <path d="M1.5 -389.0 L6.2 -389.0 6.2 -360.25 1.5 -360.25 1.5 -351.6 -22.25 -351.6 -22.25 -396.7 -20.0 -396.7 -20.0 -402.6 -0.6 -402.6 -0.6 -396.7 1.5 -396.7 1.5 -389.0" fill="#707070" fill-rule="evenodd" stroke="none"/>
    <path d="M-71.45 -325.1 L-71.45 -376.7 -58.2 -376.7 -58.2 -325.1 -71.45 -325.1" fill="#707070" fill-rule="evenodd" stroke="none"/>
    <path d="M-58.45 -384.65 L-68.0 -384.65 -68.0 -392.65 -58.55 -392.65 -57.1 -392.25 -55.9 -391.55 -55.0 -390.5 -54.5 -389.3 -54.5 -388.05 -54.95 -386.85 -55.8 -385.8 -57.0 -385.05 -58.45 -384.65" fill="#707070" fill-rule="evenodd" stroke="none"/>
    <path d="M71.2 -157.0 L71.2 -134.8 49.0 -134.8 49.0 -157.0 71.2 -157.0" fill="#707070" fill-rule="evenodd" stroke="none"/>
    <path d="M0.65 -59.35 L0.65 -114.65 98.4 -114.65 98.4 -59.35 0.65 -59.35" fill="#ffffff" fill-rule="evenodd" stroke="none"/>
  </g>
</svg>
