<?xml version="1.0" encoding="UTF-8" standalone="no"?>
<svg xmlns:ffdec="https://www.free-decompiler.com/flash" xmlns:xlink="http://www.w3.org/1999/xlink" ffdec:objectType="shape" height="128.45px" width="201.0px" xmlns="http://www.w3.org/2000/svg">
  <g transform="matrix(1.0, 0.0, 0.0, 1.0, 158.95, 79.45)">
    <path d="M-114.45 -69.45 L-114.45 -79.45 42.05 -79.45 42.05 45.55 30.0 45.3 -2.45 43.05 -25.4 45.2 -44.8 45.2 -82.45 43.55 -98.95 45.35 -112.45 45.55 -112.45 49.0 -153.45 49.0 -153.45 37.55 -158.95 37.55 -158.95 -69.45 -114.45 -69.45" fill="#424242" fill-rule="evenodd" stroke="none"/>
    <path d="M-151.45 -62.45 L-151.45 -65.45 -109.95 -65.45 -109.95 4.55 -96.95 4.55 -96.95 2.55 -103.45 2.55 -103.45 -75.95 -50.95 -75.95 -50.95 2.55 -57.95 2.55 -57.95 4.05 -48.45 4.05 -48.45 -75.95 39.05 -75.95 39.05 40.55 30.05 40.5 0.05 42.55 -25.45 40.35 -44.95 40.35 -74.95 43.05 -97.95 40.55 -98.95 40.55 -98.95 33.55 -151.45 33.55 -151.45 30.05 -153.95 30.05 -153.95 -13.45 -151.45 -13.45 -151.45 -18.45 -153.95 -18.45 -153.95 -62.45 -151.45 -62.45" fill="#959595" fill-rule="evenodd" stroke="none"/>
    <path d="M11.05 -30.45 L14.55 -25.95 21.05 -25.95 21.05 -18.45 14.55 -18.45 Q13.05 -15.95 11.05 -13.95 10.55 -14.45 9.55 -14.95 11.55 -16.95 13.55 -19.45 L13.55 -24.95 9.55 -29.45 11.05 -30.45" fill="#6f6f6f" fill-rule="evenodd" stroke="none"/>
    <path d="M-21.45 -18.45 L-21.45 -25.95 -14.95 -25.95 Q-12.95 -27.95 -11.45 -30.45 -10.45 -29.95 -9.95 -29.45 L-13.95 -24.95 -13.95 -19.45 Q-11.95 -16.95 -9.95 -14.95 L-11.45 -13.95 -14.95 -18.45 -21.45 -18.45" fill="#6f6f6f" fill-rule="evenodd" stroke="none"/>
    <path d="M31.05 -10.45 L32.55 -10.45 32.55 -33.45 39.05 -33.45 39.05 37.05 32.55 37.05 32.55 21.05 31.05 21.05 31.05 -10.45" fill="#6f6f6f" fill-rule="evenodd" stroke="none"/>
    <path d="M-31.45 -73.95 L39.05 -73.95 39.05 -44.45 34.05 -44.45 34.05 -62.95 8.05 -62.95 8.05 -58.45 -31.45 -58.45 -31.45 -73.95" fill="#6f6f6f" fill-rule="evenodd" stroke="none"/>
    <path d="M-39.95 -72.45 L-39.95 -21.95 -48.45 -21.95 -48.45 -72.45 -39.95 -72.45" fill="#6f6f6f" fill-rule="evenodd" stroke="none"/>
    <path d="M-48.45 -11.95 L-39.45 -11.95 -39.45 2.55 -48.45 2.55 -48.45 -11.95" fill="#6f6f6f" fill-rule="evenodd" stroke="none"/>
    <path d="M-109.95 -38.95 L-109.95 -28.95 -127.95 -28.95 -127.95 -38.95 -109.95 -38.95" fill="#6f6f6f" fill-rule="evenodd" stroke="none"/>
    <path d="M-118.45 -26.45 L-109.95 -26.45 -109.95 -3.95 -118.45 -3.95 -118.45 -26.45" fill="#6f6f6f" fill-rule="evenodd" stroke="none"/>
    <path d="M-151.45 -23.95 L-141.95 -23.95 -141.95 14.55 -151.45 14.55 -151.45 -23.95" fill="#6f6f6f" fill-rule="evenodd" stroke="none"/>
    <path d="M-144.95 -65.45 L-144.95 -56.95 -151.45 -56.95 -151.45 -65.45 -144.95 -65.45" fill="#6f6f6f" fill-rule="evenodd" stroke="none"/>
    <path d="M-117.45 -64.95 L-117.45 -58.95 -136.45 -58.95 -136.45 -64.95 -117.45 -64.95" fill="#6f6f6f" fill-rule="evenodd" stroke="none"/>
    <path d="M-115.45 -58.95 L-115.45 -64.95 -109.95 -64.95 -109.95 -58.95 -115.45 -58.95" fill="#6f6f6f" fill-rule="evenodd" stroke="none"/>
    <path d="M-143.95 -59.45 L-143.95 -65.45 -137.45 -65.45 -137.45 -59.45 -143.95 -59.45" fill="#6f6f6f" fill-rule="evenodd" stroke="none"/>
    <path d="M-25.45 45.35 L-25.45 40.35 30.05 40.35 30.05 45.35 -25.45 45.35" fill="#ffffff" fill-rule="evenodd" stroke="none"/>
    <path d="M-98.95 45.45 L-98.95 40.45 -44.95 40.45 -44.95 45.45 -98.95 45.45" fill="#ffffff" fill-rule="evenodd" stroke="none"/>
    <path d="M-122.45 37.55 L-135.95 37.55 -135.95 33.55 -122.45 33.55 -122.45 37.55" fill="#ffffff" fill-rule="evenodd" stroke="none"/>
  </g>
</svg>
