<?xml version="1.0" encoding="UTF-8" standalone="no"?>
<svg xmlns:ffdec="https://www.free-decompiler.com/flash" xmlns:xlink="http://www.w3.org/1999/xlink" ffdec:objectType="shape" height="196.0px" width="141.5px" xmlns="http://www.w3.org/2000/svg">
  <g transform="matrix(1.0, 0.0, 0.0, 1.0, 76.65, 131.45)">
    <path d="M-76.65 -131.45 L64.85 -131.45 64.85 61.05 48.85 61.05 48.85 64.55 21.85 64.55 21.85 61.05 -41.15 61.05 -41.15 64.05 -67.65 64.05 -67.65 61.05 -76.65 61.05 -76.65 -131.45" fill="#424242" fill-rule="evenodd" stroke="none"/>
    <path d="M-16.15 -106.95 L-16.15 -116.95 -13.15 -116.95 -13.15 -118.45 0.35 -118.45 0.35 -116.95 16.35 -116.95 16.35 -106.95 17.35 -106.95 17.35 -94.45 16.35 -94.45 16.35 -92.45 12.35 -92.45 12.35 -89.95 43.85 -89.95 43.85 0.55 12.35 0.55 12.35 3.55 52.85 3.55 52.85 48.55 48.35 48.55 48.35 52.05 22.35 52.05 22.35 48.55 3.85 48.55 3.85 51.55 -1.65 51.55 -1.65 61.05 -17.65 61.05 -17.65 51.55 -22.65 51.55 -22.65 48.55 -40.65 48.55 -40.65 51.55 -67.15 51.55 -67.15 48.55 -71.65 48.55 -71.65 3.55 -57.15 3.55 -57.15 2.55 -44.15 2.55 -44.15 3.55 -17.15 3.55 -17.15 0.55 -29.15 0.55 -29.15 -89.95 -16.15 -89.95 -16.15 -92.45 -22.15 -92.45 -22.15 -106.95 -16.15 -106.95" fill="#959595" fill-rule="evenodd" stroke="none"/>
    <path d="M-1.65 51.55 L-1.65 61.05 -17.65 61.05 -17.65 51.55 -1.65 51.55" fill="#ffffff" fill-rule="evenodd" stroke="none"/>
    <path d="M41.85 -89.95 L48.35 -89.95 48.35 0.55 41.85 0.55 41.85 -89.95" fill="#6f6f6f" fill-rule="evenodd" stroke="none"/>
    <path d="M-32.65 -89.95 L-25.65 -89.95 -25.65 0.55 -32.65 0.55 -32.65 -89.95" fill="#6f6f6f" fill-rule="evenodd" stroke="none"/>
    <path d="M-19.65 -106.95 L-19.65 -92.45 -31.65 -92.45 -31.65 -106.95 -19.65 -106.95" fill="#6f6f6f" fill-rule="evenodd" stroke="none"/>
    <path d="M42.35 6.05 L52.35 6.05 52.35 35.55 42.35 35.55 42.35 6.05" fill="#6f6f6f" fill-rule="evenodd" stroke="none"/>
    <path d="M42.85 45.55 L42.85 38.05 50.85 38.05 50.85 45.55 42.85 45.55" fill="#6f6f6f" fill-rule="evenodd" stroke="none"/>
    <path d="M10.35 48.05 L10.35 38.55 40.35 38.55 40.35 48.05 10.35 48.05" fill="#6f6f6f" fill-rule="evenodd" stroke="none"/>
    <path d="M-39.65 48.55 L-39.65 14.05 -33.65 14.05 -33.65 48.55 -39.65 48.55" fill="#6f6f6f" fill-rule="evenodd" stroke="none"/>
    <path d="M-71.65 48.55 L-71.65 3.55 -67.65 3.55 -67.65 48.55 -71.65 48.55" fill="#6f6f6f" fill-rule="evenodd" stroke="none"/>
    <path d="M35.35 -74.45 L35.35 -66.95 22.35 -66.95 22.35 -74.45 35.35 -74.45" fill="#6f6f6f" fill-rule="evenodd" stroke="none"/>
    <path d="M35.35 -53.95 L35.35 -47.45 22.35 -47.45 22.35 -53.95 35.35 -53.95" fill="#6f6f6f" fill-rule="evenodd" stroke="none"/>
    <path d="M35.35 -33.95 L35.35 -26.95 22.35 -26.95 22.35 -33.95 35.35 -33.95" fill="#6f6f6f" fill-rule="evenodd" stroke="none"/>
    <path d="M-20.65 -8.95 L-24.65 -8.95 -24.65 -12.95 -20.65 -12.95 -20.65 -13.95 -15.15 -13.95 -15.15 -6.95 -20.65 -6.95 -20.65 -8.95" fill="#6f6f6f" fill-rule="evenodd" stroke="none"/>
    <path d="M-20.65 -28.95 L-24.65 -28.95 -24.65 -32.95 -20.65 -32.95 -20.65 -33.95 -15.15 -33.95 -15.15 -26.95 -20.65 -26.95 -20.65 -28.95" fill="#6f6f6f" fill-rule="evenodd" stroke="none"/>
    <path d="M-15.15 -53.95 L-15.15 -46.95 -20.65 -46.95 -20.65 -48.95 -24.65 -48.95 -24.65 -52.95 -20.65 -52.95 -20.65 -53.95 -15.15 -53.95" fill="#6f6f6f" fill-rule="evenodd" stroke="none"/>
    <path d="M-20.65 -68.95 L-24.65 -68.95 -24.65 -72.95 -20.65 -72.95 -20.65 -73.95 -15.15 -73.95 -15.15 -66.95 -20.65 -66.95 -20.65 -68.95" fill="#6f6f6f" fill-rule="evenodd" stroke="none"/>
  </g>
</svg>
