<?xml version="1.0" encoding="UTF-8" standalone="no"?>
<svg xmlns:ffdec="https://www.free-decompiler.com/flash" xmlns:xlink="http://www.w3.org/1999/xlink" ffdec:objectType="shape" height="184.0px" width="379.85px" xmlns="http://www.w3.org/2000/svg">
  <g transform="matrix(1.0, 0.0, 0.0, 1.0, 163.35, 104.7)">
    <path d="M216.5 -104.7 L216.5 79.3 -163.35 79.3 -163.35 -104.7 216.5 -104.7" fill="#434343" fill-rule="evenodd" stroke="none"/>
    <path d="M83.8 -97.7 L83.8 -87.7 91.15 -87.7 91.15 -97.7 209.65 -97.7 209.65 72.3 91.15 72.3 91.15 63.3 83.8 63.3 83.8 72.3 -31.2 72.3 -31.2 63.3 -38.5 63.3 -38.5 72.3 -156.5 72.3 -156.35 -97.7 -38.5 -97.7 -38.5 -87.7 -31.2 -87.7 -31.2 -97.7 83.8 -97.7" fill="#969696" fill-rule="evenodd" stroke="none"/>
    <path d="M153.0 52.5 L207.5 52.5 207.5 68.5 153.0 68.5 153.0 52.5" fill="#707070" fill-rule="evenodd" stroke="none"/>
    <path d="M94.75 53.5 L149.25 53.5 149.25 69.5 94.75 69.5 94.75 53.5" fill="#707070" fill-rule="evenodd" stroke="none"/>
    <path d="M-150.75 68.45 L-153.4 67.9 -155.45 66.2 -156.5 65.8 -156.5 4.5 -137.75 4.5 -137.75 43.0 -151.85 43.0 -151.85 46.65 -151.0 46.6 -149.05 47.5 -147.75 49.25 -147.4 51.35 -148.1 53.4 -149.65 54.9 -151.7 55.5 -151.85 55.45 -151.85 57.5 -149.9 57.45 -147.5 58.55 -145.9 60.7 -145.45 63.3 -146.3 65.85 -148.2 67.7 -150.75 68.45" fill="#707070" fill-rule="evenodd" stroke="none"/>
    <path d="M-143.0 57.45 L-143.75 47.3 -134.7 46.65 -133.95 56.8 -143.0 57.45" fill="#707070" fill-rule="evenodd" stroke="none"/>
    <path d="M-144.9 65.5 L-140.85 61.8 -136.2 66.95 -140.25 70.65 -144.9 65.5" fill="#707070" fill-rule="evenodd" stroke="none"/>
    <path d="M208.2 51.15 L206.25 52.15 204.1 52.15 202.15 51.15 200.9 49.35 200.65 47.2 201.4 45.15 203.05 43.65 205.15 43.15 207.3 43.65 208.95 45.15 209.7 47.2 209.45 49.35 208.2 51.15" fill="#707070" fill-rule="evenodd" stroke="none"/>
    <path d="M209.45 38.1 L209.2 40.25 207.95 42.05 206.0 43.1 203.85 43.1 201.9 42.05 200.65 40.25 200.4 38.1 201.15 36.05 202.8 34.6 204.9 34.05 207.05 34.6 208.7 36.05 209.45 38.1" fill="#707070" fill-rule="evenodd" stroke="none"/>
    <path d="M-68.85 -92.7 L-78.85 -92.7 -78.85 -49.0 -68.85 -49.0 -68.85 -92.7 M-84.85 -92.7 L-95.7 -92.7 -95.7 -49.0 -84.85 -49.0 -84.85 -92.7 M-51.55 -92.7 L-62.85 -92.7 -62.85 -49.0 -51.55 -49.0 -51.55 -92.7 M-150.85 -45.0 L-150.85 -96.7 -47.55 -96.7 -47.55 -45.0 -150.85 -45.0 M-113.85 -92.7 L-113.85 -49.0 -102.7 -49.0 -102.7 -92.7 -113.85 -92.7 M-119.85 -92.7 L-129.85 -92.7 -129.85 -49.0 -119.85 -49.0 -119.85 -92.7 M-135.85 -92.7 L-146.85 -92.7 -146.85 -49.0 -135.85 -49.0 -135.85 -92.7" fill="#434343" fill-rule="evenodd" stroke="none"/>
    <path d="M73.95 -92.7 L62.65 -92.7 62.65 -49.0 73.95 -49.0 73.95 -92.7 M-25.35 -45.0 L-25.35 -96.7 77.95 -96.7 77.95 -45.0 -25.35 -45.0 M46.65 -92.7 L46.65 -49.0 56.65 -49.0 56.65 -92.7 46.65 -92.7 M22.8 -49.0 L22.8 -92.7 11.65 -92.7 11.65 -49.0 22.8 -49.0 M5.65 -92.7 L-4.35 -92.7 -4.35 -49.0 5.65 -49.0 5.65 -92.7 M-10.35 -92.7 L-21.35 -92.7 -21.35 -49.0 -10.35 -49.0 -10.35 -92.7 M40.65 -92.7 L29.8 -92.7 29.8 -49.0 40.65 -49.0 40.65 -92.7" fill="#434343" fill-rule="evenodd" stroke="none"/>
    <path d="M131.15 -92.7 L121.15 -92.7 121.15 -49.0 131.15 -49.0 131.15 -92.7 M115.15 -92.7 L104.15 -92.7 104.15 -49.0 115.15 -49.0 115.15 -92.7 M203.45 -96.7 L203.45 -45.0 100.15 -45.0 100.15 -96.7 203.45 -96.7 M182.15 -92.7 L172.15 -92.7 172.15 -49.0 182.15 -49.0 182.15 -92.7 M148.3 -92.7 L137.15 -92.7 137.15 -49.0 148.3 -49.0 148.3 -92.7 M166.15 -92.7 L155.3 -92.7 155.3 -49.0 166.15 -49.0 166.15 -92.7 M199.45 -92.7 L188.15 -92.7 188.15 -49.0 199.45 -49.0 199.45 -92.7" fill="#434343" fill-rule="evenodd" stroke="none"/>
    <path d="M-163.35 -27.25 L-156.35 -27.25 -156.5 3.25 -163.35 3.25 -163.35 -27.25" fill="#ffffff" fill-rule="evenodd" stroke="none"/>
    <path d="M209.65 -49.45 L216.5 -49.45 216.5 25.05 209.65 25.05 209.65 -49.45" fill="#ffffff" fill-rule="evenodd" stroke="none"/>
  </g>
</svg>
