<?xml version="1.0" encoding="UTF-8" standalone="no"?>
<svg xmlns:ffdec="https://www.free-decompiler.com/flash" xmlns:xlink="http://www.w3.org/1999/xlink" ffdec:objectType="shape" height="175.65px" width="96.55px" xmlns="http://www.w3.org/2000/svg">
  <g transform="matrix(1.0, 0.0, 0.0, 1.0, 50.3, 76.65)">
    <path d="M46.25 -76.65 L46.25 99.0 -50.3 99.0 -50.3 -76.65 46.25 -76.65" fill="#000000" fill-rule="evenodd" stroke="none"/>
    <path d="M21.95 -69.75 L39.25 -53.3 39.25 6.05 35.7 6.05 35.7 9.7 31.35 9.7 31.35 27.7 23.7 49.35 39.25 54.65 39.25 91.5 -30.3 91.5 -43.5 77.35 -43.5 45.7 -30.65 32.0 -30.3 7.7 -43.5 -5.95 -43.5 -69.75 21.95 -69.75" fill="#000000" fill-rule="evenodd" stroke="none"/>
    <path d="M6.75 -63.0 L2.4 -69.75 21.95 -69.75 39.25 -53.3 39.25 -18.0 27.25 -18.0 23.9 -21.5 23.9 -35.5 27.25 -37.5 27.25 -50.4 14.25 -63.0 6.75 -63.0" fill="#000000" fill-rule="evenodd" stroke="none"/>
    <path d="M-18.5 -5.65 L-18.5 12.05 10.1 21.8 4.5 38.05 -9.0 33.45 -31.25 56.7 -31.25 71.25 -28.25 71.25 -28.25 91.5 -32.5 91.5 -43.5 82.25 -43.5 42.75 -31.25 31.25 -31.25 6.85 -43.5 -4.3 -43.5 -69.75 -19.45 -69.75 -32.75 -56.25 -31.5 -52.0 -31.5 -18.0 -18.5 -5.65" fill="#000000" fill-rule="evenodd" stroke="none"/>
    <path d="M39.25 -17.5 L46.25 -17.5 46.25 5.75 39.25 5.75 39.25 -17.5" fill="#000000" fill-rule="evenodd" stroke="none"/>
    <path d="M39.25 58.25 L46.25 58.25 46.25 89.0 39.25 89.0 39.25 58.25" fill="#000000" fill-rule="evenodd" stroke="none"/>
    <path d="M46.25 -76.65 L46.25 99.0 -50.3 99.0 -50.3 -76.65 46.25 -76.65" fill="#434343" fill-rule="evenodd" stroke="none"/>
    <path d="M21.95 -69.75 L39.25 -53.3 39.25 6.05 35.7 6.05 35.7 9.7 31.35 9.7 31.35 27.7 23.7 49.35 39.25 54.65 39.25 91.5 -30.3 91.5 -43.5 77.35 -43.5 45.7 -30.65 32.0 -30.3 7.7 -43.5 -5.95 -43.5 -69.75 21.95 -69.75" fill="#969696" fill-rule="evenodd" stroke="none"/>
    <path d="M6.75 -63.0 L2.4 -69.75 21.95 -69.75 39.25 -53.3 39.25 -18.0 27.25 -18.0 23.9 -21.5 23.9 -35.5 27.25 -37.5 27.25 -50.4 14.25 -63.0 6.75 -63.0" fill="#707070" fill-rule="evenodd" stroke="none"/>
    <path d="M-18.5 -5.65 L-18.5 12.05 10.1 21.8 4.5 38.05 -9.0 33.45 -31.25 56.7 -31.25 71.25 -28.25 71.25 -28.25 91.5 -32.5 91.5 -43.5 82.25 -43.5 42.75 -31.25 31.25 -31.25 6.85 -43.5 -4.3 -43.5 -69.75 -19.45 -69.75 -32.75 -56.25 -31.5 -52.0 -31.5 -18.0 -18.5 -5.65" fill="#707070" fill-rule="evenodd" stroke="none"/>
    <path d="M39.25 -17.5 L46.25 -17.5 46.25 5.75 39.25 5.75 39.25 -17.5" fill="#ffffff" fill-rule="evenodd" stroke="none"/>
    <path d="M39.25 58.25 L46.25 58.25 46.25 89.0 39.25 89.0 39.25 58.25" fill="#ffffff" fill-rule="evenodd" stroke="none"/>
  </g>
</svg>
