<?xml version="1.0" encoding="UTF-8" standalone="no"?>
<svg xmlns:ffdec="https://www.free-decompiler.com/flash" xmlns:xlink="http://www.w3.org/1999/xlink" ffdec:objectType="shape" height="437.95px" width="369.95px" xmlns="http://www.w3.org/2000/svg">
  <g transform="matrix(1.0, 0.0, 0.0, 1.0, 183.95, 224.95)">
    <path d="M186.0 -224.95 L186.0 -65.95 181.0 -41.45 186.0 -5.95 186.0 11.05 180.0 36.55 186.0 69.5 186.0 213.0 -183.95 213.0 -183.95 -224.95 186.0 -224.95" fill="#424242" fill-rule="evenodd" stroke="none"/>
    <path d="M177.5 -140.45 L177.5 -73.45 171.0 -73.45 171.0 -65.95 181.0 -65.95 181.0 -5.95 177.0 -5.95 177.0 -0.95 171.0 -0.95 171.0 6.55 176.5 6.55 176.5 11.05 181.0 11.05 181.0 69.5 171.5 69.5 171.5 76.0 176.5 76.0 176.5 134.0 171.5 134.0 171.5 140.0 176.5 140.0 176.5 195.0 171.5 195.0 171.5 204.0 -170.95 204.0 -170.95 195.5 -175.45 195.5 Q-174.95 168.5 -174.95 141.5 L-169.95 141.5 -169.95 132.5 -174.95 132.5 -174.95 76.5 -169.95 76.5 -169.95 70.0 -174.95 70.0 -177.95 31.55 -174.95 11.05 -174.95 7.55 -169.95 7.55 -169.95 -0.95 -174.95 -0.95 -174.95 -5.95 Q-176.95 -19.95 -179.45 -33.95 -176.95 -49.95 -174.95 -65.95 L-169.95 -65.95 -169.95 -72.95 -174.95 -72.95 -174.95 -141.95 -169.95 -141.95 -169.95 -149.45 -174.95 -149.45 -174.95 -204.45 -169.95 -204.45 -169.95 -212.45 -174.95 -212.45 -174.95 -217.45 177.5 -217.45 177.5 -212.95 171.5 -212.95 171.5 -204.45 177.5 -204.45 177.5 -148.95 171.5 -148.95 171.5 -140.45 177.5 -140.45" fill="#939393" fill-rule="evenodd" stroke="none"/>
    <path d="M-162.95 -77.45 L-174.95 -77.45 -174.95 -139.95 -162.95 -139.95 -162.95 -77.45" fill="#6f6f6f" fill-rule="evenodd" stroke="none"/>
    <path d="M-73.95 -88.45 L-69.95 -88.95 -65.95 -87.95 -62.45 -85.45 -59.45 -82.45 Q-58.45 -80.45 -57.95 -78.45 -57.45 -76.45 -57.45 -74.45 L-58.45 -70.45 Q-59.45 -68.45 -60.95 -66.95 -62.45 -65.45 -63.95 -64.45 -65.45 -63.45 -67.45 -62.45 L-71.95 -62.45 -75.95 -63.45 Q-77.45 -64.45 -79.45 -65.45 -80.45 -66.95 -81.95 -68.45 L-83.95 -72.45 -83.95 -76.45 -82.95 -80.45 -80.95 -83.95 -77.95 -86.95 Q-75.95 -87.45 -73.95 -88.45" fill="#6f6f6f" fill-rule="evenodd" stroke="none"/>
    <path d="M-36.95 -87.45 Q-34.95 -86.45 -33.45 -85.45 -31.95 -83.95 -30.95 -82.45 L-28.95 -78.45 -28.95 -74.45 -29.95 -70.45 -31.95 -66.95 -34.95 -63.95 Q-36.95 -62.95 -38.95 -62.45 L-42.95 -61.95 -46.95 -62.95 -50.45 -65.45 -53.45 -68.45 Q-53.95 -70.45 -54.95 -72.45 -54.95 -74.45 -55.45 -76.45 L-54.45 -80.45 Q-52.95 -81.95 -51.95 -83.95 -50.45 -84.95 -48.95 -86.45 L-44.95 -88.45 -40.95 -88.45 -36.95 -87.45" fill="#6f6f6f" fill-rule="evenodd" stroke="none"/>
    <path d="M55.0 146.0 L55.0 150.0 54.0 154.0 52.0 158.0 49.0 160.5 Q47.0 161.5 45.05 162.0 L41.05 162.5 37.05 161.5 Q35.55 160.5 33.55 159.5 L30.55 156.0 29.05 152.5 Q29.05 150.5 28.55 148.5 L29.55 144.5 32.05 140.5 35.05 138.0 Q37.05 137.5 38.55 136.5 L43.05 136.0 47.0 137.0 50.5 139.0 Q53.0 142.5 55.0 146.0" fill="#6f6f6f" fill-rule="evenodd" stroke="none"/>
    <path d="M84.0 146.0 Q84.5 148.0 84.5 150.0 L83.5 154.0 81.5 158.0 Q80.0 159.5 78.0 160.5 76.5 161.5 74.5 162.0 L70.5 162.5 66.5 161.5 62.5 159.5 60.0 156.0 58.5 152.5 Q58.5 150.5 58.0 148.5 L59.0 144.5 61.0 140.5 Q63.0 139.5 64.5 138.0 66.5 137.5 68.0 136.5 L72.0 136.0 76.0 137.0 80.0 139.0 82.5 142.5 84.0 146.0" fill="#6f6f6f" fill-rule="evenodd" stroke="none"/>
    <path d="M177.5 -75.95 L162.5 -75.95 162.5 -136.95 177.5 -136.95 177.5 -75.95" fill="#6f6f6f" fill-rule="evenodd" stroke="none"/>
    <path d="M176.5 134.0 L171.5 134.0 171.5 136.5 165.0 136.5 165.0 76.0 176.5 76.0 176.5 134.0" fill="#6f6f6f" fill-rule="evenodd" stroke="none"/>
    <path d="M95.0 202.5 L80.0 202.5 80.0 195.5 95.0 195.5 95.0 202.5" fill="#6f6f6f" fill-rule="evenodd" stroke="none"/>
    <path d="M68.5 203.0 L22.55 203.0 22.55 196.5 68.5 196.5 68.5 203.0" fill="#6f6f6f" fill-rule="evenodd" stroke="none"/>
    <path d="M-8.95 203.5 L-54.95 203.5 -54.95 197.0 -8.95 197.0 -8.95 203.5" fill="#6f6f6f" fill-rule="evenodd" stroke="none"/>
    <path d="M-97.95 204.0 L-170.45 204.0 -170.45 197.5 -97.95 197.5 -97.95 204.0" fill="#6f6f6f" fill-rule="evenodd" stroke="none"/>
    <path d="M-174.95 156.5 L-174.95 141.5 -164.95 141.5 -164.95 156.5 -174.95 156.5" fill="#6f6f6f" fill-rule="evenodd" stroke="none"/>
    <path d="M-174.95 84.5 L-168.95 84.5 -168.95 132.5 -174.95 132.5 -174.95 84.5" fill="#6f6f6f" fill-rule="evenodd" stroke="none"/>
    <path d="M-170.45 69.0 L-170.45 64.0 -163.95 64.0 -163.95 69.0 -170.45 69.0" fill="#6f6f6f" fill-rule="evenodd" stroke="none"/>
    <path d="M-156.95 73.5 L-162.95 74.0 Q-162.95 69.5 -163.45 64.5 L-157.45 64.0 Q-156.95 69.0 -156.95 73.5" fill="#6f6f6f" fill-rule="evenodd" stroke="none"/>
    <path d="M-154.95 -63.45 L-166.95 -63.45 -166.95 -71.95 -154.95 -71.95 -154.95 -63.45" fill="#6f6f6f" fill-rule="evenodd" stroke="none"/>
    <path d="M-147.95 -64.95 L-157.45 -64.95 -157.45 -73.45 -147.95 -73.45 -147.95 -64.95" fill="#6f6f6f" fill-rule="evenodd" stroke="none"/>
    <path d="M-150.95 -209.95 L-165.45 -209.95 -165.45 -216.95 -150.95 -216.95 -150.95 -209.95" fill="#6f6f6f" fill-rule="evenodd" stroke="none"/>
    <path d="M134.0 -209.95 L88.5 -209.95 88.5 -216.95 134.0 -216.95 134.0 -209.95" fill="#6f6f6f" fill-rule="evenodd" stroke="none"/>
    <path d="M-49.45 -211.95 L-96.45 -211.95 -96.45 -216.95 -49.45 -216.95 -49.45 -211.95" fill="#6f6f6f" fill-rule="evenodd" stroke="none"/>
    <path d="M50.0 -210.45 L35.55 -210.45 35.55 -216.95 50.0 -216.95 50.0 -210.45" fill="#6f6f6f" fill-rule="evenodd" stroke="none"/>
    <path d="M-126.95 -207.45 Q-132.95 -203.45 -139.45 -199.95 L-143.95 -207.45 Q-137.45 -210.95 -131.45 -214.95 L-126.95 -207.45" fill="#6f6f6f" fill-rule="evenodd" stroke="none"/>
    <path d="M186.0 -5.95 L177.0 -5.95 177.0 -65.95 186.0 -65.95 186.0 -5.95" fill="#ffffff" fill-rule="evenodd" stroke="none"/>
    <path d="M186.0 69.5 L177.0 69.5 177.0 11.05 186.0 11.05 186.0 69.5" fill="#ffffff" fill-rule="evenodd" stroke="none"/>
    <path d="M-174.95 -5.95 L-183.95 -5.95 -183.95 -65.95 -174.95 -65.95 -174.95 -5.95" fill="#ffffff" fill-rule="evenodd" stroke="none"/>
    <path d="M-174.95 70.0 L-183.95 70.0 -183.95 11.05 -174.95 11.05 -174.95 70.0" fill="#ffffff" fill-rule="evenodd" stroke="none"/>
  </g>
</svg>
