<?xml version="1.0" encoding="UTF-8" standalone="no"?>
<svg xmlns:ffdec="https://www.free-decompiler.com/flash" xmlns:xlink="http://www.w3.org/1999/xlink" ffdec:objectType="shape" height="430.95px" width="512.0px" xmlns="http://www.w3.org/2000/svg">
  <g transform="matrix(1.0, 0.0, 0.0, 1.0, -383.5, -120.5)">
    <path d="M895.2 120.8 L895.5 121.5 895.2 122.2 894.5 122.5 385.5 122.5 384.8 122.2 Q384.5 121.9 384.5 121.5 384.5 121.1 384.8 120.8 385.1 120.5 385.5 120.5 L894.5 120.5 Q894.9 120.5 895.2 120.8" fill="#cccccc" fill-rule="evenodd" stroke="none"/>
    <path d="M894.5 416.0 Q894.9 416.0 895.2 416.3 L895.5 417.0 895.2 417.7 894.5 418.0 385.5 418.0 384.8 417.7 Q384.5 417.4 384.5 417.0 384.5 416.6 384.8 416.3 385.1 416.0 385.5 416.0 L894.5 416.0" fill="#cccccc" fill-rule="evenodd" stroke="none"/>
    <path d="M894.2 549.75 L894.5 550.45 894.2 551.15 893.5 551.45 384.5 551.45 Q384.1 551.45 383.8 551.15 383.5 550.85 383.5 550.45 383.5 550.05 383.8 549.75 384.1 549.45 384.5 549.45 L893.5 549.45 Q893.9 549.45 894.2 549.75" fill="#cccccc" fill-rule="evenodd" stroke="none"/>
  </g>
</svg>
