<?xml version="1.0" encoding="UTF-8" standalone="no"?>
<svg xmlns:ffdec="https://www.free-decompiler.com/flash" xmlns:xlink="http://www.w3.org/1999/xlink" ffdec:objectType="shape" height="32.0px" width="19.75px" xmlns="http://www.w3.org/2000/svg">
  <g transform="matrix(1.0, 0.0, 0.0, 1.0, 0.0, 0.0)">
    <path d="M10.25 0.0 Q12.85 0.15 14.65 2.05 L14.65 2.0 Q16.6 3.95 16.6 6.75 16.6 8.85 15.5 10.5 L16.2 10.7 16.9 11.2 Q19.7 14.1 19.75 18.1 L19.75 18.2 19.75 30.0 Q19.75 30.85 19.2 31.45 18.6 32.0 17.75 32.0 L2.65 32.0 2.35 32.0 2.0 32.0 Q1.15 32.0 0.6 31.45 0.0 30.85 0.0 30.0 L0.0 18.2 0.0 18.1 0.0 18.05 Q0.05 16.0 0.8 14.25 L0.8 14.3 Q1.5 12.65 2.85 11.25 L2.9 11.2 3.55 10.7 4.25 10.5 Q3.25 9.05 3.15 7.3 L3.15 7.15 3.15 6.75 Q3.15 4.0 5.05 2.0 L5.1 2.0 Q7.05 0.0 9.9 0.0 L10.15 0.0 10.25 0.0 M2.0 18.1 L2.0 18.2 2.0 30.0 2.65 30.0 17.75 30.0 17.75 18.2 17.75 18.1 Q17.7 14.9 15.45 12.6 L15.3 12.5 Q13.05 14.7 9.9 14.7 6.7 14.7 4.45 12.5 L4.3 12.6 Q3.2 13.75 2.65 15.05 2.05 16.45 2.0 18.1 M13.2 3.4 Q11.95 2.1 10.15 2.0 L9.9 2.0 Q7.9 2.0 6.5 3.4 5.15 4.8 5.15 6.75 L5.15 7.15 Q5.25 8.85 6.5 10.15 7.9 11.55 9.9 11.55 11.8 11.55 13.2 10.15 14.6 8.75 14.6 6.75 14.6 4.8 13.2 3.4" fill="#000000" fill-rule="evenodd" stroke="none"/>
    <path d="M13.2 3.4 Q14.6 4.8 14.6 6.75 14.6 8.75 13.2 10.15 11.8 11.55 9.9 11.55 7.9 11.55 6.5 10.15 5.25 8.85 5.15 7.15 L5.15 6.75 Q5.15 4.8 6.5 3.4 7.9 2.0 9.9 2.0 L10.15 2.0 Q11.95 2.1 13.2 3.4 M2.0 18.1 Q2.05 16.45 2.65 15.05 3.2 13.75 4.3 12.6 L4.45 12.5 Q6.7 14.7 9.9 14.7 13.05 14.7 15.3 12.5 L15.45 12.6 Q17.7 14.9 17.75 18.1 L17.75 18.2 17.75 30.0 2.65 30.0 2.0 30.0 2.0 18.2 2.0 18.1" fill="#2d6eb9" fill-rule="evenodd" stroke="none"/>
  </g>
</svg>
