<?xml version="1.0" encoding="UTF-8" standalone="no"?>
<svg xmlns:ffdec="https://www.free-decompiler.com/flash" xmlns:xlink="http://www.w3.org/1999/xlink" ffdec:objectType="shape" height="297.5px" width="511.0px" xmlns="http://www.w3.org/2000/svg">
  <g transform="matrix(1.0, 0.0, 0.0, 1.0, -384.5, -120.5)">
    <path d="M894.5 120.5 Q894.9 120.5 895.2 120.8 L895.5 121.5 895.2 122.2 894.5 122.5 385.5 122.5 384.8 122.2 Q384.5 121.9 384.5 121.5 384.5 121.1 384.8 120.8 385.1 120.5 385.5 120.5 L894.5 120.5" fill="#cccccc" fill-rule="evenodd" stroke="none"/>
    <path d="M895.2 417.7 L894.5 418.0 385.5 418.0 384.8 417.7 Q384.5 417.4 384.5 417.0 384.5 416.6 384.8 416.3 385.1 416.0 385.5 416.0 L894.5 416.0 Q894.9 416.0 895.2 416.3 L895.5 417.0 895.2 417.7" fill="#cccccc" fill-rule="evenodd" stroke="none"/>
  </g>
</svg>
