<?xml version="1.0" encoding="UTF-8" standalone="no"?>
<svg xmlns:ffdec="https://www.free-decompiler.com/flash" xmlns:xlink="http://www.w3.org/1999/xlink" ffdec:objectType="shape" height="152.0px" width="1194.05px" xmlns="http://www.w3.org/2000/svg">
  <g transform="matrix(1.0, 0.0, 0.0, 1.0, 521.1, 76.2)">
    <path d="M631.25 -74.55 L649.2 -68.3 657.9 -63.45 665.0 -56.55 670.0 -48.15 672.6 -38.8 672.6 -32.8 672.95 -32.8 672.95 38.4 670.35 47.75 665.3 56.2 658.25 63.05 649.55 67.9 631.6 74.15 603.35 74.15 594.25 75.8 -248.75 75.8 -279.0 73.8 -328.65 67.65 -353.35 63.15 -378.0 58.1 -427.7 44.15 -469.75 27.05 -515.4 6.7 -518.95 3.8 -520.5 2.25 -521.1 0.2 -521.1 -0.2 -520.5 -2.25 -518.95 -3.8 -515.4 -6.7 -469.75 -27.05 -427.7 -44.15 -378.0 -58.1 -353.35 -63.15 -328.65 -67.6 -279.0 -73.8 -248.75 -75.8 -248.75 -76.2 593.95 -76.2 603.0 -74.55 631.25 -74.55" fill="#434343" fill-rule="evenodd" stroke="none"/>
    <path d="M248.05 24.9 L247.85 23.55 247.45 23.05 246.95 22.8 192.25 22.8 192.25 12.45 188.1 12.45 188.1 20.65 165.1 20.65 165.1 46.45 119.95 46.45 119.95 48.45 117.25 48.45 117.25 50.95 174.25 50.95 174.25 48.95 186.25 48.95 186.75 50.95 210.75 50.95 216.1 40.45 192.25 40.45 192.25 28.45 240.25 28.45 240.25 40.95 228.6 40.95 228.6 47.45 246.45 47.45 247.0 47.25 247.9 46.35 248.1 45.65 248.05 24.9 M165.1 -46.35 L165.1 -20.55 188.1 -20.55 188.1 -12.35 192.25 -12.35 192.25 -22.7 246.95 -22.7 247.45 -22.95 247.85 -23.45 248.1 -25.7 248.1 -45.55 247.9 -46.2 247.0 -47.15 246.45 -47.35 228.6 -47.35 228.6 -40.85 240.25 -40.85 240.25 -28.35 192.25 -28.35 192.25 -40.35 216.1 -40.35 210.75 -50.85 186.75 -50.85 186.25 -48.85 174.25 -48.85 174.25 -50.85 117.25 -50.85 117.25 -48.35 119.95 -48.35 119.95 -46.35 165.1 -46.35 M330.25 -73.2 L336.0 -74.05 342.5 -74.05 348.9 -73.1 355.1 -71.35 356.85 -70.55 358.95 -70.55 358.95 -69.65 361.0 -68.7 366.5 -65.25 371.45 -61.1 380.95 -51.0 384.6 -44.9 385.45 -42.35 390.0 -42.35 395.6 -41.55 401.0 -39.95 406.15 -37.55 410.9 -34.45 415.2 -30.7 418.95 -26.35 422.1 -21.5 424.55 -16.2 426.3 -10.65 427.3 -4.9 427.35 -2.25 427.5 -1.2 427.5 0.95 427.35 2.05 427.3 4.65 426.3 10.4 424.55 16.0 422.1 21.25 418.95 26.1 415.2 30.45 410.9 34.2 406.15 37.3 401.0 39.7 395.6 41.3 390.0 42.1 385.45 42.1 384.6 44.65 380.95 50.8 371.45 60.85 366.5 65.05 361.0 68.45 358.95 69.4 358.95 70.3 356.85 70.3 355.1 71.1 348.9 72.9 342.5 73.8 336.0 73.8 330.25 72.95 323.25 72.95 323.25 71.05 321.65 70.3 314.95 70.3 314.95 67.55 306.35 67.55 306.35 69.3 50.35 69.3 50.35 63.95 53.5 63.95 53.5 50.65 88.8 50.65 88.8 50.85 90.35 50.85 90.35 53.55 97.95 53.55 97.95 51.1 103.95 51.1 103.95 48.3 89.6 48.3 88.25 46.1 88.25 11.55 78.8 11.55 78.8 -14.05 88.25 -14.05 88.25 -46.35 89.6 -48.55 103.95 -48.55 103.95 -51.3 97.95 -51.3 97.95 -53.75 90.35 -53.75 90.35 -51.1 88.8 -51.1 88.8 -50.9 53.5 -50.9 53.5 -64.2 50.35 -64.2 50.35 -69.55 306.35 -69.55 306.35 -67.75 314.95 -67.75 314.95 -70.55 321.65 -70.55 323.25 -71.25 323.25 -73.2 330.25 -73.2" fill="#969696" fill-rule="evenodd" stroke="none"/>
    <path d="M47.25 -63.6 L47.25 -50.3 -37.4 -50.25 -43.75 -49.3 -49.95 -47.4 -55.9 -44.6 -61.4 -40.95 -66.35 -36.5 -70.7 -31.35 -74.35 -25.6 -77.2 -19.35 -79.25 -12.7 -80.35 -5.95 -80.35 6.35 -79.25 13.1 -77.2 19.75 -74.35 26.0 -70.7 31.75 -66.35 36.9 -61.4 41.35 -55.9 45.0 -49.95 47.8 -43.75 49.7 -37.4 50.7 47.25 50.7 47.25 64.0 -38.4 64.0 -46.75 62.75 -54.8 60.25 -62.45 56.65 -69.55 51.9 -75.95 46.2 -81.5 39.65 -86.1 32.35 -89.7 24.5 -92.25 16.15 -93.65 7.45 -93.65 -7.05 -92.25 -15.75 -89.7 -24.05 -86.1 -31.95 -81.5 -39.25 -75.95 -45.8 -69.55 -51.5 -62.45 -56.2 -54.8 -59.85 -46.75 -62.35 -38.4 -63.6 47.25 -63.6" fill="#969696" fill-rule="evenodd" stroke="none"/>
    <path d="M12.15 -48.45 L12.15 -21.35 10.15 -21.35 10.15 -14.7 14.15 -14.7 14.15 -20.45 38.15 -20.45 38.15 19.75 14.15 19.75 14.15 13.95 10.15 13.95 10.15 20.85 12.15 20.85 12.15 47.95 -28.95 47.95 -43.3 44.15 -49.35 41.6 -54.95 38.3 -60.05 34.2 -64.55 29.5 -68.35 24.15 -71.35 18.35 -73.5 12.2 -74.8 5.8 -75.15 -4.7 -74.85 -4.75 -74.8 -6.3 -73.5 -12.7 -71.35 -18.85 -68.35 -24.65 -64.55 -29.95 -60.05 -34.7 -54.95 -38.8 -49.35 -42.1 -43.3 -44.65 -28.95 -48.45 12.15 -48.45 M-10.05 -17.5 L-10.25 -18.2 -10.65 -18.8 -11.2 -19.25 -11.85 -19.6 -12.55 -19.7 -13.3 -19.6 -13.95 -19.3 -14.5 -18.85 -14.9 -18.2 -15.1 -17.55 -15.2 -16.8 -15.2 15.9 -14.85 17.35 -14.45 17.95 -13.9 18.4 -13.2 18.7 -12.5 18.8 -11.8 18.7 -11.15 18.4 -10.6 17.9 -10.2 17.3 -10.0 16.6 -10.05 15.85 -10.05 -17.5" fill="#969696" fill-rule="evenodd" stroke="none"/>
    <path d="M-15.2 -12.6 L-15.2 11.8 -24.75 11.8 -24.75 -12.6 -15.2 -12.6" fill="#707070" fill-rule="evenodd" stroke="none"/>
    <path d="M-53.85 -37.15 L-48.45 -40.35 -43.55 -32.05 -42.05 -28.2 -41.9 -24.05 -44.75 -19.2 -52.9 -12.85 -56.55 -9.05 -57.4 -7.35 -58.05 -2.85 -58.05 2.95 -57.4 8.05 -56.55 9.7 -52.9 13.55 -44.75 19.9 -41.9 24.7 -42.05 28.9 -43.55 32.7 -48.45 41.0 -53.85 37.85 -58.7 33.95 -63.0 29.4 -66.6 24.3 -69.5 18.75 -71.55 12.85 -72.8 6.75 -73.1 3.65 -73.1 -3.0 -72.8 -6.05 -71.55 -12.15 -69.5 -18.05 -66.6 -23.6 -63.0 -28.7 -58.7 -33.25 -53.85 -37.15" fill="#707070" fill-rule="evenodd" stroke="none"/>
    <path d="M169.85 23.35 L169.65 24.0 169.55 25.05 169.5 40.8 169.3 42.85 168.55 44.8 166.55 46.85 164.0 47.3 120.15 47.3 120.15 40.65 162.85 40.65 162.9 24.5 163.1 22.65 163.8 20.4 166.3 17.0 168.3 15.8 170.6 14.9 172.8 14.65 188.1 14.65 188.1 21.3 173.0 21.3 172.25 21.4 171.25 21.8 170.75 22.1 169.85 23.35" fill="#707070" fill-rule="evenodd" stroke="none"/>
    <path d="M162.9 -24.55 L162.85 -40.7 120.15 -40.7 120.15 -47.35 164.0 -47.35 166.55 -46.9 168.55 -44.85 169.3 -42.9 169.5 -40.85 169.55 -25.1 169.65 -24.05 169.85 -23.4 170.75 -22.15 171.25 -21.85 172.25 -21.45 173.0 -21.35 188.15 -21.35 188.15 -14.7 172.8 -14.7 170.6 -14.95 168.3 -15.85 166.3 -17.05 163.8 -20.45 163.1 -22.7 162.9 -24.55" fill="#707070" fill-rule="evenodd" stroke="none"/>
    <path d="M34.95 -14.05 L39.8 -14.05 39.8 11.55 34.95 11.55 34.95 -14.05" fill="#ffffff" fill-rule="evenodd" stroke="none"/>
    <path d="M434.5 46.05 L433.05 51.2 431.15 55.45 428.7 59.4 425.65 62.95 422.05 65.95 418.05 68.3 413.65 69.95 409.05 70.8 366.35 70.8 364.35 65.75 373.05 59.1 377.5 54.85 380.95 50.8 407.25 50.8 408.3 50.6 409.4 50.2 410.5 49.55 411.55 48.65 412.55 47.45 413.45 46.05 414.2 44.45 414.5 43.3 414.5 41.4 434.5 41.4 434.5 46.05" fill="#969696" fill-rule="evenodd" stroke="none"/>
    <path d="M380.95 -50.25 L377.5 -54.35 373.05 -58.6 364.35 -65.25 366.35 -70.25 409.05 -70.25 413.65 -69.45 418.05 -67.8 422.05 -65.4 425.65 -62.45 428.7 -58.9 431.15 -54.95 433.05 -50.7 434.5 -45.55 434.5 -40.9 414.5 -40.9 414.5 -42.8 414.2 -43.9 413.45 -45.55 412.55 -46.95 411.55 -48.15 410.5 -49.05 409.4 -49.65 408.3 -50.05 407.25 -50.25 380.95 -50.25" fill="#969696" fill-rule="evenodd" stroke="none"/>
  </g>
</svg>
