<?xml version="1.0" encoding="UTF-8" standalone="no"?>
<svg xmlns:ffdec="https://www.free-decompiler.com/flash" xmlns:xlink="http://www.w3.org/1999/xlink" ffdec:objectType="shape" height="100.0px" width="100.0px" xmlns="http://www.w3.org/2000/svg">
  <g transform="matrix(1.0, 0.0, 0.0, 1.0, 50.0, 50.0)">
    <path d="M33.25 -0.75 Q33.0 -14.0 23.5 -23.5 13.8 -33.25 0.0 -33.25 -13.8 -33.25 -23.55 -23.5 -33.0 -14.0 -33.25 -0.75 L-50.0 -0.75 Q-49.75 -21.0 -35.35 -35.35 -20.75 -50.0 0.0 -50.0 20.75 -50.0 35.35 -35.35 49.75 -21.0 50.0 -0.75 L33.25 -0.75 M-33.25 0.75 Q-33.0 14.05 -23.55 23.5 -13.8 33.25 0.0 33.25 10.5 33.25 18.6 27.65 21.15 25.85 23.5 23.5 27.7 19.3 30.15 14.35 33.1 8.15 33.25 0.75 L50.0 0.75 Q49.75 21.0 35.35 35.35 28.45 42.25 20.2 45.9 11.0 50.0 0.0 50.0 -11.0 50.0 -20.25 45.9 -28.45 42.25 -35.35 35.35 -49.75 21.0 -50.0 0.75 L-33.25 0.75 M43.9 19.85 L33.65 15.0 33.0 16.35 43.25 21.2 43.9 19.85 M27.5 39.45 L21.15 30.05 19.9 30.9 26.25 40.3 27.5 39.45 M-33.75 14.9 L-44.05 19.7 -43.4 21.05 -33.1 16.25 -33.75 14.9 M-27.85 39.3 L-26.6 40.15 -20.2 30.8 -21.45 29.95 -27.85 39.3" fill="#161616" fill-rule="evenodd" stroke="none"/>
    <path d="M33.25 -0.75 L50.0 -0.75 50.0 0.0 50.0 0.75 33.25 0.75 33.25 -0.75 M-50.0 -0.75 L-33.25 -0.75 -33.25 0.75 -50.0 0.75 -50.0 0.0 -50.0 -0.75 M43.9 19.85 L43.25 21.2 33.0 16.35 33.65 15.0 43.9 19.85 M27.5 39.45 L26.25 40.3 19.9 30.9 21.15 30.05 27.5 39.45 M-27.85 39.3 L-21.45 29.95 -20.2 30.8 -26.6 40.15 -27.85 39.3 M-33.75 14.9 L-33.1 16.25 -43.4 21.05 -44.05 19.7 -33.75 14.9" fill="#baa05e" fill-rule="evenodd" stroke="none"/>
    <path d="M1.45 49.55 L-1.45 49.55 -1.45 33.7 1.45 33.7 1.45 49.55" fill="#baa05e" fill-rule="evenodd" stroke="none"/>
  </g>
</svg>
