<?xml version="1.0" encoding="UTF-8" standalone="no"?>
<svg xmlns:ffdec="https://www.free-decompiler.com/flash" xmlns:xlink="http://www.w3.org/1999/xlink" ffdec:objectType="shape" height="61.35px" width="6.4px" xmlns="http://www.w3.org/2000/svg">
  <g transform="matrix(1.0, 0.0, 0.0, 1.0, 3.2, 47.3)">
    <path d="M1.4 -2.8 L2.25 -2.25 Q3.15 -1.3 3.2 0.0 3.1 0.95 2.5 1.85 2.0 2.65 1.15 3.05 L1.35 3.1 2.65 8.9 1.4 8.9 1.45 14.05 -1.15 14.0 -1.3 8.8 -2.55 8.8 -1.3 2.95 -2.8 1.85 Q-3.3 1.0 -3.2 0.0 -3.2 -1.3 -2.3 -2.25 L-1.45 -2.85 -0.05 -3.15 1.4 -2.8" fill="#212221" fill-rule="evenodd" stroke="none"/>
    <path d="M-1.45 -2.85 L-1.25 -45.3 0.1 -47.3 1.65 -45.25 1.4 -2.8 -0.05 -3.15 -1.45 -2.85" fill="#baa05e" fill-rule="evenodd" stroke="none"/>
  </g>
</svg>
