<?xml version="1.0" encoding="UTF-8" standalone="no"?>
<svg xmlns:ffdec="https://www.free-decompiler.com/flash" xmlns:xlink="http://www.w3.org/1999/xlink" ffdec:objectType="shape" height="559.75px" width="608.05px" xmlns="http://www.w3.org/2000/svg">
  <g transform="matrix(1.0, 0.0, 0.0, 1.0, 140.2, 320.75)">
    <path d="M467.85 -286.0 L467.85 172.0 210.5 172.0 210.5 239.0 -140.2 239.0 -140.2 -320.75 66.0 -320.75 66.0 -155.0 134.0 -155.0 134.0 -286.0 467.85 -286.0" fill="#434343" fill-rule="evenodd" stroke="none"/>
    <path d="M39.25 113.15 L39.25 103.15 29.25 103.15 29.25 113.15 39.25 113.15 M39.25 -89.35 L39.25 -99.35 29.25 -99.35 29.25 -89.35 39.25 -89.35 M451.0 -257.0 L453.8 -257.0 453.8 -185.85 451.0 -185.85 451.0 -154.35 453.8 -154.35 453.8 -83.2 451.5 -83.2 451.5 -57.5 435.15 -57.5 435.15 -55.85 405.8 -55.85 405.8 -57.5 397.15 -57.5 397.15 -62.7 367.15 -62.7 367.15 -61.0 339.8 -61.0 339.8 -62.7 331.3 -62.7 331.3 30.0 345.75 30.0 345.75 27.5 398.1 27.5 398.1 30.0 410.0 30.0 410.0 37.0 414.0 37.0 414.0 30.0 461.0 30.0 461.0 99.5 457.8 99.5 457.8 101.5 461.0 101.5 461.0 127.0 438.45 127.0 438.45 99.5 436.5 99.5 436.5 127.0 414.0 127.0 414.0 101.5 417.55 101.5 417.55 99.5 414.0 99.5 414.0 64.0 410.0 64.0 410.0 164.0 213.1 164.0 213.1 77.6 352.0 77.6 352.0 71.0 295.0 71.0 295.0 54.5 277.0 54.5 277.0 69.0 214.5 69.0 214.5 65.0 209.5 65.0 209.5 93.0 198.5 93.0 198.5 231.55 -131.0 231.55 -131.0 -312.0 -91.7 -312.0 -91.7 -314.35 13.0 -314.35 13.0 -312.0 55.0 -312.0 55.0 -143.5 82.0 -143.5 82.0 -147.0 187.5 -147.0 187.5 -143.5 209.5 -143.5 209.5 20.0 214.5 20.0 214.5 -148.0 294.65 -148.0 294.65 -165.0 300.0 -165.0 300.0 -169.7 291.65 -169.7 291.65 -153.7 146.0 -153.7 146.0 -276.35 204.0 -276.35 204.0 -279.0 277.0 -279.0 277.0 -276.35 331.0 -276.7 331.0 -169.7 326.15 -169.7 326.15 -165.0 336.1 -165.0 336.1 -276.7 451.0 -276.7 451.0 -257.0" fill="#969696" fill-rule="evenodd" stroke="none"/>
    <path d="M-131.0 231.55 L-131.0 79.0 2.3 79.0 2.3 231.55 -131.0 231.55" fill="#707070" fill-rule="evenodd" stroke="none"/>
    <path d="M191.65 68.65 L208.3 68.65 208.3 93.0 198.5 93.0 198.5 212.3 184.65 212.3 184.65 90.65 191.65 90.65 191.65 68.65" fill="#707070" fill-rule="evenodd" stroke="none"/>
    <path d="M192.5 -76.0 L209.45 -76.0 209.45 -44.5 192.5 -44.5 192.5 -76.0" fill="#707070" fill-rule="evenodd" stroke="none"/>
    <path d="M195.15 -19.65 L203.5 -20.15 205.45 12.75 197.1 13.25 195.15 -19.65" fill="#707070" fill-rule="evenodd" stroke="none"/>
    <path d="M143.5 -143.5 L143.5 -124.0 66.5 -124.0 66.5 -143.5 143.5 -143.5" fill="#707070" fill-rule="evenodd" stroke="none"/>
    <path d="M145.5 -130.5 L145.5 -143.5 209.45 -143.5 209.45 -95.0 196.0 -95.0 196.5 -130.5 145.5 -130.5" fill="#707070" fill-rule="evenodd" stroke="none"/>
    <path d="M191.4 -32.3 L199.9 -42.1 209.45 -33.75 200.95 -24.0 191.4 -32.3" fill="#707070" fill-rule="evenodd" stroke="none"/>
    <path d="M257.5 -68.0 L270.0 -68.0 270.0 -49.0 257.5 -49.0 257.5 -68.0" fill="#707070" fill-rule="evenodd" stroke="none"/>
    <path d="M281.0 -148.0 L281.0 -132.5 231.0 -132.5 231.0 -99.0 215.0 -99.0 215.0 -148.0 281.0 -148.0" fill="#707070" fill-rule="evenodd" stroke="none"/>
    <path d="M267.0 77.6 L283.5 77.6 283.5 119.0 267.0 119.0 267.0 77.6" fill="#707070" fill-rule="evenodd" stroke="none"/>
    <path d="M213.1 130.5 L213.1 93.5 225.0 93.5 225.0 130.5 213.1 130.5" fill="#707070" fill-rule="evenodd" stroke="none"/>
    <path d="M213.1 164.0 L213.1 147.5 228.0 147.5 228.0 164.0 213.1 164.0" fill="#707070" fill-rule="evenodd" stroke="none"/>
    <path d="M267.0 164.0 L267.0 143.5 280.5 143.5 280.5 164.0 267.0 164.0" fill="#707070" fill-rule="evenodd" stroke="none"/>
    <path d="M307.0 164.0 L307.0 136.5 359.0 136.5 359.0 164.0 307.0 164.0" fill="#707070" fill-rule="evenodd" stroke="none"/>
    <path d="M335.0 77.6 L335.0 97.5 291.0 97.5 291.0 77.6 335.0 77.6" fill="#707070" fill-rule="evenodd" stroke="none"/>
    <path d="M398.0 123.5 L398.0 102.5 410.0 102.5 410.0 123.5 398.0 123.5" fill="#707070" fill-rule="evenodd" stroke="none"/>
    <path d="M224.5 77.6 L224.5 89.5 213.1 89.5 213.1 77.6 224.5 77.6" fill="#707070" fill-rule="evenodd" stroke="none"/>
    <path d="M414.0 81.65 L420.0 81.65 420.0 92.65 414.0 92.65 414.0 81.65" fill="#707070" fill-rule="evenodd" stroke="none"/>
    <path d="M454.0 85.3 L454.0 30.0 461.0 30.0 461.0 85.3 454.0 85.3" fill="#707070" fill-rule="evenodd" stroke="none"/>
    <path d="M398.1 27.5 L398.1 33.25 345.75 33.25 345.75 27.5 398.1 27.5" fill="#707070" fill-rule="evenodd" stroke="none"/>
    <path d="M402.75 31.7 L408.75 31.7 408.75 34.5 402.75 34.5 402.75 31.7" fill="#707070" fill-rule="evenodd" stroke="none"/>
    <path d="M400.0 -59.0 L400.0 -76.35 424.3 -76.35 424.3 -59.0 400.0 -59.0" fill="#707070" fill-rule="evenodd" stroke="none"/>
    <path d="M348.75 -189.75 L348.75 -172.0 336.1 -172.0 336.1 -189.75 348.75 -189.75" fill="#707070" fill-rule="evenodd" stroke="none"/>
    <path d="M336.1 -273.25 L336.1 -276.7 375.75 -276.7 376.0 -201.25 336.1 -201.25 336.1 -271.25 340.25 -271.25 340.25 -213.0 363.7 -213.0 363.7 -273.25 336.1 -273.25" fill="#707070" fill-rule="evenodd" stroke="none"/>
    <path d="M404.3 -223.7 L404.3 -244.0 417.65 -244.0 417.65 -223.7 404.3 -223.7" fill="#707070" fill-rule="evenodd" stroke="none"/>
    <path d="M433.0 -183.7 L433.0 -207.7 450.65 -207.7 450.65 -183.7 433.0 -183.7" fill="#707070" fill-rule="evenodd" stroke="none"/>
    <path d="M399.3 -261.7 L399.3 -276.7 451.3 -276.7 451.3 -212.35 436.0 -212.35 436.0 -261.7 399.3 -261.7" fill="#707070" fill-rule="evenodd" stroke="none"/>
    <path d="M188.5 -236.0 L275.0 -236.0 275.0 -205.5 188.5 -205.5 188.5 -236.0" fill="#707070" fill-rule="evenodd" stroke="none"/>
    <path d="M322.0 -276.0 L330.5 -276.0 330.5 -237.5 322.0 -237.5 322.0 -276.0" fill="#707070" fill-rule="evenodd" stroke="none"/>
    <path d="M174.3 -154.2 L158.25 -158.2 161.25 -170.1 177.25 -166.05 174.3 -154.2" fill="#707070" fill-rule="evenodd" stroke="none"/>
    <path d="M320.2 -270.05 L316.95 -260.15 307.0 -263.45 310.25 -273.35 320.2 -270.05" fill="#707070" fill-rule="evenodd" stroke="none"/>
    <path d="M146.25 -166.75 L157.25 -166.75 157.25 -154.0 146.25 -154.0 146.25 -166.75" fill="#707070" fill-rule="evenodd" stroke="none"/>
    <path d="M159.45 -273.1 L154.95 -262.45 147.15 -265.7 151.65 -276.4 159.45 -273.1" fill="#707070" fill-rule="evenodd" stroke="none"/>
    <path d="M-131.0 -172.5 L-115.25 -172.5 -115.25 -50.5 -131.0 -50.5 -131.0 -172.5" fill="#707070" fill-rule="evenodd" stroke="none"/>
    <path d="M-131.0 -265.0 L-115.25 -265.0 -115.25 -174.5 -131.0 -174.5 -131.0 -265.0" fill="#707070" fill-rule="evenodd" stroke="none"/>
    <path d="M-101.0 -312.0 L-101.0 -297.0 -131.0 -297.0 -131.0 -312.0 -101.0 -312.0" fill="#707070" fill-rule="evenodd" stroke="none"/>
    <path d="M-100.0 -312.0 L-71.0 -312.0 -71.0 -297.0 -100.0 -297.0 -100.0 -312.0" fill="#707070" fill-rule="evenodd" stroke="none"/>
    <path d="M-61.5 -300.5 L-61.5 -312.0 33.0 -312.0 33.0 -300.5 -61.5 -300.5" fill="#707070" fill-rule="evenodd" stroke="none"/>
    <path d="M442.7 -175.1 L447.6 -172.3 450.4 -167.4 450.4 -161.8 447.6 -156.9 442.7 -154.1 437.1 -154.1 432.2 -156.9 429.4 -161.8 429.4 -167.4 432.2 -172.3 437.1 -175.1 442.7 -175.1" fill="#707070" fill-rule="evenodd" stroke="none"/>
    <path d="M430.7 -127.3 L435.6 -130.1 441.2 -130.1 446.1 -127.3 448.9 -122.4 448.9 -116.8 446.1 -111.9 441.2 -109.1 435.6 -109.1 430.7 -111.9 427.9 -116.8 427.9 -122.4 430.7 -127.3" fill="#707070" fill-rule="evenodd" stroke="none"/>
    <path d="M430.7 -79.8 L435.6 -82.6 441.2 -82.6 446.1 -79.8 448.9 -74.9 448.9 -69.3 446.1 -64.4 441.2 -61.6 435.6 -61.6 430.7 -64.4 427.9 -69.3 427.9 -74.9 430.7 -79.8" fill="#707070" fill-rule="evenodd" stroke="none"/>
    <path d="M339.8 -60.1 L367.15 -60.1 367.15 -58.7 390.5 -58.7 390.5 1.8 335.15 1.8 335.15 -58.7 339.8 -58.7 339.8 -60.1" fill="#707070" fill-rule="evenodd" stroke="none"/>
    <path d="M426.35 113.65 L428.15 114.7 429.45 116.6 430.05 119.0 429.85 121.55 429.25 123.2 429.25 127.0 421.8 127.0 421.8 123.2 421.05 121.65 420.85 119.1 421.45 116.65 422.7 114.7 424.45 113.65 426.35 113.65" fill="#707070" fill-rule="evenodd" stroke="none"/>
    <path d="M453.65 123.25 L453.65 127.0 446.25 127.0 446.25 123.25 445.5 121.7 445.25 119.15 445.85 116.7 447.1 114.8 448.85 113.75 450.8 113.75 452.55 114.75 453.85 116.65 454.45 119.1 454.25 121.65 453.65 123.25" fill="#707070" fill-rule="evenodd" stroke="none"/>
    <path d="M339.55 -62.7 L367.8 -62.7 367.8 -58.7 339.55 -58.7 339.55 -62.7" fill="#ffffff" fill-rule="evenodd" stroke="none"/>
    <path d="M191.8 231.55 L191.8 239.0 82.9 239.0 82.9 231.55 191.8 231.55" fill="#ffffff" fill-rule="evenodd" stroke="none"/>
  </g>
</svg>
