<?xml version="1.0" encoding="UTF-8" standalone="no"?>
<svg xmlns:ffdec="https://www.free-decompiler.com/flash" xmlns:xlink="http://www.w3.org/1999/xlink" ffdec:objectType="shape" height="20.0px" width="20.0px" xmlns="http://www.w3.org/2000/svg">
  <g transform="matrix(1.0, 0.0, 0.0, 1.0, 10.0, 10.0)">
    <path d="M5.65 -5.65 Q3.3 -7.95 0.0 -7.95 -3.3 -7.95 -5.65 -5.65 -7.95 -3.3 -7.95 0.0 -7.95 3.3 -5.65 5.6 -3.3 8.0 0.0 8.0 3.3 8.0 5.65 5.6 8.0 3.3 8.0 0.0 8.0 -3.3 5.65 -5.65 M7.05 -7.1 Q10.0 -4.15 10.0 0.0 10.0 4.15 7.05 7.05 4.15 10.0 0.0 10.0 -4.15 10.0 -7.1 7.05 -10.0 4.15 -10.0 0.0 -10.0 -4.15 -7.1 -7.1 -4.15 -10.0 0.0 -10.0 4.15 -10.0 7.05 -7.1" fill="#ffffff" fill-opacity="0.9882353" fill-rule="evenodd" stroke="none"/>
  </g>
</svg>
