<?xml version="1.0" encoding="UTF-8" standalone="no"?>
<svg xmlns:ffdec="https://www.free-decompiler.com/flash" xmlns:xlink="http://www.w3.org/1999/xlink" ffdec:objectType="shape" height="1128.6px" width="982.0px" xmlns="http://www.w3.org/2000/svg">
  <g transform="matrix(1.0, 0.0, 0.0, 1.0, 488.5, 564.5)">
    <path d="M391.5 -368.5 L391.5 -357.5 493.5 -357.5 493.5 113.5 393.05 113.5 393.05 346.0 435.0 346.0 435.0 451.25 393.05 451.25 393.05 564.1 186.55 564.1 186.55 415.85 141.85 415.85 141.85 363.85 -143.85 363.85 -143.85 415.85 -187.0 415.85 -187.0 564.1 -395.0 564.1 -395.0 251.45 -436.5 251.45 -436.5 145.75 -395.0 145.75 -395.0 -49.25 -437.0 -49.25 -437.0 -154.25 -395.0 -154.25 -395.0 -169.5 -488.5 -169.5 -488.5 -268.5 -217.8 -268.5 -217.8 -564.5 217.7 -564.5 217.7 -368.5 391.5 -368.5" fill="#000000" fill-rule="evenodd" stroke="none"/>
    <path d="M278.75 277.75 L234.75 277.75 234.75 302.0 278.75 302.0 278.75 277.75 M349.25 277.75 L304.25 277.75 304.25 302.0 349.25 302.0 349.25 277.75 M349.25 253.25 L354.5 253.25 354.5 326.75 349.25 326.75 349.25 325.5 205.75 325.5 205.75 254.25 349.25 254.25 349.25 253.25" fill="#000000" fill-rule="evenodd" stroke="none"/>
    <path d="M-351.05 255.45 L-351.05 279.7 -283.95 279.7 -283.95 255.45 -351.05 255.45 M-258.45 255.45 L-258.45 279.7 -236.45 279.7 -236.45 255.45 -258.45 255.45 M-356.45 303.95 L-356.45 230.45 -351.05 230.45 -351.05 231.95 -207.45 231.95 -207.45 303.2 -351.05 303.2 -351.05 303.95 -356.45 303.95" fill="#000000" fill-rule="evenodd" stroke="none"/>
    <path d="M167.0 25.7 L167.0 19.75 153.0 19.75 153.0 25.7 167.0 25.7 M-16.65 59.35 L-16.65 31.0 -149.3 31.0 -149.3 30.7 -169.0 30.7 -169.0 59.35 -16.65 59.35 M16.35 31.35 L16.35 59.35 167.0 59.35 167.0 31.35 16.35 31.35 M-10.3 7.35 L-10.3 3.0 6.35 3.0 6.35 25.7 7.9 25.7 8.0 16.6 167.0 16.6 167.0 2.35 192.0 2.35 192.0 8.25 197.7 8.25 197.7 81.75 192.0 81.75 192.0 87.85 147.0 87.85 147.0 84.7 -127.65 84.7 -127.65 87.85 -193.3 87.85 -193.3 83.25 -198.3 83.25 -198.3 9.75 -193.3 9.75 -193.3 2.35 -139.65 2.35 -139.65 7.35 -10.3 7.35 M29.65 19.75 L29.65 25.7 48.75 25.7 48.75 19.75 29.65 19.75 M27.9 25.7 L27.9 19.75 9.65 19.75 9.65 25.7 27.9 25.7 M69.75 19.75 L69.75 25.7 88.4 25.7 88.4 19.75 69.75 19.75 M68.0 25.7 L68.0 19.75 50.5 19.75 50.5 25.7 68.0 25.7 M133.75 19.75 L133.75 25.7 151.25 25.7 151.25 19.75 133.75 19.75 M110.5 19.75 L110.5 25.7 132.0 25.7 132.0 19.75 110.5 19.75 M108.75 25.7 L108.75 19.75 90.15 19.75 90.15 25.7 108.75 25.7" fill="#000000" fill-rule="evenodd" stroke="none"/>
    <path d="M177.6 380.5 L177.6 342.35 175.75 342.35 175.75 380.5 177.6 380.5 M153.6 327.1 L157.1 327.1 157.1 324.35 195.4 324.35 195.4 398.5 157.1 398.5 157.1 343.85 153.6 343.85 153.6 327.1 M-177.15 380.5 L-177.15 342.35 -179.0 342.35 -179.0 380.5 -177.15 380.5 M-159.3 324.35 L-159.3 327.1 -156.1 327.1 -156.1 343.85 -159.3 343.85 -159.3 398.5 -197.65 398.5 -197.65 324.35 -159.3 324.35" fill="#000000" fill-rule="evenodd" stroke="none"/>
    <path d="M-156.1 350.85 L-156.1 299.85 153.6 299.85 153.6 350.85 -156.1 350.85" fill="#000000" fill-rule="evenodd" stroke="none"/>
    <path d="M-208.45 271.2 L-208.45 264.2 -203.5 264.2 -203.5 271.2 -208.45 271.2" fill="#000000" fill-rule="evenodd" stroke="none"/>
    <path d="M202.45 286.3 L207.45 286.3 207.45 293.3 202.45 293.3 202.45 286.3" fill="#000000" fill-rule="evenodd" stroke="none"/>
    <path d="M400.95 378.55 L399.65 378.55 399.65 419.2 400.95 419.2 400.95 378.55 M357.7 385.7 L357.7 367.0 380.95 367.0 380.95 360.8 419.65 360.8 419.65 436.9 380.95 436.9 380.95 436.0 373.0 436.0 373.0 417.35 380.95 417.35 380.95 385.7 357.7 385.7" fill="#000000" fill-rule="evenodd" stroke="none"/>
    <path d="M-382.45 160.3 L-382.45 166.5 -359.15 166.5 -359.15 185.15 -382.45 185.15 -382.45 216.85 -374.5 216.85 -374.5 235.5 -382.45 235.5 -382.45 236.4 -421.15 236.4 -421.15 160.3 -382.45 160.3 M-401.15 178.0 L-402.45 178.0 -402.45 218.7 -401.15 218.7 -401.15 178.0" fill="#000000" fill-rule="evenodd" stroke="none"/>
    <path d="M-382.45 -140.05 L-382.45 -139.15 -374.5 -139.15 -374.5 -120.5 -382.45 -120.5 -382.45 -88.8 -359.15 -88.8 -359.15 -70.15 -382.45 -70.15 -382.45 -63.95 -421.15 -63.95 -421.15 -140.05 -382.45 -140.05 M-401.15 -122.3 L-402.45 -122.3 -402.45 -81.65 -401.15 -81.65 -401.15 -122.3" fill="#000000" fill-rule="evenodd" stroke="none"/>
    <path d="M355.1 -119.35 L355.1 -139.7 419.4 -139.7 419.4 -63.6 380.7 -63.6 380.7 -70.0 357.8 -70.0 357.8 -88.65 380.7 -88.65 380.7 -119.35 355.1 -119.35 M400.7 -122.0 L399.4 -122.0 399.4 -81.3 400.7 -81.3 400.7 -122.0" fill="#000000" fill-rule="evenodd" stroke="none"/>
    <path d="M-112.8 343.75 L-112.8 325.1 20.85 325.1 20.85 320.1 41.85 320.1 41.85 343.75 -112.8 343.75" fill="#000000" fill-rule="evenodd" stroke="none"/>
    <path d="M205.05 345.5 L205.05 351.0 199.55 351.0 199.55 345.5 205.05 345.5" fill="#000000" fill-rule="evenodd" stroke="none"/>
    <path d="M-200.6 345.5 L-200.6 351.0 -206.1 351.0 -206.1 345.5 -200.6 345.5" fill="#000000" fill-rule="evenodd" stroke="none"/>
    <path d="M196.6 450.95 L196.6 445.45 205.1 445.45 205.1 450.95 196.6 450.95" fill="#000000" fill-rule="evenodd" stroke="none"/>
    <path d="M196.1 550.85 L196.1 545.35 204.6 545.35 204.6 550.85 196.1 550.85" fill="#000000" fill-rule="evenodd" stroke="none"/>
    <path d="M-205.35 450.95 L-205.35 445.45 -196.85 445.45 -196.85 450.95 -205.35 450.95" fill="#000000" fill-rule="evenodd" stroke="none"/>
    <path d="M-205.35 550.85 L-205.35 545.35 -196.85 545.35 -196.85 550.85 -205.35 550.85" fill="#000000" fill-rule="evenodd" stroke="none"/>
    <path d="M374.2 -51.75 L374.2 -52.65 378.45 -52.65 378.45 -54.4 379.35 -54.4 379.35 -50.05 378.45 -50.05 378.45 -51.75 374.2 -51.75" fill="#000000" fill-rule="evenodd" stroke="none"/>
    <path d="M378.45 47.4 L378.45 45.65 379.35 45.65 379.35 50.05 378.45 50.05 378.45 48.35 374.2 48.35 374.2 47.4 378.45 47.4" fill="#000000" fill-rule="evenodd" stroke="none"/>
    <path d="M374.2 144.9 L374.2 143.95 378.45 143.95 378.45 142.2 379.35 142.2 379.35 146.6 378.45 146.6 378.45 144.9 374.2 144.9" fill="#000000" fill-rule="evenodd" stroke="none"/>
    <path d="M378.45 247.4 L378.45 245.65 379.35 245.65 379.35 250.05 378.45 250.05 378.45 248.3 374.2 248.3 374.2 247.4 378.45 247.4" fill="#000000" fill-rule="evenodd" stroke="none"/>
    <path d="M374.2 348.25 L374.2 347.35 378.45 347.35 378.45 345.6 379.35 345.6 379.35 350.0 378.45 350.0 378.45 348.25 374.2 348.25" fill="#000000" fill-rule="evenodd" stroke="none"/>
    <path d="M378.45 447.35 L378.45 445.6 379.35 445.6 379.35 449.95 378.45 449.95 378.45 448.25 374.2 448.25 374.2 447.35 378.45 447.35" fill="#000000" fill-rule="evenodd" stroke="none"/>
    <path d="M374.2 548.3 L374.2 547.35 378.45 547.35 378.45 545.6 379.35 545.6 379.35 550.0 378.45 550.0 378.45 548.3 374.2 548.3" fill="#000000" fill-rule="evenodd" stroke="none"/>
    <path d="M378.45 -152.65 L378.45 -154.4 379.35 -154.4 379.35 -150.05 378.45 -150.05 378.45 -151.75 374.2 -151.75 374.2 -152.65 378.45 -152.65" fill="#000000" fill-rule="evenodd" stroke="none"/>
    <path d="M374.2 -251.25 L374.2 -252.15 378.45 -252.15 378.45 -253.9 379.35 -253.9 379.35 -249.55 378.45 -249.55 378.45 -251.25 374.2 -251.25" fill="#000000" fill-rule="evenodd" stroke="none"/>
    <path d="M378.45 -353.9 L379.35 -353.9 379.35 -349.55 378.45 -349.55 378.45 -351.25 374.2 -351.25 374.2 -352.15 378.45 -352.15 378.45 -353.9" fill="#000000" fill-rule="evenodd" stroke="none"/>
    <path d="M-375.55 -52.65 L-375.55 -51.75 -379.8 -51.75 -379.8 -50.05 -380.7 -50.05 -380.7 -54.4 -379.8 -54.4 -379.8 -52.65 -375.55 -52.65" fill="#000000" fill-rule="evenodd" stroke="none"/>
    <path d="M-375.55 47.4 L-375.55 48.35 -379.8 48.35 -379.8 50.05 -380.7 50.05 -380.7 45.65 -379.8 45.65 -379.8 47.4 -375.55 47.4" fill="#000000" fill-rule="evenodd" stroke="none"/>
    <path d="M-375.55 143.95 L-375.55 144.9 -379.8 144.9 -379.8 146.6 -380.7 146.6 -380.7 142.2 -379.8 142.2 -379.8 143.95 -375.55 143.95" fill="#000000" fill-rule="evenodd" stroke="none"/>
    <path d="M-375.55 247.4 L-375.55 248.3 -379.8 248.3 -379.8 250.05 -380.7 250.05 -380.7 245.65 -379.8 245.65 -379.8 247.4 -375.55 247.4" fill="#000000" fill-rule="evenodd" stroke="none"/>
    <path d="M-375.55 347.35 L-375.55 348.25 -379.8 348.25 -379.8 350.0 -380.7 350.0 -380.7 345.6 -379.8 345.6 -379.8 347.35 -375.55 347.35" fill="#000000" fill-rule="evenodd" stroke="none"/>
    <path d="M-375.55 447.35 L-375.55 448.25 -379.8 448.25 -379.8 449.95 -380.7 449.95 -380.7 445.6 -379.8 445.6 -379.8 447.35 -375.55 447.35" fill="#000000" fill-rule="evenodd" stroke="none"/>
    <path d="M-375.55 547.35 L-375.55 548.3 -379.8 548.3 -379.8 550.0 -380.7 550.0 -380.7 545.6 -379.8 545.6 -379.8 547.35 -375.55 547.35" fill="#000000" fill-rule="evenodd" stroke="none"/>
    <path d="M-375.55 -152.65 L-375.55 -151.75 -379.8 -151.75 -379.8 -150.05 -380.7 -150.05 -380.7 -154.4 -379.8 -154.4 -379.8 -152.65 -375.55 -152.65" fill="#000000" fill-rule="evenodd" stroke="none"/>
    <path d="M-375.55 -252.15 L-375.55 -251.25 -379.8 -251.25 -379.8 -249.55 -380.7 -249.55 -380.7 -253.9 -379.8 -253.9 -379.8 -252.15 -375.55 -252.15" fill="#000000" fill-rule="evenodd" stroke="none"/>
    <path d="M-242.4 272.1 L-323.9 272.1 -323.9 521.5 -242.4 521.5 -242.4 272.1 M-88.5 43.0 L-96.6 43.0 -96.6 38.65 -179.75 38.65 -179.75 301.55 -96.6 301.55 -96.6 293.0 -88.5 293.0 -88.5 43.0 M-242.4 44.1 L-323.9 44.1 -323.9 251.1 -242.4 251.1 -242.4 44.1 M-201.1 45.0 L-207.4 45.0 -207.4 50.7 -220.75 50.7 -220.75 263.0 -201.1 263.0 -201.1 45.0 M-201.1 -166.65 L-220.75 -166.65 -220.75 -37.65 -201.1 -37.65 -201.1 -166.65 M205.0 50.7 L205.0 45.0 198.7 45.0 198.7 263.0 218.35 263.0 218.35 50.7 205.0 50.7 M49.2 43.0 L49.2 38.65 -51.6 38.65 -51.6 43.0 -66.75 43.0 -66.75 293.0 -51.6 293.0 -51.6 301.55 49.2 301.55 49.2 293.0 64.35 293.0 64.35 43.0 49.2 43.0 M94.2 38.65 L94.2 43.0 86.1 43.0 86.1 293.0 94.2 293.0 94.2 301.55 177.35 301.55 177.35 38.65 94.2 38.65 M218.35 -37.65 L218.35 -166.65 198.7 -166.65 198.7 -37.65 218.35 -37.65 M49.2 -221.0 L-51.6 -221.0 -51.6 -189.0 -58.75 -189.0 -58.75 -19.0 -51.6 -19.0 -51.6 16.9 49.2 16.9 49.2 -19.0 56.35 -19.0 56.35 -189.0 49.2 -189.0 49.2 -221.0 M177.35 -221.0 L94.2 -221.0 94.2 -189.0 78.1 -189.0 78.1 -19.0 94.2 -19.0 94.2 16.9 177.35 16.9 177.35 -221.0 M93.85 -486.85 L86.1 -486.85 86.1 -251.0 94.2 -251.0 94.2 -242.7 177.35 -242.7 177.35 -520.6 93.85 -520.6 93.85 -486.85 M-96.6 -221.0 L-179.75 -221.0 -179.75 16.9 -96.6 16.9 -96.6 -19.0 -80.5 -19.0 -80.5 -189.0 -96.6 -189.0 -96.6 -221.0 M-242.4 -255.5 L-323.9 -255.5 -323.9 23.1 -242.4 23.1 -242.4 -255.5 M-88.5 -486.85 L-96.2 -486.85 -96.2 -520.6 -179.75 -520.6 -179.75 -242.7 -96.6 -242.7 -96.6 -251.0 -88.5 -251.0 -88.5 -486.85 M-51.95 -486.85 L-66.75 -486.85 -66.75 -251.0 -51.6 -251.0 -51.6 -242.7 49.2 -242.7 49.2 -251.0 64.35 -251.0 64.35 -486.85 49.6 -486.85 49.6 -520.6 -51.95 -520.6 -51.95 -486.85 M321.5 23.1 L321.5 -255.5 240.0 -255.5 240.0 23.1 321.5 23.1 M321.5 251.1 L321.5 44.1 240.0 44.1 240.0 251.1 321.5 251.1 M321.5 521.5 L321.5 272.1 240.0 272.1 240.0 521.5 321.5 521.5 M352.0 -359.0 L373.0 -359.0 373.0 549.5 352.0 549.5 352.0 387.5 343.75 387.5 343.75 552.5 321.5 552.5 321.5 544.0 240.0 544.0 240.0 552.4 218.35 552.4 218.35 350.5 205.0 350.5 205.0 344.5 198.7 344.5 198.7 351.0 177.35 351.0 177.35 323.2 94.2 323.2 94.2 344.0 49.2 344.0 49.2 323.2 -51.6 323.2 -51.6 344.0 -96.6 344.0 -96.6 323.2 -179.75 323.2 -179.75 351.0 -201.1 351.0 -201.1 344.5 -207.4 344.5 -207.4 350.5 -220.75 350.5 -220.75 552.4 -242.4 552.4 -242.4 544.0 -323.9 544.0 -323.9 552.5 -346.15 552.5 -346.15 387.5 -354.4 387.5 -354.4 549.5 -375.4 549.5 -375.4 -268.5 -354.4 -268.5 -354.4 366.0 -346.15 366.0 -346.15 -268.5 -220.75 -268.5 -220.75 -255.3 -208.1 -255.3 -208.1 -249.3 -201.1 -249.3 -201.1 -554.65 -179.75 -554.65 -179.75 -542.35 -96.2 -542.35 -96.2 -549.1 -51.95 -549.1 -51.95 -542.35 49.6 -542.35 49.6 -549.1 93.85 -549.1 93.85 -542.35 177.35 -542.35 177.35 -554.65 198.7 -554.65 198.7 -249.3 205.7 -249.3 205.7 -255.3 218.35 -255.3 218.35 -355.65 240.0 -355.65 240.0 -278.0 321.5 -278.0 321.5 -356.0 343.75 -356.0 343.75 366.0 352.0 366.0 352.0 -359.0" fill="#000000" fill-rule="evenodd" stroke="none"/>
    <path d="M391.5 -368.5 L391.5 -357.5 493.5 -357.5 493.5 113.5 393.05 113.5 393.05 346.0 435.0 346.0 435.0 451.25 393.05 451.25 393.05 564.1 186.55 564.1 186.55 415.85 141.85 415.85 141.85 363.85 -143.85 363.85 -143.85 415.85 -187.0 415.85 -187.0 564.1 -395.0 564.1 -395.0 251.45 -436.5 251.45 -436.5 145.75 -395.0 145.75 -395.0 -49.25 -437.0 -49.25 -437.0 -154.25 -395.0 -154.25 -395.0 -169.5 -488.5 -169.5 -488.5 -268.5 -217.8 -268.5 -217.8 -564.5 217.7 -564.5 217.7 -368.5 391.5 -368.5" fill="#434343" fill-rule="evenodd" stroke="none"/>
    <path d="M278.75 277.75 L234.75 277.75 234.75 302.0 278.75 302.0 278.75 277.75 M349.25 277.75 L304.25 277.75 304.25 302.0 349.25 302.0 349.25 277.75 M349.25 253.25 L354.5 253.25 354.5 326.75 349.25 326.75 349.25 325.5 205.75 325.5 205.75 254.25 349.25 254.25 349.25 253.25" fill="#707070" fill-rule="evenodd" stroke="none"/>
    <path d="M-351.05 255.45 L-351.05 279.7 -283.95 279.7 -283.95 255.45 -351.05 255.45 M-258.45 255.45 L-258.45 279.7 -236.45 279.7 -236.45 255.45 -258.45 255.45 M-356.45 303.95 L-356.45 230.45 -351.05 230.45 -351.05 231.95 -207.45 231.95 -207.45 303.2 -351.05 303.2 -351.05 303.95 -356.45 303.95" fill="#707070" fill-rule="evenodd" stroke="none"/>
    <path d="M167.0 25.7 L167.0 19.75 153.0 19.75 153.0 25.7 167.0 25.7 M-16.65 59.35 L-16.65 31.0 -149.3 31.0 -149.3 30.7 -169.0 30.7 -169.0 59.35 -16.65 59.35 M16.35 31.35 L16.35 59.35 167.0 59.35 167.0 31.35 16.35 31.35 M-10.3 7.35 L-10.3 3.0 6.35 3.0 6.35 25.7 7.9 25.7 8.0 16.6 167.0 16.6 167.0 2.35 192.0 2.35 192.0 8.25 197.7 8.25 197.7 81.75 192.0 81.75 192.0 87.85 147.0 87.85 147.0 84.7 -127.65 84.7 -127.65 87.85 -193.3 87.85 -193.3 83.25 -198.3 83.25 -198.3 9.75 -193.3 9.75 -193.3 2.35 -139.65 2.35 -139.65 7.35 -10.3 7.35 M29.65 19.75 L29.65 25.7 48.75 25.7 48.75 19.75 29.65 19.75 M27.9 25.7 L27.9 19.75 9.65 19.75 9.65 25.7 27.9 25.7 M69.75 19.75 L69.75 25.7 88.4 25.7 88.4 19.75 69.75 19.75 M68.0 25.7 L68.0 19.75 50.5 19.75 50.5 25.7 68.0 25.7 M133.75 19.75 L133.75 25.7 151.25 25.7 151.25 19.75 133.75 19.75 M110.5 19.75 L110.5 25.7 132.0 25.7 132.0 19.75 110.5 19.75 M108.75 25.7 L108.75 19.75 90.15 19.75 90.15 25.7 108.75 25.7" fill="#707070" fill-rule="evenodd" stroke="none"/>
    <path d="M177.6 380.5 L177.6 342.35 175.75 342.35 175.75 380.5 177.6 380.5 M153.6 327.1 L157.1 327.1 157.1 324.35 195.4 324.35 195.4 398.5 157.1 398.5 157.1 343.85 153.6 343.85 153.6 327.1 M-177.15 380.5 L-177.15 342.35 -179.0 342.35 -179.0 380.5 -177.15 380.5 M-159.3 324.35 L-159.3 327.1 -156.1 327.1 -156.1 343.85 -159.3 343.85 -159.3 398.5 -197.65 398.5 -197.65 324.35 -159.3 324.35" fill="#707070" fill-rule="evenodd" stroke="none"/>
    <path d="M-156.1 350.85 L-156.1 299.85 153.6 299.85 153.6 350.85 -156.1 350.85" fill="#707070" fill-rule="evenodd" stroke="none"/>
    <path d="M-208.45 271.2 L-208.45 264.2 -203.5 264.2 -203.5 271.2 -208.45 271.2" fill="#ffffff" fill-rule="evenodd" stroke="none"/>
    <path d="M202.45 286.3 L207.45 286.3 207.45 293.3 202.45 293.3 202.45 286.3" fill="#ffffff" fill-rule="evenodd" stroke="none"/>
    <path d="M400.95 378.55 L399.65 378.55 399.65 419.2 400.95 419.2 400.95 378.55 M357.7 385.7 L357.7 367.0 380.95 367.0 380.95 360.8 419.65 360.8 419.65 436.9 380.95 436.9 380.95 436.0 373.0 436.0 373.0 417.35 380.95 417.35 380.95 385.7 357.7 385.7" fill="#ffffff" fill-rule="evenodd" stroke="none"/>
    <path d="M-382.45 160.3 L-382.45 166.5 -359.15 166.5 -359.15 185.15 -382.45 185.15 -382.45 216.85 -374.5 216.85 -374.5 235.5 -382.45 235.5 -382.45 236.4 -421.15 236.4 -421.15 160.3 -382.45 160.3 M-401.15 178.0 L-402.45 178.0 -402.45 218.7 -401.15 218.7 -401.15 178.0" fill="#ffffff" fill-rule="evenodd" stroke="none"/>
    <path d="M-382.45 -140.05 L-382.45 -139.15 -374.5 -139.15 -374.5 -120.5 -382.45 -120.5 -382.45 -88.8 -359.15 -88.8 -359.15 -70.15 -382.45 -70.15 -382.45 -63.95 -421.15 -63.95 -421.15 -140.05 -382.45 -140.05 M-401.15 -122.3 L-402.45 -122.3 -402.45 -81.65 -401.15 -81.65 -401.15 -122.3" fill="#ffffff" fill-rule="evenodd" stroke="none"/>
    <path d="M355.1 -119.35 L355.1 -139.7 419.4 -139.7 419.4 -63.6 380.7 -63.6 380.7 -70.0 357.8 -70.0 357.8 -88.65 380.7 -88.65 380.7 -119.35 355.1 -119.35 M400.7 -122.0 L399.4 -122.0 399.4 -81.3 400.7 -81.3 400.7 -122.0" fill="#ffffff" fill-rule="evenodd" stroke="none"/>
    <path d="M-112.8 343.75 L-112.8 325.1 20.85 325.1 20.85 320.1 41.85 320.1 41.85 343.75 -112.8 343.75" fill="#ffffff" fill-rule="evenodd" stroke="none"/>
    <path d="M205.05 345.5 L205.05 351.0 199.55 351.0 199.55 345.5 205.05 345.5" fill="#434343" fill-rule="evenodd" stroke="none"/>
    <path d="M-200.6 345.5 L-200.6 351.0 -206.1 351.0 -206.1 345.5 -200.6 345.5" fill="#434343" fill-rule="evenodd" stroke="none"/>
    <path d="M196.6 450.95 L196.6 445.45 205.1 445.45 205.1 450.95 196.6 450.95" fill="#434343" fill-rule="evenodd" stroke="none"/>
    <path d="M196.1 550.85 L196.1 545.35 204.6 545.35 204.6 550.85 196.1 550.85" fill="#434343" fill-rule="evenodd" stroke="none"/>
    <path d="M-205.35 450.95 L-205.35 445.45 -196.85 445.45 -196.85 450.95 -205.35 450.95" fill="#434343" fill-rule="evenodd" stroke="none"/>
    <path d="M-205.35 550.85 L-205.35 545.35 -196.85 545.35 -196.85 550.85 -205.35 550.85" fill="#434343" fill-rule="evenodd" stroke="none"/>
    <path d="M374.2 -51.75 L374.2 -52.65 378.45 -52.65 378.45 -54.4 379.35 -54.4 379.35 -50.05 378.45 -50.05 378.45 -51.75 374.2 -51.75" fill="#434343" fill-rule="evenodd" stroke="none"/>
    <path d="M378.45 47.4 L378.45 45.65 379.35 45.65 379.35 50.05 378.45 50.05 378.45 48.35 374.2 48.35 374.2 47.4 378.45 47.4" fill="#434343" fill-rule="evenodd" stroke="none"/>
    <path d="M374.2 144.9 L374.2 143.95 378.45 143.95 378.45 142.2 379.35 142.2 379.35 146.6 378.45 146.6 378.45 144.9 374.2 144.9" fill="#434343" fill-rule="evenodd" stroke="none"/>
    <path d="M378.45 247.4 L378.45 245.65 379.35 245.65 379.35 250.05 378.45 250.05 378.45 248.3 374.2 248.3 374.2 247.4 378.45 247.4" fill="#434343" fill-rule="evenodd" stroke="none"/>
    <path d="M374.2 348.25 L374.2 347.35 378.45 347.35 378.45 345.6 379.35 345.6 379.35 350.0 378.45 350.0 378.45 348.25 374.2 348.25" fill="#434343" fill-rule="evenodd" stroke="none"/>
    <path d="M378.45 447.35 L378.45 445.6 379.35 445.6 379.35 449.95 378.45 449.95 378.45 448.25 374.2 448.25 374.2 447.35 378.45 447.35" fill="#434343" fill-rule="evenodd" stroke="none"/>
    <path d="M374.2 548.3 L374.2 547.35 378.45 547.35 378.45 545.6 379.35 545.6 379.35 550.0 378.45 550.0 378.45 548.3 374.2 548.3" fill="#434343" fill-rule="evenodd" stroke="none"/>
    <path d="M378.45 -152.65 L378.45 -154.4 379.35 -154.4 379.35 -150.05 378.45 -150.05 378.45 -151.75 374.2 -151.75 374.2 -152.65 378.45 -152.65" fill="#434343" fill-rule="evenodd" stroke="none"/>
    <path d="M374.2 -251.25 L374.2 -252.15 378.45 -252.15 378.45 -253.9 379.35 -253.9 379.35 -249.55 378.45 -249.55 378.45 -251.25 374.2 -251.25" fill="#434343" fill-rule="evenodd" stroke="none"/>
    <path d="M378.45 -353.9 L379.35 -353.9 379.35 -349.55 378.45 -349.55 378.45 -351.25 374.2 -351.25 374.2 -352.15 378.45 -352.15 378.45 -353.9" fill="#434343" fill-rule="evenodd" stroke="none"/>
    <path d="M-375.55 -52.65 L-375.55 -51.75 -379.8 -51.75 -379.8 -50.05 -380.7 -50.05 -380.7 -54.4 -379.8 -54.4 -379.8 -52.65 -375.55 -52.65" fill="#434343" fill-rule="evenodd" stroke="none"/>
    <path d="M-375.55 47.4 L-375.55 48.35 -379.8 48.35 -379.8 50.05 -380.7 50.05 -380.7 45.65 -379.8 45.65 -379.8 47.4 -375.55 47.4" fill="#434343" fill-rule="evenodd" stroke="none"/>
    <path d="M-375.55 143.95 L-375.55 144.9 -379.8 144.9 -379.8 146.6 -380.7 146.6 -380.7 142.2 -379.8 142.2 -379.8 143.95 -375.55 143.95" fill="#434343" fill-rule="evenodd" stroke="none"/>
    <path d="M-375.55 247.4 L-375.55 248.3 -379.8 248.3 -379.8 250.05 -380.7 250.05 -380.7 245.65 -379.8 245.65 -379.8 247.4 -375.55 247.4" fill="#434343" fill-rule="evenodd" stroke="none"/>
    <path d="M-375.55 347.35 L-375.55 348.25 -379.8 348.25 -379.8 350.0 -380.7 350.0 -380.7 345.6 -379.8 345.6 -379.8 347.35 -375.55 347.35" fill="#434343" fill-rule="evenodd" stroke="none"/>
    <path d="M-375.55 447.35 L-375.55 448.25 -379.8 448.25 -379.8 449.95 -380.7 449.95 -380.7 445.6 -379.8 445.6 -379.8 447.35 -375.55 447.35" fill="#434343" fill-rule="evenodd" stroke="none"/>
    <path d="M-375.55 547.35 L-375.55 548.3 -379.8 548.3 -379.8 550.0 -380.7 550.0 -380.7 545.6 -379.8 545.6 -379.8 547.35 -375.55 547.35" fill="#434343" fill-rule="evenodd" stroke="none"/>
    <path d="M-375.55 -152.65 L-375.55 -151.75 -379.8 -151.75 -379.8 -150.05 -380.7 -150.05 -380.7 -154.4 -379.8 -154.4 -379.8 -152.65 -375.55 -152.65" fill="#434343" fill-rule="evenodd" stroke="none"/>
    <path d="M-375.55 -252.15 L-375.55 -251.25 -379.8 -251.25 -379.8 -249.55 -380.7 -249.55 -380.7 -253.9 -379.8 -253.9 -379.8 -252.15 -375.55 -252.15" fill="#434343" fill-rule="evenodd" stroke="none"/>
    <path d="M-242.4 272.1 L-323.9 272.1 -323.9 521.5 -242.4 521.5 -242.4 272.1 M-88.5 43.0 L-96.6 43.0 -96.6 38.65 -179.75 38.65 -179.75 301.55 -96.6 301.55 -96.6 293.0 -88.5 293.0 -88.5 43.0 M-242.4 44.1 L-323.9 44.1 -323.9 251.1 -242.4 251.1 -242.4 44.1 M-201.1 45.0 L-207.4 45.0 -207.4 50.7 -220.75 50.7 -220.75 263.0 -201.1 263.0 -201.1 45.0 M-201.1 -166.65 L-220.75 -166.65 -220.75 -37.65 -201.1 -37.65 -201.1 -166.65 M205.0 50.7 L205.0 45.0 198.7 45.0 198.7 263.0 218.35 263.0 218.35 50.7 205.0 50.7 M49.2 43.0 L49.2 38.65 -51.6 38.65 -51.6 43.0 -66.75 43.0 -66.75 293.0 -51.6 293.0 -51.6 301.55 49.2 301.55 49.2 293.0 64.35 293.0 64.35 43.0 49.2 43.0 M94.2 38.65 L94.2 43.0 86.1 43.0 86.1 293.0 94.2 293.0 94.2 301.55 177.35 301.55 177.35 38.65 94.2 38.65 M218.35 -37.65 L218.35 -166.65 198.7 -166.65 198.7 -37.65 218.35 -37.65 M49.2 -221.0 L-51.6 -221.0 -51.6 -189.0 -58.75 -189.0 -58.75 -19.0 -51.6 -19.0 -51.6 16.9 49.2 16.9 49.2 -19.0 56.35 -19.0 56.35 -189.0 49.2 -189.0 49.2 -221.0 M177.35 -221.0 L94.2 -221.0 94.2 -189.0 78.1 -189.0 78.1 -19.0 94.2 -19.0 94.2 16.9 177.35 16.9 177.35 -221.0 M93.85 -486.85 L86.1 -486.85 86.1 -251.0 94.2 -251.0 94.2 -242.7 177.35 -242.7 177.35 -520.6 93.85 -520.6 93.85 -486.85 M-96.6 -221.0 L-179.75 -221.0 -179.75 16.9 -96.6 16.9 -96.6 -19.0 -80.5 -19.0 -80.5 -189.0 -96.6 -189.0 -96.6 -221.0 M-242.4 -255.5 L-323.9 -255.5 -323.9 23.1 -242.4 23.1 -242.4 -255.5 M-88.5 -486.85 L-96.2 -486.85 -96.2 -520.6 -179.75 -520.6 -179.75 -242.7 -96.6 -242.7 -96.6 -251.0 -88.5 -251.0 -88.5 -486.85 M-51.95 -486.85 L-66.75 -486.85 -66.75 -251.0 -51.6 -251.0 -51.6 -242.7 49.2 -242.7 49.2 -251.0 64.35 -251.0 64.35 -486.85 49.6 -486.85 49.6 -520.6 -51.95 -520.6 -51.95 -486.85 M321.5 23.1 L321.5 -255.5 240.0 -255.5 240.0 23.1 321.5 23.1 M321.5 251.1 L321.5 44.1 240.0 44.1 240.0 251.1 321.5 251.1 M321.5 521.5 L321.5 272.1 240.0 272.1 240.0 521.5 321.5 521.5 M352.0 -359.0 L373.0 -359.0 373.0 549.5 352.0 549.5 352.0 387.5 343.75 387.5 343.75 552.5 321.5 552.5 321.5 544.0 240.0 544.0 240.0 552.4 218.35 552.4 218.35 350.5 205.0 350.5 205.0 344.5 198.7 344.5 198.7 351.0 177.35 351.0 177.35 323.2 94.2 323.2 94.2 344.0 49.2 344.0 49.2 323.2 -51.6 323.2 -51.6 344.0 -96.6 344.0 -96.6 323.2 -179.75 323.2 -179.75 351.0 -201.1 351.0 -201.1 344.5 -207.4 344.5 -207.4 350.5 -220.75 350.5 -220.75 552.4 -242.4 552.4 -242.4 544.0 -323.9 544.0 -323.9 552.5 -346.15 552.5 -346.15 387.5 -354.4 387.5 -354.4 549.5 -375.4 549.5 -375.4 -268.5 -354.4 -268.5 -354.4 366.0 -346.15 366.0 -346.15 -268.5 -220.75 -268.5 -220.75 -255.3 -208.1 -255.3 -208.1 -249.3 -201.1 -249.3 -201.1 -554.65 -179.75 -554.65 -179.75 -542.35 -96.2 -542.35 -96.2 -549.1 -51.95 -549.1 -51.95 -542.35 49.6 -542.35 49.6 -549.1 93.85 -549.1 93.85 -542.35 177.35 -542.35 177.35 -554.65 198.7 -554.65 198.7 -249.3 205.7 -249.3 205.7 -255.3 218.35 -255.3 218.35 -355.65 240.0 -355.65 240.0 -278.0 321.5 -278.0 321.5 -356.0 343.75 -356.0 343.75 366.0 352.0 366.0 352.0 -359.0" fill="#969696" fill-rule="evenodd" stroke="none"/>
  </g>
</svg>
