<?xml version="1.0" encoding="UTF-8" standalone="no"?>
<svg xmlns:ffdec="https://www.free-decompiler.com/flash" xmlns:xlink="http://www.w3.org/1999/xlink" ffdec:objectType="shape" height="600.5px" width="646.5px" xmlns="http://www.w3.org/2000/svg">
  <g transform="matrix(1.0, 0.0, 0.0, 1.0, 175.7, 183.85)">
    <path d="M465.3 -84.85 L465.3 -106.35 470.8 -106.35 Q470.8 108.15 470.3 322.65 L403.8 322.65 403.8 315.15 317.8 315.15 317.8 320.65 290.8 320.65 290.8 352.65 282.8 352.65 282.8 315.15 248.8 315.15 248.8 351.65 243.3 351.65 243.3 416.65 235.3 416.65 235.3 376.15 157.3 376.15 157.3 158.15 84.3 158.15 84.3 140.65 -171.2 140.65 -171.2 149.15 -175.7 149.15 -175.7 34.65 -81.7 34.65 -81.7 -76.85 -43.2 -76.85 -43.2 -138.85 53.8 -138.85 53.8 -132.85 124.3 -132.85 124.3 -183.85 154.8 -183.85 154.8 -178.35 129.8 -178.35 129.8 -132.85 165.8 -132.85 165.8 -154.35 292.8 -154.35 292.8 -84.85 465.3 -84.85" fill="#424242" fill-rule="evenodd" stroke="none"/>
    <path d="M36.3 94.65 L36.3 36.65 60.8 36.65 60.8 94.65 36.3 94.65" fill="#ffffff" fill-rule="evenodd" stroke="none"/>
    <path d="M40.3 -48.85 L40.3 -51.85 32.8 -51.85 32.8 -65.85 28.8 -65.85 28.8 -39.35 31.8 -39.35 31.8 -44.85 32.8 -44.85 32.8 -48.85 40.3 -48.85 M5.8 -60.85 L5.8 -54.85 12.8 -54.85 12.8 -60.85 5.8 -60.85 M-36.2 -68.85 L-36.2 -109.35 29.3 -109.35 29.3 -99.85 32.3 -99.85 32.3 -127.85 108.8 -127.85 108.8 -71.85 72.3 -71.85 72.3 -51.85 53.3 -51.85 53.3 -48.85 57.8 -48.85 57.8 -44.85 62.3 -44.85 62.3 -39.35 73.3 -39.35 73.3 -35.35 77.3 -35.35 77.3 -67.85 104.3 -67.85 104.3 -30.85 107.3 -30.85 107.3 -67.85 141.8 -67.85 141.8 -62.85 149.8 -62.85 149.8 -67.85 201.8 -67.85 201.8 -10.85 107.3 -10.85 107.3 -18.35 104.3 -18.35 104.3 -8.35 77.3 -8.35 77.3 -9.35 73.8 -9.35 73.8 7.15 77.8 7.15 77.8 -2.85 185.3 -2.85 185.3 3.15 190.3 3.15 190.3 -7.85 204.3 -7.85 204.3 -14.35 285.3 -14.35 285.3 31.65 190.3 31.65 190.3 15.15 185.3 15.15 185.3 21.15 101.3 21.15 101.3 24.15 114.3 24.15 114.3 30.15 123.8 30.15 123.8 24.15 182.3 24.15 182.3 44.15 183.8 44.15 183.8 70.65 182.3 70.65 182.3 85.65 66.8 85.65 66.8 46.65 78.3 46.65 78.3 24.15 87.8 24.15 87.8 21.15 77.8 21.15 77.8 19.65 73.8 19.65 73.8 40.65 34.3 40.65 34.3 46.65 35.3 46.65 35.3 94.65 60.8 94.65 60.8 118.65 47.3 118.65 47.3 120.65 20.8 120.65 20.8 118.65 7.3 118.65 7.3 94.65 2.8 94.65 2.8 117.15 -28.7 117.15 -28.7 114.15 -34.7 114.15 -34.7 117.15 -66.2 117.15 -66.2 46.15 -34.7 46.15 -34.7 49.15 -28.2 49.15 -28.2 46.15 2.8 46.15 2.8 68.65 7.3 68.65 7.3 46.65 8.8 46.65 8.8 40.65 7.3 40.65 7.3 32.65 -75.7 32.65 -75.7 -18.35 -81.7 -18.35 -81.7 -44.35 -75.7 -44.35 -75.7 -63.35 -67.7 -63.35 -67.7 -68.85 -59.2 -68.85 -59.2 -71.35 -46.2 -71.35 -46.2 -68.85 -36.2 -68.85" fill="#959595" fill-rule="evenodd" stroke="none"/>
    <path d="M264.3 -13.35 L235.8 -13.35 235.8 -33.85 287.3 -33.85 287.3 32.65 220.8 32.65 220.8 12.65 264.3 12.65 264.3 -13.35" fill="#ffffff" fill-rule="evenodd" stroke="none"/>
    <path d="M-66.2 109.15 L-66.2 98.15 -40.7 98.15 -40.7 109.15 -66.2 109.15" fill="#6f6f6f" fill-rule="evenodd" stroke="none"/>
    <path d="M-22.2 117.15 L-22.2 112.65 2.8 112.65 2.8 117.15 -22.2 117.15" fill="#6f6f6f" fill-rule="evenodd" stroke="none"/>
    <path d="M-43.2 85.65 L-43.2 79.65 -37.2 79.65 -37.2 85.65 -43.2 85.65" fill="#6f6f6f" fill-rule="evenodd" stroke="none"/>
    <path d="M-6.2 61.15 L-6.2 46.15 2.8 46.15 2.8 67.15 -3.2 67.15 -3.2 61.15 -6.2 61.15" fill="#6f6f6f" fill-rule="evenodd" stroke="none"/>
    <path d="M-28.2 49.65 L-28.2 46.15 -23.7 46.15 -23.7 49.65 -28.2 49.65" fill="#6f6f6f" fill-rule="evenodd" stroke="none"/>
    <path d="M-37.2 31.65 L-37.2 -0.85 -29.2 -0.85 -29.2 31.65 -37.2 31.65" fill="#6f6f6f" fill-rule="evenodd" stroke="none"/>
    <path d="M-54.2 26.65 L-54.2 32.65 -60.7 32.65 -60.7 26.65 -54.2 26.65" fill="#6f6f6f" fill-rule="evenodd" stroke="none"/>
    <path d="M-46.7 26.65 L-46.7 32.65 -53.2 32.65 -53.2 26.65 -46.7 26.65" fill="#6f6f6f" fill-rule="evenodd" stroke="none"/>
    <path d="M-19.2 -0.85 L-19.2 31.65 -27.7 31.65 -27.7 -0.85 -19.2 -0.85" fill="#6f6f6f" fill-rule="evenodd" stroke="none"/>
    <path d="M-5.7 -0.85 L2.3 -0.85 2.3 31.65 -5.7 31.65 -5.7 -0.85" fill="#6f6f6f" fill-rule="evenodd" stroke="none"/>
    <path d="M-8.2 -107.35 L-8.2 -96.85 -32.7 -96.85 -32.7 -107.35 -8.2 -107.35" fill="#6f6f6f" fill-rule="evenodd" stroke="none"/>
    <path d="M29.3 -104.35 L-2.2 -104.35 -2.2 -109.35 29.3 -109.35 29.3 -104.35" fill="#6f6f6f" fill-rule="evenodd" stroke="none"/>
    <path d="M32.8 -98.85 L32.8 -112.85 61.3 -112.85 61.3 -98.85 32.8 -98.85" fill="#6f6f6f" fill-rule="evenodd" stroke="none"/>
    <path d="M99.8 -73.35 L99.8 -101.85 108.8 -101.85 108.8 -73.35 99.8 -73.35" fill="#6f6f6f" fill-rule="evenodd" stroke="none"/>
    <path d="M107.3 -127.85 L107.3 -122.35 64.3 -122.35 64.3 -127.85 107.3 -127.85" fill="#6f6f6f" fill-rule="evenodd" stroke="none"/>
    <path d="M71.8 -69.85 L71.8 -64.85 67.3 -64.85 67.3 -69.85 71.8 -69.85" fill="#6f6f6f" fill-rule="evenodd" stroke="none"/>
    <path d="M103.8 -103.85 Q104.3 -105.85 104.3 -108.35 L108.8 -107.85 Q108.8 -105.35 108.3 -103.35 L103.8 -103.85" fill="#6f6f6f" fill-rule="evenodd" stroke="none"/>
    <path d="M71.8 -64.85 L71.8 -58.85 66.3 -58.85 66.3 -64.85 71.8 -64.85" fill="#6f6f6f" fill-rule="evenodd" stroke="none"/>
    <path d="M66.3 -52.35 L66.3 -58.35 71.8 -58.35 71.8 -52.35 66.3 -52.35" fill="#6f6f6f" fill-rule="evenodd" stroke="none"/>
    <path d="M107.3 -35.85 L107.3 -67.85 125.3 -67.85 125.3 -62.35 112.8 -62.35 112.8 -35.85 107.3 -35.85" fill="#6f6f6f" fill-rule="evenodd" stroke="none"/>
    <path d="M200.8 -62.35 L200.8 -47.85 197.3 -47.85 197.3 -62.35 200.8 -62.35" fill="#6f6f6f" fill-rule="evenodd" stroke="none"/>
    <path d="M197.3 -46.85 L200.8 -46.85 200.8 -32.35 197.3 -32.35 197.3 -46.85" fill="#6f6f6f" fill-rule="evenodd" stroke="none"/>
    <path d="M197.3 -16.35 L197.3 -30.85 200.8 -30.85 200.8 -16.35 197.3 -16.35" fill="#6f6f6f" fill-rule="evenodd" stroke="none"/>
    <path d="M104.3 -35.85 L101.8 -35.85 101.8 -67.35 104.3 -67.35 104.3 -35.85" fill="#6f6f6f" fill-rule="evenodd" stroke="none"/>
    <path d="M140.8 -67.85 L140.8 -62.85 125.8 -62.85 125.8 -67.85 140.8 -67.85" fill="#6f6f6f" fill-rule="evenodd" stroke="none"/>
    <path d="M165.8 -67.35 L165.8 -63.35 150.8 -63.35 150.8 -67.35 165.8 -67.35" fill="#6f6f6f" fill-rule="evenodd" stroke="none"/>
    <path d="M181.3 -67.35 L181.3 -63.35 166.3 -63.35 166.3 -67.35 181.3 -67.35" fill="#6f6f6f" fill-rule="evenodd" stroke="none"/>
    <path d="M181.8 -63.35 L181.8 -67.35 196.8 -67.35 196.8 -63.35 181.8 -63.35" fill="#6f6f6f" fill-rule="evenodd" stroke="none"/>
    <path d="M133.3 -15.85 L133.3 -11.35 118.3 -11.35 118.3 -15.85 133.3 -15.85" fill="#6f6f6f" fill-rule="evenodd" stroke="none"/>
    <path d="M134.3 -11.35 L134.3 -15.35 149.3 -15.35 149.3 -11.35 134.3 -11.35" fill="#6f6f6f" fill-rule="evenodd" stroke="none"/>
    <path d="M123.8 29.65 L123.8 24.15 182.3 24.15 182.3 29.65 123.8 29.65" fill="#6f6f6f" fill-rule="evenodd" stroke="none"/>
    <path d="M123.8 90.65 L123.8 85.65 182.3 85.65 182.3 90.65 123.8 90.65" fill="#6f6f6f" fill-rule="evenodd" stroke="none"/>
    <path d="M178.3 43.15 L178.3 39.15 182.3 39.15 182.3 43.15 178.3 43.15" fill="#6f6f6f" fill-rule="evenodd" stroke="none"/>
    <path d="M114.3 85.15 L114.3 90.65 64.8 90.65 64.8 43.15 76.3 43.15 76.3 24.15 81.8 24.15 81.8 48.15 69.8 48.15 69.8 85.15 114.3 85.15" fill="#6f6f6f" fill-rule="evenodd" stroke="none"/>
    <path d="M180.8 -15.85 L180.8 -11.85 165.8 -11.85 165.8 -15.85 180.8 -15.85" fill="#6f6f6f" fill-rule="evenodd" stroke="none"/>
    <path d="M181.8 -11.35 L181.8 -15.85 196.8 -15.85 196.8 -11.35 181.8 -11.35" fill="#6f6f6f" fill-rule="evenodd" stroke="none"/>
    <path d="M164.8 -15.85 L164.8 -11.85 149.8 -11.85 149.8 -15.85 164.8 -15.85" fill="#6f6f6f" fill-rule="evenodd" stroke="none"/>
    <path d="M-36.2 -78.85 L-27.2 -78.85 -27.2 -64.85 -29.2 -64.85 -29.2 -58.35 0.8 -58.35 0.8 -62.35 6.3 -62.35 6.3 -54.85 13.3 -54.85 13.3 -46.35 10.8 -44.35 -41.2 -44.35 -43.2 -46.35 -43.2 -68.85 -36.2 -68.85 -36.2 -78.85" fill="#6f6f6f" fill-rule="evenodd" stroke="none"/>
    <path d="M-65.2 25.65 L-65.2 29.15 Q-66.2 30.65 -67.7 32.15 L-71.2 32.15 Q-72.2 30.65 -73.7 29.15 L-73.7 25.65 Q-72.2 24.65 -71.2 23.15 L-67.7 23.15 -65.2 25.65" fill="#6f6f6f" fill-rule="evenodd" stroke="none"/>
    <path d="M69.8 40.15 L66.3 40.15 63.8 37.65 63.8 34.15 Q65.3 33.15 66.3 31.65 L69.8 31.65 72.3 34.15 72.3 37.65 Q71.3 39.15 69.8 40.15" fill="#6f6f6f" fill-rule="evenodd" stroke="none"/>
    <path d="M72.8 -5.35 L72.8 4.15 71.3 4.15 71.3 -5.35 72.8 -5.35" fill="#6f6f6f" fill-rule="evenodd" stroke="none"/>
    <path d="M-75.7 -44.35 L-75.7 -18.35 -81.7 -18.35 -81.7 -44.35 -75.7 -44.35" fill="#ffffff" fill-rule="evenodd" stroke="none"/>
  </g>
</svg>
