<?xml version="1.0" encoding="UTF-8" standalone="no"?>
<svg xmlns:ffdec="https://www.free-decompiler.com/flash" xmlns:xlink="http://www.w3.org/1999/xlink" ffdec:objectType="shape" height="515.0px" width="648.0px" xmlns="http://www.w3.org/2000/svg">
  <g transform="matrix(1.0, 0.0, 0.0, 1.0, 176.2, 143.85)">
    <path d="M408.8 319.65 L408.8 312.15 361.3 312.15 361.3 260.65 328.3 260.65 328.3 311.65 315.3 311.65 315.3 319.15 291.3 319.15 291.3 260.65 246.3 260.65 246.3 367.65 161.8 367.65 161.8 166.65 -173.2 166.65 -173.2 33.15 -125.2 33.15 -125.2 -140.85 295.8 -140.85 295.8 -103.85 467.8 -103.85 467.8 319.65 408.8 319.65" fill="#959595" fill-rule="evenodd" stroke="none"/>
    <path d="M403.3 321.65 L403.3 316.15 319.3 316.15 319.3 322.65 288.3 322.65 288.3 265.15 247.3 265.15 247.3 371.15 159.3 371.15 159.3 183.15 144.8 183.15 144.8 168.15 -176.2 168.15 -176.2 31.65 -127.7 31.65 -127.7 -143.85 300.8 -143.85 300.8 -119.35 301.8 -119.35 301.8 -106.85 471.8 -106.85 471.8 321.65 403.3 321.65 M343.8 162.15 L343.8 85.65 238.3 85.65 238.3 33.15 296.8 33.15 296.8 13.65 288.3 13.65 288.3 8.65 215.8 8.65 215.8 -35.85 288.3 -35.85 288.3 -119.35 294.8 -119.35 294.8 -137.35 -121.7 -137.35 -121.7 36.15 -123.7 36.15 -123.7 37.65 -170.2 37.65 -170.2 162.15 343.8 162.15 M349.3 80.15 L349.3 165.15 348.8 165.15 348.8 168.15 302.8 168.15 302.8 222.15 229.3 222.15 229.3 168.15 165.3 168.15 165.3 364.65 241.3 364.65 241.3 259.65 294.3 259.65 294.3 317.65 313.3 317.65 313.3 310.15 317.3 310.15 317.3 237.65 362.8 237.65 362.8 310.15 445.8 310.15 445.8 315.65 465.8 315.65 465.8 -100.85 301.8 -100.85 301.8 -77.85 293.3 -77.85 293.3 8.65 301.8 8.65 301.8 38.65 243.3 38.65 243.3 80.15 349.3 80.15" fill="#424242" fill-rule="evenodd" stroke="none"/>
    <path d="M-40.2 -71.85 L-40.2 -29.85 -42.2 -27.35 Q-43.2 -26.85 -44.7 -26.35 -73.2 -25.35 -102.2 -24.85 L-102.2 -25.35 -103.7 -25.35 -105.7 -26.35 Q-106.7 -27.35 -107.7 -28.85 -107.7 -30.35 -108.2 -31.85 L-108.2 -119.85 -101.2 -119.85 -101.2 -31.85 Q-74.2 -32.35 -47.2 -33.35 L-47.2 -71.85 -40.2 -71.85" fill="#6f6f6f" fill-rule="evenodd" stroke="none"/>
    <path d="M435.8 252.15 L435.8 259.15 383.3 259.15 383.3 323.65 376.3 323.65 376.3 258.65 Q376.8 257.15 376.8 255.65 377.8 254.65 378.3 253.15 379.8 252.65 380.8 252.15 L435.8 252.15" fill="#6f6f6f" fill-rule="evenodd" stroke="none"/>
    <path d="M182.8 -130.35 L184.8 -132.85 186.8 -133.85 289.8 -133.85 289.8 -126.85 189.8 -126.85 189.8 -89.35 182.3 -89.35 182.3 -127.35 Q182.8 -128.85 182.8 -130.35" fill="#6f6f6f" fill-rule="evenodd" stroke="none"/>
    <path d="M-141.2 42.15 L-116.7 42.15 -116.7 49.15 -138.7 49.15 -138.7 142.65 -75.7 142.65 -75.7 72.65 Q-75.2 71.15 -75.2 69.65 L-73.2 67.15 -71.2 66.15 -33.2 65.15 -33.2 72.15 -68.7 73.15 -68.7 142.65 -36.7 142.65 -36.7 149.65 -150.7 149.65 -150.7 142.65 -145.7 142.65 -145.7 48.65 Q-145.2 47.15 -145.2 45.65 -144.2 44.65 -143.7 43.15 -142.2 42.65 -141.2 42.15" fill="#6f6f6f" fill-rule="evenodd" stroke="none"/>
    <path d="M125.8 -95.85 L125.8 16.65 12.3 16.65 12.3 -95.85 125.8 -95.85" fill="#6f6f6f" fill-rule="evenodd" stroke="none"/>
    <path d="M242.3 -32.85 Q264.3 -32.35 285.8 -32.35 L285.8 5.15 238.8 5.15 238.8 -12.35 265.3 -12.35 265.3 -15.35 242.3 -15.35 242.3 -32.85" fill="#ffffff" fill-rule="evenodd" stroke="none"/>
    <path d="M220.3 -32.35 L238.8 -32.35 238.8 5.15 220.3 5.15 220.3 -3.85 205.8 -3.85 205.8 -16.85 220.3 -16.85 220.3 -32.35" fill="#959595" fill-rule="evenodd" stroke="none"/>
  </g>
</svg>
