<?xml version="1.0" encoding="UTF-8" standalone="no"?>
<svg xmlns:ffdec="https://www.free-decompiler.com/flash" xmlns:xlink="http://www.w3.org/1999/xlink" ffdec:objectType="shape" height="83.8px" width="768.4px" xmlns="http://www.w3.org/2000/svg">
  <g transform="matrix(1.0, 0.0, 0.0, 1.0, -10.5, -0.5)">
    <path d="M763.6 1.0 Q768.6 1.0 768.6 6.0 L768.4 18.65 778.4 25.05 768.4 30.65 768.6 78.8 Q768.6 83.8 763.6 83.8 L16.0 83.8 Q11.0 83.8 11.0 78.8 L11.0 6.0 Q11.0 1.0 16.0 1.0 L763.6 1.0" fill="#f2dfff" fill-rule="evenodd" stroke="none"/>
    <path d="M763.6 1.0 L16.0 1.0 Q11.0 1.0 11.0 6.0 L11.0 78.8 Q11.0 83.8 16.0 83.8 L763.6 83.8 Q768.6 83.8 768.6 78.8 L768.4 30.65 778.4 25.05 768.4 18.65 768.6 6.0 Q768.6 1.0 763.6 1.0 Z" fill="none" stroke="#e7c1ff" stroke-linecap="round" stroke-linejoin="round" stroke-width="1.0"/>
  </g>
</svg>
