<?xml version="1.0" encoding="UTF-8" standalone="no"?>
<svg xmlns:ffdec="https://www.free-decompiler.com/flash" xmlns:xlink="http://www.w3.org/1999/xlink" ffdec:objectType="shape" height="83.8px" width="768.4px" xmlns="http://www.w3.org/2000/svg">
  <g transform="matrix(1.0, 0.0, 0.0, 1.0, -0.5, -0.5)">
    <path d="M768.4 6.0 L768.4 78.8 Q768.4 83.8 763.4 83.8 L15.8 83.8 Q10.8 83.8 10.8 78.8 L11.0 30.65 1.0 25.05 11.0 18.65 10.8 6.0 Q10.8 1.0 15.8 1.0 L763.4 1.0 Q768.4 1.0 768.4 6.0" fill="#ffffff" fill-rule="evenodd" stroke="none"/>
    <path d="M768.4 6.0 L768.4 78.8 Q768.4 83.8 763.4 83.8 L15.8 83.8 Q10.8 83.8 10.8 78.8 L11.0 30.65 1.0 25.05 11.0 18.65 10.8 6.0 Q10.8 1.0 15.8 1.0 L763.4 1.0 Q768.4 1.0 768.4 6.0 Z" fill="none" stroke="#e7c1ff" stroke-linecap="round" stroke-linejoin="round" stroke-width="1.0"/>
  </g>
</svg>
