<?xml version="1.0" encoding="UTF-8" standalone="no"?>
<svg xmlns:ffdec="https://www.free-decompiler.com/flash" xmlns:xlink="http://www.w3.org/1999/xlink" ffdec:objectType="shape" height="24.1px" width="34.9px" xmlns="http://www.w3.org/2000/svg">
  <g transform="matrix(1.0, 0.0, 0.0, 1.0, -14.5, -19.95)">
    <path d="M43.3 24.35 L43.3 44.05 38.95 44.05 38.95 24.35 32.85 24.35 32.85 19.95 49.4 19.95 49.4 24.35 43.3 24.35 M30.95 24.0 L31.25 26.6 Q31.25 28.75 30.6 30.3 29.8 31.75 28.1 32.55 L28.1 32.7 29.35 33.6 Q30.05 34.05 30.35 34.8 L30.8 36.5 31.05 38.3 31.15 39.65 31.15 41.25 Q31.15 42.05 31.4 42.8 L31.85 44.05 27.45 44.05 Q27.2 43.5 27.1 42.8 L27.0 41.35 26.9 39.75 26.75 38.3 Q26.55 36.4 25.75 35.5 25.1 34.6 23.4 34.6 L18.9 34.6 18.9 44.05 14.5 44.05 14.5 19.95 25.3 19.95 Q26.75 19.95 27.8 20.5 28.9 20.95 29.7 21.85 30.5 22.75 30.95 24.0 M26.1 24.8 Q25.3 24.0 23.75 24.0 L18.9 24.0 18.9 30.85 23.75 30.85 Q25.3 30.85 26.1 29.95 26.9 29.2 26.9 27.4 26.9 25.7 26.1 24.8" fill="#000000" fill-rule="evenodd" stroke="none"/>
  </g>
</svg>
