<?xml version="1.0" encoding="UTF-8" standalone="no"?>
<svg xmlns:ffdec="https://www.free-decompiler.com/flash" xmlns:xlink="http://www.w3.org/1999/xlink" ffdec:objectType="shape" height="29.0px" width="29.0px" xmlns="http://www.w3.org/2000/svg">
  <g transform="matrix(1.0, 0.0, 0.0, 1.0, 0.5, 0.0)">
    <path d="M27.75 9.85 L27.8 9.95 28.5 13.55 28.5 13.7 28.25 17.35 28.25 17.45 27.05 20.95 27.0 21.1 24.95 24.1 24.85 24.2 22.05 26.6 21.95 26.65 18.7 28.25 18.55 28.3 14.95 29.0 14.85 29.0 11.2 28.75 11.05 28.75 7.55 27.55 7.45 27.5 4.45 25.45 4.35 25.35 1.95 22.55 1.85 22.45 0.25 19.15 0.2 19.0 -0.5 15.4 -0.5 15.25 -0.25 11.6 -0.2 11.5 1.05 8.05 1.1 7.95 3.1 4.9 3.2 4.8 6.0 2.4 6.1 2.3 9.4 0.7 9.55 0.65 13.15 0.0 13.25 0.0 16.9 0.2 17.05 0.25 20.5 1.5 20.6 1.55 23.65 3.6 23.75 3.7 26.15 6.45 26.2 6.55 27.75 9.85" fill="#000000" fill-rule="evenodd" stroke="none"/>
    <path d="M25.35 7.0 L26.8 10.2 27.5 13.75 27.25 17.2 26.1 20.55 24.1 23.5 24.1 23.55 21.5 25.75 21.45 25.8 18.3 27.3 14.8 28.0 11.3 27.75 7.95 26.6 5.0 24.6 2.75 22.0 2.75 21.95 1.2 18.8 0.5 15.25 0.75 11.8 1.95 8.45 3.9 5.45 3.95 5.45 6.55 3.2 9.75 1.65 13.25 1.0 16.75 1.2 20.1 2.4 23.05 4.4 23.1 4.45 25.3 7.0 25.35 7.0" fill="#1747a8" fill-rule="evenodd" stroke="none"/>
  </g>
</svg>
