<?xml version="1.0" encoding="UTF-8" standalone="no"?>
<svg xmlns:ffdec="https://www.free-decompiler.com/flash" xmlns:xlink="http://www.w3.org/1999/xlink" ffdec:objectType="shape" height="29.0px" width="29.0px" xmlns="http://www.w3.org/2000/svg">
  <g transform="matrix(1.0, 0.0, 0.0, 1.0, 0.5, -1.1)">
    <path d="M26.15 7.55 L26.2 7.65 27.75 10.95 27.8 11.05 28.5 14.65 28.5 14.8 28.25 18.45 28.25 18.55 27.05 22.05 27.0 22.2 24.95 25.2 24.85 25.3 22.05 27.7 21.95 27.75 18.7 29.35 18.55 29.4 14.95 30.1 14.85 30.1 11.2 29.85 11.05 29.85 7.55 28.65 7.45 28.6 4.45 26.55 4.35 26.45 1.95 23.65 1.85 23.55 0.25 20.25 0.2 20.1 -0.5 16.5 -0.5 16.35 -0.25 12.7 -0.2 12.6 1.05 9.15 1.1 9.05 3.1 6.0 3.2 5.9 6.0 3.5 6.1 3.4 9.4 1.8 9.55 1.75 13.15 1.1 13.25 1.1 16.9 1.3 17.05 1.35 20.5 2.6 20.6 2.65 23.65 4.7 23.75 4.8 26.15 7.55" fill="#000000" fill-rule="evenodd" stroke="none"/>
    <path d="M26.8 11.3 L27.5 14.85 27.25 18.3 26.1 21.65 24.1 24.6 24.1 24.65 21.5 26.85 21.45 26.9 18.3 28.4 14.8 29.1 11.3 28.85 7.95 27.7 5.0 25.7 2.75 23.1 2.75 23.05 1.2 19.9 0.5 16.35 0.75 12.9 1.95 9.55 3.9 6.55 3.95 6.55 6.55 4.3 9.75 2.75 13.25 2.1 16.75 2.3 20.1 3.5 23.05 5.5 23.1 5.55 25.3 8.1 25.35 8.1 26.8 11.3" fill="#4c9604" fill-rule="evenodd" stroke="none"/>
  </g>
</svg>
