<?xml version="1.0" encoding="UTF-8" standalone="no"?>
<svg xmlns:ffdec="https://www.free-decompiler.com/flash" xmlns:xlink="http://www.w3.org/1999/xlink" ffdec:objectType="shape" height="29.0px" width="29.0px" xmlns="http://www.w3.org/2000/svg">
  <g transform="matrix(1.0, 0.0, 0.0, 1.0, 0.5, 0.5)">
    <path d="M13.25 -0.5 L16.9 -0.3 17.05 -0.25 20.5 1.0 20.6 1.05 23.65 3.1 23.75 3.2 26.15 5.95 26.2 6.05 27.75 9.35 27.8 9.45 28.5 13.05 28.5 13.2 28.25 16.85 28.25 16.95 27.05 20.45 27.0 20.6 24.95 23.6 24.85 23.7 22.05 26.1 21.95 26.15 18.7 27.75 18.55 27.8 14.95 28.5 14.85 28.5 11.2 28.25 11.05 28.25 7.55 27.05 7.45 27.0 4.45 24.95 4.35 24.85 1.95 22.05 1.85 21.95 0.25 18.65 0.2 18.5 -0.5 14.9 -0.5 14.75 -0.25 11.1 -0.2 11.0 1.05 7.55 1.1 7.45 3.1 4.4 3.2 4.3 6.0 1.9 6.1 1.8 9.4 0.2 9.55 0.15 13.15 -0.5 13.25 -0.5" fill="#000000" fill-rule="evenodd" stroke="none"/>
    <path d="M25.35 6.5 L26.8 9.7 27.5 13.25 27.25 16.7 26.1 20.05 24.1 23.0 24.1 23.05 21.5 25.25 21.45 25.3 18.3 26.8 14.8 27.5 11.3 27.25 7.95 26.1 5.0 24.1 2.75 21.5 2.75 21.45 1.2 18.3 0.5 14.75 0.75 11.3 1.95 7.95 3.9 4.95 3.95 4.95 6.55 2.7 9.75 1.15 13.25 0.5 16.75 0.7 20.1 1.9 23.05 3.9 23.1 3.95 25.3 6.5 25.35 6.5" fill="#484848" fill-rule="evenodd" stroke="none"/>
  </g>
</svg>
