<?xml version="1.0" encoding="UTF-8" standalone="no"?>
<svg xmlns:ffdec="https://www.free-decompiler.com/flash" xmlns:xlink="http://www.w3.org/1999/xlink" ffdec:objectType="shape" height="56.1px" width="30.25px" xmlns="http://www.w3.org/2000/svg">
  <g transform="matrix(1.0, 0.0, 0.0, 1.0, -29.8, -3.95)">
    <path d="M33.55 4.75 L34.2 6.3 33.45 7.85 31.9 8.4 30.35 7.6 29.8 6.05 30.45 4.5 32.1 3.95 33.55 4.75" fill="#000000" fill-rule="evenodd" stroke="none"/>
    <path d="M33.65 56.4 L34.2 57.95 33.55 59.5 31.9 60.05 30.45 59.25 29.8 57.7 30.55 56.15 32.1 55.6 33.65 56.4" fill="#000000" fill-rule="evenodd" stroke="none"/>
    <path d="M56.4 30.35 L57.95 29.8 59.5 30.45 60.05 32.1 59.25 33.55 57.7 34.2 56.15 33.45 55.6 31.9 56.4 30.35" fill="#000000" fill-rule="evenodd" stroke="none"/>
  </g>
</svg>
