<?xml version="1.0" encoding="UTF-8" standalone="no"?>
<svg xmlns:ffdec="https://www.free-decompiler.com/flash" xmlns:xlink="http://www.w3.org/1999/xlink" ffdec:objectType="shape" height="1596.0px" width="1628.0px" xmlns="http://www.w3.org/2000/svg">
  <g transform="matrix(1.0, 0.0, 0.0, 1.0, 759.8, 755.25)">
    <path d="M36.8 -422.45 L40.8 -422.45 56.8 -390.45 92.8 -390.45 92.8 -98.45 108.8 -98.45 108.8 -82.45 172.8 -82.45 172.8 -74.45 180.8 -74.45 180.8 -42.45 192.2 -42.45 192.2 -55.25 192.8 -55.25 192.8 -58.45 284.2 -58.45 284.2 -67.25 284.8 -67.25 284.8 -70.45 468.8 -70.45 468.8 193.55 468.2 193.55 468.2 196.75 376.8 196.75 376.8 513.55 376.2 513.55 376.2 516.75 60.2 516.75 60.2 456.75 -63.2 456.75 -63.2 473.55 -63.8 473.55 -63.8 476.75 -439.8 476.75 -439.8 172.75 -559.8 172.75 -559.8 -51.25 -583.8 -51.25 -583.8 -219.25 -583.2 -219.25 -583.2 -222.45 -559.8 -222.45 -559.8 -239.25 -583.8 -239.25 -583.8 -491.25 -583.2 -491.25 -583.2 -494.45 -123.8 -494.45 -123.8 -519.25 -123.2 -519.25 -123.2 -522.45 -47.2 -522.45 -47.2 -494.45 36.8 -494.45 36.8 -422.45" fill="#3c3c3c" fill-rule="evenodd" stroke="none"/>
    <path d="M155.2 -264.05 L155.2 -246.05 137.2 -246.05 137.2 -264.05 155.2 -264.05" fill="#3c3c3c" fill-rule="evenodd" stroke="none"/>
    <path d="M155.2 -134.45 L155.2 -116.45 137.2 -116.45 137.2 -134.45 155.2 -134.45" fill="#3c3c3c" fill-rule="evenodd" stroke="none"/>
    <path d="M275.2 -134.45 L275.2 -116.45 257.2 -116.45 257.2 -134.45 275.2 -134.45" fill="#3c3c3c" fill-rule="evenodd" stroke="none"/>
    <path d="M275.2 -263.65 L275.2 -245.65 257.2 -245.65 257.2 -263.65 275.2 -263.65" fill="#3c3c3c" fill-rule="evenodd" stroke="none"/>
    <path d="M155.5 -528.05 L155.5 -510.05 137.5 -510.05 137.5 -528.05 155.5 -528.05" fill="#3c3c3c" fill-rule="evenodd" stroke="none"/>
    <path d="M155.5 -393.65 L155.5 -375.65 137.5 -375.65 137.5 -393.65 155.5 -393.65" fill="#3c3c3c" fill-rule="evenodd" stroke="none"/>
    <path d="M275.5 -393.65 L275.5 -375.65 257.5 -375.65 257.5 -393.65 275.5 -393.65" fill="#3c3c3c" fill-rule="evenodd" stroke="none"/>
    <path d="M275.5 -527.65 L275.5 -509.65 257.5 -509.65 257.5 -527.65 275.5 -527.65" fill="#3c3c3c" fill-rule="evenodd" stroke="none"/>
    <path d="M868.2 -339.25 L860.2 -339.25 860.2 -295.25 788.2 -295.25 788.2 -355.25 840.2 -355.25 840.2 -727.25 -727.8 -727.25 -727.8 620.75 440.2 620.75 440.2 300.75 808.2 300.75 808.2 -135.25 828.2 -135.25 828.2 364.75 808.2 364.75 808.2 320.75 460.2 320.75 460.2 820.75 808.2 820.75 808.2 480.75 828.2 480.75 828.2 840.75 440.2 840.75 440.2 648.75 -759.8 648.75 -759.8 -755.25 868.2 -755.25 868.2 -339.25" fill="#3c3c3c" fill-rule="evenodd" stroke="none"/>
    <path d="M54.3 -286.75 L90.3 -286.75 90.3 -66.75 174.3 -66.75 174.3 -22.75 54.3 -22.75 54.3 -114.75 22.3 -114.75 22.3 -246.75 54.3 -246.75 54.3 -286.75" fill="#6f6f6f" fill-rule="evenodd" stroke="none"/>
    <path d="M-65.7 -378.75 L-65.7 -394.75 -81.7 -394.75 -81.7 -378.75 -65.7 -378.75 M-65.7 -466.75 L-65.7 -478.75 26.3 -478.75 26.3 -254.75 6.3 -254.75 6.3 -246.75 26.3 -246.75 26.3 -214.75 30.3 -214.75 30.3 -146.75 26.3 -146.75 26.3 -114.75 -65.7 -114.75 -65.7 -246.75 -45.7 -246.75 -45.7 -254.75 -65.7 -254.75 -65.7 -298.75 -81.7 -298.75 -81.7 -282.75 -157.7 -282.75 -157.7 -294.75 -321.7 -294.75 -321.7 -298.75 -437.7 -298.75 -437.7 -234.75 -421.7 -234.75 -421.7 -190.75 -409.7 -190.75 -409.7 -266.75 -257.7 -266.75 -257.7 -262.75 -189.7 -262.75 -189.7 -122.75 -209.7 -122.75 -209.7 -102.75 -317.7 -102.75 -317.7 -82.75 -409.7 -82.75 -409.7 -150.75 -421.7 -150.75 -421.7 -106.75 -437.7 -106.75 -437.7 -54.75 -317.7 -54.75 -317.7 -34.75 -241.7 -34.75 -241.7 -46.75 -165.7 -46.75 -165.7 45.25 -173.7 45.25 -173.7 137.25 -181.7 137.25 -181.7 141.25 -141.7 141.25 -141.7 133.25 -53.7 133.25 -53.7 161.25 -49.7 161.25 -49.7 141.25 26.3 141.25 26.3 233.25 -49.7 233.25 -49.7 189.25 -53.7 189.25 -53.7 233.25 -141.7 233.25 -141.7 209.25 -181.7 209.25 -181.7 213.25 -145.7 213.25 -145.7 237.25 -33.7 237.25 -33.7 333.25 -181.7 333.25 -181.7 337.25 -233.7 337.25 -233.7 333.25 -273.7 333.25 -273.7 213.25 -205.7 213.25 -205.7 209.25 -273.7 209.25 -273.7 141.25 -233.7 141.25 -233.7 137.25 -245.7 137.25 Q-241.7 93.25 -241.7 45.25 L-417.7 45.25 -417.7 49.25 -529.7 49.25 Q-529.7 -2.75 -533.7 -54.75 L-549.7 -54.75 -549.7 -278.75 -533.7 -278.75 -533.7 -394.75 -433.7 -394.75 -433.7 -378.75 -421.7 -378.75 -421.7 -394.75 -301.7 -394.75 -301.7 -398.75 -421.7 -398.75 -421.7 -478.75 -257.7 -478.75 -257.7 -398.75 -273.7 -398.75 -273.7 -394.75 -257.7 -394.75 -257.7 -378.75 -241.7 -378.75 -241.7 -394.75 -245.7 -394.75 -245.7 -466.75 -241.7 -466.75 -241.7 -478.75 -81.7 -478.75 -81.7 -466.75 -65.7 -466.75" fill="#959595" fill-rule="evenodd" stroke="none"/>
    <path d="M30.3 -146.75 L26.3 -146.75 26.3 -214.75 30.3 -214.75 30.3 -146.75" fill="#ffffff" fill-rule="evenodd" stroke="none"/>
    <path d="M-141.7 333.25 L-141.7 325.25 -113.7 325.25 -113.7 333.25 -141.7 333.25" fill="#6f6f6f" fill-rule="evenodd" stroke="none"/>
    <path d="M-33.7 285.25 L-33.7 317.25 -45.7 317.25 -45.7 285.25 -33.7 285.25" fill="#6f6f6f" fill-rule="evenodd" stroke="none"/>
    <path d="M-33.7 333.25 L-109.7 333.25 -109.7 321.25 -49.7 321.25 -49.7 317.25 -33.7 317.25 -33.7 333.25" fill="#6f6f6f" fill-rule="evenodd" stroke="none"/>
    <path d="M-61.7 309.25 L-89.7 309.25 -89.7 301.25 -61.7 301.25 -61.7 309.25" fill="#6f6f6f" fill-rule="evenodd" stroke="none"/>
    <path d="M-93.7 237.25 L-93.7 245.25 -145.7 245.25 -145.7 237.25 -93.7 237.25" fill="#6f6f6f" fill-rule="evenodd" stroke="none"/>
    <path d="M-53.7 213.25 L-53.7 233.25 -141.7 233.25 -141.7 213.25 -53.7 213.25" fill="#6f6f6f" fill-rule="evenodd" stroke="none"/>
    <path d="M-173.7 221.25 L-173.7 213.25 -145.7 213.25 -145.7 221.25 -173.7 221.25" fill="#6f6f6f" fill-rule="evenodd" stroke="none"/>
    <path d="M-273.7 261.25 L-273.7 237.25 -265.7 237.25 -265.7 261.25 -273.7 261.25" fill="#6f6f6f" fill-rule="evenodd" stroke="none"/>
    <path d="M-85.7 145.25 L-85.7 141.25 -109.7 141.25 -109.7 133.25 -53.7 133.25 -53.7 145.25 -85.7 145.25" fill="#6f6f6f" fill-rule="evenodd" stroke="none"/>
    <path d="M-393.7 -82.75 L-393.7 -102.75 -317.7 -102.75 -317.7 -82.75 -393.7 -82.75" fill="#6f6f6f" fill-rule="evenodd" stroke="none"/>
    <path d="M-317.7 -102.75 L-317.7 -122.75 -209.7 -122.75 -209.7 -102.75 -317.7 -102.75" fill="#6f6f6f" fill-rule="evenodd" stroke="none"/>
    <path d="M-209.7 -122.75 L-209.7 -234.75 -189.7 -234.75 -189.7 -122.75 -209.7 -122.75" fill="#6f6f6f" fill-rule="evenodd" stroke="none"/>
    <path d="M-309.7 -266.75 L-309.7 -246.75 -401.7 -246.75 -401.7 -266.75 -309.7 -266.75" fill="#6f6f6f" fill-rule="evenodd" stroke="none"/>
    <path d="M-297.7 -246.75 L-297.7 -266.75 -257.7 -266.75 -257.7 -246.75 -297.7 -246.75" fill="#6f6f6f" fill-rule="evenodd" stroke="none"/>
    <path d="M-233.7 -262.75 L-233.7 -242.75 -249.7 -242.75 -249.7 -262.75 -233.7 -262.75" fill="#6f6f6f" fill-rule="evenodd" stroke="none"/>
    <path d="M-317.7 -398.75 L-345.7 -398.75 -345.7 -410.75 -317.7 -410.75 -317.7 -398.75" fill="#6f6f6f" fill-rule="evenodd" stroke="none"/>
    <path d="M-349.7 -402.75 L-373.7 -402.75 -373.7 -406.75 -349.7 -406.75 -349.7 -402.75" fill="#6f6f6f" fill-rule="evenodd" stroke="none"/>
    <path d="M-401.7 -454.75 L-401.7 -398.75 -421.7 -398.75 -421.7 -478.75 -317.7 -478.75 -317.7 -454.75 -401.7 -454.75" fill="#6f6f6f" fill-rule="evenodd" stroke="none"/>
    <path d="M-257.7 -474.75 L-257.7 -458.75 -273.7 -458.75 -273.7 -474.75 -257.7 -474.75" fill="#6f6f6f" fill-rule="evenodd" stroke="none"/>
    <path d="M-165.7 -474.75 L-165.7 -450.75 -197.7 -450.75 -197.7 -474.75 -165.7 -474.75" fill="#6f6f6f" fill-rule="evenodd" stroke="none"/>
    <path d="M-225.7 -438.75 L-225.7 -422.75 -245.7 -422.75 -245.7 -438.75 -225.7 -438.75" fill="#6f6f6f" fill-rule="evenodd" stroke="none"/>
    <path d="M-85.7 -426.75 L-85.7 -406.75 -101.7 -406.75 -101.7 -426.75 -85.7 -426.75" fill="#6f6f6f" fill-rule="evenodd" stroke="none"/>
    <path d="M22.3 -454.75 L22.3 -422.75 -1.7 -422.75 -1.7 -454.75 22.3 -454.75" fill="#6f6f6f" fill-rule="evenodd" stroke="none"/>
    <path d="M-81.7 -402.75 Q-81.7 -390.75 -85.7 -378.75 -97.7 -378.75 -109.7 -382.75 -105.7 -394.75 -105.7 -406.75 -93.7 -402.75 -81.7 -402.75" fill="#6f6f6f" fill-rule="evenodd" stroke="none"/>
    <path d="M-37.7 -426.75 L-13.7 -426.75 Q-9.7 -406.75 -9.7 -386.75 L-33.7 -386.75 Q-33.7 -406.75 -37.7 -426.75" fill="#6f6f6f" fill-rule="evenodd" stroke="none"/>
    <path d="M22.3 -418.75 L22.3 -398.75 Q6.3 -394.75 -9.7 -394.75 L-9.7 -418.75 22.3 -418.75" fill="#6f6f6f" fill-rule="evenodd" stroke="none"/>
    <path d="M-221.7 -398.75 Q-233.7 -394.75 -245.7 -394.75 L-245.7 -418.75 -225.7 -418.75 Q-221.7 -406.75 -221.7 -398.75" fill="#6f6f6f" fill-rule="evenodd" stroke="none"/>
    <path d="M-125.7 -450.75 Q-145.7 -446.75 -165.7 -446.75 L-165.7 -466.75 Q-145.7 -466.75 -125.7 -470.75 L-125.7 -450.75" fill="#6f6f6f" fill-rule="evenodd" stroke="none"/>
    <path d="M-201.7 -450.75 Q-217.7 -446.75 -233.7 -446.75 -233.7 -458.75 -237.7 -470.75 -221.7 -470.75 -205.7 -474.75 -201.7 -462.75 -201.7 -450.75" fill="#6f6f6f" fill-rule="evenodd" stroke="none"/>
    <path d="M-277.7 -478.75 L-277.7 -470.75 -301.7 -470.75 -301.7 -478.75 -277.7 -478.75" fill="#6f6f6f" fill-rule="evenodd" stroke="none"/>
    <path d="M-305.7 -470.75 L-305.7 -462.75 -317.7 -462.75 Q-313.7 -466.75 -313.7 -474.75 -309.7 -470.75 -305.7 -470.75" fill="#6f6f6f" fill-rule="evenodd" stroke="none"/>
    <path d="M10.3 145.25 L26.3 145.25 26.3 225.25 10.3 225.25 10.3 145.25" fill="#6f6f6f" fill-rule="evenodd" stroke="none"/>
  </g>
</svg>
