<?xml version="1.0" encoding="UTF-8" standalone="no"?>
<svg xmlns:ffdec="https://www.free-decompiler.com/flash" xmlns:xlink="http://www.w3.org/1999/xlink" ffdec:objectType="shape" height="1237.95px" width="510.0px" xmlns="http://www.w3.org/2000/svg">
  <g transform="matrix(1.0, 0.0, 0.0, 1.0, 255.0, 512.95)">
    <path d="M-182.4 -494.0 L-182.4 -512.95 174.6 -512.95 174.6 -494.0 255.0 -494.0 255.0 694.4 174.6 694.4 174.6 725.0 -182.4 725.0 -182.4 694.4 -255.0 694.4 -255.0 -494.0 -182.4 -494.0" fill="#434343" fill-rule="evenodd" stroke="none"/>
    <path d="M-41.9 312.5 L-37.95 312.5 -37.95 302.85 -28.45 302.85 -28.45 296.85 28.1 296.85 28.1 302.85 37.9 302.85 37.9 312.5 41.55 312.5 41.55 380.0 37.9 380.0 37.9 395.55 39.05 395.55 39.05 401.4 84.65 401.4 120.6 462.5 120.6 543.75 59.65 543.75 55.2 691.6 39.2 691.6 39.2 696.0 -39.4 696.0 -39.4 691.6 -120.75 691.6 -120.75 401.4 -39.7 401.4 -39.7 395.55 -37.95 395.55 -37.95 380.0 -41.9 380.0 -41.9 312.5" fill="#969696" fill-rule="evenodd" stroke="none"/>
    <path d="M51.55 438.35 L51.55 401.4 120.6 401.4 120.6 499.65 93.75 499.7 93.75 480.0 51.55 438.35" fill="#707070" fill-rule="evenodd" stroke="none"/>
    <path d="M-92.85 449.4 L-92.85 468.2 -45.35 523.75 -45.35 546.0 -42.2 546.0 -42.2 548.75 -45.35 548.75 -45.35 570.65 -92.85 627.2 -92.85 645.65 -120.65 645.65 -120.65 449.4 -92.85 449.4" fill="#707070" fill-rule="evenodd" stroke="none"/>
    <path d="M28.1 -103.15 L28.1 -97.15 75.8 -97.15 75.8 -10.2 37.9 -10.2 37.9 -4.45 39.05 -4.45 39.05 1.4 120.6 1.4 120.6 141.85 45.15 141.85 45.15 145.9 120.6 145.9 120.6 291.6 39.2 291.6 39.2 296.0 28.1 296.0 28.1 308.8 -28.45 308.8 -28.45 296.0 -39.4 296.0 -39.4 291.6 -120.85 291.6 -120.85 145.9 -46.7 145.9 -46.7 141.85 -120.85 141.85 -120.85 1.4 -39.7 1.4 -39.7 -4.45 -37.95 -4.45 -37.95 -10.2 -44.8 -10.2 -68.75 -57.5 -41.05 -97.15 -28.45 -97.15 -28.45 -103.15 28.1 -103.15" fill="#969696" fill-rule="evenodd" stroke="none"/>
    <path d="M-45.0 -10.2 L-80.85 -10.2 -80.85 -97.15 -41.05 -97.15 -45.0 -52.25 -45.0 -10.2" fill="#707070" fill-rule="evenodd" stroke="none"/>
    <path d="M101.85 1.4 L120.6 1.4 120.6 141.85 110.3 141.85 110.3 99.15 107.85 93.05 84.15 75.35 84.15 64.0 108.85 46.0 110.3 42.35 110.3 41.9 101.85 1.4" fill="#707070" fill-rule="evenodd" stroke="none"/>
    <path d="M-84.5 75.35 L-108.25 93.05 -110.65 99.15 -110.65 141.85 -120.85 141.85 -120.85 1.4 -102.2 1.4 -110.65 41.9 -110.65 42.35 -109.2 46.0 -84.5 64.0 -84.5 75.35" fill="#707070" fill-rule="evenodd" stroke="none"/>
    <path d="M53.4 145.9 L120.6 145.9 120.6 291.6 46.25 291.6 49.65 280.95 53.4 278.15 53.4 145.9" fill="#707070" fill-rule="evenodd" stroke="none"/>
    <path d="M-53.8 145.9 L-53.8 278.15 -50.05 280.95 -46.6 291.6 -120.85 291.6 -120.85 145.9 -53.8 145.9" fill="#707070" fill-rule="evenodd" stroke="none"/>
    <path d="M-103.25 -489.85 L-103.25 -503.2 103.35 -503.2 103.35 -489.85 120.6 -489.85 120.6 -104.0 28.1 -104.0 28.1 -91.2 -28.45 -91.2 -28.45 -104.0 -120.85 -104.0 -120.85 -489.85 -103.25 -489.85" fill="#969696" fill-rule="evenodd" stroke="none"/>
    <path d="M-96.8 -512.95 L96.75 -512.95 96.75 -503.2 -96.8 -503.2 -96.8 -512.95" fill="#ffffff" fill-rule="evenodd" stroke="none"/>
  </g>
</svg>
