<?xml version="1.0" encoding="UTF-8" standalone="no"?>
<svg xmlns:ffdec="https://www.free-decompiler.com/flash" xmlns:xlink="http://www.w3.org/1999/xlink" ffdec:objectType="shape" height="198.95px" width="267.95px" xmlns="http://www.w3.org/2000/svg">
  <g transform="matrix(1.0, 0.0, 0.0, 1.0, 104.45, 135.45)">
    <path d="M-75.45 -51.45 L-75.45 -135.45 145.5 -135.45 145.5 -51.45 158.5 -51.45 158.5 -57.95 163.5 -57.95 163.5 63.5 -104.45 63.5 -104.45 -51.45 -75.45 -51.45" fill="#424242" fill-rule="evenodd" stroke="none"/>
    <path d="M56.5 -33.45 L56.5 -36.95 53.5 -36.95 53.5 -71.95 76.0 -71.95 76.0 -36.95 68.5 -36.95 68.5 -33.45 56.5 -33.45" fill="#6f6f6f" fill-rule="evenodd" stroke="none"/>
    <path d="M-6.45 -116.95 L-6.45 -86.95 -9.95 -86.95 -9.95 -82.45 -21.95 -82.45 -21.95 -78.95 -9.45 -78.95 -9.45 -74.95 -5.95 -74.95 -5.95 -78.95 2.05 -78.95 2.05 -82.45 25.55 -82.45 25.55 -71.95 49.5 -71.95 49.5 -34.45 77.0 -34.45 77.0 -36.45 90.0 -36.45 90.0 -34.45 117.0 -34.45 117.0 -31.95 118.0 -31.95 118.0 -18.95 117.0 -18.95 117.0 -15.95 68.5 -15.95 68.5 -13.95 55.5 -13.95 55.5 -15.95 48.5 -15.95 48.5 40.05 2.55 40.05 2.55 58.5 -6.95 58.5 -6.95 61.0 -27.95 61.0 -27.95 58.5 -30.95 58.5 -30.95 61.0 -52.45 61.0 -52.45 58.5 -55.45 58.5 -55.45 61.0 -76.95 61.0 -76.95 58.5 -82.95 58.5 -82.95 4.05 -66.45 4.05 -66.45 5.05 -64.95 5.05 -64.95 3.55 -52.45 3.55 -52.45 5.05 -49.95 5.05 -49.95 3.55 -37.45 3.55 -37.45 5.05 -34.95 5.05 -34.95 3.55 -22.45 3.55 -22.45 5.05 -19.95 5.05 -19.95 3.55 -7.45 3.55 -7.45 5.05 -3.45 5.05 -3.45 -0.45 -5.45 -0.45 -5.45 -1.45 -6.45 -1.45 -6.45 -0.45 -7.45 -0.45 -7.45 0.55 -19.95 0.55 -19.95 -0.45 -22.45 -0.45 -22.45 0.55 -34.95 0.55 -34.95 -0.45 -37.45 -0.45 -37.45 0.55 -49.95 0.55 -49.95 -0.45 -52.45 -0.45 -52.45 0.55 -64.95 0.55 -64.95 -0.45 -67.45 -0.45 -67.45 -1.45 -82.95 -1.45 -82.95 -15.95 -75.95 -15.95 -53.95 -17.95 -6.45 -15.95 -6.45 -13.45 -5.45 -13.45 -5.45 -15.95 0.05 -15.95 0.05 -31.45 1.05 -31.45 1.05 -34.95 -2.95 -34.95 -2.95 -54.45 -6.45 -54.45 -6.45 -58.95 -9.95 -58.95 -9.95 -54.95 -39.45 -54.95 -39.45 -58.95 -46.45 -58.95 -46.45 -78.95 -39.45 -78.95 -39.45 -82.45 -51.95 -82.45 -51.95 -86.95 -55.45 -86.95 -55.45 -116.95 -51.95 -116.95 -51.95 -121.45 -9.95 -121.45 -9.95 -116.95 -6.45 -116.95 M-54.95 27.05 L-54.95 32.55 -51.45 32.55 -51.45 27.05 -54.95 27.05 M-27.45 32.55 L-27.45 27.05 -30.45 27.05 -30.45 32.55 -27.45 32.55" fill="#959595" fill-rule="evenodd" stroke="none"/>
    <path d="M38.55 42.05 L12.05 42.05 12.05 40.05 38.55 40.05 38.55 42.05" fill="#ffffff" fill-rule="evenodd" stroke="none"/>
    <path d="M-26.95 -19.95 L-26.95 -15.95 -76.45 -15.95 -76.45 -19.95 -26.95 -19.95" fill="#6f6f6f" fill-rule="evenodd" stroke="none"/>
    <path d="M-72.95 59.5 L-72.95 53.0 -57.95 53.0 -57.95 59.5 -72.95 59.5" fill="#6f6f6f" fill-rule="evenodd" stroke="none"/>
    <path d="M-48.95 59.5 L-48.95 53.0 -33.95 53.0 -33.95 59.5 -48.95 59.5" fill="#6f6f6f" fill-rule="evenodd" stroke="none"/>
    <path d="M-24.95 59.5 L-24.95 53.0 -9.95 53.0 -9.95 59.5 -24.95 59.5" fill="#6f6f6f" fill-rule="evenodd" stroke="none"/>
    <path d="M47.0 -4.45 L47.0 10.55 40.55 10.55 40.55 -4.45 47.0 -4.45" fill="#6f6f6f" fill-rule="evenodd" stroke="none"/>
    <path d="M47.0 20.05 L47.0 35.05 40.55 35.05 40.55 20.05 47.0 20.05" fill="#6f6f6f" fill-rule="evenodd" stroke="none"/>
    <path d="M45.55 18.55 L40.55 18.55 40.55 13.05 45.55 13.05 45.55 18.55" fill="#6f6f6f" fill-rule="evenodd" stroke="none"/>
    <path d="M-32.45 51.5 L-26.45 51.0 Q-25.95 54.0 -25.95 56.5 L-31.95 57.5 Q-31.95 54.5 -32.45 51.5" fill="#6f6f6f" fill-rule="evenodd" stroke="none"/>
    <path d="M-56.95 57.0 Q-56.45 54.5 -56.45 51.5 L-50.45 52.0 Q-50.45 55.0 -50.95 57.5 L-56.95 57.0" fill="#6f6f6f" fill-rule="evenodd" stroke="none"/>
    <path d="M-81.45 57.0 Q-80.95 54.5 -80.95 51.5 L-74.95 52.0 Q-74.95 55.0 -75.45 57.5 L-81.45 57.0" fill="#6f6f6f" fill-rule="evenodd" stroke="none"/>
    <path d="M-75.95 6.05 Q-76.45 9.05 -77.45 11.55 L-81.45 10.55 -80.45 5.05 -75.95 6.05" fill="#6f6f6f" fill-rule="evenodd" stroke="none"/>
    <path d="M4.05 63.5 L4.05 42.05 48.0 42.05 48.0 63.5 4.05 63.5" fill="#6f6f6f" fill-rule="evenodd" stroke="none"/>
    <path d="M17.55 -33.95 L1.05 -33.95 1.05 -34.95 -2.95 -34.95 -2.95 -43.95 16.05 -43.95 16.05 -34.95 17.55 -34.95 17.55 -33.95" fill="#6f6f6f" fill-rule="evenodd" stroke="none"/>
    <path d="M45.05 -51.95 L49.5 -51.95 49.5 -35.95 43.05 -35.95 43.05 -47.95 45.05 -47.95 45.05 -51.95" fill="#6f6f6f" fill-rule="evenodd" stroke="none"/>
    <path d="M48.5 -68.45 L46.5 -65.45 42.05 -67.45 Q43.05 -68.95 43.55 -70.95 46.05 -69.45 48.5 -68.45" fill="#6f6f6f" fill-rule="evenodd" stroke="none"/>
    <path d="M-21.95 -105.95 L-21.95 -97.95 -38.95 -97.95 -38.95 -105.95 -21.95 -105.95" fill="#6f6f6f" fill-rule="evenodd" stroke="none"/>
    <path d="M-7.95 51.0 L-6.95 49.0 -5.95 47.5 Q-4.95 47.5 -3.95 47.0 L-1.95 47.0 -0.45 48.5 0.55 50.0 0.55 52.5 -0.45 54.0 -2.45 55.0 -4.45 55.0 -5.95 54.5 -7.45 53.0 Q-7.45 52.0 -7.95 51.0" fill="#6f6f6f" fill-rule="evenodd" stroke="none"/>
    <path d="M-73.95 24.55 L-72.95 26.55 -72.95 28.55 -73.95 30.55 -75.45 31.55 -77.95 31.55 Q-78.45 31.05 -79.45 30.55 L-80.95 29.05 Q-80.95 28.05 -81.45 27.05 L-80.45 25.05 -79.45 24.05 -77.45 23.05 Q-76.45 23.55 -75.45 23.55 -74.45 24.05 -73.95 24.55" fill="#6f6f6f" fill-rule="evenodd" stroke="none"/>
    <path d="M42.05 -7.45 Q41.05 -7.45 40.05 -7.95 L39.05 -9.45 Q39.05 -10.45 38.55 -11.45 39.05 -12.45 39.05 -13.45 40.05 -13.95 40.55 -14.95 41.55 -14.95 42.55 -15.45 L44.55 -15.45 46.05 -13.95 Q46.5 -12.95 47.0 -12.45 47.0 -10.95 46.5 -9.95 L45.55 -8.45 44.05 -7.45 42.05 -7.45" fill="#6f6f6f" fill-rule="evenodd" stroke="none"/>
  </g>
</svg>
