<?xml version="1.0" encoding="UTF-8" standalone="no"?>
<svg xmlns:ffdec="https://www.free-decompiler.com/flash" xmlns:xlink="http://www.w3.org/1999/xlink" ffdec:objectType="shape" height="1768.55px" width="320.45px" xmlns="http://www.w3.org/2000/svg">
  <g transform="matrix(1.0, 0.0, 0.0, 1.0, 154.95, 898.15)">
    <path d="M-135.45 -539.15 L-126.45 -741.15 -104.45 -898.15 113.0 -898.15 Q124.0 -821.65 134.5 -745.15 L144.5 -539.15 147.5 -539.15 Q147.0 -97.65 146.0 343.35 144.0 407.85 141.5 472.35 L126.5 549.85 130.0 549.85 Q128.0 569.35 125.5 588.35 L139.5 653.35 93.5 782.35 Q80.0 806.85 66.0 831.4 58.0 841.4 49.5 850.9 L30.5 864.4 Q26.0 866.9 21.5 868.9 L7.5 870.4 -1.5 870.4 -12.0 867.9 Q-18.0 865.9 -24.0 863.4 L-40.5 849.9 -58.5 830.4 -101.45 738.35 Q-116.45 695.85 -131.95 653.35 -123.45 621.85 -115.45 590.35 -118.45 570.35 -121.95 549.85 L-117.45 549.85 -131.45 472.35 -137.45 343.35 -137.45 -539.15 -135.45 -539.15" fill="#6f6f6f" fill-rule="evenodd" stroke="none"/>
    <path d="M9.0 313.85 L-0.5 313.85 -0.5 306.35 9.0 306.35 9.0 313.85" fill="#ffffff" fill-rule="evenodd" stroke="none"/>
    <path d="M9.0 147.85 L-0.5 147.85 -0.5 141.85 9.0 141.85 9.0 147.85" fill="#ffffff" fill-rule="evenodd" stroke="none"/>
    <path d="M9.0 -15.65 L-0.5 -15.65 -0.5 -22.15 9.0 -22.15 9.0 -15.65" fill="#ffffff" fill-rule="evenodd" stroke="none"/>
    <path d="M8.5 -432.15 L-1.0 -432.15 -1.0 -438.15 8.5 -438.15 8.5 -432.15" fill="#ffffff" fill-rule="evenodd" stroke="none"/>
    <path d="M-115.45 -699.65 L-89.5 -699.65 -89.5 -711.65 Q-86.0 -751.15 -83.0 -791.15 L91.0 -791.15 Q95.5 -751.15 99.5 -711.65 L99.5 -699.65 124.5 -699.65 124.5 -476.65 -115.45 -476.65 -115.45 -699.65" fill="#424242" fill-rule="evenodd" stroke="none"/>
    <path d="M-112.95 -697.15 L-87.0 -697.15 -87.0 -708.65 -80.0 -787.65 Q4.0 -787.65 88.0 -788.15 L96.0 -708.65 96.0 -697.15 122.0 -697.15 122.0 -479.65 -112.95 -479.65 -112.95 -697.15" fill="#959595" fill-rule="evenodd" stroke="none"/>
    <path d="M-16.5 -718.65 L-16.5 -790.15 26.0 -790.15 26.0 -718.65 Q26.0 -716.15 25.5 -714.15 25.0 -712.15 24.0 -710.15 L22.0 -707.65 16.0 -703.65 9.0 -702.65 0.0 -702.65 -7.5 -704.15 -12.5 -707.15 Q-13.5 -708.65 -15.0 -710.15 L-16.0 -714.15 Q-16.0 -716.15 -16.5 -718.65" fill="#424242" fill-rule="evenodd" stroke="none"/>
    <path d="M-88.0 -676.15 L-45.5 -676.15 -45.5 -695.15 55.0 -695.15 55.0 -684.65 90.0 -684.65 90.0 -676.15 97.0 -676.15 97.0 -503.65 78.0 -503.65 78.0 -501.65 -70.0 -501.65 -70.0 -503.65 -88.0 -503.65 -88.0 -676.15" fill="#424242" fill-rule="evenodd" stroke="none"/>
    <path d="M136.0 -313.65 L-125.45 -313.65 -125.45 -432.65 136.0 -432.65 136.0 -313.65" fill="#424242" fill-rule="evenodd" stroke="none"/>
    <path d="M135.0 187.35 L135.0 307.35 -126.45 307.35 -126.45 187.35 135.0 187.35" fill="#424242" fill-rule="evenodd" stroke="none"/>
    <path d="M136.0 19.35 L136.0 142.35 -125.45 142.35 -125.45 19.35 136.0 19.35" fill="#424242" fill-rule="evenodd" stroke="none"/>
    <path d="M135.5 -142.65 L135.5 -20.65 -125.95 -20.65 -125.95 -142.65 135.5 -142.65" fill="#424242" fill-rule="evenodd" stroke="none"/>
    <path d="M-60.5 425.35 L-60.5 405.85 -57.0 405.85 -57.0 425.35 58.5 425.35 58.5 405.85 62.0 405.85 62.0 425.35 66.5 425.35 66.5 618.35 62.0 618.35 62.0 633.35 58.5 633.35 58.5 618.35 -57.0 618.35 -57.0 633.35 -60.5 633.35 -60.5 618.35 -64.5 618.35 -64.5 425.35 -60.5 425.35" fill="#424242" fill-rule="evenodd" stroke="none"/>
    <path d="M-7.5 370.85 L-7.5 362.85 -3.5 355.85 3.5 351.85 11.5 351.85 18.5 355.85 22.5 362.85 22.5 370.85 18.5 377.85 11.5 381.85 3.5 381.85 -3.5 377.85 -7.5 370.85" fill="#424242" fill-rule="evenodd" stroke="none"/>
    <path d="M82.5 349.35 L91.5 349.35 91.5 386.85 31.5 386.85 31.5 349.35 71.5 349.35 71.5 344.35 82.5 344.35 82.5 349.35" fill="#424242" fill-rule="evenodd" stroke="none"/>
    <path d="M-81.0 350.35 L-73.5 350.35 -73.5 344.85 -63.5 344.85 -63.5 350.35 -16.5 350.35 -16.5 375.85 -46.0 375.85 -46.0 384.35 -81.0 384.35 -81.0 350.35" fill="#424242" fill-rule="evenodd" stroke="none"/>
    <path d="M-7.5 -225.65 L-7.5 -233.65 -3.5 -240.65 3.5 -244.65 11.5 -244.65 18.5 -240.65 22.5 -233.65 22.5 -225.65 18.5 -218.65 11.5 -214.65 3.5 -214.65 -3.5 -218.65 -7.5 -225.65" fill="#424242" fill-rule="evenodd" stroke="none"/>
    <path d="M69.5 -246.65 L69.5 -250.65 72.5 -250.65 72.5 -246.65 91.5 -246.65 91.5 -209.15 72.5 -209.15 72.5 -205.65 69.5 -205.65 69.5 -209.15 31.5 -209.15 31.5 -246.65 69.5 -246.65" fill="#424242" fill-rule="evenodd" stroke="none"/>
    <path d="M-16.5 -245.65 L-16.5 -220.15 -46.0 -220.15 -46.0 -211.65 -59.5 -211.65 -59.5 -205.65 -63.0 -205.65 -63.0 -211.65 -81.0 -211.65 -81.0 -245.65 -63.0 -245.65 -63.0 -250.65 -59.5 -250.65 -59.5 -245.65 -16.5 -245.65" fill="#424242" fill-rule="evenodd" stroke="none"/>
    <path d="M-88.0 -660.15 L-88.0 -602.15 -102.45 -601.65 -102.45 -660.15 -88.0 -660.15" fill="#424242" fill-rule="evenodd" stroke="none"/>
    <path d="M-101.45 -602.65 L-101.45 -660.15 -89.95 -660.15 -89.95 -602.65 -101.45 -602.65" fill="#ffffff" fill-rule="evenodd" stroke="none"/>
    <path d="M111.5 -660.15 L111.5 -601.65 97.5 -601.65 97.5 -660.15 111.5 -660.15" fill="#424242" fill-rule="evenodd" stroke="none"/>
    <path d="M98.5 -602.65 L98.5 -660.15 110.0 -660.15 110.0 -602.65 98.5 -602.65" fill="#ffffff" fill-rule="evenodd" stroke="none"/>
    <path d="M161.0 -660.15 Q163.5 -639.65 165.5 -619.65 L164.5 -587.65 163.5 -583.65 161.5 -579.15 Q160.5 -577.15 159.0 -575.65 158.0 -574.15 156.5 -573.15 L152.5 -570.15 151.0 -570.15 Q149.0 -571.65 146.5 -573.15 L143.5 -576.15 140.0 -583.15 132.5 -583.15 132.5 -592.65 138.5 -592.65 Q139.0 -614.65 139.0 -636.65 139.5 -637.65 139.5 -638.65 L132.5 -638.65 132.5 -647.65 141.5 -647.65 142.5 -652.15 142.5 -660.15 153.0 -661.15 161.0 -660.15" fill="#424242" fill-rule="evenodd" stroke="none"/>
    <path d="M-150.45 -658.15 L-142.45 -659.15 -131.95 -658.15 -131.95 -650.15 -130.95 -645.65 -121.95 -645.65 -121.95 -636.65 -128.95 -636.65 Q-128.45 -635.65 -128.45 -634.65 L-127.45 -598.15 Q-127.45 -594.15 -127.95 -590.65 L-121.95 -590.65 -121.95 -581.15 -129.45 -581.15 Q-130.95 -577.65 -132.95 -574.15 L-135.95 -571.15 -140.45 -568.15 -141.95 -568.15 -145.95 -571.15 -148.45 -573.65 -150.95 -577.15 -152.95 -581.65 -153.95 -585.65 -154.95 -617.65 Q-152.45 -637.65 -150.45 -658.15" fill="#424242" fill-rule="evenodd" stroke="none"/>
    <path d="M-60.5 -733.65 L-60.5 -676.15 -74.0 -676.15 -74.0 -733.65 -60.5 -733.65 M78.5 -741.65 L78.5 -684.15 64.5 -684.15 64.5 -741.65 78.5 -741.65" fill="#424242" fill-rule="evenodd" stroke="none"/>
    <path d="M-73.0 -676.15 L-73.0 -733.65 -61.5 -733.65 -61.5 -676.15 -73.0 -676.15" fill="#ffffff" fill-rule="evenodd" stroke="none"/>
    <path d="M66.0 -684.65 L66.0 -741.65 77.5 -741.65 77.5 -684.65 66.0 -684.65" fill="#ffffff" fill-rule="evenodd" stroke="none"/>
  </g>
</svg>
