<?xml version="1.0" encoding="UTF-8" standalone="no"?>
<svg xmlns:ffdec="https://www.free-decompiler.com/flash" xmlns:xlink="http://www.w3.org/1999/xlink" ffdec:objectType="shape" height="44.0px" width="124.15px" xmlns="http://www.w3.org/2000/svg">
  <g transform="matrix(1.0, 0.0, 0.0, 1.0, -362.25, -406.45)">
    <path d="M470.05 423.85 Q466.2 417.4 466.2 415.3 466.2 411.65 469.15 409.05 472.15 406.45 476.3 406.45 480.5 406.45 483.45 409.05 486.4 411.65 486.4 415.3 486.4 417.35 482.45 423.85 L470.05 423.85 M479.8 428.7 L482.5 432.9 Q486.4 439.45 486.4 441.55 486.4 445.25 483.5 447.85 480.5 450.45 476.3 450.45 472.15 450.45 469.2 447.85 466.2 445.25 466.2 441.55 466.2 439.5 470.35 432.9 471.9 430.3 473.2 428.7 L475.5 428.7 475.5 432.15 476.95 432.15 476.95 428.7 479.8 428.7" fill="#ffffff" fill-rule="evenodd" stroke="none"/>
    <path d="M482.45 423.85 L482.3 424.0 479.45 428.25 479.8 428.7 476.95 428.7 476.95 432.15 475.5 432.15 475.5 428.7 473.2 428.7 473.25 428.65 Q471.9 426.95 470.15 424.0 L470.05 423.85 482.45 423.85" fill="#f691bd" fill-rule="evenodd" stroke="none"/>
    <path d="M485.85 444.65 Q485.1 446.45 483.55 447.85 480.55 450.4 476.4 450.45 472.2 450.4 469.25 447.8 467.6 446.35 466.85 444.5 L476.3 435.05 485.85 444.65" fill="#f691bd" fill-rule="evenodd" stroke="none"/>
    <path d="M422.05 407.45 Q422.8 408.2 422.8 409.25 422.8 410.25 422.05 411.05 421.3 411.8 420.25 411.8 419.2 411.8 418.45 411.05 417.75 410.25 417.75 409.25 417.75 408.2 418.45 407.45 419.2 406.7 420.25 406.7 421.3 406.7 422.05 407.45 M406.85 406.7 Q407.9 406.7 408.65 407.45 409.4 408.2 409.4 409.25 409.4 410.25 408.65 411.05 407.9 411.8 406.85 411.8 405.8 411.8 405.05 411.05 404.35 410.25 404.35 409.25 404.35 408.2 405.05 407.45 405.8 406.7 406.85 406.7 M422.45 411.45 L422.7 411.25 423.35 411.8 Q424.7 413.15 424.7 414.95 L424.7 418.8 424.5 419.2 424.1 419.4 423.15 419.4 423.15 426.1 422.95 426.5 Q422.75 426.7 422.55 426.7 L418.0 426.7 Q417.75 426.7 417.55 426.5 L417.4 426.1 417.4 419.4 416.45 419.4 Q416.2 419.4 416.05 419.2 L415.85 418.8 415.85 414.95 Q415.85 413.15 417.1 411.8 L417.85 411.25 418.0 411.45 Q418.95 412.4 420.25 412.4 421.6 412.4 422.45 411.45 M409.05 411.45 L409.3 411.25 409.95 411.8 Q411.3 413.15 411.3 414.95 L411.3 418.8 411.1 419.2 410.7 419.4 409.75 419.4 409.75 426.1 409.55 426.5 Q409.35 426.7 409.15 426.7 L404.6 426.7 404.15 426.5 404.0 426.1 404.0 419.4 403.05 419.4 Q402.8 419.4 402.65 419.2 L402.45 418.8 402.45 414.95 Q402.45 413.15 403.7 411.8 L404.45 411.25 404.6 411.45 Q405.55 412.4 406.85 412.4 408.2 412.4 409.05 411.45 M418.45 431.05 Q419.2 430.3 420.25 430.3 421.3 430.3 422.05 431.05 422.8 431.8 422.8 432.85 422.8 433.85 422.05 434.65 421.3 435.4 420.25 435.4 419.2 435.4 418.45 434.65 417.75 433.85 417.75 432.85 417.75 431.8 418.45 431.05 M409.4 432.85 Q409.4 433.85 408.65 434.65 407.9 435.4 406.85 435.4 405.8 435.4 405.05 434.65 404.35 433.85 404.35 432.85 404.35 431.8 405.05 431.05 405.8 430.3 406.85 430.3 407.9 430.3 408.65 431.05 409.4 431.8 409.4 432.85 M422.45 435.05 L422.7 434.85 423.35 435.4 Q424.7 436.75 424.7 438.55 L424.7 442.4 424.5 442.8 424.1 443.0 423.15 443.0 423.15 449.7 422.95 450.1 Q422.75 450.3 422.55 450.3 L418.0 450.3 Q417.75 450.3 417.55 450.1 L417.4 449.7 417.4 443.0 416.45 443.0 Q416.2 443.0 416.05 442.8 L415.85 442.4 415.85 438.55 Q415.85 436.75 417.1 435.4 L417.85 434.85 418.0 435.05 Q418.95 436.0 420.25 436.0 421.6 436.0 422.45 435.05 M406.85 436.0 Q408.2 436.0 409.05 435.05 L409.3 434.85 409.95 435.4 Q411.3 436.75 411.3 438.55 L411.3 442.4 411.1 442.8 410.7 443.0 409.75 443.0 409.75 449.7 409.55 450.1 Q409.35 450.3 409.15 450.3 L404.6 450.3 404.15 450.1 404.0 449.7 404.0 443.0 403.05 443.0 Q402.8 443.0 402.65 442.8 L402.45 442.4 402.45 438.55 Q402.45 436.75 403.7 435.4 L404.45 434.85 404.6 435.05 Q405.55 436.0 406.85 436.0 M393.45 406.7 Q394.5 406.7 395.25 407.45 396.0 408.2 396.0 409.25 396.0 410.25 395.25 411.05 394.5 411.8 393.45 411.8 392.4 411.8 391.65 411.05 390.95 410.25 390.95 409.25 390.95 408.2 391.65 407.45 392.4 406.7 393.45 406.7 M391.2 411.45 Q392.15 412.4 393.45 412.4 394.8 412.4 395.65 411.45 L395.9 411.25 396.55 411.8 Q397.9 413.15 397.9 414.95 L397.9 418.8 397.7 419.2 397.3 419.4 396.35 419.4 396.35 426.1 396.15 426.5 Q395.95 426.7 395.75 426.7 L391.2 426.7 390.75 426.5 390.6 426.1 390.6 419.4 389.65 419.4 Q389.4 419.4 389.25 419.2 L389.05 418.8 389.05 414.95 Q389.05 413.15 390.3 411.8 L391.05 411.25 391.2 411.45 M380.05 406.7 Q381.1 406.7 381.85 407.45 382.6 408.2 382.6 409.25 382.6 410.25 381.85 411.05 381.1 411.8 380.05 411.8 379.0 411.8 378.25 411.05 377.55 410.25 377.55 409.25 377.55 408.2 378.25 407.45 379.0 406.7 380.05 406.7 M382.5 411.25 L383.15 411.8 Q384.5 413.15 384.5 414.95 L384.5 418.8 384.3 419.2 383.9 419.4 382.95 419.4 382.95 426.1 382.75 426.5 Q382.55 426.7 382.35 426.7 L377.8 426.7 377.35 426.5 377.2 426.1 377.2 419.4 376.25 419.4 Q376.0 419.4 375.85 419.2 L375.65 418.8 375.65 414.95 Q375.65 413.15 376.9 411.8 L377.65 411.25 377.8 411.45 Q378.75 412.4 380.05 412.4 381.4 412.4 382.25 411.45 L382.5 411.25 M378.25 431.05 Q379.0 430.3 380.05 430.3 381.1 430.3 381.85 431.05 382.6 431.8 382.6 432.85 382.6 433.85 381.85 434.65 381.1 435.4 380.05 435.4 379.0 435.4 378.25 434.65 377.55 433.85 377.55 432.85 377.55 431.8 378.25 431.05 M368.45 431.05 Q369.2 431.8 369.2 432.85 369.2 433.85 368.45 434.65 367.7 435.4 366.65 435.4 365.6 435.4 364.85 434.65 364.15 433.85 364.15 432.85 364.15 431.8 364.85 431.05 365.6 430.3 366.65 430.3 367.7 430.3 368.45 431.05 M382.5 434.85 L383.15 435.4 Q384.5 436.75 384.5 438.55 L384.5 442.4 384.3 442.8 383.9 443.0 382.95 443.0 382.95 449.7 382.75 450.1 Q382.55 450.3 382.35 450.3 L377.8 450.3 377.35 450.1 377.2 449.7 377.2 443.0 376.25 443.0 Q376.0 443.0 375.85 442.8 L375.65 442.4 375.65 438.55 Q375.65 436.75 376.9 435.4 L377.65 434.85 377.8 435.05 Q378.75 436.0 380.05 436.0 381.4 436.0 382.25 435.05 L382.5 434.85 M369.75 435.4 Q371.1 436.75 371.1 438.55 L371.1 442.4 370.9 442.8 370.5 443.0 369.55 443.0 369.55 449.7 369.35 450.1 Q369.15 450.3 368.95 450.3 L364.4 450.3 Q364.15 450.3 363.95 450.1 363.8 449.95 363.8 449.7 L363.8 443.0 362.85 443.0 Q362.6 443.0 362.45 442.8 L362.25 442.4 362.25 438.55 Q362.25 436.75 363.5 435.4 L364.25 434.85 364.4 435.05 Q365.35 436.0 366.65 436.0 368.0 436.0 368.85 435.05 L369.1 434.85 369.75 435.4 M396.0 432.85 Q396.0 433.85 395.25 434.65 394.5 435.4 393.45 435.4 392.4 435.4 391.65 434.65 390.95 433.85 390.95 432.85 390.95 431.8 391.65 431.05 392.4 430.3 393.45 430.3 394.5 430.3 395.25 431.05 396.0 431.8 396.0 432.85 M391.2 435.05 Q392.15 436.0 393.45 436.0 394.8 436.0 395.65 435.05 L395.9 434.85 396.55 435.4 Q397.9 436.75 397.9 438.55 L397.9 442.4 397.7 442.8 397.3 443.0 396.35 443.0 396.35 449.7 396.15 450.1 Q395.95 450.3 395.75 450.3 L391.2 450.3 390.75 450.1 390.6 449.7 390.6 443.0 389.65 443.0 Q389.4 443.0 389.25 442.8 L389.05 442.4 389.05 438.55 Q389.05 436.75 390.3 435.4 L391.05 434.85 391.2 435.05" fill="#009933" fill-rule="evenodd" stroke="none"/>
  </g>
</svg>
