<?xml version="1.0" encoding="UTF-8" standalone="no"?>
<svg xmlns:ffdec="https://www.free-decompiler.com/flash" xmlns:xlink="http://www.w3.org/1999/xlink" ffdec:objectType="shape" height="44.15px" width="110.3px" xmlns="http://www.w3.org/2000/svg">
  <g transform="matrix(1.0, 0.0, 0.0, 1.0, -274.2, -406.7)">
    <path d="M366.65 406.7 Q367.7 406.7 368.45 407.45 369.2 408.2 369.2 409.25 369.2 410.25 368.45 411.05 367.7 411.8 366.65 411.8 365.6 411.8 364.85 411.05 364.15 410.25 364.15 409.25 364.15 408.2 364.85 407.45 365.6 406.7 366.65 406.7 M368.85 411.45 L369.1 411.25 369.75 411.8 Q371.1 413.15 371.1 414.95 L371.1 418.8 370.9 419.2 370.5 419.4 369.55 419.4 369.55 426.1 369.35 426.5 Q369.15 426.7 368.95 426.7 L364.4 426.7 Q364.15 426.7 363.95 426.5 363.8 426.35 363.8 426.1 L363.8 419.4 362.85 419.4 Q362.6 419.4 362.45 419.2 L362.25 418.8 362.25 414.95 Q362.25 413.15 363.5 411.8 L364.25 411.25 364.4 411.45 Q365.35 412.4 366.65 412.4 368.0 412.4 368.85 411.45" fill="#ffffff" fill-rule="evenodd" stroke="none"/>
    <path d="M381.85 407.45 Q382.6 408.2 382.6 409.25 382.6 410.25 381.85 411.05 381.1 411.8 380.05 411.8 379.0 411.8 378.25 411.05 377.55 410.25 377.55 409.25 377.55 408.2 378.25 407.45 379.0 406.7 380.05 406.7 381.1 406.7 381.85 407.45 M382.25 411.45 L382.5 411.25 383.15 411.8 Q384.5 413.15 384.5 414.95 L384.5 418.8 384.3 419.2 383.9 419.4 382.95 419.4 382.95 426.1 382.75 426.5 Q382.55 426.7 382.35 426.7 L377.8 426.7 377.35 426.5 377.2 426.1 377.2 419.4 376.25 419.4 Q376.0 419.4 375.85 419.2 L375.65 418.8 375.65 414.95 Q375.65 413.15 376.9 411.8 L377.65 411.25 377.8 411.45 Q378.75 412.4 380.05 412.4 381.4 412.4 382.25 411.45" fill="#ffffff" fill-rule="evenodd" stroke="none"/>
    <path d="M282.6 436.3 L282.0 435.9 278.6 433.35 274.8 429.85 274.2 424.05 278.6 422.5 Q283.3 420.65 284.6 418.85 287.15 415.4 287.0 411.6 286.85 408.5 287.4 408.25 288.3 407.85 289.6 409.45 291.0 411.25 292.2 411.25 L300.8 409.85 Q309.2 408.45 315.4 408.45 320.25 408.45 324.0 411.55 326.65 413.75 328.6 417.0 L330.0 419.85 330.85 418.55 Q331.9 417.25 333.0 417.25 334.3 417.25 334.5 417.6 L334.6 419.85 Q334.6 421.5 335.9 421.05 L337.2 420.25 336.4 421.75 Q335.35 423.25 334.2 423.25 333.1 423.25 332.85 422.45 L332.8 421.65 Q332.15 422.05 331.5 422.95 330.2 424.7 330.2 427.05 330.2 429.45 329.8 432.0 L329.4 434.05 328.75 435.9 328.55 436.3 282.6 436.3" fill="#ffffff" fill-rule="evenodd" stroke="none"/>
    <path d="M282.6 436.3 L328.55 436.3 328.3 436.8 Q326.8 439.95 324.85 441.9 322.9 443.85 321.95 447.45 L321.4 450.65 316.8 450.65 313.6 441.65 306.8 442.25 Q305.3 442.25 303.3 440.95 302.0 440.1 302.0 440.85 302.0 443.8 299.3 447.6 L296.6 450.85 290.2 450.85 291.5 448.3 Q292.8 445.6 292.8 444.65 L293.2 440.25 285.8 437.85 Q284.4 437.45 282.6 436.3" fill="#bca2cf" fill-rule="evenodd" stroke="none"/>
  </g>
</svg>
