<?xml version="1.0" encoding="UTF-8" standalone="no"?>
<svg xmlns:ffdec="https://www.free-decompiler.com/flash" xmlns:xlink="http://www.w3.org/1999/xlink" ffdec:objectType="shape" height="44.15px" width="150.5px" xmlns="http://www.w3.org/2000/svg">
  <g transform="matrix(1.0, 0.0, 0.0, 1.0, -274.2, -406.7)">
    <path d="M368.45 407.45 Q369.2 408.2 369.2 409.25 369.2 410.25 368.45 411.05 367.7 411.8 366.65 411.8 365.6 411.8 364.85 411.05 364.15 410.25 364.15 409.25 364.15 408.2 364.85 407.45 365.6 406.7 366.65 406.7 367.7 406.7 368.45 407.45 M368.85 411.45 L369.1 411.25 369.75 411.8 Q371.1 413.15 371.1 414.95 L371.1 418.8 370.9 419.2 370.5 419.4 369.55 419.4 369.55 426.1 369.35 426.5 Q369.15 426.7 368.95 426.7 L364.4 426.7 Q364.15 426.7 363.95 426.5 363.8 426.35 363.8 426.1 L363.8 419.4 362.85 419.4 Q362.6 419.4 362.45 419.2 L362.25 418.8 362.25 414.95 Q362.25 413.15 363.5 411.8 L364.25 411.25 364.4 411.45 Q365.35 412.4 366.65 412.4 368.0 412.4 368.85 411.45" fill="#ffffff" fill-rule="evenodd" stroke="none"/>
    <path d="M380.05 406.7 Q381.1 406.7 381.85 407.45 382.6 408.2 382.6 409.25 382.6 410.25 381.85 411.05 381.1 411.8 380.05 411.8 379.0 411.8 378.25 411.05 377.55 410.25 377.55 409.25 377.55 408.2 378.25 407.45 379.0 406.7 380.05 406.7 M382.25 411.45 L382.5 411.25 383.15 411.8 Q384.5 413.15 384.5 414.95 L384.5 418.8 384.3 419.2 383.9 419.4 382.95 419.4 382.95 426.1 382.75 426.5 Q382.55 426.7 382.35 426.7 L377.8 426.7 377.35 426.5 377.2 426.1 377.2 419.4 376.25 419.4 Q376.0 419.4 375.85 419.2 L375.65 418.8 375.65 414.95 Q375.65 413.15 376.9 411.8 L377.65 411.25 377.8 411.45 Q378.75 412.4 380.05 412.4 381.4 412.4 382.25 411.45" fill="#ffffff" fill-rule="evenodd" stroke="none"/>
    <path d="M393.45 406.7 Q394.5 406.7 395.25 407.45 396.0 408.2 396.0 409.25 396.0 410.25 395.25 411.05 394.5 411.8 393.45 411.8 392.4 411.8 391.65 411.05 390.95 410.25 390.95 409.25 390.95 408.2 391.65 407.45 392.4 406.7 393.45 406.7 M391.2 411.45 Q392.15 412.4 393.45 412.4 394.8 412.4 395.65 411.45 L395.9 411.25 396.55 411.8 Q397.9 413.15 397.9 414.95 L397.9 418.8 397.7 419.2 397.3 419.4 396.35 419.4 396.35 426.1 396.15 426.5 Q395.95 426.7 395.75 426.7 L391.2 426.7 390.75 426.5 390.6 426.1 390.6 419.4 389.65 419.4 Q389.4 419.4 389.25 419.2 L389.05 418.8 389.05 414.95 Q389.05 413.15 390.3 411.8 L391.05 411.25 391.2 411.45" fill="#ffffff" fill-rule="evenodd" stroke="none"/>
    <path d="M408.65 407.45 Q409.4 408.2 409.4 409.25 409.4 410.25 408.65 411.05 407.9 411.8 406.85 411.8 405.8 411.8 405.05 411.05 404.35 410.25 404.35 409.25 404.35 408.2 405.05 407.45 405.8 406.7 406.85 406.7 407.9 406.7 408.65 407.45 M409.05 411.45 L409.3 411.25 409.95 411.8 Q411.3 413.15 411.3 414.95 L411.3 418.8 411.1 419.2 410.7 419.4 409.75 419.4 409.75 426.1 409.55 426.5 Q409.35 426.7 409.15 426.7 L404.6 426.7 404.15 426.5 404.0 426.1 404.0 419.4 403.05 419.4 Q402.8 419.4 402.65 419.2 L402.45 418.8 402.45 414.95 Q402.45 413.15 403.7 411.8 L404.45 411.25 404.6 411.45 Q405.55 412.4 406.85 412.4 408.2 412.4 409.05 411.45" fill="#ffffff" fill-rule="evenodd" stroke="none"/>
    <path d="M420.25 406.7 Q421.3 406.7 422.05 407.45 422.8 408.2 422.8 409.25 422.8 410.25 422.05 411.05 421.3 411.8 420.25 411.8 419.2 411.8 418.45 411.05 417.75 410.25 417.75 409.25 417.75 408.2 418.45 407.45 419.2 406.7 420.25 406.7 M422.45 411.45 L422.7 411.25 423.35 411.8 Q424.7 413.15 424.7 414.95 L424.7 418.8 424.5 419.2 424.1 419.4 423.15 419.4 423.15 426.1 422.95 426.5 Q422.75 426.7 422.55 426.7 L418.0 426.7 Q417.75 426.7 417.55 426.5 L417.4 426.1 417.4 419.4 416.45 419.4 Q416.2 419.4 416.05 419.2 L415.85 418.8 415.85 414.95 Q415.85 413.15 417.1 411.8 L417.85 411.25 418.0 411.45 Q418.95 412.4 420.25 412.4 421.6 412.4 422.45 411.45" fill="#ffffff" fill-rule="evenodd" stroke="none"/>
    <path d="M369.2 432.85 Q369.2 433.85 368.45 434.65 367.7 435.4 366.65 435.4 365.6 435.4 364.85 434.65 364.15 433.85 364.15 432.85 364.15 431.8 364.85 431.05 365.6 430.3 366.65 430.3 367.7 430.3 368.45 431.05 369.2 431.8 369.2 432.85 M369.75 435.4 Q371.1 436.75 371.1 438.55 L371.1 442.4 370.9 442.8 370.5 443.0 369.55 443.0 369.55 449.7 369.35 450.1 Q369.15 450.3 368.95 450.3 L364.4 450.3 Q364.15 450.3 363.95 450.1 363.8 449.95 363.8 449.7 L363.8 443.0 362.85 443.0 Q362.6 443.0 362.45 442.8 L362.25 442.4 362.25 438.55 Q362.25 436.75 363.5 435.4 L364.25 434.85 364.4 435.05 Q365.35 436.0 366.65 436.0 368.0 436.0 368.85 435.05 L369.1 434.85 369.75 435.4" fill="#ffffff" fill-rule="evenodd" stroke="none"/>
    <path d="M282.6 436.3 L282.0 435.9 278.6 433.35 274.8 429.85 274.2 424.05 278.6 422.5 Q283.3 420.65 284.6 418.85 287.15 415.4 287.0 411.6 286.85 408.5 287.4 408.25 288.3 407.85 289.6 409.45 291.0 411.25 292.2 411.25 L300.8 409.85 Q309.2 408.45 315.4 408.45 320.25 408.45 324.0 411.55 326.65 413.75 328.6 417.0 L330.0 419.85 330.85 418.55 Q331.9 417.25 333.0 417.25 334.3 417.25 334.5 417.6 L334.6 419.85 Q334.6 421.5 335.9 421.05 L337.2 420.25 336.4 421.75 Q335.35 423.25 334.2 423.25 333.1 423.25 332.85 422.45 L332.8 421.65 Q332.15 422.05 331.5 422.95 330.2 424.7 330.2 427.05 330.2 429.45 329.8 432.0 L329.4 434.05 328.75 435.9 328.55 436.3 282.6 436.3" fill="#ffffff" fill-rule="evenodd" stroke="none"/>
    <path d="M282.6 436.3 L328.55 436.3 328.3 436.8 Q326.8 439.95 324.85 441.9 322.9 443.85 321.95 447.45 L321.4 450.65 316.8 450.65 313.6 441.65 306.8 442.25 Q305.3 442.25 303.3 440.95 302.0 440.1 302.0 440.85 302.0 443.8 299.3 447.6 L296.6 450.85 290.2 450.85 291.5 448.3 Q292.8 445.6 292.8 444.65 L293.2 440.25 285.8 437.85 Q284.4 437.45 282.6 436.3" fill="#bca2cf" fill-rule="evenodd" stroke="none"/>
  </g>
</svg>
