<?xml version="1.0" encoding="UTF-8" standalone="no"?>
<svg xmlns:ffdec="https://www.free-decompiler.com/flash" xmlns:xlink="http://www.w3.org/1999/xlink" ffdec:objectType="shape" height="317.0px" width="190.0px" xmlns="http://www.w3.org/2000/svg">
  <g transform="matrix(1.0, 0.0, 0.0, 1.0, 0.0, 0.0)">
    <path d="M190.0 12.65 L190.0 304.35 Q190.0 309.55 186.3 313.3 182.55 317.0 177.35 317.0 L12.6 317.0 Q7.4 317.0 3.7 313.3 0.0 309.55 0.0 304.35 L0.0 12.65 Q0.0 7.45 3.7 3.7 7.4 0.0 12.6 0.0 L177.35 0.0 Q182.55 0.0 186.3 3.7 190.0 7.45 190.0 12.65" fill="#eaeaea" fill-rule="evenodd" stroke="none"/>
    <path d="M181.7 8.65 Q183.35 10.35 183.35 12.65 L183.35 304.35 Q183.35 306.7 181.7 308.35 180.05 310.0 177.7 310.0 L12.95 310.0 Q10.65 310.0 9.0 308.35 7.35 306.7 7.35 304.35 L7.35 12.65 Q7.35 10.3 9.0 8.65 10.65 7.0 12.95 7.0 L177.7 7.0 Q180.05 7.0 181.7 8.65" fill="#ffffff" fill-rule="evenodd" stroke="none"/>
    <path d="M12.95 310.25 Q10.65 310.25 9.0 308.6 7.35 306.95 7.35 304.6 L7.35 270.75 183.35 270.75 183.35 304.6 Q183.35 306.95 181.7 308.6 180.05 310.25 177.7 310.25 L12.95 310.25" fill="#9fd13f" fill-rule="evenodd" stroke="none"/>
    <path d="M183.35 12.65 L183.35 304.35 Q183.35 306.7 181.7 308.35 180.05 310.0 177.7 310.0 L12.95 310.0 Q10.65 310.0 9.0 308.35 7.35 306.7 7.35 304.35 L7.35 12.65 Q7.35 10.3 9.0 8.65 10.65 7.0 12.95 7.0 L177.7 7.0 Q180.05 7.0 181.7 8.65 183.35 10.35 183.35 12.65 Z" fill="none" stroke="#969696" stroke-linecap="butt" stroke-linejoin="miter-clip" stroke-miterlimit="10.0" stroke-width="1.0"/>
    <path d="M15.35 229.5 L175.35 229.5" fill="none" stroke="#969696" stroke-linecap="butt" stroke-linejoin="miter-clip" stroke-miterlimit="10.0" stroke-width="1.0"/>
    <path d="M57.85 270.5 L57.85 306.5 M116.85 270.5 L116.85 306.5" fill="none" stroke="#ffffff" stroke-linecap="butt" stroke-linejoin="miter-clip" stroke-miterlimit="10.0" stroke-width="1.2000000000000002"/>
  </g>
</svg>
