<?xml version="1.0" encoding="UTF-8" standalone="no"?>
<svg xmlns:ffdec="https://www.free-decompiler.com/flash" xmlns:xlink="http://www.w3.org/1999/xlink" ffdec:objectType="shape" height="573.3px" width="845.0px" xmlns="http://www.w3.org/2000/svg">
  <g transform="matrix(1.0, 0.0, 0.0, 1.0, 572.0, 319.3)">
    <path d="M-73.0 60.5 L-73.0 70.5 -63.0 70.5 -63.0 60.5 -73.0 60.5 M-288.0 128.7 L-288.0 172.7 -244.0 172.7 -244.0 128.7 -288.0 128.7 M-293.5 64.5 L-293.5 55.5 -302.5 55.5 -302.5 64.5 -293.5 64.5 M-293.8 -67.8 L-302.8 -67.8 -302.8 -58.8 -293.8 -58.8 -293.8 -67.8 M-244.0 -134.0 L-244.0 -178.0 -288.0 -178.0 -288.0 -134.0 -244.0 -134.0 M-63.0 -64.0 L-63.0 -74.0 -73.0 -74.0 -73.0 -64.0 -63.0 -64.0 M72.5 70.5 L72.5 60.5 62.5 60.5 62.5 70.5 72.5 70.5 M72.5 -64.0 L72.5 -74.0 62.5 -74.0 62.5 -64.0 72.5 -64.0 M72.7 -168.65 L72.7 -178.65 62.7 -178.65 62.7 -168.65 72.7 -168.65 M167.0 -168.0 L167.0 -178.0 147.0 -178.0 147.0 -168.0 167.0 -168.0 M-467.65 128.7 L-467.65 172.7 -423.65 172.7 -423.65 128.7 -467.65 128.7 M-411.0 64.7 L-411.0 55.7 -420.0 55.7 -420.0 64.7 -411.0 64.7 M-411.3 -67.65 L-420.3 -67.65 -420.3 -58.65 -411.3 -58.65 -411.3 -67.65 M-423.65 -134.0 L-423.65 -178.0 -467.65 -178.0 -467.65 -134.0 -423.65 -134.0 M-410.8 -242.15 L-410.8 -251.15 -419.8 -251.15 -419.8 -242.15 -410.8 -242.15 M-327.3 -319.3 L-327.3 -308.65 -300.65 -308.65 -300.65 -292.0 -296.0 -292.0 -296.0 -266.0 -300.65 -266.0 -300.65 -251.3 -302.3 -251.3 -302.3 -242.3 -293.3 -242.3 -293.3 -248.0 -240.35 -248.0 -240.35 -244.3 -223.3 -244.3 -223.3 -190.35 -240.35 -190.35 -240.35 -182.55 -223.3 -182.55 -223.3 -128.6 -240.35 -128.6 -240.35 -120.75 -223.3 -120.75 -223.3 -66.8 -240.35 -66.8 -240.35 -59.0 -159.5 -59.0 -159.5 -32.65 -152.0 -32.65 -152.0 -52.65 -129.5 -52.65 -129.5 -277.0 85.0 -277.0 85.0 -287.0 135.0 -287.0 135.0 -277.0 147.0 -277.0 147.0 -271.0 167.0 -271.0 167.0 -277.0 213.0 -277.0 213.0 -271.0 273.0 -271.0 273.0 -178.0 213.0 -178.0 213.0 -168.0 273.0 -168.0 273.0 -74.0 147.0 -74.0 147.0 -64.0 169.25 -64.0 169.25 -58.25 182.0 -58.25 182.0 -64.15 192.2 -64.15 192.2 61.0 182.55 61.0 182.55 53.5 169.0 53.5 169.0 61.0 147.0 61.0 147.0 72.0 273.0 72.0 273.0 165.0 147.0 165.0 147.0 168.7 134.35 168.7 134.35 179.35 106.35 179.35 106.35 168.7 75.35 168.7 75.35 128.0 -76.0 128.0 -76.0 169.0 -129.0 169.0 -129.0 49.35 -152.3 49.35 -152.3 27.35 -159.5 27.35 -159.5 57.5 -239.2 57.5 -239.2 65.35 -223.3 65.35 -223.3 116.85 -239.2 116.85 -239.2 124.7 -223.3 124.7 -223.3 179.5 -239.2 179.5 -239.2 187.35 -223.3 187.35 -223.3 239.5 -239.2 239.5 -239.2 244.7 -327.3 244.7 -327.3 254.0 -387.3 254.0 -387.3 244.7 -474.15 244.7 -474.15 239.5 -489.3 239.5 -489.3 187.35 -474.15 187.35 -474.15 179.5 -489.3 179.5 -489.3 124.7 -474.15 124.7 -474.15 116.85 -489.3 116.85 -489.3 65.35 -474.15 65.35 -474.15 57.5 -572.0 57.5 -572.0 -60.65 -474.15 -60.65 -474.15 -68.5 -489.3 -68.5 -489.3 -121.4 -474.15 -121.4 -474.15 -129.25 -489.3 -129.25 -489.3 -182.15 -474.15 -182.15 -474.15 -190.0 -489.3 -190.0 -489.3 -240.0 -490.65 -240.0 -490.65 -242.9 -474.15 -242.9 -474.15 -250.75 -490.65 -250.75 -490.65 -303.65 -474.15 -303.65 -474.15 -308.65 -387.3 -308.65 -387.3 -319.3 -327.3 -319.3" fill="#707070" fill-rule="evenodd" stroke="none"/>
    <path d="M-57.35 131.0 L-57.35 128.0 -76.0 128.0 -76.0 139.1 -73.5 139.1 -73.5 131.0 -57.35 131.0 M-2.0 110.85 L-2.0 128.0 -43.0 128.0 -43.0 131.0 -26.3 131.0 -26.3 152.35 -24.25 152.35 -24.25 131.0 24.25 131.0 24.25 152.5 26.15 152.5 26.15 130.75 72.95 130.75 72.95 195.5 26.0 195.5 26.0 178.25 24.25 178.25 24.25 189.1 -24.25 189.1 -24.25 178.85 -26.8 178.85 -26.8 181.5 -53.65 181.5 -53.65 161.35 -73.5 161.35 -73.5 153.75 -76.0 153.75 -76.0 164.0 -101.3 164.0 -101.3 110.85 -2.0 110.85" fill="#969696" fill-rule="evenodd" stroke="none"/>
    <path d="M26.15 133.0 L32.5 133.0 32.5 149.25 26.15 149.25 26.15 133.0" fill="#707070" fill-rule="evenodd" stroke="none"/>
    <path d="M17.75 133.2 L24.25 133.2 24.25 149.45 17.75 149.45 17.75 133.2" fill="#707070" fill-rule="evenodd" stroke="none"/>
    <path d="M-12.9 131.0 L11.5 131.0 11.5 142.35 -12.9 142.35 -12.9 131.0" fill="#707070" fill-rule="evenodd" stroke="none"/>
    <path d="M10.5 184.2 L10.5 189.1 -10.9 189.1 -10.9 184.2 10.5 184.2" fill="#707070" fill-rule="evenodd" stroke="none"/>
    <path d="M33.45 195.5 L33.45 189.85 46.0 189.85 46.0 195.5 33.45 195.5" fill="#707070" fill-rule="evenodd" stroke="none"/>
    <path d="M35.75 139.4 L35.75 131.0 63.65 131.0 63.65 139.4 35.75 139.4" fill="#707070" fill-rule="evenodd" stroke="none"/>
    <path d="M60.25 195.5 L60.25 189.35 66.0 189.35 66.0 195.5 60.25 195.5" fill="#707070" fill-rule="evenodd" stroke="none"/>
    <path d="M-17.8 136.85 L-24.25 136.85 -24.25 131.0 -17.8 131.0 -17.8 136.85" fill="#707070" fill-rule="evenodd" stroke="none"/>
    <path d="M-26.3 145.2 L-30.5 145.2 -30.5 131.0 -26.3 131.0 -26.3 145.2" fill="#707070" fill-rule="evenodd" stroke="none"/>
    <path d="M66.6 185.1 L66.6 145.0 72.95 145.0 72.95 185.1 66.6 185.1" fill="#707070" fill-rule="evenodd" stroke="none"/>
    <path d="M-27.95 176.5 L-27.95 181.5 -41.3 181.5 -41.3 176.5 -27.95 176.5" fill="#707070" fill-rule="evenodd" stroke="none"/>
    <path d="M39.35 110.85 L39.35 128.0 -2.0 128.0 -2.0 110.85 39.35 110.85" fill="#ffffff" fill-rule="evenodd" stroke="none"/>
  </g>
</svg>
