<?xml version="1.0" encoding="UTF-8" standalone="no"?>
<svg xmlns:ffdec="https://www.free-decompiler.com/flash" xmlns:xlink="http://www.w3.org/1999/xlink" ffdec:objectType="shape" height="321.6px" width="553.2px" xmlns="http://www.w3.org/2000/svg">
  <g transform="matrix(1.0, 0.0, 0.0, 1.0, 63.0, 156.25)">
    <path d="M128.15 -154.65 L150.85 -156.25 328.65 -156.25 351.3 -154.65 373.55 -149.85 394.95 -141.9 415.0 -131.0 433.4 -117.4 449.75 -101.3 463.75 -83.05 475.1 -62.95 483.65 -41.45 489.15 -19.0 490.2 5.0 489.15 28.05 483.65 50.55 475.1 72.05 463.75 92.1 449.75 110.35 433.4 126.45 415.0 140.1 394.95 150.95 373.55 158.9 351.3 163.7 328.65 165.35 150.85 165.35 128.15 163.7 105.9 158.9 84.55 150.95 64.45 140.1 46.05 126.45 29.7 110.35 15.7 92.1 4.35 72.05 -5.1 46.75 -63.0 46.75 -63.0 -53.25 0.5 -53.25 15.7 -83.05 29.7 -101.3 46.05 -117.4 64.45 -131.0 84.55 -141.9 105.9 -149.85 128.15 -154.65" fill="#434343" fill-rule="evenodd" stroke="none"/>
  </g>
</svg>
