<?xml version="1.0" encoding="UTF-8" standalone="no"?>
<svg xmlns:ffdec="https://www.free-decompiler.com/flash" xmlns:xlink="http://www.w3.org/1999/xlink" ffdec:objectType="shape" height="139.5px" width="650.6px" xmlns="http://www.w3.org/2000/svg">
  <g transform="matrix(1.0, 0.0, 0.0, 1.0, 18.9, 128.4)">
    <path d="M-14.8 -35.1 L17.5 -35.1 17.5 -34.6 21.3 -3.0 19.5 -3.0 20.7 11.1 -18.6 11.1 -17.0 -3.0 -18.9 -3.0 -14.8 -35.1" fill="#424242" fill-rule="evenodd" stroke="none"/>
    <path d="M377.4 -103.9 L378.1 -103.2 379.7 -103.4 417.4 -68.9 417.9 -68.6 422.0 -64.8 422.0 -64.1 422.5 -63.6 423.2 -63.7 427.4 -59.9 430.1 -58.2 438.3 -54.6 439.1 -53.9 438.8 -53.6 454.9 -39.3 454.7 -39.1 470.7 -24.9 474.9 -17.3 476.7 -14.8 495.1 2.3 539.1 0.5 541.3 -1.6 547.3 -1.8 Q548.5 -0.9 549.6 -0.1 L594.5 -1.8 606.3 -3.1 609.3 -4.5 610.9 -5.6 613.9 -8.7 615.1 -10.7 621.3 -24.0 621.8 -24.3 622.0 -25.2 621.3 -25.6 624.5 -34.4 631.7 -31.5 628.5 -23.1 627.7 -23.2 627.3 -22.3 627.5 -21.7 624.8 -11.5 622.0 -5.5 620.8 -3.6 619.3 -1.8 614.4 2.2 610.7 4.2 608.9 4.9 604.6 5.9 549.9 8.5 547.8 10.4 541.8 10.6 539.4 8.8 488.7 11.0 487.2 9.8 486.3 9.9 486.1 5.5 486.4 5.5 471.1 -8.3 469.1 -9.7 460.3 -13.5 444.7 -28.3 444.6 -28.0 428.9 -42.8 428.7 -42.5 427.9 -43.3 423.5 -51.0 421.5 -53.7 417.4 -57.6 417.5 -58.2 417.0 -58.6 416.9 -58.7 416.3 -58.6 412.1 -62.3 411.7 -62.8 379.3 -92.4 316.4 -89.6 316.1 -90.0 315.3 -90.0 315.0 -89.6 288.2 -88.3 286.1 -86.4 280.0 -86.1 277.6 -87.9 264.1 -87.3 262.0 -87.5 259.1 -88.1 255.0 -89.5 214.7 -117.3 190.2 -112.9 187.2 -111.8 179.5 -107.5 105.3 -94.3 94.8 -95.6 92.0 -95.7 75.5 -90.0 Q56.7 -80.4 37.9 -70.9 L23.3 -65.9 17.6 -64.9 17.1 -65.3 16.5 -65.1 16.1 -64.6 5.3 -62.1 1.5 -59.7 -1.1 -56.7 -2.8 -53.1 -3.4 -50.9 -4.0 -40.8 -3.7 -35.1 -1.3 -35.1 -1.3 -25.9 18.5 -25.9 21.3 -3.0 -18.9 -3.0 -14.8 -35.1 -12.6 -35.1 -12.4 -48.7 -12.2 -50.6 -10.5 -56.8 -9.7 -58.7 -6.1 -63.8 -4.7 -65.3 -1.0 -68.3 Q1.2 -69.3 3.3 -70.4 L14.7 -72.9 15.1 -72.5 15.8 -72.6 16.0 -73.0 26.7 -75.4 31.2 -77.0 68.3 -95.8 79.7 -100.9 94.0 -105.2 102.4 -109.6 176.8 -122.7 188.7 -121.1 209.0 -124.7 208.8 -124.8 211.3 -128.4 212.1 -127.9 213.8 -128.2 255.4 -99.1 258.6 -97.4 261.2 -96.4 263.4 -95.9 265.3 -95.8 277.3 -96.2 279.5 -98.3 285.6 -98.5 287.8 -96.8 314.6 -97.9 315.0 -97.4 315.8 -97.5 316.0 -97.9 374.6 -100.5 374.5 -100.7 377.4 -103.9" fill="#424242" fill-rule="evenodd" stroke="none"/>
    <path d="M377.9 -102.6 L379.7 -102.8 417.1 -68.5 417.6 -68.2 421.5 -64.5 421.5 -63.9 422.4 -63.1 423.1 -63.2 427.1 -59.5 437.9 -53.1 469.9 -24.2 473.9 -17.1 475.7 -14.6 494.7 3.0 539.8 1.1 542.0 -1.0 547.2 -1.2 549.5 0.8 602.2 -1.5 606.6 -2.6 609.6 -4.0 611.2 -5.1 612.7 -6.5 615.5 -10.0 617.1 -12.7 621.9 -23.9 622.5 -24.1 623.0 -25.6 622.3 -25.9 625.0 -33.5 630.8 -31.2 628.0 -23.9 627.2 -24.0 626.7 -22.7 626.8 -22.1 622.6 -8.0 621.7 -5.9 617.6 -1.2 614.2 1.4 610.4 3.4 607.0 4.6 604.4 5.0 549.8 7.5 547.7 9.4 542.1 9.7 539.8 7.8 489.2 10.4 487.9 9.3 487.6 5.6 471.5 -9.2 469.6 -10.5 Q465.2 -12.4 460.7 -14.4 L429.2 -44.0 421.8 -54.3 418.0 -57.7 418.1 -58.3 417.3 -59.1 416.7 -59.0 412.5 -62.6 412.1 -63.1 379.6 -93.1 316.7 -90.3 316.4 -90.7 315.0 -90.5 314.7 -90.2 287.8 -88.8 285.8 -86.9 280.5 -86.6 277.8 -88.7 264.4 -88.0 262.3 -88.2 259.4 -88.8 255.3 -90.2 214.6 -118.2 190.0 -113.9 187.1 -112.8 179.3 -108.4 105.1 -95.3 91.8 -96.5 75.4 -90.8 Q56.6 -81.2 37.7 -71.7 L23.1 -66.7 17.6 -65.7 17.2 -66.1 16.1 -65.9 15.8 -65.4 7.5 -63.7 4.6 -62.6 Q3.1 -61.6 1.6 -60.7 L-0.4 -58.7 -2.4 -55.8 -3.4 -53.8 -4.2 -51.1 -5.4 -40.6 -5.5 -37.3 -6.0 -36.7 -5.9 -35.5 -7.1 -29.8 -4.6 -27.5 -4.1 -27.5 -4.1 -26.7 -12.3 -26.7 -12.3 -27.7 -11.8 -27.7 -8.4 -30.3 -10.3 -35.6 -10.3 -36.8 -10.6 -37.3 -11.4 -50.7 -10.0 -56.3 -9.2 -58.2 -4.3 -64.8 -0.5 -67.8 3.6 -69.8 14.6 -72.1 15.1 -71.7 16.2 -71.9 16.4 -72.3 31.3 -76.2 68.4 -95.0 79.8 -100.1 94.1 -104.4 102.6 -108.8 176.9 -121.9 188.9 -120.3 209.2 -123.7 211.7 -127.3 213.8 -127.5 254.9 -98.5 258.1 -96.7 260.7 -95.7 262.9 -95.2 264.8 -95.1 277.5 -95.6 279.6 -97.6 285.3 -97.8 287.3 -96.3 314.3 -97.2 314.7 -96.8 316.3 -96.9 316.5 -97.3 375.3 -99.8 377.9 -102.6" fill="#959595" fill-rule="evenodd" stroke="none"/>
    <path d="M15.6 -65.7 L10.3 -64.8 9.2 -71.0 14.6 -71.9 15.6 -65.7" fill="#6f6f6f" fill-rule="evenodd" stroke="none"/>
    <path d="M314.5 -90.6 L309.1 -90.3 308.8 -96.6 314.3 -96.9 314.5 -90.6" fill="#6f6f6f" fill-rule="evenodd" stroke="none"/>
    <path d="M416.7 -59.5 L412.7 -63.3 417.1 -67.8 421.0 -64.1 416.7 -59.5" fill="#6f6f6f" fill-rule="evenodd" stroke="none"/>
    <path d="M152.1 -104.7 L143.2 -103.1 141.2 -114.4 150.1 -116.0 152.1 -104.7" fill="#6f6f6f" fill-rule="evenodd" stroke="none"/>
    <path d="M137.4 -102.1 L135.3 -101.8 133.3 -113.1 135.4 -113.4 137.4 -102.1" fill="#6f6f6f" fill-rule="evenodd" stroke="none"/>
    <path d="M154.2 -109.5 L127.1 -104.8 125.2 -105.4 125.1 -106.0 126.6 -107.3 153.7 -112.1 155.4 -111.3 155.5 -110.7 154.2 -109.5" fill="#424242" fill-rule="evenodd" stroke="none"/>
    <path d="M-5.9 -35.5 L-5.5 -34.2 -2.1 -34.2 -2.1 -32.7 15.2 -32.7 17.7 -4.9 11.5 -4.3 11.0 -10.6 -15.0 -10.8 -13.3 -32.5 -13.3 -34.2 -10.6 -34.2 -10.3 -35.6 -5.9 -35.5" fill="#6f6f6f" fill-rule="evenodd" stroke="none"/>
  </g>
</svg>
