<?xml version="1.0" encoding="UTF-8" standalone="no"?>
<svg xmlns:ffdec="https://www.free-decompiler.com/flash" xmlns:xlink="http://www.w3.org/1999/xlink" ffdec:objectType="shape" height="38.95px" width="38.5px" xmlns="http://www.w3.org/2000/svg">
  <g transform="matrix(1.0, 0.0, 0.0, 1.0, 0.0, 0.0)">
    <path d="M22.1 14.55 Q22.1 15.5 21.3 16.15 20.45 16.8 19.25 16.8 18.05 16.8 17.25 16.15 16.4 15.5 16.4 14.55 L16.4 2.25 Q16.4 1.3 17.25 0.65 18.05 0.0 19.25 0.0 20.45 0.0 21.3 0.65 22.1 1.3 22.1 2.25 L22.1 14.55" fill="#eb2427" fill-rule="evenodd" stroke="none"/>
    <path d="M24.65 1.25 Q30.75 3.05 34.6 8.1 38.5 13.2 38.5 19.7 38.5 27.7 32.85 33.3 27.2 38.95 19.25 38.95 11.3 38.95 5.65 33.3 0.0 27.7 0.0 19.7 0.0 13.2 3.95 8.1 7.75 3.05 13.85 1.25 L13.85 6.0 Q9.7 7.65 7.15 11.35 4.5 15.1 4.5 19.7 4.5 25.8 8.8 30.15 13.15 34.45 19.25 34.45 25.35 34.45 29.7 30.15 34.0 25.8 34.0 19.7 34.0 15.1 31.35 11.35 28.8 7.65 24.65 6.0 L24.65 1.25" fill="#eb2427" fill-rule="evenodd" stroke="none"/>
  </g>
</svg>
