<?xml version="1.0" encoding="UTF-8" standalone="no"?>
<svg xmlns:ffdec="https://www.free-decompiler.com/flash" xmlns:xlink="http://www.w3.org/1999/xlink" ffdec:objectType="shape" height="51.95px" width="58.25px" xmlns="http://www.w3.org/2000/svg">
  <g transform="matrix(1.0, 0.0, 0.0, 1.0, 28.1, 25.95)">
    <path d="M6.05 -22.35 L28.95 17.3 Q31.0 20.9 29.55 23.45 28.1 26.0 23.95 26.0 L-21.9 26.0 Q-26.05 26.0 -27.5 23.45 -28.95 20.9 -26.9 17.3 L-3.95 -22.35 Q-1.9 -25.95 1.05 -25.95 4.0 -25.95 6.05 -22.35" fill="#bd1f2a" fill-rule="evenodd" stroke="none"/>
    <path d="M4.0 -4.45 L2.4 10.45 -0.4 10.45 -2.0 -4.45 -2.0 -14.35 4.0 -14.35 4.0 -4.45 M4.2 19.95 L-2.2 19.95 -2.2 13.95 4.2 13.95 4.2 19.95" fill="#fefefe" fill-rule="evenodd" stroke="none"/>
  </g>
</svg>
