<?xml version="1.0" encoding="UTF-8" standalone="no"?>
<svg xmlns:ffdec="https://www.free-decompiler.com/flash" xmlns:xlink="http://www.w3.org/1999/xlink" ffdec:objectType="shape" height="19.15px" width="22.15px" xmlns="http://www.w3.org/2000/svg">
  <g transform="matrix(1.0, 0.0, 0.0, 1.0, 11.05, 9.55)">
    <path d="M-0.9 -5.8 L3.25 -6.8 2.15 -4.15 -2.65 -4.05 Q-3.9 -4.05 -4.7 -3.15 -5.5 -2.35 -5.5 -1.2 L-5.9 1.95 -6.5 2.4 Q-6.95 2.85 -7.2 3.6 L-10.65 3.65 -7.65 0.1 -11.05 -2.4 -7.55 -3.45 -9.2 -7.85 -4.7 -5.6 -2.9 -9.55 -0.9 -5.8" fill="#ffffff" fill-rule="evenodd" stroke="none"/>
    <path d="M7.5 -0.45 L7.5 -0.5 Q7.5 -1.05 6.95 -1.05 L-1.6 -0.9 Q-2.15 -0.9 -2.15 -0.35 L-2.15 -0.3 -2.55 2.25 8.0 2.1 7.5 -0.45 M7.95 -2.4 L8.7 -2.1 9.05 -1.25 9.8 3.15 9.9 3.15 Q10.4 3.15 10.75 3.45 L11.05 4.25 11.1 5.85 10.8 6.6 10.1 6.95 10.1 8.3 Q10.15 8.75 9.8 9.15 L9.0 9.5 8.55 9.5 7.7 9.15 Q7.4 8.85 7.4 8.35 L7.35 7.05 -1.8 7.15 -1.8 8.5 Q-1.8 9.0 -2.1 9.3 -2.4 9.6 -2.9 9.6 L-3.35 9.6 -4.15 9.3 Q-4.5 9.0 -4.5 8.5 L-4.5 7.2 Q-5.5 7.0 -5.5 6.05 L-5.55 4.5 -5.25 3.7 Q-4.9 3.3 -4.45 3.3 L-4.3 3.3 -3.7 -1.15 -3.4 -1.9 Q-3.05 -2.25 -2.6 -2.25 L7.95 -2.4" fill="#ffffff" fill-rule="evenodd" stroke="none"/>
  </g>
</svg>
