<?xml version="1.0" encoding="UTF-8" standalone="no"?>
<svg xmlns:ffdec="https://www.free-decompiler.com/flash" xmlns:xlink="http://www.w3.org/1999/xlink" ffdec:objectType="shape" height="18.15px" width="17.2px" xmlns="http://www.w3.org/2000/svg">
  <g transform="matrix(1.0, 0.0, 0.0, 1.0, 8.6, 9.05)">
    <path d="M0.95 -8.25 Q1.5 -8.25 2.2 -7.5 2.8 -6.8 2.45 -6.1 L1.95 -6.3 1.55 -6.35 1.35 -5.9 1.35 -5.55 Q1.45 -5.1 1.8 -4.75 L4.6 -4.75 3.7 -6.5 7.15 -9.05 8.45 -5.3 Q9.2 -0.95 6.7 2.3 4.2 5.55 1.85 7.65 L0.0 9.1 -1.85 7.65 Q-4.2 5.55 -6.7 2.3 -9.2 -0.95 -8.4 -5.3 L-7.1 -9.05 -3.7 -6.5 -4.6 -4.75 -1.8 -4.75 -1.65 -5.15 -1.65 -7.7 -1.1 -8.25 0.95 -8.25" fill="#ffffff" fill-rule="evenodd" stroke="none"/>
  </g>
</svg>
