<?xml version="1.0" encoding="UTF-8" standalone="no"?>
<svg xmlns:ffdec="https://www.free-decompiler.com/flash" xmlns:xlink="http://www.w3.org/1999/xlink" ffdec:objectType="shape" height="18.9px" width="18.7px" xmlns="http://www.w3.org/2000/svg">
  <g transform="matrix(1.0, 0.0, 0.0, 1.0, 9.35, 9.45)">
    <path d="M5.7 -2.5 L5.7 0.05 1.45 0.05 1.45 -2.5 -2.8 -2.5 -2.8 1.0 -7.05 1.0 -7.05 8.15 -9.35 8.15 -9.35 -9.45 -2.8 -9.45 -2.8 -5.95 1.45 -5.95 1.45 -9.45 5.7 -9.45 5.7 -5.95 1.45 -5.95 1.45 -2.5 5.7 -2.5 M7.0 2.75 L7.0 2.7 Q7.0 2.35 6.65 2.35 L0.9 2.35 Q0.55 2.35 0.55 2.7 L0.55 2.75 0.2 4.45 7.3 4.45 7.0 2.75 M7.3 1.4 Q8.05 1.4 8.05 2.2 L8.5 5.15 8.55 5.15 Q9.35 5.15 9.35 5.95 L9.35 7.0 Q9.35 7.65 8.65 7.75 L8.65 8.65 Q8.65 9.45 7.9 9.45 L7.6 9.45 Q6.85 9.45 6.85 8.65 L6.85 7.8 0.7 7.8 0.7 8.65 Q0.7 9.45 -0.1 9.45 L-0.35 9.45 Q-1.15 9.45 -1.15 8.65 L-1.15 7.75 Q-1.8 7.65 -1.8 7.0 L-1.8 5.95 Q-1.8 5.15 -1.05 5.15 L-0.95 5.15 -0.55 2.2 Q-0.55 1.4 0.25 1.4 L7.3 1.4 M-2.8 -5.95 L-7.1 -5.95 -7.1 -2.5 -2.8 -2.5 -2.8 -5.95" fill="#ffffff" fill-rule="evenodd" stroke="none"/>
  </g>
</svg>
