<?xml version="1.0" encoding="UTF-8" standalone="no"?>
<svg xmlns:ffdec="https://www.free-decompiler.com/flash" xmlns:xlink="http://www.w3.org/1999/xlink" ffdec:objectType="shape" height="19.2px" width="20.15px" xmlns="http://www.w3.org/2000/svg">
  <g transform="matrix(1.0, 0.0, 0.0, 1.0, 10.05, 9.6)">
    <path d="M-7.8 -2.6 L-3.5 -2.6 -3.5 0.85 -7.8 0.85 -7.8 8.05 -10.05 8.05 -10.05 -9.6 -3.5 -9.6 -3.5 -6.1 -7.8 -6.1 -7.8 -2.6 M6.5 5.2 Q7.9 5.2 8.9 4.35 9.95 5.5 10.1 7.2 L10.1 9.6 2.9 9.6 2.9 7.3 Q3.05 5.55 4.15 4.35 5.15 5.2 6.5 5.2 M6.5 -0.8 Q7.45 -0.8 8.1 -0.15 8.75 0.5 8.75 1.45 8.75 2.4 8.1 3.05 7.45 3.7 6.5 3.7 5.55 3.7 4.9 3.05 4.25 2.4 4.25 1.45 4.25 0.5 4.9 -0.15 5.55 -0.8 6.5 -0.8 M0.75 -2.6 L5.05 -2.6 5.05 -2.0 Q3.1 -1.2 2.8 0.85 L0.75 0.85 0.75 -2.6 -3.5 -2.6 -3.5 -6.1 0.75 -6.1 0.75 -2.6 M0.75 -9.6 L5.05 -9.6 5.05 -6.1 0.75 -6.1 0.75 -9.6" fill="#ffffff" fill-rule="evenodd" stroke="none"/>
  </g>
</svg>
