<?xml version="1.0" encoding="UTF-8" standalone="no"?>
<svg xmlns:ffdec="https://www.free-decompiler.com/flash" xmlns:xlink="http://www.w3.org/1999/xlink" ffdec:objectType="shape" height="11.35px" width="17.55px" xmlns="http://www.w3.org/2000/svg">
  <g transform="matrix(1.0, 0.0, 0.0, 1.0, 8.75, 5.65)">
    <path d="M1.2 3.9 L1.3 4.3 1.3 4.35 1.2 4.8 Q0.95 5.5 0.25 5.65 L-0.05 5.7 Q-0.95 5.7 -1.3 4.8 L-1.4 4.45 -1.4 4.35 -1.3 3.9 -0.9 3.3 -0.05 3.0 0.1 3.05 Q0.95 3.15 1.2 3.9 M6.75 3.9 Q6.75 2.4 6.0 0.9 L7.15 -1.2 Q8.75 1.1 8.75 3.9 L8.8 4.8 3.0 4.8 4.0 3.9 6.75 3.9 M7.05 -5.65 L7.6 -5.25 3.6 2.15 2.3 3.35 Q1.8 2.25 0.6 1.9 L1.25 0.5 7.05 -5.65 M0.0 -4.85 Q1.9 -4.85 3.55 -4.1 L2.0 -2.55 0.0 -2.85 Q-2.8 -2.85 -4.75 -0.9 -6.75 1.1 -6.75 3.9 L-2.55 3.9 -2.6 4.35 -2.55 4.8 -8.75 4.8 -8.75 3.9 Q-8.75 0.25 -6.2 -2.3 -3.65 -4.85 0.0 -4.85" fill="#ffffff" fill-rule="evenodd" stroke="none"/>
  </g>
</svg>
