<?xml version="1.0" encoding="UTF-8" standalone="no"?>
<svg xmlns:ffdec="https://www.free-decompiler.com/flash" xmlns:xlink="http://www.w3.org/1999/xlink" ffdec:objectType="shape" height="16.15px" width="13.8px" xmlns="http://www.w3.org/2000/svg">
  <g transform="matrix(1.0, 0.0, 0.0, 1.0, 6.4, 7.55)">
    <path d="M-4.3 2.0 L-4.3 8.6 -6.4 8.6 -6.4 -7.55 7.4 -7.55 7.4 2.0 -4.3 2.0 M1.1 -3.35 L0.75 -2.35 -0.2 -2.35 0.05 -3.35 1.1 -3.35 M1.35 -1.6 L1.45 -1.85 1.9 -3.35 5.2 -3.35 5.2 -3.95 6.3 -3.95 6.3 -5.55 5.9 -5.55 5.9 -6.0 5.2 -6.0 5.2 -5.55 -3.1 -5.55 -3.1 -4.2 -3.45 -4.2 -3.45 -3.35 -3.05 -3.35 -4.1 0.55 -1.0 0.55 -0.4 -1.6 1.35 -1.6" fill="#ffffff" fill-rule="evenodd" stroke="none"/>
  </g>
</svg>
