<?xml version="1.0" encoding="UTF-8" standalone="no"?>
<svg xmlns:ffdec="https://www.free-decompiler.com/flash" xmlns:xlink="http://www.w3.org/1999/xlink" ffdec:objectType="shape" height="14.0px" width="16.0px" xmlns="http://www.w3.org/2000/svg">
  <g transform="matrix(1.0, 0.0, 0.0, 1.0, 8.0, 7.0)">
    <path d="M-0.1 2.2 Q-0.1 2.6 -0.4 2.85 -0.65 3.15 -1.05 3.15 L-1.75 2.85 -2.0 2.2 Q-2.0 1.25 -1.05 1.25 -0.65 1.25 -0.4 1.5 -0.1 1.8 -0.1 2.2 M-1.95 -2.15 L-1.65 -2.85 -1.0 -3.15 Q-0.6 -3.15 -0.3 -2.85 0.0 -2.55 0.0 -2.15 0.0 -1.75 -0.3 -1.5 -0.6 -1.2 -1.0 -1.2 -1.35 -1.2 -1.65 -1.5 L-1.95 -2.15 M-3.85 -0.7 L-3.2 -1.0 -2.5 -0.7 Q-2.25 -0.45 -2.25 -0.05 -2.25 0.9 -3.2 0.9 L-3.85 0.65 -4.15 -0.05 -3.85 -0.7 M5.65 -6.1 L5.7 -6.0 Q8.0 -3.45 8.0 0.0 8.0 3.35 5.75 6.0 L5.25 6.55 3.5 5.35 Q1.45 7.0 -1.0 7.0 -3.9 7.0 -5.95 4.95 -8.0 2.9 -8.0 0.0 -8.0 -2.9 -5.95 -4.95 -3.9 -7.0 -1.0 -7.0 1.55 -7.0 3.5 -5.3 L5.2 -6.6 5.65 -6.1 M5.6 -4.95 L5.55 -5.0 5.1 -5.55 3.35 -4.25 3.35 4.35 5.1 5.55 5.15 5.55 5.6 5.0 5.6 4.95 6.0 4.4 6.35 3.75 6.45 3.65 6.65 3.05 6.75 2.9 6.95 2.35 7.25 0.8 7.25 -0.8 7.0 -2.05 6.65 -3.1 6.05 -4.35 6.0 -4.4 5.6 -4.95 M0.5 -0.65 L1.15 -0.9 Q2.1 -0.9 2.1 0.05 L1.85 0.7 1.15 1.0 Q0.8 1.0 0.5 0.7 0.2 0.45 0.2 0.05 0.2 -0.35 0.5 -0.65 M2.6 -0.95 Q2.3 -2.15 1.3 -2.95 0.3 -3.75 -1.0 -3.75 -2.6 -3.75 -3.7 -2.65 -4.8 -1.55 -4.8 0.0 -4.8 1.55 -3.7 2.65 -2.6 3.75 -1.0 3.75 0.3 3.75 1.3 2.95 2.3 2.15 2.6 0.95 L2.6 -0.95" fill="#ffffff" fill-rule="evenodd" stroke="none"/>
  </g>
</svg>
