<?xml version="1.0" encoding="UTF-8" standalone="no"?>
<svg xmlns:ffdec="https://www.free-decompiler.com/flash" xmlns:xlink="http://www.w3.org/1999/xlink" ffdec:objectType="shape" height="15.7px" width="15.65px" xmlns="http://www.w3.org/2000/svg">
  <g transform="matrix(1.0, 0.0, 0.0, 1.0, 0.0, 0.0)">
    <path d="M8.3 14.75 L9.05 14.65 Q10.5 12.75 11.05 10.8 L8.3 10.8 8.3 14.75 M7.35 10.8 L4.45 10.8 Q5.15 12.95 6.45 14.65 L7.35 14.75 7.35 10.8 M7.35 9.85 L7.35 5.85 4.35 5.85 Q3.9 7.95 4.25 9.85 L7.35 9.85 M3.55 10.8 L1.55 10.8 Q2.65 13.1 5.05 14.2 3.95 12.5 3.55 10.8 M3.45 5.85 L1.2 5.85 Q0.9 6.85 0.9 7.85 0.9 8.9 1.2 9.85 L3.35 9.85 Q3.05 7.95 3.45 5.85 M1.55 4.95 L3.65 4.95 Q4.1 3.25 5.1 1.5 2.75 2.5 1.55 4.95 M7.35 0.95 L6.45 1.1 Q5.25 2.55 4.55 4.95 L7.35 4.95 7.35 0.95 M9.05 1.05 L8.3 0.95 8.3 4.95 10.95 4.95 Q10.25 2.5 9.05 1.05 M13.35 2.3 Q15.65 4.6 15.65 7.85 15.65 11.1 13.35 13.4 11.05 15.7 7.8 15.7 4.55 15.7 2.3 13.4 0.0 11.1 0.0 7.85 0.0 4.6 2.3 2.3 4.6 0.0 7.8 0.0 11.05 0.0 13.35 2.3 M11.25 9.85 Q11.65 7.95 11.2 5.85 L8.3 5.85 8.3 9.85 11.25 9.85 M14.1 10.8 L12.0 10.8 Q11.5 12.65 10.45 14.25 12.9 13.25 14.1 10.8 M14.45 5.85 L12.1 5.85 Q12.45 8.05 12.2 9.85 L14.45 9.85 14.75 7.85 14.45 5.85 M11.85 4.95 L14.1 4.95 Q12.95 2.5 10.4 1.45 11.4 3.2 11.85 4.95" fill="#ffffff" fill-rule="evenodd" stroke="none"/>
  </g>
</svg>
