<?xml version="1.0" encoding="UTF-8" standalone="no"?>
<svg xmlns:ffdec="https://www.free-decompiler.com/flash" xmlns:xlink="http://www.w3.org/1999/xlink" ffdec:objectType="shape" height="24.9px" width="24.0px" xmlns="http://www.w3.org/2000/svg">
  <g transform="matrix(1.0, 0.0, 0.0, 1.0, 0.0, 0.0)">
    <path d="M0.45 21.65 L2.85 24.0 12.0 14.8 21.2 24.0 23.55 21.6 24.0 22.05 21.2 24.9 12.0 15.7 2.85 24.9 0.0 22.1 0.45 21.65 M15.3 12.4 L14.85 11.95 23.55 3.2 24.0 3.65 15.3 12.4 M0.45 3.2 L9.2 11.95 8.75 12.4 0.0 3.65 0.45 3.2" fill="#000000" fill-rule="evenodd" stroke="none"/>
    <path d="M23.55 21.6 L21.2 24.0 12.0 14.8 2.85 24.0 0.45 21.65 0.0 21.2 8.75 12.4 9.2 11.95 0.45 3.2 0.0 2.75 2.8 0.0 12.0 9.15 21.2 0.0 24.0 2.75 23.55 3.2 14.85 11.95 15.3 12.4 24.0 21.15 23.55 21.6" fill="#999999" fill-rule="evenodd" stroke="none"/>
  </g>
</svg>
