<?xml version="1.0" encoding="UTF-8" standalone="no"?>
<svg xmlns:ffdec="https://www.free-decompiler.com/flash" xmlns:xlink="http://www.w3.org/1999/xlink" ffdec:objectType="shape" height="158.55px" width="202.5px" xmlns="http://www.w3.org/2000/svg">
  <g transform="matrix(1.0, 0.0, 0.0, 1.0, 4.8, 140.2)">
    <path d="M197.7 -140.2 L197.7 18.35 -4.8 18.35 -4.8 -140.2 197.7 -140.2" fill="#424242" fill-rule="evenodd" stroke="none"/>
    <path d="M52.2 -132.7 L52.2 -129.2 60.2 -129.2 60.2 -132.7 100.2 -132.7 100.2 -129.2 120.7 -129.2 120.7 -132.7 189.2 -132.7 189.2 -60.15 118.7 -60.15 118.7 -82.65 120.7 -82.65 120.7 -88.65 88.7 -88.65 88.7 -80.65 47.2 -80.65 Q46.7 -78.65 45.7 -76.65 L45.7 -75.15 56.2 -75.15 56.2 -43.15 40.2 -43.15 40.2 -41.15 56.2 -41.15 56.2 -40.15 86.2 -40.15 86.2 -43.65 133.7 -43.65 133.7 -40.15 136.2 -40.15 136.2 -25.65 138.7 -25.65 138.7 -40.15 141.2 -40.15 141.2 -43.65 185.7 -43.65 185.7 -40.15 188.7 -40.15 188.7 -0.15 185.7 -0.15 185.7 3.35 141.7 3.35 141.7 -0.15 138.7 -0.15 138.7 -12.65 136.2 -12.65 136.2 -0.15 133.7 -0.15 133.7 3.35 119.7 3.35 119.7 9.85 115.2 9.85 115.2 3.35 105.2 3.35 105.2 9.85 101.2 9.85 101.2 3.35 86.2 3.35 86.2 -0.15 56.2 -0.15 56.2 10.85 9.2 10.85 9.2 -0.15 2.2 -0.15 2.2 -40.15 9.2 -40.15 9.2 -41.15 25.2 -41.15 25.2 -43.15 9.2 -43.15 9.2 -75.15 18.7 -75.15 17.2 -80.65 9.2 -80.65 9.2 -129.2 12.2 -129.2 12.2 -132.7 52.2 -132.7" fill="#959595" fill-rule="evenodd" stroke="none"/>
    <path d="M22.7 10.85 L22.7 -0.15 43.2 -0.15 43.2 10.85 22.7 10.85" fill="#6f6f6f" fill-rule="evenodd" stroke="none"/>
    <path d="M28.7 -6.65 L29.7 -8.65 Q30.7 -8.65 31.2 -9.15 L33.2 -9.15 34.7 -8.15 35.7 -6.65 37.2 -3.15 37.2 -1.15 27.7 -1.15 27.7 -3.15 28.7 -6.65" fill="#6f6f6f" fill-rule="evenodd" stroke="none"/>
    <path d="M161.7 -105.2 L163.2 -103.7 Q163.7 -102.7 163.7 -101.7 163.2 -99.2 162.2 -96.7 161.2 -95.7 160.2 -95.2 L153.2 -101.7 154.7 -103.7 Q156.7 -104.2 158.2 -105.2 159.2 -105.2 160.2 -105.7 161.2 -105.2 161.7 -105.2" fill="#6f6f6f" fill-rule="evenodd" stroke="none"/>
    <path d="M164.7 -28.15 L173.2 -28.15 173.2 -11.15 164.7 -11.15 164.7 -28.15" fill="#6f6f6f" fill-rule="evenodd" stroke="none"/>
    <path d="M101.7 -88.65 L101.7 -94.7 108.2 -94.7 108.2 -88.65 101.7 -88.65" fill="#6f6f6f" fill-rule="evenodd" stroke="none"/>
    <path d="M142.7 -88.15 L163.7 -88.15 163.7 -60.15 156.2 -60.15 156.2 -78.65 142.7 -78.65 142.7 -88.15" fill="#6f6f6f" fill-rule="evenodd" stroke="none"/>
    <path d="M120.2 -60.15 L120.2 -66.65 137.7 -66.65 137.7 -60.15 120.2 -60.15" fill="#6f6f6f" fill-rule="evenodd" stroke="none"/>
    <path d="M122.7 -81.65 L122.7 -77.15 118.7 -77.15 118.7 -81.65 122.7 -81.65" fill="#6f6f6f" fill-rule="evenodd" stroke="none"/>
    <path d="M189.2 -132.7 L189.2 -60.15 142.2 -60.15 142.2 -88.15 164.2 -88.15 164.2 -107.2 139.2 -107.2 139.2 -132.7 189.2 -132.7" fill="#ffffff" fill-rule="evenodd" stroke="none"/>
  </g>
</svg>
