<?xml version="1.0" encoding="UTF-8" standalone="no"?>
<svg xmlns:ffdec="https://www.free-decompiler.com/flash" xmlns:xlink="http://www.w3.org/1999/xlink" ffdec:objectType="shape" height="250.0px" width="369.0px" xmlns="http://www.w3.org/2000/svg">
  <g transform="matrix(1.0, 0.0, 0.0, 1.0, 172.4, 137.75)">
    <path d="M176.6 112.25 L133.6 112.25 133.6 99.25 176.6 99.25 176.6 112.25" fill="#6f6f6f" fill-rule="evenodd" stroke="none"/>
    <path d="M-172.4 61.75 L-172.4 -137.75 196.6 -137.75 196.6 112.25 174.1 112.25 174.1 103.25 137.6 103.25 137.6 112.25 -121.4 112.25 -126.9 107.25 -128.4 108.25 -131.9 108.25 Q-135.9 103.75 -140.4 99.25 L-147.9 86.75 Q-153.4 84.25 -158.9 81.25 L-167.9 72.25 -168.9 68.75 Q-167.9 67.75 -167.4 66.75 L-172.4 61.75" fill="#424242" fill-rule="evenodd" stroke="none"/>
    <path d="M188.1 -130.25 L188.1 -57.75 141.1 -57.75 141.1 -85.75 163.1 -85.75 163.1 -104.75 138.1 -104.75 138.1 -130.25 188.1 -130.25" fill="#ffffff" fill-rule="evenodd" stroke="none"/>
    <path d="M8.1 57.25 L8.1 46.75 -11.9 46.75 -11.9 57.25 8.1 57.25 M67.6 57.25 L67.6 46.75 48.1 46.75 48.1 57.25 67.6 57.25 M-106.9 -8.25 L-116.9 -8.25 -116.9 1.75 -123.9 1.75 -123.9 11.75 -116.4 11.75 -74.9 53.25 -71.9 56.75 -71.9 64.75 -61.4 64.75 -61.4 57.25 -51.9 57.25 -51.9 46.75 -61.4 46.75 -68.9 39.75 -73.9 44.75 -103.9 14.25 -98.9 9.75 -106.9 1.75 -106.9 -8.25 M59.6 -127.75 L59.6 -130.25 111.1 -130.25 111.1 -127.75 116.1 -127.75 116.1 -87.75 119.1 -87.75 119.1 -105.25 141.1 -105.25 141.1 -57.75 119.1 -57.75 119.1 -76.75 116.1 -76.75 116.1 -60.25 111.1 -60.25 111.1 -58.25 108.6 -58.25 108.6 -52.75 82.6 -52.75 82.6 -49.25 108.6 -49.25 108.6 -48.25 118.1 -48.25 118.1 -20.25 120.6 -20.25 120.6 -13.25 123.1 -13.25 123.1 -48.25 188.1 -48.25 188.1 46.75 168.6 46.75 168.6 57.25 188.1 57.25 188.1 94.75 168.6 94.75 168.6 97.75 142.6 97.75 142.6 94.75 123.1 94.75 123.1 57.25 142.6 57.25 142.6 46.75 123.1 46.75 123.1 12.25 120.6 12.25 120.6 19.75 118.6 19.75 118.6 46.75 108.1 46.75 108.1 57.25 118.6 57.25 118.6 96.75 108.1 96.75 108.1 103.25 68.1 103.25 68.1 96.75 48.1 96.75 48.1 103.25 8.1 103.25 8.1 96.75 -11.9 96.75 -11.9 103.25 -51.9 103.25 -51.9 96.75 -61.4 96.75 -61.4 90.75 -71.9 90.75 -71.9 103.25 -111.9 103.25 -111.9 96.75 -117.4 96.75 -122.4 92.25 -123.4 93.25 -129.4 87.75 -130.4 88.75 -148.9 70.25 -147.9 69.25 Q-150.4 66.25 -153.4 63.25 L-152.4 62.25 -156.9 57.75 -156.9 51.25 -162.9 51.25 -162.9 11.75 -149.9 11.75 -149.9 1.75 -156.9 1.75 -156.9 -8.25 -162.9 -8.25 -162.9 -48.25 -156.9 -48.25 -156.9 -55.25 -143.4 -55.25 -143.4 -59.25 -156.9 -59.25 -156.9 -84.25 -137.9 -84.25 -137.9 -108.25 -110.9 -108.25 -110.9 -59.25 -130.4 -59.25 -130.4 -55.25 -116.9 -55.25 -116.9 -45.25 -106.9 -45.25 -106.9 -48.25 67.1 -48.25 67.1 -52.75 63.6 -52.75 63.6 -58.75 -104.9 -58.75 -104.9 -64.25 -106.9 -64.25 -106.9 -121.75 -104.9 -121.75 -104.9 -130.25 -61.4 -130.25 -61.4 -127.75 -41.9 -127.75 -41.9 -130.25 -6.4 -130.25 -6.4 -127.75 11.6 -127.75 11.6 -130.25 51.6 -130.25 51.6 -127.75 59.6 -127.75" fill="#959595" fill-rule="evenodd" stroke="none"/>
    <path d="M-133.9 92.25 L-152.4 74.25 Q-150.4 72.25 -148.9 70.25 L-130.4 88.75 Q-131.9 90.75 -133.9 92.25" fill="#ffffff" fill-rule="evenodd" stroke="none"/>
    <path d="M168.6 103.25 L142.6 103.25 142.6 97.75 168.6 97.75 168.6 103.25" fill="#ffffff" fill-rule="evenodd" stroke="none"/>
    <path d="M-152.4 74.25 L-133.9 92.25 -140.4 99.25 -158.9 81.25 -152.4 74.25" fill="#6f6f6f" fill-rule="evenodd" stroke="none"/>
    <path d="M68.6 -119.25 L66.6 -120.25 66.1 -122.75 67.1 -124.75 Q68.6 -124.75 69.6 -125.25 L71.6 -124.25 72.6 -121.75 71.1 -119.75 Q70.1 -119.25 68.6 -119.25" fill="#6f6f6f" fill-rule="evenodd" stroke="none"/>
    <path d="M-8.4 -85.25 L-29.9 -85.25 -29.9 -108.25 -8.4 -108.25 -8.4 -85.25" fill="#6f6f6f" fill-rule="evenodd" stroke="none"/>
    <path d="M-58.9 -85.25 L-80.4 -85.25 -80.4 -108.25 -58.9 -108.25 -58.9 -85.25" fill="#6f6f6f" fill-rule="evenodd" stroke="none"/>
    <path d="M-15.9 -123.25 L-39.9 -123.25 -39.9 -128.75 -15.9 -128.75 -15.9 -123.25" fill="#6f6f6f" fill-rule="evenodd" stroke="none"/>
    <path d="M-1.9 -119.25 L-11.4 -119.25 -11.4 -126.75 -1.9 -126.75 -1.9 -119.25" fill="#6f6f6f" fill-rule="evenodd" stroke="none"/>
    <path d="M-42.4 -123.25 L-46.4 -123.25 -46.4 -126.75 -42.4 -126.75 -42.4 -123.25" fill="#6f6f6f" fill-rule="evenodd" stroke="none"/>
    <path d="M-68.4 -122.75 L-93.4 -122.75 -93.4 -128.75 -68.4 -128.75 -68.4 -122.75" fill="#6f6f6f" fill-rule="evenodd" stroke="none"/>
    <path d="M-106.9 -80.75 L-106.9 -106.25 -100.4 -106.25 -100.4 -80.75 -106.9 -80.75" fill="#6f6f6f" fill-rule="evenodd" stroke="none"/>
    <path d="M-157.4 -8.25 L-160.4 -8.25 -160.4 -48.25 -157.4 -48.25 -157.4 -8.25" fill="#6f6f6f" fill-rule="evenodd" stroke="none"/>
    <path d="M-157.4 51.25 L-160.4 51.25 -160.4 11.75 -157.4 11.75 -157.4 51.25" fill="#6f6f6f" fill-rule="evenodd" stroke="none"/>
    <path d="M108.1 98.75 L108.1 101.75 68.1 101.75 68.1 98.75 108.1 98.75" fill="#6f6f6f" fill-rule="evenodd" stroke="none"/>
    <path d="M48.1 98.75 L48.1 101.75 8.1 101.75 8.1 98.75 48.1 98.75" fill="#6f6f6f" fill-rule="evenodd" stroke="none"/>
    <path d="M-11.9 98.75 L-11.9 101.75 -51.9 101.75 -51.9 98.75 -11.9 98.75" fill="#6f6f6f" fill-rule="evenodd" stroke="none"/>
    <path d="M-111.9 98.75 L-71.9 98.75 -71.9 101.75 -111.9 101.75 -111.9 98.75" fill="#6f6f6f" fill-rule="evenodd" stroke="none"/>
    <path d="M-2.9 57.25 L0.1 57.25 0.1 96.75 -2.9 96.75 -2.9 57.25" fill="#6f6f6f" fill-rule="evenodd" stroke="none"/>
    <path d="M-55.4 -52.75 L-100.9 -52.75 -100.9 -58.75 -55.4 -58.75 -55.4 -52.75" fill="#6f6f6f" fill-rule="evenodd" stroke="none"/>
    <path d="M-54.9 -48.25 L-100.9 -48.25 -100.9 -50.25 -54.9 -50.25 -54.9 -48.25" fill="#6f6f6f" fill-rule="evenodd" stroke="none"/>
    <path d="M-0.4 -52.75 L-45.9 -52.75 -45.9 -58.75 -0.4 -58.75 -0.4 -52.75" fill="#6f6f6f" fill-rule="evenodd" stroke="none"/>
    <path d="M0.1 -48.25 L-45.9 -48.25 -45.9 -50.25 0.1 -50.25 0.1 -48.25" fill="#6f6f6f" fill-rule="evenodd" stroke="none"/>
    <path d="M54.6 -52.75 L9.1 -52.75 9.1 -58.75 54.6 -58.75 54.6 -52.75" fill="#6f6f6f" fill-rule="evenodd" stroke="none"/>
    <path d="M55.1 -48.25 L9.1 -48.25 9.1 -50.25 55.1 -50.25 55.1 -48.25" fill="#6f6f6f" fill-rule="evenodd" stroke="none"/>
    <path d="M118.6 32.25 L108.6 32.25 108.6 22.25 118.6 22.25 118.6 32.25" fill="#6f6f6f" fill-rule="evenodd" stroke="none"/>
    <path d="M118.6 44.75 L108.6 44.75 108.6 34.75 118.6 34.75 118.6 44.75" fill="#6f6f6f" fill-rule="evenodd" stroke="none"/>
    <path d="M101.6 75.75 L75.6 75.75 75.6 62.25 101.6 62.25 101.6 75.75" fill="#6f6f6f" fill-rule="evenodd" stroke="none"/>
    <path d="M41.6 76.25 L15.1 76.25 15.1 62.25 41.6 62.25 41.6 76.25" fill="#6f6f6f" fill-rule="evenodd" stroke="none"/>
    <path d="M62.1 46.75 L56.1 46.75 56.1 42.75 62.1 42.75 62.1 46.75" fill="#6f6f6f" fill-rule="evenodd" stroke="none"/>
    <path d="M-11.9 48.75 L-11.9 54.75 -15.9 54.75 -15.9 48.75 -11.9 48.75" fill="#6f6f6f" fill-rule="evenodd" stroke="none"/>
    <path d="M84.1 54.25 L86.6 57.25 Q87.1 58.25 87.1 59.25 82.6 60.75 77.6 61.75 L77.1 59.25 Q77.6 57.75 77.6 55.75 78.1 55.25 78.1 54.25 79.1 53.75 79.6 52.75 80.6 52.75 81.1 52.25 82.1 52.75 83.1 52.75 L84.1 54.25" fill="#6f6f6f" fill-rule="evenodd" stroke="none"/>
    <path d="M98.1 54.25 L98.1 55.75 99.1 59.25 Q99.1 60.75 98.6 61.75 L89.1 59.25 Q89.6 58.25 89.6 57.25 L92.6 52.75 94.6 52.25 96.6 52.75 98.1 54.25" fill="#6f6f6f" fill-rule="evenodd" stroke="none"/>
    <path d="M24.1 54.25 L26.6 57.25 Q27.1 58.25 27.1 59.25 22.6 60.75 17.6 61.75 L17.1 59.25 Q17.6 57.75 17.6 55.75 18.1 55.25 18.1 54.25 19.1 53.75 19.6 52.75 20.6 52.75 21.1 52.25 22.1 52.75 23.1 52.75 L24.1 54.25" fill="#6f6f6f" fill-rule="evenodd" stroke="none"/>
    <path d="M38.1 54.25 L38.1 55.75 39.1 59.25 Q39.1 60.75 38.6 61.75 L29.1 59.25 Q29.6 58.25 29.6 57.25 L32.6 52.75 34.6 52.25 36.6 52.75 38.1 54.25" fill="#6f6f6f" fill-rule="evenodd" stroke="none"/>
    <path d="M66.6 96.75 L61.6 96.75 61.6 93.25 66.6 93.25 66.6 96.75" fill="#6f6f6f" fill-rule="evenodd" stroke="none"/>
    <path d="M-112.4 15.75 L-74.9 53.25 -77.9 56.75 -115.9 18.75 -112.4 15.75" fill="#6f6f6f" fill-rule="evenodd" stroke="none"/>
    <path d="M-25.9 -4.75 L-25.9 4.75 -50.9 4.75 -50.9 -4.75 -25.9 -4.75" fill="#6f6f6f" fill-rule="evenodd" stroke="none"/>
    <path d="M77.1 -4.75 L77.1 4.75 52.1 4.75 52.1 -4.75 77.1 -4.75" fill="#6f6f6f" fill-rule="evenodd" stroke="none"/>
    <path d="M170.1 -38.75 L145.1 -38.75 145.1 -48.25 170.1 -48.25 170.1 -38.75" fill="#6f6f6f" fill-rule="evenodd" stroke="none"/>
    <path d="M188.1 -26.25 L188.1 26.25 182.6 26.25 182.6 -26.25 188.1 -26.25" fill="#6f6f6f" fill-rule="evenodd" stroke="none"/>
    <path d="M-67.4 37.25 Q-70.4 40.75 -73.9 44.25 L-81.9 36.25 -74.9 29.75 -67.4 37.25" fill="#6f6f6f" fill-rule="evenodd" stroke="none"/>
    <path d="M-76.9 26.25 L-83.9 33.25 -91.4 25.75 Q-87.9 22.25 -84.9 18.75 L-76.9 26.25" fill="#6f6f6f" fill-rule="evenodd" stroke="none"/>
    <path d="M-88.4 14.75 L-95.4 21.75 -102.9 13.75 -95.9 7.25 -88.4 14.75" fill="#6f6f6f" fill-rule="evenodd" stroke="none"/>
    <path d="M130.6 -45.25 Q129.1 -42.75 127.1 -40.75 L124.6 -43.25 128.6 -47.25 130.6 -45.25" fill="#6f6f6f" fill-rule="evenodd" stroke="none"/>
    <path d="M8.6 -8.25 Q7.6 -7.25 6.1 -6.75 L4.1 -4.75 3.1 -1.75 3.1 1.25 4.1 3.75 5.6 6.25 8.1 8.25 11.1 8.75 14.1 8.75 16.6 7.75 19.1 5.75 Q20.1 4.75 20.6 3.25 21.1 1.75 21.1 0.25 21.1 -1.25 20.6 -2.75 L19.6 -5.25 17.1 -7.25 14.6 -8.75 Q13.1 -8.75 11.6 -9.25 L8.6 -8.25 M-4.9 -3.25 Q-3.4 -5.75 -2.4 -8.75 -0.4 -10.75 1.1 -12.75 L5.6 -15.75 Q8.6 -16.25 11.1 -17.25 L17.1 -16.25 Q19.6 -14.75 22.1 -13.75 L26.1 -9.75 28.6 -4.75 Q29.1 -1.75 29.1 0.75 L28.1 6.25 25.1 11.25 Q23.1 13.25 20.6 14.75 L15.6 16.75 10.1 16.75 4.6 15.25 Q2.6 13.75 0.1 12.25 L-3.4 7.75 Q-3.9 5.25 -4.9 2.25 L-4.9 -3.25" fill="#6f6f6f" fill-rule="evenodd" stroke="none"/>
    <path d="M64.1 -96.75 L62.1 -100.25 Q62.1 -102.25 61.6 -104.75 L63.6 -108.25 Q65.1 -109.25 66.6 -110.75 L71.1 -111.75 73.6 -111.75 73.6 -130.25 143.1 -130.25 143.1 -104.75 111.6 -104.75 Q111.6 -101.75 111.1 -99.25 L108.1 -96.25 Q106.6 -95.25 104.6 -94.25 L71.6 -94.25 67.6 -94.75 64.1 -96.75" fill="#ffffff" fill-rule="evenodd" stroke="none"/>
    <path d="M-156.9 -130.25 L-110.9 -130.25 -110.9 -84.25 -130.9 -84.25 -130.9 -108.25 -136.9 -108.25 -136.9 -84.25 -156.9 -84.25 -156.9 -130.25" fill="#ffffff" fill-rule="evenodd" stroke="none"/>
    <path d="M145.1 -130.25 L145.1 -104.75 98.1 -104.75 98.1 -96.75 75.6 -96.75 75.6 -130.25 145.1 -130.25" fill="#ffffff" fill-rule="evenodd" stroke="none"/>
  </g>
</svg>
