<?xml version="1.0" encoding="UTF-8" standalone="no"?>
<svg xmlns:ffdec="https://www.free-decompiler.com/flash" xmlns:xlink="http://www.w3.org/1999/xlink" ffdec:objectType="shape" height="490.55px" width="28.6px" xmlns="http://www.w3.org/2000/svg">
  <g transform="matrix(1.0, 0.0, 0.0, 1.0, -17.45, -6.8)">
    <path d="M41.55 9.65 L45.85 30.25 46.05 74.35 44.35 82.6 41.6 90.55 41.65 90.7 45.85 110.95 46.05 155.05 44.35 163.3 41.6 171.25 41.65 171.4 45.85 191.65 46.05 235.75 44.35 244.0 41.6 251.95 41.7 252.6 45.85 272.5 46.05 316.6 44.35 324.85 41.6 332.8 41.7 333.3 45.85 353.3 46.05 397.4 44.35 405.65 41.6 413.6 41.65 413.75 45.85 434.0 46.05 478.1 44.35 486.35 41.6 494.3 42.05 497.35 20.45 497.35 21.95 493.15 17.65 472.65 17.45 428.55 19.15 420.3 20.45 416.65 21.9 412.55 21.95 412.55 21.95 412.45 17.65 391.95 17.45 347.85 19.15 339.6 20.5 335.85 20.45 335.85 21.95 331.65 17.65 311.15 17.45 267.05 19.15 258.8 20.5 255.0 20.45 255.0 21.95 250.8 17.65 230.3 17.45 186.2 19.15 177.95 21.9 170.2 21.95 170.2 21.95 170.1 17.65 149.6 17.45 105.5 19.15 97.25 20.45 93.6 21.9 89.5 21.95 89.5 21.95 89.4 17.65 68.9 17.45 24.8 19.15 16.55 21.9 8.8 42.55 6.8 41.55 9.65" fill="#33cc66" fill-rule="evenodd" stroke="none"/>
  </g>
</svg>
