<?xml version="1.0" encoding="UTF-8" standalone="no"?>
<svg xmlns:ffdec="https://www.free-decompiler.com/flash" xmlns:xlink="http://www.w3.org/1999/xlink" ffdec:objectType="shape" height="431.8px" width="1093.1px" xmlns="http://www.w3.org/2000/svg">
  <g transform="matrix(1.0, 0.0, 0.0, 1.0, 586.15, 211.35)">
    <path d="M445.65 64.4 L445.85 64.5 450.35 67.3 473.55 74.85 473.6 74.85 479.05 77.15 479.1 77.2 479.2 77.25 487.05 82.45 487.15 82.5 495.35 90.2 495.35 90.25 501.85 97.65 505.4 104.45 505.45 104.6 506.8 110.1 506.85 110.2 506.95 123.4 482.7 198.7 482.65 198.8 482.6 198.85 480.15 203.4 480.1 203.45 480.05 203.55 475.35 209.55 475.3 209.65 475.2 209.7 470.9 213.35 470.8 213.45 463.9 216.85 454.3 219.05 454.2 219.05 443.2 220.45 433.5 220.05 433.4 220.0 427.65 218.7 427.6 218.7 404.4 211.15 399.15 210.8 399.0 210.75 398.9 210.75 -356.75 -34.8 -356.8 -34.8 -389.15 -47.55 -419.3 -60.5 -446.1 -72.8 -446.15 -72.8 -446.15 -72.85 -479.95 -91.6 -480.0 -91.6 -480.0 -91.65 -511.95 -111.9 -512.0 -111.95 -512.05 -111.95 -542.25 -137.0 -542.3 -137.0 -560.55 -155.6 -560.55 -155.65 -578.05 -175.7 -578.1 -175.8 -578.15 -175.85 -586.15 -188.7 -584.75 -192.9 -584.35 -193.1 -571.4 -198.5 -571.3 -198.55 -571.2 -198.55 -545.25 -204.55 -545.15 -204.55 -516.25 -207.05 -480.4 -211.3 -480.3 -211.35 -480.2 -211.35 -442.5 -208.95 -442.4 -208.95 -404.05 -204.3 -404.0 -204.25 -403.95 -204.25 -368.95 -196.95 -335.85 -188.35 -309.8 -181.05 445.65 64.4" fill="#424242" fill-rule="evenodd" stroke="none"/>
    <path d="M213.15 97.15 L212.2 100.0 208.2 98.7 204.1 111.3 208.1 112.6 207.2 115.45 234.3 124.25 233.0 128.3 239.15 130.3 247.75 103.95 241.55 101.9 240.25 105.95 213.15 97.15 M270.05 35.2 L263.9 33.2 262.6 37.25 235.45 28.45 234.55 31.3 230.5 30.0 226.4 42.6 230.45 43.9 229.5 46.75 256.65 55.55 255.3 59.6 261.5 61.6 270.05 35.2 M115.8 -16.9 L114.85 -17.25 82.2 83.2 83.15 83.5 115.8 -16.9 M320.1 127.15 L313.9 125.15 312.6 129.2 285.5 120.4 284.6 123.25 280.55 121.95 276.45 134.55 280.5 135.85 279.55 138.7 306.65 147.5 305.35 151.55 311.55 153.55 320.1 127.15 M336.25 56.45 L334.95 60.5 307.85 51.7 306.9 54.55 302.85 53.25 298.75 65.85 302.8 67.15 301.9 70.0 329.0 78.8 327.65 82.85 333.85 84.85 342.45 58.45 336.25 56.45 M410.6 56.0 L415.4 56.65 443.05 65.65 445.75 67.25 439.9 85.3 411.75 76.15 409.9 75.9 408.4 76.3 407.55 77.35 406.55 79.05 397.8 106.0 400.8 106.95 405.15 93.65 443.4 106.1 445.4 107.45 451.85 109.55 453.85 110.95 458.1 115.15 461.55 119.75 465.65 127.9 468.85 128.95 469.9 128.45 469.05 125.6 466.9 121.35 462.55 115.95 455.15 109.1 450.9 106.5 455.7 91.65 462.6 93.9 463.25 91.95 463.7 88.6 463.5 84.65 462.2 80.35 458.85 74.25 472.05 78.55 477.1 80.7 484.55 85.65 492.35 92.95 498.45 100.0 501.55 105.85 502.75 110.7 502.95 122.75 478.8 197.0 471.6 206.6 467.75 209.8 461.85 212.75 452.75 214.85 442.1 216.2 433.2 215.8 427.85 214.55 414.65 210.25 420.45 207.5 424.05 204.8 426.5 201.75 428.1 198.75 428.75 196.8 421.85 194.55 426.65 179.7 431.6 180.1 441.65 178.9 448.35 177.15 452.6 174.9 454.9 173.1 454.35 172.1 451.2 171.05 443.1 175.25 437.6 176.95 431.65 177.85 429.2 177.8 422.8 175.7 420.35 175.65 382.1 163.2 386.4 149.9 383.4 148.9 374.65 175.85 374.45 177.8 374.55 179.15 375.6 180.4 377.2 181.25 405.3 190.4 399.45 208.45 397.9 208.3 366.95 198.25 364.4 196.9 359.3 195.25 353.55 192.45 348.75 188.2 345.3 182.9 343.4 176.8 343.2 170.5 355.65 130.95 354.25 130.5 335.55 188.05 -28.35 69.8 -7.75 6.45 -71.45 -14.25 -45.8 -93.2 121.8 -38.7 118.9 -29.65 119.85 -29.35 122.75 -38.4 381.8 45.75 363.0 103.6 364.8 104.2 375.65 70.75 377.95 64.9 381.85 59.9 386.9 56.1 392.85 53.85 399.25 53.25 405.55 54.35 410.6 56.0" fill="#959595" fill-rule="evenodd" stroke="none"/>
    <path d="M427.1 107.55 L427.95 104.9 407.25 98.2 406.4 100.8 427.1 107.55 M425.6 112.2 L426.45 109.55 405.75 102.8 404.9 105.45 425.6 112.2 M427.0 112.65 L427.25 112.7 426.4 115.25 402.3 107.4 403.15 104.9 403.5 105.0 404.35 102.35 404.0 102.25 404.65 100.25 405.0 100.35 405.85 97.75 405.5 97.6 406.3 95.1 430.4 102.9 429.6 105.45 429.35 105.35 428.5 108.0 428.75 108.1 428.1 110.1 427.85 110.0 427.0 112.65" fill="#6f6f6f" fill-rule="evenodd" stroke="none"/>
    <path d="M399.25 53.25 L405.55 54.35 410.6 56.0 408.85 61.4 401.3 59.8 396.7 59.65 390.95 61.85 386.0 65.5 382.3 70.35 380.0 76.05 376.6 86.6 371.05 84.8 375.65 70.75 377.95 64.9 381.85 59.9 386.9 56.1 392.85 53.85 399.25 53.25" fill="#6f6f6f" fill-rule="evenodd" stroke="none"/>
    <path d="M401.0 77.6 L406.45 79.4 398.7 103.15 393.25 101.4 401.0 77.6" fill="#6f6f6f" fill-rule="evenodd" stroke="none"/>
    <path d="M359.25 69.3 L370.7 73.05 362.4 98.6 350.95 94.9 359.25 69.3" fill="#6f6f6f" fill-rule="evenodd" stroke="none"/>
    <path d="M379.8 51.8 L379.1 54.05 367.55 50.3 368.3 48.05 379.8 51.8" fill="#6f6f6f" fill-rule="evenodd" stroke="none"/>
    <path d="M451.85 109.55 L453.85 110.95 458.1 115.15 461.55 119.75 465.65 127.9 463.35 126.95 460.6 127.8 460.05 127.75 459.5 127.3 459.0 125.45 455.7 126.2 455.35 126.1 455.05 125.8 453.9 122.3 452.95 121.45 452.65 122.4 441.4 118.75 445.1 107.25 445.4 107.45 451.85 109.55" fill="#6f6f6f" fill-rule="evenodd" stroke="none"/>
    <path d="M442.15 73.1 L443.85 73.2 442.1 78.55 440.5 77.4 440.05 75.7 440.7 74.05 442.15 73.1" fill="#6f6f6f" fill-rule="evenodd" stroke="none"/>
    <path d="M387.3 158.15 L386.45 160.8 407.2 167.5 408.05 164.9 387.3 158.15 M411.2 160.75 L410.95 160.7 410.1 163.35 410.3 163.4 409.65 165.4 409.45 165.35 408.6 167.95 408.8 168.05 408.0 170.6 383.9 162.75 384.7 160.2 385.1 160.35 385.95 157.7 385.6 157.6 386.25 155.6 386.6 155.7 387.45 153.05 387.1 152.95 387.9 150.4 412.0 158.25 411.2 160.75 M408.7 162.9 L409.55 160.25 388.85 153.5 387.95 156.15 408.7 162.9" fill="#6f6f6f" fill-rule="evenodd" stroke="none"/>
    <path d="M333.95 183.7 L335.7 178.25 338.45 179.15 336.65 184.6 333.95 183.7" fill="#6f6f6f" fill-rule="evenodd" stroke="none"/>
    <path d="M349.35 150.35 L354.85 152.15 349.9 168.6 350.1 174.75 351.9 180.6 355.3 185.8 359.1 188.35 366.15 191.5 364.4 196.9 359.3 195.25 353.55 192.45 348.75 188.2 345.3 182.9 343.4 176.8 343.2 170.5 344.8 164.4 349.35 150.35" fill="#6f6f6f" fill-rule="evenodd" stroke="none"/>
    <path d="M374.75 175.5 L369.35 173.75 377.05 149.95 382.5 151.75 374.75 175.5" fill="#6f6f6f" fill-rule="evenodd" stroke="none"/>
    <path d="M337.4 131.2 L348.85 134.9 340.55 160.45 329.1 156.75 337.4 131.2" fill="#6f6f6f" fill-rule="evenodd" stroke="none"/>
    <path d="M328.4 173.85 L332.65 160.9 339.75 163.2 335.55 176.2 328.4 173.85" fill="#6f6f6f" fill-rule="evenodd" stroke="none"/>
    <path d="M437.6 176.95 L431.65 177.85 429.2 177.8 422.8 175.7 422.45 175.7 426.2 164.2 437.45 167.9 437.1 168.85 438.4 168.7 441.35 166.55 441.8 166.5 442.15 166.6 444.35 169.15 445.85 167.95 446.55 167.9 447.05 168.2 448.75 170.5 451.2 171.05 443.1 175.25 437.6 176.95" fill="#6f6f6f" fill-rule="evenodd" stroke="none"/>
    <path d="M401.15 197.15 L403.1 197.15 401.4 202.5 400.0 201.6 399.35 199.95 399.8 198.25 401.15 197.15" fill="#6f6f6f" fill-rule="evenodd" stroke="none"/>
    <path d="M331.9 129.15 L332.35 129.9 332.45 130.8 323.6 158.0 323.0 158.7 322.2 159.0 320.8 158.95 274.9 144.05 273.75 143.25 273.3 142.55 273.2 141.65 282.05 114.45 282.65 113.75 283.45 113.4 284.85 113.5 330.75 128.4 331.9 129.15 M320.1 127.15 L313.9 125.15 312.6 129.2 285.5 120.4 284.6 123.25 280.55 121.95 276.45 134.55 280.5 135.85 279.55 138.7 306.65 147.5 305.35 151.55 311.55 153.55 320.1 127.15" fill="#6f6f6f" fill-rule="evenodd" stroke="none"/>
    <path d="M304.45 45.5 L305.05 44.8 305.85 44.45 307.25 44.55 353.15 59.45 354.3 60.2 354.75 60.95 354.85 61.85 346.0 89.05 345.4 89.75 344.6 90.05 343.2 90.0 297.3 75.1 296.15 74.3 295.7 73.6 295.6 72.65 304.45 45.5 M336.25 56.45 L334.95 60.5 307.85 51.7 306.9 54.55 302.85 53.25 298.75 65.85 302.8 67.15 301.9 70.0 329.0 78.8 327.65 82.85 333.85 84.85 342.45 58.45 336.25 56.45" fill="#6f6f6f" fill-rule="evenodd" stroke="none"/>
    <path d="M207.5 89.0 L208.9 89.1 254.8 104.0 256.0 104.75 256.4 105.5 256.5 106.4 247.7 133.6 247.05 134.3 246.3 134.6 244.9 134.55 199.0 119.65 197.85 118.85 197.4 118.15 197.3 117.2 200.45 107.55 199.3 107.2 201.8 99.45 202.95 99.8 206.15 90.05 206.75 89.35 Q207.15 89.2 207.5 89.0 M213.15 97.15 L212.2 100.0 208.2 98.7 204.1 111.3 208.1 112.6 207.2 115.45 234.3 124.25 233.0 128.3 239.15 130.3 247.75 103.95 241.55 101.9 240.25 105.95 213.15 97.15" fill="#6f6f6f" fill-rule="evenodd" stroke="none"/>
    <path d="M165.3 38.9 L165.7 37.75 164.55 37.4 164.2 38.55 165.3 38.9 M166.6 34.9 L166.85 34.1 165.75 33.75 165.5 34.55 166.6 34.9 M166.7 30.8 L166.35 31.9 170.55 33.3 170.2 34.3 172.25 35.0 172.95 32.85 166.7 30.8 M159.05 23.85 L158.65 25.1 159.6 25.45 160.0 24.15 159.05 23.85 M164.1 11.65 L163.15 11.35 162.0 14.8 162.5 14.95 161.75 17.2 161.3 17.05 159.65 22.1 160.6 22.4 164.1 11.65 M178.85 14.15 L179.0 13.75 180.95 14.4 180.85 14.8 185.05 16.15 181.95 25.75 179.4 24.95 181.8 17.55 180.1 17.05 180.0 17.4 178.0 16.8 178.15 16.4 166.5 12.6 162.05 26.25 167.6 28.05 167.1 29.55 173.4 31.55 173.7 30.6 179.65 32.55 179.35 33.4 182.65 34.45 185.25 26.5 185.6 25.85 185.95 25.45 186.45 25.25 201.85 30.25 202.15 30.7 202.2 31.25 202.1 31.95 194.35 55.8 194.0 56.45 193.65 56.85 193.15 57.0 177.8 52.0 177.45 51.55 177.4 51.05 177.5 50.3 179.4 44.4 175.9 40.25 178.1 38.4 180.5 41.15 182.1 36.2 178.8 35.15 178.2 37.0 175.95 36.25 174.5 40.85 173.35 40.5 172.65 42.7 166.3 40.65 162.5 52.45 161.55 52.1 165.35 40.35 164.9 40.2 165.0 39.85 158.25 37.65 157.05 41.4 157.9 41.7 157.2 43.85 156.35 43.55 154.65 48.7 152.3 47.95 155.45 38.2 154.2 37.8 154.6 36.45 146.0 33.65 142.05 45.8 141.1 45.5 145.35 32.4 150.65 34.15 151.2 32.45 147.5 31.25 148.0 29.7 151.7 30.9 153.1 26.55 149.4 25.35 149.9 23.85 153.6 25.05 154.05 23.65 156.75 24.5 159.4 16.4 158.75 16.2 159.45 14.0 160.1 14.2 161.95 8.5 163.85 9.1 163.7 9.6 164.65 9.9 164.75 9.6 178.85 14.15" fill="#6f6f6f" fill-rule="evenodd" stroke="none"/>
    <path d="M277.25 35.05 L278.4 35.8 278.85 36.55 278.9 37.45 275.8 47.05 279.4 48.25 276.65 56.8 273.0 55.6 270.1 64.65 269.45 65.35 268.7 65.65 267.3 65.6 221.4 50.7 220.25 49.9 219.8 49.2 219.7 48.25 228.55 21.05 229.15 20.4 229.95 20.05 231.3 20.1 277.25 35.05 M270.05 35.2 L263.9 33.2 262.6 37.25 235.45 28.45 234.55 31.3 230.5 30.0 226.4 42.6 230.45 43.9 229.5 46.75 256.65 55.55 255.3 59.6 261.5 61.6 270.05 35.2" fill="#6f6f6f" fill-rule="evenodd" stroke="none"/>
    <path d="M65.05 -53.35 L65.55 -54.2 66.05 -54.7 66.95 -54.85 93.35 -46.25 93.95 -45.6 94.1 -44.9 94.05 -43.95 75.15 14.2 74.65 15.05 74.1 15.5 73.25 15.7 46.8 7.1 46.2 6.45 46.05 5.75 46.15 4.8 65.05 -53.35" fill="#6f6f6f" fill-rule="evenodd" stroke="none"/>
    <path d="M16.3 -68.4 L16.8 -69.25 17.35 -69.75 18.2 -69.9 46.5 -60.7 47.1 -60.05 47.3 -59.35 47.2 -58.4 34.5 -19.25 34.0 -18.4 33.45 -17.95 32.55 -17.75 4.25 -26.95 3.65 -27.6 3.5 -28.3 3.6 -29.3 16.3 -68.4" fill="#6f6f6f" fill-rule="evenodd" stroke="none"/>
    <path d="M-1.4 -10.35 L-0.55 -10.55 27.75 -1.35 28.35 -0.7 28.5 0.0 28.45 1.0 18.2 32.5 17.7 33.35 17.15 33.8 16.3 34.0 -12.05 24.8 -12.65 24.15 -12.8 23.45 -12.85 22.4 -2.6 -9.1 -1.95 -9.9 -1.4 -10.35" fill="#6f6f6f" fill-rule="evenodd" stroke="none"/>
    <path d="M68.05 31.75 L68.6 32.4 68.75 33.2 68.6 34.3 57.3 69.1 56.75 70.05 56.2 70.6 55.3 70.85 29.35 62.4 28.75 61.7 28.65 60.95 28.8 59.85 40.1 25.05 40.6 24.05 41.2 23.5 42.05 23.3 68.05 31.75" fill="#6f6f6f" fill-rule="evenodd" stroke="none"/>
    <path d="M173.4 -15.45 L164.7 -18.3 166.45 -23.7 175.15 -20.85 173.4 -15.45" fill="#6f6f6f" fill-rule="evenodd" stroke="none"/>
    <path d="M180.6 7.2 L179.15 11.65 176.55 10.8 178.0 6.35 180.6 7.2" fill="#6f6f6f" fill-rule="evenodd" stroke="none"/>
    <path d="M146.25 88.95 L146.95 86.85 157.25 90.2 156.55 92.3 146.25 88.95" fill="#6f6f6f" fill-rule="evenodd" stroke="none"/>
    <path d="M143.8 116.95 L144.6 114.5 134.6 111.25 133.8 113.7 143.8 116.95 M145.5 117.5 L146.1 117.7 146.9 115.25 146.3 115.05 145.5 117.5 M131.65 105.5 L133.55 106.1 135.55 99.8 138.05 100.6 135.1 109.75 145.1 113.05 150.8 95.45 144.8 93.45 145.45 91.4 155.75 94.7 155.1 96.8 152.5 95.95 146.75 113.55 147.35 113.75 150.25 104.95 152.75 105.75 149.85 114.55 151.4 115.1 150.95 116.55 149.35 116.05 149.3 116.3 150.9 116.8 150.25 118.8 148.65 118.3 148.6 118.5 150.15 119.0 149.65 120.45 148.1 119.95 146.0 126.45 143.5 125.65 145.65 119.15 145.0 118.95 144.0 122.05 142.35 121.5 143.35 118.4 133.35 115.15 131.2 121.65 128.75 120.85 129.4 118.85 127.5 118.25 128.3 115.75 130.2 116.35 130.85 114.35 126.3 112.9 126.75 111.4 131.3 112.9 131.5 112.35 129.65 111.8 130.1 110.4 131.95 111.0 132.1 110.45 127.55 109.0 128.05 107.5 132.6 108.95 132.7 108.6 130.85 108.0 131.65 105.5" fill="#6f6f6f" fill-rule="evenodd" stroke="none"/>
    <path d="M133.2 84.7 L133.9 82.6 144.2 85.95 143.5 88.05 133.2 84.7" fill="#6f6f6f" fill-rule="evenodd" stroke="none"/>
    <path d="M131.75 89.25 L132.45 87.15 142.75 90.5 142.05 92.6 131.75 89.25" fill="#6f6f6f" fill-rule="evenodd" stroke="none"/>
    <path d="M173.95 5.05 L172.5 9.45 169.9 8.6 171.35 4.2 173.95 5.05" fill="#6f6f6f" fill-rule="evenodd" stroke="none"/>
    <path d="M163.65 132.2 L164.3 130.15 165.25 130.5 164.6 132.5 163.65 132.2" fill="#6f6f6f" fill-rule="evenodd" stroke="none"/>
    <path d="M98.0 94.75 L97.85 95.15 101.6 96.4 102.25 94.3 97.6 92.8 97.1 94.45 98.0 94.75 M97.5 90.1 L97.85 90.2 97.9 90.05 98.15 90.15 98.4 89.3 93.1 87.6 91.05 93.9 93.3 94.65 93.55 93.8 95.15 94.3 95.3 93.85 96.2 94.15 96.7 92.5 92.9 91.3 93.1 90.65 96.95 91.9 97.5 90.1 M98.65 91.4 L100.05 91.85 99.75 92.8 100.55 93.05 100.75 92.45 102.1 92.9 102.0 93.2 102.55 93.4 103.05 91.95 98.9 90.6 98.65 91.4 M103.85 92.85 L104.05 92.25 103.7 92.15 103.5 92.7 103.85 92.85 M107.0 92.1 L106.65 93.1 104.95 92.55 104.75 93.15 105.45 93.35 105.3 93.85 108.95 95.0 108.7 95.7 110.95 96.45 110.75 97.05 102.9 94.55 102.25 96.6 102.55 96.7 102.55 96.75 104.5 97.4 104.85 96.3 110.85 98.25 112.3 93.8 107.0 92.1 M99.0 88.45 L99.25 87.65 122.1 95.1 133.5 59.9 182.95 75.95 170.65 113.8 169.7 113.5 181.7 76.6 134.15 61.15 122.7 96.35 113.35 93.3 110.7 101.35 100.2 97.95 99.95 98.75 99.15 98.5 99.4 97.7 98.05 97.25 97.75 98.05 97.0 97.8 97.25 97.0 89.7 94.55 92.4 86.3 99.0 88.45" fill="#6f6f6f" fill-rule="evenodd" stroke="none"/>
    <path d="M379.9 45.55 L379.35 47.95 366.25 45.15 367.1 46.4 367.05 48.7 363.0 60.95 363.0 63.0 364.05 64.05 366.4 64.85 369.15 56.25 376.3 58.55 373.5 67.15 374.7 67.55 374.2 69.05 373.0 68.65 372.1 71.5 364.95 69.2 365.9 66.35 362.4 65.2 361.15 63.75 360.9 60.9 365.1 48.3 365.1 47.15 364.65 46.3 362.9 45.15 336.9 36.65 336.75 37.05 335.65 38.4 334.15 39.0 332.35 38.75 319.55 34.6 320.2 32.7 332.8 36.8 333.9 36.95 334.4 36.75 335.0 36.05 333.5 35.55 331.2 34.4 329.65 33.2 329.0 31.1 329.3 29.6 329.6 28.8 331.5 29.4 331.1 31.0 331.35 32.0 332.35 32.8 334.3 33.75 335.6 34.15 336.6 31.05 338.5 31.7 337.5 34.8 359.8 42.0 359.35 41.35 359.15 38.4 361.45 39.15 361.85 40.6 362.4 41.45 364.5 42.25 379.9 45.55" fill="#6f6f6f" fill-rule="evenodd" stroke="none"/>
    <path d="M85.35 73.5 L77.5 70.95 88.4 37.5 96.25 40.05 85.35 73.5" fill="#6f6f6f" fill-rule="evenodd" stroke="none"/>
    <path d="M97.65 9.0 L105.5 11.55 96.9 38.0 89.05 35.45 97.65 9.0" fill="#6f6f6f" fill-rule="evenodd" stroke="none"/>
    <path d="M103.9 -3.2 L109.65 -1.3 106.8 7.55 101.0 5.7 103.9 -3.2" fill="#6f6f6f" fill-rule="evenodd" stroke="none"/>
    <path d="M107.0 -12.7 L112.75 -10.8 109.85 -1.95 104.1 -3.8 107.0 -12.7" fill="#6f6f6f" fill-rule="evenodd" stroke="none"/>
    <path d="M140.3 -33.25 L141.25 -32.95 138.1 -23.25 138.5 -23.6 139.2 -23.85 140.25 -23.4 140.6 -22.75 140.7 -22.2 138.3 -14.8 137.85 -14.35 137.25 -14.1 135.6 -9.0 134.1 -9.5 135.8 -14.75 135.7 -14.9 135.55 -15.45 131.65 -3.45 125.25 -5.55 125.55 -6.5 131.0 -4.7 140.3 -33.25" fill="#6f6f6f" fill-rule="evenodd" stroke="none"/>
    <path d="M166.5 107.3 L165.9 107.1 165.8 107.5 166.35 107.65 166.5 107.3 M168.05 102.5 L167.2 102.25 166.75 103.65 165.85 103.35 165.55 104.15 166.2 104.35 165.75 105.7 165.4 105.6 165.25 106.2 166.7 106.65 168.05 102.5 M164.1 106.5 L162.05 105.85 161.95 106.15 161.85 106.15 161.25 108.1 162.3 108.45 160.35 114.45 164.8 115.9 166.55 110.6 165.5 110.3 166.1 108.55 165.5 108.4 165.3 109.1 164.8 108.9 163.6 112.55 162.9 112.35 162.2 114.55 161.55 114.35 164.1 106.5 M163.9 101.6 L163.45 101.45 162.25 105.2 164.3 105.9 165.8 101.25 164.2 100.7 163.9 101.6 M161.65 100.85 L164.1 93.35 172.35 96.0 165.5 117.0 157.3 114.35 160.7 103.8 159.9 103.55 160.15 102.75 160.95 103.05 161.4 101.65 160.6 101.4 160.85 100.6 161.65 100.85 M164.8 98.9 L164.5 99.8 166.1 100.35 167.35 96.5 168.0 96.7 166.75 100.55 168.55 101.15 168.45 101.45 168.6 101.5 168.5 101.75 169.35 102.0 171.05 96.75 164.7 94.65 164.0 96.9 164.85 97.2 164.35 98.75 164.8 98.9" fill="#6f6f6f" fill-rule="evenodd" stroke="none"/>
    <path d="M147.4 96.95 L148.35 97.3 148.95 98.1 148.95 99.05 148.35 99.85 147.4 100.2 146.45 99.85 145.9 99.05 145.9 98.1 146.45 97.3 147.4 96.95" fill="#6f6f6f" fill-rule="evenodd" stroke="none"/>
    <path d="M305.0 20.3 L302.55 27.9 300.65 27.25 303.1 19.65 305.0 20.3" fill="#6f6f6f" fill-rule="evenodd" stroke="none"/>
    <path d="M300.75 18.9 L298.25 26.5 296.35 25.9 298.85 18.25 300.75 18.9" fill="#6f6f6f" fill-rule="evenodd" stroke="none"/>
    <path d="M294.0 25.1 L292.1 24.5 294.55 16.9 296.45 17.5 294.0 25.1" fill="#6f6f6f" fill-rule="evenodd" stroke="none"/>
    <path d="M120.95 -38.35 L120.65 -37.4 96.55 -45.2 96.85 -46.15 120.95 -38.35" fill="#6f6f6f" fill-rule="evenodd" stroke="none"/>
    <path d="M11.3 48.15 L2.0 76.8 78.75 101.7 78.35 102.95 1.55 78.05 1.1 79.45 -28.25 69.85 -17.75 37.6 10.55 46.8 11.15 47.45 11.3 48.15" fill="#6f6f6f" fill-rule="evenodd" stroke="none"/>
    <path d="M-2.5 -56.25 L-12.0 -27.0 -26.75 -31.8 -17.25 -61.05 -2.5 -56.25" fill="#6f6f6f" fill-rule="evenodd" stroke="none"/>
    <path d="M-34.85 -34.4 L-49.6 -39.2 -40.05 -68.45 -25.35 -63.65 -34.85 -34.4" fill="#6f6f6f" fill-rule="evenodd" stroke="none"/>
    <path d="M-6.85 -3.25 L-9.8 5.8 -71.45 -14.25 -65.65 -32.1 -60.1 -30.25 -62.95 -21.5 -6.85 -3.25" fill="#6f6f6f" fill-rule="evenodd" stroke="none"/>
    <path d="M177.25 115.95 L177.95 113.85 299.25 153.25 292.5 174.05 291.55 173.75 298.0 153.9 178.7 115.15 178.35 116.3 177.25 115.95" fill="#6f6f6f" fill-rule="evenodd" stroke="none"/>
    <path d="M171.2 134.65 L171.85 132.6 172.9 132.95 172.25 135.0 171.2 134.65" fill="#6f6f6f" fill-rule="evenodd" stroke="none"/>
    <path d="M199.8 143.95 L200.5 141.7 206.8 143.7 206.05 145.95 199.8 143.95" fill="#6f6f6f" fill-rule="evenodd" stroke="none"/>
    <path d="M191.7 141.3 L192.45 139.05 198.4 141.0 197.65 143.25 191.7 141.3" fill="#6f6f6f" fill-rule="evenodd" stroke="none"/>
    <path d="M227.6 153.0 L228.2 151.2 231.25 152.2 230.7 154.0 227.6 153.0" fill="#6f6f6f" fill-rule="evenodd" stroke="none"/>
    <path d="M113.55 -10.0 L130.3 -4.55 129.3 -1.55 112.55 -7.0 113.55 -10.0" fill="#ffffff" fill-rule="evenodd" stroke="none"/>
    <path d="M85.1 77.5 L101.6 82.85 99.65 88.85 83.15 83.5 85.1 77.5" fill="#ffffff" fill-rule="evenodd" stroke="none"/>
    <path d="M167.35 70.9 L155.8 67.1 160.75 51.85 172.35 55.65 167.35 70.9" fill="#ffffff" fill-rule="evenodd" stroke="none"/>
    <path d="M167.1 112.65 L178.35 116.3 172.9 132.95 161.7 129.3 167.1 112.65" fill="#ffffff" fill-rule="evenodd" stroke="none"/>
    <path d="M452.5 107.45 L402.6 91.25 407.55 76.05 457.45 92.25 452.5 107.45" fill="#ffffff" fill-rule="evenodd" stroke="none"/>
    <path d="M429.0 180.0 L424.05 195.25 374.2 179.05 379.15 163.8 429.0 180.0" fill="#ffffff" fill-rule="evenodd" stroke="none"/>
    <path d="M131.25 42.3 L142.85 46.05 137.9 61.3 126.3 57.55 131.25 42.3" fill="#ffffff" fill-rule="evenodd" stroke="none"/>
    <path d="M504.2 98.65 L497.5 103.75 492.9 97.7 499.6 92.6 504.2 98.65" fill="#ffffff" fill-rule="evenodd" stroke="none"/>
    <path d="M462.95 210.0 L465.4 218.1 458.1 220.25 455.7 212.2 462.95 210.0" fill="#ffffff" fill-rule="evenodd" stroke="none"/>
  </g>
</svg>
