<?xml version="1.0" encoding="UTF-8" standalone="no"?>
<svg xmlns:ffdec="https://www.free-decompiler.com/flash" xmlns:xlink="http://www.w3.org/1999/xlink" ffdec:objectType="shape" height="616.0px" width="511.5px" xmlns="http://www.w3.org/2000/svg">
  <g transform="matrix(1.0, 0.0, 0.0, 1.0, 390.4, 554.95)">
    <path d="M102.1 -91.95 L92.1 -68.45 79.1 -46.45 52.1 -12.45 Q43.6 -3.95 34.6 4.05 L-3.4 30.05 -34.9 45.05 -74.9 55.55 -125.9 61.05 -229.4 61.05 -229.4 8.55 -390.4 8.55 -389.4 -319.95 Q-385.9 -339.95 -382.9 -360.45 -376.9 -380.95 -371.4 -401.95 L-348.4 -447.95 -321.4 -481.45 Q-312.4 -489.45 -303.9 -497.95 L-265.9 -523.95 -234.4 -538.95 Q-214.4 -543.95 -194.4 -549.45 L-153.4 -554.45 Q-96.9 -554.45 -40.4 -554.95 L-40.4 -502.45 121.1 -502.45 120.1 -173.95 Q114.6 -143.95 108.6 -114.45 105.6 -102.95 102.1 -91.95" fill="#424242" fill-rule="evenodd" stroke="none"/>
    <path d="M-52.9 -335.95 L-5.4 -335.95 -5.4 -275.95 -21.9 -275.95 -21.9 -272.95 -31.9 -272.95 -31.9 -275.95 -52.9 -275.95 -52.9 -335.95" fill="#6f6f6f" fill-rule="evenodd" stroke="none"/>
    <path d="M-3.9 -335.95 L-3.9 -275.95 -21.9 -275.95 -21.9 -272.95 -31.9 -272.95 -31.9 -275.95 -52.9 -275.95 -52.9 -335.95 -3.9 -335.95" fill="#6f6f6f" fill-rule="evenodd" stroke="none"/>
    <path d="M-35.4 -306.95 L-35.4 -333.95 -6.4 -333.95 -6.4 -306.95 -35.4 -306.95" fill="#959595" fill-rule="evenodd" stroke="none"/>
    <path d="M-35.4 -277.45 L-35.4 -303.95 -6.4 -303.95 -6.4 -297.95 -3.9 -297.95 -3.9 -283.45 -6.4 -283.45 -6.4 -277.45 -35.4 -277.45" fill="#ffffff" fill-rule="evenodd" stroke="none"/>
    <path d="M-275.4 -142.95 L-202.4 -142.95 -202.4 -102.95 -275.4 -102.95 -275.4 -142.95 M-225.4 -122.45 L-225.4 -123.95 -252.4 -123.95 -252.4 -122.45 -225.4 -122.45" fill="#ffffff" fill-rule="evenodd" stroke="none"/>
  </g>
</svg>
