<?xml version="1.0" encoding="UTF-8" standalone="no"?>
<svg xmlns:ffdec="https://www.free-decompiler.com/flash" xmlns:xlink="http://www.w3.org/1999/xlink" ffdec:objectType="shape" height="662.5px" width="1203.0px" xmlns="http://www.w3.org/2000/svg">
  <g transform="matrix(1.0, 0.0, 0.0, 1.0, 1024.75, 354.6)">
    <path d="M-357.25 -260.1 L-356.25 -260.1 -347.25 -240.6 Q-347.25 -240.1 -347.75 -240.1 -352.25 -237.6 -356.75 -235.6 -357.75 -235.1 -358.75 -235.1 L-366.75 -231.1 -367.25 -231.1 -367.75 -231.6 -376.75 -250.6 -376.75 -251.1 Q-366.75 -255.6 -357.25 -260.1" fill="#424242" fill-rule="evenodd" stroke="none"/>
    <path d="M-477.25 -203.6 L-477.25 -204.1 -458.25 -213.1 -457.25 -213.1 -457.25 -212.6 -452.75 -204.1 Q-452.25 -203.1 -452.25 -202.6 L-452.25 -202.1 -448.25 -194.1 -448.25 -193.1 -457.75 -189.1 -457.25 -188.6 -457.75 -188.6 Q-458.75 -188.1 -459.75 -188.1 L-467.75 -184.1 Q-468.25 -184.1 -468.75 -184.6 L-472.25 -193.1 Q-472.75 -194.1 -473.75 -195.1 -475.25 -199.1 -477.25 -203.6" fill="#424242" fill-rule="evenodd" stroke="none"/>
    <path d="M-264.75 -303.1 L-256.75 -307.1 -256.25 -307.1 -255.75 -306.6 -246.75 -287.6 Q-246.75 -287.1 -247.25 -287.1 L-266.25 -278.1 -267.25 -278.1 -267.25 -278.6 -276.25 -297.6 Q-275.75 -297.6 -275.75 -298.1 -271.25 -300.1 -267.25 -302.6 -265.75 -302.6 -264.75 -303.1" fill="#424242" fill-rule="evenodd" stroke="none"/>
    <path d="M-558.75 -166.6 Q-558.25 -166.1 -557.75 -166.1 L-548.75 -147.1 Q-548.75 -146.6 -549.25 -146.1 -558.75 -141.6 -568.75 -137.1 L-569.25 -137.6 -573.25 -146.6 Q-573.75 -147.1 -574.25 -148.1 L-577.75 -156.6 -577.75 -157.6 -568.75 -161.6 -567.25 -162.6 Q-562.75 -164.6 -558.75 -166.6" fill="#424242" fill-rule="evenodd" stroke="none"/>
    <path d="M-22.25 -309.1 Q-17.25 -307.1 -12.75 -305.6 L-13.25 -305.6 -12.75 -305.1 Q-23.25 -276.1 -34.25 -247.6 L-34.25 -247.1 -42.25 -226.6 25.25 -226.6 79.25 -139.6 Q128.75 -120.6 178.25 -102.1 L132.25 27.4 135.25 48.4 137.75 47.4 140.75 52.9 Q129.75 84.4 118.25 115.4 116.75 116.4 115.25 116.9 L114.25 122.4 Q112.75 123.4 111.25 123.9 105.75 140.4 99.75 156.4 L95.75 158.4 85.25 166.4 47.75 183.4 Q49.25 186.4 50.25 189.4 L-18.75 221.4 -34.75 221.9 Q-36.25 222.9 -38.25 223.4 L-35.75 224.9 Q-36.75 227.9 -38.25 230.9 -67.75 244.9 -97.75 258.4 L-107.25 256.4 Q-112.25 262.4 -117.75 267.9 -159.75 287.9 -202.25 307.4 -213.75 307.9 -225.75 307.9 -233.75 305.4 -241.75 302.4 -242.25 304.4 -243.25 306.4 L-249.75 304.4 -248.75 299.9 -260.25 295.9 Q-259.75 294.9 -259.75 293.9 L-507.25 234.9 -534.25 185.4 -547.75 186.9 Q-574.75 199.9 -601.75 212.4 -599.75 213.4 -597.75 213.9 -603.75 230.9 -610.25 247.4 L-610.75 247.4 -619.75 244.4 -631.75 277.9 Q-828.25 205.9 -1024.75 133.4 L-987.75 29.9 Q-901.25 -10.1 -814.75 -50.6 L-818.75 -58.6 -671.75 -127.6 -652.75 -120.6 Q-619.25 -49.1 -586.25 21.9 -584.25 21.4 -582.75 20.4 -581.75 21.9 -581.25 23.4 -417.25 -52.6 -253.25 -129.1 -214.25 -236.1 -175.75 -343.1 L-166.75 -352.6 -162.75 -354.6 Q-144.75 -348.1 -127.25 -342.1 L-126.25 -344.1 -125.25 -344.1 Q-120.75 -342.1 -116.75 -340.6 L-117.75 -338.6 -75.25 -323.6 -74.25 -325.6 Q-69.75 -323.6 -65.25 -322.1 -65.25 -321.1 -65.75 -320.1 L-24.75 -305.1 Q-23.25 -307.1 -22.25 -309.1" fill="#424242" fill-rule="evenodd" stroke="none"/>
    <path d="M-607.75 98.4 Q-617.25 102.9 -626.75 106.9 L-617.25 127.4 -598.25 118.4 Q-602.75 108.4 -607.75 98.4 M-633.75 39.9 Q-638.25 29.9 -643.25 19.9 -653.25 24.9 -663.75 29.4 L-654.75 49.4 Q-644.25 44.9 -633.75 39.9 M-542.25 66.9 L-532.25 86.9 -513.25 77.9 Q-517.75 67.9 -522.75 57.9 -532.25 62.4 -542.25 66.9 M-417.25 35.4 L-427.25 15.4 -446.25 24.4 -436.25 44.9 Q-426.75 40.4 -417.25 35.4 M-349.25 -22.6 L-369.25 -13.6 Q-364.25 -3.6 -359.75 6.4 -349.75 1.9 -340.25 -3.1 L-349.25 -22.6 M-249.75 -69.1 Q-259.25 -64.6 -268.75 -60.6 L-259.25 -40.1 -239.75 -49.1 -249.75 -69.1 M-676.25 -47.6 L-686.25 -68.1 -705.25 -59.1 Q-700.25 -49.1 -695.75 -39.1 -685.75 -43.1 -676.25 -47.6 M-747.25 -57.6 L-652.75 -101.6 -589.75 33.4 Q-591.75 34.4 -593.75 34.9 L-590.75 41.4 Q-587.25 39.9 -584.25 38.4 L-587.25 32.4 -261.75 -119.6 -216.75 -22.6 -638.75 174.4 Q-692.75 58.4 -747.25 -57.6 M-1008.75 89.9 L-849.25 148.9 -858.25 173.9 Q-938.25 144.9 -1018.25 115.4 -1013.25 102.9 -1008.75 89.9" fill="#6f6f6f" fill-rule="evenodd" stroke="none"/>
    <path d="M-64.25 -149.6 Q-66.25 -175.6 -68.75 -201.6 L-24.75 -205.6 -23.75 -193.1 -18.75 -193.6 -14.75 -154.6 -20.75 -154.1 -20.75 -153.1 -31.75 -152.1 Q-31.25 -150.6 -31.25 -149.6 L-21.25 -150.6 Q-20.75 -148.6 -20.75 -146.6 L0.25 -148.1 Q1.75 -131.6 2.75 -115.1 L5.75 -115.1 Q5.75 -119.6 5.25 -124.6 L68.25 -130.1 Q68.75 -125.1 68.75 -120.1 69.75 -120.1 70.75 -120.6 L72.75 -94.6 Q72.25 -94.1 71.25 -94.1 L72.25 -85.1 8.75 -80.1 7.75 -89.6 4.75 -89.1 Q6.25 -74.1 7.25 -59.6 L2.75 -59.1 Q3.25 -55.6 3.25 -52.1 L7.75 -52.6 Q9.75 -31.1 11.25 -10.1 L13.25 -10.1 Q13.25 -13.6 12.75 -17.6 L38.75 -19.6 41.75 17.9 16.25 19.9 15.25 12.4 12.75 12.4 14.75 36.4 -14.25 38.4 Q-13.75 40.4 -13.75 41.9 L-4.25 41.4 -2.25 68.9 48.75 64.9 51.75 100.4 -8.75 104.9 -8.75 108.4 -34.75 110.4 -34.75 107.4 -44.75 107.9 -49.75 44.9 -39.75 43.9 Q-39.75 42.4 -40.25 40.9 L-69.25 42.9 Q-70.25 26.4 -71.75 9.9 L-74.75 9.9 Q-74.25 14.9 -74.25 19.9 L-137.25 24.9 -132.25 87.9 -177.75 91.4 -183.75 18.4 -184.75 18.4 Q-185.75 5.9 -187.25 -7.1 L-185.25 -7.1 -186.25 -16.6 -78.75 -25.6 -77.75 -25.6 Q-77.25 -20.6 -77.25 -15.6 -75.25 -15.6 -73.75 -16.1 -74.75 -30.6 -76.25 -45.6 L-71.75 -46.1 Q-71.75 -49.1 -72.25 -52.6 L-76.25 -51.6 -79.25 -82.6 -82.25 -82.6 -81.25 -72.6 -144.75 -67.6 -145.75 -77.6 -149.25 -77.1 -151.25 -102.6 -147.75 -103.1 -148.75 -112.6 -85.25 -117.6 Q-84.75 -112.6 -84.75 -108.1 L-81.25 -108.6 Q-82.25 -125.1 -83.75 -141.6 L-62.75 -143.1 Q-62.75 -145.1 -63.25 -147.1 L-52.75 -148.1 -52.75 -150.6 -64.25 -149.6" fill="#959595" fill-rule="evenodd" stroke="none"/>
    <path d="M-21.75 -154.6 L-62.75 -151.1 Q-64.75 -175.6 -67.25 -200.1 L-26.25 -203.1 Q-23.75 -178.6 -21.75 -154.6" fill="#6f6f6f" fill-rule="evenodd" stroke="none"/>
  </g>
</svg>
