<?xml version="1.0" encoding="UTF-8" standalone="no"?>
<svg xmlns:ffdec="https://www.free-decompiler.com/flash" xmlns:xlink="http://www.w3.org/1999/xlink" ffdec:objectType="shape" height="1237.95px" width="510.0px" xmlns="http://www.w3.org/2000/svg">
  <g transform="matrix(1.0, 0.0, 0.0, 1.0, 255.0, 512.95)">
    <path d="M-182.4 -494.0 L-182.4 -512.95 174.6 -512.95 174.6 -494.0 255.0 -494.0 255.0 694.4 174.6 694.4 174.6 725.0 -182.4 725.0 -182.4 694.4 -255.0 694.4 -255.0 -494.0 -182.4 -494.0" fill="#434343" fill-rule="evenodd" stroke="none"/>
    <path d="M-41.05 302.85 L-28.45 302.85 -28.45 296.85 28.1 296.85 28.1 302.85 75.8 302.85 75.8 389.8 37.9 389.8 37.9 395.55 39.05 395.55 39.05 401.4 120.6 401.4 120.6 541.85 45.15 541.85 45.15 545.9 120.6 545.9 120.6 691.6 39.2 691.6 39.2 696.0 -39.4 696.0 -39.4 691.6 -120.85 691.6 -120.85 545.9 -46.7 545.9 -46.7 541.85 -120.85 541.85 -120.85 401.4 -39.7 401.4 -39.7 395.55 -37.95 395.55 -37.95 389.8 -44.8 389.8 -68.75 342.5 -41.05 302.85" fill="#969696" fill-rule="evenodd" stroke="none"/>
    <path d="M-45.0 347.75 L-45.0 389.8 -80.85 389.8 -80.85 302.85 -41.05 302.85 -45.0 347.75" fill="#707070" fill-rule="evenodd" stroke="none"/>
    <path d="M101.85 401.4 L120.6 401.4 120.6 541.85 110.3 541.85 110.3 499.15 107.85 493.05 84.15 475.35 84.15 464.0 108.85 446.0 110.3 442.35 110.3 441.9 101.85 401.4" fill="#707070" fill-rule="evenodd" stroke="none"/>
    <path d="M-84.5 475.35 L-108.25 493.05 -110.65 499.15 -110.65 541.85 -120.85 541.85 -120.85 401.4 -102.2 401.4 -110.65 441.9 -110.65 442.35 -109.2 446.0 -84.5 464.0 -84.5 475.35" fill="#707070" fill-rule="evenodd" stroke="none"/>
    <path d="M53.4 545.9 L120.6 545.9 120.6 691.6 46.25 691.6 49.65 680.95 53.4 678.15 53.4 545.9" fill="#707070" fill-rule="evenodd" stroke="none"/>
    <path d="M-53.8 545.9 L-53.8 678.15 -50.05 680.95 -46.6 691.6 -120.85 691.6 -120.85 545.9 -53.8 545.9" fill="#707070" fill-rule="evenodd" stroke="none"/>
    <path d="M-143.6 100.5 L-120.85 100.5 -120.85 192.5 -143.6 192.5 -143.6 100.5" fill="#969696" fill-rule="evenodd" stroke="none"/>
    <path d="M120.6 100.5 L142.65 100.5 142.65 192.5 120.6 192.5 120.6 100.5" fill="#969696" fill-rule="evenodd" stroke="none"/>
    <path d="M28.1 -103.15 L28.1 -96.85 37.7 -96.85 37.7 -87.7 55.2 -87.7 55.2 -19.95 37.9 -19.95 37.9 -4.45 39.05 -4.45 39.05 1.35 120.6 1.35 120.6 72.5 119.35 72.5 119.35 96.25 104.35 96.25 104.35 100.5 120.6 100.5 120.6 192.5 105.0 192.5 105.0 196.75 120.0 196.75 120.0 219.7 120.6 219.7 120.6 291.6 39.2 291.6 39.2 296.0 28.1 296.0 28.1 308.8 -28.45 308.8 -28.45 296.0 -39.4 296.0 -39.4 291.6 -120.85 291.6 -120.85 196.75 -105.95 196.75 -105.95 192.5 -120.85 192.5 -120.85 100.5 -105.3 100.5 -105.3 96.25 -120.3 96.25 -120.3 72.5 -120.85 72.5 -120.85 1.35 -39.7 1.35 -39.7 -4.45 -37.95 -4.45 -37.95 -19.95 -55.65 -19.95 -55.65 -87.7 -38.35 -87.7 -38.35 -96.85 -28.45 -96.85 -28.45 -103.15 28.1 -103.15" fill="#969696" fill-rule="evenodd" stroke="none"/>
    <path d="M119.35 96.25 L104.35 96.25 104.35 100.5 142.65 100.5 142.65 192.5 105.0 192.5 105.0 196.75 120.0 196.75 120.0 219.7 148.1 219.7 148.1 291.6 90.0 291.6 90.0 1.35 148.1 1.35 148.1 72.5 119.35 72.5 119.35 96.25" fill="#707070" fill-rule="evenodd" stroke="none"/>
    <path d="M-150.0 72.5 L-150.0 1.35 -76.9 1.35 -76.9 98.15 -91.25 112.85 -91.25 180.05 -76.9 194.75 -76.9 291.6 -150.0 291.6 -150.0 219.7 -120.95 219.7 -120.95 196.75 -105.95 196.75 -105.95 192.5 -143.6 192.5 -143.6 100.5 -105.3 100.5 -105.3 96.25 -120.3 96.25 -120.3 72.5 -150.0 72.5" fill="#707070" fill-rule="evenodd" stroke="none"/>
    <path d="M-103.25 -489.85 L-103.25 -503.2 103.35 -503.2 103.35 -489.85 120.6 -489.85 120.6 -104.0 28.1 -104.0 28.1 -91.2 -28.45 -91.2 -28.45 -104.0 -120.85 -104.0 -120.85 -489.85 -103.25 -489.85" fill="#969696" fill-rule="evenodd" stroke="none"/>
    <path d="M-96.8 -512.95 L96.75 -512.95 96.75 -503.2 -96.8 -503.2 -96.8 -512.95" fill="#ffffff" fill-rule="evenodd" stroke="none"/>
  </g>
</svg>
