<?xml version="1.0" encoding="UTF-8" standalone="no"?>
<svg xmlns:ffdec="https://www.free-decompiler.com/flash" xmlns:xlink="http://www.w3.org/1999/xlink" ffdec:objectType="shape" height="202.75px" width="333.7px" xmlns="http://www.w3.org/2000/svg">
  <g transform="matrix(1.0, 0.0, 0.0, 1.0, 167.1, 104.25)">
    <path d="M166.6 98.5 L-167.1 98.5 -167.1 -104.25 -46.25 -104.25 3.9 -87.3 46.0 -104.25 166.6 -104.25 166.6 98.5" fill="#434343" fill-rule="evenodd" stroke="none"/>
    <path d="M79.9 -30.25 L79.9 -5.65 82.0 -5.65 82.0 -30.25 129.5 -30.25 129.5 -9.6 134.25 -9.6 134.25 -2.05 137.75 -2.05 137.75 15.5 134.25 15.5 134.25 23.4 129.5 23.4 129.5 44.75 82.0 44.75 82.0 19.35 79.9 19.35 79.9 44.75 60.5 44.75 60.5 94.75 21.25 94.75 21.25 84.5 -21.75 84.5 -21.75 94.75 -61.2 94.75 -61.2 44.75 -80.15 44.75 -80.15 19.35 -82.25 19.35 -82.25 44.75 -129.75 44.75 -129.75 23.4 -135.4 23.4 -135.4 15.5 -138.45 15.5 -138.45 -2.05 -135.4 -2.05 -135.4 -9.6 -129.75 -9.6 -129.75 -30.25 -82.25 -30.25 -82.25 -5.65 -80.15 -5.65 -80.15 -30.25 -61.2 -30.25 -61.2 -99.5 -46.25 -99.5 -46.25 -104.25 -6.45 -103.9 46.0 -104.25 46.0 -99.5 60.5 -99.5 60.5 -30.25 79.9 -30.25" fill="#969696" fill-rule="evenodd" stroke="none"/>
    <path d="M18.0 76.7 L18.0 84.5 -18.7 84.5 -18.7 76.7 18.0 76.7" fill="#707070" fill-rule="evenodd" stroke="none"/>
    <path d="M-61.2 -99.5 L-54.85 -99.5 -54.85 -30.65 -61.2 -30.65 -61.2 -99.5" fill="#707070" fill-rule="evenodd" stroke="none"/>
    <path d="M54.15 -99.5 L60.5 -99.5 60.5 -30.95 54.15 -30.95 54.15 -99.5" fill="#707070" fill-rule="evenodd" stroke="none"/>
    <path d="M-46.25 -104.25 L46.0 -104.25 46.0 -102.6 -46.25 -102.6 -46.25 -104.25" fill="#ffffff" fill-rule="evenodd" stroke="none"/>
    <path d="M163.6 -6.0 L163.6 20.5 137.75 20.5 137.75 -6.0 163.6 -6.0" fill="#ffffff" fill-rule="evenodd" stroke="none"/>
    <path d="M-164.1 -6.0 L-138.45 -6.0 -138.45 20.5 -164.1 20.5 -164.1 -6.0" fill="#ffffff" fill-rule="evenodd" stroke="none"/>
  </g>
</svg>
