<?xml version="1.0" encoding="UTF-8" standalone="no"?>
<svg xmlns:ffdec="https://www.free-decompiler.com/flash" xmlns:xlink="http://www.w3.org/1999/xlink" ffdec:objectType="shape" height="518.2px" width="821.4px" xmlns="http://www.w3.org/2000/svg">
  <g transform="matrix(1.0, 0.0, 0.0, 1.0, 274.15, 371.35)">
    <path d="M222.75 -41.35 L222.75 66.15 43.25 66.15 43.25 123.15 -141.7 123.15 -141.7 60.15 -138.7 60.15 -138.7 -62.85 -141.2 -62.85 -141.2 -123.35 -191.7 -176.35 -141.7 -227.35 -141.7 -308.35 -211.7 -308.35 -211.7 -315.35 -147.7 -371.35 -105.7 -371.35 -105.7 -311.85 -59.25 -311.85 -8.25 -360.85 43.25 -310.35 311.25 -310.35 361.75 -360.35 413.75 -310.35 496.75 -310.35 496.75 -226.35 547.25 -176.85 496.75 -124.85 496.75 -41.35 413.75 -41.35 361.25 9.15 311.25 -41.35 222.75 -41.35" fill="#424242" fill-rule="evenodd" stroke="none"/>
    <path d="M291.75 -154.35 L294.25 -154.35 294.25 -158.85 279.75 -158.85 279.75 -155.85 291.75 -155.85 291.75 -154.35 M263.75 -158.85 L254.75 -158.85 254.75 -155.85 263.75 -155.85 263.75 -158.85 M53.75 -130.85 L53.75 -123.35 125.25 -123.35 125.25 -130.85 53.75 -130.85 M151.75 -302.85 L151.75 -297.35 154.75 -297.35 154.75 -280.85 151.75 -280.85 151.75 -278.85 154.75 -278.85 154.75 -274.85 151.75 -274.85 151.75 -272.85 154.75 -272.85 154.75 -230.35 151.75 -230.35 151.75 -219.85 213.25 -219.85 213.25 -217.85 216.75 -217.85 216.75 -229.85 226.75 -229.85 234.75 -230.85 237.25 -231.85 238.25 -252.35 253.75 -252.35 253.75 -229.85 310.75 -229.85 310.75 -235.85 462.75 -235.85 462.75 -229.85 494.25 -229.85 494.25 -201.35 Q502.75 -198.35 511.25 -195.85 L518.25 -188.85 522.25 -179.85 522.25 -169.85 Q520.75 -165.35 518.75 -160.85 L511.75 -153.85 502.75 -149.85 496.25 -148.85 496.25 -142.85 493.75 -142.85 493.75 -130.35 463.25 -130.35 463.25 -124.85 311.25 -124.85 311.25 -130.35 294.75 -130.35 294.75 -133.85 291.75 -133.85 291.75 -118.35 220.25 -118.35 220.25 -155.85 227.75 -155.85 227.75 -158.35 216.75 -158.35 216.75 -160.35 214.75 -160.35 214.75 -156.85 Q214.25 -155.35 213.25 -153.85 213.75 -142.35 213.75 -130.85 L185.75 -130.85 185.75 -123.35 214.25 -123.35 214.25 -111.85 280.75 -111.85 280.75 -80.85 251.25 -80.85 251.25 -77.85 235.25 -77.85 235.25 -80.85 208.25 -80.85 208.25 -77.85 192.25 -77.85 192.25 -80.85 150.25 -80.85 150.75 -79.35 Q151.75 -78.85 152.25 -78.35 L158.25 -78.35 Q158.75 -70.85 158.75 -63.35 L169.75 -63.35 169.75 -50.85 172.75 -50.85 172.75 -19.35 169.75 -19.35 169.75 -13.85 159.25 -13.85 159.25 2.15 164.75 2.15 164.75 19.65 158.75 19.65 158.75 35.15 Q147.25 35.15 135.25 34.65 L135.25 50.15 101.25 50.15 101.25 54.15 70.25 54.15 70.25 50.15 52.75 50.15 52.75 34.65 15.25 34.65 15.25 49.15 25.25 49.15 25.25 57.65 28.25 57.65 28.25 73.15 25.25 73.15 Q25.75 76.65 25.75 80.15 L5.75 80.15 5.75 94.65 10.25 94.65 10.25 89.15 25.75 89.15 25.75 95.65 29.25 95.65 29.25 110.65 25.75 110.65 25.75 114.15 -73.75 114.15 -73.75 115.65 -116.7 115.65 -116.7 114.15 -136.2 114.15 -136.2 -7.85 -139.2 -7.85 -139.2 -56.35 -136.2 -56.35 -136.2 -80.85 -15.25 -80.85 -15.25 -62.35 13.75 -62.35 13.75 -32.85 16.25 -32.85 16.25 -30.85 24.25 -30.85 Q26.75 -32.35 28.75 -34.35 L24.75 -39.35 Q23.75 -38.35 22.25 -37.85 L20.75 -37.85 20.75 -62.35 15.75 -62.35 15.75 -64.35 17.75 -64.35 17.75 -73.85 28.25 -73.85 28.25 -76.85 34.75 -76.85 Q36.25 -74.35 37.25 -71.85 37.75 -71.85 38.25 -72.35 39.25 -70.35 39.75 -68.35 46.25 -70.85 52.75 -73.85 L56.75 -73.85 56.75 -62.35 49.75 -57.35 53.25 -51.35 62.25 -58.35 Q62.75 -68.35 62.75 -78.35 L96.75 -78.35 98.25 -80.35 Q97.75 -80.35 96.75 -80.85 L28.25 -80.85 28.25 -79.85 12.25 -79.85 12.25 -80.85 3.75 -80.85 3.75 -86.85 Q2.75 -86.35 1.25 -86.35 L1.25 -117.85 3.75 -117.85 3.75 -123.85 22.25 -123.85 22.25 -130.85 8.25 -130.85 8.25 -189.85 -0.75 -189.85 -0.75 -220.35 120.75 -220.35 120.75 -252.85 118.25 -252.85 118.25 -283.35 120.75 -283.35 120.75 -302.85 151.75 -302.85" fill="#959595" fill-rule="evenodd" stroke="none"/>
    <path d="M-139.2 -56.35 L-136.2 -56.35 -136.2 -7.85 -139.2 -7.85 -139.2 -56.35" fill="#ffffff" fill-rule="evenodd" stroke="none"/>
    <path d="M-85.25 67.65 L-95.7 67.65 -95.7 58.15 -85.25 58.15 -85.25 67.65" fill="#424242" fill-rule="evenodd" stroke="none"/>
    <path d="M127.75 -24.85 L127.75 -14.85 117.25 -14.85 117.25 -24.85 127.75 -24.85" fill="#424242" fill-rule="evenodd" stroke="none"/>
    <path d="M-53.25 -32.35 L-64.25 -32.35 -64.25 -41.85 -53.25 -41.85 -53.25 -32.35" fill="#424242" fill-rule="evenodd" stroke="none"/>
    <path d="M-20.25 82.65 L-29.25 82.65 -29.25 75.15 -20.25 75.15 -20.25 82.65" fill="#6f6f6f" fill-rule="evenodd" stroke="none"/>
    <path d="M24.75 80.15 L6.75 80.15 6.75 73.65 24.75 73.65 24.75 80.15" fill="#6f6f6f" fill-rule="evenodd" stroke="none"/>
    <path d="M122.75 47.15 L113.25 47.15 113.25 38.65 122.75 38.65 122.75 47.15" fill="#6f6f6f" fill-rule="evenodd" stroke="none"/>
    <path d="M134.25 47.65 L125.25 47.65 125.25 39.15 134.25 39.15 134.25 47.65" fill="#6f6f6f" fill-rule="evenodd" stroke="none"/>
    <path d="M134.75 18.65 L127.25 18.65 127.25 12.65 134.75 12.65 134.75 18.65" fill="#6f6f6f" fill-rule="evenodd" stroke="none"/>
    <path d="M135.75 10.15 L126.75 10.15 126.75 2.65 135.75 2.65 135.75 10.15" fill="#6f6f6f" fill-rule="evenodd" stroke="none"/>
    <path d="M135.75 -18.35 L129.25 -18.35 129.25 -26.35 135.75 -26.35 135.75 -18.35" fill="#6f6f6f" fill-rule="evenodd" stroke="none"/>
    <path d="M136.25 -27.35 L131.25 -31.35 135.75 -37.35 Q138.75 -35.35 141.25 -33.85 L136.25 -27.35" fill="#6f6f6f" fill-rule="evenodd" stroke="none"/>
    <path d="M141.25 -38.35 L135.75 -40.35 Q138.75 -47.85 141.25 -55.85 L146.75 -53.85 Q144.25 -45.85 141.25 -38.35" fill="#6f6f6f" fill-rule="evenodd" stroke="none"/>
    <path d="M102.25 27.15 L102.25 7.65 114.75 7.65 114.75 27.15 102.25 27.15" fill="#6f6f6f" fill-rule="evenodd" stroke="none"/>
    <path d="M124.75 18.15 Q123.75 24.15 122.25 30.15 L115.25 27.15 Q116.75 22.65 117.75 18.15 L117.75 0.15 124.75 0.15 124.75 18.15" fill="#6f6f6f" fill-rule="evenodd" stroke="none"/>
    <path d="M92.75 17.65 L96.75 10.15 Q98.75 11.65 100.75 12.65 99.25 17.15 97.25 21.65 L112.25 29.65 112.25 32.65 115.75 35.65 110.75 42.65 Q107.75 40.65 104.75 38.15 L107.75 34.65 92.25 27.15 92.25 24.65 Q88.75 26.15 85.25 27.15 L84.25 33.15 69.25 31.15 Q64.25 32.65 59.25 33.65 L57.25 27.15 68.25 25.15 78.25 26.65 78.25 23.15 Q85.75 20.65 92.75 17.65" fill="#6f6f6f" fill-rule="evenodd" stroke="none"/>
    <path d="M110.25 -19.85 L114.75 -17.35 105.75 2.65 100.75 8.65 97.25 5.15 110.25 -19.85" fill="#6f6f6f" fill-rule="evenodd" stroke="none"/>
    <path d="M155.25 -49.85 L148.25 -49.35 Q147.75 -56.85 146.75 -64.85 L156.75 -65.35 160.75 -57.35 154.75 -54.35 Q155.25 -51.85 155.25 -49.85" fill="#6f6f6f" fill-rule="evenodd" stroke="none"/>
    <path d="M-10.25 -47.35 Q-18.25 -44.35 -26.75 -41.85 L-28.75 -48.35 Q-20.75 -50.85 -12.75 -53.85 -11.25 -50.35 -10.25 -47.35" fill="#6f6f6f" fill-rule="evenodd" stroke="none"/>
    <path d="M-0.25 -52.35 L-9.25 -52.35 -9.25 -61.35 -0.25 -61.35 -0.25 -52.35" fill="#6f6f6f" fill-rule="evenodd" stroke="none"/>
    <path d="M-44.25 -55.35 L-53.75 -55.35 -53.75 -65.35 -44.25 -65.35 -44.25 -55.35" fill="#6f6f6f" fill-rule="evenodd" stroke="none"/>
    <path d="M-63.25 -54.85 L-73.25 -54.85 -73.25 -64.85 -63.25 -64.85 -63.25 -54.85" fill="#6f6f6f" fill-rule="evenodd" stroke="none"/>
    <path d="M-65.75 -44.85 L-71.25 -44.35 Q-71.25 -47.35 -71.75 -50.85 L-66.25 -51.35 Q-65.75 -47.85 -65.75 -44.85" fill="#6f6f6f" fill-rule="evenodd" stroke="none"/>
    <path d="M-88.75 -45.35 L-94.7 -44.85 Q-94.7 -47.85 -95.2 -51.35 L-89.25 -51.85 Q-88.75 -48.35 -88.75 -45.35" fill="#6f6f6f" fill-rule="evenodd" stroke="none"/>
    <path d="M-99.2 -47.85 Q-101.7 -45.85 -104.2 -44.35 -106.2 -47.35 -108.7 -50.35 -106.2 -51.85 -103.7 -53.85 -101.2 -50.85 -99.2 -47.85" fill="#6f6f6f" fill-rule="evenodd" stroke="none"/>
    <path d="M-56.25 -43.35 L-62.75 -43.35 -62.75 -50.35 -56.25 -50.35 -56.25 -43.35" fill="#6f6f6f" fill-rule="evenodd" stroke="none"/>
    <path d="M-102.2 -69.85 L-108.2 -69.85 Q-108.2 -73.35 -108.7 -76.85 L-102.2 -76.85 -102.2 -69.85" fill="#6f6f6f" fill-rule="evenodd" stroke="none"/>
    <path d="M-88.25 -69.35 L-94.2 -69.35 Q-94.2 -72.85 -94.7 -76.85 L-88.25 -76.85 -88.25 -69.35" fill="#6f6f6f" fill-rule="evenodd" stroke="none"/>
    <path d="M-88.75 -57.85 L-105.2 -57.85 -105.2 -65.35 -88.75 -65.35 -88.75 -57.85" fill="#6f6f6f" fill-rule="evenodd" stroke="none"/>
    <path d="M11.75 -52.35 L2.75 -52.35 2.75 -61.35 11.75 -61.35 11.75 -52.35" fill="#6f6f6f" fill-rule="evenodd" stroke="none"/>
    <path d="M-70.25 35.15 Q-67.75 34.15 -65.75 32.65 L-59.75 43.65 -55.75 47.15 -49.25 47.65 -50.25 52.15 -59.25 51.15 -65.25 46.15 -70.25 35.15" fill="#6f6f6f" fill-rule="evenodd" stroke="none"/>
    <path d="M-94.2 40.15 L-82.75 45.15 -80.25 47.65 -70.25 47.65 -71.25 54.65 -82.75 53.15 Q-83.75 52.15 -85.25 51.15 -90.7 47.65 -96.7 44.15 -95.2 42.15 -94.2 40.15" fill="#6f6f6f" fill-rule="evenodd" stroke="none"/>
    <path d="M-100.2 26.15 L-89.25 30.15 Q-87.75 31.15 -86.75 32.15 L-75.75 31.15 Q-75.25 34.15 -75.25 37.15 L-85.75 37.65 Q-88.25 36.65 -90.7 35.15 L-102.2 31.15 -100.2 26.15" fill="#6f6f6f" fill-rule="evenodd" stroke="none"/>
    <path d="M-105.7 35.15 Q-105.2 38.15 -105.2 41.15 L-119.7 42.65 -135.2 41.15 -133.2 35.65 -120.2 37.15 -105.7 35.15" fill="#6f6f6f" fill-rule="evenodd" stroke="none"/>
    <path d="M-105.7 47.65 Q-106.7 51.15 -108.2 54.15 L-120.2 51.15 -134.2 50.65 Q-134.2 47.65 -134.7 44.65 L-119.7 44.15 Q-112.7 46.15 -105.7 47.65" fill="#6f6f6f" fill-rule="evenodd" stroke="none"/>
    <path d="M-133.7 10.15 L-105.7 12.15 Q-105.7 15.15 -106.2 18.15 L-134.2 15.65 Q-133.7 13.15 -133.7 10.15" fill="#6f6f6f" fill-rule="evenodd" stroke="none"/>
    <path d="M-116.2 28.65 L-133.7 28.65 -133.7 21.15 -116.2 21.15 -116.2 28.65" fill="#6f6f6f" fill-rule="evenodd" stroke="none"/>
    <path d="M-39.75 -32.35 L-53.25 -32.35 -53.25 -41.85 -39.75 -41.85 -39.75 -32.35 M-78.25 -32.35 L-78.25 -41.85 -64.25 -41.85 -64.25 -32.35 -78.25 -32.35 M127.75 -14.85 L127.75 -0.85 117.25 -0.85 117.25 -14.85 127.75 -14.85 M15.75 47.65 L4.25 47.65 4.25 41.65 -7.75 41.65 -20.25 50.65 -23.25 45.65 -9.75 36.65 Q3.25 36.65 15.75 36.15 L15.75 47.65 M-48.25 89.15 L-48.25 63.65 -30.25 50.15 -26.75 54.65 Q-34.25 60.65 -41.75 66.15 -41.75 75.15 -42.25 84.15 L-17.25 84.15 -17.25 89.65 Q-32.75 89.65 -48.25 89.15 M-85.25 58.15 L-71.25 58.15 -71.25 67.65 -85.25 67.65 -85.25 58.15 M-109.7 58.15 L-95.7 58.15 -95.7 67.65 -109.7 67.65 -109.7 58.15" fill="#6f6f6f" fill-rule="evenodd" stroke="none"/>
    <path d="M17.75 -72.35 L17.75 -73.85 28.25 -73.85 28.25 -76.85 36.25 -76.85 41.75 -64.35 29.75 -59.35 27.75 -62.85 Q32.25 -64.85 36.25 -66.85 L34.25 -72.35 17.75 -72.35" fill="#6f6f6f" fill-rule="evenodd" stroke="none"/>
    <path d="M129.25 -55.35 L134.25 -54.35 Q131.75 -40.35 128.75 -26.35 L123.25 -27.35 129.25 -55.35" fill="#6f6f6f" fill-rule="evenodd" stroke="none"/>
    <path d="M158.25 -67.85 L154.75 -67.85 154.75 -72.35 158.25 -72.35 158.25 -67.85" fill="#6f6f6f" fill-rule="evenodd" stroke="none"/>
    <path d="M157.25 -57.85 L151.75 -57.85 151.75 -68.85 157.25 -68.85 157.25 -57.85" fill="#6f6f6f" fill-rule="evenodd" stroke="none"/>
    <path d="M153.75 -72.35 Q151.75 -72.85 149.25 -73.85 146.25 -67.35 142.75 -60.85 L147.25 -58.85 Q147.25 -57.85 146.75 -57.35 143.75 -58.35 140.75 -59.85 L148.75 -75.85 154.25 -73.85 Q154.25 -72.85 153.75 -72.35" fill="#6f6f6f" fill-rule="evenodd" stroke="none"/>
    <path d="M212.25 -123.35 L212.25 -118.85 202.25 -118.85 202.25 -123.35 212.25 -123.35" fill="#6f6f6f" fill-rule="evenodd" stroke="none"/>
    <path d="M-67.75 -71.35 L-74.25 -71.35 -74.25 -77.35 -67.75 -77.35 -67.75 -71.35" fill="#6f6f6f" fill-rule="evenodd" stroke="none"/>
    <path d="M-59.75 -70.35 L-66.75 -70.35 -66.75 -77.35 -59.75 -77.35 -59.75 -70.35" fill="#6f6f6f" fill-rule="evenodd" stroke="none"/>
    <path d="M-50.75 -71.35 L-57.25 -71.35 -57.25 -77.85 -50.75 -77.85 -50.75 -71.35" fill="#6f6f6f" fill-rule="evenodd" stroke="none"/>
    <path d="M-43.25 -71.35 L-49.75 -71.35 -49.75 -77.35 -43.25 -77.35 -43.25 -71.35" fill="#6f6f6f" fill-rule="evenodd" stroke="none"/>
    <path d="M-35.25 -68.85 L-41.75 -68.85 -41.75 -76.35 -35.25 -76.35 -35.25 -68.85" fill="#6f6f6f" fill-rule="evenodd" stroke="none"/>
    <path d="M-26.75 -68.35 L-33.25 -68.35 -33.25 -75.35 -26.75 -75.35 -26.75 -68.35" fill="#6f6f6f" fill-rule="evenodd" stroke="none"/>
    <path d="M-18.75 -67.85 L-25.25 -68.85 -24.25 -76.35 -17.75 -74.85 -18.75 -67.85" fill="#6f6f6f" fill-rule="evenodd" stroke="none"/>
    <path d="M55.75 -130.85 L70.75 -150.85 93.75 -150.85 93.75 -145.35 74.25 -145.35 Q68.75 -137.85 63.25 -130.85 L55.75 -130.85" fill="#6f6f6f" fill-rule="evenodd" stroke="none"/>
    <path d="M121.75 -150.85 L121.75 -130.85 116.25 -130.85 116.25 -145.35 100.75 -145.35 100.75 -150.85 121.75 -150.85" fill="#6f6f6f" fill-rule="evenodd" stroke="none"/>
    <path d="M154.75 -233.85 L149.75 -233.85 149.75 -243.85 154.75 -243.85 154.75 -233.85" fill="#6f6f6f" fill-rule="evenodd" stroke="none"/>
    <path d="M-274.15 136.85 L-264.15 136.85 -264.15 146.85 -274.15 146.85 -274.15 136.85" fill="#424242" fill-rule="evenodd" stroke="none"/>
    <path d="M-274.15 71.4 L-264.15 71.4 -264.15 81.4 -274.15 81.4 -274.15 71.4" fill="#424242" fill-rule="evenodd" stroke="none"/>
    <path d="M-274.15 2.45 L-264.15 2.45 -264.15 12.45 -274.15 12.45 -274.15 2.45" fill="#424242" fill-rule="evenodd" stroke="none"/>
    <path d="M-274.15 -62.55 L-264.15 -62.55 -264.15 -52.55 -274.15 -52.55 -274.15 -62.55" fill="#424242" fill-rule="evenodd" stroke="none"/>
    <path d="M-274.15 -190.1 L-264.15 -190.1 -264.15 -180.1 -274.15 -180.1 -274.15 -190.1" fill="#424242" fill-rule="evenodd" stroke="none"/>
    <path d="M-274.15 -267.05 L-264.15 -267.05 -264.15 -257.05 -274.15 -257.05 -274.15 -267.05" fill="#424242" fill-rule="evenodd" stroke="none"/>
  </g>
</svg>
