<?xml version="1.0" encoding="UTF-8" standalone="no"?>
<svg xmlns:ffdec="https://www.free-decompiler.com/flash" xmlns:xlink="http://www.w3.org/1999/xlink" ffdec:objectType="shape" height="458.9px" width="1043.3px" xmlns="http://www.w3.org/2000/svg">
  <g transform="matrix(1.0, 0.0, 0.0, 1.0, 478.3, 242.5)">
    <path d="M564.0 -93.0 L562.0 -77.0 563.0 118.0 565.0 131.0 522.75 113.0 456.15 113.0 383.7 109.05 263.65 113.15 225.7 103.7 191.55 109.3 -4.0 112.05 -31.05 149.9 -46.05 159.15 -111.5 193.95 -172.2 216.4 -259.6 190.5 -316.45 149.65 -344.0 105.45 -348.4 104.8 -397.05 106.65 -439.5 111.05 -478.0 120.0 -478.3 109.35 -478.3 -74.3 -478.0 -90.0 -441.6 -78.55 -419.7 -79.3 -383.65 -78.9 -350.4 -73.0 -308.5 -78.0 -244.9 -76.6 -184.55 -71.3 -107.65 -71.3 -34.3 -76.0 23.4 -73.55 23.55 -73.65 28.1 -81.85 59.7 -101.25 74.9 -113.2 63.75 -203.2 105.75 -242.5 191.2 -242.0 228.1 -233.65 267.65 -241.1 300.75 -227.2 335.3 -201.55 417.8 -202.1 432.65 -187.1 422.45 -95.4 426.75 -77.0 523.15 -77.0 564.0 -93.0" fill="#434343" fill-rule="evenodd" stroke="none"/>
    <path d="M540.0 -45.0 L562.0 -77.0 563.0 118.0 541.0 81.0 457.0 81.0 384.0 77.0 267.0 81.0 227.0 71.0 188.7 77.35 -26.4 80.4 -23.3 84.0 -53.3 126.0 -62.0 131.35 -124.65 164.7 -173.3 182.7 -245.3 161.35 -292.65 127.35 -314.65 92.0 -310.85 82.2 -315.3 77.35 -346.65 72.7 -399.3 74.7 -456.65 80.7 -478.3 109.35 -478.3 -74.3 -457.3 -46.0 -419.3 -47.3 -386.65 -46.9 -351.3 -40.65 -306.95 -46.0 -246.65 -44.65 -186.0 -39.3 -106.65 -39.3 -34.0 -44.0 36.0 -41.0 36.0 -44.0 47.0 -50.0 52.0 -59.0 78.0 -75.0 106.0 -97.0 112.5 -210.5 187.55 -210.0 227.5 -201.0 272.5 -209.5 324.5 -169.5 398.5 -170.0 390.0 -93.5 399.0 -55.0 404.0 -45.5 412.0 -45.0 540.0 -45.0" fill="#969696" fill-rule="evenodd" stroke="none"/>
  </g>
</svg>
