<?xml version="1.0" encoding="UTF-8" standalone="no"?>
<svg xmlns:ffdec="https://www.free-decompiler.com/flash" xmlns:xlink="http://www.w3.org/1999/xlink" ffdec:objectType="shape" height="245.35px" width="368.2px" xmlns="http://www.w3.org/2000/svg">
  <g transform="matrix(1.0, 0.0, 0.0, 1.0, 183.45, 108.0)">
    <path d="M184.75 137.35 L-183.45 137.35 -183.45 -108.0 184.75 -108.0 184.75 137.35" fill="#494242" fill-rule="evenodd" stroke="none"/>
    <path d="M-131.0 -105.3 L-127.7 -105.3 -127.7 -54.5 -139.75 -54.5 -139.75 -49.5 -181.0 -49.5 -181.0 -97.25 -176.35 -97.25 -176.35 -105.3 -138.1 -105.3 -138.1 -97.25 -131.0 -97.25 -131.0 -105.3" fill="#969696" fill-rule="evenodd" stroke="none"/>
    <path d="M177.15 -97.25 L182.3 -97.25 182.3 127.0 177.15 127.0 177.15 134.7 139.15 134.7 139.15 127.0 132.05 127.0 132.05 134.7 94.15 134.7 94.15 127.0 87.05 127.0 87.05 134.7 49.05 134.7 49.05 127.0 41.95 127.0 41.95 134.7 3.7 134.7 3.7 127.0 -3.4 127.0 -3.4 134.7 -41.2 134.7 -41.2 127.0 -48.25 127.0 -48.25 134.7 -86.5 134.7 -86.5 127.0 -93.6 127.0 -93.6 134.7 -131.0 134.7 -131.0 127.0 -138.1 127.0 -138.1 134.7 -176.35 134.7 -176.35 127.0 -181.0 127.0 -181.0 41.7 -138.1 41.7 -138.1 29.25 -139.75 29.0 -139.75 37.75 -181.0 37.75 -181.0 -47.8 -139.75 -47.8 -139.75 16.85 -138.1 16.85 -138.1 -52.8 -126.0 -52.8 -126.0 -105.3 -93.6 -105.3 -93.6 -97.25 -86.5 -97.25 -86.5 -105.3 -48.25 -105.3 -48.25 -97.25 -41.15 -97.25 -41.15 -105.3 -3.35 -105.3 -3.35 -97.25 3.75 -97.25 3.75 -105.3 41.95 -105.3 41.95 -97.25 49.05 -97.25 49.05 -105.3 87.1 -105.3 87.1 -97.25 94.15 -97.25 94.15 -105.3 132.1 -105.3 132.1 -97.25 139.15 -97.25 139.15 -105.3 177.15 -105.3 177.15 -97.25" fill="#969696" fill-rule="evenodd" stroke="none"/>
    <path d="M-49.0 134.8 L-76.1 134.8 -76.1 125.2 -49.0 125.2 -49.0 134.8" fill="#707070" fill-rule="evenodd" stroke="none"/>
    <path d="M-96.4 134.8 L-123.5 134.8 -123.5 125.95 -96.4 125.95 -96.4 134.8" fill="#707070" fill-rule="evenodd" stroke="none"/>
    <path d="M132.05 134.7 L104.25 134.7 104.25 125.45 132.05 125.45 132.05 134.7" fill="#707070" fill-rule="evenodd" stroke="none"/>
    <path d="M-151.95 41.7 L-151.95 44.95 -172.2 44.95 -172.2 41.7 -151.95 41.7" fill="#707070" fill-rule="evenodd" stroke="none"/>
    <path d="M-176.7 37.75 L-176.7 32.65 -151.5 32.65 -151.5 37.75 -176.7 37.75" fill="#707070" fill-rule="evenodd" stroke="none"/>
    <path d="M-181.0 21.25 L-181.0 5.6 -172.4 5.6 -172.4 21.25 -181.0 21.25" fill="#707070" fill-rule="evenodd" stroke="none"/>
    <path d="M-181.0 -8.1 L-176.45 -8.1 -176.45 4.75 -181.0 4.75 -181.0 -8.1" fill="#707070" fill-rule="evenodd" stroke="none"/>
    <path d="M-139.75 -13.85 L-139.75 10.85 -151.1 10.85 -151.1 -13.85 -139.75 -13.85" fill="#707070" fill-rule="evenodd" stroke="none"/>
    <path d="M-139.75 -26.6 L-139.75 -13.85 -146.85 -13.85 -146.85 -26.6 -139.75 -26.6" fill="#707070" fill-rule="evenodd" stroke="none"/>
    <path d="M-140.75 -41.25 L-159.45 -41.25 -159.45 -47.8 -140.75 -47.8 -140.75 -41.25" fill="#707070" fill-rule="evenodd" stroke="none"/>
    <path d="M182.3 -9.95 L184.75 -9.95 184.75 39.25 182.3 39.25 182.3 -9.95" fill="#ffffff" fill-rule="evenodd" stroke="none"/>
    <path d="M41.95 134.8 L41.95 137.35 3.7 137.35 3.7 134.8 41.95 134.8" fill="#ffffff" fill-rule="evenodd" stroke="none"/>
    <path d="M-41.2 137.35 L-41.2 134.8 -3.4 134.8 -3.4 137.35 -41.2 137.35" fill="#ffffff" fill-rule="evenodd" stroke="none"/>
    <path d="M-183.45 -14.4 L-183.45 -29.3 -181.0 -29.3 -181.0 -14.4 -183.45 -14.4" fill="#ffffff" fill-rule="evenodd" stroke="none"/>
  </g>
</svg>
