<?xml version="1.0" encoding="UTF-8" standalone="no"?>
<svg xmlns:ffdec="https://www.free-decompiler.com/flash" xmlns:xlink="http://www.w3.org/1999/xlink" ffdec:objectType="shape" height="569.15px" width="704.0px" xmlns="http://www.w3.org/2000/svg">
  <g transform="matrix(1.0, 0.0, 0.0, 1.0, 350.0, 309.0)">
    <path d="M354.0 -309.0 L354.0 260.15 -48.35 260.15 -48.35 94.15 -313.35 94.15 -313.35 53.8 -350.0 53.8 -350.0 -56.2 -313.35 -56.2 -313.35 -96.5 -48.35 -96.5 -48.35 -309.0 354.0 -309.0" fill="#434343" fill-rule="evenodd" stroke="none"/>
    <path d="M208.65 66.0 L208.65 -64.7 130.0 -64.7 130.0 66.0 208.65 66.0 M83.65 106.0 L83.65 100.65 63.5 100.65 63.5 149.3 83.3 149.3 83.3 120.65 190.0 120.65 190.0 141.3 199.0 141.3 199.0 121.0 209.0 121.0 209.0 111.0 237.5 111.0 237.5 103.3 209.65 103.3 209.65 100.65 180.5 100.65 180.5 106.0 83.65 106.0 M198.0 -128.7 L198.0 -123.7 187.3 -123.7 187.3 -128.7 181.3 -128.7 181.3 -122.3 74.25 -122.3 74.25 -109.05 69.5 -109.05 69.5 -104.35 222.3 -104.35 222.3 -128.7 198.0 -128.7 M140.0 -214.7 L80.3 -214.7 80.3 -186.8 140.0 -186.8 140.0 -214.7 M344.0 -293.0 L344.0 -278.7 349.5 -278.7 349.5 -128.7 344.0 -128.7 344.0 -104.0 349.5 -104.0 349.5 101.0 344.3 101.0 344.3 103.65 304.0 103.65 304.0 111.0 343.5 111.0 343.5 125.5 348.0 125.5 348.0 240.5 199.0 240.5 199.0 181.8 176.0 181.8 176.0 184.3 147.65 184.3 147.65 181.8 98.3 181.8 98.3 189.3 101.4 189.3 101.4 228.5 68.05 228.5 68.05 220.0 62.5 220.0 62.5 226.15 -17.2 226.15 -17.2 222.3 -25.5 222.3 -25.5 115.65 -18.2 115.65 -18.2 119.8 14.8 119.8 14.8 100.65 2.85 100.65 2.85 39.15 -52.7 39.15 -52.7 17.95 -64.0 17.95 -64.0 28.4 -58.25 28.4 -58.25 69.35 -77.0 69.35 -77.0 72.95 -111.2 72.95 -111.2 69.7 -124.2 69.7 -124.2 27.2 -150.0 27.2 -150.0 35.0 -139.0 35.0 -139.0 86.95 -191.2 86.95 -191.2 35.0 -180.2 35.0 -180.2 27.2 -216.0 27.2 -216.0 35.0 -205.0 35.0 -205.0 86.95 -257.2 86.95 -257.2 35.0 -246.2 35.0 -246.2 27.2 -274.0 27.2 -274.0 36.45 -286.5 36.45 -286.5 39.95 -321.2 39.95 -321.2 36.45 -333.75 36.45 -333.75 -35.05 -321.2 -35.05 -321.2 -38.55 -286.5 -38.55 -286.5 -35.05 -274.0 -35.05 -274.0 -25.8 -246.2 -25.8 -246.2 -33.05 -257.2 -33.05 -257.2 -85.0 -205.0 -85.0 -205.0 -33.05 -216.0 -33.05 -216.0 -25.8 -180.2 -25.8 -180.2 -33.05 -191.2 -33.05 -191.2 -85.0 -139.0 -85.0 -139.0 -33.05 -150.0 -33.05 -150.0 -25.8 -124.2 -25.8 -124.2 -68.3 -111.2 -68.3 -111.2 -71.5 -77.0 -71.5 -77.0 -68.1 -58.25 -68.1 -58.25 -27.15 -64.0 -27.15 -64.0 -16.55 -52.7 -16.55 -52.7 -37.85 2.85 -37.85 2.85 -104.35 43.15 -104.35 43.15 -109.05 31.9 -109.05 31.9 -151.55 19.7 -151.55 19.7 -149.55 26.7 -149.55 26.7 -124.2 -13.45 -124.2 -13.45 -149.55 3.4 -149.55 3.4 -151.55 -13.45 -151.55 -13.45 -176.85 51.65 -176.85 51.65 -219.3 47.5 -219.3 47.5 -204.5 -1.85 -204.5 -1.85 -250.8 47.5 -250.8 47.5 -246.8 51.65 -246.8 51.65 -281.55 181.3 -281.55 181.3 -155.7 187.3 -155.7 187.3 -163.0 194.3 -163.0 194.3 -183.7 192.65 -183.7 192.65 -210.0 207.3 -210.0 207.3 -293.0 224.5 -293.0 224.5 -289.0 255.3 -289.0 255.3 -293.0 297.8 -293.0 297.8 -289.0 328.65 -289.0 328.65 -293.0 344.0 -293.0" fill="#969696" fill-rule="evenodd" stroke="none"/>
    <path d="M183.55 -64.7 L183.55 -61.85 206.4 -61.85 206.4 63.15 183.55 63.15 183.55 66.0 155.3 66.0 155.3 63.15 132.4 63.15 132.4 -61.85 155.3 -61.85 155.3 -64.7 183.55 -64.7" fill="#707070" fill-rule="evenodd" stroke="none"/>
    <path d="M208.5 -26.0 L219.5 -26.0 219.5 26.25 208.5 26.25 208.5 -26.0" fill="#707070" fill-rule="evenodd" stroke="none"/>
    <path d="M242.55 59.8 L224.05 41.25 235.9 29.4 254.4 47.95 242.55 59.8" fill="#707070" fill-rule="evenodd" stroke="none"/>
    <path d="M236.55 -27.5 L225.6 -40.15 245.4 -57.3 256.35 -44.65 236.55 -27.5" fill="#707070" fill-rule="evenodd" stroke="none"/>
    <path d="M265.75 -19.75 L286.25 -19.75 286.25 17.5 265.75 17.5 265.75 -19.75" fill="#707070" fill-rule="evenodd" stroke="none"/>
    <path d="M324.5 -31.0 L324.5 29.0 308.5 29.0 308.5 -31.0 324.5 -31.0" fill="#707070" fill-rule="evenodd" stroke="none"/>
    <path d="M344.3 103.65 L308.5 103.65 308.5 95.3 344.3 95.3 344.3 103.65" fill="#707070" fill-rule="evenodd" stroke="none"/>
    <path d="M-320.3 -16.55 L-320.3 19.05 -333.75 19.05 -333.75 -16.55 -320.3 -16.55" fill="#707070" fill-rule="evenodd" stroke="none"/>
    <path d="M90.65 -33.2 L90.65 35.0 71.0 35.0 71.0 -33.2 90.65 -33.2" fill="#707070" fill-rule="evenodd" stroke="none"/>
    <path d="M2.85 -91.1 L9.65 -91.1 9.65 -57.05 2.85 -57.05 2.85 -91.1" fill="#707070" fill-rule="evenodd" stroke="none"/>
    <path d="M2.85 69.0 L2.85 54.3 16.65 54.3 16.65 69.0 2.85 69.0" fill="#707070" fill-rule="evenodd" stroke="none"/>
    <path d="M2.85 80.0 L16.65 80.0 16.65 94.15 2.85 94.15 2.85 80.0" fill="#707070" fill-rule="evenodd" stroke="none"/>
    <path d="M7.8 185.65 L7.8 151.55 27.05 151.55 27.05 185.65 7.8 185.65" fill="#707070" fill-rule="evenodd" stroke="none"/>
    <path d="M22.0 210.8 L22.0 226.65 0.3 226.65 0.3 210.8 22.0 210.8" fill="#707070" fill-rule="evenodd" stroke="none"/>
    <path d="M26.15 226.65 L26.15 210.8 48.55 210.8 48.55 226.65 26.15 226.65" fill="#707070" fill-rule="evenodd" stroke="none"/>
    <path d="M68.05 239.3 L68.05 228.2 101.4 228.2 101.4 239.3 68.05 239.3" fill="#707070" fill-rule="evenodd" stroke="none"/>
    <path d="M-25.4 138.5 L-8.0 138.5 -8.0 198.5 -25.4 198.5 -25.4 138.5" fill="#707070" fill-rule="evenodd" stroke="none"/>
    <path d="M83.0 131.25 L83.0 109.5 190.0 109.5 190.0 131.25 83.0 131.25" fill="#707070" fill-rule="evenodd" stroke="none"/>
    <path d="M344.35 -289.0 L344.1 -287.5 343.45 -286.15 342.4 -285.15 341.05 -284.5 339.55 -284.35 338.1 -284.65 336.8 -285.45 335.85 -286.6 335.35 -288.0 335.3 -289.5 335.75 -290.9 336.65 -292.1 337.85 -292.95 339.3 -293.35 340.8 -293.3 342.15 -292.7 343.3 -291.75 344.05 -290.45 344.35 -289.0" fill="#707070" fill-rule="evenodd" stroke="none"/>
    <path d="M214.45 -35.3 L215.85 -34.7 216.95 -33.75 217.7 -32.45 218.0 -31.0 217.8 -29.5 217.1 -28.15 216.05 -27.15 214.7 -26.5 213.2 -26.35 211.75 -26.65 210.5 -27.45 209.55 -28.6 209.0 -30.0 208.95 -31.5 209.4 -32.9 210.3 -34.1 211.55 -34.95 212.95 -35.35 214.45 -35.3" fill="#707070" fill-rule="evenodd" stroke="none"/>
    <path d="M-13.65 211.3 L-12.55 212.25 -11.8 213.55 -11.5 215.0 -11.7 216.5 -12.4 217.85 -13.45 218.85 -14.8 219.5 -16.3 219.65 -17.75 219.35 -19.0 218.55 -19.95 217.4 -20.5 216.0 -20.55 214.5 -20.1 213.1 -19.2 211.9 -17.95 211.05 -16.55 210.65 -15.05 210.7 -13.65 211.3" fill="#707070" fill-rule="evenodd" stroke="none"/>
    <path d="M-49.05 33.0 L-48.6 31.6 -47.7 30.4 -46.45 29.55 -45.05 29.15 -43.55 29.2 -42.15 29.8 -41.05 30.75 -40.3 32.05 -40.0 33.5 -40.2 35.0 -40.9 36.35 -41.95 37.35 -43.3 38.0 -44.8 38.15 -46.25 37.85 -47.5 37.05 -48.45 35.9 -49.0 34.5 -49.05 33.0" fill="#707070" fill-rule="evenodd" stroke="none"/>
    <path d="M-42.15 -35.7 L-41.05 -34.75 -40.3 -33.45 -40.0 -32.0 -40.2 -30.5 -40.9 -29.15 -41.95 -28.15 -43.3 -27.5 -44.8 -27.35 -46.25 -27.65 -47.5 -28.45 -48.45 -29.6 -49.0 -31.0 -49.05 -32.5 -48.6 -33.9 -47.7 -35.1 -46.45 -35.95 -45.05 -36.35 -43.55 -36.3 -42.15 -35.7" fill="#707070" fill-rule="evenodd" stroke="none"/>
    <path d="M216.05 36.6 L214.7 37.25 213.2 37.4 211.75 37.1 210.5 36.3 209.55 35.15 209.0 33.75 208.95 32.25 209.4 30.85 210.3 29.65 211.55 28.8 212.95 28.4 214.45 28.45 215.85 29.05 216.95 30.0 217.7 31.3 218.0 32.75 217.8 34.25 217.1 35.6 216.05 36.6" fill="#707070" fill-rule="evenodd" stroke="none"/>
    <path d="M213.3 -293.3 L214.65 -292.7 215.8 -291.75 216.55 -290.45 216.85 -289.0 216.6 -287.5 215.95 -286.15 214.9 -285.15 213.55 -284.5 212.05 -284.35 210.6 -284.65 209.3 -285.45 208.35 -286.6 207.85 -288.0 207.8 -289.5 208.25 -290.9 209.15 -292.1 210.35 -292.95 211.8 -293.35 213.3 -293.3" fill="#707070" fill-rule="evenodd" stroke="none"/>
    <path d="M187.3 -216.7 L205.65 -216.7 205.65 -161.0 187.3 -161.0 187.3 -216.7" fill="#707070" fill-rule="evenodd" stroke="none"/>
    <path d="M181.05 -281.55 L204.0 -281.55 204.0 -221.35 181.05 -221.35 181.05 -281.55" fill="#707070" fill-rule="evenodd" stroke="none"/>
    <path d="M181.3 -206.0 L181.3 -166.7 168.3 -166.7 168.3 -206.0 181.3 -206.0" fill="#707070" fill-rule="evenodd" stroke="none"/>
    <path d="M311.5 -212.0 L248.5 -212.0 248.5 -238.5 311.5 -238.5 311.5 -212.0" fill="#707070" fill-rule="evenodd" stroke="none"/>
    <path d="M85.75 -275.25 L135.0 -275.25 135.0 -248.0 85.75 -248.0 85.75 -275.25" fill="#707070" fill-rule="evenodd" stroke="none"/>
    <path d="M53.75 -269.75 L53.75 -279.25 62.75 -279.25 62.75 -269.75 53.75 -269.75" fill="#707070" fill-rule="evenodd" stroke="none"/>
    <path d="M20.75 -129.2 L20.75 -146.85 26.7 -146.85 26.7 -129.2 20.75 -129.2" fill="#707070" fill-rule="evenodd" stroke="none"/>
    <path d="M130.75 -175.0 L88.5 -175.0 88.5 -186.8 130.75 -186.8 130.75 -175.0" fill="#707070" fill-rule="evenodd" stroke="none"/>
    <path d="M317.65 191.0 L232.0 191.0 232.0 158.65 317.65 158.65 317.65 191.0" fill="#707070" fill-rule="evenodd" stroke="none"/>
    <path d="M1.0 -214.15 L8.75 -214.15 8.75 -205.15 1.0 -205.15 1.0 -214.15" fill="#707070" fill-rule="evenodd" stroke="none"/>
    <path d="M-1.25 -238.9 L-1.25 -247.9 2.35 -247.9 3.75 -245.5 3.75 -242.0 2.35 -238.9 -1.25 -238.9" fill="#707070" fill-rule="evenodd" stroke="none"/>
    <path d="M-1.25 -219.4 L-1.25 -235.0 10.1 -235.0 10.1 -219.4 -1.25 -219.4" fill="#707070" fill-rule="evenodd" stroke="none"/>
    <path d="M21.2 -238.5 L19.8 -239.75 19.15 -241.45 19.15 -250.8 26.9 -250.8 26.9 -241.45 26.25 -239.75 24.85 -238.5 23.05 -238.1 21.2 -238.5" fill="#707070" fill-rule="evenodd" stroke="none"/>
    <path d="M332.15 -162.95 L333.7 -163.45 336.85 -153.6 344.65 -151.6 343.9 -148.55 336.1 -150.55 328.6 -143.5 327.5 -144.65 334.2 -151.05 326.9 -152.9 327.7 -155.95 335.0 -154.05 332.15 -162.95" fill="#707070" fill-rule="evenodd" stroke="none"/>
    <path d="M37.8 -145.2 Q37.8 -143.45 37.0 -142.25 36.2 -141.0 35.05 -141.0 33.95 -141.0 33.1 -142.25 32.3 -143.5 32.3 -145.2 32.3 -146.9 33.1 -148.15 33.9 -149.35 35.05 -149.35 36.2 -149.35 37.0 -148.15 37.8 -146.95 37.8 -145.2" fill="#707070" fill-rule="evenodd" stroke="none"/>
    <path d="M2.5 135.15 L-14.5 135.15 -14.5 120.3 2.5 120.3 2.5 135.15" fill="#707070" fill-rule="evenodd" stroke="none"/>
    <path d="M-11.0 130.5 L-21.85 130.5 -21.85 121.8 -11.0 121.8 -11.0 130.5" fill="#707070" fill-rule="evenodd" stroke="none"/>
    <path d="M-0.5 128.65 L-0.5 123.15 9.65 123.15 9.65 128.65 -0.5 128.65" fill="#707070" fill-rule="evenodd" stroke="none"/>
    <path d="M-60.05 -16.55 L-54.35 -16.55 -54.35 17.95 -60.05 17.95 -60.05 -16.55" fill="#ffffff" fill-rule="evenodd" stroke="none"/>
  </g>
</svg>
