<?xml version="1.0" encoding="UTF-8" standalone="no"?>
<svg xmlns:ffdec="https://www.free-decompiler.com/flash" xmlns:xlink="http://www.w3.org/1999/xlink" ffdec:objectType="shape" height="227.65px" width="185.15px" xmlns="http://www.w3.org/2000/svg">
  <g transform="matrix(1.0, 0.0, 0.0, 1.0, 80.95, 106.75)">
    <path d="M-22.15 31.05 L-24.15 26.6 -25.95 27.4 -23.95 31.85 -22.15 31.05 M-26.35 26.5 L-24.55 25.65 -28.2 17.45 -30.05 18.25 -26.35 26.5 M-42.5 23.8 L-38.85 32.05 -37.0 31.2 -40.65 23.0 -42.5 23.8 M-36.6 32.1 L-38.45 32.95 -36.45 37.45 -34.4 36.5 -35.4 34.85 -36.6 32.1 M-42.95 22.9 L-41.05 22.05 -44.7 13.85 -46.6 14.7 -42.95 22.9 M-47.0 13.8 L-45.1 12.95 -48.75 4.75 -50.65 5.55 -47.0 13.8 M-32.7 7.4 L-36.35 -0.8 -38.15 0.0 -34.5 8.2 -32.7 7.4 M-32.3 8.3 L-34.1 9.15 -30.45 17.35 -28.6 16.55 -32.3 8.3 M-40.4 -9.95 L-42.25 -9.15 -38.55 -0.9 -36.75 -1.7 -40.4 -9.95 M-44.45 -19.05 L-46.3 -18.25 -42.65 -10.05 -40.8 -10.85 -44.45 -19.05 M-58.8 -12.7 L-55.1 -4.5 -53.25 -5.3 -56.9 -13.55 -58.8 -12.7 M-52.85 -4.4 Q-53.75 -3.95 -54.7 -3.55 L-51.05 4.65 -49.2 3.8 -52.85 -4.4 M-61.0 -22.75 L-62.9 -21.95 -59.2 -13.65 -57.3 -14.5 -61.0 -22.75 M-51.35 -34.55 L-53.2 -33.75 -46.7 -19.2 -44.9 -20.0 -51.35 -34.55 M-16.7 -50.0 L-18.25 -49.35 -17.6 -47.55 -17.15 -44.75 -17.25 -42.0 -17.9 -39.25 -19.05 -36.7 -20.7 -34.45 -22.75 -32.55 -25.1 -31.1 -27.7 -30.1 -30.5 -29.65 -33.3 -29.75 -36.0 -30.4 -38.55 -31.55 -40.8 -33.2 -42.7 -35.25 -44.2 -37.65 -44.6 -38.75 -47.2 -37.6 -47.1 -37.3 -46.95 -37.35 -40.2 -22.1 -35.75 -24.1 -35.35 -23.2 -35.4 -23.2 -35.35 -23.1 -39.75 -21.15 -36.1 -12.95 -31.7 -14.9 -31.3 -14.0 -35.7 -12.05 -34.9 -10.25 -12.05 -20.4 -13.25 -23.1 -10.8 -24.2 -11.2 -25.15 -6.6 -27.25 -16.7 -50.0 M32.05 -0.2 L31.85 -0.65 29.75 0.25 29.95 0.7 32.05 -0.2 M36.55 9.9 L34.45 10.85 34.65 11.3 34.7 11.3 36.75 10.4 36.55 9.9 M15.85 -8.6 L13.35 -7.5 8.4 -18.6 10.9 -19.75 9.25 -23.45 13.0 -25.15 12.3 -26.8 3.15 -22.7 3.9 -20.95 1.65 -19.95 3.25 -16.3 1.05 -15.3 8.5 1.4 18.35 -3.0 15.85 -8.6 M21.4 -30.85 L13.15 -27.2 13.9 -25.5 22.15 -29.2 21.4 -30.85 M18.85 -36.45 L18.5 -37.35 10.3 -33.7 10.7 -32.8 18.85 -36.45 M34.9 -46.25 L35.1 -45.8 36.35 -46.35 36.6 -45.9 37.05 -46.1 38.25 -43.4 37.8 -43.2 39.05 -40.45 39.5 -40.65 40.7 -37.9 40.25 -37.7 41.45 -35.0 41.9 -35.2 43.15 -32.45 42.65 -32.25 43.9 -29.5 44.35 -29.7 45.55 -27.0 45.1 -26.8 46.3 -24.05 46.8 -24.25 47.95 -21.55 47.55 -21.3 48.75 -18.6 49.2 -18.8 50.4 -16.1 49.95 -15.85 51.2 -13.1 51.65 -13.3 52.85 -10.65 52.4 -10.45 52.6 -9.95 47.75 -7.75 48.95 -5.0 33.05 2.05 32.45 0.7 30.35 1.6 34.05 9.95 36.15 9.0 35.55 7.65 51.45 0.55 63.75 28.2 68.25 26.15 71.7 34.05 73.2 33.4 73.6 34.3 72.1 34.95 75.5 42.55 80.5 40.3 90.6 44.65 92.65 46.0 94.55 47.85 95.8 50.05 96.95 55.0 97.55 59.3 98.05 60.9 98.75 62.25 102.95 68.0 103.7 69.8 104.2 73.2 104.15 75.05 103.85 76.7 103.3 78.35 102.45 79.95 101.35 81.25 99.85 82.45 95.15 85.0 78.65 92.35 79.35 93.9 76.6 95.15 78.7 99.95 75.25 106.95 55.15 115.85 48.45 100.85 49.4 100.4 48.6 98.65 34.0 105.2 36.4 110.6 36.35 110.6 13.2 120.9 8.35 110.0 9.2 109.6 1.05 91.35 -8.1 95.4 -12.65 85.2 -13.05 85.25 -13.0 90.35 -17.5 90.1 -17.55 92.15 -18.55 92.1 -18.5 90.05 -22.75 89.95 -22.7 84.05 -23.15 83.9 -22.8 64.05 -12.1 64.25 -12.15 70.25 -7.15 70.3 -7.1 64.35 -6.1 64.3 -6.15 66.3 -5.15 66.35 -5.1 66.85 -2.15 66.9 -2.15 66.4 -1.15 66.4 -0.75 43.75 6.7 43.85 6.85 43.95 7.2 43.6 9.1 42.45 11.15 41.8 13.35 41.65 15.5 42.05 17.45 42.95 19.15 44.25 20.5 45.95 21.4 47.95 21.8 50.1 21.65 52.25 21.0 54.35 19.85 56.2 18.3 57.75 16.45 58.9 14.35 59.55 13.75 59.6 13.8 59.75 31.45 99.5 46.1 93.0 45.3 91.25 44.4 91.7 39.25 80.1 40.05 79.75 38.2 75.7 43.2 73.45 42.45 71.8 43.35 71.4 44.1 73.05 49.1 70.85 49.2 71.0 55.5 68.15 50.2 56.3 34.85 63.15 18.05 25.4 18.35 25.25 16.25 20.6 21.2 18.35 20.8 17.45 30.1 13.35 29.9 12.9 24.45 15.35 24.05 14.4 29.5 11.95 25.8 3.65 20.35 6.1 19.9 5.2 25.4 2.75 25.0 1.85 21.25 3.5 20.4 1.7 5.9 8.15 -3.65 -13.2 -5.5 -12.4 -7.5 -16.9 -32.85 -5.6 -32.05 -3.8 -27.65 -5.8 -27.25 -4.85 -31.6 -2.9 -31.2 -1.9 -28.2 -3.25 -25.0 4.0 -23.55 3.35 -23.15 4.25 -24.55 4.9 -21.25 12.3 -24.25 13.65 -23.9 14.45 -19.5 12.5 -19.1 13.4 -23.5 15.35 -19.85 23.55 -15.45 21.6 -15.05 22.5 -19.45 24.5 -15.6 33.1 -15.8 33.15 -15.6 33.65 -19.25 35.3 -17.25 39.75 -18.15 40.15 -20.15 35.7 -23.65 37.25 -24.2 37.7 -31.05 44.55 -31.6 45.0 -32.7 45.6 -33.45 45.8 -34.2 45.9 -35.35 45.85 -37.35 45.25 -38.25 44.7 -40.0 44.0 -41.45 43.75 -45.25 45.45 -45.55 44.8 -58.2 50.45 -57.9 51.15 -64.55 54.1 -66.2 50.3 -67.4 50.85 -67.85 49.85 -66.65 49.3 -69.9 42.1 -71.05 42.6 -71.45 41.7 -70.3 41.2 -71.75 37.95 -68.15 36.35 -69.85 32.55 -66.8 31.15 -67.55 29.45 -66.65 29.05 -65.85 30.75 -59.0 27.7 -59.8 26.0 -58.9 25.6 -58.15 27.3 -51.25 24.25 -52.0 22.55 -51.15 22.15 -50.35 23.85 -48.3 22.95 -51.05 16.7 -55.5 18.65 -55.9 17.75 -51.45 15.75 -54.4 9.15 -57.3 10.4 -58.0 8.8 -59.75 9.6 -60.15 8.7 -58.4 7.9 -62.05 -0.35 -63.8 0.45 -64.2 -0.45 -62.45 -1.25 -64.25 -5.25 Q-62.8 -5.85 -61.4 -6.5 L-63.3 -10.75 -67.75 -8.8 -68.1 -9.7 -63.7 -11.65 -63.8 -11.95 -63.75 -11.65 -71.45 -29.0 -70.55 -29.4 -69.25 -26.5 -65.65 -28.1 -65.3 -27.35 -63.4 -28.2 -63.8 -29.05 -64.7 -28.6 -80.95 -65.15 -69.7 -70.15 -64.75 -67.3 -60.35 -65.8 -57.35 -65.15 -52.9 -64.85 -48.9 -65.2 -49.35 -66.25 -36.1 -72.2 -35.6 -71.1 -34.5 -72.0 -32.4 -74.1 -29.0 -78.75 -26.6 -84.2 -25.85 -87.0 -25.25 -92.75 -25.55 -97.0 -25.85 -98.6 -7.6 -106.75 2.2 -84.75 -6.95 -80.7 2.85 -58.7 Q-4.15 -55.55 -11.2 -52.45 L-1.1 -29.7 -0.15 -30.1 0.65 -28.35 9.8 -32.4 9.0 -34.2 18.05 -38.25 16.45 -41.9 25.25 -45.8 26.9 -42.15 32.35 -44.6 32.15 -45.05 34.9 -46.25" fill="#424242" fill-rule="evenodd" stroke="none"/>
    <path d="M22.5 -4.5 L21.55 -6.65 25.85 -8.55 26.3 -7.5 26.75 -7.7 29.55 -1.5 29.1 -1.3 29.55 -0.2 29.3 -0.05 34.5 11.6 34.75 11.5 37.15 16.8 22.3 23.45 22.6 24.15 23.95 23.6 26.0 28.15 24.65 28.75 24.95 29.45 26.35 28.9 28.35 33.4 27.0 34.05 27.35 34.75 28.7 34.15 30.7 38.75 29.35 39.35 29.7 40.05 31.05 39.45 33.05 44.0 31.7 44.6 32.05 45.35 33.4 44.75 35.45 49.3 34.1 49.9 34.4 50.6 35.75 50.0 37.8 54.65 36.45 55.25 36.8 56.0 Q37.3 55.8 37.75 55.55 L38.15 56.45 38.85 56.1 38.3 54.8 42.85 52.8 43.45 54.1 44.2 53.75 43.6 52.45 48.15 50.45 48.75 51.7 49.5 51.4 48.9 50.1 53.5 48.05 54.0 49.3 54.75 48.95 54.8 49.2 55.75 48.8 56.85 51.2 55.95 51.6 56.4 52.7 55.7 53.05 56.0 53.75 73.45 45.95 70.85 40.1 73.4 38.95 76.0 44.8 80.95 42.6 83.15 43.9 89.4 46.65 91.3 47.85 92.7 49.25 93.7 51.05 95.35 59.9 95.9 61.75 96.8 63.5 100.95 69.15 101.5 70.5 101.75 71.75 101.9 73.65 101.65 76.05 101.2 77.4 100.6 78.6 99.7 79.6 98.45 80.6 94.25 82.9 76.8 90.65 74.35 85.2 65.2 89.25 61.05 79.9 Q52.5 83.75 43.9 87.55 L40.3 79.45 43.2 78.15 44.4 80.8 44.0 80.95 44.5 82.1 59.2 75.6 50.55 56.15 51.4 55.75 51.1 55.05 35.25 62.15 16.8 20.75 30.95 14.45 24.3 -0.5 6.0 7.65 -3.55 -13.8 -5.15 -13.1 -7.1 -17.45 -33.4 -5.8 -31.5 -1.55 -28.3 -3.0 -27.0 0.0 -29.4 1.1 -29.5 0.8 -30.3 1.15 -15.9 33.5 -24.05 37.1 -31.8 44.75 -33.35 45.5 -34.25 45.6 -35.5 45.5 -36.65 45.2 -38.55 44.2 -46.8 25.7 -65.5 34.0 -65.05 35.05 -68.0 36.2 -69.6 32.55 -48.0 22.95 -67.15 -20.0 -63.1 -21.8 -36.55 37.85 -34.45 36.9 -34.5 36.75 -33.65 36.35 -33.9 35.8 -25.0 31.85 -24.8 32.3 -23.95 31.9 -23.8 32.2 -21.75 31.25 -51.8 -36.3 -47.75 -38.1 -35.15 -9.8 -8.95 -21.5 -10.5 -24.95 -7.25 -26.4 -3.4 -17.7 1.15 -19.75 2.6 -16.55 0.5 -15.6 8.25 1.85 22.5 -4.5" fill="#959595" fill-rule="evenodd" stroke="none"/>
    <path d="M-22.7 83.55 L-22.65 74.05 -12.75 74.1 -12.85 85.15 -15.25 85.1 -15.15 83.65 -22.7 83.55" fill="#959595" fill-rule="evenodd" stroke="none"/>
    <path d="M-27.0 0.05 L-21.6 12.2 -24.35 13.4 -24.35 13.35 -25.15 11.5 -24.8 11.35 -29.4 1.1 -27.0 0.05" fill="#ffffff" fill-rule="evenodd" stroke="none"/>
    <path d="M-51.4 -36.45 L-50.65 -34.85 -50.95 -34.7 -51.65 -36.3 -51.4 -36.45" fill="#6f6f6f" fill-rule="evenodd" stroke="none"/>
    <path d="M0.9 -17.85 L1.6 -16.3 1.3 -16.15 0.6 -17.75 0.9 -17.85" fill="#6f6f6f" fill-rule="evenodd" stroke="none"/>
    <path d="M-6.65 -24.2 L-5.95 -22.6 -6.25 -22.45 -6.95 -24.05 -6.65 -24.2" fill="#6f6f6f" fill-rule="evenodd" stroke="none"/>
    <path d="M-36.25 -11.4 L-35.55 -9.8 -35.8 -9.7 -36.55 -11.3 -36.25 -11.4" fill="#6f6f6f" fill-rule="evenodd" stroke="none"/>
    <path d="M28.4 -1.85 L29.1 -0.25 28.8 -0.1 28.1 -1.7 28.4 -1.85" fill="#6f6f6f" fill-rule="evenodd" stroke="none"/>
    <path d="M35.05 13.6 L35.75 15.2 35.5 15.35 34.75 13.75 35.05 13.6" fill="#6f6f6f" fill-rule="evenodd" stroke="none"/>
    <path d="M26.05 30.75 L26.75 32.35 26.5 32.5 25.75 30.9 26.05 30.75" fill="#6f6f6f" fill-rule="evenodd" stroke="none"/>
    <path d="M33.15 46.7 L33.85 48.3 33.6 48.45 32.85 46.85 33.15 46.7" fill="#6f6f6f" fill-rule="evenodd" stroke="none"/>
    <path d="M45.7 52.8 L47.3 52.1 47.4 52.35 45.8 53.1 45.7 52.8" fill="#6f6f6f" fill-rule="evenodd" stroke="none"/>
    <path d="M-27.2 33.3 L-25.6 32.6 -25.5 32.9 -27.1 33.6 -27.2 33.3" fill="#6f6f6f" fill-rule="evenodd" stroke="none"/>
    <path d="M-33.0 36.0 L-31.4 35.3 -31.3 35.55 -32.9 36.3 -33.0 36.0" fill="#6f6f6f" fill-rule="evenodd" stroke="none"/>
    <path d="M-65.6 33.75 L-64.0 33.05 -63.9 33.3 -65.5 34.0 -65.6 33.75" fill="#6f6f6f" fill-rule="evenodd" stroke="none"/>
    <path d="M-51.15 27.25 L-49.55 26.55 -49.4 26.85 -51.0 27.55 -51.15 27.25" fill="#6f6f6f" fill-rule="evenodd" stroke="none"/>
    <path d="M-62.45 -18.9 L-63.15 -20.5 -62.85 -20.6 -62.15 -19.0 -62.45 -18.9" fill="#6f6f6f" fill-rule="evenodd" stroke="none"/>
    <path d="M75.1 51.0 L76.2 53.45 77.15 53.05 77.5 53.8 77.15 53.95 78.15 56.15 78.5 56.0 78.8 56.75 77.85 57.2 78.85 59.45 79.8 59.0 80.15 59.75 79.85 59.9 80.8 62.1 Q81.0 62.05 81.15 61.95 L81.5 62.75 80.5 63.15 81.65 65.8 80.0 66.55 80.45 67.55 79.7 67.85 79.55 67.55 77.35 68.55 77.45 68.85 76.7 69.2 76.25 68.2 74.9 68.8 73.7 66.2 72.65 66.65 72.35 65.9 72.65 65.75 71.65 63.55 71.35 63.7 71.0 62.9 Q71.55 62.7 72.05 62.45 L71.05 60.2 70.0 60.7 69.65 59.9 70.0 59.8 69.0 57.55 68.7 57.7 68.35 56.95 69.4 56.5 68.3 54.0 75.1 51.0" fill="#6f6f6f" fill-rule="evenodd" stroke="none"/>
    <path d="M58.6 69.25 L61.65 67.85 61.25 66.9 62.0 66.55 62.15 66.85 64.35 65.9 64.2 65.55 64.95 65.2 65.4 66.2 68.9 64.65 71.45 70.35 67.65 72.0 68.1 73.0 67.35 73.35 67.2 73.05 65.0 74.05 65.15 74.35 64.35 74.65 63.95 73.7 61.1 74.95 58.6 69.25" fill="#6f6f6f" fill-rule="evenodd" stroke="none"/>
    <path d="M85.45 49.35 L86.5 48.9 86.8 49.65 86.5 49.8 87.45 52.0 87.8 51.85 88.15 52.6 87.15 53.05 88.35 55.85 89.4 55.4 89.7 56.15 89.4 56.3 90.35 58.5 90.7 58.35 91.05 59.15 90.05 59.6 90.95 61.65 90.2 62.0 90.65 63.0 89.9 63.35 89.75 63.0 87.55 64.0 87.65 64.3 86.9 64.65 86.45 63.65 85.3 64.15 78.7 49.35 84.35 46.85 85.45 49.35" fill="#6f6f6f" fill-rule="evenodd" stroke="none"/>
    <path d="M55.9 68.25 L54.25 64.55 55.3 64.05 55.65 64.85 55.3 65.0 56.3 67.2 56.6 67.05 56.95 67.8 55.9 68.25" fill="#6f6f6f" fill-rule="evenodd" stroke="none"/>
    <path d="M52.7 58.15 L53.0 58.95 52.7 59.05 53.65 61.3 54.0 61.15 54.3 61.9 53.3 62.35 51.65 58.65 52.7 58.15" fill="#6f6f6f" fill-rule="evenodd" stroke="none"/>
    <path d="M95.5 69.1 L95.2 69.25 96.15 71.45 96.5 71.3 96.85 72.1 95.8 72.55 97.2 75.65 91.5 78.15 90.2 75.25 89.25 75.65 88.9 74.9 89.25 74.75 88.25 72.55 87.95 72.7 87.6 71.95 88.55 71.5 86.95 67.9 92.6 65.4 94.15 68.8 95.2 68.35 95.5 69.1" fill="#6f6f6f" fill-rule="evenodd" stroke="none"/>
    <path d="M42.7 77.95 L40.0 79.15 38.55 75.9 48.95 71.25 51.75 77.5 44.4 80.8 43.2 78.15 48.0 76.0 47.55 75.0 42.4 77.3 42.7 77.95" fill="#ffffff" fill-rule="evenodd" stroke="none"/>
    <path d="M63.8 34.25 L70.05 31.45 73.45 39.0 70.85 40.15 68.8 35.5 67.8 35.9 70.05 40.95 70.55 40.75 71.8 43.55 68.6 45.0 63.8 34.25" fill="#ffffff" fill-rule="evenodd" stroke="none"/>
    <path d="M65.85 80.75 L67.65 79.95 70.7 86.8 66.05 88.9 62.1 80.05 64.6 78.95 65.4 80.8 64.85 81.0 67.15 86.15 68.05 85.75 65.85 80.75" fill="#ffffff" fill-rule="evenodd" stroke="none"/>
    <path d="M65.0 54.15 L65.85 56.05 59.15 59.05 57.1 54.35 65.9 50.45 67.0 52.95 65.2 53.75 64.9 53.1 59.8 55.4 60.2 56.3 65.0 54.15" fill="#ffffff" fill-rule="evenodd" stroke="none"/>
    <path d="M-20.65 87.2 L-20.65 88.1 -15.15 88.1 -15.15 87.45 -13.0 87.45 -13.0 90.35 -22.85 90.25 -22.8 85.0 -13.0 85.1 -13.0 87.3 -20.65 87.2" fill="#ffffff" fill-rule="evenodd" stroke="none"/>
    <path d="M-15.4 78.1 L-15.35 80.3 -22.7 80.25 -22.65 74.95 -12.9 75.15 -12.95 77.9 -14.95 77.85 -14.95 77.25 -20.5 77.2 -20.5 78.05 -15.4 78.1" fill="#ffffff" fill-rule="evenodd" stroke="none"/>
    <path d="M-61.3 -6.85 L-59.9 -3.75 -60.25 -3.6 -55.75 6.55 -55.6 6.45 -54.25 9.55 -57.3 10.95 -64.55 -5.4 -61.3 -6.85" fill="#ffffff" fill-rule="evenodd" stroke="none"/>
    <path d="M-71.8 37.8 L-65.15 34.85 -57.85 51.25 -64.5 54.2 -71.8 37.8 M-66.75 39.05 L-67.6 39.4 -62.9 50.0 -62.05 49.65 -66.75 39.05" fill="#ffffff" fill-rule="evenodd" stroke="none"/>
    <path d="M77.85 45.05 L77.4 45.3 77.2 44.8 77.65 44.6 77.85 45.05" fill="#424242" fill-rule="evenodd" stroke="none"/>
    <path d="M72.85 47.3 L72.4 47.5 72.2 47.05 72.65 46.85 72.85 47.3" fill="#424242" fill-rule="evenodd" stroke="none"/>
    <path d="M83.3 70.7 L82.8 70.9 82.6 70.4 83.05 70.2 83.3 70.7" fill="#424242" fill-rule="evenodd" stroke="none"/>
    <path d="M85.4 75.5 L84.95 75.75 84.75 75.25 85.2 75.05 85.4 75.5" fill="#424242" fill-rule="evenodd" stroke="none"/>
    <path d="M79.95 77.95 L79.45 78.15 79.25 77.7 79.7 77.5 79.95 77.95" fill="#424242" fill-rule="evenodd" stroke="none"/>
    <path d="M75.35 80.0 L74.9 80.2 74.7 79.75 75.15 79.55 75.35 80.0" fill="#424242" fill-rule="evenodd" stroke="none"/>
    <path d="M69.4 78.9 L68.95 79.1 68.75 78.65 69.2 78.45 69.4 78.9" fill="#424242" fill-rule="evenodd" stroke="none"/>
    <path d="M70.8 82.0 L69.9 82.4 69.5 81.45 70.4 81.05 70.8 82.0" fill="#424242" fill-rule="evenodd" stroke="none"/>
    <path d="M68.05 85.75 L67.15 86.15 64.85 81.0 65.75 80.6 68.05 85.75" fill="#424242" fill-rule="evenodd" stroke="none"/>
    <path d="M64.9 58.65 L63.95 59.1 63.55 58.15 64.45 57.75 64.9 58.65" fill="#424242" fill-rule="evenodd" stroke="none"/>
    <path d="M87.2 79.5 L86.75 79.7 86.55 79.25 87.0 79.05 87.2 79.5" fill="#424242" fill-rule="evenodd" stroke="none"/>
    <path d="M88.35 68.45 L87.9 68.65 87.65 68.15 88.1 67.95 88.35 68.45" fill="#424242" fill-rule="evenodd" stroke="none"/>
    <path d="M90.5 73.3 Q90.3 73.45 90.05 73.55 L89.85 73.05 90.3 72.85 90.5 73.3" fill="#424242" fill-rule="evenodd" stroke="none"/>
    <path d="M92.3 77.3 L91.85 77.5 91.6 77.05 92.1 76.85 92.3 77.3" fill="#424242" fill-rule="evenodd" stroke="none"/>
    <path d="M76.95 56.5 L76.5 56.7 76.3 56.25 76.75 56.05 76.95 56.5" fill="#424242" fill-rule="evenodd" stroke="none"/>
    <path d="M79.0 61.05 L78.55 61.25 78.3 60.75 78.75 60.55 79.0 61.05" fill="#424242" fill-rule="evenodd" stroke="none"/>
    <path d="M81.0 65.6 L80.55 65.85 80.35 65.35 80.8 65.15 81.0 65.6" fill="#424242" fill-rule="evenodd" stroke="none"/>
    <path d="M79.4 64.15 L78.95 64.4 78.75 63.9 79.2 63.7 79.4 64.15" fill="#424242" fill-rule="evenodd" stroke="none"/>
    <path d="M74.75 66.25 L74.3 66.45 74.1 66.0 74.55 65.8 74.75 66.25" fill="#424242" fill-rule="evenodd" stroke="none"/>
    <path d="M70.15 68.3 L69.7 68.5 69.5 68.05 69.95 67.85 70.15 68.3" fill="#424242" fill-rule="evenodd" stroke="none"/>
    <path d="M61.05 72.35 L60.6 72.55 60.4 72.1 60.85 71.9 61.05 72.35" fill="#424242" fill-rule="evenodd" stroke="none"/>
    <path d="M65.6 70.3 L65.15 70.55 64.95 70.05 65.4 69.85 65.6 70.3" fill="#424242" fill-rule="evenodd" stroke="none"/>
    <path d="M82.0 54.25 L81.55 54.45 81.35 53.95 81.8 53.75 82.0 54.25" fill="#424242" fill-rule="evenodd" stroke="none"/>
    <path d="M74.9 51.9 L74.45 52.1 74.25 51.65 74.7 51.45 74.9 51.9" fill="#424242" fill-rule="evenodd" stroke="none"/>
    <path d="M80.0 49.65 L79.5 49.85 79.3 49.4 79.8 49.2 80.0 49.65" fill="#424242" fill-rule="evenodd" stroke="none"/>
    <path d="M84.05 58.8 L83.6 59.0 83.35 58.5 83.85 58.3 84.05 58.8" fill="#424242" fill-rule="evenodd" stroke="none"/>
    <path d="M86.1 63.35 L85.65 63.55 85.4 63.1 85.9 62.9 86.1 63.35" fill="#424242" fill-rule="evenodd" stroke="none"/>
    <path d="M94.25 81.8 L93.8 82.0 93.55 81.55 94.05 81.35 94.25 81.8" fill="#424242" fill-rule="evenodd" stroke="none"/>
    <path d="M-17.4 82.1 L-18.4 82.1 -18.35 81.1 -17.35 81.1 -17.4 82.1" fill="#424242" fill-rule="evenodd" stroke="none"/>
    <path d="M-14.85 78.15 L-20.55 78.1 -20.55 77.1 -14.85 77.2 -14.85 78.15" fill="#424242" fill-rule="evenodd" stroke="none"/>
    <path d="M65.3 54.0 L60.2 56.3 59.8 55.4 64.9 53.1 65.3 54.0" fill="#424242" fill-rule="evenodd" stroke="none"/>
  </g>
</svg>
