<?xml version="1.0" encoding="UTF-8" standalone="no"?>
<svg xmlns:ffdec="https://www.free-decompiler.com/flash" xmlns:xlink="http://www.w3.org/1999/xlink" ffdec:objectType="shape" height="1072.75px" width="949.1px" xmlns="http://www.w3.org/2000/svg">
  <g transform="matrix(1.0, 0.0, 0.0, 1.0, 38.15, 88.25)">
    <path d="M587.5 -4.65 L577.95 -45.6 571.8 -75.75 620.0 -88.25 633.7 -16.0 653.05 48.3 668.75 83.95 675.95 97.4 746.85 63.4 880.1 29.35 880.25 29.15 896.7 24.15 910.95 68.8 889.1 75.9 763.8 107.95 700.55 138.15 725.5 200.2 729.75 217.15 743.75 286.55 753.5 281.75 774.0 321.25 746.95 339.3 731.8 351.4 726.65 356.4 692.05 396.4 653.05 431.3 630.6 446.3 616.2 453.9 578.95 469.1 543.55 479.5 524.75 487.0 497.95 500.9 474.8 508.65 447.3 513.35 347.2 512.9 270.8 500.8 287.85 620.95 299.85 661.3 312.5 735.75 312.75 774.85 308.75 804.45 304.9 821.6 299.55 836.7 296.15 844.2 328.3 863.55 367.8 883.35 392.05 891.9 424.85 895.3 464.85 895.3 574.2 886.65 579.3 934.05 444.2 943.1 421.5 942.75 371.4 934.65 349.55 927.35 305.4 905.2 270.8 884.4 231.45 924.65 205.15 944.5 181.05 960.05 Q157.55 972.3 134.0 984.5 L113.5 941.0 129.7 933.8 156.95 919.05 177.9 905.55 200.6 888.4 237.1 850.8 248.45 833.35 255.5 818.85 261.6 797.6 265.3 769.2 265.05 739.3 253.7 672.75 245.15 644.75 231.4 575.1 228.9 542.85 219.85 482.4 211.3 456.95 201.2 438.1 142.45 342.65 122.2 317.05 82.2 276.25 40.45 222.0 14.45 175.5 9.65 163.05 -0.45 123.0 -6.8 70.45 -38.15 -46.8 -25.8 -50.45 -12.0 -49.15 -4.15 -56.75 7.7 -60.15 39.85 61.25 46.5 115.4 54.65 147.75 57.85 156.05 80.1 195.7 117.55 244.45 157.75 285.45 202.7 347.2 249.7 428.85 258.0 441.1 267.1 448.7 275.65 452.95 285.7 455.6 351.15 465.5 442.1 466.05 463.25 462.4 479.1 457.15 505.2 443.7 527.8 434.65 564.0 423.95 581.9 417.2 607.0 405.05 623.9 393.75 657.9 363.3 687.45 328.9 693.5 317.3 695.75 309.5 696.85 304.1 696.8 294.05 683.7 228.95 679.8 213.5 658.85 160.95 625.95 104.65 608.6 65.3 587.5 -4.65" fill="#1c1c1c" fill-rule="evenodd" stroke="none"/>
    <path d="M751.3 75.1 L780.8 66.5 886.55 40.6 887.35 39.75 889.25 39.0 891.05 42.0 896.0 61.9 894.1 62.65 893.25 61.65 867.4 69.25 786.4 88.3 759.35 96.2 Q739.15 105.6 718.9 114.95 L691.45 128.75 683.35 133.55 690.0 144.85 695.35 156.7 703.9 179.35 709.45 192.45 713.45 203.7 717.6 220.25 725.0 257.2 729.5 276.85 731.7 290.35 732.1 298.6 731.7 307.45 745.6 299.15 745.0 298.0 747.75 296.65 758.85 317.4 757.0 318.65 755.35 317.5 739.5 329.25 730.7 336.45 730.55 336.6 723.6 341.95 711.75 356.5 707.25 360.5 683.05 387.7 653.85 414.3 645.35 421.4 634.75 429.05 624.4 435.45 610.75 442.65 595.25 449.6 575.0 457.2 539.4 467.7 519.6 475.6 509.4 480.55 493.0 489.4 471.75 496.45 445.9 500.9 427.75 501.75 365.0 502.5 328.25 497.8 278.55 489.9 263.45 485.95 255.2 481.9 261.95 525.1 263.7 539.05 265.5 558.9 266.2 571.3 271.8 605.15 275.7 623.9 287.7 664.3 297.15 713.5 300.0 736.7 300.55 757.5 300.25 773.35 297.45 785.9 296.35 802.65 292.85 818.15 287.95 832.0 279.8 848.95 344.5 888.2 363.0 894.95 380.65 900.8 394.45 903.8 424.0 907.8 444.2 908.1 465.45 907.8 512.8 903.85 527.3 902.05 560.75 900.65 560.65 900.2 562.9 899.7 563.4 903.1 563.5 911.2 565.0 923.5 562.75 923.85 562.3 923.0 529.15 924.5 515.15 926.2 514.9 926.25 466.6 930.25 444.0 930.6 422.4 930.25 390.3 925.9 374.7 922.55 344.35 912.35 311.45 894.2 267.7 867.95 265.0 872.15 251.45 887.3 241.5 897.7 223.35 915.1 197.95 934.25 174.7 949.25 156.5 958.85 140.0 965.75 140.8 967.2 137.95 968.6 135.7 965.4 131.95 956.15 127.8 947.35 130.0 946.7 130.35 947.7 163.35 929.8 185.1 915.8 208.7 897.95 225.55 881.85 247.05 858.4 259.3 839.6 267.1 823.55 271.2 811.9 274.0 799.4 275.1 782.65 277.8 770.7 278.0 757.55 277.55 738.35 274.9 717.05 265.85 669.75 257.2 641.4 253.85 629.15 247.65 597.8 243.85 573.75 241.35 541.5 239.65 528.1 232.05 479.6 222.65 451.45 222.7 451.45 219.85 447.3 212.25 432.2 190.2 393.45 165.85 354.6 152.6 335.3 131.55 308.75 91.5 267.9 73.8 246.45 50.9 215.1 34.85 187.9 25.85 170.4 21.5 159.05 14.7 134.55 11.9 121.0 10.15 106.15 8.7 88.7 5.5 68.05 -7.35 13.25 -25.8 -50.45 -4.15 -56.75 14.4 7.5 27.55 63.7 31.05 86.0 32.55 104.05 34.15 117.4 36.6 129.5 42.8 151.75 46.45 161.15 54.65 177.15 69.65 202.65 91.6 232.6 108.25 252.85 148.4 293.8 170.8 322.1 192.1 353.75 209.55 381.95 232.1 421.6 239.2 435.75 248.55 449.5 260.25 459.25 271.3 464.75 283.15 467.85 331.65 475.55 366.2 480.35 427.15 479.3 443.45 478.5 466.3 474.6 484.05 468.65 499.25 460.5 510.35 455.1 531.95 446.45 567.95 435.85 586.7 428.8 600.9 422.4 613.2 415.9 622.25 410.35 631.6 403.65 647.45 390.0 666.9 372.0 697.9 335.8 705.15 322.0 707.85 312.5 709.3 305.65 709.6 298.7 709.25 292.7 707.45 281.2 702.95 261.85 695.8 225.85 691.8 210.0 688.5 200.6 683.05 187.7 674.6 165.35 669.95 155.2 658.4 135.45 648.9 121.05 637.2 99.2 620.3 60.8 611.75 33.85 605.8 11.95 599.65 -7.65 591.4 -51.15 588.9 -66.25 587.25 -65.15 586.55 -67.9 589.75 -69.05 599.4 -71.05 607.25 -74.0 609.8 -74.3 610.25 -72.0 608.8 -71.4 613.3 -56.5 621.55 -13.0 627.45 5.85 633.4 27.75 641.35 52.8 657.45 89.4 668.25 109.55 671.5 114.4 680.6 109.05 709.45 94.55 751.3 75.1" fill="#434343" fill-rule="evenodd" stroke="none"/>
    <path d="M750.1 80.25 L754.6 77.5 798.2 66.25 820.75 61.65 827.6 59.0 856.6 52.9 864.25 50.0 883.0 45.5 886.65 43.7 890.8 59.35 878.1 62.9 875.35 63.0 874.3 64.35 870.95 64.95 866.65 67.2 856.65 67.7 849.3 70.85 836.05 73.7 830.5 76.7 825.0 76.0 801.95 81.05 793.0 84.85 782.65 85.7 775.5 88.85 766.2 90.35 757.8 95.2 751.65 95.0 731.5 103.2 726.05 105.9 723.5 108.7 715.5 111.2 707.15 117.0 700.35 119.95 691.0 127.15 684.8 128.5 679.3 131.45 679.15 135.0 686.65 146.55 693.3 161.1 695.75 163.65 698.35 173.6 702.55 180.7 705.95 193.8 710.3 199.85 710.3 207.2 717.15 233.7 718.9 238.0 719.0 246.35 721.9 256.6 723.5 266.95 727.05 274.75 726.55 281.6 728.65 290.7 729.4 300.2 728.5 306.45 728.5 311.0 729.5 310.7 732.0 311.0 745.65 302.45 754.15 315.1 737.25 326.8 734.25 330.7 726.65 334.7 721.65 340.7 713.5 347.75 708.55 356.0 703.15 358.95 688.55 375.45 682.5 383.45 675.15 389.0 668.75 396.85 659.95 404.0 655.0 410.95 648.4 414.25 643.05 418.45 638.1 423.4 630.0 427.75 622.25 434.65 609.1 439.25 608.9 439.35 602.5 443.75 594.6 446.15 586.85 451.0 580.5 451.15 558.1 457.9 556.85 459.5 552.6 460.35 549.6 462.5 542.25 463.15 538.15 464.15 533.1 467.15 523.0 470.5 515.75 476.0 507.7 477.2 488.5 486.0 487.25 487.65 483.5 488.25 479.25 490.9 471.5 491.75 461.7 494.95 449.0 496.5 441.15 499.75 429.85 498.2 420.5 499.35 410.7 498.85 400.7 500.7 393.85 499.2 379.0 499.85 373.0 498.85 363.7 500.0 355.35 497.5 342.7 497.2 338.35 496.15 322.85 495.2 315.35 492.35 306.2 492.0 296.55 489.15 286.0 489.5 279.3 486.2 268.0 484.2 256.45 478.35 253.0 477.0 251.6 479.9 252.5 483.4 253.0 492.75 255.5 508.5 256.75 511.75 260.0 539.45 262.5 571.7 263.9 583.15 266.0 590.25 267.5 604.15 269.75 616.75 272.5 624.5 275.25 636.2 284.05 665.2 288.7 685.2 289.2 689.7 292.2 699.85 293.45 714.1 296.85 744.0 296.8 757.5 296.75 757.65 296.5 772.9 294.7 783.85 292.65 802.1 289.25 817.1 284.5 830.6 280.2 839.95 276.25 846.4 277.45 850.7 278.25 851.45 283.85 855.0 295.45 861.5 300.7 865.85 309.75 871.6 313.95 875.1 320.5 877.8 336.6 887.6 344.5 891.7 349.25 893.7 354.25 894.5 366.2 899.75 375.6 903.2 379.85 905.35 387.75 905.7 415.75 911.0 423.0 910.85 453.75 912.4 459.75 911.15 493.9 909.75 500.0 907.75 530.25 906.0 538.0 904.65 560.9 904.4 561.55 919.4 538.85 920.75 536.0 922.25 526.1 921.15 516.3 922.85 506.5 923.15 498.65 925.75 491.3 924.45 469.4 926.25 467.75 927.25 463.5 926.9 459.4 928.4 448.75 926.9 442.0 927.65 434.15 927.65 430.0 926.45 420.75 928.35 410.8 925.0 400.85 924.7 391.6 922.45 390.2 923.1 384.95 921.8 382.6 922.1 379.7 921.45 369.75 917.1 363.25 915.95 353.1 911.1 344.1 909.6 336.1 903.75 325.95 899.75 318.2 894.8 316.45 894.75 312.6 891.85 308.95 890.95 300.75 884.0 294.0 880.7 285.25 873.95 276.75 870.7 269.55 863.8 264.65 864.9 256.0 874.9 248.25 885.75 228.0 905.15 225.0 909.5 213.9 918.5 195.6 931.35 188.4 937.9 176.5 943.75 170.75 947.5 166.0 949.5 159.25 954.5 142.85 961.4 137.75 964.0 132.0 950.65 151.5 939.65 153.5 937.75 161.5 935.25 165.25 933.05 Q167.35 931.5 169.4 929.9 L178.9 924.75 187.6 917.45 191.25 916.4 208.25 903.0 209.15 901.4 212.25 899.15 214.15 895.9 219.9 892.25 223.65 888.75 226.65 884.65 234.9 876.9 239.0 869.65 244.55 865.95 260.15 843.9 261.25 840.0 265.9 834.5 272.9 816.25 273.4 807.75 276.5 803.15 277.65 797.65 279.85 780.7 279.5 769.85 281.5 762.0 280.5 752.7 280.85 742.7 279.0 735.2 280.0 727.2 276.2 702.2 274.35 698.2 274.35 690.85 271.2 681.0 269.5 670.95 265.35 662.7 265.1 655.5 263.7 651.35 261.45 647.0 259.0 637.5 259.2 634.55 257.5 632.9 257.0 628.65 255.1 625.55 254.9 615.9 252.25 607.4 251.35 597.2 248.0 587.75 248.85 581.4 247.55 573.35 246.5 559.2 244.0 548.85 244.35 538.5 242.5 531.2 241.9 520.25 238.9 512.15 239.65 505.05 236.45 483.65 232.65 475.4 231.9 468.4 230.5 464.9 227.25 458.75 224.3 449.95 223.9 449.65 218.65 442.4 215.55 430.45 207.15 416.15 200.9 408.9 197.75 400.25 192.4 392.75 188.0 384.0 181.25 377.0 178.9 368.5 172.0 359.9 167.95 351.85 166.5 351.2 163.85 346.85 161.35 344.7 157.35 336.2 151.7 329.5 146.0 321.2 139.0 315.75 136.2 309.7 124.75 298.35 121.35 294.1 119.85 293.6 116.1 289.35 113.5 287.95 108.7 281.0 101.7 275.25 94.6 266.6 86.75 260.9 82.55 252.5 74.9 244.0 70.5 236.25 63.4 228.75 58.15 219.4 53.25 214.15 47.9 204.15 41.5 197.5 39.0 188.9 32.9 179.65 29.5 170.4 28.0 169.15 26.4 164.25 24.4 161.5 22.65 151.15 19.0 141.65 18.35 133.7 14.25 123.1 15.1 116.75 13.25 103.5 12.5 94.5 9.9 84.65 9.9 74.9 7.9 67.75 6.4 57.15 2.25 49.45 2.35 38.85 Q3.05 38.55 3.7 38.2 L0.55 30.25 -1.25 19.15 -4.5 10.9 -4.6 1.25 -8.35 -6.5 -9.85 -16.35 -12.0 -17.0 -16.5 -27.3 -16.4 -34.3 -18.55 -41.8 -19.2 -46.45 -19.9 -47.65 -21.05 -51.9 -8.9 -55.5 -7.75 -51.25 -4.0 -43.8 -2.55 -38.8 -2.8 -35.75 0.35 -29.0 6.25 -7.6 6.65 -5.1 7.65 -1.6 7.35 0.9 10.8 8.45 19.2 42.0 23.95 64.7 27.3 86.45 28.8 104.45 30.45 118.0 33.65 129.9 34.15 134.95 35.9 141.65 37.25 150.65 42.15 159.15 43.0 162.7 51.35 178.95 66.55 204.7 88.6 234.9 91.9 240.15 105.45 255.35 145.6 296.25 149.75 303.1 154.1 306.1 167.9 324.45 171.6 331.0 176.7 336.75 188.9 355.75 206.15 385.15 218.25 404.4 220.4 409.2 228.85 423.55 233.9 434.0 236.9 436.0 246.35 450.25 252.25 457.5 258.75 460.75 264.4 465.0 273.15 469.4 282.4 471.5 298.4 473.4 308.25 476.4 349.8 481.7 358.75 483.25 367.0 482.9 396.65 484.5 404.65 483.4 434.4 483.5 443.0 481.65 457.15 479.95 469.15 477.25 486.4 470.0 496.3 466.35 505.1 462.4 515.5 456.4 555.1 442.5 569.1 439.4 579.3 435.85 586.8 432.35 600.8 427.35 615.1 419.2 624.3 413.45 641.5 401.0 649.15 392.5 667.3 376.35 671.5 370.35 695.0 345.3 696.3 340.7 704.65 328.7 708.1 321.0 710.15 319.1 710.85 317.0 711.75 309.9 713.0 306.1 713.6 291.4 712.0 282.15 708.85 274.75 704.3 246.5 701.5 238.2 699.5 228.95 698.15 219.6 695.5 208.2 692.5 201.5 687.5 185.7 684.5 180.35 683.15 175.75 678.0 167.2 667.0 143.2 664.35 138.5 660.65 133.85 647.65 108.85 643.5 103.0 623.8 59.45 620.5 48.2 618.3 43.85 617.1 38.4 613.0 28.85 608.5 9.2 603.3 -8.55 599.45 -29.95 598.85 -36.25 598.05 -39.45 596.1 -44.6 595.05 -52.05 591.55 -65.4 605.6 -69.6 607.15 -68.9 610.35 -53.85 611.6 -52.1 613.5 -45.0 613.75 -36.5 614.75 -31.35 616.5 -27.85 617.75 -16.6 621.35 -8.25 621.0 -1.25 628.85 25.65 630.6 28.5 631.75 36.4 636.0 45.4 639.1 55.65 644.1 62.4 645.35 71.15 653.6 88.65 655.25 90.0 659.5 96.9 661.6 104.15 667.5 112.65 669.75 116.4 674.45 117.2 682.35 112.65 689.75 107.65 Q695.4 105.05 701.0 102.4 L705.35 99.15 711.1 97.15 719.1 91.4 729.85 87.0 750.1 80.25" fill="#969696" fill-rule="evenodd" stroke="none"/>
    <path d="M888.85 43.05 L892.75 58.8 890.8 59.35 886.65 43.7 888.85 43.05" fill="#707070" fill-rule="evenodd" stroke="none"/>
    <path d="M605.45 -68.5 L591.55 -65.4 591.0 -67.9 606.65 -71.2 607.1 -69.0 607.6 -69.1 610.45 -56.5 608.45 -56.05 605.45 -68.5" fill="#707070" fill-rule="evenodd" stroke="none"/>
    <path d="M877.3 61.5 L889.7 58.15 890.2 60.15 877.85 63.5 877.3 61.5" fill="#707070" fill-rule="evenodd" stroke="none"/>
    <path d="M826.05 75.05 L837.7 71.55 838.3 73.5 826.65 77.05 826.05 75.05" fill="#707070" fill-rule="evenodd" stroke="none"/>
    <path d="M803.85 78.8 L815.85 76.75 816.2 78.75 804.2 80.85 803.85 78.8" fill="#707070" fill-rule="evenodd" stroke="none"/>
    <path d="M696.3 120.15 L697.5 121.85 687.55 128.9 686.35 127.2 696.3 120.15" fill="#707070" fill-rule="evenodd" stroke="none"/>
    <path d="M622.3 -4.35 L620.35 -3.7 616.3 -15.75 618.25 -16.4 622.3 -4.35" fill="#707070" fill-rule="evenodd" stroke="none"/>
    <path d="M621.75 5.7 L623.75 5.25 626.6 17.65 624.6 18.15 621.75 5.7" fill="#707070" fill-rule="evenodd" stroke="none"/>
    <path d="M654.05 86.95 L652.2 87.85 646.5 76.5 Q647.45 76.05 648.35 75.55 L654.05 86.95" fill="#707070" fill-rule="evenodd" stroke="none"/>
    <path d="M689.45 153.15 L687.6 154.1 681.9 142.7 683.8 141.75 689.45 153.15" fill="#707070" fill-rule="evenodd" stroke="none"/>
    <path d="M711.4 203.35 L709.5 204.2 704.2 192.65 706.05 191.8 711.4 203.35" fill="#707070" fill-rule="evenodd" stroke="none"/>
    <path d="M711.15 214.75 L713.2 214.3 715.8 226.75 713.75 227.2 711.15 214.75" fill="#707070" fill-rule="evenodd" stroke="none"/>
    <path d="M724.0 266.4 L727.85 278.5 725.9 279.15 722.0 267.05 724.0 266.4" fill="#707070" fill-rule="evenodd" stroke="none"/>
    <path d="M727.25 304.05 L727.4 289.65 729.45 289.65 729.3 304.05 727.25 304.05" fill="#707070" fill-rule="evenodd" stroke="none"/>
    <path d="M705.1 356.85 L711.85 345.7 713.6 346.75 706.85 357.9 705.1 356.85" fill="#707070" fill-rule="evenodd" stroke="none"/>
    <path d="M688.25 373.0 L697.1 363.4 698.6 364.8 689.75 374.4 688.25 373.0" fill="#707070" fill-rule="evenodd" stroke="none"/>
    <path d="M650.35 411.75 L659.3 402.25 660.8 403.65 651.9 413.2 650.35 411.75" fill="#707070" fill-rule="evenodd" stroke="none"/>
    <path d="M597.35 444.05 L609.0 438.15 609.95 440.0 598.3 445.9 597.35 444.05" fill="#707070" fill-rule="evenodd" stroke="none"/>
    <path d="M581.7 450.45 L593.5 444.9 594.4 446.75 582.55 452.3 581.7 450.45" fill="#707070" fill-rule="evenodd" stroke="none"/>
    <path d="M559.9 456.15 L572.5 452.8 573.05 454.8 560.45 458.15 559.9 456.15" fill="#707070" fill-rule="evenodd" stroke="none"/>
    <path d="M522.3 469.0 L523.35 470.8 512.1 477.4 511.05 475.6 522.3 469.0" fill="#707070" fill-rule="evenodd" stroke="none"/>
    <path d="M435.95 497.55 L448.85 495.45 449.15 497.5 436.3 499.6 435.95 497.55" fill="#707070" fill-rule="evenodd" stroke="none"/>
    <path d="M426.85 497.1 L426.85 499.1 413.8 499.0 413.8 496.95 426.85 497.05 426.8 496.6 428.7 496.5 428.8 498.4 426.95 498.5 426.85 497.1" fill="#707070" fill-rule="evenodd" stroke="none"/>
    <path d="M358.95 497.65 L371.95 497.3 372.05 499.4 359.0 499.75 358.95 497.65" fill="#707070" fill-rule="evenodd" stroke="none"/>
    <path d="M349.35 495.95 L349.1 498.0 336.15 496.4 336.4 494.3 349.35 495.95" fill="#707070" fill-rule="evenodd" stroke="none"/>
    <path d="M295.95 490.35 L283.0 488.75 283.25 486.7 296.2 488.3 295.95 490.35" fill="#707070" fill-rule="evenodd" stroke="none"/>
    <path d="M259.95 478.55 L273.0 483.65 272.25 485.55 259.2 480.45 259.95 478.55" fill="#707070" fill-rule="evenodd" stroke="none"/>
    <path d="M239.85 497.9 L237.8 498.15 236.2 486.3 238.25 486.05 239.85 497.9" fill="#707070" fill-rule="evenodd" stroke="none"/>
    <path d="M238.65 508.35 L240.7 507.95 242.9 519.7 240.9 520.1 238.65 508.35" fill="#707070" fill-rule="evenodd" stroke="none"/>
    <path d="M248.15 560.75 L249.15 572.7 247.05 572.85 246.1 560.95 248.15 560.75" fill="#707070" fill-rule="evenodd" stroke="none"/>
    <path d="M252.1 595.45 L250.1 595.9 247.45 584.25 249.5 583.8 252.1 595.45" fill="#707070" fill-rule="evenodd" stroke="none"/>
    <path d="M260.65 636.8 L264.0 648.85 262.0 649.4 258.65 637.35 260.65 636.8" fill="#707070" fill-rule="evenodd" stroke="none"/>
    <path d="M264.35 659.35 L266.35 658.7 270.2 670.0 268.25 670.7 264.35 659.35" fill="#707070" fill-rule="evenodd" stroke="none"/>
    <path d="M278.55 721.8 L277.5 709.9 279.55 709.75 280.6 721.65 278.55 721.8" fill="#707070" fill-rule="evenodd" stroke="none"/>
    <path d="M278.6 731.65 L280.65 731.4 282.3 743.25 280.25 743.5 278.6 731.65" fill="#707070" fill-rule="evenodd" stroke="none"/>
    <path d="M278.45 783.4 L280.5 783.65 278.95 795.5 276.9 795.25 278.45 783.4" fill="#707070" fill-rule="evenodd" stroke="none"/>
    <path d="M276.35 804.8 L274.4 816.6 272.4 816.25 274.3 804.45 276.35 804.8" fill="#707070" fill-rule="evenodd" stroke="none"/>
    <path d="M250.1 860.85 L248.45 859.6 255.85 850.2 257.45 851.45 250.1 860.85" fill="#707070" fill-rule="evenodd" stroke="none"/>
    <path d="M273.9 868.55 L274.9 866.7 286.1 872.7 285.15 874.55 273.9 868.55" fill="#707070" fill-rule="evenodd" stroke="none"/>
    <path d="M321.4 895.0 L332.6 901.3 331.6 903.1 320.35 896.8 321.4 895.0" fill="#707070" fill-rule="evenodd" stroke="none"/>
    <path d="M340.95 907.8 L341.65 905.85 353.6 910.1 352.9 912.05 340.95 907.8" fill="#707070" fill-rule="evenodd" stroke="none"/>
    <path d="M394.3 923.65 L394.65 921.6 407.2 923.65 406.85 925.7 394.3 923.65" fill="#707070" fill-rule="evenodd" stroke="none"/>
    <path d="M429.85 925.55 L429.85 927.6 416.75 927.7 416.7 925.6 429.85 925.55" fill="#707070" fill-rule="evenodd" stroke="none"/>
    <path d="M471.65 925.1 L484.6 924.15 484.75 926.2 471.8 927.2 471.65 925.1" fill="#707070" fill-rule="evenodd" stroke="none"/>
    <path d="M506.7 921.65 L507.0 923.7 494.55 925.65 494.2 923.6 506.7 921.65" fill="#707070" fill-rule="evenodd" stroke="none"/>
    <path d="M234.4 876.1 L242.4 866.7 243.95 868.05 235.95 877.45 234.4 876.1" fill="#707070" fill-rule="evenodd" stroke="none"/>
    <path d="M196.25 911.4 L205.85 904.3 207.1 906.0 197.45 913.05 196.25 911.4" fill="#707070" fill-rule="evenodd" stroke="none"/>
    <path d="M178.55 923.75 L187.95 916.35 189.2 918.0 179.8 925.35 178.55 923.75" fill="#707070" fill-rule="evenodd" stroke="none"/>
    <path d="M133.5 950.95 L132.6 949.05 143.55 943.75 144.45 945.6 Q139.0 948.3 133.5 950.95" fill="#707070" fill-rule="evenodd" stroke="none"/>
    <path d="M217.65 439.6 L219.25 438.3 227.3 448.55 225.65 449.85 217.65 439.6" fill="#707070" fill-rule="evenodd" stroke="none"/>
    <path d="M213.8 430.25 L207.55 418.85 209.35 417.85 215.6 429.25 213.8 430.25" fill="#707070" fill-rule="evenodd" stroke="none"/>
    <path d="M179.35 373.8 L181.05 372.65 188.45 383.35 186.75 384.5 179.35 373.8" fill="#707070" fill-rule="evenodd" stroke="none"/>
    <path d="M136.95 312.85 L138.4 311.4 147.55 320.65 146.1 322.1 136.95 312.85" fill="#707070" fill-rule="evenodd" stroke="none"/>
    <path d="M84.3 257.65 L85.75 256.15 95.2 265.1 93.75 266.6 84.3 257.65" fill="#707070" fill-rule="evenodd" stroke="none"/>
    <path d="M80.05 247.65 L78.35 248.8 70.95 238.1 72.65 236.9 80.05 247.65" fill="#707070" fill-rule="evenodd" stroke="none"/>
    <path d="M39.9 194.5 L41.5 193.25 49.45 203.55 47.8 204.8 39.9 194.5" fill="#707070" fill-rule="evenodd" stroke="none"/>
    <path d="M31.8 171.85 L37.45 183.6 35.55 184.5 29.95 172.75 31.8 171.85" fill="#707070" fill-rule="evenodd" stroke="none"/>
    <path d="M13.7 119.4 L15.7 118.85 18.85 131.5 16.85 132.0 13.7 119.4" fill="#707070" fill-rule="evenodd" stroke="none"/>
    <path d="M14.2 96.2 L14.95 109.2 12.85 109.35 12.1 96.35 14.2 96.2" fill="#707070" fill-rule="evenodd" stroke="none"/>
    <path d="M1.85 45.15 L3.85 44.6 7.2 57.15 5.2 57.7 1.85 45.15" fill="#707070" fill-rule="evenodd" stroke="none"/>
    <path d="M-17.15 -28.4 L-15.2 -29.05 -11.05 -16.7 -13.0 -16.05 -17.15 -28.4" fill="#707070" fill-rule="evenodd" stroke="none"/>
    <path d="M501.65 479.4 L502.45 481.35 490.45 486.3 489.65 484.4 501.65 479.4" fill="#707070" fill-rule="evenodd" stroke="none"/>
    <path d="M645.3 66.45 L643.45 67.35 637.75 56.0 639.6 55.05 645.3 66.45" fill="#707070" fill-rule="evenodd" stroke="none"/>
    <path d="M107.45 279.05 L107.1 279.45 105.75 278.1 107.15 276.75 108.45 278.1 108.15 278.35 133.05 303.9 133.45 303.55 134.7 304.95 133.25 306.25 132.0 304.85 132.35 304.55 107.45 279.05" fill="#707070" fill-rule="evenodd" stroke="none"/>
    <path d="M739.3 83.9 L739.3 83.85 740.9 82.85 741.5 83.8 741.3 83.1 776.9 71.95 776.75 71.3 778.65 70.95 778.75 71.4 813.4 63.0 813.25 62.35 815.15 62.0 815.5 63.85 813.6 64.2 813.55 64.0 778.95 72.4 779.0 72.75 777.1 73.1 777.1 72.95 741.65 84.0 741.9 84.45 740.3 85.45 739.85 84.75 706.55 99.95 706.75 100.45 705.05 101.3 704.85 100.85 673.45 118.8 672.95 117.9 704.4 99.95 704.25 99.6 705.95 98.75 706.1 99.05 739.3 83.9" fill="#707070" fill-rule="evenodd" stroke="none"/>
    <path d="M853.5 67.0 L855.4 66.65 855.75 68.45 853.85 68.8 853.5 67.0" fill="#707070" fill-rule="evenodd" stroke="none"/>
    <path d="M816.25 75.6 L818.15 75.25 818.5 77.1 816.6 77.45 816.25 75.6" fill="#707070" fill-rule="evenodd" stroke="none"/>
    <path d="M850.25 53.75 L852.15 53.4 852.5 55.2 850.6 55.55 850.25 53.75" fill="#707070" fill-rule="evenodd" stroke="none"/>
    <path d="M780.05 84.6 L781.9 84.25 782.25 86.1 780.4 86.45 780.3 85.95 765.05 90.7 765.2 91.05 754.0 95.75 753.4 94.35 746.25 96.55 746.35 96.8 744.55 97.5 744.45 97.25 713.15 111.7 713.3 112.0 711.65 112.95 710.7 111.3 712.35 110.35 712.65 110.85 744.1 96.3 743.9 95.75 745.7 95.05 745.9 95.65 757.75 91.95 764.4 89.15 764.65 89.75 780.1 84.95 780.05 84.6" fill="#707070" fill-rule="evenodd" stroke="none"/>
    <path d="M652.3 114.75 L650.65 115.65 649.75 114.05 651.45 113.1 652.3 114.75" fill="#707070" fill-rule="evenodd" stroke="none"/>
    <path d="M663.75 108.15 L662.05 109.05 661.2 107.4 662.9 106.5 663.75 108.15" fill="#707070" fill-rule="evenodd" stroke="none"/>
    <path d="M668.0 147.3 L669.7 146.35 670.55 148.0 668.9 148.9 668.0 147.3" fill="#707070" fill-rule="evenodd" stroke="none"/>
    <path d="M681.8 140.15 L682.65 141.8 680.9 142.65 680.05 141.0 681.8 140.15" fill="#707070" fill-rule="evenodd" stroke="none"/>
    <path d="M684.35 180.7 L686.0 179.8 686.9 181.45 685.2 182.35 684.35 180.7" fill="#707070" fill-rule="evenodd" stroke="none"/>
    <path d="M698.9 174.45 L699.45 176.25 697.65 176.85 697.05 175.05 698.9 174.45" fill="#707070" fill-rule="evenodd" stroke="none"/>
    <path d="M696.85 217.4 L696.55 215.55 698.45 215.25 698.75 217.1 696.85 217.4" fill="#707070" fill-rule="evenodd" stroke="none"/>
    <path d="M711.9 213.9 L710.0 214.15 709.75 212.3 711.65 212.05 711.9 213.9" fill="#707070" fill-rule="evenodd" stroke="none"/>
    <path d="M706.35 251.95 L706.55 253.8 704.65 254.0 704.45 252.15 706.35 251.95" fill="#707070" fill-rule="evenodd" stroke="none"/>
    <path d="M717.65 249.65 L719.55 249.45 719.8 251.3 717.9 251.5 717.65 249.65" fill="#707070" fill-rule="evenodd" stroke="none"/>
    <path d="M712.65 289.15 L714.55 289.1 714.65 290.95 712.7 291.0 712.65 289.15" fill="#707070" fill-rule="evenodd" stroke="none"/>
    <path d="M727.85 287.15 L727.95 289.0 726.05 289.1 725.95 287.25 727.85 287.15" fill="#707070" fill-rule="evenodd" stroke="none"/>
    <path d="M689.6 353.6 L688.35 355.0 686.95 353.7 688.2 352.3 689.6 353.6" fill="#707070" fill-rule="evenodd" stroke="none"/>
    <path d="M697.15 363.0 L698.4 361.6 699.8 362.85 698.55 364.25 697.15 363.0" fill="#707070" fill-rule="evenodd" stroke="none"/>
    <path d="M661.3 380.8 L662.6 379.45 663.95 380.8 662.65 382.15 661.3 380.8" fill="#707070" fill-rule="evenodd" stroke="none"/>
    <path d="M671.05 390.5 L672.35 389.2 673.75 390.5 672.45 391.85 671.05 390.5" fill="#707070" fill-rule="evenodd" stroke="none"/>
    <path d="M633.55 406.05 L634.95 404.85 636.25 406.25 634.85 407.5 633.55 406.05" fill="#707070" fill-rule="evenodd" stroke="none"/>
    <path d="M642.15 416.8 L643.5 415.5 644.8 416.95 643.45 418.2 642.15 416.8" fill="#707070" fill-rule="evenodd" stroke="none"/>
    <path d="M603.9 427.25 L603.0 425.55 Q603.85 425.15 604.65 424.7 L605.55 426.35 603.9 427.25" fill="#707070" fill-rule="evenodd" stroke="none"/>
    <path d="M609.0 437.6 L610.65 436.7 611.55 438.4 609.9 439.25 609.0 437.6" fill="#707070" fill-rule="evenodd" stroke="none"/>
    <path d="M570.8 439.85 L569.0 440.45 568.4 438.65 570.2 438.05 570.8 439.85" fill="#707070" fill-rule="evenodd" stroke="none"/>
    <path d="M572.35 451.8 L574.1 451.15 574.8 452.9 573.05 453.6 572.35 451.8" fill="#707070" fill-rule="evenodd" stroke="none"/>
    <path d="M531.9 449.95 L533.65 449.4 534.25 451.2 532.5 451.8 531.9 449.95" fill="#707070" fill-rule="evenodd" stroke="none"/>
    <path d="M536.45 463.05 L538.15 462.4 538.85 464.15 537.1 464.85 536.45 463.05" fill="#707070" fill-rule="evenodd" stroke="none"/>
    <path d="M497.15 467.25 L496.45 465.45 498.2 464.75 498.9 466.55 497.15 467.25" fill="#707070" fill-rule="evenodd" stroke="none"/>
    <path d="M504.65 478.8 L502.95 479.55 502.15 477.8 503.85 477.05 504.65 478.8" fill="#707070" fill-rule="evenodd" stroke="none"/>
    <path d="M462.65 478.05 L464.45 477.7 464.85 479.6 463.0 479.95 462.65 478.05" fill="#707070" fill-rule="evenodd" stroke="none"/>
    <path d="M465.8 491.35 L467.6 490.9 468.1 492.75 466.25 493.2 465.8 491.35" fill="#707070" fill-rule="evenodd" stroke="none"/>
    <path d="M428.0 484.85 L426.15 484.85 426.1 482.95 428.0 482.95 428.0 484.85" fill="#707070" fill-rule="evenodd" stroke="none"/>
    <path d="M388.95 483.45 L390.8 483.45 390.8 485.35 388.95 485.4 388.95 483.45" fill="#707070" fill-rule="evenodd" stroke="none"/>
    <path d="M388.65 499.05 L388.65 497.1 390.5 497.15 390.5 499.05 388.65 499.05" fill="#707070" fill-rule="evenodd" stroke="none"/>
    <path d="M352.85 481.55 L352.75 483.5 350.9 483.4 351.0 481.5 352.85 481.55" fill="#707070" fill-rule="evenodd" stroke="none"/>
    <path d="M351.7 495.2 L351.6 497.1 349.75 497.0 349.85 495.1 351.7 495.2" fill="#707070" fill-rule="evenodd" stroke="none"/>
    <path d="M314.15 478.6 L314.4 476.7 316.25 476.95 316.0 478.8 314.15 478.6" fill="#707070" fill-rule="evenodd" stroke="none"/>
    <path d="M311.95 492.05 L312.25 490.15 314.1 490.45 313.8 492.3 311.95 492.05" fill="#707070" fill-rule="evenodd" stroke="none"/>
    <path d="M278.7 470.0 L278.35 471.9 276.5 471.55 276.9 469.65 278.7 470.0" fill="#707070" fill-rule="evenodd" stroke="none"/>
    <path d="M273.45 484.85 L273.85 482.95 275.7 483.35 275.3 485.2 273.45 484.85" fill="#707070" fill-rule="evenodd" stroke="none"/>
    <path d="M254.7 498.4 L252.75 498.55 252.6 496.65 254.55 496.5 254.7 498.4" fill="#707070" fill-rule="evenodd" stroke="none"/>
    <path d="M239.15 500.25 L239.0 498.4 240.9 498.3 241.05 500.15 239.15 500.25" fill="#707070" fill-rule="evenodd" stroke="none"/>
    <path d="M226.65 423.45 L228.3 422.45 229.25 424.05 227.65 425.05 226.65 423.45" fill="#707070" fill-rule="evenodd" stroke="none"/>
    <path d="M196.95 399.15 L195.95 397.55 197.6 396.55 198.6 398.15 196.95 399.15" fill="#707070" fill-rule="evenodd" stroke="none"/>
    <path d="M156.85 335.05 L156.55 335.25 155.55 333.65 157.2 332.65 158.15 334.25 157.7 334.5 177.25 364.15 177.75 363.8 178.75 365.4 177.1 366.4 176.15 364.8 176.4 364.65 156.85 335.05" fill="#707070" fill-rule="evenodd" stroke="none"/>
    <path d="M79.85 248.45 L81.35 247.3 82.5 248.75 81.0 249.95 79.85 248.45" fill="#707070" fill-rule="evenodd" stroke="none"/>
    <path d="M70.15 208.95 L71.2 210.45 69.6 211.55 68.55 210.0 70.15 208.95" fill="#707070" fill-rule="evenodd" stroke="none"/>
    <path d="M48.75 178.0 L50.45 177.15 51.25 178.85 49.55 179.65 48.75 178.0" fill="#707070" fill-rule="evenodd" stroke="none"/>
    <path d="M37.25 145.7 L35.4 146.25 34.9 144.45 36.7 143.9 37.25 145.7" fill="#707070" fill-rule="evenodd" stroke="none"/>
    <path d="M30.15 107.6 L30.3 109.45 28.4 109.6 28.25 107.75 30.15 107.6" fill="#707070" fill-rule="evenodd" stroke="none"/>
    <path d="M22.9 70.25 L24.8 69.9 25.15 71.75 23.25 72.05 22.9 70.25" fill="#707070" fill-rule="evenodd" stroke="none"/>
    <path d="M9.45 72.55 L11.35 72.25 11.65 74.05 9.8 74.4 9.45 72.55" fill="#707070" fill-rule="evenodd" stroke="none"/>
    <path d="M3.7 37.0 L1.85 37.35 1.5 35.6 0.05 35.85 -2.3 23.05 -0.25 22.7 2.1 35.4 3.4 35.2 3.7 37.0" fill="#707070" fill-rule="evenodd" stroke="none"/>
    <path d="M16.95 33.85 L15.1 34.2 14.75 32.35 16.65 32.0 16.95 33.85" fill="#707070" fill-rule="evenodd" stroke="none"/>
    <path d="M5.4 -4.35 L7.25 -4.8 7.7 -3.0 5.85 -2.55 5.4 -4.35" fill="#707070" fill-rule="evenodd" stroke="none"/>
    <path d="M-7.6 -0.95 L-5.75 -1.4 -5.3 0.4 -7.15 0.85 -7.6 -0.95" fill="#707070" fill-rule="evenodd" stroke="none"/>
    <path d="M14.6 111.35 L14.45 109.45 16.35 109.3 16.5 111.2 14.6 111.35" fill="#707070" fill-rule="evenodd" stroke="none"/>
    <path d="M21.75 148.3 L23.6 147.8 24.1 149.55 22.25 150.1 21.75 148.3" fill="#707070" fill-rule="evenodd" stroke="none"/>
    <path d="M36.8 184.6 L38.55 183.8 39.35 185.45 37.6 186.3 36.8 184.6" fill="#707070" fill-rule="evenodd" stroke="none"/>
    <path d="M57.3 217.9 L58.9 216.85 59.95 218.35 58.35 219.45 57.3 217.9" fill="#707070" fill-rule="evenodd" stroke="none"/>
    <path d="M143.25 294.35 L143.65 294.0 144.9 295.4 144.6 295.7 168.0 324.95 168.35 324.75 169.35 326.3 169.0 326.5 188.95 356.8 189.4 356.5 190.35 358.1 190.1 358.25 208.95 389.8 209.5 389.5 210.45 391.05 208.8 392.05 207.85 390.5 208.1 390.3 189.3 358.8 188.75 359.1 187.75 357.5 188.1 357.3 168.15 327.05 167.7 327.3 166.7 325.75 167.15 325.45 143.85 296.35 143.5 296.7 142.25 295.3 142.55 295.05 117.35 269.25 116.75 269.85 115.45 268.55 115.7 268.3 92.15 241.55 91.75 241.85 90.6 240.4 92.1 239.2 93.25 240.65 92.95 240.95 116.4 267.6 116.8 267.2 118.1 268.5 118.1 268.55 143.25 294.35" fill="#707070" fill-rule="evenodd" stroke="none"/>
    <path d="M216.35 429.05 L217.3 430.65 215.65 431.65 214.7 430.05 216.35 429.05" fill="#707070" fill-rule="evenodd" stroke="none"/>
    <path d="M259.55 534.7 L259.7 536.55 257.8 536.7 257.65 534.85 259.55 534.7" fill="#707070" fill-rule="evenodd" stroke="none"/>
    <path d="M244.05 536.6 L245.95 536.45 246.1 538.3 244.2 538.45 244.05 536.6" fill="#707070" fill-rule="evenodd" stroke="none"/>
    <path d="M263.8 571.9 L263.95 573.8 262.0 573.95 261.9 572.05 263.8 571.9" fill="#707070" fill-rule="evenodd" stroke="none"/>
    <path d="M248.4 575.6 L248.25 573.75 250.15 573.65 250.3 575.5 248.4 575.6" fill="#707070" fill-rule="evenodd" stroke="none"/>
    <path d="M276.55 645.85 L278.4 645.4 278.85 647.2 277.0 647.65 276.55 645.85" fill="#707070" fill-rule="evenodd" stroke="none"/>
    <path d="M265.2 649.3 L265.7 651.1 263.85 651.6 263.35 649.8 265.2 649.3" fill="#707070" fill-rule="evenodd" stroke="none"/>
    <path d="M289.0 684.5 L287.15 685.0 286.7 683.2 288.55 682.7 289.0 684.5" fill="#707070" fill-rule="evenodd" stroke="none"/>
    <path d="M295.3 720.55 L295.5 722.4 293.6 722.6 293.4 720.75 295.3 720.55" fill="#707070" fill-rule="evenodd" stroke="none"/>
    <path d="M295.0 761.7 L295.0 759.85 296.9 759.85 296.9 761.7 295.0 761.7" fill="#707070" fill-rule="evenodd" stroke="none"/>
    <path d="M291.15 799.9 L291.4 798.05 293.3 798.3 293.05 800.15 291.15 799.9" fill="#707070" fill-rule="evenodd" stroke="none"/>
    <path d="M282.2 836.9 L281.45 838.6 279.7 837.8 280.45 836.1 282.2 836.9" fill="#707070" fill-rule="evenodd" stroke="none"/>
    <path d="M258.7 870.65 L259.8 869.15 261.35 870.3 260.2 871.8 258.7 870.65" fill="#707070" fill-rule="evenodd" stroke="none"/>
    <path d="M232.4 899.45 L233.75 898.15 235.05 899.5 233.75 900.8 232.4 899.45" fill="#707070" fill-rule="evenodd" stroke="none"/>
    <path d="M203.3 924.85 L204.75 923.7 205.95 925.2 204.45 926.35 203.3 924.85" fill="#707070" fill-rule="evenodd" stroke="none"/>
    <path d="M194.9 913.7 L196.4 912.55 197.55 914.1 196.05 915.25 194.9 913.7" fill="#707070" fill-rule="evenodd" stroke="none"/>
    <path d="M163.8 933.9 L165.45 933.05 166.35 934.7 164.7 935.6 163.8 933.9" fill="#707070" fill-rule="evenodd" stroke="none"/>
    <path d="M170.5 945.9 L172.15 945.05 173.05 946.7 171.4 947.6 170.5 945.9" fill="#707070" fill-rule="evenodd" stroke="none"/>
    <path d="M222.9 890.05 L224.25 888.75 225.55 890.1 224.25 891.4 222.9 890.05" fill="#707070" fill-rule="evenodd" stroke="none"/>
    <path d="M247.85 862.2 L249.0 860.7 250.5 861.85 249.4 863.35 247.85 862.2" fill="#707070" fill-rule="evenodd" stroke="none"/>
    <path d="M306.55 871.4 L307.55 869.75 309.15 870.75 308.15 872.4 306.55 871.4" fill="#707070" fill-rule="evenodd" stroke="none"/>
    <path d="M299.15 882.95 L300.15 881.3 301.7 882.25 300.7 883.9 299.15 882.95" fill="#707070" fill-rule="evenodd" stroke="none"/>
    <path d="M339.3 888.15 L340.95 889.05 340.05 890.7 338.4 889.85 339.3 888.15" fill="#707070" fill-rule="evenodd" stroke="none"/>
    <path d="M332.55 902.25 L333.45 900.55 335.1 901.45 334.2 903.15 332.55 902.25" fill="#707070" fill-rule="evenodd" stroke="none"/>
    <path d="M373.45 904.1 L374.05 902.25 375.8 902.8 375.25 904.65 373.45 904.1" fill="#707070" fill-rule="evenodd" stroke="none"/>
    <path d="M368.75 917.0 L369.35 915.15 371.1 915.7 370.55 917.55 368.75 917.0" fill="#707070" fill-rule="evenodd" stroke="none"/>
    <path d="M408.95 910.9 L409.05 909.0 410.95 909.15 410.8 911.05 408.95 910.9" fill="#707070" fill-rule="evenodd" stroke="none"/>
    <path d="M407.45 924.6 L407.6 922.65 409.45 922.8 409.3 924.7 407.45 924.6" fill="#707070" fill-rule="evenodd" stroke="none"/>
    <path d="M446.65 911.45 L448.5 911.35 448.55 913.3 446.7 913.35 446.65 911.45" fill="#707070" fill-rule="evenodd" stroke="none"/>
    <path d="M446.45 925.15 L448.3 925.1 448.4 927.0 446.5 927.1 446.45 925.15" fill="#707070" fill-rule="evenodd" stroke="none"/>
    <path d="M484.7 923.15 L486.6 922.95 486.75 924.85 484.9 925.05 484.7 923.15" fill="#707070" fill-rule="evenodd" stroke="none"/>
    <path d="M485.6 911.3 L483.75 911.5 483.55 909.55 485.4 909.4 485.6 911.3" fill="#707070" fill-rule="evenodd" stroke="none"/>
    <path d="M523.7 905.75 L523.75 907.65 521.85 907.7 521.85 905.8 523.7 905.75" fill="#707070" fill-rule="evenodd" stroke="none"/>
    <path d="M522.7 919.5 L524.55 919.45 524.6 921.35 522.75 921.4 522.7 919.5" fill="#707070" fill-rule="evenodd" stroke="none"/>
    <path d="M267.9 830.45 L269.65 831.2 268.9 832.95 267.15 832.15 267.9 830.45" fill="#707070" fill-rule="evenodd" stroke="none"/>
    <path d="M277.55 797.65 L277.75 795.8 279.65 796.0 279.45 797.85 277.55 797.65" fill="#707070" fill-rule="evenodd" stroke="none"/>
    <path d="M283.3 759.45 L283.25 761.3 281.35 761.3 281.35 759.4 283.3 759.45" fill="#707070" fill-rule="evenodd" stroke="none"/>
    <path d="M279.75 724.1 L279.55 722.25 281.45 722.05 281.65 723.9 279.75 724.1" fill="#707070" fill-rule="evenodd" stroke="none"/>
    <path d="M275.65 687.45 L273.8 687.95 273.3 686.15 275.15 685.65 275.65 687.45" fill="#707070" fill-rule="evenodd" stroke="none"/>
    <path d="M256.05 612.3 L256.15 614.15 254.25 614.25 254.15 612.4 256.05 612.3" fill="#707070" fill-rule="evenodd" stroke="none"/>
    <path d="M269.2 609.6 L269.5 611.4 267.6 611.7 267.3 609.9 269.2 609.6" fill="#707070" fill-rule="evenodd" stroke="none"/>
    <path d="M634.1 79.15 L634.95 80.8 633.3 81.7 632.4 80.05 634.1 79.15" fill="#707070" fill-rule="evenodd" stroke="none"/>
    <path d="M646.5 73.7 L647.35 75.4 645.65 76.25 644.8 74.6 646.5 73.7" fill="#707070" fill-rule="evenodd" stroke="none"/>
    <path d="M617.9 43.9 L619.7 43.25 620.3 45.0 618.5 45.65 617.9 43.9" fill="#707070" fill-rule="evenodd" stroke="none"/>
    <path d="M630.95 39.3 L632.8 38.7 633.35 40.5 631.55 41.1 630.95 39.3" fill="#707070" fill-rule="evenodd" stroke="none"/>
    <path d="M607.4 8.85 L606.95 7.05 608.8 6.55 609.25 8.35 607.4 8.85" fill="#707070" fill-rule="evenodd" stroke="none"/>
    <path d="M622.05 3.3 L622.5 5.1 620.6 5.55 620.2 3.75 622.05 3.3" fill="#707070" fill-rule="evenodd" stroke="none"/>
    <path d="M599.1 -29.05 L598.85 -30.9 600.75 -31.2 601.0 -29.35 599.1 -29.05" fill="#707070" fill-rule="evenodd" stroke="none"/>
    <path d="M612.4 -33.7 L614.3 -33.95 614.55 -32.1 612.65 -31.85 612.4 -33.7" fill="#707070" fill-rule="evenodd" stroke="none"/>
    <path d="M747.4 301.25 L755.5 315.45 743.15 322.9 742.05 321.15 752.55 314.75 745.65 302.45 747.4 301.25" fill="#707070" fill-rule="evenodd" stroke="none"/>
    <path d="M130.5 950.65 L132.45 949.75 138.95 964.3 137.0 965.15 130.5 950.65" fill="#707070" fill-rule="evenodd" stroke="none"/>
    <path d="M561.55 903.65 L562.15 919.55 560.1 919.65 560.15 920.2 547.1 920.95 546.95 918.85 559.95 918.15 559.35 903.75 561.55 903.65" fill="#707070" fill-rule="evenodd" stroke="none"/>
    <path d="M-21.05 -51.9 L-8.9 -55.5 -7.75 -51.25 -19.9 -47.65 -21.05 -51.9" fill="#ffffff" fill-rule="evenodd" stroke="none"/>
  </g>
</svg>
