<?xml version="1.0" encoding="UTF-8" standalone="no"?>
<svg xmlns:ffdec="https://www.free-decompiler.com/flash" xmlns:xlink="http://www.w3.org/1999/xlink" ffdec:objectType="shape" height="1237.95px" width="510.0px" xmlns="http://www.w3.org/2000/svg">
  <g transform="matrix(1.0, 0.0, 0.0, 1.0, 255.0, 512.95)">
    <path d="M-182.4 -494.0 L-182.4 -512.95 174.6 -512.95 174.6 -494.0 255.0 -494.0 255.0 694.4 174.6 694.4 174.6 725.0 -182.4 725.0 -182.4 694.4 -255.0 694.4 -255.0 -494.0 -182.4 -494.0" fill="#434343" fill-rule="evenodd" stroke="none"/>
    <path d="M-41.9 312.5 L-37.95 312.5 -37.95 302.85 -28.45 302.85 -28.45 296.85 28.1 296.85 28.1 302.85 37.9 302.85 37.9 312.5 41.55 312.5 41.55 380.0 37.9 380.0 37.9 395.55 39.05 395.55 39.05 401.4 84.65 401.4 120.6 462.5 120.6 543.75 59.65 543.75 55.2 691.6 39.2 691.6 39.2 696.0 -39.4 696.0 -39.4 691.6 -120.75 691.6 -120.75 401.4 -39.7 401.4 -39.7 395.55 -37.95 395.55 -37.95 380.0 -41.9 380.0 -41.9 312.5" fill="#969696" fill-rule="evenodd" stroke="none"/>
    <path d="M51.55 438.35 L51.55 401.4 120.6 401.4 120.6 499.65 93.75 499.7 93.75 480.0 51.55 438.35" fill="#707070" fill-rule="evenodd" stroke="none"/>
    <path d="M-92.85 449.4 L-92.85 468.2 -45.35 523.75 -45.35 546.0 -42.2 546.0 -42.2 548.75 -45.35 548.75 -45.35 570.65 -92.85 627.2 -92.85 645.65 -120.65 645.65 -120.65 449.4 -92.85 449.4" fill="#707070" fill-rule="evenodd" stroke="none"/>
    <path d="M91.55 -100.85 L91.55 -91.55 96.75 -91.55 96.75 54.25 91.55 54.25 91.55 65.0 96.75 65.0 96.75 213.0 91.55 213.0 91.55 223.75 96.75 223.75 96.75 292.05 91.55 292.05 91.55 300.7 -92.85 300.7 -92.85 292.05 -97.0 292.05 -97.0 223.75 -92.85 223.75 -92.85 213.0 -97.0 213.0 -97.0 65.0 -92.85 65.0 -92.85 54.25 -97.0 54.25 -97.0 -91.55 -92.85 -91.55 -92.85 -100.85 91.55 -100.85" fill="#969696" fill-rule="evenodd" stroke="none"/>
    <path d="M-41.05 -497.15 L-28.45 -497.15 -28.45 -503.15 28.1 -503.15 28.1 -497.15 75.8 -497.15 75.8 -410.2 37.9 -410.2 37.9 -404.45 39.05 -404.45 39.05 -398.6 120.6 -398.6 120.6 -258.15 45.15 -258.15 45.15 -254.1 120.6 -254.1 120.6 -108.4 39.2 -108.4 39.2 -104.0 28.1 -104.0 28.1 -91.2 -28.45 -91.2 -28.45 -104.0 -39.4 -104.0 -39.4 -108.4 -120.85 -108.4 -120.85 -254.1 -46.7 -254.1 -46.7 -258.15 -120.85 -258.15 -120.85 -398.6 -39.7 -398.6 -39.7 -404.45 -37.95 -404.45 -37.95 -410.2 -44.8 -410.2 -68.75 -457.45 -41.05 -497.15" fill="#969696" fill-rule="evenodd" stroke="none"/>
    <path d="M-45.0 -410.2 L-80.85 -410.2 -80.85 -497.15 -41.05 -497.15 -45.0 -452.25 -45.0 -410.2" fill="#707070" fill-rule="evenodd" stroke="none"/>
    <path d="M101.85 -398.6 L120.6 -398.6 120.6 -258.15 110.3 -258.15 110.3 -300.85 107.85 -306.95 84.15 -324.65 84.15 -336.0 108.85 -354.0 110.3 -357.65 110.3 -358.1 101.85 -398.6" fill="#707070" fill-rule="evenodd" stroke="none"/>
    <path d="M-84.5 -324.65 L-108.25 -306.95 -110.65 -300.85 -110.65 -258.15 -120.85 -258.15 -120.85 -398.6 -102.2 -398.6 -110.65 -358.1 -110.65 -357.65 -109.2 -354.0 -84.5 -336.0 -84.5 -324.65" fill="#707070" fill-rule="evenodd" stroke="none"/>
    <path d="M53.4 -254.1 L120.6 -254.1 120.6 -108.4 46.25 -108.4 49.65 -119.05 53.4 -121.85 53.4 -254.1" fill="#707070" fill-rule="evenodd" stroke="none"/>
    <path d="M-53.8 -254.1 L-53.8 -121.85 -50.05 -119.05 -46.6 -108.4 -120.85 -108.4 -120.85 -254.1 -53.8 -254.1" fill="#707070" fill-rule="evenodd" stroke="none"/>
    <path d="M-28.45 -512.95 L28.1 -512.95 28.1 -503.15 -28.45 -503.15 -28.45 -512.95" fill="#ffffff" fill-rule="evenodd" stroke="none"/>
  </g>
</svg>
