<?xml version="1.0" encoding="UTF-8" standalone="no"?>
<svg xmlns:ffdec="https://www.free-decompiler.com/flash" xmlns:xlink="http://www.w3.org/1999/xlink" ffdec:objectType="shape" height="278.05px" width="1085.8px" xmlns="http://www.w3.org/2000/svg">
  <g transform="matrix(1.0, 0.0, 0.0, 1.0, 523.3, 94.7)">
    <path d="M514.25 -34.75 L562.5 -39.0 505.0 64.5 519.0 173.5 478.1 152.85 362.6 126.95 214.95 109.2 158.6 105.1 92.9 90.0 26.8 89.4 -103.3 107.9 -237.05 116.75 -434.5 165.2 -474.0 183.35 -481.3 71.35 -523.3 -23.3 -484.35 -26.7 -437.05 -47.55 -409.0 -57.75 -340.65 -73.2 -267.9 -69.1 -166.1 -80.7 -130.5 -85.95 -39.05 -87.0 21.65 -86.65 94.05 -94.7 168.9 -92.55 215.25 -85.45 316.2 -63.15 395.35 -59.85 514.25 -34.75" fill="#434343" fill-rule="evenodd" stroke="none"/>
    <path d="M391.35 -28.0 L524.0 0.0 556.0 -30.0 517.3 156.7 498.7 124.7 368.0 95.35 218.0 77.35 163.35 73.35 96.7 58.0 24.7 57.35 -106.65 76.0 -242.0 85.0 -454.0 137.0 -476.0 169.0 -516.35 -7.85 -486.0 9.0 -425.1 -17.85 -400.0 -27.0 -338.0 -41.0 -267.0 -37.0 -162.0 -49.0 -128.0 -54.0 -39.0 -55.0 23.35 -54.65 95.35 -62.65 166.0 -60.65 209.35 -54.0 312.0 -31.3 391.35 -28.0" fill="#969696" fill-rule="evenodd" stroke="none"/>
  </g>
</svg>
