<?xml version="1.0" encoding="UTF-8" standalone="no"?>
<svg xmlns:ffdec="https://www.free-decompiler.com/flash" xmlns:xlink="http://www.w3.org/1999/xlink" ffdec:objectType="shape" height="314.0px" width="18.6px" xmlns="http://www.w3.org/2000/svg">
  <g transform="matrix(1.0, 0.0, 0.0, 1.0, 9.3, 0.0)">
    <path d="M8.45 8.5 L8.45 17.2 Q10.2 25.0 8.45 31.9 7.5 36.4 8.45 40.55 9.9 49.35 8.45 57.65 L8.45 65.4 Q9.45 73.9 8.45 83.0 7.5 86.65 8.45 89.7 9.2 97.65 8.45 105.6 7.35 111.4 8.45 117.15 9.55 125.0 8.45 132.8 7.55 136.7 8.45 140.0 9.15 147.6 8.45 155.2 7.45 158.8 8.45 162.4 9.25 171.3 8.45 180.25 7.5 183.8 8.45 187.4 9.25 196.3 8.45 204.2 L8.45 211.7 Q9.9 221.4 8.45 230.6 7.8 234.0 8.45 237.4 10.2 245.8 8.45 254.2 8.0 259.65 8.45 264.8 9.35 272.2 8.45 279.6 7.75 283.55 8.45 287.5 9.75 296.55 8.45 305.2 L8.45 314.0 -8.55 314.0 -8.55 302.5 Q-10.0 296.25 -8.55 289.65 -7.9 283.75 -8.55 278.25 -9.7 271.2 -8.55 264.15 -8.15 259.5 -8.55 254.9 -9.7 247.1 -8.55 238.75 -8.1 234.25 -8.55 229.2 -9.45 222.3 -8.55 214.5 -7.55 209.7 -8.55 204.9 -9.25 196.8 -8.55 188.75 -7.9 185.45 -8.55 180.9 -9.25 172.3 -8.55 163.7 L-8.55 155.9 Q-9.05 147.95 -8.55 140.0 -8.05 136.55 -8.55 132.15 -9.05 123.9 -8.55 115.35 -7.8 111.5 -8.55 107.65 -9.45 99.25 -8.55 90.8 -7.55 86.9 -8.55 83.0 -9.75 75.05 -8.55 66.7 -7.9 62.7 -8.55 58.7 -10.05 49.05 -8.55 39.4 -7.9 37.25 -8.55 34.6 -10.0 26.25 -8.55 17.9 L-8.55 8.5 Q-8.55 5.0 -6.05 2.5 -3.55 0.0 -0.05 0.0 3.45 0.0 5.95 2.5 8.45 5.0 8.45 8.5" fill="#009900" fill-rule="evenodd" stroke="none"/>
  </g>
</svg>
