<?xml version="1.0" encoding="UTF-8" standalone="no"?>
<svg xmlns:ffdec="https://www.free-decompiler.com/flash" xmlns:xlink="http://www.w3.org/1999/xlink" ffdec:objectType="shape" height="70.0px" width="50.0px" xmlns="http://www.w3.org/2000/svg">
  <g transform="matrix(1.0, 0.0, 0.0, 1.0, 0.0, 0.0)">
    <path d="M50.0 30.0 L40.0 30.0 40.0 40.0 30.0 40.0 30.0 50.0 20.0 50.0 20.0 60.0 50.0 60.0 50.0 70.0 0.0 70.0 0.0 60.0 10.0 60.0 10.0 50.0 20.0 50.0 20.0 40.0 30.0 40.0 30.0 30.0 40.0 30.0 40.0 10.0 10.0 10.0 10.0 20.0 0.0 20.0 0.0 10.0 10.0 10.0 10.0 0.0 40.0 0.0 40.0 10.0 50.0 10.0 50.0 30.0" fill="#ffffff" fill-rule="evenodd" stroke="none"/>
  </g>
</svg>
