<?xml version="1.0" encoding="UTF-8" standalone="no"?>
<svg xmlns:ffdec="https://www.free-decompiler.com/flash" xmlns:xlink="http://www.w3.org/1999/xlink" ffdec:objectType="shape" height="7.95px" width="84.65px" xmlns="http://www.w3.org/2000/svg">
  <g transform="matrix(1.0, 0.0, 0.0, 1.0, 118.75, 6.05)">
    <path d="M-34.15 -5.95 L-34.1 -5.8 -34.1 1.65 -34.15 1.85 -34.35 1.9 -48.6 1.9 -48.75 1.8 -48.85 1.65 -48.85 0.55 -48.75 0.4 -48.6 0.3 -35.6 0.3 -35.6 -5.8 -35.5 -5.95 -35.35 -6.05 -34.35 -6.05 -34.15 -5.95 M-51.65 1.8 L-51.85 1.9 -73.85 1.85 -74.0 1.8 -74.1 1.6 -74.1 0.55 -74.0 0.4 -73.85 0.3 -51.85 0.3 -51.65 0.4 -51.6 0.55 -51.6 1.65 -51.65 1.8 M-77.15 1.8 L-77.35 1.85 -97.6 1.85 -97.75 1.75 -97.85 1.6 -97.85 0.55 -97.75 0.4 -97.6 0.3 -77.35 0.3 -77.15 0.4 -77.1 0.55 -77.1 1.6 -77.15 1.8 M-100.85 1.6 L-100.9 1.75 -101.1 1.85 -118.5 1.8 -118.65 1.75 -118.75 1.55 -118.75 0.55 -118.65 0.4 -118.5 0.3 -101.1 0.3 -100.9 0.4 -100.85 0.55 -100.85 1.6" fill="#d0ffb0" fill-rule="evenodd" stroke="none"/>
  </g>
</svg>
