<?xml version="1.0" encoding="UTF-8" standalone="no"?>
<svg xmlns:ffdec="https://www.free-decompiler.com/flash" xmlns:xlink="http://www.w3.org/1999/xlink" ffdec:objectType="shape" height="15.9px" width="16.0px" xmlns="http://www.w3.org/2000/svg">
  <g transform="matrix(1.0, 0.0, 0.0, 1.0, 8.0, 7.95)">
    <path d="M0.05 -6.95 L0.0 -6.95 Q-2.9 -6.95 -4.95 -4.9 -6.95 -2.9 -6.95 0.0 -6.95 2.9 -4.95 4.9 -2.9 6.95 0.0 6.95 L0.05 6.95 Q2.95 6.95 5.0 4.9 7.0 2.9 7.0 0.0 7.0 -2.9 5.0 -4.9 2.95 -6.95 0.05 -6.95 M5.7 -5.6 Q8.0 -3.3 8.0 0.0 8.0 3.3 5.7 5.65 3.35 7.95 0.05 7.95 L0.0 7.95 Q-3.3 7.95 -5.65 5.65 -8.0 3.3 -8.0 0.0 -8.0 -3.3 -5.65 -5.6 -3.3 -7.95 0.0 -7.95 L0.05 -7.95 Q3.35 -7.95 5.7 -5.6" fill="#dfdfdf" fill-opacity="0.49803922" fill-rule="evenodd" stroke="none"/>
  </g>
</svg>
