<?xml version="1.0" encoding="UTF-8" standalone="no"?>
<svg xmlns:ffdec="https://www.free-decompiler.com/flash" xmlns:xlink="http://www.w3.org/1999/xlink" ffdec:objectType="shape" height="35.8px" width="75.45px" xmlns="http://www.w3.org/2000/svg">
  <g transform="matrix(1.0, 0.0, 0.0, 1.0, 36.5, 18.1)">
    <path d="M17.65 -17.7 L17.75 -17.5 17.75 -7.0 17.65 -6.85 17.5 -6.75 16.75 -6.75 Q16.65 -6.75 16.55 -6.85 L16.5 -7.0 16.5 -16.5 7.05 -16.5 Q6.95 -16.5 6.85 -16.6 L6.8 -16.75 6.8 -17.5 6.85 -17.7 7.05 -17.75 17.5 -17.75 17.65 -17.7 M17.7 6.75 L17.75 6.95 17.75 17.4 17.7 17.55 17.5 17.65 7.0 17.65 6.85 17.55 6.75 17.4 6.75 16.65 6.85 16.45 7.0 16.4 16.5 16.4 16.5 6.95 16.6 6.75 16.75 6.7 17.5 6.7 17.7 6.75 M-6.95 -16.45 L-16.45 -16.45 -16.45 -7.0 -16.55 -6.8 -16.7 -6.75 -17.45 -6.75 -17.65 -6.8 -17.7 -7.0 -17.7 -17.45 -17.65 -17.6 -17.45 -17.7 -6.95 -17.7 -6.8 -17.6 -6.7 -17.45 -6.7 -16.7 -6.8 -16.5 -6.95 -16.45 M-16.55 6.8 L-16.5 6.95 -16.5 16.45 -7.05 16.45 -6.85 16.55 -6.8 16.7 -6.8 17.45 -6.85 17.65 -7.05 17.7 -17.5 17.7 -17.65 17.65 -17.75 17.45 -17.75 6.95 -17.65 6.8 -17.5 6.7 -16.75 6.7 -16.55 6.8" fill="#d0ffb0" fill-rule="evenodd" stroke="none"/>
    <path d="M4.15 -3.8 Q2.6 -5.35 0.45 -5.35 -1.7 -5.35 -3.2 -3.8 -4.7 -2.35 -4.7 -0.15 -4.7 2.0 -3.2 3.5 -1.7 5.05 0.45 5.05 2.6 5.05 4.15 3.5 5.65 2.0 5.65 -0.15 5.65 -2.35 4.15 -3.8 M1.35 -18.05 L1.35 -17.9 1.35 -6.75 Q3.55 -6.55 5.2 -4.85 6.95 -3.15 7.1 -0.75 L38.75 -0.75 38.9 -0.7 38.95 -0.55 38.95 0.5 38.9 0.65 38.75 0.7 7.1 0.7 Q6.8 2.9 5.2 4.6 3.55 6.2 1.35 6.45 L1.35 17.3 1.35 17.45 1.15 17.5 0.05 17.5 -0.05 17.45 -0.15 17.3 -0.15 6.45 Q-2.5 6.3 -4.25 4.6 -5.9 2.9 -6.15 0.7 L-36.3 0.7 -36.45 0.65 -36.5 0.5 -36.5 -0.55 -36.45 -0.7 -36.3 -0.75 -6.2 -0.75 Q-6.05 -3.15 -4.25 -4.85 -2.5 -6.65 -0.15 -6.8 L-0.15 -17.9 -0.05 -18.05 0.05 -18.1 1.15 -18.1 1.35 -18.05" fill="#d0ffb0" fill-opacity="0.08627451" fill-rule="evenodd" stroke="none"/>
  </g>
</svg>
