<?xml version="1.0" encoding="UTF-8" standalone="no"?>
<svg xmlns:ffdec="https://www.free-decompiler.com/flash" xmlns:xlink="http://www.w3.org/1999/xlink" ffdec:objectType="shape" height="33.8px" width="71.65px" xmlns="http://www.w3.org/2000/svg">
  <g transform="matrix(1.0, 0.0, 0.0, 1.0, 34.6, 17.2)">
    <path d="M0.1 -17.2 L1.15 -17.2 1.35 -17.15 1.35 -17.0 1.35 -6.4 Q3.4 -6.2 5.0 -4.6 6.65 -3.0 6.8 -0.7 L36.85 -0.7 37.0 -0.65 37.05 -0.5 37.05 0.45 37.0 0.6 36.85 0.65 6.8 0.65 Q6.5 2.75 5.0 4.35 3.4 5.9 1.35 6.15 L1.35 16.45 1.35 16.6 1.15 16.6 0.0 16.6 -0.1 16.45 -0.1 6.15 Q-2.3 6.0 -4.0 4.35 -5.55 2.75 -5.8 0.65 L-34.45 0.65 -34.6 0.6 -34.6 0.45 -34.6 -0.5 -34.6 -0.65 -34.45 -0.7 -5.85 -0.7 Q-5.7 -3.0 -4.0 -4.6 -2.3 -6.3 -0.1 -6.45 L-0.1 -17.0 0.0 -17.15 0.1 -17.2 M0.5 -5.1 Q-1.55 -5.1 -3.0 -3.6 -4.4 -2.25 -4.4 -0.15 -4.4 1.9 -3.0 3.3 -1.55 4.8 0.5 4.8 2.5 4.8 4.0 3.3 5.4 1.9 5.4 -0.15 5.4 -2.25 4.0 -3.6 2.5 -5.1 0.5 -5.1" fill="#d0ffb0" fill-rule="evenodd" stroke="none"/>
  </g>
</svg>
