<?xml version="1.0" encoding="UTF-8" standalone="no"?>
<svg xmlns:ffdec="https://www.free-decompiler.com/flash" xmlns:xlink="http://www.w3.org/1999/xlink" ffdec:objectType="shape" height="9.05px" width="9.0px" xmlns="http://www.w3.org/2000/svg">
  <g transform="matrix(1.0, 0.0, 0.0, 1.0, 4.55, 4.3)">
    <path d="M4.45 -3.7 L4.45 -2.7 4.45 -2.45 4.25 -2.3 4.0 -2.2 3.1 -1.9 3.05 -1.9 2.15 -1.5 0.55 -0.55 Q-0.25 0.0 -0.85 0.8 L-1.8 2.45 -2.15 3.3 -2.25 3.4 -2.4 4.2 -2.5 4.3 -2.6 4.55 -2.75 4.65 -3.1 4.75 -3.9 4.75 -4.25 4.7 -4.4 4.55 -4.5 4.4 -4.55 4.2 -4.55 4.1 -4.1 2.6 -3.55 1.25 -3.45 1.15 -2.65 -0.15 -1.6 -1.3 -0.45 -2.35 0.85 -3.15 0.9 -3.15 2.3 -3.8 3.8 -4.25 4.05 -4.25 4.2 -4.15 4.3 -4.05 4.35 -4.0 4.45 -3.9 4.45 -3.7" fill="#000000" fill-opacity="0.49803922" fill-rule="evenodd" stroke="none"/>
    <path d="M2.9 -2.4 L1.95 -2.0 1.05 -1.5 0.2 -0.95 -0.55 -0.25 -1.2 0.5 -1.8 1.35 -2.3 2.25 -2.7 3.2 -2.95 4.2 -4.0 4.25 -4.05 4.2 -3.65 2.75 -3.05 1.35 -2.25 0.1 -1.3 -1.0 -0.15 -1.95 1.05 -2.75 2.45 -3.35 3.9 -3.75 3.95 -3.7 3.95 -2.7 2.9 -2.4" fill="#ffffff" fill-rule="evenodd" stroke="none"/>
  </g>
</svg>
