<?xml version="1.0" encoding="UTF-8" standalone="no"?>
<svg xmlns:ffdec="https://www.free-decompiler.com/flash" xmlns:xlink="http://www.w3.org/1999/xlink" ffdec:objectType="shape" height="26.2px" width="6.7px" xmlns="http://www.w3.org/2000/svg">
  <g transform="matrix(1.0, 0.0, 0.0, 1.0, 2.8, 13.1)">
    <path d="M1.95 -13.05 L2.15 -13.1 2.25 -13.1 2.35 -13.1 2.4 -13.1 2.6 -12.9 3.75 -11.75 Q3.75 -11.75 3.85 -11.7 L3.9 -11.7 3.9 -11.6 3.9 -11.3 3.75 -10.95 2.95 -9.75 2.95 -9.8 2.15 -8.5 1.5 -7.15 0.95 -5.8 1.0 -5.8 0.55 -4.4 0.25 -3.0 0.05 -1.5 0.0 0.0 0.05 1.5 0.25 2.95 0.55 4.45 1.0 5.8 0.95 5.8 1.5 7.2 2.15 8.55 2.9 9.8 2.95 9.8 3.8 11.05 3.9 11.3 3.9 11.6 3.75 11.8 2.6 12.95 2.45 13.05 2.2 13.1 2.15 13.1 1.95 13.1 1.8 12.9 1.75 12.85 Q-0.5 10.05 -1.6 6.8 -2.8 3.5 -2.8 0.0 L-2.7 -1.75 -2.5 -3.45 -2.1 -5.15 -2.1 -5.2 -1.6 -6.85 -1.6 -6.9 -1.6 -6.85 -1.0 -8.4 -0.95 -8.45 -0.2 -9.95 0.7 -11.4 0.7 -11.45 1.75 -12.9 1.8 -12.95 1.85 -13.0 1.95 -13.05" fill="#000000" fill-opacity="0.49803922" fill-rule="evenodd" stroke="none"/>
    <path d="M2.2 -12.55 L3.35 -11.4 2.5 -10.15 1.7 -8.85 1.05 -7.5 0.5 -6.1 0.05 -4.65 -0.3 -3.15 -0.45 -1.6 -0.55 0.0 -0.45 1.6 -0.3 3.15 0.05 4.65 0.5 6.1 1.05 7.5 1.7 8.85 2.5 10.15 3.35 11.35 2.2 12.55 Q0.1 9.95 -1.05 6.75 -2.25 3.55 -2.25 0.0 L-2.15 -1.75 -1.95 -3.5 -1.55 -5.15 -1.05 -6.75 -0.45 -8.3 0.3 -9.8 1.2 -11.2 2.15 -12.55 2.2 -12.55" fill="#ffffff" fill-rule="evenodd" stroke="none"/>
  </g>
</svg>
