<?xml version="1.0" encoding="UTF-8" standalone="no"?>
<svg xmlns:ffdec="https://www.free-decompiler.com/flash" xmlns:xlink="http://www.w3.org/1999/xlink" ffdec:objectType="shape" height="225.0px" width="225.0px" xmlns="http://www.w3.org/2000/svg">
  <g transform="matrix(1.0, 0.0, 0.0, 1.0, 112.5, 110.0)">
    <path d="M2.5 -107.1 L2.5 -65.55 0.5 -64.55 0.5 -22.1 -0.5 -22.1 -0.5 -64.55 -2.5 -65.55 -2.5 -107.1 -2.5 -108.4 -2.35 -108.9 -1.75 -109.55 -0.1 -110.0 0.1 -110.0 1.75 -109.55 Q2.5 -109.05 2.5 -108.4 L2.5 -107.1 M110.9 -1.0 L111.4 -0.85 112.05 -0.25 Q112.5 0.5 112.5 1.4 L112.5 1.6 112.05 3.25 Q111.55 4.0 110.9 4.0 L109.6 4.0 68.05 4.0 67.05 2.0 54.75 2.0 54.75 10.2 54.75 12.0 54.75 13.05 54.25 13.05 54.25 12.0 54.25 10.2 54.25 2.0 51.75 2.0 51.75 4.05 51.25 4.05 51.25 2.0 48.75 2.0 48.75 4.05 48.25 4.05 48.25 2.0 45.75 2.0 45.75 4.05 45.25 4.05 45.25 2.0 42.75 2.0 42.75 4.05 42.25 4.05 42.25 2.0 39.75 2.0 39.75 7.05 39.25 7.05 39.25 2.0 36.75 2.0 36.75 4.05 36.25 4.05 36.25 2.0 33.75 2.0 33.75 4.05 33.25 4.05 33.25 2.0 30.75 2.0 30.75 4.05 30.25 4.05 30.25 2.0 27.75 2.0 27.75 4.05 27.25 4.05 27.25 2.0 24.75 2.0 24.75 10.2 24.75 13.05 24.25 13.05 24.25 1.0 67.05 1.0 68.05 -1.0 109.6 -1.0 110.9 -1.0 M86.8 38.25 L87.25 38.3 87.65 38.5 87.9 38.85 88.0 39.3 87.8 39.9 87.45 40.4 86.95 40.9 86.5 41.35 87.95 41.35 87.95 41.9 85.65 41.9 85.65 41.3 86.25 40.7 86.7 40.25 87.05 39.95 87.2 39.7 87.3 39.5 87.3 39.3 87.2 38.95 Q87.1 38.8 86.85 38.8 86.6 38.8 86.45 38.95 L86.3 39.3 86.3 39.4 85.65 39.4 85.65 39.25 85.75 38.85 85.95 38.55 86.3 38.3 86.8 38.25 M86.6 42.95 L87.1 42.95 Q87.1 57.35 77.55 66.15 L77.5 66.15 Q73.6 69.7 68.1 72.35 L62.65 74.6 58.2 76.0 51.1 77.6 87.05 77.65 87.05 78.15 47.85 78.1 47.7 78.05 47.6 77.9 47.6 74.4 48.1 74.4 48.1 77.6 57.6 75.6 57.6 72.5 58.1 72.5 58.1 75.5 62.5 74.15 67.7 72.0 67.75 71.95 67.75 71.45 67.75 68.75 68.25 68.75 68.25 71.7 Q73.4 69.2 77.1 65.85 L77.1 62.5 77.6 62.5 77.6 65.4 77.75 65.25 Q86.6 56.65 86.6 42.95 M82.4 73.3 L82.6 73.2 82.75 73.05 82.85 72.9 83.25 72.9 83.25 76.55 82.6 76.55 82.6 73.8 82.05 73.8 82.05 73.4 82.4 73.3 M84.7 73.45 L84.95 73.15 85.3 72.95 85.75 72.9 86.2 72.95 86.55 73.15 86.75 73.45 86.85 73.85 86.75 74.35 86.45 74.65 86.85 75.0 86.95 75.5 86.85 76.0 86.6 76.35 86.2 76.55 85.75 76.6 85.25 76.55 84.9 76.35 84.6 76.0 84.55 75.5 84.65 75.0 85.05 74.65 84.75 74.35 84.6 73.85 84.7 73.45 M85.3 74.1 L85.4 74.25 85.55 74.35 85.75 74.4 85.9 74.35 86.05 74.25 86.15 74.1 86.2 73.95 86.15 73.75 86.05 73.6 85.9 73.5 85.75 73.45 85.55 73.5 85.4 73.6 85.3 73.75 85.3 73.95 85.3 74.1 M86.3 75.5 L86.15 75.1 Q86.0 74.95 85.75 74.95 85.5 74.95 85.35 75.1 85.2 75.25 85.2 75.5 L85.3 75.9 85.75 76.05 86.15 75.9 86.3 75.5 M83.6 76.55 L83.6 75.85 84.3 75.85 84.3 76.55 83.6 76.55 M57.6 17.1 L57.6 18.85 Q57.6 19.7 57.15 20.1 56.75 20.6 55.9 20.6 55.05 20.6 54.6 20.1 54.15 19.7 54.15 18.85 L54.15 17.1 Q54.15 16.25 54.6 15.8 55.05 15.35 55.9 15.35 56.75 15.35 57.15 15.8 57.6 16.25 57.6 17.1 M55.9 16.15 L55.55 16.2 55.3 16.35 55.1 16.7 55.1 17.2 55.1 18.75 55.1 19.25 55.3 19.55 55.55 19.75 55.9 19.8 56.25 19.75 56.45 19.55 56.6 19.25 56.65 18.75 56.65 17.2 56.6 16.7 56.45 16.35 56.25 16.2 55.9 16.15 M52.6 15.55 L52.75 15.35 53.3 15.35 53.3 20.55 52.4 20.55 52.4 16.65 51.6 16.65 51.6 16.05 52.1 15.9 52.4 15.8 52.6 15.55 M0.0 26.0 L0.35 26.15 9.85 35.15 10.0 35.5 9.85 35.85 9.5 36.0 9.1 35.85 0.5 27.65 0.5 69.55 2.5 70.55 2.5 112.1 2.5 113.4 2.35 113.9 1.75 114.55 0.1 115.0 -0.1 115.0 -1.75 114.55 Q-2.5 114.05 -2.5 113.4 L-2.5 112.1 -2.5 70.55 -0.5 69.55 -0.5 27.65 -9.1 35.85 -9.5 36.0 -9.85 35.85 -10.0 35.5 -9.85 35.15 -0.35 26.15 0.0 26.0 M0.0 10.0 L0.35 10.15 9.85 19.15 10.0 19.5 9.85 19.85 9.5 20.0 9.1 19.85 0.0 11.15 -9.1 19.85 -9.5 20.0 -9.85 19.85 -10.0 19.5 -9.85 19.15 -0.35 10.15 0.0 10.0 M0.0 18.0 L0.35 18.15 9.85 27.15 10.0 27.5 9.85 27.85 9.5 28.0 9.1 27.85 0.0 19.15 -9.1 27.85 -9.5 28.0 -9.85 27.85 -10.0 27.5 -9.85 27.15 -0.35 18.15 0.0 18.0 M78.15 57.9 L78.15 60.05 78.65 60.05 78.65 60.55 78.15 60.55 78.15 61.5 77.55 61.5 77.55 60.55 75.95 60.55 75.95 59.95 77.5 57.9 78.15 57.9 M77.5 58.65 L76.5 60.05 77.55 60.05 77.55 58.65 77.5 58.65 M68.95 64.45 L68.3 64.45 68.15 64.15 67.85 64.0 67.6 64.05 67.45 64.15 67.3 64.4 67.3 64.75 67.3 65.1 Q67.45 64.95 67.65 64.9 L68.05 64.8 68.5 64.9 68.8 65.15 68.95 65.5 69.0 65.9 68.95 66.4 68.75 66.8 68.35 67.05 67.85 67.15 67.2 67.0 66.95 66.8 Q66.65 66.5 66.65 65.9 L66.65 64.7 Q66.65 64.1 66.95 63.75 67.25 63.45 67.85 63.45 68.3 63.45 68.6 63.7 L68.95 64.45 M67.85 65.35 L67.55 65.4 67.3 65.65 67.3 65.85 67.3 66.2 67.45 66.4 67.6 66.55 67.85 66.6 Q68.1 66.6 68.25 66.4 L68.35 65.9 68.2 65.45 67.85 65.35 M48.1 70.45 L48.1 71.55 48.1 71.9 48.25 72.1 48.4 72.25 48.65 72.3 48.9 72.25 49.05 72.1 49.15 71.9 49.2 71.55 49.2 70.45 49.15 70.1 49.05 69.85 48.9 69.75 48.65 69.7 48.4 69.75 48.25 69.85 48.1 70.1 48.1 70.45 M49.55 69.45 L49.85 70.4 49.85 71.6 49.55 72.5 Q49.25 72.85 48.65 72.85 48.05 72.85 47.75 72.5 47.45 72.2 47.45 71.6 L47.45 70.4 Q47.45 69.8 47.75 69.45 48.05 69.15 48.65 69.15 49.25 69.15 49.55 69.45 M46.2 69.45 L46.35 69.3 46.45 69.15 46.85 69.15 46.85 72.8 46.2 72.8 46.2 70.05 45.65 70.05 45.65 69.65 46.0 69.55 46.2 69.45 M57.8 67.95 L57.65 67.9 57.45 67.95 57.3 68.05 57.2 68.2 57.2 68.4 57.2 68.55 57.3 68.7 57.45 68.8 57.65 68.85 57.8 68.8 57.95 68.7 58.05 68.55 58.1 68.4 58.05 68.2 57.95 68.05 57.8 67.95 M56.85 67.6 Q57.0 67.45 57.2 67.4 L57.65 67.35 58.1 67.4 58.45 67.6 58.65 67.9 58.75 68.3 58.65 68.8 58.35 69.1 58.75 69.45 58.85 69.95 58.75 70.45 58.5 70.8 58.1 71.0 57.65 71.05 57.15 71.0 56.8 70.8 56.5 70.45 56.45 69.95 56.55 69.45 56.95 69.1 56.65 68.8 56.5 68.3 56.6 67.9 56.85 67.6 M57.65 69.4 L57.25 69.55 57.1 69.95 57.2 70.35 57.65 70.5 58.05 70.35 58.2 69.95 58.05 69.55 Q57.9 69.4 57.65 69.4 M-110.9 -1.0 L-109.6 -1.0 -68.05 -1.0 -67.05 1.0 -24.25 1.0 -24.25 13.05 -24.75 13.05 -24.75 10.2 -24.75 2.0 -27.25 2.0 -27.25 4.05 -27.75 4.05 -27.75 2.0 -30.25 2.0 -30.25 4.05 -30.75 4.05 -30.75 2.0 -33.25 2.0 -33.25 4.05 -33.75 4.05 -33.75 2.0 -36.25 2.0 -36.25 4.05 -36.75 4.05 -36.75 2.0 -39.25 2.0 -39.25 7.05 -39.75 7.05 -39.75 2.0 -42.25 2.0 -42.25 4.05 -42.75 4.05 -42.75 2.0 -45.25 2.0 -45.25 4.05 -45.75 4.05 -45.75 2.0 -48.25 2.0 -48.25 4.05 -48.75 4.05 -48.75 2.0 -51.25 2.0 -51.25 4.05 -51.75 4.05 -51.75 2.0 -54.25 2.0 -54.25 10.2 -54.25 13.05 -54.75 13.05 -54.75 10.2 -54.75 2.0 -67.05 2.0 -68.05 4.0 -109.6 4.0 -110.9 4.0 -111.4 3.85 -112.05 3.25 -112.5 1.6 -112.5 1.4 -112.05 -0.25 Q-111.55 -1.0 -110.9 -1.0 M-54.7 15.8 Q-54.25 15.35 -53.4 15.35 -52.55 15.35 -52.15 15.8 -51.7 16.25 -51.7 17.1 L-51.7 18.85 Q-51.7 19.7 -52.15 20.1 -52.55 20.6 -53.4 20.6 -54.25 20.6 -54.7 20.1 -55.15 19.7 -55.15 18.85 L-55.15 17.1 Q-55.15 16.25 -54.7 15.8 M-53.75 16.2 L-54.0 16.35 -54.2 16.7 -54.2 17.2 -54.2 18.75 -54.2 19.25 -54.0 19.55 -53.75 19.75 -53.4 19.8 -53.05 19.75 -52.85 19.55 -52.7 19.25 -52.65 18.75 -52.65 17.2 -52.7 16.7 -52.85 16.35 -53.05 16.2 -53.4 16.15 -53.75 16.2 M-56.0 15.35 L-56.0 20.55 -56.9 20.55 -56.9 16.65 -57.7 16.65 -57.7 16.05 -57.2 15.9 -56.9 15.8 -56.7 15.55 -56.55 15.35 -56.0 15.35" fill="#000000" fill-opacity="0.8980392" fill-rule="evenodd" stroke="none"/>
  </g>
</svg>
