<?xml version="1.0" encoding="UTF-8" standalone="no"?>
<svg xmlns:ffdec="https://www.free-decompiler.com/flash" xmlns:xlink="http://www.w3.org/1999/xlink" ffdec:objectType="shape" height="41.25px" width="41.25px" xmlns="http://www.w3.org/2000/svg">
  <g transform="matrix(1.0, 0.0, 0.0, 1.0, 20.7, 20.6)">
    <path d="M10.2 -13.75 L10.05 -13.5 8.8 -12.2 8.45 -12.05 8.15 -12.1 7.75 -12.4 7.55 -12.5 Q4.25 -14.6 0.0 -14.55 L-3.15 -14.25 Q-5.85 -13.75 -8.1 -12.15 L-8.4 -12.1 -8.75 -12.25 -10.05 -13.55 -10.15 -13.75 -10.15 -13.85 -10.15 -14.0 -10.1 -14.1 -10.0 -14.25 -9.95 -14.3 Q-7.0 -16.45 -3.3 -17.1 L-1.6 -17.3 -1.6 -20.1 -1.45 -20.45 -1.1 -20.6 0.9 -20.6 1.25 -20.45 1.4 -20.1 1.4 -17.35 Q5.15 -17.1 8.3 -15.4 L8.25 -15.4 10.0 -14.3 10.2 -14.05 10.2 -13.75 M13.9 -10.15 L14.05 -10.15 14.1 -10.1 14.35 -9.95 Q17.0 -6.25 17.4 -1.5 L20.05 -1.5 20.4 -1.35 20.55 -1.0 20.55 1.0 20.4 1.35 20.05 1.5 17.4 1.5 Q17.0 6.25 14.35 10.0 L14.1 10.2 13.8 10.2 13.55 10.05 12.25 8.75 12.1 8.45 12.2 8.2 12.25 8.15 Q14.6 4.55 14.6 0.0 14.6 -4.55 12.2 -8.0 L12.2 -8.05 12.1 -8.3 12.1 -8.35 12.25 -8.7 13.55 -10.05 13.8 -10.15 13.9 -10.15 M8.2 12.2 Q8.3 12.1 8.45 12.1 L8.75 12.25 10.05 13.55 10.2 13.8 10.2 14.1 10.0 14.35 Q6.2 17.05 1.4 17.4 L1.4 20.15 1.25 20.5 0.9 20.65 -1.1 20.65 -1.45 20.5 -1.6 20.15 -1.6 17.4 Q-6.3 16.95 -9.95 14.35 L-10.1 14.1 -10.15 14.05 -10.15 13.9 -10.15 13.8 -10.05 13.55 -8.7 12.25 -8.35 12.1 -8.3 12.1 -8.05 12.2 -8.0 12.2 Q-4.55 14.6 0.0 14.6 4.55 14.6 8.15 12.25 L8.2 12.2 M-20.55 -1.35 L-20.2 -1.5 -17.35 -1.5 Q-17.0 -6.25 -14.3 -9.95 L-14.25 -10.0 -14.1 -10.1 -14.0 -10.15 -13.85 -10.15 -13.75 -10.15 -13.55 -10.05 -12.25 -8.75 -12.1 -8.4 -12.15 -8.1 Q-14.6 -4.55 -14.55 0.0 -14.6 4.6 -12.1 8.15 L-12.05 8.45 -12.2 8.8 -13.5 10.05 -13.75 10.2 -14.05 10.2 -14.3 10.0 Q-17.0 6.25 -17.35 1.5 L-20.2 1.5 -20.55 1.35 -20.7 1.0 -20.7 -1.0 -20.55 -1.35" fill="#000000" fill-opacity="0.49803922" fill-rule="evenodd" stroke="none"/>
    <path d="M8.0 -12.8 Q4.5 -15.1 0.0 -15.05 L-3.25 -14.75 Q-6.05 -14.2 -8.4 -12.6 L-9.7 -13.9 Q-6.8 -16.0 -3.25 -16.65 L-1.1 -16.9 -1.1 -20.1 0.9 -20.1 0.9 -16.9 Q4.8 -16.7 8.0 -14.95 L9.7 -13.9 8.4 -12.55 8.0 -12.8 M20.05 -1.0 L20.05 1.0 16.9 1.0 Q16.65 5.9 13.9 9.7 L12.6 8.4 Q15.1 4.7 15.1 0.0 15.1 -4.7 12.6 -8.35 L13.9 -9.7 Q16.65 -5.85 16.9 -1.0 L20.05 -1.0 M0.9 20.15 L-1.1 20.15 -1.1 16.9 Q-5.9 16.6 -9.7 13.9 L-8.35 12.6 Q-4.7 15.1 0.0 15.1 4.7 15.1 8.4 12.6 L9.7 13.9 Q5.85 16.65 0.9 16.9 L0.9 20.15 M-16.9 -1.0 Q-16.65 -5.9 -13.9 -9.7 L-12.6 -8.4 Q-15.1 -4.7 -15.05 0.0 -15.1 4.75 -12.55 8.4 L-13.9 9.7 Q-16.65 5.9 -16.9 1.0 L-20.2 1.0 -20.2 -1.0 -16.9 -1.0" fill="#ffffff" fill-rule="evenodd" stroke="none"/>
  </g>
</svg>
