<?xml version="1.0" encoding="UTF-8" standalone="no"?>
<svg xmlns:ffdec="https://www.free-decompiler.com/flash" xmlns:xlink="http://www.w3.org/1999/xlink" ffdec:objectType="shape" height="49.05px" width="99.0px" xmlns="http://www.w3.org/2000/svg">
  <g transform="matrix(1.0, 0.0, 0.0, 1.0, 49.5, 0.35)">
    <path d="M13.35 -0.2 L13.5 0.15 13.5 7.95 13.35 8.3 13.0 8.45 11.0 8.45 10.65 8.3 10.5 7.95 10.5 2.65 2.35 2.65 7.45 12.55 7.5 12.85 7.35 13.15 7.0 13.25 4.75 13.25 4.5 13.2 4.3 13.0 1.5 7.6 1.5 48.2 1.35 48.55 1.0 48.7 -1.0 48.7 -1.2 48.65 -9.6 48.65 -9.95 48.5 -10.1 48.15 -10.1 46.15 -9.95 45.8 Q-9.8 45.65 -9.6 45.65 L-1.5 45.65 -1.5 36.45 -5.2 36.45 -5.55 36.3 -5.7 35.95 -5.7 33.95 -5.55 33.6 -5.2 33.45 -1.5 33.45 -1.5 24.85 -9.6 24.85 -9.95 24.7 -10.1 24.35 -10.1 22.35 -9.95 22.0 Q-9.8 21.85 -9.6 21.85 L-1.5 21.85 -1.5 7.8 -4.05 13.0 -4.2 13.2 -4.5 13.25 -6.7 13.25 -7.0 13.15 -7.2 12.85 -7.15 12.55 -2.25 2.65 -10.5 2.65 -10.5 7.95 -10.65 8.3 -11.0 8.45 -13.0 8.45 -13.35 8.3 -13.5 7.95 -13.5 0.15 -13.35 -0.2 -13.0 -0.35 13.0 -0.35 13.35 -0.2 M31.35 -0.2 L31.5 0.15 31.5 8.15 31.35 8.5 31.0 8.65 29.0 8.65 28.65 8.5 28.5 8.15 28.5 0.15 28.65 -0.2 29.0 -0.35 31.0 -0.35 31.35 -0.2 M47.0 -0.35 L49.0 -0.35 49.35 -0.2 49.5 0.15 49.5 12.15 49.35 12.5 49.0 12.65 47.0 12.65 46.65 12.5 46.5 12.15 46.5 0.15 46.65 -0.2 47.0 -0.35 M-49.0 -0.35 L-47.0 -0.35 -46.65 -0.2 -46.5 0.15 -46.5 12.15 -46.65 12.5 -47.0 12.65 -49.0 12.65 -49.35 12.5 -49.5 12.15 -49.5 0.15 -49.35 -0.2 -49.0 -0.35 M-28.65 -0.2 L-28.5 0.15 -28.5 8.15 -28.65 8.5 -29.0 8.65 -31.0 8.65 -31.35 8.5 -31.5 8.15 -31.5 0.15 -31.35 -0.2 -31.0 -0.35 -29.0 -0.35 -28.65 -0.2" fill="#000000" fill-opacity="0.49803922" fill-rule="evenodd" stroke="none"/>
    <path d="M-49.0 0.15 L-47.0 0.15 -47.0 12.15 -49.0 12.15 -49.0 0.15 M-31.0 8.15 L-31.0 0.15 -29.0 0.15 -29.0 8.15 -31.0 8.15 M13.0 0.15 L13.0 7.95 11.0 7.95 11.0 2.15 1.5 2.15 7.0 12.75 4.75 12.75 1.0 5.55 1.0 19.15 1.0 37.75 1.0 48.2 -1.0 48.2 -1.0 48.15 -9.6 48.15 -9.6 46.15 -1.0 46.15 -1.0 37.75 -1.0 35.95 -5.2 35.95 -5.2 33.95 -1.0 33.95 -1.0 24.35 -9.6 24.35 -9.6 22.35 -1.0 22.35 -1.0 19.15 -1.0 5.65 -4.5 12.75 -6.7 12.75 -1.45 2.15 -11.0 2.15 -11.0 7.95 -13.0 7.95 -13.0 0.15 13.0 0.15 M29.0 8.15 L29.0 0.15 31.0 0.15 31.0 8.15 29.0 8.15 M49.0 0.15 L49.0 12.15 47.0 12.15 47.0 0.15 49.0 0.15" fill="#ffffff" fill-rule="evenodd" stroke="none"/>
  </g>
</svg>
