<?xml version="1.0" encoding="UTF-8" standalone="no"?>
<svg xmlns:ffdec="https://www.free-decompiler.com/flash" xmlns:xlink="http://www.w3.org/1999/xlink" ffdec:objectType="shape" height="17.0px" width="31.0px" xmlns="http://www.w3.org/2000/svg">
  <g transform="matrix(1.0, 0.0, 0.0, 1.0, 15.5, 8.5)">
    <path d="M5.65 -1.35 L15.0 -1.35 15.35 -1.2 15.5 -0.85 15.5 0.85 15.35 1.2 15.0 1.35 5.65 1.35 Q5.25 2.9 4.1 4.05 2.9 5.25 1.3 5.65 L1.3 8.0 1.15 8.35 0.8 8.5 -0.8 8.5 -1.15 8.35 -1.3 8.0 -1.3 5.65 Q-2.9 5.25 -4.1 4.05 -5.25 2.9 -5.6 1.35 L-15.0 1.35 -15.35 1.2 -15.5 0.85 -15.5 -0.85 -15.35 -1.2 -15.0 -1.35 -5.6 -1.35 Q-5.25 -2.9 -4.1 -4.05 -2.9 -5.25 -1.3 -5.6 L-1.3 -8.0 -1.15 -8.35 -0.8 -8.5 0.8 -8.5 1.15 -8.35 1.3 -8.0 1.3 -5.6 Q2.9 -5.25 4.1 -4.05 5.25 -2.9 5.65 -1.35 M0.0 -3.25 Q-1.4 -3.25 -2.35 -2.3 -3.25 -1.4 -3.25 0.0 -3.25 1.4 -2.35 2.3 -1.4 3.25 0.0 3.25 1.4 3.25 2.35 2.3 3.25 1.4 3.25 0.0 3.25 -1.4 2.35 -2.3 1.4 -3.25 0.0 -3.25" fill="#000000" fill-opacity="0.49803922" fill-rule="evenodd" stroke="none"/>
    <path d="M3.75 -3.7 Q4.95 -2.5 5.2 -0.85 L15.0 -0.85 15.0 0.85 5.2 0.85 Q4.95 2.5 3.75 3.7 2.5 4.95 0.8 5.2 L0.8 8.0 -0.8 8.0 -0.8 5.2 Q-2.5 4.95 -3.75 3.7 -4.95 2.5 -5.2 0.85 L-15.0 0.85 -15.0 -0.85 -5.2 -0.85 Q-4.95 -2.5 -3.75 -3.7 -2.5 -4.95 -0.8 -5.2 L-0.8 -8.0 0.8 -8.0 0.8 -5.2 Q2.5 -4.95 3.75 -3.7 M2.7 -2.65 Q1.6 -3.75 0.0 -3.75 -1.6 -3.75 -2.7 -2.65 -3.75 -1.6 -3.75 0.0 -3.75 1.6 -2.7 2.65 -1.6 3.75 0.0 3.75 1.6 3.75 2.7 2.65 3.75 1.6 3.75 0.0 3.75 -1.6 2.7 -2.65" fill="#ffffff" fill-rule="evenodd" stroke="none"/>
  </g>
</svg>
