<?xml version="1.0" encoding="UTF-8" standalone="no"?>
<svg xmlns:ffdec="https://www.free-decompiler.com/flash" xmlns:xlink="http://www.w3.org/1999/xlink" ffdec:objectType="shape" height="6.0px" width="6.0px" xmlns="http://www.w3.org/2000/svg">
  <g transform="matrix(1.0, 0.0, 0.0, 1.0, 3.0, 3.0)">
    <path d="M2.1 -2.1 Q3.0 -1.2 3.0 0.0 3.0 1.2 2.1 2.1 1.2 3.0 0.0 3.0 -1.2 3.0 -2.1 2.1 -3.0 1.2 -3.0 0.0 -3.0 -1.2 -2.1 -2.1 -1.2 -3.0 0.0 -3.0 1.2 -3.0 2.1 -2.1" fill="#000000" fill-opacity="0.49803922" fill-rule="evenodd" stroke="none"/>
    <path d="M1.4 -1.4 Q2.0 -0.8 2.0 0.0 2.0 0.8 1.4 1.4 0.8 2.0 0.0 2.0 -0.8 2.0 -1.4 1.4 -2.0 0.8 -2.0 0.0 -2.0 -0.8 -1.4 -1.4 -0.8 -2.0 0.0 -2.0 0.8 -2.0 1.4 -1.4" fill="#fefefe" fill-rule="evenodd" stroke="none"/>
  </g>
</svg>
