<?xml version="1.0" encoding="UTF-8" standalone="no"?>
<svg xmlns:ffdec="https://www.free-decompiler.com/flash" xmlns:xlink="http://www.w3.org/1999/xlink" ffdec:objectType="shape" height="113.9px" width="118.35px" xmlns="http://www.w3.org/2000/svg">
  <g transform="matrix(1.0, 0.0, 0.0, 1.0, -0.15, 83.75)">
    <path d="M31.5 -52.85 Q37.35 -59.75 46.25 -68.45 40.5 -70.4 31.45 -71.25 L16.45 -72.25 Q8.35 -72.85 4.8 -74.05 0.15 -75.65 0.15 -79.2 0.15 -82.45 1.15 -83.3 L5.15 -83.5 13.4 -81.7 Q20.15 -80.3 27.25 -79.7 L40.1 -77.35 51.75 -75.2 56.05 -77.0 Q60.35 -78.9 61.75 -79.2 L73.75 -79.2 Q75.85 -78.6 76.85 -77.2 77.5 -76.25 77.5 -75.3 77.5 -73.5 75.3 -72.65 71.9 -71.35 62.25 -71.2 98.0 -52.05 108.65 -40.7 114.35 -34.65 116.55 -27.9 118.5 -22.0 118.5 -13.1 118.5 -0.3 115.85 9.8 111.9 24.85 102.75 30.15 L74.75 30.15 Q17.15 9.75 17.15 -16.7 17.15 -31.0 23.35 -41.75 L25.9 -45.65 32.75 -40.4 26.35 -29.5 Q24.5 -25.35 24.5 -17.2 24.5 -7.5 37.3 3.4 51.45 15.4 74.5 22.4 L101.25 22.15 Q105.8 18.85 108.7 5.4 111.0 -5.2 111.0 -13.35 111.0 -28.9 100.6 -39.1 89.5 -50.0 56.5 -65.45 53.7 -66.75 44.95 -57.45 39.75 -51.95 37.0 -47.9 L32.35 -52.1 31.5 -52.85" fill="#ff0000" fill-opacity="0.8" fill-rule="evenodd" stroke="none"/>
    <path d="M31.5 -52.85 L32.35 -52.1 37.0 -47.9 45.7 -40.05 Q49.2 -37.1 52.45 -34.8 L51.5 -40.0 Q52.0 -41.7 53.35 -43.7 L54.8 -43.25 57.65 -41.15 59.65 -30.4 60.75 -29.8 61.0 -29.4 Q63.75 -28.95 64.2 -26.5 64.8 -23.4 64.35 -23.15 64.55 -22.9 61.45 -22.3 L53.0 -21.9 42.6 -22.6 Q31.35 -24.3 49.9 -27.8 44.3 -31.65 35.2 -38.55 33.95 -39.5 32.75 -40.4 L25.9 -45.65 5.85 -60.75 5.95 -62.9 Q6.15 -63.95 8.0 -64.3 13.4 -65.3 19.95 -61.65 24.5 -59.05 31.5 -52.85" fill="#ff0000" fill-opacity="0.69411767" fill-rule="evenodd" stroke="none"/>
  </g>
</svg>
