<?xml version="1.0" encoding="UTF-8" standalone="no"?>
<svg xmlns:ffdec="https://www.free-decompiler.com/flash" xmlns:xlink="http://www.w3.org/1999/xlink" ffdec:objectType="shape" height="51.1px" width="51.05px" xmlns="http://www.w3.org/2000/svg">
  <g transform="matrix(1.0, 0.0, 0.0, 1.0, 27.95, -64.35)">
    <path d="M6.65 88.8 L-7.65 99.75 -14.05 105.45 -8.75 105.45 Q-7.15 106.25 -5.45 107.95 L-6.15 109.25 Q-7.05 110.5 -8.75 111.7 L-19.7 111.7 -20.45 112.65 -20.9 112.8 Q-21.85 115.45 -24.35 115.45 -27.5 115.45 -27.65 115.0 -27.95 115.15 -27.95 112.0 -27.95 109.55 -26.8 103.6 -25.55 97.4 -24.2 93.5 -20.5 82.75 -20.45 101.6 L-7.15 89.15 20.0 64.35 22.1 64.85 Q23.1 65.25 23.1 67.15 23.1 72.65 18.3 78.35 14.75 82.6 6.65 88.8" fill="#ff0000" fill-opacity="0.69411767" fill-rule="evenodd" stroke="none"/>
  </g>
</svg>
