<?xml version="1.0" encoding="UTF-8" standalone="no"?>
<svg xmlns:ffdec="https://www.free-decompiler.com/flash" xmlns:xlink="http://www.w3.org/1999/xlink" ffdec:objectType="shape" height="104.55px" width="357.2px" xmlns="http://www.w3.org/2000/svg">
  <g transform="matrix(1.0, 0.0, 0.0, 1.0, -190.75, -75.45)">
    <path d="M532.75 111.15 Q532.75 113.05 531.15 113.05 529.0 113.05 525.6 110.3 522.15 112.7 521.15 113.05 L520.05 112.6 Q519.6 112.2 519.6 111.1 519.6 110.05 522.75 107.6 L520.8 105.75 Q521.2 102.0 525.7 105.5 530.15 102.5 531.95 102.7 L532.55 102.9 Q532.75 102.95 532.75 103.95 532.75 104.95 528.8 107.95 L532.75 111.15 M530.8 116.8 L530.8 175.25 531.7 175.45 Q532.15 175.45 538.3 169.3 544.5 163.1 547.65 162.9 L547.8 163.1 547.95 164.15 Q547.95 165.85 540.0 172.8 532.35 179.5 531.65 179.5 L530.55 179.35 529.25 180.0 Q528.45 179.1 527.8 178.0 526.05 176.8 523.95 174.65 518.85 169.5 518.55 165.2 L518.85 164.9 Q519.15 164.55 520.1 164.55 L524.85 170.0 525.9 171.15 Q525.6 168.35 525.9 164.9 526.05 162.9 526.95 156.05 527.7 150.7 527.7 147.75 L527.6 141.05 527.7 131.3 Q527.8 128.95 527.5 123.35 527.5 118.35 529.25 115.55 530.4 116.05 530.8 116.8 M367.65 147.75 Q367.65 148.6 365.15 151.8 368.05 153.65 369.6 155.55 L368.85 156.85 Q368.35 157.5 367.35 157.5 366.8 157.5 362.2 155.15 359.15 158.35 356.75 159.25 L355.6 158.8 Q355.2 158.4 355.2 157.3 355.2 155.55 357.65 152.75 L343.6 145.55 Q337.6 142.8 326.9 140.4 315.65 137.9 308.65 134.9 303.65 132.75 299.6 128.55 293.55 122.3 292.4 121.4 281.5 112.75 250.8 110.3 L221.1 109.85 Q204.9 108.55 202.55 104.05 202.0 103.0 201.7 99.75 201.4 96.75 200.1 94.9 L194.85 86.55 Q190.75 79.85 190.75 79.25 190.75 75.6 193.85 75.45 197.4 75.35 208.9 79.3 L208.1 80.7 Q207.7 81.2 206.7 81.2 205.3 81.2 203.35 80.25 L200.75 79.0 193.85 79.0 Q196.5 82.2 198.8 85.9 L203.45 93.55 Q205.95 97.8 207.0 101.0 207.75 103.35 211.2 104.4 L220.75 106.55 251.05 106.8 Q283.7 109.7 294.3 118.35 297.25 120.75 301.5 125.65 305.75 129.95 311.75 132.4 318.65 135.2 329.1 138.45 L346.0 143.65 Q355.05 146.55 360.85 149.4 363.85 146.55 366.1 145.55 L367.2 146.15 Q367.65 146.65 367.65 147.75 M388.95 130.1 Q388.95 128.9 414.35 125.75 442.05 122.25 453.9 118.8 L452.7 118.45 447.3 117.25 447.1 116.3 Q448.25 115.4 451.0 115.75 L463.6 116.8 464.7 117.0 Q465.15 117.2 465.15 118.25 465.15 120.6 458.7 124.5 451.9 128.2 451.2 128.65 L450.0 128.3 Q449.55 128.0 449.55 126.95 449.55 125.45 452.3 123.25 455.2 120.85 458.15 120.45 L458.65 120.1 455.8 119.35 455.8 119.8 Q455.8 122.4 427.25 127.25 400.2 131.8 391.05 131.8 L389.65 131.6 389.1 131.0 389.05 131.15 388.95 130.1" fill="#ff0000" fill-opacity="0.8" fill-rule="evenodd" stroke="none"/>
  </g>
</svg>
