<?xml version="1.0" encoding="UTF-8" standalone="no"?>
<svg xmlns:ffdec="https://www.free-decompiler.com/flash" xmlns:xlink="http://www.w3.org/1999/xlink" ffdec:objectType="shape" height="47.0px" width="80.0px" xmlns="http://www.w3.org/2000/svg">
  <g transform="matrix(1.0, 0.0, 0.0, 1.0, 0.0, 0.0)">
    <path d="M80.0 46.95 L79.95 47.0 0.05 47.0 0.0 46.95 0.0 0.05 79.95 0.0 80.0 0.05 80.0 46.95" fill="#cccccc" fill-rule="evenodd" stroke="none"/>
    <path d="M17.3 19.35 L17.3 27.3 24.95 27.3 24.95 19.35 17.3 19.35 M17.3 30.45 L17.3 38.4 24.95 38.4 24.95 30.45 17.3 30.45 M24.95 16.2 L24.95 8.4 17.3 8.4 17.3 16.2 24.95 16.2 M54.65 19.35 L54.65 27.3 62.45 27.3 62.45 19.35 54.65 19.35 M64.9 3.1 L64.9 43.9 15.15 43.9 15.15 3.1 64.9 3.1 M52.5 38.6 L52.5 8.4 27.25 8.4 27.25 38.6 52.5 38.6 M54.65 30.45 L54.65 38.4 62.45 38.4 62.45 30.45 54.65 30.45 M62.45 16.2 L62.45 8.4 54.65 8.4 54.65 16.2 62.45 16.2" fill="#999999" fill-rule="evenodd" stroke="none"/>
  </g>
</svg>
