<?xml version="1.0" encoding="UTF-8" standalone="no"?>
<svg xmlns:ffdec="https://www.free-decompiler.com/flash" xmlns:xlink="http://www.w3.org/1999/xlink" ffdec:objectType="shape" height="19.05px" width="17.6px" xmlns="http://www.w3.org/2000/svg">
  <g transform="matrix(1.0, 0.0, 0.0, 1.0, -3.7, -3.0)">
    <path d="M20.3 11.15 L19.35 11.7 19.4 12.55 19.35 13.55 20.25 14.05 Q21.7 15.1 21.0 16.85 L20.45 17.65 Q19.45 19.15 17.75 18.45 L16.85 17.95 15.0 19.0 15.0 20.05 Q14.8 21.85 13.0 22.05 L12.0 22.05 Q10.2 21.85 10.0 20.05 L10.0 18.95 Q8.95 18.55 8.1 17.85 L7.1 18.35 Q5.45 19.0 4.4 17.55 L3.95 16.7 Q3.25 15.0 4.7 13.95 L5.7 13.4 5.65 12.5 5.7 11.6 4.7 11.0 Q3.25 9.9 3.9 8.3 L4.45 7.45 Q5.5 5.95 7.2 6.65 L8.15 7.2 10.0 6.1 10.0 5.0 Q10.2 3.2 12.0 3.0 L13.0 3.0 Q14.8 3.2 15.0 5.0 L15.0 6.1 Q16.05 6.5 17.0 7.25 L17.9 6.75 Q19.55 6.05 20.65 7.6 L21.1 8.45 Q21.8 10.1 20.3 11.15 M12.5 9.65 Q11.35 9.65 10.5 10.45 L10.45 10.5 Q9.65 11.35 9.65 12.5 9.65 13.7 10.45 14.55 L10.5 14.6 Q11.35 15.4 12.5 15.4 13.7 15.4 14.55 14.6 15.4 13.7 15.4 12.55 15.4 11.35 14.55 10.5 13.7 9.65 12.5 9.65" fill="#ffffff" fill-rule="evenodd" stroke="none"/>
  </g>
</svg>
