<?xml version="1.0" encoding="UTF-8" standalone="no"?>
<svg xmlns:ffdec="https://www.free-decompiler.com/flash" xmlns:xlink="http://www.w3.org/1999/xlink" ffdec:objectType="shape" height="25.0px" width="25.0px" xmlns="http://www.w3.org/2000/svg">
  <g transform="matrix(1.0, 0.0, 0.0, 1.0, 0.0, 0.0)">
    <path d="M0.0 0.0 L25.0 0.0 25.0 25.0 0.0 25.0 0.0 0.0" fill="#ffffff" fill-rule="evenodd" stroke="none"/>
    <path d="M19.85 8.1 L19.85 16.95 Q19.6 18.15 18.45 17.75 L10.75 13.35 Q9.85 12.55 10.75 11.7 L18.45 7.3 Q19.6 6.85 19.85 8.1 M7.45 7.1 Q9.1 7.3 9.25 8.9 L9.25 16.15 Q9.1 17.75 7.45 17.95 L6.55 17.95 Q4.95 17.75 4.75 16.15 L4.75 8.9 Q4.95 7.3 6.55 7.1 L7.45 7.1" fill="#000000" fill-rule="evenodd" stroke="none"/>
  </g>
</svg>
