<?xml version="1.0" encoding="UTF-8" standalone="no"?>
<svg xmlns:ffdec="https://www.free-decompiler.com/flash" xmlns:xlink="http://www.w3.org/1999/xlink" ffdec:objectType="shape" height="25.0px" width="25.0px" xmlns="http://www.w3.org/2000/svg">
  <g transform="matrix(1.0, 0.0, 0.0, 1.0, 0.0, 0.0)">
    <path d="M0.0 25.0 L0.0 0.0 25.0 0.0 25.0 25.0 0.0 25.0" fill="#ffffff" fill-rule="evenodd" stroke="none"/>
    <path d="M20.35 16.15 Q20.15 17.75 18.55 17.95 L17.65 17.95 Q16.0 17.75 15.85 16.15 L15.85 8.9 Q16.0 7.3 17.65 7.1 L18.55 7.1 Q20.15 7.3 20.35 8.9 L20.35 16.15 M6.65 7.3 L14.35 11.7 Q15.25 12.5 14.35 13.35 L6.65 17.75 Q5.5 18.15 5.25 16.95 L5.25 8.1 Q5.5 6.85 6.65 7.3" fill="#000000" fill-rule="evenodd" stroke="none"/>
  </g>
</svg>
