<?xml version="1.0" encoding="UTF-8" standalone="no"?>
<svg xmlns:ffdec="https://www.free-decompiler.com/flash" xmlns:xlink="http://www.w3.org/1999/xlink" ffdec:objectType="shape" height="13.0px" width="16.35px" xmlns="http://www.w3.org/2000/svg">
  <g transform="matrix(1.0, 0.0, 0.0, 1.0, -4.4, -5.75)">
    <path d="M9.9 5.75 Q8.45 5.95 8.3 7.35 L8.3 12.8 8.45 13.45 11.2 16.85 10.0 18.35 Q9.2 19.15 8.5 18.35 L4.6 13.45 4.4 12.8 4.4 7.35 Q4.6 5.95 6.0 5.75 L9.9 5.75 M20.75 7.35 L20.75 12.8 20.6 13.45 16.65 18.35 Q15.9 19.15 15.2 18.35 L14.5 17.55 11.25 13.45 11.1 12.8 11.1 7.35 Q11.25 5.95 12.7 5.75 L16.35 5.75 19.15 5.75 Q20.6 5.95 20.75 7.35" fill="#ffffff" fill-rule="evenodd" stroke="none"/>
  </g>
</svg>
