<?xml version="1.0" encoding="UTF-8" standalone="no"?>
<svg xmlns:ffdec="https://www.free-decompiler.com/flash" xmlns:xlink="http://www.w3.org/1999/xlink" ffdec:objectType="shape" height="291.15px" width="291.2px" xmlns="http://www.w3.org/2000/svg">
  <g transform="matrix(1.0, 0.0, 0.0, 1.0, 145.6, 145.55)">
    <path d="M81.4 -120.6 L81.35 -120.4 77.8 -115.05 77.65 -114.95 77.45 -115.0 76.6 -115.55 76.5 -115.7 76.55 -115.9 80.15 -121.25 80.3 -121.35 80.5 -121.3 81.3 -120.75 81.4 -120.6 M102.25 -103.3 L102.4 -103.35 102.45 -103.35 102.6 -103.3 103.3 -102.6 103.3 -102.55 103.35 -102.4 103.3 -102.2 98.8 -97.65 98.65 -97.6 98.6 -97.6 98.45 -97.65 97.7 -98.35 97.6 -98.45 97.6 -98.6 97.65 -98.7 97.65 -98.75 102.2 -103.3 102.25 -103.3 M29.05 -142.6 L29.1 -142.4 27.85 -136.1 27.75 -135.95 27.55 -135.9 26.55 -136.1 26.4 -136.2 26.35 -136.4 27.6 -142.7 27.7 -142.85 27.9 -142.9 28.9 -142.7 29.05 -142.6 M0.7 -145.5 L0.7 -145.45 0.75 -145.3 0.75 -138.9 0.7 -138.7 0.5 -138.65 -0.5 -138.65 -0.65 -138.7 -0.7 -138.7 -0.75 -138.9 -0.75 -145.3 -0.7 -145.45 -0.65 -145.5 -0.5 -145.55 0.5 -145.55 0.7 -145.5 M56.3 -134.25 L56.35 -134.15 56.35 -134.0 53.9 -128.05 53.75 -127.9 53.55 -127.9 52.6 -128.3 52.45 -128.45 52.45 -128.65 54.9 -134.55 55.05 -134.7 55.25 -134.7 56.2 -134.35 56.25 -134.3 56.3 -134.25 M127.95 -53.5 L127.95 -53.7 128.1 -53.85 134.0 -56.35 134.2 -56.35 134.35 -56.2 134.75 -55.25 134.75 -55.05 134.6 -54.9 128.65 -52.45 128.5 -52.45 128.4 -52.5 128.35 -52.55 128.3 -52.6 127.95 -53.5 M120.65 -81.4 L120.8 -81.3 121.35 -80.45 121.4 -80.25 121.3 -80.1 115.95 -76.55 115.75 -76.5 115.6 -76.6 115.05 -77.45 115.0 -77.65 115.1 -77.8 120.45 -81.35 120.65 -81.4 M142.6 -29.05 L142.7 -28.9 142.9 -27.9 142.85 -27.7 142.7 -27.6 136.4 -26.35 136.2 -26.4 136.1 -26.55 135.9 -27.55 135.95 -27.75 136.1 -27.85 142.4 -29.1 142.6 -29.05 M138.7 -0.65 L138.75 -0.7 138.9 -0.75 145.35 -0.75 145.55 -0.7 145.55 -0.65 145.6 -0.5 145.6 0.5 145.55 0.7 145.35 0.75 138.9 0.75 138.75 0.7 138.7 0.7 138.65 0.5 138.65 -0.5 138.7 -0.65 M136.1 26.6 L136.2 26.45 136.4 26.4 142.7 27.65 142.85 27.75 142.9 27.95 142.7 28.9 142.6 29.05 142.4 29.1 136.1 27.85 135.95 27.75 135.9 27.55 136.1 26.6 M98.6 97.65 L98.65 97.65 98.8 97.7 103.3 102.2 103.3 102.25 103.35 102.4 103.3 102.55 102.6 103.3 102.6 103.35 102.5 103.4 102.35 103.4 102.25 103.35 102.2 103.35 97.65 98.8 97.6 98.7 97.6 98.55 97.7 98.4 98.45 97.7 98.6 97.65 M121.4 80.3 L121.35 80.5 120.8 81.35 120.65 81.45 120.45 81.4 115.1 77.8 115.0 77.65 115.05 77.45 115.6 76.65 115.75 76.55 115.95 76.6 121.3 80.15 121.4 80.3 M134.2 56.35 L134.0 56.35 128.1 53.9 127.95 53.75 127.95 53.55 128.3 52.6 128.35 52.6 128.4 52.5 128.5 52.45 128.65 52.45 134.6 54.95 134.65 55.0 134.7 55.05 134.75 55.15 134.75 55.3 134.35 56.2 134.2 56.35 M80.3 121.4 L80.15 121.3 76.55 115.95 76.5 115.75 76.6 115.6 77.45 115.05 77.65 115.0 77.8 115.1 81.35 120.45 81.4 120.65 81.3 120.8 80.5 121.35 80.3 121.4 M53.75 127.95 L53.9 128.1 56.35 134.0 56.35 134.2 56.2 134.35 55.25 134.75 55.05 134.75 54.9 134.6 52.45 128.65 52.45 128.5 52.5 128.4 52.6 128.35 52.6 128.3 53.55 127.95 53.75 127.95 M0.55 138.65 L0.6 138.7 0.7 138.75 0.75 138.9 0.75 145.35 0.7 145.55 0.5 145.6 -0.5 145.6 -0.65 145.55 -0.7 145.55 -0.75 145.35 -0.75 138.9 -0.7 138.75 -0.55 138.7 -0.45 138.65 0.0 138.7 0.5 138.65 0.55 138.65 M27.55 135.95 L27.75 136.0 27.85 136.15 29.1 142.45 29.1 142.6 29.1 142.65 29.0 142.7 28.9 142.75 27.9 142.9 27.7 142.85 27.6 142.7 26.35 136.4 26.35 136.3 26.4 136.25 26.45 136.15 26.55 136.1 27.55 135.95 M-55.05 -134.7 L-54.9 -134.55 -52.45 -128.65 -52.45 -128.45 -52.6 -128.3 -53.55 -127.9 -53.75 -127.9 -53.9 -128.05 -56.35 -134.0 -56.35 -134.15 -56.3 -134.25 -56.2 -134.3 -56.2 -134.35 -55.25 -134.7 -55.05 -134.7 M-80.15 -121.25 L-76.55 -115.9 -76.5 -115.75 -76.5 -115.7 -76.5 -115.65 -76.6 -115.55 -77.45 -115.05 -77.65 -115.0 -77.8 -115.1 -81.35 -120.4 -81.4 -120.6 -81.3 -120.75 -80.5 -121.3 -80.3 -121.35 -80.15 -121.25 M-28.9 -142.7 L-27.9 -142.9 -27.7 -142.85 -27.6 -142.7 -26.35 -136.4 -26.4 -136.2 -26.55 -136.1 -27.55 -135.9 -27.75 -135.95 -27.85 -136.1 -29.1 -142.4 -29.05 -142.6 -28.9 -142.7 M-102.55 -103.3 L-102.4 -103.35 -102.35 -103.35 -102.2 -103.3 -97.65 -98.75 -97.65 -98.7 -97.6 -98.6 -97.6 -98.45 -97.65 -98.35 -97.7 -98.35 -98.45 -97.65 -98.6 -97.6 -98.75 -97.65 -98.8 -97.65 -103.3 -102.2 -103.35 -102.4 -103.3 -102.55 -103.3 -102.6 -102.6 -103.3 -102.55 -103.3 M-120.6 -81.4 L-120.4 -81.35 -115.1 -77.8 -115.0 -77.65 -115.05 -77.45 -115.6 -76.6 -115.75 -76.5 -115.95 -76.55 -121.25 -80.1 -121.35 -80.25 -121.3 -80.45 -120.75 -81.3 -120.6 -81.4 M-134.35 -56.2 L-134.2 -56.35 -134.0 -56.35 -128.1 -53.85 -127.95 -53.7 -127.95 -53.5 -128.3 -52.6 -128.3 -52.55 -128.4 -52.5 -128.5 -52.45 -128.6 -52.45 -128.65 -52.45 -134.6 -54.9 -134.75 -55.05 -134.75 -55.25 -134.35 -56.2 M-135.9 -27.55 L-136.1 -26.55 -136.2 -26.4 -136.4 -26.35 -142.7 -27.6 -142.85 -27.7 -142.9 -27.9 -142.7 -28.9 -142.6 -29.05 -142.4 -29.1 -136.1 -27.85 -135.95 -27.75 -135.9 -27.55 M-145.55 -0.65 L-145.5 -0.7 -145.35 -0.75 -138.9 -0.75 -138.7 -0.7 -138.7 -0.65 -138.65 -0.5 -138.65 0.5 -138.7 0.7 -138.9 0.75 -145.35 0.75 -145.5 0.7 -145.55 0.7 -145.6 0.5 -145.6 -0.5 -145.55 -0.65 M-142.7 27.65 L-136.4 26.4 -136.2 26.45 -136.1 26.6 -135.9 27.55 -135.95 27.75 -136.1 27.85 -142.4 29.1 -142.6 29.05 -142.7 28.9 -142.9 27.95 -142.85 27.75 -142.7 27.65 M-128.6 52.45 L-128.5 52.45 -128.35 52.5 -128.4 52.5 -128.3 52.6 -127.95 53.55 -127.95 53.75 -128.1 53.9 -134.0 56.35 -134.2 56.35 -134.35 56.2 -134.75 55.3 -134.75 55.15 -134.7 55.05 -134.6 55.0 -134.6 54.95 -128.65 52.45 -128.6 52.45 M-115.75 76.55 L-115.6 76.65 -115.05 77.45 -115.0 77.65 -115.1 77.8 -120.4 81.4 -120.5 81.45 -120.55 81.45 -120.65 81.45 -120.75 81.4 -120.75 81.35 -121.3 80.5 -121.35 80.3 -121.25 80.15 -115.95 76.6 -115.75 76.55 M-98.75 97.7 L-98.6 97.65 -98.45 97.7 -97.7 98.4 -97.65 98.4 -97.6 98.55 -97.6 98.7 -97.65 98.8 -102.2 103.35 -102.3 103.4 -102.45 103.4 -102.6 103.35 -102.6 103.3 -103.3 102.55 -103.35 102.4 -103.3 102.25 -103.3 102.2 -98.8 97.7 -98.75 97.7 M-81.35 120.45 L-77.8 115.1 -77.65 115.0 -77.45 115.05 -76.6 115.6 -76.5 115.75 -76.55 115.95 -80.15 121.3 -80.3 121.4 -80.5 121.35 -81.3 120.8 -81.4 120.65 -81.35 120.45 M-27.55 135.95 L-26.55 136.1 -26.4 136.15 -26.45 136.15 -26.35 136.25 -26.35 136.3 -26.35 136.4 -27.6 142.7 -27.7 142.85 -27.9 142.9 -28.9 142.75 -29.0 142.7 -29.05 142.6 -29.1 142.6 -29.1 142.45 -27.85 136.15 -27.75 136.0 -27.55 135.95 M-52.55 128.35 L-52.5 128.4 -52.45 128.5 -52.45 128.65 -54.9 134.6 -55.05 134.75 -55.25 134.75 -56.2 134.35 -56.35 134.2 -56.35 134.0 -53.9 128.1 -53.75 127.95 -53.55 127.95 -52.6 128.3 -52.55 128.35" fill="#ffffff" fill-rule="evenodd" stroke="none"/>
  </g>
</svg>
