<?xml version="1.0" encoding="UTF-8" standalone="no"?>
<svg xmlns:ffdec="https://www.free-decompiler.com/flash" xmlns:xlink="http://www.w3.org/1999/xlink" ffdec:objectType="shape" height="295.0px" width="295.0px" xmlns="http://www.w3.org/2000/svg">
  <g transform="matrix(1.0, 0.0, 0.0, 1.0, 147.5, 147.5)">
    <path d="M104.3 -104.35 Q147.5 -61.15 147.5 0.0 147.5 61.1 104.3 104.25 61.1 147.5 0.0 147.5 -61.1 147.5 -104.35 104.25 -147.5 61.1 -147.5 0.0 -147.5 -61.15 -104.35 -104.35 -61.1 -147.5 0.0 -147.5 61.1 -147.5 104.3 -104.35" fill="#cc0000" fill-opacity="0.0" fill-rule="evenodd" stroke="none"/>
    <path d="M0.0 -133.4 L-4.8 -124.65 4.8 -124.65 0.0 -133.4 M6.35 -123.7 L6.25 -123.65 -6.25 -123.65 -6.3 -123.7 -6.35 -123.75 -6.35 -123.85 -0.1 -135.25 -0.05 -135.3 0.05 -135.3 0.1 -135.25 6.35 -123.85 6.4 -123.75 6.35 -123.7" fill="#ffffff" fill-rule="evenodd" stroke="none"/>
  </g>
</svg>
