<?xml version="1.0" encoding="UTF-8" standalone="no"?>
<svg xmlns:ffdec="https://www.free-decompiler.com/flash" xmlns:xlink="http://www.w3.org/1999/xlink" ffdec:objectType="shape" height="8.0px" width="17.0px" xmlns="http://www.w3.org/2000/svg">
  <g transform="matrix(1.0, 0.0, 0.0, 1.0, 8.5, 4.0)">
    <path d="M2.5 0.0 L2.3 1.05 1.6 2.45 0.7 3.35 -0.3 3.85 -1.7 4.0 -4.4 4.0 -5.15 3.9 -6.1 3.65 -7.1 3.1 -7.7 2.45 -8.15 1.7 -8.5 0.85 -8.5 -0.65 -8.1 -1.9 -6.7 -3.35 -4.4 -4.0 -1.3 -4.0 -2.1 -3.65 -2.65 -3.25 -3.3 -2.4 -4.4 -2.4 -4.95 -2.3 -6.1 -1.7 -6.55 -1.1 -6.9 0.0 -6.75 0.65 -6.55 1.1 -5.9 1.9 -5.1 2.25 -4.4 2.45 -1.7 2.45 -1.05 2.25 0.1 1.6 0.55 0.95 0.75 0.0 2.5 0.0 M0.95 -2.3 L0.3 -1.95 -0.15 -1.5 -0.65 -0.85 -0.7 -0.3 -0.85 0.0 -2.45 0.0 -2.45 -0.45 -1.7 -2.4 -0.7 -3.25 0.95 -4.0 5.1 -4.0 6.05 -3.65 7.0 -3.05 7.65 -2.4 8.4 -0.7 8.5 0.0 8.3 1.05 7.95 1.9 7.45 2.6 6.6 3.35 5.7 3.85 4.35 4.0 1.35 4.0 1.5 3.9 2.55 3.3 3.2 2.45 4.35 2.45 5.4 2.1 6.05 1.7 6.5 1.1 6.7 0.65 6.8 0.0 6.7 -0.65 6.5 -1.1 5.85 -1.9 5.0 -2.3 4.35 -2.4 1.6 -2.4 0.95 -2.3" fill="#828282" fill-rule="evenodd" stroke="none"/>
  </g>
</svg>
