<?xml version="1.0" encoding="UTF-8" standalone="no"?>
<svg xmlns:ffdec="https://www.free-decompiler.com/flash" xmlns:xlink="http://www.w3.org/1999/xlink" ffdec:objectType="shape" height="24.7px" width="14.0px" xmlns="http://www.w3.org/2000/svg">
  <g transform="matrix(1.0, 0.0, 0.0, 1.0, 0.0, 0.55)">
    <path d="M11.55 -0.55 Q13.75 -0.3 14.0 1.9 L14.0 3.5 14.0 5.0 14.0 13.65 0.0 24.15 0.0 5.0 0.0 3.5 0.0 2.05 0.0 1.9 Q0.25 -0.3 2.45 -0.55 L11.55 -0.55 M11.45 0.45 L2.55 0.45 Q1.2 0.6 1.0 1.95 L1.0 2.05 1.0 3.5 1.0 5.0 1.0 22.0 13.0 13.0 13.0 2.05 13.0 2.0 Q12.85 0.6 11.45 0.45" fill="#000000" fill-rule="evenodd" stroke="none"/>
    <path d="M11.45 0.45 Q12.85 0.6 13.0 2.0 L13.0 2.05 13.0 13.0 1.0 22.0 1.0 5.0 1.0 3.5 1.0 2.05 1.0 1.95 Q1.2 0.6 2.55 0.45 L11.45 0.45" fill="#ffffff" fill-rule="evenodd" stroke="none"/>
  </g>
</svg>
