<?xml version="1.0" encoding="UTF-8" standalone="no"?>
<svg xmlns:ffdec="https://www.free-decompiler.com/flash" xmlns:xlink="http://www.w3.org/1999/xlink" ffdec:objectType="shape" height="26.7px" width="14.0px" xmlns="http://www.w3.org/2000/svg">
  <g transform="matrix(1.0, 0.0, 0.0, 1.0, 0.0, 2.55)">
    <path d="M11.45 -1.55 L2.55 -1.55 Q1.15 -1.4 1.0 0.0 L1.0 13.0 13.0 22.0 13.0 3.5 13.0 3.0 13.0 2.05 13.0 -0.05 Q12.8 -1.4 11.45 -1.55 M11.55 -2.55 Q13.75 -2.3 14.0 -0.1 L14.0 2.05 14.0 3.0 14.0 3.5 14.0 24.15 0.0 13.65 0.0 3.5 0.0 3.0 0.0 2.05 0.0 -0.1 Q0.25 -2.3 2.45 -2.55 L11.55 -2.55" fill="#000000" fill-rule="evenodd" stroke="none"/>
    <path d="M11.45 -1.55 Q12.8 -1.4 13.0 -0.05 L13.0 2.05 13.0 3.0 13.0 3.5 13.0 22.0 1.0 13.0 1.0 0.0 Q1.15 -1.4 2.55 -1.55 L11.45 -1.55" fill="#ffffff" fill-rule="evenodd" stroke="none"/>
  </g>
</svg>
