<?xml version="1.0" encoding="UTF-8" standalone="no"?>
<svg xmlns:ffdec="https://www.free-decompiler.com/flash" xmlns:xlink="http://www.w3.org/1999/xlink" ffdec:objectType="shape" height="17.25px" width="13.05px" xmlns="http://www.w3.org/2000/svg">
  <g transform="matrix(1.0, 0.0, 0.0, 1.0, 6.55, 18.8)">
    <path d="M4.05 -18.8 Q6.25 -18.55 6.5 -16.35 L6.5 -9.45 6.25 -8.5 6.2 -8.4 1.3 -2.25 1.3 -2.2 Q0.65 -1.55 0.0 -1.55 -0.65 -1.55 -1.3 -2.2 L-1.35 -2.2 -6.25 -8.35 -6.3 -8.5 -6.55 -9.45 -6.55 -16.35 Q-6.3 -18.55 -4.1 -18.8 L4.05 -18.8 M5.5 -16.3 Q5.3 -17.65 3.95 -17.8 L-4.0 -17.8 Q-5.4 -17.65 -5.55 -16.25 L-5.55 -9.5 -5.45 -9.0 -0.55 -2.85 0.0 -2.55 0.5 -2.85 5.4 -8.95 5.5 -9.55 5.5 -16.3" fill="#000000" fill-rule="evenodd" stroke="none"/>
    <path d="M5.5 -16.3 L5.5 -9.55 5.4 -8.95 0.5 -2.85 0.0 -2.55 -0.55 -2.85 -5.45 -9.0 -5.55 -9.5 -5.55 -16.25 Q-5.4 -17.65 -4.0 -17.8 L3.95 -17.8 Q5.3 -17.65 5.5 -16.3" fill="#ffffff" fill-rule="evenodd" stroke="none"/>
  </g>
</svg>
