<?xml version="1.0" encoding="UTF-8" standalone="no"?>
<svg xmlns:ffdec="https://www.free-decompiler.com/flash" xmlns:xlink="http://www.w3.org/1999/xlink" ffdec:objectType="shape" height="19.45px" width="13.05px" xmlns="http://www.w3.org/2000/svg">
  <g transform="matrix(1.0, 0.0, 0.0, 1.0, 6.55, 21.0)">
    <path d="M6.5 -18.55 L6.5 -15.45 6.5 -9.45 6.25 -8.5 6.2 -8.4 1.3 -2.25 1.3 -2.2 Q0.65 -1.55 0.0 -1.55 -0.65 -1.55 -1.3 -2.2 L-1.35 -2.2 -6.25 -8.35 -6.3 -8.5 -6.55 -9.45 -6.55 -15.45 -6.55 -18.55 Q-6.3 -20.75 -4.1 -21.0 L4.05 -21.0 Q6.25 -20.75 6.5 -18.55 M5.5 -15.45 L5.5 -18.5 Q5.3 -19.85 3.95 -20.0 L-4.0 -20.0 Q-5.4 -19.85 -5.55 -18.45 L-5.55 -15.45 -5.55 -9.5 -5.45 -9.0 -0.55 -2.85 0.0 -2.55 0.5 -2.85 5.4 -8.95 5.5 -9.55 5.5 -15.45" fill="#000000" fill-rule="evenodd" stroke="none"/>
    <path d="M5.5 -15.45 L5.5 -9.55 5.4 -8.95 0.5 -2.85 0.0 -2.55 -0.55 -2.85 -5.45 -9.0 -5.55 -9.5 -5.55 -15.45 -5.55 -18.45 Q-5.4 -19.85 -4.0 -20.0 L3.95 -20.0 Q5.3 -19.85 5.5 -18.5 L5.5 -15.45" fill="#ffffff" fill-rule="evenodd" stroke="none"/>
  </g>
</svg>
