<?xml version="1.0" encoding="UTF-8" standalone="no"?>
<svg xmlns:ffdec="https://www.free-decompiler.com/flash" xmlns:xlink="http://www.w3.org/1999/xlink" ffdec:objectType="shape" height="14.05px" width="10.75px" xmlns="http://www.w3.org/2000/svg">
  <g transform="matrix(1.0, 0.0, 0.0, 1.0, -7.15, -5.5)">
    <path d="M11.1 10.7 L11.1 17.75 10.95 18.45 10.5 19.0 9.9 19.4 9.1 19.55 Q8.25 19.5 7.7 19.0 7.15 18.5 7.15 17.75 7.15 17.35 7.3 17.05 L7.7 16.45 Q8.0 16.2 8.35 16.1 L9.1 15.95 9.8 16.05 9.8 8.85 17.85 5.5 17.9 5.5 17.9 15.6 17.75 16.3 17.3 16.9 16.7 17.25 15.9 17.4 Q15.05 17.4 14.5 16.9 13.95 16.35 13.95 15.6 13.9 15.2 14.1 14.9 L14.5 14.35 15.15 13.95 15.9 13.8 16.3 13.85 16.6 13.95 16.6 8.45 11.1 10.7" fill="#ffffff" fill-rule="evenodd" stroke="none"/>
  </g>
</svg>
