<?xml version="1.0" encoding="UTF-8" standalone="no"?>
<svg xmlns:ffdec="https://www.free-decompiler.com/flash" xmlns:xlink="http://www.w3.org/1999/xlink" ffdec:objectType="shape" height="12.0px" width="12.0px" xmlns="http://www.w3.org/2000/svg">
  <g transform="matrix(1.0, 0.0, 0.0, 1.0, -6.5, -6.5)">
    <path d="M13.5 7.35 L13.5 16.4 Q13.45 17.5 13.75 17.75 14.15 18.1 14.95 18.15 L15.5 18.15 15.5 18.45 15.45 18.5 9.45 18.5 9.4 18.45 9.4 18.15 9.9 18.15 Q10.8 18.1 11.2 17.65 11.4 17.4 11.4 16.4 L11.4 7.35 9.7 7.35 8.3 7.45 Q7.75 7.6 7.4 8.1 7.05 8.55 6.95 9.35 L6.5 9.35 6.65 6.55 18.3 6.5 18.5 9.35 18.05 9.35 17.7 8.35 Q17.35 7.8 16.85 7.6 L15.45 7.35 13.5 7.35" fill="#ffffff" fill-rule="evenodd" stroke="none"/>
  </g>
</svg>
