<?xml version="1.0" encoding="UTF-8" standalone="no"?>
<svg xmlns:ffdec="https://www.free-decompiler.com/flash" xmlns:xlink="http://www.w3.org/1999/xlink" ffdec:objectType="shape" height="157.3px" width="2.0px" xmlns="http://www.w3.org/2000/svg">
  <g transform="matrix(1.0, 0.0, 0.0, 1.0, 1.0, 0.0)">
    <path d="M1.0 44.45 L-1.0 44.45 -1.0 40.45 1.0 40.45 1.0 44.45 M1.0 4.0 L-1.0 4.0 -1.0 0.0 1.0 0.0 1.0 4.0 M1.0 12.1 L-1.0 12.1 -1.0 8.1 1.0 8.1 1.0 12.1 M1.0 20.15 L-1.0 20.15 -1.0 16.15 1.0 16.15 1.0 20.15 M1.0 36.35 L-1.0 36.35 -1.0 32.35 1.0 32.35 1.0 36.35 M1.0 28.25 L-1.0 28.25 -1.0 24.25 1.0 24.25 1.0 28.25 M1.0 60.55 L-1.0 60.55 -1.0 56.55 1.0 56.55 1.0 60.55 M1.0 68.6 L-1.0 68.6 -1.0 64.6 1.0 64.6 1.0 68.6 M1.0 84.65 L-1.0 84.65 -1.0 80.65 1.0 80.65 1.0 84.65 M1.0 92.75 L-1.0 92.75 -1.0 88.75 1.0 88.75 1.0 92.75 M1.0 76.6 L-1.0 76.6 -1.0 72.6 1.0 72.6 1.0 76.6 M1.0 52.5 L-1.0 52.5 -1.0 48.5 1.0 48.5 1.0 52.5 M1.0 141.2 L-1.0 141.2 -1.0 137.2 1.0 137.2 1.0 141.2 M1.0 108.95 L-1.0 108.95 -1.0 104.95 1.0 104.95 1.0 108.95 M1.0 117.0 L-1.0 117.0 -1.0 113.0 1.0 113.0 1.0 117.0 M1.0 133.1 L-1.0 133.1 -1.0 129.1 1.0 129.1 1.0 133.1 M1.0 125.05 L-1.0 125.05 -1.0 121.05 1.0 121.05 1.0 125.05 M1.0 157.3 L-1.0 157.3 -1.0 153.3 1.0 153.3 1.0 157.3 M1.0 149.25 L-1.0 149.25 -1.0 145.25 1.0 145.25 1.0 149.25 M1.0 100.85 L-1.0 100.85 -1.0 96.85 1.0 96.85 1.0 100.85" fill="#ffffff" fill-opacity="0.6" fill-rule="evenodd" stroke="none"/>
  </g>
</svg>
