<?xml version="1.0" encoding="UTF-8" standalone="no"?>
<svg xmlns:ffdec="https://www.free-decompiler.com/flash" xmlns:xlink="http://www.w3.org/1999/xlink" ffdec:objectType="shape" height="126.0px" width="2.0px" xmlns="http://www.w3.org/2000/svg">
  <g transform="matrix(1.0, 0.0, 0.0, 1.0, 0.0, 62.15)">
    <path d="M2.0 -50.15 L0.0 -50.15 0.0 -62.15 2.0 -62.15 2.0 -50.15 M2.0 -26.95 L0.0 -26.95 0.0 -38.95 2.0 -38.95 2.0 -26.95 M2.0 -3.3 L0.0 -3.3 0.0 -15.3 2.0 -15.3 2.0 -3.3 M2.0 8.7 L2.0 20.7 0.0 20.7 0.0 8.7 2.0 8.7 M0.0 44.0 L0.0 32.0 2.0 32.0 2.0 44.0 0.0 44.0 M0.0 63.85 L0.0 51.85 2.0 51.85 2.0 63.85 0.0 63.85" fill="#ffffff" fill-rule="evenodd" stroke="none"/>
  </g>
</svg>
