<?xml version="1.0" encoding="UTF-8" standalone="no"?>
<svg xmlns:ffdec="https://www.free-decompiler.com/flash" xmlns:xlink="http://www.w3.org/1999/xlink" ffdec:objectType="shape" height="128.3px" width="2.0px" xmlns="http://www.w3.org/2000/svg">
  <g transform="matrix(1.0, 0.0, 0.0, 1.0, 0.0, 68.0)">
    <path d="M2.0 -56.0 L2.0 -44.0 0.0 -44.0 0.0 -56.0 2.0 -56.0 M2.0 -68.0 L2.0 -66.0 0.0 -66.0 0.0 -68.0 2.0 -68.0 M2.0 -20.8 L0.0 -20.8 0.0 -32.8 2.0 -32.8 2.0 -20.8 M2.0 -9.15 L2.0 2.85 0.0 2.85 0.0 -9.15 2.0 -9.15 M2.0 26.85 L0.0 26.85 0.0 14.85 2.0 14.85 2.0 26.85 M2.0 38.15 L2.0 50.15 0.0 50.15 0.0 38.15 2.0 38.15 M0.0 57.4 L2.0 57.4 2.0 60.3 0.0 60.3 0.0 57.4" fill="#ffffff" fill-rule="evenodd" stroke="none"/>
  </g>
</svg>
