<?xml version="1.0" encoding="UTF-8" standalone="no"?>
<svg xmlns:ffdec="https://www.free-decompiler.com/flash" xmlns:xlink="http://www.w3.org/1999/xlink" ffdec:objectType="shape" height="120.0px" width="2.0px" xmlns="http://www.w3.org/2000/svg">
  <g transform="matrix(1.0, 0.0, 0.0, 1.0, 0.0, 67.9)">
    <path d="M2.0 -54.05 L2.0 -42.05 0.0 -42.05 0.0 -54.05 2.0 -54.05 M0.0 -67.9 L2.0 -67.9 2.0 -63.3 0.0 -63.3 0.0 -67.9 M0.0 -18.85 L0.0 -30.85 2.0 -30.85 2.0 -18.85 0.0 -18.85 M2.0 -7.2 L2.0 4.8 0.0 4.8 0.0 -7.2 2.0 -7.2 M0.0 28.8 L0.0 16.8 2.0 16.8 2.0 28.8 0.0 28.8 M2.0 40.1 L2.0 52.1 0.0 52.1 0.0 40.1 2.0 40.1" fill="#ffffff" fill-rule="evenodd" stroke="none"/>
  </g>
</svg>
