<?xml version="1.0" encoding="UTF-8" standalone="no"?>
<svg xmlns:ffdec="https://www.free-decompiler.com/flash" xmlns:xlink="http://www.w3.org/1999/xlink" ffdec:objectType="shape" height="121.95px" width="2.0px" xmlns="http://www.w3.org/2000/svg">
  <g transform="matrix(1.0, 0.0, 0.0, 1.0, 0.0, 67.9)">
    <path d="M2.0 -52.1 L2.0 -40.1 0.0 -40.1 0.0 -52.1 2.0 -52.1 M0.0 -67.9 L2.0 -67.9 2.0 -62.15 0.0 -62.15 0.0 -67.9 M0.0 -28.9 L2.0 -28.9 2.0 -16.9 0.0 -16.9 0.0 -28.9 M2.0 -5.25 L2.0 6.75 0.0 6.75 0.0 -5.25 2.0 -5.25 M0.0 18.75 L2.0 18.75 2.0 30.75 0.0 30.75 0.0 18.75 M2.0 42.05 L2.0 54.05 0.0 54.05 0.0 42.05 2.0 42.05" fill="#ffffff" fill-rule="evenodd" stroke="none"/>
  </g>
</svg>
