<?xml version="1.0" encoding="UTF-8" standalone="no"?>
<svg xmlns:ffdec="https://www.free-decompiler.com/flash" xmlns:xlink="http://www.w3.org/1999/xlink" ffdec:objectType="shape" height="123.75px" width="2.0px" xmlns="http://www.w3.org/2000/svg">
  <g transform="matrix(1.0, 0.0, 0.0, 1.0, 0.0, 67.75)">
    <path d="M2.0 -50.15 L2.0 -38.15 0.0 -38.15 0.0 -50.15 2.0 -50.15 M0.0 -67.75 L2.0 -67.75 2.0 -60.95 0.0 -60.95 0.0 -67.75 M2.0 -26.95 L2.0 -14.95 0.0 -14.95 0.0 -26.95 2.0 -26.95 M2.0 -3.3 L2.0 8.7 0.0 8.7 0.0 -3.3 2.0 -3.3 M2.0 20.7 L2.0 32.7 0.0 32.7 0.0 20.7 2.0 20.7 M2.0 44.0 L2.0 56.0 0.0 56.0 0.0 44.0 2.0 44.0" fill="#ffffff" fill-rule="evenodd" stroke="none"/>
  </g>
</svg>
