<?xml version="1.0" encoding="UTF-8" standalone="no"?>
<svg xmlns:ffdec="https://www.free-decompiler.com/flash" xmlns:xlink="http://www.w3.org/1999/xlink" ffdec:objectType="shape" height="125.5px" width="2.0px" xmlns="http://www.w3.org/2000/svg">
  <g transform="matrix(1.0, 0.0, 0.0, 1.0, 0.0, 67.55)">
    <path d="M0.0 -59.0 L0.0 -67.55 2.0 -67.55 2.0 -59.0 0.0 -59.0 M2.0 -48.2 L2.0 -36.2 0.0 -36.2 0.0 -48.2 2.0 -48.2 M2.0 -25.0 L2.0 -13.0 0.0 -13.0 0.0 -25.0 2.0 -25.0 M2.0 -1.35 L2.0 10.65 0.0 10.65 0.0 -1.35 2.0 -1.35 M2.0 34.65 L0.0 34.65 0.0 22.65 2.0 22.65 2.0 34.65 M2.0 45.95 L2.0 57.95 0.0 57.95 0.0 45.95 2.0 45.95" fill="#ffffff" fill-rule="evenodd" stroke="none"/>
  </g>
</svg>
