<?xml version="1.0" encoding="UTF-8" standalone="no"?>
<svg xmlns:ffdec="https://www.free-decompiler.com/flash" xmlns:xlink="http://www.w3.org/1999/xlink" ffdec:objectType="shape" height="127.45px" width="2.0px" xmlns="http://www.w3.org/2000/svg">
  <g transform="matrix(1.0, 0.0, 0.0, 1.0, 0.0, 67.55)">
    <path d="M0.0 -56.75 L0.0 -67.55 2.0 -67.55 2.0 -56.75 0.0 -56.75 M2.0 -34.25 L0.0 -34.25 0.0 -46.25 2.0 -46.25 2.0 -34.25 M0.0 -23.05 L2.0 -23.05 2.0 -11.05 0.0 -11.05 0.0 -23.05 M2.0 0.6 L2.0 12.6 0.0 12.6 0.0 0.6 2.0 0.6 M2.0 24.6 L2.0 36.6 0.0 36.6 0.0 24.6 2.0 24.6 M2.0 47.9 L2.0 59.9 0.0 59.9 0.0 47.9 2.0 47.9" fill="#ffffff" fill-rule="evenodd" stroke="none"/>
  </g>
</svg>
