<?xml version="1.0" encoding="UTF-8" standalone="no"?>
<svg xmlns:ffdec="https://www.free-decompiler.com/flash" xmlns:xlink="http://www.w3.org/1999/xlink" ffdec:objectType="shape" height="616.0px" width="511.5px" xmlns="http://www.w3.org/2000/svg">
  <g transform="matrix(1.0, 0.0, 0.0, 1.0, 390.45, 554.95)">
    <path d="M102.05 -91.95 L92.05 -68.45 79.05 -46.45 52.05 -12.45 Q43.55 -3.95 34.55 4.05 L-3.45 30.05 Q-18.95 37.55 -34.95 45.05 L-74.95 55.55 -125.95 61.05 -229.45 61.05 -229.45 8.55 -390.45 8.55 -389.45 -319.95 Q-385.95 -339.95 -382.95 -360.45 -376.95 -380.95 -371.45 -401.95 L-348.45 -447.95 Q-334.95 -464.45 -321.45 -481.45 -312.45 -489.45 -303.95 -497.95 L-265.95 -523.95 Q-249.95 -531.45 -234.45 -538.95 -214.45 -543.95 -194.45 -549.45 L-153.45 -554.45 Q-96.95 -554.45 -40.45 -554.95 L-40.45 -502.45 121.05 -502.45 120.05 -173.95 Q114.55 -143.95 108.55 -114.45 105.55 -102.95 102.05 -91.95" fill="#424242" fill-rule="evenodd" stroke="none"/>
    <path d="M-127.45 -223.45 L-128.45 -220.95 -129.45 -215.45 -130.45 -215.45 Q-129.95 -217.95 -129.95 -220.95 -130.45 -219.45 -131.45 -217.95 L-140.45 -219.95 -133.95 -212.95 -133.95 -204.95 -134.95 -203.95 -134.95 -194.45 Q-135.95 -193.45 -136.95 -192.95 L-145.45 -192.45 -145.45 -186.45 -143.95 -183.95 -141.45 -183.45 -140.45 -172.95 -113.95 -172.95 -118.95 -188.95 -122.95 -195.45 Q-122.45 -195.45 -121.95 -195.95 -119.95 -192.45 -117.95 -189.45 L-112.95 -172.95 -105.95 -172.95 -103.95 -192.95 -95.45 -193.45 -96.45 -197.45 -96.45 -205.45 Q-95.95 -205.45 -95.45 -205.95 -94.95 -209.45 -94.95 -213.45 -95.45 -213.95 -96.45 -214.45 L-96.45 -218.95 -98.45 -222.45 -100.95 -223.45 -127.45 -223.45 M-135.95 -233.45 Q-135.45 -233.95 -135.45 -234.95 L-128.45 -234.45 Q-127.95 -238.45 -127.95 -242.45 L-130.45 -242.45 -131.45 -238.45 -135.45 -238.45 Q-134.45 -237.95 -133.45 -237.95 -132.95 -237.45 -132.95 -236.95 L-137.45 -237.45 -146.95 -235.45 -144.45 -235.45 -141.45 -232.45 -139.95 -233.45 -135.95 -233.45 M-106.45 -247.45 L-106.45 -250.45 -165.95 -250.45 -165.95 -247.45 -159.95 -247.45 -159.95 -238.45 -157.45 -238.45 -158.45 -248.45 Q-157.45 -247.95 -156.95 -247.95 L-156.45 -247.45 Q-132.95 -247.45 -109.45 -247.95 L-106.45 -247.45 M-116.45 -237.45 L-115.45 -240.95 Q-115.95 -241.45 -116.45 -242.45 L-126.95 -242.45 Q-126.95 -233.45 -127.45 -224.45 -113.95 -224.45 -100.95 -224.95 -100.95 -227.45 -101.45 -229.95 -102.45 -230.95 -103.45 -232.45 L-116.45 -237.45 M-278.45 -439.95 L-272.95 -434.45 -268.95 -438.95 -273.95 -443.95 -278.45 -439.95 M-217.45 -473.45 L-217.45 -379.45 -265.95 -379.45 -265.95 -376.45 -259.95 -375.95 -259.95 -360.95 -256.95 -360.95 -256.95 -362.45 -160.95 -362.45 -160.95 -365.45 -71.45 -365.45 -71.45 -327.95 -79.95 -327.95 -79.95 -324.95 -71.45 -324.95 -71.45 -250.45 -79.95 -250.45 -79.95 -247.45 -70.95 -247.45 -70.95 -165.45 -109.95 -165.45 Q-109.45 -166.45 -109.45 -167.45 -107.45 -167.45 -105.95 -167.95 L-104.95 -168.95 Q-102.95 -168.95 -101.45 -169.45 L-111.95 -169.45 Q-110.95 -167.45 -110.45 -165.45 L-156.95 -165.45 -156.95 -215.95 -157.95 -215.95 -156.95 -225.45 -159.95 -225.45 -159.95 -216.95 -178.95 -216.95 Q-178.95 -216.45 -179.45 -215.95 L-191.95 -215.95 Q-191.95 -216.45 -192.45 -216.95 L-275.45 -216.95 -275.45 -218.95 -278.45 -218.95 -278.45 -206.45 Q-276.95 -201.95 -275.95 -197.95 -276.95 -194.45 -278.45 -191.45 L-278.45 -176.45 -275.45 -176.45 -275.45 -161.45 -277.95 -161.45 Q-277.95 -153.45 -278.45 -145.95 L-288.45 -145.95 -288.45 -142.95 -301.45 -142.95 -301.45 -145.95 -323.95 -145.95 -323.95 -157.95 -316.45 -157.95 -316.45 -165.45 -323.95 -165.45 -323.95 -242.45 -316.45 -242.45 -316.45 -247.45 -304.45 -247.45 -304.45 -250.45 -291.45 -250.45 -291.45 -247.45 -278.45 -247.45 -278.45 -244.95 -275.45 -244.95 -275.45 -247.45 -206.95 -247.45 -206.95 -242.95 -198.95 -242.95 -198.95 -247.45 -192.45 -247.45 -192.45 -250.45 -198.95 -250.45 -198.95 -281.45 -114.95 -281.45 -114.95 -324.95 -106.45 -324.95 -106.45 -327.95 -160.95 -327.95 -160.95 -334.95 -162.95 -334.95 -162.95 -330.95 -198.45 -330.95 -198.45 -334.95 -206.45 -334.95 -206.45 -330.95 -256.95 -330.95 -256.95 -334.95 -259.95 -334.95 -259.95 -316.45 -319.95 -316.45 Q-318.95 -331.95 -318.45 -347.45 -313.95 -361.45 -309.95 -375.95 L-303.45 -376.45 -303.45 -379.45 -308.95 -379.45 Q-307.95 -380.95 -307.45 -382.95 L-313.95 -385.95 -314.45 -385.95 Q-315.45 -382.95 -316.95 -380.45 L-360.45 -398.45 Q-358.95 -401.45 -357.95 -404.95 -361.45 -406.95 -365.45 -409.45 L-346.45 -446.95 Q-332.95 -462.45 -319.95 -477.95 -315.95 -475.45 -312.45 -472.95 L-307.45 -477.95 -312.45 -484.95 -298.45 -497.45 Q-270.45 -513.95 -242.95 -530.95 L-217.45 -473.45" fill="#939393" fill-rule="evenodd" stroke="none"/>
    <path d="M-150.45 -487.95 L-144.45 -487.95 Q-144.45 -491.45 -144.95 -495.45 L-150.95 -495.45 Q-150.45 -491.45 -150.45 -487.95 M-59.95 -550.95 L-58.95 -542.45 -51.45 -542.45 -51.45 -495.45 -59.45 -495.45 Q-58.95 -491.45 -58.95 -487.95 L-51.45 -487.95 -51.45 -475.95 -47.95 -475.95 -47.95 -489.45 49.05 -489.45 49.05 -335.45 12.55 -335.45 12.55 -349.95 10.55 -349.95 10.55 -359.45 Q9.55 -358.95 8.55 -358.95 L8.55 -338.95 -62.95 -338.95 -62.95 -379.45 8.55 -379.45 8.55 -371.45 10.55 -371.45 10.55 -424.45 12.55 -424.45 12.55 -437.95 -47.95 -437.95 -47.95 -449.95 -51.45 -449.95 -51.45 -438.45 -213.45 -438.45 -213.45 -474.95 Q-212.45 -474.95 -211.45 -475.45 -211.95 -476.95 -212.95 -478.95 -213.45 -478.45 -213.95 -478.45 L-216.45 -479.95 -237.45 -531.45 Q-235.95 -531.95 -234.45 -532.95 -234.45 -533.95 -234.95 -534.95 L-153.95 -551.95 -151.95 -542.45 -144.95 -542.45 -143.95 -551.45 Q-101.95 -550.95 -59.95 -550.95" fill="#939393" fill-rule="evenodd" stroke="none"/>
    <path d="M-53.95 -541.95 Q-52.45 -536.45 -51.45 -530.95 -55.95 -529.95 -60.45 -529.45 L-62.45 -540.45 Q-57.95 -540.95 -53.95 -541.95" fill="#6f6f6f" fill-rule="evenodd" stroke="none"/>
    <path d="M-163.95 -493.95 L-164.95 -484.95 -176.45 -486.95 Q-175.45 -491.45 -174.95 -495.95 L-163.95 -493.95" fill="#6f6f6f" fill-rule="evenodd" stroke="none"/>
    <path d="M-155.95 -466.45 L-151.95 -474.45 Q-146.95 -471.45 -141.95 -468.95 L-145.95 -460.95 Q-150.95 -463.45 -155.95 -466.45" fill="#6f6f6f" fill-rule="evenodd" stroke="none"/>
    <path d="M-165.45 -457.95 L-165.45 -466.45 -156.45 -466.45 Q-156.45 -461.95 -156.95 -457.95 L-165.45 -457.95" fill="#6f6f6f" fill-rule="evenodd" stroke="none"/>
    <path d="M-116.45 -236.95 Q-114.95 -241.45 -113.95 -245.95 L-84.95 -237.95 Q-85.95 -233.45 -87.45 -228.95 L-116.45 -236.95" fill="#6f6f6f" fill-rule="evenodd" stroke="none"/>
    <path d="M-95.45 -246.95 L-97.45 -242.95 Q-98.95 -243.45 -100.45 -244.45 L-98.45 -248.45 Q-96.95 -247.45 -95.45 -246.95" fill="#6f6f6f" fill-rule="evenodd" stroke="none"/>
    <path d="M-98.95 -447.45 Q-98.95 -442.95 -99.45 -438.95 L-110.95 -439.95 -109.95 -448.45 -98.95 -447.45" fill="#6f6f6f" fill-rule="evenodd" stroke="none"/>
    <path d="M-84.45 -445.95 Q-85.45 -442.45 -86.95 -439.45 -90.95 -440.95 -95.45 -442.95 L-92.45 -450.95 -85.45 -447.95 Q-80.95 -449.95 -76.95 -452.45 L-71.95 -442.45 Q-75.95 -439.95 -80.45 -437.95 L-84.45 -445.95" fill="#6f6f6f" fill-rule="evenodd" stroke="none"/>
    <path d="M-112.95 -516.45 Q-113.45 -519.45 -114.45 -522.95 L-113.45 -522.95 Q-107.45 -523.95 -101.95 -525.45 L-96.95 -500.95 Q-102.45 -499.45 -108.45 -498.45 L-108.45 -497.45 -112.45 -497.45 Q-112.45 -506.95 -112.95 -516.45" fill="#6f6f6f" fill-rule="evenodd" stroke="none"/>
    <path d="M-112.95 -496.95 Q-117.95 -495.95 -122.95 -495.45 L-126.95 -519.95 -116.95 -521.45 -112.95 -496.95" fill="#6f6f6f" fill-rule="evenodd" stroke="none"/>
    <path d="M-111.45 -495.95 Q-109.95 -483.45 -108.95 -471.45 L-118.95 -470.45 Q-119.95 -482.45 -121.45 -494.95 L-111.45 -495.95" fill="#6f6f6f" fill-rule="evenodd" stroke="none"/>
    <path d="M-108.45 -471.95 Q-107.95 -484.45 -107.95 -496.95 L-95.95 -496.45 Q-95.95 -483.95 -96.45 -471.95 L-108.45 -471.95" fill="#6f6f6f" fill-rule="evenodd" stroke="none"/>
    <path d="M-111.95 -449.45 Q-116.45 -446.95 -121.45 -444.95 -124.45 -451.45 -127.95 -457.95 L-146.95 -443.45 Q-149.95 -447.45 -153.45 -451.45 -142.95 -459.45 -132.95 -467.95 L-134.95 -471.45 Q-129.95 -473.45 -125.45 -475.95 L-111.95 -449.45" fill="#6f6f6f" fill-rule="evenodd" stroke="none"/>
    <path d="M-153.95 -472.45 L-164.45 -472.95 Q-162.95 -485.45 -161.95 -497.95 L-151.45 -496.95 Q-152.45 -484.45 -153.95 -472.45" fill="#6f6f6f" fill-rule="evenodd" stroke="none"/>
    <path d="M-217.95 -500.95 Q-212.45 -503.45 -206.95 -506.45 -201.45 -494.95 -196.45 -483.45 L-207.45 -478.45 Q-212.45 -489.45 -217.95 -500.95" fill="#6f6f6f" fill-rule="evenodd" stroke="none"/>
    <path d="M-252.45 -483.45 Q-245.45 -472.95 -238.45 -462.95 L-248.95 -455.95 -262.45 -476.45 -252.45 -483.45" fill="#6f6f6f" fill-rule="evenodd" stroke="none"/>
    <path d="M-273.45 -469.45 Q-268.45 -472.45 -263.95 -475.45 L-251.45 -453.95 Q-255.95 -450.95 -260.95 -448.45 -266.95 -458.95 -273.45 -469.45" fill="#6f6f6f" fill-rule="evenodd" stroke="none"/>
    <path d="M-333.45 -396.95 L-333.95 -396.95 Q-332.95 -396.45 -332.45 -395.95 -333.45 -394.45 -334.95 -392.95 L-354.95 -408.95 -354.95 -409.45 -348.95 -419.45 -327.45 -406.95 -333.45 -396.95" fill="#6f6f6f" fill-rule="evenodd" stroke="none"/>
    <path d="M-303.45 -395.95 Q-305.95 -390.45 -308.95 -384.95 -319.95 -390.45 -331.45 -395.95 -328.45 -401.45 -325.95 -406.95 -314.45 -401.45 -303.45 -395.95" fill="#6f6f6f" fill-rule="evenodd" stroke="none"/>
    <path d="M-313.45 -361.45 L-309.45 -371.95 -300.95 -368.95 Q-302.45 -363.45 -304.45 -358.45 L-313.45 -361.45" fill="#6f6f6f" fill-rule="evenodd" stroke="none"/>
    <path d="M-317.45 -342.95 L-308.95 -341.45 Q-309.95 -335.95 -311.45 -330.45 L-319.95 -332.45 Q-318.45 -337.45 -317.45 -342.95" fill="#6f6f6f" fill-rule="evenodd" stroke="none"/>
    <path d="M-319.45 -317.95 L-319.45 -329.45 -310.95 -328.95 -310.95 -317.95 -319.45 -317.95" fill="#6f6f6f" fill-rule="evenodd" stroke="none"/>
    <path d="M-142.95 -246.45 L-131.45 -247.45 -130.45 -238.95 -142.45 -237.95 Q-142.45 -241.95 -142.95 -246.45" fill="#6f6f6f" fill-rule="evenodd" stroke="none"/>
    <path d="M-156.45 -206.95 Q-153.45 -221.45 -150.95 -235.95 L-141.45 -234.45 Q-143.95 -219.45 -146.95 -204.95 L-156.45 -206.95" fill="#6f6f6f" fill-rule="evenodd" stroke="none"/>
    <path d="M-80.95 -220.95 L-80.95 -232.95 -71.95 -232.95 -71.95 -220.45 -80.95 -220.95" fill="#6f6f6f" fill-rule="evenodd" stroke="none"/>
    <path d="M-81.95 -208.45 Q-80.95 -214.45 -80.45 -220.45 L-71.45 -219.45 Q-71.95 -213.45 -72.95 -207.45 L-81.95 -208.45" fill="#6f6f6f" fill-rule="evenodd" stroke="none"/>
    <path d="M-309.45 -355.95 Q-306.95 -356.95 -304.95 -358.45 L-302.95 -353.95 Q-304.95 -352.45 -307.45 -351.45 L-309.45 -355.95" fill="#6f6f6f" fill-rule="evenodd" stroke="none"/>
    <path d="M-223.45 -409.45 L-222.95 -408.95 -233.95 -406.95 Q-235.95 -418.95 -238.45 -431.45 L-238.45 -431.95 -227.45 -433.95 Q-224.95 -421.45 -222.95 -409.45 L-223.45 -409.45" fill="#6f6f6f" fill-rule="evenodd" stroke="none"/>
    <path d="M-220.95 -405.95 L-219.45 -405.95 -219.45 -379.45 -221.95 -379.95 -221.95 -381.95 -231.95 -381.95 -231.95 -406.95 -220.95 -406.95 -220.95 -405.95" fill="#6f6f6f" fill-rule="evenodd" stroke="none"/>
    <path d="M-223.45 -434.95 L-221.95 -434.95 Q-220.45 -421.95 -219.45 -408.95 L-220.95 -408.95 Q-221.95 -421.95 -223.45 -434.95" fill="#6f6f6f" fill-rule="evenodd" stroke="none"/>
    <path d="M-266.45 -475.95 Q-271.45 -472.95 -276.45 -470.45 -282.45 -480.95 -288.95 -491.45 -283.95 -493.95 -279.45 -496.95 L-266.45 -475.95" fill="#6f6f6f" fill-rule="evenodd" stroke="none"/>
    <path d="M-265.95 -475.95 Q-271.45 -487.45 -277.45 -498.95 -271.95 -501.95 -266.45 -505.45 -259.95 -494.95 -253.95 -484.45 -258.45 -481.45 -263.45 -478.45 -262.95 -477.95 -262.95 -477.45 -264.45 -476.45 -265.95 -475.95" fill="#6f6f6f" fill-rule="evenodd" stroke="none"/>
    <path d="M-221.45 -501.45 L-226.45 -523.95 -215.95 -530.95 -207.95 -507.45 -221.45 -501.45" fill="#6f6f6f" fill-rule="evenodd" stroke="none"/>
    <path d="M-128.45 -511.45 Q-137.95 -507.45 -147.45 -503.95 L-157.45 -529.45 Q-147.95 -532.95 -138.45 -536.95 L-128.45 -511.45" fill="#6f6f6f" fill-rule="evenodd" stroke="none"/>
    <path d="M-227.45 -213.95 L-227.45 -153.95 -248.95 -153.95 -248.95 -151.45 -258.45 -151.45 -258.45 -153.95 -275.45 -153.95 -275.45 -213.95 -227.45 -213.95" fill="#6f6f6f" fill-rule="evenodd" stroke="none"/>
    <path d="M-273.95 -206.45 L-273.95 -191.45 -278.45 -191.45 -278.45 -206.45 -273.95 -206.45" fill="#ffffff" fill-rule="evenodd" stroke="none"/>
    <path d="M-229.45 -156.45 L-243.45 -156.45 -243.45 -211.45 -229.45 -211.45 -229.45 -156.45" fill="#939393" fill-rule="evenodd" stroke="none"/>
    <path d="M-246.45 -525.95 Q-245.95 -524.95 -245.95 -524.45 L-271.95 -509.45 Q-271.45 -507.95 -271.45 -506.95 -260.95 -513.45 -250.45 -520.45 L-248.95 -518.95 Q-247.95 -518.95 -247.45 -519.45 L-236.45 -496.95 -237.45 -495.45 -238.45 -490.95 Q-245.95 -484.95 -253.95 -479.45 L-254.45 -479.95 Q-258.95 -476.95 -263.95 -473.95 L-263.95 -472.95 -274.95 -464.45 -276.95 -464.45 -279.45 -462.45 -282.45 -462.95 -297.45 -481.45 Q-296.95 -481.95 -296.95 -482.45 L-297.95 -488.95 -298.95 -489.95 Q-300.45 -488.45 -302.45 -487.45 -302.45 -487.95 -302.95 -488.45 L-282.45 -504.45 Q-264.45 -514.95 -246.45 -525.95 M-231.45 -521.95 Q-216.95 -524.95 -202.95 -528.45 L-202.45 -528.45 Q-202.45 -528.95 -202.95 -529.45 -202.45 -529.45 -202.45 -529.95 L-200.95 -529.45 -192.45 -531.45 -191.95 -530.95 -201.45 -527.95 -198.45 -522.95 -195.45 -524.95 -193.45 -524.95 Q-192.95 -525.45 -192.95 -526.45 -191.45 -526.45 -190.45 -526.95 L-187.45 -513.45 -188.95 -513.45 Q-187.95 -511.95 -187.45 -510.45 L-180.45 -513.45 Q-182.45 -520.95 -184.95 -528.45 L-180.95 -530.45 Q-179.95 -529.95 -179.45 -529.45 L-164.95 -534.45 -164.95 -516.45 -175.45 -513.45 -173.95 -512.95 -173.95 -511.95 Q-173.45 -511.45 -172.95 -511.45 L-171.45 -508.95 Q-167.45 -509.95 -163.45 -511.45 L-164.45 -515.45 Q-162.45 -517.95 -160.95 -520.95 L-151.45 -521.45 Q-150.45 -517.95 -149.95 -514.45 -148.45 -513.45 -147.45 -512.95 -147.95 -510.95 -148.95 -509.45 -148.45 -507.95 -148.45 -506.45 -149.45 -505.95 -150.95 -505.45 -151.45 -503.95 -152.45 -502.95 L-163.95 -505.45 -162.95 -506.95 -162.95 -507.45 Q-166.95 -505.95 -171.45 -504.95 L-170.45 -499.95 Q-170.95 -499.45 -171.45 -499.45 -171.45 -498.95 -171.95 -498.45 L-173.95 -498.45 Q-174.95 -496.95 -176.45 -495.95 L-178.95 -495.95 -180.95 -499.95 Q-181.45 -499.45 -181.95 -499.45 L-180.95 -496.45 Q-181.95 -494.95 -183.45 -493.95 -193.95 -490.95 -204.45 -488.45 -208.95 -486.45 -213.95 -484.95 -214.95 -484.95 -215.95 -485.45 -221.95 -500.45 -228.45 -515.45 L-217.45 -517.45 Q-217.45 -517.95 -217.95 -518.95 L-215.45 -520.95 Q-214.95 -520.45 -214.95 -519.95 L-215.45 -519.95 -216.95 -518.95 -216.95 -516.95 Q-210.45 -517.95 -204.45 -519.45 L-209.45 -526.45 -231.45 -521.45 -231.45 -521.95 M-199.45 -522.45 L-201.95 -527.95 Q-204.95 -526.95 -208.45 -526.45 L-203.95 -519.95 Q-201.45 -520.95 -199.45 -522.45 M-232.95 -533.95 Q-194.45 -541.95 -156.45 -550.45 -155.95 -548.95 -155.95 -547.45 L-177.45 -544.45 -162.45 -545.45 -162.45 -544.95 -156.95 -544.45 Q-156.45 -542.95 -156.45 -541.45 -155.45 -540.95 -154.95 -540.95 -153.95 -538.45 -153.45 -536.45 L-154.95 -535.45 -166.45 -535.95 Q-166.45 -536.45 -166.95 -537.45 L-184.95 -532.45 Q-185.95 -531.45 -187.45 -530.95 L-187.45 -531.45 -186.95 -531.45 -186.95 -531.95 Q-186.45 -531.95 -186.45 -532.45 -184.45 -532.95 -182.45 -533.95 -181.45 -533.95 -180.45 -534.45 L-182.95 -534.95 Q-183.95 -538.45 -185.45 -542.45 L-232.45 -530.95 Q-232.45 -532.45 -232.95 -533.95 M-175.95 -542.45 L-174.95 -539.95 -174.45 -539.95 Q-174.45 -538.45 -174.95 -537.45 L-167.45 -537.95 Q-167.45 -540.45 -167.95 -542.95 L-165.95 -543.95 -176.45 -543.45 -177.45 -542.45 -175.95 -542.45 M-186.95 -509.95 Q-184.95 -506.45 -183.45 -502.95 -182.45 -502.95 -181.45 -503.45 L-181.45 -511.45 -179.45 -511.45 Q-178.95 -510.95 -178.45 -510.95 L-177.45 -512.95 Q-178.45 -512.95 -179.45 -513.45 L-179.45 -512.95 Q-182.95 -511.45 -186.95 -509.95 M-293.95 -444.95 L-304.95 -456.95 -309.95 -451.95 Q-309.95 -449.95 -310.45 -447.95 L-310.95 -448.45 Q-310.45 -449.95 -310.45 -451.95 L-302.45 -460.45 -301.45 -460.45 -290.95 -448.95 -292.45 -447.95 Q-291.95 -446.95 -291.95 -446.45 L-293.95 -444.95 M-297.45 -489.45 Q-296.95 -489.95 -296.95 -490.95 -296.45 -490.95 -296.45 -491.45 -296.45 -490.45 -296.95 -489.95 -288.95 -495.45 -280.95 -501.45 L-281.95 -502.95 Q-289.95 -496.45 -298.45 -490.45 L-297.45 -489.45 M-286.95 -442.95 Q-286.45 -445.45 -286.45 -448.45 -285.95 -448.45 -285.95 -448.95 L-283.45 -446.95 Q-283.45 -443.95 -283.95 -440.95 L-286.95 -442.95" fill="#6f6f6f" fill-rule="evenodd" stroke="none"/>
    <path d="M-63.45 -338.95 L-63.45 -379.45 -14.95 -379.45 -14.95 -359.45 -39.95 -359.45 -39.95 -358.45 -12.95 -358.45 -12.95 -338.95 -63.45 -338.95" fill="#ffffff" fill-rule="evenodd" stroke="none"/>
  </g>
</svg>
