<?xml version="1.0" encoding="UTF-8" standalone="no"?>
<svg xmlns:ffdec="https://www.free-decompiler.com/flash" xmlns:xlink="http://www.w3.org/1999/xlink" ffdec:objectType="shape" height="646.3px" width="779.1px" xmlns="http://www.w3.org/2000/svg">
  <g transform="matrix(1.0, 0.0, 0.0, 1.0, 210.5, 502.65)">
    <path d="M420.0 51.1 L420.0 59.7 467.35 59.7 467.35 74.0 568.6 74.0 568.6 143.65 325.35 143.65 144.5 92.45 -22.9 92.45 -68.55 32.25 -80.75 28.3 -85.4 26.15 -90.0 23.0 -93.95 19.05 -97.2 14.5 -99.6 9.45 -101.05 4.05 -101.6 -1.5 -101.15 -7.1 -99.75 -12.5 -97.4 -17.55 -94.2 -22.15 -90.3 -26.15 -85.75 -29.35 -80.7 -31.75 -75.3 -33.25 -72.35 -33.5 -78.15 -43.7 -71.85 -52.9 -103.0 -80.45 -135.65 -114.25 -161.85 -145.8 -179.15 -170.0 -88.15 -233.15 -210.5 -444.45 -109.9 -502.65 -50.7 -400.5 -25.0 -415.6 48.4 -290.7 75.15 -303.75 84.9 -306.8 95.05 -308.2 105.3 -307.85 115.35 -305.75 124.9 -302.0 133.65 -296.7 141.4 -290.0 147.95 -282.1 153.0 -273.15 156.5 -263.55 158.3 -253.45 158.4 -243.2 156.75 -233.05 153.4 -223.4 148.45 -214.4 142.1 -206.35 134.45 -199.55 125.75 -194.1 117.8 -190.8 143.45 -172.8 78.8 -81.95 92.2 -76.5 113.1 -69.25 161.65 -56.8 192.15 -51.9 227.1 -49.9 371.85 -49.9 372.35 51.0 420.0 51.1" fill="#434343" fill-rule="evenodd" stroke="none"/>
    <path d="M-2.75 -217.95 L2.25 -225.1 1.45 -225.65 9.65 -237.3 10.45 -236.75 16.15 -244.9 55.15 -217.5 42.25 -199.15 42.4 -199.05 43.5 -198.65 58.7 -220.3 64.5 -216.1 65.1 -216.95 63.05 -219.05 58.65 -225.4 55.45 -232.4 53.45 -239.8 52.75 -247.5 53.3 -255.15 55.2 -262.6 58.3 -269.65 62.6 -276.05 67.85 -281.65 74.0 -286.3 80.85 -289.8 88.2 -292.15 95.85 -293.15 103.55 -292.9 111.05 -291.35 118.25 -288.55 124.8 -284.55 130.65 -279.5 135.5 -273.55 139.35 -266.85 141.95 -259.6 143.3 -252.05 143.35 -244.35 142.15 -236.75 139.65 -229.45 135.95 -222.7 131.15 -216.7 125.4 -211.55 118.9 -207.45 111.75 -204.55 104.25 -202.85 96.55 -202.5 88.9 -203.4 81.55 -205.6 80.55 -206.05 79.9 -205.1 83.95 -202.25 73.1 -186.8 73.95 -186.25 81.75 -197.55 94.15 -189.1 105.2 -172.15 110.5 -155.5 101.85 -153.65 74.25 -162.25 62.75 -170.3 65.45 -174.25 64.7 -174.8 42.45 -143.1 43.2 -142.55 56.1 -160.9 95.1 -133.5 89.55 -125.6 90.45 -125.0 82.25 -113.35 81.35 -113.95 76.15 -106.55 37.15 -133.95 38.25 -135.45 37.45 -136.0 22.25 -114.4 23.0 -113.9 35.85 -132.15 74.85 -104.75 69.5 -97.1 70.6 -96.35 62.4 -84.7 61.3 -85.5 55.9 -77.8 16.9 -105.2 18.0 -106.8 17.25 -107.3 14.2 -103.0 -11.2 -120.85 -2.0 -133.9 -2.85 -134.5 -5.25 -131.05 -23.0 -143.5 -34.8 -165.5 -26.15 -172.65 1.75 -166.35 13.65 -158.0 5.85 -146.85 6.65 -146.25 18.15 -162.6 17.45 -163.05 16.4 -161.55 -22.6 -188.95 -17.4 -196.3 -18.45 -197.05 -10.25 -208.65 -9.25 -207.95 -3.65 -215.9 35.35 -188.5 22.45 -170.15 23.1 -169.7 38.3 -191.3 37.25 -192.0 36.25 -190.55 -2.75 -217.95" fill="#969696" fill-rule="evenodd" stroke="none"/>
    <path d="M71.25 -68.85 L86.9 -62.45 108.7 -54.9 158.65 -42.1 190.5 -36.95 226.65 -34.9 356.85 -34.9 356.85 37.85 224.8 37.7 182.2 35.65 144.05 29.5 116.35 22.65 87.35 14.95 41.9 -2.85 25.0 -10.5 4.4 -21.0 -28.55 -39.35 -57.5 -60.2 -92.65 -91.3 -121.8 -121.3 -150.0 -155.0 -158.05 -166.3 -97.9 -207.65 -91.5 -198.35 -67.5 -169.5 -42.85 -143.55 -12.45 -117.75 11.3 -100.6 38.0 -85.0 57.05 -76.1 71.25 -68.85" fill="#828282" fill-rule="evenodd" stroke="none"/>
    <path d="M100.95 -258.35 L104.2 -256.95 106.8 -254.65 108.6 -251.65 109.35 -248.25 109.05 -244.8 107.65 -241.6 105.35 -238.95 102.4 -237.2 99.0 -236.4 95.5 -236.75 92.3 -238.1 89.7 -240.4 87.9 -243.4 87.1 -246.8 87.45 -250.25 88.8 -253.45 91.1 -256.1 94.1 -257.9 97.5 -258.65 100.95 -258.35" fill="#707070" fill-rule="evenodd" stroke="none"/>
    <path d="M334.75 -27.5 L345.15 -27.5 345.15 17.5 334.75 17.5 334.75 -27.5" fill="#707070" fill-rule="evenodd" stroke="none"/>
    <path d="M304.9 -27.0 L315.25 -27.0 315.25 18.0 304.9 18.0 304.9 -27.0" fill="#707070" fill-rule="evenodd" stroke="none"/>
    <path d="M275.9 -27.35 L286.25 -27.35 286.25 17.65 275.9 17.65 275.9 -27.35" fill="#707070" fill-rule="evenodd" stroke="none"/>
    <path d="M246.5 -27.5 L256.9 -27.5 256.9 17.5 246.5 17.5 246.5 -27.5" fill="#707070" fill-rule="evenodd" stroke="none"/>
    <path d="M216.95 -27.45 L227.3 -27.35 227.0 17.65 216.6 17.55 216.95 -27.45" fill="#707070" fill-rule="evenodd" stroke="none"/>
    <path d="M187.65 -29.7 L198.0 -28.65 193.45 16.1 183.1 15.05 187.65 -29.7" fill="#707070" fill-rule="evenodd" stroke="none"/>
    <path d="M158.25 -34.85 L168.5 -33.05 160.55 11.25 150.35 9.45 158.25 -34.85" fill="#707070" fill-rule="evenodd" stroke="none"/>
    <path d="M128.7 4.55 L118.65 2.0 129.55 -41.65 139.65 -39.1 128.7 4.55" fill="#707070" fill-rule="evenodd" stroke="none"/>
    <path d="M101.15 -49.75 L111.05 -46.7 97.75 -3.7 87.85 -6.75 101.15 -49.75" fill="#707070" fill-rule="evenodd" stroke="none"/>
    <path d="M82.6 -56.55 L66.3 -14.6 56.65 -18.4 72.95 -60.35 82.6 -56.55" fill="#707070" fill-rule="evenodd" stroke="none"/>
    <path d="M35.8 -28.1 L26.45 -32.65 46.2 -73.1 55.55 -68.55 35.8 -28.1" fill="#707070" fill-rule="evenodd" stroke="none"/>
    <path d="M19.25 -85.95 L28.25 -80.75 5.85 -41.75 -3.15 -46.9 19.25 -85.95" fill="#707070" fill-rule="evenodd" stroke="none"/>
    <path d="M-8.85 -103.15 L-0.4 -97.15 -26.6 -60.55 -35.0 -66.55 -8.85 -103.15" fill="#707070" fill-rule="evenodd" stroke="none"/>
    <path d="M46.25 -93.6 L40.25 -97.85 50.55 -112.25 56.5 -108.0 46.25 -93.6" fill="#707070" fill-rule="evenodd" stroke="none"/>
    <path d="M60.5 -126.75 L70.8 -141.1 76.75 -136.85 66.5 -122.45 60.5 -126.75" fill="#707070" fill-rule="evenodd" stroke="none"/>
    <path d="M7.4 -182.6 L-7.0 -192.9 -2.7 -198.85 11.65 -188.6 7.4 -182.6" fill="#707070" fill-rule="evenodd" stroke="none"/>
    <path d="M27.55 -211.35 L13.15 -221.65 17.4 -227.6 31.8 -217.35 27.55 -211.35" fill="#707070" fill-rule="evenodd" stroke="none"/>
    <path d="M-54.7 -83.5 L-62.6 -90.25 -33.3 -124.45 -25.4 -117.7 -54.7 -83.5" fill="#707070" fill-rule="evenodd" stroke="none"/>
    <path d="M-54.9 -144.85 L-47.45 -137.6 -78.85 -105.35 -86.25 -112.55 -54.9 -144.85" fill="#707070" fill-rule="evenodd" stroke="none"/>
    <path d="M-75.55 -167.15 L-68.7 -159.4 -102.45 -129.6 -109.3 -137.4 -75.55 -167.15" fill="#707070" fill-rule="evenodd" stroke="none"/>
    <path d="M-93.85 -190.7 L-87.45 -182.55 -122.9 -154.85 -129.3 -163.0 -93.85 -190.7" fill="#707070" fill-rule="evenodd" stroke="none"/>
    <path d="M297.5 1.35 L297.5 14.5 294.2 14.5 294.2 1.35 297.5 1.35" fill="#434343" fill-rule="evenodd" stroke="none"/>
    <path d="M202.7 13.85 L203.35 0.7 206.65 0.9 206.0 14.05 202.7 13.85" fill="#434343" fill-rule="evenodd" stroke="none"/>
    <path d="M110.25 -16.45 L113.45 -15.55 109.7 -2.9 106.55 -3.85 110.25 -16.45" fill="#434343" fill-rule="evenodd" stroke="none"/>
    <path d="M16.25 -40.7 L22.55 -52.25 25.45 -50.65 19.15 -39.1 16.25 -40.7" fill="#434343" fill-rule="evenodd" stroke="none"/>
    <path d="M-58.7 -108.9 L-67.45 -99.0 -69.95 -101.25 -61.2 -111.1 -58.7 -108.9" fill="#434343" fill-rule="evenodd" stroke="none"/>
    <path d="M-135.25 -175.1 L-124.75 -183.0 -122.75 -180.35 -133.25 -172.45 -135.25 -175.1" fill="#434343" fill-rule="evenodd" stroke="none"/>
    <path d="M19.3 -13.4 L23.45 -23.15 52.95 -11.0 48.7 -0.15 41.9 -2.85 19.3 -13.4" fill="#ffffff" fill-rule="evenodd" stroke="none"/>
    <path d="M288.85 37.85 L257.2 37.85 257.2 26.25 288.85 26.25 288.85 37.85" fill="#ffffff" fill-rule="evenodd" stroke="none"/>
    <path d="M-94.55 -93.25 L-116.65 -116.0 -108.15 -123.15 -87.5 -99.8 -94.55 -93.25" fill="#ffffff" fill-rule="evenodd" stroke="none"/>
    <path d="M105.2 -165.65 L86.5 -178.5 94.15 -189.1 123.0 -168.8 119.7 -163.65 121.5 -162.3 109.5 -145.15 107.5 -146.15 104.0 -141.65 74.25 -162.25 82.25 -172.75 101.0 -159.65 105.2 -165.65" fill="#ffffff" fill-rule="evenodd" stroke="none"/>
    <path d="M3.5 -165.45 L-3.8 -154.65 -24.5 -168.9 -28.65 -162.9 -10.0 -150.1 -17.6 -139.5 -46.5 -159.75 -43.15 -164.9 -45.0 -166.25 -33.0 -183.4 -31.0 -182.4 -27.5 -186.9 3.5 -165.45" fill="#ffffff" fill-rule="evenodd" stroke="none"/>
  </g>
</svg>
