<?xml version="1.0" encoding="UTF-8" standalone="no"?>
<svg xmlns:ffdec="https://www.free-decompiler.com/flash" xmlns:xlink="http://www.w3.org/1999/xlink" ffdec:objectType="shape" height="165.0px" width="245.3px" xmlns="http://www.w3.org/2000/svg">
  <g transform="matrix(1.0, 0.0, 0.0, 1.0, 112.0, 74.7)">
    <path d="M133.3 90.3 L-112.0 90.3 -112.0 -74.7 133.3 -74.7 133.3 90.3" fill="#424242" fill-rule="evenodd" stroke="none"/>
    <path d="M77.0 -66.35 L77.0 -13.9 127.3 -13.9 127.65 2.95 125.65 2.95 125.65 19.65 108.65 19.65 108.65 2.95 74.0 2.95 74.0 13.15 77.0 13.15 77.0 82.4 -102.55 82.4 -102.55 13.15 -100.25 13.15 -100.25 3.6 -102.55 3.6 -102.55 -66.35 -21.7 -66.35 -21.7 -63.7 -11.35 -63.7 -11.35 -66.35 77.0 -66.35" fill="#959595" fill-rule="evenodd" stroke="none"/>
    <path d="M77.0 -66.35 L77.0 -27.0 65.0 -27.0 65.0 -50.35 60.35 -54.7 15.0 -54.7 15.0 -59.7 -0.7 -59.7 -0.7 -66.35 77.0 -66.35" fill="#6f6f6f" fill-rule="evenodd" stroke="none"/>
    <path d="M68.65 -27.35 L77.0 -27.35 77.0 -17.0 70.0 -17.0 70.0 -20.25 68.65 -20.25 68.65 -27.35" fill="#6f6f6f" fill-rule="evenodd" stroke="none"/>
    <path d="M77.0 16.6 L77.0 40.1 68.6 40.1 68.6 16.6 77.0 16.6" fill="#6f6f6f" fill-rule="evenodd" stroke="none"/>
    <path d="M71.85 40.6 L77.0 40.6 77.0 54.35 71.85 54.35 71.85 40.6" fill="#6f6f6f" fill-rule="evenodd" stroke="none"/>
    <path d="M69.85 61.6 L70.85 61.6 69.25 57.15 74.8 55.2 77.0 61.55 77.0 74.85 70.35 74.85 70.35 68.1 69.85 68.1 69.85 61.6" fill="#6f6f6f" fill-rule="evenodd" stroke="none"/>
    <path d="M-102.55 82.4 L-102.55 58.5 -94.75 58.5 -94.75 82.4 -102.55 82.4" fill="#6f6f6f" fill-rule="evenodd" stroke="none"/>
    <path d="M-101.15 42.75 L-96.5 42.75 -96.5 56.25 -101.15 56.25 -101.15 42.75" fill="#6f6f6f" fill-rule="evenodd" stroke="none"/>
    <path d="M-95.5 13.75 L-95.5 37.35 -102.55 37.35 -102.55 13.75 -95.5 13.75" fill="#6f6f6f" fill-rule="evenodd" stroke="none"/>
    <path d="M-102.55 -28.15 L-98.4 -28.15 -98.4 1.1 -102.55 1.1 -102.55 -28.15" fill="#6f6f6f" fill-rule="evenodd" stroke="none"/>
    <path d="M-102.55 -28.4 L-102.55 -34.5 -95.5 -34.5 -95.5 -28.4 -102.55 -28.4" fill="#6f6f6f" fill-rule="evenodd" stroke="none"/>
    <path d="M-97.6 -65.25 L-96.65 -63.5 -97.0 -61.5 -98.55 -60.25 -100.55 -60.3 -102.05 -61.6 -102.4 -63.6 -101.35 -65.3 -99.5 -65.95 -97.6 -65.25" fill="#6f6f6f" fill-rule="evenodd" stroke="none"/>
    <path d="M-5.6 -65.55 L-4.65 -63.8 -5.0 -61.85 -6.55 -60.6 -8.55 -60.65 -10.05 -61.95 -10.4 -63.9 -9.35 -65.6 -7.5 -66.25 -5.6 -65.55" fill="#6f6f6f" fill-rule="evenodd" stroke="none"/>
    <path d="M-24.5 -65.95 L-22.6 -65.25 -21.65 -63.5 -22.0 -61.5 -23.55 -60.25 -25.55 -60.3 -27.05 -61.6 -27.4 -63.6 -26.35 -65.3 -24.5 -65.95" fill="#6f6f6f" fill-rule="evenodd" stroke="none"/>
    <path d="M-27.35 -61.7 L-40.7 -61.7 -40.7 -65.7 -27.35 -65.7 -27.35 -61.7" fill="#6f6f6f" fill-rule="evenodd" stroke="none"/>
    <path d="M-83.45 82.4 L-23.85 82.4 -23.85 90.3 -83.45 90.3 -83.45 82.4" fill="#ffffff" fill-rule="evenodd" stroke="none"/>
    <path d="M-8.45 82.4 L51.15 82.4 51.15 90.3 -8.45 90.3 -8.45 82.4" fill="#ffffff" fill-rule="evenodd" stroke="none"/>
    <path d="M80.3 -13.9 L80.3 2.95 77.0 2.95 77.0 -13.9 80.3 -13.9" fill="#ffffff" fill-rule="evenodd" stroke="none"/>
    <path d="M129.3 -13.9 L129.3 2.95 126.0 2.95 126.0 -13.9 129.3 -13.9" fill="#ffffff" fill-rule="evenodd" stroke="none"/>
  </g>
</svg>
