<?xml version="1.0" encoding="UTF-8" standalone="no"?>
<svg xmlns:ffdec="https://www.free-decompiler.com/flash" xmlns:xlink="http://www.w3.org/1999/xlink" ffdec:objectType="shape" height="152.0px" width="1194.05px" xmlns="http://www.w3.org/2000/svg">
  <g transform="matrix(1.0, 0.0, 0.0, 1.0, 386.75, 80.5)">
    <path d="M765.6 -78.85 L783.55 -72.6 792.25 -67.75 799.35 -60.85 804.35 -52.45 806.95 -43.1 806.95 -37.1 807.3 -37.1 807.3 34.1 804.7 43.45 799.65 51.9 792.6 58.75 783.9 63.6 765.95 69.85 737.7 69.85 728.6 71.5 -114.4 71.5 -144.65 69.5 -194.3 63.35 -219.0 58.85 -243.65 53.8 -293.35 39.85 -335.4 22.75 -381.05 2.4 -384.6 -0.5 -386.15 -2.05 -386.75 -4.1 -386.75 -4.5 -386.15 -6.55 -384.6 -8.1 -381.05 -11.0 -335.4 -31.35 -293.35 -48.45 -243.65 -62.4 -219.0 -67.45 -194.3 -71.9 -144.65 -78.1 -114.4 -80.1 -114.4 -80.5 728.3 -80.5 737.35 -78.85 765.6 -78.85" fill="#434343" fill-rule="evenodd" stroke="none"/>
    <path d="M765.25 -76.85 L782.75 -70.75 791.05 -66.1 797.75 -59.6 802.5 -51.65 804.95 -42.8 805.3 -35.1 805.3 26.15 804.95 33.8 802.5 42.7 797.75 50.65 791.05 57.15 782.75 61.75 765.25 67.85 746.95 67.85 750.85 64.1 754.05 60.0 756.15 56.35 757.05 52.65 757.05 50.35 751.85 50.35 742.25 47.05 743.25 36.55 751.85 34.45 761.85 30.45 765.95 28.2 769.75 25.25 773.15 21.7 776.1 17.65 778.55 13.1 780.4 8.2 781.7 3.0 782.3 -2.35 782.3 -6.65 781.7 -12.0 780.4 -17.15 778.55 -22.1 776.1 -26.6 773.15 -30.7 769.75 -34.25 765.95 -37.15 761.85 -39.4 751.85 -42.65 740.85 -50.1 751.85 -58.55 757.05 -58.55 757.05 -61.65 756.15 -65.35 754.05 -69.0 750.85 -73.1 746.95 -76.85 765.25 -76.85" fill="#969696" fill-rule="evenodd" stroke="none"/>
    <path d="M320.95 -29.85 L318.95 -31.9 307.35 -31.9 305.4 -29.85 305.4 21.2 307.35 23.25 318.95 23.25 320.95 21.2 320.95 -29.85 M-103.55 -76.35 L-67.05 -76.35 -67.05 -68.35 -63.95 -68.35 -63.95 -70.2 -58.85 -70.2 -58.85 -71.8 -57.3 -71.8 -57.3 -78.55 -40.2 -78.55 -40.2 -73.35 -38.3 -73.35 -38.3 -78.55 8.65 -78.55 8.65 -58.7 1.7 -58.7 1.7 -56.65 8.7 -56.65 8.7 -49.65 1.7 -49.65 1.7 -46.5 0.35 -46.5 0.35 -8.5 1.7 -8.5 1.7 -4.65 8.7 -4.65 8.7 2.0 1.7 2.0 1.7 4.0 8.7 4.0 8.7 26.8 0.95 26.8 0.95 29.45 12.45 29.45 12.45 35.55 14.45 35.55 14.45 29.45 36.8 29.45 36.8 35.55 38.85 35.55 38.85 29.45 48.3 29.45 48.3 26.8 44.6 26.8 44.6 -3.85 40.55 -8.2 38.6 -6.4 41.95 -2.8 41.95 26.8 28.1 26.8 28.1 16.0 26.1 16.0 26.1 26.35 17.4 26.35 11.6 20.35 11.6 11.0 21.95 11.0 21.95 9.0 11.4 9.0 11.4 -18.85 27.05 -18.85 29.6 -16.05 31.55 -17.85 28.2 -21.5 17.15 -21.5 16.5 -23.2 14.7 -24.55 12.75 -25.35 11.1 -25.55 11.1 -78.55 65.05 -78.55 65.05 -58.65 58.5 -58.65 58.5 -32.45 65.05 -32.45 65.05 26.8 61.4 26.8 61.4 29.45 72.7 29.45 72.7 26.8 67.65 26.8 67.65 -31.95 74.45 -31.95 74.45 -33.4 67.65 -33.4 67.65 -38.5 72.2 -38.5 72.2 -40.15 67.65 -40.15 67.65 -45.4 72.2 -45.4 72.2 -46.9 67.65 -46.9 67.65 -50.85 75.95 -50.85 75.95 -61.5 67.6 -61.5 67.6 -78.55 110.95 -78.55 110.95 -17.5 103.95 -17.5 103.95 -15.15 110.95 -15.15 110.95 -8.5 103.95 -8.5 103.95 20.35 101.95 22.0 101.95 26.8 84.95 26.8 84.95 29.45 93.85 29.45 93.85 35.45 95.8 35.45 95.8 29.45 105.6 29.45 105.6 35.45 107.55 35.45 107.55 29.45 111.6 29.45 111.6 21.55 180.3 21.55 180.3 19.55 166.1 19.55 166.1 -10.95 162.1 -15.3 160.15 -13.5 163.5 -9.9 163.5 13.0 149.4 13.0 149.4 2.65 147.9 2.65 147.9 13.0 138.05 13.0 133.2 7.25 133.2 -2.35 143.7 -2.35 143.7 -4.35 131.85 -4.35 131.85 -25.95 148.6 -25.95 151.15 -23.15 153.1 -25.0 149.75 -28.6 140.6 -28.6 140.6 -32.5 132.8 -32.5 132.8 -52.85 157.3 -52.85 157.3 -54.35 193.8 -54.35 193.8 -52.5 199.45 -52.5 199.45 -54.35 234.95 -54.35 234.95 -52.5 240.95 -52.5 240.95 14.15 239.4 14.2 237.25 14.75 236.1 15.65 234.5 18.15 234.3 19.55 194.3 19.55 194.3 21.55 199.05 21.55 199.05 27.9 201.05 27.9 201.05 21.8 265.4 21.8 265.4 29.5 267.2 29.5 267.2 23.55 273.4 23.55 275.5 21.85 275.5 11.5 273.4 9.8 267.3 9.8 267.3 -18.2 273.85 -18.2 275.95 -19.9 275.95 -30.3 273.85 -32.0 267.15 -32.0 267.15 -58.1 353.6 -58.1 356.3 -55.45 356.3 -14.75 360.95 -14.75 362.95 -12.65 362.95 -11.35 364.8 -11.35 364.8 2.5 362.95 2.5 362.95 3.6 360.95 5.75 356.3 5.75 356.3 45.9 353.6 48.55 267.2 48.55 267.2 42.6 265.4 42.6 265.4 50.25 200.95 50.25 200.95 49.0 201.05 49.0 201.05 41.45 199.05 41.45 199.05 43.6 193.2 43.6 193.2 45.95 158.3 45.95 158.3 43.6 150.8 43.6 150.8 48.85 129.0 48.85 129.0 69.75 119.15 69.75 119.15 61.3 112.4 61.3 112.4 69.5 20.5 69.5 20.5 61.95 4.8 61.95 4.8 69.5 -55.7 69.5 -55.7 54.6 -56.15 53.1 -56.95 51.6 -57.95 50.5 -59.45 49.5 -63.3 49.5 -63.3 29.45 -11.95 29.45 -11.95 26.85 -19.6 26.85 -19.6 20.1 -21.5 20.1 -21.5 26.85 -29.15 26.85 -29.15 19.1 -58.65 19.1 -58.65 17.4 -63.95 17.4 -63.95 -56.35 -67.05 -56.35 -67.05 25.25 -102.15 25.25 -102.15 -6.5 -86.05 -6.5 -86.05 -9.85 -104.2 -9.85 -104.2 -38.35 -86.05 -38.35 -86.05 -51.55 -88.05 -51.55 -88.05 -41.55 -97.0 -41.55 -102.55 -47.65 -102.55 -56.5 -92.25 -56.5 -92.25 -58.35 -103.55 -58.35 -103.55 -76.35" fill="#969696" fill-rule="evenodd" stroke="none"/>
    <path d="M747.2 -17.2 L748.9 -14.9 750.25 -12.4 751.25 -9.7 751.85 -6.9 752.05 -4.05 751.8 -1.2 751.2 1.55 750.15 4.25 748.8 6.75 745.05 11.0 742.75 12.7 740.25 14.05 737.55 15.05 734.75 15.65 731.9 15.85 730.6 15.75 730.55 22.2 728.1 22.2 724.35 21.35 720.8 20.0 717.5 18.2 714.45 15.9 711.75 13.2 709.5 10.1 707.7 6.8 707.35 5.85 668.85 5.85 668.85 18.5 691.8 18.5 692.3 19.75 693.45 21.9 694.65 23.15 696.8 25.0 696.8 32.15 694.1 32.15 694.1 34.5 698.7 34.5 716.15 42.05 698.7 50.35 698.1 50.35 698.1 51.15 739.5 51.15 739.5 57.8 739.15 59.65 738.5 61.5 737.45 63.2 736.1 64.8 734.5 66.25 732.65 67.5 730.55 68.5 725.95 69.85 723.5 70.1 130.85 70.1 130.85 52.8 542.9 52.8 544.95 50.7 547.35 50.05 553.05 49.1 559.15 47.4 564.95 44.85 570.35 41.55 575.15 37.6 583.45 27.85 588.55 16.45 589.45 10.4 589.45 5.55 590.05 6.3 590.05 -14.45 589.45 -13.75 589.45 -18.55 588.55 -24.6 583.45 -36.0 575.15 -45.75 570.35 -49.75 564.95 -53.05 559.15 -55.6 553.05 -57.3 544.95 -58.85 542.9 -61.0 130.85 -61.0 130.85 -78.3 723.5 -78.3 728.3 -77.5 732.65 -75.65 734.5 -74.4 736.1 -73.0 737.45 -71.4 738.5 -69.65 739.15 -67.85 739.5 -65.95 739.5 -59.35 698.1 -59.35 698.1 -58.55 698.7 -58.55 716.15 -50.2 698.7 -42.65 694.1 -42.65 694.1 -40.35 696.8 -40.35 696.8 -33.15 694.65 -31.35 693.45 -30.1 692.3 -27.9 691.8 -26.65 668.85 -26.65 668.85 -14.35 707.4 -14.35 707.8 -15.4 709.65 -18.7 711.95 -21.75 714.65 -24.4 717.7 -26.7 721.05 -28.5 724.65 -29.8 728.35 -30.6 730.85 -30.6 730.8 -24.1 732.1 -24.2 737.75 -23.35 740.4 -22.35 742.9 -20.95 745.2 -19.2 747.2 -17.2" fill="#969696" fill-rule="evenodd" stroke="none"/>
    <path d="M236.7 -34.25 L237.8 -34.35 240.95 -34.35 240.95 14.15 239.4 14.2 237.25 14.7 236.1 15.65 234.5 18.15 234.3 19.55 234.3 5.25 209.9 5.25 209.9 -22.75 234.3 -22.75 234.3 -31.65 234.6 -32.85 235.6 -33.65 236.7 -34.25" fill="#707070" fill-rule="evenodd" stroke="none"/>
    <path d="M323.6 -8.65 L332.45 -8.65 332.45 0.15 323.6 0.15 323.6 -8.65" fill="#707070" fill-rule="evenodd" stroke="none"/>
    <path d="M267.15 -56.0 L273.95 -56.0 275.95 -54.0 275.95 -37.85 273.95 -35.85 267.15 -35.85 267.15 -56.0" fill="#707070" fill-rule="evenodd" stroke="none"/>
    <path d="M200.5 -47.2 L200.8 -45.3 200.15 -43.5 198.8 -42.15 196.9 -41.65 195.05 -42.0 193.55 -43.25 192.8 -45.05 192.95 -46.95 194.0 -48.6 195.65 -49.55 197.6 -49.6 199.35 -48.75 200.5 -47.2" fill="#707070" fill-rule="evenodd" stroke="none"/>
    <path d="M-17.3 -64.0 L-18.8 -65.25 -19.55 -67.05 -19.4 -68.95 -18.35 -70.6 -16.65 -71.55 -14.75 -71.6 -13.0 -70.75 -11.85 -69.2 -11.55 -67.3 -12.15 -65.5 -13.55 -64.15 -15.4 -63.65 -17.3 -64.0" fill="#707070" fill-rule="evenodd" stroke="none"/>
    <path d="M132.05 -33.0 L132.05 -52.35 139.4 -52.35 139.4 -33.0 132.05 -33.0" fill="#707070" fill-rule="evenodd" stroke="none"/>
    <path d="M131.05 -26.5 L138.7 -26.5 138.7 -21.65 140.05 -19.45 140.7 -17.2 140.7 -13.2 140.05 -11.35 138.7 -9.75 138.7 -3.5 131.05 -3.5 131.05 -26.5" fill="#707070" fill-rule="evenodd" stroke="none"/>
    <path d="M133.2 13.0 L133.2 7.25 138.05 13.0 133.2 13.0" fill="#707070" fill-rule="evenodd" stroke="none"/>
    <path d="M11.6 26.35 L11.6 20.35 17.4 26.35 11.6 26.35" fill="#707070" fill-rule="evenodd" stroke="none"/>
    <path d="M-102.55 -41.55 L-102.55 -47.65 -97.0 -41.55 -102.55 -41.55" fill="#707070" fill-rule="evenodd" stroke="none"/>
    <path d="M157.0 4.35 L157.65 5.3 157.9 6.55 157.7 7.85 157.15 8.95 156.6 9.35 163.5 9.35 163.5 13.0 149.4 13.0 149.4 9.35 155.3 9.35 154.7 8.85 154.25 7.7 154.2 6.4 154.55 5.15 155.25 4.3 156.15 4.0 157.0 4.35" fill="#707070" fill-rule="evenodd" stroke="none"/>
    <path d="M11.4 -18.85 L17.85 -18.85 17.85 -11.2 19.15 -9.0 19.85 -6.75 19.85 -2.75 19.15 -0.9 17.85 0.65 17.85 9.0 11.4 9.0 11.4 -18.85" fill="#707070" fill-rule="evenodd" stroke="none"/>
    <path d="M35.8 17.8 L36.4 18.75 36.65 20.0 36.5 21.3 35.95 22.4 35.4 22.8 41.95 22.8 41.95 26.8 28.1 26.8 28.1 22.8 34.05 22.8 33.5 22.3 33.0 21.15 32.95 19.85 33.35 18.6 34.05 17.75 34.95 17.45 35.8 17.8" fill="#707070" fill-rule="evenodd" stroke="none"/>
    <path d="M-94.5 7.3 L-94.9 6.75 -94.9 9.85 -95.25 12.65 -96.3 13.3 -98.55 13.3 -98.55 -0.55 -96.85 -0.55 -95.25 0.25 -94.9 2.85 -94.9 5.45 -94.4 4.85 -93.4 4.4 -92.15 4.35 -91.0 4.7 -90.25 5.4 -89.95 6.3 -90.3 7.15 -91.15 7.75 -92.3 8.05 -93.5 7.85 -94.5 7.3" fill="#707070" fill-rule="evenodd" stroke="none"/>
    <path d="M14.7 -24.55 L12.75 -25.35 11.1 -25.55 11.1 -35.65 18.6 -35.65 18.6 -21.5 17.15 -21.5 16.5 -23.2 14.7 -24.55" fill="#707070" fill-rule="evenodd" stroke="none"/>
    <path d="M11.1 -36.65 L11.1 -61.45 38.6 -61.45 38.6 -36.65 11.1 -36.65" fill="#707070" fill-rule="evenodd" stroke="none"/>
    <path d="M11.1 -63.65 L11.1 -78.55 18.6 -78.55 18.6 -63.65 11.1 -63.65" fill="#707070" fill-rule="evenodd" stroke="none"/>
    <path d="M-106.05 -38.15 L-86.55 -38.15 -86.55 -9.85 -106.05 -9.85 -106.05 -38.15" fill="#707070" fill-rule="evenodd" stroke="none"/>
    <path d="M-63.95 -1.8 L-63.95 -54.2 -61.2 -54.1 -60.15 -53.7 -59.2 -53.05 -58.4 -52.2 -57.85 -51.2 -57.5 -50.05 -57.45 -41.5 -34.7 -41.5 -34.7 -14.35 -57.45 -14.35 -57.5 -5.9 -57.85 -4.8 -58.4 -3.8 -59.2 -2.95 -60.15 -2.3 -61.2 -1.9 -63.95 -1.8" fill="#707070" fill-rule="evenodd" stroke="none"/>
    <path d="M-57.3 -71.8 L-57.3 -78.55 -40.2 -78.55 -40.2 -73.35 -38.3 -73.35 -38.3 -78.55 -32.6 -78.55 -32.7 -75.65 -33.1 -74.6 -33.75 -73.65 -34.6 -72.9 -35.6 -72.3 -36.85 -71.95 -38.05 -71.8 -57.3 -71.8" fill="#707070" fill-rule="evenodd" stroke="none"/>
    <path d="M59.65 -30.5 L59.55 -32.45 65.05 -32.45 65.05 -26.25 63.05 -26.35 62.1 -26.75 61.2 -27.4 60.5 -28.25 60.0 -29.25 59.65 -30.5" fill="#707070" fill-rule="evenodd" stroke="none"/>
    <path d="M88.6 31.35 L88.45 29.45 93.85 29.45 93.85 35.45 92.0 35.3 91.05 34.95 90.15 34.35 89.45 33.5 88.95 32.55 88.6 31.35" fill="#707070" fill-rule="evenodd" stroke="none"/>
    <path d="M7.25 31.35 L7.15 29.45 12.55 29.45 12.55 35.55 10.65 35.3 9.7 34.95 8.85 34.35 8.1 33.5 7.6 32.55 7.25 31.35" fill="#707070" fill-rule="evenodd" stroke="none"/>
    <path d="M44.25 31.35 L43.9 32.55 43.4 33.5 42.7 34.35 41.8 34.95 40.85 35.3 38.85 35.55 38.85 29.45 44.35 29.45 44.25 31.35" fill="#707070" fill-rule="evenodd" stroke="none"/>
    <path d="M20.5 63.0 L34.45 63.7 35.8 64.05 37.05 64.65 38.05 65.5 38.8 66.45 39.3 67.6 39.45 69.55 20.5 69.55 20.5 63.0" fill="#707070" fill-rule="evenodd" stroke="none"/>
    <path d="M-9.85 64.05 L-8.45 63.7 4.8 63.0 4.8 69.55 -13.5 69.55 -13.35 67.6 -12.85 66.45 -12.1 65.5 -11.05 64.65 -9.85 64.05" fill="#707070" fill-rule="evenodd" stroke="none"/>
    <path d="M94.35 67.6 L94.85 66.45 95.6 65.5 96.6 64.65 97.85 64.05 99.2 63.7 112.4 63.0 112.4 69.55 94.2 69.55 94.35 67.6" fill="#707070" fill-rule="evenodd" stroke="none"/>
    <path d="M112.85 31.35 L112.5 32.55 112.0 33.5 111.3 34.35 110.4 34.95 109.45 35.3 107.55 35.45 107.55 29.45 112.95 29.45 112.85 31.35" fill="#707070" fill-rule="evenodd" stroke="none"/>
    <path d="M59.65 -76.8 L59.55 -78.55 65.05 -78.55 65.05 -72.55 64.05 -72.55 63.05 -72.7 62.1 -73.1 61.2 -73.7 60.5 -74.55 60.0 -75.6 59.65 -76.8" fill="#707070" fill-rule="evenodd" stroke="none"/>
    <path d="M3.2 -76.8 L3.1 -78.55 8.65 -78.55 8.65 -72.55 7.6 -72.55 6.6 -72.7 5.65 -73.1 4.8 -73.7 4.05 -74.55 3.55 -75.6 3.2 -76.8" fill="#707070" fill-rule="evenodd" stroke="none"/>
    <path d="M105.4 -18.95 L105.75 -20.2 106.3 -21.2 107.0 -22.05 107.85 -22.7 108.8 -23.1 110.8 -23.2 110.8 -17.25 105.3 -17.25 105.4 -18.95" fill="#707070" fill-rule="evenodd" stroke="none"/>
    <path d="M8.65 -64.55 L8.65 -58.7 2.85 -58.7 2.95 -60.3 3.3 -61.5 3.85 -62.55 4.55 -63.4 5.4 -64.05 6.4 -64.4 7.4 -64.55 8.65 -64.55" fill="#707070" fill-rule="evenodd" stroke="none"/>
    <path d="M167.75 -8.65 L168.7 -8.25 169.55 -7.6 170.25 -6.75 170.8 -5.75 171.15 -4.5 171.6 19.55 166.1 19.55 166.1 -8.75 167.75 -8.65" fill="#707070" fill-rule="evenodd" stroke="none"/>
    <path d="M74.45 -31.95 L73.3 -29.25 72.4 -27.85 71.7 -27.0 70.85 -26.35 69.9 -26.0 68.85 -25.85 67.65 -25.85 67.65 -31.95 74.45 -31.95" fill="#707070" fill-rule="evenodd" stroke="none"/>
    <path d="M63.05 -64.75 L65.05 -64.85 65.05 -58.65 59.55 -58.65 59.65 -60.6 60.0 -61.85 60.5 -62.85 61.2 -63.7 62.1 -64.35 63.05 -64.75" fill="#707070" fill-rule="evenodd" stroke="none"/>
    <path d="M-19.65 20.3 L-21.6 20.3 -21.6 26.85 -29.15 26.85 -29.15 20.1 -19.45 20.1 -18.2 20.2 -17.0 20.6 -16.0 21.15 -15.15 21.95 -14.5 22.9 -14.1 23.95 -14.0 26.85 -19.65 26.85 -19.65 20.3" fill="#707070" fill-rule="evenodd" stroke="none"/>
    <path d="M-87.2 -69.7 L-99.85 -69.7 -99.85 -58.35 -103.55 -58.35 -103.55 -76.35 -67.05 -76.35 -67.05 -69.7 -75.35 -69.7 -76.9 -68.4 -78.8 -67.7 -82.8 -67.7 -85.0 -68.4 -87.2 -69.7" fill="#707070" fill-rule="evenodd" stroke="none"/>
    <path d="M-97.15 -6.5 L-97.15 19.7 -87.2 19.7 -85.0 18.35 -82.8 17.7 -78.8 17.7 -76.9 18.35 -75.35 19.7 -67.05 19.7 -67.05 26.3 -103.55 26.3 -103.55 -6.5 -97.15 -6.5" fill="#707070" fill-rule="evenodd" stroke="none"/>
    <path d="M75.95 -50.85 L75.95 -61.5 94.8 -61.5 94.8 -50.85 75.95 -50.85" fill="#707070" fill-rule="evenodd" stroke="none"/>
    <path d="M67.65 -50.85 L74.45 -50.85 74.45 -33.4 67.65 -33.4 67.65 -38.5 72.2 -38.5 72.2 -40.15 67.65 -40.15 67.65 -45.4 72.2 -45.4 72.2 -46.9 67.65 -46.9 67.65 -50.85" fill="#707070" fill-rule="evenodd" stroke="none"/>
    <path d="M1.7 -49.65 L1.7 -56.65 8.7 -56.65 8.7 -49.65 1.7 -49.65" fill="#707070" fill-rule="evenodd" stroke="none"/>
    <path d="M3.1 6.15 L2.95 4.0 8.7 4.0 8.7 10.4 7.5 10.4 6.5 10.25 5.55 9.9 4.65 9.25 3.95 8.4 3.45 7.35 3.1 6.15" fill="#707070" fill-rule="evenodd" stroke="none"/>
    <path d="M1.7 -4.65 L8.7 -4.65 8.7 2.0 1.7 2.0 1.7 -4.65" fill="#707070" fill-rule="evenodd" stroke="none"/>
    <path d="M104.3 -16.1 L110.95 -16.1 110.95 -9.45 104.3 -9.45 104.3 -16.1" fill="#707070" fill-rule="evenodd" stroke="none"/>
    <path d="M95.8 29.45 L105.6 29.45 105.6 35.45 95.8 35.45 95.8 29.45" fill="#707070" fill-rule="evenodd" stroke="none"/>
    <path d="M77.3 69.5 L62.8 69.5 62.8 59.85 77.3 59.85 77.3 69.5" fill="#707070" fill-rule="evenodd" stroke="none"/>
    <path d="M45.6 59.85 L60.1 59.85 60.1 69.5 45.6 69.5 45.6 59.85" fill="#707070" fill-rule="evenodd" stroke="none"/>
    <path d="M-45.95 68.95 L-55.75 58.3 -48.95 52.0 -39.15 62.65 -45.95 68.95" fill="#707070" fill-rule="evenodd" stroke="none"/>
    <path d="M100.2 -23.75 L98.85 -36.7 108.1 -37.65 109.45 -24.7 100.2 -23.75" fill="#707070" fill-rule="evenodd" stroke="none"/>
    <path d="M1.4 17.0 L-4.1 7.4 1.4 4.25 6.9 13.85 1.4 17.0" fill="#707070" fill-rule="evenodd" stroke="none"/>
    <path d="M36.8 35.55 L14.45 35.55 14.45 29.45 36.8 29.45 36.8 35.55" fill="#707070" fill-rule="evenodd" stroke="none"/>
    <path d="M403.45 -17.45 L403.45 -14.75 409.1 -14.75 411.1 -12.65 411.1 3.6 409.1 5.75 403.45 5.75 403.45 8.4 364.8 8.4 364.8 2.5 363.95 2.5 363.95 -11.35 364.8 -11.35 364.8 -17.45 403.45 -17.45" fill="#707070" fill-rule="evenodd" stroke="none"/>
    <path d="M751.85 -42.65 L700.05 -42.65 700.05 -58.55 751.85 -58.55 751.85 -42.65" fill="#969696" fill-rule="evenodd" stroke="none"/>
    <path d="M700.05 34.45 L751.85 34.45 751.85 50.35 700.05 50.35 700.05 34.45" fill="#969696" fill-rule="evenodd" stroke="none"/>
    <path d="M267.3 -18.2 L267.3 9.8 238.2 9.8 238.2 -18.2 267.3 -18.2" fill="#ffffff" fill-rule="evenodd" stroke="none"/>
    <path d="M635.55 -77.85 L635.45 -57.85 632.25 -57.8 630.55 -57.3 629.75 -56.9 628.3 -55.6 627.65 -54.7 626.7 -52.6 626.45 -51.35 626.35 -49.8 626.4 -21.95 606.4 -21.9 606.6 -54.2 608.75 -61.75 610.6 -65.25 612.95 -68.5 615.7 -71.3 618.85 -73.7 622.35 -75.6 626.05 -76.95 630.0 -77.7 635.55 -77.85" fill="#ffffff" fill-rule="evenodd" stroke="none"/>
    <path d="M608.75 54.05 L606.6 46.45 606.4 14.15 626.4 14.2 626.35 42.1 626.45 43.65 626.7 44.85 627.65 47.0 629.0 48.6 630.55 49.6 631.4 49.9 632.25 50.05 635.45 50.1 635.55 70.1 630.0 70.0 626.05 69.25 622.35 67.9 618.85 66.0 615.7 63.6 612.95 60.75 610.6 57.55 608.75 54.05" fill="#ffffff" fill-rule="evenodd" stroke="none"/>
    <path d="M362.55 2.2 L362.55 -11.35 366.15 -11.35 366.15 2.2 362.55 2.2" fill="#ffffff" fill-rule="evenodd" stroke="none"/>
    <path d="M587.95 2.2 L587.95 -11.35 591.55 -11.35 591.55 2.2 587.95 2.2" fill="#ffffff" fill-rule="evenodd" stroke="none"/>
  </g>
</svg>
