<?xml version="1.0" encoding="UTF-8" standalone="no"?>
<svg xmlns:ffdec="https://www.free-decompiler.com/flash" xmlns:xlink="http://www.w3.org/1999/xlink" ffdec:objectType="shape" height="1990.5px" width="1693.5px" xmlns="http://www.w3.org/2000/svg">
  <g transform="matrix(1.0, 0.0, 0.0, 1.0, 891.55, 1109.35)">
    <path d="M702.95 -748.85 L641.95 -581.35 654.45 -568.35 696.45 -506.35 723.95 -436.85 735.95 -362.85 Q736.45 -344.35 736.45 -325.85 736.45 -325.35 735.95 -325.35 L723.95 -251.85 701.95 -167.35 Q701.45 -149.35 700.45 -131.35 702.45 -115.85 703.95 -100.35 710.45 -84.35 716.45 -68.35 727.95 -47.35 739.45 -26.85 L756.95 -2.85 784.45 51.15 Q792.45 80.65 799.95 110.15 L801.95 171.15 Q800.45 186.15 798.45 201.15 L565.45 844.15 408.95 787.15 379.95 867.65 88.45 761.65 Q83.45 769.65 77.95 777.15 L50.95 848.65 -20.05 878.65 -891.05 561.65 -295.05 -1076.35 Q-297.05 -1076.85 -299.55 -1077.85 -293.55 -1093.35 -288.05 -1109.35 207.45 -928.85 702.95 -748.85" fill="#959595" fill-rule="evenodd" stroke="none"/>
    <path d="M513.45 -547.35 L540.45 -529.35 600.45 -443.85 Q607.95 -426.85 614.95 -409.85 618.45 -378.85 621.45 -348.35 L615.45 -296.35 Q609.95 -276.85 603.95 -257.35 L578.45 -217.35 Q538.95 -176.35 499.45 -135.85 518.45 -124.85 536.95 -114.35 L561.95 -59.35 Q555.95 -40.85 549.45 -22.35 L356.95 0.15 Q357.45 -36.85 357.45 -74.35 L299.95 -87.85 255.95 32.15 -34.05 -69.85 Q-55.05 -103.35 -76.05 -137.35 L-104.05 -209.35 -113.05 -265.85 Q-97.05 -270.85 -81.55 -276.35 -59.55 -286.85 -37.55 -297.85 L11.45 -336.35 Q37.45 -366.35 63.45 -396.85 88.45 -460.85 112.95 -524.85 138.45 -555.35 163.45 -586.35 191.45 -607.85 219.45 -629.85 254.95 -644.35 290.45 -659.35 325.45 -668.35 359.95 -677.85 L435.95 -674.35 509.95 -658.35 471.95 -565.35 513.45 -547.35" fill="#656565" fill-rule="evenodd" stroke="none"/>
    <path d="M-291.05 -1087.35 Q-190.05 -1050.35 -89.05 -1013.85 -221.05 -650.35 -353.55 -287.35 -338.55 -258.85 -324.05 -230.35 -312.05 -252.85 -300.55 -275.35 L-254.55 -263.35 -213.05 -258.35 -158.05 -258.35 -135.05 -170.35 Q-115.55 -126.35 -96.55 -82.85 L-141.55 40.15 -283.05 -9.35 -323.05 -17.35 -381.55 -16.35 -422.55 -9.85 Q-460.55 6.15 -499.05 21.65 -522.55 40.15 -546.05 58.15 L-586.05 101.15 Q-599.05 122.15 -612.55 142.65 -620.55 161.15 -629.05 179.65 L-737.05 137.65 -291.05 -1087.35" fill="#656565" fill-rule="evenodd" stroke="none"/>
    <path d="M-685.05 416.15 L-690.05 524.15 -891.55 562.15 Q-835.55 409.15 -780.05 255.65 L-657.05 307.65 -659.05 311.15 Q-666.55 337.15 -674.55 363.15 -679.55 389.65 -685.05 416.15" fill="#656565" fill-rule="evenodd" stroke="none"/>
    <path d="M-303.05 -282.85 L-296.05 -295.35 -290.05 -293.35 Q-290.55 -288.85 -291.55 -284.35 -292.05 -281.35 -293.05 -278.85 -295.05 -272.85 -297.55 -266.85 -302.55 -268.35 -307.55 -270.35 -305.05 -276.35 -303.05 -282.85" fill="#424242" fill-rule="evenodd" stroke="none"/>
    <path d="M-351.55 -306.35 Q-344.05 -303.35 -336.55 -300.85 L-342.55 -284.85 Q-349.55 -287.35 -357.05 -290.35 -354.05 -298.35 -351.55 -306.35" fill="#424242" fill-rule="evenodd" stroke="none"/>
    <path d="M-180.55 -278.85 Q-178.55 -270.85 -177.05 -263.35 -177.05 -257.85 -177.55 -252.85 L-188.05 -252.85 Q-187.05 -265.35 -186.55 -278.35 L-180.55 -278.85" fill="#424242" fill-rule="evenodd" stroke="none"/>
    <path d="M-80.05 -301.85 Q-77.05 -303.35 -74.55 -304.85 -71.55 -300.35 -68.55 -296.35 L-66.55 -292.85 -63.55 -282.35 Q-66.55 -280.85 -69.55 -279.85 -72.55 -284.35 -76.05 -288.85 L-80.05 -301.85" fill="#424242" fill-rule="evenodd" stroke="none"/>
    <path d="M80.45 -453.85 Q79.45 -454.85 77.95 -455.85 L68.95 -460.85 70.95 -466.85 80.95 -464.85 80.95 -465.35 Q82.95 -464.35 84.95 -463.85 L94.95 -458.85 91.95 -451.85 80.45 -453.85" fill="#424242" fill-rule="evenodd" stroke="none"/>
    <path d="M129.45 -602.35 L140.45 -598.35 Q138.45 -591.35 135.95 -584.85 L124.95 -588.85 Q127.45 -595.35 129.45 -602.35" fill="#424242" fill-rule="evenodd" stroke="none"/>
    <path d="M124.45 -539.85 L113.45 -541.85 Q111.45 -542.35 109.45 -543.35 L100.45 -548.35 Q101.95 -551.35 102.95 -554.35 L112.45 -552.35 Q114.45 -551.35 116.45 -550.85 L126.95 -545.85 Q125.95 -542.85 124.45 -539.85" fill="#424242" fill-rule="evenodd" stroke="none"/>
    <path d="M18.45 -356.35 L9.45 -366.35 13.95 -371.35 21.95 -366.35 25.95 -364.35 32.45 -355.35 27.45 -349.85 Q22.95 -352.85 18.45 -356.35" fill="#424242" fill-rule="evenodd" stroke="none"/>
    <path d="M-402.55 -767.35 Q-401.55 -768.35 -401.05 -769.85 L-410.05 -774.85 -405.05 -783.85 Q-400.05 -781.35 -395.55 -778.85 L-392.55 -787.85 -377.55 -819.35 Q-367.55 -833.35 -357.55 -847.85 L-352.55 -853.35 -360.05 -860.85 Q-356.05 -864.35 -352.55 -867.85 L-345.55 -860.85 -333.55 -873.35 Q-320.05 -883.85 -306.55 -894.85 -292.55 -902.85 -279.05 -910.85 L-283.05 -919.85 Q-278.05 -921.85 -273.55 -924.35 L-269.05 -914.85 -243.55 -924.85 Q-226.55 -928.35 -209.55 -932.35 L-190.05 -933.85 -190.05 -944.85 -179.55 -944.85 -179.55 -934.35 -175.05 -934.85 -140.55 -931.85 -107.05 -923.85 Q-101.55 -921.85 -96.55 -919.85 -94.55 -925.35 -93.05 -931.35 L-83.05 -928.35 Q-84.55 -922.85 -86.55 -917.35 -48.55 -903.35 -10.55 -889.85 L-6.55 -899.85 Q-1.55 -897.85 2.95 -896.35 1.45 -890.85 -0.55 -885.85 L18.45 -878.85 Q19.95 -881.85 20.95 -884.85 L35.45 -879.85 14.45 -821.85 82.45 -796.85 51.45 -712.85 Q80.95 -701.85 110.45 -691.35 108.45 -684.35 105.95 -677.85 L98.45 -680.85 90.45 -659.35 102.45 -655.35 99.45 -646.35 87.45 -650.35 Q82.45 -635.85 76.95 -621.35 L79.95 -620.35 61.95 -570.85 Q65.95 -568.35 69.95 -566.35 L67.95 -560.35 Q63.45 -560.85 58.95 -561.85 L29.95 -482.35 Q33.45 -480.35 36.45 -478.85 L34.45 -472.35 Q30.45 -472.85 26.45 -473.85 L8.45 -435.35 Q-1.05 -421.35 -11.05 -407.35 L-16.55 -401.35 -12.05 -395.85 Q-14.05 -393.35 -16.55 -390.85 L-22.55 -394.85 Q-28.55 -388.35 -34.55 -382.35 L-61.55 -360.85 -89.55 -344.85 Q-88.05 -340.35 -87.05 -336.35 -90.05 -334.85 -93.05 -333.85 -95.55 -337.35 -98.05 -341.35 -110.55 -336.35 -123.55 -331.85 -140.05 -327.85 -156.55 -324.35 L-181.05 -322.35 Q-181.05 -318.35 -181.55 -314.35 L-188.05 -313.85 -190.05 -321.85 -191.05 -321.85 -230.05 -324.85 Q-244.55 -327.85 -259.05 -331.35 -265.55 -333.35 -272.55 -335.85 L-276.55 -327.35 -283.05 -329.35 Q-282.05 -333.85 -281.55 -338.85 -282.55 -338.85 -283.55 -339.35 L-333.05 -357.35 -332.05 -360.35 -359.55 -370.35 Q-361.55 -363.85 -364.05 -357.85 -368.55 -359.35 -373.05 -361.35 -370.55 -367.35 -368.55 -373.35 L-390.05 -381.35 Q-391.05 -377.35 -392.55 -373.85 L-406.05 -378.85 Q-395.05 -408.85 -384.55 -438.85 -417.55 -450.85 -451.05 -463.35 -436.05 -503.85 -421.55 -544.35 L-481.55 -566.35 Q-478.55 -572.85 -476.05 -579.85 L-471.55 -578.35 Q-467.55 -588.35 -464.05 -598.35 -469.05 -599.85 -474.05 -601.85 L-470.05 -611.85 -460.55 -608.35 Q-446.05 -647.35 -432.05 -686.85 -437.05 -688.35 -442.05 -690.35 L-438.05 -699.85 -428.55 -696.35 -402.55 -767.35" fill="#424242" fill-rule="evenodd" stroke="none"/>
    <path d="M-182.55 807.15 L-167.05 806.65 -171.05 818.15 -184.55 813.15 -182.55 807.15" fill="#424242" fill-rule="evenodd" stroke="none"/>
    <path d="M-227.55 790.65 L-225.55 785.65 Q-222.55 781.15 -220.05 776.65 -217.05 778.15 -214.05 779.15 L-216.05 789.15 -218.05 794.15 Q-220.55 799.15 -223.55 804.15 -227.05 803.15 -230.55 801.65 L-227.55 790.65" fill="#424242" fill-rule="evenodd" stroke="none"/>
    <path d="M-501.55 488.15 L-491.05 489.15 Q-490.55 492.65 -490.55 495.65 L-499.55 499.65 -506.05 500.15 -516.55 499.15 Q-516.55 495.65 -517.05 491.65 L-508.05 488.65 -501.55 488.15" fill="#424242" fill-rule="evenodd" stroke="none"/>
    <path d="M-481.55 375.65 L-474.05 380.15 -476.05 386.15 -485.55 386.15 Q-488.05 385.65 -490.55 384.65 -495.05 382.65 -499.55 380.15 L-497.55 373.15 -487.55 373.15 Q-484.55 374.65 -481.55 375.65" fill="#424242" fill-rule="evenodd" stroke="none"/>
    <path d="M-463.55 325.65 Q-466.05 333.15 -469.05 340.65 -474.05 339.15 -479.05 337.15 -476.05 329.65 -473.55 322.15 -468.55 324.15 -463.55 325.65" fill="#424242" fill-rule="evenodd" stroke="none"/>
    <path d="M-464.05 602.65 L-476.05 611.15 Q-481.55 613.15 -487.05 614.65 -488.55 611.15 -490.55 607.65 L-480.55 601.65 Q-478.05 600.65 -476.05 599.65 -471.55 598.65 -467.05 597.15 L-464.05 602.65" fill="#424242" fill-rule="evenodd" stroke="none"/>
    <path d="M-397.55 691.15 Q-401.05 697.15 -405.05 703.15 L-413.55 711.15 -419.55 704.65 -412.55 696.15 -402.55 686.65 -397.55 691.15" fill="#424242" fill-rule="evenodd" stroke="none"/>
    <path d="M-315.55 758.65 L-307.55 745.15 -301.55 747.15 -303.55 757.65 -305.55 763.15 -310.55 772.15 Q-314.55 770.65 -318.55 768.65 L-315.55 758.65" fill="#424242" fill-rule="evenodd" stroke="none"/>
    <path d="M126.45 368.65 L142.45 396.65 Q146.45 395.65 150.45 394.15 L153.45 400.15 145.95 405.15 Q150.95 417.65 155.45 430.15 159.45 447.15 162.95 463.65 163.95 475.65 164.45 487.65 L172.95 488.65 Q173.45 492.15 173.45 495.15 L164.95 497.15 Q165.45 497.65 165.45 498.15 L162.45 537.15 151.45 579.65 159.45 583.65 Q158.95 586.65 157.95 589.65 L148.45 588.65 147.45 590.65 Q137.95 617.65 127.95 644.15 L128.45 644.15 120.45 666.65 130.45 671.65 127.45 679.65 116.45 676.65 109.45 696.15 115.95 698.15 Q113.45 705.65 110.45 712.65 L49.45 690.65 Q37.45 724.65 24.95 758.65 L-55.55 729.15 Q-66.05 758.65 -77.05 788.15 L-91.55 783.15 -89.55 777.65 -111.55 769.65 Q-113.55 774.65 -116.05 779.15 -119.55 778.15 -123.05 776.65 -121.55 771.65 -120.55 766.15 L-148.55 756.15 -149.05 756.15 -199.55 737.65 Q-201.55 741.65 -204.05 745.65 L-210.05 743.65 Q-209.05 739.15 -208.55 734.65 -246.05 721.15 -283.55 707.15 -285.05 710.65 -287.05 713.65 L-293.05 711.65 Q-292.05 707.65 -291.55 703.65 L-303.05 699.65 -334.05 684.65 Q-348.05 674.65 -362.55 664.65 L-368.55 659.15 -373.55 663.65 -378.55 659.65 -374.55 653.15 -387.05 641.65 -408.55 614.15 -424.55 586.15 Q-428.55 587.65 -433.05 588.65 -434.05 585.65 -435.55 582.65 L-428.05 577.65 -438.05 552.65 -445.05 519.15 -447.05 495.15 -455.05 494.15 Q-455.05 491.15 -455.55 487.65 L-447.55 486.15 Q-446.05 466.15 -445.05 445.65 -439.05 424.65 -433.55 403.15 L-442.05 399.15 -440.05 393.15 -430.55 394.15 -412.55 344.15 -409.05 345.15 -399.05 317.65 -411.55 313.15 Q-409.55 309.15 -408.05 304.65 L-396.05 308.65 -388.05 287.65 -395.05 284.65 Q-392.55 278.15 -390.55 271.15 L-334.05 291.65 Q-322.05 259.15 -310.55 226.15 L-225.55 257.15 Q-214.05 226.65 -203.05 196.15 L-189.55 201.15 Q-190.05 203.65 -191.05 206.15 L-172.05 213.15 Q-169.05 208.65 -166.55 203.65 L-159.55 206.65 Q-160.55 211.65 -162.05 216.65 -146.05 222.65 -130.55 228.15 L-130.55 227.65 -83.55 244.65 Q-81.05 240.65 -79.05 236.65 -76.05 238.15 -73.05 239.15 L-75.05 248.15 4.95 277.15 Q6.95 274.15 8.45 270.65 L14.45 272.65 Q13.95 276.65 12.95 280.65 16.95 282.15 20.95 283.15 L51.45 298.15 79.95 318.15 85.95 323.65 Q88.95 321.65 91.45 319.15 L96.45 323.15 92.45 329.65 104.95 341.15 126.45 368.65" fill="#424242" fill-rule="evenodd" stroke="none"/>
    <path d="M180.95 658.15 Q183.95 650.65 186.45 643.15 L198.95 647.65 Q196.45 655.15 193.45 662.65 187.45 660.65 180.95 658.15" fill="#424242" fill-rule="evenodd" stroke="none"/>
    <path d="M219.95 604.65 L216.95 612.65 201.95 608.65 Q196.95 606.15 191.95 603.15 L193.95 596.65 204.95 598.15 Q212.45 601.65 219.95 604.65" fill="#424242" fill-rule="evenodd" stroke="none"/>
    <path d="M208.95 493.65 Q208.95 490.65 208.45 487.15 L218.45 485.15 226.45 484.65 236.45 485.65 Q236.95 490.15 236.95 494.15 L226.95 495.15 208.95 493.65" fill="#424242" fill-rule="evenodd" stroke="none"/>
    <path d="M207.45 370.15 L210.45 377.15 Q205.95 380.15 200.95 383.15 L184.95 387.15 182.45 381.15 Q186.95 378.65 190.95 375.65 L190.45 375.65 Q198.95 373.15 207.45 370.15" fill="#424242" fill-rule="evenodd" stroke="none"/>
    <path d="M125.95 279.15 Q129.95 277.15 133.45 274.65 L139.45 280.15 Q136.45 284.65 132.95 288.65 L128.45 292.65 Q124.45 295.15 120.45 297.15 L115.95 293.15 120.95 284.65 125.95 279.15" fill="#424242" fill-rule="evenodd" stroke="none"/>
    <path d="M19.95 235.65 L28.95 212.15 Q32.45 213.65 35.95 214.65 33.95 222.15 31.45 229.15 L26.45 238.15 19.95 235.65" fill="#424242" fill-rule="evenodd" stroke="none"/>
    <path d="M-63.55 195.15 Q-62.55 193.15 -62.05 190.65 -59.05 185.65 -56.55 180.65 -53.05 182.15 -49.55 183.15 L-52.55 194.15 Q-53.05 196.15 -54.05 198.15 L-59.05 207.15 -65.55 204.65 -63.55 195.15" fill="#424242" fill-rule="evenodd" stroke="none"/>
    <path d="M-99.05 182.15 L-112.55 177.15 -108.55 166.65 -95.05 171.65 -99.05 182.15" fill="#424242" fill-rule="evenodd" stroke="none"/>
    <path d="M411.95 -772.85 L433.95 -833.85 309.95 -878.85 287.95 -817.85 164.45 -862.85 Q175.95 -893.35 186.95 -923.85 L-83.05 -1021.85 Q-86.55 -1011.85 -90.55 -1001.85 L-299.55 -1077.85 Q-294.55 -1091.35 -290.05 -1104.85 L-287.55 -1103.85 Q-286.55 -1105.85 -286.05 -1108.35 208.45 -928.35 702.95 -748.85 L641.95 -581.35 654.45 -568.35 696.45 -506.35 723.95 -436.85 735.95 -362.85 Q736.45 -344.35 736.45 -325.85 736.45 -325.35 735.95 -325.35 L723.95 -251.85 701.95 -167.35 Q701.45 -149.35 700.45 -131.35 702.45 -115.85 703.95 -100.35 710.45 -84.35 716.45 -68.35 727.95 -47.35 739.45 -26.85 755.95 -1.35 772.45 23.65 783.45 52.15 793.95 80.65 L799.95 110.15 801.95 171.15 Q800.45 186.15 798.45 201.15 L565.45 844.15 408.95 787.15 379.95 867.65 88.45 761.65 56.45 850.15 Q52.95 855.65 48.95 860.65 L38.95 868.65 Q33.45 872.15 27.45 875.15 L15.45 879.15 2.95 881.15 -10.05 880.65 -20.05 878.65 -186.55 818.15 -141.55 693.65 25.95 754.65 28.95 746.65 74.95 763.65 Q78.45 755.15 81.45 746.15 L166.45 777.15 Q173.45 759.15 179.95 740.65 L311.95 788.65 Q305.45 807.15 298.45 825.15 L372.45 852.15 Q387.45 812.15 401.95 771.65 L450.45 789.15 Q460.45 762.65 469.95 735.65 L523.45 754.65 Q532.95 729.15 541.95 703.65 L596.95 723.65 Q616.95 669.15 636.45 614.65 L581.45 594.15 Q601.45 539.65 620.95 485.15 648.45 495.65 675.95 505.65 695.95 451.65 715.45 397.15 L660.45 377.15 Q680.45 322.65 699.95 268.15 L754.95 288.15 Q770.95 243.65 786.45 198.65 L790.45 143.65 733.95 149.15 Q730.45 125.65 726.45 101.65 L707.95 52.15 668.95 -5.85 717.95 -40.35 718.45 -39.85 705.45 -63.35 692.45 -97.85 688.45 -130.85 Q689.45 -149.85 689.95 -168.85 L707.95 -238.85 658.95 -252.85 672.95 -329.35 669.95 -395.85 652.95 -459.35 636.45 -494.35 Q657.45 -503.85 677.95 -513.85 661.95 -537.35 645.45 -560.85 L627.95 -578.35 Q657.95 -659.85 687.45 -741.35 622.45 -764.85 556.95 -788.85 L534.95 -727.85 411.95 -772.85" fill="#424242" fill-rule="evenodd" stroke="none"/>
    <path d="M435.95 -674.35 L509.95 -658.35 508.95 -656.35 Q509.95 -655.85 510.95 -655.85 502.45 -632.35 493.45 -608.85 L504.95 -604.85 Q519.45 -597.85 533.45 -591.35 L570.95 -566.35 595.45 -542.35 Q575.95 -526.35 556.45 -510.85 L564.95 -502.35 599.45 -453.35 Q604.95 -440.35 609.95 -427.35 L621.45 -384.85 Q622.95 -362.85 623.95 -340.85 L620.95 -311.85 613.95 -282.85 597.95 -242.35 589.95 -229.35 553.95 -185.35 593.95 -152.35 565.95 -129.35 512.95 -98.35 434.45 -74.35 391.95 -71.35 359.95 -72.85 359.95 -12.85 373.95 -11.85 433.95 -13.85 490.45 -25.85 Q526.45 -42.35 561.95 -59.35 L584.95 -14.85 526.95 14.15 Q515.95 18.15 504.95 21.65 472.95 29.15 440.45 36.15 L348.95 35.15 338.95 34.15 353.95 -4.35 353.95 -73.35 330.45 -77.35 302.45 -85.35 Q280.45 -24.85 257.95 35.65 196.45 13.65 134.95 -8.85 124.45 20.65 113.45 50.15 L17.45 15.15 -40.55 -68.35 -76.05 -131.85 -102.05 -195.85 -118.05 -267.35 -98.55 -273.35 Q-73.55 -284.35 -49.05 -295.85 -26.05 -311.35 -3.55 -327.35 15.95 -346.35 34.95 -365.85 50.95 -387.85 66.45 -410.35 L88.45 -465.85 Q87.45 -465.85 86.45 -466.35 99.95 -495.35 112.95 -524.85 L249.95 -438.85 233.95 -406.35 93.95 -463.35 Q82.95 -435.35 71.45 -407.35 L39.45 -361.85 -0.05 -322.85 -46.05 -290.85 -96.55 -267.85 Q-103.55 -265.35 -111.05 -263.35 -110.05 -259.85 -109.55 -256.35 L-99.05 -258.35 Q-97.55 -257.35 -96.05 -256.85 L-94.05 -251.85 Q-94.05 -249.85 -94.55 -247.85 L-96.55 -245.85 -107.05 -243.85 -96.05 -197.35 Q-83.05 -165.85 -70.55 -134.35 L-36.55 -73.35 Q46.95 -42.85 129.95 -12.85 130.95 -14.85 131.45 -16.85 L254.45 28.15 298.45 -92.85 331.95 -82.85 371.95 -77.85 421.95 -78.85 416.95 -128.35 Q443.95 -133.85 470.95 -139.85 493.45 -149.85 515.95 -160.35 L545.45 -184.35 Q565.45 -208.35 584.95 -232.85 588.95 -238.85 592.45 -244.85 600.45 -264.85 607.95 -284.85 L614.95 -312.85 617.95 -341.35 Q617.95 -355.35 617.45 -369.85 613.45 -390.85 608.95 -411.85 L593.95 -450.85 535.95 -526.85 516.45 -540.85 Q493.95 -550.35 470.95 -560.35 460.95 -534.35 450.45 -508.35 433.95 -512.35 417.45 -516.85 426.95 -595.35 435.95 -674.35" fill="#424242" fill-rule="evenodd" stroke="none"/>
    <path d="M-783.55 266.15 L-732.55 125.65 -625.05 164.65 Q-607.55 134.15 -590.55 103.15 L-534.55 44.15 Q-518.05 32.65 -501.55 20.65 L-447.05 -5.35 -427.55 -11.35 Q-408.55 -14.85 -389.55 -18.85 L-329.05 -19.85 -289.05 -14.35 Q-278.05 -11.35 -267.55 -8.85 L-143.55 36.15 -99.55 -83.85 -115.55 -115.35 -144.05 -188.85 -160.05 -255.85 -213.55 -255.85 -269.55 -263.35 Q-282.55 -267.35 -296.05 -271.85 -295.05 -274.85 -294.55 -277.85 L-268.05 -269.35 -185.55 -260.35 -155.55 -262.35 Q-140.55 -207.85 -126.05 -153.35 -100.55 -104.35 -75.55 -55.35 L-52.55 -20.35 Q-53.55 -15.35 -55.05 -10.85 L-112.05 -31.85 -140.05 44.15 Q-200.05 22.15 -260.55 0.15 L-263.55 8.65 Q-288.55 3.15 -313.55 -2.85 L-368.05 -4.85 Q-368.55 -9.35 -369.55 -14.35 L-407.05 -10.35 Q-414.05 -8.35 -421.05 -6.85 -420.05 -1.85 -419.55 3.15 L-457.05 16.15 Q-480.55 28.65 -504.55 41.15 L-512.05 47.15 Q-514.55 43.15 -517.55 39.15 L-531.05 49.15 -558.05 74.15 -549.55 82.15 -574.55 112.15 -584.55 128.15 -600.55 160.65 Q-628.05 236.65 -656.05 312.65 L-783.55 266.15" fill="#424242" fill-rule="evenodd" stroke="none"/>
    <path d="M-682.55 569.15 Q-672.05 607.15 -662.05 645.15 -776.55 603.65 -891.05 561.65 -882.55 539.15 -874.55 516.15 -781.05 513.65 -688.05 510.65 -685.05 540.15 -682.55 569.15" fill="#424242" fill-rule="evenodd" stroke="none"/>
    <path d="M355.95 -398.35 Q366.95 -403.35 377.45 -408.85 L400.95 -410.85 Q412.45 -406.85 423.45 -403.35 L441.45 -388.35 452.45 -366.85 454.45 -343.35 Q450.95 -331.85 446.95 -320.85 L431.45 -302.85 410.45 -291.85 386.95 -290.35 364.45 -297.35 345.95 -312.85 Q340.95 -323.35 335.45 -333.85 L333.45 -357.35 Q337.45 -368.85 340.95 -380.35 L355.95 -398.35" fill="#424242" fill-rule="evenodd" stroke="none"/>
    <path d="M-594.05 336.15 Q-573.55 280.65 -553.55 225.15 L-507.55 242.15 -547.55 353.15 Q-570.55 344.65 -594.05 336.15" fill="#424242" fill-rule="evenodd" stroke="none"/>
    <path d="M-466.55 161.15 L-475.55 172.65 -490.55 198.15 -495.55 210.65 Q-519.55 202.15 -543.55 193.15 -534.05 175.65 -525.05 158.15 L-502.05 127.65 -466.55 161.15" fill="#424242" fill-rule="evenodd" stroke="none"/>
    <path d="M-474.55 101.15 L-440.55 81.15 Q-422.55 74.65 -404.55 67.65 L-392.55 115.15 -419.55 126.15 -443.55 141.15 -474.55 101.15" fill="#424242" fill-rule="evenodd" stroke="none"/>
    <path d="M-362.05 62.65 L-322.55 65.15 -285.55 74.15 -301.55 120.15 -330.55 114.15 -358.55 113.15 Q-360.05 88.15 -362.05 62.65" fill="#424242" fill-rule="evenodd" stroke="none"/>
    <path d="M273.45 158.65 L300.95 186.65 344.95 246.15 362.95 278.15 300.95 310.15 248.95 228.65 227.45 208.15 273.45 158.65" fill="#424242" fill-rule="evenodd" stroke="none"/>
    <path d="M394.95 351.65 L415.95 460.15 346.45 467.15 Q337.45 419.65 327.95 372.15 321.95 358.65 315.45 345.15 347.45 330.65 378.95 315.65 L394.95 351.65" fill="#424242" fill-rule="evenodd" stroke="none"/>
    <path d="M348.45 531.15 L346.45 501.15 416.45 496.15 418.45 535.15 408.45 608.65 Q404.45 626.65 399.95 644.15 L332.95 626.15 Q340.95 578.65 348.45 531.15" fill="#424242" fill-rule="evenodd" stroke="none"/>
    <path d="M-300.55 -238.35 L-318.55 -188.85 -585.55 -285.85 -556.55 -364.35 Q-426.55 -316.85 -296.55 -269.85 -301.55 -254.85 -307.05 -240.35 L-300.55 -238.35" fill="#424242" fill-rule="evenodd" stroke="none"/>
    <path d="M163.45 -586.35 Q191.45 -607.85 219.45 -629.85 L303.95 -492.35 Q289.95 -480.85 275.95 -469.85 L163.45 -586.35" fill="#424242" fill-rule="evenodd" stroke="none"/>
    <path d="M290.45 -659.35 Q325.45 -668.35 359.95 -677.85 L375.95 -518.35 341.95 -510.35 Q316.45 -584.85 290.45 -659.35" fill="#424242" fill-rule="evenodd" stroke="none"/>
    <path d="M101.45 -691.85 Q73.95 -701.85 45.95 -712.35 61.45 -753.85 76.45 -795.85 L131.95 -775.85 Q116.95 -733.85 101.45 -691.85" fill="#424242" fill-rule="evenodd" stroke="none"/>
    <path d="M-366.55 -469.85 Q-382.55 -425.35 -399.05 -380.85 L-460.55 -403.35 -428.55 -492.35 Q-397.55 -480.85 -366.55 -469.85" fill="#424242" fill-rule="evenodd" stroke="none"/>
    <path d="M-575.05 -144.35 L-592.05 -97.35 Q-615.55 -105.85 -639.05 -114.85 L-622.05 -161.85 Q-598.55 -152.85 -575.05 -144.35" fill="#424242" fill-rule="evenodd" stroke="none"/>
    <path d="M-674.05 -17.85 L-657.05 -64.85 -610.05 -47.85 -627.05 -0.85 -674.05 -17.85" fill="#424242" fill-rule="evenodd" stroke="none"/>
    <path d="M-709.55 78.65 Q-700.55 55.15 -692.05 31.65 L-645.05 48.65 Q-653.55 72.15 -662.55 95.65 L-709.55 78.65" fill="#424242" fill-rule="evenodd" stroke="none"/>
    <path d="M65.45 -80.85 Q66.95 -81.35 68.45 -82.35 90.95 -73.85 113.45 -65.85 114.45 -64.35 114.95 -62.85 114.95 -59.85 114.45 -57.35 L111.95 -54.35 108.95 -53.35 Q86.45 -61.35 63.95 -69.85 L62.45 -72.35 62.45 -76.35 65.45 -80.85" fill="#424242" fill-rule="evenodd" stroke="none"/>
    <path d="M-219.55 -233.85 Q-220.55 -232.85 -221.55 -232.35 L-269.05 -241.35 -271.05 -243.35 Q-271.05 -245.35 -271.55 -247.35 L-269.55 -252.35 Q-268.05 -252.85 -267.05 -253.85 L-219.55 -245.35 -217.55 -242.85 Q-217.05 -239.85 -217.05 -237.35 -218.05 -235.35 -219.55 -233.85" fill="#424242" fill-rule="evenodd" stroke="none"/>
    <path d="M316.95 -145.35 Q318.45 -145.85 319.95 -146.85 343.45 -140.85 366.45 -135.35 L368.45 -132.35 Q368.45 -129.35 367.95 -126.85 L365.95 -123.85 Q364.95 -122.85 363.45 -122.35 L316.45 -134.35 314.95 -136.35 Q314.95 -138.35 314.45 -140.85 315.95 -142.85 316.95 -145.35" fill="#424242" fill-rule="evenodd" stroke="none"/>
    <path d="M-7.05 -97.85 L-10.05 -96.85 Q-32.55 -104.85 -55.05 -113.35 L-56.55 -115.85 -56.55 -119.85 Q-55.05 -121.85 -53.55 -124.35 L-50.55 -125.35 Q-28.05 -116.85 -5.55 -108.85 -4.55 -107.35 -4.05 -105.85 -4.05 -103.35 -4.55 -100.85 -5.55 -99.35 -7.05 -97.85" fill="#424242" fill-rule="evenodd" stroke="none"/>
    <path d="M17.95 -312.85 Q17.95 -311.35 17.45 -310.35 L-21.55 -281.35 -24.05 -281.35 -27.55 -283.85 -29.55 -288.85 Q-29.05 -290.35 -29.05 -291.85 -9.55 -305.85 9.95 -320.35 L12.95 -320.35 Q14.95 -318.35 16.95 -316.85 L17.95 -312.85" fill="#424242" fill-rule="evenodd" stroke="none"/>
    <path d="M238.45 -201.35 L238.45 -198.35 234.95 -194.35 Q232.95 -193.35 230.95 -192.85 229.95 -192.85 228.45 -193.35 L198.45 -231.35 197.95 -233.85 Q199.45 -235.35 200.45 -237.35 202.95 -238.35 204.95 -239.85 L208.45 -239.35 238.45 -201.35" fill="#424242" fill-rule="evenodd" stroke="none"/>
    <path d="M176.95 -325.35 L171.95 -324.35 Q169.95 -324.85 167.95 -325.85 L166.45 -327.85 Q166.95 -351.85 166.95 -376.35 L168.95 -378.35 Q170.95 -378.85 172.45 -379.85 175.45 -378.85 177.95 -378.35 L179.95 -375.85 Q179.95 -351.85 179.45 -327.85 178.45 -326.35 176.95 -325.35" fill="#424242" fill-rule="evenodd" stroke="none"/>
    <path d="M-342.05 -122.85 L-344.05 -117.85 -608.05 -213.85 Q-607.05 -216.35 -606.55 -218.85 -474.05 -170.85 -342.05 -122.85" fill="#424242" fill-rule="evenodd" stroke="none"/>
  </g>
</svg>
