<?xml version="1.0" encoding="UTF-8" standalone="no"?>
<svg xmlns:ffdec="https://www.free-decompiler.com/flash" xmlns:xlink="http://www.w3.org/1999/xlink" ffdec:objectType="shape" height="21.75px" width="33.85px" xmlns="http://www.w3.org/2000/svg">
  <g transform="matrix(1.0, 0.0, 0.0, 1.0, 16.9, 10.85)">
    <path d="M-11.55 -2.4 Q-11.05 -2.4 -11.05 -2.05 L-11.05 2.6 -11.1 2.7 -15.55 2.7 -15.55 -2.05 -15.05 -2.4 -11.55 -2.4 M16.95 3.9 L13.6 10.9 -13.55 10.9 -16.9 3.9 -10.25 3.9 -5.75 -7.6 5.4 -7.6 10.0 3.9 16.95 3.9 M6.2 -0.55 L4.15 -6.1 -4.45 -6.1 -6.5 -0.55 6.2 -0.55 M11.85 -10.85 L9.45 -7.0 6.95 -7.0 6.5 -8.05 Q6.25 -8.8 5.4 -8.8 L-5.75 -8.8 Q-6.5 -8.8 -6.85 -8.05 L-7.25 -7.0 -9.5 -7.0 -11.9 -10.85 11.85 -10.85 M11.5 -2.4 L15.0 -2.4 Q15.5 -2.4 15.5 -2.05 L15.5 2.7 11.0 2.7 11.0 -2.05 Q11.0 -2.4 11.5 -2.4" fill="#ffffff" fill-rule="evenodd" stroke="none"/>
  </g>
</svg>
