<?xml version="1.0" encoding="UTF-8" standalone="no"?>
<svg xmlns:ffdec="https://www.free-decompiler.com/flash" xmlns:xlink="http://www.w3.org/1999/xlink" ffdec:objectType="shape" height="24.7px" width="24.7px" xmlns="http://www.w3.org/2000/svg">
  <g transform="matrix(1.0, 0.0, 0.0, 1.0, 12.35, 12.35)">
    <path d="M12.35 -6.2 Q12.35 -3.7 10.55 -1.9 L-1.85 10.55 Q-3.65 12.35 -6.2 12.35 -8.75 12.35 -10.55 10.55 -12.35 8.75 -12.35 6.2 -12.35 3.65 -10.55 1.85 L1.9 -10.55 Q3.65 -12.35 6.2 -12.35 8.75 -12.35 10.55 -10.55 12.35 -8.75 12.35 -6.2 M-0.6 0.5 Q-2.35 -1.3 -2.9 -2.45 L-8.45 3.0 Q-9.55 4.1 -9.55 5.65 -9.55 7.25 -8.45 8.35 -7.15 9.6 -5.7 8.95 -4.4 8.35 -1.75 5.7 L1.5 2.4 -0.6 0.5" fill="#ffffff" fill-rule="evenodd" stroke="none"/>
  </g>
</svg>
