<?xml version="1.0" encoding="UTF-8" standalone="no"?>
<svg xmlns:ffdec="https://www.free-decompiler.com/flash" xmlns:xlink="http://www.w3.org/1999/xlink" ffdec:objectType="shape" height="26.85px" width="26.65px" xmlns="http://www.w3.org/2000/svg">
  <g transform="matrix(1.0, 0.0, 0.0, 1.0, 13.5, 13.5)">
    <path d="M-10.75 -1.1 Q-10.6 -0.45 -10.05 -0.3 L-6.1 0.8 -6.1 4.25 -6.25 4.25 -9.1 3.85 -9.25 3.85 Q-10.05 3.85 -10.2 4.6 L-11.5 9.7 -12.05 9.7 Q-12.65 9.7 -13.05 9.25 -13.5 8.85 -13.5 8.2 L-13.5 0.4 Q-13.5 -0.2 -13.05 -0.65 -12.65 -1.1 -12.05 -1.1 L-10.75 -1.1" fill="#ffffff" fill-rule="evenodd" stroke="none"/>
    <path d="M11.65 -1.1 Q12.25 -1.1 12.7 -0.65 L13.15 0.4 13.15 8.2 12.7 9.25 Q12.25 9.7 11.65 9.7 L11.1 9.7 9.8 4.6 Q9.65 3.85 8.85 3.85 L8.75 3.85 5.75 4.25 5.75 0.8 6.05 0.75 9.65 -0.3 Q10.25 -0.5 10.35 -1.1 L11.65 -1.1" fill="#ffffff" fill-rule="evenodd" stroke="none"/>
    <path d="M1.85 1.5 L2.95 1.5 2.95 4.35 1.85 4.35 1.85 1.5" fill="#ffffff" fill-rule="evenodd" stroke="none"/>
    <path d="M-2.3 1.5 L-2.3 4.35 -3.45 4.35 -3.45 1.5 -2.3 1.5" fill="#ffffff" fill-rule="evenodd" stroke="none"/>
    <path d="M-0.7 -5.65 L-1.45 -5.65 Q-2.25 -5.65 -2.8 -5.0 -3.35 -4.35 -3.35 -3.4 L-3.35 -0.4 -0.7 -0.4 -0.7 -5.65 M-5.35 -5.3 Q-5.75 -5.7 -6.35 -5.7 -6.9 -5.7 -7.3 -5.3 -7.7 -4.85 -7.7 -4.3 -7.7 -3.7 -7.3 -3.3 -6.9 -2.9 -6.35 -2.9 -5.75 -2.9 -5.35 -3.3 -4.95 -3.7 -4.95 -4.3 L-5.35 -5.3 M5.4 -9.95 L4.95 -12.15 Q4.95 -12.6 4.55 -12.6 L-4.95 -12.6 Q-5.25 -12.6 -5.35 -12.15 L-5.8 -9.95 Q-5.8 -9.4 -5.45 -9.25 L5.05 -9.25 Q5.5 -9.4 5.4 -9.95 M2.4 -5.0 Q1.85 -5.65 1.05 -5.65 L0.3 -5.65 0.3 -0.4 2.95 -0.4 2.95 -3.4 Q2.95 -4.35 2.4 -5.0 M4.6 -5.3 Q4.2 -4.85 4.2 -4.3 4.2 -3.7 4.6 -3.3 5.0 -2.9 5.6 -2.9 6.15 -2.9 6.6 -3.3 7.0 -3.7 7.0 -4.3 7.0 -4.85 6.6 -5.3 6.15 -5.7 5.6 -5.7 5.0 -5.7 4.6 -5.3 M5.6 -13.0 L5.65 -13.0 6.55 -8.35 6.7 -6.9 7.6 -6.5 Q8.15 -6.5 8.8 -5.55 9.4 -4.65 9.4 -4.05 L9.4 -1.25 3.15 0.5 3.0 0.5 3.0 0.6 -3.4 0.6 -3.4 0.5 -3.5 0.5 -9.75 -1.25 -9.75 -4.05 Q-9.75 -4.65 -9.15 -5.55 -8.55 -6.5 -8.0 -6.5 L-7.05 -6.9 -6.95 -8.35 -6.0 -13.0 Q-6.0 -13.4 -5.6 -13.4 L-0.2 -13.5 5.2 -13.4 Q5.6 -13.4 5.6 -13.0" fill="#ffffff" fill-rule="evenodd" stroke="none"/>
    <path d="M-0.2 6.0 L8.85 4.85 10.45 11.0 -0.2 13.35 -10.8 11.0 -9.25 4.85 -0.2 6.0" fill="#ffffff" fill-rule="evenodd" stroke="none"/>
  </g>
</svg>
