<?xml version="1.0" encoding="UTF-8" standalone="no"?>
<svg xmlns:ffdec="https://www.free-decompiler.com/flash" xmlns:xlink="http://www.w3.org/1999/xlink" ffdec:objectType="shape" height="22.75px" width="19.1px" xmlns="http://www.w3.org/2000/svg">
  <g transform="matrix(1.0, 0.0, 0.0, 1.0, 8.1, 12.2)">
    <path d="M10.25 -5.95 Q11.0 -3.75 11.0 -0.6 11.0 2.15 10.3 4.25 9.35 6.8 7.85 8.25 6.7 9.4 4.6 10.1 L0.55 10.55 -8.1 10.55 -8.1 -12.2 0.3 -12.2 4.65 -11.75 Q6.65 -11.15 8.05 -9.65 9.5 -8.1 10.25 -5.95 M-3.5 -8.3 L-3.5 6.75 -0.1 6.75 2.7 6.5 Q3.85 6.2 4.55 5.55 5.3 4.85 5.75 3.35 6.25 1.7 6.25 -0.8 6.25 -3.3 5.75 -4.8 5.3 -6.2 4.45 -7.05 3.6 -7.8 2.3 -8.1 L-1.45 -8.3 -3.5 -8.3" fill="#ffffff" fill-rule="evenodd" stroke="none"/>
  </g>
</svg>
