<?xml version="1.0" encoding="UTF-8" standalone="no"?>
<svg xmlns:ffdec="https://www.free-decompiler.com/flash" xmlns:xlink="http://www.w3.org/1999/xlink" ffdec:objectType="shape" height="22.75px" width="19.05px" xmlns="http://www.w3.org/2000/svg">
  <g transform="matrix(1.0, 0.0, 0.0, 1.0, 8.15, 12.0)">
    <path d="M-3.55 -8.2 L-3.55 -3.0 2.8 -3.05 Q4.0 -3.2 4.65 -3.85 5.35 -4.55 5.35 -5.6 5.35 -6.65 4.75 -7.35 4.1 -8.0 3.0 -8.15 L-3.55 -8.2 M9.8 -6.25 Q9.8 -4.65 8.95 -3.35 8.0 -1.95 6.6 -1.35 8.65 -0.75 9.8 0.7 10.9 2.15 10.9 4.15 10.9 5.8 10.2 7.15 9.45 8.7 8.25 9.5 7.0 10.35 5.15 10.6 L-0.4 10.75 -8.15 10.75 -8.15 -12.0 0.95 -12.0 5.0 -11.75 Q6.3 -11.5 7.35 -10.85 8.4 -10.1 9.1 -8.95 9.8 -7.7 9.8 -6.25 M4.25 1.15 L0.15 0.8 -3.55 0.8 -3.55 6.9 0.7 6.9 3.85 6.75 Q4.9 6.6 5.5 5.85 6.15 5.2 6.15 3.9 6.15 2.85 5.65 2.2 5.2 1.45 4.25 1.15" fill="#ffffff" fill-rule="evenodd" stroke="none"/>
  </g>
</svg>
