<?xml version="1.0" encoding="UTF-8" standalone="no"?>
<svg xmlns:ffdec="https://www.free-decompiler.com/flash" xmlns:xlink="http://www.w3.org/1999/xlink" ffdec:objectType="shape" height="32.25px" width="31.85px" xmlns="http://www.w3.org/2000/svg">
  <g transform="matrix(1.0, 0.0, 0.0, 1.0, 16.0, 16.0)">
    <path d="M-6.95 16.25 L-6.95 12.6 6.8 12.6 6.8 16.25 -6.95 16.25" fill="#ffffff" fill-rule="evenodd" stroke="none"/>
    <path d="M8.5 -3.9 L4.25 -3.9 1.85 10.5 -1.95 10.5 -4.4 -3.85 -8.65 -3.85 -0.05 -16.0 8.5 -3.9" fill="#ffffff" fill-rule="evenodd" stroke="none"/>
    <path d="M6.25 -0.05 L15.85 -0.6 13.15 8.6 10.95 5.9 Q9.45 5.9 8.25 8.2 L7.3 10.5 4.35 10.5 Q4.45 7.5 6.15 4.6 7.05 3.1 7.95 2.15 L7.8 1.9 6.25 -0.05" fill="#ffffff" fill-rule="evenodd" stroke="none"/>
    <path d="M-16.0 -0.6 L-6.4 -0.05 -7.95 1.9 -8.1 2.15 -8.15 2.15 -6.35 4.6 Q-4.6 7.5 -4.55 10.5 L-7.45 10.5 Q-7.75 9.35 -8.4 8.2 -9.65 5.9 -11.1 5.9 L-13.3 8.6 -16.0 -0.6" fill="#ffffff" fill-rule="evenodd" stroke="none"/>
  </g>
</svg>
