<?xml version="1.0" encoding="UTF-8" standalone="no"?>
<svg xmlns:ffdec="https://www.free-decompiler.com/flash" xmlns:xlink="http://www.w3.org/1999/xlink" ffdec:objectType="shape" height="30.0px" width="29.25px" xmlns="http://www.w3.org/2000/svg">
  <g transform="matrix(1.0, 0.0, 0.0, 1.0, 14.6, 15.0)">
    <path d="M13.65 -7.8 Q13.45 -5.7 11.6 -2.5 9.35 1.3 5.1 5.35 9.45 3.5 14.0 3.4 14.45 3.4 14.6 3.75 L14.65 4.0 14.5 4.45 Q12.9 6.25 8.4 7.7 L5.45 8.55 Q7.9 9.0 8.85 10.05 L9.05 10.5 9.0 10.65 8.55 11.1 6.75 11.3 Q4.65 11.3 1.4 10.1 L1.15 10.0 1.05 13.45 Q0.9 14.7 0.3 14.95 L0.05 15.0 -0.2 14.95 Q-0.95 14.65 -0.95 13.45 L-1.05 10.0 -1.3 10.1 Q-4.7 11.3 -6.7 11.3 L-8.45 11.1 -8.9 10.65 -8.95 10.5 -8.8 10.05 Q-7.8 9.0 -5.35 8.55 L-8.3 7.7 Q-12.75 6.3 -14.4 4.45 L-14.6 4.0 -14.55 3.75 Q-14.3 3.4 -13.95 3.4 -9.4 3.45 -5.05 5.35 -9.3 1.2 -11.5 -2.5 -13.35 -5.7 -13.6 -7.8 L-13.6 -7.85 -13.3 -8.4 -12.95 -8.5 -12.6 -8.4 Q-5.95 -3.9 -2.3 2.45 -2.8 -1.4 -2.8 -4.2 -2.8 -10.0 -0.55 -14.65 L0.05 -15.0 Q0.45 -15.0 0.6 -14.65 2.9 -10.05 2.9 -4.2 2.9 -1.15 2.35 2.45 6.0 -3.85 12.7 -8.4 L13.0 -8.5 13.35 -8.4 13.65 -7.85 13.65 -7.8" fill="#ffffff" fill-rule="evenodd" stroke="none"/>
  </g>
</svg>
