<?xml version="1.0" encoding="UTF-8" standalone="no"?>
<svg xmlns:ffdec="https://www.free-decompiler.com/flash" xmlns:xlink="http://www.w3.org/1999/xlink" ffdec:objectType="shape" height="36.0px" width="36.0px" xmlns="http://www.w3.org/2000/svg">
  <g transform="matrix(1.0, 0.0, 0.0, 1.0, 18.0, 18.0)">
    <path d="M1.55 -13.4 Q6.2 -12.85 9.6 -9.55 12.95 -6.25 13.55 -1.55 L18.0 -1.95 18.0 1.95 13.6 1.55 Q13.05 6.35 9.7 9.75 6.3 13.2 1.55 13.7 L1.95 18.0 -1.95 18.0 -1.55 13.7 Q-6.3 13.2 -9.7 9.75 -13.1 6.35 -13.55 1.55 L-18.0 1.95 -18.0 -1.95 -13.5 -1.55 Q-12.95 -6.25 -9.55 -9.55 -6.2 -12.85 -1.5 -13.4 L-1.95 -18.0 1.95 -18.0 1.55 -13.4 M5.5 -0.8 L10.8 -1.3 Q10.3 -5.0 7.65 -7.65 5.0 -10.25 1.3 -10.65 L0.8 -5.55 -0.8 -5.55 -1.25 -10.65 Q-4.95 -10.25 -7.6 -7.65 -10.3 -5.0 -10.8 -1.3 L-5.45 -0.8 -5.45 0.8 -10.85 1.3 Q-10.45 5.1 -7.75 7.85 -5.05 10.55 -1.3 11.0 L-0.8 5.5 0.8 5.5 1.3 11.0 Q5.1 10.55 7.8 7.85 10.5 5.1 10.85 1.3 L5.5 0.8 5.5 -0.8" fill="#ffffff" fill-rule="evenodd" stroke="none"/>
  </g>
</svg>
