<?xml version="1.0" encoding="UTF-8" standalone="no"?>
<svg xmlns:ffdec="https://www.free-decompiler.com/flash" xmlns:xlink="http://www.w3.org/1999/xlink" ffdec:objectType="shape" height="28.8px" width="28.8px" xmlns="http://www.w3.org/2000/svg">
  <g transform="matrix(1.0, 0.0, 0.0, 1.0, 14.4, 14.4)">
    <path d="M-8.7 0.1 Q-8.65 -3.45 -6.05 -6.0 -3.4 -8.55 0.2 -8.5 3.8 -8.45 6.4 -5.85 9.0 -3.25 8.9 0.25 8.85 3.8 6.25 6.3 3.65 8.8 0.1 8.8 -3.55 8.75 -6.1 6.2 -8.7 3.65 -8.7 0.1" fill="#ffffff" fill-rule="evenodd" stroke="none"/>
    <path d="M-10.45 -2.35 L-10.75 0.1 -10.5 2.3 -14.4 0.0 -10.45 -2.35" fill="#ffffff" fill-rule="evenodd" stroke="none"/>
    <path d="M10.45 -2.35 L14.4 0.0 10.5 2.3 10.75 0.3 Q10.8 -0.8 10.45 -2.35" fill="#ffffff" fill-rule="evenodd" stroke="none"/>
    <path d="M-2.3 10.45 L0.0 10.75 2.35 10.5 0.0 14.4 -2.3 10.45" fill="#ffffff" fill-rule="evenodd" stroke="none"/>
    <path d="M2.55 -10.15 L0.1 -10.45 -2.5 -10.15 0.0 -14.4 2.55 -10.15" fill="#ffffff" fill-rule="evenodd" stroke="none"/>
    <path d="M-9.05 5.8 Q-7.8 7.7 -5.75 9.05 L-10.2 10.2 -9.05 5.8" fill="#ffffff" fill-rule="evenodd" stroke="none"/>
    <path d="M9.0 -5.6 Q7.65 -7.6 5.45 -8.95 L10.2 -10.2 9.0 -5.6" fill="#ffffff" fill-rule="evenodd" stroke="none"/>
    <path d="M5.75 9.05 Q7.75 7.8 9.05 5.8 L10.2 10.2 5.75 9.05" fill="#ffffff" fill-rule="evenodd" stroke="none"/>
    <path d="M-5.4 -8.95 Q-7.65 -7.6 -9.0 -5.55 L-10.2 -10.2 -5.4 -8.95" fill="#ffffff" fill-rule="evenodd" stroke="none"/>
  </g>
</svg>
