<?xml version="1.0" encoding="UTF-8" standalone="no"?>
<svg xmlns:ffdec="https://www.free-decompiler.com/flash" xmlns:xlink="http://www.w3.org/1999/xlink" ffdec:objectType="shape" height="46.0px" width="46.0px" xmlns="http://www.w3.org/2000/svg">
  <g transform="matrix(1.0, 0.0, 0.0, 1.0, 23.0, 23.0)">
    <path d="M14.7 -14.7 Q8.6 -20.8 0.0 -20.8 -8.65 -20.8 -14.7 -14.7 -20.8 -8.65 -20.8 0.0 -20.8 8.6 -14.7 14.7 -8.65 20.8 0.0 20.8 8.6 20.8 14.7 14.7 19.7 9.7 20.65 3.0 L20.8 0.0 20.7 -2.65 Q19.9 -9.6 14.7 -14.7 M16.25 -16.25 Q22.05 -10.5 22.9 -2.65 L23.0 -0.05 22.85 3.0 Q21.9 10.55 16.25 16.2 9.55 23.0 0.0 23.0 -9.55 23.0 -16.2 16.2 -23.0 9.45 -23.0 -0.05 -23.0 -9.6 -16.2 -16.25 -9.55 -23.0 0.0 -23.0 9.55 -23.0 16.25 -16.25" fill="#ffffff" fill-rule="evenodd" stroke="none"/>
  </g>
</svg>
