<?xml version="1.0" encoding="UTF-8" standalone="no"?>
<svg xmlns:ffdec="https://www.free-decompiler.com/flash" xmlns:xlink="http://www.w3.org/1999/xlink" ffdec:objectType="shape" height="621.95px" width="467.55px" xmlns="http://www.w3.org/2000/svg">
  <g transform="matrix(1.0, 0.0, 0.0, 1.0, 264.15, 170.5)">
    <path d="M158.95 -60.85 L203.4 -60.85 203.4 260.0 158.95 260.0 158.95 451.45 -148.5 451.45 -148.5 352.6 -264.15 352.6 -264.15 -170.5 158.95 -170.5 158.95 -60.85" fill="#434343" fill-rule="evenodd" stroke="none"/>
    <path d="M-155.05 171.95 L-155.05 179.9 -132.35 179.9 -132.35 171.95 -155.05 171.95 M-132.35 17.35 L-132.35 9.4 -155.05 9.4 -155.05 17.35 -132.35 17.35 M47.3 179.9 L47.3 171.95 24.55 171.95 24.55 179.9 47.3 179.9 M47.3 17.35 L47.3 9.4 24.55 9.4 24.55 17.35 47.3 17.35 M-14.5 -160.55 L-14.5 -152.8 26.85 -152.8 26.85 -84.6 46.8 -84.6 46.8 -50.85 192.45 -50.85 192.45 9.4 182.7 9.4 182.7 17.35 192.45 17.35 192.45 171.95 182.2 171.95 182.2 179.9 192.45 179.9 192.45 238.3 46.8 238.3 46.8 266.3 26.05 266.3 26.05 279.95 31.4 279.95 31.4 270.85 144.3 270.85 144.3 330.75 132.2 330.75 132.2 372.8 102.6 372.8 102.6 330.75 72.3 330.75 72.3 370.15 42.75 370.15 42.75 330.75 31.4 330.75 31.4 322.4 26.05 322.4 26.05 441.4 -135.35 441.4 -135.35 339.1 -250.55 339.1 -250.55 -84.6 -110.1 -84.6 -110.1 -152.8 -94.05 -152.8 -94.05 -160.55 -14.5 -160.55" fill="#969696" fill-rule="evenodd" stroke="none"/>
    <path d="M83.15 -29.5 L83.15 -49.45 124.6 -49.45 124.6 -29.5 83.15 -29.5" fill="#707070" fill-rule="evenodd" stroke="none"/>
    <path d="M190.55 -47.95 L190.55 -32.8 128.15 -32.8 128.15 -47.95 190.55 -47.95" fill="#707070" fill-rule="evenodd" stroke="none"/>
    <path d="M87.65 238.3 L87.65 216.7 129.9 216.7 129.9 238.3 87.65 238.3" fill="#707070" fill-rule="evenodd" stroke="none"/>
    <path d="M154.9 225.75 L154.9 238.3 133.5 238.3 133.5 225.75 154.9 225.75" fill="#707070" fill-rule="evenodd" stroke="none"/>
    <path d="M176.4 215.95 L182.15 228.5 163.05 238.3 157.25 224.7 176.4 215.95" fill="#707070" fill-rule="evenodd" stroke="none"/>
    <path d="M32.9 336.8 L82.9 336.8 82.9 388.7 32.9 388.7 32.9 336.8" fill="#ffffff" fill-rule="evenodd" stroke="none"/>
    <path d="M93.15 388.7 L93.15 336.8 143.15 336.8 143.15 388.7 93.15 388.7" fill="#ffffff" fill-rule="evenodd" stroke="none"/>
    <path d="M-90.2 389.55 L-90.2 397.5 -23.3 397.5 -23.3 441.4 -135.35 441.4 -135.35 348.8 -23.3 348.8 -23.3 389.55 -90.2 389.55" fill="#ffffff" fill-rule="evenodd" stroke="none"/>
    <path d="M-14.5 -170.5 L-14.5 -156.6 -94.05 -156.6 -94.05 -170.5 -14.5 -170.5" fill="#ffffff" fill-rule="evenodd" stroke="none"/>
  </g>
</svg>
