<?xml version="1.0" encoding="UTF-8" standalone="no"?>
<svg xmlns:ffdec="https://www.free-decompiler.com/flash" xmlns:xlink="http://www.w3.org/1999/xlink" ffdec:objectType="shape" height="151.0px" width="167.9px" xmlns="http://www.w3.org/2000/svg">
  <g transform="matrix(1.0, 0.0, 0.0, 1.0, -61.05, -64.5)">
    <path d="M178.5 82.55 L178.5 138.65 191.95 138.65 Q199.35 138.65 202.65 134.4 206.1 130.25 206.1 122.95 L206.1 98.2 Q206.1 91.0 202.65 86.8 199.35 82.55 191.95 82.55 L178.5 82.55 M226.9 83.8 Q228.95 90.05 228.95 97.45 L228.95 123.8 Q228.95 138.95 220.3 147.75 211.65 156.7 191.95 156.7 L178.5 156.7 178.5 215.5 155.5 215.5 155.5 64.5 191.95 64.5 Q201.8 64.5 208.85 66.8 215.7 69.1 220.3 73.45 224.9 77.75 226.9 83.8 M113.7 66.8 Q120.55 69.15 125.1 73.45 129.65 77.75 131.7 83.8 133.75 90.05 133.75 97.45 L133.75 117.85 Q133.75 125.7 129.6 131.25 125.4 136.85 119.45 139.55 126.65 142.1 130.15 148.45 133.75 154.9 133.75 163.6 L133.75 198.45 Q133.75 202.9 134.5 207.5 135.15 212.05 136.75 215.5 L113.45 215.5 Q111.75 212.25 111.3 209.15 110.9 205.85 110.9 200.45 L110.9 164.55 Q110.9 157.4 107.4 153.2 103.9 149.05 96.75 149.05 L84.0 149.05 84.0 215.5 61.05 215.5 61.05 64.5 96.75 64.5 Q106.7 64.5 113.7 66.8 M84.0 82.55 L84.0 132.4 96.75 132.4 Q103.9 132.4 107.4 128.2 110.9 123.95 110.9 116.8 L110.9 98.2 Q110.9 90.95 107.4 86.75 103.9 82.55 96.75 82.55 L84.0 82.55" fill="#ffffff" fill-rule="evenodd" stroke="none"/>
  </g>
</svg>
