<?xml version="1.0" encoding="UTF-8" standalone="no"?>
<svg xmlns:ffdec="https://www.free-decompiler.com/flash" xmlns:xlink="http://www.w3.org/1999/xlink" ffdec:objectType="shape" height="35.0px" width="35.0px" xmlns="http://www.w3.org/2000/svg">
  <g transform="matrix(1.0, 0.0, 0.0, 1.0, 0.0, 0.0)">
    <path d="M18.75 32.9 L19.95 32.75 21.9 32.35 21.95 32.25 Q23.4 29.05 24.05 24.1 L11.05 24.1 Q11.7 29.05 13.15 32.25 L13.15 32.35 16.35 32.9 18.75 32.9 M2.75 13.45 Q2.5 15.0 2.5 17.3 2.5 19.75 2.85 21.7 L8.35 21.7 Q8.2 19.55 8.2 17.3 L8.35 13.45 2.75 13.45 M8.6 24.1 L3.6 24.1 Q5.7 28.65 10.1 31.05 L10.1 31.0 Q9.2 28.35 8.6 24.1 M9.95 4.05 Q5.65 6.5 3.55 11.0 L8.55 11.0 Q9.05 7.05 9.95 4.15 L9.95 4.05 M31.5 24.1 L26.45 24.1 Q26.0 27.8 25.0 30.95 L24.95 31.05 Q29.35 28.65 31.5 24.1 M29.85 5.15 Q35.0 10.25 35.0 17.5 35.0 24.75 29.85 29.9 24.75 35.0 17.5 35.0 10.25 35.0 5.15 29.9 0.0 24.75 0.0 17.5 0.0 10.25 5.15 5.15 10.25 0.0 17.5 0.0 24.75 0.0 29.85 5.15 M24.45 17.3 L24.3 13.45 10.75 13.45 Q10.6 15.25 10.6 17.3 L10.8 21.7 24.3 21.7 24.45 17.3 M26.85 17.3 L26.7 21.7 32.25 21.7 32.6 17.3 32.3 13.45 26.75 13.45 26.85 17.3 M24.1 11.0 Q23.5 6.15 22.15 2.85 L22.1 2.75 18.75 2.1 16.35 2.1 12.95 2.75 12.95 2.85 Q11.6 6.1 10.95 11.0 L24.1 11.0 M25.1 4.05 L25.15 4.2 Q26.0 7.2 26.5 11.0 L31.55 11.0 Q29.5 6.55 25.1 4.05" fill="#ffffff" fill-rule="evenodd" stroke="none"/>
  </g>
</svg>
