<?xml version="1.0" encoding="UTF-8" standalone="no"?>
<svg xmlns:ffdec="https://www.free-decompiler.com/flash" xmlns:xlink="http://www.w3.org/1999/xlink" ffdec:objectType="shape" height="19.6px" width="31.15px" xmlns="http://www.w3.org/2000/svg">
  <g transform="matrix(1.0, 0.0, 0.0, 1.0, 15.55, 9.8)">
    <path d="M-5.55 3.35 L3.4 -5.55 Q2.55 -6.1 1.45 -6.35 L0.0 -6.55 Q-2.7 -6.55 -4.6 -4.6 -6.5 -2.7 -6.5 0.0 -6.5 1.75 -5.55 3.35 M-15.55 0.0 L-14.35 -2.25 Q-12.15 -5.7 -8.35 -7.7 -4.5 -9.8 0.0 -9.8 4.55 -9.8 8.4 -7.7 12.2 -5.7 14.4 -2.25 L15.6 0.0 14.4 2.25 Q12.2 5.7 8.4 7.7 4.55 9.8 0.0 9.8 -4.5 9.8 -8.35 7.7 -12.15 5.7 -14.35 2.25 L-15.55 0.0 M6.1 -2.25 L5.5 -3.45 -3.4 5.5 Q-1.85 6.5 0.0 6.5 2.75 6.5 4.65 4.6 6.55 2.7 6.55 0.0 L6.1 -2.25" fill="#ffffff" fill-rule="evenodd" stroke="none"/>
  </g>
</svg>
