<?xml version="1.0" encoding="UTF-8" standalone="no"?>
<svg xmlns:ffdec="https://www.free-decompiler.com/flash" xmlns:xlink="http://www.w3.org/1999/xlink" ffdec:objectType="shape" height="1060.0px" width="1666.65px" xmlns="http://www.w3.org/2000/svg">
  <g transform="matrix(1.0, 0.0, 0.0, 1.0, 834.15, 531.0)">
    <path d="M603.2 -443.05 L650.55 -406.5 693.5 -364.45 731.5 -317.5 764.1 -266.2 790.75 -211.25 811.15 -153.45 825.05 -93.6 832.2 -32.4 832.5 29.2 826.05 90.5 812.8 150.55 793.05 208.55 766.95 263.8 734.95 315.5 697.45 362.9 654.95 405.5 608.05 442.55 557.3 473.7 503.5 498.4 447.3 516.45 399.95 525.5 370.65 528.5 330.9 529.0 -333.5 529.0 -370.65 528.55 -402.15 525.4 -448.95 516.45 -505.15 498.4 -558.95 473.7 -609.65 442.55 -656.6 405.5 -699.1 362.9 -736.6 315.5 -768.6 263.8 -794.65 208.55 -814.45 150.55 -827.65 90.5 -834.15 29.2 -833.8 -32.4 -826.65 -93.6 -812.8 -153.45 -792.35 -211.25 -765.7 -266.2 -733.15 -317.5 -695.1 -364.45 -652.15 -406.5 -604.85 -443.05 -553.8 -473.55 -499.7 -497.6 -443.3 -514.95 -390.4 -524.4 -333.8 -531.0 332.15 -531.0 388.8 -524.4 441.7 -514.95 498.05 -497.6 552.15 -473.55 603.2 -443.05" fill="#707070" fill-rule="evenodd" stroke="none"/>
    <path d="M524.55 -428.95 L573.05 -401.35 618.0 -368.25 658.8 -330.2 694.95 -287.6 725.9 -241.15 751.2 -191.45 770.6 -139.1 783.8 -84.85 790.6 -29.45 790.9 26.35 784.75 81.85 772.2 136.25 753.4 188.8 728.65 238.8 698.2 285.65 662.6 328.6 622.2 367.15 577.6 400.7 529.45 428.9 478.3 451.3 424.95 467.6 371.0 477.45 361.65 478.45 314.3 479.0 -316.9 479.0 -360.95 478.5 -374.0 477.2 -426.55 467.6 -479.95 451.3 -531.05 428.9 -579.25 400.7 -623.85 367.15 -664.2 328.6 -699.85 285.65 -730.25 238.8 -755.0 188.8 -773.8 136.25 -786.35 81.85 -792.55 26.35 -792.2 -29.45 -785.4 -84.85 -772.25 -139.1 -752.85 -191.45 -727.5 -241.15 -696.55 -287.6 -660.45 -330.2 -619.65 -368.25 -574.65 -401.35 -526.15 -428.95 -474.8 -450.75 -421.25 -466.5 -375.05 -474.35 -366.25 -476.75 -317.15 -494.65 -217.35 -514.7 216.0 -514.7 315.55 -494.65 363.55 -477.15 373.85 -474.25 419.6 -466.5 473.15 -450.75 524.55 -428.95" fill="#434343" fill-rule="evenodd" stroke="none"/>
    <path d="M392.8 -313.4 L394.35 -319.45 410.25 -314.8 446.15 -299.55 474.6 -283.35 471.2 -278.5 494.05 -262.55 497.45 -267.45 511.5 -257.1 516.9 -252.05 510.15 -245.55 511.8 -243.85 519.7 -251.35 519.7 -251.4 539.5 -271.2 571.25 -239.45 543.9 -212.3 545.55 -210.65 551.8 -216.6 560.6 -206.25 556.1 -202.95 572.75 -180.6 576.7 -183.55 586.85 -168.3 604.6 -133.55 615.3 -104.65 610.65 -103.6 616.8 -76.45 622.8 -77.8 627.35 -59.05 632.1 -20.35 632.3 15.7 628.0 54.45 625.0 67.45 618.95 66.05 612.75 93.2 618.5 94.5 606.1 129.2 588.8 164.2 582.0 174.6 578.35 171.9 561.75 194.2 566.7 197.9 551.35 216.4 545.8 211.1 544.15 212.75 553.6 221.95 553.6 221.85 571.25 239.5 539.5 271.25 518.35 250.1 518.25 250.2 512.05 244.3 510.4 246.0 516.5 251.9 514.4 253.85 505.8 260.35 503.0 256.35 480.15 272.25 483.5 277.1 483.25 277.35 449.6 297.05 413.85 312.7 403.65 315.8 402.25 310.35 375.25 317.3 376.95 323.95 375.85 324.3 336.5 329.95 299.25 330.35 206.3 330.35 165.7 346.65 163.0 346.65 163.0 348.15 165.1 348.15 165.1 381.3 135.1 381.3 135.1 348.15 137.2 348.15 137.2 346.65 129.65 346.65 129.65 348.15 131.75 348.15 131.75 381.3 101.75 381.3 101.75 348.15 103.85 348.15 103.85 346.65 96.3 346.65 96.3 348.15 98.4 348.15 98.4 381.3 68.4 381.3 68.4 348.15 70.55 348.15 70.55 346.65 63.0 346.65 63.0 348.15 65.1 348.15 65.1 381.3 35.1 381.3 35.1 348.15 37.2 348.15 37.2 346.65 29.65 346.65 29.65 348.15 31.75 348.15 31.75 381.3 1.75 381.3 1.75 348.15 3.85 348.15 3.85 346.65 -3.7 346.65 -3.7 348.15 -1.6 348.15 -1.6 381.3 -31.6 381.3 -31.6 348.15 -29.45 348.15 -29.45 346.65 -37.0 346.65 -37.0 348.15 -34.9 348.15 -34.9 381.3 -64.9 381.3 -64.9 348.15 -62.8 348.15 -62.8 346.65 -70.35 346.65 -70.35 348.15 -68.25 348.15 -68.25 381.3 -98.25 381.3 -98.25 348.15 -96.15 348.15 -96.15 346.65 -103.7 346.65 -103.7 348.15 -101.6 348.15 -101.6 381.3 -131.6 381.3 -131.6 348.15 -129.45 348.15 -129.45 346.65 -137.0 346.65 -137.0 348.15 -134.9 348.15 -134.9 381.3 -164.9 381.3 -164.9 348.15 -162.8 348.15 -162.8 346.65 -166.7 346.65 -205.0 330.35 -301.05 330.35 -338.15 329.95 -367.0 325.8 -365.4 319.65 -392.4 312.7 -394.1 319.2 -415.45 312.7 -451.2 297.05 -474.7 283.25 -470.55 277.25 -493.35 261.35 -497.75 267.6 -516.05 253.85 -517.05 252.9 -509.85 245.85 -511.5 244.2 -518.85 251.2 -519.15 250.85 -539.55 271.25 -571.3 239.5 -553.1 221.25 -553.05 221.85 -543.6 212.65 -545.25 211.0 -552.1 217.5 -561.75 205.8 -555.9 201.45 -572.55 179.1 -578.05 183.2 -590.4 164.2 -607.7 129.2 -616.8 103.75 -610.05 102.2 -616.2 75.05 -624.45 76.95 -629.65 54.45 -633.95 15.7 -633.7 -20.35 -628.95 -59.05 -626.9 -67.55 -619.65 -65.9 -613.5 -93.05 -620.35 -94.6 -619.75 -96.95 -606.2 -133.55 -588.5 -168.3 -583.85 -175.25 -578.1 -170.95 -561.45 -193.25 -568.4 -198.45 -566.9 -200.75 -552.75 -217.4 -545.5 -210.55 -543.85 -212.2 -571.3 -239.45 -539.55 -271.2 -519.65 -251.3 -519.65 -251.25 -511.75 -243.75 -510.1 -245.4 -517.7 -252.8 -513.1 -257.1 -506.5 -261.95 -502.35 -256.05 -479.55 -272.0 -484.05 -278.5 -481.65 -280.25 -447.8 -299.55 -411.85 -314.8 -404.7 -316.9 -402.95 -310.2 -376.0 -317.1 -377.95 -324.75 -374.45 -325.75 -335.3 -332.45 -293.95 -333.0 -205.0 -333.0 -166.7 -346.7 -162.8 -346.7 -162.8 -348.35 -164.9 -348.35 -164.9 -381.5 -134.9 -381.5 -134.9 -348.35 -137.0 -348.35 -137.0 -346.7 -129.45 -346.7 -129.45 -348.35 -131.6 -348.35 -131.6 -381.5 -101.6 -381.5 -101.6 -348.35 -103.7 -348.35 -103.7 -346.7 -96.15 -346.7 -96.15 -348.35 -98.25 -348.35 -98.25 -381.5 -68.25 -381.5 -68.25 -348.35 -70.35 -348.35 -70.35 -346.7 -62.8 -346.7 -62.8 -348.35 -64.9 -348.35 -64.9 -381.5 -34.9 -381.5 -34.9 -348.35 -37.0 -348.35 -37.0 -346.7 -29.45 -346.7 -29.45 -348.35 -31.6 -348.35 -31.6 -381.5 -1.6 -381.5 -1.6 -348.35 -3.7 -348.35 -3.7 -346.7 3.85 -346.7 3.85 -348.35 1.75 -348.35 1.75 -381.5 31.75 -381.5 31.75 -348.35 29.65 -348.35 29.65 -346.7 37.2 -346.7 37.2 -348.35 35.1 -348.35 35.1 -381.5 65.1 -381.5 65.1 -348.35 63.0 -348.35 63.0 -346.7 70.55 -346.7 70.55 -348.35 68.4 -348.35 68.4 -381.5 98.4 -381.5 98.4 -348.35 96.3 -348.35 96.3 -346.7 103.85 -346.7 103.85 -348.35 101.75 -348.35 101.75 -381.5 131.75 -381.5 131.75 -348.35 129.65 -348.35 129.65 -346.7 137.2 -346.7 137.2 -348.35 135.1 -348.35 135.1 -381.5 165.1 -381.5 165.1 -348.35 163.0 -348.35 163.0 -346.7 165.7 -346.7 206.3 -333.0 292.85 -333.0 333.65 -332.45 367.45 -326.7 365.8 -320.35 392.8 -313.4" fill="#707070" fill-rule="evenodd" stroke="none"/>
    <path d="M387.65 -287.0 L417.3 -276.0 468.0 -250.0 505.0 -218.35 535.65 -185.7 556.0 -156.7 570.65 -128.7 587.0 -89.0 599.3 -28.0 600.1 9.85 598.55 31.2 593.4 63.65 581.65 104.8 562.8 147.0 539.0 183.4 510.3 217.0 470.75 249.0 436.55 270.1 389.0 288.3 345.0 299.0 305.5 301.0 -291.0 301.0 -330.5 299.5 -389.45 289.4 -425.45 274.0 -458.35 256.3 -492.35 231.65 -515.7 210.3 -535.0 187.0 -554.35 159.65 -571.0 128.3 -583.0 99.0 -593.0 65.65 -600.35 21.0 -599.7 -23.0 -595.0 -53.0 -586.35 -86.35 -575.7 -117.7 -565.0 -139.7 -541.7 -175.7 -519.7 -203.7 -495.7 -227.0 -469.0 -247.0 -446.35 -261.0 -411.0 -279.0 -380.35 -287.7 -337.0 -297.0 -307.0 -302.0 295.0 -302.35 335.0 -298.35 387.65 -287.0" fill="#969696" fill-rule="evenodd" stroke="none"/>
    <path d="M477.0 -55.0 L481.65 -29.0 483.65 -1.7 482.3 28.3 477.65 45.65 471.0 64.3 459.65 89.65 434.05 132.8 410.8 151.45 384.6 167.65 355.95 181.15 325.3 191.7 315.65 195.65 259.9 203.35 229.5 200.0 211.5 195.0 103.65 189.0 -99.7 189.65 -231.1 204.25 -264.7 203.35 -297.9 199.15 -330.05 191.7 -360.75 181.15 -389.4 167.65 -415.6 151.45 Q-427.2 142.15 -438.85 132.8 L-455.45 94.0 -468.95 68.0 -485.95 49.5 -495.95 40.35 -500.1 14.65 -499.9 -11.25 -495.4 -36.9 -472.45 -59.0 -457.95 -88.5 -457.25 -108.45 -437.0 -129.15 -413.45 -147.7 -387.05 -163.8 Q-369.85 -173.55 -352.7 -183.35 L-320.7 -194.7 -307.7 -196.7 -261.85 -198.95 -231.1 -199.7 -184.0 -194.5 -138.0 -186.5 -114.0 -187.35 98.3 -183.7 119.0 -188.35 226.3 -199.7 257.5 -204.0 290.3 -194.85 326.0 -191.0 353.0 -184.0 391.0 -164.5 408.65 -147.7 432.2 -129.15 452.45 -108.45 465.0 -84.35 477.0 -55.0" fill="#7f7f7f" fill-rule="evenodd" stroke="none"/>
    <path d="M-201.5 -228.0 L-216.6 -238.7 -217.65 -239.9 -198.35 -232.0 212.75 -231.9 237.2 -238.8 237.85 -238.65 238.0 -236.8 200.4 -224.85 102.5 -218.5 -108.5 -218.5 -201.5 -228.0" fill="#434343" fill-rule="evenodd" stroke="none"/>
    <path d="M-178.35 224.3 L-107.7 218.3 107.0 217.65 176.3 223.65 211.0 227.65 225.65 234.3 207.65 233.25 99.65 231.65 -140.25 232.45 -235.7 234.3 -178.35 224.3" fill="#434343" fill-rule="evenodd" stroke="none"/>
    <path d="M-397.2 152.85 L-398.8 151.0 -392.3 141.65 -390.4 143.0 -397.2 152.85" fill="#434343" fill-rule="evenodd" stroke="none"/>
    <path d="M-259.2 -208.85 L-255.2 -206.7 -240.5 -203.7 -235.35 -204.0 -233.5 -205.2 -229.2 -203.7 -226.85 -202.35 -225.2 -202.2 -223.2 -203.35 -221.7 -203.0 -209.5 -199.35 -205.35 -201.2 -197.7 -199.35 -192.35 -201.35 -185.85 -201.35 -173.85 -196.2 -171.2 -196.35 -167.0 -192.7 -162.7 -193.2 -160.7 -194.35 -159.2 -194.2 -157.7 -193.5 -156.7 -193.35 -155.35 -195.0 -152.5 -196.7 -149.7 -196.5 -143.85 -195.5 -141.0 -193.0 -135.85 -191.35 -134.5 -191.7 -132.7 -191.85 -131.0 -191.0 -130.2 -189.85 -125.5 -189.7 -122.35 -190.7 -120.7 -194.7 -119.7 -194.35 -117.7 -194.2 -113.7 -193.35 -111.35 -192.35 -110.0 -190.7 -107.7 -191.85 -102.85 -190.0 -102.2 -188.2 -102.9 -187.0 -102.6 -183.25 -111.15 -187.25 -111.8 -184.8 -117.6 -186.8 -151.7 -188.15 -174.0 -190.15 -177.6 -191.15 -201.15 -192.8 -208.0 -193.7 -219.7 -194.0 -232.9 -193.0 -238.45 -195.8 -249.0 -198.35 -258.35 -198.95 -267.85 -196.1 -274.8 -195.6 -277.9 -193.7 -279.15 -193.35 -284.6 -193.25 -287.15 -191.25 -289.25 -190.9 -295.9 -192.6 -308.9 -195.0 -318.35 -191.7 -324.8 -188.45 -331.25 -186.9 -335.7 -185.25 -351.9 -182.15 -355.9 -177.45 -358.7 -175.35 -362.6 -173.15 -369.15 -167.8 -371.45 -165.45 -380.7 -161.35 -384.9 -159.0 -392.7 -157.15 -398.5 -155.25 -400.25 -154.0 -409.2 -144.5 -410.85 -141.85 -411.8 -138.25 -411.35 -136.35 -411.8 -129.4 -415.35 -127.7 -419.0 -120.7 -419.35 -116.7 -420.5 -114.85 -425.5 -113.2 -429.9 -112.35 -436.05 -112.35 -437.0 -113.0 -450.0 -75.7 -452.35 -64.35 -457.35 -57.0 -468.0 -47.35 -471.0 -41.7 -473.7 -17.0 -474.0 10.65 -469.35 43.4 -450.85 77.0 -448.2 86.5 -448.35 89.0 -444.35 93.5 -439.35 97.0 -438.5 101.0 -437.2 103.65 -434.7 105.5 -433.7 107.5 -433.35 109.8 -432.7 112.65 -431.35 114.8 -431.2 117.15 -430.0 119.5 -426.85 123.8 -410.2 137.8 -406.85 142.3 -391.25 159.8 -386.0 159.0 -377.7 162.0 -370.0 166.65 -368.85 167.5 -363.3 159.5 -361.4 160.8 -367.0 168.9 -350.7 181.65 -342.7 182.3 -326.0 189.0 -312.7 193.3 -303.7 194.3 -292.7 191.65 -288.35 191.65 -286.05 192.65 -282.7 195.3 -273.0 195.3 -257.0 199.65 -256.35 198.5 -255.0 197.65 -253.5 198.15 -252.35 199.0 -248.35 199.0 -246.0 198.65 -244.7 196.0 -242.15 194.55 -240.6 194.65 -239.0 195.15 -236.0 197.3 -232.35 195.3 -228.35 194.3 -224.7 195.3 -215.7 193.65 -204.0 192.3 -198.7 193.3 -194.0 195.3 -195.35 193.65 -194.0 191.65 -191.35 191.0 -189.0 191.65 -185.0 192.3 -176.35 191.0 -169.0 192.0 -157.7 189.15 -118.2 186.15 -112.35 186.8 -104.5 185.8 -91.2 182.5 -93.45 185.2 -96.35 190.0 -99.7 191.65 -111.35 193.65 -126.35 193.0 -191.35 201.0 -217.05 202.6 -248.8 209.65 -255.9 210.15 -279.7 206.0 -287.9 201.85 -295.25 200.3 -304.35 199.65 -311.7 199.65 -314.85 199.1 -317.35 198.0 -350.0 187.0 -381.7 173.3 -396.7 168.0 -395.95 166.6 -419.0 152.3 -429.35 144.65 -439.7 133.65 -441.0 131.0 -444.0 129.3 -447.35 128.0 -449.35 125.65 -453.7 122.0 -456.35 119.0 -459.35 114.65 -459.7 110.65 -461.0 106.65 -462.0 101.3 -463.7 97.3 -464.0 93.65 -466.35 91.0 -473.0 86.3 -472.35 71.3 -478.0 65.0 -483.7 62.0 -489.35 59.65 -492.35 56.3 -497.0 53.3 -501.0 37.0 -503.0 17.65 -503.35 -2.35 -502.7 -28.35 -498.7 -49.0 -496.7 -56.7 -490.7 -60.0 -488.0 -62.7 -484.7 -65.0 -481.35 -65.7 -477.0 -67.35 -474.0 -69.7 -471.7 -74.7 -470.35 -86.35 -470.7 -89.7 -472.35 -94.0 -469.0 -100.7 -460.35 -105.85 -456.5 -113.5 -446.7 -122.7 -438.35 -131.35 -434.2 -134.2 -427.0 -140.25 -425.8 -143.6 -422.8 -149.6 -414.15 -157.9 -400.35 -162.45 -377.2 -179.2 -369.35 -178.35 -364.0 -179.35 -358.0 -182.7 -350.2 -186.2 -333.5 -191.85 -323.9 -196.15 -319.1 -197.85 -312.2 -198.85 -298.0 -198.5 -290.85 -200.2 -285.7 -205.5 -283.0 -206.85 -280.2 -207.5 -277.7 -206.0 -275.85 -202.85 -270.2 -201.0 -268.35 -202.35 -268.5 -205.7 -266.7 -208.2 -263.7 -209.7 -259.2 -208.85" fill="#434343" fill-rule="evenodd" stroke="none"/>
    <path d="M463.85 -98.35 L465.15 -92.35 468.3 -87.25 471.3 -78.0 471.65 -70.2 473.65 -67.0 477.5 -63.05 482.0 -56.85 483.8 -49.5 488.0 -20.0 488.5 6.0 486.5 25.5 483.1 49.4 487.3 52.3 493.0 52.3 488.3 56.0 484.3 58.3 481.0 59.0 480.45 59.25 475.0 76.0 454.5 109.0 452.0 121.0 450.5 126.0 446.0 129.0 446.5 132.5 448.15 131.8 450.15 133.65 452.5 132.15 453.3 131.0 457.15 130.5 457.5 131.8 456.5 134.5 453.5 137.15 451.15 136.8 450.5 138.65 448.3 142.15 446.65 142.0 444.65 140.3 444.15 139.0 444.0 136.65 444.15 134.5 440.65 136.5 439.65 136.0 438.15 135.8 438.0 139.3 436.65 140.8 434.8 141.15 435.15 143.8 432.8 145.65 430.0 146.65 425.15 149.3 424.0 150.15 413.15 157.0 400.2 163.2 385.4 173.65 374.3 176.6 374.3 176.65 347.0 187.0 315.8 199.8 307.15 200.3 293.3 199.3 286.3 201.3 281.0 204.15 277.15 205.15 274.65 203.65 265.8 205.8 256.65 207.5 249.65 207.5 227.65 204.1 215.65 200.3 209.65 197.4 181.2 197.4 176.75 197.0 168.75 194.1 147.0 193.85 133.2 192.3 105.2 191.65 97.2 189.2 95.95 188.3 95.05 188.15 95.45 187.95 93.85 186.75 98.75 185.85 100.8 186.3 105.3 186.15 109.65 188.15 111.5 188.15 112.65 189.0 113.3 187.8 114.5 187.0 135.65 187.8 138.15 189.0 141.0 188.8 143.15 190.0 146.0 191.0 151.65 190.15 155.5 189.0 159.8 190.15 161.5 191.0 163.15 192.15 165.65 192.5 167.0 191.8 174.15 191.5 200.8 192.15 220.3 194.1 238.75 196.75 247.0 196.0 250.15 194.5 252.65 193.65 260.2 194.75 264.15 196.65 269.65 195.1 274.65 191.1 277.4 190.0 285.4 191.0 314.8 192.15 321.0 188.15 330.5 184.8 338.65 183.8 346.75 179.65 358.3 176.1 358.5 176.0 364.55 171.85 370.3 167.0 380.1 161.2 385.0 159.0 390.1 159.4 392.1 159.2 394.75 156.55 396.3 156.75 430.3 115.2 431.4 114.1 432.75 113.2 435.2 114.3 436.55 110.1 440.55 101.85 443.0 98.55 444.55 94.55 447.85 89.85 448.55 87.65 449.85 79.2 450.1 70.75 449.65 68.1 450.1 66.75 451.4 65.4 457.4 56.75 457.85 54.55 458.75 52.3 460.55 51.65 462.75 49.85 466.1 49.2 469.4 49.4 471.4 47.0 469.0 40.5 470.7 34.65 472.35 17.0 473.35 -5.65 472.35 -27.35 470.05 -45.0 468.0 -53.3 468.3 -52.0 464.0 -58.0 458.65 -62.7 454.15 -68.85 452.3 -79.0 450.65 -81.7 451.0 -85.0 452.0 -86.7 450.0 -88.7 446.65 -89.35 439.65 -99.35 439.0 -101.7 438.65 -105.0 436.65 -107.0 434.0 -111.35 433.55 -112.75 432.55 -113.0 431.5 -118.45 420.05 -128.5 401.8 -148.5 391.2 -159.45 389.0 -158.8 384.65 -159.0 368.5 -166.85 364.0 -172.0 359.4 -174.6 355.0 -178.35 352.3 -181.7 348.3 -183.25 341.8 -183.35 335.8 -184.5 329.2 -188.15 327.0 -188.7 323.8 -189.0 319.65 -190.7 316.5 -192.85 313.8 -193.0 312.3 -193.7 308.75 -191.7 300.3 -189.85 295.15 -191.2 288.1 -191.25 277.65 -194.15 275.2 -194.6 273.2 -196.15 270.3 -196.2 267.65 -197.25 265.65 -197.7 261.65 -199.0 256.3 -202.8 251.4 -199.9 242.75 -197.45 237.85 -197.7 229.85 -193.9 217.85 -196.35 213.85 -194.8 210.3 -193.9 204.0 -193.5 193.5 -188.85 184.65 -186.2 179.0 -189.7 173.15 -188.7 171.0 -192.0 165.8 -190.85 163.8 -188.85 160.0 -186.35 152.5 -186.7 148.3 -188.85 144.0 -189.0 123.0 -188.0 111.5 -186.5 103.5 -183.0 92.5 -181.5 111.4 -189.0 153.2 -195.7 170.75 -196.8 177.65 -198.35 186.1 -196.8 199.4 -197.9 219.65 -201.7 236.75 -203.7 254.65 -207.0 267.0 -206.7 280.65 -202.7 313.0 -199.0 359.65 -184.35 364.3 -186.7 368.0 -185.35 368.0 -183.35 370.3 -185.7 375.3 -183.7 375.65 -181.7 380.3 -180.0 399.0 -167.25 403.2 -163.25 411.85 -159.9 427.4 -147.0 438.75 -136.8 447.0 -126.35 449.65 -119.7 457.0 -112.6 460.55 -107.0 463.85 -98.35" fill="#434343" fill-rule="evenodd" stroke="none"/>
    <path d="M414.45 -13.5 L411.95 -16.0 409.35 -13.85 409.6 -13.85 409.6 -13.5 414.45 -13.5 M376.4 -16.3 L373.65 -13.5 379.0 -13.5 379.0 -13.85 379.55 -13.85 376.4 -16.3 M368.0 -60.15 L369.2 -61.35 376.5 -54.0 378.75 -55.85 378.75 -63.6 408.85 -63.6 408.85 -56.75 412.0 -54.35 418.95 -61.35 420.1 -60.15 413.15 -53.2 416.25 -49.45 418.9 -44.25 420.3 -38.55 420.4 -32.7 419.2 -27.0 416.75 -21.7 413.25 -17.1 419.95 -10.4 418.75 -9.2 415.0 -13.0 415.0 26.8 409.6 26.8 409.6 61.25 401.15 61.25 401.15 66.1 386.35 66.1 386.35 61.25 379.0 61.25 379.0 26.8 373.15 26.8 373.15 -13.0 369.35 -9.2 368.15 -10.4 375.3 -17.55 372.55 -20.85 369.95 -26.1 368.55 -31.75 368.4 -37.6 369.6 -43.35 372.05 -48.65 375.3 -52.85 368.0 -60.15" fill="#707070" fill-rule="evenodd" stroke="none"/>
    <path d="M361.85 -11.7 L363.3 -12.7 365.2 -12.15 365.65 -10.15 365.75 -7.7 367.1 -7.0 368.0 -6.0 368.2 -5.0 368.0 -3.0 367.55 -2.25 366.1 -0.8 364.75 -1.0 363.85 -1.9 363.85 -3.6 364.2 -5.25 362.65 -5.6 361.75 -7.0 361.2 -9.35 361.85 -11.7" fill="#707070" fill-rule="evenodd" stroke="none"/>
    <path d="M364.1 7.55 L365.55 7.55 366.65 8.65 367.0 11.0 366.1 13.2 364.4 15.0 363.0 14.55 362.1 12.75 361.85 10.75 363.0 8.65 364.1 7.55" fill="#707070" fill-rule="evenodd" stroke="none"/>
    <path d="M368.1 23.1 L368.3 24.2 368.1 26.2 367.55 28.85 366.4 29.3 365.2 29.4 363.1 27.75 362.2 28.0 361.0 27.55 360.55 26.75 361.1 26.0 361.55 25.1 361.3 24.3 362.2 22.75 363.0 23.0 364.75 20.55 366.3 20.75 366.85 22.1 368.1 23.1" fill="#707070" fill-rule="evenodd" stroke="none"/>
    <path d="M365.85 32.2 L366.6 32.0 367.25 32.35 368.0 33.55 368.5 35.0 368.55 36.75 368.35 37.9 367.9 39.4 367.35 40.65 366.75 41.25 365.5 41.4 364.8 40.8 363.8 38.85 363.4 39.55 362.8 39.7 362.25 39.25 361.9 38.5 362.2 36.85 362.7 36.55 363.2 36.85 363.6 34.65 364.8 33.0 365.85 32.2" fill="#707070" fill-rule="evenodd" stroke="none"/>
    <path d="M367.1 43.15 L367.55 43.9 368.0 44.9 368.05 46.5 366.25 49.15 366.0 50.0 366.2 50.3 366.8 51.0 366.7 51.5 366.4 52.25 366.25 53.0 367.25 54.25 367.5 56.05 367.2 56.4 366.85 57.2 366.85 58.0 367.3 58.7 367.5 59.35 367.4 60.1 367.1 60.85 366.65 61.25 365.7 61.6 364.75 61.4 364.3 60.9 364.15 60.0 364.3 58.85 364.55 58.2 365.3 57.4 364.65 57.5 364.15 57.5 362.8 56.9 362.25 56.35 362.5 55.2 362.4 54.75 362.05 54.25 361.75 53.3 362.25 51.5 362.8 51.5 363.55 51.65 363.75 51.25 364.15 50.7 364.65 50.3 364.4 49.9 363.75 49.15 363.2 47.75 363.0 45.75 361.65 45.15 360.8 44.6 360.3 42.85 360.55 41.35 361.2 40.8 362.15 40.75 363.2 41.1 365.2 42.5 366.05 42.4 367.1 43.15" fill="#707070" fill-rule="evenodd" stroke="none"/>
    <path d="M208.15 -22.2 L208.15 -32.5 244.8 -32.5 244.8 -22.2 208.15 -22.2" fill="#707070" fill-rule="evenodd" stroke="none"/>
    <path d="M257.3 -37.0 L259.05 -37.0 259.05 -25.35 257.3 -25.35 257.3 -37.0" fill="#707070" fill-rule="evenodd" stroke="none"/>
    <path d="M210.1 20.3 L214.55 17.4 218.8 15.85 210.1 15.85 210.1 20.3 M125.2 32.3 L129.65 32.3 129.65 24.55 164.55 24.55 164.55 19.4 204.1 19.4 204.1 23.2 207.0 23.2 207.0 21.5 200.35 14.85 201.5 13.65 207.0 19.15 207.0 15.85 206.55 15.85 206.55 12.75 246.55 12.75 246.55 15.85 233.25 15.85 237.1 17.15 242.1 20.2 246.25 24.3 246.4 24.55 254.3 24.55 254.3 55.0 247.7 55.0 246.6 56.75 245.55 57.85 252.3 64.6 251.1 65.8 244.4 59.05 242.55 60.95 237.65 64.1 232.15 66.05 226.35 66.8 220.55 66.2 215.05 64.35 210.1 61.3 208.1 59.35 201.7 65.8 200.5 64.6 206.9 58.2 206.35 57.65 204.1 57.65 204.1 59.65 164.55 59.65 164.55 55.0 129.65 55.0 129.65 47.0 125.2 47.0 125.2 32.3" fill="#707070" fill-rule="evenodd" stroke="none"/>
    <path d="M244.7 22.6 L243.5 21.45 251.25 13.65 252.45 14.85 244.7 22.6" fill="#707070" fill-rule="evenodd" stroke="none"/>
    <path d="M107.3 23.55 L108.0 24.85 108.65 28.65 108.3 32.4 109.55 32.4 114.0 34.65 114.75 36.85 114.85 38.3 116.65 37.0 117.75 36.4 120.65 36.75 122.4 37.3 122.55 38.3 120.65 42.4 118.3 42.85 114.75 42.65 113.75 46.1 115.2 46.1 117.75 50.0 118.75 48.75 122.4 47.65 124.4 49.1 124.3 50.3 122.3 52.75 119.4 53.4 116.85 52.75 116.3 53.0 117.1 54.55 120.1 57.75 119.1 67.75 116.2 69.1 110.4 66.3 109.1 64.2 108.85 62.65 107.1 56.55 106.3 56.0 105.85 55.1 106.1 53.85 106.65 52.55 105.0 52.75 101.55 52.3 97.65 50.4 98.2 52.1 98.75 55.4 96.3 57.55 94.3 58.65 91.55 59.0 92.75 59.65 95.4 62.4 96.65 64.3 96.75 67.4 96.4 72.1 93.75 72.75 90.85 71.1 88.4 68.55 87.0 63.3 87.1 59.85 89.4 58.75 86.4 58.3 83.75 57.3 80.0 54.65 78.0 51.4 78.0 49.1 79.1 47.4 82.4 45.85 85.3 45.0 92.3 47.0 91.55 44.3 87.55 42.3 86.75 40.4 85.1 42.55 83.55 43.1 82.0 42.1 79.4 39.75 79.1 38.2 80.4 36.85 83.2 36.4 87.2 37.4 84.55 34.85 85.0 33.85 85.85 32.75 87.75 31.65 88.55 31.55 90.85 31.85 89.65 31.1 88.65 30.1 88.55 29.2 88.85 28.3 90.3 27.85 91.75 27.85 93.2 29.1 93.0 30.85 94.2 30.3 97.1 30.0 100.2 30.75 99.3 28.85 100.0 27.0 104.55 22.75 106.1 22.85 107.3 23.55" fill="#707070" fill-rule="evenodd" stroke="none"/>
    <path d="M113.1 30.75 L112.4 27.85 113.3 24.75 115.85 20.55 120.65 19.2 121.65 19.55 122.65 20.1 124.4 21.4 124.65 22.0 125.1 26.1 124.55 28.0 119.55 34.65 116.85 34.75 114.3 32.85 113.1 30.75" fill="#707070" fill-rule="evenodd" stroke="none"/>
    <path d="M94.65 23.1 L96.55 22.55 97.55 22.75 97.55 23.65 96.0 27.1 94.65 27.55 92.55 27.55 91.75 26.3 93.0 24.55 94.65 23.1" fill="#707070" fill-rule="evenodd" stroke="none"/>
    <path d="M128.8 -23.45 L128.8 -21.3 126.65 -21.3 126.65 -23.45 128.8 -23.45" fill="#707070" fill-rule="evenodd" stroke="none"/>
    <path d="M140.4 -23.45 L140.4 -21.3 138.25 -21.3 138.25 -23.45 140.4 -23.45" fill="#707070" fill-rule="evenodd" stroke="none"/>
    <path d="M126.65 10.05 L126.65 7.85 128.8 7.85 128.8 10.05 126.65 10.05" fill="#707070" fill-rule="evenodd" stroke="none"/>
    <path d="M138.25 10.05 L138.25 7.85 140.4 7.85 140.4 10.05 138.25 10.05" fill="#707070" fill-rule="evenodd" stroke="none"/>
    <path d="M163.25 -112.35 L170.25 -112.35 170.25 -105.35 163.25 -105.35 163.25 -112.35" fill="#707070" fill-rule="evenodd" stroke="none"/>
    <path d="M195.2 -99.8 L197.4 -99.65 199.5 -98.95 201.45 -97.8 203.05 -96.25 204.25 -94.4 205.05 -92.35 205.35 -90.15 205.15 -87.9 204.45 -85.8 203.6 -84.35 207.0 -84.35 207.0 -78.0 213.65 -78.0 213.65 -61.7 208.0 -61.7 208.0 -56.7 209.1 -56.9 209.55 -55.9 211.0 -56.45 211.85 -56.6 212.85 -56.6 213.55 -55.35 213.65 -54.45 212.2 -53.15 210.75 -53.25 210.0 -53.7 209.1 -51.25 208.4 -50.6 205.75 -50.6 204.3 -51.15 203.65 -51.7 203.3 -52.35 201.75 -53.25 200.85 -53.15 199.65 -52.8 197.4 -52.6 197.2 -50.8 196.3 -50.0 194.1 -50.0 193.1 -50.7 193.3 -52.6 193.8 -53.7 192.55 -53.7 191.0 -52.8 191.2 -51.35 189.55 -51.35 189.0 -52.45 188.3 -52.9 186.85 -53.6 186.7 -53.7 180.75 -53.7 180.2 -53.0 179.0 -52.25 180.3 -51.8 179.65 -50.6 178.3 -49.6 177.75 -50.15 176.3 -50.45 175.1 -51.6 174.4 -52.6 173.25 -53.7 166.95 -53.7 167.3 -52.8 166.85 -51.8 165.55 -51.35 163.75 -51.0 161.3 -51.7 160.1 -53.0 159.8 -53.7 154.75 -53.7 156.15 -53.1 157.5 -51.75 157.65 -50.6 157.3 -49.5 156.65 -48.5 155.3 -48.0 152.4 -47.95 150.55 -49.5 150.4 -50.75 149.55 -51.35 148.55 -52.25 147.85 -53.4 147.4 -52.7 146.65 -51.85 145.4 -51.2 143.15 -50.45 141.15 -51.2 139.9 -52.95 139.9 -53.7 139.15 -53.7 139.15 -43.7 127.3 -43.7 127.3 -53.7 113.0 -53.7 113.0 -58.05 112.65 -57.6 110.2 -55.0 108.4 -54.9 107.0 -56.35 106.1 -56.9 104.2 -56.8 103.85 -56.0 102.75 -56.0 102.2 -57.8 102.65 -58.45 102.75 -59.6 102.2 -60.35 101.1 -61.0 100.65 -60.45 99.65 -58.45 97.3 -58.6 96.0 -60.8 96.1 -64.25 98.55 -65.7 96.0 -69.7 96.1 -72.45 97.55 -73.35 100.85 -73.0 103.3 -70.45 104.75 -74.45 106.3 -75.35 108.75 -74.15 111.3 -71.45 113.0 -66.8 113.0 -84.35 167.35 -84.35 166.3 -85.15 166.3 -86.9 169.3 -89.25 172.2 -89.7 174.85 -87.8 178.2 -91.6 177.0 -91.9 175.85 -92.45 175.1 -93.35 175.2 -95.45 173.3 -94.45 173.3 -94.35 173.2 -93.45 171.75 -92.6 171.75 -90.7 170.85 -90.45 169.3 -91.0 168.75 -91.9 168.0 -91.9 167.0 -92.7 167.2 -93.6 168.0 -93.15 169.3 -92.8 171.1 -93.0 171.2 -93.8 171.95 -94.45 170.4 -95.0 169.0 -96.45 168.75 -97.8 170.4 -99.6 172.2 -99.8 174.0 -99.6 176.2 -97.8 177.75 -99.6 180.4 -101.0 182.55 -101.45 183.3 -100.6 183.3 -97.8 182.3 -93.6 184.4 -93.45 185.85 -92.9 184.3 -95.7 184.55 -97.35 186.3 -98.35 187.65 -98.0 188.15 -96.55 189.05 -97.5 190.9 -98.75 193.0 -99.55 195.2 -99.8" fill="#707070" fill-rule="evenodd" stroke="none"/>
    <path d="M103.2 -75.6 L103.2 -74.25 102.0 -73.9 100.2 -74.15 99.2 -75.6 99.3 -77.15 100.2 -78.25 101.65 -77.8 103.0 -76.9 103.2 -75.6" fill="#707070" fill-rule="evenodd" stroke="none"/>
    <path d="M286.4 187.0 L286.55 184.65 287.9 183.75 291.5 183.65 292.75 184.15 292.8 184.8 292.4 186.65 291.4 188.05 288.55 189.75 287.15 189.75 286.4 187.0" fill="#707070" fill-rule="evenodd" stroke="none"/>
    <path d="M-431.0 54.35 L-419.5 76.65 -430.45 82.3 -437.6 68.45 -450.95 75.8 -478.0 89.0 -483.0 82.65 -472.7 76.65 -456.6 68.1 -463.35 57.0 -464.85 53.0 -462.85 52.05 -461.8 52.25 -461.0 50.55 -461.7 50.05 -461.75 47.65 -461.45 46.5 -460.45 45.8 -459.1 45.4 -458.25 45.4 -457.45 46.0 -456.35 47.5 -456.1 48.5 -456.6 49.0 -456.5 51.05 -457.1 52.0 -458.5 52.05 -459.1 51.55 -459.25 53.9 -460.0 54.15 -460.9 53.75 -460.6 54.8 -459.7 55.55 -458.35 56.4 -456.85 60.0 -457.5 61.65 -456.0 62.9 -454.95 62.15 -454.25 62.25 -453.4 63.05 -453.7 64.3 -452.6 64.75 -451.5 66.05 -451.5 66.15 -444.0 62.3 -443.25 61.3 -443.8 59.45 -450.2 46.15 -450.25 43.55 -449.2 41.8 -447.8 40.55 -457.1 22.5 -449.35 18.5 -437.85 40.8 -441.15 42.45 -434.35 56.05 -431.0 54.35 M-474.35 -21.7 L-473.7 -37.5 -471.45 -37.45 -472.35 -23.9 -472.35 -23.85 -470.8 -24.15 -471.0 -26.35 -470.8 -29.0 -468.9 -31.45 -469.6 -32.95 -470.2 -34.85 -469.75 -37.25 -466.6 -40.25 -464.8 -40.15 -463.45 -36.6 -463.95 -33.5 -465.9 -31.0 -464.75 -30.3 -463.0 -28.35 -461.45 -29.35 -459.0 -29.25 -459.05 -30.65 -458.7 -32.75 -457.95 -34.2 -456.6 -35.25 -454.6 -35.25 -453.7 -32.6 -454.35 -29.9 -456.15 -27.25 -455.0 -24.8 -454.85 -22.5 -455.2 -20.8 -456.9 -20.45 -460.6 -21.25 -462.35 -22.8 -464.6 -19.45 -463.1 -15.95 -462.8 -13.0 -463.25 -10.6 -465.0 -8.6 -461.25 -8.15 -459.25 -6.15 -458.35 -1.7 -460.15 0.1 -465.9 -0.35 -468.8 -1.25 -469.7 0.75 -471.9 2.75 -471.45 4.3 -470.15 3.85 -466.6 3.85 -461.25 6.1 -459.0 9.0 -459.7 14.75 -462.15 17.0 -466.6 17.0 -469.0 16.3 -469.9 18.75 -471.7 20.1 -473.2 19.4 -474.0 8.15 -474.35 -21.7 M-401.2 -134.2 L-402.2 -136.2 -401.7 -137.5 -400.0 -138.5 -398.7 -138.85 -397.0 -138.2 -396.0 -138.35 -394.15 -138.85 -370.15 -156.6 -368.75 -154.7 -388.35 -140.1 -378.55 -125.95 -367.6 -133.55 -366.25 -131.6 -377.2 -124.05 -367.3 -109.85 -356.45 -117.35 -355.1 -115.45 -369.7 -105.4 -391.6 -135.4 -391.85 -135.0 -394.35 -134.7 -395.7 -136.35 -396.5 -134.5 -398.2 -133.85 -398.7 -132.7 -398.2 -132.7 -399.0 -130.5 -398.85 -128.7 -393.5 -128.7 -390.5 -127.85 -391.7 -123.35 -394.8 -120.6 -400.8 -118.25 -403.2 -119.4 -404.0 -118.7 -404.15 -117.25 -402.6 -116.8 -413.0 -94.0 -417.1 -95.75 -423.25 -81.85 -419.9 -80.15 -430.7 -57.25 -441.45 -62.7 -434.45 -76.7 -472.35 -94.0 -477.2 -96.85 -474.35 -103.85 -435.7 -85.6 -433.15 -85.25 -432.0 -85.8 -431.6 -86.9 -425.45 -99.45 -423.7 -101.35 -421.8 -101.9 -420.25 -101.8 -419.55 -101.4 -414.7 -111.85 -416.0 -113.2 -419.0 -120.7 -415.35 -127.7 -411.8 -129.4 -408.7 -129.5 -405.5 -126.5 -403.5 -122.7 -403.2 -126.0 -401.7 -127.0 -399.85 -127.85 -401.2 -129.0 -402.5 -129.7 -402.35 -132.0 -401.35 -133.0 -401.2 -134.2" fill="#707070" fill-rule="evenodd" stroke="none"/>
    <path d="M-95.45 168.3 L-92.15 167.4 -89.9 167.4 -88.0 168.0 -87.45 169.3 -88.35 172.0 -90.15 174.55 -92.7 175.3 -94.7 174.9 -95.5 172.85 -95.45 168.3" fill="#707070" fill-rule="evenodd" stroke="none"/>
    <path d="M466.75 -35.0 L467.3 -36.25 468.75 -37.0 470.1 -37.15 470.65 -35.25 470.85 -31.6 472.4 -29.6 473.0 -27.7 472.3 -25.6 470.55 -25.0 469.55 -25.25 468.55 -24.25 470.6 -22.85 472.2 -19.15 472.2 -17.15 471.65 -16.2 473.3 -14.9 473.55 -13.15 473.3 -10.0 471.85 -7.25 469.65 -7.45 470.55 -4.25 472.25 -3.45 473.55 -0.8 473.55 0.55 473.2 3.65 472.1 5.0 470.55 4.65 468.85 3.55 469.0 4.3 468.55 5.3 467.0 6.05 465.2 6.4 462.85 4.65 461.8 2.15 461.55 -0.2 463.4 -1.2 465.05 -1.45 466.5 -0.7 466.3 -2.45 464.75 -2.25 463.65 -2.6 463.4 -3.6 463.75 -4.65 464.55 -4.9 464.0 -5.9 463.15 -5.2 462.3 -5.75 462.4 -6.75 462.05 -7.35 461.4 -8.1 461.0 -9.7 461.55 -10.9 462.5 -10.95 463.3 -9.8 464.1 -9.0 467.1 -10.35 464.65 -10.8 463.75 -12.0 463.3 -13.9 463.55 -15.0 465.65 -15.15 466.65 -14.35 467.4 -15.8 467.1 -16.6 466.4 -17.35 465.85 -18.35 465.3 -20.8 465.75 -21.7 466.75 -23.15 466.65 -24.15 466.1 -25.35 466.55 -26.15 466.85 -27.25 467.75 -28.0 468.4 -27.45 469.1 -29.6 467.75 -29.8 466.85 -31.6 466.4 -32.9 466.75 -35.0" fill="#707070" fill-rule="evenodd" stroke="none"/>
    <path d="M465.15 8.0 L467.3 6.55 469.65 6.4 470.3 6.8 470.4 7.9 471.55 8.25 472.55 7.9 473.5 9.3 473.8 11.05 473.8 12.15 473.4 13.9 472.9 15.3 472.3 16.5 471.4 16.9 470.05 16.9 469.3 15.65 468.9 14.55 467.8 14.55 467.0 14.8 466.05 14.4 466.5 15.9 467.55 16.25 468.65 16.4 472.25 18.05 472.75 18.65 473.25 21.5 472.9 22.8 472.4 23.8 471.75 24.0 471.0 24.5 471.25 25.3 471.9 26.15 472.05 26.8 472.05 27.5 471.4 27.9 471.65 28.75 472.4 29.65 472.4 31.25 472.3 32.05 471.55 33.25 471.8 33.8 472.05 34.8 471.8 36.0 470.9 36.75 469.55 36.65 468.9 35.9 469.25 33.75 469.9 32.8 467.9 32.25 467.15 31.25 466.8 30.0 466.8 28.65 467.0 27.4 467.5 26.5 468.65 26.5 469.4 26.75 469.3 26.0 469.4 25.05 468.75 24.3 468.4 23.65 468.05 22.65 468.0 21.75 468.25 20.55 467.5 20.3 466.4 20.4 465.9 20.3 465.5 19.75 464.05 20.4 463.4 20.0 462.5 19.8 462.15 19.15 461.15 19.4 460.5 19.0 459.5 17.9 459.8 17.4 459.5 16.55 458.9 15.8 459.0 14.65 458.55 14.05 458.0 13.65 457.75 12.4 458.05 11.0 459.25 10.4 460.05 11.15 460.05 12.75 460.15 13.55 460.75 13.5 461.5 11.8 459.9 9.4 459.8 8.3 460.0 6.9 460.75 6.15 461.65 6.15 463.65 7.4 465.15 8.0" fill="#707070" fill-rule="evenodd" stroke="none"/>
    <path d="M-113.35 -31.95 L-119.35 -46.1 -88.15 -60.6 -81.25 -46.8 -113.35 -31.95" fill="#707070" fill-rule="evenodd" stroke="none"/>
    <path d="M-55.4 35.45 L-59.25 50.45 -93.3 41.75 -89.45 26.75 -55.4 35.45" fill="#707070" fill-rule="evenodd" stroke="none"/>
    <path d="M-177.75 -80.3 L-162.7 -84.1 -154.1 -50.05 -169.15 -46.25 -177.75 -80.3" fill="#707070" fill-rule="evenodd" stroke="none"/>
    <path d="M-158.8 81.2 L-173.75 77.0 -164.25 43.15 -149.3 47.35 -158.8 81.2" fill="#707070" fill-rule="evenodd" stroke="none"/>
    <path d="M-220.05 34.5 L-195.4 9.45 -184.35 20.35 -209.0 45.4 -220.05 34.5" fill="#707070" fill-rule="evenodd" stroke="none"/>
    <path d="M-292.85 83.85 L-281.0 73.85 -258.35 100.7 -270.2 110.7 -292.85 83.85" fill="#707070" fill-rule="evenodd" stroke="none"/>
    <path d="M-236.75 -44.1 L-244.3 -30.55 -275.0 -47.7 -267.4 -61.25 -236.75 -44.1" fill="#707070" fill-rule="evenodd" stroke="none"/>
    <path d="M-317.1 -3.95 L-347.45 13.75 -355.3 0.35 -324.95 -17.35 -317.1 -3.95" fill="#707070" fill-rule="evenodd" stroke="none"/>
    <path d="M-224.45 21.65 L-220.75 19.05 -216.25 25.5 -222.85 30.4 -225.35 26.25 -224.45 21.65" fill="#707070" fill-rule="evenodd" stroke="none"/>
    <path d="M-272.35 65.15 L-279.2 70.0 -283.85 63.3 -279.5 60.65 -275.35 62.0 -272.35 65.15" fill="#707070" fill-rule="evenodd" stroke="none"/>
    <path d="M-315.6 11.0 L-318.9 13.65 -323.35 7.2 -316.7 2.65 -314.6 5.85 -315.6 11.0" fill="#707070" fill-rule="evenodd" stroke="none"/>
    <path d="M-272.15 -16.9 L-274.15 -20.45 -272.7 -25.8 -265.15 -29.35 -267.15 -32.9 -260.45 -37.25 -256.6 -32.0 -255.35 -32.8 -248.7 -32.8 -244.3 -30.55 -243.35 -28.15 -243.0 -25.35 -237.35 -26.8 -234.0 -25.9 -232.15 -21.0 -232.9 -18.8 -235.15 -17.45 -233.7 -15.9 -233.35 -14.8 -234.6 -13.6 -236.35 -13.7 -238.35 -14.15 -238.45 -15.7 -243.25 -14.7 -247.15 -15.7 -249.25 -18.7 -249.0 -15.15 -253.0 -12.8 -257.15 -12.9 -258.6 -14.8 -258.0 -17.0 -256.6 -20.35 -254.9 -22.35 -258.9 -26.0 -259.45 -28.45 -261.0 -28.15 -260.0 -24.25 -261.0 -20.6 -266.45 -15.7 -269.35 -15.6 -272.15 -16.9" fill="#707070" fill-rule="evenodd" stroke="none"/>
    <path d="M-398.15 134.0 L-395.9 133.3 -394.7 133.75 -394.7 135.5 -394.9 137.0 -396.9 137.85 -397.9 136.85 -398.45 135.2 -398.15 134.0" fill="#707070" fill-rule="evenodd" stroke="none"/>
    <path d="M205.0 -188.5 L206.5 -184.0 202.65 -182.2 202.3 -179.2 199.3 -177.5 195.1 -174.35 191.85 -174.25 191.0 -176.0 193.2 -179.05 196.0 -179.2 195.0 -181.5 191.0 -182.5 187.5 -177.0 184.5 -176.0 180.0 -178.0 176.5 -181.5 174.3 -177.35 175.4 -176.15 177.1 -173.7 175.4 -171.0 170.0 -169.5 165.0 -171.35 162.85 -173.15 163.0 -175.0 158.5 -172.0 154.0 -171.0 148.85 -172.15 147.4 -174.8 147.55 -176.9 148.2 -180.25 150.15 -183.5 153.65 -186.35 159.0 -187.35 162.65 -187.5 165.3 -184.5 166.15 -186.85 169.3 -189.5 172.8 -190.7 175.5 -189.7 180.5 -184.2 182.65 -186.35 187.65 -187.85 191.8 -189.85 194.5 -192.85 203.0 -192.5 205.0 -191.0 205.0 -188.5" fill="#707070" fill-rule="evenodd" stroke="none"/>
    <path d="M142.3 -186.6 L146.65 -187.0 147.0 -182.7 145.5 -180.5 140.65 -179.8 139.65 -182.0 140.4 -184.8 142.3 -186.6" fill="#707070" fill-rule="evenodd" stroke="none"/>
    <path d="M481.3 -91.7 L484.65 -83.7 442.1 -62.9 449.65 -46.7 448.65 -43.7 446.4 -41.7 455.3 -23.35 447.3 -19.35 436.3 -42.7 439.65 -44.45 432.85 -57.45 430.0 -56.35 419.0 -79.35 429.65 -84.0 436.1 -69.75 481.3 -91.7" fill="#707070" fill-rule="evenodd" stroke="none"/>
    <path d="M349.75 -122.8 L351.65 -121.5 350.3 -119.55 348.4 -120.9 349.75 -122.8" fill="#707070" fill-rule="evenodd" stroke="none"/>
    <path d="M364.7 -161.05 L363.35 -159.15 361.45 -160.5 362.75 -162.4 364.7 -161.05" fill="#707070" fill-rule="evenodd" stroke="none"/>
    <path d="M-247.7 -11.85 L-246.2 -12.7 -244.2 -12.1 -243.45 -10.4 -244.75 -9.35 -246.9 -8.7 -248.75 -9.0 -249.4 -9.95 -247.7 -11.85" fill="#707070" fill-rule="evenodd" stroke="none"/>
    <path d="M-349.8 122.85 L-351.75 121.5 -350.4 119.6 -348.5 120.95 -349.8 122.85" fill="#707070" fill-rule="evenodd" stroke="none"/>
    <path d="M-356.3 117.7 L-367.2 110.2 -377.1 124.4 -366.15 131.95 -367.5 133.9 -378.4 126.3 -388.25 140.45 -368.65 155.05 -370.05 156.95 -394.0 139.2 -369.6 105.75 -355.0 115.8 -356.3 117.7" fill="#707070" fill-rule="evenodd" stroke="none"/>
    <path d="M-462.7 -19.6 L-461.75 -20.35 -459.5 -20.25 -458.85 -19.1 -458.75 -17.7 -459.2 -16.95 -460.25 -16.7 -461.1 -16.75 -462.35 -18.25 -462.75 -18.85 -462.7 -19.6" fill="#707070" fill-rule="evenodd" stroke="none"/>
    <path d="M-460.25 -11.7 L-460.5 -12.45 -459.95 -14.2 -459.1 -15.5 -458.1 -15.2 -456.95 -13.7 -456.25 -11.95 -456.25 -10.95 -456.85 -9.6 -457.35 -9.45 -460.25 -11.7" fill="#707070" fill-rule="evenodd" stroke="none"/>
    <path d="M-458.7 -36.75 L-459.2 -36.0 -459.95 -35.6 -459.6 -33.75 -459.25 -33.1 -459.2 -32.45 -459.55 -32.15 -460.05 -32.25 -460.5 -32.7 -460.85 -33.25 -461.7 -33.85 -462.5 -34.6 -462.6 -35.45 -461.75 -36.25 -460.7 -36.35 -460.7 -37.1 -459.6 -37.95 -458.5 -37.35 -458.7 -36.75" fill="#707070" fill-rule="evenodd" stroke="none"/>
    <path d="M-466.3 39.0 L-465.95 37.5 -464.9 36.05 -463.85 36.0 -462.7 37.0 -462.0 37.9 -461.7 39.65 -461.9 41.25 -462.45 43.0 -463.5 44.05 -465.2 43.8 -466.45 42.15 -466.3 39.0" fill="#707070" fill-rule="evenodd" stroke="none"/>
    <path d="M-471.65 24.3 L-470.65 22.75 -468.9 22.65 -467.9 23.2 -466.85 24.3 -466.6 23.0 -465.85 22.85 -464.9 23.0 -464.5 23.5 -464.35 24.35 -464.45 25.15 -465.1 25.65 -464.5 26.05 -464.3 26.8 -464.2 27.65 -464.75 28.6 -466.0 28.55 -466.25 29.75 -467.15 31.05 -468.2 31.4 -470.7 29.2 -471.6 26.55 -471.65 24.3" fill="#707070" fill-rule="evenodd" stroke="none"/>
    <path d="M14.75 127.95 L16.7 129.7 18.15 131.8 19.05 134.25 19.4 136.8 19.05 139.4 18.15 141.8 17.8 142.3 19.5 142.3 19.5 148.3 26.5 148.3 26.5 164.5 19.5 164.5 19.5 172.15 -12.5 172.15 -12.5 177.3 -22.0 177.3 -22.0 172.15 -34.0 172.15 -34.0 142.3 -0.5 142.3 -0.85 141.8 -1.8 139.4 -2.1 136.8 -1.8 134.25 -0.85 131.8 0.6 129.7 2.55 127.95 4.85 126.75 7.35 126.15 9.95 126.15 12.45 126.75 14.75 127.95" fill="#707070" fill-rule="evenodd" stroke="none"/>
    <path d="M-349.9 -122.5 L-348.6 -120.6 -350.5 -119.25 -351.85 -121.15 -349.9 -122.5" fill="#707070" fill-rule="evenodd" stroke="none"/>
    <path d="M-400.25 -154.0 L-398.5 -155.25 -390.85 -143.2 Q-391.5 -142.75 -392.2 -142.35 L-400.25 -154.0" fill="#707070" fill-rule="evenodd" stroke="none"/>
    <path d="M-363.15 -159.6 L-369.15 -167.8 -367.45 -169.25 -361.6 -160.9 -363.15 -159.6" fill="#707070" fill-rule="evenodd" stroke="none"/>
    <path d="M-400.85 -150.7 L-397.0 -151.0 -395.35 -148.7 -397.7 -142.85 -399.35 -141.0 -406.0 -138.35 -412.35 -138.0 -411.7 -141.0 -408.2 -147.35 -403.7 -151.2 -400.85 -150.7" fill="#707070" fill-rule="evenodd" stroke="none"/>
    <path d="M-209.15 -192.6 L-209.25 -192.0 -210.8 -191.45 -213.0 -191.8 -214.45 -192.6 -215.45 -193.35 -216.8 -193.15 -217.45 -192.9 -218.25 -192.8 -218.9 -192.8 -219.0 -192.0 -219.45 -191.25 -220.45 -191.0 -221.25 -191.15 -221.6 -191.9 -222.15 -192.7 -223.15 -192.6 -225.45 -193.15 -226.25 -191.9 -227.25 -191.15 -229.45 -192.35 -229.9 -193.6 -230.7 -192.25 -231.45 -191.7 -233.35 -191.35 -234.45 -192.7 -234.6 -193.35 -236.25 -193.15 -237.25 -193.45 -239.0 -195.15 -240.7 -195.7 -241.15 -194.6 -241.25 -193.7 -242.9 -193.15 -244.35 -193.35 -244.25 -194.45 -245.45 -195.25 -247.8 -196.35 -248.7 -197.45 -249.9 -195.7 -254.25 -194.9 -255.9 -194.9 -257.15 -195.8 -258.25 -196.15 -258.7 -194.9 -258.0 -193.25 -258.8 -192.45 -259.6 -192.25 -260.6 -192.6 -262.25 -193.45 -262.45 -192.35 -262.9 -191.7 -264.0 -191.0 -264.8 -190.7 -266.0 -190.7 -267.25 -190.35 -268.25 -190.9 -269.0 -191.8 -267.7 -193.25 -268.7 -194.25 -270.35 -192.8 -271.9 -193.45 -272.6 -194.6 -272.6 -196.15 -264.7 -197.7 -261.2 -199.35 -259.0 -201.5 -255.85 -202.0 -252.0 -200.0 -242.2 -197.0 -235.2 -195.85 -231.0 -194.2 -227.7 -195.0 -216.85 -194.7 -215.8 -194.9 -213.8 -195.0 -208.0 -193.7 -209.15 -192.6" fill="#707070" fill-rule="evenodd" stroke="none"/>
    <path d="M-181.25 -178.6 L-182.35 -176.15 -184.9 -175.45 -188.35 -175.7 -191.35 -177.7 -194.15 -180.15 -195.0 -181.45 -194.7 -184.45 -197.9 -181.7 -201.0 -181.35 -206.6 -182.15 -209.9 -184.8 -209.25 -188.15 -204.45 -193.15 -198.0 -193.7 -191.15 -192.45 -190.6 -189.0 -191.15 -187.15 -192.7 -185.7 -189.45 -186.15 -186.7 -186.0 -184.6 -184.8 -181.25 -178.6" fill="#707070" fill-rule="evenodd" stroke="none"/>
    <path d="M-127.2 -186.7 L-116.35 -186.7 -115.7 -184.45 -116.45 -183.45 -118.0 -183.0 -119.45 -183.35 -121.45 -180.9 -125.25 -181.35 -126.35 -180.7 -127.25 -181.7 -127.45 -180.6 -126.25 -179.15 -124.6 -177.9 -123.8 -177.15 -123.9 -170.35 -125.25 -168.7 -129.35 -169.7 -131.7 -172.0 -133.9 -177.25 -134.35 -179.9 -131.9 -181.35 -136.8 -181.0 -140.35 -181.6 -142.15 -182.15 -142.15 -183.45 -145.0 -182.7 -143.25 -181.8 -142.35 -180.0 -142.15 -178.35 -144.9 -177.25 -147.0 -176.9 -149.35 -175.9 -152.35 -175.9 -153.9 -177.25 -153.15 -178.8 -150.35 -180.8 -148.45 -180.0 -147.6 -182.25 -151.15 -183.35 -152.8 -184.8 -153.8 -185.9 -153.0 -182.45 -157.25 -180.35 -161.35 -180.0 -163.9 -182.6 -164.9 -183.9 -168.15 -184.6 -170.15 -184.0 -171.0 -182.9 -172.8 -183.25 -175.35 -183.0 -176.9 -184.0 -177.8 -185.25 -177.9 -186.35 -180.8 -187.0 -181.9 -187.7 -182.0 -188.9 -181.7 -189.9 -180.8 -191.6 -177.35 -191.85 -174.2 -192.5 -166.35 -190.0 -158.35 -188.85 -154.5 -189.5 -149.0 -188.35 -141.5 -188.5 -127.2 -186.7 M-101.9 -182.15 L-102.2 -178.5 -104.7 -176.2 -108.8 -177.15 -113.6 -180.35 -114.35 -183.35 -115.6 -185.8 -116.35 -186.7 -111.7 -186.7 -101.9 -182.15" fill="#707070" fill-rule="evenodd" stroke="none"/>
    <path d="M405.0 -137.7 L399.0 -138.6 395.9 -140.8 369.85 -105.9 365.85 -108.8 376.95 -124.45 366.15 -132.0 367.5 -133.9 378.3 -126.35 388.55 -140.9 368.55 -154.8 369.9 -156.75 389.9 -142.8 397.35 -153.3 405.5 -146.0 410.3 -139.35 415.25 -135.8 420.5 -130.35 422.9 -129.75 430.65 -124.6 432.65 -120.85 431.5 -118.45 426.75 -117.25 423.4 -118.35 422.3 -116.35 420.3 -114.35 417.85 -115.25 417.85 -113.45 416.3 -111.25 413.8 -112.2 411.4 -114.8 408.55 -114.6 407.2 -115.45 406.3 -117.25 404.1 -117.9 401.85 -119.7 401.4 -122.8 403.85 -122.6 405.65 -122.15 407.2 -119.7 410.1 -120.8 409.85 -122.35 408.75 -124.35 409.4 -127.45 407.5 -125.35 402.0 -127.2 399.65 -129.7 400.1 -133.7 402.8 -135.5 406.55 -135.45 408.8 -136.0 409.4 -139.25 408.1 -139.0 405.0 -137.7" fill="#707070" fill-rule="evenodd" stroke="none"/>
    <path d="M-114.0 171.0 L-115.7 170.65 -118.7 170.45 -118.6 170.85 -118.8 173.65 -120.35 174.85 -122.0 175.1 -121.7 175.3 -121.35 178.0 -124.0 180.3 -119.35 182.3 -116.7 186.0 -109.7 177.3 -112.35 176.0 -114.0 171.0 M-157.9 173.65 L-155.7 171.85 -153.0 172.3 -152.35 174.65 -154.25 178.0 -157.35 178.3 -155.7 180.0 -152.8 180.2 -151.0 182.3 -151.35 179.65 -149.0 176.0 -144.0 173.0 -141.7 175.65 -142.35 182.3 -141.7 184.0 -136.0 186.3 -138.35 181.0 -137.2 176.3 -134.0 172.5 -129.85 171.5 -127.7 172.15 -128.0 174.3 -125.0 173.3 -123.8 174.05 -124.0 172.65 -123.35 171.4 -121.1 170.3 -121.35 170.3 -124.7 167.65 -126.35 165.0 -126.0 162.15 -120.7 160.65 -118.0 161.0 -113.2 162.15 -111.7 164.8 -106.85 161.5 -102.2 160.65 -98.7 160.65 -96.7 162.3 -96.7 165.3 -98.35 168.65 -97.7 171.65 -101.0 175.0 -93.0 179.0 -93.0 181.3 -94.85 183.65 -99.35 188.15 -105.7 190.65 -109.85 191.0 -112.0 187.65 -117.5 186.65 -125.35 187.3 -127.0 188.8 -130.35 189.15 -134.35 188.0 -139.2 188.8 -144.0 191.0 -147.85 190.5 -153.85 190.65 -155.7 192.65 -157.2 193.3 -159.7 192.5 -160.5 191.3 -162.0 191.65 -164.0 191.0 -165.15 189.85 -165.25 187.65 -164.0 185.75 -166.45 184.65 -166.9 183.2 -164.35 181.4 -162.35 180.75 -163.35 179.75 -163.45 178.2 -162.15 176.75 -159.45 175.65 -157.9 173.65" fill="#707070" fill-rule="evenodd" stroke="none"/>
    <path d="M434.75 81.2 L432.55 80.55 430.75 81.4 425.2 95.65 423.85 97.0 421.85 98.3 419.65 98.3 415.0 111.1 417.2 112.55 418.3 116.55 418.65 119.3 418.55 122.3 418.0 123.55 418.3 125.0 420.0 124.3 420.4 121.85 421.3 119.65 422.1 118.3 420.1 118.3 419.65 116.75 423.4 113.2 426.55 112.55 428.1 113.2 428.1 114.95 429.1 114.65 429.3 117.4 422.55 126.65 420.85 132.4 412.0 144.85 410.55 144.1 403.3 153.55 399.4 155.55 389.4 142.3 369.8 157.05 368.4 155.15 388.05 140.4 378.0 126.25 367.95 133.8 366.55 131.95 376.65 124.35 365.4 108.55 369.4 105.2 396.05 142.15 402.1 139.85 406.55 139.4 409.75 140.1 411.75 134.55 412.4 131.0 407.85 130.55 406.3 129.75 404.55 125.65 402.1 127.2 401.4 128.75 401.85 130.3 400.3 131.85 401.65 134.1 402.1 137.4 399.85 138.75 395.65 138.75 394.55 137.4 395.85 135.2 397.65 133.0 397.2 131.65 398.3 129.4 395.2 128.1 391.85 128.1 390.75 125.65 392.3 123.0 395.2 120.1 398.1 119.4 402.3 119.0 404.55 121.0 406.3 115.65 406.85 115.2 404.1 114.55 412.75 90.1 416.75 91.85 422.1 77.65 418.3 76.3 427.0 53.0 438.75 57.4 433.0 71.4 479.0 89.5 476.0 97.3 434.75 81.2" fill="#707070" fill-rule="evenodd" stroke="none"/>
    <path d="M-425.5 -113.2 L-421.2 -115.35 -420.45 -114.0 -418.7 -113.0 -421.0 -109.7 -424.25 -108.8 -426.0 -110.0 -425.5 -113.2" fill="#707070" fill-rule="evenodd" stroke="none"/>
    <path d="M-422.7 121.3 L-420.7 122.15 -419.9 119.55 -417.5 119.0 -415.25 120.2 -413.7 121.75 -413.0 124.55 -414.0 125.3 -415.35 125.15 -415.35 126.5 -414.7 127.8 -412.7 128.15 -411.35 129.0 -409.35 130.65 -408.7 131.8 -408.5 133.5 -409.0 134.65 -410.7 135.3 -414.7 132.15 -411.7 136.3 -410.7 136.5 -409.0 135.65 -407.85 136.15 -405.2 134.0 -403.0 133.15 -401.0 133.5 -399.5 134.3 -399.2 135.5 -400.35 140.0 -398.6 139.1 -396.35 139.3 -394.7 140.55 -395.35 144.0 -397.15 146.85 -399.85 149.15 -401.5 148.5 -411.2 138.8 -427.7 123.3 -428.7 121.0 -429.0 118.5 -429.0 117.15 -427.5 115.3 -426.0 115.5 -424.2 116.15 -423.5 117.8 -423.2 120.0 -422.7 121.3" fill="#707070" fill-rule="evenodd" stroke="none"/>
    <path d="M-432.85 -111.35 L-431.35 -112.5 -430.0 -112.0 -429.0 -110.2 -430.85 -109.0 -432.35 -109.0 -432.85 -111.35" fill="#707070" fill-rule="evenodd" stroke="none"/>
    <path d="M398.15 -150.1 L394.5 -140.1 392.5 -142.1 395.0 -148.0 398.15 -150.1" fill="#707070" fill-rule="evenodd" stroke="none"/>
    <path d="M250.75 187.4 L250.65 185.85 251.65 185.2 253.85 185.65 255.0 187.2 258.75 187.4 260.55 186.1 262.75 186.1 262.1 187.65 260.55 188.3 259.0 192.55 257.85 192.85 256.3 192.55 252.75 189.0 250.75 187.4" fill="#707070" fill-rule="evenodd" stroke="none"/>
    <path d="M238.3 186.3 L241.2 184.75 244.75 184.75 248.1 187.2 248.3 192.75 246.5 197.5 235.5 195.15 236.1 191.65 238.3 186.3" fill="#707070" fill-rule="evenodd" stroke="none"/>
    <path d="M230.75 186.1 L231.4 189.0 230.2 194.65 222.65 194.3 217.1 193.2 215.55 192.1 215.55 190.55 217.65 189.55 215.5 188.65 215.5 187.8 217.75 185.9 219.15 185.15 221.05 185.25 220.55 189.2 222.3 191.0 223.2 190.1 227.0 187.0 228.75 186.1 230.75 186.1" fill="#707070" fill-rule="evenodd" stroke="none"/>
    <path d="M257.2 176.3 L259.65 175.2 266.1 175.4 268.75 177.0 270.75 180.3 273.8 177.3 277.15 175.5 283.65 176.3 285.2 177.85 285.4 181.0 284.3 183.0 282.55 183.0 281.65 186.3 279.2 190.75 276.5 190.65 271.4 193.0 269.85 191.0 268.55 188.55 267.85 185.85 269.0 182.55 268.1 183.4 264.3 184.1 260.55 183.2 257.0 179.2 257.2 176.3" fill="#707070" fill-rule="evenodd" stroke="none"/>
    <path d="M107.15 172.8 L107.3 173.8 107.3 175.65 109.25 174.4 110.9 173.9 112.25 174.0 113.15 174.4 113.85 175.2 113.85 169.65 113.3 169.9 112.25 170.0 110.65 169.65 110.75 170.4 110.5 171.5 109.9 173.25 106.9 172.0 107.15 172.8 M361.3 175.1 L365.85 172.4 377.5 163.3 381.85 161.85 385.05 161.45 388.85 162.2 391.75 164.15 395.05 168.7 392.9 170.25 389.85 166.1 387.8 164.75 384.9 164.15 382.45 164.45 378.75 165.65 367.4 174.55 362.45 177.5 340.2 185.4 333.4 187.15 319.85 192.8 316.15 195.1 313.05 195.65 309.9 195.8 303.6 194.65 299.9 195.15 293.55 194.3 281.9 194.3 263.95 200.05 255.95 201.45 252.45 201.2 248.15 199.6 232.8 196.5 199.3 193.2 184.5 192.7 184.3 192.8 168.15 192.0 166.5 190.65 165.8 188.65 165.8 185.8 114.15 186.0 114.65 176.5 113.3 177.65 112.5 182.0 110.3 185.15 108.0 186.15 105.5 183.65 105.15 179.5 104.15 179.75 102.55 179.3 101.05 177.75 99.5 179.9 98.05 181.3 94.75 181.4 94.05 180.15 94.3 178.65 95.15 176.9 96.5 175.3 100.15 175.4 100.3 173.55 100.9 171.9 102.25 169.55 103.0 169.15 103.75 169.15 104.4 169.5 105.05 170.15 106.5 170.65 106.8 169.75 107.3 169.25 108.8 168.4 109.65 168.25 110.15 168.4 110.8 168.4 111.25 167.9 111.9 167.4 113.15 167.25 113.85 167.45 113.85 155.85 146.7 155.85 146.55 155.65 145.7 153.4 145.35 151.0 145.55 148.6 146.3 146.35 147.55 144.25 149.2 142.5 151.2 141.2 153.45 140.35 155.85 140.0 158.2 140.25 160.5 140.95 162.55 142.2 164.3 143.85 165.65 145.85 166.5 148.1 166.8 150.5 166.6 152.9 165.85 155.2 165.45 155.85 167.85 155.85 167.85 161.85 174.55 161.85 174.55 177.85 168.3 177.85 168.3 186.1 169.2 188.55 174.1 189.65 179.45 190.05 179.45 189.85 199.6 190.55 233.25 193.9 249.0 197.05 253.05 198.55 255.8 198.75 263.3 197.45 281.4 191.65 286.3 191.4 293.8 191.65 299.9 192.45 303.65 191.95 310.05 193.15 315.2 192.6 318.6 190.45 332.65 184.55 339.45 182.8 361.3 175.1" fill="#707070" fill-rule="evenodd" stroke="none"/>
    <path d="M319.65 -190.7 L323.0 -189.25 325.0 -188.8 325.4 -186.8 323.0 -186.15 321.65 -185.45 319.4 -185.9 318.55 -187.0 317.65 -187.7 316.75 -186.35 314.3 -187.0 312.55 -187.7 310.55 -187.7 307.4 -189.25 307.6 -191.1 308.2 -193.0 308.85 -193.5 310.3 -193.85 313.4 -193.9 317.2 -193.0 319.65 -190.7" fill="#707070" fill-rule="evenodd" stroke="none"/>
    <path d="M271.1 -196.8 L272.85 -196.6 274.0 -196.25 274.3 -195.45 273.55 -194.35 272.1 -194.0 270.1 -194.7 269.85 -195.45 270.2 -196.6 271.1 -196.8" fill="#707070" fill-rule="evenodd" stroke="none"/>
    <path d="M265.3 -198.45 L265.55 -196.8 265.2 -196.0 264.55 -195.0 262.3 -194.6 261.75 -195.8 261.85 -196.6 261.75 -197.45 262.0 -198.25 263.2 -198.9 265.3 -198.45" fill="#707070" fill-rule="evenodd" stroke="none"/>
    <path d="M200.4 -224.85 L150.95 -202.45 144.15 -198.75 123.1 -185.5 119.85 -181.75 113.95 -169.1 107.95 -154.1 98.9 -140.1 81.9 -126.1 65.9 -106.1 57.9 -98.1 54.5 -91.5 45.5 -63.5 38.5 -35.0 35.9 -11.1 38.65 27.65 42.6 56.6 48.3 80.65 54.9 97.9 64.3 117.65 76.9 137.95 91.3 154.0 111.95 172.95 161.95 205.95 207.95 233.25 99.65 231.65 -140.25 232.45 -238.1 233.25 -218.1 222.95 -149.1 199.95 -120.1 177.95 -107.1 156.95 -65.1 112.95 -49.8 84.1 -47.6 78.25 -38.1 25.9 -33.45 -28.65 -34.0 -35.9 -36.35 -47.7 -49.15 -82.55 -53.4 -90.35 -74.1 -123.1 -104.0 -161.45 -111.35 -169.0 -201.5 -228.0 -216.6 -238.7 -217.65 -239.9 -198.35 -232.0 212.75 -231.9 200.4 -224.85" fill="#ffffff" fill-opacity="0.14901961" fill-rule="evenodd" stroke="none"/>
    <path d="M-8.15 -245.7 L-8.0 -248.3 -9.2 -247.1 -8.15 -245.7 M-39.7 -257.9 L-33.25 -257.9 -33.25 -255.05 -32.05 -255.35 -25.75 -255.35 -19.6 -253.85 -19.45 -253.8 -18.45 -255.25 -15.9 -255.9 -14.15 -254.8 -12.15 -254.6 -11.5 -253.1 -12.35 -250.15 -10.45 -248.65 -3.55 -255.55 -2.15 -254.15 -6.25 -250.05 -3.0 -250.3 -2.45 -250.85 -2.25 -251.7 -3.0 -253.2 -1.85 -254.2 -0.85 -254.45 -1.0 -255.9 1.4 -257.45 3.85 -258.35 4.75 -257.6 3.85 -255.9 4.75 -254.8 6.3 -256.15 8.0 -257.0 10.3 -256.6 10.75 -254.8 10.1 -252.9 12.0 -253.8 12.2 -255.0 14.4 -257.25 16.85 -256.35 18.2 -254.7 20.65 -254.6 23.4 -252.8 23.0 -251.0 25.4 -252.9 27.85 -253.25 30.55 -250.9 33.55 -252.9 35.2 -252.6 36.1 -249.8 37.65 -249.25 38.4 -248.15 37.85 -244.6 38.25 -244.15 67.4 -244.15 67.4 -236.15 72.3 -236.15 72.3 -221.25 67.4 -221.25 67.4 -213.9 35.4 -213.9 32.95 -208.35 43.0 -208.35 43.0 -179.45 12.1 -179.45 13.4 -175.0 20.1 -174.15 22.3 -171.7 22.55 -168.8 22.3 -166.35 21.65 -164.6 23.2 -162.35 20.3 -161.25 18.55 -161.7 16.3 -160.8 17.4 -158.15 14.3 -158.15 9.0 -156.15 5.4 -156.15 5.2 -157.7 7.2 -160.15 9.85 -161.45 11.4 -163.25 9.0 -163.9 6.55 -165.25 2.1 -161.9 0.75 -161.25 -2.35 -162.6 -4.8 -162.8 -5.55 -164.4 -7.0 -163.65 -9.5 -163.0 -12.1 -163.0 -14.6 -163.65 -16.9 -164.85 -18.85 -166.55 -20.35 -168.7 -21.25 -171.1 -21.55 -173.7 -21.25 -176.25 -20.35 -178.7 -19.8 -179.45 -22.35 -179.45 -22.35 -185.45 -28.8 -185.45 -28.8 -200.35 -22.35 -200.35 -22.35 -204.85 -25.75 -204.05 -32.05 -204.05 -38.2 -205.5 -43.8 -208.4 -45.95 -210.35 -53.3 -203.0 -54.75 -204.4 -47.5 -211.65 -48.5 -212.55 -49.75 -214.35 -56.35 -214.35 -56.35 -244.35 -50.25 -244.35 -48.5 -246.85 -48.1 -247.2 -55.25 -254.3 -53.8 -255.75 -46.6 -248.5 -43.8 -250.95 -39.7 -253.1 -39.7 -257.9" fill="#434343" fill-rule="evenodd" stroke="none"/>
    <path d="M431.0 -205.35 L424.5 -195.25 Q437.6 -188.1 450.65 -181.0 L439.3 -163.35 410.8 -180.2 409.0 -177.0 408.5 -175.7 409.0 -174.15 422.3 -165.25 423.0 -162.35 422.75 -160.35 439.65 -148.35 434.3 -140.35 413.65 -154.35 416.55 -158.35 403.15 -166.45 401.65 -163.7 380.55 -176.8 387.2 -186.8 401.0 -178.55 404.3 -184.05 377.3 -200.0 386.3 -216.0 412.9 -201.55 420.65 -212.0 431.0 -205.35" fill="#434343" fill-rule="evenodd" stroke="none"/>
    <path d="M371.0 187.0 L366.65 179.0 424.0 149.0 428.65 157.3 415.55 164.85 418.65 170.55 444.65 153.0 455.3 169.65 430.95 185.6 437.3 198.3 426.0 204.0 418.9 193.5 394.3 209.65 385.0 193.3 411.45 175.4 409.3 171.65 393.65 179.3 390.3 179.0 389.4 177.9 371.0 187.0" fill="#434343" fill-rule="evenodd" stroke="none"/>
    <path d="M97.3 -291.0 L97.3 -288.35 81.65 -288.35 81.65 -301.7 97.3 -301.7 97.3 -299.0 184.3 -299.0 184.3 -291.0 97.3 -291.0" fill="#434343" fill-rule="evenodd" stroke="none"/>
    <path d="M372.5 -263.0 L368.5 -258.5 354.5 -266.0 356.15 -274.1 341.65 -275.25 340.65 -267.7 342.65 -267.0 342.0 -252.0 329.65 -253.7 330.65 -268.35 333.65 -268.0 334.0 -270.0 333.75 -273.15 332.55 -274.0 318.85 -275.15 316.4 -275.9 313.55 -277.8 312.75 -280.8 292.4 -282.35 292.35 -287.95 278.0 -288.35 278.3 -301.7 321.45 -300.35 350.5 -296.95 379.5 -289.75 406.25 -282.0 427.95 -272.7 428.25 -272.5 461.9 -253.65 485.85 -236.55 507.65 -216.8 528.1 -194.95 546.85 -169.75 547.0 -169.45 561.8 -144.9 574.75 -119.4 574.85 -119.05 585.6 -91.0 591.9 -62.15 597.3 -30.45 599.0 -1.1 597.95 28.15 594.2 59.25 586.0 90.4 575.15 117.85 562.25 145.05 545.95 170.0 527.4 193.1 507.35 215.15 485.7 236.85 460.55 253.3 435.55 269.0 408.2 281.1 379.9 290.25 350.85 296.4 321.35 299.5 275.45 299.15 275.55 285.8 306.6 286.05 308.75 271.0 323.0 273.4 323.4 265.85 338.1 263.0 340.3 269.4 340.1 263.65 355.4 260.55 358.1 269.2 358.55 260.55 374.75 261.2 376.5 277.35 379.4 276.4 377.0 269.15 391.3 263.15 388.8 255.3 386.55 256.3 380.65 242.65 392.2 237.65 398.1 251.3 395.6 252.4 395.8 252.8 397.8 258.0 399.5 258.5 414.0 252.3 416.3 251.8 418.65 253.15 419.65 254.8 438.3 246.65 439.3 245.0 442.65 244.5 442.0 238.3 443.0 237.0 444.3 235.8 445.8 235.8 446.8 236.15 447.65 238.3 446.0 240.65 448.15 241.3 449.65 242.65 449.65 244.4 477.25 226.45 497.7 205.95 502.4 200.75 497.2 195.0 493.4 188.3 505.0 179.2 504.3 177.65 500.3 173.2 510.75 161.0 513.0 162.3 511.85 159.4 523.0 149.65 522.75 148.75 530.75 134.3 535.65 137.65 546.85 144.25 548.2 142.15 538.1 138.1 543.4 122.55 522.55 115.0 525.4 107.2 544.65 113.9 551.2 98.75 553.85 96.75 556.75 96.3 557.15 96.45 564.75 77.65 572.1 80.55 563.85 104.1 560.3 102.7 554.95 117.9 559.2 119.65 558.4 122.05 563.05 112.35 573.3 86.25 581.1 56.7 584.65 27.1 585.65 -0.95 584.0 -28.95 583.1 -34.25 568.3 -35.7 568.65 -47.35 567.65 -50.7 562.3 -51.35 557.65 -65.7 559.0 -68.0 554.0 -81.0 559.65 -84.7 552.65 -85.0 551.0 -100.35 556.15 -101.7 550.1 -115.7 529.65 -105.7 527.3 -112.0 541.65 -119.45 544.3 -121.25 544.1 -124.6 538.3 -136.35 537.85 -139.0 538.3 -141.0 540.1 -143.0 531.4 -162.15 534.6 -163.9 517.85 -186.4 498.3 -207.25 477.45 -226.15 454.75 -242.4 427.45 -257.65 419.5 -245.5 407.0 -253.0 404.0 -248.0 389.5 -253.0 390.0 -258.0 387.0 -253.5 373.0 -257.0 372.5 -263.0" fill="#434343" fill-rule="evenodd" stroke="none"/>
    <path d="M-277.2 -301.0 L-276.85 -287.7 -324.2 -286.35 -327.7 -285.95 -327.35 -278.7 -327.7 -271.2 -342.5 -272.2 -342.0 -266.35 -357.85 -262.7 -360.5 -268.0 -359.35 -262.85 -374.85 -258.35 -377.35 -265.7 -377.7 -257.2 -393.85 -257.2 -394.35 -259.35 -407.35 -253.35 -413.7 -265.2 -435.1 -254.55 -456.55 -241.35 -480.15 -223.85 -484.0 -220.35 -483.6 -220.0 -483.45 -219.35 -482.45 -219.85 -481.7 -219.25 -481.6 -218.0 -481.7 -217.45 -481.75 -216.45 -480.75 -215.7 -481.0 -214.35 -481.6 -213.2 -481.5 -212.45 -481.5 -211.85 -481.85 -210.75 -482.45 -210.5 -483.35 -210.75 -483.75 -211.95 -483.75 -213.25 -484.2 -214.1 -485.6 -213.1 -486.45 -212.7 -485.85 -211.85 -485.6 -210.35 -485.6 -208.85 -485.85 -207.5 -486.45 -207.2 -487.85 -207.2 -489.6 -208.7 -490.25 -210.2 -490.7 -210.7 -491.25 -210.5 -492.75 -210.1 -494.3 -210.35 -494.95 -208.75 -492.45 -209.35 -490.7 -208.25 -489.85 -207.1 -489.2 -204.7 -490.1 -202.45 -491.0 -202.0 -492.0 -201.7 -492.75 -201.95 -492.85 -200.2 -493.95 -197.85 -495.2 -196.6 -495.7 -197.1 -495.85 -199.1 -496.45 -200.6 -495.85 -201.0 -496.25 -203.2 -497.25 -204.6 -497.0 -205.35 -496.75 -205.75 -497.85 -206.7 -498.8 -207.1 -501.1 -205.05 -504.55 -201.25 -504.45 -201.1 -503.55 -200.5 -503.0 -199.95 -502.8 -199.5 -502.0 -199.2 -501.05 -199.25 -499.95 -199.65 -498.85 -199.5 -497.95 -199.2 -497.95 -198.4 -499.2 -197.85 -501.6 -198.0 -501.85 -197.0 -502.95 -194.75 -503.7 -194.0 -509.45 -193.15 -509.6 -193.3 -510.0 -189.0 -508.75 -188.75 -507.85 -188.35 -506.7 -187.25 -506.2 -186.1 -505.2 -186.75 -503.7 -188.0 -502.45 -188.35 -499.35 -188.1 -499.1 -186.95 -499.95 -184.75 -501.2 -183.7 -503.25 -182.95 -504.7 -183.35 -506.2 -184.25 -507.2 -181.35 -508.1 -179.95 -509.6 -178.45 -510.75 -178.5 -511.95 -179.85 -512.95 -181.95 -513.1 -183.75 -512.45 -186.25 -514.75 -184.7 -516.75 -184.95 -517.95 -185.95 -518.1 -186.3 -538.45 -161.4 -542.1 -155.85 -534.35 -150.7 -541.0 -136.35 -525.35 -128.85 -528.35 -121.35 -541.7 -127.85 -542.85 -127.35 -544.0 -126.35 -549.35 -114.35 -550.5 -112.7 -553.7 -111.0 -556.85 -110.5 -565.5 -92.85 -572.45 -96.0 -576.6 -85.45 -584.35 -55.95 -584.7 -53.1 -567.7 -48.6 -573.0 -34.15 -566.8 -33.9 -566.8 -18.15 -573.0 -17.25 -567.0 -16.35 -566.35 -0.35 -573.9 1.0 -566.35 2.75 -569.25 18.75 -572.8 18.3 -568.8 32.75 -585.1 37.05 -580.85 62.25 -573.65 89.3 -567.0 107.55 -556.8 102.4 -549.45 117.0 -533.7 109.0 -530.45 115.55 -542.95 122.3 -543.7 123.0 -543.85 123.75 -543.7 124.25 -537.2 137.4 -536.5 139.4 -536.45 141.05 -537.35 142.55 -538.95 144.4 -529.25 162.2 -535.25 165.95 -519.85 186.15 -506.35 177.4 -498.15 189.2 -494.35 185.4 -482.15 195.0 -484.8 201.2 -480.15 196.55 -468.15 207.2 -470.8 212.55 -465.7 209.0 -455.25 221.0 -458.6 223.0 -444.15 229.2 -451.3 245.3 -424.8 259.6 -402.8 268.9 -378.2 276.1 -360.05 280.35 -359.0 274.1 -342.6 275.65 -341.75 267.4 -344.8 267.15 -343.65 252.65 -330.6 253.65 -331.7 268.15 -334.95 267.9 -335.25 272.3 -335.0 273.65 -334.35 274.3 -318.35 275.65 -316.35 276.3 -314.15 280.75 -293.7 282.3 -294.1 287.05 -279.3 287.4 -279.65 300.75 -324.7 299.65 -353.8 295.55 -381.8 288.95 -407.25 281.5 -430.6 271.65 -463.9 253.65 -487.9 236.2 -509.0 217.4 -529.1 195.95 -547.85 171.4 -563.15 146.6 -575.8 122.35 -586.4 93.3 -593.9 65.05 -599.3 33.15 -600.8 3.85 -600.35 -27.0 -595.0 -57.35 -588.0 -86.7 -578.5 -117.05 -565.7 -140.7 -549.2 -169.25 -530.55 -192.45 -510.55 -214.5 -488.6 -234.2 -464.0 -252.4 -441.6 -266.2 -412.2 -280.9 -383.1 -290.15 -354.8 -296.3 -325.15 -299.7 -277.2 -301.0" fill="#434343" fill-rule="evenodd" stroke="none"/>
    <path d="M-188.8 289.0 L-188.8 299.0 -192.35 299.0 -192.35 289.0 -188.8 289.0" fill="#434343" fill-rule="evenodd" stroke="none"/>
    <path d="M-127.0 289.0 L-127.0 287.2 -112.35 287.2 -112.35 299.65 -127.0 299.65 -127.0 297.4 -186.15 297.4 -186.15 289.0 -127.0 289.0" fill="#434343" fill-rule="evenodd" stroke="none"/>
    <path d="M183.25 297.15 L183.25 287.15 186.8 287.15 186.8 297.15 183.25 297.15" fill="#434343" fill-rule="evenodd" stroke="none"/>
    <path d="M136.0 258.0 L136.0 271.15 133.5 271.15 133.5 274.0 149.5 274.8 152.3 275.85 153.85 276.85 154.9 278.65 175.65 278.65 175.65 286.5 158.8 286.5 158.8 289.0 180.3 289.0 180.3 296.1 158.8 296.1 158.8 298.65 108.5 298.65 108.5 296.1 94.3 296.1 94.3 299.0 79.4 299.0 79.4 291.2 79.3 291.5 78.0 292.9 76.8 293.5 76.8 295.15 74.25 296.65 72.25 297.3 71.0 296.25 70.15 296.65 68.65 297.55 66.55 297.15 64.3 295.65 64.15 294.5 62.3 294.25 61.8 294.75 61.4 295.55 60.9 296.25 58.5 296.5 57.05 296.3 54.5 297.9 50.05 297.75 48.25 296.9 46.9 296.0 45.55 297.15 43.15 297.4 42.4 296.4 41.05 295.65 38.9 295.65 38.0 295.3 35.8 296.5 33.5 296.4 33.15 295.3 31.9 296.15 30.3 296.3 29.55 295.9 28.3 296.25 26.75 296.0 26.0 296.4 25.15 296.55 24.65 297.8 21.5 297.9 19.4 297.4 18.9 296.0 17.9 296.75 16.55 296.8 15.55 296.5 13.75 295.0 14.25 293.9 15.3 293.25 14.75 292.55 14.55 291.15 15.5 291.0 16.5 291.4 17.8 289.9 19.0 289.55 19.9 289.8 20.25 290.75 20.8 290.75 21.3 291.3 22.15 291.75 22.9 291.3 22.9 290.4 23.25 289.75 23.9 290.3 24.5 291.15 25.0 291.0 25.3 290.5 25.4 289.55 26.4 289.65 28.0 291.25 28.9 290.4 31.0 290.3 30.75 289.75 31.0 289.15 31.8 289.05 32.0 289.65 32.05 290.55 32.25 291.05 33.15 291.5 34.25 290.75 34.9 290.9 36.0 291.8 37.15 293.55 38.3 293.15 39.15 293.5 39.25 291.9 39.65 291.4 40.55 290.8 42.0 291.05 42.4 292.65 43.0 292.4 43.55 292.4 44.55 292.8 46.5 293.9 47.0 294.65 48.25 293.5 49.55 293.15 51.05 292.15 52.4 292.05 54.65 292.15 56.65 292.8 56.05 291.65 56.15 290.65 56.4 289.55 57.3 288.55 60.4 290.4 60.55 289.8 60.5 288.9 60.3 288.15 60.4 287.55 61.8 287.05 62.5 287.55 61.75 288.8 62.25 288.5 63.3 288.3 64.25 287.9 65.8 287.75 66.9 287.9 67.15 288.8 66.55 290.3 67.4 290.8 68.25 290.4 69.0 290.15 71.3 290.15 71.75 289.3 72.55 289.05 73.75 289.15 74.75 289.4 75.75 289.05 77.0 288.25 77.9 288.25 78.4 288.65 78.55 289.5 79.25 289.8 79.4 290.05 79.4 286.3 94.3 286.3 94.3 289.0 108.5 289.0 108.5 286.0 110.0 286.0 110.0 276.65 125.3 276.65 125.3 271.15 122.8 271.15 122.8 258.0 136.0 258.0" fill="#434343" fill-rule="evenodd" stroke="none"/>
    <path d="M-185.0 -298.8 L-185.0 -289.45 -188.35 -289.45 -188.35 -298.8 -185.0 -298.8" fill="#434343" fill-rule="evenodd" stroke="none"/>
    <path d="M-123.0 -298.15 L-123.0 -299.9 -108.8 -299.9 -108.8 -287.45 -123.0 -287.45 -123.0 -290.15 -131.9 -290.15 -131.9 -286.15 -128.35 -286.15 -128.35 -271.9 -142.6 -271.9 -142.6 -286.15 -139.45 -286.15 -139.45 -290.15 -181.7 -290.15 -181.7 -298.15 -123.0 -298.15" fill="#434343" fill-rule="evenodd" stroke="none"/>
    <path d="M-450.15 174.55 L-440.35 159.65 -411.95 176.65 -410.2 174.25 -409.7 173.25 -409.5 172.15 -410.1 170.8 -421.9 162.75 -423.45 161.2 -423.9 158.3 -423.7 155.85 -440.15 143.85 -435.25 137.0 Q-408.45 155.9 -381.7 174.75 L-389.0 184.75 -401.7 175.0 -405.25 181.0 -378.35 197.4 -388.15 214.1 -414.35 198.3 -422.15 209.2 -433.0 201.65 -425.25 191.65 -450.15 174.55" fill="#434343" fill-rule="evenodd" stroke="none"/>
    <path d="M-56.6 225.85 L-50.35 225.85 -50.35 217.65 -20.8 217.65 -20.8 209.65 15.65 209.65 15.65 217.65 44.75 217.65 44.75 248.05 35.35 248.05 33.4 249.25 31.3 248.3 31.6 250.45 29.55 251.3 26.0 251.4 25.3 250.55 25.8 249.55 23.9 249.5 23.75 248.9 22.9 250.0 21.8 250.55 19.25 250.8 19.0 252.75 16.65 253.9 15.2 253.85 14.75 252.65 15.8 249.3 15.65 248.4 13.25 250.5 13.55 252.15 12.5 252.8 10.9 252.3 10.7 251.3 9.8 250.8 7.4 250.1 6.15 248.05 2.95 248.05 2.65 252.25 3.5 252.8 3.85 253.65 3.5 254.5 1.75 255.25 2.2 256.35 0.6 257.8 -0.2 258.3 -1.1 259.3 -2.45 259.55 -3.4 258.85 -2.75 257.45 -1.8 256.05 -3.15 255.85 -4.3 256.25 -4.95 257.8 -6.2 258.8 -7.75 259.35 -8.8 258.75 -9.45 256.75 -8.6 254.2 -10.5 253.2 -11.25 253.5 -10.35 255.65 -11.25 258.55 -13.45 261.65 -15.5 262.65 -18.8 262.15 -19.45 261.4 -21.2 263.95 -24.05 264.05 -25.5 263.2 -27.0 261.4 -26.9 259.75 -25.95 258.5 -25.7 257.5 -28.75 257.4 -29.3 258.75 -28.05 260.35 -28.0 261.75 -28.8 262.55 -30.8 263.2 -32.15 261.7 -33.8 262.7 -34.75 263.15 -36.8 263.65 -38.9 263.75 -39.95 263.65 -41.95 263.15 -43.85 262.2 -45.5 260.95 -46.85 259.35 -47.9 257.5 -48.5 255.5 -48.7 253.4 -48.5 251.35 -47.9 249.35 -47.2 248.05 -50.35 248.05 -50.35 242.1 -56.6 242.1 -56.6 225.85" fill="#434343" fill-rule="evenodd" stroke="none"/>
    <path d="M-516.6 -183.0 L-515.6 -183.2 -514.1 -181.85 -514.0 -180.75 -515.0 -179.25 -515.85 -178.85 -516.85 -179.1 -517.35 -180.35 -517.2 -181.75 -516.6 -183.0" fill="#434343" fill-rule="evenodd" stroke="none"/>
    <path d="M-520.7 -126.7 L-524.15 -119.15 -525.6 -119.7 -522.0 -127.6 -520.7 -126.7" fill="#434343" fill-rule="evenodd" stroke="none"/>
    <path d="M-398.7 -209.0 L-396.85 -209.2 -395.2 -210.85 -384.7 -195.7 -386.35 -194.35 -387.35 -193.0 -411.95 -176.2 -409.35 -172.2 -407.7 -172.2 -396.35 -179.0 -393.35 -180.2 -389.7 -179.7 -388.8 -178.8 -371.5 -188.7 -366.85 -181.5 -388.7 -169.2 -390.25 -171.8 -403.45 -163.85 -401.85 -161.35 -423.5 -148.0 -429.35 -157.85 -416.15 -165.55 -419.6 -171.0 -441.0 -156.35 -442.85 -156.0 -445.0 -154.7 -455.7 -169.5 -453.85 -170.7 -453.2 -172.2 -430.2 -187.75 -437.35 -199.0 -426.5 -205.5 -419.9 -194.7 -398.7 -209.0" fill="#434343" fill-rule="evenodd" stroke="none"/>
    <path d="M-530.75 106.75 L-529.2 106.0 -525.35 113.5 -526.75 114.4 -530.75 106.75" fill="#434343" fill-rule="evenodd" stroke="none"/>
    <path d="M391.4 134.55 L393.0 134.55 395.85 135.2 398.1 135.0 397.85 137.0 394.55 137.4 390.75 137.0 391.4 134.55" fill="#434343" fill-rule="evenodd" stroke="none"/>
    <path d="M358.15 116.55 L356.35 118.0 354.9 116.15 356.75 114.75 358.15 116.55" fill="#434343" fill-rule="evenodd" stroke="none"/>
    <path d="M363.2 159.5 L364.6 161.35 362.75 162.8 361.35 160.95 363.2 159.5" fill="#434343" fill-rule="evenodd" stroke="none"/>
    <path d="M73.4 -297.15 L74.85 -297.9 76.0 -297.7 76.65 -296.9 76.65 -295.35 76.1 -294.45 74.1 -294.35 72.85 -295.35 72.1 -293.35 71.2 -293.0 69.55 -292.7 67.4 -292.7 66.55 -293.15 65.85 -294.25 64.85 -294.8 63.85 -294.45 63.0 -293.8 61.75 -293.25 60.4 -292.9 60.1 -291.9 59.1 -291.0 58.0 -290.6 56.55 -290.9 56.4 -292.35 56.65 -293.8 57.75 -295.35 57.85 -297.0 59.0 -298.15 61.4 -298.6 62.85 -298.35 64.1 -297.6 65.55 -296.25 66.85 -296.9 68.1 -296.15 70.1 -297.7 71.4 -297.8 72.75 -296.7 73.4 -297.15" fill="#434343" fill-rule="evenodd" stroke="none"/>
    <path d="M48.55 -294.45 L47.85 -295.8 47.65 -296.6 48.4 -297.45 50.2 -298.6 55.1 -298.25 56.1 -297.35 56.4 -295.6 55.55 -294.8 54.55 -293.45 54.55 -292.35 53.75 -291.8 52.1 -291.9 51.75 -292.9 52.65 -294.0 50.4 -293.7 Q49.5 -294.05 48.55 -294.45" fill="#434343" fill-rule="evenodd" stroke="none"/>
    <path d="M43.1 -297.9 L44.2 -296.7 44.65 -294.8 43.75 -293.35 42.75 -292.8 43.3 -291.6 43.1 -290.8 42.2 -290.15 40.75 -291.45 39.2 -291.25 38.3 -291.35 38.1 -292.45 38.55 -293.0 37.0 -293.7 35.85 -294.8 36.75 -296.15 37.85 -297.0 39.2 -297.7 41.1 -298.0 43.1 -297.9" fill="#434343" fill-rule="evenodd" stroke="none"/>
    <path d="M24.9 -296.25 L27.5 -296.6 29.05 -295.75 30.25 -293.7 30.3 -292.45 28.05 -291.45 26.5 -291.35 24.05 -292.25 22.8 -293.2 22.65 -294.45 24.9 -296.25" fill="#434343" fill-rule="evenodd" stroke="none"/>
    <path d="M14.15 -295.45 L14.55 -294.6 14.05 -294.0 15.4 -292.75 14.75 -291.1 13.3 -290.75 12.05 -291.35 12.0 -292.45 12.15 -293.2 10.9 -293.2 9.8 -293.35 9.75 -292.6 9.25 -291.45 7.75 -290.7 4.4 -290.5 2.9 -292.1 3.05 -294.1 4.3 -294.85 8.25 -294.75 8.4 -295.75 9.05 -296.85 11.65 -297.1 14.15 -295.45" fill="#434343" fill-rule="evenodd" stroke="none"/>
    <path d="M-33.35 -295.0 L-32.25 -294.85 -31.6 -294.25 -30.5 -293.7 -30.85 -294.45 -30.75 -296.1 -29.35 -297.45 -27.85 -297.6 -25.95 -297.2 -24.95 -296.25 -24.35 -297.85 -22.75 -299.35 -21.1 -299.7 -19.75 -299.0 -20.0 -298.0 -20.2 -297.5 -19.7 -296.85 -18.85 -296.75 -17.85 -295.85 -17.7 -294.95 -18.35 -293.6 -20.35 -294.1 -20.95 -295.2 -22.0 -294.6 -21.35 -293.95 -21.2 -293.5 -20.2 -292.85 -20.6 -292.1 -22.1 -290.7 -23.1 -290.45 -24.2 -290.75 -25.2 -291.45 -25.95 -290.5 -28.45 -290.5 -29.35 -291.25 -29.7 -292.25 -30.45 -291.25 -31.25 -291.35 -32.25 -291.85 -32.25 -292.75 -32.95 -292.35 -33.6 -292.2 -34.2 -292.7 -34.35 -293.35 -34.2 -294.6 -33.35 -295.0" fill="#434343" fill-rule="evenodd" stroke="none"/>
    <path d="M-47.25 -298.85 L-46.0 -297.95 -44.95 -296.75 -44.1 -297.45 -43.2 -297.6 -42.2 -297.45 -40.85 -296.5 -40.35 -295.5 -40.0 -294.25 -41.1 -292.85 -40.35 -292.0 -40.6 -291.35 -42.2 -290.75 -43.25 -290.95 -44.1 -289.75 -45.7 -290.2 -46.35 -290.5 -46.15 -291.0 -46.95 -290.85 -48.05 -291.2 -48.7 -291.85 -48.6 -291.0 -48.7 -290.45 -49.2 -289.95 -50.3 -290.0 -50.95 -291.85 -51.0 -289.95 -51.75 -289.35 -52.75 -289.2 -53.35 -289.3 -53.95 -291.2 -54.7 -290.95 -55.2 -290.45 -56.7 -290.5 -56.45 -289.95 -56.5 -289.3 -57.2 -288.95 -58.1 -289.15 -58.25 -289.9 -58.2 -290.4 -59.2 -291.25 -61.1 -290.85 -61.95 -291.7 -63.1 -292.35 -63.85 -293.6 Q-64.15 -293.4 -64.5 -293.25 L-65.85 -293.35 -65.25 -292.45 -65.25 -291.7 -66.05 -290.85 -67.95 -290.6 -68.8 -291.75 -68.7 -292.6 -70.2 -292.5 -71.95 -293.1 -73.75 -294.1 -74.45 -293.45 -77.0 -292.1 -79.25 -291.85 -80.75 -292.05 -82.5 -293.45 -83.25 -292.7 -82.6 -292.05 -81.9 -290.9 -82.3 -289.5 -83.6 -289.05 -84.9 -289.15 -86.75 -290.7 -86.8 -289.65 -87.15 -289.2 -88.95 -289.2 -89.45 -288.1 -90.35 -287.85 -91.25 -287.85 -93.25 -287.5 -93.85 -287.85 -93.5 -288.75 -92.6 -289.45 -91.6 -289.45 -91.5 -290.2 -92.7 -290.5 -93.1 -291.45 -93.4 -290.5 -94.95 -289.6 -96.15 -289.7 -96.95 -290.0 -97.65 -290.9 -98.3 -291.1 -99.55 -291.9 -100.9 -291.55 -99.95 -289.85 -100.15 -289.2 -100.8 -288.95 -101.85 -289.0 -102.45 -289.75 -102.9 -289.5 -102.75 -288.75 -103.0 -288.25 -104.0 -287.9 -104.95 -288.3 -104.9 -289.6 -105.5 -290.35 -105.7 -290.85 -105.35 -292.1 -104.25 -292.85 -102.85 -293.45 -102.95 -294.1 -102.1 -295.7 -100.6 -296.95 -98.2 -297.6 -97.25 -296.35 -96.45 -296.75 -95.7 -297.35 -94.0 -297.85 -92.25 -297.35 -91.1 -296.7 -90.45 -296.0 -90.2 -295.2 -89.5 -294.45 -88.35 -294.2 -88.25 -295.5 -87.35 -296.5 -84.1 -296.75 -83.35 -296.1 -83.0 -297.2 -81.95 -298.1 -78.25 -298.6 -75.6 -297.95 -74.85 -297.6 -73.6 -295.5 -72.5 -296.95 -71.2 -297.5 -68.75 -297.5 -67.5 -296.45 -66.45 -294.85 -65.85 -295.95 -64.95 -296.25 -64.0 -296.1 -63.6 -295.5 -62.6 -296.5 -61.85 -296.85 -59.25 -296.6 -59.25 -295.5 -57.25 -296.5 -55.7 -296.7 -54.85 -296.1 -54.7 -295.25 -54.45 -292.35 -53.9 -291.6 -53.4 -291.5 -52.45 -292.0 -51.7 -292.1 -51.3 -292.9 -51.8 -293.5 -53.1 -294.45 -53.6 -295.0 -53.35 -296.1 -51.75 -297.5 -48.6 -299.0 -47.25 -298.85" fill="#434343" fill-rule="evenodd" stroke="none"/>
    <path d="M-88.25 -287.75 L-88.2 -288.25 -87.7 -288.7 -87.0 -288.3 -86.9 -287.8 -86.95 -287.5 -87.25 -287.25 -87.7 -287.15 -88.05 -287.45 -88.25 -287.75" fill="#434343" fill-rule="evenodd" stroke="none"/>
    <path d="M-99.05 -289.1 L-99.45 -289.25 -99.65 -289.8 -99.25 -290.35 -98.8 -290.55 -98.4 -290.35 -97.75 -289.65 -98.15 -289.15 -99.05 -289.1" fill="#434343" fill-rule="evenodd" stroke="none"/>
    <path d="M187.2 -290.7 L187.2 -299.15 188.85 -299.15 188.85 -290.7 187.2 -290.7" fill="#434343" fill-rule="evenodd" stroke="none"/>
    <path d="M-8.15 -245.7 L-8.0 -248.3 -9.2 -247.1 -8.15 -245.7 M-39.7 -257.9 L-33.25 -257.9 -33.25 -255.05 -32.05 -255.35 -25.75 -255.35 -19.6 -253.85 -19.45 -253.8 -18.45 -255.25 -15.9 -255.9 -14.15 -254.8 -12.15 -254.6 -11.5 -253.1 -12.35 -250.15 -10.45 -248.65 -3.55 -255.55 -2.15 -254.15 -6.25 -250.05 -3.0 -250.3 -2.45 -250.85 -2.25 -251.7 -3.0 -253.2 -1.85 -254.2 -0.85 -254.45 -1.0 -255.9 1.4 -257.45 3.85 -258.35 4.75 -257.6 3.85 -255.9 4.75 -254.8 6.3 -256.15 8.0 -257.0 10.3 -256.6 10.75 -254.8 10.1 -252.9 12.0 -253.8 12.2 -255.0 14.4 -257.25 16.85 -256.35 18.2 -254.7 20.65 -254.6 23.4 -252.8 23.0 -251.0 25.4 -252.9 27.85 -253.25 30.55 -250.9 33.55 -252.9 35.2 -252.6 36.1 -249.8 37.65 -249.25 38.4 -248.15 37.85 -244.6 38.25 -244.15 67.4 -244.15 67.4 -236.15 72.3 -236.15 72.3 -221.25 67.4 -221.25 67.4 -213.9 35.4 -213.9 32.95 -208.35 43.0 -208.35 43.0 -179.45 12.1 -179.45 13.4 -175.0 20.1 -174.15 22.3 -171.7 22.55 -168.8 22.3 -166.35 21.65 -164.6 23.2 -162.35 20.3 -161.25 18.55 -161.7 16.3 -160.8 17.4 -158.15 14.3 -158.15 9.0 -156.15 5.4 -156.15 5.2 -157.7 7.2 -160.15 9.85 -161.45 11.4 -163.25 9.0 -163.9 6.55 -165.25 2.1 -161.9 0.75 -161.25 -2.35 -162.6 -4.8 -162.8 -5.55 -164.4 -7.0 -163.65 -9.5 -163.0 -12.1 -163.0 -14.6 -163.65 -16.9 -164.85 -18.85 -166.55 -20.35 -168.7 -21.25 -171.1 -21.55 -173.7 -21.25 -176.25 -20.35 -178.7 -19.8 -179.45 -22.35 -179.45 -22.35 -185.45 -28.8 -185.45 -28.8 -200.35 -22.35 -200.35 -22.35 -204.85 -25.75 -204.05 -32.05 -204.05 -38.2 -205.5 -43.8 -208.4 -45.95 -210.35 -53.3 -203.0 -54.75 -204.4 -47.5 -211.65 -48.5 -212.55 -49.75 -214.35 -56.35 -214.35 -56.35 -244.35 -50.25 -244.35 -48.5 -246.85 -48.1 -247.2 -55.25 -254.3 -53.8 -255.75 -46.6 -248.5 -43.8 -250.95 -39.7 -253.1 -39.7 -257.9" fill="#707070" fill-rule="evenodd" stroke="none"/>
    <path d="M431.0 -205.35 L424.5 -195.25 Q437.6 -188.1 450.65 -181.0 L439.3 -163.35 410.8 -180.2 409.0 -177.0 408.5 -175.7 409.0 -174.15 422.3 -165.25 423.0 -162.35 422.75 -160.35 439.65 -148.35 434.3 -140.35 413.65 -154.35 416.55 -158.35 403.15 -166.45 401.65 -163.7 380.55 -176.8 387.2 -186.8 401.0 -178.55 404.3 -184.05 377.3 -200.0 386.3 -216.0 412.9 -201.55 420.65 -212.0 431.0 -205.35" fill="#707070" fill-rule="evenodd" stroke="none"/>
    <path d="M371.0 187.0 L366.65 179.0 424.0 149.0 428.65 157.3 415.55 164.85 418.65 170.55 444.65 153.0 455.3 169.65 430.95 185.6 437.3 198.3 426.0 204.0 418.9 193.5 394.3 209.65 385.0 193.3 411.45 175.4 409.3 171.65 393.65 179.3 390.3 179.0 389.4 177.9 371.0 187.0" fill="#707070" fill-rule="evenodd" stroke="none"/>
    <path d="M530.75 134.3 L535.65 137.65 546.85 144.25 557.9 151.65 545.95 170.0 527.4 193.1 511.7 210.35 497.2 195.0 493.4 188.3 505.0 179.2 504.3 177.65 500.3 173.2 510.75 161.0 513.0 162.3 511.85 159.4 523.0 149.65 522.75 148.75 530.75 134.3" fill="#707070" fill-rule="evenodd" stroke="none"/>
    <path d="M323.4 265.85 L338.1 263.0 340.3 269.4 340.1 263.65 355.4 260.55 358.1 269.2 358.55 260.55 374.75 261.2 376.5 277.35 377.45 290.75 350.85 296.4 321.35 299.5 305.0 299.35 308.75 271.0 323.0 273.4 323.4 265.85" fill="#707070" fill-rule="evenodd" stroke="none"/>
    <path d="M591.9 -62.15 L596.75 -33.45 583.1 -34.25 568.3 -35.7 568.65 -47.35 567.65 -50.7 562.3 -51.35 557.65 -65.7 559.0 -68.0 554.0 -81.0 559.65 -84.7 552.65 -85.0 551.0 -100.35 556.15 -101.7 579.95 -105.85 585.6 -91.0 591.9 -62.15" fill="#707070" fill-rule="evenodd" stroke="none"/>
    <path d="M356.15 -274.1 L362.35 -294.0 379.5 -289.75 406.25 -282.0 427.95 -272.7 428.25 -272.5 433.95 -269.3 427.45 -257.65 419.5 -245.5 407.0 -253.0 404.0 -248.0 389.5 -253.0 390.0 -258.0 387.0 -253.5 373.0 -257.0 372.5 -263.0 368.5 -258.5 354.5 -266.0 356.15 -274.1" fill="#707070" fill-rule="evenodd" stroke="none"/>
    <path d="M-600.35 -27.0 L-595.4 -54.4 -584.7 -53.1 -567.7 -48.6 -573.0 -34.15 -566.8 -33.9 -566.8 -18.15 -573.0 -17.25 -567.0 -16.35 -566.35 -0.35 -573.9 1.0 -566.35 2.75 -569.25 18.75 -572.8 18.3 -568.8 32.75 -585.1 37.05 -598.25 39.3 -599.3 33.15 -600.8 3.85 -600.35 -27.0 M-328.85 -299.25 L-327.35 -278.7 -327.7 -271.2 -342.5 -272.2 -342.0 -266.35 -357.85 -262.7 -360.5 -268.0 -359.35 -262.85 -374.85 -258.35 -377.35 -265.7 -377.7 -257.2 -393.85 -257.2 -394.35 -259.35 -407.35 -253.35 -413.7 -265.2 -418.55 -277.7 -412.2 -280.9 -383.1 -290.15 -354.8 -296.3 -328.85 -299.25 M-506.35 177.4 L-498.15 189.2 -494.35 185.4 -482.15 195.0 -484.8 201.2 -480.15 196.55 -468.15 207.2 -470.8 212.55 -465.7 209.0 -455.25 221.0 -458.6 223.0 -444.15 229.2 -456.75 257.5 -463.9 253.65 -487.9 236.2 -509.0 217.4 -529.1 195.95 -529.95 194.85 -519.85 186.15 -506.35 177.4" fill="#707070" fill-rule="evenodd" stroke="none"/>
    <path d="M183.25 297.15 L183.25 287.15 186.8 287.15 186.8 297.15 183.25 297.15" fill="#707070" fill-rule="evenodd" stroke="none"/>
    <path d="M136.0 258.0 L136.0 271.15 133.5 271.15 133.5 274.0 149.5 274.8 152.3 275.85 153.85 276.85 154.9 278.65 175.65 278.65 175.65 286.5 158.8 286.5 158.8 289.0 180.3 289.0 180.3 296.1 158.8 296.1 158.8 298.65 108.5 298.65 108.5 296.1 94.3 296.1 94.3 299.0 79.4 299.0 79.4 291.2 79.3 291.5 78.0 292.9 76.8 293.5 76.8 295.15 74.25 296.65 72.25 297.3 71.0 296.25 70.15 296.65 68.65 297.55 66.55 297.15 64.3 295.65 64.15 294.5 62.3 294.25 61.8 294.75 61.4 295.55 60.9 296.25 58.5 296.5 57.05 296.3 54.5 297.9 50.05 297.75 48.25 296.9 46.9 296.0 45.55 297.15 43.15 297.4 42.4 296.4 41.05 295.65 38.9 295.65 38.0 295.3 35.8 296.5 33.5 296.4 33.15 295.3 31.9 296.15 30.3 296.3 29.55 295.9 28.3 296.25 26.75 296.0 26.0 296.4 25.15 296.55 24.65 297.8 21.5 297.9 19.4 297.4 18.9 296.0 17.9 296.75 16.55 296.8 15.55 296.5 13.75 295.0 14.25 293.9 15.3 293.25 14.75 292.55 14.55 291.15 15.5 291.0 16.5 291.4 17.8 289.9 19.0 289.55 19.9 289.8 20.25 290.75 20.8 290.75 21.3 291.3 22.15 291.75 22.9 291.3 22.9 290.4 23.25 289.75 23.9 290.3 24.5 291.15 25.0 291.0 25.3 290.5 25.4 289.55 26.4 289.65 28.0 291.25 28.9 290.4 31.0 290.3 30.75 289.75 31.0 289.15 31.8 289.05 32.0 289.65 32.05 290.55 32.25 291.05 33.15 291.5 34.25 290.75 34.9 290.9 36.0 291.8 37.15 293.55 38.3 293.15 39.15 293.5 39.25 291.9 39.65 291.4 40.55 290.8 42.0 291.05 42.4 292.65 43.0 292.4 43.55 292.4 44.55 292.8 46.5 293.9 47.0 294.65 48.25 293.5 49.55 293.15 51.05 292.15 52.4 292.05 54.65 292.15 56.65 292.8 56.05 291.65 56.15 290.65 56.4 289.55 57.3 288.55 60.4 290.4 60.55 289.8 60.5 288.9 60.3 288.15 60.4 287.55 61.8 287.05 62.5 287.55 61.75 288.8 62.25 288.5 63.3 288.3 64.25 287.9 65.8 287.75 66.9 287.9 67.15 288.8 66.55 290.3 67.4 290.8 68.25 290.4 69.0 290.15 71.3 290.15 71.75 289.3 72.55 289.05 73.75 289.15 74.75 289.4 75.75 289.05 77.0 288.25 77.9 288.25 78.4 288.65 78.55 289.5 79.25 289.8 79.4 290.05 79.4 286.3 94.3 286.3 94.3 289.0 108.5 289.0 108.5 286.0 110.0 286.0 110.0 276.65 125.3 276.65 125.3 271.15 122.8 271.15 122.8 258.0 136.0 258.0" fill="#707070" fill-rule="evenodd" stroke="none"/>
    <path d="M-450.15 174.55 L-440.35 159.65 -411.95 176.65 -410.2 174.25 -409.7 173.25 -409.5 172.15 -410.1 170.8 -421.9 162.75 -423.45 161.2 -423.9 158.3 -423.7 155.85 -440.15 143.85 -435.25 137.0 Q-408.45 155.9 -381.7 174.75 L-389.0 184.75 -401.7 175.0 -405.25 181.0 -378.35 197.4 -388.15 214.1 -414.35 198.3 -422.15 209.2 -433.0 201.65 -425.25 191.65 -450.15 174.55" fill="#707070" fill-rule="evenodd" stroke="none"/>
    <path d="M-56.6 225.85 L-50.35 225.85 -50.35 217.65 -20.8 217.65 -20.8 209.65 15.65 209.65 15.65 217.65 44.75 217.65 44.75 248.05 35.35 248.05 33.4 249.25 31.3 248.3 31.6 250.45 29.55 251.3 26.0 251.4 25.3 250.55 25.8 249.55 23.9 249.5 23.75 248.9 22.9 250.0 21.8 250.55 19.25 250.8 19.0 252.75 16.65 253.9 15.2 253.85 14.75 252.65 15.8 249.3 15.65 248.4 13.25 250.5 13.55 252.15 12.5 252.8 10.9 252.3 10.7 251.3 9.8 250.8 7.4 250.1 6.15 248.05 2.95 248.05 2.65 252.25 3.5 252.8 3.85 253.65 3.5 254.5 1.75 255.25 2.2 256.35 0.6 257.8 -0.2 258.3 -1.1 259.3 -2.45 259.55 -3.4 258.85 -2.75 257.45 -1.8 256.05 -3.15 255.85 -4.3 256.25 -4.95 257.8 -6.2 258.8 -7.75 259.35 -8.8 258.75 -9.45 256.75 -8.6 254.2 -10.5 253.2 -11.25 253.5 -10.35 255.65 -11.25 258.55 -13.45 261.65 -15.5 262.65 -18.8 262.15 -19.45 261.4 -21.2 263.95 -24.05 264.05 -25.5 263.2 -27.0 261.4 -26.9 259.75 -25.95 258.5 -25.7 257.5 -28.75 257.4 -29.3 258.75 -28.05 260.35 -28.0 261.75 -28.8 262.55 -30.8 263.2 -32.15 261.7 -33.8 262.7 -34.75 263.15 -36.8 263.65 -38.9 263.75 -39.95 263.65 -41.95 263.15 -43.85 262.2 -45.5 260.95 -46.85 259.35 -47.9 257.5 -48.5 255.5 -48.7 253.4 -48.5 251.35 -47.9 249.35 -47.2 248.05 -50.35 248.05 -50.35 242.1 -56.6 242.1 -56.6 225.85" fill="#707070" fill-rule="evenodd" stroke="none"/>
    <path d="M-398.7 -209.0 L-396.85 -209.2 -395.2 -210.85 -384.7 -195.7 -386.35 -194.35 -387.35 -193.0 -411.95 -176.2 -409.35 -172.2 -407.7 -172.2 -396.35 -179.0 -393.35 -180.2 -389.7 -179.7 -388.8 -178.8 -371.5 -188.7 -366.85 -181.5 -388.7 -169.2 -390.25 -171.8 -403.45 -163.85 -401.85 -161.35 -423.5 -148.0 -429.35 -157.85 -416.15 -165.55 -419.6 -171.0 -441.0 -156.35 -442.85 -156.0 -445.0 -154.7 -455.7 -169.5 -453.85 -170.7 -453.2 -172.2 -430.2 -187.75 -437.35 -199.0 -426.5 -205.5 -419.9 -194.7 -398.7 -209.0" fill="#707070" fill-rule="evenodd" stroke="none"/>
    <path d="M391.4 134.55 L393.0 134.55 395.85 135.2 398.1 135.0 397.85 137.0 394.55 137.4 390.75 137.0 391.4 134.55" fill="#707070" fill-rule="evenodd" stroke="none"/>
    <path d="M358.15 116.55 L356.35 118.0 354.9 116.15 356.75 114.75 358.15 116.55" fill="#707070" fill-rule="evenodd" stroke="none"/>
    <path d="M363.2 159.5 L364.6 161.35 362.75 162.8 361.35 160.95 363.2 159.5" fill="#707070" fill-rule="evenodd" stroke="none"/>
    <path d="M73.4 -297.15 L74.85 -297.9 76.0 -297.7 76.65 -296.9 76.65 -295.35 76.1 -294.45 74.1 -294.35 72.85 -295.35 72.1 -293.35 71.2 -293.0 69.55 -292.7 67.4 -292.7 66.55 -293.15 65.85 -294.25 64.85 -294.8 63.85 -294.45 63.0 -293.8 61.75 -293.25 60.4 -292.9 60.1 -291.9 59.1 -291.0 58.0 -290.6 56.55 -290.9 56.4 -292.35 56.65 -293.8 57.75 -295.35 57.85 -297.0 59.0 -298.15 61.4 -298.6 62.85 -298.35 64.1 -297.6 65.55 -296.25 66.85 -296.9 68.1 -296.15 70.1 -297.7 71.4 -297.8 72.75 -296.7 73.4 -297.15" fill="#707070" fill-rule="evenodd" stroke="none"/>
    <path d="M48.55 -294.45 L47.85 -295.8 47.65 -296.6 48.4 -297.45 50.2 -298.6 55.1 -298.25 56.1 -297.35 56.4 -295.6 55.55 -294.8 54.55 -293.45 54.55 -292.35 53.75 -291.8 52.1 -291.9 51.75 -292.9 52.65 -294.0 50.4 -293.7 Q49.5 -294.05 48.55 -294.45" fill="#707070" fill-rule="evenodd" stroke="none"/>
    <path d="M43.1 -297.9 L44.2 -296.7 44.65 -294.8 43.75 -293.35 42.75 -292.8 43.3 -291.6 43.1 -290.8 42.2 -290.15 40.75 -291.45 39.2 -291.25 38.3 -291.35 38.1 -292.45 38.55 -293.0 37.0 -293.7 35.85 -294.8 36.75 -296.15 37.85 -297.0 39.2 -297.7 41.1 -298.0 43.1 -297.9" fill="#707070" fill-rule="evenodd" stroke="none"/>
    <path d="M24.9 -296.25 L27.5 -296.6 29.05 -295.75 30.25 -293.7 30.3 -292.45 28.05 -291.45 26.5 -291.35 24.05 -292.25 22.8 -293.2 22.65 -294.45 24.9 -296.25" fill="#707070" fill-rule="evenodd" stroke="none"/>
    <path d="M14.15 -295.45 L14.55 -294.6 14.05 -294.0 15.4 -292.75 14.75 -291.1 13.3 -290.75 12.05 -291.35 12.0 -292.45 12.15 -293.2 10.9 -293.2 9.8 -293.35 9.75 -292.6 9.25 -291.45 7.75 -290.7 4.4 -290.5 2.9 -292.1 3.05 -294.1 4.3 -294.85 8.25 -294.75 8.4 -295.75 9.05 -296.85 11.65 -297.1 14.15 -295.45" fill="#707070" fill-rule="evenodd" stroke="none"/>
    <path d="M-33.35 -295.0 L-32.25 -294.85 -31.6 -294.25 -30.5 -293.7 -30.85 -294.45 -30.75 -296.1 -29.35 -297.45 -27.85 -297.6 -25.95 -297.2 -24.95 -296.25 -24.35 -297.85 -22.75 -299.35 -21.1 -299.7 -19.75 -299.0 -20.0 -298.0 -20.2 -297.5 -19.7 -296.85 -18.85 -296.75 -17.85 -295.85 -17.7 -294.95 -18.35 -293.6 -20.35 -294.1 -20.95 -295.2 -22.0 -294.6 -21.35 -293.95 -21.2 -293.5 -20.2 -292.85 -20.6 -292.1 -22.1 -290.7 -23.1 -290.45 -24.2 -290.75 -25.2 -291.45 -25.95 -290.5 -28.45 -290.5 -29.35 -291.25 -29.7 -292.25 -30.45 -291.25 -31.25 -291.35 -32.25 -291.85 -32.25 -292.75 -32.95 -292.35 -33.6 -292.2 -34.2 -292.7 -34.35 -293.35 -34.2 -294.6 -33.35 -295.0" fill="#707070" fill-rule="evenodd" stroke="none"/>
    <path d="M-47.25 -298.85 L-46.0 -297.95 -44.95 -296.75 -44.1 -297.45 -43.2 -297.6 -42.2 -297.45 -40.85 -296.5 -40.35 -295.5 -40.0 -294.25 -41.1 -292.85 -40.35 -292.0 -40.6 -291.35 -42.2 -290.75 -43.25 -290.95 -44.1 -289.75 -45.7 -290.2 -46.35 -290.5 -46.15 -291.0 -46.95 -290.85 -48.05 -291.2 -48.7 -291.85 -48.6 -291.0 -48.7 -290.45 -49.2 -289.95 -50.3 -290.0 -50.95 -291.85 -51.0 -289.95 -51.75 -289.35 -52.75 -289.2 -53.35 -289.3 -53.95 -291.2 -54.7 -290.95 -55.2 -290.45 -56.7 -290.5 -56.45 -289.95 -56.5 -289.3 -57.2 -288.95 -58.1 -289.15 -58.25 -289.9 -58.2 -290.4 -59.2 -291.25 -61.1 -290.85 -61.95 -291.7 -63.1 -292.35 -63.85 -293.6 Q-64.15 -293.4 -64.5 -293.25 L-65.85 -293.35 -65.25 -292.45 -65.25 -291.7 -66.05 -290.85 -67.95 -290.6 -68.8 -291.75 -68.7 -292.6 -70.2 -292.5 -71.95 -293.1 -73.75 -294.1 -74.45 -293.45 -77.0 -292.1 -79.25 -291.85 -80.75 -292.05 -82.5 -293.45 -83.25 -292.7 -82.6 -292.05 -81.9 -290.9 -82.3 -289.5 -83.6 -289.05 -84.9 -289.15 -86.75 -290.7 -86.8 -289.65 -87.15 -289.2 -88.95 -289.2 -89.45 -288.1 -90.35 -287.85 -91.25 -287.85 -93.25 -287.5 -93.85 -287.85 -93.5 -288.75 -92.6 -289.45 -91.6 -289.45 -91.5 -290.2 -92.7 -290.5 -93.1 -291.45 -93.4 -290.5 -94.95 -289.6 -96.15 -289.7 -96.95 -290.0 -97.65 -290.9 -98.3 -291.1 -99.55 -291.9 -100.9 -291.55 -99.95 -289.85 -100.15 -289.2 -100.8 -288.95 -101.85 -289.0 -102.45 -289.75 -102.9 -289.5 -102.75 -288.75 -103.0 -288.25 -104.0 -287.9 -104.95 -288.3 -104.9 -289.6 -105.5 -290.35 -105.7 -290.85 -105.35 -292.1 -104.25 -292.85 -102.85 -293.45 -102.95 -294.1 -102.1 -295.7 -100.6 -296.95 -98.2 -297.6 -97.25 -296.35 -96.45 -296.75 -95.7 -297.35 -94.0 -297.85 -92.25 -297.35 -91.1 -296.7 -90.45 -296.0 -90.2 -295.2 -89.5 -294.45 -88.35 -294.2 -88.25 -295.5 -87.35 -296.5 -84.1 -296.75 -83.35 -296.1 -83.0 -297.2 -81.95 -298.1 -78.25 -298.6 -75.6 -297.95 -74.85 -297.6 -73.6 -295.5 -72.5 -296.95 -71.2 -297.5 -68.75 -297.5 -67.5 -296.45 -66.45 -294.85 -65.85 -295.95 -64.95 -296.25 -64.0 -296.1 -63.6 -295.5 -62.6 -296.5 -61.85 -296.85 -59.25 -296.6 -59.25 -295.5 -57.25 -296.5 -55.7 -296.7 -54.85 -296.1 -54.7 -295.25 -54.45 -292.35 -53.9 -291.6 -53.4 -291.5 -52.45 -292.0 -51.7 -292.1 -51.3 -292.9 -51.8 -293.5 -53.1 -294.45 -53.6 -295.0 -53.35 -296.1 -51.75 -297.5 -48.6 -299.0 -47.25 -298.85" fill="#707070" fill-rule="evenodd" stroke="none"/>
    <path d="M-88.25 -287.75 L-88.2 -288.25 -87.7 -288.7 -87.0 -288.3 -86.9 -287.8 -86.95 -287.5 -87.25 -287.25 -87.7 -287.15 -88.05 -287.45 -88.25 -287.75" fill="#707070" fill-rule="evenodd" stroke="none"/>
    <path d="M-99.05 -289.1 L-99.45 -289.25 -99.65 -289.8 -99.25 -290.35 -98.8 -290.55 -98.4 -290.35 -97.75 -289.65 -98.15 -289.15 -99.05 -289.1" fill="#707070" fill-rule="evenodd" stroke="none"/>
    <path d="M331.0 -296.6 L304.2 -299.5 284.15 -300.0 -289.7 -300.0 -305.2 -299.2 -330.85 -296.0 -366.15 -290.0 -399.5 -280.2 -431.5 -266.65 -461.65 -249.45 -489.65 -228.85 -515.05 -205.15 -537.55 -178.65 -556.8 -149.75 -572.55 -118.8 -584.65 -86.2 -592.85 -52.45 -597.05 -17.95 -597.25 16.75 -593.45 51.3 -585.6 85.15 -573.9 117.85 -558.5 149.0 -539.6 178.15 -517.4 204.85 -492.25 228.85 -464.5 249.75 -434.55 267.3 Q-418.6 274.3 -402.7 281.25 L-369.5 291.4 -329.6 297.7 304.2 297.8 347.6 295.5 370.2 291.4 403.4 281.25 Q419.35 274.3 435.25 267.3 L465.25 249.75 493.0 228.85 518.1 204.85 540.3 178.15 559.2 149.0 574.65 117.85 586.3 85.15 594.15 51.3 598.0 16.75 597.8 -17.95 593.55 -52.45 585.35 -86.2 573.25 -118.8 557.5 -149.75 538.25 -178.65 515.75 -205.15 490.35 -228.85 462.4 -249.45 432.2 -266.65 400.2 -280.2 366.9 -290.0 331.0 -296.6 M304.6 -304.5 L331.65 -301.7 368.0 -294.85 401.9 -284.9 434.4 -271.1 465.1 -253.65 493.55 -232.7 519.4 -208.6 542.25 -181.7 561.85 -152.3 577.85 -120.8 590.15 -87.7 598.45 -53.35 602.75 -18.3 603.0 17.05 599.1 52.15 591.15 86.55 579.25 119.8 563.55 151.45 544.3 181.1 521.75 208.3 496.2 232.65 468.0 253.95 437.5 271.75 405.15 285.95 371.4 296.25 348.2 300.5 304.35 302.8 -330.0 302.7 -370.6 296.3 -404.45 285.95 -436.8 271.75 -467.3 253.95 -495.5 232.65 -521.05 208.3 -543.6 181.1 -562.85 151.45 -578.55 119.8 -590.4 86.55 -598.35 52.15 -602.25 17.05 -602.05 -18.3 -597.75 -53.35 -589.4 -87.7 -577.15 -120.8 -561.1 -152.3 -541.55 -181.7 -518.7 -208.6 -492.85 -232.7 -464.4 -253.65 -433.7 -271.1 -401.2 -284.9 -367.25 -294.85 -330.3 -300.75 -305.85 -304.2 -289.9 -305.0 284.2 -305.0 304.6 -304.5" fill="#828282" fill-rule="evenodd" stroke="none"/>
  </g>
</svg>
