<?xml version="1.0" encoding="UTF-8" standalone="no"?>
<svg xmlns:ffdec="https://www.free-decompiler.com/flash" xmlns:xlink="http://www.w3.org/1999/xlink" ffdec:objectType="shape" height="1060.0px" width="1666.65px" xmlns="http://www.w3.org/2000/svg">
  <g transform="matrix(1.0, 0.0, 0.0, 1.0, 834.15, 531.0)">
    <path d="M603.2 -443.05 L650.55 -406.5 693.5 -364.45 731.5 -317.5 764.1 -266.2 790.75 -211.25 811.15 -153.45 825.05 -93.6 832.2 -32.4 832.5 29.2 826.05 90.5 812.8 150.55 793.05 208.55 766.95 263.8 734.95 315.5 697.45 362.9 654.95 405.5 608.05 442.55 557.3 473.7 503.5 498.4 447.3 516.45 399.95 525.5 370.65 528.5 330.9 529.0 -333.5 529.0 -370.65 528.55 -402.15 525.4 -448.95 516.45 -505.15 498.4 -558.95 473.7 -609.65 442.55 -656.6 405.5 -699.1 362.9 -736.6 315.5 -768.6 263.8 -794.65 208.55 -814.45 150.55 -827.65 90.5 -834.15 29.2 -833.8 -32.4 -826.65 -93.6 -812.8 -153.45 -792.35 -211.25 -765.7 -266.2 -733.15 -317.5 -695.1 -364.45 -652.15 -406.5 -604.85 -443.05 -553.8 -473.55 -499.7 -497.6 -443.3 -514.95 -390.4 -524.4 -333.8 -531.0 332.15 -531.0 388.8 -524.4 441.7 -514.95 498.05 -497.6 552.15 -473.55 603.2 -443.05" fill="#707070" fill-rule="evenodd" stroke="none"/>
    <path d="M524.55 -428.95 L573.05 -401.35 618.0 -368.25 658.8 -330.2 694.95 -287.6 725.9 -241.15 751.2 -191.45 770.6 -139.1 783.8 -84.85 790.6 -29.45 790.9 26.35 784.75 81.85 772.2 136.25 753.4 188.8 728.65 238.8 698.2 285.65 662.6 328.6 622.2 367.15 577.6 400.7 529.45 428.9 478.3 451.3 424.95 467.6 371.0 477.45 361.65 478.45 314.3 479.0 -316.9 479.0 -360.95 478.5 -374.0 477.2 -426.55 467.6 -479.95 451.3 -531.05 428.9 -579.25 400.7 -623.85 367.15 -664.2 328.6 -699.85 285.65 -730.25 238.8 -755.0 188.8 -773.8 136.25 -786.35 81.85 -792.55 26.35 -792.2 -29.45 -785.4 -84.85 -772.25 -139.1 -752.85 -191.45 -727.5 -241.15 -696.55 -287.6 -660.45 -330.2 -619.65 -368.25 -574.65 -401.35 -526.15 -428.95 -474.8 -450.75 -421.25 -466.5 -375.05 -474.35 -366.25 -476.75 -317.15 -494.65 -217.35 -514.7 216.0 -514.7 315.55 -494.65 363.55 -477.15 373.85 -474.25 419.6 -466.5 473.15 -450.75 524.55 -428.95" fill="#434343" fill-rule="evenodd" stroke="none"/>
    <path d="M392.8 -313.4 L394.35 -319.45 410.25 -314.8 446.15 -299.55 474.6 -283.35 471.2 -278.5 494.05 -262.55 497.45 -267.45 511.5 -257.1 516.9 -252.05 510.15 -245.55 511.8 -243.85 519.7 -251.35 519.7 -251.4 539.5 -271.2 571.25 -239.45 543.9 -212.3 545.55 -210.65 551.8 -216.6 560.6 -206.25 556.1 -202.95 572.75 -180.6 576.7 -183.55 586.85 -168.3 604.6 -133.55 615.3 -104.65 610.65 -103.6 616.8 -76.45 622.8 -77.8 627.35 -59.05 632.1 -20.35 632.3 15.7 628.0 54.45 625.0 67.45 618.95 66.05 612.75 93.2 618.5 94.5 606.1 129.2 588.8 164.2 582.0 174.6 578.35 171.9 561.75 194.2 566.7 197.9 551.35 216.4 545.8 211.1 544.15 212.75 553.6 221.95 553.6 221.85 571.25 239.5 539.5 271.25 518.35 250.1 518.25 250.2 512.05 244.3 510.4 246.0 516.5 251.9 514.4 253.85 505.8 260.35 503.0 256.35 480.15 272.25 483.5 277.1 483.25 277.35 449.6 297.05 413.85 312.7 403.65 315.8 402.25 310.35 375.25 317.3 376.95 323.95 375.85 324.3 336.5 329.95 299.25 330.35 206.3 330.35 165.7 346.65 163.0 346.65 163.0 348.15 165.1 348.15 165.1 381.3 135.1 381.3 135.1 348.15 137.2 348.15 137.2 346.65 129.65 346.65 129.65 348.15 131.75 348.15 131.75 381.3 101.75 381.3 101.75 348.15 103.85 348.15 103.85 346.65 96.3 346.65 96.3 348.15 98.4 348.15 98.4 381.3 68.4 381.3 68.4 348.15 70.55 348.15 70.55 346.65 63.0 346.65 63.0 348.15 65.1 348.15 65.1 381.3 35.1 381.3 35.1 348.15 37.2 348.15 37.2 346.65 29.65 346.65 29.65 348.15 31.75 348.15 31.75 381.3 1.75 381.3 1.75 348.15 3.85 348.15 3.85 346.65 -3.7 346.65 -3.7 348.15 -1.6 348.15 -1.6 381.3 -31.6 381.3 -31.6 348.15 -29.45 348.15 -29.45 346.65 -37.0 346.65 -37.0 348.15 -34.9 348.15 -34.9 381.3 -64.9 381.3 -64.9 348.15 -62.8 348.15 -62.8 346.65 -70.35 346.65 -70.35 348.15 -68.25 348.15 -68.25 381.3 -98.25 381.3 -98.25 348.15 -96.15 348.15 -96.15 346.65 -103.7 346.65 -103.7 348.15 -101.6 348.15 -101.6 381.3 -131.6 381.3 -131.6 348.15 -129.45 348.15 -129.45 346.65 -137.0 346.65 -137.0 348.15 -134.9 348.15 -134.9 381.3 -164.9 381.3 -164.9 348.15 -162.8 348.15 -162.8 346.65 -166.7 346.65 -205.0 330.35 -301.05 330.35 -338.15 329.95 -367.0 325.8 -365.4 319.65 -392.4 312.7 -394.1 319.2 -415.45 312.7 -451.2 297.05 -474.7 283.25 -470.55 277.25 -493.35 261.35 -497.75 267.6 -516.05 253.85 -517.05 252.9 -509.85 245.85 -511.5 244.2 -518.85 251.2 -519.15 250.85 -539.55 271.25 -571.3 239.5 -553.1 221.25 -553.05 221.85 -543.6 212.65 -545.25 211.0 -552.1 217.5 -561.75 205.8 -555.9 201.45 -572.55 179.1 -578.05 183.2 -590.4 164.2 -607.7 129.2 -616.8 103.75 -610.05 102.2 -616.2 75.05 -624.45 76.95 -629.65 54.45 -633.95 15.7 -633.7 -20.35 -628.95 -59.05 -626.9 -67.55 -619.65 -65.9 -613.5 -93.05 -620.35 -94.6 -619.75 -96.95 -606.2 -133.55 -588.5 -168.3 -583.85 -175.25 -578.1 -170.95 -561.45 -193.25 -568.4 -198.45 -566.9 -200.75 -552.75 -217.4 -545.5 -210.55 -543.85 -212.2 -571.3 -239.45 -539.55 -271.2 -519.65 -251.3 -519.65 -251.25 -511.75 -243.75 -510.1 -245.4 -517.7 -252.8 -513.1 -257.1 -506.5 -261.95 -502.35 -256.05 -479.55 -272.0 -484.05 -278.5 -481.65 -280.25 -447.8 -299.55 -411.85 -314.8 -404.7 -316.9 -402.95 -310.2 -376.0 -317.1 -377.95 -324.75 -374.45 -325.75 -335.3 -332.45 -293.95 -333.0 -205.0 -333.0 -166.7 -346.7 -162.8 -346.7 -162.8 -348.35 -164.9 -348.35 -164.9 -381.5 -134.9 -381.5 -134.9 -348.35 -137.0 -348.35 -137.0 -346.7 -129.45 -346.7 -129.45 -348.35 -131.6 -348.35 -131.6 -381.5 -101.6 -381.5 -101.6 -348.35 -103.7 -348.35 -103.7 -346.7 -96.15 -346.7 -96.15 -348.35 -98.25 -348.35 -98.25 -381.5 -68.25 -381.5 -68.25 -348.35 -70.35 -348.35 -70.35 -346.7 -62.8 -346.7 -62.8 -348.35 -64.9 -348.35 -64.9 -381.5 -34.9 -381.5 -34.9 -348.35 -37.0 -348.35 -37.0 -346.7 -29.45 -346.7 -29.45 -348.35 -31.6 -348.35 -31.6 -381.5 -1.6 -381.5 -1.6 -348.35 -3.7 -348.35 -3.7 -346.7 3.85 -346.7 3.85 -348.35 1.75 -348.35 1.75 -381.5 31.75 -381.5 31.75 -348.35 29.65 -348.35 29.65 -346.7 37.2 -346.7 37.2 -348.35 35.1 -348.35 35.1 -381.5 65.1 -381.5 65.1 -348.35 63.0 -348.35 63.0 -346.7 70.55 -346.7 70.55 -348.35 68.4 -348.35 68.4 -381.5 98.4 -381.5 98.4 -348.35 96.3 -348.35 96.3 -346.7 103.85 -346.7 103.85 -348.35 101.75 -348.35 101.75 -381.5 131.75 -381.5 131.75 -348.35 129.65 -348.35 129.65 -346.7 137.2 -346.7 137.2 -348.35 135.1 -348.35 135.1 -381.5 165.1 -381.5 165.1 -348.35 163.0 -348.35 163.0 -346.7 165.7 -346.7 206.3 -333.0 292.85 -333.0 333.65 -332.45 367.45 -326.7 365.8 -320.35 392.8 -313.4" fill="#707070" fill-rule="evenodd" stroke="none"/>
    <path d="M387.65 -287.0 L417.3 -276.0 468.0 -250.0 505.0 -218.35 535.65 -185.7 556.0 -156.7 570.65 -128.7 587.0 -89.0 599.3 -28.0 600.1 9.85 598.55 31.2 593.4 63.65 581.65 104.8 562.8 147.0 539.0 183.4 510.3 217.0 470.75 249.0 436.55 270.1 389.0 288.3 345.0 299.0 305.5 301.0 -291.0 301.0 -330.5 299.5 -389.45 289.4 -425.45 274.0 -458.35 256.3 -492.35 231.65 -515.7 210.3 -535.0 187.0 -554.35 159.65 -571.0 128.3 -583.0 99.0 -593.0 65.65 -600.35 21.0 -599.7 -23.0 -595.0 -53.0 -586.35 -86.35 -575.7 -117.7 -565.0 -139.7 -541.7 -175.7 -519.7 -203.7 -495.7 -227.0 -469.0 -247.0 -446.35 -261.0 -411.0 -279.0 -380.35 -287.7 -337.0 -297.0 -307.0 -302.0 295.0 -302.35 335.0 -298.35 387.65 -287.0" fill="#969696" fill-rule="evenodd" stroke="none"/>
    <path d="M373.1 -110.35 L383.9 -95.75 393.1 -79.95 400.5 -63.2 406.15 -45.65 409.85 -27.55 411.6 -9.15 411.4 9.35 409.25 27.75 405.1 45.75 399.1 63.15 391.3 79.75 381.8 95.3 370.65 109.65 358.1 122.6 344.2 134.0 329.25 143.7 Q321.3 147.65 313.3 151.55 L229.95 238.95 -243.0 238.95 -331.75 145.65 -346.55 135.65 -360.15 123.95 -372.4 110.7 -383.2 96.1 -392.4 80.35 -399.85 63.55 -405.45 46.05 -409.15 27.95 -410.9 9.5 -410.7 -9.0 -408.55 -27.35 -404.45 -45.35 -398.45 -62.8 -390.65 -79.4 -381.1 -94.95 -370.0 -109.3 -357.4 -122.25 -343.55 -133.65 -328.55 -143.35 -237.5 -241.0 -203.0 -242.5 189.5 -242.0 256.0 -240.5 332.45 -145.3 347.2 -135.25 360.8 -123.55 373.1 -110.35" fill="#7f7f7f" fill-rule="evenodd" stroke="none"/>
    <path d="M277.1 -111.15 L275.5 -103.95 271.7 -96.85 265.85 -89.85 257.9 -83.05 247.95 -76.45 236.05 -70.15 222.35 -64.2 206.9 -58.65 186.9 -52.75 170.8 -48.65 148.2 -44.0 130.45 -40.95 108.4 -37.9 85.55 -35.4 62.0 -33.5 38.0 -32.25 13.7 -31.6 -10.7 -31.6 -35.0 -32.25 -59.0 -33.5 -82.5 -35.4 -105.4 -37.9 -127.45 -40.95 -148.45 -44.6 -168.3 -48.8 -186.85 -53.5 -203.8 -58.6 -219.35 -64.2 -233.05 -70.15 -244.95 -76.45 -254.9 -83.05 -262.85 -89.85 -268.7 -96.85 -272.45 -103.95 -274.1 -111.15 -273.55 -118.35 -249.0 -124.35 -211.0 -132.35 -175.7 -135.7 -148.2 -134.5 -146.45 -129.75 -142.1 -121.2 -136.65 -113.0 -130.15 -105.1 -122.65 -97.65 -114.15 -90.65 -104.85 -84.2 -94.7 -78.35 -83.8 -73.1 -72.3 -68.5 -60.2 -64.65 -47.7 -61.55 -34.8 -59.15 -21.65 -57.55 -8.35 -56.8 5.0 -56.8 18.3 -57.55 31.45 -59.15 44.35 -61.55 56.9 -64.65 68.95 -68.5 80.45 -73.1 91.35 -78.35 101.5 -84.2 110.85 -90.65 119.3 -97.65 126.8 -105.1 133.3 -113.0 138.75 -121.2 143.1 -129.75 144.15 -132.6 195.0 -128.35 247.0 -120.35 277.1 -111.15" fill="#434343" fill-rule="evenodd" stroke="none"/>
    <path d="M58.0 33.25 L81.55 35.1 104.4 37.6 126.45 40.7 145.45 43.9 169.8 49.15 185.35 52.95 201.5 58.0 218.35 63.95 232.05 69.9 243.95 76.2 253.9 82.75 261.85 89.55 267.7 96.55 271.5 103.7 273.1 110.85 243.0 120.1 191.0 128.1 146.8 131.95 145.75 129.15 141.4 120.6 135.95 112.4 129.45 104.5 121.95 97.05 113.5 90.05 104.15 83.6 94.0 77.75 64.95 63.9 52.85 60.05 40.35 56.95 27.45 54.55 14.3 52.95 1.0 52.15 -12.35 52.15 -25.65 52.95 -38.8 54.55 -63.2 61.4 -75.95 65.9 -87.8 71.5 -108.85 83.95 -118.15 90.4 -126.65 97.35 -134.15 104.85 -140.65 112.7 -146.1 120.95 -150.45 129.5 -152.2 134.25 -179.7 135.4 -215.0 132.1 -253.0 124.1 -277.55 118.05 -278.1 110.85 -276.5 103.7 -272.7 96.55 -266.85 89.55 -258.9 82.75 -248.95 76.2 -237.05 69.9 -223.35 63.95 -207.9 58.35 -172.3 48.55 -152.45 44.35 -131.15 40.65 -109.4 37.6 -86.5 35.1 -63.0 33.25 -39.0 31.95 -14.7 31.3 9.7 31.3 34.0 31.95 58.0 33.25" fill="#434343" fill-rule="evenodd" stroke="none"/>
    <path d="M1.4 -57.25 L6.55 -56.4 11.2 -54.75 15.15 -52.45 18.15 -49.5 20.0 -46.2 20.65 -42.7 20.65 38.4 20.0 41.9 18.15 45.2 15.15 48.15 11.2 50.45 6.55 52.1 1.4 52.95 -3.85 52.95 -9.0 52.1 -13.65 50.45 -17.6 48.15 -20.6 45.2 -22.45 41.9 -23.1 38.4 -23.1 -42.7 -22.45 -46.2 -20.6 -49.5 -17.6 -52.45 -13.65 -54.75 -9.0 -56.4 -3.85 -57.25 1.4 -57.25" fill="#707070" fill-rule="evenodd" stroke="none"/>
    <path d="M25.3 162.6 L18.9 162.7 18.65 167.0 19.65 178.65 21.0 186.35 22.05 183.75 23.9 181.1 25.3 168.3 25.3 162.6 M19.3 127.3 L24.3 133.65 28.65 132.65 34.3 134.65 49.65 134.65 59.3 135.3 72.65 134.3 78.65 137.0 83.3 140.3 90.65 150.65 93.0 151.65 98.1 155.1 99.0 155.1 101.75 155.65 104.25 156.9 106.35 158.75 107.9 161.05 108.85 163.65 109.0 165.2 109.85 162.75 111.0 153.65 112.55 147.0 113.4 144.55 115.4 144.3 119.85 145.0 121.65 162.1 122.55 166.75 126.75 171.85 128.55 169.65 127.2 149.65 128.3 148.1 131.85 146.1 133.85 147.85 141.65 167.65 144.1 168.75 148.3 172.55 149.4 174.55 151.65 182.3 153.0 180.75 154.75 177.4 157.4 175.2 164.55 171.2 167.2 170.1 169.85 171.0 178.55 172.75 183.85 176.3 185.65 175.2 190.55 175.65 193.4 178.1 203.85 197.65 206.1 198.75 208.55 200.55 210.3 202.3 213.0 208.3 219.4 209.4 217.65 205.2 222.3 174.75 225.0 168.75 227.2 163.4 229.85 161.65 232.55 166.55 234.1 164.75 236.75 167.65 235.65 176.75 237.0 178.1 239.85 177.2 241.85 181.65 245.85 170.55 247.2 171.0 242.55 208.3 288.75 220.3 289.4 221.85 289.0 226.55 287.4 232.75 285.0 238.75 282.75 243.0 239.5 233.5 233.0 233.0 229.0 229.5 225.5 224.5 209.0 218.0 205.5 220.5 201.0 221.0 196.0 220.5 192.0 219.0 188.5 216.5 186.5 213.5 188.0 205.5 184.3 207.65 181.85 209.85 179.0 211.4 172.1 212.3 163.65 211.0 156.75 207.4 151.4 203.2 149.65 200.55 148.75 198.55 143.95 199.3 143.2 199.6 140.05 200.15 136.8 199.85 133.8 198.8 131.15 197.05 130.95 196.8 130.75 196.75 130.5 196.3 129.0 194.65 127.55 191.85 127.35 190.85 125.8 187.2 125.6 187.6 123.8 190.0 121.4 191.85 118.65 193.05 115.65 193.5 112.65 193.25 109.85 192.2 107.35 190.55 105.35 188.25 104.0 185.6 103.35 182.65 103.4 179.65 104.25 176.75 105.8 174.15 105.95 174.0 106.1 173.6 105.75 174.0 103.55 175.7 100.95 176.85 98.15 177.3 95.35 177.05 92.7 176.15 90.35 174.55 88.5 172.5 87.25 170.0 86.65 167.3 86.75 164.5 87.05 163.4 76.3 160.3 80.0 166.65 80.4 168.65 82.9 169.9 85.0 171.75 86.6 174.05 87.55 176.65 87.8 179.45 87.3 182.2 86.2 184.75 86.15 184.8 91.5 192.3 92.3 191.8 95.45 190.9 98.65 190.75 101.8 191.45 104.65 192.85 107.05 194.95 108.85 197.6 109.95 200.55 110.25 203.75 109.7 206.9 108.4 209.8 106.4 212.35 103.85 214.3 100.9 215.6 97.7 216.15 94.5 215.85 91.45 214.8 90.85 214.4 90.5 214.65 87.55 215.95 84.35 216.45 81.15 216.2 78.15 215.15 75.45 213.35 73.9 211.6 73.1 212.7 70.5 214.65 67.55 215.95 64.35 216.45 61.15 216.2 58.15 215.15 55.45 213.35 53.35 211.0 51.9 208.15 51.2 205.05 49.65 201.0 49.0 194.65 49.0 192.0 48.3 187.65 44.0 176.0 41.3 166.0 39.75 162.4 37.35 162.45 38.65 176.0 39.25 179.3 40.95 180.6 43.0 183.25 44.35 186.45 45.0 189.9 44.9 193.4 44.0 196.8 42.4 199.8 40.2 202.25 37.5 204.0 34.5 204.95 31.4 205.0 28.4 204.2 25.65 202.55 25.15 202.1 24.35 205.7 22.75 209.1 20.55 211.9 17.85 213.9 14.85 214.95 11.75 215.0 8.7 214.1 5.95 212.2 3.65 209.55 1.9 206.2 0.85 202.4 0.55 198.4 1.05 194.5 2.3 190.85 4.25 187.7 7.3 180.0 9.65 166.0 9.6 162.85 -9.1 162.8 -8.7 173.3 -7.0 183.0 -5.7 187.65 -3.35 193.0 -3.0 198.0 -3.05 198.2 -2.7 200.3 -2.8 204.25 -3.65 208.1 -5.25 211.5 -7.45 214.25 -10.15 216.25 -13.15 217.3 -16.25 217.35 -19.3 216.45 -22.05 214.55 -24.35 211.9 -26.1 208.55 -27.15 204.8 -27.45 200.85 -26.95 196.9 -25.7 193.3 -23.75 190.15 -22.25 188.7 -21.7 186.65 -20.35 178.3 -18.55 162.65 -20.9 162.6 -27.1 191.0 -28.8 194.5 -31.15 197.45 -33.9 199.65 -37.0 200.95 -40.15 201.3 -43.15 200.65 -45.9 199.05 -48.2 196.6 -49.85 193.5 -50.75 189.85 -50.9 185.95 -50.3 182.0 -43.7 162.2 -55.35 161.3 -58.7 160.0 -62.0 157.65 -67.55 165.2 -54.8 182.75 -51.9 188.55 -51.45 193.85 -51.7 197.4 -53.9 205.2 -56.15 208.1 -58.6 209.65 -63.25 210.1 -66.8 209.85 -70.35 207.85 -94.05 181.2 -95.35 182.0 -96.25 185.0 -98.75 187.75 -101.2 189.4 -104.75 191.05 -108.7 191.3 -111.65 191.05 -111.3 191.65 -110.35 195.05 -110.15 198.55 -110.75 201.9 -112.1 204.95 -114.15 207.5 -116.75 209.35 -119.75 210.4 -122.9 210.55 -128.5 209.15 -131.5 207.65 -133.95 204.9 -135.7 201.5 -136.6 197.0 -135.4 193.1 -134.8 188.1 -141.1 161.0 -141.25 159.65 -140.15 157.65 -137.25 157.0 -134.35 157.4 -127.25 174.75 -124.15 179.65 -121.25 183.0 -120.2 183.4 -122.7 179.3 -127.0 170.65 -127.35 166.4 -126.35 163.5 -126.0 161.3 -133.7 139.3 -130.35 135.65 -126.35 135.65 -114.7 153.65 -112.95 155.3 -108.0 156.55 -96.0 155.0 -89.35 143.65 -81.0 136.3 -74.7 134.65 -38.35 132.3 -31.7 134.3 -31.35 120.0 -11.35 121.3 -9.0 102.0 -0.7 101.3 3.3 122.65 17.3 127.3 19.3 127.3" fill="#707070" fill-rule="evenodd" stroke="none"/>
    <path d="M-371.7 -109.35 L-362.35 -122.7 -336.35 -163.35 -329.35 -169.7 -326.0 -170.7 -323.35 -170.7 -317.7 -168.0 -296.35 -154.7 -295.0 -151.35 -295.0 -147.35 -296.35 -142.35 -299.35 -136.35 -330.7 -86.35 -336.35 -79.35 -340.7 -75.35 -345.7 -73.7 -350.7 -73.7 -372.7 -87.0 -375.0 -88.7 -376.0 -91.35 -376.7 -96.7 -375.7 -102.0 -371.7 -109.35" fill="#707070" fill-rule="evenodd" stroke="none"/>
    <path d="M303.2 -167.0 L304.3 -171.0 305.65 -172.35 308.75 -173.25 313.85 -169.25 330.1 -158.15 332.1 -157.7 335.4 -157.9 337.85 -157.25 341.2 -155.45 352.3 -145.9 359.2 -135.9 361.65 -129.9 361.0 -123.25 359.85 -121.0 359.2 -119.25 357.2 -117.9 353.85 -117.0 365.65 -103.9 373.0 -91.9 374.1 -86.8 375.0 -84.15 373.2 -79.0 372.3 -77.25 369.65 -76.6 366.1 -77.45 364.1 -78.35 353.4 -84.6 336.75 -100.15 342.75 -86.6 343.0 -85.0 341.0 -79.7 339.65 -72.8 337.85 -71.0 336.1 -72.15 326.3 -74.6 322.55 -76.8 298.3 -118.8 299.4 -121.9 302.55 -122.8 312.3 -127.25 318.3 -131.0 313.4 -136.8 315.65 -139.9 317.65 -141.9 319.2 -143.0 323.2 -139.0 322.55 -141.25 321.85 -147.0 316.55 -153.7 303.2 -167.0" fill="#707070" fill-rule="evenodd" stroke="none"/>
    <path d="M326.65 83.0 L330.0 83.3 363.65 106.3 366.3 110.65 362.65 113.3 349.4 130.05 349.9 130.4 352.65 133.4 354.6 137.0 355.65 141.05 355.75 145.2 354.9 149.3 353.15 152.95 350.55 156.05 347.35 158.35 343.7 159.7 339.85 160.0 336.0 159.3 332.45 157.6 329.4 154.95 327.05 151.6 325.5 147.75 324.95 143.6 325.3 139.45 326.65 135.55 328.85 132.15 331.75 129.45 335.2 127.6 339.0 126.75 341.5 126.9 330.15 117.5 329.0 125.3 318.0 160.3 316.0 162.65 313.0 163.3 308.0 162.65 298.3 160.0 294.0 156.65 291.3 154.0 290.3 149.0 303.65 112.0 307.0 108.65 310.65 108.3 319.45 109.0 313.65 104.65 312.65 101.3 326.65 83.0" fill="#707070" fill-rule="evenodd" stroke="none"/>
    <path d="M430.65 -26.0 L435.3 -27.7 438.65 -27.85 442.15 -26.2 444.5 -24.0 446.15 -21.85 447.65 -20.35 448.65 -17.5 448.65 -9.85 446.65 -5.85 431.8 8.0 430.3 7.3 426.8 7.0 425.5 6.0 426.65 4.3 429.15 2.65 427.8 1.0 426.0 0.0 424.5 0.0 423.3 -2.85 423.65 -4.5 421.65 -4.5 416.0 -2.35 416.8 -5.5 418.15 -8.85 417.8 -12.2 430.65 -26.0" fill="#707070" fill-rule="evenodd" stroke="none"/>
    <path d="M463.15 -13.2 L466.15 -12.5 469.0 -8.85 470.15 -5.0 470.3 -2.0 470.0 0.15 469.0 3.0 455.15 30.5 452.5 31.3 450.65 31.0 449.65 29.5 448.3 28.15 448.3 25.0 449.15 22.65 453.5 4.5 451.8 -4.35 452.3 -7.7 453.65 -10.0 455.8 -11.85 463.15 -13.2" fill="#707070" fill-rule="evenodd" stroke="none"/>
    <path d="M464.0 -21.35 L461.8 -15.7 459.5 -14.5 455.8 -15.7 453.15 -19.2 447.5 -28.7 440.65 -37.0 440.3 -40.35 442.3 -42.0 444.3 -43.2 446.5 -43.5 447.8 -42.7 449.65 -41.2 451.15 -39.35 461.8 -29.0 463.15 -27.0 463.65 -25.7 464.0 -23.85 464.0 -21.35" fill="#707070" fill-rule="evenodd" stroke="none"/>
    <path d="M-257.45 174.75 L-252.15 169.85 -249.9 170.3 -242.35 170.55 -236.8 173.2 -234.6 176.3 -233.9 178.1 -237.25 208.55 -233.0 207.65 -229.9 206.55 -227.9 205.2 -224.8 204.1 -221.0 204.1 -214.6 206.75 -213.45 202.75 -210.6 201.0 -207.7 198.1 -205.0 196.1 -198.8 193.2 -196.35 192.55 -193.45 193.85 -186.6 188.75 -191.2 171.4 -190.85 169.05 -189.6 167.75 -187.35 166.9 -184.2 166.55 -183.1 167.65 -176.35 182.75 -174.15 182.1 -173.45 165.2 -171.9 159.2 -171.0 157.0 -169.25 155.4 -165.7 153.65 -163.45 153.0 -155.7 152.1 -153.7 153.0 -151.25 153.65 -147.9 155.4 -145.25 157.85 -138.15 188.3 -138.35 191.4 -139.25 194.3 -143.9 201.0 -147.25 203.0 -151.0 204.1 -154.6 204.55 -161.45 204.1 -161.45 208.55 -164.8 214.75 -167.9 216.75 -172.15 217.85 -179.0 216.3 -181.45 215.0 -184.35 211.85 -186.8 212.1 -188.6 213.85 -192.8 217.2 -195.45 218.3 -200.6 217.2 -206.6 217.85 -211.0 221.65 -211.9 224.3 -213.7 226.1 -215.7 226.75 -218.6 227.2 -223.45 227.0 -230.35 227.85 -233.0 227.65 -237.7 226.55 -243.7 222.55 -245.25 223.65 -248.6 225.2 -253.7 225.0 -259.45 221.0 -257.45 226.75 -257.25 228.55 -258.15 231.65 -259.0 233.2 -261.0 235.65 -263.0 237.2 -265.45 236.75 -270.15 234.75 -272.6 232.55 -274.6 229.85 -276.15 226.3 -277.7 214.75 -276.35 212.75 -269.9 210.3 -266.8 209.85 -263.0 210.75 -258.6 176.75 -257.45 174.75" fill="#707070" fill-rule="evenodd" stroke="none"/>
    <path d="M-371.0 77.0 L-366.8 77.2 -356.15 82.55 -346.6 89.2 -338.05 96.35 -342.8 86.55 -342.8 83.85 -339.45 73.0 -337.0 71.2 -334.8 71.0 -332.35 72.75 -324.6 75.65 -322.6 76.75 -318.7 82.65 -299.0 118.3 -299.0 119.65 -300.2 122.15 -301.7 122.15 -304.35 122.8 -307.2 124.15 -309.7 126.15 -314.7 128.5 -318.1 131.05 -314.15 135.4 -314.35 137.65 -315.7 139.65 -317.25 141.2 -318.6 141.65 -319.45 141.65 -323.25 138.55 -322.6 141.0 -322.35 145.4 -321.0 148.3 -303.0 168.75 -303.9 170.55 -305.0 171.85 -308.6 173.4 -330.35 157.4 -338.8 156.75 -346.6 150.55 -353.7 143.85 -356.35 140.55 -361.0 129.85 -361.45 127.2 -361.25 125.4 -360.6 123.0 -358.35 118.75 -355.9 117.65 -354.35 117.2 -355.0 116.75 -363.0 107.65 -370.15 96.3 -372.35 91.4 -373.7 86.55 -373.9 81.85 -373.45 77.85 -371.0 77.0" fill="#707070" fill-rule="evenodd" stroke="none"/>
    <path d="M242.4 -226.0 L243.4 -229.6 245.5 -232.8 248.5 -235.5 252.3 -237.45 256.55 -238.6 261.05 -238.8 265.5 -238.15 269.6 -236.55 273.15 -234.2 275.85 -231.2 277.6 -227.8 278.25 -224.15 278.1 -196.9 276.55 -193.5 273.95 -190.5 270.55 -188.15 267.2 -186.85 266.3 -183.45 265.2 -181.9 263.2 -180.6 261.0 -179.9 255.85 -180.8 253.0 -184.35 251.8 -188.05 249.4 -189.25 246.25 -191.95 244.0 -195.2 242.8 -198.75 242.4 -226.0" fill="#707070" fill-rule="evenodd" stroke="none"/>
    <path d="M-56.35 -175.0 L-63.35 -182.3 -59.35 -173.35 -50.9 -167.55 -56.35 -175.0 M-21.95 -185.9 L-22.8 -184.25 -24.2 -182.75 -25.45 -162.95 -22.5 -162.85 -19.3 -163.2 -19.2 -164.7 -21.05 -184.9 -21.95 -185.9 M135.4 -199.35 L135.8 -199.35 135.5 -198.1 135.55 -197.55 135.05 -194.5 134.5 -193.2 134.5 -191.0 138.85 -172.1 141.25 -175.45 141.4 -181.35 139.55 -192.35 139.3 -195.7 137.1 -199.25 136.85 -199.45 135.2 -201.45 134.3 -203.5 135.25 -200.7 135.4 -199.35 M-244.0 -222.8 L-243.35 -225.6 -241.75 -228.15 -239.4 -230.3 -236.4 -231.9 -233.0 -232.85 -229.3 -233.05 -225.65 -232.6 -222.2 -231.45 -219.2 -229.65 -216.85 -227.4 -215.3 -224.75 -214.6 -221.9 -214.8 -219.05 -215.95 -216.4 -216.15 -216.1 -215.8 -211.35 -215.6 -211.3 -215.35 -212.05 -213.7 -214.75 -211.45 -216.95 -208.7 -218.6 -205.6 -219.45 -202.4 -219.6 -199.3 -218.95 -196.5 -217.55 -194.1 -215.5 -192.35 -212.9 -188.7 -203.6 -188.35 -204.7 -186.7 -207.4 -184.45 -209.65 -181.7 -211.25 -178.6 -212.15 -175.4 -212.25 -172.3 -211.6 -169.5 -210.2 -167.1 -208.15 -165.35 -205.55 -156.7 -197.2 -154.7 -198.0 -147.4 -198.25 -148.0 -206.0 -139.35 -211.0 -127.35 -215.0 -118.0 -219.35 -110.7 -223.7 -92.4 -214.1 -90.6 -215.45 -86.8 -217.45 -83.9 -217.25 -78.6 -213.7 -75.5 -212.8 -74.5 -214.7 -72.45 -216.45 -69.7 -217.45 -66.45 -217.6 -62.9 -216.95 -59.25 -215.5 -55.75 -213.35 -52.65 -210.65 -50.1 -207.5 -48.3 -204.2 -47.35 -200.9 -47.25 -197.85 -48.1 -195.15 -49.05 -193.95 -48.15 -187.7 -43.0 -173.45 -38.85 -164.5 -37.25 -162.75 -36.35 -163.35 -35.15 -163.3 -40.05 -182.15 -41.6 -183.6 -43.35 -186.35 -44.4 -189.5 -44.7 -192.8 -44.2 -196.05 -43.0 -199.1 -41.15 -201.75 -38.75 -203.75 -35.95 -205.1 -32.95 -205.6 -29.9 -205.3 -27.0 -204.15 -25.95 -203.4 -24.75 -207.3 -22.8 -210.65 -20.35 -213.25 -17.4 -214.95 -14.3 -215.6 -11.1 -215.15 -8.1 -213.7 -5.45 -211.25 -3.3 -208.0 -1.8 -204.2 -1.05 -200.0 -1.15 -195.75 -2.0 -191.65 -3.55 -187.95 -5.8 -184.95 -6.9 -184.05 -9.0 -164.0 9.3 -164.0 6.65 -183.7 5.1 -187.8 5.05 -187.85 3.15 -191.6 2.0 -195.8 1.65 -200.3 2.1 -204.7 3.35 -208.8 5.35 -212.3 7.95 -215.05 10.95 -216.8 14.2 -217.45 17.5 -217.0 20.6 -215.45 23.35 -212.9 25.55 -209.55 27.1 -205.55 27.9 -201.15 27.8 -196.7 26.95 -192.4 25.3 -188.55 23.0 -185.4 20.6 -183.45 18.15 -164.0 21.3 -164.7 23.65 -180.0 28.0 -192.85 30.65 -197.5 34.3 -200.0 34.3 -199.75 35.7 -200.85 38.1 -201.85 40.7 -202.2 43.3 -201.85 45.75 -200.85 47.9 -199.2 49.6 -197.1 50.8 -194.65 51.35 -191.95 51.25 -189.2 50.5 -186.6 45.9 -164.0 46.15 -163.85 46.1 -163.65 47.8 -163.85 64.25 -167.65 56.0 -182.35 51.3 -196.35 51.65 -196.85 51.15 -198.1 50.8 -200.6 51.1 -203.1 52.0 -205.45 53.45 -207.45 55.4 -209.1 57.65 -210.15 60.1 -210.65 62.6 -210.5 65.0 -209.75 67.1 -208.45 68.85 -206.65 70.05 -204.45 72.3 -203.2 74.15 -202.7 78.0 -205.35 81.15 -208.2 85.0 -210.7 89.65 -208.85 91.15 -206.85 92.3 -197.85 92.4 -197.45 94.55 -198.65 98.05 -199.55 101.7 -199.6 105.2 -198.7 108.4 -197.0 111.1 -194.5 113.0 -193.25 112.8 -194.85 111.1 -198.0 111.2 -201.15 112.1 -204.1 113.65 -206.7 115.85 -208.8 118.5 -210.25 121.45 -211.0 124.5 -210.95 127.5 -210.1 130.25 -208.55 132.55 -206.35 134.2 -203.75 133.9 -206.2 134.3 -208.7 135.45 -211.0 137.25 -212.95 139.5 -214.55 142.2 -215.6 145.1 -216.0 148.0 -215.85 150.75 -215.05 153.2 -213.75 155.15 -211.9 156.5 -209.75 157.15 -207.35 157.1 -204.85 156.3 -202.45 155.3 -200.95 154.4 -199.0 153.2 -197.25 153.2 -196.5 157.0 -200.35 166.85 -211.8 168.75 -213.15 174.55 -212.8 181.85 -208.8 182.1 -210.6 183.0 -213.7 184.3 -216.6 189.85 -219.45 196.75 -220.6 199.65 -220.15 202.1 -219.25 204.3 -217.45 207.0 -212.35 208.55 -213.0 209.85 -212.6 209.45 -210.1 210.1 -211.45 208.55 -198.8 204.1 -188.15 202.3 -186.35 199.85 -185.45 195.65 -160.8 194.55 -158.8 193.2 -157.7 191.0 -157.25 189.0 -157.9 187.2 -159.25 186.55 -161.25 187.55 -163.45 186.55 -185.9 183.2 -190.15 171.0 -177.45 167.65 -176.15 164.1 -176.35 160.1 -175.9 151.4 -171.0 152.1 -167.25 151.2 -165.25 149.65 -164.6 146.55 -164.35 143.85 -164.6 141.15 -162.1 141.65 -160.0 140.65 -158.5 138.65 -157.85 136.15 -156.5 134.15 -156.85 132.8 -157.35 123.5 -182.35 121.2 -186.45 120.55 -186.5 117.7 -187.75 115.15 -189.6 114.35 -190.6 115.45 -180.75 121.3 -168.2 128.15 -156.0 128.15 -153.85 127.5 -152.35 124.5 -150.5 123.3 -150.35 122.0 -150.35 120.8 -151.35 107.55 -167.6 102.0 -160.35 88.65 -155.7 82.0 -147.7 77.3 -140.35 74.65 -135.0 72.0 -131.0 64.3 -123.0 60.0 -119.35 47.65 -117.7 42.65 -121.0 36.65 -123.35 34.3 -125.35 35.65 -133.7 28.3 -123.0 24.3 -122.0 20.65 -124.7 20.0 -129.0 22.0 -135.0 21.3 -136.7 14.3 -136.0 9.0 -134.7 7.65 -125.0 3.3 -121.35 0.3 -103.7 -1.7 -102.35 -7.0 -103.0 -9.35 -119.35 -15.7 -127.35 -15.7 -134.35 -36.35 -135.35 -68.0 -139.7 -82.35 -143.7 -90.35 -148.0 -101.0 -152.7 -109.35 -161.35 -111.0 -162.0 -111.7 -145.7 -113.35 -144.7 -115.7 -144.35 -119.0 -146.0 -120.7 -150.0 -138.0 -165.35 -144.35 -165.7 -146.7 -166.35 -149.35 -165.0 -153.35 -164.7 -168.35 -180.0 -173.0 -180.35 -181.0 -186.7 -182.05 -188.45 -182.6 -188.65 -185.25 -190.4 -187.3 -192.75 -187.6 -193.3 -188.0 -190.35 -190.0 -187.0 -187.35 -159.35 -189.7 -157.0 -193.0 -156.0 -196.0 -157.35 -204.0 -182.7 -206.35 -184.35 -209.35 -187.0 -213.35 -199.0 -214.3 -200.05 -215.75 -202.85 -215.9 -203.55 -216.35 -189.7 -217.65 -186.35 -217.7 -185.7 -217.8 -185.5 -216.9 -182.7 -216.85 -179.55 -217.75 -176.5 -219.5 -173.85 -222.05 -171.7 -225.25 -170.25 -228.8 -169.55 -232.6 -169.65 -236.35 -170.5 -239.8 -172.15 -242.8 -174.4 -245.1 -177.15 -246.55 -180.25 -247.1 -183.45 -244.0 -222.8" fill="#707070" fill-rule="evenodd" stroke="none"/>
    <path d="M214.3 -28.85 L212.8 -31.5 215.3 -34.5 217.65 -34.85 218.3 -36.2 218.15 -38.2 219.5 -39.5 221.5 -40.2 223.5 -39.5 223.3 -38.35 224.5 -36.5 225.8 -33.0 226.15 -30.5 225.15 -27.7 221.5 -28.7 219.15 -28.35 216.3 -28.85 214.3 -28.85" fill="#707070" fill-rule="evenodd" stroke="none"/>
    <path d="M228.0 -47.7 L230.0 -47.85 230.8 -46.0 232.0 -45.2 232.15 -44.0 230.3 -41.35 229.15 -40.85 227.0 -41.0 227.15 -43.7 227.0 -45.2 228.0 -47.7" fill="#707070" fill-rule="evenodd" stroke="none"/>
    <path d="M217.5 -43.5 L221.15 -45.2 223.15 -46.5 225.15 -47.2 225.15 -43.7 224.8 -42.2 223.3 -41.2 217.15 -40.5 216.65 -42.2 217.5 -43.5" fill="#707070" fill-rule="evenodd" stroke="none"/>
    <path d="M186.0 -64.5 L194.8 -62.7 198.65 -60.2 201.8 -56.85 198.55 -56.0 202.55 -52.7 212.1 -42.0 213.65 -41.8 216.3 -36.45 213.1 -35.25 212.1 -36.35 212.0 -35.0 212.2 -34.0 211.75 -33.35 210.75 -32.35 209.4 -32.0 205.1 -34.7 204.2 -35.15 204.3 -36.8 205.4 -38.9 205.85 -40.0 207.0 -40.6 208.0 -40.8 208.65 -42.15 206.85 -44.0 198.55 -51.35 193.85 -54.75 170.8 -48.65 132.5 -41.0 129.8 -37.0 124.0 -24.7 123.3 -21.5 122.15 -21.35 123.0 -19.5 122.0 -17.85 120.5 -16.7 119.5 -18.5 118.3 -19.5 117.0 -21.85 116.8 -23.7 121.3 -24.0 119.8 -24.5 118.3 -25.85 119.0 -27.7 120.3 -28.5 122.3 -29.2 129.3 -42.7 140.3 -52.7 151.8 -60.0 157.1 -62.75 164.3 -64.7 170.5 -65.35 186.0 -64.5" fill="#707070" fill-rule="evenodd" stroke="none"/>
    <path d="M247.4 -233.75 L200.0 -220.0 154.95 -202.6 127.9 -187.8 124.2 -184.8 114.95 -172.6 96.5 -145.0 65.9 -106.1 58.3 -99.0 54.35 -90.8 49.0 -73.0 43.9 -51.1 39.45 -37.75 37.35 -28.85 35.4 -8.8 36.3 23.2 36.75 27.35 54.9 97.9 76.9 137.95 111.95 172.95 137.0 190.3 154.0 198.0 181.0 212.65 213.0 221.65 223.65 228.65 229.95 238.95 -243.0 238.95 -238.1 233.25 -218.1 222.95 -189.35 211.0 -149.1 199.95 -130.35 187.3 -121.0 174.3 -106.7 156.0 -70.25 118.25 -61.8 105.35 -51.15 80.95 -48.6 73.4 -39.0 37.0 -35.2 17.2 -34.45 9.45 -35.7 -35.7 -39.7 -54.35 -50.1 -85.1 -74.1 -123.1 -105.7 -159.7 -145.0 -195.0 -155.1 -200.85 -159.85 -202.85 -175.0 -206.35 -195.0 -216.5 -217.0 -225.0 -237.5 -241.0 -203.0 -242.5 189.5 -242.0 256.0 -240.5 251.55 -236.0 247.4 -233.75" fill="#ffffff" fill-opacity="0.14901961" fill-rule="evenodd" stroke="none"/>
    <path d="M-316.0 84.0 L-308.95 98.1 -304.95 104.55 -298.35 112.3 -283.8 124.45 -269.0 134.3 -258.0 139.5 -237.0 146.5 -206.5 153.0 -183.5 154.5 -186.0 167.5 -189.0 177.5 -193.0 184.0 -199.0 189.5 -252.5 188.5 -265.35 187.0 -286.5 183.5 -302.0 178.0 -318.0 170.0 -336.0 157.0 -347.5 146.5 -364.0 126.5 -373.45 110.1 -385.0 83.0 -392.0 63.5 -377.0 49.0 -335.0 41.0 -326.5 59.0 -316.0 84.0" fill="#ffffff" fill-opacity="0.14901961" fill-rule="evenodd" stroke="none"/>
    <path d="M385.25 83.0 L373.7 110.1 364.2 126.5 347.7 146.5 336.2 157.0 318.2 170.0 302.2 178.0 286.7 183.5 265.6 187.0 252.7 188.5 199.2 189.5 193.25 184.0 189.2 177.5 186.2 167.5 183.7 154.5 206.7 153.0 237.2 146.5 258.2 139.5 269.25 134.3 284.05 124.45 298.6 112.3 305.15 104.55 309.15 98.1 316.2 84.0 326.7 59.0 335.2 41.0 377.2 49.0 392.2 63.5 385.25 83.0" fill="#ffffff" fill-opacity="0.14901961" fill-rule="evenodd" stroke="none"/>
    <path d="M-347.5 -147.0 L-336.0 -157.5 -318.0 -170.5 -302.0 -178.5 -286.5 -184.0 -265.35 -187.5 -252.5 -189.0 -199.0 -190.0 -193.0 -184.5 -189.0 -178.0 -186.0 -168.0 -183.5 -155.0 -206.5 -153.5 -237.0 -147.0 -258.0 -140.0 -269.0 -134.85 -283.8 -125.0 -298.35 -112.85 -304.95 -105.05 -308.95 -98.6 -316.0 -84.5 -326.5 -59.55 -335.0 -41.55 -377.0 -49.55 -392.0 -64.05 -385.0 -83.5 -373.45 -110.6 -364.0 -127.0 -347.5 -147.0" fill="#ffffff" fill-opacity="0.14901961" fill-rule="evenodd" stroke="none"/>
    <path d="M302.2 -178.5 L318.2 -170.5 336.2 -157.5 347.7 -147.0 364.2 -127.0 373.7 -110.6 385.25 -83.5 392.2 -64.05 377.2 -49.55 335.2 -41.55 326.7 -59.55 316.2 -84.5 309.15 -98.6 305.15 -105.05 298.6 -112.85 284.05 -125.0 269.25 -134.85 258.2 -140.0 237.2 -147.0 206.7 -153.5 183.7 -155.0 186.2 -168.0 189.2 -178.0 193.25 -184.5 199.2 -190.0 252.7 -189.0 265.6 -187.5 286.7 -184.0 302.2 -178.5" fill="#ffffff" fill-opacity="0.14901961" fill-rule="evenodd" stroke="none"/>
    <path d="M481.95 -177.55 L486.95 -180.6 488.35 -178.35 485.3 -176.5 510.0 -117.3 507.5 -116.3 481.95 -177.55" fill="#707070" fill-rule="evenodd" stroke="none"/>
    <path d="M475.2 -99.75 L472.95 -98.3 438.05 -151.95 435.55 -150.7 434.4 -153.1 439.0 -155.4 475.2 -99.75" fill="#707070" fill-rule="evenodd" stroke="none"/>
    <path d="M482.6 69.1 L484.0 66.85 488.6 69.8 463.0 134.05 463.75 134.5 462.45 136.8 459.65 135.25 485.35 70.85 482.6 69.1" fill="#707070" fill-rule="evenodd" stroke="none"/>
    <path d="M496.6 154.3 L497.8 151.9 498.5 152.25 535.45 93.3 541.15 95.75 540.1 98.2 536.5 96.65 499.45 155.7 496.6 154.3" fill="#707070" fill-rule="evenodd" stroke="none"/>
    <path d="M400.3 -246.0 L397.5 -243.85 396.65 -244.35 399.3 -248.0 406.65 -252.0 435.65 -232.35 433.65 -225.0 431.0 -220.7 430.3 -221.7 431.15 -224.7 400.3 -246.0" fill="#707070" fill-rule="evenodd" stroke="none"/>
    <path d="M343.9 -219.85 L351.4 -224.7 358.7 -225.2 362.05 -224.6 365.2 -223.2 367.95 -221.15 370.1 -218.5 371.55 -215.5 372.25 -212.3 372.15 -209.0 371.2 -205.9 369.5 -203.1 364.4 -197.75 359.65 -195.7 356.45 -194.75 353.05 -194.6 349.7 -195.25 346.55 -196.6 343.85 -198.7 341.65 -201.3 340.2 -204.3 339.5 -207.55 339.65 -210.8 340.55 -213.95 343.9 -219.85" fill="#707070" fill-rule="evenodd" stroke="none"/>
    <path d="M384.85 -209.05 L379.0 -213.0 381.0 -220.35 383.65 -224.7 384.3 -223.7 383.5 -220.7 414.3 -199.35 417.15 -201.5 418.0 -201.0 415.3 -197.35 408.0 -193.35 399.95 -198.8 399.8 -196.5 400.0 -191.0 398.15 -186.5 393.5 -181.4 390.55 -179.7 387.3 -178.7 383.8 -178.55 380.4 -179.2 377.2 -180.6 374.4 -182.7 372.2 -185.4 370.7 -188.5 370.0 -191.8 370.15 -195.15 371.1 -198.35 375.3 -204.85 378.15 -206.7 384.85 -209.05" fill="#707070" fill-rule="evenodd" stroke="none"/>
    <path d="M-17.0 -13.9 L-14.6 -19.35 -11.45 -23.7 -7.7 -26.75 -3.55 -28.35 0.7 -28.35 4.8 -26.75 8.55 -23.7 11.7 -19.35 14.15 -13.9 15.65 -7.75 16.15 -1.2 15.65 5.35 14.15 11.5 11.7 16.95 8.55 21.3 4.8 24.4 0.7 25.95 -3.55 25.95 -7.7 24.4 -11.45 21.3 -14.6 16.95 -17.0 11.5 -18.5 5.35 -19.0 -1.2 -18.5 -7.75 -17.0 -13.9" fill="#707070" fill-rule="evenodd" stroke="none"/>
    <path d="M525.0 -128.65 L525.9 -127.7 526.05 -126.4 525.4 -125.25 524.25 -124.7 522.95 -124.95 522.05 -125.9 521.9 -127.2 522.55 -128.35 523.7 -128.9 525.0 -128.65" fill="#707070" fill-rule="evenodd" stroke="none"/>
    <path d="M505.25 -153.65 L506.1 -152.7 506.3 -151.4 505.65 -150.25 504.45 -149.7 503.15 -149.95 502.25 -150.9 502.1 -152.2 502.75 -153.35 Q503.35 -153.6 503.95 -153.9 L505.25 -153.65" fill="#707070" fill-rule="evenodd" stroke="none"/>
    <path d="M505.4 -190.8 L506.3 -189.85 506.45 -188.55 505.8 -187.4 504.6 -186.85 503.35 -187.1 502.45 -188.1 502.3 -189.4 502.9 -190.5 504.1 -191.1 505.4 -190.8" fill="#707070" fill-rule="evenodd" stroke="none"/>
    <path d="M561.1 -41.0 L559.8 -41.3 558.9 -42.25 558.75 -43.55 559.4 -44.7 560.6 -45.25 561.85 -45.0 562.75 -44.0 562.9 -42.7 562.3 -41.6 561.1 -41.0" fill="#707070" fill-rule="evenodd" stroke="none"/>
    <path d="M538.5 -17.55 L537.85 -16.45 536.65 -15.9 535.35 -16.15 534.45 -17.1 534.3 -18.4 534.95 -19.55 536.15 -20.1 537.4 -19.85 538.3 -18.9 538.5 -17.55" fill="#707070" fill-rule="evenodd" stroke="none"/>
    <path d="M563.1 3.5 L563.25 4.8 562.6 5.9 561.4 6.5 560.1 6.2 559.25 5.25 559.05 3.95 559.7 2.8 Q560.3 2.55 560.9 2.25 L562.2 2.5 563.1 3.5" fill="#707070" fill-rule="evenodd" stroke="none"/>
    <path d="M470.8 192.35 L474.75 195.75 473.0 197.75 470.7 195.8 426.5 231.25 424.15 230.95 424.45 228.3 425.7 228.45 470.8 192.35" fill="#707070" fill-rule="evenodd" stroke="none"/>
    <path d="M423.15 184.9 L440.6 163.15 438.1 160.15 440.15 158.45 444.05 163.15 425.05 186.8 424.9 186.9 403.1 203.95 403.4 205.65 400.75 206.1 400.2 202.85 423.15 184.9" fill="#707070" fill-rule="evenodd" stroke="none"/>
    <path d="M518.6 130.2 L518.45 128.9 519.1 127.75 520.3 127.2 521.55 127.45 522.45 128.4 522.6 129.7 522.0 130.85 520.8 131.4 519.5 131.15 518.6 130.2" fill="#707070" fill-rule="evenodd" stroke="none"/>
    <path d="M536.4 24.1 L537.7 24.35 538.55 25.3 538.75 26.6 538.1 27.75 Q537.5 28.05 536.9 28.3 L535.6 28.05 534.7 27.1 534.55 25.8 535.2 24.65 536.4 24.1" fill="#707070" fill-rule="evenodd" stroke="none"/>
    <path d="M560.8 47.55 L561.7 48.55 561.85 49.85 561.2 51.0 560.0 51.55 558.7 51.25 557.85 50.3 557.65 49.0 558.3 47.85 559.5 47.3 560.8 47.55" fill="#707070" fill-rule="evenodd" stroke="none"/>
    <path d="M450.35 218.7 L451.25 219.65 451.4 220.95 450.75 222.1 449.55 222.65 448.3 222.4 447.4 221.4 447.25 220.1 447.85 219.0 449.05 218.4 450.35 218.7" fill="#707070" fill-rule="evenodd" stroke="none"/>
    <path d="M426.8 233.1 L426.65 231.8 427.3 230.65 428.45 230.1 429.75 230.35 430.65 231.3 430.8 232.6 430.15 233.75 429.0 234.3 427.7 234.05 426.8 233.1" fill="#707070" fill-rule="evenodd" stroke="none"/>
    <path d="M372.45 259.35 L373.35 260.3 373.5 261.6 372.85 262.75 371.65 263.3 370.4 263.05 369.5 262.1 369.35 260.8 370.0 259.65 371.15 259.1 372.45 259.35" fill="#707070" fill-rule="evenodd" stroke="none"/>
    <path d="M344.9 275.7 L345.8 276.65 345.95 277.95 345.3 279.1 344.1 279.65 342.85 279.4 341.95 278.4 341.8 277.1 342.4 276.0 343.6 275.4 344.9 275.7" fill="#707070" fill-rule="evenodd" stroke="none"/>
    <path d="M308.25 270.7 L309.1 271.65 309.3 272.95 308.65 274.1 307.45 274.65 306.15 274.4 305.25 273.4 305.1 272.1 305.75 271.0 306.95 270.4 308.25 270.7" fill="#707070" fill-rule="evenodd" stroke="none"/>
    <path d="M233.45 59.25 L234.35 60.25 234.5 61.55 233.85 62.7 232.65 63.25 231.4 63.0 230.5 62.0 230.35 60.7 230.95 59.55 232.15 59.0 233.45 59.25" fill="#707070" fill-rule="evenodd" stroke="none"/>
    <path d="M211.6 -49.6 L210.7 -50.6 210.55 -51.9 211.2 -53.0 212.4 -53.6 213.65 -53.3 214.55 -52.35 214.75 -51.05 214.1 -49.9 212.9 -49.35 211.6 -49.6" fill="#707070" fill-rule="evenodd" stroke="none"/>
    <path d="M125.15 23.4 L125.8 24.5 127.0 26.0 127.65 23.65 129.65 23.0 131.3 25.3 132.15 26.05 133.5 26.8 133.75 27.55 133.3 30.9 129.0 33.3 135.4 41.75 169.8 49.15 185.35 52.95 216.4 62.9 229.15 55.15 233.0 51.3 235.65 44.65 238.0 34.0 237.65 29.3 238.0 26.0 240.15 24.0 243.8 23.15 246.3 29.15 245.3 31.65 246.5 34.65 246.5 36.15 245.0 38.0 240.3 38.65 240.3 41.8 238.0 48.3 235.0 54.3 230.0 58.3 216.0 66.0 206.3 69.0 196.3 70.65 183.15 70.0 159.65 64.5 152.25 61.1 137.0 50.5 132.0 44.65 126.3 35.0 125.25 33.75 122.4 35.0 121.8 33.05 119.65 35.55 118.3 35.65 117.55 33.0 116.55 31.3 117.9 29.4 119.3 29.65 116.65 27.0 114.3 26.3 114.0 22.15 115.0 21.25 116.4 21.75 125.15 23.4" fill="#707070" fill-rule="evenodd" stroke="none"/>
    <path d="M-112.2 173.15 L-109.5 164.15 -106.0 156.8 -102.7 152.5 -81.35 131.3 -79.2 130.8 -73.65 133.35 -71.5 136.5 -66.35 140.65 -65.75 142.25 -62.5 138.1 -65.0 138.1 -68.25 137.3 -71.2 135.65 -73.65 133.35 -75.45 130.55 -76.5 127.35 -76.7 124.0 -69.0 110.1 -66.85 107.55 -64.15 105.55 -61.05 104.3 -57.7 103.9 -54.35 104.3 -51.25 105.55 -48.5 107.55 -46.35 110.1 -44.95 113.15 -44.3 116.45 -44.5 119.8 -45.55 123.0 -53.0 133.35 -53.4 133.75 -49.0 133.0 -44.7 134.0 -40.8 138.4 -39.7 140.65 -39.25 142.75 -39.45 146.2 -40.3 149.7 -42.15 153.0 -52.35 163.3 -60.35 162.65 -66.35 160.65 -69.0 157.0 -69.35 152.0 -68.9 147.85 -95.35 182.0 -99.5 181.3 -106.7 177.8 -112.2 173.15" fill="#707070" fill-rule="evenodd" stroke="none"/>
    <path d="M49.85 97.2 L48.75 90.1 69.0 105.4 75.25 109.35 76.85 111.8 77.75 114.65 77.9 117.7 77.3 120.8 75.95 123.75 74.0 126.3 71.55 128.35 66.55 131.0 77.4 136.75 80.3 139.2 83.4 144.55 86.55 147.85 102.3 158.0 112.1 167.0 110.3 173.2 98.3 167.65 79.65 160.0 77.65 159.65 69.65 160.1 68.1 159.85 58.75 155.0 66.1 163.2 68.3 163.85 71.0 165.4 75.2 167.2 76.3 168.3 80.3 175.65 83.35 185.3 83.8 189.15 83.3 192.5 81.95 195.1 79.75 196.9 76.85 197.65 73.5 197.4 69.8 196.15 66.1 193.95 62.55 190.95 56.1 182.75 54.75 179.65 54.1 176.75 54.1 170.75 41.65 149.2 39.2 143.65 32.1 140.3 31.4 138.75 33.4 131.4 37.2 124.1 41.65 119.4 45.2 119.0 35.2 111.65 39.65 109.65 45.85 105.65 48.55 101.85 49.85 97.2" fill="#707070" fill-rule="evenodd" stroke="none"/>
    <path d="M-87.5 186.8 L-83.5 182.3 -77.0 173.15 -65.0 162.8 -61.7 166.5 -53.35 173.3 -51.35 174.0 -53.5 178.65 -59.7 187.0 -67.7 196.15 -76.0 203.15 -81.2 206.8 -84.5 208.3 -86.85 209.0 -89.2 209.0 -90.35 207.5 -90.85 206.15 -91.2 203.5 -90.7 198.3 -88.85 190.0 -87.5 186.8" fill="#707070" fill-rule="evenodd" stroke="none"/>
    <path d="M82.85 -208.15 L85.2 -208.8 87.55 -208.8 88.7 -207.3 89.2 -206.0 89.55 -203.3 88.2 -194.0 87.2 -189.8 85.85 -186.65 81.85 -182.15 75.35 -173.0 66.9 -165.7 70.45 -164.5 73.15 -160.8 73.2 -159.7 73.95 -158.55 74.65 -156.4 95.05 -182.7 99.2 -182.05 106.35 -178.55 111.85 -173.85 109.2 -164.85 105.7 -157.55 102.35 -153.2 81.05 -132.05 78.85 -131.55 76.05 -133.05 73.3 -134.1 71.2 -137.2 68.35 -139.35 67.15 -136.8 64.9 -134.05 62.0 -131.95 58.7 -130.65 55.2 -130.2 51.7 -130.65 48.4 -131.95 45.5 -134.05 43.25 -136.8 41.75 -140.05 41.1 -143.55 41.3 -147.15 42.4 -150.55 44.35 -153.3 44.4 -153.55 46.25 -156.8 48.45 -159.0 50.25 -161.55 52.8 -164.0 54.05 -164.7 56.45 -167.15 59.3 -166.9 51.7 -173.15 49.7 -173.8 51.85 -178.5 58.05 -186.8 66.05 -196.0 74.35 -203.0 79.55 -206.65 82.85 -208.15" fill="#707070" fill-rule="evenodd" stroke="none"/>
    <path d="M-65.7 -162.8 L-67.9 -163.45 -70.6 -165.0 -74.8 -166.8 -75.9 -167.9 -79.9 -175.25 -82.95 -184.9 -83.4 -188.75 -82.9 -192.1 -81.55 -194.75 -79.35 -196.5 -76.45 -197.3 -73.1 -197.05 -69.45 -195.75 -65.7 -193.55 -62.15 -190.55 -55.7 -182.35 -54.35 -179.25 -53.7 -176.35 -53.7 -170.35 -41.0 -147.0 -38.85 -141.7 -40.85 -134.35 -44.65 -127.05 -47.9 -123.6 -46.0 -119.7 -50.35 -119.0 -58.0 -114.7 -60.35 -111.35 -61.7 -107.0 -61.35 -99.7 -69.4 -105.7 -75.7 -109.65 -77.3 -112.1 -78.2 -114.95 -78.35 -118.0 -77.7 -121.1 -76.4 -124.0 -74.45 -126.6 -72.0 -128.65 -68.35 -130.7 -68.25 -130.7 -84.85 -139.7 -83.75 -141.95 -87.75 -142.15 -90.85 -147.5 -93.95 -150.8 -109.75 -160.9 -119.55 -169.9 -117.75 -176.15 -105.75 -170.6 -87.1 -163.5 -85.9 -162.15 -77.1 -163.05 -75.55 -162.8 -74.1 -161.65 -73.95 -161.9 -57.35 -153.35 -65.7 -162.8" fill="#707070" fill-rule="evenodd" stroke="none"/>
    <path d="M-440.65 -210.05 L-442.2 -212.8 -439.85 -214.1 -437.4 -209.8 -472.45 -166.1 -471.75 -165.15 -473.85 -163.55 -475.8 -166.15 -440.65 -210.05" fill="#707070" fill-rule="evenodd" stroke="none"/>
    <path d="M-431.1 -166.65 L-407.25 -184.7 -402.45 -180.95 -404.05 -178.85 -407.25 -181.35 -429.2 -164.75 -447.35 -140.8 -449.75 -143.2 -447.85 -145.1 -447.6 -144.85 -431.1 -166.65" fill="#707070" fill-rule="evenodd" stroke="none"/>
    <path d="M-349.8 -214.75 L-348.7 -215.9 -316.25 -240.05 -302.15 -242.8 -301.65 -240.15 -315.15 -237.55 -344.85 -215.45 -322.9 -216.8 -322.7 -214.15 -346.8 -212.65 -349.3 -211.85 -349.8 -214.75" fill="#707070" fill-rule="evenodd" stroke="none"/>
    <path d="M-335.75 -275.5 L-325.5 -285.1 -323.65 -283.15 -334.3 -273.2 -372.8 -258.8 -375.3 -259.8 -374.2 -262.35 -352.55 -273.55 -351.3 -271.15 -361.6 -265.85 -335.75 -275.5" fill="#707070" fill-rule="evenodd" stroke="none"/>
    <path d="M-504.1 50.6 L-501.6 49.7 -486.45 91.4 -468.9 135.8 -471.4 136.8 -488.95 92.3 -504.1 50.6" fill="#707070" fill-rule="evenodd" stroke="none"/>
    <path d="M-529.85 60.1 L-527.35 59.15 -494.65 144.7 -497.15 145.65 -529.85 60.1" fill="#707070" fill-rule="evenodd" stroke="none"/>
    <path d="M431.65 -245.9 L431.5 -247.2 432.1 -248.35 433.3 -248.9 434.6 -248.65 435.5 -247.7 435.65 -246.4 435.0 -245.25 433.8 -244.7 432.55 -244.95 431.65 -245.9" fill="#707070" fill-rule="evenodd" stroke="none"/>
    <path d="M413.25 -258.65 L413.85 -259.75 415.05 -260.35 416.35 -260.05 417.25 -259.1 417.4 -257.8 416.75 -256.65 415.55 -256.1 414.3 -256.35 413.4 -257.35 413.25 -258.65" fill="#707070" fill-rule="evenodd" stroke="none"/>
    <path d="M-283.65 -297.55 L-282.75 -296.6 -282.6 -295.3 -283.25 -294.15 -284.45 -293.6 -285.7 -293.85 -286.6 -294.85 -286.75 -296.15 -286.15 -297.25 -284.95 -297.85 -283.65 -297.55" fill="#707070" fill-rule="evenodd" stroke="none"/>
    <path d="M-358.4 -287.75 L-357.5 -286.8 -357.35 -285.5 -358.0 -284.35 -359.2 -283.8 -360.45 -284.05 -361.35 -285.0 -361.5 -286.3 -360.9 -287.45 -359.7 -288.0 -358.4 -287.75" fill="#707070" fill-rule="evenodd" stroke="none"/>
    <path d="M-422.35 -256.65 L-421.1 -256.4 -420.2 -255.45 -420.0 -254.15 -420.65 -253.0 -421.85 -252.45 -423.15 -252.7 -424.05 -253.65 -424.2 -254.95 -423.55 -256.1 -422.35 -256.65" fill="#707070" fill-rule="evenodd" stroke="none"/>
    <path d="M-457.35 -208.65 L-456.7 -209.75 -455.55 -210.35 -454.25 -210.05 -453.35 -209.1 -453.2 -207.8 -453.85 -206.65 -455.0 -206.1 -456.3 -206.35 -457.2 -207.35 -457.35 -208.65" fill="#707070" fill-rule="evenodd" stroke="none"/>
    <path d="M-470.45 -191.6 L-469.15 -191.3 -468.25 -190.35 -468.1 -189.05 -468.75 -187.9 -469.95 -187.35 -471.2 -187.6 -472.1 -188.6 -472.25 -189.9 -471.65 -191.0 -470.45 -191.6" fill="#707070" fill-rule="evenodd" stroke="none"/>
    <path d="M-506.75 -134.8 L-505.9 -133.85 -505.7 -132.55 -506.35 -131.4 -507.55 -130.85 -508.85 -131.1 -509.75 -132.1 -509.9 -133.4 -509.25 -134.5 -508.05 -135.1 -506.75 -134.8" fill="#707070" fill-rule="evenodd" stroke="none"/>
    <path d="M-534.55 -120.0 L-534.7 -121.3 -534.1 -122.45 -532.9 -123.0 -531.6 -122.75 -530.7 -121.8 -530.55 -120.5 -531.2 -119.35 -532.4 -118.8 -533.65 -119.05 -534.55 -120.0" fill="#707070" fill-rule="evenodd" stroke="none"/>
    <path d="M-561.05 -51.0 L-559.85 -51.6 -558.6 -51.3 -557.7 -50.35 -557.5 -49.05 -558.15 -47.9 -559.35 -47.35 -560.65 -47.6 -561.55 -48.6 -561.7 -49.9 -561.05 -51.0" fill="#707070" fill-rule="evenodd" stroke="none"/>
    <path d="M-536.7 -28.35 L-535.4 -28.05 -534.5 -27.1 -534.35 -25.8 -535.0 -24.65 -536.2 -24.1 -537.45 -24.35 -538.35 -25.35 -538.5 -26.65 -537.9 -27.75 -536.7 -28.35" fill="#707070" fill-rule="evenodd" stroke="none"/>
    <path d="M-558.85 -5.8 L-558.7 -4.5 -559.35 -3.35 -560.5 -2.8 -561.8 -3.05 -562.7 -4.0 -562.85 -5.3 -562.2 -6.45 -561.05 -7.0 -559.75 -6.75 -558.85 -5.8" fill="#707070" fill-rule="evenodd" stroke="none"/>
    <path d="M-536.7 15.9 L-535.4 16.2 -534.5 17.15 -534.35 18.45 -535.0 19.6 -536.2 20.15 -537.45 19.9 -538.35 18.9 -538.5 17.6 -537.9 16.5 -536.7 15.9" fill="#707070" fill-rule="evenodd" stroke="none"/>
    <path d="M-559.1 41.95 L-558.95 43.25 -559.6 44.4 -560.75 44.95 -562.05 44.7 -562.95 43.75 -563.1 42.45 -562.45 41.3 -561.3 40.75 -560.0 41.0 -559.1 41.95" fill="#707070" fill-rule="evenodd" stroke="none"/>
    <path d="M-535.75 80.1 L-535.15 79.0 -533.95 78.4 -532.65 78.7 -531.75 79.65 -531.6 80.95 -532.25 82.1 -533.45 82.65 -534.7 82.4 -535.6 81.4 -535.75 80.1" fill="#707070" fill-rule="evenodd" stroke="none"/>
    <path d="M-537.9 112.35 L-537.0 113.3 -536.85 114.6 -537.45 115.75 -538.65 116.3 -539.95 116.05 -540.85 115.1 -541.0 113.8 -540.35 112.65 -539.15 112.1 -537.9 112.35" fill="#707070" fill-rule="evenodd" stroke="none"/>
    <path d="M-507.1 142.9 L-506.2 143.85 -506.05 145.15 -506.7 146.3 -507.9 146.85 -509.15 146.6 -510.05 145.65 -510.2 144.35 -509.6 143.2 -508.4 142.65 -507.1 142.9" fill="#707070" fill-rule="evenodd" stroke="none"/>
    <path d="M-502.95 186.75 L-502.05 187.7 -501.9 189.0 -502.5 190.15 -503.7 190.7 -505.0 190.45 -505.9 189.5 -506.05 188.2 -505.4 187.05 -504.2 186.5 -502.95 186.75" fill="#707070" fill-rule="evenodd" stroke="none"/>
    <path d="M-432.2 244.5 L-431.3 245.45 -431.15 246.75 -431.8 247.9 -433.0 248.45 -434.3 248.2 -435.15 247.25 -435.35 245.95 -434.7 244.8 -433.5 244.25 -432.2 244.5" fill="#707070" fill-rule="evenodd" stroke="none"/>
    <path d="M-413.85 256.4 L-412.95 257.35 -412.75 258.65 -413.4 259.8 -414.6 260.35 -415.9 260.1 -416.8 259.15 -416.95 257.85 -416.3 256.7 -415.1 256.15 -413.85 256.4" fill="#707070" fill-rule="evenodd" stroke="none"/>
    <path d="M-442.1 -51.95 L-437.15 -46.45 -435.5 -41.55 -434.8 -38.3 -434.9 -34.9 -435.55 -32.6 -431.9 -31.2 -428.85 -29.0 -426.5 -26.2 -424.9 -22.95 -424.2 -19.35 -425.7 -1.25 -426.8 3.85 -428.35 6.1 -432.6 9.0 -434.4 10.95 -432.15 11.2 -426.55 15.55 -424.15 18.35 -422.6 21.65 -421.85 25.2 -422.1 33.55 -424.45 38.8 -426.45 42.0 -429.1 44.7 -432.4 46.7 -436.05 47.95 -439.85 48.3 -443.6 47.75 -447.1 46.35 -450.15 44.2 -452.5 41.4 -454.1 38.1 -455.8 30.65 -453.25 21.0 -447.55 15.05 -440.55 11.1 -442.05 10.85 -445.55 9.5 -448.6 7.3 -450.95 4.5 -452.55 1.25 -454.25 -6.2 -454.8 -12.8 -453.75 -23.4 -455.15 -23.95 -460.8 -27.75 -463.2 -31.6 -465.05 -35.6 -465.0 -42.9 -464.1 -46.2 -462.5 -49.25 -460.2 -51.8 -457.45 -53.75 -454.35 -54.95 -451.05 -55.4 -447.8 -55.05 -444.75 -53.85 -442.1 -51.95" fill="#707070" fill-rule="evenodd" stroke="none"/>
    <path d="M-180.2 -67.2 L-162.35 -63.35 -142.85 -54.0 -137.9 -49.8 -132.0 -44.0 -123.35 -31.15 -122.7 -30.9 -121.7 -31.45 -120.7 -32.6 -119.6 -32.7 -118.9 -30.45 -118.45 -30.8 -117.7 -31.9 -116.6 -32.8 -115.35 -32.8 -115.25 -30.7 -114.25 -28.45 -114.35 -27.7 -115.35 -26.35 -116.6 -25.45 -115.35 -24.7 -114.0 -24.15 -111.9 -23.6 -111.15 -22.7 -111.45 -21.15 -112.35 -21.25 -117.6 -21.45 -122.25 -20.45 -122.9 -21.15 -123.25 -22.45 -123.0 -23.7 -121.9 -25.0 -120.5 -26.0 -119.2 -27.35 -120.0 -27.7 -122.0 -26.2 -123.2 -26.0 -124.0 -25.5 -123.85 -24.2 -124.35 -22.5 -125.35 -20.85 -126.85 -20.5 -130.5 -23.2 -131.35 -24.5 -131.35 -25.7 -130.7 -27.2 -129.0 -29.7 -127.7 -30.5 -127.7 -32.35 -134.7 -42.0 -168.3 -48.8 -186.85 -53.5 -203.8 -58.6 -211.0 -61.2 -219.7 -57.0 -225.2 -53.5 -228.85 -49.7 -232.7 -44.35 -233.5 -38.5 -234.5 -35.0 -234.7 -33.2 -235.7 -31.5 -235.35 -29.0 -234.7 -27.7 -235.7 -27.35 -236.0 -22.35 -241.0 -20.0 -242.5 -22.5 -243.85 -26.7 -242.5 -28.35 -242.7 -29.35 -244.0 -31.2 -244.0 -32.5 -242.85 -34.7 -241.35 -35.7 -240.85 -35.5 -240.0 -33.7 -239.35 -31.7 -239.5 -30.0 -238.35 -29.35 -237.2 -29.0 -237.2 -30.2 -237.35 -31.35 -238.0 -32.7 -238.5 -34.7 -238.35 -36.7 -237.2 -42.2 -235.35 -47.2 -231.7 -51.85 -223.0 -57.5 -214.2 -62.2 -209.5 -64.0 -195.7 -67.35 -180.2 -67.2" fill="#707070" fill-rule="evenodd" stroke="none"/>
    <path d="M-223.15 33.3 L-222.9 31.55 -222.0 31.0 -220.0 31.65 -218.7 32.3 -217.35 32.4 -212.25 31.55 -210.25 35.1 -213.45 38.0 -212.45 38.3 -210.7 38.3 -210.6 38.85 -209.25 39.2 -209.45 37.3 -207.25 35.75 -206.45 36.65 -204.6 37.85 -203.6 38.0 -202.7 38.55 -201.8 40.65 -204.25 44.65 -205.9 44.85 -203.6 47.75 -196.7 54.55 -190.85 53.4 -172.3 48.55 -152.45 44.35 -127.2 40.05 -126.35 39.0 -121.35 28.0 -120.6 24.25 -119.95 23.65 -119.85 22.5 -118.2 20.65 -117.6 20.5 -117.1 21.05 -116.95 21.8 -115.75 22.8 -114.85 23.05 -114.1 25.9 -114.5 26.55 -117.35 27.55 -116.85 27.55 -115.75 28.3 -115.75 29.4 -117.1 31.0 -119.5 31.3 -122.0 37.15 -126.5 44.5 -133.0 52.0 -140.85 57.65 -151.35 63.65 -158.35 67.0 -166.35 68.5 -176.5 68.0 -186.5 67.0 -191.2 65.5 -200.35 60.8 -201.45 59.65 -201.0 58.85 -197.45 58.3 -197.6 57.3 -202.6 53.4 -209.8 44.55 -211.6 43.3 -214.0 40.3 -214.35 39.0 -214.8 38.0 -215.45 38.55 -215.7 39.85 -215.6 41.4 -216.0 42.55 -218.0 43.4 -220.6 43.75 -220.6 43.0 -222.45 38.85 -222.8 37.4 -222.7 36.75 -221.9 36.1 -222.45 35.2 -223.15 33.3" fill="#707070" fill-rule="evenodd" stroke="none"/>
    <path d="M-215.0 43.55 L-214.45 45.1 -214.8 46.0 -216.9 46.65 -221.45 50.55 -223.35 49.1 -223.45 47.55 -223.15 46.3 -222.6 45.1 -221.8 44.3 -219.35 44.4 -215.0 43.55" fill="#707070" fill-rule="evenodd" stroke="none"/>
    <path d="M-227.9 45.3 L-226.45 44.65 -225.15 44.3 -224.8 45.85 -224.25 47.1 -224.35 48.65 -225.15 50.0 -225.8 50.75 -227.0 51.3 -228.0 48.2 -229.25 47.0 -227.9 45.3" fill="#707070" fill-rule="evenodd" stroke="none"/>
    <path d="M-225.45 -60.7 L-224.8 -61.85 -223.6 -62.4 -222.35 -62.15 -221.45 -61.2 -221.25 -59.9 -221.9 -58.75 -223.1 -58.2 -224.4 -58.45 -225.3 -59.4 -225.45 -60.7" fill="#707070" fill-rule="evenodd" stroke="none"/>
    <path d="M-208.25 54.45 L-209.55 54.2 -210.45 53.25 -210.6 51.95 -209.95 50.8 -208.8 50.25 -207.5 50.5 -206.6 51.45 -206.45 52.75 -207.1 53.9 -208.25 54.45" fill="#707070" fill-rule="evenodd" stroke="none"/>
    <path d="M304.6 -304.5 L331.65 -301.7 368.0 -294.85 401.9 -284.9 434.4 -271.1 465.1 -253.65 493.55 -232.7 519.4 -208.6 542.25 -181.7 561.85 -152.3 577.85 -120.8 590.15 -87.7 598.45 -53.35 602.75 -18.3 603.0 17.05 599.1 52.15 591.15 86.55 579.25 119.8 563.55 151.45 544.3 181.1 521.75 208.3 496.2 232.65 468.0 253.95 437.5 271.75 405.15 285.95 371.4 296.25 348.2 300.5 304.35 302.8 -330.0 302.7 -370.6 296.3 -404.45 285.95 -436.8 271.75 -467.3 253.95 -495.5 232.65 -521.05 208.3 -543.6 181.1 -562.85 151.45 -578.55 119.8 -590.4 86.55 -598.35 52.15 -602.25 17.05 -602.05 -18.3 -597.75 -53.35 -589.4 -87.7 -577.15 -120.8 -561.1 -152.3 -541.55 -181.7 -518.7 -208.6 -492.85 -232.7 -464.4 -253.65 -433.7 -271.1 -401.2 -284.9 -367.25 -294.85 -330.3 -300.75 -305.85 -304.2 -289.9 -305.0 284.2 -305.0 304.6 -304.5 M331.0 -296.6 L304.2 -299.5 284.15 -300.0 -289.7 -300.0 -305.2 -299.2 -330.85 -296.0 -366.15 -290.0 -399.5 -280.2 -431.5 -266.65 -461.65 -249.45 -489.65 -228.85 -515.05 -205.15 -537.55 -178.65 -556.8 -149.75 -572.55 -118.8 -584.65 -86.2 -592.85 -52.45 -597.05 -17.95 -597.25 16.75 -593.45 51.3 -585.6 85.15 -573.9 117.85 -558.5 149.0 -539.6 178.15 -517.4 204.85 -492.25 228.85 -464.5 249.75 -434.55 267.3 Q-418.6 274.3 -402.7 281.25 L-369.5 291.4 -329.6 297.7 304.2 297.8 347.6 295.5 370.2 291.4 403.4 281.25 Q419.35 274.3 435.25 267.3 L465.25 249.75 493.0 228.85 518.1 204.85 540.3 178.15 559.2 149.0 574.65 117.85 586.3 85.15 594.15 51.3 598.0 16.75 597.8 -17.95 593.55 -52.45 585.35 -86.2 573.25 -118.8 557.5 -149.75 538.25 -178.65 515.75 -205.15 490.35 -228.85 462.4 -249.45 432.2 -266.65 400.2 -280.2 366.9 -290.0 331.0 -296.6" fill="#828282" fill-rule="evenodd" stroke="none"/>
    <path d="M497.5 -208.85 L487.65 -220.45 475.75 -233.45 463.1 -246.35 463.1 -247.45 464.2 -247.9 465.4 -247.45 473.1 -242.0 487.55 -229.4 512.45 -205.3 523.35 -192.55 533.45 -178.5 554.35 -146.9 571.9 -111.3 578.8 -92.35 584.9 -72.7 589.45 -52.6 591.95 -32.15 593.2 -11.5 593.2 9.25 591.95 29.9 589.45 50.35 584.9 70.45 572.65 109.05 565.4 127.25 545.9 159.7 526.05 190.3 513.95 203.0 506.6 212.2 493.4 226.6 486.3 233.75 479.0 239.65 476.85 240.75 475.55 240.75 474.55 240.25 474.65 239.4 492.4 217.4 498.85 208.05 509.4 195.05 526.8 163.8 543.85 130.7 550.25 112.05 560.95 72.65 564.9 52.15 567.1 31.25 568.2 10.15 568.2 -11.0 567.1 -32.1 564.9 -53.0 560.95 -73.5 555.6 -93.5 549.55 -112.9 534.2 -149.25 515.95 -181.55 507.1 -195.85 497.5 -208.85" fill="#434343" fill-rule="evenodd" stroke="none"/>
    <path d="M-503.0 -212.35 L-484.4 -231.7 -477.25 -237.6 -475.2 -238.7 -473.95 -238.7 -473.0 -238.2 -473.05 -237.35 -490.35 -215.35 -496.6 -205.95 -506.9 -192.95 -517.65 -177.25 -526.25 -161.1 -542.85 -128.0 -549.0 -109.35 -556.0 -91.7 -561.25 -71.65 -565.0 -54.7 -567.75 -34.15 -568.85 -13.05 -568.85 8.15 -567.75 29.25 -565.6 50.1 -561.75 70.65 -556.55 90.65 -550.7 110.05 -535.75 146.4 -517.95 178.65 -509.35 193.0 -500.05 206.0 -474.1 234.85 -461.8 247.7 -461.8 248.85 -462.85 249.25 -464.05 248.85 -471.5 243.4 -485.6 230.75 -514.55 202.45 -525.2 189.7 -545.1 160.4 -555.35 144.05 -572.4 108.45 -579.15 89.45 -585.1 69.85 -589.5 49.75 -591.95 29.3 -593.15 8.65 -593.15 -12.1 -591.95 -32.75 -588.9 -52.9 -584.5 -73.0 -578.6 -89.05 -572.6 -108.05 -564.35 -129.0 -558.0 -130.7 -544.8 -157.0 -535.0 -172.85 -510.7 -203.7 -503.0 -212.35" fill="#434343" fill-rule="evenodd" stroke="none"/>
  </g>
</svg>
