<?xml version="1.0" encoding="UTF-8" standalone="no"?>
<svg xmlns:ffdec="https://www.free-decompiler.com/flash" xmlns:xlink="http://www.w3.org/1999/xlink" ffdec:objectType="shape" height="1060.0px" width="1666.65px" xmlns="http://www.w3.org/2000/svg">
  <g transform="matrix(1.0, 0.0, 0.0, 1.0, 834.15, 531.0)">
    <path d="M603.2 -443.05 L650.55 -406.5 693.5 -364.45 731.5 -317.5 764.1 -266.2 790.75 -211.25 811.15 -153.45 825.05 -93.6 832.2 -32.4 832.5 29.2 826.05 90.5 812.8 150.55 793.05 208.55 766.95 263.8 734.95 315.5 697.45 362.9 654.95 405.5 608.05 442.55 557.3 473.7 503.5 498.4 447.3 516.45 399.95 525.5 370.65 528.5 330.9 529.0 -333.5 529.0 -370.65 528.55 -402.15 525.4 -448.95 516.45 -505.15 498.4 -558.95 473.7 -609.65 442.55 -656.6 405.5 -699.1 362.9 -736.6 315.5 -768.6 263.8 -794.65 208.55 -814.45 150.55 -827.65 90.5 -834.15 29.2 -833.8 -32.4 -826.65 -93.6 -812.8 -153.45 -792.35 -211.25 -765.7 -266.2 -733.15 -317.5 -695.1 -364.45 -652.15 -406.5 -604.85 -443.05 -553.8 -473.55 -499.7 -497.6 -443.3 -514.95 -390.4 -524.4 -333.8 -531.0 332.15 -531.0 388.8 -524.4 441.7 -514.95 498.05 -497.6 552.15 -473.55 603.2 -443.05" fill="#707070" fill-rule="evenodd" stroke="none"/>
    <path d="M524.55 -428.95 L573.05 -401.35 618.0 -368.25 658.8 -330.2 694.95 -287.6 725.9 -241.15 751.2 -191.45 770.6 -139.1 783.8 -84.85 790.6 -29.45 790.9 26.35 784.75 81.85 772.2 136.25 753.4 188.8 728.65 238.8 698.2 285.65 662.6 328.6 622.2 367.15 577.6 400.7 529.45 428.9 478.3 451.3 424.95 467.6 371.0 477.45 361.65 478.45 314.3 479.0 -316.9 479.0 -360.95 478.5 -374.0 477.2 -426.55 467.6 -479.95 451.3 -531.05 428.9 -579.25 400.7 -623.85 367.15 -664.2 328.6 -699.85 285.65 -730.25 238.8 -755.0 188.8 -773.8 136.25 -786.35 81.85 -792.55 26.35 -792.2 -29.45 -785.4 -84.85 -772.25 -139.1 -752.85 -191.45 -727.5 -241.15 -696.55 -287.6 -660.45 -330.2 -619.65 -368.25 -574.65 -401.35 -526.15 -428.95 -474.8 -450.75 -421.25 -466.5 -375.05 -474.35 -366.25 -476.75 -317.15 -494.65 -217.35 -514.7 216.0 -514.7 315.55 -494.65 363.55 -477.15 373.85 -474.25 419.6 -466.5 473.15 -450.75 524.55 -428.95" fill="#434343" fill-rule="evenodd" stroke="none"/>
    <path d="M392.8 -313.4 L394.35 -319.45 410.25 -314.8 446.15 -299.55 474.6 -283.35 471.2 -278.5 494.05 -262.55 497.45 -267.45 511.5 -257.1 516.9 -252.05 510.15 -245.55 511.8 -243.85 519.7 -251.35 519.7 -251.4 539.5 -271.2 571.25 -239.45 543.9 -212.3 545.55 -210.65 551.8 -216.6 560.6 -206.25 556.1 -202.95 572.75 -180.6 576.7 -183.55 586.85 -168.3 604.6 -133.55 615.3 -104.65 610.65 -103.6 616.8 -76.45 622.8 -77.8 627.35 -59.05 632.1 -20.35 632.3 15.7 628.0 54.45 625.0 67.45 618.95 66.05 612.75 93.2 618.5 94.5 606.1 129.2 588.8 164.2 582.0 174.6 578.35 171.9 561.75 194.2 566.7 197.9 551.35 216.4 545.8 211.1 544.15 212.75 553.6 221.95 553.6 221.85 571.25 239.5 539.5 271.25 518.35 250.1 518.25 250.2 512.05 244.3 510.4 246.0 516.5 251.9 514.4 253.85 505.8 260.35 503.0 256.35 480.15 272.25 483.5 277.1 483.25 277.35 449.6 297.05 413.85 312.7 403.65 315.8 402.25 310.35 375.25 317.3 376.95 323.95 375.85 324.3 336.5 329.95 299.25 330.35 206.3 330.35 165.7 346.65 163.0 346.65 163.0 348.15 165.1 348.15 165.1 381.3 135.1 381.3 135.1 348.15 137.2 348.15 137.2 346.65 129.65 346.65 129.65 348.15 131.75 348.15 131.75 381.3 101.75 381.3 101.75 348.15 103.85 348.15 103.85 346.65 96.3 346.65 96.3 348.15 98.4 348.15 98.4 381.3 68.4 381.3 68.4 348.15 70.55 348.15 70.55 346.65 63.0 346.65 63.0 348.15 65.1 348.15 65.1 381.3 35.1 381.3 35.1 348.15 37.2 348.15 37.2 346.65 29.65 346.65 29.65 348.15 31.75 348.15 31.75 381.3 1.75 381.3 1.75 348.15 3.85 348.15 3.85 346.65 -3.7 346.65 -3.7 348.15 -1.6 348.15 -1.6 381.3 -31.6 381.3 -31.6 348.15 -29.45 348.15 -29.45 346.65 -37.0 346.65 -37.0 348.15 -34.9 348.15 -34.9 381.3 -64.9 381.3 -64.9 348.15 -62.8 348.15 -62.8 346.65 -70.35 346.65 -70.35 348.15 -68.25 348.15 -68.25 381.3 -98.25 381.3 -98.25 348.15 -96.15 348.15 -96.15 346.65 -103.7 346.65 -103.7 348.15 -101.6 348.15 -101.6 381.3 -131.6 381.3 -131.6 348.15 -129.45 348.15 -129.45 346.65 -137.0 346.65 -137.0 348.15 -134.9 348.15 -134.9 381.3 -164.9 381.3 -164.9 348.15 -162.8 348.15 -162.8 346.65 -166.7 346.65 -205.0 330.35 -301.05 330.35 -338.15 329.95 -367.0 325.8 -365.4 319.65 -392.4 312.7 -394.1 319.2 -415.45 312.7 -451.2 297.05 -474.7 283.25 -470.55 277.25 -493.35 261.35 -497.75 267.6 -516.05 253.85 -517.05 252.9 -509.85 245.85 -511.5 244.2 -518.85 251.2 -519.15 250.85 -539.55 271.25 -571.3 239.5 -553.1 221.25 -553.05 221.85 -543.6 212.65 -545.25 211.0 -552.1 217.5 -561.75 205.8 -555.9 201.45 -572.55 179.1 -578.05 183.2 -590.4 164.2 -607.7 129.2 -616.8 103.75 -610.05 102.2 -616.2 75.05 -624.45 76.95 -629.65 54.45 -633.95 15.7 -633.7 -20.35 -628.95 -59.05 -626.9 -67.55 -619.65 -65.9 -613.5 -93.05 -620.35 -94.6 -619.75 -96.95 -606.2 -133.55 -588.5 -168.3 -583.85 -175.25 -578.1 -170.95 -561.45 -193.25 -568.4 -198.45 -566.9 -200.75 -552.75 -217.4 -545.5 -210.55 -543.85 -212.2 -571.3 -239.45 -539.55 -271.2 -519.65 -251.3 -519.65 -251.25 -511.75 -243.75 -510.1 -245.4 -517.7 -252.8 -513.1 -257.1 -506.5 -261.95 -502.35 -256.05 -479.55 -272.0 -484.05 -278.5 -481.65 -280.25 -447.8 -299.55 -411.85 -314.8 -404.7 -316.9 -402.95 -310.2 -376.0 -317.1 -377.95 -324.75 -374.45 -325.75 -335.3 -332.45 -293.95 -333.0 -205.0 -333.0 -166.7 -346.7 -162.8 -346.7 -162.8 -348.35 -164.9 -348.35 -164.9 -381.5 -134.9 -381.5 -134.9 -348.35 -137.0 -348.35 -137.0 -346.7 -129.45 -346.7 -129.45 -348.35 -131.6 -348.35 -131.6 -381.5 -101.6 -381.5 -101.6 -348.35 -103.7 -348.35 -103.7 -346.7 -96.15 -346.7 -96.15 -348.35 -98.25 -348.35 -98.25 -381.5 -68.25 -381.5 -68.25 -348.35 -70.35 -348.35 -70.35 -346.7 -62.8 -346.7 -62.8 -348.35 -64.9 -348.35 -64.9 -381.5 -34.9 -381.5 -34.9 -348.35 -37.0 -348.35 -37.0 -346.7 -29.45 -346.7 -29.45 -348.35 -31.6 -348.35 -31.6 -381.5 -1.6 -381.5 -1.6 -348.35 -3.7 -348.35 -3.7 -346.7 3.85 -346.7 3.85 -348.35 1.75 -348.35 1.75 -381.5 31.75 -381.5 31.75 -348.35 29.65 -348.35 29.65 -346.7 37.2 -346.7 37.2 -348.35 35.1 -348.35 35.1 -381.5 65.1 -381.5 65.1 -348.35 63.0 -348.35 63.0 -346.7 70.55 -346.7 70.55 -348.35 68.4 -348.35 68.4 -381.5 98.4 -381.5 98.4 -348.35 96.3 -348.35 96.3 -346.7 103.85 -346.7 103.85 -348.35 101.75 -348.35 101.75 -381.5 131.75 -381.5 131.75 -348.35 129.65 -348.35 129.65 -346.7 137.2 -346.7 137.2 -348.35 135.1 -348.35 135.1 -381.5 165.1 -381.5 165.1 -348.35 163.0 -348.35 163.0 -346.7 165.7 -346.7 206.3 -333.0 292.85 -333.0 333.65 -332.45 367.45 -326.7 365.8 -320.35 392.8 -313.4" fill="#707070" fill-rule="evenodd" stroke="none"/>
    <path d="M387.65 -287.0 L417.3 -276.0 468.0 -250.0 505.0 -218.35 535.65 -185.7 556.0 -156.7 570.65 -128.7 587.0 -89.0 599.3 -28.0 600.1 9.85 598.55 31.2 593.4 63.65 581.65 104.8 562.8 147.0 539.0 183.4 510.3 217.0 470.75 249.0 436.55 270.1 389.0 288.3 345.0 299.0 305.5 301.0 -291.0 301.0 -330.5 299.5 -389.45 289.4 -425.45 274.0 -458.35 256.3 -492.35 231.65 -515.7 210.3 -535.0 187.0 -554.35 159.65 -571.0 128.3 -583.0 99.0 -593.0 65.65 -600.35 21.0 -599.7 -23.0 -595.0 -53.0 -586.35 -86.35 -575.7 -117.7 -565.0 -139.7 -541.7 -175.7 -519.7 -203.7 -495.7 -227.0 -469.0 -247.0 -446.35 -261.0 -411.0 -279.0 -380.35 -287.7 -337.0 -297.0 -307.0 -302.0 295.0 -302.35 335.0 -298.35 387.65 -287.0" fill="#969696" fill-rule="evenodd" stroke="none"/>
    <path d="M56.75 -110.8 L62.55 -132.35 48.4 -135.6 33.65 -138.2 -1.35 -140.9 -28.65 -137.0 -37.45 -135.0 -46.05 -132.25 -54.35 -128.75 -72.35 -118.9 -78.65 -113.9 -85.35 -107.9 -91.35 -100.9 -100.2 -86.75 -104.4 -78.8 -107.9 -70.5 -110.7 -61.9 -131.7 -69.0 -134.25 -61.4 -138.25 -30.6 -139.25 -11.85 -138.8 10.95 -137.7 19.95 -135.9 28.75 -133.35 37.4 -130.0 45.8 -126.0 53.85 -121.3 61.55 -115.95 68.8 -110.0 75.6 -103.5 81.85 -96.5 87.5 -89.0 92.55 -81.15 96.9 -72.9 100.6 -64.4 103.55 -69.2 126.65 -40.15 131.35 -19.15 133.35 -4.15 133.85 20.95 131.3 29.8 129.7 38.5 127.3 46.95 124.15 55.1 120.35 62.9 115.8 70.3 110.6 77.2 104.8 83.55 98.45 89.4 91.55 94.55 84.2 99.1 76.4 102.95 68.25 105.65 56.75 126.85 62.65 131.6 34.8 134.1 17.3 134.6 6.75 134.6 -12.45 133.9 -21.45 132.5 -30.35 130.3 -39.05 127.35 -47.6 123.65 -55.85 119.3 -63.7 114.3 -71.2 108.65 -78.25 102.4 -84.75 95.65 -90.7 88.4 -96.05 80.7 -100.75 72.65 -104.8 56.75 -110.8 M318.0 -44.5 L358.3 -31.7 385.0 -27.7 377.0 -13.0 374.3 4.3 375.0 23.65 377.3 37.3 358.0 32.3 339.0 32.0 326.0 34.5 302.3 44.65 283.0 60.65 270.0 82.0 264.0 107.5 265.0 129.65 246.3 136.3 201.65 155.65 161.65 179.65 148.3 191.0 116.65 180.0 81.0 178.0 31.3 190.0 -8.35 215.0 -20.1 227.95 -37.1 210.95 -104.1 177.95 -138.1 166.95 -180.1 161.95 -240.1 166.95 -245.0 130.0 -255.5 104.5 -279.0 72.0 -307.0 49.0 -342.35 32.3 -386.35 26.0 -385.35 17.65 -382.1 1.9 -384.1 -21.1 -389.1 -45.1 -363.9 -33.9 -331.9 -33.0 -307.0 -42.8 -288.15 -56.8 -275.7 -72.15 -267.25 -93.7 -265.35 -110.7 -266.35 -131.35 -272.7 -150.7 -256.1 -155.1 -221.1 -168.1 -185.1 -185.1 -167.1 -199.1 -135.1 -185.1 -86.1 -176.1 -33.1 -188.1 17.9 -219.1 34.9 -211.1 83.9 -190.1 130.95 -175.1 175.95 -165.1 216.95 -157.1 240.65 -151.0 256.5 -106.5 277.0 -75.5 318.0 -44.5" fill="#7f7f7f" fill-rule="evenodd" stroke="none"/>
    <path d="M175.4 32.3 L177.9 28.75 181.4 26.2 185.55 24.85 189.9 24.9 193.95 26.35 197.3 29.0 199.55 32.6 200.45 36.75 199.95 41.0 196.8 47.85 193.75 50.95 189.85 52.95 185.55 53.6 181.3 52.8 177.55 50.75 174.7 47.55 173.1 43.65 173.8 37.0 175.4 32.3" fill="#707070" fill-rule="evenodd" stroke="none"/>
    <path d="M231.95 58.3 L233.0 59.0 236.6 68.85 236.6 74.45 234.75 79.8 231.25 84.2 226.55 87.3 221.1 88.65 215.5 88.15 211.4 86.55 210.3 82.3 208.1 80.3 205.75 78.65 205.0 78.35 204.1 77.5 203.55 77.1 203.5 76.95 200.85 74.5 198.2 69.55 197.3 64.0 198.25 58.45 199.4 55.65 199.2 52.55 201.0 50.3 203.85 48.75 206.75 49.0 210.25 47.45 215.85 47.0 221.2 47.2 225.85 50.1 230.3 54.55 231.95 58.3" fill="#707070" fill-rule="evenodd" stroke="none"/>
    <path d="M189.1 60.65 L191.75 62.1 193.75 64.3 194.95 67.05 195.15 70.0 194.35 72.9 192.65 75.4 190.25 77.2 187.35 78.2 184.35 78.15 181.5 77.2 179.15 75.35 177.5 72.85 176.8 69.95 177.1 66.95 178.35 64.25 180.45 62.05 183.15 60.65 186.15 60.15 189.1 60.65" fill="#707070" fill-rule="evenodd" stroke="none"/>
    <path d="M-20.35 168.3 L-16.7 173.65 -16.0 179.3 -32.0 214.0 -35.7 216.0 -43.35 216.0 -53.7 213.65 -56.35 217.65 -59.2 223.5 -61.35 223.5 -71.35 209.0 -71.35 206.3 -123.0 177.0 -122.7 174.65 -103.7 134.65 -86.35 140.65 -59.0 149.0 -30.35 160.3 -20.35 168.3" fill="#707070" fill-rule="evenodd" stroke="none"/>
    <path d="M40.65 -211.35 L44.65 -213.35 54.0 -214.0 63.3 -212.35 69.65 -221.35 71.3 -221.35 80.65 -205.7 90.0 -201.35 108.0 -189.35 131.3 -176.35 132.3 -173.7 114.65 -134.0 112.0 -133.35 57.3 -151.35 40.3 -159.7 32.0 -165.35 27.0 -171.0 26.0 -178.7 40.65 -211.35" fill="#707070" fill-rule="evenodd" stroke="none"/>
    <path d="M-216.95 39.15 L-216.4 38.55 -216.15 36.0 -214.9 33.15 -212.8 30.85 -210.1 29.4 -207.0 28.85 -203.95 29.4 -201.25 30.85 -200.7 31.45 -196.45 32.15 -191.35 34.9 -187.4 39.15 -185.1 44.5 -184.6 50.3 -185.1 52.2 -182.0 52.7 -177.55 55.1 -174.1 58.85 -172.55 62.4 -171.2 63.1 -167.75 66.85 -165.7 71.5 -165.3 76.6 -166.55 81.5 -167.1 82.35 -167.05 82.3 -162.5 79.8 -157.45 78.9 -152.35 79.8 -147.85 82.3 -144.35 86.15 -142.3 91.0 -141.85 96.2 -143.1 101.3 -145.95 105.7 -150.0 108.95 -154.85 110.65 -160.0 110.65 -164.9 108.95 -168.95 105.7 -171.75 101.3 -173.05 96.2 -172.6 91.0 -170.9 86.95 -173.35 88.9 -178.7 90.0 -184.7 89.3 -192.0 84.0 -193.3 81.25 -194.35 80.9 -198.4 77.75 -201.15 73.5 -202.4 68.6 -202.2 66.25 -205.1 66.25 -210.6 64.35 -215.15 60.75 -218.35 55.9 -219.75 50.3 -219.3 44.5 -216.95 39.15" fill="#707070" fill-rule="evenodd" stroke="none"/>
    <path d="M-265.8 -5.25 L-267.85 -2.95 -259.65 4.5 -237.85 28.75 -240.05 31.5 -242.65 29.45 -242.2 28.85 -262.05 6.85 -272.55 -2.75 -268.25 -7.5 -265.8 -5.25" fill="#707070" fill-rule="evenodd" stroke="none"/>
    <path d="M-260.0 47.15 L-266.2 40.3 -274.8 32.55 -289.25 20.55 -290.5 21.8 -292.85 19.45 -289.45 16.05 -272.6 30.05 -263.75 38.0 -259.75 42.45 -259.3 42.05 -257.1 44.55 -260.0 47.15" fill="#707070" fill-rule="evenodd" stroke="none"/>
    <path d="M251.5 -38.75 L259.85 -29.4 281.65 -7.0 277.9 -2.5 275.35 -4.65 277.15 -6.8 257.4 -27.15 246.9 -38.85 249.35 -41.3 251.7 -38.95 251.5 -38.75" fill="#707070" fill-rule="evenodd" stroke="none"/>
    <path d="M298.95 -26.4 L286.55 -35.65 274.55 -45.95 267.3 -53.3 266.1 -54.25 268.25 -57.15 276.9 -48.35 288.7 -38.2 298.35 -31.0 299.1 -31.95 301.7 -29.85 298.95 -26.4" fill="#707070" fill-rule="evenodd" stroke="none"/>
    <path d="M97.65 114.75 L99.0 112.75 115.65 101.65 116.3 99.2 130.3 91.45 131.75 88.2 134.3 85.1 137.6 82.7 141.2 81.35 144.05 81.15 144.3 78.1 143.2 67.85 139.85 57.4 135.4 50.55 139.2 49.4 140.3 47.4 144.75 45.4 148.1 50.55 151.4 56.75 153.65 66.3 157.0 52.1 160.75 41.85 171.85 45.4 171.0 48.3 172.05 48.8 173.75 50.45 174.8 52.6 175.15 55.0 174.65 57.35 173.45 59.4 171.95 60.7 172.25 63.0 171.8 65.35 170.55 67.4 168.75 69.0 166.55 69.85 164.15 70.0 165.85 81.4 162.55 80.75 158.3 83.0 160.55 84.1 163.2 86.55 165.85 90.55 167.3 94.45 168.25 92.65 167.95 91.4 168.2 88.2 169.5 85.25 171.65 82.85 174.5 81.3 177.65 80.75 180.8 81.3 181.35 81.6 182.2 81.45 186.75 82.25 190.85 84.45 193.4 87.25 193.65 86.0 194.5 84.0 196.8 82.0 197.9 81.55 198.6 80.55 200.35 79.3 202.4 78.7 204.55 78.8 206.55 79.6 208.2 81.0 209.3 82.85 209.75 84.95 209.45 87.1 208.5 89.0 207.0 90.55 206.3 90.85 203.65 98.8 201.3 112.0 203.15 120.5 199.3 120.0 197.65 120.15 195.8 121.3 191.65 121.5 190.3 113.65 190.3 112.0 191.1 106.2 188.9 107.9 184.5 109.45 179.9 109.45 175.5 107.9 171.85 105.05 169.3 101.2 167.8 100.55 167.25 105.15 166.1 109.6 163.6 113.45 159.95 116.3 157.8 117.0 159.2 116.8 163.8 117.55 167.9 119.8 171.05 123.2 172.95 127.5 173.35 132.15 172.2 136.65 169.65 140.6 165.95 143.45 161.55 144.95 156.85 144.95 152.45 143.45 148.75 140.6 146.95 137.8 139.0 142.1 135.65 141.2 117.4 149.2 114.75 147.2 97.65 114.75" fill="#707070" fill-rule="evenodd" stroke="none"/>
    <path d="M-156.15 -113.2 L-152.05 -115.35 -156.0 -115.55 -159.1 -116.75 -156.15 -113.2 M-173.7 -115.7 L-181.35 -121.0 -182.6 -121.55 -182.0 -115.35 -183.2 -106.25 -180.35 -108.15 -175.9 -109.25 -171.3 -108.9 -167.1 -107.05 -166.45 -106.5 -168.35 -109.7 -173.7 -115.7 M-92.0 -116.0 L-92.7 -113.35 -109.0 -102.0 -110.35 -99.7 -122.7 -93.0 -124.05 -92.75 -125.45 -89.3 -129.85 -84.3 -135.7 -81.05 -138.55 -80.6 -138.7 -77.35 -135.35 -46.35 -141.35 -43.0 -144.0 -46.7 -150.7 -69.35 -150.35 -80.7 -154.85 -84.35 -159.55 -89.4 -161.15 -92.95 -161.5 -90.85 -163.65 -86.8 -167.0 -83.7 -171.25 -81.85 -175.8 -81.45 -180.25 -82.55 -184.1 -85.05 -186.95 -88.7 -188.2 -92.2 -188.7 -91.35 -188.35 -87.35 -188.6 -86.55 -188.6 -86.45 -189.15 -84.15 -190.45 -82.2 -192.3 -80.75 -194.5 -80.0 -196.85 -80.0 -199.1 -80.75 -200.95 -82.2 -202.2 -84.15 -202.8 -86.45 -202.6 -88.8 -201.65 -90.95 -200.05 -92.65 -199.55 -92.95 -196.35 -102.0 -193.7 -112.0 -193.35 -117.7 -194.0 -121.0 -188.0 -121.35 -184.35 -122.25 -189.35 -124.35 -188.35 -127.7 -188.0 -130.35 -185.0 -134.7 -176.7 -131.7 -165.9 -123.4 -166.5 -124.45 -167.45 -129.1 -166.9 -133.85 -164.8 -138.1 -161.4 -141.45 -157.15 -143.55 -152.4 -144.15 -147.75 -143.15 -143.65 -140.7 -140.7 -137.2 -134.0 -141.35 -131.0 -140.35 -112.35 -149.35 -110.0 -148.0 -92.0 -116.0" fill="#707070" fill-rule="evenodd" stroke="none"/>
    <path d="M-166.6 -21.25 L-162.2 -16.5 -159.55 -10.55 -159.05 -4.05 -160.65 2.25 -164.2 7.65 -169.3 11.65 -175.45 13.75 -181.95 13.75 -188.1 11.65 -193.2 7.65 -196.75 2.25 -198.35 -4.05 -197.8 -10.55 -195.2 -16.5 -194.7 -17.0 -193.15 -20.6 -189.65 -24.4 -185.1 -26.85 -180.0 -27.7 -174.95 -26.85 -170.4 -24.4 -168.45 -22.25 -166.6 -21.25" fill="#707070" fill-rule="evenodd" stroke="none"/>
    <path d="M-176.95 -74.95 L-175.0 -72.85 -173.85 -70.2 -173.6 -67.3 -174.3 -64.5 -175.9 -62.05 -176.8 -61.35 -176.25 -61.3 -171.55 -59.4 -169.15 -57.25 -168.75 -58.15 -166.75 -60.3 -164.2 -61.7 -161.35 -62.15 -158.5 -61.7 -155.95 -60.3 -154.0 -58.15 -152.85 -55.5 -152.6 -52.65 -153.3 -49.8 -154.9 -47.4 -157.15 -45.6 -159.9 -44.7 -162.8 -44.7 -164.55 -45.3 -165.05 -41.7 -167.4 -37.2 -171.0 -33.7 -175.6 -31.55 -180.65 -31.05 -185.55 -32.15 -189.85 -34.85 -193.05 -38.75 -194.75 -43.5 -194.9 -48.55 -193.6 -53.8 -196.45 -52.15 -199.0 -51.35 -202.45 -48.75 -207.7 -46.85 -213.3 -46.85 -218.55 -48.75 -221.95 -51.55 -225.5 -53.0 -229.5 -56.75 -232.25 -61.8 -233.5 -67.65 -233.1 -73.7 -231.0 -77.7 -227.7 -82.0 -223.0 -85.7 -218.7 -87.0 -213.2 -86.55 -211.75 -82.5 -210.5 -82.7 -205.0 -81.75 -200.1 -78.9 -196.3 -74.5 -194.05 -69.1 -193.6 -63.15 -192.8 -61.0 -192.45 -59.15 -192.7 -56.1 -192.35 -56.8 -189.35 -58.9 -186.3 -60.2 -186.55 -60.3 -188.85 -62.05 -190.4 -64.5 -191.15 -67.3 -190.9 -70.2 -189.75 -72.85 -187.75 -74.95 -185.2 -76.35 -182.35 -76.85 -179.5 -76.35 -176.95 -74.95" fill="#707070" fill-rule="evenodd" stroke="none"/>
    <path d="M211.35 -83.05 L215.85 -82.3 219.9 -80.15 222.95 -76.8 224.8 -72.6 224.75 -67.6 223.75 -61.7 221.75 -57.0 218.15 -54.2 213.85 -52.75 209.25 -52.75 204.95 -54.2 201.35 -57.0 198.85 -60.85 198.0 -63.6 197.55 -68.05 197.95 -72.6 199.75 -76.8 202.85 -80.15 206.85 -82.3 211.35 -83.05" fill="#707070" fill-rule="evenodd" stroke="none"/>
    <path d="M206.15 -102.35 L209.15 -98.35 230.0 -88.5 242.8 -83.2 240.5 -76.0 238.5 -74.7 204.3 -85.35 200.8 -83.35 196.8 -83.2 185.3 -90.5 179.15 -97.5 178.3 -103.2 184.0 -106.5 200.0 -105.35 202.0 -104.85 204.3 -103.85 206.15 -102.35" fill="#707070" fill-rule="evenodd" stroke="none"/>
    <path d="M183.65 -96.75 L184.9 -95.7 185.7 -94.3 186.05 -92.7 185.85 -91.1 185.1 -89.65 184.0 -88.5 182.5 -87.8 180.9 -87.65 179.35 -87.95 177.95 -88.8 176.9 -90.05 176.35 -91.55 176.3 -93.15 176.75 -94.7 177.7 -96.0 179.0 -96.95 180.55 -97.4 182.15 -97.3 183.65 -96.75" fill="#707070" fill-rule="evenodd" stroke="none"/>
    <path d="M182.8 -86.15 L183.55 -87.7 184.75 -88.9 186.25 -89.7 188.0 -89.9 189.65 -89.55 191.15 -88.7 192.25 -87.4 192.9 -85.8 193.0 -84.1 192.5 -82.45 191.55 -81.05 190.15 -80.0 188.5 -79.5 186.8 -79.6 185.2 -80.2 183.85 -81.3 182.95 -82.75 182.6 -84.45 182.8 -86.15" fill="#707070" fill-rule="evenodd" stroke="none"/>
    <path d="M197.4 -84.35 L198.9 -83.7 200.1 -82.6 200.85 -81.15 201.15 -79.55 200.85 -77.9 200.1 -76.5 198.9 -75.35 197.4 -74.7 195.75 -74.6 194.2 -75.0 192.8 -75.9 191.8 -77.15 191.3 -78.7 191.3 -80.35 191.8 -81.9 192.8 -83.2 194.2 -84.1 195.75 -84.5 197.4 -84.35" fill="#707070" fill-rule="evenodd" stroke="none"/>
    <path d="M193.75 -80.35 L195.25 -79.7 196.45 -78.6 197.2 -77.15 197.45 -75.55 197.2 -73.9 196.4 -72.5 195.2 -71.35 193.7 -70.7 192.1 -70.6 190.5 -71.0 189.15 -71.9 188.15 -73.15 187.6 -74.7 187.6 -76.35 188.15 -77.9 189.15 -79.2 190.5 -80.1 192.1 -80.5 193.75 -80.35" fill="#707070" fill-rule="evenodd" stroke="none"/>
    <path d="M183.5 -85.2 L186.15 -77.0 182.65 -76.7 178.8 -84.0 181.3 -86.2 182.6 -84.45 183.5 -85.2" fill="#707070" fill-rule="evenodd" stroke="none"/>
    <path d="M35.7 183.25 L48.2 179.3 61.0 176.4 74.0 174.6 87.1 173.9 100.2 174.35 113.25 175.9 126.1 178.5 138.7 182.25 150.9 187.0 162.65 192.8 173.85 199.55 184.4 207.25 194.25 215.8 203.35 225.15 211.55 235.25 215.5 243.0 210.35 251.25 203.5 241.2 195.85 231.8 187.35 223.05 178.15 215.05 168.3 207.9 157.85 201.6 146.85 196.15 135.45 191.7 123.7 188.25 111.65 185.75 99.45 184.35 87.2 183.95 74.95 184.55 62.75 186.25 50.8 188.95 39.1 192.65 27.8 197.35 16.9 202.95 6.6 209.5 -3.15 216.85 -12.2 225.05 -20.5 233.95 -28.0 243.5 -36.1 237.65 -28.1 227.4 -19.2 217.9 -9.5 209.15 0.9 201.25 11.95 194.3 23.6 188.25 35.7 183.25" fill="#434343" fill-rule="evenodd" stroke="none"/>
    <path d="M400.8 48.3 L406.4 53.2 411.55 58.6 416.2 64.35 420.3 70.55 423.9 77.05 426.9 83.8 429.35 90.85 431.15 98.05 432.35 105.35 432.9 112.75 432.8 120.2 427.35 128.1 427.75 124.3 427.9 112.9 427.4 106.1 426.3 99.2 424.6 92.4 422.3 85.8 419.5 79.4 416.1 73.25 412.25 67.45 407.85 62.0 403.05 56.95 397.8 52.3 392.15 48.15 386.2 44.45 379.95 41.35 373.45 38.75 366.75 36.7 359.95 35.3 353.0 34.45 345.85 34.2 339.0 34.55 332.1 35.5 325.25 37.05 318.6 39.2 312.15 41.9 305.95 45.1 300.05 48.9 294.5 53.15 289.35 57.85 284.6 63.0 280.3 68.5 276.55 74.4 273.25 80.55 270.55 87.0 268.35 93.65 266.8 100.45 265.8 107.4 265.4 114.5 265.6 121.35 266.4 128.3 267.8 135.15 269.8 141.85 272.35 148.4 275.45 154.65 279.1 160.6 283.2 166.25 287.8 171.5 292.85 176.4 298.3 180.75 304.1 184.7 310.2 188.1 316.55 190.95 323.15 193.25 326.75 194.1 332.0 193.0 330.6 195.2 327.5 196.0 321.85 198.1 314.85 195.65 308.1 192.65 301.6 189.05 295.45 184.9 289.65 180.25 284.3 175.1 279.4 169.5 275.0 163.55 271.15 157.2 267.85 150.55 265.1 143.65 263.0 136.5 261.5 129.25 260.6 121.9 260.4 114.45 260.8 107.05 261.85 99.7 263.5 92.45 265.8 85.4 268.65 78.55 272.15 72.0 276.15 65.75 280.7 59.85 285.7 54.4 291.2 49.4 297.05 44.85 303.3 40.85 309.9 37.4 316.75 34.55 323.8 32.25 331.05 30.6 338.4 29.6 345.8 29.2 353.25 29.45 360.6 30.3 367.85 31.85 375.0 33.95 381.9 36.7 388.5 40.0 394.85 43.9 400.8 48.3" fill="#434343" fill-rule="evenodd" stroke="none"/>
    <path d="M-429.55 -129.25 L-424.35 -133.7 -421.45 -134.6 -423.0 -128.05 -423.95 -121.4 -424.3 -114.65 -424.1 -107.95 -423.3 -101.25 -421.95 -94.65 -420.0 -88.2 -417.55 -81.95 -414.55 -75.9 -411.05 -70.15 -407.05 -64.75 -402.6 -59.7 -397.75 -55.0 -392.5 -50.8 -386.95 -47.05 -381.05 -43.75 -374.9 -41.0 -368.55 -38.8 -362.0 -37.15 -355.4 -36.05 -348.65 -35.55 -341.95 -35.6 -335.25 -36.25 -328.6 -37.5 -322.1 -39.25 -315.8 -41.6 -309.7 -44.45 -303.9 -47.85 -298.4 -51.7 -293.25 -56.05 -288.45 -60.8 -284.15 -65.95 -280.25 -71.45 -276.85 -77.25 -274.0 -83.35 -271.65 -89.65 -269.85 -96.15 -268.6 -102.75 -267.95 -109.45 -267.85 -116.2 -268.35 -122.9 -269.45 -129.55 -271.1 -136.1 -273.3 -142.45 -276.0 -148.6 -279.3 -154.5 -283.05 -160.1 -287.25 -165.35 -291.9 -170.2 -296.95 -174.65 -302.35 -178.65 -308.1 -182.15 -314.15 -185.15 -320.4 -187.65 -326.85 -189.6 -333.45 -190.95 -340.1 -191.75 -346.85 -192.0 -338.0 -194.7 -332.35 -197.55 -325.2 -196.05 -318.2 -193.95 -311.4 -191.25 -304.85 -188.0 -298.65 -184.15 -292.75 -179.85 -287.3 -175.0 -282.25 -169.75 -277.65 -164.05 -273.6 -157.95 -270.05 -151.55 -267.1 -144.9 -264.7 -138.0 -262.9 -130.9 -261.75 -123.7 -261.2 -116.4 -261.3 -109.1 -262.0 -101.85 -263.35 -94.65 -265.3 -87.6 -267.85 -80.75 -270.95 -74.15 -274.65 -67.85 -278.85 -61.85 -283.55 -56.3 -288.7 -51.1 -294.3 -46.45 -300.3 -42.25 -306.6 -38.55 -313.2 -35.45 -320.1 -32.9 -327.1 -31.0 -334.3 -29.65 -341.6 -28.95 -348.9 -28.9 -356.15 -29.45 -363.4 -30.6 -370.45 -32.4 -377.35 -34.8 -384.05 -37.8 -390.4 -41.35 -396.5 -45.4 -402.15 -50.0 -407.45 -55.05 -412.25 -60.55 -416.6 -66.45 -420.4 -72.7 -423.65 -79.2 -426.3 -86.0 -428.4 -93.0 -429.9 -100.2 -430.75 -107.45 -430.95 -114.75 -430.55 -122.05 -429.55 -129.25" fill="#434343" fill-rule="evenodd" stroke="none"/>
    <path d="M65.65 84.05 L66.0 84.05 66.0 84.35 60.95 90.85 58.6 93.1 49.7 98.25 39.15 103.0 28.2 106.7 16.9 109.25 5.4 110.65 -22.65 111.15 -55.85 107.95 -62.7 106.1 -74.35 101.95 -82.6 98.25 -90.45 93.9 -97.95 88.85 -104.95 83.2 -111.45 76.95 -117.4 70.15 -122.75 62.9 -127.45 55.2 -131.45 47.15 -134.75 38.75 -137.35 30.1 -139.15 21.3 -140.2 12.35 -140.7 -10.5 -139.7 -29.25 -135.7 -60.0 -132.95 -68.75 -132.25 -70.4 -131.65 -71.45 -130.8 -71.9 -130.0 -71.4 -129.75 -70.7 -129.65 -69.85 -129.7 -67.9 -132.45 -59.3 -136.35 -29.0 -137.35 -10.35 -136.9 12.1 -135.85 20.75 -134.1 29.3 -131.6 37.65 -128.4 45.8 -124.5 53.6 -120.0 61.05 -114.8 68.1 -109.05 74.65 -102.75 80.7 -95.95 86.15 -88.7 91.05 -81.1 95.3 -73.1 98.85 -61.6 102.9 -55.2 104.65 -22.45 107.85 5.25 107.35 16.4 105.95 27.35 103.45 38.0 99.9 48.25 95.25 57.95 89.6 65.65 84.05 M88.85 -65.75 L88.9 -66.6 89.65 -66.6 94.65 -62.0 96.95 -59.2 101.55 -50.25 105.8 -39.5 108.9 -28.35 110.9 -17.0 111.7 -5.5 111.85 9.9 111.8 9.95 111.15 30.15 108.0 53.55 103.65 69.9 99.8 78.05 95.25 85.85 90.05 93.2 84.25 100.1 77.85 106.5 70.95 112.3 63.55 117.45 55.8 122.0 47.6 125.85 39.15 128.95 30.45 131.35 21.6 133.0 -3.5 135.5 -18.5 135.0 -39.5 133.0 -69.65 127.7 -71.3 127.1 -72.35 126.3 -72.25 125.05 -70.7 124.55 -69.05 124.4 -39.05 129.7 -18.3 131.65 -3.6 132.15 12.3 130.55 12.3 130.5 21.15 129.7 29.75 128.1 38.15 125.8 46.35 122.75 54.25 119.05 61.75 114.65 68.9 109.65 75.6 104.0 81.8 97.85 87.4 91.2 92.45 84.05 96.85 76.5 100.5 68.8 104.75 51.9 104.85 51.95 107.85 29.85 108.5 9.85 108.35 -5.45 107.55 -16.65 105.65 -27.7 102.6 -38.5 98.5 -48.95 93.35 -58.9 88.85 -65.75 M64.75 -133.2 L65.75 -132.5 66.0 -131.45 65.65 -130.5 64.5 -130.2 62.15 -130.35 47.05 -133.75 21.0 -136.7 -2.9 -138.35 -20.9 -135.8 -21.0 -135.8 -29.75 -134.55 -38.25 -132.6 -46.6 -129.95 -54.65 -126.55 -72.15 -116.9 -78.2 -112.15 -84.65 -106.35 -90.3 -99.7 -94.2 -93.4 -94.25 -93.35 -99.05 -85.9 -103.1 -78.2 -106.5 -70.15 -109.2 -61.7 -110.95 -53.45 -113.35 -34.7 -114.0 -10.7 -112.65 10.5 -110.7 21.55 -107.7 32.35 -103.6 42.75 -98.45 52.7 -92.75 61.45 -92.75 61.9 -93.2 62.0 -99.7 55.75 -102.5 52.1 -106.65 44.05 -110.85 33.3 -114.0 22.2 -115.95 10.8 -117.35 -10.7 -117.0 -35.1 -115.85 -46.2 -113.0 -61.5 -109.6 -71.3 -106.1 -79.6 -101.9 -87.6 -93.0 -101.7 -87.0 -108.7 -80.35 -114.7 -74.0 -119.7 -56.05 -129.55 -47.75 -133.05 -39.15 -135.8 -30.35 -137.85 -3.0 -141.7 32.0 -139.0 47.65 -137.0 64.75 -133.2 M135.3 -22.75 L136.0 -13.75 136.0 5.5 135.5 16.0 128.3 62.05 127.55 65.0 126.55 65.55 125.55 65.3 125.15 64.0 124.95 62.0 132.15 15.85 132.8 -4.05 132.65 -13.65 132.0 -22.35 130.6 -30.95 128.5 -39.4 125.65 -47.65 122.1 -55.65 117.85 -63.3 113.0 -70.55 107.55 -77.35 101.5 -83.65 94.95 -89.4 87.95 -94.6 80.5 -99.15 72.7 -103.05 64.55 -106.25 54.9 -109.2 54.9 -109.15 44.75 -111.15 18.9 -113.3 3.0 -113.8 -10.3 -113.5 -21.5 -112.15 -32.45 -109.65 -43.1 -106.05 -53.3 -101.4 -63.05 -95.75 -63.7 -95.8 -63.7 -96.5 -52.5 -105.45 -44.25 -109.2 -33.25 -112.85 -21.95 -115.45 -10.5 -116.85 3.0 -117.15 19.15 -116.65 45.2 -114.45 57.0 -112.0 65.65 -109.45 74.05 -106.1 82.1 -102.05 89.8 -97.35 97.05 -92.0 103.8 -86.05 110.05 -79.55 115.7 -72.5 120.7 -65.0 125.05 -57.15 128.75 -48.9 131.7 -40.35 133.9 -31.65 135.3 -22.75" fill="#434343" fill-rule="evenodd" stroke="none"/>
    <path d="M538.55 -54.3 L534.45 -42.85 531.45 -30.2 530.4 -23.5 529.15 -9.7 529.1 4.35 530.35 18.2 532.75 31.5 536.25 43.85 538.45 49.5 543.45 59.7 544.8 61.35 543.5 61.5 540.45 59.9 534.7 55.0 529.4 49.75 524.65 44.1 520.5 38.1 516.95 31.8 514.0 25.25 511.75 18.5 510.15 11.65 509.2 4.65 508.95 -2.35 509.4 -9.4 510.55 -16.35 512.35 -23.2 514.85 -29.9 517.95 -36.4 521.7 -42.6 526.05 -48.5 530.95 -54.1 536.35 -59.25 542.25 -64.05 543.6 -64.2 538.55 -54.3" fill="#434343" fill-rule="evenodd" stroke="none"/>
    <path d="M556.5 -55.35 L557.25 -55.4 557.9 -54.15 559.2 -46.15 557.15 -8.4 557.1 -1.4 558.1 26.1 559.55 39.85 559.1 48.3 558.3 52.0 557.55 53.2 556.75 53.1 555.3 51.15 552.45 45.5 547.85 33.15 544.7 19.85 543.15 6.0 543.2 -8.05 544.9 -21.85 546.35 -28.55 552.0 -46.5 555.15 -53.5 556.5 -55.35" fill="#434343" fill-rule="evenodd" stroke="none"/>
    <path d="M-510.45 -13.5 L-509.3 -6.55 -508.85 0.45 -509.1 7.5 -510.05 14.5 -511.65 21.35 -513.95 28.1 -516.85 34.65 -520.4 40.9 -524.6 46.9 -529.3 52.6 -534.6 57.85 -540.35 62.7 -543.4 64.35 -544.75 64.2 -543.35 62.55 -538.35 52.35 -534.3 40.65 -532.65 34.35 -530.25 21.05 -529.0 7.15 -529.05 -6.9 -530.3 -20.7 -532.75 -33.8 -536.3 -45.9 -540.85 -56.6 -543.5 -61.35 -542.15 -61.2 -536.25 -56.45 -530.85 -51.25 -525.95 -45.7 -521.6 -39.75 -517.85 -33.55 -514.75 -27.05 -512.25 -20.35 -510.45 -13.5" fill="#434343" fill-rule="evenodd" stroke="none"/>
    <path d="M-555.05 -50.7 L-551.9 -43.7 -548.05 -32.15 -544.8 -19.0 -543.1 -5.2 -542.85 1.8 -543.6 15.8 -546.0 29.45 -549.9 42.3 -555.2 54.0 -556.65 55.9 -557.45 56.05 -558.2 54.8 -559.0 51.15 -559.45 42.7 -558.0 28.9 -557.4 15.45 -557.1 -5.55 -558.4 -26.05 -559.1 -43.3 -557.85 -51.3 -557.15 -52.6 -556.4 -52.5 -555.05 -50.7" fill="#434343" fill-rule="evenodd" stroke="none"/>
    <path d="M-205.65 -226.4 L-213.3 -236.3 -217.3 -242.6 -208.5 -251.5 -204.35 -241.45 -204.5 -241.3 -198.0 -232.8 -190.05 -224.2 -181.35 -216.2 -172.0 -209.0 -162.0 -202.55 -151.45 -197.0 -140.4 -192.25 -129.0 -188.5 -117.25 -185.65 -105.35 -183.8 -93.25 -182.9 -81.2 -183.05 -69.15 -184.15 -57.25 -186.25 -45.6 -189.3 -34.25 -193.3 -23.3 -198.25 -12.85 -204.05 -3.0 -210.65 6.25 -218.05 14.75 -226.2 22.55 -235.0 25.4 -238.85 25.1 -239.25 25.0 -239.55 32.0 -249.5 34.0 -244.0 37.75 -238.8 30.3 -228.7 22.0 -219.25 12.85 -210.55 2.95 -202.6 -7.65 -195.5 -18.8 -189.3 -30.5 -184.05 -42.65 -179.75 -55.1 -176.45 -67.8 -174.25 -80.65 -173.05 -93.6 -172.9 -106.45 -173.85 -119.2 -175.85 -131.75 -178.85 -143.95 -182.9 -155.75 -187.95 -167.05 -193.95 -177.75 -200.8 -187.8 -208.55 -197.15 -217.1 -205.65 -226.4" fill="#434343" fill-rule="evenodd" stroke="none"/>
    <path d="M491.0 -83.45 L487.1 -62.5 477.2 -54.15 466.6 -46.75 455.45 -40.25 443.75 -34.75 431.6 -30.25 419.15 -26.85 406.4 -24.5 393.55 -23.25 380.6 -23.1 367.75 -24.1 354.95 -26.2 342.45 -29.4 330.2 -33.6 318.4 -38.9 307.1 -45.15 296.4 -52.4 286.3 -60.5 277.0 -69.45 268.45 -79.2 260.8 -89.6 254.05 -100.65 248.3 -112.2 243.55 -124.25 239.9 -136.65 237.25 -149.3 235.75 -162.15 235.35 -175.05 236.05 -188.0 237.85 -200.8 240.75 -213.4 244.75 -225.7 249.65 -236.7 256.0 -246.0 265.3 -255.7 275.7 -256.0 264.75 -238.2 259.9 -231.0 255.65 -221.5 252.05 -210.25 249.35 -198.65 247.65 -186.85 247.0 -174.95 247.4 -163.0 248.8 -151.15 251.2 -139.5 254.6 -128.05 259.0 -116.95 264.3 -106.3 270.5 -96.1 277.55 -86.5 285.45 -77.55 294.05 -69.3 303.3 -61.8 313.2 -55.15 323.65 -49.35 334.5 -44.5 345.8 -40.55 357.35 -37.65 369.1 -35.7 381.0 -34.8 392.95 -34.9 404.8 -36.05 416.55 -38.2 428.05 -41.35 439.2 -45.5 450.0 -50.6 460.3 -56.6 470.05 -63.45 474.9 -67.45 491.0 -83.45" fill="#434343" fill-rule="evenodd" stroke="none"/>
    <path d="M-387.4 29.7 L-400.0 30.35 -412.3 32.05 -424.4 34.85 -436.2 38.65 -447.65 43.4 -458.65 49.2 -469.1 55.85 -488.7 70.3 -483.3 58.35 -473.0 50.45 -462.05 43.45 -450.55 37.4 -438.6 32.4 -426.25 28.4 -413.6 25.5 -400.75 23.7 -387.75 23.05 -374.8 23.45 -361.9 25.0 -349.2 27.65 -336.75 31.4 -324.7 36.15 -313.1 42.0 -302.0 48.75 -291.55 56.45 -281.85 65.05 -272.85 74.4 -264.75 84.55 -257.5 95.3 -251.2 106.7 -245.95 118.55 -241.7 130.8 -238.55 143.4 -236.45 156.2 -235.5 169.15 -235.65 182.15 -236.9 195.05 -239.3 207.8 -242.75 220.35 -245.45 226.75 -252.15 229.65 -252.65 223.2 -249.4 219.45 -245.8 206.4 -243.55 194.2 -242.3 181.85 -242.15 169.35 -243.1 157.05 -245.05 144.8 -248.1 132.8 -252.15 121.05 -257.15 109.7 -263.15 98.85 -270.05 88.55 -277.85 78.9 -286.4 69.9 -295.7 61.7 -305.7 54.35 -316.25 47.85 -327.35 42.3 -338.9 37.7 -350.75 34.15 -362.9 31.6 -375.25 30.15 -387.4 29.7" fill="#434343" fill-rule="evenodd" stroke="none"/>
    <path d="M-323.65 -257.65 L-335.45 -257.9 -360.65 -256.4 -372.9 -254.55 -384.85 -251.75 -396.45 -247.85 -407.6 -243.05 -425.85 -234.05 -437.55 -225.1 -453.1 -212.35 -464.7 -196.95 -470.7 -186.55 -481.35 -162.55 -484.35 -152.05 -487.85 -133.05 -489.35 -122.05 -488.85 -114.05 -491.0 -111.15 -492.25 -123.4 -492.45 -135.65 -491.55 -147.85 -488.4 -156.95 -485.35 -168.65 -481.3 -180.0 -476.25 -190.9 -470.25 -201.3 -458.65 -216.7 -443.1 -229.45 -431.4 -238.4 -413.15 -247.4 -402.0 -252.2 -390.35 -256.1 -378.4 -258.9 -366.2 -260.7 -353.75 -261.45 -325.45 -260.8 -309.9 -259.25 -298.85 -256.85 -290.25 -253.1 -291.4 -252.1 -305.5 -255.95 -323.65 -257.65" fill="#434343" fill-rule="evenodd" stroke="none"/>
    <path d="M-376.35 286.3 L-409.0 276.3 -434.35 264.3 -468.35 239.0 -492.35 213.65 -509.0 188.3 -501.45 186.0 -497.45 193.8 -487.1 209.5 -466.45 236.0 -433.45 260.5 -408.45 272.5 -379.0 281.0 -347.0 285.0 -345.7 290.3 -376.35 286.3" fill="#434343" fill-rule="evenodd" stroke="none"/>
    <path d="M368.55 -283.25 L349.5 -285.0 346.0 -290.5 378.5 -288.5 405.0 -279.0 441.5 -262.0 456.0 -250.5 481.5 -225.5 495.5 -209.0 510.0 -188.5 504.0 -188.0 481.3 -219.8 472.55 -229.7 463.5 -239.0 442.5 -256.5 413.5 -271.5 399.0 -276.8 388.0 -279.7 368.55 -283.25" fill="#434343" fill-rule="evenodd" stroke="none"/>
    <path d="M491.65 120.55 L492.5 120.75 491.5 130.3 491.5 143.2 488.85 155.3 485.4 167.4 482.0 177.3 476.2 188.55 464.4 208.4 456.25 217.55 447.3 226.0 437.6 233.7 427.3 240.6 416.35 246.6 404.95 251.75 393.1 255.9 380.9 259.05 368.5 261.25 355.9 262.4 343.3 262.5 330.7 261.6 307.55 258.55 291.75 254.15 291.15 253.15 291.9 253.0 302.9 255.05 326.65 257.8 340.0 257.1 352.6 257.0 365.2 255.85 377.6 253.65 389.8 250.5 401.6 246.3 413.05 241.2 423.95 235.2 434.3 228.3 444.0 220.6 452.95 212.15 461.05 203.0 468.35 193.2 474.7 182.85 479.55 172.4 483.75 161.4 487.0 149.65 488.75 140.3 491.65 120.55" fill="#434343" fill-rule="evenodd" stroke="none"/>
    <path d="M5.55 -61.35 L6.15 -46.35 5.55 -31.35 3.75 -16.45 0.75 -1.7 -3.45 12.7 -8.75 26.75 -15.2 40.3 -22.7 53.35 -31.25 65.7 -40.75 77.35 -51.15 88.15 -62.4 98.15 -74.4 107.15 -87.1 115.2 -100.4 122.15 -114.2 128.05 -128.45 132.8 -143.05 136.4 -157.85 138.8 -172.85 140.0 -187.85 140.0 -202.85 138.8 -217.65 136.4 -232.25 132.8 -246.5 128.05 -260.3 122.15 -273.6 115.2 -286.3 107.15 -298.35 98.15 -309.55 88.15 -320.0 77.35 -329.5 65.7 -338.0 53.35 -345.5 40.3 -351.95 26.75 -357.3 12.7 -361.45 -1.7 -364.45 -16.45 -366.3 -31.35 -366.9 -46.35 -366.3 -61.35 -364.45 -76.3 -361.45 -91.0 -357.3 -105.45 -351.95 -119.45 -345.5 -133.05 -338.0 -146.05 -329.5 -158.4 -320.0 -170.05 -309.55 -180.9 -298.35 -190.85 -286.3 -199.85 -273.6 -207.9 -260.3 -214.9 -246.5 -220.75 -232.25 -225.5 -217.65 -229.1 -202.85 -231.55 -187.85 -232.75 -172.85 -232.75 -157.85 -231.55 -143.05 -229.1 -128.45 -225.5 -114.2 -220.75 -100.4 -214.9 -87.1 -207.9 -74.4 -199.85 -62.4 -190.85 -51.15 -180.9 -40.75 -170.05 -31.25 -158.4 -22.7 -146.05 -15.2 -133.05 -8.75 -119.45 -3.45 -105.45 0.75 -91.0 3.75 -76.3 5.55 -61.35" fill="#ffffff" fill-opacity="0.14901961" fill-rule="evenodd" stroke="none"/>
    <path d="M210.7 35.05 L206.35 30.8 201.0 27.9 195.1 26.5 189.0 26.8 183.2 28.7 178.15 32.1 174.2 36.75 171.65 42.25 170.7 48.25 171.4 54.3 173.7 59.95 177.4 64.75 182.3 68.4 188.0 70.55 194.05 71.1 200.05 70.0 205.5 67.35 210.05 63.3 213.35 58.15 215.1 52.35 215.25 46.25 213.75 40.35 210.7 35.05 M100.05 -111.55 L113.35 -118.5 127.15 -124.4 141.4 -129.15 156.0 -132.75 170.8 -135.15 185.8 -136.35 200.8 -136.35 215.8 -135.15 230.6 -132.75 245.2 -129.15 259.45 -124.4 273.25 -118.5 286.55 -111.55 299.25 -103.5 311.25 -94.5 322.5 -84.5 332.9 -73.7 342.4 -62.05 350.95 -49.7 358.45 -36.65 364.9 -23.1 370.25 -9.05 374.4 5.35 377.4 20.1 379.2 35.0 379.8 50.0 379.2 65.0 377.4 79.95 374.4 94.65 370.25 109.1 364.9 123.1 358.45 136.7 350.95 149.7 342.4 162.05 332.9 173.7 322.5 184.55 311.25 194.5 299.25 203.5 286.55 211.55 273.25 218.55 259.45 224.4 245.2 229.15 230.6 232.75 215.8 235.2 200.8 236.4 185.8 236.4 170.8 235.2 156.0 232.75 141.4 229.15 127.15 224.4 113.35 218.55 100.05 211.55 87.35 203.5 75.35 194.5 64.1 184.55 53.7 173.7 44.2 162.05 35.65 149.7 28.15 136.7 21.7 123.1 16.35 109.1 12.2 94.65 9.2 79.95 7.4 65.0 6.75 50.0 7.4 35.0 9.2 20.1 12.2 5.35 16.35 -9.05 21.7 -23.1 28.15 -36.65 35.65 -49.7 44.2 -62.05 53.7 -73.7 64.1 -84.5 75.35 -94.5 87.35 -103.5 100.05 -111.55" fill="#ffffff" fill-opacity="0.14901961" fill-rule="evenodd" stroke="none"/>
    <path d="M-175.0 -50.25 L-174.05 -48.35 -173.75 -46.2 -174.25 -44.05 -175.4 -42.25 -177.15 -40.95 -179.25 -40.3 -181.4 -40.4 -183.4 -41.25 -185.0 -42.75 -186.0 -44.65 -186.25 -46.8 -185.75 -48.95 -184.6 -50.75 -182.85 -52.05 -180.8 -52.7 -178.6 -52.6 -176.6 -51.75 -175.0 -50.25" fill="#707070" fill-rule="evenodd" stroke="none"/>
    <path d="M358.85 -202.6 L358.3 -205.0 363.65 -203.9 363.4 -201.7 363.0 -200.15 362.75 -196.6 360.3 -195.25 355.2 -195.25 353.2 -197.0 354.6 -199.25 353.0 -199.25 346.75 -200.15 340.15 -200.15 333.0 -198.05 326.2 -194.8 319.9 -190.5 314.25 -185.25 309.45 -179.2 305.55 -172.5 302.7 -165.35 301.0 -157.95 300.4 -150.4 301.0 -143.0 302.8 -135.85 309.0 -125.0 308.4 -124.6 308.65 -123.7 307.2 -118.6 306.1 -120.8 305.0 -121.7 303.75 -121.9 302.0 -122.9 303.0 -124.9 302.85 -126.45 301.2 -125.7 300.75 -128.0 301.65 -130.85 299.75 -136.1 298.1 -143.4 297.6 -151.0 298.35 -158.75 300.2 -166.4 303.2 -173.8 307.25 -180.7 312.25 -186.95 318.05 -192.45 324.3 -197.25 331.2 -201.25 338.75 -203.7 353.4 -203.7 358.85 -202.6" fill="#707070" fill-rule="evenodd" stroke="none"/>
    <path d="M364.1 -208.35 L366.55 -210.8 368.3 -210.6 371.2 -208.6 372.75 -207.0 373.85 -205.25 375.65 -203.45 374.1 -203.0 370.1 -200.8 367.2 -197.45 364.3 -198.35 364.1 -200.6 365.4 -203.9 364.1 -208.35" fill="#707070" fill-rule="evenodd" stroke="none"/>
    <path d="M430.75 -175.25 L434.8 -174.7 435.25 -172.2 434.65 -169.75 430.8 -171.35 429.8 -173.5 429.0 -172.5 426.8 -172.0 429.15 -169.85 431.3 -169.35 434.65 -165.6 437.4 -161.15 439.15 -155.65 439.3 -147.7 435.7 -134.05 432.55 -126.35 428.35 -118.8 423.2 -111.6 417.75 -105.8 410.6 -99.6 403.35 -94.25 395.65 -89.8 379.55 -84.45 371.4 -83.25 364.65 -82.8 357.85 -83.0 345.4 -86.45 345.2 -86.6 345.1 -85.5 345.25 -85.45 345.1 -85.2 345.05 -84.85 344.15 -83.35 343.55 -83.75 343.0 -83.7 341.15 -85.0 340.4 -85.75 340.25 -86.45 340.3 -86.5 340.0 -88.6 340.55 -90.2 336.9 -89.0 335.55 -88.2 334.3 -88.45 333.3 -89.1 332.25 -90.45 332.0 -92.1 336.9 -93.45 341.15 -97.25 343.75 -95.75 344.0 -95.0 343.5 -93.2 343.5 -91.7 344.1 -91.3 344.2 -91.9 345.1 -92.9 345.35 -94.55 343.65 -97.6 343.9 -98.2 344.05 -100.2 345.05 -100.0 346.0 -99.45 347.0 -99.1 347.75 -99.45 348.75 -99.75 349.25 -100.1 350.0 -100.0 352.05 -97.45 351.75 -94.25 351.5 -93.45 350.25 -93.25 349.3 -92.75 359.75 -89.25 366.1 -88.65 372.4 -88.7 379.95 -89.35 386.65 -91.0 394.1 -93.6 408.1 -101.85 424.25 -115.65 426.55 -118.55 429.3 -123.95 431.75 -131.0 434.3 -143.75 433.15 -152.05 432.2 -155.1 430.95 -157.25 426.65 -162.8 423.0 -166.7 425.3 -167.85 427.3 -168.5 427.4 -170.25 426.3 -171.6 424.5 -172.95 422.9 -174.5 421.65 -176.75 423.8 -180.75 430.25 -178.2 430.05 -176.2 430.75 -175.25" fill="#707070" fill-rule="evenodd" stroke="none"/>
    <path d="M449.85 -220.95 L448.95 -221.9 448.8 -223.2 449.45 -224.35 450.65 -224.9 451.95 -224.65 452.8 -223.7 453.0 -222.4 452.35 -221.25 451.15 -220.7 449.85 -220.95" fill="#707070" fill-rule="evenodd" stroke="none"/>
    <path d="M445.65 -179.35 L445.8 -178.05 445.15 -176.9 444.0 -176.35 442.7 -176.6 441.8 -177.6 441.65 -178.9 442.3 -180.0 443.45 -180.6 444.75 -180.3 445.65 -179.35" fill="#707070" fill-rule="evenodd" stroke="none"/>
    <path d="M488.95 -184.5 L489.8 -183.55 490.0 -182.25 489.35 -181.1 488.15 -180.55 486.85 -180.8 485.95 -181.75 485.8 -183.05 486.45 -184.2 487.65 -184.75 488.95 -184.5" fill="#707070" fill-rule="evenodd" stroke="none"/>
    <path d="M404.25 -253.75 L403.35 -254.7 403.2 -256.0 403.85 -257.15 405.05 -257.7 406.3 -257.45 407.2 -256.45 407.35 -255.15 406.75 -254.0 405.55 -253.45 404.25 -253.75" fill="#707070" fill-rule="evenodd" stroke="none"/>
    <path d="M370.45 -252.75 L371.3 -251.8 371.5 -250.5 370.85 -249.35 Q370.25 -249.05 369.65 -248.8 L368.35 -249.05 367.45 -250.0 367.3 -251.3 367.95 -252.45 369.15 -253.0 370.45 -252.75" fill="#707070" fill-rule="evenodd" stroke="none"/>
    <path d="M567.45 -42.3 L568.3 -41.35 568.5 -40.05 567.85 -38.9 566.65 -38.35 565.35 -38.6 564.45 -39.6 564.3 -40.9 564.95 -42.0 566.15 -42.6 567.45 -42.3" fill="#707070" fill-rule="evenodd" stroke="none"/>
    <path d="M587.55 -20.35 L587.7 -19.05 587.05 -17.9 585.85 -17.35 584.6 -17.6 583.7 -18.6 583.55 -19.9 584.15 -21.0 585.35 -21.6 586.65 -21.3 587.55 -20.35" fill="#707070" fill-rule="evenodd" stroke="none"/>
    <path d="M565.75 2.95 L566.65 3.9 566.8 5.2 566.15 6.35 565.0 6.9 563.7 6.65 562.8 5.65 562.65 4.35 563.3 3.25 564.45 2.65 565.75 2.95" fill="#707070" fill-rule="evenodd" stroke="none"/>
    <path d="M582.35 39.15 L583.6 39.4 584.5 40.35 584.65 41.65 584.05 42.8 582.85 43.35 581.55 43.1 580.65 42.15 580.5 40.85 581.15 39.7 582.35 39.15" fill="#707070" fill-rule="evenodd" stroke="none"/>
    <path d="M140.25 230.35 L141.15 231.3 141.3 232.6 140.65 233.75 139.5 234.3 138.2 234.05 137.3 233.1 137.15 231.8 137.8 230.65 138.95 230.1 140.25 230.35" fill="#707070" fill-rule="evenodd" stroke="none"/>
    <path d="M173.1 245.6 L174.0 246.55 174.15 247.85 173.5 249.0 172.3 249.55 171.0 249.3 170.15 248.35 170.0 247.05 170.6 245.9 171.8 245.35 173.1 245.6" fill="#707070" fill-rule="evenodd" stroke="none"/>
    <path d="M70.8 217.25 L71.95 216.65 73.25 216.95 74.15 217.9 74.3 219.2 73.65 220.35 72.5 220.9 71.2 220.65 70.3 219.65 70.15 218.35 70.8 217.25" fill="#707070" fill-rule="evenodd" stroke="none"/>
    <path d="M81.1 260.8 L82.0 261.75 82.15 263.05 81.5 264.2 80.3 264.75 79.0 264.5 78.15 263.55 78.0 262.25 78.6 261.1 79.8 260.55 81.1 260.8" fill="#707070" fill-rule="evenodd" stroke="none"/>
    <path d="M42.45 255.0 L42.3 253.7 42.95 252.55 44.15 252.0 45.45 252.25 46.3 253.2 46.5 254.5 45.85 255.65 44.65 256.2 43.35 255.95 42.45 255.0" fill="#707070" fill-rule="evenodd" stroke="none"/>
    <path d="M15.15 269.8 L16.35 269.25 17.6 269.5 18.5 270.45 18.65 271.75 18.05 272.9 16.85 273.45 15.55 273.2 14.65 272.25 14.5 270.95 15.15 269.8" fill="#707070" fill-rule="evenodd" stroke="none"/>
    <path d="M-369.8 249.35 L-368.5 249.6 -367.6 250.55 -367.45 251.85 -368.1 253.0 -369.25 253.55 -370.55 253.3 -371.45 252.35 -371.6 251.05 -370.95 249.9 -369.8 249.35" fill="#707070" fill-rule="evenodd" stroke="none"/>
    <path d="M-404.1 253.75 L-403.2 254.7 -403.0 256.0 -403.65 257.15 -404.85 257.7 -406.15 257.45 -407.05 256.5 -407.2 255.2 -406.55 254.05 -405.35 253.5 -404.1 253.75" fill="#707070" fill-rule="evenodd" stroke="none"/>
    <path d="M-453.65 224.3 L-453.8 223.0 -453.15 221.85 -451.95 221.3 -450.7 221.55 -449.8 222.55 -449.65 223.85 -450.25 225.0 -451.45 225.55 -452.75 225.25 -453.65 224.3" fill="#707070" fill-rule="evenodd" stroke="none"/>
    <path d="M-443.4 180.3 L-444.6 180.85 -445.85 180.6 -446.75 179.65 -446.9 178.35 -446.25 177.2 -445.1 176.65 -443.8 176.9 -442.9 177.85 -442.75 179.15 -443.4 180.3" fill="#707070" fill-rule="evenodd" stroke="none"/>
    <path d="M-488.2 180.75 L-486.9 181.0 -486.0 181.95 -485.85 183.25 -486.5 184.4 -487.7 184.95 -488.95 184.7 -489.85 183.75 -490.0 182.45 -489.4 181.3 -488.2 180.75" fill="#707070" fill-rule="evenodd" stroke="none"/>
    <path d="M-584.0 18.55 L-583.85 19.85 -584.5 21.0 -585.7 21.55 -586.95 21.3 -587.85 20.35 -588.0 19.05 -587.4 17.9 -586.2 17.35 -584.9 17.6 -584.0 18.55" fill="#707070" fill-rule="evenodd" stroke="none"/>
    <path d="M-565.35 38.45 L-564.45 39.45 -564.25 40.75 -564.9 41.9 -566.1 42.45 -567.4 42.2 -568.3 41.2 -568.45 39.9 -567.8 38.75 -566.6 38.2 -565.35 38.45" fill="#707070" fill-rule="evenodd" stroke="none"/>
    <path d="M-563.6 -6.7 L-562.7 -5.75 -562.5 -4.45 -563.15 -3.3 -564.35 -2.75 -565.65 -3.0 -566.55 -3.95 -566.7 -5.25 -566.05 -6.4 -564.85 -6.95 -563.6 -6.7" fill="#707070" fill-rule="evenodd" stroke="none"/>
    <path d="M-581.55 -42.9 L-580.65 -41.95 -580.5 -40.65 -581.1 -39.5 -582.3 -38.95 -583.6 -39.2 -584.5 -40.15 -584.65 -41.45 -584.0 -42.6 -582.8 -43.15 -581.55 -42.9" fill="#707070" fill-rule="evenodd" stroke="none"/>
    <path d="M-14.25 -272.5 L-13.35 -271.55 -13.2 -270.25 -13.85 -269.1 -15.0 -268.55 -16.3 -268.8 -17.2 -269.75 -17.35 -271.05 -16.7 -272.2 -15.55 -272.75 -14.25 -272.5" fill="#707070" fill-rule="evenodd" stroke="none"/>
    <path d="M-42.2 -254.25 L-42.85 -253.1 -44.0 -252.55 -45.3 -252.8 -46.2 -253.75 -46.35 -255.05 -45.7 -256.2 -44.55 -256.75 -43.25 -256.5 -42.35 -255.55 -42.2 -254.25" fill="#707070" fill-rule="evenodd" stroke="none"/>
    <path d="M-79.7 -260.55 L-80.95 -260.8 -81.85 -261.75 -82.0 -263.05 -81.4 -264.2 -80.2 -264.75 -78.9 -264.5 -78.0 -263.55 -77.85 -262.25 -78.5 -261.1 -79.7 -260.55" fill="#707070" fill-rule="evenodd" stroke="none"/>
    <path d="M-71.15 -221.65 L-70.25 -220.7 -70.1 -219.4 -70.75 -218.25 -71.95 -217.7 -73.2 -217.95 -74.1 -218.9 -74.25 -220.2 -73.65 -221.35 -72.45 -221.9 -71.15 -221.65" fill="#707070" fill-rule="evenodd" stroke="none"/>
    <path d="M-138.25 -234.0 L-137.35 -233.05 -137.2 -231.75 -137.85 -230.6 Q-138.4 -230.3 -139.0 -230.05 L-140.3 -230.3 -141.2 -231.25 -141.35 -232.55 -140.7 -233.7 -139.55 -234.25 -138.25 -234.0" fill="#707070" fill-rule="evenodd" stroke="none"/>
    <path d="M-170.9 -249.5 L-170.0 -248.55 -169.85 -247.25 -170.5 -246.1 -171.7 -245.55 -172.95 -245.8 -173.85 -246.75 -174.0 -248.05 -173.4 -249.2 -172.2 -249.75 -170.9 -249.5" fill="#707070" fill-rule="evenodd" stroke="none"/>
    <path d="M22.6 -60.35 L21.4 -59.8 20.1 -60.05 19.2 -61.0 19.05 -62.3 19.7 -63.45 20.9 -64.0 22.2 -63.75 23.05 -62.8 23.25 -61.5 22.6 -60.35" fill="#707070" fill-rule="evenodd" stroke="none"/>
    <path d="M29.65 -91.0 L30.95 -90.75 31.8 -89.8 32.0 -88.5 31.35 -87.35 30.15 -86.8 28.85 -87.05 27.95 -88.0 27.8 -89.3 28.45 -90.45 29.65 -91.0" fill="#707070" fill-rule="evenodd" stroke="none"/>
    <path d="M-8.45 62.45 L-8.25 63.75 -8.9 64.9 -10.1 65.45 -11.4 65.2 -12.3 64.25 -12.45 62.95 -11.8 61.8 -10.6 61.25 -9.35 61.5 -8.45 62.45" fill="#707070" fill-rule="evenodd" stroke="none"/>
    <path d="M-7.1 89.75 L-6.2 90.7 -6.0 92.0 -6.65 93.15 -7.85 93.7 -9.15 93.45 -10.05 92.5 -10.2 91.2 -9.55 90.05 -8.35 89.5 -7.1 89.75" fill="#707070" fill-rule="evenodd" stroke="none"/>
    <path d="M341.8 135.7 L342.05 135.5 335.0 133.85 309.0 133.65 308.3 136.1 306.3 135.0 301.65 127.4 305.85 124.75 332.55 125.2 364.3 129.85 363.85 135.4 362.95 136.2 364.2 137.7 365.8 141.7 366.1 146.05 365.05 150.25 362.75 153.95 359.45 156.75 355.4 158.35 351.05 158.65 346.85 157.6 343.15 155.3 340.35 151.95 338.75 147.95 338.45 143.6 339.5 139.4 341.8 135.7" fill="#707070" fill-rule="evenodd" stroke="none"/>
    <path d="M310.55 87.65 L312.3 87.65 312.55 89.4 352.1 99.85 368.55 101.2 367.2 106.55 343.2 104.1 308.1 93.85 307.4 91.4 310.55 87.65" fill="#707070" fill-rule="evenodd" stroke="none"/>
    <path d="M345.15 64.55 L358.1 65.85 383.65 103.0 380.75 103.65 378.1 103.65 376.55 103.2 354.55 67.2 345.2 65.6 345.15 64.55" fill="#707070" fill-rule="evenodd" stroke="none"/>
    <path d="M387.85 30.25 L389.15 30.5 388.8 41.3 422.15 68.3 420.0 72.8 387.05 43.2 387.85 30.25" fill="#707070" fill-rule="evenodd" stroke="none"/>
    <path d="M400.25 163.05 L400.15 162.05 401.9 162.05 401.9 160.3 400.75 159.0 400.3 157.95 400.5 157.5 401.3 157.4 403.0 157.75 410.9 160.1 408.85 157.75 408.8 157.3 409.0 156.9 409.55 156.75 410.1 157.0 442.8 186.8 445.5 188.5 442.5 189.4 428.55 186.75 415.0 181.0 415.0 180.95 414.3 180.3 414.25 179.05 415.3 177.8 403.8 167.3 400.25 163.05" fill="#707070" fill-rule="evenodd" stroke="none"/>
    <path d="M426.5 126.8 L429.5 121.0 431.15 120.5 433.3 123.15 437.0 126.65 458.5 136.65 457.65 135.0 452.0 131.15 451.25 130.75 451.5 130.0 452.3 129.8 455.55 130.3 442.4 125.15 442.3 124.3 443.05 123.9 444.55 123.9 441.3 121.65 441.4 121.05 441.75 120.5 442.4 120.05 455.8 128.55 467.75 132.9 467.9 133.8 467.55 134.5 466.5 134.75 464.0 134.15 463.65 134.9 462.9 135.65 470.8 140.0 473.8 146.65 473.3 148.0 470.0 145.0 438.15 130.8 430.3 130.0 424.3 128.15 426.5 126.8" fill="#707070" fill-rule="evenodd" stroke="none"/>
    <path d="M-352.45 -190.05 L-348.3 -191.45 -343.95 -191.45 -339.8 -190.05 -336.3 -187.45 -333.75 -183.9 -332.4 -179.7 -332.4 -175.25 -333.75 -171.05 -336.3 -167.5 -339.8 -164.9 -343.95 -163.5 -348.3 -163.5 -352.45 -164.9 -355.95 -167.5 -358.55 -171.05 -359.85 -175.25 -359.85 -179.7 -358.55 -183.9 -355.95 -187.45 -352.45 -190.05" fill="#707070" fill-rule="evenodd" stroke="none"/>
    <path d="M-306.15 -189.9 L-306.15 -193.7 -300.35 -194.6 -295.45 -191.45 -295.0 -189.0 -296.15 -186.6 -346.15 -155.0 -349.25 -159.45 -325.25 -174.8 -306.15 -189.9" fill="#707070" fill-rule="evenodd" stroke="none"/>
    <path d="M-280.8 -160.8 L-277.0 -159.7 -280.15 -148.8 -282.15 -151.0 -311.7 -141.45 -331.7 -129.0 -334.15 -135.25 -320.35 -143.9 -280.8 -160.8" fill="#707070" fill-rule="evenodd" stroke="none"/>
    <path d="M-363.5 -159.8 L-367.3 -165.2 -367.35 -166.2 -366.75 -166.95 -365.85 -167.2 -365.05 -166.85 -361.25 -162.0 -360.95 -160.7 -361.2 -159.8 -361.95 -159.45 -362.65 -159.35 -363.5 -159.8" fill="#707070" fill-rule="evenodd" stroke="none"/>
    <path d="M-368.7 -114.85 L-367.0 -114.85 -365.5 -113.2 -343.5 -84.0 -334.35 -83.0 -334.0 -81.0 -343.35 -81.2 -345.85 -82.2 -370.0 -110.7 -368.7 -114.85" fill="#707070" fill-rule="evenodd" stroke="none"/>
    <path d="M-368.0 -62.35 L-366.0 -60.35 -366.7 -58.35 -366.0 -47.85 -367.5 -48.0 -368.2 -57.7 -400.2 -80.0 -400.0 -82.5 -399.35 -84.0 -396.0 -85.35 -368.0 -62.35" fill="#707070" fill-rule="evenodd" stroke="none"/>
    <path d="M-292.35 127.5 L-292.6 126.55 -291.2 121.45 -290.05 123.65 -288.95 124.55 -287.75 124.8 -285.95 125.8 -286.95 127.8 -286.85 129.35 -285.2 128.55 -284.75 130.9 -285.65 133.7 -283.75 139.0 -282.1 146.25 -281.6 153.85 -282.3 161.6 -284.2 169.25 -287.2 176.65 -291.25 183.55 -296.2 189.85 -302.0 195.3 -308.3 200.1 -315.2 204.1 -322.75 206.55 -329.4 206.8 -337.4 206.55 -342.85 205.5 -342.3 207.9 -347.6 206.8 -347.4 204.55 -346.95 203.0 -346.75 199.45 -344.3 198.1 -339.2 198.1 -337.2 199.9 -338.55 202.15 -336.95 202.1 -330.75 203.0 -324.15 203.05 -317.0 200.9 -310.2 197.65 -303.9 193.35 -298.25 188.1 -293.4 182.05 -289.55 175.4 -286.7 168.25 -284.95 160.8 -284.4 153.25 -285.0 145.85 -286.75 138.7 -292.95 127.9 -292.35 127.5" fill="#707070" fill-rule="evenodd" stroke="none"/>
    <path d="M-358.05 205.9 L-354.05 203.65 -351.2 200.35 -348.3 201.2 -348.05 203.45 -349.4 206.8 -348.05 211.2 -350.5 213.65 -352.3 213.45 -355.2 211.45 -356.75 209.9 -357.85 208.1 -359.6 206.35 -358.05 205.9" fill="#707070" fill-rule="evenodd" stroke="none"/>
    <path d="M-363.95 87.85 L-355.85 86.6 -349.05 86.15 -342.3 86.4 -329.85 89.85 -329.65 89.95 -329.55 88.85 -329.65 88.8 -329.5 88.55 -329.45 88.25 -328.55 86.75 -328.0 87.1 -327.4 87.05 -325.55 88.4 -324.8 89.15 -324.65 89.8 -324.7 89.85 -324.4 92.0 -324.95 93.55 -321.3 92.4 -319.95 91.55 -318.7 91.8 -317.7 92.5 -316.65 93.8 -316.4 95.5 -321.3 96.8 -325.55 100.65 -328.15 99.15 -328.4 98.4 -327.9 96.55 -327.9 95.05 -328.5 94.65 -328.6 95.3 -329.5 96.3 -329.75 97.9 -328.05 101.0 -328.3 101.55 -328.45 103.55 -329.45 103.4 -330.4 102.8 -331.4 102.5 -333.15 103.15 -333.65 103.5 -334.4 103.4 -336.45 100.8 -336.15 97.65 -335.9 96.8 -334.65 96.65 -333.7 96.15 -344.2 92.65 -350.55 92.05 -356.85 92.05 -364.35 92.7 -371.05 94.4 -378.5 96.95 -392.5 105.2 -408.65 119.05 -410.95 121.9 -413.7 127.3 -416.2 134.4 -418.75 147.1 -417.6 155.4 -416.65 158.45 -415.35 160.65 -411.05 166.2 -407.4 170.05 -409.7 171.25 -411.7 171.9 -411.9 174.8 -410.6 173.75 -408.75 175.05 -407.2 176.65 -405.95 178.9 -408.1 182.9 -414.5 180.3 -414.35 178.3 -414.95 176.25 -419.0 175.65 -419.45 173.15 -418.85 170.75 -416.85 171.55 -416.7 171.65 -419.05 168.95 -421.85 164.5 -423.6 159.05 -423.7 151.05 -420.1 137.4 -416.95 129.7 -412.75 122.2 -407.6 114.95 -402.15 109.15 -395.0 103.0 -387.75 97.65 -380.1 93.15 -363.95 87.85" fill="#707070" fill-rule="evenodd" stroke="none"/>
    <path d="M331.0 -296.6 L304.2 -299.5 284.15 -300.0 -289.7 -300.0 -305.2 -299.2 -330.85 -296.0 -366.15 -290.0 -399.5 -280.2 -431.5 -266.65 -461.65 -249.45 -489.65 -228.85 -515.05 -205.15 -537.55 -178.65 -556.8 -149.75 -572.55 -118.8 -584.65 -86.2 -592.85 -52.45 -597.05 -17.95 -597.25 16.75 -593.45 51.3 -585.6 85.15 -573.9 117.85 -558.5 149.0 -539.6 178.15 -517.4 204.85 -492.25 228.85 -464.5 249.75 -434.55 267.3 Q-418.6 274.3 -402.7 281.25 L-369.5 291.4 -329.6 297.7 304.2 297.8 347.6 295.5 370.2 291.4 403.4 281.25 Q419.35 274.3 435.25 267.3 L465.25 249.75 493.0 228.85 518.1 204.85 540.3 178.15 559.2 149.0 574.65 117.85 586.3 85.15 594.15 51.3 598.0 16.75 597.8 -17.95 593.55 -52.45 585.35 -86.2 573.25 -118.8 557.5 -149.75 538.25 -178.65 515.75 -205.15 490.35 -228.85 462.4 -249.45 432.2 -266.65 400.2 -280.2 366.9 -290.0 331.0 -296.6 M304.6 -304.5 L331.65 -301.7 368.0 -294.85 401.9 -284.9 434.4 -271.1 465.1 -253.65 493.55 -232.7 519.4 -208.6 542.25 -181.7 561.85 -152.3 577.85 -120.8 590.15 -87.7 598.45 -53.35 602.75 -18.3 603.0 17.05 599.1 52.15 591.15 86.55 579.25 119.8 563.55 151.45 544.3 181.1 521.75 208.3 496.2 232.65 468.0 253.95 437.5 271.75 405.15 285.95 371.4 296.25 348.2 300.5 304.35 302.8 -330.0 302.7 -370.6 296.3 -404.45 285.95 -436.8 271.75 -467.3 253.95 -495.5 232.65 -521.05 208.3 -543.6 181.1 -562.85 151.45 -578.55 119.8 -590.4 86.55 -598.35 52.15 -602.25 17.05 -602.05 -18.3 -597.75 -53.35 -589.4 -87.7 -577.15 -120.8 -561.1 -152.3 -541.55 -181.7 -518.7 -208.6 -492.85 -232.7 -464.4 -253.65 -433.7 -271.1 -401.2 -284.9 -367.25 -294.85 -330.3 -300.75 -305.85 -304.2 -289.9 -305.0 284.2 -305.0 304.6 -304.5" fill="#828282" fill-rule="evenodd" stroke="none"/>
    <path d="M179.0 305.0 L109.0 296.3 70.3 296.3 25.0 300.3 1.65 303.0 -2.35 294.3 64.3 275.65 66.3 279.65 101.0 282.3 111.65 286.3 146.3 290.3 181.0 296.3 179.0 305.0" fill="#434343" fill-rule="evenodd" stroke="none"/>
    <path d="M-143.0 -288.5 L-168.5 -291.5 -182.0 -295.5 -179.5 -304.5 -141.0 -296.5 -93.0 -293.5 -67.0 -294.5 -24.5 -299.5 -23.5 -296.0 -2.0 -302.0 3.5 -292.0 -64.0 -273.5 -67.0 -278.0 -78.5 -278.0 -95.0 -279.5 -107.5 -283.0 -112.5 -285.5 -143.0 -288.5" fill="#434343" fill-rule="evenodd" stroke="none"/>
  </g>
</svg>
