<?xml version="1.0" encoding="UTF-8" standalone="no"?>
<svg xmlns:ffdec="https://www.free-decompiler.com/flash" xmlns:xlink="http://www.w3.org/1999/xlink" ffdec:objectType="shape" height="1060.0px" width="1666.65px" xmlns="http://www.w3.org/2000/svg">
  <g transform="matrix(1.0, 0.0, 0.0, 1.0, 834.15, 531.0)">
    <path d="M603.2 -443.05 L650.55 -406.5 693.5 -364.45 731.5 -317.5 764.1 -266.2 790.75 -211.25 811.15 -153.45 825.05 -93.6 832.2 -32.4 832.5 29.2 826.05 90.5 812.8 150.55 793.05 208.55 766.95 263.8 734.95 315.5 697.45 362.9 654.95 405.5 608.05 442.55 557.3 473.7 503.5 498.4 447.3 516.45 399.95 525.5 370.65 528.5 330.9 529.0 -333.5 529.0 -370.65 528.55 -402.15 525.4 -448.95 516.45 -505.15 498.4 -558.95 473.7 -609.65 442.55 -656.6 405.5 -699.1 362.9 -736.6 315.5 -768.6 263.8 -794.65 208.55 -814.45 150.55 -827.65 90.5 -834.15 29.2 -833.8 -32.4 -826.65 -93.6 -812.8 -153.45 -792.35 -211.25 -765.7 -266.2 -733.15 -317.5 -695.1 -364.45 -652.15 -406.5 -604.85 -443.05 -553.8 -473.55 -499.7 -497.6 -443.3 -514.95 -390.4 -524.4 -333.8 -531.0 332.15 -531.0 388.8 -524.4 441.7 -514.95 498.05 -497.6 552.15 -473.55 603.2 -443.05" fill="#707070" fill-rule="evenodd" stroke="none"/>
    <path d="M524.55 -428.95 L573.05 -401.35 618.0 -368.25 658.8 -330.2 694.95 -287.6 725.9 -241.15 751.2 -191.45 770.6 -139.1 783.8 -84.85 790.6 -29.45 790.9 26.35 784.75 81.85 772.2 136.25 753.4 188.8 728.65 238.8 698.2 285.65 662.6 328.6 622.2 367.15 577.6 400.7 529.45 428.9 478.3 451.3 424.95 467.6 371.0 477.45 361.65 478.45 314.3 479.0 -316.9 479.0 -360.95 478.5 -374.0 477.2 -426.55 467.6 -479.95 451.3 -531.05 428.9 -579.25 400.7 -623.85 367.15 -664.2 328.6 -699.85 285.65 -730.25 238.8 -755.0 188.8 -773.8 136.25 -786.35 81.85 -792.55 26.35 -792.2 -29.45 -785.4 -84.85 -772.25 -139.1 -752.85 -191.45 -727.5 -241.15 -696.55 -287.6 -660.45 -330.2 -619.65 -368.25 -574.65 -401.35 -526.15 -428.95 -474.8 -450.75 -421.25 -466.5 -375.05 -474.35 -366.25 -476.75 -317.15 -494.65 -217.35 -514.7 216.0 -514.7 315.55 -494.65 363.55 -477.15 373.85 -474.25 419.6 -466.5 473.15 -450.75 524.55 -428.95" fill="#434343" fill-rule="evenodd" stroke="none"/>
    <path d="M392.8 -313.4 L394.35 -319.45 410.25 -314.8 446.15 -299.55 474.6 -283.35 471.2 -278.5 494.05 -262.55 497.45 -267.45 511.5 -257.1 516.9 -252.05 510.15 -245.55 511.8 -243.85 519.7 -251.35 519.7 -251.4 539.5 -271.2 571.25 -239.45 543.9 -212.3 545.55 -210.65 551.8 -216.6 560.6 -206.25 556.1 -202.95 572.75 -180.6 576.7 -183.55 586.85 -168.3 604.6 -133.55 615.3 -104.65 610.65 -103.6 616.8 -76.45 622.8 -77.8 627.35 -59.05 632.1 -20.35 632.3 15.7 628.0 54.45 625.0 67.45 618.95 66.05 612.75 93.2 618.5 94.5 606.1 129.2 588.8 164.2 582.0 174.6 578.35 171.9 561.75 194.2 566.7 197.9 551.35 216.4 545.8 211.1 544.15 212.75 553.6 221.95 553.6 221.85 571.25 239.5 539.5 271.25 518.35 250.1 518.25 250.2 512.05 244.3 510.4 246.0 516.5 251.9 514.4 253.85 505.8 260.35 503.0 256.35 480.15 272.25 483.5 277.1 483.25 277.35 449.6 297.05 413.85 312.7 403.65 315.8 402.25 310.35 375.25 317.3 376.95 323.95 375.85 324.3 336.5 329.95 299.25 330.35 206.3 330.35 165.7 346.65 163.0 346.65 163.0 348.15 165.1 348.15 165.1 381.3 135.1 381.3 135.1 348.15 137.2 348.15 137.2 346.65 129.65 346.65 129.65 348.15 131.75 348.15 131.75 381.3 101.75 381.3 101.75 348.15 103.85 348.15 103.85 346.65 96.3 346.65 96.3 348.15 98.4 348.15 98.4 381.3 68.4 381.3 68.4 348.15 70.55 348.15 70.55 346.65 63.0 346.65 63.0 348.15 65.1 348.15 65.1 381.3 35.1 381.3 35.1 348.15 37.2 348.15 37.2 346.65 29.65 346.65 29.65 348.15 31.75 348.15 31.75 381.3 1.75 381.3 1.75 348.15 3.85 348.15 3.85 346.65 -3.7 346.65 -3.7 348.15 -1.6 348.15 -1.6 381.3 -31.6 381.3 -31.6 348.15 -29.45 348.15 -29.45 346.65 -37.0 346.65 -37.0 348.15 -34.9 348.15 -34.9 381.3 -64.9 381.3 -64.9 348.15 -62.8 348.15 -62.8 346.65 -70.35 346.65 -70.35 348.15 -68.25 348.15 -68.25 381.3 -98.25 381.3 -98.25 348.15 -96.15 348.15 -96.15 346.65 -103.7 346.65 -103.7 348.15 -101.6 348.15 -101.6 381.3 -131.6 381.3 -131.6 348.15 -129.45 348.15 -129.45 346.65 -137.0 346.65 -137.0 348.15 -134.9 348.15 -134.9 381.3 -164.9 381.3 -164.9 348.15 -162.8 348.15 -162.8 346.65 -166.7 346.65 -205.0 330.35 -301.05 330.35 -338.15 329.95 -367.0 325.8 -365.4 319.65 -392.4 312.7 -394.1 319.2 -415.45 312.7 -451.2 297.05 -474.7 283.25 -470.55 277.25 -493.35 261.35 -497.75 267.6 -516.05 253.85 -517.05 252.9 -509.85 245.85 -511.5 244.2 -518.85 251.2 -519.15 250.85 -539.55 271.25 -571.3 239.5 -553.1 221.25 -553.05 221.85 -543.6 212.65 -545.25 211.0 -552.1 217.5 -561.75 205.8 -555.9 201.45 -572.55 179.1 -578.05 183.2 -590.4 164.2 -607.7 129.2 -616.8 103.75 -610.05 102.2 -616.2 75.05 -624.45 76.95 -629.65 54.45 -633.95 15.7 -633.7 -20.35 -628.95 -59.05 -626.9 -67.55 -619.65 -65.9 -613.5 -93.05 -620.35 -94.6 -619.75 -96.95 -606.2 -133.55 -588.5 -168.3 -583.85 -175.25 -578.1 -170.95 -561.45 -193.25 -568.4 -198.45 -566.9 -200.75 -552.75 -217.4 -545.5 -210.55 -543.85 -212.2 -571.3 -239.45 -539.55 -271.2 -519.65 -251.3 -519.65 -251.25 -511.75 -243.75 -510.1 -245.4 -517.7 -252.8 -513.1 -257.1 -506.5 -261.95 -502.35 -256.05 -479.55 -272.0 -484.05 -278.5 -481.65 -280.25 -447.8 -299.55 -411.85 -314.8 -404.7 -316.9 -402.95 -310.2 -376.0 -317.1 -377.95 -324.75 -374.45 -325.75 -335.3 -332.45 -293.95 -333.0 -205.0 -333.0 -166.7 -346.7 -162.8 -346.7 -162.8 -348.35 -164.9 -348.35 -164.9 -381.5 -134.9 -381.5 -134.9 -348.35 -137.0 -348.35 -137.0 -346.7 -129.45 -346.7 -129.45 -348.35 -131.6 -348.35 -131.6 -381.5 -101.6 -381.5 -101.6 -348.35 -103.7 -348.35 -103.7 -346.7 -96.15 -346.7 -96.15 -348.35 -98.25 -348.35 -98.25 -381.5 -68.25 -381.5 -68.25 -348.35 -70.35 -348.35 -70.35 -346.7 -62.8 -346.7 -62.8 -348.35 -64.9 -348.35 -64.9 -381.5 -34.9 -381.5 -34.9 -348.35 -37.0 -348.35 -37.0 -346.7 -29.45 -346.7 -29.45 -348.35 -31.6 -348.35 -31.6 -381.5 -1.6 -381.5 -1.6 -348.35 -3.7 -348.35 -3.7 -346.7 3.85 -346.7 3.85 -348.35 1.75 -348.35 1.75 -381.5 31.75 -381.5 31.75 -348.35 29.65 -348.35 29.65 -346.7 37.2 -346.7 37.2 -348.35 35.1 -348.35 35.1 -381.5 65.1 -381.5 65.1 -348.35 63.0 -348.35 63.0 -346.7 70.55 -346.7 70.55 -348.35 68.4 -348.35 68.4 -381.5 98.4 -381.5 98.4 -348.35 96.3 -348.35 96.3 -346.7 103.85 -346.7 103.85 -348.35 101.75 -348.35 101.75 -381.5 131.75 -381.5 131.75 -348.35 129.65 -348.35 129.65 -346.7 137.2 -346.7 137.2 -348.35 135.1 -348.35 135.1 -381.5 165.1 -381.5 165.1 -348.35 163.0 -348.35 163.0 -346.7 165.7 -346.7 206.3 -333.0 292.85 -333.0 333.65 -332.45 367.45 -326.7 365.8 -320.35 392.8 -313.4" fill="#707070" fill-rule="evenodd" stroke="none"/>
    <path d="M387.65 -287.0 L417.3 -276.0 468.0 -250.0 505.0 -218.35 535.65 -185.7 556.0 -156.7 570.65 -128.7 587.0 -89.0 599.3 -28.0 600.1 9.85 598.55 31.2 593.4 63.65 581.65 104.8 562.8 147.0 539.0 183.4 510.3 217.0 470.75 249.0 436.55 270.1 389.0 288.3 345.0 299.0 305.5 301.0 -291.0 301.0 -330.5 299.5 -389.45 289.4 -425.45 274.0 -458.35 256.3 -492.35 231.65 -515.7 210.3 -535.0 187.0 -554.35 159.65 -571.0 128.3 -583.0 99.0 -593.0 65.65 -600.35 21.0 -599.7 -23.0 -595.0 -53.0 -586.35 -86.35 -575.7 -117.7 -565.0 -139.7 -541.7 -175.7 -519.7 -203.7 -495.7 -227.0 -469.0 -247.0 -446.35 -261.0 -411.0 -279.0 -380.35 -287.7 -337.0 -297.0 -307.0 -302.0 295.0 -302.35 335.0 -298.35 387.65 -287.0" fill="#969696" fill-rule="evenodd" stroke="none"/>
    <path d="M133.5 146.0 L133.0 141.0 133.0 135.0 134.0 124.0 137.0 114.0 142.5 108.0 152.0 103.0 162.7 99.35 164.35 99.1 173.5 100.0 181.0 101.5 188.5 105.5 194.0 109.5 206.5 110.0 215.0 113.0 221.5 112.5 226.5 113.5 230.5 115.5 233.5 117.5 241.5 116.5 254.0 116.5 262.0 118.5 265.5 121.0 268.5 125.5 267.3 131.55 295.65 120.3 317.3 175.3 287.65 185.65 260.65 194.0 243.3 198.0 230.0 199.3 219.65 199.65 203.65 197.0 193.9 194.15 173.3 186.0 158.0 177.3 147.0 167.5 141.0 163.0 139.2 159.45 138.5 159.0 136.0 153.5 135.5 152.0 134.5 150.0 134.75 149.7 133.5 146.0" fill="#434343" fill-rule="evenodd" stroke="none"/>
    <path d="M-9.0 187.0 L-26.35 175.0 -25.0 172.3 -13.7 165.3 1.0 157.0 8.65 153.3 12.3 153.0 18.65 153.65 19.75 154.2 20.55 154.85 21.75 156.35 32.3 161.65 64.3 176.0 105.65 191.0 130.65 199.0 183.65 209.0 170.0 266.65 119.0 250.0 64.0 227.65 35.3 214.0 -9.0 187.0" fill="#434343" fill-rule="evenodd" stroke="none"/>
    <path d="M-183.0 -209.5 L-171.5 -268.0 -148.5 -261.5 -122.35 -253.45 -95.7 -243.0 -64.0 -229.7 -29.35 -212.0 2.0 -193.7 28.0 -175.7 25.65 -171.35 5.3 -159.35 -4.7 -154.0 -13.85 -152.35 -16.7 -152.7 -18.5 -153.55 -20.85 -155.5 -22.95 -158.15 -49.7 -170.7 -76.0 -181.35 -125.5 -197.0 -151.45 -203.15 -183.0 -209.5" fill="#434343" fill-rule="evenodd" stroke="none"/>
    <path d="M94.55 34.55 L102.1 34.1 107.65 34.65 113.3 37.0 116.0 38.65 119.65 42.3 122.65 44.65 126.65 51.0 127.65 58.0 126.0 62.0 120.3 70.65 104.65 85.0 95.3 91.3 82.65 94.65 77.65 94.25 71.65 89.3 70.0 87.0 65.65 78.0 64.3 72.65 63.65 64.0 65.0 58.3 67.65 53.65 70.1 50.3 75.2 44.75 81.0 40.3 87.0 37.0 94.55 34.55" fill="#434343" fill-rule="evenodd" stroke="none"/>
    <path d="M-12.15 80.3 L-4.35 87.3 -1.7 90.65 -0.35 95.3 0.3 101.3 -1.0 107.65 -2.7 112.0 -8.7 114.65 -28.0 121.65 -41.7 124.0 -49.35 124.0 -58.7 122.65 -63.7 120.3 -66.7 115.3 -68.0 110.3 -69.0 103.65 -66.35 85.65 -62.7 80.0 -59.0 76.55 -54.8 73.85 -51.45 72.3 -41.0 70.3 -36.35 70.1 -31.45 70.75 -24.35 72.55 -17.35 76.65 -12.15 80.3" fill="#434343" fill-rule="evenodd" stroke="none"/>
    <path d="M53.85 -122.6 L58.1 -121.45 62.55 -118.8 64.75 -114.6 67.0 -109.0 67.85 -104.6 68.1 -98.8 67.2 -90.6 63.0 -79.7 54.8 -73.35 50.75 -71.45 41.65 -69.9 33.0 -69.9 26.75 -71.7 19.0 -76.15 12.3 -81.25 6.1 -86.6 3.0 -91.9 1.4 -96.8 1.4 -102.35 2.75 -105.9 5.0 -108.8 8.1 -111.0 14.3 -114.15 27.4 -119.25 43.4 -122.8 48.3 -123.25 53.85 -122.6" fill="#434343" fill-rule="evenodd" stroke="none"/>
    <path d="M-115.35 -75.7 L-109.25 -81.1 -101.7 -86.0 -92.0 -90.7 -83.8 -92.5 -79.7 -93.0 -75.3 -91.7 -70.0 -88.35 -66.0 -82.7 -63.0 -76.0 -63.35 -69.0 -64.7 -60.7 -68.0 -52.35 -70.35 -49.0 -75.0 -43.7 -79.0 -40.35 -84.35 -37.0 -91.7 -34.35 -99.0 -33.0 -109.35 -33.35 -117.7 -36.35 -121.7 -39.7 -125.35 -48.7 -125.7 -52.7 -124.7 -59.0 -123.0 -64.0 -117.35 -73.35 -115.35 -75.7" fill="#434343" fill-rule="evenodd" stroke="none"/>
    <path d="M-147.35 -171.7 L-136.0 -162.35 -130.35 -152.0 -128.7 -145.7 -127.35 -134.0 -129.35 -121.0 -132.0 -111.7 -135.7 -107.7 -139.35 -105.25 -151.0 -102.0 -158.0 -99.35 -164.15 -98.75 -174.15 -99.75 -181.65 -101.25 -189.15 -105.25 -194.65 -109.25 -207.15 -109.75 -215.65 -112.75 -222.15 -112.25 -227.15 -113.25 -231.15 -115.25 -234.15 -117.25 -242.15 -116.25 -254.65 -116.25 -262.65 -118.25 -266.15 -120.75 -269.15 -125.25 -267.95 -131.35 -267.9 -131.4 -277.0 -128.35 -289.35 -123.0 -316.7 -174.35 -303.0 -180.0 -278.35 -189.0 -264.35 -193.0 -243.7 -197.35 -227.0 -197.7 -216.0 -197.0 -194.0 -192.35 -176.35 -187.35 -158.35 -179.0 -147.35 -171.7" fill="#434343" fill-rule="evenodd" stroke="none"/>
    <path d="M-142.35 -283.7 L-155.7 -286.35 -164.7 -290.7 -171.7 -296.0 -175.0 -299.0 -169.0 -300.0 183.65 -300.0 191.4 -299.7 188.9 -296.3 187.0 -295.0 164.5 -292.0 123.5 -280.0 96.0 -276.5 64.5 -274.5 4.0 -273.0 -33.0 -276.0 -73.0 -280.5 -94.0 -281.5 -132.35 -282.4 -142.35 -283.7" fill="#7f7f7f" fill-rule="evenodd" stroke="none"/>
    <path d="M-125.8 280.4 L-48.35 275.0 8.3 275.0 105.0 283.65 147.65 284.15 151.9 284.65 155.35 285.55 159.4 288.05 161.5 290.0 164.85 291.7 172.15 293.3 175.0 295.15 177.65 297.7 177.35 298.05 -172.5 298.0 -172.95 297.85 -171.45 296.75 -164.85 293.5 -152.0 290.0 -139.6 284.6 -125.8 280.4" fill="#7f7f7f" fill-rule="evenodd" stroke="none"/>
    <path d="M213.5 -67.5 L219.4 -65.25 224.75 -61.45 232.3 -53.0 238.3 -44.15 241.65 -36.6 243.65 -30.6 244.75 -25.0 245.2 -19.0 244.75 -4.8 242.75 5.4 238.75 16.55 235.2 23.85 230.75 31.0 226.3 35.2 215.0 42.55 207.65 45.65 204.1 45.65 199.85 44.1 199.0 42.3 205.65 26.0 211.0 1.65 211.65 -16.35 211.0 -31.0 209.0 -45.7 205.3 -59.7 200.8 -67.0 201.5 -69.0 207.0 -69.0 213.5 -67.5" fill="#7f7f7f" fill-rule="evenodd" stroke="none"/>
    <path d="M-214.7 -42.25 L-207.35 -45.35 -203.8 -45.35 -199.6 -43.8 -198.7 -42.0 -205.35 -25.7 -210.7 -1.35 -211.35 16.65 -210.7 31.3 -208.7 46.0 -205.0 60.0 -200.5 67.3 -201.2 69.3 -206.7 69.3 -213.2 67.8 -219.15 65.55 -224.45 61.75 -233.8 51.1 -238.0 44.4 -241.35 36.85 -243.35 30.85 -244.45 25.3 -244.9 19.3 -244.45 5.1 -242.45 -5.15 -237.45 -18.35 -229.7 -30.8 -226.0 -34.9 -214.7 -42.25" fill="#7f7f7f" fill-rule="evenodd" stroke="none"/>
    <path d="M304.6 -304.5 L331.65 -301.7 368.0 -294.85 401.9 -284.9 434.4 -271.1 465.1 -253.65 493.55 -232.7 519.4 -208.6 542.25 -181.7 561.85 -152.3 577.85 -120.8 590.15 -87.7 598.45 -53.35 602.75 -18.3 603.0 17.05 599.1 52.15 591.15 86.55 579.25 119.8 563.55 151.45 544.3 181.1 521.75 208.3 496.2 232.65 468.0 253.95 437.5 271.75 405.15 285.95 371.4 296.25 348.2 300.5 304.35 302.8 -330.0 302.7 -370.6 296.3 -404.45 285.95 -436.8 271.75 -467.3 253.95 -495.5 232.65 -521.05 208.3 -543.6 181.1 -562.85 151.45 -578.55 119.8 -590.4 86.55 -598.35 52.15 -602.25 17.05 -602.05 -18.3 -597.75 -53.35 -589.4 -87.7 -577.15 -120.8 -561.1 -152.3 -541.55 -181.7 -518.7 -208.6 -492.85 -232.7 -464.4 -253.65 -433.7 -271.1 -401.2 -284.9 -367.25 -294.85 -330.3 -300.75 -305.85 -304.2 -289.9 -305.0 284.2 -305.0 304.6 -304.5 M331.0 -296.6 L304.2 -299.5 284.15 -300.0 -289.7 -300.0 -305.2 -299.2 -330.85 -296.0 -366.15 -290.0 -399.5 -280.2 -431.5 -266.65 -461.65 -249.45 -489.65 -228.85 -515.05 -205.15 -537.55 -178.65 -556.8 -149.75 -572.55 -118.8 -584.65 -86.2 -592.85 -52.45 -597.05 -17.95 -597.25 16.75 -593.45 51.3 -585.6 85.15 -573.9 117.85 -558.5 149.0 -539.6 178.15 -517.4 204.85 -492.25 228.85 -464.5 249.75 -434.55 267.3 Q-418.6 274.3 -402.7 281.25 L-369.5 291.4 -329.6 297.7 304.2 297.8 347.6 295.5 370.2 291.4 403.4 281.25 Q419.35 274.3 435.25 267.3 L465.25 249.75 493.0 228.85 518.1 204.85 540.3 178.15 559.2 149.0 574.65 117.85 586.3 85.15 594.15 51.3 598.0 16.75 597.8 -17.95 593.55 -52.45 585.35 -86.2 573.25 -118.8 557.5 -149.75 538.25 -178.65 515.75 -205.15 490.35 -228.85 462.4 -249.45 432.2 -266.65 400.2 -280.2 366.9 -290.0 331.0 -296.6" fill="#828282" fill-rule="evenodd" stroke="none"/>
    <path d="M352.4 -277.6 L369.45 -273.6 386.25 -268.45 402.5 -261.5 417.3 -253.5 448.3 -234.65 462.7 -224.3 476.5 -213.0 489.5 -200.85 501.8 -187.85 513.25 -174.05 523.85 -159.55 533.55 -144.35 542.3 -128.55 550.1 -112.2 557.85 -97.85 563.55 -80.6 568.25 -63.05 571.8 -45.15 574.3 -27.1 575.7 -8.9 575.95 9.35 575.15 27.55 573.2 45.7 570.15 63.65 566.05 81.4 560.85 98.8 554.6 115.85 547.3 132.45 539.3 146.0 517.0 179.65 508.65 193.1 496.75 206.5 484.1 219.1 470.7 230.8 441.3 248.65 423.55 260.35 394.5 275.0 338.65 295.3 310.95 246.95 351.25 227.3 366.85 220.35 381.9 212.5 396.4 203.75 410.25 194.1 423.5 183.7 435.95 172.55 447.65 160.65 458.5 148.05 468.5 134.85 477.6 121.1 485.75 106.85 492.9 92.1 499.05 76.95 504.2 61.5 508.25 45.75 511.25 29.8 513.15 13.7 513.95 -2.45 513.7 -18.65 511.3 -36.35 504.9 -65.0 500.35 -80.6 494.7 -95.9 488.05 -110.85 480.4 -125.35 471.75 -139.35 462.2 -152.85 451.75 -165.75 440.5 -178.0 428.4 -189.55 415.55 -200.35 406.0 -209.5 390.0 -220.0 374.45 -229.55 343.0 -242.35 326.8 -247.9 313.3 -251.6 320.0 -282.35 335.1 -280.5 352.4 -277.6" fill="#707070" fill-rule="evenodd" stroke="none"/>
    <path d="M-340.05 -288.7 L-312.35 -240.3 -352.7 -220.7 -368.25 -213.75 -383.3 -205.85 -397.8 -197.1 -411.7 -187.5 -424.9 -177.1 -437.35 -165.9 -449.05 -154.0 -459.95 -141.45 -469.95 -128.25 -479.0 -114.5 -487.15 -100.2 -494.3 -85.5 -500.5 -70.35 -505.6 -54.9 -509.65 -39.15 -512.65 -23.2 -514.55 -7.1 -515.4 9.1 -515.1 25.25 -512.7 43.0 -506.35 71.6 -501.75 87.2 -496.1 102.5 -489.45 117.45 -481.8 131.95 -473.15 146.0 -463.65 159.45 -453.2 172.35 -441.9 184.6 -429.8 196.15 -416.95 206.95 -407.4 216.1 -391.4 226.6 Q-383.6 231.4 -375.85 236.15 L-344.4 249.0 -328.2 254.5 -314.7 258.2 -321.4 289.0 -336.5 287.1 -353.8 284.2 -370.85 280.2 -387.65 275.05 -403.9 268.1 -418.7 260.15 -449.7 241.25 -464.15 230.9 -477.9 219.65 -490.95 207.45 -503.2 194.45 -514.7 180.65 -525.3 166.15 -534.95 150.95 -543.7 135.15 -551.5 118.8 -559.25 104.5 -565.0 87.25 -569.65 69.65 -573.25 51.8 -575.7 33.7 -577.1 15.55 -577.4 -2.7 -576.55 -20.95 -574.6 -39.1 -571.6 -57.05 -567.45 -74.8 -562.25 -92.2 -556.0 -109.25 -548.75 -125.85 -540.7 -139.35 -518.4 -173.0 -510.05 -186.45 -498.15 -199.85 -485.5 -212.45 -472.1 -224.2 -442.7 -242.0 -425.0 -253.75 -395.95 -268.35 -379.3 -274.05 -340.05 -288.7" fill="#707070" fill-rule="evenodd" stroke="none"/>
    <path d="M304.75 -41.85 L306.0 -40.75 306.05 -39.2 305.5 -36.95 303.5 -33.7 301.25 -32.25 299.4 -32.0 295.3 -32.75 294.5 -33.35 291.9 -37.6 292.05 -39.0 294.9 -44.35 295.8 -44.6 297.0 -44.45 303.55 -42.35 304.75 -41.85" fill="#707070" fill-rule="evenodd" stroke="none"/>
    <path d="M248.55 42.3 L249.4 42.75 251.05 44.55 251.65 45.5 252.0 46.4 252.25 47.5 252.3 49.75 249.3 56.05 247.0 59.25 245.25 59.9 238.25 59.55 236.0 59.25 235.05 58.3 233.0 50.65 232.8 49.25 234.15 46.75 234.55 45.8 235.55 44.65 242.4 41.4 243.75 41.05 245.25 41.15 248.55 42.3" fill="#707070" fill-rule="evenodd" stroke="none"/>
    <path d="M317.9 -4.95 L316.6 -5.2 315.7 -6.15 315.55 -7.5 316.2 -8.6 317.4 -9.15 318.65 -8.9 319.55 -7.95 319.7 -6.65 319.1 -5.5 317.9 -4.95" fill="#707070" fill-rule="evenodd" stroke="none"/>
    <path d="M297.15 -9.65 L298.4 -9.4 299.3 -8.45 299.45 -7.15 298.85 -6.0 297.65 -5.45 296.35 -5.7 295.45 -6.65 295.3 -8.0 295.95 -9.1 297.15 -9.65" fill="#707070" fill-rule="evenodd" stroke="none"/>
    <path d="M279.25 -82.25 L280.15 -81.3 280.3 -80.0 279.65 -78.85 278.5 -78.3 277.2 -78.55 276.3 -79.5 276.15 -80.8 276.8 -81.95 277.95 -82.5 279.25 -82.25" fill="#707070" fill-rule="evenodd" stroke="none"/>
    <path d="M258.6 -57.65 L259.5 -56.7 259.65 -55.4 259.0 -54.25 257.8 -53.7 256.5 -53.95 255.65 -54.9 255.5 -56.25 256.1 -57.35 257.3 -57.9 258.6 -57.65" fill="#707070" fill-rule="evenodd" stroke="none"/>
    <path d="M-310.4 32.75 L-306.35 33.5 -305.5 34.1 -302.9 38.35 -303.1 39.75 -305.9 45.1 -306.85 45.35 -311.15 44.35 -315.75 42.6 -317.0 41.5 -317.1 39.9 -316.5 37.65 -314.5 34.4 -312.25 33.0 -310.4 32.75" fill="#707070" fill-rule="evenodd" stroke="none"/>
    <path d="M-243.25 -55.9 L-241.15 -48.25 -241.0 -46.85 -242.35 -44.35 -242.75 -43.4 -243.75 -42.25 -250.6 -39.0 -251.9 -38.65 -253.4 -38.75 -256.75 -39.9 -257.6 -40.35 -259.25 -42.15 -259.85 -43.1 -260.4 -45.1 -260.5 -47.35 -257.5 -53.65 -255.15 -56.85 -253.4 -57.5 -246.4 -57.15 -244.15 -56.85 -243.25 -55.9" fill="#707070" fill-rule="evenodd" stroke="none"/>
    <path d="M-316.45 5.25 L-315.55 6.25 -315.4 7.55 -316.05 8.7 -317.25 9.25 -318.55 9.0 -319.4 8.0 -319.6 6.7 -318.95 5.55 -317.75 5.0 -316.45 5.25" fill="#707070" fill-rule="evenodd" stroke="none"/>
    <path d="M-296.1 7.1 L-295.2 8.05 -295.05 9.35 -295.7 10.5 -296.9 11.05 -298.15 10.8 -299.05 9.85 -299.2 8.55 -298.6 7.4 -297.4 6.85 -296.1 7.1" fill="#707070" fill-rule="evenodd" stroke="none"/>
    <path d="M-275.95 79.8 L-275.8 81.1 -276.4 82.25 -277.6 82.8 -278.9 82.55 -279.8 81.6 -279.95 80.25 -279.3 79.15 -278.1 78.6 -276.85 78.85 -275.95 79.8" fill="#707070" fill-rule="evenodd" stroke="none"/>
    <path d="M-254.9 56.3 L-255.55 57.45 -256.7 58.0 -258.0 57.75 -258.9 56.75 -259.05 55.45 -258.4 54.3 -257.2 53.75 -255.95 54.0 -255.05 55.0 -254.9 56.3" fill="#707070" fill-rule="evenodd" stroke="none"/>
    <path d="M19.65 -20.1 L20.65 -19.0 20.8 -17.55 20.1 -16.25 18.75 -15.65 17.3 -15.95 16.3 -17.0 16.15 -18.45 16.85 -19.75 18.2 -20.35 19.65 -20.1" fill="#707070" fill-rule="evenodd" stroke="none"/>
    <path d="M19.75 17.45 L20.75 18.55 20.9 20.0 20.2 21.3 18.85 21.9 17.45 21.6 16.45 20.55 16.25 19.1 16.95 17.8 18.3 17.2 19.75 17.45" fill="#707070" fill-rule="evenodd" stroke="none"/>
    <path d="M-17.8 17.35 L-16.8 18.45 -16.65 19.9 -17.35 21.2 -18.7 21.8 -20.15 21.5 -21.15 20.45 -21.3 19.0 -20.6 17.7 -19.25 17.05 -17.8 17.35" fill="#707070" fill-rule="evenodd" stroke="none"/>
    <path d="M-18.7 -15.55 L-20.15 -15.8 -21.15 -16.9 -21.3 -18.35 -20.6 -19.65 -19.25 -20.25 -17.8 -20.0 -16.8 -18.9 -16.65 -17.45 -17.35 -16.15 -18.7 -15.55" fill="#707070" fill-rule="evenodd" stroke="none"/>
    <path d="M244.5 107.4 L243.05 107.1 242.05 106.05 241.85 104.6 242.6 103.3 243.9 102.7 245.35 102.95 246.35 104.05 246.55 105.5 245.8 106.8 244.5 107.4" fill="#707070" fill-rule="evenodd" stroke="none"/>
    <path d="M214.25 107.7 L214.1 106.25 214.8 104.95 216.15 104.35 217.6 104.65 218.6 105.7 218.75 107.15 218.05 108.45 216.7 109.05 215.25 108.8 214.25 107.7" fill="#707070" fill-rule="evenodd" stroke="none"/>
    <path d="M-1.7 206.05 L-0.25 206.35 0.75 207.45 0.9 208.9 0.2 210.2 -1.15 210.8 -2.55 210.5 -3.55 209.45 -3.75 208.0 -3.05 206.7 -1.7 206.05" fill="#707070" fill-rule="evenodd" stroke="none"/>
    <path d="M-13.9 265.95 L-14.8 265.0 -14.95 263.7 -14.3 262.55 -13.1 262.0 -11.85 262.25 -10.95 263.2 -10.8 264.5 -11.4 265.65 -12.6 266.2 -13.9 265.95" fill="#707070" fill-rule="evenodd" stroke="none"/>
    <path d="M-28.6 260.85 L-28.45 262.2 -29.1 263.3 -30.25 263.85 -31.55 263.6 -32.45 262.65 -32.6 261.35 -31.95 260.2 -30.8 259.65 -29.5 259.9 -28.6 260.85" fill="#707070" fill-rule="evenodd" stroke="none"/>
    <path d="M16.7 267.0 L16.1 268.15 14.9 268.7 13.6 268.45 12.7 267.5 12.55 266.2 13.2 265.05 14.4 264.5 15.65 264.75 16.55 265.7 16.7 267.0" fill="#707070" fill-rule="evenodd" stroke="none"/>
    <path d="M-43.9 274.3 L-44.8 273.35 -44.95 272.0 -44.3 270.9 -43.1 270.35 -41.85 270.6 -40.95 271.55 -40.8 272.85 -41.4 274.0 -42.6 274.55 -43.9 274.3" fill="#707070" fill-rule="evenodd" stroke="none"/>
    <path d="M-45.0 264.15 L-44.1 265.1 -43.95 266.45 -44.6 267.55 -45.75 268.1 -47.05 267.85 -47.95 266.9 -48.1 265.6 -47.45 264.45 -46.3 263.9 -45.0 264.15" fill="#707070" fill-rule="evenodd" stroke="none"/>
    <path d="M-105.3 124.8 L-106.15 123.85 -106.35 122.5 -105.7 121.4 -104.5 120.85 -103.2 121.1 -102.3 122.05 -102.15 123.35 -102.8 124.5 -104.0 125.05 -105.3 124.8" fill="#707070" fill-rule="evenodd" stroke="none"/>
    <path d="M18.5 75.5 L19.65 74.95 20.95 75.2 21.85 76.15 22.0 77.45 21.35 78.6 20.15 79.15 18.9 78.9 18.0 77.95 17.85 76.65 18.5 75.5" fill="#707070" fill-rule="evenodd" stroke="none"/>
    <path d="M-20.85 -75.3 L-21.75 -76.3 -21.9 -77.6 -21.25 -78.75 -20.05 -79.3 -18.75 -79.05 -17.9 -78.05 -17.7 -76.75 -18.35 -75.6 -19.55 -75.05 -20.85 -75.3" fill="#707070" fill-rule="evenodd" stroke="none"/>
    <path d="M103.95 -125.95 L105.25 -125.7 106.1 -124.75 106.3 -123.45 105.65 -122.3 104.45 -121.75 103.15 -122.0 102.25 -122.95 102.1 -124.25 102.75 -125.4 103.95 -125.95" fill="#707070" fill-rule="evenodd" stroke="none"/>
    <path d="M-0.45 -208.7 L0.2 -209.85 1.4 -210.4 2.65 -210.15 3.55 -209.2 3.7 -207.9 3.1 -206.75 1.9 -206.2 0.6 -206.45 -0.3 -207.4 -0.45 -208.7" fill="#707070" fill-rule="evenodd" stroke="none"/>
    <path d="M-15.15 -268.5 L-13.9 -268.25 -13.0 -267.3 -12.85 -266.0 -13.45 -264.85 -14.65 -264.3 -15.95 -264.55 -16.85 -265.5 -17.0 -266.8 -16.35 -267.95 -15.15 -268.5" fill="#707070" fill-rule="evenodd" stroke="none"/>
    <path d="M48.0 -267.2 L48.15 -265.9 47.55 -264.75 46.35 -264.2 45.05 -264.45 44.15 -265.4 44.0 -266.7 44.65 -267.85 45.85 -268.4 47.1 -268.15 48.0 -267.2" fill="#707070" fill-rule="evenodd" stroke="none"/>
    <path d="M-0.75 -275.45 L-1.6 -276.4 -1.75 -277.7 -1.15 -278.85 0.05 -279.4 1.35 -279.15 2.25 -278.2 2.4 -276.9 1.75 -275.75 0.55 -275.2 -0.75 -275.45" fill="#707070" fill-rule="evenodd" stroke="none"/>
    <path d="M32.0 -277.85 L32.15 -276.55 31.55 -275.4 30.35 -274.85 29.05 -275.1 28.15 -276.05 28.0 -277.35 28.65 -278.5 29.85 -279.05 31.1 -278.8 32.0 -277.85" fill="#707070" fill-rule="evenodd" stroke="none"/>
    <path d="M384.0 -23.0 L383.65 -20.7 384.3 -17.35 386.0 -14.35 400.0 -4.35 431.65 17.0 435.0 17.0 437.35 15.2 438.2 12.6 440.6 -2.85 441.05 -18.6 440.6 -26.5 439.65 -34.35 438.65 -36.65 435.65 -39.35 431.65 -40.0 386.3 -26.35 384.0 -23.0 M396.65 -110.7 L392.3 -109.7 391.0 -106.7 375.0 -48.7 375.3 -44.7 377.65 -39.0 381.65 -38.0 384.3 -38.35 422.65 -56.7 427.0 -59.35 428.65 -63.0 429.15 -64.9 428.65 -66.25 421.75 -80.55 410.85 -97.75 396.65 -110.7 M303.15 -194.1 L314.0 -194.5 326.35 -193.5 333.65 -192.15 345.0 -188.5 364.5 -178.35 372.65 -173.05 380.6 -167.15 388.3 -160.7 395.75 -153.75 409.65 -138.45 416.15 -130.1 434.0 -103.5 439.25 -94.1 448.35 -74.55 452.2 -64.45 455.55 -54.15 460.7 -33.3 463.85 -13.9 465.65 6.1 465.5 18.7 463.2 30.35 460.2 41.85 456.5 53.1 452.1 64.1 438.7 86.7 426.5 103.0 419.0 112.0 410.0 121.0 400.0 130.0 392.0 138.3 382.45 144.95 372.5 150.9 344.95 87.9 401.55 72.55 406.75 67.1 411.6 61.25 416.65 56.0 422.0 48.0 425.65 41.3 425.65 37.65 425.0 33.65 381.0 -4.35 378.65 -4.35 376.3 -3.35 373.65 -0.7 370.0 2.0 363.3 3.0 358.0 2.3 353.3 -7.7 317.0 -114.0 319.3 -117.0 350.65 -53.35 352.3 -50.7 357.0 -47.7 360.0 -47.7 362.65 -49.0 365.3 -53.7 374.65 -116.0 375.0 -121.7 371.3 -127.35 362.8 -131.95 341.95 -135.1 328.0 -135.0 309.95 -132.1 273.65 -187.45 287.25 -192.15 303.15 -194.1" fill="#ffffff" fill-opacity="0.14901961" fill-rule="evenodd" stroke="none"/>
    <path d="M241.3 139.3 L257.0 135.3 271.65 130.0 295.65 120.3 317.3 175.3 287.65 185.65 260.65 194.0 243.3 198.0 230.0 199.3 219.65 199.65 203.65 197.0 193.9 194.15 173.3 186.0 158.0 177.3 122.65 152.3 105.0 134.65 79.5 103.9 73.3 94.0 90.65 67.65 121.4 89.4 137.4 102.75 159.2 118.1 174.55 126.1 189.4 132.55 200.1 135.65 212.0 138.3 225.65 140.0 241.3 139.3" fill="#ffffff" fill-opacity="0.14901961" fill-rule="evenodd" stroke="none"/>
    <path d="M32.3 161.65 L64.3 176.0 105.65 191.0 130.65 199.0 183.65 209.0 170.0 266.65 119.0 250.0 64.0 227.65 35.3 214.0 -9.0 187.0 -26.35 175.0 -24.35 167.0 -18.7 154.65 -9.0 139.3 -1.7 144.65 32.3 161.65" fill="#ffffff" fill-opacity="0.14901961" fill-rule="evenodd" stroke="none"/>
    <path d="M2.0 -193.7 L28.0 -175.7 10.0 -142.35 -49.7 -170.7 -76.0 -181.35 -125.5 -197.0 -151.45 -203.15 -183.0 -209.5 -171.5 -268.0 -148.5 -261.5 -122.35 -253.45 -95.7 -243.0 -64.0 -229.7 -29.35 -212.0 2.0 -193.7" fill="#ffffff" fill-opacity="0.14901961" fill-rule="evenodd" stroke="none"/>
    <path d="M-194.0 -192.35 L-176.35 -187.35 -158.35 -179.0 -147.35 -171.7 -136.0 -162.35 -94.5 -119.5 -71.0 -98.0 -91.5 -68.0 -145.35 -107.7 -170.7 -125.0 -189.45 -132.35 -201.7 -135.7 -218.7 -138.35 -236.35 -138.0 -249.35 -137.0 -263.0 -133.0 -277.0 -128.35 -289.35 -123.0 -316.7 -174.35 -303.0 -180.0 -278.35 -189.0 -264.35 -193.0 -243.7 -197.35 -227.0 -197.7 -216.0 -197.0 -194.0 -192.35" fill="#ffffff" fill-opacity="0.14901961" fill-rule="evenodd" stroke="none"/>
    <path d="M37.85 -14.6 L-16.35 40.1 -22.15 37.4 -37.9 22.1 -39.9 17.0 15.0 -37.7 20.3 -35.7 36.1 -19.9 37.85 -14.6" fill="#ffffff" fill-opacity="0.14901961" fill-rule="evenodd" stroke="none"/>
    <path d="M-374.9 -143.95 L-364.05 -146.1 -349.4 -147.15 -337.45 -146.1 -330.0 -135.0 -332.7 -126.35 -336.0 -121.35 -348.35 -112.7 -354.0 -105.7 -357.0 -101.0 -365.7 -99.7 -374.0 -97.0 -382.0 -93.35 -399.35 -83.7 -410.65 -73.8 -414.85 -68.45 -422.15 -56.8 -425.25 -50.55 -430.25 -37.3 -433.65 -23.2 -435.35 -8.55 -435.55 -1.05 -434.65 14.05 -432.05 29.15 -427.75 44.0 -425.0 51.25 -418.35 65.3 -410.25 78.45 -404.5 89.75 -394.45 101.3 -383.35 111.55 -371.35 120.25 -358.65 127.35 -345.4 132.65 -330.95 133.9 -321.25 133.8 -312.8 132.75 -300.35 130.25 -298.4 129.55 -273.7 145.65 -269.55 151.45 -267.35 159.0 -268.85 162.65 -276.2 168.3 -283.85 172.2 -296.9 176.45 -312.0 178.9 -322.35 179.65 -334.3 179.15 -359.05 175.3 -367.35 171.0 -376.2 167.0 -383.9 162.4 -391.7 156.4 -399.3 149.85 -406.65 142.85 -420.5 127.45 -426.9 119.15 -450.65 75.85 -455.05 66.1 -462.4 46.15 -467.75 25.8 -469.65 15.55 -471.85 -4.75 -471.95 -24.6 -471.2 -34.25 -469.9 -43.7 -468.05 -52.9 -465.7 -61.75 -462.85 -70.3 -459.5 -78.45 -455.65 -86.2 -451.35 -93.5 -446.55 -100.35 -441.35 -106.7 -435.75 -112.55 -429.75 -117.8 -423.4 -122.55 -407.45 -132.75 -399.85 -136.45 -384.65 -141.3 -374.9 -143.95" fill="#ffffff" fill-opacity="0.14901961" fill-rule="evenodd" stroke="none"/>
  </g>
</svg>
