<?xml version="1.0" encoding="UTF-8" standalone="no"?>
<svg xmlns:ffdec="https://www.free-decompiler.com/flash" xmlns:xlink="http://www.w3.org/1999/xlink" ffdec:objectType="shape" height="1060.0px" width="1666.65px" xmlns="http://www.w3.org/2000/svg">
  <g transform="matrix(1.0, 0.0, 0.0, 1.0, 834.15, 531.0)">
    <path d="M603.2 -443.05 L650.55 -406.5 693.5 -364.45 731.5 -317.5 764.1 -266.2 790.75 -211.25 811.15 -153.45 825.05 -93.6 832.2 -32.4 832.5 29.2 826.05 90.5 812.8 150.55 793.05 208.55 766.95 263.8 734.95 315.5 697.45 362.9 654.95 405.5 608.05 442.55 557.3 473.7 503.5 498.4 447.3 516.45 399.95 525.5 370.65 528.5 330.9 529.0 -333.5 529.0 -370.65 528.55 -402.15 525.4 -448.95 516.45 -505.15 498.4 -558.95 473.7 -609.65 442.55 -656.6 405.5 -699.1 362.9 -736.6 315.5 -768.6 263.8 -794.65 208.55 -814.45 150.55 -827.65 90.5 -834.15 29.2 -833.8 -32.4 -826.65 -93.6 -812.8 -153.45 -792.35 -211.25 -765.7 -266.2 -733.15 -317.5 -695.1 -364.45 -652.15 -406.5 -604.85 -443.05 -553.8 -473.55 -499.7 -497.6 -443.3 -514.95 -390.4 -524.4 -333.8 -531.0 332.15 -531.0 388.8 -524.4 441.7 -514.95 498.05 -497.6 552.15 -473.55 603.2 -443.05" fill="#707070" fill-rule="evenodd" stroke="none"/>
    <path d="M524.55 -428.95 L573.05 -401.35 618.0 -368.25 658.8 -330.2 694.95 -287.6 725.9 -241.15 751.2 -191.45 770.6 -139.1 783.8 -84.85 790.6 -29.45 790.9 26.35 784.75 81.85 772.2 136.25 753.4 188.8 728.65 238.8 698.2 285.65 662.6 328.6 622.2 367.15 577.6 400.7 529.45 428.9 478.3 451.3 424.95 467.6 371.0 477.45 361.65 478.45 314.3 479.0 -316.9 479.0 -360.95 478.5 -374.0 477.2 -426.55 467.6 -479.95 451.3 -531.05 428.9 -579.25 400.7 -623.85 367.15 -664.2 328.6 -699.85 285.65 -730.25 238.8 -755.0 188.8 -773.8 136.25 -786.35 81.85 -792.55 26.35 -792.2 -29.45 -785.4 -84.85 -772.25 -139.1 -752.85 -191.45 -727.5 -241.15 -696.55 -287.6 -660.45 -330.2 -619.65 -368.25 -574.65 -401.35 -526.15 -428.95 -474.8 -450.75 -421.25 -466.5 -375.05 -474.35 -366.25 -476.75 -317.15 -494.65 -217.35 -514.7 216.0 -514.7 315.55 -494.65 363.55 -477.15 373.85 -474.25 419.6 -466.5 473.15 -450.75 524.55 -428.95" fill="#434343" fill-rule="evenodd" stroke="none"/>
    <path d="M392.8 -313.4 L394.35 -319.45 410.25 -314.8 446.15 -299.55 474.6 -283.35 471.2 -278.5 494.05 -262.55 497.45 -267.45 511.5 -257.1 516.9 -252.05 510.15 -245.55 511.8 -243.85 519.7 -251.35 519.7 -251.4 539.5 -271.2 571.25 -239.45 543.9 -212.3 545.55 -210.65 551.8 -216.6 560.6 -206.25 556.1 -202.95 572.75 -180.6 576.7 -183.55 586.85 -168.3 604.6 -133.55 615.3 -104.65 610.65 -103.6 616.8 -76.45 622.8 -77.8 627.35 -59.05 632.1 -20.35 632.3 15.7 628.0 54.45 625.0 67.45 618.95 66.05 612.75 93.2 618.5 94.5 606.1 129.2 588.8 164.2 582.0 174.6 578.35 171.9 561.75 194.2 566.7 197.9 551.35 216.4 545.8 211.1 544.15 212.75 553.6 221.95 553.6 221.85 571.25 239.5 539.5 271.25 518.35 250.1 518.25 250.2 512.05 244.3 510.4 246.0 516.5 251.9 514.4 253.85 505.8 260.35 503.0 256.35 480.15 272.25 483.5 277.1 483.25 277.35 449.6 297.05 413.85 312.7 403.65 315.8 402.25 310.35 375.25 317.3 376.95 323.95 375.85 324.3 336.5 329.95 299.25 330.35 206.3 330.35 165.7 346.65 163.0 346.65 163.0 348.15 165.1 348.15 165.1 381.3 135.1 381.3 135.1 348.15 137.2 348.15 137.2 346.65 129.65 346.65 129.65 348.15 131.75 348.15 131.75 381.3 101.75 381.3 101.75 348.15 103.85 348.15 103.85 346.65 96.3 346.65 96.3 348.15 98.4 348.15 98.4 381.3 68.4 381.3 68.4 348.15 70.55 348.15 70.55 346.65 63.0 346.65 63.0 348.15 65.1 348.15 65.1 381.3 35.1 381.3 35.1 348.15 37.2 348.15 37.2 346.65 29.65 346.65 29.65 348.15 31.75 348.15 31.75 381.3 1.75 381.3 1.75 348.15 3.85 348.15 3.85 346.65 -3.7 346.65 -3.7 348.15 -1.6 348.15 -1.6 381.3 -31.6 381.3 -31.6 348.15 -29.45 348.15 -29.45 346.65 -37.0 346.65 -37.0 348.15 -34.9 348.15 -34.9 381.3 -64.9 381.3 -64.9 348.15 -62.8 348.15 -62.8 346.65 -70.35 346.65 -70.35 348.15 -68.25 348.15 -68.25 381.3 -98.25 381.3 -98.25 348.15 -96.15 348.15 -96.15 346.65 -103.7 346.65 -103.7 348.15 -101.6 348.15 -101.6 381.3 -131.6 381.3 -131.6 348.15 -129.45 348.15 -129.45 346.65 -137.0 346.65 -137.0 348.15 -134.9 348.15 -134.9 381.3 -164.9 381.3 -164.9 348.15 -162.8 348.15 -162.8 346.65 -166.7 346.65 -205.0 330.35 -301.05 330.35 -338.15 329.95 -367.0 325.8 -365.4 319.65 -392.4 312.7 -394.1 319.2 -415.45 312.7 -451.2 297.05 -474.7 283.25 -470.55 277.25 -493.35 261.35 -497.75 267.6 -516.05 253.85 -517.05 252.9 -509.85 245.85 -511.5 244.2 -518.85 251.2 -519.15 250.85 -539.55 271.25 -571.3 239.5 -553.1 221.25 -553.05 221.85 -543.6 212.65 -545.25 211.0 -552.1 217.5 -561.75 205.8 -555.9 201.45 -572.55 179.1 -578.05 183.2 -590.4 164.2 -607.7 129.2 -616.8 103.75 -610.05 102.2 -616.2 75.05 -624.45 76.95 -629.65 54.45 -633.95 15.7 -633.7 -20.35 -628.95 -59.05 -626.9 -67.55 -619.65 -65.9 -613.5 -93.05 -620.35 -94.6 -619.75 -96.95 -606.2 -133.55 -588.5 -168.3 -583.85 -175.25 -578.1 -170.95 -561.45 -193.25 -568.4 -198.45 -566.9 -200.75 -552.75 -217.4 -545.5 -210.55 -543.85 -212.2 -571.3 -239.45 -539.55 -271.2 -519.65 -251.3 -519.65 -251.25 -511.75 -243.75 -510.1 -245.4 -517.7 -252.8 -513.1 -257.1 -506.5 -261.95 -502.35 -256.05 -479.55 -272.0 -484.05 -278.5 -481.65 -280.25 -447.8 -299.55 -411.85 -314.8 -404.7 -316.9 -402.95 -310.2 -376.0 -317.1 -377.95 -324.75 -374.45 -325.75 -335.3 -332.45 -293.95 -333.0 -205.0 -333.0 -166.7 -346.7 -162.8 -346.7 -162.8 -348.35 -164.9 -348.35 -164.9 -381.5 -134.9 -381.5 -134.9 -348.35 -137.0 -348.35 -137.0 -346.7 -129.45 -346.7 -129.45 -348.35 -131.6 -348.35 -131.6 -381.5 -101.6 -381.5 -101.6 -348.35 -103.7 -348.35 -103.7 -346.7 -96.15 -346.7 -96.15 -348.35 -98.25 -348.35 -98.25 -381.5 -68.25 -381.5 -68.25 -348.35 -70.35 -348.35 -70.35 -346.7 -62.8 -346.7 -62.8 -348.35 -64.9 -348.35 -64.9 -381.5 -34.9 -381.5 -34.9 -348.35 -37.0 -348.35 -37.0 -346.7 -29.45 -346.7 -29.45 -348.35 -31.6 -348.35 -31.6 -381.5 -1.6 -381.5 -1.6 -348.35 -3.7 -348.35 -3.7 -346.7 3.85 -346.7 3.85 -348.35 1.75 -348.35 1.75 -381.5 31.75 -381.5 31.75 -348.35 29.65 -348.35 29.65 -346.7 37.2 -346.7 37.2 -348.35 35.1 -348.35 35.1 -381.5 65.1 -381.5 65.1 -348.35 63.0 -348.35 63.0 -346.7 70.55 -346.7 70.55 -348.35 68.4 -348.35 68.4 -381.5 98.4 -381.5 98.4 -348.35 96.3 -348.35 96.3 -346.7 103.85 -346.7 103.85 -348.35 101.75 -348.35 101.75 -381.5 131.75 -381.5 131.75 -348.35 129.65 -348.35 129.65 -346.7 137.2 -346.7 137.2 -348.35 135.1 -348.35 135.1 -381.5 165.1 -381.5 165.1 -348.35 163.0 -348.35 163.0 -346.7 165.7 -346.7 206.3 -333.0 292.85 -333.0 333.65 -332.45 367.45 -326.7 365.8 -320.35 392.8 -313.4" fill="#707070" fill-rule="evenodd" stroke="none"/>
    <path d="M387.65 -287.0 L417.3 -276.0 468.0 -250.0 505.0 -218.35 535.65 -185.7 556.0 -156.7 570.65 -128.7 587.0 -89.0 599.3 -28.0 600.1 9.85 598.55 31.2 593.4 63.65 581.65 104.8 562.8 147.0 539.0 183.4 510.3 217.0 470.75 249.0 436.55 270.1 389.0 288.3 345.0 299.0 305.5 301.0 -291.0 301.0 -330.5 299.5 -389.45 289.4 -425.45 274.0 -458.35 256.3 -492.35 231.65 -515.7 210.3 -535.0 187.0 -554.35 159.65 -571.0 128.3 -583.0 99.0 -593.0 65.65 -600.35 21.0 -599.7 -23.0 -595.0 -53.0 -586.35 -86.35 -575.7 -117.7 -565.0 -139.7 -541.7 -175.7 -519.7 -203.7 -495.7 -227.0 -469.0 -247.0 -446.35 -261.0 -411.0 -279.0 -380.35 -287.7 -337.0 -297.0 -307.0 -302.0 295.0 -302.35 335.0 -298.35 387.65 -287.0" fill="#969696" fill-rule="evenodd" stroke="none"/>
    <path d="M331.0 -296.6 L304.2 -299.5 284.15 -300.0 -289.7 -300.0 -305.2 -299.2 -330.85 -296.0 -366.15 -290.0 -399.5 -280.2 -431.5 -266.65 -461.65 -249.45 -489.65 -228.85 -515.05 -205.15 -537.55 -178.65 -556.8 -149.75 -572.55 -118.8 -584.65 -86.2 -592.85 -52.45 -597.05 -17.95 -597.25 16.75 -593.45 51.3 -585.6 85.15 -573.9 117.85 -558.5 149.0 -539.6 178.15 -517.4 204.85 -492.25 228.85 -464.5 249.75 -434.55 267.3 Q-418.6 274.3 -402.7 281.25 L-369.5 291.4 -329.6 297.7 304.2 297.8 347.6 295.5 370.2 291.4 403.4 281.25 Q419.35 274.3 435.25 267.3 L465.25 249.75 493.0 228.85 518.1 204.85 540.3 178.15 559.2 149.0 574.65 117.85 586.3 85.15 594.15 51.3 598.0 16.75 597.8 -17.95 593.55 -52.45 585.35 -86.2 573.25 -118.8 557.5 -149.75 538.25 -178.65 515.75 -205.15 490.35 -228.85 462.4 -249.45 432.2 -266.65 400.2 -280.2 366.9 -290.0 331.0 -296.6 M304.6 -304.5 L331.65 -301.7 368.0 -294.85 401.9 -284.9 434.4 -271.1 465.1 -253.65 493.55 -232.7 519.4 -208.6 542.25 -181.7 561.85 -152.3 577.85 -120.8 590.15 -87.7 598.45 -53.35 602.75 -18.3 603.0 17.05 599.1 52.15 591.15 86.55 579.25 119.8 563.55 151.45 544.3 181.1 521.75 208.3 496.2 232.65 468.0 253.95 437.5 271.75 405.15 285.95 371.4 296.25 348.2 300.5 304.35 302.8 -330.0 302.7 -370.6 296.3 -404.45 285.95 -436.8 271.75 -467.3 253.95 -495.5 232.65 -521.05 208.3 -543.6 181.1 -562.85 151.45 -578.55 119.8 -590.4 86.55 -598.35 52.15 -602.25 17.05 -602.05 -18.3 -597.75 -53.35 -589.4 -87.7 -577.15 -120.8 -561.1 -152.3 -541.55 -181.7 -518.7 -208.6 -492.85 -232.7 -464.4 -253.65 -433.7 -271.1 -401.2 -284.9 -367.25 -294.85 -330.3 -300.75 -305.85 -304.2 -289.9 -305.0 284.2 -305.0 304.6 -304.5" fill="#828282" fill-rule="evenodd" stroke="none"/>
    <path d="M474.15 -97.05 L482.05 -82.0 488.55 -66.35 493.7 -50.25 497.4 -33.8 499.6 -17.05 500.35 -0.25 499.6 16.6 497.4 33.3 493.7 49.8 488.55 65.9 482.05 81.5 474.15 96.55 464.95 110.9 454.55 124.45 443.0 137.1 430.35 148.75 416.7 159.35 402.2 168.75 386.9 177.0 370.95 183.95 354.4 189.55 337.45 193.8 320.2 196.65 302.75 198.05 -301.5 198.05 -318.95 196.65 -336.25 193.8 -353.2 189.55 -369.7 183.95 -385.65 177.0 -400.95 168.75 -415.5 159.35 -429.1 148.75 -441.75 137.1 -453.35 124.45 -463.75 110.9 -472.95 96.55 -480.8 81.5 -487.35 65.9 -492.5 49.8 -496.15 33.3 -498.4 16.6 -499.15 -0.25 -498.4 -17.05 -496.15 -33.8 -492.5 -50.25 -487.35 -66.35 -480.8 -82.0 -472.95 -97.05 -463.75 -111.4 -453.35 -124.9 -441.75 -137.55 -429.1 -149.25 -415.5 -159.8 -400.95 -169.25 -385.65 -177.45 -369.7 -184.4 -353.2 -190.0 -336.25 -194.25 -318.95 -197.1 -301.5 -198.55 302.75 -198.55 320.2 -197.1 337.45 -194.25 354.4 -190.0 370.95 -184.4 386.9 -177.45 402.2 -169.25 416.7 -159.8 430.35 -149.25 443.0 -137.55 454.55 -124.9 464.95 -111.4 474.15 -97.05" fill="#7f7f7f" fill-rule="evenodd" stroke="none"/>
    <path d="M247.45 -126.0 L246.55 -126.15 246.95 -126.35 247.45 -126.0" fill="#434343" fill-rule="evenodd" stroke="none"/>
    <path d="M466.65 -60.75 L473.25 -49.2 478.45 -37.25 482.15 -25.05 484.45 -12.6 485.2 -0.1 484.45 12.45 482.15 24.85 478.45 37.1 473.25 49.0 466.65 60.6 458.6 71.8 449.45 82.25 439.0 92.2 438.85 92.3 427.35 101.5 427.25 101.55 414.7 110.05 401.1 117.8 386.6 124.65 371.25 130.7 355.45 135.75 355.35 135.75 339.0 139.85 338.85 139.85 322.0 142.95 304.8 145.0 97.05 145.0 -32.35 74.15 -280.9 74.85 -356.2 128.65 -338.0 133.3 -321.55 136.35 -304.85 138.35 -86.1 138.35 -86.1 145.0 -305.25 145.0 -322.65 142.9 -339.45 139.85 -339.55 139.8 -355.9 135.75 -371.9 130.65 -387.05 124.65 -401.65 117.7 -415.15 110.05 -427.85 101.5 -439.55 92.1 -449.9 82.25 -459.25 71.55 -467.1 60.6 -473.7 49.0 -478.9 37.1 -482.65 24.85 -484.9 12.45 -485.65 -0.1 -484.9 -12.6 -482.65 -25.05 -478.9 -37.25 -473.7 -49.2 -467.1 -60.75 -459.05 -72.0 -449.9 -82.45 -439.3 -92.5 -427.85 -101.65 -415.05 -110.25 -401.55 -117.95 -387.05 -124.85 -371.7 -130.9 -355.8 -135.95 -339.35 -140.0 -322.45 -143.1 -305.25 -145.2 304.8 -145.2 322.2 -143.1 339.1 -140.0 355.45 -135.9 355.55 -135.9 371.35 -130.85 386.7 -124.8 401.1 -117.95 414.8 -110.15 427.35 -101.65 439.1 -92.3 449.45 -82.45 458.8 -71.75 466.65 -60.75 M461.0 -57.15 L453.45 -67.7 444.6 -77.8 434.6 -87.35 423.4 -96.3 411.2 -104.55 398.0 -112.05 383.95 -118.75 369.1 -124.55 353.6 -129.5 337.55 -133.5 321.1 -136.5 304.4 -138.5 -304.85 -138.5 -321.55 -136.5 -338.0 -133.5 -354.05 -129.5 -369.55 -124.55 -384.4 -118.75 -398.45 -112.05 -411.65 -104.55 -423.9 -96.3 -435.05 -87.35 -445.1 -77.8 -453.9 -67.7 -461.45 -57.15 -467.7 -46.2 -472.6 -34.95 -476.15 -23.45 -478.25 -11.8 -478.95 -0.1 -478.25 11.65 -476.15 23.3 -472.6 34.75 -467.7 46.05 -461.45 57.0 -453.9 67.55 -445.1 77.65 -435.05 87.2 -423.9 96.1 -411.65 104.35 -398.45 111.85 -384.4 118.55 Q-376.95 121.5 -369.55 124.4 L-364.1 126.1 -283.05 68.15 -30.65 67.5 98.8 138.35 304.4 138.35 321.1 136.35 337.55 133.3 353.6 129.3 369.1 124.4 383.95 118.55 398.0 111.85 411.2 104.35 423.4 96.1 434.6 87.2 444.6 77.65 453.45 67.55 461.0 57.0 467.25 46.05 472.15 34.75 475.7 23.3 477.8 11.65 478.5 -0.1 477.8 -11.8 475.7 -23.45 472.15 -34.95 467.25 -46.2 461.0 -57.15" fill="#434343" fill-rule="evenodd" stroke="none"/>
    <path d="M180.65 102.15 L180.0 101.0 176.15 96.3 168.35 83.85 163.0 97.85 171.0 100.75 180.65 102.15 M241.05 85.55 L231.1 73.15 222.85 59.6 216.4 45.15 211.9 29.95 209.35 14.3 209.35 13.4 203.5 18.0 190.0 25.0 177.0 29.0 158.45 29.0 153.4 35.2 149.05 39.65 150.15 40.35 154.35 43.95 158.1 48.05 161.25 52.6 167.65 63.8 168.0 62.15 169.5 59.3 171.8 56.0 176.5 51.65 183.65 48.15 187.5 46.8 189.8 47.0 192.65 47.5 196.15 49.0 197.5 50.15 198.65 52.0 197.65 53.65 195.3 55.65 194.5 59.8 197.65 67.65 202.3 73.65 211.3 83.5 225.15 93.0 231.3 88.8 235.0 88.8 240.8 89.65 242.0 90.0 243.3 91.5 244.0 92.65 245.5 94.5 246.15 95.8 248.15 100.8 248.5 102.65 250.3 103.65 252.65 104.0 256.3 103.3 258.3 102.65 259.1 101.5 252.45 96.6 241.05 85.55 M301.45 -117.2 L317.05 -120.25 332.95 -121.25 348.85 -120.25 364.45 -117.2 379.55 -112.2 393.9 -105.35 407.2 -96.7 419.35 -86.4 430.0 -74.7 439.15 -61.7 446.5 -47.65 452.0 -32.75 455.5 -17.3 457.05 -1.55 456.55 14.3 454.0 29.95 449.45 45.15 443.05 59.6 434.8 73.15 424.85 85.55 413.45 96.6 400.7 106.05 386.8 113.85 Q379.45 116.85 372.05 119.8 L356.7 123.8 340.9 125.85 325.0 125.85 309.2 123.8 293.8 119.8 279.1 113.85 271.95 109.85 271.8 110.8 268.3 123.15 260.3 130.5 256.0 133.8 248.8 135.15 237.5 135.0 229.5 133.15 217.5 128.65 216.8 128.15 212.1 129.85 203.85 131.0 185.4 132.3 172.1 131.65 156.3 127.65 149.0 123.4 143.65 119.0 141.6 114.5 137.9 116.0 133.35 117.2 131.9 119.05 128.05 122.75 123.75 125.95 119.1 128.6 114.15 130.6 108.95 131.95 103.65 132.65 98.3 132.65 93.0 131.95 87.8 130.6 82.85 128.6 78.2 125.95 73.9 122.75 70.05 119.05 66.75 114.85 63.95 110.3 61.8 105.4 60.25 100.25 59.45 95.25 54.4 95.85 44.95 95.6 36.45 93.75 29.0 90.35 22.75 85.45 17.75 79.1 18.6 73.35 23.85 66.7 41.1 55.85 91.9 -7.8 151.5 -66.35 156.1 -78.9 163.15 -91.65 170.45 -93.5 177.3 -89.35 182.95 -83.7 187.2 -76.75 190.1 -68.5 191.55 -59.15 191.5 -48.85 189.95 -37.75 187.0 -26.05 182.45 -13.55 185.5 -15.0 194.0 -24.5 201.5 -34.0 207.0 -42.0 211.0 -52.0 214.0 -66.5 214.0 -75.5 213.0 -83.0 211.0 -92.0 208.5 -99.0 202.0 -106.5 189.1 -113.65 188.85 -114.75 196.0 -129.0 205.65 -134.95 207.45 -135.0 229.0 -124.5 235.0 -119.5 241.0 -112.0 246.5 -103.5 249.5 -93.5 250.15 -89.45 258.7 -96.7 272.0 -105.35 286.35 -112.2 301.45 -117.2" fill="#707070" fill-rule="evenodd" stroke="none"/>
    <path d="M-381.8 -109.35 L-367.95 -110.25 -354.1 -109.35 -340.5 -106.7 -327.3 -102.35 -314.8 -96.35 -303.15 -88.8 -292.6 -79.85 -286.55 -73.2 -288.0 -78.0 -288.65 -85.3 -286.55 -93.5 -283.45 -101.5 -279.4 -109.1 -274.45 -116.2 -268.7 -122.7 -262.2 -128.45 -255.15 -133.4 -247.6 -137.4 -239.65 -140.5 -232.35 -140.35 -225.35 -137.7 -220.8 -131.65 -220.3 -126.15 -222.8 -121.15 -228.0 -116.35 -238.3 -111.15 -249.35 -102.0 -256.7 -92.0 -262.8 -77.15 -264.7 -71.35 -269.35 -66.7 -273.35 -64.35 -277.8 -64.65 -281.3 -66.85 -275.3 -58.3 -268.9 -46.0 -267.1 -41.15 -266.7 -45.1 -263.55 -57.85 -258.65 -70.2 -252.1 -81.8 -243.95 -92.55 -234.45 -102.3 -223.65 -110.8 -211.75 -117.95 -199.0 -123.6 -185.55 -127.75 -171.65 -130.25 -157.5 -131.1 -143.35 -130.25 -129.45 -127.75 -116.0 -123.6 -104.15 -118.35 -97.0 -124.6 -87.65 -130.8 -76.9 -136.3 -64.9 -141.05 -51.9 -144.9 -38.0 -147.85 -23.55 -149.85 -8.7 -150.85 6.25 -150.8 21.1 -149.75 35.55 -147.75 49.4 -144.7 62.45 -140.8 74.4 -136.05 78.65 -133.85 91.65 -135.7 106.3 -137.0 125.65 -136.35 148.3 -133.0 Q160.25 -127.5 172.15 -122.05 L173.3 -120.95 175.0 -117.0 176.3 -112.35 177.0 -107.7 176.5 -104.85 174.15 -100.7 171.65 -98.35 165.65 -97.0 159.0 -97.0 151.65 -99.0 139.65 -103.7 109.65 -107.7 112.5 -102.55 114.85 -94.7 115.3 -86.75 113.85 -78.85 109.0 -75.7 100.5 -75.25 81.0 -81.0 -0.35 -77.0 -41.1 -79.95 -48.5 -69.5 -42.0 -64.5 -13.5 -70.0 -13.35 -69.2 -53.5 -47.5 -91.9 -34.55 -94.5 -26.5 -113.5 -15.0 -114.6 -22.2 -141.3 -6.9 -136.0 -5.0 -155.35 3.1 -193.0 30.0 -217.2 41.55 -206.35 44.3 -57.7 50.3 -34.95 45.15 -36.3 44.15 -42.0 38.6 -47.0 32.4 -51.15 25.6 -54.4 18.3 -56.65 10.65 -57.9 2.8 -58.2 -5.15 -57.4 -13.05 -55.65 -20.8 -52.9 -28.3 -49.2 -35.35 -44.6 -41.85 -39.25 -47.75 -33.15 -52.9 -26.45 -57.25 -19.25 -60.7 -11.7 -63.2 -3.85 -64.75 4.15 -65.25 12.1 -64.75 19.95 -63.2 27.55 -60.7 34.75 -57.25 41.4 -52.9 47.5 -47.75 52.9 -41.85 57.45 -35.35 61.15 -28.3 63.9 -20.8 65.7 -13.05 66.45 -5.15 66.2 2.8 64.9 10.65 62.65 18.3 59.4 25.6 55.25 32.4 50.3 38.6 44.55 44.15 38.15 48.9 31.2 52.8 23.8 55.8 16.05 57.8 8.15 58.8 0.15 58.8 -7.8 57.8 -15.5 55.8 -21.5 53.35 -21.8 55.25 -24.15 59.2 -28.3 63.0 -34.1 66.55 -41.5 69.8 -50.4 72.75 -60.6 75.25 -72.0 77.35 -84.3 79.0 -97.45 80.15 -111.1 80.75 -139.2 80.45 -153.15 79.5 -166.75 78.05 -179.8 76.1 -192.0 73.75 -203.25 70.95 -213.25 67.8 -221.95 64.35 -229.15 60.65 -234.75 56.75 -238.65 52.7 -240.8 48.6 -241.1 44.55 -239.65 40.5 -236.35 36.6 -219.95 40.85 -200.5 20.5 -202.0 11.0 -221.0 14.0 -221.5 10.5 -212.0 0.0 -182.5 -23.0 -153.5 -41.5 -121.5 -59.5 -83.0 -75.5 -63.45 -81.55 -65.45 -81.7 -85.0 -81.0 -94.95 -78.65 -96.15 -78.2 -110.35 -75.0 -116.55 -79.3 -117.4 -83.75 -133.0 -74.0 -145.0 -65.0 -157.5 -61.0 -173.5 -55.0 -185.0 -42.5 -192.5 -36.0 -199.0 -25.5 -248.0 15.5 -261.0 13.35 -262.35 21.65 -266.3 34.9 -271.9 47.55 -279.1 59.35 -287.75 70.2 -297.75 79.8 -308.85 88.05 -320.95 94.85 -333.8 100.05 -347.25 103.55 -361.0 105.3 -374.9 105.3 -388.65 103.55 -402.1 100.05 -414.95 94.85 -427.05 88.05 -438.15 79.8 -448.15 70.2 -456.8 59.35 -464.0 47.55 -469.6 34.9 -473.55 21.65 -475.8 8.0 -476.2 -5.8 -474.9 -19.55 -471.8 -33.05 -467.0 -46.0 -460.6 -58.3 -452.65 -69.6 -443.3 -79.85 -432.75 -88.8 -421.1 -96.35 -408.6 -102.35 -395.45 -106.7 -381.8 -109.35" fill="#707070" fill-rule="evenodd" stroke="none"/>
  </g>
</svg>
