<?xml version="1.0" encoding="UTF-8" standalone="no"?>
<svg xmlns:ffdec="https://www.free-decompiler.com/flash" xmlns:xlink="http://www.w3.org/1999/xlink" ffdec:objectType="shape" height="1060.0px" width="1666.65px" xmlns="http://www.w3.org/2000/svg">
  <g transform="matrix(1.0, 0.0, 0.0, 1.0, 834.15, 531.0)">
    <path d="M603.2 -443.05 L650.55 -406.5 693.5 -364.45 731.5 -317.5 764.1 -266.2 790.75 -211.25 811.15 -153.45 825.05 -93.6 832.2 -32.4 832.5 29.2 826.05 90.5 812.8 150.55 793.05 208.55 766.95 263.8 734.95 315.5 697.45 362.9 654.95 405.5 608.05 442.55 557.3 473.7 503.5 498.4 447.3 516.45 399.95 525.5 370.65 528.5 330.9 529.0 -333.5 529.0 -370.65 528.55 -402.15 525.4 -448.95 516.45 -505.15 498.4 -558.95 473.7 -609.65 442.55 -656.6 405.5 -699.1 362.9 -736.6 315.5 -768.6 263.8 -794.65 208.55 -814.45 150.55 -827.65 90.5 -834.15 29.2 -833.8 -32.4 -826.65 -93.6 -812.8 -153.45 -792.35 -211.25 -765.7 -266.2 -733.15 -317.5 -695.1 -364.45 -652.15 -406.5 -604.85 -443.05 -553.8 -473.55 -499.7 -497.6 -443.3 -514.95 -390.4 -524.4 -333.8 -531.0 332.15 -531.0 388.8 -524.4 441.7 -514.95 498.05 -497.6 552.15 -473.55 603.2 -443.05" fill="#707070" fill-rule="evenodd" stroke="none"/>
    <path d="M524.55 -428.95 L573.05 -401.35 618.0 -368.25 658.8 -330.2 694.95 -287.6 725.9 -241.15 751.2 -191.45 770.6 -139.1 783.8 -84.85 790.6 -29.45 790.9 26.35 784.75 81.85 772.2 136.25 753.4 188.8 728.65 238.8 698.2 285.65 662.6 328.6 622.2 367.15 577.6 400.7 529.45 428.9 478.3 451.3 424.95 467.6 371.0 477.45 361.65 478.45 314.3 479.0 -316.9 479.0 -360.95 478.5 -374.0 477.2 -426.55 467.6 -479.95 451.3 -531.05 428.9 -579.25 400.7 -623.85 367.15 -664.2 328.6 -699.85 285.65 -730.25 238.8 -755.0 188.8 -773.8 136.25 -786.35 81.85 -792.55 26.35 -792.2 -29.45 -785.4 -84.85 -772.25 -139.1 -752.85 -191.45 -727.5 -241.15 -696.55 -287.6 -660.45 -330.2 -619.65 -368.25 -574.65 -401.35 -526.15 -428.95 -474.8 -450.75 -421.25 -466.5 -375.05 -474.35 -366.25 -476.75 -317.15 -494.65 -217.35 -514.7 216.0 -514.7 315.55 -494.65 363.55 -477.15 373.85 -474.25 419.6 -466.5 473.15 -450.75 524.55 -428.95" fill="#434343" fill-rule="evenodd" stroke="none"/>
    <path d="M392.8 -313.4 L394.35 -319.45 410.25 -314.8 446.15 -299.55 474.6 -283.35 471.2 -278.5 494.05 -262.55 497.45 -267.45 511.5 -257.1 516.9 -252.05 510.15 -245.55 511.8 -243.85 519.7 -251.35 519.7 -251.4 539.5 -271.2 571.25 -239.45 543.9 -212.3 545.55 -210.65 551.8 -216.6 560.6 -206.25 556.1 -202.95 572.75 -180.6 576.7 -183.55 586.85 -168.3 604.6 -133.55 615.3 -104.65 610.65 -103.6 616.8 -76.45 622.8 -77.8 627.35 -59.05 632.1 -20.35 632.3 15.7 628.0 54.45 625.0 67.45 618.95 66.05 612.75 93.2 618.5 94.5 606.1 129.2 588.8 164.2 582.0 174.6 578.35 171.9 561.75 194.2 566.7 197.9 551.35 216.4 545.8 211.1 544.15 212.75 553.6 221.95 553.6 221.85 571.25 239.5 539.5 271.25 518.35 250.1 518.25 250.2 512.05 244.3 510.4 246.0 516.5 251.9 514.4 253.85 505.8 260.35 503.0 256.35 480.15 272.25 483.5 277.1 483.25 277.35 449.6 297.05 413.85 312.7 403.65 315.8 402.25 310.35 375.25 317.3 376.95 323.95 375.85 324.3 336.5 329.95 299.25 330.35 206.3 330.35 165.7 346.65 163.0 346.65 163.0 348.15 165.1 348.15 165.1 381.3 135.1 381.3 135.1 348.15 137.2 348.15 137.2 346.65 129.65 346.65 129.65 348.15 131.75 348.15 131.75 381.3 101.75 381.3 101.75 348.15 103.85 348.15 103.85 346.65 96.3 346.65 96.3 348.15 98.4 348.15 98.4 381.3 68.4 381.3 68.4 348.15 70.55 348.15 70.55 346.65 63.0 346.65 63.0 348.15 65.1 348.15 65.1 381.3 35.1 381.3 35.1 348.15 37.2 348.15 37.2 346.65 29.65 346.65 29.65 348.15 31.75 348.15 31.75 381.3 1.75 381.3 1.75 348.15 3.85 348.15 3.85 346.65 -3.7 346.65 -3.7 348.15 -1.6 348.15 -1.6 381.3 -31.6 381.3 -31.6 348.15 -29.45 348.15 -29.45 346.65 -37.0 346.65 -37.0 348.15 -34.9 348.15 -34.9 381.3 -64.9 381.3 -64.9 348.15 -62.8 348.15 -62.8 346.65 -70.35 346.65 -70.35 348.15 -68.25 348.15 -68.25 381.3 -98.25 381.3 -98.25 348.15 -96.15 348.15 -96.15 346.65 -103.7 346.65 -103.7 348.15 -101.6 348.15 -101.6 381.3 -131.6 381.3 -131.6 348.15 -129.45 348.15 -129.45 346.65 -137.0 346.65 -137.0 348.15 -134.9 348.15 -134.9 381.3 -164.9 381.3 -164.9 348.15 -162.8 348.15 -162.8 346.65 -166.7 346.65 -205.0 330.35 -301.05 330.35 -338.15 329.95 -367.0 325.8 -365.4 319.65 -392.4 312.7 -394.1 319.2 -415.45 312.7 -451.2 297.05 -474.7 283.25 -470.55 277.25 -493.35 261.35 -497.75 267.6 -516.05 253.85 -517.05 252.9 -509.85 245.85 -511.5 244.2 -518.85 251.2 -519.15 250.85 -539.55 271.25 -571.3 239.5 -553.1 221.25 -553.05 221.85 -543.6 212.65 -545.25 211.0 -552.1 217.5 -561.75 205.8 -555.9 201.45 -572.55 179.1 -578.05 183.2 -590.4 164.2 -607.7 129.2 -616.8 103.75 -610.05 102.2 -616.2 75.05 -624.45 76.95 -629.65 54.45 -633.95 15.7 -633.7 -20.35 -628.95 -59.05 -626.9 -67.55 -619.65 -65.9 -613.5 -93.05 -620.35 -94.6 -619.75 -96.95 -606.2 -133.55 -588.5 -168.3 -583.85 -175.25 -578.1 -170.95 -561.45 -193.25 -568.4 -198.45 -566.9 -200.75 -552.75 -217.4 -545.5 -210.55 -543.85 -212.2 -571.3 -239.45 -539.55 -271.2 -519.65 -251.3 -519.65 -251.25 -511.75 -243.75 -510.1 -245.4 -517.7 -252.8 -513.1 -257.1 -506.5 -261.95 -502.35 -256.05 -479.55 -272.0 -484.05 -278.5 -481.65 -280.25 -447.8 -299.55 -411.85 -314.8 -404.7 -316.9 -402.95 -310.2 -376.0 -317.1 -377.95 -324.75 -374.45 -325.75 -335.3 -332.45 -293.95 -333.0 -205.0 -333.0 -166.7 -346.7 -162.8 -346.7 -162.8 -348.35 -164.9 -348.35 -164.9 -381.5 -134.9 -381.5 -134.9 -348.35 -137.0 -348.35 -137.0 -346.7 -129.45 -346.7 -129.45 -348.35 -131.6 -348.35 -131.6 -381.5 -101.6 -381.5 -101.6 -348.35 -103.7 -348.35 -103.7 -346.7 -96.15 -346.7 -96.15 -348.35 -98.25 -348.35 -98.25 -381.5 -68.25 -381.5 -68.25 -348.35 -70.35 -348.35 -70.35 -346.7 -62.8 -346.7 -62.8 -348.35 -64.9 -348.35 -64.9 -381.5 -34.9 -381.5 -34.9 -348.35 -37.0 -348.35 -37.0 -346.7 -29.45 -346.7 -29.45 -348.35 -31.6 -348.35 -31.6 -381.5 -1.6 -381.5 -1.6 -348.35 -3.7 -348.35 -3.7 -346.7 3.85 -346.7 3.85 -348.35 1.75 -348.35 1.75 -381.5 31.75 -381.5 31.75 -348.35 29.65 -348.35 29.65 -346.7 37.2 -346.7 37.2 -348.35 35.1 -348.35 35.1 -381.5 65.1 -381.5 65.1 -348.35 63.0 -348.35 63.0 -346.7 70.55 -346.7 70.55 -348.35 68.4 -348.35 68.4 -381.5 98.4 -381.5 98.4 -348.35 96.3 -348.35 96.3 -346.7 103.85 -346.7 103.85 -348.35 101.75 -348.35 101.75 -381.5 131.75 -381.5 131.75 -348.35 129.65 -348.35 129.65 -346.7 137.2 -346.7 137.2 -348.35 135.1 -348.35 135.1 -381.5 165.1 -381.5 165.1 -348.35 163.0 -348.35 163.0 -346.7 165.7 -346.7 206.3 -333.0 292.85 -333.0 333.65 -332.45 367.45 -326.7 365.8 -320.35 392.8 -313.4" fill="#707070" fill-rule="evenodd" stroke="none"/>
    <path d="M387.65 -287.0 L417.3 -276.0 468.0 -250.0 505.0 -218.35 535.65 -185.7 556.0 -156.7 570.65 -128.7 587.0 -89.0 599.3 -28.0 600.1 9.85 598.55 31.2 593.4 63.65 581.65 104.8 562.8 147.0 539.0 183.4 510.3 217.0 470.75 249.0 436.55 270.1 389.0 288.3 345.0 299.0 305.5 301.0 -291.0 301.0 -330.5 299.5 -389.45 289.4 -425.45 274.0 -458.35 256.3 -492.35 231.65 -515.7 210.3 -535.0 187.0 -554.35 159.65 -571.0 128.3 -583.0 99.0 -593.0 65.65 -600.35 21.0 -599.7 -23.0 -595.0 -53.0 -586.35 -86.35 -575.7 -117.7 -565.0 -139.7 -541.7 -175.7 -519.7 -203.7 -495.7 -227.0 -469.0 -247.0 -446.35 -261.0 -411.0 -279.0 -380.35 -287.7 -337.0 -297.0 -307.0 -302.0 295.0 -302.35 335.0 -298.35 387.65 -287.0" fill="#969696" fill-rule="evenodd" stroke="none"/>
    <path d="M331.0 -296.6 L304.2 -299.5 284.15 -300.0 -289.7 -300.0 -305.2 -299.2 -330.85 -296.0 -366.15 -290.0 -399.5 -280.2 -431.5 -266.65 -461.65 -249.45 -489.65 -228.85 -515.05 -205.15 -537.55 -178.65 -556.8 -149.75 -572.55 -118.8 -584.65 -86.2 -592.85 -52.45 -597.05 -17.95 -597.25 16.75 -593.45 51.3 -585.6 85.15 -573.9 117.85 -558.5 149.0 -539.6 178.15 -517.4 204.85 -492.25 228.85 -464.5 249.75 -434.55 267.3 Q-418.6 274.3 -402.7 281.25 L-369.5 291.4 -329.6 297.7 304.2 297.8 347.6 295.5 370.2 291.4 403.4 281.25 Q419.35 274.3 435.25 267.3 L465.25 249.75 493.0 228.85 518.1 204.85 540.3 178.15 559.2 149.0 574.65 117.85 586.3 85.15 594.15 51.3 598.0 16.75 597.8 -17.95 593.55 -52.45 585.35 -86.2 573.25 -118.8 557.5 -149.75 538.25 -178.65 515.75 -205.15 490.35 -228.85 462.4 -249.45 432.2 -266.65 400.2 -280.2 366.9 -290.0 331.0 -296.6 M304.6 -304.5 L331.65 -301.7 368.0 -294.85 401.9 -284.9 434.4 -271.1 465.1 -253.65 493.55 -232.7 519.4 -208.6 542.25 -181.7 561.85 -152.3 577.85 -120.8 590.15 -87.7 598.45 -53.35 602.75 -18.3 603.0 17.05 599.1 52.15 591.15 86.55 579.25 119.8 563.55 151.45 544.3 181.1 521.75 208.3 496.2 232.65 468.0 253.95 437.5 271.75 405.15 285.95 371.4 296.25 348.2 300.5 304.35 302.8 -330.0 302.7 -370.6 296.3 -404.45 285.95 -436.8 271.75 -467.3 253.95 -495.5 232.65 -521.05 208.3 -543.6 181.1 -562.85 151.45 -578.55 119.8 -590.4 86.55 -598.35 52.15 -602.25 17.05 -602.05 -18.3 -597.75 -53.35 -589.4 -87.7 -577.15 -120.8 -561.1 -152.3 -541.55 -181.7 -518.7 -208.6 -492.85 -232.7 -464.4 -253.65 -433.7 -271.1 -401.2 -284.9 -367.25 -294.85 -330.3 -300.75 -305.85 -304.2 -289.9 -305.0 284.2 -305.0 304.6 -304.5" fill="#828282" fill-rule="evenodd" stroke="none"/>
    <path d="M205.1 -28.4 L213.35 -26.85 221.15 -23.85 228.3 -19.4 234.5 -13.75 239.55 -7.1 243.3 0.4 245.55 8.5 246.35 16.85 245.55 25.2 243.3 33.25 239.55 40.75 234.5 47.45 228.3 53.1 221.15 57.5 213.35 60.55 205.1 62.1 86.5 63.5 86.5 33.0 28.0 36.0 -4.0 36.0 -58.8 35.0 -58.8 65.0 -206.7 62.1 -214.95 60.55 -222.75 57.5 -229.9 53.1 -236.1 47.45 -241.15 40.75 -244.9 33.25 -247.2 25.2 -247.95 16.85 -247.2 8.5 -244.9 0.4 -241.15 -7.1 -236.1 -13.75 -229.9 -19.4 -222.75 -23.85 -214.95 -26.85 -206.7 -28.4 -129.0 -27.5 -77.5 -24.5 -57.5 -21.5 -15.0 -20.0 38.5 -20.0 66.0 -21.0 148.0 -29.0 205.1 -28.4" fill="#7f7f7f" fill-rule="evenodd" stroke="none"/>
    <path d="M-258.45 -229.7 L-259.35 -230.8 -257.35 -233.0 -115.5 -231.0 -48.9 -229.45 83.95 -229.45 212.75 -231.9 250.1 -231.05 251.85 -229.8 251.65 -228.15 183.4 -221.0 109.85 -219.5 -95.5 -219.5 -222.6 -224.6 -258.45 -229.7" fill="#434343" fill-rule="evenodd" stroke="none"/>
    <path d="M-246.4 184.85 L-247.25 184.15 -245.25 182.7 -226.0 189.5 -202.35 193.0 -117.15 197.65 -50.6 198.7 82.25 198.7 182.1 196.55 220.35 190.85 222.15 191.7 221.9 192.75 182.1 199.85 133.15 204.5 105.8 204.9 -97.15 204.9 -131.25 203.2 -201.85 196.0 -222.7 192.65 -246.4 184.85" fill="#434343" fill-rule="evenodd" stroke="none"/>
    <path d="M458.55 -107.25 L469.65 -93.0 478.1 -79.45 483.65 -64.8 489.4 -45.25 492.55 -23.9 494.3 -6.6 495.2 12.3 493.65 30.6 491.15 49.35 486.35 68.05 479.4 85.4 471.0 101.25 460.65 118.1 450.25 133.95 438.4 148.75 425.3 162.5 398.0 187.5 382.85 197.9 349.95 214.7 330.35 222.6 309.2 227.0 286.55 231.0 243.0 233.5 144.75 232.3 144.65 230.3 218.3 225.65 264.3 223.65 283.65 219.0 304.3 213.0 341.3 196.65 356.8 188.95 371.1 178.75 398.4 154.4 411.5 141.05 423.3 126.65 445.0 95.0 453.35 79.55 466.5 46.5 469.0 28.25 469.8 9.9 468.9 -8.5 467.2 -26.6 464.55 -44.55 460.4 -62.65 454.3 -81.0 445.25 -97.2 421.0 -124.6 406.0 -138.35 390.3 -150.7 374.1 -160.95 357.75 -170.35 340.6 -178.3 322.8 -184.7 304.45 -189.55 285.7 -192.75 266.75 -194.35 228.8 -192.6 181.0 -191.5 181.0 -195.4 234.0 -196.0 249.0 -197.35 277.0 -198.0 291.2 -196.6 327.85 -189.65 346.2 -184.7 364.05 -178.1 381.2 -169.9 397.55 -160.25 413.75 -149.7 429.4 -137.0 444.4 -122.85 458.55 -107.25" fill="#434343" fill-rule="evenodd" stroke="none"/>
    <path d="M-364.1 -180.95 L-346.25 -187.55 -308.6 -197.7 -291.7 -199.0 -277.25 -198.6 -251.0 -196.35 -193.25 -193.25 -193.0 -190.35 -271.65 -193.8 -288.85 -193.7 -319.7 -188.5 -327.65 -184.1 -345.5 -177.7 -362.65 -169.75 -390.6 -154.0 -406.3 -141.65 -421.3 -127.9 -445.55 -100.5 -454.6 -84.35 -460.7 -65.95 -464.9 -47.85 -467.5 -29.9 -469.2 -11.8 -470.1 6.6 -469.3 24.95 -466.8 43.2 -453.65 76.2 -445.3 91.65 -423.6 123.35 -411.8 137.75 -398.7 151.1 -371.4 175.45 -357.1 185.65 -340.35 195.0 -326.35 201.65 -304.0 210.65 -285.0 216.3 -264.6 220.35 -219.0 225.65 -192.8 228.1 -138.25 229.65 -138.35 231.65 -182.8 233.4 -243.9 231.2 -284.35 230.65 -307.0 226.65 -328.2 222.25 -349.75 214.2 -382.6 197.4 -397.8 187.0 -412.8 175.0 -426.15 162.3 -438.2 148.25 -450.0 133.45 -460.45 117.6 -470.8 100.75 -479.7 82.1 -485.25 66.55 -491.0 45.2 -493.95 27.3 -495.5 9.0 -494.6 -9.9 -492.85 -27.2 -489.75 -48.55 -483.9 -67.35 -478.35 -82.0 -469.9 -95.6 -458.85 -110.55 -444.45 -125.75 -429.45 -139.9 -413.8 -152.6 -397.6 -163.15 -381.25 -172.8 -364.1 -180.95" fill="#434343" fill-rule="evenodd" stroke="none"/>
    <path d="M261.8 146.3 L262.0 146.5 261.8 146.35 -265.05 146.35 -265.45 145.85 -264.9 145.45 -158.0 141.0 150.5 141.0 261.8 146.3" fill="#434343" fill-rule="evenodd" stroke="none"/>
    <path d="M298.8 -121.15 L277.9 -130.45 268.3 -133.9 256.75 -137.0 244.55 -139.0 205.2 -140.35 161.85 -140.8 127.4 -145.25 51.65 -147.7 51.2 -149.0 209.4 -148.8 240.0 -147.35 269.2 -142.8 277.65 -140.35 287.4 -136.35 307.4 -127.0 316.9 -121.35 336.95 -105.1 345.6 -96.7 359.6 -80.0 365.45 -70.75 372.2 -58.2 376.75 -45.9 381.25 -31.95 384.55 -8.35 384.95 2.95 384.4 14.3 382.8 25.55 375.8 48.5 372.5 55.8 370.3 58.65 356.0 71.8 333.0 88.3 322.35 94.95 301.65 105.8 285.8 111.65 272.0 115.15 258.5 117.15 226.15 116.5 170.0 111.65 170.0 109.3 207.3 110.0 221.65 109.0 237.9 109.1 249.45 108.35 261.9 106.95 290.0 99.65 303.0 95.0 323.0 84.65 331.0 79.0 345.3 67.3 351.05 60.55 357.55 51.05 362.45 42.0 370.1 22.75 371.55 12.1 372.0 1.4 371.5 -9.35 370.5 -19.9 369.0 -30.35 366.0 -46.35 361.3 -58.0 354.5 -70.0 348.55 -79.25 342.75 -86.55 335.6 -94.45 326.85 -102.5 317.75 -109.7 298.8 -121.15" fill="#434343" fill-rule="evenodd" stroke="none"/>
    <path d="M178.8 -59.7 L18.3 -53.0 13.0 -55.0 -85.7 -56.35 -190.6 -59.45 -190.6 -61.7 -52.35 -61.7 -48.35 -64.35 10.3 -65.7 15.65 -63.7 25.0 -61.0 178.8 -61.7 178.8 -59.7" fill="#434343" fill-rule="evenodd" stroke="none"/>
    <path d="M194.3 -102.0 L133.3 -107.7 74.0 -108.7 -82.35 -109.0 -198.6 -104.95 -198.6 -107.2 -107.0 -112.0 -36.7 -113.35 -33.35 -112.0 5.3 -112.7 11.0 -113.7 72.0 -113.0 129.65 -111.7 194.3 -104.0 194.3 -102.0" fill="#434343" fill-rule="evenodd" stroke="none"/>
    <path d="M131.65 24.3 L146.0 20.0 147.3 21.65 130.0 27.65 106.3 32.0 52.3 36.0 -3.35 36.3 -64.7 35.3 -93.7 33.65 -129.7 27.65 -153.7 22.3 -153.35 19.65 -98.35 29.0 -28.35 31.65 -7.0 33.0 45.0 33.3 111.0 28.0 131.65 24.3" fill="#434343" fill-rule="evenodd" stroke="none"/>
    <path d="M-244.9 33.25 L-247.2 25.2 -247.95 16.85 -247.2 8.5 -246.2 8.65 -243.9 24.55 -241.75 32.05 -238.3 39.0 -233.6 45.2 -227.9 50.45 -214.05 59.3 -206.4 60.75 -78.05 63.35 -58.8 65.2 -58.8 67.0 -206.7 64.1 -214.95 62.55 -229.9 53.1 -236.1 47.45 -241.15 40.75 -244.9 33.25 M86.5 65.5 L86.5 63.85 106.3 62.0 204.8 60.75 219.65 54.5 226.25 50.45 Q229.15 47.85 232.0 45.2 L236.7 39.0 240.15 32.05 242.3 24.55 244.75 8.65 245.55 8.5 246.35 16.85 245.55 25.2 243.3 33.25 239.55 40.75 234.5 47.45 228.3 53.1 221.15 57.5 205.1 64.1 86.5 65.5" fill="#434343" fill-rule="evenodd" stroke="none"/>
    <path d="M57.2 13.4 L59.4 14.1 61.4 16.3 65.0 28.1 64.55 30.1 57.2 34.75 54.75 34.75 47.0 26.55 46.3 21.4 46.75 19.0 48.1 16.1 50.55 13.85 52.75 13.0 57.2 13.4" fill="#707070" fill-rule="evenodd" stroke="none"/>
    <path d="M-34.8 4.75 L-41.45 2.75 -41.9 1.0 -40.35 -9.45 -37.25 -10.15 -33.7 -9.7 -31.0 -8.8 -29.25 -7.0 -27.9 -4.8 -28.15 -0.15 -31.9 3.4 -34.8 4.75" fill="#707070" fill-rule="evenodd" stroke="none"/>
    <path d="M7.9 -39.85 L2.0 -37.0 -3.1 -32.95 -7.2 -27.85 -10.0 -21.95 -11.45 -15.6 -11.45 -9.05 -10.0 -2.7 -7.2 3.2 -3.1 8.3 2.0 12.35 7.9 15.2 14.25 16.65 20.75 16.65 27.15 15.2 Q30.1 13.8 33.0 12.35 L38.1 8.3 42.2 3.2 45.0 -2.7 46.45 -9.05 46.45 -15.6 45.0 -21.95 42.2 -27.85 38.1 -32.95 33.0 -37.0 Q30.1 -38.4 27.15 -39.85 L20.75 -41.3 14.25 -41.3 7.9 -39.85 M86.6 -229.45 L104.5 -223.25 127.1 -211.2 150.7 -196.15 172.25 -178.35 191.45 -158.0 208.0 -135.5 221.65 -111.1 232.2 -85.2 239.5 -58.25 243.4 -30.55 243.85 -2.6 240.9 25.15 234.55 52.4 224.9 78.6 212.05 103.45 196.3 126.55 177.8 147.5 156.85 166.05 133.8 181.85 108.95 194.75 82.75 204.9 -55.05 204.9 -81.0 192.1 -105.45 178.55 -128.05 162.1 -148.5 143.0 -166.4 121.5 -181.55 98.0 -193.65 72.85 -202.6 46.35 -208.2 18.95 -210.4 -8.9 -209.15 -36.8 -204.45 -64.35 -196.45 -91.15 -185.2 -116.7 -170.85 -140.7 -153.7 -162.8 -133.95 -182.6 -111.9 -199.8 -87.9 -214.15 -63.65 -225.5 -50.25 -229.45 86.6 -229.45" fill="#ffffff" fill-opacity="0.14901961" fill-rule="evenodd" stroke="none"/>
    <path d="M531.2 -88.0 L534.2 -86.35 536.7 -84.0 538.55 -81.15 539.65 -77.95 540.0 -74.55 537.3 -54.6 531.75 -51.7 530.65 -52.35 530.65 -56.45 527.1 -54.6 523.4 -58.45 521.85 -58.0 518.55 -52.0 517.55 -51.9 516.1 -56.8 512.55 -60.6 512.4 -77.35 513.65 -80.9 515.55 -84.55 518.15 -86.75 521.2 -88.25 524.5 -89.0 527.95 -88.9 531.2 -88.0" fill="#707070" fill-rule="evenodd" stroke="none"/>
    <path d="M520.8 -93.1 L519.6 -90.65 517.85 -88.5 515.65 -86.85 513.1 -85.8 510.35 -85.4 507.6 -85.6 505.9 -86.2 505.35 -85.8 504.35 -85.4 503.25 -85.2 502.15 -85.3 501.15 -85.65 500.2 -86.25 499.45 -87.05 498.9 -88.0 498.6 -89.05 498.6 -90.15 498.8 -91.2 499.3 -92.2 499.45 -92.4 498.7 -95.05 498.6 -97.8 499.15 -100.5 500.35 -102.95 502.1 -105.1 504.3 -106.75 506.85 -107.8 509.6 -108.25 512.35 -108.0 514.95 -107.1 517.25 -105.6 519.15 -103.6 520.5 -101.2 521.25 -98.55 521.35 -95.8 520.8 -93.1" fill="#707070" fill-rule="evenodd" stroke="none"/>
    <path d="M510.05 -176.2 L511.3 -176.85 512.6 -177.2 514.0 -177.2 515.35 -176.85 516.55 -176.2 517.55 -175.3 518.35 -174.15 518.85 -172.9 519.0 -171.5 518.85 -170.15 518.35 -168.9 517.55 -167.75 516.55 -166.85 511.5 -165.55 510.2 -165.9 509.0 -166.5 506.7 -169.85 506.5 -171.2 506.7 -172.6 509.05 -175.3 510.05 -176.2" fill="#707070" fill-rule="evenodd" stroke="none"/>
    <path d="M540.0 -167.8 L540.4 -166.8 540.65 -165.15 540.55 -163.0 537.55 -156.8 532.1 -151.45 529.0 -149.6 527.4 -149.6 522.4 -153.8 521.1 -156.8 521.4 -158.0 522.4 -160.0 526.3 -165.15 530.65 -168.6 533.4 -169.6 536.65 -170.25 538.3 -169.25 540.0 -167.8" fill="#707070" fill-rule="evenodd" stroke="none"/>
    <path d="M506.25 -192.05 L507.15 -190.75 507.7 -189.25 507.9 -187.7 507.7 -186.1 507.15 -184.6 506.25 -183.3 505.05 -182.25 499.0 -178.6 497.55 -178.45 496.0 -178.8 494.6 -179.55 491.5 -182.25 490.9 -183.75 490.7 -185.35 491.15 -186.6 496.35 -192.05 497.55 -193.1 498.95 -193.85 500.5 -194.25 502.1 -194.25 503.65 -193.85 505.05 -193.1 506.25 -192.05" fill="#707070" fill-rule="evenodd" stroke="none"/>
    <path d="M488.5 -216.7 L490.8 -218.7 494.3 -219.85 498.15 -219.2 502.3 -215.5 502.65 -209.7 501.5 -207.85 493.2 -199.9 493.8 -200.05 494.8 -200.05 495.75 -199.8 496.6 -199.35 497.35 -198.7 497.9 -197.9 498.25 -197.0 498.35 -196.0 498.25 -195.05 497.9 -194.15 497.35 -193.35 496.6 -192.7 495.75 -192.25 494.8 -192.0 493.8 -192.0 492.85 -192.25 492.0 -192.7 491.25 -193.35 490.7 -194.15 490.35 -195.05 490.25 -196.0 490.35 -197.0 490.5 -197.3 486.35 -193.35 485.0 -192.7 483.3 -193.0 478.65 -197.2 478.15 -198.5 478.5 -200.0 488.5 -216.7" fill="#707070" fill-rule="evenodd" stroke="none"/>
    <path d="M451.2 -245.35 L451.95 -246.0 452.8 -246.45 453.75 -246.65 454.75 -246.65 455.7 -246.45 456.55 -246.0 457.3 -245.35 457.65 -244.8 458.75 -246.85 460.25 -248.25 462.2 -249.2 463.8 -249.55 465.45 -249.55 467.1 -249.15 468.65 -248.4 470.0 -247.35 471.05 -246.05 471.8 -244.55 472.15 -242.95 472.1 -241.35 471.6 -239.85 463.65 -228.0 464.0 -227.7 465.0 -225.7 465.3 -224.1 465.9 -224.6 467.3 -225.35 468.85 -225.75 470.45 -225.75 471.15 -225.55 472.2 -226.15 473.2 -226.45 474.3 -226.45 475.35 -226.15 476.3 -225.6 477.1 -224.85 477.6 -224.05 478.55 -225.05 479.25 -225.25 480.05 -225.2 480.95 -224.95 481.85 -224.5 482.7 -223.9 483.5 -223.15 484.15 -222.3 484.65 -221.4 484.95 -220.55 485.0 -219.7 484.9 -219.0 483.7 -217.7 483.0 -217.5 482.15 -217.55 481.3 -217.8 480.4 -218.25 479.5 -218.9 478.7 -219.65 478.05 -220.45 477.75 -219.55 478.6 -219.3 479.45 -218.85 480.2 -218.2 480.75 -217.4 481.1 -216.5 481.2 -215.5 481.1 -214.55 480.75 -213.65 480.2 -212.85 479.45 -212.2 478.6 -211.75 477.65 -211.5 476.65 -211.5 475.7 -211.75 474.85 -212.2 474.1 -212.85 473.55 -213.65 473.45 -213.85 473.4 -213.75 466.75 -209.0 465.3 -208.85 463.75 -209.25 462.35 -210.0 459.2 -213.05 458.65 -214.5 458.45 -216.1 458.85 -217.35 461.75 -220.45 461.0 -220.35 459.75 -220.8 459.1 -221.35 458.8 -221.7 458.4 -221.5 457.15 -221.2 455.85 -221.2 454.6 -221.5 453.4 -222.1 452.35 -222.9 451.55 -223.95 450.95 -225.1 450.7 -226.35 450.75 -227.6 454.4 -238.6 453.75 -238.6 452.8 -238.85 451.95 -239.3 451.2 -239.95 450.65 -240.75 450.3 -241.65 450.2 -242.65 450.3 -243.6 450.65 -244.5 451.2 -245.35" fill="#707070" fill-rule="evenodd" stroke="none"/>
    <path d="M448.55 -247.4 L448.2 -247.75 448.7 -246.6 449.0 -245.05 448.9 -243.4 448.4 -241.75 447.6 -240.25 442.3 -234.0 441.35 -233.55 440.2 -233.3 438.9 -233.4 437.55 -233.75 433.8 -237.2 433.3 -238.35 433.05 -239.5 438.55 -248.4 439.9 -249.45 441.4 -250.2 442.95 -250.5 444.5 -250.45 445.9 -250.0 447.1 -249.15 447.6 -248.6 447.5 -249.65 448.1 -250.8 449.3 -251.35 450.6 -251.1 451.5 -250.15 451.65 -248.85 451.0 -247.7 449.8 -247.15 448.55 -247.4" fill="#707070" fill-rule="evenodd" stroke="none"/>
    <path d="M482.6 -228.35 L482.75 -227.05 482.1 -225.9 480.9 -225.35 479.65 -225.6 478.75 -226.6 478.6 -227.9 479.25 -229.0 480.4 -229.6 481.7 -229.3 482.6 -228.35" fill="#707070" fill-rule="evenodd" stroke="none"/>
    <path d="M509.3 -200.8 L510.6 -200.55 511.5 -199.6 511.65 -198.3 511.0 -197.15 509.8 -196.6 508.55 -196.85 507.65 -197.8 507.5 -199.1 508.1 -200.25 509.3 -200.8" fill="#707070" fill-rule="evenodd" stroke="none"/>
    <path d="M545.05 -147.2 L545.7 -148.35 546.9 -148.9 548.2 -148.65 549.05 -147.7 549.25 -146.4 548.6 -145.25 547.4 -144.7 546.1 -144.95 545.2 -145.9 545.05 -147.2" fill="#707070" fill-rule="evenodd" stroke="none"/>
    <path d="M590.15 -33.75 L591.45 -33.5 592.3 -32.55 592.5 -31.25 591.85 -30.1 590.65 -29.55 589.35 -29.8 588.45 -30.75 588.3 -32.05 588.95 -33.2 590.15 -33.75" fill="#707070" fill-rule="evenodd" stroke="none"/>
    <path d="M590.8 25.6 L592.1 25.85 593.0 26.8 593.15 28.1 592.5 29.25 591.3 29.8 590.05 29.55 589.15 28.6 589.0 27.3 589.6 26.15 590.8 25.6" fill="#707070" fill-rule="evenodd" stroke="none"/>
    <path d="M590.45 51.1 L591.75 51.35 592.65 52.3 592.8 53.6 592.15 54.75 591.0 55.3 589.7 55.05 588.8 54.1 588.65 52.8 589.3 51.65 590.45 51.1" fill="#707070" fill-rule="evenodd" stroke="none"/>
    <path d="M522.55 -171.05 L523.2 -172.2 524.4 -172.75 525.7 -172.5 526.55 -171.55 526.75 -170.25 526.1 -169.1 524.9 -168.55 523.6 -168.8 522.7 -169.75 522.55 -171.05" fill="#707070" fill-rule="evenodd" stroke="none"/>
    <path d="M62.4 -290.75 L62.25 -292.05 62.85 -293.2 64.05 -293.75 65.35 -293.5 66.25 -292.55 66.4 -291.25 65.75 -290.1 64.55 -289.55 63.25 -289.8 62.4 -290.75" fill="#707070" fill-rule="evenodd" stroke="none"/>
    <path d="M31.7 -282.15 L32.55 -281.2 32.75 -279.9 32.1 -278.75 30.9 -278.2 29.6 -278.45 28.7 -279.4 28.55 -280.7 29.2 -281.85 30.4 -282.4 31.7 -282.15" fill="#707070" fill-rule="evenodd" stroke="none"/>
    <path d="M2.5 -285.15 L3.4 -284.2 3.55 -282.9 2.9 -281.75 1.75 -281.2 0.45 -281.45 -0.45 -282.4 -0.6 -283.7 0.05 -284.85 1.2 -285.4 2.5 -285.15" fill="#707070" fill-rule="evenodd" stroke="none"/>
    <path d="M-34.3 -283.4 L-33.0 -283.15 -32.1 -282.2 -31.95 -280.9 -32.6 -279.75 -33.75 -279.2 -35.05 -279.45 -35.95 -280.4 -36.1 -281.7 -35.45 -282.85 -34.3 -283.4" fill="#707070" fill-rule="evenodd" stroke="none"/>
    <path d="M-67.55 -285.45 L-68.45 -286.4 -68.6 -287.7 -67.95 -288.85 -66.8 -289.4 -65.5 -289.15 -64.6 -288.2 -64.45 -286.9 -65.1 -285.75 -66.25 -285.2 -67.55 -285.45" fill="#707070" fill-rule="evenodd" stroke="none"/>
    <path d="M-101.9 -285.45 L-102.8 -286.4 -102.95 -287.7 -102.3 -288.85 -101.1 -289.4 -99.85 -289.15 -98.95 -288.2 -98.75 -286.9 -99.4 -285.75 -100.6 -285.2 -101.9 -285.45" fill="#707070" fill-rule="evenodd" stroke="none"/>
    <path d="M-588.4 -55.6 L-588.2 -54.3 -588.85 -53.15 -590.05 -52.6 -591.35 -52.85 -592.25 -53.8 -592.4 -55.1 -591.75 -56.25 -590.55 -56.8 -589.25 -56.55 -588.4 -55.6" fill="#707070" fill-rule="evenodd" stroke="none"/>
    <path d="M-591.45 -29.6 L-590.15 -29.3 -589.25 -28.35 -589.1 -27.05 -589.75 -25.9 -590.95 -25.35 -592.2 -25.6 -593.1 -26.6 -593.25 -27.9 -592.65 -29.0 -591.45 -29.6" fill="#707070" fill-rule="evenodd" stroke="none"/>
    <path d="M-588.25 28.8 L-587.4 29.75 -587.2 31.05 -587.85 32.2 -589.05 32.75 -590.35 32.5 -591.25 31.55 -591.4 30.25 -590.75 29.1 -589.55 28.55 -588.25 28.8" fill="#707070" fill-rule="evenodd" stroke="none"/>
    <path d="M-455.15 184.35 L-454.25 185.3 -454.1 186.6 -454.75 187.75 -455.95 188.3 -457.2 188.05 -458.1 187.1 -458.25 185.8 -457.65 184.65 -456.45 184.1 -455.15 184.35" fill="#707070" fill-rule="evenodd" stroke="none"/>
    <path d="M-497.4 199.85 L-496.2 199.3 -494.95 199.55 -494.05 200.55 -493.9 201.85 -494.5 203.0 -495.7 203.55 -497.0 203.25 -497.9 202.3 -498.05 201.0 -497.4 199.85" fill="#707070" fill-rule="evenodd" stroke="none"/>
    <path d="M-528.7 179.25 L-527.8 180.2 -527.65 181.5 -528.3 182.65 -529.5 183.2 -530.8 182.95 -531.65 182.0 -531.85 180.7 -531.2 179.55 -530.0 179.0 -528.7 179.25" fill="#707070" fill-rule="evenodd" stroke="none"/>
    <path d="M-454.05 224.1 L-453.4 223.0 -452.2 222.4 -450.95 222.7 -450.05 223.65 -449.9 224.95 -450.5 226.1 -451.7 226.65 -453.0 226.4 -453.9 225.4 -454.05 224.1" fill="#707070" fill-rule="evenodd" stroke="none"/>
    <path d="M-445.5 180.0 L-444.6 180.95 -444.45 182.25 -445.1 183.4 -446.25 183.95 -447.55 183.7 -448.45 182.75 -448.6 181.45 -447.95 180.3 -446.8 179.75 -445.5 180.0" fill="#707070" fill-rule="evenodd" stroke="none"/>
    <path d="M-420.85 220.4 L-422.05 220.95 -423.35 220.7 -424.25 219.75 -424.4 218.45 -423.75 217.3 -422.55 216.75 -421.25 217.0 -420.4 217.95 -420.2 219.25 -420.85 220.4" fill="#707070" fill-rule="evenodd" stroke="none"/>
    <path d="M-419.05 253.0 L-418.15 253.95 -418.0 255.25 -418.65 256.4 -419.85 256.95 -421.1 256.7 -422.0 255.75 -422.15 254.45 -421.5 253.3 -420.35 252.75 -419.05 253.0" fill="#707070" fill-rule="evenodd" stroke="none"/>
    <path d="M-388.25 271.8 L-387.65 270.65 Q-387.05 270.4 -386.45 270.1 L-385.15 270.35 -384.25 271.3 -384.1 272.6 -384.75 273.75 -385.95 274.3 -387.2 274.05 -388.1 273.1 -388.25 271.8" fill="#707070" fill-rule="evenodd" stroke="none"/>
    <path d="M-63.05 289.7 L-62.15 290.65 -62.0 291.95 -62.65 293.1 -63.85 293.65 -65.1 293.4 -66.0 292.4 -66.15 291.1 -65.5 290.0 -64.35 289.4 -63.05 289.7" fill="#707070" fill-rule="evenodd" stroke="none"/>
    <path d="M-29.5 278.25 L-28.6 279.2 -28.45 280.5 -29.1 281.65 -30.25 282.2 -31.55 281.95 -32.45 281.0 -32.6 279.7 -31.95 278.55 -30.8 278.0 -29.5 278.25" fill="#707070" fill-rule="evenodd" stroke="none"/>
    <path d="M-3.1 284.2 L-3.25 282.9 -2.65 281.75 -1.45 281.2 -0.15 281.45 0.75 282.4 0.9 283.7 0.25 284.85 -0.95 285.4 -2.2 285.15 -3.1 284.2" fill="#707070" fill-rule="evenodd" stroke="none"/>
    <path d="M32.05 281.0 L32.7 279.85 33.9 279.3 35.2 279.55 36.05 280.55 36.25 281.85 35.6 283.0 34.4 283.55 33.1 283.25 32.2 282.3 32.05 281.0" fill="#707070" fill-rule="evenodd" stroke="none"/>
    <path d="M67.6 285.55 L68.5 286.55 68.65 287.85 68.05 289.0 66.85 289.55 65.55 289.25 64.65 288.3 64.5 287.0 65.15 285.85 66.35 285.3 67.6 285.55" fill="#707070" fill-rule="evenodd" stroke="none"/>
    <path d="M101.7 285.45 L102.55 286.4 102.75 287.7 102.1 288.85 100.9 289.4 99.6 289.15 98.7 288.2 98.55 286.9 99.2 285.75 100.4 285.2 101.7 285.45" fill="#707070" fill-rule="evenodd" stroke="none"/>
    <path d="M547.2 91.95 L545.65 93.05 546.2 93.65 546.7 94.5 547.0 95.45 548.25 92.8 549.2 91.65 547.35 91.95 547.2 91.95 M556.05 87.35 L557.2 87.2 557.1 87.15 556.55 86.8 556.05 87.35 M562.5 -6.5 L569.65 -6.0 570.15 28.0 571.6 31.55 573.65 33.7 575.15 36.3 575.95 39.2 576.05 42.2 571.5 70.5 572.65 72.45 573.4 75.1 573.5 77.85 572.9 80.55 571.7 83.05 569.95 85.15 567.75 86.8 565.2 87.85 563.95 88.05 564.45 88.25 567.05 89.9 569.15 92.1 570.65 94.75 571.5 97.7 571.6 100.8 571.0 103.8 569.65 106.55 568.55 107.9 571.25 108.8 573.8 110.45 575.85 112.65 577.35 115.3 578.2 118.2 578.3 121.25 577.65 124.2 576.35 126.9 574.4 129.25 572.0 131.05 569.2 132.25 566.7 132.6 564.3 134.4 561.55 135.55 558.55 136.05 555.5 135.75 552.65 134.8 550.1 133.15 548.0 130.95 546.5 128.3 545.7 125.4 545.6 122.4 546.2 119.4 547.55 116.7 549.45 114.35 551.9 112.55 554.45 111.5 553.4 111.15 552.45 110.5 552.25 110.6 551.0 110.8 549.7 110.7 548.8 110.4 548.5 111.05 547.85 111.85 547.0 112.45 546.05 112.85 545.05 113.0 544.0 112.9 543.0 112.6 542.15 112.05 541.45 111.3 540.95 110.4 540.65 109.4 540.6 108.35 540.85 107.35 541.3 106.4 541.95 105.65 542.75 105.0 543.7 104.6 544.75 104.45 545.65 104.55 545.8 103.8 546.35 102.65 546.6 102.35 546.4 101.65 546.3 98.6 545.7 99.3 544.9 99.9 543.95 100.3 542.9 100.45 541.9 100.35 540.9 100.05 540.05 99.45 539.45 98.85 538.8 99.35 537.8 99.75 536.8 99.9 535.8 99.8 534.8 99.45 533.95 98.9 533.2 98.15 532.7 97.25 532.45 96.3 532.4 95.25 532.6 94.25 533.05 93.3 533.7 92.5 533.9 92.35 536.55 85.15 536.45 84.95 535.7 82.3 535.6 79.55 536.15 76.85 537.35 74.35 539.1 72.25 541.3 70.6 543.85 69.55 546.6 69.1 549.35 69.35 551.95 70.25 552.45 70.55 551.95 44.9 551.4 43.05 551.3 40.05 551.95 37.1 553.25 34.4 557.3 29.3 558.3 25.8 562.5 -6.5" fill="#707070" fill-rule="evenodd" stroke="none"/>
    <path d="M449.55 191.5 L452.1 193.1 454.2 195.3 455.7 197.95 456.55 200.85 456.65 203.9 456.0 206.85 454.7 209.6 452.75 211.9 450.3 213.75 447.55 214.9 444.55 215.35 444.0 215.3 443.0 215.5 439.95 215.2 437.1 214.25 434.55 212.6 432.45 210.4 430.95 207.75 430.15 204.85 430.05 201.8 430.65 198.85 431.95 196.15 433.9 193.8 436.35 192.0 439.15 190.8 442.1 190.35 442.65 190.4 443.7 190.25 446.7 190.5 449.55 191.5" fill="#707070" fill-rule="evenodd" stroke="none"/>
    <path d="M426.35 204.0 L427.3 204.3 428.1 204.8 428.75 205.5 429.25 206.35 429.5 207.3 429.5 208.25 429.3 209.2 428.9 210.05 428.3 210.8 427.5 211.35 427.35 211.4 427.95 211.5 429.55 212.0 431.0 212.95 432.15 214.15 433.0 215.65 433.45 217.25 433.5 218.95 433.4 219.4 434.15 220.15 434.7 221.15 435.05 222.25 435.05 223.35 434.85 224.5 434.35 225.5 433.6 226.4 432.7 227.05 431.65 227.5 430.55 227.65 429.4 227.55 428.35 227.2 427.35 226.6 426.6 225.75 426.35 225.3 425.1 225.2 423.5 224.65 422.45 224.0 422.6 224.3 422.95 225.4 423.0 226.55 422.75 227.7 422.25 228.75 421.5 229.65 420.6 230.3 419.5 230.75 418.4 230.95 417.25 230.85 416.15 230.45 415.7 230.15 412.4 237.55 407.35 243.15 405.95 244.05 404.45 244.6 402.85 244.8 401.3 244.55 399.85 243.95 398.6 243.0 397.7 241.75 397.05 240.25 396.8 238.65 396.95 237.0 397.5 235.4 399.55 231.05 414.4 214.2 415.2 213.6 416.15 213.2 417.1 213.05 418.1 213.15 419.05 213.5 419.9 214.0 420.55 214.7 420.6 214.55 421.7 213.25 423.05 212.25 424.4 211.7 423.8 211.5 423.0 210.95 422.35 210.25 421.85 209.45 421.6 208.5 421.6 207.55 421.8 206.6 422.2 205.75 422.8 205.0 423.6 204.45 424.45 204.05 425.4 203.9 426.35 204.0" fill="#707070" fill-rule="evenodd" stroke="none"/>
    <path d="M554.55 19.45 L555.5 19.75 556.4 20.3 557.1 21.05 557.6 21.95 557.9 22.95 557.9 24.0 557.7 25.0 557.25 25.95 556.6 26.7 555.8 27.35 554.8 27.75 553.8 27.9 552.8 27.8 551.8 27.45 550.95 26.9 550.2 26.15 549.7 25.25 549.45 24.3 549.4 23.25 549.6 22.25 550.05 21.3 550.7 20.5 551.55 19.9 552.5 19.5 553.5 19.35 554.55 19.45" fill="#707070" fill-rule="evenodd" stroke="none"/>
    <path d="M-480.15 145.5 L-476.85 144.1 -473.3 143.55 -469.7 143.9 -466.3 145.05 -463.25 147.0 -460.8 149.6 -459.0 152.7 -458.0 156.2 -457.9 159.8 -458.65 163.3 -460.2 166.55 -462.5 169.3 -465.4 171.45 -468.7 172.85 -472.25 173.4 -475.85 173.1 -479.25 171.95 -482.3 170.0 -484.75 167.4 -486.55 164.25 -487.5 160.8 -487.65 157.2 -486.9 153.65 -485.35 150.45 -483.05 147.65 -480.15 145.5" fill="#707070" fill-rule="evenodd" stroke="none"/>
    <path d="M-473.5 126.05 L-472.5 129.5 -472.4 133.1 -473.15 136.65 -474.7 139.9 -477.0 142.65 -479.9 144.8 -483.2 146.2 -486.75 146.75 -490.35 146.45 -493.75 145.25 -496.8 143.35 -499.25 140.7 -501.05 137.6 -502.0 134.1 -502.15 130.55 -501.4 127.0 -499.85 123.75 -497.55 121.0 -494.65 118.85 -491.35 117.45 -487.8 116.9 -484.2 117.2 -480.8 118.35 -477.75 120.3 -475.3 122.95 -473.5 126.05" fill="#707070" fill-rule="evenodd" stroke="none"/>
    <path d="M-570.5 36.45 L-568.05 33.85 -565.0 31.9 -561.6 30.7 -558.0 30.4 -545.65 37.4 -542.75 39.5 -540.45 42.3 -538.9 45.5 -538.1 49.05 -538.25 52.65 -539.2 56.1 -540.95 59.25 -543.45 61.85 -546.45 63.8 -549.85 65.0 -553.45 65.3 -557.0 64.75 -560.35 63.4 -563.25 61.25 -571.0 53.4 -572.6 50.2 -573.35 46.65 -573.25 43.05 -572.25 39.6 -570.5 36.45" fill="#707070" fill-rule="evenodd" stroke="none"/>
    <path d="M-533.4 -88.2 L-530.95 -85.55 -529.15 -82.45 -528.2 -79.0 -528.05 -75.4 -528.8 -71.85 -530.35 -68.6 -532.65 -65.85 -535.55 -63.7 -538.85 -62.3 -542.15 -61.8 -536.85 -60.7 -532.85 -58.35 -529.35 -53.05 -528.15 -49.65 -527.85 -46.05 -528.4 -42.5 -529.75 -39.2 -531.9 -36.3 -534.65 -33.95 -550.05 -28.95 -539.95 -29.2 -536.4 -28.8 -533.0 -27.55 -530.05 -25.5 -527.65 -22.85 -525.95 -19.65 -525.05 -16.15 -525.05 -12.55 -525.9 -9.05 -527.55 -5.9 -529.9 -3.15 -532.85 -1.1 -536.25 0.2 -539.8 0.65 -551.35 0.4 -548.8 0.75 -538.05 7.15 -534.75 8.6 -531.9 10.8 -529.65 13.6 -528.15 16.9 -527.5 20.45 -527.7 24.1 -528.8 27.6 -530.65 30.75 -533.2 33.35 -536.3 35.3 -539.75 36.4 -543.35 36.7 -546.9 36.1 -550.2 34.7 -561.45 27.2 -568.7 21.6 -570.2 18.35 -570.85 14.75 -570.65 11.15 -569.6 7.65 -567.75 4.5 -565.2 1.9 -561.9 0.3 -557.9 -0.6 -557.35 -0.5 -563.0 -2.0 -567.9 -5.3 -569.6 -8.45 -570.5 -11.95 -570.5 -15.55 -569.65 -19.05 -568.0 -22.25 -565.65 -24.95 -562.7 -27.0 -557.3 -28.2 -559.4 -28.75 -562.5 -30.55 -565.15 -33.0 -567.1 -36.05 -568.25 -39.45 -568.6 -43.0 -568.05 -46.55 -566.7 -49.9 -564.55 -52.8 -561.8 -55.1 -547.85 -61.2 -555.0 -62.0 -561.0 -64.2 -564.5 -66.7 -566.9 -69.75 -567.85 -73.2 -568.0 -76.8 -567.25 -80.3 -565.65 -83.55 -563.4 -86.35 -560.5 -88.45 -557.15 -89.85 -543.45 -91.6 -539.85 -91.3 -536.45 -90.15 -533.4 -88.2" fill="#707070" fill-rule="evenodd" stroke="none"/>
    <path d="M-508.15 -161.4 L-505.9 -164.2 -503.0 -166.3 -499.65 -167.7 -496.1 -168.25 -492.55 -167.95 -489.1 -166.8 -486.1 -164.85 -483.6 -162.25 -481.85 -159.1 -480.85 -155.65 -480.75 -152.05 -481.45 -148.55 -483.05 -145.3 -485.35 -142.5 -488.2 -140.35 -491.55 -139.0 -495.1 -138.4 -498.7 -138.75 -502.1 -139.9 -505.1 -141.85 -507.6 -144.45 -509.4 -147.6 -510.35 -151.05 -510.5 -154.65 -509.75 -158.15 -508.15 -161.4" fill="#707070" fill-rule="evenodd" stroke="none"/>
    <path d="M-470.8 -191.8 L-467.75 -189.85 -465.3 -187.25 -463.5 -184.1 -462.5 -180.65 -462.4 -177.05 -463.15 -173.55 -464.7 -170.3 -467.0 -167.5 -469.9 -165.35 -473.2 -164.0 -476.75 -163.4 -480.35 -163.75 -483.75 -164.9 -486.8 -166.85 -489.25 -169.45 -491.05 -172.6 -492.0 -176.05 -492.15 -179.65 -491.4 -183.15 -489.85 -186.4 -487.55 -189.2 -484.65 -191.3 -481.35 -192.7 -477.8 -193.25 -474.2 -192.95 -470.8 -191.8" fill="#707070" fill-rule="evenodd" stroke="none"/>
    <path d="M-464.4 -210.7 L-461.5 -212.8 -458.15 -214.2 -454.6 -214.75 -451.05 -214.45 -447.6 -213.3 -444.6 -211.35 -442.1 -208.75 -440.35 -205.6 -439.35 -202.15 -439.25 -198.55 -439.95 -195.05 -441.55 -191.8 -443.85 -189.0 -446.7 -186.85 -450.05 -185.5 -453.6 -184.9 -457.2 -185.25 -460.6 -186.4 -463.6 -188.35 -466.1 -190.95 -467.9 -194.1 -468.85 -197.55 -469.0 -201.15 -468.25 -204.65 -466.65 -207.9 -464.4 -210.7" fill="#707070" fill-rule="evenodd" stroke="none"/>
    <path d="M-75.5 51.5 L-69.55 52.0 -63.95 53.9 -58.95 57.1 -54.85 61.4 -51.95 66.55 -50.3 72.25 -50.1 78.15 -51.35 83.95 -53.95 89.3 -57.7 93.85 -62.5 97.4 -67.95 99.7 -73.85 100.6 -79.75 100.1 -85.35 98.15 -90.35 95.0 -94.45 90.7 -97.4 85.55 -99.0 79.85 -99.2 73.9 -97.95 68.1 -95.4 62.8 -91.6 58.2 -86.85 54.7 -81.35 52.4 -75.5 51.5" fill="#707070" fill-rule="evenodd" stroke="none"/>
    <path d="M-77.15 -140.8 L-74.2 -135.6 -72.55 -129.85 -72.35 -123.85 -73.55 -118.0 -76.15 -112.6 -79.95 -108.0 -84.7 -104.45 -90.2 -102.1 -96.1 -101.2 -102.0 -101.75 -107.65 -103.65 -112.65 -106.9 -116.75 -111.25 -119.7 -116.45 -121.35 -122.2 -121.55 -128.2 -120.35 -134.05 -117.75 -139.45 -113.95 -144.05 -109.2 -147.65 -103.7 -149.95 -97.8 -150.85 -91.9 -150.35 -86.25 -148.4 -81.25 -145.15 -77.15 -140.8" fill="#707070" fill-rule="evenodd" stroke="none"/>
    <path d="M-119.55 -103.15 L-113.9 -101.25 -108.9 -98.0 -104.8 -93.65 -101.85 -88.45 -100.25 -82.65 -100.0 -76.7 -101.25 -70.85 -103.8 -65.45 -107.6 -60.85 -112.4 -57.25 -117.9 -54.95 -123.75 -54.05 -129.7 -54.55 -135.3 -56.5 -140.35 -59.75 -144.45 -64.1 -147.4 -69.3 -149.0 -75.05 -149.2 -81.05 -148.0 -86.9 -145.4 -92.3 -141.65 -96.9 -136.85 -100.45 -131.35 -102.75 -125.5 -103.7 -119.55 -103.15" fill="#707070" fill-rule="evenodd" stroke="none"/>
    <path d="M74.95 -117.55 L73.3 -123.35 73.1 -129.3 74.3 -135.2 76.9 -140.55 80.7 -145.2 85.45 -148.75 90.95 -151.05 96.85 -151.95 102.75 -151.45 108.4 -149.5 113.4 -146.25 117.5 -141.9 120.45 -136.7 122.1 -130.95 122.3 -124.95 121.1 -119.1 118.5 -113.7 114.7 -109.1 109.95 -105.55 104.45 -103.25 98.55 -102.3 92.65 -102.85 87.0 -104.8 82.0 -108.0 77.9 -112.35 74.95 -117.55" fill="#707070" fill-rule="evenodd" stroke="none"/>
    <path d="M137.05 -74.3 L140.6 -70.55 143.1 -66.05 144.5 -61.05 144.7 -55.9 143.8 -51.55 146.3 -47.15 147.65 -42.3 147.85 -37.25 146.8 -32.35 144.65 -27.8 141.5 -23.9 137.5 -20.9 132.9 -19.0 128.0 -18.2 123.05 -18.65 118.3 -20.3 114.1 -23.05 110.7 -26.7 108.2 -31.1 106.85 -35.95 106.65 -41.0 107.35 -44.3 106.65 -45.05 105.75 -46.7 105.1 -46.2 99.6 -43.9 93.75 -43.0 87.8 -43.5 82.15 -45.45 77.15 -48.7 73.05 -53.05 70.1 -58.25 68.5 -64.0 68.25 -70.0 69.5 -75.85 72.05 -81.25 75.85 -85.85 80.65 -89.4 86.15 -91.7 92.0 -92.65 97.95 -92.1 103.55 -90.15 108.6 -86.95 112.7 -82.6 115.55 -77.5 117.8 -78.45 122.85 -79.25 127.95 -78.8 132.75 -77.1 137.05 -74.3" fill="#707070" fill-rule="evenodd" stroke="none"/>
    <path d="M124.9 -9.95 L130.85 -9.45 136.45 -7.5 141.5 -4.25 145.6 0.1 148.5 5.3 150.15 11.05 150.35 17.05 149.15 22.9 146.55 28.3 142.75 32.9 138.0 36.45 132.5 38.75 126.6 39.7 120.7 39.15 115.05 37.2 110.05 34.0 105.95 29.65 103.0 24.45 101.35 18.65 101.15 12.7 102.4 6.8 104.95 1.45 108.75 -3.2 113.55 -6.75 119.0 -9.05 124.9 -9.95" fill="#707070" fill-rule="evenodd" stroke="none"/>
    <path d="M-98.35 -11.25 L-92.5 -12.2 -86.55 -11.65 -80.95 -9.75 -75.95 -6.55 -71.85 -2.25 -68.95 2.9 -67.3 8.55 -67.1 14.5 -68.35 20.3 -70.95 25.6 -74.7 30.2 -79.5 33.7 -84.95 36.0 -90.85 36.9 -96.75 36.4 -101.5 34.8 -99.6 38.15 -98.25 42.9 -98.05 47.8 -99.1 52.6 -101.25 57.05 -104.35 60.8 -108.35 63.75 -112.85 65.65 -117.75 66.4 -122.65 66.0 -127.3 64.4 -131.45 61.75 -134.85 58.2 -137.25 53.9 -138.6 49.2 -138.8 44.3 -137.75 39.45 -135.6 35.05 -132.5 31.25 -128.5 28.35 -124.0 26.45 -119.1 25.65 -114.2 26.1 -111.4 27.05 -111.45 27.0 -114.4 21.85 -116.0 16.15 -116.2 10.25 -114.95 4.45 -112.4 -0.9 -108.6 -5.45 -103.85 -9.0 -98.35 -11.25" fill="#707070" fill-rule="evenodd" stroke="none"/>
    <path d="M584.0 -78.85 L583.0 -53.5 579.85 -37.45 581.0 -33.7 582.0 -20.0 581.85 18.75 580.5 46.0 583.15 57.5 584.0 78.5 584.0 100.15 582.5 101.5 577.5 91.8 577.5 75.5 574.5 72.5 571.0 89.0 569.0 90.55 564.55 76.55 573.2 32.55 574.0 14.0 574.0 -26.5 564.5 -76.0 568.8 -88.5 570.3 -88.35 576.0 -71.0 577.15 -89.5 582.3 -99.7 583.5 -99.0 584.0 -78.85" fill="#434343" fill-rule="evenodd" stroke="none"/>
    <path d="M-578.0 -109.7 L-580.35 -122.7 -577.7 -129.35 -574.35 -131.7 -571.0 -131.7 -567.7 -130.7 -565.35 -129.35 -564.0 -127.35 -561.7 -121.7 -560.35 -117.0 -560.0 -112.35 -562.0 -98.0 -565.7 -85.35 -567.0 -61.35 -570.0 53.0 -566.0 80.0 -567.7 93.65 -569.35 97.3 -571.7 100.65 -574.0 101.65 -577.7 102.0 -584.0 101.0 -587.0 95.65 -585.0 81.0 -580.0 62.0 -579.7 11.65 -575.7 -92.7 -578.0 -109.7" fill="#434343" fill-rule="evenodd" stroke="none"/>
  </g>
</svg>
