<?xml version="1.0" encoding="UTF-8" standalone="no"?>
<svg xmlns:ffdec="https://www.free-decompiler.com/flash" xmlns:xlink="http://www.w3.org/1999/xlink" ffdec:objectType="shape" height="1060.0px" width="1666.65px" xmlns="http://www.w3.org/2000/svg">
  <g transform="matrix(1.0, 0.0, 0.0, 1.0, 834.15, 531.0)">
    <path d="M603.2 -443.05 L650.55 -406.5 693.5 -364.45 731.5 -317.5 764.1 -266.2 790.75 -211.25 811.15 -153.45 825.05 -93.6 832.2 -32.4 832.5 29.2 826.05 90.5 812.8 150.55 793.05 208.55 766.95 263.8 734.95 315.5 697.45 362.9 654.95 405.5 608.05 442.55 557.3 473.7 503.5 498.4 447.3 516.45 399.95 525.5 370.65 528.5 330.9 529.0 -333.5 529.0 -370.65 528.55 -402.15 525.4 -448.95 516.45 -505.15 498.4 -558.95 473.7 -609.65 442.55 -656.6 405.5 -699.1 362.9 -736.6 315.5 -768.6 263.8 -794.65 208.55 -814.45 150.55 -827.65 90.5 -834.15 29.2 -833.8 -32.4 -826.65 -93.6 -812.8 -153.45 -792.35 -211.25 -765.7 -266.2 -733.15 -317.5 -695.1 -364.45 -652.15 -406.5 -604.85 -443.05 -553.8 -473.55 -499.7 -497.6 -443.3 -514.95 -390.4 -524.4 -333.8 -531.0 332.15 -531.0 388.8 -524.4 441.7 -514.95 498.05 -497.6 552.15 -473.55 603.2 -443.05" fill="#707070" fill-rule="evenodd" stroke="none"/>
    <path d="M524.55 -428.95 L573.05 -401.35 618.0 -368.25 658.8 -330.2 694.95 -287.6 725.9 -241.15 751.2 -191.45 770.6 -139.1 783.8 -84.85 790.6 -29.45 790.9 26.35 784.75 81.85 772.2 136.25 753.4 188.8 728.65 238.8 698.2 285.65 662.6 328.6 622.2 367.15 577.6 400.7 529.45 428.9 478.3 451.3 424.95 467.6 371.0 477.45 361.65 478.45 314.3 479.0 -316.9 479.0 -360.95 478.5 -374.0 477.2 -426.55 467.6 -479.95 451.3 -531.05 428.9 -579.25 400.7 -623.85 367.15 -664.2 328.6 -699.85 285.65 -730.25 238.8 -755.0 188.8 -773.8 136.25 -786.35 81.85 -792.55 26.35 -792.2 -29.45 -785.4 -84.85 -772.25 -139.1 -752.85 -191.45 -727.5 -241.15 -696.55 -287.6 -660.45 -330.2 -619.65 -368.25 -574.65 -401.35 -526.15 -428.95 -474.8 -450.75 -421.25 -466.5 -375.05 -474.35 -366.25 -476.75 -317.15 -494.65 -217.35 -514.7 216.0 -514.7 315.55 -494.65 363.55 -477.15 373.85 -474.25 419.6 -466.5 473.15 -450.75 524.55 -428.95" fill="#434343" fill-rule="evenodd" stroke="none"/>
    <path d="M392.8 -313.4 L394.35 -319.45 410.25 -314.8 446.15 -299.55 474.6 -283.35 471.2 -278.5 494.05 -262.55 497.45 -267.45 511.5 -257.1 516.9 -252.05 510.15 -245.55 511.8 -243.85 519.7 -251.35 519.7 -251.4 539.5 -271.2 571.25 -239.45 543.9 -212.3 545.55 -210.65 551.8 -216.6 560.6 -206.25 556.1 -202.95 572.75 -180.6 576.7 -183.55 586.85 -168.3 604.6 -133.55 615.3 -104.65 610.65 -103.6 616.8 -76.45 622.8 -77.8 627.35 -59.05 632.1 -20.35 632.3 15.7 628.0 54.45 625.0 67.45 618.95 66.05 612.75 93.2 618.5 94.5 606.1 129.2 588.8 164.2 582.0 174.6 578.35 171.9 561.75 194.2 566.7 197.9 551.35 216.4 545.8 211.1 544.15 212.75 553.6 221.95 553.6 221.85 571.25 239.5 539.5 271.25 518.35 250.1 518.25 250.2 512.05 244.3 510.4 246.0 516.5 251.9 514.4 253.85 505.8 260.35 503.0 256.35 480.15 272.25 483.5 277.1 483.25 277.35 449.6 297.05 413.85 312.7 403.65 315.8 402.25 310.35 375.25 317.3 376.95 323.95 375.85 324.3 336.5 329.95 299.25 330.35 206.3 330.35 165.7 346.65 163.0 346.65 163.0 348.15 165.1 348.15 165.1 381.3 135.1 381.3 135.1 348.15 137.2 348.15 137.2 346.65 129.65 346.65 129.65 348.15 131.75 348.15 131.75 381.3 101.75 381.3 101.75 348.15 103.85 348.15 103.85 346.65 96.3 346.65 96.3 348.15 98.4 348.15 98.4 381.3 68.4 381.3 68.4 348.15 70.55 348.15 70.55 346.65 63.0 346.65 63.0 348.15 65.1 348.15 65.1 381.3 35.1 381.3 35.1 348.15 37.2 348.15 37.2 346.65 29.65 346.65 29.65 348.15 31.75 348.15 31.75 381.3 1.75 381.3 1.75 348.15 3.85 348.15 3.85 346.65 -3.7 346.65 -3.7 348.15 -1.6 348.15 -1.6 381.3 -31.6 381.3 -31.6 348.15 -29.45 348.15 -29.45 346.65 -37.0 346.65 -37.0 348.15 -34.9 348.15 -34.9 381.3 -64.9 381.3 -64.9 348.15 -62.8 348.15 -62.8 346.65 -70.35 346.65 -70.35 348.15 -68.25 348.15 -68.25 381.3 -98.25 381.3 -98.25 348.15 -96.15 348.15 -96.15 346.65 -103.7 346.65 -103.7 348.15 -101.6 348.15 -101.6 381.3 -131.6 381.3 -131.6 348.15 -129.45 348.15 -129.45 346.65 -137.0 346.65 -137.0 348.15 -134.9 348.15 -134.9 381.3 -164.9 381.3 -164.9 348.15 -162.8 348.15 -162.8 346.65 -166.7 346.65 -205.0 330.35 -301.05 330.35 -338.15 329.95 -367.0 325.8 -365.4 319.65 -392.4 312.7 -394.1 319.2 -415.45 312.7 -451.2 297.05 -474.7 283.25 -470.55 277.25 -493.35 261.35 -497.75 267.6 -516.05 253.85 -517.05 252.9 -509.85 245.85 -511.5 244.2 -518.85 251.2 -519.15 250.85 -539.55 271.25 -571.3 239.5 -553.1 221.25 -553.05 221.85 -543.6 212.65 -545.25 211.0 -552.1 217.5 -561.75 205.8 -555.9 201.45 -572.55 179.1 -578.05 183.2 -590.4 164.2 -607.7 129.2 -616.8 103.75 -610.05 102.2 -616.2 75.05 -624.45 76.95 -629.65 54.45 -633.95 15.7 -633.7 -20.35 -628.95 -59.05 -626.9 -67.55 -619.65 -65.9 -613.5 -93.05 -620.35 -94.6 -619.75 -96.95 -606.2 -133.55 -588.5 -168.3 -583.85 -175.25 -578.1 -170.95 -561.45 -193.25 -568.4 -198.45 -566.9 -200.75 -552.75 -217.4 -545.5 -210.55 -543.85 -212.2 -571.3 -239.45 -539.55 -271.2 -519.65 -251.3 -519.65 -251.25 -511.75 -243.75 -510.1 -245.4 -517.7 -252.8 -513.1 -257.1 -506.5 -261.95 -502.35 -256.05 -479.55 -272.0 -484.05 -278.5 -481.65 -280.25 -447.8 -299.55 -411.85 -314.8 -404.7 -316.9 -402.95 -310.2 -376.0 -317.1 -377.95 -324.75 -374.45 -325.75 -335.3 -332.45 -293.95 -333.0 -205.0 -333.0 -166.7 -346.7 -162.8 -346.7 -162.8 -348.35 -164.9 -348.35 -164.9 -381.5 -134.9 -381.5 -134.9 -348.35 -137.0 -348.35 -137.0 -346.7 -129.45 -346.7 -129.45 -348.35 -131.6 -348.35 -131.6 -381.5 -101.6 -381.5 -101.6 -348.35 -103.7 -348.35 -103.7 -346.7 -96.15 -346.7 -96.15 -348.35 -98.25 -348.35 -98.25 -381.5 -68.25 -381.5 -68.25 -348.35 -70.35 -348.35 -70.35 -346.7 -62.8 -346.7 -62.8 -348.35 -64.9 -348.35 -64.9 -381.5 -34.9 -381.5 -34.9 -348.35 -37.0 -348.35 -37.0 -346.7 -29.45 -346.7 -29.45 -348.35 -31.6 -348.35 -31.6 -381.5 -1.6 -381.5 -1.6 -348.35 -3.7 -348.35 -3.7 -346.7 3.85 -346.7 3.85 -348.35 1.75 -348.35 1.75 -381.5 31.75 -381.5 31.75 -348.35 29.65 -348.35 29.65 -346.7 37.2 -346.7 37.2 -348.35 35.1 -348.35 35.1 -381.5 65.1 -381.5 65.1 -348.35 63.0 -348.35 63.0 -346.7 70.55 -346.7 70.55 -348.35 68.4 -348.35 68.4 -381.5 98.4 -381.5 98.4 -348.35 96.3 -348.35 96.3 -346.7 103.85 -346.7 103.85 -348.35 101.75 -348.35 101.75 -381.5 131.75 -381.5 131.75 -348.35 129.65 -348.35 129.65 -346.7 137.2 -346.7 137.2 -348.35 135.1 -348.35 135.1 -381.5 165.1 -381.5 165.1 -348.35 163.0 -348.35 163.0 -346.7 165.7 -346.7 206.3 -333.0 292.85 -333.0 333.65 -332.45 367.45 -326.7 365.8 -320.35 392.8 -313.4" fill="#707070" fill-rule="evenodd" stroke="none"/>
    <path d="M387.65 -287.0 L417.3 -276.0 468.0 -250.0 505.0 -218.35 535.65 -185.7 556.0 -156.7 570.65 -128.7 587.0 -89.0 599.3 -28.0 600.1 9.85 598.55 31.2 593.4 63.65 581.65 104.8 562.8 147.0 539.0 183.4 510.3 217.0 470.75 249.0 436.55 270.1 389.0 288.3 345.0 299.0 305.5 301.0 -291.0 301.0 -330.5 299.5 -389.45 289.4 -425.45 274.0 -458.35 256.3 -492.35 231.65 -515.7 210.3 -535.0 187.0 -554.35 159.65 -571.0 128.3 -583.0 99.0 -593.0 65.65 -600.35 21.0 -599.7 -23.0 -595.0 -53.0 -586.35 -86.35 -575.7 -117.7 -565.0 -139.7 -541.7 -175.7 -519.7 -203.7 -495.7 -227.0 -469.0 -247.0 -446.35 -261.0 -411.0 -279.0 -380.35 -287.7 -337.0 -297.0 -307.0 -302.0 295.0 -302.35 335.0 -298.35 387.65 -287.0" fill="#969696" fill-rule="evenodd" stroke="none"/>
    <path d="M304.6 -304.5 L331.65 -301.7 368.0 -294.85 401.9 -284.9 434.4 -271.1 465.1 -253.65 493.55 -232.7 519.4 -208.6 542.25 -181.7 561.85 -152.3 577.85 -120.8 590.15 -87.7 598.45 -53.35 602.75 -18.3 603.0 17.05 599.1 52.15 591.15 86.55 579.25 119.8 563.55 151.45 544.3 181.1 521.75 208.3 496.2 232.65 468.0 253.95 437.5 271.75 405.15 285.95 371.4 296.25 348.2 300.5 304.35 302.8 -330.0 302.7 -370.6 296.3 -404.45 285.95 -436.8 271.75 -467.3 253.95 -495.5 232.65 -521.05 208.3 -543.6 181.1 -562.85 151.45 -578.55 119.8 -590.4 86.55 -598.35 52.15 -602.25 17.05 -602.05 -18.3 -597.75 -53.35 -589.4 -87.7 -577.15 -120.8 -561.1 -152.3 -541.55 -181.7 -518.7 -208.6 -492.85 -232.7 -464.4 -253.65 -433.7 -271.1 -401.2 -284.9 -367.25 -294.85 -330.3 -300.75 -305.85 -304.2 -289.9 -305.0 284.2 -305.0 304.6 -304.5 M331.0 -296.6 L304.2 -299.5 284.15 -300.0 -289.7 -300.0 -305.2 -299.2 -330.85 -296.0 -366.15 -290.0 -399.5 -280.2 -431.5 -266.65 -461.65 -249.45 -489.65 -228.85 -515.05 -205.15 -537.55 -178.65 -556.8 -149.75 -572.55 -118.8 -584.65 -86.2 -592.85 -52.45 -597.05 -17.95 -597.25 16.75 -593.45 51.3 -585.6 85.15 -573.9 117.85 -558.5 149.0 -539.6 178.15 -517.4 204.85 -492.25 228.85 -464.5 249.75 -434.55 267.3 Q-418.6 274.3 -402.7 281.25 L-369.5 291.4 -329.6 297.7 304.2 297.8 347.6 295.5 370.2 291.4 403.4 281.25 Q419.35 274.3 435.25 267.3 L465.25 249.75 493.0 228.85 518.1 204.85 540.3 178.15 559.2 149.0 574.65 117.85 586.3 85.15 594.15 51.3 598.0 16.75 597.8 -17.95 593.55 -52.45 585.35 -86.2 573.25 -118.8 557.5 -149.75 538.25 -178.65 515.75 -205.15 490.35 -228.85 462.4 -249.45 432.2 -266.65 400.2 -280.2 366.9 -290.0 331.0 -296.6" fill="#828282" fill-rule="evenodd" stroke="none"/>
    <path d="M-302.85 -298.1 L-274.7 -299.0 -274.35 -296.0 -303.35 -293.0 -321.35 -292.7 -331.7 -289.35 -353.7 -284.0 -391.15 -271.95 -409.85 -264.25 -427.95 -255.0 -446.3 -246.8 -458.05 -238.1 -462.35 -233.7 -481.7 -221.05 -496.45 -206.0 -510.15 -189.65 -519.6 -171.85 -530.9 -153.35 -554.35 -108.7 -556.6 -92.75 -566.7 -76.35 -570.0 -58.35 -571.35 -46.0 -575.75 -29.55 -576.9 -7.15 -576.5 15.25 -573.9 35.4 -570.45 57.5 -565.5 79.25 -559.05 100.45 -551.15 121.05 -541.9 140.9 -531.25 159.9 -519.35 177.9 -492.7 212.7 -479.0 223.0 -471.55 225.95 -455.35 239.0 -438.3 250.55 -420.5 260.65 -402.05 269.15 -383.1 276.0 -363.7 281.15 -355.0 284.65 -334.0 289.65 -323.7 292.65 -310.35 292.3 -291.7 295.0 -275.0 296.0 -274.35 299.65 -290.9 299.6 -314.7 297.8 -338.3 294.2 -361.55 288.85 -384.3 281.75 -406.4 272.95 -427.7 262.55 -448.15 250.55 -467.6 237.05 -485.9 222.15 -502.95 205.85 -518.65 188.35 -532.9 169.75 -545.65 150.1 -556.75 129.55 -566.2 108.25 -573.95 86.25 -579.9 63.8 -584.05 40.9 -586.35 17.8 -586.8 -5.4 -585.45 -28.6 -582.2 -51.6 -577.15 -74.3 -570.3 -96.55 -561.7 -118.2 -551.4 -139.15 -539.45 -159.25 -525.95 -178.4 -497.35 -212.35 -481.0 -227.7 -458.0 -243.2 -438.05 -255.95 -417.15 -267.15 -395.4 -276.75 -373.0 -284.7 -350.0 -290.95 -326.55 -295.4 -302.85 -298.1" fill="#434343" fill-rule="evenodd" stroke="none"/>
    <path d="M372.45 -284.7 L394.9 -276.75 416.65 -267.15 437.55 -255.95 457.5 -243.2 480.5 -227.7 496.85 -212.35 525.45 -178.4 538.95 -159.25 550.9 -139.15 561.2 -118.2 569.8 -96.55 576.65 -74.3 581.7 -51.6 584.9 -28.6 586.3 -5.4 585.85 17.8 583.55 40.9 579.4 63.8 573.45 86.25 565.7 108.25 556.25 129.55 545.1 150.1 532.4 169.75 518.1 188.35 502.4 205.85 485.35 222.15 467.1 237.05 447.65 250.55 427.2 262.55 405.85 272.95 383.75 281.75 361.05 288.85 337.8 294.2 314.2 297.8 290.4 299.6 273.85 299.65 274.5 296.0 291.2 295.0 309.85 292.3 323.2 292.65 333.5 289.65 354.5 284.65 363.2 281.15 382.6 276.0 401.55 269.15 420.0 260.65 437.8 250.55 454.85 239.0 471.05 225.95 478.5 223.0 492.2 212.7 516.3 180.3 520.3 170.3 530.75 159.9 541.35 140.9 550.65 121.05 558.55 100.45 560.3 89.65 565.0 79.25 569.95 57.5 573.4 35.4 576.0 15.25 576.4 -7.15 575.2 -29.55 570.5 -53.0 568.3 -73.75 556.5 -93.5 555.0 -109.0 548.0 -117.5 540.35 -133.9 530.4 -153.35 519.1 -171.85 509.65 -189.65 495.95 -206.0 481.2 -221.05 461.85 -233.7 457.55 -238.1 445.8 -246.8 427.45 -255.0 409.35 -264.25 390.6 -271.95 353.2 -284.0 331.2 -289.35 320.85 -292.7 302.85 -293.0 273.85 -296.0 274.2 -299.0 302.3 -298.1 326.05 -295.4 349.45 -290.95 372.45 -284.7" fill="#434343" fill-rule="evenodd" stroke="none"/>
    <path d="M-40.7 292.0 L-17.6 288.0 -1.35 287.65 39.0 290.3 55.05 292.5 67.2 292.0 77.75 294.0 99.3 292.65 106.3 293.65 132.1 295.0 141.1 296.0 175.05 295.0 189.15 296.0 193.0 298.0 188.8 301.0 174.95 300.0 140.9 301.0 131.9 300.0 104.75 300.5 96.3 298.0 77.25 299.0 66.8 297.0 54.95 297.5 23.85 295.0 -4.2 294.0 -17.35 293.0 -40.3 297.0 -65.9 297.0 -102.95 299.0 -133.5 299.5 -192.5 299.5 -192.5 294.5 -133.5 294.5 -103.1 294.0 -66.05 292.0 -40.7 292.0" fill="#434343" fill-rule="evenodd" stroke="none"/>
    <path d="M-190.5 -300.0 L-149.45 -300.5 -131.4 -299.5 -108.25 -299.5 -98.7 -297.45 -60.4 -297.0 -43.1 -295.45 -26.25 -291.5 -2.6 -292.0 17.75 -292.95 41.8 -297.0 50.2 -297.0 56.7 -296.0 63.8 -296.0 74.3 -297.5 95.8 -298.0 115.3 -300.5 137.0 -301.0 160.05 -300.0 190.0 -300.0 190.0 -295.0 159.9 -295.0 136.95 -296.0 115.7 -295.5 96.2 -293.0 74.7 -292.5 64.2 -291.0 56.3 -291.0 49.8 -292.0 42.2 -292.0 18.25 -288.0 -2.45 -287.0 -26.75 -286.45 -43.9 -290.5 -60.6 -292.0 -99.3 -292.5 -108.75 -294.5 -131.65 -294.5 -149.55 -295.5 -190.45 -295.0 -190.5 -300.0" fill="#434343" fill-rule="evenodd" stroke="none"/>
    <path d="M91.9 264.8 L92.8 265.75 92.95 267.05 92.3 268.2 91.1 268.75 89.85 268.5 88.95 267.55 88.8 266.25 89.4 265.1 90.6 264.55 91.9 264.8" fill="#707070" fill-rule="evenodd" stroke="none"/>
    <path d="M135.85 255.65 L137.1 255.9 138.0 256.85 138.15 258.15 137.55 259.3 136.35 259.85 135.05 259.6 134.15 258.65 134.0 257.35 134.65 256.2 135.85 255.65" fill="#707070" fill-rule="evenodd" stroke="none"/>
    <path d="M289.5 -184.9 L290.4 -183.9 290.55 -182.6 289.9 -181.45 288.75 -180.9 287.45 -181.15 286.55 -182.15 286.4 -183.45 287.05 -184.6 288.2 -185.15 289.5 -184.9" fill="#707070" fill-rule="evenodd" stroke="none"/>
    <path d="M255.75 -185.9 L255.9 -184.6 255.25 -183.45 254.05 -182.9 252.75 -183.15 251.9 -184.15 251.75 -185.45 252.35 -186.6 253.55 -187.15 254.85 -186.9 255.75 -185.9" fill="#707070" fill-rule="evenodd" stroke="none"/>
    <path d="M-7.3 -270.65 L-7.45 -271.95 -6.8 -273.1 -5.6 -273.65 -4.35 -273.4 -3.45 -272.4 -3.25 -271.1 -3.9 -269.95 -5.1 -269.4 -6.4 -269.65 -7.3 -270.65" fill="#707070" fill-rule="evenodd" stroke="none"/>
    <path d="M-43.3 -272.15 L-43.45 -273.45 -42.8 -274.6 -41.6 -275.15 -40.35 -274.9 -39.45 -273.9 -39.25 -272.6 -39.9 -271.45 -41.1 -270.9 -42.4 -271.15 -43.3 -272.15" fill="#707070" fill-rule="evenodd" stroke="none"/>
    <path d="M-291.45 -212.85 L-292.35 -213.8 -292.5 -215.1 -291.85 -216.25 -290.65 -216.8 -289.4 -216.55 -288.5 -215.6 -288.35 -214.3 -288.95 -213.15 -290.15 -212.6 -291.45 -212.85" fill="#707070" fill-rule="evenodd" stroke="none"/>
    <path d="M-325.8 -208.4 L-326.65 -209.35 -326.85 -210.65 -326.2 -211.8 -325.0 -212.35 -323.7 -212.1 -322.8 -211.15 -322.65 -209.85 -323.3 -208.7 -324.5 -208.15 -325.8 -208.4" fill="#707070" fill-rule="evenodd" stroke="none"/>
    <path d="M-281.05 140.9 L-280.15 141.85 -280.0 143.15 -280.65 144.3 -281.85 144.85 -283.1 144.6 -284.0 143.65 -284.15 142.35 -283.5 141.2 -282.35 140.65 -281.05 140.9" fill="#707070" fill-rule="evenodd" stroke="none"/>
    <path d="M-254.1 143.65 L-252.85 143.9 -251.95 144.85 -251.75 146.15 -252.4 147.3 -253.6 147.85 -254.9 147.6 -255.8 146.65 -255.95 145.35 -255.3 144.2 -254.1 143.65" fill="#707070" fill-rule="evenodd" stroke="none"/>
    <path d="M-2.05 185.55 L-1.15 186.5 -1.0 187.8 -1.65 188.95 -2.85 189.5 -4.1 189.25 -5.0 188.3 -5.15 187.0 -4.5 185.85 -3.35 185.3 -2.05 185.55" fill="#707070" fill-rule="evenodd" stroke="none"/>
    <path d="M-18.95 198.1 L-18.05 199.1 -17.9 200.4 -18.55 201.55 -19.75 202.1 -21.05 201.85 -21.9 200.85 -22.1 199.55 -21.45 198.4 -20.25 197.85 -18.95 198.1" fill="#707070" fill-rule="evenodd" stroke="none"/>
    <path d="M-144.05 266.3 L-143.15 267.25 -143.0 268.55 -143.65 269.7 -144.85 270.25 -146.1 270.0 -147.0 269.05 -147.15 267.75 -146.5 266.6 -145.35 266.05 -144.05 266.3" fill="#707070" fill-rule="evenodd" stroke="none"/>
    <path d="M-90.55 266.3 L-89.65 267.25 -89.5 268.55 -90.15 269.7 -91.35 270.25 -92.6 270.0 -93.5 269.05 -93.65 267.75 -93.0 266.6 -91.85 266.05 -90.55 266.3" fill="#707070" fill-rule="evenodd" stroke="none"/>
    <path d="M282.8 191.95 L283.7 192.9 283.85 194.2 283.2 195.35 282.0 195.9 280.7 195.65 279.85 194.7 279.65 193.4 280.3 192.25 281.5 191.7 282.8 191.95" fill="#707070" fill-rule="evenodd" stroke="none"/>
    <path d="M14.65 -90.95 L15.45 -87.55 15.55 -84.05 14.95 -80.6 13.6 -77.4 11.65 -74.7 9.2 -72.6 6.4 -71.25 3.35 -70.7 0.3 -71.0 -2.6 -72.15 -5.15 -74.05 -7.25 -76.6 -8.75 -79.65 -9.6 -83.05 -9.7 -86.6 -9.1 -90.05 -7.75 -93.2 -5.8 -95.9 -3.35 -98.0 -0.5 -99.35 2.5 -99.9 5.55 -99.6 8.45 -98.45 11.0 -96.55 13.15 -94.0 14.65 -90.95" fill="#707070" fill-rule="evenodd" stroke="none"/>
    <path d="M88.25 49.7 L89.15 47.45 90.45 45.45 92.0 43.75 93.75 42.45 95.55 41.7 97.35 41.5 99.05 41.85 100.5 42.7 101.7 44.05 102.45 45.85 102.8 47.9 102.75 50.15 102.25 52.5 101.3 54.7 100.05 56.75 98.5 58.4 96.75 59.7 94.9 60.45 93.1 60.65 91.4 60.35 89.95 59.45 88.8 58.1 88.0 56.35 87.65 54.25 87.75 52.0 88.25 49.7" fill="#707070" fill-rule="evenodd" stroke="none"/>
    <path d="M-78.15 45.95 L-76.55 46.5 -75.15 47.45 -74.0 48.7 -73.15 50.25 -72.7 51.9 -72.65 53.65 -73.0 55.4 -73.75 56.95 -74.8 58.3 -76.15 59.35 -77.7 60.05 -79.35 60.3 -81.05 60.15 -82.65 59.6 -84.05 58.65 -85.2 57.35 -86.05 55.85 -86.5 54.15 -86.55 52.4 -86.2 50.7 -85.5 49.1 -84.4 47.75 -83.05 46.7 -81.5 46.05 -79.85 45.75 -78.15 45.95" fill="#707070" fill-rule="evenodd" stroke="none"/>
    <path d="M180.75 135.95 L183.05 133.25 185.9 131.15 189.15 129.8 195.2 100.75 240.55 108.3 242.1 110.1 237.0 135.85 234.55 137.65 201.5 131.9 202.55 132.6 205.0 135.15 206.75 138.2 209.35 157.15 209.5 160.65 208.75 164.1 207.2 167.3 204.95 170.0 202.1 172.1 198.85 173.45 195.35 174.0 191.8 173.7 188.45 172.55 185.45 170.65 183.0 168.1 181.25 165.05 180.3 161.65 179.25 139.15 180.75 135.95" fill="#707070" fill-rule="evenodd" stroke="none"/>
    <path d="M216.15 237.75 L215.35 241.7 213.65 245.3 208.15 252.3 204.95 254.35 201.35 255.9 197.5 256.5 193.55 256.15 189.85 254.85 186.55 252.7 183.85 249.75 181.9 246.25 180.85 242.4 180.7 238.35 181.55 234.4 183.25 230.8 188.75 224.15 191.9 221.75 195.5 220.2 199.4 219.6 203.3 219.95 207.0 221.25 210.3 223.4 213.0 226.35 214.95 229.85 216.0 233.7 216.15 237.75" fill="#707070" fill-rule="evenodd" stroke="none"/>
    <path d="M300.35 186.0 L302.1 183.3 304.3 181.2 306.8 179.85 309.5 179.3 331.55 178.8 334.15 179.9 336.4 181.8 338.3 184.35 339.65 187.4 340.35 190.8 340.45 194.3 339.9 197.75 338.7 200.95 337.0 203.65 334.8 205.75 332.3 207.1 329.6 207.65 306.15 206.5 303.0 205.0 300.8 202.6 299.45 199.55 298.75 196.15 298.65 192.65 299.2 189.2 300.35 186.0" fill="#707070" fill-rule="evenodd" stroke="none"/>
    <path d="M-256.7 -143.7 L-254.35 -135.7 -256.35 -134.7 -257.7 -139.35 -326.7 -135.35 -327.0 -139.7 -256.7 -143.7" fill="#707070" fill-rule="evenodd" stroke="none"/>
    <path d="M-265.0 -194.7 L-265.0 -198.35 -263.0 -198.7 -263.0 -190.7 -332.0 -173.7 -332.7 -178.35 -265.0 -194.7" fill="#707070" fill-rule="evenodd" stroke="none"/>
    <path d="M-361.15 -222.1 L-356.35 -217.45 -351.55 -208.2 -349.95 -202.6 -349.75 -196.75 -350.95 -191.05 -353.5 -185.8 -357.2 -181.35 -361.9 -177.85 -367.25 -175.6 -373.0 -174.7 -375.2 -174.9 -374.0 -171.0 -436.0 -136.0 -437.35 -141.0 -376.35 -173.7 -376.7 -175.05 -378.8 -175.2 -384.3 -177.1 -389.25 -180.25 -393.25 -184.45 -396.1 -189.55 -397.7 -195.15 -397.9 -200.95 -396.7 -206.65 -394.15 -211.9 -387.25 -221.45 -383.1 -224.05 -378.8 -225.85 -374.15 -226.55 -369.5 -226.15 -365.1 -224.65 -361.15 -222.1" fill="#707070" fill-rule="evenodd" stroke="none"/>
    <path d="M-420.35 -100.0 L-422.7 -105.35 -354.7 -127.35 -350.7 -119.35 -352.0 -118.35 -354.35 -122.7 -420.35 -100.0" fill="#707070" fill-rule="evenodd" stroke="none"/>
    <path d="M401.85 -60.8 L405.2 -63.0 409.85 -63.7 415.0 -59.0 415.65 -53.0 414.1 -50.15 409.85 -48.15 405.2 -48.6 403.4 -50.35 400.55 -56.15 400.55 -58.35 401.85 -60.8" fill="#707070" fill-rule="evenodd" stroke="none"/>
    <path d="M-412.45 49.4 L-407.45 48.2 -406.6 48.4 -405.7 49.0 -403.6 50.85 -400.7 55.4 -400.25 56.3 -400.35 58.55 -401.15 60.0 -403.6 62.65 -405.8 64.1 -407.9 64.2 -410.6 62.55 -413.7 59.75 -414.35 58.75 -415.0 56.2 -414.8 52.65 -414.25 51.2 -412.45 49.4" fill="#707070" fill-rule="evenodd" stroke="none"/>
    <path d="M315.0 -41.0 L324.9 -39.65 335.85 -36.7 345.95 -32.8 356.15 -29.6 364.55 -25.85 372.5 -21.25 379.9 -15.85 386.75 -9.7 389.2 -7.0 389.0 -8.7 392.0 -17.7 394.3 -22.0 398.3 -27.0 402.3 -34.35 412.0 -41.35 416.0 -42.0 421.3 -39.7 425.3 -36.35 428.3 -32.7 431.65 -27.35 435.3 -23.0 439.0 -16.0 442.0 -6.7 442.3 -1.35 441.0 11.3 426.65 36.3 418.0 44.3 415.3 45.65 410.65 46.3 407.3 44.3 403.3 41.0 397.0 34.0 394.85 28.2 389.3 28.15 370.7 47.05 369.25 50.75 360.2 50.55 354.1 48.05 350.65 43.35 346.7 39.05 342.4 35.2 337.65 31.8 332.6 28.95 327.3 26.6 321.75 24.85 316.05 23.7 295.65 21.05 295.65 -41.15 315.0 -41.0" fill="#707070" fill-rule="evenodd" stroke="none"/>
    <path d="M-437.45 -20.5 L-434.95 -24.5 -429.85 -30.7 -421.0 -39.5 -417.35 -41.7 -411.45 -43.5 -406.45 -42.5 -403.95 -41.5 -401.0 -39.0 -395.45 -29.15 -392.6 -34.8 -387.5 -41.0 -381.15 -47.15 Q-378.05 -48.65 -375.0 -50.2 L-369.85 -51.7 -361.9 -52.05 -357.9 -51.25 -353.4 -49.65 -349.95 -45.0 -346.0 -40.7 -341.7 -36.85 -336.95 -33.45 -331.9 -30.55 -326.6 -28.25 -321.05 -26.5 -315.35 -25.3 -295.0 -22.7 -295.0 39.5 -336.5 33.5 -346.7 30.8 -355.45 27.95 -363.85 24.2 Q-367.8 21.95 -371.8 19.65 L-379.2 14.25 -386.05 8.1 -388.1 5.8 -388.5 16.0 -390.5 22.0 -393.0 26.5 -402.95 32.5 -410.5 38.5 -415.0 41.3 -419.0 40.65 -422.2 38.5 -425.95 34.0 -429.5 28.8 -431.95 26.45 -434.45 23.0 -438.85 14.15 -441.2 3.65 -441.2 -7.5 -437.45 -20.5" fill="#707070" fill-rule="evenodd" stroke="none"/>
    <path d="M329.65 131.85 L332.1 139.2 219.2 173.65 215.85 167.65 329.65 131.85" fill="#707070" fill-rule="evenodd" stroke="none"/>
    <path d="M338.75 159.85 L340.3 163.85 341.2 167.4 227.85 203.65 225.85 197.2 338.75 159.85" fill="#707070" fill-rule="evenodd" stroke="none"/>
    <path d="M-394.45 -17.3 L-395.45 -24.9 -395.45 -29.15 -392.6 -34.8 -387.5 -41.0 -381.15 -47.15 Q-378.05 -48.65 -375.0 -50.2 L-369.85 -51.7 -368.6 -41.7 -367.1 -37.65 -362.25 -31.35 -355.1 -25.2 -346.9 -20.75 -335.7 -16.8 -326.6 -14.6 -313.85 -12.7 -295.0 -10.7 -295.0 30.15 -328.35 24.3 -343.9 20.3 -358.35 15.0 -369.35 9.85 -374.5 6.65 -379.35 2.85 -383.8 -1.5 -387.8 -6.25 -391.35 -11.5 -394.45 -17.3" fill="#7f7f7f" fill-rule="evenodd" stroke="none"/>
    <path d="M357.75 -15.9 L368.75 -10.8 373.9 -7.55 378.75 -3.8 383.2 0.55 387.2 5.35 390.7 10.55 393.85 16.4 394.85 24.0 394.85 28.2 391.95 33.85 386.85 40.05 380.5 46.2 374.4 49.25 369.25 50.75 367.95 40.75 366.5 36.7 361.6 30.45 358.2 27.15 354.45 24.25 350.45 21.8 340.65 17.65 335.05 15.85 325.95 13.65 313.25 11.75 295.65 12.2 295.65 -31.05 327.75 -25.25 343.3 -21.25 357.75 -15.9" fill="#7f7f7f" fill-rule="evenodd" stroke="none"/>
    <path d="M15.05 178.0 L14.9 179.7 20.5 224.35 21.0 225.2 22.0 225.4 27.85 225.0 41.55 219.3 48.0 215.85 57.4 209.35 57.7 207.85 56.75 206.2 18.3 178.55 16.3 177.35 Q15.7 177.7 15.05 178.0 M26.85 161.2 L26.55 162.55 27.75 163.75 72.4 187.1 73.8 187.15 75.0 186.15 77.0 182.4 79.4 175.55 81.1 168.0 82.0 161.0 81.85 149.75 80.9 148.55 79.0 148.2 29.05 160.4 26.85 161.2 M-4.55 177.5 L-6.05 178.3 -42.1 209.2 -42.0 210.65 -37.35 214.3 -31.5 218.0 -24.35 221.3 -18.35 223.5 -6.9 226.15 -5.45 225.55 -4.6 223.85 -3.25 180.55 -3.35 178.2 -4.55 177.5 M-16.75 165.1 L-16.85 163.75 -18.4 162.95 -68.95 153.9 -70.05 154.8 -70.35 160.75 -67.45 173.2 -63.15 184.95 -60.85 190.0 -59.5 190.85 -57.65 190.55 -18.55 166.5 -16.75 165.1 M-12.9 145.65 L-13.3 144.0 -41.8 100.1 -43.2 99.85 -46.35 102.3 -56.35 113.0 -59.4 117.3 -62.35 122.75 -65.0 128.75 -64.8 130.3 -63.35 131.55 -16.1 146.2 -13.85 146.65 -12.9 145.65 M52.0 97.4 L47.3 94.4 45.75 94.4 44.3 95.65 22.1 141.2 21.3 143.4 22.15 144.5 23.85 144.3 72.55 124.3 73.3 123.1 73.15 121.4 67.55 112.85 62.0 106.4 56.55 101.1 52.0 97.4 M-19.05 86.75 L-19.05 88.65 1.65 134.9 2.8 136.9 4.2 137.0 5.15 135.55 21.05 85.4 20.6 84.0 19.25 83.05 9.05 81.9 0.55 82.0 -7.0 82.75 -12.75 83.9 -18.05 85.55 -19.05 86.75 M64.3 48.65 L72.2 53.0 79.65 57.95 86.7 63.45 93.3 69.4 99.35 75.9 104.9 82.8 109.85 90.1 114.15 97.75 117.85 105.7 120.9 113.9 123.25 122.3 124.95 130.9 125.9 139.55 126.15 148.3 125.7 157.05 124.55 165.7 122.7 174.3 120.15 182.7 116.95 190.95 113.1 198.9 108.6 206.55 103.5 213.9 97.8 220.8 91.6 227.3 84.9 233.3 77.7 238.8 70.15 243.75 62.15 248.15 53.9 251.9 45.35 255.05 36.55 257.6 27.6 259.45 18.55 260.65 9.4 261.2 0.25 261.0 -8.8 260.2 -17.8 258.7 -26.6 256.5 -35.25 253.7 -43.6 250.25 -51.65 246.2 -59.3 241.55 -66.6 236.35 -73.4 230.6 -79.75 224.35 -85.55 217.7 -90.75 210.55 -95.4 203.1 -99.45 195.3 -102.8 187.2 -105.5 178.9 -107.5 170.4 -108.85 161.75 -109.45 153.05 -109.35 144.3 -108.55 135.55 -107.05 126.95 -104.85 118.45 -101.95 110.1 -98.45 102.0 -94.25 94.2 -89.45 86.7 -84.05 79.55 -78.1 72.85 -71.65 66.6 -64.7 60.85 -57.3 55.6 -49.55 50.95 -35.1 43.85 -27.35 55.4 -23.75 59.4 -16.9 64.3 -11.1 67.15 -5.1 69.4 1.8 70.3 6.2 70.45 31.15 66.7 36.9 62.05 41.55 57.4 44.9 52.75 47.55 48.05 50.25 44.75 64.3 48.65" fill="#7f7f7f" fill-rule="evenodd" stroke="none"/>
    <path d="M108.8 -211.75 L100.55 -209.35 93.05 -205.7 86.45 -200.85 81.0 -194.95 73.95 -184.45 72.0 -180.9 69.05 -173.3 67.5 -165.1 67.45 -156.5 68.75 -147.75 71.5 -139.0 75.6 -130.5 78.1 -126.4 84.0 -118.65 90.9 -111.6 96.1 -107.9 104.1 -103.45 117.45 -98.05 126.7 -95.4 135.95 -94.05 145.65 -95.25 157.55 -99.0 163.65 -101.7 172.55 -107.7 178.85 -112.85 184.0 -119.0 187.95 -126.05 190.55 -133.85 191.7 -142.15 191.45 -150.8 190.8 -155.2 188.4 -163.95 184.65 -172.55 179.6 -180.7 173.45 -188.3 166.3 -195.15 158.3 -201.0 149.7 -205.85 145.2 -207.8 136.05 -210.8 126.75 -212.45 117.6 -212.75 108.8 -211.75 M29.4 -211.4 L33.55 -218.5 38.25 -225.2 43.4 -231.55 49.1 -237.45 55.2 -242.9 61.7 -247.9 68.6 -252.35 75.8 -256.25 83.25 -259.6 91.0 -262.3 98.9 -264.45 106.95 -266.0 115.1 -266.85 123.3 -267.15 131.45 -266.75 139.6 -265.75 147.65 -264.1 155.5 -261.85 163.2 -259.0 170.6 -255.55 177.75 -251.5 184.55 -246.95 191.0 -241.9 197.05 -236.35 202.6 -230.35 207.7 -223.95 212.3 -217.15 216.35 -210.0 219.8 -202.6 222.7 -194.95 231.0 -168.0 232.65 -159.95 233.7 -151.85 234.15 -143.65 233.9 -135.45 233.05 -127.3 227.5 -99.5 222.5 -81.5 218.3 -69.25 213.9 -62.35 208.95 -55.85 203.55 -49.7 197.65 -44.0 191.3 -38.8 186.0 -35.5 177.5 -32.5 170.15 -28.85 160.5 -26.0 152.5 -24.3 150.3 -25.9 148.0 -32.5 142.75 -42.8 140.1 -45.45 138.0 -47.0 87.5 -74.0 73.5 -79.0 62.0 -81.0 55.2 -81.3 53.25 -81.8 45.1 -89.55 39.8 -95.8 34.95 -102.4 30.6 -109.35 26.0 -122.5 23.0 -136.0 21.0 -148.5 20.5 -158.5 20.45 -184.5 21.4 -191.85 25.8 -204.05 29.4 -211.4" fill="#7f7f7f" fill-rule="evenodd" stroke="none"/>
    <path d="M-166.45 -215.6 L-149.7 -222.8 -132.45 -227.05 -124.1 -227.9 -115.75 -228.2 -107.5 -227.85 -99.4 -226.85 -91.45 -225.25 -83.75 -223.05 -76.35 -220.25 -69.25 -216.9 -62.5 -212.95 -56.15 -208.5 -50.25 -203.5 -36.75 -184.05 -32.95 -177.4 -29.7 -170.4 -27.1 -163.15 -25.1 -155.6 -23.75 -147.9 -23.05 -140.0 -23.0 -132.05 -23.6 -124.0 -24.8 -116.0 -26.7 -108.0 -29.2 -100.05 -32.3 -92.3 -36.0 -84.7 -40.25 -77.35 -71.75 -82.3 -64.75 -92.95 -59.35 -104.35 -57.3 -110.25 -54.6 -122.3 -53.75 -134.35 -55.7 -153.35 -57.25 -159.0 -61.95 -169.55 -68.35 -179.0 -73.5 -184.85 -82.1 -192.35 -86.9 -195.55 -97.3 -200.65 -102.8 -202.55 -114.4 -205.0 -120.4 -205.55 -132.55 -205.2 -144.75 -203.0 -156.65 -198.95 -168.0 -193.2 -178.5 -185.9 -187.95 -177.2 -194.45 -171.9 -201.85 -161.5 -207.7 -150.25 -211.75 -138.45 -214.0 -126.35 -214.4 -114.3 -212.85 -102.55 -209.5 -91.4 -204.35 -81.1 -201.15 -76.35 -197.55 -71.9 -188.45 -64.05 -183.8 -60.7 -177.4 -58.2 -172.2 -55.6 -161.15 -51.8 -149.45 -49.8 -137.3 -49.7 -132.1 -19.55 -140.45 -19.0 -148.75 -19.05 -156.95 -19.7 -165.0 -21.0 -172.8 -22.9 -180.4 -25.4 -187.65 -28.5 -194.6 -32.15 -201.15 -36.35 -207.25 -41.05 -212.9 -46.25 -218.1 -51.9 -228.15 -65.25 -231.8 -71.2 -234.75 -78.3 -237.05 -85.7 -238.7 -93.35 -239.75 -101.15 -240.15 -109.05 -239.85 -117.1 -238.95 -125.1 -237.4 -133.15 -235.2 -141.1 -232.4 -148.95 -229.0 -156.65 -225.0 -164.15 -220.5 -171.35 -208.35 -185.05 -202.3 -191.3 -195.85 -197.1 -189.0 -202.45 -181.75 -207.35 -174.25 -211.75 -166.45 -215.6" fill="#7f7f7f" fill-rule="evenodd" stroke="none"/>
    <path d="M4.65 -49.0 L2.15 -48.9 -30.8 -35.0 -35.0 -32.15 -41.5 -24.1 -46.5 -15.5 -48.5 -8.0 -50.0 1.0 -48.5 13.0 -47.0 21.0 -46.5 27.0 -46.7 28.3 -46.25 30.35 -42.5 32.0 -32.0 40.5 -21.9 46.3 -12.0 49.5 -2.6 51.4 5.5 51.5 13.2 50.75 27.2 46.1 34.65 42.65 Q40.1 39.35 45.5 36.0 L53.0 30.35 53.5 28.3 53.5 25.0 55.0 22.0 56.5 16.5 57.0 8.0 53.5 -11.0 50.5 -19.0 45.5 -27.5 30.0 -38.5 22.75 -41.9 14.0 -45.0 4.65 -49.0 M59.0 -70.0 L73.0 -59.0 84.0 -47.5 93.0 -36.0 97.5 -24.5 100.5 -13.0 102.0 -3.0 101.0 9.0 99.0 21.0 92.5 34.5 84.5 46.0 77.0 59.0 71.3 66.3 63.0 74.0 52.65 80.65 36.0 86.5 23.5 89.5 8.5 91.5 -11.0 90.5 -27.0 87.5 -41.0 81.0 -55.0 73.0 -62.35 67.3 -69.0 61.0 -75.0 50.0 -78.5 42.0 -85.5 38.5 -89.0 34.0 -92.5 24.5 -95.0 4.5 -93.0 -12.0 -90.0 -26.0 -79.5 -45.0 -72.5 -54.0 -61.0 -63.5 -50.0 -71.0 -39.5 -76.5 -28.0 -81.5 -21.9 -83.7 -17.0 -84.0 -6.5 -83.5 3.5 -82.5 17.0 -83.0 32.0 -82.0 44.0 -77.5 59.0 -70.0" fill="#ffffff" fill-opacity="0.14901961" fill-rule="evenodd" stroke="none"/>
  </g>
</svg>
