<?xml version="1.0" encoding="UTF-8" standalone="no"?>
<svg xmlns:ffdec="https://www.free-decompiler.com/flash" xmlns:xlink="http://www.w3.org/1999/xlink" ffdec:objectType="shape" height="1060.0px" width="1666.65px" xmlns="http://www.w3.org/2000/svg">
  <g transform="matrix(1.0, 0.0, 0.0, 1.0, 834.15, 531.0)">
    <path d="M603.2 -443.05 L650.55 -406.5 693.5 -364.45 731.5 -317.5 764.1 -266.2 790.75 -211.25 811.15 -153.45 825.05 -93.6 832.2 -32.4 832.5 29.2 826.05 90.5 812.8 150.55 793.05 208.55 766.95 263.8 734.95 315.5 697.45 362.9 654.95 405.5 608.05 442.55 557.3 473.7 503.5 498.4 447.3 516.45 399.95 525.5 370.65 528.5 330.9 529.0 -333.5 529.0 -370.65 528.55 -402.15 525.4 -448.95 516.45 -505.15 498.4 -558.95 473.7 -609.65 442.55 -656.6 405.5 -699.1 362.9 -736.6 315.5 -768.6 263.8 -794.65 208.55 -814.45 150.55 -827.65 90.5 -834.15 29.2 -833.8 -32.4 -826.65 -93.6 -812.8 -153.45 -792.35 -211.25 -765.7 -266.2 -733.15 -317.5 -695.1 -364.45 -652.15 -406.5 -604.85 -443.05 -553.8 -473.55 -499.7 -497.6 -443.3 -514.95 -390.4 -524.4 -333.8 -531.0 332.15 -531.0 388.8 -524.4 441.7 -514.95 498.05 -497.6 552.15 -473.55 603.2 -443.05" fill="#707070" fill-rule="evenodd" stroke="none"/>
    <path d="M524.55 -428.95 L573.05 -401.35 618.0 -368.25 658.8 -330.2 694.95 -287.6 725.9 -241.15 751.2 -191.45 770.6 -139.1 783.8 -84.85 790.6 -29.45 790.9 26.35 784.75 81.85 772.2 136.25 753.4 188.8 728.65 238.8 698.2 285.65 662.6 328.6 622.2 367.15 577.6 400.7 529.45 428.9 478.3 451.3 424.95 467.6 371.0 477.45 361.65 478.45 314.3 479.0 -316.9 479.0 -360.95 478.5 -374.0 477.2 -426.55 467.6 -479.95 451.3 -531.05 428.9 -579.25 400.7 -623.85 367.15 -664.2 328.6 -699.85 285.65 -730.25 238.8 -755.0 188.8 -773.8 136.25 -786.35 81.85 -792.55 26.35 -792.2 -29.45 -785.4 -84.85 -772.25 -139.1 -752.85 -191.45 -727.5 -241.15 -696.55 -287.6 -660.45 -330.2 -619.65 -368.25 -574.65 -401.35 -526.15 -428.95 -474.8 -450.75 -421.25 -466.5 -375.05 -474.35 -366.25 -476.75 -317.15 -494.65 -217.35 -514.7 216.0 -514.7 315.55 -494.65 363.55 -477.15 373.85 -474.25 419.6 -466.5 473.15 -450.75 524.55 -428.95" fill="#434343" fill-rule="evenodd" stroke="none"/>
    <path d="M392.8 -313.4 L394.35 -319.45 410.25 -314.8 446.15 -299.55 474.6 -283.35 471.2 -278.5 494.05 -262.55 497.45 -267.45 511.5 -257.1 516.9 -252.05 510.15 -245.55 511.8 -243.85 519.7 -251.35 519.7 -251.4 539.5 -271.2 571.25 -239.45 543.9 -212.3 545.55 -210.65 551.8 -216.6 560.6 -206.25 556.1 -202.95 572.75 -180.6 576.7 -183.55 586.85 -168.3 604.6 -133.55 615.3 -104.65 610.65 -103.6 616.8 -76.45 622.8 -77.8 627.35 -59.05 632.1 -20.35 632.3 15.7 628.0 54.45 625.0 67.45 618.95 66.05 612.75 93.2 618.5 94.5 606.1 129.2 588.8 164.2 582.0 174.6 578.35 171.9 561.75 194.2 566.7 197.9 551.35 216.4 545.8 211.1 544.15 212.75 553.6 221.95 553.6 221.85 571.25 239.5 539.5 271.25 518.35 250.1 518.25 250.2 512.05 244.3 510.4 246.0 516.5 251.9 514.4 253.85 505.8 260.35 503.0 256.35 480.15 272.25 483.5 277.1 483.25 277.35 449.6 297.05 413.85 312.7 403.65 315.8 402.25 310.35 375.25 317.3 376.95 323.95 375.85 324.3 336.5 329.95 299.25 330.35 206.3 330.35 165.7 346.65 163.0 346.65 163.0 348.15 165.1 348.15 165.1 381.3 135.1 381.3 135.1 348.15 137.2 348.15 137.2 346.65 129.65 346.65 129.65 348.15 131.75 348.15 131.75 381.3 101.75 381.3 101.75 348.15 103.85 348.15 103.85 346.65 96.3 346.65 96.3 348.15 98.4 348.15 98.4 381.3 68.4 381.3 68.4 348.15 70.55 348.15 70.55 346.65 63.0 346.65 63.0 348.15 65.1 348.15 65.1 381.3 35.1 381.3 35.1 348.15 37.2 348.15 37.2 346.65 29.65 346.65 29.65 348.15 31.75 348.15 31.75 381.3 1.75 381.3 1.75 348.15 3.85 348.15 3.85 346.65 -3.7 346.65 -3.7 348.15 -1.6 348.15 -1.6 381.3 -31.6 381.3 -31.6 348.15 -29.45 348.15 -29.45 346.65 -37.0 346.65 -37.0 348.15 -34.9 348.15 -34.9 381.3 -64.9 381.3 -64.9 348.15 -62.8 348.15 -62.8 346.65 -70.35 346.65 -70.35 348.15 -68.25 348.15 -68.25 381.3 -98.25 381.3 -98.25 348.15 -96.15 348.15 -96.15 346.65 -103.7 346.65 -103.7 348.15 -101.6 348.15 -101.6 381.3 -131.6 381.3 -131.6 348.15 -129.45 348.15 -129.45 346.65 -137.0 346.65 -137.0 348.15 -134.9 348.15 -134.9 381.3 -164.9 381.3 -164.9 348.15 -162.8 348.15 -162.8 346.65 -166.7 346.65 -205.0 330.35 -301.05 330.35 -338.15 329.95 -367.0 325.8 -365.4 319.65 -392.4 312.7 -394.1 319.2 -415.45 312.7 -451.2 297.05 -474.7 283.25 -470.55 277.25 -493.35 261.35 -497.75 267.6 -516.05 253.85 -517.05 252.9 -509.85 245.85 -511.5 244.2 -518.85 251.2 -519.15 250.85 -539.55 271.25 -571.3 239.5 -553.1 221.25 -553.05 221.85 -543.6 212.65 -545.25 211.0 -552.1 217.5 -561.75 205.8 -555.9 201.45 -572.55 179.1 -578.05 183.2 -590.4 164.2 -607.7 129.2 -616.8 103.75 -610.05 102.2 -616.2 75.05 -624.45 76.95 -629.65 54.45 -633.95 15.7 -633.7 -20.35 -628.95 -59.05 -626.9 -67.55 -619.65 -65.9 -613.5 -93.05 -620.35 -94.6 -619.75 -96.95 -606.2 -133.55 -588.5 -168.3 -583.85 -175.25 -578.1 -170.95 -561.45 -193.25 -568.4 -198.45 -566.9 -200.75 -552.75 -217.4 -545.5 -210.55 -543.85 -212.2 -571.3 -239.45 -539.55 -271.2 -519.65 -251.3 -519.65 -251.25 -511.75 -243.75 -510.1 -245.4 -517.7 -252.8 -513.1 -257.1 -506.5 -261.95 -502.35 -256.05 -479.55 -272.0 -484.05 -278.5 -481.65 -280.25 -447.8 -299.55 -411.85 -314.8 -404.7 -316.9 -402.95 -310.2 -376.0 -317.1 -377.95 -324.75 -374.45 -325.75 -335.3 -332.45 -293.95 -333.0 -205.0 -333.0 -166.7 -346.7 -162.8 -346.7 -162.8 -348.35 -164.9 -348.35 -164.9 -381.5 -134.9 -381.5 -134.9 -348.35 -137.0 -348.35 -137.0 -346.7 -129.45 -346.7 -129.45 -348.35 -131.6 -348.35 -131.6 -381.5 -101.6 -381.5 -101.6 -348.35 -103.7 -348.35 -103.7 -346.7 -96.15 -346.7 -96.15 -348.35 -98.25 -348.35 -98.25 -381.5 -68.25 -381.5 -68.25 -348.35 -70.35 -348.35 -70.35 -346.7 -62.8 -346.7 -62.8 -348.35 -64.9 -348.35 -64.9 -381.5 -34.9 -381.5 -34.9 -348.35 -37.0 -348.35 -37.0 -346.7 -29.45 -346.7 -29.45 -348.35 -31.6 -348.35 -31.6 -381.5 -1.6 -381.5 -1.6 -348.35 -3.7 -348.35 -3.7 -346.7 3.85 -346.7 3.85 -348.35 1.75 -348.35 1.75 -381.5 31.75 -381.5 31.75 -348.35 29.65 -348.35 29.65 -346.7 37.2 -346.7 37.2 -348.35 35.1 -348.35 35.1 -381.5 65.1 -381.5 65.1 -348.35 63.0 -348.35 63.0 -346.7 70.55 -346.7 70.55 -348.35 68.4 -348.35 68.4 -381.5 98.4 -381.5 98.4 -348.35 96.3 -348.35 96.3 -346.7 103.85 -346.7 103.85 -348.35 101.75 -348.35 101.75 -381.5 131.75 -381.5 131.75 -348.35 129.65 -348.35 129.65 -346.7 137.2 -346.7 137.2 -348.35 135.1 -348.35 135.1 -381.5 165.1 -381.5 165.1 -348.35 163.0 -348.35 163.0 -346.7 165.7 -346.7 206.3 -333.0 292.85 -333.0 333.65 -332.45 367.45 -326.7 365.8 -320.35 392.8 -313.4" fill="#707070" fill-rule="evenodd" stroke="none"/>
    <path d="M387.65 -287.0 L417.3 -276.0 468.0 -250.0 505.0 -218.35 535.65 -185.7 556.0 -156.7 570.65 -128.7 587.0 -89.0 599.3 -28.0 600.1 9.85 598.55 31.2 593.4 63.65 581.65 104.8 562.8 147.0 539.0 183.4 510.3 217.0 470.75 249.0 436.55 270.1 389.0 288.3 345.0 299.0 305.5 301.0 -291.0 301.0 -330.5 299.5 -389.45 289.4 -425.45 274.0 -458.35 256.3 -492.35 231.65 -515.7 210.3 -535.0 187.0 -554.35 159.65 -571.0 128.3 -583.0 99.0 -593.0 65.65 -600.35 21.0 -599.7 -23.0 -595.0 -53.0 -586.35 -86.35 -575.7 -117.7 -565.0 -139.7 -541.7 -175.7 -519.7 -203.7 -495.7 -227.0 -469.0 -247.0 -446.35 -261.0 -411.0 -279.0 -380.35 -287.7 -337.0 -297.0 -307.0 -302.0 295.0 -302.35 335.0 -298.35 387.65 -287.0" fill="#969696" fill-rule="evenodd" stroke="none"/>
    <path d="M331.0 -296.6 L304.2 -299.5 284.15 -300.0 -289.7 -300.0 -305.2 -299.2 -330.85 -296.0 -366.15 -290.0 -399.5 -280.2 -431.5 -266.65 -461.65 -249.45 -489.65 -228.85 -515.05 -205.15 -537.55 -178.65 -556.8 -149.75 -572.55 -118.8 -584.65 -86.2 -592.85 -52.45 -597.05 -17.95 -597.25 16.75 -593.45 51.3 -585.6 85.15 -573.9 117.85 -558.5 149.0 -539.6 178.15 -517.4 204.85 -492.25 228.85 -464.5 249.75 -434.55 267.3 Q-418.6 274.3 -402.7 281.25 L-369.5 291.4 -329.6 297.7 304.2 297.8 347.6 295.5 370.2 291.4 403.4 281.25 Q419.35 274.3 435.25 267.3 L465.25 249.75 493.0 228.85 518.1 204.85 540.3 178.15 559.2 149.0 574.65 117.85 586.3 85.15 594.15 51.3 598.0 16.75 597.8 -17.95 593.55 -52.45 585.35 -86.2 573.25 -118.8 557.5 -149.75 538.25 -178.65 515.75 -205.15 490.35 -228.85 462.4 -249.45 432.2 -266.65 400.2 -280.2 366.9 -290.0 331.0 -296.6 M304.6 -304.5 L331.65 -301.7 368.0 -294.85 401.9 -284.9 434.4 -271.1 465.1 -253.65 493.55 -232.7 519.4 -208.6 542.25 -181.7 561.85 -152.3 577.85 -120.8 590.15 -87.7 598.45 -53.35 602.75 -18.3 603.0 17.05 599.1 52.15 591.15 86.55 579.25 119.8 563.55 151.45 544.3 181.1 521.75 208.3 496.2 232.65 468.0 253.95 437.5 271.75 405.15 285.95 371.4 296.25 348.2 300.5 304.35 302.8 -330.0 302.7 -370.6 296.3 -404.45 285.95 -436.8 271.75 -467.3 253.95 -495.5 232.65 -521.05 208.3 -543.6 181.1 -562.85 151.45 -578.55 119.8 -590.4 86.55 -598.35 52.15 -602.25 17.05 -602.05 -18.3 -597.75 -53.35 -589.4 -87.7 -577.15 -120.8 -561.1 -152.3 -541.55 -181.7 -518.7 -208.6 -492.85 -232.7 -464.4 -253.65 -433.7 -271.1 -401.2 -284.9 -367.25 -294.85 -330.3 -300.75 -305.85 -304.2 -289.9 -305.0 284.2 -305.0 304.6 -304.5" fill="#828282" fill-rule="evenodd" stroke="none"/>
    <path d="M469.35 -97.0 L478.4 -80.1 485.7 -62.45 491.15 -44.2 494.75 -25.5 496.4 -6.6 496.1 12.35 493.9 31.2 489.8 49.75 483.8 67.85 476.0 85.35 466.45 102.0 455.25 117.75 442.5 132.35 428.3 145.75 412.85 157.75 396.2 168.35 378.6 177.3 360.1 184.65 341.0 190.25 321.4 194.1 301.45 196.15 -302.65 196.15 -322.55 194.1 -342.15 190.25 -361.25 184.65 -379.75 177.3 -397.35 168.35 -414.0 157.75 -429.5 145.75 -443.65 132.35 -456.4 117.75 -467.6 102.0 -477.15 85.35 -484.95 67.85 -490.95 49.75 -495.05 31.2 -497.25 12.35 -497.55 -6.6 -495.9 -25.5 -492.3 -44.2 -486.85 -62.45 -479.55 -80.1 -470.5 -97.0 -459.75 -113.0 -447.45 -127.95 -433.65 -141.7 -418.5 -154.15 -402.2 -165.15 -384.85 -174.55 -366.6 -182.4 -347.65 -188.5 -328.15 -192.85 -308.3 -195.4 -282.6 -196.1 281.45 -196.1 307.15 -195.4 327.0 -192.85 346.45 -188.5 365.45 -182.4 383.65 -174.55 401.05 -165.15 417.35 -154.15 432.5 -141.7 446.25 -127.95 458.6 -113.0 469.35 -97.0" fill="#7f7f7f" fill-rule="evenodd" stroke="none"/>
    <path d="M297.85 15.2 L295.15 24.35 291.2 33.0 286.05 41.05 279.8 48.25 272.6 54.45 264.6 59.65 255.9 63.6 246.75 66.25 237.35 67.65 227.8 67.65 218.35 66.25 209.25 63.6 200.55 59.65 192.55 54.45 185.35 48.25 179.1 41.05 173.95 33.0 170.0 24.35 167.3 15.2 165.95 5.75 165.95 -3.75 167.3 -13.2 170.0 -22.35 173.95 -31.0 179.1 -39.05 185.35 -46.25 192.55 -52.5 200.55 -57.65 209.25 -61.6 218.35 -64.3 227.8 -65.65 237.35 -65.65 246.75 -64.3 255.9 -61.6 264.6 -57.65 272.6 -52.5 279.8 -46.25 286.05 -39.05 291.2 -31.0 295.15 -22.35 297.85 -13.2 299.2 -3.75 299.2 5.75 297.85 15.2" fill="#707070" fill-rule="evenodd" stroke="none"/>
    <path d="M23.75 -61.6 L32.45 -57.65 40.45 -52.5 47.65 -46.25 53.9 -39.05 59.05 -31.0 63.0 -22.35 65.7 -13.2 67.05 -3.75 67.05 5.75 65.7 15.2 63.0 24.35 59.05 33.0 53.9 41.05 47.65 48.25 40.45 54.45 32.45 59.65 23.75 63.6 14.6 66.25 5.2 67.65 -4.35 67.65 -13.8 66.25 -22.95 63.6 -31.6 59.65 -39.6 54.45 -46.85 48.25 -53.05 41.05 -58.2 33.0 -62.2 24.35 -64.85 15.2 -66.2 5.75 -66.2 -3.75 -64.85 -13.2 -62.2 -22.35 -58.2 -31.0 -53.05 -39.05 -46.85 -46.25 -39.6 -52.5 -31.6 -57.65 -22.95 -61.6 -13.8 -64.3 -4.35 -65.65 5.2 -65.65 14.6 -64.3 23.75 -61.6" fill="#707070" fill-rule="evenodd" stroke="none"/>
    <path d="M-168.15 -16.2 L-166.8 -6.75 -166.8 2.75 -168.15 12.2 -170.85 21.35 -174.8 30.0 -179.95 38.05 -186.2 45.25 -193.4 51.45 -201.4 56.65 -210.1 60.6 -219.25 63.25 -228.65 64.65 -238.2 64.65 -247.65 63.25 -256.75 60.6 -265.45 56.65 -273.45 51.45 -280.65 45.25 -286.9 38.05 -292.05 30.0 -296.0 21.35 -298.7 12.2 -300.05 2.75 -300.05 -6.75 -298.7 -16.2 -296.0 -25.35 -292.05 -34.0 -286.9 -42.05 -280.65 -49.25 -273.45 -55.5 -265.45 -60.65 -256.75 -64.6 -247.65 -67.3 -238.2 -68.65 -228.65 -68.65 -219.25 -67.3 -210.1 -64.6 -201.4 -60.65 -193.4 -55.5 -186.2 -49.25 -179.95 -42.05 -174.8 -34.0 -170.85 -25.35 -168.15 -16.2" fill="#707070" fill-rule="evenodd" stroke="none"/>
    <path d="M24.9 138.05 L33.6 142.05 41.6 147.2 48.8 153.4 55.05 160.65 60.2 168.65 64.15 177.3 66.85 186.45 68.2 195.9 68.2 205.45 66.85 214.85 64.15 224.0 60.2 232.7 55.05 240.7 -51.9 240.95 -57.05 232.7 -61.0 224.0 -63.7 214.85 -65.05 205.45 -65.05 195.9 -63.7 186.45 -61.0 177.3 -57.05 168.65 -51.9 160.65 -45.65 153.4 -38.45 147.2 -30.45 142.05 -21.75 138.05 -12.65 135.4 -3.2 134.05 6.35 134.05 15.75 135.4 24.9 138.05" fill="#707070" fill-rule="evenodd" stroke="none"/>
    <path d="M-53.25 -240.65 L-51.0 -242.9 51.3 -242.9 53.7 -240.65 58.85 -232.6 62.85 -223.95 65.5 -214.8 66.85 -205.35 66.85 -195.85 65.5 -186.4 62.85 -177.25 58.85 -168.6 53.7 -160.55 47.5 -153.35 40.25 -147.15 32.25 -141.95 23.6 -138.0 14.45 -135.35 5.0 -133.95 -4.55 -133.95 -13.95 -135.35 -23.1 -138.0 -31.8 -141.95 -39.8 -147.15 -47.0 -153.35 -53.25 -160.55 -58.4 -168.6 -62.35 -177.25 -65.05 -186.4 -66.4 -195.85 -66.4 -205.35 -65.05 -214.8 -62.35 -223.95 -58.4 -232.6 -53.25 -240.65" fill="#707070" fill-rule="evenodd" stroke="none"/>
    <path d="M269.55 -158.8 L271.95 -157.4 274.1 -155.55 275.75 -153.3 276.95 -150.8 277.65 -148.05 277.75 -145.25 277.3 -142.5 276.3 -139.9 274.75 -137.5 272.8 -135.5 270.5 -133.95 267.9 -132.85 265.15 -132.35 262.35 -132.4 259.6 -133.0 257.05 -134.1 254.75 -135.75 252.85 -137.8 251.4 -140.2 250.45 -142.85 250.1 -145.6 250.25 -148.4 251.0 -151.1 252.25 -153.6 254.0 -155.8 256.15 -157.6 258.6 -158.95 261.3 -159.75 264.1 -160.0 266.9 -159.65 269.55 -158.8" fill="#707070" fill-rule="evenodd" stroke="none"/>
    <path d="M-272.05 132.5 L-269.6 131.2 -266.9 130.35 -264.15 130.1 -261.35 130.45 -258.7 131.3 -256.25 132.7 -254.15 134.55 -252.45 136.8 -251.25 139.35 -250.6 142.05 -250.5 144.85 -250.95 147.6 -251.95 150.25 -253.45 152.6 -255.4 154.6 -257.75 156.15 -260.3 157.25 -263.05 157.75 -265.9 157.75 -268.6 157.15 -271.15 156.0 -273.45 154.35 -275.35 152.3 -276.8 149.9 -277.75 147.25 -278.15 144.5 -277.95 141.7 -277.25 139.0 -275.95 136.5 -274.2 134.3 -272.05 132.5" fill="#707070" fill-rule="evenodd" stroke="none"/>
    <path d="M89.2 -232.7 L95.55 -231.95 101.6 -230.0 107.2 -226.8 112.0 -222.6 115.85 -217.45 118.6 -211.7 120.1 -205.5 120.35 -199.1 119.3 -192.75 117.0 -186.8 113.55 -181.4 109.1 -176.85 103.8 -173.25 97.85 -170.8 91.6 -169.6 85.2 -169.65 78.95 -171.05 73.1 -173.65 67.9 -177.35 63.55 -182.05 60.2 -187.5 58.1 -193.55 57.2 -199.9 57.6 -206.25 59.25 -212.45 62.15 -218.15 66.15 -223.15 71.05 -227.25 76.7 -230.3 82.8 -232.15 89.2 -232.7" fill="#707070" fill-rule="evenodd" stroke="none"/>
    <path d="M-77.3 -242.9 L-41.15 -242.9 -36.35 -238.25 -32.5 -233.15 -29.75 -227.35 -28.25 -221.15 -28.0 -214.75 -29.05 -208.45 -31.35 -202.45 -34.8 -197.1 -39.25 -192.5 -44.55 -188.9 -50.45 -186.45 -56.75 -185.25 -63.15 -185.35 -69.4 -186.7 -75.25 -189.3 -80.45 -193.0 -84.8 -197.7 -88.1 -203.2 -90.25 -209.2 -91.15 -215.55 -90.75 -221.95 -89.05 -228.1 -86.15 -233.8 -82.2 -238.8 -77.3 -242.9" fill="#707070" fill-rule="evenodd" stroke="none"/>
    <path d="M-112.0 176.85 L-107.0 172.65 -101.25 169.55 -94.95 167.7 -88.45 167.1 -81.95 167.85 -75.75 169.9 -70.05 173.15 -65.15 177.45 -61.2 182.65 -58.4 188.6 -56.85 194.95 -56.6 201.45 -57.65 207.9 -60.0 214.0 -63.55 219.55 -68.1 224.2 -73.5 227.9 -79.55 230.4 -86.0 231.6 -92.55 231.55 -98.9 230.15 -104.9 227.5 -110.2 223.7 -114.65 218.9 -118.05 213.3 -120.25 207.15 -121.15 200.65 -120.75 194.15 -119.0 187.8 -116.05 182.0 -112.0 176.85" fill="#707070" fill-rule="evenodd" stroke="none"/>
    <path d="M52.35 186.0 L58.9 185.45 65.4 186.2 71.6 188.2 77.3 191.45 82.2 195.8 86.1 201.0 88.95 206.9 90.5 213.25 90.75 219.8 89.65 226.25 85.3 237.3 82.65 240.95 32.65 240.7 27.1 225.45 26.2 219.0 26.6 212.45 28.3 206.15 31.25 200.3 35.35 195.2 40.35 191.0 46.1 187.9 52.35 186.0" fill="#707070" fill-rule="evenodd" stroke="none"/>
    <path d="M281.0 134.95 L278.7 141.05 275.15 146.55 270.6 151.2 265.2 154.85 259.2 157.35 252.8 158.6 246.25 158.5 239.9 157.1 233.95 154.45 228.6 150.65 224.2 145.9 220.8 140.3 218.6 134.15 217.7 127.7 218.15 121.2 219.85 114.9 222.8 109.1 226.85 104.0 231.85 99.8 237.6 96.7 243.85 94.85 250.35 94.25 256.8 95.0 263.0 97.0 268.65 100.25 273.55 104.55 277.5 109.8 280.3 115.65 281.85 122.0 282.1 128.5 281.0 134.95" fill="#707070" fill-rule="evenodd" stroke="none"/>
    <path d="M-411.1 37.8 L-406.2 42.15 -402.3 47.35 -399.5 53.2 -397.95 59.55 -397.7 66.05 -398.75 72.5 -401.1 78.6 -404.6 84.1 -409.15 88.75 -414.55 92.4 -420.6 94.9 -427.0 96.15 -433.5 96.05 -439.9 94.65 -445.85 92.0 -451.15 88.25 -455.6 83.45 -458.95 77.85 -461.15 71.7 -462.05 65.25 -461.65 58.75 -459.95 52.45 -457.0 46.65 -452.95 41.55 -447.95 37.35 -442.2 34.25 -435.95 32.4 -429.45 31.8 -422.95 32.55 -416.75 34.6 -411.1 37.8" fill="#707070" fill-rule="evenodd" stroke="none"/>
    <path d="M-433.85 -95.5 L-427.35 -96.1 -420.85 -95.35 -414.65 -93.3 -409.0 -90.05 -404.1 -85.75 -400.2 -80.55 -397.4 -74.65 -395.8 -68.35 -395.6 -61.8 -396.65 -55.4 -399.0 -49.3 -402.5 -43.8 -407.05 -39.15 -412.45 -35.5 -418.5 -33.0 -424.9 -31.75 -431.4 -31.85 -437.8 -33.2 -443.75 -35.85 -449.05 -39.65 -453.5 -44.45 -456.85 -50.0 -459.05 -56.15 -459.95 -62.6 -459.55 -69.15 -457.85 -75.4 -454.9 -81.25 -450.8 -86.35 -445.8 -90.55 -440.1 -93.65 -433.85 -95.5" fill="#707070" fill-rule="evenodd" stroke="none"/>
    <path d="M-231.0 -152.75 L-226.1 -148.45 -222.15 -143.2 -219.35 -137.35 -217.8 -131.0 -217.55 -124.5 -218.65 -118.05 -220.95 -111.95 -224.5 -106.45 -229.05 -101.8 -234.45 -98.15 -240.45 -95.65 -246.85 -94.4 -253.4 -94.5 -259.75 -95.9 -265.7 -98.55 -271.05 -102.35 -275.45 -107.1 -278.85 -112.7 -281.05 -118.85 -281.95 -125.3 -281.5 -131.8 -279.8 -138.1 -276.85 -143.9 -272.8 -149.0 -267.8 -153.2 -262.05 -156.3 -255.8 -158.15 -249.3 -158.75 -242.85 -158.0 -236.65 -155.95 -231.0 -152.75" fill="#707070" fill-rule="evenodd" stroke="none"/>
    <path d="M446.55 37.8 L451.45 42.15 455.4 47.35 458.2 53.2 459.75 59.55 460.0 66.05 458.95 72.5 456.6 78.6 453.05 84.1 448.5 88.75 443.1 92.4 437.1 94.9 430.7 96.15 424.15 96.05 417.8 94.65 411.85 92.0 406.55 88.25 402.1 83.45 398.7 77.85 396.55 71.7 395.6 65.25 396.05 58.75 397.75 52.45 400.7 46.65 404.75 41.55 409.75 37.35 415.5 34.25 421.75 32.4 428.25 31.8 434.7 32.55 440.9 34.6 446.55 37.8" fill="#707070" fill-rule="evenodd" stroke="none"/>
    <path d="M460.0 -61.15 L458.95 -54.7 456.6 -48.6 453.05 -43.15 448.5 -38.45 443.1 -34.8 437.1 -32.3 430.7 -31.05 424.15 -31.15 417.8 -32.55 411.85 -35.2 406.55 -39.0 402.1 -43.75 398.7 -49.35 396.55 -55.5 395.6 -61.95 396.05 -68.45 397.75 -74.75 400.7 -80.55 404.75 -85.65 409.75 -89.85 415.5 -92.95 421.75 -94.85 428.25 -95.4 434.7 -94.65 440.9 -92.65 446.55 -89.4 451.45 -85.1 455.4 -79.9 458.2 -74.0 459.75 -67.65 460.0 -61.15" fill="#707070" fill-rule="evenodd" stroke="none"/>
    <path d="M-372.85 -30.6 L-367.15 -25.55 -365.25 -23.0 -358.15 -22.35 -346.6 -23.45 -344.15 -23.95 -342.35 -26.25 -336.5 -31.15 -329.8 -34.75 -322.5 -36.9 -319.75 -37.15 -317.05 -43.15 -312.55 -50.85 -307.3 -58.15 -301.35 -64.85 -294.8 -71.0 -287.65 -76.5 -280.05 -81.3 -271.95 -85.3 -263.55 -88.55 -258.2 -90.05 -261.45 -90.75 -267.65 -93.5 -394.3 -47.7 -394.5 -47.1 -398.6 -40.7 -402.5 -36.7 -401.85 -36.9 -394.25 -37.6 -386.7 -36.75 -379.45 -34.35 -372.85 -30.6 M383.2 33.75 L376.25 30.65 370.1 26.25 365.15 20.95 357.4 20.2 345.85 21.3 345.5 21.4 345.05 22.05 339.75 27.5 333.45 31.8 326.4 34.7 318.95 36.15 318.05 36.15 314.95 42.95 310.45 50.8 305.25 58.15 299.3 64.95 292.75 71.2 285.65 76.75 278.05 81.6 270.0 85.65 258.35 89.9 265.2 92.1 267.4 93.4 394.8 47.3 396.5 43.95 401.2 38.0 403.6 35.95 403.0 34.55 398.25 35.45 390.65 35.35 383.2 33.75 M83.15 -242.9 L84.85 -240.2 85.4 -238.9 89.75 -239.25 97.3 -238.4 104.55 -236.05 111.15 -232.25 116.85 -227.25 121.45 -221.15 124.7 -214.3 126.5 -206.9 126.7 -202.25 139.6 -192.4 153.4 -183.1 166.8 -176.2 181.0 -170.95 195.7 -167.45 212.2 -165.6 232.95 -166.95 237.65 -172.9 243.5 -177.8 250.2 -181.4 257.5 -183.6 265.05 -184.25 272.65 -183.4 279.85 -181.05 286.45 -177.25 292.2 -172.25 295.45 -167.9 300.1 -167.7 311.8 -166.2 331.15 -162.85 351.4 -156.8 370.75 -148.3 388.95 -137.55 404.55 -125.55 414.55 -116.8 424.1 -106.6 428.2 -101.6 429.5 -101.7 437.05 -100.85 444.3 -98.45 450.9 -94.7 456.6 -89.65 457.9 -88.0 460.05 -88.85 468.75 -91.3 484.0 -93.65 491.7 -75.1 493.7 -69.35 497.1 -56.0 499.75 -40.55 501.5 -23.55 502.3 -5.75 501.3 25.85 499.4 42.6 496.65 57.8 493.15 70.85 484.0 93.35 475.0 92.35 466.15 90.5 457.55 87.8 457.5 87.75 452.3 93.05 446.0 97.35 438.95 100.25 431.5 101.7 423.9 101.6 416.45 99.95 413.8 98.8 281.4 146.7 279.4 149.9 274.05 155.35 267.75 159.6 260.75 162.5 253.25 163.95 245.65 163.85 238.2 162.25 231.25 159.15 225.05 154.7 224.35 153.95 112.7 153.9 112.7 147.35 114.7 143.75 114.65 110.65 112.65 106.0 112.65 98.9 224.55 98.9 228.85 95.35 231.8 93.75 225.95 93.65 217.0 92.65 208.15 90.8 199.55 88.1 191.2 84.6 183.25 80.3 175.8 75.25 168.85 69.5 162.45 63.1 156.7 56.1 151.7 48.6 147.4 40.65 143.9 32.3 141.25 23.7 139.4 14.85 138.45 5.85 138.7 -7.95 139.9 -16.9 142.0 -25.7 144.9 -34.25 148.6 -42.5 153.1 -50.35 158.35 -57.7 164.25 -64.5 170.8 -70.75 177.95 -76.3 185.55 -81.15 193.6 -85.2 202.0 -88.5 210.7 -90.95 219.6 -92.6 228.6 -93.35 237.6 -93.2 246.6 -92.2 255.45 -90.35 264.05 -87.65 272.35 -84.15 280.3 -79.85 287.8 -74.8 294.75 -69.05 301.15 -62.65 306.85 -55.65 311.9 -48.15 316.15 -40.2 316.75 -38.85 323.65 -38.05 330.85 -35.7 337.45 -31.9 343.2 -26.9 344.05 -25.7 345.85 -25.35 357.4 -24.25 365.45 -25.0 368.0 -28.25 373.85 -33.15 380.55 -36.75 387.8 -38.9 395.4 -39.6 401.35 -38.9 399.0 -41.45 395.05 -47.95 392.5 -55.15 391.45 -62.65 391.8 -67.8 385.0 -76.15 374.1 -85.9 360.95 -96.0 347.9 -103.7 334.1 -109.75 319.6 -114.1 303.25 -116.95 291.85 -118.35 289.3 -118.4 288.75 -117.8 282.45 -113.55 275.4 -110.65 267.95 -109.2 260.3 -109.3 252.9 -110.9 245.95 -114.0 241.3 -117.3 222.0 -116.0 206.6 -115.95 187.1 -118.1 166.5 -123.0 146.65 -130.3 127.85 -140.0 111.6 -151.0 98.0 -161.0 94.45 -164.55 92.6 -164.2 86.9 -164.25 83.65 -157.05 79.15 -149.25 73.9 -141.9 68.0 -135.05 61.45 -128.85 54.3 -123.3 46.7 -118.45 38.65 -114.35 36.1 -113.35 37.5 -107.55 37.8 -99.95 36.55 -92.45 34.45 -86.95 41.05 -84.15 48.95 -79.85 56.45 -74.8 63.4 -69.05 69.8 -62.65 75.55 -55.65 80.55 -48.15 84.85 -40.2 88.35 -31.85 91.0 -23.25 92.85 -14.4 93.8 -5.4 93.55 8.45 92.35 17.4 90.25 26.15 87.35 34.7 83.65 42.95 79.15 50.8 73.9 58.15 68.0 64.95 61.45 71.2 54.3 76.75 46.7 81.6 38.65 85.65 34.4 87.35 35.7 90.05 37.5 97.45 37.8 105.05 36.55 112.55 35.65 114.9 41.05 117.2 48.95 121.5 56.45 126.55 63.4 132.3 69.8 138.7 75.55 145.7 80.55 153.2 84.85 161.15 88.35 169.45 91.0 178.1 92.85 186.95 93.8 195.9 93.55 209.75 92.35 218.7 90.25 227.5 85.35 240.95 -83.9 240.95 -85.8 237.0 -86.4 237.15 -94.0 237.05 -101.45 235.4 -108.4 232.35 -114.6 227.9 -119.75 222.3 -123.7 215.8 -126.25 208.65 -127.3 201.1 -127.25 199.75 -136.4 191.55 -148.65 183.6 -163.25 175.7 -177.3 170.1 -191.9 166.3 -206.9 164.25 -223.5 164.0 -234.15 164.35 -236.3 167.75 -241.6 173.2 -247.9 177.45 -254.95 180.35 -262.4 181.8 -270.0 181.7 -277.45 180.1 -284.4 177.0 -290.6 172.55 -295.75 167.0 -296.6 165.65 -303.7 165.5 -323.15 162.8 -343.6 157.45 -363.25 149.65 -381.85 139.5 -397.8 128.1 -411.15 117.8 -426.75 101.4 -427.05 101.45 -434.7 101.35 -442.1 99.75 -449.05 96.65 -455.25 92.25 -458.9 88.3 -465.8 90.5 -474.65 92.35 -483.65 93.35 -492.75 70.85 -496.3 57.8 -499.05 42.6 -500.9 25.85 -501.9 -5.75 -501.15 -23.55 -499.4 -40.55 -496.75 -56.0 -493.35 -69.35 -483.65 -93.65 -468.35 -91.3 -459.65 -88.85 -457.0 -87.8 -455.0 -90.35 -449.15 -95.25 -442.45 -98.85 -435.2 -101.05 -427.6 -101.7 -420.05 -100.85 -414.15 -98.9 -281.25 -147.0 -276.65 -152.75 -270.8 -157.65 -264.1 -161.25 -256.85 -163.45 -249.25 -164.1 -241.7 -163.25 -234.45 -160.9 -227.85 -157.1 -224.2 -153.9 -112.8 -153.9 -112.8 -146.8 -114.8 -142.15 -114.85 -109.0 -112.85 -105.45 -112.85 -98.9 -224.4 -98.85 -225.6 -97.65 -231.9 -93.4 -232.2 -93.25 -227.85 -93.2 -218.9 -92.25 -210.0 -90.4 -201.4 -87.75 -193.05 -84.25 -185.1 -80.0 -177.6 -75.0 -170.65 -69.35 -164.25 -63.0 -158.5 -56.1 -153.45 -48.7 -149.2 -40.85 -145.7 -32.65 -143.0 -24.1 -141.15 -15.4 -140.2 -6.5 -140.45 7.15 -141.65 16.0 -143.75 24.7 -146.65 33.1 -150.4 41.25 -154.9 49.0 -160.15 56.25 -166.05 63.0 -172.6 69.15 -179.75 74.6 -187.4 79.4 -195.45 83.45 -203.85 86.7 -212.6 89.1 -221.5 90.7 -230.5 91.45 -239.55 91.35 -248.55 90.35 -257.4 88.5 -266.05 85.85 -274.35 82.35 -282.3 78.1 -289.8 73.15 -296.8 67.45 -303.15 61.15 -308.9 54.25 -313.95 46.85 -318.25 39.0 -318.9 37.4 -319.7 37.35 -327.1 35.75 -334.05 32.65 -340.25 28.25 -344.55 23.6 -346.6 23.2 -358.15 22.1 -364.85 22.7 -365.3 23.4 -370.6 28.85 -376.9 33.1 -383.95 36.05 -391.4 37.45 -399.0 37.35 -403.45 36.4 -403.9 37.5 -402.8 38.45 -398.25 44.5 -394.95 51.4 -393.15 58.8 -392.95 63.85 -380.05 78.35 -368.8 87.4 -355.25 97.05 -342.0 104.25 -327.95 109.85 -313.35 113.7 -296.9 115.95 -289.75 115.65 -286.85 113.2 -280.15 109.6 -272.85 107.4 -265.25 106.75 -257.7 107.6 -250.45 109.95 -243.85 113.75 -242.2 115.2 -234.55 114.4 -222.75 114.0 -203.15 114.3 -182.15 117.15 -161.7 122.5 -142.05 130.3 -124.8 139.7 -113.55 146.8 -102.55 155.4 -94.45 162.55 -89.25 162.05 -84.45 162.6 -78.2 151.0 -73.0 143.65 -67.05 136.8 -60.55 130.6 -53.4 125.05 -45.8 120.2 -37.75 116.1 -35.05 115.05 -36.25 111.65 -37.3 104.1 -36.85 96.5 -34.85 89.15 -33.85 87.25 -40.1 84.6 -48.05 80.3 -55.55 75.25 -62.5 69.5 -68.9 63.1 -74.6 56.1 -79.65 48.6 -83.9 40.65 -87.4 32.3 -90.1 23.7 -91.9 14.85 -92.9 5.85 -92.65 -7.95 -91.4 -16.9 -89.35 -25.7 -86.45 -34.25 -82.7 -42.5 -78.2 -50.35 -73.0 -57.7 -67.05 -64.5 -60.55 -70.75 -53.4 -76.3 -45.8 -81.15 -37.75 -85.2 -33.9 -86.7 -36.25 -93.35 -37.3 -100.9 -36.85 -108.5 -35.5 -113.45 -40.1 -115.45 -48.05 -119.75 -55.55 -124.8 -62.5 -130.55 -68.9 -136.95 -74.6 -143.9 -79.65 -151.4 -83.9 -159.35 -87.4 -167.7 -90.1 -176.35 -91.9 -185.15 -92.9 -194.15 -92.65 -208.0 -91.4 -216.95 -89.35 -225.75 -86.45 -234.3 -82.7 -242.9 83.15 -242.9" fill="#ffffff" fill-opacity="0.14901961" fill-rule="evenodd" stroke="none"/>
    <path d="M10.75 150.6 L17.85 152.65 24.55 155.75 30.75 159.7 36.35 164.55 41.2 170.15 45.15 176.35 48.25 183.05 50.3 190.15 51.35 197.45 51.35 204.85 50.3 212.15 48.25 219.25 45.15 225.95 41.2 232.2 36.35 237.75 30.75 242.6 24.55 246.6 17.85 249.65 10.75 251.75 3.45 252.8 -3.95 252.8 -11.25 251.75 -18.35 249.65 -25.05 246.6 -31.3 242.6 -36.85 237.75 -41.7 232.2 -45.7 225.95 -48.75 219.25 -50.85 212.15 -51.9 204.85 -51.9 197.45 -50.85 190.15 -48.75 183.05 -45.7 176.35 -41.7 170.15 -36.85 164.55 -31.3 159.7 -25.05 155.75 -18.35 152.65 -11.25 150.6 -3.95 149.55 3.45 149.55 10.75 150.6" fill="#707070" fill-rule="evenodd" stroke="none"/>
    <path d="M-29.1 -223.15 L-25.5 -227.3 -21.35 -230.9 -16.75 -233.85 -11.75 -236.15 -6.45 -237.7 -1.0 -238.45 4.5 -238.45 9.95 -237.7 15.2 -236.15 20.2 -233.85 24.85 -230.9 29.0 -227.3 32.6 -223.15 35.55 -218.5 37.85 -213.5 39.4 -208.2 40.2 -202.75 40.2 -197.25 39.4 -191.85 37.85 -186.55 35.55 -181.55 32.6 -176.9 29.0 -172.75 24.85 -169.15 20.2 -166.2 15.2 -163.9 9.95 -162.35 4.5 -161.6 -1.0 -161.6 -6.45 -162.35 -11.75 -163.9 -16.75 -166.2 -21.35 -169.15 -25.5 -172.75 -29.1 -176.9 -32.1 -181.55 -34.4 -186.55 -35.95 -191.85 -36.7 -197.25 -36.7 -202.75 -35.95 -208.2 -34.4 -213.5 -32.1 -218.5 -29.1 -223.15" fill="#707070" fill-rule="evenodd" stroke="none"/>
    <path d="M427.55 0.05 L416.35 0.05 416.35 -3.95 427.55 -3.95 427.55 0.05" fill="#707070" fill-rule="evenodd" stroke="none"/>
    <path d="M555.3 0.05 L555.3 -3.95 566.45 -3.95 566.45 0.05 555.3 0.05" fill="#707070" fill-rule="evenodd" stroke="none"/>
    <path d="M530.5 -65.7 L524.95 -56.0 521.5 -58.0 527.05 -67.7 530.5 -65.7" fill="#707070" fill-rule="evenodd" stroke="none"/>
    <path d="M457.85 52.75 L461.35 54.75 455.75 64.45 452.3 62.45 457.85 52.75" fill="#707070" fill-rule="evenodd" stroke="none"/>
    <path d="M455.65 -67.65 L461.25 -57.95 457.75 -55.95 452.2 -65.65 455.65 -67.65" fill="#707070" fill-rule="evenodd" stroke="none"/>
    <path d="M521.55 54.7 L525.05 52.7 530.6 62.4 527.15 64.4 521.55 54.7" fill="#707070" fill-rule="evenodd" stroke="none"/>
    <path d="M-566.0 1.7 L-566.0 -2.3 -554.85 -2.3 -554.85 1.7 -566.0 1.7" fill="#707070" fill-rule="evenodd" stroke="none"/>
    <path d="M-427.1 1.7 L-427.1 -2.3 -415.95 -2.3 -415.95 1.7 -427.1 1.7" fill="#707070" fill-rule="evenodd" stroke="none"/>
    <path d="M-451.85 -64.05 L-457.4 -54.35 -460.9 -56.35 -455.35 -66.05 -451.85 -64.05" fill="#707070" fill-rule="evenodd" stroke="none"/>
    <path d="M-524.5 54.45 L-521.05 56.45 -526.6 66.1 -530.05 64.1 -524.5 54.45" fill="#707070" fill-rule="evenodd" stroke="none"/>
    <path d="M-526.7 -65.95 L-521.15 -56.3 -524.6 -54.3 -530.2 -63.95 -526.7 -65.95" fill="#707070" fill-rule="evenodd" stroke="none"/>
    <path d="M-460.8 56.35 L-457.35 54.4 -451.75 64.05 -455.2 66.05 -460.8 56.35" fill="#707070" fill-rule="evenodd" stroke="none"/>
    <path d="M11.35 -45.85 L12.55 -43.45 13.15 -40.8 13.3 -38.1 12.85 -35.45 11.85 -32.95 10.4 -30.65 8.55 -28.75 6.3 -27.25 3.8 -26.2 1.15 -25.7 -1.55 -25.7 -4.15 -26.3 -6.65 -27.4 -8.85 -28.95 -10.65 -30.95 -12.05 -33.25 -12.95 -35.8 -13.35 -38.45 -13.15 -41.15 -12.45 -43.75 -11.25 -46.15 -9.55 -48.25 -7.5 -50.0 -5.1 -51.25 -2.55 -52.05 0.15 -52.3 2.8 -52.0 5.4 -51.15 7.75 -49.8 9.75 -48.0 11.35 -45.85" fill="#707070" fill-rule="evenodd" stroke="none"/>
    <path d="M13.15 37.0 L13.3 39.7 12.85 42.35 11.85 44.9 10.4 47.15 8.55 49.1 6.3 50.6 3.8 51.65 1.15 52.15 -1.55 52.1 -4.15 51.55 -6.65 50.45 -8.85 48.85 -10.65 46.9 -12.05 44.6 -12.95 42.05 -13.35 39.4 -13.15 36.7 -12.45 34.1 -11.25 31.7 -9.55 29.55 -7.5 27.85 -5.1 26.55 -2.55 25.8 0.15 25.55 2.8 25.85 5.4 26.7 7.75 28.05 9.75 29.8 11.35 31.95 12.55 34.4 13.15 37.0" fill="#707070" fill-rule="evenodd" stroke="none"/>
    <path d="M46.9 -10.95 L48.9 -9.2 50.55 -7.05 51.7 -4.6 52.35 -2.0 52.45 0.7 52.0 3.35 51.05 5.9 49.6 8.15 47.7 10.1 45.45 11.6 42.95 12.65 40.35 13.15 37.65 13.1 35.0 12.55 32.55 11.45 30.35 9.85 28.5 7.9 27.1 5.6 26.2 3.05 25.85 0.4 26.0 -2.3 26.7 -4.9 27.9 -7.3 29.6 -9.45 31.65 -11.15 34.05 -12.45 36.65 -13.2 39.3 -13.45 42.0 -13.15 44.55 -12.3 46.9 -10.95" fill="#707070" fill-rule="evenodd" stroke="none"/>
    <path d="M-27.15 5.9 L-28.6 8.15 -30.45 10.1 -32.7 11.6 -35.2 12.65 -37.85 13.15 -40.55 13.1 -43.15 12.55 -45.65 11.45 -47.85 9.85 -49.65 7.9 -51.05 5.6 -51.95 3.05 -52.35 0.4 -52.15 -2.3 -51.45 -4.9 -50.25 -7.3 -48.55 -9.45 -46.5 -11.15 -44.1 -12.45 -41.55 -13.2 -38.85 -13.45 -36.2 -13.15 -33.6 -12.3 -31.25 -10.95 -29.25 -9.2 -27.65 -7.05 -26.45 -4.6 -25.85 -2.0 -25.7 0.7 -26.15 3.35 -27.15 5.9" fill="#707070" fill-rule="evenodd" stroke="none"/>
  </g>
</svg>
