<?xml version="1.0" encoding="UTF-8" standalone="no"?>
<svg xmlns:ffdec="https://www.free-decompiler.com/flash" xmlns:xlink="http://www.w3.org/1999/xlink" ffdec:objectType="shape" height="1060.0px" width="1666.65px" xmlns="http://www.w3.org/2000/svg">
  <g transform="matrix(1.0, 0.0, 0.0, 1.0, 834.15, 531.0)">
    <path d="M603.2 -443.05 L650.55 -406.5 693.5 -364.45 731.5 -317.5 764.1 -266.2 790.75 -211.25 811.15 -153.45 825.05 -93.6 832.2 -32.4 832.5 29.2 826.05 90.5 812.8 150.55 793.05 208.55 766.95 263.8 734.95 315.5 697.45 362.9 654.95 405.5 608.05 442.55 557.3 473.7 503.5 498.4 447.3 516.45 399.95 525.5 370.65 528.5 330.9 529.0 -333.5 529.0 -370.65 528.55 -402.15 525.4 -448.95 516.45 -505.15 498.4 -558.95 473.7 -609.65 442.55 -656.6 405.5 -699.1 362.9 -736.6 315.5 -768.6 263.8 -794.65 208.55 -814.45 150.55 -827.65 90.5 -834.15 29.2 -833.8 -32.4 -826.65 -93.6 -812.8 -153.45 -792.35 -211.25 -765.7 -266.2 -733.15 -317.5 -695.1 -364.45 -652.15 -406.5 -604.85 -443.05 -553.8 -473.55 -499.7 -497.6 -443.3 -514.95 -390.4 -524.4 -333.8 -531.0 332.15 -531.0 388.8 -524.4 441.7 -514.95 498.05 -497.6 552.15 -473.55 603.2 -443.05" fill="#707070" fill-rule="evenodd" stroke="none"/>
    <path d="M524.55 -428.95 L573.05 -401.35 618.0 -368.25 658.8 -330.2 694.95 -287.6 725.9 -241.15 751.2 -191.45 770.6 -139.1 783.8 -84.85 790.6 -29.45 790.9 26.35 784.75 81.85 772.2 136.25 753.4 188.8 728.65 238.8 698.2 285.65 662.6 328.6 622.2 367.15 577.6 400.7 529.45 428.9 478.3 451.3 424.95 467.6 371.0 477.45 361.65 478.45 314.3 479.0 -316.9 479.0 -360.95 478.5 -374.0 477.2 -426.55 467.6 -479.95 451.3 -531.05 428.9 -579.25 400.7 -623.85 367.15 -664.2 328.6 -699.85 285.65 -730.25 238.8 -755.0 188.8 -773.8 136.25 -786.35 81.85 -792.55 26.35 -792.2 -29.45 -785.4 -84.85 -772.25 -139.1 -752.85 -191.45 -727.5 -241.15 -696.55 -287.6 -660.45 -330.2 -619.65 -368.25 -574.65 -401.35 -526.15 -428.95 -474.8 -450.75 -421.25 -466.5 -375.05 -474.35 -366.25 -476.75 -317.15 -494.65 -217.35 -514.7 216.0 -514.7 315.55 -494.65 363.55 -477.15 373.85 -474.25 419.6 -466.5 473.15 -450.75 524.55 -428.95" fill="#434343" fill-rule="evenodd" stroke="none"/>
    <path d="M392.8 -313.4 L394.35 -319.45 410.25 -314.8 446.15 -299.55 474.6 -283.35 471.2 -278.5 494.05 -262.55 497.45 -267.45 511.5 -257.1 516.9 -252.05 510.15 -245.55 511.8 -243.85 519.7 -251.35 519.7 -251.4 539.5 -271.2 571.25 -239.45 543.9 -212.3 545.55 -210.65 551.8 -216.6 560.6 -206.25 556.1 -202.95 572.75 -180.6 576.7 -183.55 586.85 -168.3 604.6 -133.55 615.3 -104.65 610.65 -103.6 616.8 -76.45 622.8 -77.8 627.35 -59.05 632.1 -20.35 632.3 15.7 628.0 54.45 625.0 67.45 618.95 66.05 612.75 93.2 618.5 94.5 606.1 129.2 588.8 164.2 582.0 174.6 578.35 171.9 561.75 194.2 566.7 197.9 551.35 216.4 545.8 211.1 544.15 212.75 553.6 221.95 553.6 221.85 571.25 239.5 539.5 271.25 518.35 250.1 518.25 250.2 512.05 244.3 510.4 246.0 516.5 251.9 514.4 253.85 505.8 260.35 503.0 256.35 480.15 272.25 483.5 277.1 483.25 277.35 449.6 297.05 413.85 312.7 403.65 315.8 402.25 310.35 375.25 317.3 376.95 323.95 375.85 324.3 336.5 329.95 299.25 330.35 206.3 330.35 165.7 346.65 163.0 346.65 163.0 348.15 165.1 348.15 165.1 381.3 135.1 381.3 135.1 348.15 137.2 348.15 137.2 346.65 129.65 346.65 129.65 348.15 131.75 348.15 131.75 381.3 101.75 381.3 101.75 348.15 103.85 348.15 103.85 346.65 96.3 346.65 96.3 348.15 98.4 348.15 98.4 381.3 68.4 381.3 68.4 348.15 70.55 348.15 70.55 346.65 63.0 346.65 63.0 348.15 65.1 348.15 65.1 381.3 35.1 381.3 35.1 348.15 37.2 348.15 37.2 346.65 29.65 346.65 29.65 348.15 31.75 348.15 31.75 381.3 1.75 381.3 1.75 348.15 3.85 348.15 3.85 346.65 -3.7 346.65 -3.7 348.15 -1.6 348.15 -1.6 381.3 -31.6 381.3 -31.6 348.15 -29.45 348.15 -29.45 346.65 -37.0 346.65 -37.0 348.15 -34.9 348.15 -34.9 381.3 -64.9 381.3 -64.9 348.15 -62.8 348.15 -62.8 346.65 -70.35 346.65 -70.35 348.15 -68.25 348.15 -68.25 381.3 -98.25 381.3 -98.25 348.15 -96.15 348.15 -96.15 346.65 -103.7 346.65 -103.7 348.15 -101.6 348.15 -101.6 381.3 -131.6 381.3 -131.6 348.15 -129.45 348.15 -129.45 346.65 -137.0 346.65 -137.0 348.15 -134.9 348.15 -134.9 381.3 -164.9 381.3 -164.9 348.15 -162.8 348.15 -162.8 346.65 -166.7 346.65 -205.0 330.35 -301.05 330.35 -338.15 329.95 -367.0 325.8 -365.4 319.65 -392.4 312.7 -394.1 319.2 -415.45 312.7 -451.2 297.05 -474.7 283.25 -470.55 277.25 -493.35 261.35 -497.75 267.6 -516.05 253.85 -517.05 252.9 -509.85 245.85 -511.5 244.2 -518.85 251.2 -519.15 250.85 -539.55 271.25 -571.3 239.5 -553.1 221.25 -553.05 221.85 -543.6 212.65 -545.25 211.0 -552.1 217.5 -561.75 205.8 -555.9 201.45 -572.55 179.1 -578.05 183.2 -590.4 164.2 -607.7 129.2 -616.8 103.75 -610.05 102.2 -616.2 75.05 -624.45 76.95 -629.65 54.45 -633.95 15.7 -633.7 -20.35 -628.95 -59.05 -626.9 -67.55 -619.65 -65.9 -613.5 -93.05 -620.35 -94.6 -619.75 -96.95 -606.2 -133.55 -588.5 -168.3 -583.85 -175.25 -578.1 -170.95 -561.45 -193.25 -568.4 -198.45 -566.9 -200.75 -552.75 -217.4 -545.5 -210.55 -543.85 -212.2 -571.3 -239.45 -539.55 -271.2 -519.65 -251.3 -519.65 -251.25 -511.75 -243.75 -510.1 -245.4 -517.7 -252.8 -513.1 -257.1 -506.5 -261.95 -502.35 -256.05 -479.55 -272.0 -484.05 -278.5 -481.65 -280.25 -447.8 -299.55 -411.85 -314.8 -404.7 -316.9 -402.95 -310.2 -376.0 -317.1 -377.95 -324.75 -374.45 -325.75 -335.3 -332.45 -293.95 -333.0 -205.0 -333.0 -166.7 -346.7 -162.8 -346.7 -162.8 -348.35 -164.9 -348.35 -164.9 -381.5 -134.9 -381.5 -134.9 -348.35 -137.0 -348.35 -137.0 -346.7 -129.45 -346.7 -129.45 -348.35 -131.6 -348.35 -131.6 -381.5 -101.6 -381.5 -101.6 -348.35 -103.7 -348.35 -103.7 -346.7 -96.15 -346.7 -96.15 -348.35 -98.25 -348.35 -98.25 -381.5 -68.25 -381.5 -68.25 -348.35 -70.35 -348.35 -70.35 -346.7 -62.8 -346.7 -62.8 -348.35 -64.9 -348.35 -64.9 -381.5 -34.9 -381.5 -34.9 -348.35 -37.0 -348.35 -37.0 -346.7 -29.45 -346.7 -29.45 -348.35 -31.6 -348.35 -31.6 -381.5 -1.6 -381.5 -1.6 -348.35 -3.7 -348.35 -3.7 -346.7 3.85 -346.7 3.85 -348.35 1.75 -348.35 1.75 -381.5 31.75 -381.5 31.75 -348.35 29.65 -348.35 29.65 -346.7 37.2 -346.7 37.2 -348.35 35.1 -348.35 35.1 -381.5 65.1 -381.5 65.1 -348.35 63.0 -348.35 63.0 -346.7 70.55 -346.7 70.55 -348.35 68.4 -348.35 68.4 -381.5 98.4 -381.5 98.4 -348.35 96.3 -348.35 96.3 -346.7 103.85 -346.7 103.85 -348.35 101.75 -348.35 101.75 -381.5 131.75 -381.5 131.75 -348.35 129.65 -348.35 129.65 -346.7 137.2 -346.7 137.2 -348.35 135.1 -348.35 135.1 -381.5 165.1 -381.5 165.1 -348.35 163.0 -348.35 163.0 -346.7 165.7 -346.7 206.3 -333.0 292.85 -333.0 333.65 -332.45 367.45 -326.7 365.8 -320.35 392.8 -313.4" fill="#707070" fill-rule="evenodd" stroke="none"/>
    <path d="M387.65 -287.0 L417.3 -276.0 468.0 -250.0 505.0 -218.35 535.65 -185.7 556.0 -156.7 570.65 -128.7 587.0 -89.0 599.3 -28.0 600.1 9.85 598.55 31.2 593.4 63.65 581.65 104.8 562.8 147.0 539.0 183.4 510.3 217.0 470.75 249.0 436.55 270.1 389.0 288.3 345.0 299.0 305.5 301.0 -291.0 301.0 -330.5 299.5 -389.45 289.4 -425.45 274.0 -458.35 256.3 -492.35 231.65 -515.7 210.3 -535.0 187.0 -554.35 159.65 -571.0 128.3 -583.0 99.0 -593.0 65.65 -600.35 21.0 -599.7 -23.0 -595.0 -53.0 -586.35 -86.35 -575.7 -117.7 -565.0 -139.7 -541.7 -175.7 -519.7 -203.7 -495.7 -227.0 -469.0 -247.0 -446.35 -261.0 -411.0 -279.0 -380.35 -287.7 -337.0 -297.0 -307.0 -302.0 295.0 -302.35 335.0 -298.35 387.65 -287.0" fill="#969696" fill-rule="evenodd" stroke="none"/>
    <path d="M331.0 -296.6 L304.2 -299.5 284.15 -300.0 -289.7 -300.0 -305.2 -299.2 -330.85 -296.0 -366.15 -290.0 -399.5 -280.2 -431.5 -266.65 -461.65 -249.45 -489.65 -228.85 -515.05 -205.15 -537.55 -178.65 -556.8 -149.75 -572.55 -118.8 -584.65 -86.2 -592.85 -52.45 -597.05 -17.95 -597.25 16.75 -593.45 51.3 -585.6 85.15 -573.9 117.85 -558.5 149.0 -539.6 178.15 -517.4 204.85 -492.25 228.85 -464.5 249.75 -434.55 267.3 Q-418.6 274.3 -402.7 281.25 L-369.5 291.4 -329.6 297.7 304.2 297.8 347.6 295.5 370.2 291.4 403.4 281.25 Q419.35 274.3 435.25 267.3 L465.25 249.75 493.0 228.85 518.1 204.85 540.3 178.15 559.2 149.0 574.65 117.85 586.3 85.15 594.15 51.3 598.0 16.75 597.8 -17.95 593.55 -52.45 585.35 -86.2 573.25 -118.8 557.5 -149.75 538.25 -178.65 515.75 -205.15 490.35 -228.85 462.4 -249.45 432.2 -266.65 400.2 -280.2 366.9 -290.0 331.0 -296.6 M304.6 -304.5 L331.65 -301.7 368.0 -294.85 401.9 -284.9 434.4 -271.1 465.1 -253.65 493.55 -232.7 519.4 -208.6 542.25 -181.7 561.85 -152.3 577.85 -120.8 590.15 -87.7 598.45 -53.35 602.75 -18.3 603.0 17.05 599.1 52.15 591.15 86.55 579.25 119.8 563.55 151.45 544.3 181.1 521.75 208.3 496.2 232.65 468.0 253.95 437.5 271.75 405.15 285.95 371.4 296.25 348.2 300.5 304.35 302.8 -330.0 302.7 -370.6 296.3 -404.45 285.95 -436.8 271.75 -467.3 253.95 -495.5 232.65 -521.05 208.3 -543.6 181.1 -562.85 151.45 -578.55 119.8 -590.4 86.55 -598.35 52.15 -602.25 17.05 -602.05 -18.3 -597.75 -53.35 -589.4 -87.7 -577.15 -120.8 -561.1 -152.3 -541.55 -181.7 -518.7 -208.6 -492.85 -232.7 -464.4 -253.65 -433.7 -271.1 -401.2 -284.9 -367.25 -294.85 -330.3 -300.75 -305.85 -304.2 -289.9 -305.0 284.2 -305.0 304.6 -304.5" fill="#828282" fill-rule="evenodd" stroke="none"/>
    <path d="M45.65 -208.7 L70.0 -209.7 81.3 -208.0 100.3 -208.7 106.3 -206.15 116.1 -200.35 123.55 -193.25 126.7 -189.2 126.3 -193.0 129.65 -198.0 131.3 -203.35 132.3 -205.7 137.3 -207.35 139.1 -207.6 144.65 -202.15 146.85 -202.7 152.3 -202.35 155.0 -200.0 159.55 -193.7 167.3 -188.35 169.1 -186.8 168.65 -185.0 167.0 -181.7 164.65 -173.0 159.3 -172.0 154.0 -173.0 150.3 -172.0 144.3 -171.35 141.0 -173.35 140.3 -175.7 138.0 -179.35 131.8 -183.25 137.65 -173.35 140.3 -163.7 139.65 -153.35 140.3 -145.0 141.1 -140.35 143.5 -138.7 143.3 -137.35 143.65 -132.85 141.15 -131.0 138.65 -133.7 136.0 -132.7 134.65 -130.0 139.3 -129.5 140.8 -127.35 140.0 -124.7 135.0 -124.0 131.3 -124.0 128.65 -122.7 112.65 -120.0 94.65 -119.0 69.65 -122.7 54.3 -128.35 29.65 -150.35 11.65 -173.35 2.65 -192.0 3.3 -199.0 7.0 -202.0 20.0 -206.7 45.65 -208.7" fill="#707070" fill-rule="evenodd" stroke="none"/>
    <path d="M-16.8 -217.7 L-12.8 -221.7 -11.0 -222.8 -7.45 -221.9 -6.35 -219.9 -3.7 -217.7 -1.45 -216.8 -1.45 -214.6 1.2 -207.0 -3.25 -201.25 -13.7 -204.8 -14.35 -206.6 -14.8 -209.9 -15.9 -213.45 -17.0 -215.45 -16.8 -217.7" fill="#707070" fill-rule="evenodd" stroke="none"/>
    <path d="M-1.9 -193.7 L0.4 -195.75 1.3 -195.7 1.65 -191.2 1.0 -190.6 -2.15 -192.8 -1.9 -193.7" fill="#707070" fill-rule="evenodd" stroke="none"/>
    <path d="M-6.6 -196.6 L-5.9 -195.0 -4.6 -189.7 -4.6 -187.7 -5.9 -183.25 -8.35 -180.6 -10.15 -180.6 -17.45 -182.35 -19.0 -183.7 -21.7 -187.0 -22.35 -188.8 -22.6 -198.35 -21.45 -200.15 -16.6 -201.9 -14.6 -201.9 -10.8 -200.8 -6.6 -196.6" fill="#707070" fill-rule="evenodd" stroke="none"/>
    <path d="M-3.75 -186.0 L-3.2 -187.0 -2.6 -187.45 -0.85 -187.95 3.15 -186.25 3.4 -185.0 2.15 -184.1 -0.95 -183.85 -2.85 -184.0 -3.45 -184.1 -3.85 -185.45 -3.75 -186.0" fill="#707070" fill-rule="evenodd" stroke="none"/>
    <path d="M-21.85 -183.85 L-21.1 -183.85 -20.75 -182.5 -21.0 -181.6 -21.95 -179.7 -23.2 -178.6 -25.7 -177.45 -26.1 -179.1 -25.85 -181.0 -25.25 -182.2 -26.95 -181.95 -27.25 -183.1 -27.45 -184.95 -27.2 -185.85 -25.6 -185.6 -23.25 -184.95 -22.75 -183.7 -21.85 -183.85" fill="#707070" fill-rule="evenodd" stroke="none"/>
    <path d="M144.0 -161.35 L144.0 -164.0 144.65 -166.7 147.0 -168.35 152.3 -169.35 155.65 -168.35 158.0 -163.0 157.0 -157.35 153.65 -150.35 151.3 -147.35 149.3 -146.7 144.65 -150.0 143.0 -152.7 143.0 -157.35 144.0 -161.35" fill="#707070" fill-rule="evenodd" stroke="none"/>
    <path d="M158.85 -150.45 L159.65 -150.25 163.1 -147.6 161.1 -144.7 160.0 -144.6 156.55 -146.9 156.55 -148.0 158.85 -150.45" fill="#707070" fill-rule="evenodd" stroke="none"/>
    <path d="M174.55 -175.35 L175.65 -175.25 176.85 -174.0 177.4 -172.7 176.2 -171.25 175.2 -169.25 173.4 -168.35 171.75 -166.8 170.55 -166.6 168.2 -168.7 168.4 -170.15 169.3 -172.7 173.2 -174.35 174.55 -175.35" fill="#707070" fill-rule="evenodd" stroke="none"/>
    <path d="M176.0 -159.25 L175.65 -165.8 176.3 -166.8 180.75 -168.35 182.4 -168.0 182.85 -166.9 183.55 -164.45 185.4 -160.0 184.85 -157.15 183.0 -157.35 179.2 -157.25 179.55 -156.25 179.4 -155.25 179.55 -152.45 180.85 -147.7 180.3 -145.9 179.55 -144.25 177.65 -142.6 175.0 -142.35 168.85 -143.35 167.2 -143.0 164.85 -145.45 165.0 -146.9 163.75 -152.9 162.2 -157.45 162.65 -159.8 168.55 -164.6 172.2 -164.25 172.85 -163.6 173.4 -162.25 173.65 -160.9 174.65 -160.0 Q175.35 -159.6 176.0 -159.25" fill="#707070" fill-rule="evenodd" stroke="none"/>
    <path d="M188.4 -149.9 L189.2 -149.25 189.3 -145.6 188.1 -145.0 184.3 -144.15 183.2 -144.25 183.3 -148.9 184.1 -149.35 188.4 -149.9" fill="#707070" fill-rule="evenodd" stroke="none"/>
    <path d="M224.3 -210.8 L226.65 -211.0 230.4 -206.7 231.2 -205.35 231.85 -200.7 230.3 -195.25 228.3 -192.35 225.55 -189.35 223.1 -187.9 219.65 -187.0 216.85 -186.9 215.4 -189.15 212.65 -189.7 211.2 -193.6 211.1 -199.6 212.0 -203.7 215.75 -206.6 224.3 -210.8" fill="#707070" fill-rule="evenodd" stroke="none"/>
    <path d="M205.55 -192.35 L206.4 -192.25 207.55 -191.45 207.3 -190.15 204.55 -189.35 204.0 -190.35 204.55 -191.9 205.55 -192.35" fill="#707070" fill-rule="evenodd" stroke="none"/>
    <path d="M207.0 -205.8 L206.4 -203.25 204.4 -202.35 201.55 -203.0 201.85 -205.25 202.65 -206.35 205.3 -207.45 208.2 -208.15 207.0 -205.8" fill="#707070" fill-rule="evenodd" stroke="none"/>
    <path d="M237.65 -195.6 L240.4 -196.25 240.55 -194.45 239.1 -192.35 237.65 -190.7 236.4 -190.0 234.55 -190.6 235.85 -193.9 237.65 -195.6" fill="#707070" fill-rule="evenodd" stroke="none"/>
    <path d="M220.85 -184.8 L222.1 -185.25 223.0 -184.6 222.3 -181.6 221.75 -180.6 220.4 -179.35 219.3 -178.9 217.65 -180.15 218.1 -181.6 219.65 -184.0 220.85 -184.8" fill="#707070" fill-rule="evenodd" stroke="none"/>
    <path d="M236.3 -212.25 L247.0 -211.25 250.2 -209.6 247.0 -200.8 245.75 -198.15 244.55 -197.9 233.85 -201.6 233.4 -202.45 234.55 -208.9 236.3 -212.25" fill="#707070" fill-rule="evenodd" stroke="none"/>
    <path d="M469.2 -137.7 L470.65 -138.35 472.2 -137.45 472.55 -136.25 472.4 -133.25 469.85 -124.6 468.55 -122.15 470.1 -119.0 470.55 -116.8 472.55 -114.6 475.85 -111.7 478.75 -111.7 483.1 -111.15 484.1 -109.6 483.1 -109.0 480.1 -109.25 466.3 -99.25 462.55 -99.0 456.75 -102.6 454.75 -108.6 455.0 -111.45 453.65 -113.45 450.65 -115.8 450.75 -116.9 454.65 -115.8 457.0 -115.45 465.85 -123.25 469.2 -137.7" fill="#707070" fill-rule="evenodd" stroke="none"/>
    <path d="M468.55 -78.15 L471.3 -77.7 472.0 -72.7 470.5 -71.2 465.2 -70.8 462.3 -70.15 460.75 -67.9 458.3 -65.9 457.4 -65.7 443.85 -67.7 441.85 -68.6 439.85 -72.35 436.3 -73.9 433.65 -75.7 433.3 -78.35 435.0 -81.2 437.65 -80.8 439.4 -79.7 441.4 -80.35 442.75 -83.25 444.3 -85.45 445.65 -84.8 452.3 -82.8 457.65 -83.0 460.1 -83.7 462.3 -79.9 464.3 -78.35 468.55 -78.15" fill="#707070" fill-rule="evenodd" stroke="none"/>
    <path d="M273.15 -292.5 L271.8 -292.0 268.8 -296.2 270.0 -297.35 272.3 -296.5 274.65 -294.85 273.15 -292.5" fill="#707070" fill-rule="evenodd" stroke="none"/>
    <path d="M282.0 -292.85 L277.65 -295.5 277.5 -297.0 282.0 -297.85 285.65 -297.0 286.8 -295.85 284.8 -293.5 282.0 -292.85" fill="#707070" fill-rule="evenodd" stroke="none"/>
    <path d="M296.65 -296.2 L299.15 -295.85 300.0 -293.5 297.3 -288.0 295.5 -286.5 285.3 -286.35 285.8 -293.0 287.8 -294.85 290.5 -296.0 296.65 -296.2" fill="#707070" fill-rule="evenodd" stroke="none"/>
    <path d="M314.0 -283.85 L312.15 -282.7 308.3 -277.85 306.5 -279.85 304.8 -277.2 302.15 -277.0 299.3 -278.5 298.3 -280.85 299.65 -281.5 299.5 -284.85 299.15 -285.85 303.0 -292.85 305.65 -295.35 307.3 -296.5 308.65 -297.0 314.15 -292.5 316.8 -288.35 314.0 -283.85" fill="#707070" fill-rule="evenodd" stroke="none"/>
    <path d="M294.3 -279.35 L293.0 -280.2 291.3 -283.5 292.3 -284.7 296.5 -280.85 295.15 -279.5 294.3 -279.35" fill="#707070" fill-rule="evenodd" stroke="none"/>
    <path d="M283.8 -284.85 L288.5 -281.0 290.15 -279.35 288.8 -277.0 287.3 -276.7 283.65 -277.95 283.0 -278.95 282.0 -284.2 283.8 -284.85" fill="#707070" fill-rule="evenodd" stroke="none"/>
    <path d="M282.85 -292.2 L283.2 -290.85 282.65 -288.25 281.75 -287.8 281.35 -288.25 280.8 -289.7 274.8 -288.75 279.1 -284.65 277.75 -283.4 273.1 -287.25 271.6 -288.15 270.8 -287.8 270.05 -287.95 270.15 -288.7 270.4 -289.35 269.4 -290.45 269.7 -291.1 270.75 -291.4 272.0 -290.5 280.25 -291.9 281.4 -290.2 282.15 -292.15 282.85 -292.2" fill="#707070" fill-rule="evenodd" stroke="none"/>
    <path d="M300.0 -268.1 L298.5 -267.2 291.75 -275.6 293.05 -276.6 300.0 -268.1" fill="#707070" fill-rule="evenodd" stroke="none"/>
    <path d="M302.55 -274.0 L302.9 -275.5 313.05 -273.5 312.75 -271.7 302.55 -274.0" fill="#707070" fill-rule="evenodd" stroke="none"/>
    <path d="M318.8 -278.75 L323.0 -278.25 323.9 -277.85 323.0 -276.5 320.8 -274.25 319.75 -274.2 318.55 -276.45 318.15 -277.7 318.8 -278.75" fill="#707070" fill-rule="evenodd" stroke="none"/>
    <path d="M324.15 -275.95 L325.25 -276.25 327.15 -275.75 326.15 -274.5 324.9 -274.25 324.05 -274.75 324.0 -275.7 324.15 -275.95" fill="#707070" fill-rule="evenodd" stroke="none"/>
    <path d="M314.4 -276.75 L315.25 -277.25 317.0 -276.25 318.0 -274.85 318.4 -274.0 318.55 -271.75 318.25 -270.95 317.3 -270.75 316.0 -272.35 314.05 -276.0 314.4 -276.75" fill="#707070" fill-rule="evenodd" stroke="none"/>
    <path d="M430.0 -259.7 L436.0 -258.6 447.75 -254.15 450.0 -250.35 450.0 -248.6 438.2 -239.45 434.85 -239.7 417.75 -247.0 416.85 -248.6 417.3 -251.45 424.0 -257.25 430.0 -259.7" fill="#707070" fill-rule="evenodd" stroke="none"/>
    <path d="M447.3 -240.0 L447.8 -245.5 457.3 -248.35 461.3 -248.7 466.65 -246.7 469.65 -240.7 472.8 -237.35 473.8 -235.5 469.15 -229.5 463.15 -227.5 456.5 -228.85 453.5 -230.5 446.8 -238.5 447.3 -240.0" fill="#707070" fill-rule="evenodd" stroke="none"/>
    <path d="M471.65 -213.7 L472.5 -216.0 477.5 -214.35 473.0 -219.35 474.5 -220.2 481.8 -212.7 484.65 -215.1 482.5 -217.5 481.65 -219.85 481.3 -221.5 477.3 -224.35 485.3 -231.35 489.15 -230.2 495.65 -223.35 496.8 -219.85 494.15 -217.2 486.8 -214.7 482.65 -212.2 482.7 -211.65 484.5 -211.0 492.3 -214.5 493.5 -212.5 484.0 -208.35 481.5 -211.35 471.65 -213.7" fill="#707070" fill-rule="evenodd" stroke="none"/>
    <path d="M496.15 -214.2 L493.8 -215.0 496.5 -216.7 499.0 -217.2 501.5 -215.7 500.0 -214.2 496.15 -214.2" fill="#707070" fill-rule="evenodd" stroke="none"/>
    <path d="M472.15 -228.85 L473.8 -229.0 475.0 -228.35 475.8 -226.5 475.5 -225.2 474.5 -225.35 472.3 -226.7 472.15 -228.85" fill="#707070" fill-rule="evenodd" stroke="none"/>
    <path d="M466.65 -224.85 L468.15 -227.5 469.8 -224.7 467.0 -223.5 466.65 -224.85" fill="#707070" fill-rule="evenodd" stroke="none"/>
    <path d="M381.65 -268.35 L378.5 -269.2 391.2 -260.4 391.2 -261.45 390.1 -271.6 381.65 -268.35 M370.3 -284.6 L371.65 -285.7 377.85 -286.6 381.2 -286.35 387.0 -281.9 390.55 -277.7 392.05 -275.35 393.4 -276.6 397.2 -276.35 400.8 -272.8 402.3 -275.7 408.3 -278.15 410.75 -276.6 412.55 -274.8 415.2 -274.35 421.65 -271.7 422.75 -269.45 424.1 -263.45 423.85 -260.8 422.1 -259.45 419.65 -258.6 417.65 -256.6 415.0 -253.25 412.1 -251.45 408.55 -252.8 403.85 -255.25 397.7 -256.7 Q414.0 -247.55 430.25 -238.45 L459.8 -226.2 472.5 -219.1 471.7 -217.65 Q465.4 -221.15 459.05 -224.7 L429.45 -236.95 390.25 -259.0 370.8 -272.5 353.85 -278.9 337.55 -282.85 334.75 -282.85 334.65 -281.85 336.0 -280.35 336.5 -279.1 334.75 -277.1 334.5 -275.5 333.9 -274.45 333.0 -273.85 331.5 -273.45 330.3 -274.0 329.0 -274.95 328.55 -276.2 329.05 -278.95 329.4 -279.75 332.8 -282.1 333.5 -282.85 327.8 -282.85 328.05 -281.45 316.25 -279.25 316.8 -282.1 322.15 -282.7 316.15 -284.75 316.8 -286.6 323.8 -284.2 324.55 -284.0 324.55 -284.5 337.75 -284.5 354.4 -280.45 371.6 -274.0 376.25 -270.75 372.75 -278.15 369.85 -282.15 370.3 -284.6" fill="#707070" fill-rule="evenodd" stroke="none"/>
    <path d="M-44.25 -208.25 L-39.6 -214.5 -26.8 -222.4 -26.7 -222.45 -16.25 -226.9 -7.2 -231.3 -0.35 -235.3 0.5 -233.85 -6.45 -229.85 -15.6 -225.35 -26.0 -220.95 Q-32.2 -217.1 -38.45 -213.3 L-42.65 -207.6 -44.65 -192.8 -43.55 -185.15 -45.2 -184.9 -46.3 -192.8 -44.25 -208.25" fill="#707070" fill-rule="evenodd" stroke="none"/>
    <path d="M-43.15 -186.0 L-42.95 -191.15 -42.9 -191.6 -41.9 -192.7 -40.9 -192.9 -36.15 -189.15 -36.45 -186.9 -37.35 -186.25 -43.15 -186.0" fill="#707070" fill-rule="evenodd" stroke="none"/>
    <path d="M-23.9 -197.35 L-25.15 -196.6 -31.8 -190.6 -33.0 -190.35 -35.0 -193.35 -41.7 -200.7 -41.45 -202.25 -31.8 -207.8 -30.25 -207.25 -25.35 -198.7 -23.9 -197.35" fill="#707070" fill-rule="evenodd" stroke="none"/>
    <path d="M-19.7 -216.35 L-24.35 -216.25 -26.6 -218.35 -23.8 -219.8 -21.15 -220.15 -18.9 -219.35 -18.8 -217.6 -19.7 -216.35" fill="#707070" fill-rule="evenodd" stroke="none"/>
    <path d="M-28.0 -172.25 L-24.45 -171.45 -24.0 -170.6 -25.6 -169.7 -30.6 -168.0 -31.6 -169.9 -30.9 -171.35 -29.6 -172.35 -28.0 -172.25" fill="#707070" fill-rule="evenodd" stroke="none"/>
    <path d="M-37.8 -172.25 L-37.0 -171.8 -36.8 -166.9 -38.0 -166.15 -41.0 -166.15 -42.0 -166.6 -42.15 -172.15 -41.9 -173.0 -37.8 -172.25" fill="#707070" fill-rule="evenodd" stroke="none"/>
    <path d="M123.65 -197.6 L122.85 -197.9 122.1 -203.15 125.65 -203.25 126.55 -202.7 126.4 -198.15 123.65 -197.6" fill="#707070" fill-rule="evenodd" stroke="none"/>
    <path d="M159.85 -200.15 L163.65 -199.0 165.2 -195.35 165.1 -194.25 159.65 -198.15 159.85 -200.15" fill="#707070" fill-rule="evenodd" stroke="none"/>
    <path d="M126.8 -211.2 L124.3 -211.0 123.8 -211.85 125.3 -214.6 128.15 -216.1 129.15 -216.45 130.05 -215.85 130.15 -214.85 126.8 -211.2" fill="#707070" fill-rule="evenodd" stroke="none"/>
    <path d="M92.3 -213.85 L91.3 -215.6 91.75 -216.35 94.8 -216.7 96.05 -217.1 97.75 -215.75 99.4 -214.75 99.25 -213.7 96.75 -213.25 94.25 -213.35 92.3 -213.85" fill="#707070" fill-rule="evenodd" stroke="none"/>
    <path d="M82.8 -223.25 L82.25 -220.5 82.8 -219.35 82.3 -218.1 79.15 -215.35 78.05 -215.5 77.3 -218.45 78.0 -220.25 79.9 -221.85 82.8 -223.25" fill="#707070" fill-rule="evenodd" stroke="none"/>
    <path d="M71.75 -222.95 L72.4 -223.5 73.15 -222.95 73.8 -221.0 73.65 -219.25 72.05 -220.25 71.65 -222.25 71.75 -222.95" fill="#707070" fill-rule="evenodd" stroke="none"/>
    <path d="M63.25 -220.2 L64.15 -220.4 64.65 -219.35 63.0 -217.75 62.35 -218.5 62.3 -219.25 63.25 -220.2" fill="#707070" fill-rule="evenodd" stroke="none"/>
    <path d="M23.4 -299.6 L25.0 -299.1 26.25 -297.95 26.4 -295.0 24.25 -293.95 22.25 -293.85 17.8 -294.25 18.4 -296.95 19.3 -297.95 21.4 -298.1 23.4 -299.6" fill="#707070" fill-rule="evenodd" stroke="none"/>
    <path d="M41.15 -287.85 L39.75 -288.6 41.05 -290.0 42.55 -289.75 42.75 -288.45 41.15 -287.85" fill="#707070" fill-rule="evenodd" stroke="none"/>
    <path d="M44.95 -285.6 L45.85 -286.95 51.35 -283.35 51.9 -287.0 53.9 -287.75 56.05 -287.45 59.8 -285.25 60.65 -284.5 59.15 -282.75 57.3 -282.1 54.8 -283.2 52.6 -282.55 61.3 -277.0 68.85 -271.5 76.2 -269.5 75.75 -267.9 68.5 -269.85 60.7 -275.45 60.9 -275.35 44.95 -285.6" fill="#707070" fill-rule="evenodd" stroke="none"/>
    <path d="M37.25 -293.95 L40.75 -292.1 37.3 -287.85 36.0 -285.25 33.55 -284.6 34.9 -283.8 45.8 -280.5 45.3 -278.9 34.65 -282.2 14.6 -293.85 14.75 -293.8 7.5 -297.7 8.3 -299.15 27.3 -288.3 25.3 -291.35 25.15 -292.45 28.65 -296.85 31.0 -298.25 32.65 -298.35 37.25 -293.95" fill="#707070" fill-rule="evenodd" stroke="none"/>
    <path d="M53.55 -122.1 L54.3 -121.1 53.25 -119.1 52.0 -119.1 48.9 -121.25 49.75 -121.85 53.55 -122.1" fill="#707070" fill-rule="evenodd" stroke="none"/>
    <path d="M50.4 -127.35 L48.9 -126.85 46.65 -128.6 46.75 -129.25 48.3 -130.6 49.0 -130.7 50.3 -128.75 50.4 -127.35" fill="#707070" fill-rule="evenodd" stroke="none"/>
    <path d="M43.75 -124.75 L45.3 -124.5 46.55 -122.0 46.0 -120.95 41.75 -118.95 41.0 -119.1 39.8 -123.7 39.9 -124.45 37.8 -124.45 36.9 -125.5 34.55 -131.45 36.4 -133.75 38.65 -133.85 43.5 -129.5 44.25 -126.7 43.75 -124.75" fill="#707070" fill-rule="evenodd" stroke="none"/>
    <path d="M41.15 -113.25 L41.4 -109.35 42.55 -107.25 42.05 -106.25 40.4 -105.25 39.75 -104.7 38.05 -105.0 36.8 -105.95 36.05 -107.2 35.3 -107.5 34.5 -108.45 34.3 -109.6 34.55 -110.5 33.9 -111.7 33.55 -112.85 34.55 -114.35 36.5 -115.6 40.5 -114.45 41.15 -113.25" fill="#707070" fill-rule="evenodd" stroke="none"/>
    <path d="M-194.8 -281.7 L-197.45 -283.9 -186.35 -289.9 -176.8 -291.45 -181.7 -292.6 -191.0 -292.35 -199.45 -292.8 -200.35 -295.25 -196.15 -295.9 -179.45 -294.6 -167.25 -291.7 -162.6 -292.6 -150.8 -297.25 -139.25 -298.15 -128.8 -294.15 -119.7 -285.45 -115.9 -277.45 -117.25 -277.45 -120.6 -282.6 -129.7 -291.7 -140.35 -294.8 -151.0 -293.7 -161.25 -289.45 -153.45 -280.6 -149.45 -272.15 -146.35 -261.9 -145.7 -255.9 -156.8 -280.35 -162.35 -285.9 -165.45 -286.35 -162.6 -277.0 -161.45 -258.8 -161.7 -251.9 -163.25 -248.35 -165.0 -279.45 -169.0 -285.9 -172.6 -288.6 -181.0 -288.35 -179.7 -286.8 -178.8 -285.25 -180.8 -283.45 -181.25 -280.15 -183.0 -276.6 -186.35 -274.8 -188.35 -275.7 -187.45 -278.35 -185.7 -280.8 -186.6 -283.7 -187.7 -285.25 -194.8 -281.7" fill="#707070" fill-rule="evenodd" stroke="none"/>
    <path d="M-271.9 -294.8 L-271.7 -297.9 -266.6 -295.25 -265.45 -293.7 -257.45 -289.9 -256.6 -287.7 -256.8 -284.6 -267.9 -282.15 -264.8 -275.0 -266.35 -275.7 -269.9 -280.35 -276.6 -286.6 -281.0 -288.6 -285.9 -289.0 -287.9 -288.15 -287.0 -280.35 -289.9 -278.6 -290.15 -280.8 -289.45 -284.6 -291.25 -289.25 -295.45 -293.9 -293.7 -293.0 -283.25 -293.45 -275.45 -289.9 -273.0 -289.9 -271.9 -294.8" fill="#707070" fill-rule="evenodd" stroke="none"/>
    <path d="M-263.85 -262.15 L-262.8 -263.0 -261.25 -255.7 -260.8 -249.45 -262.6 -243.25 -263.7 -244.8 -263.0 -250.6 -263.85 -262.15" fill="#707070" fill-rule="evenodd" stroke="none"/>
    <path d="M-292.6 -250.8 L-290.15 -254.6 -290.8 -247.9 -290.15 -244.15 -291.7 -243.9 -293.45 -245.0 -293.7 -246.8 -292.6 -250.8" fill="#707070" fill-rule="evenodd" stroke="none"/>
    <path d="M-305.7 -260.6 L-305.45 -258.35 -305.25 -250.6 -303.9 -247.25 -304.35 -244.35 -306.8 -242.15 -309.0 -242.8 -310.15 -244.8 -312.35 -244.6 -313.9 -245.0 -313.7 -247.45 -310.15 -248.8 -307.0 -248.8 -306.6 -250.8 -306.6 -255.45 -306.8 -257.25 -305.7 -260.6" fill="#707070" fill-rule="evenodd" stroke="none"/>
    <path d="M-305.0 -285.9 L-306.6 -297.45 -305.45 -298.6 -303.0 -296.8 -302.6 -289.45 -301.9 -285.7 -303.25 -282.6 -304.6 -282.15 -305.45 -283.7 -305.0 -285.9" fill="#707070" fill-rule="evenodd" stroke="none"/>
    <path d="M-317.0 -294.35 L-318.8 -289.45 -319.25 -287.25 -321.0 -287.45 -319.0 -296.35 -317.25 -295.9 -317.0 -294.35" fill="#707070" fill-rule="evenodd" stroke="none"/>
    <path d="M-328.6 -289.9 L-326.8 -288.8 -325.45 -288.8 -323.45 -287.7 -323.7 -286.15 -325.9 -283.45 -328.15 -283.9 -328.8 -286.15 -329.9 -287.9 -334.35 -289.7 -332.8 -290.6 -328.6 -289.9" fill="#707070" fill-rule="evenodd" stroke="none"/>
    <path d="M-544.35 -158.6 L-542.8 -160.6 -543.0 -162.35 -543.9 -164.8 -543.7 -166.8 -536.8 -175.9 -531.45 -176.8 -526.15 -174.35 -525.45 -169.7 -525.25 -164.35 -528.15 -162.35 -530.8 -158.6 -532.15 -155.45 -534.15 -153.7 -535.9 -153.45 -541.7 -153.9 -544.6 -156.15 -544.35 -158.6" fill="#707070" fill-rule="evenodd" stroke="none"/>
    <path d="M-492.6 -209.45 L-492.15 -212.35 -496.35 -215.0 -495.0 -215.7 -493.25 -214.15 -489.45 -212.8 -485.25 -206.8 -484.15 -204.15 -486.15 -197.9 -487.7 -206.8 -490.35 -205.45 -492.35 -203.45 -496.15 -193.0 -497.45 -186.15 -497.45 -182.15 -504.8 -178.6 -508.15 -176.35 -513.7 -170.15 -520.6 -164.15 -513.45 -174.8 -504.15 -181.25 -501.9 -183.45 -501.25 -185.7 -505.25 -187.7 -507.25 -187.45 -509.7 -185.0 -514.35 -183.0 -525.35 -181.0 -522.6 -181.7 -515.25 -186.15 -513.7 -187.25 -511.9 -189.45 -511.7 -195.0 -511.0 -193.45 -509.9 -189.7 -508.6 -188.8 -503.9 -191.7 -499.25 -193.25 -494.6 -203.25 -492.6 -209.45" fill="#707070" fill-rule="evenodd" stroke="none"/>
    <path d="M-364.15 -204.8 L-357.45 -205.7 -349.25 -203.9 -345.45 -201.45 -344.15 -197.9 -347.25 -195.7 -349.9 -193.25 -350.6 -189.7 -352.35 -186.6 -357.25 -182.35 -361.0 -179.7 -365.25 -179.0 -368.6 -181.0 -369.45 -181.25 -371.45 -187.7 -379.0 -193.0 -383.25 -195.0 -382.8 -196.6 -375.7 -202.35 -364.15 -204.8" fill="#707070" fill-rule="evenodd" stroke="none"/>
    <path d="M-296.8 -171.25 L-292.8 -168.8 -285.9 -163.45 -284.15 -159.0 -283.45 -155.9 -282.35 -154.35 -280.35 -152.6 -280.8 -148.8 -280.35 -140.6 -283.0 -136.6 -286.6 -134.35 -294.6 -126.6 -297.25 -129.25 -298.35 -132.35 -301.0 -133.0 -305.25 -133.0 -307.7 -135.0 -309.9 -137.9 -314.35 -139.0 -319.25 -141.0 -321.0 -143.7 -318.8 -145.0 -313.9 -146.6 -312.35 -148.8 -319.45 -153.7 -319.7 -156.35 -318.35 -158.35 -307.9 -165.25 -304.6 -166.8 -302.35 -166.15 -299.45 -166.8 -298.6 -168.8 -296.8 -171.25" fill="#707070" fill-rule="evenodd" stroke="none"/>
    <path d="M-291.9 -118.15 L-300.8 -118.35 -302.8 -119.9 -306.15 -119.7 -305.25 -121.0 -304.15 -121.0 -295.9 -120.15 -291.0 -121.25 -287.45 -123.9 -284.6 -125.0 -284.15 -121.7 -287.0 -120.15 -291.9 -118.15" fill="#707070" fill-rule="evenodd" stroke="none"/>
    <path d="M-300.6 -187.7 L-309.7 -185.9 -314.35 -183.7 -318.6 -181.0 -327.45 -171.9 -326.6 -175.45 -321.7 -181.7 -316.35 -186.8 -301.45 -190.6 -292.8 -190.8 -285.45 -189.7 -286.35 -188.15 -291.9 -188.6 -300.6 -187.7" fill="#707070" fill-rule="evenodd" stroke="none"/>
    <path d="M-346.35 -140.15 L-344.35 -143.25 -342.35 -142.35 -340.6 -139.9 -339.9 -136.6 -340.15 -131.7 -338.6 -126.8 -342.35 -125.45 -345.25 -126.8 -346.15 -129.9 -348.6 -132.6 -349.7 -135.25 -350.15 -139.25 -348.8 -140.15 -346.35 -140.15" fill="#707070" fill-rule="evenodd" stroke="none"/>
    <path d="M-357.25 -135.25 L-354.15 -135.25 -353.45 -132.35 -350.6 -130.15 -349.9 -127.7 -351.7 -124.15 -353.0 -120.15 -358.8 -117.0 -363.25 -118.35 -364.15 -113.7 -362.15 -108.6 -363.45 -103.9 -365.9 -101.25 -369.0 -103.0 -370.35 -105.0 -370.35 -109.45 -368.6 -113.45 -370.6 -114.6 -374.35 -115.45 -375.45 -123.7 -372.6 -124.15 -369.25 -125.7 -366.6 -125.0 -364.35 -122.6 -362.15 -126.15 -361.0 -129.0 -358.6 -130.8 -357.25 -135.25" fill="#707070" fill-rule="evenodd" stroke="none"/>
    <path d="M-391.45 -112.15 L-383.0 -118.6 -378.15 -113.45 -376.8 -112.6 -377.25 -109.45 -375.0 -107.25 -373.7 -101.9 -373.0 -96.35 -373.25 -94.6 -376.15 -93.7 -379.9 -96.15 -379.9 -101.7 -381.25 -104.35 -383.7 -105.0 -385.2 -105.2 -387.05 -105.2 -391.45 -112.15" fill="#707070" fill-rule="evenodd" stroke="none"/>
    <path d="M-382.35 -94.15 L-382.6 -92.8 -384.8 -93.45 -387.45 -97.25 -389.45 -99.45 -388.8 -100.6 -385.7 -100.8 -382.35 -94.15" fill="#707070" fill-rule="evenodd" stroke="none"/>
    <path d="M-392.35 -108.7 L-390.35 -103.7 -390.2 -102.0 -392.0 -100.0 -392.2 -98.7 -391.5 -96.0 -390.0 -94.0 -390.0 -92.0 -390.5 -86.5 -393.0 -83.0 -395.7 -82.35 -397.5 -83.85 -396.35 -91.85 -397.35 -94.35 -396.85 -95.0 -396.5 -96.2 -397.5 -98.7 -399.7 -99.2 -401.35 -99.85 -401.2 -101.7 -402.35 -106.35 -401.35 -107.5 -393.5 -109.0 -392.35 -108.7" fill="#707070" fill-rule="evenodd" stroke="none"/>
    <path d="M-411.0 -87.0 L-409.9 -85.0 -407.7 -84.15 -407.45 -79.25 -409.7 -76.8 -408.8 -74.6 -412.35 -69.45 -414.15 -68.35 -417.25 -67.45 -417.0 -63.45 -419.0 -61.9 -421.25 -61.9 -421.9 -63.7 -421.9 -68.8 -423.9 -71.25 -423.9 -73.9 -424.6 -75.45 -427.25 -74.6 -429.7 -75.45 -430.35 -81.0 -429.25 -82.8 -425.45 -84.6 -423.45 -85.0 -421.45 -84.8 -420.8 -81.9 -419.0 -80.15 -417.25 -81.45 -416.15 -84.8 -413.9 -87.7 -411.0 -87.0" fill="#707070" fill-rule="evenodd" stroke="none"/>
    <path d="M-468.6 -37.0 L-469.9 -39.0 -468.6 -39.7 -467.45 -42.15 -467.25 -43.25 -464.8 -45.7 -463.0 -46.35 -458.15 -42.35 -460.35 -38.6 -464.15 -36.35 -463.9 -34.8 -467.25 -32.15 -468.6 -37.0" fill="#707070" fill-rule="evenodd" stroke="none"/>
    <path d="M-451.45 -62.15 L-450.15 -64.15 -446.8 -63.9 -447.7 -65.45 -446.8 -67.25 -443.25 -70.8 -441.7 -70.8 -438.35 -66.8 -436.6 -63.7 -434.8 -62.35 -433.0 -58.8 -432.15 -55.25 -433.45 -54.35 -435.9 -53.45 -437.45 -60.8 -440.8 -62.8 -443.7 -61.7 -443.45 -58.35 -445.25 -56.15 -446.15 -51.9 -446.35 -48.6 -450.15 -47.7 -450.35 -52.6 -450.8 -55.25 -452.8 -57.25 -455.25 -57.7 -457.0 -59.25 -453.45 -60.6 -451.45 -62.15" fill="#707070" fill-rule="evenodd" stroke="none"/>
    <path d="M-356.15 -158.6 L-356.35 -160.35 -356.15 -162.15 -354.8 -163.0 -353.0 -161.9 -351.7 -159.0 -353.0 -157.25 -356.15 -158.6" fill="#707070" fill-rule="evenodd" stroke="none"/>
    <path d="M-363.45 -152.35 L-365.25 -149.7 -367.25 -150.6 -369.0 -155.0 -367.45 -156.15 -365.45 -155.25 -364.15 -153.9 -363.45 -152.35" fill="#707070" fill-rule="evenodd" stroke="none"/>
    <path d="M-385.2 -138.7 L-388.5 -141.85 -390.35 -145.35 -389.2 -146.2 -387.85 -145.85 -383.0 -142.0 -382.5 -140.7 -383.2 -139.0 -385.2 -138.7" fill="#707070" fill-rule="evenodd" stroke="none"/>
    <path d="M-397.2 -129.85 L-398.7 -130.0 -402.35 -135.2 -400.85 -135.5 -397.35 -133.7 -396.0 -131.85 -397.2 -129.85" fill="#707070" fill-rule="evenodd" stroke="none"/>
    <path d="M-407.0 -120.0 L-409.0 -119.0 -415.35 -122.5 -415.35 -124.35 Q-414.4 -124.75 -413.5 -125.2 L-407.35 -123.2 -406.5 -121.85 -407.0 -120.0" fill="#707070" fill-rule="evenodd" stroke="none"/>
    <path d="M-427.85 -109.2 L-427.35 -111.0 -425.0 -111.35 -419.7 -108.85 -419.0 -107.0 -419.35 -105.7 -421.35 -105.0 -422.7 -106.35 -427.85 -109.2" fill="#707070" fill-rule="evenodd" stroke="none"/>
    <path d="M-437.2 -97.35 L-438.5 -97.0 -440.85 -96.85 -440.5 -99.85 -437.7 -100.7 -431.2 -99.5 -431.2 -97.5 -432.2 -96.35 -434.0 -95.5 -434.85 -96.5 -437.2 -97.35" fill="#707070" fill-rule="evenodd" stroke="none"/>
    <path d="M-311.45 -103.7 L-309.7 -104.6 -308.35 -102.35 -303.7 -96.8 -300.8 -91.7 -299.7 -89.0 -299.7 -88.15 -301.25 -88.8 -304.8 -92.6 -311.45 -103.7" fill="#707070" fill-rule="evenodd" stroke="none"/>
    <path d="M-299.25 -80.8 L-297.7 -81.0 -291.7 -84.35 -289.45 -85.0 -287.7 -81.45 -287.9 -75.25 -291.9 -66.6 -301.7 -57.0 -308.8 -53.25 -311.25 -53.0 -311.9 -55.0 -312.35 -60.15 -314.15 -66.15 -317.25 -68.15 -319.0 -71.7 -317.45 -75.45 -314.8 -78.15 -307.9 -81.0 -301.7 -82.35 -299.25 -80.8" fill="#707070" fill-rule="evenodd" stroke="none"/>
    <path d="M-322.6 -89.9 L-321.35 -89.6 -317.35 -79.9 -317.25 -78.9 -318.0 -78.0 -319.0 -78.8 -323.6 -88.15 -323.15 -89.7 -322.6 -89.9" fill="#707070" fill-rule="evenodd" stroke="none"/>
    <path d="M-339.0 -92.85 L-338.0 -94.2 -331.0 -82.5 -331.35 -80.2 -332.85 -80.85 -334.35 -82.85 -338.5 -90.85 -339.0 -92.85" fill="#707070" fill-rule="evenodd" stroke="none"/>
    <path d="M-356.35 -79.35 L-357.7 -80.85 -357.5 -82.35 -356.0 -82.35 -351.0 -77.2 -349.85 -75.2 -351.5 -75.5 -356.35 -79.35" fill="#707070" fill-rule="evenodd" stroke="none"/>
    <path d="M-366.0 -66.5 L-363.7 -59.85 -364.35 -57.35 -366.35 -56.35 -368.2 -57.5 -368.2 -58.2 -366.85 -59.85 -366.85 -61.35 -368.5 -67.2 -368.35 -68.7 -367.5 -68.7 -366.0 -66.5" fill="#707070" fill-rule="evenodd" stroke="none"/>
    <path d="M-381.85 -56.7 L-380.0 -53.2 -380.7 -51.2 -382.5 -52.2 -383.2 -55.85 -382.85 -57.35 -381.85 -56.7" fill="#707070" fill-rule="evenodd" stroke="none"/>
    <path d="M-398.7 -38.7 L-398.35 -40.85 -397.85 -41.85 -396.5 -40.2 -396.35 -37.7 -396.85 -36.5 -398.2 -36.0 -398.7 -36.85 -398.7 -38.7" fill="#707070" fill-rule="evenodd" stroke="none"/>
    <path d="M-148.1 -75.1 L-148.7 -72.95 -150.35 -71.25 -153.35 -71.0 -154.25 -71.45 -155.5 -70.95 -157.0 -69.2 -158.75 -67.75 -161.45 -67.45 -163.25 -67.45 -164.6 -68.1 -166.2 -69.45 -168.5 -69.2 -172.2 -69.95 -174.25 -71.7 -176.25 -77.1 -175.85 -78.75 -174.0 -80.0 -172.0 -82.45 -170.7 -85.25 -168.75 -86.5 -165.25 -87.0 -160.5 -85.6 -153.25 -85.85 -150.5 -84.7 -148.1 -75.1" fill="#707070" fill-rule="evenodd" stroke="none"/>
    <path d="M-435.2 68.5 L-436.0 72.5 -437.85 72.5 -439.7 68.15 -438.35 65.5 -436.5 67.0 -435.2 68.5" fill="#707070" fill-rule="evenodd" stroke="none"/>
    <path d="M-487.7 69.3 L-478.5 64.5 -476.5 60.8 -472.85 57.3 -469.85 56.15 -466.5 56.65 -458.35 61.5 -451.2 61.8 -445.2 63.65 -443.5 65.65 -440.0 78.5 -443.5 85.5 -448.85 86.15 -452.35 84.5 -458.2 89.8 -465.2 89.5 -467.85 88.15 -473.2 87.3 -480.85 87.5 -476.7 89.65 -472.0 90.0 -470.2 92.15 -468.35 99.5 -469.2 101.65 -472.0 104.0 -474.85 102.65 -479.35 105.15 -481.85 104.8 -486.7 102.8 -495.2 102.15 -496.85 98.65 -498.0 94.15 -496.35 92.65 -490.85 88.65 -485.85 86.3 -482.7 86.5 -487.0 80.3 -488.7 73.15 -487.7 69.3" fill="#707070" fill-rule="evenodd" stroke="none"/>
    <path d="M-450.0 137.75 L-451.7 137.75 -453.9 129.4 -450.6 113.2 -445.7 106.4 -428.8 97.3 -420.0 98.4 -418.35 101.3 -419.6 105.4 -420.8 123.75 -422.45 125.85 -447.9 138.1 -450.0 137.75" fill="#707070" fill-rule="evenodd" stroke="none"/>
    <path d="M-433.7 145.55 L-436.25 144.85 -438.8 141.3 -438.8 138.75 -437.15 137.3 -430.7 133.3 -423.25 131.3 -419.9 133.4 -418.7 136.3 -419.45 138.3 -421.0 140.4 -423.45 144.75 -426.15 145.2 -433.7 145.55" fill="#707070" fill-rule="evenodd" stroke="none"/>
    <path d="M-343.2 107.05 L-344.0 103.65 -344.0 101.65 -342.7 98.55 -341.85 98.3 -339.1 103.05 -340.35 106.65 -341.75 108.05 -343.2 107.05" fill="#707070" fill-rule="evenodd" stroke="none"/>
    <path d="M-353.45 101.55 L-355.35 101.05 -356.0 100.05 -354.25 96.65 -351.25 96.75 -349.6 98.05 -348.35 100.25 -346.85 101.55 -347.1 102.9 -348.5 103.4 -349.5 104.4 -350.5 104.05 -352.1 102.4 -353.45 101.55" fill="#707070" fill-rule="evenodd" stroke="none"/>
    <path d="M-323.95 129.4 L-327.95 131.45 -324.85 131.0 -323.95 129.4 M-355.2 120.55 L-356.5 117.75 -350.45 107.0 -348.7 105.65 -347.1 106.15 -344.6 108.5 -341.7 110.5 -335.2 112.75 -334.7 102.15 -329.2 84.5 -329.35 81.5 -328.7 76.65 -320.7 59.15 -312.35 46.5 -309.0 42.3 -305.85 41.8 -302.0 40.65 -299.0 39.3 -288.85 41.15 -278.0 44.5 -272.7 47.15 -262.2 63.65 -260.85 68.15 -266.2 79.3 -271.7 86.15 -288.7 101.15 -291.0 101.0 -296.7 103.65 -303.85 110.65 -319.2 127.0 -320.55 127.7 -322.35 131.15 -324.85 132.65 -331.5 134.0 -337.5 136.8 -341.35 137.8 -345.0 137.15 -336.85 135.0 -330.5 131.8 -328.65 131.55 -334.85 129.0 -335.35 115.65 -335.3 114.8 -340.85 126.05 -343.6 125.55 -355.2 120.55" fill="#707070" fill-rule="evenodd" stroke="none"/>
    <path d="M-225.85 94.15 L-225.5 96.8 -222.5 107.5 -224.0 109.5 -237.85 113.8 -241.85 113.3 -246.25 118.0 -248.85 122.3 -250.35 123.5 -252.85 123.3 -255.85 122.5 -257.5 121.0 -260.0 117.15 -261.7 111.3 -261.2 108.0 -259.85 106.0 -258.35 103.0 -257.5 100.15 -255.5 97.5 -253.7 97.0 -247.0 99.8 -242.85 103.5 -242.7 98.65 -237.7 95.65 -230.0 95.15 -227.2 93.15 -225.85 94.15" fill="#707070" fill-rule="evenodd" stroke="none"/>
    <path d="M-125.7 -42.15 L-123.45 -42.15 -122.6 -35.0 -129.25 -32.6 -131.45 -37.9 -131.25 -39.45 -127.25 -40.35 -125.7 -42.15" fill="#707070" fill-rule="evenodd" stroke="none"/>
    <path d="M-162.15 -49.7 L-159.9 -48.6 -157.9 -49.7 -143.25 -43.25 -141.25 -40.6 -147.7 -37.7 -146.6 -33.0 -148.6 -31.0 -150.8 -33.0 -156.35 -33.9 -159.7 -38.8 -159.7 -44.6 -160.15 -42.15 -168.6 -42.6 -169.45 -49.45 -162.15 -49.7" fill="#707070" fill-rule="evenodd" stroke="none"/>
    <path d="M-169.35 -39.85 L-174.7 -35.5 -177.85 -38.7 -178.35 -40.35 -174.2 -45.7 -172.7 -46.7 -169.7 -42.0 -169.35 -39.85" fill="#707070" fill-rule="evenodd" stroke="none"/>
    <path d="M-246.0 -10.5 L-246.2 -12.5 -240.35 -12.0 -241.7 -7.35 -243.35 -7.35 -246.0 -10.5" fill="#707070" fill-rule="evenodd" stroke="none"/>
    <path d="M-223.7 -12.2 L-225.0 -10.5 -226.7 -10.0 -226.5 -14.5 -224.0 -17.2 -222.7 -16.35 -223.7 -12.2" fill="#707070" fill-rule="evenodd" stroke="none"/>
    <path d="M-244.0 1.15 L-243.35 -1.85 -240.7 -4.35 -236.85 -2.85 -234.35 2.15 -232.85 6.8 -233.85 14.15 -234.5 16.0 -236.35 17.5 -244.0 1.15" fill="#707070" fill-rule="evenodd" stroke="none"/>
    <path d="M-243.7 14.3 L-247.2 13.3 -247.5 11.65 -245.7 11.3 -244.2 11.8 -242.7 12.8 -242.0 13.8 -243.7 14.3" fill="#707070" fill-rule="evenodd" stroke="none"/>
    <path d="M-258.2 15.15 L-257.0 11.65 -255.5 11.5 -255.0 13.65 -256.2 15.5 -258.2 15.15" fill="#707070" fill-rule="evenodd" stroke="none"/>
    <path d="M-218.7 -2.35 L-217.5 1.0 -217.35 4.0 -218.5 6.3 -219.5 7.3 -219.0 12.65 -219.35 16.0 -221.7 17.3 -223.85 15.15 -226.5 15.0 -229.2 13.15 -229.85 6.65 -229.35 4.65 -230.0 3.5 -231.85 1.0 -231.85 -2.35 -229.5 -2.85 -228.35 -4.0 -225.2 -5.7 -222.35 -6.35 -218.7 -2.35" fill="#707070" fill-rule="evenodd" stroke="none"/>
    <path d="M-201.35 5.8 L-204.85 12.3 -208.0 15.8 -209.5 14.5 -214.7 13.65 -216.2 10.3 -214.0 6.0 -213.0 1.65 -207.2 -6.85 -203.2 -5.2 -201.0 -2.0 -199.85 3.8 -201.35 5.8" fill="#707070" fill-rule="evenodd" stroke="none"/>
    <path d="M-215.5 24.0 L-214.85 25.65 -219.0 30.65 -221.2 30.8 -222.85 28.65 -227.2 25.3 -227.0 23.5 -220.7 18.5 -215.5 24.0" fill="#707070" fill-rule="evenodd" stroke="none"/>
    <path d="M-229.7 22.75 L-229.7 23.85 -230.25 27.75 -229.25 30.65 -232.0 34.65 -235.25 34.2 -237.15 33.1 -239.8 35.2 -242.15 35.55 -250.25 32.3 -254.0 31.85 -255.45 30.4 -256.25 28.0 -256.25 23.85 -255.25 22.85 -253.7 22.3 -246.25 16.55 -244.25 16.1 -241.8 18.55 -239.8 20.1 -238.35 20.1 -237.25 19.85 -236.15 19.2 -233.9 19.3 -229.7 22.75" fill="#707070" fill-rule="evenodd" stroke="none"/>
    <path d="M-224.15 32.0 L-224.35 33.3 -227.25 37.0 -229.15 37.85 -230.0 36.3 -229.0 32.75 -228.15 32.3 -226.9 32.2 -225.6 31.75 -224.15 32.0" fill="#707070" fill-rule="evenodd" stroke="none"/>
    <path d="M-234.25 39.0 L-233.45 38.65 -230.8 39.55 -229.6 40.55 -228.0 43.75 -229.45 44.85 -232.35 43.3 -233.8 42.3 -234.25 39.0" fill="#707070" fill-rule="evenodd" stroke="none"/>
    <path d="M-252.9 37.75 L-247.0 35.85 -245.15 36.2 -242.35 37.55 -235.8 44.4 -235.7 45.3 -239.7 47.85 -242.6 48.3 -245.7 48.2 -248.0 47.65 -252.9 41.1 -253.45 38.55 -252.9 37.75" fill="#707070" fill-rule="evenodd" stroke="none"/>
    <path d="M-546.25 163.3 L-550.15 161.4 -550.0 160.4 -546.35 158.4 -544.7 158.75 -542.8 159.65 -542.45 161.2 -546.25 163.3" fill="#707070" fill-rule="evenodd" stroke="none"/>
    <path d="M-452.35 240.3 L-450.35 241.3 -444.45 247.75 -443.9 250.55 -450.35 254.2 -453.0 253.85 -456.0 248.65 -458.25 246.85 -458.25 245.65 -452.35 240.3" fill="#707070" fill-rule="evenodd" stroke="none"/>
    <path d="M-538.85 167.95 L-539.15 169.1 -540.6 169.85 -541.6 169.85 -540.35 166.65 -539.7 166.7 -541.7 163.9 -540.35 162.95 -529.25 178.7 -512.7 199.0 -463.1 225.7 -436.7 249.7 -409.45 272.9 -389.1 280.3 -377.6 283.2 -357.95 286.9 -359.8 284.1 -359.15 282.4 -354.45 284.2 -352.8 285.4 -353.45 286.85 -354.6 288.1 -355.85 288.05 -356.0 288.95 -378.1 284.75 -389.2 281.95 -389.25 281.95 -410.3 274.35 -437.35 251.35 -437.4 251.35 -446.05 243.5 -445.95 243.55 -460.25 230.55 -457.9 234.65 -457.0 237.3 -459.45 240.85 -463.0 242.85 -469.25 243.4 -477.7 238.4 -479.45 233.0 -478.7 229.1 -474.15 226.55 -470.15 225.1 -467.0 225.45 -492.15 211.55 -513.65 200.4 -513.8 200.3 -522.1 190.4 -533.1 176.15 -533.25 177.85 -534.9 177.65 -537.0 174.3 -534.9 173.65 -534.8 173.7 -538.85 167.95" fill="#707070" fill-rule="evenodd" stroke="none"/>
    <path d="M-355.0 281.2 L-354.45 279.3 -350.35 281.3 -349.0 284.3 -349.15 285.85 -350.45 285.85 -351.7 284.75 -355.0 281.2" fill="#707070" fill-rule="evenodd" stroke="none"/>
    <path d="M-352.15 292.85 L-354.0 291.55 -354.9 289.85 -353.8 289.0 -351.45 286.0 -350.35 286.3 -348.6 287.2 -347.8 288.3 -348.15 289.65 -350.7 293.55 -352.15 292.85" fill="#707070" fill-rule="evenodd" stroke="none"/>
    <path d="M-247.0 122.75 L-244.45 126.1 -244.35 128.2 -247.35 128.55 -248.8 127.2 -248.0 123.2 -247.0 122.75" fill="#707070" fill-rule="evenodd" stroke="none"/>
    <path d="M-276.1 116.25 L-275.25 114.8 -265.65 120.4 -265.6 120.45 -258.25 126.8 -250.0 130.65 -248.9 130.1 -245.35 131.1 -245.15 132.1 -246.0 132.75 -244.85 133.35 -245.65 134.8 -247.7 133.75 -249.15 134.55 -251.45 135.1 -253.0 133.65 -251.6 132.3 -251.3 131.85 -252.3 131.3 Q-255.7 129.8 -259.15 128.25 L-266.6 121.75 -276.1 116.25" fill="#707070" fill-rule="evenodd" stroke="none"/>
    <path d="M-270.9 124.0 L-268.8 123.0 -267.8 123.55 -267.0 124.65 -265.35 126.2 -263.7 126.65 -264.6 127.75 -265.25 130.1 -267.35 130.4 -268.9 128.4 -269.7 127.0 -271.15 125.0 -270.9 124.0" fill="#707070" fill-rule="evenodd" stroke="none"/>
    <path d="M-262.8 136.75 L-262.0 137.55 Q-260.7 138.4 -259.45 139.2 L-258.25 140.4 -259.15 142.2 -262.15 143.2 -263.0 141.55 -262.8 136.75" fill="#707070" fill-rule="evenodd" stroke="none"/>
    <path d="M-273.45 146.0 L-274.9 143.65 -275.6 142.2 -276.45 141.1 -274.6 140.85 -273.45 142.2 -271.9 141.3 -267.8 138.1 -266.15 139.2 -264.6 142.65 -262.25 145.65 -262.6 147.3 -267.0 150.85 -268.0 150.65 -270.6 148.1 -273.45 146.0" fill="#707070" fill-rule="evenodd" stroke="none"/>
    <path d="M-271.3 131.8 L-276.25 129.55 -275.8 127.95 -270.75 130.15 -265.7 131.05 -256.2 135.75 -251.6 140.25 -250.5 142.1 -251.95 142.95 -252.9 141.25 -257.2 137.1 Q-261.65 134.9 -266.15 132.65 L-271.3 131.8" fill="#707070" fill-rule="evenodd" stroke="none"/>
    <path d="M185.85 -25.7 L185.85 -24.0 186.75 -22.35 184.85 -20.45 183.55 -19.9 182.85 -18.15 181.2 -18.0 178.4 -20.0 177.85 -21.0 178.3 -22.15 179.85 -23.45 185.85 -25.7" fill="#707070" fill-rule="evenodd" stroke="none"/>
    <path d="M190.55 -28.7 L188.55 -28.25 186.3 -28.35 186.2 -29.45 186.65 -30.9 188.1 -32.0 190.2 -32.9 192.4 -32.7 193.55 -32.9 193.3 -31.25 190.55 -28.7" fill="#707070" fill-rule="evenodd" stroke="none"/>
    <path d="M201.55 -44.6 L204.0 -44.0 204.85 -43.35 204.65 -39.35 204.1 -38.35 201.1 -37.15 199.1 -38.35 200.2 -41.25 200.85 -43.9 201.55 -44.6" fill="#707070" fill-rule="evenodd" stroke="none"/>
    <path d="M204.1 -31.8 L217.55 -42.7 219.1 -43.7 222.1 -44.7 224.4 -43.6 226.75 -36.9 229.4 -24.9 230.75 -13.45 230.4 -6.0 227.65 -0.35 223.4 5.65 214.1 17.4 196.2 34.3 191.0 38.4 187.2 40.3 181.85 41.3 171.0 40.4 161.2 37.1 156.2 31.3 156.1 27.1 161.4 15.85 172.1 -9.15 175.75 -13.7 195.4 -25.7 204.1 -31.8" fill="#707070" fill-rule="evenodd" stroke="none"/>
    <path d="M93.85 -5.25 L95.0 1.2 103.4 18.1 111.4 29.65 123.2 41.4 125.2 42.75 126.1 45.65 123.65 48.3 118.3 61.0 114.75 66.55 108.3 72.75 103.4 81.0 99.65 85.0 96.3 87.85 89.65 88.75 87.2 88.1 84.3 85.65 84.3 83.2 87.4 78.75 88.55 75.0 88.1 71.2 84.75 70.55 77.2 71.4 67.65 74.75 63.4 77.0 60.55 76.3 58.3 74.75 55.4 69.85 52.1 61.4 51.0 52.75 51.4 41.2 53.4 31.65 56.3 23.65 65.4 6.75 71.2 0.55 87.0 -9.25 89.85 -9.45 92.75 -8.4 93.85 -5.25" fill="#707070" fill-rule="evenodd" stroke="none"/>
    <path d="M81.3 -16.85 L82.2 -16.4 83.4 -13.7 82.9 -12.6 82.25 -12.3 81.4 -12.1 80.9 -11.3 80.15 -10.6 78.75 -10.1 77.4 -10.25 75.7 -9.25 74.15 -9.65 72.25 -12.4 74.15 -15.9 75.25 -17.15 81.3 -16.85" fill="#707070" fill-rule="evenodd" stroke="none"/>
    <path d="M86.15 -16.8 L87.2 -16.65 90.0 -14.7 91.15 -13.5 91.6 -12.4 90.9 -11.5 89.25 -10.9 87.4 -12.25 87.35 -13.5 86.6 -14.8 86.1 -15.4 85.8 -16.25 86.15 -16.8" fill="#707070" fill-rule="evenodd" stroke="none"/>
    <path d="M92.8 -13.6 L92.7 -14.6 93.25 -14.75 95.4 -13.35 98.9 -12.4 100.0 -10.8 99.7 -9.8 98.05 -9.3 94.65 -10.7 92.8 -13.6" fill="#707070" fill-rule="evenodd" stroke="none"/>
    <path d="M80.8 -23.5 L82.4 -23.9 85.3 -23.45 87.8 -22.1 89.35 -20.5 88.5 -18.0 86.05 -17.0 83.5 -17.25 80.25 -20.25 79.7 -21.15 80.0 -22.15 80.8 -23.5" fill="#707070" fill-rule="evenodd" stroke="none"/>
    <path d="M-64.25 31.55 L-58.6 31.55 -57.15 32.1 -56.0 35.0 -55.8 39.0 -53.7 36.75 -51.15 35.1 -49.9 35.55 -48.45 40.55 -48.0 44.1 -49.7 45.3 -54.45 44.3 -52.0 52.4 -52.7 54.1 -58.0 54.55 -64.9 56.4 -66.7 55.2 -67.8 47.1 -66.35 44.85 -63.25 43.75 -66.9 41.2 -69.35 40.3 -75.0 37.2 -75.45 36.0 -74.35 34.55 -72.8 33.2 -71.8 31.4 -70.7 30.1 -69.25 29.2 -66.8 30.0 -64.25 31.55" fill="#707070" fill-rule="evenodd" stroke="none"/>
    <path d="M-174.85 268.9 L-172.5 269.8 -168.0 274.65 -165.1 277.25 -164.35 278.5 -164.5 280.05 -165.1 281.3 -166.0 282.15 -166.7 282.25 -169.7 280.75 -170.1 281.65 -170.0 283.05 -170.1 285.8 -169.7 287.65 -170.45 288.4 -176.0 289.05 -181.85 288.15 -187.95 284.4 -191.85 280.65 -194.85 275.55 -195.0 274.5 -194.85 273.4 -194.0 272.8 -182.95 271.8 -178.6 270.5 -174.85 268.9" fill="#707070" fill-rule="evenodd" stroke="none"/>
    <path d="M-158.0 258.75 L-158.9 261.4 -158.8 266.85 -159.35 268.0 -160.4 268.0 -161.35 267.65 -161.35 262.85 -160.35 258.3 -159.45 256.2 -158.45 256.3 -158.0 257.2 -158.0 258.75" fill="#707070" fill-rule="evenodd" stroke="none"/>
    <path d="M-150.8 271.55 L-150.0 265.1 -149.6 264.2 -148.45 263.75 -147.45 264.75 -148.15 268.55 -148.0 272.75 -148.9 273.55 -150.25 273.0 -150.8 271.55" fill="#707070" fill-rule="evenodd" stroke="none"/>
    <path d="M-133.3 279.6 L-132.5 276.75 -131.95 275.75 -131.4 275.55 -130.4 275.65 -130.0 277.05 -130.2 278.0 -130.2 279.25 -129.9 280.4 -130.45 281.1 -131.3 281.8 -132.7 281.3 -133.3 279.6" fill="#707070" fill-rule="evenodd" stroke="none"/>
    <path d="M-120.25 282.35 L-119.7 280.4 -119.45 278.9 -118.95 278.3 -118.2 277.7 -117.6 278.3 -116.9 279.6 -117.5 281.0 -117.7 282.0 -117.6 283.4 -117.5 283.8 -118.2 284.35 -118.85 284.6 -119.65 284.25 -120.25 282.8 -120.25 282.35" fill="#707070" fill-rule="evenodd" stroke="none"/>
    <path d="M-105.0 279.3 L-104.4 279.75 -103.8 280.9 -103.85 282.75 -104.3 283.8 -106.45 284.8 -107.5 283.0 -107.3 281.55 -106.65 281.35 -106.15 280.85 -105.7 280.15 -105.0 279.3" fill="#707070" fill-rule="evenodd" stroke="none"/>
    <path d="M-93.65 277.25 L-93.15 278.3 -94.35 281.65 -95.35 282.05 -96.7 281.55 -97.25 279.8 -97.1 278.9 -94.3 277.2 -93.65 277.25" fill="#707070" fill-rule="evenodd" stroke="none"/>
    <path d="M-88.65 280.75 L-87.65 279.4 -84.9 279.05 -84.0 279.3 -83.75 280.55 -85.95 282.8 -87.45 283.2 -88.1 282.75 -88.8 281.85 -88.65 280.75" fill="#707070" fill-rule="evenodd" stroke="none"/>
    <path d="M-53.95 273.15 L-50.75 272.65 -47.45 273.15 -46.85 273.9 -46.85 282.9 -51.45 282.8 -45.35 285.8 -44.75 286.8 -48.85 296.25 -50.2 296.8 -56.75 293.55 -61.95 291.5 -62.45 289.8 -57.45 281.65 -56.25 280.5 -54.75 280.25 -53.95 273.15" fill="#707070" fill-rule="evenodd" stroke="none"/>
    <path d="M73.65 100.5 L74.15 103.65 74.0 106.0 71.8 107.15 70.5 107.5 69.8 109.15 66.15 109.3 63.5 107.65 59.3 105.8 58.15 104.65 58.15 100.15 58.8 98.3 60.5 97.0 64.8 98.15 65.3 97.0 66.65 96.8 68.65 97.8 69.8 99.0 72.0 100.0 73.65 100.5" fill="#707070" fill-rule="evenodd" stroke="none"/>
    <path d="M57.8 87.8 L59.15 85.25 60.3 84.3 62.05 84.0 66.05 88.05 66.05 91.0 62.3 94.05 60.05 95.05 58.3 95.3 55.65 96.0 53.9 95.55 54.4 93.9 54.55 92.55 53.55 91.9 53.15 91.25 54.25 90.15 55.75 89.05 56.8 88.5 57.8 87.8" fill="#707070" fill-rule="evenodd" stroke="none"/>
    <path d="M1.8 106.4 L1.75 105.65 4.3 103.05 6.65 102.05 7.9 101.9 9.15 104.0 11.05 105.8 11.3 107.3 7.65 110.55 6.75 110.75 2.75 107.55 1.8 106.4" fill="#707070" fill-rule="evenodd" stroke="none"/>
    <path d="M19.5 92.4 L20.05 92.8 21.3 94.65 21.9 96.9 21.9 98.65 21.55 100.0 20.25 100.9 16.8 101.65 13.8 100.4 11.75 100.55 9.3 100.25 8.15 99.5 7.75 98.8 8.0 98.05 9.05 97.05 9.3 96.0 9.9 94.9 12.15 93.75 15.4 94.25 17.0 93.0 18.25 92.25 19.5 92.4" fill="#707070" fill-rule="evenodd" stroke="none"/>
    <path d="M36.2 115.1 L50.3 119.0 55.1 122.65 70.4 127.75 91.85 141.85 93.15 143.35 93.8 145.5 93.4 147.2 91.65 150.0 89.4 152.55 83.1 155.4 69.65 157.55 56.3 158.75 47.85 162.65 46.85 163.2 44.85 162.85 44.2 163.55 42.2 164.75 37.75 165.85 11.2 169.4 6.85 169.2 2.0 167.2 -1.8 164.0 -9.45 146.75 -9.35 141.3 -7.45 134.75 -4.0 127.0 -0.6 121.0 1.85 119.3 6.85 114.3 14.65 113.0 18.75 113.1 36.2 115.1" fill="#707070" fill-rule="evenodd" stroke="none"/>
    <path d="M105.55 121.0 L112.1 123.75 113.0 125.4 115.55 125.3 117.65 126.3 118.2 128.2 117.1 130.2 113.65 131.0 111.55 130.2 110.1 130.75 109.55 132.65 109.65 134.75 108.85 139.65 106.4 139.65 101.65 140.4 97.2 140.1 94.4 138.1 94.0 136.55 93.85 134.65 92.3 132.55 92.3 130.75 93.2 129.3 95.85 127.1 100.55 124.3 100.0 122.65 100.85 119.2 105.3 117.3 105.2 119.3 105.55 121.0" fill="#707070" fill-rule="evenodd" stroke="none"/>
    <path d="M153.5 31.3 L156.0 33.15 159.3 37.65 157.0 40.5 152.3 39.15 151.3 37.0 149.3 34.15 150.0 32.5 151.3 31.0 153.5 31.3" fill="#707070" fill-rule="evenodd" stroke="none"/>
    <path d="M173.4 44.65 L176.5 42.75 180.05 43.25 179.8 45.25 177.55 46.4 174.25 46.75 171.5 46.3 170.8 48.25 168.75 47.3 166.4 45.3 165.5 43.65 165.4 41.5 166.4 41.4 168.9 42.65 171.05 45.0 173.4 44.65" fill="#707070" fill-rule="evenodd" stroke="none"/>
    <path d="M317.3 -44.85 L319.65 -43.35 322.15 -32.5 323.5 -29.5 324.0 -28.0 323.0 -26.5 320.15 -26.2 317.5 -29.85 315.15 -42.5 316.0 -43.85 317.3 -44.85" fill="#707070" fill-rule="evenodd" stroke="none"/>
    <path d="M279.85 -11.7 L279.75 -13.8 280.85 -14.45 283.2 -14.6 286.1 -11.25 292.55 4.1 292.55 5.1 291.2 7.1 289.0 6.75 285.4 2.55 279.85 -11.7" fill="#707070" fill-rule="evenodd" stroke="none"/>
    <path d="M258.75 37.4 L249.2 18.85 248.4 15.75 249.3 14.0 250.55 13.2 252.1 13.65 253.65 15.1 258.55 25.1 263.85 34.0 264.4 37.2 263.85 39.0 263.2 40.3 262.2 40.3 260.3 39.2 258.75 37.4" fill="#707070" fill-rule="evenodd" stroke="none"/>
    <path d="M216.8 36.8 L215.3 35.0 215.8 33.8 218.15 33.0 221.3 34.8 236.5 48.8 240.0 53.65 240.5 55.5 239.8 57.3 237.8 57.5 234.3 54.8 216.8 36.8" fill="#707070" fill-rule="evenodd" stroke="none"/>
    <path d="M174.3 57.3 L173.2 54.85 173.3 53.2 174.4 52.0 175.85 51.3 178.0 52.2 195.3 77.1 198.65 84.4 198.75 85.55 198.2 88.1 196.2 87.75 191.75 83.0 183.0 70.65 174.3 57.3" fill="#707070" fill-rule="evenodd" stroke="none"/>
    <path d="M151.85 57.75 L166.1 84.0 168.3 87.4 174.2 100.85 173.55 102.4 170.3 100.65 164.3 93.65 145.2 58.3 144.2 56.1 144.55 54.75 146.0 53.2 148.55 53.55 151.85 57.75" fill="#707070" fill-rule="evenodd" stroke="none"/>
    <path d="M113.75 86.55 L111.3 83.75 110.65 81.75 110.85 80.3 111.75 79.1 113.85 79.0 118.55 83.3 140.85 114.0 143.55 119.3 145.0 121.55 145.0 123.3 141.85 124.0 138.4 120.55 113.75 86.55" fill="#707070" fill-rule="evenodd" stroke="none"/>
    <path d="M171.65 210.75 L172.4 212.1 173.1 214.55 173.75 216.0 173.55 217.2 172.65 217.0 170.3 216.75 168.0 214.0 168.65 212.4 170.3 210.85 171.65 210.75" fill="#707070" fill-rule="evenodd" stroke="none"/>
    <path d="M178.3 237.0 L177.4 237.55 177.3 239.2 177.85 243.2 177.2 245.2 175.65 244.1 173.1 241.2 172.0 240.3 171.2 242.0 171.65 246.4 170.3 248.0 167.55 248.55 164.2 248.1 157.2 245.75 155.1 244.65 152.85 242.65 151.0 236.75 150.85 233.85 151.4 231.4 154.3 231.0 155.85 230.3 156.4 224.1 161.4 219.85 163.75 218.65 165.7 217.95 166.4 219.65 164.65 222.2 162.4 224.4 160.85 227.1 160.0 229.65 160.4 230.3 165.75 230.1 165.2 227.75 167.3 224.3 172.2 220.65 175.65 216.85 178.3 214.65 180.85 215.85 186.3 220.65 188.4 225.1 187.1 226.55 182.75 230.2 178.3 237.0" fill="#707070" fill-rule="evenodd" stroke="none"/>
    <path d="M150.2 225.3 L150.55 224.1 155.1 221.1 156.4 221.1 157.85 223.55 159.55 228.65 154.55 240.4 146.2 245.75 142.75 247.3 140.1 249.3 137.55 249.3 134.0 248.3 133.65 246.75 137.1 244.4 140.85 243.2 142.65 242.4 143.0 241.3 143.2 239.0 145.1 239.3 147.85 239.1 151.0 236.75 156.3 231.75 157.4 226.75 155.65 225.4 154.3 225.4 151.75 226.0 150.2 225.3" fill="#707070" fill-rule="evenodd" stroke="none"/>
    <path d="M216.85 214.2 L218.85 221.65 218.85 223.2 218.0 225.3 216.0 226.55 214.2 225.65 208.1 214.65 208.65 212.75 209.85 211.1 212.0 210.65 214.4 211.55 216.85 214.2" fill="#707070" fill-rule="evenodd" stroke="none"/>
    <path d="M241.85 195.55 L246.3 204.2 247.1 208.1 246.1 209.85 244.3 210.0 241.85 209.1 240.0 208.1 235.1 201.3 233.3 197.75 233.65 195.4 235.55 193.85 238.75 193.55 241.85 195.55" fill="#707070" fill-rule="evenodd" stroke="none"/>
    <path d="M282.85 166.85 L287.2 171.2 292.85 180.55 293.65 184.3 292.75 186.1 291.2 187.0 289.2 186.1 286.0 183.1 280.1 176.4 277.2 171.4 278.0 168.55 279.55 167.4 282.85 166.85" fill="#707070" fill-rule="evenodd" stroke="none"/>
    <path d="M255.0 265.8 L255.3 264.5 256.5 265.0 260.65 267.3 261.15 268.5 261.3 270.3 260.0 271.0 256.8 269.3 255.0 265.8" fill="#707070" fill-rule="evenodd" stroke="none"/>
    <path d="M297.15 235.65 L300.0 237.0 301.5 238.8 300.3 243.65 290.65 255.3 276.0 260.65 261.0 264.65 256.0 262.0 261.5 249.15 267.65 243.0 274.0 237.8 281.5 232.5 287.5 230.8 293.0 232.0 295.5 233.65 297.15 235.65" fill="#707070" fill-rule="evenodd" stroke="none"/>
    <path d="M306.9 236.15 L307.9 237.05 308.9 239.05 309.25 240.65 308.55 244.15 307.75 244.8 306.5 244.25 305.0 240.75 305.0 238.75 306.9 236.15" fill="#707070" fill-rule="evenodd" stroke="none"/>
    <path d="M310.8 225.05 L312.4 226.05 312.75 226.9 311.25 232.15 310.0 235.0 308.75 235.4 301.9 233.4 299.75 233.3 299.25 232.0 299.0 230.8 302.3 223.0 303.65 222.15 305.05 222.15 306.75 223.8 310.8 225.05" fill="#707070" fill-rule="evenodd" stroke="none"/>
    <path d="M534.0 137.5 L535.3 137.8 537.15 141.5 538.5 143.0 539.3 144.15 538.3 145.8 536.15 148.5 535.0 151.15 534.5 154.0 534.0 155.5 531.5 156.65 534.8 162.8 536.8 167.65 537.0 170.8 535.3 175.15 533.0 178.0 521.65 184.0 518.65 184.15 515.15 179.15 513.5 177.3 513.65 173.15 515.3 164.65 520.0 161.8 522.15 161.15 525.5 157.3 527.8 155.5 525.15 154.0 523.65 151.15 524.0 149.15 525.3 146.15 530.3 142.0 534.0 137.5" fill="#707070" fill-rule="evenodd" stroke="none"/>
    <path d="M575.0 93.15 L576.5 94.15 573.0 96.65 570.65 95.5 569.65 90.5 570.65 89.0 573.3 89.5 575.0 93.15" fill="#707070" fill-rule="evenodd" stroke="none"/>
    <path d="M575.65 87.15 L573.5 83.8 574.0 82.65 575.5 82.15 579.0 81.8 579.3 83.0 578.3 84.8 575.65 87.15" fill="#707070" fill-rule="evenodd" stroke="none"/>
    <path d="M567.5 88.15 L568.65 88.5 567.8 94.3 563.15 92.15 564.65 90.5 567.5 88.15" fill="#707070" fill-rule="evenodd" stroke="none"/>
    <path d="M471.65 187.0 L473.3 185.5 476.15 184.15 479.5 184.0 479.8 174.15 481.8 172.15 486.5 171.3 494.65 168.5 497.15 169.0 498.15 170.0 499.5 171.8 505.15 176.3 508.65 178.5 510.65 182.15 509.65 188.3 509.0 190.65 507.0 191.5 504.5 193.65 502.15 192.8 498.2 190.65 495.8 192.0 491.65 191.5 489.5 188.15 483.5 185.3 483.8 187.3 480.8 188.5 475.65 188.5 471.65 187.0" fill="#707070" fill-rule="evenodd" stroke="none"/>
    <path d="M446.3 135.0 L445.2 132.3 447.0 129.2 452.75 126.75 464.1 127.85 463.0 133.65 461.65 137.2 454.75 137.0 451.4 139.4 449.2 139.2 446.3 135.0" fill="#707070" fill-rule="evenodd" stroke="none"/>
    <path d="M455.0 105.2 L454.75 101.2 457.4 101.65 461.85 103.0 465.4 107.85 465.65 110.3 462.55 110.55 461.0 110.3 455.0 105.2" fill="#707070" fill-rule="evenodd" stroke="none"/>
    <path d="M399.65 163.4 L398.75 160.3 401.2 161.85 403.2 164.3 402.1 166.3 399.65 163.4" fill="#707070" fill-rule="evenodd" stroke="none"/>
    <path d="M396.3 155.2 L394.75 155.65 395.0 156.55 391.4 150.75 392.1 148.55 394.1 146.3 395.65 147.2 398.55 153.2 397.0 155.2 396.3 155.2" fill="#707070" fill-rule="evenodd" stroke="none"/>
    <path d="M365.65 149.2 L371.65 147.0 374.75 145.2 377.4 144.75 382.75 149.85 390.75 155.4 393.4 158.3 390.75 161.2 390.55 168.3 386.3 171.2 381.0 168.1 377.85 168.75 375.4 168.75 371.65 167.2 370.75 163.85 366.55 162.75 361.65 160.3 361.85 154.3 362.75 149.4 365.65 149.2" fill="#707070" fill-rule="evenodd" stroke="none"/>
    <path d="M359.8 146.65 L361.15 144.0 362.15 142.65 363.8 142.15 366.8 142.15 367.3 143.65 364.0 146.8 359.8 146.65" fill="#707070" fill-rule="evenodd" stroke="none"/>
    <path d="M422.3 106.15 L424.0 105.8 425.5 105.8 428.5 103.0 430.0 102.5 432.15 104.0 434.3 107.15 435.65 110.3 435.15 111.65 433.3 115.15 428.0 115.5 424.15 115.3 421.0 115.5 418.15 116.3 416.8 115.15 417.65 113.5 417.65 111.65 418.15 110.5 418.5 109.0 419.65 107.65 422.3 106.15" fill="#707070" fill-rule="evenodd" stroke="none"/>
    <path d="M511.8 25.0 L513.3 24.3 515.15 24.65 518.8 28.15 519.5 29.5 520.15 32.5 520.65 31.15 522.65 32.65 525.15 30.0 527.8 28.8 528.0 35.0 528.5 36.5 526.0 35.3 524.3 34.0 523.5 36.0 522.8 40.15 521.8 41.3 519.5 41.65 517.65 41.15 517.5 42.3 517.15 43.3 516.0 44.15 511.15 45.0 508.3 44.3 505.3 43.15 504.8 39.8 503.5 35.65 504.3 34.15 507.5 31.5 509.0 29.65 511.8 25.0" fill="#707070" fill-rule="evenodd" stroke="none"/>
    <path d="M502.65 38.3 L500.3 40.8 497.65 40.8 495.8 39.5 500.15 37.15 501.65 37.0 502.65 38.3" fill="#707070" fill-rule="evenodd" stroke="none"/>
    <path d="M410.3 87.0 L409.2 85.75 409.1 84.85 410.85 83.65 413.0 83.0 415.85 83.75 417.1 84.65 417.0 86.1 415.3 86.55 413.75 87.55 417.75 89.65 420.75 90.75 424.0 90.3 426.0 91.55 426.65 93.55 426.1 95.85 425.75 98.85 424.2 101.3 421.75 102.2 418.4 102.3 412.4 98.65 411.2 96.55 406.55 92.85 407.0 91.55 409.55 90.2 411.75 88.1 410.3 87.0" fill="#707070" fill-rule="evenodd" stroke="none"/>
    <path d="M319.5 162.3 L317.3 162.15 310.0 154.65 309.15 152.8 309.3 151.15 309.8 149.65 313.15 149.65 317.0 152.3 322.0 161.0 319.5 162.3" fill="#707070" fill-rule="evenodd" stroke="none"/>
    <path d="M346.15 138.15 L335.3 131.65 332.0 127.65 332.5 125.0 334.0 123.5 337.65 123.15 343.0 127.65 348.15 133.15 349.0 136.5 347.8 137.8 346.15 138.15" fill="#707070" fill-rule="evenodd" stroke="none"/>
    <path d="M363.5 109.3 L365.65 111.5 366.3 113.8 365.3 115.5 362.3 115.8 350.15 109.5 348.8 105.0 349.65 103.5 351.8 102.0 354.65 102.5 363.5 109.3" fill="#707070" fill-rule="evenodd" stroke="none"/>
    <path d="M385.8 86.8 L389.5 90.5 389.15 92.8 387.65 95.0 385.5 95.3 376.15 92.75 374.0 90.5 372.65 86.8 373.3 84.65 378.8 83.65 385.8 86.8" fill="#707070" fill-rule="evenodd" stroke="none"/>
    <path d="M417.75 -64.0 L419.4 -62.25 422.55 -57.6 424.2 -56.0 429.55 -55.45 433.75 -53.15 436.2 -48.8 439.85 -44.15 439.85 -42.35 439.4 -40.25 437.75 -38.15 437.75 -36.15 439.55 -33.45 441.4 -31.7 439.55 -28.35 438.1 -26.8 435.75 -27.25 432.0 -30.7 430.75 -32.7 427.4 -32.15 424.0 -33.8 416.75 -44.25 417.2 -46.45 417.65 -50.9 414.3 -57.9 414.4 -60.9 417.75 -64.0" fill="#707070" fill-rule="evenodd" stroke="none"/>
    <path d="M402.8 -35.0 L405.0 -35.35 406.65 -34.7 407.3 -33.0 405.3 -29.35 413.8 -22.7 416.15 -20.5 415.8 -17.7 416.0 -15.7 417.3 -13.85 422.15 -11.35 423.8 -10.2 423.0 -6.0 420.8 -4.0 409.0 -7.2 406.5 -6.5 405.0 -5.7 402.0 -4.85 400.3 -5.2 390.8 -12.2 387.0 -16.2 387.3 -17.7 387.15 -21.0 386.5 -23.85 385.3 -26.5 383.3 -29.5 381.15 -31.85 380.65 -35.2 382.0 -37.7 384.8 -39.5 386.5 -39.0 391.3 -33.7 398.5 -33.0 400.3 -33.7 402.8 -35.0" fill="#707070" fill-rule="evenodd" stroke="none"/>
    <path d="M381.1 8.75 Q385.5 6.4 389.85 4.0 L391.55 4.55 392.65 7.2 391.2 10.3 386.2 14.85 380.55 17.4 380.4 20.2 379.2 23.75 379.0 25.75 377.0 28.1 375.3 29.0 372.3 29.0 368.0 28.2 357.0 17.75 355.3 14.4 355.75 11.65 357.55 9.85 358.0 7.4 354.2 -2.15 354.75 -4.0 360.1 -8.15 362.0 -7.0 367.0 -1.0 368.65 -0.8 371.4 -1.15 373.3 -0.9 376.2 4.1 377.65 4.2 379.1 6.0 379.3 7.55 379.85 8.65 381.1 8.75" fill="#707070" fill-rule="evenodd" stroke="none"/>
    <path d="M340.15 19.15 L342.8 20.5 342.5 22.65 340.65 28.3 344.0 28.3 356.8 43.3 358.15 45.8 358.0 48.65 356.65 50.65 357.3 52.65 359.8 54.15 359.65 57.3 357.8 59.5 357.3 62.0 354.3 61.65 351.8 60.15 350.3 60.3 347.0 61.0 346.0 59.65 344.5 59.5 341.3 60.65 339.3 60.15 326.15 44.0 325.8 41.8 326.8 35.3 323.5 27.0 323.65 25.8 324.8 24.15 331.5 23.5 332.3 22.15 335.15 20.0 340.15 19.15" fill="#707070" fill-rule="evenodd" stroke="none"/>
    <path d="M297.2 53.55 L298.4 52.4 300.3 52.55 302.1 53.75 302.75 55.2 303.65 58.2 305.65 58.65 308.1 58.0 321.65 68.2 325.4 71.55 325.85 72.75 325.4 77.4 326.0 78.4 328.3 79.85 330.75 80.4 331.2 81.75 330.65 84.4 328.0 87.3 323.85 88.2 318.0 86.75 316.2 89.2 314.0 91.2 310.75 90.1 295.4 78.65 294.2 76.55 294.0 75.3 294.0 73.4 292.85 69.55 288.85 62.75 288.75 61.4 291.55 59.1 292.4 58.75 294.85 56.75 297.2 53.55" fill="#707070" fill-rule="evenodd" stroke="none"/>
    <path d="M257.85 76.75 L257.85 74.1 261.85 74.1 264.55 72.75 267.0 74.75 271.4 83.85 275.65 85.2 279.4 87.4 287.65 108.75 284.75 112.1 285.2 114.55 286.3 117.85 288.1 120.55 291.0 123.2 289.65 125.2 286.55 128.3 283.0 127.65 280.3 126.1 274.55 119.85 271.85 117.65 268.3 117.85 266.1 117.4 258.55 99.4 258.1 94.1 259.65 91.4 260.1 88.75 259.4 83.2 257.85 76.75" fill="#707070" fill-rule="evenodd" stroke="none"/>
    <path d="M256.1 137.2 L253.2 139.65 245.0 136.1 240.3 135.0 235.85 137.4 232.75 136.1 219.65 127.85 217.2 124.1 219.2 121.0 219.2 118.75 214.1 112.75 215.4 109.65 219.65 105.65 221.2 105.85 224.55 111.0 229.2 107.65 232.1 107.65 244.1 116.3 246.75 117.85 248.3 122.3 250.1 124.55 253.0 126.1 253.2 130.1 254.75 130.55 257.0 132.3 256.1 137.2" fill="#707070" fill-rule="evenodd" stroke="none"/>
    <path d="M201.15 131.5 L202.15 138.65 203.65 142.0 205.65 142.5 207.8 143.5 210.3 153.5 211.15 155.3 212.8 156.15 218.5 158.0 217.3 159.8 215.15 162.3 211.8 164.5 210.65 168.3 211.5 172.15 214.3 177.15 212.8 177.5 207.8 179.65 205.65 179.15 204.0 176.65 201.8 172.15 199.3 169.3 197.8 168.65 195.3 168.3 193.0 166.8 190.5 162.0 187.0 149.0 188.15 147.8 190.8 145.65 193.0 139.5 193.0 136.3 193.8 133.0 196.5 131.0 201.15 131.5" fill="#707070" fill-rule="evenodd" stroke="none"/>
  </g>
</svg>
