<?xml version="1.0" encoding="UTF-8" standalone="no"?>
<svg xmlns:ffdec="https://www.free-decompiler.com/flash" xmlns:xlink="http://www.w3.org/1999/xlink" ffdec:objectType="shape" height="1060.0px" width="1666.65px" xmlns="http://www.w3.org/2000/svg">
  <g transform="matrix(1.0, 0.0, 0.0, 1.0, 834.15, 531.0)">
    <path d="M603.2 -443.05 L650.55 -406.5 693.5 -364.45 731.5 -317.5 764.1 -266.2 790.75 -211.25 811.15 -153.45 825.05 -93.6 832.2 -32.4 832.5 29.2 826.05 90.5 812.8 150.55 793.05 208.55 766.95 263.8 734.95 315.5 697.45 362.9 654.95 405.5 608.05 442.55 557.3 473.7 503.5 498.4 447.3 516.45 399.95 525.5 370.65 528.5 330.9 529.0 -333.5 529.0 -370.65 528.55 -402.15 525.4 -448.95 516.45 -505.15 498.4 -558.95 473.7 -609.65 442.55 -656.6 405.5 -699.1 362.9 -736.6 315.5 -768.6 263.8 -794.65 208.55 -814.45 150.55 -827.65 90.5 -834.15 29.2 -833.8 -32.4 -826.65 -93.6 -812.8 -153.45 -792.35 -211.25 -765.7 -266.2 -733.15 -317.5 -695.1 -364.45 -652.15 -406.5 -604.85 -443.05 -553.8 -473.55 -499.7 -497.6 -443.3 -514.95 -390.4 -524.4 -333.8 -531.0 332.15 -531.0 388.8 -524.4 441.7 -514.95 498.05 -497.6 552.15 -473.55 603.2 -443.05" fill="#707070" fill-rule="evenodd" stroke="none"/>
    <path d="M524.55 -428.95 L573.05 -401.35 618.0 -368.25 658.8 -330.2 694.95 -287.6 725.9 -241.15 751.2 -191.45 770.6 -139.1 783.8 -84.85 790.6 -29.45 790.9 26.35 784.75 81.85 772.2 136.25 753.4 188.8 728.65 238.8 698.2 285.65 662.6 328.6 622.2 367.15 577.6 400.7 529.45 428.9 478.3 451.3 424.95 467.6 371.0 477.45 361.65 478.45 314.3 479.0 -316.9 479.0 -360.95 478.5 -374.0 477.2 -426.55 467.6 -479.95 451.3 -531.05 428.9 -579.25 400.7 -623.85 367.15 -664.2 328.6 -699.85 285.65 -730.25 238.8 -755.0 188.8 -773.8 136.25 -786.35 81.85 -792.55 26.35 -792.2 -29.45 -785.4 -84.85 -772.25 -139.1 -752.85 -191.45 -727.5 -241.15 -696.55 -287.6 -660.45 -330.2 -619.65 -368.25 -574.65 -401.35 -526.15 -428.95 -474.8 -450.75 -421.25 -466.5 -375.05 -474.35 -366.25 -476.75 -317.15 -494.65 -217.35 -514.7 216.0 -514.7 315.55 -494.65 363.55 -477.15 373.85 -474.25 419.6 -466.5 473.15 -450.75 524.55 -428.95" fill="#434343" fill-rule="evenodd" stroke="none"/>
    <path d="M392.8 -313.4 L394.35 -319.45 410.25 -314.8 446.15 -299.55 474.6 -283.35 471.2 -278.5 494.05 -262.55 497.45 -267.45 511.5 -257.1 516.9 -252.05 510.15 -245.55 511.8 -243.85 519.7 -251.35 519.7 -251.4 539.5 -271.2 571.25 -239.45 543.9 -212.3 545.55 -210.65 551.8 -216.6 560.6 -206.25 556.1 -202.95 572.75 -180.6 576.7 -183.55 586.85 -168.3 604.6 -133.55 615.3 -104.65 610.65 -103.6 616.8 -76.45 622.8 -77.8 627.35 -59.05 632.1 -20.35 632.3 15.7 628.0 54.45 625.0 67.45 618.95 66.05 612.75 93.2 618.5 94.5 606.1 129.2 588.8 164.2 582.0 174.6 578.35 171.9 561.75 194.2 566.7 197.9 551.35 216.4 545.8 211.1 544.15 212.75 553.6 221.95 553.6 221.85 571.25 239.5 539.5 271.25 518.35 250.1 518.25 250.2 512.05 244.3 510.4 246.0 516.5 251.9 514.4 253.85 505.8 260.35 503.0 256.35 480.15 272.25 483.5 277.1 483.25 277.35 449.6 297.05 413.85 312.7 403.65 315.8 402.25 310.35 375.25 317.3 376.95 323.95 375.85 324.3 336.5 329.95 299.25 330.35 206.3 330.35 165.7 346.65 163.0 346.65 163.0 348.15 165.1 348.15 165.1 381.3 135.1 381.3 135.1 348.15 137.2 348.15 137.2 346.65 129.65 346.65 129.65 348.15 131.75 348.15 131.75 381.3 101.75 381.3 101.75 348.15 103.85 348.15 103.85 346.65 96.3 346.65 96.3 348.15 98.4 348.15 98.4 381.3 68.4 381.3 68.4 348.15 70.55 348.15 70.55 346.65 63.0 346.65 63.0 348.15 65.1 348.15 65.1 381.3 35.1 381.3 35.1 348.15 37.2 348.15 37.2 346.65 29.65 346.65 29.65 348.15 31.75 348.15 31.75 381.3 1.75 381.3 1.75 348.15 3.85 348.15 3.85 346.65 -3.7 346.65 -3.7 348.15 -1.6 348.15 -1.6 381.3 -31.6 381.3 -31.6 348.15 -29.45 348.15 -29.45 346.65 -37.0 346.65 -37.0 348.15 -34.9 348.15 -34.9 381.3 -64.9 381.3 -64.9 348.15 -62.8 348.15 -62.8 346.65 -70.35 346.65 -70.35 348.15 -68.25 348.15 -68.25 381.3 -98.25 381.3 -98.25 348.15 -96.15 348.15 -96.15 346.65 -103.7 346.65 -103.7 348.15 -101.6 348.15 -101.6 381.3 -131.6 381.3 -131.6 348.15 -129.45 348.15 -129.45 346.65 -137.0 346.65 -137.0 348.15 -134.9 348.15 -134.9 381.3 -164.9 381.3 -164.9 348.15 -162.8 348.15 -162.8 346.65 -166.7 346.65 -205.0 330.35 -301.05 330.35 -338.15 329.95 -367.0 325.8 -365.4 319.65 -392.4 312.7 -394.1 319.2 -415.45 312.7 -451.2 297.05 -474.7 283.25 -470.55 277.25 -493.35 261.35 -497.75 267.6 -516.05 253.85 -517.05 252.9 -509.85 245.85 -511.5 244.2 -518.85 251.2 -519.15 250.85 -539.55 271.25 -571.3 239.5 -553.1 221.25 -553.05 221.85 -543.6 212.65 -545.25 211.0 -552.1 217.5 -561.75 205.8 -555.9 201.45 -572.55 179.1 -578.05 183.2 -590.4 164.2 -607.7 129.2 -616.8 103.75 -610.05 102.2 -616.2 75.05 -624.45 76.95 -629.65 54.45 -633.95 15.7 -633.7 -20.35 -628.95 -59.05 -626.9 -67.55 -619.65 -65.9 -613.5 -93.05 -620.35 -94.6 -619.75 -96.95 -606.2 -133.55 -588.5 -168.3 -583.85 -175.25 -578.1 -170.95 -561.45 -193.25 -568.4 -198.45 -566.9 -200.75 -552.75 -217.4 -545.5 -210.55 -543.85 -212.2 -571.3 -239.45 -539.55 -271.2 -519.65 -251.3 -519.65 -251.25 -511.75 -243.75 -510.1 -245.4 -517.7 -252.8 -513.1 -257.1 -506.5 -261.95 -502.35 -256.05 -479.55 -272.0 -484.05 -278.5 -481.65 -280.25 -447.8 -299.55 -411.85 -314.8 -404.7 -316.9 -402.95 -310.2 -376.0 -317.1 -377.95 -324.75 -374.45 -325.75 -335.3 -332.45 -293.95 -333.0 -205.0 -333.0 -166.7 -346.7 -162.8 -346.7 -162.8 -348.35 -164.9 -348.35 -164.9 -381.5 -134.9 -381.5 -134.9 -348.35 -137.0 -348.35 -137.0 -346.7 -129.45 -346.7 -129.45 -348.35 -131.6 -348.35 -131.6 -381.5 -101.6 -381.5 -101.6 -348.35 -103.7 -348.35 -103.7 -346.7 -96.15 -346.7 -96.15 -348.35 -98.25 -348.35 -98.25 -381.5 -68.25 -381.5 -68.25 -348.35 -70.35 -348.35 -70.35 -346.7 -62.8 -346.7 -62.8 -348.35 -64.9 -348.35 -64.9 -381.5 -34.9 -381.5 -34.9 -348.35 -37.0 -348.35 -37.0 -346.7 -29.45 -346.7 -29.45 -348.35 -31.6 -348.35 -31.6 -381.5 -1.6 -381.5 -1.6 -348.35 -3.7 -348.35 -3.7 -346.7 3.85 -346.7 3.85 -348.35 1.75 -348.35 1.75 -381.5 31.75 -381.5 31.75 -348.35 29.65 -348.35 29.65 -346.7 37.2 -346.7 37.2 -348.35 35.1 -348.35 35.1 -381.5 65.1 -381.5 65.1 -348.35 63.0 -348.35 63.0 -346.7 70.55 -346.7 70.55 -348.35 68.4 -348.35 68.4 -381.5 98.4 -381.5 98.4 -348.35 96.3 -348.35 96.3 -346.7 103.85 -346.7 103.85 -348.35 101.75 -348.35 101.75 -381.5 131.75 -381.5 131.75 -348.35 129.65 -348.35 129.65 -346.7 137.2 -346.7 137.2 -348.35 135.1 -348.35 135.1 -381.5 165.1 -381.5 165.1 -348.35 163.0 -348.35 163.0 -346.7 165.7 -346.7 206.3 -333.0 292.85 -333.0 333.65 -332.45 367.45 -326.7 365.8 -320.35 392.8 -313.4" fill="#707070" fill-rule="evenodd" stroke="none"/>
    <path d="M387.65 -287.0 L417.3 -276.0 468.0 -250.0 505.0 -218.35 535.65 -185.7 556.0 -156.7 570.65 -128.7 587.0 -89.0 599.3 -28.0 600.1 9.85 598.55 31.2 593.4 63.65 581.65 104.8 562.8 147.0 539.0 183.4 510.3 217.0 470.75 249.0 436.55 270.1 389.0 288.3 345.0 299.0 305.5 301.0 -291.0 301.0 -330.5 299.5 -389.45 289.4 -425.45 274.0 -458.35 256.3 -492.35 231.65 -515.7 210.3 -535.0 187.0 -554.35 159.65 -571.0 128.3 -583.0 99.0 -593.0 65.65 -600.35 21.0 -599.7 -23.0 -595.0 -53.0 -586.35 -86.35 -575.7 -117.7 -565.0 -139.7 -541.7 -175.7 -519.7 -203.7 -495.7 -227.0 -469.0 -247.0 -446.35 -261.0 -411.0 -279.0 -380.35 -287.7 -337.0 -297.0 -307.0 -302.0 295.0 -302.35 335.0 -298.35 387.65 -287.0" fill="#969696" fill-rule="evenodd" stroke="none"/>
    <path d="M331.0 -296.6 L304.2 -299.5 284.15 -300.0 -289.7 -300.0 -305.2 -299.2 -330.85 -296.0 -366.15 -290.0 -399.5 -280.2 -431.5 -266.65 -461.65 -249.45 -489.65 -228.85 -515.05 -205.15 -537.55 -178.65 -556.8 -149.75 -572.55 -118.8 -584.65 -86.2 -592.85 -52.45 -597.05 -17.95 -597.25 16.75 -593.45 51.3 -585.6 85.15 -573.9 117.85 -558.5 149.0 -539.6 178.15 -517.4 204.85 -492.25 228.85 -464.5 249.75 -434.55 267.3 Q-418.6 274.3 -402.7 281.25 L-369.5 291.4 -329.6 297.7 304.2 297.8 347.6 295.5 370.2 291.4 403.4 281.25 Q419.35 274.3 435.25 267.3 L465.25 249.75 493.0 228.85 518.1 204.85 540.3 178.15 559.2 149.0 574.65 117.85 586.3 85.15 594.15 51.3 598.0 16.75 597.8 -17.95 593.55 -52.45 585.35 -86.2 573.25 -118.8 557.5 -149.75 538.25 -178.65 515.75 -205.15 490.35 -228.85 462.4 -249.45 432.2 -266.65 400.2 -280.2 366.9 -290.0 331.0 -296.6 M304.6 -304.5 L331.65 -301.7 368.0 -294.85 401.9 -284.9 434.4 -271.1 465.1 -253.65 493.55 -232.7 519.4 -208.6 542.25 -181.7 561.85 -152.3 577.85 -120.8 590.15 -87.7 598.45 -53.35 602.75 -18.3 603.0 17.05 599.1 52.15 591.15 86.55 579.25 119.8 563.55 151.45 544.3 181.1 521.75 208.3 496.2 232.65 468.0 253.95 437.5 271.75 405.15 285.95 371.4 296.25 348.2 300.5 304.35 302.8 -330.0 302.7 -370.6 296.3 -404.45 285.95 -436.8 271.75 -467.3 253.95 -495.5 232.65 -521.05 208.3 -543.6 181.1 -562.85 151.45 -578.55 119.8 -590.4 86.55 -598.35 52.15 -602.25 17.05 -602.05 -18.3 -597.75 -53.35 -589.4 -87.7 -577.15 -120.8 -561.1 -152.3 -541.55 -181.7 -518.7 -208.6 -492.85 -232.7 -464.4 -253.65 -433.7 -271.1 -401.2 -284.9 -367.25 -294.85 -330.3 -300.75 -305.85 -304.2 -289.9 -305.0 284.2 -305.0 304.6 -304.5" fill="#828282" fill-rule="evenodd" stroke="none"/>
    <path d="M311.5 -157.4 L323.7 -145.15 334.85 -131.9 344.9 -117.65 353.75 -102.6 361.35 -86.8 367.6 -70.35 372.55 -53.45 376.1 -36.15 378.25 -18.6 379.0 -0.9 378.25 16.8 376.1 34.35 372.55 51.65 367.6 68.55 361.35 84.95 353.75 100.75 344.9 115.85 334.85 130.05 323.7 143.35 311.5 155.6 298.4 166.7 284.4 176.65 269.7 185.25 254.3 192.55 238.4 198.45 222.05 202.9 205.45 205.9 188.65 207.4 -101.7 207.4 -97.7 197.5 -97.85 183.15 -107.35 165.3 -122.5 157.15 -142.2 156.5 -159.5 165.65 -167.5 181.0 -169.0 195.3 -164.7 207.4 -188.0 207.4 -204.8 205.9 -221.45 202.9 -237.8 198.45 -253.7 192.55 -269.05 185.25 -283.8 176.65 -297.8 166.7 -310.9 155.6 -323.1 143.35 -334.25 130.05 -344.25 115.85 -353.1 100.75 -360.7 84.95 -367.0 68.55 -371.95 51.65 -375.5 34.35 -377.65 16.8 -378.35 -0.9 -377.65 -18.6 -375.5 -36.15 -371.95 -53.45 -367.0 -70.35 -360.7 -86.8 -353.1 -102.6 -344.25 -117.65 -334.25 -131.9 -323.1 -145.15 -310.9 -157.4 -297.8 -168.55 -283.8 -178.45 -269.05 -187.05 -253.7 -194.35 -237.8 -200.25 -221.45 -204.7 -204.8 -207.7 -188.0 -209.2 103.0 -209.2 98.3 -197.5 98.65 -180.7 107.5 -165.85 121.8 -157.0 137.5 -155.35 152.65 -160.7 162.65 -169.2 169.3 -184.7 168.5 -197.5 164.3 -209.2 188.65 -209.2 205.45 -207.7 222.05 -204.7 238.4 -200.25 254.3 -194.35 269.7 -187.05 284.4 -178.45 298.4 -168.55 311.5 -157.4" fill="#7f7f7f" fill-rule="evenodd" stroke="none"/>
    <path d="M-437.8 184.35 L-435.15 180.25 -431.95 176.6 -428.25 173.45 -424.1 170.85 -419.65 168.8 -414.95 167.45 -410.1 166.75 -405.2 166.75 -400.35 167.45 -395.65 168.8 -391.2 170.85 -387.1 173.45 -383.4 176.6 -380.2 180.25 -377.55 184.35 -375.5 188.7 -374.1 193.35 -373.4 198.15 -373.4 203.0 -374.1 207.75 -375.5 212.4 -377.55 216.8 -380.2 220.85 -383.4 224.5 -387.1 227.7 -391.2 230.3 -395.65 232.3 -400.35 233.65 -405.2 234.35 -410.1 234.35 -414.95 233.65 -419.65 232.3 -424.1 230.3 -428.25 227.7 -431.95 224.5 -435.15 220.85 -437.8 216.8 -439.8 212.4 -441.2 207.75 -441.9 203.0 -441.9 198.15 -441.2 193.35 -439.8 188.7 -437.8 184.35" fill="#707070" fill-rule="evenodd" stroke="none"/>
    <path d="M-155.85 160.6 L-151.35 157.75 -146.45 155.55 -141.35 154.1 -136.05 153.35 -130.7 153.35 -125.4 154.1 -120.25 155.55 -115.4 157.75 -110.9 160.6 -106.85 164.05 -103.35 168.05 -100.45 172.5 -98.25 177.3 -96.75 182.35 -96.0 187.6 -96.0 192.85 -96.75 198.1 -98.25 203.15 -100.45 207.95 -103.35 212.4 -106.3 215.75 -101.05 203.05 -99.7 198.4 -99.0 193.6 -99.0 188.75 -99.7 184.0 -101.05 179.35 -103.1 174.95 -105.75 170.85 -108.95 167.2 -112.65 164.05 -116.8 161.4 -121.25 159.4 -125.95 158.05 -130.8 157.35 -135.7 157.35 -140.55 158.05 -145.25 159.4 -149.75 161.4 -153.85 164.05 -157.55 167.2 -160.75 170.85 -163.4 174.95 -165.45 179.35 -166.85 184.0 -167.55 188.75 -167.55 193.6 -166.85 198.4 -165.45 203.05 -163.4 207.45 -160.75 211.5 -157.05 218.8 -159.85 216.4 -163.35 212.4 -166.25 207.95 -168.5 203.15 -170.0 198.1 -170.75 192.85 -170.75 187.6 -170.0 182.35 -168.5 177.3 -166.25 172.5 -163.35 168.05 -159.85 164.05 -155.85 160.6" fill="#707070" fill-rule="evenodd" stroke="none"/>
    <path d="M-187.35 -25.85 L-182.7 -23.8 -178.4 -21.05 -174.55 -17.75 -171.2 -13.95 -168.45 -9.7 -166.35 -5.1 -164.9 -0.3 -164.15 4.7 -164.15 9.75 -164.9 14.75 -166.35 19.55 -168.45 24.15 -171.2 28.4 -174.55 32.2 -178.4 35.5 -182.7 38.25 -187.35 40.35 -192.25 41.75 -197.3 42.45 -202.4 42.45 -207.45 41.75 -212.35 40.35 -217.0 38.25 -221.3 35.5 -225.15 32.2 -228.5 28.4 -231.25 24.15 -233.4 19.55 -234.85 14.75 -235.55 9.75 -235.55 4.7 -234.85 -0.3 -233.4 -5.1 -231.25 -9.7 -228.5 -13.95 -225.15 -17.75 -221.3 -21.05 -217.0 -23.8 -212.35 -25.85 -207.45 -27.3 -202.4 -28.0 -197.3 -28.0 -192.25 -27.3 -187.35 -25.85" fill="#707070" fill-rule="evenodd" stroke="none"/>
    <path d="M103.45 -212.1 L106.95 -216.1 109.05 -217.85 105.9 -211.75 103.25 -207.65 101.2 -203.25 99.85 -198.6 99.15 -193.85 99.15 -189.0 99.85 -184.2 101.2 -179.55 103.25 -175.15 105.9 -171.1 109.1 -167.45 112.8 -164.25 116.95 -161.65 121.4 -159.65 126.1 -158.25 130.95 -157.6 135.85 -157.6 140.7 -158.25 145.4 -159.65 149.9 -161.65 154.0 -164.25 157.7 -167.45 160.9 -171.1 163.55 -175.15 165.6 -179.55 167.0 -184.2 167.7 -189.0 167.7 -193.85 167.0 -198.6 165.6 -203.25 160.6 -215.4 163.45 -212.1 166.35 -207.65 168.6 -202.85 170.1 -197.8 170.85 -192.6 170.85 -187.3 170.1 -182.05 168.6 -177.0 166.35 -172.2 163.45 -167.75 159.95 -163.8 155.95 -160.3 151.45 -157.45 146.55 -155.25 141.45 -153.8 136.15 -153.05 130.8 -153.05 125.5 -153.8 120.35 -155.25 115.5 -157.45 111.0 -160.3 106.95 -163.8 103.45 -167.75 100.55 -172.2 98.35 -177.0 96.85 -182.05 96.1 -187.3 96.1 -192.6 96.85 -197.8 98.35 -202.85 100.55 -207.65 103.45 -212.1" fill="#707070" fill-rule="evenodd" stroke="none"/>
    <path d="M355.35 -210.45 L361.6 -214.4 368.35 -217.45 375.45 -219.5 382.75 -220.55 390.2 -220.55 397.5 -219.5 404.65 -217.45 411.35 -214.4 417.6 -210.45 423.2 -205.7 428.05 -200.15 432.05 -194.0 435.15 -187.35 437.2 -180.35 438.25 -173.1 438.25 -165.8 437.2 -158.55 435.15 -151.55 432.05 -144.9 428.05 -138.7 423.2 -133.2 417.6 -128.4 411.35 -124.45 404.65 -121.4 397.5 -119.35 390.2 -118.3 382.75 -118.3 375.45 -119.35 368.35 -121.4 361.6 -124.45 355.35 -128.4 349.75 -133.2 344.9 -138.7 340.9 -144.9 337.8 -151.55 335.75 -158.55 334.7 -165.8 334.7 -173.1 335.75 -180.35 337.8 -187.35 340.9 -194.0 344.9 -200.15 349.75 -205.7 355.35 -210.45" fill="#707070" fill-rule="evenodd" stroke="none"/>
    <path d="M-219.05 -214.05 L-216.9 -221.7 -213.7 -228.9 -209.55 -235.6 -204.55 -241.6 -198.75 -246.85 -192.25 -251.15 -185.3 -254.45 -177.95 -256.7 -170.35 -257.8 -162.65 -257.8 -155.05 -256.7 -147.7 -254.45 -140.7 -251.15 -134.25 -246.85 -128.45 -241.6 -123.45 -235.6 -119.3 -228.9 -116.1 -221.7 -113.95 -214.05 -112.85 -206.2 -112.85 -198.2 -113.95 -190.35 -116.1 -182.7 -119.3 -175.5 -123.45 -168.8 -128.45 -162.8 -134.25 -157.55 -140.7 -153.25 -147.7 -149.95 -155.05 -147.7 -162.65 -146.6 -170.35 -146.6 -177.95 -147.7 -185.3 -149.95 -192.25 -153.25 -198.75 -157.55 -204.55 -162.8 -209.55 -168.8 -213.7 -175.5 -216.9 -182.7 -219.05 -190.35 -220.15 -198.2 -220.15 -206.2 -219.05 -214.05" fill="#707070" fill-rule="evenodd" stroke="none"/>
    <path d="M115.8 180.7 L118.95 173.35 123.1 166.5 128.15 160.35 133.95 155.05 140.4 150.65 147.35 147.3 154.75 145.0 162.35 143.85 170.0 143.85 177.6 145.0 184.95 147.3 191.95 150.65 198.4 155.05 204.2 160.35 209.2 166.5 213.35 173.35 216.55 180.7 218.7 188.5 219.8 196.5 219.8 204.65 218.7 212.65 216.55 220.45 213.35 227.85 209.2 234.65 204.2 240.8 198.4 246.1 191.95 250.5 184.95 253.85 177.6 256.15 170.0 257.3 162.35 257.3 154.75 256.15 147.35 253.85 140.4 250.5 133.95 246.1 128.15 240.8 123.1 234.65 118.95 227.85 115.8 220.45 113.6 212.65 112.5 204.65 112.5 196.5 113.6 188.5 115.8 180.7" fill="#707070" fill-rule="evenodd" stroke="none"/>
  </g>
</svg>
