<?xml version="1.0" encoding="UTF-8" standalone="no"?>
<svg xmlns:ffdec="https://www.free-decompiler.com/flash" xmlns:xlink="http://www.w3.org/1999/xlink" ffdec:objectType="shape" height="1060.0px" width="1666.65px" xmlns="http://www.w3.org/2000/svg">
  <g transform="matrix(1.0, 0.0, 0.0, 1.0, 834.15, 531.0)">
    <path d="M603.2 -443.05 L650.55 -406.5 693.5 -364.45 731.5 -317.5 764.1 -266.2 790.75 -211.25 811.15 -153.45 825.05 -93.6 832.2 -32.4 832.5 29.2 826.05 90.5 812.8 150.55 793.05 208.55 766.95 263.8 734.95 315.5 697.45 362.9 654.95 405.5 608.05 442.55 557.3 473.7 503.5 498.4 447.3 516.45 399.95 525.5 370.65 528.5 330.9 529.0 -333.5 529.0 -370.65 528.55 -402.15 525.4 -448.95 516.45 -505.15 498.4 -558.95 473.7 -609.65 442.55 -656.6 405.5 -699.1 362.9 -736.6 315.5 -768.6 263.8 -794.65 208.55 -814.45 150.55 -827.65 90.5 -834.15 29.2 -833.8 -32.4 -826.65 -93.6 -812.8 -153.45 -792.35 -211.25 -765.7 -266.2 -733.15 -317.5 -695.1 -364.45 -652.15 -406.5 -604.85 -443.05 -553.8 -473.55 -499.7 -497.6 -443.3 -514.95 -390.4 -524.4 -333.8 -531.0 332.15 -531.0 388.8 -524.4 441.7 -514.95 498.05 -497.6 552.15 -473.55 603.2 -443.05" fill="#707070" fill-rule="evenodd" stroke="none"/>
    <path d="M524.55 -428.95 L573.05 -401.35 618.0 -368.25 658.8 -330.2 694.95 -287.6 725.9 -241.15 751.2 -191.45 770.6 -139.1 783.8 -84.85 790.6 -29.45 790.9 26.35 784.75 81.85 772.2 136.25 753.4 188.8 728.65 238.8 698.2 285.65 662.6 328.6 622.2 367.15 577.6 400.7 529.45 428.9 478.3 451.3 424.95 467.6 371.0 477.45 361.65 478.45 314.3 479.0 -316.9 479.0 -360.95 478.5 -374.0 477.2 -426.55 467.6 -479.95 451.3 -531.05 428.9 -579.25 400.7 -623.85 367.15 -664.2 328.6 -699.85 285.65 -730.25 238.8 -755.0 188.8 -773.8 136.25 -786.35 81.85 -792.55 26.35 -792.2 -29.45 -785.4 -84.85 -772.25 -139.1 -752.85 -191.45 -727.5 -241.15 -696.55 -287.6 -660.45 -330.2 -619.65 -368.25 -574.65 -401.35 -526.15 -428.95 -474.8 -450.75 -421.25 -466.5 -375.05 -474.35 -366.25 -476.75 -317.15 -494.65 -217.35 -514.7 216.0 -514.7 315.55 -494.65 363.55 -477.15 373.85 -474.25 419.6 -466.5 473.15 -450.75 524.55 -428.95" fill="#434343" fill-rule="evenodd" stroke="none"/>
    <path d="M392.8 -313.4 L394.35 -319.45 410.25 -314.8 446.15 -299.55 474.6 -283.35 471.2 -278.5 494.05 -262.55 497.45 -267.45 511.5 -257.1 516.9 -252.05 510.15 -245.55 511.8 -243.85 519.7 -251.35 519.7 -251.4 539.5 -271.2 571.25 -239.45 543.9 -212.3 545.55 -210.65 551.8 -216.6 560.6 -206.25 556.1 -202.95 572.75 -180.6 576.7 -183.55 586.85 -168.3 604.6 -133.55 615.3 -104.65 610.65 -103.6 616.8 -76.45 622.8 -77.8 627.35 -59.05 632.1 -20.35 632.3 15.7 628.0 54.45 625.0 67.45 618.95 66.05 612.75 93.2 618.5 94.5 606.1 129.2 588.8 164.2 582.0 174.6 578.35 171.9 561.75 194.2 566.7 197.9 551.35 216.4 545.8 211.1 544.15 212.75 553.6 221.95 553.6 221.85 571.25 239.5 539.5 271.25 518.35 250.1 518.25 250.2 512.05 244.3 510.4 246.0 516.5 251.9 514.4 253.85 505.8 260.35 503.0 256.35 480.15 272.25 483.5 277.1 483.25 277.35 449.6 297.05 413.85 312.7 403.65 315.8 402.25 310.35 375.25 317.3 376.95 323.95 375.85 324.3 336.5 329.95 299.25 330.35 206.3 330.35 165.7 346.65 163.0 346.65 163.0 348.15 165.1 348.15 165.1 381.3 135.1 381.3 135.1 348.15 137.2 348.15 137.2 346.65 129.65 346.65 129.65 348.15 131.75 348.15 131.75 381.3 101.75 381.3 101.75 348.15 103.85 348.15 103.85 346.65 96.3 346.65 96.3 348.15 98.4 348.15 98.4 381.3 68.4 381.3 68.4 348.15 70.55 348.15 70.55 346.65 63.0 346.65 63.0 348.15 65.1 348.15 65.1 381.3 35.1 381.3 35.1 348.15 37.2 348.15 37.2 346.65 29.65 346.65 29.65 348.15 31.75 348.15 31.75 381.3 1.75 381.3 1.75 348.15 3.85 348.15 3.85 346.65 -3.7 346.65 -3.7 348.15 -1.6 348.15 -1.6 381.3 -31.6 381.3 -31.6 348.15 -29.45 348.15 -29.45 346.65 -37.0 346.65 -37.0 348.15 -34.9 348.15 -34.9 381.3 -64.9 381.3 -64.9 348.15 -62.8 348.15 -62.8 346.65 -70.35 346.65 -70.35 348.15 -68.25 348.15 -68.25 381.3 -98.25 381.3 -98.25 348.15 -96.15 348.15 -96.15 346.65 -103.7 346.65 -103.7 348.15 -101.6 348.15 -101.6 381.3 -131.6 381.3 -131.6 348.15 -129.45 348.15 -129.45 346.65 -137.0 346.65 -137.0 348.15 -134.9 348.15 -134.9 381.3 -164.9 381.3 -164.9 348.15 -162.8 348.15 -162.8 346.65 -166.7 346.65 -205.0 330.35 -301.05 330.35 -338.15 329.95 -367.0 325.8 -365.4 319.65 -392.4 312.7 -394.1 319.2 -415.45 312.7 -451.2 297.05 -474.7 283.25 -470.55 277.25 -493.35 261.35 -497.75 267.6 -516.05 253.85 -517.05 252.9 -509.85 245.85 -511.5 244.2 -518.85 251.2 -519.15 250.85 -539.55 271.25 -571.3 239.5 -553.1 221.25 -553.05 221.85 -543.6 212.65 -545.25 211.0 -552.1 217.5 -561.75 205.8 -555.9 201.45 -572.55 179.1 -578.05 183.2 -590.4 164.2 -607.7 129.2 -616.8 103.75 -610.05 102.2 -616.2 75.05 -624.45 76.95 -629.65 54.45 -633.95 15.7 -633.7 -20.35 -628.95 -59.05 -626.9 -67.55 -619.65 -65.9 -613.5 -93.05 -620.35 -94.6 -619.75 -96.95 -606.2 -133.55 -588.5 -168.3 -583.85 -175.25 -578.1 -170.95 -561.45 -193.25 -568.4 -198.45 -566.9 -200.75 -552.75 -217.4 -545.5 -210.55 -543.85 -212.2 -571.3 -239.45 -539.55 -271.2 -519.65 -251.3 -519.65 -251.25 -511.75 -243.75 -510.1 -245.4 -517.7 -252.8 -513.1 -257.1 -506.5 -261.95 -502.35 -256.05 -479.55 -272.0 -484.05 -278.5 -481.65 -280.25 -447.8 -299.55 -411.85 -314.8 -404.7 -316.9 -402.95 -310.2 -376.0 -317.1 -377.95 -324.75 -374.45 -325.75 -335.3 -332.45 -293.95 -333.0 -205.0 -333.0 -166.7 -346.7 -162.8 -346.7 -162.8 -348.35 -164.9 -348.35 -164.9 -381.5 -134.9 -381.5 -134.9 -348.35 -137.0 -348.35 -137.0 -346.7 -129.45 -346.7 -129.45 -348.35 -131.6 -348.35 -131.6 -381.5 -101.6 -381.5 -101.6 -348.35 -103.7 -348.35 -103.7 -346.7 -96.15 -346.7 -96.15 -348.35 -98.25 -348.35 -98.25 -381.5 -68.25 -381.5 -68.25 -348.35 -70.35 -348.35 -70.35 -346.7 -62.8 -346.7 -62.8 -348.35 -64.9 -348.35 -64.9 -381.5 -34.9 -381.5 -34.9 -348.35 -37.0 -348.35 -37.0 -346.7 -29.45 -346.7 -29.45 -348.35 -31.6 -348.35 -31.6 -381.5 -1.6 -381.5 -1.6 -348.35 -3.7 -348.35 -3.7 -346.7 3.85 -346.7 3.85 -348.35 1.75 -348.35 1.75 -381.5 31.75 -381.5 31.75 -348.35 29.65 -348.35 29.65 -346.7 37.2 -346.7 37.2 -348.35 35.1 -348.35 35.1 -381.5 65.1 -381.5 65.1 -348.35 63.0 -348.35 63.0 -346.7 70.55 -346.7 70.55 -348.35 68.4 -348.35 68.4 -381.5 98.4 -381.5 98.4 -348.35 96.3 -348.35 96.3 -346.7 103.85 -346.7 103.85 -348.35 101.75 -348.35 101.75 -381.5 131.75 -381.5 131.75 -348.35 129.65 -348.35 129.65 -346.7 137.2 -346.7 137.2 -348.35 135.1 -348.35 135.1 -381.5 165.1 -381.5 165.1 -348.35 163.0 -348.35 163.0 -346.7 165.7 -346.7 206.3 -333.0 292.85 -333.0 333.65 -332.45 367.45 -326.7 365.8 -320.35 392.8 -313.4" fill="#707070" fill-rule="evenodd" stroke="none"/>
    <path d="M387.65 -287.0 L417.3 -276.0 468.0 -250.0 505.0 -218.35 535.65 -185.7 556.0 -156.7 570.65 -128.7 587.0 -89.0 599.3 -28.0 600.1 9.85 598.55 31.2 593.4 63.65 581.65 104.8 562.8 147.0 539.0 183.4 510.3 217.0 470.75 249.0 436.55 270.1 389.0 288.3 345.0 299.0 305.5 301.0 -291.0 301.0 -330.5 299.5 -389.45 289.4 -425.45 274.0 -458.35 256.3 -492.35 231.65 -515.7 210.3 -535.0 187.0 -554.35 159.65 -571.0 128.3 -583.0 99.0 -593.0 65.65 -600.35 21.0 -599.7 -23.0 -595.0 -53.0 -586.35 -86.35 -575.7 -117.7 -565.0 -139.7 -541.7 -175.7 -519.7 -203.7 -495.7 -227.0 -469.0 -247.0 -446.35 -261.0 -411.0 -279.0 -380.35 -287.7 -337.0 -297.0 -307.0 -302.0 295.0 -302.35 335.0 -298.35 387.65 -287.0" fill="#969696" fill-rule="evenodd" stroke="none"/>
    <path d="M304.6 -304.5 L331.65 -301.7 368.0 -294.85 401.9 -284.9 434.4 -271.1 465.1 -253.65 493.55 -232.7 519.4 -208.6 542.25 -181.7 561.85 -152.3 577.85 -120.8 590.15 -87.7 598.45 -53.35 602.75 -18.3 603.0 17.05 599.1 52.15 591.15 86.55 579.25 119.8 563.55 151.45 544.3 181.1 521.75 208.3 496.2 232.65 468.0 253.95 437.5 271.75 405.15 285.95 371.4 296.25 348.2 300.5 304.35 302.8 -330.0 302.7 -370.6 296.3 -404.45 285.95 -436.8 271.75 -467.3 253.95 -495.5 232.65 -521.05 208.3 -543.6 181.1 -562.85 151.45 -578.55 119.8 -590.4 86.55 -598.35 52.15 -602.25 17.05 -602.05 -18.3 -597.75 -53.35 -589.4 -87.7 -577.15 -120.8 -561.1 -152.3 -541.55 -181.7 -518.7 -208.6 -492.85 -232.7 -464.4 -253.65 -433.7 -271.1 -401.2 -284.9 -367.25 -294.85 -330.3 -300.75 -305.85 -304.2 -289.9 -305.0 284.2 -305.0 304.6 -304.5 M331.0 -296.6 L304.2 -299.5 284.15 -300.0 -289.7 -300.0 -305.2 -299.2 -330.85 -296.0 -366.15 -290.0 -399.5 -280.2 -431.5 -266.65 -461.65 -249.45 -489.65 -228.85 -515.05 -205.15 -537.55 -178.65 -556.8 -149.75 -572.55 -118.8 -584.65 -86.2 -592.85 -52.45 -597.05 -17.95 -597.25 16.75 -593.45 51.3 -585.6 85.15 -573.9 117.85 -558.5 149.0 -539.6 178.15 -517.4 204.85 -492.25 228.85 -464.5 249.75 -434.55 267.3 Q-418.6 274.3 -402.7 281.25 L-369.5 291.4 -329.6 297.7 304.2 297.8 347.6 295.5 370.2 291.4 403.4 281.25 Q419.35 274.3 435.25 267.3 L465.25 249.75 493.0 228.85 518.1 204.85 540.3 178.15 559.2 149.0 574.65 117.85 586.3 85.15 594.15 51.3 598.0 16.75 597.8 -17.95 593.55 -52.45 585.35 -86.2 573.25 -118.8 557.5 -149.75 538.25 -178.65 515.75 -205.15 490.35 -228.85 462.4 -249.45 432.2 -266.65 400.2 -280.2 366.9 -290.0 331.0 -296.6" fill="#828282" fill-rule="evenodd" stroke="none"/>
    <path d="M301.95 -120.3 L316.4 -113.1 330.05 -104.8 342.9 -95.55 354.85 -85.3 365.75 -74.2 375.6 -62.35 375.6 61.3 365.75 73.15 354.85 84.25 342.9 94.5 330.05 103.75 316.4 112.05 301.95 119.25 286.9 125.35 265.0 132.0 255.65 133.0 183.8 131.25 147.05 127.85 147.05 165.3 -147.1 165.3 -147.1 127.8 -183.9 131.05 -256.7 133.0 -266.05 132.0 -288.0 125.35 -303.05 119.25 -317.45 112.05 -331.15 103.75 -344.0 94.5 -355.9 84.25 -366.85 73.15 -376.65 61.3 -376.65 -62.35 -366.85 -74.2 -355.9 -85.3 -344.0 -95.55 -331.15 -104.8 -317.45 -113.1 -303.05 -120.3 -288.0 -126.4 -266.05 -133.05 -256.7 -134.05 -147.1 -128.75 -147.1 -165.35 147.05 -165.35 147.05 -129.3 255.65 -134.05 265.0 -133.05 286.9 -126.4 301.95 -120.3" fill="#7f7f7f" fill-rule="evenodd" stroke="none"/>
    <path d="M308.3 230.3 L319.0 233.65 286.3 240.3 257.0 241.9 -261.0 241.65 -287.0 240.3 -323.7 233.65 -307.7 230.3 -179.0 225.65 -138.35 223.65 136.3 223.65 209.65 228.3 308.3 230.3" fill="#434343" fill-rule="evenodd" stroke="none"/>
    <path d="M230.45 169.0 L241.65 171.3 232.4 173.0 218.65 174.0 190.45 175.0 -190.0 175.0 -218.2 174.0 -231.95 173.0 -241.2 171.3 -230.0 169.0 -218.0 163.0 -106.0 157.3 106.45 157.3 218.45 163.0 230.45 169.0" fill="#434343" fill-rule="evenodd" stroke="none"/>
    <path d="M307.8 -231.35 L209.15 -229.35 135.8 -224.7 -138.85 -224.7 -179.55 -226.7 -308.2 -231.35 -324.2 -234.7 -287.55 -241.35 -261.55 -242.7 256.45 -242.7 285.8 -241.35 318.45 -234.7 307.8 -231.35" fill="#434343" fill-rule="evenodd" stroke="none"/>
    <path d="M230.45 -170.0 L218.45 -164.0 106.65 -158.35 -107.7 -158.35 -218.0 -164.0 -230.0 -170.0 -241.2 -172.35 -231.95 -174.05 -218.2 -175.0 -190.0 -176.0 190.45 -176.0 218.65 -175.0 232.4 -174.05 241.65 -172.35 230.45 -170.0" fill="#434343" fill-rule="evenodd" stroke="none"/>
    <path d="M317.7 -115.25 L331.45 -106.9 331.55 -106.85 344.45 -97.5 356.65 -87.05 367.6 -75.9 378.1 -63.25 378.1 62.2 367.55 74.95 356.55 86.1 344.4 96.5 331.45 105.85 317.5 114.3 303.0 121.55 287.65 127.75 269.15 133.35 269.05 133.35 262.9 134.7 251.9 135.3 251.8 135.3 183.8 131.25 252.0 130.3 262.2 129.75 267.9 128.5 286.1 123.0 300.95 116.95 315.2 109.85 328.7 101.7 341.35 92.5 353.15 82.45 363.9 71.5 373.1 60.4 373.1 -61.45 363.9 -72.55 353.15 -83.5 341.35 -93.55 328.7 -102.75 315.2 -110.9 300.95 -118.0 286.1 -124.05 266.8 -129.85 258.1 -131.25 182.3 -130.85 252.9 -136.4 258.55 -136.25 268.15 -134.7 287.75 -128.75 303.1 -122.55 317.7 -115.25" fill="#434343" fill-rule="evenodd" stroke="none"/>
    <path d="M-374.15 -61.45 L-374.15 60.4 -364.95 71.5 -354.2 82.45 -342.45 92.5 -329.75 101.7 -316.25 109.85 -302.0 116.95 -287.15 123.0 -268.2 128.7 -258.75 130.25 -183.9 131.05 -252.95 135.25 -259.15 135.25 -269.5 133.55 -288.8 127.7 -304.15 121.5 -318.75 114.2 -332.5 105.85 -345.6 96.4 -357.6 86.1 -368.75 74.75 -379.15 62.2 -379.15 -63.25 -368.6 -76.0 -357.6 -87.15 -345.45 -97.55 -332.5 -106.9 -318.55 -115.35 -304.05 -122.6 -288.7 -128.8 -270.6 -134.25 -260.4 -136.15 -250.2 -136.15 -183.9 -130.5 -259.9 -131.15 -269.45 -129.4 -287.15 -124.05 -302.0 -118.0 -316.25 -110.9 -329.75 -102.75 -342.45 -93.55 -354.2 -83.5 -364.95 -72.55 -374.15 -61.45" fill="#434343" fill-rule="evenodd" stroke="none"/>
    <path d="M-359.8 -181.8 L-341.1 -188.95 -322.85 -195.2 -303.0 -199.95 -269.85 -201.0 -242.2 -199.9 -212.4 -197.85 -184.35 -193.25 -212.35 -192.8 -242.5 -194.9 -270.2 -196.05 -302.15 -195.0 -321.45 -190.4 -339.45 -184.25 -357.85 -177.2 -375.4 -168.85 -392.05 -159.3 -407.65 -148.55 -422.15 -136.75 -435.45 -123.95 -447.35 -110.2 -457.9 -95.7 -466.9 -80.5 -474.4 -64.7 -480.25 -48.4 -484.45 -31.75 -487.0 -14.9 -487.85 2.1 -487.0 19.1 -484.45 36.0 -480.25 52.65 -474.4 68.9 -466.9 84.7 -457.9 99.95 -447.4 114.4 -421.85 139.65 -407.35 151.45 -391.7 162.2 -375.05 171.75 -357.5 180.1 -339.2 187.15 -320.8 192.55 -299.75 196.3 -283.7 198.2 -270.15 198.0 -242.55 195.15 -213.9 193.0 -184.35 193.65 -212.7 197.95 -242.15 200.15 -269.85 203.0 -283.95 203.2 -300.55 201.2 -321.95 197.4 -340.85 191.85 -359.45 184.7 -377.35 176.2 -394.35 166.4 -410.4 155.4 -425.15 143.4 -451.25 117.65 -462.15 102.6 -471.35 87.05 -479.05 70.7 -485.05 54.1 -489.4 36.85 -492.0 19.6 -492.85 2.1 -491.95 -15.5 -489.35 -32.75 -485.0 -50.0 -479.0 -66.6 -471.25 -82.95 -462.05 -98.45 -451.2 -113.4 -439.05 -127.35 -425.4 -140.55 -410.65 -152.55 -394.6 -163.55 -377.7 -173.3 -359.8 -181.8" fill="#434343" fill-rule="evenodd" stroke="none"/>
    <path d="M478.65 -66.5 L484.6 -49.85 488.95 -32.65 491.55 -15.4 492.45 2.1 491.55 19.6 488.9 37.1 484.6 54.1 478.55 70.95 470.9 87.2 461.65 102.7 461.6 102.75 450.8 117.65 424.75 143.4 424.65 143.45 409.9 155.45 409.85 155.5 393.95 166.4 376.95 176.2 359.05 184.7 358.95 184.7 340.35 191.85 340.25 191.9 321.5 197.4 300.0 201.25 283.55 203.2 269.3 203.0 241.7 200.15 213.35 198.0 183.95 193.4 213.6 193.0 242.2 195.15 269.7 198.0 283.3 198.2 299.35 196.3 320.35 192.55 338.75 187.15 357.1 180.1 374.65 171.75 391.3 162.2 406.9 151.45 421.4 139.65 447.0 114.4 457.45 99.95 466.5 84.7 473.95 68.9 479.85 52.65 484.05 36.0 486.6 19.1 487.45 2.1 486.6 -14.9 484.05 -31.75 479.85 -48.4 473.95 -64.7 466.5 -80.5 457.45 -95.7 446.95 -110.2 435.0 -123.95 421.75 -136.75 407.25 -148.55 391.6 -159.3 374.95 -168.85 357.4 -177.2 339.05 -184.25 321.0 -190.4 301.75 -195.0 269.65 -196.05 242.1 -194.9 215.65 -193.05 183.95 -193.25 214.4 -198.0 241.85 -199.9 269.4 -201.0 302.6 -199.95 322.55 -195.15 340.8 -188.95 359.4 -181.8 359.45 -181.75 377.3 -173.3 394.35 -163.45 410.25 -152.55 425.15 -140.4 438.65 -127.35 450.95 -113.25 461.65 -98.45 461.7 -98.35 470.9 -82.85 478.65 -66.5" fill="#434343" fill-rule="evenodd" stroke="none"/>
    <path d="M-74.3 -48.3 L-72.2 -46.45 -70.5 -44.2 -69.25 -41.65 -68.6 -38.9 -68.5 -36.1 -68.95 -33.3 -69.95 -30.7 -71.5 -28.3 -73.45 -26.3 -75.8 -24.7 -78.4 -23.65 -81.15 -23.1 -84.0 -23.15 -86.75 -23.75 -89.3 -24.9 -91.6 -26.55 -93.5 -28.6 -95.0 -31.0 -95.95 -33.65 -96.3 -36.45 -96.15 -39.25 -95.4 -42.0 -94.15 -44.5 -92.35 -46.7 -90.2 -48.5 -87.75 -49.85 -85.05 -50.65 -82.2 -50.9 -79.4 -50.6 -76.75 -49.7 -74.3 -48.3" fill="#707070" fill-rule="evenodd" stroke="none"/>
    <path d="M-191.95 -11.65 L-189.85 -9.8 -188.15 -7.55 -186.95 -5.0 -186.25 -2.25 -186.15 0.55 -186.6 3.35 -187.65 5.95 -189.15 8.35 -191.1 10.35 -193.45 11.95 -196.05 13.0 -198.85 13.55 -201.65 13.5 -204.4 12.9 -207.0 11.8 -209.25 10.15 -211.2 8.05 -212.65 5.65 -213.6 3.0 -214.0 0.2 -213.8 -2.6 -213.05 -5.3 -211.8 -7.85 -210.05 -10.05 -207.9 -11.85 -205.4 -13.2 -202.7 -14.0 -199.9 -14.25 -197.1 -13.95 -194.4 -13.05 -191.95 -11.65" fill="#707070" fill-rule="evenodd" stroke="none"/>
    <path d="M7.8 -11.45 L9.95 -9.55 11.65 -7.3 12.85 -4.75 13.5 -2.05 13.6 0.8 13.15 3.55 12.15 6.2 10.6 8.55 8.65 10.6 6.3 12.15 3.7 13.25 0.95 13.8 -1.85 13.75 -4.6 13.15 -7.2 12.0 -9.5 10.35 -11.4 8.3 -12.85 5.9 -13.8 3.25 -14.2 0.45 -14.05 -2.4 -13.3 -5.1 -12.0 -7.6 -10.25 -9.8 -8.1 -11.65 -5.6 -12.95 -2.9 -13.8 -0.1 -14.05 2.7 -13.7 5.35 -12.85 7.8 -11.45" fill="#707070" fill-rule="evenodd" stroke="none"/>
    <path d="M96.85 37.9 L96.4 40.7 95.35 43.3 93.85 45.7 91.9 47.7 89.55 49.3 86.95 50.35 84.15 50.9 81.35 50.85 78.6 50.25 76.0 49.1 73.75 47.45 71.8 45.4 70.35 43.0 69.4 40.35 69.0 37.55 69.2 34.75 69.95 32.0 71.2 29.5 72.95 27.3 75.1 25.5 77.6 24.15 80.3 23.35 83.1 23.1 85.9 23.4 88.6 24.3 91.05 25.7 93.15 27.55 94.85 29.8 96.05 32.35 96.75 35.1 96.85 37.9" fill="#707070" fill-rule="evenodd" stroke="none"/>
    <path d="M208.05 -11.3 L210.15 -9.45 211.85 -7.2 213.05 -4.65 213.75 -1.9 213.85 0.9 213.4 3.7 212.35 6.3 210.85 8.7 208.9 10.7 206.55 12.3 203.95 13.35 201.15 13.9 198.35 13.85 195.6 13.25 193.0 12.1 190.75 10.45 188.8 8.4 187.35 6.0 186.4 3.35 186.0 0.55 186.2 -2.25 186.95 -5.0 188.2 -7.5 189.95 -9.7 192.1 -11.5 194.6 -12.85 197.3 -13.65 200.1 -13.9 202.9 -13.6 205.6 -12.7 208.05 -11.3" fill="#707070" fill-rule="evenodd" stroke="none"/>
    <path d="M-235.2 -13.0 L-231.75 -19.75 -227.05 -25.75 -221.2 -30.6 -214.5 -34.2 -207.2 -36.4 -199.6 -37.1 -192.05 -36.2 -184.85 -33.85 -178.25 -30.05 -172.5 -25.05 -167.95 -18.95 -164.65 -12.1 -162.85 -4.7 -162.55 2.9 -163.8 10.4 -166.55 17.5 -170.65 23.9 -175.95 29.35 -182.25 33.65 -189.3 36.55 -196.75 38.0 -204.35 37.9 -211.8 36.25 -218.75 33.2 -224.95 28.75 -230.1 23.15 -234.05 16.65 -236.6 9.5 -237.7 1.95 -237.2 -5.65 -235.2 -13.0" fill="#ffffff" fill-opacity="0.14901961" fill-rule="evenodd" stroke="none"/>
    <path d="M165.15 -13.8 L168.55 -20.6 173.3 -26.55 179.15 -31.45 185.85 -35.05 193.1 -37.25 200.7 -37.9 208.25 -37.05 215.5 -34.65 222.1 -30.9 227.8 -25.85 232.4 -19.8 235.65 -12.9 237.45 -5.55 237.75 2.05 236.5 9.6 233.8 16.7 229.7 23.1 224.35 28.55 218.05 32.8 211.05 35.7 203.55 37.15 195.95 37.05 188.5 35.45 181.55 32.35 175.4 27.9 170.2 22.35 166.25 15.85 163.7 8.65 162.65 1.15 163.15 -6.45 165.15 -13.8" fill="#ffffff" fill-opacity="0.078431375" fill-rule="evenodd" stroke="none"/>
    <path d="M1.05 -37.6 L8.6 -36.7 15.85 -34.35 22.45 -30.55 28.15 -25.55 32.75 -19.45 36.0 -12.6 36.05 -12.4 49.3 -3.35 54.3 -1.0 62.3 2.0 66.4 3.05 68.5 1.95 75.8 -0.25 83.35 -0.9 90.95 -0.05 98.15 2.35 104.75 6.1 110.5 11.15 115.05 17.2 118.35 24.1 120.15 31.45 120.45 39.05 120.15 40.7 128.9 47.75 143.5 57.0 158.65 64.25 174.3 69.55 190.3 72.8 206.4 74.0 222.55 73.2 238.6 70.3 254.4 65.4 269.75 58.5 273.75 56.15 274.8 52.2 278.25 45.4 282.95 39.45 288.8 34.55 295.5 30.95 302.8 28.75 310.35 28.1 317.95 28.95 325.15 31.35 331.75 35.1 337.5 40.15 342.05 46.2 345.35 53.1 347.15 60.45 347.45 68.05 346.2 75.6 343.45 82.7 339.35 89.1 334.05 94.55 327.75 98.8 320.7 101.7 313.25 103.15 305.6 103.05 298.2 101.45 296.6 100.7 292.95 102.9 272.1 112.25 250.45 119.0 228.25 122.95 205.8 124.1 183.4 122.4 161.3 117.9 139.8 110.65 119.2 100.8 99.75 88.45 82.0 74.1 78.6 74.05 71.2 72.45 64.25 69.35 58.05 64.9 52.85 59.35 48.95 52.85 47.2 48.05 43.0 44.3 38.3 41.0 30.0 37.0 17.35 33.6 11.35 36.05 3.9 37.5 -3.7 37.4 -11.15 35.75 -18.1 32.7 -24.3 28.25 -29.45 22.7 -33.4 16.15 -35.7 9.65 -45.35 4.65 -67.15 -3.45 -71.65 -1.6 -79.1 -0.15 -86.7 -0.25 -94.15 -1.9 -101.1 -5.0 -107.3 -9.4 -112.45 -15.0 -116.4 -21.5 -118.95 -28.65 -120.0 -36.2 -119.8 -39.4 -132.7 -49.55 -147.35 -58.6 -162.65 -65.7 -178.35 -70.8 -194.35 -73.85 -210.5 -74.85 -226.65 -73.85 -242.65 -70.8 -258.35 -65.7 -273.0 -58.9 -273.3 -57.1 -276.05 -50.0 -280.15 -43.6 -285.45 -38.15 -291.75 -33.85 -298.8 -30.95 -306.25 -29.5 -313.85 -29.6 -321.3 -31.25 -328.25 -34.3 -334.45 -38.75 -339.6 -44.35 -343.55 -50.85 -346.1 -58.0 -347.15 -65.55 -346.7 -73.15 -344.7 -80.45 -341.25 -87.25 -336.5 -93.2 -330.7 -98.1 -324.0 -101.7 -316.7 -103.9 -309.1 -104.6 -301.55 -103.7 -297.75 -102.45 -297.35 -102.7 -276.65 -112.3 -255.1 -119.3 -232.95 -123.55 -210.5 -124.95 -188.05 -123.55 -165.9 -119.3 -144.35 -112.3 -123.6 -102.7 -104.0 -90.6 -85.7 -76.2 -84.5 -75.0 -81.95 -75.25 -74.4 -74.4 -67.15 -72.0 -60.55 -68.25 -54.85 -63.2 -50.25 -57.15 -47.0 -50.25 -45.9 -45.65 -42.7 -43.35 -33.35 -38.35 -20.0 -33.7 -16.85 -33.1 -13.85 -34.7 -6.55 -36.9 1.05 -37.6" fill="#ffffff" fill-opacity="0.078431375" fill-rule="evenodd" stroke="none"/>
    <path d="M28.35 132.5 L31.2 138.6 32.85 145.15 33.1 151.85 32.0 158.5 29.55 164.8 25.9 170.5 21.2 175.3 15.65 179.1 9.4 181.7 2.8 182.95 -3.95 182.9 -10.55 181.45 -16.7 178.7 -22.2 174.8 -26.8 169.85 -30.25 164.05 -32.55 157.7 -33.45 151.05 -33.05 144.3 -31.3 137.8 -28.25 131.8 -24.05 126.5 -18.85 122.2 -12.95 119.0 -6.45 117.05 0.25 116.45 6.95 117.2 13.35 119.3 19.2 122.65 24.25 127.1 28.35 132.5" fill="#707070" fill-rule="evenodd" stroke="none"/>
    <path d="M31.2 -161.1 L32.85 -154.55 33.1 -147.8 32.0 -141.15 29.55 -134.85 25.9 -129.15 21.2 -124.35 15.65 -120.55 9.4 -118.0 2.8 -116.7 -3.95 -116.8 -10.55 -118.25 -16.7 -120.95 -22.2 -124.9 -26.8 -129.85 -30.25 -135.6 -32.55 -141.95 -33.45 -148.65 -33.05 -155.35 -31.3 -161.85 -28.25 -167.9 -24.05 -173.15 -18.85 -177.5 -12.95 -180.7 -6.45 -182.65 0.25 -183.2 6.95 -182.45 13.35 -180.35 19.2 -177.0 24.25 -172.55 28.35 -167.15 31.2 -161.1" fill="#707070" fill-rule="evenodd" stroke="none"/>
    <path d="M371.5 -65.3 L384.45 -61.05 396.3 -54.3 406.5 -45.3 414.75 -34.4 420.6 -22.1 423.85 -8.85 424.35 4.75 422.1 18.25 417.25 30.95 409.85 42.45 400.35 52.2 389.05 59.85 376.45 65.05 363.1 67.65 349.45 67.45 336.1 64.55 323.65 59.0 312.55 51.1 303.3 41.1 296.25 29.45 291.65 16.6 289.75 3.1 290.65 -10.5 294.2 -23.7 300.35 -35.85 308.85 -46.5 319.3 -55.25 331.3 -61.75 344.35 -65.65 357.95 -66.85 371.5 -65.3" fill="#707070" fill-rule="evenodd" stroke="none"/>
    <path d="M-354.85 -66.85 L-341.3 -65.3 -328.35 -61.05 -316.5 -54.3 -306.3 -45.3 -298.1 -34.4 -292.25 -22.1 -289.0 -8.85 -288.45 4.75 -290.7 18.25 -295.6 30.95 -302.95 42.45 -312.45 52.2 -323.75 59.85 -336.35 65.05 -349.75 67.65 -363.35 67.45 -376.7 64.55 Q-382.9 61.8 -389.15 59.0 L-400.25 51.1 -409.5 41.1 -416.6 29.45 -421.15 16.6 -423.05 3.1 -422.2 -10.5 -418.6 -23.7 -412.45 -35.85 -403.95 -46.5 -393.5 -55.25 -381.5 -61.75 -368.45 -65.65 -354.85 -66.85" fill="#707070" fill-rule="evenodd" stroke="none"/>
    <path d="M78.0 -232.75 L74.7 -227.75 72.0 -221.25 71.7 -216.6 72.35 -209.1 73.85 -204.15 78.1 -198.4 82.75 -193.0 86.65 -184.85 89.75 -176.35 92.0 -167.6 93.4 -158.65 93.95 -149.6 93.6 -140.55 93.5 -139.85 94.35 -139.9 101.95 -139.05 104.4 -138.25 118.25 -146.8 139.0 -156.4 160.55 -163.4 182.7 -167.6 205.15 -169.05 227.6 -167.6 249.75 -163.4 271.3 -156.4 292.0 -146.8 305.2 -138.65 311.7 -139.25 319.25 -138.4 326.5 -136.0 333.1 -132.25 338.8 -127.2 343.4 -121.15 346.65 -114.25 348.45 -106.85 348.7 -101.35 355.8 -92.65 360.8 -92.7 369.85 -91.95 378.75 -90.3 387.45 -87.8 395.85 -84.5 403.9 -80.35 421.45 -72.45 432.65 -71.8 439.65 -72.15 449.45 -74.8 456.9 -78.15 464.35 -83.15 470.9 -82.85 478.65 -66.5 484.6 -49.85 488.95 -32.65 491.55 -15.4 492.45 2.1 491.55 19.6 488.9 37.1 484.6 54.1 478.55 70.95 470.9 87.2 464.35 82.2 456.9 77.2 449.45 73.85 439.65 71.2 432.65 70.85 423.0 72.65 415.3 75.0 408.3 78.3 401.65 83.3 393.5 87.2 385.0 90.3 376.2 92.55 367.3 93.95 358.25 94.45 349.2 94.15 340.25 92.9 331.45 90.85 322.85 87.95 314.65 84.2 306.8 79.7 299.4 74.45 292.55 68.55 286.35 61.95 280.75 54.85 275.9 47.2 271.85 39.15 268.55 30.7 266.05 22.0 264.45 13.1 263.7 4.1 263.8 -4.95 264.8 -13.95 266.7 -22.8 269.4 -31.45 272.9 -39.75 277.2 -47.75 282.3 -55.25 288.05 -62.2 294.15 -68.3 292.55 -69.0 286.4 -73.4 281.2 -79.0 277.25 -85.5 274.7 -92.65 273.8 -99.3 268.3 -102.7 253.0 -109.75 237.3 -114.85 221.3 -117.9 205.15 -118.95 189.0 -117.9 173.0 -114.85 157.3 -109.75 142.0 -102.7 130.75 -95.7 130.2 -92.4 127.45 -85.3 123.35 -78.9 118.05 -73.45 111.75 -69.2 104.7 -66.3 97.25 -64.85 89.6 -64.95 88.2 -65.25 87.0 -64.35 76.3 -51.35 70.0 -40.0 68.05 -37.2 68.1 -35.95 66.85 -28.4 64.1 -21.3 60.0 -14.9 54.7 -9.45 48.4 -5.2 41.35 -2.3 37.25 -1.5 31.3 2.0 20.65 10.65 12.65 18.65 4.55 37.55 4.75 43.4 3.5 50.9 1.85 55.25 5.85 55.3 14.85 56.3 23.7 58.15 32.35 60.9 40.65 64.4 48.6 68.7 56.1 73.8 63.1 79.55 69.45 85.95 75.2 92.95 80.25 100.45 84.55 108.4 88.05 116.75 90.7 125.4 92.55 134.25 93.5 143.25 93.6 152.3 92.85 161.35 91.2 170.2 88.7 178.9 85.35 187.35 81.25 195.4 75.2 201.85 72.0 209.25 71.35 216.7 71.7 221.35 74.35 227.9 77.7 232.85 82.7 237.85 87.7 241.9 -87.65 241.9 -82.65 237.85 -77.65 232.85 -74.3 227.9 -71.65 221.35 -71.3 216.7 -72.0 209.25 -73.45 204.3 -82.4 193.15 -86.3 185.0 -89.4 176.5 -91.65 167.7 -93.05 158.75 -93.6 149.75 -93.25 141.15 -99.7 141.05 -107.15 139.45 -107.6 139.25 -119.05 146.3 -139.75 155.95 -161.3 162.9 -183.45 167.15 -205.9 168.55 -228.35 167.15 -250.5 162.9 -272.05 155.95 -292.8 146.3 -303.65 139.65 -308.1 140.5 -315.7 140.4 -323.15 138.75 -330.1 135.7 -336.3 131.25 -341.45 125.7 -345.4 119.15 -347.95 112.0 -349.0 104.45 -348.55 96.85 -347.65 93.65 -351.25 94.15 -360.3 94.45 -369.3 93.95 -378.25 92.55 -387.0 90.3 -395.5 87.2 -403.7 83.3 -410.35 78.3 -417.35 75.0 -425.0 72.65 -434.7 70.85 -441.7 71.2 -451.5 73.85 -458.95 77.2 -466.4 82.2 -471.35 87.05 -479.05 70.7 -485.05 54.1 -489.4 36.85 -492.0 19.6 -492.85 2.1 -491.95 -15.5 -489.35 -32.75 -485.0 -50.0 -479.0 -66.6 -471.25 -82.95 -466.4 -83.15 -458.95 -78.15 -451.5 -74.8 -441.7 -72.15 -434.7 -71.8 -423.5 -72.45 -405.9 -80.35 -397.85 -84.5 -389.45 -87.8 -380.75 -90.3 -371.85 -91.95 -362.85 -92.7 -353.8 -92.65 -344.8 -91.65 -335.95 -89.85 -327.3 -87.15 -318.95 -83.65 -311.0 -79.35 -303.45 -74.35 -296.5 -68.6 -290.05 -62.2 -284.3 -55.25 -279.25 -47.75 -274.95 -39.75 -271.4 -31.45 -268.7 -22.8 -266.85 -13.95 -265.85 -4.95 -265.7 4.1 -266.45 13.1 -268.1 22.0 -270.55 30.7 -273.85 39.15 -277.95 47.2 -282.8 54.85 -288.35 61.95 -294.6 68.55 -295.3 69.15 -289.55 72.45 -283.85 77.45 -279.25 83.55 -276.0 90.4 -274.2 97.8 -274.15 99.05 -269.05 102.2 -253.8 109.3 -238.05 114.4 -222.05 117.45 -205.9 118.45 -189.75 117.45 -173.75 114.4 -158.05 109.3 -142.8 102.2 -132.0 95.55 -130.55 90.2 -127.1 83.4 -122.35 77.45 -116.55 72.55 -109.85 68.95 -102.55 66.75 -94.95 66.1 -90.35 66.6 -85.45 63.0 -80.35 58.1 -74.6 50.55 -70.35 42.45 -69.85 34.85 -67.85 27.55 -64.45 20.75 -59.7 14.8 -53.85 9.9 -47.15 6.3 -40.15 4.2 -34.0 0.65 -20.35 -10.7 -11.7 -21.35 -6.7 -31.0 -6.3 -31.95 -7.0 -36.85 -6.55 -44.45 -4.55 -51.8 -2.85 -55.15 -5.5 -55.2 -14.5 -56.15 -23.35 -58.05 -31.95 -60.75 -40.3 -64.25 -48.25 -68.6 -55.75 -73.65 -62.75 -79.4 -69.1 -85.8 -74.85 -92.8 -79.9 -100.3 -84.2 -108.3 -87.7 -116.65 -90.35 -125.25 -92.2 -134.15 -93.15 -143.15 -93.25 -152.15 -92.45 -161.2 -90.8 -170.1 -88.35 -178.8 -85.0 -187.2 -80.9 -195.25 -74.85 -201.75 -71.65 -209.1 -71.0 -216.6 -71.3 -221.25 -74.0 -227.75 -77.3 -232.75 -87.3 -242.7 88.0 -242.7 78.0 -232.75" fill="#ffffff" fill-opacity="0.14901961" fill-rule="evenodd" stroke="none"/>
    <path d="M492.95 -128.9 L498.6 -125.7 503.45 -121.4 507.35 -116.2 510.15 -110.35 511.7 -104.05 511.95 -97.55 510.85 -91.15 508.55 -85.1 505.05 -79.65 500.5 -75.0 495.15 -71.35 489.15 -68.85 482.75 -67.65 476.3 -67.75 469.95 -69.1 464.0 -71.75 458.75 -75.5 454.3 -80.3 450.95 -85.85 448.8 -91.95 447.9 -98.35 448.3 -104.85 450.0 -111.1 452.95 -116.9 456.95 -122.0 461.95 -126.15 467.65 -129.2 473.85 -131.1 480.35 -131.65 486.8 -130.9 492.95 -128.9" fill="#707070" fill-rule="evenodd" stroke="none"/>
    <path d="M456.15 77.2 L461.1 73.0 466.8 69.95 473.05 68.05 479.5 67.5 485.95 68.25 492.1 70.25 497.75 73.5 502.6 77.75 506.5 82.95 509.3 88.8 510.85 95.1 511.1 101.6 510.05 108.0 507.7 114.05 504.2 119.5 499.7 124.15 494.3 127.8 488.3 130.3 481.95 131.5 475.45 131.45 469.1 130.05 463.2 127.4 457.9 123.65 453.5 118.9 450.15 113.35 447.95 107.2 447.05 100.8 447.45 94.3 449.15 88.05 452.1 82.25 456.15 77.2" fill="#707070" fill-rule="evenodd" stroke="none"/>
    <path d="M-479.65 -131.65 L-473.2 -130.9 -467.05 -128.9 -461.4 -125.7 -456.55 -121.4 -452.65 -116.2 -449.85 -110.35 -448.3 -104.05 -448.05 -97.55 -449.15 -91.15 -451.45 -85.1 -454.95 -79.65 -459.5 -75.0 -464.85 -71.35 -470.85 -68.85 -477.25 -67.65 -483.7 -67.75 -490.05 -69.1 -496.0 -71.75 -501.25 -75.5 -505.7 -80.3 -509.05 -85.85 -511.2 -91.95 -512.1 -98.35 -511.7 -104.85 -510.0 -111.1 -507.05 -116.9 -503.05 -122.0 -498.05 -126.15 -492.35 -129.2 -486.15 -131.1 -479.65 -131.65" fill="#707070" fill-rule="evenodd" stroke="none"/>
    <path d="M-474.05 68.25 L-467.9 70.25 -462.25 73.5 -457.4 77.75 -453.5 82.95 -450.7 88.8 -449.15 95.1 -448.9 101.6 -449.95 108.0 -452.3 114.05 -455.8 119.5 -460.3 124.15 -465.7 127.8 -471.7 130.3 -478.05 131.5 -484.55 131.45 -490.9 130.05 -496.8 127.4 -502.1 123.65 -506.5 118.9 -509.85 113.35 -512.05 107.2 -512.95 100.8 -512.55 94.3 -510.85 88.05 -507.9 82.25 -503.85 77.2 -498.9 73.0 -493.2 69.95 -486.95 68.05 -480.5 67.5 -474.05 68.25" fill="#707070" fill-rule="evenodd" stroke="none"/>
  </g>
</svg>
