<?xml version="1.0" encoding="UTF-8" standalone="no"?>
<svg xmlns:ffdec="https://www.free-decompiler.com/flash" xmlns:xlink="http://www.w3.org/1999/xlink" ffdec:objectType="shape" height="1060.0px" width="1666.65px" xmlns="http://www.w3.org/2000/svg">
  <g transform="matrix(1.0, 0.0, 0.0, 1.0, 834.15, 531.0)">
    <path d="M603.2 -443.05 L650.55 -406.5 693.5 -364.45 731.5 -317.5 764.1 -266.2 790.75 -211.25 811.15 -153.45 825.05 -93.6 832.2 -32.4 832.5 29.2 826.05 90.5 812.8 150.55 793.05 208.55 766.95 263.8 734.95 315.5 697.45 362.9 654.95 405.5 608.05 442.55 557.3 473.7 503.5 498.4 447.3 516.45 399.95 525.5 370.65 528.5 330.9 529.0 -333.5 529.0 -370.65 528.55 -402.15 525.4 -448.95 516.45 -505.15 498.4 -558.95 473.7 -609.65 442.55 -656.6 405.5 -699.1 362.9 -736.6 315.5 -768.6 263.8 -794.65 208.55 -814.45 150.55 -827.65 90.5 -834.15 29.2 -833.8 -32.4 -826.65 -93.6 -812.8 -153.45 -792.35 -211.25 -765.7 -266.2 -733.15 -317.5 -695.1 -364.45 -652.15 -406.5 -604.85 -443.05 -553.8 -473.55 -499.7 -497.6 -443.3 -514.95 -390.4 -524.4 -333.8 -531.0 332.15 -531.0 388.8 -524.4 441.7 -514.95 498.05 -497.6 552.15 -473.55 603.2 -443.05" fill="#707070" fill-rule="evenodd" stroke="none"/>
    <path d="M524.55 -428.95 L573.05 -401.35 618.0 -368.25 658.8 -330.2 694.95 -287.6 725.9 -241.15 751.2 -191.45 770.6 -139.1 783.8 -84.85 790.6 -29.45 790.9 26.35 784.75 81.85 772.2 136.25 753.4 188.8 728.65 238.8 698.2 285.65 662.6 328.6 622.2 367.15 577.6 400.7 529.45 428.9 478.3 451.3 424.95 467.6 371.0 477.45 361.65 478.45 314.3 479.0 -316.9 479.0 -360.95 478.5 -374.0 477.2 -426.55 467.6 -479.95 451.3 -531.05 428.9 -579.25 400.7 -623.85 367.15 -664.2 328.6 -699.85 285.65 -730.25 238.8 -755.0 188.8 -773.8 136.25 -786.35 81.85 -792.55 26.35 -792.2 -29.45 -785.4 -84.85 -772.25 -139.1 -752.85 -191.45 -727.5 -241.15 -696.55 -287.6 -660.45 -330.2 -619.65 -368.25 -574.65 -401.35 -526.15 -428.95 -474.8 -450.75 -421.25 -466.5 -375.05 -474.35 -366.25 -476.75 -317.15 -494.65 -217.35 -514.7 216.0 -514.7 315.55 -494.65 363.55 -477.15 373.85 -474.25 419.6 -466.5 473.15 -450.75 524.55 -428.95" fill="#434343" fill-rule="evenodd" stroke="none"/>
    <path d="M392.8 -313.4 L394.35 -319.45 410.25 -314.8 446.15 -299.55 474.6 -283.35 471.2 -278.5 494.05 -262.55 497.45 -267.45 511.5 -257.1 516.9 -252.05 510.15 -245.55 511.8 -243.85 519.7 -251.35 519.7 -251.4 539.5 -271.2 571.25 -239.45 543.9 -212.3 545.55 -210.65 551.8 -216.6 560.6 -206.25 556.1 -202.95 572.75 -180.6 576.7 -183.55 586.85 -168.3 604.6 -133.55 615.3 -104.65 610.65 -103.6 616.8 -76.45 622.8 -77.8 627.35 -59.05 632.1 -20.35 632.3 15.7 628.0 54.45 625.0 67.45 618.95 66.05 612.75 93.2 618.5 94.5 606.1 129.2 588.8 164.2 582.0 174.6 578.35 171.9 561.75 194.2 566.7 197.9 551.35 216.4 545.8 211.1 544.15 212.75 553.6 221.95 553.6 221.85 571.25 239.5 539.5 271.25 518.35 250.1 518.25 250.2 512.05 244.3 510.4 246.0 516.5 251.9 514.4 253.85 505.8 260.35 503.0 256.35 480.15 272.25 483.5 277.1 483.25 277.35 449.6 297.05 413.85 312.7 403.65 315.8 402.25 310.35 375.25 317.3 376.95 323.95 375.85 324.3 336.5 329.95 299.25 330.35 206.3 330.35 165.7 346.65 163.0 346.65 163.0 348.15 165.1 348.15 165.1 381.3 135.1 381.3 135.1 348.15 137.2 348.15 137.2 346.65 129.65 346.65 129.65 348.15 131.75 348.15 131.75 381.3 101.75 381.3 101.75 348.15 103.85 348.15 103.85 346.65 96.3 346.65 96.3 348.15 98.4 348.15 98.4 381.3 68.4 381.3 68.4 348.15 70.55 348.15 70.55 346.65 63.0 346.65 63.0 348.15 65.1 348.15 65.1 381.3 35.1 381.3 35.1 348.15 37.2 348.15 37.2 346.65 29.65 346.65 29.65 348.15 31.75 348.15 31.75 381.3 1.75 381.3 1.75 348.15 3.85 348.15 3.85 346.65 -3.7 346.65 -3.7 348.15 -1.6 348.15 -1.6 381.3 -31.6 381.3 -31.6 348.15 -29.45 348.15 -29.45 346.65 -37.0 346.65 -37.0 348.15 -34.9 348.15 -34.9 381.3 -64.9 381.3 -64.9 348.15 -62.8 348.15 -62.8 346.65 -70.35 346.65 -70.35 348.15 -68.25 348.15 -68.25 381.3 -98.25 381.3 -98.25 348.15 -96.15 348.15 -96.15 346.65 -103.7 346.65 -103.7 348.15 -101.6 348.15 -101.6 381.3 -131.6 381.3 -131.6 348.15 -129.45 348.15 -129.45 346.65 -137.0 346.65 -137.0 348.15 -134.9 348.15 -134.9 381.3 -164.9 381.3 -164.9 348.15 -162.8 348.15 -162.8 346.65 -166.7 346.65 -205.0 330.35 -301.05 330.35 -338.15 329.95 -367.0 325.8 -365.4 319.65 -392.4 312.7 -394.1 319.2 -415.45 312.7 -451.2 297.05 -474.7 283.25 -470.55 277.25 -493.35 261.35 -497.75 267.6 -516.05 253.85 -517.05 252.9 -509.85 245.85 -511.5 244.2 -518.85 251.2 -519.15 250.85 -539.55 271.25 -571.3 239.5 -553.1 221.25 -553.05 221.85 -543.6 212.65 -545.25 211.0 -552.1 217.5 -561.75 205.8 -555.9 201.45 -572.55 179.1 -578.05 183.2 -590.4 164.2 -607.7 129.2 -616.8 103.75 -610.05 102.2 -616.2 75.05 -624.45 76.95 -629.65 54.45 -633.95 15.7 -633.7 -20.35 -628.95 -59.05 -626.9 -67.55 -619.65 -65.9 -613.5 -93.05 -620.35 -94.6 -619.75 -96.95 -606.2 -133.55 -588.5 -168.3 -583.85 -175.25 -578.1 -170.95 -561.45 -193.25 -568.4 -198.45 -566.9 -200.75 -552.75 -217.4 -545.5 -210.55 -543.85 -212.2 -571.3 -239.45 -539.55 -271.2 -519.65 -251.3 -519.65 -251.25 -511.75 -243.75 -510.1 -245.4 -517.7 -252.8 -513.1 -257.1 -506.5 -261.95 -502.35 -256.05 -479.55 -272.0 -484.05 -278.5 -481.65 -280.25 -447.8 -299.55 -411.85 -314.8 -404.7 -316.9 -402.95 -310.2 -376.0 -317.1 -377.95 -324.75 -374.45 -325.75 -335.3 -332.45 -293.95 -333.0 -205.0 -333.0 -166.7 -346.7 -162.8 -346.7 -162.8 -348.35 -164.9 -348.35 -164.9 -381.5 -134.9 -381.5 -134.9 -348.35 -137.0 -348.35 -137.0 -346.7 -129.45 -346.7 -129.45 -348.35 -131.6 -348.35 -131.6 -381.5 -101.6 -381.5 -101.6 -348.35 -103.7 -348.35 -103.7 -346.7 -96.15 -346.7 -96.15 -348.35 -98.25 -348.35 -98.25 -381.5 -68.25 -381.5 -68.25 -348.35 -70.35 -348.35 -70.35 -346.7 -62.8 -346.7 -62.8 -348.35 -64.9 -348.35 -64.9 -381.5 -34.9 -381.5 -34.9 -348.35 -37.0 -348.35 -37.0 -346.7 -29.45 -346.7 -29.45 -348.35 -31.6 -348.35 -31.6 -381.5 -1.6 -381.5 -1.6 -348.35 -3.7 -348.35 -3.7 -346.7 3.85 -346.7 3.85 -348.35 1.75 -348.35 1.75 -381.5 31.75 -381.5 31.75 -348.35 29.65 -348.35 29.65 -346.7 37.2 -346.7 37.2 -348.35 35.1 -348.35 35.1 -381.5 65.1 -381.5 65.1 -348.35 63.0 -348.35 63.0 -346.7 70.55 -346.7 70.55 -348.35 68.4 -348.35 68.4 -381.5 98.4 -381.5 98.4 -348.35 96.3 -348.35 96.3 -346.7 103.85 -346.7 103.85 -348.35 101.75 -348.35 101.75 -381.5 131.75 -381.5 131.75 -348.35 129.65 -348.35 129.65 -346.7 137.2 -346.7 137.2 -348.35 135.1 -348.35 135.1 -381.5 165.1 -381.5 165.1 -348.35 163.0 -348.35 163.0 -346.7 165.7 -346.7 206.3 -333.0 292.85 -333.0 333.65 -332.45 367.45 -326.7 365.8 -320.35 392.8 -313.4" fill="#707070" fill-rule="evenodd" stroke="none"/>
    <path d="M387.65 -287.0 L417.3 -276.0 468.0 -250.0 505.0 -218.35 535.65 -185.7 556.0 -156.7 570.65 -128.7 587.0 -89.0 599.3 -28.0 600.1 9.85 598.55 31.2 593.4 63.65 581.65 104.8 562.8 147.0 539.0 183.4 510.3 217.0 470.75 249.0 436.55 270.1 389.0 288.3 345.0 299.0 305.5 301.0 -291.0 301.0 -330.5 299.5 -389.45 289.4 -425.45 274.0 -458.35 256.3 -492.35 231.65 -515.7 210.3 -535.0 187.0 -554.35 159.65 -571.0 128.3 -583.0 99.0 -593.0 65.65 -600.35 21.0 -599.7 -23.0 -595.0 -53.0 -586.35 -86.35 -575.7 -117.7 -565.0 -139.7 -541.7 -175.7 -519.7 -203.7 -495.7 -227.0 -469.0 -247.0 -446.35 -261.0 -411.0 -279.0 -380.35 -287.7 -337.0 -297.0 -307.0 -302.0 295.0 -302.35 335.0 -298.35 387.65 -287.0" fill="#969696" fill-rule="evenodd" stroke="none"/>
    <path d="M331.0 -296.6 L304.2 -299.5 284.15 -300.0 -289.7 -300.0 -305.2 -299.2 -330.85 -296.0 -366.15 -290.0 -399.5 -280.2 -431.5 -266.65 -461.65 -249.45 -489.65 -228.85 -515.05 -205.15 -537.55 -178.65 -556.8 -149.75 -572.55 -118.8 -584.65 -86.2 -592.85 -52.45 -597.05 -17.95 -597.25 16.75 -593.45 51.3 -585.6 85.15 -573.9 117.85 -558.5 149.0 -539.6 178.15 -517.4 204.85 -492.25 228.85 -464.5 249.75 -434.55 267.3 Q-418.6 274.3 -402.7 281.25 L-369.5 291.4 -329.6 297.7 304.2 297.8 347.6 295.5 370.2 291.4 403.4 281.25 Q419.35 274.3 435.25 267.3 L465.25 249.75 493.0 228.85 518.1 204.85 540.3 178.15 559.2 149.0 574.65 117.85 586.3 85.15 594.15 51.3 598.0 16.75 597.8 -17.95 593.55 -52.45 585.35 -86.2 573.25 -118.8 557.5 -149.75 538.25 -178.65 515.75 -205.15 490.35 -228.85 462.4 -249.45 432.2 -266.65 400.2 -280.2 366.9 -290.0 331.0 -296.6 M304.6 -304.5 L331.65 -301.7 368.0 -294.85 401.9 -284.9 434.4 -271.1 465.1 -253.65 493.55 -232.7 519.4 -208.6 542.25 -181.7 561.85 -152.3 577.85 -120.8 590.15 -87.7 598.45 -53.35 602.75 -18.3 603.0 17.05 599.1 52.15 591.15 86.55 579.25 119.8 563.55 151.45 544.3 181.1 521.75 208.3 496.2 232.65 468.0 253.95 437.5 271.75 405.15 285.95 371.4 296.25 348.2 300.5 304.35 302.8 -330.0 302.7 -370.6 296.3 -404.45 285.95 -436.8 271.75 -467.3 253.95 -495.5 232.65 -521.05 208.3 -543.6 181.1 -562.85 151.45 -578.55 119.8 -590.4 86.55 -598.35 52.15 -602.25 17.05 -602.05 -18.3 -597.75 -53.35 -589.4 -87.7 -577.15 -120.8 -561.1 -152.3 -541.55 -181.7 -518.7 -208.6 -492.85 -232.7 -464.4 -253.65 -433.7 -271.1 -401.2 -284.9 -367.25 -294.85 -330.3 -300.75 -305.85 -304.2 -289.9 -305.0 284.2 -305.0 304.6 -304.5" fill="#828282" fill-rule="evenodd" stroke="none"/>
    <path d="M330.3 -295.8 L296.85 -299.5 284.15 -300.0 -296.55 -299.75 -331.9 -295.8 -366.15 -290.0 -399.5 -280.2 -431.5 -266.65 -461.65 -249.45 -489.65 -228.85 -515.05 -205.15 -537.55 -178.65 -556.8 -149.75 -572.55 -118.8 -584.65 -86.2 -592.85 -52.45 -597.05 -17.95 -597.25 16.75 -593.45 51.3 -585.6 85.15 -573.9 117.85 -558.5 149.0 -539.6 178.15 -517.4 204.85 -492.25 228.85 -464.5 249.75 -434.55 267.3 Q-418.6 274.3 -402.7 281.25 L-369.5 291.4 -342.7 296.25 -327.7 297.7 -300.65 298.0 317.3 297.8 345.3 295.5 367.85 291.4 401.1 281.25 432.9 267.3 462.9 249.75 490.65 228.85 515.75 204.85 537.95 178.15 556.9 149.0 572.3 117.85 584.0 85.15 591.8 51.3 595.65 16.75 595.45 -17.95 591.2 -52.45 583.0 -86.2 570.95 -118.8 555.15 -149.75 535.9 -178.65 513.45 -205.15 488.05 -228.85 460.05 -249.45 429.85 -266.65 397.9 -280.2 364.55 -290.0 330.3 -295.8 M297.4 -304.5 L330.85 -300.8 331.0 -300.75 331.15 -300.75 365.95 -294.8 399.3 -285.0 431.8 -271.25 462.5 -253.75 462.75 -253.65 491.45 -232.5 517.25 -208.4 540.1 -181.45 559.5 -152.3 575.4 -121.05 575.55 -120.8 587.8 -87.7 587.85 -87.4 596.05 -53.65 596.15 -53.35 600.45 -18.3 600.65 17.05 600.6 17.3 596.75 52.15 588.85 86.25 588.8 86.55 576.9 119.8 561.35 151.2 561.25 151.45 561.05 151.7 542.0 181.1 541.8 181.3 519.6 208.05 519.45 208.3 493.9 232.65 465.65 253.95 465.4 254.05 435.2 271.75 403.1 285.8 402.85 285.95 402.55 286.0 369.3 296.2 346.2 300.45 345.95 300.45 345.7 300.5 317.7 302.8 -300.7 303.0 -328.15 302.7 -343.2 301.25 -343.4 301.25 -343.6 301.2 -370.95 296.2 -404.15 286.0 -404.45 285.95 -404.7 285.8 -436.55 271.9 -467.05 254.05 -467.3 253.95 -495.3 232.85 -521.05 208.3 -543.6 181.1 -563.0 151.2 -578.55 119.8 -590.5 86.25 -598.4 51.85 -602.25 17.3 -602.05 -18.6 -597.7 -53.65 -589.5 -87.4 -577.15 -120.8 -577.0 -121.05 -561.1 -152.3 -541.55 -181.7 -541.35 -181.9 -518.7 -208.6 -518.45 -208.8 -492.85 -232.7 -492.6 -232.85 -464.4 -253.65 -464.15 -253.75 -433.45 -271.25 -401.2 -284.9 -367.55 -294.8 -332.75 -300.75 -332.6 -300.75 -332.45 -300.8 -297.1 -304.7 -297.0 -304.7 -296.85 -304.75 284.25 -305.0 297.4 -304.5" fill="#828282" fill-rule="evenodd" stroke="none"/>
    <path d="M304.4 -225.7 L322.95 -220.8 341.1 -214.3 358.6 -206.25 375.35 -196.75 391.25 -185.8 406.2 -173.55 420.05 -160.05 432.75 -145.4 444.15 -129.7 454.25 -113.1 462.9 -95.7 470.05 -77.55 475.65 -58.9 479.7 -39.85 482.15 -20.5 483.0 -1.0 482.15 18.5 479.7 37.85 475.65 56.95 470.05 75.6 462.9 93.7 454.25 111.1 444.15 127.75 432.75 143.45 420.05 158.05 406.2 171.6 391.25 183.85 375.35 194.75 358.6 204.3 341.1 212.3 322.95 218.8 304.4 223.75 285.45 227.05 266.3 228.7 -266.0 228.7 -285.15 227.05 -304.05 223.75 -322.65 218.8 -340.75 212.3 -358.25 204.3 -375.0 194.75 -390.95 183.85 -405.9 171.6 -419.75 158.05 -432.45 143.45 -443.85 127.75 -453.9 111.1 -462.55 93.7 -469.75 75.6 -475.35 56.95 -479.4 37.85 -481.85 18.5 -482.65 -1.0 -481.85 -20.5 -479.4 -39.85 -475.35 -58.9 -469.75 -77.55 -462.55 -95.7 -453.9 -113.1 -443.85 -129.7 -432.45 -145.4 -419.75 -160.05 -405.9 -173.55 -390.95 -185.8 -375.0 -196.75 -358.25 -206.25 -340.75 -214.3 -322.65 -220.8 -304.05 -225.7 -285.15 -229.0 -266.0 -230.65 266.3 -230.65 285.45 -229.0 304.4 -225.7" fill="#7f7f7f" fill-rule="evenodd" stroke="none"/>
    <path d="M-345.8 -226.65 L-326.6 -233.55 -306.9 -238.75 -286.85 -242.25 -286.3 -242.3 -266.0 -230.65 -285.15 -229.0 -304.05 -225.7 -322.65 -220.8 -340.75 -214.3 -358.25 -206.25 -375.0 -196.75 -390.95 -185.8 -405.9 -173.55 -419.75 -160.05 -432.45 -145.4 -443.85 -129.7 -453.9 -113.1 -462.55 -95.7 -469.75 -77.55 -475.35 -58.9 -479.4 -39.85 -481.85 -20.5 -482.65 -1.0 -481.85 18.5 -479.4 37.85 -475.35 56.95 -469.75 75.6 -462.55 93.7 -453.9 111.1 -443.85 127.75 -432.45 143.45 -419.75 158.05 -405.9 171.6 -390.95 183.85 -375.0 194.75 -358.25 204.3 -340.75 212.3 -322.65 218.8 -304.05 223.75 -285.15 227.05 -266.0 228.7 -286.3 240.3 -286.85 240.25 -306.9 236.75 -326.6 231.55 -345.8 224.65 -364.35 216.15 -382.1 206.05 -398.95 194.5 -414.75 181.5 -429.45 167.25 -442.9 151.75 -454.95 135.15 -465.6 117.55 -474.75 99.1 -482.35 80.0 -488.3 60.25 -492.55 40.1 -495.15 19.6 -496.0 -1.0 -495.15 -21.6 -492.55 -42.05 -488.3 -62.25 -482.35 -81.95 -474.75 -101.1 -465.6 -119.55 -454.95 -137.1 -442.9 -153.7 -429.45 -169.2 -414.75 -183.5 -398.95 -196.5 -382.1 -208.05 -364.35 -218.15 -345.8 -226.65 M307.25 -238.75 L326.95 -233.55 346.1 -226.65 364.65 -218.15 382.4 -208.05 399.25 -196.5 415.1 -183.5 429.75 -169.2 443.2 -153.7 455.3 -137.1 465.95 -119.55 475.1 -101.1 482.65 -81.95 488.6 -62.25 492.9 -42.05 495.45 -21.6 496.3 -1.0 495.45 19.6 492.9 40.1 488.6 60.25 482.65 80.0 475.1 99.1 465.95 117.55 455.3 135.15 443.2 151.75 429.75 167.25 415.1 181.5 399.25 194.5 382.4 206.05 364.65 216.15 346.1 224.65 326.95 231.55 307.25 236.75 287.2 240.25 266.3 228.7 285.45 227.05 304.4 223.75 322.95 218.8 341.1 212.3 358.6 204.3 375.35 194.75 391.25 183.85 406.2 171.6 420.05 158.05 432.75 143.45 444.15 127.75 454.25 111.1 462.9 93.7 470.05 75.6 475.65 56.95 479.7 37.85 482.15 18.5 483.0 -1.0 482.15 -20.5 479.7 -39.85 475.65 -58.9 470.05 -77.55 462.9 -95.7 454.25 -113.1 444.15 -129.7 432.75 -145.4 420.05 -160.05 406.2 -173.55 391.25 -185.8 375.35 -196.75 358.6 -206.25 341.1 -214.3 322.95 -220.8 304.4 -225.7 285.45 -229.0 266.3 -230.65 286.6 -242.3 287.2 -242.25 307.25 -238.75" fill="#434343" fill-rule="evenodd" stroke="none"/>
    <path d="M-495.15 -21.6 L-492.55 -42.05 -488.3 -62.25 -482.35 -81.95 -474.75 -101.1 -472.1 -106.5 -471.05 -99.3 -468.4 -92.4 -464.4 -86.15 -459.2 -80.85 -453.05 -76.65 -446.85 -74.1 -446.65 -75.65 -445.0 -78.3 -442.45 -80.05 -439.45 -80.55 -436.6 -79.75 -429.55 -72.95 -424.25 -74.1 -424.15 -74.15 -420.4 -77.1 -412.75 -81.95 -404.6 -86.05 -396.15 -89.4 -387.4 -91.85 -378.45 -93.5 -373.75 -93.9 -373.75 -105.9 -372.45 -108.5 -370.0 -110.3 -366.95 -110.95 -363.9 -110.35 -361.45 -108.5 -360.1 -105.9 -360.1 -94.1 -351.25 -93.1 -342.35 -91.25 -333.65 -88.55 -325.3 -85.0 -317.3 -80.65 -309.75 -75.55 -304.75 -71.45 -296.85 -79.7 -294.05 -80.65 -291.05 -80.25 -288.4 -78.6 -286.65 -76.0 -286.15 -73.0 -286.95 -70.2 -295.05 -61.75 -290.55 -56.3 -285.5 -48.75 -281.2 -40.75 -277.65 -32.35 -274.95 -23.65 -273.15 -14.75 -272.3 -7.05 -261.25 -7.05 -258.65 -5.7 -256.8 -3.25 -256.15 -0.2 -256.8 2.85 -258.6 5.25 -261.25 6.65 -272.3 6.65 -272.4 8.25 -273.65 17.25 -275.7 26.1 -278.65 34.7 -282.4 43.0 -286.9 50.9 -292.2 58.3 -295.2 61.8 -287.3 69.45 -286.35 72.25 -286.7 75.25 -288.35 77.9 -290.95 79.65 -293.95 80.15 -296.75 79.3 -304.85 71.55 -311.9 77.05 -319.6 81.9 -327.7 86.05 -336.15 89.35 -344.9 91.85 -353.85 93.45 -359.9 93.95 -359.9 105.05 -361.25 107.65 -363.7 109.5 -366.75 110.15 -369.8 109.5 -372.25 107.65 -373.6 105.05 -373.6 93.9 -381.05 93.1 -389.95 91.2 -398.65 88.5 -407.0 84.95 -415.0 80.6 -422.55 75.5 -427.75 71.25 -428.6 71.05 -436.5 79.25 -439.3 80.2 -442.35 79.8 -445.0 78.2 -446.75 75.6 -447.25 72.6 -447.1 72.1 -453.05 74.55 -459.2 78.7 -464.4 84.05 -468.4 90.3 -471.05 97.2 -472.15 104.6 -474.75 99.1 -482.35 80.0 -488.3 60.25 -492.55 40.1 -495.15 19.6 -496.0 -1.0 -495.15 -21.6" fill="#ffffff" fill-opacity="0.14901961" fill-rule="evenodd" stroke="none"/>
    <path d="M312.3 -76.75 L320.0 -81.6 328.1 -85.75 336.55 -89.05 345.3 -91.55 354.25 -93.15 358.95 -93.55 358.95 -105.55 360.25 -108.15 362.7 -110.0 365.75 -110.65 368.8 -110.0 371.25 -108.2 372.6 -105.55 372.6 -93.75 381.45 -92.8 390.35 -90.9 399.05 -88.2 407.4 -84.65 415.4 -80.3 422.95 -75.25 426.3 -72.45 428.7 -71.9 435.85 -79.35 438.65 -80.3 441.65 -79.9 444.3 -78.25 446.05 -75.7 446.55 -72.9 452.85 -75.5 459.0 -79.65 464.2 -85.0 468.2 -91.2 470.85 -98.15 472.05 -105.45 472.0 -107.5 475.1 -101.1 482.65 -81.95 488.6 -62.25 492.9 -42.05 495.45 -21.6 496.3 -1.0 495.45 19.6 492.9 40.1 488.6 60.25 482.65 80.0 475.1 99.1 472.05 105.4 470.85 98.35 468.2 91.45 464.2 85.2 459.0 79.9 452.85 75.75 446.3 73.0 446.0 75.6 444.35 78.25 441.75 80.0 438.75 80.5 435.95 79.65 428.2 72.25 427.0 72.5 420.8 77.35 413.1 82.25 405.0 86.35 396.55 89.7 387.8 92.15 378.85 93.8 372.8 94.3 372.8 105.35 371.45 108.0 369.0 109.8 366.0 110.45 362.95 109.8 360.5 108.0 359.1 105.4 359.1 94.25 351.65 93.4 342.75 91.55 334.05 88.85 325.7 85.3 317.7 80.95 310.15 75.85 304.35 71.1 296.2 79.6 293.4 80.55 290.35 80.15 287.7 78.5 285.95 75.95 285.45 72.95 286.3 70.1 294.8 61.25 290.95 56.6 285.9 49.05 281.55 41.0 278.05 32.65 275.35 23.95 273.5 15.05 272.65 6.95 260.6 6.95 257.95 5.65 256.15 3.2 255.5 0.15 256.15 -2.9 257.95 -5.35 260.55 -6.7 272.75 -6.7 272.8 -7.95 274.0 -16.95 276.1 -25.8 279.05 -34.4 282.8 -42.7 287.3 -50.6 292.55 -58.0 295.3 -61.15 286.6 -69.5 285.65 -72.3 286.05 -75.35 287.7 -78.0 290.25 -79.75 293.25 -80.25 296.1 -79.4 304.9 -70.95 312.3 -76.75" fill="#ffffff" fill-opacity="0.14901961" fill-rule="evenodd" stroke="none"/>
    <path d="M-202.9 -209.7 L-199.0 -221.1 -194.7 -230.65 -173.1 -263.1 13.9 -263.1 29.3 -230.65 30.25 -229.05 34.9 -217.9 38.5 -206.35 40.95 -194.55 42.25 -182.5 42.35 -172.5 41.9 -164.0 40.3 -152.0 37.5 -140.25 33.6 -128.8 28.65 -117.75 22.6 -107.3 15.6 -97.45 7.7 -88.3 -1.05 -80.0 -10.6 -72.55 -20.8 -66.05 -31.6 -60.6 -42.85 -56.2 -54.45 -52.9 -66.35 -50.75 -78.4 -49.7 -90.5 -49.9 -102.5 -51.2 -114.35 -53.7 -125.85 -57.3 -137.0 -62.05 -147.65 -67.8 -157.65 -74.55 -166.95 -82.25 -175.5 -90.8 -183.15 -100.15 -189.9 -110.2 -195.65 -120.85 -200.3 -132.0 -203.9 -143.55 -206.35 -155.4 -207.6 -167.4 -207.3 -185.95 -205.65 -197.9 -202.9 -209.7" fill="#969696" fill-rule="evenodd" stroke="none"/>
    <path d="M91.1 51.0 L103.1 52.35 114.95 54.8 126.5 58.45 137.6 63.15 148.25 68.9 158.25 75.7 167.6 83.35 176.1 91.95 183.8 101.3 190.5 111.3 196.25 121.95 200.9 133.1 204.5 144.65 206.95 156.5 208.25 168.5 208.35 178.55 207.9 187.05 206.3 199.0 203.5 210.8 199.6 222.25 183.65 255.0 -13.7 252.3 -30.1 228.7 -34.3 219.05 -37.9 207.5 -40.35 195.65 -41.65 183.6 -41.3 165.1 -39.65 153.1 -36.9 141.35 -33.0 129.9 -28.05 118.9 -22.0 108.4 -15.0 98.55 -7.1 89.4 1.7 81.1 11.2 73.65 21.4 67.15 32.2 61.7 43.45 57.3 55.1 54.0 66.95 51.85 79.0 50.85 91.1 51.0" fill="#969696" fill-rule="evenodd" stroke="none"/>
    <path d="M174.15 -118.75 L181.2 -116.45 187.6 -112.75 193.2 -107.85 197.65 -101.95 200.85 -95.25 202.6 -88.05 202.9 -80.65 201.7 -73.3 199.0 -66.4 195.0 -60.15 189.85 -54.85 183.7 -50.65 176.85 -47.85 169.55 -46.45 162.15 -46.5 154.9 -48.1 148.1 -51.1 142.05 -55.45 137.05 -60.85 133.2 -67.2 130.7 -74.2 129.65 -81.55 130.15 -88.95 132.1 -96.1 135.45 -102.75 140.05 -108.55 145.75 -113.3 152.25 -116.8 159.35 -118.95 166.75 -119.6 174.15 -118.75" fill="#707070" fill-rule="evenodd" stroke="none"/>
    <path d="M-192.95 57.8 L-187.25 53.05 -180.75 49.5 -173.65 47.4 -166.25 46.75 -158.85 47.55 -151.8 49.9 -145.4 53.55 -139.8 58.45 -135.35 64.4 -132.15 71.1 -130.4 78.3 -130.1 85.7 -131.3 93.0 -134.0 99.95 -138.0 106.2 -143.15 111.5 -149.3 115.65 -156.15 118.5 -163.45 119.9 -170.85 119.8 -178.1 118.25 -184.9 115.2 -190.95 110.9 -195.95 105.45 -199.8 99.1 -202.3 92.15 -203.35 84.8 -202.85 77.4 -200.9 70.2 -197.55 63.6 -192.95 57.8" fill="#707070" fill-rule="evenodd" stroke="none"/>
    <path d="M-119.1 -228.7 L-107.65 -234.9 -95.2 -238.65 -82.25 -239.8 -69.35 -238.3 -56.95 -234.25 -45.7 -227.8 -35.9 -219.2 -28.1 -208.8 -22.5 -197.05 -19.4 -184.45 -18.9 -171.45 -21.05 -158.6 -25.7 -146.45 -32.75 -135.5 -41.8 -126.2 -52.6 -118.9 -64.6 -113.95 -77.35 -111.5 -90.35 -111.65 -103.1 -114.4 -114.95 -119.7 -125.55 -127.25 -134.4 -136.8 -141.15 -147.9 -145.5 -160.2 -147.3 -173.05 -146.5 -186.05 -143.05 -198.6 -137.2 -210.2 -129.1 -220.35 -119.1 -228.7" fill="#707070" fill-rule="evenodd" stroke="none"/>
    <path d="M47.4 121.6 L58.85 115.45 71.3 111.7 84.25 110.55 97.15 112.05 109.5 116.05 120.8 122.55 130.6 131.1 138.4 141.5 144.0 153.25 147.1 165.9 147.6 178.9 145.45 191.7 140.8 203.85 133.75 214.8 124.7 224.1 113.9 231.4 101.9 236.4 89.15 238.85 76.15 238.7 63.4 235.9 51.55 230.65 40.95 223.05 32.1 213.55 25.35 202.4 21.0 190.15 19.2 177.25 20.0 164.3 23.45 151.75 29.3 140.15 37.4 129.95 47.4 121.6" fill="#707070" fill-rule="evenodd" stroke="none"/>
  </g>
</svg>
