<?xml version="1.0" encoding="UTF-8" standalone="no"?>
<svg xmlns:ffdec="https://www.free-decompiler.com/flash" xmlns:xlink="http://www.w3.org/1999/xlink" ffdec:objectType="shape" height="1060.0px" width="1666.65px" xmlns="http://www.w3.org/2000/svg">
  <g transform="matrix(1.0, 0.0, 0.0, 1.0, 834.15, 531.0)">
    <path d="M603.2 -443.05 L650.55 -406.5 693.5 -364.45 731.5 -317.5 764.1 -266.2 790.75 -211.25 811.15 -153.45 825.05 -93.6 832.2 -32.4 832.5 29.2 826.05 90.5 812.8 150.55 793.05 208.55 766.95 263.8 734.95 315.5 697.45 362.9 654.95 405.5 608.05 442.55 557.3 473.7 503.5 498.4 447.3 516.45 399.95 525.5 370.65 528.5 330.9 529.0 -333.5 529.0 -370.65 528.55 -402.15 525.4 -448.95 516.45 -505.15 498.4 -558.95 473.7 -609.65 442.55 -656.6 405.5 -699.1 362.9 -736.6 315.5 -768.6 263.8 -794.65 208.55 -814.45 150.55 -827.65 90.5 -834.15 29.2 -833.8 -32.4 -826.65 -93.6 -812.8 -153.45 -792.35 -211.25 -765.7 -266.2 -733.15 -317.5 -695.1 -364.45 -652.15 -406.5 -604.85 -443.05 -553.8 -473.55 -499.7 -497.6 -443.3 -514.95 -390.4 -524.4 -333.8 -531.0 332.15 -531.0 388.8 -524.4 441.7 -514.95 498.05 -497.6 552.15 -473.55 603.2 -443.05" fill="#707070" fill-rule="evenodd" stroke="none"/>
    <path d="M524.55 -428.95 L573.05 -401.35 618.0 -368.25 658.8 -330.2 694.95 -287.6 725.9 -241.15 751.2 -191.45 770.6 -139.1 783.8 -84.85 790.6 -29.45 790.9 26.35 784.75 81.85 772.2 136.25 753.4 188.8 728.65 238.8 698.2 285.65 662.6 328.6 622.2 367.15 577.6 400.7 529.45 428.9 478.3 451.3 424.95 467.6 371.0 477.45 361.65 478.45 314.3 479.0 -316.9 479.0 -360.95 478.5 -374.0 477.2 -426.55 467.6 -479.95 451.3 -531.05 428.9 -579.25 400.7 -623.85 367.15 -664.2 328.6 -699.85 285.65 -730.25 238.8 -755.0 188.8 -773.8 136.25 -786.35 81.85 -792.55 26.35 -792.2 -29.45 -785.4 -84.85 -772.25 -139.1 -752.85 -191.45 -727.5 -241.15 -696.55 -287.6 -660.45 -330.2 -619.65 -368.25 -574.65 -401.35 -526.15 -428.95 -474.8 -450.75 -421.25 -466.5 -375.05 -474.35 -366.25 -476.75 -317.15 -494.65 -217.35 -514.7 216.0 -514.7 315.55 -494.65 363.55 -477.15 373.85 -474.25 419.6 -466.5 473.15 -450.75 524.55 -428.95" fill="#434343" fill-rule="evenodd" stroke="none"/>
    <path d="M392.8 -313.4 L394.35 -319.45 410.25 -314.8 446.15 -299.55 474.6 -283.35 471.2 -278.5 494.05 -262.55 497.45 -267.45 511.5 -257.1 516.9 -252.05 510.15 -245.55 511.8 -243.85 519.7 -251.35 519.7 -251.4 539.5 -271.2 571.25 -239.45 543.9 -212.3 545.55 -210.65 551.8 -216.6 560.6 -206.25 556.1 -202.95 572.75 -180.6 576.7 -183.55 586.85 -168.3 604.6 -133.55 615.3 -104.65 610.65 -103.6 616.8 -76.45 622.8 -77.8 627.35 -59.05 632.1 -20.35 632.3 15.7 628.0 54.45 625.0 67.45 618.95 66.05 612.75 93.2 618.5 94.5 606.1 129.2 588.8 164.2 582.0 174.6 578.35 171.9 561.75 194.2 566.7 197.9 551.35 216.4 545.8 211.1 544.15 212.75 553.6 221.95 553.6 221.85 571.25 239.5 539.5 271.25 518.35 250.1 518.25 250.2 512.05 244.3 510.4 246.0 516.5 251.9 514.4 253.85 505.8 260.35 503.0 256.35 480.15 272.25 483.5 277.1 483.25 277.35 449.6 297.05 413.85 312.7 403.65 315.8 402.25 310.35 375.25 317.3 376.95 323.95 375.85 324.3 336.5 329.95 299.25 330.35 206.3 330.35 165.7 346.65 163.0 346.65 163.0 348.15 165.1 348.15 165.1 381.3 135.1 381.3 135.1 348.15 137.2 348.15 137.2 346.65 129.65 346.65 129.65 348.15 131.75 348.15 131.75 381.3 101.75 381.3 101.75 348.15 103.85 348.15 103.85 346.65 96.3 346.65 96.3 348.15 98.4 348.15 98.4 381.3 68.4 381.3 68.4 348.15 70.55 348.15 70.55 346.65 63.0 346.65 63.0 348.15 65.1 348.15 65.1 381.3 35.1 381.3 35.1 348.15 37.2 348.15 37.2 346.65 29.65 346.65 29.65 348.15 31.75 348.15 31.75 381.3 1.75 381.3 1.75 348.15 3.85 348.15 3.85 346.65 -3.7 346.65 -3.7 348.15 -1.6 348.15 -1.6 381.3 -31.6 381.3 -31.6 348.15 -29.45 348.15 -29.45 346.65 -37.0 346.65 -37.0 348.15 -34.9 348.15 -34.9 381.3 -64.9 381.3 -64.9 348.15 -62.8 348.15 -62.8 346.65 -70.35 346.65 -70.35 348.15 -68.25 348.15 -68.25 381.3 -98.25 381.3 -98.25 348.15 -96.15 348.15 -96.15 346.65 -103.7 346.65 -103.7 348.15 -101.6 348.15 -101.6 381.3 -131.6 381.3 -131.6 348.15 -129.45 348.15 -129.45 346.65 -137.0 346.65 -137.0 348.15 -134.9 348.15 -134.9 381.3 -164.9 381.3 -164.9 348.15 -162.8 348.15 -162.8 346.65 -166.7 346.65 -205.0 330.35 -301.05 330.35 -338.15 329.95 -367.0 325.8 -365.4 319.65 -392.4 312.7 -394.1 319.2 -415.45 312.7 -451.2 297.05 -474.7 283.25 -470.55 277.25 -493.35 261.35 -497.75 267.6 -516.05 253.85 -517.05 252.9 -509.85 245.85 -511.5 244.2 -518.85 251.2 -519.15 250.85 -539.55 271.25 -571.3 239.5 -553.1 221.25 -553.05 221.85 -543.6 212.65 -545.25 211.0 -552.1 217.5 -561.75 205.8 -555.9 201.45 -572.55 179.1 -578.05 183.2 -590.4 164.2 -607.7 129.2 -616.8 103.75 -610.05 102.2 -616.2 75.05 -624.45 76.95 -629.65 54.45 -633.95 15.7 -633.7 -20.35 -628.95 -59.05 -626.9 -67.55 -619.65 -65.9 -613.5 -93.05 -620.35 -94.6 -619.75 -96.95 -606.2 -133.55 -588.5 -168.3 -583.85 -175.25 -578.1 -170.95 -561.45 -193.25 -568.4 -198.45 -566.9 -200.75 -552.75 -217.4 -545.5 -210.55 -543.85 -212.2 -571.3 -239.45 -539.55 -271.2 -519.65 -251.3 -519.65 -251.25 -511.75 -243.75 -510.1 -245.4 -517.7 -252.8 -513.1 -257.1 -506.5 -261.95 -502.35 -256.05 -479.55 -272.0 -484.05 -278.5 -481.65 -280.25 -447.8 -299.55 -411.85 -314.8 -404.7 -316.9 -402.95 -310.2 -376.0 -317.1 -377.95 -324.75 -374.45 -325.75 -335.3 -332.45 -293.95 -333.0 -205.0 -333.0 -166.7 -346.7 -162.8 -346.7 -162.8 -348.35 -164.9 -348.35 -164.9 -381.5 -134.9 -381.5 -134.9 -348.35 -137.0 -348.35 -137.0 -346.7 -129.45 -346.7 -129.45 -348.35 -131.6 -348.35 -131.6 -381.5 -101.6 -381.5 -101.6 -348.35 -103.7 -348.35 -103.7 -346.7 -96.15 -346.7 -96.15 -348.35 -98.25 -348.35 -98.25 -381.5 -68.25 -381.5 -68.25 -348.35 -70.35 -348.35 -70.35 -346.7 -62.8 -346.7 -62.8 -348.35 -64.9 -348.35 -64.9 -381.5 -34.9 -381.5 -34.9 -348.35 -37.0 -348.35 -37.0 -346.7 -29.45 -346.7 -29.45 -348.35 -31.6 -348.35 -31.6 -381.5 -1.6 -381.5 -1.6 -348.35 -3.7 -348.35 -3.7 -346.7 3.85 -346.7 3.85 -348.35 1.75 -348.35 1.75 -381.5 31.75 -381.5 31.75 -348.35 29.65 -348.35 29.65 -346.7 37.2 -346.7 37.2 -348.35 35.1 -348.35 35.1 -381.5 65.1 -381.5 65.1 -348.35 63.0 -348.35 63.0 -346.7 70.55 -346.7 70.55 -348.35 68.4 -348.35 68.4 -381.5 98.4 -381.5 98.4 -348.35 96.3 -348.35 96.3 -346.7 103.85 -346.7 103.85 -348.35 101.75 -348.35 101.75 -381.5 131.75 -381.5 131.75 -348.35 129.65 -348.35 129.65 -346.7 137.2 -346.7 137.2 -348.35 135.1 -348.35 135.1 -381.5 165.1 -381.5 165.1 -348.35 163.0 -348.35 163.0 -346.7 165.7 -346.7 206.3 -333.0 292.85 -333.0 333.65 -332.45 367.45 -326.7 365.8 -320.35 392.8 -313.4" fill="#707070" fill-rule="evenodd" stroke="none"/>
    <path d="M387.65 -287.0 L417.3 -276.0 468.0 -250.0 505.0 -218.35 535.65 -185.7 556.0 -156.7 570.65 -128.7 587.0 -89.0 599.3 -28.0 600.1 9.85 598.55 31.2 593.4 63.65 581.65 104.8 562.8 147.0 539.0 183.4 510.3 217.0 470.75 249.0 436.55 270.1 389.0 288.3 345.0 299.0 305.5 301.0 -291.0 301.0 -330.5 299.5 -389.45 289.4 -425.45 274.0 -458.35 256.3 -492.35 231.65 -515.7 210.3 -535.0 187.0 -554.35 159.65 -571.0 128.3 -583.0 99.0 -593.0 65.65 -600.35 21.0 -599.7 -23.0 -595.0 -53.0 -586.35 -86.35 -575.7 -117.7 -565.0 -139.7 -541.7 -175.7 -519.7 -203.7 -495.7 -227.0 -469.0 -247.0 -446.35 -261.0 -411.0 -279.0 -380.35 -287.7 -337.0 -297.0 -307.0 -302.0 295.0 -302.35 335.0 -298.35 387.65 -287.0" fill="#969696" fill-rule="evenodd" stroke="none"/>
    <path d="M304.6 -304.5 L331.65 -301.7 368.0 -294.85 401.9 -284.9 434.4 -271.1 465.1 -253.65 493.55 -232.7 519.4 -208.6 542.25 -181.7 561.85 -152.3 577.85 -120.8 590.15 -87.7 598.45 -53.35 602.75 -18.3 603.0 17.05 599.1 52.15 591.15 86.55 579.25 119.8 563.55 151.45 544.3 181.1 521.75 208.3 496.2 232.65 468.0 253.95 437.5 271.75 405.15 285.95 371.4 296.25 348.2 300.5 304.35 302.8 -330.0 302.7 -370.6 296.3 -404.45 285.95 -436.8 271.75 -467.3 253.95 -495.5 232.65 -521.05 208.3 -543.6 181.1 -562.85 151.45 -578.55 119.8 -590.4 86.55 -598.35 52.15 -602.25 17.05 -602.05 -18.3 -597.75 -53.35 -589.4 -87.7 -577.15 -120.8 -561.1 -152.3 -541.55 -181.7 -518.7 -208.6 -492.85 -232.7 -464.4 -253.65 -433.7 -271.1 -401.2 -284.9 -367.25 -294.85 -330.3 -300.75 -305.85 -304.2 -289.9 -305.0 284.2 -305.0 304.6 -304.5 M331.0 -296.6 L304.2 -299.5 284.15 -300.0 -289.7 -300.0 -305.2 -299.2 -330.85 -296.0 -366.15 -290.0 -399.5 -280.2 -431.5 -266.65 -461.65 -249.45 -489.65 -228.85 -515.05 -205.15 -537.55 -178.65 -556.8 -149.75 -572.55 -118.8 -584.65 -86.2 -592.85 -52.45 -597.05 -17.95 -597.25 16.75 -593.45 51.3 -585.6 85.15 -573.9 117.85 -558.5 149.0 -539.6 178.15 -517.4 204.85 -492.25 228.85 -464.5 249.75 -434.55 267.3 Q-418.6 274.3 -402.7 281.25 L-369.5 291.4 -329.6 297.7 304.2 297.8 347.6 295.5 370.2 291.4 403.4 281.25 Q419.35 274.3 435.25 267.3 L465.25 249.75 493.0 228.85 518.1 204.85 540.3 178.15 559.2 149.0 574.65 117.85 586.3 85.15 594.15 51.3 598.0 16.75 597.8 -17.95 593.55 -52.45 585.35 -86.2 573.25 -118.8 557.5 -149.75 538.25 -178.65 515.75 -205.15 490.35 -228.85 462.4 -249.45 432.2 -266.65 400.2 -280.2 366.9 -290.0 331.0 -296.6" fill="#828282" fill-rule="evenodd" stroke="none"/>
    <path d="M299.8 -229.0 L318.7 -225.7 337.3 -220.8 355.4 -214.3 372.9 -206.25 389.7 -196.75 405.6 -185.8 411.85 -180.7 399.4 -156.35 400.3 -140.6 407.85 -126.6 422.75 -117.9 437.4 -116.35 461.3 -125.25 468.6 -113.1 477.2 -95.7 484.4 -77.55 490.0 -58.9 494.05 -39.85 496.5 -20.5 497.3 -1.0 496.5 18.5 494.05 37.85 490.0 56.95 484.4 75.6 477.2 93.7 468.6 111.1 458.5 127.75 447.1 143.45 434.4 158.05 420.55 171.6 405.6 183.85 389.7 194.75 372.9 204.3 355.4 212.3 337.3 218.8 318.7 223.75 299.8 227.05 280.65 228.7 -276.0 228.7 -295.15 227.05 -314.05 223.75 -332.65 218.8 -350.75 212.3 -368.25 204.3 -385.0 194.75 -400.95 183.85 -408.0 177.95 -398.7 154.65 -403.8 132.4 -420.0 119.15 -434.5 116.0 -457.4 121.8 -463.9 111.1 -472.55 93.7 -479.75 75.6 -485.35 56.95 -489.4 37.85 -491.85 18.5 -492.65 -1.0 -491.85 -20.5 -489.4 -39.85 -485.35 -58.9 -479.75 -77.55 -472.55 -95.7 -463.9 -113.1 -453.85 -129.7 -442.45 -145.4 -429.75 -160.05 -415.9 -173.55 -400.95 -185.8 -385.0 -196.75 -368.25 -206.25 -350.75 -214.3 -332.65 -220.8 -314.05 -225.7 -295.15 -229.0 -276.0 -230.65 280.65 -230.65 299.8 -229.0" fill="#7f7f7f" fill-rule="evenodd" stroke="none"/>
    <path d="M-257.1 240.35 L-177.1 224.5 179.95 224.5 261.95 240.35 -257.1 240.35" fill="#434343" fill-rule="evenodd" stroke="none"/>
    <path d="M-177.1 -226.55 L-260.1 -242.35 258.95 -242.35 179.95 -226.55 -177.1 -226.55" fill="#434343" fill-rule="evenodd" stroke="none"/>
    <path d="M214.05 -55.75 L216.0 -62.9 219.35 -69.5 223.95 -75.3 229.65 -80.05 236.15 -83.6 243.25 -85.7 250.65 -86.4 258.05 -85.55 265.1 -83.25 271.5 -79.55 277.1 -74.65 281.55 -68.7 284.75 -62.0 286.5 -54.8 286.8 -47.4 285.55 -40.1 282.9 -33.15 278.9 -26.9 273.75 -21.6 267.6 -17.45 260.75 -14.6 253.45 -13.2 246.05 -13.3 238.8 -14.9 232.0 -17.9 225.95 -22.2 220.95 -27.65 217.1 -34.0 214.6 -41.0 213.55 -48.3 214.05 -55.75" fill="#707070" fill-rule="evenodd" stroke="none"/>
    <path d="M414.65 68.85 L427.6 73.05 439.35 79.8 449.55 88.8 457.75 99.6 463.55 111.9 466.8 125.05 467.3 138.65 465.1 152.05 460.2 164.7 452.9 176.15 443.4 185.9 432.15 193.5 419.6 198.7 406.3 201.25 392.7 201.1 379.45 198.2 367.05 192.65 356.0 184.8 346.75 174.8 339.7 163.2 335.15 150.4 333.25 136.95 334.15 123.4 337.7 110.3 343.85 98.2 352.25 87.55 362.7 78.85 374.65 72.4 387.65 68.5 401.2 67.3 414.65 68.85" fill="#707070" fill-rule="evenodd" stroke="none"/>
    <path d="M415.6 -175.15 L410.8 -171.15 406.95 -166.25 404.1 -160.65 402.45 -154.65 402.05 -148.4 402.95 -142.25 405.05 -136.35 408.25 -131.0 412.5 -126.45 417.6 -122.8 423.3 -120.25 429.4 -118.95 435.65 -118.85 441.75 -120.05 447.55 -122.45 452.7 -125.95 457.05 -130.4 457.5 -131.05 461.3 -125.25 457.0 -120.8 450.7 -116.55 443.7 -113.6 436.25 -112.2 428.65 -112.3 421.2 -113.9 414.25 -117.0 408.1 -121.4 402.9 -127.0 399.0 -133.5 396.45 -140.65 395.4 -148.15 395.85 -155.75 397.85 -163.1 401.3 -169.85 406.0 -175.8 411.85 -180.7 417.55 -176.2 415.6 -175.15" fill="#707070" fill-rule="evenodd" stroke="none"/>
    <path d="M20.5 134.0 L25.85 138.7 30.2 144.45 33.25 150.9 34.95 157.85 35.25 165.05 34.05 172.1 31.5 178.8 27.6 184.85 22.6 189.95 16.7 194.0 10.05 196.7 3.0 198.1 -4.15 198.0 -11.15 196.45 -17.7 193.55 -23.55 189.4 -28.4 184.1 -32.1 178.0 -34.5 171.25 -35.5 164.15 -35.05 157.0 -33.2 150.1 -29.95 143.7 -25.5 138.05 -20.0 133.45 -13.7 130.05 -6.8 128.0 0.35 127.4 7.45 128.2 14.25 130.4 20.5 134.0" fill="#707070" fill-rule="evenodd" stroke="none"/>
    <path d="M-438.8 119.75 L-444.8 121.55 -450.3 124.55 -453.85 127.5 -457.4 121.8 -454.05 119.0 -447.35 115.4 -440.1 113.2 -432.5 112.5 -424.95 113.4 -417.75 115.75 -411.15 119.5 -405.45 124.55 -400.85 130.6 -397.6 137.45 -395.8 144.85 -395.5 152.45 -396.75 159.95 -399.5 167.05 -403.6 173.45 -408.0 177.95 -413.2 173.75 -408.8 169.25 -405.45 164.0 -403.2 158.2 -402.2 152.0 -402.45 145.8 -403.9 139.7 -406.6 134.1 -410.35 129.1 -415.05 124.95 -420.45 121.85 -426.4 119.95 -432.6 119.2 -438.8 119.75" fill="#707070" fill-rule="evenodd" stroke="none"/>
    <path d="M8.75 -11.75 L10.9 -9.85 12.6 -7.6 13.8 -5.1 14.45 -2.35 14.55 0.5 14.1 3.25 13.1 5.9 11.6 8.25 9.6 10.3 7.3 11.85 4.65 12.95 1.9 13.45 -0.9 13.45 -3.65 12.85 -6.25 11.7 -8.55 10.05 -10.45 8.0 -11.9 5.55 -12.85 2.9 -13.25 0.15 -13.05 -2.7 -12.35 -5.4 -11.05 -7.9 -9.3 -10.15 -7.15 -11.95 -4.65 -13.25 -1.95 -14.1 0.85 -14.35 3.65 -14.0 6.3 -13.15 8.75 -11.75" fill="#707070" fill-rule="evenodd" stroke="none"/>
    <path d="M-325.1 51.8 L-325.1 47.8 -313.95 47.8 -313.95 51.8 -325.1 51.8" fill="#707070" fill-rule="evenodd" stroke="none"/>
    <path d="M-186.2 51.8 L-186.2 47.8 -175.0 47.8 -175.0 51.8 -186.2 51.8" fill="#707070" fill-rule="evenodd" stroke="none"/>
    <path d="M-210.95 -13.95 L-216.5 -4.25 -220.0 -6.25 -214.4 -15.95 -210.95 -13.95" fill="#707070" fill-rule="evenodd" stroke="none"/>
    <path d="M-283.6 104.55 L-280.15 106.5 -285.7 116.2 -289.15 114.2 -283.6 104.55" fill="#707070" fill-rule="evenodd" stroke="none"/>
    <path d="M-285.8 -15.85 L-280.2 -6.2 -283.7 -4.2 -289.25 -13.9 -285.8 -15.85" fill="#707070" fill-rule="evenodd" stroke="none"/>
    <path d="M-219.9 106.45 L-216.4 104.45 -210.85 114.15 -214.3 116.15 -219.9 106.45" fill="#707070" fill-rule="evenodd" stroke="none"/>
    <path d="M61.2 -264.75 L80.95 -258.8 100.1 -251.25 106.35 -248.2 99.35 -247.0 92.4 -244.35 86.15 -240.35 80.85 -235.15 76.7 -229.0 73.85 -222.15 73.45 -220.05 75.4 -217.75 80.55 -210.25 84.3 -203.45 94.45 -207.75 97.4 -207.55 100.0 -206.0 101.8 -203.4 102.4 -200.35 101.65 -197.4 99.8 -195.15 89.55 -190.85 90.1 -189.35 92.45 -180.55 93.95 -171.6 94.6 -162.5 94.35 -153.4 93.25 -144.4 91.25 -135.5 89.8 -131.1 100.1 -127.15 102.05 -124.95 102.85 -122.0 102.35 -118.95 100.65 -116.3 98.1 -114.7 95.15 -114.35 84.65 -118.4 80.3 -110.6 75.1 -103.15 69.25 -96.2 62.7 -89.85 55.6 -84.2 47.95 -79.25 42.6 -76.45 46.9 -66.2 46.65 -63.3 45.1 -60.65 42.55 -58.9 39.5 -58.3 36.55 -59.0 34.3 -60.9 33.25 -63.35 32.75 -62.0 28.75 -55.75 23.7 -50.55 22.65 -45.1 22.3 -33.75 23.0 -29.4 23.5 -27.65 26.95 -24.65 31.4 -18.75 34.6 -12.05 36.35 -4.8 36.65 2.6 35.4 9.9 32.75 16.85 28.75 23.1 23.55 28.4 23.4 28.5 22.65 32.5 22.3 43.8 23.0 48.15 24.05 51.65 26.95 54.2 31.4 60.1 34.6 66.8 36.35 74.0 36.35 74.3 43.25 77.4 51.1 81.9 58.45 87.15 65.3 93.05 71.55 99.65 77.1 106.75 81.95 114.4 86.05 122.45 89.35 130.9 91.8 139.6 93.45 148.5 94.2 157.5 94.05 166.55 93.05 175.55 91.2 184.4 88.5 193.05 84.95 201.35 80.65 209.3 75.6 216.8 71.75 221.5 72.0 222.95 74.85 229.8 79.0 235.95 84.35 241.1 90.6 245.1 97.5 247.75 104.9 248.85 99.4 251.5 80.3 259.05 60.55 265.0 40.4 269.3 19.9 271.85 -0.7 272.75 -21.3 271.85 -41.75 269.3 -61.95 265.0 -81.65 259.05 -100.8 251.5 -106.2 248.8 -99.0 247.75 -92.1 245.1 -85.85 241.1 -80.55 235.95 -76.35 229.8 -74.4 225.5 -73.55 222.95 -72.8 219.05 -76.2 214.7 -81.05 207.05 -85.15 198.95 -88.45 190.55 -90.9 181.85 -92.55 172.95 -93.3 163.95 -93.15 154.9 -92.15 145.9 -90.3 137.05 -87.6 128.4 -84.05 120.05 -79.75 112.1 -74.7 104.6 -68.95 97.65 -62.5 91.25 -55.55 85.5 -48.0 80.5 -40.05 76.2 -36.25 74.6 -36.15 73.1 -34.2 65.95 -30.85 59.3 -26.2 53.5 -23.9 51.6 -22.85 48.15 -22.2 43.8 -22.5 32.5 -23.3 28.45 -24.2 27.8 -29.25 22.35 -33.1 16.0 -35.55 9.0 -36.6 1.65 -36.15 -5.75 -34.2 -12.9 -30.85 -19.5 -26.2 -25.3 -23.4 -27.7 -22.85 -29.4 -22.2 -33.75 -22.5 -45.1 -23.55 -50.6 -24.2 -51.05 -29.25 -56.5 -32.9 -62.5 -33.75 -60.35 -35.95 -58.35 -38.9 -57.55 -41.95 -58.05 -44.55 -59.75 -46.2 -62.35 -46.5 -65.25 -42.1 -76.7 -47.45 -79.5 -55.05 -84.5 -62.15 -90.25 -68.65 -96.6 -74.45 -103.6 -79.6 -111.1 -83.55 -118.2 -94.65 -113.55 -97.6 -113.75 -100.2 -115.3 -102.0 -117.85 -102.6 -120.9 -101.85 -123.85 -100.0 -126.15 -88.75 -130.85 -89.2 -132.0 -91.55 -140.8 -93.05 -149.75 -93.7 -158.8 -93.45 -167.9 -92.3 -176.95 -90.3 -185.8 -89.0 -189.8 -100.3 -194.1 -102.25 -196.35 -103.05 -199.25 -102.55 -202.35 -100.85 -204.95 -98.3 -206.6 -95.35 -206.9 -83.95 -202.5 -79.4 -210.75 -74.2 -218.2 -71.55 -221.3 -71.7 -222.15 -74.55 -229.0 -78.7 -235.15 -84.0 -240.35 -90.25 -244.35 -97.2 -247.0 -104.5 -248.2 -106.55 -248.15 -100.15 -251.25 -81.0 -258.8 -61.25 -264.75 -41.1 -269.05 -20.65 -271.6 -0.05 -272.45 20.6 -271.6 41.05 -269.05 61.2 -264.75" fill="#ffffff" fill-opacity="0.14901961" fill-rule="evenodd" stroke="none"/>
    <path d="M394.65 40.8 L408.5 41.05 417.45 42.3 426.3 44.35 434.85 47.25 443.1 51.0 450.95 55.5 458.3 60.75 465.15 66.65 471.4 73.25 476.95 80.35 481.8 88.0 492.0 162.5 440.8 218.85 357.5 217.65 349.65 213.15 342.3 207.9 335.45 201.95 329.2 195.4 323.65 188.3 318.8 180.65 314.7 172.6 311.4 164.15 308.95 155.45 307.3 146.55 306.55 137.55 306.7 128.5 307.7 119.5 309.55 110.65 312.25 102.0 315.8 93.65 320.1 85.7 325.15 78.2 330.9 71.25 337.3 64.85 344.3 59.1 351.85 54.1 359.8 49.8 368.15 46.3 376.8 43.6 385.65 41.8 394.65 40.8" fill="#969696" fill-rule="evenodd" stroke="none"/>
    <path d="M-426.45 -229.5 L-357.8 -216.3 -349.95 -211.75 -342.6 -206.55 -335.75 -200.6 -329.5 -194.05 -323.95 -186.9 -319.1 -179.3 -315.0 -171.2 -311.7 -162.8 -309.25 -154.1 -307.65 -145.2 -306.9 -136.15 -307.0 -127.1 -308.0 -118.1 -309.85 -109.25 -312.55 -100.65 -316.1 -92.3 -320.4 -84.35 -325.45 -76.85 -331.25 -69.9 -337.65 -63.5 -344.65 -57.75 -352.15 -52.7 -360.1 -48.45 -368.45 -44.95 -377.1 -42.25 -385.95 -40.4 -394.95 -39.45 -408.8 -39.7 -417.8 -40.9 -426.6 -43.0 -435.15 -45.9 -443.4 -49.65 -451.25 -54.15 -458.6 -59.35 -465.45 -65.3 -471.7 -71.85 -477.25 -79.0 -482.1 -86.65 -503.95 -150.0 -426.45 -229.5" fill="#969696" fill-rule="evenodd" stroke="none"/>
    <path d="M-361.4 -187.55 L-351.05 -178.4 -342.7 -167.4 -336.8 -154.9 -333.5 -141.5 -333.0 -127.7 -335.25 -114.1 -340.2 -101.2 -347.65 -89.6 -357.3 -79.7 -368.7 -71.95 -381.45 -66.7 -395.0 -64.1 -408.8 -64.25 -422.3 -67.2 -434.9 -72.8 -446.15 -80.85 -455.55 -90.95 -462.7 -102.75 -467.3 -115.75 -469.25 -129.45 -468.35 -143.2 -464.75 -156.55 -458.5 -168.85 -449.9 -179.65 -439.35 -188.5 -427.2 -195.05 -413.95 -199.0 -400.2 -200.25 -386.5 -198.7 -373.35 -194.4 -361.4 -187.55" fill="#707070" fill-rule="evenodd" stroke="none"/>
    <path d="M10.95 -209.95 L20.8 -206.75 29.8 -201.6 37.6 -194.75 43.85 -186.5 48.3 -177.1 50.75 -167.05 51.15 -156.7 49.45 -146.5 45.7 -136.8 40.15 -128.1 32.9 -120.65 24.3 -114.85 14.75 -110.9 4.55 -108.95 -5.8 -109.05 -15.9 -111.25 -25.4 -115.5 -33.8 -121.5 -40.85 -129.1 -46.25 -137.95 -49.7 -147.75 -51.15 -158.0 -50.5 -168.35 -47.75 -178.35 -43.1 -187.55 -36.65 -195.7 -28.7 -202.35 -19.55 -207.25 -9.65 -210.25 0.7 -211.15 10.95 -209.95" fill="#707070" fill-rule="evenodd" stroke="none"/>
    <path d="M439.9 75.05 L430.65 70.4 432.8 66.2 442.0 70.85 439.9 75.05" fill="#707070" fill-rule="evenodd" stroke="none"/>
    <path d="M360.3 74.5 L358.2 70.3 367.4 65.65 369.55 69.85 360.3 74.5" fill="#707070" fill-rule="evenodd" stroke="none"/>
    <path d="M440.0 191.2 L442.15 195.4 432.9 200.1 430.8 195.85 440.0 191.2" fill="#707070" fill-rule="evenodd" stroke="none"/>
    <path d="M360.45 191.75 L369.65 196.4 367.5 200.65 358.3 195.95 360.45 191.75" fill="#707070" fill-rule="evenodd" stroke="none"/>
    <path d="M470.3 138.15 L470.3 127.8 474.65 127.8 474.65 138.15 470.3 138.15" fill="#707070" fill-rule="evenodd" stroke="none"/>
    <path d="M325.65 128.25 L330.0 128.25 330.0 138.6 325.65 138.6 325.65 128.25" fill="#707070" fill-rule="evenodd" stroke="none"/>
  </g>
</svg>
