<?xml version="1.0" encoding="UTF-8" standalone="no"?>
<svg xmlns:ffdec="https://www.free-decompiler.com/flash" xmlns:xlink="http://www.w3.org/1999/xlink" ffdec:objectType="shape" height="1060.0px" width="1666.65px" xmlns="http://www.w3.org/2000/svg">
  <g transform="matrix(1.0, 0.0, 0.0, 1.0, 834.15, 531.0)">
    <path d="M603.2 -443.05 L650.55 -406.5 693.5 -364.45 731.5 -317.5 764.1 -266.2 790.75 -211.25 811.15 -153.45 825.05 -93.6 832.2 -32.4 832.5 29.2 826.05 90.5 812.8 150.55 793.05 208.55 766.95 263.8 734.95 315.5 697.45 362.9 654.95 405.5 608.05 442.55 557.3 473.7 503.5 498.4 447.3 516.45 399.95 525.5 370.65 528.5 330.9 529.0 -333.5 529.0 -370.65 528.55 -402.15 525.4 -448.95 516.45 -505.15 498.4 -558.95 473.7 -609.65 442.55 -656.6 405.5 -699.1 362.9 -736.6 315.5 -768.6 263.8 -794.65 208.55 -814.45 150.55 -827.65 90.5 -834.15 29.2 -833.8 -32.4 -826.65 -93.6 -812.8 -153.45 -792.35 -211.25 -765.7 -266.2 -733.15 -317.5 -695.1 -364.45 -652.15 -406.5 -604.85 -443.05 -553.8 -473.55 -499.7 -497.6 -443.3 -514.95 -390.4 -524.4 -333.8 -531.0 332.15 -531.0 388.8 -524.4 441.7 -514.95 498.05 -497.6 552.15 -473.55 603.2 -443.05" fill="#707070" fill-rule="evenodd" stroke="none"/>
    <path d="M524.55 -428.95 L573.05 -401.35 618.0 -368.25 658.8 -330.2 694.95 -287.6 725.9 -241.15 751.2 -191.45 770.6 -139.1 783.8 -84.85 790.6 -29.45 790.9 26.35 784.75 81.85 772.2 136.25 753.4 188.8 728.65 238.8 698.2 285.65 662.6 328.6 622.2 367.15 577.6 400.7 529.45 428.9 478.3 451.3 424.95 467.6 371.0 477.45 361.65 478.45 314.3 479.0 -316.9 479.0 -360.95 478.5 -374.0 477.2 -426.55 467.6 -479.95 451.3 -531.05 428.9 -579.25 400.7 -623.85 367.15 -664.2 328.6 -699.85 285.65 -730.25 238.8 -755.0 188.8 -773.8 136.25 -786.35 81.85 -792.55 26.35 -792.2 -29.45 -785.4 -84.85 -772.25 -139.1 -752.85 -191.45 -727.5 -241.15 -696.55 -287.6 -660.45 -330.2 -619.65 -368.25 -574.65 -401.35 -526.15 -428.95 -474.8 -450.75 -421.25 -466.5 -375.05 -474.35 -366.25 -476.75 -317.15 -494.65 -217.35 -514.7 216.0 -514.7 315.55 -494.65 363.55 -477.15 373.85 -474.25 419.6 -466.5 473.15 -450.75 524.55 -428.95" fill="#434343" fill-rule="evenodd" stroke="none"/>
    <path d="M392.8 -313.4 L394.35 -319.45 410.25 -314.8 446.15 -299.55 474.6 -283.35 471.2 -278.5 494.05 -262.55 497.45 -267.45 511.5 -257.1 516.9 -252.05 510.15 -245.55 511.8 -243.85 519.7 -251.35 519.7 -251.4 539.5 -271.2 571.25 -239.45 543.9 -212.3 545.55 -210.65 551.8 -216.6 560.6 -206.25 556.1 -202.95 572.75 -180.6 576.7 -183.55 586.85 -168.3 604.6 -133.55 615.3 -104.65 610.65 -103.6 616.8 -76.45 622.8 -77.8 627.35 -59.05 632.1 -20.35 632.3 15.7 628.0 54.45 625.0 67.45 618.95 66.05 612.75 93.2 618.5 94.5 606.1 129.2 588.8 164.2 582.0 174.6 578.35 171.9 561.75 194.2 566.7 197.9 551.35 216.4 545.8 211.1 544.15 212.75 553.6 221.95 553.6 221.85 571.25 239.5 539.5 271.25 518.35 250.1 518.25 250.2 512.05 244.3 510.4 246.0 516.5 251.9 514.4 253.85 505.8 260.35 503.0 256.35 480.15 272.25 483.5 277.1 483.25 277.35 449.6 297.05 413.85 312.7 403.65 315.8 402.25 310.35 375.25 317.3 376.95 323.95 375.85 324.3 336.5 329.95 299.25 330.35 206.3 330.35 165.7 346.65 163.0 346.65 163.0 348.15 165.1 348.15 165.1 381.3 135.1 381.3 135.1 348.15 137.2 348.15 137.2 346.65 129.65 346.65 129.65 348.15 131.75 348.15 131.75 381.3 101.75 381.3 101.75 348.15 103.85 348.15 103.85 346.65 96.3 346.65 96.3 348.15 98.4 348.15 98.4 381.3 68.4 381.3 68.4 348.15 70.55 348.15 70.55 346.65 63.0 346.65 63.0 348.15 65.1 348.15 65.1 381.3 35.1 381.3 35.1 348.15 37.2 348.15 37.2 346.65 29.65 346.65 29.65 348.15 31.75 348.15 31.75 381.3 1.75 381.3 1.75 348.15 3.85 348.15 3.85 346.65 -3.7 346.65 -3.7 348.15 -1.6 348.15 -1.6 381.3 -31.6 381.3 -31.6 348.15 -29.45 348.15 -29.45 346.65 -37.0 346.65 -37.0 348.15 -34.9 348.15 -34.9 381.3 -64.9 381.3 -64.9 348.15 -62.8 348.15 -62.8 346.65 -70.35 346.65 -70.35 348.15 -68.25 348.15 -68.25 381.3 -98.25 381.3 -98.25 348.15 -96.15 348.15 -96.15 346.65 -103.7 346.65 -103.7 348.15 -101.6 348.15 -101.6 381.3 -131.6 381.3 -131.6 348.15 -129.45 348.15 -129.45 346.65 -137.0 346.65 -137.0 348.15 -134.9 348.15 -134.9 381.3 -164.9 381.3 -164.9 348.15 -162.8 348.15 -162.8 346.65 -166.7 346.65 -205.0 330.35 -301.05 330.35 -338.15 329.95 -367.0 325.8 -365.4 319.65 -392.4 312.7 -394.1 319.2 -415.45 312.7 -451.2 297.05 -474.7 283.25 -470.55 277.25 -493.35 261.35 -497.75 267.6 -516.05 253.85 -517.05 252.9 -509.85 245.85 -511.5 244.2 -518.85 251.2 -519.15 250.85 -539.55 271.25 -571.3 239.5 -553.1 221.25 -553.05 221.85 -543.6 212.65 -545.25 211.0 -552.1 217.5 -561.75 205.8 -555.9 201.45 -572.55 179.1 -578.05 183.2 -590.4 164.2 -607.7 129.2 -616.8 103.75 -610.05 102.2 -616.2 75.05 -624.45 76.95 -629.65 54.45 -633.95 15.7 -633.7 -20.35 -628.95 -59.05 -626.9 -67.55 -619.65 -65.9 -613.5 -93.05 -620.35 -94.6 -619.75 -96.95 -606.2 -133.55 -588.5 -168.3 -583.85 -175.25 -578.1 -170.95 -561.45 -193.25 -568.4 -198.45 -566.9 -200.75 -552.75 -217.4 -545.5 -210.55 -543.85 -212.2 -571.3 -239.45 -539.55 -271.2 -519.65 -251.3 -519.65 -251.25 -511.75 -243.75 -510.1 -245.4 -517.7 -252.8 -513.1 -257.1 -506.5 -261.95 -502.35 -256.05 -479.55 -272.0 -484.05 -278.5 -481.65 -280.25 -447.8 -299.55 -411.85 -314.8 -404.7 -316.9 -402.95 -310.2 -376.0 -317.1 -377.95 -324.75 -374.45 -325.75 -335.3 -332.45 -293.95 -333.0 -205.0 -333.0 -166.7 -346.7 -162.8 -346.7 -162.8 -348.35 -164.9 -348.35 -164.9 -381.5 -134.9 -381.5 -134.9 -348.35 -137.0 -348.35 -137.0 -346.7 -129.45 -346.7 -129.45 -348.35 -131.6 -348.35 -131.6 -381.5 -101.6 -381.5 -101.6 -348.35 -103.7 -348.35 -103.7 -346.7 -96.15 -346.7 -96.15 -348.35 -98.25 -348.35 -98.25 -381.5 -68.25 -381.5 -68.25 -348.35 -70.35 -348.35 -70.35 -346.7 -62.8 -346.7 -62.8 -348.35 -64.9 -348.35 -64.9 -381.5 -34.9 -381.5 -34.9 -348.35 -37.0 -348.35 -37.0 -346.7 -29.45 -346.7 -29.45 -348.35 -31.6 -348.35 -31.6 -381.5 -1.6 -381.5 -1.6 -348.35 -3.7 -348.35 -3.7 -346.7 3.85 -346.7 3.85 -348.35 1.75 -348.35 1.75 -381.5 31.75 -381.5 31.75 -348.35 29.65 -348.35 29.65 -346.7 37.2 -346.7 37.2 -348.35 35.1 -348.35 35.1 -381.5 65.1 -381.5 65.1 -348.35 63.0 -348.35 63.0 -346.7 70.55 -346.7 70.55 -348.35 68.4 -348.35 68.4 -381.5 98.4 -381.5 98.4 -348.35 96.3 -348.35 96.3 -346.7 103.85 -346.7 103.85 -348.35 101.75 -348.35 101.75 -381.5 131.75 -381.5 131.75 -348.35 129.65 -348.35 129.65 -346.7 137.2 -346.7 137.2 -348.35 135.1 -348.35 135.1 -381.5 165.1 -381.5 165.1 -348.35 163.0 -348.35 163.0 -346.7 165.7 -346.7 206.3 -333.0 292.85 -333.0 333.65 -332.45 367.45 -326.7 365.8 -320.35 392.8 -313.4" fill="#707070" fill-rule="evenodd" stroke="none"/>
    <path d="M387.65 -287.0 L417.3 -276.0 468.0 -250.0 505.0 -218.35 535.65 -185.7 556.0 -156.7 570.65 -128.7 587.0 -89.0 599.3 -28.0 600.1 9.85 598.55 31.2 593.4 63.65 581.65 104.8 562.8 147.0 539.0 183.4 510.3 217.0 470.75 249.0 436.55 270.1 389.0 288.3 345.0 299.0 305.5 301.0 -291.0 301.0 -330.5 299.5 -389.45 289.4 -425.45 274.0 -458.35 256.3 -492.35 231.65 -515.7 210.3 -535.0 187.0 -554.35 159.65 -571.0 128.3 -583.0 99.0 -593.0 65.65 -600.35 21.0 -599.7 -23.0 -595.0 -53.0 -586.35 -86.35 -575.7 -117.7 -565.0 -139.7 -541.7 -175.7 -519.7 -203.7 -495.7 -227.0 -469.0 -247.0 -446.35 -261.0 -411.0 -279.0 -380.35 -287.7 -337.0 -297.0 -307.0 -302.0 295.0 -302.35 335.0 -298.35 387.65 -287.0" fill="#969696" fill-rule="evenodd" stroke="none"/>
    <path d="M304.6 -304.5 L331.65 -301.7 368.0 -294.85 401.9 -284.9 434.4 -271.1 465.1 -253.65 493.55 -232.7 519.4 -208.6 542.25 -181.7 561.85 -152.3 577.85 -120.8 590.15 -87.7 598.45 -53.35 602.75 -18.3 603.0 17.05 599.1 52.15 591.15 86.55 579.25 119.8 563.55 151.45 544.3 181.1 521.75 208.3 496.2 232.65 468.0 253.95 437.5 271.75 405.15 285.95 371.4 296.25 348.2 300.5 304.35 302.8 -330.0 302.7 -370.6 296.3 -404.45 285.95 -436.8 271.75 -467.3 253.95 -495.5 232.65 -521.05 208.3 -543.6 181.1 -562.85 151.45 -578.55 119.8 -590.4 86.55 -598.35 52.15 -602.25 17.05 -602.05 -18.3 -597.75 -53.35 -589.4 -87.7 -577.15 -120.8 -561.1 -152.3 -541.55 -181.7 -518.7 -208.6 -492.85 -232.7 -464.4 -253.65 -433.7 -271.1 -401.2 -284.9 -367.25 -294.85 -330.3 -300.75 -305.85 -304.2 -289.9 -305.0 284.2 -305.0 304.6 -304.5 M331.0 -296.6 L304.2 -299.5 284.15 -300.0 -289.7 -300.0 -305.2 -299.2 -330.85 -296.0 -366.15 -290.0 -399.5 -280.2 -431.5 -266.65 -461.65 -249.45 -489.65 -228.85 -515.05 -205.15 -537.55 -178.65 -556.8 -149.75 -572.55 -118.8 -584.65 -86.2 -592.85 -52.45 -597.05 -17.95 -597.25 16.75 -593.45 51.3 -585.6 85.15 -573.9 117.85 -558.5 149.0 -539.6 178.15 -517.4 204.85 -492.25 228.85 -464.5 249.75 -434.55 267.3 Q-418.6 274.3 -402.7 281.25 L-369.5 291.4 -329.6 297.7 304.2 297.8 347.6 295.5 370.2 291.4 403.4 281.25 Q419.35 274.3 435.25 267.3 L465.25 249.75 493.0 228.85 518.1 204.85 540.3 178.15 559.2 149.0 574.65 117.85 586.3 85.15 594.15 51.3 598.0 16.75 597.8 -17.95 593.55 -52.45 585.35 -86.2 573.25 -118.8 557.5 -149.75 538.25 -178.65 515.75 -205.15 490.35 -228.85 462.4 -249.45 432.2 -266.65 400.2 -280.2 366.9 -290.0 331.0 -296.6" fill="#828282" fill-rule="evenodd" stroke="none"/>
    <path d="M335.0 -210.7 L342.05 -211.3 349.05 -210.5 355.75 -208.3 361.9 -204.8 367.2 -200.15 371.45 -194.5 374.5 -188.1 376.15 -181.25 376.45 -174.2 375.25 -167.25 372.75 -160.65 368.95 -154.7 364.0 -149.65 358.15 -145.7 351.65 -143.0 344.7 -141.65 337.65 -141.75 330.75 -143.25 324.3 -146.1 318.55 -150.25 313.75 -155.4 310.1 -161.45 307.7 -168.1 306.75 -175.1 307.2 -182.15 309.05 -188.95 312.25 -195.25 316.6 -200.75 322.05 -205.3 328.25 -208.65 335.0 -210.7" fill="#7f7f7f" fill-rule="evenodd" stroke="none"/>
    <path d="M456.55 120.6 L459.6 127.0 461.25 133.85 461.55 140.9 460.4 147.85 457.85 154.45 454.05 160.4 449.1 165.45 443.25 169.4 436.75 172.1 429.8 173.45 422.75 173.35 415.85 171.85 409.4 169.0 403.65 164.9 398.85 159.7 395.2 153.65 392.85 147.0 391.85 140.05 392.3 133.0 394.15 126.15 397.35 119.85 401.75 114.35 407.15 109.8 413.35 106.45 420.1 104.45 427.15 103.8 434.15 104.6 440.9 106.8 447.0 110.3 452.3 115.0 456.55 120.6" fill="#7f7f7f" fill-rule="evenodd" stroke="none"/>
    <path d="M7.25 -33.55 L14.0 -31.35 20.1 -27.85 25.4 -23.2 29.65 -17.55 32.7 -11.15 34.35 -4.3 34.65 2.75 33.5 9.7 30.95 16.3 27.15 22.25 22.2 27.3 16.35 31.25 9.85 33.95 2.9 35.3 -4.15 35.2 -11.05 33.7 -17.5 30.85 -23.25 26.7 -28.05 21.55 -31.7 15.5 -34.1 8.85 -35.05 1.85 -34.6 -5.2 -32.75 -12.0 -29.55 -18.3 -25.15 -23.8 -19.75 -28.35 -13.55 -31.7 -6.8 -33.75 0.25 -34.35 7.25 -33.55" fill="#7f7f7f" fill-rule="evenodd" stroke="none"/>
    <path d="M-433.4 104.3 L-426.4 103.7 -419.35 104.5 -412.65 106.7 -406.5 110.2 -401.25 114.85 -397.0 120.5 -393.95 126.9 -392.25 133.75 -392.0 140.8 -393.15 147.75 -395.7 154.35 -399.5 160.3 -404.4 165.35 -410.25 169.3 -416.8 172.0 -423.7 173.35 -430.8 173.25 -437.7 171.75 -444.15 168.9 -449.9 164.75 -454.7 159.6 -458.35 153.55 -460.7 146.9 -461.7 139.9 -461.25 132.85 -459.4 126.05 -456.2 119.75 -451.8 114.25 -446.4 109.7 -440.15 106.35 -433.4 104.3" fill="#7f7f7f" fill-rule="evenodd" stroke="none"/>
    <path d="M-328.2 -208.25 L-322.05 -204.75 -316.75 -200.1 -312.5 -194.45 -309.5 -188.05 -307.8 -181.2 -307.55 -174.15 -308.7 -167.2 -311.2 -160.6 -315.05 -154.65 -319.95 -149.6 -325.8 -145.65 -332.35 -142.95 -339.25 -141.6 -346.3 -141.7 -353.2 -143.2 -359.65 -146.05 -365.4 -150.15 -370.2 -155.35 -373.85 -161.4 -376.25 -168.05 -377.2 -175.05 -376.75 -182.05 -374.9 -188.9 -371.75 -195.2 -367.35 -200.7 -361.95 -205.25 -355.7 -208.6 -348.95 -210.6 -341.9 -211.25 -334.9 -210.45 -328.2 -208.25" fill="#7f7f7f" fill-rule="evenodd" stroke="none"/>
    <path d="M500.45 -85.75 L508.5 -82.15 516.2 -77.7 523.4 -72.6 530.1 -66.8 536.2 -60.4 541.65 -53.4 546.4 -45.95 550.4 -38.05 553.6 -29.8 556.0 -21.3 557.6 -12.6 558.35 -3.75 558.2 5.1 557.25 13.85 555.4 22.55 552.75 30.95 549.3 39.1 545.1 46.9 540.15 54.25 534.5 61.05 528.25 67.3 521.4 72.9 514.05 77.85 506.25 82.05 498.1 85.45 489.65 88.1 481.0 89.85 472.2 90.8 458.65 90.55 449.85 89.4 441.25 87.35 432.9 84.5 424.8 80.85 417.15 76.45 409.95 71.35 403.25 65.55 397.15 59.1 391.7 52.15 386.95 44.65 382.95 36.8 379.75 28.55 377.3 20.05 375.75 11.3 375.0 2.5 375.1 -6.35 376.1 -15.15 377.9 -23.8 380.55 -32.25 384.0 -40.4 388.25 -48.15 393.2 -55.5 398.8 -62.3 405.1 -68.55 411.9 -74.2 419.25 -79.1 427.05 -83.3 435.25 -86.7 443.7 -89.35 452.35 -91.15 461.15 -92.1 474.7 -91.85 483.45 -90.65 492.1 -88.6 500.45 -85.75" fill="#7f7f7f" fill-rule="evenodd" stroke="none"/>
    <path d="M-471.85 -91.75 L-458.3 -91.5 -449.55 -90.3 -440.9 -88.3 -432.55 -85.45 -424.5 -81.8 -416.8 -77.4 -409.6 -72.25 -402.9 -66.45 -396.8 -60.05 -391.35 -53.05 -386.6 -45.6 -382.6 -37.7 -379.4 -29.45 -377.0 -20.95 -375.4 -12.25 -374.65 -3.45 -374.8 5.4 -375.75 14.2 -377.6 22.85 -380.25 31.3 -383.7 39.45 -387.9 47.25 -392.85 54.55 -398.5 61.4 -404.75 67.65 -411.6 73.25 -418.95 78.2 -426.75 82.35 -434.9 85.8 -443.35 88.4 -452.0 90.2 -460.8 91.15 -474.35 90.9 -483.15 89.7 -491.75 87.7 -500.1 84.85 -508.2 81.2 -515.85 76.8 -523.05 71.65 -529.75 65.85 -535.85 59.45 -541.3 52.45 -546.05 45.0 -550.05 37.1 -553.25 28.9 -555.7 20.35 -557.25 11.65 -558.0 2.85 -557.9 -6.0 -556.9 -14.8 -555.1 -23.45 -552.45 -31.9 -549.0 -40.05 -544.75 -47.85 -539.8 -55.15 -534.2 -62.0 -527.9 -68.25 -521.1 -73.85 -513.75 -78.75 -505.95 -82.95 -497.75 -86.4 -489.3 -89.0 -480.65 -90.8 -471.85 -91.75" fill="#7f7f7f" fill-rule="evenodd" stroke="none"/>
    <path d="M239.05 -10.95 L241.1 -9.2 242.7 -7.0 243.85 -4.6 244.5 -1.95 244.6 0.7 244.15 3.4 243.2 5.9 241.75 8.15 239.85 10.1 237.65 11.6 235.15 12.65 232.5 13.15 229.8 13.1 227.15 12.55 224.7 11.45 222.5 9.9 220.65 7.9 219.3 5.6 218.35 3.05 218.0 0.4 218.15 -2.3 218.9 -4.9 220.1 -7.3 221.75 -9.4 223.85 -11.15 226.2 -12.45 228.8 -13.2 231.5 -13.45 234.15 -13.15 236.7 -12.3 239.05 -10.95" fill="#707070" fill-rule="evenodd" stroke="none"/>
    <path d="M-230.9 -13.1 L-228.25 -12.8 -225.65 -11.95 -223.3 -10.6 -221.3 -8.85 -219.7 -6.7 -218.5 -4.25 -217.9 -1.65 -217.75 1.05 -218.2 3.7 -219.2 6.25 -220.65 8.5 -222.5 10.45 -224.75 11.95 -227.25 12.95 -229.9 13.5 -232.6 13.45 -235.2 12.85 -237.7 11.8 -239.85 10.2 -241.7 8.25 -243.1 5.95 -244.0 3.4 -244.4 0.7 -244.2 -1.95 -243.5 -4.55 -242.3 -6.95 -240.6 -9.1 -238.55 -10.8 -236.15 -12.1 -233.6 -12.85 -230.9 -13.1" fill="#707070" fill-rule="evenodd" stroke="none"/>
    <path d="M12.85 237.25 L11.4 239.5 9.5 241.45 7.25 242.95 4.8 244.0 2.15 244.5 -0.55 244.45 -3.2 243.9 -5.65 242.8 -7.85 241.25 -9.7 239.25 -11.1 236.95 -12.0 234.4 -12.35 231.75 -12.2 229.05 -11.5 226.45 -10.25 224.05 -8.6 221.95 -6.5 220.2 -4.15 218.95 -1.55 218.15 1.1 217.9 3.8 218.2 6.35 219.05 8.7 220.4 10.7 222.2 12.35 224.35 13.5 226.75 14.15 229.4 14.25 232.1 13.8 234.75 12.85 237.25" fill="#707070" fill-rule="evenodd" stroke="none"/>
    <path d="M300.4 141.8 L302.2 148.15 303.4 154.65 303.95 161.25 303.85 167.85 303.1 174.4 301.75 180.9 299.8 187.2 297.2 193.3 294.05 199.1 290.35 204.55 286.15 209.65 281.45 214.35 276.35 218.55 270.85 222.2 265.05 225.35 258.95 227.9 252.65 229.85 246.15 231.2 239.6 231.9 229.45 231.7 222.9 230.85 216.45 229.3 210.2 227.2 204.2 224.45 198.45 221.15 193.05 217.35 188.1 213.0 183.55 208.2 179.45 203.0 175.9 197.45 172.95 191.55 170.5 185.4 168.7 179.0 167.55 172.5 167.0 165.95 167.1 159.3 167.8 152.75 169.15 146.3 171.15 140.0 173.7 133.9 176.85 128.1 180.55 122.6 184.8 117.5 189.45 112.85 194.55 108.65 200.05 104.95 205.9 101.85 211.95 99.3 218.3 97.35 224.75 96.0 231.35 95.3 236.8 95.2 248.0 96.35 254.45 97.85 260.7 100.0 266.7 102.7 272.45 106.0 277.85 109.85 282.85 114.15 287.4 118.95 291.45 124.15 295.0 129.75 298.0 135.65 300.4 141.8" fill="#707070" fill-rule="evenodd" stroke="none"/>
    <path d="M-201.95 89.7 L-192.05 89.85 -185.7 90.75 -179.45 92.2 -173.35 94.3 -167.45 96.95 -161.9 100.15 -156.65 103.85 -151.8 108.1 -147.35 112.75 -143.4 117.8 -139.95 123.25 -137.05 129.0 -134.7 135.0 -132.95 141.15 -131.8 147.5 -131.25 153.9 -131.35 160.35 -132.05 166.75 -133.35 173.05 -135.3 179.2 -137.8 185.1 -140.85 190.75 -144.45 196.1 -148.55 201.05 -153.1 205.6 -158.1 209.7 -163.45 213.25 -169.1 216.3 -175.05 218.8 -181.2 220.7 -187.5 222.0 -193.9 222.7 -203.75 222.55 -210.15 221.65 -216.4 220.2 -222.5 218.1 -228.35 215.45 -233.95 212.25 -239.2 208.55 -244.05 204.3 -248.45 199.65 -252.45 194.6 -255.9 189.15 -258.8 183.4 -261.15 177.4 -262.9 171.25 -264.05 164.9 -264.6 158.5 -264.5 152.05 -263.8 145.65 -262.45 139.35 -260.55 133.2 -258.05 127.3 -254.95 121.65 -251.35 116.3 -247.25 111.35 -242.7 106.8 -237.75 102.7 -232.4 99.15 -226.7 96.1 -220.8 93.6 -214.65 91.7 -208.35 90.4 -201.95 89.7" fill="#707070" fill-rule="evenodd" stroke="none"/>
    <path d="M-67.35 -166.0 L-63.9 -160.5 -60.95 -154.7 -58.55 -148.65 -56.8 -142.35 -55.6 -135.95 -55.05 -129.45 -55.15 -122.95 -55.9 -116.5 -57.2 -110.1 -59.15 -103.9 -61.7 -97.9 -64.8 -92.15 -68.45 -86.75 -72.6 -81.75 -77.2 -77.15 -82.25 -73.0 -87.65 -69.35 -93.4 -66.3 -99.4 -63.75 -105.65 -61.85 -112.0 -60.5 -118.5 -59.8 -128.5 -60.0 -134.95 -60.85 -141.3 -62.35 -147.45 -64.45 -153.4 -67.15 -159.05 -70.4 -164.35 -74.15 -169.3 -78.45 -173.75 -83.15 -177.75 -88.3 -181.25 -93.8 -184.2 -99.6 -186.6 -105.7 -188.35 -111.95 -189.55 -118.35 -190.05 -124.85 -190.0 -131.35 -189.25 -137.85 -187.95 -144.2 -186.0 -150.45 -183.45 -156.45 -180.35 -162.15 -176.7 -167.55 -172.55 -172.6 -167.9 -177.2 -162.9 -181.3 -157.45 -184.95 -151.75 -188.05 -145.75 -190.55 -139.5 -192.5 -133.1 -193.8 -126.65 -194.5 -121.25 -194.55 -110.2 -193.45 -103.85 -191.95 -97.7 -189.85 -91.75 -187.15 -86.1 -183.9 -80.8 -180.15 -75.85 -175.9 -71.4 -171.15 -67.35 -166.0" fill="#707070" fill-rule="evenodd" stroke="none"/>
    <path d="M43.05 -212.2 L45.0 -218.45 47.55 -224.45 50.65 -230.15 54.3 -235.55 58.45 -240.6 63.05 -245.2 68.1 -249.3 73.5 -252.95 79.25 -256.05 85.25 -258.55 91.5 -260.5 97.85 -261.8 104.35 -262.5 109.75 -262.55 120.8 -261.45 127.15 -259.95 133.3 -257.85 139.25 -255.15 144.9 -251.9 150.2 -248.15 155.1 -243.9 159.6 -239.15 163.6 -234.0 167.1 -228.5 170.05 -222.7 172.45 -216.65 174.2 -210.35 175.4 -203.95 175.9 -197.45 175.85 -190.95 175.1 -184.5 173.75 -178.1 171.8 -171.9 169.3 -165.9 166.2 -160.15 162.55 -154.75 158.4 -149.75 153.75 -145.15 148.75 -141.0 143.3 -137.35 137.6 -134.3 131.55 -131.75 125.35 -129.85 118.95 -128.5 112.5 -127.8 102.5 -128.0 96.05 -128.85 89.7 -130.35 83.55 -132.45 77.6 -135.15 71.95 -138.4 66.65 -142.15 61.7 -146.45 57.25 -151.15 53.2 -156.3 49.7 -161.8 46.75 -167.6 44.4 -173.65 42.6 -179.95 41.45 -186.35 40.9 -192.85 41.0 -199.35 41.7 -205.85 43.05 -212.2" fill="#707070" fill-rule="evenodd" stroke="none"/>
    <path d="M327.05 151.45 L327.8 160.4 327.7 169.4 326.7 178.3 324.85 187.1 322.2 195.65 318.7 203.9 314.4 211.8 309.35 219.25 303.65 226.2 297.3 232.5 290.35 238.2 282.9 243.2 275.0 247.45 266.7 250.95 258.15 253.6 249.35 255.4 240.4 256.35 226.65 256.1 217.75 254.9 209.0 252.85 200.5 249.95 192.35 246.25 184.55 241.8 177.25 236.6 170.45 230.7 164.25 224.2 158.75 217.15 153.95 209.55 149.85 201.55 146.6 193.2 144.15 184.55 142.55 175.7 141.8 166.75 141.9 157.8 142.9 148.85 144.75 140.1 147.45 131.5 150.95 123.25 155.2 115.35 160.25 107.9 165.95 101.0 172.3 94.65 179.25 88.95 186.7 83.95 194.6 79.7 202.9 76.25 211.5 73.55 220.25 71.75 229.2 70.8 242.95 71.05 251.85 72.25 260.6 74.3 269.1 77.2 277.3 80.9 285.05 85.35 292.4 90.55 299.15 96.45 305.35 102.95 310.85 110.05 315.7 117.6 319.75 125.6 323.0 134.0 325.45 142.6 327.05 151.45" fill="#ffffff" fill-opacity="0.14901961" fill-rule="evenodd" stroke="none"/>
    <path d="M166.05 -267.1 L172.85 -261.2 179.0 -254.7 184.55 -247.65 189.35 -240.05 193.4 -232.05 196.7 -223.7 199.15 -215.05 200.75 -206.2 201.5 -197.25 201.35 -188.3 200.35 -179.35 198.55 -170.6 195.85 -162.0 192.35 -153.75 188.05 -145.85 183.05 -138.4 177.3 -131.5 170.95 -125.15 164.0 -119.45 156.55 -114.45 148.65 -110.2 140.4 -106.75 131.8 -104.05 123.0 -102.25 114.1 -101.3 100.3 -101.55 91.45 -102.75 82.7 -104.8 74.2 -107.7 66.0 -111.4 58.2 -115.85 50.9 -121.05 44.1 -126.95 37.95 -133.45 32.4 -140.55 27.6 -148.1 23.55 -156.1 20.25 -164.5 17.8 -173.1 16.2 -181.95 15.45 -190.9 15.6 -199.9 16.6 -208.8 18.4 -217.6 21.1 -226.15 24.6 -234.4 28.9 -242.3 33.9 -249.75 39.65 -256.7 46.0 -263.0 52.95 -268.7 60.4 -273.7 68.3 -277.95 76.55 -281.45 85.15 -284.1 93.95 -285.9 102.85 -286.85 116.65 -286.6 125.5 -285.4 134.25 -283.35 142.75 -280.45 150.95 -276.75 158.75 -272.3 166.05 -267.1" fill="#ffffff" fill-opacity="0.14901961" fill-rule="evenodd" stroke="none"/>
    <path d="M-145.85 -217.45 L-137.05 -219.25 -128.15 -220.2 -114.35 -219.95 -105.5 -218.75 -96.75 -216.7 -88.25 -213.8 -80.05 -210.1 -72.25 -205.65 -64.95 -200.45 -58.15 -194.55 -52.0 -188.05 -46.45 -180.95 -41.65 -173.4 -37.6 -165.4 -34.3 -157.0 -31.85 -148.4 -30.25 -139.55 -29.5 -130.6 -29.65 -121.6 -30.65 -112.7 -32.45 -103.9 -35.15 -95.35 -38.65 -87.1 -42.95 -79.2 -47.95 -71.75 -53.7 -64.8 -60.05 -58.5 -67.0 -52.8 -74.45 -47.8 -82.35 -43.55 -90.6 -40.05 -99.2 -37.4 -108.0 -35.6 -116.9 -34.65 -130.7 -34.9 -139.55 -36.1 -148.3 -38.15 -156.8 -41.05 -165.0 -44.75 -172.8 -49.2 -180.1 -54.4 -186.9 -60.3 -193.05 -66.8 -198.6 -73.85 -203.4 -81.45 -207.45 -89.45 -210.75 -97.8 -213.2 -106.45 -214.8 -115.3 -215.55 -124.25 -215.4 -133.2 -214.4 -142.15 -212.6 -150.9 -209.9 -159.5 -206.4 -167.75 -202.1 -175.65 -197.1 -183.1 -191.35 -190.0 -185.0 -196.35 -178.05 -202.05 -170.6 -207.05 -162.7 -211.3 -154.45 -214.75 -145.85 -217.45" fill="#ffffff" fill-opacity="0.14901961" fill-rule="evenodd" stroke="none"/>
    <path d="M-147.6 78.05 L-140.3 83.25 -133.5 89.1 -127.3 95.65 -121.8 102.7 -117.0 110.3 -112.9 118.3 -109.65 126.65 -107.2 135.3 -105.6 144.1 -104.85 153.05 -104.95 162.05 -105.95 170.95 -107.8 179.75 -110.5 188.3 -114.0 196.6 -118.25 204.5 -123.3 211.9 -129.0 218.85 -135.35 225.2 -142.3 230.9 -149.75 235.9 -157.7 240.15 -165.95 243.6 -174.55 246.25 -183.3 248.1 -192.25 249.05 -206.0 248.8 -214.9 247.6 -223.65 245.55 -232.15 242.65 -240.35 238.95 -248.1 234.45 -255.45 229.25 -262.2 223.4 -268.4 216.9 -273.9 209.8 -278.75 202.2 -282.8 194.2 -286.05 185.85 -288.5 177.2 -290.15 168.4 -290.85 159.45 -290.75 150.45 -289.75 141.55 -287.9 132.75 -285.25 124.2 -281.75 115.9 -277.45 108.0 -272.4 100.6 -266.7 93.65 -260.35 87.3 -253.4 81.6 -245.95 76.65 -238.05 72.35 -229.75 68.9 -221.2 66.25 -212.4 64.4 -203.45 63.45 -189.7 63.7 -180.8 64.9 -172.05 66.95 -163.55 69.85 -155.4 73.55 -147.6 78.05" fill="#ffffff" fill-opacity="0.14901961" fill-rule="evenodd" stroke="none"/>
    <path d="M199.7 -20.55 L204.4 -26.5 210.2 -31.35 216.85 -34.95 224.15 -37.15 231.65 -37.8 239.2 -36.95 246.4 -34.6 252.95 -30.85 258.65 -25.8 263.2 -19.75 266.45 -12.95 268.25 -5.6 268.55 2.0 267.3 9.45 264.6 16.55 260.5 22.9 255.25 28.35 248.95 32.6 241.95 35.5 234.5 36.9 226.95 36.8 219.55 35.2 212.6 32.15 206.45 27.7 201.3 22.15 197.4 15.7 194.85 8.55 193.8 1.05 194.25 -6.5 196.25 -13.8 199.7 -20.55" fill="#ffffff" fill-opacity="0.14901961" fill-rule="evenodd" stroke="none"/>
    <path d="M-245.45 -34.45 L-238.2 -36.65 -230.65 -37.3 -223.15 -36.45 -215.95 -34.1 -209.35 -30.35 -203.7 -25.3 -199.1 -19.25 -195.85 -12.45 -194.05 -5.1 -193.75 2.5 -195.0 9.95 -197.75 17.05 -201.8 23.4 -207.1 28.85 -213.4 33.1 -220.4 36.0 -227.8 37.4 -235.4 37.3 -242.8 35.7 -249.7 32.65 -255.85 28.2 -261.0 22.65 -264.95 16.2 -267.5 9.05 -268.55 1.55 -268.05 -6.0 -266.05 -13.3 -262.65 -20.05 -257.95 -26.0 -252.15 -30.85 -245.45 -34.45" fill="#ffffff" fill-opacity="0.14901961" fill-rule="evenodd" stroke="none"/>
    <path d="M7.85 194.05 L15.05 196.4 21.65 200.15 27.3 205.2 31.9 211.25 35.15 218.05 36.95 225.4 37.25 233.0 36.0 240.45 33.25 247.55 29.2 253.9 23.9 259.35 17.6 263.6 10.6 266.5 3.2 267.9 -4.4 267.8 -11.8 266.2 -18.7 263.15 Q-21.75 260.95 -24.85 258.7 L-30.0 253.15 -33.95 246.7 -36.5 239.55 -37.55 232.05 -37.05 224.5 -35.05 217.2 -31.65 210.45 -26.95 204.5 -21.15 199.65 -14.45 196.05 -7.2 193.85 0.35 193.2 7.85 194.05" fill="#ffffff" fill-opacity="0.14901961" fill-rule="evenodd" stroke="none"/>
  </g>
</svg>
