<?xml version="1.0" encoding="UTF-8" standalone="no"?>
<svg xmlns:ffdec="https://www.free-decompiler.com/flash" xmlns:xlink="http://www.w3.org/1999/xlink" ffdec:objectType="shape" height="700.25px" width="474.05px" xmlns="http://www.w3.org/2000/svg">
  <g transform="matrix(1.0, 0.0, 0.0, 1.0, 252.7, 242.25)">
    <path d="M-195.4 -242.25 L-44.45 -242.25 -44.45 -169.95 221.35 -169.95 221.35 338.55 24.0 338.55 24.0 458.0 -195.65 458.0 -195.65 223.05 -190.35 163.0 -195.65 114.15 -195.65 100.55 -252.7 100.55 -252.7 -83.45 -195.4 -83.45 -195.4 -242.25" fill="#434343" fill-rule="evenodd" stroke="none"/>
    <path d="M-225.35 -75.7 L-225.35 -78.0 -198.35 -78.0 -198.35 -75.7 -189.0 -75.7 -189.0 92.3 -246.2 92.3 -246.2 -75.7 -225.35 -75.7" fill="#707070" fill-rule="evenodd" stroke="none"/>
    <path d="M-185.5 -234.35 L-54.0 -234.35 -54.0 -51.0 -36.2 -51.0 -36.2 -56.35 -48.2 -56.35 -48.2 -142.35 -35.2 -142.35 -35.2 -155.85 66.8 -155.85 66.8 -164.35 115.8 -164.35 115.8 -55.35 66.8 -55.35 66.8 -56.35 -11.0 -56.35 -11.0 -51.0 154.0 -51.0 154.0 -54.95 142.85 -54.95 142.85 -148.4 189.6 -148.4 189.6 -121.85 192.85 -121.85 192.85 -148.4 214.15 -148.4 214.15 -124.0 209.85 -124.0 209.85 -121.85 214.15 -121.85 214.15 -54.95 177.8 -54.95 177.8 -50.35 214.15 -50.35 214.15 123.65 65.65 123.65 65.65 132.3 182.65 131.65 182.65 284.3 124.9 284.3 124.9 203.65 74.0 203.65 74.0 173.0 65.65 173.0 65.65 204.3 59.65 204.3 59.65 209.0 118.0 209.0 118.0 328.9 37.3 328.9 37.3 299.0 18.85 299.0 18.85 209.0 32.3 209.0 32.3 204.3 13.65 204.3 13.65 448.3 -186.2 448.3 -185.5 -234.35" fill="#969696" fill-rule="evenodd" stroke="none"/>
    <path d="M-185.7 -234.35 L-54.0 -234.35 -54.0 -84.35 -185.7 -84.35 -185.7 -234.35" fill="#707070" fill-rule="evenodd" stroke="none"/>
    <path d="M77.3 -119.7 L77.3 -88.35 -7.7 -88.35 -7.7 -119.7 77.3 -119.7" fill="#707070" fill-rule="evenodd" stroke="none"/>
    <path d="M-47.7 -142.0 L-36.0 -142.0 -36.0 -132.0 -37.0 -132.0 -37.0 -108.7 -47.7 -108.7 -47.7 -142.0" fill="#707070" fill-rule="evenodd" stroke="none"/>
    <path d="M182.5 -35.5 L182.5 -51.0 214.15 -51.0 214.15 119.5 193.0 119.5 193.0 -35.5 182.5 -35.5" fill="#707070" fill-rule="evenodd" stroke="none"/>
    <path d="M198.65 -73.35 L214.15 -73.35 214.15 -56.7 198.65 -56.7 198.65 -73.35" fill="#707070" fill-rule="evenodd" stroke="none"/>
    <path d="M209.65 -115.0 L214.15 -115.0 214.15 -103.7 209.65 -103.7 209.65 -115.0" fill="#707070" fill-rule="evenodd" stroke="none"/>
    <path d="M200.6 -135.3 L199.35 -137.2 198.75 -139.65 199.0 -142.2 199.6 -143.55 199.15 -143.55 199.15 -147.3 207.3 -147.3 207.3 -143.55 207.15 -143.55 207.75 -142.15 207.95 -139.6 207.35 -137.15 206.05 -135.25 204.3 -134.25 202.35 -134.25 200.6 -135.3" fill="#707070" fill-rule="evenodd" stroke="none"/>
    <path d="M144.0 -133.5 L144.0 -146.5 189.25 -146.5 189.25 -133.5 144.0 -133.5" fill="#707070" fill-rule="evenodd" stroke="none"/>
    <path d="M60.0 -34.0 L60.0 -49.0 114.3 -49.0 114.3 -34.0 60.0 -34.0" fill="#707070" fill-rule="evenodd" stroke="none"/>
    <path d="M5.65 -37.35 L5.65 -50.35 35.3 -50.35 35.3 -37.35 5.65 -37.35" fill="#707070" fill-rule="evenodd" stroke="none"/>
    <path d="M38.05 -44.25 L49.1 -51.4 57.7 -37.95 46.65 -30.85 38.05 -44.25" fill="#707070" fill-rule="evenodd" stroke="none"/>
    <path d="M124.9 174.0 L170.0 174.0 170.0 248.0 124.9 248.0 124.9 174.0" fill="#707070" fill-rule="evenodd" stroke="none"/>
    <path d="M75.15 184.95 L114.5 187.9 113.3 203.9 74.0 201.0 75.15 184.95" fill="#707070" fill-rule="evenodd" stroke="none"/>
    <path d="M18.85 214.0 L33.0 214.0 33.0 239.5 18.85 239.5 18.85 214.0" fill="#707070" fill-rule="evenodd" stroke="none"/>
    <path d="M18.85 242.0 L33.0 242.0 33.0 299.0 18.85 299.0 18.85 242.0" fill="#707070" fill-rule="evenodd" stroke="none"/>
    <path d="M-183.7 427.3 L-141.7 427.3 -141.7 446.65 -183.7 446.65 -183.7 427.3" fill="#707070" fill-rule="evenodd" stroke="none"/>
    <path d="M-137.0 446.3 L-137.0 427.0 -14.35 427.0 -14.35 446.3 -137.0 446.3" fill="#707070" fill-rule="evenodd" stroke="none"/>
    <path d="M40.5 328.9 L40.5 315.5 57.0 315.5 57.0 328.9 40.5 328.9" fill="#707070" fill-rule="evenodd" stroke="none"/>
    <path d="M66.5 328.9 L66.5 320.0 76.0 320.0 76.0 328.9 66.5 328.9" fill="#707070" fill-rule="evenodd" stroke="none"/>
    <path d="M88.5 273.0 L114.0 273.0 114.0 324.5 88.5 324.5 88.5 273.0" fill="#707070" fill-rule="evenodd" stroke="none"/>
    <path d="M101.0 270.5 L101.0 237.5 118.0 237.5 118.0 270.5 101.0 270.5" fill="#707070" fill-rule="evenodd" stroke="none"/>
    <path d="M92.0 209.0 L92.0 227.25 77.5 227.25 77.5 209.0 92.0 209.0" fill="#707070" fill-rule="evenodd" stroke="none"/>
    <path d="M104.25 219.75 L93.75 219.75 93.75 209.0 104.25 209.0 104.25 219.75" fill="#707070" fill-rule="evenodd" stroke="none"/>
    <path d="M105.25 221.0 L105.25 209.0 118.0 209.0 118.0 221.0 105.25 221.0" fill="#707070" fill-rule="evenodd" stroke="none"/>
    <path d="M3.7 441.0 L3.8 443.45 2.85 445.75 1.1 447.45 -1.25 448.3 -3.7 448.15 -5.9 446.95 -7.4 445.0 -8.0 442.6 -7.55 440.2 -6.2 438.15 -4.1 436.85 -1.65 436.5 0.7 437.15 2.6 438.75 3.7 441.0" fill="#707070" fill-rule="evenodd" stroke="none"/>
    <path d="M8.05 440.45 L9.7 440.9 11.0 442.0 11.7 443.5 11.75 445.15 11.15 446.75 9.95 447.9 8.35 448.5 6.7 448.35 5.2 447.55 4.15 446.25 3.75 444.6 4.05 442.95 5.0 441.55 6.4 440.7 8.05 440.45" fill="#707070" fill-rule="evenodd" stroke="none"/>
    <path d="M-185.7 60.5 L-176.75 60.5 -176.75 78.35 -169.75 78.35 -169.75 113.0 -185.7 113.0 -185.7 60.5" fill="#707070" fill-rule="evenodd" stroke="none"/>
    <path d="M-181.35 -15.5 L-168.0 -15.5 -168.0 15.3 -181.35 15.3 -181.35 -15.5" fill="#707070" fill-rule="evenodd" stroke="none"/>
    <path d="M-195.65 114.15 L-185.7 114.15 -185.65 223.05 -195.65 223.05 -195.65 114.15" fill="#ffffff" fill-rule="evenodd" stroke="none"/>
    <path d="M-190.0 24.3 L-184.5 24.3 -184.5 52.65 -190.0 52.65 -190.0 24.3" fill="#ffffff" fill-rule="evenodd" stroke="none"/>
    <path d="M116.65 170.3 L116.65 135.0 184.3 135.0 184.3 284.0 125.0 284.0 125.0 245.0 150.3 245.0 150.3 170.3 116.65 170.3" fill="#ffffff" fill-rule="evenodd" stroke="none"/>
  </g>
</svg>
