<?xml version="1.0" encoding="UTF-8" standalone="no"?>
<svg xmlns:ffdec="https://www.free-decompiler.com/flash" xmlns:xlink="http://www.w3.org/1999/xlink" ffdec:objectType="shape" height="1480.0px" width="1280.0px" xmlns="http://www.w3.org/2000/svg">
  <g transform="matrix(1.0, 0.0, 0.0, 1.0, 0.0, 0.0)">
    <path d="M0.0 0.0 L1280.0 0.0 1280.0 1480.0 0.0 1480.0 0.0 0.0" fill="#d1d1d1" fill-rule="evenodd" stroke="none"/>
    <path d="M1080.0 1480.0 L200.0 1480.0 200.0 0.0 1080.0 0.0 1080.0 1480.0" fill="#dfc06b" fill-opacity="0.49803922" fill-rule="evenodd" stroke="none"/>
    <path d="M1280.0 256.0 L0.0 256.0 0.0 0.0 1280.0 0.0 1280.0 256.0" fill="#0054a6" fill-rule="evenodd" stroke="none"/>
    <path d="M1280.0 249.75 L0.0 249.75 0.0 0.0 1280.0 0.0 1280.0 249.75" fill="#0088d0" fill-rule="evenodd" stroke="none"/>
    <path d="M1001.0 132.25 L1001.0 198.25 Q1000.85 206.2 995.15 211.9 989.6 217.45 981.5 217.75 L600.5 217.75 Q592.55 217.6 586.85 211.9 581.3 206.35 581.0 198.25 L581.0 132.25 Q581.2 124.25 586.85 118.6 592.5 112.95 600.5 112.75 L981.5 112.75 Q989.5 113.05 995.15 118.6 1000.85 124.3 1001.0 132.25" fill="#ffffff" fill-rule="evenodd" stroke="none"/>
  </g>
</svg>
