<?xml version="1.0" encoding="UTF-8" standalone="no"?>
<svg xmlns:ffdec="https://www.free-decompiler.com/flash" xmlns:xlink="http://www.w3.org/1999/xlink" ffdec:objectType="shape" height="36.0px" width="170.0px" xmlns="http://www.w3.org/2000/svg">
  <g transform="matrix(1.0, 0.0, 0.0, 1.0, -232.45, -34.0)">
    <path d="M399.9 36.6 Q399.3 36.0 398.5 36.0 L236.4 36.0 Q235.65 36.0 235.05 36.6 234.45 37.2 234.45 37.95 L234.45 66.05 Q234.45 66.85 235.05 67.45 235.65 68.0 236.4 68.0 L398.5 68.0 Q399.3 68.0 399.9 67.45 400.45 66.85 400.45 66.05 L400.45 37.95 Q400.45 37.2 399.9 36.6 M401.25 35.15 Q402.4 36.3 402.45 37.9 L402.45 66.1 Q402.4 67.65 401.25 68.8 400.1 69.95 398.55 70.0 L236.35 70.0 Q234.75 69.95 233.6 68.8 232.5 67.65 232.45 66.1 L232.45 37.9 Q232.5 36.3 233.6 35.15 234.75 34.05 236.35 34.0 L398.55 34.0 Q400.1 34.05 401.25 35.15" fill="#0088d0" fill-rule="evenodd" stroke="none"/>
    <path d="M399.9 36.6 Q400.45 37.2 400.45 37.95 L400.45 66.05 Q400.45 66.85 399.9 67.45 399.3 68.0 398.5 68.0 L236.4 68.0 Q235.65 68.0 235.05 67.45 234.45 66.85 234.45 66.05 L234.45 37.95 Q234.45 37.2 235.05 36.6 235.65 36.0 236.4 36.0 L398.5 36.0 Q399.3 36.0 399.9 36.6" fill="#ffffff" fill-rule="evenodd" stroke="none"/>
  </g>
</svg>
