<?xml version="1.0" encoding="UTF-8" standalone="no"?>
<svg xmlns:ffdec="https://www.free-decompiler.com/flash" xmlns:xlink="http://www.w3.org/1999/xlink" ffdec:objectType="shape" height="720.55px" width="841.8px" xmlns="http://www.w3.org/2000/svg">
  <g transform="matrix(1.0, 0.0, 0.0, 1.0, -219.1, -371.4)">
    <path d="M1060.9 564.95 L1060.9 1072.45 Q1060.75 1080.4 1055.05 1086.1 1049.5 1091.65 1041.4 1091.95 L238.6 1091.95 Q230.65 1091.8 224.95 1086.1 219.4 1080.55 219.1 1072.45 L219.1 564.95 Q219.25 557.0 224.95 551.3 230.75 545.6 238.6 545.45 L1041.4 545.45 Q1049.4 545.75 1055.05 551.3 1060.75 557.0 1060.9 564.95" fill="#ffffff" fill-rule="evenodd" stroke="none"/>
    <path d="M1060.0 390.9 L1060.0 422.9 Q1059.85 430.85 1054.15 436.55 1048.6 442.1 1040.5 442.4 L239.5 442.4 Q231.55 442.25 225.85 436.55 220.3 431.0 220.0 422.9 L220.0 390.9 Q220.15 382.95 225.85 377.25 231.65 371.55 239.5 371.4 L1040.5 371.4 Q1048.5 371.7 1054.15 377.25 1059.85 382.95 1060.0 390.9" fill="#ffffff" fill-rule="evenodd" stroke="none"/>
    <path d="M1060.0 478.25 L1060.0 510.25 Q1059.85 518.2 1054.15 523.9 1048.6 529.45 1040.5 529.75 L239.5 529.75 Q231.55 529.6 225.85 523.9 220.3 518.35 220.0 510.25 L220.0 478.25 Q220.15 470.3 225.85 464.6 231.65 458.9 239.5 458.75 L1040.5 458.75 Q1048.5 459.05 1054.15 464.6 1059.85 470.3 1060.0 478.25" fill="#ffffff" fill-rule="evenodd" stroke="none"/>
  </g>
</svg>
