<?xml version="1.0" encoding="UTF-8" standalone="no"?>
<svg xmlns:ffdec="https://www.free-decompiler.com/flash" xmlns:xlink="http://www.w3.org/1999/xlink" ffdec:objectType="shape" height="1600.0px" width="1280.0px" xmlns="http://www.w3.org/2000/svg">
  <g transform="matrix(1.0, 0.0, 0.0, 1.0, 0.0, 0.0)">
    <path d="M1280.0 0.0 L1280.0 1600.0 0.0 1600.0 0.0 0.0 1280.0 0.0" fill="#d1d1d1" fill-rule="evenodd" stroke="none"/>
    <path d="M1080.0 0.0 L1080.0 1600.0 200.0 1600.0 200.0 0.0 1080.0 0.0" fill="#dfc06b" fill-opacity="0.49803922" fill-rule="evenodd" stroke="none"/>
    <path d="M630.0 295.55 L630.0 964.55 Q629.85 972.5 624.15 978.2 618.6 983.75 610.5 984.05 L239.5 984.05 Q231.55 983.9 225.85 978.2 220.3 972.65 220.0 964.55 L220.0 295.55 Q220.2 287.55 225.85 281.9 231.5 276.25 239.5 276.05 L610.55 276.05 Q618.5 276.25 624.15 281.9 629.8 287.55 630.0 295.55" fill="#ffffff" fill-rule="evenodd" stroke="none"/>
  </g>
</svg>
