<?xml version="1.0" encoding="UTF-8" standalone="no"?>
<svg xmlns:ffdec="https://www.free-decompiler.com/flash" xmlns:xlink="http://www.w3.org/1999/xlink" ffdec:objectType="shape" height="336.0px" width="266.0px" xmlns="http://www.w3.org/2000/svg">
  <g transform="matrix(1.0, 0.0, 0.0, 1.0, -794.0, -1130.0)">
    <path d="M1060.0 1180.0 L1060.0 1184.0 794.0 1184.0 794.0 1180.0 1060.0 1180.0" fill="#0054a6" fill-rule="evenodd" stroke="none"/>
    <path d="M794.0 1180.0 L794.0 1143.65 Q794.15 1138.05 798.1 1134.1 802.05 1130.15 807.65 1130.0 L1046.35 1130.0 Q1051.95 1130.15 1055.9 1134.1 1059.85 1138.05 1060.0 1143.65 L1060.0 1180.0 794.0 1180.0" fill="#0088d0" fill-rule="evenodd" stroke="none"/>
    <path d="M1060.0 1184.0 L1060.0 1452.35 Q1059.85 1457.95 1055.9 1461.9 1051.95 1465.85 1046.35 1466.0 L807.65 1466.0 Q802.2 1466.0 798.1 1461.9 794.15 1457.95 794.0 1452.35 L794.0 1184.0 1060.0 1184.0" fill="#ffffff" fill-rule="evenodd" stroke="none"/>
  </g>
</svg>
