<?xml version="1.0" encoding="UTF-8" standalone="no"?>
<svg xmlns:ffdec="https://www.free-decompiler.com/flash" xmlns:xlink="http://www.w3.org/1999/xlink" ffdec:objectType="shape" height="590.0px" width="3537.35px" xmlns="http://www.w3.org/2000/svg">
  <g transform="matrix(1.0, 0.0, 0.0, 1.0, 710.2, 279.25)">
    <path d="M2255.4 -236.65 L2393.45 -268.65 2574.45 -206.65 2702.45 -148.65 2740.45 -126.65 2774.45 -97.65 2803.15 -75.05 2821.85 -36.45 2827.15 -3.65 2827.15 5.15 2821.85 37.95 2803.15 76.55 2774.45 99.15 2740.45 128.15 2702.45 150.15 2574.45 208.15 2393.45 270.15 2255.4 238.15 2189.4 250.15 2189.5 239.15 2103.4 255.45 2010.8 266.75 1865.4 274.75 1700.8 280.75 14.85 279.05 -189.15 274.55 -307.65 270.05 -710.2 214.55 -710.2 -213.05 -307.65 -268.55 -189.15 -273.05 14.85 -277.55 1700.8 -279.25 1865.4 -273.25 2010.8 -265.25 2103.4 -253.95 2189.5 -237.65 2189.4 -248.65 2255.4 -236.65" fill="#434343" fill-rule="evenodd" stroke="none"/>
    <path d="M1865.2 -268.25 L2010.3 -260.35 2102.7 -249.05 2194.5 -231.65 2386.45 -176.15 2386.45 178.25 2264.9 217.75 2194.5 233.15 2102.7 250.55 2010.3 261.85 1865.2 269.75 1700.7 275.75 14.85 274.05 -188.95 269.55 -307.25 265.05 -705.2 210.15 -705.2 -208.65 -307.25 -263.55 -189.05 -268.05 14.85 -272.55 1374.05 -274.65 1700.7 -274.25 1865.2 -268.25" fill="#969696" fill-rule="evenodd" stroke="none"/>
    <path d="M2737.55 -99.55 L2771.25 -73.85 2788.75 -52.85 2799.75 -34.95 2807.15 -3.25 2807.15 4.75 2799.75 31.75 2788.75 54.35 2771.35 73.15 2737.55 101.05 2700.15 125.65 2572.65 181.45 2393.25 249.95 2393.25 -245.45 2572.65 -179.95 2700.15 -123.15 2737.55 -99.55" fill="#969696" fill-rule="evenodd" stroke="none"/>
    <path d="M138.8 265.25 L163.8 265.25 163.8 310.75 39.75 310.75 39.75 287.25 138.8 287.25 138.8 265.25" fill="#969696" fill-rule="evenodd" stroke="none"/>
    <path d="M1709.9 265.25 L1734.9 265.25 1734.9 310.75 1610.9 310.75 1610.9 287.25 1709.9 287.25 1709.9 265.25" fill="#969696" fill-rule="evenodd" stroke="none"/>
    <path d="M2655.45 -16.65 L2655.45 16.75 2597.95 16.75 2597.95 -16.65 2655.45 -16.65" fill="#707070" fill-rule="evenodd" stroke="none"/>
    <path d="M2570.85 137.25 L2535.65 137.25 2535.65 79.25 2570.85 79.25 2570.85 137.25" fill="#707070" fill-rule="evenodd" stroke="none"/>
    <path d="M2525.15 47.65 L2502.35 47.65 2502.35 7.65 2525.15 7.65 2525.15 47.65" fill="#707070" fill-rule="evenodd" stroke="none"/>
    <path d="M2525.15 -47.95 L2525.15 -7.95 2502.35 -7.95 2502.35 -47.95 2525.15 -47.95" fill="#707070" fill-rule="evenodd" stroke="none"/>
    <path d="M2434.45 -47.25 L2408.65 -47.25 2408.65 -81.25 2434.45 -81.25 2434.45 -47.25" fill="#707070" fill-rule="evenodd" stroke="none"/>
    <path d="M2405.45 -64.65 L2395.65 -64.65 2395.65 -102.65 2405.45 -102.65 2405.45 -64.65" fill="#707070" fill-rule="evenodd" stroke="none"/>
    <path d="M2433.85 -231.95 L2433.85 -196.65 2405.65 -196.65 2405.65 -231.95 2433.85 -231.95" fill="#707070" fill-rule="evenodd" stroke="none"/>
    <path d="M2405.45 -18.65 L2395.65 -18.65 2395.65 -56.65 2405.45 -56.65 2405.45 -18.65" fill="#707070" fill-rule="evenodd" stroke="none"/>
    <path d="M2517.85 -17.25 L2517.85 22.65 2507.95 22.65 2507.95 -17.25 2517.85 -17.25" fill="#707070" fill-rule="evenodd" stroke="none"/>
    <path d="M2570.85 -79.25 L2535.65 -79.25 2535.65 -137.25 2570.85 -137.25 2570.85 -79.25" fill="#707070" fill-rule="evenodd" stroke="none"/>
    <path d="M2640.15 124.45 L2591.65 124.45 2591.65 102.65 2640.15 102.65 2640.15 124.45" fill="#707070" fill-rule="evenodd" stroke="none"/>
    <path d="M2640.15 -124.95 L2640.15 -103.15 2591.65 -103.15 2591.65 -124.95 2640.15 -124.95" fill="#707070" fill-rule="evenodd" stroke="none"/>
    <path d="M2725.95 -5.65 L2727.85 -7.25 2729.95 -8.45 2732.35 -8.95 2734.75 -8.95 2737.15 -8.35 2739.25 -7.25 2741.05 -5.55 2742.45 -3.55 2743.25 -1.35 2743.55 1.05 2743.25 3.45 2742.35 5.65 2740.95 7.65 2739.15 9.25 2736.95 10.35 2734.65 10.95 2732.15 10.95 2729.85 10.35 2727.65 9.15 2725.85 7.55 2724.55 5.55 2723.65 3.25 2723.35 0.85 2723.75 -1.45 2724.55 -3.75 2725.95 -5.65" fill="#707070" fill-rule="evenodd" stroke="none"/>
    <path d="M2425.95 187.75 L2427.05 190.85 2427.45 194.05 2427.05 197.35 2425.85 200.35 2423.95 203.05 2421.45 205.25 2418.55 206.75 2415.35 207.45 2412.05 207.45 2408.95 206.65 2406.05 205.15 2403.55 202.95 2401.75 200.25 2400.55 197.15 2400.25 193.85 2400.65 190.65 2401.85 187.55 2403.75 184.85 2406.15 182.75 2409.05 181.25 2412.25 180.45 2415.55 180.45 2418.75 181.25 2421.65 182.85 2424.05 185.05 2425.95 187.75" fill="#707070" fill-rule="evenodd" stroke="none"/>
    <path d="M-432.55 -180.85 Q-433.95 -180.05 -435.45 -179.35 L-438.65 -178.65 -441.95 -178.65 -445.15 -179.45 -448.05 -181.05 -450.45 -183.25 -452.35 -185.95 -453.45 -188.95 -453.85 -192.25 -453.45 -195.55 -452.25 -198.55 -450.35 -201.25 -447.85 -203.45 Q-446.35 -204.15 -444.95 -204.95 L-441.75 -205.65 -438.45 -205.65 -435.35 -204.85 -432.45 -203.35 -429.95 -201.15 -428.15 -198.45 -426.95 -195.35 -426.65 -192.05 -427.05 -188.85 -428.25 -185.75 -430.05 -183.05 -432.55 -180.85" fill="#707070" fill-rule="evenodd" stroke="none"/>
    <path d="M2708.55 116.65 L2682.15 130.05 2674.35 114.75 2700.85 101.35 2708.55 116.65" fill="#707070" fill-rule="evenodd" stroke="none"/>
    <path d="M2618.45 159.15 L2591.15 170.65 2584.45 154.85 2611.85 143.35 2618.45 159.15" fill="#707070" fill-rule="evenodd" stroke="none"/>
    <path d="M2778.05 39.95 L2750.45 50.75 2744.25 34.75 2771.85 23.95 2778.05 39.95" fill="#707070" fill-rule="evenodd" stroke="none"/>
    <path d="M2674.35 -113.95 L2682.15 -129.25 2708.55 -115.85 2700.85 -100.55 2674.35 -113.95" fill="#707070" fill-rule="evenodd" stroke="none"/>
    <path d="M2618.45 -158.45 L2611.85 -142.65 2584.45 -154.05 2591.15 -169.95 2618.45 -158.45" fill="#707070" fill-rule="evenodd" stroke="none"/>
    <path d="M2073.0 -249.45 L2069.0 -226.65 2031.0 -233.35 2035.0 -256.15 2073.0 -249.45" fill="#707070" fill-rule="evenodd" stroke="none"/>
    <path d="M2073.0 253.05 L2035.0 259.75 2031.0 236.95 2069.0 230.25 2073.0 253.05" fill="#707070" fill-rule="evenodd" stroke="none"/>
    <path d="M2778.05 -39.25 L2771.85 -23.25 2744.25 -33.95 2750.45 -49.95 2778.05 -39.25" fill="#707070" fill-rule="evenodd" stroke="none"/>
    <path d="M2408.75 219.95 L2405.85 222.15 2402.15 222.85 2398.65 221.75 2396.05 219.15 2394.95 215.65 2395.55 212.05 2397.85 209.05 2401.25 207.55 2404.95 207.75 2408.05 209.65 2410.05 212.85 2410.25 216.55 2408.75 219.95" fill="#707070" fill-rule="evenodd" stroke="none"/>
    <path d="M2399.15 -242.15 L2402.55 -243.65 2406.25 -243.45 2409.45 -241.55 2411.35 -238.45 2411.55 -234.75 2410.05 -231.35 2407.15 -229.05 2403.55 -228.35 2399.95 -229.45 2397.35 -232.05 2396.25 -235.55 2396.95 -239.25 2399.15 -242.15" fill="#707070" fill-rule="evenodd" stroke="none"/>
    <path d="M1930.1 162.65 L1930.1 -161.95 2254.1 -161.95 2254.1 162.65 1930.1 162.65" fill="#707070" fill-rule="evenodd" stroke="none"/>
    <path d="M1779.3 -172.95 L1811.3 -172.95 1811.3 -184.25 1827.3 -184.25 1827.3 -172.95 1857.3 -172.95 1857.3 -55.65 1779.3 -55.65 1779.3 -172.95" fill="#707070" fill-rule="evenodd" stroke="none"/>
    <path d="M1836.1 102.65 L1851.4 102.65 1851.4 168.65 1784.8 168.65 1784.8 44.65 1836.1 44.65 1836.1 102.65" fill="#707070" fill-rule="evenodd" stroke="none"/>
    <path d="M2386.45 -62.65 L2386.45 72.65 2336.45 72.65 2336.45 -62.65 2386.45 -62.65" fill="#707070" fill-rule="evenodd" stroke="none"/>
    <path d="M1786.1 -268.65 L1845.4 -268.65 1845.4 -259.25 1786.1 -259.25 1786.1 -268.65" fill="#707070" fill-rule="evenodd" stroke="none"/>
    <path d="M1845.4 270.65 L1786.1 270.65 1786.1 261.25 1845.4 261.25 1845.4 270.65" fill="#707070" fill-rule="evenodd" stroke="none"/>
    <path d="M1901.7 -264.65 L1934.3 -263.25 1933.8 -252.55 1901.2 -254.05 1901.7 -264.65" fill="#707070" fill-rule="evenodd" stroke="none"/>
    <path d="M1901.7 265.95 L1901.2 255.35 1933.8 253.85 1934.3 264.55 1901.7 265.95" fill="#707070" fill-rule="evenodd" stroke="none"/>
    <path d="M1419.15 252.25 L1419.15 275.75 1382.65 275.75 1382.65 252.25 1419.15 252.25" fill="#707070" fill-rule="evenodd" stroke="none"/>
    <path d="M1333.65 264.75 L1333.65 275.75 1297.15 275.75 1297.15 264.75 1333.65 264.75" fill="#707070" fill-rule="evenodd" stroke="none"/>
    <path d="M1253.45 275.75 L1253.45 264.75 1289.95 264.75 1289.95 275.75 1253.45 275.75" fill="#707070" fill-rule="evenodd" stroke="none"/>
    <path d="M1213.25 264.75 L1213.25 275.75 1176.75 275.75 1176.75 264.75 1213.25 264.75" fill="#707070" fill-rule="evenodd" stroke="none"/>
    <path d="M1094.05 256.95 L1094.05 271.95 1059.75 271.95 1059.75 256.95 1094.05 256.95" fill="#707070" fill-rule="evenodd" stroke="none"/>
    <path d="M1166.65 264.75 L1166.65 275.75 1130.15 275.75 1130.15 264.75 1166.65 264.75" fill="#707070" fill-rule="evenodd" stroke="none"/>
    <path d="M1008.65 264.75 L1008.65 275.25 972.15 275.25 972.15 264.75 1008.65 264.75" fill="#707070" fill-rule="evenodd" stroke="none"/>
    <path d="M923.15 275.25 L923.15 264.75 959.65 264.75 959.65 275.25 923.15 275.25" fill="#707070" fill-rule="evenodd" stroke="none"/>
    <path d="M878.15 264.75 L878.15 275.25 841.65 275.25 841.65 264.75 878.15 264.75" fill="#707070" fill-rule="evenodd" stroke="none"/>
    <path d="M834.15 264.75 L834.15 275.25 797.6 275.25 797.6 264.75 834.15 264.75" fill="#707070" fill-rule="evenodd" stroke="none"/>
    <path d="M440.1 264.75 L440.1 274.05 403.6 274.05 403.6 264.75 440.1 264.75" fill="#707070" fill-rule="evenodd" stroke="none"/>
    <path d="M395.1 264.75 L395.1 274.05 358.6 274.05 358.6 264.75 395.1 264.75" fill="#707070" fill-rule="evenodd" stroke="none"/>
    <path d="M316.4 264.75 L316.4 274.05 279.9 274.05 279.9 264.75 316.4 264.75" fill="#707070" fill-rule="evenodd" stroke="none"/>
    <path d="M272.1 264.75 L272.1 274.05 235.6 274.05 235.6 264.75 272.1 264.75" fill="#707070" fill-rule="evenodd" stroke="none"/>
    <path d="M749.3 260.75 L749.3 275.25 719.8 275.25 719.8 260.75 749.3 260.75" fill="#707070" fill-rule="evenodd" stroke="none"/>
    <path d="M110.0 260.75 L110.0 274.05 80.45 274.05 80.45 260.75 110.0 260.75" fill="#707070" fill-rule="evenodd" stroke="none"/>
    <path d="M577.3 254.75 L577.3 275.25 543.8 275.25 543.8 254.75 577.3 254.75" fill="#707070" fill-rule="evenodd" stroke="none"/>
    <path d="M207.3 220.25 L173.8 220.25 173.8 194.75 207.3 194.75 207.3 220.25" fill="#707070" fill-rule="evenodd" stroke="none"/>
    <path d="M123.3 53.75 L123.3 198.75 79.75 198.75 79.75 53.75 123.3 53.75" fill="#707070" fill-rule="evenodd" stroke="none"/>
    <path d="M663.3 -53.25 L587.2 -53.25 587.2 -172.15 663.3 -172.15 663.3 -53.25" fill="#707070" fill-rule="evenodd" stroke="none"/>
    <path d="M660.3 169.95 L589.2 169.95 589.2 43.75 644.0 43.75 644.0 103.25 660.3 103.25 660.3 169.95" fill="#707070" fill-rule="evenodd" stroke="none"/>
    <path d="M-700.3 171.75 L-700.3 107.75 -679.3 107.75 -679.3 171.75 -700.3 171.75" fill="#707070" fill-rule="evenodd" stroke="none"/>
    <path d="M-619.35 68.55 L-647.9 48.25 -637.3 33.25 -608.75 53.55 -619.35 68.55" fill="#707070" fill-rule="evenodd" stroke="none"/>
    <path d="M-610.85 144.95 L-600.55 130.55 -570.75 151.75 -580.95 166.15 -610.85 144.95" fill="#707070" fill-rule="evenodd" stroke="none"/>
    <path d="M-578.15 111.85 L-589.35 103.05 -575.45 85.55 -564.35 94.35 -578.15 111.85" fill="#707070" fill-rule="evenodd" stroke="none"/>
    <path d="M-554.65 177.85 L-565.85 169.05 -551.95 151.55 -540.85 160.35 -554.65 177.85" fill="#707070" fill-rule="evenodd" stroke="none"/>
    <path d="M-575.05 81.85 L-569.65 75.05 -536.35 101.35 -541.65 108.15 -575.05 81.85" fill="#707070" fill-rule="evenodd" stroke="none"/>
    <path d="M-517.45 173.65 L-550.75 147.35 -545.45 140.55 -512.15 166.85 -517.45 173.65" fill="#707070" fill-rule="evenodd" stroke="none"/>
    <path d="M-618.85 -68.15 L-608.25 -53.15 Q-622.45 -42.95 -636.8 -32.85 L-647.4 -47.85 Q-633.05 -57.95 -618.85 -68.15" fill="#707070" fill-rule="evenodd" stroke="none"/>
    <path d="M-570.75 -148.85 L-600.55 -127.65 -610.85 -142.05 -580.95 -163.25 -570.75 -148.85" fill="#707070" fill-rule="evenodd" stroke="none"/>
    <path d="M-578.15 -105.95 L-564.35 -88.45 -575.45 -79.65 -589.35 -97.15 -578.15 -105.95" fill="#707070" fill-rule="evenodd" stroke="none"/>
    <path d="M-550.35 -168.65 L-536.55 -151.15 -547.65 -142.35 -561.45 -159.85 -550.35 -168.65" fill="#707070" fill-rule="evenodd" stroke="none"/>
    <path d="M-562.05 -125.15 Q-578.65 -111.95 -595.35 -98.85 L-600.65 -105.55 Q-583.95 -118.65 -567.35 -131.85 L-562.05 -125.15" fill="#707070" fill-rule="evenodd" stroke="none"/>
    <path d="M-538.15 -195.05 L-532.75 -188.25 Q-549.35 -175.05 -566.05 -161.95 L-571.45 -168.75 -538.15 -195.05" fill="#707070" fill-rule="evenodd" stroke="none"/>
    <path d="M-700.3 -171.65 L-679.3 -171.65 -679.3 -107.65 -700.3 -107.65 -700.3 -171.65" fill="#707070" fill-rule="evenodd" stroke="none"/>
    <path d="M490.0 73.65 L490.0 41.95 503.0 41.95 503.0 73.65 490.0 73.65" fill="#707070" fill-rule="evenodd" stroke="none"/>
    <path d="M1510.15 -274.65 L1546.65 -274.65 1546.65 -264.35 1510.15 -264.35 1510.15 -274.65" fill="#707070" fill-rule="evenodd" stroke="none"/>
    <path d="M1501.15 -264.35 L1464.65 -264.35 1464.65 -274.65 1501.15 -274.65 1501.15 -264.35" fill="#707070" fill-rule="evenodd" stroke="none"/>
    <path d="M1419.15 -251.65 L1382.65 -251.65 1382.65 -274.65 1419.15 -274.65 1419.15 -251.65" fill="#707070" fill-rule="evenodd" stroke="none"/>
    <path d="M1333.65 -264.15 L1297.15 -264.15 1297.15 -274.65 1333.65 -274.65 1333.65 -264.15" fill="#707070" fill-rule="evenodd" stroke="none"/>
    <path d="M1253.45 -274.65 L1289.95 -274.65 1289.95 -264.15 1253.45 -264.15 1253.45 -274.65" fill="#707070" fill-rule="evenodd" stroke="none"/>
    <path d="M1176.75 -274.65 L1213.25 -274.65 1213.25 -264.15 1176.75 -264.15 1176.75 -274.65" fill="#707070" fill-rule="evenodd" stroke="none"/>
    <path d="M1166.65 -264.15 L1130.15 -264.15 1130.15 -274.65 1166.65 -274.65 1166.65 -264.15" fill="#707070" fill-rule="evenodd" stroke="none"/>
    <path d="M1008.65 -264.15 L972.15 -264.15 972.15 -274.65 1008.65 -274.65 1008.65 -264.15" fill="#707070" fill-rule="evenodd" stroke="none"/>
    <path d="M959.65 -264.15 L923.15 -264.15 923.15 -274.65 959.65 -274.65 959.65 -264.15" fill="#707070" fill-rule="evenodd" stroke="none"/>
    <path d="M841.65 -274.65 L878.15 -274.65 878.15 -264.15 841.65 -264.15 841.65 -274.65" fill="#707070" fill-rule="evenodd" stroke="none"/>
    <path d="M834.15 -264.15 L797.6 -264.15 797.6 -274.65 834.15 -274.65 834.15 -264.15" fill="#707070" fill-rule="evenodd" stroke="none"/>
    <path d="M440.1 -264.15 L403.6 -264.15 403.6 -274.65 440.1 -274.65 440.1 -264.15" fill="#707070" fill-rule="evenodd" stroke="none"/>
    <path d="M358.6 -274.65 L395.1 -274.65 395.1 -264.15 358.6 -264.15 358.6 -274.65" fill="#707070" fill-rule="evenodd" stroke="none"/>
    <path d="M316.4 -264.15 L279.9 -264.15 279.9 -274.65 316.4 -274.65 316.4 -264.15" fill="#707070" fill-rule="evenodd" stroke="none"/>
    <path d="M272.1 -264.15 L235.6 -264.15 235.6 -274.65 272.1 -274.65 272.1 -264.15" fill="#707070" fill-rule="evenodd" stroke="none"/>
    <path d="M749.3 -260.15 L719.8 -260.15 719.8 -274.65 749.3 -274.65 749.3 -260.15" fill="#707070" fill-rule="evenodd" stroke="none"/>
    <path d="M110.0 -260.15 L80.45 -260.15 80.45 -274.65 110.0 -274.65 110.0 -260.15" fill="#707070" fill-rule="evenodd" stroke="none"/>
    <path d="M526.8 -260.15 L497.3 -260.15 497.3 -274.65 526.8 -274.65 526.8 -260.15" fill="#707070" fill-rule="evenodd" stroke="none"/>
    <path d="M577.3 -254.15 L543.8 -254.15 543.8 -274.65 577.3 -274.65 577.3 -254.15" fill="#707070" fill-rule="evenodd" stroke="none"/>
    <path d="M1699.4 218.65 L1447.35 218.65 1447.35 -221.95 1699.4 -221.95 1699.4 218.65" fill="#434343" fill-rule="evenodd" stroke="none"/>
    <path d="M1702.2 -260.65 L1689.8 -260.65 1689.8 -270.85 1702.2 -270.85 1702.2 -260.65" fill="#434343" fill-rule="evenodd" stroke="none"/>
    <path d="M1579.7 -260.65 L1567.3 -260.65 1567.3 -270.85 1579.7 -270.85 1579.7 -260.65" fill="#434343" fill-rule="evenodd" stroke="none"/>
    <path d="M1456.95 -260.65 L1444.55 -260.65 1444.55 -270.85 1456.95 -270.85 1456.95 -260.65" fill="#434343" fill-rule="evenodd" stroke="none"/>
    <path d="M1373.25 -260.65 L1360.85 -260.65 1360.85 -270.85 1373.25 -270.85 1373.25 -260.65" fill="#434343" fill-rule="evenodd" stroke="none"/>
    <path d="M1251.25 -260.65 L1238.85 -260.65 1238.85 -270.85 1251.25 -270.85 1251.25 -260.65" fill="#434343" fill-rule="evenodd" stroke="none"/>
    <path d="M1129.65 -260.65 L1117.25 -260.65 1117.25 -270.85 1129.65 -270.85 1129.65 -260.65" fill="#434343" fill-rule="evenodd" stroke="none"/>
    <path d="M1046.65 -260.65 L1034.25 -260.65 1034.25 -270.85 1046.65 -270.85 1046.65 -260.65" fill="#434343" fill-rule="evenodd" stroke="none"/>
    <path d="M924.65 -260.65 L912.25 -260.65 912.25 -270.85 924.65 -270.85 924.65 -260.65" fill="#434343" fill-rule="evenodd" stroke="none"/>
    <path d="M800.2 -260.65 L787.8 -260.65 787.8 -270.85 800.2 -270.85 800.2 -260.65" fill="#434343" fill-rule="evenodd" stroke="none"/>
    <path d="M455.2 -269.85 L467.6 -269.85 467.6 -259.65 455.2 -259.65 455.2 -269.85" fill="#434343" fill-rule="evenodd" stroke="none"/>
    <path d="M344.6 -259.65 L332.2 -259.65 332.2 -269.85 344.6 -269.85 344.6 -259.65" fill="#434343" fill-rule="evenodd" stroke="none"/>
    <path d="M210.9 -268.85 L223.3 -268.85 223.3 -258.65 210.9 -258.65 210.9 -268.85" fill="#434343" fill-rule="evenodd" stroke="none"/>
    <path d="M573.3 -274.65 L635.3 -274.65 635.3 -265.65 573.3 -265.65 573.3 -274.65" fill="#434343" fill-rule="evenodd" stroke="none"/>
    <path d="M1702.2 -260.65 L1689.8 -260.65 1689.8 -270.85 1702.2 -270.85 1702.2 -260.65" fill="#434343" fill-rule="evenodd" stroke="none"/>
    <path d="M1579.7 -260.65 L1567.3 -260.65 1567.3 -270.85 1579.7 -270.85 1579.7 -260.65" fill="#434343" fill-rule="evenodd" stroke="none"/>
    <path d="M1456.95 -260.65 L1444.55 -260.65 1444.55 -270.85 1456.95 -270.85 1456.95 -260.65" fill="#434343" fill-rule="evenodd" stroke="none"/>
    <path d="M1373.25 -260.65 L1360.85 -260.65 1360.85 -270.85 1373.25 -270.85 1373.25 -260.65" fill="#434343" fill-rule="evenodd" stroke="none"/>
    <path d="M1251.25 -260.65 L1238.85 -260.65 1238.85 -270.85 1251.25 -270.85 1251.25 -260.65" fill="#434343" fill-rule="evenodd" stroke="none"/>
    <path d="M1129.65 -260.65 L1117.25 -260.65 1117.25 -270.85 1129.65 -270.85 1129.65 -260.65" fill="#434343" fill-rule="evenodd" stroke="none"/>
    <path d="M1046.65 -260.65 L1034.25 -260.65 1034.25 -270.85 1046.65 -270.85 1046.65 -260.65" fill="#434343" fill-rule="evenodd" stroke="none"/>
    <path d="M924.65 -260.65 L912.25 -260.65 912.25 -270.85 924.65 -270.85 924.65 -260.65" fill="#434343" fill-rule="evenodd" stroke="none"/>
    <path d="M800.2 -260.65 L787.8 -260.65 787.8 -270.85 800.2 -270.85 800.2 -260.65" fill="#434343" fill-rule="evenodd" stroke="none"/>
    <path d="M455.2 -269.85 L467.6 -269.85 467.6 -259.65 455.2 -259.65 455.2 -269.85" fill="#434343" fill-rule="evenodd" stroke="none"/>
    <path d="M344.6 -259.65 L332.2 -259.65 332.2 -269.85 344.6 -269.85 344.6 -259.65" fill="#434343" fill-rule="evenodd" stroke="none"/>
    <path d="M210.9 -268.85 L223.3 -268.85 223.3 -258.65 210.9 -258.65 210.9 -268.85" fill="#434343" fill-rule="evenodd" stroke="none"/>
    <path d="M590.8 271.25 L590.8 262.25 652.8 262.25 652.8 271.25 590.8 271.25" fill="#434343" fill-rule="evenodd" stroke="none"/>
    <path d="M1702.2 258.25 L1702.2 268.55 1689.8 268.55 1689.8 258.25 1702.2 258.25" fill="#434343" fill-rule="evenodd" stroke="none"/>
    <path d="M1579.7 258.25 L1579.7 268.55 1567.3 268.55 1567.3 258.25 1579.7 258.25" fill="#434343" fill-rule="evenodd" stroke="none"/>
    <path d="M1456.95 258.25 L1456.95 268.55 1444.55 268.55 1444.55 258.25 1456.95 258.25" fill="#434343" fill-rule="evenodd" stroke="none"/>
    <path d="M1373.25 259.25 L1373.25 269.55 1360.85 269.55 1360.85 259.25 1373.25 259.25" fill="#434343" fill-rule="evenodd" stroke="none"/>
    <path d="M1251.25 259.25 L1251.25 269.55 1238.85 269.55 1238.85 259.25 1251.25 259.25" fill="#434343" fill-rule="evenodd" stroke="none"/>
    <path d="M1129.65 259.25 L1129.65 269.55 1117.25 269.55 1117.25 259.25 1129.65 259.25" fill="#434343" fill-rule="evenodd" stroke="none"/>
    <path d="M1046.65 259.25 L1046.65 269.55 1034.25 269.55 1034.25 259.25 1046.65 259.25" fill="#434343" fill-rule="evenodd" stroke="none"/>
    <path d="M924.65 261.25 L924.65 271.55 912.25 271.55 912.25 261.25 924.65 261.25" fill="#434343" fill-rule="evenodd" stroke="none"/>
    <path d="M800.2 261.25 L800.2 271.55 787.8 271.55 787.8 261.25 800.2 261.25" fill="#434343" fill-rule="evenodd" stroke="none"/>
    <path d="M467.6 260.25 L467.6 270.55 455.2 270.55 455.2 260.25 467.6 260.25" fill="#434343" fill-rule="evenodd" stroke="none"/>
    <path d="M344.6 260.25 L344.6 270.55 332.2 270.55 332.2 260.25 344.6 260.25" fill="#434343" fill-rule="evenodd" stroke="none"/>
    <path d="M223.3 259.25 L223.3 269.55 210.9 269.55 210.9 259.25 223.3 259.25" fill="#434343" fill-rule="evenodd" stroke="none"/>
    <path d="M-77.75 -258.65 L-90.15 -258.65 -90.15 -268.85 -77.75 -268.85 -77.75 -258.65" fill="#434343" fill-rule="evenodd" stroke="none"/>
    <path d="M-250.25 -253.65 L-262.65 -253.65 -262.65 -263.85 -250.25 -263.85 -250.25 -253.65" fill="#434343" fill-rule="evenodd" stroke="none"/>
    <path d="M-77.75 259.45 L-77.75 269.75 -90.15 269.75 -90.15 259.45 -77.75 259.45" fill="#434343" fill-rule="evenodd" stroke="none"/>
    <path d="M-250.25 254.45 L-250.25 264.75 -262.65 264.75 -262.65 254.45 -250.25 254.45" fill="#434343" fill-rule="evenodd" stroke="none"/>
    <path d="M1368.75 -221.95 L1368.75 218.65 1116.75 218.65 1116.75 -221.95 1368.75 -221.95" fill="#434343" fill-rule="evenodd" stroke="none"/>
    <path d="M1041.35 218.65 L792.0 218.65 792.0 -221.95 1041.35 -221.95 1041.35 218.65" fill="#434343" fill-rule="evenodd" stroke="none"/>
    <path d="M467.3 218.65 L218.0 218.65 218.0 -221.95 467.3 -221.95 467.3 218.65" fill="#434343" fill-rule="evenodd" stroke="none"/>
    <path d="M1429.35 -156.95 L1421.85 -156.95 1421.85 -187.75 1429.35 -187.75 1429.35 -156.95" fill="#434343" fill-rule="evenodd" stroke="none"/>
    <path d="M1429.35 -130.35 L1429.35 -99.65 1421.85 -99.65 1421.85 -130.35 1429.35 -130.35" fill="#434343" fill-rule="evenodd" stroke="none"/>
    <path d="M1429.35 -42.65 L1421.85 -42.65 1421.85 -73.35 1429.35 -73.35 1429.35 -42.65" fill="#434343" fill-rule="evenodd" stroke="none"/>
    <path d="M1428.35 -17.35 L1428.35 13.25 1420.85 13.25 1420.85 -17.35 1428.35 -17.35" fill="#434343" fill-rule="evenodd" stroke="none"/>
    <path d="M1428.35 69.65 L1420.85 69.65 1420.85 38.85 1428.35 38.85 1428.35 69.65" fill="#434343" fill-rule="evenodd" stroke="none"/>
    <path d="M1428.35 125.95 L1420.85 125.95 1420.85 95.15 1428.35 95.15 1428.35 125.95" fill="#434343" fill-rule="evenodd" stroke="none"/>
    <path d="M1428.35 184.65 L1420.85 184.65 1420.85 153.85 1428.35 153.85 1428.35 184.65" fill="#434343" fill-rule="evenodd" stroke="none"/>
    <path d="M1101.35 -156.95 L1093.85 -156.95 1093.85 -187.75 1101.35 -187.75 1101.35 -156.95" fill="#434343" fill-rule="evenodd" stroke="none"/>
    <path d="M1101.35 -130.35 L1101.35 -99.65 1093.85 -99.65 1093.85 -130.35 1101.35 -130.35" fill="#434343" fill-rule="evenodd" stroke="none"/>
    <path d="M1101.35 -42.65 L1093.85 -42.65 1093.85 -73.35 1101.35 -73.35 1101.35 -42.65" fill="#434343" fill-rule="evenodd" stroke="none"/>
    <path d="M1100.35 -17.35 L1100.35 13.25 1092.85 13.25 1092.85 -17.35 1100.35 -17.35" fill="#434343" fill-rule="evenodd" stroke="none"/>
    <path d="M1100.35 71.65 L1092.85 71.65 1092.85 40.85 1100.35 40.85 1100.35 71.65" fill="#434343" fill-rule="evenodd" stroke="none"/>
    <path d="M1100.35 125.95 L1092.85 125.95 1092.85 95.15 1100.35 95.15 1100.35 125.95" fill="#434343" fill-rule="evenodd" stroke="none"/>
    <path d="M1100.35 184.65 L1092.85 184.65 1092.85 153.85 1100.35 153.85 1100.35 184.65" fill="#434343" fill-rule="evenodd" stroke="none"/>
    <path d="M772.7 -156.95 L765.2 -156.95 765.2 -187.75 772.7 -187.75 772.7 -156.95" fill="#434343" fill-rule="evenodd" stroke="none"/>
    <path d="M772.7 -130.35 L772.7 -99.65 765.2 -99.65 765.2 -130.35 772.7 -130.35" fill="#434343" fill-rule="evenodd" stroke="none"/>
    <path d="M772.7 -42.65 L765.2 -42.65 765.2 -73.35 772.7 -73.35 772.7 -42.65" fill="#434343" fill-rule="evenodd" stroke="none"/>
    <path d="M771.7 -17.35 L771.7 13.25 764.2 13.25 764.2 -17.35 771.7 -17.35" fill="#434343" fill-rule="evenodd" stroke="none"/>
    <path d="M771.7 71.65 L764.2 71.65 764.2 40.85 771.7 40.85 771.7 71.65" fill="#434343" fill-rule="evenodd" stroke="none"/>
    <path d="M771.7 125.95 L764.2 125.95 764.2 95.15 771.7 95.15 771.7 125.95" fill="#434343" fill-rule="evenodd" stroke="none"/>
    <path d="M771.7 184.65 L764.2 184.65 764.2 153.85 771.7 153.85 771.7 184.65" fill="#434343" fill-rule="evenodd" stroke="none"/>
    <path d="M492.3 -156.95 L484.8 -156.95 484.8 -187.75 492.3 -187.75 492.3 -156.95" fill="#434343" fill-rule="evenodd" stroke="none"/>
    <path d="M492.3 -130.35 L492.3 -99.65 484.8 -99.65 484.8 -130.35 492.3 -130.35" fill="#434343" fill-rule="evenodd" stroke="none"/>
    <path d="M492.3 -42.65 L484.8 -42.65 484.8 -73.35 492.3 -73.35 492.3 -42.65" fill="#434343" fill-rule="evenodd" stroke="none"/>
    <path d="M491.3 -17.35 L491.3 13.25 483.8 13.25 483.8 -17.35 491.3 -17.35" fill="#434343" fill-rule="evenodd" stroke="none"/>
    <path d="M491.3 71.65 L483.8 71.65 483.8 40.85 491.3 40.85 491.3 71.65" fill="#434343" fill-rule="evenodd" stroke="none"/>
    <path d="M491.3 125.95 L483.8 125.95 483.8 95.15 491.3 95.15 491.3 125.95" fill="#434343" fill-rule="evenodd" stroke="none"/>
    <path d="M491.3 184.65 L483.8 184.65 483.8 153.85 491.3 153.85 491.3 184.65" fill="#434343" fill-rule="evenodd" stroke="none"/>
    <path d="M517.3 -184.65 L508.0 -184.65 508.0 -202.65 517.3 -202.65 517.3 -184.65" fill="#434343" fill-rule="evenodd" stroke="none"/>
    <path d="M200.0 -150.25 L190.7 -150.25 190.7 -168.25 200.0 -168.25 200.0 -150.25" fill="#434343" fill-rule="evenodd" stroke="none"/>
    <path d="M200.0 167.65 L190.7 167.65 190.7 149.65 200.0 149.65 200.0 167.65" fill="#434343" fill-rule="evenodd" stroke="none"/>
    <path d="M517.3 184.65 L517.3 202.65 508.0 202.65 508.0 184.65 517.3 184.65" fill="#434343" fill-rule="evenodd" stroke="none"/>
    <path d="M744.0 -186.25 L734.7 -186.25 734.7 -204.25 744.0 -204.25 744.0 -186.25" fill="#434343" fill-rule="evenodd" stroke="none"/>
    <path d="M744.0 182.95 L744.0 200.95 734.7 200.95 734.7 182.95 744.0 182.95" fill="#434343" fill-rule="evenodd" stroke="none"/>
    <path d="M-480.05 173.95 L-482.05 -171.95 -337.35 -185.25 76.65 -185.25 76.65 186.65 -337.35 186.65 -480.05 173.95" fill="#434343" fill-rule="evenodd" stroke="none"/>
    <path d="M-498.75 -82.65 L-463.35 -82.65 -463.35 81.25 -498.75 81.25 -498.75 -82.65" fill="#434343" fill-rule="evenodd" stroke="none"/>
    <path d="M1430.85 9.25 L1411.85 9.25 1411.85 -13.25 1430.85 -13.25 1430.85 9.25" fill="#ffffff" fill-rule="evenodd" stroke="none"/>
    <path d="M1102.35 -13.25 L1102.35 9.25 1083.35 9.25 1083.35 -13.25 1102.35 -13.25" fill="#ffffff" fill-rule="evenodd" stroke="none"/>
    <path d="M772.8 -13.25 L772.8 9.25 753.8 9.25 753.8 -13.25 772.8 -13.25" fill="#ffffff" fill-rule="evenodd" stroke="none"/>
    <path d="M499.5 -13.25 L499.5 9.25 480.5 9.25 480.5 -13.25 499.5 -13.25" fill="#ffffff" fill-rule="evenodd" stroke="none"/>
    <path d="M1938.9 21.75 L1887.4 21.75 1887.4 -19.75 1938.9 -19.75 1938.9 21.75" fill="#ffffff" fill-rule="evenodd" stroke="none"/>
    <path d="M2401.45 -115.65 L2382.45 -115.65 2382.45 -138.25 2401.45 -138.25 2401.45 -115.65" fill="#ffffff" fill-rule="evenodd" stroke="none"/>
    <path d="M2401.45 136.25 L2382.45 136.25 2382.45 113.65 2401.45 113.65 2401.45 136.25" fill="#ffffff" fill-rule="evenodd" stroke="none"/>
    <path d="M-235.65 186.65 L-122.05 186.65 -122.05 212.85 -235.65 212.85 -235.65 186.65" fill="#ffffff" fill-rule="evenodd" stroke="none"/>
    <path d="M-235.65 -213.25 L-122.05 -213.25 -122.05 -185.25 -235.65 -185.25 -235.65 -213.25" fill="#ffffff" fill-rule="evenodd" stroke="none"/>
    <path d="M74.25 -142.65 L74.25 145.25 -50.75 123.65 -50.75 25.65 -53.75 25.65 -53.75 52.95 -140.35 52.95 -140.35 -20.25 -53.75 -20.25 -53.75 -19.25 -50.75 -19.25 -50.75 -120.25 74.25 -142.65" fill="#969696" fill-rule="evenodd" stroke="none"/>
    <path d="M41.05 -16.35 L50.65 -16.35 50.65 -116.35 -23.75 -104.05 -41.05 -122.65 74.25 -142.65 74.25 145.25 -40.05 125.45 -24.15 106.65 50.65 119.05 50.65 19.05 41.05 19.05 41.05 -16.35" fill="#707070" fill-rule="evenodd" stroke="none"/>
    <path d="M-6.95 -5.35 L13.55 -5.35 13.55 10.25 -6.95 10.25 -6.95 -5.35" fill="#707070" fill-rule="evenodd" stroke="none"/>
    <path d="M-140.35 -20.25 L-123.45 -20.25 -123.45 25.75 -140.35 25.75 -140.35 -20.25" fill="#707070" fill-rule="evenodd" stroke="none"/>
    <path d="M-140.35 52.95 L-140.35 30.05 -125.95 30.05 -125.95 52.95 -140.35 52.95" fill="#707070" fill-rule="evenodd" stroke="none"/>
    <path d="M-68.55 52.75 L-68.55 10.25 -53.75 10.25 -53.75 52.75 -68.55 52.75" fill="#707070" fill-rule="evenodd" stroke="none"/>
    <path d="M-35.85 33.75 L-35.85 76.25 -50.75 76.25 -50.75 33.75 -35.85 33.75" fill="#707070" fill-rule="evenodd" stroke="none"/>
    <path d="M-38.85 -105.45 L-38.85 -71.25 -50.75 -71.25 -50.75 -105.45 -38.85 -105.45" fill="#707070" fill-rule="evenodd" stroke="none"/>
    <path d="M-43.75 -65.25 L-43.75 -31.15 -50.75 -31.15 -50.75 -65.25 -43.75 -65.25" fill="#707070" fill-rule="evenodd" stroke="none"/>
    <path d="M20.25 -67.15 L14.75 -67.15 14.75 -73.85 20.25 -73.85 20.25 -67.15" fill="#434343" fill-rule="evenodd" stroke="none"/>
    <path d="M20.25 77.55 L14.75 77.55 14.75 70.75 20.25 70.75 20.25 77.55" fill="#434343" fill-rule="evenodd" stroke="none"/>
    <path d="M-69.45 57.05 L-94.75 57.05 -94.75 52.95 -69.45 52.95 -69.45 57.05" fill="#ffffff" fill-rule="evenodd" stroke="none"/>
  </g>
</svg>
