<?xml version="1.0" encoding="UTF-8" standalone="no"?>
<svg xmlns:ffdec="https://www.free-decompiler.com/flash" xmlns:xlink="http://www.w3.org/1999/xlink" ffdec:objectType="shape" height="523.0px" width="606.0px" xmlns="http://www.w3.org/2000/svg">
  <g transform="matrix(1.0, 0.0, 0.0, 1.0, 404.0, 242.0)">
    <path d="M-404.0 281.0 L-404.0 -242.0 202.0 -242.0 202.0 281.0 -404.0 281.0" fill="#434343" fill-rule="evenodd" stroke="none"/>
    <path d="M-118.5 -229.0 L60.75 -229.0 60.75 -131.45 73.65 -131.45 73.65 -133.35 106.3 -133.35 106.3 -131.45 121.0 -131.45 121.0 -118.5 135.05 -118.5 135.05 -131.45 184.05 -131.45 184.05 -111.85 196.15 -111.85 196.15 200.45 184.15 200.45 184.15 263.8 134.5 263.8 134.5 236.65 120.3 236.65 120.3 264.15 -104.7 264.15 -104.7 236.65 -118.0 236.65 -118.0 263.65 -191.0 263.65 -191.0 107.65 -231.9 107.65 -231.9 78.65 -236.0 78.65 -236.0 -22.7 -231.9 -22.7 -231.9 -57.35 -203.0 -57.35 -203.0 -59.0 -146.0 -59.0 -146.0 -57.35 -117.7 -57.35 -117.7 -118.0 -105.25 -118.0 -105.25 -145.35 -118.5 -145.35 -118.5 -229.0" fill="#969696" fill-rule="evenodd" stroke="none"/>
    <path d="M-62.7 -185.0 L-35.0 -185.0 -35.0 -157.0 -62.7 -157.0 -62.7 -185.0" fill="#707070" fill-rule="evenodd" stroke="none"/>
    <path d="M2.5 -215.0 L2.5 -229.0 60.75 -229.0 60.75 -215.0 2.5 -215.0" fill="#707070" fill-rule="evenodd" stroke="none"/>
    <path d="M-118.5 -229.0 L-25.0 -229.0 -25.0 -198.5 -81.5 -198.5 -81.5 -145.0 -118.5 -145.0 -118.5 -229.0" fill="#707070" fill-rule="evenodd" stroke="none"/>
    <path d="M0.0 -154.25 L3.75 -154.25 3.75 -131.5 -105.25 -131.5 -105.25 -136.75 0.0 -136.75 0.0 -154.25" fill="#707070" fill-rule="evenodd" stroke="none"/>
    <path d="M155.3 -86.95 L166.45 -15.35 150.65 -12.9 139.55 -84.5 155.3 -86.95" fill="#707070" fill-rule="evenodd" stroke="none"/>
    <path d="M-93.6 -55.95 L-98.95 -41.6 -113.95 -47.15 -108.6 -61.5 -93.6 -55.95" fill="#707070" fill-rule="evenodd" stroke="none"/>
    <path d="M-102.7 -87.75 L-90.05 -81.05 -100.55 -61.3 -113.2 -68.0 -102.7 -87.75" fill="#707070" fill-rule="evenodd" stroke="none"/>
    <path d="M-50.7 264.15 L-50.7 251.0 67.65 251.0 67.65 264.15 -50.7 264.15" fill="#707070" fill-rule="evenodd" stroke="none"/>
    <path d="M-63.35 261.0 L-63.35 250.0 -53.35 250.0 -53.35 261.0 -63.35 261.0" fill="#707070" fill-rule="evenodd" stroke="none"/>
    <path d="M-83.35 254.3 L-83.35 243.65 -66.7 243.65 -66.7 254.3 -83.35 254.3" fill="#707070" fill-rule="evenodd" stroke="none"/>
    <path d="M-90.35 252.0 L-90.35 238.65 -85.35 238.65 -85.35 252.0 -90.35 252.0" fill="#707070" fill-rule="evenodd" stroke="none"/>
    <path d="M-85.35 261.65 L-95.0 261.65 -95.0 246.65 -85.35 246.65 -85.35 261.65" fill="#707070" fill-rule="evenodd" stroke="none"/>
    <path d="M-81.7 257.65 L-87.85 257.65 -87.85 245.3 -81.7 245.3 -81.7 257.65" fill="#707070" fill-rule="evenodd" stroke="none"/>
    <path d="M-191.0 124.0 L-178.35 124.0 -178.35 219.65 -191.0 219.65 -191.0 124.0" fill="#707070" fill-rule="evenodd" stroke="none"/>
    <path d="M36.65 150.15 L36.0 151.75 27.4 148.35 30.05 141.5 38.45 144.8 93.65 144.8 102.0 141.5 104.7 148.35 96.05 151.75 95.45 150.15 36.65 150.15" fill="#707070" fill-rule="evenodd" stroke="none"/>
    <path d="M-10.3 148.35 L-18.95 151.75 -19.55 150.15 -78.35 150.15 -79.0 151.75 -87.6 148.35 -84.95 141.5 -76.55 144.8 -21.35 144.8 -13.0 141.5 -10.3 148.35" fill="#707070" fill-rule="evenodd" stroke="none"/>
    <path d="M-238.75 -22.7 L-232.9 -22.7 -232.9 78.65 -238.75 78.65 -238.75 -22.7" fill="#ffffff" fill-rule="evenodd" stroke="none"/>
  </g>
</svg>
