<?xml version="1.0" encoding="UTF-8" standalone="no"?>
<svg xmlns:ffdec="https://www.free-decompiler.com/flash" xmlns:xlink="http://www.w3.org/1999/xlink" ffdec:objectType="shape" height="129.05px" width="163.65px" xmlns="http://www.w3.org/2000/svg">
  <g transform="matrix(1.0, 0.0, 0.0, 1.0, 83.5, 64.75)">
    <path d="M80.15 63.8 L-83.5 63.8 -83.5 -64.0 80.15 -64.0 80.15 63.8" fill="#434343" fill-rule="evenodd" stroke="none"/>
    <path d="M76.75 -60.25 L76.75 60.05 -78.15 60.05 -78.15 -60.25 76.75 -60.25" fill="#969696" fill-rule="evenodd" stroke="none"/>
    <path d="M-23.4 -41.5 L-23.4 -49.25 -34.0 -49.25 -34.0 -60.25 76.75 -60.25 76.75 -7.1 49.0 -7.1 49.0 -49.25 35.5 -49.25 35.5 -41.5 -23.4 -41.5" fill="#707070" fill-rule="evenodd" stroke="none"/>
    <path d="M76.75 32.1 L62.75 32.1 62.75 7.85 76.75 7.85 76.75 32.1" fill="#707070" fill-rule="evenodd" stroke="none"/>
    <path d="M21.1 47.85 L21.1 60.05 -35.15 60.05 -35.15 8.85 -13.0 8.85 -13.0 47.85 21.1 47.85" fill="#707070" fill-rule="evenodd" stroke="none"/>
    <path d="M-78.15 60.05 L-78.15 11.6 -65.9 11.6 -65.9 60.05 -78.15 60.05" fill="#707070" fill-rule="evenodd" stroke="none"/>
    <path d="M-65.35 -13.75 L-65.9 -13.75 -66.0 14.65 -78.15 17.2 -78.1 -27.25 -65.35 -27.25 -65.35 -13.75" fill="#707070" fill-rule="evenodd" stroke="none"/>
    <path d="M-41.0 -60.25 L-69.25 -60.25 -69.25 -64.75 -41.0 -64.75 -41.0 -60.25" fill="#ffffff" fill-rule="evenodd" stroke="none"/>
    <path d="M63.6 64.3 L35.35 64.3 35.35 60.05 63.6 60.05 63.6 64.3" fill="#ffffff" fill-rule="evenodd" stroke="none"/>
  </g>
</svg>
