<?xml version="1.0" encoding="UTF-8" standalone="no"?>
<svg xmlns:ffdec="https://www.free-decompiler.com/flash" xmlns:xlink="http://www.w3.org/1999/xlink" ffdec:objectType="shape" height="565.0px" width="2280.5px" xmlns="http://www.w3.org/2000/svg">
  <g transform="matrix(1.0, 0.0, 0.0, 1.0, 1341.4, 338.4)">
    <path d="M660.1 -185.9 L672.6 -183.4 672.6 -181.4 685.6 -178.4 685.6 -180.4 Q692.1 -178.9 698.6 -177.9 698.6 -176.9 698.1 -175.9 733.6 -167.9 769.1 -160.4 769.6 -161.4 769.6 -162.9 L939.1 -126.9 Q917.6 -23.4 895.6 79.6 L726.6 43.6 Q716.6 96.1 706.1 148.6 L687.6 145.1 Q684.1 162.1 680.1 178.6 L555.1 152.1 Q547.1 189.6 538.6 226.6 L62.6 125.6 62.6 125.1 64.6 116.1 -208.4 116.1 -208.4 141.6 -720.4 141.6 Q-720.4 145.1 -720.9 148.1 L-861.9 148.1 -861.9 141.6 -958.4 141.6 -958.4 35.1 -1186.9 35.1 -1186.9 98.1 -1341.4 98.1 -1341.4 -297.9 -933.9 -297.9 -933.9 -218.4 -870.4 -218.4 -870.4 -297.9 -725.4 -297.9 -725.4 -94.4 -649.9 -94.4 -649.9 -217.9 -509.4 -217.9 -509.4 -242.9 -472.4 -242.9 -472.4 -244.9 -408.4 -244.9 -408.4 -217.9 -359.9 -217.9 -359.9 -149.9 -203.4 -149.9 -203.4 -144.9 -173.4 -144.9 -173.4 -93.4 37.6 -93.4 Q39.1 -98.4 40.1 -103.4 L-11.4 -114.4 25.6 -284.9 Q23.1 -286.4 20.1 -288.4 25.6 -313.4 30.6 -338.4 60.1 -337.4 89.1 -336.9 L87.1 -326.9 Q242.6 -295.4 397.6 -264.4 L394.6 -251.4 397.6 -250.9 Q400.1 -261.4 402.1 -272.4 415.1 -269.4 427.6 -266.9 425.6 -255.9 423.1 -245.4 483.1 -232.4 543.1 -219.9 L568.6 -190.4 Q589.1 -197.9 609.1 -205.9 L628.6 -201.9 626.6 -191.4 Q643.1 -187.4 659.6 -183.9 660.1 -184.9 660.1 -185.9" fill="#424242" fill-rule="evenodd" stroke="none"/>
    <path d="M540.1 -207.4 L543.1 -219.9 609.1 -205.9 606.1 -193.4 Q609.6 -192.4 613.1 -191.9 610.1 -177.4 606.6 -162.9 603.6 -163.4 600.1 -164.4 597.6 -151.4 594.6 -138.9 L501.1 -158.9 499.1 -149.4 Q500.6 -148.9 502.1 -148.9 L498.1 -128.4 Q499.1 -127.9 499.6 -127.9 502.1 -137.9 504.1 -148.4 521.6 -144.4 539.1 -140.9 533.6 -113.4 527.6 -86.4 510.1 -89.9 492.6 -93.9 495.1 -103.9 497.1 -114.4 L495.1 -114.4 Q493.1 -103.9 490.6 -93.9 L487.6 -94.9 486.6 -90.9 580.1 -70.9 556.1 42.1 560.1 43.1 552.1 80.6 548.1 79.6 531.1 161.1 438.6 141.1 Q435.1 159.1 431.1 177.1 L445.1 180.1 Q443.1 191.6 440.6 202.6 L318.1 176.6 323.1 154.1 390.1 168.6 397.1 134.6 315.1 117.1 Q328.6 54.1 341.6 -8.9 370.6 -2.4 399.6 3.6 L402.6 -11.4 291.6 -35.4 Q282.1 10.6 272.1 56.1 L274.1 56.1 269.1 79.6 Q268.1 79.6 267.1 79.1 L259.1 117.1 172.1 98.6 178.1 69.6 145.6 62.6 145.6 63.1 Q141.6 82.6 137.1 101.6 L93.6 92.6 98.6 68.6 71.6 62.6 68.6 89.1 23.6 89.1 23.6 45.1 25.6 45.1 25.6 18.6 37.1 18.6 37.1 14.6 -1.4 14.6 -1.4 42.6 -99.9 42.6 -99.9 44.1 -101.4 44.1 -101.4 47.6 -99.9 47.6 -99.9 67.6 -98.9 67.6 -98.9 80.1 -99.9 80.1 -99.9 100.6 -110.9 100.6 -110.9 101.1 -148.4 101.1 -148.4 100.6 -158.9 100.6 -158.9 101.1 -196.4 101.1 -196.4 100.6 -206.4 100.6 -206.4 86.6 -214.9 86.6 -214.9 118.6 -260.9 118.6 -260.9 121.1 -302.4 121.1 -302.4 118.6 -303.9 118.6 -303.9 116.1 -311.4 116.1 -311.4 118.6 -399.4 118.6 -399.4 116.6 -406.9 116.6 -406.9 118.6 -408.9 118.6 -408.9 121.1 -450.9 121.1 -450.9 118.6 -452.4 118.6 -452.4 116.6 -459.9 116.6 -459.9 118.6 -542.9 118.6 -542.9 116.6 -550.4 116.1 -550.4 118.6 -552.4 118.6 -552.4 121.1 -594.4 121.1 -594.4 118.6 -596.9 118.6 -596.9 116.1 -604.4 116.1 -604.4 118.6 -657.4 118.6 -657.4 116.1 -664.9 116.1 -664.9 118.6 -665.9 118.6 -665.9 121.1 -707.4 121.1 -707.4 38.6 -708.9 36.1 -732.4 36.1 -732.4 44.6 -734.9 44.6 -734.9 57.1 -732.4 57.1 -732.4 148.1 -855.9 148.1 -855.9 123.1 -947.4 123.1 -947.4 26.1 -994.9 26.1 -994.9 -210.9 Q-925.4 -210.9 -855.9 -211.4 L-855.9 -228.4 -870.4 -228.4 -870.4 -252.9 -855.9 -252.9 -855.9 -290.4 -825.4 -290.4 -825.4 -294.9 -762.9 -294.9 -762.9 -290.9 -732.4 -290.9 -732.4 -4.4 -708.9 -4.4 Q-707.9 -4.9 -707.4 -5.9 L-707.4 -31.4 -665.9 -31.4 -665.9 55.6 -663.4 58.1 -604.4 58.1 -604.4 60.1 -596.9 60.1 -596.9 58.1 -594.4 58.1 -594.4 54.6 -552.4 54.6 -552.4 58.1 -550.4 58.1 -550.4 60.1 -542.9 60.1 -542.9 58.1 -460.4 58.1 -460.4 60.1 -452.4 60.1 -452.4 58.1 -450.4 58.1 -450.4 54.6 -408.9 54.6 -408.9 58.1 -406.9 58.1 -406.9 60.1 -399.4 60.1 -399.4 58.1 -311.4 58.1 -311.4 60.1 -303.9 60.1 -303.9 58.1 -291.9 58.1 -291.9 54.6 -265.9 54.6 -265.9 58.1 -206.4 58.1 -206.4 47.6 -129.9 47.6 -129.9 44.1 -206.4 44.1 -206.4 14.6 -210.4 14.6 -210.4 -19.4 -206.4 -19.4 -206.4 -23.4 -227.4 -23.4 -227.4 -75.9 -146.4 -75.9 -146.4 -85.9 -145.4 -85.9 -145.4 -87.4 -101.4 -87.4 -101.4 -85.9 -99.9 -85.9 -99.9 -75.9 -87.4 -75.9 -87.4 -87.9 -70.9 -87.9 -70.9 -88.9 -58.4 -88.9 -58.4 -87.9 -51.9 -87.9 -51.9 -90.4 4.1 -90.4 4.1 -87.4 77.1 -87.4 77.1 18.6 90.6 21.6 110.6 14.6 160.1 25.6 Q181.6 -73.4 202.6 -172.4 215.6 -169.4 228.6 -166.9 L249.6 -265.4 282.1 -258.4 Q269.1 -195.9 255.6 -133.9 L303.1 -123.9 Q303.6 -124.9 303.6 -125.9 L316.6 -122.9 Q316.6 -121.9 316.1 -120.9 319.6 -119.9 323.1 -119.4 318.1 -94.4 312.6 -69.9 L351.1 -61.9 Q351.6 -62.4 351.6 -63.4 L378.6 -57.4 378.6 -55.9 Q394.6 -52.4 410.6 -49.4 412.1 -54.4 413.1 -59.9 421.6 -57.9 429.6 -56.4 434.6 -78.4 439.1 -100.9 L446.6 -99.4 447.6 -103.4 445.6 -103.4 Q446.1 -104.4 446.1 -105.4 L443.6 -105.9 443.6 -103.9 Q433.1 -105.9 422.6 -108.4 L434.6 -162.9 455.1 -158.9 Q455.1 -157.4 454.6 -155.9 455.6 -155.4 456.6 -155.4 457.1 -156.9 457.1 -158.4 458.1 -157.9 459.1 -157.9 463.1 -175.4 466.6 -192.9 487.1 -188.4 507.1 -184.4 L513.1 -213.4 540.1 -207.4" fill="#959595" fill-rule="evenodd" stroke="none"/>
    <path d="M-736.9 -194.4 L-736.9 -25.4 -762.4 -25.4 -762.4 -194.4 -736.9 -194.4" fill="#6f6f6f" fill-rule="evenodd" stroke="none"/>
    <path d="M-796.4 -194.4 L-796.4 -25.4 -821.4 -25.4 -821.4 -194.4 -796.4 -194.4" fill="#6f6f6f" fill-rule="evenodd" stroke="none"/>
    <path d="M-855.9 -194.4 L-855.9 -25.4 -880.9 -25.4 -880.9 -194.4 -855.9 -194.4" fill="#6f6f6f" fill-rule="evenodd" stroke="none"/>
    <path d="M-910.4 -194.4 L-910.4 -25.4 -935.9 -25.4 -935.9 -194.4 -910.4 -194.4" fill="#6f6f6f" fill-rule="evenodd" stroke="none"/>
    <path d="M-992.9 -118.4 L-992.9 -135.4 -975.9 -135.4 -975.9 -118.4 -992.9 -118.4" fill="#6f6f6f" fill-rule="evenodd" stroke="none"/>
    <path d="M-985.4 -166.9 L-985.4 -139.9 -994.9 -139.9 -994.9 -166.9 -985.4 -166.9" fill="#6f6f6f" fill-rule="evenodd" stroke="none"/>
    <path d="M-985.4 -195.9 L-985.4 -168.4 -994.9 -168.4 -994.9 -195.9 -985.4 -195.9" fill="#6f6f6f" fill-rule="evenodd" stroke="none"/>
    <path d="M-789.9 57.1 L-789.9 39.6 -772.9 39.6 -772.9 57.1 -789.9 57.1" fill="#6f6f6f" fill-rule="evenodd" stroke="none"/>
    <path d="M-771.4 57.1 L-771.4 39.1 -754.4 39.1 -754.4 57.1 -771.4 57.1" fill="#6f6f6f" fill-rule="evenodd" stroke="none"/>
    <path d="M-734.9 39.6 L-734.9 57.1 -751.9 57.1 -751.9 39.6 -734.9 39.6" fill="#6f6f6f" fill-rule="evenodd" stroke="none"/>
    <path d="M-698.9 118.1 L-698.9 103.6 -683.9 103.6 -683.9 118.1 -698.9 118.1" fill="#6f6f6f" fill-rule="evenodd" stroke="none"/>
    <path d="M-518.4 61.6 L-518.4 78.6 -535.9 78.6 -535.9 61.6 -518.4 61.6" fill="#6f6f6f" fill-rule="evenodd" stroke="none"/>
    <path d="M-515.9 77.1 L-515.9 60.1 -498.4 60.1 -498.4 77.1 -515.9 77.1" fill="#6f6f6f" fill-rule="evenodd" stroke="none"/>
    <path d="M-431.9 56.6 L-431.9 73.6 -449.4 73.6 -449.4 56.6 -431.9 56.6" fill="#6f6f6f" fill-rule="evenodd" stroke="none"/>
    <path d="M-436.4 117.1 L-436.4 100.1 -418.9 100.1 -418.9 117.1 -436.4 117.1" fill="#6f6f6f" fill-rule="evenodd" stroke="none"/>
    <path d="M-399.4 116.6 L-399.4 99.6 -381.4 99.6 -381.4 116.6 -399.4 116.6" fill="#6f6f6f" fill-rule="evenodd" stroke="none"/>
    <path d="M-240.9 117.6 L-240.9 102.6 -225.4 102.6 -225.4 117.6 -240.9 117.6" fill="#6f6f6f" fill-rule="evenodd" stroke="none"/>
    <path d="M-195.4 37.1 L-195.4 19.1 -178.9 19.1 -178.9 37.1 -195.4 37.1" fill="#6f6f6f" fill-rule="evenodd" stroke="none"/>
    <path d="M-147.4 32.1 L-172.9 36.6 Q-173.9 30.1 -175.4 23.1 L-149.4 19.1 -147.4 32.1" fill="#6f6f6f" fill-rule="evenodd" stroke="none"/>
    <path d="M-182.9 -21.4 L-157.4 -28.4 Q-155.4 -21.9 -153.9 -15.4 L-178.9 -8.4 -182.9 -21.4" fill="#6f6f6f" fill-rule="evenodd" stroke="none"/>
    <path d="M-111.9 100.1 L-111.9 90.1 -101.9 90.1 -101.9 100.1 -111.9 100.1" fill="#6f6f6f" fill-rule="evenodd" stroke="none"/>
    <path d="M-130.4 100.1 L-130.4 96.1 -125.4 96.1 -125.4 100.1 -130.4 100.1" fill="#6f6f6f" fill-rule="evenodd" stroke="none"/>
    <path d="M-222.4 117.6 L-222.4 113.1 -215.4 113.1 -215.4 117.6 -222.4 117.6" fill="#6f6f6f" fill-rule="evenodd" stroke="none"/>
    <path d="M-197.4 100.1 L-197.4 96.6 -165.4 96.6 -165.4 100.1 -197.4 100.1" fill="#6f6f6f" fill-rule="evenodd" stroke="none"/>
    <path d="M-163.9 100.1 L-163.9 96.6 -131.4 96.6 -131.4 100.1 -163.9 100.1" fill="#6f6f6f" fill-rule="evenodd" stroke="none"/>
    <path d="M-196.9 51.6 L-196.9 48.1 -164.9 48.1 -164.9 51.6 -196.9 51.6" fill="#6f6f6f" fill-rule="evenodd" stroke="none"/>
    <path d="M-165.9 56.6 L-165.9 60.1 -196.4 60.1 -196.4 56.6 -165.9 56.6" fill="#6f6f6f" fill-rule="evenodd" stroke="none"/>
    <path d="M-196.4 88.6 L-196.4 85.1 -165.9 85.1 -165.9 88.6 -196.4 88.6" fill="#6f6f6f" fill-rule="evenodd" stroke="none"/>
    <path d="M-132.9 56.6 L-132.9 60.1 -163.4 60.1 -163.4 56.6 -132.9 56.6" fill="#6f6f6f" fill-rule="evenodd" stroke="none"/>
    <path d="M-163.4 88.6 L-163.4 85.1 -132.9 85.1 -132.9 88.6 -163.4 88.6" fill="#6f6f6f" fill-rule="evenodd" stroke="none"/>
    <path d="M-132.4 48.1 L-132.4 51.6 -164.4 51.6 -164.4 48.1 -132.4 48.1" fill="#6f6f6f" fill-rule="evenodd" stroke="none"/>
    <path d="M-362.4 75.1 Q-361.4 67.1 -360.9 58.6 L-343.4 60.6 -345.4 77.6 -362.4 75.1" fill="#6f6f6f" fill-rule="evenodd" stroke="none"/>
    <path d="M-332.4 116.6 L-332.4 107.6 -313.4 107.6 -313.4 116.6 -332.4 116.6" fill="#6f6f6f" fill-rule="evenodd" stroke="none"/>
    <path d="M-257.9 118.1 L-257.9 113.1 -243.4 113.1 -243.4 118.1 -257.9 118.1" fill="#6f6f6f" fill-rule="evenodd" stroke="none"/>
    <path d="M-384.4 67.6 L-384.4 59.1 -365.4 59.1 -365.4 67.6 -384.4 67.6" fill="#6f6f6f" fill-rule="evenodd" stroke="none"/>
    <path d="M-556.9 115.6 L-556.9 106.1 -537.9 106.1 -537.9 115.6 -556.9 115.6" fill="#6f6f6f" fill-rule="evenodd" stroke="none"/>
    <path d="M-536.4 117.6 L-536.4 108.1 -517.4 108.1 -517.4 117.6 -536.4 117.6" fill="#6f6f6f" fill-rule="evenodd" stroke="none"/>
    <path d="M-818.4 76.1 L-818.4 59.1 -801.4 59.1 -801.4 76.1 -818.4 76.1" fill="#6f6f6f" fill-rule="evenodd" stroke="none"/>
    <path d="M-756.4 -22.9 L-739.4 -21.4 Q-739.9 -12.4 -740.9 -3.9 L-757.9 -5.4 Q-756.9 -13.9 -756.4 -22.9" fill="#6f6f6f" fill-rule="evenodd" stroke="none"/>
    <path d="M-739.4 -206.9 Q-739.4 -202.4 -739.9 -197.9 L-759.9 -199.4 -758.9 -208.4 -739.4 -206.9" fill="#6f6f6f" fill-rule="evenodd" stroke="none"/>
    <path d="M-736.9 -230.9 L-734.9 -211.9 -744.9 -210.9 Q-745.4 -220.4 -746.4 -229.9 L-736.9 -230.9" fill="#6f6f6f" fill-rule="evenodd" stroke="none"/>
    <path d="M-737.4 -22.9 L-732.4 -22.9 -732.4 -5.9 -737.4 -5.9 -737.4 -22.9" fill="#6f6f6f" fill-rule="evenodd" stroke="none"/>
    <path d="M-707.4 101.1 L-707.4 80.6 -702.9 80.6 -702.9 101.1 -707.4 101.1" fill="#6f6f6f" fill-rule="evenodd" stroke="none"/>
    <path d="M-707.4 117.6 L-707.4 102.6 -702.9 102.6 -702.9 117.6 -707.4 117.6" fill="#6f6f6f" fill-rule="evenodd" stroke="none"/>
    <path d="M-707.4 79.6 L-707.4 69.6 -702.9 69.6 -702.9 79.6 -707.4 79.6" fill="#6f6f6f" fill-rule="evenodd" stroke="none"/>
    <path d="M-707.4 68.1 L-707.4 58.6 -702.9 58.6 -702.9 68.1 -707.4 68.1" fill="#6f6f6f" fill-rule="evenodd" stroke="none"/>
    <path d="M-736.4 109.6 L-736.4 100.1 -732.4 100.1 -732.4 109.6 -736.4 109.6" fill="#6f6f6f" fill-rule="evenodd" stroke="none"/>
    <path d="M-736.4 121.1 L-736.4 111.1 -732.4 111.1 -732.4 121.1 -736.4 121.1" fill="#6f6f6f" fill-rule="evenodd" stroke="none"/>
    <path d="M-880.9 120.1 L-880.9 103.1 -863.9 103.1 -863.9 120.1 -880.9 120.1" fill="#6f6f6f" fill-rule="evenodd" stroke="none"/>
    <path d="M-900.9 120.6 L-900.9 103.6 -883.9 103.6 -883.9 120.6 -900.9 120.6" fill="#6f6f6f" fill-rule="evenodd" stroke="none"/>
    <path d="M-875.4 48.1 L-875.4 65.1 -892.4 65.1 -892.4 48.1 -875.4 48.1" fill="#6f6f6f" fill-rule="evenodd" stroke="none"/>
    <path d="M-938.4 95.6 L-938.4 78.6 -921.4 78.6 -921.4 95.6 -938.4 95.6" fill="#6f6f6f" fill-rule="evenodd" stroke="none"/>
    <path d="M-941.4 120.1 L-941.4 103.1 -924.4 103.1 -924.4 120.1 -941.4 120.1" fill="#6f6f6f" fill-rule="evenodd" stroke="none"/>
    <path d="M-913.9 120.1 Q-912.9 110.1 -912.4 100.1 L-902.9 101.1 -904.9 120.6 -913.9 120.1" fill="#6f6f6f" fill-rule="evenodd" stroke="none"/>
    <path d="M-937.4 73.1 L-937.4 56.1 -920.4 56.1 -920.4 73.1 -937.4 73.1" fill="#6f6f6f" fill-rule="evenodd" stroke="none"/>
    <path d="M-939.9 45.1 L-939.9 72.6 -947.4 72.6 -947.4 45.1 -939.9 45.1" fill="#6f6f6f" fill-rule="evenodd" stroke="none"/>
    <path d="M-939.9 74.1 L-939.9 101.6 -947.4 101.6 -947.4 74.1 -939.9 74.1" fill="#6f6f6f" fill-rule="evenodd" stroke="none"/>
    <path d="M-992.9 -99.9 L-992.9 -116.9 -975.9 -116.9 -975.9 -99.9 -992.9 -99.9" fill="#6f6f6f" fill-rule="evenodd" stroke="none"/>
    <path d="M-992.4 -74.9 L-992.4 -91.9 -975.4 -91.9 -975.4 -74.9 -992.4 -74.9" fill="#6f6f6f" fill-rule="evenodd" stroke="none"/>
    <path d="M-992.4 -55.4 L-992.4 -72.4 -975.4 -72.4 -975.4 -55.4 -992.4 -55.4" fill="#6f6f6f" fill-rule="evenodd" stroke="none"/>
    <path d="M-987.9 26.1 L-987.9 16.6 -968.4 16.6 -968.4 26.1 -987.9 26.1" fill="#6f6f6f" fill-rule="evenodd" stroke="none"/>
    <path d="M-994.9 -15.9 L-989.4 -15.9 -989.4 2.1 -994.9 2.1 -994.9 -15.9" fill="#6f6f6f" fill-rule="evenodd" stroke="none"/>
    <path d="M-994.9 20.6 L-994.9 2.6 -989.4 2.6 -989.4 20.6 -994.9 20.6" fill="#6f6f6f" fill-rule="evenodd" stroke="none"/>
    <path d="M-986.4 -44.4 L-986.4 -17.9 -994.9 -17.9 -994.9 -44.4 -986.4 -44.4" fill="#6f6f6f" fill-rule="evenodd" stroke="none"/>
    <path d="M-985.9 -27.9 L-967.4 -29.4 Q-966.4 -20.4 -965.9 -11.4 L-973.4 -10.9 -968.4 -10.9 -968.4 7.6 -985.9 7.6 -985.9 -10.9 -984.9 -10.9 -985.9 -27.9" fill="#6f6f6f" fill-rule="evenodd" stroke="none"/>
    <path d="M-741.4 -232.4 L-741.4 -259.9 -732.4 -259.9 -732.4 -232.4 -741.4 -232.4" fill="#6f6f6f" fill-rule="evenodd" stroke="none"/>
    <path d="M-741.4 -261.9 L-741.4 -289.4 -732.4 -289.4 -732.4 -261.9 -741.4 -261.9" fill="#6f6f6f" fill-rule="evenodd" stroke="none"/>
    <path d="M-854.9 -282.9 L-854.9 -290.4 Q-840.9 -290.4 -827.4 -290.9 L-827.4 -282.9 -854.9 -282.9" fill="#6f6f6f" fill-rule="evenodd" stroke="none"/>
    <path d="M-855.9 -257.4 Q-854.4 -266.4 -853.4 -275.9 L-844.9 -274.9 -846.9 -256.4 -855.9 -257.4" fill="#6f6f6f" fill-rule="evenodd" stroke="none"/>
    <path d="M-795.9 -23.9 L-794.9 -23.9 Q-794.4 -23.4 -794.4 -22.9 -794.4 -22.4 -794.9 -21.9 L-795.9 -21.9 -796.9 -22.9 -795.9 -23.9" fill="#6f6f6f" fill-rule="evenodd" stroke="none"/>
    <path d="M-814.4 36.1 Q-813.9 35.6 -813.9 35.1 L-812.9 35.1 -811.9 36.1 -812.9 37.1 -813.9 37.1 Q-813.9 36.6 -814.4 36.1" fill="#6f6f6f" fill-rule="evenodd" stroke="none"/>
    <path d="M-941.9 37.1 L-942.9 37.1 Q-942.9 36.6 -943.4 36.1 -942.9 35.6 -942.9 35.1 L-941.9 35.1 -940.9 36.1 -941.9 37.1" fill="#6f6f6f" fill-rule="evenodd" stroke="none"/>
    <path d="M-935.9 -21.9 L-937.4 -21.9 Q-937.4 -22.4 -937.9 -22.9 -937.4 -23.4 -937.4 -23.9 L-935.9 -23.9 Q-935.4 -23.4 -935.4 -22.9 -935.4 -22.4 -935.9 -21.9" fill="#6f6f6f" fill-rule="evenodd" stroke="none"/>
    <path d="M-911.4 -22.9 Q-910.9 -23.4 -910.9 -23.9 L-909.9 -23.9 -908.9 -22.9 -909.9 -21.9 -910.9 -21.9 Q-910.9 -22.4 -911.4 -22.9" fill="#6f6f6f" fill-rule="evenodd" stroke="none"/>
    <path d="M-881.4 -21.9 L-882.9 -21.9 Q-882.9 -22.4 -883.4 -22.9 -882.9 -23.4 -882.9 -23.9 L-881.4 -23.9 Q-880.9 -23.4 -880.9 -22.9 -880.9 -22.4 -881.4 -21.9" fill="#6f6f6f" fill-rule="evenodd" stroke="none"/>
    <path d="M-855.9 -23.9 L-854.9 -23.9 -853.9 -22.9 -854.9 -21.9 -855.9 -21.9 Q-855.9 -22.4 -856.4 -22.9 -855.9 -23.4 -855.9 -23.9" fill="#6f6f6f" fill-rule="evenodd" stroke="none"/>
    <path d="M-762.4 -21.9 L-763.4 -21.9 -764.4 -22.9 -763.4 -23.9 -762.4 -23.9 Q-761.9 -23.4 -761.9 -22.9 -761.9 -22.4 -762.4 -21.9" fill="#6f6f6f" fill-rule="evenodd" stroke="none"/>
    <path d="M-737.4 35.1 L-735.9 35.1 Q-735.4 35.6 -735.4 36.1 -735.4 36.6 -735.9 37.1 L-737.4 37.1 Q-737.4 36.6 -737.9 36.1 -737.4 35.6 -737.4 35.1" fill="#6f6f6f" fill-rule="evenodd" stroke="none"/>
    <path d="M-595.9 60.1 L-594.9 60.1 Q-594.4 61.1 -594.4 61.6 -594.4 62.1 -594.9 62.6 L-595.9 62.6 Q-595.9 62.1 -596.4 61.6 -595.9 61.1 -595.9 60.1" fill="#6f6f6f" fill-rule="evenodd" stroke="none"/>
    <path d="M-550.4 62.6 L-551.9 62.6 Q-551.9 62.1 -552.4 61.6 -551.9 61.1 -551.9 60.1 L-550.9 60.1 -549.9 61.6 Q-549.9 62.1 -550.4 62.6" fill="#6f6f6f" fill-rule="evenodd" stroke="none"/>
    <path d="M-451.9 60.1 L-450.9 60.1 Q-450.4 60.6 -450.4 61.1 -450.4 61.6 -450.9 62.1 L-451.9 62.1 -452.9 61.1 -451.9 60.1" fill="#6f6f6f" fill-rule="evenodd" stroke="none"/>
    <path d="M-408.9 60.1 L-407.4 60.1 Q-406.9 60.6 -406.9 61.1 -406.9 61.6 -407.4 62.1 L-408.9 62.1 Q-408.9 61.6 -409.4 61.1 -408.9 60.6 -408.9 60.1" fill="#6f6f6f" fill-rule="evenodd" stroke="none"/>
    <path d="M-745.9 98.1 L-744.9 98.1 -743.9 99.1 -744.9 100.1 -745.9 100.1 Q-745.9 99.6 -746.4 99.1 -745.9 98.6 -745.9 98.1" fill="#6f6f6f" fill-rule="evenodd" stroke="none"/>
    <path d="M-745.9 108.6 L-744.9 108.6 -743.9 109.6 -744.9 111.1 -745.9 111.1 Q-745.9 110.6 -746.4 109.6 -745.9 109.1 -745.9 108.6" fill="#6f6f6f" fill-rule="evenodd" stroke="none"/>
    <path d="M-745.9 121.1 L-744.9 121.1 -743.9 122.1 -744.9 123.1 -745.9 123.1 Q-745.9 122.6 -746.4 122.1 -745.9 121.6 -745.9 121.1" fill="#6f6f6f" fill-rule="evenodd" stroke="none"/>
    <path d="M-852.4 120.1 L-850.9 120.1 Q-850.4 120.6 -850.4 121.1 -850.4 121.6 -850.9 122.1 L-852.4 122.1 Q-852.4 121.6 -852.9 121.1 -852.4 120.6 -852.4 120.1" fill="#6f6f6f" fill-rule="evenodd" stroke="none"/>
    <path d="M-852.4 142.1 L-851.4 142.1 -850.4 143.1 -851.4 144.1 -852.4 144.1 Q-852.4 143.6 -852.9 143.1 -852.4 142.6 -852.4 142.1" fill="#6f6f6f" fill-rule="evenodd" stroke="none"/>
    <path d="M-737.4 142.1 L-735.9 142.1 Q-735.4 142.6 -735.4 143.1 -735.4 143.6 -735.9 144.1 L-737.4 144.1 Q-737.4 143.6 -737.9 143.1 -737.4 142.6 -737.4 142.1" fill="#6f6f6f" fill-rule="evenodd" stroke="none"/>
    <path d="M-735.9 -4.9 Q-735.4 -4.4 -735.4 -3.9 -735.4 -3.4 -735.9 -2.9 L-737.4 -2.9 Q-737.4 -3.4 -737.9 -3.9 -737.4 -4.4 -737.4 -4.9 L-735.9 -4.9" fill="#6f6f6f" fill-rule="evenodd" stroke="none"/>
    <path d="M-822.9 -23.9 L-821.9 -23.9 Q-821.4 -23.4 -821.4 -22.9 -821.4 -22.4 -821.9 -21.9 L-822.9 -21.9 -823.9 -22.9 -822.9 -23.9" fill="#6f6f6f" fill-rule="evenodd" stroke="none"/>
    <path d="M-115.9 89.6 L-113.9 91.6 Q-113.4 93.1 -113.4 94.6 -113.4 96.1 -113.9 97.6 L-116.4 99.6 Q-117.4 100.1 -118.9 100.1 L-121.9 99.1 -123.9 97.1 Q-123.9 95.6 -124.4 94.1 -123.9 93.1 -123.9 91.6 L-121.4 89.6 -118.9 88.6 -115.9 89.6" fill="#6f6f6f" fill-rule="evenodd" stroke="none"/>
    <path d="M-206.4 44.1 L-206.4 40.6 -187.9 40.6 -187.9 44.1 -206.4 44.1" fill="#6f6f6f" fill-rule="evenodd" stroke="none"/>
    <path d="M31.1 47.1 L31.1 29.6 49.1 29.6 49.1 47.1 31.1 47.1" fill="#6f6f6f" fill-rule="evenodd" stroke="none"/>
    <path d="M50.1 87.1 L50.1 69.6 68.1 69.6 68.1 87.1 50.1 87.1" fill="#6f6f6f" fill-rule="evenodd" stroke="none"/>
    <path d="M99.6 73.1 L117.1 76.6 Q115.6 85.6 113.6 94.6 L96.1 91.1 Q98.1 82.1 99.6 73.1" fill="#6f6f6f" fill-rule="evenodd" stroke="none"/>
    <path d="M137.1 81.1 Q135.6 90.1 133.6 98.6 L116.1 95.1 Q118.1 86.6 119.6 77.6 L137.1 81.1" fill="#6f6f6f" fill-rule="evenodd" stroke="none"/>
    <path d="M187.1 11.6 Q184.6 20.1 181.6 28.6 L164.6 23.6 169.6 6.1 187.1 11.6" fill="#6f6f6f" fill-rule="evenodd" stroke="none"/>
    <path d="M172.1 -16.9 Q171.6 -16.9 171.1 -17.4 172.6 -23.9 173.6 -30.4 L179.1 -29.4 Q178.1 -22.4 176.6 -15.9 176.1 -15.9 175.1 -16.4 175.1 -15.4 174.6 -14.4 L175.6 -14.4 175.6 -7.9 170.1 -7.9 170.1 -14.4 172.1 -14.4 172.1 -16.9" fill="#6f6f6f" fill-rule="evenodd" stroke="none"/>
    <path d="M176.1 97.6 Q178.1 84.6 179.6 71.6 L193.1 73.6 Q191.6 86.6 189.6 99.6 L176.1 97.6" fill="#6f6f6f" fill-rule="evenodd" stroke="none"/>
    <path d="M196.6 72.6 L210.6 71.6 Q211.6 85.1 212.1 98.1 L198.6 98.6 196.6 72.6" fill="#6f6f6f" fill-rule="evenodd" stroke="none"/>
    <path d="M206.1 18.1 L218.1 21.1 Q216.1 30.1 213.6 38.6 L201.6 35.1 Q204.1 26.6 206.1 18.1" fill="#6f6f6f" fill-rule="evenodd" stroke="none"/>
    <path d="M252.1 -19.4 L266.1 -16.4 Q263.6 -3.4 260.6 9.6 L246.6 6.6 Q249.6 -6.4 252.1 -19.4" fill="#6f6f6f" fill-rule="evenodd" stroke="none"/>
    <path d="M204.6 -55.9 L217.6 -53.9 213.6 -27.9 200.6 -29.4 204.6 -55.9" fill="#6f6f6f" fill-rule="evenodd" stroke="none"/>
    <path d="M243.6 -98.9 L237.6 -73.9 224.6 -76.9 230.6 -101.9 243.6 -98.9" fill="#6f6f6f" fill-rule="evenodd" stroke="none"/>
    <path d="M225.1 28.1 Q226.1 23.6 226.6 18.6 L243.1 22.1 241.1 31.1 225.1 28.1" fill="#6f6f6f" fill-rule="evenodd" stroke="none"/>
    <path d="M213.6 17.1 L205.1 15.1 210.1 -8.9 218.6 -7.4 213.6 17.1" fill="#6f6f6f" fill-rule="evenodd" stroke="none"/>
    <path d="M252.1 -40.9 L253.1 -48.9 266.6 -46.9 Q265.1 -33.9 263.1 -20.9 L249.6 -22.9 Q250.1 -24.9 250.1 -26.9 L215.6 -33.9 218.6 -47.4 252.1 -40.9" fill="#6f6f6f" fill-rule="evenodd" stroke="none"/>
    <path d="M186.6 -49.4 Q185.1 -41.4 183.1 -33.4 L174.1 -34.9 Q176.1 -42.9 177.6 -51.4 L186.6 -49.4" fill="#6f6f6f" fill-rule="evenodd" stroke="none"/>
    <path d="M190.6 -69.4 L187.6 -53.4 178.6 -55.4 181.6 -71.4 190.6 -69.4" fill="#6f6f6f" fill-rule="evenodd" stroke="none"/>
    <path d="M205.1 -135.9 Q203.6 -127.4 201.6 -119.4 L193.1 -121.4 196.1 -137.4 Q200.6 -136.4 205.1 -135.9" fill="#6f6f6f" fill-rule="evenodd" stroke="none"/>
    <path d="M258.1 -133.4 Q266.1 -131.4 274.1 -129.9 273.6 -125.4 272.6 -120.9 L256.1 -123.9 258.1 -133.4" fill="#6f6f6f" fill-rule="evenodd" stroke="none"/>
    <path d="M277.6 -234.9 L272.6 -235.9 274.6 -245.9 279.6 -244.9 277.6 -234.9" fill="#6f6f6f" fill-rule="evenodd" stroke="none"/>
    <path d="M267.6 -195.9 L268.6 -199.4 320.1 -188.4 Q318.1 -177.9 315.6 -167.9 290.1 -172.9 264.1 -178.4 L265.1 -181.9 245.6 -185.9 227.6 -103.9 Q228.6 -103.4 229.6 -103.4 L222.6 -71.9 Q221.6 -71.9 220.6 -72.4 L217.6 -57.9 206.1 -60.4 Q208.1 -67.4 209.6 -74.9 208.6 -74.9 207.6 -75.4 211.1 -90.9 214.1 -106.4 L216.6 -106.4 237.6 -202.4 Q252.6 -198.9 267.6 -195.9" fill="#6f6f6f" fill-rule="evenodd" stroke="none"/>
    <path d="M281.6 -255.4 L279.6 -245.4 274.6 -246.4 276.6 -256.4 281.6 -255.4" fill="#6f6f6f" fill-rule="evenodd" stroke="none"/>
    <path d="M273.6 -260.4 L272.6 -256.4 252.6 -260.4 253.6 -264.4 273.6 -260.4" fill="#6f6f6f" fill-rule="evenodd" stroke="none"/>
    <path d="M273.6 -122.4 Q274.6 -125.9 275.1 -129.9 282.1 -127.9 289.1 -126.4 L288.1 -119.9 273.6 -122.4" fill="#6f6f6f" fill-rule="evenodd" stroke="none"/>
    <path d="M217.1 104.6 L222.1 87.6 Q228.1 89.6 234.1 91.1 L229.1 108.6 217.1 104.6" fill="#6f6f6f" fill-rule="evenodd" stroke="none"/>
    <path d="M256.1 88.1 L252.1 100.1 235.1 94.1 Q237.6 88.1 239.6 82.1 L256.1 88.1" fill="#6f6f6f" fill-rule="evenodd" stroke="none"/>
    <path d="M239.1 112.1 L240.1 100.1 257.6 101.1 256.6 113.6 239.1 112.1" fill="#6f6f6f" fill-rule="evenodd" stroke="none"/>
    <path d="M100.6 60.6 Q100.1 64.6 99.1 68.1 L71.6 62.6 73.6 54.6 100.6 60.6" fill="#6f6f6f" fill-rule="evenodd" stroke="none"/>
    <path d="M44.1 49.6 L44.1 66.6 26.1 66.6 26.1 49.6 44.1 49.6" fill="#6f6f6f" fill-rule="evenodd" stroke="none"/>
    <path d="M30.6 87.6 L30.6 68.6 48.1 68.6 48.1 87.6 30.6 87.6" fill="#6f6f6f" fill-rule="evenodd" stroke="none"/>
    <path d="M151.1 -47.4 L151.1 -27.9 72.6 -27.9 Q72.6 -24.4 72.1 -20.9 L46.1 -23.4 Q46.6 -25.9 46.6 -28.9 L-125.9 -28.9 -125.9 -29.9 -151.9 -29.9 -151.9 -48.9 -197.9 -48.9 -197.9 -47.4 -305.4 -47.4 -305.4 -64.9 -197.9 -64.9 -197.9 -62.9 -125.9 -62.9 -125.9 -45.9 67.1 -45.9 67.1 -47.4 151.1 -47.4" fill="#6f6f6f" fill-rule="evenodd" stroke="none"/>
    <path d="M32.6 -87.4 L32.6 -83.4 22.1 -83.4 22.1 -87.4 32.6 -87.4" fill="#6f6f6f" fill-rule="evenodd" stroke="none"/>
    <path d="M43.6 -87.4 L43.6 -82.9 33.1 -82.9 33.1 -87.4 43.6 -87.4" fill="#6f6f6f" fill-rule="evenodd" stroke="none"/>
    <path d="M70.6 -87.4 L70.6 -83.4 50.1 -83.4 50.1 -87.4 70.6 -87.4" fill="#6f6f6f" fill-rule="evenodd" stroke="none"/>
    <path d="M7.1 -68.4 L6.1 -56.4 -19.4 -58.4 -18.4 -70.4 7.1 -68.4" fill="#6f6f6f" fill-rule="evenodd" stroke="none"/>
    <path d="M-115.4 -25.9 L-115.4 -19.4 -121.9 -19.4 -121.9 -25.9 -115.4 -25.9" fill="#6f6f6f" fill-rule="evenodd" stroke="none"/>
    <path d="M-86.9 -26.4 L-86.9 -19.9 -93.4 -19.9 -93.4 -26.4 -86.9 -26.4" fill="#6f6f6f" fill-rule="evenodd" stroke="none"/>
    <path d="M-57.9 -25.9 L-57.9 -19.4 -64.4 -19.4 -64.4 -25.9 -57.9 -25.9" fill="#6f6f6f" fill-rule="evenodd" stroke="none"/>
    <path d="M-33.9 -25.9 L-27.4 -25.9 -27.4 -19.4 -33.9 -19.4 -33.9 -25.9" fill="#6f6f6f" fill-rule="evenodd" stroke="none"/>
    <path d="M-4.9 -19.4 L-4.9 -25.9 2.1 -25.9 2.1 -19.4 -4.9 -19.4" fill="#6f6f6f" fill-rule="evenodd" stroke="none"/>
    <path d="M4.6 -47.9 L4.6 -54.4 11.1 -54.4 11.1 -47.9 4.6 -47.9" fill="#6f6f6f" fill-rule="evenodd" stroke="none"/>
    <path d="M-18.4 -54.4 L-18.4 -47.9 -24.9 -47.9 -24.9 -54.4 -18.4 -54.4" fill="#6f6f6f" fill-rule="evenodd" stroke="none"/>
    <path d="M-47.4 -54.4 L-47.4 -47.9 -54.4 -47.9 -54.4 -54.4 -47.4 -54.4" fill="#6f6f6f" fill-rule="evenodd" stroke="none"/>
    <path d="M-76.9 -54.4 L-76.9 -47.9 -83.4 -47.9 -83.4 -54.4 -76.9 -54.4" fill="#6f6f6f" fill-rule="evenodd" stroke="none"/>
    <path d="M-106.4 -54.4 L-106.4 -47.9 -112.9 -47.9 -112.9 -54.4 -106.4 -54.4" fill="#6f6f6f" fill-rule="evenodd" stroke="none"/>
    <path d="M-58.9 21.6 L-58.9 12.1 -42.4 12.1 -42.4 21.6 -58.9 21.6" fill="#6f6f6f" fill-rule="evenodd" stroke="none"/>
    <path d="M-11.4 40.1 L-11.4 23.6 -1.9 23.6 -1.9 40.1 -11.4 40.1" fill="#6f6f6f" fill-rule="evenodd" stroke="none"/>
    <path d="M-89.4 42.6 L-89.4 33.1 -72.4 33.1 -72.4 42.6 -89.4 42.6" fill="#6f6f6f" fill-rule="evenodd" stroke="none"/>
    <path d="M-56.4 36.1 L-56.4 38.1 -52.4 38.1 -52.4 40.1 -56.4 40.1 -56.4 41.6 -69.9 41.6 -69.9 36.1 -56.4 36.1" fill="#6f6f6f" fill-rule="evenodd" stroke="none"/>
    <path d="M-26.4 36.1 L-26.4 38.1 -22.4 38.1 -22.4 40.1 -26.4 40.1 -26.4 41.6 -39.9 41.6 -39.9 36.1 -26.4 36.1" fill="#6f6f6f" fill-rule="evenodd" stroke="none"/>
    <path d="M165.1 27.1 L166.6 27.1 167.1 28.1 Q167.1 28.6 166.6 29.1 L165.1 29.1 164.6 28.1 Q165.1 27.6 165.1 27.1" fill="#6f6f6f" fill-rule="evenodd" stroke="none"/>
    <path d="M157.6 62.6 L158.6 62.6 159.6 63.6 158.6 64.6 157.6 64.6 157.1 63.6 Q157.6 63.1 157.6 62.6" fill="#6f6f6f" fill-rule="evenodd" stroke="none"/>
    <path d="M234.6 -24.4 L246.1 -21.9 Q245.1 -15.9 243.6 -9.9 L232.1 -12.4 Q233.6 -18.4 234.6 -24.4" fill="#6f6f6f" fill-rule="evenodd" stroke="none"/>
    <path d="M220.1 -16.9 L222.1 -26.9 Q227.1 -25.4 232.1 -24.4 L230.1 -14.9 220.1 -16.9" fill="#6f6f6f" fill-rule="evenodd" stroke="none"/>
    <path d="M226.6 -47.9 Q226.1 -48.4 225.6 -49.4 L225.6 -51.4 226.6 -52.9 Q227.6 -52.9 228.1 -53.4 L230.1 -53.4 Q231.1 -52.9 231.6 -52.9 L232.1 -51.4 232.1 -49.4 Q232.1 -48.4 231.6 -47.9 L230.1 -46.9 228.1 -46.9 Q227.6 -47.4 226.6 -47.9" fill="#6f6f6f" fill-rule="evenodd" stroke="none"/>
    <path d="M347.6 -61.4 Q347.1 -53.9 346.1 -46.9 L330.1 -48.9 332.1 -63.4 347.6 -61.4" fill="#6f6f6f" fill-rule="evenodd" stroke="none"/>
    <path d="M510.6 -59.4 L513.6 -58.9 Q498.6 13.6 483.1 85.6 L458.6 80.6 Q474.1 8.6 489.1 -63.9 L492.1 -63.4 494.1 -79.4 512.6 -77.4 510.6 -59.4" fill="#6f6f6f" fill-rule="evenodd" stroke="none"/>
    <path d="M552.6 -66.4 Q565.6 -63.4 578.1 -60.9 568.1 -12.9 557.6 34.6 L532.6 29.1 552.6 -66.4" fill="#6f6f6f" fill-rule="evenodd" stroke="none"/>
    <path d="M505.1 155.6 L521.1 80.1 Q534.1 83.1 547.1 85.6 L531.1 161.1 505.1 155.6" fill="#6f6f6f" fill-rule="evenodd" stroke="none"/>
    <path d="M419.1 128.1 Q418.6 131.6 417.6 135.1 L438.6 139.6 Q433.1 167.1 427.1 194.1 L386.6 185.1 Q392.6 158.1 398.1 131.1 L401.1 131.6 Q402.1 128.1 402.6 124.6 L419.1 128.1" fill="#6f6f6f" fill-rule="evenodd" stroke="none"/>
    <path d="M438.6 141.6 Q439.1 139.6 439.1 137.6 451.6 140.6 464.1 143.1 L463.1 147.1 438.6 141.6" fill="#6f6f6f" fill-rule="evenodd" stroke="none"/>
    <path d="M341.6 -8.9 Q371.6 -1.4 401.6 5.6 L396.6 23.6 387.1 21.1 386.1 26.1 362.6 21.1 347.6 92.6 321.1 86.6 Q331.6 39.1 341.6 -8.9" fill="#6f6f6f" fill-rule="evenodd" stroke="none"/>
    <path d="M377.6 31.1 Q385.6 27.6 393.1 23.6 L401.1 40.6 Q393.6 44.6 386.1 48.1 L377.6 31.1" fill="#6f6f6f" fill-rule="evenodd" stroke="none"/>
    <path d="M382.6 47.6 L396.6 60.6 384.6 73.6 370.6 61.1 382.6 47.6" fill="#6f6f6f" fill-rule="evenodd" stroke="none"/>
    <path d="M427.6 46.1 L430.6 43.6 443.1 56.6 442.6 56.6 Q443.1 57.1 443.6 57.1 L440.6 61.1 450.6 66.1 Q448.6 70.1 446.1 74.1 452.6 78.6 459.1 82.6 L450.1 96.6 436.6 88.1 440.6 81.6 435.1 79.1 Q433.1 88.1 430.6 96.6 422.1 94.6 413.6 92.1 416.1 83.1 418.1 73.6 L423.6 75.1 418.1 70.6 413.1 87.6 Q404.6 85.1 396.1 82.1 L402.1 64.1 414.6 68.1 421.6 59.1 418.1 55.6 Q419.1 55.1 419.6 54.1 L400.6 38.6 408.1 29.6 427.6 46.1" fill="#6f6f6f" fill-rule="evenodd" stroke="none"/>
    <path d="M473.6 -2.9 L471.6 11.6 456.1 9.6 Q457.6 2.1 458.6 -5.4 466.1 -3.9 473.6 -2.9" fill="#6f6f6f" fill-rule="evenodd" stroke="none"/>
    <path d="M464.6 -22.9 L478.6 -19.9 475.6 -3.9 461.1 -7.4 Q463.1 -14.9 464.6 -22.9" fill="#6f6f6f" fill-rule="evenodd" stroke="none"/>
    <path d="M535.1 -77.4 Q533.6 -68.9 531.6 -60.9 L513.6 -64.4 516.6 -81.4 535.1 -77.4" fill="#6f6f6f" fill-rule="evenodd" stroke="none"/>
    <path d="M483.6 -87.9 L480.6 -69.9 Q472.1 -70.9 463.6 -72.4 L466.6 -90.4 483.6 -87.9" fill="#6f6f6f" fill-rule="evenodd" stroke="none"/>
    <path d="M503.6 -86.9 L502.6 -81.4 487.6 -84.4 Q488.6 -87.4 489.1 -90.4 L503.6 -86.9" fill="#6f6f6f" fill-rule="evenodd" stroke="none"/>
    <path d="M533.1 -141.9 Q532.1 -136.4 530.6 -131.4 L502.1 -137.4 Q503.6 -142.9 504.6 -148.4 519.1 -144.9 533.1 -141.9" fill="#6f6f6f" fill-rule="evenodd" stroke="none"/>
    <path d="M529.6 -96.9 L527.6 -86.4 Q513.1 -88.9 498.6 -91.9 500.1 -97.4 501.1 -102.9 L529.6 -96.9" fill="#6f6f6f" fill-rule="evenodd" stroke="none"/>
    <path d="M501.6 -111.4 Q500.1 -102.4 498.1 -93.9 L493.1 -94.9 Q495.1 -103.4 496.6 -112.4 L501.6 -111.4" fill="#6f6f6f" fill-rule="evenodd" stroke="none"/>
    <path d="M533.6 -117.9 L530.6 -102.4 525.1 -102.9 Q527.1 -110.9 528.6 -118.9 L533.6 -117.9" fill="#6f6f6f" fill-rule="evenodd" stroke="none"/>
    <path d="M534.6 -120.9 L532.1 -121.4 Q534.1 -129.4 535.6 -137.9 L538.1 -137.4 Q536.6 -128.9 534.6 -120.9" fill="#6f6f6f" fill-rule="evenodd" stroke="none"/>
    <path d="M449.6 -148.4 Q446.6 -133.4 443.1 -118.4 L439.1 -118.9 Q442.6 -133.9 445.6 -149.4 L449.6 -148.4" fill="#6f6f6f" fill-rule="evenodd" stroke="none"/>
    <path d="M608.1 -201.4 L542.1 -215.4 543.1 -219.9 609.1 -205.9 608.1 -201.4" fill="#ffffff" fill-rule="evenodd" stroke="none"/>
    <path d="M-870.4 -228.4 L-870.4 -252.9 -855.9 -252.9 -855.9 -228.4 -870.4 -228.4" fill="#ffffff" fill-rule="evenodd" stroke="none"/>
    <path d="M-809.9 40.1 L-947.4 40.1 -947.4 38.6 -809.9 38.6 -809.9 40.1" fill="#424242" fill-rule="evenodd" stroke="none"/>
    <path d="M-732.4 58.6 L-856.4 58.6 -856.4 57.1 -732.4 57.1 -732.4 58.6" fill="#424242" fill-rule="evenodd" stroke="none"/>
    <path d="M239.1 -42.9 L235.1 -43.9 236.1 -48.4 240.1 -47.4 239.1 -42.9" fill="#424242" fill-rule="evenodd" stroke="none"/>
    <path d="M222.1 32.6 L218.1 31.6 219.1 27.1 223.1 28.1 222.1 32.6" fill="#424242" fill-rule="evenodd" stroke="none"/>
    <path d="M-83.4 21.6 L-87.9 21.6 -87.9 17.1 -83.4 17.1 -83.4 21.6" fill="#424242" fill-rule="evenodd" stroke="none"/>
    <path d="M-856.4 38.6 L-862.9 38.6 -862.9 34.1 -856.4 34.1 -856.4 38.6" fill="#424242" fill-rule="evenodd" stroke="none"/>
  </g>
</svg>
