<?xml version="1.0" encoding="UTF-8" standalone="no"?>
<svg xmlns:ffdec="https://www.free-decompiler.com/flash" xmlns:xlink="http://www.w3.org/1999/xlink" ffdec:objectType="shape" height="562.5px" width="323.0px" xmlns="http://www.w3.org/2000/svg">
  <g transform="matrix(1.0, 0.0, 0.0, 1.0, 316.75, 338.1)">
    <path d="M-169.25 -338.1 L6.25 -274.1 Q-43.75 -136.1 -94.25 1.9 -104.75 -1.6 -115.25 -5.6 -129.75 34.9 -144.75 75.4 -81.25 98.9 -17.75 121.9 -36.75 173.4 -56.25 224.4 L-123.75 199.9 -127.75 211.9 -186.25 190.9 -168.25 140.9 -316.75 86.9 -292.75 21.4 -262.75 32.4 -238.75 -33.6 Q-232.75 -31.1 -227.25 -29.1 L-221.25 -44.6 Q-245.25 -53.1 -269.75 -62.1 -219.25 -200.1 -169.25 -338.1" fill="#424242" fill-rule="evenodd" stroke="none"/>
    <path d="M-4.75 -263.1 L-42.75 -158.1 -41.75 -151.6 Q-59.75 -102.1 -78.25 -52.6 -80.75 -50.1 -83.75 -48.1 -90.75 -28.1 -98.25 -8.6 -123.75 -17.6 -149.75 -27.1 -147.75 -31.6 -146.25 -36.1 -148.75 -37.1 -151.75 -38.1 L-155.75 -28.1 Q-158.75 -29.1 -162.25 -30.6 L-164.25 -23.6 -120.75 -7.6 -138.75 41.9 -141.75 40.9 -143.75 46.9 -140.75 47.9 -152.75 80.4 -144.75 83.4 -145.75 85.9 Q-142.75 87.4 -139.75 88.4 L-138.75 85.4 -89.25 103.4 -90.25 106.4 -85.25 107.9 -84.25 105.4 -73.75 108.9 -72.75 105.9 -40.75 117.9 -41.75 120.9 -26.25 126.4 Q-34.25 148.9 -42.75 171.4 L-46.25 169.9 -48.25 175.9 -44.75 176.9 Q-51.25 195.9 -58.25 214.9 L-73.75 209.4 -74.75 211.9 -107.25 200.4 -106.25 197.9 -122.25 191.9 -108.25 154.4 -124.75 148.4 -126.75 153.4 -121.75 155.4 -138.25 161.4 -155.25 143.4 -153.25 137.9 -216.25 114.9 -217.25 117.4 Q-233.25 111.9 -249.25 105.9 L-248.25 103.4 -272.25 94.4 Q-271.25 92.9 -270.75 91.4 L-275.75 89.9 Q-276.25 91.4 -277.25 92.9 L-306.25 82.4 Q-304.25 77.4 -302.75 72.4 L-305.25 71.4 Q-299.25 55.9 -293.75 39.9 L-291.25 40.4 Q-289.25 35.9 -287.75 31.4 L-259.25 41.4 Q-253.25 25.4 -247.75 9.4 L-244.75 9.9 -242.75 4.4 -245.25 3.4 -235.25 -25.1 Q-228.75 -22.6 -222.75 -20.6 L-217.75 -35.1 -207.25 -31.6 Q-205.75 -35.1 -204.75 -38.6 -201.75 -37.1 -198.75 -36.1 L-195.75 -43.1 Q-198.75 -44.1 -202.25 -45.6 -200.25 -50.1 -198.75 -55.1 L-204.25 -57.1 -208.25 -48.1 Q-233.75 -57.1 -259.25 -66.6 -251.75 -86.6 -244.75 -106.6 -245.25 -110.1 -246.25 -113.6 L-210.25 -213.1 Q-207.75 -215.1 -205.75 -217.6 -186.25 -269.6 -167.25 -322.1 -164.75 -321.1 -162.75 -320.6 -160.75 -325.1 -159.25 -330.1 -82.25 -302.1 -5.75 -274.6 -7.25 -269.6 -9.25 -264.6 L-4.75 -263.1" fill="#959595" fill-rule="evenodd" stroke="none"/>
    <path d="M-136.75 -74.1 L-131.75 -88.1 -129.25 -87.1 -134.25 -73.1 -132.25 -72.1 Q-132.25 -71.1 -132.75 -70.1 L-118.75 -65.1 Q-118.75 -63.6 -119.25 -62.6 -126.25 -65.1 -133.75 -68.1 L-134.75 -65.6 Q-137.75 -66.6 -141.25 -68.1 L-139.25 -74.6 -136.75 -74.1" fill="#424242" fill-rule="evenodd" stroke="none"/>
    <path d="M-89.75 -52.1 L-103.75 -57.1 Q-103.25 -58.1 -103.25 -59.1 L-89.25 -54.1 -88.25 -56.1 Q-83.25 -54.1 -78.25 -52.6 -79.25 -49.1 -80.75 -46.1 -85.75 -47.6 -90.75 -49.6 L-89.75 -52.1" fill="#424242" fill-rule="evenodd" stroke="none"/>
    <path d="M-111.75 -143.1 L-109.25 -142.1 -114.25 -128.1 Q-113.25 -127.6 -112.25 -127.6 -112.75 -125.1 -113.75 -122.6 L-69.75 -106.6 Q-69.25 -107.6 -69.25 -108.6 L-58.75 -104.6 -60.75 -99.1 -71.25 -103.1 -70.25 -104.1 Q-92.25 -112.1 -114.75 -120.6 -115.25 -118.1 -116.25 -116.1 -117.25 -116.1 -118.25 -116.6 -120.75 -109.1 -123.75 -102.1 L-126.25 -103.1 Q-123.25 -110.1 -120.75 -117.6 L-123.25 -118.6 Q-120.75 -124.1 -118.75 -130.1 L-116.75 -129.1 -111.75 -143.1" fill="#424242" fill-rule="evenodd" stroke="none"/>
    <path d="M-51.75 -157.1 Q-58.75 -159.6 -65.75 -162.6 -65.25 -163.1 -65.25 -164.1 L-50.75 -159.1 Q-50.25 -160.1 -50.25 -161.1 -45.25 -159.1 -40.25 -157.6 L-42.25 -151.6 Q-47.25 -153.1 -52.25 -155.1 -51.75 -156.1 -51.75 -157.1" fill="#424242" fill-rule="evenodd" stroke="none"/>
    <path d="M-80.25 -170.1 L-81.25 -168.1 -95.25 -173.1 -96.25 -171.1 Q-97.25 -171.1 -98.25 -171.6 -100.75 -164.6 -103.75 -157.6 L-106.25 -158.6 -101.25 -172.6 -103.25 -173.6 Q-101.75 -176.6 -100.75 -179.6 -97.25 -178.1 -93.75 -177.1 L-94.75 -175.1 -80.25 -170.1" fill="#424242" fill-rule="evenodd" stroke="none"/>
    <path d="M-236.75 -108.1 Q-229.25 -105.1 -221.75 -102.6 L-222.75 -100.6 Q-230.25 -103.1 -237.75 -106.1 L-238.75 -103.6 Q-243.75 -105.1 -248.75 -107.1 -247.25 -110.1 -246.25 -113.6 -241.25 -111.6 -236.25 -110.1 -236.25 -109.1 -236.75 -108.1" fill="#424242" fill-rule="evenodd" stroke="none"/>
    <path d="M-173.25 -136.6 L-175.75 -137.6 Q-174.75 -139.6 -174.25 -141.6 -196.75 -149.6 -219.25 -158.1 L-219.25 -157.1 -229.75 -160.6 -227.75 -166.1 Q-222.75 -164.1 -217.75 -162.6 -217.75 -161.6 -218.25 -160.6 L-173.25 -144.6 -171.25 -149.1 -168.75 -148.1 -163.75 -162.1 -162.25 -161.6 -167.25 -147.6 -164.25 -146.6 Q-166.25 -140.6 -168.75 -135.1 -169.75 -135.1 -170.75 -135.6 L-175.75 -121.6 -178.25 -122.1 -173.25 -136.6" fill="#424242" fill-rule="evenodd" stroke="none"/>
    <path d="M-153.25 -198.6 Q-149.75 -197.1 -146.25 -196.1 L-148.25 -190.1 -151.25 -191.1 -156.25 -176.6 -158.25 -177.6 -153.25 -191.6 -155.75 -192.6 -154.75 -194.6 Q-161.75 -197.1 -169.25 -200.1 L-168.25 -202.1 Q-161.25 -199.1 -154.25 -196.6 L-153.25 -198.6" fill="#424242" fill-rule="evenodd" stroke="none"/>
    <path d="M-188.75 -93.1 L-183.75 -107.1 -181.75 -106.1 -186.75 -92.1 -184.25 -91.1 Q-185.25 -87.6 -186.75 -84.6 -190.25 -85.6 -194.25 -87.1 L-193.25 -89.6 -207.25 -94.6 Q-206.75 -95.6 -206.75 -97.1 -199.25 -94.1 -192.25 -91.6 -191.75 -92.6 -191.75 -94.1 L-188.75 -93.1" fill="#424242" fill-rule="evenodd" stroke="none"/>
    <path d="M-183.75 -207.6 Q-183.75 -206.6 -184.25 -205.6 -191.75 -208.1 -199.75 -211.1 -199.75 -210.1 -200.25 -209.1 -205.25 -210.6 -210.25 -212.6 L-208.25 -218.6 Q-203.25 -216.6 -198.25 -215.1 -198.25 -214.1 -198.75 -213.1 -191.25 -210.1 -183.75 -207.6" fill="#424242" fill-rule="evenodd" stroke="none"/>
    <path d="M-149.25 -259.1 L-148.25 -262.1 Q-140.25 -259.1 -132.25 -256.6 -131.75 -257.1 -131.75 -258.1 L-129.25 -257.6 Q-126.25 -264.6 -123.75 -272.1 -122.75 -271.6 -122.25 -271.1 L-127.25 -256.6 Q-126.25 -256.1 -125.75 -256.1 -126.75 -252.6 -128.25 -249.1 L-134.25 -251.1 -133.25 -253.6 Q-141.25 -256.1 -149.25 -259.1" fill="#424242" fill-rule="evenodd" stroke="none"/>
    <path d="M-180.25 -270.6 Q-180.25 -269.1 -180.75 -268.1 L-186.25 -270.1 Q-184.75 -273.6 -183.75 -277.1 -180.75 -276.1 -178.25 -275.6 L-179.25 -273.6 Q-171.25 -270.6 -163.75 -268.1 L-164.75 -265.1 Q-172.25 -267.6 -180.25 -270.6" fill="#424242" fill-rule="evenodd" stroke="none"/>
    <path d="M-111.25 -301.6 L-116.25 -286.6 Q-117.25 -286.6 -118.25 -287.1 -115.25 -294.6 -112.75 -302.1 L-115.25 -303.1 Q-113.25 -308.1 -111.75 -313.1 -108.25 -311.6 -104.75 -310.6 -106.25 -305.6 -108.25 -300.6 L-111.25 -301.6" fill="#424242" fill-rule="evenodd" stroke="none"/>
    <path d="M-28.25 -215.1 L-41.75 -220.1 -40.75 -223.1 -27.25 -218.1 -26.25 -220.1 -20.75 -218.1 -23.75 -210.6 Q-26.25 -211.6 -29.25 -213.1 L-28.25 -215.1" fill="#424242" fill-rule="evenodd" stroke="none"/>
    <path d="M-71.75 -253.1 L-69.25 -252.1 -74.25 -237.6 Q-73.75 -237.1 -73.25 -237.1 L-74.25 -235.1 Q-65.25 -231.6 -56.25 -228.6 L-57.25 -225.6 Q-66.25 -228.6 -75.25 -232.1 -75.25 -231.1 -75.75 -230.1 L-81.75 -232.1 Q-80.25 -235.6 -79.25 -239.1 -78.25 -238.6 -77.25 -238.6 -74.25 -245.6 -71.75 -253.1" fill="#424242" fill-rule="evenodd" stroke="none"/>
    <path d="M-58.25 -282.1 Q-60.75 -274.6 -63.75 -267.6 L-66.25 -268.6 Q-63.25 -275.6 -60.75 -283.1 -61.75 -283.1 -62.75 -283.6 -60.75 -288.6 -59.25 -293.6 L-53.75 -291.6 Q-55.25 -286.6 -57.25 -281.6 -57.75 -281.6 -58.25 -282.1" fill="#424242" fill-rule="evenodd" stroke="none"/>
    <path d="M-132.75 -73.6 L-128.75 -84.6 Q-121.25 -81.6 -113.75 -79.1 L-117.75 -68.1 Q-125.25 -70.6 -132.75 -73.6" fill="#6f6f6f" fill-rule="evenodd" stroke="none"/>
    <path d="M-205.25 -98.1 L-201.25 -109.1 Q-193.75 -106.1 -186.25 -103.6 L-190.25 -92.6 Q-197.75 -95.1 -205.25 -98.1" fill="#6f6f6f" fill-rule="evenodd" stroke="none"/>
    <path d="M-172.75 -184.6 L-168.75 -196.1 Q-161.25 -193.1 -153.75 -190.6 L-157.75 -179.6 -172.75 -184.6" fill="#6f6f6f" fill-rule="evenodd" stroke="none"/>
    <path d="M-181.75 -199.6 L-185.75 -189.1 Q-193.25 -191.6 -201.25 -194.6 L-197.25 -205.1 Q-189.25 -202.1 -181.75 -199.6" fill="#6f6f6f" fill-rule="evenodd" stroke="none"/>
    <path d="M-199.25 -206.1 Q-200.75 -200.6 -202.75 -195.6 -208.25 -197.6 -214.25 -200.1 L-210.25 -210.1 -199.25 -206.1" fill="#6f6f6f" fill-rule="evenodd" stroke="none"/>
    <path d="M-220.75 -177.1 Q-218.75 -182.1 -217.25 -187.6 -211.25 -185.1 -205.75 -183.1 L-209.75 -173.1 -220.75 -177.1" fill="#6f6f6f" fill-rule="evenodd" stroke="none"/>
    <path d="M-224.75 -165.6 Q-222.75 -169.6 -221.25 -174.1 L-210.75 -170.1 Q-212.25 -165.6 -214.25 -161.6 L-224.75 -165.6" fill="#6f6f6f" fill-rule="evenodd" stroke="none"/>
    <path d="M-204.25 -157.6 Q-203.75 -158.1 -203.75 -158.6 -208.25 -160.1 -212.75 -162.1 -210.75 -166.6 -209.25 -171.6 -199.25 -168.1 -189.25 -165.1 L-193.25 -153.6 -204.25 -157.6" fill="#6f6f6f" fill-rule="evenodd" stroke="none"/>
    <path d="M-207.75 -172.6 Q-206.25 -176.6 -205.25 -181.1 -201.25 -179.6 -197.25 -178.6 -198.25 -174.1 -199.75 -170.1 -203.75 -171.1 -207.75 -172.6" fill="#6f6f6f" fill-rule="evenodd" stroke="none"/>
    <path d="M-210.25 -196.6 Q-206.25 -195.1 -202.25 -194.1 -203.25 -189.6 -204.75 -185.6 -208.75 -186.6 -212.75 -188.1 -211.25 -192.1 -210.25 -196.6" fill="#6f6f6f" fill-rule="evenodd" stroke="none"/>
    <path d="M-169.25 -154.6 Q-170.75 -150.1 -172.75 -145.6 L-183.25 -149.6 -180.25 -158.1 Q-174.75 -156.1 -169.25 -154.6" fill="#6f6f6f" fill-rule="evenodd" stroke="none"/>
    <path d="M-103.75 -120.1 Q-107.75 -121.6 -112.25 -123.6 L-110.25 -129.1 Q-105.75 -127.1 -101.25 -125.6 -102.25 -122.6 -103.75 -120.1" fill="#6f6f6f" fill-rule="evenodd" stroke="none"/>
    <path d="M-103.25 -120.1 L-101.25 -125.6 -92.25 -122.6 -94.25 -117.1 -103.25 -120.1" fill="#6f6f6f" fill-rule="evenodd" stroke="none"/>
    <path d="M-77.25 -120.1 L-80.25 -111.6 -91.25 -115.6 -88.25 -124.1 -77.25 -120.1" fill="#6f6f6f" fill-rule="evenodd" stroke="none"/>
    <path d="M-68.25 -159.6 L-72.25 -149.1 Q-79.75 -151.6 -87.25 -154.6 L-83.25 -165.6 -68.25 -159.6" fill="#6f6f6f" fill-rule="evenodd" stroke="none"/>
    <path d="M-85.25 -166.1 L-89.25 -155.6 -100.25 -159.6 -96.25 -170.1 -85.25 -166.1" fill="#6f6f6f" fill-rule="evenodd" stroke="none"/>
    <path d="M-57.25 -144.6 Q-55.25 -149.6 -53.75 -154.6 L-43.25 -150.6 Q-44.75 -145.6 -46.75 -140.6 L-57.25 -144.6" fill="#6f6f6f" fill-rule="evenodd" stroke="none"/>
    <path d="M-48.25 -140.1 L-52.25 -130.1 -60.75 -133.1 Q-58.75 -138.1 -57.25 -143.1 L-48.25 -140.1" fill="#6f6f6f" fill-rule="evenodd" stroke="none"/>
    <path d="M-28.75 -228.1 Q-25.75 -236.1 -23.25 -244.1 -18.25 -242.1 -13.25 -240.6 -15.75 -232.6 -18.75 -224.6 -23.75 -226.1 -28.75 -228.1" fill="#6f6f6f" fill-rule="evenodd" stroke="none"/>
    <path d="M-23.25 -245.6 L-20.25 -253.6 -9.75 -249.6 -12.75 -241.6 -23.25 -245.6" fill="#6f6f6f" fill-rule="evenodd" stroke="none"/>
    <path d="M-18.75 -253.1 L-14.75 -264.6 -6.25 -261.6 -10.25 -249.6 Q-14.25 -251.1 -18.75 -253.1" fill="#6f6f6f" fill-rule="evenodd" stroke="none"/>
    <path d="M-167.75 -283.6 L-171.75 -273.6 Q-176.75 -275.6 -182.25 -277.6 -180.25 -282.6 -178.75 -287.6 L-167.75 -283.6" fill="#6f6f6f" fill-rule="evenodd" stroke="none"/>
    <path d="M-169.25 -272.6 Q-167.75 -277.1 -166.75 -281.6 -163.75 -280.6 -160.75 -280.1 L-163.75 -271.1 Q-166.25 -271.6 -169.25 -272.6" fill="#6f6f6f" fill-rule="evenodd" stroke="none"/>
    <path d="M-19.75 -255.1 L-25.25 -257.1 Q-23.75 -261.6 -22.75 -266.1 L-16.75 -264.1 -19.75 -255.1" fill="#6f6f6f" fill-rule="evenodd" stroke="none"/>
    <path d="M-114.75 -304.1 Q-117.75 -303.1 -120.75 -302.6 -121.75 -307.1 -123.25 -311.6 -120.25 -312.1 -117.25 -313.1 -115.75 -308.6 -114.75 -304.1" fill="#6f6f6f" fill-rule="evenodd" stroke="none"/>
    <path d="M-7.75 -273.6 Q-9.25 -268.6 -11.25 -263.6 L-21.75 -267.6 Q-19.75 -272.6 -18.25 -277.6 L-7.75 -273.6" fill="#6f6f6f" fill-rule="evenodd" stroke="none"/>
    <path d="M-19.25 -278.1 Q-20.75 -273.1 -22.75 -268.1 L-33.25 -272.1 Q-31.25 -277.1 -29.75 -282.1 L-19.25 -278.1" fill="#6f6f6f" fill-rule="evenodd" stroke="none"/>
    <path d="M-132.25 -319.6 L-136.25 -308.6 -161.25 -317.6 -157.25 -328.6 -132.25 -319.6" fill="#6f6f6f" fill-rule="evenodd" stroke="none"/>
    <path d="M-41.75 -286.1 Q-43.25 -281.6 -45.25 -277.1 L-55.75 -281.1 -52.75 -290.1 -41.75 -286.1" fill="#6f6f6f" fill-rule="evenodd" stroke="none"/>
    <path d="M-33.25 -275.6 L-35.25 -269.6 Q-40.25 -271.1 -45.25 -273.1 L-43.25 -279.1 Q-38.25 -277.1 -33.25 -275.6" fill="#6f6f6f" fill-rule="evenodd" stroke="none"/>
    <path d="M-121.75 -315.6 L-123.75 -309.6 Q-128.75 -311.1 -134.25 -313.1 -132.75 -316.1 -131.75 -319.1 -126.75 -317.1 -121.75 -315.6" fill="#6f6f6f" fill-rule="evenodd" stroke="none"/>
    <path d="M-30.25 -282.1 Q-31.25 -279.1 -32.75 -276.6 -37.75 -278.6 -42.75 -281.1 L-39.75 -286.6 Q-34.75 -284.1 -30.25 -282.1" fill="#6f6f6f" fill-rule="evenodd" stroke="none"/>
    <path d="M-63.75 -124.6 L-65.75 -119.1 Q-70.25 -120.6 -74.75 -122.6 -73.75 -125.1 -73.25 -128.1 -68.25 -126.1 -63.75 -124.6" fill="#6f6f6f" fill-rule="evenodd" stroke="none"/>
    <path d="M-53.25 -121.6 L-55.25 -116.6 Q-58.75 -117.6 -62.75 -119.1 L-60.75 -124.6 -53.25 -121.6" fill="#6f6f6f" fill-rule="evenodd" stroke="none"/>
    <path d="M-77.25 -111.1 Q-75.75 -115.1 -74.75 -119.6 L-66.25 -117.1 Q-67.25 -112.6 -68.75 -108.6 -72.75 -109.6 -77.25 -111.1" fill="#6f6f6f" fill-rule="evenodd" stroke="none"/>
    <path d="M-62.25 -98.6 L-65.25 -90.1 -76.25 -94.1 -73.25 -102.6 -62.25 -98.6" fill="#6f6f6f" fill-rule="evenodd" stroke="none"/>
    <path d="M-65.25 -88.1 L-69.25 -77.1 -80.25 -81.1 -76.25 -92.1 -65.25 -88.1" fill="#6f6f6f" fill-rule="evenodd" stroke="none"/>
    <path d="M-88.75 -56.6 L-84.75 -67.6 -73.75 -63.6 -77.75 -52.6 -88.75 -56.6" fill="#6f6f6f" fill-rule="evenodd" stroke="none"/>
    <path d="M-242.75 -116.6 L-238.75 -127.6 -227.75 -123.6 -231.75 -112.6 -242.75 -116.6" fill="#6f6f6f" fill-rule="evenodd" stroke="none"/>
    <path d="M-217.75 -152.6 L-221.75 -141.6 -232.75 -145.6 -228.75 -156.6 -217.75 -152.6" fill="#6f6f6f" fill-rule="evenodd" stroke="none"/>
    <path d="M-222.75 -140.1 Q-225.25 -132.6 -228.25 -125.1 L-239.25 -129.1 Q-236.25 -136.6 -233.75 -144.1 L-222.75 -140.1" fill="#6f6f6f" fill-rule="evenodd" stroke="none"/>
    <path d="M-82.75 -106.6 L-82.75 -106.1 -73.75 -103.1 -77.75 -92.1 -86.75 -95.1 -86.75 -96.1 -97.25 -100.1 Q-95.25 -105.1 -93.75 -110.6 L-82.75 -106.6" fill="#6f6f6f" fill-rule="evenodd" stroke="none"/>
    <path d="M-106.25 -114.1 L-108.25 -109.1 Q-112.75 -110.6 -117.25 -112.6 -116.25 -115.1 -115.75 -117.6 L-106.25 -114.1" fill="#6f6f6f" fill-rule="evenodd" stroke="none"/>
    <path d="M-206.25 -140.6 Q-204.25 -145.1 -202.75 -150.1 L-191.75 -146.1 Q-193.25 -141.6 -195.25 -137.1 -200.75 -138.6 -206.25 -140.6" fill="#6f6f6f" fill-rule="evenodd" stroke="none"/>
    <path d="M-181.25 -143.6 L-185.25 -133.1 Q-189.75 -134.6 -194.75 -136.6 L-190.75 -147.1 -181.25 -143.6" fill="#6f6f6f" fill-rule="evenodd" stroke="none"/>
    <path d="M-88.25 -94.1 Q-83.75 -92.6 -79.25 -91.6 -80.25 -87.1 -81.75 -82.6 -86.25 -83.6 -90.75 -85.1 -89.25 -89.6 -88.25 -94.1" fill="#6f6f6f" fill-rule="evenodd" stroke="none"/>
    <path d="M-206.25 -139.1 L-197.25 -137.1 -199.25 -128.1 -208.25 -130.1 -206.25 -139.1" fill="#6f6f6f" fill-rule="evenodd" stroke="none"/>
    <path d="M-206.25 -150.1 L-210.25 -142.1 Q-214.25 -144.1 -218.75 -146.1 -216.25 -150.1 -214.25 -154.6 -210.25 -152.1 -206.25 -150.1" fill="#6f6f6f" fill-rule="evenodd" stroke="none"/>
    <path d="M-219.75 -141.6 L-210.25 -140.1 Q-210.75 -135.6 -211.75 -131.1 L-220.75 -132.1 -219.75 -141.6" fill="#6f6f6f" fill-rule="evenodd" stroke="none"/>
    <path d="M-258.25 37.9 Q-253.25 25.4 -248.75 12.4 -244.25 14.4 -239.75 15.9 L-248.75 41.4 -258.25 37.9" fill="#6f6f6f" fill-rule="evenodd" stroke="none"/>
    <path d="M-138.25 203.4 L-176.75 189.4 -159.75 141.9 Q-140.25 148.9 -120.75 155.4 -129.25 179.4 -138.25 203.4" fill="#ffffff" fill-rule="evenodd" stroke="none"/>
  </g>
</svg>
