<?xml version="1.0" encoding="UTF-8" standalone="no"?>
<svg xmlns:ffdec="https://www.free-decompiler.com/flash" xmlns:xlink="http://www.w3.org/1999/xlink" ffdec:objectType="shape" height="212.0px" width="343.0px" xmlns="http://www.w3.org/2000/svg">
  <g transform="matrix(1.0, 0.0, 0.0, 1.0, 355.75, 358.6)">
    <path d="M-115.75 -341.1 Q-70.25 -323.6 -24.75 -306.6 -22.25 -277.1 -20.25 -247.6 L-25.75 -247.1 -22.75 -206.6 -16.75 -207.1 -12.75 -151.1 -70.25 -146.6 Q-72.25 -174.6 -74.75 -202.6 L-71.75 -202.6 Q-73.25 -222.6 -75.25 -242.6 L-119.75 -239.1 Q-120.25 -246.1 -121.25 -253.6 L-129.75 -253.1 -133.75 -304.6 -195.75 -299.6 Q-206.25 -299.6 -217.25 -300.1 -229.25 -297.6 -241.75 -295.6 L-351.75 -286.1 -355.75 -329.1 -260.25 -337.6 Q-260.75 -344.6 -261.75 -351.6 L-180.75 -358.6 -128.75 -340.6 -128.75 -340.1 -115.75 -341.1" fill="#424242" fill-rule="evenodd" stroke="none"/>
    <path d="M-321.75 -327.1 L-321.75 -329.6 -296.25 -331.6 Q-295.75 -330.6 -295.75 -329.6 L-259.25 -332.6 -259.25 -331.6 -257.25 -331.6 Q-255.75 -316.6 -254.75 -302.1 L-256.75 -302.1 -256.75 -299.1 -346.25 -291.6 Q-346.25 -293.1 -346.75 -295.1 L-348.25 -295.1 Q-349.25 -308.1 -350.75 -321.1 L-348.75 -321.1 Q-348.75 -323.1 -349.25 -325.1 L-321.75 -327.1" fill="#6f6f6f" fill-rule="evenodd" stroke="none"/>
    <path d="M-181.25 -354.1 Q-158.25 -345.6 -135.75 -337.6 -135.25 -335.6 -135.25 -334.1 L-116.75 -335.6 Q-111.75 -333.6 -107.25 -332.1 -106.75 -333.1 -106.75 -334.1 L-94.25 -329.6 Q-94.25 -328.6 -94.75 -327.6 L-83.75 -323.6 -82.75 -325.6 -78.25 -324.1 -79.25 -321.6 Q-54.25 -312.1 -29.25 -303.1 L-25.25 -250.1 -29.75 -250.1 Q-27.75 -229.6 -26.25 -209.1 L-31.75 -208.6 -31.75 -205.1 -61.75 -202.1 -61.75 -206.1 -67.25 -205.6 -70.25 -246.6 -115.25 -243.1 -116.25 -257.6 -125.75 -256.6 -129.75 -310.1 -219.25 -300.6 -252.25 -299.6 Q-252.25 -301.1 -252.75 -302.6 -253.75 -302.1 -254.75 -302.1 -255.75 -316.6 -257.25 -331.6 -256.25 -331.6 -255.25 -332.1 L-256.25 -347.6 -231.75 -349.6 Q-231.75 -350.6 -232.25 -351.6 L-206.25 -354.1 Q-205.75 -352.6 -205.75 -351.6 L-181.25 -354.1" fill="#959595" fill-rule="evenodd" stroke="none"/>
    <path d="M-21.75 -154.6 L-62.75 -151.1 Q-64.75 -176.6 -67.25 -202.1 L-26.25 -205.6 Q-23.75 -180.1 -21.75 -154.6" fill="#ffffff" fill-rule="evenodd" stroke="none"/>
    <path d="M-195.75 -299.6 L-241.75 -295.6 Q-241.75 -297.6 -242.25 -300.1 L-196.25 -304.1 Q-195.75 -301.6 -195.75 -299.6" fill="#ffffff" fill-rule="evenodd" stroke="none"/>
    <path d="M-251.75 -337.6 L-251.75 -345.6 -236.75 -345.6 -236.75 -337.6 -251.75 -337.6" fill="#6f6f6f" fill-rule="evenodd" stroke="none"/>
    <path d="M-127.25 -279.1 Q-128.25 -292.6 -129.75 -306.1 L-124.75 -306.1 -122.75 -279.6 -127.25 -279.1" fill="#6f6f6f" fill-rule="evenodd" stroke="none"/>
    <path d="M-125.75 -256.6 Q-126.25 -266.6 -127.25 -277.1 L-118.75 -277.6 Q-117.75 -267.6 -117.25 -257.6 L-125.75 -256.6" fill="#6f6f6f" fill-rule="evenodd" stroke="none"/>
    <path d="M-50.25 -306.6 Q-63.25 -311.1 -76.25 -316.1 -75.25 -318.1 -74.75 -320.1 -61.75 -315.1 -49.25 -310.6 L-50.25 -306.6" fill="#6f6f6f" fill-rule="evenodd" stroke="none"/>
  </g>
</svg>
