<?xml version="1.0" encoding="UTF-8" standalone="no"?>
<svg xmlns:ffdec="https://www.free-decompiler.com/flash" xmlns:xlink="http://www.w3.org/1999/xlink" ffdec:objectType="shape" height="662.5px" width="1203.0px" xmlns="http://www.w3.org/2000/svg">
  <g transform="matrix(1.0, 0.0, 0.0, 1.0, 1024.75, 354.6)">
    <path d="M-22.25 -309.1 L-12.75 -305.1 Q-34.25 -246.6 -56.25 -188.1 -51.75 -186.6 -47.25 -185.6 -49.75 -178.1 -52.75 -170.6 12.25 -149.6 77.25 -129.1 L78.25 -132.6 Q77.75 -132.6 76.75 -133.1 78.25 -136.1 79.25 -139.6 128.75 -120.6 178.25 -102.1 L132.25 27.4 135.25 48.4 137.75 47.4 140.75 52.9 Q129.75 84.4 118.25 115.4 116.75 116.4 115.25 116.9 L114.25 122.4 Q112.75 123.4 111.25 123.9 105.75 140.4 99.75 156.4 L95.75 158.4 85.25 166.4 47.75 183.4 Q49.25 186.4 50.25 189.4 L-18.75 221.4 -34.75 221.9 Q-36.25 222.9 -38.25 223.4 L-35.75 224.9 Q-36.75 227.9 -38.25 230.9 -67.75 244.9 -97.75 258.4 L-107.25 256.4 Q-112.25 262.4 -117.75 267.9 -159.75 287.9 -202.25 307.4 -213.75 307.9 -225.75 307.9 -233.75 305.4 -241.75 302.4 -242.25 304.4 -243.25 306.4 L-249.75 304.4 -248.75 299.9 -260.25 295.9 Q-259.75 294.9 -259.75 293.9 L-507.25 234.9 -534.25 185.4 -547.75 186.9 Q-574.75 199.9 -601.75 212.4 -599.75 213.4 -597.75 213.9 -603.75 230.9 -610.25 247.4 L-610.75 247.4 -619.75 244.4 -631.75 277.9 Q-828.25 205.9 -1024.75 133.4 L-987.75 29.9 Q-901.25 -10.1 -814.75 -50.6 L-818.75 -58.6 -671.75 -127.6 Q-665.75 -125.1 -659.75 -123.1 -411.25 -238.6 -162.75 -354.6 -93.75 -329.6 -24.75 -305.1 -23.25 -307.1 -22.25 -309.1" fill="#424242" fill-rule="evenodd" stroke="none"/>
    <path d="M-93.75 -272.6 L-94.75 -270.1 Q-89.75 -268.1 -85.25 -266.6 L-88.25 -259.1 -37.75 -240.1 -53.75 -197.6 -63.25 -201.1 -67.25 -194.6 Q-76.75 -198.1 -86.75 -201.6 L-87.75 -200.1 -328.75 -88.1 -336.25 -87.6 -761.25 110.4 -760.25 113.4 -793.25 203.4 -849.75 183.4 Q-848.75 180.9 -848.25 177.9 L-951.75 139.9 Q-946.75 127.4 -942.25 114.4 L-837.75 151.4 Q-836.75 149.4 -836.25 146.9 L-947.25 106.9 -960.25 143.4 Q-988.75 132.9 -1017.25 121.9 -1000.75 77.4 -984.75 32.4 -573.25 -159.1 -162.25 -351.1 L-74.75 -320.1 Q-75.75 -316.6 -77.25 -313.1 L-18.75 -292.1 -34.75 -249.6 -93.75 -272.6" fill="#6f6f6f" fill-rule="evenodd" stroke="none"/>
    <path d="M-136.75 265.9 L-135.75 265.9 Q-125.75 261.9 -116.25 257.4 L-116.25 256.4 -125.25 237.4 -125.75 236.9 Q-125.75 237.4 -126.25 237.4 -135.75 241.9 -145.25 245.9 L-145.25 246.9 Q-140.75 256.4 -136.75 265.9 M13.75 191.9 L15.75 195.4 16.75 198.4 Q-8.75 210.4 -34.75 221.9 -36.25 222.9 -38.25 223.9 -39.25 224.4 -40.75 224.9 L-37.75 230.9 -96.25 257.9 Q-96.75 258.4 -97.75 258.4 L-98.25 258.4 Q-99.25 255.9 -100.75 252.9 L-107.25 255.9 -107.25 256.4 Q-132.25 268.4 -157.75 279.9 -158.25 279.9 -158.75 279.4 L-159.75 277.4 Q-160.75 274.4 -162.25 270.9 L-187.25 218.4 Q-99.25 177.9 -11.75 136.9 1.25 164.4 13.75 191.9 M-7.75 206.4 L-7.75 205.9 -16.75 186.9 -16.75 186.4 -17.25 186.4 Q-26.75 190.9 -36.75 195.4 -36.75 195.9 -37.25 195.9 L-36.75 195.9 -27.75 214.9 -27.75 215.4 -27.25 215.4 Q-17.25 210.9 -7.75 206.4" fill="#6f6f6f" fill-rule="evenodd" stroke="none"/>
    <path d="M-839.25 39.9 Q-831.25 19.4 -823.75 -1.6 L-782.25 13.4 Q-789.75 34.4 -797.75 55.4 L-839.25 39.9" fill="#424242" fill-rule="evenodd" stroke="none"/>
    <path d="M-753.75 -34.6 Q-732.75 -26.6 -712.25 -19.1 -719.75 1.9 -727.75 22.4 L-769.25 6.9 Q-761.25 -13.6 -753.75 -34.6" fill="#424242" fill-rule="evenodd" stroke="none"/>
    <path d="M-698.25 -26.1 Q-690.25 -46.6 -682.75 -67.6 L-641.25 -52.6 Q-648.75 -31.6 -656.75 -10.6 -677.25 -18.1 -698.25 -26.1" fill="#424242" fill-rule="evenodd" stroke="none"/>
    <path d="M-628.25 -59.1 Q-620.25 -79.6 -612.75 -100.6 -591.75 -92.6 -571.25 -85.1 -578.75 -64.1 -586.75 -43.6 L-628.25 -59.1" fill="#424242" fill-rule="evenodd" stroke="none"/>
    <path d="M-558.25 -92.1 Q-550.25 -112.6 -542.75 -133.6 -521.75 -125.6 -501.25 -118.1 -508.75 -97.1 -516.75 -76.6 -537.25 -84.1 -558.25 -92.1" fill="#424242" fill-rule="evenodd" stroke="none"/>
    <path d="M-469.25 -174.1 L-472.25 -166.6 -431.25 -151.6 Q-438.75 -130.6 -446.75 -109.6 -467.25 -117.1 -488.25 -125.1 L-473.25 -165.6 -481.25 -168.6 -478.25 -177.1 -469.25 -174.1" fill="#424242" fill-rule="evenodd" stroke="none"/>
    <path d="M-399.25 -207.1 L-402.25 -198.1 Q-406.75 -199.6 -411.25 -201.6 -409.25 -205.6 -407.75 -210.1 L-399.25 -207.1" fill="#424242" fill-rule="evenodd" stroke="none"/>
    <path d="M-329.25 -239.6 L-332.25 -231.1 -341.25 -234.1 Q-339.25 -238.6 -337.75 -243.1 -333.25 -241.1 -329.25 -239.6" fill="#424242" fill-rule="evenodd" stroke="none"/>
    <path d="M-219.75 -248.1 L-234.75 -206.6 Q-255.75 -214.1 -277.25 -222.1 L-262.25 -263.6 Q-266.25 -265.1 -270.25 -267.1 L-267.25 -275.6 -258.25 -272.6 -261.25 -264.1 -219.75 -248.1" fill="#424242" fill-rule="evenodd" stroke="none"/>
    <path d="M-187.75 -305.1 Q-189.25 -300.6 -191.25 -296.6 L-150.25 -281.6 Q-157.75 -260.6 -165.75 -239.6 -186.25 -247.1 -207.25 -255.1 -199.25 -275.6 -191.75 -296.6 L-200.25 -299.6 Q-198.25 -304.1 -196.75 -308.6 -192.25 -306.6 -187.75 -305.1" fill="#424242" fill-rule="evenodd" stroke="none"/>
    <path d="M-397.75 -79.1 L-394.75 -88.1 Q-390.25 -86.1 -385.75 -84.6 L-388.75 -76.1 -397.75 -79.1" fill="#424242" fill-rule="evenodd" stroke="none"/>
    <path d="M-327.25 -112.1 L-324.25 -121.1 Q-319.75 -119.1 -315.25 -117.6 -316.75 -113.1 -318.75 -109.1 L-327.25 -112.1" fill="#424242" fill-rule="evenodd" stroke="none"/>
    <path d="M-538.75 -13.1 Q-536.75 -17.1 -535.25 -21.6 L-526.75 -18.6 -529.75 -9.6 Q-534.25 -11.1 -538.75 -13.1" fill="#424242" fill-rule="evenodd" stroke="none"/>
    <path d="M-468.25 -46.1 L-465.25 -54.6 -456.25 -51.6 Q-457.75 -47.1 -459.75 -42.6 -463.75 -44.1 -468.25 -46.1" fill="#424242" fill-rule="evenodd" stroke="none"/>
    <path d="M-257.25 -145.1 L-254.25 -153.6 -245.25 -150.6 Q-246.75 -146.1 -248.75 -141.6 -252.75 -143.1 -257.25 -145.1" fill="#424242" fill-rule="evenodd" stroke="none"/>
    <path d="M-186.75 -177.6 L-183.75 -186.1 -174.75 -183.1 -177.75 -174.1 Q-182.25 -175.6 -186.75 -177.6" fill="#424242" fill-rule="evenodd" stroke="none"/>
    <path d="M-113.25 -219.1 Q-108.75 -217.1 -104.25 -215.6 -105.75 -211.1 -107.75 -207.1 L-116.25 -210.1 -113.25 -219.1" fill="#424242" fill-rule="evenodd" stroke="none"/>
    <path d="M-417.25 -157.1 Q-409.25 -177.6 -401.75 -198.6 -380.75 -190.6 -360.25 -183.1 -367.75 -162.1 -375.75 -141.6 L-417.25 -157.1" fill="#424242" fill-rule="evenodd" stroke="none"/>
    <path d="M-347.25 -190.1 Q-339.25 -210.6 -331.75 -231.6 L-290.25 -216.6 Q-297.75 -195.6 -305.75 -174.6 -326.25 -182.1 -347.25 -190.1" fill="#424242" fill-rule="evenodd" stroke="none"/>
    <path d="M-909.25 72.9 Q-901.25 52.4 -893.75 31.4 L-852.25 46.9 Q-859.75 67.9 -867.75 88.4 L-909.25 72.9" fill="#424242" fill-rule="evenodd" stroke="none"/>
    <path d="M-24.25 -305.6 Q-19.25 -303.6 -14.25 -302.1 L-14.25 -301.6 Q-15.75 -296.6 -17.75 -291.6 L-18.25 -291.6 Q-22.75 -293.1 -27.25 -295.1 L-27.75 -295.6 Q-25.75 -300.6 -24.25 -305.6" fill="#424242" fill-rule="evenodd" stroke="none"/>
    <path d="M-73.75 -327.6 L-64.75 -324.6 -64.75 -324.1 -67.75 -315.6 -67.75 -315.1 -68.25 -315.1 Q-72.75 -316.6 -77.25 -318.6 L-77.25 -319.1 Q-75.25 -323.1 -73.75 -327.6" fill="#424242" fill-rule="evenodd" stroke="none"/>
    <path d="M-125.25 -346.1 L-125.25 -346.6 Q-120.75 -344.6 -116.25 -343.1 L-116.25 -342.6 -119.25 -334.1 -119.75 -334.1 -128.75 -337.1 -128.75 -337.6 Q-126.75 -341.6 -125.25 -346.1" fill="#424242" fill-rule="evenodd" stroke="none"/>
    <path d="M-332.25 35.4 L-296.75 111.9 -341.75 132.9 -342.25 132.9 -354.25 106.4 Q-355.75 107.4 -357.25 107.9 -362.25 96.4 -367.75 84.4 -366.25 83.9 -365.25 82.9 -371.25 69.9 -377.75 56.9 -372.25 54.4 -366.75 51.4 -366.75 50.9 -367.25 49.9 L-343.75 38.9 Q-343.25 39.9 -343.25 40.4 L-332.25 35.4" fill="#959595" fill-rule="evenodd" stroke="none"/>
    <path d="M-284.25 166.4 Q-278.75 163.9 -273.75 161.4 L-237.75 237.4 Q-260.25 248.4 -283.25 258.9 -289.25 245.9 -295.75 232.4 L-298.75 233.4 Q-303.75 221.9 -309.25 209.9 -307.75 209.4 -306.75 208.9 L-318.75 182.4 -307.75 177.4 -309.25 174.9 Q-297.25 169.4 -285.75 163.9 L-284.25 166.4" fill="#959595" fill-rule="evenodd" stroke="none"/>
    <path d="M-154.25 -169.1 L-145.75 -150.6 Q-233.25 -109.6 -321.25 -69.1 L-329.25 -87.6 Q-241.75 -128.1 -154.25 -169.1" fill="#959595" fill-rule="evenodd" stroke="none"/>
    <path d="M38.75 -35.1 Q39.25 -34.6 39.75 -34.6 L42.75 17.4 15.25 18.9 11.25 -32.6 10.75 -34.1 38.75 -35.1" fill="#6f6f6f" fill-rule="evenodd" stroke="none"/>
    <path d="M-204.75 -123.6 Q-202.75 -120.6 -201.25 -117.6 -171.75 -130.6 -142.75 -144.1 L-100.75 -54.1 Q-77.75 -64.6 -55.25 -75.1 -44.25 -52.1 -33.75 -29.1 L11.25 -32.6 Q13.25 -10.1 14.75 12.4 L12.75 12.4 16.75 40.4 0.75 41.4 -0.75 42.4 28.25 104.4 Q-23.25 128.9 -75.25 152.9 L-70.25 163.4 Q-99.25 177.4 -128.75 190.9 L-133.75 179.9 Q-185.25 204.4 -237.25 228.4 L-321.25 48.9 Q-298.25 38.4 -275.75 27.4 -296.75 -17.6 -318.25 -62.6 -288.75 -76.1 -259.75 -90.1 L-262.75 -96.6 -204.75 -123.6" fill="#959595" fill-rule="evenodd" stroke="none"/>
    <path d="M-250.75 211.4 Q-248.25 216.4 -246.25 220.9 -261.75 228.4 -277.75 235.9 L-297.75 192.9 Q-281.75 185.9 -266.25 178.4 L-261.25 188.9 -256.75 186.9 Q-251.25 198.4 -246.25 209.4 -248.25 210.4 -250.75 211.4" fill="#6f6f6f" fill-rule="evenodd" stroke="none"/>
    <path d="M-309.25 85.4 Q-306.75 90.4 -304.75 95.4 L-336.25 110.4 -356.25 66.9 Q-340.25 59.9 -324.75 52.4 L-319.75 62.9 Q-317.25 61.9 -315.25 60.9 -309.75 72.4 -304.75 83.4 L-309.25 85.4" fill="#6f6f6f" fill-rule="evenodd" stroke="none"/>
    <path d="M-162.75 -35.6 L-221.75 -8.6 -240.75 -49.1 Q-211.25 -62.6 -182.25 -76.6 -172.25 -56.1 -162.75 -35.6 M-135.25 83.9 L-147.25 89.9 -161.75 90.9 -165.75 82.4 -151.25 81.4 Q-145.25 78.9 -139.75 75.9 L-129.75 65.4 Q-127.25 69.9 -125.25 74.4 L-135.25 83.9 M-137.75 46.9 L-133.75 55.4 -147.25 56.4 Q-153.75 59.4 -160.25 61.9 L-170.25 72.4 Q-172.25 68.4 -174.75 63.9 L-164.75 53.4 Q-158.75 50.9 -152.75 47.9 L-137.75 46.9" fill="#6f6f6f" fill-rule="evenodd" stroke="none"/>
    <path d="M-251.25 63.9 Q-256.25 66.4 -261.75 68.9 L-266.75 58.4 Q-261.25 55.9 -256.25 53.4 L-251.25 63.9" fill="#424242" fill-rule="evenodd" stroke="none"/>
    <path d="M-206.25 160.4 Q-211.25 162.9 -216.75 165.4 L-221.75 155.4 Q-216.25 152.9 -211.25 150.4 L-206.25 160.4" fill="#424242" fill-rule="evenodd" stroke="none"/>
    <path d="M-33.75 79.9 Q-38.75 82.4 -44.25 84.9 L-49.25 74.4 -38.25 69.4 Q-35.75 74.9 -33.75 79.9" fill="#424242" fill-rule="evenodd" stroke="none"/>
    <path d="M-78.75 -17.1 Q-83.75 -14.6 -89.25 -12.1 L-94.25 -22.6 -83.25 -27.6 -78.75 -17.1" fill="#424242" fill-rule="evenodd" stroke="none"/>
    <path d="M-201.25 -117.6 Q-230.25 -103.6 -259.75 -90.1 L-262.75 -96.6 -204.75 -123.6 Q-202.75 -120.6 -201.25 -117.6" fill="#ffffff" fill-rule="evenodd" stroke="none"/>
    <path d="M-75.25 152.9 L-70.25 163.4 Q-99.25 177.4 -128.75 190.9 L-133.75 179.9 Q-104.25 166.4 -75.25 152.9" fill="#ffffff" fill-rule="evenodd" stroke="none"/>
  </g>
</svg>
