<?xml version="1.0" encoding="UTF-8" standalone="no"?>
<svg xmlns:ffdec="https://www.free-decompiler.com/flash" xmlns:xlink="http://www.w3.org/1999/xlink" ffdec:objectType="shape" height="1004.5px" width="3239.0px" xmlns="http://www.w3.org/2000/svg">
  <g transform="matrix(1.0, 0.0, 0.0, 1.0, 1371.7, 530.5)">
    <path d="M-1154.3 -237.8 L-1154.0 -237.8 -1154.5 -235.2 -1163.1 -76.5 -1171.6 -78.0 -1178.0 -7.3 -1371.7 -41.4 -1351.5 -109.7 -1360.7 -111.3 -1312.7 -265.8 -1154.3 -237.8" fill="#424242" fill-rule="evenodd" stroke="none"/>
    <path d="M1118.3 369.3 L1119.6 369.5 1056.2 288.1 1047.7 279.8 1007.5 253.0 943.8 167.0 942.8 168.1 878.5 81.8 877.5 83.0 874.0 78.5 859.2 36.5 851.8 21.8 835.0 -0.9 835.7 -4.0 833.5 -6.7 833.4 -6.8 830.5 -6.9 813.0 -29.0 811.5 -31.9 677.5 -205.5 365.5 -246.5 363.9 -248.7 360.1 -249.2 358.4 -247.8 225.2 -264.4 213.3 -256.9 183.1 -260.8 173.0 -271.9 105.7 -280.5 95.7 -283.3 81.7 -288.8 63.1 -299.4 44.0 -316.7 -111.6 -471.0 -236.1 -470.7 -251.5 -468.0 -293.5 -453.2 -670.0 -453.0 -720.7 -468.4 -734.5 -471.4 -758.5 -469.6 -779.6 -466.7 -820.5 -457.7 -983.8 -406.4 -1022.6 -396.3 -1048.4 -390.5 -1076.0 -385.7 -1098.7 -384.1 -1127.7 -384.2 -1129.5 -386.5 -1132.9 -386.5 -1134.9 -384.2 -1163.3 -384.2 -1178.5 -383.0 -1190.5 -381.0 -1201.8 -377.0 -1211.3 -372.5 -1220.7 -365.5 -1226.6 -360.0 -1238.4 -343.7 -1243.3 -333.5 -1246.6 -321.3 -1254.5 -284.3 -1258.4 -256.2 -1246.6 -254.1 -1254.6 -208.4 -1156.7 -191.2 -1163.1 -76.5 -1360.7 -111.3 -1312.7 -265.8 -1302.3 -263.9 -1292.4 -318.0 -1286.7 -339.7 -1282.4 -350.5 -1272.9 -368.7 -1267.2 -377.5 -1257.4 -388.4 -1237.2 -405.5 -1225.2 -412.9 -1215.9 -417.1 -1205.1 -420.8 -1193.1 -423.5 -1180.5 -425.2 -1163.3 -426.3 -1135.1 -426.3 -1133.1 -424.0 -1129.5 -423.9 -1128.1 -425.7 -1073.7 -427.9 -1050.2 -432.1 -1023.5 -438.5 -984.4 -449.4 -851.1 -492.2 -790.6 -507.4 -759.1 -512.2 -734.1 -513.2 -716.4 -516.5 -671.1 -530.5 -293.5 -530.5 -251.5 -516.4 -236.1 -512.5 -133.3 -512.5 -133.9 -513.4 -118.6 -528.8 -115.2 -525.5 -106.3 -525.4 73.1 -346.5 87.3 -335.2 99.6 -328.0 109.8 -323.4 178.4 -313.0 Q184.7 -317.1 191.0 -321.3 L221.5 -317.2 230.7 -306.9 363.4 -288.8 365.2 -286.3 369.1 -286.0 370.3 -287.7 661.3 -249.5 660.9 -250.5 678.2 -263.7 680.9 -260.0 689.0 -259.2 844.5 -57.0 846.8 -55.0 863.7 -32.4 863.8 -32.4 863.1 -29.4 865.0 -26.5 868.4 -26.5 886.2 -4.0 898.0 6.7 935.2 31.7 938.4 35.9 936.9 37.0 1003.5 121.5 1002.3 122.1 1069.1 206.0 1083.0 247.2 1089.8 261.0 1165.6 361.3 1383.5 390.4 1396.3 382.3 1426.0 386.5 1435.7 396.7 1658.2 427.1 1707.8 431.6 1717.8 431.2 1733.4 427.0 1742.2 422.8 1750.9 417.3 1759.7 410.0 1767.6 401.6 1809.7 341.6 1812.2 340.3 1814.1 336.0 1811.0 333.6 1834.5 292.9 1867.3 313.1 1844.5 351.8 1840.6 350.9 1837.8 355.0 1838.1 357.8 1815.9 406.1 1796.9 433.2 1789.2 441.3 1772.0 454.5 1753.1 464.6 1733.0 471.0 1714.8 473.8 1701.6 474.0 1661.7 469.6 1430.0 439.2 1418.1 446.8 1388.1 442.8 1378.0 431.7 1126.2 398.7 1120.0 391.5 1115.6 391.0 1118.3 369.3" fill="#424242" fill-rule="evenodd" stroke="none"/>
    <path d="M1129.2 396.2 L1123.6 389.3 1125.6 371.0 1059.3 284.3 1050.8 276.0 1010.6 249.2 881.0 76.0 853.8 18.8 838.0 -0.9 838.7 -4.0 835.6 -8.7 835.5 -8.8 832.4 -9.0 815.0 -29.9 813.4 -33.0 679.3 -209.0 367.5 -249.4 365.9 -251.7 359.1 -252.2 357.5 -250.8 224.0 -267.4 212.0 -259.9 185.9 -263.0 174.6 -275.5 107.7 -283.5 97.7 -286.3 83.7 -291.8 65.1 -302.4 46.0 -319.7 -111.1 -475.7 -236.1 -475.7 -251.5 -473.0 -293.5 -458.2 -670.0 -458.0 -720.7 -472.4 -734.5 -475.4 -758.5 -473.6 -779.6 -470.7 -820.5 -461.7 -983.8 -410.4 -1022.5 -400.3 -1048.4 -394.5 -1076.0 -389.7 -1098.7 -388.1 -1126.7 -388.2 -1128.5 -390.5 -1133.9 -390.5 -1135.9 -388.2 -1163.3 -388.2 -1178.5 -387.0 -1193.5 -384.1 -1209.9 -377.6 Q-1215.8 -373.5 -1221.7 -369.5 L-1233.8 -356.6 -1240.4 -347.7 -1247.0 -335.0 -1261.7 -284.4 -1265.0 -268.4 -1268.0 -266.0 -1268.6 -259.9 -1279.7 -232.7 -1269.3 -219.4 -1266.7 -219.1 -1267.6 -215.0 -1308.0 -222.4 -1306.9 -226.9 -1304.5 -226.5 -1285.4 -236.5 -1290.5 -264.1 -1289.3 -269.9 -1290.5 -272.9 -1285.1 -326.7 -1282.7 -339.7 -1278.4 -350.5 -1270.9 -365.7 -1265.2 -374.5 -1255.4 -385.4 -1235.2 -402.5 -1223.2 -409.9 -1213.9 -414.1 -1203.0 -417.8 -1192.0 -420.3 -1180.8 -421.8 -1136.0 -422.3 -1134.1 -420.0 -1128.5 -419.9 -1127.1 -421.7 -1073.7 -423.9 -1050.2 -428.1 -1023.5 -434.5 -984.4 -445.4 -851.1 -488.2 -790.6 -503.4 -773.0 -506.6 -759.1 -508.2 -734.1 -509.1 -716.4 -512.5 -671.0 -526.5 -293.5 -526.5 -251.5 -512.4 -236.1 -508.5 -132.9 -507.4 -117.6 -522.8 -107.0 -522.0 70.0 -343.4 84.3 -332.2 96.5 -325.0 106.8 -320.4 124.5 -317.0 179.0 -309.7 190.9 -317.7 219.3 -314.0 228.0 -304.7 361.4 -285.8 363.2 -283.3 370.9 -282.7 372.2 -284.3 664.0 -245.4 679.2 -257.3 688.2 -256.3 842.7 -55.3 844.9 -53.3 860.9 -31.7 861.0 -31.7 860.2 -28.7 864.2 -23.8 867.6 -23.7 884.3 -2.3 931.7 38.5 1064.4 209.0 1078.0 247.2 1084.8 261.0 1163.0 364.3 1386.6 394.0 1399.4 385.8 1424.8 389.0 1434.4 401.3 1695.9 435.4 1718.9 433.9 1734.5 429.6 1743.3 425.5 1752.0 420.0 1768.7 405.1 1779.0 393.5 1812.7 342.2 1815.5 342.0 1819.3 335.1 1816.3 333.0 1836.0 297.5 1862.5 314.0 1842.3 347.8 1838.8 346.3 1835.0 352.5 1835.2 355.2 1801.9 421.2 1795.7 431.0 1771.5 450.2 1752.5 460.2 1732.4 466.7 1714.2 469.5 1701.0 469.6 1430.3 434.3 1418.3 441.9 1390.6 438.3 1380.5 427.2 1129.2 396.2" fill="#959595" fill-rule="evenodd" stroke="none"/>
    <path d="M-1136.4 -421.5 L-1136.4 -390.0 -1163.7 -390.0 -1163.7 -421.5 -1136.4 -421.5" fill="#6f6f6f" fill-rule="evenodd" stroke="none"/>
    <path d="M357.0 -252.9 L329.9 -256.5 334.0 -287.6 361.1 -284.0 357.0 -252.9" fill="#6f6f6f" fill-rule="evenodd" stroke="none"/>
    <path d="M842.0 -51.9 L858.3 -29.9 833.0 -11.2 816.7 -33.2 842.0 -51.9" fill="#6f6f6f" fill-rule="evenodd" stroke="none"/>
    <path d="M-430.7 -463.4 L-475.7 -463.4 -475.7 -520.8 -430.7 -520.8 -430.7 -463.4" fill="#6f6f6f" fill-rule="evenodd" stroke="none"/>
    <path d="M-505.5 -521.0 L-505.5 -463.6 -515.7 -463.6 -515.7 -521.0 -505.5 -521.0" fill="#6f6f6f" fill-rule="evenodd" stroke="none"/>
    <path d="M-553.8 -498.5 L-416.3 -498.5 -408.7 -493.2 -408.7 -490.2 -416.3 -485.5 -553.8 -485.5 -562.5 -490.2 -562.5 -493.2 -553.8 -498.5" fill="#424242" fill-rule="evenodd" stroke="none"/>
    <path d="M-1268.6 -259.9 L-1268.1 -253.0 -1251.1 -250.0 -1252.3 -242.9 -1167.5 -227.9 -1178.8 -88.8 -1210.2 -91.3 -1207.0 -123.8 -1335.1 -146.4 -1308.0 -251.7 -1306.6 -259.8 -1293.1 -257.4 -1290.5 -264.1 -1268.6 -259.9" fill="#6f6f6f" fill-rule="evenodd" stroke="none"/>
  </g>
</svg>
