<?xml version="1.0" encoding="UTF-8" standalone="no"?>
<svg xmlns:ffdec="https://www.free-decompiler.com/flash" xmlns:xlink="http://www.w3.org/1999/xlink" ffdec:objectType="shape" height="1313.3px" width="1275.7px" xmlns="http://www.w3.org/2000/svg">
  <g transform="matrix(1.0, 0.0, 0.0, 1.0, 1339.4, 599.4)">
    <path d="M-628.8 -282.9 L-406.1 -599.4 -63.7 -359.7 -391.7 118.0 -441.5 400.0 -641.4 364.8 -633.8 321.4 -813.8 186.8 -847.3 376.7 -870.7 372.6 -883.0 442.5 -918.8 436.2 -925.4 473.9 -956.6 468.4 -968.3 534.7 -959.1 536.3 -973.2 616.1 -994.5 612.4 -1009.7 698.4 -1169.2 670.2 -1176.9 713.9 -1339.4 685.2 -1322.1 586.8 -1307.6 589.3 -1274.0 398.6 -1280.9 397.4 -1260.1 279.3 -1266.3 278.3 -1214.5 -15.1 -1007.2 21.9 -1032.7 166.3 -1009.3 170.4 -1006.8 156.0 -1012.7 154.9 -1001.5 91.6 -964.0 98.2 -943.6 -11.9 -912.0 -6.3 -845.5 -67.2 -714.5 -44.1 -659.4 -109.5 -628.8 -282.9" fill="#424242" fill-rule="evenodd" stroke="none"/>
    <path d="M-1179.6 546.0 L-1201.4 669.7 -1277.2 656.3 -1267.2 599.6 -1252.3 602.3 -1240.5 535.3 -1179.6 546.0" fill="#6f6f6f" fill-rule="evenodd" stroke="none"/>
    <path d="M-992.6 176.9 L-956.7 183.3 -984.9 343.0 -1020.8 336.7 -992.6 176.9" fill="#959595" fill-rule="evenodd" stroke="none"/>
    <path d="M-490.8 -142.8 L-490.0 -142.2 -483.2 -151.9 -468.0 -141.3 -466.8 -143.1 -456.0 -135.5 -457.3 -133.8 -455.8 -132.8 -462.6 -123.1 Q-461.4 -122.2 -460.2 -121.4 L-481.3 -91.2 -483.5 -92.7 -486.7 -88.1 -484.5 -86.6 -504.2 -58.4 -498.3 -96.4 -495.2 -100.9 -497.2 -102.3 -490.8 -142.8" fill="#959595" fill-rule="evenodd" stroke="none"/>
    <path d="M-1029.4 600.7 L-1036.3 640.4 -1031.5 641.2 -1037.9 677.7 -1042.8 677.2 -1043.3 680.1 -1073.7 674.7 -1073.2 671.7 -1130.7 661.6 -1117.2 585.2 -1029.4 600.7 M-790.8 156.9 L-782.7 110.9 -744.3 117.6 -743.6 113.5 -685.6 123.7 -686.5 127.8 -676.4 129.6 -681.9 160.9 -702.5 157.2 -706.8 181.9 -760.2 172.4 -758.5 162.6 -790.8 156.9 M-763.6 -31.5 L-691.7 -18.8 -702.3 41.7 -729.7 36.8 -728.9 32.4 -773.5 24.5 -763.6 -31.5 M-907.4 389.4 L-912.3 416.7 -945.6 410.8 -941.8 389.5 -934.4 390.8 -933.3 384.8 -907.4 389.4 M-1033.9 346.3 L-1033.5 344.1 -1020.8 346.3 -1021.2 348.5 -1016.3 349.4 -1031.7 436.3 -1049.7 433.1 -1050.2 436.2 -1032.0 439.4 -1047.4 526.8 -1105.0 516.6 -1101.6 496.9 -1103.7 496.5 -1099.4 470.7 -1097.1 471.1 -1089.7 429.2 -1075.8 431.7 -1075.3 428.6 -1096.5 424.9 -1081.2 337.9 -1033.9 346.3 M-940.5 137.6 L-945.0 163.1 -981.1 156.7 -976.6 131.2 -940.5 137.6 M-304.9 -274.7 L-300.7 -280.6 -306.8 -284.9 -311.0 -279.0 -304.9 -274.7 M-391.6 -296.8 L-374.1 -284.6 -370.5 -289.8 -387.9 -302.1 -391.6 -296.8 M-490.8 -218.4 L-494.6 -221.1 -492.8 -223.6 -496.0 -225.9 -519.0 -193.0 -542.0 -209.1 -543.3 -194.0 -546.3 -194.6 -547.0 -190.6 -518.6 -185.4 -534.2 -98.3 -562.6 -104.3 -563.2 -100.4 -560.1 -99.5 -561.7 -89.5 -566.4 -82.7 -542.6 -66.0 -546.9 -59.9 -544.4 -58.1 -535.4 -71.0 -516.4 -181.9 -506.9 -195.5 -502.1 -192.1 -500.7 -194.0 -505.5 -197.4 -490.8 -218.4 M-432.3 -372.8 L-436.5 -366.9 Q-433.5 -364.7 -430.5 -362.6 L-426.3 -368.5 -432.3 -372.8 M-369.2 -328.6 L-373.4 -322.7 -367.4 -318.5 -363.4 -324.5 -369.2 -328.6 M-203.8 -409.2 L-201.1 -413.2 -166.9 -389.0 -234.0 -293.1 -217.6 -281.7 -263.8 -215.7 -283.6 -229.6 -310.6 -191.5 -334.8 -208.5 -350.6 -210.5 -354.9 -204.2 -359.9 -207.7 -361.9 -204.8 -349.7 -196.3 -391.9 -137.8 -394.4 -121.5 -488.0 12.2 -490.7 10.3 -493.8 14.7 -514.7 0.1 -511.5 -4.3 -529.0 -16.5 -535.7 -6.9 -565.7 -27.7 -551.7 -47.6 -554.2 -49.4 -560.3 -40.6 -587.0 -59.3 -589.2 -56.1 -586.8 -54.4 Q-606.3 -26.3 -625.9 1.7 L-632.2 -2.7 -637.9 5.4 -578.1 47.2 -563.8 26.9 -555.8 32.5 -546.9 19.9 -533.8 29.0 -530.3 24.1 -510.8 37.6 -514.1 42.3 -510.9 44.6 -516.9 53.1 -512.5 56.2 -510.7 53.6 -484.7 71.8 -486.5 74.4 -481.8 77.7 -480.0 75.1 -438.0 104.5 -439.8 107.1 -437.4 108.8 -453.8 132.3 -456.3 130.6 -459.0 134.5 -501.0 105.1 -498.2 101.2 -503.0 97.9 -511.9 110.6 -514.2 109.0 -515.7 111.1 -513.4 112.8 -531.6 138.7 -519.9 146.9 -584.7 239.4 -655.5 189.8 -656.6 191.4 -678.0 176.4 -676.9 174.8 -682.0 171.2 -652.6 129.1 -657.9 125.4 -749.1 109.2 -744.0 80.0 -812.1 68.0 -811.9 66.7 -813.6 66.4 -815.6 77.7 -803.7 79.8 -817.0 156.3 -823.5 155.2 -824.0 158.1 -815.7 159.6 -821.5 192.6 -867.3 184.5 -869.3 195.6 -916.7 187.2 -917.2 190.2 -844.1 203.1 -848.8 229.7 -910.4 218.9 -923.9 295.5 -920.4 296.1 -907.6 223.2 -849.5 233.5 -867.1 333.4 -925.2 323.2 -922.5 307.9 -926.2 307.3 -929.5 326.0 -867.7 336.9 -872.3 362.9 -945.4 350.0 -946.0 353.6 -900.8 361.6 -905.3 387.1 -942.7 380.5 -948.0 410.4 -979.3 404.9 -981.1 415.1 -984.2 414.6 -984.8 417.8 -981.7 418.3 -982.1 420.5 -950.8 426.0 -954.8 449.7 -986.2 444.2 -1003.0 539.9 -998.5 540.7 -1003.9 571.1 -1050.9 562.9 -1050.4 560.0 -1053.1 559.5 -1054.1 565.1 -1004.4 573.9 -1009.1 600.5 -1012.8 599.8 -1013.3 602.2 -1025.4 600.1 -1025.0 597.7 -1116.5 581.5 -1110.8 549.0 -1113.8 548.5 -1114.8 554.4 -1127.0 552.3 -1126.6 550.2 -1148.2 546.4 -1148.5 548.5 -1161.5 546.2 -1161.1 544.1 -1239.6 530.3 -1217.3 403.7 -1222.0 402.9 -1215.0 363.2 -1217.8 362.7 -1212.1 330.0 -1209.2 330.5 -1202.0 289.9 -1195.2 291.1 -1194.5 287.4 -1243.4 278.8 -1237.5 245.3 -1113.4 267.1 -1112.9 264.2 -1110.4 264.6 -1109.9 261.6 -1084.2 266.2 -1084.7 269.2 -1082.3 269.6 -1082.8 272.5 -1077.9 273.4 -1078.2 275.1 -1073.3 276.0 -1073.0 274.3 -1060.1 276.5 -1066.0 310.0 -1078.9 307.7 -1078.5 305.9 -1083.5 305.1 -1083.8 306.9 -1088.7 306.0 -1089.1 308.0 -1119.6 302.6 -1119.3 300.6 -1122.6 300.0 -1123.0 301.9 -1156.8 296.0 -1156.4 294.0 -1168.8 291.9 -1169.4 295.6 -1166.6 296.1 -1173.8 336.7 -1171.2 337.2 -1171.9 341.0 -1168.9 341.5 -1161.1 297.5 -1079.6 311.8 -1080.6 317.6 -1078.5 318.0 -1080.7 330.6 -1082.8 330.3 -1099.4 424.4 -1177.0 410.7 -1170.1 371.1 -1173.9 370.4 -1173.3 366.7 -1176.2 366.1 -1176.9 369.9 -1179.6 369.4 -1189.7 426.7 -1178.7 428.7 -1188.2 483.4 -1171.6 486.4 -1174.0 500.8 -1171.7 504.1 -1154.4 507.1 -1155.6 513.4 -1109.0 521.6 -1109.3 523.4 -1106.3 524.0 -1105.5 519.4 -1047.9 529.5 -1048.7 534.4 -1046.0 534.9 -1045.5 532.4 -1034.9 534.3 -1018.0 438.6 -1021.8 438.0 -1017.7 414.2 -1013.8 414.9 -1013.4 412.7 -1010.4 413.3 -1009.8 410.1 -1012.7 409.5 -1001.2 343.9 -971.7 349.1 -971.1 345.4 -982.2 343.5 -954.1 183.7 -942.9 185.7 -942.4 182.7 -945.7 182.1 -937.9 138.1 -849.7 153.6 -849.2 150.7 -857.3 149.2 -853.9 130.0 -888.6 123.9 -888.3 122.0 -893.7 121.1 -889.5 97.3 -884.1 98.3 -883.1 92.5 -888.5 91.5 -884.3 67.8 -879.0 68.7 -878.5 66.3 -859.0 69.8 -858.0 63.9 -920.3 52.9 -919.6 49.4 -921.5 49.1 -917.1 24.1 -915.2 24.4 -914.6 20.9 -847.3 32.7 -845.7 23.8 -848.5 23.3 -838.0 -36.1 -835.2 -35.6 -834.8 -37.9 -796.3 -31.1 -796.7 -28.8 -793.7 -28.3 -797.4 -7.7 -795.9 -7.5 -798.2 5.4 -799.6 5.2 -804.2 31.2 -807.3 30.6 -809.1 40.8 -807.4 41.1 -807.1 39.7 -738.9 51.7 -736.7 38.7 -668.0 50.7 -670.5 64.5 -634.8 70.8 -639.7 98.8 -634.1 102.7 -631.0 98.3 -571.3 140.1 -539.4 94.5 -537.3 96.0 -535.8 93.9 -537.9 92.4 -530.0 81.2 -534.3 78.0 -559.9 114.5 -691.7 22.2 -666.0 -14.2 -658.4 -9.0 -652.7 -17.1 -663.6 -24.7 -624.4 -80.8 -622.0 -79.1 -619.8 -82.3 Q-624.6 -85.6 -629.4 -89.0 L-625.1 -110.8 -601.7 -106.9 -601.0 -110.8 -631.1 -115.8 -615.1 -203.2 -586.3 -197.8 -585.6 -201.8 -589.3 -202.4 -582.2 -237.3 -596.3 -247.2 -564.4 -292.8 -551.1 -283.4 -524.8 -320.9 -522.2 -319.0 -520.4 -321.5 -489.2 -299.6 -490.9 -297.1 -461.7 -276.6 -474.3 -258.5 -470.3 -255.7 -468.7 -258.1 -428.6 -230.1 -430.3 -227.6 -428.6 -226.4 -450.2 -195.1 -452.1 -196.5 -454.6 -193.0 -461.8 -198.1 -476.6 -177.1 -480.6 -179.9 -481.9 -178.0 -477.9 -175.2 -493.8 -152.4 -491.5 -150.7 -494.9 -145.7 -493.5 -144.7 -500.3 -103.5 -502.9 -99.8 -501.1 -98.5 -507.8 -57.8 -511.0 -53.3 -506.1 -49.8 -444.7 -137.5 -446.0 -138.4 -438.8 -148.8 Q-438.0 -148.4 -437.2 -148.1 L-435.8 -150.1 -433.9 -165.7 -449.2 -176.5 -443.2 -185.1 -448.8 -189.0 -446.4 -192.5 -447.9 -193.6 -426.1 -224.7 -424.6 -223.6 -422.9 -226.0 -417.3 -222.1 -407.2 -236.5 -393.5 -226.9 -391.5 -229.8 -396.4 -233.2 -392.0 -239.5 -398.4 -253.0 -415.1 -264.7 -420.0 -257.7 -483.3 -302.1 -454.7 -342.9 -448.0 -338.2 -445.0 -342.4 -496.9 -378.7 -379.4 -546.6 -345.9 -523.4 -352.2 -514.3 -343.1 -508.1 -336.9 -516.9 -332.8 -514.0 -316.9 -537.0 -293.2 -516.5 -262.9 -499.1 -299.5 -446.9 -284.0 -436.0 -247.4 -488.3 -223.6 -467.7 -194.2 -451.1 -210.1 -428.3 -206.1 -425.5 -213.0 -415.6 -203.8 -409.2" fill="#959595" fill-rule="evenodd" stroke="none"/>
    <path d="M-526.2 171.9 L-523.0 167.4 -477.6 199.2 -532.0 276.9 -540.0 271.3 -577.5 324.9 -685.3 249.1 -649.8 198.3 -586.3 242.8 -592.6 251.8 -585.8 256.6 -577.6 244.6 -582.0 241.5 -530.9 168.5 -526.2 171.9" fill="#959595" fill-rule="evenodd" stroke="none"/>
    <path d="M-1139.9 308.7 L-1138.7 301.4 -1091.1 309.8 -1092.3 317.1 -1139.9 308.7" fill="#6f6f6f" fill-rule="evenodd" stroke="none"/>
    <path d="M-1152.9 308.3 L-1155.6 323.9 -1165.5 322.1 -1162.7 306.5 -1152.9 308.3" fill="#6f6f6f" fill-rule="evenodd" stroke="none"/>
    <path d="M-1160.5 372.6 L-1107.2 382.0 -1109.9 397.6 -1163.3 388.2 -1160.5 372.6" fill="#6f6f6f" fill-rule="evenodd" stroke="none"/>
    <path d="M-943.6 358.0 L-942.9 354.2 -900.8 361.6 -901.5 365.4 -943.6 358.0" fill="#6f6f6f" fill-rule="evenodd" stroke="none"/>
    <path d="M-868.5 191.4 L-869.3 195.6 -912.3 188.0 -911.5 183.8 -868.5 191.4" fill="#6f6f6f" fill-rule="evenodd" stroke="none"/>
    <path d="M-201.5 -409.5 L-199.8 -412.0 -189.1 -404.5 -189.3 -404.2 -184.7 -401.0 -187.2 -397.4 -192.3 -401.1 -191.4 -402.4 -201.5 -409.5" fill="#6f6f6f" fill-rule="evenodd" stroke="none"/>
    <path d="M-367.7 -509.4 L-391.1 -525.8 -382.2 -538.5 -358.8 -522.1 -367.7 -509.4" fill="#6f6f6f" fill-rule="evenodd" stroke="none"/>
    <path d="M-361.9 -533.5 L-361.9 -533.4 Q-360.3 -532.2 -358.7 -531.1 L-360.9 -527.9 -367.1 -532.2 -366.5 -533.0 -375.1 -539.0 -373.4 -541.5 -361.9 -533.5" fill="#6f6f6f" fill-rule="evenodd" stroke="none"/>
    <path d="M-231.0 -382.5 L-216.8 -402.8 -176.9 -374.8 -226.0 -304.6 -234.7 -310.7 -235.0 -310.3 -269.8 -334.7 -270.1 -334.2 -279.5 -340.8 -270.0 -354.4 Q-265.7 -351.3 -261.4 -348.3 L-260.0 -350.4 -256.7 -348.1 -246.4 -362.8 -225.1 -347.9 -210.8 -368.4 -231.0 -382.5" fill="#6f6f6f" fill-rule="evenodd" stroke="none"/>
    <path d="M-352.5 -338.6 L-359.7 -325.0 -369.5 -330.3 -362.2 -343.8 -352.5 -338.6" fill="#6f6f6f" fill-rule="evenodd" stroke="none"/>
    <path d="M-441.6 -384.4 L-431.9 -379.2 -441.3 -361.7 -451.0 -366.9 -441.6 -384.4" fill="#6f6f6f" fill-rule="evenodd" stroke="none"/>
    <path d="M-412.6 -375.8 L-418.4 -366.1 -433.0 -374.9 -427.2 -384.6 -412.6 -375.8" fill="#6f6f6f" fill-rule="evenodd" stroke="none"/>
    <path d="M-443.8 -454.7 L-415.6 -434.9 -436.3 -405.5 -464.4 -425.2 -443.8 -454.7" fill="#6f6f6f" fill-rule="evenodd" stroke="none"/>
    <path d="M-406.5 -507.9 L-399.3 -518.1 -388.4 -510.5 -395.6 -500.2 -406.5 -507.9" fill="#6f6f6f" fill-rule="evenodd" stroke="none"/>
    <path d="M-378.9 -487.4 L-379.0 -487.3 -368.4 -480.2 -377.8 -466.2 -377.9 -466.2 -387.5 -452.5 -397.3 -459.4 -387.8 -472.9 -388.7 -473.5 -394.7 -464.8 -403.3 -470.9 -409.9 -461.5 -418.9 -467.8 Q-419.3 -467.1 -419.8 -466.5 L-426.9 -471.5 -419.3 -464.1 -427.1 -456.2 -435.0 -463.9 -427.2 -471.8 -428.4 -472.5 -421.8 -482.0 -413.2 -476.0 -412.3 -477.2 -422.8 -484.6 -407.1 -507.1 -378.9 -487.4" fill="#6f6f6f" fill-rule="evenodd" stroke="none"/>
    <path d="M-268.9 -314.7 Q-263.8 -311.8 -258.7 -309.0 L-266.9 -294.6 -277.1 -300.4 -268.9 -314.7" fill="#6f6f6f" fill-rule="evenodd" stroke="none"/>
    <path d="M-246.9 -301.5 L-246.6 -301.9 -217.6 -281.7 -263.8 -215.7 -275.8 -224.1 -260.3 -246.2 -262.8 -247.9 -252.4 -262.7 -267.0 -272.9 -256.8 -287.4 -266.6 -294.3 -256.7 -308.4 -246.9 -301.5" fill="#6f6f6f" fill-rule="evenodd" stroke="none"/>
    <path d="M-471.7 -414.8 L-463.6 -409.1 -469.1 -418.5 -461.2 -422.1 -454.6 -410.0 -460.3 -406.8 -443.0 -394.7 -468.2 -358.7 -496.9 -378.7 -471.7 -414.8" fill="#6f6f6f" fill-rule="evenodd" stroke="none"/>
    <path d="M-418.4 -259.9 L-439.8 -274.9 -431.6 -286.6 -410.2 -271.6 -418.4 -259.9" fill="#6f6f6f" fill-rule="evenodd" stroke="none"/>
    <path d="M-391.8 -157.4 L-386.5 -165.1 -378.8 -159.7 -384.2 -152.1 -391.8 -157.4" fill="#6f6f6f" fill-rule="evenodd" stroke="none"/>
    <path d="M-402.2 -143.4 L-394.5 -156.5 -385.5 -151.2 -393.1 -138.1 -402.2 -143.4" fill="#6f6f6f" fill-rule="evenodd" stroke="none"/>
    <path d="M-519.9 -184.9 L-522.1 -173.3 -533.8 -175.5 -531.6 -187.1 -519.9 -184.9" fill="#6f6f6f" fill-rule="evenodd" stroke="none"/>
    <path d="M-522.3 -172.3 L-524.4 -160.7 -536.2 -162.9 -534.0 -174.5 -522.3 -172.3" fill="#6f6f6f" fill-rule="evenodd" stroke="none"/>
    <path d="M-525.4 -160.1 L-527.5 -149.1 -538.2 -151.1 -536.1 -162.1 -525.4 -160.1" fill="#6f6f6f" fill-rule="evenodd" stroke="none"/>
    <path d="M-604.6 -179.6 L-606.7 -168.6 -618.7 -170.9 -616.7 -181.9 -604.6 -179.6" fill="#6f6f6f" fill-rule="evenodd" stroke="none"/>
    <path d="M-602.9 -194.3 L-605.0 -183.3 -617.0 -185.5 -614.9 -196.6 -602.9 -194.3" fill="#6f6f6f" fill-rule="evenodd" stroke="none"/>
    <path d="M-609.9 -155.4 L-621.9 -157.6 -619.8 -168.7 -607.8 -166.4 -609.9 -155.4" fill="#6f6f6f" fill-rule="evenodd" stroke="none"/>
    <path d="M-609.8 -154.3 L-611.8 -143.3 -623.8 -145.6 -621.8 -156.6 -609.8 -154.3" fill="#6f6f6f" fill-rule="evenodd" stroke="none"/>
    <path d="M-612.3 -141.4 L-614.4 -130.4 -626.4 -132.7 -624.3 -143.7 -612.3 -141.4" fill="#6f6f6f" fill-rule="evenodd" stroke="none"/>
    <path d="M-615.0 -128.3 L-617.1 -117.2 -629.1 -119.5 -627.0 -130.5 -615.0 -128.3" fill="#6f6f6f" fill-rule="evenodd" stroke="none"/>
    <path d="M-544.8 -114.8 L-532.8 -112.5 -535.2 -100.0 -547.2 -102.3 -544.8 -114.8" fill="#6f6f6f" fill-rule="evenodd" stroke="none"/>
    <path d="M-610.2 -105.4 L-614.4 -93.4 -627.0 -97.8 -622.9 -109.8 -610.2 -105.4" fill="#6f6f6f" fill-rule="evenodd" stroke="none"/>
    <path d="M-602.1 -130.3 L-600.7 -118.4 -612.8 -117.0 -614.3 -128.8 -602.1 -130.3" fill="#6f6f6f" fill-rule="evenodd" stroke="none"/>
    <path d="M-464.0 -291.4 L-479.6 -302.3 -461.5 -328.3 -445.9 -317.4 -464.0 -291.4" fill="#6f6f6f" fill-rule="evenodd" stroke="none"/>
    <path d="M-480.2 -273.0 L-472.7 -283.7 -462.9 -276.8 -470.4 -266.1 -480.2 -273.0" fill="#6f6f6f" fill-rule="evenodd" stroke="none"/>
    <path d="M-553.8 -283.0 L-560.8 -272.9 -571.2 -280.2 -564.1 -290.3 -553.8 -283.0" fill="#6f6f6f" fill-rule="evenodd" stroke="none"/>
    <path d="M-561.6 -271.8 L-575.7 -251.6 -586.1 -258.9 -572.0 -279.1 -561.6 -271.8" fill="#6f6f6f" fill-rule="evenodd" stroke="none"/>
    <path d="M-576.3 -250.8 L-583.4 -240.7 -593.8 -248.0 -586.7 -258.1 -576.3 -250.8" fill="#6f6f6f" fill-rule="evenodd" stroke="none"/>
    <path d="M-541.1 -209.9 L-534.0 -220.0 -523.6 -212.7 -530.7 -202.6 -541.1 -209.9" fill="#6f6f6f" fill-rule="evenodd" stroke="none"/>
    <path d="M-512.4 -204.9 L-519.5 -194.8 -529.9 -202.0 -522.8 -212.1 -512.4 -204.9" fill="#6f6f6f" fill-rule="evenodd" stroke="none"/>
    <path d="M-463.0 -91.3 L-472.4 -77.9 -481.8 -84.5 -472.4 -97.9 -463.0 -91.3" fill="#6f6f6f" fill-rule="evenodd" stroke="none"/>
    <path d="M-485.5 -104.3 L-486.0 -102.0 -487.7 -100.4 -490.0 -99.9 -492.2 -100.7 -493.6 -102.6 -493.7 -105.0 -492.6 -107.0 Q-491.5 -107.5 -490.5 -108.1 L-488.2 -108.0 -486.3 -106.5 -485.5 -104.3" fill="#6f6f6f" fill-rule="evenodd" stroke="none"/>
    <path d="M-478.0 -135.3 L-480.2 -136.1 -481.6 -138.0 -481.8 -140.3 -480.6 -142.4 Q-479.5 -142.9 -478.5 -143.5 L-476.2 -143.3 -474.3 -141.9 -473.5 -139.7 -474.0 -137.4 -475.7 -135.8 -478.0 -135.3" fill="#6f6f6f" fill-rule="evenodd" stroke="none"/>
    <path d="M-487.0 -94.6 L-487.5 -92.3 -489.2 -90.7 -491.5 -90.2 -493.7 -91.0 -495.1 -92.9 -495.2 -95.3 -494.1 -97.3 Q-493.0 -97.8 -492.0 -98.4 L-489.7 -98.2 -487.8 -96.8 -487.0 -94.6" fill="#6f6f6f" fill-rule="evenodd" stroke="none"/>
    <path d="M-486.8 -86.2 L-487.1 -84.6 -488.3 -83.5 -489.9 -83.1 -491.4 -83.7 -492.4 -85.1 -492.5 -86.7 -491.7 -88.2 -490.3 -88.9 -488.7 -88.8 -487.4 -87.8 -486.8 -86.2" fill="#6f6f6f" fill-rule="evenodd" stroke="none"/>
    <path d="M-489.6 -140.6 L-488.8 -142.0 -487.4 -142.8 -485.7 -142.7 -484.4 -141.7 -483.8 -140.1 -484.2 -138.5 -485.4 -137.4 -487.0 -137.0 -488.5 -137.6 -489.5 -139.0 -489.6 -140.6" fill="#6f6f6f" fill-rule="evenodd" stroke="none"/>
    <path d="M-481.6 -148.5 L-480.3 -147.5 -479.7 -146.0 -480.1 -144.4 -481.2 -143.2 -482.8 -142.9 -484.4 -143.5 -485.4 -144.8 -485.5 -146.5 -484.7 -147.9 -483.2 -148.7 -481.6 -148.5" fill="#6f6f6f" fill-rule="evenodd" stroke="none"/>
    <path d="M-527.0 175.1 L-522.1 168.0 -485.5 193.7 -490.5 200.8 -527.0 175.1" fill="#6f6f6f" fill-rule="evenodd" stroke="none"/>
    <path d="M-506.7 225.6 L-490.8 203.0 -484.8 207.2 -500.7 229.8 -506.7 225.6" fill="#6f6f6f" fill-rule="evenodd" stroke="none"/>
    <path d="M-546.3 267.5 L-541.1 271.1 -558.7 296.2 -563.9 292.6 -546.3 267.5" fill="#6f6f6f" fill-rule="evenodd" stroke="none"/>
    <path d="M-570.7 312.7 L-577.3 322.2 -618.6 293.4 -611.9 283.8 -570.7 312.7" fill="#6f6f6f" fill-rule="evenodd" stroke="none"/>
    <path d="M-677.3 238.4 L-615.6 281.6 -622.3 291.2 -684.0 247.9 -677.3 238.4" fill="#6f6f6f" fill-rule="evenodd" stroke="none"/>
    <path d="M-649.0 185.8 L-645.9 187.9 -650.0 193.7 -653.0 191.5 -649.0 185.8" fill="#6f6f6f" fill-rule="evenodd" stroke="none"/>
    <path d="M-532.9 275.3 L-542.4 268.6 -528.3 248.4 -520.0 254.1 -516.6 249.2 -525.4 243.1 -511.2 222.9 -501.7 229.5 -507.8 238.3 -506.4 239.2 -520.8 259.7 -521.6 259.1 -532.9 275.3" fill="#6f6f6f" fill-rule="evenodd" stroke="none"/>
    <path d="M-694.2 -5.8 L-695.6 2.6 -703.7 1.2 -702.3 -7.2 -694.2 -5.8" fill="#6f6f6f" fill-rule="evenodd" stroke="none"/>
    <path d="M-705.1 10.3 L-703.6 2.0 -695.5 3.4 -697.0 11.8 -705.1 10.3" fill="#6f6f6f" fill-rule="evenodd" stroke="none"/>
    <path d="M-697.5 13.4 L-699.0 21.8 -707.1 20.4 -705.7 12.0 -697.5 13.4" fill="#6f6f6f" fill-rule="evenodd" stroke="none"/>
    <path d="M-708.3 29.8 L-706.8 21.5 -698.7 22.9 -700.2 31.3 -708.3 29.8" fill="#6f6f6f" fill-rule="evenodd" stroke="none"/>
    <path d="M-729.7 31.6 L-748.1 28.4 -746.7 20.3 -728.2 23.5 -729.7 31.6" fill="#6f6f6f" fill-rule="evenodd" stroke="none"/>
    <path d="M-753.4 -17.0 L-751.6 -26.8 -734.9 -23.8 -734.6 -25.6 -710.7 -21.4 -711.0 -19.6 -703.9 -18.4 -705.6 -8.5 -753.4 -17.0" fill="#6f6f6f" fill-rule="evenodd" stroke="none"/>
    <path d="M-678.7 115.5 L-679.6 120.8 -684.9 119.8 -684.0 114.6 -678.7 115.5" fill="#6f6f6f" fill-rule="evenodd" stroke="none"/>
    <path d="M-689.7 156.9 L-685.1 130.3 -676.8 131.8 -681.5 158.3 -689.7 156.9" fill="#6f6f6f" fill-rule="evenodd" stroke="none"/>
    <path d="M-758.2 170.6 L-756.4 160.7 -709.5 169.0 -711.2 178.8 -758.2 170.6" fill="#6f6f6f" fill-rule="evenodd" stroke="none"/>
    <path d="M-790.0 157.2 L-788.5 148.6 -761.2 153.4 -762.7 162.0 -790.0 157.2" fill="#6f6f6f" fill-rule="evenodd" stroke="none"/>
    <path d="M-861.5 288.1 L-862.2 292.3 -859.9 292.7 -862.1 304.9 -864.4 304.5 -864.9 307.8 -880.7 305.0 -877.2 285.3 -861.5 288.1" fill="#6f6f6f" fill-rule="evenodd" stroke="none"/>
    <path d="M-865.4 308.7 L-866.1 312.6 -863.5 313.1 -865.6 325.2 -868.3 324.8 -868.9 328.4 -884.7 325.6 -881.2 305.9 -865.4 308.7" fill="#6f6f6f" fill-rule="evenodd" stroke="none"/>
    <path d="M-853.4 236.7 L-854.1 240.6 -850.8 241.2 -853.0 253.4 -856.3 252.8 -856.9 256.4 -872.6 253.6 -869.2 233.9 -853.4 236.7" fill="#6f6f6f" fill-rule="evenodd" stroke="none"/>
    <path d="M-862.4 226.2 L-861.7 218.9 -848.6 220.0 -849.2 227.4 -862.4 226.2" fill="#6f6f6f" fill-rule="evenodd" stroke="none"/>
    <path d="M-854.8 217.5 L-853.7 204.4 -846.4 205.0 -847.5 218.2 -854.8 217.5" fill="#6f6f6f" fill-rule="evenodd" stroke="none"/>
    <path d="M-913.0 199.1 L-911.8 192.2 -907.1 193.0 -908.4 199.9 -913.0 199.1" fill="#6f6f6f" fill-rule="evenodd" stroke="none"/>
    <path d="M-893.5 146.4 L-894.7 153.3 -899.4 152.5 -898.2 145.6 -893.5 146.4" fill="#6f6f6f" fill-rule="evenodd" stroke="none"/>
    <path d="M-916.2 272.0 L-913.4 256.1 -890.1 260.2 -892.9 276.1 -916.2 272.0" fill="#6f6f6f" fill-rule="evenodd" stroke="none"/>
    <path d="M-908.0 225.5 L-890.6 228.6 -892.3 238.6 -909.7 235.6 -908.0 225.5" fill="#6f6f6f" fill-rule="evenodd" stroke="none"/>
    <path d="M-924.7 320.7 L-923.0 310.6 -906.3 313.6 -908.1 323.6 -924.7 320.7" fill="#6f6f6f" fill-rule="evenodd" stroke="none"/>
    <path d="M-1004.4 315.6 L-1008.0 336.2 -1019.5 334.2 -1015.9 313.6 -1004.4 315.6" fill="#6f6f6f" fill-rule="evenodd" stroke="none"/>
    <path d="M-917.1 379.8 L-912.1 367.8 -904.2 371.1 -909.2 383.1 -917.1 379.8" fill="#6f6f6f" fill-rule="evenodd" stroke="none"/>
    <path d="M-999.9 290.0 L-1003.5 310.6 -1015.0 308.5 -1011.4 288.0 -999.9 290.0" fill="#6f6f6f" fill-rule="evenodd" stroke="none"/>
    <path d="M-986.3 213.2 L-990.0 233.8 -1001.5 231.7 -997.8 211.1 -986.3 213.2" fill="#6f6f6f" fill-rule="evenodd" stroke="none"/>
    <path d="M-982.2 189.5 L-985.8 210.1 -997.3 208.1 -993.7 187.5 -982.2 189.5" fill="#6f6f6f" fill-rule="evenodd" stroke="none"/>
    <path d="M-994.8 261.4 L-998.5 282.0 -1010.0 280.0 -1006.4 259.4 -994.8 261.4" fill="#6f6f6f" fill-rule="evenodd" stroke="none"/>
    <path d="M-939.2 351.1 L-937.9 343.2 -933.5 344.0 -934.9 351.8 -939.2 351.1" fill="#6f6f6f" fill-rule="evenodd" stroke="none"/>
    <path d="M-882.2 148.4 L-883.4 155.3 -888.1 154.5 -886.8 147.6 -882.2 148.4" fill="#6f6f6f" fill-rule="evenodd" stroke="none"/>
    <path d="M-859.2 271.7 L-860.3 274.1 -862.8 275.2 -865.3 274.5 -866.8 272.4 -866.6 269.7 -864.7 267.8 -862.1 267.6 -859.9 269.1 -859.2 271.7" fill="#6f6f6f" fill-rule="evenodd" stroke="none"/>
    <path d="M-860.8 258.7 L-858.6 260.2 -857.9 262.8 -859.0 265.2 -861.4 266.3 -864.0 265.6 -865.5 263.5 -865.3 260.8 -863.4 258.9 -860.8 258.7" fill="#6f6f6f" fill-rule="evenodd" stroke="none"/>
    <path d="M-975.7 186.0 L-973.8 184.1 -971.2 183.9 -969.0 185.4 -968.3 188.0 -969.5 190.4 -971.9 191.5 -974.4 190.8 -976.0 188.6 -975.7 186.0" fill="#6f6f6f" fill-rule="evenodd" stroke="none"/>
    <path d="M-967.1 187.5 L-965.2 185.6 -962.6 185.4 -960.4 186.9 -959.7 189.5 -960.9 191.9 -963.3 193.0 -965.8 192.3 -967.3 190.2 -967.1 187.5" fill="#6f6f6f" fill-rule="evenodd" stroke="none"/>
    <path d="M-886.6 229.6 L-884.8 230.9 -884.2 233.1 -885.2 235.1 -887.2 236.1 -889.4 235.5 -890.7 233.6 -890.5 231.4 -888.9 229.8 -886.6 229.6" fill="#6f6f6f" fill-rule="evenodd" stroke="none"/>
    <path d="M-878.8 231.0 L-876.9 232.3 -876.3 234.5 -877.3 236.5 -879.3 237.5 -881.5 236.9 -882.8 235.0 -882.6 232.8 -881.0 231.2 -878.8 231.0" fill="#6f6f6f" fill-rule="evenodd" stroke="none"/>
    <path d="M-867.1 279.9 L-865.5 278.3 -863.2 278.1 -861.4 279.4 -860.8 281.6 -861.7 283.7 -863.8 284.6 -866.0 284.1 -867.3 282.2 -867.1 279.9" fill="#6f6f6f" fill-rule="evenodd" stroke="none"/>
    <path d="M-962.1 448.4 L-957.9 424.7 -950.5 426.0 -954.7 449.7 -962.1 448.4" fill="#6f6f6f" fill-rule="evenodd" stroke="none"/>
    <path d="M-1024.3 474.5 L-1018.9 443.9 -1011.5 445.2 -1016.9 475.8 -1024.3 474.5" fill="#6f6f6f" fill-rule="evenodd" stroke="none"/>
    <path d="M-1032.3 519.8 L-1026.9 489.2 -1019.8 490.5 -1025.2 521.1 -1032.3 519.8" fill="#6f6f6f" fill-rule="evenodd" stroke="none"/>
    <path d="M-1072.6 675.5 L-1070.9 666.1 -1056.2 668.7 -1057.8 678.1 -1072.6 675.5" fill="#6f6f6f" fill-rule="evenodd" stroke="none"/>
    <path d="M-1126.4 637.3 L-1123.7 621.9 -1116.2 623.3 -1118.9 638.6 -1126.4 637.3" fill="#6f6f6f" fill-rule="evenodd" stroke="none"/>
    <path d="M-1047.8 636.7 L-1042.2 624.8 -1035.3 628.0 -1040.9 639.9 -1047.8 636.7" fill="#6f6f6f" fill-rule="evenodd" stroke="none"/>
    <path d="M-1006.4 375.6 L-1005.6 371.1 -998.2 372.4 -999.0 376.9 -1006.4 375.6" fill="#6f6f6f" fill-rule="evenodd" stroke="none"/>
    <path d="M-996.1 360.6 L-996.9 365.1 -1004.3 363.8 -1003.5 359.3 -996.1 360.6" fill="#6f6f6f" fill-rule="evenodd" stroke="none"/>
    <path d="M-1065.0 601.8 L-1065.9 607.0 -1077.0 605.1 -1078.8 615.4 -1059.4 618.8 -1062.4 636.0 -1084.2 632.2 -1082.7 623.3 -1098.1 620.6 -1098.4 622.6 -1106.5 621.2 -1105.5 615.3 -1097.4 616.7 -1097.8 619.1 -1082.4 621.9 -1081.5 616.7 -1081.6 616.7 -1079.4 604.6 -1079.6 604.6 -1078.7 599.4 -1065.0 601.8" fill="#6f6f6f" fill-rule="evenodd" stroke="none"/>
    <path d="M-1112.2 602.5 L-1110.2 604.3 -1109.9 607.1 -1111.4 609.4 -1114.0 610.2 -1116.5 609.1 -1117.8 606.7 -1117.2 604.0 -1115.0 602.3 -1112.2 602.5" fill="#6f6f6f" fill-rule="evenodd" stroke="none"/>
    <path d="M-1113.7 593.4 L-1110.9 593.6 -1108.9 595.4 -1108.5 598.2 -1110.0 600.5 -1112.7 601.3 -1115.2 600.2 -1116.5 597.8 -1115.9 595.1 -1113.7 593.4" fill="#6f6f6f" fill-rule="evenodd" stroke="none"/>
    <path d="M-1033.2 602.4 L-1032.9 605.2 -1034.3 607.5 -1037.0 608.3 -1039.5 607.2 -1040.8 604.8 -1040.2 602.1 -1038.0 600.4 -1035.2 600.6 -1033.2 602.4" fill="#6f6f6f" fill-rule="evenodd" stroke="none"/>
    <path d="M-1035.6 615.9 L-1037.6 615.1 -1038.5 613.3 -1038.1 611.2 -1036.4 609.9 -1034.3 610.1 -1032.8 611.5 -1032.5 613.6 -1033.6 615.3 -1035.6 615.9" fill="#6f6f6f" fill-rule="evenodd" stroke="none"/>
    <path d="M-1037.7 616.3 L-1036.1 617.7 -1035.9 619.8 -1037.0 621.6 -1039.0 622.2 -1041.0 621.4 -1041.9 619.5 -1041.5 617.5 -1039.8 616.2 -1037.7 616.3" fill="#6f6f6f" fill-rule="evenodd" stroke="none"/>
    <path d="M-1095.9 509.3 L-1098.5 508.2 -1099.7 505.8 -1099.1 503.1 -1096.9 501.4 -1094.2 501.6 -1092.2 503.4 -1091.8 506.2 -1093.3 508.5 -1095.9 509.3" fill="#6f6f6f" fill-rule="evenodd" stroke="none"/>
    <path d="M-1049.8 519.3 L-1049.4 522.0 -1050.9 524.3 -1053.6 525.2 -1056.1 524.1 -1057.3 521.6 -1056.7 518.9 -1054.5 517.3 -1051.8 517.4 -1049.8 519.3" fill="#6f6f6f" fill-rule="evenodd" stroke="none"/>
    <path d="M-1038.6 441.3 L-1036.6 443.2 -1036.2 445.9 -1037.7 448.2 -1040.4 449.0 -1042.9 448.0 -1044.2 445.5 -1043.6 442.8 -1041.4 441.2 -1038.6 441.3" fill="#6f6f6f" fill-rule="evenodd" stroke="none"/>
    <path d="M-1082.3 432.6 L-1080.2 434.5 -1079.9 437.2 -1081.4 439.5 -1084.0 440.3 -1086.6 439.3 -1087.8 436.8 -1087.2 434.1 -1085.0 432.4 -1082.3 432.6" fill="#6f6f6f" fill-rule="evenodd" stroke="none"/>
    <path d="M-1099.3 415.6 L-1098.9 418.4 -1100.4 420.7 -1103.0 421.5 -1105.6 420.4 -1106.9 418.0 -1106.2 415.3 -1104.0 413.6 -1101.3 413.7 -1099.3 415.6" fill="#6f6f6f" fill-rule="evenodd" stroke="none"/>
    <path d="M-1073.9 341.9 L-1071.9 343.8 -1071.5 346.5 -1073.0 348.8 -1075.7 349.6 -1078.2 348.6 -1079.5 346.1 -1078.8 343.4 -1076.6 341.8 -1073.9 341.9" fill="#6f6f6f" fill-rule="evenodd" stroke="none"/>
    <path d="M-1092.6 416.9 L-1090.4 415.3 -1087.6 415.4 -1085.6 417.3 -1085.2 420.0 -1086.7 422.3 -1089.4 423.1 -1091.9 422.1 -1093.2 419.6 -1092.6 416.9" fill="#6f6f6f" fill-rule="evenodd" stroke="none"/>
    <path d="M-1034.5 432.6 L-1037.1 433.4 -1039.6 432.3 -1040.9 429.8 -1040.3 427.2 -1038.1 425.5 -1035.3 425.6 -1033.3 427.5 -1033.0 430.2 -1034.5 432.6" fill="#6f6f6f" fill-rule="evenodd" stroke="none"/>
    <path d="M-1048.7 502.4 L-1046.6 502.5 -1045.0 504.0 -1044.8 506.1 -1045.9 507.8 -1047.9 508.4 -1049.8 507.6 -1050.8 505.8 -1050.3 503.7 -1048.7 502.4" fill="#6f6f6f" fill-rule="evenodd" stroke="none"/>
    <path d="M-1037.6 450.1 L-1036.0 451.5 -1035.8 453.6 -1036.9 455.3 -1038.9 455.9 -1040.8 455.1 -1041.8 453.3 -1041.3 451.2 -1039.7 450.0 -1037.6 450.1" fill="#6f6f6f" fill-rule="evenodd" stroke="none"/>
    <path d="M-1047.0 432.7 L-1048.0 430.8 -1047.5 428.8 -1045.9 427.5 -1043.8 427.6 -1042.2 429.1 -1042.0 431.2 -1043.1 432.9 -1045.1 433.5 -1047.0 432.7" fill="#6f6f6f" fill-rule="evenodd" stroke="none"/>
    <path d="M-1035.1 415.3 L-1034.6 413.3 -1033.0 412.0 -1030.9 412.1 -1029.3 413.6 -1029.1 415.7 -1030.2 417.4 -1032.2 418.0 -1034.2 417.2 -1035.1 415.3" fill="#6f6f6f" fill-rule="evenodd" stroke="none"/>
    <path d="M-1083.1 420.0 L-1081.0 420.1 -1079.5 421.5 -1079.2 423.6 -1080.3 425.3 -1082.4 425.9 -1084.3 425.1 -1085.2 423.3 -1084.8 421.2 -1083.1 420.0" fill="#6f6f6f" fill-rule="evenodd" stroke="none"/>
    <path d="M-1089.6 408.4 L-1088.1 409.8 -1087.8 411.9 -1089.0 413.7 -1091.0 414.3 -1092.9 413.5 -1093.8 411.6 -1093.4 409.5 -1091.7 408.3 -1089.6 408.4" fill="#6f6f6f" fill-rule="evenodd" stroke="none"/>
    <path d="M-1150.1 299.5 L-1148.6 300.9 -1148.3 303.0 -1149.5 304.7 -1151.5 305.4 -1153.4 304.5 -1154.4 302.7 -1153.9 300.6 -1152.2 299.4 -1150.1 299.5" fill="#6f6f6f" fill-rule="evenodd" stroke="none"/>
    <path d="M-1155.3 301.2 L-1155.0 303.3 -1156.1 305.1 -1158.1 305.7 -1160.1 304.9 -1161.0 303.0 -1160.6 301.0 -1158.9 299.7 -1156.8 299.8 -1155.3 301.2" fill="#6f6f6f" fill-rule="evenodd" stroke="none"/>
    <path d="M-1112.4 416.3 L-1110.3 416.4 -1108.8 417.8 -1108.5 419.9 -1109.7 421.7 -1111.7 422.3 -1113.6 421.5 -1114.6 419.6 -1114.1 417.6 -1112.4 416.3" fill="#6f6f6f" fill-rule="evenodd" stroke="none"/>
    <path d="M-1108.3 409.2 L-1106.7 410.6 -1106.5 412.7 -1107.6 414.4 -1109.6 415.0 -1111.6 414.2 -1112.5 412.4 -1112.0 410.3 -1110.4 409.0 -1108.3 409.2" fill="#6f6f6f" fill-rule="evenodd" stroke="none"/>
    <path d="M-1047.5 510.5 L-1045.9 511.9 -1045.7 514.0 -1046.8 515.8 -1048.8 516.4 -1050.7 515.6 -1051.7 513.7 -1051.2 511.7 -1049.6 510.4 -1047.5 510.5" fill="#6f6f6f" fill-rule="evenodd" stroke="none"/>
    <path d="M-1113.5 587.2 L-1112.0 588.6 -1111.7 590.7 -1112.9 592.5 -1114.9 593.1 -1116.8 592.3 -1117.8 590.4 -1117.3 588.4 -1115.6 587.1 -1113.5 587.2" fill="#6f6f6f" fill-rule="evenodd" stroke="none"/>
    <path d="M-1119.3 612.1 L-1117.2 612.2 -1115.6 613.6 -1115.4 615.7 -1116.5 617.5 -1118.5 618.1 -1120.5 617.3 -1121.4 615.4 -1120.9 613.4 -1119.3 612.1" fill="#6f6f6f" fill-rule="evenodd" stroke="none"/>
    <path d="M-1119.1 663.6 L-1116.4 648.1 -1094.4 652.0 -1097.2 667.5 -1119.1 663.6" fill="#6f6f6f" fill-rule="evenodd" stroke="none"/>
    <path d="M-1104.8 580.3 L-1102.1 573.3 -1090.3 578.0 -1093.0 584.9 -1104.8 580.3" fill="#6f6f6f" fill-rule="evenodd" stroke="none"/>
    <path d="M-1093.7 652.1 L-1071.8 656.0 -1074.5 671.5 -1096.4 667.6 -1093.7 652.1" fill="#6f6f6f" fill-rule="evenodd" stroke="none"/>
    <path d="M-1199.1 656.6 L-1201.4 669.7 -1277.2 656.3 -1274.9 643.3 -1199.1 656.6" fill="#6f6f6f" fill-rule="evenodd" stroke="none"/>
    <path d="M-1232.4 537.3 L-1240.6 583.8 -1248.9 582.3 -1240.7 535.8 -1232.4 537.3" fill="#6f6f6f" fill-rule="evenodd" stroke="none"/>
    <path d="M-1188.6 552.4 L-1188.5 551.9 -1180.6 553.3 -1191.6 615.6 -1191.9 615.5 -1192.0 616.3 -1199.8 614.9 -1188.8 552.3 -1188.6 552.4" fill="#6f6f6f" fill-rule="evenodd" stroke="none"/>
    <path d="M-1204.6 542.4 L-1205.4 547.1 -1222.2 544.2 -1221.3 539.5 -1204.6 542.4" fill="#6f6f6f" fill-rule="evenodd" stroke="none"/>
    <path d="M-1219.1 568.6 L-1207.1 570.7 -1206.8 570.7 -1210.4 590.9 -1222.7 588.8 -1219.1 568.6" fill="#6f6f6f" fill-rule="evenodd" stroke="none"/>
    <path d="M-1258.5 627.6 L-1271.7 625.3 -1267.3 600.3 -1254.1 602.7 -1258.5 627.6" fill="#6f6f6f" fill-rule="evenodd" stroke="none"/>
    <path d="M-1221.5 637.8 L-1241.5 636.3 -1240.7 625.4 -1220.7 626.8 -1221.5 637.8" fill="#6f6f6f" fill-rule="evenodd" stroke="none"/>
    <path d="M-1220.1 634.0 L-1219.5 626.1 -1205.9 627.1 -1206.4 635.0 -1220.1 634.0" fill="#6f6f6f" fill-rule="evenodd" stroke="none"/>
    <path d="M-1239.9 585.6 L-1243.7 598.1 -1250.9 595.8 -1247.1 583.4 -1239.9 585.6" fill="#6f6f6f" fill-rule="evenodd" stroke="none"/>
    <path d="M-1175.9 403.2 L-1128.6 411.6 -1129.8 418.5 -1177.1 410.1 -1175.9 403.2" fill="#6f6f6f" fill-rule="evenodd" stroke="none"/>
    <path d="M-1103.5 411.3 L-1101.8 404.9 -1096.6 406.3 -1098.4 412.7 -1103.5 411.3" fill="#6f6f6f" fill-rule="evenodd" stroke="none"/>
    <path d="M-1045.7 344.3 L-1048.4 359.7 -1071.1 355.7 -1068.3 340.3 -1045.7 344.3" fill="#6f6f6f" fill-rule="evenodd" stroke="none"/>
    <path d="M-1056.7 381.9 L-1051.8 382.8 -1053.9 394.9 -1042.8 396.9 -1039.3 377.2 -1022.9 380.1 -1026.8 402.1 -1035.3 400.6 -1038.0 416.0 -1036.1 416.4 -1037.4 424.2 -1044.0 423.1 -1042.6 415.2 -1041.0 415.5 -1038.3 400.1 -1059.3 396.4 -1056.7 381.9" fill="#6f6f6f" fill-rule="evenodd" stroke="none"/>
    <path d="M-1073.9 475.4 L-1069.0 476.2 -1071.1 488.4 -1059.9 490.3 -1056.5 470.6 -1040.0 473.5 -1043.9 495.5 -1052.5 494.0 -1055.2 509.5 -1053.2 509.8 -1054.6 517.7 -1061.2 516.5 -1059.8 508.7 -1058.1 508.9 -1055.4 493.5 -1076.4 489.8 -1073.9 475.4" fill="#6f6f6f" fill-rule="evenodd" stroke="none"/>
    <path d="M-324.2 -257.4 L-326.4 -258.1 -327.3 -260.2 -326.1 -262.2 -323.8 -262.5 -322.2 -261.0 -322.3 -258.7 -324.2 -257.4" fill="#6f6f6f" fill-rule="evenodd" stroke="none"/>
    <path d="M-323.3 -263.9 L-325.5 -264.5 -326.3 -266.7 -325.1 -268.6 -322.9 -269.0 -321.2 -267.4 -321.4 -265.1 -323.3 -263.9" fill="#6f6f6f" fill-rule="evenodd" stroke="none"/>
    <path d="M-317.8 -259.7 L-319.9 -260.3 -320.8 -262.5 -319.6 -264.5 -317.4 -264.8 -315.7 -263.2 -315.9 -261.0 Q-316.8 -260.3 -317.8 -259.7" fill="#6f6f6f" fill-rule="evenodd" stroke="none"/>
    <path d="M-323.0 -251.1 L-325.2 -251.8 -326.0 -253.9 -324.8 -255.9 -322.6 -256.2 -320.9 -254.7 -321.1 -252.4 Q-322.0 -251.7 -323.0 -251.1" fill="#6f6f6f" fill-rule="evenodd" stroke="none"/>
    <path d="M-218.0 -360.0 L-220.2 -360.7 -221.0 -362.8 -219.8 -364.8 -217.6 -365.2 -215.9 -363.6 -216.1 -361.3 Q-217.0 -360.6 -218.0 -360.0" fill="#6f6f6f" fill-rule="evenodd" stroke="none"/>
    <path d="M-215.1 -365.4 L-217.3 -366.1 -218.1 -368.3 -216.9 -370.2 -214.7 -370.6 -213.0 -369.0 -213.2 -366.7 -215.1 -365.4" fill="#6f6f6f" fill-rule="evenodd" stroke="none"/>
    <path d="M-185.5 -382.7 L-187.6 -383.4 -188.5 -385.5 -187.3 -387.5 -185.1 -387.9 -183.4 -386.3 -183.6 -384.0 Q-184.5 -383.3 -185.5 -382.7" fill="#6f6f6f" fill-rule="evenodd" stroke="none"/>
    <path d="M-177.1 -376.7 L-179.2 -377.4 -180.1 -379.5 -178.9 -381.5 -176.7 -381.8 -175.0 -380.2 -175.2 -378.0 -177.1 -376.7" fill="#6f6f6f" fill-rule="evenodd" stroke="none"/>
    <path d="M-173.7 -381.5 L-175.8 -382.2 -176.7 -384.3 -175.5 -386.3 -173.3 -386.6 -171.6 -385.1 -171.8 -382.8 Q-172.7 -382.1 -173.7 -381.5" fill="#6f6f6f" fill-rule="evenodd" stroke="none"/>
    <path d="M-175.0 -387.8 L-177.2 -388.5 -178.0 -390.6 -176.9 -392.6 -174.6 -393.0 -172.9 -391.4 -173.1 -389.1 Q-174.0 -388.4 -175.0 -387.8" fill="#6f6f6f" fill-rule="evenodd" stroke="none"/>
    <path d="M-179.2 -391.6 L-180.9 -392.1 -181.6 -393.8 -180.7 -395.3 -178.9 -395.6 -177.6 -394.4 -177.7 -392.6 -179.2 -391.6" fill="#6f6f6f" fill-rule="evenodd" stroke="none"/>
    <path d="M-182.6 -387.9 L-184.3 -388.5 -185.0 -390.2 -184.1 -391.7 -182.3 -392.0 -181.0 -390.7 -181.1 -389.0 Q-181.8 -388.4 -182.6 -387.9" fill="#6f6f6f" fill-rule="evenodd" stroke="none"/>
    <path d="M-183.8 -392.8 L-185.5 -393.3 -186.2 -395.0 -185.3 -396.6 -183.5 -396.8 -182.2 -395.6 -182.3 -393.8 -183.8 -392.8" fill="#6f6f6f" fill-rule="evenodd" stroke="none"/>
    <path d="M-179.3 -382.4 L-181.4 -383.1 -182.3 -385.2 -181.1 -387.2 -178.9 -387.5 -177.2 -386.0 -177.4 -383.7 -179.3 -382.4" fill="#6f6f6f" fill-rule="evenodd" stroke="none"/>
    <path d="M-220.6 -365.3 L-222.8 -366.0 -223.6 -368.1 -222.5 -370.1 -220.2 -370.4 -218.5 -368.9 -218.7 -366.6 Q-219.6 -365.9 -220.6 -365.3" fill="#6f6f6f" fill-rule="evenodd" stroke="none"/>
    <path d="M-1075.0 228.2 L-1082.0 267.5 -1112.5 262.2 -1105.6 222.8 -1075.0 228.2" fill="#ffffff" fill-rule="evenodd" stroke="none"/>
    <path d="M-194.2 -451.1 L-196.9 -447.2 -250.1 -484.4 -247.4 -488.3 -194.2 -451.1" fill="#ffffff" fill-rule="evenodd" stroke="none"/>
    <path d="M-319.6 -533.1 L-316.9 -537.0 -262.9 -499.1 -265.6 -495.3 -319.6 -533.1" fill="#ffffff" fill-rule="evenodd" stroke="none"/>
  </g>
</svg>
