<?xml version="1.0" encoding="UTF-8" standalone="no"?>
<svg xmlns:ffdec="https://www.free-decompiler.com/flash" xmlns:xlink="http://www.w3.org/1999/xlink" ffdec:objectType="shape" height="266.65px" width="233.3px" xmlns="http://www.w3.org/2000/svg">
  <g transform="matrix(1.0, 0.0, 0.0, 1.0, 162.0, 588.0)">
    <path d="M-162.0 -321.35 L-162.0 -588.0 71.3 -588.0 71.3 -321.35 -162.0 -321.35" fill="#434343" fill-rule="evenodd" stroke="none"/>
    <path d="M-55.9 -457.25 L-55.9 -468.5 -59.6 -468.5 -59.6 -454.95 -64.9 -454.95 -64.9 -452.95 -24.0 -452.95 -24.0 -413.55 34.85 -388.25 34.85 -343.35 -24.0 -330.45 -149.95 -330.45 -149.95 -452.95 -91.6 -452.95 -91.6 -454.95 -96.95 -454.95 -96.95 -461.9 -140.7 -461.9 -140.7 -577.05 17.95 -577.05 17.95 -522.1 28.2 -522.1 28.2 -487.35 17.85 -487.35 17.85 -457.25 -55.9 -457.25" fill="#969696" fill-rule="evenodd" stroke="none"/>
    <path d="M-55.9 -457.25 L-55.9 -469.85 -6.5 -469.85 -6.5 -478.2 17.85 -478.2 17.85 -457.25 -55.9 -457.25" fill="#707070" fill-rule="evenodd" stroke="none"/>
    <path d="M15.3 -522.1 L28.2 -522.1 28.2 -487.35 15.3 -487.35 15.3 -522.1" fill="#707070" fill-rule="evenodd" stroke="none"/>
    <path d="M17.95 -570.65 L17.95 -534.45 3.7 -534.45 3.7 -570.65 17.95 -570.65" fill="#707070" fill-rule="evenodd" stroke="none"/>
    <path d="M-94.85 -577.05 L-94.85 -557.4 -120.0 -557.4 -120.0 -461.9 -140.7 -461.9 -140.7 -577.05 -94.85 -577.05" fill="#707070" fill-rule="evenodd" stroke="none"/>
    <path d="M3.05 -528.85 L4.75 -528.3 5.95 -526.95 6.3 -525.2 5.75 -523.5 4.4 -522.35 2.6 -521.95 0.9 -522.55 -0.3 -523.9 -0.65 -525.65 -0.05 -527.3 1.25 -528.5 3.05 -528.85" fill="#707070" fill-rule="evenodd" stroke="none"/>
    <path d="M-145.0 -443.3 L-144.4 -445.0 -143.05 -446.2 -141.3 -446.55 -139.6 -445.95 -138.4 -444.65 -138.0 -442.9 -138.6 -441.2 -139.95 -440.0 -141.7 -439.65 -143.4 -440.2 -144.6 -441.55 -145.0 -443.3" fill="#707070" fill-rule="evenodd" stroke="none"/>
    <path d="M-141.75 -335.95 L-143.25 -337.65 -143.7 -339.85 -143.0 -342.0 -141.3 -343.5 -139.05 -343.95 -136.9 -343.2 -135.4 -341.55 -134.95 -339.3 -135.65 -337.2 -137.35 -335.7 -139.6 -335.25 -141.75 -335.95" fill="#707070" fill-rule="evenodd" stroke="none"/>
    <path d="M-125.55 -337.2 L-138.25 -347.95 -109.35 -382.0 -96.65 -371.25 -125.55 -337.2" fill="#707070" fill-rule="evenodd" stroke="none"/>
    <path d="M-24.0 -345.35 L-24.0 -391.0 41.65 -391.0 41.65 -345.35 -24.0 -345.35" fill="#707070" fill-rule="evenodd" stroke="none"/>
    <path d="M-149.95 -421.0 L-136.0 -421.0 -136.0 -367.0 -149.95 -367.0 -149.95 -421.0" fill="#707070" fill-rule="evenodd" stroke="none"/>
    <path d="M-55.3 -446.4 L-55.3 -452.95 -31.7 -452.95 -31.7 -446.4 -55.3 -446.4" fill="#707070" fill-rule="evenodd" stroke="none"/>
    <path d="M-24.0 -413.55 L59.75 -413.55 59.75 -330.45 -24.0 -330.45 -24.0 -363.1 24.2 -363.1 24.2 -380.9 -24.0 -380.9 -24.0 -413.55" fill="#ffffff" fill-rule="evenodd" stroke="none"/>
  </g>
</svg>
