<?xml version="1.0" encoding="UTF-8" standalone="no"?>
<svg xmlns:ffdec="https://www.free-decompiler.com/flash" xmlns:xlink="http://www.w3.org/1999/xlink" ffdec:objectType="shape" height="601.85px" width="233.2px" xmlns="http://www.w3.org/2000/svg">
  <g transform="matrix(1.0, 0.0, 0.0, 1.0, 126.9, 475.35)">
    <path d="M-126.9 -408.9 L-126.9 -475.35 -7.8 -475.35 -7.8 -423.05 106.3 -423.05 106.3 126.5 -108.05 126.5 -108.05 -408.9 -126.9 -408.9" fill="#434343" fill-rule="evenodd" stroke="none"/>
    <path d="M-72.9 57.55 L-72.9 49.55 -80.0 49.55 -80.0 57.55 -72.9 57.55 M35.5 -76.7 L35.5 -93.7 5.0 -93.7 5.0 -76.7 35.5 -76.7 M-96.95 -307.3 L-90.35 -307.3 -90.7 -314.0 -96.95 -314.7 -96.95 -366.9 -24.0 -366.9 -24.0 -363.1 -13.0 -340.7 -21.0 -331.0 -42.3 -331.0 -42.3 -307.3 -37.6 -307.3 -37.6 -324.45 97.55 -324.45 97.55 -313.6 103.3 -313.6 103.3 -276.7 98.0 -276.7 97.1 -164.25 102.0 -164.25 102.0 -106.7 96.0 -106.7 96.0 -89.35 86.15 -89.35 86.15 -80.7 96.0 -80.7 96.0 -57.0 82.3 -57.0 82.3 -36.35 96.0 -36.35 96.0 20.65 82.3 20.65 82.3 41.3 96.0 41.3 96.0 66.7 -96.95 66.7 -96.95 -8.7 -102.35 -8.7 -102.35 -63.7 -96.95 -63.7 -96.95 -307.3" fill="#969696" fill-rule="evenodd" stroke="none"/>
    <path d="M-39.95 -406.35 L-39.35 -408.05 -38.05 -409.25 -36.25 -409.6 -34.55 -409.05 -33.35 -407.7 -33.0 -405.95 -33.55 -404.25 -34.9 -403.05 -36.7 -402.7 -38.4 -403.25 -39.6 -404.6 -39.95 -406.35" fill="#707070" fill-rule="evenodd" stroke="none"/>
    <path d="M-91.1 -170.55 L-89.65 -171.9 -87.7 -172.3 -85.8 -171.65 -84.45 -170.15 -84.05 -168.2 -84.7 -166.3 -86.2 -165.0 -88.15 -164.6 -90.05 -165.2 -91.35 -166.7 -91.75 -168.65 -91.1 -170.55" fill="#707070" fill-rule="evenodd" stroke="none"/>
    <path d="M74.6 62.5 L68.75 45.9 71.65 44.9 77.55 61.45 74.6 62.5" fill="#707070" fill-rule="evenodd" stroke="none"/>
    <path d="M90.15 47.3 L90.15 56.0 81.5 56.0 81.5 47.3 90.15 47.3" fill="#707070" fill-rule="evenodd" stroke="none"/>
    <path d="M81.5 -63.7 L81.5 -72.35 90.15 -72.35 90.15 -63.7 81.5 -63.7" fill="#707070" fill-rule="evenodd" stroke="none"/>
    <path d="M35.5 -80.7 L35.5 -89.35 86.15 -89.35 86.15 -80.7 35.5 -80.7" fill="#707070" fill-rule="evenodd" stroke="none"/>
    <path d="M-96.95 -15.35 L-96.95 -58.35 -85.35 -58.35 -85.35 -15.35 -96.95 -15.35" fill="#707070" fill-rule="evenodd" stroke="none"/>
    <path d="M-96.95 -158.7 L-83.35 -158.7 -83.35 -96.35 -96.95 -96.35 -96.95 -158.7" fill="#707070" fill-rule="evenodd" stroke="none"/>
    <path d="M-37.6 -305.8 L-37.6 -324.25 97.55 -324.25 97.55 -236.7 95.1 -235.15 96.25 -230.15 -6.85 -206.05 -8.05 -211.1 -12.1 -210.75 -30.45 -261.8 -5.7 -262.15 3.95 -238.4 82.4 -256.75 82.4 -305.8 -37.6 -305.8" fill="#707070" fill-rule="evenodd" stroke="none"/>
    <path d="M102.85 69.75 L102.85 122.4 -103.15 122.4 -103.15 69.75 102.85 69.75" fill="#707070" fill-rule="evenodd" stroke="none"/>
    <path d="M83.65 -36.35 L96.0 -36.35 96.0 20.65 83.65 20.65 83.65 -36.35" fill="#707070" fill-rule="evenodd" stroke="none"/>
    <path d="M70.6 -44.4 L58.1 -33.85 41.05 -53.95 53.6 -64.5 70.6 -44.4" fill="#707070" fill-rule="evenodd" stroke="none"/>
    <path d="M-15.25 10.8 L-14.6 12.0 -13.7 13.1 -12.7 14.05 -11.5 14.9 -10.2 15.55 -8.85 16.0 -7.55 16.2 43.75 16.2 50.4 41.55 -9.65 41.55 -20.35 39.6 -25.15 37.9 -29.55 34.8 -33.5 31.1 -36.8 26.85 -39.45 22.2 -40.7 17.15 -41.3 11.4 -41.25 -47.6 -15.9 -41.6 -15.95 8.65 -15.75 9.5 -15.25 10.8" fill="#707070" fill-rule="evenodd" stroke="none"/>
    <path d="M34.4 -25.15 L34.4 -7.8 2.4 -7.8 2.4 -25.15 34.4 -25.15" fill="#707070" fill-rule="evenodd" stroke="none"/>
    <path d="M-119.35 -415.6 L-119.35 -469.15 -16.9 -469.15 -16.9 -415.6 -53.35 -415.6 -53.35 -412.9 -26.0 -412.9 -26.0 -370.0 -96.9 -370.0 -96.9 -412.9 -85.8 -412.9 -85.8 -415.6 -119.35 -415.6" fill="#707070" fill-rule="evenodd" stroke="none"/>
    <path d="M69.55 -128.7 L2.0 -128.7 2.0 -158.45 69.55 -158.45 69.55 -128.7" fill="#707070" fill-rule="evenodd" stroke="none"/>
    <path d="M-24.0 -413.55 L59.75 -413.55 59.75 -331.0 -24.0 -331.0 -24.0 -363.1 24.2 -363.1 24.2 -380.9 -24.0 -380.9 -24.0 -413.55" fill="#ffffff" fill-rule="evenodd" stroke="none"/>
    <path d="M-53.5 -365.0 L-85.85 -365.0 -85.85 -371.0 -53.5 -371.0 -53.5 -365.0" fill="#ffffff" fill-rule="evenodd" stroke="none"/>
  </g>
</svg>
