<?xml version="1.0" encoding="UTF-8" standalone="no"?>
<svg xmlns:ffdec="https://www.free-decompiler.com/flash" xmlns:xlink="http://www.w3.org/1999/xlink" ffdec:objectType="shape" height="714.5px" width="268.3px" xmlns="http://www.w3.org/2000/svg">
  <g transform="matrix(1.0, 0.0, 0.0, 1.0, 162.0, 588.0)">
    <path d="M-108.05 -321.35 L-162.0 -321.35 -162.0 -588.0 71.3 -588.0 71.3 -423.05 106.3 -423.05 106.3 126.5 -108.05 126.5 -108.05 -321.35" fill="#434343" fill-rule="evenodd" stroke="none"/>
    <path d="M-162.0 -321.35 L-162.0 -588.0 71.3 -588.0 71.3 -321.35 -162.0 -321.35" fill="#434343" fill-rule="evenodd" stroke="none"/>
    <path d="M-55.9 -457.25 L-55.9 -468.5 -59.6 -468.5 -59.6 -454.95 -64.9 -454.95 -64.9 -452.95 -24.0 -452.95 -24.0 -413.55 28.4 -391.0 41.65 -391.0 41.65 -345.35 34.85 -345.35 34.85 -343.35 -24.0 -330.45 -149.95 -330.45 -149.95 -452.95 -91.6 -452.95 -91.6 -454.95 -96.95 -454.95 -96.95 -461.9 -140.7 -461.9 -140.7 -577.05 17.95 -577.05 17.95 -522.1 28.2 -522.1 28.2 -487.35 17.85 -487.35 17.85 -457.25 -55.9 -457.25" fill="#707070" fill-rule="evenodd" stroke="none"/>
    <path d="M-80.0 54.65 L-72.9 54.65 -72.9 49.55 -80.0 49.55 -80.0 54.65 M24.2 -363.1 L24.2 -380.9 -24.0 -380.9 -24.0 -363.1 24.2 -363.1 M-119.35 -415.6 L-119.35 -469.15 -16.9 -469.15 -16.9 -415.6 -53.35 -415.6 -53.35 -413.55 59.75 -413.55 59.75 -331.0 -34.0 -331.0 -42.3 -319.35 -42.3 -307.3 -37.6 -307.3 -37.6 -324.45 97.55 -324.45 97.55 -313.6 103.3 -313.6 103.3 -276.7 102.0 -276.7 102.0 -234.0 97.65 -234.0 97.1 -164.25 102.0 -164.25 102.0 -106.7 96.0 -106.7 96.0 14.0 102.65 14.0 102.65 46.0 96.0 46.0 96.0 66.7 -96.95 66.7 -96.95 -8.7 -102.35 -8.7 -102.35 -63.7 -96.95 -63.7 -96.95 -307.3 -90.35 -307.3 -90.7 -314.0 -96.95 -314.7 -96.95 -388.85 -101.4 -392.9 -96.9 -397.85 -96.9 -412.9 -85.8 -412.9 -85.8 -415.6 -119.35 -415.6" fill="#707070" fill-rule="evenodd" stroke="none"/>
    <path d="M102.85 69.75 L102.85 122.4 -103.15 122.4 -103.15 69.75 102.85 69.75" fill="#707070" fill-rule="evenodd" stroke="none"/>
    <path d="M-24.0 -413.55 L59.75 -413.55 59.75 -330.45 -24.0 -330.45 -24.0 -363.1 24.2 -363.1 24.2 -380.9 -24.0 -380.9 -24.0 -413.55" fill="#ffffff" fill-rule="evenodd" stroke="none"/>
  </g>
</svg>
