<?xml version="1.0" encoding="UTF-8" standalone="no"?>
<svg xmlns:ffdec="https://www.free-decompiler.com/flash" xmlns:xlink="http://www.w3.org/1999/xlink" ffdec:objectType="shape" height="1990.5px" width="1693.0px" xmlns="http://www.w3.org/2000/svg">
  <g transform="matrix(1.0, 0.0, 0.0, 1.0, 891.05, 1109.35)">
    <path d="M702.95 -748.85 L641.95 -581.35 654.45 -568.35 696.45 -506.35 723.95 -436.85 735.95 -362.85 Q736.45 -344.35 736.45 -325.85 736.45 -325.35 735.95 -325.35 L723.95 -251.85 701.95 -167.35 Q701.45 -149.35 700.45 -131.35 702.45 -115.85 703.95 -100.35 710.45 -84.35 716.45 -68.35 727.95 -47.35 739.45 -26.85 L756.95 -2.85 784.45 51.15 Q792.45 80.65 799.95 110.15 L801.95 171.15 Q800.45 186.15 798.45 201.15 L565.45 844.15 408.95 787.15 379.95 867.65 88.45 761.65 82.45 778.65 Q81.95 778.65 80.95 778.15 67.95 814.15 54.45 849.65 51.95 855.15 48.95 860.65 L38.95 868.65 Q33.45 872.15 27.45 875.15 L15.45 879.15 2.95 881.15 -10.05 880.65 -20.05 878.65 -891.05 561.65 -295.05 -1076.35 Q-297.05 -1076.85 -299.55 -1077.85 -293.55 -1093.35 -288.05 -1109.35 207.45 -928.85 702.95 -748.85" fill="#656565" fill-rule="evenodd" stroke="none"/>
    <path d="M140.45 -598.35 Q138.45 -591.35 135.95 -584.85 L129.95 -586.85 Q123.45 -568.85 116.45 -550.85 L126.95 -545.85 Q125.95 -542.35 124.45 -538.85 L113.45 -541.85 Q99.45 -502.85 84.95 -464.35 L84.95 -463.85 94.95 -458.85 91.95 -451.85 80.45 -453.85 79.45 -450.85 Q69.95 -430.35 59.95 -410.35 L34.45 -373.35 25.95 -364.35 33.45 -354.85 27.45 -349.85 Q22.95 -352.85 18.45 -356.35 11.45 -348.35 3.95 -340.85 L-31.55 -312.85 -66.55 -292.85 Q-63.55 -287.35 -60.55 -282.35 -65.05 -280.35 -70.05 -278.85 L-76.05 -288.85 Q-94.05 -281.35 -112.05 -274.35 -134.05 -269.35 -156.05 -264.85 L-177.05 -263.35 -178.05 -252.85 -185.55 -252.85 -187.55 -262.85 -200.55 -261.85 -245.55 -265.35 -267.55 -270.35 Q-267.55 -269.85 -268.05 -269.85 L-273.05 -271.85 Q-281.05 -273.35 -289.05 -275.35 -288.05 -275.85 -287.05 -276.85 L-293.05 -278.85 -297.05 -269.85 -305.55 -272.85 Q-304.05 -277.85 -303.05 -282.85 -320.55 -288.85 -338.55 -295.35 -339.05 -292.85 -340.05 -290.35 -347.55 -292.85 -355.05 -295.85 -354.05 -298.35 -353.55 -300.85 L-353.55 -301.35 Q-342.55 -330.85 -332.05 -360.35 L-359.55 -370.35 Q-361.55 -363.85 -364.05 -357.85 -368.55 -359.35 -373.05 -361.35 -370.55 -367.35 -368.55 -373.35 L-390.05 -381.35 Q-391.05 -377.35 -392.55 -373.85 L-406.05 -378.85 Q-395.05 -408.85 -384.55 -438.85 -417.55 -450.85 -451.05 -463.35 -436.05 -503.85 -421.55 -544.35 L-481.55 -566.35 Q-478.55 -572.85 -476.05 -579.85 L-471.55 -578.35 Q-467.55 -588.35 -464.05 -598.35 L-473.05 -603.85 -471.05 -609.85 -460.55 -608.35 Q-446.05 -647.35 -432.05 -686.85 -436.55 -688.85 -441.55 -691.35 L-438.55 -698.35 -428.55 -696.35 -402.55 -767.35 Q-401.55 -768.35 -401.05 -769.85 -405.05 -772.85 -409.55 -775.85 L-405.55 -781.85 -395.55 -778.85 -392.55 -787.85 -377.55 -819.35 Q-367.55 -833.35 -357.55 -847.85 L-352.55 -853.35 -358.55 -861.35 -353.55 -867.35 Q-349.55 -863.85 -345.55 -860.85 L-333.55 -873.35 Q-320.05 -883.85 -306.55 -894.85 -292.55 -902.85 -279.05 -910.85 L-282.05 -919.35 -274.05 -923.35 -269.05 -914.85 -243.55 -924.85 Q-226.55 -928.35 -209.55 -932.35 L-190.05 -933.85 -189.05 -944.35 -180.55 -945.35 -179.55 -934.35 -175.05 -934.85 -140.55 -931.85 -107.05 -923.85 Q-101.55 -921.85 -96.55 -919.85 -94.05 -925.35 -92.05 -930.85 L-84.05 -928.85 Q-85.05 -922.85 -86.55 -917.35 -48.55 -903.35 -10.55 -889.85 L-5.55 -899.85 2.45 -896.85 -0.55 -885.85 18.45 -878.85 Q19.95 -881.85 20.95 -884.85 L35.45 -879.85 14.45 -821.85 82.45 -796.85 51.45 -712.85 Q80.95 -701.85 110.45 -691.35 108.45 -684.35 105.95 -677.85 L98.45 -680.85 90.45 -659.35 102.45 -654.35 Q101.45 -651.35 99.95 -648.35 L87.45 -650.35 Q82.45 -635.85 76.95 -621.35 L140.45 -598.35" fill="#424242" fill-rule="evenodd" stroke="none"/>
    <path d="M125.45 281.65 L133.45 274.65 139.45 280.15 Q136.45 284.65 132.95 288.65 L148.95 303.65 Q162.95 321.15 176.45 338.65 L196.45 373.65 Q201.95 372.15 207.45 370.15 L210.45 377.15 Q205.95 380.15 200.95 383.15 L214.95 419.65 224.95 463.65 Q225.95 474.15 226.45 484.65 L236.45 485.65 Q236.95 490.15 236.95 494.15 L226.95 495.15 227.95 508.15 Q226.45 530.65 224.45 553.15 218.95 573.65 212.95 594.15 211.95 597.15 210.45 600.15 L219.95 604.65 216.95 612.65 Q211.95 611.65 206.95 610.15 L193.95 645.65 198.95 647.65 Q196.45 655.15 193.45 662.65 L129.95 639.65 Q125.45 653.15 120.45 666.65 L130.45 671.65 127.45 679.65 116.45 676.65 109.45 696.15 115.95 698.15 Q113.45 705.65 110.45 712.65 L49.45 690.65 Q37.45 724.65 24.95 758.65 L-55.55 729.15 Q-66.05 758.65 -77.05 788.15 L-91.55 783.15 -89.55 777.65 -111.55 769.65 Q-113.55 774.65 -116.05 779.15 -119.55 778.15 -123.05 776.65 -121.55 771.65 -120.55 766.15 L-148.55 756.15 Q-159.55 787.15 -171.05 818.15 L-184.55 813.15 -182.55 807.15 Q-200.55 800.65 -218.55 793.65 L-223.55 804.15 Q-227.05 803.15 -230.55 801.65 L-227.55 790.65 -305.05 762.65 -305.55 762.15 -310.55 772.15 Q-314.55 770.65 -318.55 768.65 -316.55 763.65 -315.05 758.15 L-359.05 737.15 -396.05 711.65 -405.05 703.15 -413.55 711.15 -419.55 704.65 -412.55 696.15 -428.55 681.15 -456.55 645.65 Q-466.05 628.65 -476.05 611.15 -481.55 613.15 -487.05 614.65 -488.55 611.15 -490.55 607.65 L-480.55 601.65 -494.55 565.15 -504.55 521.15 Q-505.05 510.65 -506.05 500.15 L-516.55 499.15 Q-516.05 495.15 -516.05 490.65 L-506.55 489.65 -507.55 476.65 Q-505.55 454.15 -504.05 431.65 -497.05 408.15 -490.55 384.65 -495.05 382.65 -499.55 380.15 L-496.55 372.15 -486.55 374.65 -473.55 338.65 -479.05 337.15 Q-476.05 329.65 -473.55 322.15 L-409.05 345.15 -399.05 317.65 -411.55 313.15 Q-409.55 309.15 -408.05 304.65 L-396.05 308.65 -388.05 287.65 -395.05 284.65 Q-392.55 278.15 -390.55 271.15 L-334.05 291.65 Q-322.05 259.15 -310.55 226.15 L-225.55 257.15 Q-214.05 226.65 -203.05 196.15 L-189.55 201.15 Q-190.05 203.65 -191.05 206.15 L-172.05 213.15 Q-169.05 208.65 -166.55 203.65 L-159.55 206.65 Q-160.55 211.65 -162.05 216.65 -146.05 222.65 -130.55 228.15 L-108.55 166.65 -95.05 171.65 Q-96.05 174.65 -97.55 177.65 -79.05 184.15 -61.05 190.65 -58.55 185.65 -56.55 180.65 -53.05 182.15 -49.55 183.15 -50.55 188.65 -52.05 194.15 L24.45 222.15 Q26.95 217.15 28.95 212.15 32.45 213.65 35.95 214.65 L32.95 224.65 78.95 247.65 115.95 273.15 125.45 281.65" fill="#424242" fill-rule="evenodd" stroke="none"/>
    <path d="M61.95 -570.85 L75.95 -608.85 125.45 -590.85 112.45 -552.35 102.95 -554.35 Q101.95 -551.35 100.45 -548.35 L109.45 -543.35 Q95.45 -504.35 80.95 -465.35 L80.95 -464.85 70.95 -466.85 68.95 -460.85 77.95 -455.85 Q77.45 -454.35 76.45 -453.35 L57.45 -413.85 32.95 -377.85 Q27.45 -371.85 21.95 -366.35 L13.95 -371.35 9.45 -366.35 15.95 -359.35 2.95 -345.35 -31.05 -318.35 -68.55 -296.35 Q-71.55 -300.35 -74.55 -304.85 -77.05 -303.35 -80.05 -301.85 -78.55 -297.35 -77.55 -292.85 -93.05 -286.35 -109.05 -280.35 -130.05 -275.35 -151.05 -270.85 L-178.05 -268.85 Q-179.05 -273.85 -180.55 -278.85 L-186.55 -278.35 -187.55 -267.85 -194.55 -267.35 -237.55 -270.85 Q-256.05 -274.35 -274.55 -278.35 L-291.55 -284.35 Q-290.55 -288.85 -290.05 -293.35 L-296.05 -295.35 -300.05 -287.85 Q-318.55 -294.35 -337.05 -301.35 -327.55 -326.85 -318.55 -352.35 L-283.55 -339.35 Q-282.55 -338.85 -281.55 -338.85 -282.05 -333.85 -283.05 -329.35 L-276.55 -327.35 -272.55 -335.85 Q-265.55 -333.35 -259.05 -331.35 -244.55 -327.85 -230.05 -324.85 L-191.05 -321.85 -190.05 -321.85 -188.05 -313.85 -181.55 -314.35 Q-181.05 -318.35 -181.05 -322.35 L-156.55 -324.35 Q-140.05 -327.85 -123.55 -331.85 -110.55 -336.35 -98.05 -341.35 -95.55 -337.35 -93.05 -333.85 -90.05 -334.85 -87.05 -336.35 -88.05 -340.35 -89.55 -344.85 L-61.55 -360.85 -34.55 -382.35 Q-28.55 -388.35 -22.55 -394.85 L-16.55 -390.85 Q-14.05 -393.35 -12.05 -395.85 L-16.55 -401.35 -11.05 -407.35 Q-1.05 -421.35 8.45 -435.35 L26.45 -473.85 Q30.45 -472.85 34.45 -472.35 L36.45 -478.85 Q33.45 -480.35 29.95 -482.35 L58.95 -561.85 Q63.45 -560.85 67.95 -560.35 L69.95 -566.35 Q65.95 -568.35 61.95 -570.85" fill="#959595" fill-rule="evenodd" stroke="none"/>
    <path d="M-99.55 -680.85 L-208.55 -720.85 -263.55 -568.35 Q-209.05 -548.35 -154.55 -528.85 L-99.55 -680.85 M-338.05 -756.85 L-326.05 -780.85 -311.05 -802.85 Q-301.55 -812.35 -292.55 -822.35 L-271.55 -839.35 -248.55 -852.35 -223.55 -862.35 Q-210.55 -864.85 -197.55 -867.85 L-171.05 -869.85 -144.55 -867.85 -118.55 -861.85 74.45 -793.85 Q21.95 -648.35 -31.05 -503.35 L-43.05 -479.35 -58.05 -457.35 Q-67.05 -447.35 -76.55 -437.85 L-97.55 -420.85 -120.55 -407.85 -145.55 -397.85 Q-158.55 -394.85 -171.55 -392.35 L-198.05 -390.35 -224.55 -392.35 -250.55 -398.35 -443.55 -466.35 Q-390.55 -611.35 -338.05 -756.85" fill="#959595" fill-rule="evenodd" stroke="none"/>
    <path d="M-396.55 -769.35 L-388.05 -767.85 -386.05 -773.85 -393.05 -777.85 Q-391.05 -782.35 -389.55 -787.35 L-374.55 -817.35 -355.55 -844.85 Q-352.05 -848.35 -349.05 -851.85 L-340.55 -846.35 Q-338.05 -848.85 -336.05 -851.35 L-342.55 -858.85 Q-337.55 -863.85 -333.05 -869.35 -319.55 -879.35 -306.55 -889.85 -292.05 -897.85 -277.55 -906.35 -277.05 -906.35 -277.05 -906.85 L-271.05 -897.85 -265.05 -900.85 -268.05 -910.35 Q-257.05 -914.35 -246.55 -918.35 -230.05 -921.85 -213.55 -925.85 L-189.05 -927.35 -187.05 -918.85 -180.55 -919.35 Q-180.05 -923.85 -180.05 -928.35 L-142.05 -925.35 -97.05 -914.35 Q-97.55 -910.35 -98.55 -906.85 L-92.05 -904.85 -89.05 -911.85 Q-50.05 -897.35 -11.55 -883.35 -12.05 -879.85 -13.05 -876.35 L-6.55 -874.35 Q-4.55 -877.35 -3.05 -880.35 7.95 -876.35 18.45 -872.85 L1.45 -826.85 Q-57.55 -846.85 -117.05 -867.35 -130.05 -870.35 -143.55 -873.85 L-171.05 -875.85 -198.05 -873.85 -225.05 -867.85 -251.05 -857.85 Q-263.05 -850.85 -275.05 -844.35 -285.55 -835.85 -296.55 -827.35 L-315.55 -806.85 Q-323.05 -795.35 -331.05 -784.35 -337.05 -771.85 -343.55 -759.35 -379.55 -658.85 -416.05 -558.85 -441.05 -567.85 -466.55 -577.35 -462.55 -587.35 -459.05 -597.35 L-449.05 -595.35 Q-447.55 -598.35 -446.55 -601.35 L-455.55 -606.35 Q-441.05 -645.85 -427.05 -685.35 L-417.05 -683.35 Q-415.55 -686.35 -414.55 -689.35 L-423.55 -694.35 -396.55 -769.35" fill="#959595" fill-rule="evenodd" stroke="none"/>
    <path d="M46.45 -699.35 Q71.45 -689.85 95.95 -680.85 92.45 -670.85 88.45 -660.85 L78.95 -662.85 76.95 -656.85 Q81.45 -654.35 85.45 -651.85 L56.45 -572.85 46.95 -574.85 44.95 -568.85 Q49.45 -566.35 53.45 -563.85 39.95 -526.35 25.95 -488.85 L25.45 -488.85 Q24.95 -486.85 23.95 -485.35 19.95 -485.85 15.95 -486.85 14.95 -483.85 13.45 -480.85 17.45 -478.85 20.95 -476.85 L17.95 -468.85 Q10.95 -453.85 3.45 -438.85 -6.05 -424.85 -15.55 -411.35 L-20.55 -405.85 -29.55 -411.85 Q-31.55 -409.35 -34.05 -406.85 L-27.05 -398.85 Q-32.55 -392.85 -38.55 -386.85 L-64.55 -365.85 Q-78.55 -357.85 -92.55 -350.35 L-99.05 -359.85 Q-102.05 -358.35 -105.05 -357.35 -103.05 -351.85 -101.55 -346.35 L-125.05 -337.35 -157.55 -330.35 -180.55 -328.85 -182.55 -339.35 -189.05 -338.85 -190.05 -327.85 -229.05 -330.35 Q-243.05 -333.35 -257.05 -336.85 L-271.55 -341.85 -270.55 -350.35 -277.05 -352.35 Q-278.55 -348.35 -280.55 -344.85 -281.05 -344.85 -281.55 -345.35 L-358.55 -373.35 Q-357.55 -377.35 -357.05 -381.35 -360.05 -382.35 -363.05 -383.85 -365.05 -379.85 -367.55 -376.35 -378.05 -379.85 -388.55 -383.85 L-370.55 -433.35 -252.05 -392.35 -225.55 -386.35 -198.05 -384.35 -170.55 -386.35 -144.05 -392.35 -118.05 -402.35 -94.05 -415.85 -72.55 -432.85 Q-63.05 -442.85 -53.55 -453.35 -45.55 -464.35 -38.05 -475.85 -31.55 -488.35 -25.55 -500.85 L46.45 -699.35" fill="#959595" fill-rule="evenodd" stroke="none"/>
    <path d="M120.45 297.15 L127.95 291.15 141.45 303.65 168.95 338.15 190.45 375.65 190.95 375.65 Q186.95 378.65 182.45 381.15 L184.95 387.15 Q189.95 386.15 194.45 384.65 L206.45 416.15 216.45 458.15 218.45 485.15 208.45 487.15 Q208.95 490.65 208.95 493.65 L218.95 494.65 Q219.45 498.15 219.45 501.15 L216.45 544.15 Q212.95 563.15 208.95 581.65 205.95 590.15 202.45 598.65 L193.95 596.65 191.95 603.15 199.45 607.15 Q192.95 625.65 185.95 644.15 L134.95 625.65 Q141.45 608.15 147.45 590.65 L148.45 588.65 157.95 589.65 Q158.95 586.65 159.45 583.65 L151.45 579.65 162.45 537.15 165.45 498.15 Q165.45 497.65 164.95 497.15 L173.45 495.15 Q173.45 492.15 172.95 488.65 L164.45 487.65 Q163.95 475.65 162.95 463.65 159.45 447.15 155.45 430.15 150.95 417.65 145.95 405.15 L153.45 400.15 150.45 394.15 Q146.45 395.65 142.45 396.65 L126.45 368.65 104.95 341.15 92.45 329.65 96.45 323.15 91.45 319.15 Q88.95 321.65 85.95 323.65 L79.95 318.15 51.45 298.15 20.95 283.15 Q16.95 282.15 12.95 280.65 13.95 276.65 14.45 272.65 L8.45 270.65 Q6.95 274.15 4.95 277.15 L-75.05 248.15 -73.05 239.15 Q-76.05 238.15 -79.05 236.65 -81.05 240.65 -83.55 244.65 -102.55 238.15 -121.55 231.15 -112.05 206.15 -103.05 180.65 L-63.55 195.15 -65.55 204.65 -59.05 207.15 Q-56.55 202.65 -54.55 198.15 L21.95 225.65 19.95 235.65 26.45 238.15 Q28.95 233.65 30.95 229.15 L33.95 230.15 73.45 249.65 109.45 274.15 120.95 284.65 115.95 293.15 120.45 297.15" fill="#959595" fill-rule="evenodd" stroke="none"/>
    <path d="M-417.55 357.65 L-430.55 394.15 -440.05 393.15 -442.05 399.15 -433.55 403.15 Q-439.05 424.65 -445.05 445.65 -446.05 466.15 -447.55 486.15 L-455.55 487.65 Q-455.05 491.15 -455.05 494.15 L-447.05 495.15 -445.05 519.15 -438.05 552.65 -428.05 577.65 -435.55 582.65 Q-434.05 585.65 -433.05 588.65 -428.55 587.65 -424.55 586.15 L-408.55 614.15 -387.05 641.65 -374.55 653.15 -378.55 659.65 -373.55 663.65 -368.55 659.15 -362.55 664.65 Q-348.05 674.65 -334.05 684.65 L-303.05 699.65 -291.55 703.65 Q-292.05 707.65 -293.05 711.65 L-287.05 713.65 Q-285.05 710.65 -283.55 707.15 -246.05 721.15 -208.55 734.65 -209.05 739.15 -210.05 743.65 L-204.05 745.65 Q-201.55 741.65 -199.55 737.65 L-160.55 751.65 Q-169.55 777.15 -179.05 802.15 L-216.05 789.15 -214.05 779.15 Q-217.05 778.15 -220.05 776.65 L-225.05 786.15 -304.55 757.15 -302.55 747.15 Q-305.55 746.15 -308.55 744.65 L-313.55 753.65 -316.05 752.65 -355.55 733.15 -392.05 708.65 -402.55 699.15 -397.55 691.15 -402.55 686.65 -409.55 693.15 Q-416.55 686.15 -424.05 679.15 L-451.05 645.15 Q-461.55 627.15 -472.55 608.65 -468.05 605.65 -464.05 602.65 L-467.05 597.15 Q-471.55 598.65 -476.05 599.65 L-489.05 567.15 Q-493.55 546.15 -498.55 524.65 L-500.55 497.65 -490.55 495.65 Q-490.55 492.65 -491.05 489.15 L-501.55 488.15 Q-501.55 485.15 -502.05 481.65 L-491.05 401.15 -485.05 384.15 -476.05 386.15 -474.05 380.15 -481.55 375.65 -468.55 338.65 -417.55 357.65" fill="#959595" fill-rule="evenodd" stroke="none"/>
    <path d="M-41.55 461.65 Q-117.55 434.15 -194.05 406.15 -213.55 460.65 -233.55 515.15 L-81.55 570.65 -41.55 461.65 M-380.55 451.65 L-365.55 394.15 -306.55 232.65 -16.05 338.15 Q-4.05 344.15 7.95 349.65 L29.95 365.15 49.45 383.15 65.95 404.15 79.45 427.65 88.95 452.15 94.95 478.15 96.95 504.65 94.95 531.15 88.95 557.65 19.95 750.15 -270.55 644.65 Q-282.05 639.15 -293.55 633.15 L-316.05 617.65 Q-325.55 608.65 -335.55 599.65 -343.55 589.15 -352.05 578.65 -358.55 567.15 -365.55 555.65 -370.05 543.15 -375.05 530.65 L-381.05 504.65 Q-381.55 491.65 -382.55 478.15 L-380.55 451.65" fill="#959595" fill-rule="evenodd" stroke="none"/>
    <path d="M-385.55 288.65 Q-362.55 297.15 -339.55 305.15 -355.05 348.65 -371.05 392.15 -378.55 421.15 -386.55 450.15 -387.55 464.15 -389.05 477.65 L-387.05 505.15 -381.05 532.15 -371.05 557.65 -357.05 581.65 -340.05 603.65 Q-318.55 621.15 -297.05 638.15 L-272.05 650.15 -72.05 723.15 -90.05 773.15 -110.05 766.15 -108.05 755.65 -114.05 753.65 -119.05 762.65 Q-158.55 748.65 -198.05 734.15 L-196.05 723.65 -202.05 721.65 -207.05 730.65 Q-244.55 717.15 -282.05 703.15 -281.05 699.15 -280.55 695.15 -283.55 694.15 -286.55 692.65 L-290.55 700.15 -330.05 681.65 -357.55 662.65 -364.55 656.15 Q-361.55 651.65 -359.05 647.15 L-364.05 643.15 Q-367.55 646.65 -371.55 649.65 -376.55 644.65 -382.05 639.65 L-403.05 613.65 Q-411.05 599.15 -419.55 584.65 L-419.55 583.65 -411.05 577.65 Q-412.05 575.15 -413.55 572.15 -418.05 573.65 -423.05 574.65 -427.05 564.15 -431.55 553.15 L-438.55 520.65 -440.55 496.15 -431.55 494.15 Q-431.55 491.15 -432.05 487.65 L-441.05 486.65 -438.05 449.15 -427.05 404.15 -419.55 405.15 -417.55 399.15 Q-421.05 397.65 -424.55 395.65 L-396.55 318.15 -389.55 319.65 Q-388.05 316.65 -387.05 313.65 L-393.55 310.15 -385.55 288.65" fill="#959595" fill-rule="evenodd" stroke="none"/>
    <path d="M120.95 371.65 L136.95 399.15 Q131.95 402.65 126.95 405.65 L129.95 411.65 140.95 408.65 149.95 431.65 156.95 464.65 Q157.95 476.15 158.45 487.15 L147.95 489.65 Q148.45 493.15 148.45 496.15 L159.45 497.15 159.45 497.65 156.45 536.15 150.45 564.15 145.45 578.65 136.95 577.65 134.95 583.65 Q138.95 585.65 142.45 587.15 128.45 626.65 113.95 665.65 L105.45 664.15 103.45 670.15 Q107.45 672.15 110.95 674.15 L102.95 695.65 53.45 677.65 85.45 590.65 Q93.45 561.65 100.95 532.65 L102.95 505.15 100.95 477.65 94.95 450.65 84.95 425.15 Q78.45 413.15 71.45 401.15 L53.95 379.15 33.95 360.65 10.95 344.65 Q-1.05 338.65 -13.55 332.65 L-212.05 260.65 Q-202.55 236.15 -193.55 211.15 L-173.55 218.15 -175.55 228.15 -169.55 230.15 -164.55 221.65 -85.55 250.65 -87.55 260.15 -81.55 262.15 -76.55 253.65 Q-39.05 267.65 -1.55 281.15 -1.55 281.65 -2.05 281.65 L1.95 282.65 -0.05 291.15 5.95 293.15 Q8.45 289.65 10.45 285.65 L18.45 288.65 48.45 303.65 75.95 322.65 80.95 327.15 Q78.45 332.15 75.45 336.65 L80.45 340.65 88.45 334.15 100.45 345.15 120.95 371.65" fill="#959595" fill-rule="evenodd" stroke="none"/>
    <path d="M61.45 618.65 L80.45 625.65 85.45 612.15 66.45 605.15 61.45 618.65 M83.45 632.15 L54.95 621.65 Q59.45 610.15 63.45 598.65 L91.95 609.15 Q87.95 620.65 83.45 632.15" fill="#ffffff" fill-rule="evenodd" stroke="none"/>
    <path d="M-373.55 379.15 Q-363.55 382.65 -354.05 386.15 L-349.05 372.65 -368.55 365.65 -373.55 379.15 M-351.05 392.65 Q-365.55 387.65 -380.05 382.15 -375.55 370.65 -371.55 359.15 L-342.55 369.65 Q-346.55 381.15 -351.05 392.65" fill="#ffffff" fill-rule="evenodd" stroke="none"/>
    <path d="M-155.55 294.65 L-142.05 299.65 -135.05 280.65 -148.55 275.65 -155.55 294.65 M-139.05 306.15 Q-150.55 302.15 -162.05 297.65 -156.55 283.65 -151.55 269.15 -140.05 273.65 -128.55 277.65 -133.55 292.15 -139.05 306.15" fill="#ffffff" fill-rule="evenodd" stroke="none"/>
    <path d="M-157.55 698.65 L-144.05 703.15 -137.05 684.15 -150.55 679.15 -157.55 698.65 M-141.05 709.65 L-164.05 701.65 Q-158.55 687.15 -153.55 672.65 -142.05 677.15 -130.55 681.15 -135.55 695.65 -141.05 709.65" fill="#ffffff" fill-rule="evenodd" stroke="none"/>
  </g>
</svg>
