<?xml version="1.0" encoding="UTF-8" standalone="no"?>
<svg xmlns:ffdec="https://www.free-decompiler.com/flash" xmlns:xlink="http://www.w3.org/1999/xlink" ffdec:objectType="shape" height="204.95px" width="452.8px" xmlns="http://www.w3.org/2000/svg">
  <g transform="matrix(1.0, 0.0, 0.0, 1.0, 264.8, 74.5)">
    <path d="M188.0 -74.5 L188.0 130.45 -264.8 130.45 -264.8 -74.5 188.0 -74.5" fill="#000000" fill-rule="evenodd" stroke="none"/>
    <path d="M182.1 108.35 L-258.65 108.35 -258.65 -67.65 182.1 -67.65 182.1 108.35" fill="#000000" fill-rule="evenodd" stroke="none"/>
    <path d="M-48.5 -36.15 L-48.5 118.35 -186.1 118.35 -186.1 -36.15 -48.5 -36.15" fill="#000000" fill-rule="evenodd" stroke="none"/>
    <path d="M-77.0 -29.65 L-77.0 124.85 -156.6 124.85 -156.6 -29.65 -77.0 -29.65" fill="#000000" fill-rule="evenodd" stroke="none"/>
    <path d="M86.0 -29.65 L86.0 124.85 6.4 124.85 6.4 -29.65 86.0 -29.65" fill="#000000" fill-rule="evenodd" stroke="none"/>
    <path d="M-258.65 -36.15 L-210.85 -36.15 -210.85 118.35 -258.65 118.35 -258.65 -36.15" fill="#000000" fill-rule="evenodd" stroke="none"/>
    <path d="M114.6 119.1 L-22.65 119.1 -22.65 -8.4 114.6 -8.4 114.6 119.1" fill="#000000" fill-rule="evenodd" stroke="none"/>
    <path d="M182.1 -67.65 L182.1 117.6 141.6 117.6 141.6 -67.65 182.1 -67.65" fill="#000000" fill-rule="evenodd" stroke="none"/>
    <path d="M-168.15 13.5 L-175.15 13.5 -175.15 6.1 -168.15 6.1 -168.15 13.5" fill="#000000" fill-rule="evenodd" stroke="none"/>
    <path d="M-195.25 34.75 L-196.55 34.75 -196.55 29.1 -202.25 29.1 -202.25 27.3 -195.25 27.3 -195.25 34.75" fill="#000000" fill-rule="evenodd" stroke="none"/>
    <path d="M-86.65 13.5 L-93.65 13.5 -93.65 6.1 -86.65 6.1 -86.65 13.5" fill="#000000" fill-rule="evenodd" stroke="none"/>
    <path d="M-4.15 13.5 L-11.15 13.5 -11.15 6.1 -4.15 6.1 -4.15 13.5" fill="#000000" fill-rule="evenodd" stroke="none"/>
    <path d="M76.85 13.5 L69.85 13.5 69.85 6.1 76.85 6.1 76.85 13.5" fill="#000000" fill-rule="evenodd" stroke="none"/>
    <path d="M158.35 13.5 L151.35 13.5 151.35 6.1 158.35 6.1 158.35 13.5" fill="#000000" fill-rule="evenodd" stroke="none"/>
    <path d="M-196.65 108.35 L-196.65 103.45 -195.05 103.45 -195.05 108.35 -196.65 108.35" fill="#000000" fill-rule="evenodd" stroke="none"/>
    <path d="M50.4 36.75 L7.5 36.75 7.5 15.75 50.4 15.75 50.4 36.75" fill="#000000" fill-rule="evenodd" stroke="none"/>
    <path d="M73.0 17.6 L73.0 60.5 53.0 60.5 53.0 17.6 73.0 17.6" fill="#000000" fill-rule="evenodd" stroke="none"/>
    <path d="M40.75 58.6 L-2.15 58.6 -2.15 37.6 40.75 37.6 40.75 58.6" fill="#000000" fill-rule="evenodd" stroke="none"/>
    <path d="M-23.0 107.95 L-46.8 107.95 -46.8 98.35 -23.0 98.35 -23.0 107.95" fill="#000000" fill-rule="evenodd" stroke="none"/>
    <path d="M-91.8 69.0 L-59.65 69.0 -59.65 82.0 -91.8 82.0 -91.8 69.0" fill="#000000" fill-rule="evenodd" stroke="none"/>
    <path d="M-87.0 60.85 L-64.5 60.85 -64.5 73.85 -87.0 73.85 -87.0 60.85" fill="#000000" fill-rule="evenodd" stroke="none"/>
    <path d="M-137.65 91.2 L-94.8 91.2 -94.8 111.5 -137.65 111.5 -137.65 91.2" fill="#000000" fill-rule="evenodd" stroke="none"/>
    <path d="M-154.1 50.15 L-129.9 85.5 -146.95 97.15 -171.15 61.8 -154.1 50.15" fill="#000000" fill-rule="evenodd" stroke="none"/>
    <path d="M-153.75 37.75 L-157.05 50.6 -170.6 47.1 -167.3 34.25 -153.75 37.75" fill="#000000" fill-rule="evenodd" stroke="none"/>
    <path d="M85.8 29.15 L88.75 30.1 91.25 31.9 93.05 34.4 94.0 37.3 94.0 40.4 93.05 43.35 91.25 45.8 88.75 47.65 85.8 48.6 82.75 48.6 79.8 47.65 77.3 45.8 75.5 43.35 74.55 40.4 74.55 37.3 75.5 34.4 77.3 31.9 79.8 30.1 82.75 29.15 85.8 29.15" fill="#000000" fill-rule="evenodd" stroke="none"/>
    <path d="M-22.0 11.9 L-18.45 13.75 -15.45 16.35 -13.2 19.6 -11.75 23.3 -11.2 27.25 -11.65 31.2 -13.05 34.95 -15.25 38.25 -18.25 40.9 -21.75 42.8 -25.6 43.75 -29.55 43.8 -33.45 42.9 -37.0 41.05 -40.0 38.45 -42.25 35.2 -43.7 31.5 -44.25 27.55 -43.8 23.6 -42.4 19.85 -40.2 16.55 -37.25 13.9 -33.7 12.0 -29.85 11.05 -25.9 11.0 -22.0 11.9" fill="#000000" fill-rule="evenodd" stroke="none"/>
    <path d="M-69.6 83.0 L-65.7 85.0 -62.4 87.85 -59.9 91.45 -58.35 95.5 -57.75 99.85 -58.25 104.15 -59.75 108.25 -62.2 111.9 -65.45 114.8 -69.3 116.85 -73.5 117.95 -77.9 118.0 -82.15 117.0 -86.0 115.0 -89.3 112.1 -91.85 108.55 -93.4 104.5 -94.0 100.15 -93.5 95.8 -92.0 91.7 -89.55 88.1 -86.3 85.2 -82.45 83.1 -78.2 82.05 -73.85 82.0 -69.6 83.0" fill="#000000" fill-rule="evenodd" stroke="none"/>
    <path d="M181.0 55.35 L181.0 95.35 162.0 95.35 162.0 55.35 181.0 55.35" fill="#000000" fill-rule="evenodd" stroke="none"/>
    <path d="M180.0 53.85 L161.0 53.85 161.0 13.85 180.0 13.85 180.0 53.85" fill="#000000" fill-rule="evenodd" stroke="none"/>
    <path d="M181.7 -33.3 L181.7 6.7 162.7 6.7 162.7 -33.3 181.7 -33.3" fill="#000000" fill-rule="evenodd" stroke="none"/>
    <path d="M161.0 -40.0 L-14.55 -40.0 -14.55 -60.8 161.0 -60.8 161.0 -40.0" fill="#000000" fill-rule="evenodd" stroke="none"/>
    <path d="M-17.0 -38.3 L-50.55 -38.3 -50.55 -59.15 -17.0 -59.15 -17.0 -38.3" fill="#000000" fill-rule="evenodd" stroke="none"/>
    <path d="M-122.65 -60.65 L-60.3 -60.65 -60.3 -45.3 -122.65 -45.3 -122.65 -60.65" fill="#000000" fill-rule="evenodd" stroke="none"/>
    <path d="M-52.3 10.35 L-43.4 10.95 -45.0 35.0 -53.9 34.45 -52.3 10.35" fill="#000000" fill-rule="evenodd" stroke="none"/>
    <path d="M-120.3 -60.65 L-120.3 -40.0 -163.55 -40.0 -163.55 -60.65 -120.3 -60.65" fill="#000000" fill-rule="evenodd" stroke="none"/>
    <path d="M-216.0 29.5 L-216.0 0.35 -177.0 0.35 -197.0 108.35 -197.0 29.5 -216.0 29.5" fill="#000000" fill-rule="evenodd" stroke="none"/>
    <path d="M-258.65 29.5 L-254.8 26.3 -254.8 29.5 -258.65 29.5 M-254.8 26.3 L-254.8 -38.65 -177.0 -38.65 -254.8 26.3" fill="#000000" fill-rule="evenodd" stroke="none"/>
    <path d="M-258.65 69.35 L-258.65 94.5 -264.8 94.5 -264.8 69.35 -258.65 69.35" fill="#000000" fill-rule="evenodd" stroke="none"/>
    <path d="M188.0 -74.5 L188.0 130.45 -264.8 130.45 -264.8 -74.5 188.0 -74.5" fill="#434343" fill-rule="evenodd" stroke="none"/>
    <path d="M6.4 124.85 L6.4 119.1 -22.65 119.1 -22.65 108.35 -48.5 108.35 -48.5 118.35 -77.0 118.35 -77.0 124.85 -156.6 124.85 -156.6 118.35 -186.1 118.35 -186.1 108.35 -210.85 108.35 -210.85 118.35 -258.65 118.35 -258.65 -67.65 182.1 -67.65 182.1 117.6 141.6 117.6 141.6 108.35 114.6 108.35 114.6 119.1 86.0 119.1 86.0 124.85 6.4 124.85" fill="#969696" fill-rule="evenodd" stroke="none"/>
    <path d="M-168.15 13.5 L-175.15 13.5 -175.15 6.1 -168.15 6.1 -168.15 13.5" fill="#434343" fill-rule="evenodd" stroke="none"/>
    <path d="M-195.25 34.75 L-196.55 34.75 -196.55 29.1 -202.25 29.1 -202.25 27.3 -195.25 27.3 -195.25 34.75" fill="#434343" fill-rule="evenodd" stroke="none"/>
    <path d="M-86.65 13.5 L-93.65 13.5 -93.65 6.1 -86.65 6.1 -86.65 13.5" fill="#434343" fill-rule="evenodd" stroke="none"/>
    <path d="M-4.15 13.5 L-11.15 13.5 -11.15 6.1 -4.15 6.1 -4.15 13.5" fill="#434343" fill-rule="evenodd" stroke="none"/>
    <path d="M76.85 13.5 L69.85 13.5 69.85 6.1 76.85 6.1 76.85 13.5" fill="#434343" fill-rule="evenodd" stroke="none"/>
    <path d="M158.35 13.5 L151.35 13.5 151.35 6.1 158.35 6.1 158.35 13.5" fill="#434343" fill-rule="evenodd" stroke="none"/>
    <path d="M-196.65 108.35 L-196.65 103.45 -195.05 103.45 -195.05 108.35 -196.65 108.35" fill="#434343" fill-rule="evenodd" stroke="none"/>
    <path d="M50.4 36.75 L7.5 36.75 7.5 15.75 50.4 15.75 50.4 36.75" fill="#707070" fill-rule="evenodd" stroke="none"/>
    <path d="M73.0 17.6 L73.0 60.5 53.0 60.5 53.0 17.6 73.0 17.6" fill="#707070" fill-rule="evenodd" stroke="none"/>
    <path d="M40.75 58.6 L-2.15 58.6 -2.15 37.6 40.75 37.6 40.75 58.6" fill="#707070" fill-rule="evenodd" stroke="none"/>
    <path d="M-23.0 107.95 L-46.8 107.95 -46.8 98.35 -23.0 98.35 -23.0 107.95" fill="#707070" fill-rule="evenodd" stroke="none"/>
    <path d="M-91.8 69.0 L-59.65 69.0 -59.65 82.0 -91.8 82.0 -91.8 69.0" fill="#707070" fill-rule="evenodd" stroke="none"/>
    <path d="M-87.0 60.85 L-64.5 60.85 -64.5 73.85 -87.0 73.85 -87.0 60.85" fill="#707070" fill-rule="evenodd" stroke="none"/>
    <path d="M-137.65 91.2 L-94.8 91.2 -94.8 111.5 -137.65 111.5 -137.65 91.2" fill="#707070" fill-rule="evenodd" stroke="none"/>
    <path d="M-154.1 50.15 L-129.9 85.5 -146.95 97.15 -171.15 61.8 -154.1 50.15" fill="#707070" fill-rule="evenodd" stroke="none"/>
    <path d="M-153.75 37.75 L-157.05 50.6 -170.6 47.1 -167.3 34.25 -153.75 37.75" fill="#707070" fill-rule="evenodd" stroke="none"/>
    <path d="M85.8 29.15 L88.75 30.1 91.25 31.9 93.05 34.4 94.0 37.3 94.0 40.4 93.05 43.35 91.25 45.8 88.75 47.65 85.8 48.6 82.75 48.6 79.8 47.65 77.3 45.8 75.5 43.35 74.55 40.4 74.55 37.3 75.5 34.4 77.3 31.9 79.8 30.1 82.75 29.15 85.8 29.15" fill="#707070" fill-rule="evenodd" stroke="none"/>
    <path d="M-22.0 11.9 L-18.45 13.75 -15.45 16.35 -13.2 19.6 -11.75 23.3 -11.2 27.25 -11.65 31.2 -13.05 34.95 -15.25 38.25 -18.25 40.9 -21.75 42.8 -25.6 43.75 -29.55 43.8 -33.45 42.9 -37.0 41.05 -40.0 38.45 -42.25 35.2 -43.7 31.5 -44.25 27.55 -43.8 23.6 -42.4 19.85 -40.2 16.55 -37.25 13.9 -33.7 12.0 -29.85 11.05 -25.9 11.0 -22.0 11.9" fill="#707070" fill-rule="evenodd" stroke="none"/>
    <path d="M-69.6 83.0 L-65.7 85.0 -62.4 87.85 -59.9 91.45 -58.35 95.5 -57.75 99.85 -58.25 104.15 -59.75 108.25 -62.2 111.9 -65.45 114.8 -69.3 116.85 -73.5 117.95 -77.9 118.0 -82.15 117.0 -86.0 115.0 -89.3 112.1 -91.85 108.55 -93.4 104.5 -94.0 100.15 -93.5 95.8 -92.0 91.7 -89.55 88.1 -86.3 85.2 -82.45 83.1 -78.2 82.05 -73.85 82.0 -69.6 83.0" fill="#707070" fill-rule="evenodd" stroke="none"/>
    <path d="M181.0 55.35 L181.0 95.35 162.0 95.35 162.0 55.35 181.0 55.35" fill="#707070" fill-rule="evenodd" stroke="none"/>
    <path d="M180.0 53.85 L161.0 53.85 161.0 13.85 180.0 13.85 180.0 53.85" fill="#707070" fill-rule="evenodd" stroke="none"/>
    <path d="M181.7 -33.3 L181.7 6.7 162.7 6.7 162.7 -33.3 181.7 -33.3" fill="#707070" fill-rule="evenodd" stroke="none"/>
    <path d="M161.0 -40.0 L-14.55 -40.0 -14.55 -60.8 161.0 -60.8 161.0 -40.0" fill="#707070" fill-rule="evenodd" stroke="none"/>
    <path d="M-17.0 -38.3 L-50.55 -38.3 -50.55 -59.15 -17.0 -59.15 -17.0 -38.3" fill="#707070" fill-rule="evenodd" stroke="none"/>
    <path d="M-122.65 -60.65 L-60.3 -60.65 -60.3 -45.3 -122.65 -45.3 -122.65 -60.65" fill="#707070" fill-rule="evenodd" stroke="none"/>
    <path d="M-52.3 10.35 L-43.4 10.95 -45.0 35.0 -53.9 34.45 -52.3 10.35" fill="#707070" fill-rule="evenodd" stroke="none"/>
    <path d="M-120.3 -60.65 L-120.3 -40.0 -163.55 -40.0 -163.55 -60.65 -120.3 -60.65" fill="#707070" fill-rule="evenodd" stroke="none"/>
    <path d="M-195.75 28.25 L-195.75 108.35 -198.25 108.35 -198.25 30.75 -217.25 30.75 -217.25 -0.9 -177.0 -0.9 -177.0 1.6 -214.75 1.6 -214.75 28.25 -195.75 28.25" fill="#707070" fill-rule="evenodd" stroke="none"/>
    <path d="M-177.0 -37.4 L-253.55 -37.4 -253.55 30.75 -258.65 30.75 -258.65 28.25 -256.05 28.25 -256.05 -39.9 -177.0 -39.9 -177.0 -37.4" fill="#707070" fill-rule="evenodd" stroke="none"/>
    <path d="M-258.65 69.35 L-258.65 94.5 -264.8 94.5 -264.8 69.35 -258.65 69.35" fill="#ffffff" fill-rule="evenodd" stroke="none"/>
  </g>
</svg>
