<?xml version="1.0" encoding="UTF-8" standalone="no"?>
<svg xmlns:ffdec="https://www.free-decompiler.com/flash" xmlns:xlink="http://www.w3.org/1999/xlink" ffdec:objectType="shape" height="6.65px" width="11.65px" xmlns="http://www.w3.org/2000/svg">
  <g transform="matrix(1.0, 0.0, 0.0, 1.0, 0.0, 0.05)">
    <path d="M9.5 -0.05 L10.4 0.1 11.1 0.5 11.5 1.15 11.65 2.0 11.5 2.85 11.1 3.5 10.4 3.9 9.5 4.05 7.6 4.05 7.6 6.6 6.65 6.6 6.65 -0.05 9.5 -0.05 M3.5 -0.05 L5.95 6.6 4.95 6.6 4.25 4.75 1.65 4.75 0.95 6.6 0.0 6.6 2.5 -0.05 3.5 -0.05 M10.75 2.0 L10.45 1.1 Q10.1 0.8 9.5 0.8 L7.6 0.8 7.6 3.2 9.5 3.2 10.45 2.9 10.75 2.0 M2.0 3.9 L3.95 3.9 3.0 1.15 2.0 3.9" fill="#ffffff" fill-rule="evenodd" stroke="none"/>
  </g>
</svg>
