<?xml version="1.0" encoding="UTF-8" standalone="no"?>
<svg xmlns:ffdec="https://www.free-decompiler.com/flash" xmlns:xlink="http://www.w3.org/1999/xlink" ffdec:objectType="shape" height="20.0px" width="20.0px" xmlns="http://www.w3.org/2000/svg">
  <g transform="matrix(1.0, 0.0, 0.0, 1.0, 10.0, 10.0)">
    <path d="M1.1 -5.25 Q2.55 -5.15 3.2 -4.55 L2.6 -2.7 Q1.8 -3.4 0.55 -3.4 -0.95 -3.4 -0.95 -2.25 -0.95 -1.3 0.5 -0.8 3.25 0.25 3.25 2.3 3.15 4.45 1.1 5.05 L1.1 6.65 -0.95 6.65 -0.95 5.25 Q-2.05 5.15 -2.75 4.75 L-3.25 4.35 -2.6 2.5 -1.85 2.95 -0.2 3.4 Q1.1 3.4 1.1 2.45 L0.85 1.75 Q0.5 1.4 -0.45 1.0 -3.1 0.0 -3.05 -2.2 -3.05 -4.35 -0.95 -5.05 L-0.95 -6.65 1.1 -6.65 1.1 -5.25" fill="#f5f5f5" fill-rule="evenodd" stroke="none"/>
    <path d="M0.0 -10.0 Q4.15 -10.0 7.1 -7.1 10.0 -4.15 10.0 0.0 10.0 4.15 7.1 7.05 4.15 10.0 0.0 10.0 -4.1 10.0 -7.05 7.05 -10.0 4.15 -10.0 0.0 -10.0 -4.15 -7.05 -7.1 -4.15 -10.0 0.0 -10.0 M1.1 -5.25 L1.1 -6.65 -0.95 -6.65 -0.95 -5.05 Q-3.05 -4.35 -3.05 -2.2 -3.1 0.0 -0.45 1.0 0.5 1.4 0.85 1.75 L1.1 2.45 Q1.1 3.4 -0.2 3.4 L-1.85 2.95 -2.6 2.5 -3.25 4.35 -2.75 4.75 Q-2.05 5.15 -0.95 5.25 L-0.95 6.65 1.1 6.65 1.1 5.05 Q3.15 4.45 3.25 2.3 3.25 0.25 0.5 -0.8 -0.95 -1.3 -0.95 -2.25 -0.95 -3.4 0.55 -3.4 1.8 -3.4 2.6 -2.7 L3.2 -4.55 Q2.55 -5.15 1.1 -5.25" fill="#4ecd58" fill-rule="evenodd" stroke="none"/>
  </g>
</svg>
