<?xml version="1.0" encoding="UTF-8" standalone="no"?>
<svg xmlns:ffdec="https://www.free-decompiler.com/flash" xmlns:xlink="http://www.w3.org/1999/xlink" ffdec:objectType="shape" height="311.0px" width="314.0px" xmlns="http://www.w3.org/2000/svg">
  <g transform="matrix(1.0, 0.0, 0.0, 1.0, 157.0, 125.0)">
    <path d="M132.2 -26.9 L132.2 -19.8 157.0 -19.8 157.0 40.05 Q157.0 47.3 151.55 51.65 146.55 55.55 139.55 55.55 L114.6 55.55 109.25 54.8 Q104.45 53.55 101.35 50.45 97.15 46.2 97.15 40.05 L97.15 27.35 79.35 27.35 79.35 48.55 Q85.4 49.45 89.3 53.3 93.6 57.55 93.6 63.95 L93.6 112.1 Q93.6 116.75 91.1 120.5 L122.75 120.5 Q126.9 120.5 129.85 123.45 132.8 126.35 132.8 130.5 L132.8 175.95 Q132.8 180.1 129.85 183.05 126.9 186.0 122.75 186.0 L-142.1 186.0 Q-148.25 186.0 -152.6 181.6 -157.0 177.2 -157.0 171.05 L-157.0 135.35 Q-157.0 129.2 -152.6 124.85 -148.25 120.5 -142.1 120.5 L-118.3 120.5 Q-120.85 116.75 -120.85 112.1 L-120.85 63.9 Q-120.85 56.6 -115.35 52.2 -110.4 48.2 -103.35 48.2 L-102.75 48.2 Q-105.05 44.65 -105.05 40.05 L-105.05 11.25 -110.05 11.25 -110.05 -9.3 -155.55 -9.3 -155.55 -93.25 Q-155.55 -99.2 -150.7 -103.85 -145.55 -108.85 -138.05 -108.85 L-95.4 -108.85 -95.4 -108.75 -62.95 -108.75 -58.1 -108.15 Q-53.7 -107.1 -50.65 -104.45 -48.2 -106.55 -44.9 -107.7 -41.7 -108.8 -38.2 -108.85 L-13.3 -108.85 Q-9.45 -108.85 -5.95 -107.45 L-5.95 -108.75 29.05 -108.75 29.05 -108.2 36.45 -108.8 Q39.55 -108.8 42.65 -107.7 46.1 -106.5 48.7 -104.35 51.1 -106.5 54.5 -107.7 57.75 -108.85 61.25 -108.85 L68.75 -108.85 68.75 -125.0 103.95 -125.0 103.95 -29.35 -20.2 -29.35 -20.2 -23.85 -11.8 -23.85 Q-8.75 -23.85 -5.8 -22.8 -2.85 -21.7 -0.55 -19.75 1.95 -21.8 5.2 -22.9 8.35 -23.95 11.8 -23.95 L36.75 -23.95 Q40.75 -23.95 44.6 -22.35 47.25 -21.3 49.2 -19.6 51.65 -21.75 55.0 -22.9 58.2 -23.95 61.65 -23.95 L97.15 -23.95 97.15 -26.9 132.2 -26.9" fill="#000000" fill-rule="evenodd" stroke="none"/>
    <path d="M76.25 -52.65 L76.25 -85.15 71.4 -85.15 71.4 -52.65 76.25 -52.65 M96.4 -117.45 L96.4 -36.9 61.3 -36.9 Q58.85 -36.9 56.3 -37.9 51.3 -39.95 51.3 -44.9 L51.3 -93.2 Q51.3 -98.25 56.3 -100.25 58.85 -101.3 61.3 -101.3 L76.3 -101.3 76.3 -117.45 96.4 -117.45" fill="#ffffff" fill-rule="evenodd" stroke="none"/>
    <path d="M-127.9 -85.15 L-127.9 -52.8 -123.05 -52.8 -123.05 -85.15 -127.9 -85.15 M-148.0 -93.25 Q-148.0 -96.25 -145.3 -98.65 -142.35 -101.3 -138.05 -101.3 L-102.95 -101.3 -102.95 -25.15 -103.1 -23.8 Q-103.4 -22.2 -104.2 -20.9 -106.65 -16.7 -112.85 -16.7 L-148.0 -16.65 -148.0 -32.75 -123.05 -32.75 -123.05 -36.8 -138.0 -36.8 Q-140.5 -36.8 -143.0 -37.8 -148.0 -39.85 -148.0 -44.8 L-148.0 -93.25" fill="#ffffff" fill-rule="evenodd" stroke="none"/>
    <path d="M36.45 -101.2 Q39.65 -101.2 42.55 -99.5 46.35 -97.2 46.35 -93.1 L46.35 -36.9 26.4 -36.9 26.4 -85.1 21.55 -85.1 21.55 -36.9 1.6 -36.9 1.6 -101.2 21.55 -101.2 21.55 -97.2 Q26.5 -101.2 36.45 -101.2" fill="#ffffff" fill-rule="evenodd" stroke="none"/>
    <path d="M99.75 -12.3 L104.7 -12.3 104.7 -19.4 124.7 -19.4 124.7 -12.3 149.5 -12.3 149.5 3.75 124.7 3.75 124.7 31.95 129.65 31.95 129.65 7.75 149.5 7.75 149.5 40.05 Q149.5 45.05 144.5 47.05 142.95 47.7 141.1 47.9 L139.55 48.05 114.65 48.05 Q112.15 48.05 109.7 47.0 104.7 45.05 104.7 40.05 L104.7 3.75 99.75 3.75 99.75 -12.3" fill="#ffffff" fill-rule="evenodd" stroke="none"/>
    <path d="M96.75 3.65 L96.75 19.85 71.8 19.85 71.8 48.05 51.7 48.05 51.7 -8.3 Q51.7 -13.35 56.7 -15.45 59.2 -16.45 61.7 -16.45 L96.75 -16.45 96.7 -0.25 71.8 -0.25 71.8 3.65 96.75 3.65" fill="#ffffff" fill-rule="evenodd" stroke="none"/>
    <path d="M26.7 -0.25 L21.8 -0.25 21.8 7.75 26.7 7.75 26.7 -0.25 M6.8 -15.45 Q9.3 -16.45 11.8 -16.45 L36.75 -16.45 38.3 -16.3 41.75 -15.45 Q46.7 -13.4 46.7 -8.35 L46.7 23.9 21.8 23.9 21.8 32.05 26.7 32.05 26.7 27.95 46.7 27.95 46.7 40.05 Q46.7 45.05 41.75 47.05 40.2 47.7 38.3 47.95 L36.75 48.05 11.8 48.05 Q9.3 48.05 6.8 47.05 1.8 45.05 1.8 40.05 L1.8 -8.3 Q1.8 -13.35 6.8 -15.45" fill="#ffffff" fill-rule="evenodd" stroke="none"/>
    <path d="M-102.5 -12.3 L-97.8 -12.3 -97.8 -19.65 -77.8 -19.65 -77.8 -12.3 -52.8 -12.3 -52.8 3.75 -77.6 3.75 -77.6 32.05 -72.6 32.05 -72.6 7.8 -52.8 7.8 -52.8 40.05 Q-52.8 45.05 -57.7 47.05 L-61.1 47.95 -62.65 48.05 -87.65 48.05 Q-90.1 48.05 -92.6 47.05 -97.55 45.05 -97.55 40.05 L-97.55 3.75 -102.5 3.75 -102.5 -12.3" fill="#ffffff" fill-rule="evenodd" stroke="none"/>
    <path d="M-73.0 -85.1 L-77.85 -85.15 -77.85 -77.1 -73.0 -77.1 -73.0 -85.1 M-11.8 -16.3 L-10.4 -16.15 -7.35 -15.25 Q-2.95 -13.25 -2.95 -8.2 L-2.95 48.05 -22.9 48.05 -22.9 -0.2 -27.7 -0.2 -27.7 48.05 -47.7 48.05 -47.7 -16.8 -63.0 -16.8 Q-65.5 -16.8 -68.0 -17.8 -73.0 -19.75 -73.0 -24.8 L-73.0 -60.95 -77.85 -60.95 -77.85 -24.1 -97.8 -24.1 -97.8 -101.2 -63.0 -101.2 -61.45 -101.1 Q-59.6 -100.85 -58.0 -100.2 -53.1 -98.2 -53.1 -93.1 L-53.1 -73.05 Q-53.1 -71.65 -54.35 -70.55 L-55.6 -69.75 -54.35 -68.7 Q-53.05 -67.2 -53.1 -65.05 L-53.1 -32.75 -27.7 -32.8 -27.7 -16.3 -11.8 -16.3" fill="#ffffff" fill-rule="evenodd" stroke="none"/>
    <path d="M-23.35 -52.95 L-23.35 -61.05 -28.2 -61.05 -28.2 -52.95 -23.35 -52.95 M-13.3 -101.25 L-11.75 -101.15 -8.3 -100.25 Q-3.35 -98.25 -3.35 -93.15 L-3.35 -36.95 -38.2 -36.95 Q-40.7 -36.95 -43.15 -37.95 -48.15 -39.95 -48.15 -44.95 L-48.15 -69.2 Q-48.15 -74.15 -43.15 -76.15 -40.7 -77.2 -38.2 -77.2 L-23.35 -77.2 -23.35 -85.15 -28.2 -85.15 -28.2 -81.2 -48.15 -81.2 -48.15 -93.15 Q-48.15 -98.25 -43.15 -100.25 -40.7 -101.25 -38.2 -101.25 L-13.3 -101.25" fill="#ffffff" fill-rule="evenodd" stroke="none"/>
    <path d="M-88.5 104.05 L-88.5 95.95 -93.3 95.95 -93.3 104.05 -88.5 104.05 M-78.45 55.75 L-76.9 55.85 Q-75.05 56.15 -73.5 56.75 -68.5 58.8 -68.5 63.9 L-68.5 120.1 -103.35 120.1 Q-105.85 120.1 -108.3 119.1 -113.3 117.05 -113.3 112.1 L-113.3 87.85 Q-113.3 82.85 -108.3 80.85 -105.85 79.85 -103.35 79.85 L-88.5 79.85 -88.5 71.9 -93.3 71.9 -93.3 75.8 -113.3 75.8 -113.3 63.9 Q-113.3 58.8 -108.3 56.75 -105.85 55.75 -103.35 55.75 L-78.45 55.75" fill="#ffffff" fill-rule="evenodd" stroke="none"/>
    <path d="M-43.5 104.05 L-38.7 104.05 -38.7 55.75 -18.75 55.75 -18.75 112.05 Q-18.75 117.05 -23.7 119.05 -25.25 119.7 -27.1 119.95 L-28.65 120.1 -53.55 120.1 Q-56.0 120.1 -58.5 119.05 -63.4 117.0 -63.4 112.0 L-63.4 55.65 -43.5 55.65 -43.5 104.05" fill="#ffffff" fill-rule="evenodd" stroke="none"/>
    <path d="M36.1 59.8 L36.1 75.85 11.3 75.85 11.3 104.0 16.25 104.0 16.25 79.8 36.1 79.8 36.1 112.1 Q36.1 117.05 31.1 119.1 29.55 119.7 27.7 119.95 L26.15 120.1 1.25 120.1 Q-1.25 120.05 -3.7 119.05 -8.7 117.0 -8.7 112.1 L-8.7 75.85 -13.65 75.85 -13.65 59.8 -8.7 59.8 -8.7 52.45 11.3 52.45 11.3 59.8 36.1 59.8" fill="#ffffff" fill-rule="evenodd" stroke="none"/>
    <path d="M36.1 59.8 L36.1 75.85 11.3 75.85 11.3 104.0 16.25 104.0 16.25 79.8 36.1 79.8 36.1 112.1 Q36.1 117.05 31.1 119.1 29.55 119.7 27.7 119.95 L26.15 120.1 1.25 120.1 Q-1.25 120.05 -3.7 119.05 -8.7 117.0 -8.7 112.1 L-8.7 75.85 -13.65 75.85 -13.65 59.8 -8.7 59.8 -8.7 52.45 11.3 52.45 11.3 59.8 36.1 59.8" fill="#ffffff" fill-rule="evenodd" stroke="none"/>
    <path d="M-130.0 -50.7 L-129.35 -51.35 -121.5 -51.35 -121.5 -86.6 -120.85 -87.2 -120.85 -50.7 -130.0 -50.7" fill="#8e8e8e" fill-rule="evenodd" stroke="none"/>
    <path d="M-104.35 -99.85 L-104.35 -99.8 -105.0 -99.15 -138.35 -99.15 Q-143.15 -98.65 -145.0 -95.85 -145.9 -94.45 -145.85 -93.1 L-145.85 -44.8 -145.7 -43.85 Q-145.5 -42.75 -144.85 -41.85 -142.9 -38.9 -137.95 -38.9 L-120.85 -38.9 -120.85 -30.6 -145.85 -30.6 -145.85 -18.75 -112.85 -18.75 Q-111.55 -18.75 -110.2 -19.25 -109.0 -19.65 -107.65 -20.55 L-107.5 -20.65 -107.1 -20.2 -107.25 -20.05 -107.3 -20.05 -107.3 -20.0 Q-108.8 -19.05 -110.05 -18.6 L-112.85 -18.15 -146.45 -18.15 -146.45 -31.2 -121.5 -31.2 -121.5 -38.25 -137.95 -38.25 Q-143.3 -38.25 -145.4 -41.5 -146.05 -42.55 -146.35 -43.8 L-146.45 -44.8 -146.45 -93.1 Q-146.5 -94.55 -145.5 -96.15 -143.5 -99.25 -138.45 -99.8 L-104.35 -99.85" fill="#8e8e8e" fill-rule="evenodd" stroke="none"/>
    <path d="M36.45 -99.7 Q39.55 -99.7 42.15 -97.85 L41.65 -97.4 Q39.35 -99.1 36.45 -99.1 31.9 -99.1 28.35 -98.1 25.05 -97.25 22.95 -95.5 L19.45 -92.65 19.45 -99.1 3.75 -99.1 3.75 -39.0 19.45 -39.0 20.1 -38.35 3.15 -38.35 3.15 -99.7 20.1 -99.7 20.1 -94.0 22.55 -96.0 Q24.75 -97.8 28.2 -98.75 31.8 -99.7 36.45 -99.7" fill="#8e8e8e" fill-rule="evenodd" stroke="none"/>
    <path d="M27.95 -86.55 L28.55 -87.2 28.55 -39.0 44.25 -39.0 44.9 -38.4 44.9 -38.35 27.95 -38.35 27.95 -86.55" fill="#8e8e8e" fill-rule="evenodd" stroke="none"/>
    <path d="M94.95 -115.9 L94.35 -115.25 94.35 -115.3 78.5 -115.3 78.5 -99.15 61.35 -99.15 Q59.4 -99.15 57.45 -98.4 53.5 -96.9 53.5 -93.15 L53.5 -44.85 Q53.5 -41.2 57.45 -39.75 59.4 -39.0 61.35 -39.0 L94.35 -39.0 94.95 -38.35 61.35 -38.35 Q59.2 -38.35 57.15 -39.2 52.85 -40.85 52.85 -44.85 L52.85 -93.2 Q52.85 -97.3 57.15 -98.95 59.2 -99.8 61.35 -99.8 L77.85 -99.8 77.85 -115.9 94.95 -115.9" fill="#8e8e8e" fill-rule="evenodd" stroke="none"/>
    <path d="M78.25 -50.55 L69.1 -50.55 69.75 -51.15 77.65 -51.15 77.65 -86.6 78.25 -87.25 78.25 -50.55" fill="#8e8e8e" fill-rule="evenodd" stroke="none"/>
    <path d="M148.05 -10.75 L147.4 -10.1 122.6 -10.1 122.6 -10.15 123.25 -10.75 148.05 -10.75" fill="#8e8e8e" fill-rule="evenodd" stroke="none"/>
    <path d="M123.25 2.35 L122.6 1.7 147.4 1.7 148.0 2.35 123.25 2.35" fill="#8e8e8e" fill-rule="evenodd" stroke="none"/>
    <path d="M131.2 9.25 L148.05 9.3 147.4 9.9 131.8 9.9 131.8 34.1 122.6 34.1 123.25 33.5 131.2 33.5 131.2 9.25" fill="#8e8e8e" fill-rule="evenodd" stroke="none"/>
    <path d="M101.3 -10.75 L106.25 -10.75 106.25 -17.85 123.2 -17.85 122.6 -17.25 106.9 -17.25 106.9 -10.1 101.95 -10.1 101.95 1.7 106.9 1.7 106.9 39.75 Q106.9 43.65 110.35 45.15 112.1 45.9 113.8 45.85 L139.6 45.95 141.0 45.75 144.5 44.4 144.95 44.85 Q143.45 45.85 141.4 46.3 L139.6 46.55 114.35 46.55 Q112.35 46.55 110.35 45.75 106.25 44.05 106.25 39.75 L106.25 2.35 101.3 2.35 101.3 -10.75" fill="#8e8e8e" fill-rule="evenodd" stroke="none"/>
    <path d="M94.7 -2.4 L95.35 -1.75 70.4 -1.75 69.7 -2.4 94.7 -2.4" fill="#8e8e8e" fill-rule="evenodd" stroke="none"/>
    <path d="M94.7 17.75 L95.35 18.35 70.35 18.35 69.7 17.75 94.7 17.75" fill="#8e8e8e" fill-rule="evenodd" stroke="none"/>
    <path d="M95.35 -14.9 L94.7 -14.3 61.75 -14.3 Q59.75 -14.3 57.8 -13.55 53.85 -12.0 53.85 -8.3 L53.85 45.95 69.7 45.95 70.35 46.6 53.25 46.6 53.25 -8.3 Q53.25 -12.45 57.5 -14.1 59.6 -14.9 61.75 -14.9 L95.35 -14.9" fill="#8e8e8e" fill-rule="evenodd" stroke="none"/>
    <path d="M95.35 5.2 L94.7 5.85 69.7 5.85 70.35 5.2 95.35 5.2" fill="#8e8e8e" fill-rule="evenodd" stroke="none"/>
    <path d="M19.75 -2.4 L28.85 -2.4 28.85 9.9 19.75 9.9 20.4 9.25 28.25 9.25 28.25 -1.75 20.4 -1.75 19.75 -2.4" fill="#8e8e8e" fill-rule="evenodd" stroke="none"/>
    <path d="M45.25 29.5 L44.6 30.1 28.85 30.1 28.85 34.2 19.75 34.2 20.4 33.55 28.25 33.55 28.25 29.5 45.25 29.5" fill="#8e8e8e" fill-rule="evenodd" stroke="none"/>
    <path d="M7.6 -14.1 Q9.75 -14.9 11.8 -14.9 L36.8 -14.9 Q39.0 -14.9 41.0 -13.9 L42.6 -12.95 42.15 -12.5 40.7 -13.4 Q38.85 -14.3 36.8 -14.3 L11.8 -14.3 Q9.9 -14.3 7.95 -13.55 4.05 -12.0 4.05 -8.3 L4.05 39.75 Q4.05 43.65 7.95 45.2 9.9 45.95 11.8 45.95 L36.8 45.95 Q39.25 45.95 41.6 44.5 L42.05 44.95 Q39.55 46.6 36.8 46.6 L11.8 46.6 Q9.7 46.6 7.6 45.75 3.35 44.05 3.35 39.75 L3.35 -8.3 Q3.35 -12.45 7.6 -14.1" fill="#8e8e8e" fill-rule="evenodd" stroke="none"/>
    <path d="M20.4 22.45 L19.75 21.8 44.6 21.8 45.25 22.45 20.4 22.45" fill="#8e8e8e" fill-rule="evenodd" stroke="none"/>
    <path d="M-13.2 -99.75 Q-11.3 -99.75 -9.4 -98.95 -8.5 -98.55 -7.95 -98.15 L-8.4 -97.7 -9.75 -98.4 Q-11.4 -99.15 -13.2 -99.15 L-38.15 -99.15 Q-40.05 -99.15 -42.0 -98.35 -45.95 -96.85 -45.95 -93.1 L-45.95 -83.35 -30.25 -83.35 -29.65 -82.75 -29.65 -82.7 -46.6 -82.7 -46.6 -93.1 Q-46.6 -97.25 -42.35 -98.95 -40.25 -99.75 -38.15 -99.75 L-13.2 -99.75" fill="#8e8e8e" fill-rule="evenodd" stroke="none"/>
    <path d="M-21.8 -86.7 L-29.6 -86.7 -30.25 -87.3 -21.1 -87.3 -21.1 -75.0 -38.15 -75.0 Q-40.05 -75.0 -42.0 -74.25 -45.95 -72.8 -45.95 -69.15 L-45.95 -44.9 Q-45.95 -41.25 -42.0 -39.8 -40.05 -39.05 -38.15 -39.05 L-5.5 -39.05 -4.9 -38.45 -38.15 -38.45 Q-40.25 -38.45 -42.35 -39.25 -46.6 -40.85 -46.6 -44.9 L-46.6 -69.15 Q-46.6 -73.2 -42.35 -74.8 -40.25 -75.65 -38.15 -75.65 L-21.8 -75.65 -21.8 -86.7" fill="#8e8e8e" fill-rule="evenodd" stroke="none"/>
    <path d="M-29.6 -62.5 L-30.25 -63.15 -21.15 -63.15 -21.15 -50.75 -30.25 -50.75 -30.25 -50.8 -29.65 -51.4 -21.8 -51.4 -21.8 -62.5 -29.6 -62.5" fill="#8e8e8e" fill-rule="evenodd" stroke="none"/>
    <path d="M-130.0 -50.7 L-129.35 -51.35 -121.5 -51.35 -121.5 -86.6 -120.85 -87.2 -120.85 -50.7 -130.0 -50.7" fill="#8e8e8e" fill-rule="evenodd" stroke="none"/>
    <path d="M-104.35 -99.85 L-104.35 -99.8 -105.0 -99.15 -138.35 -99.15 Q-143.15 -98.65 -145.0 -95.85 -145.9 -94.45 -145.85 -93.1 L-145.85 -44.8 -145.7 -43.85 Q-145.5 -42.75 -144.85 -41.85 -142.9 -38.9 -137.95 -38.9 L-120.85 -38.9 -120.85 -30.6 -145.85 -30.6 -145.85 -18.75 -112.85 -18.75 Q-111.55 -18.75 -110.2 -19.25 -109.0 -19.65 -107.65 -20.55 L-107.5 -20.65 -107.1 -20.2 -107.25 -20.05 -107.3 -20.05 -107.3 -20.0 Q-108.8 -19.05 -110.05 -18.6 L-112.85 -18.15 -146.45 -18.15 -146.45 -31.2 -121.5 -31.2 -121.5 -38.25 -137.95 -38.25 Q-143.3 -38.25 -145.4 -41.5 -146.05 -42.55 -146.35 -43.8 L-146.45 -44.8 -146.45 -93.1 Q-146.5 -94.55 -145.5 -96.15 -143.5 -99.25 -138.45 -99.8 L-104.35 -99.85" fill="#8e8e8e" fill-rule="evenodd" stroke="none"/>
    <path d="M36.45 -99.7 Q39.55 -99.7 42.15 -97.85 L41.65 -97.4 Q39.35 -99.1 36.45 -99.1 31.9 -99.1 28.35 -98.1 25.05 -97.25 22.95 -95.5 L19.45 -92.65 19.45 -99.1 3.75 -99.1 3.75 -39.0 19.45 -39.0 20.1 -38.35 3.15 -38.35 3.15 -99.7 20.1 -99.7 20.1 -94.0 22.55 -96.0 Q24.75 -97.8 28.2 -98.75 31.8 -99.7 36.45 -99.7" fill="#8e8e8e" fill-rule="evenodd" stroke="none"/>
    <path d="M27.95 -86.55 L28.55 -87.2 28.55 -39.0 44.25 -39.0 44.9 -38.4 44.9 -38.35 27.95 -38.35 27.95 -86.55" fill="#8e8e8e" fill-rule="evenodd" stroke="none"/>
    <path d="M94.95 -115.9 L94.35 -115.25 94.35 -115.3 78.5 -115.3 78.5 -99.15 61.35 -99.15 Q59.4 -99.15 57.45 -98.4 53.5 -96.9 53.5 -93.15 L53.5 -44.85 Q53.5 -41.2 57.45 -39.75 59.4 -39.0 61.35 -39.0 L94.35 -39.0 94.95 -38.35 61.35 -38.35 Q59.2 -38.35 57.15 -39.2 52.85 -40.85 52.85 -44.85 L52.85 -93.2 Q52.85 -97.3 57.15 -98.95 59.2 -99.8 61.35 -99.8 L77.85 -99.8 77.85 -115.9 94.95 -115.9" fill="#8e8e8e" fill-rule="evenodd" stroke="none"/>
    <path d="M78.25 -50.55 L69.1 -50.55 69.75 -51.15 77.65 -51.15 77.65 -86.6 78.25 -87.25 78.25 -50.55" fill="#8e8e8e" fill-rule="evenodd" stroke="none"/>
    <path d="M148.05 -10.75 L147.4 -10.1 122.6 -10.1 122.6 -10.15 123.25 -10.75 148.05 -10.75" fill="#8e8e8e" fill-rule="evenodd" stroke="none"/>
    <path d="M123.25 2.35 L122.6 1.7 147.4 1.7 148.0 2.35 123.25 2.35" fill="#8e8e8e" fill-rule="evenodd" stroke="none"/>
    <path d="M131.2 9.25 L148.05 9.3 147.4 9.9 131.8 9.9 131.8 34.1 122.6 34.1 123.25 33.5 131.2 33.5 131.2 9.25" fill="#8e8e8e" fill-rule="evenodd" stroke="none"/>
    <path d="M101.3 -10.75 L106.25 -10.75 106.25 -17.85 123.2 -17.85 122.6 -17.25 106.9 -17.25 106.9 -10.1 101.95 -10.1 101.95 1.7 106.9 1.7 106.9 39.75 Q106.9 43.65 110.35 45.15 112.1 45.9 113.8 45.85 L139.6 45.95 141.0 45.75 144.5 44.4 144.95 44.85 Q143.45 45.85 141.4 46.3 L139.6 46.55 114.35 46.55 Q112.35 46.55 110.35 45.75 106.25 44.05 106.25 39.75 L106.25 2.35 101.3 2.35 101.3 -10.75" fill="#8e8e8e" fill-rule="evenodd" stroke="none"/>
    <path d="M94.7 -2.4 L95.35 -1.75 70.4 -1.75 69.7 -2.4 94.7 -2.4" fill="#8e8e8e" fill-rule="evenodd" stroke="none"/>
    <path d="M94.7 17.75 L95.35 18.35 70.35 18.35 69.7 17.75 94.7 17.75" fill="#8e8e8e" fill-rule="evenodd" stroke="none"/>
    <path d="M95.35 -14.9 L94.7 -14.3 61.75 -14.3 Q59.75 -14.3 57.8 -13.55 53.85 -12.0 53.85 -8.3 L53.85 45.95 69.7 45.95 70.35 46.6 53.25 46.6 53.25 -8.3 Q53.25 -12.45 57.5 -14.1 59.6 -14.9 61.75 -14.9 L95.35 -14.9" fill="#8e8e8e" fill-rule="evenodd" stroke="none"/>
    <path d="M95.35 5.2 L94.7 5.85 69.7 5.85 70.35 5.2 95.35 5.2" fill="#8e8e8e" fill-rule="evenodd" stroke="none"/>
    <path d="M19.75 -2.4 L28.85 -2.4 28.85 9.9 19.75 9.9 20.4 9.25 28.25 9.25 28.25 -1.75 20.4 -1.75 19.75 -2.4" fill="#8e8e8e" fill-rule="evenodd" stroke="none"/>
    <path d="M45.25 29.5 L44.6 30.1 28.85 30.1 28.85 34.2 19.75 34.2 20.4 33.55 28.25 33.55 28.25 29.5 45.25 29.5" fill="#8e8e8e" fill-rule="evenodd" stroke="none"/>
    <path d="M7.6 -14.1 Q9.75 -14.9 11.8 -14.9 L36.8 -14.9 Q39.0 -14.9 41.0 -13.9 L42.6 -12.95 42.15 -12.5 40.7 -13.4 Q38.85 -14.3 36.8 -14.3 L11.8 -14.3 Q9.9 -14.3 7.95 -13.55 4.05 -12.0 4.05 -8.3 L4.05 39.75 Q4.05 43.65 7.95 45.2 9.9 45.95 11.8 45.95 L36.8 45.95 Q39.25 45.95 41.6 44.5 L42.05 44.95 Q39.55 46.6 36.8 46.6 L11.8 46.6 Q9.7 46.6 7.6 45.75 3.35 44.05 3.35 39.75 L3.35 -8.3 Q3.35 -12.45 7.6 -14.1" fill="#8e8e8e" fill-rule="evenodd" stroke="none"/>
    <path d="M20.4 22.45 L19.75 21.8 44.6 21.8 45.25 22.45 20.4 22.45" fill="#8e8e8e" fill-rule="evenodd" stroke="none"/>
    <path d="M-70.85 -74.95 L-79.9 -74.95 -79.3 -75.6 -71.45 -75.6 -71.45 -86.55 -70.85 -87.2 -70.85 -74.95" fill="#8e8e8e" fill-rule="evenodd" stroke="none"/>
    <path d="M-61.05 -99.5 Q-58.8 -99.0 -57.0 -97.7 L-57.35 -97.2 Q-59.2 -98.45 -61.25 -98.9 L-62.9 -99.1 -95.65 -99.1 -95.65 -26.15 -79.95 -26.15 -79.3 -25.55 -96.25 -25.55 -96.25 -99.7 -62.9 -99.7 -61.05 -99.5" fill="#8e8e8e" fill-rule="evenodd" stroke="none"/>
    <path d="M-29.2 -31.25 L-29.8 -30.6 -55.15 -30.65 -54.55 -31.25 -29.2 -31.25" fill="#8e8e8e" fill-rule="evenodd" stroke="none"/>
    <path d="M-8.1 -12.85 Q-10.3 -14.15 -12.7 -14.15 L-29.8 -14.15 -29.2 -14.75 -12.7 -14.75 Q-10.0 -14.75 -7.75 -13.35 L-7.2 -12.95 -7.65 -12.5 -8.1 -12.85" fill="#8e8e8e" fill-rule="evenodd" stroke="none"/>
    <path d="M-71.45 -62.45 L-70.85 -63.05 -70.85 -24.75 Q-70.85 -21.1 -66.85 -19.6 -64.9 -18.9 -62.9 -18.9 L-45.5 -18.9 -45.5 45.95 -29.8 45.95 -29.2 46.6 -46.15 46.6 -46.15 -18.25 -62.95 -18.25 Q-65.05 -18.25 -67.2 -19.05 -71.45 -20.7 -71.45 -24.75 L-71.45 -62.45" fill="#8e8e8e" fill-rule="evenodd" stroke="none"/>
    <path d="M-21.35 -1.65 L-29.2 -1.65 -29.8 -2.3 -20.7 -2.3 -20.7 45.95 -5.05 45.95 -4.4 46.6 -21.35 46.6 -21.35 -1.65" fill="#8e8e8e" fill-rule="evenodd" stroke="none"/>
    <path d="M-78.6 57.2 Q-76.65 57.2 -74.8 58.0 -73.85 58.4 -73.35 58.8 L-73.8 59.25 -75.1 58.55 Q-76.8 57.8 -78.6 57.8 L-103.5 57.8 Q-105.45 57.8 -107.4 58.55 -111.3 60.05 -111.3 63.8 L-111.3 73.6 -95.65 73.55 -95.05 74.2 -111.95 74.2 -111.95 63.8 Q-111.95 59.65 -107.75 58.0 -105.6 57.2 -103.5 57.2 L-78.6 57.2" fill="#8e8e8e" fill-rule="evenodd" stroke="none"/>
    <path d="M-87.15 81.3 L-87.15 70.25 -95.0 70.25 -95.6 69.65 -86.5 69.65 -86.5 81.9 -103.5 81.9 Q-105.45 81.9 -107.4 82.65 -111.3 84.15 -111.3 87.8 L-111.3 112.0 Q-111.3 115.65 -107.4 117.15 -105.45 117.9 -103.5 117.9 L-70.9 117.85 -70.25 118.5 -103.5 118.5 Q-105.6 118.5 -107.75 117.7 -111.95 116.05 -111.95 112.0 L-111.95 87.8 Q-111.95 83.75 -107.75 82.1 -105.6 81.3 -103.5 81.3 L-87.15 81.3" fill="#8e8e8e" fill-rule="evenodd" stroke="none"/>
    <path d="M-95.0 94.4 L-95.65 93.8 -86.5 93.8 -86.5 106.15 -95.65 106.15 -95.05 105.55 -87.15 105.55 -87.15 94.4 -95.0 94.4" fill="#8e8e8e" fill-rule="evenodd" stroke="none"/>
    <path d="M-13.3 -99.75 Q-11.3 -99.75 -9.5 -98.95 L-8.0 -98.15 -8.45 -97.7 -9.75 -98.4 Q-11.45 -99.15 -13.3 -99.15 L-38.2 -99.15 Q-40.15 -99.15 -42.1 -98.35 -46.0 -96.85 -46.0 -93.1 L-46.0 -83.35 -30.35 -83.35 -29.75 -82.75 -29.75 -82.7 -46.6 -82.7 -46.6 -93.1 Q-46.6 -97.25 -42.4 -98.95 -40.3 -99.75 -38.2 -99.75 L-13.3 -99.75" fill="#8e8e8e" fill-rule="evenodd" stroke="none"/>
    <path d="M-21.8 -86.7 L-29.65 -86.7 -30.25 -87.3 -21.2 -87.3 -21.2 -75.0 -38.2 -75.0 Q-40.15 -75.0 -42.1 -74.25 -46.0 -72.8 -46.0 -69.15 L-46.0 -44.9 Q-46.0 -41.25 -42.1 -39.8 -40.15 -39.05 -38.2 -39.05 L-5.6 -39.05 -4.95 -38.45 -38.2 -38.45 Q-40.3 -38.45 -42.4 -39.25 -46.6 -40.85 -46.6 -44.9 L-46.6 -69.15 Q-46.6 -73.2 -42.4 -74.8 -40.3 -75.65 -38.2 -75.65 L-21.8 -75.65 -21.8 -86.7" fill="#8e8e8e" fill-rule="evenodd" stroke="none"/>
    <path d="M-29.7 -62.5 L-30.35 -63.15 -21.2 -63.15 -21.2 -50.75 -30.35 -50.75 -30.35 -50.8 -29.75 -51.4 -21.8 -51.4 -21.8 -62.5 -29.7 -62.5" fill="#8e8e8e" fill-rule="evenodd" stroke="none"/>
    <path d="M-62.1 57.2 L-45.15 57.2 -45.8 57.8 -61.45 57.8 -61.45 112.0 Q-61.45 115.65 -57.55 117.15 -55.6 117.9 -53.7 117.9 L-28.8 117.9 Q-26.35 117.9 -23.95 116.4 L-23.5 116.85 Q-26.25 118.6 -28.8 118.6 L-53.7 118.6 Q-55.75 118.6 -57.85 117.7 -62.1 116.05 -62.1 112.0 L-62.1 57.2" fill="#8e8e8e" fill-rule="evenodd" stroke="none"/>
    <path d="M-36.7 106.15 L-45.8 106.15 -45.15 105.5 -37.3 105.5 -37.3 57.25 -20.4 57.25 -21.0 57.9 -36.7 57.9 -36.7 106.15" fill="#8e8e8e" fill-rule="evenodd" stroke="none"/>
    <path d="M34.4 61.35 L33.8 62.0 9.0 62.0 9.65 61.35 34.4 61.35" fill="#8e8e8e" fill-rule="evenodd" stroke="none"/>
    <path d="M33.8 73.8 L34.4 74.45 9.65 74.45 9.0 73.8 33.8 73.8" fill="#8e8e8e" fill-rule="evenodd" stroke="none"/>
    <path d="M34.4 81.4 L33.8 82.0 18.2 82.0 18.2 106.2 9.0 106.2 9.65 105.6 17.6 105.6 17.6 81.4 34.4 81.4" fill="#8e8e8e" fill-rule="evenodd" stroke="none"/>
    <path d="M9.6 54.4 L9.0 55.0 -6.7 55.0 -6.7 62.0 -11.65 62.0 -11.65 73.8 -6.7 73.8 -6.7 111.85 Q-6.7 115.6 -1.9 117.2 L2.9 118.05 26.0 118.05 Q28.5 117.9 30.9 116.5 L31.35 116.95 Q30.05 117.75 28.35 118.25 L26.0 118.65 2.9 118.65 Q0.35 118.6 -2.2 117.75 -7.35 116.0 -7.35 111.85 L-7.35 74.45 -12.3 74.45 -12.3 61.35 -7.35 61.35 -7.35 54.4 9.6 54.4" fill="#8e8e8e" fill-rule="evenodd" stroke="none"/>
    <path d="M-54.45 -10.75 L-55.05 -10.1 -79.85 -10.1 -79.85 -10.15 -79.2 -10.75 -54.45 -10.75" fill="#8e8e8e" fill-rule="evenodd" stroke="none"/>
    <path d="M-79.2 2.35 L-79.85 1.7 -55.05 1.7 -54.45 2.35 -79.2 2.35" fill="#8e8e8e" fill-rule="evenodd" stroke="none"/>
    <path d="M-54.45 9.3 L-55.05 9.9 -70.6 9.9 -70.6 34.1 -79.85 34.1 -79.2 33.5 -71.25 33.5 -71.25 9.25 -54.45 9.3" fill="#8e8e8e" fill-rule="evenodd" stroke="none"/>
    <path d="M-101.1 -10.75 L-96.15 -10.75 -96.15 -17.85 -79.2 -17.85 -79.85 -17.25 -95.55 -17.25 -95.55 -10.1 -100.5 -10.1 -100.5 1.7 -95.55 1.7 -95.55 39.75 Q-95.55 43.65 -92.1 45.15 -90.35 45.9 -88.65 45.85 L-62.8 45.95 Q-60.75 45.9 -58.0 44.4 L-57.5 44.85 Q-59.9 46.45 -62.8 46.55 L-88.05 46.55 Q-90.05 46.55 -92.1 45.75 -96.15 44.05 -96.15 39.75 L-96.15 2.35 -101.1 2.35 -101.1 -10.75" fill="#8e8e8e" fill-rule="evenodd" stroke="none"/>
    <path d="M61.2 71.9 L61.2 104.1 66.05 104.1 66.05 71.9 61.2 71.9 M76.1 55.8 L77.65 55.95 Q79.5 56.15 81.1 56.8 86.05 58.8 86.05 63.95 L86.05 112.1 Q86.05 117.05 81.1 119.1 L77.65 119.95 76.1 120.1 51.1 120.1 Q48.65 120.1 46.15 119.1 41.15 117.1 41.15 112.1 L41.15 63.95 Q41.15 58.85 46.15 56.85 48.65 55.8 51.1 55.8 L76.1 55.8" fill="#ffffff" fill-rule="evenodd" stroke="none"/>
    <path d="M76.0 57.2 Q78.15 57.2 80.15 58.2 81.15 58.65 81.75 59.15 L81.3 59.6 79.9 58.75 Q78.0 57.85 75.95 57.85 L50.95 57.85 Q49.05 57.85 47.1 58.6 43.2 60.1 43.2 63.85 L43.2 111.15 Q43.2 115.3 47.65 117.05 49.85 117.9 52.05 117.9 L76.0 117.9 77.65 117.7 Q79.55 117.25 81.0 116.25 L81.45 116.7 Q80.05 117.8 77.85 118.25 L76.0 118.5 52.05 118.5 Q49.7 118.55 47.3 117.6 42.55 115.75 42.55 111.15 L42.55 63.95 Q42.55 59.7 46.8 58.05 48.85 57.2 50.95 57.2 L76.0 57.2" fill="#8e8e8e" fill-rule="evenodd" stroke="none"/>
    <path d="M59.55 70.35 L58.95 69.7 68.05 69.7 68.05 106.15 58.95 106.15 59.55 105.5 67.45 105.5 67.45 70.35 59.55 70.35" fill="#8e8e8e" fill-rule="evenodd" stroke="none"/>
    <path d="M20.25 128.0 Q21.3 128.0 22.0 128.75 22.75 129.5 22.75 130.5 L22.75 175.95 Q22.75 176.95 22.0 177.7 21.3 178.45 20.25 178.45 L9.35 178.45 Q8.3 178.45 7.55 177.7 6.8 176.95 6.8 175.95 L6.8 130.5 Q6.8 129.5 7.55 128.75 8.3 128.0 9.35 128.0 L20.25 128.0 M28.0 130.5 Q28.0 129.5 28.75 128.75 29.5 128.0 30.55 128.0 L37.15 128.0 38.8 128.4 Q39.7 128.8 40.25 129.3 L61.4 150.55 61.4 130.5 Q61.4 129.5 62.15 128.75 62.8 128.0 63.85 128.0 L74.0 128.0 Q75.05 128.0 75.75 128.75 76.5 129.5 76.5 130.5 L76.5 175.95 Q76.5 176.95 75.75 177.7 75.05 178.45 74.0 178.45 L67.35 178.45 65.7 178.1 64.25 177.15 43.15 155.8 43.15 175.95 Q43.15 176.95 42.4 177.7 41.65 178.45 40.65 178.45 L30.55 178.45 Q29.5 178.45 28.75 177.7 28.0 176.95 28.0 175.95 L28.0 130.5 M-47.9 128.0 Q-46.9 128.0 -46.15 128.75 -45.4 129.5 -45.4 130.5 L-45.4 175.95 Q-45.4 176.95 -46.15 177.7 -46.9 178.45 -47.9 178.45 L-54.55 178.45 -56.2 178.1 Q-57.1 177.7 -57.65 177.15 L-78.7 155.8 -78.7 175.95 Q-78.7 176.95 -79.45 177.7 -80.2 178.45 -81.2 178.45 L-91.35 178.45 Q-92.35 178.45 -93.1 177.7 -93.85 176.95 -93.85 175.95 L-93.85 130.5 Q-93.85 129.5 -93.1 128.75 -92.35 128.0 -91.35 128.0 L-84.7 128.0 Q-83.95 128.0 -83.05 128.4 L-81.6 129.3 -60.5 150.55 -60.5 130.5 Q-60.5 129.5 -59.75 128.75 -59.05 128.0 -58.0 128.0 L-47.9 128.0 M-40.1 130.5 Q-40.1 129.5 -39.4 128.75 -38.65 128.0 -37.65 128.0 L-26.7 128.0 Q-25.65 128.0 -24.9 128.75 -24.2 129.5 -24.2 130.5 L-24.2 163.9 -24.05 164.05 -0.85 164.05 Q0.2 164.05 0.95 164.75 1.65 165.5 1.65 166.55 L1.65 175.95 Q1.65 176.95 0.95 177.7 0.2 178.45 -0.85 178.45 L-37.65 178.45 Q-38.65 178.45 -39.4 177.7 -40.1 176.95 -40.1 175.95 L-40.1 130.5 M-115.0 143.35 Q-115.0 142.75 -115.45 142.3 -115.9 141.8 -116.55 141.8 L-132.0 141.8 Q-132.6 141.8 -133.1 142.3 -133.55 142.75 -133.55 143.35 L-133.55 162.5 Q-133.55 163.15 -133.1 163.55 -132.6 164.05 -132.0 164.05 L-116.55 164.05 Q-115.9 164.05 -115.45 163.55 -115.0 163.15 -115.0 162.5 L-115.0 143.35 M-106.4 128.0 Q-103.35 128.0 -101.25 130.2 -99.05 132.35 -99.05 135.35 L-99.05 171.05 Q-99.05 174.1 -101.25 176.25 -103.35 178.45 -106.4 178.45 L-142.1 178.45 Q-145.15 178.45 -147.25 176.25 -149.45 174.1 -149.45 171.05 L-149.45 135.35 Q-149.45 132.35 -147.25 130.2 -145.15 128.0 -142.1 128.0 L-106.4 128.0 M122.75 141.8 L97.65 141.8 97.65 146.0 111.15 146.0 Q112.2 146.0 112.95 146.75 113.65 147.45 113.65 148.5 L113.65 157.3 Q113.65 158.35 112.95 159.05 112.2 159.75 111.15 159.75 L97.65 159.75 97.65 164.05 122.75 164.05 Q123.75 164.05 124.5 164.75 125.2 165.5 125.2 166.55 L125.2 175.95 Q125.2 176.95 124.5 177.7 123.75 178.45 122.75 178.45 L84.2 178.45 Q83.2 178.45 82.45 177.7 81.75 176.95 81.75 175.95 L81.75 130.5 Q81.75 129.5 82.45 128.75 83.2 128.0 84.2 128.0 L122.75 128.0 Q123.75 128.0 124.5 128.75 125.2 129.5 125.2 130.5 L125.2 139.3 Q125.2 140.35 124.5 141.05 123.75 141.8 122.75 141.8" fill="#ed0000" fill-rule="evenodd" stroke="none"/>
  </g>
</svg>
