<?xml version="1.0" encoding="UTF-8" standalone="no"?>
<svg xmlns:ffdec="https://www.free-decompiler.com/flash" xmlns:xlink="http://www.w3.org/1999/xlink" ffdec:objectType="shape" height="430.0px" width="288.0px" xmlns="http://www.w3.org/2000/svg">
  <g transform="matrix(1.0, 0.0, 0.0, 1.0, 0.0, 0.0)">
    <path d="M175.1 107.6 Q163.3 100.0 139.25 100.0 L62.4 100.0 30.0 253.7 70.75 253.7 82.65 197.75 109.65 197.75 Q120.35 197.75 125.4 203.0 130.15 208.05 130.15 218.35 L129.7 232.5 Q129.05 241.2 129.05 244.9 129.05 247.85 129.7 251.4 130.55 255.95 131.9 257.55 L132.0 257.55 161.45 288.45 136.05 343.0 190.45 310.8 230.85 341.9 223.35 290.3 270.0 257.65 218.2 257.65 210.1 206.1 179.75 257.3 173.85 257.3 Q171.4 253.25 170.05 247.1 168.95 241.95 168.95 237.25 169.55 219.95 169.55 208.65 169.55 197.35 166.0 191.45 162.2 185.2 153.6 183.1 L153.6 182.75 Q171.65 180.2 180.85 168.65 189.6 157.6 189.6 139.8 189.6 117.05 175.1 107.6 M149.3 147.9 Q149.3 169.0 121.95 169.0 L89.55 169.0 97.25 131.9 127.45 131.9 Q149.3 131.9 149.3 147.9 M211.8 265.15 L246.15 265.15 215.25 286.85 220.75 324.55 190.95 301.75 153.1 324.2 170.45 287.0 149.45 264.75 183.95 264.75 205.9 227.8 211.8 265.15 M288.0 0.0 L288.0 430.0 0.0 430.0 0.0 0.0 288.0 0.0" fill="#ffffff" fill-rule="evenodd" stroke="none"/>
  </g>
</svg>
