<?xml version="1.0" encoding="UTF-8" standalone="no"?>
<svg xmlns:ffdec="https://www.free-decompiler.com/flash" xmlns:xlink="http://www.w3.org/1999/xlink" ffdec:objectType="shape" height="569.15px" width="704.0px" xmlns="http://www.w3.org/2000/svg">
  <g transform="matrix(1.0, 0.0, 0.0, 1.0, 350.0, 309.0)">
    <path d="M354.0 -309.0 L354.0 260.15 -48.35 260.15 -48.35 94.15 -313.35 94.15 -313.35 53.8 -350.0 53.8 -350.0 -56.2 -313.35 -56.2 -313.35 -96.5 -48.35 -96.5 -48.35 -309.0 354.0 -309.0" fill="#434343" fill-rule="evenodd" stroke="none"/>
    <path d="M208.65 66.0 L208.65 -64.7 130.0 -64.7 130.0 66.0 208.65 66.0 M83.65 106.0 L83.65 100.65 63.5 100.65 63.5 149.3 83.3 149.3 83.3 120.65 190.0 120.65 190.0 141.3 199.0 141.3 199.0 121.0 209.0 121.0 209.0 111.0 237.5 111.0 237.5 103.3 209.65 103.3 209.65 100.65 180.5 100.65 180.5 106.0 83.65 106.0 M198.0 -128.7 L198.0 -123.7 187.3 -123.7 187.3 -128.7 181.3 -128.7 181.3 -122.3 74.25 -122.3 74.25 -109.05 69.5 -109.05 69.5 -104.35 222.3 -104.35 222.3 -128.7 198.0 -128.7 M140.0 -214.7 L80.3 -214.7 80.3 -186.8 140.0 -186.8 140.0 -214.7 M344.0 -293.0 L344.0 -278.7 349.5 -278.7 349.5 -128.7 344.0 -128.7 344.0 -104.0 349.5 -104.0 349.5 101.0 344.3 101.0 344.3 103.65 304.0 103.65 304.0 111.0 343.5 111.0 343.5 125.5 348.0 125.5 348.0 240.5 199.0 240.5 199.0 181.8 176.0 181.8 176.0 184.3 147.65 184.3 147.65 181.8 98.3 181.8 98.3 189.3 101.4 189.3 101.4 228.5 68.05 228.5 68.05 220.0 62.5 220.0 62.5 226.15 -17.2 226.15 -17.2 222.3 -25.5 222.3 -25.5 115.65 -18.2 115.65 -18.2 119.8 14.8 119.8 14.8 100.65 2.85 100.65 2.85 39.15 -52.7 39.15 -52.7 17.95 -64.0 17.95 -64.0 28.4 -58.25 28.4 -58.25 69.35 -77.0 69.35 -77.0 72.95 -111.2 72.95 -111.2 69.7 -124.2 69.7 -124.2 27.2 -150.0 27.2 -150.0 35.0 -139.0 35.0 -139.0 86.95 -191.2 86.95 -191.2 35.0 -180.2 35.0 -180.2 27.2 -216.0 27.2 -216.0 35.0 -205.0 35.0 -205.0 86.95 -257.2 86.95 -257.2 35.0 -246.2 35.0 -246.2 27.2 -274.0 27.2 -274.0 36.45 -286.5 36.45 -286.5 39.95 -321.2 39.95 -321.2 36.45 -333.75 36.45 -333.75 -35.05 -321.2 -35.05 -321.2 -38.55 -286.5 -38.55 -286.5 -35.05 -274.0 -35.05 -274.0 -25.8 -246.2 -25.8 -246.2 -33.05 -257.2 -33.05 -257.2 -85.0 -205.0 -85.0 -205.0 -33.05 -216.0 -33.05 -216.0 -25.8 -180.2 -25.8 -180.2 -33.05 -191.2 -33.05 -191.2 -85.0 -139.0 -85.0 -139.0 -33.05 -150.0 -33.05 -150.0 -25.8 -124.2 -25.8 -124.2 -68.3 -111.2 -68.3 -111.2 -71.5 -77.0 -71.5 -77.0 -68.1 -58.25 -68.1 -58.25 -27.15 -64.0 -27.15 -64.0 -16.55 -52.7 -16.55 -52.7 -37.85 2.85 -37.85 2.85 -104.35 43.15 -104.35 43.15 -109.05 31.9 -109.05 31.9 -151.55 19.7 -151.55 19.7 -149.55 26.7 -149.55 26.7 -124.2 -13.45 -124.2 -13.45 -149.55 3.4 -149.55 3.4 -151.55 -13.45 -151.55 -13.45 -176.85 51.65 -176.85 51.65 -219.3 47.5 -219.3 47.5 -204.5 -1.85 -204.5 -1.85 -250.8 47.5 -250.8 47.5 -246.8 51.65 -246.8 51.65 -281.55 181.3 -281.55 181.3 -155.7 187.3 -155.7 187.3 -163.0 194.3 -163.0 194.3 -183.7 192.65 -183.7 192.65 -210.0 207.3 -210.0 207.3 -293.0 224.5 -293.0 224.5 -289.0 255.3 -289.0 255.3 -293.0 297.8 -293.0 297.8 -289.0 328.65 -289.0 328.65 -293.0 344.0 -293.0" fill="#969696" fill-rule="evenodd" stroke="none"/>
    <path d="M183.55 -64.7 L183.55 -61.85 206.4 -61.85 206.4 63.15 183.55 63.15 183.55 66.0 155.3 66.0 155.3 63.15 132.4 63.15 132.4 -61.85 155.3 -61.85 155.3 -64.7 183.55 -64.7" fill="#707070" fill-rule="evenodd" stroke="none"/>
    <path d="M208.5 -26.0 L219.5 -26.0 219.5 26.25 208.5 26.25 208.5 -26.0" fill="#707070" fill-rule="evenodd" stroke="none"/>
    <path d="M242.55 59.8 L224.05 41.25 235.9 29.4 254.4 47.95 242.55 59.8" fill="#707070" fill-rule="evenodd" stroke="none"/>
    <path d="M236.55 -27.5 L225.6 -40.15 245.4 -57.3 256.35 -44.65 236.55 -27.5" fill="#707070" fill-rule="evenodd" stroke="none"/>
    <path d="M265.75 -24.75 L286.25 -15.75 286.25 24.5 265.75 15.5 265.75 -24.75" fill="#707070" fill-rule="evenodd" stroke="none"/>
    <path d="M323.0 -32.5 L323.0 31.5 306.5 31.5 306.5 -32.5 323.0 -32.5" fill="#707070" fill-rule="evenodd" stroke="none"/>
    <path d="M344.3 103.65 L308.5 103.65 308.5 95.3 344.3 95.3 344.3 103.65" fill="#707070" fill-rule="evenodd" stroke="none"/>
    <path d="M-320.3 -16.55 L-320.3 19.05 -333.75 19.05 -333.75 -16.55 -320.3 -16.55" fill="#707070" fill-rule="evenodd" stroke="none"/>
    <path d="M90.65 -33.2 L90.65 35.0 71.0 35.0 71.0 -33.2 90.65 -33.2" fill="#707070" fill-rule="evenodd" stroke="none"/>
    <path d="M2.85 -92.1 L11.65 -92.1 11.65 -56.05 2.85 -56.05 2.85 -92.1" fill="#707070" fill-rule="evenodd" stroke="none"/>
    <path d="M2.85 71.65 L2.85 54.65 16.65 54.65 16.65 71.65 2.85 71.65" fill="#707070" fill-rule="evenodd" stroke="none"/>
    <path d="M2.85 77.65 L16.65 77.65 16.65 96.15 2.85 96.15 2.85 77.65" fill="#707070" fill-rule="evenodd" stroke="none"/>
    <path d="M7.8 148.05 L27.05 148.05 27.05 188.65 7.8 188.65 7.8 148.05" fill="#707070" fill-rule="evenodd" stroke="none"/>
    <path d="M27.15 220.0 L27.15 209.15 46.9 209.15 46.9 220.0 43.75 222.0 40.5 223.0 34.05 223.0 30.25 222.0 27.15 220.0" fill="#707070" fill-rule="evenodd" stroke="none"/>
    <path d="M21.25 209.15 L21.25 220.0 18.05 222.0 14.85 223.0 8.4 223.0 4.55 222.0 1.5 220.0 1.5 209.15 21.25 209.15" fill="#707070" fill-rule="evenodd" stroke="none"/>
    <path d="M68.05 239.3 L68.05 228.2 101.4 228.2 101.4 239.3 68.05 239.3" fill="#707070" fill-rule="evenodd" stroke="none"/>
    <path d="M-25.4 140.5 L-8.0 140.5 -8.0 196.75 -25.4 196.75 -25.4 140.5" fill="#707070" fill-rule="evenodd" stroke="none"/>
    <path d="M-24.15 122.5 L-6.75 122.5 -6.75 138.75 -24.15 138.75 -24.15 122.5" fill="#707070" fill-rule="evenodd" stroke="none"/>
    <path d="M-24.15 215.25 L-24.15 199.0 -6.75 199.0 -6.75 215.25 -24.15 215.25" fill="#707070" fill-rule="evenodd" stroke="none"/>
    <path d="M83.0 131.25 L83.0 109.5 190.0 109.5 190.0 131.25 83.0 131.25" fill="#707070" fill-rule="evenodd" stroke="none"/>
    <path d="M338.3 -292.35 L339.65 -291.8 340.8 -290.8 341.55 -289.55 341.85 -288.05 341.6 -286.6 340.95 -285.25 339.9 -284.2 338.55 -283.55 337.05 -283.4 335.6 -283.75 334.3 -284.5 333.35 -285.65 332.85 -287.05 332.8 -288.55 333.25 -290.0 334.15 -291.2 335.35 -292.05 336.8 -292.45 338.3 -292.35" fill="#707070" fill-rule="evenodd" stroke="none"/>
    <path d="M213.35 -292.05 L214.8 -292.45 216.3 -292.35 217.65 -291.8 218.8 -290.8 219.55 -289.55 219.85 -288.05 219.6 -286.6 218.95 -285.25 217.9 -284.2 216.55 -283.55 215.05 -283.4 213.6 -283.75 212.3 -284.5 211.35 -285.65 210.85 -287.05 210.8 -288.55 211.25 -290.0 212.15 -291.2 213.35 -292.05" fill="#707070" fill-rule="evenodd" stroke="none"/>
    <path d="M344.35 229.95 L345.45 230.95 346.2 232.2 346.5 233.7 346.3 235.15 345.6 236.5 344.55 237.55 343.2 238.2 341.7 238.35 340.25 238.0 339.0 237.25 338.05 236.1 337.5 234.7 337.45 233.2 337.9 231.75 338.8 230.55 340.05 229.7 341.45 229.3 342.95 229.4 344.35 229.95" fill="#707070" fill-rule="evenodd" stroke="none"/>
    <path d="M204.05 231.05 L205.45 230.65 206.95 230.7 208.35 231.3 209.45 232.25 210.2 233.55 210.5 235.0 210.3 236.5 209.6 237.85 208.55 238.85 207.2 239.5 205.7 239.65 204.25 239.35 203.0 238.55 202.05 237.4 201.5 236.0 201.45 234.5 201.9 233.1 202.8 231.9 204.05 231.05" fill="#707070" fill-rule="evenodd" stroke="none"/>
    <path d="M-11.55 218.25 L-10.8 219.55 -10.5 221.0 -10.7 222.5 -11.4 223.85 -12.45 224.85 -13.8 225.5 -15.3 225.65 -16.75 225.35 -18.0 224.55 -18.95 223.4 -19.5 222.0 -19.55 220.5 -19.1 219.1 -18.2 217.9 -16.95 217.05 -15.55 216.65 -14.05 216.7 -12.65 217.3 -11.55 218.25" fill="#707070" fill-rule="evenodd" stroke="none"/>
    <path d="M333.65 -122.2 L335.4 -120.7 336.6 -118.65 337.05 -116.4 336.7 -114.1 335.65 -112.0 334.0 -110.4 331.9 -109.4 329.55 -109.15 327.3 -109.65 325.3 -110.9 323.85 -112.65 323.05 -114.85 322.95 -117.2 323.65 -119.4 325.05 -121.25 326.95 -122.6 329.2 -123.2 331.5 -123.1 333.65 -122.2" fill="#707070" fill-rule="evenodd" stroke="none"/>
    <path d="M61.95 -277.35 L62.25 -275.9 62.05 -274.4 61.35 -273.1 60.3 -272.05 58.95 -271.4 57.45 -271.25 56.0 -271.55 54.75 -272.35 53.8 -273.5 53.25 -274.9 53.2 -276.4 53.65 -277.8 54.55 -279.05 55.8 -279.9 57.2 -280.3 58.7 -280.2 60.1 -279.65 61.2 -278.65 61.95 -277.35" fill="#707070" fill-rule="evenodd" stroke="none"/>
    <path d="M41.55 -213.95 L43.05 -213.85 44.4 -213.3 45.55 -212.3 46.3 -211.05 46.6 -209.55 46.35 -208.1 45.7 -206.75 44.65 -205.7 43.3 -205.05 41.8 -204.9 40.35 -205.25 39.05 -206.0 38.1 -207.15 37.6 -208.55 37.55 -210.05 38.0 -211.5 38.9 -212.7 40.1 -213.55 41.55 -213.95" fill="#707070" fill-rule="evenodd" stroke="none"/>
    <path d="M187.3 -216.7 L205.65 -216.7 205.65 -161.0 187.3 -161.0 187.3 -216.7" fill="#707070" fill-rule="evenodd" stroke="none"/>
    <path d="M181.05 -281.55 L204.0 -281.55 204.0 -221.35 181.05 -221.35 181.05 -281.55" fill="#707070" fill-rule="evenodd" stroke="none"/>
    <path d="M181.3 -206.0 L181.3 -166.7 171.0 -166.7 171.0 -206.0 181.3 -206.0" fill="#707070" fill-rule="evenodd" stroke="none"/>
    <path d="M311.5 -212.0 L248.5 -212.0 248.5 -238.5 311.5 -238.5 311.5 -212.0" fill="#707070" fill-rule="evenodd" stroke="none"/>
    <path d="M85.75 -275.25 L135.0 -275.25 135.0 -248.0 85.75 -248.0 85.75 -275.25" fill="#707070" fill-rule="evenodd" stroke="none"/>
    <path d="M20.75 -129.2 L20.75 -146.85 26.7 -146.85 26.7 -129.2 20.75 -129.2" fill="#707070" fill-rule="evenodd" stroke="none"/>
    <path d="M130.75 -175.0 L88.5 -175.0 88.5 -186.8 130.75 -186.8 130.75 -175.0" fill="#707070" fill-rule="evenodd" stroke="none"/>
    <path d="M317.65 191.0 L232.0 191.0 232.0 158.65 317.65 158.65 317.65 191.0" fill="#707070" fill-rule="evenodd" stroke="none"/>
    <path d="M-1.2 -235.2 L-1.2 -244.2 2.45 -244.2 3.8 -241.8 3.8 -238.3 2.45 -235.2 -1.2 -235.2" fill="#707070" fill-rule="evenodd" stroke="none"/>
    <path d="M-0.7 -215.2 L-0.7 -229.15 10.65 -229.15 10.65 -215.2 -0.7 -215.2" fill="#707070" fill-rule="evenodd" stroke="none"/>
    <path d="M21.2 -238.5 L19.8 -239.75 19.15 -241.45 19.15 -250.8 26.9 -250.8 26.9 -241.45 26.25 -239.75 24.85 -238.5 23.05 -238.1 21.2 -238.5" fill="#707070" fill-rule="evenodd" stroke="none"/>
    <path d="M332.15 -162.95 L333.7 -163.45 336.85 -153.6 344.65 -151.6 343.9 -148.55 336.1 -150.55 328.6 -143.5 327.5 -144.65 334.2 -151.05 326.9 -152.9 327.7 -155.95 335.0 -154.05 332.15 -162.95" fill="#707070" fill-rule="evenodd" stroke="none"/>
    <path d="M37.8 -145.2 Q37.8 -143.45 37.0 -142.25 36.2 -141.0 35.05 -141.0 33.95 -141.0 33.1 -142.25 32.3 -143.5 32.3 -145.2 32.3 -146.9 33.1 -148.15 33.9 -149.35 35.05 -149.35 36.2 -149.35 37.0 -148.15 37.8 -146.95 37.8 -145.2" fill="#707070" fill-rule="evenodd" stroke="none"/>
    <path d="M-60.05 -16.55 L-54.35 -16.55 -54.35 17.95 -60.05 17.95 -60.05 -16.55" fill="#ffffff" fill-rule="evenodd" stroke="none"/>
  </g>
</svg>
