<?xml version="1.0" encoding="UTF-8" standalone="no"?>
<svg xmlns:ffdec="https://www.free-decompiler.com/flash" xmlns:xlink="http://www.w3.org/1999/xlink" ffdec:objectType="shape" height="22.0px" width="14.0px" xmlns="http://www.w3.org/2000/svg">
  <g transform="matrix(1.0, 0.0, 0.0, 1.0, 0.5, 0.5)">
    <path d="M11.5 6.0 L7.5 9.75 7.5 11.25 11.5 15.0 11.5 18.0 8.25 15.5 4.75 15.5 1.5 18.0 1.5 15.0 5.5 11.25 5.5 9.75 1.5 6.0 1.5 2.5 11.5 2.5 11.5 6.0 M12.5 1.5 L0.5 1.5 0.5 0.5 12.5 0.5 12.5 1.5 M0.5 19.5 L12.5 19.5 12.5 20.5 0.5 20.5 0.5 19.5" fill="#ffffff" fill-rule="evenodd" stroke="none"/>
    <path d="M7.85 16.5 L10.5 18.5 2.5 18.5 5.2 16.5 7.85 16.5" fill="#333333" fill-rule="evenodd" stroke="none"/>
    <path d="M13.5 -0.5 L13.5 2.5 12.5 2.5 12.5 6.5 8.5 10.2 8.5 10.8 12.5 14.5 12.5 18.5 13.5 18.5 13.5 21.5 -0.5 21.5 -0.5 18.5 0.5 18.5 0.5 14.5 4.5 10.8 4.5 10.2 0.5 6.5 0.5 2.5 -0.5 2.5 -0.5 -0.5 13.5 -0.5 M0.5 19.5 L0.5 20.5 12.5 20.5 12.5 19.5 0.5 19.5 M12.5 1.5 L12.5 0.5 0.5 0.5 0.5 1.5 12.5 1.5 M11.5 6.0 L11.5 2.5 1.5 2.5 1.5 6.0 5.5 9.75 5.5 11.25 1.5 15.0 1.5 18.0 4.75 15.5 8.25 15.5 11.5 18.0 11.5 15.0 7.5 11.25 7.5 9.75 11.5 6.0 M7.85 16.5 L5.2 16.5 2.5 18.5 10.5 18.5 7.85 16.5" fill="#000000" fill-rule="evenodd" stroke="none"/>
  </g>
</svg>
