<?xml version="1.0" encoding="UTF-8" standalone="no"?>
<svg xmlns:ffdec="https://www.free-decompiler.com/flash" xmlns:xlink="http://www.w3.org/1999/xlink" ffdec:objectType="shape" height="18.0px" width="18.0px" xmlns="http://www.w3.org/2000/svg">
  <g transform="matrix(1.0, 0.0, 0.0, 1.0, 9.0, 9.0)">
    <path d="M0.0 -9.0 Q1.8 -9.0 3.5 -8.3 5.1 -7.6 6.35 -6.35 7.6 -5.1 8.3 -3.5 9.0 -1.85 9.0 0.0 9.0 1.85 8.3 3.5 7.6 5.1 6.35 6.35 5.1 7.6 3.5 8.3 1.8 9.0 0.0 9.0 -1.85 9.0 -3.5 8.3 -5.15 7.6 -6.4 6.35 -7.65 5.1 -8.3 3.5 -9.0 1.85 -9.0 0.0 -9.0 -1.85 -8.3 -3.5 -7.65 -5.1 -6.4 -6.35 -5.15 -7.6 -3.5 -8.3 -1.85 -9.0 0.0 -9.0" fill="#ffffff" fill-rule="evenodd" stroke="none"/>
  </g>
</svg>
