<?xml version="1.0" encoding="UTF-8" standalone="no"?>
<svg xmlns:ffdec="https://www.free-decompiler.com/flash" xmlns:xlink="http://www.w3.org/1999/xlink" ffdec:objectType="shape" height="14.3px" width="10.85px" xmlns="http://www.w3.org/2000/svg">
  <g transform="matrix(1.0, 0.0, 0.0, 1.0, 0.0, 0.0)">
    <path d="M4.3 7.7 L4.3 9.95 Q4.3 10.45 4.65 10.8 4.95 11.15 5.45 11.15 L6.25 10.8 6.6 9.95 6.6 7.7 Q6.4 6.65 5.45 6.65 5.0 6.65 4.65 6.95 L4.3 7.7 M7.05 2.3 Q6.35 1.6 5.45 1.6 4.5 1.6 3.85 2.3 3.15 3.0 3.15 3.95 L7.7 3.95 Q7.7 3.0 7.05 2.3 M5.45 0.0 Q7.0 0.0 8.1 1.15 9.2 2.35 9.2 3.95 L10.85 3.95 10.85 14.3 0.0 14.3 0.0 3.95 1.65 3.95 Q1.65 2.35 2.75 1.15 3.9 0.0 5.45 0.0" fill="#ffffff" fill-rule="evenodd" stroke="none"/>
  </g>
</svg>
