<?xml version="1.0" encoding="UTF-8" standalone="no"?>
<svg xmlns:ffdec="https://www.free-decompiler.com/flash" xmlns:xlink="http://www.w3.org/1999/xlink" ffdec:objectType="shape" height="18.8px" width="18.4px" xmlns="http://www.w3.org/2000/svg">
  <g transform="matrix(1.0, 0.0, 0.0, 1.0, 0.5, 0.5)">
    <path d="M12.85 0.0 L12.85 1.55 16.05 1.55 16.05 4.4 17.4 4.4 17.4 0.0 12.85 0.0 M12.05 12.25 L5.4 12.25 5.4 5.6 12.05 5.6 12.05 12.25 M1.4 1.55 L1.4 4.4 0.05 4.4 0.05 0.0 4.6 0.0 4.6 1.55 1.4 1.55 M0.0 17.8 L4.55 17.8 4.55 16.25 1.35 16.25 1.35 13.4 0.0 13.4 0.0 17.8 M16.0 16.25 L16.0 13.4 17.35 13.4 17.35 17.8 12.8 17.8 12.8 16.25 16.0 16.25 Z" fill="none" stroke="#000000" stroke-linecap="round" stroke-linejoin="round" stroke-opacity="0.09803922" stroke-width="1.0"/>
    <path d="M12.05 12.25 L5.4 12.25 5.4 5.6 12.05 5.6 12.05 12.25 M17.4 4.4 L16.05 4.4 16.05 1.55 12.85 1.55 12.85 0.0 17.4 0.0 17.4 4.4 M4.6 0.0 L4.6 1.55 1.4 1.55 1.4 4.4 0.05 4.4 0.05 0.0 4.6 0.0 M1.35 13.4 L1.35 16.25 4.55 16.25 4.55 17.8 0.0 17.8 0.0 13.4 1.35 13.4 M12.8 17.8 L12.8 16.25 16.0 16.25 16.0 13.4 17.35 13.4 17.35 17.8 12.8 17.8" fill="#ffffff" fill-rule="evenodd" stroke="none"/>
  </g>
</svg>
