<?xml version="1.0" encoding="UTF-8" standalone="no"?>
<svg xmlns:ffdec="https://www.free-decompiler.com/flash" xmlns:xlink="http://www.w3.org/1999/xlink" ffdec:objectType="shape" height="53.0px" width="43.35px" xmlns="http://www.w3.org/2000/svg">
  <g transform="matrix(1.0, 0.0, 0.0, 1.0, 0.0, 0.0)">
    <path d="M19.5 39.25 L19.5 44.35 Q19.5 45.55 20.5 46.0 21.7 46.5 22.9 46.0 23.85 45.55 23.85 44.35 L23.85 39.25 Q23.85 38.55 24.35 38.3 26.0 37.1 26.0 35.15 26.0 32.05 22.4 31.3 19.05 30.85 17.85 33.75 16.6 36.85 19.25 38.3 L19.5 39.25 M31.3 16.15 Q31.3 12.3 28.45 9.65 25.8 7.0 21.7 7.0 17.85 7.0 14.95 9.65 12.3 12.3 12.3 16.15 L12.3 21.7 31.3 21.7 31.3 16.15 M43.35 25.8 L43.35 48.9 Q43.35 50.6 41.9 51.8 40.7 53.0 38.8 53.0 L4.35 53.0 Q0.0 53.0 0.0 48.9 L0.0 25.8 Q0.0 21.7 4.35 21.7 L4.8 21.7 4.8 16.15 Q4.8 9.4 9.65 4.8 14.7 0.25 21.7 0.0 28.65 0.0 33.75 4.8 38.55 9.4 38.55 16.15 L38.55 21.7 38.8 21.7 Q40.7 21.7 41.9 22.9 43.35 24.1 43.35 25.8" fill="#ffffff" fill-opacity="0.9019608" fill-rule="evenodd" stroke="none"/>
  </g>
</svg>
