<?xml version="1.0" encoding="UTF-8" standalone="no"?>
<svg xmlns:ffdec="https://www.free-decompiler.com/flash" xmlns:xlink="http://www.w3.org/1999/xlink" ffdec:objectType="shape" height="30.0px" width="30.0px" xmlns="http://www.w3.org/2000/svg">
  <g transform="matrix(1.0, 0.0, 0.0, 1.0, -322.0, -6.0)">
    <path d="M352.0 32.7 Q352.0 36.0 348.65 36.0 L325.3 36.0 Q322.0 36.0 322.0 32.7 L322.0 9.35 Q322.0 6.0 325.3 6.0 L348.65 6.0 Q352.0 6.0 352.0 9.35 L352.0 32.7" fill="#990000" fill-rule="evenodd" stroke="none"/>
    <path d="M351.1 32.65 Q351.1 35.15 348.6 35.15 L325.3 35.15 Q322.8 35.15 322.8 32.65 L322.8 9.3 Q322.8 6.8 325.3 6.8 L348.6 6.8 Q351.1 6.8 351.1 9.3 L351.1 32.65" fill="#000000" fill-rule="evenodd" stroke="none"/>
  </g>
</svg>
