<?xml version="1.0" encoding="UTF-8" standalone="no"?>
<svg xmlns:ffdec="https://www.free-decompiler.com/flash" xmlns:xlink="http://www.w3.org/1999/xlink" ffdec:objectType="shape" height="100.2px" width="512.0px" xmlns="http://www.w3.org/2000/svg">
  <g transform="matrix(1.0, 0.0, 0.0, 1.0, 254.4, 56.5)">
    <path d="M1.0 -28.05 L-1.0 -28.05 -1.0 -56.5 1.0 -56.5 1.0 -28.05 M257.6 -1.0 L257.6 1.0 28.65 1.0 28.65 -1.0 257.6 -1.0 M-28.45 -1.0 L-28.45 1.0 -254.4 1.0 -254.4 -1.0 -28.45 -1.0" fill="#ffffff" fill-rule="evenodd" stroke="none"/>
    <path d="M-75.7 -1.1 L-74.3 1.0 -94.4 31.2 -95.8 29.1 -75.7 -1.1" fill="#ffffff" fill-rule="evenodd" stroke="none"/>
    <path d="M-75.75 0.85 L-95.85 -29.3 -94.45 -31.4 -74.35 -1.25 -75.75 0.85" fill="#ffffff" fill-rule="evenodd" stroke="none"/>
    <path d="M94.7 -29.3 L74.6 0.9 73.2 -1.2 93.3 -31.4 94.7 -29.3" fill="#ffffff" fill-rule="evenodd" stroke="none"/>
    <path d="M93.35 31.35 L73.25 1.2 74.65 -0.9 94.75 29.25 93.35 31.35" fill="#ffffff" fill-rule="evenodd" stroke="none"/>
    <path d="M20.1 -20.15 Q28.45 -11.8 28.45 0.0 28.45 11.8 20.1 20.1 11.8 28.45 0.0 28.45 -11.8 28.45 -20.15 20.1 -28.45 11.8 -28.45 0.0 -28.45 -11.8 -20.15 -20.15 -11.8 -28.45 0.0 -28.45 11.8 -28.45 20.1 -20.15 Z" fill="none" stroke="#ffffff" stroke-linecap="round" stroke-linejoin="round" stroke-width="2.0"/>
    <path d="M30.15 -30.2 Q42.7 -17.7 42.7 0.0 42.7 17.7 30.15 30.15 17.7 42.7 0.0 42.7 -17.7 42.7 -30.2 30.15 -42.65 17.7 -42.65 0.0 -42.65 -17.7 -30.2 -30.2 -17.7 -42.65 0.0 -42.65 17.7 -42.65 30.15 -30.2 Z" fill="none" stroke="#ffffff" stroke-linecap="round" stroke-linejoin="round" stroke-width="2.0"/>
  </g>
</svg>
