<?xml version="1.0" encoding="UTF-8" standalone="no"?>
<svg xmlns:ffdec="https://www.free-decompiler.com/flash" xmlns:xlink="http://www.w3.org/1999/xlink" ffdec:objectType="shape" height="515.45px" width="21.8px" xmlns="http://www.w3.org/2000/svg">
  <g transform="matrix(1.0, 0.0, 0.0, 1.0, 10.9, 248.9)">
    <path d="M10.8 -247.2 L10.9 -246.8 10.9 -177.1 8.9 -177.1 8.9 -246.15 -10.9 -246.15 -10.9 -248.9 10.8 -248.9 10.8 -247.2 M2.9 -149.75 L2.9 169.65 0.9 169.65 0.9 -149.75 -10.9 -149.75 -10.9 -152.5 8.9 -152.5 8.9 -167.15 10.9 -167.15 10.9 265.55 10.6 266.25 9.9 266.55 9.2 266.25 Q8.9 265.95 8.9 265.55 L8.9 -131.15 8.9 -134.6 8.9 -138.9 8.9 -149.75 2.9 -149.75" fill="#ffffff" fill-rule="evenodd" stroke="none"/>
    <path d="M10.9 -177.1 L10.9 -163.1 8.9 -163.1 8.9 -177.1 10.9 -177.1" fill="#ffffff" fill-rule="evenodd" stroke="none"/>
    <path d="M10.85 170.9 L-10.85 170.9 -10.85 168.15 10.85 168.15 10.85 170.9" fill="#ffffff" fill-rule="evenodd" stroke="none"/>
    <path d="M10.85 266.4 L-10.85 266.4 -10.85 263.65 10.85 263.65 10.85 266.4" fill="#ffffff" fill-rule="evenodd" stroke="none"/>
  </g>
</svg>
