<?xml version="1.0" encoding="UTF-8" standalone="no"?>
<svg xmlns:ffdec="https://www.free-decompiler.com/flash" xmlns:xlink="http://www.w3.org/1999/xlink" ffdec:objectType="shape" height="14.15px" width="8.9px" xmlns="http://www.w3.org/2000/svg">
  <g transform="matrix(1.0, 0.0, 0.0, 1.0, -1.15, 0.5)">
    <path d="M10.05 1.25 Q10.05 2.0 9.55 2.5 9.05 3.05 8.25 3.05 7.5 3.05 7.0 2.5 6.5 2.0 6.5 1.25 6.5 0.5 7.0 0.0 7.5 -0.5 8.25 -0.5 9.05 -0.5 9.55 0.0 10.05 0.5 10.05 1.25 M9.55 5.3 Q10.05 5.8 10.05 6.55 10.05 7.3 9.55 7.8 9.05 8.35 8.25 8.35 7.5 8.35 7.0 7.8 6.5 7.3 6.5 6.55 6.5 5.8 7.0 5.3 7.5 4.8 8.25 4.8 9.05 4.8 9.55 5.3 M2.9 4.8 Q3.7 4.8 4.2 5.3 4.7 5.8 4.7 6.55 4.7 7.3 4.2 7.8 3.7 8.35 2.9 8.35 2.15 8.35 1.65 7.8 1.15 7.3 1.15 6.55 1.15 5.8 1.65 5.3 2.15 4.8 2.9 4.8 M8.25 10.1 Q9.05 10.1 9.55 10.6 10.05 11.1 10.05 11.85 10.05 12.6 9.55 13.1 9.05 13.65 8.25 13.65 7.5 13.65 7.0 13.1 6.5 12.6 6.5 11.85 6.5 11.1 7.0 10.6 7.5 10.1 8.25 10.1" fill="#ffffff" fill-rule="evenodd" stroke="none"/>
  </g>
</svg>
