<?xml version="1.0" encoding="UTF-8" standalone="no"?>
<svg xmlns:ffdec="https://www.free-decompiler.com/flash" xmlns:xlink="http://www.w3.org/1999/xlink" ffdec:objectType="shape" height="27.95px" width="28.7px" xmlns="http://www.w3.org/2000/svg">
  <g transform="matrix(1.0, 0.0, 0.0, 1.0, 14.35, 10.25)">
    <path d="M10.65 -9.65 Q10.85 -7.7 10.5 -5.25 10.3 -4.15 10.75 -3.05 11.35 -1.9 12.45 -0.3 13.5 1.15 14.05 2.35 14.65 3.55 14.05 3.65 10.65 4.25 9.0 7.25 L7.5 11.2 6.95 11.65 6.3 11.95 Q6.15 11.45 6.6 10.7 6.9 10.05 6.2 9.7 L5.6 9.75 5.4 10.25 Q4.85 11.55 4.85 12.7 4.8 14.5 3.25 16.0 1.75 17.55 0.0 17.7 -1.75 17.55 -3.3 16.0 -4.8 14.5 -4.85 12.7 -4.9 11.55 -5.45 10.25 L-5.65 9.75 -6.25 9.7 Q-6.95 10.1 -6.6 10.7 -6.2 11.45 -6.35 11.95 L-7.55 11.2 Q-8.2 8.85 -9.05 7.25 -10.65 4.25 -14.05 3.65 -14.6 3.55 -14.1 2.35 L-12.45 -0.3 Q-11.4 -1.85 -10.85 -3.05 -10.35 -4.15 -10.55 -5.25 -10.95 -7.55 -10.65 -9.65 -10.55 -10.5 -9.75 -10.15 L-5.15 -7.85 -4.3 -7.25 -3.25 -7.15 0.0 -7.2 3.15 -7.15 4.2 -7.25 5.05 -7.85 Q7.45 -9.2 9.7 -10.15 L10.4 -10.2 10.65 -9.65 M4.55 3.25 Q2.7 4.05 2.2 7.6 3.65 8.25 5.05 6.8 L7.35 4.1 Q6.9 3.25 6.0 3.05 L4.55 3.25 M0.0 12.65 L-1.1 12.9 Q-1.9 13.2 -1.95 13.7 -2.05 14.85 -1.75 15.2 L-0.3 16.1 0.0 16.2 0.3 16.1 1.75 15.2 Q2.05 14.85 1.9 13.7 1.85 13.2 1.1 12.9 L0.0 12.65 M-6.05 3.05 Q-6.95 3.25 -7.4 4.1 -6.5 4.8 -5.1 6.8 -3.7 8.25 -2.2 7.6 -2.7 4.05 -4.6 3.25 L-6.05 3.05" fill="#ffffff" fill-rule="evenodd" stroke="none"/>
  </g>
</svg>
