<?xml version="1.0" encoding="UTF-8" standalone="no"?>
<svg xmlns:ffdec="https://www.free-decompiler.com/flash" xmlns:xlink="http://www.w3.org/1999/xlink" ffdec:objectType="shape" height="307.05px" width="1118.0px" xmlns="http://www.w3.org/2000/svg">
  <g transform="matrix(1.0, 0.0, 0.0, 1.0, 590.0, 194.0)">
    <path d="M474.0 -172.0 L478.0 -58.0 528.0 44.0 475.0 45.7 360.75 72.3 266.7 90.7 169.9 104.95 107.9 107.0 35.25 113.05 -105.25 112.0 -174.9 107.05 -253.2 108.05 -395.3 77.4 -521.0 53.9 -590.0 68.0 -520.0 -36.0 -540.0 -194.0 -482.65 -137.6 -314.55 -105.0 -208.85 -93.75 -164.95 -88.5 -36.5 -79.45 37.5 -87.1 104.5 -96.45 165.55 -101.45 191.7 -99.0 241.55 -87.9 302.8 -98.2 380.55 -132.45 429.65 -143.9 474.0 -172.0" fill="#434343" fill-rule="evenodd" stroke="none"/>
    <path d="M312.0 -67.3 L390.7 -102.0 448.0 -115.3 474.7 -150.0 519.0 31.0 478.55 12.0 354.0 41.0 262.0 59.0 167.0 73.0 106.0 75.0 34.0 81.0 -104.0 80.0 -174.0 75.0 -250.0 76.0 -389.0 46.0 -528.0 20.0 -583.0 57.0 -534.45 -163.0 -503.0 -109.0 -319.3 -73.3 -212.65 -62.0 -167.95 -56.65 -35.95 -47.3 41.35 -55.3 108.05 -64.65 165.35 -69.3 186.7 -67.3 240.7 -55.3 312.0 -67.3" fill="#969696" fill-rule="evenodd" stroke="none"/>
  </g>
</svg>
