<?xml version="1.0" encoding="UTF-8" standalone="no"?>
<svg xmlns:ffdec="https://www.free-decompiler.com/flash" xmlns:xlink="http://www.w3.org/1999/xlink" ffdec:objectType="shape" height="1139.45px" width="982.0px" xmlns="http://www.w3.org/2000/svg">
  <g transform="matrix(1.0, 0.0, 0.0, 1.0, 488.5, 575.35)">
    <path d="M391.5 -368.5 L391.5 -357.5 493.5 -357.5 493.5 113.5 393.05 113.5 393.05 346.0 435.0 346.0 435.0 451.25 393.05 451.25 393.05 564.1 186.55 564.1 186.55 415.85 141.85 415.85 141.85 363.85 -143.85 363.85 -143.85 415.85 -187.0 415.85 -187.0 564.1 -395.0 564.1 -395.0 251.45 -436.5 251.45 -436.5 145.75 -395.0 145.75 -395.0 -49.25 -437.0 -49.25 -437.0 -154.25 -395.0 -154.25 -395.0 -169.5 -488.5 -169.5 -488.5 -268.5 -217.8 -268.5 -217.8 -564.5 217.7 -564.5 217.7 -368.5 391.5 -368.5" fill="#000000" fill-rule="evenodd" stroke="none"/>
    <path d="M381.0 -356.0 L381.0 -345.0 481.0 -345.0 481.0 101.0 380.55 101.0 380.55 358.5 422.5 358.5 422.5 438.75 380.55 438.75 380.55 551.6 199.05 551.6 199.05 403.35 154.35 403.35 154.35 351.35 -156.35 351.35 -156.35 403.35 -199.5 403.35 -199.5 551.6 -382.5 551.6 -382.5 238.95 -424.0 238.95 -424.0 158.25 -382.5 158.25 -382.5 -61.75 -424.5 -61.75 -424.5 -141.75 -382.5 -141.75 -382.5 -182.0 -476.0 -182.0 -476.0 -256.0 -205.3 -256.0 -205.3 -552.0 205.2 -552.0 205.2 -356.0 381.0 -356.0" fill="#000000" fill-rule="evenodd" stroke="none"/>
    <path d="M97.0 112.0 L-96.0 112.0 -96.0 228.0 97.0 228.0 97.0 112.0 M207.0 309.5 L207.0 234.0 103.0 234.0 103.0 309.5 207.0 309.5 M-348.3 520.9 L-239.0 520.9 -239.0 390.0 -348.3 390.0 -348.3 520.9 M-239.0 309.5 L-215.55 309.5 -215.55 234.0 -348.3 234.0 -348.3 384.0 -239.0 384.0 -239.0 309.5 M-102.0 309.5 L-102.0 234.0 -209.55 234.0 -209.55 309.5 -102.0 309.5 M-96.0 234.0 L-96.0 309.5 97.0 309.5 97.0 234.0 -96.0 234.0 M-102.0 -4.0 L-102.0 -120.0 -209.55 -120.0 -209.55 -4.0 -102.0 -4.0 M-102.0 112.0 L-209.55 112.0 -209.55 228.0 -102.0 228.0 -102.0 112.0 M-209.55 2.0 L-209.55 106.0 -102.0 106.0 -102.0 2.0 -209.55 2.0 M-215.55 2.0 L-348.3 2.0 -348.3 106.0 -215.55 106.0 -215.55 2.0 M-215.55 112.0 L-348.3 112.0 -348.3 228.0 -215.55 228.0 -215.55 112.0 M-215.55 -120.0 L-348.3 -120.0 -348.3 -4.0 -215.55 -4.0 -215.55 -120.0 M103.0 -4.0 L207.0 -4.0 207.0 -120.0 103.0 -120.0 103.0 -4.0 M97.0 -4.0 L97.0 -120.0 -96.0 -120.0 -96.0 -4.0 97.0 -4.0 M207.0 112.0 L103.0 112.0 103.0 228.0 207.0 228.0 207.0 112.0 M97.0 106.0 L97.0 2.0 -96.0 2.0 -96.0 106.0 97.0 106.0 M103.0 2.0 L103.0 106.0 207.0 106.0 207.0 2.0 103.0 2.0 M97.0 -237.0 L-96.0 -237.0 -96.0 -126.0 97.0 -126.0 97.0 -237.0 M207.0 -237.0 L103.0 -237.0 103.0 -126.0 207.0 -126.0 207.0 -237.0 M168.35 -365.0 L168.35 -515.7 103.0 -515.7 103.0 -365.0 168.35 -365.0 M103.0 -359.0 L103.0 -243.0 207.0 -243.0 207.0 -321.7 168.35 -321.7 168.35 -359.0 103.0 -359.0 M-96.0 -515.7 L-96.0 -365.0 97.0 -365.0 97.0 -515.7 -96.0 -515.7 M-96.0 -359.0 L-96.0 -243.0 97.0 -243.0 97.0 -359.0 -96.0 -359.0 M-102.0 -243.0 L-102.0 -359.0 -171.7 -359.0 -171.7 -243.0 -102.0 -243.0 M-171.7 -237.0 L-171.7 -222.15 -209.55 -222.15 -209.55 -126.0 -102.0 -126.0 -102.0 -237.0 -171.7 -237.0 M-215.55 -222.15 L-348.3 -222.15 -348.3 -126.0 -215.55 -126.0 -215.55 -222.15 M-102.0 -515.7 L-171.7 -515.7 -171.7 -365.0 -102.0 -365.0 -102.0 -515.7 M351.35 -327.7 L351.35 526.9 228.35 526.9 228.35 315.5 -233.0 315.5 -233.0 526.9 -354.3 526.9 -354.3 -228.15 -177.7 -228.15 -177.7 -521.7 174.35 -521.7 174.35 -327.7 351.35 -327.7 M345.35 -126.0 L345.35 -237.0 213.0 -237.0 213.0 -126.0 345.35 -126.0 M345.35 228.0 L345.35 112.0 213.0 112.0 213.0 228.0 345.35 228.0 M345.35 520.9 L345.35 390.0 234.35 390.0 234.35 520.9 345.35 520.9 M345.35 384.0 L345.35 234.0 213.0 234.0 213.0 309.5 234.35 309.5 234.35 384.0 345.35 384.0 M345.35 -4.0 L345.35 -120.0 213.0 -120.0 213.0 -4.0 345.35 -4.0 M345.35 106.0 L345.35 2.0 213.0 2.0 213.0 106.0 345.35 106.0 M345.35 -243.0 L345.35 -321.7 213.0 -321.7 213.0 -243.0 345.35 -243.0" fill="#000000" fill-rule="evenodd" stroke="none"/>
    <path d="M-334.0 -32.65 L-244.65 -32.65 -244.65 89.35 -334.0 89.35 -334.0 -32.65" fill="#000000" fill-rule="evenodd" stroke="none"/>
    <path d="M-332.4 -30.9 L-332.4 89.45 -245.4 89.45 -245.4 -30.9 -332.4 -30.9 M-242.9 -33.4 L-242.9 91.95 -334.9 91.95 -334.9 -33.4 -242.9 -33.4" fill="#000000" fill-rule="evenodd" stroke="none"/>
    <path d="M-241.95 -42.55 L-241.95 -45.55 -238.95 -45.55 -238.95 -42.55 -241.95 -42.55" fill="#000000" fill-rule="evenodd" stroke="none"/>
    <path d="M273.5 -204.6 L273.5 -207.6 276.5 -207.6 276.5 -204.6 273.5 -204.6" fill="#000000" fill-rule="evenodd" stroke="none"/>
    <path d="M273.5 -248.25 L273.5 -251.25 276.5 -251.25 276.5 -248.25 273.5 -248.25" fill="#000000" fill-rule="evenodd" stroke="none"/>
    <path d="M345.4 -204.6 L345.4 -207.6 348.4 -207.6 348.4 -204.6 345.4 -204.6" fill="#000000" fill-rule="evenodd" stroke="none"/>
    <path d="M216.9 -248.25 L216.9 -251.25 219.9 -251.25 219.9 -248.25 216.9 -248.25" fill="#000000" fill-rule="evenodd" stroke="none"/>
    <path d="M216.9 -204.6 L216.9 -207.6 219.9 -207.6 219.9 -204.6 216.9 -204.6" fill="#000000" fill-rule="evenodd" stroke="none"/>
    <path d="M273.75 -79.0 L273.75 -82.0 276.75 -82.0 276.75 -79.0 273.75 -79.0" fill="#000000" fill-rule="evenodd" stroke="none"/>
    <path d="M345.5 -79.05 L345.5 -82.05 348.5 -82.05 348.5 -79.05 345.5 -79.05" fill="#000000" fill-rule="evenodd" stroke="none"/>
    <path d="M217.0 -79.0 L217.0 -82.0 220.0 -82.0 220.0 -79.0 217.0 -79.0" fill="#000000" fill-rule="evenodd" stroke="none"/>
    <path d="M273.75 51.5 L273.75 48.5 276.75 48.5 276.75 51.5 273.75 51.5" fill="#000000" fill-rule="evenodd" stroke="none"/>
    <path d="M345.1 51.7 L345.1 48.7 348.1 48.7 348.1 51.7 345.1 51.7" fill="#000000" fill-rule="evenodd" stroke="none"/>
    <path d="M216.85 51.35 L216.85 48.35 219.85 48.35 219.85 51.35 216.85 51.35" fill="#000000" fill-rule="evenodd" stroke="none"/>
    <path d="M199.55 351.0 L199.55 345.5 205.05 345.5 205.05 351.0 199.55 351.0" fill="#000000" fill-rule="evenodd" stroke="none"/>
    <path d="M-206.1 351.0 L-206.1 345.5 -200.6 345.5 -200.6 351.0 -206.1 351.0" fill="#000000" fill-rule="evenodd" stroke="none"/>
    <path d="M196.6 450.95 L196.6 445.45 205.1 445.45 205.1 450.95 196.6 450.95" fill="#000000" fill-rule="evenodd" stroke="none"/>
    <path d="M196.1 550.85 L196.1 545.35 204.6 545.35 204.6 550.85 196.1 550.85" fill="#000000" fill-rule="evenodd" stroke="none"/>
    <path d="M-205.35 450.95 L-205.35 445.45 -196.85 445.45 -196.85 450.95 -205.35 450.95" fill="#000000" fill-rule="evenodd" stroke="none"/>
    <path d="M-205.35 550.85 L-205.35 545.35 -196.85 545.35 -196.85 550.85 -205.35 550.85" fill="#000000" fill-rule="evenodd" stroke="none"/>
    <path d="M-294.25 -42.55 L-294.25 -45.55 -291.25 -45.55 -291.25 -42.55 -294.25 -42.55" fill="#000000" fill-rule="evenodd" stroke="none"/>
    <path d="M-242.15 -153.65 L-242.15 -156.65 -239.15 -156.65 -239.15 -153.65 -242.15 -153.65" fill="#000000" fill-rule="evenodd" stroke="none"/>
    <path d="M-294.2 -153.65 L-294.2 -156.65 -291.2 -156.65 -291.2 -153.65 -294.2 -153.65" fill="#000000" fill-rule="evenodd" stroke="none"/>
    <path d="M-349.95 -42.55 L-349.95 -45.55 -346.95 -45.55 -346.95 -42.55 -349.95 -42.55" fill="#000000" fill-rule="evenodd" stroke="none"/>
    <path d="M-241.95 106.75 L-241.95 103.75 -238.95 103.75 -238.95 106.75 -241.95 106.75" fill="#000000" fill-rule="evenodd" stroke="none"/>
    <path d="M-294.25 106.75 L-294.25 103.75 -291.25 103.75 -291.25 106.75 -294.25 106.75" fill="#000000" fill-rule="evenodd" stroke="none"/>
    <path d="M-349.95 106.75 L-349.95 103.75 -346.95 103.75 -346.95 106.75 -349.95 106.75" fill="#000000" fill-rule="evenodd" stroke="none"/>
    <path d="M-242.25 184.15 L-242.25 181.15 -239.25 181.15 -239.25 184.15 -242.25 184.15" fill="#000000" fill-rule="evenodd" stroke="none"/>
    <path d="M-264.5 184.15 L-264.5 181.15 -261.5 181.15 -261.5 184.15 -264.5 184.15" fill="#000000" fill-rule="evenodd" stroke="none"/>
    <path d="M-350.5 243.85 L-350.5 240.85 -347.5 240.85 -347.5 243.85 -350.5 243.85" fill="#000000" fill-rule="evenodd" stroke="none"/>
    <path d="M-264.0 243.85 L-264.0 240.85 -261.0 240.85 -261.0 243.85 -264.0 243.85" fill="#000000" fill-rule="evenodd" stroke="none"/>
    <path d="M-350.25 184.25 L-350.25 181.25 -347.25 181.25 -347.25 184.25 -350.25 184.25" fill="#000000" fill-rule="evenodd" stroke="none"/>
    <path d="M-349.95 -153.5 L-349.95 -156.5 -346.95 -156.5 -346.95 -153.5 -349.95 -153.5" fill="#000000" fill-rule="evenodd" stroke="none"/>
    <path d="M-380.7 -54.4 L-379.8 -54.4 -379.8 -52.65 -375.55 -52.65 -375.55 -54.4 -347.2 -54.4 -347.2 -50.05 -375.55 -50.05 -375.55 -51.75 -379.8 -51.75 -379.8 -50.05 -380.7 -50.05 -380.7 -54.4" fill="#000000" fill-rule="evenodd" stroke="none"/>
    <path d="M-380.7 45.65 L-379.8 45.65 -379.8 47.4 -375.55 47.4 -375.55 45.65 -347.2 45.65 -347.2 50.05 -375.55 50.05 -375.55 48.35 -379.8 48.35 -379.8 50.05 -380.7 50.05 -380.7 45.65" fill="#000000" fill-rule="evenodd" stroke="none"/>
    <path d="M-375.55 143.95 L-375.55 142.2 -347.2 142.2 -347.2 146.6 -375.55 146.6 -375.55 144.9 -379.8 144.9 -379.8 146.6 -380.7 146.6 -380.7 142.2 -379.8 142.2 -379.8 143.95 -375.55 143.95" fill="#000000" fill-rule="evenodd" stroke="none"/>
    <path d="M-375.55 248.3 L-379.8 248.3 -379.8 250.05 -380.7 250.05 -380.7 245.65 -379.8 245.65 -379.8 247.4 -375.55 247.4 -375.55 245.65 -347.2 245.65 -347.2 250.05 -375.55 250.05 -375.55 248.3" fill="#000000" fill-rule="evenodd" stroke="none"/>
    <path d="M-375.55 348.25 L-379.8 348.25 -379.8 350.0 -380.7 350.0 -380.7 345.6 -379.8 345.6 -379.8 347.35 -375.55 347.35 -375.55 345.6 -347.2 345.6 -347.2 350.0 -375.55 350.0 -375.55 348.25" fill="#000000" fill-rule="evenodd" stroke="none"/>
    <path d="M-380.7 445.6 L-379.8 445.6 -379.8 447.35 -375.55 447.35 -375.55 445.6 -347.2 445.6 -347.2 449.95 -375.55 449.95 -375.55 448.25 -379.8 448.25 -379.8 449.95 -380.7 449.95 -380.7 445.6" fill="#000000" fill-rule="evenodd" stroke="none"/>
    <path d="M-380.7 545.6 L-379.8 545.6 -379.8 547.35 -375.55 547.35 -375.55 545.6 -347.2 545.6 -347.2 550.0 -375.55 550.0 -375.55 548.3 -379.8 548.3 -379.8 550.0 -380.7 550.0 -380.7 545.6" fill="#000000" fill-rule="evenodd" stroke="none"/>
    <path d="M-375.55 -152.65 L-375.55 -154.4 -347.2 -154.4 -347.2 -150.05 -375.55 -150.05 -375.55 -151.75 -379.8 -151.75 -379.8 -150.05 -380.7 -150.05 -380.7 -154.4 -379.8 -154.4 -379.8 -152.65 -375.55 -152.65" fill="#000000" fill-rule="evenodd" stroke="none"/>
    <path d="M-347.2 -253.9 L-347.2 -249.55 -375.55 -249.55 -375.55 -251.25 -379.8 -251.25 -379.8 -249.55 -380.7 -249.55 -380.7 -253.9 -379.8 -253.9 -379.8 -252.15 -375.55 -252.15 -375.55 -253.9 -347.2 -253.9" fill="#000000" fill-rule="evenodd" stroke="none"/>
    <path d="M374.2 -54.4 L374.2 -52.65 378.45 -52.65 378.45 -54.4 379.35 -54.4 379.35 -50.05 378.45 -50.05 378.45 -51.75 374.2 -51.75 374.2 -50.05 345.85 -50.05 345.85 -54.4 374.2 -54.4" fill="#000000" fill-rule="evenodd" stroke="none"/>
    <path d="M378.45 48.35 L374.2 48.35 374.2 50.05 345.85 50.05 345.85 45.65 374.2 45.65 374.2 47.4 378.45 47.4 378.45 45.65 379.35 45.65 379.35 50.05 378.45 50.05 378.45 48.35" fill="#000000" fill-rule="evenodd" stroke="none"/>
    <path d="M374.2 142.2 L374.2 143.95 378.45 143.95 378.45 142.2 379.35 142.2 379.35 146.6 378.45 146.6 378.45 144.9 374.2 144.9 374.2 146.6 345.85 146.6 345.85 142.2 374.2 142.2" fill="#000000" fill-rule="evenodd" stroke="none"/>
    <path d="M378.45 248.3 L374.2 248.3 374.2 250.05 345.85 250.05 345.85 245.65 374.2 245.65 374.2 247.4 378.45 247.4 378.45 245.65 379.35 245.65 379.35 250.05 378.45 250.05 378.45 248.3" fill="#000000" fill-rule="evenodd" stroke="none"/>
    <path d="M374.2 345.6 L374.2 347.35 378.45 347.35 378.45 345.6 379.35 345.6 379.35 350.0 378.45 350.0 378.45 348.25 374.2 348.25 374.2 350.0 345.85 350.0 345.85 345.6 374.2 345.6" fill="#000000" fill-rule="evenodd" stroke="none"/>
    <path d="M378.45 448.25 L374.2 448.25 374.2 449.95 345.85 449.95 345.85 445.6 374.2 445.6 374.2 447.35 378.45 447.35 378.45 445.6 379.35 445.6 379.35 449.95 378.45 449.95 378.45 448.25" fill="#000000" fill-rule="evenodd" stroke="none"/>
    <path d="M374.2 545.6 L374.2 547.35 378.45 547.35 378.45 545.6 379.35 545.6 379.35 550.0 378.45 550.0 378.45 548.3 374.2 548.3 374.2 550.0 345.85 550.0 345.85 545.6 374.2 545.6" fill="#000000" fill-rule="evenodd" stroke="none"/>
    <path d="M378.45 -151.75 L374.2 -151.75 374.2 -150.05 345.85 -150.05 345.85 -154.4 374.2 -154.4 374.2 -152.65 378.45 -152.65 378.45 -154.4 379.35 -154.4 379.35 -150.05 378.45 -150.05 378.45 -151.75" fill="#000000" fill-rule="evenodd" stroke="none"/>
    <path d="M374.2 -253.9 L374.2 -252.15 378.45 -252.15 378.45 -253.9 379.35 -253.9 379.35 -249.55 378.45 -249.55 378.45 -251.25 374.2 -251.25 374.2 -249.55 345.85 -249.55 345.85 -253.9 374.2 -253.9" fill="#000000" fill-rule="evenodd" stroke="none"/>
    <path d="M378.45 -351.25 L374.2 -351.25 374.2 -349.55 345.85 -349.55 345.85 -353.9 374.2 -353.9 374.2 -352.15 378.45 -352.15 378.45 -353.9 379.35 -353.9 379.35 -349.55 378.45 -349.55 378.45 -351.25" fill="#000000" fill-rule="evenodd" stroke="none"/>
    <path d="M-215.6 230.75 L-207.35 230.75 -207.35 304.75 -215.6 304.75 -215.6 295.5 -218.75 295.5 -218.75 288.9 -215.6 288.9 -215.6 246.65 -219.0 246.65 -219.0 240.15 -215.6 240.15 -215.6 230.75" fill="#000000" fill-rule="evenodd" stroke="none"/>
    <path d="M217.25 268.9 L213.85 268.9 213.85 311.15 217.0 311.15 217.0 317.8 213.85 317.8 213.85 327.05 205.6 327.05 205.6 253.05 213.85 253.05 213.85 262.4 217.25 262.4 217.25 268.9" fill="#000000" fill-rule="evenodd" stroke="none"/>
    <path d="M328.65 52.7 L328.65 114.2 238.5 114.2 238.5 52.7 328.65 52.7" fill="#000000" fill-rule="evenodd" stroke="none"/>
    <path d="M346.35 -348.85 L346.35 -277.7 247.5 -277.7 247.5 -327.55 294.2 -327.55 294.2 -348.85 346.35 -348.85" fill="#000000" fill-rule="evenodd" stroke="none"/>
    <path d="M-331.75 138.1 L-331.75 221.75 -292.25 221.75 -292.25 138.1 -331.75 138.1 M-289.75 135.6 L-289.75 224.25 -334.25 224.25 -334.25 135.6 -289.75 135.6" fill="#000000" fill-rule="evenodd" stroke="none"/>
    <path d="M-332.4 3.0 L-324.65 3.0 -324.65 43.2 -332.4 43.2 -332.4 3.0" fill="#000000" fill-rule="evenodd" stroke="none"/>
    <path d="M-298.65 39.0 L-292.8 35.45 -286.4 43.95 -292.3 48.45 -298.65 39.0" fill="#000000" fill-rule="evenodd" stroke="none"/>
    <path d="M-294.95 27.45 L-292.65 34.9 -299.85 37.2 -302.2 29.75 -294.95 27.45" fill="#000000" fill-rule="evenodd" stroke="none"/>
    <path d="M-332.4 88.15 L-332.4 78.25 -326.1 78.25 -326.1 88.15 -332.4 88.15" fill="#000000" fill-rule="evenodd" stroke="none"/>
    <path d="M-250.85 83.0 L-250.85 86.65 -247.5 86.65 -247.5 89.45 -287.25 89.45 -287.25 83.0 -250.85 83.0" fill="#000000" fill-rule="evenodd" stroke="none"/>
    <path d="M-284.1 -24.85 L-284.1 -30.9 -253.1 -30.9 -253.1 -24.85 -284.1 -24.85" fill="#000000" fill-rule="evenodd" stroke="none"/>
    <path d="M-332.4 -22.75 L-332.4 -30.9 -311.85 -30.9 -311.85 -28.25 -313.0 -28.25 -313.0 -22.75 -332.4 -22.75" fill="#000000" fill-rule="evenodd" stroke="none"/>
    <path d="M274.25 -150.0 L270.0 -150.0 270.0 -127.75 274.25 -127.75 274.25 -150.0 M266.0 -150.0 L260.5 -150.0 260.5 -127.75 266.0 -127.75 266.0 -150.0 M291.25 -150.0 L285.75 -150.0 285.75 -127.75 291.25 -127.75 291.25 -150.0 M283.75 -150.0 L278.25 -150.0 278.25 -127.75 283.75 -127.75 283.75 -150.0 M336.75 -152.0 L336.75 -125.75 258.5 -125.75 258.5 -152.0 336.75 -152.0 M299.5 -127.75 L299.5 -150.0 295.25 -150.0 295.25 -127.75 299.5 -127.75 M317.0 -150.0 L311.5 -150.0 311.5 -127.75 317.0 -127.75 317.0 -150.0 M309.0 -150.0 L303.5 -150.0 303.5 -127.75 309.0 -127.75 309.0 -150.0 M334.75 -150.0 L329.25 -150.0 329.25 -127.75 334.75 -127.75 334.75 -150.0 M325.25 -150.0 L321.0 -150.0 321.0 -127.75 325.25 -127.75 325.25 -150.0" fill="#000000" fill-rule="evenodd" stroke="none"/>
    <path d="M291.75 -178.75 L286.25 -178.75 286.25 -156.5 291.75 -156.5 291.75 -178.75 M274.75 -178.75 L270.5 -178.75 270.5 -156.5 274.75 -156.5 274.75 -178.75 M266.5 -178.75 L261.0 -178.75 261.0 -156.5 266.5 -156.5 266.5 -178.75 M284.25 -178.75 L278.75 -178.75 278.75 -156.5 284.25 -156.5 284.25 -178.75 M311.5 -180.75 L311.5 -154.5 259.0 -154.5 259.0 -180.75 311.5 -180.75 M300.0 -156.5 L300.0 -178.75 295.75 -178.75 295.75 -156.5 300.0 -156.5 M309.5 -178.75 L304.0 -178.75 304.0 -156.5 309.5 -156.5 309.5 -178.75" fill="#000000" fill-rule="evenodd" stroke="none"/>
    <path d="M435.25 -188.5 L435.25 -183.0 457.5 -183.0 457.5 -188.5 435.25 -188.5 M457.5 -163.25 L435.25 -163.25 435.25 -157.75 457.5 -157.75 457.5 -163.25 M435.25 -171.5 L435.25 -167.25 457.5 -167.25 457.5 -171.5 435.25 -171.5 M435.25 -181.0 L435.25 -175.5 457.5 -175.5 457.5 -181.0 435.25 -181.0 M457.5 -200.75 L457.5 -206.25 435.25 -206.25 435.25 -200.75 457.5 -200.75 M457.5 -192.5 L457.5 -196.75 435.25 -196.75 435.25 -192.5 457.5 -192.5 M433.25 -208.25 L459.5 -208.25 459.5 -155.75 433.25 -155.75 433.25 -208.25" fill="#000000" fill-rule="evenodd" stroke="none"/>
    <path d="M383.0 13.95 L383.0 9.7 360.75 9.7 360.75 13.95 383.0 13.95 M383.0 23.45 L383.0 17.95 360.75 17.95 360.75 23.45 383.0 23.45 M383.0 5.7 L383.0 0.2 360.75 0.2 360.75 5.7 383.0 5.7 M383.0 -1.8 L383.0 -7.3 360.75 -7.3 360.75 -1.8 383.0 -1.8 M358.75 -27.05 L385.0 -27.05 385.0 25.45 358.75 25.45 358.75 -27.05 M360.75 -15.55 L360.75 -11.3 383.0 -11.3 383.0 -15.55 360.75 -15.55 M360.75 -25.05 L360.75 -19.55 383.0 -19.55 383.0 -25.05 360.75 -25.05" fill="#000000" fill-rule="evenodd" stroke="none"/>
    <path d="M252.45 20.35 L252.45 42.6 257.95 42.6 257.95 20.35 252.45 20.35 M266.2 20.35 L261.95 20.35 261.95 42.6 266.2 42.6 266.2 20.35 M275.7 20.35 L270.2 20.35 270.2 42.6 275.7 42.6 275.7 20.35 M291.45 20.35 L287.2 20.35 287.2 42.6 291.45 42.6 291.45 20.35 M283.2 20.35 L277.7 20.35 277.7 42.6 283.2 42.6 283.2 20.35 M302.95 18.35 L302.95 44.6 250.45 44.6 250.45 18.35 302.95 18.35 M300.95 42.6 L300.95 20.35 295.45 20.35 295.45 42.6 300.95 42.6" fill="#000000" fill-rule="evenodd" stroke="none"/>
    <path d="M378.0 -109.75 L378.0 -57.25 351.75 -57.25 351.75 -109.75 378.0 -109.75 M376.0 -64.75 L353.75 -64.75 353.75 -59.25 376.0 -59.25 376.0 -64.75 M353.75 -73.0 L353.75 -68.75 376.0 -68.75 376.0 -73.0 353.75 -73.0 M353.75 -82.5 L353.75 -77.0 376.0 -77.0 376.0 -82.5 353.75 -82.5 M376.0 -84.5 L376.0 -90.0 353.75 -90.0 353.75 -84.5 376.0 -84.5 M376.0 -102.25 L376.0 -107.75 353.75 -107.75 353.75 -102.25 376.0 -102.25 M376.0 -94.0 L376.0 -98.25 353.75 -98.25 353.75 -94.0 376.0 -94.0" fill="#000000" fill-rule="evenodd" stroke="none"/>
    <path d="M312.5 -92.9 L312.5 -14.5 286.25 -14.5 286.25 -92.9 312.5 -92.9 M310.5 -34.25 L310.5 -39.75 288.25 -39.75 288.25 -34.25 310.5 -34.25 M310.5 -26.0 L310.5 -30.25 288.25 -30.25 288.25 -26.0 310.5 -26.0 M310.5 -16.5 L310.5 -22.0 288.25 -22.0 288.25 -16.5 310.5 -16.5 M310.5 -42.05 L310.5 -47.55 288.25 -47.55 288.25 -42.05 310.5 -42.05 M310.5 -51.55 L310.5 -55.8 288.25 -55.8 288.25 -51.55 310.5 -51.55 M310.5 -59.8 L310.5 -65.3 288.25 -65.3 288.25 -59.8 310.5 -59.8 M310.5 -67.65 L310.5 -73.15 288.25 -73.15 288.25 -67.65 310.5 -67.65 M310.5 -77.15 L310.5 -81.4 288.25 -81.4 288.25 -77.15 310.5 -77.15 M310.5 -85.4 L310.5 -90.9 288.25 -90.9 288.25 -85.4 310.5 -85.4" fill="#000000" fill-rule="evenodd" stroke="none"/>
    <path d="M227.55 -22.75 L227.55 -17.25 249.8 -17.25 249.8 -22.75 227.55 -22.75 M227.55 -31.0 L227.55 -26.75 249.8 -26.75 249.8 -31.0 227.55 -31.0 M249.8 -35.0 L249.8 -40.5 227.55 -40.5 227.55 -35.0 249.8 -35.0 M249.8 -52.3 L249.8 -56.55 227.55 -56.55 227.55 -52.3 249.8 -52.3 M249.8 -42.8 L249.8 -48.3 227.55 -48.3 227.55 -42.8 249.8 -42.8 M225.55 -93.65 L251.8 -93.65 251.8 -15.25 225.55 -15.25 225.55 -93.65 M227.55 -73.9 L227.55 -68.4 249.8 -68.4 249.8 -73.9 227.55 -73.9 M227.55 -82.15 L227.55 -77.9 249.8 -77.9 249.8 -82.15 227.55 -82.15 M227.55 -66.05 L227.55 -60.55 249.8 -60.55 249.8 -66.05 227.55 -66.05 M249.8 -86.15 L249.8 -91.65 227.55 -91.65 227.55 -86.15 249.8 -86.15" fill="#000000" fill-rule="evenodd" stroke="none"/>
    <path d="M431.0 19.5 L431.0 15.25 408.75 15.25 408.75 19.5 431.0 19.5 M431.0 29.0 L431.0 23.5 408.75 23.5 408.75 29.0 431.0 29.0 M431.0 11.25 L431.0 5.75 408.75 5.75 408.75 11.25 431.0 11.25 M431.0 3.75 L431.0 -1.75 408.75 -1.75 408.75 3.75 431.0 3.75 M431.0 -5.75 L431.0 -10.0 408.75 -10.0 408.75 -5.75 431.0 -5.75 M406.75 -21.5 L433.0 -21.5 433.0 31.0 406.75 31.0 406.75 -21.5 M408.75 -19.5 L408.75 -14.0 431.0 -14.0 431.0 -19.5 408.75 -19.5" fill="#000000" fill-rule="evenodd" stroke="none"/>
    <path d="M459.35 -21.5 L459.35 31.0 433.1 31.0 433.1 -21.5 459.35 -21.5 M435.1 15.25 L435.1 19.5 457.35 19.5 457.35 15.25 435.1 15.25 M435.1 23.5 L435.1 29.0 457.35 29.0 457.35 23.5 435.1 23.5 M457.35 3.75 L457.35 -1.75 435.1 -1.75 435.1 3.75 457.35 3.75 M457.35 -5.75 L457.35 -10.0 435.1 -10.0 435.1 -5.75 457.35 -5.75 M457.35 11.25 L457.35 5.75 435.1 5.75 435.1 11.25 457.35 11.25 M457.35 -19.5 L435.1 -19.5 435.1 -14.0 457.35 -14.0 457.35 -19.5" fill="#000000" fill-rule="evenodd" stroke="none"/>
    <path d="M328.65 65.35 L340.35 65.35 340.35 100.85 328.65 100.85 328.65 65.35" fill="#000000" fill-rule="evenodd" stroke="none"/>
    <path d="M-331.75 172.5 L-331.75 151.5 -323.65 151.5 -323.65 172.5 -331.75 172.5" fill="#000000" fill-rule="evenodd" stroke="none"/>
    <path d="M-304.3 214.2 L-304.3 221.75 -331.75 221.75 -331.75 214.2 -304.3 214.2" fill="#000000" fill-rule="evenodd" stroke="none"/>
    <path d="M-292.25 187.2 L-292.25 197.5 -303.5 197.5 -303.5 187.2 -292.25 187.2" fill="#000000" fill-rule="evenodd" stroke="none"/>
    <path d="M-245.4 14.75 L-242.9 14.75 -242.9 41.75 -245.4 41.75 -245.4 14.75" fill="#000000" fill-rule="evenodd" stroke="none"/>
    <path d="M-300.1 89.45 L-300.1 91.95 -315.0 91.95 -315.0 89.45 -300.1 89.45" fill="#000000" fill-rule="evenodd" stroke="none"/>
    <path d="M-332.4 51.15 L-332.4 65.65 -334.9 65.65 -334.9 51.15 -332.4 51.15" fill="#000000" fill-rule="evenodd" stroke="none"/>
    <path d="M-293.5 -33.4 L-293.5 -30.9 -307.65 -30.9 -307.65 -33.4 -293.5 -33.4" fill="#000000" fill-rule="evenodd" stroke="none"/>
    <path d="M-127.0 363.85 L-127.0 351.35 123.75 351.35 123.75 363.85 -127.0 363.85" fill="#000000" fill-rule="evenodd" stroke="none"/>
    <path d="M-320.5 564.1 L-320.5 551.6 -229.0 551.6 -229.0 564.1 -320.5 564.1" fill="#000000" fill-rule="evenodd" stroke="none"/>
    <path d="M326.0 551.6 L326.0 564.1 236.0 564.1 236.0 551.6 326.0 551.6" fill="#000000" fill-rule="evenodd" stroke="none"/>
    <path d="M-193.6 -552.0 L-193.6 -575.35 190.35 -575.35 190.35 -552.0 -193.6 -552.0" fill="#000000" fill-rule="evenodd" stroke="none"/>
    <path d="M481.0 -339.85 L493.5 -339.85 493.5 -250.6 481.0 -250.6 481.0 -339.85" fill="#000000" fill-rule="evenodd" stroke="none"/>
    <path d="M-488.5 -254.35 L-476.0 -254.35 -476.0 -184.6 -488.5 -184.6 -488.5 -254.35" fill="#000000" fill-rule="evenodd" stroke="none"/>
    <path d="M177.0 380.5 L177.0 340.85 195.7 340.85 195.7 398.5 157.35 398.5 157.35 346.2 175.2 346.2 175.2 380.5 177.0 380.5" fill="#000000" fill-rule="evenodd" stroke="none"/>
    <path d="M-177.15 380.5 L-177.15 346.2 -159.3 346.2 -159.3 398.5 -197.65 398.5 -197.65 340.85 -179.0 340.85 -179.0 380.5 -177.15 380.5" fill="#000000" fill-rule="evenodd" stroke="none"/>
    <path d="M-260.0 183.7 L-240.5 183.7 -240.5 248.0 -260.0 248.0 -260.0 183.7" fill="#000000" fill-rule="evenodd" stroke="none"/>
    <path d="M-292.25 179.5 L-292.25 149.5 -289.75 149.5 -289.75 179.5 -292.25 179.5" fill="#000000" fill-rule="evenodd" stroke="none"/>
    <path d="M-334.25 210.2 L-334.25 195.7 -331.75 195.7 -331.75 210.2 -334.25 210.2" fill="#000000" fill-rule="evenodd" stroke="none"/>
    <path d="M-311.8 135.6 L-311.8 138.1 -326.0 138.1 -326.0 135.6 -311.8 135.6" fill="#000000" fill-rule="evenodd" stroke="none"/>
    <path d="M-355.5 34.0 L-355.5 28.2 -354.0 28.2 -354.0 34.0 -355.5 34.0" fill="#000000" fill-rule="evenodd" stroke="none"/>
    <path d="M-208.45 271.2 L-208.45 264.2 -203.5 264.2 -203.5 271.2 -208.45 271.2" fill="#000000" fill-rule="evenodd" stroke="none"/>
    <path d="M202.45 286.3 L207.45 286.3 207.45 293.3 202.45 293.3 202.45 286.3" fill="#000000" fill-rule="evenodd" stroke="none"/>
    <path d="M217.4 -208.7 L217.4 -247.4 276.55 -247.4 276.55 -228.7 235.15 -228.7 235.15 -227.4 273.4 -227.4 273.4 -208.7 217.4 -208.7" fill="#000000" fill-rule="evenodd" stroke="none"/>
    <path d="M399.65 378.55 L399.65 419.9 380.95 419.9 380.95 360.8 419.65 360.8 419.65 413.8 400.95 413.8 400.95 378.55 399.65 378.55" fill="#000000" fill-rule="evenodd" stroke="none"/>
    <path d="M380.8 -122.4 L399.5 -122.4 399.5 -81.5 400.8 -81.5 400.8 -116.25 419.5 -116.25 419.5 -63.75 380.8 -63.75 380.8 -122.4" fill="#000000" fill-rule="evenodd" stroke="none"/>
    <path d="M-421.2 -119.65 L-402.5 -119.65 -402.5 -83.4 -400.9 -83.4 -400.9 -122.85 -382.15 -122.85 -382.15 -83.4 -350.0 -83.4 -350.0 -64.65 -421.2 -64.65 -421.2 -119.65" fill="#000000" fill-rule="evenodd" stroke="none"/>
    <path d="M-402.5 179.6 L-402.5 215.9 -421.2 215.9 -421.2 160.9 -350.0 160.9 -350.0 179.6 -382.15 179.6 -382.15 219.05 -400.9 219.05 -400.9 179.6 -402.5 179.6" fill="#000000" fill-rule="evenodd" stroke="none"/>
    <path d="M328.65 134.75 L247.9 134.75 247.9 116.0 328.65 116.0 328.65 134.75" fill="#000000" fill-rule="evenodd" stroke="none"/>
    <path d="M-237.5 -177.5 L-237.5 -158.65 -300.5 -158.65 -300.5 -156.65 -320.8 -156.65 -320.8 -178.15 -300.5 -178.15 -300.5 -177.5 -237.5 -177.5" fill="#000000" fill-rule="evenodd" stroke="none"/>
    <path d="M391.5 -368.5 L391.5 -357.5 493.5 -357.5 493.5 113.5 393.05 113.5 393.05 346.0 435.0 346.0 435.0 451.25 393.05 451.25 393.05 564.1 186.55 564.1 186.55 415.85 141.85 415.85 141.85 363.85 -143.85 363.85 -143.85 415.85 -187.0 415.85 -187.0 564.1 -395.0 564.1 -395.0 251.45 -436.5 251.45 -436.5 145.75 -395.0 145.75 -395.0 -49.25 -437.0 -49.25 -437.0 -154.25 -395.0 -154.25 -395.0 -169.5 -488.5 -169.5 -488.5 -268.5 -217.8 -268.5 -217.8 -564.5 217.7 -564.5 217.7 -368.5 391.5 -368.5" fill="#434343" fill-rule="evenodd" stroke="none"/>
    <path d="M381.0 -356.0 L381.0 -345.0 481.0 -345.0 481.0 101.0 380.55 101.0 380.55 358.5 422.5 358.5 422.5 438.75 380.55 438.75 380.55 551.6 199.05 551.6 199.05 403.35 154.35 403.35 154.35 351.35 -156.35 351.35 -156.35 403.35 -199.5 403.35 -199.5 551.6 -382.5 551.6 -382.5 238.95 -424.0 238.95 -424.0 158.25 -382.5 158.25 -382.5 -61.75 -424.5 -61.75 -424.5 -141.75 -382.5 -141.75 -382.5 -182.0 -476.0 -182.0 -476.0 -256.0 -205.3 -256.0 -205.3 -552.0 205.2 -552.0 205.2 -356.0 381.0 -356.0" fill="#969696" fill-rule="evenodd" stroke="none"/>
    <path d="M-334.0 -32.65 L-244.65 -32.65 -244.65 89.35 -334.0 89.35 -334.0 -32.65" fill="#969696" fill-rule="evenodd" stroke="none"/>
    <path d="M-332.4 -30.9 L-332.4 89.45 -245.4 89.45 -245.4 -30.9 -332.4 -30.9 M-242.9 -33.4 L-242.9 91.95 -334.9 91.95 -334.9 -33.4 -242.9 -33.4" fill="#434343" fill-rule="evenodd" stroke="none"/>
    <path d="M-241.95 -42.55 L-241.95 -45.55 -238.95 -45.55 -238.95 -42.55 -241.95 -42.55" fill="#434343" fill-rule="evenodd" stroke="none"/>
    <path d="M273.5 -204.6 L273.5 -207.6 276.5 -207.6 276.5 -204.6 273.5 -204.6" fill="#434343" fill-rule="evenodd" stroke="none"/>
    <path d="M273.5 -248.25 L273.5 -251.25 276.5 -251.25 276.5 -248.25 273.5 -248.25" fill="#434343" fill-rule="evenodd" stroke="none"/>
    <path d="M345.4 -204.6 L345.4 -207.6 348.4 -207.6 348.4 -204.6 345.4 -204.6" fill="#434343" fill-rule="evenodd" stroke="none"/>
    <path d="M216.9 -248.25 L216.9 -251.25 219.9 -251.25 219.9 -248.25 216.9 -248.25" fill="#434343" fill-rule="evenodd" stroke="none"/>
    <path d="M216.9 -204.6 L216.9 -207.6 219.9 -207.6 219.9 -204.6 216.9 -204.6" fill="#434343" fill-rule="evenodd" stroke="none"/>
    <path d="M273.75 -79.0 L273.75 -82.0 276.75 -82.0 276.75 -79.0 273.75 -79.0" fill="#434343" fill-rule="evenodd" stroke="none"/>
    <path d="M345.5 -79.05 L345.5 -82.05 348.5 -82.05 348.5 -79.05 345.5 -79.05" fill="#434343" fill-rule="evenodd" stroke="none"/>
    <path d="M217.0 -79.0 L217.0 -82.0 220.0 -82.0 220.0 -79.0 217.0 -79.0" fill="#434343" fill-rule="evenodd" stroke="none"/>
    <path d="M273.75 51.5 L273.75 48.5 276.75 48.5 276.75 51.5 273.75 51.5" fill="#434343" fill-rule="evenodd" stroke="none"/>
    <path d="M345.1 51.7 L345.1 48.7 348.1 48.7 348.1 51.7 345.1 51.7" fill="#434343" fill-rule="evenodd" stroke="none"/>
    <path d="M216.85 51.35 L216.85 48.35 219.85 48.35 219.85 51.35 216.85 51.35" fill="#434343" fill-rule="evenodd" stroke="none"/>
    <path d="M199.55 351.0 L199.55 345.5 205.05 345.5 205.05 351.0 199.55 351.0" fill="#434343" fill-rule="evenodd" stroke="none"/>
    <path d="M-206.1 351.0 L-206.1 345.5 -200.6 345.5 -200.6 351.0 -206.1 351.0" fill="#434343" fill-rule="evenodd" stroke="none"/>
    <path d="M196.6 450.95 L196.6 445.45 205.1 445.45 205.1 450.95 196.6 450.95" fill="#434343" fill-rule="evenodd" stroke="none"/>
    <path d="M196.1 550.85 L196.1 545.35 204.6 545.35 204.6 550.85 196.1 550.85" fill="#434343" fill-rule="evenodd" stroke="none"/>
    <path d="M-205.35 450.95 L-205.35 445.45 -196.85 445.45 -196.85 450.95 -205.35 450.95" fill="#434343" fill-rule="evenodd" stroke="none"/>
    <path d="M-205.35 550.85 L-205.35 545.35 -196.85 545.35 -196.85 550.85 -205.35 550.85" fill="#434343" fill-rule="evenodd" stroke="none"/>
    <path d="M-294.25 -42.55 L-294.25 -45.55 -291.25 -45.55 -291.25 -42.55 -294.25 -42.55" fill="#434343" fill-rule="evenodd" stroke="none"/>
    <path d="M-242.15 -153.65 L-242.15 -156.65 -239.15 -156.65 -239.15 -153.65 -242.15 -153.65" fill="#434343" fill-rule="evenodd" stroke="none"/>
    <path d="M-294.2 -153.65 L-294.2 -156.65 -291.2 -156.65 -291.2 -153.65 -294.2 -153.65" fill="#434343" fill-rule="evenodd" stroke="none"/>
    <path d="M-349.95 -42.55 L-349.95 -45.55 -346.95 -45.55 -346.95 -42.55 -349.95 -42.55" fill="#434343" fill-rule="evenodd" stroke="none"/>
    <path d="M-241.95 106.75 L-241.95 103.75 -238.95 103.75 -238.95 106.75 -241.95 106.75" fill="#434343" fill-rule="evenodd" stroke="none"/>
    <path d="M-294.25 106.75 L-294.25 103.75 -291.25 103.75 -291.25 106.75 -294.25 106.75" fill="#434343" fill-rule="evenodd" stroke="none"/>
    <path d="M-349.95 106.75 L-349.95 103.75 -346.95 103.75 -346.95 106.75 -349.95 106.75" fill="#434343" fill-rule="evenodd" stroke="none"/>
    <path d="M-242.25 184.15 L-242.25 181.15 -239.25 181.15 -239.25 184.15 -242.25 184.15" fill="#434343" fill-rule="evenodd" stroke="none"/>
    <path d="M-264.5 184.15 L-264.5 181.15 -261.5 181.15 -261.5 184.15 -264.5 184.15" fill="#434343" fill-rule="evenodd" stroke="none"/>
    <path d="M-350.5 243.85 L-350.5 240.85 -347.5 240.85 -347.5 243.85 -350.5 243.85" fill="#434343" fill-rule="evenodd" stroke="none"/>
    <path d="M-264.0 243.85 L-264.0 240.85 -261.0 240.85 -261.0 243.85 -264.0 243.85" fill="#434343" fill-rule="evenodd" stroke="none"/>
    <path d="M-350.25 184.25 L-350.25 181.25 -347.25 181.25 -347.25 184.25 -350.25 184.25" fill="#434343" fill-rule="evenodd" stroke="none"/>
    <path d="M-349.95 -153.5 L-349.95 -156.5 -346.95 -156.5 -346.95 -153.5 -349.95 -153.5" fill="#434343" fill-rule="evenodd" stroke="none"/>
    <path d="M-380.7 -54.4 L-379.8 -54.4 -379.8 -52.65 -375.55 -52.65 -375.55 -54.4 -347.2 -54.4 -347.2 -50.05 -375.55 -50.05 -375.55 -51.75 -379.8 -51.75 -379.8 -50.05 -380.7 -50.05 -380.7 -54.4" fill="#434343" fill-rule="evenodd" stroke="none"/>
    <path d="M-380.7 45.65 L-379.8 45.65 -379.8 47.4 -375.55 47.4 -375.55 45.65 -347.2 45.65 -347.2 50.05 -375.55 50.05 -375.55 48.35 -379.8 48.35 -379.8 50.05 -380.7 50.05 -380.7 45.65" fill="#434343" fill-rule="evenodd" stroke="none"/>
    <path d="M-375.55 143.95 L-375.55 142.2 -347.2 142.2 -347.2 146.6 -375.55 146.6 -375.55 144.9 -379.8 144.9 -379.8 146.6 -380.7 146.6 -380.7 142.2 -379.8 142.2 -379.8 143.95 -375.55 143.95" fill="#434343" fill-rule="evenodd" stroke="none"/>
    <path d="M-375.55 248.3 L-379.8 248.3 -379.8 250.05 -380.7 250.05 -380.7 245.65 -379.8 245.65 -379.8 247.4 -375.55 247.4 -375.55 245.65 -347.2 245.65 -347.2 250.05 -375.55 250.05 -375.55 248.3" fill="#434343" fill-rule="evenodd" stroke="none"/>
    <path d="M-375.55 348.25 L-379.8 348.25 -379.8 350.0 -380.7 350.0 -380.7 345.6 -379.8 345.6 -379.8 347.35 -375.55 347.35 -375.55 345.6 -347.2 345.6 -347.2 350.0 -375.55 350.0 -375.55 348.25" fill="#434343" fill-rule="evenodd" stroke="none"/>
    <path d="M-380.7 445.6 L-379.8 445.6 -379.8 447.35 -375.55 447.35 -375.55 445.6 -347.2 445.6 -347.2 449.95 -375.55 449.95 -375.55 448.25 -379.8 448.25 -379.8 449.95 -380.7 449.95 -380.7 445.6" fill="#434343" fill-rule="evenodd" stroke="none"/>
    <path d="M-380.7 545.6 L-379.8 545.6 -379.8 547.35 -375.55 547.35 -375.55 545.6 -347.2 545.6 -347.2 550.0 -375.55 550.0 -375.55 548.3 -379.8 548.3 -379.8 550.0 -380.7 550.0 -380.7 545.6" fill="#434343" fill-rule="evenodd" stroke="none"/>
    <path d="M-375.55 -152.65 L-375.55 -154.4 -347.2 -154.4 -347.2 -150.05 -375.55 -150.05 -375.55 -151.75 -379.8 -151.75 -379.8 -150.05 -380.7 -150.05 -380.7 -154.4 -379.8 -154.4 -379.8 -152.65 -375.55 -152.65" fill="#434343" fill-rule="evenodd" stroke="none"/>
    <path d="M-347.2 -253.9 L-347.2 -249.55 -375.55 -249.55 -375.55 -251.25 -379.8 -251.25 -379.8 -249.55 -380.7 -249.55 -380.7 -253.9 -379.8 -253.9 -379.8 -252.15 -375.55 -252.15 -375.55 -253.9 -347.2 -253.9" fill="#434343" fill-rule="evenodd" stroke="none"/>
    <path d="M374.2 -54.4 L374.2 -52.65 378.45 -52.65 378.45 -54.4 379.35 -54.4 379.35 -50.05 378.45 -50.05 378.45 -51.75 374.2 -51.75 374.2 -50.05 345.85 -50.05 345.85 -54.4 374.2 -54.4" fill="#434343" fill-rule="evenodd" stroke="none"/>
    <path d="M378.45 48.35 L374.2 48.35 374.2 50.05 345.85 50.05 345.85 45.65 374.2 45.65 374.2 47.4 378.45 47.4 378.45 45.65 379.35 45.65 379.35 50.05 378.45 50.05 378.45 48.35" fill="#434343" fill-rule="evenodd" stroke="none"/>
    <path d="M374.2 142.2 L374.2 143.95 378.45 143.95 378.45 142.2 379.35 142.2 379.35 146.6 378.45 146.6 378.45 144.9 374.2 144.9 374.2 146.6 345.85 146.6 345.85 142.2 374.2 142.2" fill="#434343" fill-rule="evenodd" stroke="none"/>
    <path d="M378.45 248.3 L374.2 248.3 374.2 250.05 345.85 250.05 345.85 245.65 374.2 245.65 374.2 247.4 378.45 247.4 378.45 245.65 379.35 245.65 379.35 250.05 378.45 250.05 378.45 248.3" fill="#434343" fill-rule="evenodd" stroke="none"/>
    <path d="M374.2 345.6 L374.2 347.35 378.45 347.35 378.45 345.6 379.35 345.6 379.35 350.0 378.45 350.0 378.45 348.25 374.2 348.25 374.2 350.0 345.85 350.0 345.85 345.6 374.2 345.6" fill="#434343" fill-rule="evenodd" stroke="none"/>
    <path d="M378.45 448.25 L374.2 448.25 374.2 449.95 345.85 449.95 345.85 445.6 374.2 445.6 374.2 447.35 378.45 447.35 378.45 445.6 379.35 445.6 379.35 449.95 378.45 449.95 378.45 448.25" fill="#434343" fill-rule="evenodd" stroke="none"/>
    <path d="M374.2 545.6 L374.2 547.35 378.45 547.35 378.45 545.6 379.35 545.6 379.35 550.0 378.45 550.0 378.45 548.3 374.2 548.3 374.2 550.0 345.85 550.0 345.85 545.6 374.2 545.6" fill="#434343" fill-rule="evenodd" stroke="none"/>
    <path d="M378.45 -151.75 L374.2 -151.75 374.2 -150.05 345.85 -150.05 345.85 -154.4 374.2 -154.4 374.2 -152.65 378.45 -152.65 378.45 -154.4 379.35 -154.4 379.35 -150.05 378.45 -150.05 378.45 -151.75" fill="#434343" fill-rule="evenodd" stroke="none"/>
    <path d="M374.2 -253.9 L374.2 -252.15 378.45 -252.15 378.45 -253.9 379.35 -253.9 379.35 -249.55 378.45 -249.55 378.45 -251.25 374.2 -251.25 374.2 -249.55 345.85 -249.55 345.85 -253.9 374.2 -253.9" fill="#434343" fill-rule="evenodd" stroke="none"/>
    <path d="M378.45 -351.25 L374.2 -351.25 374.2 -349.55 345.85 -349.55 345.85 -353.9 374.2 -353.9 374.2 -352.15 378.45 -352.15 378.45 -353.9 379.35 -353.9 379.35 -349.55 378.45 -349.55 378.45 -351.25" fill="#434343" fill-rule="evenodd" stroke="none"/>
    <path d="M-215.6 230.75 L-207.35 230.75 -207.35 304.75 -215.6 304.75 -215.6 295.5 -218.75 295.5 -218.75 288.9 -215.6 288.9 -215.6 246.65 -219.0 246.65 -219.0 240.15 -215.6 240.15 -215.6 230.75" fill="#434343" fill-rule="evenodd" stroke="none"/>
    <path d="M217.25 268.9 L213.85 268.9 213.85 311.15 217.0 311.15 217.0 317.8 213.85 317.8 213.85 327.05 205.6 327.05 205.6 253.05 213.85 253.05 213.85 262.4 217.25 262.4 217.25 268.9" fill="#434343" fill-rule="evenodd" stroke="none"/>
    <path d="M328.65 52.7 L328.65 114.2 238.5 114.2 238.5 52.7 328.65 52.7" fill="#434343" fill-rule="evenodd" stroke="none"/>
    <path d="M346.35 -348.85 L346.35 -277.7 247.5 -277.7 247.5 -327.55 294.2 -327.55 294.2 -348.85 346.35 -348.85" fill="#434343" fill-rule="evenodd" stroke="none"/>
    <path d="M-331.75 138.1 L-331.75 221.75 -292.25 221.75 -292.25 138.1 -331.75 138.1 M-289.75 135.6 L-289.75 224.25 -334.25 224.25 -334.25 135.6 -289.75 135.6" fill="#434343" fill-rule="evenodd" stroke="none"/>
    <path d="M-332.4 3.0 L-324.65 3.0 -324.65 43.2 -332.4 43.2 -332.4 3.0" fill="#707070" fill-rule="evenodd" stroke="none"/>
    <path d="M-332.4 88.15 L-332.4 78.25 -326.1 78.25 -326.1 88.15 -332.4 88.15" fill="#707070" fill-rule="evenodd" stroke="none"/>
    <path d="M-250.85 83.0 L-250.85 86.65 -247.5 86.65 -247.5 89.45 -287.25 89.45 -287.25 83.0 -250.85 83.0" fill="#707070" fill-rule="evenodd" stroke="none"/>
    <path d="M-284.1 -24.85 L-284.1 -30.9 -253.1 -30.9 -253.1 -24.85 -284.1 -24.85" fill="#707070" fill-rule="evenodd" stroke="none"/>
    <path d="M-332.4 -22.75 L-332.4 -30.9 -311.85 -30.9 -311.85 -28.25 -313.0 -28.25 -313.0 -22.75 -332.4 -22.75" fill="#707070" fill-rule="evenodd" stroke="none"/>
    <path d="M274.25 -150.0 L270.0 -150.0 270.0 -127.75 274.25 -127.75 274.25 -150.0 M266.0 -150.0 L260.5 -150.0 260.5 -127.75 266.0 -127.75 266.0 -150.0 M291.25 -150.0 L285.75 -150.0 285.75 -127.75 291.25 -127.75 291.25 -150.0 M283.75 -150.0 L278.25 -150.0 278.25 -127.75 283.75 -127.75 283.75 -150.0 M336.75 -152.0 L336.75 -125.75 258.5 -125.75 258.5 -152.0 336.75 -152.0 M299.5 -127.75 L299.5 -150.0 295.25 -150.0 295.25 -127.75 299.5 -127.75 M317.0 -150.0 L311.5 -150.0 311.5 -127.75 317.0 -127.75 317.0 -150.0 M309.0 -150.0 L303.5 -150.0 303.5 -127.75 309.0 -127.75 309.0 -150.0 M334.75 -150.0 L329.25 -150.0 329.25 -127.75 334.75 -127.75 334.75 -150.0 M325.25 -150.0 L321.0 -150.0 321.0 -127.75 325.25 -127.75 325.25 -150.0" fill="#707070" fill-rule="evenodd" stroke="none"/>
    <path d="M291.75 -178.75 L286.25 -178.75 286.25 -156.5 291.75 -156.5 291.75 -178.75 M274.75 -178.75 L270.5 -178.75 270.5 -156.5 274.75 -156.5 274.75 -178.75 M266.5 -178.75 L261.0 -178.75 261.0 -156.5 266.5 -156.5 266.5 -178.75 M284.25 -178.75 L278.75 -178.75 278.75 -156.5 284.25 -156.5 284.25 -178.75 M311.5 -180.75 L311.5 -154.5 259.0 -154.5 259.0 -180.75 311.5 -180.75 M300.0 -156.5 L300.0 -178.75 295.75 -178.75 295.75 -156.5 300.0 -156.5 M309.5 -178.75 L304.0 -178.75 304.0 -156.5 309.5 -156.5 309.5 -178.75" fill="#707070" fill-rule="evenodd" stroke="none"/>
    <path d="M435.25 -188.5 L435.25 -183.0 457.5 -183.0 457.5 -188.5 435.25 -188.5 M457.5 -163.25 L435.25 -163.25 435.25 -157.75 457.5 -157.75 457.5 -163.25 M435.25 -171.5 L435.25 -167.25 457.5 -167.25 457.5 -171.5 435.25 -171.5 M435.25 -181.0 L435.25 -175.5 457.5 -175.5 457.5 -181.0 435.25 -181.0 M457.5 -200.75 L457.5 -206.25 435.25 -206.25 435.25 -200.75 457.5 -200.75 M457.5 -192.5 L457.5 -196.75 435.25 -196.75 435.25 -192.5 457.5 -192.5 M433.25 -208.25 L459.5 -208.25 459.5 -155.75 433.25 -155.75 433.25 -208.25" fill="#707070" fill-rule="evenodd" stroke="none"/>
    <path d="M383.0 13.95 L383.0 9.7 360.75 9.7 360.75 13.95 383.0 13.95 M383.0 23.45 L383.0 17.95 360.75 17.95 360.75 23.45 383.0 23.45 M383.0 5.7 L383.0 0.2 360.75 0.2 360.75 5.7 383.0 5.7 M383.0 -1.8 L383.0 -7.3 360.75 -7.3 360.75 -1.8 383.0 -1.8 M358.75 -27.05 L385.0 -27.05 385.0 25.45 358.75 25.45 358.75 -27.05 M360.75 -15.55 L360.75 -11.3 383.0 -11.3 383.0 -15.55 360.75 -15.55 M360.75 -25.05 L360.75 -19.55 383.0 -19.55 383.0 -25.05 360.75 -25.05" fill="#707070" fill-rule="evenodd" stroke="none"/>
    <path d="M252.45 20.35 L252.45 42.6 257.95 42.6 257.95 20.35 252.45 20.35 M266.2 20.35 L261.95 20.35 261.95 42.6 266.2 42.6 266.2 20.35 M275.7 20.35 L270.2 20.35 270.2 42.6 275.7 42.6 275.7 20.35 M291.45 20.35 L287.2 20.35 287.2 42.6 291.45 42.6 291.45 20.35 M283.2 20.35 L277.7 20.35 277.7 42.6 283.2 42.6 283.2 20.35 M302.95 18.35 L302.95 44.6 250.45 44.6 250.45 18.35 302.95 18.35 M300.95 42.6 L300.95 20.35 295.45 20.35 295.45 42.6 300.95 42.6" fill="#707070" fill-rule="evenodd" stroke="none"/>
    <path d="M378.0 -109.75 L378.0 -57.25 351.75 -57.25 351.75 -109.75 378.0 -109.75 M376.0 -64.75 L353.75 -64.75 353.75 -59.25 376.0 -59.25 376.0 -64.75 M353.75 -73.0 L353.75 -68.75 376.0 -68.75 376.0 -73.0 353.75 -73.0 M353.75 -82.5 L353.75 -77.0 376.0 -77.0 376.0 -82.5 353.75 -82.5 M376.0 -84.5 L376.0 -90.0 353.75 -90.0 353.75 -84.5 376.0 -84.5 M376.0 -102.25 L376.0 -107.75 353.75 -107.75 353.75 -102.25 376.0 -102.25 M376.0 -94.0 L376.0 -98.25 353.75 -98.25 353.75 -94.0 376.0 -94.0" fill="#707070" fill-rule="evenodd" stroke="none"/>
    <path d="M312.5 -92.9 L312.5 -14.5 286.25 -14.5 286.25 -92.9 312.5 -92.9 M310.5 -34.25 L310.5 -39.75 288.25 -39.75 288.25 -34.25 310.5 -34.25 M310.5 -26.0 L310.5 -30.25 288.25 -30.25 288.25 -26.0 310.5 -26.0 M310.5 -16.5 L310.5 -22.0 288.25 -22.0 288.25 -16.5 310.5 -16.5 M310.5 -42.05 L310.5 -47.55 288.25 -47.55 288.25 -42.05 310.5 -42.05 M310.5 -51.55 L310.5 -55.8 288.25 -55.8 288.25 -51.55 310.5 -51.55 M310.5 -59.8 L310.5 -65.3 288.25 -65.3 288.25 -59.8 310.5 -59.8 M310.5 -67.65 L310.5 -73.15 288.25 -73.15 288.25 -67.65 310.5 -67.65 M310.5 -77.15 L310.5 -81.4 288.25 -81.4 288.25 -77.15 310.5 -77.15 M310.5 -85.4 L310.5 -90.9 288.25 -90.9 288.25 -85.4 310.5 -85.4" fill="#707070" fill-rule="evenodd" stroke="none"/>
    <path d="M227.55 -22.75 L227.55 -17.25 249.8 -17.25 249.8 -22.75 227.55 -22.75 M227.55 -31.0 L227.55 -26.75 249.8 -26.75 249.8 -31.0 227.55 -31.0 M249.8 -35.0 L249.8 -40.5 227.55 -40.5 227.55 -35.0 249.8 -35.0 M249.8 -52.3 L249.8 -56.55 227.55 -56.55 227.55 -52.3 249.8 -52.3 M249.8 -42.8 L249.8 -48.3 227.55 -48.3 227.55 -42.8 249.8 -42.8 M225.55 -93.65 L251.8 -93.65 251.8 -15.25 225.55 -15.25 225.55 -93.65 M227.55 -73.9 L227.55 -68.4 249.8 -68.4 249.8 -73.9 227.55 -73.9 M227.55 -82.15 L227.55 -77.9 249.8 -77.9 249.8 -82.15 227.55 -82.15 M227.55 -66.05 L227.55 -60.55 249.8 -60.55 249.8 -66.05 227.55 -66.05 M249.8 -86.15 L249.8 -91.65 227.55 -91.65 227.55 -86.15 249.8 -86.15" fill="#707070" fill-rule="evenodd" stroke="none"/>
    <path d="M431.0 19.5 L431.0 15.25 408.75 15.25 408.75 19.5 431.0 19.5 M431.0 29.0 L431.0 23.5 408.75 23.5 408.75 29.0 431.0 29.0 M431.0 11.25 L431.0 5.75 408.75 5.75 408.75 11.25 431.0 11.25 M431.0 3.75 L431.0 -1.75 408.75 -1.75 408.75 3.75 431.0 3.75 M431.0 -5.75 L431.0 -10.0 408.75 -10.0 408.75 -5.75 431.0 -5.75 M406.75 -21.5 L433.0 -21.5 433.0 31.0 406.75 31.0 406.75 -21.5 M408.75 -19.5 L408.75 -14.0 431.0 -14.0 431.0 -19.5 408.75 -19.5" fill="#707070" fill-rule="evenodd" stroke="none"/>
    <path d="M459.35 -21.5 L459.35 31.0 433.1 31.0 433.1 -21.5 459.35 -21.5 M435.1 15.25 L435.1 19.5 457.35 19.5 457.35 15.25 435.1 15.25 M435.1 23.5 L435.1 29.0 457.35 29.0 457.35 23.5 435.1 23.5 M457.35 3.75 L457.35 -1.75 435.1 -1.75 435.1 3.75 457.35 3.75 M457.35 -5.75 L457.35 -10.0 435.1 -10.0 435.1 -5.75 457.35 -5.75 M457.35 11.25 L457.35 5.75 435.1 5.75 435.1 11.25 457.35 11.25 M457.35 -19.5 L435.1 -19.5 435.1 -14.0 457.35 -14.0 457.35 -19.5" fill="#707070" fill-rule="evenodd" stroke="none"/>
    <path d="M328.65 65.35 L340.35 65.35 340.35 100.85 328.65 100.85 328.65 65.35" fill="#707070" fill-rule="evenodd" stroke="none"/>
    <path d="M-331.75 172.5 L-331.75 151.5 -323.65 151.5 -323.65 172.5 -331.75 172.5" fill="#707070" fill-rule="evenodd" stroke="none"/>
    <path d="M-304.3 214.2 L-304.3 221.75 -331.75 221.75 -331.75 214.2 -304.3 214.2" fill="#707070" fill-rule="evenodd" stroke="none"/>
    <path d="M-292.25 187.2 L-292.25 197.5 -303.5 197.5 -303.5 187.2 -292.25 187.2" fill="#707070" fill-rule="evenodd" stroke="none"/>
    <path d="M-245.4 14.75 L-242.9 14.75 -242.9 41.75 -245.4 41.75 -245.4 14.75" fill="#ffffff" fill-rule="evenodd" stroke="none"/>
    <path d="M-300.1 89.45 L-300.1 91.95 -315.0 91.95 -315.0 89.45 -300.1 89.45" fill="#ffffff" fill-rule="evenodd" stroke="none"/>
    <path d="M-332.4 51.15 L-332.4 65.65 -334.9 65.65 -334.9 51.15 -332.4 51.15" fill="#ffffff" fill-rule="evenodd" stroke="none"/>
    <path d="M-293.5 -33.4 L-293.5 -30.9 -307.65 -30.9 -307.65 -33.4 -293.5 -33.4" fill="#ffffff" fill-rule="evenodd" stroke="none"/>
    <path d="M-127.0 363.85 L-127.0 351.35 123.75 351.35 123.75 363.85 -127.0 363.85" fill="#ffffff" fill-rule="evenodd" stroke="none"/>
    <path d="M-320.5 564.1 L-320.5 551.6 -229.0 551.6 -229.0 564.1 -320.5 564.1" fill="#ffffff" fill-rule="evenodd" stroke="none"/>
    <path d="M326.0 551.6 L326.0 564.1 236.0 564.1 236.0 551.6 326.0 551.6" fill="#ffffff" fill-rule="evenodd" stroke="none"/>
    <path d="M-193.6 -552.0 L-193.6 -575.35 190.35 -575.35 190.35 -552.0 -193.6 -552.0" fill="#ffffff" fill-rule="evenodd" stroke="none"/>
    <path d="M481.0 -339.85 L493.5 -339.85 493.5 -250.6 481.0 -250.6 481.0 -339.85" fill="#ffffff" fill-rule="evenodd" stroke="none"/>
    <path d="M-488.5 -254.35 L-476.0 -254.35 -476.0 -184.6 -488.5 -184.6 -488.5 -254.35" fill="#ffffff" fill-rule="evenodd" stroke="none"/>
    <path d="M177.0 380.5 L177.0 340.85 195.7 340.85 195.7 398.5 157.35 398.5 157.35 346.2 175.2 346.2 175.2 380.5 177.0 380.5" fill="#ffffff" fill-rule="evenodd" stroke="none"/>
    <path d="M-177.15 380.5 L-177.15 346.2 -159.3 346.2 -159.3 398.5 -197.65 398.5 -197.65 340.85 -179.0 340.85 -179.0 380.5 -177.15 380.5" fill="#ffffff" fill-rule="evenodd" stroke="none"/>
    <path d="M-260.0 183.7 L-240.5 183.7 -240.5 248.0 -260.0 248.0 -260.0 183.7" fill="#ffffff" fill-rule="evenodd" stroke="none"/>
    <path d="M-292.25 179.5 L-292.25 149.5 -289.75 149.5 -289.75 179.5 -292.25 179.5" fill="#ffffff" fill-rule="evenodd" stroke="none"/>
    <path d="M-334.25 210.2 L-334.25 195.7 -331.75 195.7 -331.75 210.2 -334.25 210.2" fill="#ffffff" fill-rule="evenodd" stroke="none"/>
    <path d="M-311.8 135.6 L-311.8 138.1 -326.0 138.1 -326.0 135.6 -311.8 135.6" fill="#ffffff" fill-rule="evenodd" stroke="none"/>
    <path d="M-355.5 34.0 L-355.5 28.2 -354.0 28.2 -354.0 34.0 -355.5 34.0" fill="#ffffff" fill-rule="evenodd" stroke="none"/>
    <path d="M-208.45 271.2 L-208.45 264.2 -203.5 264.2 -203.5 271.2 -208.45 271.2" fill="#ffffff" fill-rule="evenodd" stroke="none"/>
    <path d="M202.45 286.3 L207.45 286.3 207.45 293.3 202.45 293.3 202.45 286.3" fill="#ffffff" fill-rule="evenodd" stroke="none"/>
    <path d="M217.4 -208.7 L217.4 -247.4 276.55 -247.4 276.55 -228.7 235.15 -228.7 235.15 -227.4 273.4 -227.4 273.4 -208.7 217.4 -208.7" fill="#ffffff" fill-rule="evenodd" stroke="none"/>
    <path d="M399.65 378.55 L399.65 419.9 380.95 419.9 380.95 360.8 419.65 360.8 419.65 413.8 400.95 413.8 400.95 378.55 399.65 378.55" fill="#ffffff" fill-rule="evenodd" stroke="none"/>
    <path d="M380.8 -122.4 L399.5 -122.4 399.5 -81.5 400.8 -81.5 400.8 -116.25 419.5 -116.25 419.5 -63.75 380.8 -63.75 380.8 -122.4" fill="#ffffff" fill-rule="evenodd" stroke="none"/>
    <path d="M-421.2 -119.65 L-402.5 -119.65 -402.5 -83.4 -400.9 -83.4 -400.9 -122.85 -382.15 -122.85 -382.15 -83.4 -350.0 -83.4 -350.0 -64.65 -421.2 -64.65 -421.2 -119.65" fill="#ffffff" fill-rule="evenodd" stroke="none"/>
    <path d="M-402.5 179.6 L-402.5 215.9 -421.2 215.9 -421.2 160.9 -350.0 160.9 -350.0 179.6 -382.15 179.6 -382.15 219.05 -400.9 219.05 -400.9 179.6 -402.5 179.6" fill="#ffffff" fill-rule="evenodd" stroke="none"/>
    <path d="M328.65 134.75 L247.9 134.75 247.9 116.0 328.65 116.0 328.65 134.75" fill="#ffffff" fill-rule="evenodd" stroke="none"/>
    <path d="M-237.5 -177.5 L-237.5 -158.65 -300.5 -158.65 -300.5 -156.65 -320.8 -156.65 -320.8 -178.15 -300.5 -178.15 -300.5 -177.5 -237.5 -177.5" fill="#ffffff" fill-rule="evenodd" stroke="none"/>
  </g>
</svg>
