<?xml version="1.0" encoding="UTF-8" standalone="no"?>
<svg xmlns:ffdec="https://www.free-decompiler.com/flash" xmlns:xlink="http://www.w3.org/1999/xlink" ffdec:objectType="shape" height="20.0px" width="20.0px" xmlns="http://www.w3.org/2000/svg">
  <g transform="matrix(1.0, 0.0, 0.0, 1.0, 10.0, 10.0)">
    <path d="M0.0 -10.0 Q4.15 -10.0 7.1 -7.1 10.0 -4.15 10.0 0.0 10.0 4.15 7.1 7.05 4.15 10.0 0.0 10.0 -4.1 10.0 -7.05 7.05 -10.0 4.15 -10.0 0.0 -10.0 -4.15 -7.05 -7.1 -4.15 -10.0 0.0 -10.0" fill="#000000" fill-rule="evenodd" stroke="none"/>
    <path d="M1.9 -2.3 L1.9 -3.65 Q1.9 -4.45 1.35 -5.0 0.8 -5.55 0.0 -5.55 -0.8 -5.55 -1.35 -5.0 -1.9 -4.45 -1.9 -3.65 L-1.9 -2.3 1.9 -2.3 M4.25 -2.3 Q4.85 -2.3 4.85 -1.85 L4.85 4.95 Q4.85 5.4 4.25 5.4 L-4.25 5.4 Q-4.8 5.4 -4.8 4.95 L-4.8 -1.85 Q-4.8 -2.3 -4.25 -2.3 L-3.1 -2.3 -3.1 -3.65 Q-3.1 -4.95 -2.2 -5.9 -1.3 -6.8 0.0 -6.8 1.25 -6.8 2.2 -5.9 3.1 -5.0 3.15 -3.7 L3.15 -2.3 4.25 -2.3" fill="#ffffff" fill-rule="evenodd" stroke="none"/>
  </g>
</svg>
