<?xml version="1.0" encoding="UTF-8" standalone="no"?>
<svg xmlns:ffdec="https://www.free-decompiler.com/flash" xmlns:xlink="http://www.w3.org/1999/xlink" ffdec:objectType="shape" height="400.0px" width="255.3px" xmlns="http://www.w3.org/2000/svg">
  <g transform="matrix(1.0, 0.0, 0.0, 1.0, 119.35, 224.65)">
    <path d="M-102.7 -116.0 L-72.7 -116.0 -72.7 -224.65 60.65 -224.65 60.65 -97.3 135.95 -97.3 135.95 111.35 129.95 111.35 129.95 175.35 -108.0 175.35 -108.0 111.35 -119.35 111.35 -119.35 48.7 -102.7 48.7 -102.7 -116.0" fill="#424242" fill-rule="evenodd" stroke="none"/>
    <path d="M-17.0 -167.25 L-13.5 -167.25 -13.5 -170.0 -11.25 -170.0 -11.25 -171.75 -13.75 -171.75 -13.75 -175.1 -21.6 -175.1 -21.6 -219.15 14.5 -219.15 14.5 -194.25 29.0 -194.25 29.0 -175.1 4.0 -175.1 4.0 -171.75 1.5 -171.75 1.5 -170.0 4.5 -170.0 4.5 -167.25 47.75 -167.25 47.75 -162.25 49.75 -162.25 49.75 -109.25 47.75 -109.25 47.75 -104.0 4.5 -104.0 4.5 -100.75 1.75 -100.75 1.75 -99.25 4.25 -99.25 4.25 -93.0 12.5 -93.0 12.5 -89.3 84.0 -89.15 84.0 -93.0 113.65 -93.0 113.65 -57.0 109.75 -57.0 109.75 11.05 129.3 11.05 129.3 103.5 35.0 103.5 35.0 62.0 12.75 62.0 12.75 103.25 3.5 103.25 3.5 106.5 0.75 106.5 0.75 107.75 4.25 107.75 4.25 110.85 25.8 110.85 25.8 170.55 4.0 170.55 4.0 168.55 -52.0 168.55 -52.0 137.55 -57.2 137.55 -57.2 121.35 -52.2 121.35 -52.2 109.7 -16.2 109.7 -16.2 114.85 -13.5 114.85 -13.5 107.75 -11.75 107.75 -11.75 106.5 -13.75 106.5 -13.75 62.25 -61.25 62.25 -61.25 99.5 -68.35 99.5 -68.35 101.7 -86.0 101.7 -86.0 99.5 -92.0 99.5 -92.0 96.0 -108.0 96.0 -108.0 62.25 -92.0 62.25 -92.0 11.5 -85.85 11.5 -85.85 6.5 -83.05 6.5 -77.5 5.4 -70.5 6.5 -68.0 6.5 -68.0 8.7 -61.7 8.7 -61.7 11.5 -61.25 11.5 -61.25 22.25 -13.7 22.25 -13.7 -10.5 -20.75 -10.5 -20.75 -72.0 -26.35 -72.0 -26.35 -89.3 -13.75 -89.3 -13.75 -99.25 -11.25 -99.25 -11.25 -100.75 -13.5 -100.75 -13.5 -104.0 -17.0 -104.0 -17.0 -140.5 -24.75 -140.5 -24.75 -127.7 -64.95 -127.7 -64.95 -170.3 -24.75 -170.3 -24.75 -157.75 -17.0 -157.75 -17.0 -167.25" fill="#959595" fill-rule="evenodd" stroke="none"/>
    <path d="M52.0 -12.85 L62.5 -12.85 62.5 -3.35 52.0 -3.35 52.0 -12.85" fill="#6f6f6f" fill-rule="evenodd" stroke="none"/>
    <path d="M70.6 -43.6 L70.6 -23.35 59.85 -23.35 59.85 -43.6 70.6 -43.6" fill="#6f6f6f" fill-rule="evenodd" stroke="none"/>
    <path d="M69.35 -11.35 L69.35 -5.85 64.1 -5.85 64.1 -11.35 69.35 -11.35" fill="#6f6f6f" fill-rule="evenodd" stroke="none"/>
    <path d="M54.6 79.15 L54.6 65.15 97.35 65.15 97.35 79.15 54.6 79.15" fill="#6f6f6f" fill-rule="evenodd" stroke="none"/>
    <path d="M34.85 92.9 L110.35 92.9 110.35 103.15 34.85 103.15 34.85 92.9" fill="#6f6f6f" fill-rule="evenodd" stroke="none"/>
    <path d="M69.9 -12.95 L80.85 -13.75 81.55 -4.25 70.6 -3.5 69.9 -12.95" fill="#6f6f6f" fill-rule="evenodd" stroke="none"/>
    <path d="M-29.2 123.7 L-29.2 135.0 -40.75 135.0 -40.75 123.7 -29.2 123.7" fill="#6f6f6f" fill-rule="evenodd" stroke="none"/>
    <path d="M-52.35 114.2 L-52.35 109.5 -15.85 109.5 -15.85 114.2 -52.35 114.2" fill="#6f6f6f" fill-rule="evenodd" stroke="none"/>
    <path d="M18.5 112.35 L25.8 112.35 25.8 167.35 3.65 167.35 3.65 158.85 18.5 158.85 18.5 112.35" fill="#6f6f6f" fill-rule="evenodd" stroke="none"/>
    <path d="M3.65 170.45 L3.65 168.75 26.15 168.75 26.15 170.45 3.65 170.45" fill="#6f6f6f" fill-rule="evenodd" stroke="none"/>
    <path d="M-39.7 139.2 L-29.0 139.2 -29.0 148.85 -39.7 148.85 -39.7 139.2" fill="#6f6f6f" fill-rule="evenodd" stroke="none"/>
    <path d="M12.3 97.0 L12.3 102.35 7.3 102.35 7.3 97.0 12.3 97.0" fill="#6f6f6f" fill-rule="evenodd" stroke="none"/>
    <path d="M28.3 60.6 L28.3 55.25 33.3 55.25 33.3 60.6 28.3 60.6" fill="#6f6f6f" fill-rule="evenodd" stroke="none"/>
    <path d="M118.8 13.5 L123.8 13.5 123.8 18.85 118.8 18.85 118.8 13.5" fill="#6f6f6f" fill-rule="evenodd" stroke="none"/>
    <path d="M18.8 -86.25 L23.8 -86.25 23.8 -80.9 18.8 -80.9 18.8 -86.25" fill="#6f6f6f" fill-rule="evenodd" stroke="none"/>
    <path d="M-13.95 -17.75 L-13.95 -12.4 -18.95 -12.4 -18.95 -17.75 -13.95 -17.75" fill="#6f6f6f" fill-rule="evenodd" stroke="none"/>
    <path d="M-105.4 71.05 L-102.5 66.6 -98.3 69.35 -101.25 73.8 -105.4 71.05" fill="#6f6f6f" fill-rule="evenodd" stroke="none"/>
    <path d="M-52.2 121.5 L-52.2 137.7 -57.2 137.7 -57.2 121.5 -52.2 121.5" fill="#6f6f6f" fill-rule="evenodd" stroke="none"/>
    <path d="M-22.6 134.95 L-22.0 124.0 -12.9 124.5 -13.45 135.4 -22.6 134.95" fill="#6f6f6f" fill-rule="evenodd" stroke="none"/>
    <path d="M59.9 31.75 L61.95 30.2 64.45 29.35 86.9 29.35 89.4 30.2 91.5 31.75 92.95 33.9 93.7 36.4 93.6 39.0 92.7 41.45 91.05 43.55 88.85 45.1 86.35 45.85 65.05 45.85 62.5 45.1 60.3 43.55 58.7 41.45 57.8 39.0 57.7 36.4 58.4 33.9 59.9 31.75" fill="#6f6f6f" fill-rule="evenodd" stroke="none"/>
    <path d="M118.2 96.85 L119.25 98.0 119.4 99.55 118.65 100.85 117.25 101.5 115.75 101.2 114.7 100.05 114.55 98.5 115.3 97.2 116.7 96.55 118.2 96.85" fill="#6f6f6f" fill-rule="evenodd" stroke="none"/>
    <path d="M-101.35 76.0 L-99.85 77.6 -99.6 79.75 -100.7 81.6 -102.75 82.5 -104.95 82.05 -106.45 80.45 -106.7 78.3 -105.6 76.45 -103.55 75.55 -101.35 76.0" fill="#6f6f6f" fill-rule="evenodd" stroke="none"/>
    <path d="M48.0 -84.55 L46.85 -84.8 46.0 -85.65 45.9 -86.75 46.5 -87.75 47.6 -88.25 48.8 -88.0 49.6 -87.15 49.75 -86.0 49.15 -85.0 48.0 -84.55" fill="#6f6f6f" fill-rule="evenodd" stroke="none"/>
    <path d="M45.15 -112.25 L46.25 -112.75 47.45 -112.5 48.25 -111.65 48.4 -110.5 47.8 -109.5 46.7 -109.05 45.5 -109.3 44.7 -110.15 44.55 -111.25 45.15 -112.25" fill="#6f6f6f" fill-rule="evenodd" stroke="none"/>
    <path d="M-15.85 -114.0 L-15.85 -130.5 -14.25 -130.5 -14.95 -131.2 -15.1 -132.6 -14.4 -133.8 -13.0 -134.4 -11.55 -134.1 -10.55 -133.1 -10.4 -131.7 -11.15 -130.5 -10.75 -130.5 -10.75 -114.0 -15.85 -114.0" fill="#6f6f6f" fill-rule="evenodd" stroke="none"/>
    <path d="M-15.05 -135.4 L-16.25 -136.6 -16.45 -138.2 -15.55 -139.65 -13.9 -140.3 -12.1 -140.0 -10.9 -138.75 -10.7 -137.15 -11.6 -135.75 -13.25 -135.05 -15.05 -135.4" fill="#6f6f6f" fill-rule="evenodd" stroke="none"/>
    <path d="M84.35 -87.15 L84.5 -86.0 83.9 -85.0 82.75 -84.55 81.6 -84.8 80.75 -85.65 80.65 -86.75 81.25 -87.75 82.35 -88.25 83.55 -88.0 84.35 -87.15" fill="#6f6f6f" fill-rule="evenodd" stroke="none"/>
    <path d="M-105.55 86.5 L-105.7 85.2 -105.0 84.1 -103.75 83.55 -102.4 83.85 -101.5 84.8 -101.35 86.1 -102.05 87.2 -103.3 87.75 -104.65 87.45 -105.55 86.5" fill="#6f6f6f" fill-rule="evenodd" stroke="none"/>
    <path d="M80.75 -64.75 L80.75 -52.5 48.5 -52.5 48.5 -20.25 36.5 -20.25 36.5 -64.75 80.75 -64.75" fill="#6f6f6f" fill-rule="evenodd" stroke="none"/>
    <path d="M80.1 -89.15 L80.1 -81.5 50.15 -81.5 50.15 -89.15 80.1 -89.15" fill="#6f6f6f" fill-rule="evenodd" stroke="none"/>
    <path d="M9.65 -110.0 L42.25 -110.0 42.25 -104.0 9.65 -104.0 9.65 -110.0" fill="#6f6f6f" fill-rule="evenodd" stroke="none"/>
    <path d="M-64.95 -127.7 L-64.95 -135.3 -32.2 -135.3 -32.2 -127.7 -64.95 -127.7" fill="#6f6f6f" fill-rule="evenodd" stroke="none"/>
    <path d="M-32.7 -170.3 L-32.7 -162.0 -64.95 -162.0 -64.95 -170.3 -32.7 -170.3" fill="#6f6f6f" fill-rule="evenodd" stroke="none"/>
    <path d="M-25.7 -134.65 L-25.7 -127.7 -30.9 -127.7 -30.9 -134.65 -25.7 -134.65" fill="#6f6f6f" fill-rule="evenodd" stroke="none"/>
    <path d="M-1.4 -219.15 L14.5 -219.15 14.5 -198.8 -1.4 -198.8 -1.4 -219.15" fill="#6f6f6f" fill-rule="evenodd" stroke="none"/>
    <path d="M-21.6 -185.3 L-21.6 -207.3 -13.55 -207.3 -13.55 -185.3 -21.6 -185.3" fill="#6f6f6f" fill-rule="evenodd" stroke="none"/>
    <path d="M-21.6 -183.3 L-19.85 -183.3 -19.85 -175.1 -21.6 -175.1 -21.6 -183.3" fill="#6f6f6f" fill-rule="evenodd" stroke="none"/>
    <path d="M-9.75 -217.15 L-9.75 -219.15 -3.9 -219.15 -3.9 -217.15 -9.75 -217.15" fill="#6f6f6f" fill-rule="evenodd" stroke="none"/>
    <path d="M-21.6 -216.2 L-18.7 -216.2 -18.7 -215.85 -16.4 -215.85 -15.4 -215.5 -14.9 -214.0 -15.4 -212.55 -16.4 -212.0 -18.7 -212.0 -18.7 -211.65 -21.6 -211.65 -21.6 -216.2" fill="#6f6f6f" fill-rule="evenodd" stroke="none"/>
    <path d="M13.65 -167.25 L13.65 -161.8 5.25 -161.8 5.25 -167.25 13.65 -167.25" fill="#6f6f6f" fill-rule="evenodd" stroke="none"/>
    <path d="M46.3 -167.25 L46.3 -161.8 37.9 -161.8 37.9 -167.25 46.3 -167.25" fill="#6f6f6f" fill-rule="evenodd" stroke="none"/>
    <path d="M98.85 -87.85 L98.15 -80.15 85.45 -81.35 86.15 -89.05 98.85 -87.85" fill="#6f6f6f" fill-rule="evenodd" stroke="none"/>
    <path d="M98.3 -42.15 L103.5 -42.15 103.5 -57.3 109.75 -57.3 109.75 -7.65 103.5 -7.65 103.5 -24.5 98.3 -24.5 98.3 -42.15" fill="#6f6f6f" fill-rule="evenodd" stroke="none"/>
    <path d="M39.65 -81.9 L38.4 -86.5 44.2 -88.0 45.45 -83.45 39.65 -81.9" fill="#6f6f6f" fill-rule="evenodd" stroke="none"/>
    <path d="M14.25 -139.0 L14.25 -167.25 36.85 -167.25 36.85 -139.0 14.25 -139.0" fill="#6f6f6f" fill-rule="evenodd" stroke="none"/>
    <path d="M18.0 -89.15 L18.0 11.75 13.25 11.75 13.25 -89.15 18.0 -89.15" fill="#6f6f6f" fill-rule="evenodd" stroke="none"/>
    <path d="M-14.0 62.0 L-14.0 99.75 -61.75 99.75 -61.75 62.0 -14.0 62.0" fill="#6f6f6f" fill-rule="evenodd" stroke="none"/>
    <path d="M-84.2 -69.5 L-84.2 -73.65 -89.5 -73.65 -89.5 -99.65 -63.7 -99.65 -63.7 -73.65 -69.2 -73.65 -69.2 -69.5 -59.5 -69.5 -59.5 2.7 -68.2 2.7 -68.2 4.2 -70.5 4.2 -76.5 6.15 -83.05 4.2 -85.5 4.2 -85.5 2.7 -94.0 2.7 -94.0 -24.0 -96.2 -24.0 -96.2 -42.0 -94.0 -42.0 -94.0 -69.5 -84.2 -69.5" fill="#6f6f6f" fill-rule="evenodd" stroke="none"/>
    <path d="M-70.5 6.5 L-83.2 6.5 -83.2 4.2 -70.5 4.2 -70.5 6.5" fill="#ffffff" fill-rule="evenodd" stroke="none"/>
  </g>
</svg>
