<?xml version="1.0" encoding="UTF-8" standalone="no"?>
<svg xmlns:ffdec="https://www.free-decompiler.com/flash" xmlns:xlink="http://www.w3.org/1999/xlink" ffdec:objectType="shape" height="13.2px" width="19.0px" xmlns="http://www.w3.org/2000/svg">
  <g transform="matrix(1.0, 0.0, 0.0, 1.0, 9.5, 6.6)">
    <path d="M-3.75 -5.3 L0.0 -5.95 3.8 -5.3 0.6 -2.15 0.45 -2.7 Q0.45 -3.45 1.1 -4.0 L0.0 -4.15 Q-1.15 -4.15 -2.05 -3.55 L-3.75 -5.3 M5.9 -4.25 Q7.65 -3.1 8.8 -1.35 L9.5 0.0 8.8 1.4 Q7.65 3.15 5.95 4.3 L3.55 2.1 Q4.15 1.15 4.15 0.0 4.15 -1.1 3.55 -2.05 L5.9 -4.25 M3.8 5.3 Q2.0 6.0 0.0 6.0 L-3.8 5.35 -2.1 3.6 Q-1.2 4.15 0.0 4.15 1.2 4.15 2.15 3.6 L3.8 5.3 M-5.9 4.3 Q-7.65 3.15 -8.8 1.4 L-9.5 0.0 -8.8 -1.35 Q-7.65 -3.1 -5.85 -4.25 L-3.55 -2.05 Q-4.15 -1.15 -4.15 0.0 -4.15 1.2 -3.55 2.1 L-5.9 4.3" fill="#ffffff" fill-rule="evenodd" stroke="none"/>
    <path d="M-3.75 -5.3 L-2.05 -3.55 0.0 -1.55 0.6 -2.15 3.8 -5.3 5.05 -6.6 6.65 -5.05 5.9 -4.25 3.55 -2.05 1.55 0.0 3.55 2.1 5.95 4.3 6.65 5.05 5.05 6.6 3.8 5.3 2.15 3.6 0.0 1.55 -2.1 3.6 -3.8 5.35 -5.05 6.6 -6.6 5.05 -5.9 4.3 -3.55 2.1 -1.55 0.0 -3.55 -2.05 -5.85 -4.25 -6.6 -5.05 -5.05 -6.6 -3.75 -5.3" fill="#292929" fill-rule="evenodd" stroke="none"/>
  </g>
</svg>
