<?xml version="1.0" encoding="UTF-8" standalone="no"?>
<svg xmlns:ffdec="https://www.free-decompiler.com/flash" xmlns:xlink="http://www.w3.org/1999/xlink" ffdec:objectType="shape" height="19.8px" width="19.7px" xmlns="http://www.w3.org/2000/svg">
  <g transform="matrix(1.0, 0.0, 0.0, 1.0, 9.85, 9.9)">
    <path d="M-3.1 2.15 Q-4.3 0.8 -4.9 0.8 -5.7 0.8 -7.75 1.55 -7.4 3.4 -6.2 4.9 -5.05 6.35 -3.4 7.15 L-3.2 7.15 -2.7 7.2 Q-1.75 7.2 -1.1 6.35 L-1.1 4.7 Q-1.55 3.85 -2.65 2.65 L-3.1 2.15 M9.85 0.0 Q9.85 4.1 6.95 7.0 4.1 9.9 0.0 9.9 -4.1 9.9 -6.95 7.0 -9.85 4.1 -9.85 0.0 -9.9 -4.1 -7.0 -7.0 -4.1 -9.9 -0.05 -9.9 4.05 -9.9 6.95 -7.0 9.8 -4.1 9.85 0.0 M6.3 4.8 Q7.35 3.35 7.7 1.6 5.65 0.8 4.8 0.8 4.1 0.8 2.65 2.45 L2.35 2.8 Q1.35 3.9 1.0 4.7 L1.0 6.35 Q1.65 7.2 2.6 7.2 L3.1 7.15 3.65 7.0 Q5.2 6.2 6.3 4.8 M7.0 -1.55 Q7.3 -1.55 7.5 -2.35 6.75 -4.8 4.7 -6.35 2.6 -7.95 -0.05 -7.95 -2.65 -7.95 -4.8 -6.35 -6.85 -4.75 -7.6 -2.3 -7.4 -1.55 -7.05 -1.55 L-5.0 -1.9 -0.05 -2.55 4.9 -1.9 7.0 -1.55" fill="#ffffff" fill-rule="evenodd" stroke="none"/>
  </g>
</svg>
