<?xml version="1.0" encoding="UTF-8" standalone="no"?>
<svg xmlns:ffdec="https://www.free-decompiler.com/flash" xmlns:xlink="http://www.w3.org/1999/xlink" ffdec:objectType="shape" height="617.0px" width="491.0px" xmlns="http://www.w3.org/2000/svg">
  <g transform="matrix(1.0, 0.0, 0.0, 1.0, 210.1, 305.3)">
    <path d="M280.9 -305.3 L280.9 311.7 -209.1 311.7 -210.1 -305.3 280.9 -305.3" fill="#434343" fill-rule="evenodd" stroke="none"/>
    <path d="M134.9 161.35 L90.9 161.35 90.9 205.35 134.9 205.35 134.9 161.35 M85.4 97.2 L85.4 88.2 76.4 88.2 76.4 97.2 85.4 97.2 M-44.75 161.35 L-88.75 161.35 -88.75 205.35 -44.75 205.35 -44.75 161.35 M-41.1 88.35 L-41.1 97.35 -32.1 97.35 -32.1 88.35 -41.1 88.35 M-41.4 -34.95 L-41.4 -25.95 -32.4 -25.95 -32.4 -34.95 -41.4 -34.95 M-44.75 -101.3 L-44.75 -145.3 -88.75 -145.3 -88.75 -101.3 -44.75 -101.3 M-40.9 -218.45 L-40.9 -209.45 -31.9 -209.45 -31.9 -218.45 -40.9 -218.45 M76.1 -35.15 L76.1 -26.15 85.1 -26.15 85.1 -35.15 76.1 -35.15 M90.9 -145.3 L90.9 -101.3 134.9 -101.3 134.9 -145.3 90.9 -145.3 M51.6 -286.65 L51.6 -275.95 78.25 -275.95 78.25 -259.3 82.9 -259.3 82.9 -233.3 78.25 -233.3 78.25 -218.65 76.6 -218.65 76.6 -209.65 85.6 -209.65 85.6 -215.3 138.55 -215.3 138.55 -211.65 155.6 -211.65 155.6 -157.7 138.55 -157.7 138.55 -149.85 155.6 -149.85 155.6 -95.9 138.55 -95.9 138.55 -88.1 155.6 -88.1 155.6 -34.15 138.55 -34.15 138.55 -26.3 219.4 -26.3 219.4 90.2 139.7 90.2 139.7 98.05 155.6 98.05 155.6 149.55 139.7 149.55 139.7 157.35 155.6 157.35 155.6 212.2 139.7 212.2 139.7 220.05 155.6 220.05 155.6 272.2 139.7 272.2 139.7 277.35 51.6 277.35 51.6 286.7 -8.4 286.7 -8.4 277.35 -95.25 277.35 -95.25 272.2 -110.4 272.2 -110.4 220.05 -95.25 220.05 -95.25 212.2 -110.4 212.2 -110.4 157.35 -95.25 157.35 -95.25 149.55 -110.4 149.55 -110.4 98.05 -95.25 98.05 -95.25 90.2 -110.4 90.2 -110.4 -27.95 -95.25 -27.95 -95.25 -35.8 -110.4 -35.8 -110.4 -88.7 -95.25 -88.7 -95.25 -96.55 -110.4 -96.55 -110.4 -149.45 -95.25 -149.45 -95.25 -157.3 -110.4 -157.3 -110.4 -207.3 -111.75 -207.3 -111.75 -210.2 -95.25 -210.2 -95.25 -218.05 -111.75 -218.05 -111.75 -270.95 -95.25 -270.95 -95.25 -275.95 -8.4 -275.95 -8.4 -286.65 51.6 -286.65" fill="#969696" fill-rule="evenodd" stroke="none"/>
    <path d="M207.25 90.2 L207.25 96.7 170.25 96.7 170.25 90.2 207.25 90.2" fill="#ffffff" fill-rule="evenodd" stroke="none"/>
    <path d="M51.6 -290.05 L51.6 -284.05 -8.4 -284.05 -8.4 -290.05 51.6 -290.05" fill="#ffffff" fill-rule="evenodd" stroke="none"/>
    <path d="M-3.6 286.7 L46.4 286.7 46.4 292.05 -3.6 292.05 -3.6 286.7" fill="#ffffff" fill-rule="evenodd" stroke="none"/>
  </g>
</svg>
