<?xml version="1.0" encoding="UTF-8" standalone="no"?>
<svg xmlns:ffdec="https://www.free-decompiler.com/flash" xmlns:xlink="http://www.w3.org/1999/xlink" ffdec:objectType="shape" height="321.6px" width="553.2px" xmlns="http://www.w3.org/2000/svg">
  <g transform="matrix(1.0, 0.0, 0.0, 1.0, 25.0, 152.95)">
    <path d="M166.15 -151.35 L188.85 -152.95 366.65 -152.95 389.3 -151.35 411.55 -146.55 432.95 -138.6 453.0 -127.7 471.4 -114.1 487.75 -98.0 501.75 -79.75 513.1 -59.65 521.65 -38.15 527.15 -15.7 528.2 8.3 527.15 31.35 521.65 53.85 513.1 75.35 501.75 95.4 487.75 113.65 471.4 129.75 453.0 143.4 432.95 154.25 411.55 162.2 389.3 167.0 366.65 168.65 188.85 168.65 166.15 167.0 143.9 162.2 122.55 154.25 102.45 143.4 84.05 129.75 67.7 113.65 53.7 95.4 42.35 75.35 32.9 50.05 -25.0 50.05 -25.0 -49.95 38.5 -49.95 53.7 -79.75 67.7 -98.0 84.05 -114.1 102.45 -127.7 122.55 -138.6 143.9 -146.55 166.15 -151.35" fill="#434343" fill-rule="evenodd" stroke="none"/>
  </g>
</svg>
