<?xml version="1.0" encoding="UTF-8" standalone="no"?>
<svg xmlns:ffdec="https://www.free-decompiler.com/flash" xmlns:xlink="http://www.w3.org/1999/xlink" ffdec:objectType="shape" height="999.15px" width="1028.55px" xmlns="http://www.w3.org/2000/svg">
  <g transform="matrix(1.0, 0.0, 0.0, 1.0, 790.9, 218.0)">
    <path d="M-616.0 60.6 L-615.95 60.6 -616.15 59.7 -28.0 -96.65 -6.2 -159.8 -18.65 -184.75 56.85 -218.0 68.0 -196.7 169.1 -159.75 165.6 -144.35 169.5 -141.9 182.95 -130.9 194.85 -118.3 205.0 -104.25 213.3 -89.0 219.6 -72.85 223.75 -56.0 225.75 -38.75 225.5 -21.4 224.65 -15.45 237.65 -12.2 196.65 101.0 129.9 131.9 3.35 85.35 -28.0 94.7 -38.6 52.05 -153.8 82.9 -164.75 41.95 -475.3 124.75 -474.65 127.05 -465.6 130.75 -453.2 137.5 -441.65 145.7 -431.1 155.15 -421.75 165.8 -413.75 177.4 -407.45 189.2 -402.0 206.5 -397.0 237.5 -396.75 252.6 -397.35 259.0 -400.3 272.85 -404.85 286.25 -410.9 299.05 -418.4 311.05 -427.2 322.1 -437.3 332.05 -441.1 335.0 -358.4 646.95 -473.6 677.8 -474.65 673.8 -650.1 720.8 -642.25 750.25 -757.5 781.15 -790.9 656.45 -499.35 581.75 -506.9 553.45 -485.05 547.55 -536.0 360.7 -557.45 355.6 -569.7 350.65 -582.1 343.85 -593.65 335.7 -604.15 326.25 -613.5 315.6 -627.5 294.5 -635.5 273.5 -638.9 250.6 -639.25 236.45 -637.9 222.35 -635.0 208.55 -630.45 195.1 -624.4 182.35 -616.9 170.35 -609.5 161.1 -594.65 146.7 -616.0 60.6" fill="#434343" fill-rule="evenodd" stroke="none"/>
    <path d="M-522.2 65.6 L-519.25 76.55 -150.9 -22.15 -153.45 -31.75 -91.65 -48.65 -85.3 -24.65 -89.95 -23.65 -83.5 0.45 -74.75 -1.6 -45.3 -9.85 -46.05 -12.75 -24.4 -18.6 -36.7 -64.2 -12.05 -55.0 -10.95 -60.1 -6.55 -72.85 -3.0 -80.0 21.7 -148.65 29.75 -152.25 22.25 -170.0 43.5 -180.25 51.7 -163.1 61.0 -167.3 134.0 -140.65 131.7 -130.3 132.5 -128.35 140.55 -124.65 152.0 -117.5 162.4 -108.95 171.65 -99.1 179.6 -88.2 186.05 -76.35 190.95 -63.75 194.2 -50.65 195.7 -37.25 195.55 -23.75 193.6 -10.4 190.0 2.6 188.45 6.3 198.15 8.75 172.7 79.0 128.0 99.7 108.7 93.35 113.0 82.5 9.35 44.7 4.9 54.65 -4.05 57.05 -17.05 8.8 -38.7 14.6 -39.35 12.2 -77.6 22.5 -75.35 30.8 -132.6 46.15 -145.25 -1.1 -513.6 97.6 -504.4 132.0 -531.7 139.35 -528.9 149.85 -519.8 149.1 -509.15 149.5 -498.6 151.1 -488.35 153.9 -478.45 157.9 -469.1 163.0 -460.4 169.15 -452.5 176.3 -445.45 184.3 -439.4 193.05 -434.4 202.45 -430.5 212.4 -427.8 222.7 -426.35 233.25 -426.1 243.9 -427.05 254.5 -429.3 264.9 -432.7 275.0 -437.25 284.65 -442.9 293.65 -449.55 302.0 -457.15 309.5 -465.55 316.05 -474.65 321.6 -482.0 324.95 -418.8 560.85 -412.95 559.3 -395.15 625.75 -452.4 641.05 -455.15 630.65 -688.55 693.2 -679.0 729.0 -736.3 744.4 -745.75 709.0 -756.3 711.85 -762.15 690.0 -751.6 687.2 -754.15 677.65 -696.85 662.3 -694.2 672.15 -460.8 609.6 -470.2 574.65 -441.25 566.9 -504.35 331.3 -504.9 331.4 -515.5 332.3 -526.15 331.9 -536.7 330.3 -546.95 327.5 -556.85 323.5 -566.2 318.4 -574.9 312.25 -582.8 305.1 -589.85 297.1 -595.9 288.35 -600.9 278.95 -604.75 269.0 -607.45 258.7 -608.95 248.15 -609.2 237.5 -608.2 226.9 -606.0 216.45 -602.6 206.4 -598.05 196.75 -592.4 187.7 -585.75 179.4 -578.15 171.9 -569.75 165.35 -560.65 159.8 -551.45 155.6 -554.2 145.35 -561.65 147.35 -579.45 80.9 -522.2 65.6" fill="#969696" fill-rule="evenodd" stroke="none"/>
    <path d="M-463.65 610.25 L-685.6 669.85 -687.6 663.25 -465.35 603.7 -463.65 610.25" fill="#707070" fill-rule="evenodd" stroke="none"/>
    <path d="M-503.5 334.75 L-444.0 556.55 -451.05 558.65 -510.6 336.4 -503.5 334.75" fill="#707070" fill-rule="evenodd" stroke="none"/>
    <path d="M-474.25 327.2 L-414.7 549.45 -421.35 551.25 -481.0 328.9 -474.25 327.2" fill="#707070" fill-rule="evenodd" stroke="none"/>
    <path d="M-456.3 637.8 L-678.25 697.3 -679.95 690.95 -458.0 631.45 -456.3 637.8" fill="#707070" fill-rule="evenodd" stroke="none"/>
    <path d="M-515.1 67.8 L-156.0 -28.45 -153.95 -21.35 -513.4 74.15 -515.1 67.8" fill="#707070" fill-rule="evenodd" stroke="none"/>
    <path d="M-507.3 95.4 L-148.7 -0.35 -146.8 6.1 -505.6 101.8 -507.3 95.4" fill="#707070" fill-rule="evenodd" stroke="none"/>
    <path d="M-37.5 19.2 L-65.6 26.5 -67.45 19.75 -39.35 12.2 -37.5 19.2" fill="#707070" fill-rule="evenodd" stroke="none"/>
    <path d="M-76.45 -8.8 L-47.05 -16.4 -45.3 -9.85 -74.75 -1.6 -76.45 -8.8" fill="#707070" fill-rule="evenodd" stroke="none"/>
    <path d="M-520.5 155.25 L-497.75 156.25 -498.25 164.75 -516.5 164.25 -518.75 166.25 -521.0 166.0 -520.5 155.25" fill="#707070" fill-rule="evenodd" stroke="none"/>
    <path d="M-728.3 677.35 L-741.45 689.45 -744.85 685.8 -731.65 673.7 -728.3 677.35" fill="#707070" fill-rule="evenodd" stroke="none"/>
    <path d="M-689.8 715.1 L-697.2 698.8 -692.65 696.75 -685.25 713.05 -689.8 715.1" fill="#707070" fill-rule="evenodd" stroke="none"/>
    <path d="M-728.1 672.5 L-712.4 667.3 -711.05 671.35 -726.75 676.55 -728.1 672.5" fill="#707070" fill-rule="evenodd" stroke="none"/>
    <path d="M-730.0 736.35 L-710.5 731.15 -709.15 736.15 -728.65 741.35 -730.0 736.35" fill="#707070" fill-rule="evenodd" stroke="none"/>
    <path d="M-739.7 711.15 L-744.9 712.5 -746.25 707.55 -741.05 706.15 -739.7 711.15" fill="#707070" fill-rule="evenodd" stroke="none"/>
    <path d="M-745.65 688.8 L-750.8 690.2 -752.15 685.2 -747.0 683.8 -745.65 688.8" fill="#707070" fill-rule="evenodd" stroke="none"/>
    <path d="M-687.9 697.45 L-693.05 698.85 -694.4 693.85 -689.25 692.5 -687.9 697.45" fill="#707070" fill-rule="evenodd" stroke="none"/>
    <path d="M-693.8 675.15 L-698.95 676.5 -700.3 671.55 -695.15 670.15 -693.8 675.15" fill="#707070" fill-rule="evenodd" stroke="none"/>
    <path d="M-680.2 728.15 L-705.15 734.85 -706.6 729.4 -681.65 722.7 -680.2 728.15" fill="#707070" fill-rule="evenodd" stroke="none"/>
    <path d="M-695.55 668.15 L-709.5 671.9 -710.95 666.45 -697.0 662.7 -695.55 668.15" fill="#707070" fill-rule="evenodd" stroke="none"/>
    <path d="M-127.95 -33.1 L-141.1 -21.0 -144.5 -24.7 -131.3 -36.8 -127.95 -33.1" fill="#707070" fill-rule="evenodd" stroke="none"/>
    <path d="M-138.4 23.3 L-141.8 7.15 -134.2 5.55 -130.8 21.7 -138.4 23.3" fill="#707070" fill-rule="evenodd" stroke="none"/>
    <path d="M-139.35 0.65 L-144.55 2.05 -145.9 -2.95 -140.7 -4.35 -139.35 0.65" fill="#707070" fill-rule="evenodd" stroke="none"/>
    <path d="M-151.8 -25.3 L-146.65 -26.65 -145.3 -21.65 -150.45 -20.3 -151.8 -25.3" fill="#707070" fill-rule="evenodd" stroke="none"/>
    <path d="M-76.95 25.1 L-82.15 26.45 -83.5 21.45 -78.3 20.1 -76.95 25.1" fill="#707070" fill-rule="evenodd" stroke="none"/>
    <path d="M-82.9 2.75 L-88.05 4.15 -89.4 -0.85 -84.25 -2.25 -82.9 2.75" fill="#707070" fill-rule="evenodd" stroke="none"/>
    <path d="M-83.75 24.4 L-99.45 36.75 -102.95 32.35 -87.25 20.0 -83.75 24.4" fill="#707070" fill-rule="evenodd" stroke="none"/>
    <path d="M-100.4 -37.45 L-105.55 -36.1 -106.85 -41.0 -101.7 -42.4 -100.4 -37.45" fill="#707070" fill-rule="evenodd" stroke="none"/>
    <path d="M-109.3 -36.8 L-117.05 -34.7 -117.85 -37.75 -110.15 -39.85 -109.3 -36.8" fill="#707070" fill-rule="evenodd" stroke="none"/>
    <path d="M-518.0 100.1 L-510.65 116.4 -515.2 118.45 -522.6 102.2 -518.0 100.1" fill="#707070" fill-rule="evenodd" stroke="none"/>
    <path d="M-560.3 77.7 L-544.6 72.5 -543.3 76.55 -558.95 81.75 -560.3 77.7" fill="#707070" fill-rule="evenodd" stroke="none"/>
    <path d="M-562.85 121.35 L-550.6 137.45 -554.75 140.55 -566.95 124.5 -562.85 121.35" fill="#707070" fill-rule="evenodd" stroke="none"/>
    <path d="M-514.6 95.85 L-513.3 100.85 -518.45 102.25 -519.8 97.25 -514.6 95.85" fill="#707070" fill-rule="evenodd" stroke="none"/>
    <path d="M-558.8 141.25 L-553.6 139.85 -552.3 144.85 -557.45 146.25 -558.8 141.25" fill="#707070" fill-rule="evenodd" stroke="none"/>
    <path d="M-531.4 134.0 L-530.05 139.0 -535.2 140.4 -536.55 135.4 -531.4 134.0" fill="#707070" fill-rule="evenodd" stroke="none"/>
    <path d="M-519.2 78.5 L-524.35 79.9 -525.7 74.9 -520.55 73.5 -519.2 78.5" fill="#707070" fill-rule="evenodd" stroke="none"/>
    <path d="M-532.0 132.75 L-507.05 126.1 -505.6 131.55 -530.55 138.25 -532.0 132.75" fill="#707070" fill-rule="evenodd" stroke="none"/>
    <path d="M-558.95 83.15 L-577.55 88.1 -579.25 81.85 -560.65 76.85 -558.95 83.15" fill="#707070" fill-rule="evenodd" stroke="none"/>
    <path d="M-577.1 89.4 L-571.75 87.95 -564.85 113.75 -570.2 115.2 -577.1 89.4" fill="#707070" fill-rule="evenodd" stroke="none"/>
    <path d="M22.6 -114.4 L13.75 -117.0 20.7 -140.6 29.5 -138.0 22.6 -114.4" fill="#707070" fill-rule="evenodd" stroke="none"/>
    <path d="M64.6 -152.7 L67.5 -161.4 90.85 -153.65 87.9 -144.9 64.6 -152.7" fill="#707070" fill-rule="evenodd" stroke="none"/>
    <path d="M95.95 -138.4 L99.35 -148.6 125.1 -140.0 121.7 -129.8 95.95 -138.4" fill="#707070" fill-rule="evenodd" stroke="none"/>
    <path d="M104.55 -91.3 L100.55 -91.7 102.4 -108.9 106.35 -108.45 104.55 -91.3" fill="#707070" fill-rule="evenodd" stroke="none"/>
    <path d="M15.8 -25.5 L15.0 -29.45 31.95 -32.85 32.75 -28.9 15.8 -25.5" fill="#707070" fill-rule="evenodd" stroke="none"/>
    <path d="M108.75 38.8 L104.9 39.9 100.15 23.3 104.0 22.2 108.75 38.8" fill="#707070" fill-rule="evenodd" stroke="none"/>
    <path d="M92.8 -53.95 L97.75 -52.65 100.05 -51.55 104.1 -48.5 107.25 -44.55 108.45 -42.25 109.9 -37.4 110.15 -34.85 109.65 -29.8 107.9 -25.05 105.0 -20.85 101.1 -17.55 98.9 -16.3 96.55 -15.35 94.05 -14.7 89.0 -14.4 86.5 -14.7 84.0 -15.35 81.65 -16.3 79.45 -17.55 75.55 -20.85 72.65 -25.05 70.9 -29.8 70.4 -34.85 70.65 -37.4 72.1 -42.25 73.3 -44.55 76.45 -48.5 80.5 -51.55 82.8 -52.65 87.75 -53.95 92.8 -53.95" fill="#434343" fill-rule="evenodd" stroke="none"/>
    <path d="M57.6 33.9 L66.6 37.55 75.95 40.0 85.6 41.25 95.3 41.25 104.9 40.0 105.7 43.95 95.55 45.25 85.35 45.25 75.2 43.95 65.3 41.35 55.85 37.5 46.95 32.5 38.75 26.4 31.4 19.25 25.05 11.3 19.75 2.55 15.6 -6.8 14.8 -9.5 18.65 -10.55 19.4 -8.2 23.3 0.7 28.35 9.0 34.4 16.6 41.35 23.35 49.15 29.15 57.6 33.9 M70.2 -111.45 L80.25 -113.4 86.5 -113.8 86.95 -109.85 80.75 -109.45 71.25 -107.6 62.05 -104.55 53.3 -100.3 45.15 -95.0 37.75 -88.75 31.25 -81.55 25.7 -73.6 21.2 -65.0 17.85 -55.9 15.7 -46.4 14.75 -36.75 15.15 -30.0 11.0 -29.45 10.75 -36.9 11.75 -47.05 14.0 -57.0 17.55 -66.6 22.25 -75.65 28.1 -84.05 34.95 -91.6 42.75 -98.25 51.3 -103.8 60.5 -108.25 70.2 -111.45 M159.7 -65.0 L155.2 -73.6 149.65 -81.55 143.15 -88.75 135.75 -95.0 127.6 -100.3 118.85 -104.55 109.65 -107.6 104.75 -108.55 104.65 -112.65 110.65 -111.45 120.35 -108.25 129.55 -103.8 138.15 -98.25 145.9 -91.6 152.8 -84.05 158.65 -75.65 163.35 -66.6 166.9 -57.0 169.15 -47.05 170.15 -36.9 169.8 -26.65 168.2 -16.6 165.3 -6.8 161.15 2.55 155.85 11.3 149.45 19.25 142.15 26.4 133.95 32.5 125.05 37.5 123.3 33.9 131.75 29.15 139.55 23.35 146.5 16.6 152.55 9.0 157.6 0.7 161.5 -8.2 164.25 -17.5 165.85 -27.05 166.15 -36.75 165.2 -46.4 163.05 -55.9 159.7 -65.0" fill="#434343" fill-rule="evenodd" stroke="none"/>
    <path d="M171.6 44.05 L173.05 45.0 175.5 47.4 176.5 48.8 177.9 51.95 178.3 53.65 178.4 57.05 177.65 60.4 176.95 62.0 176.05 63.45 173.75 66.0 172.35 67.05 169.25 68.5 165.9 69.2 164.15 69.2 160.8 68.5 157.7 67.05 156.3 66.0 154.0 63.45 153.1 62.0 152.4 60.4 151.65 57.05 151.75 53.65 152.15 51.95 153.55 48.8 155.7 46.15 157.0 45.0 158.45 44.05 161.6 42.8 163.3 42.45 166.75 42.45 168.45 42.8 171.6 44.05" fill="#434343" fill-rule="evenodd" stroke="none"/>
    <path d="M186.5 25.5 L186.9 27.35 186.75 29.2 186.0 30.95 184.75 32.35 183.1 33.35 181.3 33.75 179.4 33.55 177.65 32.85 176.25 31.6 175.3 29.95 174.85 28.15 175.05 26.25 175.75 24.5 177.0 23.1 178.65 22.1 180.5 21.7 182.35 21.9 184.1 22.6 185.5 23.85 186.5 25.5" fill="#434343" fill-rule="evenodd" stroke="none"/>
    <path d="M173.55 33.25 L174.0 33.65 174.3 34.15 174.45 34.75 174.4 35.35 174.15 35.85 173.75 36.3 173.25 36.65 172.7 36.75 172.1 36.7 171.55 36.45 171.1 36.1 170.8 35.55 170.65 35.0 170.7 34.4 170.95 33.85 171.35 33.4 171.85 33.1 172.4 32.95 173.0 33.05 173.55 33.25" fill="#434343" fill-rule="evenodd" stroke="none"/>
    <path d="M125.55 -131.0 L125.7 -130.4 125.65 -129.85 125.4 -129.3 125.0 -128.85 124.5 -128.55 123.9 -128.4 123.35 -128.45 122.8 -128.7 122.35 -129.1 122.05 -129.6 121.9 -130.15 121.95 -130.75 122.2 -131.3 122.6 -131.75 123.1 -132.05 123.65 -132.2 124.25 -132.15 124.8 -131.9 125.25 -131.5 125.55 -131.0" fill="#434343" fill-rule="evenodd" stroke="none"/>
    <path d="M128.8 -140.6 L128.95 -140.0 128.9 -139.4 128.65 -138.85 128.25 -138.4 127.75 -138.1 127.15 -138.0 126.6 -138.05 126.05 -138.3 125.6 -138.65 125.3 -139.2 125.15 -139.75 125.2 -140.35 125.45 -140.9 125.85 -141.35 126.35 -141.65 126.9 -141.75 127.5 -141.7 128.05 -141.5 128.5 -141.1 128.8 -140.6" fill="#434343" fill-rule="evenodd" stroke="none"/>
    <path d="M98.0 -152.0 L98.6 -151.95 99.15 -151.75 99.6 -151.35 99.9 -150.85 100.0 -150.25 99.95 -149.65 99.75 -149.1 99.35 -148.65 98.85 -148.35 98.25 -148.25 97.65 -148.3 97.1 -148.55 96.65 -148.9 96.35 -149.45 96.25 -150.0 96.3 -150.6 96.5 -151.15 96.9 -151.6 97.4 -151.9 98.0 -152.0" fill="#434343" fill-rule="evenodd" stroke="none"/>
    <path d="M93.4 -142.4 L93.9 -142.75 94.5 -142.85 95.1 -142.8 95.65 -142.55 96.1 -142.2 96.4 -141.65 96.5 -141.1 96.45 -140.5 96.25 -139.95 95.85 -139.5 95.35 -139.2 94.75 -139.05 94.15 -139.15 93.6 -139.35 93.15 -139.75 92.85 -140.25 92.75 -140.85 92.8 -141.45 93.0 -142.0 93.4 -142.4" fill="#434343" fill-rule="evenodd" stroke="none"/>
    <path d="M91.4 -143.6 L91.5 -143.0 91.45 -142.4 91.25 -141.85 90.85 -141.4 90.35 -141.1 89.75 -141.0 89.15 -141.05 88.6 -141.3 88.15 -141.65 87.85 -142.2 87.75 -142.75 87.8 -143.35 88.0 -143.9 88.4 -144.35 88.9 -144.65 89.5 -144.75 90.1 -144.7 90.65 -144.5 91.1 -144.1 91.4 -143.6" fill="#434343" fill-rule="evenodd" stroke="none"/>
    <path d="M93.15 -153.75 L93.75 -153.7 94.3 -153.5 94.75 -153.1 95.05 -152.6 95.2 -152.0 95.15 -151.4 94.9 -150.85 94.5 -150.4 94.0 -150.1 93.4 -150.0 92.85 -150.05 92.3 -150.3 91.85 -150.65 91.55 -151.2 91.4 -151.75 91.45 -152.35 91.7 -152.9 92.1 -153.35 92.6 -153.65 93.15 -153.75" fill="#434343" fill-rule="evenodd" stroke="none"/>
    <path d="M62.95 -163.5 L63.35 -163.95 63.85 -164.25 64.4 -164.4 65.0 -164.35 65.55 -164.1 66.0 -163.7 66.3 -163.2 66.45 -162.65 66.4 -162.05 66.15 -161.5 65.75 -161.05 65.25 -160.75 64.65 -160.6 64.1 -160.65 63.55 -160.9 63.1 -161.3 62.8 -161.8 62.65 -162.4 62.7 -162.95 62.95 -163.5" fill="#434343" fill-rule="evenodd" stroke="none"/>
    <path d="M59.7 -154.85 L60.2 -155.15 60.8 -155.25 61.4 -155.2 61.95 -155.0 62.4 -154.6 62.7 -154.1 62.8 -153.5 62.75 -152.9 62.55 -152.35 62.15 -151.9 61.65 -151.6 61.05 -151.5 60.45 -151.55 Q60.2 -151.65 59.9 -151.8 L59.45 -152.15 59.15 -152.7 59.05 -153.25 59.1 -153.85 59.3 -154.4 59.7 -154.85" fill="#434343" fill-rule="evenodd" stroke="none"/>
    <path d="M33.25 -138.25 L32.65 -138.1 32.1 -138.15 31.55 -138.4 31.1 -138.8 30.8 -139.3 30.65 -139.9 30.7 -140.45 30.95 -141.0 31.35 -141.45 31.85 -141.75 32.4 -141.9 33.0 -141.85 33.55 -141.6 34.0 -141.2 34.3 -140.7 34.45 -140.15 34.4 -139.55 34.15 -139.0 33.75 -138.55 33.25 -138.25" fill="#434343" fill-rule="evenodd" stroke="none"/>
    <path d="M22.6 -145.25 L23.15 -145.4 23.75 -145.35 24.3 -145.1 24.75 -144.7 25.05 -144.2 25.2 -143.65 25.15 -143.05 24.9 -142.5 24.5 -142.05 24.0 -141.75 23.4 -141.6 22.85 -141.65 22.3 -141.9 21.85 -142.3 21.55 -142.8 21.4 -143.4 21.45 -143.95 21.7 -144.5 22.1 -144.95 22.6 -145.25" fill="#434343" fill-rule="evenodd" stroke="none"/>
    <path d="M11.95 -116.25 L12.55 -116.4 13.15 -116.35 Q13.45 -116.2 13.7 -116.1 L14.15 -115.7 14.45 -115.2 14.55 -114.65 14.5 -114.05 14.3 -113.5 13.9 -113.05 13.4 -112.75 12.8 -112.6 12.2 -112.65 11.65 -112.9 11.2 -113.3 10.9 -113.8 10.8 -114.4 10.85 -114.95 11.05 -115.5 11.45 -115.95 11.95 -116.25" fill="#434343" fill-rule="evenodd" stroke="none"/>
    <path d="M22.25 -112.85 L22.8 -112.6 23.25 -112.2 23.55 -111.7 23.7 -111.15 23.65 -110.55 23.4 -110.0 23.0 -109.55 22.5 -109.25 21.9 -109.1 21.35 -109.15 20.8 -109.4 20.35 -109.8 20.05 -110.3 19.9 -110.9 19.95 -111.45 20.2 -112.0 20.6 -112.45 21.1 -112.75 21.65 -112.9 22.25 -112.85" fill="#434343" fill-rule="evenodd" stroke="none"/>
    <path d="M-543.1 272.85 L-542.45 272.45 -541.75 272.3 -541.0 272.35 -540.3 272.65 -539.75 273.15 -539.35 273.75 -539.2 274.5 -539.25 275.25 -539.55 275.9 -540.05 276.45 -540.7 276.85 -541.4 277.0 -542.15 276.95 -542.85 276.65 -543.4 276.15 -543.75 275.55 -543.95 274.8 -543.85 274.05 -543.55 273.4 -543.1 272.85" fill="#434343" fill-rule="evenodd" stroke="none"/>
    <path d="M-518.0 238.5 L-517.3 238.8 -516.75 239.3 -516.35 239.95 -516.2 240.65 -516.25 241.4 -516.55 242.1 -517.05 242.65 -517.7 243.0 -518.4 243.2 -519.15 243.1 -519.85 242.8 -520.4 242.35 -520.75 241.7 -520.95 241.0 -520.85 240.25 -520.55 239.55 -520.1 239.0 -519.45 238.6 -518.75 238.45 -518.0 238.5" fill="#434343" fill-rule="evenodd" stroke="none"/>
    <path d="M-537.35 280.5 L-537.4 281.2 -537.7 281.9 -538.2 282.45 -538.85 282.85 -539.55 283.0 -540.3 282.95 -540.95 282.65 -541.5 282.15 -541.9 281.5 -542.05 280.8 -542.0 280.05 -541.7 279.4 -541.2 278.8 -540.6 278.45 -539.85 278.3 -539.1 278.35 -538.45 278.65 -537.9 279.15 -537.5 279.75 -537.35 280.5" fill="#434343" fill-rule="evenodd" stroke="none"/>
    <path d="M-540.7 285.55 L-540.45 284.9 -539.95 284.3 -539.3 283.95 -538.6 283.8 -537.85 283.85 -537.15 284.15 -536.6 284.6 -536.25 285.25 -536.05 286.0 -536.15 286.7 -536.4 287.4 -536.9 287.95 -537.55 288.35 -538.25 288.5 -539.0 288.45 -539.7 288.15 -540.25 287.65 -540.65 287.0 -540.8 286.3 -540.7 285.55" fill="#434343" fill-rule="evenodd" stroke="none"/>
    <path d="M-538.3 290.6 L-537.65 290.2 -536.9 290.05 -536.2 290.15 -535.5 290.4 -534.95 290.9 -534.55 291.55 -534.4 292.25 -534.45 293.0 -534.75 293.7 -535.25 294.25 -535.9 294.6 -536.6 294.8 -537.35 294.7 -538.0 294.4 -538.6 293.95 -538.95 293.3 -539.1 292.6 -539.05 291.85 -538.75 291.15 -538.3 290.6" fill="#434343" fill-rule="evenodd" stroke="none"/>
    <path d="M181.8 36.2 L182.4 36.3 182.95 36.5 183.4 36.9 183.7 37.4 183.8 38.0 183.75 38.6 183.55 39.1 183.15 39.55 182.65 39.9 182.05 40.0 181.45 39.95 180.9 39.7 180.45 39.35 180.15 38.8 180.05 38.25 180.1 37.65 180.3 37.1 180.7 36.65 181.2 36.35 181.8 36.2" fill="#434343" fill-rule="evenodd" stroke="none"/>
    <path d="M178.7 36.2 L178.75 36.5 178.7 36.85 178.6 37.15 178.1 37.6 177.75 37.65 177.4 37.65 177.1 37.5 176.85 37.3 176.7 37.0 176.6 36.65 176.65 36.35 176.8 36.0 177.0 35.75 177.3 35.6 177.6 35.55 177.95 35.55 178.25 35.7 178.5 35.9 178.7 36.2" fill="#434343" fill-rule="evenodd" stroke="none"/>
    <path d="M184.5 4.9 L184.8 5.4 184.95 6.0 184.9 6.6 184.65 7.1 184.25 7.55 183.75 7.9 183.2 8.0 182.6 7.95 182.05 7.7 181.6 7.35 181.3 6.8 181.15 6.25 181.2 5.65 181.45 5.1 181.85 4.65 182.35 4.35 182.9 4.2 183.5 4.3 184.05 4.5 184.5 4.9" fill="#434343" fill-rule="evenodd" stroke="none"/>
    <path d="M193.9 8.15 L194.2 8.65 194.3 9.25 194.25 9.85 194.05 10.35 193.65 10.8 193.15 11.15 192.55 11.25 191.95 11.2 191.4 10.95 190.95 10.6 190.65 10.05 190.55 9.5 190.6 8.9 190.8 8.35 191.2 7.9 191.7 7.6 192.3 7.45 192.9 7.55 193.45 7.75 193.9 8.15" fill="#434343" fill-rule="evenodd" stroke="none"/>
    <path d="M187.05 7.5 L187.25 7.25 187.55 7.1 187.85 7.05 188.2 7.05 188.5 7.2 188.75 7.4 188.95 7.7 189.0 8.0 188.95 8.35 188.85 8.65 188.35 9.1 188.0 9.15 187.65 9.15 187.35 9.0 187.1 8.8 186.95 8.5 186.85 8.15 186.9 7.85 187.05 7.5" fill="#434343" fill-rule="evenodd" stroke="none"/>
    <path d="M-424.2 228.95 L-454.75 237.2 -455.8 233.35 -425.25 225.1 -424.2 228.95" fill="#434343" fill-rule="evenodd" stroke="none"/>
    <path d="M-469.1 241.1 L-609.2 278.95 -610.25 275.1 -470.15 237.25 -469.1 241.1" fill="#434343" fill-rule="evenodd" stroke="none"/>
    <path d="M-534.35 310.5 L-527.05 337.75 -530.9 338.8 -538.2 311.55 -534.35 310.5" fill="#434343" fill-rule="evenodd" stroke="none"/>
    <path d="M-558.85 218.95 L-538.55 294.75 -542.4 295.8 -562.7 220.0 -558.85 218.95" fill="#434343" fill-rule="evenodd" stroke="none"/>
    <path d="M-573.55 164.0 L-562.75 204.3 -566.6 205.35 -577.4 165.05 -573.55 164.0" fill="#434343" fill-rule="evenodd" stroke="none"/>
    <path d="M-489.3 277.2 L-515.75 284.95 -516.85 281.1 -490.4 273.35 -489.3 277.2" fill="#434343" fill-rule="evenodd" stroke="none"/>
    <path d="M-526.05 280.8 L-524.15 290.25 -528.05 291.05 -529.15 285.75 -534.0 286.95 -534.95 283.1 -526.05 280.8" fill="#434343" fill-rule="evenodd" stroke="none"/>
    <path d="M-537.15 276.95 L-538.05 273.1 -533.45 271.95 -532.5 275.85 -537.15 276.95" fill="#434343" fill-rule="evenodd" stroke="none"/>
    <path d="M-491.1 196.2 L-492.3 191.35 -486.45 189.95 -485.25 194.8 -491.1 196.2" fill="#434343" fill-rule="evenodd" stroke="none"/>
    <path d="M25.25 -169.25 L42.4 -177.6 50.9 -159.85 33.15 -151.5 25.25 -169.25" fill="#ffffff" fill-rule="evenodd" stroke="none"/>
    <path d="M-522.7 330.05 L-525.1 322.05 -515.95 319.3 -513.55 327.25 -522.7 330.05" fill="#ffffff" fill-rule="evenodd" stroke="none"/>
  </g>
</svg>
