<?xml version="1.0" encoding="UTF-8" standalone="no"?>
<svg xmlns:ffdec="https://www.free-decompiler.com/flash" xmlns:xlink="http://www.w3.org/1999/xlink" ffdec:objectType="shape" height="13.6px" width="13.55px" xmlns="http://www.w3.org/2000/svg">
  <g transform="matrix(1.0, 0.0, 0.0, 1.0, -10.35, -4.0)">
    <path d="M17.45 8.65 L17.15 8.5 Q16.95 8.5 16.8 8.65 L16.7 8.95 16.7 15.3 16.8 15.6 17.15 15.75 17.45 15.6 17.6 15.3 17.6 8.95 17.45 8.65 M14.4 8.55 L14.1 8.65 13.95 8.95 13.95 15.35 14.1 15.65 14.4 15.8 14.7 15.65 14.85 15.35 14.85 8.95 14.7 8.65 14.4 8.55 M18.55 5.8 L15.8 5.8 15.3 5.9 Q14.85 6.1 14.85 6.65 L19.4 6.65 Q19.4 6.15 18.95 5.9 L18.55 5.8 M20.3 15.35 L20.3 9.0 20.15 8.7 19.85 8.6 19.55 8.7 19.4 9.0 19.4 15.35 19.55 15.65 Q19.65 15.8 19.85 15.8 L20.15 15.65 20.3 15.35 M20.3 4.85 L20.3 6.65 23.0 6.65 Q23.6 6.65 23.8 7.05 L23.9 7.65 Q23.9 8.5 23.0 8.5 L22.05 8.5 22.05 15.8 Q22.05 16.85 21.15 17.35 L20.55 17.55 20.3 17.6 13.95 17.6 Q12.85 17.6 12.4 16.65 L12.15 16.05 12.2 8.5 11.1 8.5 Q10.6 8.5 10.4 8.15 L10.35 7.65 10.4 7.05 Q10.55 6.65 11.1 6.65 L13.95 6.65 13.95 4.85 Q13.95 4.3 14.45 4.1 L14.9 4.0 19.4 4.0 Q19.95 4.0 20.2 4.4 L20.3 4.85" fill="#292929" fill-rule="evenodd" stroke="none"/>
  </g>
</svg>
