<?xml version="1.0" encoding="UTF-8" standalone="no"?>
<svg xmlns:ffdec="https://www.free-decompiler.com/flash" xmlns:xlink="http://www.w3.org/1999/xlink" ffdec:objectType="shape" height="23.0px" width="4.6px" xmlns="http://www.w3.org/2000/svg">
  <g transform="matrix(1.0, 0.0, 0.0, 1.0, 2.3, 16.75)">
    <path d="M1.15 -2.0 L1.65 -1.65 Q2.3 -1.0 2.3 0.0 2.3 1.0 1.65 1.65 L1.3 1.95 1.4 5.85 1.35 6.05 1.2 6.2 1.0 6.25 -0.95 6.25 -1.15 6.2 -1.3 6.05 -1.35 5.85 -1.2 2.0 -1.6 1.65 -1.65 1.65 Q-2.3 1.0 -2.3 0.0 -2.3 -1.0 -1.65 -1.65 L-1.1 -2.0 -0.65 -16.35 -0.55 -16.6 -0.5 -16.65 -0.25 -16.75 0.25 -16.75 0.55 -16.65 0.55 -16.6 0.65 -16.35 1.15 -2.0" fill="#000000" fill-opacity="0.49803922" fill-rule="evenodd" stroke="none"/>
    <path d="M1.5 -1.5 Q2.1 -0.9 2.1 0.0 2.1 0.9 1.5 1.5 L1.1 1.85 1.2 5.85 1.2 5.95 1.1 6.05 1.0 6.05 -0.95 6.05 -1.05 6.05 -1.1 5.95 -1.15 5.85 -1.0 1.85 -1.5 1.5 Q-2.1 0.9 -2.1 0.0 -2.1 -0.9 -1.5 -1.5 L-0.9 -1.9 -0.45 -16.35 -0.4 -16.5 -0.25 -16.55 0.25 -16.55 0.4 -16.5 0.45 -16.35 0.95 -1.85 1.5 -1.5" fill="#af591b" fill-rule="evenodd" stroke="none"/>
    <path d="M-0.25 -16.35 L0.25 -16.35 1.0 5.85 -0.95 5.85 -0.25 -16.35" fill="#dc8619" fill-rule="evenodd" stroke="none"/>
    <path d="M1.35 -1.35 Q1.9 -0.8 1.9 0.0 1.9 0.8 1.35 1.35 0.8 1.9 0.0 1.9 -0.8 1.9 -1.35 1.35 -1.9 0.8 -1.9 0.0 -1.9 -0.8 -1.35 -1.35 -0.8 -1.9 0.0 -1.9 0.8 -1.9 1.35 -1.35" fill="#dc8619" fill-rule="evenodd" stroke="none"/>
  </g>
</svg>
