<?xml version="1.0" encoding="UTF-8" standalone="no"?>
<svg xmlns:ffdec="https://www.free-decompiler.com/flash" xmlns:xlink="http://www.w3.org/1999/xlink" ffdec:objectType="shape" height="2.65px" width="5.0px" xmlns="http://www.w3.org/2000/svg">
  <g transform="matrix(1.0, 0.0, 0.0, 1.0, 0.0, 0.0)">
    <path d="M0.9 2.05 L1.0 2.3 0.15 2.65 0.05 2.4 0.9 2.05 M1.0 0.35 L0.9 0.55 0.05 0.2 0.15 0.0 1.0 0.35 M0.9 1.15 L0.9 1.4 0.0 1.4 0.0 1.15 0.9 1.15 M1.35 0.25 L1.4 0.25 2.05 0.55 2.35 1.3 2.05 2.0 1.4 2.35 1.35 2.35 1.3 2.3 Q1.1 2.15 1.1 1.3 L1.3 0.3 1.35 0.25 M1.9 0.75 Q1.75 0.55 1.45 0.5 L1.35 1.3 1.45 2.1 1.9 1.8 2.1 1.3 1.9 0.75 M4.8 2.65 L4.0 2.3 4.05 2.05 4.9 2.4 4.8 2.65 M3.05 0.8 L2.85 1.3 3.05 1.85 3.5 2.1 3.65 1.3 3.55 0.5 Q3.25 0.55 3.05 0.8 M3.55 0.3 L3.65 0.3 Q3.85 0.5 3.85 1.3 L3.7 2.3 3.65 2.35 3.55 2.35 Q3.15 2.35 2.9 2.05 2.6 1.75 2.6 1.3 2.6 0.9 2.9 0.6 3.15 0.3 3.55 0.3 M5.0 1.2 L5.0 1.45 4.05 1.45 4.05 1.2 5.0 1.2 M4.8 0.0 L4.9 0.2 4.05 0.55 4.0 0.35 4.8 0.0" fill="#70bf50" fill-rule="evenodd" stroke="none"/>
  </g>
</svg>
