<?xml version="1.0" encoding="UTF-8" standalone="no"?>
<svg xmlns:ffdec="https://www.free-decompiler.com/flash" xmlns:xlink="http://www.w3.org/1999/xlink" ffdec:objectType="shape" height="132.05px" width="423.5px" xmlns="http://www.w3.org/2000/svg">
  <g transform="matrix(1.0, 0.0, 0.0, 1.0, -2.25, 0.0)">
    <path d="M345.0 71.65 L344.55 74.45 343.9 74.95 343.5 74.45 344.0 71.65 344.6 71.1 345.0 71.65 M340.85 71.65 L340.35 74.45 339.75 74.95 339.35 74.45 339.85 71.65 340.45 71.1 340.85 71.65 M344.05 70.45 L344.45 70.95 343.85 71.5 341.05 71.5 340.6 70.95 341.25 70.45 344.05 70.45 M343.85 75.25 L344.3 75.75 343.6 79.7 343.0 80.2 342.55 79.7 343.25 75.75 343.85 75.25 M343.75 75.15 L343.15 75.65 340.3 75.65 339.9 75.15 340.5 74.6 343.3 74.6 343.75 75.15 M340.15 75.75 L339.45 79.7 338.85 80.2 338.4 79.7 339.1 75.75 339.7 75.25 340.15 75.75 M342.4 79.8 L342.8 80.35 342.2 80.85 339.4 80.85 338.95 80.35 339.6 79.8 342.4 79.8 M373.0 93.35 L373.65 92.85 376.45 92.85 376.85 93.35 376.25 93.9 373.45 93.9 373.0 93.35 M372.85 93.5 L373.25 94.05 372.75 96.85 372.15 97.35 371.75 96.85 372.25 94.05 372.85 93.5 M372.3 97.55 L372.9 97.0 375.7 97.0 376.15 97.55 375.55 98.05 372.7 98.05 372.3 97.55 M377.0 93.5 L377.4 94.05 376.95 96.85 376.3 97.35 375.9 96.85 376.4 94.05 377.0 93.5 M376.25 97.65 L376.7 98.15 376.0 102.1 375.4 102.6 374.95 102.1 375.65 98.15 376.25 97.65 M385.3 122.15 L384.7 125.65 384.05 126.2 383.65 125.65 384.25 122.15 384.85 121.65 385.3 122.15 M387.9 122.15 L388.55 121.65 391.35 121.65 391.75 122.15 391.15 122.7 388.35 122.7 387.9 122.15 M388.15 122.85 L387.65 125.65 387.05 126.15 386.65 125.65 387.15 122.85 387.75 122.3 388.15 122.85 M391.9 122.3 L392.3 122.85 391.85 125.65 391.2 126.15 390.8 125.65 391.3 122.85 391.9 122.3 M374.8 102.2 L375.2 102.75 374.6 103.25 371.8 103.25 371.35 102.75 372.0 102.2 374.8 102.2 M384.0 126.45 L384.45 126.95 383.65 131.55 383.05 132.05 382.6 131.55 383.4 126.95 384.0 126.45 M391.15 126.45 L391.6 126.95 390.9 130.9 390.3 131.4 389.85 130.9 390.55 126.95 391.15 126.45 M387.0 126.45 L387.45 126.95 386.75 130.9 386.15 131.4 385.7 130.9 386.4 126.95 387.0 126.45 M386.25 131.55 L386.9 131.0 389.7 131.0 390.1 131.55 389.5 132.05 386.7 132.05 386.25 131.55 M259.55 38.75 L258.95 39.3 256.15 39.3 255.7 38.75 256.35 38.25 259.15 38.25 259.55 38.75 M258.85 42.95 L258.25 43.45 255.4 43.45 255.0 42.95 255.6 42.4 258.4 42.4 258.85 42.95 M255.55 38.9 L255.95 39.45 255.45 42.25 254.85 42.75 254.45 42.25 254.95 39.45 255.55 38.9 M253.95 48.0 L253.5 47.5 254.2 43.55 254.8 43.05 255.25 43.55 254.55 47.5 253.95 48.0 M254.05 48.15 L254.7 47.6 257.5 47.6 257.9 48.15 257.3 48.65 254.5 48.65 254.05 48.15 M257.65 47.5 L258.35 43.55 258.95 43.05 259.4 43.55 258.7 47.5 258.1 48.0 257.65 47.5 M302.55 52.25 L301.95 52.8 298.45 52.8 298.05 52.25 298.65 51.75 302.15 51.75 302.55 52.25 M302.7 52.4 L303.1 52.95 302.65 55.75 302.0 56.25 301.6 55.75 302.1 52.95 302.7 52.4 M301.6 61.65 L301.0 62.15 300.55 61.65 301.35 57.05 301.95 56.55 302.4 57.05 301.6 61.65 M216.8 33.2 L216.2 33.75 212.7 33.75 212.25 33.2 212.9 32.7 216.35 32.7 216.8 33.2 M211.5 33.9 L212.1 33.35 212.5 33.9 212.0 36.7 211.4 37.2 211.0 36.7 211.5 33.9 M211.55 37.4 L212.15 36.85 214.95 36.85 215.4 37.4 214.8 37.9 211.95 37.9 211.55 37.4 M209.95 42.6 L210.55 42.05 214.05 42.05 214.45 42.6 213.85 43.1 210.35 43.1 209.95 42.6 M215.95 38.0 L215.25 41.95 214.65 42.45 214.2 41.95 214.9 38.0 215.5 37.5 215.95 38.0 M169.75 42.95 L170.35 42.4 173.15 42.4 173.6 42.95 173.0 43.45 170.15 43.45 169.75 42.95 M169.6 42.75 L169.2 42.25 169.8 38.75 170.4 38.25 170.85 38.75 170.2 42.25 169.6 42.75 M173.75 42.75 L173.35 42.25 173.95 38.75 174.55 38.25 175.0 38.75 174.4 42.25 173.75 42.75 M173.1 43.55 L173.7 43.05 174.15 43.55 173.35 48.15 172.75 48.65 172.3 48.15 173.1 43.55 M89.8 70.95 L89.2 71.5 85.7 71.5 85.3 70.95 85.9 70.45 89.4 70.45 89.8 70.95 M89.95 71.1 L90.35 71.65 89.9 74.45 89.25 74.95 88.85 74.45 89.35 71.65 89.95 71.1 M88.4 79.8 L88.85 80.35 88.25 80.85 84.75 80.85 84.3 80.35 84.95 79.8 88.4 79.8 M88.5 75.65 L85.65 75.65 85.25 75.15 85.85 74.6 88.65 74.6 89.1 75.15 88.5 75.65 M85.5 75.75 L84.8 79.7 84.2 80.2 83.75 79.7 84.45 75.75 85.05 75.25 85.5 75.75 M132.2 57.05 L131.5 61.0 130.9 61.5 130.45 61.0 131.15 57.05 131.75 56.55 132.2 57.05 M132.5 52.4 L132.9 52.95 132.45 55.75 131.8 56.25 131.4 55.75 131.9 52.95 132.5 52.4 M132.35 52.25 L131.75 52.8 128.25 52.8 127.85 52.25 128.45 51.75 131.95 51.75 132.35 52.25 M127.8 56.45 L128.4 55.9 131.2 55.9 131.65 56.45 131.05 56.95 128.2 56.95 127.8 56.45 M130.3 61.1 L130.7 61.65 130.1 62.15 126.6 62.15 126.2 61.65 126.8 61.1 130.3 61.1 M54.65 97.65 L55.1 98.15 54.3 102.75 53.7 103.25 53.25 102.75 54.05 98.15 54.65 97.65 M54.7 97.4 L54.3 96.85 54.9 93.35 55.5 92.85 55.95 93.35 55.35 96.85 54.7 97.4 M35.3 122.3 L35.7 122.85 35.2 125.65 34.6 126.15 34.2 125.65 34.7 122.85 35.3 122.3 M39.85 122.85 L39.4 125.65 38.75 126.15 38.35 125.65 38.85 122.85 39.45 122.3 39.85 122.85 M38.9 121.65 L39.3 122.15 38.7 122.7 35.9 122.7 35.45 122.15 36.1 121.65 38.9 121.65 M38.7 126.45 L39.15 126.95 38.45 130.9 37.85 131.4 37.4 130.9 38.1 126.95 38.7 126.45 M34.55 126.45 L35.0 126.95 34.3 130.9 33.7 131.4 33.25 130.9 33.95 126.95 34.55 126.45 M34.25 132.05 L33.8 131.55 34.45 131.0 37.25 131.0 37.65 131.55 37.05 132.05 34.25 132.05" fill="#333333" fill-rule="evenodd" stroke="none"/>
    <path d="M361.85 44.05 L347.8 68.05 345.15 66.5 358.9 42.35 361.85 44.05 M379.45 89.05 L397.55 67.95 400.5 70.6 381.3 90.75 379.45 89.05 M397.8 123.0 L425.1 117.7 425.75 121.4 398.3 125.75 397.8 123.0 M315.75 22.7 L305.8 48.65 302.85 47.5 312.65 21.5 315.75 22.7 M267.7 7.25 L261.3 34.25 258.3 33.6 264.35 6.5 267.7 7.25 M213.65 0.0 L216.8 0.05 215.95 27.85 213.2 27.8 213.05 0.0 213.65 0.0 M171.05 33.05 L168.0 33.75 161.9 6.65 165.2 5.9 171.05 33.05 M123.75 47.8 L113.5 21.95 116.6 20.75 126.7 46.65 123.75 47.8 M81.05 67.55 L67.9 43.05 70.9 41.45 83.8 66.05 81.05 67.55 M27.0 71.0 L47.0 90.3 45.25 92.2 24.4 73.85 27.0 71.0 M3.1 115.45 L30.05 122.2 29.45 124.9 2.25 119.05 3.1 115.45" fill="#333333" fill-rule="evenodd" stroke="none"/>
  </g>
</svg>
