<?xml version="1.0" encoding="UTF-8" standalone="no"?>
<svg xmlns:ffdec="https://www.free-decompiler.com/flash" xmlns:xlink="http://www.w3.org/1999/xlink" ffdec:objectType="shape" height="53.9px" width="44.75px" xmlns="http://www.w3.org/2000/svg">
  <g transform="matrix(1.0, 0.0, 0.0, 1.0, -2.25, -71.0)">
    <path d="M23.15 75.3 L44.4 93.2 42.75 95.3 20.7 78.3 23.15 75.3 M13.35 89.4 L37.6 103.05 36.3 105.45 11.55 92.75 13.35 89.4 M16.3 84.55 L39.65 99.6 38.25 101.9 14.3 87.8 16.3 84.55 M17.35 82.95 L19.55 79.85 41.95 96.3 40.4 98.5 17.35 82.95 M10.7 94.45 L35.7 106.65 34.55 109.15 9.15 97.85 10.7 94.45 M27.0 71.0 L47.0 90.3 45.25 92.2 24.4 73.85 27.0 71.0 M33.0 112.9 L7.0 103.05 8.4 99.55 34.0 110.4 33.0 112.9 M30.4 120.85 L3.55 113.65 4.55 110.1 31.15 118.2 30.4 120.85 M31.6 116.85 L5.1 108.3 6.35 104.8 32.5 114.2 31.6 116.85 M3.1 115.45 L30.05 122.2 29.45 124.9 2.25 119.05 3.1 115.45" fill="#4d4b4b" fill-rule="evenodd" stroke="none"/>
  </g>
</svg>
