<?xml version="1.0" encoding="UTF-8" standalone="no"?>
<svg xmlns:ffdec="https://www.free-decompiler.com/flash" xmlns:xlink="http://www.w3.org/1999/xlink" ffdec:objectType="shape" height="90.2px" width="94.15px" xmlns="http://www.w3.org/2000/svg">
  <g transform="matrix(1.0, 0.0, 0.0, 1.0, -2.25, -34.7)">
    <path d="M84.35 34.7 L96.4 59.75 93.55 61.1 81.35 36.15 84.35 34.7 M85.2 65.35 L72.35 40.7 75.35 39.15 87.95 63.9 85.2 65.35 M81.05 67.55 L67.9 43.05 70.9 41.45 83.8 66.05 81.05 67.55 M89.35 63.2 L76.85 38.4 79.85 36.9 92.15 61.8 89.35 63.2 M66.4 43.85 L79.65 68.25 76.95 69.75 63.45 45.5 66.4 43.85 M62.0 46.3 L75.6 70.55 72.9 72.05 59.05 47.95 62.0 46.3 M35.2 63.55 L35.6 63.2 52.85 85.05 50.8 86.7 32.6 65.7 35.2 63.55 M40.1 59.9 L56.15 82.55 53.9 84.25 37.1 62.05 40.1 59.9 M31.15 67.0 L49.85 87.55 47.95 89.4 28.35 69.65 31.15 67.0 M27.0 71.0 L47.0 90.3 45.25 92.2 24.4 73.85 27.0 71.0 M16.3 84.55 L39.65 99.6 38.25 101.9 14.3 87.8 16.3 84.55 M13.35 89.4 L37.6 103.05 36.3 105.45 11.55 92.75 13.35 89.4 M10.7 94.45 L35.7 106.65 34.55 109.15 9.15 97.85 10.7 94.45 M19.55 79.85 L41.95 96.3 40.4 98.5 17.35 82.95 19.55 79.85 M23.15 75.3 L44.4 93.2 42.75 95.3 20.7 78.3 23.15 75.3 M44.45 56.9 L59.85 80.05 57.35 81.75 41.55 58.9 44.45 56.9 M48.85 54.1 L63.65 77.6 61.1 79.25 45.9 55.95 48.85 54.1 M53.2 51.4 L67.55 75.2 64.95 76.8 50.25 53.2 53.2 51.4 M54.65 50.5 L57.6 48.8 71.55 72.8 68.85 74.4 54.65 50.5 M31.6 116.85 L5.1 108.3 6.35 104.8 32.5 114.2 31.6 116.85 M30.4 120.85 L3.55 113.65 4.55 110.1 31.15 118.2 30.4 120.85 M33.0 112.9 L7.0 103.05 8.4 99.55 34.0 110.4 33.0 112.9 M3.1 115.45 L30.05 122.2 29.45 124.9 2.25 119.05 3.1 115.45" fill="#4d4b4b" fill-rule="evenodd" stroke="none"/>
  </g>
</svg>
