<?xml version="1.0" encoding="UTF-8" standalone="no"?>
<svg xmlns:ffdec="https://www.free-decompiler.com/flash" xmlns:xlink="http://www.w3.org/1999/xlink" ffdec:objectType="shape" height="2.6px" width="3.0px" xmlns="http://www.w3.org/2000/svg">
  <g transform="matrix(1.0, 0.0, 0.0, 1.0, 0.0, 0.0)">
    <path d="M1.2 0.2 Q0.8 0.3 0.55 0.6 0.25 0.9 0.25 1.3 0.25 1.7 0.55 2.05 0.8 2.35 1.2 2.4 L1.35 1.3 1.2 0.2 M1.35 0.05 L1.6 1.3 1.35 2.55 1.3 2.6 1.25 2.6 Q0.75 2.55 0.35 2.2 0.0 1.8 0.0 1.3 0.0 0.8 0.35 0.45 0.75 0.05 1.25 0.0 L1.3 0.0 1.35 0.05 M3.0 0.3 L3.0 0.6 1.85 0.6 1.85 0.3 3.0 0.3 M3.0 1.15 L3.0 1.45 1.85 1.45 1.85 1.15 3.0 1.15 M3.0 2.0 L3.0 2.3 1.85 2.3 1.85 2.0 3.0 2.0" fill="#4f88c6" fill-rule="evenodd" stroke="none"/>
  </g>
</svg>
