<?xml version="1.0" encoding="UTF-8" standalone="no"?>
<svg xmlns:ffdec="https://www.free-decompiler.com/flash" xmlns:xlink="http://www.w3.org/1999/xlink" ffdec:objectType="shape" height="3.15px" width="5.0px" xmlns="http://www.w3.org/2000/svg">
  <g transform="matrix(1.0, 0.0, 0.0, 1.0, 0.0, 0.0)">
    <path d="M4.7 1.4 L4.5 1.4 4.5 1.9 3.8 1.9 3.8 0.9 0.9 0.9 0.9 2.35 1.6 2.35 2.1 2.9 3.8 2.9 3.8 2.3 4.55 2.3 4.5 2.7 4.7 2.7 4.7 1.4 M4.2 1.1 L5.0 1.1 5.0 3.0 4.2 3.0 4.2 2.6 4.1 2.6 4.1 3.15 1.95 3.15 1.5 2.65 0.6 2.7 0.6 1.7 0.35 1.7 0.35 2.45 0.0 2.45 0.0 0.7 0.35 0.7 0.35 1.4 0.6 1.4 0.6 0.6 1.65 0.6 1.65 0.35 1.2 0.35 1.2 0.0 2.95 0.0 2.95 0.35 2.55 0.35 2.55 0.6 4.1 0.6 4.1 1.6 4.2 1.6 4.2 1.1" fill="#333333" fill-opacity="0.49803922" fill-rule="evenodd" stroke="none"/>
  </g>
</svg>
