<?xml version="1.0" encoding="UTF-8" standalone="no"?>
<svg xmlns:ffdec="https://www.free-decompiler.com/flash" xmlns:xlink="http://www.w3.org/1999/xlink" ffdec:objectType="shape" height="124.9px" width="260.45px" xmlns="http://www.w3.org/2000/svg">
  <g transform="matrix(1.0, 0.0, 0.0, 1.0, -2.25, 0.0)">
    <path d="M252.7 4.1 L247.7 31.45 244.7 30.9 249.3 3.5 252.7 4.1 M262.7 6.1 L256.8 33.25 253.75 32.6 259.4 5.4 262.7 6.1 M247.65 3.25 L243.15 30.65 240.1 30.2 244.25 2.7 247.65 3.25 M257.7 5.05 L252.25 32.3 249.25 31.7 254.35 4.4 257.7 5.05 M227.25 0.7 L224.9 28.35 221.9 28.15 223.85 0.4 227.25 0.7 M242.6 2.45 L238.6 29.95 235.55 29.55 239.2 2.0 242.6 2.45 M232.4 1.2 L229.45 28.8 226.45 28.5 229.0 0.85 232.4 1.2 M237.5 1.8 L234.05 29.35 231.0 29.0 234.1 1.35 237.5 1.8 M213.65 0.0 L216.8 0.05 215.95 27.85 213.2 27.8 213.05 0.0 213.65 0.0 M222.1 0.3 L220.4 28.05 217.4 27.9 218.6 0.1 222.1 0.3 M211.15 0.0 L211.85 27.8 208.95 27.9 207.6 0.15 211.15 0.0 M204.45 28.2 L202.35 0.5 205.85 0.25 207.45 28.0 204.45 28.2 M190.4 1.65 L193.8 29.25 190.75 29.65 187.05 2.1 190.4 1.65 M200.65 0.6 L202.9 28.3 199.85 28.55 197.25 0.9 200.65 0.6 M195.5 1.1 L198.35 28.7 195.3 29.05 192.1 1.45 195.5 1.1 M170.2 4.9 L175.55 32.15 172.55 32.75 166.85 5.55 170.2 4.9 M175.2 3.95 L180.1 31.3 177.05 31.85 171.9 4.55 175.2 3.95 M180.25 3.1 L184.65 30.5 181.6 31.05 176.9 3.65 180.25 3.1 M163.5 34.8 L156.9 7.8 160.2 7.0 166.5 34.1 163.5 34.8 M168.0 33.75 L161.9 6.65 165.2 5.9 171.05 33.05 168.0 33.75 M186.2 30.3 L181.95 2.8 185.3 2.35 189.25 29.85 186.2 30.3 M150.3 9.5 L157.55 36.35 154.55 37.15 147.05 10.4 150.3 9.5 M155.25 8.2 L162.05 35.15 159.05 35.95 151.95 9.05 155.25 8.2 M145.4 10.9 L153.1 37.6 150.15 38.45 142.1 11.85 145.4 10.9 M125.95 17.2 L135.5 43.3 132.55 44.4 122.85 18.35 125.95 17.2 M130.75 15.5 L139.9 41.75 137.0 42.8 127.55 16.65 130.75 15.5 M135.6 13.85 L144.25 40.3 141.35 41.25 132.4 14.95 135.6 13.85 M140.5 12.35 L148.65 38.9 145.7 39.8 137.25 13.35 140.5 12.35 M128.15 46.1 L118.15 20.15 121.25 18.95 131.1 44.95 128.15 46.1 M123.75 47.8 L113.5 21.95 116.6 20.75 126.7 46.65 123.75 47.8 M111.95 22.6 L122.3 48.35 119.35 49.55 108.8 23.85 111.95 22.6 M98.05 28.4 L109.25 53.85 106.35 55.15 95.0 29.8 98.05 28.4 M84.35 34.7 L96.4 59.75 93.55 61.1 81.35 36.15 84.35 34.7 M88.9 32.55 L100.65 57.75 97.8 59.05 85.9 33.95 88.9 32.55 M93.45 30.45 L104.95 55.8 102.1 57.1 90.4 31.85 93.45 30.45 M102.65 26.4 L113.55 52.0 110.7 53.25 99.6 27.75 102.65 26.4 M107.3 24.45 L117.9 50.15 115.0 51.35 104.2 25.75 107.3 24.45 M89.35 63.2 L76.85 38.4 79.85 36.9 92.15 61.8 89.35 63.2 M81.05 67.55 L67.9 43.05 70.9 41.45 83.8 66.05 81.05 67.55 M85.2 65.35 L72.35 40.7 75.35 39.15 87.95 63.9 85.2 65.35 M66.4 43.85 L79.65 68.25 76.95 69.75 63.45 45.5 66.4 43.85 M62.0 46.3 L75.6 70.55 72.9 72.05 59.05 47.95 62.0 46.3 M35.2 63.55 L35.6 63.2 52.85 85.05 50.8 86.7 32.6 65.7 35.2 63.55 M40.1 59.9 L56.15 82.55 53.9 84.25 37.1 62.05 40.1 59.9 M31.15 67.0 L49.85 87.55 47.95 89.4 28.35 69.65 31.15 67.0 M27.0 71.0 L47.0 90.3 45.25 92.2 24.4 73.85 27.0 71.0 M16.3 84.55 L39.65 99.6 38.25 101.9 14.3 87.8 16.3 84.55 M13.35 89.4 L37.6 103.05 36.3 105.45 11.55 92.75 13.35 89.4 M10.7 94.45 L35.7 106.65 34.55 109.15 9.15 97.85 10.7 94.45 M19.55 79.85 L41.95 96.3 40.4 98.5 17.35 82.95 19.55 79.85 M23.15 75.3 L44.4 93.2 42.75 95.3 20.7 78.3 23.15 75.3 M44.45 56.9 L59.85 80.05 57.35 81.75 41.55 58.9 44.45 56.9 M48.85 54.1 L63.65 77.6 61.1 79.25 45.9 55.95 48.85 54.1 M53.2 51.4 L67.55 75.2 64.95 76.8 50.25 53.2 53.2 51.4 M54.65 50.5 L57.6 48.8 71.55 72.8 68.85 74.4 54.65 50.5 M31.6 116.85 L5.1 108.3 6.35 104.8 32.5 114.2 31.6 116.85 M30.4 120.85 L3.55 113.65 4.55 110.1 31.15 118.2 30.4 120.85 M33.0 112.9 L7.0 103.05 8.4 99.55 34.0 110.4 33.0 112.9 M3.1 115.45 L30.05 122.2 29.45 124.9 2.25 119.05 3.1 115.45" fill="#4d4b4b" fill-rule="evenodd" stroke="none"/>
  </g>
</svg>
