<?xml version="1.0" encoding="UTF-8" standalone="no"?>
<svg xmlns:ffdec="https://www.free-decompiler.com/flash" xmlns:xlink="http://www.w3.org/1999/xlink" ffdec:objectType="shape" height="124.9px" width="380.8px" xmlns="http://www.w3.org/2000/svg">
  <g transform="matrix(1.0, 0.0, 0.0, 1.0, -2.25, 0.0)">
    <path d="M370.55 49.35 L355.65 72.85 353.05 71.2 367.7 47.6 370.55 49.35 M343.6 34.4 L331.7 59.5 328.9 58.2 340.5 32.95 343.6 34.4 M348.25 36.65 L335.8 61.5 333.05 60.15 345.15 35.15 348.25 36.65 M352.85 39.0 L339.85 63.6 337.15 62.15 349.8 37.45 352.85 39.0 M361.85 44.05 L347.8 68.05 345.15 66.5 358.9 42.35 361.85 44.05 M357.4 41.5 L343.85 65.75 341.15 64.3 354.35 39.85 357.4 41.5 M329.65 28.25 L318.95 53.9 316.1 52.7 326.55 26.95 329.65 28.25 M334.3 30.2 L323.25 55.7 320.4 54.5 331.2 28.85 334.3 30.2 M338.95 32.25 L327.5 57.55 324.7 56.3 335.9 30.85 338.95 32.25 M349.1 68.8 L363.35 44.9 366.25 46.7 351.75 70.4 349.1 68.8 M360.95 76.2 L376.2 53.0 378.95 54.85 363.55 77.95 360.95 76.2 M357.0 73.7 L372.0 50.25 374.8 52.05 359.6 75.35 357.0 73.7 M383.05 57.55 L367.55 80.6 364.9 78.85 380.3 55.75 383.05 57.55 M320.35 24.45 L310.2 50.35 307.3 49.2 317.25 23.25 320.35 24.45 M311.1 20.95 L301.35 46.95 298.35 45.8 308.0 19.75 311.1 20.95 M315.75 22.7 L305.8 48.65 302.85 47.5 312.65 21.5 315.75 22.7 M287.4 12.6 L279.15 39.15 276.2 38.25 284.15 11.6 287.4 12.6 M292.25 14.15 L283.55 40.55 280.6 39.6 289.0 13.15 292.25 14.15 M297.1 15.8 L287.9 42.05 285.0 41.05 293.9 14.7 297.1 15.8 M301.85 17.55 L292.35 43.6 289.35 42.55 298.75 16.4 301.85 17.55 M293.85 44.2 L303.4 18.1 306.45 19.2 296.85 45.25 293.85 44.2 M272.65 8.45 L265.8 35.4 262.8 34.65 269.35 7.65 272.65 8.45 M267.7 7.25 L261.3 34.25 258.3 33.6 264.35 6.5 267.7 7.25 M282.5 11.15 L274.7 37.8 271.75 36.95 279.25 10.2 282.5 11.15 M277.6 9.75 L270.25 36.55 267.3 35.75 274.3 8.85 277.6 9.75 M247.65 3.25 L243.15 30.65 240.1 30.2 244.25 2.7 247.65 3.25 M257.7 5.05 L252.25 32.3 249.25 31.7 254.35 4.4 257.7 5.05 M262.7 6.1 L256.8 33.25 253.75 32.6 259.4 5.4 262.7 6.1 M252.7 4.1 L247.7 31.45 244.7 30.9 249.3 3.5 252.7 4.1 M311.7 50.9 L321.95 25.1 325.0 26.35 314.65 52.1 311.7 50.9 M237.5 1.8 L234.05 29.35 231.0 29.0 234.1 1.35 237.5 1.8 M232.4 1.2 L229.45 28.8 226.45 28.5 229.0 0.85 232.4 1.2 M227.25 0.7 L224.9 28.35 221.9 28.15 223.85 0.4 227.25 0.7 M242.6 2.45 L238.6 29.95 235.55 29.55 239.2 2.0 242.6 2.45 M211.15 0.0 L211.85 27.8 208.95 27.9 207.6 0.15 211.15 0.0 M222.1 0.3 L220.4 28.05 217.4 27.9 218.6 0.1 222.1 0.3 M213.65 0.0 L216.8 0.05 215.95 27.85 213.2 27.8 213.05 0.0 213.65 0.0 M204.45 28.2 L202.35 0.5 205.85 0.25 207.45 28.0 204.45 28.2 M190.4 1.65 L193.8 29.25 190.75 29.65 187.05 2.1 190.4 1.65 M200.65 0.6 L202.9 28.3 199.85 28.55 197.25 0.9 200.65 0.6 M195.5 1.1 L198.35 28.7 195.3 29.05 192.1 1.45 195.5 1.1 M180.25 3.1 L184.65 30.5 181.6 31.05 176.9 3.65 180.25 3.1 M175.2 3.95 L180.1 31.3 177.05 31.85 171.9 4.55 175.2 3.95 M170.2 4.9 L175.55 32.15 172.55 32.75 166.85 5.55 170.2 4.9 M168.0 33.75 L161.9 6.65 165.2 5.9 171.05 33.05 168.0 33.75 M163.5 34.8 L156.9 7.8 160.2 7.0 166.5 34.1 163.5 34.8 M186.2 30.3 L181.95 2.8 185.3 2.35 189.25 29.85 186.2 30.3 M150.3 9.5 L157.55 36.35 154.55 37.15 147.05 10.4 150.3 9.5 M155.25 8.2 L162.05 35.15 159.05 35.95 151.95 9.05 155.25 8.2 M145.4 10.9 L153.1 37.6 150.15 38.45 142.1 11.85 145.4 10.9 M140.5 12.35 L148.65 38.9 145.7 39.8 137.25 13.35 140.5 12.35 M135.6 13.85 L144.25 40.3 141.35 41.25 132.4 14.95 135.6 13.85 M130.75 15.5 L139.9 41.75 137.0 42.8 127.55 16.65 130.75 15.5 M125.95 17.2 L135.5 43.3 132.55 44.4 122.85 18.35 125.95 17.2 M128.15 46.1 L118.15 20.15 121.25 18.95 131.1 44.95 128.15 46.1 M123.75 47.8 L113.5 21.95 116.6 20.75 126.7 46.65 123.75 47.8 M111.95 22.6 L122.3 48.35 119.35 49.55 108.8 23.85 111.95 22.6 M98.05 28.4 L109.25 53.85 106.35 55.15 95.0 29.8 98.05 28.4 M84.35 34.7 L96.4 59.75 93.55 61.1 81.35 36.15 84.35 34.7 M88.9 32.55 L100.65 57.75 97.8 59.05 85.9 33.95 88.9 32.55 M93.45 30.45 L104.95 55.8 102.1 57.1 90.4 31.85 93.45 30.45 M102.65 26.4 L113.55 52.0 110.7 53.25 99.6 27.75 102.65 26.4 M107.3 24.45 L117.9 50.15 115.0 51.35 104.2 25.75 107.3 24.45 M89.35 63.2 L76.85 38.4 79.85 36.9 92.15 61.8 89.35 63.2 M81.05 67.55 L67.9 43.05 70.9 41.45 83.8 66.05 81.05 67.55 M85.2 65.35 L72.35 40.7 75.35 39.15 87.95 63.9 85.2 65.35 M66.4 43.85 L79.65 68.25 76.95 69.75 63.45 45.5 66.4 43.85 M62.0 46.3 L75.6 70.55 72.9 72.05 59.05 47.95 62.0 46.3 M35.6 63.2 L52.85 85.05 50.8 86.7 32.6 65.7 35.2 63.55 35.6 63.2 M40.1 59.9 L56.15 82.55 53.9 84.25 37.1 62.05 40.1 59.9 M31.15 67.0 L49.85 87.55 47.95 89.4 28.35 69.65 31.15 67.0 M27.0 71.0 L47.0 90.3 45.25 92.2 24.4 73.85 27.0 71.0 M19.55 79.85 L41.95 96.3 40.4 98.5 17.35 82.95 19.55 79.85 M16.3 84.55 L39.65 99.6 38.25 101.9 14.3 87.8 16.3 84.55 M13.35 89.4 L37.6 103.05 36.3 105.45 11.55 92.75 13.35 89.4 M10.7 94.45 L35.7 106.65 34.55 109.15 9.15 97.85 10.7 94.45 M23.15 75.3 L44.4 93.2 42.75 95.3 20.7 78.3 23.15 75.3 M53.2 51.4 L67.55 75.2 64.95 76.8 50.25 53.2 53.2 51.4 M48.85 54.1 L63.65 77.6 61.1 79.25 45.9 55.95 48.85 54.1 M44.45 56.9 L59.85 80.05 57.35 81.75 41.55 58.9 44.45 56.9 M68.85 74.4 L54.65 50.5 57.6 48.8 71.55 72.8 68.85 74.4 M33.0 112.9 L7.0 103.05 8.4 99.55 34.0 110.4 33.0 112.9 M30.4 120.85 L3.55 113.65 4.55 110.1 31.15 118.2 30.4 120.85 M31.6 116.85 L5.1 108.3 6.35 104.8 32.5 114.2 31.6 116.85 M3.1 115.45 L30.05 122.2 29.45 124.9 2.25 119.05 3.1 115.45" fill="#4d4b4b" fill-rule="evenodd" stroke="none"/>
  </g>
</svg>
