<?xml version="1.0" encoding="UTF-8" standalone="no"?>
<svg xmlns:ffdec="https://www.free-decompiler.com/flash" xmlns:xlink="http://www.w3.org/1999/xlink" ffdec:objectType="shape" height="46.3px" width="6.8px" xmlns="http://www.w3.org/2000/svg">
  <g transform="matrix(1.0, 0.0, 0.0, 1.0, 0.0, 0.0)">
    <path d="M5.8 0.85 L6.15 1.7 6.8 45.95 6.45 46.3 5.8 46.3 1.2 46.3 0.35 46.3 0.0 45.95 0.7 1.7 1.05 0.85 Q1.55 0.0 1.9 0.0 L4.95 0.0 5.8 0.85 M4.95 1.7 L1.9 1.7 1.2 45.95 5.8 45.95 4.95 1.7" fill="#292929" fill-opacity="0.2" fill-rule="evenodd" stroke="none"/>
    <path d="M4.95 1.7 L5.8 45.95 1.2 45.95 1.9 1.7 4.95 1.7 M2.9 2.05 L2.4 2.05 1.9 45.6 2.4 45.6 4.45 45.6 4.95 45.6 4.45 2.05 3.9 2.05 2.9 2.05" fill="#35090e" fill-rule="evenodd" stroke="none"/>
    <path d="M2.4 45.6 L1.9 45.6 2.4 2.05 2.9 2.05 2.4 45.6 M3.9 2.05 L4.45 2.05 4.95 45.6 4.45 45.6 3.9 2.05" fill="#500d16" fill-rule="evenodd" stroke="none"/>
    <path d="M2.9 2.05 L3.9 2.05 4.45 45.6 2.4 45.6 2.9 2.05" fill="#761023" fill-rule="evenodd" stroke="none"/>
  </g>
</svg>
