<?xml version="1.0" encoding="UTF-8" standalone="no"?>
<svg xmlns:ffdec="https://www.free-decompiler.com/flash" xmlns:xlink="http://www.w3.org/1999/xlink" ffdec:objectType="shape" height="46.9px" width="16.5px" xmlns="http://www.w3.org/2000/svg">
  <g transform="matrix(1.0, 0.0, 0.0, 1.0, 8.25, 38.65)">
    <path d="M0.7 -3.0 L1.1 -3.0 0.7 -37.05 0.3 -37.05 -0.5 -37.05 -0.9 -37.05 -1.3 -3.0 -0.9 -3.0 0.7 -3.0 M1.75 -2.75 L-1.85 -2.75 -1.3 -37.3 1.1 -37.3 1.75 -2.75" fill="#35090e" fill-rule="evenodd" stroke="none"/>
    <path d="M0.3 -37.05 L0.7 -37.05 1.1 -3.0 0.7 -3.0 0.3 -37.05 M-0.9 -3.0 L-1.3 -3.0 -0.9 -37.05 -0.5 -37.05 -0.9 -3.0" fill="#500d16" fill-rule="evenodd" stroke="none"/>
    <path d="M1.75 -37.95 L2.05 -37.3 2.55 -2.75 2.3 -2.5 1.75 -2.5 -1.85 -2.5 -2.5 -2.5 -2.75 -2.75 -2.25 -37.3 -1.95 -37.95 -1.3 -38.65 1.1 -38.65 1.75 -37.95 M1.75 -2.75 L1.1 -37.3 -1.3 -37.3 -1.85 -2.75 1.75 -2.75" fill="#292929" fill-opacity="0.2" fill-rule="evenodd" stroke="none"/>
    <path d="M0.7 -3.0 L-0.9 -3.0 -0.5 -37.05 0.3 -37.05 0.7 -3.0" fill="#761023" fill-rule="evenodd" stroke="none"/>
    <path d="M3.45 -3.45 Q4.9 -2.0 4.9 0.0 4.9 2.0 3.45 3.45 2.0 4.9 0.0 4.9 -2.0 4.9 -3.45 3.45 -4.9 2.0 -4.9 0.0 -4.9 -2.0 -3.45 -3.45 -2.0 -4.9 0.0 -4.9 2.0 -4.9 3.45 -3.45 M5.6 -5.45 Q7.8 -3.25 7.8 0.0 7.8 3.25 5.6 5.6 3.25 7.8 0.0 7.8 -3.25 7.8 -5.45 5.6 -7.8 3.25 -7.8 0.0 -7.8 -3.25 -5.45 -5.45 -3.25 -7.8 0.0 -7.8 3.25 -7.8 5.6 -5.45 M4.8 -4.7 Q2.8 -6.7 0.0 -6.7 -2.8 -6.7 -4.7 -4.7 -6.7 -2.8 -6.7 0.0 -6.7 2.8 -4.7 4.7 -2.8 6.7 0.0 6.7 2.8 6.7 4.8 4.7 6.7 2.8 6.7 0.0 6.7 -2.8 4.8 -4.7" fill="#000000" fill-rule="evenodd" stroke="none"/>
    <path d="M4.35 -4.35 Q2.55 -6.15 0.0 -6.15 -2.55 -6.15 -4.35 -4.35 -6.15 -2.55 -6.15 0.0 -6.15 2.55 -4.35 4.35 -2.55 6.15 0.0 6.15 2.55 6.15 4.35 4.35 6.15 2.55 6.15 0.0 6.15 -2.55 4.35 -4.35 M5.9 -5.8 Q8.25 -3.45 8.25 0.0 8.25 3.45 5.9 5.9 3.45 8.25 0.0 8.25 -3.45 8.25 -5.8 5.9 -8.25 3.45 -8.25 0.0 -8.25 -3.45 -5.8 -5.8 -3.45 -8.25 0.0 -8.25 3.45 -8.25 5.9 -5.8 M5.6 -5.45 Q3.25 -7.8 0.0 -7.8 -3.25 -7.8 -5.45 -5.45 -7.8 -3.25 -7.8 0.0 -7.8 3.25 -5.45 5.6 -3.25 7.8 0.0 7.8 3.25 7.8 5.6 5.6 7.8 3.25 7.8 0.0 7.8 -3.25 5.6 -5.45 M4.8 -4.7 Q6.7 -2.8 6.7 0.0 6.7 2.8 4.8 4.7 2.8 6.7 0.0 6.7 -2.8 6.7 -4.7 4.7 -6.7 2.8 -6.7 0.0 -6.7 -2.8 -4.7 -4.7 -2.8 -6.7 0.0 -6.7 2.8 -6.7 4.8 -4.7" fill="#1b1a1c" fill-rule="evenodd" stroke="none"/>
    <path d="M4.35 -4.35 Q6.15 -2.55 6.15 0.0 6.15 2.55 4.35 4.35 2.55 6.15 0.0 6.15 -2.55 6.15 -4.35 4.35 -6.15 2.55 -6.15 0.0 -6.15 -2.55 -4.35 -4.35 -2.55 -6.15 0.0 -6.15 2.55 -6.15 4.35 -4.35 M3.45 -3.45 Q2.0 -4.9 0.0 -4.9 -2.0 -4.9 -3.45 -3.45 -4.9 -2.0 -4.9 0.0 -4.9 2.0 -3.45 3.45 -2.0 4.9 0.0 4.9 2.0 4.9 3.45 3.45 4.9 2.0 4.9 0.0 4.9 -2.0 3.45 -3.45" fill="#131517" fill-rule="evenodd" stroke="none"/>
  </g>
</svg>
