<?xml version="1.0" encoding="UTF-8" standalone="no"?>
<svg xmlns:ffdec="https://www.free-decompiler.com/flash" xmlns:xlink="http://www.w3.org/1999/xlink" ffdec:objectType="shape" height="50.3px" width="256.3px" xmlns="http://www.w3.org/2000/svg">
  <g transform="matrix(1.0, 0.0, 0.0, 1.0, -124.7, -95.4)">
    <path d="M375.35 130.45 L381.0 145.7 124.7 145.7 131.25 130.45 Q135.6 122.2 144.1 117.4 L144.3 117.25 Q160.5 108.25 188.9 102.2 218.05 96.0 249.2 95.45 L249.3 95.45 250.15 95.4 251.55 95.4 251.6 95.4 251.7 95.4 251.85 95.4 255.3 95.4 255.6 95.4 256.45 95.45 Q287.65 96.0 316.8 102.2 345.15 108.25 361.35 117.25 L361.5 117.4 Q371.4 122.95 375.35 130.45" fill="#1e1e1e" fill-rule="evenodd" stroke="none"/>
  </g>
</svg>
