<?xml version="1.0" encoding="UTF-8" standalone="no"?>
<svg xmlns:ffdec="https://www.free-decompiler.com/flash" xmlns:xlink="http://www.w3.org/1999/xlink" ffdec:objectType="shape" height="3.65px" width="5.0px" xmlns="http://www.w3.org/2000/svg">
  <g transform="matrix(1.0, 0.0, 0.0, 1.0, 0.0, 0.0)">
    <path d="M3.95 0.35 L4.25 0.1 Q5.0 0.8 5.0 1.85 5.0 2.85 4.25 3.6 L3.95 3.3 Q4.6 2.7 4.6 1.85 4.6 0.95 3.95 0.35 M2.75 0.85 L2.75 2.05 2.7 2.25 2.5 2.35 2.3 2.25 2.2 2.05 2.2 0.85 2.3 0.65 Q2.35 0.55 2.5 0.55 L2.7 0.65 2.75 0.85 M2.75 2.9 L2.7 3.1 2.5 3.15 2.3 3.1 2.2 2.9 2.3 2.7 Q2.35 2.6 2.5 2.6 L2.7 2.7 2.75 2.9 M4.35 1.85 Q4.35 2.6 3.8 3.1 3.25 3.65 2.5 3.65 1.7 3.65 1.2 3.1 0.65 2.6 0.65 1.85 0.65 1.05 1.2 0.55 1.7 0.0 2.5 0.0 3.25 0.0 3.8 0.55 4.35 1.05 4.35 1.85 M4.05 1.85 Q4.05 1.2 3.6 0.75 3.15 0.3 2.5 0.3 1.85 0.3 1.4 0.75 0.95 1.2 0.95 1.85 0.95 2.45 1.4 2.9 1.85 3.35 2.5 3.35 3.15 3.35 3.6 2.9 4.05 2.45 4.05 1.85 M0.75 0.1 L1.0 0.35 Q0.4 0.95 0.4 1.85 0.4 2.7 1.0 3.3 L0.75 3.6 Q0.0 2.85 0.0 1.85 0.0 0.8 0.75 0.1" fill="#ee3638" fill-rule="evenodd" stroke="none"/>
  </g>
</svg>
