<?xml version="1.0" encoding="UTF-8" standalone="no"?>
<svg xmlns:ffdec="https://www.free-decompiler.com/flash" xmlns:xlink="http://www.w3.org/1999/xlink" ffdec:objectType="shape" height="33.35px" width="101.95px" xmlns="http://www.w3.org/2000/svg">
  <g transform="matrix(1.0, 0.0, 0.0, 1.0, -270.9, -23.15)">
    <path d="M337.1 44.4 L347.85 47.35 350.0 47.95 354.55 49.1 360.75 50.7 363.7 51.4 372.85 53.5 372.85 56.5 363.7 54.4 360.75 53.7 354.55 52.1 350.0 50.95 347.85 50.35 337.1 47.4 334.95 46.75 324.2 43.55 322.6 43.05 322.6 40.05 324.2 40.55 334.95 43.75 337.1 44.4" fill="#ff0000" fill-opacity="0.29803923" fill-rule="evenodd" stroke="none"/>
    <path d="M285.5 27.45 L296.25 31.3 298.4 32.05 309.15 35.7 320.3 39.35 320.3 42.35 309.15 38.7 298.4 35.05 296.25 34.3 285.5 30.45 283.35 29.65 Q279.9 28.25 275.05 27.0 L270.9 26.05 270.9 23.15 273.9 23.75 Q278.0 24.7 283.35 26.65 L285.5 27.45" fill="#ffcc00" fill-opacity="0.29803923" fill-rule="evenodd" stroke="none"/>
  </g>
</svg>
