<?xml version="1.0" encoding="UTF-8" standalone="no"?>
<svg xmlns:ffdec="https://www.free-decompiler.com/flash" xmlns:xlink="http://www.w3.org/1999/xlink" ffdec:objectType="shape" height="7.0px" width="7.0px" xmlns="http://www.w3.org/2000/svg">
  <g transform="matrix(1.0, 0.0, 0.0, 1.0, 0.0, 0.0)">
    <path d="M5.65 5.6 Q6.5 4.75 6.5 3.5 6.5 2.25 5.65 1.4 4.75 0.5 3.5 0.5 2.25 0.5 1.4 1.4 0.5 2.25 0.5 3.5 0.5 4.75 1.4 5.6 2.25 6.5 3.5 6.5 4.75 6.5 5.65 5.6 M7.0 3.5 Q7.0 4.95 6.0 6.0 4.95 7.0 3.5 7.0 2.05 7.0 1.05 6.0 0.0 4.95 0.0 3.5 0.0 2.05 1.05 1.05 2.05 0.0 3.5 0.0 4.95 0.0 6.0 1.05 7.0 2.05 7.0 3.5" fill="#000000" fill-rule="evenodd" stroke="none"/>
    <path d="M5.65 5.6 Q4.75 6.5 3.5 6.5 2.25 6.5 1.4 5.6 0.5 4.75 0.5 3.5 0.5 2.25 1.4 1.4 2.25 0.5 3.5 0.5 4.75 0.5 5.65 1.4 6.5 2.25 6.5 3.5 6.5 4.75 5.65 5.6" fill="#333333" fill-rule="evenodd" stroke="none"/>
  </g>
</svg>
