<?xml version="1.0" encoding="UTF-8" standalone="no"?>
<svg xmlns:ffdec="https://www.free-decompiler.com/flash" xmlns:xlink="http://www.w3.org/1999/xlink" ffdec:objectType="shape" height="8.6px" width="24.35px" xmlns="http://www.w3.org/2000/svg">
  <g transform="matrix(1.0, 0.0, 0.0, 1.0, -29.55, -86.35)">
    <path d="M37.75 86.35 L37.75 94.95 36.65 94.95 36.65 87.75 34.15 94.95 33.1 94.95 30.65 87.65 30.65 94.95 29.55 94.95 29.55 86.35 31.25 86.35 33.3 92.45 33.7 93.7 34.15 92.35 36.2 86.35 37.75 86.35 M40.45 90.45 L42.7 90.45 Q43.8 90.45 44.25 90.05 L44.7 88.9 44.45 87.95 Q44.15 87.55 43.7 87.45 L42.65 87.35 40.45 87.35 40.45 90.45 M39.35 94.95 L39.35 86.35 42.55 86.35 43.85 86.45 44.95 86.85 45.6 87.65 45.9 88.85 Q45.9 89.95 45.2 90.7 44.5 91.45 42.65 91.45 L40.45 91.45 40.45 94.95 39.35 94.95 M53.9 86.35 L53.9 94.95 52.8 94.95 52.8 91.45 51.1 91.45 50.65 91.45 48.45 91.45 48.45 94.95 47.35 94.95 47.35 86.35 48.35 86.35 48.35 90.45 50.75 90.45 51.1 90.45 52.9 90.45 52.9 86.35 53.9 86.35" fill="#99b904" fill-rule="evenodd" stroke="none"/>
    <path d="M37.75 86.35 L37.75 94.95 36.65 94.95 36.65 87.75 34.15 94.95 33.1 94.95 30.65 87.65 30.65 94.95 29.55 94.95 29.55 86.35 31.25 86.35 33.3 92.45 33.7 93.7 34.15 92.35 36.2 86.35 37.75 86.35 M40.45 90.45 L42.7 90.45 Q43.8 90.45 44.25 90.05 L44.7 88.9 44.45 87.95 Q44.15 87.55 43.7 87.45 L42.65 87.35 40.45 87.35 40.45 90.45 M39.35 94.95 L39.35 86.35 42.55 86.35 43.85 86.45 44.95 86.85 45.6 87.65 45.9 88.85 Q45.9 89.95 45.2 90.7 44.5 91.45 42.65 91.45 L40.45 91.45 40.45 94.95 39.35 94.95 M53.9 86.35 L53.9 94.95 52.8 94.95 52.8 91.45 51.1 91.45 50.65 91.45 48.45 91.45 48.45 94.95 47.35 94.95 47.35 86.35 48.35 86.35 48.35 90.45 50.75 90.45 51.1 90.45 52.9 90.45 52.9 86.35 53.9 86.35" fill="#99b904" fill-rule="evenodd" stroke="none"/>
  </g>
</svg>
