<?xml version="1.0" encoding="UTF-8" standalone="no"?>
<svg xmlns:ffdec="https://www.free-decompiler.com/flash" xmlns:xlink="http://www.w3.org/1999/xlink" ffdec:objectType="shape" height="27.0px" width="1.8px" xmlns="http://www.w3.org/2000/svg">
  <g transform="matrix(1.0, 0.0, 0.0, 1.0, 0.9, 22.05)">
    <path d="M-0.25 -21.2 L0.4 -21.2 0.65 4.0 -0.55 4.0 -0.25 -21.2" fill="#7c673a" fill-opacity="0.9019608" fill-rule="evenodd" stroke="none"/>
    <path d="M0.25 4.5 L0.4 4.5 0.25 -21.6 0.15 -21.6 -0.15 -21.6 -0.25 -21.6 -0.4 4.5 -0.25 4.5 0.25 4.5 M0.65 4.7 L-0.6 4.7 -0.4 -21.75 0.4 -21.75 0.65 4.7" fill="#360e07" fill-rule="evenodd" stroke="none"/>
    <path d="M0.15 -21.6 L0.25 -21.6 0.4 4.5 0.25 4.5 0.15 -21.6 M-0.25 4.5 L-0.4 4.5 -0.25 -21.6 -0.15 -21.6 -0.25 4.5" fill="#451109" fill-rule="evenodd" stroke="none"/>
    <path d="M0.4 -22.05 L0.6 -21.95 0.7 -21.75 0.9 4.7 0.8 4.9 0.65 4.95 -0.6 4.95 -0.8 4.9 -0.9 4.7 -0.7 -21.75 -0.6 -21.95 -0.4 -22.05 0.4 -22.05 M0.65 4.7 L0.4 -21.75 -0.4 -21.75 -0.6 4.7 0.65 4.7" fill="#292929" fill-opacity="0.2" fill-rule="evenodd" stroke="none"/>
    <path d="M0.25 4.5 L-0.25 4.5 -0.15 -21.6 0.15 -21.6 0.25 4.5" fill="#d5c009" fill-rule="evenodd" stroke="none"/>
  </g>
</svg>
