<?xml version="1.0" encoding="UTF-8" standalone="no"?>
<svg xmlns:ffdec="https://www.free-decompiler.com/flash" xmlns:xlink="http://www.w3.org/1999/xlink" ffdec:objectType="shape" height="7.0px" width="7.0px" xmlns="http://www.w3.org/2000/svg">
  <g transform="matrix(1.0, 0.0, 0.0, 1.0, 0.0, 0.0)">
    <path d="M5.45 5.45 Q4.65 6.25 3.5 6.25 2.35 6.25 1.55 5.45 0.75 4.65 0.75 3.5 0.75 2.35 1.55 1.55 2.35 0.75 3.5 0.75 4.65 0.75 5.45 1.55 6.25 2.35 6.25 3.5 6.25 4.65 5.45 5.45" fill="#9e8e4e" fill-rule="evenodd" stroke="none"/>
    <path d="M5.45 5.45 Q6.25 4.65 6.25 3.5 6.25 2.35 5.45 1.55 4.65 0.75 3.5 0.75 2.35 0.75 1.55 1.55 0.75 2.35 0.75 3.5 0.75 4.65 1.55 5.45 2.35 6.25 3.5 6.25 4.65 6.25 5.45 5.45 M6.5 3.5 Q6.5 4.75 5.65 5.6 4.75 6.5 3.5 6.5 2.25 6.5 1.4 5.6 0.5 4.75 0.5 3.5 0.5 2.25 1.4 1.4 2.25 0.5 3.5 0.5 4.75 0.5 5.65 1.4 6.5 2.25 6.5 3.5" fill="#716539" fill-rule="evenodd" stroke="none"/>
    <path d="M6.5 3.5 Q6.5 2.25 5.65 1.4 4.75 0.5 3.5 0.5 2.25 0.5 1.4 1.4 0.5 2.25 0.5 3.5 0.5 4.75 1.4 5.6 2.25 6.5 3.5 6.5 4.75 6.5 5.65 5.6 6.5 4.75 6.5 3.5 M7.0 3.5 Q7.0 4.95 6.0 6.0 4.95 7.0 3.5 7.0 2.05 7.0 1.05 6.0 0.0 4.95 0.0 3.5 0.0 2.05 1.05 1.05 2.05 0.0 3.5 0.0 4.95 0.0 6.0 1.05 7.0 2.05 7.0 3.5" fill="#4e4531" fill-rule="evenodd" stroke="none"/>
  </g>
</svg>
