<?xml version="1.0" encoding="UTF-8" standalone="no"?>
<svg xmlns:ffdec="https://www.free-decompiler.com/flash" xmlns:xlink="http://www.w3.org/1999/xlink" ffdec:objectType="shape" height="15.0px" width="1.6px" xmlns="http://www.w3.org/2000/svg">
  <g transform="matrix(1.0, 0.0, 0.0, 1.0, 0.8, 12.7)">
    <path d="M0.35 -12.7 L0.5 -12.65 0.65 -12.55 0.8 2.15 0.7 2.25 0.55 2.3 -0.5 2.3 -0.7 2.25 -0.8 2.15 -0.65 -12.55 -0.5 -12.65 -0.35 -12.7 0.35 -12.7 M0.55 2.15 L0.35 -12.55 -0.35 -12.55 -0.5 2.15 0.55 2.15" fill="#292929" fill-opacity="0.2" fill-rule="evenodd" stroke="none"/>
    <path d="M0.25 2.05 L0.35 2.05 0.25 -12.5 0.1 -12.5 -0.1 -12.5 -0.25 -12.5 -0.35 2.05 -0.25 2.05 0.25 2.05 M0.55 2.15 L-0.5 2.15 -0.35 -12.55 0.35 -12.55 0.55 2.15" fill="#4e4531" fill-rule="evenodd" stroke="none"/>
    <path d="M0.1 -12.5 L0.25 -12.5 0.35 2.05 0.25 2.05 0.1 -12.5 M-0.25 2.05 L-0.35 2.05 -0.25 -12.5 -0.1 -12.5 -0.25 2.05" fill="#716539" fill-rule="evenodd" stroke="none"/>
    <path d="M0.25 2.05 L-0.25 2.05 -0.1 -12.5 0.1 -12.5 0.25 2.05" fill="#9e8e4e" fill-rule="evenodd" stroke="none"/>
  </g>
</svg>
