<?xml version="1.0" encoding="UTF-8" standalone="no"?>
<svg xmlns:ffdec="https://www.free-decompiler.com/flash" xmlns:xlink="http://www.w3.org/1999/xlink" ffdec:objectType="shape" height="19.85px" width="1.95px" xmlns="http://www.w3.org/2000/svg">
  <g transform="matrix(1.0, 0.0, 0.0, 1.0, 0.95, 17.15)">
    <path d="M0.25 -16.45 L0.45 2.7 -0.3 2.7 -0.15 -16.45 0.25 -16.45" fill="#7c673a" fill-opacity="0.9019608" fill-rule="evenodd" stroke="none"/>
    <path d="M-0.6 1.85 L-0.45 -16.9 0.45 -16.9 0.7 1.85 0.45 1.85 0.3 -16.8 0.15 -16.8 -0.15 -16.8 -0.3 -16.8 -0.4 1.85 -0.6 1.85" fill="#382222" fill-rule="evenodd" stroke="none"/>
    <path d="M0.45 1.85 L0.3 1.85 0.15 -16.8 0.3 -16.8 0.45 1.85 M-0.25 1.85 L-0.4 1.85 -0.3 -16.8 -0.15 -16.8 -0.25 1.85" fill="#737474" fill-rule="evenodd" stroke="none"/>
    <path d="M-0.6 1.85 L-0.95 1.85 -0.8 -16.9 -0.65 -17.05 -0.45 -17.15 0.45 -17.15 0.65 -17.05 0.8 -16.9 1.0 1.85 0.7 1.85 0.45 -16.9 -0.45 -16.9 -0.6 1.85" fill="#292929" fill-opacity="0.2" fill-rule="evenodd" stroke="none"/>
    <path d="M0.3 1.85 L-0.25 1.85 -0.15 -16.8 0.15 -16.8 0.3 1.85" fill="#b7b7b7" fill-rule="evenodd" stroke="none"/>
  </g>
</svg>
