<?xml version="1.0" encoding="UTF-8" standalone="no"?>
<svg xmlns:ffdec="https://www.free-decompiler.com/flash" xmlns:xlink="http://www.w3.org/1999/xlink" ffdec:objectType="shape" height="2.55px" width="6.0px" xmlns="http://www.w3.org/2000/svg">
  <g transform="matrix(1.0, 0.0, 0.0, 1.0, 0.0, 0.0)">
    <path d="M5.4 0.55 L5.65 0.55 6.0 0.9 6.0 1.15 5.75 1.15 5.45 1.0 3.85 2.5 1.15 2.5 1.15 1.5 0.0 1.15 0.3 0.0 1.4 0.6 2.2 0.6 2.2 0.4 1.8 0.4 1.8 0.0 2.95 0.0 2.95 0.4 2.6 0.4 2.6 0.6 3.3 0.6 3.7 1.15 5.4 0.55 M6.0 1.55 L6.0 2.55 5.65 2.55 5.65 1.55 6.0 1.55 M0.55 0.55 L0.5 0.9 1.15 1.05 1.15 0.9 0.55 0.55 M3.6 1.55 L3.1 0.95 1.55 0.95 1.55 2.1 3.7 2.1 4.8 1.15 3.6 1.55" fill="#ee3638" fill-rule="evenodd" stroke="none"/>
  </g>
</svg>
