<?xml version="1.0" encoding="UTF-8" standalone="no"?>
<svg xmlns:ffdec="https://www.free-decompiler.com/flash" xmlns:xlink="http://www.w3.org/1999/xlink" ffdec:objectType="shape" height="12.9px" width="2.0px" xmlns="http://www.w3.org/2000/svg">
  <g transform="matrix(1.0, 0.0, 0.0, 1.0, 1.0, 10.75)">
    <path d="M0.3 1.95 L0.45 1.95 0.3 -10.3 0.15 -10.3 -0.15 -10.3 -0.3 -10.3 -0.45 1.95 -0.3 1.95 0.3 1.95 M0.7 2.05 L-0.65 2.05 -0.45 -10.35 0.45 -10.35 0.7 2.05" fill="#60171a" fill-rule="evenodd" stroke="none"/>
    <path d="M0.15 -10.3 L0.3 -10.3 0.45 1.95 0.3 1.95 0.15 -10.3 M-0.3 1.95 L-0.45 1.95 -0.3 -10.3 -0.15 -10.3 -0.3 1.95" fill="#811f21" fill-rule="evenodd" stroke="none"/>
    <path d="M0.7 -10.6 L0.8 -10.35 1.0 2.05 0.9 2.1 0.7 2.15 -0.65 2.15 -0.9 2.1 -1.0 2.05 -0.8 -10.35 -0.7 -10.6 -0.45 -10.75 0.45 -10.75 0.7 -10.6 M0.7 2.05 L0.45 -10.35 -0.45 -10.35 -0.65 2.05 0.7 2.05" fill="#292929" fill-opacity="0.2" fill-rule="evenodd" stroke="none"/>
    <path d="M0.3 1.95 L-0.3 1.95 -0.15 -10.3 0.15 -10.3 0.3 1.95" fill="#c3290f" fill-rule="evenodd" stroke="none"/>
  </g>
</svg>
