<?xml version="1.0" encoding="UTF-8" standalone="no"?>
<svg xmlns:ffdec="https://www.free-decompiler.com/flash" xmlns:xlink="http://www.w3.org/1999/xlink" ffdec:objectType="shape" height="22.1px" width="2.0px" xmlns="http://www.w3.org/2000/svg">
  <g transform="matrix(1.0, 0.0, 0.0, 1.0, 1.0, 17.15)">
    <path d="M0.45 4.15 L-0.35 4.15 -0.15 -16.45 0.25 -16.45 0.45 4.15" fill="#7c673a" fill-opacity="0.9019608" fill-rule="evenodd" stroke="none"/>
    <path d="M0.3 4.6 L0.45 4.6 0.3 -16.8 0.15 -16.8 -0.15 -16.8 -0.3 -16.8 -0.45 4.6 -0.3 4.6 0.3 4.6 M0.7 4.75 L-0.65 4.75 -0.45 -16.9 0.45 -16.9 0.7 4.75" fill="#4e4531" fill-rule="evenodd" stroke="none"/>
    <path d="M0.15 -16.8 L0.3 -16.8 0.45 4.6 0.3 4.6 0.15 -16.8 M-0.3 4.6 L-0.45 4.6 -0.3 -16.8 -0.15 -16.8 -0.3 4.6" fill="#716539" fill-rule="evenodd" stroke="none"/>
    <path d="M0.45 -17.15 L0.65 -17.05 0.8 -16.9 1.0 4.75 0.9 4.9 0.7 4.95 -0.65 4.95 -0.9 4.9 -1.0 4.75 -0.8 -16.9 -0.65 -17.05 -0.45 -17.15 0.45 -17.15 M0.7 4.75 L0.45 -16.9 -0.45 -16.9 -0.65 4.75 0.7 4.75" fill="#292929" fill-opacity="0.2" fill-rule="evenodd" stroke="none"/>
    <path d="M0.3 4.6 L-0.3 4.6 -0.15 -16.8 0.15 -16.8 0.3 4.6" fill="#8a7c43" fill-rule="evenodd" stroke="none"/>
  </g>
</svg>
