<?xml version="1.0" encoding="UTF-8" standalone="no"?>
<svg xmlns:ffdec="https://www.free-decompiler.com/flash" xmlns:xlink="http://www.w3.org/1999/xlink" ffdec:objectType="shape" height="15.9px" width="274.8px" xmlns="http://www.w3.org/2000/svg">
  <g transform="matrix(1.0, 0.0, 0.0, 1.0, -6.0, -4.7)">
    <path d="M280.0 20.6 L6.0 20.6 6.0 19.6 280.0 19.6 280.0 20.6" fill="#000000" fill-rule="evenodd" stroke="none"/>
    <path d="M280.8 7.3 L280.7 9.0 279.1 9.0 278.6 15.0 276.65 15.0 277.15 9.0 275.65 9.0 275.75 7.3 280.8 7.3 M265.0 10.35 L264.5 9.45 Q264.05 9.15 263.6 9.15 262.9 9.15 262.4 9.7 261.9 10.2 261.8 11.15 261.8 12.1 262.15 12.6 262.55 13.15 263.25 13.15 264.25 13.15 264.8 12.05 L264.85 11.95 266.8 11.95 266.8 12.1 Q266.3 13.5 265.4 14.15 264.35 15.0 263.1 15.0 261.6 15.0 260.7 13.85 259.7 12.65 259.9 11.15 260.0 9.5 261.15 8.45 262.3 7.3 263.8 7.3 265.8 7.3 266.65 9.05 L266.95 10.25 266.95 10.4 265.0 10.4 265.0 10.35 M269.85 10.2 L272.35 10.2 272.6 7.3 274.55 7.3 273.9 15.0 271.95 15.0 272.2 11.9 269.65 11.9 269.4 15.0 267.45 15.0 268.15 7.3 270.1 7.3 269.85 10.2 M256.2 9.7 L255.15 12.35 256.75 12.35 256.2 9.7 M257.2 7.3 L259.6 15.0 257.45 15.0 257.2 13.85 254.5 13.85 253.95 15.0 251.85 15.0 255.6 7.3 257.2 7.3 M249.3 7.3 L251.85 7.3 251.2 15.0 249.4 15.0 249.9 9.2 247.8 15.0 246.5 15.0 245.35 9.2 244.85 15.0 243.1 15.0 243.7 7.3 246.3 7.3 247.35 12.35 249.3 7.3 M240.25 12.15 L240.6 7.3 242.5 7.3 241.9 15.0 240.1 15.0 237.65 10.35 237.2 15.0 235.35 15.0 236.0 7.3 237.7 7.3 240.25 12.15 M226.3 7.3 L225.65 15.0 223.8 15.0 224.3 9.2 222.25 15.0 220.9 15.0 219.85 9.2 219.35 15.0 217.5 15.0 218.2 7.3 220.7 7.3 221.8 12.35 223.75 7.3 226.3 7.3 M231.75 7.3 L231.55 9.0 229.15 9.0 229.1 10.2 231.5 10.2 231.3 11.95 228.9 11.95 228.8 13.3 231.15 13.3 231.05 15.0 226.75 15.0 227.45 7.3 231.75 7.3 M232.85 7.3 L234.85 7.3 234.15 15.0 232.2 15.0 232.85 7.3 M213.4 15.55 L213.05 15.55 213.2 15.25 213.4 15.55 M210.45 15.55 L209.95 15.55 211.65 12.15 211.9 12.65 210.45 15.55 M211.5 15.55 L212.45 13.65 212.7 14.15 212.0 15.55 211.5 15.55 M204.1 5.5 L204.55 6.3 199.8 15.55 199.0 15.55 204.1 5.5 M210.9 10.6 L211.15 11.1 209.05 15.25 209.2 15.55 208.35 15.55 210.9 10.6 M210.05 9.05 L210.3 9.55 208.25 13.65 208.45 14.0 207.6 15.55 206.8 15.55 210.05 9.05 M209.3 7.5 L209.55 8.0 207.5 12.15 207.6 12.45 206.1 15.55 205.2 15.55 209.3 7.5 M206.65 10.6 L206.85 10.9 204.55 15.55 203.65 15.55 208.55 6.0 208.8 6.5 206.65 10.6 M205.65 8.55 L206.1 9.4 202.95 15.55 202.15 15.55 205.65 8.55 M204.9 7.0 L205.3 7.8 201.4 15.55 200.55 15.55 204.9 7.0" fill="#000000" fill-rule="evenodd" stroke="none"/>
    <path d="M13.5 7.2 L13.5 14.75 10.95 14.75 10.95 7.2 13.5 7.2 M17.9 4.7 L17.9 14.75 15.4 14.75 15.4 4.7 17.9 4.7 M9.15 9.75 L9.15 14.75 6.6 14.75 6.6 9.75 9.15 9.75" fill="#000000" fill-rule="evenodd" stroke="none"/>
  </g>
</svg>
