<?xml version="1.0" encoding="UTF-8" standalone="no"?>
<svg xmlns:ffdec="https://www.free-decompiler.com/flash" xmlns:xlink="http://www.w3.org/1999/xlink" ffdec:objectType="shape" height="3.0px" width="2.75px" xmlns="http://www.w3.org/2000/svg">
  <g transform="matrix(1.0, 0.0, 0.0, 1.0, 0.0, 0.0)">
    <path d="M1.5 1.2 L1.5 0.25 0.4 0.25 0.4 1.2 1.5 1.2 M2.55 2.3 L2.55 0.95 2.5 0.75 1.95 0.2 2.05 0.05 2.65 0.65 2.75 0.95 2.75 2.3 2.65 2.6 2.25 2.75 2.05 2.6 1.9 2.3 1.9 1.45 1.9 1.35 1.8 1.3 1.8 2.75 1.85 2.75 1.85 3.0 0.0 3.0 0.0 2.75 0.15 2.75 0.15 0.0 1.8 0.0 1.8 1.1 2.0 1.2 2.1 1.45 2.1 2.3 2.15 2.5 2.25 2.55 2.55 2.3" fill="#333333" fill-opacity="0.49803922" fill-rule="evenodd" stroke="none"/>
  </g>
</svg>
