<?xml version="1.0" encoding="UTF-8" standalone="no"?>
<svg xmlns:ffdec="https://www.free-decompiler.com/flash" xmlns:xlink="http://www.w3.org/1999/xlink" ffdec:objectType="shape" height="13.6px" width="2.0px" xmlns="http://www.w3.org/2000/svg">
  <g transform="matrix(1.0, 0.0, 0.0, 1.0, 0.85, 11.75)">
    <path d="M0.45 1.65 L0.6 1.65 0.45 -11.15 0.3 -11.15 0.0 -11.15 -0.15 -11.15 -0.3 1.65 -0.15 1.65 0.45 1.65 M0.85 1.75 L-0.5 1.75 -0.3 -11.25 0.6 -11.25 0.85 1.75" fill="#35090e" fill-rule="evenodd" stroke="none"/>
    <path d="M0.45 1.65 L-0.15 1.65 0.0 -11.15 0.3 -11.15 0.45 1.65" fill="#761023" fill-rule="evenodd" stroke="none"/>
    <path d="M0.3 -11.15 L0.45 -11.15 0.6 1.65 0.45 1.65 0.3 -11.15 M-0.15 1.65 L-0.3 1.65 -0.15 -11.15 0.0 -11.15 -0.15 1.65" fill="#500d16" fill-rule="evenodd" stroke="none"/>
    <path d="M0.85 -11.5 L0.95 -11.25 1.15 1.75 1.05 1.85 0.85 1.85 -0.5 1.85 -0.75 1.85 -0.85 1.75 -0.65 -11.25 -0.55 -11.5 -0.3 -11.75 0.6 -11.75 0.85 -11.5 M0.85 1.75 L0.6 -11.25 -0.3 -11.25 -0.5 1.75 0.85 1.75" fill="#292929" fill-opacity="0.2" fill-rule="evenodd" stroke="none"/>
  </g>
</svg>
