<?xml version="1.0" encoding="UTF-8" standalone="no"?>
<svg xmlns:ffdec="https://www.free-decompiler.com/flash" xmlns:xlink="http://www.w3.org/1999/xlink" ffdec:objectType="shape" height="119.05px" width="240.25px" xmlns="http://www.w3.org/2000/svg">
  <g transform="matrix(1.0, 0.0, 0.0, 1.0, -9.75, -11.6)">
    <path d="M150.25 14.45 L150.5 15.4 150.5 15.5 148.95 15.5 148.95 15.45 148.55 14.75 Q148.2 14.5 147.85 14.5 147.3 14.5 146.9 14.95 146.5 15.35 146.4 16.1 146.4 16.85 146.7 17.25 147.0 17.7 147.55 17.7 148.35 17.7 148.8 16.8 L148.85 16.75 150.4 16.75 150.4 16.85 Q150.0 17.95 149.25 18.5 148.45 19.15 147.45 19.15 146.25 19.15 145.55 18.25 144.75 17.3 144.9 16.1 145.0 14.8 145.9 13.95 146.8 13.05 148.0 13.05 149.6 13.05 150.25 14.45 M141.95 14.95 L141.15 17.05 142.4 17.05 141.95 14.95 M142.95 19.15 L142.75 18.25 140.6 18.25 140.2 19.15 138.5 19.15 141.5 13.05 142.75 13.05 144.65 19.15 142.95 19.15 M151.45 13.05 L153.0 13.05 152.8 15.35 154.8 15.35 155.0 13.05 156.55 13.05 156.0 19.15 154.45 19.15 154.65 16.7 152.65 16.7 152.45 19.15 150.9 19.15 151.45 13.05 M160.15 14.4 L159.75 19.15 158.2 19.15 158.6 14.4 157.4 14.4 157.5 13.05 161.5 13.05 161.4 14.4 160.15 14.4 M129.6 13.05 L131.1 13.05 130.6 19.15 129.2 19.15 127.25 15.45 126.9 19.15 125.4 19.15 125.95 13.05 127.3 13.05 129.3 16.9 129.6 13.05 M122.2 16.75 L120.3 16.75 120.2 17.8 122.1 17.8 122.0 19.15 118.6 19.15 119.15 13.05 122.55 13.05 122.4 14.4 120.5 14.4 120.45 15.35 122.35 15.35 122.2 16.75 M125.0 13.05 L124.45 19.15 122.9 19.15 123.45 13.05 125.0 13.05 M136.5 13.05 L138.5 13.05 138.0 19.15 136.55 19.15 136.95 14.55 135.3 19.15 134.25 19.15 133.35 14.55 132.95 19.15 131.55 19.15 132.05 13.05 134.1 13.05 134.95 17.05 136.5 13.05 M108.0 19.6 L107.7 19.6 107.85 19.35 108.0 19.6 M106.0 15.65 L106.2 16.05 104.55 19.35 104.65 19.6 104.0 19.6 106.0 15.65 M102.65 15.65 L102.8 15.9 100.95 19.6 100.25 19.6 104.15 12.0 104.35 12.4 102.65 15.65 M101.25 12.8 L101.55 13.45 98.45 19.6 97.8 19.6 101.25 12.8 M101.85 14.05 L102.2 14.7 99.7 19.6 99.05 19.6 101.85 14.05 M105.35 14.45 L105.55 14.85 103.9 18.1 104.05 18.35 103.4 19.6 102.75 19.6 105.35 14.45 M104.75 13.2 L104.95 13.6 103.3 16.9 103.4 17.15 102.2 19.6 101.5 19.6 104.75 13.2 M107.25 18.1 L107.45 18.5 106.9 19.6 106.5 19.6 107.25 18.1 M106.6 16.9 L106.8 17.3 105.65 19.6 105.25 19.6 106.6 16.9 M114.65 17.05 L116.2 13.05 118.25 13.05 117.7 19.15 116.25 19.15 116.65 14.55 115.0 19.15 113.95 19.15 113.1 14.55 112.7 19.15 111.25 19.15 111.8 13.05 113.8 13.05 114.65 17.05 M97.2 19.6 L96.55 19.6 100.6 11.6 100.95 12.25 97.2 19.6" fill="#565656" fill-rule="evenodd" stroke="none"/>
    <path d="M250.0 30.75 L10.0 30.75 10.0 29.25 250.0 29.25 250.0 30.75 M250.0 111.25 L10.0 111.25 10.0 109.75 250.0 109.75 250.0 111.25" fill="#565656" fill-opacity="0.8" fill-rule="evenodd" stroke="none"/>
    <path d="M220.7 124.75 L220.7 127.5 195.6 127.5 195.6 124.75 220.7 124.75 M99.1 130.25 L99.1 126.5 93.7 130.25 93.7 121.95 99.1 125.65 99.1 121.95 105.15 126.1 99.1 130.25 M15.75 126.5 L15.75 130.25 9.75 126.1 15.75 121.95 15.75 125.65 21.2 121.95 21.2 130.25 15.75 126.5 M75.15 126.15 L68.65 130.6 68.65 121.65 75.15 126.15 M46.25 121.65 L46.25 130.6 39.75 126.15 46.25 121.65" fill="#565656" fill-opacity="0.8" fill-rule="evenodd" stroke="none"/>
    <path d="M220.7 127.5 L220.7 124.75 249.6 124.75 249.6 127.5 220.7 127.5" fill="#565656" fill-opacity="0.29803923" fill-rule="evenodd" stroke="none"/>
    <path d="M191.5 130.65 L188.1 128.3 188.1 128.35 184.5 128.35 184.5 124.0 188.0 124.0 191.5 121.6 191.5 130.65" fill="#707070" fill-opacity="0.8" fill-rule="evenodd" stroke="none"/>
    <path d="M246.35 79.25 Q246.35 81.35 245.05 82.85 243.75 84.35 241.9 84.35 240.05 84.35 238.7 82.85 237.4 81.35 237.4 79.25 237.4 77.15 238.7 75.65 240.05 74.15 241.9 74.15 L242.95 74.3 242.95 58.35 222.8 65.6 222.8 87.45 Q222.8 89.55 221.5 91.05 220.2 92.55 218.35 92.55 216.5 92.55 215.2 91.05 213.9 89.55 213.9 87.45 213.9 85.35 215.2 83.85 216.5 82.35 218.35 82.35 L219.45 82.5 219.45 58.6 246.35 48.95 246.35 79.25" fill="#d6d6d6" fill-opacity="0.49803922" fill-rule="evenodd" stroke="none"/>
  </g>
</svg>
