<?xml version="1.0" encoding="UTF-8" standalone="no"?>
<svg xmlns:ffdec="https://www.free-decompiler.com/flash" xmlns:xlink="http://www.w3.org/1999/xlink" ffdec:objectType="shape" height="21.8px" width="2.15px" xmlns="http://www.w3.org/2000/svg">
  <g transform="matrix(1.0, 0.0, 0.0, 1.0, 1.05, 18.15)">
    <path d="M0.25 -17.4 L0.5 3.65 -0.35 3.65 -0.15 -17.4 0.25 -17.4" fill="#7c673a" fill-opacity="0.9019608" fill-rule="evenodd" stroke="none"/>
    <path d="M-0.65 2.75 L-0.5 -17.9 0.5 -17.9 0.75 2.75 0.5 2.75 0.35 -17.8 0.15 -17.8 -0.15 -17.8 -0.35 -17.8 -0.45 2.75 -0.65 2.75" fill="#382222" fill-rule="evenodd" stroke="none"/>
    <path d="M0.5 2.75 L0.35 2.75 0.15 -17.8 0.35 -17.8 0.5 2.75 M-0.25 2.75 L-0.45 2.75 -0.35 -17.8 -0.15 -17.8 -0.25 2.75" fill="#737474" fill-rule="evenodd" stroke="none"/>
    <path d="M-0.65 2.75 L-1.05 2.75 -0.9 -17.9 -0.7 -18.05 -0.5 -18.15 0.5 -18.15 0.7 -18.05 0.9 -17.9 1.1 2.75 0.75 2.75 0.5 -17.9 -0.5 -17.9 -0.65 2.75" fill="#292929" fill-opacity="0.2" fill-rule="evenodd" stroke="none"/>
    <path d="M0.35 2.75 L-0.25 2.75 -0.15 -17.8 0.15 -17.8 0.35 2.75" fill="#b7b7b7" fill-rule="evenodd" stroke="none"/>
  </g>
</svg>
