<?xml version="1.0" encoding="UTF-8" standalone="no"?>
<svg xmlns:ffdec="https://www.free-decompiler.com/flash" xmlns:xlink="http://www.w3.org/1999/xlink" ffdec:objectType="shape" height="26.45px" width="3.5px" xmlns="http://www.w3.org/2000/svg">
  <g transform="matrix(1.0, 0.0, 0.0, 1.0, 1.65, 22.6)">
    <path d="M1.25 3.85 L1.0 -21.9 -0.85 -21.9 -1.0 3.85 -1.65 3.85 -1.45 -21.9 -1.25 -22.35 -0.85 -22.6 1.0 -22.6 1.4 -22.35 1.65 -21.9 1.85 3.85 1.25 3.85" fill="#292929" fill-opacity="0.2" fill-rule="evenodd" stroke="none"/>
    <path d="M0.8 3.85 L0.65 -21.55 0.4 -21.55 -0.25 -21.55 -0.5 -21.55 -0.6 3.85 -1.0 3.85 -0.85 -21.9 1.0 -21.9 1.25 3.85 0.8 3.85" fill="#575757" fill-rule="evenodd" stroke="none"/>
    <path d="M0.4 -21.55 L0.65 -21.55 0.8 3.85 0.55 3.85 0.4 -21.55 M-0.6 3.85 L-0.5 -21.55 -0.25 -21.55 -0.3 3.85 -0.6 3.85" fill="#8c8c8c" fill-rule="evenodd" stroke="none"/>
    <path d="M-0.25 -21.55 L0.4 -21.55 0.55 3.85 -0.3 3.85 -0.25 -21.55" fill="#c3c3c3" fill-rule="evenodd" stroke="none"/>
  </g>
</svg>
