<?xml version="1.0" encoding="UTF-8" standalone="no"?>
<svg xmlns:ffdec="https://www.free-decompiler.com/flash" xmlns:xlink="http://www.w3.org/1999/xlink" ffdec:objectType="shape" height="13.7px" width="88.25px" xmlns="http://www.w3.org/2000/svg">
  <g transform="matrix(1.0, 0.0, 0.0, 1.0, -210.65, -162.9)">
    <path d="M212.4 176.6 L210.7 176.6 210.65 175.35 Q210.55 171.7 212.35 168.85 L212.95 167.95 213.4 167.4 213.65 167.1 214.15 166.55 214.7 166.1 215.0 165.8 215.5 165.4 216.45 164.75 Q219.35 162.9 223.1 162.9 228.1 162.9 231.75 166.55 235.4 170.2 235.55 175.35 L235.45 176.6 233.6 176.6 233.65 175.25 Q233.65 170.95 230.5 167.8 227.35 164.65 223.05 164.65 220.1 164.65 217.75 166.0 L216.8 166.65 216.25 167.05 215.95 167.3 215.4 167.8 214.9 168.35 214.65 168.65 214.2 169.2 213.65 170.15 Q212.3 172.5 212.35 175.35 L212.4 176.6 M275.75 176.6 L274.05 176.6 274.0 175.4 Q273.9 171.75 275.7 168.9 L276.3 168.0 276.75 167.45 277.0 167.15 277.5 166.6 278.0 166.15 278.35 165.85 278.85 165.45 279.8 164.8 Q282.7 162.95 286.45 162.95 291.45 162.95 295.1 166.6 298.75 170.25 298.9 175.4 L298.85 176.6 296.95 176.6 297.0 175.3 Q297.0 171.0 293.85 167.85 290.7 164.7 286.4 164.7 283.45 164.7 281.1 166.05 280.6 166.35 280.15 166.7 279.85 166.85 279.65 167.1 L279.3 167.4 278.75 167.85 278.25 168.4 278.0 168.7 277.55 169.25 276.95 170.2 Q275.65 172.55 275.7 175.4 L275.75 176.6" fill="#000000" fill-rule="evenodd" stroke="none"/>
    <path d="M212.4 176.6 L212.35 175.35 Q212.3 172.5 213.65 170.15 L214.2 169.2 214.65 168.65 214.9 168.35 215.4 167.8 215.95 167.3 216.25 167.05 216.8 166.65 217.75 166.0 Q220.1 164.65 223.05 164.65 227.35 164.65 230.5 167.8 233.65 170.95 233.65 175.25 L233.6 176.6 232.7 176.6 232.75 175.35 Q232.75 171.35 229.85 168.45 226.95 165.55 222.95 165.55 220.45 165.55 218.4 166.7 217.9 166.95 217.45 167.3 L216.95 167.7 216.6 167.95 216.05 168.45 215.55 169.0 215.3 169.35 214.85 169.9 214.3 170.8 Q213.15 172.85 213.15 175.35 L213.25 176.6 212.4 176.6 M275.75 176.6 L275.7 175.4 Q275.65 172.55 276.95 170.2 L277.55 169.25 278.0 168.7 278.25 168.4 278.75 167.85 279.3 167.4 279.65 167.1 Q279.85 166.85 280.15 166.7 280.6 166.35 281.1 166.05 283.45 164.7 286.4 164.7 290.7 164.7 293.85 167.85 297.0 171.0 297.0 175.3 L296.95 176.6 296.05 176.6 296.1 175.4 Q296.1 171.4 293.2 168.5 290.3 165.6 286.3 165.6 283.8 165.6 281.75 166.75 281.25 167.0 280.8 167.35 L280.3 167.75 279.95 168.0 279.4 168.5 278.9 169.05 278.65 169.4 278.2 169.95 277.65 170.85 Q276.5 172.9 276.5 175.4 L276.6 176.6 275.75 176.6" fill="#1b1a1c" fill-rule="evenodd" stroke="none"/>
    <path d="M232.7 176.6 L213.25 176.6 213.15 175.35 Q213.15 172.85 214.3 170.8 L214.85 169.9 215.3 169.35 215.55 169.0 216.05 168.45 216.6 167.95 216.95 167.7 217.45 167.3 Q217.9 166.95 218.4 166.7 220.45 165.55 222.95 165.55 226.95 165.55 229.85 168.45 232.75 171.35 232.75 175.35 L232.7 176.6 M296.05 176.6 L276.6 176.6 276.5 175.4 Q276.5 172.9 277.65 170.85 L278.2 169.95 278.65 169.4 278.9 169.05 279.4 168.5 279.95 168.0 280.3 167.75 280.8 167.35 Q281.25 167.0 281.75 166.75 283.8 165.6 286.3 165.6 290.3 165.6 293.2 168.5 296.1 171.4 296.1 175.4 L296.05 176.6" fill="#131517" fill-rule="evenodd" stroke="none"/>
  </g>
</svg>
