<?xml version="1.0" encoding="UTF-8" standalone="no"?>
<svg xmlns:ffdec="https://www.free-decompiler.com/flash" xmlns:xlink="http://www.w3.org/1999/xlink" ffdec:objectType="shape" height="14.3px" width="10.85px" xmlns="http://www.w3.org/2000/svg">
  <g transform="matrix(1.0, 0.0, 0.0, 1.0, -1.0, -1.0)">
    <path d="M5.3 8.7 L5.3 10.95 Q5.3 11.45 5.65 11.8 L6.45 12.15 Q6.95 12.15 7.25 11.8 L7.6 10.95 7.6 8.7 Q7.4 7.65 6.45 7.65 6.0 7.65 5.65 7.95 L5.3 8.7 M6.45 1.0 Q8.0 1.0 9.1 2.15 10.2 3.35 10.2 4.95 L11.85 4.95 11.85 15.3 1.0 15.3 1.0 4.95 2.65 4.95 Q2.65 3.35 3.75 2.15 4.9 1.0 6.45 1.0 M8.7 4.95 Q8.7 4.0 8.05 3.3 7.35 2.6 6.45 2.6 5.5 2.6 4.85 3.3 4.15 4.0 4.15 4.95 L8.7 4.95" fill="#ffffff" fill-rule="evenodd" stroke="none"/>
  </g>
</svg>
