<?xml version="1.0" encoding="UTF-8" standalone="no"?>
<svg xmlns:ffdec="https://www.free-decompiler.com/flash" xmlns:xlink="http://www.w3.org/1999/xlink" ffdec:objectType="shape" height="111.6px" width="151.65px" xmlns="http://www.w3.org/2000/svg">
  <g transform="matrix(1.0, 0.0, 0.0, 1.0, 57.0, 51.35)">
    <path d="M94.65 -51.35 L94.65 60.25 -57.0 60.25 -57.0 -51.35 94.65 -51.35" fill="#424242" fill-rule="evenodd" stroke="none"/>
    <path d="M48.0 48.5 L67.0 48.5 67.0 54.3 48.0 54.3 48.0 48.5" fill="#424242" fill-rule="evenodd" stroke="none"/>
    <path d="M86.25 -33.75 L86.25 -16.5 68.25 -16.5 68.25 13.5 65.25 13.5 65.25 16.5 67.5 16.5 67.5 54.3 -50.0 54.3 -50.0 -44.7 50.0 -44.7 50.0 16.5 53.0 16.5 53.0 13.5 51.25 13.5 51.25 -33.75 86.25 -33.75" fill="#959595" fill-rule="evenodd" stroke="none"/>
    <path d="M-49.35 -19.2 L-41.85 -19.2 -41.85 8.5 -49.35 8.5 -49.35 -19.2" fill="#6f6f6f" fill-rule="evenodd" stroke="none"/>
    <path d="M-49.5 36.5 L-49.5 9.5 -41.7 9.5 -41.7 36.5 -49.5 36.5" fill="#6f6f6f" fill-rule="evenodd" stroke="none"/>
    <path d="M49.8 -19.4 L50.0 -19.4 50.0 4.25 43.15 4.25 43.15 -17.6 43.0 -17.6 43.0 -21.75 49.8 -21.75 49.8 -19.4" fill="#6f6f6f" fill-rule="evenodd" stroke="none"/>
    <path d="M50.1 -35.75 L50.15 -35.75 50.15 -23.0 47.55 -23.0 47.55 -34.75 47.5 -34.75 47.5 -37.0 50.1 -37.0 50.1 -35.75" fill="#6f6f6f" fill-rule="evenodd" stroke="none"/>
    <path d="M49.75 -39.0 L34.5 -39.0 34.5 -35.0 -43.0 -35.0 -43.0 -35.5 -49.75 -35.5 -49.75 -43.25 -45.0 -43.25 -45.0 -44.7 49.75 -44.7 49.75 -39.0" fill="#6f6f6f" fill-rule="evenodd" stroke="none"/>
    <path d="M-45.75 53.25 L-47.4 53.2 -48.6 52.1 -48.85 50.5 -48.0 49.1 -46.45 48.6 -44.95 49.2 -44.2 50.65 -44.5 52.2 -45.75 53.25" fill="#6f6f6f" fill-rule="evenodd" stroke="none"/>
    <path d="M-45.95 43.45 L-45.2 44.9 -45.5 46.45 -46.75 47.5 -48.4 47.45 -49.6 46.35 -49.85 44.75 -49.0 43.35 -47.45 42.85 -45.95 43.45" fill="#6f6f6f" fill-rule="evenodd" stroke="none"/>
    <path d="M66.3 43.45 L67.05 44.9 66.75 46.45 65.5 47.5 63.85 47.45 62.65 46.35 62.4 44.75 63.25 43.35 64.8 42.85 66.3 43.45" fill="#6f6f6f" fill-rule="evenodd" stroke="none"/>
    <path d="M-50.1 -33.0 L-49.25 -34.4 -47.7 -34.9 -46.2 -34.3 -45.45 -32.85 -45.75 -31.3 -47.0 -30.25 -48.65 -30.3 -49.85 -31.4 -50.1 -33.0" fill="#6f6f6f" fill-rule="evenodd" stroke="none"/>
    <path d="M47.5 48.75 L67.0 48.75 67.0 54.3 47.5 54.3 47.5 48.75" fill="#6f6f6f" fill-rule="evenodd" stroke="none"/>
    <path d="M65.25 16.5 L53.0 16.5 53.0 13.5 65.25 13.5 65.25 16.5" fill="#ffffff" fill-rule="evenodd" stroke="none"/>
    <path d="M65.25 -33.75 L53.0 -33.75 53.0 -36.75 65.25 -36.75 65.25 -33.75" fill="#ffffff" fill-rule="evenodd" stroke="none"/>
    <path d="M26.55 60.25 L-33.65 60.25 -33.65 54.3 26.55 54.3 26.55 60.25" fill="#ffffff" fill-rule="evenodd" stroke="none"/>
  </g>
</svg>
