<?xml version="1.0" encoding="UTF-8" standalone="no"?>
<svg xmlns:ffdec="https://www.free-decompiler.com/flash" xmlns:xlink="http://www.w3.org/1999/xlink" ffdec:objectType="shape" height="152.95px" width="160.45px" xmlns="http://www.w3.org/2000/svg">
  <g transform="matrix(1.0, 0.0, 0.0, 1.0, 81.95, 81.95)">
    <path d="M-4.95 -81.95 L-4.95 -75.95 58.5 -75.95 58.5 -80.45 61.0 -80.45 61.0 -75.95 78.5 -75.95 78.5 -5.45 77.5 -5.45 77.5 9.05 78.5 9.05 78.5 10.05 77.5 10.05 77.5 35.05 78.0 35.05 78.0 37.05 77.5 37.05 77.5 61.0 78.0 61.0 78.0 62.0 77.5 62.0 77.5 71.0 60.0 71.0 60.0 67.5 -64.95 67.5 -64.95 71.0 -81.95 71.0 -81.95 -75.95 -11.45 -75.95 -11.45 -81.95 -4.95 -81.95" fill="#424242" fill-rule="evenodd" stroke="none"/>
    <path d="M-10.45 -28.95 L34.55 -28.95 34.55 -31.95 10.05 -31.95 10.05 -58.95 47.5 -58.95 47.5 -55.95 51.5 -55.95 51.5 -52.45 53.5 -52.45 53.5 -53.95 71.0 -53.95 71.0 -37.95 53.5 -37.95 53.5 -38.95 51.5 -38.95 51.5 -31.95 47.5 -31.95 47.5 -28.95 73.0 -28.95 73.0 64.5 32.55 64.5 32.55 66.5 10.05 66.5 10.05 64.5 -74.95 64.5 -74.95 -67.95 -10.45 -67.95 -10.45 -54.95 -7.95 -54.95 -7.95 -41.95 -10.45 -41.95 -10.45 -28.95" fill="#959595" fill-rule="evenodd" stroke="none"/>
    <path d="M46.05 60.5 L46.05 27.05 57.0 27.05 57.0 60.5 46.05 60.5" fill="#6f6f6f" fill-rule="evenodd" stroke="none"/>
    <path d="M49.0 -28.95 L71.0 -28.95 71.0 -23.95 49.0 -23.95 49.0 -28.95" fill="#6f6f6f" fill-rule="evenodd" stroke="none"/>
    <path d="M47.5 -20.95 L58.5 -20.95 58.5 26.05 47.5 26.05 47.5 -20.95" fill="#6f6f6f" fill-rule="evenodd" stroke="none"/>
    <path d="M9.55 32.05 L9.55 17.05 16.05 17.05 16.05 32.05 9.55 32.05" fill="#6f6f6f" fill-rule="evenodd" stroke="none"/>
    <path d="M-9.95 26.05 L2.05 26.55 2.05 41.05 -3.95 41.05 -3.95 30.05 Q-3.95 35.55 -4.45 40.55 L-10.45 40.55 Q-9.95 33.55 -9.95 26.05" fill="#6f6f6f" fill-rule="evenodd" stroke="none"/>
    <path d="M-32.45 24.55 L-26.45 24.55 -26.45 43.55 -32.45 43.55 -32.45 24.55" fill="#6f6f6f" fill-rule="evenodd" stroke="none"/>
    <path d="M-25.45 24.55 L-19.45 24.55 -19.45 43.55 -25.45 43.55 -25.45 24.55" fill="#6f6f6f" fill-rule="evenodd" stroke="none"/>
    <path d="M-40.95 33.05 L-40.95 39.05 -58.95 39.05 -58.95 33.05 -40.95 33.05" fill="#6f6f6f" fill-rule="evenodd" stroke="none"/>
    <path d="M-58.95 53.0 L-58.95 47.5 -40.95 47.5 -40.95 53.0 -58.95 53.0" fill="#6f6f6f" fill-rule="evenodd" stroke="none"/>
    <path d="M-36.45 15.05 L-36.45 8.55 -17.95 8.55 -17.95 15.05 -36.45 15.05" fill="#6f6f6f" fill-rule="evenodd" stroke="none"/>
    <path d="M-10.95 64.5 L-10.95 55.0 7.55 55.0 7.55 64.5 -10.95 64.5" fill="#6f6f6f" fill-rule="evenodd" stroke="none"/>
    <path d="M-34.45 64.5 L-34.45 59.0 -18.95 59.0 -18.95 64.5 -34.45 64.5" fill="#6f6f6f" fill-rule="evenodd" stroke="none"/>
    <path d="M-74.95 53.5 L-74.95 49.5 -69.45 49.5 -69.45 53.5 -74.95 53.5" fill="#6f6f6f" fill-rule="evenodd" stroke="none"/>
    <path d="M-74.95 46.5 L-74.95 42.55 -69.45 42.55 -69.45 46.5 -74.95 46.5" fill="#6f6f6f" fill-rule="evenodd" stroke="none"/>
    <path d="M-69.45 35.05 L-69.45 39.55 -74.95 39.55 -74.95 35.05 -69.45 35.05" fill="#6f6f6f" fill-rule="evenodd" stroke="none"/>
    <path d="M-69.45 28.05 L-69.45 32.55 -74.95 32.55 -74.95 28.05 -69.45 28.05" fill="#6f6f6f" fill-rule="evenodd" stroke="none"/>
    <path d="M-69.45 22.05 L-69.45 26.05 -74.95 26.05 -74.95 22.05 -69.45 22.05" fill="#6f6f6f" fill-rule="evenodd" stroke="none"/>
    <path d="M-69.45 14.05 L-69.45 18.55 -74.95 18.55 -74.95 14.05 -69.45 14.05" fill="#6f6f6f" fill-rule="evenodd" stroke="none"/>
    <path d="M-74.95 -28.95 L-68.95 -28.95 -68.95 -13.95 -69.45 -13.95 -69.45 6.55 -74.95 6.55 -74.95 -28.95" fill="#6f6f6f" fill-rule="evenodd" stroke="none"/>
    <path d="M2.55 9.55 L2.55 24.05 -3.95 24.05 -3.95 9.55 2.55 9.55" fill="#6f6f6f" fill-rule="evenodd" stroke="none"/>
    <path d="M-4.45 9.55 L-4.45 23.55 -10.45 23.55 -10.45 9.55 -4.45 9.55" fill="#6f6f6f" fill-rule="evenodd" stroke="none"/>
    <path d="M-69.95 -39.95 L-69.95 -34.95 -74.95 -34.95 -74.95 -39.95 -69.95 -39.95" fill="#6f6f6f" fill-rule="evenodd" stroke="none"/>
    <path d="M-69.95 -46.45 L-69.95 -41.45 -74.95 -41.45 -74.95 -46.45 -69.95 -46.45" fill="#6f6f6f" fill-rule="evenodd" stroke="none"/>
    <path d="M-69.95 -53.95 L-69.95 -49.45 -74.95 -49.45 -74.95 -53.95 -69.95 -53.95" fill="#6f6f6f" fill-rule="evenodd" stroke="none"/>
    <path d="M-64.95 -62.95 L-64.95 -67.95 -59.95 -67.95 -59.95 -62.95 -64.95 -62.95" fill="#6f6f6f" fill-rule="evenodd" stroke="none"/>
    <path d="M-52.95 -67.95 L-52.95 -62.95 -58.45 -62.95 -58.45 -67.95 -52.95 -67.95" fill="#6f6f6f" fill-rule="evenodd" stroke="none"/>
    <path d="M-45.95 -67.95 L-45.95 -62.95 -51.45 -62.95 -51.45 -67.95 -45.95 -67.95" fill="#6f6f6f" fill-rule="evenodd" stroke="none"/>
    <path d="M-4.45 -6.95 L-4.45 -15.45 21.05 -15.45 21.05 -6.95 -4.45 -6.95" fill="#6f6f6f" fill-rule="evenodd" stroke="none"/>
    <path d="M-4.45 -24.45 L-4.45 -28.95 21.05 -28.95 21.05 -24.45 -4.45 -24.45" fill="#6f6f6f" fill-rule="evenodd" stroke="none"/>
    <path d="M23.05 -24.45 L23.05 -28.95 31.05 -28.95 31.05 -24.45 23.05 -24.45" fill="#6f6f6f" fill-rule="evenodd" stroke="none"/>
    <path d="M-7.95 -23.45 L-7.95 -27.45 -2.95 -27.45 -2.95 -23.45 -7.95 -23.45" fill="#6f6f6f" fill-rule="evenodd" stroke="none"/>
    <path d="M-12.45 -7.45 L-12.45 -14.95 -4.95 -14.95 -4.95 -7.45 -12.45 -7.45" fill="#6f6f6f" fill-rule="evenodd" stroke="none"/>
    <path d="M-15.95 -27.45 L-15.95 -31.45 -11.45 -31.45 -11.45 -27.45 -15.95 -27.45" fill="#6f6f6f" fill-rule="evenodd" stroke="none"/>
    <path d="M-17.45 -31.45 L-17.45 -39.95 -11.45 -39.95 -11.45 -31.45 -17.45 -31.45" fill="#6f6f6f" fill-rule="evenodd" stroke="none"/>
    <path d="M15.05 -58.95 L15.05 -31.95 10.05 -31.95 10.05 -58.95 15.05 -58.95" fill="#6f6f6f" fill-rule="evenodd" stroke="none"/>
    <path d="M-56.45 -18.95 L-57.45 -42.95 -51.95 -42.95 -50.95 -18.95 -56.45 -18.95" fill="#6f6f6f" fill-rule="evenodd" stroke="none"/>
    <path d="M-30.95 -40.95 Q-31.45 -28.95 -32.45 -16.95 L-37.45 -16.95 Q-36.45 -28.95 -35.95 -40.95 L-30.95 -40.95" fill="#6f6f6f" fill-rule="evenodd" stroke="none"/>
    <path d="M-73.95 -62.45 L-71.95 -66.45 Q-69.45 -64.95 -66.95 -63.95 -67.95 -61.95 -69.45 -59.95 L-73.95 -62.45" fill="#6f6f6f" fill-rule="evenodd" stroke="none"/>
    <path d="M48.0 -10.45 L48.0 -2.45 41.05 -2.45 41.05 -10.45 48.0 -10.45" fill="#6f6f6f" fill-rule="evenodd" stroke="none"/>
    <path d="M14.55 14.05 L12.05 16.05 10.05 14.05 12.55 12.05 14.55 14.05" fill="#6f6f6f" fill-rule="evenodd" stroke="none"/>
    <path d="M13.55 35.55 L11.05 37.55 9.05 35.55 11.55 33.55 13.55 35.55" fill="#6f6f6f" fill-rule="evenodd" stroke="none"/>
    <path d="M26.05 -10.95 Q25.05 -9.95 23.55 -9.45 23.05 -10.95 22.05 -12.45 L25.05 -13.45 26.05 -10.95" fill="#6f6f6f" fill-rule="evenodd" stroke="none"/>
    <path d="M10.05 64.0 L8.55 64.0 8.55 60.0 10.05 60.0 10.05 64.0" fill="#6f6f6f" fill-rule="evenodd" stroke="none"/>
    <path d="M35.05 64.5 L33.55 64.5 33.55 60.5 35.05 60.5 35.05 64.5" fill="#6f6f6f" fill-rule="evenodd" stroke="none"/>
    <path d="M-50.95 -19.45 L-55.95 -18.95 -56.95 -42.45 -52.45 -42.95 Q-51.45 -30.95 -50.95 -19.45" fill="#6f6f6f" fill-rule="evenodd" stroke="none"/>
    <path d="M-17.95 -61.45 L-28.95 -61.45 -28.95 -67.45 -17.95 -67.45 -17.95 -61.45" fill="#6f6f6f" fill-rule="evenodd" stroke="none"/>
    <path d="M-31.45 -65.45 L-40.45 -65.45 -40.45 -67.45 -31.45 -67.45 -31.45 -65.45" fill="#6f6f6f" fill-rule="evenodd" stroke="none"/>
    <path d="M41.55 -49.95 L35.05 -48.95 Q35.05 -52.95 34.55 -56.95 L41.05 -57.95 Q41.55 -53.95 41.55 -49.95" fill="#6f6f6f" fill-rule="evenodd" stroke="none"/>
    <path d="M33.55 -49.95 L24.55 -49.95 24.55 -57.45 33.55 -57.45 33.55 -49.95" fill="#6f6f6f" fill-rule="evenodd" stroke="none"/>
    <path d="M17.55 -47.45 Q17.05 -52.45 16.05 -57.45 L22.55 -57.95 23.55 -48.45 17.55 -47.45" fill="#6f6f6f" fill-rule="evenodd" stroke="none"/>
    <path d="M70.0 55.0 L73.0 57.5 73.0 64.5 62.5 64.5 62.5 62.5 Q66.5 59.0 70.0 55.0" fill="#6f6f6f" fill-rule="evenodd" stroke="none"/>
    <path d="M32.55 67.5 L10.05 67.5 10.05 64.5 32.55 64.5 32.55 67.5" fill="#ffffff" fill-rule="evenodd" stroke="none"/>
  </g>
</svg>
