<?xml version="1.0" encoding="UTF-8" standalone="no"?>
<svg xmlns:ffdec="https://www.free-decompiler.com/flash" xmlns:xlink="http://www.w3.org/1999/xlink" ffdec:objectType="shape" height="249.95px" width="368.95px" xmlns="http://www.w3.org/2000/svg">
  <g transform="matrix(1.0, 0.0, 0.0, 1.0, 171.45, 139.95)">
    <path d="M-171.45 59.5 L-171.45 -139.95 197.5 -139.95 197.5 110.0 -120.45 110.0 -125.95 105.0 -127.45 106.0 -130.95 106.0 -166.95 70.0 -167.95 66.5 Q-166.95 65.5 -166.45 64.5 L-171.45 59.5" fill="#424242" fill-rule="evenodd" stroke="none"/>
    <path d="M65.0 -98.95 L63.0 -102.45 Q63.0 -104.45 62.5 -106.95 L64.5 -110.45 67.5 -112.95 72.0 -113.95 74.5 -113.95 74.5 -132.45 144.0 -132.45 144.0 -106.95 112.5 -106.95 Q112.5 -103.95 112.0 -101.45 L109.0 -98.45 105.5 -96.45 72.5 -96.45 68.5 -96.95 65.0 -98.95" fill="#ffffff" fill-rule="evenodd" stroke="none"/>
    <path d="M-155.95 -132.45 L-109.95 -132.45 -109.95 -86.45 -129.95 -86.45 -129.95 -110.45 -135.95 -110.45 -135.95 -86.45 -155.95 -86.45 -155.95 -132.45" fill="#ffffff" fill-rule="evenodd" stroke="none"/>
    <path d="M146.0 -132.45 L146.0 -106.95 99.0 -106.95 99.0 -98.95 76.5 -98.95 76.5 -132.45 146.0 -132.45" fill="#ffffff" fill-rule="evenodd" stroke="none"/>
    <path d="M146.0 -132.45 L189.0 -132.45 189.0 -59.45 174.0 -59.45 174.0 -55.95 189.0 -55.95 189.0 -34.95 145.5 -34.95 145.5 -22.45 148.0 -22.45 148.0 -32.45 189.0 -32.45 189.0 17.55 148.0 17.55 148.0 -9.45 145.5 -9.45 145.5 26.55 148.0 26.55 148.0 20.05 189.0 20.05 189.0 95.0 177.0 95.0 Q173.0 97.5 168.5 99.5 162.0 97.5 155.5 95.0 L148.0 95.0 148.0 41.55 145.5 41.55 145.5 95.0 124.5 95.0 124.5 82.5 119.5 82.0 119.5 94.5 109.0 94.5 109.0 101.0 68.5 101.0 68.5 94.5 49.0 94.5 49.0 101.0 9.05 101.0 9.05 94.5 -10.95 94.5 -10.95 101.0 -50.95 101.0 -50.95 94.5 -70.95 94.5 -70.95 101.0 -110.95 101.0 -110.95 94.5 -116.45 94.5 -121.45 90.0 -125.45 94.0 -155.45 64.0 -151.45 60.0 -155.95 55.5 -155.95 49.5 -161.95 49.5 -161.95 9.55 -155.95 9.55 -155.95 -10.45 -161.95 -10.45 -161.95 -50.45 -155.95 -50.45 -155.95 -57.45 -142.45 -57.45 -142.45 -61.45 -155.95 -61.45 -155.95 -85.45 -129.95 -85.45 -129.95 -89.95 -109.95 -89.95 -109.95 -61.45 -129.45 -61.45 -129.45 -57.45 -115.95 -57.45 -115.95 -47.95 -110.95 -47.95 -110.95 -10.45 -115.95 -10.45 -115.95 9.05 -108.45 16.55 -105.95 14.55 Q-104.95 14.05 -104.45 13.05 L-102.95 12.05 Q-87.95 27.05 -73.45 42.05 L-78.45 47.0 Q-74.45 51.0 -70.95 55.0 L-50.95 55.0 -50.95 50.0 -10.95 50.0 -10.95 55.0 9.05 55.0 9.05 50.0 49.0 50.0 49.0 55.0 68.5 55.0 68.5 50.0 109.0 50.0 109.0 55.0 119.5 55.0 119.5 67.5 124.5 67.5 124.5 -55.95 161.0 -55.95 161.0 -59.45 148.0 -59.45 148.0 -106.95 146.0 -106.95 146.0 -132.45" fill="#959595" fill-rule="evenodd" stroke="none"/>
    <path d="M109.0 53.5 L68.5 53.5 68.5 51.5 109.0 51.5 109.0 53.5" fill="#6f6f6f" fill-rule="evenodd" stroke="none"/>
    <path d="M49.0 53.5 L9.05 53.5 9.05 51.5 49.0 51.5 49.0 53.5" fill="#6f6f6f" fill-rule="evenodd" stroke="none"/>
    <path d="M-10.95 53.5 L-51.45 53.5 -51.45 51.5 -10.95 51.5 -10.95 53.5" fill="#6f6f6f" fill-rule="evenodd" stroke="none"/>
    <path d="M-104.45 13.05 L-74.45 43.05 Q-74.95 44.05 -75.95 44.55 L-105.95 14.55 Q-104.95 14.05 -104.45 13.05" fill="#6f6f6f" fill-rule="evenodd" stroke="none"/>
    <path d="M63.0 93.0 L54.5 93.0 54.5 87.5 63.0 87.5 63.0 93.0" fill="#6f6f6f" fill-rule="evenodd" stroke="none"/>
    <path d="M24.05 100.0 L11.05 100.0 11.05 78.0 24.05 78.0 24.05 100.0" fill="#6f6f6f" fill-rule="evenodd" stroke="none"/>
    <path d="M47.5 100.0 L43.55 100.0 43.55 94.0 47.5 94.0 47.5 100.0" fill="#6f6f6f" fill-rule="evenodd" stroke="none"/>
    <path d="M-35.95 100.0 L-48.95 100.0 -48.95 78.0 -35.95 78.0 -35.95 100.0" fill="#6f6f6f" fill-rule="evenodd" stroke="none"/>
    <path d="M-12.45 100.0 L-16.45 100.0 -16.45 94.0 -12.45 94.0 -12.45 100.0" fill="#6f6f6f" fill-rule="evenodd" stroke="none"/>
    <path d="M7.05 90.0 L-1.45 91.0 -2.45 81.0 6.05 80.0 7.05 90.0" fill="#6f6f6f" fill-rule="evenodd" stroke="none"/>
    <path d="M-52.45 90.5 L-60.95 91.5 -61.95 81.0 -53.45 80.0 -52.45 90.5" fill="#6f6f6f" fill-rule="evenodd" stroke="none"/>
    <path d="M-160.45 25.05 L-160.45 12.05 -138.45 12.05 -138.45 25.05 -160.45 25.05" fill="#6f6f6f" fill-rule="evenodd" stroke="none"/>
    <path d="M-151.45 6.55 L-152.45 -1.95 -141.95 -2.95 -140.95 5.55 -151.45 6.55" fill="#6f6f6f" fill-rule="evenodd" stroke="none"/>
    <path d="M-112.45 82.5 L-118.45 89.0 -126.45 81.5 -119.95 75.5 -112.45 82.5" fill="#6f6f6f" fill-rule="evenodd" stroke="none"/>
    <path d="M-112.45 82.5 L-118.45 89.0 -126.45 81.5 -119.95 75.5 -112.45 82.5" fill="#6f6f6f" fill-rule="evenodd" stroke="none"/>
    <path d="M-123.45 71.0 L-129.45 77.5 -137.45 70.0 -130.95 64.0 Q-126.95 67.5 -123.45 71.0" fill="#6f6f6f" fill-rule="evenodd" stroke="none"/>
    <path d="M-136.45 59.0 L-142.45 65.5 -150.45 58.0 Q-146.95 55.0 -143.95 52.0 L-136.45 59.0" fill="#6f6f6f" fill-rule="evenodd" stroke="none"/>
    <path d="M-159.95 47.5 L-159.95 43.05 -153.95 43.05 -153.95 47.5 -159.95 47.5" fill="#6f6f6f" fill-rule="evenodd" stroke="none"/>
    <path d="M178.5 74.5 L148.0 74.5 148.0 61.0 178.5 61.0 178.5 74.5" fill="#6f6f6f" fill-rule="evenodd" stroke="none"/>
    <path d="M189.0 -8.95 L189.0 5.05 158.5 5.05 158.5 -8.95 189.0 -8.95" fill="#6f6f6f" fill-rule="evenodd" stroke="none"/>
    <path d="M169.0 52.5 L170.0 51.5 172.0 51.0 174.0 51.5 175.0 53.0 175.5 54.5 Q176.0 56.5 176.0 58.5 L175.0 60.5 166.0 57.5 Q166.5 56.5 166.5 55.5 L169.0 52.5" fill="#6f6f6f" fill-rule="evenodd" stroke="none"/>
    <path d="M174.0 -15.95 L176.0 -18.95 177.5 -19.95 Q178.5 -19.95 179.5 -20.45 180.5 -19.95 181.0 -19.95 L182.5 -18.45 182.5 -16.95 Q183.0 -14.95 183.0 -12.95 183.0 -11.95 182.5 -10.95 L173.0 -13.95 174.0 -15.95" fill="#6f6f6f" fill-rule="evenodd" stroke="none"/>
    <path d="M158.5 52.5 L161.0 55.5 162.0 57.5 152.5 60.5 Q152.5 59.5 152.0 58.5 L152.0 54.5 Q152.5 54.0 152.5 53.0 L153.5 51.5 Q154.5 51.5 155.5 51.0 156.5 51.5 157.5 51.5 L158.5 52.5" fill="#6f6f6f" fill-rule="evenodd" stroke="none"/>
    <path d="M148.0 17.55 L148.0 12.55 153.5 12.55 153.5 17.55 148.0 17.55" fill="#6f6f6f" fill-rule="evenodd" stroke="none"/>
    <path d="M163.5 26.05 L163.5 20.05 189.0 20.05 189.0 26.05 163.5 26.05" fill="#6f6f6f" fill-rule="evenodd" stroke="none"/>
    <path d="M177.0 95.0 L177.0 97.5 174.0 103.5 158.5 103.5 155.5 98.0 155.5 95.0 177.0 95.0" fill="#6f6f6f" fill-rule="evenodd" stroke="none"/>
  </g>
</svg>
