<?xml version="1.0" encoding="UTF-8" standalone="no"?>
<svg xmlns:ffdec="https://www.free-decompiler.com/flash" xmlns:xlink="http://www.w3.org/1999/xlink" ffdec:objectType="shape" height="250.0px" width="368.95px" xmlns="http://www.w3.org/2000/svg">
  <g transform="matrix(1.0, 0.0, 0.0, 1.0, 171.4, 140.2)">
    <path d="M-171.4 59.3 L-171.4 -140.2 197.55 -140.2 197.55 109.8 -120.4 109.8 -125.9 104.8 -127.4 105.8 -130.9 105.8 -166.9 69.8 -167.9 66.3 Q-166.9 65.3 -166.4 64.3 L-171.4 59.3" fill="#424242" fill-rule="evenodd" stroke="none"/>
    <path d="M65.1 -99.2 Q64.1 -100.7 63.1 -102.7 63.1 -104.7 62.6 -107.2 L64.6 -110.7 Q66.1 -111.7 67.6 -113.2 L72.1 -114.2 74.6 -114.2 74.6 -132.7 144.05 -132.7 144.05 -107.2 112.6 -107.2 Q112.6 -104.2 112.1 -101.7 L109.1 -98.7 105.6 -96.7 72.6 -96.7 68.6 -97.2 Q67.1 -98.2 65.1 -99.2" fill="#ffffff" fill-rule="evenodd" stroke="none"/>
    <path d="M-155.9 -132.7 L-109.9 -132.7 -109.9 -86.7 -129.9 -86.7 -129.9 -110.7 -135.9 -110.7 -135.9 -86.7 -155.9 -86.7 -155.9 -132.7" fill="#ffffff" fill-rule="evenodd" stroke="none"/>
    <path d="M146.05 -132.7 L146.05 -107.2 99.1 -107.2 99.1 -99.2 76.6 -99.2 76.6 -132.7 146.05 -132.7" fill="#ffffff" fill-rule="evenodd" stroke="none"/>
    <path d="M146.05 -132.7 L189.05 -132.7 189.05 -59.7 174.05 -59.7 174.05 -56.2 189.05 -56.2 189.05 -35.2 145.55 -35.2 145.55 -22.7 148.05 -22.7 148.05 -32.7 189.05 -32.7 189.05 17.3 148.05 17.3 148.05 -9.7 145.55 -9.7 145.55 26.3 148.05 26.3 148.05 19.8 189.05 19.8 189.05 94.8 177.05 94.8 Q173.05 97.3 168.55 99.3 162.05 97.3 155.55 94.8 L148.05 94.8 148.05 41.3 145.55 41.3 145.55 94.8 124.6 94.8 124.6 82.3 119.6 81.8 119.6 94.3 109.1 94.3 109.1 100.8 68.6 100.8 68.6 94.3 49.1 94.3 49.1 100.8 9.1 100.8 9.1 94.3 -10.9 94.3 -10.9 100.8 -50.9 100.8 -50.9 94.3 -70.9 94.3 -70.9 100.8 -110.9 100.8 -110.9 94.3 -116.4 94.3 -121.4 89.8 -125.4 93.8 -155.4 63.8 -151.4 59.8 -155.9 55.3 -155.9 49.3 -161.9 49.3 -161.9 9.3 -155.9 9.3 -155.9 -10.7 -161.9 -10.7 -161.9 -50.7 -155.9 -50.7 -155.9 -57.7 -142.4 -57.7 -142.4 -61.7 -155.9 -61.7 -155.9 -85.7 -129.9 -85.7 -129.9 -90.2 -109.9 -90.2 -109.9 -61.7 -129.4 -61.7 -129.4 -57.7 -115.9 -57.7 -115.9 -48.2 -110.9 -48.2 -110.9 -10.7 -115.9 -10.7 -115.9 8.8 -108.4 16.3 -105.9 14.3 Q-104.9 13.8 -104.4 12.8 L-102.9 11.8 Q-87.9 26.8 -73.4 41.8 L-78.4 46.8 Q-74.4 50.8 -70.9 54.8 L-50.9 54.8 -50.9 49.8 -10.9 49.8 -10.9 54.8 9.1 54.8 9.1 49.8 49.1 49.8 49.1 54.8 68.6 54.8 68.6 49.8 109.1 49.8 109.1 54.8 119.6 54.8 119.6 67.3 124.6 67.3 124.6 -56.2 161.05 -56.2 161.05 -59.7 148.05 -59.7 148.05 -107.2 146.05 -107.2 146.05 -132.7" fill="#959595" fill-rule="evenodd" stroke="none"/>
    <path d="M109.1 53.3 L68.6 53.3 68.6 51.3 109.1 51.3 109.1 53.3" fill="#6f6f6f" fill-rule="evenodd" stroke="none"/>
    <path d="M49.1 53.3 L9.1 53.3 9.1 51.3 49.1 51.3 49.1 53.3" fill="#6f6f6f" fill-rule="evenodd" stroke="none"/>
    <path d="M-10.9 53.3 L-51.4 53.3 -51.4 51.3 -10.9 51.3 -10.9 53.3" fill="#6f6f6f" fill-rule="evenodd" stroke="none"/>
    <path d="M-104.4 12.8 L-74.4 42.8 Q-74.9 43.8 -75.9 44.3 L-105.9 14.3 Q-104.9 13.8 -104.4 12.8" fill="#6f6f6f" fill-rule="evenodd" stroke="none"/>
    <path d="M63.1 92.8 L54.6 92.8 54.6 87.3 63.1 87.3 63.1 92.8" fill="#6f6f6f" fill-rule="evenodd" stroke="none"/>
    <path d="M24.1 99.8 L11.1 99.8 11.1 77.8 24.1 77.8 24.1 99.8" fill="#6f6f6f" fill-rule="evenodd" stroke="none"/>
    <path d="M47.6 99.8 L43.6 99.8 43.6 93.8 47.6 93.8 47.6 99.8" fill="#6f6f6f" fill-rule="evenodd" stroke="none"/>
    <path d="M-35.9 99.8 L-48.9 99.8 -48.9 77.8 -35.9 77.8 -35.9 99.8" fill="#6f6f6f" fill-rule="evenodd" stroke="none"/>
    <path d="M-12.4 99.8 L-16.4 99.8 -16.4 93.8 -12.4 93.8 -12.4 99.8" fill="#6f6f6f" fill-rule="evenodd" stroke="none"/>
    <path d="M7.1 89.8 L-1.4 90.8 -2.4 80.8 6.1 79.8 7.1 89.8" fill="#6f6f6f" fill-rule="evenodd" stroke="none"/>
    <path d="M-52.4 90.3 L-60.9 91.3 -61.9 80.8 -53.4 79.8 -52.4 90.3" fill="#6f6f6f" fill-rule="evenodd" stroke="none"/>
    <path d="M-160.4 24.8 L-160.4 11.8 -138.4 11.8 -138.4 24.8 -160.4 24.8" fill="#6f6f6f" fill-rule="evenodd" stroke="none"/>
    <path d="M-151.4 6.3 L-152.4 -2.2 -141.9 -3.2 -140.9 5.3 -151.4 6.3" fill="#6f6f6f" fill-rule="evenodd" stroke="none"/>
    <path d="M-112.4 82.3 L-118.4 88.8 -126.4 81.3 Q-122.9 78.3 -119.9 75.3 L-112.4 82.3" fill="#6f6f6f" fill-rule="evenodd" stroke="none"/>
    <path d="M-112.4 82.3 L-118.4 88.8 -126.4 81.3 Q-122.9 78.3 -119.9 75.3 L-112.4 82.3" fill="#6f6f6f" fill-rule="evenodd" stroke="none"/>
    <path d="M-123.4 70.8 L-129.4 77.3 -137.4 69.8 -130.9 63.8 -123.4 70.8" fill="#6f6f6f" fill-rule="evenodd" stroke="none"/>
    <path d="M-136.4 58.8 L-142.4 65.3 -150.4 57.8 Q-146.9 54.8 -143.9 51.8 L-136.4 58.8" fill="#6f6f6f" fill-rule="evenodd" stroke="none"/>
    <path d="M-159.9 47.3 L-159.9 42.8 -153.9 42.8 -153.9 47.3 -159.9 47.3" fill="#6f6f6f" fill-rule="evenodd" stroke="none"/>
    <path d="M178.55 74.3 L148.05 74.3 148.05 60.8 178.55 60.8 178.55 74.3" fill="#6f6f6f" fill-rule="evenodd" stroke="none"/>
    <path d="M189.05 -9.2 L189.05 4.8 158.55 4.8 158.55 -9.2 189.05 -9.2" fill="#6f6f6f" fill-rule="evenodd" stroke="none"/>
    <path d="M169.05 52.3 L170.05 51.3 Q171.05 51.3 172.05 50.8 L174.05 51.3 175.05 52.8 175.55 54.3 Q176.05 56.3 176.05 58.3 L175.05 60.3 166.05 57.3 Q166.55 56.3 166.55 55.3 L169.05 52.3" fill="#6f6f6f" fill-rule="evenodd" stroke="none"/>
    <path d="M174.05 -16.2 L176.05 -19.2 177.55 -20.2 Q178.55 -20.2 179.55 -20.7 180.55 -20.2 181.05 -20.2 L182.55 -18.7 182.55 -17.2 Q183.05 -15.2 183.05 -13.2 183.05 -12.2 182.55 -11.2 L173.05 -14.2 174.05 -16.2" fill="#6f6f6f" fill-rule="evenodd" stroke="none"/>
    <path d="M158.55 52.3 L161.05 55.3 162.05 57.3 152.55 60.3 Q152.55 59.3 152.05 58.3 L152.05 54.3 Q152.55 53.8 152.55 52.8 L153.55 51.3 155.55 50.8 Q156.55 51.3 157.55 51.3 L158.55 52.3" fill="#6f6f6f" fill-rule="evenodd" stroke="none"/>
    <path d="M148.05 17.3 L148.05 12.3 153.55 12.3 153.55 17.3 148.05 17.3" fill="#6f6f6f" fill-rule="evenodd" stroke="none"/>
    <path d="M163.55 25.8 L163.55 19.8 189.05 19.8 189.05 25.8 163.55 25.8" fill="#6f6f6f" fill-rule="evenodd" stroke="none"/>
    <path d="M177.05 94.8 L177.05 97.3 174.05 103.3 158.55 103.3 155.55 97.8 155.55 94.8 177.05 94.8" fill="#6f6f6f" fill-rule="evenodd" stroke="none"/>
  </g>
</svg>
