<?xml version="1.0" encoding="UTF-8" standalone="no"?>
<svg xmlns:ffdec="https://www.free-decompiler.com/flash" xmlns:xlink="http://www.w3.org/1999/xlink" ffdec:objectType="shape" height="92.5px" width="95.0px" xmlns="http://www.w3.org/2000/svg">
  <g transform="matrix(1.0, 0.0, 0.0, 1.0, 48.7, 53.85)">
    <path d="M46.3 -53.85 L46.3 36.65 27.8 36.65 27.8 38.65 9.3 38.65 9.3 36.65 1.3 36.65 1.3 38.65 0.3 38.65 -6.7 34.65 -12.7 38.65 -13.7 38.65 -13.7 36.65 -21.7 36.65 -21.7 38.65 -38.7 38.65 -38.7 36.65 -48.7 36.65 -48.7 -53.85 46.3 -53.85" fill="#424242" fill-rule="evenodd" stroke="none"/>
    <path d="M-39.2 -16.85 L-33.7 -16.85 -33.7 -18.85 -35.7 -18.85 -35.7 -37.35 -10.2 -37.35 -10.2 -18.85 -20.2 -18.85 -20.2 -16.85 43.8 -16.85 43.8 21.65 27.8 21.65 27.8 35.15 24.3 35.15 24.3 37.15 10.3 37.15 10.3 35.15 0.3 35.15 0.3 38.65 -12.7 38.65 -12.7 35.15 -22.2 35.15 -22.2 37.15 -36.2 37.15 -36.2 35.15 -39.2 35.15 -39.2 -16.85" fill="#959595" fill-rule="evenodd" stroke="none"/>
    <path d="M32.8 -6.35 L33.3 -6.35 Q34.3 -5.85 35.3 -5.85 L35.3 -5.35 Q35.3 -3.85 34.8 -2.85 L35.3 -2.85 Q35.3 -0.85 34.8 1.15 L35.3 1.15 35.8 1.65 Q35.3 3.15 34.3 4.65 L34.3 5.15 32.3 8.15 Q31.8 10.15 30.8 12.15 30.3 13.15 29.3 13.65 L24.8 12.15 Q25.3 10.65 25.3 9.15 26.3 7.65 26.8 6.15 L26.3 3.65 28.3 -0.85 Q28.8 -0.85 28.8 -1.35 29.8 -2.35 30.3 -3.85 30.8 -3.85 30.8 -4.35 L31.3 -4.35 32.8 -6.35" fill="#6f6f6f" fill-rule="evenodd" stroke="none"/>
    <path d="M13.3 -3.85 L13.8 -3.35 Q14.8 -3.35 15.3 -3.85 15.8 -3.35 16.3 -3.35 L16.8 -3.35 18.3 -2.35 18.3 -1.35 Q18.8 -0.85 19.3 -0.85 L18.3 1.15 18.8 1.65 Q17.3 3.65 15.3 5.15 L13.3 6.15 12.8 6.15 10.8 8.15 Q10.8 8.65 10.3 9.15 9.8 9.65 8.8 9.65 L5.8 6.15 5.8 5.15 8.8 2.15 8.8 1.65 Q9.3 1.65 9.3 1.15 L9.3 0.15 9.8 0.15 13.3 -3.85" fill="#6f6f6f" fill-rule="evenodd" stroke="none"/>
    <path d="M-23.2 34.15 L-23.2 10.15 -15.7 10.15 -15.7 34.15 -23.2 34.15" fill="#6f6f6f" fill-rule="evenodd" stroke="none"/>
    <path d="M-39.2 34.15 L-39.2 16.65 -34.2 16.65 -34.2 34.15 -39.2 34.15" fill="#6f6f6f" fill-rule="evenodd" stroke="none"/>
    <path d="M-39.2 -11.35 L-34.2 -11.35 -34.2 6.15 -39.2 6.15 -39.2 -11.35" fill="#6f6f6f" fill-rule="evenodd" stroke="none"/>
    <path d="M-10.2 -34.35 L-10.2 -21.85 -13.7 -21.85 -13.7 -34.35 -10.2 -34.35" fill="#6f6f6f" fill-rule="evenodd" stroke="none"/>
    <path d="M-18.2 -10.35 L-18.2 -16.85 -1.2 -16.85 -1.2 -10.35 -18.2 -10.35" fill="#6f6f6f" fill-rule="evenodd" stroke="none"/>
    <path d="M0.8 -11.35 L0.8 -15.85 37.3 -15.85 37.3 -11.35 19.8 -11.35 19.8 -12.35 18.8 -12.35 18.8 -11.35 0.8 -11.35" fill="#6f6f6f" fill-rule="evenodd" stroke="none"/>
    <path d="M40.3 -12.35 L43.8 -12.35 43.8 15.65 39.3 15.65 39.3 -2.35 40.3 -2.35 40.3 -12.35" fill="#6f6f6f" fill-rule="evenodd" stroke="none"/>
    <path d="M39.8 16.15 L43.8 16.15 43.8 21.65 39.8 21.65 38.8 20.15 38.8 17.65 39.8 16.15" fill="#6f6f6f" fill-rule="evenodd" stroke="none"/>
    <path d="M26.3 30.65 L26.8 31.65 26.8 32.65 Q26.8 33.65 26.3 34.15 L25.8 34.15 25.8 35.15 19.3 35.15 19.3 33.65 22.8 33.65 22.3 33.15 22.3 32.15 Q22.8 31.65 22.8 31.15 L23.8 30.15 24.8 30.15 26.3 30.65" fill="#6f6f6f" fill-rule="evenodd" stroke="none"/>
    <path d="M0.3 38.65 L-12.7 38.65 -12.7 36.65 0.3 36.65 0.3 38.65" fill="#ffffff" fill-rule="evenodd" stroke="none"/>
  </g>
</svg>
