<?xml version="1.0" encoding="UTF-8" standalone="no"?>
<svg xmlns:ffdec="https://www.free-decompiler.com/flash" xmlns:xlink="http://www.w3.org/1999/xlink" ffdec:objectType="shape" height="506.4px" width="829.9px" xmlns="http://www.w3.org/2000/svg">
  <g transform="matrix(1.0, 0.0, 0.0, 1.0, 211.55, 236.05)">
    <path d="M507.55 -100.85 L618.35 -100.85 618.35 270.35 -211.55 270.35 -211.55 -236.05 507.55 -236.05 507.55 -100.85" fill="#434343" fill-rule="evenodd" stroke="none"/>
    <path d="M597.7 -51.9 L596.4 -51.9 594.05 -51.2 591.95 -49.85 590.35 -48.0 589.3 -45.75 588.95 -43.3 589.3 -40.85 590.35 -38.6 591.95 -36.75 594.05 -35.4 596.4 -34.75 597.7 -34.75 597.7 38.8 596.4 38.8 594.05 39.5 591.95 40.8 590.35 42.7 589.3 44.9 588.95 47.35 589.3 49.8 590.35 52.05 591.95 53.9 594.05 55.25 596.4 55.95 597.7 55.95 597.7 132.1 596.75 132.1 594.35 132.8 592.3 134.15 590.7 136.0 589.75 138.0 516.7 138.0 515.75 136.0 514.15 134.15 512.05 132.8 509.7 132.1 507.25 132.1 504.85 132.8 502.8 134.15 501.2 136.0 500.25 138.0 424.5 138.0 424.5 127.0 422.5 127.0 422.5 137.7 332.05 137.7 331.25 136.0 329.65 134.15 327.6 132.8 325.2 132.1 322.75 132.1 320.4 132.8 318.3 134.15 316.7 136.0 315.9 137.7 263.25 137.7 263.25 -65.1 262.5 -69.1 261.1 -72.95 259.15 -76.55 256.65 -79.75 253.65 -82.55 250.3 -84.85 246.6 -86.6 242.7 -87.75 238.65 -88.25 -51.35 -88.25 -51.35 -94.95 -50.05 -93.95 -47.75 -93.45 -45.45 -93.9 -43.5 -95.25 -42.3 -97.25 -42.0 -99.6 -42.7 -101.85 -44.25 -103.6 -46.4 -104.6 -48.75 -104.65 -50.9 -103.7 -51.35 -103.2 -51.35 -117.5 -57.35 -117.5 -57.35 -77.0 -133.35 -77.0 -133.35 -109.0 -142.75 -109.0 -142.75 -103.25 -151.35 -103.95 -160.55 -106.1 -169.3 -109.65 -177.4 -114.55 -184.6 -120.7 -190.8 -127.85 -195.75 -135.9 -199.4 -144.6 -201.65 -153.8 -202.45 -163.2 -201.75 -172.65 -199.6 -181.85 -196.0 -190.6 -191.1 -198.7 -185.0 -205.9 -177.85 -212.05 -169.8 -217.05 -161.1 -220.7 -151.9 -222.95 -142.5 -223.75 -133.05 -223.05 -123.85 -220.85 -115.1 -217.3 -107.0 -212.4 -99.8 -206.3 -93.6 -199.1 -88.65 -191.1 -85.0 -182.35 -84.0 -176.2 -140.7 -176.2 -140.7 -161.3 -133.35 -161.3 -133.35 -170.5 -88.75 -170.5 -88.75 -154.3 -57.35 -154.3 -57.35 -143.5 -51.35 -143.5 -51.35 -157.65 -50.05 -156.1 -47.95 -154.8 -45.6 -154.1 -43.1 -154.1 -40.75 -154.8 -38.7 -156.1 -37.05 -158.0 -36.05 -160.2 -35.7 -162.65 -35.85 -164.0 46.05 -164.0 45.85 -162.65 46.2 -160.2 47.25 -158.0 48.85 -156.1 50.9 -154.8 53.3 -154.1 55.75 -154.1 58.1 -154.8 60.2 -156.1 61.8 -158.0 62.85 -160.2 63.2 -162.65 63.0 -164.0 143.55 -164.0 143.35 -162.65 143.7 -160.2 144.75 -158.0 146.35 -156.1 148.4 -154.8 150.8 -154.1 153.25 -154.1 155.6 -154.8 157.7 -156.1 159.3 -158.0 160.35 -160.2 160.7 -162.65 160.5 -164.0 235.05 -164.0 234.85 -162.65 235.2 -160.2 236.25 -158.0 237.85 -156.1 239.9 -154.8 242.3 -154.1 244.75 -154.1 247.1 -154.8 249.2 -156.1 250.8 -158.0 251.85 -160.2 252.2 -162.65 252.0 -164.0 315.05 -164.0 314.85 -162.65 315.2 -160.2 316.25 -158.0 317.85 -156.1 319.9 -154.8 322.3 -154.1 324.75 -154.1 327.1 -154.8 329.2 -156.1 330.8 -158.0 331.85 -160.2 332.2 -162.65 332.0 -164.0 406.05 -164.0 405.85 -162.65 406.2 -160.2 407.25 -158.0 408.85 -156.1 410.9 -154.8 413.3 -154.1 415.75 -154.1 418.1 -154.8 420.2 -156.1 421.8 -158.0 422.5 -159.45 422.5 -50.5 428.95 -50.5 428.95 -53.0 424.95 -53.0 424.95 -164.0 482.5 -164.0 482.5 -53.0 455.5 -53.0 455.5 -50.5 460.5 -50.5 460.5 53.0 422.5 53.0 422.5 101.85 424.5 101.85 424.5 87.35 530.2 87.35 530.2 -93.75 597.7 -93.75 597.7 -51.9" fill="#969696" fill-rule="evenodd" stroke="none"/>
    <path d="M474.2 -38.0 L483.45 -38.0 483.45 -41.25 509.0 -41.25 509.0 -38.0 521.0 -38.0 521.0 63.5 474.2 63.5 474.2 -38.0" fill="#969696" fill-rule="evenodd" stroke="none"/>
    <path d="M515.15 -38.0 L530.2 -38.0 530.2 63.5 515.15 63.5 515.15 -38.0" fill="#707070" fill-rule="evenodd" stroke="none"/>
    <path d="M443.15 -5.0 L436.5 -5.0 436.5 -19.0 458.2 -19.0 458.2 53.0 443.15 53.0 443.15 -5.0" fill="#707070" fill-rule="evenodd" stroke="none"/>
    <path d="M422.5 53.0 L422.5 41.5 439.0 41.5 439.0 53.0 422.5 53.0" fill="#707070" fill-rule="evenodd" stroke="none"/>
    <path d="M366.0 -39.1 L366.9 -49.3 370.7 -58.65 374.7 -66.65 380.45 -74.3 387.5 -80.7 395.6 -85.7 404.5 -89.15 413.85 -90.9 422.5 -90.9 422.5 -70.9 415.7 -70.9 410.0 -69.85 404.55 -67.75 399.6 -64.65 395.3 -60.75 391.8 -56.1 386.55 -44.5 386.0 -38.2 386.0 30.5 396.0 30.5 396.0 53.0 388.95 53.0 391.8 58.7 395.3 63.35 399.6 67.3 404.55 70.35 410.0 72.45 415.7 73.55 422.5 73.55 422.5 93.55 413.85 93.55 404.5 91.75 395.6 88.35 387.5 83.3 380.45 76.9 374.7 69.3 370.7 61.25 366.9 51.9 366.0 41.75 366.0 -39.1" fill="#707070" fill-rule="evenodd" stroke="none"/>
    <path d="M537.7 -100.85 L590.2 -100.85 590.2 -93.75 537.7 -93.75 537.7 -100.85" fill="#ffffff" fill-rule="evenodd" stroke="none"/>
    <path d="M308.25 186.75 L303.7 200.6 296.75 213.35 287.65 224.7 276.65 234.25 264.1 241.65 250.45 246.7 236.15 249.25 221.6 249.2 207.3 246.55 193.65 241.4 181.2 233.85 170.3 224.25 161.25 212.85 154.4 200.0 149.95 186.15 148.05 171.7 148.8 157.2 152.1 143.0 157.05 131.5 198.35 149.35 195.0 157.15 193.55 163.4 193.2 169.85 194.05 176.25 196.05 182.4 199.05 188.1 203.05 193.15 207.9 197.45 213.45 200.75 219.45 203.05 225.8 204.25 232.25 204.25 238.6 203.1 244.65 200.9 250.25 197.6 255.1 193.35 259.15 188.35 262.25 182.65 264.25 176.55 265.2 169.7 265.2 137.7 310.2 137.7 310.2 172.8 308.25 186.75" fill="#ffffff" fill-rule="evenodd" stroke="none"/>
    <path d="M-166.8 -209.6 L-159.2 -212.8 -151.2 -214.75 -142.95 -215.45 -134.75 -214.85 -126.7 -212.95 -119.1 -209.85 -112.0 -205.55 -141.5 -164.0 -141.35 -157.0 -133.35 -157.0 -133.35 -110.3 -142.5 -110.3 -150.7 -110.9 -158.75 -112.8 -166.4 -115.9 -173.45 -120.2 -179.75 -125.55 -185.1 -131.8 -189.45 -138.8 -192.65 -146.4 -194.6 -154.4 -195.3 -162.65 -194.7 -170.85 -192.8 -178.9 -189.7 -186.55 -185.4 -193.6 -180.1 -199.9 -173.85 -205.25 -166.8 -209.6" fill="#ffffff" fill-rule="evenodd" stroke="none"/>
    <path d="M-107.85 -70.15 L-107.85 -77.0 -78.35 -77.0 -78.35 -70.15 -107.85 -70.15" fill="#ffffff" fill-rule="evenodd" stroke="none"/>
    <path d="M-119.2 -16.3 L-119.2 -70.15 -67.0 -70.15 -67.0 -16.3 -119.2 -16.3" fill="#ffffff" fill-rule="evenodd" stroke="none"/>
    <path d="M151.2 -96.75 L150.0 -94.75 148.05 -93.4 145.75 -92.95 143.45 -93.45 141.6 -94.85 140.45 -96.95 140.25 -99.25 141.0 -101.5 142.6 -103.2 144.75 -104.15 147.1 -104.1 149.25 -103.1 150.8 -101.35 151.5 -99.1 151.2 -96.75" fill="#434343" fill-rule="evenodd" stroke="none"/>
    <path d="M50.7 -97.25 L49.5 -95.25 47.55 -93.9 45.25 -93.45 42.95 -93.95 41.1 -95.35 39.95 -97.45 39.75 -99.75 40.5 -102.0 42.1 -103.7 44.25 -104.65 46.6 -104.6 48.75 -103.6 50.3 -101.85 51.0 -99.6 50.7 -97.25" fill="#434343" fill-rule="evenodd" stroke="none"/>
    <path d="M251.2 -96.75 L250.0 -94.75 248.05 -93.4 245.75 -92.95 243.45 -93.45 241.6 -94.85 240.45 -96.95 240.25 -99.25 241.0 -101.5 242.6 -103.2 244.75 -104.15 247.1 -104.1 249.25 -103.1 250.8 -101.35 251.5 -99.1 251.2 -96.75" fill="#434343" fill-rule="evenodd" stroke="none"/>
    <path d="M-143.6 -171.5 L-141.1 -171.5 -138.75 -170.8 -136.7 -169.45 -135.05 -167.6 -134.05 -165.35 -133.7 -162.9 -134.05 -160.45 -135.05 -158.25 -136.7 -156.35 -138.75 -155.05 -141.1 -154.35 -143.6 -154.35 -145.95 -155.05 -148.05 -156.35 -149.65 -158.25 -150.65 -160.45 -151.0 -162.9 -150.65 -165.35 -149.65 -167.6 -148.05 -169.45 -145.95 -170.8 -143.6 -171.5" fill="#434343" fill-rule="evenodd" stroke="none"/>
    <path d="M322.5 43.0 L338.15 43.0 338.15 53.7 322.5 53.7 322.5 43.0" fill="#434343" fill-rule="evenodd" stroke="none"/>
    <path d="M322.5 -48.3 L338.15 -48.3 338.15 -37.65 322.5 -37.65 322.5 -48.3" fill="#434343" fill-rule="evenodd" stroke="none"/>
  </g>
</svg>
