<?xml version="1.0" encoding="UTF-8" standalone="no"?>
<svg xmlns:ffdec="https://www.free-decompiler.com/flash" xmlns:xlink="http://www.w3.org/1999/xlink" ffdec:objectType="shape" height="887.55px" width="657.55px" xmlns="http://www.w3.org/2000/svg">
  <g transform="matrix(1.0, 0.0, 0.0, 1.0, 453.45, 589.45)">
    <path d="M198.6 -476.45 Q200.1 -367.95 201.1 -259.9 L196.1 -259.9 196.1 37.1 204.1 37.1 204.1 111.1 198.6 111.1 198.6 118.1 200.1 118.1 200.1 298.1 -185.4 298.1 -185.4 285.1 -182.4 267.6 -185.4 251.6 -185.4 214.6 -241.4 214.6 -241.4 206.1 -287.4 206.1 -287.4 161.1 -241.4 161.1 -241.4 118.6 -361.45 118.6 -361.45 46.6 -389.45 46.6 -389.45 52.6 -406.95 52.6 Q-406.95 -47.9 -407.45 -148.4 L-453.45 -148.4 -453.45 -377.95 -291.4 -377.95 -291.4 -380.95 -286.4 -387.95 -291.4 -395.95 -291.4 -397.95 -272.4 -397.95 -272.4 -499.95 Q-274.9 -531.95 -277.9 -564.45 L-252.9 -566.45 -252.9 -569.95 -148.9 -589.45 191.1 -589.45 Q195.1 -532.95 198.6 -476.45" fill="#424242" fill-rule="evenodd" stroke="none"/>
    <path d="M-247.4 -493.95 L-247.4 -380.95 -291.4 -380.95 -291.4 -395.95 -269.9 -395.95 -269.9 -496.95 Q-272.4 -529.45 -275.4 -562.45 L-254.4 -564.45 -247.4 -493.95" fill="#6f6f6f" fill-rule="evenodd" stroke="none"/>
    <path d="M-180.4 -106.4 L-180.4 -110.4 -182.4 -110.4 -182.4 -106.4 -180.4 -106.4 M-180.4 -153.4 L-180.4 -157.4 -182.4 -157.4 -182.4 -153.4 -180.4 -153.4 M-180.4 -198.4 L-180.4 -202.4 -182.4 -202.4 -182.4 -198.4 -180.4 -198.4 M-180.4 -240.9 L-180.4 -244.9 -182.4 -244.9 -182.4 -240.9 -180.4 -240.9 M-185.4 -286.9 L-49.4 -286.9 -49.4 -140.4 21.1 -140.4 21.1 -136.4 26.6 -136.4 26.6 -140.4 59.1 -140.4 59.1 -62.4 56.1 -62.4 56.1 -64.4 52.6 -64.4 52.6 -62.4 -2.9 -62.4 -2.9 -64.4 -6.9 -64.4 -6.9 -62.4 -50.4 -62.4 -50.4 -64.4 -54.4 -64.4 -54.4 -62.4 -106.4 -62.4 -106.4 -64.4 -109.9 -64.4 -109.9 -62.4 -124.9 -62.4 -124.9 -64.4 -128.4 -64.4 -128.4 -62.4 -177.4 -62.4 -177.4 -64.4 -180.9 -64.4 -180.9 -62.4 -185.4 -62.4 -185.4 -286.9 M-121.4 -285.9 L-123.4 -285.9 -123.4 -281.9 -121.4 -281.9 -121.4 -285.9 M-180.4 -285.9 L-182.4 -285.9 -182.4 -281.9 -180.4 -281.9 -180.4 -285.9" fill="#6f6f6f" fill-rule="evenodd" stroke="none"/>
    <path d="M98.1 -580.95 Q98.6 -579.95 98.6 -578.95 L102.6 -578.45 102.6 -580.95 117.1 -580.95 117.1 -577.95 121.1 -578.45 121.1 -580.95 169.1 -580.95 169.1 -578.45 172.6 -578.45 Q173.1 -579.45 173.1 -580.95 L177.6 -580.95 177.6 -292.9 174.1 -292.9 Q174.6 -295.4 174.6 -297.9 L172.6 -297.9 172.6 -292.9 167.6 -292.9 167.6 -262.4 164.6 -262.4 164.6 -259.4 167.6 -259.4 167.6 -236.4 152.6 -236.4 152.6 -234.9 170.1 -234.9 170.1 -193.9 164.1 -193.9 164.1 -187.9 170.1 -187.9 170.1 -144.9 182.6 -144.9 182.6 -64.9 170.1 -64.4 170.1 -58.9 163.1 -58.9 163.1 -52.4 170.1 -52.4 170.1 21.1 162.6 21.1 162.6 27.1 170.1 27.1 170.1 41.6 -89.9 41.6 -89.9 48.6 195.1 48.6 195.1 116.6 185.1 116.6 185.1 131.6 192.1 131.6 192.1 288.1 156.6 288.1 156.6 290.1 107.1 290.1 107.1 288.1 -1.4 288.1 -1.4 290.1 -51.4 290.1 -51.4 288.1 -178.4 288.1 -178.4 285.1 -182.4 267.6 -178.4 251.6 -178.4 242.1 45.6 242.1 45.6 238.6 -178.4 238.6 -178.4 215.1 -114.4 215.1 -114.4 209.1 -178.4 209.1 -178.4 131.6 45.6 131.6 45.6 209.1 -74.4 209.1 -74.4 215.1 52.1 215.1 52.1 131.6 124.1 131.6 124.1 116.6 -182.9 116.6 -182.9 48.6 -177.9 48.6 -177.9 41.6 -187.9 41.6 -187.9 -60.4 63.1 -60.4 63.1 -78.9 87.1 -78.9 87.1 -90.4 104.1 -90.4 Q104.1 -92.4 103.6 -94.4 L81.1 -94.4 81.1 -101.9 63.1 -101.9 63.1 -124.9 82.1 -124.9 82.1 -126.9 63.1 -126.9 63.1 -144.4 -45.4 -144.4 Q-45.4 -216.9 -45.9 -289.9 L72.6 -289.9 72.6 -259.4 78.1 -259.4 78.1 -262.4 75.1 -262.4 75.1 -293.4 46.6 -293.4 46.6 -297.9 44.6 -297.9 44.6 -293.4 41.1 -293.4 41.1 -522.95 23.1 -522.95 23.1 -525.45 17.6 -525.45 17.6 -516.95 20.6 -516.95 20.6 -519.95 35.1 -519.95 35.1 -449.95 32.1 -449.95 32.1 -445.45 35.1 -445.45 35.1 -413.95 32.6 -413.95 32.6 -406.45 35.1 -406.45 35.1 -372.95 32.1 -372.95 32.1 -368.95 35.1 -368.95 35.1 -297.9 14.1 -297.9 14.1 -301.4 6.6 -301.4 6.6 -297.9 -23.4 -297.9 -23.4 -302.4 -28.4 -302.4 -28.4 -297.9 -61.4 -297.9 -61.4 -302.4 -65.4 -302.4 -65.4 -297.9 -103.4 -297.9 -103.4 -302.4 -107.4 -302.4 -107.4 -297.9 -134.4 -297.9 -134.4 -302.4 -137.9 -302.4 -137.9 -297.9 -140.9 -297.9 -140.9 -306.4 -179.9 -306.4 -179.9 -295.4 -251.4 -295.4 -251.4 -297.9 -287.9 -297.9 -287.9 -295.4 -381.45 -295.4 -381.45 -359.95 -242.4 -359.95 -242.4 -414.95 -245.4 -414.95 -245.4 -427.95 -242.4 -427.95 -242.4 -445.45 -243.4 -445.45 -243.4 -443.95 -245.4 -443.95 -245.4 -486.45 -243.4 -486.45 -243.4 -484.95 -241.9 -484.95 -241.9 -497.45 -243.4 -497.45 -247.4 -549.95 -246.4 -549.95 Q-246.4 -552.45 -246.9 -554.95 L-172.4 -560.45 Q-168.4 -529.45 -164.9 -498.95 -165.4 -441.95 -166.4 -385.45 L-179.9 -385.45 -179.9 -370.45 -140.4 -370.45 Q-139.9 -369.45 -139.9 -368.45 L-135.9 -368.45 -135.9 -374.45 -138.9 -374.45 -139.9 -407.45 -136.9 -407.45 -136.9 -413.45 -139.9 -413.45 -139.9 -444.95 -136.9 -444.95 -136.9 -449.95 -140.9 -449.95 -140.9 -519.45 -101.4 -519.45 -101.4 -516.95 -98.9 -516.95 -98.9 -519.45 -64.9 -519.45 -64.9 -516.95 -61.9 -516.95 -61.9 -519.45 -27.9 -519.45 -27.9 -516.95 -24.9 -516.95 -24.9 -522.95 -25.9 -522.95 -25.9 -524.95 -30.4 -524.95 -30.4 -522.95 -32.4 -522.95 -32.4 -580.95 -29.9 -580.95 -29.9 -578.95 -25.9 -578.45 Q-25.9 -579.45 -26.4 -580.95 L19.1 -580.95 19.1 -578.45 22.6 -578.45 Q23.1 -579.45 23.1 -580.95 L42.6 -580.95 42.6 -578.95 46.1 -577.95 Q46.6 -579.45 46.6 -580.95 L98.1 -580.95" fill="#959595" fill-rule="evenodd" stroke="none"/>
    <path d="M108.6 211.6 L123.6 211.6 123.6 213.6 136.1 213.6 136.1 230.1 123.6 230.1 123.6 239.6 102.6 239.6 102.6 237.6 50.1 237.6 50.1 217.1 108.6 217.1 108.6 211.6" fill="#424242" fill-rule="evenodd" stroke="none"/>
    <path d="M53.1 256.1 L53.1 240.6 63.1 240.6 63.1 245.1 101.1 245.1 101.1 256.1 77.6 256.1 77.6 269.6 77.1 269.6 71.6 266.6 68.1 269.6 67.1 269.6 67.1 256.1 53.1 256.1" fill="#424242" fill-rule="evenodd" stroke="none"/>
    <path d="M-114.9 190.6 L-114.9 161.1 35.1 161.1 35.1 190.6 -114.9 190.6 M-55.4 188.6 L-55.4 163.1 -112.9 163.1 -112.9 188.6 -55.4 188.6 M-53.4 163.1 L-53.4 188.6 33.1 188.6 33.1 163.1 -53.4 163.1" fill="#424242" fill-rule="evenodd" stroke="none"/>
    <path d="M103.6 206.1 L103.6 238.1 100.6 238.1 100.6 243.6 98.6 243.6 98.6 241.6 68.1 241.6 68.1 243.6 66.1 243.6 66.1 238.1 65.1 238.1 65.1 206.1 103.6 206.1 M98.6 238.1 L68.1 238.1 68.1 240.1 98.6 240.1 98.6 238.1" fill="#424242" fill-rule="evenodd" stroke="none"/>
    <path d="M-49.9 -13.9 L-37.4 -13.9 -37.4 -11.4 -51.4 -11.4 -51.4 -24.9 -74.9 -24.9 -74.9 -27.4 -49.9 -27.4 -49.9 -13.9 M-74.9 -46.4 L50.1 -46.4 50.1 -44.9 -74.9 -44.9 -74.9 -46.4 M27.1 -11.4 L12.6 -11.4 12.6 -13.9 25.1 -13.9 25.1 -27.4 50.1 -27.4 50.1 -24.9 27.1 -24.9 27.1 -11.4" fill="#424242" fill-rule="evenodd" stroke="none"/>
    <path d="M110.1 218.6 L110.1 213.1 122.1 213.1 122.1 215.1 136.1 215.1 136.1 228.6 122.1 228.6 122.1 238.1 103.6 238.1 103.6 236.1 50.1 236.1 50.1 218.6 110.1 218.6" fill="#6f6f6f" fill-rule="evenodd" stroke="none"/>
    <path d="M67.6 239.1 L98.6 239.1 98.6 240.6 67.6 240.6 67.6 239.1" fill="#6f6f6f" fill-rule="evenodd" stroke="none"/>
    <path d="M-34.9 255.1 L-34.9 244.6 -13.9 244.6 -13.9 255.1 -34.9 255.1" fill="#6f6f6f" fill-rule="evenodd" stroke="none"/>
    <path d="M-104.9 286.1 L-104.9 265.1 -93.9 265.1 -93.9 286.1 -104.9 286.1" fill="#6f6f6f" fill-rule="evenodd" stroke="none"/>
    <path d="M162.6 278.6 L162.6 262.6 177.1 262.6 177.1 278.6 162.6 278.6" fill="#6f6f6f" fill-rule="evenodd" stroke="none"/>
    <path d="M186.1 95.1 L186.1 67.6 195.1 67.6 195.1 95.1 186.1 95.1" fill="#6f6f6f" fill-rule="evenodd" stroke="none"/>
    <path d="M175.1 48.1 L175.1 58.1 148.6 58.1 148.6 48.1 175.1 48.1" fill="#6f6f6f" fill-rule="evenodd" stroke="none"/>
    <path d="M180.6 58.1 L195.1 58.1 195.1 66.1 180.6 66.1 180.6 58.1" fill="#6f6f6f" fill-rule="evenodd" stroke="none"/>
    <path d="M174.6 241.1 L175.6 254.1 165.6 255.1 164.6 242.1 174.6 241.1" fill="#6f6f6f" fill-rule="evenodd" stroke="none"/>
    <path d="M54.1 255.1 L54.1 241.6 62.1 241.6 62.1 246.1 99.6 246.1 99.6 255.1 77.1 255.1 77.1 269.6 68.1 269.6 68.1 255.1 54.1 255.1" fill="#6f6f6f" fill-rule="evenodd" stroke="none"/>
    <path d="M98.6 165.1 L98.6 204.6 56.6 204.6 56.6 165.1 98.6 165.1" fill="#6f6f6f" fill-rule="evenodd" stroke="none"/>
    <path d="M155.1 205.1 L155.1 131.1 185.1 131.1 185.1 205.1 155.1 205.1" fill="#6f6f6f" fill-rule="evenodd" stroke="none"/>
    <path d="M58.1 163.1 Q57.6 163.6 57.1 163.6 L56.6 163.6 56.1 162.6 Q56.6 162.1 56.6 161.6 L57.6 161.6 58.1 162.6 58.1 163.1" fill="#6f6f6f" fill-rule="evenodd" stroke="none"/>
    <path d="M68.1 162.6 L67.1 163.6 66.1 163.6 65.6 162.6 Q66.1 162.1 66.1 161.6 L67.1 161.6 68.1 162.6" fill="#6f6f6f" fill-rule="evenodd" stroke="none"/>
    <path d="M78.1 163.1 Q77.6 163.6 77.1 163.6 L76.6 163.6 76.1 162.6 Q76.6 162.1 76.6 161.6 L77.6 161.6 78.1 162.6 78.1 163.1" fill="#6f6f6f" fill-rule="evenodd" stroke="none"/>
    <path d="M86.6 163.1 Q86.1 163.6 85.6 163.6 L85.1 163.6 84.6 162.6 Q85.1 162.1 85.1 161.6 L86.1 161.6 86.6 162.6 86.6 163.1" fill="#6f6f6f" fill-rule="evenodd" stroke="none"/>
    <path d="M94.1 162.6 L93.1 163.6 92.1 163.6 92.1 162.6 Q92.6 162.1 92.6 161.6 L93.6 161.6 94.1 162.6" fill="#6f6f6f" fill-rule="evenodd" stroke="none"/>
    <path d="M155.6 84.6 L155.6 86.1 -18.9 86.1 -18.9 92.1 -33.9 92.1 -33.9 91.1 -20.9 91.1 -20.9 84.6 155.6 84.6" fill="#6f6f6f" fill-rule="evenodd" stroke="none"/>
    <path d="M123.6 113.6 L123.6 116.6 -20.9 116.6 -20.9 113.6 -33.9 113.6 -33.9 112.1 -18.9 112.1 -18.9 113.6 123.6 113.6" fill="#6f6f6f" fill-rule="evenodd" stroke="none"/>
    <path d="M62.1 63.1 L48.6 63.1 48.6 50.1 62.1 50.1 62.1 63.1" fill="#6f6f6f" fill-rule="evenodd" stroke="none"/>
    <path d="M-74.4 106.1 L-87.9 106.1 -87.9 93.1 -74.4 93.1 -74.4 106.1" fill="#6f6f6f" fill-rule="evenodd" stroke="none"/>
    <path d="M-101.9 115.6 L-113.9 115.6 -113.9 109.6 -101.9 109.6 -101.9 115.6" fill="#6f6f6f" fill-rule="evenodd" stroke="none"/>
    <path d="M-126.9 107.6 L-123.9 108.1 Q-124.4 112.1 -125.4 115.6 L-136.9 113.1 Q-135.9 109.6 -135.4 105.6 -134.9 106.1 -134.4 106.1 L-133.4 100.1 -125.9 101.6 -126.9 107.6" fill="#6f6f6f" fill-rule="evenodd" stroke="none"/>
    <path d="M-59.9 115.1 L-73.9 115.1 -73.9 102.6 -59.9 102.6 -59.9 115.1" fill="#6f6f6f" fill-rule="evenodd" stroke="none"/>
    <path d="M-10.4 62.6 L-17.9 62.6 -17.9 50.1 -10.4 50.1 -10.4 62.6" fill="#6f6f6f" fill-rule="evenodd" stroke="none"/>
    <path d="M-4.4 58.1 L-11.9 58.1 -11.9 51.1 -4.4 51.1 -4.4 58.1" fill="#6f6f6f" fill-rule="evenodd" stroke="none"/>
    <path d="M120.1 61.1 Q115.1 59.6 110.1 57.6 112.1 53.1 113.6 48.1 L123.1 51.6 120.1 61.1" fill="#6f6f6f" fill-rule="evenodd" stroke="none"/>
    <path d="M-56.4 70.1 L-86.9 70.1 -86.9 52.6 -56.4 52.6 -56.4 70.1" fill="#6f6f6f" fill-rule="evenodd" stroke="none"/>
    <path d="M-144.9 32.1 L-154.4 28.1 -150.4 18.1 -140.4 22.1 Q-142.4 27.1 -144.9 32.1" fill="#6f6f6f" fill-rule="evenodd" stroke="none"/>
    <path d="M-142.4 17.1 L-153.4 16.6 -152.4 6.1 -141.9 6.6 Q-141.9 12.1 -142.4 17.1" fill="#6f6f6f" fill-rule="evenodd" stroke="none"/>
    <path d="M-155.4 11.1 L-165.9 11.1 Q-165.4 5.6 -165.4 0.1 L-154.9 0.1 Q-154.9 5.6 -155.4 11.1" fill="#6f6f6f" fill-rule="evenodd" stroke="none"/>
    <path d="M-139.9 -0.4 L-148.4 5.6 -154.4 -3.4 -145.9 -9.4 -139.9 -0.4" fill="#6f6f6f" fill-rule="evenodd" stroke="none"/>
    <path d="M-66.4 -1.9 Q-71.9 2.6 -77.9 6.6 L-86.4 -4.9 Q-80.4 -8.9 -74.9 -13.4 L-66.4 -1.9" fill="#6f6f6f" fill-rule="evenodd" stroke="none"/>
    <path d="M-122.4 -32.4 Q-124.9 -26.9 -127.9 -21.4 L-139.9 -27.4 Q-136.9 -32.9 -134.4 -38.4 L-122.4 -32.4" fill="#6f6f6f" fill-rule="evenodd" stroke="none"/>
    <path d="M-118.9 -52.9 L-120.9 -40.4 -134.4 -42.9 Q-132.9 -48.9 -131.9 -54.9 L-118.9 -52.9" fill="#6f6f6f" fill-rule="evenodd" stroke="none"/>
    <path d="M-102.4 -53.9 L-102.4 -40.9 -116.4 -40.9 -116.4 -53.9 -102.4 -53.9" fill="#6f6f6f" fill-rule="evenodd" stroke="none"/>
    <path d="M-2.9 40.1 L-29.9 40.1 -29.9 31.1 -2.9 31.1 -2.9 40.1" fill="#6f6f6f" fill-rule="evenodd" stroke="none"/>
    <path d="M33.1 23.1 L19.6 23.1 19.6 9.6 33.1 9.6 33.1 23.1" fill="#6f6f6f" fill-rule="evenodd" stroke="none"/>
    <path d="M138.6 -24.4 L125.1 -24.4 125.1 -37.9 138.6 -37.9 138.6 -24.4" fill="#6f6f6f" fill-rule="evenodd" stroke="none"/>
    <path d="M165.6 -66.9 L152.1 -66.9 152.1 -80.4 165.6 -80.4 165.6 -66.9" fill="#6f6f6f" fill-rule="evenodd" stroke="none"/>
    <path d="M79.1 -211.9 L65.6 -211.9 65.6 -225.4 79.1 -225.4 79.1 -211.9" fill="#6f6f6f" fill-rule="evenodd" stroke="none"/>
    <path d="M-36.4 -499.95 L-49.9 -499.95 -49.9 -513.45 -36.4 -513.45 -36.4 -499.95" fill="#6f6f6f" fill-rule="evenodd" stroke="none"/>
    <path d="M5.6 -405.45 L-7.9 -405.45 -7.9 -418.95 5.6 -418.95 5.6 -405.45" fill="#6f6f6f" fill-rule="evenodd" stroke="none"/>
    <path d="M-72.4 -418.95 L-85.9 -418.95 -85.9 -432.45 -72.4 -432.45 -72.4 -418.95" fill="#6f6f6f" fill-rule="evenodd" stroke="none"/>
    <path d="M-252.9 -342.45 L-266.4 -345.45 -263.4 -358.95 -249.9 -355.95 -252.9 -342.45" fill="#6f6f6f" fill-rule="evenodd" stroke="none"/>
    <path d="M-251.4 -300.4 L-264.9 -300.4 -264.9 -316.4 -251.4 -316.4 -251.4 -300.4" fill="#6f6f6f" fill-rule="evenodd" stroke="none"/>
    <path d="M-224.9 -297.4 L-238.9 -297.4 -238.9 -306.4 -224.9 -306.4 -224.9 -297.4" fill="#6f6f6f" fill-rule="evenodd" stroke="none"/>
    <path d="M-310.4 -297.9 L-337.9 -297.9 -337.9 -304.9 -310.4 -304.9 -310.4 -297.9" fill="#6f6f6f" fill-rule="evenodd" stroke="none"/>
    <path d="M-311.4 -351.45 L-326.4 -351.45 -326.4 -358.95 -311.4 -358.95 -311.4 -351.45" fill="#6f6f6f" fill-rule="evenodd" stroke="none"/>
    <path d="M-367.95 -321.4 L-379.45 -321.4 -379.45 -344.95 -367.95 -344.95 -367.95 -321.4" fill="#6f6f6f" fill-rule="evenodd" stroke="none"/>
    <path d="M-280.9 -309.9 L-280.9 -302.4 -287.4 -302.4 -287.4 -298.9 -294.9 -298.9 -294.9 -310.9 -287.4 -310.9 -287.4 -309.9 -280.9 -309.9" fill="#6f6f6f" fill-rule="evenodd" stroke="none"/>
    <path d="M-344.95 -354.95 L-353.95 -354.95 -353.95 -359.95 -344.95 -359.95 -344.95 -354.95" fill="#6f6f6f" fill-rule="evenodd" stroke="none"/>
    <path d="M-343.95 -297.9 L-371.45 -297.9 -371.45 -304.9 -343.95 -304.9 -343.95 -297.9" fill="#6f6f6f" fill-rule="evenodd" stroke="none"/>
    <path d="M-233.9 -335.4 L-243.9 -335.4 -243.9 -348.95 -233.9 -348.95 -233.9 -335.4" fill="#6f6f6f" fill-rule="evenodd" stroke="none"/>
    <path d="M-174.9 -517.45 L-184.9 -515.45 Q-185.9 -521.95 -187.4 -528.45 L-177.4 -530.45 Q-175.9 -523.95 -174.9 -517.45" fill="#6f6f6f" fill-rule="evenodd" stroke="none"/>
    <path d="M-172.4 -539.45 L-185.4 -538.45 -186.4 -553.95 -173.4 -554.95 -172.4 -539.45" fill="#6f6f6f" fill-rule="evenodd" stroke="none"/>
    <path d="M-167.9 -468.95 L-174.9 -468.95 -174.9 -485.95 -167.9 -485.95 -167.9 -468.95" fill="#6f6f6f" fill-rule="evenodd" stroke="none"/>
    <path d="M-79.9 -435.45 L-91.9 -441.45 -85.9 -453.45 -73.9 -447.45 -79.9 -435.45" fill="#6f6f6f" fill-rule="evenodd" stroke="none"/>
    <path d="M157.6 -428.95 L144.1 -428.95 144.1 -441.95 157.6 -441.95 157.6 -428.95" fill="#6f6f6f" fill-rule="evenodd" stroke="none"/>
    <path d="M113.1 -480.45 Q106.6 -477.95 100.1 -475.95 L96.1 -488.95 Q102.6 -490.95 108.6 -493.45 111.1 -486.95 113.1 -480.45" fill="#6f6f6f" fill-rule="evenodd" stroke="none"/>
    <path d="M56.6 -520.45 Q60.6 -514.95 64.1 -509.45 58.6 -505.45 53.1 -501.95 L45.6 -512.95 Q51.1 -516.45 56.6 -520.45" fill="#6f6f6f" fill-rule="evenodd" stroke="none"/>
    <path d="M84.6 -305.9 L71.6 -301.9 67.6 -314.9 80.6 -318.9 84.6 -305.9" fill="#6f6f6f" fill-rule="evenodd" stroke="none"/>
    <path d="M57.1 -280.4 L54.1 -273.9 53.6 -274.4 50.6 -268.4 43.6 -271.4 46.6 -277.4 Q44.6 -278.4 42.1 -279.4 L45.1 -285.9 Q51.1 -282.9 57.1 -280.4" fill="#6f6f6f" fill-rule="evenodd" stroke="none"/>
    <path d="M170.1 -145.9 L161.1 -145.9 161.1 -172.4 170.1 -172.4 170.1 -145.9" fill="#6f6f6f" fill-rule="evenodd" stroke="none"/>
    <path d="M-6.9 -238.9 L-19.9 -238.9 -19.9 -252.4 -6.9 -252.4 -6.9 -238.9" fill="#6f6f6f" fill-rule="evenodd" stroke="none"/>
    <path d="M12.6 -11.4 L-37.4 -11.4 -37.4 -13.9 12.6 -13.9 12.6 -11.4" fill="#6f6f6f" fill-rule="evenodd" stroke="none"/>
    <path d="M138.1 19.1 Q140.1 17.6 141.6 15.6 L141.6 11.6 150.6 11.6 150.6 15.1 154.1 19.1 Q154.6 21.6 154.6 24.1 L152.6 28.1 Q151.6 29.1 150.6 29.6 L150.6 36.6 147.6 36.6 Q146.6 37.6 145.1 38.1 L108.1 38.1 108.1 24.1 121.6 24.1 121.6 37.1 143.1 37.1 143.1 36.6 141.6 36.6 141.6 29.6 139.6 28.6 137.6 24.1 Q138.1 21.6 138.1 19.1" fill="#6f6f6f" fill-rule="evenodd" stroke="none"/>
    <path d="M151.1 -183.9 L136.1 -183.9 136.1 -233.4 151.1 -233.4 151.1 -194.9 153.1 -194.9 153.1 -190.4 151.1 -190.4 151.1 -183.9" fill="#6f6f6f" fill-rule="evenodd" stroke="none"/>
    <path d="M-41.4 -411.45 L-50.4 -411.45 -49.4 -452.95 -40.9 -452.95 Q-40.9 -431.95 -41.4 -411.45" fill="#6f6f6f" fill-rule="evenodd" stroke="none"/>
    <path d="M0.6 -359.45 L-8.4 -359.45 -7.4 -400.95 1.1 -400.95 Q1.1 -379.95 0.6 -359.45" fill="#6f6f6f" fill-rule="evenodd" stroke="none"/>
    <path d="M-4.4 -480.45 Q-4.4 -475.95 -4.9 -471.95 L-46.4 -473.95 Q-45.9 -477.95 -45.9 -482.45 L-4.4 -480.45" fill="#6f6f6f" fill-rule="evenodd" stroke="none"/>
    <path d="M0.1 -421.95 L-8.4 -422.45 Q-7.9 -442.95 -7.9 -463.45 L1.1 -463.45 0.1 -421.95" fill="#6f6f6f" fill-rule="evenodd" stroke="none"/>
    <path d="M-107.4 -297.9 L-134.4 -297.9 -134.4 -307.4 -107.4 -307.4 -107.4 -297.9" fill="#6f6f6f" fill-rule="evenodd" stroke="none"/>
    <path d="M14.1 -257.9 Q14.1 -255.9 13.6 -254.4 L13.6 -144.4 10.6 -144.4 10.6 -254.4 Q11.1 -256.4 11.1 -258.9 13.1 -261.4 14.6 -264.4 L18.1 -266.4 23.6 -267.4 29.1 -266.4 33.6 -264.4 37.1 -259.4 Q37.6 -256.9 37.6 -254.4 L37.6 -144.4 34.6 -144.4 34.6 -254.4 Q34.6 -255.9 34.1 -257.9 L31.6 -261.9 Q27.6 -262.9 23.6 -264.4 L19.6 -263.4 Q18.1 -262.4 16.6 -261.9 15.6 -259.9 14.1 -257.9" fill="#6f6f6f" fill-rule="evenodd" stroke="none"/>
    <path d="M-176.4 283.6 L-176.4 275.1 -173.9 275.1 -173.9 283.6 -176.4 283.6" fill="#424242" fill-rule="evenodd" stroke="none"/>
    <path d="M-87.4 283.6 L-87.4 275.1 -84.9 275.1 -84.9 283.6 -87.4 283.6" fill="#424242" fill-rule="evenodd" stroke="none"/>
    <path d="M10.1 283.6 L10.1 275.6 12.6 275.6 12.6 283.6 10.1 283.6" fill="#424242" fill-rule="evenodd" stroke="none"/>
    <path d="M45.6 286.1 L45.6 282.6 53.1 282.6 53.1 286.1 45.6 286.1" fill="#424242" fill-rule="evenodd" stroke="none"/>
    <path d="M98.1 283.1 L98.1 275.1 101.1 275.1 101.1 283.1 98.1 283.1" fill="#424242" fill-rule="evenodd" stroke="none"/>
    <path d="M189.6 283.6 L189.6 275.6 192.1 275.6 192.1 283.6 189.6 283.6" fill="#424242" fill-rule="evenodd" stroke="none"/>
    <path d="M98.1 142.6 L98.1 134.6 101.1 134.6 101.1 142.6 98.1 142.6" fill="#424242" fill-rule="evenodd" stroke="none"/>
    <path d="M10.1 142.6 L10.1 135.1 12.6 135.1 12.6 142.6 10.1 142.6" fill="#424242" fill-rule="evenodd" stroke="none"/>
    <path d="M-87.4 143.6 L-87.4 136.1 -84.9 136.1 -84.9 143.6 -87.4 143.6" fill="#424242" fill-rule="evenodd" stroke="none"/>
    <path d="M-176.4 142.1 L-176.4 134.1 -173.9 134.1 -173.9 142.1 -176.4 142.1" fill="#424242" fill-rule="evenodd" stroke="none"/>
    <path d="M189.6 134.6 L192.1 134.6 192.1 142.6 189.6 142.6 189.6 134.6" fill="#424242" fill-rule="evenodd" stroke="none"/>
    <path d="M45.6 217.6 L45.6 214.1 53.1 214.1 53.1 217.6 45.6 217.6" fill="#424242" fill-rule="evenodd" stroke="none"/>
    <path d="M45.6 238.1 L53.1 238.1 53.1 242.6 51.6 242.6 51.6 255.1 53.6 255.1 53.6 258.6 46.1 258.6 46.1 255.1 47.6 255.1 47.6 242.6 45.6 242.6 45.6 238.1" fill="#424242" fill-rule="evenodd" stroke="none"/>
    <path d="M109.6 236.1 L109.6 232.1 131.6 232.1 131.6 236.1 109.6 236.1" fill="#424242" fill-rule="evenodd" stroke="none"/>
    <path d="M153.6 132.1 L153.6 84.6 155.1 84.6 155.1 132.1 153.6 132.1" fill="#424242" fill-rule="evenodd" stroke="none"/>
    <path d="M127.1 86.1 L127.1 84.6 152.6 84.6 152.6 86.1 127.1 86.1" fill="#424242" fill-rule="evenodd" stroke="none"/>
    <path d="M117.6 84.6 L117.6 86.1 92.1 86.1 92.1 84.6 117.6 84.6" fill="#424242" fill-rule="evenodd" stroke="none"/>
    <path d="M78.6 84.6 L78.6 86.1 53.1 86.1 53.1 84.6 78.6 84.6" fill="#424242" fill-rule="evenodd" stroke="none"/>
    <path d="M14.1 86.1 L14.1 84.6 39.6 84.6 39.6 86.1 14.1 86.1" fill="#424242" fill-rule="evenodd" stroke="none"/>
    <path d="M-19.9 86.1 L-19.9 84.6 5.6 84.6 5.6 86.1 -19.9 86.1" fill="#424242" fill-rule="evenodd" stroke="none"/>
    <path d="M117.6 113.6 L117.6 115.1 92.1 115.1 92.1 113.6 117.6 113.6" fill="#424242" fill-rule="evenodd" stroke="none"/>
    <path d="M78.6 113.6 L78.6 115.1 53.1 115.1 53.1 113.6 78.6 113.6" fill="#424242" fill-rule="evenodd" stroke="none"/>
    <path d="M14.1 115.1 L14.1 113.6 39.6 113.6 39.6 115.1 14.1 115.1" fill="#424242" fill-rule="evenodd" stroke="none"/>
    <path d="M-19.9 115.1 L-19.9 113.6 5.6 113.6 5.6 115.1 -19.9 115.1" fill="#424242" fill-rule="evenodd" stroke="none"/>
    <path d="M-30.4 50.6 L-21.9 50.6 -21.9 55.1 -20.9 55.1 -20.9 57.6 -19.4 57.6 -19.4 60.1 -20.9 60.1 -20.9 68.1 -53.4 68.1 -53.4 60.1 -54.9 60.1 -54.9 58.1 -53.4 58.1 -53.4 55.1 -52.4 55.1 -52.4 50.6 -43.9 50.6 -43.9 59.1 -30.4 58.6 -30.4 50.6" fill="#424242" fill-rule="evenodd" stroke="none"/>
    <path d="M88.6 -6.9 L88.6 -0.9 90.1 -0.9 90.1 7.1 91.6 7.1 91.6 9.6 90.1 9.6 90.1 12.6 89.1 12.6 89.1 17.1 80.1 17.1 80.1 9.6 66.6 9.6 66.6 17.1 58.1 17.1 58.1 12.6 57.6 12.6 57.6 9.6 56.1 9.6 56.1 7.1 57.6 7.1 57.6 -0.9 58.1 -0.9 58.1 -6.9 88.6 -6.9" fill="#424242" fill-rule="evenodd" stroke="none"/>
    <path d="M-146.9 58.1 L-146.9 59.6 -138.9 59.6 -138.9 60.1 -134.9 60.1 -134.9 91.1 -138.9 91.1 -138.9 92.1 -146.9 92.1 -146.9 93.6 -149.4 93.6 -149.4 92.1 -152.4 92.1 -152.4 91.1 -156.9 91.1 -156.9 82.6 -148.4 82.6 -148.4 68.6 -156.9 68.6 -156.9 60.1 -152.4 60.1 -152.4 59.6 -149.4 59.6 -149.4 58.1 -146.9 58.1" fill="#424242" fill-rule="evenodd" stroke="none"/>
    <path d="M-39.9 19.6 L-39.9 23.1 -38.9 23.1 -38.9 30.6 -37.4 30.6 -37.4 32.6 -38.9 32.6 -38.9 35.6 -39.9 35.6 -39.9 39.6 -48.4 39.6 -48.4 31.6 -61.9 31.6 -61.9 39.6 -70.4 39.6 -70.4 35.6 -71.4 35.6 -71.4 32.6 -72.9 32.6 -72.9 30.6 -71.4 30.6 -71.4 23.1 -70.4 23.1 -70.4 19.6 -39.9 19.6" fill="#424242" fill-rule="evenodd" stroke="none"/>
    <path d="M-173.4 27.1 L-173.4 21.6 -167.9 21.6 -167.9 27.1 -173.4 27.1" fill="#424242" fill-rule="evenodd" stroke="none"/>
    <path d="M-87.4 27.1 L-87.4 21.6 -81.9 21.6 -81.9 27.1 -87.4 27.1" fill="#424242" fill-rule="evenodd" stroke="none"/>
    <path d="M-82.4 -58.4 L-82.4 -52.9 -87.9 -52.9 -87.9 -58.4 -82.4 -58.4" fill="#424242" fill-rule="evenodd" stroke="none"/>
    <path d="M-167.9 -58.4 L-167.9 -52.9 -173.4 -52.9 -173.4 -58.4 -167.9 -58.4" fill="#424242" fill-rule="evenodd" stroke="none"/>
    <path d="M-2.4 -58.4 L-2.4 -52.9 -7.9 -52.9 -7.9 -58.4 -2.4 -58.4" fill="#424242" fill-rule="evenodd" stroke="none"/>
    <path d="M78.1 -58.4 L78.1 -52.9 72.6 -52.9 72.6 -58.4 78.1 -58.4" fill="#424242" fill-rule="evenodd" stroke="none"/>
    <path d="M-2.4 -193.4 L-2.4 -187.9 -7.9 -187.9 -7.9 -193.4 -2.4 -193.4" fill="#424242" fill-rule="evenodd" stroke="none"/>
    <path d="M-0.9 -277.4 L-0.9 -271.9 -6.4 -271.9 -6.4 -277.4 -0.9 -277.4" fill="#424242" fill-rule="evenodd" stroke="none"/>
    <path d="M77.6 -193.9 L77.6 -188.4 72.6 -188.4 72.6 -193.9 77.6 -193.9" fill="#424242" fill-rule="evenodd" stroke="none"/>
    <path d="M26.6 -218.9 L26.6 -213.4 21.1 -213.4 21.1 -218.9 26.6 -218.9" fill="#424242" fill-rule="evenodd" stroke="none"/>
    <path d="M26.6 -177.9 L26.6 -172.4 21.1 -172.4 21.1 -177.9 26.6 -177.9" fill="#424242" fill-rule="evenodd" stroke="none"/>
    <path d="M-6.4 27.1 L-6.4 21.6 -0.9 21.6 -0.9 27.1 -6.4 27.1" fill="#424242" fill-rule="evenodd" stroke="none"/>
    <path d="M72.6 21.1 L78.1 21.1 78.1 27.1 72.6 27.1 72.6 21.1" fill="#424242" fill-rule="evenodd" stroke="none"/>
    <path d="M96.1 -7.9 L96.6 -7.9 96.6 -11.4 118.6 -11.4 118.6 -3.4 119.6 -3.4 119.6 5.1 118.1 5.1 118.1 12.6 128.1 12.6 128.1 -8.4 130.1 -8.4 130.1 15.1 117.1 15.1 117.1 15.6 96.1 15.6 96.1 -7.9" fill="#424242" fill-rule="evenodd" stroke="none"/>
    <path d="M115.1 -234.9 L115.1 -222.4 113.6 -222.4 113.6 -236.9 133.6 -236.9 133.6 -234.9 115.1 -234.9" fill="#424242" fill-rule="evenodd" stroke="none"/>
    <path d="M72.6 -265.4 L72.6 -263.9 57.1 -263.9 57.1 -236.9 82.1 -236.9 82.1 -222.4 80.1 -222.4 80.1 -234.9 55.1 -234.9 55.1 -265.4 72.6 -265.4" fill="#424242" fill-rule="evenodd" stroke="none"/>
    <path d="M119.6 -195.4 L119.6 -227.9 135.1 -227.9 135.1 -195.4 119.6 -195.4" fill="#424242" fill-rule="evenodd" stroke="none"/>
    <path d="M151.6 -195.4 L151.6 -227.9 167.1 -227.9 167.1 -195.4 151.6 -195.4" fill="#424242" fill-rule="evenodd" stroke="none"/>
    <path d="M174.6 -546.45 L174.6 -541.95 172.6 -541.95 172.6 -546.45 174.6 -546.45" fill="#424242" fill-rule="evenodd" stroke="none"/>
    <path d="M173.1 -478.45 L173.1 -483.45 174.6 -483.45 174.6 -478.45 173.1 -478.45" fill="#424242" fill-rule="evenodd" stroke="none"/>
    <path d="M172.6 -431.45 L172.6 -436.45 174.1 -436.45 174.1 -431.45 172.6 -431.45" fill="#424242" fill-rule="evenodd" stroke="none"/>
    <path d="M172.6 -386.45 L172.6 -391.45 174.1 -391.45 174.1 -386.45 172.6 -386.45" fill="#424242" fill-rule="evenodd" stroke="none"/>
    <path d="M172.6 -343.45 L172.6 -348.45 174.1 -348.45 174.1 -343.45 172.6 -343.45" fill="#424242" fill-rule="evenodd" stroke="none"/>
    <path d="M46.1 -471.95 L46.1 -466.95 44.6 -466.95 44.6 -471.95 46.1 -471.95" fill="#424242" fill-rule="evenodd" stroke="none"/>
    <path d="M46.1 -436.95 L46.1 -432.45 44.6 -432.45 44.6 -436.95 46.1 -436.95" fill="#424242" fill-rule="evenodd" stroke="none"/>
    <path d="M47.1 -450.95 L47.1 -448.95 42.1 -448.95 42.1 -450.95 47.1 -450.95" fill="#424242" fill-rule="evenodd" stroke="none"/>
    <path d="M44.6 -386.45 L44.6 -390.95 46.1 -390.95 46.1 -386.45 44.6 -386.45" fill="#424242" fill-rule="evenodd" stroke="none"/>
    <path d="M46.1 -348.95 L46.1 -343.95 44.6 -343.95 44.6 -348.95 46.1 -348.95" fill="#424242" fill-rule="evenodd" stroke="none"/>
    <path d="M-137.9 -515.95 L-137.9 -518.45 -131.9 -518.45 -131.9 -515.95 -137.9 -515.95" fill="#424242" fill-rule="evenodd" stroke="none"/>
    <path d="M-37.4 -454.95 L-30.4 -454.95 -30.4 -458.45 -33.4 -458.45 -33.4 -478.45 -13.4 -478.45 -13.4 -458.45 -16.9 -458.45 -16.9 -454.95 -9.9 -454.95 -9.9 -355.95 -16.9 -355.95 -16.9 -352.95 -30.4 -352.95 -30.4 -355.95 -37.4 -355.95 -37.4 -454.95" fill="#424242" fill-rule="evenodd" stroke="none"/>
    <path d="M-105.4 -380.95 L-114.4 -380.95 Q-114.4 -391.45 -114.9 -401.95 -98.9 -401.95 -82.9 -402.45 L-82.9 -397.95 -50.4 -397.95 -50.4 -386.95 -82.9 -386.95 -82.9 -376.45 Q-93.9 -375.95 -105.4 -375.95 L-105.4 -380.95" fill="#424242" fill-rule="evenodd" stroke="none"/>
    <path d="M-178.4 251.6 L-178.4 285.1 -185.4 285.1 -185.4 251.6 -178.4 251.6" fill="#ffffff" fill-rule="evenodd" stroke="none"/>
    <path d="M-242.9 -496.95 L-248.9 -496.45 Q-250.9 -522.95 -253.4 -549.45 L-247.4 -549.95 Q-244.9 -523.45 -242.9 -496.95" fill="#ffffff" fill-rule="evenodd" stroke="none"/>
  </g>
</svg>
