<?xml version="1.0" encoding="UTF-8" standalone="no"?>
<svg xmlns:ffdec="https://www.free-decompiler.com/flash" xmlns:xlink="http://www.w3.org/1999/xlink" ffdec:objectType="shape" height="621.0px" width="516.5px" xmlns="http://www.w3.org/2000/svg">
  <g transform="matrix(1.0, 0.0, 0.0, 1.0, 390.4, 552.2)">
    <path d="M-39.9 -500.2 L121.6 -500.2 Q121.6 -340.7 121.1 -181.2 117.6 -156.2 113.6 -131.2 108.1 -110.2 102.1 -89.7 97.6 -77.7 92.6 -65.7 L79.6 -43.7 Q66.1 -26.7 52.6 -10.2 L16.6 19.8 Q-3.4 31.3 -23.9 42.3 L-34.9 47.3 -53.9 53.3 Q-73.4 57.3 -93.4 60.8 -160.9 62.3 -228.9 63.3 L-228.9 10.8 -390.4 10.8 -389.4 -317.7 Q-379.9 -358.7 -370.9 -399.7 -365.9 -411.2 -361.4 -423.2 L-348.4 -445.2 -321.4 -478.7 -303.4 -495.7 -265.9 -520.7 Q-249.9 -528.2 -233.9 -536.2 -213.9 -541.2 -194.4 -546.7 L-153.4 -551.7 Q-96.4 -551.7 -39.9 -552.2 L-39.9 -500.2" fill="#424242" fill-rule="evenodd" stroke="none"/>
    <path d="M-118.4 43.8 L-116.4 54.8 -95.9 53.3 Q-95.4 55.3 -95.4 57.3 L-116.4 59.3 Q-116.4 63.8 -116.9 68.3 L-124.4 68.8 -126.4 59.8 -165.4 59.8 -165.4 55.8 Q-145.9 55.8 -126.4 55.3 -125.9 49.8 -125.9 43.8 L-118.4 43.8 M112.1 -174.2 Q106.6 -175.2 101.1 -176.7 L102.1 -183.7 114.6 -183.7 126.1 -182.2 Q126.1 -178.2 125.6 -174.7 L116.1 -173.7 Q114.1 -153.7 111.6 -134.2 109.1 -119.2 100.1 -92.2 104.1 -89.7 108.1 -87.7 L105.1 -80.7 96.6 -82.7 86.6 -64.7 83.1 -66.7 92.1 -84.7 82.6 -90.7 Q84.1 -93.7 85.1 -97.2 L96.1 -94.2 Q104.6 -117.2 106.6 -130.2 109.1 -143.2 111.1 -159.7 L112.1 -174.2 M-36.9 38.8 Q-37.9 33.3 -39.4 27.8 -35.9 26.8 -32.9 25.3 L-27.4 34.8 Q-17.9 30.8 -8.9 26.3 L-6.9 29.3 -25.9 39.3 Q-24.4 43.8 -23.4 47.8 -29.9 51.3 -30.4 50.8 -32.4 46.8 -34.9 42.8 -44.9 46.3 -54.9 49.3 -55.4 47.3 -56.4 45.3 -46.4 42.3 -36.9 38.8 M63.6 -30.2 L50.1 -14.2 56.1 -6.2 51.1 -1.2 43.1 -7.2 Q35.1 -0.2 27.1 6.3 26.1 4.8 24.6 3.3 32.6 -3.2 40.1 -10.2 L33.1 -19.2 38.1 -24.2 47.1 -17.2 Q54.1 -24.7 60.6 -32.7 62.1 -31.2 63.6 -30.2" fill="#424242" fill-rule="evenodd" stroke="none"/>
    <path d="M-63.9 -458.2 L-28.9 -458.2 -28.9 -410.7 -7.4 -410.7 -7.4 -412.2 5.6 -412.2 5.6 -410.7 54.6 -410.7 54.6 -381.7 42.6 -381.7 42.6 -378.7 16.6 -378.7 16.6 -381.7 -63.9 -381.7 -63.9 -458.2" fill="#6f6f6f" fill-rule="evenodd" stroke="none"/>
    <path d="M60.1 -343.2 L60.1 -328.2 62.6 -328.2 62.6 -313.2 60.1 -313.2 60.1 -298.2 62.6 -298.2 62.6 -283.7 60.1 -283.7 60.1 -216.7 62.6 -216.7 62.6 -218.2 97.6 -218.2 97.6 -169.7 62.6 -169.7 62.6 -203.7 60.1 -203.7 60.1 -137.7 62.6 -137.7 62.6 -167.7 97.6 -167.7 97.6 -98.2 62.6 -98.2 62.6 -124.7 60.1 -124.7 60.1 -98.2 30.6 -98.2 30.6 -95.2 84.6 -95.2 82.6 -90.7 92.1 -84.7 Q83.1 -66.2 73.6 -48.2 L47.1 -17.2 38.1 -24.2 33.1 -19.2 40.1 -10.2 Q32.6 -3.2 24.6 3.8 8.1 15.3 -8.9 26.3 -17.9 30.8 -27.4 34.8 L-32.9 25.3 Q-35.9 26.8 -39.4 27.8 -37.9 33.3 -36.9 38.8 -46.4 42.3 -56.4 45.3 -55.4 47.3 -54.9 49.3 L-63.9 52.3 -95.4 57.3 Q-95.4 55.3 -95.9 53.3 L-116.4 54.8 -118.4 43.8 -125.9 43.8 -125.9 -95.2 -30.9 -95.2 -30.9 -98.2 -46.9 -98.2 -46.9 -119.7 -48.4 -119.7 -48.4 -98.2 -83.9 -98.2 -83.9 -172.2 -48.4 -172.2 -48.4 -134.2 -46.9 -134.2 -46.9 -172.2 -0.9 -172.2 -0.9 -195.7 -1.9 -195.7 -1.9 -208.2 Q-1.4 -208.2 -0.9 -208.7 L-0.9 -238.7 -1.9 -238.7 -1.9 -251.2 Q-1.4 -251.2 -0.9 -251.7 L-0.9 -283.7 -2.9 -283.7 -2.9 -298.2 -0.9 -298.2 -0.9 -313.2 -2.9 -313.2 -2.9 -328.2 -0.9 -328.2 -0.9 -343.2 -2.9 -343.2 -2.9 -358.2 -0.9 -358.2 -0.9 -378.7 60.1 -378.7 60.1 -358.2 62.6 -358.2 62.6 -343.2 60.1 -343.2" fill="#959595" fill-rule="evenodd" stroke="none"/>
    <path d="M-94.9 60.8 L-95.9 53.3 -56.4 45.3 Q-54.9 49.3 -53.9 53.3 L-94.9 60.8" fill="#ffffff" fill-rule="evenodd" stroke="none"/>
    <path d="M-1.4 -298.2 L-1.4 -283.2 -4.9 -283.2 -4.9 -278.2 -31.4 -278.2 -31.4 -303.7 -4.9 -303.7 -4.9 -298.2 -1.4 -298.2" fill="#ffffff" fill-rule="evenodd" stroke="none"/>
    <path d="M-18.4 20.3 Q-21.9 21.8 -25.9 22.8 -26.9 19.3 -28.4 15.3 -24.9 14.3 -21.4 12.8 L-11.4 7.8 8.1 -5.2 22.6 -18.2 28.1 -12.2 13.1 1.3 Q-2.4 10.8 -18.4 20.3" fill="#6f6f6f" fill-rule="evenodd" stroke="none"/>
    <path d="M-96.9 -38.2 L-102.9 -46.7 -91.9 -54.7 Q-89.4 -56.7 -87.4 -58.7 -83.4 -63.2 -79.4 -68.2 -76.4 -72.2 -73.9 -76.2 L-65.9 -70.2 Q-70.4 -63.7 -75.4 -57.2 L-96.9 -38.2" fill="#6f6f6f" fill-rule="evenodd" stroke="none"/>
    <path d="M-123.9 1.3 L-123.9 -27.2 -115.9 -27.2 -115.9 1.3 -123.9 1.3" fill="#6f6f6f" fill-rule="evenodd" stroke="none"/>
    <path d="M-123.9 30.3 L-123.9 2.3 -115.9 2.3 -115.9 30.3 -123.9 30.3" fill="#6f6f6f" fill-rule="evenodd" stroke="none"/>
    <path d="M35.1 -56.7 L35.1 -89.2 67.6 -89.2 67.6 -56.7 35.1 -56.7" fill="#6f6f6f" fill-rule="evenodd" stroke="none"/>
    <path d="M70.1 -121.7 L95.1 -121.7 95.1 -110.7 70.1 -110.7 70.1 -121.7" fill="#6f6f6f" fill-rule="evenodd" stroke="none"/>
    <path d="M76.1 -141.7 L76.1 -167.2 87.1 -167.2 87.1 -141.7 76.1 -141.7" fill="#6f6f6f" fill-rule="evenodd" stroke="none"/>
    <path d="M86.1 -197.7 L86.1 -172.7 75.6 -172.7 75.6 -197.7 86.1 -197.7" fill="#6f6f6f" fill-rule="evenodd" stroke="none"/>
    <path d="M-81.4 -148.2 L-81.4 -159.2 -56.4 -159.2 -56.4 -148.2 -81.4 -148.2" fill="#6f6f6f" fill-rule="evenodd" stroke="none"/>
    <path d="M-74.9 -103.7 L-74.9 -129.2 -64.9 -129.2 -64.9 -103.7 -74.9 -103.7" fill="#6f6f6f" fill-rule="evenodd" stroke="none"/>
    <path d="M-32.4 -95.2 L-31.4 -95.2 -31.4 -75.2 -21.4 -75.2 -21.4 -85.7 -17.9 -85.7 -17.9 -73.2 -21.4 -73.2 -21.4 -73.7 -32.4 -73.7 -32.4 -95.2" fill="#6f6f6f" fill-rule="evenodd" stroke="none"/>
    <path d="M30.1 -95.2 L31.1 -95.2 31.1 -73.7 20.1 -73.7 20.1 -73.2 16.6 -73.2 16.6 -85.7 20.1 -85.7 20.1 -74.7 30.1 -74.7 30.1 -95.2" fill="#6f6f6f" fill-rule="evenodd" stroke="none"/>
    <path d="M-4.9 -85.7 L-4.9 -73.2 -8.9 -73.2 -8.9 -85.7 -4.9 -85.7" fill="#6f6f6f" fill-rule="evenodd" stroke="none"/>
    <path d="M7.6 -85.7 L7.6 -73.2 4.1 -73.2 4.1 -85.7 7.6 -85.7" fill="#6f6f6f" fill-rule="evenodd" stroke="none"/>
  </g>
</svg>
