<?xml version="1.0" encoding="UTF-8" standalone="no"?>
<svg xmlns:ffdec="https://www.free-decompiler.com/flash" xmlns:xlink="http://www.w3.org/1999/xlink" ffdec:objectType="shape" height="12.0px" width="19.05px" xmlns="http://www.w3.org/2000/svg">
  <g transform="matrix(1.0, 0.0, 0.0, 1.0, 9.5, 6.0)">
    <path d="M0.9 -1.65 Q0.45 -2.1 0.45 -2.75 0.45 -3.5 1.1 -4.0 L0.0 -4.15 Q-1.7 -4.15 -2.95 -2.95 -4.15 -1.7 -4.15 0.0 -4.15 1.75 -2.95 2.95 -1.7 4.2 0.0 4.2 1.75 4.2 2.95 2.95 4.2 1.75 4.2 0.0 4.2 -1.25 3.5 -2.25 3.15 -1.2 2.05 -1.2 1.4 -1.2 0.9 -1.65 M5.2 -4.7 Q7.5 -3.5 8.85 -1.35 L9.55 0.0 8.85 1.4 Q7.45 3.5 5.2 4.75 2.8 6.0 0.0 6.0 -2.75 6.0 -5.15 4.75 -7.45 3.5 -8.8 1.4 L-9.5 0.0 -8.8 -1.35 Q-7.45 -3.5 -5.15 -4.7 -2.8 -6.0 0.0 -6.0 2.8 -6.0 5.2 -4.7" fill="#ffffff" fill-rule="evenodd" stroke="none"/>
  </g>
</svg>
