<?xml version="1.0" encoding="UTF-8" standalone="no"?>
<svg xmlns:ffdec="https://www.free-decompiler.com/flash" xmlns:xlink="http://www.w3.org/1999/xlink" ffdec:objectType="shape" height="156.65px" width="164.35px" xmlns="http://www.w3.org/2000/svg">
  <g transform="matrix(1.0, 0.0, 0.0, 1.0, 59.65, 64.25)">
    <path d="M-5.65 -64.25 L-5.65 -53.95 104.7 -53.95 104.7 31.4 59.7 31.4 59.7 59.05 58.05 59.05 58.05 92.4 16.0 92.4 16.0 75.05 -59.65 75.05 -59.65 -53.95 -57.3 -53.95 -57.3 -64.25 -5.65 -64.25" fill="#414141" fill-rule="evenodd" stroke="none"/>
    <path d="M20.05 89.65 L20.05 74.75 28.05 74.75 28.05 59.45 36.2 59.45 36.2 58.95 50.05 58.95 50.05 59.45 51.45 59.45 51.45 89.65 20.05 89.65" fill="#6f6f6f" fill-rule="evenodd" stroke="none"/>
    <path d="M-8.3 32.05 L-8.3 27.55 -15.15 27.55 -15.15 32.05 -8.3 32.05 M101.3 -49.55 L101.3 -33.55 102.8 -33.55 102.8 4.95 101.3 4.95 101.3 27.55 62.05 27.55 62.05 22.55 59.9 22.55 59.9 27.55 55.7 27.55 55.7 55.6 51.45 55.6 51.45 57.7 50.05 57.7 50.05 58.1 36.2 58.1 36.2 57.5 31.7 57.5 31.7 55.6 24.55 55.6 24.55 55.5 24.45 55.5 24.45 39.0 24.55 39.0 24.55 29.85 28.4 29.85 28.4 27.55 14.85 27.55 14.85 32.05 22.85 32.05 22.85 68.25 -12.8 68.25 -12.8 60.55 -15.05 60.55 -15.05 68.3 -56.3 68.3 -56.3 63.4 -57.65 63.4 -57.65 32.25 -56.3 32.25 -56.3 -33.25 -57.65 -33.25 -57.65 -46.75 -56.3 -46.75 -56.3 -49.55 -53.35 -49.55 -53.35 -51.3 -7.35 -51.3 -7.35 -49.45 31.8 -49.45 31.8 2.8 59.9 2.8 59.9 10.05 62.05 10.05 62.05 -0.6 54.55 -0.6 54.55 -30.6 52.95 -30.6 52.95 -16.0 34.8 -16.0 34.8 -49.55 52.95 -49.55 52.95 -43.75 54.55 -43.75 54.55 -49.55 101.3 -49.55" fill="#959595" fill-rule="evenodd" stroke="none"/>
    <path d="M15.85 32.05 L22.85 32.05 22.85 68.25 -12.8 68.25 -12.8 61.0 15.85 61.0 15.85 32.05" fill="#6f6f6f" fill-rule="evenodd" stroke="none"/>
    <path d="M-39.25 68.3 L-39.25 62.2 -32.3 62.2 -32.3 68.3 -39.25 68.3" fill="#6f6f6f" fill-rule="evenodd" stroke="none"/>
    <path d="M-24.75 68.3 L-24.75 64.2 -15.05 64.2 -15.05 68.3 -24.75 68.3" fill="#6f6f6f" fill-rule="evenodd" stroke="none"/>
    <path d="M-55.95 -27.8 L-50.65 -27.8 -50.65 13.25 -55.95 13.25 -55.95 -27.8" fill="#6f6f6f" fill-rule="evenodd" stroke="none"/>
    <path d="M-8.3 31.75 L-8.3 50.75 -15.15 50.75 -15.15 31.75 -8.3 31.75" fill="#6f6f6f" fill-rule="evenodd" stroke="none"/>
    <path d="M-15.1 5.8 L-15.1 14.55 -38.85 14.55 -38.85 5.8 -15.1 5.8" fill="#6f6f6f" fill-rule="evenodd" stroke="none"/>
    <path d="M-27.95 -25.9 L-27.95 -16.1 -37.85 -16.1 -37.85 -25.9 -27.95 -25.9" fill="#6f6f6f" fill-rule="evenodd" stroke="none"/>
    <path d="M-10.05 -20.35 L-10.05 -5.8 -18.7 -5.8 -18.7 -20.35 -10.05 -20.35" fill="#6f6f6f" fill-rule="evenodd" stroke="none"/>
    <path d="M9.55 5.85 L-3.2 5.85 -3.2 -27.9 -40.2 -27.9 -40.2 -40.25 9.55 -40.25 9.55 5.85" fill="#6f6f6f" fill-rule="evenodd" stroke="none"/>
    <path d="M27.4 -49.3 L31.8 -49.3 31.8 2.7 27.4 2.7 27.4 -49.3" fill="#6f6f6f" fill-rule="evenodd" stroke="none"/>
    <path d="M54.55 -3.8 L54.55 -22.05 81.55 -22.05 81.55 -3.8 54.55 -3.8" fill="#6f6f6f" fill-rule="evenodd" stroke="none"/>
    <path d="M60.65 -29.3 L60.65 -23.3 54.95 -23.3 54.95 -29.3 60.65 -29.3" fill="#6f6f6f" fill-rule="evenodd" stroke="none"/>
    <path d="M59.0 -48.15 L57.8 -44.35 55.5 -45.05 56.7 -48.9 59.0 -48.15" fill="#6f6f6f" fill-rule="evenodd" stroke="none"/>
    <path d="M90.8 -49.55 L90.8 -42.7 65.05 -42.7 65.05 -49.55 90.8 -49.55" fill="#6f6f6f" fill-rule="evenodd" stroke="none"/>
    <path d="M93.95 7.25 L100.45 7.6 99.85 18.55 93.35 18.2 93.95 7.25" fill="#6f6f6f" fill-rule="evenodd" stroke="none"/>
    <path d="M52.95 -16.0 L34.65 -16.0 34.65 -26.8 52.95 -26.8 52.95 -16.0" fill="#6f6f6f" fill-rule="evenodd" stroke="none"/>
    <path d="M36.75 -30.05 L34.9 -30.05 34.9 -33.8 36.75 -33.8 36.75 -30.05" fill="#6f6f6f" fill-rule="evenodd" stroke="none"/>
    <path d="M35.05 -41.2 L35.05 -47.3 40.55 -47.3 40.55 -41.2 35.05 -41.2" fill="#6f6f6f" fill-rule="evenodd" stroke="none"/>
    <path d="M48.15 -47.55 L40.15 -47.55 40.15 -49.3 48.15 -49.3 48.15 -47.55" fill="#6f6f6f" fill-rule="evenodd" stroke="none"/>
    <path d="M92.2 27.55 L75.05 27.55 75.05 20.75 92.2 20.75 92.2 27.55" fill="#6f6f6f" fill-rule="evenodd" stroke="none"/>
    <path d="M24.35 49.55 L24.35 35.55 29.2 35.55 29.2 49.55 24.35 49.55" fill="#6f6f6f" fill-rule="evenodd" stroke="none"/>
    <path d="M-37.7 18.1 L-43.35 24.8 -52.65 16.9 -46.95 10.25 -37.7 18.1" fill="#6f6f6f" fill-rule="evenodd" stroke="none"/>
    <path d="M-25.95 40.85 L-27.2 45.5 -30.6 48.95 -35.35 50.2 -40.05 48.9 -43.5 45.5 -44.75 40.8 -43.5 36.15 -40.1 32.7 -35.35 31.45 -30.65 32.75 -27.2 36.15 -25.95 40.85" fill="#6f6f6f" fill-rule="evenodd" stroke="none"/>
    <path d="M-48.2 63.05 L-50.0 63.5 -51.65 62.75 -52.55 61.25 -52.4 59.45 -51.2 58.05 -49.45 57.65 -47.8 58.4 -46.9 59.9 -47.05 61.7 -48.2 63.05" fill="#6f6f6f" fill-rule="evenodd" stroke="none"/>
    <path d="M-50.7 30.3 L-52.5 30.75 -54.15 30.0 -55.05 28.5 -54.9 26.7 -53.7 25.3 -51.95 24.9 -50.3 25.65 -49.4 27.15 -49.55 28.95 -50.7 30.3" fill="#6f6f6f" fill-rule="evenodd" stroke="none"/>
    <path d="M25.35 -44.05 L24.0 -43.75 22.65 -44.3 21.95 -45.5 22.05 -46.95 23.0 -48.0 24.4 -48.35 25.7 -47.75 26.45 -46.55 26.3 -45.15 25.35 -44.05" fill="#6f6f6f" fill-rule="evenodd" stroke="none"/>
    <path d="M90.95 -45.0 L91.05 -46.45 92.0 -47.5 93.4 -47.85 94.7 -47.25 95.45 -46.05 95.3 -44.65 94.35 -43.55 93.0 -43.25 91.65 -43.8 90.95 -45.0" fill="#6f6f6f" fill-rule="evenodd" stroke="none"/>
    <path d="M96.5 -41.75 L97.9 -42.1 99.2 -41.5 99.95 -40.3 99.8 -38.9 98.85 -37.8 97.5 -37.5 96.15 -38.05 95.45 -39.25 95.55 -40.7 96.5 -41.75" fill="#6f6f6f" fill-rule="evenodd" stroke="none"/>
    <path d="M36.55 -33.2 L38.0 -34.0 39.8 -34.0 41.25 -33.2 41.8 -31.9 41.25 -30.65 39.8 -29.85 38.0 -29.85 36.55 -30.65 36.0 -31.95 36.55 -33.2" fill="#6f6f6f" fill-rule="evenodd" stroke="none"/>
    <path d="M46.65 59.25 L38.7 59.25 38.7 57.75 46.65 57.75 46.65 59.25" fill="#ffffff" fill-rule="evenodd" stroke="none"/>
    <path d="M20.55 77.75 L20.55 86.9 19.05 86.9 19.05 77.75 20.55 77.75" fill="#ffffff" fill-rule="evenodd" stroke="none"/>
  </g>
</svg>
