<?xml version="1.0" encoding="UTF-8" standalone="no"?>
<svg xmlns:ffdec="https://www.free-decompiler.com/flash" xmlns:xlink="http://www.w3.org/1999/xlink" ffdec:objectType="shape" height="21.0px" width="20.4px" xmlns="http://www.w3.org/2000/svg">
  <g transform="matrix(1.0, 0.0, 0.0, 1.0, 10.2, 10.5)">
    <path d="M-4.0 -1.0 Q-4.95 -2.45 -6.7 -2.45 -8.5 -2.45 -8.95 -1.35 L-9.05 -0.25 -8.7 0.5 -1.15 7.85 -4.0 -1.0 M0.0 -10.5 Q4.15 -10.5 7.15 -7.65 10.1 -4.75 10.2 -0.6 10.25 0.45 9.4 1.3 L0.0 10.5 -9.4 1.3 Q-9.95 0.75 -10.1 0.05 L-10.2 -0.6 Q-10.05 -4.75 -7.1 -7.65 -4.15 -10.5 0.0 -10.5 M2.85 -0.8 Q3.0 -1.55 2.65 -2.05 1.8 -3.05 0.0 -3.05 -1.85 -3.05 -2.6 -2.05 -3.05 -1.55 -2.8 -0.8 L0.0 7.95 2.85 -0.8 M8.75 0.5 L9.05 -0.25 8.95 -1.35 Q8.5 -2.45 6.7 -2.45 4.95 -2.45 4.0 -0.95 L1.2 7.85 8.75 0.5" fill="#ffffff" fill-rule="evenodd" stroke="none"/>
  </g>
</svg>
