<?xml version="1.0" encoding="UTF-8" standalone="no"?>
<svg xmlns:ffdec="https://www.free-decompiler.com/flash" xmlns:xlink="http://www.w3.org/1999/xlink" ffdec:objectType="shape" height="18.8px" width="18.65px" xmlns="http://www.w3.org/2000/svg">
  <g transform="matrix(1.0, 0.0, 0.0, 1.0, 9.3, 9.4)">
    <path d="M-2.75 -9.4 L-2.75 -5.95 -7.0 -5.95 -7.0 -2.45 -2.75 -2.45 -2.75 1.0 -7.0 1.0 -7.0 8.2 -9.3 8.2 -9.3 -9.4 -2.75 -9.4" fill="#ffffff" fill-rule="evenodd" stroke="none"/>
    <path d="M1.5 -2.45 L-2.75 -2.45 -2.75 -5.95 1.5 -5.95 1.5 -2.45 5.75 -2.45 5.75 -0.95 4.95 -1.05 Q4.0 -1.05 3.2 -0.45 2.45 0.1 2.2 1.0 L1.5 1.0 1.5 -2.45 M1.5 -9.4 L5.75 -9.4 5.75 -5.95 1.5 -5.95 1.5 -9.4" fill="#ffffff" fill-rule="evenodd" stroke="none"/>
    <path d="M3.35 1.8 Q3.35 1.15 3.8 0.65 4.3 0.2 4.95 0.2 5.65 0.2 6.1 0.65 6.55 1.15 6.55 1.8 6.55 2.8 5.6 3.25 L5.6 8.15 Q7.15 7.75 7.7 6.05 L7.4 5.95 7.15 5.7 7.25 5.4 8.35 4.3 8.6 4.25 8.7 4.25 8.9 4.45 9.35 5.9 9.35 6.05 9.05 6.4 8.95 6.4 8.8 6.35 Q8.35 7.7 7.3 8.55 6.25 9.4 4.95 9.4 3.65 9.4 2.6 8.55 1.5 7.7 1.1 6.3 L0.85 6.4 0.75 6.4 0.5 6.3 0.45 6.0 0.9 4.45 1.1 4.25 1.2 4.2 1.45 4.3 2.6 5.4 2.7 5.75 2.45 5.95 2.2 6.05 Q2.75 7.75 4.25 8.15 L4.25 3.25 Q3.35 2.85 3.35 1.8" fill="#ffffff" fill-rule="evenodd" stroke="none"/>
  </g>
</svg>
