<?xml version="1.0" encoding="UTF-8" standalone="no"?>
<svg xmlns:ffdec="https://www.free-decompiler.com/flash" xmlns:xlink="http://www.w3.org/1999/xlink" ffdec:objectType="shape" height="213.75px" width="230.0px" xmlns="http://www.w3.org/2000/svg">
  <g transform="matrix(1.0, 0.0, 0.0, 1.0, 115.0, 106.85)">
    <path d="M-107.75 -41.2 Q-99.4 -63.3 -81.35 -81.35 -64.2 -98.45 -43.45 -106.85 L-43.45 -100.35 Q-61.8 -92.4 -77.1 -77.1 -94.2 -60.0 -102.1 -39.05 L-107.75 -41.2 M-108.85 -5.7 L-109.0 0.0 Q-109.0 45.15 -77.1 77.05 -61.8 92.35 -43.45 100.35 L-43.45 106.9 Q-64.2 98.45 -81.35 81.3 -115.0 47.65 -115.0 0.0 L-114.85 -6.0 -108.85 -5.7 M102.15 39.05 L107.75 41.2 Q99.35 63.25 81.3 81.3 64.25 98.4 43.55 106.85 L43.55 100.3 Q61.8 92.3 77.05 77.05 94.15 59.95 102.15 39.05" fill="#54c0ec" fill-rule="evenodd" stroke="none"/>
    <path d="M-107.75 -41.2 L-102.1 -39.05 Q-108.05 -23.45 -108.85 -5.7 L-114.85 -6.0 Q-114.0 -24.75 -107.75 -41.2 M102.15 39.05 Q104.1 33.9 105.5 28.55 108.3 17.6 108.9 5.7 L114.9 6.05 Q114.3 17.9 111.6 28.85 110.05 35.2 107.75 41.2 L102.15 39.05" fill="#dc671d" fill-rule="evenodd" stroke="none"/>
    <path d="M105.4 -34.75 L70.45 -36.3 70.7 -42.3 105.65 -40.75 105.4 -34.75" fill="#dc671d" fill-rule="evenodd" stroke="none"/>
    <path d="M3.5 -39.2 L-31.45 -40.75 -31.2 -46.75 3.75 -45.2 3.5 -39.2" fill="#dc671d" fill-rule="evenodd" stroke="none"/>
    <path d="M42.9 46.75 L7.95 45.2 8.2 39.2 43.15 40.75 42.9 46.75" fill="#dc671d" fill-rule="evenodd" stroke="none"/>
    <path d="M-59.0 42.3 L-93.95 40.75 -93.7 34.75 -58.75 36.3 -59.0 42.3" fill="#dc671d" fill-rule="evenodd" stroke="none"/>
    <path d="M43.55 -100.3 L43.55 -106.8 Q64.25 -98.4 81.3 -81.35 115.0 -47.65 115.0 0.0 L114.9 6.05 108.9 5.7 109.0 0.0 Q109.0 -45.2 77.05 -77.1 61.8 -92.35 43.55 -100.3" fill="#54c0ec" fill-rule="evenodd" stroke="none"/>
  </g>
</svg>
