<?xml version="1.0" encoding="UTF-8" standalone="no"?>
<svg xmlns:ffdec="https://www.free-decompiler.com/flash" xmlns:xlink="http://www.w3.org/1999/xlink" ffdec:objectType="shape" height="205.05px" width="892.0px" xmlns="http://www.w3.org/2000/svg">
  <g transform="matrix(1.0, 0.0, 0.0, 1.0, 0.0, 0.0)">
    <path d="M892.0 205.05 L0.0 205.05 0.0 88.0 349.1 88.0 721.2 10.0 892.0 9.75 892.0 205.05" fill="#ffffff" fill-rule="evenodd" stroke="none"/>
    <path d="M892.0 2.4 L892.0 17.1 Q866.75 16.15 830.3 18.35 L795.15 20.95 Q673.3 31.55 553.2 65.65 451.4 94.45 352.05 109.0 279.35 119.65 208.0 122.65 180.4 123.8 153.0 123.8 92.05 123.85 39.4 118.1 14.0 115.3 0.0 112.55 L0.0 46.65 Q12.2 50.05 32.4 54.1 80.05 63.65 136.1 67.95 315.3 81.8 510.8 38.35 564.65 26.4 616.3 18.15 709.0 3.4 794.65 0.6 836.4 -0.75 871.45 0.95 L892.0 2.4" fill="#fab62e" fill-rule="evenodd" stroke="none"/>
  </g>
</svg>
