<?xml version="1.0" encoding="UTF-8" standalone="no"?>
<svg xmlns:ffdec="https://www.free-decompiler.com/flash" xmlns:xlink="http://www.w3.org/1999/xlink" ffdec:objectType="shape" height="1237.95px" width="510.0px" xmlns="http://www.w3.org/2000/svg">
  <g transform="matrix(1.0, 0.0, 0.0, 1.0, 255.0, 512.95)">
    <path d="M-182.4 -494.0 L-182.4 -512.95 174.6 -512.95 174.6 -494.0 255.0 -494.0 255.0 694.4 174.6 694.4 174.6 725.0 -182.4 725.0 -182.4 694.4 -255.0 694.4 -255.0 -494.0 -182.4 -494.0" fill="#434343" fill-rule="evenodd" stroke="none"/>
    <path d="M-41.05 302.85 L-28.45 302.85 -28.45 296.85 28.1 296.85 28.1 302.85 75.8 302.85 75.8 389.8 37.9 389.8 37.9 395.55 39.05 395.55 39.05 401.4 120.6 401.4 120.6 541.85 45.15 541.85 45.15 545.9 120.6 545.9 120.6 691.6 39.2 691.6 39.2 696.0 -39.4 696.0 -39.4 691.6 -120.85 691.6 -120.85 545.9 -46.7 545.9 -46.7 541.85 -120.85 541.85 -120.85 401.4 -39.7 401.4 -39.7 395.55 -37.95 395.55 -37.95 389.8 -44.8 389.8 -68.75 342.5 -41.05 302.85" fill="#969696" fill-rule="evenodd" stroke="none"/>
    <path d="M-45.0 347.75 L-45.0 389.8 -80.85 389.8 -80.85 302.85 -41.05 302.85 -45.0 347.75" fill="#707070" fill-rule="evenodd" stroke="none"/>
    <path d="M101.85 401.4 L120.6 401.4 120.6 541.85 110.3 541.85 110.3 499.15 107.85 493.05 84.15 475.35 84.15 464.0 108.85 446.0 110.3 442.35 110.3 441.9 101.85 401.4" fill="#707070" fill-rule="evenodd" stroke="none"/>
    <path d="M-84.5 475.35 L-108.25 493.05 -110.65 499.15 -110.65 541.85 -120.85 541.85 -120.85 401.4 -102.2 401.4 -110.65 441.9 -110.65 442.35 -109.2 446.0 -84.5 464.0 -84.5 475.35" fill="#707070" fill-rule="evenodd" stroke="none"/>
    <path d="M53.4 545.9 L120.6 545.9 120.6 691.6 46.25 691.6 49.65 680.95 53.4 678.15 53.4 545.9" fill="#707070" fill-rule="evenodd" stroke="none"/>
    <path d="M-53.8 545.9 L-53.8 678.15 -50.05 680.95 -46.6 691.6 -120.85 691.6 -120.85 545.9 -53.8 545.9" fill="#707070" fill-rule="evenodd" stroke="none"/>
    <path d="M28.1 -103.15 L28.1 -97.15 75.8 -97.15 75.8 -10.2 37.9 -10.2 37.9 -4.45 39.05 -4.45 39.05 1.4 120.6 1.4 120.6 141.85 45.15 141.85 45.15 145.9 120.6 145.9 120.6 291.6 39.2 291.6 39.2 296.0 28.1 296.0 28.1 308.8 -28.45 308.8 -28.45 296.0 -39.4 296.0 -39.4 291.6 -120.85 291.6 -120.85 145.9 -46.7 145.9 -46.7 141.85 -120.85 141.85 -120.85 1.4 -39.7 1.4 -39.7 -4.45 -37.95 -4.45 -37.95 -10.2 -44.8 -10.2 -68.75 -57.5 -41.05 -97.15 -28.45 -97.15 -28.45 -103.15 28.1 -103.15" fill="#969696" fill-rule="evenodd" stroke="none"/>
    <path d="M-45.0 -10.2 L-80.85 -10.2 -80.85 -97.15 -41.05 -97.15 -45.0 -52.25 -45.0 -10.2" fill="#707070" fill-rule="evenodd" stroke="none"/>
    <path d="M101.85 1.4 L120.6 1.4 120.6 141.85 110.3 141.85 110.3 99.15 107.85 93.05 84.15 75.35 84.15 64.0 108.85 46.0 110.3 42.35 110.3 41.9 101.85 1.4" fill="#707070" fill-rule="evenodd" stroke="none"/>
    <path d="M-84.5 75.35 L-108.25 93.05 -110.65 99.15 -110.65 141.85 -120.85 141.85 -120.85 1.4 -102.2 1.4 -110.65 41.9 -110.65 42.35 -109.2 46.0 -84.5 64.0 -84.5 75.35" fill="#707070" fill-rule="evenodd" stroke="none"/>
    <path d="M53.4 145.9 L120.6 145.9 120.6 291.6 46.25 291.6 49.65 280.95 53.4 278.15 53.4 145.9" fill="#707070" fill-rule="evenodd" stroke="none"/>
    <path d="M-53.8 145.9 L-53.8 278.15 -50.05 280.95 -46.6 291.6 -120.85 291.6 -120.85 145.9 -53.8 145.9" fill="#707070" fill-rule="evenodd" stroke="none"/>
    <path d="M-143.6 -299.5 L-120.85 -299.5 -120.85 -207.45 -143.6 -207.45 -143.6 -299.5" fill="#969696" fill-rule="evenodd" stroke="none"/>
    <path d="M120.6 -299.5 L142.65 -299.5 142.65 -207.45 120.6 -207.45 120.6 -299.5" fill="#969696" fill-rule="evenodd" stroke="none"/>
    <path d="M-55.65 -487.7 L-38.35 -487.7 -38.35 -496.85 -28.45 -496.85 -28.45 -503.15 28.1 -503.15 28.1 -496.85 37.7 -496.85 37.7 -487.7 55.2 -487.7 55.2 -419.95 37.9 -419.95 37.9 -404.45 39.05 -404.45 39.05 -398.65 120.6 -398.65 120.6 -327.45 119.35 -327.45 119.35 -303.7 104.35 -303.7 104.35 -299.5 120.6 -299.5 120.6 -207.45 105.0 -207.45 105.0 -203.25 120.0 -203.25 120.0 -180.3 120.6 -180.3 120.6 -108.4 39.2 -108.4 39.2 -104.0 28.1 -104.0 28.1 -91.2 -28.45 -91.2 -28.45 -104.0 -39.4 -104.0 -39.4 -108.4 -120.85 -108.4 -120.85 -203.25 -105.95 -203.25 -105.95 -207.45 -120.85 -207.45 -120.85 -299.5 -105.3 -299.5 -105.3 -303.7 -120.3 -303.7 -120.3 -327.45 -120.85 -327.45 -120.85 -398.65 -39.7 -398.65 -39.7 -404.45 -37.95 -404.45 -37.95 -419.95 -55.65 -419.95 -55.65 -487.7" fill="#969696" fill-rule="evenodd" stroke="none"/>
    <path d="M119.35 -303.7 L104.35 -303.7 104.35 -299.5 142.65 -299.5 142.65 -207.45 105.0 -207.45 105.0 -203.25 120.0 -203.25 120.0 -180.3 148.1 -180.3 148.1 -108.4 90.0 -108.4 90.0 -398.65 148.1 -398.65 148.1 -327.45 119.35 -327.45 119.35 -303.7" fill="#707070" fill-rule="evenodd" stroke="none"/>
    <path d="M-150.0 -327.45 L-150.0 -398.65 -76.9 -398.65 -76.9 -301.85 -91.25 -287.15 -91.25 -219.95 -76.9 -205.25 -76.9 -108.4 -150.0 -108.4 -150.0 -180.3 -120.95 -180.3 -120.95 -203.25 -105.95 -203.25 -105.95 -207.45 -143.6 -207.45 -143.6 -299.5 -105.3 -299.5 -105.3 -303.7 -120.3 -303.7 -120.3 -327.45 -150.0 -327.45" fill="#707070" fill-rule="evenodd" stroke="none"/>
    <path d="M-28.45 -512.95 L28.1 -512.95 28.1 -503.15 -28.45 -503.15 -28.45 -512.95" fill="#ffffff" fill-rule="evenodd" stroke="none"/>
  </g>
</svg>
