<?xml version="1.0" encoding="UTF-8" standalone="no"?>
<svg xmlns:ffdec="https://www.free-decompiler.com/flash" xmlns:xlink="http://www.w3.org/1999/xlink" ffdec:objectType="shape" height="1068.95px" width="1353.9px" xmlns="http://www.w3.org/2000/svg">
  <g transform="matrix(1.0, 0.0, 0.0, 1.0, 914.05, 755.95)">
    <path d="M439.85 313.0 L-914.05 313.0 -914.05 -755.95 439.85 -755.95 439.85 313.0" fill="#434343" fill-rule="evenodd" stroke="none"/>
    <path d="M380.0 205.55 L32.25 205.55 22.25 213.1 -8.1 213.1 -18.1 205.55 -891.9 205.55 -891.9 197.55 -914.05 197.55 -914.05 -60.95 -891.9 -60.95 -891.9 -70.45 -383.9 -70.45 -371.45 -85.45 -371.45 -646.0 -17.75 -646.0 -7.75 -656.7 22.25 -656.7 32.25 -646.0 380.0 -646.0 380.0 205.55" fill="#969696" fill-rule="evenodd" stroke="none"/>
    <path d="M-17.75 -640.0 L-360.9 -640.0 -361.05 -78.15 -366.75 -69.2 -376.2 -63.4 -391.4 -60.95 -891.9 -60.95 -891.9 -76.95 -392.65 -76.95 -381.85 -78.65 -378.3 -80.85 -377.0 -82.9 -376.9 -656.0 -7.75 -656.0 -17.75 -640.0" fill="#707070" fill-rule="evenodd" stroke="none"/>
    <path d="M392.0 213.55 L22.25 213.55 32.25 197.55 376.0 197.55 376.0 -640.0 32.25 -640.0 22.25 -656.0 392.0 -656.0 392.0 213.55" fill="#707070" fill-rule="evenodd" stroke="none"/>
    <path d="M-891.9 197.55 L-18.1 197.55 -8.1 213.55 -891.9 213.55 -891.9 197.55" fill="#707070" fill-rule="evenodd" stroke="none"/>
    <path d="M-445.45 57.5 L-444.55 60.95 -444.55 69.25 -445.45 72.7 -446.95 75.65 -449.05 77.95 -451.5 79.4 -454.15 80.5 -914.05 80.5 -914.05 50.5 -454.15 50.5 -451.5 50.8 -449.05 52.25 -446.95 54.55 -445.45 57.5" fill="#707070" fill-rule="evenodd" stroke="none"/>
    <path d="M33.4 219.4 L33.4 272.4 -19.25 272.4 -19.25 219.4 -8.1 219.4 -8.1 213.1 22.25 213.1 22.25 219.4 33.4 219.4" fill="#ffffff" fill-rule="evenodd" stroke="none"/>
    <path d="M-19.25 -716.0 L33.4 -716.0 33.4 -663.0 22.25 -663.0 22.25 -656.7 -7.75 -656.7 -8.1 -663.0 -19.25 -663.0 -19.25 -716.0" fill="#ffffff" fill-rule="evenodd" stroke="none"/>
    <path d="M-491.0 75.2 L-508.25 75.2 -508.25 57.95 -491.0 57.95 -491.0 75.2" fill="#434343" fill-rule="evenodd" stroke="none"/>
    <path d="M-195.65 75.2 L-212.9 75.2 -212.9 57.95 -195.65 57.95 -195.65 75.2" fill="#434343" fill-rule="evenodd" stroke="none"/>
    <path d="M-0.3 57.95 L16.95 57.95 16.95 75.2 -0.3 75.2 -0.3 57.95" fill="#434343" fill-rule="evenodd" stroke="none"/>
    <path d="M227.05 75.2 L209.8 75.2 209.8 57.95 227.05 57.95 227.05 75.2" fill="#434343" fill-rule="evenodd" stroke="none"/>
    <path d="M-195.65 -128.15 L-212.9 -128.15 -212.9 -145.4 -195.65 -145.4 -195.65 -128.15" fill="#434343" fill-rule="evenodd" stroke="none"/>
    <path d="M-0.3 -145.4 L16.95 -145.4 16.95 -128.15 -0.3 -128.15 -0.3 -145.4" fill="#434343" fill-rule="evenodd" stroke="none"/>
    <path d="M227.05 -128.15 L209.8 -128.15 209.8 -145.4 227.05 -145.4 227.05 -128.15" fill="#434343" fill-rule="evenodd" stroke="none"/>
    <path d="M-194.95 -472.4 L-212.2 -472.4 -212.2 -489.65 -194.95 -489.65 -194.95 -472.4" fill="#434343" fill-rule="evenodd" stroke="none"/>
    <path d="M17.6 -472.4 L0.35 -472.4 0.35 -489.65 17.6 -489.65 17.6 -472.4" fill="#434343" fill-rule="evenodd" stroke="none"/>
    <path d="M210.45 -489.65 L227.7 -489.65 227.7 -472.4 210.45 -472.4 210.45 -489.65" fill="#434343" fill-rule="evenodd" stroke="none"/>
    <path d="M-681.0 75.2 L-698.25 75.2 -698.25 57.95 -681.0 57.95 -681.0 75.2" fill="#434343" fill-rule="evenodd" stroke="none"/>
    <path d="M-905.0 75.2 L-914.05 75.2 -914.05 57.95 -905.0 57.95 -905.0 75.2" fill="#434343" fill-rule="evenodd" stroke="none"/>
  </g>
</svg>
