<?xml version="1.0" encoding="UTF-8" standalone="no"?>
<svg xmlns:ffdec="https://www.free-decompiler.com/flash" xmlns:xlink="http://www.w3.org/1999/xlink" ffdec:objectType="shape" height="237.25px" width="211.2px" xmlns="http://www.w3.org/2000/svg">
  <g transform="matrix(1.0, 0.0, 0.0, 1.0, 31.6, 77.6)">
    <path d="M133.55 -77.35 Q141.55 -77.15 148.45 -73.05 155.1 -69.05 159.15 -62.35 160.85 -59.6 162.05 -56.05 L166.65 -44.65 Q179.3 -10.05 179.35 27.0 179.3 64.0 166.7 98.55 154.45 131.75 131.85 159.15 114.85 113.0 78.75 79.2 42.4 45.25 -5.1 31.5 -8.45 30.85 -11.55 29.7 -18.2 27.05 -23.1 21.75 -27.05 17.45 -29.15 12.05 -31.35 6.45 -31.35 0.5 -31.35 -5.35 -28.9 -10.9 -26.6 -16.1 -22.45 -20.4 -19.85 -23.05 -16.65 -25.2 14.35 -50.15 51.75 -63.5 90.4 -77.35 131.8 -77.35 L133.55 -77.35" fill="#333333" fill-rule="evenodd" stroke="none"/>
    <path d="M133.55 -77.35 L131.8 -77.35 Q90.4 -77.35 51.75 -63.5 14.35 -50.15 -16.65 -25.2 -19.85 -23.05 -22.45 -20.4 -26.6 -16.1 -28.9 -10.9 -31.35 -5.35 -31.35 0.5 -31.35 6.45 -29.15 12.05 -27.05 17.45 -23.1 21.75 -18.2 27.05 -11.55 29.7 -8.45 30.85 -5.1 31.5 42.4 45.25 78.75 79.2 114.85 113.0 131.85 159.15 154.45 131.75 166.7 98.55 179.3 64.0 179.35 27.0 179.3 -10.05 166.65 -44.65 L162.05 -56.05 Q160.85 -59.6 159.15 -62.35 155.1 -69.05 148.45 -73.05 141.55 -77.15 133.55 -77.35 M131.8 -77.6 L133.55 -77.6 Q141.65 -77.35 148.6 -73.25 155.3 -69.25 159.35 -62.5 161.05 -59.7 162.3 -56.15 164.9 -50.2 166.9 -44.75 179.6 -10.15 179.6 27.0 179.6 64.1 166.95 98.65 154.65 131.95 131.9 159.5 L131.75 159.65 131.7 159.45 Q114.7 113.25 78.6 79.4 42.3 45.45 -5.15 31.75 -8.55 31.15 -11.65 29.95 -18.4 27.25 -23.3 21.9 -27.25 17.55 -29.4 12.15 -31.65 6.55 -31.6 0.5 -31.65 -5.45 -29.15 -11.0 -26.8 -16.2 -22.65 -20.55 -20.05 -23.25 -16.8 -25.4 14.25 -50.35 51.65 -63.75 90.3 -77.65 131.8 -77.6" fill="#000000" fill-rule="evenodd" stroke="none"/>
  </g>
</svg>
