<?xml version="1.0" encoding="UTF-8" standalone="no"?>
<svg xmlns:ffdec="https://www.free-decompiler.com/flash" xmlns:xlink="http://www.w3.org/1999/xlink" ffdec:objectType="shape" height="160.0px" width="288.0px" xmlns="http://www.w3.org/2000/svg">
  <g transform="matrix(1.0, 0.0, 0.0, 1.0, 0.0, 0.0)">
    <path d="M7.95 0.0 L280.05 0.0 288.0 0.0 288.0 6.95 288.0 152.0 288.0 160.0 280.05 160.0 7.95 160.0 0.0 160.0 0.0 152.0 0.0 6.95 0.0 0.0 7.95 0.0 M4.0 4.0 L4.0 6.95 4.0 152.0 4.0 156.0 7.95 156.0 280.05 156.0 284.0 156.0 284.0 152.0 284.0 6.95 284.0 4.0 280.05 4.0 7.95 4.0 4.0 4.0" fill="#ffffff" fill-opacity="0.4" fill-rule="evenodd" stroke="none"/>
  </g>
</svg>
