<?xml version="1.0" encoding="UTF-8" standalone="no"?>
<svg xmlns:ffdec="https://www.free-decompiler.com/flash" xmlns:xlink="http://www.w3.org/1999/xlink" ffdec:objectType="shape" height="13.2px" width="20.95px" xmlns="http://www.w3.org/2000/svg">
  <g transform="matrix(1.0, 0.0, 0.0, 1.0, 10.0, 6.1)">
    <path d="M0.5 -1.9 Q1.5 -1.9 2.2 -1.2 2.9 -0.45 2.9 0.5 2.9 1.5 2.2 2.2 1.5 2.9 0.5 2.9 -0.5 2.9 -1.25 2.2 -1.95 1.5 -1.95 0.5 -1.95 -0.5 -1.25 -1.2 -0.5 -1.9 0.5 -1.9 M6.15 -4.7 Q8.65 -3.35 10.15 -1.0 L10.95 0.5 10.15 2.05 Q8.65 4.35 6.15 5.7 3.5 7.1 0.5 7.1 -2.55 7.1 -5.15 5.7 -7.7 4.35 -9.2 2.05 L-10.0 0.5 -9.2 -1.0 Q-7.7 -3.35 -5.15 -4.7 -2.55 -6.1 0.5 -6.1 3.55 -6.1 6.15 -4.7 M4.1 -3.1 Q2.6 -4.6 0.5 -4.6 -1.65 -4.6 -3.15 -3.1 -4.65 -1.6 -4.65 0.5 -4.65 2.65 -3.15 4.15 -1.65 5.65 0.5 5.65 2.6 5.65 4.1 4.15 5.6 2.65 5.6 0.5 5.6 -1.6 4.1 -3.1" fill="#ffffff" fill-rule="evenodd" stroke="none"/>
  </g>
</svg>
