<?xml version="1.0" encoding="UTF-8" standalone="no"?>
<svg xmlns:ffdec="https://www.free-decompiler.com/flash" xmlns:xlink="http://www.w3.org/1999/xlink" ffdec:objectType="shape" height="11.6px" width="50.0px" xmlns="http://www.w3.org/2000/svg">
  <g transform="matrix(1.0, 0.0, 0.0, 1.0, 0.0, 0.0)">
    <path d="M50.0 5.8 Q50.0 7.45 49.25 8.8 L48.45 9.85 Q47.0 11.6 44.9 11.6 L44.8 11.6 5.6 11.6 5.1 11.6 Q3.0 11.6 1.5 9.85 L0.75 8.8 Q0.0 7.45 0.0 5.8 0.0 4.15 0.7 2.85 L1.5 1.65 Q3.0 0.0 5.1 0.0 L5.6 0.0 44.8 0.0 44.9 0.0 Q47.0 0.0 48.45 1.65 L49.3 2.9 Q50.0 4.2 50.0 5.8" fill="#ffffff" fill-rule="evenodd" stroke="none"/>
  </g>
</svg>
