<?xml version="1.0" encoding="UTF-8" standalone="no"?>
<svg xmlns:ffdec="https://www.free-decompiler.com/flash" xmlns:xlink="http://www.w3.org/1999/xlink" ffdec:objectType="shape" height="20.8px" width="77.95px" xmlns="http://www.w3.org/2000/svg">
  <g transform="matrix(1.0, 0.0, 0.0, 1.0, 0.0, 0.0)">
    <path d="M77.95 3.95 L77.95 16.95 77.7 18.5 77.3 19.15 76.8 19.7 75.55 20.55 74.8 20.75 73.95 20.8 23.75 20.8 23.75 0.0 74.05 0.0 Q75.7 0.0 76.85 1.2 77.95 2.25 77.95 3.95 M73.5 8.3 L73.45 8.05 73.25 7.65 73.0 7.3 72.75 7.0 72.1 6.55 71.7 6.45 71.25 6.35 70.85 6.35 70.6 6.35 70.2 6.3 68.2 6.3 66.65 14.2 69.25 14.2 70.7 14.1 71.5 13.75 72.1 13.4 73.25 11.85 Q73.7 10.8 73.7 9.6 L73.55 8.5 73.5 8.3 M72.1 8.85 L72.15 9.6 72.1 10.45 72.0 10.85 71.85 11.2 71.1 12.4 70.4 12.8 69.95 12.9 69.2 12.95 68.45 12.95 69.45 7.65 70.35 7.65 71.3 7.75 71.9 8.3 72.1 8.85 M62.6 7.65 L66.55 7.65 66.75 6.3 61.35 6.3 59.8 14.2 65.5 14.2 65.8 12.85 61.5 12.85 61.95 10.75 65.8 10.75 66.05 9.45 62.2 9.45 62.6 7.65 M58.4 6.3 L56.85 14.2 58.35 14.2 59.9 6.3 58.4 6.3 M53.4 7.65 L57.1 7.65 57.3 6.3 52.15 6.3 50.6 14.2 52.1 14.2 52.8 10.8 56.35 10.8 56.6 9.55 53.05 9.55 53.4 7.65 M44.8 7.65 L45.7 7.8 Q46.05 8.0 46.05 8.45 L45.8 9.1 45.2 9.65 43.55 9.75 42.75 9.75 43.15 7.65 44.8 7.65 M44.55 12.1 L44.85 12.75 45.05 13.3 45.2 13.8 45.35 14.2 46.95 14.2 46.65 13.4 46.35 12.7 46.1 12.1 45.85 11.55 45.55 11.15 45.3 10.8 Q46.4 10.7 47.0 10.05 47.6 9.35 47.6 8.4 47.6 7.75 47.25 7.2 L46.5 6.5 45.15 6.3 41.95 6.3 40.35 14.2 41.9 14.2 42.55 10.9 43.1 10.9 43.9 11.05 44.55 12.1 M49.25 14.2 L50.75 6.3 49.25 6.3 47.7 14.2 49.25 14.2 M35.9 9.45 L36.25 7.65 40.25 7.65 40.45 6.3 35.05 6.3 33.5 14.2 39.2 14.2 39.5 12.85 35.2 12.85 35.65 10.75 39.45 10.75 39.75 9.45 35.9 9.45 M32.85 6.3 L29.8 12.25 28.9 6.3 27.35 6.3 28.65 14.2 30.3 14.2 34.35 6.3 32.85 6.3 M22.4 20.8 L4.0 20.8 3.15 20.75 2.4 20.55 1.15 19.7 0.3 18.45 Q0.0 17.75 0.0 16.95 L0.0 3.95 Q0.0 3.05 0.35 2.4 0.6 1.6 1.2 1.15 1.7 0.65 2.45 0.3 L4.0 0.0 22.4 0.0 22.4 20.8 M13.6 4.35 L11.65 3.95 7.3 3.9 5.5 12.45 7.8 12.45 8.45 9.35 9.95 9.35 Q11.1 9.35 11.1 10.45 L11.1 10.9 11.1 11.25 11.05 11.6 11.05 11.95 11.05 12.3 11.2 12.65 12.85 14.4 11.4 17.45 14.45 15.65 16.7 17.4 16.3 14.5 18.9 12.65 16.0 12.65 15.6 9.85 13.85 12.65 13.55 12.65 13.35 12.1 13.3 11.8 13.25 11.5 13.25 11.2 13.3 10.8 13.3 10.4 13.35 10.0 13.15 9.0 12.4 8.55 12.4 8.5 Q13.45 8.35 13.95 7.75 14.4 7.1 14.4 6.15 14.4 4.8 13.6 4.35 M11.8 5.85 Q12.15 6.0 12.15 6.55 12.15 7.25 11.75 7.5 L10.65 7.75 8.85 7.75 9.25 5.7 10.95 5.7 11.8 5.85" fill="#ffffff" fill-rule="evenodd" stroke="none"/>
  </g>
</svg>
