<?xml version="1.0" encoding="UTF-8" standalone="no"?>
<svg xmlns:ffdec="https://www.free-decompiler.com/flash" xmlns:xlink="http://www.w3.org/1999/xlink" ffdec:objectType="shape" height="12.0px" width="840.0px" xmlns="http://www.w3.org/2000/svg">
  <g transform="matrix(1.0, 0.0, 0.0, 1.0, 0.0, 0.0)">
    <path d="M700.0 12.0 L560.0 12.0 560.0 0.0 700.0 0.0 700.0 12.0" fill="#26bea1" fill-rule="evenodd" stroke="none"/>
    <path d="M840.0 12.0 L700.0 12.0 700.0 0.0 840.0 0.0 840.0 12.0" fill="#82ecda" fill-rule="evenodd" stroke="none"/>
    <path d="M140.0 12.0 L0.0 12.0 0.0 0.0 140.0 0.0 140.0 12.0" fill="#82ecda" fill-rule="evenodd" stroke="none"/>
    <path d="M560.0 12.0 L420.0 12.0 420.0 0.0 560.0 0.0 560.0 12.0" fill="#59dfc4" fill-rule="evenodd" stroke="none"/>
    <path d="M420.0 12.0 L280.0 12.0 280.0 0.0 420.0 0.0 420.0 12.0" fill="#27cbae" fill-rule="evenodd" stroke="none"/>
    <path d="M280.0 12.0 L140.0 12.0 140.0 0.0 280.0 0.0 280.0 12.0" fill="#26bea1" fill-rule="evenodd" stroke="none"/>
  </g>
</svg>
