<?xml version="1.0" encoding="UTF-8" standalone="no"?>
<svg xmlns:ffdec="https://www.free-decompiler.com/flash" xmlns:xlink="http://www.w3.org/1999/xlink" ffdec:objectType="shape" height="708.55px" width="759.6px" xmlns="http://www.w3.org/2000/svg">
  <g transform="matrix(1.0, 0.0, 0.0, 1.0, -260.4, -311.2)">
    <path d="M959.55 438.2 L958.55 438.2 944.0 418.85 260.4 418.8 260.4 311.2 1020.0 311.2 1020.0 418.8 974.05 418.85 959.55 438.2 M944.0 710.55 L260.4 710.5 260.4 602.9 1020.0 602.9 1020.0 710.5 974.05 710.55 959.55 729.9 958.55 729.9 944.0 710.55 M321.95 892.75 L1020.0 892.75 1020.0 1000.35 974.05 1000.4 959.55 1019.75 958.55 1019.75 944.0 1000.4 260.4 1000.35 260.4 892.75 320.75 892.75 321.95 892.75" fill="#21ba9f" fill-rule="evenodd" stroke="none"/>
    <path d="M320.85 747.9 L321.85 747.9 1020.0 747.9 1020.0 855.5 336.4 855.55 321.95 874.75 320.75 874.75 306.35 855.55 260.4 855.5 260.4 747.9 320.85 747.9 M1020.0 456.2 L1020.0 563.8 336.4 563.85 321.35 583.85 306.35 563.85 260.4 563.8 260.4 456.2 320.85 456.2 321.85 456.2 1020.0 456.2" fill="#e7e7e9" fill-rule="evenodd" stroke="none"/>
  </g>
</svg>
