<?xml version="1.0" encoding="UTF-8" standalone="no"?>
<svg xmlns:ffdec="https://www.free-decompiler.com/flash" xmlns:xlink="http://www.w3.org/1999/xlink" ffdec:objectType="shape" height="230.5px" width="292.0px" xmlns="http://www.w3.org/2000/svg">
  <g transform="matrix(1.0, 0.0, 0.0, 1.0, 199.7, 127.85)">
    <path d="M39.8 -78.85 L92.3 -78.85 Q92.3 -3.85 91.8 70.65 L90.8 78.15 Q89.3 82.15 87.3 85.65 L82.3 93.65 Q78.8 96.15 74.8 98.15 71.8 99.65 68.3 100.65 L53.8 102.65 -115.2 102.65 -115.2 24.15 -199.7 24.15 -199.7 -79.35 -57.7 -79.35 -57.7 -95.85 24.8 -95.85 24.8 -127.85 39.8 -127.85 39.8 -78.85" fill="#424242" fill-rule="evenodd" stroke="none"/>
    <path d="M-91.7 53.65 L-91.7 55.65 -39.2 55.65 -39.2 72.15 -44.7 72.15 -44.7 74.65 -27.7 74.65 -27.7 72.15 -28.7 72.15 -28.7 57.65 -37.2 57.65 -37.2 53.65 -91.7 53.65 M-8.7 24.65 L-0.7 24.65 -0.7 18.65 -8.7 18.65 -8.7 24.65 M14.8 67.15 L22.3 67.15 22.3 61.15 14.8 61.15 14.8 67.15 M-8.2 -18.35 L-0.7 -18.35 -0.7 -23.85 -8.2 -23.85 -8.2 -18.35 M-27.7 -71.35 L-27.7 -72.85 22.8 -72.85 22.8 -52.35 67.8 -52.35 67.8 -53.35 85.8 -53.35 85.8 -52.35 87.8 -52.35 87.8 53.65 67.8 53.65 67.8 62.65 68.8 62.65 68.8 75.65 67.8 75.65 67.8 83.65 22.8 83.65 22.8 82.15 12.3 82.15 12.3 82.65 -0.7 82.65 -0.7 82.15 -4.7 82.15 -4.7 53.65 -8.7 53.65 -8.7 72.65 -9.7 72.65 -9.7 74.65 -8.7 74.65 -8.7 99.65 -45.2 99.65 -45.2 94.65 -51.2 94.65 Q-50.7 95.65 -50.7 96.15 L-64.2 96.15 -64.2 94.65 -77.2 94.65 -77.2 74.65 -70.2 74.65 -70.2 72.15 -107.2 72.15 -107.2 55.65 -105.2 55.65 -105.2 53.65 -107.2 53.65 -107.2 14.65 -97.2 11.65 -89.2 14.65 -89.2 33.65 -45.2 33.65 -45.2 19.65 -54.7 19.65 -54.7 -40.85 -46.7 -40.85 -46.7 -41.85 -34.7 -41.85 -34.7 -40.85 -27.7 -40.85 -27.7 -58.35 -30.7 -58.35 -30.7 -55.35 -59.2 -55.35 -67.2 -65.35 -59.2 -72.85 -30.7 -72.85 -30.7 -71.35 -27.7 -71.35" fill="#959595" fill-rule="evenodd" stroke="none"/>
    <path d="M-54.7 -40.85 L-48.2 -40.85 -48.2 11.65 -44.7 11.65 -44.7 19.65 -54.7 19.65 -54.7 -40.85" fill="#6f6f6f" fill-rule="evenodd" stroke="none"/>
    <path d="M-33.2 -40.85 L-26.7 -40.85 -26.7 26.15 -37.2 26.15 -37.2 19.65 -32.7 19.65 -32.7 19.15 -35.7 19.15 -35.7 -27.35 -33.2 -27.35 -33.2 -40.85" fill="#6f6f6f" fill-rule="evenodd" stroke="none"/>
    <path d="M22.8 83.65 L22.8 76.65 61.3 76.65 61.3 83.65 22.8 83.65" fill="#6f6f6f" fill-rule="evenodd" stroke="none"/>
    <path d="M32.3 58.15 L32.3 67.65 22.8 67.65 22.8 58.15 32.3 58.15" fill="#6f6f6f" fill-rule="evenodd" stroke="none"/>
    <path d="M0.8 -51.35 L0.8 -61.35 10.3 -61.35 10.3 -51.35 0.8 -51.35" fill="#6f6f6f" fill-rule="evenodd" stroke="none"/>
    <path d="M-15.2 -66.35 L-15.2 -72.85 22.8 -72.85 22.8 -53.35 16.3 -53.35 16.3 -66.35 -15.2 -66.35" fill="#6f6f6f" fill-rule="evenodd" stroke="none"/>
    <path d="M53.8 -52.35 L67.3 -52.35 67.3 -34.85 87.8 -34.85 87.8 53.65 53.3 53.65 Q53.8 0.65 53.8 -52.35" fill="#6f6f6f" fill-rule="evenodd" stroke="none"/>
    <path d="M-70.2 74.65 L-70.2 72.15 -44.7 72.15 -44.7 74.65 -70.2 74.65" fill="#6f6f6f" fill-rule="evenodd" stroke="none"/>
    <path d="M-51.2 99.65 L-64.2 99.65 -64.2 96.15 -51.2 96.15 -51.2 99.65" fill="#ffffff" fill-rule="evenodd" stroke="none"/>
    <path d="M-59.2 -55.35 L-100.2 -55.35 -100.2 -72.85 -59.2 -72.85 -59.2 -55.35" fill="#ffffff" fill-rule="evenodd" stroke="none"/>
    <path d="M-107.2 14.65 L-107.2 -17.85 -89.2 -17.85 -89.2 14.65 -107.2 14.65" fill="#ffffff" fill-rule="evenodd" stroke="none"/>
  </g>
</svg>
