<?xml version="1.0" encoding="UTF-8" standalone="no"?>
<svg xmlns:ffdec="https://www.free-decompiler.com/flash" xmlns:xlink="http://www.w3.org/1999/xlink" ffdec:objectType="shape" height="40.0px" width="40.0px" xmlns="http://www.w3.org/2000/svg">
  <g transform="matrix(1.0, 0.0, 0.0, 1.0, 20.0, 20.0)">
    <path d="M0.0 -20.0 Q8.25 -20.0 14.1 -14.15 20.0 -8.3 20.0 0.0 20.0 8.3 14.1 14.1 8.25 20.0 0.0 20.0 -8.3 20.0 -14.15 14.1 -20.0 8.3 -20.0 0.0 -20.0 -8.3 -14.15 -14.15 -8.3 -20.0 0.0 -20.0" fill="#000000" fill-opacity="0.8" fill-rule="evenodd" stroke="none"/>
    <path d="M2.55 10.65 L-8.05 0.05 -5.95 -2.05 4.65 8.55 2.55 10.65" fill="#ffffff" fill-rule="evenodd" stroke="none"/>
    <path d="M4.65 -8.45 L-6.0 2.2 -8.15 0.05 2.5 -10.6 4.65 -8.45" fill="#ffffff" fill-rule="evenodd" stroke="none"/>
  </g>
</svg>
