<?xml version="1.0" encoding="UTF-8" standalone="no"?>
<svg xmlns:ffdec="https://www.free-decompiler.com/flash" xmlns:xlink="http://www.w3.org/1999/xlink" ffdec:objectType="shape" height="27.0px" width="27.0px" xmlns="http://www.w3.org/2000/svg">
  <g transform="matrix(1.0, 0.0, 0.0, 1.0, 0.0, -9.0)">
    <path d="M21.0 23.75 L21.0 21.25 14.75 21.25 14.75 15.0 12.25 15.0 12.25 21.25 6.0 21.25 6.0 23.75 12.25 23.75 12.25 30.0 14.75 30.0 14.75 23.75 21.0 23.75 M27.0 22.5 Q27.0 28.15 23.05 32.05 19.1 36.0 13.5 36.0 7.9 36.0 3.95 32.05 0.0 28.15 0.0 22.5 0.0 16.9 3.95 12.95 7.9 9.0 13.5 9.0 19.1 9.0 23.05 12.95 27.0 16.9 27.0 22.5" fill="#ffffff" fill-rule="evenodd" stroke="none"/>
  </g>
</svg>
