<?xml version="1.0" encoding="UTF-8" standalone="no"?>
<svg xmlns:ffdec="https://www.free-decompiler.com/flash" xmlns:xlink="http://www.w3.org/1999/xlink" ffdec:objectType="shape" height="25.0px" width="5.0px" xmlns="http://www.w3.org/2000/svg">
  <g transform="matrix(1.0, 0.0, 0.0, 1.0, 5.0, 0.0)">
    <path d="M-2.4 0.0 L0.0 0.0 0.0 25.0 -2.4 24.95 -4.35 24.9 Q-5.0 24.75 -5.0 24.2 -5.0 23.2 -4.6 22.75 L-3.7 22.05 -2.85 21.45 Q-2.45 20.9 -2.45 19.95 -2.45 18.7 -3.7 17.9 L-4.55 17.2 Q-4.95 16.75 -4.95 16.2 -4.95 15.55 -4.55 15.2 L-3.7 14.65 Q-2.4 14.0 -2.4 12.45 -2.4 11.25 -3.7 10.4 L-4.55 9.7 Q-4.95 9.3 -4.95 8.75 -4.95 8.1 -4.55 7.75 L-3.7 7.15 Q-2.4 6.55 -2.4 5.05 -2.4 3.8 -3.7 2.95 L-4.5 2.3 -4.9 1.8 -4.95 0.75 -4.7 0.25 -2.4 0.0" fill="#cc0000" fill-rule="evenodd" stroke="none"/>
  </g>
</svg>
