<?xml version="1.0" encoding="UTF-8" standalone="no"?>
<svg xmlns:ffdec="https://www.free-decompiler.com/flash" xmlns:xlink="http://www.w3.org/1999/xlink" ffdec:objectType="shape" height="38.0px" width="94.95px" xmlns="http://www.w3.org/2000/svg">
  <g transform="matrix(1.0, 0.0, 0.0, 1.0, 0.0, 0.0)">
    <path d="M94.95 19.0 Q94.95 24.35 92.4 28.6 91.15 30.6 89.35 32.4 83.8 38.0 75.95 38.0 L71.3 38.0 23.65 38.0 19.0 38.0 Q11.15 38.0 5.55 32.4 3.8 30.6 2.6 28.6 0.0 24.35 0.0 19.0 0.0 13.7 2.55 9.45 3.75 7.4 5.55 5.55 11.15 0.0 19.0 0.0 L23.65 0.0 71.3 0.0 75.95 0.0 Q83.8 0.0 89.35 5.55 91.2 7.4 92.45 9.5 94.95 13.75 94.95 19.0" fill="#ffffff" fill-rule="evenodd" stroke="none"/>
  </g>
</svg>
