<?xml version="1.0" encoding="UTF-8" standalone="no"?>
<svg xmlns:ffdec="https://www.free-decompiler.com/flash" xmlns:xlink="http://www.w3.org/1999/xlink" ffdec:objectType="shape" height="12.0px" width="12.0px" xmlns="http://www.w3.org/2000/svg">
  <g transform="matrix(1.0, 0.0, 0.0, 1.0, 6.0, 6.0)">
    <path d="M2.9 0.0 Q2.9 -1.25 2.0 -2.1 1.2 -2.95 -0.05 -2.95 -1.25 -2.95 -2.15 -2.1 -3.0 -1.25 -3.0 0.0 -3.0 1.25 -2.15 2.05 -1.25 2.95 -0.05 2.95 1.2 2.95 2.0 2.05 2.9 1.25 2.9 0.0 M-4.25 4.25 Q-6.0 2.5 -6.0 0.0 -6.0 -2.5 -4.25 -4.3 -2.5 -6.0 0.0 -6.0 2.5 -6.0 4.25 -4.3 6.0 -2.5 6.0 0.0 6.0 2.5 4.25 4.25 2.5 6.0 0.0 6.0 -2.5 6.0 -4.25 4.25" fill="#ffffff" fill-rule="evenodd" stroke="none"/>
  </g>
</svg>
