<?xml version="1.0" encoding="UTF-8" standalone="no"?>
<svg xmlns:ffdec="https://www.free-decompiler.com/flash" xmlns:xlink="http://www.w3.org/1999/xlink" ffdec:objectType="shape" height="28.0px" width="58.0px" xmlns="http://www.w3.org/2000/svg">
  <g transform="matrix(1.0, 0.0, 0.0, 1.0, 0.0, 0.0)">
    <path d="M0.0 4.0 Q0.0 0.0 4.0 0.0 L54.0 0.0 Q58.0 0.0 58.0 4.0 L58.0 24.0 Q58.0 28.0 54.0 28.0 L4.0 28.0 Q0.0 28.0 0.0 24.0 L0.0 4.0" fill="#ffffff" fill-rule="evenodd" stroke="none"/>
    <path d="M0.0 4.0 Q0.0 0.0 4.0 0.0 L54.0 0.0 Q58.0 0.0 58.0 4.0 L58.0 24.0 Q58.0 28.0 54.0 28.0 L4.0 28.0 Q0.0 28.0 0.0 24.0 L0.0 4.0" fill="#7e1d08" fill-rule="evenodd" stroke="none"/>
    <path d="M0.0 4.0 Q0.0 0.0 4.0 0.0 L54.0 0.0 Q58.0 0.0 58.0 4.0 L58.0 14.0 0.0 14.0 0.0 4.0" fill="#ffffff" fill-rule="evenodd" stroke="none"/>
  </g>
</svg>
