<?xml version="1.0" encoding="UTF-8" standalone="no"?>
<svg xmlns:ffdec="https://www.free-decompiler.com/flash" xmlns:xlink="http://www.w3.org/1999/xlink" ffdec:objectType="shape" height="12.9px" width="12.9px" xmlns="http://www.w3.org/2000/svg">
  <g transform="matrix(1.0, 0.0, 0.0, 1.0, 0.0, 6.45)">
    <path d="M11.4 -6.45 L12.45 -6.0 Q12.9 -5.55 12.9 -4.95 12.85 -4.3 12.45 -3.9 L2.55 6.0 1.5 6.45 Q0.9 6.45 0.45 6.0 0.05 5.6 0.0 4.95 0.05 4.3 0.45 3.9 L10.35 -6.0 Q10.75 -6.4 11.4 -6.45" fill="#ffffff" fill-rule="evenodd" stroke="none"/>
    <path d="M0.0 -4.95 Q0.0 -5.55 0.45 -6.0 0.85 -6.4 1.5 -6.45 L2.55 -6.0 12.45 3.9 Q12.85 4.3 12.9 4.95 12.85 5.6 12.45 6.0 L11.4 6.45 Q10.75 6.4 10.35 6.0 L0.45 -3.9 Q0.05 -4.3 0.0 -4.95" fill="#ffffff" fill-rule="evenodd" stroke="none"/>
  </g>
</svg>
