<?xml version="1.0" encoding="UTF-8" standalone="no"?>
<svg xmlns:ffdec="https://www.free-decompiler.com/flash" xmlns:xlink="http://www.w3.org/1999/xlink" ffdec:objectType="shape" height="21.0px" width="21.0px" xmlns="http://www.w3.org/2000/svg">
  <g transform="matrix(1.0, 0.0, 0.0, 1.0, 0.5, 0.5)">
    <path d="M3.0 -0.5 L17.0 -0.5 Q20.5 -0.5 20.5 3.0 L20.5 17.0 Q20.5 20.5 17.0 20.5 L3.0 20.5 Q-0.5 20.5 -0.5 17.0 L-0.5 3.0 Q-0.5 -0.5 3.0 -0.5 M16.5 2.0 L3.5 2.0 Q2.0 2.0 2.0 3.5 L2.0 16.5 Q2.0 18.0 3.5 18.0 L16.5 18.0 Q18.0 18.0 18.0 16.5 L18.0 3.5 Q18.0 2.0 16.5 2.0" fill="#ffffff" fill-rule="evenodd" stroke="none"/>
  </g>
</svg>
