<?xml version="1.0" encoding="UTF-8" standalone="no"?>
<svg xmlns:ffdec="https://www.free-decompiler.com/flash" xmlns:xlink="http://www.w3.org/1999/xlink" ffdec:objectType="shape" height="32.0px" width="32.0px" xmlns="http://www.w3.org/2000/svg">
  <g transform="matrix(1.0, 0.0, 0.0, 1.0, 0.0, 0.0)">
    <path d="M27.3 4.7 Q32.0 9.35 32.0 16.0 32.0 22.65 27.3 27.3 22.65 32.0 16.0 32.0 9.35 32.0 4.7 27.3 0.0 22.6 0.0 16.0 0.0 9.35 4.7 4.7 9.35 0.0 16.0 0.0 22.6 0.0 27.3 4.7" fill="#000000" fill-rule="evenodd" stroke="none"/>
    <path d="M12.6 27.5 L12.6 27.55 15.1 28.0 16.95 28.0 17.9 27.85 19.45 27.55 19.45 27.5 Q20.6 24.95 21.1 21.15 L10.95 21.15 Q11.5 25.05 12.6 27.5 M9.05 21.15 L5.15 21.15 Q6.8 24.65 10.2 26.55 L10.2 26.5 Q9.45 24.2 9.05 21.15 M8.75 15.85 L8.85 12.8 4.5 12.8 4.25 15.85 Q4.25 17.6 4.55 19.25 L8.85 19.25 8.75 15.85 M9.0 10.9 Q9.35 8.05 10.1 5.55 L10.1 5.5 Q6.75 7.4 5.1 10.9 L9.0 10.9 M19.65 4.55 L19.6 4.45 16.95 3.95 15.1 3.95 12.45 4.5 12.45 4.55 Q11.35 7.25 10.9 10.9 L21.15 10.9 Q20.7 7.2 19.65 4.55 M25.9 6.1 Q30.0 10.2 30.0 16.0 30.0 21.8 25.9 25.9 21.8 30.0 16.0 30.0 10.2 30.0 6.1 25.9 2.0 21.8 2.0 16.0 2.0 10.2 6.1 6.1 10.2 2.0 16.0 2.0 21.8 2.0 25.9 6.1 M26.95 21.15 L23.0 21.15 Q22.6 24.1 21.85 26.45 L21.8 26.55 Q25.25 24.65 26.95 21.15 M21.45 15.85 L21.3 12.8 10.75 12.8 10.6 15.85 Q10.6 17.65 10.75 19.25 L21.3 19.25 21.45 15.85 M27.75 15.85 L27.55 12.8 23.2 12.8 23.3 15.85 23.15 19.25 27.5 19.25 27.75 15.85 M21.95 5.6 Q22.65 7.9 23.05 10.9 L26.95 10.9 Q25.35 7.4 21.95 5.5 L21.95 5.6" fill="#2d6eb9" fill-rule="evenodd" stroke="none"/>
  </g>
</svg>
