<?xml version="1.0" encoding="UTF-8" standalone="no"?>
<svg xmlns:ffdec="https://www.free-decompiler.com/flash" xmlns:xlink="http://www.w3.org/1999/xlink" ffdec:objectType="shape" height="129.5px" width="129.5px" xmlns="http://www.w3.org/2000/svg">
  <g transform="matrix(1.0, 0.0, 0.0, 1.0, 281.4, 111.2)">
    <path d="M-151.9 -111.2 L-151.9 18.3 -281.4 18.3 -281.4 -76.2 -241.9 -76.2 -241.9 -111.2 -151.9 -111.2" fill="#424242" fill-rule="evenodd" stroke="none"/>
    <path d="M-160.9 -102.2 L-160.9 8.3 -271.4 8.3 -271.4 -67.2 -231.9 -67.2 -231.9 -104.2 -203.9 -104.2 -203.9 -102.2 -160.9 -102.2" fill="#939393" fill-rule="evenodd" stroke="none"/>
    <path d="M-163.9 -101.2 L-163.9 -94.7 -205.4 -94.7 -205.4 -101.2 -163.9 -101.2" fill="#6f6f6f" fill-rule="evenodd" stroke="none"/>
    <path d="M-223.9 -100.2 L-223.9 -73.7 -231.9 -73.7 -231.9 -100.2 -223.9 -100.2" fill="#6f6f6f" fill-rule="evenodd" stroke="none"/>
    <path d="M-206.4 -41.2 L-206.4 -61.7 -174.4 -61.7 -174.4 -53.2 -196.9 -53.2 -196.9 -41.2 -206.4 -41.2" fill="#6f6f6f" fill-rule="evenodd" stroke="none"/>
    <path d="M-204.9 -80.7 L-204.9 -91.7 -161.4 -91.7 -161.4 -29.7 -171.4 -29.7 -171.4 -52.7 -168.9 -52.7 -168.9 -80.7 -204.9 -80.7" fill="#6f6f6f" fill-rule="evenodd" stroke="none"/>
    <path d="M-168.9 -28.7 L-161.4 -28.7 -161.4 -0.7 -168.9 -0.7 -168.9 -28.7" fill="#6f6f6f" fill-rule="evenodd" stroke="none"/>
    <path d="M-229.9 7.8 L-229.9 -3.2 -184.9 -3.2 -184.9 7.8 -229.9 7.8" fill="#6f6f6f" fill-rule="evenodd" stroke="none"/>
    <path d="M-173.9 7.3 L-173.9 0.3 -162.4 0.3 -162.4 7.3 -173.9 7.3" fill="#6f6f6f" fill-rule="evenodd" stroke="none"/>
    <path d="M-269.9 6.3 L-269.9 -3.7 -257.4 -3.7 -257.4 6.3 -269.9 6.3" fill="#6f6f6f" fill-rule="evenodd" stroke="none"/>
    <path d="M-264.9 -8.2 Q-265.9 -7.7 -267.4 -7.7 L-269.9 -9.2 -269.9 -11.7 Q-268.9 -12.7 -268.4 -14.2 L-265.9 -14.2 Q-264.9 -13.2 -263.9 -12.7 -263.4 -11.2 -263.4 -10.2 -263.9 -9.2 -264.9 -8.2" fill="#6f6f6f" fill-rule="evenodd" stroke="none"/>
    <path d="M-251.4 -18.2 Q-250.4 -17.7 -249.9 -17.2 -249.4 -16.2 -249.4 -15.2 -249.9 -14.2 -250.9 -13.7 -251.9 -13.2 -252.9 -13.2 L-254.4 -14.7 -254.4 -16.7 -253.4 -18.2 -251.4 -18.2" fill="#6f6f6f" fill-rule="evenodd" stroke="none"/>
    <path d="M-243.9 -9.2 Q-243.4 -8.2 -243.4 -7.2 -243.9 -6.2 -244.9 -5.7 L-246.9 -5.7 Q-247.4 -6.2 -248.4 -6.7 L-248.4 -8.7 -247.4 -10.2 Q-246.4 -10.2 -245.4 -10.7 L-243.9 -9.2" fill="#6f6f6f" fill-rule="evenodd" stroke="none"/>
    <path d="M-239.4 -3.7 Q-238.9 -2.7 -238.9 -1.7 L-239.9 -0.2 -241.9 -0.2 -243.9 -1.2 -243.9 -3.2 -242.9 -4.7 Q-241.9 -4.7 -240.9 -5.2 L-239.4 -3.7" fill="#6f6f6f" fill-rule="evenodd" stroke="none"/>
    <path d="M-178.9 2.8 L-177.4 4.3 Q-176.9 5.3 -176.9 6.3 -177.4 7.3 -178.4 7.8 L-180.4 7.8 Q-180.9 7.3 -181.9 6.8 -181.9 5.8 -182.4 4.8 -181.4 4.3 -180.9 3.3 -179.9 3.3 -178.9 2.8" fill="#6f6f6f" fill-rule="evenodd" stroke="none"/>
    <path d="M-210.4 -98.7 L-211.9 -100.2 Q-211.9 -100.7 -212.4 -101.7 -211.4 -102.7 -210.9 -103.7 L-208.9 -103.7 Q-207.9 -103.2 -207.4 -102.7 -206.9 -101.7 -206.9 -100.7 -207.4 -99.7 -208.4 -99.2 -209.4 -98.7 -210.4 -98.7" fill="#6f6f6f" fill-rule="evenodd" stroke="none"/>
    <path d="M-172.4 -47.7 L-173.4 -46.2 -175.4 -46.2 Q-175.9 -46.7 -176.9 -47.2 -176.9 -48.2 -177.4 -49.2 -176.9 -49.7 -176.4 -50.7 -175.4 -50.7 -174.4 -51.2 L-172.4 -49.7 -172.4 -47.7" fill="#6f6f6f" fill-rule="evenodd" stroke="none"/>
    <path d="M-251.9 -31.2 L-253.9 -31.2 Q-254.4 -31.7 -255.4 -32.2 L-255.4 -34.2 Q-254.9 -34.7 -254.4 -35.7 -253.4 -35.7 -252.4 -36.2 L-250.9 -34.7 Q-250.4 -33.7 -250.4 -32.7 -250.9 -31.7 -251.9 -31.2" fill="#6f6f6f" fill-rule="evenodd" stroke="none"/>
    <path d="M-248.4 -42.2 L-248.4 -40.2 Q-248.9 -39.2 -249.4 -38.7 -250.4 -38.2 -251.4 -38.2 L-252.9 -39.7 Q-252.9 -40.7 -253.4 -41.7 -252.4 -42.2 -251.9 -43.2 L-249.9 -43.2 Q-248.9 -42.7 -248.4 -42.2" fill="#6f6f6f" fill-rule="evenodd" stroke="none"/>
    <path d="M-248.4 -47.2 L-249.9 -48.7 Q-249.9 -49.7 -250.4 -50.7 L-249.4 -52.2 -247.4 -52.2 -245.4 -51.2 -245.4 -49.2 Q-245.9 -48.2 -246.4 -47.7 -247.4 -47.2 -248.4 -47.2" fill="#6f6f6f" fill-rule="evenodd" stroke="none"/>
    <path d="M-238.4 -16.2 Q-236.4 -17.7 -234.9 -19.2 L-233.4 -17.7 Q-234.9 -15.7 -236.9 -14.2 -237.4 -15.2 -238.4 -16.2" fill="#6f6f6f" fill-rule="evenodd" stroke="none"/>
    <path d="M-235.4 -37.7 Q-235.4 -36.7 -235.9 -35.7 L-240.4 -36.2 -240.4 -38.7 -235.4 -37.7" fill="#6f6f6f" fill-rule="evenodd" stroke="none"/>
    <path d="M-271.4 -67.2 L-230.9 -67.2 -230.9 -53.2 -256.9 -53.2 -256.9 -13.7 -271.4 -13.7 -271.4 -67.2" fill="#ffffff" fill-rule="evenodd" stroke="none"/>
  </g>
</svg>
