<?xml version="1.0" encoding="UTF-8" standalone="no"?>
<svg xmlns:ffdec="https://www.free-decompiler.com/flash" xmlns:xlink="http://www.w3.org/1999/xlink" ffdec:objectType="shape" height="271.45px" width="466.5px" xmlns="http://www.w3.org/2000/svg">
  <g transform="matrix(1.0, 0.0, 0.0, 1.0, 302.45, 137.25)">
    <path d="M164.05 -85.25 L164.05 6.25 84.55 6.25 84.55 70.2 53.05 70.2 55.05 113.7 -52.45 110.2 Q-56.45 86.7 -60.95 62.7 L-302.45 62.7 -302.45 -83.75 -229.45 -83.75 -229.45 -102.75 -205.45 -102.75 -205.45 -83.75 -48.45 -83.75 -48.45 -126.25 49.05 -126.25 49.05 -119.25 82.55 -85.25 164.05 -85.25" fill="#424242" fill-rule="evenodd" stroke="none"/>
    <path d="M-48.45 -117.25 L-48.45 -99.25 -45.45 -99.25 -45.45 -87.25 -48.45 -88.25 -48.45 -83.75 -120.95 -83.75 -120.95 -78.25 -131.95 -78.25 -131.95 -83.75 -161.45 -83.75 -161.45 -117.25 -139.45 -117.25 -139.45 -137.25 -113.45 -137.25 -113.45 -117.25 -48.45 -117.25" fill="#6f6f6f" fill-rule="evenodd" stroke="none"/>
    <path d="M58.05 -80.75 L58.05 -85.25 49.05 -85.25 49.05 -119.25 99.05 -119.25 99.05 -95.25 82.55 -95.25 82.55 -85.25 70.05 -85.25 70.05 -80.75 58.05 -80.75" fill="#6f6f6f" fill-rule="evenodd" stroke="none"/>
    <path d="M-99.45 134.2 L-99.45 111.7 -81.45 111.7 -81.45 94.2 -156.95 94.2 -156.95 61.2 -50.95 61.2 -50.95 73.7 -45.95 73.7 -45.95 85.2 Q-48.45 86.2 -50.95 86.7 L-50.95 99.7 49.05 99.7 49.05 70.2 79.55 70.2 79.55 134.2 -99.45 134.2" fill="#6f6f6f" fill-rule="evenodd" stroke="none"/>
    <path d="M-271.45 -67.25 L-230.95 -67.25 -230.95 -53.25 -256.95 -53.25 -256.95 -13.75 -271.45 -13.75 -271.45 -67.25" fill="#ffffff" fill-rule="evenodd" stroke="none"/>
    <path d="M-40.45 -85.25 L-44.45 -85.25 -44.45 -87.25 -46.45 -87.25 -46.45 -99.25 -44.45 -99.25 -44.45 -121.75 1.05 -121.75 1.05 -85.25 -26.95 -85.25 -26.95 -81.25 -23.45 -81.25 -23.45 -59.25 -19.45 -59.25 -19.45 -81.25 18.55 -81.25 18.55 -85.25 4.55 -85.25 4.55 -121.75 45.05 -121.75 45.05 -85.25 32.05 -85.25 32.05 -81.25 45.05 -81.25 45.05 -62.25 48.05 -62.25 48.05 -80.75 84.55 -80.75 84.55 -68.25 88.55 -68.25 88.55 -80.75 158.05 -80.75 158.05 -43.25 88.55 -43.25 88.55 -54.75 84.55 -54.75 84.55 -28.75 88.55 -28.75 88.55 -40.25 158.05 -40.25 158.05 0.75 88.55 0.75 88.55 -15.25 84.55 -15.25 84.55 0.75 48.05 0.75 48.05 -35.75 45.05 -35.75 45.05 0.75 30.05 0.75 Q7.55 -6.25 -14.95 -13.75 L-19.45 -13.75 -19.45 -32.75 -23.45 -32.75 -23.45 8.25 -19.45 8.25 -19.45 3.75 7.55 3.75 7.55 25.75 -19.45 25.75 -19.45 21.75 -23.45 21.75 -23.45 33.75 -3.45 33.75 -3.45 39.25 0.55 39.25 0.55 33.75 11.55 33.75 11.55 3.75 78.55 3.75 78.55 64.7 45.05 64.7 45.05 95.2 0.55 95.2 0.55 65.7 -3.45 65.7 -3.45 95.2 -45.95 95.2 -45.95 56.2 -47.45 56.2 -47.45 38.25 -50.95 38.25 -50.95 56.2 -110.45 56.2 -110.45 12.25 -114.45 12.25 -114.45 30.75 -135.45 30.75 -135.45 34.75 -114.45 34.75 -114.45 56.2 -160.45 56.2 -160.45 34.75 -148.95 34.75 -148.95 31.25 -160.45 31.25 -160.45 28.25 -163.95 28.25 -163.95 56.2 -252.95 56.2 -252.95 5.75 -256.45 5.75 -256.45 18.75 -271.45 18.75 -271.45 -14.75 -256.45 -14.75 -256.45 -7.25 -252.45 -7.25 -252.45 -9.25 -228.95 -9.25 -228.95 10.25 -163.95 10.25 -163.95 15.25 -160.45 15.25 -160.45 -4.25 -163.95 -4.25 -163.95 6.25 -224.95 6.25 -224.95 -13.25 -252.45 -13.25 -252.45 -78.25 -163.95 -78.25 -163.95 -30.25 -159.95 -30.25 -159.95 -41.75 -156.45 -41.75 -156.45 -45.75 -159.95 -45.75 -159.95 -78.25 -140.45 -78.25 -140.45 -45.75 -142.45 -45.75 -142.45 -41.75 -137.45 -41.75 -137.45 -78.25 -114.45 -78.25 -114.45 -34.25 -110.45 -34.25 -110.45 -78.25 -51.45 -78.25 -51.45 -66.25 -47.45 -66.25 -47.45 -78.25 -44.45 -78.25 -44.45 -81.25 -40.45 -81.25 -40.45 -85.25 M-94.95 -9.25 L-94.95 -13.25 -110.45 -13.25 -110.45 -20.75 -114.45 -20.75 -114.45 -1.25 -110.45 -1.25 -110.45 -9.25 -94.95 -9.25 M-47.45 -52.75 L-51.45 -52.75 -51.45 -30.25 -61.95 -30.25 -61.95 -26.75 -58.45 -26.75 -58.45 -27.25 -51.45 -27.25 -51.45 -13.25 -57.95 -13.25 Q-57.95 -13.75 -58.45 -14.25 L-61.95 -14.25 Q-61.95 -13.75 -62.45 -13.25 L-68.45 -13.25 -68.45 -10.25 -51.45 -10.25 -51.45 11.75 -47.45 11.75 -47.45 -52.75" fill="#939393" fill-rule="evenodd" stroke="none"/>
    <path d="M-45.95 86.7 L-50.95 86.7 -50.95 73.7 -45.95 73.7 -45.95 86.7" fill="#ffffff" fill-rule="evenodd" stroke="none"/>
    <path d="M-44.45 -87.25 L-48.45 -87.25 -48.45 -99.25 -44.45 -99.25 -44.45 -87.25" fill="#ffffff" fill-rule="evenodd" stroke="none"/>
    <path d="M70.05 -85.25 L70.05 -80.75 58.05 -80.75 58.05 -85.25 70.05 -85.25" fill="#ffffff" fill-rule="evenodd" stroke="none"/>
    <path d="M-120.95 -78.25 L-131.95 -78.25 -131.95 -83.75 -120.95 -83.75 -120.95 -78.25" fill="#ffffff" fill-rule="evenodd" stroke="none"/>
    <path d="M-252.95 55.2 L-252.95 20.25 -249.95 20.25 -249.95 55.2 -252.95 55.2" fill="#6f6f6f" fill-rule="evenodd" stroke="none"/>
    <path d="M-220.95 10.25 L-220.95 15.25 -226.45 15.25 -226.45 10.25 -220.95 10.25" fill="#6f6f6f" fill-rule="evenodd" stroke="none"/>
    <path d="M-265.45 12.75 Q-262.95 11.75 -260.95 10.25 L-257.95 15.25 Q-259.95 16.75 -262.45 17.75 L-265.45 12.75" fill="#6f6f6f" fill-rule="evenodd" stroke="none"/>
    <path d="M-191.45 37.25 L-189.45 39.75 Q-188.95 41.25 -188.95 42.75 -189.45 44.25 -190.45 45.75 -191.45 46.7 -192.95 47.2 L-195.95 47.2 -198.45 45.75 Q-198.95 44.25 -199.95 42.75 -199.45 41.25 -199.45 39.75 L-197.45 37.25 -194.45 36.75 -191.45 37.25" fill="#6f6f6f" fill-rule="evenodd" stroke="none"/>
    <path d="M-167.95 49.7 L-165.95 49.7 -164.45 51.2 Q-164.45 52.7 -164.95 53.7 L-166.45 54.7 -168.45 54.7 -169.45 53.2 -169.45 50.7 -167.95 49.7" fill="#6f6f6f" fill-rule="evenodd" stroke="none"/>
    <path d="M-158.45 50.2 Q-157.45 50.7 -156.45 50.7 L-154.95 52.2 Q-154.95 53.2 -155.45 54.2 -155.95 55.2 -156.95 55.7 L-158.95 55.2 -160.45 53.7 -160.45 51.7 -158.45 50.2" fill="#6f6f6f" fill-rule="evenodd" stroke="none"/>
    <path d="M-116.95 30.25 L-118.95 30.25 Q-119.45 29.25 -120.45 28.25 -119.95 27.25 -119.95 26.25 L-118.45 25.25 -116.45 25.25 -115.45 26.75 -115.45 28.75 Q-115.95 29.75 -116.95 30.25" fill="#6f6f6f" fill-rule="evenodd" stroke="none"/>
    <path d="M-57.45 49.7 Q-56.45 50.2 -55.45 50.2 L-53.95 51.7 Q-53.95 52.7 -54.45 53.7 -54.95 54.7 -55.95 55.2 L-57.95 54.7 -58.95 53.2 -58.95 51.2 Q-57.95 50.7 -57.45 49.7" fill="#6f6f6f" fill-rule="evenodd" stroke="none"/>
    <path d="M-42.95 56.7 L-40.95 57.2 -39.95 58.7 -39.95 60.7 Q-40.45 61.7 -41.45 62.2 -42.45 62.2 -43.45 61.7 L-44.95 60.2 -44.95 58.2 -42.95 56.7" fill="#6f6f6f" fill-rule="evenodd" stroke="none"/>
    <path d="M144.05 -49.75 L146.55 -49.75 148.05 -47.75 148.05 -45.25 146.05 -43.75 143.55 -44.25 142.05 -45.75 142.05 -48.25 Q143.05 -48.75 144.05 -49.75" fill="#6f6f6f" fill-rule="evenodd" stroke="none"/>
    <path d="M145.05 -50.75 Q144.55 -50.75 143.55 -51.25 L142.05 -52.75 Q142.55 -53.75 142.55 -54.75 L144.05 -55.75 145.55 -55.75 147.05 -54.25 Q147.05 -53.25 146.55 -52.25 146.05 -51.25 145.05 -50.75" fill="#6f6f6f" fill-rule="evenodd" stroke="none"/>
    <path d="M3.55 -16.75 Q3.05 -15.75 2.05 -15.25 1.05 -15.25 0.05 -15.75 -0.45 -16.25 -0.95 -17.25 L-0.95 -19.25 0.55 -20.25 2.55 -20.25 Q3.05 -19.25 3.55 -18.75 L3.55 -16.75" fill="#6f6f6f" fill-rule="evenodd" stroke="none"/>
    <path d="M23.05 -17.75 L21.55 -17.75 Q21.05 -18.25 20.55 -19.25 L20.55 -20.75 22.05 -21.75 23.55 -21.75 Q24.05 -20.75 24.55 -20.25 L24.55 -18.75 23.05 -17.75" fill="#6f6f6f" fill-rule="evenodd" stroke="none"/>
    <path d="M-11.45 -114.25 L-12.95 -114.25 Q-13.45 -114.75 -13.95 -115.75 L-13.95 -117.75 -12.45 -118.75 Q-11.45 -118.25 -10.95 -118.25 L-9.95 -117.25 -9.95 -115.25 -11.45 -114.25" fill="#6f6f6f" fill-rule="evenodd" stroke="none"/>
    <path d="M-28.45 -121.75 L-25.45 -120.75 -23.45 -118.75 -23.45 -115.75 Q-24.45 -114.75 -25.95 -114.25 L-28.95 -114.25 Q-28.95 -113.25 -29.45 -112.25 L-31.45 -110.25 -34.95 -110.75 -36.95 -112.75 Q-36.45 -114.25 -36.45 -115.75 -34.95 -116.25 -33.95 -117.25 L-30.95 -117.25 -30.95 -116.75 Q-30.45 -117.75 -30.45 -119.25 L-28.45 -121.75" fill="#6f6f6f" fill-rule="evenodd" stroke="none"/>
    <path d="M-51.45 -27.25 L-51.45 -22.25 -54.95 -22.75 Q-55.45 -23.25 -55.95 -24.25 L-55.95 -26.25 Q-54.95 -26.75 -54.45 -27.75 L-51.45 -27.25" fill="#6f6f6f" fill-rule="evenodd" stroke="none"/>
    <path d="M-15.45 -69.75 Q-14.95 -70.75 -14.95 -71.75 L-13.95 -72.75 -17.95 -72.75 -17.95 -81.25 16.05 -81.25 Q16.55 -78.25 16.55 -75.25 L10.05 -74.25 Q10.05 -75.75 9.55 -77.75 L9.55 -72.75 -11.45 -72.75 Q-10.95 -71.75 -10.45 -71.25 L-10.45 -69.25 Q-10.95 -68.25 -11.95 -67.75 -12.95 -67.75 -13.95 -68.25 L-15.45 -69.75" fill="#6f6f6f" fill-rule="evenodd" stroke="none"/>
    <path d="M-247.95 -24.75 Q-248.45 -23.75 -249.45 -23.25 -250.45 -23.25 -251.45 -23.75 -251.95 -24.25 -252.45 -25.25 L-252.45 -27.25 Q-251.45 -27.75 -250.95 -28.75 -249.95 -28.25 -248.95 -28.25 L-247.45 -26.75 Q-247.45 -25.75 -247.95 -24.75" fill="#6f6f6f" fill-rule="evenodd" stroke="none"/>
    <path d="M-174.95 50.7 L-173.45 51.2 Q-172.95 51.7 -172.95 52.2 L-172.95 53.7 -173.95 54.7 -175.45 54.2 -176.45 53.2 -176.45 51.7 -174.95 50.7" fill="#6f6f6f" fill-rule="evenodd" stroke="none"/>
    <path d="M-225.95 30.25 L-215.95 29.25 -213.95 54.7 -223.95 55.2 -225.95 30.25" fill="#6f6f6f" fill-rule="evenodd" stroke="none"/>
    <path d="M-170.45 9.75 L-170.45 16.25 -201.45 16.25 -201.45 9.75 -170.45 9.75" fill="#6f6f6f" fill-rule="evenodd" stroke="none"/>
    <path d="M-219.45 14.25 Q-218.45 12.25 -217.95 10.25 L-209.45 13.25 -211.45 17.75 Q-215.45 16.25 -219.45 14.25" fill="#6f6f6f" fill-rule="evenodd" stroke="none"/>
    <path d="M-197.45 0.25 L-197.45 6.25 -204.95 6.25 -204.95 0.25 -197.45 0.25" fill="#6f6f6f" fill-rule="evenodd" stroke="none"/>
    <path d="M-194.95 5.75 L-194.95 0.25 -163.95 0.25 -163.95 5.75 -194.95 5.75" fill="#6f6f6f" fill-rule="evenodd" stroke="none"/>
    <path d="M-232.45 -16.25 L-232.45 -13.25 -240.45 -13.25 -240.45 -16.25 -232.45 -16.25" fill="#6f6f6f" fill-rule="evenodd" stroke="none"/>
    <path d="M-252.45 -21.75 L-246.45 -22.25 Q-245.95 -18.75 -245.95 -15.25 L-252.45 -14.75 -252.45 -21.75" fill="#6f6f6f" fill-rule="evenodd" stroke="none"/>
    <path d="M-236.45 -9.75 L-228.95 -9.75 -228.95 -3.75 -236.45 -3.75 -236.45 -9.75" fill="#6f6f6f" fill-rule="evenodd" stroke="none"/>
    <path d="M-209.95 -23.75 L-221.45 -22.75 Q-221.45 -26.75 -221.95 -31.25 L-210.45 -32.25 Q-209.95 -27.75 -209.95 -23.75" fill="#6f6f6f" fill-rule="evenodd" stroke="none"/>
    <path d="M-222.45 -61.25 L-213.95 -61.25 -213.95 -45.25 -222.45 -45.25 -222.45 -61.25" fill="#6f6f6f" fill-rule="evenodd" stroke="none"/>
    <path d="M-204.95 -78.25 L-204.95 -71.25 -222.95 -71.25 -222.95 -78.25 -204.95 -78.25" fill="#6f6f6f" fill-rule="evenodd" stroke="none"/>
    <path d="M-225.45 -78.25 L-225.45 -72.25 -229.95 -72.25 -229.95 -78.25 -225.45 -78.25" fill="#6f6f6f" fill-rule="evenodd" stroke="none"/>
    <path d="M-193.45 -38.25 L-203.45 -37.75 -204.45 -66.75 -194.45 -66.75 -193.45 -38.25" fill="#6f6f6f" fill-rule="evenodd" stroke="none"/>
    <path d="M-232.45 -41.75 Q-235.95 -40.75 -239.45 -40.25 -240.45 -46.75 -241.95 -53.25 -238.45 -53.75 -234.95 -54.75 -233.45 -48.25 -232.45 -41.75" fill="#6f6f6f" fill-rule="evenodd" stroke="none"/>
    <path d="M-252.45 -60.25 Q-250.45 -61.25 -248.45 -62.75 L-244.95 -57.25 -246.45 -56.25 -243.95 -56.25 -243.95 -31.75 -252.45 -31.75 -252.45 -56.25 -249.45 -56.25 -252.45 -60.25" fill="#6f6f6f" fill-rule="evenodd" stroke="none"/>
    <path d="M-179.95 -46.25 L-189.95 -45.25 Q-190.45 -56.75 -191.45 -68.25 L-181.45 -68.75 Q-180.45 -57.25 -179.95 -46.25" fill="#6f6f6f" fill-rule="evenodd" stroke="none"/>
    <path d="M-174.95 46.7 Q-173.45 42.25 -172.45 37.25 L-164.95 39.25 -166.95 48.7 -174.95 46.7" fill="#6f6f6f" fill-rule="evenodd" stroke="none"/>
    <path d="M-155.45 -66.25 L-155.45 -57.75 -159.95 -57.75 -159.95 -66.25 -155.45 -66.25" fill="#6f6f6f" fill-rule="evenodd" stroke="none"/>
    <path d="M-146.95 -78.25 L-146.95 -77.75 -148.45 -77.75 -147.45 -74.75 -147.45 -72.75 Q-147.95 -71.75 -148.45 -71.25 L-150.45 -71.25 -151.45 -72.75 -151.45 -74.75 -150.45 -77.75 -152.45 -77.75 -152.45 -78.25 -146.95 -78.25" fill="#6f6f6f" fill-rule="evenodd" stroke="none"/>
    <path d="M-135.45 -67.75 L-135.45 -45.25 -137.45 -45.25 -137.45 -67.75 -135.45 -67.75" fill="#6f6f6f" fill-rule="evenodd" stroke="none"/>
    <path d="M-156.45 34.75 L-156.45 47.7 -160.45 47.7 -160.45 34.75 -156.45 34.75" fill="#6f6f6f" fill-rule="evenodd" stroke="none"/>
    <path d="M-125.45 53.2 L-123.45 35.25 -114.45 36.25 Q-115.45 45.25 -116.95 54.2 L-125.45 53.2" fill="#6f6f6f" fill-rule="evenodd" stroke="none"/>
    <path d="M-121.95 29.75 L-128.45 30.75 Q-128.45 30.25 -128.95 29.25 L-135.95 31.25 Q-136.45 28.75 -137.45 25.75 L-129.45 23.75 Q-128.95 24.75 -128.95 25.25 L-122.45 24.25 Q-121.95 27.25 -121.95 29.75" fill="#6f6f6f" fill-rule="evenodd" stroke="none"/>
    <path d="M-119.45 -7.75 L-119.45 -15.25 -114.45 -15.25 -114.45 -7.75 -119.45 -7.75" fill="#6f6f6f" fill-rule="evenodd" stroke="none"/>
    <path d="M-102.95 -45.75 L-102.95 -36.25 -110.45 -36.25 -110.45 -45.75 -102.95 -45.75" fill="#6f6f6f" fill-rule="evenodd" stroke="none"/>
    <path d="M-104.95 -77.75 L-104.95 -47.25 -110.45 -47.25 -110.45 -77.75 -104.95 -77.75" fill="#6f6f6f" fill-rule="evenodd" stroke="none"/>
    <path d="M-106.45 38.75 L-106.45 43.25 -110.45 43.25 -110.45 18.75 -106.45 18.75 -106.45 21.25 -104.95 21.25 -104.95 38.75 -106.45 38.75" fill="#6f6f6f" fill-rule="evenodd" stroke="none"/>
    <path d="M-91.95 -77.75 L-91.95 -69.75 -101.95 -69.75 -101.95 -77.75 -91.95 -77.75" fill="#6f6f6f" fill-rule="evenodd" stroke="none"/>
    <path d="M-72.45 -77.75 L-72.45 -71.25 -90.45 -71.25 -90.45 -77.75 -72.45 -77.75" fill="#6f6f6f" fill-rule="evenodd" stroke="none"/>
    <path d="M-71.45 -68.75 L-71.45 -75.75 -64.45 -75.75 -64.45 -68.75 -71.45 -68.75" fill="#6f6f6f" fill-rule="evenodd" stroke="none"/>
    <path d="M-59.95 -70.25 L-59.95 -77.75 -51.45 -77.75 -51.45 -70.25 -59.95 -70.25" fill="#6f6f6f" fill-rule="evenodd" stroke="none"/>
    <path d="M-57.45 -30.25 L-57.45 -49.75 -51.45 -49.75 -51.45 -30.25 -57.45 -30.25" fill="#6f6f6f" fill-rule="evenodd" stroke="none"/>
    <path d="M-58.95 -13.75 L-58.95 -22.25 -51.45 -22.25 -51.45 -13.75 -58.95 -13.75" fill="#6f6f6f" fill-rule="evenodd" stroke="none"/>
    <path d="M-88.95 -36.25 Q-88.45 -40.75 -88.45 -45.25 L-70.45 -43.75 -71.45 -34.75 -88.95 -36.25" fill="#6f6f6f" fill-rule="evenodd" stroke="none"/>
    <path d="M-98.95 -19.75 L-98.95 -13.25 -110.45 -13.25 -110.45 -19.75 -98.95 -19.75" fill="#6f6f6f" fill-rule="evenodd" stroke="none"/>
    <path d="M-96.95 -9.25 L-96.95 -6.25 -110.45 -6.25 -110.45 -9.25 -96.95 -9.25" fill="#6f6f6f" fill-rule="evenodd" stroke="none"/>
    <path d="M-61.45 -9.75 L-51.45 -9.75 -51.45 -1.75 -61.45 -1.75 -61.45 -9.75" fill="#6f6f6f" fill-rule="evenodd" stroke="none"/>
    <path d="M-90.95 8.75 L-78.45 5.75 Q-74.45 21.25 -70.95 36.75 L-83.95 39.75 -90.95 8.75" fill="#6f6f6f" fill-rule="evenodd" stroke="none"/>
    <path d="M-110.45 55.2 L-110.45 45.25 -100.95 45.25 -100.95 55.2 -110.45 55.2" fill="#6f6f6f" fill-rule="evenodd" stroke="none"/>
    <path d="M-100.95 54.2 Q-99.95 51.7 -99.45 48.7 L-91.95 50.2 Q-92.45 53.2 -93.45 56.2 L-100.95 54.2" fill="#6f6f6f" fill-rule="evenodd" stroke="none"/>
    <path d="M-91.95 52.7 L-87.45 51.7 Q-86.95 53.7 -86.95 55.2 L-91.45 55.7 Q-91.45 54.2 -91.95 52.7" fill="#6f6f6f" fill-rule="evenodd" stroke="none"/>
    <path d="M-85.95 55.7 L-85.95 53.7 -75.95 53.7 -75.95 55.7 -85.95 55.7" fill="#6f6f6f" fill-rule="evenodd" stroke="none"/>
    <path d="M-42.45 47.7 L-42.45 56.2 -47.45 56.2 -47.45 47.7 -42.45 47.7" fill="#6f6f6f" fill-rule="evenodd" stroke="none"/>
    <path d="M-25.95 -6.75 L-25.95 -17.25 -23.45 -17.25 -23.45 -6.75 -25.95 -6.75" fill="#6f6f6f" fill-rule="evenodd" stroke="none"/>
    <path d="M-11.45 8.75 L-11.45 3.75 -3.45 3.75 -3.45 8.75 -11.45 8.75" fill="#6f6f6f" fill-rule="evenodd" stroke="none"/>
    <path d="M7.05 11.75 L7.05 16.75 5.55 16.75 5.55 16.25 3.55 16.25 Q3.05 15.75 2.05 15.25 L2.05 13.25 3.55 12.25 5.55 12.25 5.55 11.75 7.05 11.75" fill="#6f6f6f" fill-rule="evenodd" stroke="none"/>
    <path d="M-8.95 88.7 L-8.95 71.2 -3.45 71.2 -3.45 88.7 -8.95 88.7" fill="#6f6f6f" fill-rule="evenodd" stroke="none"/>
    <path d="M42.05 79.2 L42.05 68.7 45.05 68.7 45.05 79.2 42.05 79.2" fill="#6f6f6f" fill-rule="evenodd" stroke="none"/>
    <path d="M75.05 35.75 L75.05 57.2 68.55 57.2 68.55 35.75 75.05 35.75" fill="#6f6f6f" fill-rule="evenodd" stroke="none"/>
    <path d="M72.55 63.7 L72.55 57.7 78.55 57.7 78.55 63.7 72.55 63.7" fill="#6f6f6f" fill-rule="evenodd" stroke="none"/>
    <path d="M11.55 10.25 L11.55 3.75 17.55 3.75 17.55 10.25 11.55 10.25" fill="#6f6f6f" fill-rule="evenodd" stroke="none"/>
    <path d="M19.05 6.75 L26.05 3.75 28.05 9.25 21.55 12.25 19.05 6.75" fill="#6f6f6f" fill-rule="evenodd" stroke="none"/>
    <path d="M34.55 10.25 L34.55 3.75 52.55 3.75 52.55 10.25 34.55 10.25" fill="#6f6f6f" fill-rule="evenodd" stroke="none"/>
    <path d="M71.55 22.75 L71.55 5.25 78.55 5.25 78.55 22.75 71.55 22.75" fill="#6f6f6f" fill-rule="evenodd" stroke="none"/>
    <path d="M76.05 41.25 L76.05 31.25 78.55 31.25 78.55 41.25 76.05 41.25" fill="#6f6f6f" fill-rule="evenodd" stroke="none"/>
    <path d="M97.05 0.25 L97.05 -2.25 108.05 -2.25 108.05 0.25 97.05 0.25" fill="#6f6f6f" fill-rule="evenodd" stroke="none"/>
    <path d="M115.05 -43.25 L115.05 -45.75 126.55 -45.75 126.55 -43.25 115.05 -43.25" fill="#6f6f6f" fill-rule="evenodd" stroke="none"/>
    <path d="M148.55 -9.25 L148.55 -31.25 156.05 -31.25 156.05 -9.25 148.55 -9.25" fill="#6f6f6f" fill-rule="evenodd" stroke="none"/>
    <path d="M131.05 -32.25 L131.05 -39.75 141.05 -39.75 141.05 -32.25 131.05 -32.25" fill="#6f6f6f" fill-rule="evenodd" stroke="none"/>
    <path d="M56.05 -5.25 Q59.55 -5.75 63.05 -6.75 L64.05 -1.25 Q61.05 -0.25 57.55 0.25 L56.05 -5.25" fill="#6f6f6f" fill-rule="evenodd" stroke="none"/>
    <path d="M50.05 -26.25 L50.05 -15.25 48.05 -15.25 48.05 -26.25 50.05 -26.25" fill="#6f6f6f" fill-rule="evenodd" stroke="none"/>
    <path d="M71.55 -2.75 L70.55 -0.75 Q69.05 -1.25 67.55 -2.25 L68.55 -4.25 Q70.05 -3.25 71.55 -2.75" fill="#6f6f6f" fill-rule="evenodd" stroke="none"/>
    <path d="M50.05 -8.25 L55.05 -7.25 53.05 0.25 Q50.55 -0.25 48.05 -1.25 L50.05 -8.25" fill="#6f6f6f" fill-rule="evenodd" stroke="none"/>
    <path d="M149.55 -45.25 L149.55 -64.75 158.05 -64.75 158.05 -45.25 149.55 -45.25" fill="#6f6f6f" fill-rule="evenodd" stroke="none"/>
    <path d="M151.55 -80.75 L158.05 -80.75 158.05 -65.75 151.55 -65.75 151.55 -80.75" fill="#6f6f6f" fill-rule="evenodd" stroke="none"/>
    <path d="M72.55 -72.25 L72.55 -80.75 84.05 -80.75 84.05 -72.25 72.55 -72.25" fill="#6f6f6f" fill-rule="evenodd" stroke="none"/>
    <path d="M4.55 -14.75 L4.55 -16.25 15.05 -16.25 15.05 -14.75 4.55 -14.75" fill="#6f6f6f" fill-rule="evenodd" stroke="none"/>
    <path d="M-5.95 -22.25 Q-5.95 -18.75 -6.45 -15.25 L-14.95 -16.25 Q-14.45 -19.25 -14.45 -22.75 L-5.95 -22.25" fill="#6f6f6f" fill-rule="evenodd" stroke="none"/>
    <path d="M44.05 -80.25 L44.05 -72.75 37.55 -72.75 37.55 -80.25 44.05 -80.25" fill="#6f6f6f" fill-rule="evenodd" stroke="none"/>
    <path d="M1.05 -119.75 L1.05 -85.25 -4.95 -85.25 -4.95 -119.75 1.05 -119.75" fill="#6f6f6f" fill-rule="evenodd" stroke="none"/>
    <path d="M-44.45 -102.75 L-44.45 -121.75 -37.45 -121.75 -37.45 -102.75 -44.45 -102.75" fill="#6f6f6f" fill-rule="evenodd" stroke="none"/>
    <path d="M-12.45 -87.75 L-12.45 -85.75 -22.95 -85.75 -22.95 -87.75 -12.45 -87.75" fill="#6f6f6f" fill-rule="evenodd" stroke="none"/>
    <path d="M-11.45 -86.25 L-11.45 -88.25 -7.45 -88.25 -7.45 -86.25 -11.45 -86.25" fill="#6f6f6f" fill-rule="evenodd" stroke="none"/>
    <path d="M-14.95 -13.75 L31.55 -13.75 31.55 -32.75 45.05 -32.75 45.05 0.75 -14.95 0.75 -14.95 -13.75" fill="#ffffff" fill-rule="evenodd" stroke="none"/>
  </g>
</svg>
