<?xml version="1.0" encoding="UTF-8" standalone="no"?>
<svg xmlns:ffdec="https://www.free-decompiler.com/flash" xmlns:xlink="http://www.w3.org/1999/xlink" ffdec:objectType="shape" height="373.85px" width="382.65px" xmlns="http://www.w3.org/2000/svg">
  <g transform="matrix(1.0, 0.0, 0.0, 1.0, 409.25, 127.3)">
    <path d="M-409.25 110.0 L-409.25 -127.3 -26.6 -127.3 -26.6 246.55 -276.0 246.55 -276.0 110.0 -409.25 110.0" fill="#434343" fill-rule="evenodd" stroke="none"/>
    <path d="M-78.7 41.5 L-82.85 41.5 -82.85 45.05 -143.15 45.05 -143.15 41.5 -148.35 41.5 -148.35 46.3 -146.7 46.3 -146.7 172.65 -78.7 172.65 -78.7 41.5 M-215.55 46.3 L-210.35 46.3 -210.35 41.5 -215.55 41.5 -215.55 46.3 M-307.7 -20.65 L-307.7 -17.25 -268.7 -17.2 -268.8 -5.3 -261.45 -5.3 -261.45 -35.0 -268.85 -35.0 -268.85 -20.65 -307.7 -20.65 M-388.05 -95.65 L-388.05 -102.65 -268.85 -102.65 -268.85 -66.3 -261.45 -66.3 -261.45 -107.65 -246.45 -107.65 -246.45 -112.4 -204.0 -112.4 -204.0 -107.65 -126.7 -107.65 -126.7 -112.4 -84.25 -112.4 -84.25 -107.65 -45.0 -107.65 -45.0 23.05 -37.5 23.05 -37.5 51.05 -45.0 51.05 -45.0 93.8 -37.5 93.8 -37.5 121.8 -45.0 121.8 -45.0 229.65 -71.5 229.65 -71.5 235.5 -135.35 235.5 -135.35 229.65 -191.35 229.65 -191.35 235.5 -255.2 235.5 -255.2 229.5 -262.2 229.5 -262.2 89.95 -269.6 89.95 -269.7 98.65 -388.05 98.65 -388.05 88.0 -395.0 88.0 -395.0 23.3 -388.05 23.3 -388.05 -17.3 -335.7 -17.25 -335.7 -20.65 -388.05 -20.65 -388.05 -30.65 -395.7 -30.65 -395.7 -95.65 -388.05 -95.65" fill="#969696" fill-rule="evenodd" stroke="none"/>
    <path d="M-157.5 -19.75 L-122.5 -19.75 -122.5 -1.0 -157.5 -1.0 -157.5 -19.75" fill="#707070" fill-rule="evenodd" stroke="none"/>
    <path d="M-192.65 138.1 L-192.65 109.5 -173.9 109.5 -173.9 138.1 -192.65 138.1" fill="#707070" fill-rule="evenodd" stroke="none"/>
    <path d="M-193.5 182.6 L-193.5 154.0 -174.75 154.0 -174.75 182.6 -193.5 182.6" fill="#707070" fill-rule="evenodd" stroke="none"/>
    <path d="M-210.7 211.65 L-210.7 224.6 -235.85 224.6 -235.85 211.65 -210.7 211.65" fill="#707070" fill-rule="evenodd" stroke="none"/>
    <path d="M-177.35 211.3 L-177.35 224.25 -202.55 224.25 -202.55 211.3 -177.35 211.3" fill="#707070" fill-rule="evenodd" stroke="none"/>
    <path d="M-142.5 214.65 L-142.5 227.6 -168.85 227.6 -168.85 214.65 -142.5 214.65" fill="#707070" fill-rule="evenodd" stroke="none"/>
    <path d="M-193.9 94.35 L-193.9 65.75 -175.15 65.75 -175.15 94.35 -193.9 94.35" fill="#707070" fill-rule="evenodd" stroke="none"/>
    <path d="M-354.8 67.35 L-354.8 47.5 -336.05 47.5 -336.05 67.35 -354.8 67.35" fill="#707070" fill-rule="evenodd" stroke="none"/>
    <path d="M-348.3 88.3 L-321.7 88.3 -321.7 83.8 -297.0 83.8 -297.0 88.3 -269.7 88.3 -269.7 98.65 -348.3 98.65 -348.3 88.3" fill="#707070" fill-rule="evenodd" stroke="none"/>
    <path d="M-295.5 -17.2 L-270.85 -17.2 -270.85 -8.4 -295.5 -8.4 -295.5 -17.2" fill="#707070" fill-rule="evenodd" stroke="none"/>
    <path d="M-251.35 -31.35 L-251.35 -15.95 -261.2 -15.95 -261.2 -31.35 -251.35 -31.35" fill="#707070" fill-rule="evenodd" stroke="none"/>
    <path d="M-304.2 -20.65 L-304.2 -35.85 -268.85 -35.85 -268.85 -20.65 -304.2 -20.65" fill="#707070" fill-rule="evenodd" stroke="none"/>
    <path d="M-388.05 -20.65 L-388.05 -34.5 -361.7 -34.5 -361.7 -20.65 -388.05 -20.65" fill="#707070" fill-rule="evenodd" stroke="none"/>
    <path d="M-384.7 -60.4 L-384.7 -99.4 -332.75 -99.4 -332.75 -71.55 -376.6 -71.55 -376.6 -60.4 -384.7 -60.4" fill="#707070" fill-rule="evenodd" stroke="none"/>
    <path d="M-283.7 -68.5 L-283.7 -86.05 -288.8 -86.05 -288.8 -102.65 -268.85 -102.65 -269.0 -68.5 -283.7 -68.5" fill="#707070" fill-rule="evenodd" stroke="none"/>
    <path d="M-388.05 -17.3 L-369.0 -17.3 -369.0 4.25 -374.85 4.25 -374.55 27.5 -367.5 27.5 -367.5 98.65 -388.05 98.65 -388.05 -17.3" fill="#707070" fill-rule="evenodd" stroke="none"/>
    <path d="M-224.0 70.6 L-213.9 70.6 -213.9 102.35 -224.0 102.35 -224.0 70.6" fill="#707070" fill-rule="evenodd" stroke="none"/>
    <path d="M-262.85 36.75 L-262.85 28.1 -252.75 28.1 -252.75 61.0 -279.5 61.0 -279.5 36.75 -262.85 36.75" fill="#707070" fill-rule="evenodd" stroke="none"/>
    <path d="M-225.15 125.85 L-215.0 125.85 -215.0 157.6 -225.15 157.6 -225.15 125.85" fill="#707070" fill-rule="evenodd" stroke="none"/>
    <path d="M-262.2 107.2 L-248.85 107.2 -248.85 229.5 -262.2 229.5 -262.2 107.2" fill="#707070" fill-rule="evenodd" stroke="none"/>
    <path d="M-103.0 -18.5 L-68.0 -18.5 -68.0 0.25 -103.0 0.25 -103.0 -18.5" fill="#707070" fill-rule="evenodd" stroke="none"/>
    <path d="M-169.75 -68.75 L-169.75 -50.0 -204.75 -50.0 -204.75 -68.75 -169.75 -68.75" fill="#707070" fill-rule="evenodd" stroke="none"/>
    <path d="M-170.65 -93.75 L-170.65 -88.75 -214.75 -88.75 -214.75 -93.75 -247.25 -93.75 -247.25 -70.35 -261.2 -70.35 -261.2 -107.65 -55.0 -107.65 -55.0 -93.75 -170.65 -93.75" fill="#707070" fill-rule="evenodd" stroke="none"/>
    <path d="M-154.0 -49.0 L-154.0 -67.75 -119.0 -67.75 -119.0 -49.0 -154.0 -49.0" fill="#707070" fill-rule="evenodd" stroke="none"/>
    <path d="M-50.0 -95.5 L-45.0 -95.5 -45.0 -60.85 -50.0 -60.85 -50.0 -95.5" fill="#707070" fill-rule="evenodd" stroke="none"/>
    <path d="M-50.0 -23.6 L-50.0 -58.25 -45.0 -58.25 -45.0 -23.6 -50.0 -23.6" fill="#707070" fill-rule="evenodd" stroke="none"/>
    <path d="M-54.4 -19.85 L-45.0 -19.85 -45.0 10.35 -54.4 10.35 -54.4 -19.85" fill="#707070" fill-rule="evenodd" stroke="none"/>
    <path d="M-54.4 86.35 L-54.4 56.1 -45.0 56.1 -45.0 86.35 -54.4 86.35" fill="#707070" fill-rule="evenodd" stroke="none"/>
    <path d="M-60.4 171.25 L-60.4 143.35 -45.0 143.35 -45.0 229.65 -73.4 229.65 -73.4 171.25 -60.4 171.25" fill="#707070" fill-rule="evenodd" stroke="none"/>
    <path d="M-67.75 -49.0 L-102.75 -49.0 -102.75 -67.75 -67.75 -67.75 -67.75 -49.0" fill="#707070" fill-rule="evenodd" stroke="none"/>
    <path d="M-82.85 155.65 L-143.15 155.65 -143.15 45.05 -82.85 45.05 -82.85 155.65" fill="#ffffff" fill-rule="evenodd" stroke="none"/>
    <path d="M-37.5 23.05 L-37.5 51.05 -43.0 51.05 -43.0 23.05 -37.5 23.05" fill="#ffffff" fill-rule="evenodd" stroke="none"/>
  </g>
</svg>
