<?xml version="1.0" encoding="UTF-8" standalone="no"?>
<svg xmlns:ffdec="https://www.free-decompiler.com/flash" xmlns:xlink="http://www.w3.org/1999/xlink" ffdec:objectType="shape" height="200.9px" width="192.55px" xmlns="http://www.w3.org/2000/svg">
  <g transform="matrix(1.0, 0.0, 0.0, 1.0, -58.75, 32.9)">
    <path d="M74.25 -32.6 L76.1 -32.9 77.55 -32.9 80.0 -32.0 160.8 9.95 172.8 17.55 176.2 21.25 179.95 29.1 190.35 45.45 192.4 49.5 202.8 65.3 203.35 66.3 218.55 87.25 224.0 93.85 237.5 112.05 247.05 128.0 249.85 129.45 251.3 133.65 251.2 137.85 250.85 140.1 249.2 145.0 245.45 149.45 241.25 152.4 234.1 156.55 224.95 163.3 216.65 168.0 212.2 166.4 206.45 162.55 172.35 132.3 168.4 127.85 165.9 125.55 149.3 114.25 143.95 109.35 139.6 104.25 90.45 36.35 80.3 26.5 73.9 21.2 69.85 17.05 67.3 12.25 59.6 -16.75 58.9 -20.75 58.75 -23.95 59.5 -26.15 60.95 -27.9 74.25 -32.6" fill="#353e35" fill-rule="evenodd" stroke="none"/>
    <path d="M74.5 -31.1 L76.1 -31.4 77.3 -31.4 79.3 -30.65 160.0 11.2 171.55 18.5 191.8 53.0 218.5 90.85 236.3 115.2 245.65 129.85 248.65 132.0 249.0 138.2 245.25 146.05 225.65 159.85 214.5 165.65 213.0 165.15 207.45 161.45 173.5 131.3 166.85 124.4 150.3 113.1 145.05 108.35 140.8 103.35 91.6 35.35 81.3 25.35 75.0 20.15 71.1 16.15 68.75 11.8 61.05 -17.0 60.4 -20.85 60.25 -23.75 60.85 -25.4 61.85 -26.6 74.5 -31.1" fill="#5e7c33" fill-rule="evenodd" stroke="none"/>
    <path d="M75.65 -29.1 L81.55 -13.5 81.6 -12.3 81.4 -11.2 80.0 -10.25 77.25 -9.15 72.8 -9.0 70.05 -9.85 68.35 -11.55 62.25 -23.5 62.05 -24.35 62.55 -25.0 73.35 -29.5 74.3 -29.65 75.0 -29.55 75.65 -29.1" fill="#8ba948" fill-rule="evenodd" stroke="none"/>
    <path d="M140.3 54.2 L142.3 58.0 144.0 62.7 149.9 85.7 151.15 88.95 153.4 91.7 155.65 93.45 159.25 94.95 164.75 96.35 180.0 98.6 185.65 101.5 190.75 105.35 198.55 115.8 190.4 127.35 186.4 129.0 183.65 128.8 181.2 127.9 179.2 124.9 175.4 120.8 171.8 118.0 162.5 112.5 151.0 107.5 148.0 105.2 133.15 82.35 124.65 65.7 122.3 63.35 117.5 56.85 116.8 53.5 117.15 50.5 119.0 47.85 121.5 42.85 122.65 41.7 128.5 39.35 130.3 38.85 132.15 39.35 133.3 40.0 134.65 42.7 136.5 48.7 140.3 54.2" fill="#8ba948" fill-rule="evenodd" stroke="none"/>
    <path d="M154.5 8.3 L164.7 23.95 164.75 23.95 168.0 29.45 181.9 48.6 181.9 48.7 191.3 66.1 227.8 118.6 234.25 131.85 234.8 136.15 234.6 141.55 233.0 145.3 231.35 147.2 214.2 158.05 214.15 158.1 207.2 161.25 205.35 159.55 213.1 156.0 229.6 145.55 231.35 143.45 232.35 140.85 232.45 136.25 232.0 132.55 225.8 119.8 189.3 67.3 179.9 49.85 166.05 30.75 153.75 11.75 150.7 6.35 154.5 8.3" fill="#959595" fill-rule="evenodd" stroke="none"/>
    <path d="M147.25 4.55 L147.3 5.15 146.3 6.65 144.05 5.4 142.8 2.4 142.8 2.25 147.25 4.55" fill="#90865c" fill-rule="evenodd" stroke="none"/>
    <path d="M146.3 10.9 L147.55 14.15 148.3 18.15 146.3 24.6 143.55 25.1 140.35 24.1 139.6 21.1 141.3 17.9 144.55 15.4 146.3 10.9" fill="#90865c" fill-rule="evenodd" stroke="none"/>
    <path d="M127.1 37.1 L127.65 34.15 130.3 31.8 133.35 30.1 134.85 29.45 135.75 30.0 136.1 31.15 136.0 32.35 131.75 36.9 129.35 38.35 127.4 38.25 127.1 37.1" fill="#90865c" fill-rule="evenodd" stroke="none"/>
    <path d="M111.5 56.5 L115.3 57.7 123.5 64.7 124.0 66.2 123.0 68.7 121.3 70.2 118.3 70.7 116.8 70.2 113.9 66.25 113.8 65.85 113.6 65.8 107.7 57.6 108.3 57.2 111.5 56.5" fill="#90865c" fill-rule="evenodd" stroke="none"/>
    <path d="M203.3 96.35 L207.15 100.85 214.15 113.0 188.65 96.7 184.0 95.5 172.5 95.0 169.65 94.0 167.65 92.9 166.85 91.6 166.75 89.9 167.4 87.8 168.2 86.8 185.15 87.85 188.0 90.35 192.0 90.5 201.0 91.85 203.3 96.35" fill="#90865c" fill-rule="evenodd" stroke="none"/>
    <path d="M196.4 147.45 L197.75 148.0 199.3 148.15 201.2 148.7 202.4 149.6 204.65 154.0 203.85 157.35 203.35 157.7 185.85 142.2 186.4 142.45 189.4 143.45 196.4 147.45" fill="#90865c" fill-rule="evenodd" stroke="none"/>
    <path d="M127.0 7.15 L128.0 5.0 130.2 4.7 132.65 2.0 135.75 2.35 137.15 3.7 138.65 3.0 139.5 3.35 139.75 6.75 143.5 11.85 142.5 14.2 141.3 16.2 139.75 16.45 136.0 16.6 132.55 20.9 132.55 22.8 128.0 26.7 128.85 29.45 126.4 30.8 124.1 34.25 118.5 36.35 116.8 36.35 115.5 38.2 114.75 41.95 113.1 44.8 109.4 45.5 109.0 48.1 108.5 49.6 107.0 50.6 103.55 51.75 103.5 51.85 94.55 39.45 94.6 39.25 95.8 37.35 95.85 36.35 93.9 34.3 92.6 32.2 92.0 30.05 88.2 25.3 86.35 20.45 82.4 20.9 79.5 18.45 76.7 19.05 75.5 18.35 75.05 17.15 75.9 15.25 78.25 13.4 79.95 9.9 81.0 8.7 83.05 8.35 85.05 7.7 91.3 7.45 93.3 4.95 97.65 4.7 99.1 6.25 100.2 6.25 101.55 5.35 112.65 6.8 113.65 8.25 119.65 7.9 122.85 9.0 127.0 7.15" fill="#424e95" fill-rule="evenodd" stroke="none"/>
    <path d="M129.0 7.7 L133.4 6.15 136.0 6.5 138.15 8.85 137.7 12.65 136.65 14.65 134.15 15.5 128.8 22.3 125.5 24.65 125.9 27.9 121.8 31.65 120.55 32.2 115.0 34.0 112.8 36.1 114.4 33.6 120.6 30.3 124.65 22.75 126.9 19.4 131.2 18.05 131.85 15.35 133.65 13.5 133.75 11.5 132.75 9.4 131.3 8.7 129.15 8.8 127.1 9.45 129.0 7.7" fill="#073b7f" fill-rule="evenodd" stroke="none"/>
    <path d="M107.2 9.6 L114.25 11.25 107.25 10.4 87.6 11.3 83.7 11.85 80.7 13.15 83.1 10.8 86.2 10.0 90.2 9.85 93.7 8.7 Q94.55 8.2 95.35 7.65 L96.5 8.2 97.5 9.2 107.2 9.6" fill="#073b7f" fill-rule="evenodd" stroke="none"/>
    <path d="M109.65 43.15 L110.15 40.9 116.75 42.4 116.2 44.65 109.65 43.15" fill="#959595" fill-rule="evenodd" stroke="none"/>
    <path d="M99.55 39.2 L99.05 41.5 95.45 40.75 93.45 37.95 99.55 39.2" fill="#959595" fill-rule="evenodd" stroke="none"/>
    <path d="M157.4 87.6 L158.15 90.45 157.5 90.9 156.85 91.1 155.5 91.05 154.55 90.7 154.0 90.35 153.45 89.45 153.25 88.6 153.45 87.85 153.75 87.4 155.25 86.95 157.4 87.6" fill="#fee79a" fill-rule="evenodd" stroke="none"/>
    <path d="M169.6 60.4 L173.75 62.0 174.85 64.85 174.6 66.35 174.0 66.8 171.75 67.75 170.85 68.5 170.0 69.9 171.2 76.1 170.4 76.6 169.45 76.95 166.65 77.3 166.0 77.75 165.5 78.75 165.35 81.6 165.25 82.0 164.85 82.45 163.7 83.0 162.95 83.25 161.0 83.45 160.2 83.8 159.15 85.0 158.5 85.3 157.8 85.35 157.4 85.25 156.75 84.95 156.35 84.5 156.0 83.65 155.75 80.65 156.6 79.1 157.35 78.35 157.95 77.9 159.6 77.2 160.3 77.0 160.45 76.3 160.1 75.25 159.9 73.4 160.0 72.9 160.5 72.05 161.05 71.55 162.7 71.2 163.75 71.15 164.4 70.55 165.0 68.05 165.9 66.65 166.0 63.75 166.25 62.5 167.0 61.6 168.15 60.8 169.6 60.4" fill="#fee79a" fill-rule="evenodd" stroke="none"/>
    <path d="M192.25 129.35 L202.3 136.0 203.95 141.7 203.55 143.4 202.25 145.15 200.2 146.1 198.3 146.35 196.55 146.2 194.9 145.7 193.45 144.45 192.7 143.3 192.4 142.35 192.0 139.75 191.35 138.0 190.2 137.35 189.05 137.1 187.75 136.6 187.25 135.75 186.9 133.25 186.95 132.05 187.55 130.15 188.5 129.5 192.25 129.35" fill="#fee79a" fill-rule="evenodd" stroke="none"/>
    <path d="M206.35 121.85 L205.95 120.55 205.85 119.35 205.95 118.4 208.0 116.0 209.3 115.85 213.3 118.85 213.9 122.25 219.4 123.85 221.4 126.5 221.6 130.1 220.45 131.1 219.25 131.65 218.0 132.0 216.25 131.95 214.7 131.25 211.3 128.25 206.35 121.85" fill="#fee79a" fill-rule="evenodd" stroke="none"/>
    <path d="M148.75 33.75 L151.25 35.3 151.9 39.9 150.8 41.45 150.0 42.2 149.6 42.9 149.5 43.5 149.55 46.5 149.25 47.65 148.45 48.55 145.0 50.0 144.4 49.95 143.75 49.55 141.8 46.05 139.75 44.0 139.45 42.55 139.5 41.65 139.85 40.65 140.2 40.3 142.05 39.3 142.55 38.55 142.65 37.25 142.0 35.25 142.0 34.35 142.1 34.1 144.8 32.3 148.75 33.75" fill="#fee79a" fill-rule="evenodd" stroke="none"/>
    <path d="M168.65 49.65 L169.6 49.75 170.2 50.0 171.65 51.7 172.2 52.85 172.5 53.95 172.5 55.9 172.35 56.7 171.95 57.35 171.25 58.05 169.7 59.15 168.1 59.45 166.55 59.3 166.0 59.1 165.3 59.4 164.75 60.0 164.5 60.7 164.5 61.4 164.05 62.9 163.55 63.4 162.35 63.7 159.7 63.1 157.25 62.1 156.45 61.4 155.15 59.65 155.1 57.95 155.4 56.6 155.8 56.0 157.25 55.1 158.3 55.1 161.4 56.0 162.05 55.95 162.8 55.65 163.25 55.25 163.45 54.75 162.5 52.55 162.45 52.0 162.7 51.5 163.35 50.95 168.65 49.65" fill="#fee79a" fill-rule="evenodd" stroke="none"/>
    <path d="M168.65 49.65 L169.6 49.75 170.2 50.0 171.65 51.7 172.2 52.85 172.5 53.95 172.5 55.9 172.35 56.7 171.95 57.35 171.25 58.05 171.55 53.35 169.0 50.8 168.0 50.6 162.7 51.5 163.35 50.95 168.65 49.65" fill="#ecaf5f" fill-rule="evenodd" stroke="none"/>
    <path d="M158.15 90.45 L157.0 87.7 155.4 87.15 153.75 87.4 154.5 87.0 155.55 86.8 157.15 87.2 157.7 87.5 158.25 88.75 158.45 89.7 158.15 90.45" fill="#ecaf5f" fill-rule="evenodd" stroke="none"/>
    <path d="M161.4 56.0 L162.05 55.95 161.45 56.15 159.95 56.35 158.1 55.75 156.05 56.1 155.4 56.6 155.8 56.0 157.25 55.1 158.3 55.1 161.4 56.0" fill="#ecaf5f" fill-rule="evenodd" stroke="none"/>
    <path d="M162.7 71.2 L163.75 71.15 164.4 70.55 163.75 71.5 162.5 71.9 160.5 72.05 161.05 71.55 162.7 71.2" fill="#ecaf5f" fill-rule="evenodd" stroke="none"/>
    <path d="M151.6 35.05 L152.15 36.35 152.3 37.7 152.25 39.0 151.9 39.9 150.65 35.7 148.4 33.9 144.75 32.7 142.1 34.1 143.95 32.4 145.05 31.85 146.0 31.75 148.1 32.4 149.8 33.3 150.7 34.0 151.6 35.05" fill="#ecaf5f" fill-rule="evenodd" stroke="none"/>
    <path d="M173.55 60.9 L174.45 61.75 174.8 62.3 175.05 63.2 175.25 64.55 175.05 65.5 174.6 66.35 174.0 66.8 174.6 65.45 173.5 62.85 171.5 61.45 168.55 60.85 167.0 61.6 167.9 60.75 169.3 60.3 171.0 60.25 173.55 60.9" fill="#ecaf5f" fill-rule="evenodd" stroke="none"/>
    <path d="M216.85 122.5 L218.75 122.95 219.65 123.4 221.55 125.3 222.15 127.2 222.2 128.6 221.6 130.1 220.75 126.35 219.55 124.7 217.55 124.35 214.4 123.45 213.2 122.45 212.65 119.85 210.5 117.0 208.3 116.35 205.95 118.4 207.65 115.85 208.55 115.35 209.9 115.3 212.3 116.05 213.7 117.0 215.0 118.6 214.8 121.4 215.15 122.25 215.6 122.55 216.85 122.5" fill="#ecaf5f" fill-rule="evenodd" stroke="none"/>
    <path d="M162.35 63.7 L164.0 62.1 164.5 60.7 164.5 61.4 164.05 62.9 163.55 63.4 162.35 63.7" fill="#ecaf5f" fill-rule="evenodd" stroke="none"/>
    <path d="M170.5 69.1 L170.6 70.4 171.8 73.9 171.8 74.6 171.45 75.75 171.2 76.1 170.2 74.45 169.55 72.7 169.55 71.25 169.85 69.7 170.85 68.5 170.5 69.1" fill="#ecaf5f" fill-rule="evenodd" stroke="none"/>
    <path d="M196.3 132.35 L191.5 129.85 188.5 129.5 190.1 129.05 191.65 128.85 193.65 128.95 196.1 129.75 197.85 130.75 200.2 132.8 203.3 136.95 204.1 139.9 203.95 141.7 203.55 143.4 203.15 140.2 201.8 137.35 196.3 132.35" fill="#ecaf5f" fill-rule="evenodd" stroke="none"/>
    <path d="M201.1 114.25 L202.7 114.8 203.6 115.5 204.5 117.1 204.0 120.0 204.0 120.55 204.4 122.1 207.35 127.0 213.65 133.1 218.6 135.3 219.5 136.5 220.35 139.5 220.45 142.45 219.65 145.15 217.25 148.7 214.7 151.0 211.55 152.55 207.85 153.3 206.75 153.0 205.0 151.9 203.95 150.65 203.2 149.0 202.95 147.55 203.05 146.05 203.8 144.25 204.85 142.55 205.25 140.85 205.2 138.95 203.7 134.8 201.5 131.9 198.55 129.25 196.65 128.1 194.4 127.4 192.65 127.35 188.35 127.95 187.7 127.75 187.35 126.9 186.95 124.3 187.3 120.9 188.4 118.45 189.9 116.7 191.9 115.2 193.85 114.35 196.2 113.9 198.6 113.85 201.1 114.25" fill="#bdc753" fill-rule="evenodd" stroke="none"/>
    <path d="M169.05 23.8 L169.65 22.8 171.15 22.3 172.45 23.05 171.0 21.0 169.15 17.0 171.8 18.7 174.9 22.05 178.65 29.85 189.0 46.1 191.1 50.25 201.5 66.05 202.05 67.1 217.3 88.1 228.9 102.75 236.2 112.75 246.0 129.15 248.65 130.5 249.8 133.85 249.7 137.65 249.4 139.7 247.85 144.25 244.55 148.2 240.5 151.1 233.3 155.3 224.2 162.0 224.15 162.0 216.5 166.35 214.45 165.65 223.0 160.95 226.05 158.85 224.0 157.8 223.25 155.15 223.8 153.45 225.8 152.8 227.2 153.7 227.9 155.3 230.5 154.85 232.2 153.6 239.45 149.4 244.55 145.6 246.4 143.45 247.5 141.25 248.0 139.35 248.2 137.65 248.25 134.0 247.85 132.2 246.55 132.8 241.3 124.45 240.25 127.4 239.2 127.6 237.2 125.95 237.05 124.7 238.15 123.3 239.65 122.95 234.5 113.85 205.8 75.75 190.75 53.25 174.4 26.15 173.65 27.5 171.65 27.35 170.15 26.4 169.05 23.8" fill="#454f3c" fill-rule="evenodd" stroke="none"/>
    <path d="M181.85 40.8 L183.7 42.35 184.35 43.95 184.05 45.5 182.75 46.5 179.8 44.7 180.0 43.0 179.65 42.0 180.15 41.8 180.4 41.25 181.85 40.8" fill="#454f3c" fill-rule="evenodd" stroke="none"/>
    <path d="M204.25 153.25 L205.6 153.95 205.65 155.25 205.3 156.8 202.95 157.35 198.8 153.65 199.35 153.7 200.5 152.6 201.6 152.7 202.45 153.4 204.25 153.25" fill="#454f3c" fill-rule="evenodd" stroke="none"/>
    <path d="M213.0 161.45 L212.95 162.85 211.8 164.3 208.25 162.0 209.1 161.15 209.75 160.3 211.55 160.15 213.0 161.45" fill="#454f3c" fill-rule="evenodd" stroke="none"/>
    <path d="M225.75 144.7 L222.3 143.6 221.75 141.8 222.55 140.15 224.6 139.4 224.65 137.8 227.3 136.6 228.85 137.0 230.1 139.7 228.3 142.6 226.3 142.45 225.75 144.7" fill="#454f3c" fill-rule="evenodd" stroke="none"/>
    <path d="M168.2 86.1 L169.3 83.45 171.3 82.8 174.25 83.0 175.55 84.35 180.2 84.15 185.85 87.25 185.9 88.75 183.85 90.0 185.95 92.4 185.2 94.25 182.1 95.8 180.85 93.45 181.65 91.45 180.0 91.15 177.85 96.15 175.1 96.6 171.4 94.25 168.1 89.35 168.2 86.1" fill="#454f3c" fill-rule="evenodd" stroke="none"/>
    <path d="M206.25 100.6 L209.25 103.7 209.8 105.95 211.3 106.45 212.8 106.7 213.15 107.75 214.65 108.35 215.65 108.2 216.75 108.95 217.25 110.0 217.6 111.05 218.3 111.5 221.8 116.0 221.0 117.45 222.65 118.2 222.5 119.45 221.35 120.05 220.25 121.25 218.65 121.85 216.75 121.0 215.75 119.1 216.8 117.75 215.5 116.75 213.3 115.75 211.75 114.6 210.8 112.95 208.2 112.45 204.5 110.5 202.8 107.35 202.5 105.7 201.4 105.2 199.3 105.35 197.3 103.45 199.5 100.25 200.75 100.45 202.4 101.45 204.65 100.0 206.25 100.6" fill="#454f3c" fill-rule="evenodd" stroke="none"/>
    <path d="M195.9 88.25 L197.05 88.0 198.9 89.7 201.3 90.85 201.25 92.45 200.2 93.9 199.85 95.75 198.8 96.45 199.35 98.85 198.4 100.45 196.25 100.45 195.3 99.5 193.75 98.9 191.0 99.0 188.4 96.35 187.0 92.15 187.5 89.9 188.9 89.0 191.15 89.5 193.05 88.35 195.9 88.25" fill="#454f3c" fill-rule="evenodd" stroke="none"/>
    <path d="M175.5 68.85 L177.15 68.5 178.5 69.6 178.8 71.2 178.55 73.35 179.5 75.5 178.75 77.0 178.55 78.9 176.0 78.45 174.65 77.7 173.85 76.25 174.3 74.25 176.0 73.0 175.0 72.1 174.4 69.85 175.5 68.85" fill="#454f3c" fill-rule="evenodd" stroke="none"/>
    <path d="M84.05 28.0 L83.0 22.7 83.55 21.45 85.9 21.7 87.3 25.6 90.4 26.25 91.2 28.45 89.4 30.25 86.75 28.7 85.75 29.35 84.15 28.1 84.05 28.0" fill="#454f3c" fill-rule="evenodd" stroke="none"/>
    <path d="M130.2 34.0 L132.1 33.8 133.2 35.0 130.85 36.35 130.65 36.9 129.4 38.0 128.2 37.35 128.3 35.7 127.4 34.0 128.65 32.6 130.2 34.0" fill="#454f3c" fill-rule="evenodd" stroke="none"/>
    <path d="M100.75 0.9 L102.2 1.9 102.4 4.25 101.0 5.6 98.2 4.45 98.4 2.8 100.75 0.9" fill="#454f3c" fill-rule="evenodd" stroke="none"/>
    <path d="M113.0 1.35 L114.3 2.0 115.15 4.45 113.3 6.35 110.8 4.45 108.9 5.85 105.75 5.35 105.3 4.6 106.1 1.7 107.0 0.95 109.2 0.25 111.3 1.95 113.0 1.35" fill="#454f3c" fill-rule="evenodd" stroke="none"/>
    <path d="M117.9 0.25 L120.15 0.0 121.65 1.2 121.75 2.85 121.0 4.95 119.3 5.95 118.5 4.95 117.55 5.45 116.05 5.1 116.55 2.45 117.9 0.25" fill="#454f3c" fill-rule="evenodd" stroke="none"/>
    <path d="M147.1 4.45 L146.55 6.6 144.4 7.8 141.85 4.35 142.3 2.35 142.65 2.15 147.1 4.45" fill="#454f3c" fill-rule="evenodd" stroke="none"/>
    <path d="M149.2 14.6 L151.0 16.8 151.1 20.6 148.0 24.8 143.75 24.9 143.55 23.3 143.1 21.8 142.55 21.75 142.05 20.3 142.75 18.8 143.75 18.65 144.1 16.0 144.75 14.0 144.55 10.7 145.1 9.15 147.1 8.8 149.2 10.9 149.2 14.6" fill="#454f3c" fill-rule="evenodd" stroke="none"/>
    <path d="M108.75 58.25 L109.65 56.75 111.5 57.6 110.75 59.35 109.4 59.6 108.75 58.25" fill="#454f3c" fill-rule="evenodd" stroke="none"/>
    <path d="M117.55 67.8 L116.25 68.2 114.75 67.4 114.4 66.9 114.55 64.95 116.65 64.65 117.35 64.15 118.9 64.1 120.15 65.0 119.85 66.25 118.05 66.65 117.55 67.8" fill="#454f3c" fill-rule="evenodd" stroke="none"/>
    <path d="M168.0 20.75 L168.3 21.4 167.25 22.25 166.6 21.7 166.4 21.0 166.85 20.7 168.0 20.75" fill="#454f3c" fill-rule="evenodd" stroke="none"/>
    <path d="M189.9 56.95 L188.5 57.35 187.75 56.25 188.25 55.0 189.55 54.6 190.4 55.5 190.3 56.2 189.9 56.95" fill="#454f3c" fill-rule="evenodd" stroke="none"/>
    <path d="M243.7 135.25 L243.7 133.8 244.25 132.95 245.85 132.85 247.1 133.4 247.8 135.1 247.0 137.1 244.85 136.8 243.7 135.25" fill="#454f3c" fill-rule="evenodd" stroke="none"/>
    <path d="M244.35 141.0 L244.3 142.3 240.6 144.4 239.2 143.75 238.65 145.5 236.4 146.25 234.3 144.9 234.5 143.1 235.2 141.3 236.2 140.65 237.15 141.0 238.4 139.9 241.2 138.7 242.55 139.2 242.6 140.2 244.35 141.0" fill="#454f3c" fill-rule="evenodd" stroke="none"/>
  </g>
</svg>
