<?xml version="1.0" encoding="UTF-8" standalone="no"?>
<svg xmlns:ffdec="https://www.free-decompiler.com/flash" xmlns:xlink="http://www.w3.org/1999/xlink" ffdec:objectType="shape" height="65.35px" width="156.35px" xmlns="http://www.w3.org/2000/svg">
  <g transform="matrix(1.0, 0.0, 0.0, 1.0, -38.8, -138.35)">
    <path d="M93.0 138.5 L98.95 138.9 107.85 141.15 115.35 143.75 119.8 144.7 135.7 144.05 153.75 142.2 182.2 141.35 185.8 142.3 191.1 145.95 192.8 147.7 194.1 149.8 195.15 152.6 195.1 155.15 193.05 165.65 187.85 174.25 184.75 178.35 181.75 180.8 180.25 181.45 168.35 185.1 161.65 185.85 153.15 185.85 147.85 186.3 141.6 187.45 139.2 188.55 130.8 194.4 119.75 198.9 119.05 202.3 114.6 203.7 111.25 202.55 110.7 201.05 100.0 201.65 92.65 200.7 87.55 199.2 68.05 188.75 58.05 184.1 46.5 178.1 43.05 175.4 40.8 172.0 39.15 166.8 38.8 162.7 39.6 154.75 41.1 151.05 45.2 145.3 48.4 142.6 51.7 140.65 55.4 139.05 60.6 138.35 93.0 138.5" fill="#353e35" fill-rule="evenodd" stroke="none"/>
    <path d="M93.0 140.0 L98.65 140.35 107.3 142.5 115.0 145.2 119.65 146.2 135.8 145.5 153.8 143.7 182.05 142.85 185.2 143.7 190.05 147.0 191.55 148.5 192.7 150.35 193.65 152.85 193.6 154.95 191.65 165.0 186.65 173.35 183.8 177.2 182.0 178.65 171.5 182.0 165.15 183.5 145.3 184.2 138.65 185.85 130.2 192.0 116.3 197.6 100.75 199.45 83.8 195.35 43.6 173.55 42.15 171.35 40.65 166.7 40.3 162.7 41.0 155.3 42.35 151.9 46.15 146.4 49.0 144.0 52.3 142.0 55.8 140.5 60.65 139.85 93.0 140.0" fill="#5e7c33" fill-rule="evenodd" stroke="none"/>
    <path d="M46.15 146.4 L49.0 144.0 49.2 143.9 50.3 145.2 53.0 146.25 59.4 150.35 60.4 151.7 61.3 154.2 60.8 156.2 57.15 161.85 55.3 162.7 53.3 162.85 45.0 156.0 44.5 153.35 42.7 151.35 46.15 146.4" fill="#8ba948" fill-rule="evenodd" stroke="none"/>
    <path d="M88.65 156.7 L94.8 154.7 98.65 154.7 105.55 155.95 110.1 155.6 115.75 153.45 117.65 153.15 124.55 154.45 136.1 154.25 149.8 156.0 163.65 159.35 165.3 160.0 166.3 161.25 166.85 163.45 166.3 165.8 164.4 167.45 163.0 168.35 157.85 169.7 136.8 171.2 134.8 171.5 131.15 170.5 116.0 175.0 106.5 174.35 93.3 174.45 91.0 176.0 74.5 180.0 69.15 175.85 72.5 168.85 69.8 158.0 75.3 155.5 86.15 155.85 88.65 156.7" fill="#8ba948" fill-rule="evenodd" stroke="none"/>
    <path d="M178.5 157.7 L175.15 152.0 175.5 151.2 176.05 150.7 187.25 148.2 188.55 148.35 189.75 149.35 191.25 152.45 191.4 153.5 191.05 154.95 190.25 156.1 183.8 160.85 Q182.45 161.7 181.05 162.5 L179.55 162.35 179.0 161.45 178.5 157.7" fill="#8ba948" fill-rule="evenodd" stroke="none"/>
    <path d="M175.8 169.35 L175.7 169.5 179.15 168.4 177.8 167.6 175.9 165.55 175.8 169.35 M133.95 180.0 L134.0 180.0 140.95 176.6 150.85 174.65 160.25 174.45 168.75 173.45 171.8 171.85 172.3 170.9 172.2 170.65 172.45 170.6 173.5 168.7 173.6 164.75 172.0 158.9 163.1 147.0 161.3 143.45 163.9 143.4 165.05 145.75 174.15 157.85 175.0 161.1 179.25 165.8 182.75 167.85 186.05 167.55 191.15 165.75 189.25 168.9 186.55 169.85 180.7 170.35 174.05 172.5 173.5 173.55 169.45 175.7 160.35 176.8 151.1 176.95 141.7 178.8 135.1 182.05 120.55 190.85 114.4 193.7 101.05 195.3 90.0 193.25 67.1 185.2 56.85 179.3 47.4 169.1 40.5 164.7 40.3 162.7 40.35 161.85 48.9 167.3 58.3 177.45 68.05 183.05 90.65 191.0 101.1 192.95 113.75 191.45 119.4 188.75 133.95 180.0" fill="#959595" fill-rule="evenodd" stroke="none"/>
    <path d="M182.05 142.85 L185.2 143.7 190.05 147.0 191.55 148.5 192.7 150.35 192.8 150.6 191.75 149.35 189.85 148.15 188.85 146.8 187.1 146.0 185.1 146.0 178.2 147.7 174.0 149.6 171.55 150.15 168.4 148.8 167.2 146.8 166.75 145.15 167.5 143.3 182.05 142.85" fill="#90865c" fill-rule="evenodd" stroke="none"/>
    <path d="M95.05 185.7 L94.75 184.5 95.0 183.5 95.75 182.6 99.55 181.35 100.75 180.1 101.55 178.6 102.75 177.45 104.55 177.5 106.05 178.25 106.8 179.45 108.55 183.5 110.4 184.45 112.15 184.7 116.55 183.45 118.8 182.2 120.65 180.1 121.4 177.45 122.55 175.75 124.0 174.7 128.65 172.75 131.0 172.7 135.75 173.6 137.65 172.95 139.9 175.6 134.75 177.75 131.8 179.6 126.05 184.25 122.75 185.95 115.5 188.5 108.05 190.5 103.65 190.45 99.4 189.1 96.5 187.1 95.05 185.7" fill="#90865c" fill-rule="evenodd" stroke="none"/>
    <path d="M68.8 178.5 L73.0 178.1 76.55 182.25 78.0 183.0 80.55 183.45 84.65 183.0 86.5 183.1 87.75 183.6 90.0 185.45 90.5 186.75 90.15 187.95 89.05 188.75 87.8 189.1 84.65 188.1 81.55 186.45 68.75 182.45 67.9 180.85 68.05 179.6 68.8 178.5" fill="#90865c" fill-rule="evenodd" stroke="none"/>
    <path d="M44.8 157.35 L47.0 158.85 52.15 164.0 53.15 166.5 52.0 168.0 50.15 167.0 45.0 162.5 40.7 157.7 41.0 155.3 41.65 153.65 43.5 156.2 44.8 157.35" fill="#90865c" fill-rule="evenodd" stroke="none"/>
    <path d="M77.45 173.0 L79.85 171.85 86.75 171.4 88.4 175.5 88.2 178.25 87.45 179.45 86.25 180.4 84.9 181.15 83.85 181.4 82.8 181.5 79.25 181.15 78.25 180.85 77.2 180.3 76.1 179.4 75.65 178.65 75.4 177.95 75.25 176.95 75.65 175.4 76.6 173.9 77.45 173.0" fill="#fee79a" fill-rule="evenodd" stroke="none"/>
    <path d="M75.15 153.95 L75.65 153.15 78.0 152.5 81.4 153.4 84.15 155.6 87.1 160.45 87.55 163.5 86.5 164.5 85.25 164.8 83.0 164.6 82.25 164.4 80.75 163.75 79.7 163.0 77.75 160.95 76.3 158.8 75.65 158.15 74.9 156.7 74.75 155.55 75.15 153.95" fill="#fee79a" fill-rule="evenodd" stroke="none"/>
    <path d="M125.3 147.7 L127.75 149.2 128.1 152.05 127.65 152.65 126.95 153.15 125.6 153.8 124.4 153.8 118.15 152.65 117.6 152.3 117.15 151.65 116.8 150.5 116.8 149.2 116.95 148.05 117.5 147.45 118.05 147.15 120.55 146.85 125.3 147.7" fill="#fee79a" fill-rule="evenodd" stroke="none"/>
    <path d="M127.65 148.45 L128.3 149.4 128.5 150.75 128.1 152.05 126.75 149.25 124.65 147.8 120.0 147.15 117.5 147.45 118.05 147.15 119.65 146.75 124.85 146.9 126.7 147.55 127.65 148.45" fill="#ecaf5f" fill-rule="evenodd" stroke="none"/>
    <path d="M86.6 158.0 L87.25 159.8 87.7 162.0 87.55 163.5 86.75 160.25 83.55 157.25 82.0 154.7 80.55 153.7 78.25 153.1 75.65 153.15 76.65 152.4 78.1 152.25 79.65 152.3 81.0 152.6 82.25 153.2 83.55 154.1 85.0 155.4 86.6 158.0" fill="#ecaf5f" fill-rule="evenodd" stroke="none"/>
    <path d="M78.45 172.15 L82.25 170.75 84.35 170.3 85.95 170.55 87.3 171.1 88.0 171.95 88.35 172.8 88.65 174.15 88.65 176.8 88.2 178.25 88.15 175.7 87.4 173.75 85.05 172.35 81.5 172.1 77.45 173.0 78.45 172.15" fill="#ecaf5f" fill-rule="evenodd" stroke="none"/>
    <path d="M74.1 157.75 L76.85 161.15 78.65 164.5 78.65 167.45 77.9 170.65 76.7 172.75 74.95 174.7 71.6 176.75 68.75 177.6 66.6 177.5 63.55 176.2 59.8 172.95 58.65 171.2 57.65 167.8 57.55 163.35 58.25 161.3 59.8 159.15 60.9 158.1 62.5 157.2 68.45 155.55 69.95 155.65 72.1 156.35 74.1 157.75" fill="#bdc753" fill-rule="evenodd" stroke="none"/>
    <path d="M138.1 185.15 L140.55 184.05 147.45 182.8 167.5 182.25 183.35 177.55 181.0 179.5 179.8 180.0 168.05 183.6 165.9 184.0 153.1 184.35 147.65 184.8 141.15 186.0 138.4 187.25 130.2 193.0 118.4 197.8 117.75 201.15 114.65 202.15 112.4 201.35 111.75 199.45 106.55 199.9 100.1 200.15 93.1 199.25 88.25 197.85 82.0 194.7 74.5 190.25 47.4 176.95 44.15 174.35 42.15 171.35 40.8 167.15 41.15 166.75 42.4 166.25 45.0 167.2 46.3 168.95 45.55 170.25 45.65 172.25 44.05 172.85 59.8 181.15 74.75 188.45 83.55 193.35 85.35 191.95 88.65 192.5 90.3 193.75 89.95 195.55 89.05 196.35 93.25 197.45 111.1 197.7 112.65 196.1 113.65 196.1 115.1 196.65 117.05 195.85 118.2 196.15 129.85 191.15 138.1 185.15" fill="#454f3c" fill-rule="evenodd" stroke="none"/>
    <path d="M113.5 185.0 L114.9 185.1 116.4 185.85 116.9 188.2 115.15 190.45 113.75 190.15 111.15 192.0 108.05 190.6 109.0 187.45 110.9 186.85 113.5 185.0" fill="#454f3c" fill-rule="evenodd" stroke="none"/>
    <path d="M95.8 183.95 L96.5 182.5 98.4 182.95 100.25 184.2 102.9 184.1 103.55 186.95 101.9 189.0 98.65 187.1 95.9 186.45 95.8 183.95" fill="#454f3c" fill-rule="evenodd" stroke="none"/>
    <path d="M122.85 180.9 L122.05 178.45 122.85 176.3 125.65 176.2 126.35 174.35 127.75 174.25 128.9 172.9 130.4 173.6 130.35 174.65 130.75 175.8 130.5 178.1 129.15 179.1 127.3 178.8 127.35 181.25 126.25 181.9 122.85 180.9" fill="#454f3c" fill-rule="evenodd" stroke="none"/>
    <path d="M140.65 176.3 L138.7 176.15 137.15 174.3 137.4 172.85 139.0 171.45 141.6 171.2 142.3 172.75 142.25 175.1 140.65 176.3" fill="#454f3c" fill-rule="evenodd" stroke="none"/>
    <path d="M171.1 171.8 L169.2 171.7 168.1 170.25 168.65 167.25 170.65 167.4 172.4 168.8 172.4 170.45 171.1 171.8" fill="#454f3c" fill-rule="evenodd" stroke="none"/>
    <path d="M173.1 145.7 L170.85 145.7 170.35 143.2 176.6 143.0 176.65 143.45 174.3 144.35 173.1 145.7" fill="#454f3c" fill-rule="evenodd" stroke="none"/>
    <path d="M188.65 169.95 L188.85 169.25 189.1 169.2 188.65 169.95" fill="#454f3c" fill-rule="evenodd" stroke="none"/>
    <path d="M154.65 182.15 L153.2 181.7 152.75 180.0 153.4 177.9 155.55 177.25 156.95 177.35 156.85 178.35 157.85 179.0 158.4 177.6 159.75 177.25 161.3 178.8 161.75 180.45 160.65 182.15 159.3 182.0 157.65 180.6 156.3 182.0 154.65 182.15" fill="#454f3c" fill-rule="evenodd" stroke="none"/>
    <path d="M141.0 181.35 L141.3 180.45 143.65 179.45 145.05 181.45 144.25 182.85 142.4 183.25 141.0 181.35" fill="#454f3c" fill-rule="evenodd" stroke="none"/>
    <path d="M123.05 182.95 L124.05 183.6 124.4 184.2 123.7 184.8 122.7 184.35 122.6 183.2 123.05 182.95" fill="#454f3c" fill-rule="evenodd" stroke="none"/>
    <path d="M103.3 183.6 L101.4 181.35 102.15 180.5 102.25 178.95 104.4 178.6 106.25 179.85 106.05 181.85 103.3 183.6" fill="#454f3c" fill-rule="evenodd" stroke="none"/>
    <path d="M80.9 185.25 L82.0 183.85 85.4 183.2 86.65 184.5 87.0 185.6 86.9 186.45 87.4 187.6 85.9 188.5 81.65 187.45 80.9 185.25" fill="#454f3c" fill-rule="evenodd" stroke="none"/>
    <path d="M72.3 181.7 L70.65 179.9 71.65 177.0 74.3 176.35 75.85 177.6 75.65 179.0 77.2 179.25 78.4 180.45 78.3 182.8 75.65 184.45 73.85 183.0 74.3 181.35 72.3 181.7" fill="#454f3c" fill-rule="evenodd" stroke="none"/>
    <path d="M47.0 158.2 L48.4 159.2 51.75 162.85 51.15 163.85 51.55 164.85 50.25 166.6 49.0 166.6 46.4 165.45 43.75 162.35 43.55 160.95 45.0 160.95 45.25 159.0 47.0 158.2" fill="#454f3c" fill-rule="evenodd" stroke="none"/>
  </g>
</svg>
