<?xml version="1.0" encoding="UTF-8" standalone="no"?>
<svg xmlns:ffdec="https://www.free-decompiler.com/flash" xmlns:xlink="http://www.w3.org/1999/xlink" ffdec:objectType="shape" height="163.45px" width="214.15px" xmlns="http://www.w3.org/2000/svg">
  <g transform="matrix(1.0, 0.0, 0.0, 1.0, 150.6, -5.85)">
    <path d="M-136.65 6.4 L-132.95 5.85 -128.4 6.05 -123.65 6.95 -119.25 8.75 -112.95 12.4 -104.1 18.25 -96.75 22.0 -87.65 25.7 -76.45 29.2 -69.0 32.0 -62.15 35.35 -54.4 40.1 -17.75 64.5 5.35 82.6 37.15 113.45 60.95 143.65 62.6 146.3 63.35 148.35 63.55 152.45 62.65 156.1 58.45 162.45 56.5 164.6 54.05 166.2 48.85 168.1 43.35 169.3 36.8 169.1 28.95 166.85 19.5 162.8 -1.6 151.9 -25.05 138.35 -37.35 132.4 -74.8 110.7 -84.35 105.85 -99.05 99.75 -111.0 95.7 -118.95 91.85 -124.05 88.6 -127.35 85.5 -130.65 81.45 -133.6 76.25 -138.25 64.95 -145.6 43.85 -148.5 33.5 -150.6 21.9 -150.3 18.4 -149.25 15.15 -147.15 12.45 -145.5 10.85 -141.85 8.0 -136.65 6.4" fill="#353e35" fill-rule="evenodd" stroke="none"/>
    <path d="M-120.0 10.0 L-104.85 19.5 -97.35 23.35 -88.15 27.1 -76.9 30.6 -69.65 33.35 -62.9 36.6 -55.15 41.35 -18.7 65.7 4.3 83.7 36.0 114.35 59.7 144.45 61.2 146.8 61.85 148.65 62.05 152.3 61.25 155.5 57.35 161.45 55.65 163.35 53.55 164.8 48.55 166.65 43.2 167.8 37.2 167.65 29.55 165.45 26.4 164.15 -21.0 138.1 -41.0 126.2 -83.75 104.45 -98.5 98.35 -110.35 94.35 -118.15 90.6 -123.0 87.5 -126.2 84.5 -129.35 80.7 -132.2 75.7 -136.85 64.35 -144.2 43.35 -147.0 33.2 -149.1 21.85 -148.85 18.85 -147.9 15.9 -146.1 13.5 -144.6 12.0 -141.15 9.4 -136.4 7.9 -132.85 7.35 -128.7 7.5 -124.2 8.35 -120.0 10.0" fill="#5e7c33" fill-rule="evenodd" stroke="none"/>
    <path d="M31.85 124.8 L39.8 127.2 45.0 130.5 47.5 134.0 48.8 138.35 49.15 143.85 50.3 145.2 53.0 146.25 59.4 150.35 60.4 151.7 61.3 154.2 60.8 156.15 57.35 161.45 56.9 161.95 55.3 162.7 53.3 162.85 45.0 156.0 44.5 153.35 41.8 150.35 21.65 141.85 9.0 137.85 2.85 134.15 1.3 132.35 2.0 130.7 4.5 128.2 7.15 124.85 10.55 116.35 11.45 115.3 12.75 114.95 14.85 115.6 31.85 124.8" fill="#8ba948" fill-rule="evenodd" stroke="none"/>
    <path d="M-110.15 83.15 L-109.7 76.9 -106.45 72.6 -94.45 66.35 -92.8 70.15 -85.35 78.6 -73.35 87.35 -68.6 90.0 -64.25 90.25 -60.7 91.25 -55.0 95.0 -37.7 109.35 -32.6 111.25 -27.6 114.25 -17.9 122.25 -16.25 125.45 -16.35 128.35 -18.0 131.2 -25.0 129.2 -59.35 108.35 -108.6 88.25 -110.15 83.15" fill="#8ba948" fill-rule="evenodd" stroke="none"/>
    <path d="M-109.7 20.35 L-112.2 15.7 -112.35 14.6 -104.85 19.5 -97.35 23.35 -88.15 27.1 -76.9 30.6 -69.65 33.35 -62.9 36.6 -55.15 41.35 -18.7 65.7 4.3 83.7 24.4 103.15 0.65 83.25 -5.5 79.7 -19.35 78.2 -22.2 77.0 -24.85 74.7 -34.2 62.85 -41.85 54.85 -47.0 51.35 -51.85 49.35 -66.5 46.2 -69.85 44.35 -71.85 42.0 -73.5 39.35 -76.0 37.2 -78.5 36.7 -82.2 34.7 -84.5 32.7 -86.5 31.7 -93.2 30.35 -95.5 29.35 -98.5 26.85 -101.85 26.35 -103.7 25.5 -109.7 20.35" fill="#8ba948" fill-rule="evenodd" stroke="none"/>
    <path d="M-142.45 48.3 L-145.6 38.25 -128.95 66.95 -123.75 74.4 -115.0 82.35 -103.35 89.05 -81.35 97.45 -81.3 97.45 -61.85 106.3 -47.1 113.85 -23.35 128.15 -2.6 135.45 -2.55 135.45 6.7 139.5 31.95 156.55 48.05 166.75 44.8 167.45 30.65 158.5 5.6 141.55 -3.45 137.6 -24.35 130.25 -48.25 115.9 -62.85 108.4 -82.25 99.6 -104.35 91.15 -116.4 84.25 -124.15 77.2 -128.85 81.3 -129.35 80.7 -129.95 79.65 -125.6 75.8 -130.9 68.15 -142.45 48.3" fill="#959595" fill-rule="evenodd" stroke="none"/>
    <path d="M-134.1 71.05 L-131.5 76.0 -131.05 77.7 -132.2 75.7 -134.1 71.05" fill="#959595" fill-rule="evenodd" stroke="none"/>
    <path d="M44.8 157.35 L47.0 158.85 52.15 164.0 52.6 165.15 49.35 166.35 45.0 162.5 38.0 154.85 36.15 154.85 29.5 152.2 26.65 149.7 23.8 148.5 23.5 147.0 24.65 146.0 29.5 146.2 38.65 150.85 41.3 153.2 43.5 156.2 44.8 157.35" fill="#90865c" fill-rule="evenodd" stroke="none"/>
    <path d="M25.75 106.25 L28.45 107.1 32.3 110.8 32.05 111.75 31.15 113.0 29.5 114.1 27.5 114.75 25.15 113.85 20.65 111.0 18.9 110.7 15.65 110.6 11.4 113.35 9.85 115.0 8.65 115.6 7.55 115.35 6.75 114.4 5.65 110.75 3.8 110.35 2.65 108.0 2.65 107.25 3.4 105.95 4.25 105.0 5.75 104.85 8.15 105.2 9.15 104.85 9.8 103.7 9.65 99.85 10.65 97.75 12.0 96.95 14.3 96.85 17.5 98.0 18.9 99.95 23.25 104.95 25.75 106.25" fill="#90865c" fill-rule="evenodd" stroke="none"/>
    <path d="M-17.0 79.35 L-16.4 79.95 -16.45 80.45 -21.85 81.25 -32.2 85.6 -33.35 85.6 -34.7 83.35 -34.85 81.0 -34.5 79.2 -33.95 77.65 -33.2 76.35 -32.4 75.4 -30.9 75.25 -28.45 75.6 -23.25 77.25 -21.5 78.35 -19.35 79.1 -17.0 79.35" fill="#90865c" fill-rule="evenodd" stroke="none"/>
    <path d="M-31.25 104.8 L-26.7 108.7 -17.8 112.7 -18.0 115.9 -19.15 116.7 -20.35 116.9 -21.45 116.8 -24.8 114.9 -26.8 113.15 -37.45 107.9 -38.25 106.8 -40.9 104.9 -42.9 104.25 -43.45 103.0 -43.7 101.7 -43.25 100.9 -41.45 100.45 -39.0 101.6 -36.35 103.7 -33.7 104.0 -31.25 104.8" fill="#90865c" fill-rule="evenodd" stroke="none"/>
    <path d="M-87.35 57.25 L-82.25 60.8 -80.15 63.25 -78.25 63.9 -76.9 66.15 -76.0 68.45 -76.0 72.15 -73.7 78.15 -73.7 80.0 -74.6 81.45 -75.9 82.0 -77.6 82.0 -80.45 80.7 -83.8 78.25 -85.7 76.15 -87.25 73.8 -87.8 71.6 -87.35 68.15 -87.35 65.35 -87.55 64.3 -90.25 60.6 -90.25 58.9 -89.6 57.7 -87.35 57.25" fill="#90865c" fill-rule="evenodd" stroke="none"/>
    <path d="M-116.7 80.0 L-117.8 79.35 -118.35 77.8 -117.9 76.6 -116.25 75.35 -114.25 74.7 -111.6 74.6 -110.45 74.8 -109.8 75.9 -109.6 77.15 -110.45 80.45 -116.7 80.0" fill="#90865c" fill-rule="evenodd" stroke="none"/>
    <path d="M-128.1 42.45 L-127.6 42.95 -126.7 45.35 -127.5 49.95 -125.2 53.95 -123.2 55.35 -122.45 56.35 -122.0 57.5 -121.9 60.15 -123.7 63.1 -124.75 64.1 -125.95 64.45 -126.8 63.9 -127.75 62.45 -128.2 60.95 -128.45 58.1 -129.25 55.75 -130.0 54.2 -129.95 51.7 -129.75 50.35 -130.0 47.95 -130.75 46.45 -131.1 45.1 -130.9 43.8 -130.45 42.95 -129.95 42.45 -128.85 42.2 -128.1 42.45" fill="#90865c" fill-rule="evenodd" stroke="none"/>
    <path d="M-47.35 61.7 L-48.7 59.85 -49.35 58.7 -49.2 56.7 -47.35 55.5 -45.5 55.85 -43.0 57.0 -41.35 59.35 -40.7 61.0 -40.85 63.5 -41.5 65.35 -43.0 66.85 -45.35 68.5 -47.5 67.2 -47.85 65.0 -47.2 63.2 -47.35 61.7" fill="#90865c" fill-rule="evenodd" stroke="none"/>
    <path d="M-4.25 113.25 L-4.5 113.0 -5.0 113.05 -8.15 115.1 -8.7 115.65 -8.85 116.15 -9.3 118.9 -9.25 119.45 -8.9 119.8 -8.05 121.15 -7.8 121.4 -6.85 121.65 -5.65 121.4 -3.85 118.4 -3.7 117.25 -4.35 115.7 -4.05 114.95 -4.25 113.25 M-16.85 83.7 L-15.35 83.4 -11.5 84.95 -7.2 85.95 -6.25 84.7 -4.6 84.6 -2.75 85.5 -1.75 89.5 -1.45 92.45 -0.5 92.5 -0.2 93.85 -2.85 96.2 -3.5 97.85 -2.6 99.0 -3.1 103.25 3.5 118.7 3.15 120.6 0.55 123.1 0.15 125.7 -4.5 128.35 -6.45 126.7 -8.85 126.35 -10.25 125.2 -11.2 122.2 -13.5 119.35 -13.75 117.85 -14.85 117.1 -14.75 112.35 -16.0 109.45 -17.0 109.1 -20.55 110.85 -24.7 107.7 -28.2 104.45 -32.7 102.85 -33.75 99.6 -35.75 97.2 -37.95 95.4 -39.7 96.15 -43.45 91.8 -44.3 91.4 -45.5 92.2 -47.2 91.9 -47.65 90.55 -54.7 82.75 -57.4 81.85 -60.0 81.4 -61.65 80.6 -64.6 80.45 -66.9 79.2 -68.75 76.25 -70.75 74.5 -71.2 66.35 -73.2 65.4 -74.7 61.15 -78.5 57.85 -79.6 55.45 -85.1 54.75 -86.6 53.0 -91.75 50.25 -93.0 48.65 -94.95 48.1 -97.7 39.1 -95.9 37.45 -93.15 33.1 -92.7 32.75 -90.8 32.95 -89.85 33.5 -85.85 34.1 -82.75 38.35 -80.75 38.85 -79.35 39.85 -77.85 42.0 -78.95 45.2 -79.1 49.1 -77.45 51.25 -76.35 53.9 -74.15 54.85 -72.6 57.95 -67.8 61.15 -67.15 61.35 -62.25 59.95 -59.5 58.5 -53.95 60.25 -52.25 60.2 -50.45 60.8 -49.3 60.65 -48.45 61.15 -47.85 62.7 -47.6 63.6 -48.0 64.35 -48.85 64.9 -50.85 64.7 -51.35 65.0 -52.5 67.25 -52.65 68.4 -52.2 69.45 -50.25 70.8 -50.15 72.15 -52.0 75.85 -52.3 77.7 -50.8 82.4 -46.95 83.7 -47.25 85.3 -46.2 86.1 -44.85 84.35 -42.9 86.1 -41.95 86.15 -39.6 84.75 -34.4 87.4 -32.8 87.5 -31.1 87.1 -28.45 87.15 -25.2 85.5 -23.35 86.5 -20.8 85.5 -17.4 85.2 -16.85 83.7" fill="#424e95" fill-rule="evenodd" stroke="none"/>
    <path d="M-69.45 62.9 L-66.6 63.35 -58.2 61.65 -53.8 61.4 -50.4 61.6 -48.85 62.45 -48.85 63.6 -49.3 63.9 -51.8 64.4 -52.95 65.2 -53.6 66.7 -53.7 68.1 -52.75 70.1 -51.2 71.9 -52.6 75.0 -51.9 71.95 -53.3 70.6 -54.6 68.75 -55.0 66.9 -53.85 64.1 -53.25 63.4 -50.75 62.85 -56.65 62.95 -58.4 63.4 -64.0 64.15 -65.0 64.55 -67.0 64.7 -69.75 63.5 -71.5 62.0 -69.45 62.9" fill="#073b7f" fill-rule="evenodd" stroke="none"/>
    <path d="M-83.7 41.95 L-84.35 38.95 -86.6 36.1 -83.85 38.5 -83.15 40.0 -83.0 40.9 -80.45 42.75 -80.35 43.85 -80.7 45.35 -80.85 47.0 -80.7 48.45 -79.25 51.2 -81.95 48.1 -81.75 43.5 -83.7 41.95" fill="#073b7f" fill-rule="evenodd" stroke="none"/>
    <path d="M-16.35 86.7 L-15.85 85.5 -13.35 85.7 -9.2 87.7 -4.0 89.2 -3.85 91.85 -4.5 94.5 -7.7 97.0 -7.35 93.7 -8.2 91.35 -11.5 90.85 -13.5 89.35 -27.65 91.1 -35.9 89.35 -28.15 88.85 -16.35 86.7" fill="#073b7f" fill-rule="evenodd" stroke="none"/>
    <path d="M-92.9 36.45 L-90.85 35.3 -87.85 35.45 -90.75 36.05 -92.75 37.35 -93.75 38.35 -92.9 36.45" fill="#073b7f" fill-rule="evenodd" stroke="none"/>
    <path d="M-1.65 117.1 L-2.4 109.1 1.85 118.1 -1.15 122.35 -0.65 118.85 -1.65 117.1" fill="#073b7f" fill-rule="evenodd" stroke="none"/>
    <path d="M-115.35 62.05 L-115.25 61.45 -114.85 60.8 -114.35 60.45 -113.2 60.35 -111.5 61.05 -110.45 61.8 -110.0 61.8 -109.45 61.3 -109.6 60.85 -110.6 59.9 -112.45 58.95 -112.65 58.5 -112.5 58.0 -111.7 57.2 -110.15 56.7 -108.35 56.4 -106.5 57.0 -105.65 58.1 -105.5 60.35 -104.6 61.35 -97.45 60.95 -95.3 63.75 -95.7 67.7 -97.15 69.4 -100.25 70.8 -104.75 72.2 -106.3 72.1 -107.65 71.65 -109.45 70.15 -110.9 68.15 -111.5 67.65 -112.4 67.45 -114.8 67.4 -115.6 67.2 -116.25 66.55 -116.4 66.1 -116.4 65.35 -115.3 63.8 -115.15 63.3 -115.35 62.05" fill="#fee79a" fill-rule="evenodd" stroke="none"/>
    <path d="M-136.0 34.7 L-138.05 32.55 -138.35 31.6 -138.25 30.7 -137.55 29.6 -132.45 27.7 -126.35 28.35 -121.9 33.9 -122.5 36.75 -123.6 37.2 -124.8 36.95 -125.65 36.55 -126.25 36.75 -126.6 37.25 -126.5 38.25 -126.6 40.2 -127.2 40.9 -128.35 41.5 -130.25 41.5 -131.45 41.25 -132.8 40.1 -133.65 38.05 -136.0 34.7" fill="#fee79a" fill-rule="evenodd" stroke="none"/>
    <path d="M-131.1 28.2 L-133.85 28.5 -137.55 29.6 -135.2 27.75 -131.1 27.0 -127.85 27.3 -125.85 28.1 -123.35 30.25 -122.5 31.45 -121.8 32.95 -121.65 34.0 -121.7 35.65 -122.5 36.75 -123.6 37.2 -122.6 36.45 -122.5 34.35 -123.95 31.7 -126.2 29.6 -128.0 28.45 -131.1 28.2" fill="#ecaf5f" fill-rule="evenodd" stroke="none"/>
    <path d="M-111.5 61.05 L-110.45 61.8 -110.0 61.8 -110.7 62.35 -111.6 62.0 -112.5 61.2 -113.7 60.85 -114.85 60.8 -114.35 60.45 -113.2 60.35 -111.5 61.05" fill="#ecaf5f" fill-rule="evenodd" stroke="none"/>
    <path d="M-108.25 56.85 L-109.5 56.85 -111.7 57.2 -109.85 56.25 -109.35 56.15 -108.4 56.2 -106.1 56.95 -105.45 57.5 -105.05 58.1 -104.8 60.65 -104.45 61.05 -103.7 61.05 -102.95 60.85 -100.05 59.55 -98.35 59.35 -97.4 59.55 -96.4 60.05 -95.25 61.65 -94.75 63.0 -94.55 64.5 -94.65 65.4 -95.0 66.85 -95.75 68.1 -97.15 69.4 -96.1 67.7 -95.75 65.1 -96.35 63.45 -97.45 62.0 -98.75 61.5 -100.45 61.25 -102.5 61.6 -103.6 61.95 -104.95 61.6 -105.75 60.85 -106.1 58.75 -107.0 57.6 -108.25 56.85" fill="#ecaf5f" fill-rule="evenodd" stroke="none"/>
    <path d="M-121.5 37.3 L-119.45 36.25 -114.8 35.2 -112.45 35.35 -110.35 36.05 -108.4 37.3 -107.2 38.5 -105.25 41.5 -103.75 45.25 -104.2 49.7 -104.85 51.6 -106.0 53.7 -109.25 55.5 -114.75 56.25 -117.3 55.75 -121.25 54.0 -123.45 52.45 -124.75 50.9 -125.85 48.75 -126.25 47.15 -126.35 45.0 -125.85 42.95 -124.9 40.95 -122.9 38.3 -121.5 37.3" fill="#bdc753" fill-rule="evenodd" stroke="none"/>
    <path d="M-29.6 85.85 L-32.5 86.2 -33.85 84.75 -33.75 82.25 -30.0 77.95 -28.15 78.15 -27.0 79.25 -24.45 78.25 -22.6 78.0 -21.8 78.9 -21.85 79.85 -23.25 81.0 -24.2 83.7 -26.35 84.0 -28.1 83.0 -29.6 85.85" fill="#454f3c" fill-rule="evenodd" stroke="none"/>
    <path d="M11.85 112.65 L9.85 111.9 9.35 109.5 10.0 107.75 11.9 107.85 14.35 110.25 13.75 111.35 11.85 112.65" fill="#454f3c" fill-rule="evenodd" stroke="none"/>
    <path d="M5.8 115.15 L6.45 113.4 8.35 113.5 10.2 115.15 10.1 116.25 10.3 117.25 8.3 118.35 6.3 117.6 5.8 115.15" fill="#454f3c" fill-rule="evenodd" stroke="none"/>
    <path d="M-122.25 85.0 L-127.15 79.95 -125.45 78.65 -121.35 83.25 -114.95 88.3 -114.0 86.6 -112.65 86.95 -111.1 88.0 -110.95 88.85 -111.2 90.2 -107.0 92.45 -88.7 99.1 -88.25 98.0 -87.2 98.05 -85.1 99.0 -85.2 100.5 -57.65 115.7 -35.2 129.45 -30.45 131.25 -28.25 133.1 -28.7 131.45 -27.1 130.7 -25.2 130.75 -23.1 131.75 -21.5 131.5 -19.95 133.5 -20.0 134.75 -22.75 136.0 31.05 165.9 29.55 165.45 20.2 161.45 -0.05 151.1 -24.35 137.0 -36.6 131.1 -80.25 105.8 Q-84.15 104.05 -88.1 102.25 L-88.4 102.7 -99.1 97.85 -112.75 92.35 -116.95 89.45 -122.25 85.0" fill="#454f3c" fill-rule="evenodd" stroke="none"/>
    <path d="M42.4 166.25 L45.0 167.2 45.1 167.4 43.2 167.8 40.3 167.7 41.15 166.75 42.4 166.25" fill="#454f3c" fill-rule="evenodd" stroke="none"/>
    <path d="M32.1 151.95 L31.65 150.45 32.05 149.35 32.95 148.95 34.6 149.05 35.8 150.7 35.2 151.4 35.8 152.5 34.7 153.5 32.1 151.95" fill="#454f3c" fill-rule="evenodd" stroke="none"/>
    <path d="M28.55 113.75 L26.25 113.35 25.05 112.1 25.55 109.7 26.75 108.95 28.0 108.7 29.75 110.1 29.8 111.95 28.55 113.75" fill="#454f3c" fill-rule="evenodd" stroke="none"/>
    <path d="M-3.35 84.5 L-0.85 82.75 Q0.1 83.2 1.05 83.6 L1.75 85.1 1.5 87.1 -0.75 88.1 -2.95 87.25 -3.35 84.5" fill="#454f3c" fill-rule="evenodd" stroke="none"/>
    <path d="M-5.0 120.25 L-8.6 120.9 -9.7 119.8 -9.6 117.25 -6.45 116.0 -4.45 118.45 -5.0 120.25" fill="#454f3c" fill-rule="evenodd" stroke="none"/>
    <path d="M-24.2 108.6 L-22.0 108.85 -20.7 110.85 -19.45 110.6 -16.5 113.2 -18.2 115.45 -21.7 115.75 -22.6 113.75 -25.6 112.75 -26.0 111.45 -24.2 108.6" fill="#454f3c" fill-rule="evenodd" stroke="none"/>
    <path d="M-29.7 110.85 L-31.85 109.75 -32.6 107.5 -33.45 106.0 -32.85 105.6 -30.6 106.6 -29.85 105.95 -28.6 106.35 -28.25 107.0 -27.1 107.45 -26.85 108.6 -29.7 110.85" fill="#454f3c" fill-rule="evenodd" stroke="none"/>
    <path d="M-42.7 103.95 L-43.0 102.1 -41.25 101.75 -39.95 102.1 -39.3 103.3 -39.85 104.25 -40.75 104.25 -42.7 103.95" fill="#454f3c" fill-rule="evenodd" stroke="none"/>
    <path d="M-80.95 71.95 L-79.65 72.0 -77.6 76.15 -79.75 76.7 -81.0 77.4 -81.75 76.3 -84.15 76.7 -86.2 74.1 -86.3 72.2 -87.6 71.6 -88.25 67.9 -84.8 67.3 -83.7 68.65 -83.15 70.2 -80.95 71.95" fill="#454f3c" fill-rule="evenodd" stroke="none"/>
    <path d="M-77.25 74.35 L-75.7 72.15 -76.35 70.7 -74.15 68.45 -72.8 69.0 -70.9 70.8 -72.9 73.0 -71.8 75.25 -74.25 77.6 -76.0 77.0 -77.25 74.35" fill="#454f3c" fill-rule="evenodd" stroke="none"/>
    <path d="M-88.0 60.7 L-89.7 59.9 -90.8 57.7 -89.6 55.8 -87.6 56.15 -85.8 54.95 -82.9 54.45 -82.45 55.75 -81.45 55.7 -80.8 57.15 -81.8 59.45 -79.45 60.9 -78.9 63.75 -80.15 64.9 -81.45 65.15 -83.25 64.6 -86.0 63.05 -86.4 60.8 -88.0 60.7" fill="#454f3c" fill-rule="evenodd" stroke="none"/>
    <path d="M47.0 158.2 L48.4 159.2 51.75 162.85 51.15 163.85 51.55 164.85 50.85 165.8 48.8 166.55 46.4 165.45 43.75 162.35 43.55 160.95 45.0 160.95 45.25 159.0 47.0 158.2" fill="#454f3c" fill-rule="evenodd" stroke="none"/>
    <path d="M7.4 148.2 L9.4 146.25 11.0 147.6 11.9 149.25 11.0 151.25 10.0 151.95 8.9 151.7 7.4 149.6 7.4 148.2" fill="#454f3c" fill-rule="evenodd" stroke="none"/>
    <path d="M-110.9 77.35 L-109.6 79.45 -109.6 82.0 -111.75 83.5 -113.85 83.1 -115.8 81.15 -116.0 78.15 -114.8 76.6 -113.35 75.8 -111.6 75.7 -112.0 76.9 -110.9 77.35" fill="#454f3c" fill-rule="evenodd" stroke="none"/>
    <path d="M27.4 146.6 L29.25 146.25 31.75 147.45 31.15 150.1 28.8 150.7 27.15 149.7 27.3 148.5 26.4 148.2 26.5 147.1 27.4 146.6" fill="#454f3c" fill-rule="evenodd" stroke="none"/>
    <path d="M-11.35 131.25 L-12.8 131.45 -13.9 130.45 -13.7 129.25 -12.25 128.7 -11.45 129.8 -11.35 131.25" fill="#454f3c" fill-rule="evenodd" stroke="none"/>
    <path d="M6.55 109.9 L5.55 111.0 3.3 110.7 3.2 109.35 2.75 107.35 4.55 106.0 6.3 106.8 5.85 108.45 6.85 108.9 6.55 109.9" fill="#454f3c" fill-rule="evenodd" stroke="none"/>
    <path d="M14.0 98.15 L16.75 98.35 17.0 99.45 16.2 102.45 15.0 102.8 14.65 105.0 12.75 104.6 12.2 102.8 11.55 102.25 12.2 101.15 12.55 99.45 14.0 98.15" fill="#454f3c" fill-rule="evenodd" stroke="none"/>
    <path d="M-47.7 60.5 L-49.2 58.35 -47.6 55.95 -45.2 56.2 -44.5 58.1 -42.7 58.35 -41.6 60.35 -42.2 62.25 -43.75 61.85 -43.1 65.6 -44.75 68.1 -47.25 67.95 -47.45 64.75 -47.2 62.5 -47.7 60.5" fill="#454f3c" fill-rule="evenodd" stroke="none"/>
    <path d="M-126.85 55.75 L-126.35 55.2 -124.6 54.85 -123.7 56.1 -122.35 57.0 -122.75 58.85 -120.7 58.1 -120.35 59.1 -120.35 61.85 -121.45 62.45 -122.25 63.2 -124.2 63.35 -124.25 61.0 -126.1 61.25 -126.95 59.85 -128.35 59.1 -128.85 56.45 -126.85 55.75" fill="#454f3c" fill-rule="evenodd" stroke="none"/>
    <path d="M-127.2 47.1 L-127.85 48.0 -129.6 47.75 -129.85 45.95 -128.95 45.45 -129.5 44.1 -127.6 43.7 -126.35 45.0 -127.2 46.1 -127.2 47.1" fill="#454f3c" fill-rule="evenodd" stroke="none"/>
    <path d="M-138.2 59.2 L-136.1 61.0 -133.1 65.7 -133.2 67.5 -129.7 74.0 -127.45 77.35 -128.5 78.0 -134.95 68.35 -135.3 68.1 -139.45 56.95 -138.2 59.2" fill="#454f3c" fill-rule="evenodd" stroke="none"/>
  </g>
</svg>
