<?xml version="1.0" encoding="UTF-8" standalone="no"?>
<svg xmlns:ffdec="https://www.free-decompiler.com/flash" xmlns:xlink="http://www.w3.org/1999/xlink" ffdec:objectType="shape" height="169.25px" width="268.75px" xmlns="http://www.w3.org/2000/svg">
  <g transform="matrix(1.0, 0.0, 0.0, 1.0, 118.45, 7.3)">
    <path d="M126.7 102.4 L137.6 108.55 142.6 112.85 146.55 117.35 148.75 121.95 149.95 126.55 150.3 129.8 150.15 133.45 149.4 138.1 148.25 141.8 140.3 153.85 135.9 157.1 131.75 159.2 126.55 160.9 120.6 161.95 116.0 161.9 103.1 159.35 96.85 157.1 3.6 118.15 -5.35 113.05 -103.45 35.05 -114.25 23.85 -117.55 19.1 -118.4 14.15 -118.45 10.85 -117.25 5.2 -113.9 0.0 -110.9 -2.45 -107.75 -3.75 -103.4 -4.95 -85.35 -7.3 -75.3 -6.05 -60.35 -1.4 -52.6 2.5 9.15 36.9 15.3 40.95 27.05 50.95 38.95 63.2 45.45 67.75 53.95 72.65 126.7 102.4" fill="#353e35" fill-rule="evenodd" stroke="none"/>
    <path d="M126.0 103.7 L136.65 109.7 141.5 113.85 145.3 118.2 147.3 122.35 148.5 126.7 148.8 129.85 148.7 133.2 148.0 137.7 147.0 141.0 139.25 152.75 135.25 155.75 131.3 157.75 126.3 159.45 120.45 160.45 116.3 160.45 103.65 157.95 97.4 155.7 4.35 116.85 -4.4 111.85 -92.7 41.35 -102.35 34.0 -113.0 23.0 -116.1 18.5 -116.9 14.1 -116.95 11.0 -115.85 5.75 -112.8 1.0 -110.15 -1.15 -107.35 -2.3 -103.2 -3.5 -85.35 -5.8 -75.7 -4.6 -61.0 -0.05 -53.25 3.85 8.35 38.1 14.35 42.1 26.0 51.95 38.0 64.35 44.65 69.0 53.3 74.0 126.0 103.7" fill="#5e7c33" fill-rule="evenodd" stroke="none"/>
    <path d="M32.55 58.75 L24.75 51.65 24.35 50.9 24.3 50.5 26.0 51.95 32.55 58.75" fill="#8ba948" fill-rule="evenodd" stroke="none"/>
    <path d="M45.0 130.5 L47.5 134.0 47.8 135.1 9.6 119.2 10.55 116.35 11.45 115.3 12.75 114.95 14.85 115.6 31.85 124.8 39.8 127.2 45.0 130.5" fill="#8ba948" fill-rule="evenodd" stroke="none"/>
    <path d="M112.3 135.0 L104.65 132.5 102.15 130.2 101.35 127.85 101.85 124.1 99.4 123.25 97.25 123.1 93.95 122.05 89.55 122.2 87.65 121.5 81.15 115.7 74.5 113.85 71.15 114.2 67.0 116.2 65.0 117.5 54.15 118.0 49.0 116.5 44.1 111.9 39.8 109.35 35.8 107.7 29.8 106.0 25.5 104.0 0.65 83.25 -5.5 79.7 -19.35 78.2 -22.2 77.0 -24.85 74.7 -34.2 62.85 -41.85 54.85 -47.0 51.35 -51.85 49.35 -66.5 46.2 -69.85 44.35 -71.85 42.0 -73.5 39.35 -76.0 37.2 -78.5 36.7 -82.2 34.7 -84.5 32.7 -86.5 31.7 -93.2 30.35 -95.5 29.35 -98.5 26.85 -101.85 26.35 -103.7 25.5 -109.7 20.35 -112.2 15.7 -112.7 12.2 -111.85 9.5 -108.7 5.0 -106.35 3.7 -102.85 2.35 -98.7 3.0 -95.0 4.2 -91.0 7.2 -78.85 11.2 -66.35 16.5 -52.0 23.35 -33.35 37.7 -23.7 47.85 -21.2 52.7 -18.0 55.85 -4.7 60.85 7.65 64.35 27.8 75.7 34.65 82.5 54.0 94.5 73.65 102.7 84.65 105.5 86.8 107.85 94.4 113.35 98.0 114.35 101.8 114.7 116.15 111.85 121.0 111.5 124.15 112.7 127.8 115.0 128.5 116.85 128.8 119.2 128.65 122.35 134.3 126.2 126.65 138.35 117.0 141.35 114.5 137.2 112.3 135.0" fill="#8ba948" fill-rule="evenodd" stroke="none"/>
    <path d="M103.65 157.95 L95.0 154.7 98.65 154.7 105.55 155.95 110.1 155.6 115.75 153.45 117.65 153.15 124.55 154.45 136.1 154.25 137.1 154.4 135.25 155.75 131.3 157.75 126.3 159.45 120.45 160.45 116.3 160.45 103.65 157.95" fill="#8ba948" fill-rule="evenodd" stroke="none"/>
    <path d="M136.2 109.45 L136.65 109.7 141.5 113.85 145.3 118.2 145.9 119.4 145.7 119.15 136.2 109.45" fill="#959595" fill-rule="evenodd" stroke="none"/>
    <path d="M-8.8 29.35 L-8.35 34.6 -7.35 38.45 -8.15 40.6 -10.45 42.6 -14.25 41.9 -16.6 42.6 -18.15 44.8 -20.8 46.15 -23.8 46.15 -25.5 44.85 -28.7 40.7 -32.7 36.7 -33.35 35.85 -33.5 34.85 -32.85 29.85 -37.0 28.7 -38.2 28.2 -44.35 20.25 -47.8 17.45 -52.35 16.25 -57.15 14.25 -58.7 12.15 -58.9 9.7 -57.35 8.15 -52.15 7.45 -49.25 6.8 -47.9 6.8 -42.05 10.05 -41.8 10.45 -38.7 12.25 -37.25 12.75 -30.9 16.25 -29.45 18.45 -26.9 19.8 -24.0 20.35 -22.4 21.0 -9.65 28.1 -8.8 29.35" fill="#90865c" fill-rule="evenodd" stroke="none"/>
    <path d="M94.5 110.7 L86.0 105.7 73.15 101.0 59.3 92.0 50.3 88.7 46.65 86.5 45.65 84.85 45.65 83.0 46.5 80.85 48.5 79.2 51.3 78.7 54.5 79.2 58.15 81.2 59.5 83.2 61.15 88.7 63.65 90.5 64.5 92.2 69.8 94.0 71.15 97.0 73.15 98.85 75.65 100.35 78.3 100.7 81.0 102.2 87.3 104.2 89.3 104.2 93.3 105.35 96.5 105.0 100.3 103.35 102.8 104.5 104.3 106.35 104.5 109.0 103.3 111.2 100.8 112.35 94.5 110.7" fill="#90865c" fill-rule="evenodd" stroke="none"/>
    <path d="M28.8 107.2 L31.25 108.45 32.65 109.7 32.05 111.75 31.15 113.0 29.5 114.1 27.5 114.75 25.15 113.85 20.65 111.0 18.9 110.7 15.65 110.6 11.4 113.35 9.85 115.0 8.65 115.6 7.55 115.35 6.75 114.4 5.65 110.75 3.8 110.35 2.65 108.0 2.65 107.25 3.4 105.95 4.25 105.0 5.75 104.85 8.15 105.2 9.15 104.85 9.8 103.7 9.65 99.85 10.65 97.75 12.0 96.95 14.3 96.85 17.5 98.0 18.9 99.95 23.25 104.95 25.75 106.25 28.8 107.2" fill="#90865c" fill-rule="evenodd" stroke="none"/>
    <path d="M-17.0 79.35 L-16.4 79.95 -16.45 80.45 -21.85 81.25 -32.2 85.6 -33.35 85.6 -34.7 83.35 -34.85 81.0 -34.5 79.2 -33.95 77.65 -33.2 76.35 -32.4 75.4 -30.9 75.25 -28.45 75.6 -23.25 77.25 -21.5 78.35 -19.35 79.1 -17.0 79.35" fill="#90865c" fill-rule="evenodd" stroke="none"/>
    <path d="M-43.0 57.0 L-41.35 59.35 -40.7 61.0 -40.85 63.5 -41.5 65.35 -43.0 66.85 -45.35 68.5 -47.5 67.2 -47.85 65.0 -47.2 63.2 -47.35 61.7 -48.7 59.85 -49.35 58.7 -49.2 56.7 -47.35 55.5 -45.5 55.85 -43.0 57.0" fill="#90865c" fill-rule="evenodd" stroke="none"/>
    <path d="M-16.85 83.7 L-15.35 83.4 -11.5 84.95 -7.2 85.95 -6.25 84.7 -4.6 84.6 -2.75 85.5 -1.75 89.5 -1.45 92.45 -0.5 92.5 -0.2 93.85 -2.85 96.2 -3.5 97.85 -2.6 99.0 -3.1 103.25 2.15 115.65 -4.4 111.85 -36.8 86.15 -34.4 87.4 -32.8 87.5 -31.1 87.1 -28.45 87.15 -25.2 85.5 -23.35 86.5 -20.8 85.5 -17.4 85.2 -16.85 83.7" fill="#424e95" fill-rule="evenodd" stroke="none"/>
    <path d="M-95.9 37.45 L-93.15 33.1 -92.7 32.75 -90.8 32.95 -89.85 33.5 -85.85 34.1 -82.75 38.35 -80.75 38.85 -79.35 39.85 -77.85 42.0 -78.95 45.2 -79.1 49.1 -77.45 51.25 -76.35 53.9 -74.15 54.85 -73.0 57.15 -96.8 38.25 -95.9 37.45" fill="#424e95" fill-rule="evenodd" stroke="none"/>
    <path d="M-69.55 59.9 Q-68.65 60.55 -67.8 61.15 L-67.15 61.35 -62.25 59.95 -59.5 58.5 -53.95 60.25 -52.25 60.2 -50.45 60.8 -49.3 60.65 -48.45 61.15 -47.85 62.7 -47.6 63.6 -48.0 64.35 -48.85 64.9 -50.85 64.7 -51.35 65.0 -52.5 67.25 -52.65 68.4 -52.2 69.45 -50.25 70.8 -50.15 72.15 -51.3 74.55 -69.55 59.9" fill="#424e95" fill-rule="evenodd" stroke="none"/>
    <path d="M-65.55 63.15 L-58.2 61.65 -53.8 61.4 -50.4 61.6 -48.85 62.45 -48.85 63.6 -49.3 63.9 -51.8 64.4 -52.95 65.2 -53.6 66.7 -53.7 68.1 -52.75 70.1 -51.2 71.9 -52.1 73.9 -52.3 73.75 -51.9 71.95 -53.3 70.6 -54.6 68.75 -55.0 66.9 -53.85 64.1 -53.25 63.4 -50.75 62.85 -56.65 62.95 -58.4 63.4 -64.0 64.15 -64.2 64.2 -65.55 63.15" fill="#073b7f" fill-rule="evenodd" stroke="none"/>
    <path d="M-83.7 41.95 L-84.35 38.95 -86.6 36.1 -83.85 38.5 -83.15 40.0 -83.0 40.9 -80.45 42.75 -80.35 43.85 -80.7 45.35 -80.85 47.0 -80.7 48.45 -79.25 51.2 -81.95 48.1 -81.75 43.5 -83.7 41.95" fill="#073b7f" fill-rule="evenodd" stroke="none"/>
    <path d="M-16.35 86.7 L-15.85 85.5 -13.35 85.7 -9.2 87.7 -4.0 89.2 -3.85 91.85 -4.5 94.5 -7.7 97.0 -7.35 93.7 -8.2 91.35 -11.5 90.85 -13.5 89.35 -27.65 91.1 -31.7 90.25 -33.05 89.2 -28.15 88.85 -16.35 86.7" fill="#073b7f" fill-rule="evenodd" stroke="none"/>
    <path d="M-92.9 36.45 L-90.85 35.3 -87.85 35.45 -90.75 36.05 -92.75 37.35 -93.75 38.35 -92.9 36.45" fill="#073b7f" fill-rule="evenodd" stroke="none"/>
    <path d="M-2.05 113.25 L-2.4 109.1 0.1 114.45 -2.05 113.25" fill="#073b7f" fill-rule="evenodd" stroke="none"/>
    <path d="M143.3 134.4 L143.5 133.2 143.35 131.1 143.05 129.9 143.1 129.65 143.55 129.4 146.9 131.6 147.05 138.05 146.8 138.7 146.45 139.05 145.2 139.5 143.75 139.35 143.05 139.05 142.5 138.5 142.5 137.3 143.3 134.4" fill="#fee79a" fill-rule="evenodd" stroke="none"/>
    <path d="M67.95 123.6 L68.75 122.65 70.75 122.3 77.6 124.7 80.0 131.0 79.1 130.2 78.25 129.8 77.65 129.85 77.35 130.45 77.6 130.9 78.15 131.3 80.45 132.4 80.75 132.75 80.95 133.25 80.7 134.65 80.25 135.2 79.05 135.8 77.85 135.7 77.15 135.25 76.8 135.15 76.65 135.25 76.5 135.75 77.05 137.3 77.05 137.75 76.9 138.25 76.5 138.6 75.9 138.7 75.4 138.6 74.85 138.35 74.1 137.75 72.85 138.5 72.1 139.1 71.25 139.3 70.75 139.1 70.35 138.65 69.8 138.65 69.3 138.5 68.9 138.1 68.5 137.4 66.9 132.25 66.85 131.5 67.0 130.8 67.9 129.9 68.2 129.2 68.1 128.4 67.3 126.15 67.25 125.45 67.35 124.8 67.95 123.6" fill="#fee79a" fill-rule="evenodd" stroke="none"/>
    <path d="M9.5 42.6 L13.0 44.75 15.55 50.0 15.05 52.5 14.2 52.5 9.05 50.75 7.7 49.35 7.5 49.25 6.7 49.35 4.85 50.1 4.05 50.3 3.0 50.4 2.5 50.3 1.8 50.0 0.3 48.35 -0.15 48.05 -0.45 48.05 -1.9 48.6 -2.4 48.7 -2.95 48.7 -3.25 48.5 -3.5 48.25 -4.35 47.0 -5.3 44.75 -5.5 44.0 -5.0 42.95 -4.65 42.55 -4.3 42.35 -3.65 42.2 -2.5 42.5 -0.75 43.85 -0.05 44.15 0.5 44.25 0.8 43.9 0.65 43.0 0.2 41.6 0.1 40.9 0.55 40.1 2.65 39.55 5.1 42.25 6.85 42.85 9.5 42.6" fill="#fee79a" fill-rule="evenodd" stroke="none"/>
    <path d="M115.1 123.85 L121.3 122.2 124.05 123.6 122.4 127.7 121.25 129.0 119.4 130.15 118.4 130.4 117.3 130.35 116.25 130.15 115.3 130.2 113.85 131.25 112.65 131.75 111.15 131.75 109.5 131.5 106.3 130.4 105.25 129.75 104.25 128.5 103.85 127.4 104.0 126.0 103.65 124.1 103.75 123.45 104.25 122.75 105.0 122.25 107.0 123.75 108.65 124.5 109.7 124.65 110.1 124.2 110.3 123.35 109.55 121.0 109.75 120.7 110.4 120.5 111.1 120.55 115.1 123.85" fill="#fee79a" fill-rule="evenodd" stroke="none"/>
    <path d="M125.3 147.7 L127.75 149.2 128.1 152.05 127.65 152.65 126.95 153.15 125.6 153.8 124.4 153.8 118.15 152.65 117.6 152.3 117.15 151.65 116.8 150.5 116.8 149.2 116.95 148.05 117.5 147.45 118.05 147.15 120.55 146.85 125.3 147.7" fill="#fee79a" fill-rule="evenodd" stroke="none"/>
    <path d="M-4.9 47.95 L-4.35 49.4 -5.95 51.4 -8.75 52.55 -9.4 53.0 -10.8 55.0 -11.95 55.4 -12.95 55.45 -14.2 55.3 -15.95 54.75 -17.55 53.8 -19.25 52.25 -19.95 50.55 -20.05 49.3 -19.8 48.15 -19.05 46.6 -17.65 44.95 -14.6 44.35 -9.4 45.9 -6.9 45.65 -4.9 47.95" fill="#fee79a" fill-rule="evenodd" stroke="none"/>
    <path d="M11.8 42.55 L12.8 43.5 16.3 49.15 16.65 49.95 16.7 50.45 16.65 50.9 16.45 51.4 16.15 51.8 15.05 52.5 15.4 51.45 15.25 49.95 12.75 45.45 11.3 44.0 9.3 43.0 7.25 43.3 6.35 43.25 5.6 42.95 2.65 40.0 0.55 40.1 1.8 39.45 2.9 39.4 3.55 39.65 4.15 40.2 5.5 42.05 6.55 42.5 7.05 42.6 8.25 41.95 8.75 41.8 9.55 41.75 10.75 42.0 11.2 42.15 11.8 42.55" fill="#ecaf5f" fill-rule="evenodd" stroke="none"/>
    <path d="M-0.75 43.85 L-0.05 44.15 0.5 44.25 -1.0 44.35 -4.3 42.35 -3.65 42.2 -2.5 42.5 -0.75 43.85" fill="#ecaf5f" fill-rule="evenodd" stroke="none"/>
    <path d="M-5.95 45.2 L-5.25 46.1 -4.15 48.4 -4.15 49.4 -4.55 50.05 -5.95 51.4 -5.0 49.8 -5.15 48.7 -5.7 47.45 -6.85 46.7 -9.45 46.4 -15.15 44.7 -17.65 44.95 -16.1 44.35 -15.15 44.2 -13.65 44.15 -12.4 44.35 -9.95 45.35 -9.55 45.35 -7.9 44.8 -6.45 44.85 -5.95 45.2" fill="#ecaf5f" fill-rule="evenodd" stroke="none"/>
    <path d="M144.8 130.25 L143.55 129.4 144.35 129.4 145.2 129.55 145.9 129.95 146.65 130.6 147.3 131.65 147.55 132.25 147.65 133.55 147.05 138.05 146.4 132.75 144.8 130.25" fill="#ecaf5f" fill-rule="evenodd" stroke="none"/>
    <path d="M127.65 148.45 L128.3 149.4 128.5 150.75 128.1 152.05 126.75 149.25 124.65 147.8 120.0 147.15 117.5 147.45 118.05 147.15 119.65 146.75 124.85 146.9 126.7 147.55 127.65 148.45" fill="#ecaf5f" fill-rule="evenodd" stroke="none"/>
    <path d="M78.55 132.25 L77.6 130.9 78.15 131.3 80.45 132.4 80.75 132.75 80.95 133.25 80.7 134.65 80.25 135.2 80.05 133.6 78.55 132.25" fill="#ecaf5f" fill-rule="evenodd" stroke="none"/>
    <path d="M76.65 135.25 L76.5 135.75 77.05 137.3 77.05 137.75 76.9 138.25 75.95 136.7 76.65 135.25" fill="#ecaf5f" fill-rule="evenodd" stroke="none"/>
    <path d="M115.1 123.6 L116.35 123.4 120.4 121.65 121.2 121.45 122.0 121.4 123.15 121.75 124.2 122.6 124.7 123.4 124.8 124.2 124.75 125.35 124.6 126.2 123.85 127.05 123.05 127.5 121.25 129.0 122.05 127.45 122.65 125.6 122.4 124.0 121.55 123.0 119.8 122.85 115.0 124.35 113.65 123.7 112.8 122.85 112.1 121.5 110.4 120.5 111.1 120.55 112.35 121.15 113.05 121.65 113.75 122.35 114.45 123.25 115.1 123.6" fill="#ecaf5f" fill-rule="evenodd" stroke="none"/>
    <path d="M73.65 123.7 L70.55 122.7 68.75 122.65 69.45 122.2 70.05 122.05 71.05 121.95 76.0 123.25 77.9 124.25 79.0 125.25 81.2 128.8 81.5 130.0 80.95 130.85 80.0 131.0 77.55 126.8 73.65 123.7" fill="#ecaf5f" fill-rule="evenodd" stroke="none"/>
    <path d="M106.75 124.15 L105.0 122.25 105.75 122.2 106.15 122.4 107.75 123.95 108.65 124.5 106.75 124.15" fill="#ecaf5f" fill-rule="evenodd" stroke="none"/>
    <path d="M117.95 134.4 L119.75 132.15 123.15 129.0 127.05 126.3 130.2 124.95 132.2 124.5 134.45 124.55 136.4 125.0 137.8 125.65 139.35 126.75 140.7 128.25 141.25 129.6 141.55 130.8 141.5 133.6 141.05 135.65 140.25 137.4 139.25 138.3 137.7 139.0 136.45 139.2 132.55 138.7 131.3 139.0 129.25 140.05 128.45 140.7 125.3 145.05 124.25 145.75 122.9 146.1 121.8 146.1 120.55 145.9 118.65 144.7 117.2 142.75 116.35 140.85 116.15 138.85 116.5 137.05 117.95 134.4" fill="#bdc753" fill-rule="evenodd" stroke="none"/>
    <path d="M-50.25 7.8 L-45.8 9.15 -45.2 11.25 -42.95 11.35 -40.85 12.75 -38.75 12.6 -35.55 13.7 -32.3 15.5 -31.35 18.6 -29.95 19.25 -29.45 21.8 -30.35 24.0 -28.6 24.25 -27.9 25.15 -27.7 26.25 -28.6 30.15 -32.7 31.15 -36.7 34.7 -38.25 33.0 -37.6 28.7 -37.0 26.7 -38.0 23.25 -38.95 22.75 -39.25 21.6 -40.2 21.2 -42.6 24.25 -43.6 23.35 -44.35 20.9 -43.7 19.6 -40.35 16.45 -41.35 15.7 -45.35 14.85 -45.85 13.0 -46.7 15.2 -48.5 16.0 -50.35 15.0 -51.35 15.7 -54.5 14.35 -54.6 10.0 -53.7 8.45 -50.25 7.8" fill="#454f3c" fill-rule="evenodd" stroke="none"/>
    <path d="M-15.95 34.5 L-13.2 34.85 -11.95 36.5 -12.65 40.65 -13.95 41.2 -17.3 41.3 -18.65 40.3 -20.1 39.75 -21.5 37.75 -22.3 35.1 -21.5 33.5 -20.1 34.4 -17.5 32.95 -16.2 33.5 -15.95 34.5" fill="#454f3c" fill-rule="evenodd" stroke="none"/>
    <path d="M-28.1 83.0 L-29.6 85.85 -32.5 86.2 -33.85 84.75 -33.75 82.25 -30.0 77.95 -28.15 78.15 -27.0 79.25 -24.45 78.25 -22.6 78.0 -21.8 78.9 -21.85 79.85 -23.25 81.0 -24.2 83.7 -26.35 84.0 -28.1 83.0" fill="#454f3c" fill-rule="evenodd" stroke="none"/>
    <path d="M10.0 107.75 L11.9 107.85 14.35 110.25 13.75 111.35 11.85 112.65 9.85 111.9 9.35 109.5 10.0 107.75" fill="#454f3c" fill-rule="evenodd" stroke="none"/>
    <path d="M10.2 115.15 L10.1 116.25 10.3 117.25 8.3 118.35 6.3 117.6 5.8 115.15 6.45 113.4 8.35 113.5 10.2 115.15" fill="#454f3c" fill-rule="evenodd" stroke="none"/>
    <path d="M28.0 108.7 L29.75 110.1 29.8 111.95 28.55 113.75 26.25 113.35 25.05 112.1 25.55 109.7 26.75 108.95 28.0 108.7" fill="#454f3c" fill-rule="evenodd" stroke="none"/>
    <path d="M51.35 81.7 L55.15 81.35 57.9 82.1 59.4 85.85 55.9 89.1 54.0 90.45 51.75 89.85 50.3 89.85 49.65 87.95 49.15 85.45 49.75 83.95 51.35 81.7" fill="#454f3c" fill-rule="evenodd" stroke="none"/>
    <path d="M-0.85 82.75 Q0.1 83.2 1.05 83.6 L1.75 85.1 1.5 87.1 -0.75 88.1 -2.95 87.25 -3.35 84.5 -0.85 82.75" fill="#454f3c" fill-rule="evenodd" stroke="none"/>
    <path d="M6.3 106.8 L5.85 108.45 6.85 108.9 6.55 109.9 5.55 111.0 3.3 110.7 3.2 109.35 2.75 107.35 4.55 106.0 6.3 106.8" fill="#454f3c" fill-rule="evenodd" stroke="none"/>
    <path d="M14.0 98.15 L16.75 98.35 17.0 99.45 16.2 102.45 15.0 102.8 14.65 105.0 12.75 104.6 12.2 102.8 11.55 102.25 12.2 101.15 12.55 99.45 14.0 98.15" fill="#454f3c" fill-rule="evenodd" stroke="none"/>
    <path d="M-44.5 58.1 L-42.7 58.35 -41.6 60.35 -42.2 62.25 -43.75 61.85 -43.1 65.6 -44.75 68.1 -47.25 67.95 -47.45 64.75 -47.2 62.5 -47.7 60.5 -49.2 58.35 -47.6 55.95 -45.2 56.2 -44.5 58.1" fill="#454f3c" fill-rule="evenodd" stroke="none"/>
    <path d="M-23.2 41.2 L-22.2 41.5 -21.45 42.45 -22.95 44.2 -24.6 44.5 -25.95 44.2 -26.75 42.75 -25.35 41.35 -26.35 40.45 -26.1 38.95 -24.95 38.2 -22.6 38.35 -22.0 39.7 -23.2 41.2" fill="#454f3c" fill-rule="evenodd" stroke="none"/>
    <path d="M-12.7 31.5 L-12.85 28.5 -11.05 27.35 -10.75 27.5 -9.85 30.0 -9.85 32.5 -12.7 31.5" fill="#454f3c" fill-rule="evenodd" stroke="none"/>
    <path d="M-14.25 25.55 L-15.7 26.2 -18.7 25.85 -21.85 23.7 -23.45 21.35 -22.6 21.25 -21.0 22.0 -20.65 22.0 -14.25 25.55" fill="#454f3c" fill-rule="evenodd" stroke="none"/>
    <path d="M98.45 107.35 L97.5 105.6 98.95 104.05 101.55 104.0 102.6 105.75 101.5 107.25 101.65 108.5 102.15 110.1 100.65 111.15 98.2 111.05 96.9 109.5 97.65 107.7 98.45 107.35" fill="#454f3c" fill-rule="evenodd" stroke="none"/>
  </g>
</svg>
