<?xml version="1.0" encoding="UTF-8" standalone="no"?>
<svg xmlns:ffdec="https://www.free-decompiler.com/flash" xmlns:xlink="http://www.w3.org/1999/xlink" ffdec:objectType="shape" height="136.95px" width="198.85px" xmlns="http://www.w3.org/2000/svg">
  <g transform="matrix(1.0, 0.0, 0.0, 1.0, 144.9, 60.75)">
    <path d="M-95.85 -53.95 L-88.55 -50.05 29.35 0.75 34.05 4.1 37.55 7.25 39.55 10.7 52.8 52.0 53.6 55.4 53.95 59.9 53.8 63.45 52.95 66.65 51.15 69.65 49.8 71.4 44.3 74.9 38.85 76.0 34.85 76.2 27.55 74.55 18.45 69.7 10.55 66.3 -2.45 62.75 -11.75 61.3 -18.05 59.35 Q-23.1 56.05 -28.2 52.7 L-37.3 44.15 -44.05 36.65 -52.6 28.05 -55.7 25.55 -64.35 20.2 -76.75 15.0 -129.1 -4.65 -133.35 -7.15 -136.85 -10.0 -140.3 -15.05 -142.9 -20.0 -144.65 -28.05 -144.9 -34.7 -143.85 -40.85 -142.45 -45.05 -138.4 -51.0 -133.75 -54.9 -127.65 -58.35 -121.85 -60.1 -116.3 -60.75 -111.0 -59.95 -103.3 -57.35 -95.85 -53.95" fill="#353e35" fill-rule="evenodd" stroke="none"/>
    <path d="M-138.95 -15.75 L-141.45 -20.5 -143.15 -28.1 -143.4 -34.6 -142.4 -40.35 -141.15 -44.3 -137.4 -49.85 -133.05 -53.6 Q-130.1 -55.25 -127.2 -56.95 L-121.65 -58.6 -116.35 -59.25 -111.45 -58.55 -103.9 -56.0 -89.2 -48.7 28.5 2.0 33.05 5.2 36.4 8.2 38.15 11.2 52.1 55.5 52.45 59.9 52.35 63.1 51.55 66.05 50.0 68.7 48.75 70.3 43.75 73.5 38.75 74.5 35.0 74.7 28.1 73.1 19.1 68.35 11.1 64.85 -2.2 61.25 -11.35 59.85 -17.4 57.95 -27.15 51.6 -36.15 43.1 -42.9 35.6 -51.6 26.95 -54.8 24.35 -63.65 18.9 -76.15 13.65 -128.35 -6.0 -132.4 -8.3 -135.7 -11.0 -138.95 -15.75" fill="#5e7c33" fill-rule="evenodd" stroke="none"/>
    <path d="M33.85 42.7 L35.1 42.95 36.0 43.45 36.55 44.35 40.3 53.35 40.5 55.45 40.3 56.2 38.15 59.35 36.65 60.0 35.35 60.25 34.15 60.0 24.75 51.65 24.35 50.9 24.25 50.0 24.6 48.7 25.2 47.7 25.75 47.25 31.75 43.15 32.85 42.75 33.85 42.7" fill="#8ba948" fill-rule="evenodd" stroke="none"/>
    <path d="M-86.2 -36.15 L-84.2 -36.65 -76.85 -35.0 -51.0 -25.5 -46.85 -23.15 -41.7 -19.15 -32.5 -16.3 -22.7 -12.6 -10.5 -4.8 -0.85 0.5 2.0 3.0 9.65 12.5 19.15 18.85 21.65 21.0 30.1 34.7 30.4 35.7 29.4 36.9 22.65 42.35 21.2 42.8 19.85 42.35 4.65 31.85 -0.7 26.35 -21.0 13.5 -28.7 10.5 -37.7 3.85 -51.0 -2.0 -57.0 -5.15 -64.7 -7.65 -74.35 -13.15 -79.85 -15.3 -81.85 -16.8 -82.7 -18.15 -83.7 -21.8 -86.0 -27.15 -88.35 -30.8 -88.7 -33.65 -87.65 -35.35 -86.2 -36.15" fill="#8ba948" fill-rule="evenodd" stroke="none"/>
    <path d="M-86.7 -45.65 L-92.2 -48.05 -109.15 -57.8 -103.9 -56.0 -89.2 -48.7 -82.75 -45.9 -83.35 -45.55 -86.7 -45.65" fill="#8ba948" fill-rule="evenodd" stroke="none"/>
    <path d="M-104.45 2.95 L-102.85 2.35 -98.7 3.0 -95.0 4.2 -91.0 7.2 -78.85 11.2 -58.7 20.0 -52.0 23.35 -33.35 37.7 -23.7 47.85 -21.2 52.7 -18.0 55.85 -4.0 61.05 -11.35 59.85 -17.4 57.95 -27.15 51.6 -36.15 43.1 -42.9 35.6 -51.6 26.95 -54.8 24.35 -63.65 18.9 -76.15 13.65 -104.45 2.95" fill="#8ba948" fill-rule="evenodd" stroke="none"/>
    <path d="M-88.5 -44.95 L-89.75 -43.0 -108.3 -54.9 -116.0 -57.6 -121.7 -58.6 -121.65 -58.6 -116.35 -59.25 -111.6 -58.55 -107.3 -57.05 -88.5 -44.95" fill="#959595" fill-rule="evenodd" stroke="none"/>
    <path d="M-8.5 -12.5 L-9.2 -14.25 15.25 -3.75 15.5 -3.15 15.5 -0.8 13.0 3.2 10.5 4.85 7.5 5.2 3.8 4.0 1.3 1.2 0.3 -1.5 0.5 -3.65 1.15 -6.0 0.8 -7.65 -1.2 -9.0 -8.5 -12.5" fill="#90865c" fill-rule="evenodd" stroke="none"/>
    <path d="M-119.0 -13.0 L-117.7 -14.15 -115.5 -14.3 -111.6 -11.75 -108.7 -11.3 -106.2 -12.15 -103.2 -11.15 -100.35 -10.65 -97.8 -10.65 -96.8 -10.0 -97.15 -9.0 -99.85 -8.15 -108.0 -6.75 -109.6 -6.0 -115.8 -2.0 -116.95 -1.75 -127.6 -5.7 -128.15 -6.4 -128.0 -7.85 -126.5 -8.5 -124.2 -9.0 -122.2 -8.3 -120.5 -8.5 -119.5 -9.5 -119.0 -13.0" fill="#90865c" fill-rule="evenodd" stroke="none"/>
    <path d="M-8.8 29.35 L-8.35 34.6 -7.35 38.45 -8.15 40.6 -10.45 42.6 -14.25 41.9 -16.6 42.6 -18.15 44.8 -20.8 46.15 -23.8 46.15 -25.5 44.85 -28.7 40.7 -32.7 36.7 -33.35 35.85 -33.5 34.85 -32.85 29.85 -37.0 28.7 -38.2 28.2 -44.35 20.25 -47.8 17.45 -52.35 16.25 -57.15 14.25 -58.7 12.15 -58.9 9.7 -57.35 8.15 -49.25 6.8 -46.9 6.8 -42.8 8.9 -41.8 10.45 -38.7 12.25 -32.45 14.0 -29.45 18.45 -26.9 19.8 -24.0 20.35 -12.0 25.15 -10.45 26.9 -8.8 29.35" fill="#90865c" fill-rule="evenodd" stroke="none"/>
    <path d="M9.5 42.6 L13.0 44.75 15.55 50.0 15.05 52.5 14.2 52.5 9.05 50.75 7.7 49.35 7.5 49.25 6.7 49.35 4.85 50.1 4.05 50.3 3.0 50.4 2.5 50.3 1.8 50.0 0.3 48.35 -0.15 48.05 -0.45 48.05 -1.9 48.6 -2.4 48.7 -2.95 48.7 -3.25 48.5 -3.5 48.25 -4.35 47.0 -5.3 44.75 -5.5 44.0 -5.0 42.95 -4.65 42.55 -4.3 42.35 -3.65 42.2 -2.5 42.5 -0.75 43.85 -0.05 44.15 0.5 44.25 0.8 43.9 0.65 43.0 0.2 41.6 0.1 40.9 0.55 40.1 2.65 39.55 5.1 42.25 6.85 42.85 9.5 42.6" fill="#fee79a" fill-rule="evenodd" stroke="none"/>
    <path d="M-116.25 -22.9 L-115.65 -23.25 -111.5 -21.3 -106.2 -20.15 -105.1 -18.0 -105.15 -16.15 -105.6 -15.55 -106.35 -15.0 -108.45 -14.15 -110.2 -14.45 -111.55 -15.05 -112.5 -15.7 -113.45 -17.0 -113.7 -17.6 -114.1 -19.6 -114.55 -19.95 -115.8 -20.25 -116.3 -20.55 -116.8 -21.1 -116.95 -21.9 -116.25 -22.9" fill="#fee79a" fill-rule="evenodd" stroke="none"/>
    <path d="M-119.45 -22.7 L-119.55 -20.5 -118.85 -17.0 -118.95 -16.6 -119.15 -16.2 -119.45 -15.85 -120.2 -15.4 -121.7 -14.95 -122.3 -14.85 -124.25 -15.0 -125.35 -15.3 -126.45 -15.9 -127.4 -16.65 -127.8 -17.2 -128.1 -17.8 -128.35 -18.5 -128.5 -19.8 -128.3 -20.35 -127.85 -20.65 -126.2 -20.7 -124.25 -19.1 -123.75 -19.1 -123.5 -19.4 -123.4 -19.8 -123.5 -20.75 -123.45 -21.85 -123.2 -22.5 -122.3 -23.05 -120.7 -23.25 -119.45 -22.7" fill="#fee79a" fill-rule="evenodd" stroke="none"/>
    <path d="M-4.9 47.95 L-4.35 49.4 -5.95 51.4 -8.75 52.55 -9.4 53.0 -10.8 55.0 -11.95 55.4 -12.95 55.45 -14.2 55.3 -15.95 54.75 -17.55 53.8 -19.25 52.25 -19.95 50.55 -20.05 49.3 -19.8 48.15 -19.05 46.6 -17.65 44.95 -14.6 44.35 -9.4 45.9 -6.9 45.65 -4.9 47.95" fill="#fee79a" fill-rule="evenodd" stroke="none"/>
    <path d="M-95.35 -19.9 L-93.85 -17.65 -94.75 -15.1 -95.9 -14.45 -99.0 -13.5 -99.7 -13.4 -100.3 -13.45 -101.0 -13.7 -101.6 -14.1 -102.35 -14.9 -102.75 -15.6 -103.1 -16.5 -103.25 -17.55 -103.25 -18.8 -103.05 -19.6 -102.7 -20.35 -102.3 -20.8 -100.75 -21.25 -98.45 -21.25 -95.35 -19.9" fill="#fee79a" fill-rule="evenodd" stroke="none"/>
    <path d="M-117.05 -43.85 L-116.45 -43.9 -109.45 -41.55 -107.5 -40.15 -108.5 -37.75 -110.85 -37.85 -113.0 -37.6 -113.75 -37.65 -115.9 -38.35 -117.6 -39.2 -118.55 -40.05 -119.0 -40.7 -119.25 -41.5 -119.05 -42.4 -118.35 -43.25 -117.8 -43.6 -117.05 -43.85" fill="#fee79a" fill-rule="evenodd" stroke="none"/>
    <path d="M11.8 42.55 L12.8 43.5 16.3 49.15 16.65 49.95 16.7 50.45 16.65 50.9 16.45 51.4 16.15 51.8 15.05 52.5 15.4 51.45 15.25 49.95 12.75 45.45 11.3 44.0 9.3 43.0 7.25 43.3 6.35 43.25 5.6 42.95 2.65 40.0 0.55 40.1 1.8 39.45 2.9 39.4 3.55 39.65 4.15 40.2 5.5 42.05 6.55 42.5 7.05 42.6 8.25 41.95 8.75 41.8 9.55 41.75 10.75 42.0 11.2 42.15 11.8 42.55" fill="#ecaf5f" fill-rule="evenodd" stroke="none"/>
    <path d="M-0.75 43.85 L-0.05 44.15 0.5 44.25 -1.0 44.35 -4.3 42.35 -3.65 42.2 -2.5 42.5 -0.75 43.85" fill="#ecaf5f" fill-rule="evenodd" stroke="none"/>
    <path d="M-5.95 45.2 L-5.25 46.1 -4.15 48.4 -4.15 49.4 -4.55 50.05 -5.95 51.4 -5.0 49.8 -5.15 48.7 -5.7 47.45 -6.85 46.7 -9.45 46.4 -15.15 44.7 -17.65 44.95 -16.1 44.35 -15.15 44.2 -13.65 44.15 -12.4 44.35 -9.95 45.35 -9.55 45.35 -7.9 44.8 -6.45 44.85 -5.95 45.2" fill="#ecaf5f" fill-rule="evenodd" stroke="none"/>
    <path d="M-94.6 -20.0 L-93.9 -19.1 -93.25 -17.8 -93.35 -17.05 -93.85 -16.0 -94.75 -15.1 -94.75 -16.8 -95.25 -18.15 -96.2 -19.9 -98.6 -20.9 -102.3 -20.8 -101.5 -21.3 -100.5 -21.6 -98.85 -21.65 -97.3 -21.45 -96.45 -21.2 -95.7 -20.8 -94.6 -20.0" fill="#ecaf5f" fill-rule="evenodd" stroke="none"/>
    <path d="M-125.4 -20.4 L-124.25 -19.1 -126.65 -20.4 -127.85 -20.65 -126.55 -20.85 -126.15 -20.8 -125.4 -20.4" fill="#ecaf5f" fill-rule="evenodd" stroke="none"/>
    <path d="M-108.75 -20.4 L-111.25 -20.75 -115.2 -22.75 -116.25 -22.9 -115.65 -23.25 -114.75 -23.35 -113.9 -23.1 -111.75 -21.75 -110.9 -21.4 -109.85 -21.35 -108.4 -21.75 -106.95 -21.5 -106.25 -21.25 -105.4 -20.5 -105.0 -19.7 -104.65 -18.35 -104.8 -16.75 -105.6 -15.55 -106.35 -15.0 -105.35 -16.25 -105.85 -18.05 -106.95 -19.5 -108.75 -20.4" fill="#ecaf5f" fill-rule="evenodd" stroke="none"/>
    <path d="M-120.25 -23.3 L-119.0 -22.8 -118.45 -22.1 -118.45 -21.3 -119.25 -20.1 -119.2 -19.6 -118.75 -18.35 -118.85 -17.0 -120.0 -20.65 -119.55 -22.0 -120.0 -22.85 -121.0 -23.1 -122.3 -23.05 -121.5 -23.3 -120.25 -23.3" fill="#ecaf5f" fill-rule="evenodd" stroke="none"/>
    <path d="M-108.45 -40.6 L-115.8 -43.65 -117.05 -43.85 -116.45 -43.9 -115.75 -43.85 -109.5 -42.0 -107.9 -41.25 -107.6 -41.0 -107.3 -40.6 -107.1 -39.85 -107.2 -39.3 -107.8 -38.2 -108.5 -37.75 -108.25 -39.0 -108.2 -39.9 -108.45 -40.6" fill="#ecaf5f" fill-rule="evenodd" stroke="none"/>
    <path d="M-130.15 -37.15 L-129.45 -38.45 -128.7 -39.45 -127.5 -40.55 -126.55 -41.15 -124.8 -41.95 -123.0 -42.1 -122.0 -41.95 -120.0 -40.9 -118.55 -39.4 -116.9 -38.25 -111.2 -36.35 -110.2 -35.05 -109.5 -32.7 -109.65 -30.75 -109.9 -29.9 -110.4 -28.85 -111.25 -27.6 -112.05 -26.75 -113.15 -26.1 -114.05 -25.75 -122.95 -24.75 -124.85 -25.0 -127.95 -26.65 -129.7 -28.35 -130.45 -29.6 -130.85 -31.0 -130.95 -32.45 -130.6 -35.7 -130.15 -37.15" fill="#bdc753" fill-rule="evenodd" stroke="none"/>
    <path d="M-50.25 7.8 L-45.8 9.15 -45.2 11.25 -42.95 11.35 -40.85 12.75 -38.75 12.6 -34.15 14.15 -32.35 15.25 -31.35 18.6 -29.95 19.25 -29.45 21.8 -30.35 24.0 -28.6 24.25 -27.9 25.15 -27.7 26.25 -28.6 30.15 -32.7 31.15 -36.7 34.7 -38.25 33.0 -37.6 28.7 -37.0 26.7 -38.0 23.25 -38.95 22.75 -39.25 21.6 -40.2 21.2 -42.6 24.25 -43.6 23.35 -44.35 20.9 -43.7 19.6 -40.35 16.45 -41.35 15.7 -45.35 14.85 -45.85 13.0 -46.7 15.2 -48.5 16.0 -50.35 15.0 -51.35 15.7 -54.5 14.35 -54.6 10.0 -53.7 8.45 -50.25 7.8" fill="#454f3c" fill-rule="evenodd" stroke="none"/>
    <path d="M-15.95 34.5 L-13.2 34.85 -11.95 36.5 -12.65 40.65 -13.95 41.2 -17.3 41.3 -18.65 40.3 -20.1 39.75 -21.5 37.75 -22.3 35.1 -21.5 33.5 -20.1 34.4 -17.5 32.95 -16.2 33.5 -15.95 34.5" fill="#454f3c" fill-rule="evenodd" stroke="none"/>
    <path d="M-106.8 -11.6 L-104.6 -10.05 -104.3 -8.55 -106.0 -6.75 -108.5 -8.0 -109.2 -9.3 -107.95 -11.5 -106.8 -11.6" fill="#454f3c" fill-rule="evenodd" stroke="none"/>
    <path d="M-116.95 -8.05 L-114.85 -8.05 -112.9 -6.0 -115.25 -3.7 -117.25 -3.75 -118.3 -6.25 -116.95 -8.05" fill="#454f3c" fill-rule="evenodd" stroke="none"/>
    <path d="M-123.0 -8.35 L-122.1 -6.8 -123.35 -4.15 -125.55 -4.95 -125.7 -5.05 -127.15 -6.35 -127.4 -7.65 -126.7 -8.6 -125.3 -9.3 -123.0 -8.35" fill="#454f3c" fill-rule="evenodd" stroke="none"/>
    <path d="M-115.7 -14.75 L-114.1 -15.0 -112.8 -13.65 -112.9 -10.2 -115.8 -9.35 -116.8 -10.15 -116.75 -13.25 -115.7 -14.75" fill="#454f3c" fill-rule="evenodd" stroke="none"/>
    <path d="M-23.2 41.2 L-22.2 41.5 -21.45 42.45 -22.95 44.2 -24.6 44.5 -25.95 44.2 -26.75 42.75 -25.35 41.35 -26.35 40.45 -26.1 38.95 -24.95 38.2 -22.6 38.35 -22.0 39.7 -23.2 41.2" fill="#454f3c" fill-rule="evenodd" stroke="none"/>
    <path d="M-12.85 28.5 L-10.85 27.2 -9.85 30.0 -9.85 32.5 -12.7 31.5 -12.85 28.5" fill="#454f3c" fill-rule="evenodd" stroke="none"/>
    <path d="M-16.2 22.35 L-14.1 23.75 -14.0 25.45 -15.7 26.2 -18.7 25.85 -21.85 23.7 -23.45 21.35 -22.6 21.25 -21.0 22.0 -19.2 21.85 -16.2 22.35" fill="#454f3c" fill-rule="evenodd" stroke="none"/>
    <path d="M-7.7 -13.4 L-7.55 -13.5 7.4 -7.1 5.9 -6.55 6.65 -5.75 8.3 -6.05 10.65 -3.5 9.25 -1.4 9.55 -0.05 9.3 1.35 7.55 1.0 7.55 2.7 4.55 4.45 3.05 4.5 2.65 3.45 0.55 2.0 3.25 -0.4 5.9 -0.75 4.4 -2.3 3.9 -4.0 1.65 -6.0 1.55 -7.5 0.5 -8.65 -2.6 -8.65 -3.45 -7.25 -5.7 -6.25 -9.1 -8.5 -9.1 -10.55 -7.7 -13.4" fill="#454f3c" fill-rule="evenodd" stroke="none"/>
  </g>
</svg>
