<?xml version="1.0" encoding="UTF-8" standalone="no"?>
<svg xmlns:ffdec="https://www.free-decompiler.com/flash" xmlns:xlink="http://www.w3.org/1999/xlink" ffdec:objectType="shape" height="87.35px" width="287.7px" xmlns="http://www.w3.org/2000/svg">
  <g transform="matrix(1.0, 0.0, 0.0, 1.0, 213.3, 192.7)">
    <path d="M65.55 -185.3 L73.95 -160.95 74.4 -156.75 72.95 -150.05 71.5 -146.15 68.5 -140.25 62.85 -132.75 56.3 -126.15 47.4 -118.6 44.3 -116.55 39.9 -114.5 21.1 -108.65 11.4 -106.85 -12.6 -105.6 -25.9 -105.35 -43.4 -105.9 -60.9 -108.5 -72.0 -110.85 -102.95 -118.65 -114.5 -120.15 -154.75 -122.15 -160.9 -121.6 -195.3 -111.3 -198.75 -110.55 -200.55 -110.35 -205.2 -110.6 -208.5 -112.4 -210.9 -115.85 -212.7 -120.75 -213.3 -123.65 -213.25 -127.0 -212.65 -129.55 -206.35 -134.05 -197.0 -139.05 -189.3 -141.85 -176.9 -145.45 -169.9 -146.25 -130.4 -148.75 -128.0 -150.2 -122.8 -149.35 -99.55 -151.6 -82.65 -154.75 -77.9 -156.35 -75.55 -158.0 -72.75 -158.9 -69.7 -159.2 -65.2 -160.75 -64.45 -161.6 -56.95 -164.15 -56.0 -163.7 -42.75 -167.75 -38.2 -169.6 -26.1 -172.4 0.7 -177.75 26.8 -185.65 37.0 -190.05 43.25 -191.75 50.0 -192.7 58.1 -191.5 63.15 -188.8 65.55 -185.3" fill="#353e35" fill-rule="evenodd" stroke="none"/>
    <path d="M72.8 -156.25 L71.55 -150.6 70.15 -146.8 67.3 -141.15 61.8 -133.8 55.3 -127.3 46.6 -119.85 43.6 -117.9 39.45 -115.9 20.85 -110.1 11.35 -108.35 -12.65 -107.1 -25.9 -106.85 -43.15 -107.35 -60.7 -110.0 -71.7 -112.3 -91.65 -117.6 -102.65 -120.1 -114.35 -121.65 -154.8 -123.65 -161.15 -123.1 -198.9 -112.0 -200.6 -111.85 -204.8 -112.1 -207.45 -113.55 -209.6 -116.55 -211.25 -121.1 -211.8 -123.65 -211.8 -126.2 -208.85 -128.8 -199.0 -135.5 -183.5 -141.3 -171.35 -143.65 -123.35 -146.5 -85.85 -151.15 -43.5 -165.3 9.8 -177.8 40.0 -188.3 49.8 -190.3 59.65 -188.8 62.65 -185.3 72.8 -156.25" fill="#5e7c33" fill-rule="evenodd" stroke="none"/>
    <path d="M26.15 -166.65 L32.85 -160.85 33.65 -159.1 33.65 -155.65 32.85 -154.1 31.3 -152.2 26.75 -148.4 20.65 -139.75 17.65 -138.1 15.1 -137.65 4.0 -138.4 0.65 -137.85 -2.7 -136.85 -14.9 -131.4 -25.8 -128.0 -33.25 -126.75 -43.9 -125.85 -57.0 -125.3 -68.45 -125.3 -73.35 -124.65 -78.0 -124.85 -86.25 -127.1 -94.6 -126.65 -94.45 -125.65 -85.15 -121.55 -81.0 -117.65 -74.9 -114.1 -65.9 -112.2 -55.0 -110.75 -37.35 -107.65 -20.7 -108.55 -10.8 -110.0 -7.45 -109.85 -3.8 -109.2 -0.35 -107.75 -25.9 -106.85 -43.15 -107.35 -60.7 -110.0 -71.7 -112.3 -91.65 -117.6 -102.65 -120.1 -114.35 -121.65 -148.2 -123.45 -148.7 -123.65 -163.0 -124.5 -165.35 -126.0 -166.7 -127.65 -167.35 -130.3 -167.2 -133.5 -166.0 -135.15 -163.85 -137.15 -161.35 -138.0 -140.2 -138.8 -121.2 -138.8 -100.5 -141.8 -82.35 -145.15 -53.5 -155.0 -24.2 -152.65 -10.35 -153.0 -7.2 -154.0 -5.85 -155.3 -5.2 -157.15 -6.5 -162.3 -4.85 -165.8 -1.5 -167.8 2.3 -169.3 15.0 -171.8 17.1 -171.85 18.6 -171.6 20.15 -171.0 26.15 -166.65" fill="#8ba948" fill-rule="evenodd" stroke="none"/>
    <path d="M-205.1 -128.15 L-204.2 -129.25 -197.5 -130.75 -196.1 -130.6 -195.5 -129.3 -193.25 -119.5 -193.1 -117.55 -193.6 -116.65 -200.25 -114.8 -201.7 -114.9 -202.7 -115.5 -205.0 -126.3 -205.1 -128.15" fill="#8ba948" fill-rule="evenodd" stroke="none"/>
    <path d="M68.9 -158.1 L71.25 -149.75 70.15 -146.8 69.85 -146.25 68.6 -150.35 68.55 -150.65 67.9 -145.85 66.15 -139.6 61.8 -133.8 55.3 -127.3 48.5 -121.5 48.55 -121.65 60.05 -133.8 63.9 -140.2 65.6 -146.3 66.55 -157.85 61.3 -177.05 58.6 -182.35 55.35 -184.9 49.9 -186.25 45.05 -185.6 14.2 -174.1 14.15 -174.05 -13.8 -167.3 -13.85 -167.25 -29.45 -164.7 -59.3 -155.85 -79.2 -148.5 -92.15 -144.95 -92.25 -144.95 -125.3 -140.45 -165.75 -139.8 -175.0 -138.05 -180.9 -135.15 -185.5 -131.8 -188.3 -127.75 -189.4 -124.7 -190.0 -119.45 -189.6 -114.5 -191.85 -113.85 -192.35 -119.5 -191.65 -125.25 -190.4 -128.85 -187.2 -133.45 -182.15 -137.15 -175.75 -140.25 -166.0 -142.15 -125.5 -142.8 -92.65 -147.25 -79.95 -150.7 -60.05 -158.1 -60.0 -158.1 -29.95 -167.0 -14.25 -169.55 13.5 -176.3 44.5 -187.9 50.05 -188.6 56.4 -187.05 60.45 -183.85 63.5 -177.9 68.85 -158.25 68.9 -158.25 68.9 -158.1" fill="#959595" fill-rule="evenodd" stroke="none"/>
    <path d="M-15.7 -163.1 L-14.25 -161.2 -15.0 -157.85 -17.35 -155.2 -20.0 -153.85 -29.45 -150.55 -32.35 -149.1 -34.15 -146.55 -36.25 -144.65 -38.6 -143.75 -41.7 -144.0 -44.9 -145.3 -45.7 -147.55 -45.8 -149.85 -46.8 -151.0 -51.7 -151.85 -53.35 -153.4 -54.15 -155.4 -53.45 -156.65 -47.7 -159.1 -34.15 -163.0 -28.9 -163.2 -24.6 -164.1 -18.45 -164.3 -15.7 -163.1" fill="#90865c" fill-rule="evenodd" stroke="none"/>
    <path d="M-80.45 -123.3 L-78.7 -122.75 -75.15 -122.2 -73.15 -122.3 -71.25 -121.85 -69.15 -120.85 -68.0 -119.65 -68.15 -118.2 -68.9 -117.1 -70.45 -117.2 -75.45 -118.55 -79.6 -121.0 -81.8 -123.0 -81.6 -123.4 -80.45 -123.3" fill="#90865c" fill-rule="evenodd" stroke="none"/>
    <path d="M-60.45 -113.55 L-63.9 -114.85 -64.7 -116.4 -64.25 -118.2 -62.8 -119.4 -60.9 -120.0 -57.35 -119.85 -54.35 -119.3 -50.9 -118.0 -49.7 -116.55 -49.0 -114.85 -49.25 -113.2 -50.7 -112.3 -60.45 -113.55" fill="#90865c" fill-rule="evenodd" stroke="none"/>
    <path d="M-10.7 -123.1 L-6.6 -123.4 -3.9 -123.1 -0.45 -121.1 1.85 -120.65 3.55 -121.1 5.2 -122.2 9.85 -128.0 13.4 -129.2 17.3 -129.2 23.55 -130.55 33.85 -134.0 37.2 -134.55 39.4 -134.3 40.3 -133.75 41.0 -132.3 40.3 -129.4 38.65 -127.3 32.85 -123.4 29.4 -121.75 16.4 -117.3 14.3 -116.75 13.0 -115.65 10.55 -110.75 9.0 -109.65 6.3 -109.3 4.3 -109.4 -3.8 -112.55 -31.15 -110.4 -40.15 -110.85 -41.7 -111.65 -43.15 -113.0 -42.9 -114.55 -42.0 -116.1 -40.9 -117.2 -37.7 -117.75 -29.8 -117.85 -27.8 -118.4 -25.35 -119.4 -20.45 -119.75 -18.15 -120.2 -10.7 -123.1" fill="#90865c" fill-rule="evenodd" stroke="none"/>
    <path d="M41.55 -166.0 L43.25 -167.4 45.0 -167.5 46.0 -166.0 45.75 -159.45 47.6 -158.75 51.5 -159.9 55.2 -158.55 56.35 -155.45 56.15 -155.0 55.6 -154.2 54.15 -152.75 53.0 -152.2 52.2 -152.25 49.75 -153.25 48.75 -153.2 47.85 -152.7 47.2 -151.9 46.5 -150.7 46.15 -150.4 45.5 -150.15 44.05 -150.45 42.15 -151.85 41.0 -152.35 40.3 -153.35 39.5 -158.05 39.55 -159.4 41.55 -166.0" fill="#fee79a" fill-rule="evenodd" stroke="none"/>
    <path d="M-64.95 -148.3 L-57.6 -150.05 -52.25 -148.05 -49.95 -144.0 -50.3 -142.65 -51.7 -142.2 -52.1 -142.15 -52.75 -142.3 -54.0 -142.75 -55.15 -142.8 -56.5 -142.5 -58.1 -141.75 -58.9 -141.15 -60.75 -137.05 -61.8 -136.05 -62.8 -135.55 -64.65 -135.2 -65.5 -135.25 -66.85 -135.7 -68.0 -136.3 -70.65 -138.4 -71.65 -138.75 -73.05 -138.4 -74.65 -136.7 -75.3 -136.25 -76.1 -136.25 -77.45 -137.25 -78.15 -137.95 -78.75 -138.9 -79.0 -140.25 -78.7 -141.4 -78.4 -142.0 -76.85 -143.2 -64.95 -148.3" fill="#fee79a" fill-rule="evenodd" stroke="none"/>
    <path d="M-61.45 -149.25 L-59.2 -150.7 -55.0 -150.8 -53.8 -150.35 -52.35 -149.5 -51.55 -148.9 -49.7 -146.75 -49.15 -145.1 -49.25 -144.0 -49.85 -143.0 -50.3 -142.65 -50.95 -145.25 -52.45 -147.25 -55.2 -149.0 -57.35 -149.15 -62.2 -148.0 -63.85 -148.15 -76.85 -143.2 -67.2 -148.2 -65.0 -149.0 -64.1 -149.15 -62.1 -149.1 -61.45 -149.25" fill="#ecaf5f" fill-rule="evenodd" stroke="none"/>
    <path d="M43.4 -167.15 L41.55 -166.0 42.45 -167.05 43.25 -167.7 44.2 -168.05 45.0 -168.1 45.7 -167.6 46.65 -166.35 46.85 -165.85 46.85 -165.2 46.6 -163.55 45.9 -161.2 46.0 -160.25 46.5 -159.55 46.95 -159.3 47.35 -159.3 49.7 -160.25 50.8 -160.5 53.95 -160.25 55.0 -159.95 55.45 -159.7 56.0 -159.15 56.3 -158.5 56.6 -157.0 56.6 -156.5 56.35 -155.45 56.15 -155.0 55.8 -156.5 54.3 -158.4 51.75 -159.15 47.3 -158.3 46.05 -158.5 45.5 -159.05 45.3 -160.0 45.3 -161.65 45.65 -164.8 45.4 -166.5 44.65 -167.05 43.4 -167.15" fill="#ecaf5f" fill-rule="evenodd" stroke="none"/>
    <path d="M39.45 -181.0 L39.75 -181.3 41.5 -182.3 42.0 -182.45 48.9 -182.15 49.75 -181.95 52.6 -180.7 53.9 -179.85 57.55 -175.15 59.15 -172.1 59.55 -170.65 59.8 -168.9 59.6 -166.9 59.35 -165.95 58.4 -164.25 56.5 -162.2 55.15 -161.15 54.05 -161.0 50.1 -161.1 49.05 -160.95 48.1 -161.0 47.5 -161.5 47.25 -162.05 47.5 -164.4 47.5 -165.05 47.1 -166.5 46.45 -167.75 46.0 -168.25 45.0 -169.1 41.45 -170.25 39.55 -171.8 38.5 -173.35 38.3 -174.0 38.3 -174.5 39.65 -177.6 39.85 -178.7 39.25 -180.6 39.45 -181.0" fill="#bdc753" fill-rule="evenodd" stroke="none"/>
    <path d="M35.55 -132.0 L37.3 -131.5 38.4 -128.75 36.25 -126.55 32.15 -128.5 32.0 -126.65 29.9 -125.3 28.05 -125.75 27.15 -127.15 28.5 -128.8 27.15 -129.65 29.25 -131.55 31.75 -130.5 32.3 -129.5 35.55 -132.0" fill="#454f3c" fill-rule="evenodd" stroke="none"/>
    <path d="M64.2 -184.6 L72.45 -160.7 72.9 -156.8 72.5 -154.5 62.4 -183.7 60.75 -186.1 57.4 -187.9 53.65 -189.0 49.95 -189.2 43.85 -188.35 38.1 -186.7 28.0 -182.35 27.95 -182.35 1.55 -174.35 1.5 -174.35 -26.45 -168.7 -37.7 -164.85 -43.0 -164.0 -59.4 -159.0 -62.8 -157.4 -63.9 -157.5 -67.1 -156.4 -67.05 -156.25 -70.95 -154.15 -73.6 -153.15 -77.1 -152.95 -81.75 -151.35 -81.85 -151.35 -99.05 -148.15 -124.0 -145.7 -125.45 -145.1 -128.2 -145.35 -169.6 -142.75 -176.35 -142.0 -188.15 -138.55 -195.6 -135.6 -204.4 -130.55 -211.8 -125.25 -211.8 -126.65 -211.3 -128.7 -205.65 -132.7 -196.45 -137.65 -188.9 -140.4 -176.7 -143.95 -169.75 -144.75 -129.9 -147.25 -127.7 -148.65 -122.85 -147.85 -99.35 -150.1 -82.3 -153.3 -77.25 -155.0 -74.85 -156.65 -72.6 -157.4 -69.35 -157.7 -64.3 -159.45 -63.6 -160.3 -57.0 -162.55 -56.1 -162.1 -42.25 -166.3 -37.85 -168.15 -25.75 -170.95 -25.7 -170.95 1.05 -176.3 27.3 -184.25 37.4 -188.6 43.45 -190.3 50.0 -191.2 57.65 -190.05 62.1 -187.65 64.2 -184.6" fill="#454f3c" fill-rule="evenodd" stroke="none"/>
    <path d="M-55.45 -112.25 L-56.0 -113.55 -56.25 -114.85 -55.0 -116.3 -54.5 -118.0 -52.7 -117.0 -52.35 -115.65 -51.7 -114.15 -55.45 -112.25" fill="#454f3c" fill-rule="evenodd" stroke="none"/>
    <path d="M-59.0 -114.0 L-61.65 -114.1 -62.5 -116.0 -60.75 -117.55 -58.9 -117.75 -57.25 -115.45 -59.0 -114.0" fill="#454f3c" fill-rule="evenodd" stroke="none"/>
    <path d="M-71.0 -117.8 L-73.2 -117.8 -74.35 -119.55 -73.9 -121.55 -73.0 -121.85 -72.2 -121.15 -70.85 -120.65 -69.85 -118.8 -71.0 -117.8" fill="#454f3c" fill-rule="evenodd" stroke="none"/>
    <path d="M-15.45 -161.85 L-14.95 -161.15 -14.1 -160.6 -13.95 -158.25 -14.4 -156.55 -16.3 -155.65 -18.95 -156.6 -20.85 -158.5 -21.7 -159.8 -21.0 -162.4 -19.65 -163.05 -18.15 -161.75 -15.45 -161.85" fill="#454f3c" fill-rule="evenodd" stroke="none"/>
    <path d="M-43.95 -161.7 L-41.4 -161.1 -40.5 -159.0 -40.7 -157.05 -41.6 -155.2 -43.7 -153.8 Q-45.2 -154.5 -46.7 -155.25 L-45.7 -153.65 -47.2 -152.0 -50.35 -151.65 -51.85 -152.9 -52.8 -154.6 -52.3 -156.85 -49.15 -158.2 -47.4 -157.55 -46.95 -159.65 -43.95 -161.7" fill="#454f3c" fill-rule="evenodd" stroke="none"/>
    <path d="M-34.95 -150.65 L-34.0 -149.5 -33.85 -146.65 -35.15 -145.55 -38.35 -145.7 -39.95 -144.25 -41.5 -145.25 -43.5 -145.75 -44.2 -146.8 -43.5 -147.55 -42.75 -148.9 -41.1 -150.0 -38.7 -150.0 -37.35 -151.6 -34.95 -150.65" fill="#454f3c" fill-rule="evenodd" stroke="none"/>
    <path d="M-39.2 -117.8 L-38.0 -117.0 -36.7 -117.3 -35.1 -116.05 -34.35 -114.55 -34.95 -113.0 -36.2 -111.3 -38.5 -111.15 -41.7 -111.65 -41.85 -113.8 -41.2 -116.8 -39.2 -117.8" fill="#454f3c" fill-rule="evenodd" stroke="none"/>
    <path d="M-26.75 -113.0 L-29.25 -112.0 -31.6 -113.05 -31.45 -115.8 -28.1 -117.15 -26.7 -116.25 -26.75 -113.0" fill="#454f3c" fill-rule="evenodd" stroke="none"/>
    <path d="M-16.2 -116.5 L-15.25 -118.15 -13.5 -119.05 -11.6 -118.4 -9.95 -116.5 -7.95 -118.3 -5.6 -118.4 -4.35 -117.75 -4.9 -116.0 -6.25 -114.3 -9.6 -114.0 -9.1 -111.55 -11.0 -110.1 -14.35 -111.8 -14.95 -114.25 -16.45 -112.5 -18.1 -113.65 -17.35 -115.55 -16.2 -116.5" fill="#454f3c" fill-rule="evenodd" stroke="none"/>
    <path d="M16.35 -124.85 L14.85 -122.6 10.85 -124.85 12.6 -126.85 15.35 -127.35 16.35 -124.85" fill="#454f3c" fill-rule="evenodd" stroke="none"/>
    <path d="M-38.65 -161.35 L-35.5 -163.15 -34.8 -161.75 -34.9 -158.35 -36.3 -156.85 -38.15 -157.5 -38.85 -160.0 -38.65 -161.35" fill="#454f3c" fill-rule="evenodd" stroke="none"/>
    <path d="M22.0 -121.0 L20.3 -120.3 19.4 -121.2 20.0 -122.4 21.85 -122.3 22.0 -121.0" fill="#454f3c" fill-rule="evenodd" stroke="none"/>
    <path d="M9.2 -111.4 L5.4 -111.3 3.85 -113.75 4.4 -117.1 7.1 -117.65 9.55 -117.2 11.2 -115.0 10.0 -113.75 9.2 -111.4" fill="#454f3c" fill-rule="evenodd" stroke="none"/>
    <path d="M-203.0 -131.15 L-200.35 -131.65 -198.35 -132.65 -196.7 -132.0 -195.5 -129.8 -197.5 -128.65 -199.0 -129.15 -200.0 -127.5 -203.0 -127.0 -204.35 -128.65 -203.0 -131.15" fill="#454f3c" fill-rule="evenodd" stroke="none"/>
    <path d="M-209.0 -121.15 L-210.0 -119.65 -210.65 -119.5 -211.25 -121.1 -211.55 -122.55 -211.2 -122.8 -209.35 -122.65 -209.0 -121.15" fill="#454f3c" fill-rule="evenodd" stroke="none"/>
    <path d="M-76.35 -120.2 L-77.25 -119.55 -78.8 -120.4 -78.7 -121.75 -77.35 -122.4 -75.8 -122.1 -76.35 -120.2" fill="#454f3c" fill-rule="evenodd" stroke="none"/>
  </g>
</svg>
