<?xml version="1.0" encoding="UTF-8" standalone="no"?>
<svg xmlns:ffdec="https://www.free-decompiler.com/flash" xmlns:xlink="http://www.w3.org/1999/xlink" ffdec:objectType="shape" height="77.75px" width="257.1px" xmlns="http://www.w3.org/2000/svg">
  <g transform="matrix(1.0, 0.0, 0.0, 1.0, 179.5, 133.8)">
    <path d="M70.8 -120.8 L75.15 -117.7 76.15 -116.4 77.0 -114.4 77.35 -112.8 77.6 -110.45 77.2 -101.5 74.6 -95.15 73.1 -92.85 70.95 -91.2 68.05 -89.85 11.1 -78.85 8.8 -77.7 7.0 -76.4 -8.55 -63.4 -15.3 -58.6 -18.3 -56.95 -21.65 -56.05 -25.9 -56.05 -30.15 -56.65 -34.55 -58.05 -62.85 -73.05 -70.9 -78.2 -74.7 -78.8 -78.1 -78.2 -83.3 -74.3 -89.35 -71.2 -93.5 -70.15 -99.35 -69.45 -104.7 -70.05 -144.45 -83.6 -152.8 -87.2 -162.05 -92.6 -168.4 -97.05 -173.1 -101.6 -175.85 -105.6 -178.1 -109.8 -179.5 -118.65 -179.5 -121.75 -178.45 -124.55 -176.65 -126.65 -173.3 -128.45 -168.45 -129.65 -163.05 -130.0 -130.85 -128.6 -122.5 -129.1 -110.6 -133.1 -106.6 -133.8 -102.7 -133.6 -59.95 -124.35 -28.15 -121.6 -22.5 -121.85 -19.25 -123.15 -10.15 -131.25 -6.25 -132.95 -1.75 -133.5 8.6 -132.8 29.9 -128.8 62.5 -123.75 68.35 -121.9 70.8 -120.8" fill="#353e35" fill-rule="evenodd" stroke="none"/>
    <path d="M70.0 -119.55 L74.0 -116.75 74.85 -115.6 75.55 -114.1 76.1 -110.4 75.75 -102.0 74.85 -99.3 72.0 -93.85 70.3 -92.55 67.75 -91.3 10.55 -80.25 8.05 -79.0 -9.35 -64.65 Q-12.65 -62.25 -16.0 -59.9 L-18.7 -58.4 -21.85 -57.55 -25.7 -57.55 -29.7 -58.05 -33.85 -59.4 -62.0 -74.3 -70.35 -79.65 -74.7 -80.3 -78.7 -79.65 -84.0 -75.65 -89.7 -72.65 -93.7 -71.65 -99.35 -71.0 -104.2 -71.5 -143.85 -85.0 -152.0 -88.5 -161.2 -93.8 -167.35 -98.15 -171.85 -102.5 -176.7 -110.3 -178.0 -118.65 -178.0 -121.5 -177.15 -123.8 -175.7 -125.5 -172.9 -127.0 -168.35 -128.15 -163.0 -128.5 -130.9 -127.1 -122.2 -127.65 -110.35 -131.65 -106.5 -132.3 -103.0 -132.15 -60.15 -122.85 -28.15 -120.1 -22.15 -120.35 -18.4 -121.85 -9.35 -130.0 -5.85 -131.5 -1.7 -132.0 8.3 -131.3 29.65 -127.3 62.1 -122.3 67.75 -120.55 70.0 -119.55" fill="#5e7c33" fill-rule="evenodd" stroke="none"/>
    <path d="M-94.6 -126.65 L-94.45 -125.65 -85.15 -121.55 -81.0 -117.65 -74.9 -114.1 -65.9 -112.2 -55.0 -110.75 -37.35 -107.65 -20.7 -108.55 -10.8 -110.0 -7.45 -109.85 -3.8 -109.2 7.2 -104.0 10.2 -101.55 10.8 -99.15 10.8 -96.8 9.8 -94.3 8.2 -92.4 4.85 -90.65 -10.0 -86.75 -23.6 -82.1 -33.15 -81.55 -37.9 -82.1 -42.35 -83.85 -58.15 -83.75 -73.8 -89.4 -82.6 -91.0 -88.6 -93.4 -99.45 -100.4 -107.45 -103.1 -114.45 -102.65 -119.25 -103.1 -122.9 -104.2 -133.0 -109.65 -135.0 -111.55 -136.0 -114.75 -135.9 -118.4 -135.0 -122.4 -140.2 -122.8 -145.7 -122.5 -148.7 -123.65 -163.0 -124.5 -165.35 -126.0 -166.7 -127.65 -166.85 -128.25 -163.0 -128.5 -130.9 -127.1 -122.2 -127.65 -114.15 -130.6 -106.5 -132.3 -103.0 -132.15 -70.25 -125.05 -73.35 -124.65 -78.0 -124.85 -86.25 -127.1 -94.6 -126.65" fill="#8ba948" fill-rule="evenodd" stroke="none"/>
    <path d="M-99.35 -71.0 L-104.2 -71.5 -140.25 -83.75 -129.85 -84.55 -128.95 -84.55 -128.15 -84.4 -127.45 -84.15 -115.85 -79.0 -95.75 -71.4 -99.35 -71.0" fill="#8ba948" fill-rule="evenodd" stroke="none"/>
    <path d="M68.6 -113.25 L69.6 -113.1 70.25 -112.35 71.7 -102.75 71.3 -102.3 70.1 -102.0 60.2 -101.3 59.6 -101.85 59.3 -102.65 58.15 -111.25 58.75 -112.0 68.6 -113.25" fill="#8ba948" fill-rule="evenodd" stroke="none"/>
    <path d="M48.55 -121.65 L50.75 -124.0 53.55 -123.55 50.5 -120.3 45.1 -108.2 42.35 -103.7 27.8 -91.5 12.75 -80.8 10.55 -80.25 8.05 -79.0 6.85 -78.15 9.5 -81.35 26.45 -93.4 40.6 -105.25 43.05 -109.3 48.55 -121.65" fill="#959595" fill-rule="evenodd" stroke="none"/>
    <path d="M-80.45 -123.3 L-78.7 -122.75 -75.15 -122.2 -73.15 -122.3 -71.25 -121.85 -69.15 -120.85 -68.0 -119.65 -68.15 -118.2 -68.9 -117.1 -70.45 -117.2 -75.45 -118.55 -79.6 -121.0 -81.8 -123.0 -81.6 -123.4 -80.45 -123.3" fill="#90865c" fill-rule="evenodd" stroke="none"/>
    <path d="M-60.45 -113.55 L-63.9 -114.85 -64.7 -116.4 -64.25 -118.2 -62.8 -119.4 -60.9 -120.0 -57.35 -119.85 -54.35 -119.3 -50.9 -118.0 -49.7 -116.55 -49.0 -114.85 -49.25 -113.2 -50.7 -112.3 -60.45 -113.55" fill="#90865c" fill-rule="evenodd" stroke="none"/>
    <path d="M-10.7 -123.1 L-6.6 -123.4 -3.9 -123.1 -0.45 -121.1 1.85 -120.65 3.55 -121.1 5.2 -122.2 9.85 -128.0 13.4 -129.2 17.3 -129.2 18.35 -129.4 37.05 -126.15 32.85 -123.4 29.4 -121.75 16.4 -117.3 14.3 -116.75 13.0 -115.65 10.55 -110.75 9.0 -109.65 6.3 -109.3 4.3 -109.4 -3.8 -112.55 -31.15 -110.4 -40.15 -110.85 -41.7 -111.65 -43.15 -113.0 -42.9 -114.55 -42.0 -116.1 -40.9 -117.2 -37.7 -117.75 -29.8 -117.85 -27.8 -118.4 -25.35 -119.4 -20.45 -119.75 -18.15 -120.2 -10.7 -123.1" fill="#90865c" fill-rule="evenodd" stroke="none"/>
    <path d="M-52.7 -80.0 L-50.0 -83.65 -48.85 -84.0 -44.75 -80.5 -27.6 -79.4 -21.6 -80.3 -11.6 -84.0 -9.0 -84.3 -7.45 -83.4 -7.25 -82.1 -7.8 -80.2 -9.85 -77.0 -16.35 -73.5 -18.7 -72.85 -23.45 -72.75 -26.45 -73.2 -29.35 -74.55 -32.25 -75.2 -34.5 -75.0 -39.7 -72.15 -49.6 -73.2 -55.5 -75.65 -62.15 -79.85 -66.35 -81.3 -67.0 -82.5 -66.45 -83.3 -65.25 -83.75 -62.0 -82.65 -59.0 -82.5 -57.35 -81.65 -56.0 -80.65 -54.85 -80.0 -52.7 -80.0" fill="#90865c" fill-rule="evenodd" stroke="none"/>
    <path d="M-90.15 -74.3 L-90.25 -72.85 -90.65 -72.4 -93.7 -71.65 -95.95 -71.4 -112.9 -78.3 -118.0 -82.85 -120.45 -86.85 -121.25 -88.85 -121.35 -90.4 -120.9 -92.2 -117.25 -99.4 -116.25 -100.55 -114.0 -101.0 -107.25 -100.2 -98.45 -96.3 -97.25 -95.0 -96.9 -93.3 -97.7 -92.3 -101.15 -92.2 -102.9 -91.55 -106.6 -88.55 -107.0 -87.0 -107.25 -84.2 -105.35 -81.75 -99.7 -79.85 -91.8 -75.85 -90.6 -75.0 -90.15 -74.3" fill="#90865c" fill-rule="evenodd" stroke="none"/>
    <path d="M-56.45 -86.45 L-56.45 -87.45 -56.75 -88.0 -57.95 -88.75 -58.5 -89.25 -58.75 -89.6 -59.0 -90.2 -58.1 -92.65 -57.65 -93.25 -56.1 -93.4 -53.5 -91.75 -52.85 -89.25 -52.6 -88.55 -51.9 -88.35 -51.5 -88.35 -50.9 -88.75 -50.5 -89.55 -50.5 -90.3 -50.7 -91.4 -50.55 -92.3 -49.25 -93.8 -47.1 -94.15 -45.85 -89.05 -43.2 -86.9 -41.5 -84.8 -41.6 -83.7 -42.25 -82.75 -42.55 -82.5 -43.1 -82.2 -43.75 -82.0 -45.0 -82.05 -45.8 -82.55 -47.85 -84.6 -48.8 -84.8 -50.4 -84.75 -50.95 -84.3 -51.45 -82.55 -51.8 -81.8 -52.6 -81.05 -53.2 -80.75 -53.8 -80.6 -54.4 -80.6 -55.05 -80.75 -55.4 -80.95 -56.1 -81.45 -56.85 -82.3 -57.2 -82.85 -57.5 -83.7 -57.5 -84.45 -57.35 -85.05 -57.1 -85.6 -56.45 -86.45" fill="#fee79a" fill-rule="evenodd" stroke="none"/>
    <path d="M-128.15 -104.35 L-128.2 -102.25 -128.55 -101.7 -129.0 -101.25 -130.25 -101.05 -131.25 -100.7 -132.0 -100.25 -132.3 -99.85 -132.5 -99.05 -132.7 -95.85 -132.95 -95.0 -133.55 -94.1 -136.9 -91.3 -140.1 -89.5 -141.4 -89.1 -142.75 -89.15 -144.05 -89.5 -145.0 -89.95 -145.75 -90.5 -147.2 -91.95 -147.85 -92.8 -148.2 -93.9 -148.25 -94.45 -148.15 -95.1 -147.5 -95.8 -146.95 -96.0 -144.1 -95.25 -142.5 -95.2 -141.9 -95.45 -141.1 -96.05 -140.75 -96.65 -140.5 -97.4 -140.7 -98.75 -141.1 -99.6 -141.7 -100.1 -142.05 -100.25 -143.0 -100.4 -144.35 -100.0 -145.15 -100.0 -146.15 -100.35 -146.6 -101.0 -146.85 -101.65 -147.0 -102.6 -146.9 -103.35 -146.7 -103.9 -145.1 -104.85 -142.7 -104.7 -139.65 -103.0 -138.65 -102.3 -137.75 -102.1 -137.1 -102.15 -136.75 -102.55 -136.45 -103.0 -136.3 -103.7 -136.3 -104.15 -136.4 -104.6 -136.95 -105.5 -138.35 -106.4 -138.65 -106.8 -138.9 -107.7 -138.75 -108.4 -137.65 -109.25 -135.65 -109.4 -132.4 -106.2 -128.15 -104.35" fill="#fee79a" fill-rule="evenodd" stroke="none"/>
    <path d="M-56.25 -93.9 L-55.1 -93.85 -54.8 -93.7 -53.25 -91.95 -53.0 -91.35 -52.85 -89.25 -53.6 -91.15 -54.4 -92.05 -55.2 -92.6 -57.65 -93.25 -57.25 -93.55 -56.85 -93.75 -56.25 -93.9" fill="#ecaf5f" fill-rule="evenodd" stroke="none"/>
    <path d="M-47.95 -93.35 L-49.25 -93.3 -50.55 -92.3 -50.25 -93.0 -49.5 -94.2 -49.1 -94.5 -48.65 -94.6 -47.7 -94.65 -46.25 -94.5 -45.95 -94.25 -45.7 -93.5 -45.7 -90.0 -45.35 -89.05 -44.7 -88.25 -43.05 -87.5 -42.35 -86.75 -41.75 -85.75 -41.5 -84.8 -41.6 -83.7 -41.9 -83.2 -42.1 -84.5 -43.65 -86.55 -45.5 -87.95 -46.15 -88.65 -46.85 -92.2 -47.25 -92.9 -47.95 -93.35" fill="#ecaf5f" fill-rule="evenodd" stroke="none"/>
    <path d="M-142.5 -95.2 L-141.9 -95.45 -142.35 -94.9 -144.0 -95.0 -145.65 -95.35 -146.25 -95.6 -147.35 -95.6 -148.15 -95.1 -147.95 -95.6 -147.6 -96.0 -147.25 -96.3 -146.75 -96.5 -146.05 -96.5 -145.6 -96.35 -143.85 -95.35 -142.5 -95.2" fill="#ecaf5f" fill-rule="evenodd" stroke="none"/>
    <path d="M-145.3 -104.95 L-143.9 -105.25 -143.3 -105.2 -141.2 -104.5 -139.65 -103.0 -138.65 -102.3 -137.75 -102.1 -139.35 -102.15 -141.25 -103.55 -142.75 -104.4 -144.7 -104.65 -146.7 -103.9 -146.1 -104.55 -145.3 -104.95" fill="#ecaf5f" fill-rule="evenodd" stroke="none"/>
    <path d="M-127.9 -104.25 L-127.75 -103.25 -128.2 -102.25 -128.3 -103.25 -129.2 -104.4 -132.5 -106.0 -134.45 -107.6 -135.35 -108.5 -136.25 -109.0 -137.7 -109.0 -138.75 -108.4 -137.85 -109.35 -136.85 -109.75 -135.75 -109.85 -134.8 -109.6 -134.2 -109.25 -131.95 -106.55 -131.0 -106.1 -129.6 -105.65 -128.5 -105.05 -127.9 -104.25" fill="#ecaf5f" fill-rule="evenodd" stroke="none"/>
    <path d="M-168.5 -111.5 L-169.05 -113.5 -169.2 -114.75 -169.0 -116.5 -168.45 -117.9 -164.1 -122.0 -163.2 -122.3 -159.8 -121.95 -158.15 -122.35 -153.0 -122.4 -151.2 -121.8 -150.15 -121.15 -149.05 -120.2 -147.2 -117.7 -146.5 -115.75 -146.1 -113.2 -146.25 -110.3 -146.75 -107.85 -148.8 -103.75 -149.95 -102.45 -151.3 -101.4 -152.45 -100.85 -153.8 -100.45 -155.1 -100.3 -157.0 -100.45 -159.25 -101.25 -160.25 -102.2 -162.35 -105.05 -165.8 -107.65 -167.7 -109.75 -168.5 -111.5" fill="#bdc753" fill-rule="evenodd" stroke="none"/>
    <path d="M27.6 -127.7 L32.0 -126.95 32.0 -126.65 29.9 -125.3 28.05 -125.75 27.15 -127.15 27.6 -127.7" fill="#454f3c" fill-rule="evenodd" stroke="none"/>
    <path d="M-17.15 -73.85 L-19.9 -75.1 -20.8 -78.55 -19.65 -81.1 -16.9 -80.8 -15.15 -81.35 -12.4 -80.6 -12.35 -77.75 -14.6 -74.55 -17.15 -73.85" fill="#454f3c" fill-rule="evenodd" stroke="none"/>
    <path d="M-40.1 -81.75 L-38.45 -80.4 -36.8 -81.4 -35.25 -81.3 -34.95 -82.0 -33.1 -83.3 -29.8 -82.2 -29.5 -80.65 -30.6 -78.15 -31.7 -77.0 -33.35 -77.0 -33.95 -78.05 -35.25 -77.5 -35.6 -75.3 -37.5 -74.4 -40.1 -74.4 -40.75 -76.15 -42.45 -76.4 -42.45 -73.25 -43.2 -72.0 -44.6 -72.1 -45.7 -72.9 -46.2 -74.65 -49.65 -73.35 -52.7 -74.75 -53.7 -79.05 -52.85 -82.0 -51.0 -82.85 -50.45 -84.55 -48.8 -84.65 -48.6 -83.2 -47.0 -81.55 -45.35 -75.85 -43.25 -76.4 -44.6 -78.4 -44.75 -80.5 -42.3 -82.25 -40.1 -81.75" fill="#454f3c" fill-rule="evenodd" stroke="none"/>
    <path d="M-55.45 -112.25 L-56.0 -113.55 -56.25 -114.85 -55.0 -116.3 -54.5 -118.0 -52.7 -117.0 -52.35 -115.65 -51.7 -114.15 -55.45 -112.25" fill="#454f3c" fill-rule="evenodd" stroke="none"/>
    <path d="M-59.0 -114.0 L-61.65 -114.1 -62.5 -116.0 -60.75 -117.55 -58.9 -117.75 -57.25 -115.45 -59.0 -114.0" fill="#454f3c" fill-rule="evenodd" stroke="none"/>
    <path d="M-71.0 -117.8 L-73.2 -117.8 -74.35 -119.55 -73.9 -121.55 -73.0 -121.85 -72.2 -121.15 -70.85 -120.65 -69.85 -118.8 -71.0 -117.8" fill="#454f3c" fill-rule="evenodd" stroke="none"/>
    <path d="M-93.2 -77.05 L-92.15 -74.25 -92.8 -71.85 -93.7 -71.65 -97.5 -71.2 -97.95 -73.15 -99.5 -71.55 -102.75 -71.65 -103.2 -73.55 -107.0 -74.5 -111.25 -74.9 -112.35 -78.05 -111.2 -82.0 -114.45 -81.9 -115.95 -83.05 -116.35 -87.15 -118.1 -87.3 -119.2 -88.8 -117.6 -89.15 -117.85 -90.25 -119.85 -91.05 -119.6 -93.15 -119.75 -95.8 -116.95 -97.75 -116.1 -97.8 -115.5 -99.65 -112.7 -100.65 -109.1 -100.15 -106.7 -97.9 -104.7 -94.9 -106.05 -93.8 -107.7 -95.05 -110.4 -91.05 -111.5 -91.4 -112.85 -90.25 -111.7 -89.15 -108.35 -87.75 -106.2 -85.9 -104.6 -83.8 -105.7 -82.9 -104.25 -81.4 -103.6 -79.85 -104.25 -79.1 -104.7 -78.75 -105.25 -77.55 -102.85 -77.65 -101.6 -76.8 -100.0 -77.65 -98.6 -76.55 -97.75 -74.7 -97.2 -75.9 -95.25 -77.2 -94.0 -77.55 -93.2 -77.05" fill="#454f3c" fill-rule="evenodd" stroke="none"/>
    <path d="M-38.5 -111.15 L-41.7 -111.65 -41.85 -113.8 -41.2 -116.8 -39.2 -117.8 -38.0 -117.0 -36.7 -117.3 -35.1 -116.05 -34.35 -114.55 -34.95 -113.0 -36.2 -111.3 -38.5 -111.15" fill="#454f3c" fill-rule="evenodd" stroke="none"/>
    <path d="M-26.75 -113.0 L-29.25 -112.0 -31.6 -113.05 -31.45 -115.8 -28.1 -117.15 -26.7 -116.25 -26.75 -113.0" fill="#454f3c" fill-rule="evenodd" stroke="none"/>
    <path d="M-14.95 -114.25 L-16.45 -112.5 -18.1 -113.65 -17.35 -115.55 -16.2 -116.5 -15.25 -118.15 -13.5 -119.05 -11.6 -118.4 -9.95 -116.5 -7.95 -118.3 -5.6 -118.4 -4.35 -117.75 -4.9 -116.0 -6.25 -114.3 -9.6 -114.0 -9.1 -111.55 -11.0 -110.1 -14.35 -111.8 -14.95 -114.25" fill="#454f3c" fill-rule="evenodd" stroke="none"/>
    <path d="M16.35 -124.85 L14.85 -122.6 10.85 -124.85 12.6 -126.85 15.35 -127.35 16.35 -124.85" fill="#454f3c" fill-rule="evenodd" stroke="none"/>
    <path d="M22.0 -121.0 L20.3 -120.3 19.4 -121.2 20.0 -122.4 21.85 -122.3 22.0 -121.0" fill="#454f3c" fill-rule="evenodd" stroke="none"/>
    <path d="M9.2 -111.4 L5.4 -111.3 3.85 -113.75 4.4 -117.1 7.1 -117.65 9.55 -117.2 11.2 -115.0 10.0 -113.75 9.2 -111.4" fill="#454f3c" fill-rule="evenodd" stroke="none"/>
    <path d="M-98.0 -98.0 L-98.0 -96.65 -99.15 -94.65 -102.0 -93.3 -102.35 -94.75 -104.0 -95.2 -104.45 -96.4 -103.25 -98.1 -101.45 -98.85 -99.9 -99.75 -98.6 -99.1 -98.0 -98.0" fill="#454f3c" fill-rule="evenodd" stroke="none"/>
    <path d="M-173.7 -111.5 L-172.85 -111.15 -171.7 -112.15 -170.5 -111.0 -169.7 -109.15 -170.2 -107.15 -173.5 -106.3 -174.7 -108.15 -174.7 -110.0 -173.85 -110.15 -173.7 -111.5" fill="#454f3c" fill-rule="evenodd" stroke="none"/>
    <path d="M-76.35 -120.2 L-77.25 -119.55 -78.8 -120.4 -78.7 -121.75 -77.35 -122.4 -75.8 -122.1 -76.35 -120.2" fill="#454f3c" fill-rule="evenodd" stroke="none"/>
  </g>
</svg>
