<?xml version="1.0" encoding="UTF-8" standalone="no"?>
<svg xmlns:ffdec="https://www.free-decompiler.com/flash" xmlns:xlink="http://www.w3.org/1999/xlink" ffdec:objectType="shape" height="68.45px" width="117.2px" xmlns="http://www.w3.org/2000/svg">
  <g transform="matrix(1.0, 0.0, 0.0, 1.0, 156.3, 92.3)">
    <path d="M-51.4 -74.6 L-43.75 -69.5 -41.05 -66.7 -39.6 -63.05 -39.1 -60.1 -39.65 -51.2 -41.4 -45.6 -45.2 -38.0 -51.2 -30.05 -55.2 -27.1 Q-57.45 -25.95 -59.75 -24.85 L-63.7 -23.95 -68.25 -23.85 -73.85 -24.75 -80.35 -27.15 -151.65 -69.1 -153.3 -70.55 -155.25 -73.0 -156.2 -75.85 -156.3 -79.5 -155.9 -82.75 -155.35 -84.75 -154.3 -86.95 -152.6 -88.5 -150.6 -89.7 -148.6 -90.45 -144.5 -91.1 -126.45 -92.3 -79.05 -85.6 -71.85 -83.75 -51.4 -74.6" fill="#353e35" fill-rule="evenodd" stroke="none"/>
    <path d="M-52.15 -73.3 L-44.85 -68.45 -42.35 -65.85 -41.1 -62.8 -40.6 -60.1 -41.1 -51.65 -42.75 -46.25 -46.4 -38.85 -52.25 -31.1 -55.9 -28.45 -60.1 -26.3 -63.75 -25.45 -68.15 -25.35 -73.4 -26.2 -76.75 -27.2 -79.6 -28.45 -150.65 -70.2 -152.15 -71.55 -153.95 -73.7 -154.7 -76.05 -154.8 -79.4 -154.45 -82.35 -154.0 -84.1 -153.1 -86.05 -151.85 -87.2 -150.1 -88.3 -148.35 -88.95 -146.25 -89.35 -126.5 -90.8 -79.4 -84.1 -72.4 -82.35 -52.15 -73.3" fill="#5e7c33" fill-rule="evenodd" stroke="none"/>
    <path d="M-58.6 -37.9 L-58.35 -40.15 -57.25 -41.9 -47.7 -46.65 -42.0 -48.65 -42.75 -46.25 -46.4 -38.85 -49.9 -34.1 -51.2 -34.65 -54.9 -35.25 -57.0 -36.15 -58.6 -37.9" fill="#8ba948" fill-rule="evenodd" stroke="none"/>
    <path d="M-86.2 -36.15 L-84.2 -36.65 -76.85 -35.0 -57.35 -27.7 -60.1 -26.3 -63.75 -25.45 -68.15 -25.35 -73.4 -26.2 -76.75 -27.2 -79.6 -28.45 -88.6 -33.75 -87.65 -35.35 -86.2 -36.15" fill="#8ba948" fill-rule="evenodd" stroke="none"/>
    <path d="M-86.3 -64.5 L-80.95 -61.65 -79.35 -61.3 -77.75 -61.4 -76.45 -61.8 -73.45 -64.4 -73.5 -49.5 -82.1 -46.25 -83.35 -45.55 -86.7 -45.65 -92.2 -48.05 -111.9 -59.3 -119.25 -62.75 -122.15 -63.55 -129.8 -64.75 -135.45 -67.4 -138.8 -68.3 -142.35 -68.55 -145.8 -69.65 -150.45 -75.4 -150.8 -77.65 -150.45 -79.4 -148.25 -82.0 -145.25 -83.1 -129.85 -84.55 -128.95 -84.55 -128.15 -84.4 -127.45 -84.15 -115.85 -79.0 -93.25 -70.5 -90.75 -69.25 -89.4 -68.3 -88.8 -67.7 -86.3 -64.5" fill="#8ba948" fill-rule="evenodd" stroke="none"/>
    <path d="M-53.95 -64.3 L-52.75 -65.25 -40.6 -59.8 -40.6 -59.4 -43.2 -53.8 -44.45 -53.05 -47.25 -52.9 -56.0 -57.05 -56.5 -58.05 -56.5 -59.15 -53.95 -64.3" fill="#8ba948" fill-rule="evenodd" stroke="none"/>
    <path d="M-88.5 -44.95 L-89.75 -43.0 -108.3 -54.9 -116.0 -57.6 -122.85 -58.8 -132.65 -59.6 -136.75 -62.05 -134.85 -62.15 -122.5 -61.1 -115.4 -59.9 -107.3 -57.05 -88.5 -44.95" fill="#959595" fill-rule="evenodd" stroke="none"/>
    <path d="M-50.8 -63.25 L-50.85 -63.3 -60.85 -69.2 -59.65 -71.2 -49.7 -65.35 -40.8 -61.35 -40.6 -60.1 -40.6 -58.7 -50.8 -63.25" fill="#959595" fill-rule="evenodd" stroke="none"/>
    <path d="M-91.8 -75.85 L-90.6 -75.0 -90.15 -74.3 -90.25 -72.85 -91.15 -71.85 -92.25 -69.85 -112.9 -78.3 -118.0 -82.85 -120.45 -86.85 -121.25 -88.85 -121.35 -90.05 -106.75 -88.0 -107.0 -87.0 -107.25 -84.2 -105.35 -81.75 -99.7 -79.85 -91.8 -75.85" fill="#90865c" fill-rule="evenodd" stroke="none"/>
    <path d="M-142.75 -89.15 L-144.05 -89.5 -144.3 -89.65 -139.3 -90.0 -140.1 -89.5 -141.4 -89.1 -142.75 -89.15" fill="#fee79a" fill-rule="evenodd" stroke="none"/>
    <path d="M-80.25 -75.9 L-78.1 -76.65 -73.9 -74.5 -72.1 -71.15 -72.45 -69.4 -72.9 -69.0 -74.65 -67.9 -76.0 -66.65 -76.4 -66.0 -77.25 -63.5 -78.3 -62.5 -78.75 -62.45 -79.95 -62.55 -84.95 -64.65 -86.3 -65.65 -87.05 -66.35 -87.7 -67.3 -88.15 -68.6 -88.2 -69.85 -88.0 -70.8 -87.1 -71.7 -82.7 -71.25 -81.95 -71.5 -81.6 -71.9 -81.0 -72.95 -80.25 -75.9" fill="#fee79a" fill-rule="evenodd" stroke="none"/>
    <path d="M-79.4 -76.75 L-78.95 -77.0 -77.45 -77.05 -76.4 -76.85 -75.55 -76.5 -74.45 -75.85 -73.2 -74.4 -72.35 -72.75 -71.9 -71.15 -71.95 -70.4 -72.45 -69.4 -72.3 -70.85 -72.6 -71.9 -73.7 -73.5 -76.35 -75.5 -78.95 -76.1 -80.25 -75.9 -79.4 -76.75" fill="#ecaf5f" fill-rule="evenodd" stroke="none"/>
    <path d="M-77.6 -62.75 L-78.3 -62.5 -76.4 -66.0 -76.9 -63.95 -77.25 -63.1 -77.6 -62.75" fill="#ecaf5f" fill-rule="evenodd" stroke="none"/>
    <path d="M-82.35 -71.35 L-81.95 -71.5 -82.8 -71.0 -84.7 -71.3 -87.35 -71.25 -88.0 -70.8 -87.65 -71.4 -87.0 -72.05 -86.25 -72.25 -85.45 -72.25 -83.05 -71.45 -82.35 -71.35" fill="#ecaf5f" fill-rule="evenodd" stroke="none"/>
    <path d="M-69.0 -70.85 L-68.5 -71.0 -66.7 -70.8 -65.2 -70.25 -64.9 -70.05 -63.9 -67.05 -62.6 -65.75 -60.8 -61.3 -60.15 -58.6 -60.15 -57.95 -60.9 -53.3 -62.5 -49.2 -63.55 -47.65 -64.55 -46.65 -65.65 -45.8 -66.85 -45.15 -69.35 -44.5 -72.3 -44.65 -73.85 -45.25 -74.8 -46.1 -76.5 -48.25 -78.0 -49.75 -78.25 -50.15 -78.4 -50.6 -78.4 -50.85 -78.05 -51.5 -77.3 -52.15 -75.9 -53.0 -75.35 -53.6 -74.7 -54.6 -74.15 -55.85 -74.0 -57.75 -75.65 -61.4 -75.8 -63.35 -75.6 -64.4 -75.1 -65.75 -74.5 -66.3 -72.45 -67.4 -71.1 -67.7 -69.75 -68.5 -69.35 -68.9 -69.25 -70.5 -69.0 -70.85" fill="#bdc753" fill-rule="evenodd" stroke="none"/>
    <path d="M-97.75 -74.7 L-97.2 -75.9 -95.25 -77.2 -94.0 -77.55 -93.2 -77.05 -92.15 -74.25 -92.85 -71.6 -94.15 -70.1 -96.1 -70.7 -97.35 -70.5 -97.95 -73.15 -99.5 -71.55 -102.75 -71.65 -103.2 -73.55 -107.0 -74.5 -111.25 -74.9 -112.35 -78.05 -111.2 -82.0 -114.45 -81.9 -115.95 -83.05 -116.35 -87.15 -118.1 -87.3 -119.2 -88.8 -117.6 -89.15 -117.7 -89.55 -110.15 -88.5 -108.35 -87.75 -106.2 -85.9 -104.6 -83.8 -105.7 -82.9 -104.25 -81.4 -103.6 -79.85 -104.25 -79.1 -104.7 -78.75 -105.25 -77.55 -102.85 -77.65 -101.6 -76.8 -100.0 -77.65 -98.6 -76.55 -97.75 -74.7" fill="#454f3c" fill-rule="evenodd" stroke="none"/>
  </g>
</svg>
