<?xml version="1.0" encoding="UTF-8" standalone="no"?>
<svg xmlns:ffdec="https://www.free-decompiler.com/flash" xmlns:xlink="http://www.w3.org/1999/xlink" ffdec:objectType="shape" height="221.5px" width="135.0px" xmlns="http://www.w3.org/2000/svg">
  <g transform="matrix(1.0, 0.0, 0.0, 1.0, 60.2, 133.35)">
    <path d="M67.8 -133.35 L67.8 -121.85 74.8 -121.85 74.8 -61.85 67.8 -61.85 67.8 83.65 -24.7 83.65 -24.7 75.65 Q-26.7 79.15 -29.2 82.65 L-31.2 84.65 Q-32.2 85.65 -33.7 86.15 -35.2 87.15 -37.2 87.65 L-40.2 88.15 -45.2 88.15 -47.7 87.65 -60.2 87.65 -60.2 -133.35 67.8 -133.35" fill="#424242" fill-rule="evenodd" stroke="none"/>
    <path d="M-57.7 -22.35 L-1.2 -22.35 -1.2 -55.85 37.8 -55.85 37.8 -57.35 -0.7 -57.35 -0.7 -77.35 56.8 -77.35 56.8 -57.35 50.8 -57.35 50.8 -55.85 56.8 -55.85 56.8 28.65 -57.7 28.65 -57.7 -22.35" fill="#959595" fill-rule="evenodd" stroke="none"/>
    <path d="M-46.7 70.15 Q-46.2 71.65 -46.2 72.65 L-44.2 74.65 -41.7 75.15 Q-40.2 74.65 -39.2 73.65 -38.2 72.65 -37.7 71.15 -37.7 60.15 -38.2 49.15 L-46.7 49.15 -46.7 70.15 M62.3 73.65 L65.8 73.65 65.8 81.65 -23.2 81.65 -23.2 73.65 -19.2 73.65 -19.2 49.15 -25.7 49.15 -25.7 70.15 Q-25.7 72.65 -26.2 74.65 L-28.2 79.65 Q-29.7 81.65 -31.7 83.15 -33.7 84.65 -36.2 85.65 -38.2 86.65 -40.2 87.15 L-46.2 86.65 -50.7 84.65 -54.7 81.65 -57.2 77.15 -58.2 73.65 -58.2 30.65 62.3 30.65 62.3 73.65" fill="#6f6f6f" fill-rule="evenodd" stroke="none"/>
    <path d="M4.3 31.15 L-13.7 31.15 -13.7 28.65 4.3 28.65 4.3 31.15" fill="#ffffff" fill-rule="evenodd" stroke="none"/>
    <path d="M-12.2 -17.85 L-52.2 -17.85 -52.2 -22.35 -12.2 -22.35 -12.2 -17.85" fill="#6f6f6f" fill-rule="evenodd" stroke="none"/>
    <path d="M23.8 -50.35 L2.8 -50.35 2.8 -55.85 23.8 -55.85 23.8 -50.35" fill="#6f6f6f" fill-rule="evenodd" stroke="none"/>
    <path d="M-29.7 -7.35 L-29.7 20.15 -42.7 20.15 -42.7 -7.35 -29.7 -7.35" fill="#6f6f6f" fill-rule="evenodd" stroke="none"/>
    <path d="M31.8 -51.35 L28.3 -51.35 28.3 -55.85 31.8 -55.85 31.8 -51.35" fill="#6f6f6f" fill-rule="evenodd" stroke="none"/>
    <path d="M56.8 -58.85 L52.8 -58.85 52.8 -75.85 56.8 -75.85 56.8 -58.85" fill="#6f6f6f" fill-rule="evenodd" stroke="none"/>
    <path d="M54.8 -14.85 L46.3 -14.85 46.3 -23.35 54.8 -23.35 54.8 -14.85" fill="#6f6f6f" fill-rule="evenodd" stroke="none"/>
    <path d="M56.8 -12.85 L56.8 15.65 46.3 15.65 46.3 -12.85 56.8 -12.85" fill="#6f6f6f" fill-rule="evenodd" stroke="none"/>
    <path d="M54.3 28.15 L45.8 28.15 45.8 19.65 54.3 19.65 54.3 28.15" fill="#6f6f6f" fill-rule="evenodd" stroke="none"/>
    <path d="M43.8 27.15 L14.8 27.15 14.8 17.65 43.8 17.65 43.8 27.15" fill="#6f6f6f" fill-rule="evenodd" stroke="none"/>
    <path d="M40.3 11.65 L26.8 11.65 26.8 -2.85 40.3 -2.85 40.3 11.65" fill="#6f6f6f" fill-rule="evenodd" stroke="none"/>
  </g>
</svg>
