<?xml version="1.0" encoding="UTF-8" standalone="no"?>
<svg xmlns:ffdec="https://www.free-decompiler.com/flash" xmlns:xlink="http://www.w3.org/1999/xlink" ffdec:objectType="shape" height="100.0px" width="100.0px" xmlns="http://www.w3.org/2000/svg">
  <g transform="matrix(1.0, 0.0, 0.0, 1.0, 0.0, 0.0)">
    <path d="M88.2 26.7 Q90.15 23.8 89.6 20.4 89.05 17.1 86.2 14.9 83.2 12.85 79.9 13.4 76.5 13.95 74.3 16.9 L39.95 65.05 24.75 49.85 Q22.1 47.4 18.7 47.4 15.4 47.4 12.75 49.85 10.2 52.5 10.2 55.9 10.2 59.3 12.75 61.85 L35.05 84.1 Q37.6 86.6 41.0 86.65 L41.75 86.65 Q45.6 86.2 47.95 83.1 L88.2 26.7 M88.75 3.1 Q93.85 6.15 96.85 11.25 99.9 16.35 100.0 22.65 L100.0 77.35 Q99.9 83.65 96.85 88.75 93.85 93.85 88.75 96.85 83.65 99.9 77.35 100.0 L22.65 100.0 Q16.35 99.9 11.25 96.85 6.15 93.85 3.1 88.75 0.1 83.65 0.0 77.35 L0.0 22.65 Q0.1 16.35 3.1 11.25 6.15 6.15 11.25 3.1 16.35 0.1 22.65 0.0 L77.35 0.0 Q83.65 0.1 88.75 3.1" fill="#ffffff" fill-rule="evenodd" stroke="none"/>
  </g>
</svg>
