<?xml version="1.0" encoding="UTF-8" standalone="no"?>
<svg xmlns:ffdec="https://www.free-decompiler.com/flash" xmlns:xlink="http://www.w3.org/1999/xlink" ffdec:objectType="shape" height="95.0px" width="1539.0px" xmlns="http://www.w3.org/2000/svg">
  <g transform="matrix(1.0, 0.0, 0.0, 1.0, 2.0, 0.0)">
    <path d="M1536.0 95.0 L0.0 95.0 0.0 0.0 1536.0 0.0 1536.0 95.0" fill="#000000" fill-rule="evenodd" stroke="none"/>
    <path d="M17.0 0.0 L17.0 19.0 -2.0 19.0 -2.0 0.0 17.0 0.0" fill="#00ffff" fill-rule="evenodd" stroke="none"/>
    <path d="M17.0 38.0 L17.0 57.0 -2.0 57.0 -2.0 38.0 17.0 38.0" fill="#ffffff" fill-rule="evenodd" stroke="none"/>
    <path d="M17.0 76.0 L17.0 95.0 -2.0 95.0 -2.0 76.0 17.0 76.0" fill="#ff0000" fill-rule="evenodd" stroke="none"/>
    <path d="M36.0 19.0 L36.0 38.0 17.0 38.0 17.0 19.0 36.0 19.0" fill="#ffffff" fill-rule="evenodd" stroke="none"/>
    <path d="M36.0 57.0 L36.0 76.0 17.0 76.0 17.0 57.0 36.0 57.0" fill="#ffffff" fill-rule="evenodd" stroke="none"/>
    <path d="M55.0 0.0 L55.0 19.0 36.0 19.0 36.0 0.0 55.0 0.0" fill="#ffffff" fill-rule="evenodd" stroke="none"/>
    <path d="M55.0 38.0 L55.0 57.0 36.0 57.0 36.0 38.0 55.0 38.0" fill="#ffffff" fill-rule="evenodd" stroke="none"/>
    <path d="M55.0 76.0 L55.0 95.0 36.0 95.0 36.0 76.0 55.0 76.0" fill="#ffffff" fill-rule="evenodd" stroke="none"/>
    <path d="M74.0 19.0 L74.0 38.0 55.0 38.0 55.0 19.0 74.0 19.0" fill="#ffffff" fill-rule="evenodd" stroke="none"/>
    <path d="M74.0 57.0 L74.0 76.0 55.0 76.0 55.0 57.0 74.0 57.0" fill="#ffffff" fill-rule="evenodd" stroke="none"/>
    <path d="M93.0 0.0 L93.0 19.0 74.0 19.0 74.0 0.0 93.0 0.0" fill="#ffffff" fill-rule="evenodd" stroke="none"/>
    <path d="M93.0 38.0 L93.0 57.0 74.0 57.0 74.0 38.0 93.0 38.0" fill="#ffffff" fill-rule="evenodd" stroke="none"/>
    <path d="M93.0 76.0 L93.0 95.0 74.0 95.0 74.0 76.0 93.0 76.0" fill="#ffffff" fill-rule="evenodd" stroke="none"/>
    <path d="M112.0 19.0 L112.0 38.0 93.0 38.0 93.0 19.0 112.0 19.0" fill="#ffffff" fill-rule="evenodd" stroke="none"/>
    <path d="M112.0 57.0 L112.0 76.0 93.0 76.0 93.0 57.0 112.0 57.0" fill="#ffffff" fill-rule="evenodd" stroke="none"/>
    <path d="M131.0 0.0 L131.0 19.0 112.0 19.0 112.0 0.0 131.0 0.0" fill="#ffffff" fill-rule="evenodd" stroke="none"/>
    <path d="M131.0 38.0 L131.0 57.0 112.0 57.0 112.0 38.0 131.0 38.0" fill="#ffffff" fill-rule="evenodd" stroke="none"/>
    <path d="M131.0 76.0 L131.0 95.0 112.0 95.0 112.0 76.0 131.0 76.0" fill="#ffffff" fill-rule="evenodd" stroke="none"/>
    <path d="M150.0 19.0 L150.0 38.0 131.0 38.0 131.0 19.0 150.0 19.0" fill="#ffffff" fill-rule="evenodd" stroke="none"/>
    <path d="M150.0 57.0 L150.0 76.0 131.0 76.0 131.0 57.0 150.0 57.0" fill="#ffffff" fill-rule="evenodd" stroke="none"/>
    <path d="M169.0 0.0 L169.0 19.0 150.0 19.0 150.0 0.0 169.0 0.0" fill="#ffffff" fill-rule="evenodd" stroke="none"/>
    <path d="M169.0 38.0 L169.0 57.0 150.0 57.0 150.0 38.0 169.0 38.0" fill="#ffffff" fill-rule="evenodd" stroke="none"/>
    <path d="M169.0 76.0 L169.0 95.0 150.0 95.0 150.0 76.0 169.0 76.0" fill="#ffffff" fill-rule="evenodd" stroke="none"/>
    <path d="M188.0 19.0 L188.0 38.0 169.0 38.0 169.0 19.0 188.0 19.0" fill="#ffffff" fill-rule="evenodd" stroke="none"/>
    <path d="M188.0 57.0 L188.0 76.0 169.0 76.0 169.0 57.0 188.0 57.0" fill="#ffffff" fill-rule="evenodd" stroke="none"/>
    <path d="M207.0 0.0 L207.0 19.0 188.0 19.0 188.0 0.0 207.0 0.0" fill="#ffffff" fill-rule="evenodd" stroke="none"/>
    <path d="M207.0 38.0 L207.0 57.0 188.0 57.0 188.0 38.0 207.0 38.0" fill="#ffffff" fill-rule="evenodd" stroke="none"/>
    <path d="M207.0 76.0 L207.0 95.0 188.0 95.0 188.0 76.0 207.0 76.0" fill="#ffffff" fill-rule="evenodd" stroke="none"/>
    <path d="M226.0 19.0 L226.0 38.0 207.0 38.0 207.0 19.0 226.0 19.0" fill="#ffffff" fill-rule="evenodd" stroke="none"/>
    <path d="M226.0 57.0 L226.0 76.0 207.0 76.0 207.0 57.0 226.0 57.0" fill="#ffffff" fill-rule="evenodd" stroke="none"/>
    <path d="M245.0 0.0 L245.0 19.0 226.0 19.0 226.0 0.0 245.0 0.0" fill="#ffffff" fill-rule="evenodd" stroke="none"/>
    <path d="M245.0 38.0 L245.0 57.0 226.0 57.0 226.0 38.0 245.0 38.0" fill="#ffffff" fill-rule="evenodd" stroke="none"/>
    <path d="M245.0 76.0 L245.0 95.0 226.0 95.0 226.0 76.0 245.0 76.0" fill="#ffffff" fill-rule="evenodd" stroke="none"/>
    <path d="M264.0 19.0 L264.0 38.0 245.0 38.0 245.0 19.0 264.0 19.0" fill="#ffffff" fill-rule="evenodd" stroke="none"/>
    <path d="M264.0 57.0 L264.0 76.0 245.0 76.0 245.0 57.0 264.0 57.0" fill="#ffffff" fill-rule="evenodd" stroke="none"/>
    <path d="M283.0 0.0 L283.0 19.0 264.0 19.0 264.0 0.0 283.0 0.0" fill="#ffffff" fill-rule="evenodd" stroke="none"/>
    <path d="M283.0 38.0 L283.0 57.0 264.0 57.0 264.0 38.0 283.0 38.0" fill="#ffffff" fill-rule="evenodd" stroke="none"/>
    <path d="M283.0 76.0 L283.0 95.0 264.0 95.0 264.0 76.0 283.0 76.0" fill="#ffffff" fill-rule="evenodd" stroke="none"/>
    <path d="M302.0 19.0 L302.0 38.0 283.0 38.0 283.0 19.0 302.0 19.0" fill="#ffffff" fill-rule="evenodd" stroke="none"/>
    <path d="M302.0 57.0 L302.0 76.0 283.0 76.0 283.0 57.0 302.0 57.0" fill="#ffffff" fill-rule="evenodd" stroke="none"/>
    <path d="M321.0 0.0 L321.0 19.0 302.0 19.0 302.0 0.0 321.0 0.0" fill="#ffffff" fill-rule="evenodd" stroke="none"/>
    <path d="M321.0 38.0 L321.0 57.0 302.0 57.0 302.0 38.0 321.0 38.0" fill="#ffffff" fill-rule="evenodd" stroke="none"/>
    <path d="M321.0 76.0 L321.0 95.0 302.0 95.0 302.0 76.0 321.0 76.0" fill="#ffffff" fill-rule="evenodd" stroke="none"/>
    <path d="M340.0 19.0 L340.0 38.0 321.0 38.0 321.0 19.0 340.0 19.0" fill="#ffffff" fill-rule="evenodd" stroke="none"/>
    <path d="M340.0 57.0 L340.0 76.0 321.0 76.0 321.0 57.0 340.0 57.0" fill="#ffffff" fill-rule="evenodd" stroke="none"/>
    <path d="M359.0 0.0 L359.0 19.0 340.0 19.0 340.0 0.0 359.0 0.0" fill="#ffffff" fill-rule="evenodd" stroke="none"/>
    <path d="M359.0 38.0 L359.0 57.0 340.0 57.0 340.0 38.0 359.0 38.0" fill="#ffffff" fill-rule="evenodd" stroke="none"/>
    <path d="M359.0 76.0 L359.0 95.0 340.0 95.0 340.0 76.0 359.0 76.0" fill="#ffffff" fill-rule="evenodd" stroke="none"/>
    <path d="M378.0 19.0 L378.0 38.0 359.0 38.0 359.0 19.0 378.0 19.0" fill="#ffffff" fill-rule="evenodd" stroke="none"/>
    <path d="M378.0 57.0 L378.0 76.0 359.0 76.0 359.0 57.0 378.0 57.0" fill="#ffffff" fill-rule="evenodd" stroke="none"/>
    <path d="M397.0 0.0 L397.0 19.0 378.0 19.0 378.0 0.0 397.0 0.0" fill="#ffffff" fill-rule="evenodd" stroke="none"/>
    <path d="M397.0 38.0 L397.0 57.0 378.0 57.0 378.0 38.0 397.0 38.0" fill="#ffffff" fill-rule="evenodd" stroke="none"/>
    <path d="M397.0 76.0 L397.0 95.0 378.0 95.0 378.0 76.0 397.0 76.0" fill="#ffffff" fill-rule="evenodd" stroke="none"/>
    <path d="M416.0 19.0 L416.0 38.0 397.0 38.0 397.0 19.0 416.0 19.0" fill="#ffffff" fill-rule="evenodd" stroke="none"/>
    <path d="M416.0 57.0 L416.0 76.0 397.0 76.0 397.0 57.0 416.0 57.0" fill="#ffffff" fill-rule="evenodd" stroke="none"/>
    <path d="M435.0 0.0 L435.0 19.0 416.0 19.0 416.0 0.0 435.0 0.0" fill="#ffffff" fill-rule="evenodd" stroke="none"/>
    <path d="M435.0 38.0 L435.0 57.0 416.0 57.0 416.0 38.0 435.0 38.0" fill="#ffffff" fill-rule="evenodd" stroke="none"/>
    <path d="M435.0 76.0 L435.0 95.0 416.0 95.0 416.0 76.0 435.0 76.0" fill="#ffffff" fill-rule="evenodd" stroke="none"/>
    <path d="M454.0 19.0 L454.0 38.0 435.0 38.0 435.0 19.0 454.0 19.0" fill="#ffffff" fill-rule="evenodd" stroke="none"/>
    <path d="M454.0 57.0 L454.0 76.0 435.0 76.0 435.0 57.0 454.0 57.0" fill="#ffffff" fill-rule="evenodd" stroke="none"/>
    <path d="M473.0 0.0 L473.0 19.0 454.0 19.0 454.0 0.0 473.0 0.0" fill="#ffffff" fill-rule="evenodd" stroke="none"/>
    <path d="M473.0 38.0 L473.0 57.0 454.0 57.0 454.0 38.0 473.0 38.0" fill="#ffffff" fill-rule="evenodd" stroke="none"/>
    <path d="M473.0 76.0 L473.0 95.0 454.0 95.0 454.0 76.0 473.0 76.0" fill="#ffffff" fill-rule="evenodd" stroke="none"/>
    <path d="M492.0 19.0 L492.0 38.0 473.0 38.0 473.0 19.0 492.0 19.0" fill="#ffffff" fill-rule="evenodd" stroke="none"/>
    <path d="M492.0 57.0 L492.0 76.0 473.0 76.0 473.0 57.0 492.0 57.0" fill="#ffffff" fill-rule="evenodd" stroke="none"/>
    <path d="M511.0 0.0 L511.0 19.0 492.0 19.0 492.0 0.0 511.0 0.0" fill="#ffffff" fill-rule="evenodd" stroke="none"/>
    <path d="M511.0 38.0 L511.0 57.0 492.0 57.0 492.0 38.0 511.0 38.0" fill="#ffffff" fill-rule="evenodd" stroke="none"/>
    <path d="M511.0 76.0 L511.0 95.0 492.0 95.0 492.0 76.0 511.0 76.0" fill="#ffffff" fill-rule="evenodd" stroke="none"/>
    <path d="M530.0 19.0 L530.0 38.0 511.0 38.0 511.0 19.0 530.0 19.0" fill="#ffffff" fill-rule="evenodd" stroke="none"/>
    <path d="M530.0 57.0 L530.0 76.0 511.0 76.0 511.0 57.0 530.0 57.0" fill="#ffffff" fill-rule="evenodd" stroke="none"/>
    <path d="M549.0 0.0 L549.0 19.0 530.0 19.0 530.0 0.0 549.0 0.0" fill="#ffffff" fill-rule="evenodd" stroke="none"/>
    <path d="M549.0 38.0 L549.0 57.0 530.0 57.0 530.0 38.0 549.0 38.0" fill="#ffffff" fill-rule="evenodd" stroke="none"/>
    <path d="M549.0 76.0 L549.0 95.0 530.0 95.0 530.0 76.0 549.0 76.0" fill="#ffffff" fill-rule="evenodd" stroke="none"/>
    <path d="M568.0 19.0 L568.0 38.0 549.0 38.0 549.0 19.0 568.0 19.0" fill="#ffffff" fill-rule="evenodd" stroke="none"/>
    <path d="M568.0 57.0 L568.0 76.0 549.0 76.0 549.0 57.0 568.0 57.0" fill="#ffffff" fill-rule="evenodd" stroke="none"/>
    <path d="M587.0 0.0 L587.0 19.0 568.0 19.0 568.0 0.0 587.0 0.0" fill="#ffffff" fill-rule="evenodd" stroke="none"/>
    <path d="M587.0 38.0 L587.0 57.0 568.0 57.0 568.0 38.0 587.0 38.0" fill="#ffffff" fill-rule="evenodd" stroke="none"/>
    <path d="M587.0 76.0 L587.0 95.0 568.0 95.0 568.0 76.0 587.0 76.0" fill="#ffffff" fill-rule="evenodd" stroke="none"/>
    <path d="M606.0 19.0 L606.0 38.0 587.0 38.0 587.0 19.0 606.0 19.0" fill="#ffffff" fill-rule="evenodd" stroke="none"/>
    <path d="M606.0 57.0 L606.0 76.0 587.0 76.0 587.0 57.0 606.0 57.0" fill="#ffffff" fill-rule="evenodd" stroke="none"/>
    <path d="M625.0 0.0 L625.0 19.0 606.0 19.0 606.0 0.0 625.0 0.0" fill="#ffffff" fill-rule="evenodd" stroke="none"/>
    <path d="M625.0 38.0 L625.0 57.0 606.0 57.0 606.0 38.0 625.0 38.0" fill="#ffffff" fill-rule="evenodd" stroke="none"/>
    <path d="M625.0 76.0 L625.0 95.0 606.0 95.0 606.0 76.0 625.0 76.0" fill="#ffffff" fill-rule="evenodd" stroke="none"/>
    <path d="M644.0 19.0 L644.0 38.0 625.0 38.0 625.0 19.0 644.0 19.0" fill="#ffffff" fill-rule="evenodd" stroke="none"/>
    <path d="M644.0 57.0 L644.0 76.0 625.0 76.0 625.0 57.0 644.0 57.0" fill="#ffffff" fill-rule="evenodd" stroke="none"/>
    <path d="M663.0 0.0 L663.0 19.0 644.0 19.0 644.0 0.0 663.0 0.0" fill="#ffffff" fill-rule="evenodd" stroke="none"/>
    <path d="M663.0 38.0 L663.0 57.0 644.0 57.0 644.0 38.0 663.0 38.0" fill="#ffffff" fill-rule="evenodd" stroke="none"/>
    <path d="M663.0 76.0 L663.0 95.0 644.0 95.0 644.0 76.0 663.0 76.0" fill="#ffffff" fill-rule="evenodd" stroke="none"/>
    <path d="M682.0 19.0 L682.0 38.0 663.0 38.0 663.0 19.0 682.0 19.0" fill="#ffffff" fill-rule="evenodd" stroke="none"/>
    <path d="M682.0 57.0 L682.0 76.0 663.0 76.0 663.0 57.0 682.0 57.0" fill="#ffffff" fill-rule="evenodd" stroke="none"/>
    <path d="M701.0 0.0 L701.0 19.0 682.0 19.0 682.0 0.0 701.0 0.0" fill="#ffffff" fill-rule="evenodd" stroke="none"/>
    <path d="M701.0 38.0 L701.0 57.0 682.0 57.0 682.0 38.0 701.0 38.0" fill="#ffffff" fill-rule="evenodd" stroke="none"/>
    <path d="M701.0 76.0 L701.0 95.0 682.0 95.0 682.0 76.0 701.0 76.0" fill="#ffffff" fill-rule="evenodd" stroke="none"/>
    <path d="M720.0 19.0 L720.0 38.0 701.0 38.0 701.0 19.0 720.0 19.0" fill="#ffffff" fill-rule="evenodd" stroke="none"/>
    <path d="M720.0 57.0 L720.0 76.0 701.0 76.0 701.0 57.0 720.0 57.0" fill="#ffffff" fill-rule="evenodd" stroke="none"/>
    <path d="M739.0 0.0 L739.0 19.0 720.0 19.0 720.0 0.0 739.0 0.0" fill="#ffffff" fill-rule="evenodd" stroke="none"/>
    <path d="M739.0 38.0 L739.0 57.0 720.0 57.0 720.0 38.0 739.0 38.0" fill="#ffffff" fill-rule="evenodd" stroke="none"/>
    <path d="M739.0 76.0 L739.0 95.0 720.0 95.0 720.0 76.0 739.0 76.0" fill="#ffffff" fill-rule="evenodd" stroke="none"/>
    <path d="M758.0 19.0 L758.0 38.0 739.0 38.0 739.0 19.0 758.0 19.0" fill="#ffffff" fill-rule="evenodd" stroke="none"/>
    <path d="M758.0 57.0 L758.0 76.0 739.0 76.0 739.0 57.0 758.0 57.0" fill="#ffffff" fill-rule="evenodd" stroke="none"/>
    <path d="M777.0 0.0 L777.0 19.0 758.0 19.0 758.0 0.0 777.0 0.0" fill="#ffffff" fill-rule="evenodd" stroke="none"/>
    <path d="M777.0 38.0 L777.0 57.0 758.0 57.0 758.0 38.0 777.0 38.0" fill="#ffffff" fill-rule="evenodd" stroke="none"/>
    <path d="M777.0 76.0 L777.0 95.0 758.0 95.0 758.0 76.0 777.0 76.0" fill="#ffffff" fill-rule="evenodd" stroke="none"/>
    <path d="M796.0 19.0 L796.0 38.0 777.0 38.0 777.0 19.0 796.0 19.0" fill="#ffffff" fill-rule="evenodd" stroke="none"/>
    <path d="M796.0 57.0 L796.0 76.0 777.0 76.0 777.0 57.0 796.0 57.0" fill="#ffffff" fill-rule="evenodd" stroke="none"/>
    <path d="M815.0 0.0 L815.0 19.0 796.0 19.0 796.0 0.0 815.0 0.0" fill="#ffffff" fill-rule="evenodd" stroke="none"/>
    <path d="M815.0 38.0 L815.0 57.0 796.0 57.0 796.0 38.0 815.0 38.0" fill="#ffffff" fill-rule="evenodd" stroke="none"/>
    <path d="M815.0 76.0 L815.0 95.0 796.0 95.0 796.0 76.0 815.0 76.0" fill="#ffffff" fill-rule="evenodd" stroke="none"/>
    <path d="M834.0 19.0 L834.0 38.0 815.0 38.0 815.0 19.0 834.0 19.0" fill="#ffffff" fill-rule="evenodd" stroke="none"/>
    <path d="M834.0 57.0 L834.0 76.0 815.0 76.0 815.0 57.0 834.0 57.0" fill="#ffffff" fill-rule="evenodd" stroke="none"/>
    <path d="M853.0 0.0 L853.0 19.0 834.0 19.0 834.0 0.0 853.0 0.0" fill="#ffffff" fill-rule="evenodd" stroke="none"/>
    <path d="M853.0 38.0 L853.0 57.0 834.0 57.0 834.0 38.0 853.0 38.0" fill="#ffffff" fill-rule="evenodd" stroke="none"/>
    <path d="M853.0 76.0 L853.0 95.0 834.0 95.0 834.0 76.0 853.0 76.0" fill="#ffffff" fill-rule="evenodd" stroke="none"/>
    <path d="M872.0 19.0 L872.0 38.0 853.0 38.0 853.0 19.0 872.0 19.0" fill="#ffffff" fill-rule="evenodd" stroke="none"/>
    <path d="M872.0 57.0 L872.0 76.0 853.0 76.0 853.0 57.0 872.0 57.0" fill="#ffffff" fill-rule="evenodd" stroke="none"/>
    <path d="M891.0 0.0 L891.0 19.0 872.0 19.0 872.0 0.0 891.0 0.0" fill="#ffffff" fill-rule="evenodd" stroke="none"/>
    <path d="M891.0 38.0 L891.0 57.0 872.0 57.0 872.0 38.0 891.0 38.0" fill="#ffffff" fill-rule="evenodd" stroke="none"/>
    <path d="M891.0 76.0 L891.0 95.0 872.0 95.0 872.0 76.0 891.0 76.0" fill="#ffffff" fill-rule="evenodd" stroke="none"/>
    <path d="M910.0 19.0 L910.0 38.0 891.0 38.0 891.0 19.0 910.0 19.0" fill="#ffffff" fill-rule="evenodd" stroke="none"/>
    <path d="M910.0 57.0 L910.0 76.0 891.0 76.0 891.0 57.0 910.0 57.0" fill="#ffffff" fill-rule="evenodd" stroke="none"/>
    <path d="M929.0 0.0 L929.0 19.0 910.0 19.0 910.0 0.0 929.0 0.0" fill="#ffffff" fill-rule="evenodd" stroke="none"/>
    <path d="M929.0 38.0 L929.0 57.0 910.0 57.0 910.0 38.0 929.0 38.0" fill="#ffffff" fill-rule="evenodd" stroke="none"/>
    <path d="M929.0 76.0 L929.0 95.0 910.0 95.0 910.0 76.0 929.0 76.0" fill="#ffffff" fill-rule="evenodd" stroke="none"/>
    <path d="M948.0 19.0 L948.0 38.0 929.0 38.0 929.0 19.0 948.0 19.0" fill="#ffffff" fill-rule="evenodd" stroke="none"/>
    <path d="M948.0 57.0 L948.0 76.0 929.0 76.0 929.0 57.0 948.0 57.0" fill="#ffffff" fill-rule="evenodd" stroke="none"/>
    <path d="M967.0 0.0 L967.0 19.0 948.0 19.0 948.0 0.0 967.0 0.0" fill="#ffffff" fill-rule="evenodd" stroke="none"/>
    <path d="M967.0 38.0 L967.0 57.0 948.0 57.0 948.0 38.0 967.0 38.0" fill="#ffffff" fill-rule="evenodd" stroke="none"/>
    <path d="M967.0 76.0 L967.0 95.0 948.0 95.0 948.0 76.0 967.0 76.0" fill="#ffffff" fill-rule="evenodd" stroke="none"/>
    <path d="M986.0 19.0 L986.0 38.0 967.0 38.0 967.0 19.0 986.0 19.0" fill="#ffffff" fill-rule="evenodd" stroke="none"/>
    <path d="M986.0 57.0 L986.0 76.0 967.0 76.0 967.0 57.0 986.0 57.0" fill="#ffffff" fill-rule="evenodd" stroke="none"/>
    <path d="M1005.0 0.0 L1005.0 19.0 986.0 19.0 986.0 0.0 1005.0 0.0" fill="#ffffff" fill-rule="evenodd" stroke="none"/>
    <path d="M1005.0 38.0 L1005.0 57.0 986.0 57.0 986.0 38.0 1005.0 38.0" fill="#ffffff" fill-rule="evenodd" stroke="none"/>
    <path d="M1005.0 76.0 L1005.0 95.0 986.0 95.0 986.0 76.0 1005.0 76.0" fill="#ffffff" fill-rule="evenodd" stroke="none"/>
    <path d="M1024.0 19.0 L1024.0 38.0 1005.0 38.0 1005.0 19.0 1024.0 19.0" fill="#ffffff" fill-rule="evenodd" stroke="none"/>
    <path d="M1024.0 57.0 L1024.0 76.0 1005.0 76.0 1005.0 57.0 1024.0 57.0" fill="#ffffff" fill-rule="evenodd" stroke="none"/>
    <path d="M1043.0 0.0 L1043.0 19.0 1024.0 19.0 1024.0 0.0 1043.0 0.0" fill="#ffffff" fill-rule="evenodd" stroke="none"/>
    <path d="M1043.0 38.0 L1043.0 57.0 1024.0 57.0 1024.0 38.0 1043.0 38.0" fill="#ffffff" fill-rule="evenodd" stroke="none"/>
    <path d="M1043.0 76.0 L1043.0 95.0 1024.0 95.0 1024.0 76.0 1043.0 76.0" fill="#ffffff" fill-rule="evenodd" stroke="none"/>
    <path d="M1062.0 19.0 L1062.0 38.0 1043.0 38.0 1043.0 19.0 1062.0 19.0" fill="#ffffff" fill-rule="evenodd" stroke="none"/>
    <path d="M1062.0 57.0 L1062.0 76.0 1043.0 76.0 1043.0 57.0 1062.0 57.0" fill="#ffffff" fill-rule="evenodd" stroke="none"/>
    <path d="M1081.0 0.0 L1081.0 19.0 1062.0 19.0 1062.0 0.0 1081.0 0.0" fill="#ffffff" fill-rule="evenodd" stroke="none"/>
    <path d="M1081.0 38.0 L1081.0 57.0 1062.0 57.0 1062.0 38.0 1081.0 38.0" fill="#ffffff" fill-rule="evenodd" stroke="none"/>
    <path d="M1081.0 76.0 L1081.0 95.0 1062.0 95.0 1062.0 76.0 1081.0 76.0" fill="#ffffff" fill-rule="evenodd" stroke="none"/>
    <path d="M1100.0 19.0 L1100.0 38.0 1081.0 38.0 1081.0 19.0 1100.0 19.0" fill="#ffffff" fill-rule="evenodd" stroke="none"/>
    <path d="M1100.0 57.0 L1100.0 76.0 1081.0 76.0 1081.0 57.0 1100.0 57.0" fill="#ffffff" fill-rule="evenodd" stroke="none"/>
    <path d="M1119.0 0.0 L1119.0 19.0 1100.0 19.0 1100.0 0.0 1119.0 0.0" fill="#ffffff" fill-rule="evenodd" stroke="none"/>
    <path d="M1119.0 38.0 L1119.0 57.0 1100.0 57.0 1100.0 38.0 1119.0 38.0" fill="#ffffff" fill-rule="evenodd" stroke="none"/>
    <path d="M1119.0 76.0 L1119.0 95.0 1100.0 95.0 1100.0 76.0 1119.0 76.0" fill="#ffffff" fill-rule="evenodd" stroke="none"/>
    <path d="M1138.0 19.0 L1138.0 38.0 1119.0 38.0 1119.0 19.0 1138.0 19.0" fill="#ffffff" fill-rule="evenodd" stroke="none"/>
    <path d="M1138.0 57.0 L1138.0 76.0 1119.0 76.0 1119.0 57.0 1138.0 57.0" fill="#ffffff" fill-rule="evenodd" stroke="none"/>
    <path d="M1157.0 0.0 L1157.0 19.0 1138.0 19.0 1138.0 0.0 1157.0 0.0" fill="#ffffff" fill-rule="evenodd" stroke="none"/>
    <path d="M1157.0 38.0 L1157.0 57.0 1138.0 57.0 1138.0 38.0 1157.0 38.0" fill="#ffffff" fill-rule="evenodd" stroke="none"/>
    <path d="M1157.0 76.0 L1157.0 95.0 1138.0 95.0 1138.0 76.0 1157.0 76.0" fill="#ffffff" fill-rule="evenodd" stroke="none"/>
    <path d="M1176.0 19.0 L1176.0 38.0 1157.0 38.0 1157.0 19.0 1176.0 19.0" fill="#ffffff" fill-rule="evenodd" stroke="none"/>
    <path d="M1176.0 57.0 L1176.0 76.0 1157.0 76.0 1157.0 57.0 1176.0 57.0" fill="#ffffff" fill-rule="evenodd" stroke="none"/>
    <path d="M1195.0 0.0 L1195.0 19.0 1176.0 19.0 1176.0 0.0 1195.0 0.0" fill="#ffffff" fill-rule="evenodd" stroke="none"/>
    <path d="M1195.0 38.0 L1195.0 57.0 1176.0 57.0 1176.0 38.0 1195.0 38.0" fill="#ffffff" fill-rule="evenodd" stroke="none"/>
    <path d="M1195.0 76.0 L1195.0 95.0 1176.0 95.0 1176.0 76.0 1195.0 76.0" fill="#ffffff" fill-rule="evenodd" stroke="none"/>
    <path d="M1214.0 19.0 L1214.0 38.0 1195.0 38.0 1195.0 19.0 1214.0 19.0" fill="#ffffff" fill-rule="evenodd" stroke="none"/>
    <path d="M1214.0 57.0 L1214.0 76.0 1195.0 76.0 1195.0 57.0 1214.0 57.0" fill="#ffffff" fill-rule="evenodd" stroke="none"/>
    <path d="M1233.0 0.0 L1233.0 19.0 1214.0 19.0 1214.0 0.0 1233.0 0.0" fill="#ffffff" fill-rule="evenodd" stroke="none"/>
    <path d="M1233.0 38.0 L1233.0 57.0 1214.0 57.0 1214.0 38.0 1233.0 38.0" fill="#ffffff" fill-rule="evenodd" stroke="none"/>
    <path d="M1233.0 76.0 L1233.0 95.0 1214.0 95.0 1214.0 76.0 1233.0 76.0" fill="#ffffff" fill-rule="evenodd" stroke="none"/>
    <path d="M1252.0 19.0 L1252.0 38.0 1233.0 38.0 1233.0 19.0 1252.0 19.0" fill="#ffffff" fill-rule="evenodd" stroke="none"/>
    <path d="M1252.0 57.0 L1252.0 76.0 1233.0 76.0 1233.0 57.0 1252.0 57.0" fill="#ffffff" fill-rule="evenodd" stroke="none"/>
    <path d="M1271.0 0.0 L1271.0 19.0 1252.0 19.0 1252.0 0.0 1271.0 0.0" fill="#ffffff" fill-rule="evenodd" stroke="none"/>
    <path d="M1271.0 38.0 L1271.0 57.0 1252.0 57.0 1252.0 38.0 1271.0 38.0" fill="#ffffff" fill-rule="evenodd" stroke="none"/>
    <path d="M1271.0 76.0 L1271.0 95.0 1252.0 95.0 1252.0 76.0 1271.0 76.0" fill="#ffffff" fill-rule="evenodd" stroke="none"/>
    <path d="M1290.0 19.0 L1290.0 38.0 1271.0 38.0 1271.0 19.0 1290.0 19.0" fill="#ffffff" fill-rule="evenodd" stroke="none"/>
    <path d="M1290.0 57.0 L1290.0 76.0 1271.0 76.0 1271.0 57.0 1290.0 57.0" fill="#ffffff" fill-rule="evenodd" stroke="none"/>
    <path d="M1309.0 0.0 L1309.0 19.0 1290.0 19.0 1290.0 0.0 1309.0 0.0" fill="#ffffff" fill-rule="evenodd" stroke="none"/>
    <path d="M1309.0 38.0 L1309.0 57.0 1290.0 57.0 1290.0 38.0 1309.0 38.0" fill="#ffffff" fill-rule="evenodd" stroke="none"/>
    <path d="M1309.0 76.0 L1309.0 95.0 1290.0 95.0 1290.0 76.0 1309.0 76.0" fill="#ffffff" fill-rule="evenodd" stroke="none"/>
    <path d="M1328.0 19.0 L1328.0 38.0 1309.0 38.0 1309.0 19.0 1328.0 19.0" fill="#ffffff" fill-rule="evenodd" stroke="none"/>
    <path d="M1328.0 57.0 L1328.0 76.0 1309.0 76.0 1309.0 57.0 1328.0 57.0" fill="#ffffff" fill-rule="evenodd" stroke="none"/>
    <path d="M1347.0 0.0 L1347.0 19.0 1328.0 19.0 1328.0 0.0 1347.0 0.0" fill="#ffffff" fill-rule="evenodd" stroke="none"/>
    <path d="M1347.0 38.0 L1347.0 57.0 1328.0 57.0 1328.0 38.0 1347.0 38.0" fill="#ffffff" fill-rule="evenodd" stroke="none"/>
    <path d="M1347.0 76.0 L1347.0 95.0 1328.0 95.0 1328.0 76.0 1347.0 76.0" fill="#ffffff" fill-rule="evenodd" stroke="none"/>
    <path d="M1366.0 19.0 L1366.0 38.0 1347.0 38.0 1347.0 19.0 1366.0 19.0" fill="#ffffff" fill-rule="evenodd" stroke="none"/>
    <path d="M1366.0 57.0 L1366.0 76.0 1347.0 76.0 1347.0 57.0 1366.0 57.0" fill="#ffffff" fill-rule="evenodd" stroke="none"/>
    <path d="M1385.0 0.0 L1385.0 19.0 1366.0 19.0 1366.0 0.0 1385.0 0.0" fill="#ffffff" fill-rule="evenodd" stroke="none"/>
    <path d="M1385.0 38.0 L1385.0 57.0 1366.0 57.0 1366.0 38.0 1385.0 38.0" fill="#ffffff" fill-rule="evenodd" stroke="none"/>
    <path d="M1385.0 76.0 L1385.0 95.0 1366.0 95.0 1366.0 76.0 1385.0 76.0" fill="#ffffff" fill-rule="evenodd" stroke="none"/>
    <path d="M1404.0 19.0 L1404.0 38.0 1385.0 38.0 1385.0 19.0 1404.0 19.0" fill="#ffffff" fill-rule="evenodd" stroke="none"/>
    <path d="M1404.0 57.0 L1404.0 76.0 1385.0 76.0 1385.0 57.0 1404.0 57.0" fill="#ffffff" fill-rule="evenodd" stroke="none"/>
    <path d="M1423.0 0.0 L1423.0 19.0 1404.0 19.0 1404.0 0.0 1423.0 0.0" fill="#ffffff" fill-rule="evenodd" stroke="none"/>
    <path d="M1423.0 38.0 L1423.0 57.0 1404.0 57.0 1404.0 38.0 1423.0 38.0" fill="#ffffff" fill-rule="evenodd" stroke="none"/>
    <path d="M1423.0 76.0 L1423.0 95.0 1404.0 95.0 1404.0 76.0 1423.0 76.0" fill="#ffffff" fill-rule="evenodd" stroke="none"/>
    <path d="M1442.0 19.0 L1442.0 38.0 1423.0 38.0 1423.0 19.0 1442.0 19.0" fill="#ffffff" fill-rule="evenodd" stroke="none"/>
    <path d="M1442.0 57.0 L1442.0 76.0 1423.0 76.0 1423.0 57.0 1442.0 57.0" fill="#ffffff" fill-rule="evenodd" stroke="none"/>
    <path d="M1461.0 0.0 L1461.0 19.0 1442.0 19.0 1442.0 0.0 1461.0 0.0" fill="#ffffff" fill-rule="evenodd" stroke="none"/>
    <path d="M1461.0 38.0 L1461.0 57.0 1442.0 57.0 1442.0 38.0 1461.0 38.0" fill="#ffffff" fill-rule="evenodd" stroke="none"/>
    <path d="M1461.0 76.0 L1461.0 95.0 1442.0 95.0 1442.0 76.0 1461.0 76.0" fill="#ffffff" fill-rule="evenodd" stroke="none"/>
    <path d="M1480.0 19.0 L1480.0 38.0 1461.0 38.0 1461.0 19.0 1480.0 19.0" fill="#ffffff" fill-rule="evenodd" stroke="none"/>
    <path d="M1480.0 57.0 L1480.0 76.0 1461.0 76.0 1461.0 57.0 1480.0 57.0" fill="#ffffff" fill-rule="evenodd" stroke="none"/>
    <path d="M1499.0 0.0 L1499.0 19.0 1480.0 19.0 1480.0 0.0 1499.0 0.0" fill="#ffffff" fill-rule="evenodd" stroke="none"/>
    <path d="M1499.0 38.0 L1499.0 57.0 1480.0 57.0 1480.0 38.0 1499.0 38.0" fill="#ffffff" fill-rule="evenodd" stroke="none"/>
    <path d="M1499.0 76.0 L1499.0 95.0 1480.0 95.0 1480.0 76.0 1499.0 76.0" fill="#ffffff" fill-rule="evenodd" stroke="none"/>
    <path d="M1518.0 19.0 L1518.0 38.0 1499.0 38.0 1499.0 19.0 1518.0 19.0" fill="#ffffff" fill-rule="evenodd" stroke="none"/>
    <path d="M1518.0 57.0 L1518.0 76.0 1499.0 76.0 1499.0 57.0 1518.0 57.0" fill="#ffffff" fill-rule="evenodd" stroke="none"/>
    <path d="M1537.0 0.0 L1537.0 19.0 1518.0 19.0 1518.0 0.0 1537.0 0.0" fill="#ff0000" fill-rule="evenodd" stroke="none"/>
    <path d="M1537.0 38.0 L1537.0 57.0 1518.0 57.0 1518.0 38.0 1537.0 38.0" fill="#ffffff" fill-rule="evenodd" stroke="none"/>
    <path d="M1537.0 76.0 L1537.0 95.0 1518.0 95.0 1518.0 76.0 1537.0 76.0" fill="#00ffff" fill-rule="evenodd" stroke="none"/>
    <path d="M1536.0 2.0 L0.0 2.0 0.0 0.0 1536.0 0.0 1536.0 2.0" fill="#00ff00" fill-rule="evenodd" stroke="none"/>
    <path d="M1536.0 95.0 L0.0 95.0 0.0 93.0 1536.0 93.0 1536.0 95.0" fill="#00ff00" fill-rule="evenodd" stroke="none"/>
    <path d="M0.0 0.0 L2.0 0.0 2.0 95.0 0.0 95.0 0.0 0.0" fill="#00ff00" fill-rule="evenodd" stroke="none"/>
    <path d="M1534.0 0.0 L1536.0 0.0 1536.0 95.0 1534.0 95.0 1534.0 0.0" fill="#00ff00" fill-rule="evenodd" stroke="none"/>
    <path d="M767.0 1.0 L769.0 1.0 769.0 5.0 767.0 5.0 767.0 1.0" fill="#00ff00" fill-rule="evenodd" stroke="none"/>
    <path d="M767.0 9.0 L769.0 9.0 769.0 13.0 767.0 13.0 767.0 9.0" fill="#00ff00" fill-rule="evenodd" stroke="none"/>
    <path d="M767.0 17.0 L769.0 17.0 769.0 21.0 767.0 21.0 767.0 17.0" fill="#00ff00" fill-rule="evenodd" stroke="none"/>
    <path d="M767.0 25.0 L769.0 25.0 769.0 29.0 767.0 29.0 767.0 25.0" fill="#00ff00" fill-rule="evenodd" stroke="none"/>
    <path d="M767.0 33.0 L769.0 33.0 769.0 37.0 767.0 37.0 767.0 33.0" fill="#00ff00" fill-rule="evenodd" stroke="none"/>
    <path d="M767.0 41.0 L769.0 41.0 769.0 45.0 767.0 45.0 767.0 41.0" fill="#00ff00" fill-rule="evenodd" stroke="none"/>
    <path d="M767.0 49.0 L769.0 49.0 769.0 53.0 767.0 53.0 767.0 49.0" fill="#00ff00" fill-rule="evenodd" stroke="none"/>
    <path d="M767.0 57.0 L769.0 57.0 769.0 61.0 767.0 61.0 767.0 57.0" fill="#00ff00" fill-rule="evenodd" stroke="none"/>
    <path d="M767.0 65.0 L769.0 65.0 769.0 69.0 767.0 69.0 767.0 65.0" fill="#00ff00" fill-rule="evenodd" stroke="none"/>
    <path d="M767.0 73.0 L769.0 73.0 769.0 77.0 767.0 77.0 767.0 73.0" fill="#00ff00" fill-rule="evenodd" stroke="none"/>
    <path d="M767.0 81.0 L769.0 81.0 769.0 85.0 767.0 85.0 767.0 81.0" fill="#00ff00" fill-rule="evenodd" stroke="none"/>
    <path d="M767.0 89.0 L769.0 89.0 769.0 93.0 767.0 93.0 767.0 89.0" fill="#00ff00" fill-rule="evenodd" stroke="none"/>
    <path d="M749.0 85.05 L600.0 85.05 600.0 10.05 749.0 10.05 749.0 85.05" fill="#000099" fill-rule="evenodd" stroke="none"/>
    <path d="M956.0 85.05 L786.0 85.05 786.0 10.05 956.0 10.05 956.0 85.05" fill="#000099" fill-rule="evenodd" stroke="none"/>
    <path d="M951.6 24.35 L951.6 70.75 942.25 79.75 915.3 79.75 915.3 15.25 941.75 15.25 951.6 24.35 M931.8 27.5 L931.8 67.5 935.15 67.5 935.15 27.5 931.8 27.5 M900.65 47.6 L907.6 53.8 907.6 79.75 892.05 79.75 892.05 53.8 888.85 53.8 888.85 79.75 872.8 79.75 872.8 15.25 898.25 15.25 907.6 24.3 907.6 41.55 900.65 47.6 M892.05 27.5 L888.85 27.5 888.85 41.55 892.05 41.55 892.05 27.5 M827.85 40.3 L811.8 40.3 811.8 27.5 808.5 27.5 808.5 67.5 811.8 67.5 811.8 52.2 827.85 52.2 827.85 70.75 817.95 79.75 803.0 79.75 792.0 70.75 792.0 24.35 801.3 15.25 818.55 15.25 827.85 24.35 827.85 40.3 M849.0 30.7 L847.35 55.8 851.95 55.8 849.95 30.7 849.0 30.7 M830.15 79.75 L838.5 15.25 860.65 15.25 869.4 79.75 853.8 79.75 852.85 68.05 846.5 68.05 845.65 79.75 830.15 79.75" fill="#ff0000" fill-rule="evenodd" stroke="none"/>
    <path d="M744.0 27.5 L736.55 27.5 736.55 79.75 720.05 79.75 720.05 27.5 712.15 27.5 712.15 15.25 744.0 15.25 744.0 27.5 M708.4 24.35 L708.4 36.25 692.8 36.25 692.8 27.5 689.6 27.5 689.6 40.45 699.2 41.35 709.3 50.45 709.3 70.75 699.9 79.75 682.55 79.75 673.1 70.75 673.1 58.75 689.6 58.75 689.6 67.5 692.8 67.5 692.8 54.15 683.7 53.4 673.55 44.35 673.55 24.35 682.55 15.25 699.2 15.25 708.4 24.35 M668.35 27.5 L657.35 27.5 657.35 39.55 666.55 39.55 666.55 51.8 657.35 51.8 657.35 67.5 668.95 67.5 668.95 79.75 641.3 79.75 641.3 15.25 668.35 15.25 668.35 27.5 M637.1 27.5 L629.65 27.5 629.65 79.75 613.15 79.75 613.15 27.5 605.25 27.5 605.25 15.25 637.1 15.25 637.1 27.5" fill="#ff0000" fill-rule="evenodd" stroke="none"/>
  </g>
</svg>
