<?xml version="1.0" encoding="UTF-8" standalone="no"?>
<svg xmlns:ffdec="https://www.free-decompiler.com/flash" xmlns:xlink="http://www.w3.org/1999/xlink" ffdec:objectType="shape" height="1000.0px" width="954.7px" xmlns="http://www.w3.org/2000/svg">
  <g transform="matrix(1.0, 0.0, 0.0, 1.0, 644.45, 627.8)">
    <path d="M310.25 -627.8 L310.25 372.2 -644.45 372.2 -644.45 -31.4 -566.7 -31.4 -568.7 -511.5 -243.95 -511.5 -243.95 -627.8 310.25 -627.8" fill="#434343" fill-rule="evenodd" stroke="none"/>
    <path d="M-610.2 303.55 L-610.2 309.4 -580.45 309.4 -580.45 303.55 -610.2 303.55 M-580.45 203.1 L-580.45 197.2 -610.2 197.2 -610.2 203.1 -580.45 203.1 M-508.5 249.4 L-509.5 241.35 -511.45 233.6 -514.35 226.45 -518.1 220.05 -522.9 214.35 -528.25 218.85 -523.8 224.1 -520.65 229.55 -518.1 235.8 -516.4 242.6 -515.5 249.8 -515.5 257.1 -516.4 264.3 -518.1 271.15 -520.65 277.4 -523.8 282.8 -528.25 288.1 -522.9 292.6 -518.1 286.9 -514.35 280.45 -511.45 273.3 -509.5 265.6 -508.5 257.55 -508.5 249.4 M-573.85 185.9 L-513.85 185.9 -513.85 194.2 -516.1 199.95 -519.6 205.45 -523.85 210.95 -523.85 212.0 -523.0 212.5 -518.85 216.45 -515.25 221.45 -512.2 227.4 -509.8 234.15 -508.2 241.5 -507.4 249.2 -507.4 257.0 -508.2 264.65 -509.8 272.0 -512.2 278.75 -515.25 284.75 -518.85 289.75 -523.0 293.65 -525.05 294.9 -525.05 296.6 -523.9 297.5 -538.5 307.55 -545.4 310.55 -555.15 313.05 -553.55 319.85 -543.2 317.2 -535.45 313.85 -528.55 309.6 -519.1 302.6 -515.95 308.45 -514.1 315.2 -514.1 335.2 -518.1 335.2 -518.1 336.95 -530.35 336.95 -530.35 335.2 -574.1 335.2 -574.1 311.45 -616.35 311.45 -616.35 307.2 -627.1 307.2 -627.1 199.15 -616.35 199.15 -616.35 194.7 -573.85 194.7 -573.85 185.9" fill="#707070" fill-rule="evenodd" stroke="none"/>
    <path d="M103.25 255.8 L101.4 255.8 101.4 300.5 103.25 300.5 103.25 255.8 M65.25 233.9 L65.25 231.75 63.2 231.75 63.2 221.3 52.25 221.3 52.25 231.75 40.0 231.75 40.0 233.9 41.1 233.9 41.1 235.85 51.0 235.85 51.0 238.5 54.7 238.5 54.7 235.55 64.3 235.55 64.3 233.9 65.25 233.9 M103.25 235.55 L112.75 235.55 112.75 233.9 114.2 233.9 114.2 231.75 77.35 231.75 77.35 233.9 78.35 233.9 78.35 235.55 101.4 235.55 101.4 241.4 103.25 241.4 103.25 235.55 M147.0 233.25 L147.0 215.0 144.75 215.0 144.75 231.75 140.4 231.75 140.4 221.3 129.15 221.3 129.15 231.75 126.3 231.75 126.3 233.9 127.1 233.9 127.1 235.55 162.75 235.55 162.75 233.9 163.95 233.9 163.95 233.25 147.0 233.25 M-60.1 233.9 L-60.1 235.85 27.05 235.85 27.05 233.9 27.85 233.9 27.85 231.75 -26.5 231.75 -26.5 221.3 -30.35 221.3 -30.35 218.6 -34.65 218.6 -34.65 221.3 -38.0 221.3 -38.0 231.75 -61.25 231.75 -61.25 233.9 -60.1 233.9 M-322.15 154.3 L-323.7 154.9 -324.85 156.1 -325.5 157.6 -325.5 159.25 -324.85 160.75 -323.7 161.95 -322.15 162.55 -320.5 162.55 -319.0 161.95 -317.85 160.75 -317.2 159.25 -317.2 157.6 -317.85 156.1 -319.0 154.9 -320.5 154.3 -322.15 154.3 M-223.1 25.95 L-227.95 25.95 -227.95 30.6 -226.25 30.6 -226.25 46.1 -227.95 46.1 -227.95 50.45 -226.25 50.45 -226.25 65.95 -227.95 65.95 -227.95 71.4 -251.2 71.4 -251.2 68.7 -256.2 66.0 -260.85 62.4 -266.6 67.25 -262.4 71.35 -256.4 75.1 -251.95 76.9 -246.5 78.1 -251.5 79.95 -256.2 85.45 -250.55 88.25 -245.1 85.9 -238.95 83.9 -225.1 74.2 -225.1 83.25 -221.9 83.25 -221.9 70.4 -201.15 70.4 -201.15 67.25 -223.1 67.25 -223.1 25.95 M-273.4 -57.95 L-273.6 -56.05 -273.0 -54.2 -271.75 -52.75 -269.95 -52.0 -268.0 -52.0 -266.25 -52.75 -264.95 -54.2 -264.35 -56.05 -264.55 -57.95 -265.55 -59.65 -267.1 -60.8 -269.0 -61.2 -270.9 -60.8 -272.45 -59.65 -273.4 -57.95 M-295.45 -101.85 L-294.85 -103.7 -295.05 -105.65 -296.05 -107.3 -297.6 -108.45 -299.5 -108.85 -301.4 -108.45 -302.95 -107.3 -303.9 -105.65 -304.1 -103.7 -303.5 -101.85 -302.25 -100.45 -300.45 -99.65 -298.5 -99.65 -296.75 -100.45 -295.45 -101.85 M130.0 180.35 L125.1 180.35 125.1 190.85 94.8 190.85 94.8 193.5 144.75 193.5 144.75 201.5 147.0 201.5 147.0 193.0 173.5 193.0 173.5 190.6 130.0 190.6 130.0 180.35 M130.0 136.65 L125.3 136.65 125.3 147.8 116.8 147.8 116.8 150.75 125.1 150.75 125.1 160.9 130.0 160.9 130.0 152.5 138.25 152.5 138.25 140.35 130.0 140.35 130.0 136.65 M7.75 77.25 L8.15 77.25 8.15 60.5 2.15 60.5 2.15 155.25 -5.7 155.25 -5.7 158.4 2.25 158.4 2.25 190.65 -45.7 190.65 -45.7 158.4 -19.7 158.4 -19.7 155.25 -28.0 155.25 -28.0 143.15 -37.5 143.15 -37.5 155.15 -59.2 155.15 -59.2 156.8 -73.5 156.8 -73.5 155.15 -115.85 155.15 -115.85 137.5 -119.75 137.5 -119.75 143.25 -125.25 143.25 -125.25 152.35 -164.85 152.35 -164.85 140.3 -171.4 140.3 -171.4 184.0 -178.75 184.0 -178.75 192.2 -179.6 192.2 -179.6 193.5 -34.65 193.5 -34.65 199.8 -30.35 199.8 -30.35 193.5 76.0 193.5 76.0 190.85 60.9 190.85 60.9 150.75 102.0 150.75 102.0 147.8 61.15 147.8 61.15 126.6 54.2 126.6 54.2 140.5 52.75 140.5 52.75 142.5 38.85 142.5 38.85 145.0 24.75 145.0 24.75 142.5 7.75 142.5 7.75 77.25 M-28.0 80.9 L-28.0 67.5 -164.6 67.5 -164.6 61.75 -168.5 61.75 -168.5 67.25 -187.25 67.25 -187.25 70.4 -171.4 70.4 -171.4 115.1 -177.25 115.1 -177.25 119.6 -171.4 119.6 -171.4 126.45 -164.85 126.45 -164.85 120.5 -119.75 120.5 -119.75 123.25 -115.85 123.25 -115.85 120.4 -96.9 120.4 -96.9 118.25 -94.0 118.25 -94.0 116.75 -93.8 116.75 -93.8 115.0 -165.5 115.0 -165.5 71.9 -77.35 71.9 -77.35 115.0 -80.4 115.0 -80.4 116.75 -80.15 116.75 -80.15 118.25 -77.3 118.25 -77.3 120.4 -28.0 120.4 -28.0 101.75 -34.3 101.75 -34.3 80.9 -28.0 80.9 M31.15 32.75 L31.15 29.45 28.4 29.45 28.4 26.2 -28.15 26.2 -28.15 6.5 -32.6 6.5 -32.6 26.25 -122.35 26.25 -122.35 -3.35 -126.25 -3.35 -126.25 25.75 -135.75 25.75 -135.75 27.5 -149.9 27.5 -149.9 25.75 -164.75 25.75 -164.75 5.5 -168.5 5.5 -168.5 40.65 -164.6 40.65 -164.6 32.35 -125.2 32.35 -125.2 44.5 -116.2 44.5 -116.2 32.35 -37.5 32.35 -37.5 44.5 -28.0 44.5 -28.0 32.5 2.15 32.5 2.15 46.3 8.15 46.3 8.15 32.75 31.15 32.75 M73.8 37.0 L61.1 37.0 61.1 3.15 57.55 3.15 57.55 26.2 48.5 26.2 48.5 29.45 45.8 29.45 45.8 32.75 52.5 32.75 52.5 46.75 54.3 46.75 54.3 55.5 61.15 55.5 61.15 46.65 61.65 46.65 61.65 40.5 73.8 40.5 73.8 37.0 M130.0 34.0 L130.0 37.0 88.8 37.0 88.8 40.5 124.8 40.5 124.8 77.8 125.3 77.8 125.3 121.8 130.0 121.8 130.0 46.6 138.25 46.6 138.25 34.0 130.0 34.0 M236.85 -118.4 L228.75 -118.4 228.75 -118.35 228.15 -118.35 228.15 -105.6 228.75 -105.6 228.75 -105.4 236.85 -105.4 236.85 -118.4 M-386.45 -59.55 L-385.85 -61.4 -386.05 -63.3 -387.05 -65.0 -388.6 -66.1 -390.5 -66.55 -392.4 -66.1 -393.95 -65.0 -394.9 -63.3 -395.1 -61.4 -394.5 -59.55 -393.25 -58.1 -391.45 -57.3 -389.5 -57.3 -387.75 -58.1 -386.45 -59.55 M-352.55 -109.5 L-354.1 -110.6 -356.0 -111.05 -357.9 -110.6 -359.45 -109.5 -360.4 -107.8 -360.6 -105.9 -360.0 -104.05 -358.75 -102.6 -356.95 -101.8 -355.0 -101.8 -353.25 -102.6 -351.95 -104.05 -351.35 -105.9 -351.55 -107.8 -352.55 -109.5 M-446.6 -290.55 L-438.75 -293.45 -440.8 -297.4 -448.05 -294.7 -455.75 -292.75 -454.75 -288.4 -446.6 -290.55 M-403.45 -339.25 L-406.15 -332.05 -402.2 -330.0 -399.3 -337.8 -397.2 -346.0 -401.5 -346.95 -403.45 -339.25 M48.0 -306.1 L46.65 -303.45 53.25 -299.8 56.35 -297.6 61.95 -292.65 64.5 -289.9 68.9 -283.85 70.8 -280.6 73.8 -273.75 75.8 -266.55 76.75 -259.1 76.6 -251.6 75.4 -244.2 73.15 -237.05 69.85 -230.3 65.65 -224.1 60.6 -218.6 54.8 -213.85 48.4 -210.0 45.7 -208.7 46.95 -206.0 53.15 -209.2 59.65 -213.75 65.4 -219.2 68.0 -222.2 72.45 -228.8 74.3 -232.3 77.25 -239.65 78.3 -243.45 79.6 -251.3 79.8 -255.3 79.4 -263.15 78.75 -267.05 76.65 -274.7 73.45 -281.95 69.25 -288.7 66.8 -291.8 61.25 -297.45 54.95 -302.25 48.0 -306.1 M-61.9 -244.55 L-59.8 -234.5 -56.55 -224.7 -52.1 -215.25 -46.55 -206.35 -40.05 -198.15 -32.6 -190.7 -24.4 -184.2 -16.85 -179.5 -18.05 -168.7 -22.65 -149.95 -25.35 -143.15 -27.0 -144.8 -31.45 -140.3 -31.85 -140.45 -26.35 -134.95 -26.0 -131.4 -27.05 -125.75 -28.45 -121.5 -30.6 -118.0 -32.2 -119.55 -38.0 -113.75 -29.6 -105.65 -44.1 -91.15 -52.5 -99.25 -58.45 -93.3 -56.85 -91.7 -60.4 -89.55 -64.65 -88.15 -70.3 -87.1 -73.85 -87.45 -79.35 -92.95 -83.7 -88.1 -82.05 -86.45 -88.85 -83.75 -112.45 -78.45 -120.35 -78.05 -123.25 -84.6 -136.75 -100.45 -145.75 -107.6 -156.1 -113.95 -171.6 -119.8 -180.3 -122.25 -180.7 -119.35 -178.25 -118.2 -181.75 -114.1 -187.25 -109.3 -193.6 -104.8 -200.1 -101.45 -207.75 -98.6 -208.05 -98.55 -210.35 -97.7 -214.45 -96.95 -225.6 -118.8 -226.95 -120.1 -224.45 -121.8 -227.75 -127.2 -239.95 -117.8 -237.1 -112.8 -234.25 -114.45 -228.95 -105.45 -232.25 -104.3 -227.1 -98.15 -228.1 -96.1 -229.5 -91.25 -229.95 -86.2 -229.5 -81.15 -228.1 -76.3 -225.85 -71.8 -222.8 -67.75 -219.1 -64.35 -217.95 -63.65 -218.35 -53.6 -218.25 -53.4 -218.25 -50.8 -216.1 -50.8 -216.2 -39.6 -218.95 -20.95 -221.75 -11.45 -227.6 0.9 -241.45 -7.6 -250.95 -9.95 -253.7 -6.2 -251.45 -2.25 -246.5 -0.55 -253.5 1.45 -261.5 6.15 -264.95 9.4 -266.6 11.95 -260.85 16.8 -255.6 12.05 -251.2 9.55 -251.2 7.2 -227.95 7.2 -227.95 11.1 -223.1 11.1 -223.1 7.85 -216.4 -5.0 -211.95 -19.2 -209.5 -31.85 -168.5 -31.85 -168.5 -15.65 -164.75 -15.65 -164.75 -33.5 -149.6 -33.5 -149.6 -35.0 -149.5 -35.0 -149.5 -36.05 -151.1 -36.05 -151.1 -37.55 -212.15 -37.55 -212.15 -92.55 -131.65 -92.55 -131.65 -37.55 -134.45 -37.55 -134.45 -36.05 -135.9 -36.05 -135.9 -35.0 -135.7 -35.0 -135.7 -33.5 -126.25 -33.5 -126.25 -17.5 -121.85 -17.5 -121.85 -36.0 -115.85 -36.0 -115.85 -47.5 -105.1 -47.5 -105.1 -50.35 -88.1 -50.35 -88.1 -47.5 -67.0 -47.5 -67.0 -50.35 -50.0 -50.35 -50.0 -47.5 -37.35 -47.5 -37.35 -36.0 -32.95 -36.0 -32.95 -23.35 -28.15 -23.35 -28.15 -33.0 35.65 -33.0 35.65 -35.25 27.35 -35.25 27.35 -45.25 1.85 -45.25 1.85 -73.5 14.85 -73.5 14.85 -76.4 2.25 -76.4 2.25 -101.75 14.0 -101.75 14.0 -122.2 8.95 -122.2 9.35 -162.6 13.5 -162.6 13.5 -164.0 14.5 -164.0 14.5 -164.45 -7.75 -164.45 -7.75 -175.9 -0.9 -175.9 -0.9 -177.6 -5.1 -178.1 -13.3 -181.0 -22.25 -186.35 -30.45 -192.75 -37.85 -200.1 -44.25 -208.35 -49.6 -217.3 -53.8 -226.85 -56.8 -236.8 -58.1 -244.35 -61.9 -244.55 M-30.0 -255.35 L-29.3 -247.45 -27.45 -239.75 -24.55 -232.4 -20.6 -225.5 -15.7 -219.3 -12.9 -216.45 -6.8 -211.4 2.95 -205.9 4.25 -208.55 -5.0 -213.85 -8.0 -216.1 -13.45 -221.25 -18.05 -227.15 -21.8 -233.65 -24.6 -240.6 -26.35 -247.9 -27.0 -255.35 -26.6 -262.85 -26.0 -266.55 -24.0 -273.75 -20.95 -280.6 -17.0 -286.95 -14.65 -289.9 -9.4 -295.25 -3.45 -299.8 3.15 -303.45 1.8 -306.1 -5.05 -302.3 -8.3 -300.05 -14.25 -294.8 -16.9 -291.9 -21.6 -285.5 -25.35 -278.5 -28.0 -271.05 -29.55 -263.25 -30.0 -255.35 M-75.5 -383.35 L-78.2 -384.7 -81.85 -378.1 -86.4 -372.15 -91.75 -366.9 -97.8 -362.45 -104.4 -358.95 -111.45 -356.4 -118.8 -354.95 -126.3 -354.55 -130.05 -354.75 -137.4 -355.95 -144.55 -358.2 -151.3 -361.5 -157.5 -365.7 -163.05 -370.75 -167.8 -376.55 -173.05 -385.8 -175.75 -384.45 -172.45 -378.2 -167.85 -371.7 -162.45 -365.95 -156.2 -361.0 -152.85 -358.9 -145.7 -355.45 -138.15 -353.05 -130.35 -351.75 -122.45 -351.6 -114.55 -352.6 -110.7 -353.5 -103.25 -356.15 -96.25 -359.9 -92.95 -362.1 -86.9 -367.25 -81.65 -373.15 -77.3 -379.8 -75.5 -383.35 M-193.8 -300.6 L-201.45 -300.6 -207.5 -300.05 -210.2 -299.4 -209.5 -296.5 -207.1 -297.1 -201.4 -297.6 -194.1 -297.6 -187.0 -296.25 -180.25 -293.65 -174.1 -289.85 -168.75 -284.95 -164.4 -279.2 -161.2 -272.75 -160.6 -270.65 -161.1 -270.3 -164.85 -247.8 -187.85 -224.3 -210.6 -223.05 -211.0 -221.9 -215.2 -223.5 -221.35 -227.3 -226.65 -232.2 -231.05 -237.95 -234.25 -244.4 -236.25 -251.4 -236.9 -258.6 -236.25 -265.85 -235.35 -270.05 -238.3 -270.6 -239.2 -266.35 -239.9 -258.6 -239.2 -250.8 -237.05 -243.35 -233.6 -236.35 -228.9 -230.15 -223.15 -224.9 -216.5 -220.8 -211.95 -219.05 -212.35 -217.8 -225.45 -219.05 -225.6 -214.4 -215.6 -214.1 -205.25 -211.25 -195.6 -206.6 -186.95 -200.3 -179.55 -192.55 -173.65 -183.6 -169.4 -173.75 -167.05 -163.3 -166.7 -156.3 -166.6 -156.55 -162.85 -156.55 -164.1 -168.8 -162.35 -170.0 -161.95 -168.55 -158.45 -161.55 -153.8 -155.35 -148.0 -150.1 -141.4 -146.0 -134.15 -143.2 -126.5 -141.75 -118.8 -141.75 -112.85 -142.3 -110.1 -142.95 -110.85 -145.85 -113.2 -145.25 -118.9 -144.75 -126.2 -144.75 -133.3 -146.1 -140.05 -148.7 -146.2 -152.5 -151.55 -157.4 -155.9 -163.15 -159.15 -169.65 -159.6 -171.2 -155.45 -172.9 -155.2 -172.95 -155.6 -174.05 -151.35 -202.55 -137.2 -213.75 -111.0 -220.8 -110.8 -221.05 -105.15 -218.85 -99.0 -215.05 -93.65 -210.2 -89.3 -204.4 -86.05 -197.95 -84.1 -191.0 -83.4 -183.8 -84.1 -176.55 -84.95 -172.35 -82.0 -171.75 -81.15 -176.0 -80.4 -183.8 -81.1 -191.55 -83.25 -199.05 -86.7 -206.0 -91.4 -212.2 -97.15 -217.45 -103.8 -221.55 -108.55 -223.4 -106.4 -225.65 -97.0 -224.2 -96.4 -226.9 -99.95 -227.05 -107.25 -228.3 -114.3 -230.45 -121.05 -233.4 -127.4 -237.2 -133.2 -241.75 -138.4 -246.95 -142.95 -252.8 -146.75 -259.1 -149.7 -265.85 -151.85 -272.95 -153.1 -280.2 -153.5 -286.3 -157.85 -286.8 -156.1 -274.1 -158.05 -272.65 -158.35 -273.8 -161.85 -280.8 -166.55 -287.0 -172.3 -292.25 -178.9 -296.35 -186.15 -299.15 -193.8 -300.6 M-293.95 -309.05 L-293.2 -315.4 -291.85 -321.3 -290.2 -323.65 -288.2 -322.05 -281.95 -328.4 -287.1 -333.55 -293.25 -327.3 -291.95 -325.8 -295.75 -322.1 -299.8 -325.95 -325.3 -300.45 -320.35 -295.5 -321.2 -282.55 -324.0 -270.05 -328.4 -258.4 -334.45 -247.7 -341.95 -238.2 -346.65 -233.5 -356.15 -226.0 -366.85 -219.95 -378.5 -215.55 -391.0 -212.75 -403.6 -211.7 -404.1 -211.05 -409.6 -215.6 -434.1 -190.8 -400.6 -157.3 -405.2 -153.15 -396.1 -141.05 -392.35 -144.3 -393.7 -147.05 -374.35 -157.65 -372.5 -154.55 -364.25 -158.05 -353.1 -161.3 -351.7 -161.3 -350.8 -160.1 -347.1 -156.7 -342.8 -154.05 -338.1 -152.2 -333.1 -151.3 -328.05 -151.3 -323.1 -152.2 -318.4 -154.05 -314.1 -156.7 -310.35 -160.1 -309.65 -161.05 -308.35 -161.05 -296.0 -158.05 -286.75 -154.3 -284.75 -157.05 -266.5 -147.3 -267.25 -144.05 -263.55 -141.55 -254.45 -153.1 -259.35 -156.65 -261.85 -155.3 -284.7 -166.85 -283.1 -173.75 -278.9 -183.6 -273.75 -192.55 -266.7 -200.2 -263.2 -203.2 -261.95 -198.45 -259.2 -198.95 -260.6 -208.05 -261.8 -212.25 -266.95 -225.6 -272.25 -234.45 -280.1 -244.6 -292.6 -255.8 -302.95 -262.3 -302.45 -271.95 -298.6 -287.45 -295.1 -297.3 -293.25 -297.1 -288.45 -303.3 -293.95 -309.05 M-134.2 -460.65 L-141.9 -458.8 -145.6 -457.5 -152.75 -454.05 -159.3 -449.6 -165.2 -444.25 -170.2 -438.15 -172.4 -434.8 -175.65 -428.5 -172.9 -427.25 -169.85 -433.2 -165.5 -439.35 -160.35 -444.8 -154.5 -449.45 -148.0 -453.15 -144.55 -454.7 -137.4 -456.95 -130.05 -458.15 -122.55 -458.3 -115.1 -457.35 -107.9 -455.35 -101.0 -452.35 -94.65 -448.35 -88.95 -443.5 -84.0 -437.85 -79.9 -431.6 -78.2 -428.2 -75.5 -429.55 -79.3 -436.4 -84.1 -442.7 -89.75 -448.3 -96.15 -452.95 -99.55 -454.95 -106.8 -458.15 -114.45 -460.3 -122.3 -461.3 -126.35 -461.35 -134.2 -460.65 M-147.75 -606.45 L-141.6 -606.45 -141.6 -610.3 -106.6 -610.3 -106.6 -606.45 -105.1 -606.45 -105.1 -608.3 -87.45 -608.3 -87.45 -593.25 -105.1 -593.25 -105.1 -594.65 -106.6 -594.65 -106.6 -590.85 -105.1 -590.85 -105.1 -592.25 -87.45 -592.25 -87.45 -575.75 -105.1 -575.75 -105.1 -577.15 -106.6 -577.15 -106.6 -573.35 -105.1 -573.35 -105.1 -574.75 -87.45 -574.75 -87.45 -558.4 -105.1 -558.4 -105.1 -559.85 -106.6 -559.85 -106.6 -556.0 -105.1 -556.0 -105.1 -557.4 -87.45 -557.4 -87.45 -540.45 -105.1 -540.45 -105.1 -542.2 -106.6 -542.2 -106.6 -540.45 -107.6 -540.45 -107.6 -536.45 -101.6 -536.45 -101.6 -506.45 -108.1 -506.45 -108.1 -502.6 -118.1 -502.6 -118.1 -499.3 -104.35 -499.3 -104.35 -490.35 -108.25 -490.35 -108.25 -489.15 -101.6 -487.6 -91.85 -483.95 -71.95 -473.3 -65.3 -465.45 -63.45 -467.45 -65.95 -473.15 -55.25 -473.15 -55.25 -475.45 -40.95 -475.45 -40.95 -473.15 -32.85 -473.3 -26.1 -466.55 -4.35 -481.55 23.4 -491.8 48.15 -490.55 71.4 -483.8 89.15 -472.3 103.15 -455.55 108.15 -435.05 110.9 -399.45 101.9 -380.1 82.25 -357.8 91.25 -349.8 91.35 -340.15 93.8 -340.15 93.8 -326.8 91.35 -326.8 91.35 -312.35 86.15 -317.55 84.4 -315.8 91.75 -307.6 97.6 -299.0 102.4 -289.75 106.05 -279.95 107.7 -273.8 109.1 -273.8 109.1 -278.25 118.55 -278.25 118.55 -263.4 121.05 -263.4 121.05 -273.4 125.0 -273.4 125.0 -279.9 154.5 -279.9 154.5 -273.4 158.65 -273.4 158.65 -274.55 160.6 -274.55 160.6 -276.05 158.65 -276.05 158.65 -294.05 175.8 -294.05 175.8 -276.05 174.4 -276.05 174.4 -274.55 178.2 -274.55 178.2 -276.05 176.8 -276.05 176.8 -294.05 193.05 -294.05 193.05 -276.05 191.65 -276.05 191.65 -274.55 195.45 -274.55 195.45 -276.05 194.05 -276.05 194.05 -294.05 210.45 -294.05 210.45 -276.05 209.0 -276.05 209.0 -274.55 212.85 -274.55 212.85 -276.05 211.45 -276.05 211.45 -294.05 226.65 -294.05 226.65 -276.05 225.15 -276.05 225.15 -274.55 228.95 -274.55 228.95 -239.9 225.15 -239.9 225.15 -233.7 159.15 -233.7 159.15 -239.9 154.5 -239.9 154.5 -234.9 125.0 -234.9 125.0 -239.9 121.05 -239.9 121.05 -249.55 118.55 -249.55 118.55 -235.2 109.1 -235.2 109.1 -239.1 107.7 -239.1 105.95 -229.3 102.05 -219.65 96.95 -210.5 90.8 -202.1 83.65 -194.5 75.65 -187.85 66.85 -182.2 57.4 -178.3 53.75 -177.6 53.75 -175.9 58.7 -175.9 58.7 -164.45 35.05 -164.45 35.05 -162.6 60.75 -162.6 60.75 -154.4 62.6 -154.4 62.6 -134.4 60.75 -134.4 60.75 -113.7 55.8 -113.7 55.8 -101.75 67.5 -101.75 67.5 -76.4 45.85 -76.4 45.85 -73.5 57.85 -73.5 57.85 -68.25 59.5 -68.25 59.5 -54.0 57.85 -54.0 57.85 -47.6 55.5 -47.6 55.5 -35.25 49.8 -35.25 49.8 -33.0 57.55 -33.0 57.55 -21.6 60.1 -21.6 60.1 -36.9 63.0 -36.9 63.0 -45.95 130.5 -45.95 130.5 -36.9 138.25 -36.9 138.25 -46.9 162.85 -46.9 162.85 -49.4 148.7 -49.4 148.7 -57.75 145.85 -57.75 145.85 -79.4 148.7 -79.4 148.7 -84.45 204.85 -84.45 204.85 -79.45 208.25 -79.45 208.25 -87.65 155.0 -86.95 155.0 -149.2 153.8 -149.2 153.8 -170.35 155.0 -170.35 155.0 -194.7 192.2 -194.7 192.2 -198.7 171.3 -198.7 171.3 -207.5 169.5 -207.5 169.5 -221.5 171.3 -221.5 171.3 -230.85 240.2 -230.85 240.2 -233.7 230.0 -233.7 230.0 -259.5 234.5 -259.5 234.5 -272.0 229.95 -272.0 229.95 -289.2 227.6 -289.2 227.75 -311.45 231.65 -311.45 231.65 -336.5 236.5 -336.5 236.5 -348.5 231.65 -348.5 231.65 -415.75 236.5 -415.75 236.5 -426.0 231.65 -426.0 231.65 -490.5 236.5 -490.5 236.5 -503.0 231.65 -503.0 231.65 -526.5 221.0 -526.5 221.0 -518.75 212.25 -518.75 212.25 -516.25 190.5 -516.25 190.5 -518.75 157.55 -518.75 157.55 -587.45 166.0 -587.45 166.0 -590.75 188.0 -590.75 188.0 -587.45 221.0 -587.45 221.0 -552.7 231.65 -552.7 231.65 -567.5 236.5 -567.5 236.5 -579.75 282.5 -579.75 282.5 -546.75 284.25 -546.75 284.25 -531.75 282.5 -531.75 282.5 -474.5 284.5 -474.5 284.5 -452.25 282.5 -452.25 282.5 -389.75 284.5 -389.75 284.5 -367.5 282.5 -367.5 282.5 -306.75 284.65 -306.75 284.65 -292.2 282.5 -292.2 282.5 -265.25 284.65 -265.25 284.65 -250.7 282.5 -250.7 282.5 -233.7 261.3 -233.7 261.3 -230.85 270.3 -230.85 270.3 -198.7 226.65 -198.7 226.65 -194.7 228.75 -194.7 228.75 -183.9 236.1 -183.9 236.1 -194.85 260.8 -194.85 260.8 -175.0 263.8 -175.0 263.8 -134.2 261.1 -134.2 261.1 -57.65 208.25 -56.65 208.25 -65.65 204.85 -65.65 204.85 -49.4 194.0 -49.4 194.0 -46.9 218.0 -46.9 218.0 96.15 219.8 96.15 219.75 46.0 226.65 46.0 226.65 34.5 221.05 34.5 221.05 -8.0 223.2 -8.0 223.35 -46.25 269.75 -46.25 269.75 -17.0 272.5 -17.0 272.5 5.0 269.75 5.0 269.75 117.0 268.5 117.0 268.5 119.8 225.35 119.8 225.35 117.0 222.9 117.0 222.9 114.65 219.8 114.65 219.8 112.8 218.0 112.8 218.0 190.6 194.4 190.6 194.4 193.0 205.75 193.0 205.75 233.25 182.75 233.25 182.75 233.9 183.9 233.9 183.9 235.55 204.25 235.55 204.25 235.8 215.15 235.8 215.15 260.15 218.8 260.15 218.8 274.8 215.15 274.8 215.15 284.3 204.25 284.3 204.25 332.25 139.5 332.25 139.5 322.0 130.0 322.0 130.0 332.25 103.25 332.25 103.25 314.8 101.5 314.8 101.5 332.25 59.5 332.25 59.5 322.0 54.7 322.0 54.7 252.5 51.0 252.5 51.0 322.25 -82.9 322.25 -82.9 318.25 -86.4 318.25 -86.4 304.25 -82.9 304.25 -82.9 258.5 -86.5 258.5 -86.5 244.5 -82.9 244.5 -82.9 235.85 -74.15 235.85 -74.15 233.9 -73.4 233.9 -73.4 231.75 -116.75 231.75 -116.75 221.3 -128.15 221.3 -128.15 231.75 -138.15 231.75 -138.15 233.8 -150.25 233.8 -150.25 231.75 -177.75 231.75 -177.75 233.8 -196.65 233.8 -196.65 231.75 -206.9 231.75 -206.9 221.3 -218.2 221.3 -218.2 231.75 -236.0 231.75 -236.0 220.0 -238.5 220.0 -238.5 207.0 -235.95 207.0 -235.95 193.5 -204.0 193.5 -204.0 192.2 -204.75 192.2 -204.75 184.0 -212.15 184.0 -212.15 152.35 -208.5 152.35 -208.5 140.35 -212.5 140.35 -212.5 119.6 -203.25 119.6 -203.25 115.1 -221.9 115.1 -221.9 97.35 -225.1 97.35 -225.1 110.7 -230.75 112.95 -236.5 119.7 -244.35 144.2 -246.85 184.2 -274.1 218.2 -331.6 246.45 -337.1 259.2 -343.6 267.2 -351.6 258.8 -354.85 261.7 -361.1 254.7 -423.15 192.05 -420.75 190.05 -429.25 182.2 -436.75 177.7 -501.0 157.1 -505.15 156.7 -508.4 157.95 -509.75 160.9 -510.35 163.55 -510.35 175.2 -513.85 175.2 -513.85 184.05 -573.85 184.05 -573.85 175.2 -577.35 175.2 -577.05 155.05 -575.7 146.5 -573.35 138.2 -569.9 130.25 -565.55 122.8 -560.3 115.9 -554.2 109.7 -551.45 107.55 -556.0 101.45 -571.75 115.45 -583.25 103.95 -585.25 105.95 -597.25 94.2 -595.3 91.75 -607.0 79.95 -602.0 72.2 -598.05 61.0 -595.45 49.4 -594.35 37.6 -594.5 32.45 -599.55 32.45 -599.55 29.2 -600.95 29.2 -600.95 15.2 -599.55 15.2 -599.55 10.95 -594.7 10.95 -594.7 5.7 -589.25 5.7 -589.25 8.25 -522.5 8.25 -522.5 5.7 -517.5 5.7 -517.85 37.6 -516.75 49.4 -514.15 61.0 -510.15 72.2 -506.45 79.55 -499.2 75.9 -499.85 74.9 -503.75 67.2 -506.65 59.05 -508.55 50.6 -509.35 42.0 -509.05 33.4 -507.75 24.85 -505.35 16.55 -497.95 0.4 -489.25 -10.1 -478.6 -18.3 -471.95 -21.9 -464.0 -25.5 -455.7 -28.15 -447.1 -29.75 -438.35 -30.25 -429.65 -29.75 -423.95 -28.7 -421.75 -36.8 -444.0 -38.05 -444.75 -50.8 -441.2 -52.3 -442.25 -63.6 -441.9 -64.5 -441.1 -65.0 -437.35 -68.4 -434.3 -72.4 -432.05 -76.95 -430.7 -81.8 -430.25 -86.85 -430.7 -91.85 -432.05 -96.7 -432.25 -97.05 -428.95 -103.95 -431.6 -105.8 -425.7 -114.95 -423.1 -113.3 -420.1 -117.8 -432.1 -127.3 -436.1 -122.3 -473.45 -158.9 -475.2 -157.3 -490.85 -175.05 -495.6 -185.3 -497.6 -192.55 -498.6 -203.05 -498.1 -210.8 -495.6 -218.55 -492.45 -224.8 -487.1 -232.8 -478.75 -241.45 -476.75 -240.3 -475.8 -240.1 -455.75 -241.95 -443.6 -243.6 -423.75 -251.3 -433.6 -261.45 -436.05 -259.0 -447.35 -253.3 -482.85 -250.05 -496.85 -254.8 -501.3 -259.25 -502.75 -257.8 -516.65 -271.7 -515.2 -273.15 -523.7 -281.65 -510.25 -295.05 -503.5 -292.35 -500.6 -294.5 -501.55 -296.9 -507.6 -299.45 -515.4 -304.1 -526.85 -313.1 -539.55 -325.5 -542.9 -339.35 -545.5 -348.05 -547.05 -357.05 -547.5 -366.1 -546.8 -375.15 -544.95 -384.05 -542.1 -392.7 -538.15 -400.85 -533.25 -408.5 -527.45 -415.5 -520.85 -421.75 -513.5 -427.1 -505.55 -431.5 -497.15 -434.95 -488.35 -437.3 -479.35 -438.55 -470.3 -438.65 -461.25 -437.7 -452.4 -435.6 -446.85 -433.55 -432.35 -426.55 -421.3 -416.9 -415.5 -410.35 -410.35 -402.85 -406.2 -394.75 -405.55 -392.95 -402.55 -391.0 -400.95 -393.1 -404.2 -401.15 -390.75 -414.55 -382.3 -406.1 -380.6 -407.65 -366.7 -393.75 -368.4 -392.2 -363.9 -387.7 -359.6 -370.3 -359.6 -348.8 -364.1 -333.55 -368.4 -326.6 -369.95 -325.1 -360.1 -315.3 -356.4 -325.65 -353.1 -337.95 -350.95 -350.8 -349.6 -367.9 -352.1 -369.95 -343.75 -376.6 -332.1 -384.95 -323.75 -388.1 -314.25 -389.95 -304.75 -389.6 -296.25 -387.45 -285.6 -382.45 -271.6 -371.8 -262.45 -362.8 -264.1 -360.95 -260.25 -357.45 -264.6 -353.1 -266.15 -354.85 -272.75 -348.2 -267.55 -343.0 -261.1 -349.55 -262.7 -351.65 -253.6 -355.05 -247.45 -355.4 -241.45 -349.3 -236.1 -354.8 -236.95 -356.55 -231.5 -358.85 -223.2 -361.15 -212.8 -363.45 -202.0 -364.65 -197.25 -357.1 -190.8 -348.9 -183.3 -341.45 -175.1 -334.95 -166.25 -329.4 -156.8 -324.95 -146.6 -321.95 -137.45 -320.1 -137.15 -323.45 -144.75 -324.75 -154.7 -327.75 -164.25 -331.95 -173.2 -337.3 -181.45 -343.7 -188.8 -351.1 -195.2 -359.3 -200.55 -368.25 -204.8 -377.4 -206.1 -377.4 -206.1 -373.85 -217.15 -373.85 -217.15 -395.55 -219.25 -395.55 -219.55 -394.65 -222.1 -389.85 -225.5 -385.65 -229.55 -382.05 -234.2 -379.3 -239.3 -377.4 -244.65 -376.4 -250.05 -376.4 -255.4 -377.4 -260.45 -379.3 -265.1 -382.05 -269.2 -385.65 -272.6 -389.85 -275.15 -394.65 -275.45 -395.55 -277.1 -395.55 -277.1 -392.05 -333.6 -392.05 -333.6 -476.8 -277.1 -476.8 -277.1 -417.8 -275.3 -417.8 -273.95 -420.85 -271.0 -425.4 -267.25 -429.3 -262.85 -432.5 -257.95 -434.85 -257.55 -434.95 -257.55 -436.8 -235.55 -436.8 -235.55 -434.25 -231.85 -432.5 -227.45 -429.3 -223.7 -425.4 -220.7 -420.85 -219.4 -417.8 -217.15 -417.8 -217.15 -439.3 -206.1 -439.3 -206.1 -435.3 -204.35 -435.3 -199.35 -448.4 -193.7 -457.2 -187.05 -465.2 -179.45 -472.35 -171.05 -478.5 -161.9 -483.6 -152.25 -487.5 -142.2 -490.2 -142.1 -491.05 -145.85 -491.05 -145.85 -499.3 -131.95 -499.3 -131.95 -502.6 -141.6 -502.6 -141.6 -506.45 -146.6 -506.45 -146.6 -536.45 -142.1 -536.45 -142.1 -540.45 -147.75 -540.45 -147.75 -606.45" fill="#969696" fill-rule="evenodd" stroke="none"/>
    <path d="M-265.7 23.25 L-268.7 30.45 -269.55 34.25 -269.9 41.0 -269.55 44.95 -267.4 52.5 -265.7 56.0 -263.55 59.25 -260.85 62.4 -266.6 67.25 -269.55 63.75 -272.2 59.7 -274.35 55.4 -275.95 50.85 -276.95 46.1 -277.4 41.15 -276.95 33.1 -275.95 28.4 -274.35 23.85 -272.2 19.5 -269.55 15.45 -266.6 11.95 -260.85 16.8 -263.55 19.95 -265.7 23.25" fill="#707070" fill-rule="evenodd" stroke="none"/>
    <path d="M-295.45 15.95 L-299.2 22.95 -302.05 30.95 -303.25 38.75 -302.85 45.45 -302.05 49.3 -300.75 53.0 -299.0 56.5 -295.45 61.85 -301.95 66.6 -307.65 55.9 -309.25 51.35 -310.3 46.6 -310.75 41.65 -310.3 33.6 -309.25 28.9 -305.95 19.35 -301.7 11.45 -295.45 15.95" fill="#707070" fill-rule="evenodd" stroke="none"/>
    <path d="M-431.2 0.5 L-426.55 2.0 -422.1 4.0 -417.95 6.6 -414.15 9.65 -410.8 13.15 -407.85 17.05 -405.4 21.25 -403.5 25.75 -402.15 30.45 -401.4 35.25 -401.25 40.1 -401.7 44.95 -402.75 49.75 -404.4 54.35 -406.55 58.7 -409.25 62.75 -412.4 66.45 -416.0 69.75 -420.0 72.55 -424.3 74.85 -428.85 76.65 -433.55 77.8 -438.4 78.4 -443.3 78.4 -448.1 77.8 -452.85 76.65 -457.4 74.85 -461.7 72.55 -465.65 69.75 -469.25 66.45 -472.45 62.75 -475.1 58.7 -477.3 54.35 -478.9 49.75 -479.95 44.95 -480.4 40.1 -480.25 35.25 -479.5 30.45 -478.2 25.75 -476.3 21.25 -473.85 17.05 -470.9 13.15 -467.5 9.65 -463.7 6.6 -459.55 4.0 -455.15 2.0 -450.5 0.5 -445.7 -0.4 -440.85 -0.7 -436.0 -0.4 -431.2 0.5" fill="#707070" fill-rule="evenodd" stroke="none"/>
    <path d="M-356.35 -50.0 L-355.7 -56.6 -354.8 -59.7 -351.9 -65.45 -347.65 -70.3 -342.4 -74.0 -336.35 -76.3 -330.15 -77.05 -323.6 -76.2 -317.6 -73.85 -312.35 -70.1 -308.2 -65.15 -305.35 -59.4 -304.05 -53.1 -303.95 -50.0 -304.25 -46.65 -306.05 -40.45 -307.35 -37.9 -312.3 -40.35 -311.05 -42.75 -310.2 -45.15 -309.7 -47.65 -309.5 -52.75 -309.9 -55.25 -311.6 -60.05 -314.4 -64.3 -318.15 -67.75 -322.65 -70.15 -325.1 -70.9 -330.15 -71.55 -335.2 -70.9 -337.6 -70.15 -342.1 -67.75 -344.1 -66.15 -347.4 -62.25 -349.65 -57.7 -350.75 -52.75 -350.6 -47.65 -349.2 -42.75 -348.0 -40.35 -352.9 -37.9 -354.35 -40.75 -355.4 -43.8 -356.35 -50.0" fill="#707070" fill-rule="evenodd" stroke="none"/>
    <path d="M-372.1 4.75 L-368.4 13.45 -365.8 22.6 -364.35 31.95 -364.05 41.45 -364.95 50.85 -366.95 60.15 -370.1 69.05 -374.35 77.55 -379.6 85.45 -385.75 92.65 -392.75 99.05 -400.5 104.5 -408.85 109.0 -417.7 112.45 -426.9 114.75 -436.3 115.9 -445.75 115.9 -455.2 114.75 -457.4 114.2 -457.4 114.05 -458.65 113.7 -456.25 105.2 -454.2 105.8 -454.45 106.7 -453.7 106.85 -445.3 107.9 -436.8 107.9 -428.35 106.85 -420.1 104.8 -412.2 101.75 -404.7 97.7 -397.8 92.8 -391.5 87.1 -386.0 80.65 -381.3 73.55 -377.5 65.95 -374.7 57.95 -372.85 49.65 -372.1 41.2 -372.35 32.7 -373.65 24.3 -375.95 16.15 -379.3 8.3 -383.55 0.95 -387.2 -3.9 -380.8 -8.7 -376.85 -3.5 -372.1 4.75" fill="#707070" fill-rule="evenodd" stroke="none"/>
    <path d="M-576.35 41.7 L-576.35 32.55 -536.6 32.55 -536.6 41.7 -576.35 41.7" fill="#707070" fill-rule="evenodd" stroke="none"/>
    <path d="M-296.25 -115.65 L-296.25 -109.4 -302.75 -109.4 -302.75 -115.65 -296.25 -115.65" fill="#707070" fill-rule="evenodd" stroke="none"/>
    <path d="M-327.55 -151.35 L-327.55 -144.15 -334.05 -144.15 -334.05 -151.45 -333.1 -151.3 -328.05 -151.3 -327.55 -151.35" fill="#707070" fill-rule="evenodd" stroke="none"/>
    <path d="M-319.25 -146.15 L-325.55 -144.5 -327.4 -151.4 -323.1 -152.2 -321.1 -153.0 -319.25 -146.15" fill="#707070" fill-rule="evenodd" stroke="none"/>
    <path d="M-311.75 -150.2 L-317.4 -146.95 -320.9 -153.05 -318.4 -154.05 -315.15 -156.05 -311.75 -150.2" fill="#707070" fill-rule="evenodd" stroke="none"/>
    <path d="M-310.35 -160.1 L-310.05 -160.5 -305.35 -155.8 -309.95 -151.2 -314.95 -156.2 -314.1 -156.7 -310.35 -160.1" fill="#707070" fill-rule="evenodd" stroke="none"/>
    <path d="M-335.95 -144.5 L-342.25 -146.15 -340.4 -153.1 -338.1 -152.2 -334.1 -151.45 -335.95 -144.5" fill="#707070" fill-rule="evenodd" stroke="none"/>
    <path d="M-344.1 -146.95 L-349.75 -150.2 -346.3 -156.2 -342.8 -154.05 -340.55 -153.15 -344.1 -146.95" fill="#707070" fill-rule="evenodd" stroke="none"/>
    <path d="M-351.25 -160.65 L-350.8 -160.1 -347.1 -156.7 -346.45 -156.3 -351.55 -151.2 -356.15 -155.8 -351.25 -160.65" fill="#707070" fill-rule="evenodd" stroke="none"/>
    <path d="M-424.4 -80.4 L-426.1 -74.25 -432.55 -76.0 -432.05 -76.95 -430.7 -81.8 -430.65 -82.15 -424.4 -80.4" fill="#707070" fill-rule="evenodd" stroke="none"/>
    <path d="M-424.1 -88.8 L-424.15 -82.4 -430.65 -82.45 -430.25 -86.85 -430.4 -88.85 -424.1 -88.8" fill="#707070" fill-rule="evenodd" stroke="none"/>
    <path d="M-430.45 -89.2 L-430.7 -91.85 -431.7 -95.45 -425.95 -96.95 -424.35 -90.8 -430.45 -89.2" fill="#707070" fill-rule="evenodd" stroke="none"/>
    <path d="M-435.85 -70.4 L-434.3 -72.4 -432.6 -75.9 -426.9 -72.55 -430.15 -67.05 -435.85 -70.4" fill="#707070" fill-rule="evenodd" stroke="none"/>
    <path d="M-437.35 -68.4 L-436.0 -70.2 -431.4 -65.45 -435.95 -61.0 -440.45 -65.55 -437.35 -68.4" fill="#707070" fill-rule="evenodd" stroke="none"/>
    <path d="M-229.5 -81.15 L-228.1 -76.3 -227.9 -75.9 -233.95 -74.25 -235.65 -80.4 -229.6 -82.05 -229.5 -81.15" fill="#707070" fill-rule="evenodd" stroke="none"/>
    <path d="M-229.7 -88.85 L-229.95 -86.2 -229.6 -82.45 -235.85 -82.4 -235.9 -88.8 -229.7 -88.85" fill="#707070" fill-rule="evenodd" stroke="none"/>
    <path d="M-228.3 -95.45 L-229.5 -91.25 -229.7 -89.25 -235.65 -90.8 -234.05 -96.95 -228.3 -95.45" fill="#707070" fill-rule="evenodd" stroke="none"/>
    <path d="M-224.6 -70.15 L-229.9 -67.05 -233.15 -72.55 Q-230.45 -74.1 -227.8 -75.7 L-225.85 -71.8 -224.6 -70.15" fill="#707070" fill-rule="evenodd" stroke="none"/>
    <path d="M-224.35 -69.8 L-222.8 -67.75 -220.0 -65.15 -224.1 -61.0 -228.65 -65.45 -224.35 -69.8" fill="#707070" fill-rule="evenodd" stroke="none"/>
    <path d="M-287.3 -105.05 L-293.1 -102.75 -295.5 -108.75 -289.7 -111.1 -287.3 -105.05" fill="#707070" fill-rule="evenodd" stroke="none"/>
    <path d="M-290.0 -96.8 L-295.2 -92.85 -298.95 -97.85 -293.8 -101.8 -290.0 -96.8" fill="#707070" fill-rule="evenodd" stroke="none"/>
    <path d="M-303.45 -108.75 L-305.85 -102.75 -311.65 -105.05 -309.25 -111.1 -303.45 -108.75" fill="#707070" fill-rule="evenodd" stroke="none"/>
    <path d="M-305.15 -101.8 L-300.0 -97.85 -303.75 -92.85 -308.95 -96.8 -305.15 -101.8" fill="#707070" fill-rule="evenodd" stroke="none"/>
    <path d="M-359.05 -118.0 L-352.55 -118.0 -352.55 -111.75 -359.05 -111.75 -359.05 -118.0" fill="#707070" fill-rule="evenodd" stroke="none"/>
    <path d="M-351.85 -111.1 L-346.05 -113.45 -343.65 -107.4 -349.4 -105.05 -351.85 -111.1" fill="#707070" fill-rule="evenodd" stroke="none"/>
    <path d="M-346.35 -99.15 L-351.55 -95.2 -355.3 -100.2 -350.1 -104.1 -346.35 -99.15" fill="#707070" fill-rule="evenodd" stroke="none"/>
    <path d="M-365.55 -113.45 L-359.75 -111.1 -362.2 -105.05 -368.0 -107.4 -365.55 -113.45" fill="#707070" fill-rule="evenodd" stroke="none"/>
    <path d="M-361.5 -104.1 L-356.3 -100.2 -360.1 -95.2 -365.25 -99.15 -361.5 -104.1" fill="#707070" fill-rule="evenodd" stroke="none"/>
    <path d="M-272.55 -61.4 L-272.55 -67.65 -266.05 -67.65 -266.05 -61.4 -272.55 -61.4" fill="#707070" fill-rule="evenodd" stroke="none"/>
    <path d="M-265.35 -60.75 L-259.55 -63.1 -257.15 -57.05 -262.9 -54.75 -265.35 -60.75" fill="#707070" fill-rule="evenodd" stroke="none"/>
    <path d="M-259.85 -48.8 L-265.05 -44.85 -268.8 -49.85 -263.6 -53.8 -259.85 -48.8" fill="#707070" fill-rule="evenodd" stroke="none"/>
    <path d="M-279.05 -63.1 L-273.25 -60.75 -275.7 -54.75 -281.5 -57.05 -279.05 -63.1" fill="#707070" fill-rule="evenodd" stroke="none"/>
    <path d="M-273.6 -44.85 L-278.75 -48.8 -275.0 -53.8 -269.8 -49.85 -273.6 -44.85" fill="#707070" fill-rule="evenodd" stroke="none"/>
    <path d="M-387.05 -73.5 L-387.05 -67.25 -393.55 -67.25 -393.55 -73.5 -387.05 -73.5" fill="#707070" fill-rule="evenodd" stroke="none"/>
    <path d="M-378.15 -62.9 L-383.9 -60.55 -386.35 -66.6 -380.55 -68.95 -378.15 -62.9" fill="#707070" fill-rule="evenodd" stroke="none"/>
    <path d="M-380.85 -54.65 L-386.05 -50.7 -389.8 -55.7 -384.6 -59.6 -380.85 -54.65" fill="#707070" fill-rule="evenodd" stroke="none"/>
    <path d="M-400.05 -68.95 L-394.25 -66.6 -396.7 -60.55 -402.5 -62.9 -400.05 -68.95" fill="#707070" fill-rule="evenodd" stroke="none"/>
    <path d="M-394.6 -50.7 L-399.75 -54.65 -396.0 -59.6 -390.8 -55.7 -394.6 -50.7" fill="#707070" fill-rule="evenodd" stroke="none"/>
    <path d="M-325.1 135.85 L-328.95 136.95 -332.6 138.7 -335.85 141.05 -338.6 143.95 -340.8 147.3 -342.4 151.0 -343.3 154.95 -343.45 158.95 -342.9 162.9 -341.65 166.75 -339.75 170.3 -337.25 173.4 -334.25 176.05 -330.8 178.1 -327.0 179.5 -323.05 180.25 -319.05 180.25 -315.1 179.5 -311.35 178.1 -307.9 176.05 -304.85 173.4 -302.35 170.25 -300.45 166.7 -299.2 162.9 -298.7 158.9 -298.85 154.9 -299.75 150.95 -301.35 147.3 -303.55 143.95 -306.35 141.05 -309.6 138.65 -313.2 136.95 -317.1 135.85 -321.1 135.5 -325.1 135.85 M-352.7 165.95 L-353.5 160.2 -353.2 154.4 -351.95 148.75 -349.65 143.4 -346.45 138.55 -342.45 134.35 -337.75 130.9 -332.5 128.4 -326.9 126.85 -321.15 126.3 -315.35 126.85 -309.75 128.35 -304.5 130.9 -299.8 134.3 -295.8 138.5 -292.6 143.35 -290.3 148.7 -289.0 154.35 -288.75 160.15 -289.5 165.9 -291.3 171.4 -294.05 176.55 -297.7 181.1 -302.05 184.9 -307.05 187.9 -312.45 189.95 -318.2 191.0 -324.0 191.0 -329.7 189.95 -335.15 187.9 -340.15 184.95 -344.5 181.15 -348.15 176.6 -350.9 171.5 -352.7 165.95" fill="#707070" fill-rule="evenodd" stroke="none"/>
    <path d="M-323.7 154.9 L-324.85 156.1 -325.5 157.6 -325.5 159.25 -324.85 160.75 -323.7 161.95 -322.15 162.55 -320.5 162.55 -319.0 161.95 -317.85 160.75 -317.2 159.25 -317.2 157.6 -317.85 156.1 -319.0 154.9 -320.5 154.3 -322.15 154.3 -323.7 154.9 M-319.4 148.3 L-315.8 149.8 -313.05 152.55 -311.55 156.15 -311.55 160.05 -313.05 163.65 -315.8 166.4 -319.4 167.9 -323.3 167.9 -326.9 166.4 -329.65 163.65 -331.15 160.05 -331.15 156.15 -329.65 152.55 -326.9 149.8 -323.3 148.3 -319.4 148.3" fill="#707070" fill-rule="evenodd" stroke="none"/>
    <path d="M-337.75 -62.8 L-322.65 -62.8 -322.65 -59.4 -314.3 -59.4 -314.3 -57.65 -346.05 -57.65 -346.05 -59.4 -337.75 -59.4 -337.75 -62.8" fill="#707070" fill-rule="evenodd" stroke="none"/>
    <path d="M-250.95 -9.95 L-251.45 -2.25 -261.15 -3.25 -260.5 -11.55 -250.95 -9.95" fill="#707070" fill-rule="evenodd" stroke="none"/>
    <path d="M-260.8 80.7 L-251.5 79.95 -250.55 88.25 -260.1 89.0 -260.8 80.7" fill="#707070" fill-rule="evenodd" stroke="none"/>
    <path d="M-97.75 -368.8 L-103.2 -374.2 -102.8 -377.7 -112.25 -387.15 -104.7 -394.7 -88.3 -378.25 -97.75 -368.8" fill="#707070" fill-rule="evenodd" stroke="none"/>
    <path d="M-143.05 -438.1 L-133.6 -428.65 -141.15 -421.1 -157.55 -437.5 -148.1 -447.0 -142.65 -441.6 -143.05 -438.1" fill="#707070" fill-rule="evenodd" stroke="none"/>
    <path d="M47.7 -228.2 L38.25 -237.65 45.8 -245.2 62.2 -228.75 52.75 -219.3 47.3 -224.7 47.7 -228.2" fill="#707070" fill-rule="evenodd" stroke="none"/>
    <path d="M2.4 -297.5 L7.85 -292.1 7.45 -288.6 16.9 -279.15 9.35 -271.6 -7.05 -288.0 2.4 -297.5" fill="#707070" fill-rule="evenodd" stroke="none"/>
    <path d="M12.15 -442.2 L2.65 -432.75 -4.85 -440.3 11.55 -456.7 21.0 -447.2 15.6 -441.8 12.15 -442.2" fill="#707070" fill-rule="evenodd" stroke="none"/>
    <path d="M54.7 -390.65 L58.2 -390.25 67.65 -399.7 75.2 -392.15 58.8 -375.75 49.3 -385.25 54.7 -390.65" fill="#707070" fill-rule="evenodd" stroke="none"/>
    <path d="M-418.35 -379.75 L-421.4 -382.85 -409.25 -394.95 -406.2 -391.9 -418.35 -379.75" fill="#707070" fill-rule="evenodd" stroke="none"/>
    <path d="M-491.65 -312.5 L-488.6 -309.4 -500.75 -297.3 -503.8 -300.35 -491.65 -312.5" fill="#707070" fill-rule="evenodd" stroke="none"/>
    <path d="M-442.25 -362.5 L-439.2 -359.45 -468.3 -330.35 -471.35 -333.4 -442.25 -362.5" fill="#707070" fill-rule="evenodd" stroke="none"/>
    <path d="M-459.1 -380.05 L-454.25 -375.2 -483.35 -346.1 -488.2 -350.95 -459.1 -380.05" fill="#707070" fill-rule="evenodd" stroke="none"/>
    <path d="M-474.2 -394.8 L-503.3 -365.7 -508.3 -370.7 -479.2 -399.8 -474.2 -394.8" fill="#707070" fill-rule="evenodd" stroke="none"/>
    <path d="M-443.7 -425.15 L-458.85 -410.0 -463.6 -414.75 -448.45 -429.9 -443.7 -425.15" fill="#707070" fill-rule="evenodd" stroke="none"/>
    <path d="M-425.1 -414.85 L-420.35 -410.1 -435.5 -394.95 -440.25 -399.7 -425.1 -414.85" fill="#707070" fill-rule="evenodd" stroke="none"/>
    <path d="M-518.4 -312.25 L-523.15 -316.95 -508.0 -332.1 -503.25 -327.35 -518.4 -312.25" fill="#707070" fill-rule="evenodd" stroke="none"/>
    <path d="M-518.5 -350.4 L-533.6 -335.25 -538.35 -340.0 -523.2 -355.15 -518.5 -350.4" fill="#707070" fill-rule="evenodd" stroke="none"/>
    <path d="M-394.45 -350.45 L-397.8 -337.3 -400.7 -329.5 -406.35 -320.05 -411.4 -323.3 -406.15 -332.05 -402.2 -330.0 -399.3 -337.8 -397.2 -346.0 -401.5 -346.95 -400.3 -351.7 -399.7 -356.75 -393.75 -356.0 -394.45 -350.45" fill="#707070" fill-rule="evenodd" stroke="none"/>
    <path d="M-404.15 -400.45 L-402.9 -401.7 -397.65 -389.5 -397.1 -387.55 -402.85 -385.9 -405.25 -392.5 -401.55 -394.0 -404.15 -400.45" fill="#707070" fill-rule="evenodd" stroke="none"/>
    <path d="M-438.25 -291.95 L-446.1 -289.05 -459.2 -285.7 -464.8 -284.95 -465.55 -290.95 -460.5 -291.55 -455.75 -292.75 -454.75 -288.4 -446.6 -290.55 -438.75 -293.45 -440.8 -297.4 -432.05 -302.65 -428.8 -297.6 -438.25 -291.95" fill="#707070" fill-rule="evenodd" stroke="none"/>
    <path d="M-494.7 -294.1 L-496.3 -288.3 -498.3 -288.85 -511.0 -293.6 -510.0 -294.65 -503.25 -291.95 -501.3 -296.5 -496.5 -294.6 -494.7 -294.1" fill="#707070" fill-rule="evenodd" stroke="none"/>
    <path d="M25.4 -385.8 L27.3 -383.35 28.45 -380.45 28.75 -377.45 28.2 -374.5 26.85 -371.9 24.8 -369.8 22.2 -368.45 19.25 -367.9 16.2 -368.25 13.35 -369.4 10.85 -371.3 15.75 -376.15 17.5 -376.25 20.35 -379.1 20.35 -380.75 25.4 -385.8" fill="#707070" fill-rule="evenodd" stroke="none"/>
    <path d="M75.15 -433.75 L75.15 -435.4 80.2 -440.5 82.1 -438.0 83.25 -435.1 83.6 -432.1 83.05 -429.15 81.7 -426.55 79.6 -424.5 77.0 -423.15 74.1 -422.6 71.05 -422.9 68.2 -424.05 65.7 -425.95 70.6 -430.85 72.35 -430.95 75.15 -433.75" fill="#707070" fill-rule="evenodd" stroke="none"/>
    <path d="M-9.15 -408.05 L-6.55 -409.4 -3.65 -409.95 -0.6 -409.6 2.25 -408.45 4.75 -406.55 -0.1 -401.7 -1.9 -401.6 -4.7 -398.8 -4.7 -397.1 -9.75 -392.05 -11.65 -394.55 -12.8 -397.4 -13.15 -400.45 -12.6 -403.35 -11.25 -405.95 -9.15 -408.05" fill="#707070" fill-rule="evenodd" stroke="none"/>
    <path d="M-108.75 -431.7 L-108.45 -434.7 -107.3 -437.6 -105.4 -440.05 -100.5 -435.2 -100.4 -433.4 -97.6 -430.6 -95.95 -430.6 -90.85 -425.55 -93.35 -423.65 -96.2 -422.5 -99.25 -422.15 -102.2 -422.7 -104.8 -424.05 -106.85 -426.15 -108.2 -428.75 -108.75 -431.7" fill="#707070" fill-rule="evenodd" stroke="none"/>
    <path d="M-147.05 -390.65 L-144.45 -389.3 -142.4 -387.2 -141.05 -384.6 -140.5 -381.7 -140.8 -378.65 -141.95 -375.8 -143.85 -373.3 -148.75 -378.15 -148.85 -379.95 -151.65 -382.75 -153.35 -382.75 -158.4 -387.8 -155.9 -389.7 -153.05 -390.85 -150.0 -391.2 -147.05 -390.65" fill="#707070" fill-rule="evenodd" stroke="none"/>
    <path d="M50.0 -285.7 L50.1 -283.9 52.9 -281.1 54.55 -281.1 59.65 -276.05 57.15 -274.15 54.3 -273.0 51.25 -272.65 48.3 -273.2 45.7 -274.55 43.65 -276.65 42.3 -279.25 41.75 -282.2 42.05 -285.2 43.2 -288.1 45.1 -290.55 50.0 -285.7" fill="#707070" fill-rule="evenodd" stroke="none"/>
    <path d="M6.05 -239.8 L8.1 -237.7 9.45 -235.1 10.0 -232.2 9.7 -229.15 8.55 -226.3 6.65 -223.8 1.75 -228.65 1.65 -230.45 -1.15 -233.25 -2.85 -233.25 -7.9 -238.3 -5.4 -240.2 -2.55 -241.35 0.5 -241.7 3.45 -241.15 6.05 -239.8" fill="#707070" fill-rule="evenodd" stroke="none"/>
    <path d="M42.4 -458.05 L43.75 -460.65 45.85 -462.7 48.45 -464.05 51.35 -464.6 54.4 -464.3 57.25 -463.15 59.75 -461.25 54.9 -456.35 53.1 -456.25 50.3 -453.45 50.3 -451.75 45.25 -446.7 43.35 -449.2 42.2 -452.05 41.85 -455.1 42.4 -458.05" fill="#707070" fill-rule="evenodd" stroke="none"/>
    <path d="M-99.2 -536.45 L-99.2 -506.45 -106.6 -506.45 -106.6 -536.45 -99.2 -536.45" fill="#707070" fill-rule="evenodd" stroke="none"/>
    <path d="M-143.7 -536.45 L-143.7 -506.45 -148.95 -506.45 -148.95 -536.45 -143.7 -536.45" fill="#707070" fill-rule="evenodd" stroke="none"/>
    <path d="M-144.55 -602.8 L-144.55 -598.1 -147.75 -598.1 -147.75 -602.8 -144.55 -602.8" fill="#707070" fill-rule="evenodd" stroke="none"/>
    <path d="M-144.55 -592.4 L-144.55 -587.95 -147.75 -587.95 -147.75 -592.4 -144.55 -592.4" fill="#707070" fill-rule="evenodd" stroke="none"/>
    <path d="M-144.55 -582.55 L-144.55 -578.05 -147.75 -578.05 -147.75 -582.55 -144.55 -582.55" fill="#707070" fill-rule="evenodd" stroke="none"/>
    <path d="M-144.55 -572.15 L-144.55 -567.65 -147.75 -567.65 -147.75 -572.15 -144.55 -572.15" fill="#707070" fill-rule="evenodd" stroke="none"/>
    <path d="M-144.55 -562.25 L-144.55 -557.8 -147.75 -557.8 -147.75 -562.25 -144.55 -562.25" fill="#707070" fill-rule="evenodd" stroke="none"/>
    <path d="M-144.55 -551.9 L-144.55 -547.4 -147.75 -547.4 -147.75 -551.9 -144.55 -551.9" fill="#707070" fill-rule="evenodd" stroke="none"/>
    <path d="M-87.45 -603.5 L-87.45 -598.8 -90.2 -598.8 -90.2 -599.15 -91.15 -598.8 -92.45 -598.8 -93.4 -599.1 -94.15 -599.65 -94.6 -600.35 -94.6 -602.0 -94.15 -602.7 -93.4 -603.2 -92.45 -603.5 -91.15 -603.5 -90.2 -603.15 -90.2 -603.5 -87.45 -603.5" fill="#707070" fill-rule="evenodd" stroke="none"/>
    <path d="M-87.45 -585.95 L-87.45 -581.25 -90.2 -581.25 -90.2 -581.6 -91.15 -581.25 -92.45 -581.25 -93.4 -581.55 -94.15 -582.05 -94.6 -582.75 -94.6 -584.4 -94.15 -585.15 -93.4 -585.65 -92.45 -585.95 -91.15 -585.95 -90.2 -585.6 -90.2 -585.95 -87.45 -585.95" fill="#707070" fill-rule="evenodd" stroke="none"/>
    <path d="M-94.6 -567.35 L-94.15 -568.05 -93.4 -568.6 -92.45 -568.9 -91.15 -568.9 -90.2 -568.55 -90.2 -568.9 -87.45 -568.9 -87.45 -564.2 -90.2 -564.2 -90.2 -564.55 -91.15 -564.2 -92.45 -564.2 -93.4 -564.5 -94.15 -565.0 -94.6 -565.7 -94.6 -567.35" fill="#707070" fill-rule="evenodd" stroke="none"/>
    <path d="M-87.45 -551.35 L-87.45 -546.65 -90.2 -546.65 -90.2 -546.95 -91.15 -546.65 -92.45 -546.65 -93.4 -546.95 -94.15 -547.45 -94.6 -548.15 -94.6 -549.8 -94.15 -550.5 -93.4 -551.05 -92.45 -551.35 -91.15 -551.35 -90.2 -551.0 -90.2 -551.35 -87.45 -551.35" fill="#707070" fill-rule="evenodd" stroke="none"/>
    <path d="M-36.1 -461.3 L-29.6 -470.55 -27.8 -468.75 -16.5 -479.35 -9.95 -483.9 -11.55 -486.3 -7.0 -489.7 0.25 -493.55 8.0 -496.6 17.25 -499.1 27.55 -500.7 38.0 -500.95 47.65 -500.05 51.7 -499.1 51.05 -496.4 58.35 -494.55 65.9 -491.2 67.2 -494.3 77.5 -489.3 86.1 -483.4 93.9 -476.5 100.8 -468.7 106.7 -460.1 111.5 -451.35 112.55 -448.35 109.8 -447.35 112.8 -440.1 114.3 -432.35 117.25 -432.85 118.4 -427.85 118.45 -410.1 117.0 -399.75 114.3 -389.7 110.4 -380.05 105.3 -370.9 104.75 -369.6 102.3 -371.55 98.55 -366.1 91.8 -358.7 86.65 -354.45 89.15 -351.8 83.4 -347.3 74.65 -343.05 69.2 -353.7 81.05 -361.35 90.5 -370.55 98.1 -381.3 103.6 -393.25 106.8 -406.05 107.6 -419.2 106.0 -432.3 102.0 -444.85 95.75 -456.5 87.45 -466.75 77.45 -475.3 66.0 -481.9 53.6 -486.25 40.55 -488.3 27.4 -487.85 14.5 -485.05 2.35 -479.9 -8.65 -472.6 -18.1 -463.4 -24.75 -455.6 -27.75 -450.1 -38.35 -456.3 -36.1 -461.3" fill="#707070" fill-rule="evenodd" stroke="none"/>
    <path d="M-48.6 -294.65 L-49.6 -288.95 -55.55 -290.0 -54.55 -295.7 -48.6 -294.65" fill="#707070" fill-rule="evenodd" stroke="none"/>
    <path d="M-47.8 -282.35 L-49.05 -288.25 -43.4 -289.45 -42.15 -283.55 -47.8 -282.35" fill="#707070" fill-rule="evenodd" stroke="none"/>
    <path d="M-53.95 -278.85 L-48.6 -281.6 -45.95 -276.4 -51.3 -273.7 -53.95 -278.85" fill="#707070" fill-rule="evenodd" stroke="none"/>
    <path d="M-59.45 -284.4 L-64.35 -287.45 -61.2 -292.55 -56.25 -289.5 -59.45 -284.4" fill="#707070" fill-rule="evenodd" stroke="none"/>
    <path d="M-59.0 -283.4 L-54.9 -279.0 -59.1 -275.05 -63.2 -279.45 -59.0 -283.4" fill="#707070" fill-rule="evenodd" stroke="none"/>
    <path d="M-98.3 -332.75 L-97.3 -338.45 -91.35 -337.4 -92.35 -331.7 -98.3 -332.75" fill="#707070" fill-rule="evenodd" stroke="none"/>
    <path d="M-86.15 -332.2 L-84.9 -326.3 -90.55 -325.1 -91.8 -331.0 -86.15 -332.2" fill="#707070" fill-rule="evenodd" stroke="none"/>
    <path d="M-96.7 -321.6 L-91.35 -324.35 -88.7 -319.15 -94.05 -316.45 -96.7 -321.6" fill="#707070" fill-rule="evenodd" stroke="none"/>
    <path d="M-107.1 -330.2 L-103.95 -335.3 -99.0 -332.25 -102.2 -327.15 -107.1 -330.2" fill="#707070" fill-rule="evenodd" stroke="none"/>
    <path d="M-105.95 -322.2 L-101.75 -326.15 -97.65 -321.75 -101.85 -317.8 -105.95 -322.2" fill="#707070" fill-rule="evenodd" stroke="none"/>
    <path d="M125.0 -274.85 L125.0 -282.25 154.5 -282.25 154.5 -274.85 125.0 -274.85" fill="#707070" fill-rule="evenodd" stroke="none"/>
    <path d="M125.0 -232.5 L125.0 -237.75 154.5 -237.75 154.5 -232.5 125.0 -232.5" fill="#707070" fill-rule="evenodd" stroke="none"/>
    <path d="M220.7 -237.9 L220.7 -233.7 216.3 -233.7 216.3 -237.9 220.7 -237.9" fill="#707070" fill-rule="evenodd" stroke="none"/>
    <path d="M210.45 -237.9 L210.45 -233.7 206.0 -233.7 206.0 -237.9 210.45 -237.9" fill="#707070" fill-rule="evenodd" stroke="none"/>
    <path d="M200.65 -237.9 L200.65 -233.7 196.2 -233.7 196.2 -237.9 200.65 -237.9" fill="#707070" fill-rule="evenodd" stroke="none"/>
    <path d="M185.95 -233.7 L185.95 -237.9 190.35 -237.9 190.35 -233.7 185.95 -233.7" fill="#707070" fill-rule="evenodd" stroke="none"/>
    <path d="M180.05 -237.9 L180.05 -233.7 175.65 -233.7 175.65 -237.9 180.05 -237.9" fill="#707070" fill-rule="evenodd" stroke="none"/>
    <path d="M165.85 -233.7 L165.85 -237.9 170.25 -237.9 170.25 -233.7 165.85 -233.7" fill="#707070" fill-rule="evenodd" stroke="none"/>
    <path d="M221.95 -294.0 L221.95 -291.25 221.6 -291.25 221.95 -290.3 221.95 -289.0 221.65 -288.05 221.1 -287.3 220.4 -286.85 218.75 -286.85 218.05 -287.3 217.55 -288.05 217.25 -289.0 217.25 -290.3 217.6 -291.25 217.25 -291.25 217.25 -294.0 221.95 -294.0" fill="#707070" fill-rule="evenodd" stroke="none"/>
    <path d="M204.4 -294.0 L204.4 -291.25 204.05 -291.25 204.4 -290.3 204.4 -289.0 204.1 -288.05 203.55 -287.3 202.85 -286.85 201.2 -286.85 200.5 -287.3 200.0 -288.05 199.7 -289.0 199.7 -290.3 200.0 -291.25 199.7 -291.25 199.7 -294.0 204.4 -294.0" fill="#707070" fill-rule="evenodd" stroke="none"/>
    <path d="M182.15 -290.3 L182.45 -291.25 182.15 -291.25 182.15 -294.0 186.85 -294.0 186.85 -291.25 186.5 -291.25 186.8 -290.3 186.8 -289.0 186.55 -288.05 186.0 -287.3 185.3 -286.85 183.65 -286.85 182.95 -287.3 182.4 -288.05 182.15 -289.0 182.15 -290.3" fill="#707070" fill-rule="evenodd" stroke="none"/>
    <path d="M164.6 -289.0 L164.6 -290.3 164.9 -291.25 164.55 -291.25 164.55 -294.0 169.3 -294.0 169.3 -291.25 168.95 -291.25 169.25 -290.3 169.25 -289.0 169.0 -288.05 168.45 -287.3 167.75 -286.85 166.1 -286.85 165.4 -287.3 164.85 -288.05 164.6 -289.0" fill="#707070" fill-rule="evenodd" stroke="none"/>
    <path d="M-30.0 -255.35 L-29.8 -251.4 -28.5 -243.55 -27.45 -239.75 -24.55 -232.4 -20.6 -225.5 -15.7 -219.3 -12.9 -216.45 -6.8 -211.4 2.95 -205.9 4.25 -208.55 -5.0 -213.85 -8.0 -216.1 -13.45 -221.25 -18.05 -227.15 -20.05 -230.3 -23.35 -237.05 -25.6 -244.2 -26.8 -251.6 -26.95 -259.1 -26.0 -266.55 -24.0 -273.75 -20.95 -280.6 -17.0 -286.95 -14.65 -289.9 -9.4 -295.25 -3.45 -299.8 3.15 -303.45 1.8 -306.1 -5.05 -302.3 -11.35 -297.55 -16.9 -291.9 -19.4 -288.75 -23.6 -282.05 -26.8 -274.8 -28.0 -271.05 -29.55 -263.25 -30.0 -255.35 M-31.85 -272.05 L-29.0 -280.05 -25.05 -287.55 -20.0 -294.45 -17.15 -297.6 -10.75 -303.2 -7.3 -305.65 -2.25 -308.5 -5.8 -315.4 -1.35 -317.7 5.85 -303.7 -2.9 -298.95 -8.75 -294.5 -13.9 -289.25 -16.2 -286.35 -20.1 -280.15 -23.05 -273.4 -25.0 -266.35 -25.95 -259.05 -25.8 -251.7 -25.4 -248.3 -23.65 -240.9 -22.4 -237.45 -19.2 -230.8 -15.05 -224.75 -10.1 -219.3 -4.45 -214.65 1.85 -210.85 5.3 -209.3 2.05 -201.8 -5.5 -205.8 -12.45 -210.7 -15.6 -213.5 -21.35 -219.8 -26.15 -226.8 -28.1 -230.6 -31.25 -238.5 -33.25 -246.75 -34.0 -255.2 -33.55 -263.7 -31.85 -272.05" fill="#707070" fill-rule="evenodd" stroke="none"/>
    <path d="M49.55 -300.85 L43.95 -303.7 51.2 -317.75 55.65 -315.5 52.15 -308.7 60.55 -303.2 66.95 -297.6 72.45 -291.1 76.95 -283.9 80.4 -276.1 82.65 -267.9 83.75 -259.5 83.6 -250.95 82.2 -242.6 79.65 -234.45 75.95 -226.8 73.7 -223.2 68.4 -216.55 65.45 -213.5 58.85 -208.1 52.35 -204.15 47.25 -201.95 45.55 -207.0 44.5 -209.3 51.15 -212.65 57.15 -216.9 62.5 -221.95 67.05 -227.7 69.0 -230.8 72.2 -237.45 74.45 -244.45 75.6 -251.7 75.8 -255.35 75.4 -262.7 74.85 -266.35 71.5 -276.85 69.9 -280.15 66.0 -286.35 63.7 -289.25 58.55 -294.5 49.55 -300.85 M48.0 -306.1 L46.65 -303.45 53.25 -299.8 56.35 -297.6 61.95 -292.65 64.5 -289.9 68.9 -283.85 70.8 -280.6 73.8 -273.75 75.8 -266.55 76.75 -259.1 76.6 -251.6 75.4 -244.2 73.15 -237.05 69.85 -230.3 65.65 -224.1 60.6 -218.6 54.8 -213.85 48.4 -210.0 45.7 -208.7 46.95 -206.0 53.15 -209.2 59.65 -213.75 65.4 -219.2 70.35 -225.4 74.3 -232.3 77.25 -239.65 78.3 -243.45 79.6 -251.3 79.8 -255.3 79.4 -263.15 78.75 -267.05 76.65 -274.7 73.45 -281.95 69.25 -288.7 66.8 -291.8 61.25 -297.45 54.95 -302.25 48.0 -306.1" fill="#707070" fill-rule="evenodd" stroke="none"/>
    <path d="M-75.5 -383.35 L-78.2 -384.7 -81.85 -378.1 -86.4 -372.15 -91.75 -366.9 -97.8 -362.45 -104.4 -358.95 -111.45 -356.4 -118.8 -354.95 -126.3 -354.55 -133.75 -355.2 -137.4 -355.95 -144.55 -358.2 -151.3 -361.5 -154.5 -363.5 -160.35 -368.1 -165.5 -373.55 -167.8 -376.55 -173.05 -385.8 -175.75 -384.45 -170.25 -374.85 -165.25 -368.7 -159.4 -363.35 -152.85 -358.9 -145.7 -355.45 -142.0 -354.1 -134.3 -352.25 -126.35 -351.55 -118.5 -351.95 -110.7 -353.5 -103.25 -356.15 -96.25 -359.9 -92.95 -362.1 -86.9 -367.25 -84.15 -370.1 -79.35 -376.4 -75.5 -383.35 M-63.95 -380.15 L-66.25 -375.75 -73.1 -379.3 -78.45 -370.8 -81.15 -367.5 -87.2 -361.55 -94.05 -356.5 -101.55 -352.55 -109.6 -349.65 -117.9 -348.0 -126.4 -347.55 -134.9 -348.3 -143.15 -350.3 -147.15 -351.7 -154.8 -355.4 -158.4 -357.7 -165.1 -362.95 -168.15 -365.95 -173.5 -372.5 -175.85 -376.05 -179.85 -383.6 -172.35 -386.85 -169.0 -380.2 -164.75 -374.2 -159.7 -368.85 -153.9 -364.3 -150.8 -362.35 -144.2 -359.15 -137.2 -356.95 -129.95 -355.75 -122.6 -355.6 -118.95 -355.95 -111.7 -357.4 -104.8 -359.85 -98.3 -363.3 -92.4 -367.65 -87.15 -372.8 -82.7 -378.65 -77.95 -387.4 -63.95 -380.15" fill="#707070" fill-rule="evenodd" stroke="none"/>
    <path d="M-143.15 -462.65 L-134.9 -464.6 -126.4 -465.35 -117.9 -464.9 -109.6 -463.25 -101.55 -460.35 -94.05 -456.4 -90.55 -454.0 -84.05 -448.5 -78.45 -442.1 -72.9 -433.7 -66.15 -437.2 -63.85 -432.75 -77.95 -425.5 -82.7 -434.25 -84.8 -437.25 -89.65 -442.8 -95.25 -447.55 -101.5 -451.45 -108.2 -454.4 -111.7 -455.5 -118.95 -456.95 -126.25 -457.35 -133.6 -456.7 -140.75 -455.0 -147.55 -452.25 -153.9 -448.6 -159.7 -444.05 -164.75 -438.7 -169.0 -432.7 -172.35 -426.05 -174.6 -427.1 -179.7 -428.8 -175.85 -436.85 -170.95 -443.8 -165.1 -449.95 -158.4 -455.25 -151.05 -459.5 -143.15 -462.65 M-134.2 -460.65 L-138.05 -459.9 -145.6 -457.5 -152.75 -454.05 -159.3 -449.6 -165.2 -444.25 -170.2 -438.15 -172.4 -434.8 -175.65 -428.5 -172.9 -427.25 -169.85 -433.2 -165.5 -439.35 -160.35 -444.8 -154.5 -449.45 -148.0 -453.15 -144.55 -454.7 -137.4 -456.95 -133.75 -457.7 -126.3 -458.35 -118.8 -457.95 -115.1 -457.35 -107.9 -455.35 -104.4 -453.95 -97.8 -450.45 -91.75 -446.0 -86.4 -440.75 -81.85 -434.8 -78.2 -428.2 -75.5 -429.55 -77.25 -433.0 -81.6 -439.65 -84.1 -442.7 -89.75 -448.3 -96.15 -452.95 -99.55 -454.95 -106.8 -458.15 -110.6 -459.35 -118.35 -460.95 -126.35 -461.35 -134.2 -460.65" fill="#707070" fill-rule="evenodd" stroke="none"/>
    <path d="M-140.05 -218.85 L-133.3 -221.45 -126.2 -222.8 -119.0 -222.8 -111.85 -221.45 -105.15 -218.85 -99.0 -215.05 -93.65 -210.2 -89.3 -204.4 -86.05 -197.95 -84.1 -191.0 -93.95 -189.1 -96.1 -195.3 -101.45 -203.1 -105.35 -206.65 -109.85 -209.4 -114.75 -211.35 -119.95 -212.3 -125.25 -212.3 -130.45 -211.35 -135.35 -209.4 -139.85 -206.65 -143.75 -203.1 -146.95 -198.85 -149.3 -194.15 -150.75 -189.05 -151.25 -183.8 -150.75 -178.5 -149.3 -173.45 -146.95 -168.7 -143.75 -164.5 -139.85 -160.95 -135.25 -157.6 -128.25 -154.8 -129.8 -145.45 -133.3 -146.1 -140.05 -148.7 -146.2 -152.5 -151.55 -157.4 -155.9 -163.15 -159.15 -169.65 -161.1 -176.6 -161.8 -183.8 -161.1 -191.0 -159.15 -197.95 -155.9 -204.4 -151.55 -210.2 -146.2 -215.05 -140.05 -218.85" fill="#707070" fill-rule="evenodd" stroke="none"/>
    <path d="M-117.95 -204.0 L-117.1 -202.15 -117.0 -200.15 -117.7 -198.25 -119.05 -196.75 -120.85 -195.9 -122.85 -195.8 -124.75 -196.5 -126.25 -197.85 -127.1 -199.65 -127.2 -201.65 -126.5 -203.55 -125.15 -205.05 -123.35 -205.9 -121.35 -206.0 -119.45 -205.35 -117.95 -204.0" fill="#707070" fill-rule="evenodd" stroke="none"/>
    <path d="M-137.3 -187.6 L-135.85 -186.25 -134.95 -184.4 -134.85 -182.4 -135.55 -180.5 -136.9 -179.0 -138.7 -178.15 -140.75 -178.05 -142.6 -178.75 -144.1 -180.1 -144.95 -181.9 -145.05 -183.9 -144.4 -185.8 -143.05 -187.3 Q-142.1 -187.7 -141.2 -188.15 L-139.2 -188.25 -137.3 -187.6" fill="#707070" fill-rule="evenodd" stroke="none"/>
    <path d="M-118.1 -153.25 L-117.2 -151.4 -117.1 -149.4 -117.8 -147.5 -119.15 -146.0 -120.95 -145.15 -123.0 -145.05 -124.85 -145.75 -126.35 -147.1 -127.2 -148.9 -127.3 -150.9 -126.65 -152.8 -125.3 -154.3 -123.45 -155.15 -121.45 -155.25 -119.55 -154.6 -118.1 -153.25" fill="#707070" fill-rule="evenodd" stroke="none"/>
    <path d="M-85.45 -186.6 L-84.6 -184.8 -84.5 -182.8 -85.2 -180.9 -86.55 -179.4 -88.35 -178.55 -90.35 -178.45 -92.25 -179.1 -93.75 -180.45 -94.6 -182.3 -94.7 -184.3 -94.0 -186.2 -92.65 -187.7 -90.85 -188.55 -88.85 -188.65 -86.95 -187.95 -85.45 -186.6" fill="#707070" fill-rule="evenodd" stroke="none"/>
    <path d="M-91.4 -212.2 L-97.15 -217.45 -103.8 -221.55 -108.7 -223.45 -107.85 -225.6 -102.75 -223.65 -95.75 -219.3 -89.7 -213.75 -84.75 -207.2 -81.1 -199.85 -78.85 -191.95 -78.1 -183.8 -78.85 -175.55 -79.75 -171.15 -84.65 -172.15 -84.65 -172.25 -82.0 -171.75 -81.15 -176.0 -80.4 -183.8 -81.1 -191.55 -83.25 -199.05 -86.7 -206.0 -91.4 -212.2" fill="#707070" fill-rule="evenodd" stroke="none"/>
    <path d="M-160.45 -160.35 L-164.1 -167.7 -164.8 -170.1 -162.55 -170.75 -161.95 -168.55 -158.45 -161.55 -153.8 -155.35 -148.0 -150.1 -141.4 -146.0 -134.15 -143.2 -126.5 -141.75 -118.8 -141.75 -112.85 -142.3 -110.1 -142.95 -110.75 -145.55 -110.7 -145.55 -109.45 -140.7 -112.25 -140.0 -118.6 -139.45 -126.7 -139.45 -134.8 -140.95 -142.45 -143.95 -149.4 -148.25 -155.5 -153.8 -160.45 -160.35" fill="#707070" fill-rule="evenodd" stroke="none"/>
    <path d="M-192.05 -287.6 L-190.5 -296.9 -187.0 -296.25 -180.25 -293.65 -174.1 -289.85 -168.75 -284.95 -164.4 -279.2 -161.2 -272.75 -159.2 -265.8 -158.55 -258.6 -159.2 -251.4 -161.2 -244.4 -164.4 -237.95 -168.75 -232.2 -174.1 -227.3 -180.25 -223.5 -187.0 -220.9 -194.1 -219.55 -201.35 -219.55 -208.45 -220.9 -215.2 -223.5 -221.35 -227.3 -226.65 -232.2 -231.05 -237.95 -234.25 -244.4 -236.25 -251.4 -226.4 -253.25 -224.2 -247.1 -218.9 -239.3 -214.95 -235.75 -210.5 -232.95 -205.55 -231.05 -200.35 -230.05 -195.1 -230.05 -189.9 -231.05 -184.95 -232.95 -180.45 -235.75 -176.55 -239.3 -173.35 -243.5 -171.0 -248.25 -169.55 -253.3 -169.1 -258.6 -169.55 -263.85 -171.0 -268.9 -173.35 -273.65 -176.55 -277.85 -180.45 -281.45 -185.05 -284.75 -192.05 -287.6" fill="#707070" fill-rule="evenodd" stroke="none"/>
    <path d="M-199.45 -246.45 L-197.45 -246.55 -195.55 -245.85 -194.1 -244.5 -193.2 -242.7 -193.1 -240.7 -193.8 -238.8 -195.15 -237.3 -196.95 -236.45 -199.0 -236.35 -200.85 -237.05 -202.35 -238.4 -203.2 -240.2 -203.3 -242.2 -202.65 -244.1 -201.3 -245.6 -199.45 -246.45" fill="#707070" fill-rule="evenodd" stroke="none"/>
    <path d="M-185.35 -257.95 L-185.45 -259.95 -184.75 -261.85 -183.4 -263.35 -181.6 -264.2 -179.6 -264.3 -177.7 -263.6 -176.2 -262.25 -175.35 -260.45 -175.25 -258.45 -175.95 -256.55 -177.3 -255.05 -179.1 -254.2 -181.1 -254.1 -183.0 -254.8 -184.5 -256.15 -185.35 -257.95" fill="#707070" fill-rule="evenodd" stroke="none"/>
    <path d="M-199.35 -297.2 L-197.35 -297.3 -195.45 -296.6 -193.95 -295.25 -193.1 -293.45 -193.0 -291.45 -193.7 -289.55 -195.05 -288.05 -196.85 -287.2 -198.85 -287.1 -200.75 -287.8 -202.25 -289.15 -203.1 -290.95 -203.2 -292.95 -202.5 -294.85 -201.15 -296.35 -199.35 -297.2" fill="#707070" fill-rule="evenodd" stroke="none"/>
    <path d="M-229.95 -263.9 L-228.05 -263.25 -226.6 -261.9 -225.7 -260.1 -225.6 -258.05 -226.3 -256.15 -227.65 -254.7 -229.45 -253.85 -231.5 -253.75 -233.35 -254.4 -234.85 -255.75 -235.7 -257.6 -235.8 -259.6 -235.15 -261.5 -233.8 -262.95 -231.95 -263.85 -229.95 -263.9" fill="#707070" fill-rule="evenodd" stroke="none"/>
    <path d="M-242.25 -258.6 L-241.45 -266.8 -240.55 -271.2 -235.65 -270.2 -235.7 -270.1 -238.3 -270.6 -239.2 -266.35 -239.9 -258.6 -239.2 -250.8 -237.05 -243.35 -233.6 -236.35 -228.9 -230.15 -223.15 -224.9 -216.5 -220.8 -211.6 -218.9 -212.45 -216.75 -217.55 -218.75 -224.55 -223.05 -230.6 -228.6 -235.55 -235.15 -239.2 -242.5 -241.45 -250.4 -242.25 -258.6" fill="#707070" fill-rule="evenodd" stroke="none"/>
    <path d="M-210.2 -299.4 L-209.55 -296.8 -209.65 -296.8 -210.85 -301.65 -208.05 -302.35 -201.6 -302.9 -193.6 -302.9 -185.55 -301.4 -177.9 -298.4 -170.9 -294.1 -164.8 -288.55 -159.85 -282.0 -156.2 -274.65 -155.55 -272.25 -157.75 -271.6 -158.35 -273.8 -161.85 -280.8 -166.55 -287.0 -172.3 -292.25 -178.9 -296.35 -186.15 -299.15 -193.8 -300.6 -201.45 -300.6 -207.5 -300.05 -210.2 -299.4" fill="#707070" fill-rule="evenodd" stroke="none"/>
    <path d="M-128.2 -257.95 L-123.9 -262.25 -119.3 -257.65 -123.65 -253.35 -128.2 -257.95" fill="#707070" fill-rule="evenodd" stroke="none"/>
    <path d="M-125.55 -263.45 L-128.65 -258.1 -134.3 -261.35 -131.2 -266.7 -125.55 -263.45" fill="#707070" fill-rule="evenodd" stroke="none"/>
    <path d="M-141.0 -263.0 L-139.35 -269.15 -133.1 -267.45 -134.75 -261.3 -141.0 -263.0" fill="#707070" fill-rule="evenodd" stroke="none"/>
    <path d="M-147.85 -262.95 L-147.85 -269.7 -141.35 -269.7 -141.35 -262.95 -147.85 -262.95" fill="#707070" fill-rule="evenodd" stroke="none"/>
    <path d="M-114.95 -250.45 L-120.3 -247.4 -123.55 -253.0 -118.2 -256.1 -114.95 -250.45" fill="#707070" fill-rule="evenodd" stroke="none"/>
    <path d="M-112.5 -242.3 L-118.35 -240.75 -120.05 -247.0 -114.2 -248.6 -112.5 -242.3" fill="#707070" fill-rule="evenodd" stroke="none"/>
    <path d="M-111.95 -240.35 L-111.95 -233.85 -118.45 -233.85 -118.45 -240.35 -111.95 -240.35" fill="#707070" fill-rule="evenodd" stroke="none"/>
    <path d="M-444.05 -437.4 L-433.4 -431.6 -425.7 -426.3 -418.0 -419.7 -420.85 -416.25 -428.5 -422.8 -441.25 -430.9 -446.25 -433.45 -444.05 -437.4" fill="#707070" fill-rule="evenodd" stroke="none"/>
    <path d="M-546.25 -335.95 L-542.25 -338.0 -537.65 -329.1 -532.75 -321.75 -525.2 -312.5 -528.75 -309.7 -529.5 -310.7 -532.4 -313.95 -539.15 -322.95 -541.6 -326.9 -546.25 -335.95" fill="#707070" fill-rule="evenodd" stroke="none"/>
    <path d="M-358.1 -385.3 L-356.0 -365.7 -356.2 -356.05 -357.85 -344.5 -360.0 -334.85 -362.1 -330.35 -363.3 -331.55 -368.3 -326.55 -364.85 -338.05 -363.35 -345.05 -361.85 -357.05 -361.35 -366.8 -362.1 -375.8 -363.85 -387.55 -359.75 -383.65 -358.1 -385.3" fill="#707070" fill-rule="evenodd" stroke="none"/>
    <path d="M-496.7 -254.7 L-474.45 -252.45 -465.95 -252.95 -446.45 -255.6 -435.9 -258.9 -440.6 -254.25 -439.4 -253.05 -443.9 -250.95 -453.55 -248.8 -465.1 -247.15 -474.75 -246.9 -494.35 -249.05 -492.7 -250.7 -496.7 -254.7" fill="#707070" fill-rule="evenodd" stroke="none"/>
    <path d="M-225.1 110.7 L-226.25 112.1 -233.05 123.45 -236.85 132.85 -239.3 140.55 -240.5 147.5 -241.65 168.3 -242.45 173.8 -244.55 182.35 -250.65 196.65 -255.85 205.55 -260.95 211.4 -268.15 218.6 -276.9 225.05 -284.8 229.6 -290.6 232.25 -309.15 238.9 -322.5 246.2 -327.5 249.95 -337.2 259.6 -343.0 254.1 -332.7 243.8 -326.9 239.5 -312.35 231.55 -293.5 224.75 -288.3 222.4 -281.3 218.35 -273.4 212.5 -266.7 205.8 -262.35 200.85 -257.8 193.05 -252.15 179.8 -250.3 172.1 -249.6 167.35 -248.4 146.3 -247.1 138.65 -244.3 130.0 -240.3 119.95 -232.85 107.55 -231.75 106.05 -225.1 110.7" fill="#707070" fill-rule="evenodd" stroke="none"/>
    <path d="M-318.65 217.3 L-317.0 218.3 -315.85 219.85 -315.35 221.7 -315.65 223.6 -316.65 225.25 -318.2 226.45 -320.05 226.9 -321.95 226.6 -323.6 225.65 -324.75 224.1 -325.25 222.2 -324.95 220.3 -323.95 218.65 -322.45 217.5 -320.55 217.05 -318.65 217.3" fill="#707070" fill-rule="evenodd" stroke="none"/>
    <path d="M-349.15 235.9 L-347.6 234.75 -345.7 234.3 -343.8 234.55 -342.15 235.55 -341.0 237.1 -340.55 238.95 -340.8 240.85 -341.8 242.5 -343.35 243.7 -345.2 244.15 -347.15 243.85 -348.8 242.9 -349.95 241.35 -350.4 239.45 -350.15 237.55 -349.15 235.9" fill="#707070" fill-rule="evenodd" stroke="none"/>
    <path d="M-290.85 208.7 L-289.65 210.25 -289.2 212.15 -289.5 214.05 -290.45 215.7 -292.0 216.85 -293.9 217.3 -295.8 217.05 -297.45 216.05 -298.6 214.5 -299.05 212.65 -298.8 210.75 -297.8 209.05 -296.25 207.9 -294.4 207.45 -292.5 207.7 -290.85 208.7" fill="#707070" fill-rule="evenodd" stroke="none"/>
    <path d="M-270.15 194.4 L-269.7 196.3 -270.0 198.2 -270.95 199.85 -272.5 201.0 -274.4 201.5 -276.3 201.2 -277.95 200.2 -279.1 198.65 -279.55 196.8 -279.3 194.9 -278.3 193.25 -276.75 192.1 -274.9 191.6 -273.0 191.9 -271.35 192.9 -270.15 194.4" fill="#707070" fill-rule="evenodd" stroke="none"/>
    <path d="M-259.5 170.4 L-258.35 171.9 -257.85 173.8 -258.15 175.7 -259.15 177.35 -260.7 178.5 -262.55 179.0 -264.45 178.7 -266.1 177.7 -267.25 176.15 -267.75 174.3 -267.45 172.4 -266.45 170.75 -264.95 169.6 -263.05 169.1 -261.15 169.4 -259.5 170.4" fill="#707070" fill-rule="evenodd" stroke="none"/>
    <path d="M-260.4 145.3 L-258.5 145.55 -256.85 146.55 -255.65 148.1 -255.2 149.95 -255.5 151.85 -256.45 153.5 -258.0 154.7 -259.9 155.15 -261.8 154.85 Q-262.6 154.4 -263.45 153.9 L-264.6 152.35 -265.05 150.45 -264.8 148.55 -263.8 146.9 -262.25 145.75 -260.4 145.3" fill="#707070" fill-rule="evenodd" stroke="none"/>
    <path d="M-253.9 117.3 L-252.0 117.55 -250.35 118.55 -249.15 120.1 -248.7 121.95 -249.0 123.85 -249.95 125.5 -251.5 126.7 -253.4 127.15 -255.3 126.85 -256.95 125.9 -258.1 124.35 -258.55 122.45 -258.3 120.55 -257.3 118.9 -255.75 117.75 -253.9 117.3" fill="#707070" fill-rule="evenodd" stroke="none"/>
    <path d="M-71.7 21.3 L-81.4 21.65 -81.8 11.65 -72.05 11.3 -71.7 21.3" fill="#707070" fill-rule="evenodd" stroke="none"/>
    <path d="M-67.25 23.55 L-67.95 13.6 -55.05 12.65 -54.35 22.65 -67.25 23.55" fill="#707070" fill-rule="evenodd" stroke="none"/>
    <path d="M-100.0 21.6 L-98.9 11.65 -86.05 13.1 -87.15 23.1 -100.0 21.6" fill="#707070" fill-rule="evenodd" stroke="none"/>
    <path d="M66.5 70.3 L66.5 111.75 48.65 111.75 48.65 70.3 66.5 70.3" fill="#707070" fill-rule="evenodd" stroke="none"/>
    <path d="M2.15 68.75 L8.15 68.75 8.15 62.65 17.0 62.65 17.0 142.5 7.75 142.5 7.75 136.1 2.15 136.1 2.15 68.75" fill="#707070" fill-rule="evenodd" stroke="none"/>
    <path d="M87.0 73.5 L95.8 73.5 95.8 100.0 87.0 100.0 87.0 73.5" fill="#707070" fill-rule="evenodd" stroke="none"/>
    <path d="M129.5 14.95 L122.9 14.65 88.1 14.65 88.1 9.1 76.35 9.1 76.35 14.65 61.3 14.65 61.3 7.65 123.15 7.65 130.3 8.0 138.2 9.1 146.1 12.45 152.9 17.75 158.2 24.65 161.75 32.75 163.0 39.75 163.3 43.8 163.3 115.35 163.55 115.35 163.55 116.6 130.0 116.6 130.0 116.0 129.65 116.0 129.65 103.3 125.0 103.3 125.0 114.0 115.8 114.0 115.8 49.5 93.0 49.5 93.0 41.15 125.0 41.15 125.0 58.15 129.65 58.15 129.65 46.8 134.0 46.8 134.0 107.0 135.8 107.0 135.8 115.35 147.8 115.35 147.8 107.0 156.3 107.0 156.3 43.95 156.05 40.5 155.0 34.8 152.15 28.25 147.9 22.7 142.5 18.5 136.35 15.9 129.5 14.95" fill="#707070" fill-rule="evenodd" stroke="none"/>
    <path d="M-1.65 185.25 L-1.65 159.5 2.25 159.5 2.25 190.65 -45.7 190.65 -45.7 160.35 -41.65 160.35 -41.65 185.25 -1.65 185.25" fill="#707070" fill-rule="evenodd" stroke="none"/>
    <path d="M-51.7 245.5 L-51.7 235.65 13.3 235.65 13.3 245.5 -51.7 245.5" fill="#707070" fill-rule="evenodd" stroke="none"/>
    <path d="M48.8 322.65 L48.8 326.8 9.65 326.8 9.65 322.65 48.8 322.65" fill="#707070" fill-rule="evenodd" stroke="none"/>
    <path d="M-48.2 322.65 L-48.2 327.3 -82.5 327.3 -82.5 322.65 -48.2 322.65" fill="#707070" fill-rule="evenodd" stroke="none"/>
    <path d="M-36.35 321.5 L-35.35 326.8 -46.85 326.8 -46.85 320.65 -44.85 320.65 -44.85 317.65 6.5 317.65 6.5 320.65 8.8 320.65 8.8 326.8 -22.5 326.8 -22.5 324.65 -24.0 324.65 -22.9 321.95 -36.35 321.5" fill="#707070" fill-rule="evenodd" stroke="none"/>
    <path d="M-51.6 272.95 L-46.95 272.95 -46.95 271.55 -45.1 271.55 -45.1 278.1 7.25 278.1 7.25 271.05 9.15 271.05 9.15 272.45 13.75 272.45 13.75 293.1 9.15 293.1 9.15 294.55 7.25 294.55 7.25 288.95 -45.1 288.95 -45.1 295.05 -46.95 295.05 -46.95 293.6 -51.6 293.6 -51.6 272.95" fill="#707070" fill-rule="evenodd" stroke="none"/>
    <path d="M-83.0 261.0 L-78.7 261.0 -78.7 270.5 -73.35 270.5 -73.35 296.0 -78.7 296.0 -78.7 300.15 -83.0 300.15 -83.0 261.0" fill="#707070" fill-rule="evenodd" stroke="none"/>
    <path d="M54.35 262.6 L54.35 258.0 59.35 258.0 59.35 302.1 54.35 302.1 54.35 300.25 49.0 300.25 49.0 262.6 54.35 262.6" fill="#707070" fill-rule="evenodd" stroke="none"/>
    <path d="M158.6 260.8 L158.6 268.8 164.6 268.8 164.6 286.3 158.6 286.3 158.6 293.0 106.5 293.0 106.5 260.8 158.6 260.8" fill="#707070" fill-rule="evenodd" stroke="none"/>
    <path d="M84.0 241.5 L84.0 237.3 100.8 237.3 100.8 241.5 84.0 241.5" fill="#707070" fill-rule="evenodd" stroke="none"/>
    <path d="M99.8 326.0 L99.8 332.25 60.5 332.25 60.5 326.0 99.8 326.0" fill="#707070" fill-rule="evenodd" stroke="none"/>
    <path d="M106.3 332.25 L106.3 326.3 129.5 326.3 129.5 332.25 106.3 332.25" fill="#707070" fill-rule="evenodd" stroke="none"/>
    <path d="M184.5 316.8 L184.5 325.5 198.8 325.5 198.8 332.25 139.5 332.25 139.5 316.8 184.5 316.8" fill="#707070" fill-rule="evenodd" stroke="none"/>
    <path d="M61.85 147.55 L61.85 141.8 96.9 141.8 96.9 147.55 61.85 147.55" fill="#707070" fill-rule="evenodd" stroke="none"/>
    <path d="M26.3 33.3 L26.3 38.65 8.3 38.65 8.3 33.3 26.3 33.3" fill="#707070" fill-rule="evenodd" stroke="none"/>
    <path d="M-173.4 105.9 L-172.75 106.75 -172.45 107.75 -172.55 108.8 -173.05 109.75 -173.8 110.45 -174.8 110.85 -175.85 110.85 -176.85 110.45 -177.6 109.75 -178.1 108.8 -178.15 107.75 -177.9 106.75 -177.25 105.9 -176.35 105.35 -175.3 105.15 -174.3 105.35 -173.4 105.9" fill="#707070" fill-rule="evenodd" stroke="none"/>
    <path d="M-173.4 74.9 L-172.75 75.75 -172.45 76.75 -172.55 77.8 -173.05 78.75 -173.8 79.45 -174.8 79.85 -175.85 79.85 -176.85 79.45 -177.6 78.75 -178.1 77.8 -178.15 76.75 -177.9 75.75 -177.25 74.9 -176.35 74.35 -175.3 74.15 -174.3 74.35 -173.4 74.9" fill="#707070" fill-rule="evenodd" stroke="none"/>
    <path d="M-115.15 11.55 L-114.6 10.75 -113.8 10.25 -112.85 10.1 -111.9 10.25 -111.1 10.75 -110.5 11.55 -110.25 12.45 -110.35 13.4 -110.75 14.25 -111.5 14.9 -112.35 15.25 -113.3 15.25 -114.2 14.9 -114.9 14.25 -115.35 13.4 -115.45 12.45 -115.15 11.55" fill="#707070" fill-rule="evenodd" stroke="none"/>
    <path d="M-38.0 16.85 L-37.75 17.75 -37.85 18.7 -38.25 19.55 -39.0 20.2 -39.85 20.55 -40.8 20.55 -41.7 20.2 -42.4 19.55 -42.85 18.7 -42.95 17.75 -42.65 16.85 -42.1 16.1 -41.3 15.55 -40.35 15.4 -39.4 15.55 -38.6 16.1 -38.0 16.85" fill="#707070" fill-rule="evenodd" stroke="none"/>
    <path d="M68.3 -31.2 L68.6 -30.3 68.5 -29.35 68.05 -28.5 67.35 -27.85 66.45 -27.5 65.5 -27.5 64.6 -27.85 63.9 -28.5 63.5 -29.35 63.4 -30.3 63.65 -31.2 64.25 -31.95 65.05 -32.45 66.0 -32.65 66.95 -32.45 67.75 -31.95 68.3 -31.2" fill="#707070" fill-rule="evenodd" stroke="none"/>
    <path d="M142.8 -41.95 L143.6 -41.45 144.2 -40.7 144.45 -39.8 144.35 -38.85 143.95 -38.0 143.25 -37.35 142.35 -37.0 141.4 -37.0 140.5 -37.35 139.8 -38.0 139.35 -38.85 139.25 -39.8 139.55 -40.7 140.1 -41.45 140.9 -41.95 141.85 -42.15 142.8 -41.95" fill="#707070" fill-rule="evenodd" stroke="none"/>
    <path d="M209.45 -36.3 L208.75 -36.9 208.35 -37.8 208.25 -38.75 208.5 -39.65 209.1 -40.4 209.9 -40.9 210.85 -41.1 211.8 -40.9 212.6 -40.4 213.15 -39.65 213.45 -38.75 213.35 -37.8 212.9 -36.9 212.2 -36.3 211.3 -35.95 210.35 -35.95 209.45 -36.3" fill="#707070" fill-rule="evenodd" stroke="none"/>
    <path d="M32.9 -127.2 L34.9 -127.2 34.9 -102.75 55.8 -102.75 55.8 -100.75 32.9 -100.75 32.9 -127.2" fill="#707070" fill-rule="evenodd" stroke="none"/>
    <path d="M14.75 -127.4 L16.75 -127.4 16.75 -101.5 14.75 -101.5 14.75 -127.4" fill="#707070" fill-rule="evenodd" stroke="none"/>
    <path d="M67.85 -37.9 L67.85 -45.95 95.35 -45.95 95.35 -37.9 67.85 -37.9" fill="#707070" fill-rule="evenodd" stroke="none"/>
    <path d="M98.6 -38.25 L98.6 -45.95 126.1 -45.95 126.1 -38.25 98.6 -38.25" fill="#707070" fill-rule="evenodd" stroke="none"/>
    <path d="M191.1 -21.75 L201.1 -21.75 201.1 8.25 191.1 8.25 191.1 -21.75" fill="#707070" fill-rule="evenodd" stroke="none"/>
    <path d="M210.3 -30.55 L216.45 -30.55 216.45 12.95 210.3 12.95 210.3 -30.55" fill="#707070" fill-rule="evenodd" stroke="none"/>
    <path d="M228.15 -8.0 L228.15 15.0 221.05 15.0 221.05 -8.0 228.15 -8.0" fill="#707070" fill-rule="evenodd" stroke="none"/>
    <path d="M219.75 65.15 L219.75 46.0 227.8 46.0 227.8 65.15 219.75 65.15" fill="#707070" fill-rule="evenodd" stroke="none"/>
    <path d="M261.1 -87.75 L261.1 -63.5 253.65 -63.5 253.65 -87.75 261.1 -87.75" fill="#707070" fill-rule="evenodd" stroke="none"/>
    <path d="M176.0 -53.55 L180.5 -53.55 180.5 -42.55 176.0 -42.55 176.0 -53.55" fill="#707070" fill-rule="evenodd" stroke="none"/>
    <path d="M192.8 -53.55 L192.8 -42.55 190.5 -42.55 190.5 -53.55 192.8 -53.55" fill="#707070" fill-rule="evenodd" stroke="none"/>
    <path d="M166.7 -53.55 L166.7 -42.55 164.35 -42.55 164.35 -53.55 166.7 -53.55" fill="#707070" fill-rule="evenodd" stroke="none"/>
    <path d="M241.15 -120.0 L241.15 -131.0 258.75 -131.0 258.75 -120.0 241.15 -120.0" fill="#707070" fill-rule="evenodd" stroke="none"/>
    <path d="M258.8 -164.2 L258.8 -153.2 239.15 -153.2 239.15 -164.2 258.8 -164.2" fill="#707070" fill-rule="evenodd" stroke="none"/>
    <path d="M258.5 -193.35 L258.5 -182.35 240.65 -182.35 240.65 -193.35 258.5 -193.35" fill="#707070" fill-rule="evenodd" stroke="none"/>
    <path d="M228.15 -118.2 L228.15 -115.5 184.15 -115.5 184.15 -119.85 212.0 -119.85 212.0 -118.2 228.15 -118.2" fill="#707070" fill-rule="evenodd" stroke="none"/>
    <path d="M203.8 -93.5 L203.8 -87.15 157.25 -87.15 157.25 -93.5 203.8 -93.5" fill="#707070" fill-rule="evenodd" stroke="none"/>
    <path d="M182.0 -193.4 L188.8 -193.4 188.8 -184.5 182.0 -184.5 182.0 -193.4" fill="#707070" fill-rule="evenodd" stroke="none"/>
    <path d="M180.4 -193.4 L180.4 -184.5 173.55 -184.5 173.55 -193.4 180.4 -193.4" fill="#707070" fill-rule="evenodd" stroke="none"/>
    <path d="M172.0 -193.4 L172.0 -184.5 165.15 -184.5 165.15 -193.4 172.0 -193.4" fill="#707070" fill-rule="evenodd" stroke="none"/>
    <path d="M237.5 -518.85 L239.5 -518.85 239.5 -328.7 237.5 -328.7 237.5 -518.85" fill="#707070" fill-rule="evenodd" stroke="none"/>
    <path d="M231.65 -559.5 L231.65 -561.5 257.5 -561.5 257.5 -328.7 255.5 -328.7 255.5 -559.5 231.65 -559.5" fill="#707070" fill-rule="evenodd" stroke="none"/>
    <path d="M268.5 14.4 L268.5 35.5 259.5 35.5 259.5 14.4 268.5 14.4" fill="#707070" fill-rule="evenodd" stroke="none"/>
    <path d="M259.75 45.65 L268.75 45.65 268.75 66.75 259.75 66.75 259.75 45.65" fill="#707070" fill-rule="evenodd" stroke="none"/>
    <path d="M219.75 68.0 L228.75 68.0 228.75 93.0 219.75 93.0 219.75 68.0" fill="#707070" fill-rule="evenodd" stroke="none"/>
    <path d="M260.25 37.15 L267.5 37.15 267.5 44.0 260.25 44.0 260.25 37.15" fill="#707070" fill-rule="evenodd" stroke="none"/>
    <path d="M236.8 -115.5 L236.8 -118.2 261.1 -118.2 261.1 -115.5 236.8 -115.5" fill="#707070" fill-rule="evenodd" stroke="none"/>
    <path d="M155.0 -137.25 L155.0 -139.0 211.0 -139.0 211.0 -137.25 155.0 -137.25" fill="#707070" fill-rule="evenodd" stroke="none"/>
    <path d="M-558.1 183.6 L-529.45 183.6 -529.45 186.3 -558.1 186.3 -558.1 183.6" fill="#ffffff" fill-rule="evenodd" stroke="none"/>
    <path d="M-558.1 183.6 L-529.45 183.6 -529.45 186.3 -558.1 186.3 -558.1 183.6" fill="#ffffff" fill-rule="evenodd" stroke="none"/>
    <path d="M-142.05 114.85 L-142.05 94.95 -135.6 94.95 -135.6 114.85 -142.05 114.85" fill="#ffffff" fill-rule="evenodd" stroke="none"/>
    <path d="M-133.15 114.85 L-133.15 94.95 -126.65 94.95 -126.65 114.85 -133.15 114.85" fill="#ffffff" fill-rule="evenodd" stroke="none"/>
    <path d="M-124.2 114.85 L-124.2 94.95 -117.75 94.95 -117.75 114.85 -124.2 114.85" fill="#ffffff" fill-rule="evenodd" stroke="none"/>
    <path d="M-115.3 114.85 L-115.3 94.95 -108.8 94.95 -108.8 114.85 -115.3 114.85" fill="#ffffff" fill-rule="evenodd" stroke="none"/>
    <path d="M-106.4 114.85 L-106.4 94.95 -99.9 94.95 -99.9 114.85 -106.4 114.85" fill="#ffffff" fill-rule="evenodd" stroke="none"/>
    <path d="M-142.05 71.95 L-135.6 71.95 -135.6 92.35 -142.05 92.35 -142.05 71.95" fill="#ffffff" fill-rule="evenodd" stroke="none"/>
    <path d="M-133.15 71.95 L-126.65 71.95 -126.65 92.35 -133.15 92.35 -133.15 71.95" fill="#ffffff" fill-rule="evenodd" stroke="none"/>
    <path d="M-124.2 71.95 L-117.75 71.95 -117.75 92.35 -124.2 92.35 -124.2 71.95" fill="#ffffff" fill-rule="evenodd" stroke="none"/>
    <path d="M-115.3 92.35 L-115.3 71.95 -108.8 71.95 -108.8 92.35 -115.3 92.35" fill="#ffffff" fill-rule="evenodd" stroke="none"/>
    <path d="M-106.4 71.95 L-99.9 71.95 -99.9 92.35 -106.4 92.35 -106.4 71.95" fill="#ffffff" fill-rule="evenodd" stroke="none"/>
    <path d="M-312.65 -451.05 L-333.6 -451.05 -333.6 -476.8 -277.1 -476.8 -277.1 -451.05 -297.35 -451.05 -297.35 -456.3 -312.65 -456.3 -312.65 -451.05" fill="#ffffff" fill-rule="evenodd" stroke="none"/>
    <path d="M-312.65 -415.2 L-333.6 -415.2 -333.6 -421.7 -312.65 -421.7 -312.65 -415.2" fill="#ffffff" fill-rule="evenodd" stroke="none"/>
    <path d="M-312.65 -424.1 L-333.6 -424.1 -333.6 -430.6 -312.65 -430.6 -312.65 -424.1" fill="#ffffff" fill-rule="evenodd" stroke="none"/>
    <path d="M-312.65 -433.05 L-333.6 -433.05 -333.6 -439.55 -312.65 -439.55 -312.65 -433.05" fill="#ffffff" fill-rule="evenodd" stroke="none"/>
    <path d="M-312.65 -441.95 L-333.6 -441.95 -333.6 -448.45 -312.65 -448.45 -312.65 -441.95" fill="#ffffff" fill-rule="evenodd" stroke="none"/>
    <path d="M-277.1 -415.2 L-297.35 -415.2 -297.35 -421.7 -277.1 -421.7 -277.1 -415.2" fill="#ffffff" fill-rule="evenodd" stroke="none"/>
    <path d="M-277.1 -424.1 L-297.35 -424.1 -297.35 -430.6 -277.1 -430.6 -277.1 -424.1" fill="#ffffff" fill-rule="evenodd" stroke="none"/>
    <path d="M-277.1 -433.05 L-297.35 -433.05 -297.35 -439.55 -277.1 -439.55 -277.1 -433.05" fill="#ffffff" fill-rule="evenodd" stroke="none"/>
    <path d="M-277.1 -441.95 L-297.35 -441.95 -297.35 -448.45 -277.1 -448.45 -277.1 -441.95" fill="#ffffff" fill-rule="evenodd" stroke="none"/>
    <path d="M-185.6 -58.05 L-185.6 -37.55 -192.05 -37.55 -192.05 -58.05 -185.6 -58.05" fill="#ffffff" fill-rule="evenodd" stroke="none"/>
    <path d="M-183.15 -37.55 L-183.15 -58.05 -176.65 -58.05 -176.65 -37.55 -183.15 -37.55" fill="#ffffff" fill-rule="evenodd" stroke="none"/>
    <path d="M-174.2 -37.55 L-174.2 -58.05 -167.75 -58.05 -167.75 -37.55 -174.2 -37.55" fill="#ffffff" fill-rule="evenodd" stroke="none"/>
    <path d="M-165.3 -37.55 L-165.3 -58.05 -158.8 -58.05 -158.8 -37.55 -165.3 -37.55" fill="#ffffff" fill-rule="evenodd" stroke="none"/>
    <path d="M-185.6 -92.55 L-185.6 -72.05 -192.05 -72.05 -192.05 -92.55 -185.6 -92.55" fill="#ffffff" fill-rule="evenodd" stroke="none"/>
    <path d="M-183.15 -72.05 L-183.15 -92.55 -176.65 -92.55 -176.65 -72.05 -183.15 -72.05" fill="#ffffff" fill-rule="evenodd" stroke="none"/>
    <path d="M-174.2 -72.05 L-174.2 -92.55 -167.75 -92.55 -167.75 -72.05 -174.2 -72.05" fill="#ffffff" fill-rule="evenodd" stroke="none"/>
    <path d="M-165.3 -72.05 L-165.3 -92.55 -158.8 -92.55 -158.8 -72.05 -165.3 -72.05" fill="#ffffff" fill-rule="evenodd" stroke="none"/>
    <path d="M-34.3 73.65 L-34.3 109.55 -69.3 109.55 -69.3 73.65 -34.3 73.65" fill="#ffffff" fill-rule="evenodd" stroke="none"/>
    <path d="M-110.1 -78.35 L-83.1 -78.35 -83.1 -50.35 -110.1 -50.35 -110.1 -78.35" fill="#ffffff" fill-rule="evenodd" stroke="none"/>
    <path d="M-44.85 -50.35 L-72.2 -50.35 -72.2 -78.35 -44.85 -78.35 -44.85 -50.35" fill="#ffffff" fill-rule="evenodd" stroke="none"/>
    <path d="M-261.15 -465.3 L-232.9 -465.3 -232.9 -436.8 -261.15 -436.8 -261.15 -465.3" fill="#ffffff" fill-rule="evenodd" stroke="none"/>
  </g>
</svg>
