<?xml version="1.0" encoding="UTF-8" standalone="no"?>
<svg xmlns:ffdec="https://www.free-decompiler.com/flash" xmlns:xlink="http://www.w3.org/1999/xlink" ffdec:objectType="shape" height="260.55px" width="731.0px" xmlns="http://www.w3.org/2000/svg">
  <g transform="matrix(1.0, 0.0, 0.0, 1.0, -0.45, -165.0)">
    <path d="M730.95 425.05 L0.95 425.05 0.95 165.95 730.95 165.95 730.95 425.05" fill="#e6e7e8" fill-rule="evenodd" stroke="none"/>
    <path d="M730.95 425.05 L0.95 425.05 0.95 165.95 730.95 165.95 730.95 425.05 Z" fill="none" stroke="#999999" stroke-linecap="round" stroke-linejoin="round" stroke-width="1.0"/>
    <path d="M730.95 239.95 L0.95 239.95 0.95 167.9 730.95 167.9 730.95 239.95" fill="#26a9e0" fill-rule="evenodd" stroke="none"/>
    <path d="M730.95 242.8 L499.7 242.8 0.95 242.8 0.95 239.8 730.95 239.8 730.95 242.8" fill="#999999" fill-rule="evenodd" stroke="none"/>
    <path d="M730.95 168.0 L0.95 168.0 0.95 165.0 730.95 165.0 730.95 168.0" fill="#999999" fill-rule="evenodd" stroke="none"/>
  </g>
</svg>
