<?xml version="1.0" encoding="UTF-8" standalone="no"?>
<svg xmlns:ffdec="https://www.free-decompiler.com/flash" xmlns:xlink="http://www.w3.org/1999/xlink" ffdec:objectType="shape" height="651.25px" width="788.75px" xmlns="http://www.w3.org/2000/svg">
  <g transform="matrix(1.0, 0.0, 0.0, 1.0, -245.0, -494.45)">
    <path d="M245.5 855.2 L665.5 855.2 665.5 1145.2 245.5 1145.2 245.5 855.2" fill="#e6e7e8" fill-rule="evenodd" stroke="none"/>
    <path d="M245.5 855.2 L665.5 855.2 665.5 1145.2 245.5 1145.2 245.5 855.2 Z" fill="none" stroke="#999999" stroke-linecap="round" stroke-linejoin="round" stroke-width="1.0"/>
    <path d="M245.5 858.1 L665.5 858.1 665.5 930.15 245.5 930.15 245.5 858.1" fill="#26a9e0" fill-rule="evenodd" stroke="none"/>
    <path d="M245.5 930.0 L665.5 930.0 665.5 933.0 532.45 933.0 245.5 933.0 245.5 930.0" fill="#999999" fill-rule="evenodd" stroke="none"/>
    <path d="M245.5 855.2 L665.5 855.2 665.5 858.2 245.5 858.2 245.5 855.2" fill="#999999" fill-rule="evenodd" stroke="none"/>
    <path d="M693.25 497.35 L1033.25 497.35 1033.25 569.4 693.25 569.4 693.25 497.35" fill="#26a9e0" fill-rule="evenodd" stroke="none"/>
    <path d="M693.25 569.25 L1033.25 569.25 1033.25 572.25 925.55 572.25 693.25 572.25 693.25 569.25" fill="#999999" fill-rule="evenodd" stroke="none"/>
    <path d="M693.25 494.45 L1033.25 494.45 1033.25 497.45 693.25 497.45 693.25 494.45" fill="#999999" fill-rule="evenodd" stroke="none"/>
    <path d="M693.25 586.6 L1033.25 586.6 1033.25 706.6 693.25 706.6 693.25 586.6" fill="#e6e7e8" fill-rule="evenodd" stroke="none"/>
    <path d="M693.25 586.6 L1033.25 586.6 1033.25 706.6 693.25 706.6 693.25 586.6 Z" fill="none" stroke="#999999" stroke-linecap="round" stroke-linejoin="round" stroke-width="1.0"/>
    <path d="M693.25 586.7 L1033.25 586.7 1033.25 630.7 693.25 630.7 693.25 586.7" fill="#999999" fill-rule="evenodd" stroke="none"/>
    <path d="M693.25 586.6 L1033.25 586.6 1033.25 626.6 693.25 626.6 693.25 586.6" fill="#26a9e0" fill-rule="evenodd" stroke="none"/>
    <path d="M1033.25 721.05 L1033.25 841.05 693.25 841.05 693.25 721.05 1033.25 721.05" fill="#e6e7e8" fill-rule="evenodd" stroke="none"/>
    <path d="M1033.25 721.05 L1033.25 841.05 693.25 841.05 693.25 721.05 1033.25 721.05 Z" fill="none" stroke="#999999" stroke-linecap="round" stroke-linejoin="round" stroke-width="1.0"/>
    <path d="M693.25 721.15 L1033.25 721.15 1033.25 765.15 693.25 765.15 693.25 721.15" fill="#999999" fill-rule="evenodd" stroke="none"/>
    <path d="M693.25 721.05 L1033.25 721.05 1033.25 761.05 693.25 761.05 693.25 721.05" fill="#26a9e0" fill-rule="evenodd" stroke="none"/>
    <path d="M1033.25 1145.2 L693.25 1145.2 693.25 855.2 1033.25 855.2 1033.25 1145.2" fill="#e6e7e8" fill-rule="evenodd" stroke="none"/>
    <path d="M1033.25 1145.2 L693.25 1145.2 693.25 855.2 1033.25 855.2 1033.25 1145.2 Z" fill="none" stroke="#999999" stroke-linecap="round" stroke-linejoin="round" stroke-width="1.0"/>
    <path d="M1033.25 933.0 L925.55 933.0 693.25 933.0 693.25 930.0 1033.25 930.0 1033.25 933.0" fill="#999999" fill-rule="evenodd" stroke="none"/>
    <path d="M1033.25 858.2 L693.25 858.2 693.25 855.2 1033.25 855.2 1033.25 858.2" fill="#999999" fill-rule="evenodd" stroke="none"/>
    <path d="M1033.25 930.15 L693.25 930.15 693.25 858.1 1033.25 858.1 1033.25 930.15" fill="#f522ba" fill-rule="evenodd" stroke="none"/>
  </g>
</svg>
