<?xml version="1.0" encoding="UTF-8" standalone="no"?>
<svg xmlns:ffdec="https://www.free-decompiler.com/flash" xmlns:xlink="http://www.w3.org/1999/xlink" ffdec:objectType="shape" height="162.0px" width="822.2px" xmlns="http://www.w3.org/2000/svg">
  <g transform="matrix(1.0, 0.0, 0.0, 1.0, -228.9, -199.0)">
    <path d="M1044.25 205.85 Q1049.95 211.55 1050.1 219.5 L1050.1 340.5 Q1049.95 348.45 1044.25 354.15 1038.7 359.7 1030.6 360.0 L249.4 360.0 Q241.45 359.85 235.75 354.15 230.2 348.6 229.9 340.5 L229.9 219.5 Q230.05 211.55 235.75 205.85 241.45 200.15 249.4 200.0 L1030.6 200.0 Q1038.7 200.3 1044.25 205.85" fill="#ffffff" fill-rule="evenodd" stroke="none"/>
    <path d="M1044.25 205.85 Q1049.95 211.55 1050.1 219.5 L1050.1 340.5 Q1049.95 348.45 1044.25 354.15 1038.7 359.7 1030.6 360.0 L249.4 360.0 Q241.45 359.85 235.75 354.15 230.2 348.6 229.9 340.5 L229.9 219.5 Q230.05 211.55 235.75 205.85 241.45 200.15 249.4 200.0 L1030.6 200.0 Q1038.7 200.3 1044.25 205.85 Z" fill="none" stroke="#ff95ff" stroke-linecap="round" stroke-linejoin="round" stroke-width="2.0"/>
  </g>
</svg>
