<?xml version="1.0" encoding="UTF-8" standalone="no"?>
<svg xmlns:ffdec="https://www.free-decompiler.com/flash" xmlns:xlink="http://www.w3.org/1999/xlink" ffdec:objectType="shape" height="56.0px" width="204.95px" xmlns="http://www.w3.org/2000/svg">
  <g transform="matrix(1.0, 0.0, 0.0, 1.0, 102.45, 1.0)">
    <path d="M98.55 2.9 Q101.45 5.8 101.5 9.75 L101.5 44.25 Q101.45 48.25 98.55 51.05 95.75 53.95 91.75 54.0 L-91.65 54.0 Q-95.7 53.9 -98.5 51.05 -101.35 48.25 -101.45 44.25 L-101.45 9.75 Q-101.35 5.8 -98.5 2.9 -95.65 0.1 -91.65 0.0 L-16.45 0.0 -16.45 0.05 -16.05 0.05 -16.05 0.0 91.75 0.0 Q95.75 0.1 98.55 2.9" fill="#ff95ff" fill-rule="evenodd" stroke="none"/>
    <path d="M98.55 2.9 Q95.75 0.1 91.75 0.0 L-16.05 0.0 -16.05 0.05 -16.45 0.05 -16.45 0.0 -91.65 0.0 Q-95.65 0.1 -98.5 2.9 -101.35 5.8 -101.45 9.75 L-101.45 44.25 Q-101.35 48.25 -98.5 51.05 -95.7 53.9 -91.65 54.0 L91.75 54.0 Q95.75 53.95 98.55 51.05 101.45 48.25 101.5 44.25 L101.5 9.75 Q101.45 5.8 98.55 2.9 Z" fill="none" stroke="#ff95ff" stroke-linecap="round" stroke-linejoin="round" stroke-width="2.0"/>
  </g>
</svg>
