<?xml version="1.0" encoding="UTF-8" standalone="no"?>
<svg xmlns:ffdec="https://www.free-decompiler.com/flash" xmlns:xlink="http://www.w3.org/1999/xlink" ffdec:objectType="shape" height="46.0px" width="224.95px" xmlns="http://www.w3.org/2000/svg">
  <g transform="matrix(1.0, 0.0, 0.0, 1.0, 112.45, 1.0)">
    <path d="M101.75 0.0 Q105.75 0.1 108.55 2.9 111.45 5.8 111.5 9.75 L111.5 34.25 Q111.45 38.25 108.55 41.05 105.75 43.95 101.75 44.0 L-101.65 44.0 Q-105.7 43.9 -108.5 41.05 -111.35 38.25 -111.45 34.25 L-111.45 9.75 Q-111.35 5.8 -108.5 2.9 -105.65 0.1 -101.65 0.0 L-16.45 0.0 -16.45 0.05 -16.05 0.05 -16.05 0.0 101.75 0.0" fill="#8d97f6" fill-rule="evenodd" stroke="none"/>
    <path d="M101.75 0.0 L-16.05 0.0 -16.05 0.05 -16.45 0.05 -16.45 0.0 -101.65 0.0 Q-105.65 0.1 -108.5 2.9 -111.35 5.8 -111.45 9.75 L-111.45 34.25 Q-111.35 38.25 -108.5 41.05 -105.7 43.9 -101.65 44.0 L101.75 44.0 Q105.75 43.95 108.55 41.05 111.45 38.25 111.5 34.25 L111.5 9.75 Q111.45 5.8 108.55 2.9 105.75 0.1 101.75 0.0 Z" fill="none" stroke="#ff95ff" stroke-linecap="round" stroke-linejoin="round" stroke-width="2.0"/>
  </g>
</svg>
