<?xml version="1.0" encoding="UTF-8" standalone="no"?>
<svg xmlns:ffdec="https://www.free-decompiler.com/flash" xmlns:xlink="http://www.w3.org/1999/xlink" ffdec:objectType="shape" height="1002.2px" width="822.2px" xmlns="http://www.w3.org/2000/svg">
  <g transform="matrix(1.0, 0.0, 0.0, 1.0, -228.9, -199.0)">
    <path d="M235.75 926.05 Q241.45 920.35 249.4 920.2 L1030.6 920.2 Q1038.7 920.5 1044.25 926.05 1049.95 931.75 1050.1 939.7 L1050.1 1180.75 Q1049.9 1188.7 1044.25 1194.35 1038.6 1200.0 1030.65 1200.2 L249.4 1200.2 Q241.4 1200.0 235.75 1194.35 230.1 1188.7 229.9 1180.75 L229.9 939.7 Q230.05 931.75 235.75 926.05" fill="#ffffff" fill-rule="evenodd" stroke="none"/>
    <path d="M235.75 926.05 Q241.45 920.35 249.4 920.2 L1030.6 920.2 Q1038.7 920.5 1044.25 926.05 1049.95 931.75 1050.1 939.7 L1050.1 1180.75 Q1049.9 1188.7 1044.25 1194.35 1038.6 1200.0 1030.65 1200.2 L249.4 1200.2 Q241.4 1200.0 235.75 1194.35 230.1 1188.7 229.9 1180.75 L229.9 939.7 Q230.05 931.75 235.75 926.05 Z" fill="none" stroke="#ff95ff" stroke-linecap="round" stroke-linejoin="round" stroke-width="2.0"/>
    <path d="M1050.1 409.65 L1050.1 704.15 1050.1 870.65 Q1049.95 878.6 1044.25 884.3 1038.7 889.85 1030.6 890.15 L249.4 890.15 Q241.45 890.0 235.75 884.3 230.2 878.75 229.9 870.65 L229.9 704.15 229.9 409.65 Q230.05 401.7 235.75 396.0 241.45 390.3 249.4 390.15 L1030.6 390.15 Q1038.7 390.45 1044.25 396.0 1049.95 401.7 1050.1 409.65" fill="#ffffff" fill-rule="evenodd" stroke="none"/>
    <path d="M1050.1 409.65 L1050.1 704.15 1050.1 870.65 Q1049.95 878.6 1044.25 884.3 1038.7 889.85 1030.6 890.15 L249.4 890.15 Q241.45 890.0 235.75 884.3 230.2 878.75 229.9 870.65 L229.9 704.15 229.9 409.65 Q230.05 401.7 235.75 396.0 241.45 390.3 249.4 390.15 L1030.6 390.15 Q1038.7 390.45 1044.25 396.0 1049.95 401.7 1050.1 409.65 Z" fill="none" stroke="#ff95ff" stroke-linecap="round" stroke-linejoin="round" stroke-width="2.0"/>
    <path d="M1044.25 205.85 Q1049.95 211.55 1050.1 219.5 L1050.1 340.5 Q1049.95 348.45 1044.25 354.15 1038.7 359.7 1030.6 360.0 L249.4 360.0 Q241.45 359.85 235.75 354.15 230.2 348.6 229.9 340.5 L229.9 219.5 Q230.05 211.55 235.75 205.85 241.45 200.15 249.4 200.0 L1030.6 200.0 Q1038.7 200.3 1044.25 205.85" fill="#ffffff" fill-rule="evenodd" stroke="none"/>
    <path d="M1044.25 205.85 Q1049.95 211.55 1050.1 219.5 L1050.1 340.5 Q1049.95 348.45 1044.25 354.15 1038.7 359.7 1030.6 360.0 L249.4 360.0 Q241.45 359.85 235.75 354.15 230.2 348.6 229.9 340.5 L229.9 219.5 Q230.05 211.55 235.75 205.85 241.45 200.15 249.4 200.0 L1030.6 200.0 Q1038.7 200.3 1044.25 205.85 Z" fill="none" stroke="#ff95ff" stroke-linecap="round" stroke-linejoin="round" stroke-width="2.0"/>
  </g>
</svg>
