<?xml version="1.0" encoding="UTF-8" standalone="no"?>
<svg xmlns:ffdec="https://www.free-decompiler.com/flash" xmlns:xlink="http://www.w3.org/1999/xlink" ffdec:objectType="shape" height="13.45px" width="300.9px" xmlns="http://www.w3.org/2000/svg">
  <g transform="matrix(1.0, 0.0, 0.0, 1.0, 150.1, 0.0)">
    <path d="M146.9 1.05 L148.95 1.05 148.95 3.85 150.8 3.85 150.8 5.35 148.95 5.35 148.95 10.35 148.95 10.9 149.1 11.3 149.4 11.55 149.95 11.6 150.35 11.6 150.8 11.55 150.8 13.15 150.15 13.2 149.45 13.25 148.15 13.1 Q147.65 12.95 147.4 12.65 L147.0 11.9 146.9 10.85 146.9 5.35 145.35 5.35 145.35 3.85 146.9 3.85 146.9 1.05 M144.1 6.75 L144.1 13.15 142.05 13.15 142.05 7.3 Q142.0 6.2 141.6 5.7 141.15 5.2 140.25 5.2 L139.3 5.4 138.6 5.95 Q138.3 6.25 138.15 6.7 138.0 7.15 138.0 7.65 L138.0 13.15 135.95 13.15 135.95 3.85 137.85 3.85 137.85 5.2 137.9 5.25 Q138.35 4.5 139.15 4.05 139.9 3.6 140.8 3.6 142.35 3.6 143.25 4.4 144.1 5.2 144.1 6.75 M131.85 3.2 L131.35 2.55 130.65 2.25 129.8 2.15 126.45 2.15 126.45 6.4 129.75 6.4 130.55 6.3 131.25 5.95 131.8 5.3 132.0 4.25 131.85 3.2 M134.25 4.3 L134.1 5.55 133.45 6.85 132.1 7.85 129.9 8.2 126.45 8.2 126.45 13.15 124.2 13.15 124.2 0.3 129.9 0.3 132.1 0.7 133.45 1.7 134.1 3.0 134.25 4.3 M122.25 8.5 Q122.25 9.55 121.9 10.45 L121.0 12.0 119.55 13.05 117.55 13.4 115.55 13.05 114.1 12.0 113.15 10.45 Q112.85 9.55 112.85 8.5 112.85 7.45 113.15 6.55 113.5 5.65 114.1 5.0 114.7 4.35 115.55 3.95 L117.55 3.6 Q118.65 3.6 119.55 3.95 120.4 4.35 121.0 5.0 L121.9 6.55 Q122.25 7.45 122.25 8.5 M117.55 5.2 Q116.85 5.2 116.35 5.5 115.85 5.8 115.55 6.25 L115.05 7.3 114.9 8.5 115.05 9.7 115.55 10.75 116.35 11.5 117.55 11.8 118.75 11.5 119.55 10.75 120.05 9.7 120.2 8.5 120.05 7.3 Q119.9 6.7 119.55 6.25 L118.75 5.5 117.55 5.2 M111.7 9.05 L104.9 9.05 Q104.9 9.55 105.05 10.05 105.2 10.6 105.5 10.95 L106.25 11.55 107.4 11.8 Q108.3 11.8 108.85 11.4 L109.65 10.25 111.6 10.25 111.05 11.6 110.1 12.6 108.85 13.2 107.4 13.4 105.45 13.05 104.0 12.05 Q103.4 11.4 103.15 10.5 102.85 9.6 102.85 8.5 102.85 7.5 103.15 6.65 103.45 5.75 104.05 5.05 L105.45 4.0 107.35 3.6 Q108.4 3.6 109.3 4.05 110.15 4.5 110.75 5.25 L111.6 7.0 Q111.85 8.0 111.7 9.05 M107.35 5.2 L106.35 5.4 Q105.9 5.6 105.6 5.95 L105.1 6.7 104.9 7.65 109.65 7.65 109.45 6.75 109.0 5.95 108.25 5.4 107.35 5.2 M98.8 4.4 L98.4 3.3 97.65 2.5 96.65 2.0 95.5 1.85 93.7 2.25 Q92.95 2.65 92.5 3.35 92.0 4.05 91.8 4.9 91.55 5.8 91.55 6.75 L91.8 8.55 Q92.0 9.4 92.5 10.1 L93.7 11.2 95.5 11.6 97.0 11.4 98.15 10.7 98.8 9.55 99.1 8.1 95.65 8.1 95.65 6.4 101.15 6.4 101.15 13.15 99.7 13.15 99.35 11.65 Q98.45 12.65 97.55 13.05 L95.5 13.45 92.9 12.95 Q91.75 12.4 90.95 11.5 90.15 10.55 89.75 9.35 89.3 8.1 89.3 6.75 89.3 5.35 89.75 4.15 90.15 2.9 90.95 2.0 91.75 1.05 92.9 0.55 94.05 0.0 95.5 0.0 L97.45 0.25 Q98.4 0.55 99.15 1.1 L100.35 2.5 Q100.85 3.3 101.0 4.4 L98.8 4.4 M14.8 9.2 L9.6 9.2 9.6 7.3 14.8 7.3 14.8 9.2 M7.55 5.3 L6.9 6.25 6.2 6.8 5.7 7.0 5.7 7.05 6.3 7.25 6.9 7.7 7.4 8.5 7.6 9.75 7.75 11.8 Q7.95 12.75 8.3 13.15 L5.9 13.15 5.6 12.25 5.55 11.25 5.45 9.75 5.05 8.7 Q4.75 8.25 4.25 8.05 L3.0 7.85 -0.35 7.85 -0.35 13.15 -2.6 13.15 -2.6 0.3 3.55 0.3 Q5.7 0.3 6.75 1.2 7.8 2.15 7.8 3.75 L7.55 5.3 M5.4 3.1 L4.9 2.5 4.15 2.2 3.35 2.15 -0.35 2.15 -0.35 6.15 3.35 6.15 Q4.45 6.15 5.0 5.65 5.55 5.1 5.55 4.1 L5.4 3.1 M-6.3 2.0 Q-5.5 2.9 -5.1 4.15 -4.65 5.35 -4.65 6.75 -4.65 8.1 -5.1 9.35 -5.5 10.55 -6.3 11.5 -7.1 12.4 -8.25 12.95 L-10.8 13.45 -13.4 12.95 Q-14.55 12.4 -15.35 11.5 L-16.55 9.35 Q-16.95 8.1 -16.95 6.75 -16.95 5.35 -16.55 4.15 -16.1 2.9 -15.35 2.0 -14.55 1.05 -13.4 0.55 -12.25 0.0 -10.8 0.0 -9.35 0.0 -8.25 0.55 -7.1 1.05 -6.3 2.0 M-9.05 2.25 L-10.8 1.85 -12.6 2.25 -13.8 3.35 Q-14.25 4.05 -14.5 4.9 L-14.7 6.75 -14.5 8.55 -13.8 10.1 -12.6 11.2 Q-11.85 11.6 -10.8 11.6 L-9.05 11.2 -7.8 10.1 -7.15 8.55 -6.9 6.75 Q-6.9 5.8 -7.15 4.9 -7.35 4.05 -7.8 3.35 -8.3 2.65 -9.05 2.25 M-18.35 4.4 L-20.6 4.4 -21.0 3.35 -21.65 2.55 -22.55 2.0 -23.8 1.85 -25.6 2.25 -26.8 3.35 -27.5 4.9 -27.7 6.75 -27.5 8.55 -26.8 10.1 -25.6 11.2 Q-24.85 11.6 -23.8 11.6 L-22.5 11.35 Q-21.9 11.1 -21.5 10.65 -21.05 10.2 -20.85 9.55 L-20.55 8.25 -18.35 8.25 Q-18.4 9.4 -18.85 10.35 -19.25 11.3 -19.95 12.0 -20.7 12.7 -21.65 13.1 L-23.8 13.45 -26.4 12.95 -28.35 11.5 -29.55 9.35 Q-29.95 8.1 -29.95 6.75 -29.95 5.35 -29.55 4.15 -29.1 2.9 -28.35 2.0 -27.55 1.05 -26.4 0.55 -25.25 0.0 -23.8 0.0 L-21.75 0.3 Q-20.8 0.6 -20.1 1.15 -19.35 1.7 -18.9 2.55 -18.45 3.35 -18.35 4.4 M-31.4 3.0 Q-31.25 3.7 -31.25 4.3 L-31.4 5.55 -32.05 6.85 Q-32.5 7.45 -33.4 7.85 L-35.6 8.2 -39.05 8.2 -39.05 13.15 -41.3 13.15 -41.3 0.3 -35.6 0.3 -33.4 0.7 Q-32.5 1.1 -32.05 1.7 L-31.4 3.0 M-34.85 2.25 L-35.7 2.15 -39.05 2.15 -39.05 6.4 -35.75 6.4 -34.95 6.3 -34.25 5.95 -33.7 5.3 -33.5 4.25 Q-33.5 3.65 -33.65 3.2 -33.85 2.8 -34.15 2.55 -34.45 2.3 -34.85 2.25 M-115.35 7.45 L-121.85 7.45 -121.85 11.2 -114.7 11.2 -114.7 13.15 -124.1 13.15 -124.1 0.3 -114.8 0.3 -114.8 2.25 -121.85 2.25 -121.85 5.6 -115.35 5.6 -115.35 7.45 M-127.45 2.2 Q-126.75 3.05 -126.4 4.2 -126.1 5.4 -126.1 6.75 -126.1 8.05 -126.4 9.25 -126.75 10.4 -127.45 11.25 -128.1 12.15 -129.2 12.65 -130.3 13.15 -131.75 13.15 L-137.1 13.15 -137.1 0.3 -131.75 0.3 Q-130.3 0.3 -129.2 0.8 -128.1 1.3 -127.45 2.2 M-130.45 2.5 L-132.6 2.15 -134.85 2.15 -134.85 11.3 -132.6 11.3 -130.45 10.95 -129.15 10.0 -128.5 8.55 -128.35 6.75 Q-128.35 5.75 -128.5 4.9 -128.7 4.1 -129.15 3.45 -129.65 2.85 -130.45 2.5 M-139.4 4.2 Q-139.1 5.4 -139.1 6.75 -139.1 8.05 -139.4 9.25 -139.75 10.4 -140.45 11.25 -141.1 12.15 -142.2 12.65 -143.3 13.15 -144.75 13.15 L-150.1 13.15 -150.1 0.3 -144.75 0.3 Q-143.3 0.3 -142.2 0.8 -141.1 1.3 -140.45 2.2 -139.75 3.05 -139.4 4.2 M-141.35 6.75 Q-141.35 5.75 -141.5 4.9 -141.7 4.1 -142.15 3.45 -142.65 2.85 -143.45 2.5 -144.3 2.15 -145.6 2.15 L-147.85 2.15 -147.85 11.3 -145.6 11.3 -143.45 10.95 Q-142.65 10.6 -142.15 10.0 L-141.5 8.55 Q-141.35 7.7 -141.35 6.75" fill="#dcdcdc" fill-rule="evenodd" stroke="none"/>
  </g>
</svg>
