<?xml version="1.0" encoding="UTF-8" standalone="no"?>
<svg xmlns:ffdec="https://www.free-decompiler.com/flash" xmlns:xlink="http://www.w3.org/1999/xlink" ffdec:objectType="shape" height="199.85px" width="262.05px" xmlns="http://www.w3.org/2000/svg">
  <g transform="matrix(1.0, 0.0, 0.0, 1.0, 131.05, 99.95)">
    <path d="M-104.05 46.0 L-102.0 46.0 -102.0 56.0 -90.05 56.0 -90.05 58.0 -104.05 58.0 -104.05 46.0 M-104.05 -58.0 L-89.05 -58.0 -89.05 -56.05 -102.0 -56.05 -102.0 -46.05 -104.05 -46.05 -104.05 -58.0 M0.9 98.05 L5.95 98.05 5.95 99.9 -6.05 99.9 -6.05 98.05 -1.0 98.05 -1.0 46.95 0.9 46.95 0.9 98.05 M101.9 46.0 L103.95 46.0 103.95 57.95 88.95 57.95 88.95 56.0 101.9 56.0 101.9 46.0 M128.95 -1.05 L128.95 -6.0 131.0 -6.0 131.0 6.0 128.95 6.0 128.95 1.0 63.9 1.0 63.9 -1.05 128.95 -1.05 M101.95 -56.0 L88.9 -56.0 88.9 -58.0 103.95 -58.0 103.95 -46.0 101.95 -46.0 101.95 -56.0 M6.1 -8.85 L8.75 -6.2 2.6 0.0 8.75 6.15 6.1 8.85 -0.1 2.65 -6.25 8.85 -8.9 6.15 -2.75 0.0 -8.9 -6.2 -6.25 -8.85 -0.1 -2.65 6.1 -8.85 M6.0 -98.05 L0.9 -98.05 0.9 -47.05 -1.0 -47.05 -1.0 -98.05 -6.05 -98.05 -6.05 -99.95 6.0 -99.95 6.0 -98.05" fill="#666666" fill-rule="evenodd" stroke="none"/>
    <path d="M-131.05 -6.05 L-129.05 -6.05 -129.05 -1.0 -63.05 -1.0 -63.05 1.0 -129.05 1.0 -129.05 6.0 -131.05 6.0 -131.05 -6.05" fill="#666666" fill-rule="evenodd" stroke="none"/>
  </g>
</svg>
