<?xml version="1.0" encoding="UTF-8" standalone="no"?>
<svg xmlns:ffdec="https://www.free-decompiler.com/flash" xmlns:xlink="http://www.w3.org/1999/xlink" ffdec:objectType="shape" height="8.0px" width="171.7px" xmlns="http://www.w3.org/2000/svg">
  <g transform="matrix(1.0, 0.0, 0.0, 1.0, -7.3, -15.75)">
    <path d="M8.05 19.6 Q11.0 16.05 13.3 17.1 13.65 17.25 16.0 19.75 L17.25 21.05 Q18.25 21.95 19.2 22.25 22.0 23.25 25.05 19.75 28.1 16.2 30.65 17.2 31.9 17.75 33.2 19.75 34.45 21.75 36.2 22.45 39.05 23.55 41.45 19.75 43.9 15.9 46.4 17.0 47.95 17.7 48.9 19.75 50.0 22.05 51.1 22.65 53.4 23.9 56.4 19.75 59.4 15.65 62.1 17.3 63.35 18.1 64.05 19.75 64.8 21.35 66.05 22.2 68.75 23.8 71.7 19.75 74.75 15.55 77.05 16.8 78.15 17.4 79.2 19.75 80.15 21.75 81.75 22.45 84.25 23.55 86.7 19.75 89.1 15.9 91.95 17.05 93.7 17.7 94.95 19.75 96.25 21.75 97.5 22.25 100.05 23.25 103.05 19.75 106.15 16.2 108.95 17.2 109.9 17.55 110.9 18.4 L112.15 19.75 113.4 21.05 115.35 22.3 Q118.2 23.35 121.2 19.75 124.1 16.2 126.95 17.2 L128.9 18.45 130.2 19.75 131.45 21.1 133.35 22.3 Q136.2 23.3 139.25 19.75 142.3 16.25 144.8 17.25 146.1 17.75 147.4 19.75 148.6 21.8 150.4 22.45 153.25 23.6 155.65 19.75 158.05 15.95 160.6 17.05 162.15 17.75 163.1 19.75 164.2 22.1 165.3 22.7 167.55 23.95 170.6 19.75 173.6 15.7 176.25 17.25 177.55 18.0 178.25 19.6" fill="none" stroke="#666666" stroke-linecap="round" stroke-linejoin="round" stroke-opacity="0.29803923" stroke-width="1.5"/>
  </g>
</svg>
