<?xml version="1.0" encoding="UTF-8" standalone="no"?>
<svg xmlns:ffdec="https://www.free-decompiler.com/flash" xmlns:xlink="http://www.w3.org/1999/xlink" ffdec:objectType="shape" height="9.25px" width="168.45px" xmlns="http://www.w3.org/2000/svg">
  <g transform="matrix(1.0, 0.0, 0.0, 1.0, -8.3, -15.8)">
    <path d="M176.0 20.6 Q173.9 22.6 170.05 23.65 162.35 25.7 153.6 20.6 144.65 15.35 138.0 16.9 134.8 17.65 131.6 20.6 128.85 23.1 124.2 24.0 116.9 25.35 109.85 20.6 102.8 15.8 94.45 17.2 89.3 18.05 85.6 20.6 81.9 23.1 78.15 23.7 70.8 24.95 61.85 20.6 52.9 16.2 44.65 17.4 41.85 17.85 39.0 18.95 38.65 19.1 35.35 20.6 L31.65 22.25 Q28.75 23.4 25.95 23.8 17.65 25.1 9.05 20.6" fill="none" stroke="#666666" stroke-linecap="round" stroke-linejoin="round" stroke-opacity="0.6" stroke-width="1.5"/>
  </g>
</svg>
