<?xml version="1.0" encoding="UTF-8" standalone="no"?>
<svg xmlns:ffdec="https://www.free-decompiler.com/flash" xmlns:xlink="http://www.w3.org/1999/xlink" ffdec:objectType="shape" height="32.4px" width="168.45px" xmlns="http://www.w3.org/2000/svg">
  <g transform="matrix(1.0, 0.0, 0.0, 1.0, -8.35, -4.25)">
    <path d="M9.1 19.85 Q11.2 11.7 15.05 7.6 22.75 -0.55 31.5 19.85 40.45 40.7 47.1 34.5 50.3 31.5 53.5 19.85 56.25 9.8 60.9 6.25 68.2 0.7 75.25 19.85 82.3 39.0 90.65 33.35 95.8 29.9 99.5 19.85 103.2 9.85 106.95 7.3 114.3 2.3 123.25 19.85 132.2 37.4 140.45 32.5 143.25 30.85 146.1 26.4 L149.75 19.85 153.45 13.2 Q156.35 8.65 159.15 6.9 167.45 1.85 176.05 19.85" fill="none" stroke="#666666" stroke-linecap="round" stroke-linejoin="round" stroke-opacity="0.8" stroke-width="1.5"/>
  </g>
</svg>
