<?xml version="1.0" encoding="UTF-8" standalone="no"?>
<svg xmlns:ffdec="https://www.free-decompiler.com/flash" xmlns:xlink="http://www.w3.org/1999/xlink" ffdec:objectType="shape" height="22.0px" width="473.0px" xmlns="http://www.w3.org/2000/svg">
  <g transform="matrix(1.0, 0.0, 0.0, 1.0, -195.0, -325.0)">
    <path d="M666.0 336.0 Q666.0 332.25 663.35 329.6 660.75 327.0 657.0 327.0 L206.0 327.0 Q202.25 327.0 199.6 329.6 197.0 332.25 197.0 336.0 197.0 339.75 199.6 342.35 202.25 345.0 206.0 345.0 L657.0 345.0 Q660.75 345.0 663.35 342.35 666.0 339.75 666.0 336.0 M657.0 325.0 Q661.55 325.0 664.75 328.2 668.0 331.45 668.0 336.0 668.0 340.55 664.75 343.75 661.55 347.0 657.0 347.0 L206.0 347.0 Q201.45 347.0 198.2 343.75 195.0 340.55 195.0 336.0 195.0 331.45 198.2 328.2 201.45 325.0 206.0 325.0 L657.0 325.0" fill="#66cc66" fill-rule="evenodd" stroke="none"/>
  </g>
</svg>
