<?xml version="1.0" encoding="UTF-8" standalone="no"?>
<svg xmlns:ffdec="https://www.free-decompiler.com/flash" xmlns:xlink="http://www.w3.org/1999/xlink" ffdec:objectType="shape" height="204.95px" width="542.0px" xmlns="http://www.w3.org/2000/svg">
  <g transform="matrix(1.0, 0.0, 0.0, 1.0, 0.0, -43.0)">
    <path d="M542.0 240.3 Q542.0 247.95 533.3 247.95 L8.7 247.95 Q0.0 247.95 0.0 240.3 L0.0 43.0 542.0 43.0 542.0 240.3" fill="#2a2c3a" fill-rule="evenodd" stroke="none"/>
    <path d="M518.0 224.0 L18.0 224.0 18.0 223.0 518.0 223.0 518.0 224.0" fill="#ffffff" fill-opacity="0.2" fill-rule="evenodd" stroke="none"/>
    <path d="M518.0 74.0 L18.0 74.0 18.0 73.0 518.0 73.0 518.0 74.0" fill="#ffffff" fill-opacity="0.05882353" fill-rule="evenodd" stroke="none"/>
    <path d="M518.0 104.0 L18.0 104.0 18.0 103.0 518.0 103.0 518.0 104.0" fill="#ffffff" fill-opacity="0.05882353" fill-rule="evenodd" stroke="none"/>
    <path d="M518.0 134.0 L18.0 134.0 18.0 133.0 518.0 133.0 518.0 134.0" fill="#ffffff" fill-opacity="0.05882353" fill-rule="evenodd" stroke="none"/>
    <path d="M518.0 164.0 L18.0 164.0 18.0 163.0 518.0 163.0 518.0 164.0" fill="#ffffff" fill-opacity="0.05882353" fill-rule="evenodd" stroke="none"/>
    <path d="M518.0 194.0 L18.0 194.0 18.0 193.0 518.0 193.0 518.0 194.0" fill="#ffffff" fill-opacity="0.05882353" fill-rule="evenodd" stroke="none"/>
    <path d="M103.0 73.0 L103.0 223.0 70.0 223.0 70.0 73.0 103.0 73.0" fill="#ffffff" fill-opacity="0.019607844" fill-rule="evenodd" stroke="none"/>
    <path d="M164.0 73.0 L164.0 223.0 131.0 223.0 131.0 73.0 164.0 73.0" fill="#ffffff" fill-opacity="0.019607844" fill-rule="evenodd" stroke="none"/>
    <path d="M225.0 73.0 L225.0 223.0 192.0 223.0 192.0 73.0 225.0 73.0" fill="#ffffff" fill-opacity="0.019607844" fill-rule="evenodd" stroke="none"/>
    <path d="M286.0 73.0 L286.0 223.0 253.0 223.0 253.0 73.0 286.0 73.0" fill="#ffffff" fill-opacity="0.019607844" fill-rule="evenodd" stroke="none"/>
    <path d="M347.0 73.0 L347.0 223.0 314.0 223.0 314.0 73.0 347.0 73.0" fill="#ffffff" fill-opacity="0.019607844" fill-rule="evenodd" stroke="none"/>
    <path d="M408.0 73.0 L408.0 223.0 375.0 223.0 375.0 73.0 408.0 73.0" fill="#ffffff" fill-opacity="0.019607844" fill-rule="evenodd" stroke="none"/>
    <path d="M469.0 73.0 L469.0 223.0 436.0 223.0 436.0 73.0 469.0 73.0" fill="#ffffff" fill-opacity="0.019607844" fill-rule="evenodd" stroke="none"/>
    <path d="M530.0 73.0 L530.0 223.0 497.0 223.0 497.0 73.0 530.0 73.0" fill="#ffffff" fill-opacity="0.019607844" fill-rule="evenodd" stroke="none"/>
    <path d="M42.0 73.0 L42.0 223.0 18.0 223.0 18.0 73.0 42.0 73.0" fill="#ffffff" fill-opacity="0.019607844" fill-rule="evenodd" stroke="none"/>
    <path d="M530.0 73.0 L18.0 73.0 18.0 43.0 530.0 43.0 530.0 73.0" fill="#ffffff" fill-opacity="0.019607844" fill-rule="evenodd" stroke="none"/>
  </g>
</svg>
