<?xml version="1.0" encoding="UTF-8" standalone="no"?>
<svg xmlns:ffdec="https://www.free-decompiler.com/flash" xmlns:xlink="http://www.w3.org/1999/xlink" ffdec:objectType="shape" height="336.5px" width="191.05px" xmlns="http://www.w3.org/2000/svg">
  <g transform="matrix(1.0, 0.0, 0.0, 1.0, 91.2, 82.3)">
    <path d="M99.85 -82.3 L99.85 254.2 -91.2 228.2 -91.2 -82.3 99.85 -82.3" fill="#424242" fill-rule="evenodd" stroke="none"/>
    <path d="M-82.65 -7.8 L-76.15 -7.8 -76.15 -12.8 -82.65 -12.8 -82.65 -71.8 -76.15 -71.8 -76.15 -76.3 62.35 -76.3 62.35 -71.8 66.85 -71.8 66.85 -12.8 63.85 -12.8 63.85 -19.8 6.85 -19.8 6.85 55.7 14.85 55.7 14.85 52.7 9.85 52.7 9.85 -16.8 60.85 -16.8 60.85 52.7 55.85 52.7 55.85 55.7 62.35 55.7 62.35 61.7 66.85 61.7 66.85 135.2 56.85 135.2 56.85 145.2 66.85 145.7 66.85 246.7 -82.65 224.2 -82.65 212.2 -90.7 212.2 -90.7 153.2 -82.65 153.2 -82.65 145.2 -72.65 145.2 -72.65 135.2 -82.65 135.2 -82.65 61.7 -76.15 61.7 -76.15 55.7 -82.65 55.7 -82.65 -7.8" fill="#959595" fill-rule="evenodd" stroke="none"/>
    <path d="M63.85 -7.8 L66.85 -7.8 66.85 55.7 63.85 55.7 63.85 -7.8" fill="#959595" fill-rule="evenodd" stroke="none"/>
    <path d="M-46.15 124.2 Q-46.65 129.2 -47.65 133.7 L-76.65 129.2 Q-75.65 124.2 -75.15 119.2 L-46.15 124.2" fill="#6f6f6f" fill-rule="evenodd" stroke="none"/>
    <path d="M59.35 218.7 L59.35 208.7 66.85 208.7 66.85 218.7 59.35 218.7" fill="#6f6f6f" fill-rule="evenodd" stroke="none"/>
    <path d="M60.85 125.7 L60.85 89.2 66.85 89.2 66.85 125.7 60.85 125.7" fill="#6f6f6f" fill-rule="evenodd" stroke="none"/>
    <path d="M58.85 65.2 L66.85 65.2 66.85 82.7 58.85 82.7 58.85 65.2" fill="#6f6f6f" fill-rule="evenodd" stroke="none"/>
    <path d="M66.85 -20.3 L59.85 -20.3 Q56.35 -22.8 52.35 -25.3 54.35 -26.8 56.35 -28.8 L59.85 -23.8 59.85 -52.3 66.85 -52.3 66.85 -20.3" fill="#6f6f6f" fill-rule="evenodd" stroke="none"/>
    <path d="M-32.65 11.2 L-19.65 2.2 Q-17.15 5.2 -15.15 8.2 L-28.15 17.2 Q-30.15 14.2 -32.65 11.2" fill="#6f6f6f" fill-rule="evenodd" stroke="none"/>
    <path d="M1.35 -6.8 L6.35 -6.8 6.35 -2.8 1.35 -2.8 1.35 -6.8" fill="#6f6f6f" fill-rule="evenodd" stroke="none"/>
    <path d="M-26.65 -6.8 L-21.65 -6.8 -21.65 -2.8 -26.65 -2.8 -26.65 -6.8" fill="#6f6f6f" fill-rule="evenodd" stroke="none"/>
    <path d="M-26.65 54.7 L-26.65 50.7 -21.65 50.7 -21.65 54.7 -26.65 54.7" fill="#6f6f6f" fill-rule="evenodd" stroke="none"/>
    <path d="M1.35 54.7 L1.35 50.7 6.35 50.7 6.35 54.7 1.35 54.7" fill="#6f6f6f" fill-rule="evenodd" stroke="none"/>
    <path d="M63.35 -75.3 L63.35 -69.8 34.85 -69.8 34.85 -75.3 63.35 -75.3" fill="#6f6f6f" fill-rule="evenodd" stroke="none"/>
    <path d="M-1.15 -73.8 L-1.15 -75.8 33.35 -75.8 33.35 -69.8 -0.65 -69.8 -1.65 -66.3 -18.65 -69.3 -17.65 -74.8 -7.15 -74.8 -1.15 -73.8" fill="#6f6f6f" fill-rule="evenodd" stroke="none"/>
    <path d="M-24.15 -74.8 L-24.15 -69.3 -50.65 -69.3 -50.65 -74.8 -24.15 -74.8" fill="#6f6f6f" fill-rule="evenodd" stroke="none"/>
    <path d="M-54.15 -57.3 L-58.65 -54.3 -67.65 -68.3 -63.15 -71.3 -54.15 -57.3" fill="#6f6f6f" fill-rule="evenodd" stroke="none"/>
    <path d="M-76.15 -29.8 L-69.65 -29.8 -69.65 0.2 -76.15 0.2 -76.15 -29.8" fill="#6f6f6f" fill-rule="evenodd" stroke="none"/>
    <path d="M-69.65 -73.3 L-69.65 -43.3 -76.15 -43.3 -76.15 -73.3 -69.65 -73.3" fill="#6f6f6f" fill-rule="evenodd" stroke="none"/>
    <path d="M-79.65 221.7 L-77.65 210.2 -45.65 215.2 -47.65 226.7 -79.65 221.7" fill="#6f6f6f" fill-rule="evenodd" stroke="none"/>
    <path d="M64.35 207.7 L57.85 207.2 Q58.85 196.7 59.35 186.2 L65.35 186.7 64.35 207.7" fill="#6f6f6f" fill-rule="evenodd" stroke="none"/>
    <path d="M64.85 180.2 Q62.35 181.7 59.35 183.2 L48.85 166.2 54.35 163.2 Q59.85 171.7 64.85 180.2" fill="#6f6f6f" fill-rule="evenodd" stroke="none"/>
    <path d="M57.35 135.2 Q55.35 134.7 53.35 133.7 L52.35 129.7 Q53.85 128.2 54.85 126.2 L58.85 126.2 Q60.35 127.7 61.35 129.2 61.35 131.2 60.85 133.2 59.35 134.2 57.35 135.2" fill="#6f6f6f" fill-rule="evenodd" stroke="none"/>
    <path d="M60.35 113.2 L56.35 112.2 55.35 108.2 Q56.85 106.7 57.85 104.7 L61.85 104.2 Q63.35 105.7 64.35 107.2 64.35 109.2 63.85 111.2 L60.35 113.2" fill="#6f6f6f" fill-rule="evenodd" stroke="none"/>
    <path d="M46.35 -19.3 Q44.35 -19.8 42.35 -20.8 L41.35 -24.8 43.85 -27.8 47.85 -28.3 50.35 -25.3 Q50.35 -23.3 49.85 -21.3 L46.35 -19.3" fill="#6f6f6f" fill-rule="evenodd" stroke="none"/>
    <path d="M50.85 -30.8 L47.35 -31.8 Q46.85 -33.8 45.85 -35.8 47.35 -37.3 48.35 -39.3 L52.35 -39.8 54.85 -36.8 Q54.85 -34.8 54.35 -32.8 L50.85 -30.8" fill="#6f6f6f" fill-rule="evenodd" stroke="none"/>
    <path d="M41.35 -38.3 Q39.85 -38.8 37.85 -39.8 L36.85 -43.8 38.85 -46.8 42.85 -47.3 45.85 -44.3 Q45.85 -42.3 45.35 -40.3 L41.35 -38.3" fill="#6f6f6f" fill-rule="evenodd" stroke="none"/>
    <path d="M11.35 -49.3 Q9.35 -49.8 7.35 -50.8 L6.35 -54.8 Q7.85 -56.3 8.85 -57.8 L12.85 -58.3 15.35 -55.3 Q15.35 -53.3 14.85 -51.3 L11.35 -49.3" fill="#6f6f6f" fill-rule="evenodd" stroke="none"/>
    <path d="M52.35 145.2 L49.85 144.2 Q49.85 142.7 49.35 141.2 L50.85 139.2 53.35 139.2 55.35 141.2 Q55.35 142.7 54.85 143.7 53.85 144.7 52.35 145.2" fill="#6f6f6f" fill-rule="evenodd" stroke="none"/>
    <path d="M-72.65 72.7 L-79.15 72.7 -79.15 64.2 -72.65 64.2 -72.65 72.7" fill="#6f6f6f" fill-rule="evenodd" stroke="none"/>
    <path d="M-80.15 -30.8 L-80.15 -39.8 -74.15 -39.8 -74.15 -30.8 -80.15 -30.8" fill="#6f6f6f" fill-rule="evenodd" stroke="none"/>
    <path d="M25.85 -36.8 L20.35 -38.8 Q21.85 -42.3 22.85 -45.8 L28.35 -43.8 Q27.35 -40.3 25.85 -36.8" fill="#6f6f6f" fill-rule="evenodd" stroke="none"/>
    <path d="M11.35 -62.3 L6.85 -62.3 6.85 -68.8 11.35 -68.8 11.35 -62.3" fill="#6f6f6f" fill-rule="evenodd" stroke="none"/>
    <path d="M0.35 -56.8 Q-1.65 -57.8 -4.15 -58.8 L-2.15 -63.8 2.35 -61.8 0.35 -56.8" fill="#6f6f6f" fill-rule="evenodd" stroke="none"/>
    <path d="M40.35 -33.8 L41.85 -31.3 Q40.35 -30.3 38.35 -29.3 L26.35 -20.3 22.85 -26.8 40.35 -33.8" fill="#6f6f6f" fill-rule="evenodd" stroke="none"/>
    <path d="M61.85 -56.8 L50.85 -46.8 40.35 -57.8 Q46.35 -62.8 51.85 -67.8 L61.85 -56.8" fill="#6f6f6f" fill-rule="evenodd" stroke="none"/>
    <path d="M66.85 161.2 L53.35 162.2 Q53.35 154.7 52.85 147.2 L65.85 146.7 66.85 161.2" fill="#6f6f6f" fill-rule="evenodd" stroke="none"/>
    <path d="M-19.15 96.2 L-19.15 118.7 -77.15 118.7 -77.15 76.2 -55.65 76.2 -55.65 96.2 -19.15 96.2" fill="#424242" fill-rule="evenodd" stroke="none"/>
    <path d="M-81.15 118.7 L-81.15 117.7 -75.65 117.7 -75.65 118.7 -81.15 118.7" fill="#424242" fill-rule="evenodd" stroke="none"/>
    <path d="M-81.65 108.7 L-81.65 107.2 -76.15 107.2 -76.15 108.7 -81.65 108.7" fill="#424242" fill-rule="evenodd" stroke="none"/>
    <path d="M-82.65 41.7 L-82.65 3.7 -67.65 3.7 -67.65 41.7 -82.65 41.7" fill="#424242" fill-rule="evenodd" stroke="none"/>
    <path d="M-81.65 97.7 L-81.65 96.2 -76.65 96.2 -76.65 97.7 -81.65 97.7" fill="#424242" fill-rule="evenodd" stroke="none"/>
    <path d="M-56.65 97.2 L-19.15 97.2 -19.15 117.7 -75.65 117.7 -75.65 76.2 -56.65 76.2 -56.65 97.2" fill="#ffffff" fill-rule="evenodd" stroke="none"/>
    <path d="M-69.15 5.2 L-69.15 51.7 -79.65 51.7 -79.65 5.2 -69.15 5.2" fill="#959595" fill-rule="evenodd" stroke="none"/>
    <path d="M-91.2 212.2 L-91.2 153.2 -86.15 153.2 -86.15 212.2 -91.2 212.2" fill="#ffffff" fill-rule="evenodd" stroke="none"/>
  </g>
</svg>
