<?xml version="1.0" encoding="UTF-8" standalone="no"?>
<svg xmlns:ffdec="https://www.free-decompiler.com/flash" xmlns:xlink="http://www.w3.org/1999/xlink" ffdec:objectType="shape" height="661.0px" width="1105.0px" xmlns="http://www.w3.org/2000/svg">
  <g transform="matrix(1.0, 0.0, 0.0, 1.0, 617.95, 266.45)">
    <path d="M88.55 -260.45 L113.55 -258.95 Q114.05 -255.45 114.05 -252.45 L218.05 -261.45 223.05 -200.95 234.05 -201.95 245.05 -73.95 286.05 -77.95 Q289.05 -78.45 291.55 -79.45 L297.55 -84.45 Q299.05 -86.95 300.05 -89.45 L347.05 -218.45 Q380.55 -208.95 414.05 -199.95 448.55 -184.45 482.55 -169.45 454.55 -91.95 426.05 -14.45 417.05 0.05 407.55 14.05 L385.55 36.55 Q371.55 45.55 357.55 54.05 340.55 59.05 323.05 63.55 L257.55 69.05 226.55 155.05 288.05 177.05 Q249.05 286.05 209.55 394.55 L-277.45 216.55 Q-258.45 167.05 -239.95 117.55 -242.95 115.55 -245.95 113.05 L-373.45 123.05 -388.45 121.55 -595.45 47.55 Q-593.95 45.05 -592.95 42.05 -589.45 43.55 -585.95 44.55 -574.45 10.55 -563.45 -23.45 -550.45 -50.95 -537.95 -78.95 L-546.95 -81.95 -545.95 -87.95 Q-453.95 -54.45 -362.45 -21.45 L-356.95 -21.45 -260.45 -29.95 Q-258.45 -32.45 -256.95 -34.95 -261.95 -96.45 -267.45 -157.95 L-258.45 -158.95 Q-259.45 -174.95 -260.95 -190.95 L-268.45 -189.95 Q-268.95 -197.45 -269.95 -204.95 L-262.45 -205.45 -263.45 -219.45 -205.95 -224.45 Q-205.95 -227.95 -206.45 -231.45 L-161.45 -235.45 Q-160.95 -231.95 -160.95 -228.45 L-67.95 -236.45 Q-67.95 -239.95 -68.45 -243.45 L-23.45 -247.45 Q-22.95 -243.95 -22.95 -240.45 L69.05 -248.45 Q69.05 -251.45 68.55 -254.95 78.55 -257.45 88.55 -260.45" fill="#424242" fill-rule="evenodd" stroke="none"/>
    <path d="M88.55 -260.45 L113.55 -258.95 Q114.05 -255.45 114.05 -252.45 L218.05 -261.45 223.05 -200.95 228.55 -201.45 229.55 -194.95 Q234.55 -133.95 239.05 -73.45 L245.55 -68.45 287.55 -71.95 294.05 -73.95 Q298.05 -76.95 302.05 -80.45 304.05 -83.45 305.55 -86.95 L352.55 -216.95 414.05 -199.95 Q448.55 -184.45 482.55 -169.45 L477.05 -171.45 Q449.05 -93.95 420.55 -16.95 L402.55 10.05 382.05 32.05 355.05 48.05 Q338.55 53.05 322.05 57.55 L257.05 63.05 252.05 67.05 Q233.55 119.05 214.55 170.55 L226.05 174.55 230.05 164.55 244.55 170.05 242.55 174.05 240.55 180.05 Q258.05 186.55 275.55 192.55 255.05 249.55 234.05 306.55 L201.55 295.05 Q200.05 300.05 198.05 304.55 L183.55 299.05 Q185.55 294.55 187.05 289.55 L173.05 284.55 Q161.05 318.55 148.55 352.55 L138.05 349.05 135.05 356.05 Q-62.45 284.55 -259.95 212.55 L-256.95 205.05 -264.95 202.05 -232.95 115.55 -246.45 107.05 -372.95 117.05 -386.95 115.55 -408.45 109.55 -585.95 44.55 Q-574.45 10.55 -563.45 -23.45 -550.45 -50.95 -537.95 -78.95 -450.95 -46.95 -364.45 -15.45 -363.95 -14.95 -363.45 -14.95 -362.45 -14.95 -361.95 -15.45 L-356.45 -15.45 -255.95 -24.45 Q-252.95 -27.45 -250.45 -30.95 -255.95 -94.45 -261.95 -158.45 L-258.45 -158.95 Q-259.45 -174.95 -260.95 -190.95 L-268.45 -189.95 Q-268.95 -197.45 -269.95 -204.95 L-262.45 -205.45 -263.45 -219.45 -205.95 -224.45 Q-205.95 -227.95 -206.45 -231.45 L-161.45 -235.45 Q-160.95 -231.95 -160.95 -228.45 L-67.95 -236.45 Q-67.95 -239.95 -68.45 -243.45 L-23.45 -247.45 Q-22.95 -243.95 -22.95 -240.45 L69.05 -248.45 Q69.05 -251.45 68.55 -254.95 78.55 -257.45 88.55 -260.45" fill="#959595" fill-rule="evenodd" stroke="none"/>
    <path d="M194.05 -192.45 L187.05 -192.95 180.55 -197.95 Q180.05 -205.45 179.05 -213.45 L183.05 -213.95 184.05 -199.95 Q186.55 -198.45 188.55 -196.95 L194.55 -196.45 231.05 -198.95 Q231.55 -196.95 231.55 -194.95 L194.05 -192.45" fill="#424242" fill-rule="evenodd" stroke="none"/>
    <path d="M67.55 243.05 Q69.55 238.55 71.05 233.55 L80.55 237.05 Q79.05 242.05 77.05 246.55 L67.55 243.05" fill="#424242" fill-rule="evenodd" stroke="none"/>
    <path d="M50.55 290.05 L53.55 281.05 63.05 284.55 59.55 293.55 Q55.05 292.05 50.55 290.05" fill="#424242" fill-rule="evenodd" stroke="none"/>
    <path d="M10.55 222.55 Q12.55 218.05 14.05 213.05 19.05 215.05 23.55 216.55 22.05 221.55 20.05 226.05 L10.55 222.55" fill="#424242" fill-rule="evenodd" stroke="none"/>
    <path d="M-6.45 269.55 Q-4.45 265.05 -2.95 260.05 1.55 262.05 6.05 263.55 L3.05 273.05 -6.45 269.55" fill="#424242" fill-rule="evenodd" stroke="none"/>
    <path d="M-86.45 187.05 Q-84.45 182.55 -82.95 177.55 L-73.45 181.05 Q-74.95 186.05 -76.95 190.55 L-86.45 187.05" fill="#424242" fill-rule="evenodd" stroke="none"/>
    <path d="M-103.45 234.05 Q-101.45 229.55 -99.95 225.05 L-90.95 228.05 Q-92.45 233.05 -94.45 237.55 L-103.45 234.05" fill="#424242" fill-rule="evenodd" stroke="none"/>
    <path d="M-143.45 166.55 Q-141.45 162.05 -139.95 157.05 L-130.45 160.55 Q-131.95 165.55 -133.95 170.05 L-143.45 166.55" fill="#424242" fill-rule="evenodd" stroke="none"/>
    <path d="M-160.45 213.55 Q-158.45 209.05 -156.95 204.05 L-147.45 207.55 Q-148.95 212.55 -150.95 217.05 L-160.45 213.55" fill="#424242" fill-rule="evenodd" stroke="none"/>
    <path d="M57.05 -174.95 L67.05 -175.95 68.05 -165.95 58.05 -164.95 57.05 -174.95" fill="#424242" fill-rule="evenodd" stroke="none"/>
    <path d="M72.55 -115.95 L62.55 -114.95 61.55 -124.95 71.55 -125.95 72.55 -115.95" fill="#424242" fill-rule="evenodd" stroke="none"/>
    <path d="M15.55 -170.95 L16.55 -160.95 6.55 -160.45 5.55 -170.45 15.55 -170.95" fill="#424242" fill-rule="evenodd" stroke="none"/>
    <path d="M20.55 -110.95 L10.55 -110.45 Q10.55 -115.45 10.05 -120.45 L20.05 -120.95 Q20.55 -115.95 20.55 -110.95" fill="#424242" fill-rule="evenodd" stroke="none"/>
    <path d="M-84.45 -152.95 L-85.45 -162.95 -75.45 -163.95 -74.45 -153.95 -84.45 -152.95" fill="#424242" fill-rule="evenodd" stroke="none"/>
    <path d="M-80.95 -112.95 L-70.95 -113.95 Q-70.45 -108.95 -70.45 -103.95 L-80.45 -102.95 Q-80.45 -107.95 -80.95 -112.95" fill="#424242" fill-rule="evenodd" stroke="none"/>
    <path d="M-134.45 -148.45 L-135.45 -158.45 -125.45 -158.95 -124.45 -148.95 -134.45 -148.45" fill="#424242" fill-rule="evenodd" stroke="none"/>
    <path d="M-130.95 -108.45 L-120.95 -108.95 Q-120.45 -103.95 -120.45 -98.95 L-130.45 -98.45 Q-130.45 -103.45 -130.95 -108.45" fill="#424242" fill-rule="evenodd" stroke="none"/>
    <path d="M6.55 -208.45 Q7.05 -204.45 7.05 -200.95 L63.55 -205.95 Q63.55 -209.45 63.05 -213.45 L71.05 -213.95 72.05 -206.95 148.05 -213.45 Q148.05 -216.95 147.55 -220.95 L155.55 -221.45 Q157.55 -205.45 159.05 -189.95 L156.05 -189.95 154.05 -210.95 -236.45 -176.95 -234.45 -155.45 -237.45 -155.45 -239.45 -179.45 -237.95 -179.45 -237.95 -179.95 Q-237.95 -183.45 -238.45 -186.95 L-229.95 -187.95 Q-229.45 -183.95 -229.45 -180.45 L-144.45 -187.95 Q-144.45 -191.45 -144.95 -195.45 L-136.95 -195.95 Q-136.45 -191.95 -136.45 -188.45 L-78.95 -193.45 -79.95 -200.95 -71.45 -201.45 Q-70.95 -197.95 -70.95 -194.45 L-0.95 -200.45 -1.95 -207.95 6.55 -208.45" fill="#424242" fill-rule="evenodd" stroke="none"/>
    <path d="M35.05 -80.95 Q35.05 -83.45 34.55 -85.95 L36.55 -90.45 40.55 -93.45 46.05 -93.95 50.55 -91.95 54.05 -87.45 54.05 -82.45 52.05 -77.95 47.55 -74.95 42.55 -74.45 38.05 -76.45 35.05 -80.95" fill="#424242" fill-rule="evenodd" stroke="none"/>
    <path d="M-95.95 -80.45 Q-93.45 -79.45 -91.45 -78.45 L-88.45 -74.45 Q-87.95 -71.45 -87.95 -68.95 L-89.95 -64.45 Q-91.95 -62.45 -94.45 -60.95 L-99.45 -60.95 Q-101.45 -61.95 -103.95 -62.95 L-107.45 -67.45 -107.45 -72.45 -105.45 -76.95 -100.95 -79.95 -95.95 -80.45" fill="#424242" fill-rule="evenodd" stroke="none"/>
    <path d="M-86.95 109.55 Q-84.45 110.55 -82.45 111.55 L-79.45 115.55 Q-78.95 118.55 -78.95 121.05 L-80.95 125.55 -84.95 129.05 -90.45 129.05 Q-92.45 128.05 -94.95 127.05 L-98.45 122.55 -98.45 117.55 -96.45 113.05 -92.45 110.05 -86.95 109.55" fill="#424242" fill-rule="evenodd" stroke="none"/>
    <path d="M76.55 170.05 Q77.05 172.55 77.05 175.05 L75.05 179.55 70.55 182.55 65.55 183.05 61.05 181.05 57.55 176.55 57.55 171.55 59.55 167.05 64.05 164.05 69.05 163.55 73.55 165.55 76.55 170.05" fill="#424242" fill-rule="evenodd" stroke="none"/>
    <path d="M95.55 102.55 L99.05 106.55 99.05 112.05 97.05 116.55 Q95.05 118.55 92.55 120.05 L87.55 120.05 83.05 118.05 80.05 114.05 Q80.05 111.55 79.55 108.55 L81.55 104.05 85.55 100.55 91.05 100.55 95.55 102.55" fill="#424242" fill-rule="evenodd" stroke="none"/>
    <path d="M361.55 -196.95 Q356.55 -194.95 351.55 -193.45 348.05 -189.95 344.55 -186.95 342.55 -187.45 340.05 -188.45 345.55 -202.95 350.55 -217.45 L375.55 -208.45 371.55 -198.45 361.55 -196.95" fill="#6f6f6f" fill-rule="evenodd" stroke="none"/>
    <path d="M455.55 -162.45 L448.55 -170.45 Q450.55 -175.45 452.05 -180.45 L477.05 -171.45 466.05 -142.45 Q464.05 -142.95 461.55 -143.95 L460.55 -153.95 Q458.05 -157.95 455.55 -162.45" fill="#6f6f6f" fill-rule="evenodd" stroke="none"/>
    <path d="M-524.45 -65.45 Q-529.95 -62.95 -535.45 -60.95 L-540.95 -62.45 Q-538.45 -69.95 -536.45 -77.95 -522.95 -72.95 -509.95 -68.45 -510.45 -65.95 -511.45 -63.95 L-516.95 -64.95 -524.45 -65.45" fill="#6f6f6f" fill-rule="evenodd" stroke="none"/>
    <path d="M-553.95 51.05 Q-554.45 53.55 -555.45 55.55 L-581.95 46.05 -575.95 31.05 -569.95 33.55 -564.45 44.05 Q-558.95 47.55 -553.95 51.05" fill="#6f6f6f" fill-rule="evenodd" stroke="none"/>
    <path d="M-574.95 -86.95 Q-573.95 -88.95 -573.45 -91.45 L-546.95 -81.95 -552.95 -66.95 Q-555.95 -67.95 -558.95 -69.45 L-563.95 -79.95 -574.95 -86.95" fill="#6f6f6f" fill-rule="evenodd" stroke="none"/>
    <path d="M-592.45 25.05 L-586.95 27.05 Q-588.95 35.05 -591.45 42.55 L-617.95 32.55 Q-616.95 30.55 -616.45 28.05 L-610.95 29.05 -603.45 29.55 Q-597.95 27.55 -592.45 25.05" fill="#6f6f6f" fill-rule="evenodd" stroke="none"/>
    <path d="M216.55 300.05 Q208.05 297.05 199.05 293.55 L204.05 280.05 Q213.05 283.55 221.55 286.55 L216.55 300.05" fill="#6f6f6f" fill-rule="evenodd" stroke="none"/>
    <path d="M240.05 289.05 L226.55 284.05 235.55 259.55 249.05 264.55 240.05 289.05" fill="#6f6f6f" fill-rule="evenodd" stroke="none"/>
    <path d="M250.05 261.55 L236.55 256.55 245.55 232.05 259.05 237.05 250.05 261.55" fill="#6f6f6f" fill-rule="evenodd" stroke="none"/>
    <path d="M260.55 235.05 Q253.55 232.55 246.05 229.55 249.55 221.05 252.55 212.55 260.05 215.55 267.05 218.05 264.05 226.55 260.55 235.05" fill="#6f6f6f" fill-rule="evenodd" stroke="none"/>
    <path d="M-532.95 -82.95 Q-557.45 -14.95 -582.45 52.55 L-595.45 47.55 Q-593.95 45.05 -592.95 42.05 L-545.95 -87.95 -532.95 -82.95" fill="#ffffff" fill-rule="evenodd" stroke="none"/>
    <path d="M347.05 -218.45 Q349.55 -224.95 351.55 -231.45 L487.05 -182.45 Q485.05 -175.95 482.55 -169.45 L347.05 -218.45" fill="#ffffff" fill-rule="evenodd" stroke="none"/>
    <path d="M68.05 -262.45 L113.05 -266.45 Q113.55 -262.45 113.55 -258.95 L68.55 -254.95 Q68.55 -258.45 68.05 -262.45" fill="#ffffff" fill-rule="evenodd" stroke="none"/>
  </g>
</svg>
