<?xml version="1.0" encoding="UTF-8" standalone="no"?>
<svg xmlns:ffdec="https://www.free-decompiler.com/flash" xmlns:xlink="http://www.w3.org/1999/xlink" ffdec:objectType="shape" height="765.0px" width="1652.0px" xmlns="http://www.w3.org/2000/svg">
  <g transform="matrix(1.0, 0.0, 0.0, 1.0, 828.0, 566.0)">
    <path d="M824.0 -490.0 L824.0 199.0 -828.0 199.0 -828.0 -490.0 -151.5 -490.0 -151.5 -566.0 148.5 -566.0 148.5 -490.0 824.0 -490.0" fill="#434343" fill-rule="evenodd" stroke="none"/>
    <path d="M-125.0 -144.0 L-147.0 -144.0 -147.0 -115.0 -125.0 -115.0 -125.0 -144.0 M146.0 -115.0 L146.0 -144.0 122.0 -144.0 122.0 -115.0 146.0 -115.0 M-412.0 -144.0 L-412.0 -115.0 -388.0 -115.0 -388.0 -144.0 -412.0 -144.0 M-412.0 -339.0 L-388.0 -339.0 -388.0 -367.0 -412.0 -367.0 -412.0 -339.0 M122.0 -367.0 L122.0 -339.0 146.0 -339.0 146.0 -367.0 122.0 -367.0 M-125.0 -367.0 L-147.0 -367.0 -147.0 -339.0 -125.0 -339.0 -125.0 -367.0 M410.0 -144.0 L389.0 -144.0 389.0 -115.0 410.0 -115.0 410.0 -144.0 M807.0 -476.0 L807.0 -472.0 811.0 -472.0 811.0 -372.0 807.0 -372.0 807.0 -367.0 789.0 -367.0 789.0 -339.0 810.0 -339.0 810.0 -144.0 789.0 -144.0 789.0 -115.0 807.0 -115.0 807.0 -109.0 814.5 -109.0 814.5 -17.0 807.0 -17.0 807.0 -14.0 122.5 -14.0 122.5 17.65 262.3 17.65 262.3 61.0 269.5 61.0 269.5 76.5 275.0 76.5 275.0 109.0 269.5 109.0 269.5 123.0 262.3 123.0 262.3 167.0 124.0 167.0 124.0 192.0 42.8 192.0 42.8 176.0 -43.0 176.0 -43.0 191.0 -124.2 191.0 -124.2 167.0 -261.7 167.0 -261.7 123.0 -269.7 123.0 -269.7 109.0 -276.5 109.0 -276.5 76.5 -269.7 76.5 -269.7 61.0 -261.7 61.0 -261.7 17.65 -124.7 17.65 -124.7 -14.0 -810.7 -14.0 -810.7 -17.0 -818.0 -17.0 -818.0 -109.0 -810.7 -109.0 -810.7 -115.0 -788.7 -115.0 -788.7 -144.0 -810.7 -144.0 -810.7 -339.0 -788.7 -339.0 -788.7 -367.0 -810.7 -367.0 -810.7 -372.0 -817.0 -372.0 -817.0 -472.0 -810.7 -472.0 -810.7 -476.0 -121.0 -476.0 -121.0 -538.0 -95.0 -538.0 -95.0 -550.0 92.0 -550.0 92.0 -538.0 120.0 -538.0 120.0 -476.0 807.0 -476.0 M410.0 -367.0 L389.0 -367.0 389.0 -339.0 410.0 -339.0 410.0 -367.0" fill="#969696" fill-rule="evenodd" stroke="none"/>
    <path d="M329.0 65.0 L329.0 122.0 275.0 122.0 275.0 65.0 329.0 65.0" fill="#ffffff" fill-rule="evenodd" stroke="none"/>
    <path d="M-276.5 65.0 L-276.5 121.0 -331.5 121.0 -331.5 65.0 -276.5 65.0" fill="#ffffff" fill-rule="evenodd" stroke="none"/>
  </g>
</svg>
