<?xml version="1.0" encoding="UTF-8" standalone="no"?>
<svg xmlns:ffdec="https://www.free-decompiler.com/flash" xmlns:xlink="http://www.w3.org/1999/xlink" ffdec:objectType="shape" height="852.0px" width="750.5px" xmlns="http://www.w3.org/2000/svg">
  <g transform="matrix(1.0, 0.0, 0.0, 1.0, 677.75, -24.0)">
    <path d="M-305.0 875.75 Q-304.75 875.25 -304.75 874.5 L-303.5 874.75 Q-303.5 875.5 -303.75 876.0 L-305.0 875.75" fill="#424242" fill-rule="evenodd" stroke="none"/>
    <path d="M-346.25 865.0 L-347.25 864.5 -347.0 863.5 -345.75 863.75 -346.25 865.0" fill="#424242" fill-rule="evenodd" stroke="none"/>
    <path d="M-343.5 865.5 Q-343.25 865.0 -343.25 864.25 L-342.0 864.5 Q-342.0 865.25 -342.25 865.75 L-343.5 865.5" fill="#424242" fill-rule="evenodd" stroke="none"/>
    <path d="M-308.75 874.5 L-310.0 874.5 Q-309.75 874.0 -309.75 873.25 L-308.75 873.25 -308.75 874.5" fill="#424242" fill-rule="evenodd" stroke="none"/>
    <path d="M54.0 264.0 L57.5 265.0 56.5 268.25 53.0 267.5 54.0 264.0" fill="#424242" fill-rule="evenodd" stroke="none"/>
    <path d="M-178.5 469.0 Q-178.5 469.75 -178.75 470.25 L-180.0 469.75 -179.75 468.75 -178.5 469.0" fill="#424242" fill-rule="evenodd" stroke="none"/>
    <path d="M-176.25 469.5 L-176.75 470.75 -177.75 470.5 Q-177.5 470.0 -177.5 469.25 L-176.25 469.5" fill="#424242" fill-rule="evenodd" stroke="none"/>
    <path d="M-164.5 642.5 L-163.25 642.75 -163.75 644.0 -165.0 643.75 -164.5 642.5" fill="#424242" fill-rule="evenodd" stroke="none"/>
    <path d="M-253.25 724.75 L-248.75 707.0 -198.75 720.0 -203.25 737.5 -253.25 724.75" fill="#424242" fill-rule="evenodd" stroke="none"/>
    <path d="M-370.25 671.75 L-374.75 687.0 -422.0 673.0 -417.5 657.75 -370.25 671.75" fill="#424242" fill-rule="evenodd" stroke="none"/>
    <path d="M-54.75 420.75 L-62.75 450.0 -75.25 446.5 -67.5 417.5 -54.75 420.75" fill="#424242" fill-rule="evenodd" stroke="none"/>
    <path d="M-83.5 476.5 L-75.75 447.5 -63.0 451.0 -70.75 480.0 -83.5 476.5" fill="#424242" fill-rule="evenodd" stroke="none"/>
    <path d="M-320.5 396.25 Q-322.0 402.5 -323.75 408.75 L-353.0 401.0 -349.5 388.25 -320.5 396.25" fill="#424242" fill-rule="evenodd" stroke="none"/>
    <path d="M-11.75 260.5 L-19.75 289.5 -32.5 286.25 -24.5 257.0 -11.75 260.5" fill="#424242" fill-rule="evenodd" stroke="none"/>
    <path d="M-40.75 316.25 L-32.75 287.25 -20.0 290.75 -27.75 319.75 -40.75 316.25" fill="#424242" fill-rule="evenodd" stroke="none"/>
    <path d="M37.5 75.5 L29.75 104.5 17.0 101.25 24.75 72.0 37.5 75.5" fill="#424242" fill-rule="evenodd" stroke="none"/>
    <path d="M21.75 134.75 L8.75 131.25 16.5 102.25 29.5 105.75 21.75 134.75" fill="#424242" fill-rule="evenodd" stroke="none"/>
    <path d="M-328.5 75.25 L-325.0 62.5 -296.0 70.25 Q-297.5 76.75 -299.25 83.0 L-328.5 75.25" fill="#424242" fill-rule="evenodd" stroke="none"/>
    <path d="M-265.75 78.25 L-269.25 91.25 -298.25 83.5 -294.75 70.5 -265.75 78.25" fill="#424242" fill-rule="evenodd" stroke="none"/>
    <path d="M-298.75 173.5 L-301.75 184.0 -312.5 181.25 -309.5 170.75 -298.75 173.5" fill="#424242" fill-rule="evenodd" stroke="none"/>
    <path d="M-348.0 355.5 L-351.0 366.0 -361.75 363.0 -359.0 352.5 -348.0 355.5" fill="#424242" fill-rule="evenodd" stroke="none"/>
    <path d="M-400.25 638.0 Q-400.0 637.5 -400.0 636.75 L-422.25 630.75 -422.75 632.0 -400.25 638.0 M-399.25 634.0 L-397.5 628.0 -425.25 620.5 -426.75 626.0 -421.5 627.25 -421.5 628.0 -399.25 634.0 M-388.0 645.5 L-386.5 644.75 -398.25 641.5 Q-399.25 645.75 -400.5 649.75 L-400.5 650.75 -399.25 651.75 -391.75 653.75 -389.75 647.5 -388.0 645.5 M-383.75 647.0 L-384.75 646.75 -386.0 647.0 -387.25 648.25 Q-388.0 651.5 -389.0 654.5 L-387.25 655.0 -385.25 648.75 -383.75 647.0 M-379.5 648.5 L-379.5 648.25 -380.0 648.0 -381.75 648.5 -383.0 649.75 -384.5 655.75 -382.5 656.25 -380.5 649.5 -379.5 648.5 M-386.75 641.75 L-386.25 640.25 -397.25 637.5 Q-397.25 638.25 -397.5 638.75 L-386.75 641.75 M-384.25 636.5 L-391.0 629.75 -395.0 628.75 -396.5 634.75 -385.5 637.75 -384.75 637.75 -384.25 636.5 M-412.5 560.0 L-413.75 559.75 -415.25 565.25 -414.0 565.5 -412.5 560.0 M-403.25 560.0 L-403.75 562.25 -408.75 561.0 -410.25 566.0 -375.0 575.25 -366.0 572.75 -365.75 571.75 -366.75 571.5 -366.25 570.0 -403.25 560.0 M-351.0 502.5 Q-350.0 499.75 -349.25 496.75 L-347.5 494.75 -346.5 494.25 -346.5 493.75 -358.0 490.75 -360.0 498.5 -360.0 499.75 -358.75 500.5 -351.0 502.5 M-357.25 488.0 L-346.25 490.75 -345.75 489.5 -356.75 486.5 -357.25 488.0 M-366.5 474.75 L-368.25 480.75 -358.75 483.25 Q-357.75 480.25 -357.0 477.0 L-366.5 474.75 M-359.5 485.75 L-368.75 483.5 -369.25 484.75 -359.75 487.25 Q-359.5 486.5 -359.5 485.75 M-372.75 479.5 L-371.25 473.25 -384.75 469.75 -386.25 474.75 -381.0 476.25 -381.25 477.25 -372.75 479.5 M-382.0 479.75 Q-382.0 480.5 -382.25 481.25 L-374.0 483.5 -373.5 482.0 -382.0 479.75 M-133.75 532.75 L-135.25 532.5 -137.75 542.0 -135.75 542.5 -130.75 523.75 -132.75 523.25 -133.75 527.0 -132.5 527.25 -133.75 532.75 M-251.75 679.75 L-250.25 680.0 Q-245.5 662.75 -241.0 645.25 L-242.5 644.75 -251.75 679.75 M-319.25 662.0 L-317.5 662.5 -316.5 659.25 -318.25 659.0 -319.25 662.0 M-308.5 661.5 Q-308.75 663.25 -309.25 664.75 L-294.5 668.75 -293.75 665.5 -308.5 661.5 M-312.5 664.0 L-311.5 660.75 -313.5 660.25 -314.25 663.5 -312.5 664.0 M-322.25 661.25 L-321.5 658.0 -328.25 656.25 -329.0 659.5 -322.25 661.25 M-307.25 580.75 L-308.25 584.5 -274.5 593.5 -273.5 589.5 -307.25 580.75 M-338.75 497.5 L-339.25 497.25 -341.25 497.75 -342.5 499.0 -344.0 504.5 -341.75 505.0 -340.0 498.75 -338.75 497.5 M-344.75 498.25 L-343.25 496.25 -344.25 496.0 -345.5 496.25 -346.75 497.5 Q-347.5 500.5 -348.5 503.25 L-346.5 503.75 -344.75 498.25 M-259.0 535.5 L-256.25 525.75 -317.75 509.5 -317.5 509.25 -323.5 507.5 -326.0 517.5 -259.0 535.5 M-278.0 507.75 Q-278.25 509.25 -278.75 510.5 L-276.25 511.0 -275.5 508.25 -278.0 507.75 M-270.75 509.75 L-273.0 509.0 Q-273.25 510.5 -273.75 511.75 L-271.5 512.5 -270.75 509.75 M-286.25 505.5 Q-286.5 507.0 -287.0 508.25 L-281.0 509.75 Q-280.5 508.5 -280.25 507.0 L-286.25 505.5 M-253.25 514.25 L-268.25 510.25 -269.75 515.75 -254.75 519.75 -253.25 514.25 M-150.75 590.25 L-149.75 590.5 -151.25 595.75 -152.0 595.5 -154.5 604.25 -152.5 604.75 -149.5 592.75 -149.25 593.0 -138.75 553.0 -140.5 552.5 -150.75 590.25 M-223.5 579.5 L-224.75 579.25 -239.25 633.0 -237.75 633.5 -223.5 579.5 M-220.75 580.25 L-221.5 580.0 -236.0 634.0 -235.25 634.0 -220.75 580.25 M-222.5 571.0 L-221.75 571.0 Q-222.0 572.5 -222.5 573.75 L-222.0 574.0 -219.75 565.5 -221.0 565.25 -222.5 571.0 M-200.5 570.75 L-211.75 567.75 -221.75 605.5 -216.25 607.0 -214.75 601.75 -209.25 603.25 -200.5 570.75 M-217.0 566.25 L-217.75 566.0 -220.0 574.5 -219.5 574.75 -217.0 566.25 M-189.0 461.5 L-189.75 461.25 -215.0 555.5 -214.25 555.75 -189.0 461.5 M-191.5 460.75 L-193.0 460.25 Q-199.25 484.25 -205.75 508.25 L-205.25 508.5 Q-205.75 511.25 -206.5 513.75 L-207.25 513.75 -218.25 554.75 -216.75 555.0 -191.5 460.75 M-158.0 412.5 L-169.25 409.5 -208.75 557.25 -197.75 560.25 -173.5 469.75 -178.0 468.5 -176.75 463.25 -183.0 461.5 -181.25 455.25 -170.25 458.25 Q-164.0 435.5 -158.0 412.5 M-174.75 408.0 L-175.25 407.75 -188.25 455.75 -187.5 456.0 Q-181.0 432.0 -174.75 408.0 M-177.25 407.25 L-178.75 407.0 -190.75 452.0 -190.0 452.25 -190.75 455.0 -190.0 455.25 -177.25 407.25 M-170.5 392.25 L-171.25 392.25 -172.5 397.25 -172.0 397.5 -170.5 392.25 M-173.0 391.75 L-174.5 391.25 -175.5 395.25 -174.75 395.5 Q-174.75 396.25 -175.0 396.75 L-174.5 396.75 -173.0 391.75 M-246.75 437.75 L-247.0 438.75 -235.5 442.0 -234.75 440.0 -233.5 440.5 -233.0 438.75 -269.5 429.0 -270.0 431.5 -246.75 437.75 M-344.5 486.5 L-344.0 484.5 -347.75 479.5 -354.5 477.75 -356.0 484.0 -345.25 486.75 -345.0 486.5 -344.5 486.5 M-333.5 424.25 L-325.5 421.5 -325.0 419.75 -326.0 419.5 -325.75 419.5 -363.0 409.5 -363.0 410.25 -368.5 408.75 -370.0 414.5 -333.5 424.25 M-323.75 381.5 L-322.5 376.5 -339.25 372.0 -340.5 377.0 -323.75 381.5 M-295.0 389.25 L-294.75 388.25 -316.5 382.25 -315.5 378.25 -316.0 378.25 -317.5 383.25 -295.0 389.25 M-253.0 392.75 L-253.5 395.0 -261.0 393.0 -262.5 398.0 -224.75 408.0 -222.75 400.75 -253.0 392.75 M-248.75 377.25 L-249.5 379.5 -219.5 387.5 Q-219.0 386.25 -218.75 384.75 L-218.5 384.75 -217.75 382.25 -225.75 383.5 -248.75 377.25 M-332.75 320.0 L-335.5 319.5 -336.75 324.75 -334.25 325.5 -332.75 320.0 M-119.0 476.5 L-118.25 476.75 -116.75 471.75 -118.75 471.25 -118.75 471.5 -117.75 471.75 -119.25 477.25 -120.25 476.75 -127.75 504.75 -125.75 505.25 -125.5 504.25 -126.75 504.0 Q-125.5 499.75 -124.5 495.5 L-123.25 495.75 -119.75 482.25 -120.5 482.0 -119.0 476.5 M-96.0 393.75 L-97.75 393.25 -103.5 414.5 -102.75 414.75 -104.25 420.25 -105.0 420.0 -118.5 470.5 -116.75 471.0 -97.5 399.5 -98.25 399.25 Q-97.5 397.25 -97.0 395.0 L-96.5 395.25 -96.0 393.75 M-88.25 365.25 L-90.25 364.75 -95.0 382.5 -93.25 383.0 -88.25 365.25 M-141.25 283.0 L-141.75 282.75 -167.0 376.5 -166.25 376.5 -141.25 283.0 M-135.0 259.75 L-135.5 259.5 Q-138.0 269.0 -140.75 278.25 L-140.0 278.5 -135.0 259.75 M-139.0 258.75 Q-139.25 260.75 -139.75 262.5 L-140.0 262.5 Q-142.75 273.25 -145.75 284.0 L-145.25 284.25 -146.75 290.0 -147.25 290.0 Q-152.75 311.0 -158.5 332.0 L-157.5 332.25 -167.5 369.0 -168.5 368.75 Q-169.75 374.25 -171.25 379.5 L-171.0 379.5 -170.0 375.5 -168.75 376.0 -143.75 282.25 -144.75 282.0 -143.5 277.5 -142.5 277.75 -137.5 259.0 -139.0 258.75 M-51.5 227.5 L-53.25 227.0 Q-56.0 237.5 -59.0 247.75 L-57.75 248.0 -59.25 253.75 -60.5 253.5 -74.0 303.75 -73.0 304.0 -74.5 309.5 -75.25 309.25 -84.75 344.0 -82.75 344.5 -82.25 343.0 -83.5 342.75 Q-82.25 338.5 -81.25 334.25 L-80.0 334.5 -71.5 302.5 -72.5 302.25 -71.0 296.75 -70.0 297.0 -51.5 227.5 M-44.0 200.0 L-46.0 199.5 -50.5 216.5 -48.5 217.0 -44.0 200.0 M-110.5 235.0 L-121.75 232.0 Q-124.5 242.75 -127.5 253.25 L-125.75 253.75 -124.5 253.0 -122.0 253.75 -120.75 256.25 -121.5 258.75 Q-122.5 259.5 -123.75 260.0 L-126.25 259.25 -126.5 258.75 -128.75 258.0 Q-132.75 273.5 -137.0 288.75 L-128.25 291.0 Q-129.0 294.25 -130.0 297.25 L-138.5 295.0 -163.0 386.0 -161.0 386.5 -159.75 385.75 -157.25 386.5 -156.0 389.0 -156.75 391.5 Q-157.75 392.25 -159.0 392.75 L-161.5 392.0 -161.75 391.5 -164.25 390.75 Q-165.25 395.0 -166.5 399.0 L-155.25 402.0 -126.75 295.5 -127.0 295.25 -125.5 289.75 -125.25 289.75 -111.75 240.0 -112.0 240.0 -110.5 235.0 M-131.25 234.5 L-132.25 234.25 -135.75 246.75 -134.25 247.25 -129.75 229.75 -130.0 229.75 Q-130.5 232.25 -131.25 234.5 M-127.25 230.5 L-127.75 230.25 -132.5 247.75 -131.75 247.75 -127.25 230.5 M-119.25 186.25 L-119.5 186.0 Q-123.75 202.5 -128.25 219.0 L-127.0 219.25 -116.25 179.25 -117.5 179.0 Q-118.25 182.75 -119.25 186.25 M-102.5 205.25 L-107.25 204.0 -106.25 201.0 -107.0 200.75 Q-106.5 199.5 -106.25 198.0 L-105.5 198.25 -105.5 197.25 -100.75 198.5 -87.75 150.0 -98.75 147.0 -118.75 221.5 -107.75 224.5 Q-105.0 215.0 -102.5 205.25 M-100.75 131.5 L-101.25 131.5 -125.0 219.75 -124.25 220.0 -100.75 131.5 M-101.0 121.5 L-102.0 121.25 -104.5 130.5 -112.75 161.5 -111.5 161.75 Q-107.25 146.5 -103.25 131.0 L-104.5 130.5 -103.0 125.5 -101.75 125.75 -100.0 118.75 -100.25 118.75 -101.0 121.5 M-97.5 119.5 L-98.0 119.25 -100.0 126.25 -99.25 126.5 Q-98.25 123.0 -97.5 119.5 M-86.0 143.75 L-80.75 124.0 -92.0 121.0 Q-94.5 131.0 -97.25 140.75 L-86.0 143.75 M-89.0 110.5 L-76.5 113.5 Q-69.0 85.5 -61.75 57.5 L-62.75 57.25 -62.0 55.0 -73.5 52.0 -89.0 110.5 M-59.25 58.25 Q-66.5 86.0 -74.0 113.5 L-29.75 125.25 -14.75 67.5 -56.5 56.5 Q-56.75 57.75 -57.25 58.75 L-59.25 58.25 M-79.75 53.25 L-80.25 53.25 -95.25 108.75 -94.5 109.0 Q-87.0 81.25 -79.75 53.25 M-82.25 52.75 L-83.5 52.25 -91.0 79.75 -90.5 79.75 -92.0 85.25 -92.5 85.25 -98.5 108.0 -97.25 108.25 -82.25 52.75 M-10.0 72.5 L-11.75 72.0 -26.5 127.0 -24.75 127.5 -26.25 133.0 -28.0 132.5 -40.5 178.75 -38.5 179.25 -38.0 177.75 -38.25 177.75 -36.0 169.25 -35.75 169.25 -30.75 150.5 -31.5 150.5 -30.25 146.25 -29.75 146.5 -10.0 72.5 M-223.5 220.75 L-224.25 223.75 -178.75 236.0 Q-176.25 227.5 -174.0 218.75 L-203.5 210.75 Q-203.75 212.0 -204.25 213.0 L-217.25 209.5 -218.5 214.0 -176.0 225.5 -178.0 232.75 -223.5 220.75 M-199.5 195.5 L-200.0 197.75 -170.5 205.75 -169.0 200.25 -173.25 202.5 -199.5 195.5 M-291.25 194.5 L-274.5 199.0 -273.25 194.5 -290.0 190.0 -291.25 194.5 M-617.5 30.75 L-622.0 30.75 -622.0 31.75 -622.75 31.75 -622.75 38.25 -616.0 38.25 -616.0 31.75 -617.5 31.75 -617.5 30.75 M-594.75 27.5 L-594.75 24.0 -591.0 24.0 -591.0 27.5 -404.75 27.5 -404.75 28.0 -404.5 27.75 -260.0 66.25 -259.0 63.25 -170.5 87.0 -171.0 88.75 -141.25 96.5 -124.5 34.0 -124.0 34.0 -118.25 35.5 -118.25 35.75 -77.75 46.75 -78.0 48.25 -61.5 52.5 Q-61.25 52.0 -61.25 51.5 L-55.75 53.0 -56.0 54.0 -14.25 65.25 -12.75 62.25 -9.5 63.25 -10.25 66.0 -3.5 68.0 -5.25 73.75 -6.5 73.5 -26.25 147.5 -26.0 147.5 Q-27.75 154.0 -29.75 160.25 L-7.5 166.25 -7.75 166.75 17.0 173.5 18.25 174.5 19.25 175.75 19.0 177.5 18.0 179.5 16.75 180.25 15.25 180.25 -9.5 173.5 -10.25 176.25 -6.75 177.0 -9.0 185.5 -12.5 184.75 -17.0 201.75 -15.0 202.25 -20.0 221.25 -22.0 220.75 -22.5 222.25 -44.75 216.25 -45.25 217.75 -23.25 223.75 -22.75 222.5 -19.5 223.5 Q-19.5 224.25 -19.75 224.75 L-7.75 228.0 -7.5 227.25 -5.0 227.75 Q-5.0 228.25 -5.25 228.5 L58.5 245.5 58.5 245.0 61.0 245.75 60.75 246.25 70.5 248.75 70.25 249.5 71.5 250.0 72.25 251.0 72.0 252.25 71.5 252.5 71.25 254.0 72.75 254.5 69.25 267.5 63.5 266.0 65.5 258.75 57.75 256.75 57.5 257.5 55.25 257.0 55.25 256.25 -8.0 239.25 -8.0 240.0 -10.5 239.25 Q-10.25 239.0 -10.25 238.5 L-22.75 235.25 -23.0 236.25 -26.25 235.25 -26.0 234.25 -48.0 228.5 -48.75 231.0 -46.5 231.5 -47.5 236.0 -49.75 235.25 Q-58.0 266.75 -66.5 298.0 L-65.5 298.25 -67.0 303.75 -68.0 303.5 -74.0 325.5 -52.75 331.25 -52.75 331.75 -28.25 338.25 -26.0 340.75 -26.25 342.5 -27.25 344.5 -28.5 345.25 -30.0 345.25 -54.75 338.5 -55.5 341.0 -52.0 342.0 -54.25 350.5 -57.75 349.5 -62.25 366.5 -60.0 367.0 -65.25 386.25 -67.25 385.75 -67.75 387.25 -89.0 381.5 -89.75 384.0 -67.75 390.0 -67.25 388.25 -63.75 389.25 -64.25 390.75 -52.25 394.0 Q-52.0 393.5 -52.0 392.75 L-49.5 393.5 Q-49.5 394.25 -49.75 394.75 L14.0 411.75 14.25 410.75 16.5 411.25 16.25 412.5 26.25 415.0 26.25 415.25 27.25 415.5 27.75 416.75 27.5 418.0 27.25 418.25 26.75 419.75 28.25 420.25 24.75 433.0 19.25 431.75 21.0 425.0 13.25 423.0 13.25 423.25 10.75 422.5 10.75 422.25 -52.5 405.25 -52.5 405.5 -55.0 405.0 -54.75 404.75 -67.25 401.5 -67.25 401.75 -70.75 401.0 -70.5 400.5 -92.5 394.5 -93.0 396.25 -91.75 396.5 -92.75 400.75 -94.0 400.5 -114.5 476.5 -111.5 477.25 -113.0 482.75 -113.5 482.5 Q-112.75 480.25 -112.25 477.75 L-114.5 477.0 Q-114.5 477.5 -114.75 477.75 L-113.5 478.0 -115.0 483.5 -116.25 483.25 -117.25 486.75 -96.0 492.5 -96.0 493.0 -71.5 499.5 -69.25 502.0 Q-69.25 503.0 -69.5 503.75 -69.75 504.75 -70.25 505.75 L-71.75 506.5 -73.25 506.5 -98.0 499.75 -98.5 502.5 -95.25 503.25 Q-96.25 507.5 -97.5 511.75 L-101.0 510.75 -105.5 528.0 -103.25 528.5 -108.25 547.0 -110.5 546.5 -111.0 548.5 -132.25 542.75 -132.25 543.25 -109.75 549.5 -109.5 548.75 -107.0 549.5 -107.25 550.0 -91.75 554.25 -91.75 553.75 -89.25 554.25 -89.25 555.0 -28.75 571.0 -28.75 570.5 -26.25 571.25 -26.25 571.75 -15.75 574.5 -15.75 574.75 -15.5 575.0 -14.75 576.0 -15.25 577.5 -15.5 577.5 -16.0 579.0 -14.5 579.5 -18.0 592.5 -23.5 591.0 Q-22.5 587.75 -21.75 584.25 L-29.5 582.25 Q-29.5 582.75 -29.75 583.0 L-32.0 582.5 -31.75 581.5 -92.25 565.5 -92.5 566.25 -94.75 565.75 -94.75 564.75 -110.0 560.75 Q-110.0 561.25 -110.25 561.5 L-112.75 560.75 -112.5 560.0 -135.25 554.0 -145.75 593.75 -143.0 594.5 -144.75 600.75 -147.5 600.0 -174.0 698.5 -171.0 699.25 -172.75 705.5 -173.25 705.25 -171.75 699.75 -174.0 699.0 -174.25 700.0 -173.75 700.0 -174.75 704.25 -175.5 704.0 -175.5 704.75 -179.0 703.75 -179.0 703.25 -179.25 703.0 -178.25 698.75 -177.75 699.0 Q-177.5 698.75 -177.5 698.25 L-177.75 698.25 Q-177.5 698.0 -177.5 697.5 L-177.25 697.5 Q-172.5 680.25 -168.0 662.75 L-168.25 662.75 Q-168.0 662.25 -168.0 661.5 L-167.75 661.75 -154.25 611.0 -156.0 610.5 -161.0 629.0 -160.0 629.25 Q-160.0 630.0 -160.25 630.5 L-161.5 630.25 -180.25 700.25 -179.5 700.25 -180.75 704.5 -181.25 704.5 Q-181.25 705.25 -181.5 705.75 L-182.75 705.5 -194.75 750.5 -193.75 750.75 -195.25 756.5 -200.75 755.0 -199.25 749.25 -198.25 749.5 -186.0 704.5 -233.0 692.0 -228.5 675.5 -229.25 675.25 -228.25 672.0 -227.75 672.25 -227.25 670.5 -227.75 670.25 -226.75 666.75 -226.25 666.75 -212.25 614.75 -223.5 611.75 -231.0 639.5 -228.75 640.0 -227.5 639.5 -225.0 640.0 -224.0 642.5 -224.75 645.0 Q-225.75 645.75 -227.0 646.25 L-229.5 645.75 -229.75 645.0 -232.75 644.25 -233.5 647.25 -237.5 646.25 Q-242.0 663.75 -246.75 681.0 L-246.25 681.25 -248.0 688.0 -258.0 685.25 -258.25 685.75 -254.75 686.75 -303.5 869.0 -304.0 869.0 -305.75 875.5 -308.25 874.75 Q-307.25 871.5 -306.5 868.25 L-307.0 868.0 -341.5 858.75 -342.0 858.75 Q-342.75 862.0 -343.75 865.0 L-345.5 864.5 Q-344.5 861.5 -343.75 858.25 L-344.5 858.0 -296.0 677.5 -363.75 659.25 -367.0 670.75 -372.75 669.0 -369.75 657.75 -379.25 655.0 -380.5 659.0 -400.0 653.75 -401.5 653.0 -402.5 652.0 -403.25 650.25 Q-403.0 649.25 -403.0 648.25 L-401.0 641.0 -423.5 635.0 -423.75 636.0 -438.5 632.25 Q-437.25 628.0 -436.25 623.5 L-429.75 625.25 -424.75 606.5 -433.25 604.25 -432.75 602.5 -441.5 600.25 -441.75 601.25 -451.5 598.75 -453.0 604.5 -449.25 605.5 -451.75 615.5 -461.5 613.0 -459.0 603.0 -454.75 604.0 -453.25 598.5 -465.25 595.25 -458.25 570.0 -453.75 571.25 -453.25 569.0 -433.75 574.25 -434.0 576.0 -426.25 578.25 Q-426.0 577.75 -426.0 577.0 L-417.25 579.25 Q-416.25 576.0 -415.5 572.75 L-415.75 572.5 -415.25 570.0 -419.5 569.0 -419.5 568.75 -421.5 568.0 -404.75 505.0 -430.0 498.25 -430.25 498.75 -433.25 498.0 -433.25 497.5 -466.25 488.5 -466.5 489.0 -469.5 488.25 -469.5 487.75 -574.0 459.75 -574.25 459.75 -647.0 439.5 -648.5 439.5 -649.5 440.75 -649.5 496.75 -640.0 498.5 -629.75 507.5 -625.25 520.25 -628.0 533.75 -637.0 544.0 -646.5 547.25 -646.5 550.0 -656.75 550.0 -656.75 547.0 -663.25 545.75 -673.5 536.75 -677.75 524.0 -675.25 510.5 -666.25 500.25 -654.75 496.25 -654.75 441.25 -654.25 439.25 Q-653.75 438.5 -653.5 437.5 L-651.5 436.0 -650.0 435.25 -648.25 435.0 -646.75 435.0 -642.5 435.75 -402.25 500.0 -403.0 503.5 -399.0 504.5 -410.5 547.5 -400.5 550.0 -402.75 558.0 -365.75 568.0 -365.5 567.0 -364.5 567.25 -363.75 564.25 -357.0 566.0 Q-356.25 563.5 -355.75 560.75 L-387.5 552.25 Q-381.0 528.5 -374.75 504.5 L-330.75 516.25 -328.25 506.25 -338.75 503.5 -339.5 506.75 -339.75 506.75 Q-339.75 507.5 -340.0 508.0 L-359.5 502.75 -361.0 502.0 -362.0 500.75 -362.75 499.25 Q-362.5 498.25 -362.5 497.0 L-360.5 490.0 -370.0 487.5 -373.25 499.75 -373.75 501.0 -375.25 502.5 -376.5 503.5 -378.25 504.25 -382.5 504.5 -589.0 449.25 -589.25 449.5 -596.0 447.75 -594.5 442.75 -592.75 443.25 -592.75 442.5 -574.0 447.5 -573.75 446.5 -570.75 447.25 -571.0 448.25 -466.25 476.25 -466.25 475.75 -463.0 476.5 Q-463.0 477.0 -463.25 477.25 L-430.0 486.0 -430.0 485.25 -426.75 486.25 -427.0 486.75 -380.0 499.5 -378.5 499.0 -377.75 498.0 -374.75 486.25 -383.0 484.0 -383.25 485.0 -398.0 481.0 Q-396.75 476.75 -395.75 472.25 L-388.75 474.0 Q-386.25 464.75 -384.0 455.5 L-392.75 453.0 -392.25 451.25 -401.0 449.0 Q-401.0 449.75 -401.25 450.25 L-411.0 447.5 -412.5 453.5 -408.75 454.5 -411.25 464.5 -421.0 461.75 -418.5 451.75 -414.25 453.0 -412.75 447.25 -424.75 444.0 Q-421.25 431.5 -418.0 418.75 L-413.25 420.0 -412.75 418.0 -393.25 423.25 Q-393.25 424.25 -393.5 425.0 L-385.75 427.0 Q-385.5 426.5 -385.5 425.75 L-376.5 428.0 -372.75 413.75 -372.5 413.75 -371.0 408.0 -375.0 407.0 Q-374.75 406.75 -374.75 406.25 L-375.0 406.25 Q-374.5 405.0 -374.25 403.5 L-374.0 403.5 -372.25 396.75 -360.25 399.75 -362.25 406.75 -325.25 416.75 -324.75 415.0 -323.75 415.25 -323.25 413.25 -316.5 415.25 -315.5 411.25 -322.75 409.25 -319.25 396.5 -290.25 404.25 -293.5 415.75 -231.25 432.5 -226.5 414.5 -264.0 404.25 -265.25 408.25 -297.75 399.5 -296.75 395.75 -348.25 381.75 -346.75 375.75 -352.0 374.25 -344.25 345.25 -340.0 346.5 -337.0 335.75 -346.75 333.25 -344.0 322.75 -339.0 324.0 Q-338.25 321.5 -337.75 318.75 L-345.5 316.75 -343.25 308.75 -346.0 308.0 Q-346.0 308.5 -346.25 308.75 L-359.5 316.5 -374.25 312.5 -382.0 299.5 -378.25 284.75 -365.0 277.0 -350.25 280.75 -342.5 294.0 Q-342.5 294.5 -342.75 294.75 L-339.75 295.5 -338.25 290.0 -321.75 294.5 -317.75 280.25 -318.0 280.25 -308.5 245.0 -189.75 276.75 -188.75 272.5 -188.5 272.75 Q-188.25 272.25 -188.25 271.5 L-303.5 240.5 -294.25 205.0 -248.75 217.25 Q-248.25 215.75 -248.0 214.25 L-300.25 200.0 -298.5 193.5 -302.75 192.5 -295.0 163.5 -286.5 165.75 -279.5 139.25 -286.5 137.25 -288.0 142.5 -284.0 143.75 Q-285.25 149.0 -286.75 154.0 L-297.5 151.25 -294.75 140.75 -290.25 142.0 Q-289.5 139.5 -289.0 136.75 L-296.25 134.75 Q-295.0 130.75 -294.0 126.75 L-296.75 126.0 Q-296.75 126.5 -297.0 126.75 L-310.25 134.5 -325.0 130.5 -332.75 117.5 -329.0 102.75 -315.75 95.0 -301.0 98.75 -293.25 112.0 -293.5 112.75 -290.5 113.5 -289.0 108.25 -272.25 112.75 -262.75 77.0 -406.25 38.75 -589.5 38.75 -589.5 57.75 -615.0 57.75 -615.0 58.0 -617.5 58.0 -617.5 57.75 -622.25 57.75 -622.25 58.0 -624.75 58.0 -624.75 38.25 -624.0 38.25 -624.0 31.75 -624.75 31.75 -624.75 29.0 -622.0 29.0 -622.0 29.5 -617.5 29.5 -617.5 29.0 -614.75 29.0 -614.75 31.75 -615.0 31.75 -615.0 38.25 -600.25 38.25 -600.25 27.5 -594.75 27.5" fill="#424242" fill-rule="evenodd" stroke="none"/>
    <path d="M-323.0 108.75 Q-323.75 111.0 -324.75 113.0 -324.5 115.25 -324.5 117.5 L-322.75 121.75 -319.25 125.0 -314.75 126.75 -310.0 126.75 Q-307.75 125.75 -305.75 124.75 L-302.25 121.5 -300.5 117.25 -300.75 112.5 Q-301.5 110.5 -302.5 108.5 L-306.0 105.25 -310.5 103.5 -315.25 103.5 -319.5 105.5 -323.0 108.75 M-335.0 110.5 L-331.75 102.5 -325.75 96.25 -317.75 92.75 -309.25 92.75 -301.0 95.75 -295.0 101.75 -291.5 109.75 -291.5 117.0 -294.5 126.5 -300.5 132.75 -308.5 136.25 -317.0 136.25 -325.25 133.0 -331.25 127.0 -334.75 119.0 -335.0 110.5" fill="#424242" fill-rule="evenodd" stroke="none"/>
    <path d="M-293.5 112.5 L-297.5 111.5 Q-298.75 116.25 -300.25 121.0 L-296.0 122.0 -293.5 112.5 M-320.5 104.0 L-324.25 107.75 -326.25 112.75 -326.0 117.75 -324.0 122.5 -320.25 126.25 -315.5 128.0 -310.25 128.0 -305.25 126.0 -301.75 122.25 -299.75 117.5 -299.75 112.25 -302.0 107.5 -305.75 104.0 -310.5 102.0 -315.75 102.0 -320.5 104.0 M-333.5 110.75 L-330.5 103.25 -325.0 97.25 -317.5 94.0 -309.25 94.0 -301.75 97.0 -295.75 102.75 -292.5 110.25 -292.5 114.75 Q-292.75 117.5 -293.25 120.0 L-295.5 125.75 -301.25 131.75 -308.75 135.0 -316.75 135.0 -324.5 132.0 -330.25 126.5 -333.5 119.0 -333.5 110.75" fill="#959595" fill-rule="evenodd" stroke="none"/>
    <path d="M-297.75 115.25 L-297.25 113.75 -294.25 114.5 -294.75 116.25 -297.75 115.25" fill="#ffffff" fill-rule="evenodd" stroke="none"/>
  </g>
</svg>
