<?xml version="1.0" encoding="UTF-8" standalone="no"?>
<svg xmlns:ffdec="https://www.free-decompiler.com/flash" xmlns:xlink="http://www.w3.org/1999/xlink" ffdec:objectType="shape" height="35.0px" width="35.0px" xmlns="http://www.w3.org/2000/svg">
  <g transform="matrix(1.0, 0.0, 0.0, 1.0, 17.5, 17.5)">
    <path d="M-7.4 13.55 L-7.45 13.45 Q-8.3 10.75 -8.9 6.6 L-13.9 6.6 Q-11.85 11.05 -7.4 13.55 M-14.75 -4.1 L-15.05 -0.2 Q-15.05 1.9 -14.65 4.2 L-9.15 4.2 -9.3 -0.2 -9.15 -4.1 -14.75 -4.1 M-7.6 -13.4 L-7.55 -13.45 Q-11.9 -10.95 -13.95 -6.5 L-8.95 -6.5 Q-8.5 -10.3 -7.6 -13.4 M7.5 13.4 L7.45 13.55 Q11.85 11.15 14.0 6.6 L8.95 6.6 Q8.5 10.25 7.5 13.4 M1.25 15.4 L4.4 14.8 4.45 14.7 Q5.95 11.2 6.55 6.6 L-6.45 6.6 Q-5.8 11.45 -4.4 14.75 L-4.35 14.8 -1.2 15.4 1.25 15.4 M0.0 -17.5 Q7.25 -17.5 12.35 -12.35 17.5 -7.25 17.5 0.0 17.5 7.25 12.35 12.35 7.25 17.5 0.0 17.5 -7.25 17.5 -12.35 12.35 -17.5 7.25 -17.5 0.0 -17.5 -7.25 -12.35 -12.35 -7.25 -17.5 0.0 -17.5 M6.95 -0.2 L6.8 -4.1 -6.75 -4.1 -6.9 -0.2 -6.75 4.2 6.8 4.2 6.95 -0.2 M9.25 -4.1 L9.35 -0.2 9.2 4.2 14.7 4.2 Q15.1 1.9 15.1 -0.2 L14.8 -4.1 9.25 -4.1 M4.65 -14.65 L4.6 -14.75 1.25 -15.4 -1.2 -15.4 -4.55 -14.75 -4.6 -14.7 Q-6.0 -11.1 -6.55 -6.5 L6.6 -6.5 Q6.0 -11.35 4.65 -14.65 M7.6 -13.45 L7.65 -13.35 Q8.55 -10.2 9.0 -6.5 L14.05 -6.5 Q12.0 -11.0 7.6 -13.45" fill="#ffffff" fill-rule="evenodd" stroke="none"/>
  </g>
</svg>
