<?xml version="1.0" encoding="UTF-8" standalone="no"?>
<svg xmlns:ffdec="https://www.free-decompiler.com/flash" xmlns:xlink="http://www.w3.org/1999/xlink" ffdec:objectType="shape" height="21.15px" width="29.9px" xmlns="http://www.w3.org/2000/svg">
  <g transform="matrix(1.0, 0.0, 0.0, 1.0, 14.95, 10.55)">
    <path d="M-11.75 -5.1 L-9.05 -2.2 -6.3 -2.1 -6.15 -6.05 -5.9 -8.85 -6.55 -9.35 -6.25 -9.55 -2.1 -9.55 -1.9 -9.3 -3.5 -8.65 1.35 -2.55 3.55 -2.1 Q7.4 -1.6 10.2 -0.75 12.75 -0.75 13.95 0.0 12.75 0.75 10.2 0.75 7.4 1.65 3.55 2.15 L1.35 2.6 -3.5 8.7 -1.9 9.3 -2.1 9.6 -6.25 9.6 -6.55 9.35 -5.9 8.9 Q-6.4 3.65 -6.3 2.15 L-9.05 2.2 -11.75 5.1 Q-12.55 5.85 -12.65 4.8 L-12.65 1.95 -11.95 1.8 -11.9 1.2 -13.4 0.3 -13.95 0.0 -13.4 -0.25 -12.65 -0.85 -11.9 -1.2 -11.95 -1.75 -12.65 -1.95 -12.65 -4.8 Q-12.6 -5.4 -12.15 -5.3 L-11.75 -5.1" fill="#ffffff" fill-rule="evenodd" stroke="none"/>
    <path d="M-11.75 -5.1 L-12.25 -5.35 Q-12.6 -5.35 -12.65 -4.8 L-12.65 -1.95 -11.95 -1.75 -11.9 -1.2 -12.65 -0.85 -13.4 -0.25 -13.95 0.0 -13.4 0.3 -11.9 1.2 -11.95 1.8 -12.65 1.95 -12.65 4.8 Q-12.6 5.35 -12.25 5.35 L-11.75 5.1 -9.05 2.2 -6.3 2.15 Q-6.4 3.65 -5.9 8.9 L-6.55 9.35 -6.25 9.6 -2.1 9.6 -1.9 9.3 -3.5 8.7 1.35 2.6 3.55 2.15 Q7.4 1.65 10.2 0.75 12.75 0.75 13.95 0.0 12.75 -0.75 10.2 -0.75 7.4 -1.6 3.55 -2.1 L1.35 -2.55 -3.5 -8.65 -1.9 -9.3 -2.1 -9.55 -6.25 -9.55 -6.55 -9.35 -5.9 -8.85 -6.15 -6.05 -6.3 -2.1 -9.05 -2.2 -11.75 -5.1 M-11.05 -5.85 L-11.0 -5.75 -8.6 -3.15 -7.3 -3.15 -6.95 -8.4 -7.15 -8.5 Q-7.55 -8.8 -7.55 -9.3 -7.55 -9.85 -7.15 -10.15 L-6.85 -10.35 -6.25 -10.55 -2.1 -10.55 Q-1.55 -10.55 -1.3 -10.15 L-1.05 -9.85 Q-0.8 -9.45 -0.9 -9.0 L-1.5 -8.35 -1.85 -8.2 1.9 -3.45 3.7 -3.1 Q7.65 -2.6 10.35 -1.75 13.25 -1.7 14.5 -0.85 L14.95 0.0 Q14.95 0.6 14.5 0.9 13.0 1.75 10.35 1.75 7.65 2.6 3.7 3.1 L1.9 3.5 -1.85 8.25 -1.5 8.35 -0.9 9.0 Q-0.8 9.5 -1.05 9.9 L-1.25 10.15 Q-1.55 10.6 -2.1 10.6 L-6.25 10.6 -6.85 10.4 -7.15 10.15 Q-7.55 9.85 -7.55 9.35 -7.55 8.8 -7.15 8.5 L-6.95 8.4 -7.3 3.15 -8.6 3.2 -11.05 5.85 Q-11.7 6.35 -12.25 6.35 -13.5 6.35 -13.65 4.9 L-13.65 1.95 -13.55 1.55 -14.15 1.05 -14.4 0.9 -14.8 0.5 -14.95 0.1 Q-15.05 -0.55 -14.4 -0.9 L-14.15 -1.0 -13.55 -1.55 -13.65 -1.95 -13.65 -4.85 Q-13.5 -6.35 -12.25 -6.35 -11.7 -6.35 -11.05 -5.85" fill="#000000" fill-rule="evenodd" stroke="none"/>
  </g>
</svg>
