<?xml version="1.0" encoding="UTF-8" standalone="no"?>
<svg xmlns:ffdec="https://www.free-decompiler.com/flash" xmlns:xlink="http://www.w3.org/1999/xlink" ffdec:objectType="shape" height="17.5px" width="30.85px" xmlns="http://www.w3.org/2000/svg">
  <g transform="matrix(1.0, 0.0, 0.0, 1.0, 15.4, 8.75)">
    <path d="M11.8 0.6 Q10.85 -0.3 9.55 -0.3 7.5 -0.3 6.65 1.55 L9.45 1.55 Q10.0 1.55 10.35 1.9 10.7 2.3 10.7 2.8 L10.7 3.05 Q10.7 3.6 10.35 3.95 10.0 4.3 9.45 4.3 L6.7 4.3 Q7.65 6.0 9.55 6.0 10.85 6.0 11.8 5.1 12.7 4.15 12.7 2.85 12.7 1.55 11.8 0.6 M-9.85 1.85 L-10.55 1.75 Q-11.45 1.75 -12.05 2.4 -12.7 3.0 -12.7 3.9 -12.7 4.75 -12.05 5.4 -11.45 6.0 -10.55 6.05 -9.65 6.0 -9.0 5.4 -8.4 4.75 -8.4 3.9 L-8.65 2.9 -9.95 4.2 -10.55 4.45 -11.1 4.2 -11.3 3.65 -11.1 3.1 -9.85 1.85 M-10.55 0.0 Q-9.5 0.0 -8.55 0.55 L-0.5 -7.5 0.05 -7.75 1.8 -7.75 Q2.6 -7.75 2.6 -6.95 2.6 -6.15 1.8 -6.15 L0.4 -6.15 -1.55 -4.25 5.1 0.85 Q5.65 -0.45 6.85 -1.25 8.1 -2.05 9.55 -2.05 11.6 -2.05 13.0 -0.6 14.45 0.85 14.45 2.85 14.45 4.9 13.0 6.3 11.6 7.75 9.55 7.75 7.9 7.75 6.6 6.8 5.3 5.8 4.85 4.3 L-2.05 4.3 -2.9 4.0 -3.5 3.3 -4.95 -0.8 -7.4 1.65 Q-6.65 2.65 -6.65 3.9 -6.65 5.5 -7.8 6.6 -8.95 7.75 -10.55 7.75 -12.15 7.75 -13.3 6.6 -14.4 5.5 -14.4 3.9 -14.4 2.3 -13.3 1.15 -12.15 0.0 -10.55 0.0" fill="#ffffff" fill-rule="evenodd" stroke="none"/>
    <path d="M9.55 -0.3 Q10.85 -0.3 11.8 0.6 12.7 1.55 12.7 2.85 12.7 4.15 11.8 5.1 10.85 6.0 9.55 6.0 7.65 6.0 6.7 4.3 L9.45 4.3 Q10.0 4.3 10.35 3.95 10.7 3.6 10.7 3.05 L10.7 2.8 Q10.7 2.3 10.35 1.9 10.0 1.55 9.45 1.55 L6.65 1.55 Q7.5 -0.3 9.55 -0.3 M-10.55 1.75 L-9.85 1.85 -11.1 3.1 -11.3 3.65 -11.1 4.2 -10.55 4.45 -9.95 4.2 -8.65 2.9 -8.4 3.9 Q-8.4 4.75 -9.0 5.4 -9.65 6.0 -10.55 6.05 -11.45 6.0 -12.05 5.4 -12.7 4.75 -12.7 3.9 -12.7 3.0 -12.05 2.4 -11.45 1.75 -10.55 1.75 M-8.55 0.55 Q-9.5 0.0 -10.55 0.0 -12.15 0.0 -13.3 1.15 -14.4 2.3 -14.4 3.9 -14.4 5.5 -13.3 6.6 -12.15 7.75 -10.55 7.75 -8.95 7.75 -7.8 6.6 -6.65 5.5 -6.65 3.9 -6.65 2.65 -7.4 1.65 L-4.95 -0.8 -3.5 3.3 -2.9 4.0 -2.05 4.3 4.85 4.3 Q5.3 5.8 6.6 6.8 7.9 7.75 9.55 7.75 11.6 7.75 13.0 6.3 14.45 4.9 14.45 2.85 14.45 0.85 13.0 -0.6 11.6 -2.05 9.55 -2.05 8.1 -2.05 6.85 -1.25 5.65 -0.45 5.1 0.85 L-1.55 -4.25 0.4 -6.15 1.8 -6.15 Q2.6 -6.15 2.6 -6.95 2.6 -7.75 1.8 -7.75 L0.05 -7.75 -0.5 -7.5 -8.55 0.55 M-10.55 -1.0 L-8.75 -0.65 -1.2 -8.2 Q-0.65 -8.75 0.05 -8.75 L1.8 -8.75 Q2.55 -8.75 3.1 -8.2 3.6 -7.7 3.6 -6.95 3.6 -6.2 3.1 -5.65 2.55 -5.15 1.8 -5.15 L0.8 -5.15 0.0 -4.35 4.8 -0.65 Q6.55 -3.05 9.55 -3.05 12.0 -3.05 13.7 -1.3 15.45 0.4 15.45 2.85 15.45 5.3 13.7 7.0 12.0 8.75 9.55 8.75 7.8 8.75 6.35 7.8 4.85 6.9 4.15 5.3 L-2.05 5.3 -3.5 4.85 Q-4.2 4.35 -4.4 3.65 L-5.35 1.0 -6.15 1.8 Q-5.65 2.9 -5.65 3.9 -5.65 5.9 -7.1 7.3 -8.55 8.75 -10.55 8.75 -12.55 8.75 -14.0 7.3 -15.4 5.9 -15.4 3.9 -15.4 1.85 -14.0 0.45 -12.55 -1.0 -10.55 -1.0" fill="#000000" fill-rule="evenodd" stroke="none"/>
  </g>
</svg>
