<?xml version="1.0" encoding="UTF-8" standalone="no"?>
<svg xmlns:ffdec="https://www.free-decompiler.com/flash" xmlns:xlink="http://www.w3.org/1999/xlink" ffdec:objectType="shape" height="19.85px" width="28.6px" xmlns="http://www.w3.org/2000/svg">
  <g transform="matrix(1.0, 0.0, 0.0, 1.0, 14.3, 9.9)">
    <path d="M-13.25 -2.6 L-13.3 -5.3 Q-13.3 -5.7 -12.8 -5.7 -12.5 -5.7 -12.4 -5.3 L-12.2 -4.2 -6.45 -4.65 -6.4 -5.8 -6.2 -6.1 -5.6 -6.45 Q-4.45 -6.75 -4.05 -5.95 L-3.95 -4.55 -1.6 -4.6 -1.6 -5.3 -0.75 -8.5 Q-0.6 -8.9 -0.1 -8.9 L0.2 -8.85 0.6 -8.5 1.1 -6.9 1.5 -5.35 1.5 -4.65 3.85 -4.6 4.0 -5.75 4.5 -6.3 5.15 -6.5 6.1 -6.2 6.35 -5.4 6.35 -4.75 12.1 -4.35 12.45 -5.6 12.8 -5.9 13.1 -5.55 13.3 -2.4 13.1 -0.25 12.9 0.35 Q12.6 0.5 12.55 0.1 L12.4 -0.4 1.45 0.45 0.75 6.25 4.7 6.75 4.9 6.85 5.05 7.3 5.0 8.1 4.55 8.45 0.4 8.65 0.15 8.95 -0.1 8.95 -0.35 8.65 -4.5 8.5 -4.95 8.35 -5.0 7.4 -4.85 6.9 -4.7 6.8 -0.7 6.25 -1.15 3.2 -1.5 0.45 -12.45 -0.3 -12.55 0.25 -12.8 0.3 -12.9 0.0 -13.25 -2.6" fill="#ffffff" fill-rule="evenodd" stroke="none"/>
    <path d="M-14.3 -5.3 Q-14.3 -5.9 -13.9 -6.3 -13.5 -6.7 -12.9 -6.7 L-12.75 -6.7 Q-11.65 -6.7 -11.4 -5.55 L-11.35 -5.25 -7.4 -5.6 -7.4 -5.75 -7.0 -6.8 Q-6.55 -7.25 -5.85 -7.4 L-5.1 -7.5 Q-3.7 -7.5 -3.2 -6.45 L-3.0 -5.6 -2.6 -5.6 -1.65 -8.85 Q-1.3 -9.9 -0.15 -9.9 L-0.05 -9.9 Q1.15 -9.9 1.55 -8.85 L2.5 -5.6 3.0 -5.6 3.05 -5.8 Q3.1 -6.65 3.9 -7.1 4.5 -7.5 5.15 -7.5 6.15 -7.5 6.75 -6.9 7.3 -6.45 7.35 -5.65 L11.35 -5.4 11.45 -5.85 Q11.7 -6.9 12.75 -6.9 13.85 -6.9 14.1 -5.75 L14.3 -2.4 14.3 -2.35 14.1 -0.1 13.7 0.95 Q13.4 1.4 12.8 1.4 12.05 1.4 11.65 0.65 L2.35 1.4 1.9 5.4 4.85 5.8 Q5.35 5.85 5.7 6.25 6.05 6.7 6.05 7.35 L6.0 8.05 5.85 8.75 Q5.5 9.35 4.7 9.45 L0.9 9.65 Q0.6 9.95 0.15 9.95 L-0.1 9.95 Q-0.55 9.95 -0.8 9.65 L-4.6 9.5 Q-5.5 9.35 -5.8 8.8 L-5.95 8.15 -6.0 7.4 Q-6.0 6.75 -5.6 6.3 -5.3 5.9 -4.8 5.85 L-1.9 5.4 -2.4 1.4 -11.7 0.8 Q-12.0 1.45 -12.7 1.45 -13.4 1.45 -13.75 0.7 L-13.85 0.2 -14.25 -2.55 -14.3 -5.3 M-12.4 -5.3 Q-12.45 -5.7 -12.75 -5.7 L-12.8 -5.7 Q-13.3 -5.7 -13.3 -5.3 L-13.25 -2.6 -12.9 0.0 -12.8 0.3 -12.7 0.45 -12.55 0.25 -12.45 -0.3 -1.5 0.45 -1.15 3.2 -0.7 6.25 -4.7 6.8 -4.85 6.9 -5.0 7.4 -4.95 8.35 -4.5 8.5 -0.35 8.65 -0.1 8.95 0.15 8.95 0.4 8.65 4.55 8.45 5.0 8.1 5.05 7.3 4.9 6.85 4.7 6.75 0.75 6.25 1.45 0.45 12.4 -0.4 12.55 0.1 12.8 0.4 12.9 0.35 13.1 -0.25 13.3 -2.4 13.1 -5.55 12.75 -5.9 12.45 -5.6 12.1 -4.35 6.35 -4.75 6.35 -5.4 6.1 -6.2 5.15 -6.5 4.5 -6.3 4.0 -5.75 3.85 -4.6 1.5 -4.65 1.5 -5.35 1.1 -6.9 0.6 -8.5 Q0.45 -8.9 -0.05 -8.9 L-0.1 -8.9 Q-0.6 -8.9 -0.75 -8.5 L-1.6 -5.3 -1.6 -4.6 -3.95 -4.55 -4.05 -5.95 Q-4.35 -6.5 -5.1 -6.5 L-5.6 -6.45 -6.2 -6.1 -6.4 -5.8 -6.45 -4.65 -12.2 -4.2 -12.4 -5.3" fill="#000000" fill-rule="evenodd" stroke="none"/>
  </g>
</svg>
