<?xml version="1.0" encoding="UTF-8" standalone="no"?>
<svg xmlns:ffdec="https://www.free-decompiler.com/flash" xmlns:xlink="http://www.w3.org/1999/xlink" ffdec:objectType="shape" height="19.45px" width="28.3px" xmlns="http://www.w3.org/2000/svg">
  <g transform="matrix(1.0, 0.0, 0.0, 1.0, -227.75, -6.0)">
    <path d="M256.05 6.0 L256.05 25.45 227.75 25.45 227.75 6.0 256.05 6.0" fill="#000000" fill-rule="evenodd" stroke="none"/>
    <path d="M253.85 8.2 L253.85 23.25 229.95 23.25 229.95 8.2 253.85 8.2" fill="#ffffff" fill-rule="evenodd" stroke="none"/>
    <path d="M242.5 10.8 L244.3 11.1 Q244.7 11.3 244.9 11.45 L244.3 13.2 Q243.6 12.55 242.45 12.55 L241.4 12.85 Q241.0 13.1 241.0 13.6 241.0 14.05 241.25 14.3 L242.4 14.95 Q244.95 15.95 244.9 17.85 244.9 19.05 244.05 19.8 243.15 20.6 241.6 20.6 L239.5 20.15 238.9 19.75 239.5 18.0 240.2 18.4 241.7 18.8 Q242.95 18.85 242.95 17.95 L242.7 17.3 Q242.4 17.0 241.5 16.65 L239.8 15.6 Q239.0 14.85 239.05 13.7 239.05 12.4 239.95 11.6 240.9 10.75 242.5 10.8" fill="#000000" fill-rule="evenodd" stroke="none"/>
    <path d="M243.15 9.5 L243.15 12.05 241.4 12.05 241.4 9.5 243.15 9.5" fill="#000000" fill-rule="evenodd" stroke="none"/>
    <path d="M243.15 21.85 L241.4 21.85 241.4 19.3 243.15 19.3 243.15 21.85" fill="#000000" fill-rule="evenodd" stroke="none"/>
    <path d="M232.3 6.8 Q233.05 7.55 233.05 8.65 233.05 9.75 232.3 10.55 231.5 11.3 230.4 11.3 229.3 11.3 228.5 10.55 227.75 9.75 227.75 8.65 227.75 7.55 228.5 6.8 229.3 6.0 230.4 6.0 231.5 6.0 232.3 6.8" fill="#000000" fill-rule="evenodd" stroke="none"/>
    <path d="M256.05 8.65 Q256.05 9.75 255.3 10.55 254.5 11.3 253.4 11.3 252.3 11.3 251.55 10.55 250.75 9.75 250.75 8.65 250.75 7.55 251.55 6.8 252.3 6.0 253.4 6.0 254.5 6.0 255.3 6.8 256.05 7.55 256.05 8.65" fill="#000000" fill-rule="evenodd" stroke="none"/>
    <path d="M232.3 20.9 Q233.05 21.7 233.05 22.8 233.05 23.9 232.3 24.65 231.5 25.45 230.4 25.45 229.3 25.45 228.5 24.65 227.75 23.9 227.75 22.8 227.75 21.7 228.5 20.9 229.3 20.15 230.4 20.15 231.5 20.15 232.3 20.9" fill="#000000" fill-rule="evenodd" stroke="none"/>
    <path d="M256.05 22.8 Q256.05 23.9 255.3 24.65 254.5 25.45 253.4 25.45 252.3 25.45 251.55 24.65 250.75 23.9 250.75 22.8 250.75 21.7 251.55 20.9 252.3 20.15 253.4 20.15 254.5 20.15 255.3 20.9 256.05 21.7 256.05 22.8" fill="#000000" fill-rule="evenodd" stroke="none"/>
  </g>
</svg>
