<?xml version="1.0" encoding="UTF-8" standalone="no"?>
<svg xmlns:ffdec="https://www.free-decompiler.com/flash" xmlns:xlink="http://www.w3.org/1999/xlink" ffdec:objectType="shape" height="28.3px" width="28.35px" xmlns="http://www.w3.org/2000/svg">
  <g transform="matrix(1.0, 0.0, 0.0, 1.0, 14.15, 14.15)">
    <path d="M-14.15 -14.15 L14.2 -14.15 14.2 14.15 -14.15 14.15 -14.15 -14.15" fill="#000000" fill-rule="evenodd" stroke="none"/>
    <path d="M-11.3 -11.3 Q-10.2 -12.4 -8.7 -12.4 L8.75 -12.4 Q10.25 -12.4 11.35 -11.3 12.45 -10.25 12.45 -8.75 L12.45 8.7 Q12.45 10.25 11.35 11.35 10.25 12.4 8.75 12.4 L-8.7 12.4 Q-10.2 12.4 -11.3 11.35 -12.35 10.25 -12.35 8.7 L-12.35 -8.75 Q-12.35 -10.25 -11.3 -11.3" fill="#ffffff" fill-rule="evenodd" stroke="none"/>
    <path d="M5.35 0.0 Q5.35 2.2 3.8 3.75 2.25 5.3 0.05 5.3 -2.15 5.3 -3.7 3.75 -5.25 2.2 -5.25 0.0 -5.25 -2.2 -3.7 -3.75 -2.15 -5.3 0.05 -5.3 2.25 -5.3 3.8 -3.75 5.35 -2.2 5.35 0.0" fill="#000000" fill-rule="evenodd" stroke="none"/>
    <path d="M9.4 0.95 Q9.0 1.3 8.45 1.3 L-8.35 1.3 Q-8.9 1.3 -9.3 0.95 -9.7 0.55 -9.7 0.0 -9.7 -0.55 -9.3 -0.95 -8.9 -1.35 -8.35 -1.35 L8.45 -1.35 Q9.0 -1.35 9.4 -0.95 9.75 -0.55 9.75 0.0 9.75 0.55 9.4 0.95" fill="#000000" fill-rule="evenodd" stroke="none"/>
    <path d="M1.35 -8.25 L1.35 8.2 Q1.35 8.75 0.95 9.15 0.6 9.55 0.05 9.55 -0.5 9.55 -0.9 9.15 -1.3 8.75 -1.3 8.2 L-1.3 -8.25 Q-1.3 -8.8 -0.9 -9.15 -0.5 -9.55 0.05 -9.55 0.6 -9.55 0.95 -9.15 1.35 -8.8 1.35 -8.25" fill="#000000" fill-rule="evenodd" stroke="none"/>
    <path d="M-5.0 -6.75 L6.9 4.85 Q7.3 5.25 7.3 5.8 7.3 6.35 6.95 6.75 6.55 7.15 6.0 7.15 5.45 7.15 5.05 6.75 L-6.85 -4.85 Q-7.25 -5.25 -7.25 -5.8 -7.25 -6.35 -6.85 -6.75 -6.5 -7.15 -5.95 -7.15 -5.4 -7.15 -5.0 -6.75" fill="#000000" fill-rule="evenodd" stroke="none"/>
    <path d="M6.9 -4.85 L-5.0 6.75 Q-5.4 7.15 -5.9 7.15 -6.45 7.15 -6.85 6.75 -7.25 6.35 -7.25 5.8 -7.25 5.25 -6.85 4.85 L5.05 -6.75 Q5.45 -7.15 6.0 -7.15 6.55 -7.15 6.95 -6.75 7.3 -6.35 7.3 -5.8 7.3 -5.25 6.9 -4.85" fill="#000000" fill-rule="evenodd" stroke="none"/>
  </g>
</svg>
