<?xml version="1.0" encoding="UTF-8" standalone="no"?>
<svg xmlns:ffdec="https://www.free-decompiler.com/flash" xmlns:xlink="http://www.w3.org/1999/xlink" ffdec:objectType="shape" height="27.8px" width="28.35px" xmlns="http://www.w3.org/2000/svg">
  <g transform="matrix(1.0, 0.0, 0.0, 1.0, 14.15, 13.9)">
    <path d="M-10.6 -4.25 L10.65 -4.25 Q11.4 -4.25 11.9 -3.75 12.45 -3.2 12.45 -2.5 L12.45 10.35 Q12.45 11.1 11.9 11.6 11.4 12.1 10.65 12.1 L-10.6 12.1 Q-11.3 12.1 -11.8 11.6 -12.35 11.1 -12.35 10.35 L-12.35 -2.5 Q-12.35 -3.2 -11.8 -3.75 -11.3 -4.25 -10.6 -4.25" fill="#ffffff" fill-rule="evenodd" stroke="none"/>
    <path d="M-10.6 10.35 L10.65 10.35 10.65 -2.5 -10.6 -2.5 -10.6 10.35 M-10.6 -6.0 L10.65 -6.0 Q12.15 -6.0 13.15 -5.0 14.2 -3.95 14.2 -2.5 L14.2 10.35 Q14.2 11.8 13.15 12.85 12.1 13.9 10.65 13.9 L-10.6 13.9 Q-12.05 13.9 -13.1 12.85 -14.15 11.8 -14.15 10.35 L-14.15 -2.5 Q-14.15 -3.95 -13.1 -5.0 -12.05 -6.0 -10.6 -6.0" fill="#000000" fill-rule="evenodd" stroke="none"/>
    <path d="M-10.6 -4.25 L10.65 -4.25 Q11.4 -4.25 11.9 -3.75 12.45 -3.2 12.45 -2.5 L12.45 10.35 Q12.45 11.1 11.9 11.6 11.4 12.1 10.65 12.1 L-10.6 12.1 Q-11.3 12.1 -11.8 11.6 -12.35 11.1 -12.35 10.35 L-12.35 -2.5 Q-12.35 -3.2 -11.8 -3.75 -11.3 -4.25 -10.6 -4.25" fill="#ffffff" fill-rule="evenodd" stroke="none"/>
    <path d="M1.8 13.9 L-1.7 13.9 -1.7 -6.5 1.8 -6.5 1.8 13.9" fill="#000000" fill-rule="evenodd" stroke="none"/>
    <path d="M-14.15 1.95 L13.75 1.95 13.75 5.45 -14.15 5.45 -14.15 1.95" fill="#000000" fill-rule="evenodd" stroke="none"/>
    <path d="M-8.45 -11.6 Q-7.7 -12.6 -6.15 -12.6 -2.25 -12.6 -0.7 -9.45 0.05 -7.9 0.05 -6.35 L-0.9 -6.35 Q-7.3 -6.35 -8.65 -9.45 -9.15 -10.65 -8.45 -11.6" fill="#ffffff" fill-rule="evenodd" stroke="none"/>
    <path d="M-9.05 -12.9 Q-7.9 -13.9 -6.15 -13.9 -2.8 -13.9 -0.85 -11.9 0.55 -10.5 1.1 -8.35 L1.4 -6.3 1.35 -5.0 -0.9 -5.0 Q-5.15 -5.0 -7.7 -6.55 -8.85 -7.3 -9.5 -8.3 -10.2 -9.3 -10.2 -10.4 -10.2 -11.9 -9.05 -12.9 M-6.15 -11.25 L-7.15 -11.05 Q-7.55 -10.8 -7.55 -10.4 -7.55 -9.55 -6.3 -8.8 -4.55 -7.75 -1.45 -7.65 -1.8 -9.1 -2.7 -10.0 -3.95 -11.25 -6.15 -11.25" fill="#000000" fill-rule="evenodd" stroke="none"/>
    <path d="M8.75 -9.45 Q7.4 -6.35 0.95 -6.35 L0.05 -6.35 0.15 -7.35 Q0.3 -8.5 0.8 -9.45 2.35 -12.6 6.25 -12.6 7.8 -12.6 8.55 -11.6 9.25 -10.65 8.75 -9.45" fill="#ffffff" fill-rule="evenodd" stroke="none"/>
    <path d="M6.25 -11.25 Q4.0 -11.25 2.8 -10.0 1.95 -9.15 1.55 -7.65 4.65 -7.75 6.4 -8.8 7.6 -9.55 7.6 -10.4 L7.25 -11.05 6.25 -11.25 M9.15 -12.9 Q10.25 -11.9 10.25 -10.4 10.25 -9.3 9.6 -8.3 8.95 -7.3 7.8 -6.55 5.25 -5.0 0.95 -5.0 L-1.25 -5.0 -1.3 -6.3 -1.0 -8.35 Q-0.45 -10.5 0.95 -11.9 2.85 -13.9 6.25 -13.9 8.0 -13.9 9.15 -12.9" fill="#000000" fill-rule="evenodd" stroke="none"/>
  </g>
</svg>
