<?xml version="1.0" encoding="UTF-8" standalone="no"?>
<svg xmlns:ffdec="https://www.free-decompiler.com/flash" xmlns:xlink="http://www.w3.org/1999/xlink" ffdec:objectType="shape" height="28.3px" width="28.35px" xmlns="http://www.w3.org/2000/svg">
  <g transform="matrix(1.0, 0.0, 0.0, 1.0, 14.15, 14.15)">
    <path d="M-10.0 -10.0 Q-5.85 -14.15 0.0 -14.15 5.9 -14.15 10.05 -10.0 14.2 -5.85 14.2 0.0 14.2 5.9 10.05 10.05 5.9 14.15 0.0 14.15 -5.85 14.15 -10.0 10.05 -14.15 5.9 -14.15 0.0 -14.15 -5.85 -10.0 -10.0" fill="#000000" fill-rule="evenodd" stroke="none"/>
    <path d="M11.95 0.0 Q11.95 4.95 8.45 8.45 4.95 11.95 0.0 11.95 -4.95 11.95 -8.45 8.45 -11.95 4.95 -11.95 0.0 -11.95 -4.95 -8.45 -8.45 -4.95 -11.95 0.0 -11.95 4.95 -11.95 8.45 -8.45 11.95 -4.95 11.95 0.0" fill="#f5f5f5" fill-rule="evenodd" stroke="none"/>
    <path d="M-9.75 -0.95 Q-9.4 -1.3 -8.85 -1.3 -8.3 -1.3 -7.9 -0.95 -7.5 -0.55 -7.5 0.0 -7.5 3.1 -5.3 5.35 -3.1 7.55 0.0 7.55 0.55 7.55 0.95 7.95 1.35 8.3 1.35 8.85 1.35 9.4 0.95 9.8 0.55 10.2 0.0 10.2 -4.2 10.2 -7.15 7.2 -10.15 4.2 -10.15 0.0 -10.15 -0.55 -9.75 -0.95" fill="#000000" fill-rule="evenodd" stroke="none"/>
    <path d="M4.45 0.0 Q4.45 1.85 3.15 3.15 1.85 4.45 0.0 4.45 -1.8 4.45 -3.1 3.15 -4.4 1.85 -4.4 0.0 -4.4 -1.8 -3.1 -3.1 -1.8 -4.45 0.0 -4.45 1.85 -4.45 3.15 -3.1 4.45 -1.8 4.45 0.0" fill="#000000" fill-rule="evenodd" stroke="none"/>
  </g>
</svg>
