<?xml version="1.0" encoding="UTF-8" standalone="no"?>
<svg xmlns:ffdec="https://www.free-decompiler.com/flash" xmlns:xlink="http://www.w3.org/1999/xlink" ffdec:objectType="shape" height="28.3px" width="23.0px" xmlns="http://www.w3.org/2000/svg">
  <g transform="matrix(1.0, 0.0, 0.0, 1.0, 11.5, 14.15)">
    <path d="M-6.15 -1.1 Q-5.05 0.25 -3.45 1.0 -1.85 1.8 -0.05 1.8 1.8 1.8 3.4 1.0 5.0 0.25 6.1 -1.1 7.8 0.25 8.75 2.2 9.75 4.2 9.75 6.45 L9.75 12.4 -9.75 12.4 -9.75 6.45 Q-9.75 4.2 -8.8 2.2 -7.85 0.25 -6.15 -1.1" fill="#000000" fill-rule="evenodd" stroke="none"/>
    <path d="M7.2 -2.45 Q9.25 -0.85 10.35 1.5 11.5 3.85 11.5 6.45 L11.5 14.15 -11.5 14.15 -11.5 6.45 Q-11.5 3.85 -10.4 1.5 -9.3 -0.85 -7.25 -2.45 L-5.9 -3.6 -4.8 -2.25 Q-3.9 -1.15 -2.65 -0.6 -1.4 0.0 -0.05 0.0 1.35 0.0 2.6 -0.6 3.85 -1.15 4.75 -2.25 L5.85 -3.6 7.2 -2.45 M-8.0 10.6 L7.95 10.6 7.95 6.45 Q7.95 3.6 6.1 1.35 3.4 3.55 -0.05 3.55 -3.5 3.55 -6.15 1.35 -8.0 3.55 -8.0 6.45 L-8.0 10.6" fill="#000000" fill-rule="evenodd" stroke="none"/>
    <path d="M5.75 -6.65 Q5.75 -4.25 4.05 -2.55 2.35 -0.85 -0.05 -0.85 -2.4 -0.85 -4.1 -2.55 -5.8 -4.25 -5.8 -6.65 -5.8 -9.0 -4.1 -10.7 -2.4 -12.4 -0.05 -12.4 2.35 -12.4 4.05 -10.7 5.75 -9.0 5.75 -6.65" fill="#000000" fill-rule="evenodd" stroke="none"/>
    <path d="M-2.85 -9.45 Q-4.0 -8.3 -4.0 -6.65 -4.0 -5.0 -2.85 -3.8 -1.65 -2.65 -0.05 -2.65 1.6 -2.65 2.8 -3.8 3.95 -5.0 3.95 -6.65 3.95 -8.3 2.8 -9.45 1.6 -10.65 -0.05 -10.65 -1.65 -10.65 -2.85 -9.45 M-0.05 -14.15 Q3.1 -14.15 5.3 -11.95 7.5 -9.75 7.5 -6.65 7.5 -3.5 5.3 -1.35 3.1 0.9 -0.05 0.9 -3.15 0.9 -5.35 -1.35 -7.55 -3.5 -7.55 -6.65 -7.55 -9.75 -5.35 -11.95 -3.15 -14.15 -0.05 -14.15" fill="#000000" fill-rule="evenodd" stroke="none"/>
    <path d="M-6.15 -1.1 Q-5.05 0.25 -3.45 1.0 -1.85 1.8 -0.05 1.8 1.8 1.8 3.4 1.0 5.0 0.25 6.1 -1.1 7.8 0.25 8.75 2.2 9.75 4.2 9.75 6.45 L9.75 12.4 -9.75 12.4 -9.75 6.45 Q-9.75 4.2 -8.8 2.2 -7.85 0.25 -6.15 -1.1" fill="#ffffff" fill-rule="evenodd" stroke="none"/>
    <path d="M5.75 -6.65 Q5.75 -4.25 4.05 -2.55 2.35 -0.85 -0.05 -0.85 -2.4 -0.85 -4.1 -2.55 -5.8 -4.25 -5.8 -6.65 -5.8 -9.0 -4.1 -10.7 -2.4 -12.4 -0.05 -12.4 2.35 -12.4 4.05 -10.7 5.75 -9.0 5.75 -6.65" fill="#ffffff" fill-rule="evenodd" stroke="none"/>
  </g>
</svg>
