<?xml version="1.0" encoding="UTF-8" standalone="no"?>
<svg xmlns:ffdec="https://www.free-decompiler.com/flash" xmlns:xlink="http://www.w3.org/1999/xlink" ffdec:objectType="shape" height="19.0px" width="29.1px" xmlns="http://www.w3.org/2000/svg">
  <g transform="matrix(1.0, 0.0, 0.0, 1.0, 14.55, 9.5)">
    <path d="M-3.45 0.95 L-0.85 0.95 -0.05 -1.6 -2.75 -1.6 -3.45 0.95 M-13.5 8.5 L-10.85 -1.6 -11.9 -1.6 -11.9 -3.9 -11.05 -3.9 -11.05 -7.35 10.75 -7.35 10.75 -8.5 12.55 -8.5 12.55 -7.35 13.55 -7.35 13.55 -3.25 10.7 -3.25 10.7 -1.6 2.05 -1.6 0.65 2.95 -3.95 2.95 -5.45 8.5 -13.5 8.5" fill="#ffffff" fill-rule="evenodd" stroke="none"/>
    <path d="M-1.4 -0.6 L-2.0 -0.6 -2.1 -0.05 -1.6 -0.05 -1.4 -0.6 M-2.75 -1.6 L-0.05 -1.6 -0.85 0.95 -3.45 0.95 -2.75 -1.6 M-11.05 -3.9 L-11.9 -3.9 -11.9 -1.6 -10.85 -1.6 -13.5 8.5 -5.45 8.5 -3.95 2.95 0.65 2.95 2.05 -1.6 10.7 -1.6 10.7 -3.25 13.55 -3.25 13.55 -7.35 12.55 -7.35 12.55 -8.5 10.75 -8.5 10.75 -7.35 -11.05 -7.35 -11.05 -3.9 M-12.05 -7.35 L-11.75 -8.05 -11.05 -8.35 9.75 -8.35 9.75 -8.5 Q9.75 -8.9 10.05 -9.2 L10.75 -9.5 12.55 -9.5 13.25 -9.2 13.55 -8.5 13.55 -8.35 14.25 -8.05 14.55 -7.35 14.55 -3.25 14.25 -2.55 Q13.95 -2.25 13.55 -2.25 L11.7 -2.25 11.7 -1.6 11.4 -0.85 Q11.1 -0.6 10.7 -0.6 L2.8 -0.6 1.6 3.25 Q1.35 3.95 0.65 3.95 L-3.2 3.95 -4.45 8.75 Q-4.7 9.5 -5.45 9.5 L-13.5 9.5 Q-14.05 9.5 -14.3 9.1 -14.6 8.75 -14.5 8.25 L-12.15 -0.6 Q-12.9 -0.75 -12.9 -1.6 L-12.9 -3.9 Q-12.9 -4.7 -12.05 -4.9 L-12.05 -7.35" fill="#000000" fill-rule="evenodd" stroke="none"/>
  </g>
</svg>
