<?xml version="1.0" encoding="UTF-8" standalone="no"?>
<svg xmlns:ffdec="https://www.free-decompiler.com/flash" xmlns:xlink="http://www.w3.org/1999/xlink" ffdec:objectType="shape" height="23.45px" width="28.0px" xmlns="http://www.w3.org/2000/svg">
  <g transform="matrix(1.0, 0.0, 0.0, 1.0, 14.0, 11.7)">
    <path d="M11.3 5.35 L11.3 9.75 6.9 9.75 6.9 5.35 -6.85 5.35 -6.85 9.75 -11.25 9.75 -11.25 5.35 -12.0 5.35 -12.0 3.9 12.0 3.9 12.0 5.35 11.3 5.35 M7.75 -9.7 L10.45 -2.8 12.0 -2.3 12.0 2.4 -12.0 2.4 -12.0 -2.25 -10.1 -2.85 -7.85 -9.7 7.75 -9.7" fill="#000000" fill-rule="evenodd" stroke="none"/>
    <path d="M7.75 -9.7 L-7.85 -9.7 -10.1 -2.85 -12.0 -2.25 -12.0 2.4 12.0 2.4 12.0 -2.3 10.45 -2.8 7.75 -9.7 M11.3 5.35 L12.0 5.35 12.0 3.9 -12.0 3.9 -12.0 5.35 -11.25 5.35 -11.25 9.75 -6.85 9.75 -6.85 5.35 6.9 5.35 6.9 9.75 11.3 9.75 11.3 5.35 Z" fill="none" stroke="#000000" stroke-linecap="round" stroke-linejoin="round" stroke-width="4.0"/>
    <path d="M-8.7 -2.3 L-9.1 -2.25 -9.15 -2.25 Q-10.7 -1.8 -10.7 -0.3 -10.7 0.5 -10.1 1.1 -9.55 1.65 -8.7 1.65 -7.9 1.65 -7.35 1.1 -6.75 0.5 -6.75 -0.3 -6.75 -1.1 -7.35 -1.7 -7.9 -2.3 -8.7 -2.3 M11.3 5.35 L11.3 9.75 6.9 9.75 6.9 5.35 -6.85 5.35 -6.85 9.75 -11.25 9.75 -11.25 5.35 -12.0 5.35 -12.0 3.9 12.0 3.9 12.0 5.35 11.3 5.35 M8.2 -3.5 L9.05 -3.25 6.95 -8.5 -7.0 -8.5 -8.75 -3.3 -8.1 -3.5 8.2 -3.5 M10.7 -0.3 Q10.7 -1.65 9.45 -2.15 L8.7 -2.3 Q7.9 -2.3 7.3 -1.7 6.75 -1.15 6.75 -0.3 6.75 0.55 7.3 1.1 7.9 1.65 8.7 1.65 9.55 1.65 10.1 1.1 10.7 0.5 10.7 -0.3 M7.75 -9.7 L10.45 -2.8 12.0 -2.3 12.0 2.4 -12.0 2.4 -12.0 -2.25 -10.1 -2.85 -7.85 -9.7 7.75 -9.7" fill="#f5f5f5" fill-rule="evenodd" stroke="none"/>
  </g>
</svg>
