<?xml version="1.0" encoding="UTF-8" standalone="no"?>
<svg xmlns:ffdec="https://www.free-decompiler.com/flash" xmlns:xlink="http://www.w3.org/1999/xlink" ffdec:objectType="shape" height="26.0px" width="195.65px" xmlns="http://www.w3.org/2000/svg">
  <g transform="matrix(1.0, 0.0, 0.0, 1.0, 36.7, 99.5)">
    <path d="M61.5 -99.5 L61.85 -99.5 62.65 -99.45 61.5 -99.5" fill="#999999" fill-rule="evenodd" stroke="none"/>
    <path d="M60.95 -91.5 L58.85 -91.55 54.4 -91.35 Q6.35 -90.25 -35.05 -73.5 L-36.7 -77.5 Q5.25 -94.9 54.0 -96.0 L58.55 -96.05 60.6 -96.0 60.8 -96.05 61.5 -96.05 65.05 -96.0 Q115.45 -95.25 158.65 -77.4 L158.65 -77.35 158.75 -77.35 158.75 -77.3 158.95 -77.3 157.4 -73.55 Q114.75 -90.7 65.4 -91.45 L61.85 -91.5 61.2 -91.45 60.95 -91.5" fill="#000000" fill-rule="evenodd" stroke="none"/>
  </g>
</svg>
