<?xml version="1.0" encoding="UTF-8" standalone="no"?>
<svg xmlns:ffdec="https://www.free-decompiler.com/flash" xmlns:xlink="http://www.w3.org/1999/xlink" ffdec:objectType="shape" height="26.0px" width="198.1px" xmlns="http://www.w3.org/2000/svg">
  <g transform="matrix(1.0, 0.0, 0.0, 1.0, 37.9, 99.45)">
    <path d="M53.6 -99.35 L54.2 -99.4 54.35 -99.4 58.9 -99.45 60.95 -99.4 61.15 -99.45 61.85 -99.45 65.4 -99.4 Q116.5 -98.65 160.2 -80.3 L157.4 -73.5 Q114.75 -90.65 65.4 -91.4 L61.85 -91.45 61.2 -91.4 60.95 -91.45 58.85 -91.5 54.4 -91.3 54.2 -91.3 53.6 -91.25 53.35 -91.25 52.35 -91.25 Q5.45 -89.85 -35.05 -73.45 L-37.9 -80.3 Q3.9 -97.95 52.35 -99.35 L53.35 -99.35 53.6 -99.35" fill="#ffffff" fill-rule="evenodd" stroke="none"/>
  </g>
</svg>
