<?xml version="1.0" encoding="UTF-8" standalone="no"?>
<svg xmlns:ffdec="https://www.free-decompiler.com/flash" xmlns:xlink="http://www.w3.org/1999/xlink" ffdec:objectType="shape" height="80.0px" width="8.9px" xmlns="http://www.w3.org/2000/svg">
  <g transform="matrix(1.0, 0.0, 0.0, 1.0, 0.0, 0.0)">
    <path d="M7.4 4.45 L7.4 75.55 Q7.4 76.75 6.55 77.65 5.65 78.5 4.45 78.5 3.25 78.5 2.4 77.65 1.5 76.75 1.5 75.55 L1.5 4.45 Q1.5 3.2 2.4 2.35 3.25 1.5 4.45 1.5 5.65 1.5 6.55 2.35 7.4 3.2 7.4 4.45" fill="#000000" fill-opacity="0.49803922" fill-rule="evenodd" stroke="none"/>
    <path d="M7.6 1.45 Q8.9 2.95 8.9 5.0 L8.9 75.0 Q8.9 77.05 7.6 78.55 6.3 80.0 4.45 80.0 2.6 80.0 1.3 78.55 0.0 77.05 0.0 75.0 L0.0 5.0 Q0.0 2.95 1.3 1.45 2.6 0.0 4.45 0.0 6.3 0.0 7.6 1.45 M7.4 4.45 Q7.4 3.2 6.55 2.35 5.65 1.5 4.45 1.5 3.25 1.5 2.4 2.35 1.5 3.2 1.5 4.45 L1.5 75.55 Q1.5 76.75 2.4 77.65 3.25 78.5 4.45 78.5 5.65 78.5 6.55 77.65 7.4 76.75 7.4 75.55 L7.4 4.45" fill="#ffffff" fill-opacity="0.2" fill-rule="evenodd" stroke="none"/>
  </g>
</svg>
