<?xml version="1.0" encoding="UTF-8" standalone="no"?>
<svg xmlns:ffdec="https://www.free-decompiler.com/flash" xmlns:xlink="http://www.w3.org/1999/xlink" ffdec:objectType="shape" height="72.0px" width="72.0px" xmlns="http://www.w3.org/2000/svg">
  <g transform="matrix(1.0, 0.0, 0.0, 1.0, 36.0, 36.0)">
    <path d="M22.6 -22.6 Q13.25 -32.0 0.0 -32.0 -13.3 -32.0 -22.7 -22.6 -32.0 -13.25 -32.0 0.0 -32.0 13.25 -22.7 22.65 -13.3 32.0 0.0 32.0 13.25 32.0 22.6 22.65 30.9 14.35 31.9 3.0 L32.0 0.0 32.0 -1.0 Q31.65 -13.6 22.6 -22.6 M25.45 -25.45 Q35.65 -15.25 36.0 -1.0 L36.0 0.0 35.9 3.0 Q34.9 16.0 25.45 25.45 14.9 36.0 0.0 36.0 -14.95 36.0 -25.5 25.45 -36.0 14.9 -36.0 0.0 -36.0 -14.9 -25.5 -25.45 -14.95 -36.0 0.0 -36.0 14.9 -36.0 25.45 -25.45" fill="#ffffff" fill-rule="evenodd" stroke="none"/>
  </g>
</svg>
