<?xml version="1.0" encoding="UTF-8" standalone="no"?>
<svg xmlns:ffdec="https://www.free-decompiler.com/flash" xmlns:xlink="http://www.w3.org/1999/xlink" ffdec:objectType="shape" height="108.25px" width="77.15px" xmlns="http://www.w3.org/2000/svg">
  <g transform="matrix(1.0, 0.0, 0.0, 1.0, 5.5, 36.6)">
    <path d="M56.1 10.05 Q65.65 19.65 65.65 33.1 65.65 46.55 56.1 56.1 46.55 65.65 33.05 65.65 19.6 65.65 10.05 56.1 0.5 46.55 0.5 33.1 0.5 19.65 10.05 10.05 19.6 0.5 33.05 0.5 46.55 0.5 56.1 10.05" fill="#000000" fill-rule="evenodd" stroke="none"/>
    <path d="M56.1 10.05 Q46.55 0.5 33.05 0.5 19.6 0.5 10.05 10.05 0.5 19.65 0.5 33.1 0.5 46.55 10.05 56.1 19.6 65.65 33.05 65.65 46.55 65.65 56.1 56.1 65.65 46.55 65.65 33.1 65.65 19.65 56.1 10.05 Z" fill="none" stroke="#000000" stroke-linecap="round" stroke-linejoin="miter-clip" stroke-miterlimit="10.0" stroke-width="12.0"/>
    <path d="M56.1 10.05 Q65.65 19.65 65.65 33.1 65.65 46.55 56.1 56.1 46.55 65.65 33.05 65.65 19.6 65.65 10.05 56.1 0.5 46.55 0.5 33.1 0.5 19.65 10.05 10.05 19.6 0.5 33.05 0.5 46.55 0.5 56.1 10.05 M45.75 11.85 Q45.75 9.2 44.05 7.5 42.35 5.8 39.65 5.8 36.7 5.8 34.55 7.9 32.4 10.0 32.4 12.85 32.4 15.6 34.1 17.25 35.75 18.9 38.5 18.9 41.55 18.9 43.65 16.85 45.75 14.8 45.75 11.85 M42.25 46.15 Q41.8 45.65 41.25 45.65 40.8 45.65 40.1 46.3 L38.2 48.3 Q34.4 52.6 33.15 52.6 32.85 52.6 32.75 52.3 L32.7 51.95 Q32.7 50.95 33.85 48.0 L39.95 31.6 Q42.05 25.9 40.1 23.05 38.55 20.85 35.15 20.85 28.35 20.85 22.5 26.5 L22.2 26.8 Q17.7 31.2 17.7 32.8 17.7 33.4 18.15 33.85 18.65 34.35 19.25 34.35 19.8 34.35 20.55 33.65 L22.45 31.6 Q26.1 27.25 27.7 27.25 27.95 27.25 28.1 27.5 28.35 27.95 28.05 28.8 L22.3 43.2 Q18.9 51.45 18.9 55.4 18.9 57.75 20.35 59.1 21.8 60.4 24.4 60.4 30.15 60.4 36.8 54.85 42.75 49.85 42.75 47.35 42.75 46.65 42.25 46.15" fill="#ffffff" fill-rule="evenodd" stroke="none"/>
    <path d="M42.25 46.15 Q42.75 46.65 42.75 47.35 42.75 49.85 36.8 54.85 30.15 60.4 24.4 60.4 21.8 60.4 20.35 59.1 18.9 57.75 18.9 55.4 18.9 51.45 22.3 43.2 L28.05 28.8 Q28.35 27.95 28.1 27.5 27.95 27.25 27.7 27.25 26.1 27.25 22.45 31.6 L20.55 33.65 Q19.8 34.35 19.25 34.35 18.65 34.35 18.15 33.85 17.7 33.4 17.7 32.8 17.7 31.2 22.2 26.8 L22.5 26.5 Q28.35 20.85 35.15 20.85 38.55 20.85 40.1 23.05 42.05 25.9 39.95 31.6 L33.85 48.0 Q32.7 50.95 32.7 51.95 L32.75 52.3 Q32.85 52.6 33.15 52.6 34.4 52.6 38.2 48.3 L40.1 46.3 Q40.8 45.65 41.25 45.65 41.8 45.65 42.25 46.15 M45.75 11.85 Q45.75 14.8 43.65 16.85 41.55 18.9 38.5 18.9 35.75 18.9 34.1 17.25 32.4 15.6 32.4 12.85 32.4 10.0 34.55 7.9 36.7 5.8 39.65 5.8 42.35 5.8 44.05 7.5 45.75 9.2 45.75 11.85" fill="#000000" fill-rule="evenodd" stroke="none"/>
  </g>
</svg>
