<?xml version="1.0" encoding="UTF-8" standalone="no"?>
<svg xmlns:ffdec="https://www.free-decompiler.com/flash" xmlns:xlink="http://www.w3.org/1999/xlink" ffdec:objectType="shape" height="56.0px" width="67.2px" xmlns="http://www.w3.org/2000/svg">
  <g transform="matrix(1.0, 0.0, 0.0, 1.0, 1.0, 0.0)">
    <path d="M49.85 17.35 L54.85 19.0 64.9 20.45 66.2 25.85 66.15 31.8 65.1 35.15 63.7 37.2 53.75 36.7 49.0 37.8 46.45 40.25 45.65 43.5 45.7 51.6 42.65 54.15 36.15 56.0 30.75 55.75 23.65 52.95 22.65 45.8 20.4 40.6 14.5 38.0 3.05 37.85 0.7 36.05 -1.0 29.7 -0.95 24.75 0.65 20.3 6.85 20.6 10.75 20.05 15.6 18.25 19.2 14.5 20.85 9.15 20.35 3.8 24.05 1.35 29.85 0.0 34.5 0.0 39.85 1.35 43.65 3.8 44.2 8.85 45.95 14.0 49.85 17.35 M27.3 44.05 L34.3 51.95 41.25 43.7 27.3 44.05 M3.2 28.15 L11.45 33.9 11.05 22.35 3.2 28.15 M32.75 2.95 L25.4 11.2 40.3 10.85 32.75 2.95 M54.3 20.85 L54.7 32.35 62.6 26.6 54.3 20.85" fill="#ffffff" fill-opacity="0.29803923" fill-rule="evenodd" stroke="none"/>
  </g>
</svg>
