<?xml version="1.0" encoding="UTF-8" standalone="no"?>
<svg xmlns:ffdec="https://www.free-decompiler.com/flash" xmlns:xlink="http://www.w3.org/1999/xlink" ffdec:objectType="shape" height="969.85px" width="1280.0px" xmlns="http://www.w3.org/2000/svg">
  <g transform="matrix(1.0, 0.0, 0.0, 1.0, 0.0, -63.5)">
    <path d="M1280.0 245.2 L0.0 245.2 0.0 243.2 1280.0 243.2 1280.0 245.2" fill="#085ba8" fill-rule="evenodd" stroke="none"/>
    <path d="M1280.0 65.5 L0.0 65.5 0.0 63.5 1280.0 63.5 1280.0 65.5" fill="#085ba8" fill-rule="evenodd" stroke="none"/>
    <path d="M1280.0 300.9 L0.0 300.9 0.0 298.9 1280.0 298.9 1280.0 300.9" fill="#085ba8" fill-rule="evenodd" stroke="none"/>
    <path d="M1057.0 251.6 L1057.0 291.6 1055.0 291.6 1055.0 251.6 1057.0 251.6" fill="#0680f0" fill-rule="evenodd" stroke="none"/>
    <path d="M213.0 292.05 L211.0 292.05 211.0 252.05 213.0 252.05 213.0 292.05" fill="#0680f0" fill-rule="evenodd" stroke="none"/>
    <path d="M633.0 292.05 L633.0 252.05 635.0 252.05 635.0 292.05 633.0 292.05" fill="#0680f0" fill-rule="evenodd" stroke="none"/>
    <path d="M1034.1 360.9 L233.9 360.9 Q233.9 368.95 225.85 368.95 L225.85 1023.9 Q233.9 1023.9 233.9 1032.0 L1034.1 1032.0 Q1034.1 1023.9 1042.15 1023.9 L1042.15 368.95 Q1034.1 368.95 1034.1 360.9 Z" fill="none" stroke="#81b1d5" stroke-linecap="round" stroke-linejoin="round" stroke-width="2.75"/>
  </g>
</svg>
