<?xml version="1.0" encoding="UTF-8" standalone="no"?>
<svg xmlns:ffdec="https://www.free-decompiler.com/flash" xmlns:xlink="http://www.w3.org/1999/xlink" ffdec:objectType="shape" height="358.0px" width="347.95px" xmlns="http://www.w3.org/2000/svg">
  <g transform="matrix(1.0, 0.0, 0.0, 1.0, 187.95, 408.3)">
    <path d="M158.65 -264.35 L158.65 -50.3 -187.95 -50.3 -187.95 -408.3 109.65 -408.3 109.65 -264.35 158.65 -264.35" fill="#434343" fill-rule="evenodd" stroke="none"/>
    <path d="M-63.95 -307.85 L-54.95 -307.85 -54.95 -309.5 -56.75 -309.5 -56.75 -311.8 -71.45 -311.8 -71.45 -399.7 1.5 -399.7 1.5 -344.25 3.0 -344.25 3.0 -350.9 28.4 -350.9 28.4 -311.8 3.0 -311.8 3.0 -328.4 1.5 -328.4 1.5 -311.8 -25.1 -311.8 -25.1 -309.5 -27.95 -309.5 -27.95 -307.85 -17.95 -307.85 -17.95 -265.0 103.0 -265.0 103.0 -249.0 106.65 -249.0 106.65 -150.35 103.0 -150.35 103.0 -134.35 -17.55 -134.35 -17.55 -132.15 -27.65 -132.15 -27.65 -129.7 -25.0 -129.7 -25.0 -127.45 -18.0 -127.45 -18.0 -114.65 0.65 -114.65 0.65 -66.0 -73.2 -66.0 -73.2 -127.45 -56.55 -127.45 -56.55 -129.7 -53.9 -129.7 -53.9 -132.15 -64.0 -132.15 -64.0 -169.35 -68.35 -169.35 -68.35 -173.85 -73.35 -173.85 -73.35 -148.5 -176.7 -148.5 -176.7 -250.85 -73.35 -250.85 -73.35 -204.2 -68.35 -204.2 -68.35 -264.7 -63.95 -264.7 -63.95 -307.85" fill="#969696" fill-rule="evenodd" stroke="none"/>
    <path d="M106.3 -248.7 L109.65 -248.7 109.65 -259.9 154.75 -259.9 154.75 -143.25 109.65 -143.25 109.65 -150.35 106.3 -150.35 106.3 -248.7" fill="#707070" fill-rule="evenodd" stroke="none"/>
    <path d="M109.65 -263.25 L109.65 -266.35 160.0 -266.35 160.0 -137.7 109.65 -137.7 109.65 -139.9 158.1 -139.9 158.1 -263.25 109.65 -263.25" fill="#707070" fill-rule="evenodd" stroke="none"/>
    <path d="M-14.25 -219.1 L-14.25 -223.4 43.1 -223.4 43.1 -174.5 -14.25 -174.5 -14.25 -178.85 -24.7 -178.85 -24.7 -219.1 -14.25 -219.1" fill="#707070" fill-rule="evenodd" stroke="none"/>
    <path d="M-176.7 -234.95 L-176.7 -250.85 -89.6 -250.85 -89.6 -234.95 -176.7 -234.95" fill="#707070" fill-rule="evenodd" stroke="none"/>
    <path d="M-88.9 -164.85 L-88.9 -148.5 -176.7 -148.5 -176.7 -164.85 -88.9 -164.85" fill="#707070" fill-rule="evenodd" stroke="none"/>
    <path d="M52.85 -252.0 L52.85 -265.0 86.2 -265.0 86.2 -252.0 52.85 -252.0" fill="#707070" fill-rule="evenodd" stroke="none"/>
    <path d="M63.75 -153.1 L63.75 -135.6 45.55 -135.6 45.55 -153.1 63.75 -153.1" fill="#707070" fill-rule="evenodd" stroke="none"/>
    <path d="M-87.15 -162.85 L-75.8 -162.85 -75.8 -149.4 -87.15 -149.4 -87.15 -162.85" fill="#707070" fill-rule="evenodd" stroke="none"/>
    <path d="M39.55 -143.65 L41.3 -142.45 42.25 -140.55 42.05 -138.45 40.85 -136.7 38.95 -135.75 36.85 -135.95 35.1 -137.15 34.15 -139.05 34.35 -141.15 35.55 -142.9 37.45 -143.85 39.55 -143.65" fill="#707070" fill-rule="evenodd" stroke="none"/>
    <path d="M91.85 -138.4 L89.0 -138.6 86.65 -140.25 85.4 -142.85 85.6 -145.7 87.25 -148.1 89.85 -149.3 92.7 -149.1 95.05 -147.5 96.3 -144.9 96.1 -142.0 94.45 -139.65 91.85 -138.4" fill="#707070" fill-rule="evenodd" stroke="none"/>
    <path d="M100.05 -254.35 L99.95 -252.6 98.95 -251.15 97.35 -250.4 95.6 -250.5 94.1 -251.5 93.35 -253.1 93.5 -254.85 94.5 -256.3 96.1 -257.1 97.85 -256.95 99.3 -255.95 100.05 -254.35" fill="#707070" fill-rule="evenodd" stroke="none"/>
    <path d="M64.8 -143.4 L76.2 -150.7 79.8 -143.95 79.5 -140.55 77.6 -137.75 74.5 -136.25 71.15 -136.55 68.3 -138.45 64.8 -143.4" fill="#707070" fill-rule="evenodd" stroke="none"/>
    <path d="M-67.35 -261.9 L-66.25 -262.65 -64.9 -262.85 -63.45 -262.5 -61.95 -261.7 -60.65 -260.45 -59.6 -258.9 -59.0 -257.2 -58.8 -255.55 -59.05 -254.05 -59.75 -252.85 -60.85 -252.15 -62.2 -251.95 -63.7 -252.25 -65.15 -253.1 -66.5 -254.35 -67.5 -255.9 -68.15 -257.6 -68.35 -259.25 -68.05 -260.75 -67.35 -261.9" fill="#707070" fill-rule="evenodd" stroke="none"/>
    <path d="M5.75 -345.9 L5.75 -350.9 24.2 -350.9 24.2 -345.9 5.75 -345.9" fill="#707070" fill-rule="evenodd" stroke="none"/>
    <path d="M-30.9 -360.25 L-30.9 -399.7 1.5 -399.7 1.5 -360.25 -30.9 -360.25" fill="#707070" fill-rule="evenodd" stroke="none"/>
    <path d="M-64.0 -378.5 L-64.0 -377.35 -58.2 -377.35 -58.2 -332.9 -64.0 -332.9 -64.0 -331.75 -71.45 -331.75 -71.45 -378.5 -64.0 -378.5" fill="#707070" fill-rule="evenodd" stroke="none"/>
    <path d="M-63.5 -393.85 L-62.0 -393.85 -60.55 -393.5 -59.3 -392.75 -58.45 -391.75 -57.95 -390.55 -57.95 -389.3 -58.4 -388.05 -59.25 -387.05 -60.45 -386.3 -61.9 -385.9 -63.4 -385.85 -64.8 -386.25 -65.5 -386.65 -65.5 -385.3 -71.45 -385.3 -71.45 -394.45 -65.5 -394.45 -65.5 -393.05 -64.9 -393.45 -63.5 -393.85" fill="#707070" fill-rule="evenodd" stroke="none"/>
    <path d="M0.65 -59.35 L0.65 -114.65 98.4 -114.65 98.4 -59.35 0.65 -59.35" fill="#ffffff" fill-rule="evenodd" stroke="none"/>
  </g>
</svg>
