<?xml version="1.0" encoding="UTF-8" standalone="no"?>
<svg xmlns:ffdec="https://www.free-decompiler.com/flash" xmlns:xlink="http://www.w3.org/1999/xlink" ffdec:objectType="shape" height="73.0px" width="262.0px" xmlns="http://www.w3.org/2000/svg">
  <g transform="matrix(1.0, 0.0, 0.0, 1.0, 0.0, 0.0)">
    <path d="M141.0 33.0 L121.0 33.0 121.0 13.0 141.0 13.0 141.0 33.0" fill="#4dffff" fill-rule="evenodd" stroke="none"/>
    <path d="M121.0 13.0 L141.0 33.0" fill="none" stroke="#292929" stroke-linecap="butt" stroke-linejoin="miter-clip" stroke-miterlimit="10.0" stroke-width="1.0"/>
    <path d="M141.0 13.0 L121.0 33.0" fill="none" stroke="#292929" stroke-linecap="butt" stroke-linejoin="miter-clip" stroke-miterlimit="10.0" stroke-width="1.0"/>
    <path d="M262.0 1.0 L0.0 1.0 0.0 0.0 262.0 0.0 262.0 1.0" fill="#4dffff" fill-rule="evenodd" stroke="none"/>
    <path d="M262.0 73.0 L0.0 73.0 0.0 72.0 262.0 72.0 262.0 73.0" fill="#4dffff" fill-rule="evenodd" stroke="none"/>
    <path d="M1.0 0.0 L1.0 72.0 0.0 72.0 0.0 0.0 1.0 0.0" fill="#4dffff" fill-rule="evenodd" stroke="none"/>
    <path d="M262.0 0.0 L262.0 72.0 261.0 72.0 261.0 0.0 262.0 0.0" fill="#4dffff" fill-rule="evenodd" stroke="none"/>
  </g>
</svg>
