<?xml version="1.0" encoding="UTF-8" standalone="no"?>
<svg xmlns:ffdec="https://www.free-decompiler.com/flash" xmlns:xlink="http://www.w3.org/1999/xlink" ffdec:objectType="shape" height="73.0px" width="262.0px" xmlns="http://www.w3.org/2000/svg">
  <g transform="matrix(1.0, 0.0, 0.0, 1.0, 0.0, 0.0)">
    <path d="M140.55 14.2 L122.2 32.55 121.5 31.85 139.85 13.5 140.55 14.2" fill="#808080" fill-rule="evenodd" stroke="none"/>
    <path d="M140.95 14.0 L121.0 14.0 121.0 13.0 140.95 13.0 140.95 14.0" fill="#808080" fill-rule="evenodd" stroke="none"/>
    <path d="M122.0 13.0 L122.0 32.95 121.0 32.95 121.0 13.0 122.0 13.0" fill="#808080" fill-rule="evenodd" stroke="none"/>
    <path d="M141.0 13.0 L141.0 32.95 140.0 32.95 140.0 13.0 141.0 13.0" fill="#808080" fill-rule="evenodd" stroke="none"/>
    <path d="M140.95 33.0 L121.0 33.0 121.0 32.0 140.95 32.0 140.95 33.0" fill="#808080" fill-rule="evenodd" stroke="none"/>
    <path d="M122.2 13.5 L140.55 31.85 139.85 32.55 121.5 14.2 122.2 13.5" fill="#808080" fill-rule="evenodd" stroke="none"/>
    <path d="M262.0 1.0 L0.0 1.0 0.0 0.0 262.0 0.0 262.0 1.0" fill="#808080" fill-rule="evenodd" stroke="none"/>
    <path d="M262.0 73.0 L0.0 73.0 0.0 72.0 262.0 72.0 262.0 73.0" fill="#808080" fill-rule="evenodd" stroke="none"/>
    <path d="M1.0 0.0 L1.0 72.0 0.0 72.0 0.0 0.0 1.0 0.0" fill="#808080" fill-rule="evenodd" stroke="none"/>
    <path d="M262.0 0.0 L262.0 72.0 261.0 72.0 261.0 0.0 262.0 0.0" fill="#808080" fill-rule="evenodd" stroke="none"/>
  </g>
</svg>
