<?xml version="1.0" encoding="UTF-8" standalone="no"?>
<svg xmlns:ffdec="https://www.free-decompiler.com/flash" xmlns:xlink="http://www.w3.org/1999/xlink" ffdec:objectType="shape" height="67.0px" width="208.0px" xmlns="http://www.w3.org/2000/svg">
  <g transform="matrix(1.0, 0.0, 0.0, 1.0, 0.0, 0.0)">
    <path d="M208.0 67.0 L0.0 67.0 0.0 0.0 208.0 0.0 208.0 67.0" fill="#e40000" fill-rule="evenodd" stroke="none"/>
    <path d="M190.0 21.0 L202.5 33.5 190.0 46.0 190.0 21.0 M18.0 21.0 L18.0 46.0 5.5 33.5 18.0 21.0" fill="#ffffff" fill-rule="evenodd" stroke="none"/>
    <path d="M208.0 2.0 L0.0 2.0 0.0 0.0 208.0 0.0 208.0 2.0" fill="#ffffff" fill-rule="evenodd" stroke="none"/>
    <path d="M208.0 67.0 L0.0 67.0 0.0 65.0 208.0 65.0 208.0 67.0" fill="#ffffff" fill-rule="evenodd" stroke="none"/>
    <path d="M2.0 0.0 L2.0 67.0 0.0 67.0 0.0 0.0 2.0 0.0" fill="#ffffff" fill-rule="evenodd" stroke="none"/>
    <path d="M208.0 0.0 L208.0 67.0 206.0 67.0 206.0 0.0 208.0 0.0" fill="#ffffff" fill-rule="evenodd" stroke="none"/>
  </g>
</svg>
