<?xml version="1.0" encoding="UTF-8" standalone="no"?>
<svg xmlns:ffdec="https://www.free-decompiler.com/flash" xmlns:xlink="http://www.w3.org/1999/xlink" ffdec:objectType="shape" height="331.0px" width="208.0px" xmlns="http://www.w3.org/2000/svg">
  <g transform="matrix(1.0, 0.0, 0.0, 1.0, -10.5, -18.0)">
    <path d="M218.5 93.95 L10.5 93.95 10.5 67.95 218.5 67.95 218.5 93.95" fill="#333333" fill-rule="evenodd" stroke="none"/>
    <path d="M10.5 282.0 L218.5 282.0 218.5 349.0 10.5 349.0 10.5 282.0" fill="#1a1a1a" fill-rule="evenodd" stroke="none"/>
    <path d="M218.5 283.0 L10.5 283.0 10.5 282.0 218.5 282.0 218.5 283.0" fill="#4d4d4d" fill-rule="evenodd" stroke="none"/>
    <path d="M218.5 349.0 L10.5 349.0 10.5 348.0 218.5 348.0 218.5 349.0" fill="#4d4d4d" fill-rule="evenodd" stroke="none"/>
    <path d="M11.5 282.0 L11.5 349.0 10.5 349.0 10.5 282.0 11.5 282.0" fill="#4d4d4d" fill-rule="evenodd" stroke="none"/>
    <path d="M218.5 282.0 L218.5 349.0 217.5 349.0 217.5 282.0 218.5 282.0" fill="#4d4d4d" fill-rule="evenodd" stroke="none"/>
    <path d="M218.5 60.0 L10.5 60.0 10.5 18.0 218.5 18.0 218.5 60.0" fill="#1a1a1a" fill-rule="evenodd" stroke="none"/>
  </g>
</svg>
