<?xml version="1.0" encoding="UTF-8" standalone="no"?>
<svg xmlns:ffdec="https://www.free-decompiler.com/flash" xmlns:xlink="http://www.w3.org/1999/xlink" ffdec:objectType="shape" height="152.0px" width="1288.0px" xmlns="http://www.w3.org/2000/svg">
  <g transform="matrix(1.0, 0.0, 0.0, 1.0, 0.0, 0.0)">
    <path d="M1288.0 1.0 L0.0 1.0 0.0 0.0 1288.0 0.0 1288.0 1.0" fill="#4d4d4d" fill-rule="evenodd" stroke="none"/>
    <path d="M1.0 0.0 L1.0 152.0 0.0 152.0 0.0 0.0 1.0 0.0" fill="#4d4d4d" fill-rule="evenodd" stroke="none"/>
    <path d="M1288.0 152.0 L0.0 152.0 0.0 151.0 1288.0 151.0 1288.0 152.0" fill="#4d4d4d" fill-rule="evenodd" stroke="none"/>
    <path d="M1288.0 0.0 L1288.0 152.0 1287.0 152.0 1287.0 0.0 1288.0 0.0" fill="#4d4d4d" fill-rule="evenodd" stroke="none"/>
    <path d="M1249.0 50.0 L39.0 50.0 39.0 49.0 1249.0 49.0 1249.0 50.0" fill="#4d4d4d" fill-rule="evenodd" stroke="none"/>
    <path d="M40.0 49.0 L40.0 93.0 39.0 93.0 39.0 49.0 40.0 49.0" fill="#4d4d4d" fill-rule="evenodd" stroke="none"/>
    <path d="M1249.0 49.0 L1249.0 93.0 1248.0 93.0 1248.0 49.0 1249.0 49.0" fill="#4d4d4d" fill-rule="evenodd" stroke="none"/>
    <path d="M308.0 34.0 L8.0 34.0 8.0 33.0 308.0 33.0 308.0 34.0" fill="#4d4d4d" fill-rule="evenodd" stroke="none"/>
  </g>
</svg>
