<?xml version="1.0" encoding="UTF-8" standalone="no"?>
<svg xmlns:ffdec="https://www.free-decompiler.com/flash" xmlns:xlink="http://www.w3.org/1999/xlink" ffdec:objectType="shape" height="23.0px" width="1210.0px" xmlns="http://www.w3.org/2000/svg">
  <g transform="matrix(1.0, 0.0, 0.0, 1.0, 0.0, 0.0)">
    <path d="M1210.0 1.0 L0.0 1.0 0.0 0.0 1210.0 0.0 1210.0 1.0" fill="#4d4d4d" fill-rule="evenodd" stroke="none"/>
    <path d="M1210.0 23.0 L0.0 23.0 0.0 22.0 1210.0 22.0 1210.0 23.0" fill="#4d4d4d" fill-rule="evenodd" stroke="none"/>
    <path d="M1.0 0.0 L1.0 23.0 0.0 23.0 0.0 0.0 1.0 0.0" fill="#4d4d4d" fill-rule="evenodd" stroke="none"/>
    <path d="M1210.0 0.0 L1210.0 23.0 1209.0 23.0 1209.0 0.0 1210.0 0.0" fill="#4d4d4d" fill-rule="evenodd" stroke="none"/>
    <path d="M1.0 0.0 L1.0 23.0 0.0 23.0 0.0 0.0 1.0 0.0" fill="#4d4d4d" fill-rule="evenodd" stroke="none"/>
    <path d="M1210.0 0.0 L1210.0 23.0 1209.0 23.0 1209.0 0.0 1210.0 0.0" fill="#4d4d4d" fill-rule="evenodd" stroke="none"/>
    <path d="M121.9 0.0 L121.9 23.0 120.9 23.0 120.9 0.0 121.9 0.0" fill="#4d4d4d" fill-rule="evenodd" stroke="none"/>
    <path d="M242.8 0.0 L242.8 23.0 241.8 23.0 241.8 0.0 242.8 0.0" fill="#4d4d4d" fill-rule="evenodd" stroke="none"/>
    <path d="M363.7 0.0 L363.7 23.0 362.7 23.0 362.7 0.0 363.7 0.0" fill="#4d4d4d" fill-rule="evenodd" stroke="none"/>
    <path d="M484.6 0.0 L484.6 23.0 483.6 23.0 483.6 0.0 484.6 0.0" fill="#4d4d4d" fill-rule="evenodd" stroke="none"/>
    <path d="M605.5 0.0 L605.5 23.0 604.5 23.0 604.5 0.0 605.5 0.0" fill="#4d4d4d" fill-rule="evenodd" stroke="none"/>
    <path d="M847.3 0.0 L847.3 23.0 846.3 23.0 846.3 0.0 847.3 0.0" fill="#4d4d4d" fill-rule="evenodd" stroke="none"/>
    <path d="M968.2 0.0 L968.2 23.0 967.2 23.0 967.2 0.0 968.2 0.0" fill="#4d4d4d" fill-rule="evenodd" stroke="none"/>
    <path d="M1089.1 0.0 L1089.1 23.0 1088.1 23.0 1088.1 0.0 1089.1 0.0" fill="#4d4d4d" fill-rule="evenodd" stroke="none"/>
    <path d="M726.4 0.0 L726.4 23.0 725.4 23.0 725.4 0.0 726.4 0.0" fill="#4d4d4d" fill-rule="evenodd" stroke="none"/>
  </g>
</svg>
