<?xml version="1.0" encoding="UTF-8" standalone="no"?>
<svg xmlns:ffdec="https://www.free-decompiler.com/flash" xmlns:xlink="http://www.w3.org/1999/xlink" ffdec:objectType="shape" height="900.0px" width="2323.0px" xmlns="http://www.w3.org/2000/svg">
  <g transform="matrix(1.0, 0.0, 0.0, 1.0, -10.0, 0.0)">
    <path d="M2333.0 360.0 L666.0 360.0 666.0 0.0 2333.0 0.0 2333.0 360.0" fill="#000000" fill-rule="evenodd" stroke="none"/>
    <path d="M2333.0 900.0 L999.0 900.0 999.0 360.0 2333.0 360.0 2333.0 900.0" fill="#000000" fill-rule="evenodd" stroke="none"/>
    <path d="M21.0 25.0 L21.0 27.0 10.0 27.0 10.0 25.0 21.0 25.0" fill="#4d4d4d" fill-rule="evenodd" stroke="none"/>
    <path d="M21.0 36.0 L21.0 38.0 10.0 38.0 10.0 36.0 21.0 36.0" fill="#4d4d4d" fill-rule="evenodd" stroke="none"/>
    <path d="M21.0 47.0 L21.0 49.0 10.0 49.0 10.0 47.0 21.0 47.0" fill="#4d4d4d" fill-rule="evenodd" stroke="none"/>
    <path d="M21.0 58.0 L21.0 60.0 10.0 60.0 10.0 58.0 21.0 58.0" fill="#4d4d4d" fill-rule="evenodd" stroke="none"/>
    <path d="M21.0 69.0 L21.0 71.0 10.0 71.0 10.0 69.0 21.0 69.0" fill="#4d4d4d" fill-rule="evenodd" stroke="none"/>
    <path d="M21.0 80.0 L21.0 82.0 10.0 82.0 10.0 80.0 21.0 80.0" fill="#4d4d4d" fill-rule="evenodd" stroke="none"/>
    <path d="M21.0 91.0 L21.0 93.0 10.0 93.0 10.0 91.0 21.0 91.0" fill="#4d4d4d" fill-rule="evenodd" stroke="none"/>
    <path d="M21.0 102.0 L21.0 104.0 10.0 104.0 10.0 102.0 21.0 102.0" fill="#4d4d4d" fill-rule="evenodd" stroke="none"/>
    <path d="M21.0 113.0 L21.0 115.0 10.0 115.0 10.0 113.0 21.0 113.0" fill="#4d4d4d" fill-rule="evenodd" stroke="none"/>
    <path d="M21.0 124.0 L21.0 126.0 10.0 126.0 10.0 124.0 21.0 124.0" fill="#4d4d4d" fill-rule="evenodd" stroke="none"/>
    <path d="M21.0 135.0 L21.0 137.0 10.0 137.0 10.0 135.0 21.0 135.0" fill="#4d4d4d" fill-rule="evenodd" stroke="none"/>
    <path d="M21.0 146.0 L21.0 148.0 10.0 148.0 10.0 146.0 21.0 146.0" fill="#4d4d4d" fill-rule="evenodd" stroke="none"/>
    <path d="M21.0 157.0 L21.0 159.0 10.0 159.0 10.0 157.0 21.0 157.0" fill="#4d4d4d" fill-rule="evenodd" stroke="none"/>
    <path d="M21.0 168.0 L21.0 170.0 10.0 170.0 10.0 168.0 21.0 168.0" fill="#4d4d4d" fill-rule="evenodd" stroke="none"/>
    <path d="M21.0 179.0 L21.0 181.0 10.0 181.0 10.0 179.0 21.0 179.0" fill="#4d4d4d" fill-rule="evenodd" stroke="none"/>
    <path d="M21.0 190.0 L21.0 192.0 10.0 192.0 10.0 190.0 21.0 190.0" fill="#4d4d4d" fill-rule="evenodd" stroke="none"/>
    <path d="M21.0 201.0 L21.0 203.0 10.0 203.0 10.0 201.0 21.0 201.0" fill="#4d4d4d" fill-rule="evenodd" stroke="none"/>
    <path d="M21.0 212.0 L21.0 214.0 10.0 214.0 10.0 212.0 21.0 212.0" fill="#4d4d4d" fill-rule="evenodd" stroke="none"/>
    <path d="M21.0 223.0 L21.0 225.0 10.0 225.0 10.0 223.0 21.0 223.0" fill="#4d4d4d" fill-rule="evenodd" stroke="none"/>
    <path d="M21.0 234.0 L21.0 236.0 10.0 236.0 10.0 234.0 21.0 234.0" fill="#4d4d4d" fill-rule="evenodd" stroke="none"/>
    <path d="M21.0 245.0 L21.0 247.0 10.0 247.0 10.0 245.0 21.0 245.0" fill="#4d4d4d" fill-rule="evenodd" stroke="none"/>
    <path d="M21.0 256.0 L21.0 258.0 10.0 258.0 10.0 256.0 21.0 256.0" fill="#4d4d4d" fill-rule="evenodd" stroke="none"/>
    <path d="M21.0 267.0 L21.0 269.0 10.0 269.0 10.0 267.0 21.0 267.0" fill="#4d4d4d" fill-rule="evenodd" stroke="none"/>
    <path d="M21.0 278.0 L21.0 280.0 10.0 280.0 10.0 278.0 21.0 278.0" fill="#4d4d4d" fill-rule="evenodd" stroke="none"/>
    <path d="M21.0 289.0 L21.0 291.0 10.0 291.0 10.0 289.0 21.0 289.0" fill="#4d4d4d" fill-rule="evenodd" stroke="none"/>
    <path d="M21.0 300.0 L21.0 302.0 10.0 302.0 10.0 300.0 21.0 300.0" fill="#4d4d4d" fill-rule="evenodd" stroke="none"/>
    <path d="M21.0 311.0 L21.0 313.0 10.0 313.0 10.0 311.0 21.0 311.0" fill="#4d4d4d" fill-rule="evenodd" stroke="none"/>
    <path d="M21.0 322.0 L21.0 324.0 10.0 324.0 10.0 322.0 21.0 322.0" fill="#4d4d4d" fill-rule="evenodd" stroke="none"/>
    <path d="M21.0 333.0 L21.0 335.0 10.0 335.0 10.0 333.0 21.0 333.0" fill="#4d4d4d" fill-rule="evenodd" stroke="none"/>
    <path d="M21.0 344.0 L21.0 346.0 10.0 346.0 10.0 344.0 21.0 344.0" fill="#4d4d4d" fill-rule="evenodd" stroke="none"/>
    <path d="M21.0 355.0 L21.0 357.0 10.0 357.0 10.0 355.0 21.0 355.0" fill="#4d4d4d" fill-rule="evenodd" stroke="none"/>
    <path d="M21.0 366.0 L21.0 368.0 10.0 368.0 10.0 366.0 21.0 366.0" fill="#4d4d4d" fill-rule="evenodd" stroke="none"/>
    <path d="M21.0 377.0 L21.0 379.0 10.0 379.0 10.0 377.0 21.0 377.0" fill="#4d4d4d" fill-rule="evenodd" stroke="none"/>
    <path d="M21.0 388.0 L21.0 390.0 10.0 390.0 10.0 388.0 21.0 388.0" fill="#4d4d4d" fill-rule="evenodd" stroke="none"/>
    <path d="M21.0 399.0 L21.0 401.0 10.0 401.0 10.0 399.0 21.0 399.0" fill="#4d4d4d" fill-rule="evenodd" stroke="none"/>
    <path d="M21.0 410.0 L21.0 412.0 10.0 412.0 10.0 410.0 21.0 410.0" fill="#4d4d4d" fill-rule="evenodd" stroke="none"/>
    <path d="M21.0 421.0 L21.0 423.0 10.0 423.0 10.0 421.0 21.0 421.0" fill="#4d4d4d" fill-rule="evenodd" stroke="none"/>
    <path d="M21.0 432.0 L21.0 434.0 10.0 434.0 10.0 432.0 21.0 432.0" fill="#4d4d4d" fill-rule="evenodd" stroke="none"/>
    <path d="M21.0 443.0 L21.0 445.0 10.0 445.0 10.0 443.0 21.0 443.0" fill="#4d4d4d" fill-rule="evenodd" stroke="none"/>
    <path d="M21.0 454.0 L21.0 456.0 10.0 456.0 10.0 454.0 21.0 454.0" fill="#4d4d4d" fill-rule="evenodd" stroke="none"/>
    <path d="M21.0 465.0 L21.0 467.0 10.0 467.0 10.0 465.0 21.0 465.0" fill="#4d4d4d" fill-rule="evenodd" stroke="none"/>
    <path d="M21.0 476.0 L21.0 478.0 10.0 478.0 10.0 476.0 21.0 476.0" fill="#4d4d4d" fill-rule="evenodd" stroke="none"/>
    <path d="M21.0 487.0 L21.0 489.0 10.0 489.0 10.0 487.0 21.0 487.0" fill="#4d4d4d" fill-rule="evenodd" stroke="none"/>
    <path d="M21.0 498.0 L21.0 500.0 10.0 500.0 10.0 498.0 21.0 498.0" fill="#4d4d4d" fill-rule="evenodd" stroke="none"/>
    <path d="M21.0 509.0 L21.0 511.0 10.0 511.0 10.0 509.0 21.0 509.0" fill="#4d4d4d" fill-rule="evenodd" stroke="none"/>
    <path d="M21.0 520.0 L21.0 522.0 10.0 522.0 10.0 520.0 21.0 520.0" fill="#4d4d4d" fill-rule="evenodd" stroke="none"/>
    <path d="M21.0 531.0 L21.0 533.0 10.0 533.0 10.0 531.0 21.0 531.0" fill="#4d4d4d" fill-rule="evenodd" stroke="none"/>
    <path d="M21.0 542.0 L21.0 544.0 10.0 544.0 10.0 542.0 21.0 542.0" fill="#4d4d4d" fill-rule="evenodd" stroke="none"/>
    <path d="M21.0 553.0 L21.0 555.0 10.0 555.0 10.0 553.0 21.0 553.0" fill="#4d4d4d" fill-rule="evenodd" stroke="none"/>
    <path d="M21.0 564.0 L21.0 566.0 10.0 566.0 10.0 564.0 21.0 564.0" fill="#4d4d4d" fill-rule="evenodd" stroke="none"/>
    <path d="M21.0 575.0 L21.0 577.0 10.0 577.0 10.0 575.0 21.0 575.0" fill="#4d4d4d" fill-rule="evenodd" stroke="none"/>
    <path d="M21.0 586.0 L21.0 588.0 10.0 588.0 10.0 586.0 21.0 586.0" fill="#4d4d4d" fill-rule="evenodd" stroke="none"/>
    <path d="M21.0 597.0 L21.0 599.0 10.0 599.0 10.0 597.0 21.0 597.0" fill="#4d4d4d" fill-rule="evenodd" stroke="none"/>
    <path d="M21.0 608.0 L21.0 610.0 10.0 610.0 10.0 608.0 21.0 608.0" fill="#4d4d4d" fill-rule="evenodd" stroke="none"/>
    <path d="M21.0 619.0 L21.0 621.0 10.0 621.0 10.0 619.0 21.0 619.0" fill="#4d4d4d" fill-rule="evenodd" stroke="none"/>
    <path d="M21.0 630.0 L21.0 632.0 10.0 632.0 10.0 630.0 21.0 630.0" fill="#4d4d4d" fill-rule="evenodd" stroke="none"/>
    <path d="M21.0 641.0 L21.0 643.0 10.0 643.0 10.0 641.0 21.0 641.0" fill="#4d4d4d" fill-rule="evenodd" stroke="none"/>
    <path d="M21.0 652.0 L21.0 654.0 10.0 654.0 10.0 652.0 21.0 652.0" fill="#4d4d4d" fill-rule="evenodd" stroke="none"/>
    <path d="M21.0 663.0 L21.0 665.0 10.0 665.0 10.0 663.0 21.0 663.0" fill="#4d4d4d" fill-rule="evenodd" stroke="none"/>
    <path d="M21.0 674.0 L21.0 676.0 10.0 676.0 10.0 674.0 21.0 674.0" fill="#4d4d4d" fill-rule="evenodd" stroke="none"/>
    <path d="M21.0 685.0 L21.0 687.0 10.0 687.0 10.0 685.0 21.0 685.0" fill="#4d4d4d" fill-rule="evenodd" stroke="none"/>
    <path d="M21.0 696.0 L21.0 698.0 10.0 698.0 10.0 696.0 21.0 696.0" fill="#4d4d4d" fill-rule="evenodd" stroke="none"/>
    <path d="M21.0 707.0 L21.0 709.0 10.0 709.0 10.0 707.0 21.0 707.0" fill="#4d4d4d" fill-rule="evenodd" stroke="none"/>
    <path d="M21.0 718.0 L21.0 720.0 10.0 720.0 10.0 718.0 21.0 718.0" fill="#4d4d4d" fill-rule="evenodd" stroke="none"/>
    <path d="M21.0 729.0 L21.0 731.0 10.0 731.0 10.0 729.0 21.0 729.0" fill="#4d4d4d" fill-rule="evenodd" stroke="none"/>
    <path d="M21.0 740.0 L21.0 742.0 10.0 742.0 10.0 740.0 21.0 740.0" fill="#4d4d4d" fill-rule="evenodd" stroke="none"/>
    <path d="M21.0 751.0 L21.0 753.0 10.0 753.0 10.0 751.0 21.0 751.0" fill="#4d4d4d" fill-rule="evenodd" stroke="none"/>
    <path d="M21.0 762.0 L21.0 764.0 10.0 764.0 10.0 762.0 21.0 762.0" fill="#4d4d4d" fill-rule="evenodd" stroke="none"/>
    <path d="M21.0 773.0 L21.0 775.0 10.0 775.0 10.0 773.0 21.0 773.0" fill="#4d4d4d" fill-rule="evenodd" stroke="none"/>
    <path d="M21.0 784.0 L21.0 786.0 10.0 786.0 10.0 784.0 21.0 784.0" fill="#4d4d4d" fill-rule="evenodd" stroke="none"/>
    <path d="M21.0 795.0 L21.0 797.0 10.0 797.0 10.0 795.0 21.0 795.0" fill="#4d4d4d" fill-rule="evenodd" stroke="none"/>
    <path d="M21.0 806.0 L21.0 808.0 10.0 808.0 10.0 806.0 21.0 806.0" fill="#4d4d4d" fill-rule="evenodd" stroke="none"/>
    <path d="M21.0 817.0 L21.0 819.0 10.0 819.0 10.0 817.0 21.0 817.0" fill="#4d4d4d" fill-rule="evenodd" stroke="none"/>
    <path d="M21.0 828.0 L21.0 830.0 10.0 830.0 10.0 828.0 21.0 828.0" fill="#4d4d4d" fill-rule="evenodd" stroke="none"/>
    <path d="M21.0 839.0 L21.0 841.0 10.0 841.0 10.0 839.0 21.0 839.0" fill="#4d4d4d" fill-rule="evenodd" stroke="none"/>
    <path d="M21.0 850.0 L21.0 852.0 10.0 852.0 10.0 850.0 21.0 850.0" fill="#4d4d4d" fill-rule="evenodd" stroke="none"/>
    <path d="M21.0 861.0 L21.0 863.0 10.0 863.0 10.0 861.0 21.0 861.0" fill="#4d4d4d" fill-rule="evenodd" stroke="none"/>
    <path d="M21.0 872.0 L21.0 874.0 10.0 874.0 10.0 872.0 21.0 872.0" fill="#4d4d4d" fill-rule="evenodd" stroke="none"/>
    <path d="M990.0 11.0 L676.0 11.0 676.0 10.0 990.0 10.0 990.0 11.0" fill="#4d4d4d" fill-rule="evenodd" stroke="none"/>
    <path d="M990.0 535.0 L676.0 535.0 676.0 534.0 990.0 534.0 990.0 535.0" fill="#4d4d4d" fill-rule="evenodd" stroke="none"/>
    <path d="M677.0 10.0 L677.0 900.0 676.0 900.0 676.0 10.0 677.0 10.0" fill="#4d4d4d" fill-rule="evenodd" stroke="none"/>
    <path d="M990.0 10.0 L990.0 900.0 989.0 900.0 989.0 10.0 990.0 10.0" fill="#4d4d4d" fill-rule="evenodd" stroke="none"/>
    <path d="M974.0 547.5 L676.0 547.5 676.0 546.5 974.0 546.5 974.0 547.5" fill="#4d4d4d" fill-rule="evenodd" stroke="none"/>
    <path d="M974.0 892.0 L676.0 892.0 676.0 891.0 974.0 891.0 974.0 892.0" fill="#4d4d4d" fill-rule="evenodd" stroke="none"/>
    <path d="M974.0 442.0 L974.0 791.0 973.0 791.0 973.0 442.0 974.0 442.0" fill="#4d4d4d" fill-rule="evenodd" stroke="none"/>
    <path d="M974.0 725.5 L974.0 891.5 973.0 891.5 973.0 725.5 974.0 725.5" fill="#4d4d4d" fill-rule="evenodd" stroke="none"/>
    <path d="M990.0 442.0 L676.0 442.0 676.0 441.0 990.0 441.0 990.0 442.0" fill="#4d4d4d" fill-rule="evenodd" stroke="none"/>
  </g>
</svg>
