<?xml version="1.0" encoding="UTF-8" standalone="no"?>
<svg xmlns:ffdec="https://www.free-decompiler.com/flash" xmlns:xlink="http://www.w3.org/1999/xlink" ffdec:objectType="shape" height="26.0px" width="215.0px" xmlns="http://www.w3.org/2000/svg">
  <g transform="matrix(1.0, 0.0, 0.0, 1.0, 0.0, 0.0)">
    <path d="M215.0 7.0 L0.0 7.0 0.0 4.0 215.0 4.0 215.0 7.0" fill="#4d4d4d" fill-rule="evenodd" stroke="none"/>
    <path d="M215.0 22.0 L0.0 22.0 0.0 19.0 215.0 19.0 215.0 22.0" fill="#4d4d4d" fill-rule="evenodd" stroke="none"/>
    <path d="M193.0 0.0 L191.0 2.0 189.0 0.0 193.0 0.0 M130.0 26.0 L132.0 24.0 134.0 26.0 130.0 26.0 M60.0 2.0 L58.0 0.0 62.0 0.0 60.0 2.0 M58.0 26.0 L60.0 24.0 62.0 26.0 58.0 26.0" fill="#4dffff" fill-rule="evenodd" stroke="none"/>
    <path d="M215.0 22.0 L0.0 22.0 0.0 19.0 215.0 19.0 215.0 22.0" fill="#4d4d4d" fill-rule="evenodd" stroke="none"/>
    <path d="M189.0 0.0 L193.0 0.0 191.0 2.0 189.0 0.0 M132.0 24.0 L134.0 26.0 130.0 26.0 132.0 24.0 M62.0 0.0 L60.0 2.0 58.0 0.0 62.0 0.0 M60.0 24.0 L62.0 26.0 58.0 26.0 60.0 24.0" fill="#4dffff" fill-rule="evenodd" stroke="none"/>
  </g>
</svg>
