<?xml version="1.0" encoding="UTF-8" standalone="no"?>
<svg xmlns:ffdec="https://www.free-decompiler.com/flash" xmlns:xlink="http://www.w3.org/1999/xlink" ffdec:objectType="shape" height="677.25px" width="712.7px" xmlns="http://www.w3.org/2000/svg">
  <g transform="matrix(1.0, 0.0, 0.0, 1.0, 403.7, 190.25)">
    <path d="M309.0 -129.0 L309.0 160.0 149.0 160.0 149.0 487.0 -167.0 487.0 -167.0 329.65 -403.7 329.65 -403.7 -26.6 -167.0 -26.6 -167.0 -190.0 149.0 -190.0 149.0 -129.0 309.0 -129.0" fill="#434343" fill-rule="evenodd" stroke="none"/>
    <path d="M297.25 -117.0 L297.25 148.0 146.0 148.0 146.0 145.0 137.0 145.0 137.0 188.0 69.0 188.0 69.0 475.0 -155.0 475.0 -155.0 258.65 -162.95 258.65 -162.95 317.65 -391.7 317.65 -391.7 -14.6 -162.95 -14.6 -162.95 39.35 -155.0 39.35 -155.0 -178.0 137.0 -178.0 137.0 -70.0 146.0 -70.0 146.0 -117.0 297.25 -117.0" fill="#969696" fill-rule="evenodd" stroke="none"/>
    <path d="M137.0 151.65 L137.0 155.65 42.3 155.65 42.3 300.0 -28.5 300.0 -28.5 269.0 -132.35 269.0 -132.35 475.0 -136.35 475.0 -136.35 320.7 -138.0 321.8 -140.15 322.2 -142.35 321.8 -144.2 320.55 -145.45 318.7 -145.85 316.5 -145.45 314.35 -144.2 312.5 -142.35 311.25 -140.15 310.85 -138.0 311.25 -136.35 312.35 -136.35 265.0 -28.5 265.0 -28.5 266.8 16.0 266.8 16.0 210.25 38.3 210.25 38.3 151.65 137.0 151.65" fill="#707070" fill-rule="evenodd" stroke="none"/>
    <path d="M297.25 38.3 L297.25 148.0 146.0 148.0 146.0 38.3 233.0 38.3 233.0 24.3 265.0 24.3 265.0 38.3 297.25 38.3" fill="#707070" fill-rule="evenodd" stroke="none"/>
    <path d="M228.5 30.6 L221.55 38.2 212.0 29.5 218.95 21.85 228.5 30.6" fill="#707070" fill-rule="evenodd" stroke="none"/>
    <path d="M190.25 -15.75 L187.5 -15.75 187.5 -62.4 223.5 -62.4 223.5 -15.75 220.75 -15.75 220.75 -1.75 190.25 -1.75 190.25 -15.75" fill="#707070" fill-rule="evenodd" stroke="none"/>
    <path d="M275.0 -64.95 L295.3 -64.95 295.3 11.65 275.0 11.65 275.0 -64.95" fill="#707070" fill-rule="evenodd" stroke="none"/>
    <path d="M297.25 17.0 L297.25 33.5 294.5 33.5 294.5 17.0 297.25 17.0" fill="#707070" fill-rule="evenodd" stroke="none"/>
    <path d="M246.0 -113.25 L246.0 -94.25 169.75 -94.25 169.75 -113.25 246.0 -113.25" fill="#707070" fill-rule="evenodd" stroke="none"/>
    <path d="M137.0 -163.5 L137.0 -152.75 131.0 -152.75 131.0 -163.5 137.0 -163.5" fill="#707070" fill-rule="evenodd" stroke="none"/>
    <path d="M137.0 -149.35 L137.0 -143.35 131.25 -143.35 131.25 -149.35 137.0 -149.35" fill="#707070" fill-rule="evenodd" stroke="none"/>
    <path d="M137.0 -141.25 L137.0 -130.0 129.25 -130.0 129.25 -141.25 137.0 -141.25" fill="#707070" fill-rule="evenodd" stroke="none"/>
    <path d="M137.0 -118.25 L137.0 -109.25 133.5 -109.25 133.5 -118.25 137.0 -118.25" fill="#707070" fill-rule="evenodd" stroke="none"/>
    <path d="M137.0 -178.25 L137.0 -174.0 123.5 -174.0 123.5 -178.25 137.0 -178.25" fill="#707070" fill-rule="evenodd" stroke="none"/>
    <path d="M252.25 -117.0 L283.0 -117.0 283.0 -103.75 252.25 -103.75 252.25 -117.0" fill="#707070" fill-rule="evenodd" stroke="none"/>
    <path d="M297.25 -113.0 L297.25 -68.5 289.5 -68.5 289.5 -113.0 297.25 -113.0" fill="#707070" fill-rule="evenodd" stroke="none"/>
    <path d="M4.5 -157.65 L4.5 -161.15 15.15 -161.15 15.15 -153.5 5.0 -153.5 5.0 -44.8 15.15 -44.8 15.15 -37.15 4.5 -37.15 4.5 -39.0 -40.0 -39.0 -40.0 -37.15 -50.7 -37.15 -50.7 -44.8 -41.0 -44.8 -41.0 -153.5 -50.7 -153.5 -50.7 -161.15 -40.0 -161.15 -40.0 -157.65 4.5 -157.65" fill="#707070" fill-rule="evenodd" stroke="none"/>
    <path d="M-192.75 73.4 L-192.75 63.25 -185.1 63.25 -185.1 73.9 -186.95 73.9 -186.95 118.4 -185.1 118.4 -185.1 129.05 -192.75 129.05 -192.75 119.4 -301.45 119.4 -301.45 129.05 -309.1 129.05 -309.1 118.4 -305.6 118.4 -305.6 73.9 -309.1 73.9 -309.1 63.25 -301.45 63.25 -301.45 73.4 -192.75 73.4" fill="#707070" fill-rule="evenodd" stroke="none"/>
    <path d="M-77.5 -178.0 L-74.5 -178.0 -74.5 -79.15 -93.5 -79.15 -93.5 -82.15 -77.5 -82.15 -77.5 -178.0" fill="#707070" fill-rule="evenodd" stroke="none"/>
    <path d="M-155.0 -79.15 L-155.0 -82.15 -101.9 -82.15 -101.9 -79.15 -155.0 -79.15" fill="#707070" fill-rule="evenodd" stroke="none"/>
    <path d="M-86.4 322.6 L-67.35 321.25 -64.75 357.15 -83.75 358.5 -86.4 322.6" fill="#707070" fill-rule="evenodd" stroke="none"/>
    <path d="M-110.35 369.9 L-119.15 326.45 -104.5 323.5 -95.75 366.95 -110.35 369.9" fill="#707070" fill-rule="evenodd" stroke="none"/>
    <path d="M-80.5 464.5 L-80.5 452.0 -63.5 452.0 -63.5 464.5 -80.5 464.5" fill="#707070" fill-rule="evenodd" stroke="none"/>
    <path d="M-59.3 464.0 L-57.35 456.15 -47.0 458.75 -49.0 466.55 -59.3 464.0" fill="#707070" fill-rule="evenodd" stroke="none"/>
    <path d="M-85.5 450.0 L-85.15 463.55 -88.4 463.65 -88.35 465.8 -100.85 466.15 -100.9 464.0 -103.6 464.05 -104.0 450.5 -85.5 450.0" fill="#707070" fill-rule="evenodd" stroke="none"/>
    <path d="M24.5 473.25 L24.5 456.0 44.0 456.0 44.0 473.25 24.5 473.25" fill="#707070" fill-rule="evenodd" stroke="none"/>
    <path d="M12.0 472.75 L10.2 466.05 19.3 463.6 21.1 470.35 12.0 472.75" fill="#707070" fill-rule="evenodd" stroke="none"/>
    <path d="M-81.7 425.4 L-59.05 428.3 -61.45 446.9 -84.1 443.95 -81.7 425.4" fill="#707070" fill-rule="evenodd" stroke="none"/>
    <path d="M-58.1 368.4 L-48.6 385.0 -61.5 392.4 -71.05 375.75 -58.1 368.4" fill="#707070" fill-rule="evenodd" stroke="none"/>
    <path d="M-92.95 294.6 L-102.9 311.0 -115.95 303.05 -106.05 286.65 -92.95 294.6" fill="#707070" fill-rule="evenodd" stroke="none"/>
    <path d="M-108.0 421.6 L-87.75 406.0 -83.85 411.1 -104.15 426.75 -93.2 441.65 -95.65 443.5 -106.6 428.6 -107.65 429.45 -111.6 424.35 -110.4 423.45 -121.6 408.2 -119.15 406.4 -108.0 421.6" fill="#707070" fill-rule="evenodd" stroke="none"/>
    <path d="M-129.25 374.25 L-119.4 374.25 -119.4 402.75 -129.25 402.75 -129.25 374.25" fill="#707070" fill-rule="evenodd" stroke="none"/>
    <path d="M-48.8 449.25 L-45.9 439.8 -37.8 442.3 -40.7 451.75 -48.8 449.25" fill="#707070" fill-rule="evenodd" stroke="none"/>
    <path d="M-15.55 444.3 L-13.2 445.25 -11.85 447.4 -12.05 449.9 -13.65 451.85 -16.1 452.45 -18.45 451.5 -19.35 450.1 -21.45 450.6 -23.8 449.65 -25.1 447.55 -24.95 445.0 -24.2 444.1 -25.05 443.75 -26.6 441.3 -26.4 438.4 -24.5 436.15 -21.7 435.45 -19.0 436.55 -17.45 439.0 -17.65 441.9 -18.8 443.3 -18.55 443.4 -17.65 444.8 -15.55 444.3" fill="#707070" fill-rule="evenodd" stroke="none"/>
    <path d="M-17.0 429.7 L-3.2 428.15 -2.6 433.2 -0.05 432.6 3.0 433.8 4.75 436.6 4.55 439.9 3.2 441.45 4.3 441.9 5.8 444.3 5.65 447.15 3.8 449.3 1.05 450.0 -1.55 448.95 -3.05 446.55 -2.85 443.7 -2.0 442.7 -3.85 441.95 -4.35 441.1 -8.5 441.55 -8.55 442.25 -10.15 444.15 -12.6 444.8 -14.95 443.85 -16.3 441.7 -16.1 439.15 -16.0 439.0 -17.0 429.7" fill="#707070" fill-rule="evenodd" stroke="none"/>
    <path d="M-108.0 450.35 L-107.25 454.0 -108.0 457.6 -110.0 460.65 -113.1 462.7 -116.7 463.4 -120.3 462.7 -123.35 460.65 -125.4 457.6 -126.1 454.0 -125.4 450.35 -123.35 447.3 -120.3 445.25 -116.7 444.55 -113.1 445.25 -110.0 447.3 -108.0 450.35" fill="#707070" fill-rule="evenodd" stroke="none"/>
    <path d="M62.25 456.95 L65.3 459.0 67.35 462.05 68.05 465.65 67.35 469.25 65.3 472.3 62.25 474.35 58.65 475.05 55.05 474.35 52.0 472.3 49.95 469.25 49.2 465.65 49.95 462.05 52.0 459.0 55.05 456.95 58.65 456.2 62.25 456.95" fill="#707070" fill-rule="evenodd" stroke="none"/>
    <path d="M-148.45 298.85 L-146.25 298.4 -144.05 298.85 -142.25 300.1 -141.0 301.95 -140.55 304.1 -141.0 306.3 -142.25 308.15 -144.05 309.35 -146.25 309.8 -148.45 309.35 -150.3 308.15 -151.5 306.3 -151.95 304.1 -151.5 301.95 -150.3 300.1 -148.45 298.85" fill="#707070" fill-rule="evenodd" stroke="none"/>
    <path d="M-381.6 291.15 L-379.95 290.8 -378.25 291.15 -376.85 292.1 -375.9 293.55 -375.55 295.2 -375.9 296.9 -376.85 298.3 -378.25 299.25 -379.95 299.6 -381.6 299.25 -383.05 298.3 -384.0 296.9 -384.35 295.2 -384.0 293.55 -383.05 292.1 -381.6 291.15" fill="#707070" fill-rule="evenodd" stroke="none"/>
    <path d="M170.05 28.75 L171.55 29.05 172.85 29.9 173.75 31.2 174.05 32.75 173.75 34.25 172.85 35.55 171.55 36.45 170.05 36.75 168.5 36.45 167.2 35.55 166.35 34.25 166.0 32.75 166.35 31.2 167.2 29.9 168.5 29.05 170.05 28.75" fill="#707070" fill-rule="evenodd" stroke="none"/>
    <path d="M-223.95 6.75 L-222.45 7.05 -221.15 7.9 -220.25 9.2 -219.95 10.75 -220.25 12.25 -221.15 13.55 -222.45 14.45 -223.95 14.75 -225.5 14.45 -226.8 13.55 -227.65 12.25 -228.0 10.75 -227.65 9.2 -226.8 7.9 -225.5 7.05 -223.95 6.75" fill="#707070" fill-rule="evenodd" stroke="none"/>
    <path d="M-375.05 222.65 L-373.75 221.8 -372.25 221.5 -370.7 221.8 -369.4 222.65 -368.5 224.0 -368.2 225.5 -368.5 227.05 -369.4 228.35 -370.7 229.2 -372.25 229.5 -373.75 229.2 -375.05 228.35 -375.95 227.05 -376.25 225.5 -375.95 224.0 -375.05 222.65" fill="#707070" fill-rule="evenodd" stroke="none"/>
    <path d="M-206.7 10.15 L-205.85 10.35 -205.1 10.85 -204.6 11.6 -204.4 12.45 -204.6 13.35 -205.1 14.1 -205.85 14.6 -206.7 14.8 -207.6 14.6 -208.35 14.1 -208.85 13.35 -209.05 12.45 -208.85 11.6 -208.35 10.85 -207.6 10.35 -206.7 10.15" fill="#707070" fill-rule="evenodd" stroke="none"/>
    <path d="M-200.7 11.05 L-201.6 10.85 -202.35 10.35 -202.85 9.6 -203.05 8.7 -202.85 7.85 -202.35 7.1 -201.6 6.6 -200.7 6.4 -199.85 6.6 -199.1 7.1 -198.6 7.85 -198.4 8.7 -198.6 9.6 -199.1 10.35 -199.85 10.85 -200.7 11.05" fill="#707070" fill-rule="evenodd" stroke="none"/>
    <path d="M158.3 26.85 L159.6 26.0 161.15 25.65 162.7 26.0 164.0 26.85 164.85 28.15 165.15 29.7 164.85 31.2 164.0 32.5 162.7 33.4 161.15 33.7 159.6 33.4 158.3 32.5 157.45 31.2 157.15 29.7 157.45 28.15 158.3 26.85" fill="#707070" fill-rule="evenodd" stroke="none"/>
    <path d="M150.25 27.95 L151.8 27.65 153.3 27.95 154.6 28.8 155.5 30.1 155.8 31.65 155.5 33.15 154.6 34.45 153.3 35.35 151.8 35.65 150.25 35.35 148.95 34.45 148.05 33.15 147.75 31.65 148.05 30.1 148.95 28.8 150.25 27.95" fill="#707070" fill-rule="evenodd" stroke="none"/>
    <path d="M-187.7 299.65 L-187.7 315.0 -279.0 315.0 -279.0 299.65 -187.7 299.65" fill="#707070" fill-rule="evenodd" stroke="none"/>
    <path d="M-383.0 317.65 L-383.0 299.65 -301.0 299.65 -301.0 317.65 -383.0 317.65" fill="#707070" fill-rule="evenodd" stroke="none"/>
    <path d="M-391.7 113.0 L-371.7 113.0 -371.7 190.3 -391.7 190.3 -391.7 113.0" fill="#707070" fill-rule="evenodd" stroke="none"/>
    <path d="M-387.0 237.2 L-386.65 235.55 -385.7 234.1 -384.3 233.15 -382.6 232.8 -380.95 233.15 -379.5 234.1 -378.55 235.55 -378.2 237.2 -378.55 238.9 -379.5 240.3 -380.95 241.25 -382.6 241.6 -383.15 241.5 -383.15 243.35 -382.45 242.85 -380.25 242.4 -378.05 242.85 -376.25 244.1 -375.0 245.95 -374.55 248.1 -375.0 250.3 -376.25 252.15 -378.05 253.35 -379.5 253.65 -377.7 253.65 -377.7 285.0 -391.7 285.0 -391.7 253.65 -381.0 253.65 -382.45 253.35 -384.3 252.15 -384.8 251.3 -391.7 251.3 -391.7 238.65 -386.7 238.65 -387.0 237.2" fill="#707070" fill-rule="evenodd" stroke="none"/>
    <path d="M-355.0 7.0 L-355.0 -14.6 -322.35 -14.6 -322.35 7.0 -355.0 7.0" fill="#707070" fill-rule="evenodd" stroke="none"/>
    <path d="M-321.0 -14.6 L-259.7 -14.6 -259.7 -2.95 -321.0 -2.95 -321.0 -14.6" fill="#707070" fill-rule="evenodd" stroke="none"/>
    <path d="M-257.7 -14.6 L-228.35 -14.6 -228.35 -0.95 -257.7 -0.95 -257.7 -14.6" fill="#707070" fill-rule="evenodd" stroke="none"/>
    <path d="M-167.0 -14.6 L-167.0 -1.65 -227.7 -1.65 -227.7 -14.6 -167.0 -14.6" fill="#707070" fill-rule="evenodd" stroke="none"/>
    <path d="M-391.7 -11.65 L-369.7 -11.65 -369.7 15.0 -391.7 15.0 -391.7 -11.65" fill="#707070" fill-rule="evenodd" stroke="none"/>
    <path d="M-391.7 19.0 L-373.7 19.0 -373.7 109.0 -391.7 109.0 -391.7 19.0" fill="#707070" fill-rule="evenodd" stroke="none"/>
    <path d="M-293.25 305.6 L-290.55 293.95 -279.35 296.5 -282.0 308.15 -293.25 305.6" fill="#707070" fill-rule="evenodd" stroke="none"/>
    <path d="M-335.7 284.6 L-331.4 277.0 -322.85 245.35 -319.6 246.25 -326.65 272.25 -312.35 246.85 -309.4 248.5 -323.35 273.25 -304.55 255.5 -302.25 257.95 -324.3 278.75 -329.55 288.05 -335.7 284.6" fill="#707070" fill-rule="evenodd" stroke="none"/>
    <path d="M-356.8 130.55 L-363.0 124.05 -356.7 118.1 -350.5 124.6 -356.8 130.55" fill="#707070" fill-rule="evenodd" stroke="none"/>
    <path d="M-257.8 278.95 L-228.35 285.7 -231.05 297.35 -260.5 290.6 -257.8 278.95" fill="#707070" fill-rule="evenodd" stroke="none"/>
    <path d="M-212.55 270.65 L-192.45 259.35 -187.1 268.85 -207.2 280.15 -212.55 270.65" fill="#707070" fill-rule="evenodd" stroke="none"/>
    <path d="M-364.45 261.25 L-372.1 251.15 -363.6 244.7 -355.95 254.8 -364.45 261.25" fill="#707070" fill-rule="evenodd" stroke="none"/>
    <path d="M-375.85 195.3 L-370.95 204.8 -382.2 210.65 -387.1 201.15 -375.85 195.3" fill="#707070" fill-rule="evenodd" stroke="none"/>
    <path d="M-178.35 271.0 L-164.35 271.0 -164.35 302.3 -178.35 302.3 -178.35 271.0" fill="#707070" fill-rule="evenodd" stroke="none"/>
    <path d="M-381.8 216.65 L-381.8 229.3 -391.7 229.3 -391.7 216.65 -381.8 216.65" fill="#707070" fill-rule="evenodd" stroke="none"/>
    <path d="M-138.0 -60.0 L-138.0 -31.5 -151.5 -31.5 -151.5 -60.0 -138.0 -60.0" fill="#707070" fill-rule="evenodd" stroke="none"/>
    <path d="M-151.0 -26.5 L-137.5 -26.5 -137.5 2.0 -151.0 2.0 -151.0 -26.5" fill="#707070" fill-rule="evenodd" stroke="none"/>
    <path d="M-138.0 17.0 L-138.0 27.0 -151.5 27.0 -151.5 17.0 -138.0 17.0" fill="#707070" fill-rule="evenodd" stroke="none"/>
    <path d="M-28.5 297.0 L-28.5 270.3 19.5 270.3 19.5 210.25 39.5 210.25 39.5 297.0 -28.5 297.0" fill="#ffffff" fill-rule="evenodd" stroke="none"/>
    <path d="M-93.5 -75.0 L-101.9 -75.0 -101.9 -82.15 -93.5 -82.15 -93.5 -75.0" fill="#ffffff" fill-rule="evenodd" stroke="none"/>
    <path d="M123.5 -172.75 L39.0 -172.75 39.0 -190.25 123.5 -190.25 123.5 -172.75" fill="#ffffff" fill-rule="evenodd" stroke="none"/>
    <path d="M110.0 37.45 L124.5 37.45 124.5 33.6 127.6 33.6 127.6 37.45 132.0 37.45 132.0 38.8 133.5 38.8 133.5 30.1 146.5 30.1 146.5 48.6 133.5 48.6 133.5 39.9 132.0 39.9 132.0 41.25 127.6 41.25 127.6 45.1 124.5 45.1 124.5 41.25 110.0 41.25 110.0 37.45" fill="#434343" fill-rule="evenodd" stroke="none"/>
    <path d="M124.5 142.95 L127.6 142.95 127.6 146.75 132.0 146.75 132.0 148.1 133.5 148.1 133.5 139.45 146.5 139.45 146.5 157.95 133.5 157.95 133.5 149.25 132.0 149.25 132.0 150.6 127.6 150.6 127.6 154.45 124.5 154.45 124.5 150.6 110.0 150.6 110.0 146.75 124.5 146.75 124.5 142.95" fill="#434343" fill-rule="evenodd" stroke="none"/>
    <path d="M-150.7 376.95 L-163.7 376.95 -163.7 358.45 -150.7 358.45 -150.7 367.1 -149.2 367.1 -149.2 365.75 -144.85 365.75 -144.85 361.95 -141.7 361.95 -141.7 365.75 -127.2 365.75 -127.2 369.6 -141.7 369.6 -141.7 373.45 -144.85 373.45 -144.85 369.6 -149.2 369.6 -149.2 368.25 -150.7 368.25 -150.7 376.95" fill="#434343" fill-rule="evenodd" stroke="none"/>
    <path d="M-150.7 267.6 L-163.7 267.6 -163.7 249.1 -150.7 249.1 -150.7 257.8 -149.2 257.8 -149.2 256.45 -144.85 256.45 -144.85 252.6 -141.7 252.6 -141.7 256.45 -127.2 256.45 -127.2 260.25 -141.7 260.25 -141.7 264.1 -144.85 264.1 -144.85 260.25 -149.2 260.25 -149.2 258.9 -150.7 258.9 -150.7 267.6" fill="#434343" fill-rule="evenodd" stroke="none"/>
    <path d="M-163.7 138.45 L-150.7 138.45 -150.7 147.1 -149.2 147.1 -149.2 145.75 -144.85 145.75 -144.85 141.95 -141.7 141.95 -141.7 145.75 -127.2 145.75 -127.2 149.6 -141.7 149.6 -141.7 153.45 -144.85 153.45 -144.85 149.6 -149.2 149.6 -149.2 148.25 -150.7 148.25 -150.7 156.95 -163.7 156.95 -163.7 138.45" fill="#434343" fill-rule="evenodd" stroke="none"/>
    <path d="M-149.2 38.1 L-149.2 36.75 -144.85 36.75 -144.85 32.95 -141.7 32.95 -141.7 36.75 -127.2 36.75 -127.2 40.6 -141.7 40.6 -141.7 44.45 -144.85 44.45 -144.85 40.6 -149.2 40.6 -149.2 39.25 -150.7 39.25 -150.7 47.95 -163.7 47.95 -163.7 29.45 -150.7 29.45 -150.7 38.1 -149.2 38.1" fill="#434343" fill-rule="evenodd" stroke="none"/>
    <path d="M-141.7 -76.35 L-141.7 -72.5 -127.2 -72.5 -127.2 -68.7 -141.7 -68.7 -141.7 -64.85 -144.85 -64.85 -144.85 -68.7 -149.2 -68.7 -149.2 -70.05 -150.7 -70.05 -150.7 -61.35 -163.7 -61.35 -163.7 -79.85 -150.7 -79.85 -150.7 -71.15 -149.2 -71.15 -149.2 -72.5 -144.85 -72.5 -144.85 -76.35 -141.7 -76.35" fill="#434343" fill-rule="evenodd" stroke="none"/>
    <path d="M146.5 -80.2 L146.5 -61.7 133.5 -61.7 133.5 -70.4 132.0 -70.4 132.0 -69.0 127.6 -69.0 127.6 -65.2 124.5 -65.2 124.5 -69.0 110.0 -69.0 110.0 -72.85 124.5 -72.85 124.5 -76.7 127.6 -76.7 127.6 -72.85 132.0 -72.85 132.0 -71.5 133.5 -71.5 133.5 -80.2 146.5 -80.2" fill="#434343" fill-rule="evenodd" stroke="none"/>
    <path d="M-151.0 -174.45 L-158.5 -174.45 -158.5 -181.95 -151.0 -181.95 -151.0 -174.45" fill="#434343" fill-rule="evenodd" stroke="none"/>
    <path d="M-57.65 -174.0 L-69.15 -174.0 -69.15 -182.2 -57.65 -182.2 -57.65 -174.0" fill="#434343" fill-rule="evenodd" stroke="none"/>
    <path d="M37.85 -174.0 L26.35 -174.0 26.35 -182.2 37.85 -182.2 37.85 -174.0" fill="#434343" fill-rule="evenodd" stroke="none"/>
  </g>
</svg>
