<?xml version="1.0" encoding="UTF-8" standalone="no"?>
<svg xmlns:ffdec="https://www.free-decompiler.com/flash" xmlns:xlink="http://www.w3.org/1999/xlink" ffdec:objectType="shape" height="1060.0px" width="1666.65px" xmlns="http://www.w3.org/2000/svg">
  <g transform="matrix(1.0, 0.0, 0.0, 1.0, 834.15, 531.0)">
    <path d="M603.2 -443.05 L650.55 -406.5 693.5 -364.45 731.5 -317.5 764.1 -266.2 790.75 -211.25 811.15 -153.45 825.05 -93.6 832.2 -32.4 832.5 29.2 826.05 90.5 812.8 150.55 793.05 208.55 766.95 263.8 734.95 315.5 697.45 362.9 654.95 405.5 608.05 442.55 557.3 473.7 503.5 498.4 447.3 516.45 399.95 525.5 370.65 528.5 330.9 529.0 -333.5 529.0 -370.65 528.55 -402.15 525.4 -448.95 516.45 -505.15 498.4 -558.95 473.7 -609.65 442.55 -656.6 405.5 -699.1 362.9 -736.6 315.5 -768.6 263.8 -794.65 208.55 -814.45 150.55 -827.65 90.5 -834.15 29.2 -833.8 -32.4 -826.65 -93.6 -812.8 -153.45 -792.35 -211.25 -765.7 -266.2 -733.15 -317.5 -695.1 -364.45 -652.15 -406.5 -604.85 -443.05 -553.8 -473.55 -499.7 -497.6 -443.3 -514.95 -390.4 -524.4 -333.8 -531.0 332.15 -531.0 388.8 -524.4 441.7 -514.95 498.05 -497.6 552.15 -473.55 603.2 -443.05" fill="#707070" fill-rule="evenodd" stroke="none"/>
    <path d="M524.55 -428.95 L573.05 -401.35 618.0 -368.25 658.8 -330.2 694.95 -287.6 725.9 -241.15 751.2 -191.45 770.6 -139.1 783.8 -84.85 790.6 -29.45 790.9 26.35 784.75 81.85 772.2 136.25 753.4 188.8 728.65 238.8 698.2 285.65 662.6 328.6 622.2 367.15 577.6 400.7 529.45 428.9 478.3 451.3 424.95 467.6 371.0 477.45 361.65 478.45 314.3 479.0 -316.9 479.0 -360.95 478.5 -374.0 477.2 -426.55 467.6 -479.95 451.3 -531.05 428.9 -579.25 400.7 -623.85 367.15 -664.2 328.6 -699.85 285.65 -730.25 238.8 -755.0 188.8 -773.8 136.25 -786.35 81.85 -792.55 26.35 -792.2 -29.45 -785.4 -84.85 -772.25 -139.1 -752.85 -191.45 -727.5 -241.15 -696.55 -287.6 -660.45 -330.2 -619.65 -368.25 -574.65 -401.35 -526.15 -428.95 -474.8 -450.75 -421.25 -466.5 -375.05 -474.35 -366.25 -476.75 -317.15 -494.65 -217.35 -514.7 216.0 -514.7 315.55 -494.65 363.55 -477.15 373.85 -474.25 419.6 -466.5 473.15 -450.75 524.55 -428.95" fill="#434343" fill-rule="evenodd" stroke="none"/>
    <path d="M392.8 -313.4 L394.35 -319.45 410.25 -314.8 446.15 -299.55 474.6 -283.35 471.2 -278.5 494.05 -262.55 497.45 -267.45 511.5 -257.1 516.9 -252.05 510.15 -245.55 511.8 -243.85 519.7 -251.35 519.7 -251.4 539.5 -271.2 571.25 -239.45 543.9 -212.3 545.55 -210.65 551.8 -216.6 560.6 -206.25 556.1 -202.95 572.75 -180.6 576.7 -183.55 586.85 -168.3 604.6 -133.55 615.3 -104.65 610.65 -103.6 616.8 -76.45 622.8 -77.8 627.35 -59.05 632.1 -20.35 632.3 15.7 628.0 54.45 625.0 67.45 618.95 66.05 612.75 93.2 618.5 94.5 606.1 129.2 588.8 164.2 582.0 174.6 578.35 171.9 561.75 194.2 566.7 197.9 551.35 216.4 545.8 211.1 544.15 212.75 553.6 221.95 553.6 221.85 571.25 239.5 539.5 271.25 518.35 250.1 518.25 250.2 512.05 244.3 510.4 246.0 516.5 251.9 514.4 253.85 505.8 260.35 503.0 256.35 480.15 272.25 483.5 277.1 483.25 277.35 449.6 297.05 413.85 312.7 403.65 315.8 402.25 310.35 375.25 317.3 376.95 323.95 375.85 324.3 336.5 329.95 299.25 330.35 206.3 330.35 165.7 346.65 163.0 346.65 163.0 348.15 165.1 348.15 165.1 381.3 135.1 381.3 135.1 348.15 137.2 348.15 137.2 346.65 129.65 346.65 129.65 348.15 131.75 348.15 131.75 381.3 101.75 381.3 101.75 348.15 103.85 348.15 103.85 346.65 96.3 346.65 96.3 348.15 98.4 348.15 98.4 381.3 68.4 381.3 68.4 348.15 70.55 348.15 70.55 346.65 63.0 346.65 63.0 348.15 65.1 348.15 65.1 381.3 35.1 381.3 35.1 348.15 37.2 348.15 37.2 346.65 29.65 346.65 29.65 348.15 31.75 348.15 31.75 381.3 1.75 381.3 1.75 348.15 3.85 348.15 3.85 346.65 -3.7 346.65 -3.7 348.15 -1.6 348.15 -1.6 381.3 -31.6 381.3 -31.6 348.15 -29.45 348.15 -29.45 346.65 -37.0 346.65 -37.0 348.15 -34.9 348.15 -34.9 381.3 -64.9 381.3 -64.9 348.15 -62.8 348.15 -62.8 346.65 -70.35 346.65 -70.35 348.15 -68.25 348.15 -68.25 381.3 -98.25 381.3 -98.25 348.15 -96.15 348.15 -96.15 346.65 -103.7 346.65 -103.7 348.15 -101.6 348.15 -101.6 381.3 -131.6 381.3 -131.6 348.15 -129.45 348.15 -129.45 346.65 -137.0 346.65 -137.0 348.15 -134.9 348.15 -134.9 381.3 -164.9 381.3 -164.9 348.15 -162.8 348.15 -162.8 346.65 -166.7 346.65 -205.0 330.35 -301.05 330.35 -338.15 329.95 -367.0 325.8 -365.4 319.65 -392.4 312.7 -394.1 319.2 -415.45 312.7 -451.2 297.05 -474.7 283.25 -470.55 277.25 -493.35 261.35 -497.75 267.6 -516.05 253.85 -517.05 252.9 -509.85 245.85 -511.5 244.2 -518.85 251.2 -519.15 250.85 -539.55 271.25 -571.3 239.5 -553.1 221.25 -553.05 221.85 -543.6 212.65 -545.25 211.0 -552.1 217.5 -561.75 205.8 -555.9 201.45 -572.55 179.1 -578.05 183.2 -590.4 164.2 -607.7 129.2 -616.8 103.75 -610.05 102.2 -616.2 75.05 -624.45 76.95 -629.65 54.45 -633.95 15.7 -633.7 -20.35 -628.95 -59.05 -626.9 -67.55 -619.65 -65.9 -613.5 -93.05 -620.35 -94.6 -619.75 -96.95 -606.2 -133.55 -588.5 -168.3 -583.85 -175.25 -578.1 -170.95 -561.45 -193.25 -568.4 -198.45 -566.9 -200.75 -552.75 -217.4 -545.5 -210.55 -543.85 -212.2 -571.3 -239.45 -539.55 -271.2 -519.65 -251.3 -519.65 -251.25 -511.75 -243.75 -510.1 -245.4 -517.7 -252.8 -513.1 -257.1 -506.5 -261.95 -502.35 -256.05 -479.55 -272.0 -484.05 -278.5 -481.65 -280.25 -447.8 -299.55 -411.85 -314.8 -404.7 -316.9 -402.95 -310.2 -376.0 -317.1 -377.95 -324.75 -374.45 -325.75 -335.3 -332.45 -293.95 -333.0 -205.0 -333.0 -166.7 -346.7 -162.8 -346.7 -162.8 -348.35 -164.9 -348.35 -164.9 -381.5 -134.9 -381.5 -134.9 -348.35 -137.0 -348.35 -137.0 -346.7 -129.45 -346.7 -129.45 -348.35 -131.6 -348.35 -131.6 -381.5 -101.6 -381.5 -101.6 -348.35 -103.7 -348.35 -103.7 -346.7 -96.15 -346.7 -96.15 -348.35 -98.25 -348.35 -98.25 -381.5 -68.25 -381.5 -68.25 -348.35 -70.35 -348.35 -70.35 -346.7 -62.8 -346.7 -62.8 -348.35 -64.9 -348.35 -64.9 -381.5 -34.9 -381.5 -34.9 -348.35 -37.0 -348.35 -37.0 -346.7 -29.45 -346.7 -29.45 -348.35 -31.6 -348.35 -31.6 -381.5 -1.6 -381.5 -1.6 -348.35 -3.7 -348.35 -3.7 -346.7 3.85 -346.7 3.85 -348.35 1.75 -348.35 1.75 -381.5 31.75 -381.5 31.75 -348.35 29.65 -348.35 29.65 -346.7 37.2 -346.7 37.2 -348.35 35.1 -348.35 35.1 -381.5 65.1 -381.5 65.1 -348.35 63.0 -348.35 63.0 -346.7 70.55 -346.7 70.55 -348.35 68.4 -348.35 68.4 -381.5 98.4 -381.5 98.4 -348.35 96.3 -348.35 96.3 -346.7 103.85 -346.7 103.85 -348.35 101.75 -348.35 101.75 -381.5 131.75 -381.5 131.75 -348.35 129.65 -348.35 129.65 -346.7 137.2 -346.7 137.2 -348.35 135.1 -348.35 135.1 -381.5 165.1 -381.5 165.1 -348.35 163.0 -348.35 163.0 -346.7 165.7 -346.7 206.3 -333.0 292.85 -333.0 333.65 -332.45 367.45 -326.7 365.8 -320.35 392.8 -313.4" fill="#707070" fill-rule="evenodd" stroke="none"/>
    <path d="M387.65 -287.0 L417.3 -276.0 468.0 -250.0 505.0 -218.35 535.65 -185.7 556.0 -156.7 570.65 -128.7 587.0 -89.0 599.3 -28.0 600.1 9.85 598.55 31.2 593.4 63.65 581.65 104.8 562.8 147.0 539.0 183.4 510.3 217.0 470.75 249.0 436.55 270.1 389.0 288.3 345.0 299.0 305.5 301.0 -291.0 301.0 -330.5 299.5 -389.45 289.4 -425.45 274.0 -458.35 256.3 -492.35 231.65 -515.7 210.3 -535.0 187.0 -554.35 159.65 -571.0 128.3 -583.0 99.0 -593.0 65.65 -600.35 21.0 -599.7 -23.0 -595.0 -53.0 -586.35 -86.35 -575.7 -117.7 -565.0 -139.7 -541.7 -175.7 -519.7 -203.7 -495.7 -227.0 -469.0 -247.0 -446.35 -261.0 -411.0 -279.0 -380.35 -287.7 -337.0 -297.0 -307.0 -302.0 295.0 -302.35 335.0 -298.35 387.65 -287.0" fill="#969696" fill-rule="evenodd" stroke="none"/>
    <path d="M338.25 -83.5 L347.4 -60.35 353.6 -36.2 356.8 -11.45 356.95 13.55 354.0 38.35 348.05 62.55 339.15 85.75 327.45 107.55 313.2 127.65 296.55 145.65 277.85 161.25 257.35 174.3 235.45 184.45 212.45 191.65 188.75 195.7 164.7 196.55 -162.15 196.55 -186.2 195.7 -209.9 191.65 -232.9 184.45 -254.8 174.3 -275.3 161.25 -294.0 145.65 -310.65 127.65 -324.9 107.55 -336.6 85.75 -345.5 62.55 -351.45 38.35 -354.4 13.55 -354.25 -11.45 -351.05 -36.2 -344.85 -60.35 -335.7 -83.5 -323.8 -105.25 -309.3 -125.25 -292.5 -143.15 -273.6 -158.7 -253.0 -171.6 -230.95 -181.65 -207.9 -188.7 -184.15 -192.6 -162.15 -193.35 164.7 -193.35 186.7 -192.6 210.45 -188.7 233.5 -181.65 255.55 -171.6 276.15 -158.7 295.05 -143.15 311.85 -125.25 326.35 -105.25 338.25 -83.5" fill="#7f7f7f" fill-rule="evenodd" stroke="none"/>
    <path d="M304.6 -304.5 L331.65 -301.7 368.0 -294.85 401.9 -284.9 434.4 -271.1 465.1 -253.65 493.55 -232.7 519.4 -208.6 542.25 -181.7 561.85 -152.3 577.85 -120.8 590.15 -87.7 598.45 -53.35 602.75 -18.3 603.0 17.05 599.1 52.15 591.15 86.55 579.25 119.8 563.55 151.45 544.3 181.1 521.75 208.3 496.2 232.65 468.0 253.95 437.5 271.75 405.15 285.95 371.4 296.25 348.2 300.5 304.35 302.8 -330.0 302.7 -370.6 296.3 -404.45 285.95 -436.8 271.75 -467.3 253.95 -495.5 232.65 -521.05 208.3 -543.6 181.1 -562.85 151.45 -578.55 119.8 -590.4 86.55 -598.35 52.15 -602.25 17.05 -602.05 -18.3 -597.75 -53.35 -589.4 -87.7 -577.15 -120.8 -561.1 -152.3 -541.55 -181.7 -518.7 -208.6 -492.85 -232.7 -464.4 -253.65 -433.7 -271.1 -401.2 -284.9 -367.25 -294.85 -330.3 -300.75 -305.85 -304.2 -289.9 -305.0 284.2 -305.0 304.6 -304.5 M331.0 -296.6 L304.2 -299.5 284.15 -300.0 -289.7 -300.0 -305.2 -299.2 -330.85 -296.0 -366.15 -290.0 -399.5 -280.2 -431.5 -266.65 -461.65 -249.45 -489.65 -228.85 -515.05 -205.15 -537.55 -178.65 -556.8 -149.75 -572.55 -118.8 -584.65 -86.2 -592.85 -52.45 -597.05 -17.95 -597.25 16.75 -593.45 51.3 -585.6 85.15 -573.9 117.85 -558.5 149.0 -539.6 178.15 -517.4 204.85 -492.25 228.85 -464.5 249.75 -434.55 267.3 Q-418.6 274.3 -402.7 281.25 L-369.5 291.4 -329.6 297.7 304.2 297.8 347.6 295.5 370.2 291.4 403.4 281.25 Q419.35 274.3 435.25 267.3 L465.25 249.75 493.0 228.85 518.1 204.85 540.3 178.15 559.2 149.0 574.65 117.85 586.3 85.15 594.15 51.3 598.0 16.75 597.8 -17.95 593.55 -52.45 585.35 -86.2 573.25 -118.8 557.5 -149.75 538.25 -178.65 515.75 -205.15 490.35 -228.85 462.4 -249.45 432.2 -266.65 400.2 -280.2 366.9 -290.0 331.0 -296.6" fill="#828282" fill-rule="evenodd" stroke="none"/>
    <path d="M394.8 -152.1 L395.25 -153.2 414.4 -145.1 404.8 -125.2 344.85 -148.15 348.0 -156.25 346.55 -157.7 351.2 -166.6 353.2 -166.0 354.75 -168.25 363.0 -165.7 364.1 -163.7 394.8 -152.1" fill="#707070" fill-rule="evenodd" stroke="none"/>
    <path d="M382.3 186.75 L375.85 178.3 380.75 164.1 415.2 138.3 425.2 152.3 421.85 165.85 394.75 195.65 384.55 185.2 382.3 186.75" fill="#707070" fill-rule="evenodd" stroke="none"/>
    <path d="M167.0 -138.7 L168.4 -93.7 164.4 -93.7 163.75 -90.35 155.85 -91.0 155.2 -93.15 157.0 -138.35 167.0 -138.7" fill="#707070" fill-rule="evenodd" stroke="none"/>
    <path d="M227.75 250.3 L227.75 261.0 211.25 261.0 209.4 259.25 209.4 251.65 211.25 250.3 227.75 250.3" fill="#707070" fill-rule="evenodd" stroke="none"/>
    <path d="M225.4 264.4 L212.25 264.4 212.25 260.0 225.4 260.0 225.4 264.4" fill="#707070" fill-rule="evenodd" stroke="none"/>
    <path d="M162.55 -208.6 L153.2 -215.25 151.85 -219.6 229.0 -219.8 240.4 -211.9 240.3 -207.25 226.75 -203.9 212.75 -206.0 213.1 -207.9 210.3 -208.15 205.3 -207.35 190.1 -207.25 190.2 -208.8 162.55 -208.6" fill="#707070" fill-rule="evenodd" stroke="none"/>
    <path d="M199.3 -271.35 L228.65 -271.35 228.65 -268.85 151.5 -268.85 152.0 -276.35 195.5 -276.35 199.3 -271.35" fill="#707070" fill-rule="evenodd" stroke="none"/>
    <path d="M161.15 -271.7 L161.15 -279.7 171.3 -279.7 171.3 -271.7 161.15 -271.7" fill="#707070" fill-rule="evenodd" stroke="none"/>
    <path d="M110.8 -270.85 L110.8 -267.7 71.0 -267.7 57.3 -268.35 57.65 -271.5 71.0 -270.85 110.8 -270.85" fill="#707070" fill-rule="evenodd" stroke="none"/>
    <path d="M109.75 -270.45 L107.6 -269.25 105.2 -269.05 102.95 -269.95 101.3 -271.75 100.6 -274.05 100.95 -276.45 102.35 -278.45 104.45 -279.65 106.85 -279.85 109.1 -278.95 110.75 -277.15 111.45 -274.85 111.1 -272.45 109.75 -270.45" fill="#707070" fill-rule="evenodd" stroke="none"/>
    <path d="M69.3 -216.15 L57.4 -214.25 57.0 -217.35 69.3 -218.9 111.0 -218.9 111.0 -216.15 69.3 -216.15" fill="#707070" fill-rule="evenodd" stroke="none"/>
    <path d="M77.85 -217.15 L77.4 -214.15 70.3 -213.6 65.65 -212.6 60.2 -212.9 59.3 -215.9 73.65 -218.15 77.85 -217.15" fill="#707070" fill-rule="evenodd" stroke="none"/>
    <path d="M-183.85 79.0 L-187.7 77.3 -188.85 74.8 -187.0 71.3 -182.35 69.3 -179.2 72.15 -179.5 76.15 -183.85 79.0" fill="#707070" fill-rule="evenodd" stroke="none"/>
    <path d="M-180.2 82.15 L-174.5 82.3 -173.35 106.3 -173.35 114.65 -174.2 125.3 -177.2 131.0 -179.2 131.15 -180.5 129.65 -182.35 125.8 -181.85 108.15 -180.2 82.15" fill="#707070" fill-rule="evenodd" stroke="none"/>
    <path d="M-168.35 118.3 L-163.2 113.65 -160.7 116.5 -166.35 120.8 -168.35 118.3" fill="#707070" fill-rule="evenodd" stroke="none"/>
    <path d="M-322.85 -160.75 L-321.75 -163.25 -318.75 -164.25 -314.95 -163.45 -313.1 -161.1 -314.25 -157.45 -317.35 -155.2 -322.1 -156.6 -322.85 -160.75" fill="#707070" fill-rule="evenodd" stroke="none"/>
    <path d="M-386.85 -166.7 L-388.0 -171.85 -387.35 -173.0 -384.35 -176.85 -381.0 -177.85 -382.0 -179.5 -372.2 -189.5 -374.2 -191.85 -354.85 -210.5 -343.2 -200.85 -341.2 -201.7 -339.85 -200.7 -339.0 -196.2 -339.85 -191.35 -358.0 -174.2 -378.2 -158.35 -382.0 -161.85 -382.35 -164.2 -386.85 -166.7" fill="#707070" fill-rule="evenodd" stroke="none"/>
    <path d="M-354.8 180.1 L-366.6 173.0 -357.0 152.3 -349.25 156.1 -346.8 158.3 -304.35 173.2 -306.15 178.1 -308.35 189.65 -314.15 189.2 -338.6 180.1 -339.45 181.0 -354.8 180.1" fill="#707070" fill-rule="evenodd" stroke="none"/>
    <path d="M-159.45 277.85 L-158.6 271.3 -217.0 271.3 -217.0 276.1 -223.9 276.3 -224.15 273.0 -227.9 273.2 -231.0 270.3 -231.0 268.75 -227.45 267.2 -222.6 266.55 -220.65 268.0 -112.15 268.0 -112.15 271.3 -112.8 271.3 -111.9 275.85 -130.6 279.0 -134.15 279.2 -136.8 278.1 -159.45 277.85" fill="#707070" fill-rule="evenodd" stroke="none"/>
    <path d="M-121.35 217.75 L-121.35 214.75 -112.8 214.75 -112.8 221.1 -151.5 221.1 -153.0 222.75 -155.45 222.75 -156.9 221.1 -227.0 221.1 -227.0 217.75 -184.85 217.75 -184.15 216.75 -182.35 215.65 -180.15 216.3 -179.05 217.75 -121.35 217.75" fill="#707070" fill-rule="evenodd" stroke="none"/>
  </g>
</svg>
