<?xml version="1.0" encoding="UTF-8" standalone="no"?>
<svg xmlns:ffdec="https://www.free-decompiler.com/flash" xmlns:xlink="http://www.w3.org/1999/xlink" ffdec:objectType="shape" height="1060.0px" width="1666.65px" xmlns="http://www.w3.org/2000/svg">
  <g transform="matrix(1.0, 0.0, 0.0, 1.0, 834.15, 531.0)">
    <path d="M603.2 -443.05 L650.55 -406.5 693.5 -364.45 731.5 -317.5 764.1 -266.2 790.75 -211.25 811.15 -153.45 825.05 -93.6 832.2 -32.4 832.5 29.2 826.05 90.5 812.8 150.55 793.05 208.55 766.95 263.8 734.95 315.5 697.45 362.9 654.95 405.5 608.05 442.55 557.3 473.7 503.5 498.4 447.3 516.45 399.95 525.5 370.65 528.5 330.9 529.0 -333.5 529.0 -370.65 528.55 -402.15 525.4 -448.95 516.45 -505.15 498.4 -558.95 473.7 -609.65 442.55 -656.6 405.5 -699.1 362.9 -736.6 315.5 -768.6 263.8 -794.65 208.55 -814.45 150.55 -827.65 90.5 -834.15 29.2 -833.8 -32.4 -826.65 -93.6 -812.8 -153.45 -792.35 -211.25 -765.7 -266.2 -733.15 -317.5 -695.1 -364.45 -652.15 -406.5 -604.85 -443.05 -553.8 -473.55 -499.7 -497.6 -443.3 -514.95 -390.4 -524.4 -333.8 -531.0 332.15 -531.0 388.8 -524.4 441.7 -514.95 498.05 -497.6 552.15 -473.55 603.2 -443.05" fill="#707070" fill-rule="evenodd" stroke="none"/>
    <path d="M524.55 -428.95 L573.05 -401.35 618.0 -368.25 658.8 -330.2 694.95 -287.6 725.9 -241.15 751.2 -191.45 770.6 -139.1 783.8 -84.85 790.6 -29.45 790.9 26.35 784.75 81.85 772.2 136.25 753.4 188.8 728.65 238.8 698.2 285.65 662.6 328.6 622.2 367.15 577.6 400.7 529.45 428.9 478.3 451.3 424.95 467.6 371.0 477.45 361.65 478.45 314.3 479.0 -316.9 479.0 -360.95 478.5 -374.0 477.2 -426.55 467.6 -479.95 451.3 -531.05 428.9 -579.25 400.7 -623.85 367.15 -664.2 328.6 -699.85 285.65 -730.25 238.8 -755.0 188.8 -773.8 136.25 -786.35 81.85 -792.55 26.35 -792.2 -29.45 -785.4 -84.85 -772.25 -139.1 -752.85 -191.45 -727.5 -241.15 -696.55 -287.6 -660.45 -330.2 -619.65 -368.25 -574.65 -401.35 -526.15 -428.95 -474.8 -450.75 -421.25 -466.5 -375.05 -474.35 -366.25 -476.75 -317.15 -494.65 -217.35 -514.7 216.0 -514.7 315.55 -494.65 363.55 -477.15 373.85 -474.25 419.6 -466.5 473.15 -450.75 524.55 -428.95" fill="#434343" fill-rule="evenodd" stroke="none"/>
    <path d="M392.8 -313.4 L394.35 -319.45 410.25 -314.8 446.15 -299.55 474.6 -283.35 471.2 -278.5 494.05 -262.55 497.45 -267.45 511.5 -257.1 516.9 -252.05 510.15 -245.55 511.8 -243.85 519.7 -251.35 519.7 -251.4 539.5 -271.2 571.25 -239.45 543.9 -212.3 545.55 -210.65 551.8 -216.6 560.6 -206.25 556.1 -202.95 572.75 -180.6 576.7 -183.55 586.85 -168.3 604.6 -133.55 615.3 -104.65 610.65 -103.6 616.8 -76.45 622.8 -77.8 627.35 -59.05 632.1 -20.35 632.3 15.7 628.0 54.45 625.0 67.45 618.95 66.05 612.75 93.2 618.5 94.5 606.1 129.2 588.8 164.2 582.0 174.6 578.35 171.9 561.75 194.2 566.7 197.9 551.35 216.4 545.8 211.1 544.15 212.75 553.6 221.95 553.6 221.85 571.25 239.5 539.5 271.25 518.35 250.1 518.25 250.2 512.05 244.3 510.4 246.0 516.5 251.9 514.4 253.85 505.8 260.35 503.0 256.35 480.15 272.25 483.5 277.1 483.25 277.35 449.6 297.05 413.85 312.7 403.65 315.8 402.25 310.35 375.25 317.3 376.95 323.95 375.85 324.3 336.5 329.95 299.25 330.35 206.3 330.35 165.7 346.65 163.0 346.65 163.0 348.15 165.1 348.15 165.1 381.3 135.1 381.3 135.1 348.15 137.2 348.15 137.2 346.65 129.65 346.65 129.65 348.15 131.75 348.15 131.75 381.3 101.75 381.3 101.75 348.15 103.85 348.15 103.85 346.65 96.3 346.65 96.3 348.15 98.4 348.15 98.4 381.3 68.4 381.3 68.4 348.15 70.55 348.15 70.55 346.65 63.0 346.65 63.0 348.15 65.1 348.15 65.1 381.3 35.1 381.3 35.1 348.15 37.2 348.15 37.2 346.65 29.65 346.65 29.65 348.15 31.75 348.15 31.75 381.3 1.75 381.3 1.75 348.15 3.85 348.15 3.85 346.65 -3.7 346.65 -3.7 348.15 -1.6 348.15 -1.6 381.3 -31.6 381.3 -31.6 348.15 -29.45 348.15 -29.45 346.65 -37.0 346.65 -37.0 348.15 -34.9 348.15 -34.9 381.3 -64.9 381.3 -64.9 348.15 -62.8 348.15 -62.8 346.65 -70.35 346.65 -70.35 348.15 -68.25 348.15 -68.25 381.3 -98.25 381.3 -98.25 348.15 -96.15 348.15 -96.15 346.65 -103.7 346.65 -103.7 348.15 -101.6 348.15 -101.6 381.3 -131.6 381.3 -131.6 348.15 -129.45 348.15 -129.45 346.65 -137.0 346.65 -137.0 348.15 -134.9 348.15 -134.9 381.3 -164.9 381.3 -164.9 348.15 -162.8 348.15 -162.8 346.65 -166.7 346.65 -205.0 330.35 -301.05 330.35 -338.15 329.95 -367.0 325.8 -365.4 319.65 -392.4 312.7 -394.1 319.2 -415.45 312.7 -451.2 297.05 -474.7 283.25 -470.55 277.25 -493.35 261.35 -497.75 267.6 -516.05 253.85 -517.05 252.9 -509.85 245.85 -511.5 244.2 -518.85 251.2 -519.15 250.85 -539.55 271.25 -571.3 239.5 -553.1 221.25 -553.05 221.85 -543.6 212.65 -545.25 211.0 -552.1 217.5 -561.75 205.8 -555.9 201.45 -572.55 179.1 -578.05 183.2 -590.4 164.2 -607.7 129.2 -616.8 103.75 -610.05 102.2 -616.2 75.05 -624.45 76.95 -629.65 54.45 -633.95 15.7 -633.7 -20.35 -628.95 -59.05 -626.9 -67.55 -619.65 -65.9 -613.5 -93.05 -620.35 -94.6 -619.75 -96.95 -606.2 -133.55 -588.5 -168.3 -583.85 -175.25 -578.1 -170.95 -561.45 -193.25 -568.4 -198.45 -566.9 -200.75 -552.75 -217.4 -545.5 -210.55 -543.85 -212.2 -571.3 -239.45 -539.55 -271.2 -519.65 -251.3 -519.65 -251.25 -511.75 -243.75 -510.1 -245.4 -517.7 -252.8 -513.1 -257.1 -506.5 -261.95 -502.35 -256.05 -479.55 -272.0 -484.05 -278.5 -481.65 -280.25 -447.8 -299.55 -411.85 -314.8 -404.7 -316.9 -402.95 -310.2 -376.0 -317.1 -377.95 -324.75 -374.45 -325.75 -335.3 -332.45 -293.95 -333.0 -205.0 -333.0 -166.7 -346.7 -162.8 -346.7 -162.8 -348.35 -164.9 -348.35 -164.9 -381.5 -134.9 -381.5 -134.9 -348.35 -137.0 -348.35 -137.0 -346.7 -129.45 -346.7 -129.45 -348.35 -131.6 -348.35 -131.6 -381.5 -101.6 -381.5 -101.6 -348.35 -103.7 -348.35 -103.7 -346.7 -96.15 -346.7 -96.15 -348.35 -98.25 -348.35 -98.25 -381.5 -68.25 -381.5 -68.25 -348.35 -70.35 -348.35 -70.35 -346.7 -62.8 -346.7 -62.8 -348.35 -64.9 -348.35 -64.9 -381.5 -34.9 -381.5 -34.9 -348.35 -37.0 -348.35 -37.0 -346.7 -29.45 -346.7 -29.45 -348.35 -31.6 -348.35 -31.6 -381.5 -1.6 -381.5 -1.6 -348.35 -3.7 -348.35 -3.7 -346.7 3.85 -346.7 3.85 -348.35 1.75 -348.35 1.75 -381.5 31.75 -381.5 31.75 -348.35 29.65 -348.35 29.65 -346.7 37.2 -346.7 37.2 -348.35 35.1 -348.35 35.1 -381.5 65.1 -381.5 65.1 -348.35 63.0 -348.35 63.0 -346.7 70.55 -346.7 70.55 -348.35 68.4 -348.35 68.4 -381.5 98.4 -381.5 98.4 -348.35 96.3 -348.35 96.3 -346.7 103.85 -346.7 103.85 -348.35 101.75 -348.35 101.75 -381.5 131.75 -381.5 131.75 -348.35 129.65 -348.35 129.65 -346.7 137.2 -346.7 137.2 -348.35 135.1 -348.35 135.1 -381.5 165.1 -381.5 165.1 -348.35 163.0 -348.35 163.0 -346.7 165.7 -346.7 206.3 -333.0 292.85 -333.0 333.65 -332.45 367.45 -326.7 365.8 -320.35 392.8 -313.4" fill="#707070" fill-rule="evenodd" stroke="none"/>
    <path d="M387.65 -287.0 L417.3 -276.0 468.0 -250.0 505.0 -218.35 535.65 -185.7 556.0 -156.7 570.65 -128.7 587.0 -89.0 599.3 -28.0 600.1 9.85 598.55 31.2 593.4 63.65 581.65 104.8 562.8 147.0 539.0 183.4 510.3 217.0 470.75 249.0 436.55 270.1 389.0 288.3 345.0 299.0 305.5 301.0 -291.0 301.0 -330.5 299.5 -389.45 289.4 -425.45 274.0 -458.35 256.3 -492.35 231.65 -515.7 210.3 -535.0 187.0 -554.35 159.65 -571.0 128.3 -583.0 99.0 -593.0 65.65 -600.35 21.0 -599.7 -23.0 -595.0 -53.0 -586.35 -86.35 -575.7 -117.7 -565.0 -139.7 -541.7 -175.7 -519.7 -203.7 -495.7 -227.0 -469.0 -247.0 -446.35 -261.0 -411.0 -279.0 -380.35 -287.7 -337.0 -297.0 -307.0 -302.0 295.0 -302.35 335.0 -298.35 387.65 -287.0" fill="#969696" fill-rule="evenodd" stroke="none"/>
    <path d="M304.6 -304.5 L331.65 -301.7 368.0 -294.85 401.9 -284.9 434.4 -271.1 465.1 -253.65 493.55 -232.7 519.4 -208.6 542.25 -181.7 561.85 -152.3 577.85 -120.8 590.15 -87.7 598.45 -53.35 602.75 -18.3 603.0 17.05 599.1 52.15 591.15 86.55 579.25 119.8 563.55 151.45 544.3 181.1 521.75 208.3 496.2 232.65 468.0 253.95 437.5 271.75 405.15 285.95 371.4 296.25 348.2 300.5 304.35 302.8 -330.0 302.7 -370.6 296.3 -404.45 285.95 -436.8 271.75 -467.3 253.95 -495.5 232.65 -521.05 208.3 -543.6 181.1 -562.85 151.45 -578.55 119.8 -590.4 86.55 -598.35 52.15 -602.25 17.05 -602.05 -18.3 -597.75 -53.35 -589.4 -87.7 -577.15 -120.8 -561.1 -152.3 -541.55 -181.7 -518.7 -208.6 -492.85 -232.7 -464.4 -253.65 -433.7 -271.1 -401.2 -284.9 -367.25 -294.85 -330.3 -300.75 -305.85 -304.2 -289.9 -305.0 284.2 -305.0 304.6 -304.5 M331.0 -296.6 L304.2 -299.5 284.15 -300.0 -289.7 -300.0 -305.2 -299.2 -330.85 -296.0 -366.15 -290.0 -399.5 -280.2 -431.5 -266.65 -461.65 -249.45 -489.65 -228.85 -515.05 -205.15 -537.55 -178.65 -556.8 -149.75 -572.55 -118.8 -584.65 -86.2 -592.85 -52.45 -597.05 -17.95 -597.25 16.75 -593.45 51.3 -585.6 85.15 -573.9 117.85 -558.5 149.0 -539.6 178.15 -517.4 204.85 -492.25 228.85 -464.5 249.75 -434.55 267.3 Q-418.6 274.3 -402.7 281.25 L-369.5 291.4 -329.6 297.7 304.2 297.8 347.6 295.5 370.2 291.4 403.4 281.25 Q419.35 274.3 435.25 267.3 L465.25 249.75 493.0 228.85 518.1 204.85 540.3 178.15 559.2 149.0 574.65 117.85 586.3 85.15 594.15 51.3 598.0 16.75 597.8 -17.95 593.55 -52.45 585.35 -86.2 573.25 -118.8 557.5 -149.75 538.25 -178.65 515.75 -205.15 490.35 -228.85 462.4 -249.45 432.2 -266.65 400.2 -280.2 366.9 -290.0 331.0 -296.6" fill="#828282" fill-rule="evenodd" stroke="none"/>
    <path d="M395.0 41.0 L395.0 122.0 370.85 122.0 370.85 133.0 347.1 136.0 308.1 136.0 292.3 134.0 272.0 134.0 272.0 80.0 284.35 80.0 284.35 27.05 397.5 27.05 397.5 41.0 395.0 41.0" fill="#7f7f7f" fill-rule="evenodd" stroke="none"/>
    <path d="M347.1 -137.0 L370.85 -134.0 370.85 -122.5 395.0 -122.5 395.0 -40.0 397.5 -40.0 397.5 -26.0 284.35 -26.0 284.35 -77.5 273.0 -77.5 273.0 -131.5 284.35 -131.5 284.35 -134.0 308.1 -137.0 347.1 -137.0" fill="#7f7f7f" fill-rule="evenodd" stroke="none"/>
    <path d="M-371.1 -133.3 L-347.35 -136.3 -308.35 -136.3 -284.6 -133.3 -284.6 -130.8 -273.25 -130.8 -273.25 -76.8 -284.6 -76.8 -284.6 -26.5 -397.7 -26.5 -397.7 -39.3 -395.2 -39.3 -395.2 -121.8 -371.1 -121.8 -371.1 -133.3" fill="#7f7f7f" fill-rule="evenodd" stroke="none"/>
    <path d="M-397.7 41.7 L-397.7 26.55 -284.6 26.55 -284.6 80.7 -272.25 80.7 -272.25 134.65 -292.5 134.65 -308.35 136.65 -347.35 136.65 -371.1 133.65 -371.1 122.65 -395.2 122.65 -395.2 41.7 -397.7 41.7" fill="#7f7f7f" fill-rule="evenodd" stroke="none"/>
    <path d="M-24.0 181.3 L-26.65 195.2 -29.2 203.4 -33.5 211.45 -39.2 218.6 -49.35 227.0 -139.0 227.0 -139.0 192.3 -135.7 192.3 -135.7 149.0 -147.7 149.0 -147.7 83.65 -49.35 83.65 -49.35 99.0 -24.0 99.0 -24.0 181.3" fill="#7f7f7f" fill-rule="evenodd" stroke="none"/>
    <path d="M30.0 99.0 L56.3 99.0 56.3 83.65 154.3 83.65 154.3 149.0 141.0 149.0 141.0 192.3 145.0 192.3 145.0 227.0 56.05 227.0 46.7 219.6 41.0 212.45 36.7 204.4 32.4 193.4 30.0 181.3 30.0 99.0" fill="#7f7f7f" fill-rule="evenodd" stroke="none"/>
    <path d="M40.7 -212.95 L46.1 -218.35 53.85 -224.35 145.0 -224.35 145.0 -193.7 141.0 -193.7 141.0 -151.05 154.3 -151.05 154.3 -85.7 57.0 -85.7 57.0 -101.05 30.0 -101.05 30.0 -178.1 33.5 -196.2 36.35 -204.9 40.7 -212.95" fill="#7f7f7f" fill-rule="evenodd" stroke="none"/>
    <path d="M-46.45 -224.35 L-39.55 -219.1 -33.85 -211.95 -29.5 -203.9 -26.15 -193.7 -24.0 -178.1 -24.0 -101.05 -48.7 -101.05 -48.7 -85.7 -147.7 -85.7 -147.7 -151.05 -135.0 -151.05 -135.0 -194.35 -139.0 -194.35 -139.0 -224.35 -46.45 -224.35" fill="#7f7f7f" fill-rule="evenodd" stroke="none"/>
    <path d="M390.5 187.15 L407.2 178.2 410.1 174.75 415.55 172.4 420.2 169.0 421.65 167.2 423.65 165.3 428.1 162.75 430.5 160.65 438.0 152.35 438.75 152.2 438.8 153.05 434.4 160.4 433.55 162.75 429.2 168.3 422.3 174.75 412.3 178.75 408.3 181.65 403.65 186.3 400.75 190.1 387.65 202.3 376.55 206.55 357.0 215.0 350.75 214.55 334.55 219.85 325.2 224.1 298.55 232.3 273.0 236.1 261.65 235.0 256.55 232.55 190.3 229.0 174.1 231.2 167.0 235.0 157.4 236.3 145.3 234.5 130.15 236.0 119.15 234.65 107.65 232.3 102.5 233.0 98.1 236.55 94.5 233.15 85.0 232.65 77.65 231.65 69.8 231.65 64.1 229.2 61.45 230.3 55.85 229.95 50.65 227.8 45.0 228.0 42.3 226.5 38.65 226.3 33.8 227.0 30.65 228.6 27.8 229.65 21.4 230.9 12.1 230.25 4.4 228.85 -21.6 225.75 -47.3 227.7 -50.65 227.6 -108.35 235.65 -165.7 236.0 -200.0 235.65 -209.0 230.3 -213.7 229.0 -229.7 230.65 -234.0 233.0 -247.35 228.3 -253.0 230.65 -255.35 232.65 -278.35 235.0 -284.8 234.55 -295.25 232.3 -314.8 230.55 -330.7 228.3 -340.0 222.3 -347.35 218.65 -355.35 211.3 -374.0 206.0 -380.7 205.0 -386.35 201.3 -393.0 192.55 -405.25 182.75 -415.7 177.65 -422.35 169.4 -426.75 165.8 -435.0 161.3 -439.9 154.55 -440.15 151.1 -439.8 149.1 -438.35 152.85 -431.7 160.0 -421.7 165.65 -419.0 168.3 -418.0 170.55 -414.35 174.0 -411.7 174.3 -405.6 176.85 -394.6 184.3 -387.35 190.3 -363.45 202.55 -354.6 204.3 -352.35 205.0 -346.6 208.55 -335.9 212.55 -320.35 220.75 -316.0 221.0 -308.8 219.65 -301.85 219.0 -297.5 219.8 -294.5 221.3 -283.2 224.5 -281.45 222.55 -279.2 221.5 -272.7 223.15 -267.7 221.4 -265.7 218.3 -259.0 214.65 -256.35 214.55 -254.8 214.75 -251.9 215.85 -245.25 220.3 -239.45 222.55 -237.9 223.4 -235.0 224.55 -230.8 224.75 -224.15 221.4 -221.45 219.65 -217.25 218.1 -205.45 218.3 -197.25 217.2 -194.65 218.2 -191.35 217.65 -187.0 215.65 -180.35 216.1 -179.25 217.2 -173.35 222.0 -165.0 217.65 -157.0 216.0 -153.0 218.1 -142.8 221.85 -133.35 218.3 -119.0 218.65 -108.0 221.3 -99.0 220.3 Q-97.65 221.0 -96.35 221.65 L-88.7 224.0 -61.7 223.0 -52.35 224.3 -46.1 224.6 -43.0 225.15 -38.15 224.55 -33.7 224.8 -19.35 223.8 -12.7 225.5 -5.7 226.3 6.15 221.3 13.15 221.5 24.15 223.3 27.65 223.5 30.65 223.0 38.15 219.5 77.65 222.55 82.3 220.55 85.85 220.55 96.3 218.1 108.1 218.75 140.3 222.3 153.85 222.1 156.75 223.65 157.2 224.75 167.0 223.85 177.65 220.3 181.65 219.4 191.65 219.85 194.55 219.4 203.85 220.55 215.0 219.85 221.65 220.3 230.3 222.3 243.4 222.3 253.0 227.3 259.65 228.3 272.3 226.65 287.65 218.65 298.0 218.0 305.15 218.65 312.65 220.15 318.8 217.3 321.8 215.3 327.0 212.8 334.3 211.0 340.1 210.1 345.2 209.85 352.1 206.75 358.55 204.75 361.85 203.2 364.3 203.0 379.65 195.4 382.55 193.0 386.3 191.0 390.5 187.15" fill="#434343" fill-rule="evenodd" stroke="none"/>
    <path d="M305.65 -227.7 L310.75 -227.25 318.3 -228.15 323.65 -227.7 327.4 -226.6 336.7 -221.8 341.0 -220.8 356.65 -211.7 372.0 -207.7 376.75 -205.9 380.0 -205.9 382.0 -205.0 409.0 -184.0 422.3 -169.35 434.2 -160.8 436.85 -157.8 438.55 -155.0 438.85 -153.35 433.85 -158.8 431.5 -160.5 424.2 -164.35 420.85 -166.8 415.0 -174.0 412.0 -176.0 409.2 -176.35 405.65 -178.15 392.55 -187.9 387.0 -193.7 383.65 -198.85 381.5 -200.5 361.5 -206.5 353.65 -206.5 347.8 -207.85 326.3 -217.5 325.15 -219.0 319.5 -221.35 315.8 -221.2 311.3 -220.0 306.15 -220.35 302.8 -221.35 300.15 -220.85 281.5 -225.0 275.0 -224.5 266.5 -223.0 262.0 -219.5 256.6 -216.8 255.95 -216.75 255.2 -217.05 252.5 -219.0 247.0 -221.85 243.3 -222.7 240.0 -224.35 235.65 -225.35 228.65 -224.7 213.3 -220.45 212.65 -220.4 205.3 -221.0 189.3 -220.7 180.65 -221.35 166.0 -221.0 160.75 -217.9 150.55 -217.9 142.55 -221.9 121.05 -222.1 116.65 -222.7 112.55 -221.45 109.0 -221.35 99.65 -223.7 92.1 -222.6 50.65 -223.35 46.0 -223.0 40.65 -224.0 37.15 -223.85 31.0 -224.35 23.65 -223.7 11.65 -223.7 5.65 -224.2 -14.35 -223.45 -32.35 -224.2 -54.7 -224.2 -103.0 -225.0 -169.0 -223.45 -174.35 -222.6 -177.9 -219.9 -180.8 -219.0 -184.6 -218.8 -192.15 -221.45 -196.35 -221.0 -198.35 -220.35 -211.35 -220.7 -217.35 -219.7 -231.0 -222.35 -243.35 -223.0 -250.7 -226.35 -256.5 -228.0 -261.7 -228.7 -267.7 -228.0 -278.0 -225.7 -288.7 -218.7 -295.7 -218.0 -311.35 -220.35 -333.35 -213.7 -342.2 -212.8 -344.05 -212.2 -349.0 -208.7 -361.35 -205.7 -375.7 -198.0 -384.7 -191.7 -397.7 -184.0 -406.7 -177.7 -414.65 -174.85 -417.05 -173.3 -424.7 -165.7 -431.95 -159.75 -437.1 -153.0 -438.0 -152.45 -438.1 -153.25 -434.0 -161.7 -431.1 -166.1 -429.7 -167.45 -420.7 -174.0 -410.7 -180.35 -402.0 -188.7 -391.55 -199.75 -388.75 -201.65 -379.7 -205.0 -360.7 -213.7 -334.35 -219.35 -330.35 -222.0 -324.35 -225.0 -306.0 -231.35 -261.7 -236.2 -259.8 -235.75 -257.1 -232.95 -255.7 -232.3 -247.7 -231.7 -230.7 -231.35 -227.7 -230.35 -219.0 -231.0 -210.35 -232.35 -195.05 -229.9 -192.3 -229.95 -172.85 -233.7 -159.2 -232.85 -123.35 -237.0 -113.35 -233.0 -97.35 -232.35 -79.35 -233.0 -40.25 -227.25 -16.8 -230.15 4.1 -228.8 11.65 -226.6 36.75 -225.7 48.2 -228.1 60.85 -228.3 66.65 -230.7 79.3 -233.35 79.85 -233.4 157.85 -232.8 187.4 -233.7 199.4 -233.45 206.8 -232.45 208.2 -232.1 212.65 -230.2 218.65 -229.7 226.65 -230.35 231.15 -231.85 232.2 -231.9 244.5 -229.7 253.0 -229.35 256.0 -230.0 258.0 -231.7 262.8 -233.9 278.5 -234.0 282.0 -233.0 293.85 -231.45 305.65 -227.7" fill="#434343" fill-rule="evenodd" stroke="none"/>
    <path d="M401.3 -134.0 L397.3 -139.7 388.0 -144.45 380.65 -151.35 376.65 -153.7 370.65 -156.35 369.2 -158.15 365.65 -160.0 361.0 -161.65 358.4 -163.0 353.55 -167.35 350.75 -168.6 349.65 -170.0 347.1 -171.9 348.2 -172.25 350.65 -172.0 353.1 -171.25 356.75 -169.25 357.3 -168.25 358.55 -167.15 363.0 -166.0 382.65 -156.0 390.3 -148.7 399.65 -141.35 409.65 -129.0 415.75 -120.7 423.0 -112.35 427.3 -109.0 432.65 -102.7 435.0 -96.0 436.0 -91.7 436.65 -86.35 438.0 -80.35 439.0 -72.7 440.0 -69.0 439.65 -64.7 440.8 -61.95 443.65 -60.0 451.8 -43.6 453.65 -27.15 452.55 -16.0 452.4 0.65 453.65 6.4 454.1 13.55 454.0 24.4 453.1 33.4 451.2 44.85 446.55 62.1 443.0 68.3 439.4 79.3 437.2 84.55 431.3 91.5 430.8 93.5 432.5 96.15 432.3 98.4 430.3 101.55 422.85 109.2 419.3 114.3 417.2 115.55 412.4 116.65 410.4 118.2 409.65 121.1 409.65 124.4 405.85 130.65 405.1 132.65 404.0 134.3 401.05 136.0 399.4 136.65 396.4 142.8 386.1 153.55 381.0 157.75 368.55 163.3 363.2 167.1 357.65 169.75 341.4 171.75 334.65 169.0 347.0 165.3 363.65 161.3 370.55 158.4 371.2 156.85 372.55 154.4 373.85 153.65 375.85 151.65 379.85 146.55 383.75 142.4 385.85 139.1 386.65 136.65 387.55 134.75 389.65 133.0 392.1 132.0 396.55 131.15 398.85 129.0 400.65 125.65 403.1 119.2 404.0 115.4 405.0 115.0 407.1 114.75 408.65 113.3 410.8 110.8 415.3 106.75 417.65 102.3 422.8 95.0 425.65 87.65 428.0 83.3 431.0 76.3 432.3 75.15 433.2 73.1 434.1 62.4 435.0 59.3 439.3 50.3 442.3 41.0 447.6 30.7 448.5 27.5 448.3 -1.35 447.0 -8.0 447.3 -11.7 447.85 -13.9 449.0 -15.7 451.65 -21.35 451.4 -33.0 450.55 -43.0 447.9 -47.35 439.55 -57.75 437.5 -61.5 434.75 -64.45 431.9 -69.95 429.5 -76.2 429.0 -79.7 429.15 -91.85 428.65 -96.35 426.5 -99.7 420.0 -106.0 415.3 -112.35 410.75 -119.8 405.65 -125.7 401.3 -134.0" fill="#434343" fill-rule="evenodd" stroke="none"/>
    <path d="M299.65 -173.0 L297.5 -171.7 283.2 -167.45 280.1 -165.0 278.1 -162.6 275.9 -160.65 273.75 -159.75 272.35 -158.25 271.3 -157.9 268.65 -157.7 267.4 -156.7 266.55 -154.0 265.0 -152.4 262.55 -151.5 261.65 -150.2 260.85 -148.3 258.9 -145.4 256.65 -144.2 254.3 -141.0 253.65 -138.35 251.65 -135.7 249.0 -133.9 246.55 -129.7 241.4 -129.25 240.55 -125.9 239.0 -123.0 236.5 -122.25 237.0 -118.35 236.3 -116.8 233.85 -113.9 233.3 -111.95 229.65 -108.8 229.0 -107.0 229.0 -105.45 229.85 -103.0 227.85 -99.9 226.75 -97.45 226.3 -95.0 227.0 -93.0 224.55 -89.0 222.55 -87.7 219.65 -80.8 218.75 -70.6 216.9 -58.25 216.55 -49.0 215.65 -45.9 211.65 -36.6 212.1 -45.9 210.75 -51.0 209.4 -62.35 212.3 -74.8 215.85 -83.7 220.55 -100.35 221.3 -105.7 222.75 -108.35 227.2 -112.6 230.9 -114.7 232.55 -117.9 233.65 -124.8 234.8 -128.85 240.65 -135.2 247.0 -139.35 250.55 -143.7 252.75 -149.45 261.65 -158.8 272.95 -168.5 280.55 -171.4 286.6 -171.95 288.15 -172.25 291.6 -174.25 300.75 -177.25 304.75 -176.35 303.85 -175.9 301.2 -175.7 299.65 -173.0" fill="#434343" fill-rule="evenodd" stroke="none"/>
    <path d="M218.65 53.3 L218.65 58.0 221.3 64.65 224.3 68.75 227.3 82.35 227.35 84.7 228.0 85.65 228.75 90.55 233.65 105.3 234.0 111.25 234.95 112.0 235.95 112.35 238.65 116.0 240.75 121.15 243.25 124.25 243.55 126.3 244.65 127.65 249.0 134.65 250.65 139.0 252.8 142.3 256.0 144.55 256.65 145.8 256.75 147.15 257.55 147.7 259.25 147.25 260.55 148.05 262.4 150.25 263.5 151.0 265.3 151.5 267.05 153.5 268.3 156.75 270.65 157.65 276.0 161.4 281.75 164.0 288.3 165.3 293.65 171.0 289.65 171.65 276.65 165.3 269.0 159.0 260.65 155.65 253.65 149.0 239.9 134.3 236.25 129.5 234.3 126.0 232.55 117.9 231.15 115.65 228.05 108.8 220.8 96.3 219.75 89.65 220.2 88.3 219.85 84.55 218.65 80.65 218.65 74.75 217.95 72.2 217.85 69.2 216.85 66.55 215.65 64.3 215.65 55.0 212.3 48.3 211.65 42.3 212.3 32.0 214.0 38.3 214.3 42.65 216.0 49.0 218.65 53.3" fill="#434343" fill-rule="evenodd" stroke="none"/>
    <path d="M-210.9 34.2 L-210.65 34.2 -211.25 42.1 -212.15 45.0 -212.15 46.75 -209.9 52.1 -210.15 65.4 -210.8 71.0 -213.0 79.2 -215.7 83.85 -216.8 88.55 -217.7 90.55 -218.8 96.55 -222.35 107.85 -224.15 109.85 -228.35 113.0 -230.8 115.4 -232.2 117.35 -232.75 118.75 -233.9 124.55 -237.45 133.2 -248.15 140.1 -249.45 142.3 -250.35 145.2 -251.45 147.65 -256.35 154.1 -263.45 159.0 -271.9 167.65 -276.35 170.55 -286.6 171.85 -289.0 172.75 -295.25 175.85 -300.8 177.4 -303.45 177.0 -304.15 176.3 -303.25 175.65 -301.45 175.4 -298.6 175.4 -296.35 172.1 -293.45 170.6 -282.15 167.2 -277.7 166.55 -269.25 160.3 -266.8 159.2 -263.9 153.65 -259.7 147.85 -253.0 141.0 -243.45 132.1 -234.15 118.3 -231.1 113.0 -229.7 111.05 -225.0 107.0 -223.25 100.55 -222.8 91.4 -221.25 83.0 -217.9 73.4 -217.7 71.65 -217.35 51.0 -215.7 47.2 -214.15 40.1 -210.9 34.2" fill="#434343" fill-rule="evenodd" stroke="none"/>
    <path d="M-255.35 -147.7 L-268.35 -156.0 -277.7 -163.35 -286.7 -167.7 -291.45 -169.45 -293.7 -170.9 -292.35 -172.0 -287.25 -171.9 -286.0 -171.5 -284.15 -170.15 -275.8 -166.45 -274.6 -165.6 -270.6 -160.35 -264.35 -158.35 -255.25 -151.9 -239.0 -133.9 -234.15 -125.45 -233.45 -122.6 -233.25 -119.25 -229.45 -112.6 -225.7 -104.8 -219.9 -96.15 -218.35 -88.0 -219.25 -79.7 -218.35 -74.8 -217.9 -69.45 -215.9 -65.25 -215.0 -56.35 -212.8 -49.45 -211.9 -43.45 -212.0 -31.45 -212.3 -30.9 -212.65 -31.15 -216.0 -46.7 -218.35 -55.0 -222.35 -66.7 -227.0 -78.7 -227.0 -82.7 -228.0 -90.35 -231.0 -98.35 -233.35 -107.7 -234.0 -114.35 -235.0 -118.0 -242.7 -128.7 -247.7 -139.0 -255.35 -147.7" fill="#434343" fill-rule="evenodd" stroke="none"/>
    <path d="M-374.6 -160.8 L-365.0 -165.0 -358.35 -169.0 -350.15 -171.9 -343.6 -171.75 -337.9 -174.35 -335.05 -173.55 -334.15 -172.6 -342.0 -168.35 -355.0 -165.0 -364.0 -161.35 -371.0 -159.0 -374.35 -156.0 -380.35 -148.35 -381.7 -144.35 -385.7 -138.0 -391.0 -132.35 -397.35 -132.35 -403.7 -122.7 -404.35 -115.7 -407.35 -112.7 -411.35 -112.0 -416.35 -107.35 -419.0 -103.0 -423.35 -93.35 -432.7 -78.0 -435.0 -71.0 -435.7 -62.0 -437.7 -54.35 -441.7 -46.35 -443.0 -40.35 -443.35 -37.35 -448.35 -29.35 -448.7 -6.7 -447.7 13.3 -449.0 18.3 -452.0 21.0 -452.35 30.65 -450.0 40.3 -447.35 48.65 -437.35 61.0 -434.7 63.65 -431.0 72.0 -429.35 77.65 -428.7 83.0 -429.0 92.0 -428.45 97.85 -427.85 99.05 -422.35 103.3 -416.7 109.65 -413.35 115.3 -405.35 126.0 -400.0 134.3 -395.0 139.65 -389.0 143.3 -383.7 147.65 -380.7 150.65 -366.6 158.55 -356.35 162.3 -348.7 168.65 -346.1 171.6 -345.45 173.0 -346.35 173.65 -357.0 167.65 -369.7 163.3 -379.35 158.0 -390.0 148.85 -396.0 145.3 -398.65 142.85 -401.6 139.0 -404.35 134.3 -410.45 128.85 -416.7 121.65 -422.0 112.75 -427.2 107.8 -429.15 105.55 -431.9 101.0 -432.45 98.1 -433.25 83.85 -434.15 77.4 -436.1 75.25 -437.45 73.1 -438.45 69.75 -438.45 67.1 -438.8 64.75 -440.0 62.1 -443.8 58.3 -448.85 49.5 -450.8 44.7 -453.7 32.9 -453.85 18.15 -451.5 0.9 -453.7 -3.85 -455.5 -5.35 -456.15 -7.25 -455.85 -14.5 -453.7 -27.35 -453.85 -34.5 -451.95 -40.25 -452.05 -44.05 -454.7 -51.35 -454.35 -56.35 -449.0 -65.7 -443.0 -77.7 -437.35 -86.7 -431.35 -97.7 -424.0 -108.7 -402.95 -136.5 -385.5 -154.0 -374.6 -160.8" fill="#434343" fill-rule="evenodd" stroke="none"/>
    <path d="M27.55 48.2 L28.85 49.35 29.45 50.95 29.25 52.7 28.25 54.1 26.75 54.9 25.0 54.9 23.45 54.1 22.5 52.7 22.3 50.95 22.9 49.35 24.2 48.2 25.85 47.8 27.55 48.2" fill="#707070" fill-rule="evenodd" stroke="none"/>
    <path d="M-17.15 48.15 L-15.85 49.3 -15.25 50.9 -15.45 52.65 -16.4 54.05 -17.95 54.85 -19.65 54.85 -21.2 54.05 -22.15 52.65 -22.4 50.9 -21.75 49.3 -20.5 48.15 -18.8 47.75 -17.15 48.15" fill="#707070" fill-rule="evenodd" stroke="none"/>
    <path d="M-17.15 -51.1 L-15.85 -50.0 -15.25 -48.35 -15.45 -46.65 -16.4 -45.25 -17.95 -44.45 -19.65 -44.45 -21.2 -45.25 -22.15 -46.65 -22.4 -48.35 -21.75 -50.0 -20.5 -51.1 -18.8 -51.55 -17.15 -51.1" fill="#707070" fill-rule="evenodd" stroke="none"/>
    <path d="M27.55 -51.55 L28.85 -50.4 29.45 -48.8 29.25 -47.1 28.25 -45.7 26.75 -44.85 25.0 -44.85 23.45 -45.7 22.5 -47.1 22.3 -48.8 22.9 -50.4 24.2 -51.55 25.85 -52.0 27.55 -51.55" fill="#707070" fill-rule="evenodd" stroke="none"/>
    <path d="M104.45 66.7 L104.7 66.9 105.1 66.4 104.45 66.7 M90.05 46.05 L92.4 43.95 95.15 42.5 98.2 41.75 101.3 41.75 104.35 42.5 107.15 43.95 109.45 46.05 110.75 47.9 124.3 48.0 143.3 66.65 148.0 75.0 148.1 75.65 153.0 75.65 153.0 82.0 149.5 82.0 151.65 91.65 158.3 146.3 143.3 160.3 59.65 160.3 59.65 101.0 70.95 101.0 71.55 94.75 74.4 82.85 79.55 73.1 88.0 60.0 87.15 57.75 86.75 54.65 87.15 51.55 88.25 48.6 90.05 46.05" fill="#707070" fill-rule="evenodd" stroke="none"/>
    <path d="M-98.15 66.4 L-97.75 66.9 -97.5 66.7 -98.15 66.4 M-88.2 42.5 L-85.45 43.95 -83.1 46.05 -81.3 48.6 -80.2 51.55 -79.8 54.65 -80.2 57.75 -81.05 60.0 -72.6 73.1 -67.45 82.85 -64.6 94.75 -64.0 101.0 -52.7 101.0 -52.7 160.3 -136.35 160.3 -151.35 146.3 -144.7 91.65 -142.55 82.0 -146.0 82.0 -146.0 75.65 -141.15 75.65 -141.0 75.0 -136.35 66.65 -117.35 48.0 -103.8 47.9 -102.5 46.05 -100.2 43.95 -97.4 42.5 -94.35 41.75 -91.25 41.75 -88.2 42.5" fill="#707070" fill-rule="evenodd" stroke="none"/>
    <path d="M103.4 -66.85 L103.15 -66.65 103.75 -66.35 103.4 -66.85 M142.0 -160.25 L157.0 -146.25 150.3 -91.6 148.2 -81.9 151.65 -81.9 151.65 -75.6 146.8 -75.6 146.65 -74.9 142.0 -66.6 123.0 -47.9 109.4 -47.8 108.15 -45.95 105.8 -43.9 103.0 -42.45 100.0 -41.7 96.85 -41.7 93.8 -42.45 91.05 -43.9 88.7 -45.95 86.95 -48.55 85.8 -51.45 85.45 -54.6 85.8 -57.7 86.65 -59.95 78.2 -73.0 73.1 -82.8 70.2 -94.7 69.6 -100.9 58.3 -100.9 58.3 -160.25 142.0 -160.25" fill="#707070" fill-rule="evenodd" stroke="none"/>
    <path d="M-96.2 -66.45 L-96.55 -65.95 -95.95 -66.25 -96.2 -66.45 M-149.8 -145.85 L-134.8 -159.85 -51.15 -159.85 -51.15 -100.5 -62.45 -100.5 -63.0 -94.3 -65.9 -82.4 -71.0 -72.65 -79.5 -59.55 -78.65 -57.3 -78.25 -54.2 -78.65 -51.1 -79.75 -48.15 -81.5 -45.6 -83.85 -43.5 -86.65 -42.05 -89.65 -41.3 -92.8 -41.3 -95.85 -42.05 -98.6 -43.5 -100.95 -45.6 -102.25 -47.45 -115.8 -47.5 -134.8 -66.2 -139.45 -74.5 -139.6 -75.2 -144.45 -75.2 -144.45 -81.5 -141.0 -81.5 -143.15 -91.2 -149.8 -145.85" fill="#707070" fill-rule="evenodd" stroke="none"/>
    <path d="M57.5 84.35 L58.05 84.1 58.6 83.95 59.15 83.95 59.7 84.1 60.2 84.35 60.65 84.75 60.95 85.2 61.15 85.75 61.25 86.3 61.15 86.85 60.95 87.4 60.65 87.85 60.2 88.25 59.7 88.5 59.15 88.65 58.6 88.65 58.05 88.5 57.5 88.25 57.1 87.85 56.75 87.4 56.55 86.85 56.5 86.3 56.55 85.75 56.75 85.2 57.1 84.75 57.5 84.35" fill="#707070" fill-rule="evenodd" stroke="none"/>
    <path d="M48.1 116.4 L48.3 116.9 48.4 117.5 48.3 118.05 48.1 118.55 47.8 119.05 46.85 119.7 46.3 119.8 45.75 119.8 45.2 119.7 44.25 119.05 43.95 118.55 43.75 118.05 43.65 117.5 43.75 116.9 43.95 116.4 44.25 115.9 45.2 115.25 45.75 115.15 46.3 115.15 46.85 115.25 47.8 115.9 48.1 116.4" fill="#707070" fill-rule="evenodd" stroke="none"/>
    <path d="M-37.45 115.7 L-36.7 116.55 -36.5 117.1 -36.45 117.65 -36.5 118.2 -36.7 118.75 -37.45 119.6 -37.95 119.85 -38.5 120.0 -39.1 120.0 -39.65 119.85 -40.15 119.6 -40.55 119.2 -40.9 118.75 -41.1 118.2 -41.15 117.65 -41.1 117.1 -40.9 116.55 -40.55 116.1 -40.15 115.7 -39.65 115.45 -39.1 115.3 -38.5 115.3 -37.95 115.45 -37.45 115.7" fill="#707070" fill-rule="evenodd" stroke="none"/>
    <path d="M-53.75 87.85 L-54.05 87.4 -54.25 86.85 -54.35 86.3 -54.25 85.75 -54.05 85.2 -53.75 84.75 -53.3 84.35 -52.8 84.1 -52.25 83.95 -51.7 83.95 -51.15 84.1 -50.65 84.35 -50.2 84.75 -49.9 85.2 -49.7 85.75 -49.6 86.3 -49.7 86.85 -49.9 87.4 -50.2 87.85 -50.65 88.25 -51.15 88.5 -51.7 88.65 -52.25 88.65 -52.8 88.5 -53.3 88.25 -53.75 87.85" fill="#707070" fill-rule="evenodd" stroke="none"/>
    <path d="M-47.9 -87.2 L-47.7 -86.65 -47.65 -86.1 -47.7 -85.55 -47.9 -85.0 -48.2 -84.55 -48.65 -84.15 -49.15 -83.9 -49.7 -83.75 -50.25 -83.75 -50.85 -83.9 -51.35 -84.15 -51.75 -84.55 -52.1 -85.0 -52.3 -85.55 -52.35 -86.1 -52.3 -86.65 -52.1 -87.2 -51.75 -87.65 -51.35 -88.05 -50.85 -88.3 -50.25 -88.45 -49.7 -88.45 -49.15 -88.3 -48.65 -88.05 -48.2 -87.65 -47.9 -87.2" fill="#707070" fill-rule="evenodd" stroke="none"/>
    <path d="M-38.5 -115.3 L-38.9 -115.7 -39.25 -116.15 -39.45 -116.7 -39.5 -117.25 -39.45 -117.85 -39.25 -118.35 -38.9 -118.85 -38.5 -119.2 -38.0 -119.5 -37.45 -119.6 -36.85 -119.6 -36.3 -119.5 -35.8 -119.2 -35.4 -118.85 -35.05 -118.35 -34.85 -117.85 -34.8 -117.25 -34.85 -116.7 -35.05 -116.15 -35.4 -115.7 -35.8 -115.3 -36.3 -115.05 -36.85 -114.9 -37.45 -114.9 -38.0 -115.05 -38.5 -115.3" fill="#707070" fill-rule="evenodd" stroke="none"/>
    <path d="M42.75 -116.35 L42.55 -116.85 42.5 -117.45 42.55 -118.0 42.75 -118.55 43.5 -119.4 44.0 -119.65 44.55 -119.8 45.15 -119.8 45.7 -119.65 46.2 -119.4 46.95 -118.55 47.15 -118.0 47.2 -117.45 47.15 -116.85 46.95 -116.35 46.6 -115.85 46.2 -115.5 45.7 -115.25 45.15 -115.1 44.55 -115.1 44.0 -115.25 43.5 -115.5 43.1 -115.85 42.75 -116.35" fill="#707070" fill-rule="evenodd" stroke="none"/>
    <path d="M57.25 -88.45 L57.8 -88.45 58.35 -88.3 58.85 -88.05 59.3 -87.65 59.6 -87.2 59.8 -86.65 59.85 -86.1 59.8 -85.55 59.6 -85.0 59.3 -84.55 58.85 -84.15 58.35 -83.9 57.8 -83.75 57.25 -83.75 56.65 -83.9 56.15 -84.15 55.4 -85.0 55.2 -85.55 55.15 -86.1 55.2 -86.65 55.4 -87.2 56.15 -88.05 56.65 -88.3 57.25 -88.45" fill="#707070" fill-rule="evenodd" stroke="none"/>
    <path d="M233.0 -25.75 L233.05 -26.3 233.25 -26.85 233.6 -27.3 234.0 -27.7 234.55 -27.95 235.1 -28.1 235.65 -28.1 236.2 -27.95 236.7 -27.7 237.15 -27.3 237.45 -26.85 237.65 -26.3 237.75 -25.75 237.65 -25.2 237.45 -24.65 237.15 -24.2 236.7 -23.8 236.2 -23.55 235.65 -23.4 235.1 -23.4 234.55 -23.55 234.0 -23.8 233.6 -24.2 233.25 -24.65 233.05 -25.2 233.0 -25.75" fill="#707070" fill-rule="evenodd" stroke="none"/>
    <path d="M288.55 -26.3 L288.6 -25.75 288.55 -25.2 288.35 -24.65 288.0 -24.2 287.6 -23.8 287.1 -23.55 286.55 -23.4 285.95 -23.4 285.4 -23.55 284.9 -23.8 284.5 -24.2 284.15 -24.65 283.95 -25.2 283.9 -25.75 283.95 -26.3 284.15 -26.85 284.5 -27.3 284.9 -27.7 285.4 -27.95 285.95 -28.1 286.55 -28.1 287.1 -27.95 287.6 -27.7 288.0 -27.3 288.35 -26.85 288.55 -26.3" fill="#707070" fill-rule="evenodd" stroke="none"/>
    <path d="M395.15 -26.85 L395.9 -27.7 396.4 -27.95 396.95 -28.1 397.55 -28.1 398.1 -27.95 398.6 -27.7 399.0 -27.3 399.35 -26.85 399.55 -26.3 399.6 -25.75 399.55 -25.2 399.35 -24.65 399.0 -24.2 398.6 -23.8 398.1 -23.55 397.55 -23.4 396.95 -23.4 396.4 -23.55 395.9 -23.8 395.15 -24.65 394.95 -25.2 394.9 -25.75 394.95 -26.3 395.15 -26.85" fill="#707070" fill-rule="evenodd" stroke="none"/>
    <path d="M233.6 24.95 L234.55 24.3 235.1 24.2 235.65 24.2 236.2 24.3 237.15 24.95 237.45 25.45 237.65 25.95 237.75 26.55 237.65 27.1 237.45 27.65 237.15 28.1 236.7 28.5 236.2 28.75 235.65 28.9 235.1 28.9 234.55 28.75 234.05 28.5 233.6 28.1 233.3 27.65 233.1 27.1 233.0 26.55 233.1 25.95 233.3 25.45 233.6 24.95" fill="#707070" fill-rule="evenodd" stroke="none"/>
    <path d="M287.1 24.3 L288.05 24.95 288.35 25.45 288.55 25.95 288.6 26.55 288.55 27.1 288.35 27.65 288.05 28.1 287.6 28.5 287.1 28.75 286.55 28.9 286.0 28.9 285.4 28.75 284.9 28.5 284.5 28.1 284.15 27.65 283.95 27.1 283.9 26.55 283.95 25.95 284.15 25.45 284.5 24.95 284.9 24.6 285.4 24.3 286.0 24.2 286.55 24.2 287.1 24.3" fill="#707070" fill-rule="evenodd" stroke="none"/>
    <path d="M395.15 25.45 L395.5 24.95 395.9 24.6 396.4 24.3 397.0 24.2 397.55 24.2 398.1 24.3 399.05 24.95 399.35 25.45 399.55 25.95 399.6 26.55 399.55 27.1 399.35 27.65 399.05 28.1 398.6 28.5 398.1 28.75 397.55 28.9 397.0 28.9 396.4 28.75 395.9 28.5 395.15 27.65 394.95 27.1 394.9 26.55 394.95 25.95 395.15 25.45" fill="#707070" fill-rule="evenodd" stroke="none"/>
    <path d="M371.8 87.3 L374.75 86.5 379.25 86.5 383.8 92.65 384.25 94.8 383.3 97.55 382.2 99.55 382.55 99.55 383.1 99.7 383.6 99.95 384.0 100.35 384.35 100.8 384.55 101.35 384.6 101.9 384.55 102.5 384.35 103.0 384.0 103.5 383.6 103.85 383.1 104.1 382.55 104.25 381.95 104.25 381.4 104.1 380.9 103.85 380.5 103.5 380.15 103.0 379.95 102.5 379.9 101.9 379.95 101.6 373.55 98.15 370.55 89.8 371.8 87.3" fill="#707070" fill-rule="evenodd" stroke="none"/>
    <path d="M382.45 -103.3 L383.0 -103.2 383.5 -102.9 383.9 -102.55 384.25 -102.1 384.45 -101.55 384.5 -101.0 384.45 -100.4 384.25 -99.9 383.9 -99.4 383.5 -99.05 383.0 -98.75 382.45 -98.65 381.85 -98.65 381.3 -98.75 380.35 -99.4 380.05 -99.9 379.85 -100.4 379.8 -101.0 379.85 -101.55 380.05 -102.1 380.35 -102.55 381.3 -103.2 381.85 -103.3 382.45 -103.3" fill="#707070" fill-rule="evenodd" stroke="none"/>
    <path d="M275.0 -81.75 L275.55 -81.65 276.05 -81.35 276.45 -81.0 276.8 -80.5 277.0 -80.0 277.05 -79.4 277.0 -78.85 276.8 -78.35 276.45 -77.85 276.05 -77.5 275.55 -77.2 275.0 -77.1 274.4 -77.1 273.85 -77.2 273.35 -77.5 272.95 -77.85 272.6 -78.35 272.4 -78.85 272.35 -79.4 272.4 -80.0 272.6 -80.5 272.95 -81.0 273.35 -81.35 273.85 -81.65 274.4 -81.75 275.0 -81.75" fill="#707070" fill-rule="evenodd" stroke="none"/>
    <path d="M389.2 60.75 L389.2 63.0 389.85 65.0 393.2 65.4 392.75 69.4 393.2 72.3 394.1 75.2 392.3 78.1 390.75 76.75 389.0 74.1 389.85 71.4 387.0 71.65 386.3 74.3 383.4 75.4 387.0 76.75 389.0 81.0 389.0 82.75 387.4 85.65 384.1 86.1 379.85 84.1 378.75 81.2 374.25 85.15 370.9 85.05 368.75 82.85 368.75 118.3 303.0 118.3 303.0 116.9 280.5 100.9 277.4 98.1 275.65 94.1 274.2 82.25 273.85 82.2 273.35 81.9 272.95 81.55 272.6 81.05 272.4 80.55 272.35 80.0 272.4 79.4 272.6 78.9 272.95 78.4 273.35 78.05 273.85 77.75 274.15 77.7 276.65 61.7 277.9 59.75 279.35 58.6 283.0 58.1 368.75 58.1 368.75 75.35 372.3 69.65 376.55 69.4 376.3 62.55 379.0 59.4 382.55 58.55 384.55 61.0 387.85 59.2 389.2 60.75" fill="#707070" fill-rule="evenodd" stroke="none"/>
    <path d="M370.15 -84.5 L368.65 -87.15 368.65 -73.35 371.15 -77.35 375.0 -78.35 370.15 -84.5 M368.65 -118.0 L368.65 -113.2 370.5 -113.35 372.0 -113.85 373.15 -112.7 375.65 -112.2 378.0 -109.2 378.3 -107.35 378.0 -104.85 376.5 -104.0 370.5 -104.2 368.65 -106.6 368.65 -97.05 369.15 -97.85 376.0 -98.2 381.8 -97.0 388.3 -91.0 391.8 -83.0 388.8 -76.2 394.65 -74.2 399.3 -71.5 400.0 -67.2 398.0 -61.2 392.0 -61.0 387.5 -63.5 385.0 -67.5 384.8 -71.5 387.3 -75.2 382.3 -75.2 378.5 -77.35 380.15 -73.0 380.65 -66.2 375.0 -59.35 370.8 -59.0 369.0 -62.35 368.65 -63.2 368.65 -58.2 303.65 -58.2 303.65 -118.0 368.65 -118.0" fill="#707070" fill-rule="evenodd" stroke="none"/>
    <path d="M-369.45 -57.9 L-369.45 -118.15 -303.65 -118.15 -303.65 -116.75 -281.15 -100.75 -278.1 -97.9 -276.3 -93.9 -274.9 -82.1 -274.55 -82.0 -274.05 -81.75 -273.6 -81.4 -273.3 -80.9 -273.1 -80.4 -273.0 -79.8 -273.1 -79.25 -273.3 -78.7 -273.6 -78.25 -274.05 -77.85 -274.55 -77.6 -274.8 -77.55 -277.3 -61.55 -278.6 -59.6 -280.05 -58.4 -283.65 -57.9 -369.45 -57.9" fill="#707070" fill-rule="evenodd" stroke="none"/>
    <path d="M-369.3 73.5 L-371.8 77.5 -375.65 78.5 -370.8 84.7 -369.3 87.3 -369.3 73.5 M-395.3 74.35 L-400.0 71.7 -400.65 67.35 -398.65 61.35 -392.65 61.2 -388.15 63.7 -385.65 67.7 -385.5 71.7 -388.0 75.35 -383.0 75.35 Q-381.05 76.45 -379.15 77.5 L-380.8 73.2 -381.3 66.35 -375.65 59.5 -371.5 59.2 -369.65 62.5 -369.3 63.35 -369.3 58.35 -304.3 58.35 -304.3 118.2 -369.3 118.2 -369.3 113.35 -371.15 113.5 -372.65 114.0 -373.8 112.85 -376.3 112.35 -378.65 109.35 -379.0 107.5 -378.65 105.0 -377.15 104.2 -371.15 104.35 -369.3 106.75 -369.3 97.25 -369.8 98.0 -376.65 98.35 -382.5 97.2 -389.0 91.2 -392.5 83.2 -389.5 76.35 -395.3 74.35" fill="#707070" fill-rule="evenodd" stroke="none"/>
    <path d="M284.9 131.25 L285.4 131.0 286.0 130.85 286.55 130.85 287.1 131.0 287.6 131.25 288.05 131.65 288.35 132.1 288.55 132.65 288.6 133.2 288.55 133.75 288.35 134.3 288.05 134.75 287.6 135.15 287.1 135.4 286.55 135.55 286.0 135.55 285.4 135.4 284.9 135.15 284.5 134.75 284.15 134.3 283.95 133.75 283.9 133.2 283.95 132.65 284.15 132.1 284.5 131.65 284.9 131.25" fill="#707070" fill-rule="evenodd" stroke="none"/>
    <path d="M284.65 -133.8 L285.1 -134.2 285.6 -134.45 286.15 -134.6 286.7 -134.6 287.25 -134.45 287.75 -134.2 288.2 -133.8 288.5 -133.35 288.7 -132.8 288.8 -132.25 288.7 -131.7 288.5 -131.15 288.2 -130.7 287.75 -130.3 287.25 -130.05 286.7 -129.9 286.15 -129.9 285.6 -130.05 285.1 -130.3 284.65 -130.7 284.35 -131.15 284.15 -131.7 284.05 -132.25 284.15 -132.8 284.35 -133.35 284.65 -133.8" fill="#707070" fill-rule="evenodd" stroke="none"/>
    <path d="M-288.25 -133.85 L-287.85 -134.25 -287.35 -134.5 -286.75 -134.65 -286.2 -134.65 -285.65 -134.5 -285.15 -134.25 -284.7 -133.85 -284.4 -133.4 -284.2 -132.85 -284.15 -132.3 -284.2 -131.75 -284.4 -131.2 -284.7 -130.75 -285.15 -130.35 -285.65 -130.1 -286.2 -129.95 -286.75 -129.95 -287.35 -130.1 -287.85 -130.35 -288.25 -130.75 -288.6 -131.2 -288.8 -131.75 -288.85 -132.3 -288.8 -132.85 -288.6 -133.4 -288.25 -133.85" fill="#707070" fill-rule="evenodd" stroke="none"/>
    <path d="M-382.1 -103.5 L-381.55 -103.35 -381.05 -103.1 -380.65 -102.7 -380.3 -102.25 -380.1 -101.7 -380.05 -101.15 -380.1 -100.55 -380.3 -100.05 -380.65 -99.55 -381.05 -99.2 -381.55 -98.95 -382.1 -98.8 -382.7 -98.8 -383.25 -98.95 -383.75 -99.2 -384.15 -99.55 -384.5 -100.05 -384.7 -100.55 -384.75 -101.15 -384.7 -101.7 -384.5 -102.25 -384.15 -102.7 -383.75 -103.1 -383.25 -103.35 -382.7 -103.5 -382.1 -103.5" fill="#707070" fill-rule="evenodd" stroke="none"/>
    <path d="M-237.65 -25.8 L-237.6 -26.35 -237.4 -26.9 -237.05 -27.35 -236.65 -27.75 -236.15 -28.0 -235.6 -28.15 -235.0 -28.15 -234.45 -28.0 -233.95 -27.75 -233.2 -26.9 -233.0 -26.35 -232.95 -25.8 -233.0 -25.25 -233.2 -24.7 -233.95 -23.85 -234.45 -23.6 -235.0 -23.45 -235.6 -23.45 -236.15 -23.6 -236.65 -23.85 -237.05 -24.25 -237.4 -24.7 -237.6 -25.25 -237.65 -25.8" fill="#707070" fill-rule="evenodd" stroke="none"/>
    <path d="M-237.3 24.85 L-236.35 24.2 -235.8 24.05 -235.25 24.05 -234.7 24.2 -234.15 24.5 -233.75 24.85 -233.4 25.3 -233.2 25.85 -233.15 26.4 -233.2 27.0 -233.4 27.5 -233.75 28.0 -234.15 28.35 -234.7 28.65 -235.25 28.75 -235.8 28.75 -236.35 28.65 -237.3 28.0 -237.6 27.5 -237.8 27.0 -237.9 26.4 -237.8 25.85 -237.6 25.3 -237.3 24.85" fill="#707070" fill-rule="evenodd" stroke="none"/>
    <path d="M-289.0 26.85 L-288.9 26.3 -288.7 25.75 -288.4 25.3 -287.95 24.9 -287.45 24.65 -286.9 24.5 -286.35 24.5 -285.8 24.65 -285.3 24.9 -284.85 25.3 -284.55 25.75 -284.35 26.3 -284.25 26.85 -284.35 27.45 -284.55 27.95 -284.85 28.45 -285.3 28.8 -285.8 29.05 -286.35 29.2 -286.9 29.2 -287.45 29.05 -287.95 28.8 -288.4 28.45 -288.7 27.95 -288.9 27.45 -289.0 26.85" fill="#707070" fill-rule="evenodd" stroke="none"/>
    <path d="M-288.3 -27.15 L-287.35 -27.8 -286.8 -27.95 -286.25 -27.95 -285.7 -27.8 -285.15 -27.5 -284.75 -27.15 -284.4 -26.7 -284.2 -26.15 -284.15 -25.6 -284.2 -25.0 -284.4 -24.5 -284.75 -24.0 -285.15 -23.65 -285.7 -23.35 -286.25 -23.25 -286.8 -23.25 -287.35 -23.35 -288.3 -24.0 -288.6 -24.5 -288.8 -25.0 -288.9 -25.6 -288.8 -26.15 -288.6 -26.7 -288.3 -27.15" fill="#707070" fill-rule="evenodd" stroke="none"/>
    <path d="M-273.15 78.35 L-272.75 78.75 -272.4 79.2 -272.2 79.75 -272.15 80.3 -272.2 80.85 -272.4 81.4 -272.75 81.9 -273.15 82.25 -273.7 82.5 -274.25 82.65 -274.8 82.65 -275.35 82.5 -275.85 82.25 -276.3 81.9 -276.6 81.4 -276.8 80.85 -276.9 80.3 -276.8 79.75 -276.6 79.2 -276.3 78.75 -275.85 78.35 -275.35 78.1 -274.8 77.95 -274.25 77.95 -273.7 78.1 -273.15 78.35" fill="#707070" fill-rule="evenodd" stroke="none"/>
    <path d="M-286.1 130.75 L-285.55 130.9 -285.05 131.15 -284.65 131.5 -284.3 132.0 -284.1 132.5 -284.05 133.1 -284.1 133.65 -284.3 134.2 -284.65 134.65 -285.05 135.05 -285.55 135.3 -286.1 135.45 -286.7 135.45 -287.25 135.3 -287.75 135.05 -288.15 134.65 -288.5 134.2 -288.7 133.65 -288.75 133.1 -288.7 132.5 -288.5 132.0 -288.15 131.5 -287.75 131.15 -287.25 130.9 -286.7 130.75 -286.1 130.75" fill="#707070" fill-rule="evenodd" stroke="none"/>
    <path d="M-398.5 -27.65 L-398.0 -27.9 -397.45 -28.05 -396.9 -28.05 -396.35 -27.9 -395.85 -27.65 -395.4 -27.25 -395.1 -26.8 -394.9 -26.25 -394.8 -25.7 -394.9 -25.15 -395.1 -24.6 -395.4 -24.1 -395.85 -23.75 -396.35 -23.5 -396.9 -23.35 -397.45 -23.35 -398.0 -23.5 -398.5 -23.75 -398.95 -24.1 -399.5 -25.15 -399.55 -25.7 -399.5 -26.25 -399.25 -26.8 -398.95 -27.25 -398.5 -27.65" fill="#707070" fill-rule="evenodd" stroke="none"/>
    <path d="M-399.55 26.65 L-399.5 26.1 -399.25 25.55 -398.95 25.1 -398.5 24.7 -398.0 24.45 -397.45 24.3 -396.9 24.3 -396.35 24.45 -395.85 24.7 -395.4 25.1 -395.1 25.55 -394.9 26.1 -394.8 26.65 -394.9 27.2 -395.1 27.75 -395.4 28.2 -395.85 28.6 -396.35 28.85 -396.9 29.0 -397.45 29.0 -398.0 28.85 -398.5 28.6 -398.95 28.2 -399.25 27.75 -399.5 27.2 -399.55 26.65" fill="#707070" fill-rule="evenodd" stroke="none"/>
    <path d="M-300.7 94.3 L-299.6 94.55 -298.6 95.4 -296.9 97.75 -296.7 99.55 -296.8 101.1 -299.6 102.4 -302.0 100.4 -302.9 98.55 -303.0 96.65 -301.9 94.75 -300.7 94.3" fill="#707070" fill-rule="evenodd" stroke="none"/>
    <path d="M-299.45 86.4 L-297.8 87.3 -297.45 85.4 -296.7 83.3 -295.35 81.75 -293.6 82.1 -292.8 82.65 -292.25 85.4 -292.25 87.85 -293.0 90.55 -292.8 94.0 -294.15 95.2 -296.35 94.4 -297.45 92.2 -298.6 93.1 -300.6 93.1 -302.0 92.4 -302.35 91.55 -302.15 89.85 -301.8 88.55 -299.45 86.4" fill="#707070" fill-rule="evenodd" stroke="none"/>
    <path d="M-382.25 99.65 L-381.7 99.75 -381.15 100.05 -380.75 100.4 -380.4 100.9 -380.2 101.4 -380.15 102.0 -380.2 102.55 -380.4 103.05 -380.75 103.55 -381.15 103.9 -381.7 104.2 -382.25 104.3 -382.8 104.3 -383.35 104.2 -384.3 103.55 -384.6 103.05 -384.8 102.55 -384.9 102.0 -384.8 101.4 -384.6 100.9 -384.3 100.4 -383.35 99.75 -382.8 99.65 -382.25 99.65" fill="#707070" fill-rule="evenodd" stroke="none"/>
    <path d="M116.3 -212.35 L116.3 -225.0 148.0 -225.0 148.0 -212.35 116.3 -212.35" fill="#707070" fill-rule="evenodd" stroke="none"/>
    <path d="M-144.7 -226.0 L-109.0 -226.0 -109.0 -211.7 -144.7 -211.7 -144.7 -226.0" fill="#707070" fill-rule="evenodd" stroke="none"/>
    <path d="M-158.7 -227.45 L-157.45 -228.15 -155.8 -228.25 -154.0 -227.6 -151.6 -226.35 -150.15 -224.35 -150.15 -218.35 -151.15 -216.0 -153.25 -213.0 -156.15 -210.7 -159.0 -210.8 -162.25 -216.45 -162.35 -220.7 -160.15 -225.9 -158.7 -227.45" fill="#707070" fill-rule="evenodd" stroke="none"/>
    <path d="M-258.45 -227.1 L-256.7 -226.0 -254.75 -223.6 -254.1 -221.1 -254.85 -218.25 -258.45 -215.95 -263.75 -216.95 -264.85 -218.0 -267.6 -221.2 -269.0 -225.35 -268.35 -226.95 -267.35 -227.6 -264.25 -228.25 -258.45 -227.1" fill="#707070" fill-rule="evenodd" stroke="none"/>
    <path d="M-133.2 225.35 L-133.2 212.85 -111.7 212.85 -111.7 225.35 -133.2 225.35" fill="#707070" fill-rule="evenodd" stroke="none"/>
    <path d="M-137.2 211.0 L-136.0 213.0 -132.2 217.3 -132.5 219.65 -134.7 221.8 -147.85 221.5 -153.0 218.1 -153.5 214.3 -152.85 212.15 -151.35 210.5 -148.5 209.15 -137.2 211.0" fill="#707070" fill-rule="evenodd" stroke="none"/>
    <path d="M-159.85 210.8 L-157.0 212.15 -155.85 214.15 -156.35 215.5 -158.0 218.0 -161.2 218.0 -165.2 215.3 -165.5 213.3 -164.85 211.8 -163.35 211.0 -159.85 210.8" fill="#707070" fill-rule="evenodd" stroke="none"/>
    <path d="M-205.9 209.0 L-202.6 213.0 -202.35 216.55 -207.7 218.1 -215.45 217.65 -217.25 215.85 -216.6 214.75 -217.7 211.4 -216.35 209.0 -211.7 207.2 -208.6 207.4 -205.9 209.0" fill="#707070" fill-rule="evenodd" stroke="none"/>
    <path d="M-219.9 211.85 L-223.45 219.85 -227.25 222.55 -233.45 224.3 -236.15 222.3 -237.45 221.65 -239.0 219.65 -239.7 216.3 -239.45 213.85 -236.6 210.75 -229.45 207.4 -225.9 207.0 -223.25 207.0 -221.45 208.1 -219.9 209.85 -219.9 211.85" fill="#707070" fill-rule="evenodd" stroke="none"/>
    <path d="M139.85 230.5 L119.4 230.5 119.4 213.75 139.85 213.75 139.85 230.5" fill="#707070" fill-rule="evenodd" stroke="none"/>
    <path d="M4.1 -228.8 L11.65 -226.6 36.75 -225.7 48.2 -228.1 60.85 -228.3 53.85 -224.35 46.1 -218.35 40.7 -212.95 36.35 -204.9 33.5 -196.2 30.0 -178.1 30.0 181.3 32.4 193.4 36.7 204.4 41.0 212.45 46.7 219.6 56.05 227.0 61.45 230.3 55.85 229.95 50.65 227.8 45.0 228.0 42.3 226.5 38.65 226.3 33.8 227.0 30.65 228.6 27.8 229.65 21.4 230.9 12.1 230.25 4.4 228.85 -21.6 225.75 -47.3 227.7 -50.65 227.6 -49.35 227.0 -39.2 218.6 -33.5 211.45 -29.2 203.4 -26.65 195.2 -24.0 181.3 -24.0 -178.1 -26.15 -193.7 -29.5 -203.9 -33.85 -211.95 -39.55 -219.1 -54.3 -229.8 -40.25 -227.25 -16.8 -230.15 4.1 -228.8" fill="#ffffff" fill-opacity="0.14901961" fill-rule="evenodd" stroke="none"/>
    <path d="M426.95 -27.95 L435.7 -30.65 443.75 -34.75 449.2 -39.35 451.8 -43.25 453.65 -26.8 452.55 -15.7 452.4 1.0 453.65 6.75 454.1 13.85 454.0 24.75 453.1 33.75 451.2 45.2 444.1 37.75 434.7 32.05 425.95 29.35 412.2 27.05 235.0 27.05 235.0 -26.0 415.3 -26.0 426.95 -27.95" fill="#ffffff" fill-opacity="0.14901961" fill-rule="evenodd" stroke="none"/>
    <path d="M-453.7 -27.35 L-453.85 -34.5 -451.95 -40.25 -452.05 -44.05 -443.4 -35.25 -435.3 -31.15 -426.6 -28.45 -414.9 -26.5 -234.6 -26.5 -234.6 26.55 -411.8 26.55 -425.6 28.85 -434.3 31.55 -444.15 37.6 -450.8 44.7 -453.7 32.9 -453.85 18.15 -451.5 0.9 -453.7 -3.85 -455.5 -5.35 -456.15 -7.25 -455.85 -14.5 -453.7 -27.35" fill="#ffffff" fill-opacity="0.14901961" fill-rule="evenodd" stroke="none"/>
    <path d="M112.5 -300.15 L112.5 -292.6 105.0 -292.6 105.0 -300.15 112.5 -300.15" fill="#707070" fill-rule="evenodd" stroke="none"/>
    <path d="M-85.6 -300.15 L-85.6 -292.6 -93.1 -292.6 -93.1 -300.15 -85.6 -300.15" fill="#707070" fill-rule="evenodd" stroke="none"/>
    <path d="M-101.85 299.25 L-101.85 292.3 -94.35 292.3 -94.35 299.25 -101.85 299.25" fill="#707070" fill-rule="evenodd" stroke="none"/>
    <path d="M96.45 299.25 L96.45 292.3 103.95 292.3 103.95 299.25 96.45 299.25" fill="#707070" fill-rule="evenodd" stroke="none"/>
    <path d="M-247.5 -237.75 L-247.45 -239.4 -209.7 -239.2 -194.6 -239.85 -133.95 -239.2 -121.25 -239.85 -100.95 -239.65 -93.25 -239.15 -93.25 -241.9 -85.9 -241.9 -85.9 -238.7 -74.25 -237.45 -72.4 -237.1 -60.85 -233.1 -57.25 -230.9 -56.3 -229.8 -55.7 -228.2 -55.5 -226.35 -55.7 -225.1 -56.45 -224.25 -57.85 -223.25 -60.8 -222.5 -107.0 -222.1 -138.3 -222.4 -145.85 -225.3 -145.85 -234.6 -127.35 -236.2 -119.6 -238.15 -121.25 -238.2 -133.9 -237.5 -194.55 -238.2 -209.7 -237.5 -247.5 -237.75" fill="#707070" fill-rule="evenodd" stroke="none"/>
    <path d="M69.15 -223.75 L64.25 -224.5 62.9 -226.8 64.95 -230.6 66.65 -232.6 71.9 -234.3 92.9 -238.75 102.7 -239.85 105.65 -239.8 105.65 -241.35 112.3 -241.35 112.3 -239.6 126.75 -239.2 157.4 -239.65 172.3 -239.4 204.75 -239.65 204.75 -237.95 153.2 -237.9 153.2 -223.25 93.4 -223.25 93.4 -223.5 69.15 -223.75" fill="#707070" fill-rule="evenodd" stroke="none"/>
    <path d="M255.85 237.25 L255.85 238.9 143.2 239.4 118.75 240.5 118.7 240.45 90.2 239.15 90.1 239.1 74.5 235.55 65.85 231.8 64.35 227.75 64.65 225.4 66.5 224.15 75.4 223.7 154.65 223.65 155.15 237.75 255.85 237.25" fill="#707070" fill-rule="evenodd" stroke="none"/>
    <path d="M-56.7 224.8 L-55.25 224.8 -50.65 227.6 -54.15 231.05 -66.6 236.0 -80.25 239.35 -105.0 240.25 -248.85 240.35 -248.85 238.75 -148.9 238.75 -148.75 221.25 -134.6 217.4 -128.55 221.9 -79.4 224.0 -57.7 224.3 -56.7 224.8" fill="#707070" fill-rule="evenodd" stroke="none"/>
    <path d="M-131.45 195.2 L-131.45 193.4 -26.25 193.4 -26.65 195.2 -131.45 195.2" fill="#707070" fill-rule="evenodd" stroke="none"/>
    <path d="M139.2 193.4 L139.2 195.2 33.2 195.35 32.4 193.4 139.2 193.4" fill="#707070" fill-rule="evenodd" stroke="none"/>
    <path d="M-26.15 -193.7 L-25.85 -191.9 -131.35 -191.9 -131.35 -193.7 -26.15 -193.7" fill="#707070" fill-rule="evenodd" stroke="none"/>
    <path d="M137.65 -193.7 L137.65 -191.9 32.75 -191.75 33.0 -193.7 137.65 -193.7" fill="#707070" fill-rule="evenodd" stroke="none"/>
  </g>
</svg>
