<?xml version="1.0" encoding="UTF-8" standalone="no"?>
<svg xmlns:ffdec="https://www.free-decompiler.com/flash" xmlns:xlink="http://www.w3.org/1999/xlink" ffdec:objectType="shape" height="1060.0px" width="1666.65px" xmlns="http://www.w3.org/2000/svg">
  <g transform="matrix(1.0, 0.0, 0.0, 1.0, 834.15, 531.0)">
    <path d="M603.2 -443.05 L650.55 -406.5 693.5 -364.45 731.5 -317.5 764.1 -266.2 790.75 -211.25 811.15 -153.45 825.05 -93.6 832.2 -32.4 832.5 29.2 826.05 90.5 812.8 150.55 793.05 208.55 766.95 263.8 734.95 315.5 697.45 362.9 654.95 405.5 608.05 442.55 557.3 473.7 503.5 498.4 447.3 516.45 399.95 525.5 370.65 528.5 330.9 529.0 -333.5 529.0 -370.65 528.55 -402.15 525.4 -448.95 516.45 -505.15 498.4 -558.95 473.7 -609.65 442.55 -656.6 405.5 -699.1 362.9 -736.6 315.5 -768.6 263.8 -794.65 208.55 -814.45 150.55 -827.65 90.5 -834.15 29.2 -833.8 -32.4 -826.65 -93.6 -812.8 -153.45 -792.35 -211.25 -765.7 -266.2 -733.15 -317.5 -695.1 -364.45 -652.15 -406.5 -604.85 -443.05 -553.8 -473.55 -499.7 -497.6 -443.3 -514.95 -390.4 -524.4 -333.8 -531.0 332.15 -531.0 388.8 -524.4 441.7 -514.95 498.05 -497.6 552.15 -473.55 603.2 -443.05" fill="#707070" fill-rule="evenodd" stroke="none"/>
    <path d="M524.55 -428.95 L573.05 -401.35 618.0 -368.25 658.8 -330.2 694.95 -287.6 725.9 -241.15 751.2 -191.45 770.6 -139.1 783.8 -84.85 790.6 -29.45 790.9 26.35 784.75 81.85 772.2 136.25 753.4 188.8 728.65 238.8 698.2 285.65 662.6 328.6 622.2 367.15 577.6 400.7 529.45 428.9 478.3 451.3 424.95 467.6 371.0 477.45 361.65 478.45 314.3 479.0 -316.9 479.0 -360.95 478.5 -374.0 477.2 -426.55 467.6 -479.95 451.3 -531.05 428.9 -579.25 400.7 -623.85 367.15 -664.2 328.6 -699.85 285.65 -730.25 238.8 -755.0 188.8 -773.8 136.25 -786.35 81.85 -792.55 26.35 -792.2 -29.45 -785.4 -84.85 -772.25 -139.1 -752.85 -191.45 -727.5 -241.15 -696.55 -287.6 -660.45 -330.2 -619.65 -368.25 -574.65 -401.35 -526.15 -428.95 -474.8 -450.75 -421.25 -466.5 -375.05 -474.35 -366.25 -476.75 -317.15 -494.65 -217.35 -514.7 216.0 -514.7 315.55 -494.65 363.55 -477.15 373.85 -474.25 419.6 -466.5 473.15 -450.75 524.55 -428.95" fill="#434343" fill-rule="evenodd" stroke="none"/>
    <path d="M392.8 -313.4 L394.35 -319.45 410.25 -314.8 446.15 -299.55 474.6 -283.35 471.2 -278.5 494.05 -262.55 497.45 -267.45 511.5 -257.1 516.9 -252.05 510.15 -245.55 511.8 -243.85 519.7 -251.35 519.7 -251.4 539.5 -271.2 571.25 -239.45 543.9 -212.3 545.55 -210.65 551.8 -216.6 560.6 -206.25 556.1 -202.95 572.75 -180.6 576.7 -183.55 586.85 -168.3 604.6 -133.55 615.3 -104.65 610.65 -103.6 616.8 -76.45 622.8 -77.8 627.35 -59.05 632.1 -20.35 632.3 15.7 628.0 54.45 625.0 67.45 618.95 66.05 612.75 93.2 618.5 94.5 606.1 129.2 588.8 164.2 582.0 174.6 578.35 171.9 561.75 194.2 566.7 197.9 551.35 216.4 545.8 211.1 544.15 212.75 553.6 221.95 553.6 221.85 571.25 239.5 539.5 271.25 518.35 250.1 518.25 250.2 512.05 244.3 510.4 246.0 516.5 251.9 514.4 253.85 505.8 260.35 503.0 256.35 480.15 272.25 483.5 277.1 483.25 277.35 449.6 297.05 413.85 312.7 403.65 315.8 402.25 310.35 375.25 317.3 376.95 323.95 375.85 324.3 336.5 329.95 299.25 330.35 206.3 330.35 165.7 346.65 163.0 346.65 163.0 348.15 165.1 348.15 165.1 381.3 135.1 381.3 135.1 348.15 137.2 348.15 137.2 346.65 129.65 346.65 129.65 348.15 131.75 348.15 131.75 381.3 101.75 381.3 101.75 348.15 103.85 348.15 103.85 346.65 96.3 346.65 96.3 348.15 98.4 348.15 98.4 381.3 68.4 381.3 68.4 348.15 70.55 348.15 70.55 346.65 63.0 346.65 63.0 348.15 65.1 348.15 65.1 381.3 35.1 381.3 35.1 348.15 37.2 348.15 37.2 346.65 29.65 346.65 29.65 348.15 31.75 348.15 31.75 381.3 1.75 381.3 1.75 348.15 3.85 348.15 3.85 346.65 -3.7 346.65 -3.7 348.15 -1.6 348.15 -1.6 381.3 -31.6 381.3 -31.6 348.15 -29.45 348.15 -29.45 346.65 -37.0 346.65 -37.0 348.15 -34.9 348.15 -34.9 381.3 -64.9 381.3 -64.9 348.15 -62.8 348.15 -62.8 346.65 -70.35 346.65 -70.35 348.15 -68.25 348.15 -68.25 381.3 -98.25 381.3 -98.25 348.15 -96.15 348.15 -96.15 346.65 -103.7 346.65 -103.7 348.15 -101.6 348.15 -101.6 381.3 -131.6 381.3 -131.6 348.15 -129.45 348.15 -129.45 346.65 -137.0 346.65 -137.0 348.15 -134.9 348.15 -134.9 381.3 -164.9 381.3 -164.9 348.15 -162.8 348.15 -162.8 346.65 -166.7 346.65 -205.0 330.35 -301.05 330.35 -338.15 329.95 -367.0 325.8 -365.4 319.65 -392.4 312.7 -394.1 319.2 -415.45 312.7 -451.2 297.05 -474.7 283.25 -470.55 277.25 -493.35 261.35 -497.75 267.6 -516.05 253.85 -517.05 252.9 -509.85 245.85 -511.5 244.2 -518.85 251.2 -519.15 250.85 -539.55 271.25 -571.3 239.5 -553.1 221.25 -553.05 221.85 -543.6 212.65 -545.25 211.0 -552.1 217.5 -561.75 205.8 -555.9 201.45 -572.55 179.1 -578.05 183.2 -590.4 164.2 -607.7 129.2 -616.8 103.75 -610.05 102.2 -616.2 75.05 -624.45 76.95 -629.65 54.45 -633.95 15.7 -633.7 -20.35 -628.95 -59.05 -626.9 -67.55 -619.65 -65.9 -613.5 -93.05 -620.35 -94.6 -619.75 -96.95 -606.2 -133.55 -588.5 -168.3 -583.85 -175.25 -578.1 -170.95 -561.45 -193.25 -568.4 -198.45 -566.9 -200.75 -552.75 -217.4 -545.5 -210.55 -543.85 -212.2 -571.3 -239.45 -539.55 -271.2 -519.65 -251.3 -519.65 -251.25 -511.75 -243.75 -510.1 -245.4 -517.7 -252.8 -513.1 -257.1 -506.5 -261.95 -502.35 -256.05 -479.55 -272.0 -484.05 -278.5 -481.65 -280.25 -447.8 -299.55 -411.85 -314.8 -404.7 -316.9 -402.95 -310.2 -376.0 -317.1 -377.95 -324.75 -374.45 -325.75 -335.3 -332.45 -293.95 -333.0 -205.0 -333.0 -166.7 -346.7 -162.8 -346.7 -162.8 -348.35 -164.9 -348.35 -164.9 -381.5 -134.9 -381.5 -134.9 -348.35 -137.0 -348.35 -137.0 -346.7 -129.45 -346.7 -129.45 -348.35 -131.6 -348.35 -131.6 -381.5 -101.6 -381.5 -101.6 -348.35 -103.7 -348.35 -103.7 -346.7 -96.15 -346.7 -96.15 -348.35 -98.25 -348.35 -98.25 -381.5 -68.25 -381.5 -68.25 -348.35 -70.35 -348.35 -70.35 -346.7 -62.8 -346.7 -62.8 -348.35 -64.9 -348.35 -64.9 -381.5 -34.9 -381.5 -34.9 -348.35 -37.0 -348.35 -37.0 -346.7 -29.45 -346.7 -29.45 -348.35 -31.6 -348.35 -31.6 -381.5 -1.6 -381.5 -1.6 -348.35 -3.7 -348.35 -3.7 -346.7 3.85 -346.7 3.85 -348.35 1.75 -348.35 1.75 -381.5 31.75 -381.5 31.75 -348.35 29.65 -348.35 29.65 -346.7 37.2 -346.7 37.2 -348.35 35.1 -348.35 35.1 -381.5 65.1 -381.5 65.1 -348.35 63.0 -348.35 63.0 -346.7 70.55 -346.7 70.55 -348.35 68.4 -348.35 68.4 -381.5 98.4 -381.5 98.4 -348.35 96.3 -348.35 96.3 -346.7 103.85 -346.7 103.85 -348.35 101.75 -348.35 101.75 -381.5 131.75 -381.5 131.75 -348.35 129.65 -348.35 129.65 -346.7 137.2 -346.7 137.2 -348.35 135.1 -348.35 135.1 -381.5 165.1 -381.5 165.1 -348.35 163.0 -348.35 163.0 -346.7 165.7 -346.7 206.3 -333.0 292.85 -333.0 333.65 -332.45 367.45 -326.7 365.8 -320.35 392.8 -313.4" fill="#707070" fill-rule="evenodd" stroke="none"/>
    <path d="M297.7 -300.9 L339.7 -298.8 379.05 -290.8 410.65 -280.35 445.3 -263.35 471.85 -245.45 499.85 -223.25 518.8 -206.05 541.3 -177.0 559.0 -149.7 576.35 -119.7 588.4 -87.1 595.2 -54.15 599.65 -18.8 600.1 16.1 596.3 50.55 588.75 83.4 577.0 116.75 562.25 148.1 543.35 177.25 521.15 204.0 496.05 227.95 468.3 248.85 438.3 266.4 406.5 280.35 373.25 290.5 339.05 296.75 304.4 298.8 -302.9 298.8 -337.6 296.75 -371.75 290.5 -405.0 280.35 -436.8 266.4 -466.8 248.85 -494.55 227.95 -519.7 204.0 -541.85 177.25 -560.8 148.1 -576.2 116.95 -587.9 84.25 -595.7 50.4 -599.55 15.9 -599.35 -18.85 -595.1 -53.35 -586.9 -87.1 -574.85 -119.7 -559.05 -150.65 -539.8 -179.55 -520.0 -205.7 -494.6 -229.4 -466.3 -251.15 -437.65 -267.8 -407.3 -281.45 -372.95 -292.15 -336.65 -299.45 -296.2 -300.9 297.7 -300.9" fill="#969696" fill-rule="evenodd" stroke="none"/>
    <path d="M304.6 -304.5 L331.65 -301.7 368.0 -294.85 401.9 -284.9 434.4 -271.1 465.1 -253.65 493.55 -232.7 519.4 -208.6 542.25 -181.7 561.85 -152.3 577.85 -120.8 590.15 -87.7 598.45 -53.35 602.75 -18.3 603.0 17.05 599.1 52.15 591.15 86.55 579.25 119.8 563.55 151.45 544.3 181.1 521.75 208.3 496.2 232.65 468.0 253.95 437.5 271.75 405.15 285.95 371.4 296.25 348.2 300.5 304.35 302.8 -330.0 302.7 -370.6 296.3 -404.45 285.95 -436.8 271.75 -467.3 253.95 -495.5 232.65 -521.05 208.3 -543.6 181.1 -562.85 151.45 -578.55 119.8 -590.4 86.55 -598.35 52.15 -602.25 17.05 -602.05 -18.3 -597.75 -53.35 -589.4 -87.7 -577.15 -120.8 -561.1 -152.3 -541.55 -181.7 -518.7 -208.6 -492.85 -232.7 -464.4 -253.65 -433.7 -271.1 -401.2 -284.9 -367.25 -294.85 -330.3 -300.75 -305.85 -304.2 -289.9 -305.0 284.2 -305.0 304.6 -304.5 M331.0 -296.6 L304.2 -299.5 284.15 -300.0 -289.7 -300.0 -305.2 -299.2 -330.85 -296.0 -366.15 -290.0 -399.5 -280.2 -431.5 -266.65 -461.65 -249.45 -489.65 -228.85 -515.05 -205.15 -537.55 -178.65 -556.8 -149.75 -572.55 -118.8 -584.65 -86.2 -592.85 -52.45 -597.05 -17.95 -597.25 16.75 -593.45 51.3 -585.6 85.15 -573.9 117.85 -558.5 149.0 -539.6 178.15 -517.4 204.85 -492.25 228.85 -464.5 249.75 -434.55 267.3 Q-418.6 274.3 -402.7 281.25 L-369.5 291.4 -329.6 297.7 304.2 297.8 347.6 295.5 370.2 291.4 403.4 281.25 Q419.35 274.3 435.25 267.3 L465.25 249.75 493.0 228.85 518.1 204.85 540.3 178.15 559.2 149.0 574.65 117.85 586.3 85.15 594.15 51.3 598.0 16.75 597.8 -17.95 593.55 -52.45 585.35 -86.2 573.25 -118.8 557.5 -149.75 538.25 -178.65 515.75 -205.15 490.35 -228.85 462.4 -249.45 432.2 -266.65 400.2 -280.2 366.9 -290.0 331.0 -296.6" fill="#828282" fill-rule="evenodd" stroke="none"/>
    <path d="M339.9 -84.05 L352.45 -70.5 362.75 -55.8 370.65 -40.15 376.05 -23.75 378.85 -7.0 378.95 9.9 376.4 26.7 371.25 43.05 363.5 58.75 353.4 73.55 341.0 82.75 319.0 96.3 305.0 107.2 291.0 117.0 273.7 125.6 253.85 128.55 233.2 133.2 212.4 133.75 93.65 127.0 -165.35 129.0 -191.7 128.65 -239.65 132.3 -260.2 129.55 -281.8 125.85 -302.6 117.2 -333.15 102.4 -356.2 84.35 -363.0 76.0 -373.5 59.0 -379.0 46.0 -382.85 25.85 -385.4 9.05 -385.3 -7.85 -382.5 -24.65 -377.15 -41.0 -373.55 -60.35 -363.2 -75.05 -337.7 -99.0 -318.2 -110.2 -301.35 -117.85 -281.35 -125.5 -262.2 -132.0 -252.7 -133.5 -218.85 -131.0 121.3 -129.35 155.0 -132.7 215.3 -135.0 233.65 -131.35 272.0 -122.2 291.1 -115.4 308.95 -106.65 318.75 -95.7 339.9 -84.05" fill="#7f7f7f" fill-rule="evenodd" stroke="none"/>
    <path d="M459.2 -84.2 L458.0 -84.6 455.5 -87.0 423.0 -127.7 419.65 -131.0 415.0 -140.7 404.0 -151.35 389.05 -155.8 382.15 -156.5 368.5 -167.2 Q365.35 -169.25 362.15 -171.35 L349.3 -181.2 348.5 -182.35 338.05 -184.2 327.65 -187.35 319.1 -191.0 310.0 -192.45 278.5 -193.85 271.15 -196.85 257.0 -200.0 251.3 -199.35 242.65 -196.35 229.65 -198.35 228.3 -200.6 231.0 -203.9 234.3 -205.0 241.8 -204.7 252.55 -205.0 254.95 -206.1 256.3 -207.6 263.8 -209.35 274.5 -208.5 283.0 -206.6 284.55 -205.7 286.3 -200.85 290.8 -199.5 303.95 -199.7 311.75 -199.25 318.4 -197.8 328.65 -191.7 351.3 -184.2 367.8 -175.85 379.3 -169.0 383.15 -168.35 391.8 -163.5 394.8 -166.0 396.0 -165.2 398.15 -161.0 400.8 -157.2 408.65 -153.25 413.0 -153.7 424.0 -148.35 428.55 -139.75 442.45 -109.8 459.2 -84.2" fill="#434343" fill-rule="evenodd" stroke="none"/>
    <path d="M324.55 -12.8 L324.55 -17.9 326.1 -23.9 327.85 -28.35 329.15 -34.7 330.65 -35.95 334.3 -36.15 342.3 -34.35 346.75 -31.7 350.1 -27.0 352.3 -21.25 357.2 0.1 357.4 9.2 356.55 16.1 353.65 19.0 354.1 21.4 350.3 25.0 350.0 28.0 348.5 33.5 346.35 34.55 344.55 37.25 340.4 37.9 330.3 28.3 325.65 17.2 326.1 13.2 325.4 5.65 325.4 0.75 323.4 -4.15 323.2 -7.7 324.55 -12.8" fill="#434343" fill-rule="evenodd" stroke="none"/>
    <path d="M-187.0 -209.7 L-182.35 -209.35 -173.35 -204.0 -172.7 -201.7 -180.35 -198.35 -208.0 -196.7 -215.35 -192.7 -232.7 -191.35 -238.0 -193.7 -242.35 -193.35 -251.7 -194.35 -254.35 -192.35 -269.0 -193.35 -277.0 -195.7 -284.0 -193.7 -287.35 -189.35 -293.0 -191.0 -297.7 -188.0 -310.7 -187.35 -320.5 -184.2 -323.0 -183.35 -323.85 -183.3 -331.0 -181.0 -338.0 -182.5 -341.6 -180.9 -344.5 -179.0 -348.55 -177.9 -349.0 -177.7 -349.15 -177.75 -352.0 -177.0 -356.5 -178.0 -362.0 -174.0 -368.5 -165.0 -371.5 -165.0 -373.5 -160.5 -380.5 -158.0 -393.5 -152.0 -401.0 -146.0 -409.45 -141.5 -422.55 -135.25 -419.0 -140.6 -413.45 -144.15 -409.25 -150.35 -402.15 -155.0 -395.25 -160.15 -388.15 -163.9 -381.85 -165.5 -373.85 -168.7 -367.5 -177.2 -367.7 -177.9 -351.0 -185.9 -334.35 -194.8 -314.6 -199.45 -285.25 -205.25 -276.15 -209.25 -249.0 -206.15 -242.15 -204.15 -241.7 -202.8 -222.8 -208.15 -196.35 -206.8 -187.0 -209.7" fill="#434343" fill-rule="evenodd" stroke="none"/>
    <path d="M-425.7 134.2 L-420.7 135.0 -415.7 137.65 -404.7 148.0 -393.0 158.0 -356.35 181.65 -326.0 187.0 -303.7 194.0 -278.35 193.3 -255.7 198.0 -209.35 197.3 -178.35 196.0 Q-172.65 198.85 -167.0 201.65 L-183.7 209.3 -191.35 207.3 -211.0 206.0 -223.35 205.65 -241.0 202.65 -248.35 204.3 -262.35 206.0 -280.0 203.0 -293.9 202.3 -305.65 200.65 -342.6 189.4 -353.9 187.0 -380.15 178.55 -391.45 169.2 -401.7 163.2 -407.0 162.3 -421.25 151.0 -422.35 145.85 -422.6 141.85 -425.0 138.55 -425.7 134.2" fill="#434343" fill-rule="evenodd" stroke="none"/>
    <path d="M181.2 -169.0 L185.9 -170.75 187.4 -171.0 211.1 -169.9 211.4 -169.6 211.0 -169.35 204.55 -167.0 203.4 -166.85 200.65 -167.0 199.7 -166.9 198.3 -165.9 187.2 -166.8 183.65 -166.6 176.75 -162.6 173.85 -162.6 172.7 -161.85 171.3 -161.55 167.0 -161.9 163.2 -162.8 161.2 -162.6 154.75 -162.8 152.55 -161.7 143.95 -162.1 143.4 -162.45 142.7 -163.4 141.6 -163.65 139.4 -162.8 135.85 -162.15 134.85 -162.15 134.2 -161.85 133.4 -160.15 125.2 -158.6 116.75 -159.0 113.4 -159.7 109.2 -162.35 103.85 -163.9 98.75 -163.9 81.85 -159.9 77.7 -160.65 76.4 -160.4 71.65 -157.45 67.05 -157.85 66.3 -157.55 65.6 -156.65 64.9 -156.35 55.4 -156.15 49.2 -156.8 46.1 -156.8 44.65 -157.2 43.75 -158.2 42.9 -158.4 37.55 -158.55 36.2 -158.35 31.4 -157.0 20.55 -156.6 7.85 -156.8 -7.25 -158.6 -17.25 -155.0 -20.6 -152.8 -25.7 -152.35 -30.35 -153.25 -34.35 -153.25 -45.45 -154.6 -49.7 -153.25 -59.0 -153.7 -63.7 -154.35 -75.0 -154.35 -77.9 -154.8 -82.6 -155.0 -85.25 -155.9 -89.45 -158.15 -100.8 -159.7 -103.9 -158.15 -106.35 -158.8 -107.9 -156.8 -110.8 -155.25 -113.45 -155.7 -115.7 -155.45 -153.15 -157.2 -154.9 -157.9 -159.7 -161.0 -161.55 -161.35 -164.95 -159.7 -168.15 -159.25 -172.8 -159.25 -196.15 -166.35 -199.9 -166.35 -202.8 -167.7 -229.0 -167.45 -248.35 -165.7 -243.45 -167.25 -235.25 -170.6 -229.0 -171.0 -225.45 -173.45 -216.8 -168.8 -215.25 -171.45 -202.6 -169.45 -197.9 -169.45 -194.6 -167.45 -191.0 -168.6 -185.9 -167.0 -179.0 -168.6 -176.35 -165.7 -171.45 -164.8 -168.8 -163.85 -167.8 -163.9 -166.9 -164.4 -166.0 -165.7 -157.8 -167.35 -156.2 -167.15 -148.8 -164.15 -146.6 -163.9 -145.2 -164.2 -143.75 -165.2 -141.7 -165.25 -139.9 -164.7 -138.1 -163.7 -136.5 -163.7 -134.65 -164.45 -129.95 -167.4 -128.8 -167.65 -115.45 -167.05 -114.55 -166.75 -113.0 -165.05 -111.7 -164.55 -102.7 -164.15 -101.7 -164.6 -100.9 -166.45 -99.6 -166.7 -92.2 -164.5 -90.75 -164.6 -84.35 -166.4 -83.3 -166.2 -80.45 -163.35 -79.7 -163.15 -79.0 -163.55 -75.0 -165.45 -63.45 -167.9 -49.25 -168.35 -35.9 -167.0 -32.9 -167.55 -31.0 -167.15 -28.15 -166.05 -26.8 -165.7 -25.35 -165.65 -9.0 -167.7 59.4 -164.15 65.0 -166.15 66.35 -166.0 69.4 -164.4 70.55 -164.45 73.3 -165.65 74.4 -165.9 78.5 -165.9 79.45 -166.05 82.3 -167.0 95.75 -168.25 97.0 -167.9 97.85 -167.0 115.3 -168.5 116.65 -168.15 119.65 -166.6 124.75 -165.9 131.4 -167.45 136.3 -167.6 142.75 -166.6 148.15 -167.35 149.25 -167.25 151.15 -166.75 151.85 -167.25 153.0 -168.4 153.75 -168.8 156.1 -168.8 161.4 -169.45 165.85 -169.25 171.65 -167.9 181.2 -169.0" fill="#434343" fill-rule="evenodd" stroke="none"/>
    <path d="M104.1 36.3 L101.8 34.8 98.3 33.4 86.15 29.85 107.65 31.95 109.15 34.3 117.65 32.5 122.5 32.35 144.3 33.25 162.1 31.95 176.65 32.7 182.85 30.7 180.0 38.5 177.85 41.4 173.3 45.5 169.85 47.85 163.8 49.25 159.75 49.0 156.4 47.5 153.1 43.4 151.8 41.2 150.75 40.4 144.05 38.9 142.65 38.85 137.75 39.6 136.95 39.55 133.3 38.7 132.65 38.65 132.05 38.7 128.3 39.95 127.4 40.1 108.25 40.75 107.6 40.45 104.1 36.3" fill="#434343" fill-rule="evenodd" stroke="none"/>
    <path d="M164.55 -45.9 L169.65 -45.0 175.4 -41.7 178.75 -35.45 181.2 -29.75 175.7 -30.4 163.8 -29.45 158.4 -34.85 150.5 -35.6 146.5 -35.1 130.3 -34.35 120.15 -29.55 113.3 -27.5 102.8 -26.0 86.15 -22.35 86.85 -23.45 93.65 -27.0 107.5 -38.05 109.0 -38.45 111.65 -38.0 122.2 -43.15 124.65 -43.45 132.65 -42.15 133.8 -42.7 133.7 -43.9 134.2 -44.8 145.65 -46.7 162.1 -48.0 163.0 -47.6 164.55 -45.9" fill="#434343" fill-rule="evenodd" stroke="none"/>
    <path d="M-185.45 -31.1 L-182.35 -39.9 -180.8 -41.9 -175.9 -44.6 -162.35 -43.9 -110.35 -39.45 -101.9 -34.8 -99.25 -32.35 -93.45 -30.35 -93.45 -28.15 -97.45 -28.8 -102.8 -31.45 -107.0 -34.15 -112.0 -35.2 -116.2 -35.0 -124.6 -32.9 -145.15 -33.4 -158.85 -32.2 -168.8 -32.4 -174.6 -33.2 -179.7 -32.85 -185.45 -31.1" fill="#434343" fill-rule="evenodd" stroke="none"/>
    <path d="M-88.8 23.2 L-97.0 29.65 -101.9 30.55 -114.15 38.3 -125.0 37.4 -131.9 38.1 -140.6 40.75 -151.9 42.55 -155.0 48.0 -152.85 51.4 -171.25 45.0 -179.0 36.65 -183.35 29.65 -178.15 30.1 -173.0 31.0 -165.9 31.4 -159.25 34.75 -154.8 35.85 -148.8 35.4 -140.15 34.1 -130.45 31.7 -127.6 29.75 -123.1 28.8 -118.2 30.3 -111.85 30.15 -104.45 28.55 -97.45 25.5 -89.45 23.0 -88.8 23.2" fill="#434343" fill-rule="evenodd" stroke="none"/>
    <path d="M225.4 -25.0 L231.85 -31.25 235.65 -31.9 238.1 -31.0 240.3 -27.9 240.75 -25.9 241.0 -17.7 242.3 -10.6 242.1 -5.9 241.0 -1.25 241.4 2.1 241.2 10.1 239.85 14.3 240.3 26.3 239.85 31.65 239.0 33.2 237.2 34.1 234.3 34.75 233.0 34.3 226.3 28.75 222.1 21.65 221.4 17.85 221.65 13.85 222.1 12.1 221.2 9.2 221.85 3.4 221.2 -2.6 219.85 -6.6 220.55 -9.7 221.85 -12.8 221.2 -15.45 220.3 -17.7 220.3 -19.7 221.4 -22.15 223.65 -25.0 225.4 -25.0" fill="#434343" fill-rule="evenodd" stroke="none"/>
    <path d="M-242.0 -12.35 L-242.0 -17.7 -242.7 -21.7 -242.0 -27.35 -240.7 -30.0 -240.7 -32.7 -236.0 -35.0 -229.35 -33.35 -226.7 -30.35 -223.7 -25.0 -223.0 -20.35 -220.7 -14.35 -221.35 -10.0 -221.35 0.65 -220.35 6.65 -220.0 12.3 -220.35 15.65 -223.35 31.3 -229.35 32.65 -237.0 35.0 -240.0 32.3 -242.0 24.3 -243.0 14.3 -242.35 0.3 -243.0 -4.7 -242.0 -12.35" fill="#434343" fill-rule="evenodd" stroke="none"/>
    <path d="M-356.35 -12.15 L-355.25 -18.15 -352.8 -21.25 -348.6 -29.9 -343.0 -36.6 -338.6 -38.35 -335.0 -37.45 -332.8 -31.7 -327.45 -25.0 -324.8 -19.7 -325.9 -13.45 -325.9 -8.6 -325.45 -4.8 -323.25 -3.0 -322.35 10.3 -324.6 15.85 -324.6 22.55 -325.9 28.75 -328.15 32.75 -329.45 33.4 -336.15 32.55 -342.15 32.55 -345.7 31.85 -348.8 28.75 -351.25 24.75 -353.45 17.85 -354.35 8.3 -356.35 -0.15 -355.9 -5.25 -356.35 -12.15" fill="#434343" fill-rule="evenodd" stroke="none"/>
    <path d="M-366.35 -80.6 L-360.35 -83.2 -353.9 -89.0 -349.25 -91.7 -340.7 -97.8 -336.15 -103.15 -314.0 -113.85 -311.0 -115.7 -300.0 -119.7 -294.0 -123.2 -291.2 -125.7 -282.35 -127.0 -279.35 -128.85 -278.0 -130.0 -276.2 -129.35 -274.5 -129.2 -271.5 -131.0 -270.2 -131.35 -267.85 -132.85 -266.35 -133.5 -259.5 -132.7 -246.0 -136.0 -238.2 -134.85 -236.0 -133.2 -232.0 -134.5 -226.85 -134.7 -222.5 -132.85 -219.2 -133.0 -216.35 -133.35 -215.7 -131.5 -214.2 -131.85 -212.2 -133.2 -209.0 -132.7 -208.0 -131.7 -205.5 -131.5 -204.0 -131.2 -200.7 -131.2 -197.35 -132.2 -195.5 -131.0 -193.85 -131.35 -189.2 -131.2 -186.85 -131.5 -180.35 -128.85 -184.35 -128.35 -185.7 -128.35 -187.35 -129.0 -189.0 -129.2 -190.0 -127.85 -191.2 -128.2 -192.7 -129.0 -195.35 -129.35 -196.85 -127.5 -202.35 -126.0 -205.7 -125.5 -208.35 -126.2 -211.0 -126.2 -213.5 -125.5 -216.7 -125.7 -225.7 -124.35 -227.85 -124.85 -229.2 -125.5 -230.85 -126.85 -233.5 -127.85 -234.35 -129.5 -236.2 -130.5 -242.5 -131.5 -248.2 -131.35 -256.2 -132.5 -264.7 -130.85 -278.7 -124.85 -285.0 -121.5 -289.85 -120.5 -298.7 -117.85 -306.5 -114.7 -309.0 -113.0 Q-311.1 -111.9 -313.2 -110.85 L-339.9 -93.9 -346.6 -87.15 -348.6 -83.9 -351.7 -81.9 -358.9 -75.75 -361.9 -70.45 -364.25 -62.45 -366.35 -59.35 -367.0 -55.35 -368.7 -50.7 -367.35 -45.7 -367.7 -40.6 -379.0 -15.0 -379.7 -9.35 -381.35 -1.7 -382.0 5.3 -379.7 15.3 -380.0 23.65 -379.7 28.0 -376.0 39.0 -375.7 47.3 -373.35 55.0 -369.7 62.3 -367.7 64.65 -361.0 71.0 -356.35 74.65 -355.0 77.65 -349.7 81.65 -348.35 86.0 -345.35 89.65 -330.0 102.3 -326.0 103.65 -321.0 106.65 -309.7 111.0 -298.7 117.65 -295.35 117.0 -277.35 124.3 -271.7 125.65 -266.7 127.65 -250.7 130.3 -248.7 129.65 -244.7 131.0 -237.0 128.0 -233.7 128.0 -230.7 129.0 -226.0 126.65 -224.0 124.65 -220.35 124.0 -205.7 125.0 -201.35 126.0 -197.7 125.65 -191.0 126.65 -190.7 125.3 -186.7 125.65 -183.0 127.0 -165.35 129.0 -166.0 130.5 -184.35 130.3 -188.35 131.0 -191.0 129.3 -193.7 131.0 -199.35 131.3 -203.35 131.0 -206.35 131.65 -212.0 134.3 -215.7 133.3 -218.35 134.3 -226.35 134.0 -234.35 135.65 -236.7 133.3 -239.7 134.0 -249.0 134.3 -253.35 132.0 -259.35 130.3 -264.7 130.3 -266.0 130.65 -269.35 129.3 -272.0 130.3 -274.35 129.0 -277.35 129.3 -284.7 127.0 -332.35 104.3 -344.35 96.0 -350.7 92.3 -353.7 92.65 -358.0 89.0 -379.7 63.65 -381.0 58.0 -381.7 52.3 -386.35 33.65 -389.35 18.3 -391.0 7.0 -391.7 -2.35 -389.0 -14.0 -387.2 -19.35 -385.7 -20.5 -381.7 -30.7 -378.7 -47.5 -378.5 -54.5 -372.2 -69.0 -369.0 -74.0 -366.35 -80.6" fill="#434343" fill-rule="evenodd" stroke="none"/>
    <path d="M357.0 -61.7 L352.3 -69.0 339.65 -77.35 311.0 -97.0 307.65 -102.0 284.65 -115.35 277.65 -120.0 214.3 -132.7 202.65 -130.35 192.3 -129.35 161.65 -131.0 152.65 -130.8 146.55 -128.1 145.0 -127.7 130.65 -127.7 120.65 -128.7 115.0 -127.7 108.65 -127.35 107.0 -130.7 112.0 -131.0 124.3 -130.7 139.0 -134.35 141.25 -135.75 143.5 -136.3 156.65 -135.75 190.3 -139.35 201.3 -139.0 224.3 -137.35 242.3 -132.7 259.65 -129.7 287.3 -122.0 304.0 -113.7 318.0 -100.0 332.0 -91.0 343.0 -85.7 358.65 -73.35 371.5 -58.0 379.0 -27.0 379.0 -15.5 380.5 1.5 378.0 35.5 373.0 55.5 361.0 71.0 330.5 93.5 324.55 95.65 319.3 99.0 312.0 106.3 303.0 113.65 296.0 117.3 259.0 131.65 254.3 129.3 227.65 136.3 185.0 139.65 177.15 138.8 171.3 137.15 163.0 137.0 133.3 135.3 126.65 133.65 118.3 134.0 97.0 132.3 94.3 131.2 93.65 127.0 103.0 125.65 116.65 127.65 133.3 126.0 156.3 129.0 168.3 132.3 185.3 131.65 204.65 129.65 214.65 131.0 260.0 126.0 292.3 114.65 313.0 98.3 314.65 94.3 351.45 72.0 356.5 59.5 372.5 31.0 370.5 8.0 372.0 -28.0 367.25 -43.45 357.0 -61.7" fill="#434343" fill-rule="evenodd" stroke="none"/>
    <path d="M351.65 183.4 L345.4 185.2 343.4 186.55 327.65 193.0 317.65 198.3 307.65 199.85 298.75 197.65 292.55 198.1 290.3 199.0 289.0 201.65 286.3 205.0 283.4 205.4 275.65 203.4 266.55 206.3 262.75 206.55 259.85 206.1 257.0 206.75 254.1 204.3 248.3 204.55 239.4 203.2 234.55 206.3 227.85 203.85 226.75 201.65 223.85 200.3 225.4 199.0 223.2 197.2 225.4 197.0 229.4 198.75 234.55 199.2 238.1 198.55 241.4 199.65 247.0 200.75 255.2 203.0 263.2 203.2 271.2 199.0 281.65 197.15 287.0 195.15 294.15 194.5 299.0 193.15 304.1 193.85 306.5 195.65 308.3 196.0 310.65 195.15 314.3 195.0 321.85 192.1 324.75 191.65 327.2 190.55 352.1 181.4 355.4 178.55 359.65 176.55 360.55 174.1 366.3 172.3 369.85 168.1 373.65 165.2 376.55 164.55 383.0 162.3 394.3 153.0 403.2 147.0 409.2 141.65 415.65 140.0 416.1 141.65 413.85 144.1 415.2 147.4 414.1 148.3 412.55 150.1 412.1 152.3 408.75 155.0 404.3 155.65 402.75 157.65 397.2 161.65 393.2 165.0 389.85 165.65 386.75 167.0 383.85 167.0 380.1 169.4 378.55 171.2 374.75 173.4 366.1 175.65 361.65 177.65 360.3 178.55 356.3 180.3 351.65 183.4" fill="#434343" fill-rule="evenodd" stroke="none"/>
    <path d="M0.3 154.3 L3.0 153.65 15.3 156.0 30.45 159.95 48.0 158.3 66.65 160.3 82.0 159.65 95.65 162.3 105.0 165.0 120.65 165.3 142.65 164.0 148.8 165.85 149.85 165.4 163.2 167.65 173.15 168.8 187.15 169.8 196.15 169.8 201.3 170.65 213.65 171.15 217.65 171.85 207.85 173.4 204.5 174.3 194.65 173.65 184.3 171.5 179.5 171.65 174.15 173.8 170.65 174.1 135.3 166.65 105.65 168.3 82.65 165.3 37.0 161.65 22.0 163.3 9.45 162.15 5.85 164.3 0.75 165.45 -23.5 163.35 -30.35 165.65 -49.0 165.65 -59.85 163.1 -76.35 165.0 -107.0 167.0 -114.0 166.0 -132.7 167.3 -144.35 171.65 -169.7 169.3 -185.0 169.65 -191.35 171.3 -206.35 173.3 -217.0 168.0 -241.2 168.4 -241.6 168.1 -240.7 167.8 -235.8 167.4 -215.7 164.3 -205.7 165.3 -193.0 165.65 -167.35 162.0 -152.0 161.65 -143.35 163.3 -116.0 156.3 -94.0 156.65 -88.9 156.45 -84.8 154.3 -80.15 155.4 -74.15 154.1 -68.15 154.75 -59.45 154.1 -50.6 156.75 -48.35 156.1 -47.45 156.1 -45.0 155.65 -42.15 157.0 -39.7 159.0 -37.45 157.4 -35.7 157.2 -29.75 157.1 -15.0 154.3 -9.15 155.0 -4.7 152.65 0.3 154.3" fill="#434343" fill-rule="evenodd" stroke="none"/>
    <path d="M-258.0 240.6 L-261.35 238.95 -232.95 232.1 -218.0 229.95 210.0 231.9 227.95 233.3 264.0 239.45 262.5 240.6 -258.0 240.6" fill="#434343" fill-rule="evenodd" stroke="none"/>
    <path d="M-262.15 -239.1 L-261.25 -240.1 263.3 -240.1 266.15 -238.95 233.4 -231.0 223.3 -229.45 -214.35 -231.45 -220.25 -232.0 -262.15 -239.1" fill="#434343" fill-rule="evenodd" stroke="none"/>
    <path d="M397.3 -16.1 L389.7 -45.95 392.9 -46.75 400.65 -16.6 401.65 16.45 394.95 48.3 391.7 47.65 398.3 16.15 397.3 -16.1" fill="#707070" fill-rule="evenodd" stroke="none"/>
    <path d="M-287.1 -33.7 L-281.1 -46.7 -279.6 -46.0 -285.6 -33.0 -287.1 -33.7" fill="#707070" fill-rule="evenodd" stroke="none"/>
    <path d="M-291.85 -10.85 L-289.5 -24.85 -287.85 -24.55 -290.2 -10.55 -291.85 -10.85" fill="#707070" fill-rule="evenodd" stroke="none"/>
    <path d="M-292.7 10.1 L-292.2 -6.05 -290.5 -6.0 -291.0 10.15 -292.7 10.1" fill="#707070" fill-rule="evenodd" stroke="none"/>
    <path d="M-428.8 97.4 L-427.25 97.9 -431.9 112.9 -433.5 112.4 -428.8 97.4" fill="#707070" fill-rule="evenodd" stroke="none"/>
    <path d="M-434.35 115.8 L-434.35 114.15 -430.55 130.2 -432.2 130.4 -434.85 115.6 -434.35 115.8" fill="#707070" fill-rule="evenodd" stroke="none"/>
    <path d="M-457.8 34.65 L-454.55 33.95 -446.75 70.95 -450.0 71.65 -457.8 34.65" fill="#707070" fill-rule="evenodd" stroke="none"/>
    <path d="M-390.7 21.3 L-390.7 21.2 -383.05 57.6 -386.3 58.35 -394.0 21.3 -390.7 21.3" fill="#707070" fill-rule="evenodd" stroke="none"/>
    <path d="M-456.9 6.5 L-442.55 3.35 -442.15 4.95 -456.85 8.15 -456.85 6.5 -456.9 6.5" fill="#707070" fill-rule="evenodd" stroke="none"/>
    <path d="M-457.1 -55.3 L-463.85 -43.5 -465.3 -44.35 -457.85 -57.4 -450.05 -54.25 -450.65 -52.7 -457.1 -55.3" fill="#707070" fill-rule="evenodd" stroke="none"/>
    <path d="M-461.8 -24.2 L-463.35 -23.6 -468.9 -37.6 -467.35 -38.2 -461.8 -24.2" fill="#707070" fill-rule="evenodd" stroke="none"/>
    <path d="M-456.7 -21.0 L-466.45 -17.0 -461.8 -0.35 -463.4 0.1 -468.45 -17.95 -457.35 -22.55 -456.7 -21.0" fill="#707070" fill-rule="evenodd" stroke="none"/>
    <path d="M-377.15 37.2 L-374.45 38.1 -362.7 77.65 -363.7 80.0 -369.45 81.75 -372.8 81.3 -385.45 41.1 -384.6 39.85 -377.15 37.2" fill="#707070" fill-rule="evenodd" stroke="none"/>
    <path d="M-377.15 -40.7 L-379.15 -35.6 -380.7 -36.2 -378.7 -41.35 -377.15 -40.7" fill="#707070" fill-rule="evenodd" stroke="none"/>
    <path d="M-385.65 -16.4 L-383.95 -16.3 -384.4 -8.95 -386.1 -9.1 -385.65 -16.4" fill="#707070" fill-rule="evenodd" stroke="none"/>
    <path d="M-384.4 20.9 L-386.1 21.05 -386.5 13.4 -384.9 13.9 -384.4 20.9" fill="#707070" fill-rule="evenodd" stroke="none"/>
    <path d="M-383.15 36.25 L-384.5 30.25 -382.9 29.9 -381.55 35.9 -383.15 36.25" fill="#707070" fill-rule="evenodd" stroke="none"/>
    <path d="M337.0 -35.25 L337.0 -39.25 342.1 -39.25 342.1 -35.25 337.0 -35.25" fill="#707070" fill-rule="evenodd" stroke="none"/>
    <path d="M317.4 -31.25 L317.4 -35.45 323.65 -35.45 323.65 -31.25 317.4 -31.25" fill="#707070" fill-rule="evenodd" stroke="none"/>
    <path d="M446.65 78.3 L452.3 80.0 448.0 93.3 443.3 95.65 440.0 93.0 446.65 78.3" fill="#707070" fill-rule="evenodd" stroke="none"/>
    <path d="M458.0 -84.6 L459.2 -84.2 462.55 -57.0 464.35 -45.95 468.7 -26.5 470.9 9.05 470.2 23.2 462.95 57.65 461.1 68.95 459.0 74.65 456.3 73.65 449.65 73.0 452.0 67.65 457.9 67.4 459.7 56.95 467.0 22.45 467.3 9.0 465.3 -21.35 465.65 -26.55 454.35 -67.9 454.9 -68.05 454.3 -70.35 455.0 -78.35 454.3 -86.15 455.5 -87.0 458.0 -84.6" fill="#707070" fill-rule="evenodd" stroke="none"/>
    <path d="M102.8 -26.0 L113.3 -27.5 120.15 -29.55 130.3 -34.35 146.5 -35.1 150.5 -35.6 158.4 -34.85 163.8 -29.45 175.7 -30.4 181.2 -29.75 186.3 -30.45 189.0 -29.6 195.65 -28.7 203.0 -25.15 212.55 -24.45 218.75 -25.8 227.4 -25.8 240.4 -27.8 254.6 -31.45 293.9 -31.65 301.4 -32.45 308.6 -32.15 312.1 -33.15 324.1 -31.8 345.1 -37.8 357.25 -38.95 367.7 -43.55 380.35 -51.9 388.95 -60.1 402.45 -79.6 412.95 -98.6 423.45 -127.8 428.55 -139.75 442.45 -109.8 459.2 -84.2 462.55 -57.0 464.35 -45.95 468.7 -26.5 470.9 9.05 470.2 23.2 462.95 57.65 461.1 68.95 451.75 93.2 444.0 105.65 437.0 114.65 429.3 122.65 412.3 133.3 405.4 111.55 391.75 76.85 397.6 74.6 396.4 72.2 377.4 50.2 356.1 35.85 340.4 37.9 338.55 37.65 321.75 33.2 312.4 33.85 309.0 30.9 282.1 29.85 273.85 33.3 247.4 34.65 239.4 30.0 216.75 33.1 201.65 28.65 195.2 30.4 182.85 30.7 176.65 32.7 162.1 31.95 144.3 33.25 122.5 32.35 117.65 32.5 109.15 34.3 107.65 31.95 86.15 29.85 86.15 -22.35 102.8 -26.0" fill="#ffffff" fill-opacity="0.14901961" fill-rule="evenodd" stroke="none"/>
    <path d="M-489.9 -10.45 L-490.6 -14.45 -489.25 -21.15 -484.6 -25.8 -485.25 -37.8 -476.6 -63.15 -465.9 -89.8 -461.25 -93.8 -455.25 -97.15 -445.05 -101.6 -428.25 -132.05 -422.55 -135.25 -417.9 -127.8 -414.25 -105.45 -403.25 -86.45 -369.9 -45.8 -355.6 -35.45 -339.6 -37.8 -325.9 -33.45 -314.25 -34.45 -305.9 -31.45 -281.4 -30.0 -274.25 -33.15 -249.6 -33.8 -238.9 -31.15 -219.9 -32.8 -200.25 -28.45 -185.45 -31.1 -179.7 -32.85 -174.6 -33.2 -168.8 -32.4 -158.85 -32.2 -145.15 -33.4 -124.6 -32.9 -116.2 -35.0 -112.0 -35.2 -107.0 -34.15 -102.8 -31.45 -97.45 -28.8 -97.45 25.5 -104.45 28.55 -111.85 30.15 -118.2 30.3 -123.1 28.8 -127.6 29.75 -130.45 31.7 -140.15 34.1 -148.8 35.4 -154.8 35.85 -159.25 34.75 -165.9 31.4 -175.25 30.75 -178.15 30.1 -189.9 28.85 -199.25 23.85 -224.25 24.55 -246.9 30.55 -268.9 29.85 -294.6 31.85 -307.25 31.85 -315.6 33.2 -323.9 30.2 -356.25 40.85 -373.25 49.85 -391.25 65.85 -401.25 80.85 -407.25 84.85 -420.9 105.85 -425.25 134.1 -433.6 116.55 -437.9 109.2 -442.6 99.2 -451.25 96.2 -458.6 88.85 -462.0 75.65 -465.25 72.85 -477.9 63.55 -493.25 49.55 -496.6 38.2 -494.6 25.55 -487.25 11.55 -487.25 5.55 -490.6 -2.45 -489.9 -10.45" fill="#ffffff" fill-opacity="0.14901961" fill-rule="evenodd" stroke="none"/>
    <path d="M215.95 -246.55 L216.0 -248.2 263.0 -245.5 262.95 -243.85 215.95 -246.55" fill="#707070" fill-rule="evenodd" stroke="none"/>
    <path d="M309.3 -238.0 L305.3 -229.35 265.0 -245.7 269.65 -254.35 309.3 -238.0" fill="#707070" fill-rule="evenodd" stroke="none"/>
    <path d="M165.9 -248.85 L166.05 -250.5 213.4 -245.85 213.25 -244.2 165.9 -248.85" fill="#707070" fill-rule="evenodd" stroke="none"/>
    <path d="M109.65 -244.2 L109.65 -245.85 158.55 -246.1 158.55 -244.4 109.65 -244.2" fill="#707070" fill-rule="evenodd" stroke="none"/>
    <path d="M8.1 -248.2 L8.15 -249.85 24.7 -249.35 32.95 -248.7 42.45 -247.35 42.5 -247.35 52.0 -246.0 64.65 -245.7 64.6 -244.0 52.0 -244.35 32.7 -247.05 24.6 -247.7 8.1 -248.2" fill="#707070" fill-rule="evenodd" stroke="none"/>
    <path d="M349.05 -85.8 L363.55 -72.65 362.4 -71.4 337.45 -93.55 319.2 -106.3 301.95 -115.25 275.05 -125.25 240.45 -133.55 240.85 -135.15 275.55 -126.8 302.7 -116.75 320.1 -107.75 320.15 -107.7 337.75 -95.2 349.05 -85.8" fill="#707070" fill-rule="evenodd" stroke="none"/>
    <path d="M389.05 175.05 L412.6 152.15 413.8 153.35 390.2 176.25 389.05 175.05" fill="#707070" fill-rule="evenodd" stroke="none"/>
    <path d="M359.85 186.9 L359.45 185.3 389.9 177.5 390.3 179.1 359.85 186.9" fill="#707070" fill-rule="evenodd" stroke="none"/>
    <path d="M214.2 134.9 L214.0 133.25 236.0 130.35 236.2 132.0 214.2 134.9" fill="#707070" fill-rule="evenodd" stroke="none"/>
    <path d="M222.8 125.95 L229.95 125.5 241.1 122.4 241.75 123.95 230.15 127.15 223.25 127.6 222.25 127.55 222.8 125.95" fill="#707070" fill-rule="evenodd" stroke="none"/>
    <path d="M193.6 127.25 L206.0 126.15 206.15 127.8 193.65 128.9 181.4 128.45 181.45 126.8 193.6 127.25" fill="#707070" fill-rule="evenodd" stroke="none"/>
    <path d="M250.05 84.5 L251.0 85.9 238.95 94.35 221.45 102.45 207.6 106.45 198.2 108.7 186.55 108.9 186.5 107.25 198.0 107.05 210.75 103.95 220.9 100.85 238.1 92.9 250.05 84.5" fill="#707070" fill-rule="evenodd" stroke="none"/>
    <path d="M-83.05 -110.05 L-83.35 -111.7 -67.5 -114.35 -67.2 -112.7 -83.05 -110.05" fill="#707070" fill-rule="evenodd" stroke="none"/>
    <path d="M-65.7 -113.0 L-49.65 -112.85 -49.7 -111.2 -65.4 -111.35 -65.7 -113.0" fill="#707070" fill-rule="evenodd" stroke="none"/>
    <path d="M-37.9 -113.7 L-38.15 -112.05 -53.8 -114.2 -53.6 -115.85 -37.9 -113.7" fill="#707070" fill-rule="evenodd" stroke="none"/>
    <path d="M-21.25 -112.7 L-21.15 -111.05 -37.0 -110.2 -37.05 -111.85 -21.25 -112.7" fill="#707070" fill-rule="evenodd" stroke="none"/>
    <path d="M-8.5 -169.2 L-8.55 -167.5 -32.7 -168.0 -55.9 -169.2 -85.5 -169.2 -85.5 -170.85 -55.8 -170.85 -32.65 -169.7 -8.5 -169.2" fill="#707070" fill-rule="evenodd" stroke="none"/>
    <path d="M-222.4 -286.25 L-214.1 -290.0 -201.6 -294.0 -179.05 -298.85 -178.7 -297.2 -199.35 -292.9 -213.55 -288.4 -221.65 -284.8 -223.3 -283.65 -230.95 -279.3 -231.75 -280.75 -224.15 -285.05 -222.4 -286.25" fill="#707070" fill-rule="evenodd" stroke="none"/>
    <path d="M-293.4 -296.45 L-282.1 -290.4 -274.35 -293.9 -269.9 -282.6 -281.25 -279.45 -284.3 -280.15 -297.65 -288.9 -293.4 -296.45" fill="#707070" fill-rule="evenodd" stroke="none"/>
    <path d="M-246.45 -284.0 L-245.95 -282.4 -250.95 -280.75 -251.35 -282.05 -265.9 -277.45 -270.6 -289.7 -266.35 -292.6 -248.35 -299.25 -243.0 -286.35 -246.45 -284.0" fill="#707070" fill-rule="evenodd" stroke="none"/>
    <path d="M-232.6 -286.8 L-234.35 -282.8 -237.0 -279.0 -241.1 -276.65 -241.95 -278.05 -239.1 -279.9 -238.05 -284.25 -239.0 -292.35 -233.0 -291.0 -232.6 -286.8" fill="#707070" fill-rule="evenodd" stroke="none"/>
    <path d="M-249.85 87.65 L-265.0 71.5 -274.0 60.85 -272.7 59.75 -263.75 70.4 -248.85 86.3 -233.65 94.55 -214.1 102.5 -183.25 108.8 -163.35 109.8 -151.45 108.8 -151.3 110.45 -163.35 111.5 -163.4 111.45 -183.45 110.45 -214.65 104.1 -234.4 96.05 -249.85 87.65" fill="#707070" fill-rule="evenodd" stroke="none"/>
    <path d="M-79.05 160.4 L-78.55 162.0 -108.75 171.55 -109.3 169.95 -79.05 160.4" fill="#707070" fill-rule="evenodd" stroke="none"/>
    <path d="M-145.05 170.25 L-145.0 168.6 -113.45 169.9 -113.5 171.6 -145.05 170.25" fill="#707070" fill-rule="evenodd" stroke="none"/>
    <path d="M-179.65 172.9 L-179.75 171.25 -148.65 169.25 -148.55 170.9 -179.65 172.9" fill="#707070" fill-rule="evenodd" stroke="none"/>
    <path d="M-359.55 185.1 L-359.2 183.5 -344.15 187.15 -344.55 188.8 -359.55 185.1" fill="#707070" fill-rule="evenodd" stroke="none"/>
    <path d="M-374.95 175.9 L-369.05 179.2 -362.85 180.5 -363.2 182.1 -369.65 180.75 -375.75 177.35 -374.95 175.9" fill="#707070" fill-rule="evenodd" stroke="none"/>
    <path d="M-394.4 169.4 L-393.65 167.9 -387.9 170.6 -380.9 175.3 -381.8 176.65 -388.75 172.05 -394.4 169.4" fill="#707070" fill-rule="evenodd" stroke="none"/>
    <path d="M-408.2 157.3 L-407.15 156.0 -395.85 165.35 -396.9 166.6 -408.2 157.3" fill="#707070" fill-rule="evenodd" stroke="none"/>
    <path d="M-418.6 152.6 L-417.45 151.35 -406.45 161.7 -407.6 162.9 -418.6 152.6" fill="#707070" fill-rule="evenodd" stroke="none"/>
    <path d="M-430.7 136.45 L-429.35 135.5 -420.0 148.15 -421.35 149.15 -430.7 136.45" fill="#707070" fill-rule="evenodd" stroke="none"/>
    <path d="M-518.0 -80.7 L-514.85 -80.35 -514.2 -78.6 -520.45 -43.5 -521.7 -42.5 -525.0 -43.5 -525.6 -45.45 -519.6 -79.7 -518.0 -80.7" fill="#707070" fill-rule="evenodd" stroke="none"/>
    <path d="M8.65 169.5 L-21.35 169.15 -21.35 167.5 8.65 167.8 16.0 167.45 16.05 167.5 26.7 168.5 26.55 170.15 15.95 169.15 8.65 169.5" fill="#707070" fill-rule="evenodd" stroke="none"/>
    <path d="M29.25 165.15 L29.35 163.5 76.7 167.15 76.6 168.8 29.25 165.15" fill="#707070" fill-rule="evenodd" stroke="none"/>
    <path d="M74.5 244.85 L76.45 244.6 76.65 246.25 75.0 246.45 67.3 249.95 66.65 248.45 74.5 244.85" fill="#707070" fill-rule="evenodd" stroke="none"/>
    <path d="M83.4 246.9 L83.45 245.25 104.5 245.5 123.8 244.8 133.5 243.6 134.05 249.8 132.35 249.95 132.0 245.45 123.9 246.45 104.5 247.15 83.4 246.9" fill="#707070" fill-rule="evenodd" stroke="none"/>
    <path d="M163.05 247.35 L145.45 250.0 144.95 248.4 162.85 245.7 162.9 245.7 186.25 243.5 186.4 245.15 163.05 247.35" fill="#707070" fill-rule="evenodd" stroke="none"/>
    <path d="M83.9 280.05 L83.85 278.35 132.95 276.35 133.0 278.05 83.9 280.05" fill="#707070" fill-rule="evenodd" stroke="none"/>
    <path d="M134.1 293.5 L134.1 295.15 125.2 295.25 125.2 293.6 134.1 293.5" fill="#707070" fill-rule="evenodd" stroke="none"/>
    <path d="M108.15 294.15 L108.25 295.8 84.3 297.25 84.3 295.6 108.15 294.15" fill="#707070" fill-rule="evenodd" stroke="none"/>
    <path d="M47.9 299.15 L20.95 298.9 21.0 297.25 47.85 297.5 75.1 294.5 75.3 296.15 47.9 299.15" fill="#707070" fill-rule="evenodd" stroke="none"/>
    <path d="M-233.05 245.8 L-255.1 245.15 -276.75 243.15 -276.6 241.5 -254.95 243.5 -233.0 244.15 -221.7 243.8 -221.65 245.5 -233.05 245.8" fill="#707070" fill-rule="evenodd" stroke="none"/>
    <path d="M-4.35 -245.35 L-15.7 -235.9 -20.8 -241.45 -4.8 -255.7 1.65 -250.35 1.65 -245.0 -4.35 -245.0 -4.35 -245.35" fill="#707070" fill-rule="evenodd" stroke="none"/>
    <path d="M-111.45 -248.65 L-112.8 -247.65 -116.15 -252.1 -114.8 -253.1 -111.45 -248.65" fill="#707070" fill-rule="evenodd" stroke="none"/>
    <path d="M-171.45 -243.45 L-170.35 -257.45 -120.6 -254.6 -121.9 -240.6 -130.6 -240.8 -131.0 -237.45 -143.9 -238.6 -143.9 -241.7 -171.45 -243.45" fill="#707070" fill-rule="evenodd" stroke="none"/>
    <path d="M60.55 -175.45 L60.55 -162.8 -4.15 -163.0 -4.15 -175.25 60.55 -175.45" fill="#707070" fill-rule="evenodd" stroke="none"/>
    <path d="M-1.0 -148.8 L-9.7 -149.0 -14.8 -147.9 -17.25 -156.35 -3.7 -160.15 -1.45 -158.35 13.2 -156.8 13.4 -154.35 15.65 -154.15 14.55 -147.25 -1.0 -148.8" fill="#707070" fill-rule="evenodd" stroke="none"/>
    <path d="M-338.8 -272.65 L-339.0 -273.7 -335.8 -274.25 -336.0 -275.7 -338.6 -275.45 -339.15 -278.8 -334.35 -279.35 -334.15 -277.7 -329.45 -278.35 -328.35 -274.35 -325.6 -274.35 -323.45 -257.9 -334.6 -256.35 -331.6 -253.7 -334.8 -253.7 -334.45 -251.25 -330.45 -252.0 -329.9 -246.0 -333.45 -244.8 -356.7 -242.25 -358.25 -253.15 -364.0 -252.6 -364.0 -247.2 -369.0 -246.35 -370.35 -251.85 -380.8 -250.8 -382.9 -266.9 -338.8 -272.65" fill="#707070" fill-rule="evenodd" stroke="none"/>
    <path d="M-547.0 -157.45 L-532.15 -149.45 -540.8 -133.7 -536.15 -130.35 -538.35 -127.0 -542.6 -129.7 -557.9 -100.6 -572.8 -109.0 -547.0 -157.45" fill="#707070" fill-rule="evenodd" stroke="none"/>
    <path d="M-303.2 -104.0 L-296.7 -108.5 -287.35 -94.2 -333.35 -63.7 -342.85 -77.7 -333.35 -84.35 -341.2 -96.5 -311.0 -115.7 -303.2 -104.0" fill="#707070" fill-rule="evenodd" stroke="none"/>
    <path d="M-545.2 -91.2 L-545.85 -88.7 -538.35 -87.2 -544.2 -58.0 -551.0 -59.0 -555.5 -34.7 -592.7 -41.35 -582.2 -98.5 -545.2 -91.2" fill="#707070" fill-rule="evenodd" stroke="none"/>
    <path d="M-583.35 -21.5 L-569.2 -21.7 -569.45 -7.95 -565.2 -7.85 -565.2 -3.0 -569.55 -2.9 -569.8 8.0 -565.85 8.15 -566.2 21.3 -570.05 20.95 -570.2 29.0 -584.7 28.5 -583.35 -21.5" fill="#707070" fill-rule="evenodd" stroke="none"/>
    <path d="M-589.35 37.5 L-575.0 35.3 -573.0 48.65 -570.35 48.15 -569.35 53.0 -572.25 53.5 -568.9 75.9 -564.5 75.0 -563.85 78.0 -568.4 78.95 -567.5 84.8 -582.0 87.0 -589.35 37.5" fill="#707070" fill-rule="evenodd" stroke="none"/>
    <path d="M-128.6 -60.35 L-123.7 -60.35 -123.8 -57.4 -105.9 -56.6 -105.9 -53.0 -104.15 -51.7 -105.7 -37.0 -161.45 -40.8 -161.0 -53.9 -159.7 -59.0 -158.3 -58.95 -157.9 -63.25 -154.35 -63.0 -154.7 -58.8 -128.8 -57.6 -128.6 -60.35" fill="#707070" fill-rule="evenodd" stroke="none"/>
    <path d="M33.2 34.55 L46.55 36.55 43.2 58.1 29.85 55.85 33.2 34.55" fill="#707070" fill-rule="evenodd" stroke="none"/>
    <path d="M312.65 92.45 L311.3 93.5 305.2 85.85 293.15 97.15 299.7 108.2 298.25 109.05 291.9 98.3 290.55 99.6 289.4 98.35 305.4 83.4 312.65 92.45" fill="#707070" fill-rule="evenodd" stroke="none"/>
    <path d="M-365.2 169.8 L-356.7 160.15 -341.5 171.8 -349.5 181.65 -365.2 169.8" fill="#707070" fill-rule="evenodd" stroke="none"/>
    <path d="M138.5 249.65 L138.5 244.15 143.5 244.15 143.5 249.65 138.5 249.65" fill="#707070" fill-rule="evenodd" stroke="none"/>
    <path d="M58.55 244.3 L58.55 257.0 -6.9 257.0 -6.9 244.3 58.55 244.3" fill="#707070" fill-rule="evenodd" stroke="none"/>
    <path d="M365.65 167.3 L362.65 161.3 380.3 153.3 394.3 144.65 400.25 139.75 395.0 126.55 Q399.1 124.45 403.2 122.3 L399.0 110.55 415.1 104.1 413.4 98.4 414.55 98.2 416.65 103.35 418.65 102.55 424.3 114.1 428.1 112.3 434.55 126.55 415.25 134.75 419.0 138.65 408.3 146.0 401.3 150.3 383.3 164.0 379.3 161.0 365.65 167.3" fill="#707070" fill-rule="evenodd" stroke="none"/>
    <path d="M507.85 211.85 L461.85 247.0 435.85 213.0 481.0 177.65 507.85 211.85" fill="#707070" fill-rule="evenodd" stroke="none"/>
    <path d="M416.75 261.65 L454.75 242.75 459.2 251.4 420.75 270.55 416.75 261.65" fill="#707070" fill-rule="evenodd" stroke="none"/>
    <path d="M568.3 -126.0 L558.5 -120.2 569.0 -100.35 552.9 -91.7 553.15 -91.35 575.0 -87.2 573.65 -77.35 566.0 -78.85 565.3 -76.85 561.3 -77.7 561.5 -79.7 550.5 -81.5 551.9 -91.15 546.15 -88.0 545.5 -88.85 541.0 -86.2 527.8 -110.5 532.8 -113.7 527.5 -123.2 512.8 -114.7 503.5 -131.7 518.15 -140.2 509.8 -155.2 541.8 -173.35 568.3 -126.0" fill="#707070" fill-rule="evenodd" stroke="none"/>
    <path d="M571.7 -68.15 L573.25 -68.9 575.9 -63.2 574.4 -62.5 571.7 -68.15" fill="#707070" fill-rule="evenodd" stroke="none"/>
    <path d="M573.15 -60.05 L574.8 -59.65 573.6 -54.5 572.0 -54.9 573.15 -60.05" fill="#707070" fill-rule="evenodd" stroke="none"/>
    <path d="M563.55 104.0 L565.7 98.65 567.25 99.3 565.1 104.6 563.55 104.0" fill="#707070" fill-rule="evenodd" stroke="none"/>
    <path d="M561.9 113.7 L562.7 112.25 569.9 116.25 569.05 117.7 561.9 113.7" fill="#707070" fill-rule="evenodd" stroke="none"/>
    <path d="M349.8 -189.15 L358.55 -184.6 357.75 -183.1 349.15 -187.6 314.45 -199.55 304.85 -200.85 305.1 -202.5 314.85 -201.15 349.8 -189.15" fill="#707070" fill-rule="evenodd" stroke="none"/>
    <path d="M590.0 -57.7 L589.65 -55.85 590.65 -52.7 593.65 -15.2 580.8 -14.0 577.0 -52.35 576.0 -78.0 588.0 -79.0 590.0 -57.7" fill="#707070" fill-rule="evenodd" stroke="none"/>
    <path d="M587.85 37.65 L589.4 5.4 590.75 -9.7 597.4 -10.15 596.55 -0.8 595.65 17.65 593.85 38.55 587.85 37.65" fill="#707070" fill-rule="evenodd" stroke="none"/>
    <path d="M579.2 71.75 L573.55 70.4 574.65 64.75 580.4 65.85 579.2 71.75" fill="#707070" fill-rule="evenodd" stroke="none"/>
    <path d="M575.85 79.3 L576.55 78.0 584.85 78.85 583.75 93.65 581.0 94.2 577.85 108.55 575.2 108.55 574.0 110.0 568.2 106.55 571.55 97.1 573.55 93.85 573.55 92.4 575.65 83.55 575.85 79.3" fill="#707070" fill-rule="evenodd" stroke="none"/>
    <path d="M48.0 87.3 L46.15 86.65 48.0 71.3 109.5 78.3 107.15 96.0 105.65 98.15 50.0 91.8 48.0 87.3" fill="#707070" fill-rule="evenodd" stroke="none"/>
    <path d="M-82.8 80.3 L-72.8 81.85 -70.6 79.85 -66.15 81.4 -66.15 85.2 -57.9 85.4 -63.0 101.0 -105.8 89.65 -114.8 96.55 -116.15 92.1 -111.15 88.25 -115.45 87.2 -126.35 88.1 -127.25 76.3 -125.0 72.75 -114.8 72.3 -114.15 77.2 -112.8 72.1 -110.35 73.0 -82.8 80.3" fill="#707070" fill-rule="evenodd" stroke="none"/>
    <path d="M-197.9 -158.7 L-198.35 -148.8 -217.25 -149.25 -217.15 -150.15 -199.6 -150.35 -198.9 -159.25 -197.9 -158.7" fill="#707070" fill-rule="evenodd" stroke="none"/>
    <path d="M-217.35 -159.8 L-216.6 -159.0 -218.8 -149.25 -219.8 -148.9 -217.35 -159.8" fill="#707070" fill-rule="evenodd" stroke="none"/>
    <path d="M126.3 -106.0 L125.0 -106.0 125.0 -107.6 126.3 -107.6 126.3 -106.0" fill="#707070" fill-rule="evenodd" stroke="none"/>
    <path d="M140.75 -106.0 L139.4 -106.0 139.4 -107.6 140.75 -107.6 140.75 -106.0" fill="#707070" fill-rule="evenodd" stroke="none"/>
    <path d="M155.85 -107.35 L154.55 -107.35 154.55 -108.9 155.85 -108.9 155.85 -107.35" fill="#707070" fill-rule="evenodd" stroke="none"/>
    <path d="M157.65 -105.9 L156.3 -105.9 156.3 -107.45 157.65 -107.45 157.65 -105.9" fill="#707070" fill-rule="evenodd" stroke="none"/>
    <path d="M172.65 -104.7 L156.3 -105.9 156.3 -107.45 172.65 -106.25 172.65 -104.7" fill="#707070" fill-rule="evenodd" stroke="none"/>
    <path d="M174.0 -130.7 L172.65 -130.7 172.65 -132.25 174.0 -132.25 174.0 -130.7" fill="#707070" fill-rule="evenodd" stroke="none"/>
    <path d="M153.75 -133.25 L152.4 -133.25 152.4 -134.8 153.75 -134.8 153.75 -133.25" fill="#707070" fill-rule="evenodd" stroke="none"/>
    <path d="M123.65 -129.45 L122.3 -129.45 122.3 -131.0 123.65 -131.0 123.65 -129.45" fill="#707070" fill-rule="evenodd" stroke="none"/>
    <path d="M38.15 -19.1 L40.3 -14.15 37.4 -13.0 34.85 -14.6 33.3 -17.9 21.75 -15.45 21.0 -18.8 37.4 -22.45 38.15 -19.1" fill="#707070" fill-rule="evenodd" stroke="none"/>
    <path d="M37.7 -37.55 L49.2 -40.55 46.65 -45.0 42.3 -44.7 41.1 -49.0 68.1 -56.6 71.6 -46.35 77.3 -48.15 76.2 -51.9 81.65 -53.15 83.1 -49.8 93.65 -52.0 97.85 -35.75 49.75 -23.35 50.85 -18.3 45.2 -17.0 44.35 -20.75 43.0 -17.25 46.55 -13.8 49.85 -14.45 53.0 -17.9 55.85 -18.7 57.0 -18.35 56.85 -16.9 52.85 -16.0 48.85 -12.7 45.1 -13.25 40.85 -17.25 41.55 -21.8 38.1 -27.0 37.55 -31.0 38.95 -32.7 37.7 -37.55" fill="#707070" fill-rule="evenodd" stroke="none"/>
    <path d="M228.75 -197.25 L235.2 -197.9 249.4 -202.8 235.2 -196.35 228.75 -196.15 228.75 -197.25" fill="#707070" fill-rule="evenodd" stroke="none"/>
    <path d="M319.0 -296.15 L320.3 -296.15 321.0 -294.6 320.55 -293.25 321.4 -291.6 323.0 -290.7 324.3 -292.25 325.0 -290.6 323.65 -288.45 320.3 -290.15 317.65 -290.35 316.3 -292.0 315.0 -290.8 312.55 -292.35 311.0 -293.7 309.65 -292.15 306.75 -291.45 305.65 -293.25 303.0 -294.35 302.1 -295.45 300.55 -294.35 296.55 -293.0 294.1 -295.0 292.75 -295.9 291.85 -295.0 292.75 -293.0 292.75 -291.45 291.0 -291.25 288.1 -293.45 287.4 -291.7 285.0 -290.35 281.4 -290.8 283.65 -292.8 282.55 -294.15 280.3 -293.0 277.85 -293.0 277.2 -294.8 275.4 -295.45 275.2 -294.15 274.3 -292.8 272.75 -293.25 270.75 -293.25 269.85 -294.15 270.55 -295.45 272.55 -297.25 274.75 -300.35 278.55 -300.6 280.3 -299.45 281.85 -300.35 291.65 -300.15 298.3 -299.45 302.1 -297.0 304.55 -298.15 307.4 -297.7 309.2 -295.7 310.3 -295.9 313.65 -297.0 316.0 -297.0 316.55 -295.45 319.0 -296.15" fill="#707070" fill-rule="evenodd" stroke="none"/>
    <path d="M330.1 -296.25 L330.8 -295.2 332.65 -295.9 334.4 -295.7 335.65 -293.7 335.65 -292.8 334.85 -292.35 334.1 -291.6 334.1 -290.15 331.0 -288.8 329.0 -289.25 328.0 -290.45 325.4 -289.8 324.65 -291.25 322.55 -294.25 322.85 -295.45 324.85 -297.25 327.0 -297.45 330.1 -296.25" fill="#707070" fill-rule="evenodd" stroke="none"/>
    <path d="M357.0 -290.6 L353.9 -291.1 354.75 -289.45 354.25 -288.6 352.5 -287.75 351.9 -287.1 350.9 -287.85 349.65 -288.2 348.9 -287.85 346.65 -287.75 345.8 -288.25 346.3 -289.95 345.8 -290.7 344.9 -290.1 343.75 -288.6 343.0 -289.5 342.65 -290.35 341.3 -290.45 341.15 -291.75 342.25 -292.5 343.05 -292.5 344.05 -291.35 344.9 -292.95 345.3 -294.2 348.05 -294.75 349.75 -294.35 351.15 -292.85 352.3 -295.25 354.5 -296.35 355.75 -295.5 356.0 -294.1 357.05 -293.25 357.55 -291.75 357.5 -290.95 357.0 -290.6" fill="#707070" fill-rule="evenodd" stroke="none"/>
    <path d="M364.75 -287.35 L368.55 -288.0 370.25 -287.0 370.75 -284.95 370.4 -283.85 370.05 -283.25 370.55 -282.5 370.5 -281.75 370.0 -281.1 368.4 -281.35 367.65 -281.95 365.9 -281.6 365.25 -282.0 363.8 -283.75 363.75 -285.45 364.75 -287.35" fill="#707070" fill-rule="evenodd" stroke="none"/>
    <path d="M377.15 -284.5 L378.55 -285.45 380.4 -285.45 382.65 -283.85 384.05 -282.0 384.15 -281.1 383.5 -280.35 380.65 -280.1 379.05 -281.0 377.4 -282.45 377.15 -284.5" fill="#707070" fill-rule="evenodd" stroke="none"/>
    <path d="M418.05 -271.6 L419.25 -271.0 420.4 -271.6 422.75 -271.25 423.8 -270.0 422.75 -265.95 421.4 -265.25 418.9 -265.75 417.75 -267.0 417.55 -268.6 415.5 -269.45 414.9 -270.35 411.05 -269.85 408.75 -271.25 407.05 -273.8 405.3 -273.35 401.55 -273.15 397.5 -274.7 395.75 -277.35 394.35 -277.45 391.55 -277.0 391.5 -276.1 391.0 -275.3 389.35 -275.5 388.25 -276.35 389.0 -277.7 387.9 -278.9 387.25 -280.95 387.5 -281.65 388.35 -282.5 391.75 -282.6 395.15 -281.35 396.15 -279.25 398.0 -280.2 401.9 -279.95 405.55 -278.1 407.65 -275.6 410.05 -276.45 413.0 -275.1 416.0 -271.75 416.75 -272.0 418.05 -271.6" fill="#707070" fill-rule="evenodd" stroke="none"/>
    <path d="M428.3 -267.35 L431.85 -266.9 433.2 -265.6 432.4 -263.45 431.0 -262.45 427.4 -263.15 426.4 -264.7 426.85 -266.6 428.3 -267.35" fill="#707070" fill-rule="evenodd" stroke="none"/>
    <path d="M434.55 -261.0 L435.4 -262.45 437.75 -262.9 440.65 -262.45 443.3 -261.0 444.55 -258.7 443.65 -256.6 441.2 -255.8 440.1 -253.6 439.0 -253.45 437.4 -255.7 435.75 -255.9 435.2 -257.25 435.55 -259.0 434.55 -261.0" fill="#707070" fill-rule="evenodd" stroke="none"/>
    <path d="M445.5 -254.7 L446.15 -256.0 448.55 -256.5 451.15 -254.6 452.15 -251.75 451.15 -250.5 448.15 -250.75 446.3 -252.45 445.5 -254.7" fill="#707070" fill-rule="evenodd" stroke="none"/>
    <path d="M456.9 -245.6 L458.3 -246.75 459.75 -246.5 460.05 -244.95 459.75 -243.85 458.8 -243.1 457.5 -244.0 456.9 -245.6" fill="#707070" fill-rule="evenodd" stroke="none"/>
    <path d="M485.1 -233.9 L487.1 -231.8 488.1 -230.0 487.85 -228.6 490.75 -226.8 491.65 -228.25 493.3 -228.45 495.85 -227.6 497.65 -225.25 498.4 -222.25 501.4 -223.6 503.4 -222.9 506.2 -218.35 506.3 -216.25 509.75 -216.9 512.1 -216.25 511.65 -214.0 514.1 -212.7 516.3 -213.45 516.4 -212.25 517.55 -208.8 520.2 -208.0 521.55 -206.15 522.0 -203.0 524.0 -201.8 525.1 -198.9 526.2 -198.9 527.55 -198.25 529.75 -194.45 530.4 -192.15 531.55 -190.7 533.55 -189.45 535.2 -185.8 535.75 -181.75 536.9 -180.95 537.3 -179.75 537.2 -178.15 538.8 -177.75 539.8 -176.6 540.4 -174.45 540.2 -173.45 541.85 -170.45 540.4 -169.15 536.0 -173.15 535.3 -174.8 535.65 -177.6 534.75 -178.9 532.8 -178.45 530.55 -179.9 529.1 -182.25 528.0 -183.6 526.5 -184.75 525.05 -186.5 525.3 -187.9 525.3 -189.0 523.8 -190.7 523.65 -192.7 522.65 -193.5 521.5 -195.2 521.15 -196.5 521.75 -197.15 520.85 -198.6 519.5 -198.85 518.05 -199.45 518.1 -200.45 518.55 -201.45 518.65 -202.35 517.3 -203.1 516.25 -202.1 514.4 -203.6 512.65 -203.9 511.85 -204.8 512.75 -205.45 514.65 -205.0 514.75 -206.45 513.65 -207.15 510.65 -208.45 508.4 -210.8 507.55 -212.15 507.85 -213.0 506.3 -213.35 504.75 -212.35 503.3 -212.9 502.4 -215.25 500.65 -216.35 498.55 -218.6 497.75 -219.9 496.55 -218.7 494.0 -218.9 492.2 -220.35 491.3 -223.35 486.65 -224.45 483.75 -226.0 482.4 -229.45 479.3 -228.25 476.0 -229.15 476.75 -231.6 474.65 -233.0 473.3 -234.45 472.3 -236.9 471.0 -237.35 470.2 -237.9 469.3 -237.6 466.65 -238.0 464.4 -239.9 463.2 -242.0 462.85 -243.6 464.2 -245.35 467.65 -244.6 469.2 -242.9 470.3 -239.9 472.1 -239.25 473.75 -237.7 473.85 -236.8 475.55 -237.8 477.55 -238.0 479.2 -236.6 480.0 -235.15 482.55 -235.25 485.1 -233.9" fill="#707070" fill-rule="evenodd" stroke="none"/>
    <path d="M567.2 -122.35 L569.0 -123.0 571.1 -120.9 575.0 -114.15 577.2 -112.8 578.1 -107.25 577.4 -105.0 578.55 -102.35 580.55 -102.6 583.2 -99.0 583.85 -94.15 587.4 -91.9 586.1 -86.15 590.3 -83.25 589.4 -81.0 591.85 -77.9 592.55 -75.7 590.75 -75.25 592.55 -72.6 593.65 -70.15 592.3 -66.6 593.2 -64.6 592.1 -61.0 593.85 -58.6 594.55 -46.35 593.0 -41.25 592.55 -38.35 592.55 -36.6 593.2 -34.35 592.75 -32.15 593.65 -28.35 592.1 -25.25 589.0 -40.6 584.3 -73.45 586.1 -79.7 585.4 -81.7 583.4 -81.9 582.1 -83.7 582.3 -85.9 581.2 -89.45 581.65 -93.25 577.85 -92.15 576.1 -99.25 572.3 -104.35 572.3 -108.15 569.0 -109.9 567.85 -111.45 569.65 -114.35 567.85 -115.7 568.1 -117.25 568.1 -119.9 567.2 -122.35" fill="#707070" fill-rule="evenodd" stroke="none"/>
    <path d="M590.4 43.75 L592.55 41.0 594.1 41.65 595.3 43.1 594.65 46.1 593.3 47.65 592.1 48.55 590.65 48.3 590.1 45.3 590.4 43.75" fill="#707070" fill-rule="evenodd" stroke="none"/>
    <path d="M585.85 63.85 L588.65 60.75 587.85 57.85 587.0 56.1 586.65 54.55 587.55 53.55 589.0 53.4 590.55 52.0 590.75 52.0 593.0 52.2 593.1 55.65 592.65 58.65 591.3 60.3 591.65 62.3 591.85 65.85 590.85 69.2 589.4 71.75 588.1 73.2 588.85 75.2 588.75 77.4 587.2 80.0 585.3 80.65 585.4 81.4 586.1 82.2 585.4 83.4 585.2 84.55 585.85 85.85 585.3 88.4 582.0 98.85 580.2 98.65 580.1 93.3 583.0 80.2 583.2 75.85 584.85 73.3 586.3 72.65 586.1 71.0 585.65 69.2 585.85 63.85" fill="#707070" fill-rule="evenodd" stroke="none"/>
    <path d="M571.75 112.4 L573.55 112.75 573.65 114.3 572.75 118.0 570.75 119.4 568.65 119.3 567.55 115.55 571.75 112.4" fill="#707070" fill-rule="evenodd" stroke="none"/>
    <path d="M562.0 127.0 L563.2 125.1 564.75 125.3 565.3 126.3 565.2 127.75 563.55 128.1 562.2 127.55 562.0 127.0" fill="#707070" fill-rule="evenodd" stroke="none"/>
    <path d="M538.65 174.75 L539.3 174.0 540.2 171.85 541.65 171.2 541.55 170.0 542.55 169.1 543.85 163.85 546.3 161.2 546.3 158.55 546.1 156.75 547.2 154.85 550.0 152.4 549.75 149.2 551.85 144.85 553.3 143.65 555.1 143.55 554.4 141.3 553.55 139.55 554.1 137.4 555.4 137.3 556.2 137.65 557.0 134.3 560.2 132.3 564.1 131.3 564.75 134.65 562.75 137.85 558.75 139.1 557.2 139.1 556.65 141.3 558.75 140.55 559.55 141.2 557.75 147.0 556.3 148.75 554.55 148.65 553.2 151.85 555.3 153.55 553.2 158.4 550.65 159.65 550.85 164.4 547.4 167.65 545.2 168.75 546.55 172.0 545.2 174.75 543.75 176.1 543.3 179.0 542.55 179.75 539.85 178.75 538.85 179.2 539.4 180.85 539.3 182.85 536.75 185.4 534.75 186.1 534.2 188.1 532.4 189.65 530.4 189.1 531.0 191.55 530.2 193.75 526.75 195.75 524.0 196.55 523.4 199.2 521.4 200.65 518.75 202.1 515.85 202.75 515.3 204.65 513.75 205.4 512.1 205.3 512.2 207.2 511.0 208.65 Q510.2 209.05 509.4 209.4 L508.0 209.2 507.1 211.1 496.1 209.0 506.4 207.2 506.85 205.1 508.55 204.3 510.3 204.0 512.65 203.1 512.85 201.75 513.0 198.85 518.0 193.2 Q520.4 192.0 522.75 190.75 L527.85 186.85 530.0 186.75 531.55 185.1 530.3 184.0 531.3 183.0 532.1 182.85 533.0 182.85 534.3 181.65 534.2 180.85 533.4 180.0 534.2 178.65 533.65 177.55 533.75 176.4 534.85 175.4 536.0 175.2 536.3 175.3 537.65 175.2 538.65 174.75" fill="#707070" fill-rule="evenodd" stroke="none"/>
    <path d="M372.8 163.5 L360.15 172.65 Q350.0 178.0 339.8 183.3 L336.0 184.0 319.65 190.0 312.0 190.8 308.0 190.65 287.0 192.3 259.65 199.5 259.3 195.8 297.5 188.3 302.8 189.5 311.3 189.65 318.3 188.65 340.8 180.5 360.15 170.5 369.5 163.0 372.8 163.5" fill="#707070" fill-rule="evenodd" stroke="none"/>
    <path d="M395.1 275.3 L397.2 274.55 399.4 275.65 399.85 277.85 397.55 280.4 394.65 280.75 391.65 276.75 392.0 275.75 392.85 275.3 395.1 275.3" fill="#707070" fill-rule="evenodd" stroke="none"/>
    <path d="M387.1 284.55 L383.65 285.75 380.55 284.4 380.4 283.1 381.65 281.85 384.2 280.55 386.4 281.2 387.55 282.0 387.85 283.2 387.1 284.55" fill="#707070" fill-rule="evenodd" stroke="none"/>
    <path d="M365.75 285.65 L368.0 286.85 369.4 285.85 371.3 283.75 371.1 282.1 372.55 281.55 374.0 281.75 374.3 283.3 375.85 284.1 377.75 285.75 376.1 288.0 372.0 289.65 368.65 288.65 366.3 291.65 362.3 293.0 359.0 292.3 356.5 292.8 354.15 294.3 351.8 294.8 349.5 294.5 347.5 293.15 345.65 294.65 341.5 296.0 340.15 294.65 340.3 292.4 340.75 290.65 343.4 289.75 345.0 290.85 348.2 290.3 351.0 288.4 355.0 288.65 358.85 288.3 361.65 286.3 365.75 285.65" fill="#707070" fill-rule="evenodd" stroke="none"/>
    <path d="M331.8 298.0 L330.8 297.5 330.0 294.65 331.3 293.15 333.65 292.0 335.15 292.3 336.3 294.15 335.8 296.0 331.8 298.0" fill="#707070" fill-rule="evenodd" stroke="none"/>
    <path d="M323.15 298.65 L318.5 298.0 316.3 296.0 317.3 294.5 319.3 290.65 321.5 290.5 323.3 291.15 325.15 292.8 327.8 294.65 326.3 296.65 323.15 298.65" fill="#707070" fill-rule="evenodd" stroke="none"/>
    <path d="M307.1 294.85 L309.2 293.2 312.0 293.0 314.2 294.3 314.3 296.0 312.1 298.1 309.55 298.0 307.85 296.3 307.1 294.85" fill="#707070" fill-rule="evenodd" stroke="none"/>
    <path d="M297.75 295.65 L296.65 294.3 296.55 293.3 297.1 292.1 299.3 292.65 300.0 293.65 299.2 295.3 297.75 295.65" fill="#707070" fill-rule="evenodd" stroke="none"/>
    <path d="M288.3 292.0 L290.2 292.4 292.2 293.3 293.0 294.2 294.0 296.1 293.4 297.4 291.3 298.0 288.0 298.1 286.0 296.65 284.85 295.0 285.0 293.55 286.3 292.75 288.3 292.0" fill="#707070" fill-rule="evenodd" stroke="none"/>
    <path d="M-281.0 293.0 L-278.9 293.1 -279.25 294.85 -279.15 296.2 -280.8 298.0 -282.45 298.55 -283.25 300.3 -285.0 301.4 -287.7 301.4 -288.9 300.55 -289.8 301.2 -292.35 301.4 -294.25 299.85 -295.45 298.55 -294.9 297.4 -296.6 297.1 -297.7 298.4 -300.15 299.2 -302.0 298.2 -303.45 299.1 -307.15 299.55 -309.45 299.0 -310.8 297.85 -311.9 296.2 -314.0 297.65 -317.0 297.55 -319.15 296.0 -322.15 295.3 -323.0 296.2 -325.35 295.55 -325.8 294.55 -328.35 295.1 -329.8 294.55 -332.9 294.75 -334.8 296.0 -337.6 295.75 -339.35 295.2 -340.35 293.55 -341.9 293.75 -343.15 293.4 -344.8 291.4 -343.35 289.3 -343.6 288.3 -342.7 287.85 -341.15 288.3 -341.15 287.3 -338.6 286.85 -337.35 287.75 -336.6 287.75 -335.45 287.2 -333.9 287.75 -332.9 287.3 -332.25 287.4 -331.25 288.1 -330.35 289.3 -327.9 289.0 -327.9 288.0 -326.9 288.1 -326.15 288.3 -326.35 289.2 -325.9 290.2 -324.7 289.85 -323.0 290.75 -321.15 292.85 -319.7 293.3 -319.35 291.3 -317.9 290.65 -316.7 291.4 -313.8 294.1 -311.45 295.1 -309.7 294.3 -305.15 293.85 -301.45 295.3 -302.35 294.2 -302.6 292.2 -301.6 291.55 -300.45 291.55 -299.35 291.85 -298.45 292.4 -297.7 291.65 -297.35 290.1 -296.45 290.0 -295.7 291.1 -294.7 290.75 -293.6 290.55 -291.9 290.75 -290.9 291.85 -290.6 293.65 -287.45 293.2 -283.8 293.4 -282.0 294.3 -281.0 293.0" fill="#707070" fill-rule="evenodd" stroke="none"/>
    <path d="M-371.8 285.75 L-372.15 284.35 -371.5 282.9 -370.7 281.75 -370.0 281.9 -369.0 282.75 -368.05 283.35 -367.2 283.5 -365.6 284.25 -364.95 285.5 -364.0 286.0 -363.6 285.65 -363.1 285.6 -362.4 285.65 -361.8 284.9 -361.25 284.65 -360.35 284.9 -358.9 285.5 -357.5 285.3 -356.25 285.35 -354.25 286.75 -352.7 286.75 -352.1 287.1 -351.85 287.95 -351.3 288.05 -350.1 288.8 -350.5 289.85 -351.15 290.65 -352.0 290.2 -353.15 288.8 -354.0 289.25 -353.85 289.9 -354.0 291.1 -355.1 291.95 -357.0 292.3 -358.55 292.15 -359.3 291.25 -360.0 291.1 -360.55 291.3 -361.45 292.45 -362.35 293.2 -363.15 293.5 -364.0 293.45 -365.0 292.25 -365.25 291.35 -365.65 290.5 -366.2 289.65 -367.2 288.7 -368.15 288.85 -369.85 288.85 -371.45 288.25 -371.65 287.5 -371.8 285.75" fill="#707070" fill-rule="evenodd" stroke="none"/>
    <path d="M-382.7 286.55 L-385.35 283.85 -385.35 282.65 -384.35 282.0 -382.0 281.55 -379.6 282.55 -378.25 284.1 -378.6 286.3 -380.7 287.1 -382.7 286.55" fill="#707070" fill-rule="evenodd" stroke="none"/>
    <path d="M-229.45 195.0 L-229.25 196.55 -243.9 195.65 -243.9 194.3 -229.45 195.0" fill="#707070" fill-rule="evenodd" stroke="none"/>
    <path d="M-344.6 179.0 L-318.35 185.85 -307.0 189.85 -287.9 189.85 -270.15 188.75 -261.25 192.55 -248.35 193.65 -248.15 195.85 -262.15 194.3 -269.0 191.4 -287.9 191.85 -306.35 191.65 -323.7 186.1 -344.8 180.55 -344.6 179.0" fill="#707070" fill-rule="evenodd" stroke="none"/>
    <path d="M-422.7 266.75 L-421.15 266.4 -418.9 268.1 -419.15 269.85 -417.5 270.0 -416.0 271.4 -412.5 270.5 -409.75 271.75 -407.45 274.75 -401.6 274.55 -398.7 275.9 -396.9 278.85 -394.8 278.2 -392.95 278.0 -392.75 277.05 -391.85 276.3 -391.0 276.2 -389.25 277.0 -389.7 278.85 -388.35 280.0 -388.0 282.0 -388.95 284.0 -392.6 283.5 -395.45 282.55 -397.6 281.3 -403.35 281.1 -407.25 279.0 -408.7 277.4 -410.8 277.4 -413.6 276.85 -415.6 275.1 -416.9 273.4 -418.8 273.3 -419.7 272.0 -420.6 272.75 -422.35 272.85 -425.35 271.2 -424.35 268.25 -422.7 266.75" fill="#707070" fill-rule="evenodd" stroke="none"/>
    <path d="M-431.7 263.55 L-429.0 263.75 -427.8 265.1 -427.35 266.65 -428.15 268.2 -430.15 269.0 -432.9 268.65 -434.35 267.0 -433.25 264.3 -431.7 263.55" fill="#707070" fill-rule="evenodd" stroke="none"/>
    <path d="M-445.9 260.65 L-444.9 257.85 -442.8 257.2 -441.8 256.1 -441.45 254.85 -440.25 254.75 -439.15 255.2 -438.15 256.3 -436.7 257.3 -436.15 258.55 -436.25 260.2 -435.45 261.4 -435.7 263.2 -437.25 263.85 -440.25 264.2 -442.9 263.3 -445.9 260.65" fill="#707070" fill-rule="evenodd" stroke="none"/>
    <path d="M-447.25 253.55 L-446.6 255.2 -446.7 256.75 -448.15 257.4 -450.15 257.3 -452.0 255.85 -453.15 254.2 -452.8 252.85 -451.8 252.1 -450.25 252.2 -448.7 252.55 -447.25 253.55" fill="#707070" fill-rule="evenodd" stroke="none"/>
    <path d="M-459.7 248.1 L-461.15 246.85 -461.35 245.75 -460.6 244.85 -459.45 244.3 -458.0 245.55 -458.0 247.3 -459.7 248.1" fill="#707070" fill-rule="evenodd" stroke="none"/>
    <path d="M-536.6 174.2 L-536.15 176.0 -537.0 178.1 -536.0 180.15 -533.35 179.75 -532.25 180.4 -530.5 183.15 -529.2 184.65 -528.0 185.5 -526.85 187.15 -526.5 188.3 -525.35 191.0 -524.85 192.65 -523.2 195.15 -522.35 197.3 -521.2 199.3 -519.5 200.3 -519.35 201.8 -520.5 202.0 -519.35 203.5 -516.35 204.0 -514.7 204.5 -513.35 205.65 -515.5 207.3 -514.0 208.5 -512.85 209.15 -509.7 212.15 -507.7 213.5 -506.5 212.8 -505.0 213.65 -504.0 214.65 -502.5 216.8 -499.7 219.8 -497.85 220.0 -496.35 219.15 -495.0 220.15 -492.7 222.3 -491.5 224.5 -486.35 226.5 -484.35 228.15 -483.0 229.8 -481.0 230.0 -479.35 229.5 -477.5 231.0 -478.0 233.3 -476.0 234.15 -474.35 235.5 -473.85 236.8 -472.5 238.0 -470.5 238.5 -467.0 239.8 -465.35 241.15 -464.0 243.5 -463.85 245.65 -464.5 246.65 -468.0 246.5 -473.5 240.65 -475.35 239.5 -477.0 239.8 -482.35 236.8 -486.85 234.8 -488.5 233.65 -488.85 231.3 -489.85 229.3 -492.2 229.8 -495.0 229.65 -497.85 226.5 -500.35 224.8 -503.7 224.15 -507.35 218.15 -511.2 218.0 -511.85 216.8 -513.5 214.65 -515.0 214.3 -516.7 214.15 -516.85 213.65 -517.0 212.15 -517.7 210.3 -519.5 211.0 -522.7 207.8 -522.85 205.15 -524.2 203.0 -525.0 200.8 -528.85 198.65 -531.0 195.5 -532.0 193.15 -533.85 191.15 -537.7 184.8 -538.15 182.1 -538.25 179.75 -539.7 178.85 -541.45 177.0 -541.7 175.0 -542.45 174.55 -542.6 173.0 -540.8 171.3 -539.7 171.75 -539.35 173.2 -538.25 173.2 -536.6 174.2" fill="#707070" fill-rule="evenodd" stroke="none"/>
    <path d="M-581.7 -37.5 L-575.5 -36.2 -576.85 -30.7 -582.7 -31.7 -581.7 -37.5" fill="#707070" fill-rule="evenodd" stroke="none"/>
    <path d="M-555.25 -29.25 L-557.25 -29.25 -557.25 -31.25 -555.25 -31.25 -555.25 -29.25" fill="#707070" fill-rule="evenodd" stroke="none"/>
    <path d="M-545.6 161.0 L-543.6 160.3 -541.45 164.3 -541.7 166.0 -543.45 168.0 -544.8 168.2 -548.15 165.65 -548.35 164.3 -547.6 163.4 -545.9 162.1 -545.6 161.0" fill="#707070" fill-rule="evenodd" stroke="none"/>
    <path d="M-554.8 156.3 L-555.45 154.4 -555.45 152.55 -554.15 150.4 -552.15 151.65 -550.45 156.55 -552.0 158.2 -554.8 156.3" fill="#707070" fill-rule="evenodd" stroke="none"/>
    <path d="M-575.25 119.85 L-576.8 117.65 -576.15 115.0 -571.9 113.65 -570.0 116.3 -570.7 118.3 -570.35 120.85 -567.25 123.65 -566.35 125.4 -565.9 126.85 -566.15 129.75 -562.15 134.1 -560.45 135.4 -560.6 139.3 -560.15 140.3 -557.6 142.3 -555.35 142.55 -554.25 144.4 -555.9 145.4 -556.0 147.0 -556.7 148.85 -558.45 149.2 -561.45 145.65 -562.8 142.55 -564.45 140.55 -565.8 139.85 -567.9 136.4 -568.6 133.85 -568.25 132.2 -568.9 131.0 -570.6 129.75 -572.45 126.55 -572.35 123.85 -572.7 120.85 -575.25 119.85" fill="#707070" fill-rule="evenodd" stroke="none"/>
    <path d="M-575.25 111.3 L-577.45 111.65 -580.8 108.4 -580.9 106.65 -580.0 105.1 -578.15 105.0 -576.6 105.2 -574.8 107.2 -574.25 109.65 -575.25 111.3" fill="#707070" fill-rule="evenodd" stroke="none"/>
    <path d="M-577.15 93.2 L-576.7 94.55 -576.6 95.85 -576.25 97.1 -576.15 98.85 -577.45 99.3 -577.35 100.65 -578.6 102.3 -579.8 102.3 -582.6 101.0 -584.25 99.1 -584.6 96.3 -583.8 93.65 -583.0 92.55 -581.7 93.1 -580.45 93.85 -579.25 93.4 -578.35 92.65 -577.15 93.2" fill="#707070" fill-rule="evenodd" stroke="none"/>
    <path d="M-581.8 84.1 L-581.25 88.1 -582.15 90.0 -583.8 90.4 -585.7 89.1 -585.9 85.0 -585.0 83.1 -583.9 83.2 -581.8 84.1" fill="#707070" fill-rule="evenodd" stroke="none"/>
    <path d="M-596.7 -14.85 L-595.5 -14.85 -594.2 -15.5 -593.2 -14.5 -592.5 -13.5 -593.0 -12.0 -592.5 -10.5 -592.5 -9.35 -593.7 -4.85 -594.5 -3.2 -596.35 -3.2 -595.5 -4.35 -596.7 -5.2 -598.5 -5.85 -599.0 -7.0 -597.7 -9.7 -598.7 -11.2 -600.7 -12.5 -601.2 -14.2 -600.5 -15.7 -598.85 -16.2 -597.2 -17.5 -596.2 -16.85 -596.7 -14.85" fill="#707070" fill-rule="evenodd" stroke="none"/>
    <path d="M-591.5 13.0 L-592.35 14.65 -591.0 16.3 -591.35 17.65 -592.2 19.5 -593.0 20.65 -594.0 21.3 -594.0 22.3 -593.2 24.0 -592.2 24.8 -592.85 27.0 -594.7 29.8 -594.35 32.0 -593.35 33.65 -592.85 36.15 -593.85 37.5 -591.85 39.5 -590.2 40.15 -588.2 43.65 -589.5 51.3 -589.2 58.5 -586.0 61.5 -585.2 64.5 -586.7 70.0 -589.0 70.0 -591.5 68.15 -591.5 60.65 -592.7 59.3 -594.0 58.8 -595.7 57.3 -596.0 55.65 -595.7 53.8 -597.2 52.3 -596.5 48.0 -594.85 47.0 -595.85 44.65 -596.7 43.3 -597.5 41.15 -598.2 38.3 -598.5 35.15 -597.2 32.65 -597.7 31.8 -598.0 28.5 -596.2 26.0 -597.2 21.3 -597.85 19.3 -597.7 17.5 -596.0 14.65 -596.5 13.3 -597.7 12.5 -599.7 10.15 -599.2 8.8 -598.7 5.65 -598.2 4.0 -596.2 1.8 Q-595.5 2.25 -594.85 2.65 L-593.0 3.5 -591.5 6.0 -591.7 7.15 -592.5 8.65 -592.35 10.5 -591.5 13.0" fill="#707070" fill-rule="evenodd" stroke="none"/>
    <path d="M-498.85 -210.0 L-504.8 -206.8 -505.45 -204.35 -512.5 -198.2 -515.7 -197.45 -518.6 -195.7 -520.8 -193.7 -522.6 -193.0 -524.35 -191.9 -524.8 -189.25 -528.35 -188.35 -527.45 -185.25 -529.25 -183.0 -531.7 -184.35 -533.25 -183.0 -537.25 -175.45 -536.8 -173.25 -538.6 -171.9 -542.15 -167.9 -541.45 -166.15 -542.35 -161.9 -545.7 -157.0 -549.7 -140.15 -555.9 -142.15 -556.35 -140.35 -559.25 -139.0 -560.15 -140.35 -559.45 -147.0 -556.8 -151.0 -556.6 -153.7 -551.0 -159.0 -551.0 -162.15 -549.7 -166.15 -547.45 -168.15 -545.45 -168.15 -545.9 -173.0 -539.7 -179.0 -541.0 -181.25 -539.25 -182.35 -537.45 -186.15 -533.25 -189.45 -534.15 -192.15 -529.9 -193.0 -527.5 -195.5 -525.0 -196.15 -521.9 -201.0 -518.35 -202.6 -514.85 -206.7 -511.45 -207.7 -507.45 -208.35 -508.35 -209.5 -506.8 -211.45 -501.9 -215.0 -498.35 -216.7 -497.35 -213.5 -499.35 -212.35 -498.85 -210.0" fill="#707070" fill-rule="evenodd" stroke="none"/>
    <path d="M-283.0 -294.15 L-287.0 -291.45 -292.6 -292.35 -294.6 -293.0 -297.25 -293.45 -297.7 -294.8 -296.6 -296.15 -292.15 -297.25 -290.6 -299.25 -287.0 -299.25 -283.9 -297.45 -283.0 -294.15" fill="#707070" fill-rule="evenodd" stroke="none"/>
    <path d="M-308.15 -293.45 L-309.9 -293.45 -312.15 -295.25 -312.35 -297.25 -309.85 -298.7 -306.7 -298.5 -305.0 -296.15 -305.7 -294.5 -308.15 -293.45" fill="#707070" fill-rule="evenodd" stroke="none"/>
    <path d="M-320.8 -299.45 L-318.35 -299.9 -315.7 -298.15 -314.85 -295.85 -316.0 -294.35 -316.2 -292.2 -317.0 -290.7 -318.35 -291.25 -321.45 -291.0 -322.7 -292.0 -322.85 -293.35 -324.35 -294.35 -324.35 -297.0 -320.8 -299.45" fill="#707070" fill-rule="evenodd" stroke="none"/>
    <path d="M-328.5 -294.7 L-330.7 -292.7 -332.5 -292.5 -334.0 -293.7 -334.35 -295.35 -332.85 -297.85 -329.85 -298.7 -328.35 -297.85 -327.35 -296.35 -328.5 -294.7" fill="#707070" fill-rule="evenodd" stroke="none"/>
    <path d="M-340.2 -296.7 L-338.5 -296.35 -337.7 -292.7 -339.0 -291.35 -341.5 -290.7 -342.85 -292.2 -345.7 -292.0 -348.35 -289.0 -351.5 -288.85 -355.0 -290.35 -356.2 -289.35 -359.85 -287.0 -363.85 -286.5 -366.7 -286.5 -369.35 -284.85 -369.2 -283.5 -370.7 -282.35 -372.2 -282.85 -372.85 -284.35 -375.2 -285.5 -375.85 -287.85 -372.85 -289.35 -369.5 -290.5 -366.35 -289.85 -362.7 -292.7 -359.35 -293.5 -356.0 -293.2 -354.0 -295.0 -349.7 -295.7 -347.35 -294.7 -346.0 -295.5 -344.7 -294.5 -343.0 -296.0 -340.2 -296.7" fill="#707070" fill-rule="evenodd" stroke="none"/>
    <path d="M-381.85 -281.2 L-385.5 -282.5 -385.35 -284.7 -382.5 -286.2 -379.35 -286.0 -377.85 -284.7 -378.85 -282.7 -381.85 -281.2" fill="#707070" fill-rule="evenodd" stroke="none"/>
    <path d="M-392.5 -281.35 L-390.7 -278.0 -390.2 -276.5 -394.7 -275.0 -396.5 -276.5 -398.7 -275.7 -399.7 -274.2 -403.2 -273.5 -406.85 -274.85 -408.2 -277.2 -405.0 -279.5 -397.7 -279.7 -395.0 -281.7 -392.5 -281.35" fill="#707070" fill-rule="evenodd" stroke="none"/>
    <path d="M-411.7 -270.9 L-411.35 -273.25 -410.7 -273.7 -409.9 -273.6 -409.15 -272.7 -408.6 -271.6 -409.15 -270.8 -410.9 -270.6 -411.7 -270.9" fill="#707070" fill-rule="evenodd" stroke="none"/>
    <path d="M-497.2 -217.35 L-499.2 -219.85 -497.7 -223.35 -495.5 -223.85 -494.2 -223.35 -492.85 -222.0 -491.7 -221.5 -491.0 -220.2 -492.35 -219.5 -493.2 -218.2 -494.5 -217.0 -497.2 -217.35" fill="#707070" fill-rule="evenodd" stroke="none"/>
    <path d="M-489.5 -228.0 L-489.35 -230.5 -487.35 -232.2 -484.2 -233.35 -482.5 -232.35 -483.85 -229.0 -486.0 -227.35 -489.5 -228.0" fill="#707070" fill-rule="evenodd" stroke="none"/>
    <path d="M-476.5 -232.5 L-480.85 -234.35 -481.35 -236.0 -478.0 -240.35 -473.85 -240.85 -474.0 -242.85 -471.5 -245.5 -468.2 -247.7 -464.35 -248.35 -463.5 -250.0 -462.7 -251.0 -460.7 -252.5 -458.7 -253.0 -455.35 -254.7 -454.35 -256.2 -451.2 -258.0 -449.85 -257.5 -448.5 -254.35 -449.2 -252.5 -451.35 -250.7 -453.35 -252.0 -455.7 -250.7 -456.85 -248.0 -463.35 -245.5 -468.35 -240.0 -472.35 -239.0 -473.85 -236.5 -473.35 -234.5 -474.7 -232.7 -476.5 -232.5" fill="#707070" fill-rule="evenodd" stroke="none"/>
    <path d="M-446.0 -260.35 L-445.0 -262.45 -442.9 -263.35 -441.35 -263.6 -440.25 -261.15 -441.15 -258.35 -442.8 -256.8 -444.8 -256.7 -445.8 -257.45 -446.0 -260.35" fill="#707070" fill-rule="evenodd" stroke="none"/>
    <path d="M-438.25 -262.8 L-435.35 -267.15 -433.0 -268.45 -430.8 -268.7 -428.15 -266.6 -429.0 -264.7 -429.0 -263.8 -428.25 -263.15 -428.0 -262.0 -428.9 -260.6 -430.7 -260.8 -431.6 -260.25 -432.8 -259.8 -433.9 -259.8 -434.25 -261.45 -437.6 -261.35 -438.25 -262.8" fill="#707070" fill-rule="evenodd" stroke="none"/>
    <path d="M-422.8 -271.45 L-419.9 -271.15 -419.0 -269.9 -419.7 -268.35 -421.25 -266.7 -423.8 -266.0 -425.6 -266.6 -426.15 -267.8 -425.9 -269.35 -422.8 -271.45" fill="#707070" fill-rule="evenodd" stroke="none"/>
  </g>
</svg>
