<?xml version="1.0" encoding="UTF-8" standalone="no"?>
<svg xmlns:ffdec="https://www.free-decompiler.com/flash" xmlns:xlink="http://www.w3.org/1999/xlink" ffdec:objectType="shape" height="1060.0px" width="1666.65px" xmlns="http://www.w3.org/2000/svg">
  <g transform="matrix(1.0, 0.0, 0.0, 1.0, 834.15, 531.0)">
    <path d="M603.2 -443.05 L650.55 -406.5 693.5 -364.45 731.5 -317.5 764.1 -266.2 790.75 -211.25 811.15 -153.45 825.05 -93.6 832.2 -32.4 832.5 29.2 826.05 90.5 812.8 150.55 793.05 208.55 766.95 263.8 734.95 315.5 697.45 362.9 654.95 405.5 608.05 442.55 557.3 473.7 503.5 498.4 447.3 516.45 399.95 525.5 370.65 528.5 330.9 529.0 -333.5 529.0 -370.65 528.55 -402.15 525.4 -448.95 516.45 -505.15 498.4 -558.95 473.7 -609.65 442.55 -656.6 405.5 -699.1 362.9 -736.6 315.5 -768.6 263.8 -794.65 208.55 -814.45 150.55 -827.65 90.5 -834.15 29.2 -833.8 -32.4 -826.65 -93.6 -812.8 -153.45 -792.35 -211.25 -765.7 -266.2 -733.15 -317.5 -695.1 -364.45 -652.15 -406.5 -604.85 -443.05 -553.8 -473.55 -499.7 -497.6 -443.3 -514.95 -390.4 -524.4 -333.8 -531.0 332.15 -531.0 388.8 -524.4 441.7 -514.95 498.05 -497.6 552.15 -473.55 603.2 -443.05" fill="#707070" fill-rule="evenodd" stroke="none"/>
    <path d="M524.55 -428.95 L573.05 -401.35 618.0 -368.25 658.8 -330.2 694.95 -287.6 725.9 -241.15 751.2 -191.45 770.6 -139.1 783.8 -84.85 790.6 -29.45 790.9 26.35 784.75 81.85 772.2 136.25 753.4 188.8 728.65 238.8 698.2 285.65 662.6 328.6 622.2 367.15 577.6 400.7 529.45 428.9 478.3 451.3 424.95 467.6 371.0 477.45 361.65 478.45 314.3 479.0 -316.9 479.0 -360.95 478.5 -374.0 477.2 -426.55 467.6 -479.95 451.3 -531.05 428.9 -579.25 400.7 -623.85 367.15 -664.2 328.6 -699.85 285.65 -730.25 238.8 -755.0 188.8 -773.8 136.25 -786.35 81.85 -792.55 26.35 -792.2 -29.45 -785.4 -84.85 -772.25 -139.1 -752.85 -191.45 -727.5 -241.15 -696.55 -287.6 -660.45 -330.2 -619.65 -368.25 -574.65 -401.35 -526.15 -428.95 -474.8 -450.75 -421.25 -466.5 -375.05 -474.35 -366.25 -476.75 -317.15 -494.65 -217.35 -514.7 216.0 -514.7 315.55 -494.65 363.55 -477.15 373.85 -474.25 419.6 -466.5 473.15 -450.75 524.55 -428.95" fill="#434343" fill-rule="evenodd" stroke="none"/>
    <path d="M392.8 -313.4 L394.35 -319.45 410.25 -314.8 446.15 -299.55 474.6 -283.35 471.2 -278.5 494.05 -262.55 497.45 -267.45 511.5 -257.1 516.9 -252.05 510.15 -245.55 511.8 -243.85 519.7 -251.35 519.7 -251.4 539.5 -271.2 571.25 -239.45 543.9 -212.3 545.55 -210.65 551.8 -216.6 560.6 -206.25 556.1 -202.95 572.75 -180.6 576.7 -183.55 586.85 -168.3 604.6 -133.55 615.3 -104.65 610.65 -103.6 616.8 -76.45 622.8 -77.8 627.35 -59.05 632.1 -20.35 632.3 15.7 628.0 54.45 625.0 67.45 618.95 66.05 612.75 93.2 618.5 94.5 606.1 129.2 588.8 164.2 582.0 174.6 578.35 171.9 561.75 194.2 566.7 197.9 551.35 216.4 545.8 211.1 544.15 212.75 553.6 221.95 553.6 221.85 571.25 239.5 539.5 271.25 518.35 250.1 518.25 250.2 512.05 244.3 510.4 246.0 516.5 251.9 514.4 253.85 505.8 260.35 503.0 256.35 480.15 272.25 483.5 277.1 483.25 277.35 449.6 297.05 413.85 312.7 403.65 315.8 402.25 310.35 375.25 317.3 376.95 323.95 375.85 324.3 336.5 329.95 299.25 330.35 206.3 330.35 165.7 346.65 163.0 346.65 163.0 348.15 165.1 348.15 165.1 381.3 135.1 381.3 135.1 348.15 137.2 348.15 137.2 346.65 129.65 346.65 129.65 348.15 131.75 348.15 131.75 381.3 101.75 381.3 101.75 348.15 103.85 348.15 103.85 346.65 96.3 346.65 96.3 348.15 98.4 348.15 98.4 381.3 68.4 381.3 68.4 348.15 70.55 348.15 70.55 346.65 63.0 346.65 63.0 348.15 65.1 348.15 65.1 381.3 35.1 381.3 35.1 348.15 37.2 348.15 37.2 346.65 29.65 346.65 29.65 348.15 31.75 348.15 31.75 381.3 1.75 381.3 1.75 348.15 3.85 348.15 3.85 346.65 -3.7 346.65 -3.7 348.15 -1.6 348.15 -1.6 381.3 -31.6 381.3 -31.6 348.15 -29.45 348.15 -29.45 346.65 -37.0 346.65 -37.0 348.15 -34.9 348.15 -34.9 381.3 -64.9 381.3 -64.9 348.15 -62.8 348.15 -62.8 346.65 -70.35 346.65 -70.35 348.15 -68.25 348.15 -68.25 381.3 -98.25 381.3 -98.25 348.15 -96.15 348.15 -96.15 346.65 -103.7 346.65 -103.7 348.15 -101.6 348.15 -101.6 381.3 -131.6 381.3 -131.6 348.15 -129.45 348.15 -129.45 346.65 -137.0 346.65 -137.0 348.15 -134.9 348.15 -134.9 381.3 -164.9 381.3 -164.9 348.15 -162.8 348.15 -162.8 346.65 -166.7 346.65 -205.0 330.35 -301.05 330.35 -338.15 329.95 -367.0 325.8 -365.4 319.65 -392.4 312.7 -394.1 319.2 -415.45 312.7 -451.2 297.05 -474.7 283.25 -470.55 277.25 -493.35 261.35 -497.75 267.6 -516.05 253.85 -517.05 252.9 -509.85 245.85 -511.5 244.2 -518.85 251.2 -519.15 250.85 -539.55 271.25 -571.3 239.5 -553.1 221.25 -553.05 221.85 -543.6 212.65 -545.25 211.0 -552.1 217.5 -561.75 205.8 -555.9 201.45 -572.55 179.1 -578.05 183.2 -590.4 164.2 -607.7 129.2 -616.8 103.75 -610.05 102.2 -616.2 75.05 -624.45 76.95 -629.65 54.45 -633.95 15.7 -633.7 -20.35 -628.95 -59.05 -626.9 -67.55 -619.65 -65.9 -613.5 -93.05 -620.35 -94.6 -619.75 -96.95 -606.2 -133.55 -588.5 -168.3 -583.85 -175.25 -578.1 -170.95 -561.45 -193.25 -568.4 -198.45 -566.9 -200.75 -552.75 -217.4 -545.5 -210.55 -543.85 -212.2 -571.3 -239.45 -539.55 -271.2 -519.65 -251.3 -519.65 -251.25 -511.75 -243.75 -510.1 -245.4 -517.7 -252.8 -513.1 -257.1 -506.5 -261.95 -502.35 -256.05 -479.55 -272.0 -484.05 -278.5 -481.65 -280.25 -447.8 -299.55 -411.85 -314.8 -404.7 -316.9 -402.95 -310.2 -376.0 -317.1 -377.95 -324.75 -374.45 -325.75 -335.3 -332.45 -293.95 -333.0 -205.0 -333.0 -166.7 -346.7 -162.8 -346.7 -162.8 -348.35 -164.9 -348.35 -164.9 -381.5 -134.9 -381.5 -134.9 -348.35 -137.0 -348.35 -137.0 -346.7 -129.45 -346.7 -129.45 -348.35 -131.6 -348.35 -131.6 -381.5 -101.6 -381.5 -101.6 -348.35 -103.7 -348.35 -103.7 -346.7 -96.15 -346.7 -96.15 -348.35 -98.25 -348.35 -98.25 -381.5 -68.25 -381.5 -68.25 -348.35 -70.35 -348.35 -70.35 -346.7 -62.8 -346.7 -62.8 -348.35 -64.9 -348.35 -64.9 -381.5 -34.9 -381.5 -34.9 -348.35 -37.0 -348.35 -37.0 -346.7 -29.45 -346.7 -29.45 -348.35 -31.6 -348.35 -31.6 -381.5 -1.6 -381.5 -1.6 -348.35 -3.7 -348.35 -3.7 -346.7 3.85 -346.7 3.85 -348.35 1.75 -348.35 1.75 -381.5 31.75 -381.5 31.75 -348.35 29.65 -348.35 29.65 -346.7 37.2 -346.7 37.2 -348.35 35.1 -348.35 35.1 -381.5 65.1 -381.5 65.1 -348.35 63.0 -348.35 63.0 -346.7 70.55 -346.7 70.55 -348.35 68.4 -348.35 68.4 -381.5 98.4 -381.5 98.4 -348.35 96.3 -348.35 96.3 -346.7 103.85 -346.7 103.85 -348.35 101.75 -348.35 101.75 -381.5 131.75 -381.5 131.75 -348.35 129.65 -348.35 129.65 -346.7 137.2 -346.7 137.2 -348.35 135.1 -348.35 135.1 -381.5 165.1 -381.5 165.1 -348.35 163.0 -348.35 163.0 -346.7 165.7 -346.7 206.3 -333.0 292.85 -333.0 333.65 -332.45 367.45 -326.7 365.8 -320.35 392.8 -313.4" fill="#707070" fill-rule="evenodd" stroke="none"/>
    <path d="M387.65 -287.0 L417.3 -276.0 468.0 -250.0 505.0 -218.35 535.65 -185.7 556.0 -156.7 570.65 -128.7 587.0 -89.0 599.3 -28.0 600.1 9.85 598.55 31.2 593.4 63.65 581.65 104.8 562.8 147.0 539.0 183.4 510.3 217.0 470.75 249.0 436.55 270.1 389.0 288.3 345.0 299.0 305.5 301.0 -291.0 301.0 -330.5 299.5 -389.45 289.4 -425.45 274.0 -458.35 256.3 -492.35 231.65 -515.7 210.3 -535.0 187.0 -554.35 159.65 -571.0 128.3 -583.0 99.0 -593.0 65.65 -600.35 21.0 -599.7 -23.0 -595.0 -53.0 -586.35 -86.35 -575.7 -117.7 -565.0 -139.7 -541.7 -175.7 -519.7 -203.7 -495.7 -227.0 -469.0 -247.0 -446.35 -261.0 -411.0 -279.0 -380.35 -287.7 -337.0 -297.0 -307.0 -302.0 295.0 -302.35 335.0 -298.35 387.65 -287.0" fill="#969696" fill-rule="evenodd" stroke="none"/>
    <path d="M304.6 -304.5 L331.65 -301.7 368.0 -294.85 401.9 -284.9 434.4 -271.1 465.1 -253.65 493.55 -232.7 519.4 -208.6 542.25 -181.7 561.85 -152.3 577.85 -120.8 590.15 -87.7 598.45 -53.35 602.75 -18.3 603.0 17.05 599.1 52.15 591.15 86.55 579.25 119.8 563.55 151.45 544.3 181.1 521.75 208.3 496.2 232.65 468.0 253.95 437.5 271.75 405.15 285.95 371.4 296.25 348.2 300.5 304.35 302.8 -330.0 302.7 -370.6 296.3 -404.45 285.95 -436.8 271.75 -467.3 253.95 -495.5 232.65 -521.05 208.3 -543.6 181.1 -562.85 151.45 -578.55 119.8 -590.4 86.55 -598.35 52.15 -602.25 17.05 -602.05 -18.3 -597.75 -53.35 -589.4 -87.7 -577.15 -120.8 -561.1 -152.3 -541.55 -181.7 -518.7 -208.6 -492.85 -232.7 -464.4 -253.65 -433.7 -271.1 -401.2 -284.9 -367.25 -294.85 -330.3 -300.75 -305.85 -304.2 -289.9 -305.0 284.2 -305.0 304.6 -304.5 M331.0 -296.6 L304.2 -299.5 284.15 -300.0 -289.7 -300.0 -305.2 -299.2 -330.85 -296.0 -366.15 -290.0 -399.5 -280.2 -431.5 -266.65 -461.65 -249.45 -489.65 -228.85 -515.05 -205.15 -537.55 -178.65 -556.8 -149.75 -572.55 -118.8 -584.65 -86.2 -592.85 -52.45 -597.05 -17.95 -597.25 16.75 -593.45 51.3 -585.6 85.15 -573.9 117.85 -558.5 149.0 -539.6 178.15 -517.4 204.85 -492.25 228.85 -464.5 249.75 -434.55 267.3 Q-418.6 274.3 -402.7 281.25 L-369.5 291.4 -329.6 297.7 304.2 297.8 347.6 295.5 370.2 291.4 403.4 281.25 Q419.35 274.3 435.25 267.3 L465.25 249.75 493.0 228.85 518.1 204.85 540.3 178.15 559.2 149.0 574.65 117.85 586.3 85.15 594.15 51.3 598.0 16.75 597.8 -17.95 593.55 -52.45 585.35 -86.2 573.25 -118.8 557.5 -149.75 538.25 -178.65 515.75 -205.15 490.35 -228.85 462.4 -249.45 432.2 -266.65 400.2 -280.2 366.9 -290.0 331.0 -296.6" fill="#828282" fill-rule="evenodd" stroke="none"/>
    <path d="M297.1 -143.35 L308.1 -132.1 318.15 -120.1 327.25 -107.45 335.3 -94.15 342.3 -80.3 348.2 -66.05 352.95 -51.35 356.55 -36.4 358.95 -21.25 360.15 -5.9 360.15 9.4 358.95 24.75 356.55 39.9 352.95 54.85 348.2 69.55 342.3 83.8 335.3 97.65 327.25 110.95 318.15 123.6 308.1 135.6 297.1 146.85 285.3 157.3 272.65 166.85 259.35 175.5 245.35 183.2 230.85 189.85 215.8 195.45 200.4 199.95 184.7 203.4 168.7 205.65 152.65 206.8 -154.85 206.8 -170.9 205.65 -186.85 203.4 -202.6 199.95 -218.0 195.45 -233.05 189.85 -247.55 183.2 -261.55 175.5 -274.85 166.85 -287.5 157.3 -299.3 146.85 -310.3 135.6 -320.35 123.6 -329.4 110.95 -337.5 97.65 -344.5 83.8 -350.4 69.55 -355.15 54.85 -358.75 39.9 -361.15 24.75 -362.35 9.4 -362.35 -5.9 -361.15 -21.25 -358.75 -36.4 -355.15 -51.35 -350.4 -66.05 -344.5 -80.3 -337.5 -94.15 -329.4 -107.45 -320.35 -120.1 -310.3 -132.1 -299.3 -143.35 -287.5 -153.8 -274.85 -163.35 -261.55 -172.0 -247.55 -179.7 -233.05 -186.35 -218.0 -191.95 -202.6 -196.45 -186.85 -199.9 -170.9 -202.2 -154.85 -203.3 152.65 -203.3 168.7 -202.2 184.7 -199.9 200.4 -196.45 215.8 -191.95 230.85 -186.35 245.35 -179.7 259.35 -172.0 272.65 -163.35 285.3 -153.8 297.1 -143.35" fill="#7f7f7f" fill-rule="evenodd" stroke="none"/>
    <path d="M371.0 -227.15 L362.05 -230.5 352.05 -232.2 342.4 -232.9 -349.8 -232.9 -359.4 -232.2 -369.45 -230.5 -378.35 -227.15 -386.8 -222.55 -394.55 -216.8 -401.45 -210.0 -407.35 -202.25 -412.1 -193.75 -415.7 -184.7 -417.35 -174.85 -418.35 -164.95 -418.35 -65.5 -416.8 -85.8 -411.2 -59.15 -407.0 -84.85 -403.6 -52.6 -390.95 -76.3 -395.3 -47.2 -379.35 -63.5 -389.55 -36.3 -372.25 -45.7 -385.8 -25.35 -369.65 -28.2 -383.1 -14.05 -366.8 -12.65 -381.6 -1.8 -366.1 4.35 -381.15 10.1 -365.3 21.25 -382.55 22.7 -368.9 37.8 -386.05 33.85 -374.15 52.25 -390.0 44.9 -381.55 67.2 -395.8 53.7 -392.6 79.4 -402.2 61.3 -403.45 100.6 -413.85 53.9 -417.2 51.2 -418.35 45.2 -418.35 170.55 -417.35 180.45 -415.7 190.3 -412.1 199.35 -407.35 207.85 -401.45 215.6 -394.55 222.4 -386.8 228.15 -378.35 232.75 -369.45 236.1 -359.4 237.85 -349.8 238.5 342.4 238.5 352.05 237.85 362.05 236.1 371.0 232.75 379.45 228.15 387.2 222.4 394.05 215.6 399.95 207.85 404.75 199.35 408.3 190.3 410.0 180.45 411.0 170.55 411.0 64.2 404.25 96.6 402.6 60.55 388.65 88.85 395.55 53.15 375.75 74.95 389.3 45.0 369.25 56.5 384.65 34.7 364.6 39.8 382.3 22.85 361.8 22.1 380.95 11.05 361.8 4.65 380.45 -1.8 361.95 -13.25 382.45 -13.6 363.85 -30.75 384.6 -25.95 369.1 -49.15 389.55 -35.9 377.3 -67.7 396.15 -45.85 389.1 -82.0 404.15 -49.75 405.0 -79.4 408.3 -79.6 412.0 -56.4 412.8 -63.35 411.0 -63.35 411.0 -164.95 410.0 -174.85 408.3 -184.7 404.75 -193.75 399.95 -202.25 394.05 -210.0 387.2 -216.8 379.45 -222.55 371.0 -227.15 M342.6 -236.25 L352.5 -235.5 362.95 -233.75 372.4 -230.2 381.35 -225.3 389.35 -219.35 396.65 -212.1 402.75 -204.1 407.8 -195.05 411.55 -185.6 413.3 -175.2 414.3 -165.05 414.3 -74.2 419.9 -74.15 419.9 -38.7 426.0 -38.7 426.0 -35.35 416.65 -35.35 415.35 -56.15 412.6 -31.65 407.8 -61.5 407.1 -35.6 397.55 -56.05 401.8 -34.2 387.3 -51.0 396.4 -27.5 380.85 -37.55 392.05 -20.8 375.4 -24.65 390.85 -10.45 373.35 -10.1 388.15 -0.95 372.15 4.6 389.0 10.25 373.5 19.2 390.3 19.8 376.05 33.45 392.6 29.25 380.7 46.1 396.65 36.95 387.55 57.0 401.05 42.1 396.65 65.1 405.35 47.4 406.35 70.05 410.75 49.1 414.2 50.35 415.8 34.05 424.55 33.65 424.7 36.95 418.85 37.25 418.85 53.95 414.3 53.95 414.3 170.75 413.3 180.95 411.55 191.2 407.7 200.9 402.75 209.7 396.5 217.85 389.35 224.95 381.15 231.05 372.3 235.85 362.95 239.35 352.35 241.15 342.55 241.85 -349.95 241.85 -359.9 241.1 -370.3 239.35 -379.75 235.8 -388.7 230.9 -396.75 224.95 -404.0 217.7 -410.1 209.7 -415.2 200.65 -418.9 191.2 -420.65 180.8 -421.7 170.65 -421.7 37.35 -416.45 37.35 -414.15 49.4 -410.85 52.05 -405.95 74.05 -405.15 48.65 -398.15 61.85 -400.25 44.9 -389.85 54.75 -396.05 38.4 -383.25 44.35 -393.3 28.75 -378.45 32.15 -389.5 19.95 -374.75 18.7 -388.2 9.2 -375.3 4.3 -388.45 -0.9 -375.9 -10.1 -390.3 -11.35 -379.05 -23.15 -392.9 -20.7 -382.5 -36.35 -395.8 -29.1 -388.05 -49.85 -400.1 -37.5 -397.1 -57.75 -405.8 -41.45 -407.7 -59.85 -410.85 -40.9 -415.25 -62.25 -417.1 -38.8 -418.35 -37.9 -418.35 -35.25 -421.7 -35.25 -421.7 -165.15 -420.65 -175.35 -418.9 -185.6 -415.1 -195.25 -410.1 -204.1 -403.85 -212.25 -396.75 -219.35 -388.5 -225.45 -379.75 -230.2 -370.3 -233.75 -359.75 -235.55 -349.85 -236.25 342.6 -236.25" fill="#7f7f7f" fill-rule="evenodd" stroke="none"/>
    <path d="M339.0 -279.25 L363.2 -274.35 383.2 -268.8 418.85 -253.35 437.3 -242.35 453.0 -232.35 469.0 -220.7 487.3 -204.35 501.3 -189.7 515.3 -172.0 528.0 -154.7 538.0 -140.15 547.8 -121.45 556.2 -102.05 563.25 -82.05 568.85 -61.55 572.95 -40.7 575.6 -19.55 576.75 1.7 576.35 23.0 574.45 44.25 571.1 65.25 558.65 104.75 550.9 124.5 530.55 159.3 518.85 176.8 505.9 193.3 491.85 208.75 476.75 223.1 460.65 236.25 443.7 248.15 425.95 258.7 407.45 267.85 350.0 291.0 338.3 295.0 285.65 293.65 253.0 291.65 246.0 289.65 244.2 288.1 243.0 285.3 243.2 281.4 244.3 279.0 249.0 273.65 255.0 269.3 263.0 265.65 271.0 262.65 312.0 249.3 321.3 244.3 338.0 236.65 375.0 221.3 391.65 213.0 408.0 201.65 454.3 156.3 465.3 146.65 475.0 133.65 483.3 116.3 488.0 102.3 507.6 66.55 512.25 48.2 515.5 29.55 517.3 10.75 517.65 -8.15 516.55 -27.0 514.05 -45.75 504.05 -78.4 497.35 -96.15 489.3 -113.35 479.95 -129.95 469.4 -145.8 457.65 -160.9 444.75 -175.1 430.85 -188.3 415.65 -203.7 400.9 -215.6 384.3 -225.55 366.3 -233.0 329.95 -246.65 314.75 -252.8 249.35 -276.5 245.45 -278.4 240.75 -281.45 235.3 -286.35 232.05 -294.05 232.55 -295.7 233.1 -296.1 233.95 -296.3 248.5 -295.5 301.0 -289.0 319.0 -285.0 339.0 -279.25" fill="#707070" fill-rule="evenodd" stroke="none"/>
    <path d="M-341.95 -287.85 L-339.05 -288.45 -270.0 -294.5 -249.5 -295.5 -241.45 -295.05 -239.6 -294.05 -238.0 -290.0 -238.0 -284.0 -240.0 -278.0 -243.0 -272.5 -247.0 -268.5 -253.5 -263.5 -278.5 -255.0 -315.25 -244.6 -338.8 -233.0 -361.0 -223.45 -376.35 -216.35 -393.95 -206.35 -410.8 -193.9 -416.15 -187.0 -439.7 -167.9 -457.0 -150.6 -469.0 -139.7 -479.7 -126.6 -491.25 -105.9 -503.45 -75.0 -509.9 -59.9 -514.55 -41.55 -516.8 -24.15 -515.7 2.1 -516.8 35.4 -516.35 52.35 -512.35 69.85 -499.65 102.8 -491.6 120.0 -482.25 136.6 -471.7 152.45 -446.8 184.3 -432.6 197.0 -415.0 210.55 -398.6 220.55 -384.8 231.4 -368.6 239.65 -351.95 245.9 -315.7 258.3 -279.7 271.65 -252.0 282.65 -246.7 285.65 -238.0 292.65 -236.35 294.65 -235.85 295.75 -236.0 296.55 -236.7 296.8 -246.35 297.65 -276.7 296.3 -304.7 293.65 -321.5 290.0 -338.5 285.65 -365.0 280.3 -384.1 274.25 -400.8 267.8 -419.55 259.4 -438.0 248.4 -453.7 238.4 -469.7 226.75 -488.0 210.4 -502.0 195.75 -516.0 178.1 -528.7 160.75 -538.7 146.2 -558.5 108.7 -565.55 88.65 -571.15 68.2 -575.25 47.3 -577.9 26.2 -579.05 4.9 -578.65 -16.4 -576.75 -37.6 -573.4 -58.6 -560.95 -98.1 -553.2 -117.85 -532.85 -152.7 -521.15 -170.15 -508.2 -186.65 -494.15 -202.15 -479.05 -216.5 -462.95 -229.65 -446.0 -241.5 -428.25 -252.05 -409.75 -261.2 -352.3 -284.35 -341.95 -287.85" fill="#707070" fill-rule="evenodd" stroke="none"/>
    <path d="M412.25 61.95 L412.65 60.25 413.85 59.05 415.55 58.55 417.2 59.0 418.45 60.2 418.9 61.9 418.45 63.55 417.25 64.8 415.6 65.25 413.9 64.8 412.7 63.6 412.25 61.95" fill="#707070" fill-rule="evenodd" stroke="none"/>
    <path d="M418.1 -63.45 L419.3 -62.25 419.8 -60.55 419.35 -58.9 418.15 -57.65 416.5 -57.2 414.8 -57.65 413.6 -58.85 413.1 -60.5 413.55 -62.2 414.75 -63.4 416.4 -63.85 418.1 -63.45" fill="#707070" fill-rule="evenodd" stroke="none"/>
    <path d="M481.65 -43.45 L482.3 -41.45 482.3 -34.35 481.4 -32.45 493.0 -18.35 496.55 3.0 493.2 20.75 482.05 32.55 482.5 33.15 482.5 45.8 470.65 51.3 468.5 50.5 461.8 42.8 460.8 38.65 461.5 37.0 458.8 36.45 460.55 51.75 459.2 55.55 456.1 58.4 425.2 58.0 421.85 55.55 421.85 53.7 421.25 54.35 419.6 54.8 417.9 54.35 416.7 53.15 416.25 51.5 416.65 49.8 417.85 48.6 419.55 48.15 421.2 48.55 421.85 49.2 421.85 32.2 456.35 32.2 457.3 29.65 458.65 29.65 464.55 30.9 465.5 29.65 468.65 27.5 471.5 27.3 478.2 28.45 488.1 17.85 491.4 1.85 487.4 -15.7 475.5 -27.25 474.75 -26.8 471.85 -26.6 468.55 -28.9 458.75 -26.6 457.2 -27.45 456.8 -30.6 421.85 -30.6 421.85 -46.05 420.5 -45.65 418.8 -46.1 417.6 -47.3 417.1 -48.95 417.55 -50.65 418.75 -51.85 420.4 -52.3 421.85 -51.95 421.85 -53.9 425.2 -56.35 456.1 -56.8 459.2 -53.9 460.55 -50.15 458.7 -34.0 460.1 -33.7 463.45 -34.4 463.65 -41.45 467.65 -43.45 481.65 -43.45" fill="#707070" fill-rule="evenodd" stroke="none"/>
    <path d="M466.3 -10.6 L467.2 -16.8 469.4 -19.9 474.3 -18.6 473.85 -6.6 474.55 -0.6 475.85 5.85 478.75 15.65 471.65 19.4 467.4 3.2 466.3 -4.6 466.3 -10.6" fill="#707070" fill-rule="evenodd" stroke="none"/>
    <path d="M-417.2 70.3 L-418.4 69.05 -418.85 67.4 -418.35 65.75 -417.15 64.5 -415.45 64.1 -413.8 64.55 -412.6 65.75 -412.15 67.45 -412.65 69.1 -413.85 70.3 -415.5 70.75 -417.2 70.3" fill="#707070" fill-rule="evenodd" stroke="none"/>
    <path d="M-416.05 -60.25 L-415.6 -61.9 -414.4 -63.1 -412.7 -63.55 -411.05 -63.05 -409.85 -61.85 -409.4 -60.15 -409.85 -58.5 -411.1 -57.3 -412.75 -56.85 -414.45 -57.35 -415.65 -58.55 -416.05 -60.25" fill="#707070" fill-rule="evenodd" stroke="none"/>
    <path d="M-490.45 -18.0 L-484.05 -25.1 -485.2 -29.35 -484.75 -36.2 -482.7 -40.25 -471.75 -45.95 -465.25 -41.6 -461.35 -35.45 -456.45 -34.1 -455.95 -34.1 -456.8 -49.8 -455.5 -53.55 -452.4 -56.45 -421.5 -56.0 -418.15 -53.55 -418.15 -51.6 -416.7 -51.95 -415.05 -51.5 -413.85 -50.3 -413.4 -48.6 -413.85 -46.95 -415.1 -45.75 -416.75 -45.3 -418.15 -45.7 -418.15 -30.25 -453.1 -30.25 -453.5 -27.15 -454.85 -26.7 -464.25 -29.2 -466.75 -25.45 -468.0 -24.15 -464.45 -22.8 -463.7 -18.6 -464.45 -7.35 -466.15 1.55 -470.25 13.65 -475.25 23.2 -481.9 18.65 -476.0 6.65 -472.8 -6.7 -472.0 -13.45 -472.35 -21.95 -478.25 -21.95 -484.45 -15.15 -487.7 2.2 -484.0 17.2 -472.75 28.0 -468.1 27.3 -465.25 27.5 -462.1 29.65 -461.15 30.9 -455.25 29.65 -453.95 29.65 -452.95 32.2 -418.15 32.55 -418.15 49.55 -417.5 48.9 -415.8 48.45 -414.15 48.95 -412.95 50.15 -412.5 51.85 -413.0 53.5 -414.2 54.7 -415.9 55.15 -417.55 54.65 -418.15 54.05 -418.15 55.85 -421.5 58.3 -452.7 58.45 -455.8 55.55 -457.15 51.75 -455.4 36.45 -458.15 37.0 -457.45 38.65 -458.35 43.0 -460.9 44.55 -466.8 45.4 -475.7 45.3 -476.45 43.4 -477.35 35.0 -478.7 32.55 -489.5 21.1 -492.8 3.3 -490.45 -18.0" fill="#707070" fill-rule="evenodd" stroke="none"/>
    <path d="M121.85 97.0 L124.3 101.65 125.0 107.4 93.0 124.55 89.4 121.65 88.55 120.1 87.4 117.2 86.3 111.65 86.55 104.3 111.2 91.0 115.2 92.55 118.75 94.55 121.85 97.0" fill="#707070" fill-rule="evenodd" stroke="none"/>
    <path d="M168.65 188.3 L172.15 193.15 174.0 198.15 174.0 208.65 149.15 221.15 140.15 215.15 137.65 211.8 136.15 205.5 168.65 188.3" fill="#707070" fill-rule="evenodd" stroke="none"/>
    <path d="M-123.9 -131.0 L-113.7 -116.6 -113.0 -112.15 -113.45 -108.8 -115.0 -107.25 -144.35 -91.7 -147.9 -93.45 -150.35 -97.25 -157.9 -112.15 -123.9 -131.0" fill="#707070" fill-rule="evenodd" stroke="none"/>
    <path d="M-177.45 -212.6 L-175.0 -213.0 -172.15 -212.35 -168.6 -210.15 -160.15 -191.45 -192.6 -172.6 -205.0 -190.15 -205.9 -191.7 -205.45 -194.35 -204.8 -196.15 -203.45 -197.7 -177.45 -212.6" fill="#707070" fill-rule="evenodd" stroke="none"/>
    <path d="M226.35 -188.8 L232.9 -187.55 238.7 -185.65 243.8 -183.1 247.95 -179.9 251.2 -176.2 253.45 -171.95 254.65 -167.35 254.75 -162.4 253.75 -157.25 251.75 -151.95 248.7 -146.6 244.7 -141.35 239.8 -136.25 234.1 -131.4 227.75 -126.9 220.75 -122.8 213.35 -119.25 205.65 -116.3 197.8 -113.95 189.9 -112.3 182.2 -111.3 174.7 -111.1 167.65 -111.55 161.15 -112.75 155.3 -114.65 150.25 -117.25 146.05 -120.4 142.8 -124.15 140.55 -128.35 139.4 -133.0 139.3 -137.95 140.25 -143.1 142.25 -148.4 145.3 -153.75 149.3 -159.0 154.2 -164.1 159.9 -168.95 166.3 -173.45 173.25 -177.5 180.65 -181.05 188.35 -184.05 196.2 -186.4 204.1 -188.05 211.85 -189.0 219.3 -189.25 226.35 -188.8" fill="#707070" fill-rule="evenodd" stroke="none"/>
    <path d="M-186.7 184.1 L-185.95 178.8 -184.2 173.35 -181.5 167.95 -177.8 162.6 -173.3 157.5 -168.0 152.7 -162.05 148.25 -155.5 144.3 -148.55 140.85 -115.25 126.0 -107.8 123.85 -100.3 122.4 -92.9 121.65 -85.75 121.7 -78.95 122.45 -72.65 123.9 -67.0 126.1 -62.05 128.9 -57.9 132.35 -54.65 136.35 -52.4 140.8 -51.1 145.6 -50.8 150.75 -51.55 156.05 -53.3 161.5 -56.05 166.9 -59.7 172.25 -64.2 177.35 -69.5 182.15 -75.5 186.6 -82.0 190.55 -122.25 208.85 -129.75 211.0 -137.25 212.45 -144.65 213.2 -151.8 213.15 -158.6 212.4 -164.85 210.95 -170.55 208.75 -175.5 205.95 -179.6 202.5 -182.85 198.5 -185.15 194.05 -186.45 189.25 -186.7 184.1" fill="#707070" fill-rule="evenodd" stroke="none"/>
  </g>
</svg>
