<?xml version="1.0" encoding="UTF-8" standalone="no"?>
<svg xmlns:ffdec="https://www.free-decompiler.com/flash" xmlns:xlink="http://www.w3.org/1999/xlink" ffdec:objectType="shape" height="1060.0px" width="1666.65px" xmlns="http://www.w3.org/2000/svg">
  <g transform="matrix(1.0, 0.0, 0.0, 1.0, 834.15, 531.0)">
    <path d="M603.2 -443.05 L650.55 -406.5 693.5 -364.45 731.5 -317.5 764.1 -266.2 790.75 -211.25 811.15 -153.45 825.05 -93.6 832.2 -32.4 832.5 29.2 826.05 90.5 812.8 150.55 793.05 208.55 766.95 263.8 734.95 315.5 697.45 362.9 654.95 405.5 608.05 442.55 557.3 473.7 503.5 498.4 447.3 516.45 399.95 525.5 370.65 528.5 330.9 529.0 -333.5 529.0 -370.65 528.55 -402.15 525.4 -448.95 516.45 -505.15 498.4 -558.95 473.7 -609.65 442.55 -656.6 405.5 -699.1 362.9 -736.6 315.5 -768.6 263.8 -794.65 208.55 -814.45 150.55 -827.65 90.5 -834.15 29.2 -833.8 -32.4 -826.65 -93.6 -812.8 -153.45 -792.35 -211.25 -765.7 -266.2 -733.15 -317.5 -695.1 -364.45 -652.15 -406.5 -604.85 -443.05 -553.8 -473.55 -499.7 -497.6 -443.3 -514.95 -390.4 -524.4 -333.8 -531.0 332.15 -531.0 388.8 -524.4 441.7 -514.95 498.05 -497.6 552.15 -473.55 603.2 -443.05" fill="#707070" fill-rule="evenodd" stroke="none"/>
    <path d="M524.55 -428.95 L573.05 -401.35 618.0 -368.25 658.8 -330.2 694.95 -287.6 725.9 -241.15 751.2 -191.45 770.6 -139.1 783.8 -84.85 790.6 -29.45 790.9 26.35 784.75 81.85 772.2 136.25 753.4 188.8 728.65 238.8 698.2 285.65 662.6 328.6 622.2 367.15 577.6 400.7 529.45 428.9 478.3 451.3 424.95 467.6 371.0 477.45 361.65 478.45 314.3 479.0 -316.9 479.0 -360.95 478.5 -374.0 477.2 -426.55 467.6 -479.95 451.3 -531.05 428.9 -579.25 400.7 -623.85 367.15 -664.2 328.6 -699.85 285.65 -730.25 238.8 -755.0 188.8 -773.8 136.25 -786.35 81.85 -792.55 26.35 -792.2 -29.45 -785.4 -84.85 -772.25 -139.1 -752.85 -191.45 -727.5 -241.15 -696.55 -287.6 -660.45 -330.2 -619.65 -368.25 -574.65 -401.35 -526.15 -428.95 -474.8 -450.75 -421.25 -466.5 -375.05 -474.35 -366.25 -476.75 -317.15 -494.65 -217.35 -514.7 216.0 -514.7 315.55 -494.65 363.55 -477.15 373.85 -474.25 419.6 -466.5 473.15 -450.75 524.55 -428.95" fill="#434343" fill-rule="evenodd" stroke="none"/>
    <path d="M392.8 -313.4 L394.35 -319.45 410.25 -314.8 446.15 -299.55 474.6 -283.35 471.2 -278.5 494.05 -262.55 497.45 -267.45 511.5 -257.1 516.9 -252.05 510.15 -245.55 511.8 -243.85 519.7 -251.35 519.7 -251.4 539.5 -271.2 571.25 -239.45 543.9 -212.3 545.55 -210.65 551.8 -216.6 560.6 -206.25 556.1 -202.95 572.75 -180.6 576.7 -183.55 586.85 -168.3 604.6 -133.55 615.3 -104.65 610.65 -103.6 616.8 -76.45 622.8 -77.8 627.35 -59.05 632.1 -20.35 632.3 15.7 628.0 54.45 625.0 67.45 618.95 66.05 612.75 93.2 618.5 94.5 606.1 129.2 588.8 164.2 582.0 174.6 578.35 171.9 561.75 194.2 566.7 197.9 551.35 216.4 545.8 211.1 544.15 212.75 553.6 221.95 553.6 221.85 571.25 239.5 539.5 271.25 518.35 250.1 518.25 250.2 512.05 244.3 510.4 246.0 516.5 251.9 514.4 253.85 505.8 260.35 503.0 256.35 480.15 272.25 483.5 277.1 483.25 277.35 449.6 297.05 413.85 312.7 403.65 315.8 402.25 310.35 375.25 317.3 376.95 323.95 375.85 324.3 336.5 329.95 299.25 330.35 206.3 330.35 165.7 346.65 163.0 346.65 163.0 348.15 165.1 348.15 165.1 381.3 135.1 381.3 135.1 348.15 137.2 348.15 137.2 346.65 129.65 346.65 129.65 348.15 131.75 348.15 131.75 381.3 101.75 381.3 101.75 348.15 103.85 348.15 103.85 346.65 96.3 346.65 96.3 348.15 98.4 348.15 98.4 381.3 68.4 381.3 68.4 348.15 70.55 348.15 70.55 346.65 63.0 346.65 63.0 348.15 65.1 348.15 65.1 381.3 35.1 381.3 35.1 348.15 37.2 348.15 37.2 346.65 29.65 346.65 29.65 348.15 31.75 348.15 31.75 381.3 1.75 381.3 1.75 348.15 3.85 348.15 3.85 346.65 -3.7 346.65 -3.7 348.15 -1.6 348.15 -1.6 381.3 -31.6 381.3 -31.6 348.15 -29.45 348.15 -29.45 346.65 -37.0 346.65 -37.0 348.15 -34.9 348.15 -34.9 381.3 -64.9 381.3 -64.9 348.15 -62.8 348.15 -62.8 346.65 -70.35 346.65 -70.35 348.15 -68.25 348.15 -68.25 381.3 -98.25 381.3 -98.25 348.15 -96.15 348.15 -96.15 346.65 -103.7 346.65 -103.7 348.15 -101.6 348.15 -101.6 381.3 -131.6 381.3 -131.6 348.15 -129.45 348.15 -129.45 346.65 -137.0 346.65 -137.0 348.15 -134.9 348.15 -134.9 381.3 -164.9 381.3 -164.9 348.15 -162.8 348.15 -162.8 346.65 -166.7 346.65 -205.0 330.35 -301.05 330.35 -338.15 329.95 -367.0 325.8 -365.4 319.65 -392.4 312.7 -394.1 319.2 -415.45 312.7 -451.2 297.05 -474.7 283.25 -470.55 277.25 -493.35 261.35 -497.75 267.6 -516.05 253.85 -517.05 252.9 -509.85 245.85 -511.5 244.2 -518.85 251.2 -519.15 250.85 -539.55 271.25 -571.3 239.5 -553.1 221.25 -553.05 221.85 -543.6 212.65 -545.25 211.0 -552.1 217.5 -561.75 205.8 -555.9 201.45 -572.55 179.1 -578.05 183.2 -590.4 164.2 -607.7 129.2 -616.8 103.75 -610.05 102.2 -616.2 75.05 -624.45 76.95 -629.65 54.45 -633.95 15.7 -633.7 -20.35 -628.95 -59.05 -626.9 -67.55 -619.65 -65.9 -613.5 -93.05 -620.35 -94.6 -619.75 -96.95 -606.2 -133.55 -588.5 -168.3 -583.85 -175.25 -578.1 -170.95 -561.45 -193.25 -568.4 -198.45 -566.9 -200.75 -552.75 -217.4 -545.5 -210.55 -543.85 -212.2 -571.3 -239.45 -539.55 -271.2 -519.65 -251.3 -519.65 -251.25 -511.75 -243.75 -510.1 -245.4 -517.7 -252.8 -513.1 -257.1 -506.5 -261.95 -502.35 -256.05 -479.55 -272.0 -484.05 -278.5 -481.65 -280.25 -447.8 -299.55 -411.85 -314.8 -404.7 -316.9 -402.95 -310.2 -376.0 -317.1 -377.95 -324.75 -374.45 -325.75 -335.3 -332.45 -293.95 -333.0 -205.0 -333.0 -166.7 -346.7 -162.8 -346.7 -162.8 -348.35 -164.9 -348.35 -164.9 -381.5 -134.9 -381.5 -134.9 -348.35 -137.0 -348.35 -137.0 -346.7 -129.45 -346.7 -129.45 -348.35 -131.6 -348.35 -131.6 -381.5 -101.6 -381.5 -101.6 -348.35 -103.7 -348.35 -103.7 -346.7 -96.15 -346.7 -96.15 -348.35 -98.25 -348.35 -98.25 -381.5 -68.25 -381.5 -68.25 -348.35 -70.35 -348.35 -70.35 -346.7 -62.8 -346.7 -62.8 -348.35 -64.9 -348.35 -64.9 -381.5 -34.9 -381.5 -34.9 -348.35 -37.0 -348.35 -37.0 -346.7 -29.45 -346.7 -29.45 -348.35 -31.6 -348.35 -31.6 -381.5 -1.6 -381.5 -1.6 -348.35 -3.7 -348.35 -3.7 -346.7 3.85 -346.7 3.85 -348.35 1.75 -348.35 1.75 -381.5 31.75 -381.5 31.75 -348.35 29.65 -348.35 29.65 -346.7 37.2 -346.7 37.2 -348.35 35.1 -348.35 35.1 -381.5 65.1 -381.5 65.1 -348.35 63.0 -348.35 63.0 -346.7 70.55 -346.7 70.55 -348.35 68.4 -348.35 68.4 -381.5 98.4 -381.5 98.4 -348.35 96.3 -348.35 96.3 -346.7 103.85 -346.7 103.85 -348.35 101.75 -348.35 101.75 -381.5 131.75 -381.5 131.75 -348.35 129.65 -348.35 129.65 -346.7 137.2 -346.7 137.2 -348.35 135.1 -348.35 135.1 -381.5 165.1 -381.5 165.1 -348.35 163.0 -348.35 163.0 -346.7 165.7 -346.7 206.3 -333.0 292.85 -333.0 333.65 -332.45 367.45 -326.7 365.8 -320.35 392.8 -313.4" fill="#707070" fill-rule="evenodd" stroke="none"/>
    <path d="M387.65 -287.0 L417.3 -276.0 468.0 -250.0 505.0 -218.35 535.65 -185.7 556.0 -156.7 570.65 -128.7 587.0 -89.0 599.3 -28.0 600.1 9.85 598.55 31.2 593.4 63.65 581.65 104.8 562.8 147.0 539.0 183.4 510.3 217.0 470.75 249.0 436.55 270.1 389.0 288.3 345.0 299.0 305.5 301.0 -291.0 301.0 -330.5 299.5 -389.45 289.4 -425.45 274.0 -458.35 256.3 -492.35 231.65 -515.7 210.3 -535.0 187.0 -554.35 159.65 -571.0 128.3 -583.0 99.0 -593.0 65.65 -600.35 21.0 -599.7 -23.0 -595.0 -53.0 -586.35 -86.35 -575.7 -117.7 -565.0 -139.7 -541.7 -175.7 -519.7 -203.7 -495.7 -227.0 -469.0 -247.0 -446.35 -261.0 -411.0 -279.0 -380.35 -287.7 -337.0 -297.0 -307.0 -302.0 295.0 -302.35 335.0 -298.35 387.65 -287.0" fill="#969696" fill-rule="evenodd" stroke="none"/>
    <path d="M331.0 -296.6 L304.2 -299.5 284.15 -300.0 -289.7 -300.0 -305.2 -299.2 -330.85 -296.0 -366.15 -290.0 -399.5 -280.2 -431.5 -266.65 -461.65 -249.45 -489.65 -228.85 -515.05 -205.15 -537.55 -178.65 -556.8 -149.75 -572.55 -118.8 -584.65 -86.2 -592.85 -52.45 -597.05 -17.95 -597.25 16.75 -593.45 51.3 -585.6 85.15 -573.9 117.85 -558.5 149.0 -539.6 178.15 -517.4 204.85 -492.25 228.85 -464.5 249.75 -434.55 267.3 Q-418.6 274.3 -402.7 281.25 L-369.5 291.4 -329.6 297.7 304.2 297.8 347.6 295.5 370.2 291.4 403.4 281.25 Q419.35 274.3 435.25 267.3 L465.25 249.75 493.0 228.85 518.1 204.85 540.3 178.15 559.2 149.0 574.65 117.85 586.3 85.15 594.15 51.3 598.0 16.75 597.8 -17.95 593.55 -52.45 585.35 -86.2 573.25 -118.8 557.5 -149.75 538.25 -178.65 515.75 -205.15 490.35 -228.85 462.4 -249.45 432.2 -266.65 400.2 -280.2 366.9 -290.0 331.0 -296.6 M304.6 -304.5 L331.65 -301.7 368.0 -294.85 401.9 -284.9 434.4 -271.1 465.1 -253.65 493.55 -232.7 519.4 -208.6 542.25 -181.7 561.85 -152.3 577.85 -120.8 590.15 -87.7 598.45 -53.35 602.75 -18.3 603.0 17.05 599.1 52.15 591.15 86.55 579.25 119.8 563.55 151.45 544.3 181.1 521.75 208.3 496.2 232.65 468.0 253.95 437.5 271.75 405.15 285.95 371.4 296.25 348.2 300.5 304.35 302.8 -330.0 302.7 -370.6 296.3 -404.45 285.95 -436.8 271.75 -467.3 253.95 -495.5 232.65 -521.05 208.3 -543.6 181.1 -562.85 151.45 -578.55 119.8 -590.4 86.55 -598.35 52.15 -602.25 17.05 -602.05 -18.3 -597.75 -53.35 -589.4 -87.7 -577.15 -120.8 -561.1 -152.3 -541.55 -181.7 -518.7 -208.6 -492.85 -232.7 -464.4 -253.65 -433.7 -271.1 -401.2 -284.9 -367.25 -294.85 -330.3 -300.75 -305.85 -304.2 -289.9 -305.0 284.2 -305.0 304.6 -304.5" fill="#828282" fill-rule="evenodd" stroke="none"/>
    <path d="M179.25 285.4 L189.35 300.9 189.05 301.3 -3.4 301.65 -3.8 301.45 -6.5 296.3 -6.6 295.7 -6.3 294.95 -5.35 293.65 -4.25 292.85 -2.5 292.5 169.0 284.0 178.7 284.95 179.25 285.4" fill="#434343" fill-rule="evenodd" stroke="none"/>
    <path d="M-114.1 -242.45 L-114.3 -242.65 -114.0 -244.7 -112.7 -246.5 -111.35 -247.35 60.3 -301.7 62.65 -302.0 66.3 -301.75 67.7 -301.2 70.55 -297.6 70.1 -296.75 -114.1 -242.45" fill="#434343" fill-rule="evenodd" stroke="none"/>
    <path d="M-174.0 -284.0 L-177.7 -285.0 -180.35 -287.0 -189.4 -301.2 -189.25 -301.7 3.5 -301.7 4.2 -301.35 7.05 -296.75 7.0 -296.0 5.65 -294.35 3.3 -293.0 -1.0 -292.35 -174.0 -284.0" fill="#434343" fill-rule="evenodd" stroke="none"/>
    <path d="M-57.25 301.65 L-62.65 302.85 -64.6 303.0 -65.7 302.7 -66.8 302.1 -70.95 297.1 -70.8 296.65 111.0 243.2 112.1 243.15 113.0 243.4 113.15 244.15 113.05 244.5 112.75 244.9 108.9 248.2 108.35 248.45 -57.25 301.65" fill="#434343" fill-rule="evenodd" stroke="none"/>
    <path d="M7.45 171.7 L-8.2 160.2 -17.25 151.0 -27.25 138.55 -30.8 138.0 -37.1 129.5 -42.7 120.5 -47.6 111.1 -51.7 101.35 -56.45 81.9 -58.2 71.4 -59.1 60.8 -59.2 50.15 -58.45 39.5 -56.9 28.9 -54.5 18.5 -53.8 16.45 -53.4 16.2 -52.4 16.45 -52.2 16.85 -52.0 23.8 -52.75 43.5 -52.6 53.9 -51.65 64.25 -46.8 84.7 -43.5 94.55 -35.25 110.85 -29.7 119.65 -23.55 127.95 -9.7 143.65 -0.6 152.95 6.3 158.65 26.0 171.35 35.65 175.25 45.55 178.45 55.65 180.8 65.95 182.4 76.3 183.2 96.15 181.3 108.15 178.8 117.5 176.0 136.45 168.15 146.3 162.5 154.4 156.3 163.4 147.65 171.45 140.95 185.65 124.25 191.9 115.9 197.5 107.05 202.45 97.85 212.7 80.75 213.4 80.3 216.55 80.3 216.85 80.7 216.95 82.2 216.8 83.3 213.4 92.85 209.05 102.7 203.95 112.15 198.15 121.2 183.75 138.85 176.65 146.95 168.95 154.45 160.65 161.35 151.9 167.6 142.7 173.2 133.1 178.05 123.15 182.15 112.95 185.45 102.5 188.0 91.9 189.7 81.25 190.6 70.55 190.7 59.9 189.95 49.4 188.35 39.0 186.0 28.85 182.8 19.0 178.85 7.45 171.7" fill="#434343" fill-rule="evenodd" stroke="none"/>
    <path d="M-11.35 -174.0 L-1.95 -166.6 6.8 -160.5 16.05 -151.35 26.2 -139.1 26.6 -138.9 29.7 -138.45 30.1 -138.2 36.4 -129.95 42.2 -120.95 47.25 -111.55 51.6 -101.8 56.75 -82.25 58.7 -71.75 59.8 -61.1 60.1 -50.35 59.55 -39.65 58.2 -29.0 56.0 -18.5 55.2 -16.15 53.7 -16.45 53.4 -23.85 53.75 -43.65 53.4 -54.1 52.25 -64.5 47.0 -85.0 43.5 -94.9 34.85 -111.15 29.15 -119.95 22.8 -128.3 8.15 -145.5 -9.5 -160.5 -18.0 -166.5 -37.7 -176.2 -47.7 -179.25 -57.9 -181.55 -68.25 -183.1 -78.5 -182.85 -98.4 -180.75 -110.4 -178.15 -119.7 -175.2 -138.65 -167.15 -148.4 -161.35 -156.4 -155.05 -165.3 -146.3 -173.2 -139.45 -187.15 -122.55 -193.3 -114.1 -198.75 -105.15 -203.5 -95.85 -213.75 -78.1 -217.25 -77.9 -217.6 -78.1 -217.8 -79.95 -217.75 -81.0 -215.35 -90.7 -211.35 -100.35 -200.5 -118.85 -193.85 -128.35 -185.55 -137.25 -178.55 -145.45 -170.95 -153.05 -162.8 -160.1 -154.1 -166.45 -134.55 -178.7 -124.65 -182.95 -114.45 -186.35 -104.05 -189.0 -93.45 -190.85 -82.75 -191.85 -72.0 -192.0 -61.3 -191.35 -50.7 -189.9 -29.7 -183.2 -11.35 -174.0" fill="#434343" fill-rule="evenodd" stroke="none"/>
    <path d="M309.9 -164.25 L313.05 -170.4 313.65 -170.7 314.6 -165.5 314.4 -164.1 307.6 -150.75 304.6 -143.35 301.1 -136.25 297.15 -129.5 292.65 -123.05 287.75 -117.0 282.4 -111.4 276.65 -106.25 270.55 -101.55 264.15 -97.4 257.45 -93.8 250.5 -90.8 243.4 -88.35 236.1 -86.5 228.7 -85.25 221.25 -84.65 213.75 -84.65 206.3 -85.25 198.9 -86.5 191.6 -88.35 184.45 -90.8 177.55 -93.8 170.85 -97.4 164.45 -101.55 158.35 -106.25 152.6 -111.4 147.25 -117.0 142.3 -123.05 137.85 -129.5 133.85 -136.25 130.35 -143.35 127.4 -150.75 125.0 -158.3 123.1 -166.1 121.8 -174.0 119.55 -198.5 119.7 -199.2 122.25 -201.7 122.6 -201.4 123.85 -194.1 125.8 -186.3 128.35 -178.75 131.45 -171.35 135.1 -164.25 139.25 -157.5 143.95 -151.05 149.1 -145.0 154.65 -139.4 160.65 -134.25 167.05 -129.55 179.15 -122.95 186.4 -119.95 193.85 -117.5 201.5 -115.65 209.2 -114.4 217.0 -113.8 224.85 -113.8 232.65 -114.4 240.4 -115.65 248.0 -117.5 255.45 -119.95 272.0 -127.0 284.3 -134.25 290.3 -139.4 295.9 -145.0 301.05 -151.05 305.75 -157.5 309.9 -164.25" fill="#434343" fill-rule="evenodd" stroke="none"/>
    <path d="M-242.35 87.85 L-235.05 86.05 -227.65 84.85 -220.15 84.3 -212.7 84.4 -205.2 85.05 -197.85 86.35 -190.55 88.3 -183.45 90.8 -176.55 93.9 -169.9 97.55 -163.5 101.75 -157.45 106.45 -151.75 111.65 -146.45 117.3 -141.6 123.4 -137.15 129.9 -133.25 136.7 -129.8 143.85 -126.9 151.2 -124.55 158.85 -122.75 166.6 -121.5 174.5 -119.45 199.1 -119.75 199.85 -122.15 202.25 -122.5 202.05 -123.75 194.6 -125.6 186.8 -128.1 179.2 -131.1 171.8 -134.7 164.7 -138.8 157.85 -143.45 151.4 -148.55 145.3 -154.05 139.65 -160.0 134.45 -166.35 129.7 -173.0 125.5 -180.0 121.85 -187.2 118.75 -194.65 116.25 -202.25 114.35 -209.95 113.05 -217.75 112.35 -225.6 112.25 -233.4 112.8 -241.15 114.0 -248.75 115.8 -256.25 118.15 -263.5 121.15 -270.55 124.7 -277.25 128.75 -283.7 133.35 -289.7 138.5 -295.35 144.05 -300.55 150.05 -305.3 156.45 -309.5 163.2 -312.8 169.5 -313.35 169.6 -314.3 164.1 -314.2 163.35 -307.05 149.65 -304.05 142.35 -300.5 135.25 -296.45 128.5 -291.9 122.1 -286.95 116.1 -281.55 110.55 -275.75 105.45 -269.65 100.85 -263.2 96.75 -256.45 93.2 -249.5 90.2 -242.35 87.85" fill="#434343" fill-rule="evenodd" stroke="none"/>
    <path d="M320.25 -282.85 L320.8 -283.15 373.3 -272.0 391.8 -265.7 406.3 -258.85 428.85 -246.9 453.4 -232.1 476.35 -214.65 497.4 -194.8 533.1 -146.8 547.2 -123.05 558.3 -97.0 567.65 -69.7 573.65 -35.7 577.3 -6.35 577.0 20.3 574.35 52.8 567.3 78.65 557.5 107.15 545.4 134.3 531.4 157.65 515.85 181.0 497.4 206.05 476.35 225.9 454.3 241.0 430.1 256.3 402.0 270.75 371.1 282.3 340.25 294.6 338.9 294.25 314.55 249.05 314.8 247.65 364.1 225.85 378.1 219.2 394.3 210.1 411.65 198.0 420.0 191.0 430.8 181.15 445.65 166.15 453.65 156.5 466.3 143.3 478.65 126.15 487.5 110.3 498.65 86.15 505.8 68.8 509.65 56.1 511.8 46.8 514.8 30.6 516.3 17.4 516.15 -0.85 516.5 -7.0 515.8 -24.5 514.1 -38.8 510.55 -54.15 506.1 -70.6 500.75 -88.35 491.65 -108.8 482.3 -126.8 461.0 -157.0 445.5 -175.0 422.65 -197.0 408.0 -209.2 387.0 -223.5 370.5 -232.7 351.15 -239.85 314.7 -252.0 314.25 -252.85 320.25 -282.85" fill="#707070" fill-rule="evenodd" stroke="none"/>
    <path d="M-342.7 -288.9 L-341.35 -288.6 -316.5 -244.4 -316.8 -243.15 -323.7 -239.25 -366.45 -220.15 -380.45 -213.45 -396.7 -204.35 -421.7 -185.7 -433.2 -175.4 -458.35 -149.45 -468.7 -137.6 -481.0 -120.4 -494.35 -96.0 -508.2 -63.1 -511.35 -53.0 -514.2 -41.1 -517.2 -24.9 -519.2 -10.6 -518.5 6.6 -518.85 12.75 -518.2 30.25 -516.45 44.55 -512.9 59.85 -503.15 94.1 -494.0 114.55 -484.7 132.55 -463.35 162.75 -447.85 180.75 -425.0 202.75 -410.35 214.9 -389.35 229.25 -372.85 238.4 -353.5 245.6 -317.85 257.5 -316.8 259.2 -322.4 287.35 -323.4 288.15 -352.7 282.75 -375.7 277.75 -394.2 271.4 -408.7 264.6 -431.25 252.65 -455.8 237.8 -478.7 220.35 -499.75 200.5 -535.45 152.55 -549.55 128.8 -560.7 102.75 -570.0 75.4 -576.0 41.4 -579.7 12.1 -578.85 -17.1 -576.75 -47.1 -569.7 -72.9 -559.85 -101.4 -547.8 -128.6 -533.8 -151.9 -518.25 -175.25 -499.75 -200.35 -478.7 -220.2 -456.7 -235.25 -432.45 -250.6 -404.35 -265.0 -373.0 -278.0 -342.7 -288.9" fill="#707070" fill-rule="evenodd" stroke="none"/>
    <path d="M377.15 -179.85 L381.3 -174.95 382.05 -173.55 382.8 -170.85 383.65 -165.85 382.15 -161.5 376.0 -155.2 374.3 -154.5 369.85 -153.95 368.8 -154.0 358.05 -159.05 357.3 -159.85 357.0 -160.85 356.3 -168.85 357.15 -175.7 357.8 -178.0 373.05 -182.65 374.3 -182.45 377.15 -179.85" fill="#707070" fill-rule="evenodd" stroke="none"/>
    <path d="M450.1 -90.8 L448.65 -88.8 441.55 -83.15 435.1 -79.25 431.85 -78.6 426.2 -85.15 425.4 -87.25 425.0 -89.35 426.3 -94.25 428.3 -97.6 429.85 -99.25 432.55 -100.45 437.55 -101.15 443.0 -100.15 445.55 -98.15 450.2 -91.7 450.1 -90.8" fill="#707070" fill-rule="evenodd" stroke="none"/>
    <path d="M412.4 76.65 L418.3 67.75 419.65 66.55 421.4 66.3 425.3 68.65 438.65 80.1 439.0 81.1 438.1 84.4 435.2 90.85 433.3 93.65 430.3 95.4 426.65 96.4 422.55 95.55 419.65 94.0 417.65 92.3 415.4 88.75 412.3 79.85 412.0 78.0 412.4 76.65" fill="#707070" fill-rule="evenodd" stroke="none"/>
    <path d="M372.85 139.85 L375.75 139.3 381.85 140.75 385.3 143.2 389.2 146.85 390.55 150.55 390.55 152.1 389.55 157.1 387.55 160.1 381.85 165.2 378.3 167.3 374.85 167.4 361.75 164.55 360.65 163.85 360.0 163.0 359.1 157.2 359.0 149.3 359.4 147.75 360.65 146.0 369.3 141.0 372.85 139.85" fill="#707070" fill-rule="evenodd" stroke="none"/>
    <path d="M-372.15 -171.0 L-371.35 -170.0 -370.25 -165.35 -370.7 -154.25 -371.35 -153.6 -382.25 -148.8 -385.8 -148.6 -388.25 -149.15 -391.0 -150.25 -396.0 -154.6 -399.35 -160.45 -399.9 -162.35 -399.8 -164.35 -399.25 -166.45 -397.45 -169.8 -391.7 -175.8 -390.15 -176.25 -386.35 -176.0 -372.15 -171.0" fill="#707070" fill-rule="evenodd" stroke="none"/>
    <path d="M-437.0 -105.35 L-433.1 -104.25 -430.35 -103.0 -428.7 -100.95 -426.75 -96.95 -425.0 -91.25 -424.7 -89.7 -424.7 -88.75 -424.95 -87.45 -431.7 -79.0 -433.25 -77.95 -434.85 -77.6 -437.35 -77.6 -440.35 -79.2 -446.0 -83.1 -453.6 -90.85 -453.5 -92.1 -448.25 -99.45 -444.95 -102.85 -441.85 -104.45 -437.0 -105.35" fill="#707070" fill-rule="evenodd" stroke="none"/>
    <path d="M-383.8 137.3 L-380.35 131.55 -378.7 129.55 -376.6 128.2 -373.7 127.2 -369.8 127.2 -361.25 129.2 -357.15 130.65 -355.6 132.85 -354.7 135.65 -353.25 145.1 -353.0 150.0 -353.45 151.0 -354.7 152.1 -367.7 157.85 -369.45 157.85 -378.15 150.75 -382.15 145.85 -383.8 141.75 -384.0 139.75 -383.8 137.3" fill="#707070" fill-rule="evenodd" stroke="none"/>
    <path d="M-421.15 86.4 L-424.0 89.1 -427.0 91.2 -430.25 92.2 -434.25 92.1 -436.35 91.2 -439.25 89.2 -443.7 82.0 -444.8 79.3 -444.35 77.75 -439.45 72.0 -434.45 67.0 -427.45 61.4 -426.45 61.1 -422.8 64.85 -418.15 71.4 -417.8 74.65 -418.45 80.75 -421.15 86.4" fill="#707070" fill-rule="evenodd" stroke="none"/>
    <path d="M-190.15 180.15 L-191.45 179.9 -192.35 178.95 -192.5 177.65 -191.85 176.5 -190.65 175.95 -189.4 176.2 -188.5 177.15 -188.35 178.45 -188.95 179.6 -190.15 180.15" fill="#707070" fill-rule="evenodd" stroke="none"/>
    <path d="M-160.4 185.05 L-159.5 186.0 -159.35 187.3 -159.95 188.45 -161.15 189.0 -162.45 188.75 -163.35 187.8 -163.5 186.5 -162.85 185.35 -161.65 184.8 -160.4 185.05" fill="#707070" fill-rule="evenodd" stroke="none"/>
    <path d="M-169.7 204.85 L-168.8 205.85 -168.65 207.15 -169.3 208.3 -170.5 208.85 -171.8 208.6 -172.65 207.6 -172.85 206.3 -172.2 205.15 -171.0 204.6 -169.7 204.85" fill="#707070" fill-rule="evenodd" stroke="none"/>
    <path d="M0.5 287.2 L1.4 288.15 1.55 289.45 0.9 290.6 Q0.35 290.9 -0.25 291.15 L-1.55 290.9 -2.45 289.95 -2.6 288.65 -1.95 287.5 -0.8 286.95 0.5 287.2" fill="#707070" fill-rule="evenodd" stroke="none"/>
    <path d="M42.55 278.7 L41.65 277.75 41.5 276.45 42.15 275.3 43.35 274.75 44.6 275.0 45.5 275.95 45.65 277.25 45.05 278.4 43.85 278.95 42.55 278.7" fill="#707070" fill-rule="evenodd" stroke="none"/>
    <path d="M93.3 259.4 L92.0 259.15 91.1 258.15 90.95 256.85 91.6 255.75 92.8 255.15 94.05 255.45 94.95 256.4 95.1 257.7 94.5 258.85 93.3 259.4" fill="#707070" fill-rule="evenodd" stroke="none"/>
    <path d="M142.8 259.55 L143.7 260.5 143.85 261.8 143.2 262.95 142.0 263.5 140.7 263.25 139.85 262.3 139.65 261.0 140.3 259.85 141.5 259.3 142.8 259.55" fill="#707070" fill-rule="evenodd" stroke="none"/>
    <path d="M109.05 54.4 L109.25 55.7 108.6 56.85 107.4 57.4 106.1 57.15 105.2 56.15 105.05 54.85 105.7 53.75 106.9 53.15 108.2 53.45 109.05 54.4" fill="#707070" fill-rule="evenodd" stroke="none"/>
    <path d="M74.3 57.45 L75.2 58.4 75.35 59.7 74.7 60.85 73.5 61.4 72.2 61.15 71.35 60.15 71.15 58.85 71.8 57.75 73.0 57.15 74.3 57.45" fill="#707070" fill-rule="evenodd" stroke="none"/>
    <path d="M-59.2 -61.05 L-58.3 -60.1 -58.15 -58.8 -58.8 -57.65 -60.0 -57.1 -61.3 -57.35 -62.15 -58.3 -62.35 -59.6 -61.7 -60.75 -60.5 -61.3 -59.2 -61.05" fill="#707070" fill-rule="evenodd" stroke="none"/>
    <path d="M-90.35 -62.35 L-89.7 -63.5 -88.5 -64.05 -87.2 -63.8 -86.3 -62.85 -86.15 -61.55 -86.8 -60.4 -88.0 -59.85 -89.3 -60.1 -90.15 -61.05 -90.35 -62.35" fill="#707070" fill-rule="evenodd" stroke="none"/>
    <path d="M169.25 -208.1 L170.4 -208.65 171.7 -208.4 172.6 -207.4 172.75 -206.1 172.1 -204.95 170.9 -204.4 169.65 -204.65 168.75 -205.65 168.6 -206.95 169.25 -208.1" fill="#707070" fill-rule="evenodd" stroke="none"/>
    <path d="M191.3 -179.8 L192.2 -178.85 192.35 -177.55 191.7 -176.4 190.5 -175.85 189.2 -176.1 188.35 -177.05 188.15 -178.35 188.8 -179.5 190.0 -180.05 191.3 -179.8" fill="#707070" fill-rule="evenodd" stroke="none"/>
    <path d="M162.6 -188.9 L163.5 -187.9 163.65 -186.6 163.05 -185.45 161.85 -184.9 160.55 -185.15 159.65 -186.15 159.5 -187.45 160.15 -188.6 161.35 -189.15 162.6 -188.9" fill="#707070" fill-rule="evenodd" stroke="none"/>
    <path d="M-42.4 -278.55 L-41.5 -277.6 -41.35 -276.3 -41.95 -275.15 -43.15 -274.6 -44.45 -274.85 -45.35 -275.85 -45.5 -277.15 -44.85 -278.25 -43.65 -278.85 -42.4 -278.55" fill="#707070" fill-rule="evenodd" stroke="none"/>
    <path d="M2.15 -287.6 L0.95 -287.05 -0.35 -287.3 -1.25 -288.25 -1.4 -289.55 -0.75 -290.7 0.45 -291.25 1.75 -291.0 2.6 -290.05 2.8 -288.75 2.15 -287.6" fill="#707070" fill-rule="evenodd" stroke="none"/>
    <path d="M-92.05 -258.9 L-91.15 -257.95 -91.0 -256.65 -91.65 -255.5 -92.85 -254.95 -94.1 -255.2 -95.0 -256.15 -95.15 -257.45 -94.5 -258.6 -93.35 -259.15 -92.05 -258.9" fill="#707070" fill-rule="evenodd" stroke="none"/>
    <path d="M-146.7 -263.15 L-145.8 -262.15 -145.65 -260.85 -146.3 -259.7 -147.5 -259.15 -148.8 -259.4 -149.65 -260.4 -149.85 -261.7 -149.2 -262.85 -148.0 -263.4 -146.7 -263.15" fill="#707070" fill-rule="evenodd" stroke="none"/>
  </g>
</svg>
