<?xml version="1.0" encoding="UTF-8" standalone="no"?>
<svg xmlns:ffdec="https://www.free-decompiler.com/flash" xmlns:xlink="http://www.w3.org/1999/xlink" ffdec:objectType="shape" height="1060.0px" width="1666.65px" xmlns="http://www.w3.org/2000/svg">
  <g transform="matrix(1.0, 0.0, 0.0, 1.0, 834.15, 531.0)">
    <path d="M603.2 -443.05 L650.55 -406.5 693.5 -364.45 731.5 -317.5 764.1 -266.2 790.75 -211.25 811.15 -153.45 825.05 -93.6 832.2 -32.4 832.5 29.2 826.05 90.5 812.8 150.55 793.05 208.55 766.95 263.8 734.95 315.5 697.45 362.9 654.95 405.5 608.05 442.55 557.3 473.7 503.5 498.4 447.3 516.45 399.95 525.5 370.65 528.5 330.9 529.0 -333.5 529.0 -370.65 528.55 -402.15 525.4 -448.95 516.45 -505.15 498.4 -558.95 473.7 -609.65 442.55 -656.6 405.5 -699.1 362.9 -736.6 315.5 -768.6 263.8 -794.65 208.55 -814.45 150.55 -827.65 90.5 -834.15 29.2 -833.8 -32.4 -826.65 -93.6 -812.8 -153.45 -792.35 -211.25 -765.7 -266.2 -733.15 -317.5 -695.1 -364.45 -652.15 -406.5 -604.85 -443.05 -553.8 -473.55 -499.7 -497.6 -443.3 -514.95 -390.4 -524.4 -333.8 -531.0 332.15 -531.0 388.8 -524.4 441.7 -514.95 498.05 -497.6 552.15 -473.55 603.2 -443.05" fill="#707070" fill-rule="evenodd" stroke="none"/>
    <path d="M524.55 -428.95 L573.05 -401.35 618.0 -368.25 658.8 -330.2 694.95 -287.6 725.9 -241.15 751.2 -191.45 770.6 -139.1 783.8 -84.85 790.6 -29.45 790.9 26.35 784.75 81.85 772.2 136.25 753.4 188.8 728.65 238.8 698.2 285.65 662.6 328.6 622.2 367.15 577.6 400.7 529.45 428.9 478.3 451.3 424.95 467.6 371.0 477.45 361.65 478.45 314.3 479.0 -316.9 479.0 -360.95 478.5 -374.0 477.2 -426.55 467.6 -479.95 451.3 -531.05 428.9 -579.25 400.7 -623.85 367.15 -664.2 328.6 -699.85 285.65 -730.25 238.8 -755.0 188.8 -773.8 136.25 -786.35 81.85 -792.55 26.35 -792.2 -29.45 -785.4 -84.85 -772.25 -139.1 -752.85 -191.45 -727.5 -241.15 -696.55 -287.6 -660.45 -330.2 -619.65 -368.25 -574.65 -401.35 -526.15 -428.95 -474.8 -450.75 -421.25 -466.5 -375.05 -474.35 -366.25 -476.75 -317.15 -494.65 -217.35 -514.7 216.0 -514.7 315.55 -494.65 363.55 -477.15 373.85 -474.25 419.6 -466.5 473.15 -450.75 524.55 -428.95" fill="#434343" fill-rule="evenodd" stroke="none"/>
    <path d="M392.8 -313.4 L394.35 -319.45 410.25 -314.8 446.15 -299.55 474.6 -283.35 471.2 -278.5 494.05 -262.55 497.45 -267.45 511.5 -257.1 516.9 -252.05 510.15 -245.55 511.8 -243.85 519.7 -251.35 519.7 -251.4 539.5 -271.2 571.25 -239.45 543.9 -212.3 545.55 -210.65 551.8 -216.6 560.6 -206.25 556.1 -202.95 572.75 -180.6 576.7 -183.55 586.85 -168.3 604.6 -133.55 615.3 -104.65 610.65 -103.6 616.8 -76.45 622.8 -77.8 627.35 -59.05 632.1 -20.35 632.3 15.7 628.0 54.45 625.0 67.45 618.95 66.05 612.75 93.2 618.5 94.5 606.1 129.2 588.8 164.2 582.0 174.6 578.35 171.9 561.75 194.2 566.7 197.9 551.35 216.4 545.8 211.1 544.15 212.75 553.6 221.95 553.6 221.85 571.25 239.5 539.5 271.25 518.35 250.1 518.25 250.2 512.05 244.3 510.4 246.0 516.5 251.9 514.4 253.85 505.8 260.35 503.0 256.35 480.15 272.25 483.5 277.1 483.25 277.35 449.6 297.05 413.85 312.7 403.65 315.8 402.25 310.35 375.25 317.3 376.95 323.95 375.85 324.3 336.5 329.95 299.25 330.35 206.3 330.35 165.7 346.65 163.0 346.65 163.0 348.15 165.1 348.15 165.1 381.3 135.1 381.3 135.1 348.15 137.2 348.15 137.2 346.65 129.65 346.65 129.65 348.15 131.75 348.15 131.75 381.3 101.75 381.3 101.75 348.15 103.85 348.15 103.85 346.65 96.3 346.65 96.3 348.15 98.4 348.15 98.4 381.3 68.4 381.3 68.4 348.15 70.55 348.15 70.55 346.65 63.0 346.65 63.0 348.15 65.1 348.15 65.1 381.3 35.1 381.3 35.1 348.15 37.2 348.15 37.2 346.65 29.65 346.65 29.65 348.15 31.75 348.15 31.75 381.3 1.75 381.3 1.75 348.15 3.85 348.15 3.85 346.65 -3.7 346.65 -3.7 348.15 -1.6 348.15 -1.6 381.3 -31.6 381.3 -31.6 348.15 -29.45 348.15 -29.45 346.65 -37.0 346.65 -37.0 348.15 -34.9 348.15 -34.9 381.3 -64.9 381.3 -64.9 348.15 -62.8 348.15 -62.8 346.65 -70.35 346.65 -70.35 348.15 -68.25 348.15 -68.25 381.3 -98.25 381.3 -98.25 348.15 -96.15 348.15 -96.15 346.65 -103.7 346.65 -103.7 348.15 -101.6 348.15 -101.6 381.3 -131.6 381.3 -131.6 348.15 -129.45 348.15 -129.45 346.65 -137.0 346.65 -137.0 348.15 -134.9 348.15 -134.9 381.3 -164.9 381.3 -164.9 348.15 -162.8 348.15 -162.8 346.65 -166.7 346.65 -205.0 330.35 -301.05 330.35 -338.15 329.95 -367.0 325.8 -365.4 319.65 -392.4 312.7 -394.1 319.2 -415.45 312.7 -451.2 297.05 -474.7 283.25 -470.55 277.25 -493.35 261.35 -497.75 267.6 -516.05 253.85 -517.05 252.9 -509.85 245.85 -511.5 244.2 -518.85 251.2 -519.15 250.85 -539.55 271.25 -571.3 239.5 -553.1 221.25 -553.05 221.85 -543.6 212.65 -545.25 211.0 -552.1 217.5 -561.75 205.8 -555.9 201.45 -572.55 179.1 -578.05 183.2 -590.4 164.2 -607.7 129.2 -616.8 103.75 -610.05 102.2 -616.2 75.05 -624.45 76.95 -629.65 54.45 -633.95 15.7 -633.7 -20.35 -628.95 -59.05 -626.9 -67.55 -619.65 -65.9 -613.5 -93.05 -620.35 -94.6 -619.75 -96.95 -606.2 -133.55 -588.5 -168.3 -583.85 -175.25 -578.1 -170.95 -561.45 -193.25 -568.4 -198.45 -566.9 -200.75 -552.75 -217.4 -545.5 -210.55 -543.85 -212.2 -571.3 -239.45 -539.55 -271.2 -519.65 -251.3 -519.65 -251.25 -511.75 -243.75 -510.1 -245.4 -517.7 -252.8 -513.1 -257.1 -506.5 -261.95 -502.35 -256.05 -479.55 -272.0 -484.05 -278.5 -481.65 -280.25 -447.8 -299.55 -411.85 -314.8 -404.7 -316.9 -402.95 -310.2 -376.0 -317.1 -377.95 -324.75 -374.45 -325.75 -335.3 -332.45 -293.95 -333.0 -205.0 -333.0 -166.7 -346.7 -162.8 -346.7 -162.8 -348.35 -164.9 -348.35 -164.9 -381.5 -134.9 -381.5 -134.9 -348.35 -137.0 -348.35 -137.0 -346.7 -129.45 -346.7 -129.45 -348.35 -131.6 -348.35 -131.6 -381.5 -101.6 -381.5 -101.6 -348.35 -103.7 -348.35 -103.7 -346.7 -96.15 -346.7 -96.15 -348.35 -98.25 -348.35 -98.25 -381.5 -68.25 -381.5 -68.25 -348.35 -70.35 -348.35 -70.35 -346.7 -62.8 -346.7 -62.8 -348.35 -64.9 -348.35 -64.9 -381.5 -34.9 -381.5 -34.9 -348.35 -37.0 -348.35 -37.0 -346.7 -29.45 -346.7 -29.45 -348.35 -31.6 -348.35 -31.6 -381.5 -1.6 -381.5 -1.6 -348.35 -3.7 -348.35 -3.7 -346.7 3.85 -346.7 3.85 -348.35 1.75 -348.35 1.75 -381.5 31.75 -381.5 31.75 -348.35 29.65 -348.35 29.65 -346.7 37.2 -346.7 37.2 -348.35 35.1 -348.35 35.1 -381.5 65.1 -381.5 65.1 -348.35 63.0 -348.35 63.0 -346.7 70.55 -346.7 70.55 -348.35 68.4 -348.35 68.4 -381.5 98.4 -381.5 98.4 -348.35 96.3 -348.35 96.3 -346.7 103.85 -346.7 103.85 -348.35 101.75 -348.35 101.75 -381.5 131.75 -381.5 131.75 -348.35 129.65 -348.35 129.65 -346.7 137.2 -346.7 137.2 -348.35 135.1 -348.35 135.1 -381.5 165.1 -381.5 165.1 -348.35 163.0 -348.35 163.0 -346.7 165.7 -346.7 206.3 -333.0 292.85 -333.0 333.65 -332.45 367.45 -326.7 365.8 -320.35 392.8 -313.4" fill="#707070" fill-rule="evenodd" stroke="none"/>
    <path d="M387.65 -287.0 L417.3 -276.0 468.0 -250.0 505.0 -218.35 535.65 -185.7 556.0 -156.7 570.65 -128.7 587.0 -89.0 599.3 -28.0 600.1 9.85 598.55 31.2 593.4 63.65 581.65 104.8 562.8 147.0 539.0 183.4 510.3 217.0 470.75 249.0 436.55 270.1 389.0 288.3 345.0 299.0 305.5 301.0 -291.0 301.0 -330.5 299.5 -389.45 289.4 -425.45 274.0 -458.35 256.3 -492.35 231.65 -515.7 210.3 -535.0 187.0 -554.35 159.65 -571.0 128.3 -583.0 99.0 -593.0 65.65 -600.35 21.0 -599.7 -23.0 -595.0 -53.0 -586.35 -86.35 -575.7 -117.7 -565.0 -139.7 -541.7 -175.7 -519.7 -203.7 -495.7 -227.0 -469.0 -247.0 -446.35 -261.0 -411.0 -279.0 -380.35 -287.7 -337.0 -297.0 -307.0 -302.0 295.0 -302.35 335.0 -298.35 387.65 -287.0" fill="#969696" fill-rule="evenodd" stroke="none"/>
    <path d="M304.6 -304.5 L331.65 -301.7 368.0 -294.85 401.9 -284.9 434.4 -271.1 465.1 -253.65 493.55 -232.7 519.4 -208.6 542.25 -181.7 561.85 -152.3 577.85 -120.8 590.15 -87.7 598.45 -53.35 602.75 -18.3 603.0 17.05 599.1 52.15 591.15 86.55 579.25 119.8 563.55 151.45 544.3 181.1 521.75 208.3 496.2 232.65 468.0 253.95 437.5 271.75 405.15 285.95 371.4 296.25 348.2 300.5 304.35 302.8 -330.0 302.7 -370.6 296.3 -404.45 285.95 -436.8 271.75 -467.3 253.95 -495.5 232.65 -521.05 208.3 -543.6 181.1 -562.85 151.45 -578.55 119.8 -590.4 86.55 -598.35 52.15 -602.25 17.05 -602.05 -18.3 -597.75 -53.35 -589.4 -87.7 -577.15 -120.8 -561.1 -152.3 -541.55 -181.7 -518.7 -208.6 -492.85 -232.7 -464.4 -253.65 -433.7 -271.1 -401.2 -284.9 -367.25 -294.85 -330.3 -300.75 -305.85 -304.2 -289.9 -305.0 284.2 -305.0 304.6 -304.5 M331.0 -296.6 L304.2 -299.5 284.15 -300.0 -289.7 -300.0 -305.2 -299.2 -330.85 -296.0 -366.15 -290.0 -399.5 -280.2 -431.5 -266.65 -461.65 -249.45 -489.65 -228.85 -515.05 -205.15 -537.55 -178.65 -556.8 -149.75 -572.55 -118.8 -584.65 -86.2 -592.85 -52.45 -597.05 -17.95 -597.25 16.75 -593.45 51.3 -585.6 85.15 -573.9 117.85 -558.5 149.0 -539.6 178.15 -517.4 204.85 -492.25 228.85 -464.5 249.75 -434.55 267.3 Q-418.6 274.3 -402.7 281.25 L-369.5 291.4 -329.6 297.7 304.2 297.8 347.6 295.5 370.2 291.4 403.4 281.25 Q419.35 274.3 435.25 267.3 L465.25 249.75 493.0 228.85 518.1 204.85 540.3 178.15 559.2 149.0 574.65 117.85 586.3 85.15 594.15 51.3 598.0 16.75 597.8 -17.95 593.55 -52.45 585.35 -86.2 573.25 -118.8 557.5 -149.75 538.25 -178.65 515.75 -205.15 490.35 -228.85 462.4 -249.45 432.2 -266.65 400.2 -280.2 366.9 -290.0 331.0 -296.6" fill="#828282" fill-rule="evenodd" stroke="none"/>
    <path d="M335.2 -137.1 L359.55 -111.95 379.0 -82.25 395.45 -38.4 399.0 -16.4 399.4 13.0 392.5 51.4 383.4 74.65 368.1 102.3 351.6 123.2 335.1 137.9 309.9 155.4 280.65 168.6 258.3 173.9 231.3 175.6 210.95 176.25 -197.85 176.25 -238.35 175.6 -263.35 173.9 -294.7 162.1 -326.85 143.25 -353.55 120.5 -377.8 86.25 -389.9 57.7 -397.55 27.4 -399.9 -5.55 -396.4 -32.65 -390.5 -57.35 -378.7 -82.95 -364.6 -106.2 -346.1 -127.15 -326.05 -143.25 -307.25 -155.4 -282.9 -166.75 -263.35 -173.45 -238.35 -178.05 -197.85 -178.9 210.95 -178.75 231.3 -177.7 258.3 -174.2 280.65 -169.1 305.6 -155.75 335.2 -137.1" fill="#7f7f7f" fill-rule="evenodd" stroke="none"/>
    <path d="M156.5 -109.1 L164.05 -109.75 171.65 -108.9 178.85 -106.5 185.45 -102.75 191.2 -97.7 195.75 -91.65 199.0 -84.75 200.85 -77.4 201.15 -69.8 199.9 -62.25 197.15 -55.15 193.05 -48.75 187.75 -43.3 181.45 -39.05 174.4 -36.15 166.95 -34.7 159.3 -34.8 151.9 -36.4 144.95 -39.5 138.75 -43.95 133.55 -49.5 129.6 -56.0 127.05 -63.2 126.0 -70.7 126.5 -78.3 128.5 -85.65 131.95 -92.45 136.65 -98.4 142.5 -103.3 149.2 -106.9 156.5 -109.1" fill="#707070" fill-rule="evenodd" stroke="none"/>
    <path d="M-197.7 88.0 L-200.25 80.8 -201.3 73.3 -200.85 65.7 -198.85 58.35 -195.4 51.55 -190.65 45.6 -184.85 40.7 -178.15 37.1 -170.85 34.9 -163.25 34.25 -155.7 35.1 -148.45 37.5 -141.85 41.25 -136.15 46.3 -131.55 52.35 -128.3 59.25 -126.5 66.6 -126.2 74.2 -127.45 81.75 -130.2 88.85 -134.3 95.25 -139.6 100.7 -145.9 104.95 -152.95 107.85 -160.4 109.3 -168.0 109.2 -175.45 107.6 -182.4 104.5 -188.6 100.05 -193.75 94.5 -197.7 88.0" fill="#707070" fill-rule="evenodd" stroke="none"/>
    <path d="M325.7 -209.3 L329.3 -215.75 333.55 -221.85 341.3 -230.4 377.0 -213.35 389.0 -206.35 417.3 -186.7 428.0 -177.35 438.0 -167.0 448.3 -155.0 460.85 -138.0 456.9 -131.7 452.4 -125.85 447.35 -120.4 441.8 -115.5 435.8 -111.15 429.4 -107.4 422.7 -104.3 415.7 -101.85 408.5 -100.1 401.2 -99.05 393.8 -98.7 386.45 -99.05 379.1 -100.1 371.95 -101.9 365.0 -104.35 358.3 -107.5 351.95 -111.25 345.95 -115.6 340.45 -120.5 335.45 -125.95 331.0 -131.8 327.1 -138.1 323.85 -144.75 321.25 -151.7 319.35 -158.8 318.15 -166.1 317.65 -173.5 317.85 -180.9 318.8 -188.25 320.4 -195.45 322.7 -202.5 325.7 -209.3" fill="#707070" fill-rule="evenodd" stroke="none"/>
    <path d="M-453.35 137.0 L-449.5 131.05 -445.05 125.45 -440.1 120.3 -434.7 115.7 -428.85 111.6 -422.65 108.1 -416.15 105.25 -409.4 103.0 -402.45 101.4 -395.35 100.5 -388.25 100.3 -381.15 100.75 -374.1 101.9 -367.25 103.75 -360.55 106.25 -354.15 109.35 -348.05 113.1 -342.4 117.35 -337.15 122.2 -332.4 127.5 -328.15 133.25 -324.5 139.35 -321.45 145.8 -319.05 152.5 -317.3 159.4 -316.25 166.45 -315.85 173.55 -316.15 180.7 -317.15 187.75 -318.8 194.65 -321.15 201.4 -324.1 207.9 -327.7 214.05 -331.85 219.85 -340.6 229.65 Q-349.45 225.35 -358.35 221.0 L-371.55 215.05 -383.8 208.45 -399.45 198.65 -412.75 189.75 -423.7 180.75 -434.05 170.75 -444.75 159.1 -452.4 149.7 -456.65 143.35 -453.35 137.0" fill="#707070" fill-rule="evenodd" stroke="none"/>
    <path d="M171.25 136.25 L171.25 140.25 160.1 140.25 160.1 136.25 171.25 136.25" fill="#707070" fill-rule="evenodd" stroke="none"/>
    <path d="M310.2 136.25 L310.2 140.25 299.0 140.25 299.0 136.25 310.2 136.25" fill="#707070" fill-rule="evenodd" stroke="none"/>
    <path d="M270.8 72.5 L274.25 74.5 268.7 84.2 265.2 82.2 270.8 72.5" fill="#707070" fill-rule="evenodd" stroke="none"/>
    <path d="M201.6 193.0 L205.05 195.0 199.5 204.65 196.05 202.65 201.6 193.0" fill="#707070" fill-rule="evenodd" stroke="none"/>
    <path d="M195.95 74.6 L199.4 72.6 204.95 82.25 201.5 84.25 195.95 74.6" fill="#707070" fill-rule="evenodd" stroke="none"/>
    <path d="M265.3 194.95 L268.8 192.95 274.35 202.6 270.9 204.6 265.3 194.95" fill="#707070" fill-rule="evenodd" stroke="none"/>
    <path d="M-309.75 -136.15 L-309.75 -140.15 -298.55 -140.15 -298.55 -136.15 -309.75 -136.15" fill="#707070" fill-rule="evenodd" stroke="none"/>
    <path d="M-170.8 -136.15 L-170.8 -140.15 -159.65 -140.15 -159.65 -136.15 -170.8 -136.15" fill="#707070" fill-rule="evenodd" stroke="none"/>
    <path d="M-199.05 -203.9 L-195.6 -201.9 -201.15 -192.2 -204.6 -194.2 -199.05 -203.9" fill="#707070" fill-rule="evenodd" stroke="none"/>
    <path d="M-270.3 -71.75 L-273.8 -73.75 -268.25 -83.4 -264.75 -81.45 -270.3 -71.75" fill="#707070" fill-rule="evenodd" stroke="none"/>
    <path d="M-268.3 -192.15 L-273.9 -201.85 -270.45 -203.85 -264.85 -194.15 -268.3 -192.15" fill="#707070" fill-rule="evenodd" stroke="none"/>
    <path d="M-204.5 -81.5 L-201.05 -83.5 -195.45 -73.8 -198.95 -71.8 -204.5 -81.5" fill="#707070" fill-rule="evenodd" stroke="none"/>
    <path d="M315.35 -227.8 L321.15 -234.8 341.3 -230.4 377.0 -213.35 389.0 -206.35 417.3 -186.7 428.0 -177.35 438.0 -167.0 448.3 -155.0 460.85 -138.0 470.05 -122.9 467.65 -118.95 462.2 -111.7 456.1 -105.05 449.35 -99.0 442.1 -93.6 434.3 -88.95 432.25 -88.0 436.65 -77.6 436.4 -74.65 434.85 -72.0 432.3 -70.25 429.25 -69.65 426.25 -70.35 424.0 -72.25 424.0 -72.15 419.85 -65.75 419.75 -65.65 420.45 -61.5 421.65 -47.75 421.3 -26.15 420.6 -15.65 417.2 -15.85 420.0 -13.4 424.6 -7.3 427.85 -0.45 429.65 6.95 429.95 14.55 428.7 22.05 426.0 29.15 421.85 35.55 416.55 41.0 410.25 45.3 403.25 48.2 397.2 49.35 395.8 51.5 380.1 70.45 370.45 80.9 358.7 92.0 358.2 95.05 355.5 102.15 351.4 108.55 346.05 114.0 339.75 118.3 332.75 121.2 326.6 122.4 327.05 124.4 328.0 133.4 328.1 142.45 327.35 151.45 325.7 160.35 323.2 169.05 319.85 177.5 315.75 185.55 312.3 190.9 310.2 195.1 306.5 206.45 305.85 214.45 306.2 219.45 308.85 226.45 312.2 231.8 317.2 237.1 283.3 242.3 266.65 242.65 143.5 243.0 146.85 241.45 151.85 237.1 156.85 231.8 160.2 226.45 162.85 219.45 163.2 214.45 162.5 206.45 156.75 188.7 152.1 183.3 148.2 175.1 145.1 166.6 142.85 157.85 141.45 148.9 140.9 139.9 141.25 130.85 141.95 125.65 138.1 122.9 132.9 117.3 128.95 110.8 128.45 109.35 6.5 36.5 3.25 37.15 -4.35 37.05 -11.8 35.4 -18.75 32.35 -24.9 27.9 -30.1 22.3 -34.05 15.8 -35.6 11.4 -151.8 -58.0 -152.25 -57.8 -159.75 -56.35 -167.35 -56.45 -174.8 -58.1 -181.75 -61.15 -182.25 -61.55 -185.4 -59.4 -193.35 -55.1 -201.7 -51.55 -210.35 -48.85 -219.2 -47.0 -228.15 -46.0 -237.2 -45.9 -246.25 -46.65 -255.15 -48.25 -263.85 -50.7 -272.25 -54.0 -280.35 -58.1 -290.95 -65.25 -293.3 -61.6 -298.6 -56.15 -304.9 -51.9 -311.95 -48.95 -319.4 -47.55 -327.0 -47.65 -331.35 -48.55 -341.95 -38.5 -352.5 -26.4 -357.1 -20.3 -356.15 -16.55 -355.85 -8.95 -357.1 -1.45 -359.85 5.65 -363.95 12.05 -369.25 17.5 -370.5 18.35 -371.8 34.85 -371.35 57.25 -367.55 59.4 -361.8 64.45 -357.25 70.5 -356.0 73.15 -355.9 72.9 -353.6 71.0 -350.65 70.3 -347.6 70.9 -345.05 72.65 -343.5 75.3 -343.25 78.25 -347.4 88.0 -342.25 90.75 -334.75 95.75 -327.7 101.5 -321.3 107.85 -315.5 114.8 -305.25 129.9 -295.15 125.8 -292.2 126.1 -289.6 127.65 -287.85 130.25 -287.3 133.3 -288.1 136.25 -290.0 138.5 -299.95 142.55 -298.3 147.8 -296.4 156.65 -295.35 165.65 -295.2 174.7 -295.9 183.7 -297.5 192.6 -300.25 202.2 -290.15 206.45 -288.25 208.75 -287.55 211.7 -288.1 214.75 -289.9 217.3 -292.5 218.85 -295.45 219.1 -305.7 214.8 -307.25 217.85 -312.1 225.5 -320.0 236.0 -340.6 229.65 Q-349.45 225.35 -358.35 221.0 L-371.55 215.05 -383.8 208.45 -399.45 198.65 -412.75 189.75 -423.7 180.75 -434.05 170.75 -444.75 159.1 -452.4 149.7 -470.35 122.85 -469.45 121.25 -464.3 113.85 -458.4 106.95 -451.9 100.65 -444.8 95.05 -437.2 90.15 -432.4 87.65 -436.65 77.55 -436.4 74.6 -434.85 72.0 -432.3 70.2 -429.25 69.65 -426.3 70.35 -424.0 72.25 -423.25 74.05 -421.05 69.7 -420.65 69.2 -421.1 65.25 -421.85 42.9 -421.3 23.7 -420.35 14.6 -423.45 11.3 -427.35 4.8 -429.95 -2.35 -431.0 -9.9 -430.5 -17.5 -428.5 -24.85 -425.05 -31.6 -420.35 -37.6 -414.5 -42.45 -407.8 -46.05 -400.5 -48.25 -398.5 -48.45 -391.35 -57.9 -378.35 -72.85 -368.5 -82.45 -359.9 -90.1 -359.85 -91.15 -357.85 -98.5 -354.4 -105.3 -349.65 -111.25 -343.85 -116.15 -337.15 -119.75 -329.85 -121.9 -326.0 -122.25 -326.05 -122.45 -327.25 -131.4 -327.6 -140.45 -327.1 -149.45 -325.7 -158.4 -323.4 -167.15 -320.35 -175.65 -316.45 -183.85 -311.75 -189.25 -306.0 -207.0 -305.35 -215.0 -305.7 -220.0 -308.35 -227.0 -311.7 -232.35 -315.9 -236.8 -310.0 -239.35 -291.35 -242.0 -276.35 -243.35 -259.35 -243.7 -143.6 -243.25 -146.35 -242.0 -151.35 -237.65 -156.35 -232.35 -159.7 -227.0 -162.35 -220.0 -162.7 -215.0 -162.0 -207.0 -156.25 -189.25 -148.65 -178.0 -145.35 -169.6 -142.85 -160.9 -141.2 -152.0 -140.4 -143.0 -140.5 -133.95 -141.55 -124.6 -141.2 -124.4 -135.5 -119.4 -130.9 -113.3 -129.05 -109.35 -7.9 -37.05 -7.2 -37.25 0.4 -37.95 7.95 -37.05 15.2 -34.7 21.8 -30.9 27.5 -25.9 32.1 -19.8 35.35 -12.95 35.85 -10.9 152.5 58.75 155.8 57.75 163.4 57.05 170.95 57.95 178.2 60.3 181.2 62.0 188.2 57.55 196.25 53.45 204.7 50.15 213.4 47.7 222.3 46.1 231.3 45.35 240.35 45.45 249.35 46.45 258.2 48.3 266.85 51.0 275.15 54.55 283.1 58.85 290.6 63.9 290.85 64.15 295.0 58.95 300.85 54.05 307.55 50.45 314.8 48.25 322.4 47.55 329.95 48.45 331.45 48.95 342.5 37.5 355.45 21.8 355.9 21.15 354.85 13.6 355.3 6.0 357.3 -1.35 360.75 -8.1 365.5 -14.05 371.35 -18.95 371.45 -19.05 370.7 -19.1 371.3 -27.9 371.65 -45.6 370.45 -57.45 365.55 -60.95 360.4 -66.5 356.45 -73.0 356.2 -73.7 355.85 -72.9 353.6 -71.05 350.65 -70.3 347.6 -70.9 345.0 -72.7 343.45 -75.3 343.25 -78.25 347.45 -88.25 347.3 -88.3 339.45 -92.85 332.1 -98.1 325.3 -104.05 319.1 -110.6 313.55 -117.75 308.7 -125.4 306.2 -130.35 295.15 -125.85 292.2 -126.1 289.6 -127.7 287.85 -130.25 287.3 -133.35 288.05 -136.3 290.0 -138.5 301.05 -143.05 298.9 -150.65 297.3 -159.55 296.6 -168.55 296.75 -177.6 297.75 -186.6 299.65 -195.45 301.6 -201.65 290.1 -206.5 288.25 -208.75 287.5 -211.7 288.1 -214.8 289.9 -217.35 292.5 -218.9 295.45 -219.15 306.95 -214.25 310.25 -220.35 315.35 -227.8" fill="#ffffff" fill-opacity="0.14901961" fill-rule="evenodd" stroke="none"/>
  </g>
</svg>
