<?xml version="1.0" encoding="UTF-8" standalone="no"?>
<svg xmlns:ffdec="https://www.free-decompiler.com/flash" xmlns:xlink="http://www.w3.org/1999/xlink" ffdec:objectType="shape" height="1060.0px" width="1666.65px" xmlns="http://www.w3.org/2000/svg">
  <g transform="matrix(1.0, 0.0, 0.0, 1.0, 834.15, 531.0)">
    <path d="M603.2 -443.05 L650.55 -406.5 693.5 -364.45 731.5 -317.5 764.1 -266.2 790.75 -211.25 811.15 -153.45 825.05 -93.6 832.2 -32.4 832.5 29.2 826.05 90.5 812.8 150.55 793.05 208.55 766.95 263.8 734.95 315.5 697.45 362.9 654.95 405.5 608.05 442.55 557.3 473.7 503.5 498.4 447.3 516.45 399.95 525.5 370.65 528.5 330.9 529.0 -333.5 529.0 -370.65 528.55 -402.15 525.4 -448.95 516.45 -505.15 498.4 -558.95 473.7 -609.65 442.55 -656.6 405.5 -699.1 362.9 -736.6 315.5 -768.6 263.8 -794.65 208.55 -814.45 150.55 -827.65 90.5 -834.15 29.2 -833.8 -32.4 -826.65 -93.6 -812.8 -153.45 -792.35 -211.25 -765.7 -266.2 -733.15 -317.5 -695.1 -364.45 -652.15 -406.5 -604.85 -443.05 -553.8 -473.55 -499.7 -497.6 -443.3 -514.95 -390.4 -524.4 -333.8 -531.0 332.15 -531.0 388.8 -524.4 441.7 -514.95 498.05 -497.6 552.15 -473.55 603.2 -443.05" fill="#707070" fill-rule="evenodd" stroke="none"/>
    <path d="M524.55 -428.95 L573.05 -401.35 618.0 -368.25 658.8 -330.2 694.95 -287.6 725.9 -241.15 751.2 -191.45 770.6 -139.1 783.8 -84.85 790.6 -29.45 790.9 26.35 784.75 81.85 772.2 136.25 753.4 188.8 728.65 238.8 698.2 285.65 662.6 328.6 622.2 367.15 577.6 400.7 529.45 428.9 478.3 451.3 424.95 467.6 371.0 477.45 361.65 478.45 314.3 479.0 -316.9 479.0 -360.95 478.5 -374.0 477.2 -426.55 467.6 -479.95 451.3 -531.05 428.9 -579.25 400.7 -623.85 367.15 -664.2 328.6 -699.85 285.65 -730.25 238.8 -755.0 188.8 -773.8 136.25 -786.35 81.85 -792.55 26.35 -792.2 -29.45 -785.4 -84.85 -772.25 -139.1 -752.85 -191.45 -727.5 -241.15 -696.55 -287.6 -660.45 -330.2 -619.65 -368.25 -574.65 -401.35 -526.15 -428.95 -474.8 -450.75 -421.25 -466.5 -375.05 -474.35 -366.25 -476.75 -317.15 -494.65 -217.35 -514.7 216.0 -514.7 315.55 -494.65 363.55 -477.15 373.85 -474.25 419.6 -466.5 473.15 -450.75 524.55 -428.95" fill="#434343" fill-rule="evenodd" stroke="none"/>
    <path d="M392.8 -313.4 L394.35 -319.45 410.25 -314.8 446.15 -299.55 474.6 -283.35 471.2 -278.5 494.05 -262.55 497.45 -267.45 511.5 -257.1 516.9 -252.05 510.15 -245.55 511.8 -243.85 519.7 -251.35 519.7 -251.4 539.5 -271.2 571.25 -239.45 543.9 -212.3 545.55 -210.65 551.8 -216.6 560.6 -206.25 556.1 -202.95 572.75 -180.6 576.7 -183.55 586.85 -168.3 604.6 -133.55 615.3 -104.65 610.65 -103.6 616.8 -76.45 622.8 -77.8 627.35 -59.05 632.1 -20.35 632.3 15.7 628.0 54.45 625.0 67.45 618.95 66.05 612.75 93.2 618.5 94.5 606.1 129.2 588.8 164.2 582.0 174.6 578.35 171.9 561.75 194.2 566.7 197.9 551.35 216.4 545.8 211.1 544.15 212.75 553.6 221.95 553.6 221.85 571.25 239.5 539.5 271.25 518.35 250.1 518.25 250.2 512.05 244.3 510.4 246.0 516.5 251.9 514.4 253.85 505.8 260.35 503.0 256.35 480.15 272.25 483.5 277.1 483.25 277.35 449.6 297.05 413.85 312.7 403.65 315.8 402.25 310.35 375.25 317.3 376.95 323.95 375.85 324.3 336.5 329.95 299.25 330.35 206.3 330.35 165.7 346.65 163.0 346.65 163.0 348.15 165.1 348.15 165.1 381.3 135.1 381.3 135.1 348.15 137.2 348.15 137.2 346.65 129.65 346.65 129.65 348.15 131.75 348.15 131.75 381.3 101.75 381.3 101.75 348.15 103.85 348.15 103.85 346.65 96.3 346.65 96.3 348.15 98.4 348.15 98.4 381.3 68.4 381.3 68.4 348.15 70.55 348.15 70.55 346.65 63.0 346.65 63.0 348.15 65.1 348.15 65.1 381.3 35.1 381.3 35.1 348.15 37.2 348.15 37.2 346.65 29.65 346.65 29.65 348.15 31.75 348.15 31.75 381.3 1.75 381.3 1.75 348.15 3.85 348.15 3.85 346.65 -3.7 346.65 -3.7 348.15 -1.6 348.15 -1.6 381.3 -31.6 381.3 -31.6 348.15 -29.45 348.15 -29.45 346.65 -37.0 346.65 -37.0 348.15 -34.9 348.15 -34.9 381.3 -64.9 381.3 -64.9 348.15 -62.8 348.15 -62.8 346.65 -70.35 346.65 -70.35 348.15 -68.25 348.15 -68.25 381.3 -98.25 381.3 -98.25 348.15 -96.15 348.15 -96.15 346.65 -103.7 346.65 -103.7 348.15 -101.6 348.15 -101.6 381.3 -131.6 381.3 -131.6 348.15 -129.45 348.15 -129.45 346.65 -137.0 346.65 -137.0 348.15 -134.9 348.15 -134.9 381.3 -164.9 381.3 -164.9 348.15 -162.8 348.15 -162.8 346.65 -166.7 346.65 -205.0 330.35 -301.05 330.35 -338.15 329.95 -367.0 325.8 -365.4 319.65 -392.4 312.7 -394.1 319.2 -415.45 312.7 -451.2 297.05 -474.7 283.25 -470.55 277.25 -493.35 261.35 -497.75 267.6 -516.05 253.85 -517.05 252.9 -509.85 245.85 -511.5 244.2 -518.85 251.2 -519.15 250.85 -539.55 271.25 -571.3 239.5 -553.1 221.25 -553.05 221.85 -543.6 212.65 -545.25 211.0 -552.1 217.5 -561.75 205.8 -555.9 201.45 -572.55 179.1 -578.05 183.2 -590.4 164.2 -607.7 129.2 -616.8 103.75 -610.05 102.2 -616.2 75.05 -624.45 76.95 -629.65 54.45 -633.95 15.7 -633.7 -20.35 -628.95 -59.05 -626.9 -67.55 -619.65 -65.9 -613.5 -93.05 -620.35 -94.6 -619.75 -96.95 -606.2 -133.55 -588.5 -168.3 -583.85 -175.25 -578.1 -170.95 -561.45 -193.25 -568.4 -198.45 -566.9 -200.75 -552.75 -217.4 -545.5 -210.55 -543.85 -212.2 -571.3 -239.45 -539.55 -271.2 -519.65 -251.3 -519.65 -251.25 -511.75 -243.75 -510.1 -245.4 -517.7 -252.8 -513.1 -257.1 -506.5 -261.95 -502.35 -256.05 -479.55 -272.0 -484.05 -278.5 -481.65 -280.25 -447.8 -299.55 -411.85 -314.8 -404.7 -316.9 -402.95 -310.2 -376.0 -317.1 -377.95 -324.75 -374.45 -325.75 -335.3 -332.45 -293.95 -333.0 -205.0 -333.0 -166.7 -346.7 -162.8 -346.7 -162.8 -348.35 -164.9 -348.35 -164.9 -381.5 -134.9 -381.5 -134.9 -348.35 -137.0 -348.35 -137.0 -346.7 -129.45 -346.7 -129.45 -348.35 -131.6 -348.35 -131.6 -381.5 -101.6 -381.5 -101.6 -348.35 -103.7 -348.35 -103.7 -346.7 -96.15 -346.7 -96.15 -348.35 -98.25 -348.35 -98.25 -381.5 -68.25 -381.5 -68.25 -348.35 -70.35 -348.35 -70.35 -346.7 -62.8 -346.7 -62.8 -348.35 -64.9 -348.35 -64.9 -381.5 -34.9 -381.5 -34.9 -348.35 -37.0 -348.35 -37.0 -346.7 -29.45 -346.7 -29.45 -348.35 -31.6 -348.35 -31.6 -381.5 -1.6 -381.5 -1.6 -348.35 -3.7 -348.35 -3.7 -346.7 3.85 -346.7 3.85 -348.35 1.75 -348.35 1.75 -381.5 31.75 -381.5 31.75 -348.35 29.65 -348.35 29.65 -346.7 37.2 -346.7 37.2 -348.35 35.1 -348.35 35.1 -381.5 65.1 -381.5 65.1 -348.35 63.0 -348.35 63.0 -346.7 70.55 -346.7 70.55 -348.35 68.4 -348.35 68.4 -381.5 98.4 -381.5 98.4 -348.35 96.3 -348.35 96.3 -346.7 103.85 -346.7 103.85 -348.35 101.75 -348.35 101.75 -381.5 131.75 -381.5 131.75 -348.35 129.65 -348.35 129.65 -346.7 137.2 -346.7 137.2 -348.35 135.1 -348.35 135.1 -381.5 165.1 -381.5 165.1 -348.35 163.0 -348.35 163.0 -346.7 165.7 -346.7 206.3 -333.0 292.85 -333.0 333.65 -332.45 367.45 -326.7 365.8 -320.35 392.8 -313.4" fill="#707070" fill-rule="evenodd" stroke="none"/>
    <path d="M387.65 -287.0 L417.3 -276.0 468.0 -250.0 505.0 -218.35 535.65 -185.7 556.0 -156.7 570.65 -128.7 587.0 -89.0 599.3 -28.0 600.1 9.85 598.55 31.2 593.4 63.65 581.65 104.8 562.8 147.0 539.0 183.4 510.3 217.0 470.75 249.0 436.55 270.1 389.0 288.3 345.0 299.0 305.5 301.0 -291.0 301.0 -330.5 299.5 -389.45 289.4 -425.45 274.0 -458.35 256.3 -492.35 231.65 -515.7 210.3 -535.0 187.0 -554.35 159.65 -571.0 128.3 -583.0 99.0 -593.0 65.65 -600.35 21.0 -599.7 -23.0 -595.0 -53.0 -586.35 -86.35 -575.7 -117.7 -565.0 -139.7 -541.7 -175.7 -519.7 -203.7 -495.7 -227.0 -469.0 -247.0 -446.35 -261.0 -411.0 -279.0 -380.35 -287.7 -337.0 -297.0 -307.0 -302.0 295.0 -302.35 335.0 -298.35 387.65 -287.0" fill="#969696" fill-rule="evenodd" stroke="none"/>
    <path d="M304.6 -304.5 L331.65 -301.7 368.0 -294.85 401.9 -284.9 434.4 -271.1 465.1 -253.65 493.55 -232.7 519.4 -208.6 542.25 -181.7 561.85 -152.3 577.85 -120.8 590.15 -87.7 598.45 -53.35 602.75 -18.3 603.0 17.05 599.1 52.15 591.15 86.55 579.25 119.8 563.55 151.45 544.3 181.1 521.75 208.3 496.2 232.65 468.0 253.95 437.5 271.75 405.15 285.95 371.4 296.25 348.2 300.5 304.35 302.8 -330.0 302.7 -370.6 296.3 -404.45 285.95 -436.8 271.75 -467.3 253.95 -495.5 232.65 -521.05 208.3 -543.6 181.1 -562.85 151.45 -578.55 119.8 -590.4 86.55 -598.35 52.15 -602.25 17.05 -602.05 -18.3 -597.75 -53.35 -589.4 -87.7 -577.15 -120.8 -561.1 -152.3 -541.55 -181.7 -518.7 -208.6 -492.85 -232.7 -464.4 -253.65 -433.7 -271.1 -401.2 -284.9 -367.25 -294.85 -330.3 -300.75 -305.85 -304.2 -289.9 -305.0 284.2 -305.0 304.6 -304.5 M331.0 -296.6 L304.2 -299.5 284.15 -300.0 -289.7 -300.0 -305.2 -299.2 -330.85 -296.0 -366.15 -290.0 -399.5 -280.2 -431.5 -266.65 -461.65 -249.45 -489.65 -228.85 -515.05 -205.15 -537.55 -178.65 -556.8 -149.75 -572.55 -118.8 -584.65 -86.2 -592.85 -52.45 -597.05 -17.95 -597.25 16.75 -593.45 51.3 -585.6 85.15 -573.9 117.85 -558.5 149.0 -539.6 178.15 -517.4 204.85 -492.25 228.85 -464.5 249.75 -434.55 267.3 Q-418.6 274.3 -402.7 281.25 L-369.5 291.4 -329.6 297.7 304.2 297.8 347.6 295.5 370.2 291.4 403.4 281.25 Q419.35 274.3 435.25 267.3 L465.25 249.75 493.0 228.85 518.1 204.85 540.3 178.15 559.2 149.0 574.65 117.85 586.3 85.15 594.15 51.3 598.0 16.75 597.8 -17.95 593.55 -52.45 585.35 -86.2 573.25 -118.8 557.5 -149.75 538.25 -178.65 515.75 -205.15 490.35 -228.85 462.4 -249.45 432.2 -266.65 400.2 -280.2 366.9 -290.0 331.0 -296.6" fill="#828282" fill-rule="evenodd" stroke="none"/>
    <path d="M474.15 -97.05 L482.05 -82.0 488.55 -66.35 493.7 -50.25 497.4 -33.8 499.6 -17.05 500.35 -0.25 499.6 16.6 497.4 33.3 493.7 49.8 488.55 65.9 482.05 81.5 474.15 96.55 464.95 110.9 454.55 124.45 443.0 137.1 430.35 148.75 416.7 159.35 402.2 168.75 386.9 177.0 370.95 183.95 354.4 189.55 337.45 193.8 320.2 196.65 302.75 198.05 -301.5 198.05 -318.95 196.65 -336.25 193.8 -353.2 189.55 -369.7 183.95 -385.65 177.0 -400.95 168.75 -415.5 159.35 -429.1 148.75 -441.75 137.1 -453.35 124.45 -463.75 110.9 -472.95 96.55 -480.8 81.5 -487.35 65.9 -492.5 49.8 -496.15 33.3 -498.4 16.6 -499.15 -0.25 -498.4 -17.05 -496.15 -33.8 -492.5 -50.25 -487.35 -66.35 -480.8 -82.0 -472.95 -97.05 -463.75 -111.4 -453.35 -124.9 -441.75 -137.55 -429.1 -149.25 -415.5 -159.8 -400.95 -169.25 -385.65 -177.45 -369.7 -184.4 -353.2 -190.0 -336.25 -194.25 -318.95 -197.1 -301.5 -198.55 302.75 -198.55 320.2 -197.1 337.45 -194.25 354.4 -190.0 370.95 -184.4 386.9 -177.45 402.2 -169.25 416.7 -159.8 430.35 -149.25 443.0 -137.55 454.55 -124.9 464.95 -111.4 474.15 -97.05" fill="#7f7f7f" fill-rule="evenodd" stroke="none"/>
    <path d="M466.85 -61.45 L473.3 -49.05 478.45 -37.25 482.15 -25.05 484.45 -12.6 485.2 -0.1 484.45 12.45 482.15 24.85 478.45 37.1 473.25 49.0 466.0 61.85 457.8 73.5 448.5 84.2 438.9 93.1 426.75 103.2 413.5 112.3 399.4 120.4 399.25 120.45 386.4 126.3 371.4 132.15 354.1 137.35 337.5 140.7 322.7 143.2 292.3 145.3 98.75 145.4 -17.0 78.75 -133.7 79.0 -133.7 72.3 -15.25 72.1 100.55 138.75 292.2 138.65 321.9 136.55 336.35 134.15 352.6 130.85 369.2 125.8 383.9 120.1 396.35 114.45 Q403.25 110.55 410.1 106.6 L422.75 97.85 434.55 88.05 443.7 79.55 452.55 69.35 460.4 58.3 467.25 46.05 472.15 34.75 475.7 23.3 477.8 11.65 478.5 -0.1 477.8 -11.8 475.7 -23.45 472.15 -34.95 467.25 -46.25 461.1 -57.95 453.35 -69.0 444.7 -79.05 434.75 -88.55 423.65 -97.85 412.2 -105.55 399.75 -112.75 371.2 -125.55 353.8 -130.45 337.05 -134.4 307.3 -137.9 294.8 -138.5 -292.1 -138.5 -306.45 -137.85 -321.6 -136.5 -338.0 -133.5 -354.05 -129.5 -369.55 -124.55 -384.4 -118.75 -398.45 -112.05 -411.65 -104.55 -423.9 -96.3 -435.05 -87.35 -445.1 -77.8 -453.9 -67.7 -461.45 -57.15 -467.7 -46.25 -472.55 -34.25 -475.75 -23.1 -477.7 -11.65 -478.35 0.0 -477.7 11.95 -475.75 23.2 -472.2 35.05 -467.7 46.05 -461.45 57.0 -453.9 67.55 -445.1 77.65 -435.05 87.2 -423.9 96.1 -411.65 104.35 -398.45 111.85 -385.15 118.45 -370.1 124.5 -354.1 129.3 -338.0 133.3 -321.6 136.3 -306.15 137.65 -285.85 138.35 -84.45 138.35 -84.45 145.0 -285.95 145.0 -306.65 144.3 -322.5 142.95 -339.55 139.8 -355.95 135.7 -372.45 130.75 -387.9 124.5 -401.65 117.7 -415.15 110.05 -427.85 101.5 -439.55 92.1 -449.9 82.25 -459.25 71.55 -467.1 60.6 -473.7 49.0 -478.55 37.1 -482.3 24.75 -484.35 12.7 -485.05 -0.05 -484.35 -12.4 -482.3 -24.6 -478.85 -36.45 -473.7 -49.15 -467.1 -60.75 -459.05 -72.0 -449.9 -82.45 -439.3 -92.5 -427.85 -101.65 -415.05 -110.25 -401.55 -117.95 -386.95 -124.9 -371.8 -130.85 -355.8 -135.95 -339.35 -140.0 -322.5 -143.1 -306.85 -144.5 -292.2 -145.2 295.0 -145.2 307.85 -144.55 338.25 -140.95 355.55 -136.9 373.4 -131.85 402.85 -118.65 415.85 -111.15 427.65 -103.2 439.25 -93.45 449.55 -83.65 458.7 -72.95 466.85 -61.45" fill="#434343" fill-rule="evenodd" stroke="none"/>
    <path d="M163.55 -120.55 L165.45 -120.8 167.35 -120.8 169.25 -120.55 171.05 -120.0 172.8 -119.2 174.4 -118.2 175.85 -116.95 177.1 -115.5 178.1 -113.9 178.9 -112.15 179.45 -110.35 179.7 -108.45 179.7 -106.55 179.45 -104.65 178.9 -102.85 178.1 -101.1 177.1 -99.5 175.85 -98.1 174.4 -96.85 172.8 -95.8 171.05 -95.0 169.25 -94.45 167.35 -94.2 165.45 -94.2 163.55 -94.45 161.75 -95.0 160.0 -95.8 158.4 -96.85 155.75 -99.5 154.7 -101.1 153.9 -102.85 153.1 -106.55 153.1 -108.45 153.9 -112.15 154.7 -113.9 155.75 -115.5 157.0 -116.95 158.4 -118.2 160.0 -119.2 161.75 -120.0 163.55 -120.55" fill="#707070" fill-rule="evenodd" stroke="none"/>
    <path d="M20.45 -87.15 L22.35 -87.15 26.05 -86.35 27.8 -85.55 29.4 -84.5 30.85 -83.25 32.1 -81.85 33.1 -80.25 33.9 -78.5 34.45 -76.65 34.7 -74.8 34.7 -72.9 34.45 -71.0 33.9 -69.2 33.1 -67.45 32.1 -65.85 30.85 -64.4 29.4 -63.15 27.8 -62.15 26.05 -61.35 24.25 -60.8 22.35 -60.55 20.45 -60.55 18.55 -60.8 16.75 -61.35 15.0 -62.15 13.4 -63.15 12.0 -64.4 10.75 -65.85 9.7 -67.45 8.9 -69.2 8.1 -72.9 8.1 -74.8 8.9 -78.5 9.7 -80.25 10.75 -81.85 13.4 -84.5 15.0 -85.55 16.75 -86.35 20.45 -87.15" fill="#707070" fill-rule="evenodd" stroke="none"/>
    <path d="M-127.9 3.65 L-127.65 5.55 -127.65 7.45 -127.9 9.35 -129.2 12.9 -130.25 14.5 -131.5 15.95 -134.55 18.2 -136.25 19.0 -138.1 19.55 -140.0 19.8 -141.9 19.8 -143.75 19.55 -145.6 19.0 -147.3 18.2 -150.35 15.95 -151.6 14.5 -152.65 12.9 -153.95 9.35 -154.25 7.45 -154.25 5.55 -153.95 3.65 -152.65 0.1 -151.6 -1.5 -150.35 -2.95 -148.9 -4.2 -145.6 -6.0 -143.75 -6.55 -141.9 -6.8 -140.0 -6.8 -138.1 -6.55 -136.25 -6.0 -132.95 -4.2 -131.5 -2.95 -130.25 -1.5 -129.2 0.1 -127.9 3.65" fill="#707070" fill-rule="evenodd" stroke="none"/>
    <path d="M-239.9 14.5 L-238.9 16.1 -238.1 17.85 -237.55 19.65 -237.3 21.55 -237.3 23.45 -237.55 25.35 -238.1 27.15 -238.9 28.9 -239.9 30.5 -241.15 31.95 -244.2 34.2 -245.95 35.0 -247.75 35.55 -249.65 35.8 -251.55 35.8 -253.45 35.55 -255.25 35.0 -257.0 34.2 -258.6 33.15 -260.0 31.95 -261.25 30.5 -262.3 28.9 -263.1 27.15 -263.9 23.45 -263.9 21.55 -263.1 17.85 -262.3 16.1 -261.25 14.5 -260.0 13.05 -258.6 11.8 -257.0 10.8 -255.25 10.0 -253.45 9.45 -251.55 9.2 -249.65 9.2 -247.75 9.45 -245.95 10.0 -244.2 10.8 -242.6 11.8 -241.15 13.05 -239.9 14.5" fill="#707070" fill-rule="evenodd" stroke="none"/>
    <path d="M373.8 -78.5 L382.75 -75.85 391.2 -72.0 399.05 -66.95 406.1 -60.85 412.2 -53.8 417.2 -45.95 421.1 -37.5 423.7 -28.55 425.05 -19.35 425.05 -10.0 423.7 -0.8 421.1 8.15 417.2 16.6 412.2 24.45 406.1 31.5 399.05 37.6 391.2 42.65 382.75 46.5 373.8 49.15 364.55 50.45 355.25 50.45 346.05 49.15 337.1 46.5 328.6 42.65 320.75 37.6 313.75 31.5 307.65 24.45 302.6 16.6 298.7 8.15 296.1 -0.8 294.75 -10.0 294.75 -19.35 296.1 -28.55 298.7 -37.5 302.6 -45.95 307.65 -53.8 313.75 -60.85 320.75 -66.95 328.6 -72.0 337.1 -75.85 346.05 -78.5 355.25 -79.8 364.55 -79.8 373.8 -78.5" fill="#707070" fill-rule="evenodd" stroke="none"/>
    <path d="M173.9 -36.15 L183.25 -36.15 192.45 -34.8 201.4 -32.2 209.85 -28.3 217.7 -23.3 224.75 -17.2 230.85 -10.15 235.9 -2.3 239.75 6.2 242.4 15.1 243.7 24.35 243.7 33.65 242.4 42.9 239.75 51.8 235.9 60.3 230.85 68.15 224.75 75.15 217.7 81.25 209.85 86.3 201.4 90.2 192.45 92.8 183.25 94.15 173.9 94.15 164.7 92.8 155.75 90.2 147.3 86.3 139.45 81.25 132.4 75.15 126.3 68.15 121.25 60.3 117.4 51.8 114.75 42.9 113.45 33.65 113.45 24.35 114.75 15.1 117.4 6.2 121.25 -2.3 126.3 -10.15 132.4 -17.2 139.45 -23.3 147.3 -28.3 155.75 -32.2 164.7 -34.8 173.9 -36.15" fill="#707070" fill-rule="evenodd" stroke="none"/>
    <path d="M-3.2 -63.35 L-0.5 -54.15 0.85 -44.65 0.85 -35.05 -0.5 -25.55 -3.2 -16.3 -7.2 -7.6 -12.4 0.5 -18.65 7.75 -25.95 14.05 -34.0 19.25 -42.75 23.2 -51.95 25.95 -61.45 27.3 -71.05 27.3 -80.55 25.95 -89.8 23.2 -98.5 19.25 -106.6 14.05 -113.85 7.75 -120.15 0.5 -125.35 -7.6 -129.3 -16.3 -132.05 -25.55 -133.4 -35.05 -133.4 -44.65 -132.05 -54.15 -129.3 -63.35 -125.35 -72.1 -120.15 -80.15 -113.85 -87.45 -106.6 -93.7 -98.5 -98.9 -89.8 -102.9 -80.55 -105.6 -71.05 -106.95 -61.45 -106.95 -51.95 -105.6 -42.75 -102.9 -34.0 -98.9 -25.95 -93.7 -18.65 -87.45 -12.4 -80.15 -7.2 -72.1 -3.2 -63.35" fill="#707070" fill-rule="evenodd" stroke="none"/>
    <path d="M-358.75 -78.7 L-349.35 -81.45 -339.7 -82.85 -329.9 -82.85 -320.2 -81.45 -310.8 -78.7 -301.9 -74.65 -293.7 -69.35 -286.3 -62.95 -279.85 -55.55 -274.6 -47.3 -270.5 -38.4 -267.75 -29.05 -266.35 -19.35 -266.35 -9.55 -267.75 0.15 -270.5 9.5 -274.6 18.4 -279.85 26.65 -286.3 34.05 -293.7 40.45 -301.9 45.75 -310.8 49.8 -320.2 52.55 -329.9 53.95 -339.7 53.95 -349.35 52.55 -358.75 49.8 -367.65 45.75 -375.9 40.45 -383.3 34.05 -389.7 26.65 -395.0 18.4 -399.05 9.5 -401.8 0.15 -403.2 -9.55 -403.2 -19.35 -401.8 -29.05 -399.05 -38.4 -395.0 -47.3 -389.7 -55.55 -383.3 -62.95 -375.9 -69.35 -367.65 -74.65 -358.75 -78.7" fill="#707070" fill-rule="evenodd" stroke="none"/>
    <path d="M141.25 -55.55 L149.7 -58.85 158.35 -61.3 167.25 -62.9 176.25 -63.65 185.3 -63.55 194.25 -62.55 203.1 -60.7 211.7 -58.0 220.05 -54.45 228.0 -50.15 235.45 -45.1 242.4 -39.35 248.8 -32.95 254.55 -25.95 259.55 -18.45 263.85 -10.5 267.35 -2.2 270.0 6.45 271.85 15.3 272.8 24.25 272.55 38.1 271.35 47.05 269.25 55.85 266.35 64.4 262.65 72.65 258.15 80.45 252.9 87.8 247.0 94.65 240.45 100.85 233.3 106.4 225.7 111.25 217.65 115.35 209.25 118.65 200.55 121.1 191.65 122.7 182.65 123.45 173.65 123.35 164.65 122.35 155.8 120.5 147.2 117.8 138.9 114.25 130.95 109.95 123.45 104.9 116.5 99.15 110.1 92.75 104.4 85.8 99.35 78.3 95.1 70.35 91.6 62.0 88.9 53.35 87.1 44.55 86.1 35.55 86.35 21.7 87.6 12.75 89.65 3.95 92.55 -4.6 96.3 -12.8 100.8 -20.65 106.0 -28.0 111.95 -34.85 118.5 -41.05 125.6 -46.6 133.2 -51.45 141.25 -55.55" fill="#ffffff" fill-opacity="0.078431375" fill-rule="evenodd" stroke="none"/>
    <path d="M98.05 -131.85 L117.6 -134.1 134.4 -135.35 139.05 -134.95 143.85 -138.95 150.55 -142.55 157.85 -144.75 165.4 -145.45 172.95 -144.55 180.2 -142.2 180.9 -141.8 181.2 -141.7 187.8 -137.9 191.2 -134.9 200.3 -134.95 221.3 -132.55 241.9 -127.6 261.7 -120.2 279.15 -111.2 279.3 -111.1 279.8 -111.25 287.4 -111.95 294.95 -111.05 302.2 -108.7 308.8 -104.95 314.5 -99.9 316.4 -97.4 321.95 -100.2 330.35 -103.5 339.05 -105.95 347.95 -107.55 356.95 -108.3 366.0 -108.2 374.95 -107.2 383.8 -105.35 392.4 -102.65 Q396.6 -100.85 400.75 -99.1 L408.65 -94.8 416.15 -89.75 423.1 -84.0 429.5 -77.6 435.2 -70.65 440.25 -63.15 444.5 -55.15 448.0 -46.85 450.7 -38.2 452.5 -29.35 453.5 -20.4 453.25 -6.55 452.0 2.4 449.95 11.2 447.05 19.75 443.35 27.95 438.85 35.8 433.6 43.15 427.7 50.0 421.15 56.2 414.0 61.75 406.4 66.6 398.35 70.7 389.95 74.0 381.25 76.45 372.35 78.05 363.35 78.8 354.3 78.7 345.35 77.7 336.5 75.85 327.9 73.15 319.55 69.6 311.65 65.3 304.15 60.25 297.2 54.5 290.8 48.1 285.1 41.1 280.05 33.6 275.75 25.65 272.3 17.35 269.6 8.7 267.8 -0.15 266.8 -9.1 267.05 -22.95 268.25 -31.9 270.35 -40.7 270.35 -40.75 268.25 -41.7 262.05 -46.1 256.9 -51.7 252.95 -58.2 250.4 -65.35 249.75 -70.1 241.4 -74.4 227.25 -79.7 212.6 -83.2 197.55 -84.95 196.0 -84.95 195.4 -83.95 190.05 -78.5 183.75 -74.2 176.75 -71.3 169.25 -69.85 161.65 -69.95 154.2 -71.6 146.25 -75.2 140.1 -79.6 135.0 -85.05 123.2 -84.4 106.7 -82.55 92.0 -79.05 77.85 -73.8 64.4 -66.9 57.85 -62.45 55.5 -56.35 51.4 -49.95 46.1 -44.5 39.8 -40.2 32.75 -37.3 25.25 -35.85 24.85 -35.85 23.45 -22.7 21.35 -13.9 18.45 -5.35 14.75 2.85 10.25 10.7 5.0 18.05 -0.9 24.85 -7.45 31.1 -14.6 36.65 -22.2 41.5 -30.25 45.6 -38.65 48.85 -47.35 51.35 -56.25 52.95 -65.25 53.7 -74.3 53.55 -83.25 52.6 -92.1 50.7 -100.7 48.0 -109.05 44.5 -116.95 40.2 -120.65 37.7 -123.25 39.45 -130.25 42.35 -137.75 43.8 -145.35 43.7 -152.8 42.1 -159.15 39.25 -173.55 43.9 -194.05 49.15 -215.05 51.85 -226.95 51.95 -232.15 55.45 -239.15 58.35 -246.65 59.8 -253.85 59.7 -254.0 61.05 -255.65 63.7 -258.25 65.45 -261.25 66.0 -264.05 65.15 -272.15 57.35 -279.2 62.85 -286.9 67.75 -295.0 71.85 -303.45 75.15 -312.2 77.65 -321.15 79.3 -327.2 79.8 -327.2 90.85 -328.55 93.5 -331.0 95.3 -334.0 95.95 -337.05 95.3 -339.5 93.5 -340.9 90.9 -340.9 79.75 -348.35 78.9 -357.25 77.05 -365.95 74.3 -374.3 70.75 -382.3 66.45 -389.85 61.35 -395.65 56.55 -403.8 65.1 -406.6 66.05 -409.65 65.65 -412.3 64.0 -414.05 61.4 -414.55 58.4 -413.7 55.6 -405.2 46.75 -409.05 42.1 -414.1 34.5 -418.45 26.5 -421.95 18.1 -424.65 9.45 -426.5 0.55 -427.35 -7.55 -439.4 -7.55 -442.05 -8.9 -443.85 -11.3 -444.5 -14.35 -443.85 -17.4 -442.05 -19.85 -439.45 -21.25 -427.25 -21.25 -427.2 -22.45 -426.0 -31.45 -423.9 -40.3 -420.95 -48.95 -417.2 -57.2 -412.7 -65.1 -407.45 -72.5 -404.7 -75.65 -413.4 -84.05 -414.35 -86.85 -413.95 -89.85 -412.3 -92.5 -409.75 -94.25 -406.75 -94.75 -403.9 -93.9 -395.1 -85.45 -387.7 -91.25 -380.0 -96.15 -371.9 -100.25 -363.45 -103.55 -354.7 -106.05 -345.75 -107.65 -341.05 -108.05 -341.05 -120.05 -339.75 -122.7 -337.3 -124.5 -334.25 -125.15 -331.2 -124.5 -328.75 -122.7 -327.4 -120.1 -327.4 -108.3 -318.55 -107.3 -309.65 -105.45 -300.95 -102.7 -292.6 -99.15 -284.6 -94.85 -277.05 -89.75 -272.05 -85.6 -264.15 -93.85 -261.35 -94.8 -258.35 -94.4 -255.7 -92.75 -253.95 -90.2 -253.45 -87.2 -254.25 -84.35 -262.35 -75.95 -257.85 -70.45 -252.8 -62.9 -248.45 -54.9 -244.95 -46.5 -242.25 -37.85 -240.4 -28.9 -239.6 -21.2 -228.55 -21.2 -225.95 -19.9 -224.1 -17.45 -223.45 -14.4 -224.1 -11.35 -225.9 -8.9 -227.75 -7.95 -222.4 -3.2 -218.55 1.9 -218.45 1.9 -203.5 -0.05 -188.85 -3.8 -175.2 -9.1 -172.75 -13.95 -168.0 -19.9 -162.15 -24.8 -160.85 -25.5 -161.8 -34.2 -161.55 -48.05 -160.35 -57.0 -158.25 -65.8 -155.35 -74.35 -151.65 -82.6 -147.15 -90.4 -141.9 -97.8 -136.0 -104.6 -129.45 -110.8 -122.3 -116.4 -114.7 -121.2 -106.65 -125.3 -98.25 -128.6 -89.55 -131.05 -80.65 -132.7 -71.65 -133.45 -62.6 -133.3 -53.65 -132.3 -44.8 -130.45 -36.2 -127.75 -27.85 -124.25 -19.95 -119.9 -12.45 -114.85 -5.5 -109.1 -0.1 -103.7 0.85 -104.45 7.55 -108.05 14.85 -110.25 22.4 -110.95 29.95 -110.05 36.05 -108.1 38.85 -109.95 57.65 -119.65 77.5 -127.0 98.05 -131.85" fill="#ffffff" fill-opacity="0.14901961" fill-rule="evenodd" stroke="none"/>
    <path d="M-352.85 -62.95 L-345.8 -65.05 -338.5 -66.1 -331.1 -66.1 -323.8 -65.05 -316.7 -62.95 -309.95 -59.9 -303.75 -55.9 -298.2 -51.05 -293.35 -45.45 -289.35 -39.25 -286.3 -32.55 -284.2 -25.45 -283.15 -18.15 -283.15 -10.75 -284.2 -3.45 -286.3 3.65 -289.35 10.35 -293.35 16.55 -298.2 22.15 -303.75 27.0 -309.95 31.0 -316.7 34.05 -323.8 36.15 -331.1 37.2 -338.5 37.2 -345.8 36.15 -352.85 34.05 -359.6 31.0 -365.8 27.0 -371.4 22.15 -376.25 16.55 -380.2 10.35 -383.3 3.65 -385.35 -3.45 -386.4 -10.75 -386.4 -18.15 -385.35 -25.45 -383.3 -32.55 -380.2 -39.25 -376.25 -45.45 -371.4 -51.05 -365.8 -55.9 -359.6 -59.9 -352.85 -62.95" fill="#707070" fill-rule="evenodd" stroke="none"/>
    <path d="M373.4 -75.55 L382.0 -73.0 390.15 -69.3 397.7 -64.45 404.5 -58.55 410.35 -51.8 415.2 -44.25 418.9 -36.1 421.45 -27.5 422.7 -18.65 422.7 -9.7 421.45 -0.8 418.9 7.75 415.2 15.9 410.35 23.45 404.5 30.25 397.7 36.1 390.15 40.95 382.0 44.65 373.4 47.2 364.55 48.45 355.6 48.45 346.75 47.2 338.15 44.65 330.0 40.95 322.45 36.1 315.65 30.25 309.8 23.45 304.95 15.9 301.25 7.75 298.7 -0.8 297.45 -9.7 297.45 -18.65 298.7 -27.5 301.25 -36.1 304.95 -44.25 309.8 -51.8 315.65 -58.55 322.45 -64.45 330.0 -69.3 338.15 -73.0 346.75 -75.55 355.6 -76.8 364.55 -76.8 373.4 -75.55" fill="#707070" fill-rule="evenodd" stroke="none"/>
    <path d="M216.5 37.4 L214.9 42.6 212.65 47.55 209.65 52.15 206.05 56.25 201.85 59.85 197.2 62.8 192.2 65.05 186.9 66.6 181.45 67.35 175.95 67.35 170.45 66.6 165.15 65.05 160.15 62.8 155.5 59.85 151.35 56.25 147.7 52.15 144.75 47.55 142.45 42.6 140.9 37.4 140.1 32.0 140.1 26.55 140.9 21.15 142.45 15.95 144.75 11.0 147.7 6.4 151.35 2.3 155.5 -1.3 160.15 -4.25 165.15 -6.5 170.45 -8.05 175.95 -8.8 181.45 -8.8 186.9 -8.05 192.2 -6.5 197.2 -4.25 201.85 -1.3 206.05 2.3 209.65 6.4 212.65 11.0 214.9 15.95 216.5 21.15 217.25 26.55 217.25 32.0 216.5 37.4" fill="#707070" fill-rule="evenodd" stroke="none"/>
    <path d="M-143.2 -38.0 L-143.2 -42.0 -132.0 -42.0 -132.0 -38.0 -143.2 -38.0" fill="#707070" fill-rule="evenodd" stroke="none"/>
    <path d="M-4.25 -38.0 L-4.25 -42.0 6.9 -42.0 6.9 -38.0 -4.25 -38.0" fill="#707070" fill-rule="evenodd" stroke="none"/>
    <path d="M-32.5 -105.75 L-29.05 -103.75 -34.6 -94.1 -38.05 -96.1 -32.5 -105.75" fill="#707070" fill-rule="evenodd" stroke="none"/>
    <path d="M-101.7 14.7 L-98.25 16.7 -103.8 26.4 -107.25 24.4 -101.7 14.7" fill="#707070" fill-rule="evenodd" stroke="none"/>
    <path d="M-107.35 -103.7 L-103.9 -105.7 -98.3 -96.05 -101.8 -94.05 -107.35 -103.7" fill="#707070" fill-rule="evenodd" stroke="none"/>
    <path d="M-38.0 16.65 L-34.5 14.65 -28.95 24.3 -32.4 26.3 -38.0 16.65" fill="#707070" fill-rule="evenodd" stroke="none"/>
  </g>
</svg>
