<?xml version="1.0" encoding="UTF-8" standalone="no"?>
<svg xmlns:ffdec="https://www.free-decompiler.com/flash" xmlns:xlink="http://www.w3.org/1999/xlink" ffdec:objectType="shape" height="1060.0px" width="1666.65px" xmlns="http://www.w3.org/2000/svg">
  <g transform="matrix(1.0, 0.0, 0.0, 1.0, 834.15, 531.0)">
    <path d="M603.2 -443.05 L650.55 -406.5 693.5 -364.45 731.5 -317.5 764.1 -266.2 790.75 -211.25 811.15 -153.45 825.05 -93.6 832.2 -32.4 832.5 29.2 826.05 90.5 812.8 150.55 793.05 208.55 766.95 263.8 734.95 315.5 697.45 362.9 654.95 405.5 608.05 442.55 557.3 473.7 503.5 498.4 447.3 516.45 399.95 525.5 370.65 528.5 330.9 529.0 -333.5 529.0 -370.65 528.55 -402.15 525.4 -448.95 516.45 -505.15 498.4 -558.95 473.7 -609.65 442.55 -656.6 405.5 -699.1 362.9 -736.6 315.5 -768.6 263.8 -794.65 208.55 -814.45 150.55 -827.65 90.5 -834.15 29.2 -833.8 -32.4 -826.65 -93.6 -812.8 -153.45 -792.35 -211.25 -765.7 -266.2 -733.15 -317.5 -695.1 -364.45 -652.15 -406.5 -604.85 -443.05 -553.8 -473.55 -499.7 -497.6 -443.3 -514.95 -390.4 -524.4 -333.8 -531.0 332.15 -531.0 388.8 -524.4 441.7 -514.95 498.05 -497.6 552.15 -473.55 603.2 -443.05" fill="#707070" fill-rule="evenodd" stroke="none"/>
    <path d="M524.55 -428.95 L573.05 -401.35 618.0 -368.25 658.8 -330.2 694.95 -287.6 725.9 -241.15 751.2 -191.45 770.6 -139.1 783.8 -84.85 790.6 -29.45 790.9 26.35 784.75 81.85 772.2 136.25 753.4 188.8 728.65 238.8 698.2 285.65 662.6 328.6 622.2 367.15 577.6 400.7 529.45 428.9 478.3 451.3 424.95 467.6 371.0 477.45 361.65 478.45 314.3 479.0 -316.9 479.0 -360.95 478.5 -374.0 477.2 -426.55 467.6 -479.95 451.3 -531.05 428.9 -579.25 400.7 -623.85 367.15 -664.2 328.6 -699.85 285.65 -730.25 238.8 -755.0 188.8 -773.8 136.25 -786.35 81.85 -792.55 26.35 -792.2 -29.45 -785.4 -84.85 -772.25 -139.1 -752.85 -191.45 -727.5 -241.15 -696.55 -287.6 -660.45 -330.2 -619.65 -368.25 -574.65 -401.35 -526.15 -428.95 -474.8 -450.75 -421.25 -466.5 -375.05 -474.35 -366.25 -476.75 -317.15 -494.65 -217.35 -514.7 216.0 -514.7 315.55 -494.65 363.55 -477.15 373.85 -474.25 419.6 -466.5 473.15 -450.75 524.55 -428.95" fill="#434343" fill-rule="evenodd" stroke="none"/>
    <path d="M392.8 -313.4 L394.35 -319.45 410.25 -314.8 446.15 -299.55 474.6 -283.35 471.2 -278.5 494.05 -262.55 497.45 -267.45 511.5 -257.1 516.9 -252.05 510.15 -245.55 511.8 -243.85 519.7 -251.35 519.7 -251.4 539.5 -271.2 571.25 -239.45 543.9 -212.3 545.55 -210.65 551.8 -216.6 560.6 -206.25 556.1 -202.95 572.75 -180.6 576.7 -183.55 586.85 -168.3 604.6 -133.55 615.3 -104.65 610.65 -103.6 616.8 -76.45 622.8 -77.8 627.35 -59.05 632.1 -20.35 632.3 15.7 628.0 54.45 625.0 67.45 618.95 66.05 612.75 93.2 618.5 94.5 606.1 129.2 588.8 164.2 582.0 174.6 578.35 171.9 561.75 194.2 566.7 197.9 551.35 216.4 545.8 211.1 544.15 212.75 553.6 221.95 553.6 221.85 571.25 239.5 539.5 271.25 518.35 250.1 518.25 250.2 512.05 244.3 510.4 246.0 516.5 251.9 514.4 253.85 505.8 260.35 503.0 256.35 480.15 272.25 483.5 277.1 483.25 277.35 449.6 297.05 413.85 312.7 403.65 315.8 402.25 310.35 375.25 317.3 376.95 323.95 375.85 324.3 336.5 329.95 299.25 330.35 206.3 330.35 165.7 346.65 163.0 346.65 163.0 348.15 165.1 348.15 165.1 381.3 135.1 381.3 135.1 348.15 137.2 348.15 137.2 346.65 129.65 346.65 129.65 348.15 131.75 348.15 131.75 381.3 101.75 381.3 101.75 348.15 103.85 348.15 103.85 346.65 96.3 346.65 96.3 348.15 98.4 348.15 98.4 381.3 68.4 381.3 68.4 348.15 70.55 348.15 70.55 346.65 63.0 346.65 63.0 348.15 65.1 348.15 65.1 381.3 35.1 381.3 35.1 348.15 37.2 348.15 37.2 346.65 29.65 346.65 29.65 348.15 31.75 348.15 31.75 381.3 1.75 381.3 1.75 348.15 3.85 348.15 3.85 346.65 -3.7 346.65 -3.7 348.15 -1.6 348.15 -1.6 381.3 -31.6 381.3 -31.6 348.15 -29.45 348.15 -29.45 346.65 -37.0 346.65 -37.0 348.15 -34.9 348.15 -34.9 381.3 -64.9 381.3 -64.9 348.15 -62.8 348.15 -62.8 346.65 -70.35 346.65 -70.35 348.15 -68.25 348.15 -68.25 381.3 -98.25 381.3 -98.25 348.15 -96.15 348.15 -96.15 346.65 -103.7 346.65 -103.7 348.15 -101.6 348.15 -101.6 381.3 -131.6 381.3 -131.6 348.15 -129.45 348.15 -129.45 346.65 -137.0 346.65 -137.0 348.15 -134.9 348.15 -134.9 381.3 -164.9 381.3 -164.9 348.15 -162.8 348.15 -162.8 346.65 -166.7 346.65 -205.0 330.35 -301.05 330.35 -338.15 329.95 -367.0 325.8 -365.4 319.65 -392.4 312.7 -394.1 319.2 -415.45 312.7 -451.2 297.05 -474.7 283.25 -470.55 277.25 -493.35 261.35 -497.75 267.6 -516.05 253.85 -517.05 252.9 -509.85 245.85 -511.5 244.2 -518.85 251.2 -519.15 250.85 -539.55 271.25 -571.3 239.5 -553.1 221.25 -553.05 221.85 -543.6 212.65 -545.25 211.0 -552.1 217.5 -561.75 205.8 -555.9 201.45 -572.55 179.1 -578.05 183.2 -590.4 164.2 -607.7 129.2 -616.8 103.75 -610.05 102.2 -616.2 75.05 -624.45 76.95 -629.65 54.45 -633.95 15.7 -633.7 -20.35 -628.95 -59.05 -626.9 -67.55 -619.65 -65.9 -613.5 -93.05 -620.35 -94.6 -619.75 -96.95 -606.2 -133.55 -588.5 -168.3 -583.85 -175.25 -578.1 -170.95 -561.45 -193.25 -568.4 -198.45 -566.9 -200.75 -552.75 -217.4 -545.5 -210.55 -543.85 -212.2 -571.3 -239.45 -539.55 -271.2 -519.65 -251.3 -519.65 -251.25 -511.75 -243.75 -510.1 -245.4 -517.7 -252.8 -513.1 -257.1 -506.5 -261.95 -502.35 -256.05 -479.55 -272.0 -484.05 -278.5 -481.65 -280.25 -447.8 -299.55 -411.85 -314.8 -404.7 -316.9 -402.95 -310.2 -376.0 -317.1 -377.95 -324.75 -374.45 -325.75 -335.3 -332.45 -293.95 -333.0 -205.0 -333.0 -166.7 -346.7 -162.8 -346.7 -162.8 -348.35 -164.9 -348.35 -164.9 -381.5 -134.9 -381.5 -134.9 -348.35 -137.0 -348.35 -137.0 -346.7 -129.45 -346.7 -129.45 -348.35 -131.6 -348.35 -131.6 -381.5 -101.6 -381.5 -101.6 -348.35 -103.7 -348.35 -103.7 -346.7 -96.15 -346.7 -96.15 -348.35 -98.25 -348.35 -98.25 -381.5 -68.25 -381.5 -68.25 -348.35 -70.35 -348.35 -70.35 -346.7 -62.8 -346.7 -62.8 -348.35 -64.9 -348.35 -64.9 -381.5 -34.9 -381.5 -34.9 -348.35 -37.0 -348.35 -37.0 -346.7 -29.45 -346.7 -29.45 -348.35 -31.6 -348.35 -31.6 -381.5 -1.6 -381.5 -1.6 -348.35 -3.7 -348.35 -3.7 -346.7 3.85 -346.7 3.85 -348.35 1.75 -348.35 1.75 -381.5 31.75 -381.5 31.75 -348.35 29.65 -348.35 29.65 -346.7 37.2 -346.7 37.2 -348.35 35.1 -348.35 35.1 -381.5 65.1 -381.5 65.1 -348.35 63.0 -348.35 63.0 -346.7 70.55 -346.7 70.55 -348.35 68.4 -348.35 68.4 -381.5 98.4 -381.5 98.4 -348.35 96.3 -348.35 96.3 -346.7 103.85 -346.7 103.85 -348.35 101.75 -348.35 101.75 -381.5 131.75 -381.5 131.75 -348.35 129.65 -348.35 129.65 -346.7 137.2 -346.7 137.2 -348.35 135.1 -348.35 135.1 -381.5 165.1 -381.5 165.1 -348.35 163.0 -348.35 163.0 -346.7 165.7 -346.7 206.3 -333.0 292.85 -333.0 333.65 -332.45 367.45 -326.7 365.8 -320.35 392.8 -313.4" fill="#707070" fill-rule="evenodd" stroke="none"/>
    <path d="M387.65 -287.0 L417.3 -276.0 468.0 -250.0 505.0 -218.35 535.65 -185.7 556.0 -156.7 570.65 -128.7 587.0 -89.0 599.3 -28.0 600.1 9.85 598.55 31.2 593.4 63.65 581.65 104.8 562.8 147.0 539.0 183.4 510.3 217.0 470.75 249.0 436.55 270.1 389.0 288.3 345.0 299.0 305.5 301.0 -291.0 301.0 -330.5 299.5 -389.45 289.4 -425.45 274.0 -458.35 256.3 -492.35 231.65 -515.7 210.3 -535.0 187.0 -554.35 159.65 -571.0 128.3 -583.0 99.0 -593.0 65.65 -600.35 21.0 -599.7 -23.0 -595.0 -53.0 -586.35 -86.35 -575.7 -117.7 -565.0 -139.7 -541.7 -175.7 -519.7 -203.7 -495.7 -227.0 -469.0 -247.0 -446.35 -261.0 -411.0 -279.0 -380.35 -287.7 -337.0 -297.0 -307.0 -302.0 295.0 -302.35 335.0 -298.35 387.65 -287.0" fill="#969696" fill-rule="evenodd" stroke="none"/>
    <path d="M-513.75 -172.6 L-510.9 -172.3 -508.3 -171.2 -507.25 -170.35 -507.25 -175.25 -477.45 -175.25 -477.45 -137.25 -457.25 -137.25 -457.25 -124.6 -462.15 -117.25 -477.45 -117.25 -477.45 -108.15 -481.9 -80.8 -507.25 -80.8 -507.25 -96.35 -507.7 -95.0 -508.35 -90.8 -509.7 -86.8 -512.6 -85.45 -514.8 -95.45 -516.6 -96.6 -517.25 -102.15 -507.25 -103.55 -507.25 -117.25 -527.7 -117.25 -527.7 -137.25 -507.25 -137.25 -507.25 -155.7 -508.65 -154.6 -511.3 -153.65 -514.15 -153.5 -516.95 -154.2 -519.4 -155.65 -521.3 -157.8 -522.45 -160.4 -522.85 -163.25 -522.35 -166.05 -521.05 -168.6 -519.05 -170.65 -516.55 -172.0 -513.75 -172.6" fill="#707070" fill-rule="evenodd" stroke="none"/>
    <path d="M-454.3 -171.9 L-454.3 -169.55 -456.6 -169.55 -456.6 -171.9 -454.3 -171.9" fill="#707070" fill-rule="evenodd" stroke="none"/>
    <path d="M-422.55 -171.95 L-422.55 -169.6 -424.9 -169.6 -424.9 -171.95 -422.55 -171.95" fill="#707070" fill-rule="evenodd" stroke="none"/>
    <path d="M-456.1 -160.2 L-453.8 -160.2 -453.8 -157.9 -456.1 -157.9 -456.1 -160.2" fill="#707070" fill-rule="evenodd" stroke="none"/>
    <path d="M-424.85 -160.4 L-422.5 -160.4 -422.5 -158.05 -424.85 -158.05 -424.85 -160.4" fill="#707070" fill-rule="evenodd" stroke="none"/>
    <path d="M-373.9 -178.0 L-373.9 -175.45 -363.0 -175.45 -363.0 -163.0 -373.45 -163.0 -373.45 -152.5 -381.0 -152.5 -381.0 -143.15 -398.35 -143.15 -398.35 -146.6 -403.6 -146.6 -403.6 -149.6 -398.35 -149.6 -398.5 -152.5 -400.35 -152.5 -400.35 -178.0 -373.9 -178.0" fill="#707070" fill-rule="evenodd" stroke="none"/>
    <path d="M-186.35 -173.25 L-169.95 -173.25 -169.95 -171.6 -186.35 -171.6 -186.35 -173.25" fill="#707070" fill-rule="evenodd" stroke="none"/>
    <path d="M-299.1 -141.65 L-299.1 -138.85 -302.65 -138.85 -302.65 -141.65 -299.1 -141.65" fill="#707070" fill-rule="evenodd" stroke="none"/>
    <path d="M-293.45 -154.7 L-293.45 -145.2 -299.5 -145.2 -299.5 -154.7 -293.45 -154.7" fill="#707070" fill-rule="evenodd" stroke="none"/>
    <path d="M-336.95 -152.7 L-336.95 -143.2 -343.0 -143.2 -343.0 -152.7 -336.95 -152.7" fill="#707070" fill-rule="evenodd" stroke="none"/>
    <path d="M-212.85 -157.85 L-206.75 -157.85 -206.75 -148.35 -212.85 -148.35 -212.85 -157.85" fill="#707070" fill-rule="evenodd" stroke="none"/>
    <path d="M-169.3 -159.2 L-163.2 -159.2 -163.2 -149.7 -169.3 -149.7 -169.3 -159.2" fill="#707070" fill-rule="evenodd" stroke="none"/>
    <path d="M-155.5 -136.3 L-155.75 -142.4 -146.25 -142.8 -146.0 -136.7 -155.5 -136.3" fill="#707070" fill-rule="evenodd" stroke="none"/>
    <path d="M-250.25 -155.85 L-250.25 -146.35 -256.35 -146.35 -256.35 -155.85 -250.25 -155.85" fill="#707070" fill-rule="evenodd" stroke="none"/>
    <path d="M-294.7 -229.75 L-294.7 -240.75 -282.85 -240.75 -282.85 -233.85 -261.7 -233.85 -261.7 -229.75 -294.7 -229.75" fill="#707070" fill-rule="evenodd" stroke="none"/>
    <path d="M-301.75 -87.0 L-301.75 -90.1 -298.0 -90.1 -298.0 -87.0 -275.25 -87.0 -275.25 -74.6 -272.8 -87.45 -266.15 -87.45 -266.15 -64.8 -337.0 -64.8 -337.0 -86.85 -339.75 -86.85 -339.75 -89.85 -336.0 -89.85 -336.0 -87.0 -301.75 -87.0" fill="#707070" fill-rule="evenodd" stroke="none"/>
    <path d="M102.35 -265.65 L100.4 -266.5 104.75 -275.1 103.75 -275.85 106.2 -280.3 132.1 -266.9 130.6 -262.95 135.75 -260.4 135.65 -261.65 136.65 -300.4 139.95 -300.3 139.0 -261.75 140.5 -245.2 137.2 -244.85 136.2 -255.55 132.6 -248.75 113.85 -258.1 112.3 -255.85 100.65 -262.2 102.35 -265.65" fill="#707070" fill-rule="evenodd" stroke="none"/>
    <path d="M139.2 -201.8 L140.75 -198.7 148.55 -201.6 152.65 -189.0 135.65 -182.15 135.65 -165.6 142.95 -165.6 142.95 -145.2 133.45 -145.2 133.4 -181.25 121.4 -176.35 119.4 -181.8 121.2 -182.8 118.65 -189.15 113.65 -187.6 111.65 -193.45 139.2 -201.8" fill="#707070" fill-rule="evenodd" stroke="none"/>
    <path d="M184.3 -259.75 L182.15 -261.5 181.8 -270.2 197.15 -271.45 196.5 -278.85 218.65 -282.0 219.5 -273.35 250.15 -277.35 252.0 -269.35 281.8 -272.7 286.15 -272.7 287.3 -254.35 255.0 -250.0 251.8 -250.35 186.15 -242.2 184.3 -259.75" fill="#707070" fill-rule="evenodd" stroke="none"/>
    <path d="M223.85 -208.25 L227.55 -212.45 232.05 -215.75 237.2 -217.95 242.7 -219.0 248.3 -218.75 253.7 -217.25 258.65 -214.6 262.85 -210.9 266.15 -206.4 268.35 -201.25 269.35 -195.75 269.1 -190.15 267.65 -184.75 265.0 -179.8 261.3 -175.6 256.8 -172.3 251.65 -170.1 246.1 -169.05 240.55 -169.3 235.15 -170.8 230.2 -173.45 226.0 -177.15 222.7 -181.65 220.45 -186.8 219.45 -192.3 219.7 -197.9 221.2 -203.3 223.85 -208.25" fill="#707070" fill-rule="evenodd" stroke="none"/>
    <path d="M150.2 -166.95 L156.3 -167.0 156.4 -157.5 150.3 -157.45 150.2 -166.95" fill="#707070" fill-rule="evenodd" stroke="none"/>
    <path d="M193.3 -166.7 L199.4 -166.8 199.5 -157.3 193.4 -157.2 193.3 -166.7" fill="#707070" fill-rule="evenodd" stroke="none"/>
    <path d="M236.75 -167.05 L242.85 -167.1 242.95 -157.6 236.85 -157.55 236.75 -167.05" fill="#707070" fill-rule="evenodd" stroke="none"/>
    <path d="M267.65 -175.3 L272.9 -167.35 267.8 -164.0 262.6 -171.95 267.65 -175.3" fill="#707070" fill-rule="evenodd" stroke="none"/>
    <path d="M293.35 -179.7 L288.15 -187.65 293.2 -190.95 298.45 -183.05 293.35 -179.7" fill="#707070" fill-rule="evenodd" stroke="none"/>
    <path d="M324.8 -210.4 L329.9 -213.75 335.1 -205.8 330.05 -202.45 324.8 -210.4" fill="#707070" fill-rule="evenodd" stroke="none"/>
    <path d="M394.15 -194.6 L397.05 -192.85 399.05 -190.9 394.55 -183.3 389.3 -186.4 394.15 -194.6" fill="#707070" fill-rule="evenodd" stroke="none"/>
    <path d="M424.05 -218.15 L424.05 -215.7 434.85 -215.7 434.85 -203.25 429.2 -203.25 429.2 -205.35 423.3 -205.25 423.4 -193.25 397.4 -193.25 397.4 -218.15 424.05 -218.15" fill="#707070" fill-rule="evenodd" stroke="none"/>
    <path d="M419.6 -187.15 L425.4 -187.25 425.4 -186.85 445.45 -186.85 445.45 -179.0 425.4 -179.0 425.4 -177.7 419.6 -177.7 419.6 -187.15" fill="#707070" fill-rule="evenodd" stroke="none"/>
    <path d="M354.5 -213.0 L338.0 -212.35 337.15 -234.85 354.3 -235.9 354.8 -215.35 360.9 -212.0 356.05 -203.8 350.8 -206.9 354.5 -213.0" fill="#707070" fill-rule="evenodd" stroke="none"/>
    <path d="M159.5 -154.1 L159.5 -152.0 156.8 -152.0 156.8 -154.1 159.5 -154.1" fill="#707070" fill-rule="evenodd" stroke="none"/>
    <path d="M196.95 -154.05 L196.95 -151.95 194.3 -151.95 194.3 -154.05 196.95 -154.05" fill="#707070" fill-rule="evenodd" stroke="none"/>
    <path d="M159.4 -103.0 L159.4 -100.95 156.75 -100.95 156.75 -103.0 159.4 -103.0" fill="#707070" fill-rule="evenodd" stroke="none"/>
    <path d="M194.25 -100.85 L194.25 -102.95 196.95 -102.95 196.95 -100.85 194.25 -100.85" fill="#707070" fill-rule="evenodd" stroke="none"/>
    <path d="M234.6 -94.5 L234.6 -92.45 231.95 -92.45 231.95 -94.5 234.6 -94.5" fill="#707070" fill-rule="evenodd" stroke="none"/>
    <path d="M272.45 -94.45 L272.45 -92.4 269.8 -92.4 269.8 -94.45 272.45 -94.45" fill="#707070" fill-rule="evenodd" stroke="none"/>
    <path d="M310.3 -94.75 L310.3 -92.7 307.65 -92.7 307.65 -94.75 310.3 -94.75" fill="#707070" fill-rule="evenodd" stroke="none"/>
    <path d="M547.65 -75.85 L541.0 -69.2 538.95 -71.1 544.8 -77.8 547.65 -75.85" fill="#707070" fill-rule="evenodd" stroke="none"/>
    <path d="M474.65 -75.65 L476.7 -77.55 481.95 -72.05 479.95 -70.15 474.65 -75.65" fill="#707070" fill-rule="evenodd" stroke="none"/>
    <path d="M538.8 -11.45 L540.8 -13.35 547.3 -6.7 545.25 -4.8 538.8 -11.45" fill="#707070" fill-rule="evenodd" stroke="none"/>
    <path d="M480.4 -12.25 L482.4 -10.35 477.15 -4.8 475.1 -6.7 480.4 -12.25" fill="#707070" fill-rule="evenodd" stroke="none"/>
    <path d="M539.75 76.05 L544.0 79.75 547.25 84.3 549.5 89.45 550.5 94.95 550.25 100.55 548.75 105.95 546.1 110.85 542.4 115.1 537.9 118.4 532.75 120.6 527.25 121.6 521.65 121.35 516.25 119.85 511.3 117.2 507.1 113.55 503.8 109.0 501.6 103.85 500.6 98.35 500.7 96.1 496.85 96.1 496.85 87.2 502.4 87.2 504.95 82.4 508.65 78.2 513.15 74.9 518.3 72.7 523.85 71.7 529.4 71.95 534.8 73.4 539.75 76.05" fill="#707070" fill-rule="evenodd" stroke="none"/>
    <path d="M504.9 129.2 L509.25 124.95 515.9 131.7 511.55 135.95 504.9 129.2" fill="#707070" fill-rule="evenodd" stroke="none"/>
    <path d="M473.0 158.1 L477.35 153.8 484.0 160.6 479.7 164.85 473.0 158.1" fill="#707070" fill-rule="evenodd" stroke="none"/>
    <path d="M440.8 186.95 L445.15 182.7 451.8 189.5 447.45 193.75 440.8 186.95" fill="#707070" fill-rule="evenodd" stroke="none"/>
    <path d="M380.3 74.2 L384.85 70.9 390.0 68.7 395.5 67.7 401.1 67.95 406.5 69.4 411.4 72.05 415.65 75.75 418.95 80.3 421.15 85.45 422.15 90.95 421.9 96.55 420.4 101.95 417.75 106.85 414.1 111.1 409.55 114.4 404.4 116.6 398.9 117.6 393.3 117.35 387.9 115.85 382.95 113.2 378.75 109.55 375.45 105.0 373.25 99.85 372.25 94.35 372.5 88.75 374.0 83.35 376.65 78.4 380.3 74.2" fill="#707070" fill-rule="evenodd" stroke="none"/>
    <path d="M419.95 217.3 L422.15 222.45 423.15 227.95 422.9 233.55 421.4 238.95 418.75 243.85 415.1 248.1 410.55 251.4 405.4 253.6 399.9 254.6 394.3 254.35 388.9 252.85 383.95 250.2 379.75 246.55 376.45 242.0 374.25 236.85 373.25 231.35 373.5 225.75 375.0 220.35 377.65 215.4 381.3 211.2 385.85 207.9 391.0 205.7 396.5 204.7 402.1 204.95 407.5 206.4 412.4 209.05 416.65 212.75 419.95 217.3" fill="#707070" fill-rule="evenodd" stroke="none"/>
    <path d="M453.6 96.55 L453.7 87.05 459.75 87.1 459.7 96.6 453.6 96.55" fill="#707070" fill-rule="evenodd" stroke="none"/>
    <path d="M402.35 131.0 L402.35 137.1 392.85 137.0 392.85 131.0 402.35 131.0" fill="#707070" fill-rule="evenodd" stroke="none"/>
    <path d="M392.85 180.0 L392.85 173.9 402.35 173.95 402.35 180.05 392.85 180.0" fill="#707070" fill-rule="evenodd" stroke="none"/>
    <path d="M384.8 -135.7 L389.25 -135.25 390.15 -140.95 414.8 -137.95 413.3 -124.85 403.5 -125.7 403.25 -123.45 383.55 -126.45 384.8 -135.7" fill="#707070" fill-rule="evenodd" stroke="none"/>
    <path d="M401.3 -101.7 L403.3 -100.15 404.55 -95.8 403.85 -93.0 403.3 -83.35 401.3 -83.8 399.65 -89.7 399.1 -89.8 396.2 -83.0 381.85 -91.15 384.55 -96.45 380.4 -96.9 380.4 -99.45 379.0 -99.35 379.1 -102.8 381.1 -102.7 381.55 -106.45 394.1 -105.25 393.55 -98.6 396.85 -101.9 401.3 -101.7" fill="#707070" fill-rule="evenodd" stroke="none"/>
    <path d="M329.5 187.5 L329.5 200.3 295.3 200.3 295.3 187.5 329.5 187.5" fill="#707070" fill-rule="evenodd" stroke="none"/>
    <path d="M228.65 188.3 L228.65 201.15 194.5 201.15 194.5 188.3 228.65 188.3" fill="#707070" fill-rule="evenodd" stroke="none"/>
    <path d="M325.3 132.3 L325.3 137.15 299.8 137.15 299.8 132.3 325.3 132.3" fill="#707070" fill-rule="evenodd" stroke="none"/>
    <path d="M198.8 137.0 L198.8 132.15 224.3 132.15 224.3 137.0 198.8 137.0" fill="#707070" fill-rule="evenodd" stroke="none"/>
    <path d="M239.65 191.65 L239.65 188.0 243.15 188.0 243.15 191.65 239.65 191.65" fill="#707070" fill-rule="evenodd" stroke="none"/>
    <path d="M277.3 187.65 L280.8 187.65 280.8 191.3 277.3 191.3 277.3 187.65" fill="#707070" fill-rule="evenodd" stroke="none"/>
    <path d="M277.4 136.9 L280.9 136.9 280.9 140.25 277.4 140.25 277.4 136.9" fill="#707070" fill-rule="evenodd" stroke="none"/>
    <path d="M239.7 137.1 L243.2 137.1 243.2 140.4 239.7 140.4 239.7 137.1" fill="#707070" fill-rule="evenodd" stroke="none"/>
    <path d="M102.3 267.3 L120.0 276.65 120.5 279.65 117.5 286.0 114.15 287.3 102.5 281.4 101.15 283.5 95.5 280.3 102.3 267.3" fill="#707070" fill-rule="evenodd" stroke="none"/>
    <path d="M-160.95 87.5 L-154.9 87.45 -154.8 96.95 -160.85 97.0 -160.95 87.5" fill="#707070" fill-rule="evenodd" stroke="none"/>
    <path d="M-285.35 185.0 L-280.75 181.65 -275.55 179.4 -269.95 178.35 -264.3 178.6 -258.85 180.1 -253.85 182.85 -249.55 186.6 -246.2 191.2 -244.0 196.45 -242.95 202.05 -243.2 207.8 -244.7 213.3 -247.4 218.3 -251.15 222.6 -255.7 226.0 -260.95 228.25 -266.5 229.25 -272.2 229.0 -277.65 227.5 -282.65 224.8 -286.95 221.05 -290.3 216.4 -292.5 211.15 -293.55 205.55 -293.3 199.85 -291.8 194.35 -289.1 189.3 -285.35 185.0" fill="#707070" fill-rule="evenodd" stroke="none"/>
    <path d="M-408.15 186.1 L-404.45 181.85 -399.95 178.55 -394.8 176.35 -389.3 175.35 -383.7 175.6 -378.3 177.1 -373.35 179.75 -369.15 183.4 -365.85 187.95 -363.65 193.1 -362.65 198.6 -362.9 204.2 -364.35 209.6 -367.0 214.55 -370.7 218.75 -375.2 222.05 -380.35 224.25 -385.9 225.25 -391.45 225.0 -396.85 223.55 -401.8 220.9 -406.0 217.2 -409.3 212.65 -411.55 207.5 -412.55 202.0 -412.3 196.4 -410.8 191.0 -408.15 186.1" fill="#707070" fill-rule="evenodd" stroke="none"/>
    <path d="M-422.95 187.75 L-420.95 186.5 -418.65 186.05 -416.35 186.6 -414.45 187.95 -413.2 189.9 -412.8 192.25 -413.3 194.5 -414.65 196.45 -416.65 197.7 -418.95 198.1 -421.25 197.6 -423.15 196.25 -424.4 194.25 -424.8 191.95 -424.3 189.65 -422.95 187.75" fill="#707070" fill-rule="evenodd" stroke="none"/>
    <path d="M-416.35 205.6 L-414.45 206.95 -413.2 208.9 -412.8 211.25 -413.3 213.5 -414.65 215.45 -416.65 216.7 -418.95 217.1 -421.25 216.6 -423.15 215.25 -424.4 213.25 -424.8 210.95 -424.3 208.65 -422.95 206.75 -420.95 205.5 -418.65 205.05 -416.35 205.6" fill="#707070" fill-rule="evenodd" stroke="none"/>
    <path d="M-469.15 131.2 L-466.0 128.9 -462.4 127.35 -458.55 126.65 -454.65 126.8 -450.9 127.85 -447.45 129.7 -444.5 132.25 -442.2 135.45 -440.65 139.0 -439.95 142.85 -440.15 146.75 -441.15 150.55 -443.0 153.95 -445.6 156.9 -448.75 159.2 -452.35 160.75 -456.2 161.45 -460.1 161.3 -463.85 160.25 Q-465.55 159.35 -467.3 158.4 L-470.25 155.85 -472.55 152.7 -474.05 149.1 -474.75 145.25 -474.6 141.35 -473.55 137.55 -471.7 134.15 -469.15 131.2" fill="#707070" fill-rule="evenodd" stroke="none"/>
    <path d="M-407.05 137.8 L-400.95 137.75 -400.85 147.25 -406.95 147.3 -407.05 137.8" fill="#707070" fill-rule="evenodd" stroke="none"/>
    <path d="M-333.65 207.85 L-333.75 198.35 -327.65 198.3 -327.6 207.8 -333.65 207.85" fill="#707070" fill-rule="evenodd" stroke="none"/>
    <path d="M-393.45 159.85 L-393.55 153.75 -384.05 153.7 -383.95 159.75 -393.45 159.85" fill="#707070" fill-rule="evenodd" stroke="none"/>
    <path d="M-150.35 248.65 L-149.85 275.3 -151.2 275.35 -151.2 298.65 -159.85 298.65 -159.85 275.6 -217.7 277.4 -217.7 269.0 -194.8 267.85 -195.7 264.15 -243.25 267.85 -243.5 265.65 -242.8 260.1 -243.85 254.8 -195.85 251.15 -195.85 250.15 -150.35 248.65" fill="#707070" fill-rule="evenodd" stroke="none"/>
    <path d="M-239.0 74.0 L-239.25 80.35 -204.5 78.8 -203.0 82.55 -202.55 86.05 -199.5 86.15 -199.0 100.3 -203.35 99.65 -203.35 108.3 -212.55 108.45 -213.0 118.0 -234.7 116.0 -235.35 110.0 -237.4 109.85 -237.5 112.65 -237.2 115.3 -240.15 115.0 -244.15 119.65 -249.25 115.55 -277.35 116.15 -279.9 117.4 -279.9 120.1 -282.35 119.85 -284.1 117.25 -288.35 120.15 -293.1 122.15 -298.2 123.15 -303.35 123.2 -308.4 122.2 -313.2 120.25 -317.5 117.4 -321.15 113.75 -321.9 112.65 -326.85 113.5 -328.2 84.3 -323.5 83.75 -321.25 80.35 -317.65 76.7 -313.35 73.8 -308.6 71.8 -303.55 70.8 -298.4 70.75 -293.3 71.75 -288.55 73.7 -284.25 76.55 -280.6 80.2 -280.15 80.85 -278.65 81.05 -278.85 75.65 -239.0 74.0" fill="#707070" fill-rule="evenodd" stroke="none"/>
    <path d="M133.75 -296.8 L133.1 -287.6 111.1 -289.45 111.55 -298.25 133.75 -296.8" fill="#707070" fill-rule="evenodd" stroke="none"/>
    <path d="M110.65 -282.0 L108.65 -281.8 107.1 -298.8 109.1 -299.0 110.65 -282.0" fill="#707070" fill-rule="evenodd" stroke="none"/>
    <path d="M191.0 -300.2 L191.0 -297.65 188.4 -297.65 188.4 -300.2 191.0 -300.2" fill="#707070" fill-rule="evenodd" stroke="none"/>
    <path d="M124.4 -99.7 L125.8 -100.35 127.15 -100.0 128.25 -98.6 129.25 -96.75 130.0 -94.5 129.0 -92.5 128.05 -91.95 124.65 -93.2 123.65 -93.95 123.15 -95.1 123.5 -97.25 124.4 -99.7" fill="#707070" fill-rule="evenodd" stroke="none"/>
    <path d="M127.0 -87.1 L128.5 -85.7 129.9 -81.25 130.5 -80.2 131.25 -73.35 130.4 -71.75 126.5 -69.1 121.65 -71.2 119.8 -72.85 120.0 -69.95 118.15 -65.85 114.05 -63.35 111.25 -62.75 109.8 -63.85 109.25 -68.7 110.55 -71.85 115.4 -75.75 117.9 -75.5 119.0 -75.0 117.0 -80.35 117.4 -83.0 118.75 -87.6 120.65 -90.25 122.55 -90.45 124.55 -89.1 126.0 -87.25 127.0 -87.1" fill="#707070" fill-rule="evenodd" stroke="none"/>
    <path d="M-233.0 -261.6 L-233.0 -281.45 -183.7 -281.45 -153.45 -280.05 -153.45 -298.35 -130.9 -298.8 -107.8 -298.35 -108.0 -279.9 -100.6 -279.9 -100.6 -256.5 -99.4 -256.45 -100.3 -238.2 -98.0 -238.2 -98.0 -220.7 -120.0 -220.7 -120.0 -228.6 -123.9 -219.35 -125.55 -220.0 -124.65 -222.2 -146.5 -225.7 -145.1 -235.85 -160.9 -236.15 -160.85 -228.35 -193.2 -228.85 -193.2 -239.2 -181.15 -239.2 -196.7 -241.35 -195.45 -251.0 -218.35 -251.0 -218.35 -261.6 -233.0 -261.6" fill="#707070" fill-rule="evenodd" stroke="none"/>
    <path d="M-187.15 -175.8 L-187.15 -170.8 -192.6 -170.8 -192.6 -175.8 -187.15 -175.8" fill="#707070" fill-rule="evenodd" stroke="none"/>
    <path d="M-169.25 -175.7 L-163.8 -175.7 -163.8 -170.7 -169.25 -170.7 -169.25 -175.7" fill="#707070" fill-rule="evenodd" stroke="none"/>
    <path d="M-269.6 -175.75 L-269.6 -174.1 -285.95 -174.1 -285.95 -175.75 -269.6 -175.75" fill="#707070" fill-rule="evenodd" stroke="none"/>
    <path d="M-286.75 -173.3 L-292.2 -173.3 -292.2 -178.3 -286.75 -178.3 -286.75 -173.3" fill="#707070" fill-rule="evenodd" stroke="none"/>
    <path d="M-268.85 -173.2 L-268.85 -178.2 -263.4 -178.2 -263.4 -173.2 -268.85 -173.2" fill="#707070" fill-rule="evenodd" stroke="none"/>
    <path d="M121.8 -61.85 L122.15 -64.85 125.15 -67.5 128.15 -66.35 130.8 -64.5 131.0 -62.2 128.3 -59.5 124.8 -59.0 121.8 -61.85" fill="#707070" fill-rule="evenodd" stroke="none"/>
    <path d="M182.15 15.65 L182.65 25.3 171.85 26.95 182.9 26.8 183.05 36.8 160.55 37.15 160.55 28.7 160.0 28.8 158.5 18.8 182.15 15.65" fill="#707070" fill-rule="evenodd" stroke="none"/>
    <path d="M365.0 -54.0 L365.0 -41.7 428.3 -41.7 423.0 -35.35 420.0 -20.35 420.65 7.0 423.0 16.65 428.3 21.3 365.0 21.3 365.0 34.0 347.5 34.0 347.5 20.15 346.5 15.0 346.5 8.05 345.65 8.55 345.2 10.1 344.1 12.75 340.1 13.2 339.5 9.3 340.3 6.8 338.75 6.75 335.4 7.2 334.1 6.1 334.3 2.55 335.65 -0.8 340.3 -3.85 341.8 -2.5 342.1 1.85 344.55 3.0 346.5 3.4 346.5 -0.5 344.55 -1.45 343.65 -3.25 343.65 -5.45 346.5 -6.9 346.5 -33.55 345.5 -35.0 345.5 -36.85 343.8 -36.0 339.65 -36.35 338.8 -37.85 340.3 -40.5 343.75 -41.7 341.3 -43.7 340.65 -45.35 343.0 -48.5 347.5 -48.75 347.5 -54.0 365.0 -54.0" fill="#707070" fill-rule="evenodd" stroke="none"/>
    <path d="M233.65 10.2 L233.65 12.9 194.3 13.05 194.3 10.4 233.65 10.2" fill="#707070" fill-rule="evenodd" stroke="none"/>
    <path d="M194.3 -75.6 L202.1 -65.6 204.65 -61.45 153.2 -61.45 153.2 -51.2 156.3 -51.2 156.3 -44.7 153.2 -44.7 153.2 -24.0 151.15 -24.0 151.15 24.3 155.2 24.3 155.2 35.0 146.65 35.0 146.65 39.3 204.3 39.3 204.3 29.0 212.0 29.0 212.0 39.3 252.3 39.3 252.3 29.0 260.0 29.0 260.0 39.3 277.15 39.3 272.1 11.4 274.3 10.55 281.0 43.65 278.1 44.55 278.0 43.9 278.0 47.3 149.0 47.3 149.0 49.25 170.3 50.1 169.85 58.75 202.75 58.55 206.55 78.1 149.0 78.95 149.0 79.3 160.3 85.3 159.0 89.3 164.65 91.3 164.65 98.65 138.65 98.65 138.65 79.9 137.0 80.0 137.0 47.65 132.3 47.65 129.0 46.55 127.2 42.55 127.3 6.15 136.65 6.15 136.65 36.65 137.0 37.2 137.0 24.65 137.65 24.65 137.65 -39.5 134.15 -39.5 134.15 -52.85 144.3 -52.85 144.3 -56.7 150.6 -56.7 150.6 -61.45 134.15 -61.45 134.15 -55.7 131.8 -55.7 131.8 -106.0 142.5 -106.0 142.5 -104.35 133.5 -104.35 133.5 -103.2 142.3 -103.2 142.3 -101.5 134.15 -101.5 134.15 -63.0 141.3 -63.0 141.3 -75.6 194.3 -75.6" fill="#707070" fill-rule="evenodd" stroke="none"/>
    <path d="M234.45 -43.5 L234.45 -41.45 231.75 -41.45 231.75 -43.5 234.45 -43.5" fill="#707070" fill-rule="evenodd" stroke="none"/>
    <path d="M231.45 -38.25 L231.45 -40.35 234.1 -40.35 234.1 -38.25 231.45 -38.25" fill="#707070" fill-rule="evenodd" stroke="none"/>
    <path d="M193.95 -40.2 L196.6 -40.2 196.6 -38.1 193.95 -38.1 193.95 -40.2" fill="#707070" fill-rule="evenodd" stroke="none"/>
    <path d="M272.5 -43.65 L272.5 -41.55 269.85 -41.55 269.85 -43.65 272.5 -43.65" fill="#707070" fill-rule="evenodd" stroke="none"/>
    <path d="M307.2 -41.55 L307.2 -43.65 309.85 -43.65 309.85 -41.55 307.2 -41.55" fill="#707070" fill-rule="evenodd" stroke="none"/>
    <path d="M159.1 -40.2 L159.1 -38.1 156.45 -38.1 156.45 -40.2 159.1 -40.2" fill="#707070" fill-rule="evenodd" stroke="none"/>
    <path d="M338.15 10.0 L338.0 12.3 336.3 13.3 335.0 13.0 335.15 9.65 336.3 8.3 338.15 10.0" fill="#707070" fill-rule="evenodd" stroke="none"/>
    <path d="M338.3 -43.35 L340.0 -43.2 339.15 -40.7 337.3 -40.35 336.0 -41.85 338.3 -43.35" fill="#707070" fill-rule="evenodd" stroke="none"/>
    <path d="M200.55 57.0 L177.85 57.0 177.85 47.65 200.55 47.65 200.55 57.0" fill="#707070" fill-rule="evenodd" stroke="none"/>
    <path d="M120.6 139.3 L121.4 142.35 129.4 140.85 140.3 135.65 133.9 136.25 120.6 139.3 M111.3 129.55 L128.4 125.1 128.95 124.05 131.3 123.4 134.0 128.1 134.3 122.1 153.2 120.1 165.2 120.3 165.2 128.75 159.4 128.75 159.3 134.1 141.4 135.6 142.75 138.85 159.4 135.1 160.85 143.75 116.75 152.75 115.7 147.65 115.65 147.65 111.3 129.55" fill="#707070" fill-rule="evenodd" stroke="none"/>
    <path d="M174.8 220.2 L177.5 220.2 177.5 223.85 174.8 223.85 174.8 220.2" fill="#707070" fill-rule="evenodd" stroke="none"/>
    <path d="M175.3 299.35 L175.3 295.7 177.3 295.7 177.3 299.35 175.3 299.35" fill="#707070" fill-rule="evenodd" stroke="none"/>
    <path d="M167.15 276.65 L164.65 267.3 186.15 261.3 189.0 270.0 167.15 276.65" fill="#707070" fill-rule="evenodd" stroke="none"/>
    <path d="M135.5 280.0 L185.8 280.0 185.8 292.8 135.5 292.8 135.5 280.0" fill="#707070" fill-rule="evenodd" stroke="none"/>
    <path d="M134.0 210.8 L135.5 213.0 135.5 220.3 134.3 221.3 126.5 221.65 126.45 242.15 194.15 242.0 194.0 259.5 126.4 259.15 126.3 298.15 124.0 297.8 124.0 242.0 121.65 241.8 120.8 192.0 124.3 191.8 123.8 197.8 133.8 197.5 134.0 210.8" fill="#707070" fill-rule="evenodd" stroke="none"/>
    <path d="M118.0 261.8 L119.15 261.15 121.65 262.65 121.0 265.0 119.0 266.5 115.8 265.65 114.65 266.8 118.0 268.3 119.3 270.5 118.8 271.8 117.0 272.3 114.8 271.65 112.8 269.3 113.15 267.65 110.65 268.8 106.65 268.15 106.1 267.05 107.65 264.0 110.65 262.0 114.0 262.15 116.0 264.0 118.0 261.8" fill="#707070" fill-rule="evenodd" stroke="none"/>
    <path d="M104.3 262.65 L105.3 263.0 105.1 264.5 104.25 266.05 103.3 266.45 101.55 265.75 101.3 264.65 101.7 263.55 102.45 262.9 104.3 262.65" fill="#707070" fill-rule="evenodd" stroke="none"/>
    <path d="M-193.2 298.5 L-213.7 289.0 -210.2 281.15 -189.2 291.0 -193.2 298.5" fill="#707070" fill-rule="evenodd" stroke="none"/>
    <path d="M-170.5 280.15 L-170.5 277.5 -163.7 277.5 -163.7 291.5 -170.5 293.15 -183.2 294.0 -185.2 291.15 -185.0 280.8 -183.35 280.15 -170.5 280.15" fill="#707070" fill-rule="evenodd" stroke="none"/>
    <path d="M-134.15 136.75 L-132.8 135.4 -131.0 135.65 -130.6 137.2 -129.9 141.4 -126.8 140.75 -123.0 163.65 Q-120.55 164.9 -118.15 166.1 L-114.8 169.85 -113.9 173.65 -115.25 175.85 -119.0 176.75 -122.8 175.85 -120.8 177.2 -120.6 181.2 -121.15 182.1 -120.6 182.75 -119.0 183.85 -117.45 182.55 -117.5 180.3 -116.9 179.0 -115.9 178.55 -112.35 178.55 -111.1 180.25 -111.45 182.05 -113.2 183.35 -115.9 183.65 -116.6 185.65 -118.8 188.1 -122.15 188.8 -121.7 191.2 -123.0 193.65 -124.15 193.65 -125.25 191.4 -130.6 212.1 -139.0 209.85 -138.8 208.3 -141.9 207.0 -144.8 216.3 -166.35 209.2 -164.8 203.2 -166.15 202.55 -165.25 192.1 -170.6 192.1 -172.35 190.55 -172.8 187.2 -170.8 179.0 -161.7 179.65 -160.15 175.0 -151.25 176.55 -155.25 143.4 -154.8 141.65 -152.8 140.3 -153.25 135.2 -144.6 135.2 -138.8 163.2 -139.0 149.4 -135.7 146.55 -136.15 142.3 -133.7 141.85 -134.15 136.75" fill="#707070" fill-rule="evenodd" stroke="none"/>
    <path d="M-391.0 -36.6 L-395.25 -42.15 -342.15 -42.15 -342.15 -54.15 -325.0 -54.15 -325.0 -42.15 -324.8 -42.15 -324.8 -33.45 -316.8 -33.45 -317.7 -14.8 -318.8 -11.45 -318.8 -1.25 -317.7 3.65 -318.35 12.1 -316.4 12.55 -315.0 11.0 -313.25 8.55 -309.0 8.1 -307.25 8.85 -307.8 12.2 -310.6 14.55 -313.7 14.55 -315.0 16.55 -315.1 16.6 -313.0 19.3 -311.45 20.55 -310.8 22.3 -311.0 25.75 -311.7 28.0 -312.8 30.1 -313.9 31.3 -315.45 30.85 -316.8 28.4 -317.45 25.85 -318.25 24.55 -319.15 25.0 -321.9 24.3 -323.0 23.3 -323.9 20.4 -325.0 19.85 -325.0 31.85 -342.15 31.85 -342.15 21.3 -348.15 21.3 -349.45 21.75 -352.35 23.2 -353.35 25.4 -348.6 25.4 -346.15 25.75 -346.0 27.85 -346.6 30.0 -348.0 31.85 -350.35 33.55 -352.9 33.75 -356.15 32.4 -357.8 33.85 -360.8 34.65 -362.15 34.0 -363.6 32.55 -365.15 31.75 -364.45 30.0 -362.35 29.0 -361.25 28.65 -357.15 29.0 -356.25 30.3 -354.25 27.3 -354.7 25.4 -355.8 23.3 -354.8 21.3 -399.45 21.3 -394.6 15.2 -391.7 8.1 -390.35 -7.9 -391.0 -36.6" fill="#707070" fill-rule="evenodd" stroke="none"/>
    <path d="M-321.8 27.3 L-320.15 25.75 -318.7 27.1 -318.45 28.65 -319.6 30.4 -321.25 31.0 -322.25 27.2 -321.8 27.3" fill="#707070" fill-rule="evenodd" stroke="none"/>
    <path d="M-382.0 24.4 L-376.45 24.85 -375.8 26.4 -375.7 28.0 -374.45 28.0 -371.9 29.75 -370.8 32.2 -371.45 33.55 -374.7 33.85 -377.6 31.2 -377.6 29.75 -377.25 28.3 -380.35 30.0 -384.6 30.1 -385.6 29.0 -385.7 27.4 -383.7 26.4 -383.6 25.4 -382.0 24.4" fill="#707070" fill-rule="evenodd" stroke="none"/>
    <path d="M-106.8 -170.8 L-106.6 -155.9 -111.45 -155.25 -111.9 -148.8 -125.9 -148.15 -127.9 -147.8 -127.9 -135.25 -137.9 -135.25 -137.9 -146.05 -155.45 -144.8 -157.25 -165.45 -159.25 -165.7 -162.15 -173.7 -141.25 -181.7 -138.15 -174.35 -137.7 -181.7 -128.8 -182.6 -127.7 -169.7 -106.8 -170.8" fill="#707070" fill-rule="evenodd" stroke="none"/>
    <path d="M-106.8 -154.8 L-106.8 -149.25 -110.35 -149.25 -110.35 -154.8 -106.8 -154.8" fill="#707070" fill-rule="evenodd" stroke="none"/>
    <path d="M-115.45 -171.45 L-116.8 -170.6 -128.8 -182.6 -126.8 -184.6 -115.45 -171.45" fill="#707070" fill-rule="evenodd" stroke="none"/>
    <path d="M-145.0 -98.0 L-144.35 -82.9 -137.0 -82.5 -136.5 -68.5 -130.0 -61.0 -125.0 -64.5 -116.5 -66.5 -110.5 -64.0 -110.5 -59.5 -104.5 -63.5 -101.5 -62.0 -100.0 -56.5 -105.5 -53.5 -109.5 -55.5 -113.0 -54.5 -109.5 -52.5 -109.0 -47.5 -109.0 -45.0 -111.75 -42.0 -109.5 -42.0 -109.5 -34.0 -125.7 -34.0 -125.7 20.65 -122.0 20.65 -122.0 24.0 -116.35 24.0 -116.35 29.3 -122.0 29.3 -122.0 34.35 -105.1 34.05 -104.95 43.7 -127.0 44.1 -127.0 94.5 -138.0 94.5 -138.0 95.0 -149.0 95.0 -149.0 78.0 -147.6 78.0 -147.65 73.9 -140.0 73.8 -140.0 42.0 -134.65 42.0 -134.75 34.6 -127.35 34.45 -127.35 29.3 -132.7 29.3 -132.7 24.0 -137.7 24.0 -137.7 19.0 -132.7 19.0 -132.7 -34.0 -134.5 -34.0 -134.5 -42.0 -128.5 -42.0 -128.5 -46.0 -133.0 -46.0 -133.0 -51.5 -131.55 -51.5 -142.3 -61.55 -140.5 -45.5 -146.0 -44.0 -146.25 -47.0 -163.0 -47.0 -173.0 -50.0 -184.5 -57.5 -188.0 -67.5 -183.5 -71.5 -195.5 -70.0 -197.0 -90.5 -163.5 -95.0 -153.0 -95.0 -153.5 -98.0 -145.0 -98.0" fill="#707070" fill-rule="evenodd" stroke="none"/>
    <path d="M-150.5 -13.0 L-142.0 -13.0 -142.0 -7.0 -150.5 -7.0 -150.5 -13.0" fill="#707070" fill-rule="evenodd" stroke="none"/>
    <path d="M-151.0 -33.0 L-151.0 -44.0 -146.0 -44.0 -146.0 -33.0 -151.0 -33.0" fill="#707070" fill-rule="evenodd" stroke="none"/>
    <path d="M-125.35 -29.7 L-116.7 -29.7 -116.7 19.65 -125.35 19.65 -125.35 -29.7" fill="#707070" fill-rule="evenodd" stroke="none"/>
    <path d="M-136.7 16.0 L-139.35 15.3 -140.7 11.0 -140.7 8.0 -136.35 6.65 -133.0 8.3 -133.0 14.0 -136.7 16.0" fill="#707070" fill-rule="evenodd" stroke="none"/>
    <path d="M-146.7 15.3 L-143.7 15.0 -140.35 17.0 -139.7 22.0 -142.35 30.0 -145.85 31.0 -140.35 31.0 -140.35 35.3 -143.35 35.3 -143.35 44.65 -146.0 44.65 -146.0 35.3 -149.35 35.3 -149.35 32.0 -152.0 30.65 -151.7 26.65 -152.0 24.3 -150.7 19.65 -146.7 15.3" fill="#707070" fill-rule="evenodd" stroke="none"/>
    <path d="M-118.35 48.3 L-114.7 46.3 -112.0 46.0 -111.35 50.0 -113.0 54.0 -115.0 56.0 -119.7 54.3 -117.7 60.65 -119.35 63.3 -122.7 60.65 -124.7 56.3 -124.35 53.65 -120.35 52.65 -118.35 48.3" fill="#707070" fill-rule="evenodd" stroke="none"/>
    <path d="M155.95 12.75 L155.95 10.65 158.6 10.65 158.6 12.75 155.95 12.75" fill="#707070" fill-rule="evenodd" stroke="none"/>
    <path d="M371.85 -275.5 L353.1 -278.75 335.0 -281.35 304.15 -282.0 304.0 -292.5 335.85 -291.35 354.7 -288.6 374.1 -285.25 394.3 -279.55 412.3 -273.7 429.8 -266.2 448.65 -257.2 468.85 -245.2 485.8 -232.85 501.25 -219.6 516.15 -205.25 531.3 -188.2 543.25 -172.3 554.45 -154.15 581.4 -102.6 579.25 -100.6 585.2 -79.5 589.6 -56.15 592.6 -36.9 593.95 -13.3 584.0 -12.75 582.65 -35.8 579.7 -54.5 575.45 -77.25 570.2 -96.2 555.8 -130.15 545.75 -149.2 534.85 -166.85 523.55 -181.85 508.8 -198.45 494.55 -212.2 479.45 -225.1 463.35 -236.85 443.95 -248.4 Q434.8 -252.75 425.6 -257.15 L408.75 -264.35 391.3 -270.0 371.85 -275.5" fill="#434343" fill-rule="evenodd" stroke="none"/>
    <path d="M-583.9 42.55 L-580.05 74.55 -579.45 76.75 -570.6 75.4 -553.9 123.0 -526.8 163.65 -537.65 169.8 -531.15 179.75 -503.0 210.3 -487.2 223.8 -471.9 235.65 -453.05 247.65 -435.85 257.0 -416.2 265.35 -397.45 272.25 -379.35 277.6 -361.5 281.0 -322.15 284.8 -288.35 282.0 -287.35 292.5 -322.35 294.8 -362.6 291.0 -381.7 287.35 -400.75 281.7 -419.9 274.65 -440.2 266.0 -458.15 256.25 -477.6 243.85 -493.35 231.65 -509.6 217.85 -539.05 185.9 -548.9 170.95 -559.2 153.8 -569.1 131.5 -577.85 114.35 -584.9 94.65 -589.8 76.9 -595.4 43.75 -583.9 42.55" fill="#434343" fill-rule="evenodd" stroke="none"/>
    <path d="M-597.7 -22.8 L-597.45 -26.8 -589.9 -73.45 -581.2 -71.15 -589.0 -22.25 -584.55 26.6 -593.9 26.15 -597.7 -22.8" fill="#434343" fill-rule="evenodd" stroke="none"/>
    <path d="M-391.0 -36.6 L-393.65 -40.1 -325.0 -40.1 -325.0 -46.0 -60.85 -46.0 -60.85 -40.5 -63.85 -38.2 -71.4 -38.55 -71.5 -36.35 -68.9 -30.5 -68.5 -27.85 -72.2 -26.85 -67.35 -21.7 -71.0 -17.0 -70.0 -2.35 -70.6 13.8 -59.35 17.8 -59.85 20.5 -71.0 24.5 -325.0 24.5 -325.0 19.75 -398.15 19.75 -394.6 15.2 -391.7 8.1 -390.35 -7.9 -391.0 -36.6" fill="#ffffff" fill-opacity="0.14901961" fill-rule="evenodd" stroke="none"/>
    <path d="M89.65 -39.6 L90.3 -42.75 101.5 -46.1 347.5 -46.1 347.5 -40.1 426.9 -40.1 423.0 -35.35 420.0 -20.35 420.65 7.0 423.0 16.65 426.5 19.75 347.5 19.75 347.5 25.5 84.5 25.5 83.65 21.35 88.1 19.3 96.75 19.75 93.65 17.3 91.4 9.85 94.1 8.25 93.95 5.8 90.75 3.3 93.0 -1.45 93.85 -4.85 93.2 -18.15 92.0 -25.65 93.2 -33.95 85.8 -36.65 85.85 -39.35 89.65 -39.6" fill="#ffffff" fill-opacity="0.14901961" fill-rule="evenodd" stroke="none"/>
    <path d="M304.6 -304.5 L331.65 -301.7 368.0 -294.85 401.9 -284.9 434.4 -271.1 465.1 -253.65 493.55 -232.7 519.4 -208.6 542.25 -181.7 561.85 -152.3 577.85 -120.8 590.15 -87.7 598.45 -53.35 602.75 -18.3 603.0 17.05 599.1 52.15 591.15 86.55 579.25 119.8 563.55 151.45 544.3 181.1 521.75 208.3 496.2 232.65 468.0 253.95 437.5 271.75 405.15 285.95 371.4 296.25 348.2 300.5 304.35 302.8 -330.0 302.7 -370.6 296.3 -404.45 285.95 -436.8 271.75 -467.3 253.95 -495.5 232.65 -521.05 208.3 -543.6 181.1 -562.85 151.45 -578.55 119.8 -590.4 86.55 -598.35 52.15 -602.25 17.05 -602.05 -18.3 -597.75 -53.35 -589.4 -87.7 -577.15 -120.8 -561.1 -152.3 -541.55 -181.7 -518.7 -208.6 -492.85 -232.7 -464.4 -253.65 -433.7 -271.1 -401.2 -284.9 -367.25 -294.85 -330.3 -300.75 -305.85 -304.2 -289.9 -305.0 284.2 -305.0 304.6 -304.5 M331.0 -296.6 L304.2 -299.5 284.15 -300.0 -289.7 -300.0 -305.2 -299.2 -330.85 -296.0 -366.15 -290.0 -399.5 -280.2 -431.5 -266.65 -461.65 -249.45 -489.65 -228.85 -515.05 -205.15 -537.55 -178.65 -556.8 -149.75 -572.55 -118.8 -584.65 -86.2 -592.85 -52.45 -597.05 -17.95 -597.25 16.75 -593.45 51.3 -585.6 85.15 -573.9 117.85 -558.5 149.0 -539.6 178.15 -517.4 204.85 -492.25 228.85 -464.5 249.75 -434.55 267.3 Q-418.6 274.3 -402.7 281.25 L-369.5 291.4 -329.6 297.7 304.2 297.8 347.6 295.5 370.2 291.4 403.4 281.25 Q419.35 274.3 435.25 267.3 L465.25 249.75 493.0 228.85 518.1 204.85 540.3 178.15 559.2 149.0 574.65 117.85 586.3 85.15 594.15 51.3 598.0 16.75 597.8 -17.95 593.55 -52.45 585.35 -86.2 573.25 -118.8 557.5 -149.75 538.25 -178.65 515.75 -205.15 490.35 -228.85 462.4 -249.45 432.2 -266.65 400.2 -280.2 366.9 -290.0 331.0 -296.6" fill="#828282" fill-rule="evenodd" stroke="none"/>
  </g>
</svg>
