<?xml version="1.0" encoding="UTF-8" standalone="no"?>
<svg xmlns:ffdec="https://www.free-decompiler.com/flash" xmlns:xlink="http://www.w3.org/1999/xlink" ffdec:objectType="shape" height="190.0px" width="164.65px" xmlns="http://www.w3.org/2000/svg">
  <g transform="matrix(1.0, 0.0, 0.0, 1.0, 69.25, 110.75)">
    <path d="M-69.25 -110.75 L95.4 -110.75 95.4 79.25 -69.25 79.25 -69.25 -110.75" fill="#434343" fill-rule="evenodd" stroke="none"/>
    <path d="M-65.85 -108.1 L52.65 -108.1 52.65 -67.3 44.15 -67.3 44.15 -65.65 90.5 -65.65 90.5 -60.0 93.5 -60.0 93.5 74.35 90.5 74.35 90.5 77.0 16.0 77.0 16.0 74.35 10.0 74.35 10.0 76.85 -63.35 76.85 -63.35 74.35 -66.7 74.35 -66.7 -60.0 -63.35 -60.0 -63.35 -65.8 10.0 -65.8 10.0 -60.0 16.0 -60.0 16.0 -65.65 17.65 -65.65 17.65 -67.3 -65.85 -67.3 -65.85 -108.1" fill="#969696" fill-rule="evenodd" stroke="none"/>
    <path d="M-66.7 74.35 L-66.7 45.75 -60.95 45.75 -60.95 67.5 -36.95 67.5 -36.95 74.35 -66.7 74.35" fill="#707070" fill-rule="evenodd" stroke="none"/>
    <path d="M-65.85 -108.1 L-15.4 -108.1 -15.4 -88.65 -45.95 -88.65 -45.95 -87.0 -18.95 -87.0 -18.95 -67.3 -65.85 -67.3 -65.85 -108.1" fill="#ffffff" fill-rule="evenodd" stroke="none"/>
    <path d="M21.5 79.25 L21.5 77.0 79.75 77.0 79.75 79.25 21.5 79.25" fill="#ffffff" fill-rule="evenodd" stroke="none"/>
  </g>
</svg>
