<?xml version="1.0" encoding="UTF-8" standalone="no"?>
<svg xmlns:ffdec="https://www.free-decompiler.com/flash" xmlns:xlink="http://www.w3.org/1999/xlink" ffdec:objectType="shape" height="643.2px" width="457.65px" xmlns="http://www.w3.org/2000/svg">
  <g transform="matrix(1.0, 0.0, 0.0, 1.0, 186.7, 492.7)">
    <path d="M-30.7 -345.45 L-30.7 -492.7 270.95 -492.7 270.95 -57.85 44.35 -57.85 44.35 -43.35 78.75 -43.35 78.75 -27.45 179.8 -27.45 179.8 150.5 -186.7 150.5 -186.7 -27.45 -81.9 -27.45 -81.9 -43.35 -45.45 -43.35 -45.45 -57.85 -151.25 -57.85 -151.25 -345.45 -30.7 -345.45" fill="#434343" fill-rule="evenodd" stroke="none"/>
    <path d="M74.2 -477.7 L74.2 -473.5 78.25 -473.5 78.25 -431.7 82.05 -431.75 82.05 -483.25 125.8 -483.25 125.8 -430.75 129.7 -430.75 129.7 -461.1 262.95 -461.1 262.95 -392.95 257.9 -392.95 257.9 -387.95 133.75 -387.95 133.75 -392.95 129.7 -392.95 129.7 -404.2 125.8 -404.2 125.8 -336.6 115.25 -336.6 115.25 -332.95 93.1 -332.95 93.1 -336.6 56.5 -336.6 56.5 -344.35 48.3 -344.35 48.3 -336.6 -22.5 -336.6 -22.5 -382.25 82.05 -382.25 82.05 -404.2 78.25 -404.2 78.25 -394.05 74.2 -394.05 74.2 -388.95 -15.7 -388.95 -15.7 -393.95 -20.8 -393.95 -20.8 -473.5 -15.8 -473.5 -15.8 -477.7 74.2 -477.7" fill="#969696" fill-rule="evenodd" stroke="none"/>
    <path d="M231.0 -457.15 L240.65 -457.55 241.55 -436.1 231.85 -435.75 231.0 -457.15" fill="#707070" fill-rule="evenodd" stroke="none"/>
    <path d="M170.1 -429.6 L167.3 -450.85 176.9 -452.15 179.7 -430.9 170.1 -429.6" fill="#707070" fill-rule="evenodd" stroke="none"/>
    <path d="M253.05 -398.9 L237.5 -394.75 239.5 -394.75 239.5 -387.95 235.95 -387.95 235.95 -394.3 232.35 -393.35 229.8 -402.7 250.5 -408.25 253.05 -398.9" fill="#707070" fill-rule="evenodd" stroke="none"/>
    <path d="M183.85 -459.5 L191.8 -459.4 191.5 -441.0 183.6 -441.1 183.85 -459.5" fill="#707070" fill-rule="evenodd" stroke="none"/>
    <path d="M35.0 -477.7 L35.0 -470.45 3.5 -470.45 3.5 -477.7 35.0 -477.7" fill="#707070" fill-rule="evenodd" stroke="none"/>
    <path d="M52.5 -477.7 L52.5 -470.0 35.45 -470.0 35.45 -477.7 52.5 -477.7" fill="#707070" fill-rule="evenodd" stroke="none"/>
    <path d="M59.5 -477.7 L59.5 -470.45 54.0 -470.45 54.0 -477.7 59.5 -477.7" fill="#707070" fill-rule="evenodd" stroke="none"/>
    <path d="M65.45 -477.7 L65.45 -470.6 60.0 -470.6 60.0 -477.7 65.45 -477.7" fill="#707070" fill-rule="evenodd" stroke="none"/>
    <path d="M72.2 -476.35 L72.2 -469.6 66.7 -469.6 66.7 -476.35 72.2 -476.35" fill="#707070" fill-rule="evenodd" stroke="none"/>
    <path d="M64.15 -461.55 L72.7 -463.75 77.8 -443.7 69.25 -441.55 64.15 -461.55" fill="#707070" fill-rule="evenodd" stroke="none"/>
    <path d="M16.25 -457.0 L42.0 -457.0 42.0 -436.25 24.2 -436.25 24.2 -446.25 16.25 -446.25 16.25 -457.0" fill="#707070" fill-rule="evenodd" stroke="none"/>
    <path d="M19.7 -409.5 L27.2 -409.5 27.2 -403.25 19.7 -403.25 19.7 -409.5" fill="#707070" fill-rule="evenodd" stroke="none"/>
    <path d="M35.6 -408.2 L40.95 -411.0 16.25 -411.0 16.25 -420.75 42.5 -420.75 42.5 -411.6 45.75 -405.4 38.9 -401.85 35.6 -408.2" fill="#707070" fill-rule="evenodd" stroke="none"/>
    <path d="M-10.9 -472.4 L-7.7 -477.25 -0.5 -472.5 -3.75 -467.65 -10.9 -472.4" fill="#707070" fill-rule="evenodd" stroke="none"/>
    <path d="M-15.7 -388.95 L-15.7 -397.0 -8.3 -397.0 -8.3 -388.95 -15.7 -388.95" fill="#707070" fill-rule="evenodd" stroke="none"/>
    <path d="M54.5 -395.75 L58.25 -395.75 58.25 -388.5 54.5 -388.5 54.5 -395.75" fill="#707070" fill-rule="evenodd" stroke="none"/>
  </g>
</svg>
