<?xml version="1.0" encoding="UTF-8" standalone="no"?>
<svg xmlns:ffdec="https://www.free-decompiler.com/flash" xmlns:xlink="http://www.w3.org/1999/xlink" ffdec:objectType="shape" height="900.1px" width="652.05px" xmlns="http://www.w3.org/2000/svg">
  <g transform="matrix(1.0, 0.0, 0.0, 1.0, 143.1, 459.0)">
    <path d="M29.4 -412.45 L29.4 -459.0 99.9 -459.0 99.9 -408.95 104.9 -408.95 104.9 -357.95 95.9 -308.95 95.9 241.05 102.4 241.05 102.4 290.55 95.9 290.55 95.9 292.55 104.9 360.05 104.9 391.05 99.9 391.05 99.9 441.1 29.4 441.1 29.4 393.55 -40.1 393.55 -40.1 441.1 -111.6 441.1 -111.6 391.05 -116.6 391.05 -116.6 360.05 Q-112.1 326.55 -108.1 292.55 L-108.1 290.55 -116.6 290.55 -116.6 241.05 -108.1 241.05 -108.1 -308.95 Q-112.1 -333.45 -116.6 -357.95 L-116.6 -408.95 -111.6 -408.95 -111.6 -459.0 -40.1 -459.0 -40.1 -412.45 29.4 -412.45" fill="#424242" fill-rule="evenodd" stroke="none"/>
    <path d="M54.9 -328.45 L54.9 341.55 Q45.9 366.05 36.4 390.05 L-44.6 390.05 -64.6 341.55 -64.6 -328.45 -45.6 -404.95 35.9 -404.95 54.9 -328.45" fill="#959595" fill-rule="evenodd" stroke="none"/>
    <path d="M10.4 -274.45 L-20.1 -274.45 -20.1 -291.45 10.4 -291.45 10.4 -274.45" fill="#6f6f6f" fill-rule="evenodd" stroke="none"/>
    <path d="M10.4 -191.45 L-20.1 -191.45 -20.1 -208.45 10.4 -208.45 10.4 -191.45" fill="#6f6f6f" fill-rule="evenodd" stroke="none"/>
    <path d="M1.4 -349.95 Q-0.6 -348.45 -2.6 -347.45 L-7.6 -347.45 -11.6 -349.95 Q-12.6 -351.95 -14.1 -353.95 L-14.1 -376.95 Q-12.6 -378.95 -11.6 -380.95 -9.6 -381.95 -7.6 -383.45 L-2.6 -383.45 Q-0.6 -381.95 1.4 -380.95 2.9 -378.95 3.9 -376.95 L3.9 -353.95 Q2.9 -351.95 1.4 -349.95" fill="#424242" fill-rule="evenodd" stroke="none"/>
    <path d="M1.4 -266.95 Q-0.6 -265.45 -2.6 -264.45 L-7.6 -264.45 -11.6 -266.95 Q-12.6 -268.95 -14.1 -270.95 L-14.1 -293.95 Q-12.6 -295.95 -11.6 -297.95 -9.6 -298.95 -7.6 -300.45 L-2.6 -300.45 Q-0.6 -298.95 1.4 -297.95 2.9 -295.95 3.9 -293.95 L3.9 -270.95 Q2.9 -268.95 1.4 -266.95" fill="#424242" fill-rule="evenodd" stroke="none"/>
    <path d="M1.4 -184.95 L-2.6 -182.95 -7.6 -182.95 -11.6 -184.95 -14.1 -189.45 -14.1 -212.45 Q-12.6 -214.45 -11.6 -216.45 -9.6 -217.45 -7.6 -218.95 L-2.6 -218.95 Q-0.6 -217.45 1.4 -216.45 2.9 -214.45 3.9 -212.45 L3.9 -189.45 Q2.9 -186.95 1.4 -184.95" fill="#424242" fill-rule="evenodd" stroke="none"/>
    <path d="M1.4 -102.45 Q-0.6 -100.95 -2.6 -99.95 L-7.6 -99.95 -11.6 -102.45 -14.1 -106.95 -14.1 -129.95 Q-12.6 -131.95 -11.6 -133.95 -9.6 -134.95 -7.6 -136.45 L-2.6 -136.45 Q-0.6 -134.95 1.4 -133.95 2.9 -131.95 3.9 -129.95 L3.9 -106.95 Q2.9 -104.45 1.4 -102.45" fill="#424242" fill-rule="evenodd" stroke="none"/>
    <path d="M1.4 -21.95 Q-0.6 -20.45 -2.6 -19.45 L-7.6 -19.45 -11.6 -21.95 Q-12.6 -23.95 -14.1 -25.95 L-14.1 -48.95 Q-12.6 -50.95 -11.6 -52.95 -9.6 -53.95 -7.6 -55.45 L-2.6 -55.45 Q-0.6 -53.95 1.4 -52.95 2.9 -50.95 3.9 -48.95 L3.9 -25.95 Q2.9 -23.95 1.4 -21.95" fill="#424242" fill-rule="evenodd" stroke="none"/>
    <path d="M-2.6 113.55 L1.4 116.05 Q2.9 118.05 3.9 120.05 L3.9 143.05 Q2.9 145.05 1.4 147.05 -0.6 148.55 -2.6 149.55 L-7.6 149.55 -11.6 147.05 Q-12.6 145.05 -14.1 143.05 L-14.1 120.05 Q-12.6 118.05 -11.6 116.05 -9.6 115.05 -7.6 113.55 L-2.6 113.55" fill="#424242" fill-rule="evenodd" stroke="none"/>
    <path d="M-2.6 192.55 L1.4 195.05 3.9 199.55 3.9 222.55 Q2.9 224.55 1.4 226.55 -0.6 228.05 -2.6 229.05 L-7.6 229.05 -11.6 226.55 Q-12.6 224.55 -14.1 222.55 L-14.1 199.55 Q-12.6 197.55 -11.6 195.05 -9.6 194.05 -7.6 192.55 L-2.6 192.55" fill="#424242" fill-rule="evenodd" stroke="none"/>
    <path d="M-2.6 275.05 L1.4 277.55 Q2.9 279.55 3.9 281.55 L3.9 304.55 Q2.9 307.05 1.4 309.05 L-2.6 311.05 -7.6 311.05 -11.6 309.05 Q-12.6 307.05 -14.1 304.55 L-14.1 281.55 Q-12.6 279.55 -11.6 277.55 -9.6 276.55 -7.6 275.05 L-2.6 275.05" fill="#424242" fill-rule="evenodd" stroke="none"/>
    <path d="M0.4 -255.45 L-9.1 -255.45 -9.1 -264.45 0.4 -264.45 0.4 -255.45" fill="#424242" fill-rule="evenodd" stroke="none"/>
    <path d="M-24.1 27.05 L12.4 27.05 12.4 57.55 -24.1 57.55 -24.1 27.05" fill="#424242" fill-rule="evenodd" stroke="none"/>
    <path d="M-9.6 266.05 L0.4 266.05 0.4 275.05 -9.6 275.05 -9.6 266.05" fill="#424242" fill-rule="evenodd" stroke="none"/>
    <path d="M-4.1 367.55 L25.9 367.55 25.9 389.05 -4.1 389.05 -4.1 367.55" fill="#424242" fill-rule="evenodd" stroke="none"/>
    <path d="M167.45 -104.95 L135.95 -99.95 168.95 -93.95 207.95 -99.95 167.45 -104.95 M202.45 -283.45 L203.95 -279.95 305.45 -326.95 306.95 -323.45 Q311.45 -325.45 315.45 -327.95 L313.45 -332.45 328.45 -339.45 324.45 -347.95 Q362.45 -365.45 400.45 -383.45 L404.45 -374.95 424.45 -383.95 508.95 -202.95 Q496.95 -196.95 484.45 -191.45 485.95 -188.95 486.95 -186.45 L449.45 -172.45 Q434.95 -163.45 419.95 -154.95 L415.45 -152.95 Q414.45 -155.45 412.95 -157.95 L397.95 -150.95 391.95 -163.95 Q387.95 -161.95 383.45 -159.95 L353.45 -223.95 Q356.95 -225.45 360.45 -227.45 353.95 -241.45 346.95 -255.45 L339.95 -252.45 Q340.95 -250.95 341.45 -249.45 285.45 -222.95 229.45 -196.95 239.45 -175.95 248.95 -154.95 235.45 -148.45 221.95 -142.45 L213.95 -99.95 Q215.95 -96.95 217.45 -93.95 L223.45 -93.95 223.45 -28.45 219.95 -28.45 Q223.95 -24.95 227.95 -21.95 L227.95 -15.45 230.95 -15.45 230.95 23.05 227.95 23.05 227.95 55.55 230.95 55.55 230.95 81.05 227.95 81.05 227.95 109.05 212.95 109.05 212.95 118.05 184.95 118.05 184.95 109.05 100.4 109.05 100.4 121.05 77.4 121.05 29.9 101.05 -41.6 101.05 -89.6 121.05 -112.6 121.05 -112.6 109.05 -139.6 109.05 -139.6 36.05 -143.1 36.05 -143.1 -1.95 -139.6 -1.95 -139.6 -25.95 -112.6 -25.95 -112.6 -37.95 -91.1 -37.95 -41.6 -17.95 29.9 -17.95 77.4 -37.95 100.4 -37.95 100.4 -25.95 124.45 -25.95 124.45 -94.45 Q127.45 -96.95 129.95 -99.95 L109.9 -141.95 97.9 -230.95 Q102.9 -232.95 107.9 -235.45 L102.9 -245.45 159.45 -271.45 Q161.95 -266.45 163.95 -261.45 173.95 -265.95 183.45 -270.95 182.95 -272.45 181.95 -273.95 192.45 -278.45 202.45 -283.45" fill="#424242" fill-rule="evenodd" stroke="none"/>
    <path d="M398.45 -376.95 L402.45 -367.95 Q412.45 -372.45 421.95 -377.45 462.45 -291.45 502.45 -205.45 490.45 -199.45 477.95 -193.95 L482.45 -184.45 Q451.45 -169.45 419.95 -154.95 L415.45 -164.45 400.45 -157.45 394.45 -170.95 385.95 -166.95 360.45 -221.45 Q363.95 -222.95 366.95 -224.95 358.45 -243.45 349.45 -261.95 L342.95 -258.95 Q342.95 -259.95 342.45 -260.95 337.95 -258.45 332.95 -256.45 L334.95 -251.95 Q278.95 -225.45 222.45 -199.45 L242.45 -157.45 Q229.95 -151.45 217.45 -145.95 L209.45 -99.95 208.95 -99.95 208.95 -97.45 212.45 -91.95 212.45 -27.45 222.95 -19.45 222.95 -10.45 225.95 -10.45 225.95 18.05 222.95 18.05 222.95 60.55 225.95 60.55 225.95 76.05 222.95 76.05 222.95 104.05 95.4 104.05 95.4 116.05 78.4 116.05 30.9 96.05 -42.6 96.05 -90.6 116.05 -107.6 116.05 -107.6 104.05 -134.6 104.05 -134.6 31.05 -138.1 31.05 -138.1 3.05 -134.6 3.05 -134.6 -20.95 -107.6 -20.95 -107.6 -32.95 -92.1 -32.95 -42.6 -12.95 30.9 -12.95 78.4 -32.95 95.4 -32.95 95.4 -20.95 129.45 -20.95 129.45 -92.45 134.95 -97.45 134.95 -101.45 Q124.95 -122.45 114.4 -143.45 L111.4 -175.95 Q109.9 -183.45 107.9 -190.95 105.9 -209.45 103.4 -227.95 146.95 -247.45 190.45 -267.45 189.95 -269.45 188.95 -271.45 194.45 -273.95 199.95 -276.95 L201.45 -273.45 302.95 -320.45 304.95 -315.45 Q309.95 -317.45 314.45 -319.95 L313.95 -321.45 322.45 -325.45 320.45 -329.95 334.95 -336.95 330.95 -345.45 Q364.95 -360.95 398.45 -376.95" fill="#959595" fill-rule="evenodd" stroke="none"/>
    <path d="M-77.1 31.55 L-60.6 31.55 -60.6 45.55 -77.1 45.55 -77.1 31.55" fill="#6f6f6f" fill-rule="evenodd" stroke="none"/>
    <path d="M-133.6 40.05 L-128.1 40.05 -128.1 90.55 -133.6 90.55 -133.6 40.05" fill="#6f6f6f" fill-rule="evenodd" stroke="none"/>
    <path d="M-117.1 -19.45 L-110.6 -19.45 -110.6 -14.95 -117.1 -14.95 -117.1 -19.45" fill="#6f6f6f" fill-rule="evenodd" stroke="none"/>
    <path d="M-117.6 97.55 L-110.6 97.55 -110.6 102.55 -117.6 102.55 -117.6 97.55" fill="#6f6f6f" fill-rule="evenodd" stroke="none"/>
    <path d="M189.95 103.05 L207.95 103.05 207.95 113.05 189.95 113.05 189.95 103.05" fill="#6f6f6f" fill-rule="evenodd" stroke="none"/>
    <path d="M210.95 -88.95 L218.45 -88.95 218.45 -33.45 210.95 -33.45 210.95 -88.95" fill="#6f6f6f" fill-rule="evenodd" stroke="none"/>
    <path d="M420.45 -286.45 Q419.45 -285.45 417.95 -284.95 415.45 -290.95 412.45 -296.95 413.95 -297.45 414.95 -298.45 417.95 -292.45 420.45 -286.45" fill="#6f6f6f" fill-rule="evenodd" stroke="none"/>
    <path d="M410.45 -281.45 L407.45 -280.45 401.95 -292.45 404.95 -293.45 Q407.95 -287.45 410.45 -281.45" fill="#6f6f6f" fill-rule="evenodd" stroke="none"/>
    <path d="M399.95 -276.95 Q398.95 -275.95 397.45 -275.45 394.95 -281.45 391.95 -287.45 393.45 -287.95 394.45 -288.95 397.45 -282.95 399.95 -276.95" fill="#6f6f6f" fill-rule="evenodd" stroke="none"/>
    <path d="M389.95 -271.95 L386.95 -270.95 Q384.45 -276.95 381.45 -282.95 L384.45 -283.95 Q387.45 -277.95 389.95 -271.95" fill="#6f6f6f" fill-rule="evenodd" stroke="none"/>
    <path d="M379.45 -267.45 Q378.45 -266.45 376.95 -265.95 374.45 -271.95 371.45 -277.95 372.95 -278.45 373.95 -279.45 376.95 -273.45 379.45 -267.45" fill="#6f6f6f" fill-rule="evenodd" stroke="none"/>
    <path d="M366.45 -229.95 L359.45 -245.45 364.45 -247.45 371.45 -232.45 Q368.95 -230.95 366.45 -229.95" fill="#6f6f6f" fill-rule="evenodd" stroke="none"/>
    <path d="M484.45 -227.45 Q477.45 -242.95 469.95 -258.45 472.45 -259.45 474.95 -260.95 482.45 -245.45 489.45 -229.95 486.95 -228.45 484.45 -227.45" fill="#6f6f6f" fill-rule="evenodd" stroke="none"/>
    <path d="M437.95 -327.95 Q430.95 -343.45 423.45 -358.95 425.95 -359.95 428.45 -361.45 L442.95 -329.95 437.95 -327.95" fill="#6f6f6f" fill-rule="evenodd" stroke="none"/>
    <path d="M365.45 -269.95 L350.45 -262.95 Q350.45 -263.45 349.95 -263.95 L364.95 -270.95 Q365.45 -270.45 365.45 -269.95" fill="#6f6f6f" fill-rule="evenodd" stroke="none"/>
    <path d="M428.95 -296.95 L417.95 -291.95 Q417.95 -292.45 417.45 -292.95 L428.45 -297.95 Q428.95 -297.45 428.95 -296.95" fill="#6f6f6f" fill-rule="evenodd" stroke="none"/>
    <path d="M233.95 -168.95 Q231.95 -167.45 229.45 -166.45 L221.95 -181.95 226.95 -183.95 233.95 -168.95" fill="#6f6f6f" fill-rule="evenodd" stroke="none"/>
    <path d="M118.9 -157.95 L112.9 -156.95 107.9 -190.95 114.4 -191.95 Q116.9 -174.95 118.9 -157.95" fill="#6f6f6f" fill-rule="evenodd" stroke="none"/>
    <path d="M-24.1 27.05 L12.4 27.05 12.4 57.55 -24.1 57.55 -24.1 27.05" fill="#424242" fill-rule="evenodd" stroke="none"/>
    <path d="M183.95 27.05 L220.45 27.05 220.45 57.55 183.95 57.55 183.95 27.05" fill="#424242" fill-rule="evenodd" stroke="none"/>
    <path d="M-77.1 37.55 L-60.6 37.55 -60.6 39.55 -77.1 39.55 -77.1 37.55" fill="#424242" fill-rule="evenodd" stroke="none"/>
    <path d="M161.45 -254.95 L114.4 -232.95 Q112.4 -237.95 109.9 -242.95 L156.95 -264.95 161.45 -254.95" fill="#424242" fill-rule="evenodd" stroke="none"/>
    <path d="M461.45 -285.95 Q450.45 -280.45 439.45 -275.45 L425.45 -305.45 447.45 -315.45 461.45 -285.95" fill="#424242" fill-rule="evenodd" stroke="none"/>
    <path d="M3.9 -12.95 L3.9 -154.45 24.4 -154.45 24.4 -12.95 3.9 -12.95" fill="#ffffff" fill-rule="evenodd" stroke="none"/>
    <path d="M-34.6 -12.95 L-34.6 -154.45 -14.1 -154.45 -14.1 -12.95 -34.6 -12.95" fill="#ffffff" fill-rule="evenodd" stroke="none"/>
    <path d="M3.9 96.05 L24.4 96.05 24.4 237.55 3.9 237.55 3.9 96.05" fill="#ffffff" fill-rule="evenodd" stroke="none"/>
    <path d="M-34.6 96.05 L-14.1 96.05 -14.1 237.55 -34.6 237.55 -34.6 96.05" fill="#ffffff" fill-rule="evenodd" stroke="none"/>
  </g>
</svg>
