<?xml version="1.0" encoding="UTF-8" standalone="no"?>
<svg xmlns:ffdec="https://www.free-decompiler.com/flash" xmlns:xlink="http://www.w3.org/1999/xlink" ffdec:objectType="shape" height="1116.5px" width="1124.0px" xmlns="http://www.w3.org/2000/svg">
  <g transform="matrix(1.0, 0.0, 0.0, 1.0, 499.85, 500.0)">
    <path d="M78.65 -500.0 L133.65 -454.5 103.65 -418.5 Q130.15 -396.0 156.65 -374.0 171.65 -391.5 186.65 -409.5 L240.65 -364.5 208.65 -326.0 212.65 -323.0 179.65 -284.0 Q160.65 -267.5 141.15 -251.5 -35.35 -41.0 -212.35 169.5 L-206.85 174.0 -238.85 211.5 -243.85 207.5 Q-244.35 208.5 -245.35 209.0 -263.35 238.0 -281.85 266.5 L-301.85 290.0 -305.85 287.0 -337.85 325.0 -391.85 280.0 Q-376.35 262.0 -361.35 243.5 -387.85 221.5 -414.35 199.0 -429.35 217.0 -444.85 235.0 L-499.85 189.0 -467.85 151.0 -471.35 148.0 -451.35 124.0 Q-425.35 100.5 -399.85 76.5 L-406.85 71.0 -374.85 33.0 -368.35 38.5 Q-191.35 -172.0 -14.85 -382.5 L10.15 -426.0 42.65 -465.0 46.65 -462.0 78.65 -500.0" fill="#424242" fill-rule="evenodd" stroke="none"/>
    <path d="M157.15 -364.0 Q140.15 -328.5 122.65 -293.0 L-308.35 220.0 -353.35 245.0 -415.35 193.0 -399.35 143.5 Q-183.85 -113.0 31.15 -370.0 L94.65 -416.0 157.15 -364.0" fill="#959595" fill-rule="evenodd" stroke="none"/>
    <path d="M41.15 -313.0 Q52.65 -303.0 64.15 -293.5 L53.65 -280.5 30.15 -300.0 41.15 -313.0" fill="#6f6f6f" fill-rule="evenodd" stroke="none"/>
    <path d="M-12.35 -249.5 L11.15 -230.0 0.15 -217.0 -23.35 -236.5 -12.35 -249.5" fill="#6f6f6f" fill-rule="evenodd" stroke="none"/>
    <path d="M110.15 -375.5 L113.65 -372.5 115.65 -368.0 114.65 -363.0 Q107.15 -354.0 99.65 -345.5 97.65 -344.5 95.15 -344.0 L90.65 -344.5 86.65 -348.0 85.15 -352.5 86.15 -357.0 Q93.65 -365.5 100.65 -374.5 L105.15 -376.5 110.15 -375.5" fill="#424242" fill-rule="evenodd" stroke="none"/>
    <path d="M61.15 -299.5 Q54.15 -290.5 46.65 -282.0 44.65 -281.0 42.15 -280.5 L37.15 -281.0 33.65 -284.0 Q33.15 -286.5 32.15 -289.0 32.65 -291.0 32.65 -293.5 40.15 -302.0 47.65 -311.0 L52.15 -313.0 56.65 -312.0 60.65 -309.0 62.15 -304.5 61.15 -299.5" fill="#424242" fill-rule="evenodd" stroke="none"/>
    <path d="M4.15 -249.5 L8.15 -246.5 Q9.15 -244.0 9.65 -241.5 L8.65 -237.0 Q1.65 -228.0 -5.85 -219.5 -7.85 -218.5 -10.35 -218.0 L-15.35 -218.5 -18.85 -221.5 Q-19.35 -223.5 -20.35 -226.0 -19.85 -228.5 -19.85 -231.0 -12.35 -239.5 -4.85 -248.5 -2.35 -249.0 -0.35 -250.0 L4.15 -249.5" fill="#424242" fill-rule="evenodd" stroke="none"/>
    <path d="M-45.35 -183.0 L-43.35 -178.5 -44.35 -173.5 Q-51.35 -164.5 -58.85 -156.0 -60.85 -155.0 -63.35 -154.5 L-68.35 -155.5 -71.85 -158.5 -73.85 -163.0 -72.85 -167.5 -57.85 -185.5 Q-55.35 -186.0 -53.35 -187.0 L-48.85 -186.0 -45.35 -183.0" fill="#424242" fill-rule="evenodd" stroke="none"/>
    <path d="M-100.85 -124.5 Q-98.85 -122.5 -96.85 -121.0 -95.85 -118.5 -95.35 -116.5 L-96.35 -112.0 Q-103.35 -103.0 -110.85 -94.5 L-115.35 -92.5 -120.35 -93.5 -123.85 -96.5 Q-124.35 -98.5 -125.35 -101.0 -124.85 -103.5 -124.85 -106.0 -117.35 -114.5 -109.85 -123.5 -107.35 -124.0 -105.35 -125.0 L-100.85 -124.5" fill="#424242" fill-rule="evenodd" stroke="none"/>
    <path d="M-205.85 8.5 L-203.85 13.0 -204.85 17.5 -219.85 35.0 Q-221.85 36.0 -224.35 37.0 L-228.85 36.0 -232.85 33.0 Q-233.35 31.0 -234.35 28.5 L-233.35 23.5 Q-225.85 15.0 -218.85 6.0 -216.35 5.5 -214.35 4.5 L-209.35 5.5 Q-207.35 7.0 -205.85 8.5" fill="#424242" fill-rule="evenodd" stroke="none"/>
    <path d="M-256.85 69.0 L-254.85 73.5 -255.85 78.5 Q-262.85 87.5 -270.35 96.0 -272.35 97.0 -274.85 97.5 L-279.85 97.0 -283.35 93.5 -285.35 89.0 -284.35 84.5 Q-276.85 76.0 -269.85 67.0 L-264.85 65.0 -260.35 66.0 -256.85 69.0" fill="#424242" fill-rule="evenodd" stroke="none"/>
    <path d="M-309.35 132.0 Q-308.35 134.5 -307.85 136.5 L-308.85 141.5 Q-315.85 150.5 -323.35 159.0 -325.35 160.0 -327.85 160.5 L-332.85 160.0 -336.35 156.5 -338.35 152.0 -337.35 147.5 -322.35 130.0 -317.85 128.0 -313.35 129.0 -309.35 132.0" fill="#424242" fill-rule="evenodd" stroke="none"/>
    <path d="M32.15 -285.5 L39.65 -279.0 Q37.15 -275.5 34.15 -272.5 30.65 -275.5 26.65 -278.5 L32.15 -285.5" fill="#424242" fill-rule="evenodd" stroke="none"/>
    <path d="M-166.35 -71.5 Q-152.35 -59.5 -138.35 -48.0 -147.85 -36.5 -157.85 -25.0 L-185.85 -48.5 -166.35 -71.5" fill="#424242" fill-rule="evenodd" stroke="none"/>
    <path d="M-309.35 121.0 L-301.35 127.5 -307.35 134.0 -314.85 128.0 Q-311.85 124.5 -309.35 121.0" fill="#424242" fill-rule="evenodd" stroke="none"/>
    <path d="M-370.35 202.5 L-346.85 221.5 -360.85 238.0 Q-372.35 228.5 -383.85 218.5 -376.85 210.5 -370.35 202.5" fill="#424242" fill-rule="evenodd" stroke="none"/>
    <path d="M97.65 -153.5 L112.15 -170.5 Q313.65 -1.0 515.15 168.0 L501.15 185.0 529.65 209.0 535.65 202.5 624.15 276.5 Q609.65 294.5 594.65 312.0 L602.65 319.0 562.65 366.5 554.65 359.5 519.65 401.5 513.15 396.0 427.15 498.5 423.15 495.0 423.15 495.5 Q423.65 496.0 424.15 496.0 L416.65 507.0 420.15 509.0 411.15 524.5 419.65 529.0 Q398.65 566.0 377.15 602.5 L369.15 597.5 358.15 616.5 88.65 460.5 Q96.15 448.0 103.15 435.0 L93.65 429.5 132.65 362.0 142.15 367.5 Q146.65 360.5 150.65 353.0 L163.15 360.5 164.65 358.5 169.15 361.0 187.65 385.5 216.65 388.5 221.15 391.0 Q220.65 392.0 219.65 393.0 L347.15 467.0 363.15 445.0 365.15 446.5 361.15 443.0 440.65 348.0 405.15 318.0 Q430.65 288.0 455.65 257.5 L446.65 250.0 Q441.15 257.0 435.15 263.5 L424.15 254.5 419.65 260.5 364.65 215.0 369.65 209.0 233.65 94.5 228.65 100.5 174.15 55.0 179.15 49.0 101.65 -16.0 96.15 -9.0 100.65 -5.0 58.65 45.0 56.15 42.5 58.15 53.0 54.15 58.0 55.65 60.0 31.15 89.0 29.15 87.5 8.65 112.5 Q9.65 113.5 10.65 114.0 2.65 124.0 -5.85 133.5 -6.85 133.0 -7.85 132.0 -16.85 143.0 -26.35 153.5 L-37.85 143.5 Q-40.35 147.0 -43.35 150.5 L-64.85 132.5 Q-61.85 129.0 -59.35 125.5 -91.35 98.5 -123.85 71.5 -127.35 76.0 -131.35 80.5 L-149.35 65.5 -172.35 19.5 -227.35 -26.5 Q-251.85 -34.0 -276.85 -42.0 L-294.35 -56.5 Q-290.35 -61.0 -286.85 -65.5 -297.35 -74.0 -307.85 -83.0 L-260.85 -139.0 -263.35 -141.0 -238.85 -170.0 Q-237.35 -169.0 -236.35 -168.0 L-221.35 -186.5 Q-210.85 -177.5 -200.35 -169.0 L-192.35 -178.5 -175.85 -164.5 -151.35 -117.0 -96.35 -71.0 -46.85 -56.0 -29.35 -41.5 Q-33.35 -36.5 -37.35 -32.0 L-18.85 -16.5 43.15 -88.5 35.65 -95.0 Q63.15 -127.5 90.15 -160.0 L97.65 -153.5" fill="#424242" fill-rule="evenodd" stroke="none"/>
    <path d="M90.65 -153.0 Q94.65 -149.5 98.65 -146.5 L112.65 -163.5 508.15 168.5 494.15 185.5 530.65 216.0 Q533.65 213.0 536.15 209.5 L617.15 277.5 518.65 394.5 511.15 388.0 505.15 395.0 Q506.15 395.5 506.65 396.0 L426.65 491.5 422.65 488.0 416.15 496.0 417.15 497.0 409.15 508.5 413.15 511.0 Q409.15 518.5 404.65 526.0 L412.65 531.0 Q394.15 563.5 375.15 595.5 L367.15 590.5 356.15 609.5 95.65 458.5 Q103.15 446.0 110.15 433.5 105.65 430.5 100.65 427.5 L134.65 369.0 144.15 374.5 Q148.65 367.5 152.65 360.0 L165.15 367.0 Q167.15 364.0 168.65 360.5 L216.65 388.5 Q215.15 392.0 213.15 395.0 281.15 434.5 348.65 473.5 L364.15 452.5 Q365.15 453.0 365.65 453.5 L372.15 445.5 368.15 442.0 447.65 347.0 412.15 317.5 Q437.65 287.5 462.65 257.0 L445.65 243.0 Q440.15 250.0 434.15 256.5 L423.65 247.5 418.65 253.5 372.15 214.0 377.15 208.5 233.15 87.5 228.15 93.5 181.15 54.0 186.15 48.0 101.15 -23.0 Q98.65 -19.5 95.65 -16.5 94.65 -17.5 93.15 -18.5 92.65 -17.5 92.15 -17.0 L91.15 -11.0 Q90.15 -9.5 89.15 -8.5 L93.65 -4.5 Q76.15 17.0 58.15 38.0 L53.65 34.0 49.65 38.5 Q51.65 45.0 53.15 51.5 50.15 55.5 46.65 59.0 L48.65 60.5 30.65 82.0 28.65 80.5 1.65 113.0 3.65 114.5 -6.35 126.5 -8.35 125.0 Q-17.35 136.0 -26.85 146.5 L-38.35 136.5 Q-40.85 140.0 -43.85 143.5 L-57.85 132.0 Q-54.85 128.5 -52.35 125.0 L-124.35 64.5 -132.35 73.5 -145.35 62.5 -168.35 16.5 -224.85 -31.0 Q-249.35 -38.5 -274.35 -46.5 -280.85 -51.5 -287.35 -57.0 -283.35 -61.5 -279.85 -66.0 -290.35 -74.5 -300.85 -83.5 L-253.85 -140.0 -255.85 -142.0 Q-246.85 -152.5 -238.35 -163.0 L-235.85 -161.0 Q-227.85 -170.0 -220.35 -179.5 L-199.85 -162.0 Q-195.85 -166.5 -191.85 -171.5 L-179.85 -161.5 -155.35 -114.0 -98.85 -66.5 -49.35 -51.5 -36.35 -40.5 -44.35 -31.5 -18.35 -9.5 27.65 -64.5 35.15 -65.0 36.15 -66.0 35.15 -67.0 40.65 -74.0 Q39.65 -74.5 38.65 -75.5 44.65 -82.0 50.15 -89.0 L42.65 -95.5 90.65 -153.0" fill="#959595" fill-rule="evenodd" stroke="none"/>
    <path d="M397.65 169.5 L394.15 173.5 368.15 151.5 371.65 147.5 397.65 169.5" fill="#6f6f6f" fill-rule="evenodd" stroke="none"/>
    <path d="M412.15 152.0 L409.15 156.0 382.65 134.0 386.15 130.0 412.15 152.0" fill="#6f6f6f" fill-rule="evenodd" stroke="none"/>
    <path d="M294.15 82.5 L290.65 86.5 264.65 64.5 268.15 60.5 294.15 82.5" fill="#6f6f6f" fill-rule="evenodd" stroke="none"/>
    <path d="M309.15 65.0 L305.65 69.0 279.65 47.0 282.65 43.0 309.15 65.0" fill="#6f6f6f" fill-rule="evenodd" stroke="none"/>
    <path d="M159.65 -30.5 Q158.15 -28.0 156.15 -26.0 L130.15 -48.0 133.65 -52.0 159.65 -30.5" fill="#6f6f6f" fill-rule="evenodd" stroke="none"/>
    <path d="M174.65 -48.0 L171.15 -44.0 Q158.15 -54.5 145.15 -65.5 147.15 -67.5 148.65 -70.0 L174.65 -48.0" fill="#6f6f6f" fill-rule="evenodd" stroke="none"/>
    <path d="M304.15 517.0 Q303.15 519.5 301.65 522.0 L272.15 505.0 Q273.65 503.0 274.65 500.5 L304.15 517.0" fill="#6f6f6f" fill-rule="evenodd" stroke="none"/>
    <path d="M315.65 497.0 Q314.65 499.5 313.15 501.5 298.15 493.5 283.15 485.0 L286.15 480.5 315.65 497.0" fill="#6f6f6f" fill-rule="evenodd" stroke="none"/>
    <path d="M477.65 336.5 Q476.65 335.5 475.15 334.5 479.65 329.5 483.65 324.0 L486.15 326.0 Q482.15 331.5 477.65 336.5" fill="#6f6f6f" fill-rule="evenodd" stroke="none"/>
    <path d="M487.15 344.0 L484.65 342.0 493.15 332.0 Q494.65 333.0 495.65 334.0 L487.15 344.0" fill="#6f6f6f" fill-rule="evenodd" stroke="none"/>
    <path d="M495.65 351.0 L493.15 349.5 Q497.65 344.5 501.65 339.0 L503.65 341.0 495.65 351.0" fill="#6f6f6f" fill-rule="evenodd" stroke="none"/>
    <path d="M503.65 358.0 Q502.65 357.0 501.15 356.0 L509.65 346.0 512.15 348.0 503.65 358.0" fill="#6f6f6f" fill-rule="evenodd" stroke="none"/>
    <path d="M453.15 280.5 Q451.15 278.5 448.65 276.5 L459.65 263.5 464.15 267.0 453.15 280.5" fill="#6f6f6f" fill-rule="evenodd" stroke="none"/>
    <path d="M336.65 33.5 L323.65 23.0 327.15 19.0 340.15 30.0 Q338.65 32.0 336.65 33.5" fill="#6f6f6f" fill-rule="evenodd" stroke="none"/>
    <path d="M320.15 19.5 L307.15 9.0 310.65 5.0 323.65 16.0 Q322.15 18.0 320.15 19.5" fill="#6f6f6f" fill-rule="evenodd" stroke="none"/>
    <path d="M454.65 125.5 L467.15 136.5 464.15 140.5 451.15 129.5 454.65 125.5" fill="#6f6f6f" fill-rule="evenodd" stroke="none"/>
    <path d="M447.15 126.5 L434.65 115.5 437.65 112.0 450.65 122.5 447.15 126.5" fill="#6f6f6f" fill-rule="evenodd" stroke="none"/>
    <path d="M586.65 260.5 L573.65 250.0 577.15 246.0 590.15 257.0 Q588.65 259.0 586.65 260.5" fill="#6f6f6f" fill-rule="evenodd" stroke="none"/>
    <path d="M570.15 247.0 L557.15 236.0 560.65 232.0 573.15 243.0 570.15 247.0" fill="#6f6f6f" fill-rule="evenodd" stroke="none"/>
    <path d="M319.15 157.0 L306.15 146.0 309.65 142.0 322.65 153.0 319.15 157.0" fill="#6f6f6f" fill-rule="evenodd" stroke="none"/>
    <path d="M302.65 143.0 L289.65 132.0 Q291.65 130.5 293.15 128.5 L305.65 139.0 302.65 143.0" fill="#6f6f6f" fill-rule="evenodd" stroke="none"/>
    <path d="M153.65 18.0 L140.65 7.5 144.15 3.5 Q150.65 9.0 157.15 14.0 L153.65 18.0" fill="#6f6f6f" fill-rule="evenodd" stroke="none"/>
    <path d="M137.15 4.0 Q130.65 -1.0 124.15 -6.5 L127.65 -10.5 Q134.15 -5.0 140.15 0.0 L137.15 4.0" fill="#6f6f6f" fill-rule="evenodd" stroke="none"/>
    <path d="M-166.35 -71.5 Q-152.35 -59.5 -138.35 -48.0 -147.85 -36.5 -157.85 -25.0 L-185.85 -48.5 -166.35 -71.5" fill="#424242" fill-rule="evenodd" stroke="none"/>
    <path d="M-6.85 62.0 L20.65 85.5 Q11.15 97.5 1.15 109.0 L-26.35 85.5 Q-16.35 74.0 -6.85 62.0" fill="#424242" fill-rule="evenodd" stroke="none"/>
    <path d="M-213.85 -97.5 L-201.35 -87.0 -202.35 -85.5 -214.85 -96.0 Q-214.35 -96.5 -213.85 -97.5" fill="#424242" fill-rule="evenodd" stroke="none"/>
    <path d="M387.15 137.5 L404.65 152.0 Q405.65 154.5 406.15 157.0 406.15 159.5 405.65 161.5 404.15 163.5 402.15 165.0 L397.65 167.0 393.15 166.0 375.65 151.5 373.65 147.0 374.65 142.0 377.65 138.5 382.15 136.5 387.15 137.5" fill="#424242" fill-rule="evenodd" stroke="none"/>
    <path d="M271.65 55.5 L274.65 51.5 279.65 50.0 284.15 51.0 301.65 65.5 303.65 70.0 302.65 75.0 299.65 78.5 Q297.65 79.5 295.15 80.0 L290.15 79.5 272.65 64.5 271.15 60.0 Q271.65 58.0 271.65 55.5" fill="#424242" fill-rule="evenodd" stroke="none"/>
    <path d="M140.65 -61.0 Q143.15 -61.5 145.15 -62.5 L149.65 -62.0 167.65 -47.0 169.15 -42.5 168.15 -38.0 165.15 -34.0 Q163.15 -33.0 160.65 -32.5 L155.65 -33.5 138.15 -48.0 136.65 -52.5 137.65 -57.5 Q139.15 -59.0 140.65 -61.0" fill="#424242" fill-rule="evenodd" stroke="none"/>
    <path d="M279.65 490.5 Q281.65 489.5 283.65 488.0 L288.65 488.0 308.65 499.0 311.15 503.5 311.15 508.0 Q310.15 510.5 308.65 512.5 306.65 514.0 304.65 515.0 L299.65 515.0 Q289.65 509.5 279.65 503.5 L277.15 499.5 277.15 494.5 279.65 490.5" fill="#424242" fill-rule="evenodd" stroke="none"/>
    <path d="M464.15 308.5 L443.65 333.5 424.65 317.5 445.65 292.5 464.15 308.5" fill="#424242" fill-rule="evenodd" stroke="none"/>
    <path d="M553.65 352.5 L587.15 312.5 595.65 319.5 Q579.15 339.5 562.15 359.5 L553.65 352.5" fill="#424242" fill-rule="evenodd" stroke="none"/>
    <path d="M-12.35 -179.5 Q-57.85 -125.0 -103.85 -71.0 L-119.35 -84.0 Q-73.35 -138.0 -27.85 -192.5 L-12.35 -179.5" fill="#ffffff" fill-rule="evenodd" stroke="none"/>
    <path d="M-57.85 -217.5 L-42.35 -204.5 -133.35 -95.5 -148.85 -109.0 -57.85 -217.5" fill="#ffffff" fill-rule="evenodd" stroke="none"/>
    <path d="M-189.35 -1.0 Q-181.35 6.0 -173.35 12.5 L-264.35 120.5 -280.35 107.5 -189.35 -1.0" fill="#ffffff" fill-rule="evenodd" stroke="none"/>
    <path d="M-218.85 -25.5 Q-210.85 -19.0 -203.35 -12.5 L-294.35 96.0 Q-301.85 89.5 -309.85 83.0 L-218.85 -25.5" fill="#ffffff" fill-rule="evenodd" stroke="none"/>
  </g>
</svg>
