<?xml version="1.0" encoding="UTF-8" standalone="no"?>
<svg xmlns:ffdec="https://www.free-decompiler.com/flash" xmlns:xlink="http://www.w3.org/1999/xlink" ffdec:objectType="shape" height="918.0px" width="666.45px" xmlns="http://www.w3.org/2000/svg">
  <g transform="matrix(1.0, 0.0, 0.0, 1.0, 500.1, 500.15)">
    <path d="M-323.1 298.85 L-327.6 296.85 Q-318.6 272.85 -310.1 248.85 L-285.1 205.85 -97.15 -311.15 -103.65 -313.15 -86.65 -359.65 -80.15 -357.65 Q-79.65 -358.15 -79.65 -359.15 L-64.65 -425.65 Q-59.15 -440.15 -54.15 -455.15 -51.65 -454.15 -49.15 -453.65 L-32.15 -500.15 33.85 -476.15 17.85 -431.65 82.85 -407.65 Q91.35 -429.65 99.35 -452.15 132.85 -439.65 166.35 -427.65 L149.35 -381.15 153.85 -379.15 Q148.85 -364.65 143.35 -350.15 127.85 -319.65 111.85 -289.65 111.85 -288.65 111.35 -287.65 L119.35 -284.65 Q111.35 -261.15 102.85 -238.15 L94.35 -241.15 -93.65 275.35 Q-97.65 300.35 -102.15 324.85 -110.65 348.85 -119.65 372.85 -121.65 371.85 -124.15 370.85 -132.65 394.35 -141.65 417.85 -175.15 405.85 -208.65 393.35 L-192.65 349.85 Q-225.1 337.85 -258.1 325.85 L-274.1 369.85 Q-307.1 357.85 -340.1 345.35 L-323.1 298.85" fill="#424242" fill-rule="evenodd" stroke="none"/>
    <path d="M87.85 -350.65 L-141.15 279.35 -185.15 344.35 -261.6 316.35 Q-257.1 277.35 -253.1 238.35 L-24.15 -391.15 9.85 -430.15 Q47.85 -416.15 85.85 -402.65 L87.85 -350.65" fill="#959595" fill-rule="evenodd" stroke="none"/>
    <path d="M-170.15 228.85 L-198.65 218.35 -192.65 202.35 -164.15 212.85 -170.15 228.85" fill="#6f6f6f" fill-rule="evenodd" stroke="none"/>
    <path d="M-141.65 150.85 L-170.15 140.35 Q-167.15 132.35 -164.65 124.35 L-136.15 134.85 Q-138.65 142.85 -141.65 150.85" fill="#6f6f6f" fill-rule="evenodd" stroke="none"/>
    <path d="M-221.1 305.85 L-222.1 301.35 -214.1 279.85 Q-212.1 278.35 -210.65 276.35 L-205.65 275.85 -201.15 277.35 -198.15 280.85 -197.15 285.85 -205.15 307.35 -208.65 310.35 -213.6 311.35 -218.1 309.85 -221.1 305.85" fill="#424242" fill-rule="evenodd" stroke="none"/>
    <path d="M-169.15 207.85 Q-172.65 218.85 -176.65 229.35 L-180.65 232.35 -185.15 233.35 -189.65 231.85 -192.65 227.85 -193.65 223.35 -185.65 201.85 Q-183.65 200.35 -182.15 198.85 L-177.65 197.85 -172.65 199.35 -169.65 203.35 Q-169.15 205.85 -169.15 207.85" fill="#424242" fill-rule="evenodd" stroke="none"/>
    <path d="M-154.15 121.85 L-149.15 120.85 Q-146.65 121.85 -144.65 122.85 L-141.65 126.35 Q-141.15 128.85 -141.15 131.35 -144.65 142.35 -148.65 152.85 L-152.65 155.85 -157.15 156.85 -161.65 154.85 -164.65 151.35 -165.65 146.35 -157.65 124.85 -154.15 121.85" fill="#424242" fill-rule="evenodd" stroke="none"/>
    <path d="M-116.65 44.85 L-113.65 48.85 -112.65 53.35 -120.65 74.85 Q-122.15 76.85 -124.15 78.35 L-129.15 78.85 -133.65 77.35 -136.65 73.85 -137.65 68.85 -129.65 47.35 -125.65 44.35 -121.15 43.35 -116.65 44.85" fill="#424242" fill-rule="evenodd" stroke="none"/>
    <path d="M-85.15 -22.15 Q-88.65 -11.15 -92.65 -0.65 L-96.65 2.35 -101.15 3.35 -105.65 1.35 -109.15 -2.15 Q-109.15 -4.65 -109.65 -7.15 -105.65 -17.65 -102.15 -28.65 L-98.15 -31.65 -93.65 -32.65 -89.15 -30.65 -85.65 -27.15 Q-85.15 -24.65 -85.15 -22.15" fill="#424242" fill-rule="evenodd" stroke="none"/>
    <path d="M-35.15 -159.65 Q-36.65 -158.15 -38.65 -156.65 L-43.65 -155.65 Q-45.65 -156.15 -48.15 -157.15 L-51.15 -161.15 -52.15 -165.65 -44.15 -187.15 Q-42.15 -188.65 -40.65 -190.65 L-35.65 -191.15 -31.15 -189.65 Q-29.65 -187.65 -28.15 -186.15 L-27.15 -181.15 -35.15 -159.65" fill="#424242" fill-rule="evenodd" stroke="none"/>
    <path d="M-11.65 -231.15 L-16.15 -230.15 Q-18.65 -230.65 -21.15 -231.65 L-24.15 -235.65 Q-24.15 -237.65 -24.65 -240.15 -20.65 -250.65 -17.15 -261.65 L-13.15 -265.15 -8.65 -265.65 -4.15 -264.15 Q-2.65 -262.15 -1.15 -260.65 L-0.15 -255.65 -8.15 -234.15 Q-9.65 -232.65 -11.65 -231.15" fill="#424242" fill-rule="evenodd" stroke="none"/>
    <path d="M27.85 -333.15 Q24.35 -322.15 20.35 -311.65 L16.35 -308.65 11.85 -307.65 Q9.85 -308.15 7.35 -309.15 L4.35 -313.15 3.35 -317.65 11.35 -339.15 14.85 -342.15 19.35 -343.15 Q21.85 -342.15 23.85 -341.65 L27.35 -337.65 Q27.85 -335.15 27.85 -333.15" fill="#424242" fill-rule="evenodd" stroke="none"/>
    <path d="M-171.15 199.85 Q-175.65 198.35 -180.15 196.35 L-177.15 188.35 Q-172.65 190.35 -168.15 191.85 L-171.15 199.85" fill="#424242" fill-rule="evenodd" stroke="none"/>
    <path d="M-57.65 -68.65 Q-74.65 -74.65 -91.65 -81.15 L-81.65 -109.65 -47.15 -97.15 Q-52.15 -82.65 -57.65 -68.65" fill="#424242" fill-rule="evenodd" stroke="none"/>
    <path d="M10.85 -298.65 Q6.35 -300.15 1.35 -302.15 L4.35 -310.15 13.85 -307.15 10.85 -298.65" fill="#424242" fill-rule="evenodd" stroke="none"/>
    <path d="M40.35 -395.65 Q26.35 -400.65 11.85 -406.15 15.85 -416.15 19.35 -426.15 33.35 -420.65 47.35 -415.65 L40.35 -395.65" fill="#424242" fill-rule="evenodd" stroke="none"/>
    <path d="M-284.6 -181.65 L-287.1 -182.65 Q-282.6 -194.65 -278.6 -206.65 L-276.1 -205.65 Q-271.1 -218.65 -266.6 -232.15 -259.1 -229.65 -252.1 -227.15 L-249.1 -235.65 -222.6 -225.65 -225.6 -217.65 -146.15 -188.65 -142.15 -199.65 Q-131.15 -195.65 -120.65 -191.65 L-83.15 -156.65 -15.65 -132.15 36.35 -134.65 57.85 -126.65 53.85 -115.65 79.35 -106.65 54.35 -37.65 56.85 -36.65 Q50.85 -18.65 44.35 -1.15 L41.35 -2.15 33.35 20.35 Q20.35 15.85 7.35 10.85 L3.35 22.85 -17.15 15.35 -56.15 -20.65 Q-89.65 -32.65 -123.65 -45.15 L-175.15 -42.65 -196.65 -50.15 -192.65 -61.65 Q-203.65 -65.65 -215.1 -70.15 -226.6 -37.65 -238.6 -5.15 L-245.1 -2.15 -246.1 0.85 -230.6 6.35 -235.6 20.35 -227.1 23.35 Q-239.1 56.85 -251.6 89.85 L-259.1 87.35 Q-278.1 140.85 -297.6 193.85 L-292.6 195.85 -302.6 223.85 -329.1 213.85 Q-330.1 216.85 -331.6 219.85 -322.6 223.35 -313.6 226.35 L-321.6 248.35 -311.1 252.35 -332.1 310.35 -342.6 306.35 Q-350.1 327.85 -358.1 349.35 L-468.6 308.85 Q-467.6 306.85 -467.1 304.85 L-500.1 292.85 -491.1 268.35 -496.1 266.35 Q-495.1 264.35 -494.6 261.85 -487.1 250.85 -480.1 239.35 L-476.1 211.85 Q-475.1 209.85 -474.6 207.35 L-458.6 212.85 Q-446.1 178.85 -434.1 144.85 L-414.6 151.85 -346.6 -35.65 Q-336.1 -31.65 -326.1 -28.15 L-325.1 -31.15 Q-325.1 -34.15 -325.6 -37.65 L-331.6 -39.65 Q-320.1 -70.15 -309.1 -101.15 L-305.6 -100.15 -311.1 -108.65 -309.1 -115.15 -311.6 -116.15 Q-304.6 -134.15 -298.1 -152.15 L-296.1 -151.15 Q-290.1 -166.15 -284.6 -181.65" fill="#424242" fill-rule="evenodd" stroke="none"/>
    <path d="M-278.6 -184.65 L-280.6 -185.65 -275.6 -200.15 -273.1 -199.15 Q-268.1 -212.65 -263.6 -226.15 L-143.15 -182.15 -139.15 -193.15 Q-131.15 -190.15 -123.15 -187.65 L-85.65 -152.15 -16.65 -127.15 35.35 -129.65 51.35 -123.65 47.35 -112.65 72.85 -103.65 47.85 -34.65 50.85 -33.65 Q46.35 -20.15 41.35 -7.15 39.85 -7.65 38.35 -8.65 L30.35 13.85 4.35 4.85 0.35 16.35 Q-7.15 13.85 -14.65 10.85 L-53.65 -25.15 -122.65 -50.15 -174.15 -47.65 Q-182.15 -50.15 -190.15 -53.15 L-186.15 -64.65 -218.1 -76.65 Q-230.1 -42.65 -242.6 -9.15 L-249.1 -6.15 Q-250.6 -1.15 -252.6 3.85 L-237.1 9.35 -242.1 23.35 -233.6 26.35 -254.6 83.35 -262.1 80.85 -301.1 188.35 -302.6 187.85 -305.6 196.35 -298.6 198.85 -305.6 217.35 -332.1 207.35 Q-334.6 215.35 -337.6 222.85 L-320.1 229.35 -361.1 342.85 -462.1 305.85 Q-461.1 303.85 -460.6 301.85 L-493.6 289.85 -484.6 265.35 Q-489.6 263.85 -494.6 261.85 -485.1 236.85 -476.1 211.85 L-455.6 219.35 Q-443.1 185.35 -431.1 151.35 L-406.6 160.35 Q-404.6 155.85 -403.1 151.35 L-408.6 149.35 -343.6 -29.15 Q-333.1 -25.15 -323.1 -21.65 L-319.1 -31.65 Q-319.6 -34.65 -320.6 -37.65 L-298.6 -98.15 -305.6 -109.65 -302.6 -118.15 -305.1 -119.15 -295.1 -145.65 -293.1 -144.65 Q-285.6 -164.65 -278.6 -184.65" fill="#959595" fill-rule="evenodd" stroke="none"/>
    <path d="M-6.15 -55.15 L-21.65 -60.65 Q-19.15 -67.15 -17.15 -73.65 -9.15 -70.65 -1.65 -68.15 -3.65 -61.65 -6.15 -55.15" fill="#6f6f6f" fill-rule="evenodd" stroke="none"/>
    <path d="M49.85 -43.15 L44.35 -45.15 Q53.35 -69.15 61.85 -93.15 L67.35 -91.15 Q58.85 -67.15 49.85 -43.15" fill="#6f6f6f" fill-rule="evenodd" stroke="none"/>
    <path d="M13.85 6.85 L7.85 4.85 Q8.85 2.85 9.35 0.35 L15.35 2.35 Q14.85 4.85 13.85 6.85" fill="#6f6f6f" fill-rule="evenodd" stroke="none"/>
    <path d="M54.35 -103.15 Q51.35 -104.15 47.85 -105.65 48.85 -107.65 49.35 -110.15 52.85 -108.65 55.85 -107.65 55.35 -105.15 54.35 -103.15" fill="#6f6f6f" fill-rule="evenodd" stroke="none"/>
    <path d="M-232.6 -213.65 L-249.6 -219.65 Q-247.6 -224.15 -246.1 -229.15 -237.6 -225.65 -229.1 -222.65 -230.6 -218.15 -232.6 -213.65" fill="#6f6f6f" fill-rule="evenodd" stroke="none"/>
    <path d="M-318.1 -40.15 Q-321.6 -41.15 -325.1 -42.65 L-306.1 -95.15 -299.1 -92.15 -318.1 -40.15" fill="#6f6f6f" fill-rule="evenodd" stroke="none"/>
    <path d="M-334.1 102.35 L-339.1 100.85 -327.1 68.35 -322.6 69.85 Q-328.1 86.35 -334.1 102.35" fill="#6f6f6f" fill-rule="evenodd" stroke="none"/>
    <path d="M-312.6 110.35 L-317.6 108.85 -305.6 76.35 -300.6 77.85 -312.6 110.35" fill="#6f6f6f" fill-rule="evenodd" stroke="none"/>
    <path d="M-354.1 214.35 L-356.6 213.35 Q-354.1 207.35 -352.1 200.85 L-349.6 201.35 Q-351.6 207.85 -354.1 214.35" fill="#6f6f6f" fill-rule="evenodd" stroke="none"/>
    <path d="M-364.1 210.35 L-366.6 209.35 -361.6 196.85 -359.1 197.85 -364.1 210.35" fill="#6f6f6f" fill-rule="evenodd" stroke="none"/>
    <path d="M-374.1 206.85 L-376.6 205.85 Q-374.1 199.85 -372.1 193.35 L-369.6 194.35 Q-371.6 200.85 -374.1 206.85" fill="#6f6f6f" fill-rule="evenodd" stroke="none"/>
    <path d="M-385.6 202.35 L-388.1 201.35 Q-385.6 195.35 -383.6 188.85 L-381.1 189.85 Q-383.1 196.35 -385.6 202.35" fill="#6f6f6f" fill-rule="evenodd" stroke="none"/>
    <path d="M-291.6 158.35 L-296.6 156.35 Q-290.6 140.35 -285.1 123.85 L-279.6 125.85 -291.6 158.35" fill="#6f6f6f" fill-rule="evenodd" stroke="none"/>
    <path d="M-396.6 137.35 L-402.1 135.35 -390.1 102.85 -385.1 104.85 Q-390.6 121.35 -396.6 137.35" fill="#6f6f6f" fill-rule="evenodd" stroke="none"/>
    <path d="M-355.1 22.35 L-360.1 20.35 -348.1 -12.15 -343.1 -10.15 -355.1 22.35" fill="#6f6f6f" fill-rule="evenodd" stroke="none"/>
    <path d="M-392.6 331.35 L-398.1 329.35 Q-397.1 327.35 -396.6 325.35 L-391.1 327.35 Q-391.6 329.35 -392.6 331.35" fill="#6f6f6f" fill-rule="evenodd" stroke="none"/>
    <path d="M-386.1 333.85 L-391.6 331.85 Q-390.6 329.85 -390.1 327.35 L-384.6 329.35 Q-385.1 331.85 -386.1 333.85" fill="#6f6f6f" fill-rule="evenodd" stroke="none"/>
    <path d="M-379.6 335.85 L-385.1 333.85 Q-384.1 331.85 -383.6 329.85 L-378.1 331.85 Q-378.6 333.85 -379.6 335.85" fill="#6f6f6f" fill-rule="evenodd" stroke="none"/>
    <path d="M-441.1 313.85 L-446.6 311.85 Q-445.6 309.85 -445.1 307.85 L-439.6 309.35 Q-440.1 311.85 -441.1 313.85" fill="#6f6f6f" fill-rule="evenodd" stroke="none"/>
    <path d="M-434.6 315.85 L-439.6 314.35 Q-438.6 312.35 -438.1 309.85 L-433.1 311.85 Q-433.6 313.85 -434.6 315.85" fill="#6f6f6f" fill-rule="evenodd" stroke="none"/>
    <path d="M-427.6 318.35 L-433.1 316.35 Q-432.1 314.35 -431.6 312.35 L-426.1 314.35 Q-426.6 316.35 -427.6 318.35" fill="#6f6f6f" fill-rule="evenodd" stroke="none"/>
    <path d="M-57.65 -68.65 Q-74.65 -74.65 -91.65 -81.15 L-81.65 -109.65 -47.15 -97.15 Q-52.15 -82.65 -57.65 -68.65" fill="#424242" fill-rule="evenodd" stroke="none"/>
    <path d="M-277.1 -181.15 Q-259.6 -174.65 -242.6 -168.65 -247.6 -154.15 -253.1 -140.15 L-287.1 -152.15 -277.1 -181.15" fill="#424242" fill-rule="evenodd" stroke="none"/>
    <path d="M-4.15 -60.65 Q-11.65 -63.15 -19.65 -66.15 -19.15 -67.15 -19.15 -68.15 -11.15 -65.15 -3.65 -62.65 -3.65 -61.65 -4.15 -60.65" fill="#424242" fill-rule="evenodd" stroke="none"/>
    <path d="M-320.1 70.85 L-315.6 70.35 -311.1 71.85 -308.1 75.35 -307.1 80.35 -315.1 101.85 Q-316.6 103.35 -318.6 104.85 L-323.1 105.85 -328.1 104.35 -331.1 100.35 Q-331.1 98.35 -331.6 95.85 -327.6 85.35 -324.1 74.35 L-320.1 70.85" fill="#424242" fill-rule="evenodd" stroke="none"/>
    <path d="M-345.6 299.85 Q-336.6 275.85 -328.1 251.35 -323.1 253.35 -318.1 254.85 -326.6 279.35 -335.6 303.85 L-345.6 299.85" fill="#424242" fill-rule="evenodd" stroke="none"/>
    <path d="M-418.6 211.85 Q-430.1 207.85 -441.6 203.35 L-430.6 172.85 -407.1 181.35 Q-412.6 196.85 -418.6 211.85" fill="#424242" fill-rule="evenodd" stroke="none"/>
    <path d="M-97.65 -41.15 Q-121.65 25.85 -146.15 92.35 L-165.15 85.35 Q-140.65 18.85 -116.65 -48.15 L-97.65 -41.15" fill="#ffffff" fill-rule="evenodd" stroke="none"/>
    <path d="M-61.15 -27.65 Q-85.15 38.85 -109.65 105.35 L-129.15 98.85 -80.15 -34.65 -61.15 -27.65" fill="#ffffff" fill-rule="evenodd" stroke="none"/>
    <path d="M-31.15 -283.15 L-12.15 -276.15 Q-36.15 -209.65 -60.65 -143.15 L-79.65 -150.15 Q-55.15 -216.65 -31.15 -283.15" fill="#ffffff" fill-rule="evenodd" stroke="none"/>
    <path d="M5.35 -269.65 L24.35 -262.65 Q0.35 -196.15 -24.15 -129.65 L-43.15 -136.65 Q-18.65 -203.15 5.35 -269.65" fill="#ffffff" fill-rule="evenodd" stroke="none"/>
  </g>
</svg>
