<?xml version="1.0" encoding="UTF-8" standalone="no"?>
<svg xmlns:ffdec="https://www.free-decompiler.com/flash" xmlns:xlink="http://www.w3.org/1999/xlink" ffdec:objectType="shape" height="794.0px" width="900.0px" xmlns="http://www.w3.org/2000/svg">
  <g transform="matrix(1.0, 0.0, 0.0, 1.0, 499.8, 499.95)">
    <path d="M-452.8 -397.95 L-499.8 -397.95 -499.8 -469.45 -450.3 -469.45 -450.3 -474.45 -419.3 -474.45 -351.8 -465.45 -349.8 -465.45 -349.8 -473.95 -300.3 -473.95 -300.3 -465.45 249.7 -465.45 299.2 -474.45 350.2 -474.45 350.2 -469.45 400.2 -469.45 400.2 -397.95 353.2 -397.95 353.2 -328.45 400.2 -328.45 400.2 -257.95 350.2 -257.95 350.2 -252.95 299.2 -252.95 Q274.7 -256.95 249.7 -261.45 L-300.3 -261.45 -300.3 -254.95 -349.8 -254.95 -349.8 -261.45 -351.8 -261.45 -419.3 -252.95 -450.3 -252.95 -450.3 -257.95 -499.8 -257.95 -499.8 -328.45 -452.8 -328.45 -452.8 -397.95" fill="#424242" fill-rule="evenodd" stroke="none"/>
    <path d="M-400.3 -421.95 L269.7 -421.95 345.7 -402.95 345.7 -321.95 269.2 -302.95 -400.8 -302.95 Q-424.8 -311.95 -448.8 -321.45 L-448.8 -401.95 -400.3 -421.95" fill="#959595" fill-rule="evenodd" stroke="none"/>
    <path d="M232.2 -377.45 L232.2 -347.45 215.2 -347.45 215.2 -377.45 232.2 -377.45" fill="#6f6f6f" fill-rule="evenodd" stroke="none"/>
    <path d="M149.2 -377.45 L149.2 -347.45 132.2 -347.45 132.2 -377.45 149.2 -377.45" fill="#6f6f6f" fill-rule="evenodd" stroke="none"/>
    <path d="M290.7 -355.95 L288.2 -360.45 288.2 -364.95 Q289.7 -366.95 290.7 -369.45 L294.7 -371.95 317.7 -371.95 Q320.2 -370.45 322.2 -369.45 L324.7 -364.95 324.7 -360.45 Q323.7 -357.95 322.2 -355.95 320.2 -354.45 317.7 -353.45 L294.7 -353.45 Q292.7 -354.45 290.7 -355.95" fill="#424242" fill-rule="evenodd" stroke="none"/>
    <path d="M207.7 -355.95 L205.7 -359.95 205.7 -364.95 207.7 -368.95 Q210.2 -369.95 212.2 -371.45 L235.2 -371.45 239.2 -369.45 241.7 -364.95 241.7 -360.45 Q240.7 -357.95 239.2 -355.95 237.2 -354.45 235.2 -353.45 L212.2 -353.45 Q210.2 -354.45 207.7 -355.95" fill="#424242" fill-rule="evenodd" stroke="none"/>
    <path d="M126.2 -369.45 Q128.2 -370.45 130.2 -371.95 L153.2 -371.95 Q155.7 -370.45 157.7 -369.45 L159.7 -364.95 159.7 -360.45 157.7 -355.95 Q155.7 -354.45 153.2 -353.45 L130.2 -353.45 Q128.2 -354.45 126.2 -355.95 L123.7 -360.45 123.7 -364.95 Q125.2 -366.95 126.2 -369.45" fill="#424242" fill-rule="evenodd" stroke="none"/>
    <path d="M47.7 -371.95 L70.7 -371.95 Q72.7 -370.45 74.7 -369.45 L77.2 -364.95 77.2 -360.45 Q76.2 -357.95 74.7 -355.95 L70.7 -353.45 47.7 -353.45 Q45.7 -354.45 43.7 -355.95 L41.2 -360.45 41.2 -364.95 Q42.7 -366.95 43.7 -369.45 45.7 -370.45 47.7 -371.95" fill="#424242" fill-rule="evenodd" stroke="none"/>
    <path d="M-37.3 -369.45 Q-34.8 -370.45 -32.8 -371.95 L-9.8 -371.95 Q-7.8 -370.45 -5.8 -369.45 L-3.3 -364.95 -3.3 -360.45 Q-4.3 -357.95 -5.8 -355.95 -7.8 -354.45 -9.8 -353.45 L-32.8 -353.45 -37.3 -355.95 -39.8 -360.45 -39.8 -364.95 Q-38.3 -366.95 -37.3 -369.45" fill="#424242" fill-rule="evenodd" stroke="none"/>
    <path d="M-206.3 -355.95 L-208.8 -360.45 -208.8 -364.95 Q-207.3 -366.95 -206.3 -369.45 -204.3 -370.45 -202.3 -371.95 L-179.3 -371.95 -174.8 -369.45 -172.3 -364.95 -172.3 -360.45 Q-173.3 -357.95 -174.8 -355.95 -176.8 -354.45 -179.3 -353.45 L-202.3 -353.45 Q-204.3 -354.45 -206.3 -355.95" fill="#424242" fill-rule="evenodd" stroke="none"/>
    <path d="M-285.3 -369.45 L-281.3 -371.95 -258.3 -371.95 Q-256.3 -370.45 -254.3 -369.45 L-251.8 -364.95 -251.8 -360.45 Q-252.8 -357.95 -254.3 -355.95 -256.3 -354.45 -258.3 -353.45 L-281.3 -353.45 Q-283.3 -354.45 -285.3 -355.95 L-287.8 -360.45 -287.8 -364.95 Q-286.3 -366.95 -285.3 -369.45" fill="#424242" fill-rule="evenodd" stroke="none"/>
    <path d="M-363.8 -371.95 L-340.8 -371.95 -336.3 -369.45 -334.3 -364.95 -334.3 -360.45 -336.3 -355.95 Q-338.3 -354.45 -340.8 -353.45 L-363.8 -353.45 Q-365.8 -354.45 -367.8 -355.95 L-370.3 -360.45 -370.3 -364.95 Q-368.8 -366.95 -367.8 -369.45 -365.8 -370.45 -363.8 -371.95" fill="#424242" fill-rule="evenodd" stroke="none"/>
    <path d="M205.2 -366.95 L205.2 -356.95 196.7 -356.95 196.7 -366.95 205.2 -366.95" fill="#424242" fill-rule="evenodd" stroke="none"/>
    <path d="M-85.8 -381.45 L-85.8 -344.95 -116.3 -344.95 -116.3 -381.45 -85.8 -381.45" fill="#424242" fill-rule="evenodd" stroke="none"/>
    <path d="M-325.3 -366.95 L-325.3 -356.95 -334.3 -356.95 -334.3 -366.95 -325.3 -366.95" fill="#424242" fill-rule="evenodd" stroke="none"/>
    <path d="M-426.8 -361.45 L-426.8 -331.45 -447.8 -331.45 -447.8 -361.45 -426.8 -361.45" fill="#424242" fill-rule="evenodd" stroke="none"/>
    <path d="M-159.8 -398.95 L-179.8 -446.95 -179.8 -469.95 -168.3 -469.95 -168.3 -496.95 -94.8 -496.95 -94.8 -499.95 -57.3 -499.95 -57.3 -496.95 -33.3 -496.95 -33.3 -469.95 -20.8 -469.95 -20.8 -448.45 Q-30.8 -423.45 -41.3 -398.95 L-41.3 -327.45 -21.3 -279.95 -21.3 -256.95 -33.3 -256.95 -33.3 -232.95 35.7 -232.95 40.7 -227.95 43.7 -227.95 43.7 -243.95 283.2 -243.95 283.2 -231.95 292.7 -231.95 292.7 -147.45 283.2 -147.45 283.2 -137.95 285.7 -137.95 285.7 -92.45 296.7 -92.45 296.7 -30.95 285.7 -30.95 285.7 25.05 277.2 25.05 277.2 158.55 273.2 158.55 273.2 171.55 278.7 171.55 278.7 188.05 288.7 188.05 288.7 273.05 278.7 273.05 278.7 294.05 -32.8 294.05 -32.8 266.05 -43.3 266.05 -43.3 188.05 -32.8 188.05 -32.8 171.55 -18.3 171.55 -18.3 167.55 -13.3 167.55 Q-2.3 174.05 8.2 180.55 L42.2 167.55 47.2 167.55 47.2 169.55 194.2 169.55 194.2 158.55 191.7 158.55 191.7 34.05 144.7 34.05 144.7 -43.95 135.7 -43.95 135.7 -125.95 46.7 -125.95 46.7 -136.45 44.2 -136.45 44.2 -142.95 40.7 -142.95 Q37.7 -141.45 34.7 -140.45 L34.7 -133.95 -30.8 -133.95 -30.8 -137.95 -36.8 -129.45 -43.8 -129.45 -43.8 -126.95 -81.8 -126.95 -81.8 -129.45 -114.3 -129.45 -114.3 -126.95 -139.8 -126.95 -139.8 -129.45 -168.3 -129.45 -168.3 -144.45 -177.3 -144.45 -177.3 -172.45 -168.3 -172.45 -168.3 -256.95 -180.3 -256.95 -180.3 -280.45 Q-169.8 -303.95 -159.8 -327.95 L-159.8 -398.95" fill="#424242" fill-rule="evenodd" stroke="none"/>
    <path d="M-154.8 -399.95 L-174.8 -447.95 -174.8 -464.95 -163.3 -464.95 -163.3 -491.95 -89.8 -491.95 -89.8 -494.95 -62.3 -494.95 -62.3 -491.95 -38.3 -491.95 -38.3 -464.95 -25.8 -464.95 -25.8 -449.45 Q-35.8 -424.45 -46.3 -399.95 L-46.3 -326.45 -26.3 -278.95 -26.3 -261.95 -38.3 -261.95 -38.3 -227.95 33.2 -227.95 38.2 -222.95 48.7 -222.95 48.7 -238.95 278.2 -238.95 278.2 -226.95 287.7 -226.95 287.7 -152.45 278.2 -152.45 278.2 -141.45 264.2 -141.45 264.2 -132.95 280.7 -132.95 280.7 20.05 271.2 20.05 271.2 29.05 272.2 29.05 272.2 153.55 267.2 153.55 267.2 163.05 268.2 163.05 268.2 176.55 273.7 176.55 273.7 193.05 283.7 193.05 283.7 268.05 273.7 268.05 273.7 289.05 -27.8 289.05 -27.8 261.05 -38.3 261.05 -38.3 193.05 -27.8 193.05 -27.8 176.55 -13.3 176.55 -13.3 167.55 42.2 167.55 42.2 174.55 199.2 174.55 199.2 163.05 201.2 163.05 201.2 153.55 196.7 153.55 196.7 29.05 149.7 29.05 149.7 -48.95 140.7 -48.95 140.7 -124.45 174.7 -124.45 174.7 -132.95 203.7 -132.95 203.7 -139.95 130.7 -139.95 130.7 -130.95 51.7 -130.95 51.7 -141.45 49.2 -141.45 49.2 -148.45 38.2 -148.45 33.2 -144.95 -31.3 -144.95 Q-35.3 -139.45 -39.3 -134.45 L-48.8 -134.45 -48.8 -131.95 -76.8 -131.95 -76.8 -134.45 -119.3 -134.45 -119.3 -131.95 -134.8 -131.95 -134.8 -134.45 -163.3 -134.45 -163.3 -261.95 -175.3 -261.95 -175.3 -278.95 Q-164.8 -302.45 -154.8 -326.45 L-154.8 -399.95" fill="#959595" fill-rule="evenodd" stroke="none"/>
    <path d="M-90.8 -434.45 L-90.8 -417.95 -104.8 -417.95 -104.8 -434.45 -90.8 -434.45" fill="#6f6f6f" fill-rule="evenodd" stroke="none"/>
    <path d="M-98.8 -490.45 L-98.8 -484.95 -149.8 -484.95 -149.8 -490.45 -98.8 -490.45" fill="#6f6f6f" fill-rule="evenodd" stroke="none"/>
    <path d="M-44.3 -474.45 L-39.3 -474.45 -39.3 -467.95 -44.3 -467.95 -44.3 -474.45" fill="#6f6f6f" fill-rule="evenodd" stroke="none"/>
    <path d="M-156.8 -474.95 L-156.8 -467.95 -161.3 -467.95 -161.3 -474.95 -156.8 -474.95" fill="#6f6f6f" fill-rule="evenodd" stroke="none"/>
    <path d="M-162.3 -167.45 L-162.3 -149.45 -172.3 -149.45 -172.3 -167.45 -162.3 -167.45" fill="#6f6f6f" fill-rule="evenodd" stroke="none"/>
    <path d="M29.7 -146.45 L29.7 -138.95 -25.8 -138.95 -25.8 -146.45 29.7 -146.45" fill="#6f6f6f" fill-rule="evenodd" stroke="none"/>
    <path d="M183.2 243.55 L149.2 243.55 149.2 238.55 183.2 238.55 183.2 243.55" fill="#6f6f6f" fill-rule="evenodd" stroke="none"/>
    <path d="M183.2 220.55 L149.2 220.55 149.2 215.05 183.2 215.05 183.2 220.55" fill="#6f6f6f" fill-rule="evenodd" stroke="none"/>
    <path d="M108.7 181.55 L74.2 181.55 74.2 176.55 108.7 176.55 108.7 181.55" fill="#6f6f6f" fill-rule="evenodd" stroke="none"/>
    <path d="M47.2 288.05 L12.7 288.05 12.7 282.55 47.2 282.55 47.2 288.05" fill="#6f6f6f" fill-rule="evenodd" stroke="none"/>
    <path d="M195.2 287.55 L161.2 287.55 161.2 282.55 195.2 282.55 195.2 287.55" fill="#6f6f6f" fill-rule="evenodd" stroke="none"/>
    <path d="M249.7 -232.45 L215.2 -232.45 215.2 -237.45 249.7 -237.45 249.7 -232.45" fill="#6f6f6f" fill-rule="evenodd" stroke="none"/>
    <path d="M131.2 -232.45 L96.7 -232.45 96.7 -237.45 131.2 -237.45 131.2 -232.45" fill="#6f6f6f" fill-rule="evenodd" stroke="none"/>
    <path d="M186.2 -141.45 L152.2 -141.45 152.2 -146.45 186.2 -146.45 186.2 -141.45" fill="#6f6f6f" fill-rule="evenodd" stroke="none"/>
    <path d="M220.2 4.55 L220.2 -8.95 223.2 -8.95 223.2 4.55 220.2 4.55" fill="#6f6f6f" fill-rule="evenodd" stroke="none"/>
    <path d="M232.2 4.55 L232.2 -8.95 235.2 -8.95 235.2 4.55 232.2 4.55" fill="#6f6f6f" fill-rule="evenodd" stroke="none"/>
    <path d="M243.7 4.55 L243.7 -8.95 246.7 -8.95 246.7 4.55 243.7 4.55" fill="#6f6f6f" fill-rule="evenodd" stroke="none"/>
    <path d="M253.7 4.55 L253.7 -8.95 256.7 -8.95 256.7 4.55 253.7 4.55" fill="#6f6f6f" fill-rule="evenodd" stroke="none"/>
    <path d="M194.2 -171.95 L160.2 -171.95 160.2 -176.95 194.2 -176.95 194.2 -171.95" fill="#6f6f6f" fill-rule="evenodd" stroke="none"/>
    <path d="M194.2 -194.95 L160.2 -194.95 160.2 -200.45 194.2 -200.45 194.2 -194.95" fill="#6f6f6f" fill-rule="evenodd" stroke="none"/>
    <path d="M-85.8 -381.45 L-85.8 -344.95 -116.3 -344.95 -116.3 -381.45 -85.8 -381.45" fill="#424242" fill-rule="evenodd" stroke="none"/>
    <path d="M-85.8 -173.45 L-85.8 -136.95 -116.3 -136.95 -116.3 -173.45 -85.8 -173.45" fill="#424242" fill-rule="evenodd" stroke="none"/>
    <path d="M-96.8 -434.45 L-96.8 -417.95 -98.8 -417.95 -98.8 -434.45 -96.8 -434.45" fill="#424242" fill-rule="evenodd" stroke="none"/>
    <path d="M184.2 232.05 Q183.2 234.05 181.7 236.05 L177.7 238.55 154.7 238.55 Q152.7 237.55 150.7 236.05 149.7 234.05 148.2 232.05 L148.2 227.05 Q149.7 225.05 150.7 223.05 L154.7 220.55 177.7 220.55 Q179.7 222.05 181.7 223.05 183.2 225.05 184.2 227.05 L184.2 232.05" fill="#424242" fill-rule="evenodd" stroke="none"/>
    <path d="M194.7 -183.95 L192.7 -179.45 Q190.7 -177.95 188.2 -176.95 L165.2 -176.95 Q163.2 -177.95 161.2 -179.45 L158.7 -183.95 158.7 -188.45 Q160.2 -190.45 161.2 -192.95 L165.2 -194.95 188.2 -194.95 192.7 -192.95 194.7 -188.45 194.7 -183.95" fill="#424242" fill-rule="evenodd" stroke="none"/>
    <path d="M291.7 -35.95 L280.7 -35.95 280.7 -87.45 291.7 -87.45 291.7 -35.95" fill="#424242" fill-rule="evenodd" stroke="none"/>
    <path d="M195.2 -3.45 L162.7 -3.45 162.7 -28.45 195.2 -28.45 195.2 -3.45" fill="#424242" fill-rule="evenodd" stroke="none"/>
    <path d="M-46.3 -353.45 L95.7 -353.45 95.7 -332.95 -46.3 -332.95 -46.3 -353.45" fill="#ffffff" fill-rule="evenodd" stroke="none"/>
    <path d="M-46.3 -371.95 L-46.3 -391.95 95.7 -391.95 95.7 -371.95 -46.3 -371.95" fill="#ffffff" fill-rule="evenodd" stroke="none"/>
    <path d="M-296.3 -353.45 L-154.8 -353.45 -154.8 -332.95 -296.3 -332.95 -296.3 -353.45" fill="#ffffff" fill-rule="evenodd" stroke="none"/>
    <path d="M-154.8 -391.95 L-154.8 -371.95 -296.3 -371.95 -296.3 -391.95 -154.8 -391.95" fill="#ffffff" fill-rule="evenodd" stroke="none"/>
  </g>
</svg>
