<?xml version="1.0" encoding="UTF-8" standalone="no"?>
<svg xmlns:ffdec="https://www.free-decompiler.com/flash" xmlns:xlink="http://www.w3.org/1999/xlink" ffdec:objectType="shape" height="92.0px" width="91.95px" xmlns="http://www.w3.org/2000/svg">
  <g transform="matrix(1.0, 0.0, 0.0, 1.0, 45.9, 46.0)">
    <path d="M20.5 -41.25 L20.9 -41.0 21.35 -40.8 21.75 -40.55 22.2 -40.35 26.3 -37.8 26.65 -37.5 27.85 -36.65 32.2 -32.9 36.65 -27.85 37.5 -26.65 37.8 -26.3 40.35 -22.2 40.55 -21.75 40.8 -21.35 41.0 -20.9 41.25 -20.5 44.35 -12.4 45.55 -6.75 46.0 -1.95 46.0 -0.5 46.05 0.0 45.55 6.7 44.6 11.4 42.45 17.8 41.25 20.45 41.0 20.85 40.8 21.3 40.55 21.7 40.35 22.15 37.8 26.25 37.5 26.6 37.25 27.0 31.85 33.2 27.85 36.6 26.65 37.45 26.3 37.75 22.2 40.3 21.75 40.5 21.35 40.75 20.9 40.95 20.5 41.2 12.4 44.3 7.7 45.35 7.2 45.4 6.75 45.5 1.95 45.95 0.5 45.95 0.05 46.0 -0.45 45.95 -1.9 45.95 -6.7 45.5 -7.15 45.4 -7.65 45.35 -16.0 43.1 -20.45 41.2 -20.85 40.95 -21.3 40.75 -21.7 40.5 -22.15 40.3 -26.25 37.75 -26.6 37.45 -27.0 37.2 -30.4 34.5 -34.5 30.4 -37.2 27.0 -37.45 26.6 -37.75 26.25 -40.3 22.15 -40.5 21.7 -40.75 21.3 -40.95 20.85 -41.2 20.45 -42.4 17.8 -44.55 11.4 -45.35 7.65 -45.4 7.15 -45.5 6.7 -45.9 2.85 -45.5 -6.75 -45.4 -7.2 -45.35 -7.7 -44.3 -12.4 -41.2 -20.5 -40.95 -20.9 -40.75 -21.35 -40.5 -21.75 -40.3 -22.2 -37.75 -26.3 -37.45 -26.65 -36.6 -27.85 -33.2 -31.85 -26.25 -37.8 -22.15 -40.35 -21.7 -40.55 -21.3 -40.8 -20.85 -41.0 -20.45 -41.25 -17.8 -42.45 -11.4 -44.6 -7.65 -45.4 -7.15 -45.45 -6.7 -45.55 -1.9 -46.0 0.0 -46.0 0.05 -38.0 -1.55 -38.0 -1.95 -37.95 -2.35 -37.95 -2.75 -37.9 -3.15 -37.9 -4.35 -37.75 -4.75 -37.75 -6.3 -37.5 -6.7 -37.4 -7.5 -37.3 -11.35 -36.3 -11.7 -36.15 -12.1 -36.05 -12.45 -35.9 -12.85 -35.8 -15.8 -34.6 -16.85 -34.05 -17.25 -33.9 -22.0 -31.0 -22.3 -30.75 -22.65 -30.55 -26.85 -26.9 -27.1 -26.6 -27.4 -26.35 -30.5 -22.7 -30.7 -22.35 -30.95 -22.05 -33.85 -17.3 -35.75 -12.9 -35.85 -12.5 -36.0 -12.15 -36.1 -11.75 -36.25 -11.4 -36.45 -10.65 -36.6 -10.25 -37.7 -4.8 -37.7 -4.4 -37.85 -3.2 -37.85 -2.8 -37.9 -2.4 -37.9 -2.0 -37.95 -1.6 -37.95 1.55 -37.9 1.95 -37.9 2.35 -37.85 2.75 -37.85 3.15 -37.7 4.35 -37.7 4.75 -37.15 7.9 -37.05 8.25 -36.9 9.05 -36.25 11.35 -36.1 11.7 -36.0 12.1 -35.85 12.45 -35.75 12.85 -33.85 17.25 -31.65 21.0 -30.95 22.0 -30.7 22.3 -30.5 22.65 -27.4 26.3 -27.1 26.55 -26.85 26.85 -22.65 30.5 -18.65 33.1 -17.25 33.85 -12.85 35.75 -12.45 35.85 -12.1 36.0 -11.7 36.1 -11.35 36.25 -9.05 36.9 -8.65 36.95 -7.5 37.25 -5.15 37.6 -4.75 37.7 -4.35 37.7 -3.15 37.85 -2.75 37.85 -2.35 37.9 -1.95 37.9 -1.55 37.95 -0.35 37.95 0.05 38.0 0.4 37.95 1.6 37.95 2.0 37.9 2.4 37.9 2.8 37.85 3.2 37.85 4.4 37.7 4.8 37.7 5.2 37.6 7.55 37.25 8.7 36.95 9.1 36.9 10.25 36.6 10.65 36.45 11.4 36.25 11.75 36.1 12.15 36.0 12.5 35.85 12.9 35.75 17.3 33.85 22.7 30.5 26.9 26.85 27.15 26.55 27.75 26.0 30.55 22.65 33.15 18.65 33.3 18.3 33.9 17.25 35.8 12.85 35.9 12.45 36.05 12.1 36.15 11.7 36.3 11.35 37.75 4.75 37.75 4.35 37.9 3.15 37.9 2.75 37.95 2.35 37.95 1.95 38.0 1.55 38.0 0.35 38.05 0.0 38.0 -0.4 38.0 -1.6 37.95 -2.0 37.95 -2.4 37.9 -2.8 37.9 -3.2 37.75 -4.4 37.75 -4.8 37.65 -5.2 37.2 -7.95 37.1 -8.3 36.95 -9.1 36.3 -11.4 36.15 -11.75 36.05 -12.15 35.9 -12.5 35.8 -12.9 33.9 -17.3 33.15 -18.7 30.55 -22.7 27.75 -26.05 27.15 -26.6 26.9 -26.9 26.6 -27.15 26.05 -27.75 22.7 -30.55 22.35 -30.75 22.05 -31.0 17.3 -33.9 16.9 -34.05 16.2 -34.4 19.6 -41.65 20.5 -41.25" fill="#ffffff" fill-rule="evenodd" stroke="none"/>
  </g>
</svg>
