<?xml version="1.0" encoding="UTF-8" standalone="no"?>
<svg xmlns:ffdec="https://www.free-decompiler.com/flash" xmlns:xlink="http://www.w3.org/1999/xlink" ffdec:objectType="shape" height="32.0px" width="42.8px" xmlns="http://www.w3.org/2000/svg">
  <g transform="matrix(1.0, 0.0, 0.0, 1.0, 42.75, 46.0)">
    <path d="M0.0 -46.0 L0.05 -38.0 -1.55 -38.0 -1.95 -37.95 -2.35 -37.95 -2.75 -37.9 -3.15 -37.9 -4.35 -37.75 -4.75 -37.75 -6.3 -37.5 -6.7 -37.4 -7.5 -37.3 -11.35 -36.3 -11.7 -36.15 -12.1 -36.05 -12.45 -35.9 -12.85 -35.8 -15.8 -34.6 -16.85 -34.05 -17.25 -33.9 -22.0 -31.0 -22.3 -30.75 -22.65 -30.55 -26.85 -26.9 -27.1 -26.6 -27.4 -26.35 -30.5 -22.7 -30.7 -22.35 -30.95 -22.05 -33.85 -17.3 -35.3 -14.0 -42.75 -16.95 -41.2 -20.5 -40.95 -20.9 -40.75 -21.35 -40.5 -21.75 -40.3 -22.2 -37.75 -26.3 -37.45 -26.65 -36.6 -27.85 -33.2 -31.85 -26.25 -37.8 -22.15 -40.35 -21.7 -40.55 -21.3 -40.8 -20.85 -41.0 -20.45 -41.25 -17.8 -42.45 -11.4 -44.6 -7.65 -45.4 -7.15 -45.45 -6.7 -45.55 -1.9 -46.0 0.0 -46.0" fill="#ffffff" fill-rule="evenodd" stroke="none"/>
  </g>
</svg>
