<?xml version="1.0" encoding="UTF-8" standalone="no"?>
<svg xmlns:ffdec="https://www.free-decompiler.com/flash" xmlns:xlink="http://www.w3.org/1999/xlink" ffdec:objectType="shape" height="178.75px" width="153.6px" xmlns="http://www.w3.org/2000/svg">
  <g transform="matrix(1.0, 0.0, 0.0, 1.0, 96.35, 121.45)">
    <path d="M-96.35 -121.45 L43.3 -121.45 43.3 -5.0 57.25 -5.0 57.25 57.3 -96.35 57.3 -96.35 -121.45" fill="#424242" fill-rule="evenodd" stroke="none"/>
    <path d="M34.35 -61.0 L34.35 1.3 53.95 1.3 53.95 11.35 54.75 11.35 54.75 37.35 53.95 37.35 53.95 41.3 55.75 41.3 55.75 52.75 -59.05 52.75 -59.05 25.5 -61.05 25.4 -61.05 12.5 -59.05 12.5 -59.05 -2.25 -72.05 -2.25 -72.05 -20.0 -59.05 -19.9 -59.05 -82.6 34.35 -82.6 34.35 -73.95 36.3 -73.95 36.3 -61.0 34.35 -61.0" fill="#959595" fill-rule="evenodd" stroke="none"/>
    <path d="M-3.7 -61.15 L-11.5 -60.6 -20.5 -61.4 -27.45 -62.95 -32.5 -64.6 -39.4 -68.65 -39.55 -82.7 19.5 -82.65 19.5 -68.65 15.75 -68.65 9.1 -64.6 3.75 -62.7 -3.7 -61.15 M0.45 -55.75 L1.7 -54.5 2.3 -52.65 1.85 -50.85 0.8 -49.75 -1.45 -48.9 -3.3 -49.35 -4.65 -50.75 -5.2 -52.4 -4.65 -54.5 -3.4 -55.75 -1.7 -56.25 0.45 -55.75 M16.25 -63.25 L17.0 -62.95 17.85 -62.9 19.1 -61.65 19.75 -59.75 19.2 -57.7 17.95 -56.45 16.3 -56.0 13.95 -56.45 12.7 -57.7 12.25 -59.6 12.7 -61.25 12.55 -61.45 14.1 -62.9 16.25 -63.25 M20.8 -44.9 L22.25 -46.25 23.75 -46.45 26.0 -46.25 27.05 -45.15 27.7 -43.65 27.55 -41.7 26.15 -40.1 24.5 -39.35 22.0 -40.0 21.05 -40.85 20.45 -42.65 20.8 -44.9 M7.5 -34.35 L7.05 -32.25 5.6 -30.75 4.2 -30.4 2.0 -30.75 0.6 -32.1 0.05 -33.65 0.45 -35.75 1.85 -37.1 3.3 -37.65 5.6 -37.25 7.0 -35.85 7.5 -34.35 M-12.3 -12.95 L-13.55 -11.7 -15.45 -11.25 -17.45 -11.7 -18.7 -12.95 -19.25 -14.9 -18.75 -16.7 -17.5 -17.95 -15.65 -18.65 -13.7 -18.1 -12.3 -16.65 -11.75 -15.15 -12.3 -12.95 M4.55 -16.85 L6.3 -16.45 7.7 -15.15 8.25 -13.65 7.95 -11.85 7.3 -10.75 5.0 -9.6 2.7 -10.0 1.3 -11.4 0.8 -12.95 1.3 -15.15 2.55 -16.4 4.55 -16.85 M23.8 -25.15 L25.05 -23.9 25.75 -22.0 25.2 -20.0 23.95 -18.75 22.3 -18.25 20.0 -18.75 18.75 -20.0 18.25 -21.85 18.75 -23.75 20.05 -25.15 21.45 -25.45 23.8 -25.15 M27.3 41.1 L25.8 42.5 24.35 43.0 22.05 42.5 20.8 41.25 20.35 39.6 21.0 37.3 21.85 36.35 23.5 35.8 26.0 36.1 27.25 37.35 27.7 39.0 27.3 41.1 M-7.05 40.65 L-5.8 39.4 -3.95 38.85 -1.9 39.4 -0.65 40.65 0.0 42.5 -0.5 44.25 -1.5 45.4 -3.75 46.25 -5.8 45.8 -7.05 44.55 -7.5 42.75 -7.05 40.65 M-45.5 -62.7 L-44.2 -64.15 -42.75 -64.5 -40.45 -64.15 -39.2 -62.9 -38.55 -61.0 -39.0 -58.95 -40.25 -57.7 -42.15 -57.25 -44.25 -57.7 -45.5 -58.95 -46.05 -60.85 -45.5 -62.7 M-23.3 -57.9 L-21.9 -58.25 -19.55 -57.9 -18.3 -56.65 -17.7 -54.75 -18.15 -52.9 -19.55 -51.45 -21.2 -51.0 -23.4 -51.45 -24.65 -52.7 -25.2 -54.5 -24.65 -56.45 -23.3 -57.9 M-16.25 -36.7 L-15.45 -35.85 -14.65 -33.9 -15.2 -31.7 -16.5 -30.45 -18.3 -30.0 -20.25 -30.45 -21.7 -31.85 -22.05 -33.25 -21.7 -35.45 -20.45 -36.7 -18.55 -37.4 -16.25 -36.7 M-40.0 -43.9 L-38.75 -42.65 -38.15 -40.75 -38.7 -38.75 -39.95 -37.5 -41.75 -37.0 -43.75 -37.5 -45.0 -38.75 -45.65 -40.6 -45.2 -42.5 -43.95 -43.75 -42.05 -44.35 -40.0 -43.9 M-42.3 -19.35 L-41.9 -21.45 -40.5 -22.9 -38.75 -23.35 -36.9 -22.95 -36.25 -22.5 -35.45 -21.65 -34.95 -20.0 -35.5 -17.65 -36.45 -16.7 -38.0 -16.15 -40.5 -16.45 -41.75 -17.7 -42.3 -19.35 M-51.45 -1.65 L-25.8 -1.65 -25.8 52.75 -32.5 52.75 -32.5 5.65 -51.45 5.65 -51.45 -1.65 M-59.05 28.0 L-54.25 28.0 -54.2 52.75 -59.05 52.75 -59.05 28.0" fill="#6f6f6f" fill-rule="evenodd" stroke="none"/>
    <path d="M57.25 41.3 L57.25 52.75 53.95 52.75 53.95 41.3 57.25 41.3" fill="#ffffff" fill-rule="evenodd" stroke="none"/>
  </g>
</svg>
