<?xml version="1.0" encoding="UTF-8" standalone="no"?>
<svg xmlns:ffdec="https://www.free-decompiler.com/flash" xmlns:xlink="http://www.w3.org/1999/xlink" ffdec:objectType="shape" height="1964.8px" width="1395.95px" xmlns="http://www.w3.org/2000/svg">
  <g transform="matrix(1.0, 0.0, 0.0, 1.0, 708.65, 1132.75)">
    <path d="M459.4 -1132.75 L466.9 -1130.7 475.25 -1126.55 481.45 -1121.9 486.25 -1117.35 492.1 -1110.65 497.35 -1097.8 499.85 -1085.0 500.25 -898.75 437.75 -898.75 437.75 -1074.5 251.5 -1074.5 251.5 -742.3 687.3 -742.3 687.3 226.6 625.65 226.6 625.65 832.05 -646.5 832.05 -646.5 -223.8 -708.65 -223.8 -708.65 -1096.0 129.0 -1096.0 129.0 -1132.75 459.4 -1132.75" fill="#434343" fill-rule="evenodd" stroke="none"/>
    <path d="M469.75 -1115.35 L477.5 -1109.0 483.5 -1100.0 485.4 -1095.35 486.85 -1090.0 487.25 -1079.8 487.25 -898.75 449.75 -898.75 449.75 -1077.5 449.4 -1079.85 448.15 -1081.85 445.75 -1083.75 443.75 -1084.25 240.0 -1084.5 240.0 -982.65 204.25 -982.65 204.25 -987.15 188.0 -987.15 188.0 -877.6 239.1 -877.6 239.1 -672.3 614.65 -672.3 614.65 76.45 676.75 76.45 676.75 216.5 614.65 216.5 614.65 821.05 -636.0 821.05 -636.0 -233.5 -698.25 -233.5 -698.25 -378.5 -636.0 -378.5 -636.0 -672.3 -212.5 -672.3 -212.5 -989.65 -210.75 -990.55 -210.75 -996.65 -212.65 -997.6 -212.65 -1002.15 -210.75 -1003.1 -210.75 -1009.2 -212.65 -1010.1 -212.65 -1014.7 -210.75 -1015.6 -210.75 -1021.75 -212.65 -1022.65 -212.65 -1027.2 -210.75 -1028.15 -210.75 -1034.25 -212.65 -1035.2 -212.65 -1039.6 -210.75 -1040.5 -210.75 -1046.65 -212.65 -1047.55 -212.65 -1052.15 -210.75 -1053.05 -210.75 -1059.15 -212.65 -1060.1 -212.65 -1064.65 -210.75 -1065.6 -210.75 -1071.7 -212.65 -1072.6 -212.65 -1077.2 -210.75 -1078.1 -210.75 -1083.25 -209.65 -1085.5 -205.45 -1085.5 -204.35 -1083.25 -198.25 -1083.25 -197.15 -1085.5 -192.9 -1085.5 -191.8 -1083.25 -185.7 -1083.25 -184.6 -1085.5 -180.4 -1085.5 -179.3 -1083.25 -173.15 -1083.25 -172.05 -1085.5 -168.0 -1085.5 -166.9 -1083.25 -160.8 -1083.25 -159.7 -1085.5 -155.45 -1085.5 -154.4 -1083.25 -148.25 -1083.25 -147.15 -1085.5 -142.95 -1085.5 -141.85 -1083.25 -135.75 -1083.25 -134.65 -1085.5 -130.4 -1085.5 -129.3 -1083.25 -123.2 -1083.25 -122.1 -1085.5 -117.9 -1085.5 -116.8 -1083.25 -110.65 -1083.25 -109.55 -1085.5 -105.75 -1085.5 -104.65 -1083.25 -98.55 -1083.25 -97.45 -1085.5 -93.2 -1085.5 -92.15 -1083.25 -86.0 -1083.25 -84.9 -1085.5 -80.7 -1085.5 -79.6 -1083.25 -73.5 -1083.25 -72.4 -1085.5 -68.15 -1085.5 -67.05 -1083.25 -60.95 -1083.25 -59.85 -1085.5 -55.65 -1085.5 -54.55 -1083.25 -48.4 -1083.25 -47.3 -1085.5 -42.75 -1085.5 -41.65 -1083.25 -35.55 -1083.25 -34.45 -1085.5 -30.2 -1085.5 -29.15 -1083.25 -23.0 -1083.25 -21.9 -1085.5 -17.7 -1085.5 -16.6 -1083.25 -10.5 -1083.25 -9.4 -1085.5 -5.15 -1085.5 -4.05 -1083.25 2.05 -1083.25 3.15 -1085.5 7.35 -1085.5 8.45 -1083.25 14.6 -1083.25 15.7 -1085.5 19.6 -1085.5 20.65 -1083.25 26.8 -1083.25 27.9 -1085.5 32.1 -1085.5 33.2 -1083.25 39.35 -1083.25 40.4 -1085.5 44.65 -1085.5 45.75 -1083.25 51.85 -1083.25 52.95 -1085.5 57.15 -1085.5 58.25 -1083.25 64.4 -1083.25 65.5 -1085.5 69.7 -1085.5 70.8 -1083.25 76.9 -1083.25 78.0 -1085.5 82.1 -1085.5 83.15 -1083.25 89.3 -1083.25 90.4 -1085.5 94.6 -1085.5 95.7 -1083.25 101.85 -1083.25 102.9 -1085.5 107.15 -1085.5 108.25 -1083.25 114.35 -1083.25 115.45 -1085.5 119.65 -1085.5 120.75 -1083.25 126.9 -1083.25 128.0 -1085.5 132.2 -1085.5 133.3 -1083.25 139.4 -1083.25 139.75 -1085.35 139.75 -1122.5 144.4 -1122.5 144.4 -1086.0 175.15 -1086.0 175.15 -1122.5 182.85 -1122.5 183.85 -1120.5 189.95 -1120.5 190.95 -1122.5 195.4 -1122.5 196.35 -1120.5 202.5 -1120.5 203.45 -1122.5 207.95 -1122.5 208.9 -1120.5 215.0 -1120.5 216.0 -1122.5 220.45 -1122.5 221.45 -1120.5 227.55 -1120.5 228.55 -1122.5 233.0 -1122.5 233.95 -1120.5 240.1 -1120.5 240.8 -1122.0 445.65 -1121.85 452.9 -1121.25 459.0 -1120.25 469.75 -1115.35" fill="#969696" fill-rule="evenodd" stroke="none"/>
    <path d="M139.15 -995.1 L142.7 -995.1 142.7 -869.95 136.0 -869.95 136.0 -912.35 139.15 -912.35 139.15 -995.1" fill="#707070" fill-rule="evenodd" stroke="none"/>
    <path d="M184.75 -995.1 L190.7 -995.1 190.7 -869.3 184.75 -869.3 184.75 -995.1" fill="#707070" fill-rule="evenodd" stroke="none"/>
    <path d="M162.65 -995.1 L166.75 -995.1 166.75 -870.0 162.65 -870.0 162.65 -995.1" fill="#707070" fill-rule="evenodd" stroke="none"/>
    <path d="M88.5 -836.25 L90.5 -836.25 90.5 -779.5 88.5 -779.5 88.5 -836.25" fill="#707070" fill-rule="evenodd" stroke="none"/>
    <path d="M-158.8 -987.3 L-161.5 -987.0 -161.5 -916.15 -159.3 -915.8 -159.3 -870.65 -164.75 -870.65 -164.75 -995.0 -160.8 -995.0 -160.8 -992.15 -158.8 -987.3" fill="#707070" fill-rule="evenodd" stroke="none"/>
    <path d="M-212.5 -995.0 L-208.35 -995.0 -208.35 -870.65 -212.5 -870.65 -212.5 -995.0" fill="#707070" fill-rule="evenodd" stroke="none"/>
    <path d="M-189.45 -995.0 L-185.15 -995.0 -185.15 -870.65 -189.45 -870.65 -189.45 -995.0" fill="#707070" fill-rule="evenodd" stroke="none"/>
    <path d="M90.95 -780.0 L91.1 -781.45 103.55 -780.5 115.15 -780.35 126.65 -780.85 137.05 -784.15 137.5 -782.7 126.9 -779.35 115.2 -778.85 103.45 -779.0 90.95 -780.0" fill="#707070" fill-rule="evenodd" stroke="none"/>
    <path d="M115.55 -836.35 L103.55 -836.5 91.2 -838.0 91.35 -839.45 103.7 -838.0 115.5 -837.85 127.35 -838.6 137.15 -842.2 137.65 -840.75 127.7 -837.1 115.55 -836.35" fill="#707070" fill-rule="evenodd" stroke="none"/>
    <path d="M-58.6 -742.4 L-58.6 -744.3 -13.05 -744.3 -13.05 -742.4 -58.6 -742.4" fill="#707070" fill-rule="evenodd" stroke="none"/>
    <path d="M-97.55 -1016.5 L-90.75 -1016.5 -90.75 -999.0 -97.55 -999.0 -97.55 -1016.5" fill="#707070" fill-rule="evenodd" stroke="none"/>
    <path d="M-82.5 -1032.65 L-82.5 -1036.5 -78.0 -1036.5 -78.0 -1032.65 -82.5 -1032.65" fill="#707070" fill-rule="evenodd" stroke="none"/>
    <path d="M139.9 -833.85 L140.3 -819.6 139.15 -808.6 140.15 -782.5 138.65 -782.45 137.65 -808.65 138.8 -819.65 138.4 -833.85 139.9 -833.85" fill="#707070" fill-rule="evenodd" stroke="none"/>
    <path d="M227.8 -725.85 L238.65 -724.1 238.3 -721.75 227.1 -723.5 215.65 -723.5 203.8 -725.75 190.15 -726.1 190.4 -738.6 191.9 -738.6 191.9 -728.1 204.15 -727.7 216.2 -725.5 227.8 -725.85" fill="#707070" fill-rule="evenodd" stroke="none"/>
    <path d="M-696.5 -374.35 L-696.5 -362.4 -698.25 -362.4 -698.25 -374.35 -696.5 -374.35" fill="#707070" fill-rule="evenodd" stroke="none"/>
    <path d="M-697.3 -361.35 L-697.3 -358.5 -698.25 -358.5 -698.25 -361.35 -697.3 -361.35" fill="#707070" fill-rule="evenodd" stroke="none"/>
    <path d="M-695.3 -346.45 L-695.3 -326.75 -698.25 -326.75 -698.25 -346.45 -695.3 -346.45" fill="#707070" fill-rule="evenodd" stroke="none"/>
    <path d="M-698.25 -323.0 L-695.95 -323.0 -695.95 -317.45 -692.8 -317.45 -692.8 -307.05 -698.25 -307.05 -698.25 -323.0" fill="#707070" fill-rule="evenodd" stroke="none"/>
    <path d="M-696.05 -304.45 L-696.05 -299.95 -698.25 -299.95 -698.25 -304.45 -696.05 -304.45" fill="#707070" fill-rule="evenodd" stroke="none"/>
    <path d="M-697.05 -296.95 L-697.05 -287.55 -698.25 -287.55 -698.25 -296.95 -697.05 -296.95" fill="#707070" fill-rule="evenodd" stroke="none"/>
    <path d="M-694.0 -279.05 L-694.0 -273.25 -698.25 -273.25 -698.25 -279.05 -694.0 -279.05" fill="#707070" fill-rule="evenodd" stroke="none"/>
    <path d="M-698.25 -263.25 L-694.0 -263.25 -694.0 -251.15 -698.25 -251.15 -698.25 -263.25" fill="#707070" fill-rule="evenodd" stroke="none"/>
    <path d="M-694.0 -233.5 L-694.0 -238.9 -682.15 -238.9 -682.15 -233.5 -694.0 -233.5" fill="#707070" fill-rule="evenodd" stroke="none"/>
    <path d="M-666.0 -238.9 L-666.0 -233.5 -677.8 -233.5 -677.8 -238.9 -666.0 -238.9" fill="#707070" fill-rule="evenodd" stroke="none"/>
    <path d="M-632.55 -238.1 L-629.35 -240.05 -625.0 -233.1 -628.15 -231.1 -632.55 -238.1" fill="#707070" fill-rule="evenodd" stroke="none"/>
    <path d="M-664.75 -233.5 L-664.75 -234.9 -654.9 -234.9 -654.9 -233.5 -664.75 -233.5" fill="#707070" fill-rule="evenodd" stroke="none"/>
    <path d="M-693.8 -271.05 L-693.8 -265.8 -698.25 -265.8 -698.25 -271.05 -693.8 -271.05" fill="#707070" fill-rule="evenodd" stroke="none"/>
    <path d="M-508.65 -235.8 L-508.65 -233.35 -513.75 -233.35 -513.75 -235.8 -508.65 -235.8" fill="#707070" fill-rule="evenodd" stroke="none"/>
    <path d="M-506.25 -223.35 L-506.25 -220.15 -515.5 -220.15 -515.5 -223.35 -506.25 -223.35" fill="#707070" fill-rule="evenodd" stroke="none"/>
    <path d="M-390.6 -233.35 L-390.6 -236.6 -381.1 -236.6 -381.1 -233.35 -390.6 -233.35" fill="#707070" fill-rule="evenodd" stroke="none"/>
    <path d="M-255.65 -373.55 L-255.65 -381.55 -252.5 -381.55 -252.5 -373.55 -255.65 -373.55" fill="#707070" fill-rule="evenodd" stroke="none"/>
    <path d="M-268.0 -373.8 L-268.0 -378.75 -265.65 -378.75 -265.65 -373.8 -268.0 -373.8" fill="#707070" fill-rule="evenodd" stroke="none"/>
    <path d="M-252.55 -531.55 L-252.55 -521.55 -255.65 -521.55 -255.65 -531.55 -252.55 -531.55" fill="#707070" fill-rule="evenodd" stroke="none"/>
    <path d="M230.8 76.4 L230.8 66.7 234.25 66.7 234.25 76.4 230.8 76.4" fill="#707070" fill-rule="evenodd" stroke="none"/>
    <path d="M232.15 -77.9 L232.15 -82.4 234.25 -82.4 234.25 -77.9 232.15 -77.9" fill="#707070" fill-rule="evenodd" stroke="none"/>
    <path d="M608.5 365.25 L610.7 357.25 613.95 358.15 611.75 366.15 608.5 365.25" fill="#707070" fill-rule="evenodd" stroke="none"/>
    <path d="M485.1 378.85 L485.1 377.2 489.75 377.2 489.75 378.85 485.1 378.85" fill="#707070" fill-rule="evenodd" stroke="none"/>
    <path d="M362.2 378.85 L362.2 377.2 366.85 377.2 366.85 378.85 362.2 378.85" fill="#707070" fill-rule="evenodd" stroke="none"/>
    <path d="M111.75 378.9 L111.75 376.7 116.4 376.7 116.4 378.9 111.75 378.9" fill="#707070" fill-rule="evenodd" stroke="none"/>
    <path d="M-200.6 -786.25 L-200.6 -787.75 -200.5 -787.75 -200.5 -788.25 -200.15 -788.25 -200.0 -788.9 -196.4 -788.3 -180.9 -788.85 -181.4 -808.0 -181.05 -810.55 -179.55 -810.4 -179.6 -810.0 -179.55 -810.0 -179.2 -787.05 -179.35 -787.05 -179.35 -786.55 -200.6 -786.25" fill="#707070" fill-rule="evenodd" stroke="none"/>
    <path d="M238.05 -1117.6 L239.9 -1117.6 239.9 -1087.3 238.05 -1087.3 238.05 -1117.6" fill="#707070" fill-rule="evenodd" stroke="none"/>
    <path d="M-207.35 -829.05 L-200.25 -829.4 -189.25 -832.4 -186.1 -832.9 -185.85 -831.4 -186.05 -831.35 -186.0 -830.9 -189.1 -830.4 -200.25 -827.4 -207.4 -827.05 -207.4 -827.25 -207.75 -827.25 -207.85 -828.7 -207.35 -828.75 -207.35 -829.05" fill="#707070" fill-rule="evenodd" stroke="none"/>
    <path d="M-18.0 380.1 L-18.0 376.7 -3.5 376.7 -3.5 378.8 -8.05 378.8 -8.05 380.1 -18.0 380.1" fill="#707070" fill-rule="evenodd" stroke="none"/>
    <path d="M-131.05 378.0 L-131.05 376.6 -128.8 376.6 -128.8 378.0 -131.05 378.0" fill="#707070" fill-rule="evenodd" stroke="none"/>
    <path d="M-137.4 379.65 L-137.4 376.6 -134.3 376.6 -134.3 379.65 -137.4 379.65" fill="#707070" fill-rule="evenodd" stroke="none"/>
    <path d="M-142.55 381.15 L-142.55 376.6 -138.6 376.6 -138.6 381.15 -142.55 381.15" fill="#707070" fill-rule="evenodd" stroke="none"/>
    <path d="M-509.65 379.65 L-509.65 376.7 -506.55 376.7 -506.55 379.65 -509.65 379.65" fill="#707070" fill-rule="evenodd" stroke="none"/>
    <path d="M-514.8 381.15 L-514.8 376.7 -510.85 376.7 -510.85 381.15 -514.8 381.15" fill="#707070" fill-rule="evenodd" stroke="none"/>
    <path d="M-255.5 526.7 L-255.5 516.6 -252.75 516.6 -252.75 526.7 -255.5 526.7" fill="#707070" fill-rule="evenodd" stroke="none"/>
    <path d="M-268.5 528.2 L-268.5 523.45 -266.0 523.45 -266.0 528.2 -268.5 528.2" fill="#707070" fill-rule="evenodd" stroke="none"/>
    <path d="M243.8 524.6 L243.8 519.5 246.25 519.5 246.25 524.6 243.8 524.6" fill="#707070" fill-rule="evenodd" stroke="none"/>
    <path d="M625.75 79.85 L625.75 76.75 645.65 76.75 645.65 79.85 625.75 79.85" fill="#707070" fill-rule="evenodd" stroke="none"/>
    <path d="M672.65 80.5 L676.0 80.5 676.0 92.0 672.65 92.0 672.65 80.5" fill="#707070" fill-rule="evenodd" stroke="none"/>
    <path d="M675.75 94.75 L675.75 99.5 672.8 99.5 672.8 94.75 675.75 94.75" fill="#707070" fill-rule="evenodd" stroke="none"/>
    <path d="M672.8 108.35 L672.8 103.6 675.75 103.6 675.75 108.35 672.8 108.35" fill="#707070" fill-rule="evenodd" stroke="none"/>
    <path d="M675.75 124.7 L675.75 129.45 672.8 129.45 672.8 124.7 675.75 124.7" fill="#707070" fill-rule="evenodd" stroke="none"/>
    <path d="M675.0 112.1 L675.0 115.0 670.25 115.0 670.25 112.1 675.0 112.1" fill="#707070" fill-rule="evenodd" stroke="none"/>
    <path d="M675.0 147.75 L675.0 150.65 670.25 150.65 670.25 147.75 675.0 147.75" fill="#707070" fill-rule="evenodd" stroke="none"/>
    <path d="M666.85 147.4 L666.85 150.3 654.75 150.3 654.75 147.4 666.85 147.4" fill="#707070" fill-rule="evenodd" stroke="none"/>
    <path d="M673.6 182.8 L676.5 182.8 676.5 212.8 673.6 212.8 673.6 182.8" fill="#707070" fill-rule="evenodd" stroke="none"/>
    <path d="M676.5 166.15 L676.5 181.65 674.6 181.65 674.6 176.65 670.95 176.65 670.95 166.15 676.5 166.15" fill="#707070" fill-rule="evenodd" stroke="none"/>
    <path d="M641.0 216.4 L641.0 214.5 645.4 214.5 645.4 216.4 641.0 216.4" fill="#707070" fill-rule="evenodd" stroke="none"/>
    <path d="M650.0 216.45 L650.0 215.3 659.35 215.3 659.35 216.45 650.0 216.45" fill="#707070" fill-rule="evenodd" stroke="none"/>
    <path d="M662.75 216.45 L662.75 215.3 672.1 215.3 672.1 216.45 662.75 216.45" fill="#707070" fill-rule="evenodd" stroke="none"/>
    <path d="M654.75 114.8 L654.75 111.9 666.85 111.9 666.85 114.8 654.75 114.8" fill="#707070" fill-rule="evenodd" stroke="none"/>
    <path d="M672.8 135.0 L675.75 135.0 675.75 139.75 672.8 139.75 672.8 135.0" fill="#707070" fill-rule="evenodd" stroke="none"/>
    <path d="M-62.3 -904.35 L-62.9 -904.35 -62.9 -913.6 -62.3 -913.6 -62.3 -904.35" fill="#707070" fill-rule="evenodd" stroke="none"/>
    <path d="M-78.1 -904.35 L-78.8 -904.35 -78.8 -913.6 -78.1 -913.6 -78.1 -904.35" fill="#707070" fill-rule="evenodd" stroke="none"/>
    <path d="M180.45 -1112.55 L180.45 -1102.0 175.15 -1102.0 175.15 -1112.55 180.45 -1112.55" fill="#707070" fill-rule="evenodd" stroke="none"/>
    <path d="M176.95 -1117.65 L176.95 -1113.0 175.15 -1113.0 175.15 -1117.65 176.95 -1117.65" fill="#707070" fill-rule="evenodd" stroke="none"/>
    <path d="M445.8 -956.0 L445.8 -960.0 453.45 -960.0 453.45 -956.0 445.8 -956.0" fill="#434343" fill-rule="evenodd" stroke="none"/>
    <path d="M491.7 -1074.5 L491.7 -1070.5 484.05 -1070.5 484.05 -1074.5 491.7 -1074.5" fill="#434343" fill-rule="evenodd" stroke="none"/>
    <path d="M445.8 -1070.5 L445.8 -1074.5 453.45 -1074.5 453.45 -1070.5 445.8 -1070.5" fill="#434343" fill-rule="evenodd" stroke="none"/>
    <path d="M438.35 -1078.65 L438.35 -1087.8 442.35 -1087.8 442.35 -1078.65 438.35 -1078.65" fill="#434343" fill-rule="evenodd" stroke="none"/>
    <path d="M438.35 -1118.15 L438.35 -1127.5 442.35 -1127.5 442.35 -1118.15 438.35 -1118.15" fill="#434343" fill-rule="evenodd" stroke="none"/>
    <path d="M388.6 -1078.65 L388.6 -1087.8 392.6 -1087.8 392.6 -1078.65 388.6 -1078.65" fill="#434343" fill-rule="evenodd" stroke="none"/>
    <path d="M388.6 -1118.15 L388.6 -1127.5 392.6 -1127.5 392.6 -1118.15 388.6 -1118.15" fill="#434343" fill-rule="evenodd" stroke="none"/>
    <path d="M338.35 -1078.65 L338.35 -1087.8 342.35 -1087.8 342.35 -1078.65 338.35 -1078.65" fill="#434343" fill-rule="evenodd" stroke="none"/>
    <path d="M338.35 -1118.15 L338.35 -1127.5 342.35 -1127.5 342.35 -1118.15 338.35 -1118.15" fill="#434343" fill-rule="evenodd" stroke="none"/>
    <path d="M297.35 -1078.65 L297.35 -1087.8 301.35 -1087.8 301.35 -1078.65 297.35 -1078.65" fill="#434343" fill-rule="evenodd" stroke="none"/>
    <path d="M301.35 -1127.5 L301.35 -1118.15 296.95 -1118.15 296.95 -1127.5 301.35 -1127.5" fill="#434343" fill-rule="evenodd" stroke="none"/>
    <path d="M241.35 -1126.9 L241.35 -1117.6 236.95 -1117.6 236.95 -1126.9 241.35 -1126.9" fill="#434343" fill-rule="evenodd" stroke="none"/>
    <path d="M241.25 -1087.3 L241.25 -1080.3 236.85 -1080.3 236.85 -1087.3 241.25 -1087.3" fill="#434343" fill-rule="evenodd" stroke="none"/>
    <path d="M218.5 -1024.75 L235.5 -1024.75 235.5 -999.75 218.5 -999.75 218.5 -1024.75" fill="#434343" fill-rule="evenodd" stroke="none"/>
    <path d="M41.5 -1050.1 L41.5 -1042.75 37.0 -1042.75 37.0 -1050.1 41.5 -1050.1" fill="#434343" fill-rule="evenodd" stroke="none"/>
    <path d="M-112.95 -1042.75 L-112.95 -1050.1 -108.45 -1050.1 -108.45 -1042.75 -112.95 -1042.75" fill="#434343" fill-rule="evenodd" stroke="none"/>
    <path d="M-158.4 -1050.1 L-158.4 -1042.75 -162.9 -1042.75 -162.9 -1050.1 -158.4 -1050.1" fill="#434343" fill-rule="evenodd" stroke="none"/>
    <path d="M91.45 -1050.1 L91.45 -1042.75 86.95 -1042.75 86.95 -1050.1 91.45 -1050.1" fill="#434343" fill-rule="evenodd" stroke="none"/>
    <path d="M141.45 -1050.1 L141.45 -1042.75 136.95 -1042.75 136.95 -1050.1 141.45 -1050.1" fill="#434343" fill-rule="evenodd" stroke="none"/>
    <path d="M191.4 -1050.1 L191.4 -1042.75 186.9 -1042.75 186.9 -1050.1 191.4 -1050.1" fill="#434343" fill-rule="evenodd" stroke="none"/>
    <path d="M236.9 -1042.75 L236.9 -1050.1 241.4 -1050.1 241.4 -1042.75 236.9 -1042.75" fill="#434343" fill-rule="evenodd" stroke="none"/>
    <path d="M41.5 -992.6 L41.5 -985.25 37.0 -985.25 37.0 -992.6 41.5 -992.6" fill="#434343" fill-rule="evenodd" stroke="none"/>
    <path d="M-13.0 -1048.55 L-13.0 -1050.1 -8.5 -1050.1 -8.5 -1042.75 -10.3 -1042.75 -10.3 -992.6 -8.5 -992.6 -8.5 -985.25 -13.0 -985.25 -13.0 -986.9 -58.45 -986.9 -58.45 -985.25 -62.95 -985.25 -62.95 -992.5 -90.75 -992.5 -90.75 -1032.65 -60.65 -1032.65 -60.65 -1042.75 -62.95 -1042.75 -62.95 -1050.1 -58.45 -1050.1 -58.45 -1048.55 -13.0 -1048.55" fill="#434343" fill-rule="evenodd" stroke="none"/>
    <path d="M-112.95 -985.25 L-112.95 -992.6 -108.45 -992.6 -108.45 -985.25 -112.95 -985.25" fill="#434343" fill-rule="evenodd" stroke="none"/>
    <path d="M-158.4 -992.6 L-158.4 -985.25 -162.9 -985.25 -162.9 -992.6 -158.4 -992.6" fill="#434343" fill-rule="evenodd" stroke="none"/>
    <path d="M-208.35 -992.6 L-208.35 -985.25 -212.5 -985.25 -212.5 -992.6 -208.35 -992.6" fill="#434343" fill-rule="evenodd" stroke="none"/>
    <path d="M91.45 -992.6 L91.45 -985.25 86.95 -985.25 86.95 -992.6 91.45 -992.6" fill="#434343" fill-rule="evenodd" stroke="none"/>
    <path d="M141.45 -992.6 L141.45 -985.25 136.95 -985.25 136.95 -992.6 141.45 -992.6" fill="#434343" fill-rule="evenodd" stroke="none"/>
    <path d="M191.4 -992.6 L191.4 -985.25 186.9 -985.25 186.9 -992.6 191.4 -992.6" fill="#434343" fill-rule="evenodd" stroke="none"/>
    <path d="M205.45 -990.25 L205.45 -1038.75 240.35 -1038.75 240.35 -1037.25 206.95 -1037.25 206.95 -991.75 236.9 -991.75 236.9 -992.6 241.4 -992.6 241.4 -985.25 236.9 -985.25 236.9 -990.25 205.45 -990.25" fill="#434343" fill-rule="evenodd" stroke="none"/>
    <path d="M-108.45 -917.15 L-108.45 -915.1 -78.1 -915.1 -78.1 -913.6 -108.45 -913.6 -108.45 -910.3 -112.95 -910.3 -112.95 -913.6 -158.4 -913.6 -158.4 -910.3 -162.9 -910.3 -162.9 -917.15 -158.4 -917.15 -158.4 -915.1 -112.95 -915.1 -112.95 -917.15 -108.45 -917.15" fill="#434343" fill-rule="evenodd" stroke="none"/>
    <path d="M-208.35 -917.15 L-208.35 -910.3 -212.5 -910.3 -212.5 -917.15 -208.35 -917.15" fill="#434343" fill-rule="evenodd" stroke="none"/>
    <path d="M191.4 -917.15 L191.4 -910.3 186.9 -910.3 186.9 -917.15 191.4 -917.15" fill="#434343" fill-rule="evenodd" stroke="none"/>
    <path d="M140.75 -1086.2 L140.75 -1082.7 137.25 -1082.7 137.25 -1086.2 140.75 -1086.2" fill="#434343" fill-rule="evenodd" stroke="none"/>
    <path d="M86.95 -915.1 L86.95 -917.15 91.45 -917.15 91.45 -915.1 136.95 -915.1 136.95 -917.15 141.45 -917.15 141.45 -910.3 136.95 -910.3 136.95 -913.6 91.45 -913.6 91.45 -910.3 86.95 -910.3 86.95 -913.6 41.5 -913.6 41.5 -910.3 37.0 -910.3 37.0 -913.6 -8.5 -913.6 -8.5 -910.3 -13.0 -910.3 -13.0 -913.6 -58.45 -913.6 -58.45 -910.3 -62.3 -910.3 -62.3 -917.15 -58.45 -917.15 -58.45 -915.1 -13.0 -915.1 -13.0 -917.15 -8.5 -917.15 -8.5 -915.1 37.0 -915.1 37.0 -917.15 41.5 -917.15 41.5 -915.1 86.95 -915.1" fill="#434343" fill-rule="evenodd" stroke="none"/>
    <path d="M236.7 -701.65 L236.7 -704.2 239.35 -704.2 239.35 -697.25 236.7 -697.25 236.7 -699.75 191.5 -699.75 191.5 -697.25 186.95 -697.25 186.95 -699.75 141.5 -699.75 141.5 -697.25 136.95 -697.25 136.95 -699.75 91.75 -699.75 91.75 -697.25 87.2 -697.25 87.2 -699.75 41.35 -699.75 41.35 -697.25 36.85 -697.25 36.85 -699.75 -8.5 -699.75 -8.5 -697.0 -10.15 -697.0 -10.15 -676.75 -5.75 -676.75 -5.75 -660.75 -16.0 -660.75 -16.0 -676.75 -12.05 -676.75 -12.05 -697.0 -13.0 -697.0 -13.0 -704.0 -12.05 -704.0 -12.05 -740.4 -13.0 -740.4 -13.0 -747.4 -8.5 -747.4 -8.5 -740.4 -10.15 -740.4 -10.15 -704.0 -8.5 -704.0 -8.5 -701.65 36.85 -701.65 36.85 -704.2 41.35 -704.2 41.35 -701.65 87.2 -701.65 87.2 -704.2 91.75 -704.2 91.75 -701.65 136.95 -701.65 136.95 -704.2 141.5 -704.2 141.5 -701.65 186.95 -701.65 186.95 -704.2 191.5 -704.2 191.5 -701.65 236.7 -701.65" fill="#434343" fill-rule="evenodd" stroke="none"/>
    <path d="M-61.9 -740.4 L-63.0 -740.4 -63.0 -747.4 -58.5 -747.4 -58.5 -740.4 -60.0 -740.4 -60.0 -704.2 -58.5 -704.2 -58.5 -697.25 -60.0 -697.25 -60.0 -676.75 -54.25 -676.75 -54.25 -660.75 -64.5 -660.75 -64.5 -676.75 -61.9 -676.75 -61.9 -697.25 -63.0 -697.25 -63.0 -699.75 -108.65 -699.75 -108.65 -697.25 -113.15 -697.25 -113.15 -699.75 -158.5 -699.75 -158.5 -697.25 -163.0 -697.25 -163.0 -699.75 -208.5 -699.75 -208.5 -697.25 -212.5 -697.25 -212.5 -704.2 -208.5 -704.2 -208.5 -701.65 -163.0 -701.65 -163.0 -704.2 -158.5 -704.2 -158.5 -701.65 -113.15 -701.65 -113.15 -704.2 -108.65 -704.2 -108.65 -701.65 -63.0 -701.65 -63.0 -704.2 -61.9 -704.2 -61.9 -740.4" fill="#434343" fill-rule="evenodd" stroke="none"/>
    <path d="M41.5 -880.05 L41.5 -873.15 37.0 -873.15 37.0 -880.05 41.5 -880.05" fill="#434343" fill-rule="evenodd" stroke="none"/>
    <path d="M-8.5 -880.05 L-8.5 -873.15 -13.0 -873.15 -13.0 -880.05 -8.5 -880.05" fill="#434343" fill-rule="evenodd" stroke="none"/>
    <path d="M-58.45 -880.05 L-58.45 -873.15 -62.95 -873.15 -62.95 -880.05 -58.45 -880.05" fill="#434343" fill-rule="evenodd" stroke="none"/>
    <path d="M-108.45 -880.05 L-108.45 -873.15 -112.95 -873.15 -112.95 -880.05 -108.45 -880.05" fill="#434343" fill-rule="evenodd" stroke="none"/>
    <path d="M-158.4 -880.05 L-158.4 -873.15 -162.9 -873.15 -162.9 -880.05 -158.4 -880.05" fill="#434343" fill-rule="evenodd" stroke="none"/>
    <path d="M-208.35 -880.05 L-208.35 -873.15 -212.5 -873.15 -212.5 -880.05 -208.35 -880.05" fill="#434343" fill-rule="evenodd" stroke="none"/>
    <path d="M91.45 -880.05 L91.45 -873.15 86.95 -873.15 86.95 -880.05 91.45 -880.05" fill="#434343" fill-rule="evenodd" stroke="none"/>
    <path d="M141.45 -880.05 L141.45 -873.15 136.95 -873.15 136.95 -880.05 141.45 -880.05" fill="#434343" fill-rule="evenodd" stroke="none"/>
    <path d="M191.4 -880.05 L191.4 -873.15 186.9 -873.15 186.9 -880.05 191.4 -880.05" fill="#434343" fill-rule="evenodd" stroke="none"/>
    <path d="M236.9 -873.15 L236.9 -880.05 241.4 -880.05 241.4 -873.15 236.9 -873.15" fill="#434343" fill-rule="evenodd" stroke="none"/>
    <path d="M91.85 -841.1 L91.85 -834.2 87.3 -834.2 87.3 -841.1 91.85 -841.1" fill="#434343" fill-rule="evenodd" stroke="none"/>
    <path d="M41.85 -841.1 L41.85 -834.2 37.35 -834.2 37.35 -841.1 41.85 -841.1" fill="#434343" fill-rule="evenodd" stroke="none"/>
    <path d="M-8.1 -841.1 L-8.1 -834.2 -12.65 -834.2 -12.65 -841.1 -8.1 -841.1" fill="#434343" fill-rule="evenodd" stroke="none"/>
    <path d="M-58.1 -841.1 L-58.1 -834.2 -62.6 -834.2 -62.6 -841.1 -58.1 -841.1" fill="#434343" fill-rule="evenodd" stroke="none"/>
    <path d="M-112.6 -834.2 L-112.6 -841.1 -108.1 -841.1 -108.1 -834.2 -112.6 -834.2" fill="#434343" fill-rule="evenodd" stroke="none"/>
    <path d="M-159.0 -841.1 L-159.0 -834.2 -163.15 -834.2 -163.15 -841.1 -159.0 -841.1" fill="#434343" fill-rule="evenodd" stroke="none"/>
    <path d="M141.8 -841.1 L141.8 -834.2 137.3 -834.2 137.3 -841.1 141.8 -841.1" fill="#434343" fill-rule="evenodd" stroke="none"/>
    <path d="M191.8 -841.1 L191.8 -834.2 187.25 -834.2 187.25 -841.1 191.8 -841.1" fill="#434343" fill-rule="evenodd" stroke="none"/>
    <path d="M237.25 -834.2 L237.25 -841.1 241.75 -841.1 241.75 -834.2 237.25 -834.2" fill="#434343" fill-rule="evenodd" stroke="none"/>
    <path d="M91.85 -783.4 L91.85 -776.55 87.3 -776.55 87.3 -783.4 91.85 -783.4" fill="#434343" fill-rule="evenodd" stroke="none"/>
    <path d="M41.85 -783.4 L41.85 -776.55 37.35 -776.55 37.35 -783.4 41.85 -783.4" fill="#434343" fill-rule="evenodd" stroke="none"/>
    <path d="M-8.1 -783.4 L-8.1 -776.55 -12.65 -776.55 -12.65 -783.4 -8.1 -783.4" fill="#434343" fill-rule="evenodd" stroke="none"/>
    <path d="M-58.1 -783.4 L-58.1 -776.55 -62.6 -776.55 -62.6 -783.4 -58.1 -783.4" fill="#434343" fill-rule="evenodd" stroke="none"/>
    <path d="M-112.6 -776.55 L-112.6 -783.4 -108.1 -783.4 -108.1 -776.55 -112.6 -776.55" fill="#434343" fill-rule="evenodd" stroke="none"/>
    <path d="M-159.0 -783.4 L-159.0 -776.55 -163.15 -776.55 -163.15 -783.4 -159.0 -783.4" fill="#434343" fill-rule="evenodd" stroke="none"/>
    <path d="M-208.65 -841.1 L-208.65 -834.2 -212.5 -834.2 -212.5 -841.1 -208.65 -841.1" fill="#434343" fill-rule="evenodd" stroke="none"/>
    <path d="M-212.5 -776.55 L-212.5 -783.4 -208.65 -783.4 -208.65 -776.55 -212.5 -776.55" fill="#434343" fill-rule="evenodd" stroke="none"/>
    <path d="M141.8 -783.4 L141.8 -776.55 137.3 -776.55 137.3 -783.4 141.8 -783.4" fill="#434343" fill-rule="evenodd" stroke="none"/>
    <path d="M187.25 -776.55 L187.25 -783.4 191.8 -783.4 191.8 -776.55 187.25 -776.55" fill="#434343" fill-rule="evenodd" stroke="none"/>
    <path d="M241.75 -783.4 L241.75 -776.55 237.25 -776.55 237.25 -783.4 241.75 -783.4" fill="#434343" fill-rule="evenodd" stroke="none"/>
    <path d="M-630.6 -533.45 L-630.6 -523.45 -640.6 -523.45 -640.6 -533.45 -630.6 -533.45" fill="#434343" fill-rule="evenodd" stroke="none"/>
    <path d="M619.0 -533.5 L619.0 -523.5 609.0 -523.5 609.0 -533.5 619.0 -533.5" fill="#434343" fill-rule="evenodd" stroke="none"/>
    <path d="M-636.0 -433.9 L-636.0 -423.9 -640.95 -423.9 -640.95 -433.9 -636.0 -433.9" fill="#434343" fill-rule="evenodd" stroke="none"/>
    <path d="M-636.0 -483.55 L-636.0 -473.55 -640.95 -473.55 -640.95 -483.55 -636.0 -483.55" fill="#434343" fill-rule="evenodd" stroke="none"/>
    <path d="M619.6 -383.65 L619.6 -372.95 609.0 -372.95 609.0 -383.65 619.6 -383.65" fill="#434343" fill-rule="evenodd" stroke="none"/>
    <path d="M-640.6 -83.0 L-640.6 -83.5 -630.6 -83.5 -630.6 -73.5 -630.7 -73.5 -630.7 -73.0 -640.7 -73.0 -640.7 -83.0 -640.6 -83.0" fill="#434343" fill-rule="evenodd" stroke="none"/>
    <path d="M619.0 -83.55 L619.0 -73.6 609.0 -73.6 609.0 -83.55 619.0 -83.55" fill="#434343" fill-rule="evenodd" stroke="none"/>
    <path d="M-630.6 366.0 L-630.6 370.25 -626.45 370.25 -626.45 373.0 -630.6 373.0 -630.6 376.0 -640.6 376.0 -640.6 366.0 -630.6 366.0" fill="#434343" fill-rule="evenodd" stroke="none"/>
    <path d="M609.0 370.25 L609.0 365.95 619.0 365.95 619.0 375.95 609.0 375.95 609.0 373.0 604.4 373.0 604.4 370.25 609.0 370.25" fill="#434343" fill-rule="evenodd" stroke="none"/>
    <path d="M-640.45 -374.2 L-640.6 -374.2 -640.6 -384.2 -630.6 -384.2 -630.6 -374.2 -638.25 -374.2 -638.25 -330.8 -636.0 -330.8 -636.0 -326.05 -638.25 -326.05 -638.25 -280.95 -636.0 -280.95 -636.0 -276.2 -638.25 -276.2 -638.25 -233.4 -630.6 -233.4 -630.6 -229.75 -626.25 -229.75 -626.25 -227.0 -630.6 -227.0 -630.6 -223.4 -640.6 -223.4 -640.6 -233.4 -640.45 -233.4 -640.45 -276.2 -642.95 -276.2 -642.95 -280.95 -640.45 -280.95 -640.45 -326.05 -642.95 -326.05 -642.95 -330.8 -640.45 -330.8 -640.45 -374.2" fill="#434343" fill-rule="evenodd" stroke="none"/>
    <path d="M619.0 -233.5 L619.0 -223.5 609.0 -223.5 609.0 -233.5 619.0 -233.5" fill="#434343" fill-rule="evenodd" stroke="none"/>
    <path d="M-640.6 526.5 L-640.6 516.5 -630.6 516.5 -630.6 526.5 -640.6 526.5" fill="#434343" fill-rule="evenodd" stroke="none"/>
    <path d="M609.0 526.45 L609.0 516.45 619.0 516.45 619.0 526.45 609.0 526.45" fill="#434343" fill-rule="evenodd" stroke="none"/>
    <path d="M-630.6 666.5 L-630.6 676.5 -640.6 676.5 -640.6 666.5 -630.6 666.5" fill="#434343" fill-rule="evenodd" stroke="none"/>
    <path d="M609.0 676.45 L609.0 666.45 619.0 666.45 619.0 676.45 609.0 676.45" fill="#434343" fill-rule="evenodd" stroke="none"/>
    <path d="M109.2 826.4 L109.2 816.4 119.2 816.4 119.2 826.4 109.2 826.4" fill="#434343" fill-rule="evenodd" stroke="none"/>
    <path d="M359.15 826.4 L359.15 816.4 369.15 816.4 369.15 826.4 359.15 826.4" fill="#434343" fill-rule="evenodd" stroke="none"/>
    <path d="M484.1 826.4 L484.1 816.4 494.1 816.4 494.1 826.4 484.1 826.4" fill="#434343" fill-rule="evenodd" stroke="none"/>
    <path d="M-390.65 826.5 L-390.65 816.5 -380.65 816.5 -380.65 826.5 -390.65 826.5" fill="#434343" fill-rule="evenodd" stroke="none"/>
    <path d="M-640.6 826.45 L-640.6 816.45 -630.6 816.45 -630.6 826.45 -640.6 826.45" fill="#434343" fill-rule="evenodd" stroke="none"/>
    <path d="M-515.65 826.45 L-515.65 816.45 -505.65 816.45 -505.65 826.45 -515.65 826.45" fill="#434343" fill-rule="evenodd" stroke="none"/>
    <path d="M-140.75 826.5 L-140.75 816.5 -130.75 816.5 -130.75 826.5 -140.75 826.5" fill="#434343" fill-rule="evenodd" stroke="none"/>
    <path d="M-15.75 826.5 L-15.75 816.5 -5.75 816.5 -5.75 826.5 -15.75 826.5" fill="#434343" fill-rule="evenodd" stroke="none"/>
    <path d="M609.0 826.4 L609.0 816.4 619.0 816.4 619.0 826.4 609.0 826.4" fill="#434343" fill-rule="evenodd" stroke="none"/>
    <path d="M119.2 -676.0 L119.2 -666.0 109.2 -666.0 109.2 -676.0 119.2 -676.0" fill="#434343" fill-rule="evenodd" stroke="none"/>
    <path d="M234.15 -666.0 L234.15 -676.0 244.15 -676.0 244.15 -666.0 234.15 -666.0" fill="#434343" fill-rule="evenodd" stroke="none"/>
    <path d="M369.15 -676.0 L369.15 -666.0 359.15 -666.0 359.15 -676.0 369.15 -676.0" fill="#434343" fill-rule="evenodd" stroke="none"/>
    <path d="M484.1 -666.0 L484.1 -676.0 494.1 -676.0 494.1 -666.0 484.1 -666.0" fill="#434343" fill-rule="evenodd" stroke="none"/>
    <path d="M-380.65 -675.85 L-380.65 -665.85 -390.65 -665.85 -390.65 -675.85 -380.65 -675.85" fill="#434343" fill-rule="evenodd" stroke="none"/>
    <path d="M-255.7 -675.85 L-255.7 -665.85 -265.7 -665.85 -265.7 -675.85 -255.7 -675.85" fill="#434343" fill-rule="evenodd" stroke="none"/>
    <path d="M-640.6 -665.95 L-640.6 -675.95 -630.6 -675.95 -630.6 -665.95 -640.6 -665.95" fill="#434343" fill-rule="evenodd" stroke="none"/>
    <path d="M-505.65 -675.95 L-505.65 -665.95 -515.65 -665.95 -515.65 -675.95 -505.65 -675.95" fill="#434343" fill-rule="evenodd" stroke="none"/>
    <path d="M-130.75 -675.85 L-130.75 -665.85 -140.75 -665.85 -140.75 -675.85 -130.75 -675.85" fill="#434343" fill-rule="evenodd" stroke="none"/>
    <path d="M619.0 -676.0 L619.0 -666.0 609.0 -666.0 609.0 -676.0 619.0 -676.0" fill="#434343" fill-rule="evenodd" stroke="none"/>
    <path d="M618.0 26.25 L614.5 26.25 614.5 16.5 618.0 16.5 618.0 26.25" fill="#434343" fill-rule="evenodd" stroke="none"/>
    <path d="M104.85 -229.75 L104.85 -233.35 123.85 -233.35 123.85 -229.75 129.35 -229.75 129.35 -227.0 123.85 -227.0 123.85 -223.35 104.85 -223.35 104.85 -227.0 100.0 -227.0 100.0 -229.75 104.85 -229.75" fill="#434343" fill-rule="evenodd" stroke="none"/>
    <path d="M-275.0 -227.0 L-275.0 -229.75 -270.1 -229.75 -270.1 -233.35 -262.2 -233.35 -262.2 -238.55 -259.45 -238.55 -259.45 -233.35 -251.1 -233.35 -251.1 -229.75 -245.6 -229.75 -245.6 -227.0 -251.1 -227.0 -251.1 -223.35 -259.45 -223.35 -259.45 -218.65 -262.2 -218.65 -262.2 -223.35 -270.1 -223.35 -270.1 -227.0 -275.0 -227.0" fill="#434343" fill-rule="evenodd" stroke="none"/>
    <path d="M-145.15 -229.75 L-145.15 -233.35 -126.15 -233.35 -126.15 -229.75 -120.65 -229.75 -120.65 -227.0 -126.15 -227.0 -126.15 -223.35 -145.15 -223.35 -145.15 -227.0 -150.05 -227.0 -150.05 -229.75 -145.15 -229.75" fill="#434343" fill-rule="evenodd" stroke="none"/>
    <path d="M-20.15 -229.75 L-20.15 -233.35 -1.15 -233.35 -1.15 -229.75 4.35 -229.75 4.35 -227.0 -1.15 -227.0 -1.15 -223.35 -20.15 -223.35 -20.15 -227.0 -25.05 -227.0 -25.05 -229.75 -20.15 -229.75" fill="#434343" fill-rule="evenodd" stroke="none"/>
    <path d="M-376.2 -233.35 L-376.2 -229.75 -370.7 -229.75 -370.7 -227.0 -376.2 -227.0 -376.2 -223.35 -395.2 -223.35 -395.2 -227.0 -400.1 -227.0 -400.1 -229.75 -395.2 -229.75 -395.2 -233.35 -376.2 -233.35" fill="#434343" fill-rule="evenodd" stroke="none"/>
    <path d="M-501.25 -233.35 L-501.25 -229.75 -495.75 -229.75 -495.75 -227.0 -501.25 -227.0 -501.25 -223.35 -520.25 -223.35 -520.25 -227.0 -525.1 -227.0 -525.1 -229.75 -520.25 -229.75 -520.25 -233.35 -501.25 -233.35" fill="#434343" fill-rule="evenodd" stroke="none"/>
    <path d="M491.7 -960.25 L491.7 -956.25 484.05 -956.25 484.05 -960.25 491.7 -960.25" fill="#434343" fill-rule="evenodd" stroke="none"/>
    <path d="M484.05 -902.75 L491.7 -902.75 491.7 -898.75 484.05 -898.75 484.05 -902.75" fill="#434343" fill-rule="evenodd" stroke="none"/>
    <path d="M445.8 -902.75 L453.45 -902.75 453.45 -898.75 445.8 -898.75 445.8 -902.75" fill="#434343" fill-rule="evenodd" stroke="none"/>
    <path d="M491.7 -1017.15 L491.7 -1013.15 484.05 -1013.15 484.05 -1017.15 491.7 -1017.15" fill="#434343" fill-rule="evenodd" stroke="none"/>
    <path d="M445.8 -1013.65 L445.8 -1017.65 453.45 -1017.65 453.45 -1013.65 445.8 -1013.65" fill="#434343" fill-rule="evenodd" stroke="none"/>
    <path d="M-208.5 -1042.75 L-208.5 -1042.25 -213.0 -1042.25 -213.0 -1049.6 -212.9 -1049.6 -212.9 -1050.1 -208.4 -1050.1 -208.4 -1042.75 -208.5 -1042.75" fill="#434343" fill-rule="evenodd" stroke="none"/>
    <path d="M-630.6 66.2 L-630.6 76.2 -630.7 76.2 -630.7 76.7 -640.7 76.7 -640.7 66.7 -640.6 66.7 -640.6 66.2 -630.6 66.2" fill="#434343" fill-rule="evenodd" stroke="none"/>
    <path d="M617.0 76.45 L609.0 76.45 609.0 66.15 619.0 66.15 619.0 67.3 619.2 67.3 619.2 119.8 621.25 119.8 621.25 124.15 619.2 124.15 619.2 169.45 621.25 169.45 621.25 173.8 619.2 173.8 619.2 220.5 619.0 220.5 619.0 226.15 609.0 226.15 609.0 215.1 617.0 215.1 617.0 173.8 614.55 173.8 614.55 169.45 617.0 169.45 617.0 124.15 614.55 124.15 614.55 119.8 617.0 119.8 617.0 76.45" fill="#434343" fill-rule="evenodd" stroke="none"/>
    <path d="M-640.7 226.7 L-640.7 216.7 -640.6 216.7 -640.6 216.2 -630.6 216.2 -630.6 226.2 -630.7 226.2 -630.7 226.7 -640.7 226.7" fill="#434343" fill-rule="evenodd" stroke="none"/>
    <path d="M354.75 -229.25 L354.75 -232.85 373.75 -232.85 373.75 -229.25 379.25 -229.25 379.25 -226.5 373.75 -226.5 373.75 -222.85 354.75 -222.85 354.75 -226.5 349.9 -226.5 349.9 -229.25 354.75 -229.25" fill="#434343" fill-rule="evenodd" stroke="none"/>
    <path d="M498.8 -232.85 L498.8 -229.25 504.25 -229.25 504.25 -226.5 498.8 -226.5 498.8 -222.85 486.75 -222.85 487.35 -222.2 487.35 -221.3 486.8 -220.65 485.9 -220.5 485.15 -220.9 484.85 -221.75 485.15 -222.55 485.65 -222.85 479.8 -222.85 479.8 -226.5 474.9 -226.5 474.9 -229.25 479.8 -229.25 479.8 -232.85 498.8 -232.85" fill="#434343" fill-rule="evenodd" stroke="none"/>
    <path d="M237.7 -238.05 L240.45 -238.05 240.45 -232.85 248.75 -232.85 248.75 -229.25 254.25 -229.25 254.25 -226.5 248.75 -226.5 248.75 -222.85 240.45 -222.85 240.45 -218.15 237.7 -218.15 237.7 -222.85 229.75 -222.85 229.75 -226.5 224.9 -226.5 224.9 -229.25 229.75 -229.25 229.75 -232.85 237.7 -232.85 237.7 -238.05" fill="#434343" fill-rule="evenodd" stroke="none"/>
    <path d="M104.85 370.3 L104.85 366.7 123.85 366.7 123.85 370.3 129.35 370.3 129.35 373.05 123.85 373.05 123.85 376.7 104.85 376.7 104.85 373.05 100.0 373.05 100.0 370.3 104.85 370.3" fill="#434343" fill-rule="evenodd" stroke="none"/>
    <path d="M-275.0 373.05 L-275.0 370.3 -270.1 370.3 -270.1 366.7 -262.2 366.7 -262.2 361.5 -259.45 361.5 -259.45 366.7 -251.1 366.7 -251.1 370.3 -245.6 370.3 -245.6 373.05 -251.1 373.05 -251.1 376.7 -259.45 376.7 -259.45 381.35 -262.2 381.35 -262.2 376.7 -270.1 376.7 -270.1 373.05 -275.0 373.05" fill="#434343" fill-rule="evenodd" stroke="none"/>
    <path d="M-145.15 370.3 L-145.15 366.7 -126.15 366.7 -126.15 370.3 -120.65 370.3 -120.65 373.05 -126.15 373.05 -126.15 376.6 -145.15 376.6 -145.15 373.05 -150.05 373.05 -150.05 370.3 -145.15 370.3" fill="#434343" fill-rule="evenodd" stroke="none"/>
    <path d="M-20.15 370.3 L-20.15 366.7 -1.15 366.7 -1.15 370.3 4.35 370.3 4.35 373.05 -1.15 373.05 -1.15 376.7 -20.15 376.7 -20.15 373.05 -25.05 373.05 -25.05 370.3 -20.15 370.3" fill="#434343" fill-rule="evenodd" stroke="none"/>
    <path d="M-376.2 366.7 L-376.2 370.3 -370.7 370.3 -370.7 373.05 -376.2 373.05 -376.2 376.7 -395.2 376.7 -395.2 373.05 -400.1 373.05 -400.1 370.3 -395.2 370.3 -395.2 366.7 -376.2 366.7" fill="#434343" fill-rule="evenodd" stroke="none"/>
    <path d="M-520.25 376.7 L-520.25 373.05 -525.1 373.05 -525.1 370.3 -520.25 370.3 -520.25 366.7 -501.25 366.7 -501.25 370.3 -495.75 370.3 -495.75 373.05 -501.25 373.05 -501.25 376.7 -520.25 376.7" fill="#434343" fill-rule="evenodd" stroke="none"/>
    <path d="M354.75 370.8 L354.75 367.2 373.75 367.2 373.75 370.8 379.25 370.8 379.25 373.55 373.75 373.55 373.75 377.2 354.75 377.2 354.75 373.55 349.9 373.55 349.9 370.8 354.75 370.8" fill="#434343" fill-rule="evenodd" stroke="none"/>
    <path d="M498.8 367.2 L498.8 370.8 504.25 370.8 504.25 373.55 498.8 373.55 498.8 377.2 491.4 377.2 492.0 377.3 492.55 377.95 492.55 378.8 492.0 379.5 491.15 379.65 490.4 379.2 490.05 378.4 490.35 377.55 491.05 377.2 479.8 377.2 479.8 373.55 474.9 373.55 474.9 370.8 479.8 370.8 479.8 367.2 498.8 367.2" fill="#434343" fill-rule="evenodd" stroke="none"/>
    <path d="M229.75 370.8 L229.75 367.2 237.7 367.2 237.7 362.0 240.45 362.0 240.45 367.2 248.75 367.2 248.75 370.8 254.25 370.8 254.25 373.55 248.75 373.55 248.75 377.2 240.45 377.2 240.45 381.85 237.7 381.85 237.7 377.2 236.15 377.2 236.75 377.9 236.75 378.75 236.15 379.4 235.3 379.55 234.55 379.15 234.25 378.3 234.55 377.5 235.1 377.2 229.75 377.2 229.75 373.55 224.9 373.55 224.9 370.8 229.75 370.8" fill="#434343" fill-rule="evenodd" stroke="none"/>
    <path d="M240.6 -541.5 L240.6 -536.0 244.25 -536.0 244.25 -517.0 240.6 -517.0 240.6 -512.15 237.85 -512.15 237.85 -517.0 234.25 -517.0 234.25 -536.0 237.85 -536.0 237.85 -541.5 240.6 -541.5" fill="#434343" fill-rule="evenodd" stroke="none"/>
    <path d="M-259.3 -536.0 L-255.65 -536.0 -255.65 -517.0 -259.3 -517.0 -259.3 -512.15 -262.05 -512.15 -262.05 -517.0 -265.65 -517.0 -265.65 -536.0 -262.05 -536.0 -262.05 -541.5 -259.3 -541.5 -259.3 -536.0" fill="#434343" fill-rule="evenodd" stroke="none"/>
    <path d="M240.6 -386.5 L244.25 -386.5 244.25 -367.5 240.6 -367.5 240.6 -362.65 237.85 -362.65 237.85 -367.5 234.25 -367.5 234.25 -386.5 237.85 -386.5 237.85 -392.0 240.6 -392.0 240.6 -386.5" fill="#434343" fill-rule="evenodd" stroke="none"/>
    <path d="M-259.3 -386.5 L-255.65 -386.5 -255.65 -367.5 -259.3 -367.5 -259.3 -362.65 -262.05 -362.65 -262.05 -367.5 -265.65 -367.5 -265.65 -386.5 -262.05 -386.5 -262.05 -392.0 -259.3 -392.0 -259.3 -386.5" fill="#434343" fill-rule="evenodd" stroke="none"/>
    <path d="M237.85 -93.5 L240.6 -93.5 240.6 -88.0 244.25 -88.0 244.25 -69.0 240.6 -69.0 240.6 -64.1 237.85 -64.1 237.85 -69.0 234.25 -69.0 234.25 -88.0 237.85 -88.0 237.85 -93.5" fill="#434343" fill-rule="evenodd" stroke="none"/>
    <path d="M-262.05 -93.5 L-259.3 -93.5 -259.3 -88.0 -255.65 -88.0 -255.65 -69.0 -259.3 -69.0 -259.3 -64.1 -262.05 -64.1 -262.05 -69.0 -265.65 -69.0 -265.65 -88.0 -262.05 -88.0 -262.05 -93.5" fill="#434343" fill-rule="evenodd" stroke="none"/>
    <path d="M237.85 62.55 L237.85 57.05 240.6 57.05 240.6 62.55 244.25 62.55 244.25 81.55 240.6 81.55 240.6 86.4 237.85 86.4 237.85 81.55 234.25 81.55 234.25 62.55 237.85 62.55" fill="#434343" fill-rule="evenodd" stroke="none"/>
    <path d="M-265.65 62.55 L-262.05 62.55 -262.05 57.05 -259.3 57.05 -259.3 62.55 -255.65 62.55 -255.65 81.55 -259.3 81.55 -259.3 86.4 -262.05 86.4 -262.05 81.55 -265.65 81.55 -265.65 62.55" fill="#434343" fill-rule="evenodd" stroke="none"/>
    <path d="M237.85 209.55 L240.6 209.55 240.6 215.05 244.25 215.05 244.25 234.05 240.6 234.05 240.6 238.9 237.85 238.9 237.85 234.05 234.25 234.05 234.25 215.05 237.85 215.05 237.85 209.55" fill="#434343" fill-rule="evenodd" stroke="none"/>
    <path d="M-262.05 209.55 L-259.3 209.55 -259.3 215.05 -255.65 215.05 -255.65 234.05 -259.3 234.05 -259.3 238.9 -262.05 238.9 -262.05 234.05 -265.65 234.05 -265.65 215.05 -262.05 215.05 -262.05 209.55" fill="#434343" fill-rule="evenodd" stroke="none"/>
    <path d="M237.85 506.55 L240.6 506.55 240.6 512.05 244.25 512.05 244.25 531.05 240.6 531.05 240.6 535.9 237.85 535.9 237.85 531.05 234.25 531.05 234.25 512.05 237.85 512.05 237.85 506.55" fill="#434343" fill-rule="evenodd" stroke="none"/>
    <path d="M-262.05 506.55 L-259.3 506.55 -259.3 512.05 -255.65 512.05 -255.65 531.05 -259.3 531.05 -259.3 535.9 -262.05 535.9 -262.05 531.05 -265.65 531.05 -265.65 512.05 -262.05 512.05 -262.05 506.55" fill="#434343" fill-rule="evenodd" stroke="none"/>
    <path d="M240.6 657.05 L240.6 662.55 244.25 662.55 244.25 681.55 240.6 681.55 240.6 686.4 237.85 686.4 237.85 681.55 234.25 681.55 234.25 662.55 237.85 662.55 237.85 657.05 240.6 657.05" fill="#434343" fill-rule="evenodd" stroke="none"/>
    <path d="M-259.3 657.05 L-259.3 662.55 -255.65 662.55 -255.65 681.55 -259.3 681.55 -259.3 686.4 -262.05 686.4 -262.05 681.55 -265.65 681.55 -265.65 662.55 -262.05 662.55 -262.05 657.05 -259.3 657.05" fill="#434343" fill-rule="evenodd" stroke="none"/>
    <path d="M240.6 811.5 L240.6 816.4 244.15 816.4 244.15 826.4 234.15 826.4 234.15 816.4 237.85 816.4 237.85 811.5 240.6 811.5" fill="#434343" fill-rule="evenodd" stroke="none"/>
    <path d="M-259.3 811.5 L-259.3 816.5 -255.7 816.5 -255.7 826.5 -265.7 826.5 -265.7 816.5 -262.05 816.5 -262.05 811.5 -259.3 811.5" fill="#434343" fill-rule="evenodd" stroke="none"/>
    <path d="M-515.3 676.25 L-516.55 674.75 -517.25 672.95 -517.4 671.0 -516.95 669.1 -516.0 667.4 -514.55 666.05 -512.8 665.2 -510.85 664.95 -508.95 665.2 -507.2 666.05 -505.75 667.4 -504.8 669.1 -504.35 671.0 -504.5 672.95 -505.2 674.75 -506.4 676.25 -508.05 677.35 -509.9 677.95 -511.85 677.95 -513.7 677.35 -515.3 676.25" fill="#434343" fill-rule="evenodd" stroke="none"/>
    <path d="M-380.75 667.4 L-379.8 669.1 -379.35 671.0 -379.5 672.95 -380.2 674.75 -381.4 676.25 -383.05 677.35 -384.9 677.95 -386.85 677.95 -388.7 677.35 -390.3 676.25 -391.55 674.75 -392.25 672.95 -392.4 671.0 -391.95 669.1 -391.0 667.4 -389.55 666.05 -387.8 665.2 -385.85 664.95 -383.95 665.2 Q-383.05 665.65 -382.2 666.05 L-380.75 667.4" fill="#434343" fill-rule="evenodd" stroke="none"/>
    <path d="M-130.6 667.4 L-129.65 669.1 -129.2 671.0 -129.35 672.95 -130.05 674.75 -131.25 676.25 -132.9 677.35 -134.75 677.95 -136.7 677.95 -138.55 677.35 -140.15 676.25 -141.4 674.75 -142.1 672.95 -142.25 671.0 -141.8 669.1 -140.85 667.4 -139.4 666.05 -137.65 665.2 -135.7 664.95 -133.8 665.2 -132.05 666.05 -130.6 667.4" fill="#434343" fill-rule="evenodd" stroke="none"/>
    <path d="M-16.8 669.1 L-15.85 667.4 -14.4 666.05 -12.65 665.2 -10.7 664.95 -8.8 665.2 -7.05 666.05 -5.6 667.4 -4.65 669.1 -4.2 671.0 -4.35 672.95 -5.05 674.75 -6.25 676.25 -7.9 677.35 -9.75 677.95 -11.7 677.95 -13.55 677.35 -15.15 676.25 -16.4 674.75 -17.1 672.95 -17.25 671.0 -16.8 669.1" fill="#434343" fill-rule="evenodd" stroke="none"/>
    <path d="M108.2 669.1 L109.15 667.4 110.6 666.05 112.35 665.2 114.3 664.95 116.2 665.2 117.95 666.05 119.4 667.4 120.35 669.1 120.8 671.0 120.65 672.95 119.95 674.75 118.75 676.25 117.1 677.35 115.25 677.95 113.3 677.95 111.45 677.35 109.85 676.25 108.6 674.75 107.9 672.95 107.75 671.0 108.2 669.1" fill="#434343" fill-rule="evenodd" stroke="none"/>
    <path d="M369.1 667.4 L370.05 669.1 370.5 671.0 370.35 672.95 369.65 674.75 368.4 676.25 366.8 677.35 364.95 677.95 363.0 677.95 361.15 677.35 359.5 676.25 358.3 674.75 357.6 672.95 357.45 671.0 357.9 669.1 358.85 667.4 360.3 666.05 362.05 665.2 364.0 664.95 365.9 665.2 367.65 666.05 369.1 667.4" fill="#434343" fill-rule="evenodd" stroke="none"/>
    <path d="M494.1 667.4 L495.05 669.1 495.5 671.0 495.35 672.95 494.65 674.75 493.4 676.25 491.8 677.35 489.95 677.95 488.0 677.95 486.15 677.35 484.5 676.25 483.3 674.75 482.6 672.95 482.45 671.0 482.9 669.1 483.85 667.4 485.3 666.05 487.05 665.2 489.0 664.95 490.9 665.2 492.65 666.05 494.1 667.4" fill="#434343" fill-rule="evenodd" stroke="none"/>
    <path d="M-505.75 517.55 L-504.8 519.25 -504.35 521.15 -504.5 523.1 -505.2 524.9 -506.4 526.45 -508.05 527.55 -509.9 528.1 -511.85 528.1 -513.7 527.55 -515.3 526.45 -516.55 524.9 -517.25 523.1 -517.4 521.15 -516.95 519.25 -516.0 517.55 -514.55 516.25 -512.8 515.4 -510.85 515.1 -508.95 515.4 -507.2 516.25 -505.75 517.55" fill="#434343" fill-rule="evenodd" stroke="none"/>
    <path d="M-380.75 517.55 L-379.8 519.25 -379.35 521.15 -379.5 523.1 -380.2 524.9 -381.4 526.45 -383.05 527.55 -384.9 528.1 -386.85 528.1 -388.7 527.55 -390.3 526.45 -391.55 524.9 -392.25 523.1 -392.4 521.15 -391.95 519.25 -391.0 517.55 -389.55 516.25 -387.8 515.4 -385.85 515.1 -383.95 515.4 Q-383.05 515.85 -382.2 516.25 L-380.75 517.55" fill="#434343" fill-rule="evenodd" stroke="none"/>
    <path d="M-130.6 517.55 L-129.65 519.25 -129.2 521.15 -129.35 523.1 -130.05 524.9 -131.25 526.45 -132.9 527.55 -134.75 528.1 -136.7 528.1 -138.55 527.55 -140.15 526.45 -141.4 524.9 -142.1 523.1 -142.25 521.15 -141.8 519.25 -140.85 517.55 -139.4 516.25 -137.65 515.4 -135.7 515.1 -133.8 515.4 -132.05 516.25 -130.6 517.55" fill="#434343" fill-rule="evenodd" stroke="none"/>
    <path d="M-16.8 519.25 L-15.85 517.55 -14.4 516.25 -12.65 515.4 -10.7 515.1 -8.8 515.4 -7.05 516.25 -5.6 517.55 -4.65 519.25 -4.2 521.15 -4.35 523.1 -5.05 524.9 -6.25 526.45 -7.9 527.55 -9.75 528.1 -11.7 528.1 -13.55 527.55 -15.15 526.45 -16.4 524.9 -17.1 523.1 -17.25 521.15 -16.8 519.25" fill="#434343" fill-rule="evenodd" stroke="none"/>
    <path d="M108.2 519.25 L109.15 517.55 110.6 516.25 112.35 515.4 114.3 515.1 116.2 515.4 117.95 516.25 119.4 517.55 120.35 519.25 120.8 521.15 120.65 523.1 119.95 524.9 118.75 526.45 117.1 527.55 115.25 528.1 113.3 528.1 111.45 527.55 109.85 526.45 108.6 524.9 107.9 523.1 107.75 521.15 108.2 519.25" fill="#434343" fill-rule="evenodd" stroke="none"/>
    <path d="M369.1 517.55 L370.05 519.25 370.5 521.15 370.35 523.1 369.65 524.9 368.4 526.45 366.8 527.55 364.95 528.1 363.0 528.1 361.15 527.55 359.5 526.45 358.3 524.9 357.6 523.1 357.45 521.15 357.9 519.25 358.85 517.55 360.3 516.25 362.05 515.4 364.0 515.1 365.9 515.4 367.65 516.25 369.1 517.55" fill="#434343" fill-rule="evenodd" stroke="none"/>
    <path d="M494.1 517.55 L495.05 519.25 495.5 521.15 495.35 523.1 494.65 524.9 493.4 526.45 491.8 527.55 489.95 528.1 488.0 528.1 486.15 527.55 484.5 526.45 483.3 524.9 482.6 523.1 482.45 521.15 482.9 519.25 483.85 517.55 485.3 516.25 487.05 515.4 489.0 515.1 490.9 515.4 492.65 516.25 494.1 517.55" fill="#434343" fill-rule="evenodd" stroke="none"/>
    <path d="M-512.8 215.35 L-510.85 215.05 -508.95 215.35 -507.2 216.2 -505.75 217.5 -504.8 219.2 -504.35 221.1 -504.5 223.05 -505.2 224.85 -506.4 226.4 -508.05 227.5 -509.9 228.05 -511.85 228.05 -513.7 227.5 -515.3 226.4 -516.55 224.85 -517.25 223.05 -517.4 221.1 -516.95 219.2 -516.0 217.5 -514.55 216.2 -512.8 215.35" fill="#434343" fill-rule="evenodd" stroke="none"/>
    <path d="M-382.2 216.2 L-380.75 217.5 -379.8 219.2 -379.35 221.1 -379.5 223.05 -380.2 224.85 -381.4 226.4 -383.05 227.5 -384.9 228.05 -386.85 228.05 -388.7 227.5 -390.3 226.4 -391.55 224.85 -392.25 223.05 -392.4 221.1 -391.95 219.2 -391.0 217.5 -389.55 216.2 -387.8 215.35 -385.85 215.05 -383.95 215.35 Q-383.05 215.8 -382.2 216.2" fill="#434343" fill-rule="evenodd" stroke="none"/>
    <path d="M-137.65 215.35 L-135.7 215.05 -133.8 215.35 -132.05 216.2 -130.6 217.5 -129.65 219.2 -129.2 221.1 -129.35 223.05 -130.05 224.85 -131.25 226.4 -132.9 227.5 -134.75 228.05 -136.7 228.05 -138.55 227.5 -140.15 226.4 -141.4 224.85 -142.1 223.05 -142.25 221.1 -141.8 219.2 -140.85 217.5 -139.4 216.2 -137.65 215.35" fill="#434343" fill-rule="evenodd" stroke="none"/>
    <path d="M-17.1 223.05 L-17.25 221.1 -16.8 219.2 -15.85 217.5 -14.4 216.2 -12.65 215.35 -10.7 215.05 -8.8 215.35 -7.05 216.2 -5.6 217.5 -4.65 219.2 -4.2 221.1 -4.35 223.05 -5.05 224.85 -6.25 226.4 -7.9 227.5 -9.75 228.05 -11.7 228.05 -13.55 227.5 -15.15 226.4 -16.4 224.85 -17.1 223.05" fill="#434343" fill-rule="evenodd" stroke="none"/>
    <path d="M110.6 216.2 L112.35 215.35 114.3 215.05 116.2 215.35 117.95 216.2 119.4 217.5 120.35 219.2 120.8 221.1 120.65 223.05 119.95 224.85 118.75 226.4 117.1 227.5 115.25 228.05 113.3 228.05 111.45 227.5 109.85 226.4 108.6 224.85 107.9 223.05 107.75 221.1 108.2 219.2 109.15 217.5 110.6 216.2" fill="#434343" fill-rule="evenodd" stroke="none"/>
    <path d="M367.65 216.2 L369.1 217.5 370.05 219.2 370.5 221.1 370.35 223.05 369.65 224.85 368.4 226.4 366.8 227.5 364.95 228.05 363.0 228.05 361.15 227.5 359.5 226.4 358.3 224.85 357.6 223.05 357.45 221.1 357.9 219.2 358.85 217.5 360.3 216.2 362.05 215.35 364.0 215.05 365.9 215.35 367.65 216.2" fill="#434343" fill-rule="evenodd" stroke="none"/>
    <path d="M489.0 215.05 L490.9 215.35 492.65 216.2 494.1 217.5 495.05 219.2 495.5 221.1 495.35 223.05 494.65 224.85 493.4 226.4 491.8 227.5 489.95 228.05 488.0 228.05 486.15 227.5 484.5 226.4 483.3 224.85 482.6 223.05 482.45 221.1 482.9 219.2 483.85 217.5 485.3 216.2 487.05 215.35 489.0 215.05" fill="#434343" fill-rule="evenodd" stroke="none"/>
    <path d="M-512.8 65.5 L-510.85 65.2 -508.95 65.5 -507.2 66.35 -505.75 67.7 -504.8 69.35 -504.35 71.25 -504.5 73.2 -505.2 75.05 -506.4 76.55 -508.05 77.65 -509.9 78.25 -511.85 78.25 -513.7 77.65 -515.3 76.55 -516.55 75.05 -517.25 73.2 -517.4 71.25 -516.95 69.35 -516.0 67.7 -514.55 66.35 -512.8 65.5" fill="#434343" fill-rule="evenodd" stroke="none"/>
    <path d="M-382.2 66.35 L-380.75 67.7 -379.8 69.35 -379.35 71.25 -379.5 73.2 -380.2 75.05 -381.4 76.55 -383.05 77.65 -384.9 78.25 -386.85 78.25 -388.7 77.65 -390.3 76.55 -391.55 75.05 -392.25 73.2 -392.4 71.25 -391.95 69.35 -391.0 67.7 -389.55 66.35 -387.8 65.5 -385.85 65.2 -383.95 65.5 Q-383.05 65.95 -382.2 66.35" fill="#434343" fill-rule="evenodd" stroke="none"/>
    <path d="M-137.65 65.5 L-135.7 65.2 -133.8 65.5 -132.05 66.35 -130.6 67.7 -129.65 69.35 -129.2 71.25 -129.35 73.2 -130.05 75.05 -131.25 76.55 -132.9 77.65 -134.75 78.25 -136.7 78.25 -138.55 77.65 -140.15 76.55 -141.4 75.05 -142.1 73.2 -142.25 71.25 -141.8 69.35 -140.85 67.7 -139.4 66.35 -137.65 65.5" fill="#434343" fill-rule="evenodd" stroke="none"/>
    <path d="M-17.1 73.2 L-17.25 71.25 -16.8 69.35 -15.85 67.7 -14.4 66.35 -12.65 65.5 -10.7 65.2 -8.8 65.5 -7.05 66.35 -5.6 67.7 -4.65 69.35 -4.2 71.25 -4.35 73.2 -5.05 75.05 -6.25 76.55 -7.9 77.65 -9.75 78.25 -11.7 78.25 -13.55 77.65 -15.15 76.55 -16.4 75.05 -17.1 73.2" fill="#434343" fill-rule="evenodd" stroke="none"/>
    <path d="M108.6 75.05 L107.9 73.2 107.75 71.25 108.2 69.35 109.15 67.7 110.6 66.35 112.35 65.5 114.3 65.2 116.2 65.5 117.95 66.35 119.4 67.7 120.35 69.35 120.8 71.25 120.65 73.2 119.95 75.05 118.75 76.55 117.1 77.65 115.25 78.25 113.3 78.25 111.45 77.65 109.85 76.55 108.6 75.05" fill="#434343" fill-rule="evenodd" stroke="none"/>
    <path d="M367.65 66.35 L369.1 67.7 370.05 69.35 370.5 71.25 370.35 73.2 369.65 75.05 368.4 76.55 366.8 77.65 364.95 78.25 363.0 78.25 361.15 77.65 359.5 76.55 358.3 75.05 357.6 73.2 357.45 71.25 357.9 69.35 358.85 67.7 360.3 66.35 362.05 65.5 364.0 65.2 365.9 65.5 367.65 66.35" fill="#434343" fill-rule="evenodd" stroke="none"/>
    <path d="M489.0 65.2 L490.9 65.5 492.65 66.35 494.1 67.7 495.05 69.35 495.5 71.25 495.35 73.2 494.65 75.05 493.4 76.55 491.8 77.65 489.95 78.25 488.0 78.25 486.15 77.65 484.5 76.55 483.3 75.05 482.6 73.2 482.45 71.25 482.9 69.35 483.85 67.7 485.3 66.35 487.05 65.5 489.0 65.2" fill="#434343" fill-rule="evenodd" stroke="none"/>
    <path d="M-516.55 -375.5 L-517.25 -377.35 -517.4 -379.25 -516.95 -381.15 -516.0 -382.85 -514.55 -384.2 -512.8 -385.05 -510.85 -385.3 -508.95 -385.05 -507.2 -384.2 -505.75 -382.85 -504.8 -381.15 -504.35 -379.25 -504.5 -377.35 -505.2 -375.5 -506.4 -374.0 -508.05 -372.9 -509.9 -372.3 -511.85 -372.3 -513.7 -372.9 -515.3 -374.0 -516.55 -375.5" fill="#434343" fill-rule="evenodd" stroke="none"/>
    <path d="M-391.0 -382.85 L-389.55 -384.2 -387.8 -385.05 -385.85 -385.3 -383.95 -385.05 -382.2 -384.2 -380.75 -382.85 -379.8 -381.15 -379.35 -379.25 -379.5 -377.35 -380.2 -375.5 -381.4 -374.0 -383.05 -372.9 -384.9 -372.3 -386.85 -372.3 -388.7 -372.9 -390.3 -374.0 -391.55 -375.5 -392.25 -377.35 -392.4 -379.25 -391.95 -381.15 -391.0 -382.85" fill="#434343" fill-rule="evenodd" stroke="none"/>
    <path d="M-140.85 -382.85 L-139.4 -384.2 -137.65 -385.05 -135.7 -385.3 -133.8 -385.05 -132.05 -384.2 -130.6 -382.85 -129.65 -381.15 -129.2 -379.25 -129.35 -377.35 -130.05 -375.5 -131.25 -374.0 -132.9 -372.9 -134.75 -372.3 -136.7 -372.3 -138.55 -372.9 -140.15 -374.0 -141.4 -375.5 -142.1 -377.35 -142.25 -379.25 -141.8 -381.15 -140.85 -382.85" fill="#434343" fill-rule="evenodd" stroke="none"/>
    <path d="M-7.05 -384.2 L-5.6 -382.85 -4.65 -381.15 -4.2 -379.25 -4.35 -377.35 -5.05 -375.5 -6.25 -374.0 -7.9 -372.9 -9.75 -372.3 -11.7 -372.3 -13.55 -372.9 -15.15 -374.0 -16.4 -375.5 -17.1 -377.35 -17.25 -379.25 -16.8 -381.15 -15.85 -382.85 -14.4 -384.2 -12.65 -385.05 -10.7 -385.3 -8.8 -385.05 -7.05 -384.2" fill="#434343" fill-rule="evenodd" stroke="none"/>
    <path d="M114.3 -385.3 L116.2 -385.05 117.95 -384.2 119.4 -382.85 120.35 -381.15 120.8 -379.25 120.65 -377.35 119.95 -375.5 118.75 -374.0 117.1 -372.9 115.25 -372.3 113.3 -372.3 111.45 -372.9 109.85 -374.0 108.6 -375.5 107.9 -377.35 107.75 -379.25 108.2 -381.15 109.15 -382.85 110.6 -384.2 112.35 -385.05 114.3 -385.3" fill="#434343" fill-rule="evenodd" stroke="none"/>
    <path d="M358.85 -382.85 L360.3 -384.2 362.05 -385.05 364.0 -385.3 365.9 -385.05 367.65 -384.2 369.1 -382.85 370.05 -381.15 370.5 -379.25 370.35 -377.35 369.65 -375.5 368.4 -374.0 366.8 -372.9 364.95 -372.3 363.0 -372.3 361.15 -372.9 359.5 -374.0 358.3 -375.5 357.6 -377.35 357.45 -379.25 357.9 -381.15 358.85 -382.85" fill="#434343" fill-rule="evenodd" stroke="none"/>
    <path d="M483.85 -382.85 L485.3 -384.2 487.05 -385.05 489.0 -385.3 490.9 -385.05 Q491.8 -384.6 492.65 -384.2 L494.1 -382.85 495.05 -381.15 495.5 -379.25 495.35 -377.35 494.65 -375.5 493.4 -374.0 491.8 -372.9 489.95 -372.3 488.0 -372.3 486.15 -372.9 484.5 -374.0 483.3 -375.5 482.6 -377.35 482.45 -379.25 482.9 -381.15 483.85 -382.85" fill="#434343" fill-rule="evenodd" stroke="none"/>
    <path d="M-515.3 -73.65 L-516.55 -75.2 -517.25 -77.0 -517.4 -78.95 -516.95 -80.85 -516.0 -82.55 -514.55 -83.85 -512.8 -84.7 -510.85 -85.0 -508.95 -84.7 -507.2 -83.85 -505.75 -82.55 -504.8 -80.85 -504.35 -78.95 -504.5 -77.0 -505.2 -75.2 -506.4 -73.65 -508.05 -72.55 -509.9 -72.0 -511.85 -72.0 -513.7 -72.55 -515.3 -73.65" fill="#434343" fill-rule="evenodd" stroke="none"/>
    <path d="M-382.2 -83.85 L-380.75 -82.55 -379.8 -80.85 -379.35 -78.95 -379.5 -77.0 -380.2 -75.2 -381.4 -73.65 -383.05 -72.55 -384.9 -72.0 -386.85 -72.0 -388.7 -72.55 -390.3 -73.65 -391.55 -75.2 -392.25 -77.0 -392.4 -78.95 -391.95 -80.85 -391.0 -82.55 -389.55 -83.85 -387.8 -84.7 -385.85 -85.0 -383.95 -84.7 -382.2 -83.85" fill="#434343" fill-rule="evenodd" stroke="none"/>
    <path d="M-137.65 -84.7 L-135.7 -85.0 -133.8 -84.7 -132.05 -83.85 -130.6 -82.55 -129.65 -80.85 -129.2 -78.95 -129.35 -77.0 -130.05 -75.2 -131.25 -73.65 -132.9 -72.55 -134.75 -72.0 -136.7 -72.0 -138.55 -72.55 -140.15 -73.65 -141.4 -75.2 -142.1 -77.0 -142.25 -78.95 -141.8 -80.85 -140.85 -82.55 -139.4 -83.85 -137.65 -84.7" fill="#434343" fill-rule="evenodd" stroke="none"/>
    <path d="M-12.65 -84.7 L-10.7 -85.0 -8.8 -84.7 -7.05 -83.85 -5.6 -82.55 -4.65 -80.85 -4.2 -78.95 -4.35 -77.0 -5.05 -75.2 -6.25 -73.65 -7.9 -72.55 -9.75 -72.0 -11.7 -72.0 -13.55 -72.55 -15.15 -73.65 -16.4 -75.2 -17.1 -77.0 -17.25 -78.95 -16.8 -80.85 -15.85 -82.55 -14.4 -83.85 -12.65 -84.7" fill="#434343" fill-rule="evenodd" stroke="none"/>
    <path d="M110.6 -83.85 L112.35 -84.7 114.3 -85.0 116.2 -84.7 117.95 -83.85 119.4 -82.55 120.35 -80.85 120.8 -78.95 120.65 -77.0 119.95 -75.2 118.75 -73.65 117.1 -72.55 115.25 -72.0 113.3 -72.0 111.45 -72.55 109.85 -73.65 108.6 -75.2 107.9 -77.0 107.75 -78.95 108.2 -80.85 109.15 -82.55 110.6 -83.85" fill="#434343" fill-rule="evenodd" stroke="none"/>
    <path d="M367.65 -83.85 L369.1 -82.55 370.05 -80.85 370.5 -78.95 370.35 -77.0 369.65 -75.2 368.4 -73.65 366.8 -72.55 364.95 -72.0 363.0 -72.0 361.15 -72.55 359.5 -73.65 358.3 -75.2 357.6 -77.0 357.45 -78.95 357.9 -80.85 358.85 -82.55 360.3 -83.85 362.05 -84.7 364.0 -85.0 365.9 -84.7 367.65 -83.85" fill="#434343" fill-rule="evenodd" stroke="none"/>
    <path d="M489.0 -85.0 L490.9 -84.7 Q491.8 -84.25 492.65 -83.85 L494.1 -82.55 495.05 -80.85 495.5 -78.95 495.35 -77.0 494.65 -75.2 493.4 -73.65 491.8 -72.55 489.95 -72.0 488.0 -72.0 486.15 -72.55 484.5 -73.65 483.3 -75.2 482.6 -77.0 482.45 -78.95 482.9 -80.85 483.85 -82.55 485.3 -83.85 487.05 -84.7 489.0 -85.0" fill="#434343" fill-rule="evenodd" stroke="none"/>
    <path d="M-516.55 -525.35 L-517.25 -527.15 -517.4 -529.1 -516.95 -531.0 -516.0 -532.7 -514.55 -534.05 -512.8 -534.9 -510.85 -535.15 -508.95 -534.9 -507.2 -534.05 -505.75 -532.7 -504.8 -531.0 -504.35 -529.1 -504.5 -527.15 -505.2 -525.35 -506.4 -523.85 -508.05 -522.75 -509.9 -522.15 -511.85 -522.15 -513.7 -522.75 -515.3 -523.85 -516.55 -525.35" fill="#434343" fill-rule="evenodd" stroke="none"/>
    <path d="M-391.0 -532.7 L-389.55 -534.05 -387.8 -534.9 -385.85 -535.15 -383.95 -534.9 -382.2 -534.05 -380.75 -532.7 -379.8 -531.0 -379.35 -529.1 -379.5 -527.15 -380.2 -525.35 -381.4 -523.85 -383.05 -522.75 -384.9 -522.15 -386.85 -522.15 -388.7 -522.75 -390.3 -523.85 -391.55 -525.35 -392.25 -527.15 -392.4 -529.1 -391.95 -531.0 -391.0 -532.7" fill="#434343" fill-rule="evenodd" stroke="none"/>
    <path d="M-140.85 -532.7 L-139.4 -534.05 -137.65 -534.9 -135.7 -535.15 -133.8 -534.9 -132.05 -534.05 -130.6 -532.7 -129.65 -531.0 -129.2 -529.1 -129.35 -527.15 -130.05 -525.35 -131.25 -523.85 -132.9 -522.75 -134.75 -522.15 -136.7 -522.15 -138.55 -522.75 -140.15 -523.85 -141.4 -525.35 -142.1 -527.15 -142.25 -529.1 -141.8 -531.0 -140.85 -532.7" fill="#434343" fill-rule="evenodd" stroke="none"/>
    <path d="M-7.05 -534.05 L-5.6 -532.7 -4.65 -531.0 -4.2 -529.1 -4.35 -527.15 -5.05 -525.35 -6.25 -523.85 -7.9 -522.75 -9.75 -522.15 -11.7 -522.15 -13.55 -522.75 -15.15 -523.85 -16.4 -525.35 -17.1 -527.15 -17.25 -529.1 -16.8 -531.0 -15.85 -532.7 -14.4 -534.05 -12.65 -534.9 -10.7 -535.15 -8.8 -534.9 -7.05 -534.05" fill="#434343" fill-rule="evenodd" stroke="none"/>
    <path d="M114.3 -535.15 L116.2 -534.9 117.95 -534.05 119.4 -532.7 120.35 -531.0 120.8 -529.1 120.65 -527.15 119.95 -525.35 118.75 -523.85 117.1 -522.75 115.25 -522.15 113.3 -522.15 111.45 -522.75 109.85 -523.85 108.6 -525.35 107.9 -527.15 107.75 -529.1 108.2 -531.0 109.15 -532.7 110.6 -534.05 112.35 -534.9 114.3 -535.15" fill="#434343" fill-rule="evenodd" stroke="none"/>
    <path d="M358.85 -532.7 L360.3 -534.05 362.05 -534.9 364.0 -535.15 365.9 -534.9 367.65 -534.05 369.1 -532.7 370.05 -531.0 370.5 -529.1 370.35 -527.15 369.65 -525.35 368.4 -523.85 366.8 -522.75 364.95 -522.15 363.0 -522.15 361.15 -522.75 359.5 -523.85 358.3 -525.35 357.6 -527.15 357.45 -529.1 357.9 -531.0 358.85 -532.7" fill="#434343" fill-rule="evenodd" stroke="none"/>
    <path d="M483.85 -532.7 L485.3 -534.05 487.05 -534.9 489.0 -535.15 490.9 -534.9 Q491.8 -534.45 492.65 -534.05 L494.1 -532.7 495.05 -531.0 495.5 -529.1 495.35 -527.15 494.65 -525.35 493.4 -523.85 491.8 -522.75 489.95 -522.15 488.0 -522.15 486.15 -522.75 484.5 -523.85 483.3 -525.35 482.6 -527.15 482.45 -529.1 482.9 -531.0 483.85 -532.7" fill="#434343" fill-rule="evenodd" stroke="none"/>
    <path d="M123.9 -669.1 L123.9 -668.25 123.35 -667.6 122.5 -667.45 121.75 -667.85 121.45 -668.7 121.7 -669.5 122.45 -669.95 123.35 -669.8 123.9 -669.1" fill="#434343" fill-rule="evenodd" stroke="none"/>
    <path d="M223.9 -669.7 L224.5 -669.05 224.5 -668.15 223.9 -667.5 223.05 -667.35 222.3 -667.8 222.0 -668.6 222.3 -669.4 223.05 -669.85 223.9 -669.7" fill="#434343" fill-rule="evenodd" stroke="none"/>
    <path d="M230.3 -667.65 L230.6 -668.45 231.35 -668.9 232.2 -668.75 232.75 -668.1 232.75 -667.2 232.2 -666.55 231.35 -666.4 230.6 -666.8 230.3 -667.65" fill="#434343" fill-rule="evenodd" stroke="none"/>
    <path d="M612.15 -607.4 L612.15 -606.55 611.6 -605.85 610.75 -605.7 610.0 -606.15 609.7 -606.95 609.95 -607.8 610.7 -608.2 611.6 -608.05 612.15 -607.4" fill="#434343" fill-rule="evenodd" stroke="none"/>
    <path d="M610.7 -603.1 L611.6 -602.95 612.15 -602.3 612.15 -601.45 611.6 -600.75 610.75 -600.6 610.0 -601.05 609.7 -601.85 609.95 -602.65 610.7 -603.1" fill="#434343" fill-rule="evenodd" stroke="none"/>
    <path d="M-633.85 -664.45 L-633.0 -664.3 -632.45 -663.65 -632.45 -662.8 -633.0 -662.1 -633.85 -661.95 -634.6 -662.4 -634.9 -663.2 -634.6 -664.05 -633.85 -664.45" fill="#434343" fill-rule="evenodd" stroke="none"/>
    <path d="M232.1 -533.2 L232.65 -532.55 232.65 -531.65 232.1 -531.0 231.25 -530.85 230.5 -531.3 230.2 -532.1 230.5 -532.9 231.25 -533.35 232.1 -533.2" fill="#434343" fill-rule="evenodd" stroke="none"/>
    <path d="M232.65 -520.5 L232.65 -519.6 232.1 -518.95 231.25 -518.8 230.5 -519.2 230.2 -520.05 230.5 -520.85 231.25 -521.3 232.1 -521.15 232.65 -520.5" fill="#434343" fill-rule="evenodd" stroke="none"/>
    <path d="M-253.5 -371.1 L-254.25 -371.55 -254.55 -372.35 -254.3 -373.15 -253.55 -373.6 -252.65 -373.45 -252.1 -372.8 -252.1 -371.9 -252.65 -371.25 -253.5 -371.1" fill="#434343" fill-rule="evenodd" stroke="none"/>
    <path d="M-252.65 -368.3 L-252.1 -367.6 -252.1 -366.75 -252.65 -366.1 -253.5 -365.95 -254.25 -366.35 -254.55 -367.2 -254.3 -368.0 -253.55 -368.45 -252.65 -368.3" fill="#434343" fill-rule="evenodd" stroke="none"/>
    <path d="M610.75 -246.6 L611.6 -246.45 612.2 -245.8 612.2 -244.9 611.6 -244.25 610.75 -244.1 610.0 -244.55 609.7 -245.35 610.0 -246.15 610.75 -246.6" fill="#434343" fill-rule="evenodd" stroke="none"/>
    <path d="M243.85 -238.5 L244.15 -239.35 244.9 -239.75 245.75 -239.6 246.3 -238.95 246.3 -238.1 245.75 -237.4 244.9 -237.25 244.15 -237.7 243.85 -238.5" fill="#434343" fill-rule="evenodd" stroke="none"/>
    <path d="M230.3 -236.75 L231.05 -237.2 231.9 -237.05 232.5 -236.35 232.5 -235.5 231.9 -234.85 231.05 -234.7 230.3 -235.1 230.0 -235.95 230.3 -236.75" fill="#434343" fill-rule="evenodd" stroke="none"/>
    <path d="M-507.55 -235.85 L-506.8 -236.3 -505.95 -236.15 -505.4 -235.5 -505.4 -234.65 -505.95 -233.95 -506.8 -233.8 -507.55 -234.25 -507.85 -235.05 -507.55 -235.85" fill="#434343" fill-rule="evenodd" stroke="none"/>
    <path d="M-20.65 -235.75 L-19.9 -236.2 -19.0 -236.05 -18.45 -235.35 -18.45 -234.5 -19.0 -233.85 -19.85 -233.7 -20.6 -234.1 -20.95 -234.95 -20.65 -235.75" fill="#434343" fill-rule="evenodd" stroke="none"/>
    <path d="M-633.7 -86.2 L-634.55 -86.05 -635.3 -86.5 -635.6 -87.3 -635.35 -88.15 -634.6 -88.55 -633.7 -88.4 -633.15 -87.75 -633.15 -86.9 -633.7 -86.2" fill="#434343" fill-rule="evenodd" stroke="none"/>
    <path d="M-268.6 -74.05 L-268.3 -74.85 Q-267.9 -75.05 -267.55 -75.3 L-266.7 -75.15 -266.15 -74.5 -266.15 -73.65 -266.7 -72.95 -267.55 -72.8 -268.3 -73.25 -268.6 -74.05" fill="#434343" fill-rule="evenodd" stroke="none"/>
    <path d="M612.9 -148.65 L612.9 -147.8 612.35 -147.1 611.5 -146.95 610.75 -147.4 610.45 -148.2 610.75 -149.05 611.5 -149.45 612.35 -149.3 612.9 -148.65" fill="#434343" fill-rule="evenodd" stroke="none"/>
    <path d="M611.5 -144.35 L612.35 -144.2 612.9 -143.55 612.9 -142.65 612.35 -142.0 611.5 -141.85 610.75 -142.3 610.45 -143.1 610.75 -143.9 611.5 -144.35" fill="#434343" fill-rule="evenodd" stroke="none"/>
    <path d="M245.75 63.8 L246.6 63.95 247.15 64.65 247.15 65.5 246.6 66.15 245.75 66.3 245.0 65.9 244.7 65.05 245.0 64.25 245.75 63.8" fill="#434343" fill-rule="evenodd" stroke="none"/>
    <path d="M245.0 78.15 L244.7 77.3 245.0 76.5 245.75 76.05 246.6 76.2 247.15 76.9 247.15 77.75 246.6 78.4 245.75 78.55 245.0 78.15" fill="#434343" fill-rule="evenodd" stroke="none"/>
    <path d="M-267.6 62.25 L-266.75 62.35 -266.2 63.05 -266.2 63.9 -266.75 64.6 -267.6 64.75 -268.35 64.3 -268.65 63.5 -268.35 62.65 -267.6 62.25" fill="#434343" fill-rule="evenodd" stroke="none"/>
    <path d="M-268.35 74.75 L-267.6 74.3 -266.75 74.45 -266.2 75.15 -266.2 76.0 -266.75 76.65 -267.6 76.85 -268.35 76.4 -268.65 75.6 -268.35 74.75" fill="#434343" fill-rule="evenodd" stroke="none"/>
    <path d="M245.7 219.05 L246.6 219.2 247.15 219.9 247.15 220.75 246.6 221.4 245.75 221.55 245.0 221.15 244.7 220.3 244.95 219.5 245.7 219.05" fill="#434343" fill-rule="evenodd" stroke="none"/>
    <path d="M611.75 229.0 L611.45 228.2 611.7 227.4 612.45 226.95 613.35 227.1 613.9 227.75 613.9 228.65 613.35 229.3 612.5 229.45 611.75 229.0" fill="#434343" fill-rule="evenodd" stroke="none"/>
    <path d="M372.75 365.1 L372.15 365.75 371.3 365.9 370.55 365.45 370.25 364.65 370.55 363.85 371.3 363.4 372.15 363.55 372.75 364.2 372.75 365.1" fill="#434343" fill-rule="evenodd" stroke="none"/>
    <path d="M245.45 363.65 L246.35 363.8 246.9 364.45 246.9 365.35 246.35 366.0 245.5 366.15 244.75 365.7 244.45 364.9 244.7 364.1 245.45 363.65" fill="#434343" fill-rule="evenodd" stroke="none"/>
    <path d="M-19.45 376.8 L-18.6 376.95 -18.0 377.65 -18.0 378.5 -18.6 379.15 -19.45 379.3 -20.2 378.9 -20.5 378.05 -20.2 377.25 -19.45 376.8" fill="#434343" fill-rule="evenodd" stroke="none"/>
    <path d="M-267.9 361.7 L-267.0 361.85 -266.45 362.5 -266.45 363.35 -267.0 364.05 -267.85 364.2 -268.6 363.75 -268.95 362.95 -268.65 362.15 -267.9 361.7" fill="#434343" fill-rule="evenodd" stroke="none"/>
    <path d="M-253.8 376.8 L-252.95 376.95 -252.4 377.65 -252.4 378.5 -252.95 379.15 -253.8 379.3 -254.55 378.9 -254.85 378.05 -254.55 377.25 -253.8 376.8" fill="#434343" fill-rule="evenodd" stroke="none"/>
    <path d="M-267.4 376.8 L-266.5 376.95 -265.95 377.65 -265.95 378.5 -266.5 379.15 -267.35 379.3 -268.1 378.9 -268.45 378.05 -268.15 377.25 -267.4 376.8" fill="#434343" fill-rule="evenodd" stroke="none"/>
    <path d="M-507.75 361.4 L-506.9 361.55 -506.35 362.2 -506.35 363.05 -506.9 363.75 -507.75 363.9 -508.5 363.45 -508.8 362.65 -508.5 361.8 -507.75 361.4" fill="#434343" fill-rule="evenodd" stroke="none"/>
    <path d="M-634.05 384.3 L-633.3 383.9 -632.45 384.05 -631.9 384.7 -631.9 385.55 -632.45 386.25 -633.3 386.4 -634.05 385.95 -634.35 385.15 -634.05 384.3" fill="#434343" fill-rule="evenodd" stroke="none"/>
    <path d="M-266.65 514.8 L-266.1 515.45 -266.1 516.3 -266.65 517.0 -267.5 517.15 -268.25 516.7 -268.55 515.9 -268.25 515.05 -267.5 514.65 -266.65 514.8" fill="#434343" fill-rule="evenodd" stroke="none"/>
    <path d="M-267.5 517.2 L-266.65 517.35 -266.1 518.0 -266.1 518.9 -266.65 519.55 -267.5 519.7 -268.25 519.3 -268.55 518.45 -268.25 517.65 -267.5 517.2" fill="#434343" fill-rule="evenodd" stroke="none"/>
    <path d="M-633.45 742.7 L-634.2 742.3 -634.5 741.45 -634.2 740.65 -633.45 740.2 -632.6 740.35 -632.05 741.0 -632.05 741.9 -632.6 742.55 -633.45 742.7" fill="#434343" fill-rule="evenodd" stroke="none"/>
    <path d="M-632.6 745.55 L-632.05 746.25 -632.05 747.1 -632.6 747.75 -633.45 747.9 -634.2 747.5 -634.5 746.7 -634.2 745.85 -633.45 745.4 -632.6 745.55" fill="#434343" fill-rule="evenodd" stroke="none"/>
    <path d="M612.5 812.0 L613.05 812.65 613.1 813.5 612.5 814.2 611.65 814.35 610.9 813.9 610.6 813.1 610.9 812.25 611.65 811.85 612.5 812.0" fill="#434343" fill-rule="evenodd" stroke="none"/>
    <path d="M374.15 815.75 L374.7 816.4 374.7 817.25 374.15 817.95 373.3 818.1 372.55 817.65 372.25 816.85 372.55 816.0 373.3 815.6 374.15 815.75" fill="#434343" fill-rule="evenodd" stroke="none"/>
    <path d="M355.55 816.0 L356.1 816.65 356.15 817.5 355.55 818.2 354.7 818.35 353.95 817.9 353.65 817.1 353.95 816.25 354.7 815.85 355.55 816.0" fill="#434343" fill-rule="evenodd" stroke="none"/>
    <path d="M133.9 819.55 L133.6 818.7 133.9 817.9 134.65 817.45 135.5 817.6 136.1 818.25 136.1 819.15 135.55 819.8 134.65 819.95 133.9 819.55" fill="#434343" fill-rule="evenodd" stroke="none"/>
    <path d="M-113.7 817.4 L-112.85 817.55 -112.3 818.2 -112.3 819.1 -112.85 819.75 -113.7 819.9 -114.45 819.45 -114.75 818.65 -114.45 817.85 -113.7 817.4" fill="#434343" fill-rule="evenodd" stroke="none"/>
    <path d="M-251.7 818.75 L-251.4 817.95 -250.65 817.5 -249.75 817.65 -249.2 818.3 -249.2 819.2 -249.75 819.85 -250.6 820.0 -251.35 819.6 -251.7 818.75" fill="#434343" fill-rule="evenodd" stroke="none"/>
    <path d="M-664.85 -376.85 L-665.1 -377.45 -664.85 -378.1 -664.25 -378.45 -663.6 -378.35 -663.25 -377.9 -663.15 -378.1 -662.55 -378.45 -661.9 -378.35 -661.45 -377.8 -661.45 -377.15 -661.9 -376.6 -662.55 -376.5 -663.15 -376.85 -663.25 -377.05 -663.6 -376.6 -664.25 -376.5 -664.85 -376.85" fill="#434343" fill-rule="evenodd" stroke="none"/>
    <path d="M674.5 76.35 L675.2 76.5 675.6 77.0 675.65 77.7 675.2 78.2 674.5 78.35 673.95 78.0 673.85 77.8 673.5 78.2 672.8 78.35 672.2 78.0 672.0 77.35 672.2 76.7 672.8 76.35 673.5 76.5 673.85 76.9 673.9 76.7 674.5 76.35" fill="#434343" fill-rule="evenodd" stroke="none"/>
    <path d="M453.45 -902.3 L484.05 -902.3 484.05 -898.75 453.45 -898.75 453.45 -902.3" fill="#ffffff" fill-rule="evenodd" stroke="none"/>
    <path d="M-679.35 -378.5 L-687.6 -378.5 -687.6 -381.25 -679.35 -381.25 -679.35 -378.5" fill="#ffffff" fill-rule="evenodd" stroke="none"/>
    <path d="M-212.5 -713.4 L-212.5 -705.15 -215.4 -705.15 -215.4 -713.4 -212.5 -713.4" fill="#ffffff" fill-rule="evenodd" stroke="none"/>
    <path d="M241.85 -715.5 L241.85 -707.25 239.1 -707.25 239.1 -715.5 241.85 -715.5" fill="#ffffff" fill-rule="evenodd" stroke="none"/>
    <path d="M667.0 73.85 L667.0 76.45 658.75 76.45 658.75 73.85 667.0 73.85" fill="#ffffff" fill-rule="evenodd" stroke="none"/>
  </g>
</svg>
