<?xml version="1.0" encoding="UTF-8" standalone="no"?>
<svg xmlns:ffdec="https://www.free-decompiler.com/flash" xmlns:xlink="http://www.w3.org/1999/xlink" ffdec:objectType="shape" height="43.6px" width="67.45px" xmlns="http://www.w3.org/2000/svg">
  <g transform="matrix(1.0, 0.0, 0.0, 1.0, 0.0, 89.85)">
    <path d="M40.85 -80.2 L45.85 -77.2 50.45 -74.5 55.2 -71.05 58.55 -68.25 60.55 -66.55 63.7 -63.4 67.45 -59.4 52.4 -46.25 49.4 -49.5 46.25 -52.5 42.85 -55.25 Q41.75 -56.1 40.6 -57.0 L39.35 -57.85 35.6 -60.1 31.65 -62.45 27.7 -64.2 23.65 -65.9 19.4 -67.1 12.8 -68.85 6.45 -69.65 0.0 -69.85 0.0 -89.85 8.45 -89.65 14.0 -88.8 19.65 -87.8 25.0 -86.25 30.55 -84.6 35.65 -82.4 40.85 -80.2" fill="#ffffff" fill-rule="evenodd" stroke="none"/>
  </g>
</svg>
