<?xml version="1.0" encoding="UTF-8" standalone="no"?>
<svg xmlns:ffdec="https://www.free-decompiler.com/flash" xmlns:xlink="http://www.w3.org/1999/xlink" ffdec:objectType="shape" height="46.9px" width="70.9px" xmlns="http://www.w3.org/2000/svg">
  <g transform="matrix(1.0, 0.0, 0.0, 1.0, 0.0, 89.85)">
    <path d="M59.5 -67.55 L63.5 -63.65 67.55 -59.45 70.9 -55.1 55.15 -42.95 50.85 -48.15 46.15 -52.55 39.95 -57.45 39.35 -57.85 35.6 -60.1 31.65 -62.45 27.7 -64.2 23.65 -65.9 19.4 -67.1 12.8 -68.85 6.45 -69.65 0.0 -69.85 0.0 -89.85 8.45 -89.65 14.0 -88.8 19.65 -87.8 25.0 -86.25 30.55 -84.6 35.65 -82.4 40.85 -80.2 45.85 -77.2 50.45 -74.5 55.2 -71.05 59.5 -67.55" fill="#ffffff" fill-rule="evenodd" stroke="none"/>
  </g>
</svg>
