<?xml version="1.0" encoding="UTF-8" standalone="no"?>
<svg xmlns:ffdec="https://www.free-decompiler.com/flash" xmlns:xlink="http://www.w3.org/1999/xlink" ffdec:objectType="shape" height="179.85px" width="179.5px" xmlns="http://www.w3.org/2000/svg">
  <g transform="matrix(1.0, 0.0, 0.0, 1.0, 89.5, 89.85)">
    <path d="M50.45 -74.5 L55.2 -71.05 59.5 -67.55 63.5 -63.65 67.55 -59.45 70.9 -55.1 74.4 -50.5 77.25 -45.7 80.2 -40.85 82.5 -35.5 84.65 -30.65 86.45 -25.05 87.9 -19.65 88.8 -14.15 89.55 -8.45 89.95 -2.7 90.0 2.95 89.85 2.95 89.65 8.45 88.8 14.0 87.8 19.65 86.25 25.0 84.6 30.55 82.4 35.65 80.2 40.85 77.2 45.85 74.5 50.45 71.05 55.2 67.55 59.5 63.65 63.5 59.45 67.55 55.1 70.9 50.5 74.4 45.7 77.25 40.85 80.2 35.5 82.5 30.65 84.65 25.05 86.45 19.65 87.9 14.15 88.8 8.45 89.55 2.7 89.8 2.7 89.95 -2.95 90.0 -2.95 89.85 -8.45 89.65 -14.0 88.8 -19.65 87.8 -25.0 86.25 -30.55 84.6 -35.65 82.4 -40.85 80.2 -45.85 77.2 -50.45 74.5 -55.2 71.05 -59.5 67.55 -63.5 63.65 -67.55 59.45 -70.9 55.1 -74.4 50.5 -77.25 45.7 -80.2 40.85 -82.5 35.5 -84.65 30.65 -86.45 25.05 -87.5 20.85 -88.1 18.2 -88.85 13.9 -89.5 8.4 -69.6 6.65 -69.15 11.05 -68.3 15.3 -67.2 19.6 -65.85 23.75 -64.1 27.75 -62.3 31.95 -60.15 35.7 -57.85 39.4 -55.15 42.95 -50.8 48.2 -46.15 52.55 -39.95 57.45 -35.6 60.1 -31.65 62.45 -27.7 64.2 -23.65 65.9 -19.4 67.1 -12.8 68.85 -6.45 69.65 1.2 69.95 2.25 69.9 9.1 69.5 15.35 68.25 23.7 65.85 23.7 65.9 23.75 65.85 27.75 64.1 31.95 62.3 35.7 60.15 39.4 57.85 42.95 55.15 48.2 50.8 52.55 46.15 57.45 39.95 60.1 35.6 62.45 31.65 64.2 27.7 65.9 23.65 67.1 19.4 68.85 12.8 69.65 6.45 69.9 0.3 69.85 -2.3 69.15 -9.1 68.25 -15.35 65.9 -23.7 64.1 -27.75 62.3 -31.95 60.15 -35.7 57.85 -39.4 55.15 -42.95 50.8 -48.2 46.15 -52.55 39.95 -57.45 35.6 -60.1 31.65 -62.45 27.7 -64.2 23.65 -65.9 19.4 -67.1 12.8 -68.85 6.45 -69.65 0.0 -69.85 0.0 -89.85 8.45 -89.65 14.0 -88.8 19.65 -87.8 25.0 -86.25 30.55 -84.6 35.65 -82.4 40.85 -80.2 45.85 -77.2 50.45 -74.5" fill="#ffffff" fill-rule="evenodd" stroke="none"/>
  </g>
</svg>
