<?xml version="1.0" encoding="UTF-8" standalone="no"?>
<svg xmlns:ffdec="https://www.free-decompiler.com/flash" xmlns:xlink="http://www.w3.org/1999/xlink" ffdec:objectType="shape" height="824.5px" width="975.55px" xmlns="http://www.w3.org/2000/svg">
  <g transform="matrix(1.0, 0.0, 0.0, 1.0, 488.25, 337.8)">
    <path d="M160.8 -41.8 L171.3 -40.8 Q172.3 -40.3 173.3 -40.3 174.3 -38.3 175.3 -36.8 176.3 -31.8 176.8 -26.8 L176.8 -20.8 289.3 48.2 290.3 46.2 Q292.3 45.7 294.3 44.7 L299.3 44.2 307.3 44.7 312.3 45.7 314.3 49.2 Q315.3 53.7 315.8 58.2 L315.8 64.7 459.8 151.2 480.3 170.7 486.3 189.7 487.3 195.2 487.3 199.7 483.8 200.2 Q388.8 168.7 293.8 136.7 292.3 139.2 290.3 141.2 L289.3 135.2 286.8 134.7 284.8 141.2 277.8 131.7 276.3 131.2 268.8 130.7 268.8 128.7 Q193.8 108.7 118.8 88.2 L42.25 86.2 Q40.75 166.7 38.75 246.7 L29.75 321.2 40.25 331.2 162.3 419.2 163.8 421.7 164.8 484.7 161.8 486.7 19.25 429.2 13.25 426.2 6.25 427.2 2.25 458.2 Q1.75 459.2 0.75 459.7 L-1.75 459.7 -3.25 458.2 Q-4.25 446.2 -5.75 434.2 -6.25 431.2 -7.25 427.7 L-14.75 426.7 -162.75 486.7 -165.75 484.7 -164.75 422.2 Q-163.25 420.2 -162.25 418.2 -101.75 375.2 -41.75 331.7 L-30.75 321.2 -39.75 246.7 -43.75 85.2 -119.75 87.2 Q-194.75 108.2 -269.75 128.7 L-269.75 130.7 -277.25 131.2 Q-277.75 131.7 -278.75 131.7 L-285.75 141.7 -287.75 134.7 Q-288.75 135.2 -290.25 135.7 L-291.25 141.7 -294.75 137.2 Q-389.25 169.2 -483.75 200.7 L-488.25 200.7 -487.25 190.7 -481.25 170.7 Q-470.75 161.2 -460.75 151.2 -388.75 108.2 -316.75 64.7 L-316.75 55.2 Q-315.75 52.2 -315.25 48.7 -314.25 47.2 -313.75 45.7 L-312.75 44.7 -306.25 43.7 -297.25 43.7 -292.25 44.7 Q-291.75 45.2 -291.25 45.2 L-289.75 47.7 -287.75 47.7 -286.75 46.7 Q-286.25 46.2 -286.25 45.2 -285.25 45.2 -284.75 44.7 L-280.25 43.7 Q-228.75 11.7 -177.75 -20.8 L-177.75 -27.3 Q-176.75 -31.8 -176.25 -36.8 -175.25 -38.3 -174.75 -40.3 L-168.75 -41.3 -157.75 -41.3 -153.25 -40.3 -152.75 -39.8 Q-151.75 -38.8 -151.25 -37.8 L-148.75 -37.8 Q-147.75 -38.8 -147.25 -39.8 -145.75 -40.3 -144.75 -40.8 L-46.75 -102.8 Q-44.25 -106.8 -42.25 -111.3 L-42.25 -222.8 Q-40.75 -235.8 -39.75 -249.3 L-25.75 -303.8 -18.75 -318.8 -13.75 -326.8 Q-9.25 -331.3 -5.25 -335.8 -4.25 -336.3 -3.25 -337.3 -1.75 -337.3 -0.75 -337.8 0.75 -337.3 1.75 -337.3 3.25 -336.3 4.25 -335.8 L12.25 -327.8 Q18.75 -316.3 24.75 -304.8 L38.75 -249.3 Q40.25 -235.8 41.25 -222.8 L41.25 -110.8 42.25 -108.3 45.75 -102.8 150.3 -37.8 151.3 -39.8 152.8 -40.8 160.8 -41.8" fill="#424242" fill-rule="evenodd" stroke="none"/>
    <path d="M28.25 -259.3 L28.25 245.2 -29.25 245.2 -29.25 -259.3 28.25 -259.3" fill="#6f6f6f" fill-rule="evenodd" stroke="none"/>
    <path d="M-10.75 -225.8 Q-8.25 -236.3 -6.25 -246.8 L5.25 -246.8 Q7.75 -236.3 9.75 -225.8 L9.75 245.2 -10.75 245.2 -10.75 -225.8" fill="#7e7e7e" fill-rule="evenodd" stroke="none"/>
    <path d="M-5.75 -228.3 L-26.25 -228.3 -26.25 -241.3 -5.75 -241.3 -5.75 -228.3" fill="#8b8b8b" fill-rule="evenodd" stroke="none"/>
    <path d="M24.75 -228.3 L4.75 -228.3 4.75 -241.3 24.75 -241.3 24.75 -228.3" fill="#8b8b8b" fill-rule="evenodd" stroke="none"/>
    <path d="M-5.75 -211.8 L-26.25 -211.8 -26.25 -224.8 -5.75 -224.8 -5.75 -211.8" fill="#8b8b8b" fill-rule="evenodd" stroke="none"/>
    <path d="M24.75 -211.8 L4.75 -211.8 4.75 -224.8 24.75 -224.8 24.75 -211.8" fill="#8b8b8b" fill-rule="evenodd" stroke="none"/>
    <path d="M24.75 -89.8 L4.75 -89.8 4.75 -102.3 24.75 -102.3 24.75 -89.8" fill="#8b8b8b" fill-rule="evenodd" stroke="none"/>
    <path d="M24.75 -75.8 L4.75 -75.8 4.75 -88.3 24.75 -88.3 24.75 -75.8" fill="#8b8b8b" fill-rule="evenodd" stroke="none"/>
    <path d="M24.75 -62.3 L4.75 -62.3 4.75 -74.8 24.75 -74.8 24.75 -62.3" fill="#8b8b8b" fill-rule="evenodd" stroke="none"/>
    <path d="M-5.75 -16.3 L-26.25 -16.3 -26.25 -29.3 -5.75 -29.3 -5.75 -16.3" fill="#8b8b8b" fill-rule="evenodd" stroke="none"/>
    <path d="M24.75 36.7 L4.75 36.7 4.75 23.7 24.75 23.7 24.75 36.7" fill="#8b8b8b" fill-rule="evenodd" stroke="none"/>
    <path d="M24.75 53.2 L4.75 53.2 4.75 40.2 24.75 40.2 24.75 53.2" fill="#8b8b8b" fill-rule="evenodd" stroke="none"/>
    <path d="M-5.75 53.2 L-26.25 53.2 -26.25 40.2 -5.75 40.2 -5.75 53.2" fill="#8b8b8b" fill-rule="evenodd" stroke="none"/>
    <path d="M-5.75 97.7 L-26.25 97.7 -26.25 84.7 -5.75 84.7 -5.75 97.7" fill="#8b8b8b" fill-rule="evenodd" stroke="none"/>
    <path d="M-5.75 111.2 L-26.25 111.2 -26.25 98.7 -5.75 98.7 -5.75 111.2" fill="#8b8b8b" fill-rule="evenodd" stroke="none"/>
    <path d="M-5.75 124.7 L-26.25 124.7 -26.25 111.7 -5.75 111.7 -5.75 124.7" fill="#8b8b8b" fill-rule="evenodd" stroke="none"/>
    <path d="M24.75 156.7 L4.75 156.7 4.75 144.2 24.75 144.2 24.75 156.7" fill="#8b8b8b" fill-rule="evenodd" stroke="none"/>
    <path d="M24.75 170.7 L4.75 170.7 4.75 157.7 24.75 157.7 24.75 170.7" fill="#8b8b8b" fill-rule="evenodd" stroke="none"/>
    <path d="M-5.75 223.2 L-26.25 223.2 -26.25 210.7 -5.75 210.7 -5.75 223.2" fill="#8b8b8b" fill-rule="evenodd" stroke="none"/>
    <path d="M-5.75 227.2 L-5.75 240.2 -26.25 240.2 -26.25 227.2 -5.75 227.2" fill="#8b8b8b" fill-rule="evenodd" stroke="none"/>
    <path d="M24.75 227.2 L24.75 240.2 4.75 240.2 4.75 227.2 24.75 227.2" fill="#8b8b8b" fill-rule="evenodd" stroke="none"/>
    <path d="M-5.75 -30.3 L-26.25 -30.3 -26.25 -42.8 -5.75 -42.8 -5.75 -30.3" fill="#8b8b8b" fill-rule="evenodd" stroke="none"/>
    <path d="M-26.25 -259.3 L-17.75 -259.3 -17.75 -252.8 -26.25 -252.8 -26.25 -259.3" fill="#ffffff" fill-rule="evenodd" stroke="none"/>
    <path d="M-13.75 -205.3 L-3.75 -205.3 -3.75 -199.8 -13.75 -199.8 -13.75 -205.3" fill="#ffffff" fill-rule="evenodd" stroke="none"/>
    <path d="M28.25 246.7 L30.75 247.2 Q25.25 316.2 19.25 384.7 17.25 386.7 14.75 388.2 L6.25 393.2 -0.75 394.7 -7.75 393.2 -15.75 388.2 -20.25 384.7 Q-25.75 316.2 -31.75 247.2 -30.25 247.2 -29.25 246.7 L28.25 246.7" fill="#585858" fill-rule="evenodd" stroke="none"/>
    <path d="M33.75 -259.3 L-34.75 -259.3 Q-28.25 -280.8 -22.25 -302.8 L21.75 -302.8 33.75 -259.3" fill="#959595" fill-rule="evenodd" stroke="none"/>
  </g>
</svg>
