<?xml version="1.0" encoding="UTF-8" standalone="no"?>
<svg xmlns:ffdec="https://www.free-decompiler.com/flash" xmlns:xlink="http://www.w3.org/1999/xlink" ffdec:objectType="shape" height="472.45px" width="525.95px" xmlns="http://www.w3.org/2000/svg">
  <g transform="matrix(1.0, 0.0, 0.0, 1.0, 151.95, 172.95)">
    <path d="M325.0 52.5 L374.0 52.5 374.0 171.0 326.0 171.0 326.0 299.5 167.0 299.5 167.0 270.5 106.0 270.5 106.0 279.5 -81.95 279.5 -81.95 109.5 -140.45 109.5 -140.45 -46.95 -151.95 -46.95 -151.95 -172.95 156.5 -172.95 156.5 -74.95 181.5 -74.95 181.5 34.05 182.5 34.05 182.5 25.05 192.5 25.05 192.5 34.05 224.0 34.05 224.0 55.0 282.0 55.0 282.0 37.05 306.5 37.05 306.5 43.05 325.0 43.05 325.0 52.5" fill="#424242" fill-rule="evenodd" stroke="none"/>
    <path d="M163.5 -73.95 L180.5 -73.95 180.5 35.05 223.0 35.05 223.0 57.5 163.5 57.5 163.5 11.05 148.0 11.05 148.0 -54.95 163.5 -54.95 163.5 -73.95" fill="#6f6f6f" fill-rule="evenodd" stroke="none"/>
    <path d="M102.5 -121.95 L102.5 -127.45 96.0 -127.45 96.0 -121.95 102.5 -121.95 M7.55 -169.95 L7.55 -131.45 -1.45 -131.45 -1.45 -128.45 7.55 -128.45 7.55 -121.95 14.05 -121.95 14.05 -127.45 12.05 -127.45 12.05 -165.45 14.55 -165.45 14.55 -169.95 18.05 -169.95 18.05 -170.95 42.05 -170.95 42.05 -169.95 96.0 -169.95 96.0 -165.45 102.5 -165.45 102.5 -169.95 149.0 -169.95 149.0 -57.95 139.0 -57.95 139.0 -54.95 149.0 -54.95 149.0 -38.95 152.0 -38.95 152.0 -4.95 149.0 -4.95 149.0 11.05 102.5 11.05 102.5 -54.95 112.5 -54.95 112.5 -57.95 102.5 -57.95 102.5 -80.95 96.5 -80.95 96.5 -72.95 88.0 -72.95 88.0 -69.95 93.0 -69.95 93.0 -34.95 61.0 -34.95 61.0 -69.95 66.0 -69.95 66.0 -72.95 58.0 -72.95 58.0 -77.95 -23.95 -77.95 -23.95 -80.95 -82.45 -80.95 -82.45 -48.95 -73.45 -48.45 -73.45 -27.45 -68.95 -26.45 -68.95 -67.95 -66.95 -67.95 -66.95 -65.45 -64.95 -65.45 -64.95 -64.95 -37.45 -64.95 -37.45 -65.45 -33.95 -65.45 -33.95 -64.95 -23.95 -64.95 -23.95 -67.95 -21.45 -67.95 -21.45 -64.95 7.55 -64.95 7.55 -62.95 8.55 -62.95 8.55 -62.45 27.05 -62.45 27.05 -62.95 30.05 -62.95 30.05 -62.45 42.05 -62.45 42.05 6.55 42.55 6.55 42.55 9.55 34.05 9.55 34.05 18.55 -21.45 18.55 -21.45 28.05 -68.95 28.05 -68.95 -7.95 Q-70.95 -6.95 -73.45 -6.45 L-73.45 14.55 -82.45 14.55 -82.45 41.05 -22.45 41.05 -22.45 50.5 14.55 50.5 14.55 45.55 53.0 45.55 53.0 90.5 50.0 90.5 50.0 136.0 45.55 136.0 45.55 139.0 63.5 139.0 63.5 134.0 109.0 134.0 109.0 149.5 112.0 149.5 112.0 139.0 149.0 139.0 149.0 184.5 112.0 184.5 112.0 162.5 109.0 162.5 109.0 173.5 109.5 173.5 109.5 184.5 108.0 184.5 108.0 185.0 98.0 185.0 98.0 184.5 97.0 184.5 97.0 185.0 87.0 185.0 87.0 184.5 86.0 184.5 86.0 185.0 76.0 185.0 76.0 184.5 75.0 184.5 75.0 185.0 65.0 185.0 65.0 174.0 66.0 174.0 66.0 173.0 64.5 173.0 64.5 174.0 57.5 174.0 57.5 173.0 56.5 173.0 56.5 174.0 46.5 174.0 46.5 173.0 45.55 173.0 45.55 175.0 46.5 175.0 46.5 174.5 56.5 174.5 56.5 175.0 57.5 175.0 57.5 174.5 64.5 174.5 64.5 184.0 63.0 184.0 63.0 187.0 65.0 187.0 65.0 186.0 75.0 186.0 75.0 187.0 76.0 187.0 76.0 186.0 86.0 186.0 86.0 187.0 87.0 187.0 87.0 186.0 97.0 186.0 97.0 187.0 98.0 187.0 98.0 186.0 108.0 186.0 108.0 187.0 109.0 187.0 109.0 186.0 120.0 186.0 120.0 235.5 66.0 235.5 66.0 236.5 63.5 236.5 63.5 235.5 46.5 235.5 46.5 238.5 42.55 238.5 42.55 236.5 24.05 236.5 24.05 238.5 20.05 238.5 20.05 236.5 19.55 236.5 19.55 235.5 0.05 235.5 0.05 175.0 10.55 175.0 10.55 174.5 20.55 174.5 20.55 175.0 21.55 175.0 21.55 174.5 31.55 174.5 31.55 175.0 33.05 175.0 33.05 173.0 31.55 173.0 31.55 174.0 21.55 174.0 21.55 173.0 20.55 173.0 20.55 174.0 10.55 174.0 10.55 173.0 0.05 173.0 0.05 139.0 19.55 139.0 19.55 136.0 14.55 136.0 14.55 90.5 -71.95 90.5 Q-71.95 92.0 -72.45 93.5 L-129.45 93.5 -129.45 41.05 -137.45 41.05 -137.45 -71.45 -129.45 -71.45 -129.45 -128.45 -81.45 -128.45 -81.45 -121.95 -74.95 -121.95 -74.95 -128.45 -13.95 -128.45 -13.95 -131.45 -74.95 -131.45 -74.95 -169.95 -19.95 -169.95 -19.95 -170.95 4.55 -170.95 4.55 -169.95 7.55 -169.95" fill="#959595" fill-rule="evenodd" stroke="none"/>
    <path d="M152.0 -38.95 L152.0 -4.95 149.0 -4.95 149.0 -38.95 152.0 -38.95" fill="#ffffff" fill-rule="evenodd" stroke="none"/>
    <path d="M325.0 52.5 L374.0 52.5 374.0 171.0 326.0 171.0 326.0 299.5 167.0 299.5 167.0 270.5 106.0 270.5 106.0 279.5 -81.95 279.5 -81.95 109.5 -140.45 109.5 -140.45 -46.95 -151.95 -46.95 -151.95 -172.95 156.5 -172.95 156.5 -74.95 181.5 -74.95 181.5 34.05 182.5 34.05 182.5 25.05 192.5 25.05 192.5 34.05 224.0 34.05 224.0 55.0 282.0 55.0 282.0 37.05 306.5 37.05 306.5 43.05 325.0 43.05 325.0 52.5" fill="#424242" fill-rule="evenodd" stroke="none"/>
    <path d="M163.5 -73.95 L180.5 -73.95 180.5 35.05 223.0 35.05 223.0 57.5 163.5 57.5 163.5 11.05 148.0 11.05 148.0 -54.95 163.5 -54.95 163.5 -73.95" fill="#6f6f6f" fill-rule="evenodd" stroke="none"/>
    <path d="M103.0 -120.95 L103.0 -127.95 95.5 -127.95 95.5 -120.95 103.0 -120.95 M95.5 -169.95 L95.5 -165.45 103.0 -165.45 103.0 -169.95 149.0 -169.95 149.0 -57.95 139.0 -57.95 139.0 -54.95 149.0 -54.95 149.0 -38.95 152.0 -38.95 152.0 -4.95 149.0 -4.95 149.0 11.05 102.5 11.05 102.5 -54.95 112.5 -54.95 112.5 -57.95 102.5 -57.95 102.5 -80.95 96.5 -80.95 96.5 -72.95 58.0 -72.95 58.0 -77.95 -23.95 -77.95 -23.95 -80.95 -82.45 -80.95 -82.45 -48.95 -73.45 -48.45 -73.45 -26.95 -68.95 -26.95 -68.95 -64.95 7.55 -64.95 7.55 -61.95 41.8 -61.95 41.8 7.55 32.05 7.55 32.05 18.05 -22.45 18.05 -22.45 28.05 -68.95 28.05 -68.95 -6.95 -73.45 -6.95 -73.45 14.55 -82.45 14.55 -82.45 42.05 -22.45 42.05 -22.45 50.5 14.55 50.5 14.55 45.55 53.0 45.55 53.0 90.5 50.0 90.5 50.0 136.5 46.05 136.5 46.05 139.5 64.5 139.5 65.0 135.0 109.0 135.0 109.0 150.0 112.5 150.0 112.5 139.5 149.5 140.0 149.5 184.5 112.5 184.5 112.5 163.0 109.0 163.0 109.0 184.5 66.0 184.5 66.0 173.0 45.55 173.0 45.55 175.5 63.0 175.5 63.0 187.0 109.0 187.0 109.0 188.0 120.0 188.0 120.0 235.5 46.05 235.5 46.05 237.5 20.05 237.5 20.05 235.5 0.55 235.5 0.55 175.5 33.05 175.5 33.05 173.0 0.55 173.0 0.55 139.5 19.05 139.5 19.05 136.5 14.55 136.5 14.55 90.5 -71.95 90.5 -72.45 93.5 -129.45 93.5 -129.45 41.05 -137.45 41.05 -137.45 -71.45 -129.45 -71.45 -129.45 -128.45 -81.45 -128.45 -81.45 -120.95 -74.95 -120.95 -74.95 -128.45 -13.95 -128.45 -13.95 -131.45 -74.45 -131.45 -74.45 -169.95 7.55 -169.95 7.55 -131.45 -1.45 -131.45 -1.45 -128.45 7.55 -128.45 7.55 -120.95 15.05 -120.45 15.05 -127.95 12.55 -127.95 12.55 -165.45 15.05 -165.45 15.05 -169.95 95.5 -169.95" fill="#959595" fill-rule="evenodd" stroke="none"/>
    <path d="M152.0 -38.95 L152.0 -4.95 149.0 -4.95 149.0 -38.95 152.0 -38.95" fill="#ffffff" fill-rule="evenodd" stroke="none"/>
    <path d="M52.5 235.5 L52.5 232.0 57.5 232.0 57.5 235.5 52.5 235.5" fill="#6f6f6f" fill-rule="evenodd" stroke="none"/>
    <path d="M65.0 235.5 L65.0 230.5 80.0 230.5 80.0 235.5 65.0 235.5" fill="#6f6f6f" fill-rule="evenodd" stroke="none"/>
    <path d="M120.0 211.5 L120.0 226.5 113.5 226.5 113.5 211.5 120.0 211.5" fill="#6f6f6f" fill-rule="evenodd" stroke="none"/>
    <path d="M120.0 235.5 L80.5 235.5 80.5 230.0 112.5 230.0 112.5 227.5 120.0 227.5 120.0 235.5" fill="#6f6f6f" fill-rule="evenodd" stroke="none"/>
    <path d="M106.0 224.0 L91.0 224.0 91.0 218.5 106.0 218.5 106.0 224.0" fill="#6f6f6f" fill-rule="evenodd" stroke="none"/>
    <path d="M90.0 187.0 L90.0 191.0 64.0 191.0 64.0 187.0 90.0 187.0" fill="#6f6f6f" fill-rule="evenodd" stroke="none"/>
    <path d="M109.0 174.5 L109.0 184.5 65.5 184.5 65.5 174.5 109.0 174.5" fill="#6f6f6f" fill-rule="evenodd" stroke="none"/>
    <path d="M50.0 179.0 L50.0 175.5 63.0 175.5 63.0 179.0 50.0 179.0" fill="#6f6f6f" fill-rule="evenodd" stroke="none"/>
    <path d="M0.55 198.5 L0.55 186.0 3.05 186.0 3.05 198.5 0.55 198.5" fill="#6f6f6f" fill-rule="evenodd" stroke="none"/>
    <path d="M92.5 142.0 L92.5 138.5 81.5 138.5 81.5 135.0 109.0 135.0 109.0 142.0 92.5 142.0" fill="#6f6f6f" fill-rule="evenodd" stroke="none"/>
    <path d="M-60.45 28.05 L-60.45 18.05 -22.45 18.05 -22.45 28.05 -60.45 28.05" fill="#6f6f6f" fill-rule="evenodd" stroke="none"/>
    <path d="M-22.45 18.05 L-22.45 7.55 32.05 7.55 32.05 18.05 -22.45 18.05" fill="#6f6f6f" fill-rule="evenodd" stroke="none"/>
    <path d="M32.05 -48.95 L42.05 -48.95 42.05 7.55 32.05 7.55 32.05 -48.95" fill="#6f6f6f" fill-rule="evenodd" stroke="none"/>
    <path d="M-17.95 -64.95 L-17.95 -54.95 -63.95 -54.95 -63.95 -64.95 -17.95 -64.95" fill="#6f6f6f" fill-rule="evenodd" stroke="none"/>
    <path d="M-11.95 -54.95 L-11.95 -64.95 7.55 -64.95 7.55 -54.95 -11.95 -54.95" fill="#6f6f6f" fill-rule="evenodd" stroke="none"/>
    <path d="M20.55 -61.95 L20.55 -51.95 11.05 -51.95 11.05 -61.95 20.55 -61.95" fill="#6f6f6f" fill-rule="evenodd" stroke="none"/>
    <path d="M-22.95 -130.95 L-35.45 -130.95 -35.45 -137.45 -22.95 -137.45 -22.95 -130.95" fill="#6f6f6f" fill-rule="evenodd" stroke="none"/>
    <path d="M-37.95 -131.95 L-49.95 -131.95 -49.95 -133.95 -37.95 -133.95 -37.95 -131.95" fill="#6f6f6f" fill-rule="evenodd" stroke="none"/>
    <path d="M-63.95 -159.45 L-63.95 -131.45 -74.45 -131.45 -74.45 -169.95 -22.45 -169.95 -22.45 -159.45 -63.95 -159.45" fill="#6f6f6f" fill-rule="evenodd" stroke="none"/>
    <path d="M6.55 -168.45 L6.55 -161.45 -1.45 -161.45 -1.45 -168.45 6.55 -168.45" fill="#6f6f6f" fill-rule="evenodd" stroke="none"/>
    <path d="M52.5 -167.95 L52.5 -156.45 36.55 -156.45 36.55 -167.95 52.5 -167.95" fill="#6f6f6f" fill-rule="evenodd" stroke="none"/>
    <path d="M23.55 -151.45 L23.55 -142.45 14.05 -142.45 14.05 -151.45 23.55 -151.45" fill="#6f6f6f" fill-rule="evenodd" stroke="none"/>
    <path d="M94.5 -144.45 L94.5 -134.95 85.0 -134.95 85.0 -144.45 94.5 -144.45" fill="#6f6f6f" fill-rule="evenodd" stroke="none"/>
    <path d="M148.5 -158.45 L148.5 -142.45 136.0 -142.45 136.0 -158.45 148.5 -158.45" fill="#6f6f6f" fill-rule="evenodd" stroke="none"/>
    <path d="M95.5 -132.45 L93.5 -121.45 82.0 -123.45 84.0 -134.45 95.5 -132.45" fill="#6f6f6f" fill-rule="evenodd" stroke="none"/>
    <path d="M118.0 -143.95 L130.0 -144.95 Q131.0 -134.95 131.5 -125.45 L120.0 -124.45 118.0 -143.95" fill="#6f6f6f" fill-rule="evenodd" stroke="none"/>
    <path d="M147.5 -141.45 L148.5 -129.95 132.5 -128.45 131.5 -140.45 147.5 -141.45" fill="#6f6f6f" fill-rule="evenodd" stroke="none"/>
    <path d="M25.55 -129.95 L14.55 -128.95 13.55 -140.45 24.55 -141.45 25.55 -129.95" fill="#6f6f6f" fill-rule="evenodd" stroke="none"/>
    <path d="M74.0 -156.45 L54.5 -154.45 53.5 -165.45 73.0 -167.45 74.0 -156.45" fill="#6f6f6f" fill-rule="evenodd" stroke="none"/>
    <path d="M35.55 -156.95 L19.55 -155.45 Q19.05 -161.45 18.05 -167.45 L34.55 -168.95 35.55 -156.95" fill="#6f6f6f" fill-rule="evenodd" stroke="none"/>
    <path d="M-2.45 -169.95 L-2.45 -165.95 -13.95 -165.95 -13.95 -169.95 -2.45 -169.95" fill="#6f6f6f" fill-rule="evenodd" stroke="none"/>
    <path d="M-15.45 -167.45 Q-15.45 -164.95 -15.95 -162.45 L-21.45 -162.95 Q-20.95 -165.45 -20.95 -167.95 L-15.45 -167.45" fill="#6f6f6f" fill-rule="evenodd" stroke="none"/>
    <path d="M149.5 142.0 L149.5 181.5 141.5 181.5 141.5 142.0 149.5 142.0" fill="#6f6f6f" fill-rule="evenodd" stroke="none"/>
  </g>
</svg>
