<?xml version="1.0" encoding="UTF-8" standalone="no"?>
<svg xmlns:ffdec="https://www.free-decompiler.com/flash" xmlns:xlink="http://www.w3.org/1999/xlink" ffdec:objectType="shape" height="923.4px" width="800.0px" xmlns="http://www.w3.org/2000/svg">
  <g transform="matrix(1.0, 0.0, 0.0, 1.0, -240.0, -187.05)">
    <path d="M893.9 726.05 Q894.35 725.65 894.85 725.4 L896.0 725.15 897.15 725.4 Q897.7 725.65 898.1 726.05 L898.75 727.0 899.0 728.1 Q899.0 729.3 898.15 730.25 897.25 731.15 896.0 731.15 894.75 731.15 893.9 730.25 893.0 729.3 893.0 728.1 893.0 727.5 893.25 727.0 L893.9 726.05" fill="#1c75bc" fill-rule="evenodd" stroke="none"/>
    <path d="M897.15 754.25 Q897.7 754.5 898.1 754.9 L898.75 755.85 899.0 756.95 Q899.0 758.15 898.15 759.1 897.25 760.0 896.0 760.0 894.75 760.0 893.9 759.1 893.0 758.15 893.0 756.95 893.0 756.35 893.25 755.85 L893.9 754.9 Q894.35 754.5 894.85 754.25 L896.0 754.0 897.15 754.25" fill="#1c75bc" fill-rule="evenodd" stroke="none"/>
    <path d="M896.0 797.8 L897.15 798.05 Q897.7 798.3 898.1 798.7 L898.75 799.65 899.0 800.75 Q899.0 801.95 898.15 802.9 897.25 803.8 896.0 803.8 894.75 803.8 893.9 802.9 893.0 801.95 893.0 800.75 893.0 800.15 893.25 799.65 L893.9 798.7 Q894.35 798.3 894.85 798.05 L896.0 797.8" fill="#1c75bc" fill-rule="evenodd" stroke="none"/>
    <path d="M897.15 841.25 Q897.7 841.5 898.1 841.9 L898.75 842.85 899.0 843.95 Q899.0 845.15 898.15 846.1 897.25 847.0 896.0 847.0 894.75 847.0 893.9 846.1 893.0 845.15 893.0 843.95 893.0 843.35 893.25 842.85 L893.9 841.9 Q894.35 841.5 894.85 841.25 L896.0 841.0 897.15 841.25" fill="#1c75bc" fill-rule="evenodd" stroke="none"/>
    <path d="M896.0 884.85 L897.15 885.1 Q897.7 885.35 898.1 885.75 L898.75 886.7 899.0 887.8 Q899.0 889.0 898.15 889.95 897.25 890.85 896.0 890.85 894.75 890.85 893.9 889.95 893.0 889.0 893.0 887.8 893.0 887.2 893.25 886.7 L893.9 885.75 Q894.35 885.35 894.85 885.1 L896.0 884.85" fill="#1c75bc" fill-rule="evenodd" stroke="none"/>
    <path d="M899.0 932.2 Q899.0 933.4 898.15 934.35 897.25 935.25 896.0 935.25 894.75 935.25 893.9 934.35 893.0 933.4 893.0 932.2 893.0 931.6 893.25 931.1 L893.9 930.15 Q894.35 929.75 894.85 929.5 L896.0 929.25 897.15 929.5 Q897.7 929.75 898.1 930.15 L898.75 931.1 899.0 932.2" fill="#1c75bc" fill-rule="evenodd" stroke="none"/>
    <path d="M893.0 974.2 Q893.0 973.6 893.25 973.1 L893.9 972.15 Q894.35 971.75 894.85 971.5 L896.0 971.25 897.15 971.5 Q897.7 971.75 898.1 972.15 L898.75 973.1 899.0 974.2 Q899.0 975.4 898.15 976.35 897.25 977.25 896.0 977.25 894.75 977.25 893.9 976.35 893.0 975.4 893.0 974.2" fill="#1c75bc" fill-rule="evenodd" stroke="none"/>
    <path d="M897.15 1002.1 Q897.7 1002.35 898.1 1002.75 L898.75 1003.7 899.0 1004.8 Q899.0 1006.0 898.15 1006.95 897.25 1007.85 896.0 1007.85 894.75 1007.85 893.9 1006.95 893.0 1006.0 893.0 1004.8 893.0 1004.2 893.25 1003.7 L893.9 1002.75 Q894.35 1002.35 894.85 1002.1 L896.0 1001.85 897.15 1002.1" fill="#1c75bc" fill-rule="evenodd" stroke="none"/>
    <path d="M898.1 1032.75 L898.75 1033.7 899.0 1034.8 Q899.0 1036.0 898.15 1036.95 897.25 1037.85 896.0 1037.85 894.75 1037.85 893.9 1036.95 893.0 1036.0 893.0 1034.8 893.0 1034.2 893.25 1033.7 L893.9 1032.75 Q894.35 1032.35 894.85 1032.1 L896.0 1031.85 897.15 1032.1 Q897.7 1032.35 898.1 1032.75" fill="#1c75bc" fill-rule="evenodd" stroke="none"/>
    <path d="M898.1 1062.75 L898.75 1063.7 899.0 1064.8 Q899.0 1066.0 898.15 1066.95 897.25 1067.85 896.0 1067.85 894.75 1067.85 893.9 1066.95 893.0 1066.0 893.0 1064.8 893.0 1064.2 893.25 1063.7 L893.9 1062.75 Q894.35 1062.35 894.85 1062.1 L896.0 1061.85 897.15 1062.1 Q897.7 1062.35 898.1 1062.75" fill="#1c75bc" fill-rule="evenodd" stroke="none"/>
    <path d="M898.1 1105.35 L898.75 1106.3 899.0 1107.4 Q899.0 1108.6 898.15 1109.55 897.25 1110.45 896.0 1110.45 894.75 1110.45 893.9 1109.55 893.0 1108.6 893.0 1107.4 893.0 1106.8 893.25 1106.3 L893.9 1105.35 Q894.35 1104.95 894.85 1104.7 L896.0 1104.45 897.15 1104.7 Q897.7 1104.95 898.1 1105.35" fill="#1c75bc" fill-rule="evenodd" stroke="none"/>
    <path d="M776.0 187.05 L776.0 223.05 772.0 223.05 772.0 187.05 776.0 187.05 M508.0 187.05 L508.0 223.05 504.0 223.05 504.0 187.05 508.0 187.05" fill="#1c75bc" fill-rule="evenodd" stroke="none"/>
    <path d="M1040.0 191.05 L240.0 191.05 240.0 187.05 1040.0 187.05 1040.0 191.05" fill="#1c75bc" fill-rule="evenodd" stroke="none"/>
  </g>
</svg>
