<?xml version="1.0" encoding="UTF-8" standalone="no"?>
<svg xmlns:ffdec="https://www.free-decompiler.com/flash" xmlns:xlink="http://www.w3.org/1999/xlink" ffdec:objectType="shape" height="14.0px" width="14.0px" xmlns="http://www.w3.org/2000/svg">
  <g transform="matrix(1.0, 0.0, 0.0, 1.0, -4.5, -4.5)">
    <path d="M6.9 16.1 Q5.0 14.2 5.0 11.5 5.0 8.8 6.9 6.9 8.8 5.0 11.5 5.0 14.2 5.0 16.1 6.9 18.0 8.8 18.0 11.5 18.0 14.2 16.1 16.1 14.2 18.0 11.5 18.0 8.8 18.0 6.9 16.1" fill="#ffff00" fill-rule="evenodd" stroke="none"/>
    <path d="M6.9 16.1 Q5.0 14.2 5.0 11.5 5.0 8.8 6.9 6.9 8.8 5.0 11.5 5.0 14.2 5.0 16.1 6.9 18.0 8.8 18.0 11.5 18.0 14.2 16.1 16.1 14.2 18.0 11.5 18.0 8.8 18.0 6.9 16.1 Z" fill="none" stroke="#000000" stroke-linecap="round" stroke-linejoin="round" stroke-width="1.0"/>
  </g>
</svg>
