<?xml version="1.0" encoding="UTF-8" standalone="no"?>
<svg xmlns:ffdec="https://www.free-decompiler.com/flash" xmlns:xlink="http://www.w3.org/1999/xlink" ffdec:objectType="shape" height="616.0px" width="511.5px" xmlns="http://www.w3.org/2000/svg">
  <g transform="matrix(1.0, 0.0, 0.0, 1.0, 391.0, 554.0)">
    <path d="M119.5 -173.0 L117.5 -158.0 Q112.5 -134.0 107.0 -110.0 104.5 -100.5 101.5 -91.0 L91.5 -67.5 78.5 -45.5 53.5 -12.5 44.0 -2.5 Q30.0 8.0 16.0 18.0 L-24.5 41.0 -37.0 46.0 Q-54.5 51.5 -72.5 56.5 L-117.5 62.0 -230.0 62.0 -230.0 9.5 -391.0 9.5 -390.0 -319.0 -372.0 -401.0 -349.0 -447.0 -322.0 -480.5 Q-313.0 -488.5 -304.5 -497.0 L-266.5 -523.0 -235.0 -538.0 Q-215.0 -543.0 -195.0 -548.5 L-154.0 -553.5 Q-97.5 -553.5 -41.0 -554.0 L-41.0 -501.5 120.5 -501.5 120.5 -182.5 119.5 -173.0" fill="#424242" fill-rule="evenodd" stroke="none"/>
    <path d="M-71.0 -72.5 L-64.0 -72.5 -64.0 -80.0 -71.0 -80.0 -71.0 -72.5 M49.0 -272.5 L54.0 -272.5 54.0 -217.5 39.5 -217.5 39.5 -215.5 51.5 -215.5 50.0 -167.5 43.0 -129.0 45.5 -128.5 53.5 -167.5 53.5 -179.0 58.5 -179.0 58.5 -180.0 75.5 -180.0 75.5 -183.5 58.5 -183.5 58.5 -185.0 53.5 -185.5 54.0 -215.5 58.5 -215.5 58.5 -225.5 118.0 -225.5 118.0 -186.0 105.5 -185.0 105.5 -183.5 93.5 -183.5 93.5 -180.0 105.5 -180.0 105.5 -178.0 117.0 -176.5 115.5 -161.0 105.0 -111.0 99.0 -92.0 89.5 -94.0 88.5 -92.5 45.0 -111.5 45.5 -112.5 41.2 -114.2 41.8 -115.8 39.0 -117.0 35.5 -109.0 38.5 -107.5 39.5 -109.0 43.5 -107.0 44.0 -108.5 87.5 -89.5 86.5 -87.5 95.0 -83.0 77.0 -48.0 49.5 -13.5 41.5 -19.5 40.0 -18.5 6.5 -52.0 7.5 -53.0 4.0 -56.0 14.5 -68.5 32.5 -95.5 30.0 -97.0 13.0 -72.0 2.0 -58.5 -27.4 -35.6 -41.4 -27.1 -40.0 -24.5 -25.5 -33.0 0.0 -52.5 3.0 -48.5 4.5 -49.5 37.5 -16.5 36.5 -14.5 42.5 -6.5 12.5 17.0 -26.5 39.5 -31.5 31.0 -33.5 31.5 -52.5 -12.0 -51.0 -12.5 -55.0 -20.0 -61.5 -17.0 -60.5 -15.0 -58.5 -15.5 -56.5 -10.0 -55.0 -10.5 -36.5 32.5 -38.0 33.5 -36.0 43.0 -73.0 53.5 -117.0 59.0 -119.0 49.5 -121.0 49.5 -121.5 2.5 -120.0 2.5 -120.0 -2.5 -72.5 -11.0 -73.0 -13.0 -120.0 -5.0 -153.5 -5.0 -153.5 -2.5 -126.5 -2.5 -126.0 2.6 -124.5 2.5 -124.0 49.5 -126.0 49.5 -127.0 60.0 -167.5 60.0 -167.5 -2.5 -166.0 -2.5 -166.0 -5.0 -171.5 -5.0 -171.5 -2.5 -170.0 -2.5 -170.0 60.0 -210.5 60.0 -212.0 49.5 -220.0 49.5 -220.0 3.0 -211.5 3.0 -212.0 -2.5 -184.0 -2.5 -184.0 -5.0 -221.0 -5.0 -221.0 -27.0 -223.2 -27.0 -223.2 -2.7 -320.0 -2.5 -320.0 -72.5 -316.5 -72.5 -316.5 -79.5 -320.0 -79.5 -320.0 -142.5 -316.5 -142.5 -316.5 -164.5 -323.0 -164.5 -323.0 -242.5 -316.5 -242.5 -316.5 -246.0 -278.5 -246.0 -278.5 -206.0 -275.5 -206.0 -275.5 -191.0 -278.5 -191.0 -278.5 -176.0 -275.5 -176.0 -275.5 -160.5 -278.5 -160.5 -278.5 -57.5 -223.2 -57.6 -223.2 -40.1 -221.0 -40.0 -221.0 -57.5 -136.5 -57.5 -136.5 -59.0 -199.0 -59.0 -199.0 -96.5 -122.5 -96.5 -122.5 -59.0 -123.5 -59.0 -123.5 -57.5 -120.0 -57.5 -120.0 -96.5 -54.0 -96.5 -54.0 -113.5 -21.5 -113.5 -21.5 -162.0 -23.5 -162.0 -23.5 -178.0 -21.5 -178.0 -21.5 -179.0 -1.0 -179.0 -1.0 -183.0 -3.5 -183.0 -3.5 -181.0 -53.5 -181.0 -53.5 -215.5 -3.5 -215.5 -3.5 -193.0 -1.0 -193.0 -1.0 -215.5 13.0 -215.5 13.0 -217.5 -1.5 -217.5 -1.5 -283.0 -4.0 -283.0 -4.0 -297.5 -1.5 -297.5 -1.5 -313.0 -4.0 -313.0 -4.0 -327.5 -1.5 -327.5 -1.5 -335.5 49.0 -335.5 49.0 -272.5" fill="#959595" fill-rule="evenodd" stroke="none"/>
    <path d="M-21.0 -119.95 L-21.0 -149.95 -11.5 -149.95 -11.5 -119.95 -21.0 -119.95" fill="#6f6f6f" fill-rule="evenodd" stroke="none"/>
    <path d="M75.5 -122.45 L65.0 -124.45 66.0 -133.45 70.0 -151.95 73.0 -159.95 Q78.5 -158.45 83.5 -157.45 83.5 -153.45 83.0 -149.45 81.0 -139.45 78.5 -129.95 L75.5 -122.45" fill="#6f6f6f" fill-rule="evenodd" stroke="none"/>
    <path d="M93.5 -183.95 L93.5 -174.95 75.0 -174.95 75.0 -183.95 93.5 -183.95" fill="#6f6f6f" fill-rule="evenodd" stroke="none"/>
    <path d="M-39.0 -112.45 L-39.0 -106.95 -51.0 -106.95 -51.0 -112.45 -39.0 -112.45" fill="#6f6f6f" fill-rule="evenodd" stroke="none"/>
    <path d="M-72.5 -89.95 L-84.0 -89.95 -84.0 -95.95 -72.5 -95.95 -72.5 -89.95" fill="#6f6f6f" fill-rule="evenodd" stroke="none"/>
    <path d="M-94.0 -73.45 L-108.5 -73.45 -108.5 -79.45 -94.0 -79.45 -94.0 -73.45" fill="#6f6f6f" fill-rule="evenodd" stroke="none"/>
    <path d="M-120.0 -58.95 L-120.0 -64.95 -117.0 -64.95 -117.0 -58.95 -120.0 -58.95" fill="#6f6f6f" fill-rule="evenodd" stroke="none"/>
    <path d="M88.0 -93.95 Q86.0 -94.95 83.5 -95.95 L85.5 -100.45 90.0 -98.45 88.0 -93.95" fill="#6f6f6f" fill-rule="evenodd" stroke="none"/>
    <path d="M104.5 -174.95 Q102.0 -175.45 99.0 -176.45 L100.0 -179.95 105.5 -178.45 104.5 -174.95" fill="#6f6f6f" fill-rule="evenodd" stroke="none"/>
    <path d="M58.0 -108.45 Q57.5 -108.45 57.0 -108.95 L56.0 -109.95 Q56.5 -110.45 56.5 -111.45 57.0 -111.45 57.5 -111.95 58.5 -111.45 59.0 -111.45 L59.5 -110.45 59.5 -108.95 Q59.0 -108.45 58.0 -108.45" fill="#6f6f6f" fill-rule="evenodd" stroke="none"/>
    <path d="M93.0 -98.95 Q92.5 -98.95 91.5 -99.45 L91.0 -100.45 91.0 -101.95 Q91.5 -101.95 92.0 -102.45 L93.5 -102.45 94.0 -100.95 94.0 -99.95 93.0 -98.95" fill="#6f6f6f" fill-rule="evenodd" stroke="none"/>
    <path d="M107.5 -167.95 Q106.5 -167.95 105.0 -168.45 L104.0 -170.45 Q104.5 -170.95 104.5 -171.95 L106.5 -172.95 Q107.5 -172.45 108.5 -172.45 L109.5 -170.95 Q109.5 -169.95 109.0 -168.95 L107.5 -167.95" fill="#6f6f6f" fill-rule="evenodd" stroke="none"/>
    <path d="M117.0 -176.45 Q116.5 -168.45 115.5 -160.95 110.5 -135.95 105.0 -110.95 L99.0 -91.95 94.0 -92.95 100.0 -112.45 Q106.5 -144.45 112.5 -176.95 L117.0 -176.45" fill="#6f6f6f" fill-rule="evenodd" stroke="none"/>
  </g>
</svg>
