<?xml version="1.0" encoding="UTF-8" standalone="no"?>
<svg xmlns:ffdec="https://www.free-decompiler.com/flash" xmlns:xlink="http://www.w3.org/1999/xlink" ffdec:objectType="morphshape" height="325.6px" width="48.7px" xmlns="http://www.w3.org/2000/svg">
  <g transform="matrix(1.0, 0.0, 0.0, 1.0, -923.35, -152.95)">
    <path d="M923.35 312.7 L923.35 318.85 923.5 318.85 923.5 319.25 923.5 320.75 972.05 320.75 972.05 318.8 971.9 318.8 971.9 312.7 972.05 312.7 972.05 310.75 923.5 310.75 923.5 311.15 923.5 312.7 923.35 312.7" fill="#ff0000" fill-opacity="0.49803922" fill-rule="evenodd" stroke="none">
      <animate attributeName="fill" dur="2s" repeatCount="indefinite" values="#ff0000;#ff0001"/>
      <animate attributeName="fill-opacity" dur="2s" repeatCount="indefinite" values="0.49803922;0.49803922"/>
      <animate attributeName="d" dur="2s" repeatCount="indefinite" values="M923.35 312.7 L923.35 318.85 923.5 318.85 923.5 319.25 923.5 320.75 972.05 320.75 972.05 318.8 971.9 318.8 971.9 312.7 972.05 312.7 972.05 310.75 923.5 310.75 923.5 311.15 923.5 312.7 923.35 312.7;M923.35 216.05 L923.35 416.05 923.5 416.05 923.5 429.8 923.5 478.55 972.05 478.55 972.05 415.4 971.9 415.4 971.9 216.05 972.05 216.05 972.05 152.95 923.5 152.95 923.5 166.45 923.5 216.05 923.35 216.05"/>
    </path>
    <path d="M923.35 312.7 L923.5 312.7 923.5 311.15 923.5 310.75 972.05 310.75 972.05 312.7 971.9 312.7 971.9 318.8 972.05 318.8 972.05 320.75 923.5 320.75 923.5 319.25 923.5 318.85 923.35 318.85 923.35 312.7 Z" fill="none" stroke="#000000" stroke-linecap="round" stroke-linejoin="round" stroke-opacity="0.0" stroke-width="0.0">
      <animate attributeName="stroke" dur="2s" repeatCount="indefinite" values="#000000;#000001"/>
      <animate attributeName="stroke-width" dur="2s" repeatCount="indefinite" values="0.0;0.0"/>
      <animate attributeName="fill-opacity" dur="2s" repeatCount="indefinite" values="0.0;0.0"/>
      <animate attributeName="d" dur="2s" repeatCount="indefinite" values="M923.35 312.7 L923.5 312.7 923.5 311.15 923.5 310.75 972.05 310.75 972.05 312.7 971.9 312.7 971.9 318.8 972.05 318.8 972.05 320.75 923.5 320.75 923.5 319.25 923.5 318.85 923.35 318.85 923.35 312.7 Z;M923.35 216.05 L923.5 216.05 923.5 166.45 923.5 152.95 972.05 152.95 972.05 216.05 971.9 216.05 971.9 415.4 972.05 415.4 972.05 478.55 923.5 478.55 923.5 429.8 923.5 416.05 923.35 416.05 923.35 216.05 Z"/>
    </path>
  </g>
</svg>
