<?xml version="1.0" encoding="UTF-8" standalone="no"?>
<svg xmlns:ffdec="https://www.free-decompiler.com/flash" xmlns:xlink="http://www.w3.org/1999/xlink" ffdec:objectType="morphshape" height="325.6px" width="48.55px" xmlns="http://www.w3.org/2000/svg">
  <g transform="matrix(1.0, 0.0, 0.0, 1.0, -307.85, -152.95)">
    <path d="M307.85 310.75 L307.85 311.2 307.85 311.3 307.85 312.7 307.85 312.8 307.85 314.1 307.85 318.85 307.85 318.85 307.85 319.25 307.85 320.75 356.4 320.75 356.4 310.75 307.85 310.75" fill="#ff0000" fill-opacity="0.49803922" fill-rule="evenodd" stroke="none">
      <animate attributeName="fill" dur="2s" repeatCount="indefinite" values="#ff0000;#ff0001"/>
      <animate attributeName="fill-opacity" dur="2s" repeatCount="indefinite" values="0.49803922;0.49803922"/>
      <animate attributeName="d" dur="2s" repeatCount="indefinite" values="M307.85 310.75 L307.85 311.2 307.85 311.3 307.85 312.7 307.85 312.8 307.85 314.1 307.85 318.85 307.85 318.85 307.85 319.25 307.85 320.75 356.4 320.75 356.4 310.75 307.85 310.75;M307.85 152.95 L307.85 164.85 307.85 166.45 307.85 214.45 307.85 216.05 307.85 260.95 307.85 415.4 307.85 416.05 307.85 429.8 307.85 478.55 356.4 478.55 356.4 152.95 307.85 152.95"/>
    </path>
    <path d="M307.85 310.75 L356.4 310.75 356.4 320.75 307.85 320.75 307.85 319.25 307.85 318.85 307.85 318.85 307.85 314.1 307.85 312.8 307.85 312.7 307.85 311.3 307.85 311.2 307.85 310.75 Z" fill="none" stroke="#000000" stroke-linecap="round" stroke-linejoin="round" stroke-opacity="0.0" stroke-width="0.0">
      <animate attributeName="stroke" dur="2s" repeatCount="indefinite" values="#000000;#000001"/>
      <animate attributeName="stroke-width" dur="2s" repeatCount="indefinite" values="0.0;0.0"/>
      <animate attributeName="fill-opacity" dur="2s" repeatCount="indefinite" values="0.0;0.0"/>
      <animate attributeName="d" dur="2s" repeatCount="indefinite" values="M307.85 310.75 L356.4 310.75 356.4 320.75 307.85 320.75 307.85 319.25 307.85 318.85 307.85 318.85 307.85 314.1 307.85 312.8 307.85 312.7 307.85 311.3 307.85 311.2 307.85 310.75 Z;M307.85 152.95 L356.4 152.95 356.4 478.55 307.85 478.55 307.85 429.8 307.85 416.05 307.85 415.4 307.85 260.95 307.85 216.05 307.85 214.45 307.85 166.45 307.85 164.85 307.85 152.95 Z"/>
    </path>
  </g>
</svg>
