<?xml version="1.0" encoding="UTF-8" standalone="no"?>
<svg xmlns:ffdec="https://www.free-decompiler.com/flash" xmlns:xlink="http://www.w3.org/1999/xlink" ffdec:objectType="morphshape" height="508.95px" width="555.1px" xmlns="http://www.w3.org/2000/svg">
  <g transform="matrix(1.0, 0.0, 0.0, 1.0, -361.4, -60.0)">
    <path d="M625.05 309.8 L625.05 309.85 625.05 313.95 625.05 313.95 625.05 319.05 625.35 319.55 627.9 323.95 630.6 325.1 635.2 327.1 638.45 327.1 643.55 327.2 645.45 326.25 650.0 323.95 650.3 323.45 650.3 323.45 652.8 319.05 652.8 314.9 652.8 309.8 652.5 309.3 649.95 304.95 647.55 303.85 642.95 301.75 640.05 301.75 634.9 301.75 632.6 302.85 627.9 304.95 627.65 305.35 625.05 309.8 625.05 309.8" fill="#669900" fill-opacity="0.49803922" fill-rule="evenodd" stroke="none">
      <animate attributeName="fill" dur="2s" repeatCount="indefinite" values="#669900;#669901"/>
      <animate attributeName="fill-opacity" dur="2s" repeatCount="indefinite" values="0.49803922;0.49803922"/>
      <animate attributeName="d" dur="2s" repeatCount="indefinite" values="M625.05 309.8 L625.05 309.85 625.05 313.95 625.05 313.95 625.05 319.05 625.35 319.55 627.9 323.95 630.6 325.1 635.2 327.1 638.45 327.1 643.55 327.2 645.45 326.25 650.0 323.95 650.3 323.45 650.3 323.45 652.8 319.05 652.8 314.9 652.8 309.8 652.5 309.3 649.95 304.95 647.55 303.85 642.95 301.75 640.05 301.75 634.9 301.75 632.6 302.85 627.9 304.95 627.65 305.35 625.05 309.8 625.05 309.8;M361.4 324.0 L361.4 324.0 361.4 405.9 361.5 406.1 412.85 494.3 418.35 503.8 511.4 544.3 564.6 567.45 665.95 568.35 730.95 568.95 822.4 522.75 859.9 503.8 910.8 415.6 916.3 406.1 916.5 406.1 916.5 304.5 916.5 221.5 865.05 133.1 859.55 123.6 766.35 81.4 718.95 60.0 616.6 60.0 558.6 60.0 464.5 102.6 418.0 123.6 366.5 212.8 361.5 221.5 361.5 324.0 361.4 324.0"/>
    </path>
    <path d="M625.05 309.8 L625.05 309.8 627.65 305.35 627.9 304.95 632.6 302.85 634.9 301.75 640.05 301.75 642.95 301.75 647.55 303.85 649.95 304.95 652.5 309.3 652.8 309.8 652.8 314.9 652.8 319.05 650.3 323.45 650.3 323.45 650.0 323.95 645.45 326.25 643.55 327.2 638.45 327.1 635.2 327.1 630.6 325.1 627.9 323.95 625.35 319.55 625.05 319.05 625.05 313.95 625.05 313.95 625.05 309.85 625.05 309.8 Z" fill="none" stroke="#000000" stroke-linecap="round" stroke-linejoin="round" stroke-opacity="0.0" stroke-width="0.0">
      <animate attributeName="stroke" dur="2s" repeatCount="indefinite" values="#000000;#000001"/>
      <animate attributeName="stroke-width" dur="2s" repeatCount="indefinite" values="0.0;0.0"/>
      <animate attributeName="fill-opacity" dur="2s" repeatCount="indefinite" values="0.0;0.0"/>
      <animate attributeName="d" dur="2s" repeatCount="indefinite" values="M625.05 309.8 L625.05 309.8 627.65 305.35 627.9 304.95 632.6 302.85 634.9 301.75 640.05 301.75 642.95 301.75 647.55 303.85 649.95 304.95 652.5 309.3 652.8 309.8 652.8 314.9 652.8 319.05 650.3 323.45 650.3 323.45 650.0 323.95 645.45 326.25 643.55 327.2 638.45 327.1 635.2 327.1 630.6 325.1 627.9 323.95 625.35 319.55 625.05 319.05 625.05 313.95 625.05 313.95 625.05 309.85 625.05 309.8 Z;M361.4 324.0 L361.5 324.0 361.5 221.5 366.5 212.8 418.0 123.6 464.5 102.6 558.6 60.0 616.6 60.0 718.95 60.0 766.35 81.4 859.55 123.6 865.05 133.1 916.5 221.5 916.5 304.5 916.5 406.1 916.3 406.1 910.8 415.6 859.9 503.8 822.4 522.75 730.95 568.95 665.95 568.35 564.6 567.45 511.4 544.3 418.35 503.8 412.85 494.3 361.5 406.1 361.4 405.9 361.4 324.0 361.4 324.0 Z"/>
    </path>
  </g>
</svg>
