<?xml version="1.0" encoding="UTF-8" standalone="no"?>
<svg xmlns:ffdec="https://www.free-decompiler.com/flash" xmlns:xlink="http://www.w3.org/1999/xlink" ffdec:objectType="shape" height="676.0px" width="604.95px" xmlns="http://www.w3.org/2000/svg">
  <g transform="matrix(1.0, 0.0, 0.0, 1.0, 173.45, 325.7)">
    <path d="M431.5 -325.7 L431.5 36.25 171.25 36.25 171.25 350.3 -173.45 350.3 -173.45 -325.7 431.5 -325.7" fill="#434343" fill-rule="evenodd" stroke="none"/>
    <path d="M378.75 -267.7 L378.75 -241.0 419.1 -241.0 419.1 -49.45 378.75 -49.45 378.75 15.75 155.25 15.75 155.25 -49.45 114.7 -49.45 114.7 84.55 153.25 84.55 153.25 275.35 114.7 275.35 114.7 300.0 110.0 300.0 110.0 334.0 -80.65 334.0 -80.65 300.0 -145.65 300.0 -145.65 275.35 -155.0 275.35 -155.0 84.55 -145.65 84.55 -145.65 -49.45 -157.0 -49.45 -157.0 -241.0 -146.0 -241.0 -146.0 -267.0 -80.65 -267.0 -80.65 -308.0 111.35 -308.0 111.35 -267.0 114.5 -267.0 114.5 -241.0 155.25 -241.0 155.25 -267.7 162.75 -267.7 162.75 -309.7 353.25 -309.7 353.25 -267.7 378.75 -267.7" fill="#969696" fill-rule="evenodd" stroke="none"/>
    <path d="M-173.45 -196.25 L-154.7 -196.25 -154.7 -91.3 -173.45 -91.3 -173.45 -196.25" fill="#ffffff" fill-rule="evenodd" stroke="none"/>
    <path d="M308.75 -325.7 L308.75 -309.7 204.05 -309.7 204.05 -325.7 308.75 -325.7" fill="#ffffff" fill-rule="evenodd" stroke="none"/>
    <path d="M341.5 15.75 L169.5 15.75 169.5 -64.45 341.5 -64.45 341.5 15.75" fill="#707070" fill-rule="evenodd" stroke="none"/>
    <path d="M-74.5 -304.45 L97.5 -304.45 97.5 -224.25 -74.5 -224.25 -74.5 -304.45" fill="#707070" fill-rule="evenodd" stroke="none"/>
    <path d="M153.25 100.0 L153.25 256.0 103.0 256.0 103.0 100.0 153.25 100.0" fill="#707070" fill-rule="evenodd" stroke="none"/>
    <path d="M-100.0 102.0 L-100.0 246.0 -154.0 246.0 -154.0 102.0 -100.0 102.0" fill="#707070" fill-rule="evenodd" stroke="none"/>
  </g>
</svg>
