<?xml version="1.0" encoding="UTF-8" standalone="no"?>
<svg xmlns:ffdec="https://www.free-decompiler.com/flash" xmlns:xlink="http://www.w3.org/1999/xlink" ffdec:objectType="shape" height="120.0px" width="590.0px" xmlns="http://www.w3.org/2000/svg">
  <g transform="matrix(1.0, 0.0, 0.0, 1.0, 0.0, 0.0)">
    <path d="M580.0 26.25 Q579.85 19.65 574.3 14.85 568.85 10.2 561.0 10.0 L29.0 10.0 Q21.2 10.15 15.7 14.85 10.2 19.6 10.0 26.25 L10.0 93.8 Q10.2 100.4 15.7 105.1 21.2 109.85 29.0 110.0 L561.0 110.0 Q568.85 109.8 574.3 105.1 579.85 100.4 580.0 93.75 L580.0 26.25 M590.0 19.5 L590.0 100.5 Q589.85 108.45 584.15 114.15 578.6 119.7 570.5 120.0 L19.5 120.0 Q11.5 119.8 5.85 114.15 0.2 108.5 0.0 100.55 L0.0 19.5 Q0.2 11.5 5.85 5.85 11.5 0.2 19.5 0.0 L570.5 0.0 Q578.6 0.3 584.15 5.85 589.85 11.55 590.0 19.5" fill="#466787" fill-rule="evenodd" stroke="none"/>
  </g>
</svg>
