<?xml version="1.0" encoding="UTF-8" standalone="no"?>
<svg xmlns:ffdec="https://www.free-decompiler.com/flash" xmlns:xlink="http://www.w3.org/1999/xlink" ffdec:objectType="shape" height="1279.95px" width="998.05px" xmlns="http://www.w3.org/2000/svg">
  <g transform="matrix(1.0, 0.0, 0.0, 1.0, -147.0, 0.05)">
    <path d="M1070.0 -0.05 L1145.05 -0.05 1143.05 1279.9 1068.0 1279.9 1070.0 266.0 304.6 266.0 304.6 266.05 224.5 266.05 222.0 1279.9 147.0 1279.9 149.0 -0.05 1068.8 0.0 1070.0 0.0 1070.0 -0.05" fill="#93b1d7" fill-rule="evenodd" stroke="none"/>
    <path d="M1068.8 0.0 L1067.55 0.0 1070.0 -0.05 1070.0 0.0 1068.8 0.0 M1068.0 1279.9 L222.0 1279.9 224.5 266.05 304.6 266.05 304.6 266.0 1070.0 266.0 1068.0 1279.9" fill="#e6e7e8" fill-rule="evenodd" stroke="none"/>
  </g>
</svg>
