<?xml version="1.0" encoding="UTF-8" standalone="no"?>
<svg xmlns:ffdec="https://www.free-decompiler.com/flash" xmlns:xlink="http://www.w3.org/1999/xlink" ffdec:objectType="shape" height="331.0px" width="163.0px" xmlns="http://www.w3.org/2000/svg">
  <g transform="matrix(1.0, 0.0, 0.0, 1.0, 102.2, 199.85)">
    <path d="M-79.7 -151.85 L-79.7 -181.85 -15.7 -181.85 -15.7 -199.85 48.8 -199.85 48.8 -181.85 60.8 -181.85 60.8 127.65 45.8 127.65 45.8 130.15 -30.2 130.15 -30.2 131.15 -102.2 131.15 -102.2 78.65 -99.2 78.65 -99.2 -151.85 -79.7 -151.85" fill="#434343" fill-rule="evenodd" stroke="none"/>
    <path d="M6.8 10.15 L19.3 10.15 19.3 -2.85 9.3 -2.85 Q9.3 -3.85 8.8 -4.85 7.8 -5.85 6.8 -5.35 4.8 -5.35 4.3 -3.85 3.3 -0.85 5.8 -0.85 6.3 -0.35 6.8 -0.35 L6.8 10.15 M18.8 -94.35 L19.8 -93.35 20.8 -94.35 19.8 -95.35 18.8 -94.35 M-21.7 -64.35 Q-21.7 -61.85 -18.7 -61.85 -16.2 -61.85 -16.2 -64.35 -16.2 -66.85 -18.7 -66.85 -21.7 -66.85 -21.7 -64.35 M-53.7 -57.85 L-52.7 -56.85 -51.7 -57.85 -52.7 -58.85 -53.7 -57.85 M-21.7 -133.85 Q-21.7 -131.35 -18.7 -131.35 -16.2 -131.35 -16.2 -133.85 -16.2 -136.85 -18.7 -136.85 -21.7 -136.85 -21.7 -133.85 M19.8 -178.35 L19.8 -179.85 -13.2 -179.85 -13.2 -198.85 46.8 -198.85 46.8 -179.85 32.8 -179.85 32.8 -178.35 56.3 -178.35 56.3 -138.85 Q55.8 -138.85 55.3 -138.35 53.8 -137.85 53.8 -136.35 54.3 -133.85 56.3 -133.85 L56.3 -90.85 Q55.8 -90.85 55.3 -90.35 53.8 -89.85 53.8 -88.35 53.8 -85.85 56.3 -85.85 L56.3 -46.35 Q55.8 -46.35 55.3 -45.85 53.8 -45.35 53.8 -44.35 53.8 -41.85 56.3 -41.35 L56.3 -5.85 Q55.8 -5.85 55.3 -5.35 53.8 -4.85 53.8 -3.85 53.8 -1.35 56.3 -0.85 L56.3 79.65 38.3 79.65 38.3 82.65 56.3 82.65 56.3 117.65 8.8 117.65 8.8 82.65 25.3 82.65 25.3 79.65 6.8 79.65 6.8 117.65 -41.7 117.65 -41.7 112.15 -45.2 112.15 -45.2 115.15 -67.2 115.15 -67.2 117.65 -80.2 117.65 -80.2 115.15 -94.7 115.15 -94.7 83.15 -45.2 83.15 -45.2 86.15 -41.7 86.15 -41.7 52.65 -44.2 52.65 -44.2 80.15 -94.7 80.15 -94.7 -0.85 -44.2 -0.85 -44.2 39.65 -41.7 39.65 -41.7 32.65 -43.7 32.65 -43.7 19.65 -41.7 19.65 -41.7 -0.35 -40.2 -1.35 Q-38.7 -2.85 -40.2 -4.85 -41.2 -7.35 -43.7 -4.85 L-44.7 -2.85 -91.7 -2.85 Q-91.7 -4.35 -92.7 -4.85 -93.7 -4.85 -94.7 -5.35 L-94.7 -41.85 Q-91.7 -41.35 -91.7 -44.35 -91.7 -45.85 -93.2 -46.35 -93.7 -46.35 -94.7 -46.85 L-94.7 -86.35 Q-91.7 -85.85 -91.7 -88.35 -92.2 -89.85 -93.2 -90.35 -93.7 -90.35 -94.7 -90.85 L-94.7 -131.35 Q-93.7 -131.35 -92.7 -131.85 -91.7 -132.35 -91.7 -133.85 L-76.7 -133.85 -76.7 -178.35 -61.7 -178.35 -61.7 -179.35 -48.7 -179.35 Q-48.2 -178.85 -48.2 -178.35 L19.8 -178.35" fill="#969696" fill-rule="evenodd" stroke="none"/>
    <path d="M-2.7 -148.85 L-2.7 -168.85 Q-14.2 -166.35 -24.7 -161.35 -43.7 -151.85 -54.2 -134.85 -61.7 -122.85 -65.7 -76.85 -65.7 -74.85 -66.2 -73.35 -72.7 -67.85 -72.7 -58.35 -72.7 -49.85 -66.7 -43.85 -60.7 -37.85 -52.7 -37.85 -44.7 -37.85 -39.2 -43.85 -33.7 -49.85 -33.7 -58.35 -33.7 -72.35 -44.7 -76.35 -44.7 -79.85 -45.2 -83.35 -43.2 -106.35 -40.2 -117.35 -36.2 -130.85 -25.7 -138.35 -20.7 -141.85 -2.7 -148.85 M44.3 -142.85 L22.3 -142.85 Q18.8 -128.85 14.8 -114.85 11.8 -113.85 8.3 -111.35 1.8 -106.35 -0.2 -100.35 -2.7 -92.85 1.3 -85.35 5.3 -77.35 12.8 -74.85 20.3 -72.35 27.8 -75.35 35.8 -78.85 38.8 -87.35 42.8 -98.35 34.8 -109.35 39.8 -125.85 44.3 -142.85 M55.8 -145.35 L55.8 -178.35 56.3 -177.85 56.3 -142.85 46.8 -142.85 Q43.3 -129.35 39.3 -115.85 39.3 -113.35 38.8 -110.85 38.3 -108.35 39.3 -105.85 45.3 -96.85 40.3 -84.85 36.8 -76.35 27.8 -72.35 18.8 -68.85 9.3 -73.35 -0.2 -78.35 -2.7 -88.35 -5.2 -96.35 -2.2 -102.35 -0.2 -108.35 5.3 -112.35 8.3 -114.35 10.3 -115.35 L12.8 -117.35 19.8 -142.85 -2.7 -142.85 -2.7 -145.85 Q-17.7 -140.35 -22.7 -137.35 -30.2 -132.85 -34.2 -126.35 -41.2 -113.35 -42.2 -92.85 -43.7 -79.35 -43.2 -78.85 -42.7 -78.35 -42.2 -78.35 -30.7 -71.35 -30.7 -58.35 -30.7 -49.35 -37.2 -42.85 -43.7 -36.35 -53.2 -36.35 -62.2 -36.35 -68.7 -42.85 -75.2 -49.35 -75.2 -58.35 -75.2 -66.85 -69.7 -73.35 -69.2 -73.85 -69.2 -74.85 -63.2 -132.35 -51.7 -143.85 -46.7 -148.35 -40.2 -154.85 -34.2 -159.85 -25.7 -163.85 -12.7 -169.35 -2.7 -171.35 L-2.7 -178.35 -0.2 -178.35 -0.2 -145.35 55.8 -145.35" fill="#707070" fill-rule="evenodd" stroke="none"/>
    <path d="M11.3 10.15 L18.8 10.15 Q19.3 45.15 19.3 79.65 L11.3 79.65 11.3 10.15" fill="#707070" fill-rule="evenodd" stroke="none"/>
    <path d="M19.3 9.65 L19.3 2.15 56.3 2.15 56.3 79.65 43.3 79.65 43.3 10.15 Q31.3 10.15 19.3 9.65" fill="#707070" fill-rule="evenodd" stroke="none"/>
    <path d="M-2.7 -166.35 L5.3 -166.35 5.3 -152.35 -2.7 -152.35 -2.7 -166.35 M25.3 -151.35 L40.3 -151.35 40.3 -142.85 25.3 -142.85 25.3 -151.35 M-28.7 -2.85 L-6.7 -2.85 -6.7 9.15 -28.7 9.15 -28.7 -2.85" fill="#434343" fill-rule="evenodd" stroke="none"/>
    <path d="M-1.7 -152.85 L-1.7 -165.35 0.8 -165.35 0.8 -152.85 -1.7 -152.85" fill="#969696" fill-rule="evenodd" stroke="none"/>
    <path d="M-7.7 0.15 L-27.7 0.15 -27.7 -2.35 -7.7 -2.35 -7.7 0.15" fill="#969696" fill-rule="evenodd" stroke="none"/>
    <path d="M-7.7 4.15 L-27.7 4.15 -27.7 1.65 -7.7 1.65 -7.7 4.15" fill="#969696" fill-rule="evenodd" stroke="none"/>
    <path d="M-7.7 8.15 L-27.7 8.15 -27.7 5.65 -7.7 5.65 -7.7 8.15" fill="#969696" fill-rule="evenodd" stroke="none"/>
    <path d="M2.3 -152.85 L2.3 -165.35 4.8 -165.35 4.8 -152.85 2.3 -152.85" fill="#969696" fill-rule="evenodd" stroke="none"/>
    <path d="M26.3 -150.35 L39.8 -150.35 39.8 -147.85 26.3 -147.85 26.3 -150.35" fill="#969696" fill-rule="evenodd" stroke="none"/>
    <path d="M26.3 -143.85 L26.3 -146.35 39.8 -146.35 39.8 -143.85 26.3 -143.85" fill="#969696" fill-rule="evenodd" stroke="none"/>
    <path d="M-79.7 -151.85 L-79.7 -181.85 -15.7 -181.85 -15.7 -199.85 48.8 -199.85 48.8 -181.85 60.8 -181.85 60.8 127.65 45.8 127.65 45.8 130.15 -30.2 130.15 -30.2 131.15 -102.2 131.15 -102.2 78.65 -99.2 78.65 -99.2 -151.85 -79.7 -151.85" fill="#434343" fill-rule="evenodd" stroke="none"/>
    <path d="M6.8 10.15 L19.3 10.15 19.3 -2.85 9.3 -2.85 Q9.3 -3.85 8.8 -4.85 7.8 -5.85 6.8 -5.35 4.8 -5.35 4.3 -3.85 3.3 -0.85 5.8 -0.85 6.3 -0.35 6.8 -0.35 L6.8 10.15 M18.8 -94.35 L19.8 -93.35 20.8 -94.35 19.8 -95.35 18.8 -94.35 M-21.7 -64.35 Q-21.7 -61.85 -18.7 -61.85 -16.2 -61.85 -16.2 -64.35 -16.2 -66.85 -18.7 -66.85 -21.7 -66.85 -21.7 -64.35 M-53.7 -57.85 L-52.7 -56.85 -51.7 -57.85 -52.7 -58.85 -53.7 -57.85 M-21.7 -133.85 Q-21.7 -131.35 -18.7 -131.35 -16.2 -131.35 -16.2 -133.85 -16.2 -136.85 -18.7 -136.85 -21.7 -136.85 -21.7 -133.85 M53.8 -136.35 Q54.3 -133.85 56.3 -133.85 L56.3 -90.85 Q55.8 -90.85 55.3 -90.35 53.8 -89.85 53.8 -88.35 53.8 -85.85 56.3 -85.85 L56.3 -46.35 Q55.8 -46.35 55.3 -45.85 53.8 -45.35 53.8 -44.35 53.8 -41.85 56.3 -41.35 L56.3 -5.85 Q55.8 -5.85 55.3 -5.35 53.8 -4.85 53.8 -3.85 53.8 -1.35 56.3 -0.85 L56.3 79.65 38.3 79.65 38.3 82.65 56.3 82.65 56.3 117.65 8.8 117.65 8.8 82.65 25.3 82.65 25.3 79.65 6.8 79.65 6.8 117.65 -41.7 117.65 -41.7 112.15 -45.2 112.15 -45.2 115.15 -67.2 115.15 -67.2 117.65 -80.2 117.65 -80.2 115.15 -94.7 115.15 -94.7 83.15 -45.2 83.15 -45.2 86.15 -41.7 86.15 -41.7 52.65 -44.2 52.65 -44.2 80.15 -94.7 80.15 -94.7 -0.85 -44.2 -0.85 -44.2 39.65 -41.7 39.65 -41.7 32.65 -43.7 32.65 -43.7 19.65 -41.7 19.65 -41.7 -0.35 -40.2 -1.35 Q-38.7 -2.85 -40.2 -4.85 -41.2 -7.35 -43.7 -4.85 L-44.7 -2.85 -91.7 -2.85 Q-91.7 -4.35 -92.7 -4.85 -93.7 -4.85 -94.7 -5.35 L-94.7 -41.85 Q-91.7 -41.35 -91.7 -44.35 -91.7 -45.85 -93.2 -46.35 -93.7 -46.35 -94.7 -46.85 L-94.7 -86.35 Q-91.7 -85.85 -91.7 -88.35 -92.2 -89.85 -93.2 -90.35 -93.7 -90.35 -94.7 -90.85 L-94.7 -131.35 Q-93.7 -131.35 -92.7 -131.85 -91.7 -132.35 -91.7 -133.85 L-76.7 -133.85 -76.7 -178.35 -61.7 -178.35 -61.7 -179.35 -48.7 -179.35 Q-48.2 -178.85 -48.2 -178.35 L19.8 -178.35 19.8 -179.85 -13.2 -179.85 -13.2 -198.85 46.8 -198.85 46.8 -179.85 32.8 -179.85 32.8 -178.35 56.3 -178.35 56.3 -138.85 Q55.8 -138.85 55.3 -138.35 53.8 -137.85 53.8 -136.35" fill="#969696" fill-rule="evenodd" stroke="none"/>
    <path d="M-2.7 -148.85 L-2.7 -168.85 Q-14.2 -166.35 -24.7 -161.35 -43.7 -151.85 -54.2 -134.85 -61.7 -122.85 -65.7 -76.85 -65.7 -74.85 -66.2 -73.35 -72.7 -67.85 -72.7 -58.35 -72.7 -49.85 -66.7 -43.85 -60.7 -37.85 -52.7 -37.85 -44.7 -37.85 -39.2 -43.85 -33.7 -49.85 -33.7 -58.35 -33.7 -72.35 -44.7 -76.35 -44.7 -79.85 -45.2 -83.35 -43.2 -106.35 -40.2 -117.35 -36.2 -130.85 -25.7 -138.35 -20.7 -141.85 -2.7 -148.85 M55.8 -145.35 L55.8 -178.35 56.3 -177.85 56.3 -142.85 46.8 -142.85 Q43.3 -129.35 39.3 -115.85 39.3 -113.35 38.8 -110.85 38.3 -108.35 39.3 -105.85 45.3 -96.85 40.3 -84.85 36.8 -76.35 27.8 -72.35 18.8 -68.85 9.3 -73.35 -0.2 -78.35 -2.7 -88.35 -5.2 -96.35 -2.2 -102.35 -0.2 -108.35 5.3 -112.35 8.3 -114.35 10.3 -115.35 L12.8 -117.35 19.8 -142.85 -2.7 -142.85 -2.7 -145.85 Q-17.7 -140.35 -22.7 -137.35 -30.2 -132.85 -34.2 -126.35 -41.2 -113.35 -42.2 -92.85 -43.7 -79.35 -43.2 -78.85 -42.7 -78.35 -42.2 -78.35 -30.7 -71.35 -30.7 -58.35 -30.7 -49.35 -37.2 -42.85 -43.7 -36.35 -53.2 -36.35 -62.2 -36.35 -68.7 -42.85 -75.2 -49.35 -75.2 -58.35 -75.2 -66.85 -69.7 -73.35 -69.2 -73.85 -69.2 -74.85 -63.2 -132.35 -51.7 -143.85 -46.7 -148.35 -40.2 -154.85 -34.2 -159.85 -25.7 -163.85 -12.7 -169.35 -2.7 -171.35 L-2.7 -178.35 -0.2 -178.35 -0.2 -145.35 55.8 -145.35 M44.3 -142.85 L22.3 -142.85 Q18.8 -128.85 14.8 -114.85 11.8 -113.85 8.3 -111.35 1.8 -106.35 -0.2 -100.35 -2.7 -92.85 1.3 -85.35 5.3 -77.35 12.8 -74.85 20.3 -72.35 27.8 -75.35 35.8 -78.85 38.8 -87.35 42.8 -98.35 34.8 -109.35 39.8 -125.85 44.3 -142.85" fill="#707070" fill-rule="evenodd" stroke="none"/>
    <path d="M11.3 10.15 L18.8 10.15 Q19.3 45.15 19.3 79.65 L11.3 79.65 11.3 10.15" fill="#707070" fill-rule="evenodd" stroke="none"/>
    <path d="M19.3 9.65 L19.3 2.15 56.3 2.15 56.3 79.65 43.3 79.65 43.3 10.15 Q31.3 10.15 19.3 9.65" fill="#707070" fill-rule="evenodd" stroke="none"/>
    <path d="M25.3 -151.35 L40.3 -151.35 40.3 -142.85 25.3 -142.85 25.3 -151.35 M-2.7 -166.35 L5.3 -166.35 5.3 -152.35 -2.7 -152.35 -2.7 -166.35 M-28.7 -2.85 L-6.7 -2.85 -6.7 9.15 -28.7 9.15 -28.7 -2.85" fill="#434343" fill-rule="evenodd" stroke="none"/>
    <path d="M-1.7 -152.85 L-1.7 -165.35 0.8 -165.35 0.8 -152.85 -1.7 -152.85" fill="#969696" fill-rule="evenodd" stroke="none"/>
    <path d="M-7.7 0.15 L-27.7 0.15 -27.7 -2.35 -7.7 -2.35 -7.7 0.15" fill="#969696" fill-rule="evenodd" stroke="none"/>
    <path d="M-7.7 4.15 L-27.7 4.15 -27.7 1.65 -7.7 1.65 -7.7 4.15" fill="#969696" fill-rule="evenodd" stroke="none"/>
    <path d="M-7.7 8.15 L-27.7 8.15 -27.7 5.65 -7.7 5.65 -7.7 8.15" fill="#969696" fill-rule="evenodd" stroke="none"/>
    <path d="M2.3 -152.85 L2.3 -165.35 4.8 -165.35 4.8 -152.85 2.3 -152.85" fill="#969696" fill-rule="evenodd" stroke="none"/>
    <path d="M26.3 -150.35 L39.8 -150.35 39.8 -147.85 26.3 -147.85 26.3 -150.35" fill="#969696" fill-rule="evenodd" stroke="none"/>
    <path d="M26.3 -143.85 L26.3 -146.35 39.8 -146.35 39.8 -143.85 26.3 -143.85" fill="#969696" fill-rule="evenodd" stroke="none"/>
    <path d="M-79.7 -151.85 L-79.7 -181.85 -15.7 -181.85 -15.7 -199.85 48.8 -199.85 48.8 -181.85 60.8 -181.85 60.8 127.65 45.8 127.65 45.8 130.15 -30.2 130.15 -30.2 131.15 -102.2 131.15 -102.2 78.65 -99.2 78.65 -99.2 -151.85 -79.7 -151.85" fill="#434343" fill-rule="evenodd" stroke="none"/>
    <path d="M6.8 10.15 L19.3 10.15 19.3 -2.85 9.3 -2.85 Q9.3 -3.85 8.8 -4.85 7.8 -5.85 6.8 -5.35 4.8 -5.35 4.3 -3.85 3.3 -0.85 5.8 -0.85 6.3 -0.35 6.8 -0.35 L6.8 10.15 M18.8 -94.35 L19.8 -93.35 20.8 -94.35 19.8 -95.35 18.8 -94.35 M-21.7 -64.35 Q-21.7 -61.85 -18.7 -61.85 -16.2 -61.85 -16.2 -64.35 -16.2 -66.85 -18.7 -66.85 -21.7 -66.85 -21.7 -64.35 M-53.7 -57.85 L-52.7 -56.85 -51.7 -57.85 -52.7 -58.85 -53.7 -57.85 M-21.7 -133.85 Q-21.7 -131.35 -18.7 -131.35 -16.2 -131.35 -16.2 -133.85 -16.2 -136.85 -18.7 -136.85 -21.7 -136.85 -21.7 -133.85 M53.8 -136.35 Q54.3 -133.85 56.3 -133.85 L56.3 -90.85 Q55.8 -90.85 55.3 -90.35 53.8 -89.85 53.8 -88.35 53.8 -85.85 56.3 -85.85 L56.3 -46.35 Q55.8 -46.35 55.3 -45.85 53.8 -45.35 53.8 -44.35 53.8 -41.85 56.3 -41.35 L56.3 -5.85 Q55.8 -5.85 55.3 -5.35 53.8 -4.85 53.8 -3.85 53.8 -1.35 56.3 -0.85 L56.3 79.65 38.3 79.65 38.3 82.65 56.3 82.65 56.3 117.65 8.8 117.65 8.8 82.65 25.3 82.65 25.3 79.65 6.8 79.65 6.8 117.65 -41.7 117.65 -41.7 112.15 -45.2 112.15 -45.2 115.15 -67.2 115.15 -67.2 117.65 -80.2 117.65 -80.2 115.15 -94.7 115.15 -94.7 83.15 -45.2 83.15 -45.2 86.15 -41.7 86.15 -41.7 52.65 -44.2 52.65 -44.2 80.15 -94.7 80.15 -94.7 -0.85 -44.2 -0.85 -44.2 39.65 -41.7 39.65 -41.7 32.65 -43.7 32.65 -43.7 19.65 -41.7 19.65 -41.7 -0.35 -40.2 -1.35 Q-38.7 -2.85 -40.2 -4.85 -41.2 -7.35 -43.7 -4.85 L-44.7 -2.85 -91.7 -2.85 Q-91.7 -4.35 -92.7 -4.85 -93.7 -4.85 -94.7 -5.35 L-94.7 -41.85 Q-91.7 -41.35 -91.7 -44.35 -91.7 -45.85 -93.2 -46.35 -93.7 -46.35 -94.7 -46.85 L-94.7 -86.35 Q-91.7 -85.85 -91.7 -88.35 -92.2 -89.85 -93.2 -90.35 -93.7 -90.35 -94.7 -90.85 L-94.7 -131.35 Q-93.7 -131.35 -92.7 -131.85 -91.7 -132.35 -91.7 -133.85 L-76.7 -133.85 -76.7 -178.35 -61.7 -178.35 -61.7 -179.35 -48.7 -179.35 Q-48.2 -178.85 -48.2 -178.35 L19.8 -178.35 19.8 -179.85 -13.2 -179.85 -13.2 -198.85 46.8 -198.85 46.8 -179.85 32.8 -179.85 32.8 -178.35 56.3 -178.35 56.3 -138.85 Q55.8 -138.85 55.3 -138.35 53.8 -137.85 53.8 -136.35" fill="#969696" fill-rule="evenodd" stroke="none"/>
    <path d="M55.8 -178.35 L56.3 -177.85 56.3 -143.5 -2.0 -143.5 -2.0 -178.35 -0.2 -178.35 -0.2 -145.35 55.8 -145.35 55.8 -178.35" fill="#707070" fill-rule="evenodd" stroke="none"/>
    <path d="M11.3 10.15 L18.8 10.15 Q19.3 45.15 19.3 79.65 L11.3 79.65 11.3 10.15" fill="#707070" fill-rule="evenodd" stroke="none"/>
    <path d="M19.3 9.65 L19.3 2.15 56.3 2.15 56.3 79.65 43.3 79.65 43.3 10.15 Q31.3 10.15 19.3 9.65" fill="#707070" fill-rule="evenodd" stroke="none"/>
  </g>
</svg>
