<?xml version="1.0" encoding="UTF-8" standalone="no"?>
<svg xmlns:ffdec="https://www.free-decompiler.com/flash" xmlns:xlink="http://www.w3.org/1999/xlink" ffdec:objectType="shape" height="565.0px" width="2280.5px" xmlns="http://www.w3.org/2000/svg">
  <g transform="matrix(1.0, 0.0, 0.0, 1.0, 1341.4, 338.55)">
    <path d="M660.1 -186.05 L672.6 -183.55 672.6 -181.55 685.6 -178.55 685.6 -180.55 Q692.1 -179.05 698.6 -178.05 698.6 -177.05 698.1 -176.05 733.6 -168.05 769.1 -160.55 769.6 -161.55 769.6 -163.05 L939.1 -127.05 Q917.6 -23.55 895.6 79.45 L726.6 43.45 Q716.6 95.95 706.1 148.45 L687.6 144.95 Q684.1 161.95 680.1 178.45 L555.1 151.95 Q547.1 189.45 538.6 226.45 L62.6 125.45 62.6 124.95 64.6 115.95 -208.4 115.95 -208.4 141.45 -720.4 141.45 Q-720.4 144.95 -720.9 147.95 L-861.9 147.95 -861.9 141.45 -958.4 141.45 -958.4 34.95 -1186.9 34.95 -1186.9 97.95 -1341.4 97.95 -1341.4 -298.05 -933.9 -298.05 -933.9 -218.55 -870.4 -218.55 -870.4 -298.05 -725.4 -298.05 -725.4 -94.55 -649.9 -94.55 -649.9 -218.05 -509.4 -218.05 -509.4 -243.05 -472.4 -243.05 -472.4 -245.05 -408.4 -245.05 -408.4 -218.05 -359.9 -218.05 -359.9 -150.05 -203.4 -150.05 -203.4 -145.05 -173.4 -145.05 -173.4 -93.55 37.6 -93.55 Q39.1 -98.55 40.1 -103.55 L-11.4 -114.55 25.6 -285.05 Q23.1 -286.55 20.1 -288.55 25.6 -313.55 30.6 -338.55 60.1 -337.55 89.1 -337.05 L87.1 -327.05 Q242.6 -295.55 397.6 -264.55 L394.6 -251.55 397.6 -251.05 Q400.1 -261.55 402.1 -272.55 415.1 -269.55 427.6 -267.05 425.6 -256.05 423.1 -245.55 483.1 -232.55 543.1 -220.05 L568.6 -190.55 Q589.1 -198.05 609.1 -206.05 L628.6 -202.05 626.6 -191.55 Q643.1 -187.55 659.6 -184.05 660.1 -185.05 660.1 -186.05" fill="#424242" fill-rule="evenodd" stroke="none"/>
    <path d="M540.1 -207.55 L543.1 -220.05 609.1 -206.05 606.1 -193.55 Q609.6 -192.55 613.1 -192.05 610.1 -177.55 606.6 -163.05 603.6 -163.55 600.1 -164.55 597.6 -151.55 594.6 -139.05 L501.1 -159.05 499.1 -149.55 Q500.6 -149.05 502.1 -149.05 L498.1 -128.55 Q499.1 -128.05 499.6 -128.05 502.1 -138.05 504.1 -148.55 521.6 -144.55 539.1 -141.05 533.6 -113.55 527.6 -86.55 510.1 -90.05 492.6 -94.05 495.1 -104.05 497.1 -114.55 L495.1 -114.55 Q493.1 -104.05 490.6 -94.05 L487.6 -95.05 486.6 -91.05 580.1 -71.05 556.1 41.95 560.1 42.95 552.1 80.45 548.1 79.45 531.1 160.95 438.6 140.95 Q435.1 158.95 431.1 176.95 L445.1 179.95 Q443.1 191.45 440.6 202.45 L318.1 176.45 323.1 153.95 390.1 168.45 397.1 134.45 315.1 116.95 Q328.6 53.95 341.6 -9.05 370.6 -2.55 399.6 3.45 L402.6 -11.55 291.6 -35.55 Q282.1 10.45 272.1 55.95 L274.1 55.95 269.1 79.45 Q268.1 79.45 267.1 78.95 L259.1 116.95 172.1 98.45 178.1 69.45 145.6 62.45 145.6 62.95 Q141.6 82.45 137.1 101.45 L93.6 92.45 98.6 68.45 71.6 62.45 68.6 88.95 23.6 88.95 23.6 44.95 25.6 44.95 25.6 18.45 37.1 18.45 37.1 14.45 -1.4 14.45 -1.4 42.45 -99.9 42.45 -99.9 43.95 -101.4 43.95 -101.4 47.45 -99.9 47.45 -99.9 67.45 -98.9 67.45 -98.9 79.95 -99.9 79.95 -99.9 100.45 -110.9 100.45 -110.9 100.95 -148.4 100.95 -148.4 100.45 -158.9 100.45 -158.9 100.95 -196.4 100.95 -196.4 100.45 -206.4 100.45 -206.4 86.45 -214.9 86.45 -214.9 118.45 -260.9 118.45 -260.9 120.95 -302.4 120.95 -302.4 118.45 -303.9 118.45 -303.9 115.95 -311.4 115.95 -311.4 118.45 -399.4 118.45 -399.4 116.45 -406.9 116.45 -406.9 118.45 -408.9 118.45 -408.9 120.95 -450.9 120.95 -450.9 118.45 -452.4 118.45 -452.4 116.45 -459.9 116.45 -459.9 118.45 -542.9 118.45 -542.9 116.45 -550.4 115.95 -550.4 118.45 -552.4 118.45 -552.4 120.95 -594.4 120.95 -594.4 118.45 -596.9 118.45 -596.9 115.95 -604.4 115.95 -604.4 118.45 -657.4 118.45 -657.4 115.95 -664.9 115.95 -664.9 118.45 -665.9 118.45 -665.9 120.95 -707.4 120.95 -707.4 38.45 -708.9 35.95 -732.4 35.95 -732.4 44.45 -734.9 44.45 -734.9 56.95 -732.4 56.95 -732.4 147.95 -855.9 147.95 -855.9 122.95 -947.4 122.95 -947.4 25.95 -994.9 25.95 -994.9 -211.05 Q-925.4 -211.05 -855.9 -211.55 L-855.9 -228.55 -870.4 -228.55 -870.4 -253.05 -855.9 -253.05 -855.9 -290.55 -825.4 -290.55 -825.4 -295.05 -762.9 -295.05 -762.9 -291.05 -732.4 -291.05 -732.4 -4.55 -708.9 -4.55 Q-707.9 -5.05 -707.4 -6.05 L-707.4 -31.55 -665.9 -31.55 -665.9 55.45 -663.4 57.95 -604.4 57.95 -604.4 59.95 -596.9 59.95 -596.9 57.95 -594.4 57.95 -594.4 54.45 -552.4 54.45 -552.4 57.95 -550.4 57.95 -550.4 59.95 -542.9 59.95 -542.9 57.95 -460.4 57.95 -460.4 59.95 -452.4 59.95 -452.4 57.95 -450.4 57.95 -450.4 54.45 -408.9 54.45 -408.9 57.95 -406.9 57.95 -406.9 59.95 -399.4 59.95 -399.4 57.95 -311.4 57.95 -311.4 59.95 -303.9 59.95 -303.9 57.95 -291.9 57.95 -291.9 54.45 -265.9 54.45 -265.9 57.95 -206.4 57.95 -206.4 47.45 -129.9 47.45 -129.9 43.95 -206.4 43.95 -206.4 14.45 -210.4 14.45 -210.4 -19.55 -206.4 -19.55 -206.4 -23.55 -227.4 -23.55 -227.4 -76.05 -146.4 -76.05 -146.4 -86.05 -145.4 -86.05 -145.4 -87.55 -101.4 -87.55 -101.4 -86.05 -99.9 -86.05 -99.9 -76.05 -87.4 -76.05 -87.4 -88.05 -70.9 -88.05 -70.9 -89.05 -58.4 -89.05 -58.4 -88.05 -51.9 -88.05 -51.9 -90.55 4.1 -90.55 4.1 -87.55 77.1 -87.55 77.1 18.45 90.6 21.45 110.6 14.45 160.1 25.45 Q181.6 -73.55 202.6 -172.55 215.6 -169.55 228.6 -167.05 L249.6 -265.55 282.1 -258.55 Q269.1 -196.05 255.6 -134.05 L303.1 -124.05 Q303.6 -125.05 303.6 -126.05 L316.6 -123.05 Q316.6 -122.05 316.1 -121.05 319.6 -120.05 323.1 -119.55 318.1 -94.55 312.6 -70.05 L351.1 -62.05 Q351.6 -62.55 351.6 -63.55 L378.6 -57.55 378.6 -56.05 Q394.6 -52.55 410.6 -49.55 412.1 -54.55 413.1 -60.05 421.6 -58.05 429.6 -56.55 434.6 -78.55 439.1 -101.05 L446.6 -99.55 447.6 -103.55 445.6 -103.55 Q446.1 -104.55 446.1 -105.55 L443.6 -106.05 443.6 -104.05 Q433.1 -106.05 422.6 -108.55 L434.6 -163.05 455.1 -159.05 Q455.1 -157.55 454.6 -156.05 455.6 -155.55 456.6 -155.55 457.1 -157.05 457.1 -158.55 458.1 -158.05 459.1 -158.05 463.1 -175.55 466.6 -193.05 487.1 -188.55 507.1 -184.55 L513.1 -213.55 540.1 -207.55" fill="#959595" fill-rule="evenodd" stroke="none"/>
    <path d="M-736.9 -194.55 L-736.9 -25.55 -762.4 -25.55 -762.4 -194.55 -736.9 -194.55" fill="#6f6f6f" fill-rule="evenodd" stroke="none"/>
    <path d="M-796.4 -194.55 L-796.4 -25.55 -821.4 -25.55 -821.4 -194.55 -796.4 -194.55" fill="#6f6f6f" fill-rule="evenodd" stroke="none"/>
    <path d="M-855.9 -194.55 L-855.9 -25.55 -880.9 -25.55 -880.9 -194.55 -855.9 -194.55" fill="#6f6f6f" fill-rule="evenodd" stroke="none"/>
    <path d="M-910.4 -194.55 L-910.4 -25.55 -935.9 -25.55 -935.9 -194.55 -910.4 -194.55" fill="#6f6f6f" fill-rule="evenodd" stroke="none"/>
    <path d="M-992.9 -118.55 L-992.9 -135.55 -975.9 -135.55 -975.9 -118.55 -992.9 -118.55" fill="#6f6f6f" fill-rule="evenodd" stroke="none"/>
    <path d="M-985.4 -167.05 L-985.4 -140.05 -994.9 -140.05 -994.9 -167.05 -985.4 -167.05" fill="#6f6f6f" fill-rule="evenodd" stroke="none"/>
    <path d="M-985.4 -196.05 L-985.4 -168.55 -994.9 -168.55 -994.9 -196.05 -985.4 -196.05" fill="#6f6f6f" fill-rule="evenodd" stroke="none"/>
    <path d="M-789.9 56.95 L-789.9 39.45 -772.9 39.45 -772.9 56.95 -789.9 56.95" fill="#6f6f6f" fill-rule="evenodd" stroke="none"/>
    <path d="M-771.4 56.95 L-771.4 38.95 -754.4 38.95 -754.4 56.95 -771.4 56.95" fill="#6f6f6f" fill-rule="evenodd" stroke="none"/>
    <path d="M-734.9 39.45 L-734.9 56.95 -751.9 56.95 -751.9 39.45 -734.9 39.45" fill="#6f6f6f" fill-rule="evenodd" stroke="none"/>
    <path d="M-698.9 117.95 L-698.9 103.45 -683.9 103.45 -683.9 117.95 -698.9 117.95" fill="#6f6f6f" fill-rule="evenodd" stroke="none"/>
    <path d="M-518.4 61.45 L-518.4 78.45 -535.9 78.45 -535.9 61.45 -518.4 61.45" fill="#6f6f6f" fill-rule="evenodd" stroke="none"/>
    <path d="M-515.9 76.95 L-515.9 59.95 -498.4 59.95 -498.4 76.95 -515.9 76.95" fill="#6f6f6f" fill-rule="evenodd" stroke="none"/>
    <path d="M-431.9 56.45 L-431.9 73.45 -449.4 73.45 -449.4 56.45 -431.9 56.45" fill="#6f6f6f" fill-rule="evenodd" stroke="none"/>
    <path d="M-436.4 116.95 L-436.4 99.95 -418.9 99.95 -418.9 116.95 -436.4 116.95" fill="#6f6f6f" fill-rule="evenodd" stroke="none"/>
    <path d="M-399.4 116.45 L-399.4 99.45 -381.4 99.45 -381.4 116.45 -399.4 116.45" fill="#6f6f6f" fill-rule="evenodd" stroke="none"/>
    <path d="M-240.9 117.45 L-240.9 102.45 -225.4 102.45 -225.4 117.45 -240.9 117.45" fill="#6f6f6f" fill-rule="evenodd" stroke="none"/>
    <path d="M-195.4 36.95 L-195.4 18.95 -178.9 18.95 -178.9 36.95 -195.4 36.95" fill="#6f6f6f" fill-rule="evenodd" stroke="none"/>
    <path d="M-147.4 31.95 L-172.9 36.45 Q-173.9 29.95 -175.4 22.95 L-149.4 18.95 -147.4 31.95" fill="#6f6f6f" fill-rule="evenodd" stroke="none"/>
    <path d="M-182.9 -21.55 L-157.4 -28.55 Q-155.4 -22.05 -153.9 -15.55 L-178.9 -8.55 -182.9 -21.55" fill="#6f6f6f" fill-rule="evenodd" stroke="none"/>
    <path d="M-111.9 99.95 L-111.9 89.95 -101.9 89.95 -101.9 99.95 -111.9 99.95" fill="#6f6f6f" fill-rule="evenodd" stroke="none"/>
    <path d="M-130.4 99.95 L-130.4 95.95 -125.4 95.95 -125.4 99.95 -130.4 99.95" fill="#6f6f6f" fill-rule="evenodd" stroke="none"/>
    <path d="M-222.4 117.45 L-222.4 112.95 -215.4 112.95 -215.4 117.45 -222.4 117.45" fill="#6f6f6f" fill-rule="evenodd" stroke="none"/>
    <path d="M-197.4 99.95 L-197.4 96.45 -165.4 96.45 -165.4 99.95 -197.4 99.95" fill="#6f6f6f" fill-rule="evenodd" stroke="none"/>
    <path d="M-163.9 99.95 L-163.9 96.45 -131.4 96.45 -131.4 99.95 -163.9 99.95" fill="#6f6f6f" fill-rule="evenodd" stroke="none"/>
    <path d="M-196.9 51.45 L-196.9 47.95 -164.9 47.95 -164.9 51.45 -196.9 51.45" fill="#6f6f6f" fill-rule="evenodd" stroke="none"/>
    <path d="M-165.9 56.45 L-165.9 59.95 -196.4 59.95 -196.4 56.45 -165.9 56.45" fill="#6f6f6f" fill-rule="evenodd" stroke="none"/>
    <path d="M-196.4 88.45 L-196.4 84.95 -165.9 84.95 -165.9 88.45 -196.4 88.45" fill="#6f6f6f" fill-rule="evenodd" stroke="none"/>
    <path d="M-132.9 56.45 L-132.9 59.95 -163.4 59.95 -163.4 56.45 -132.9 56.45" fill="#6f6f6f" fill-rule="evenodd" stroke="none"/>
    <path d="M-163.4 88.45 L-163.4 84.95 -132.9 84.95 -132.9 88.45 -163.4 88.45" fill="#6f6f6f" fill-rule="evenodd" stroke="none"/>
    <path d="M-132.4 47.95 L-132.4 51.45 -164.4 51.45 -164.4 47.95 -132.4 47.95" fill="#6f6f6f" fill-rule="evenodd" stroke="none"/>
    <path d="M-362.4 74.95 Q-361.4 66.95 -360.9 58.45 L-343.4 60.45 -345.4 77.45 -362.4 74.95" fill="#6f6f6f" fill-rule="evenodd" stroke="none"/>
    <path d="M-332.4 116.45 L-332.4 107.45 -313.4 107.45 -313.4 116.45 -332.4 116.45" fill="#6f6f6f" fill-rule="evenodd" stroke="none"/>
    <path d="M-257.9 117.95 L-257.9 112.95 -243.4 112.95 -243.4 117.95 -257.9 117.95" fill="#6f6f6f" fill-rule="evenodd" stroke="none"/>
    <path d="M-384.4 67.45 L-384.4 58.95 -365.4 58.95 -365.4 67.45 -384.4 67.45" fill="#6f6f6f" fill-rule="evenodd" stroke="none"/>
    <path d="M-556.9 115.45 L-556.9 105.95 -537.9 105.95 -537.9 115.45 -556.9 115.45" fill="#6f6f6f" fill-rule="evenodd" stroke="none"/>
    <path d="M-536.4 117.45 L-536.4 107.95 -517.4 107.95 -517.4 117.45 -536.4 117.45" fill="#6f6f6f" fill-rule="evenodd" stroke="none"/>
    <path d="M-818.4 75.95 L-818.4 58.95 -801.4 58.95 -801.4 75.95 -818.4 75.95" fill="#6f6f6f" fill-rule="evenodd" stroke="none"/>
    <path d="M-756.4 -23.05 L-739.4 -21.55 Q-739.9 -12.55 -740.9 -4.05 L-757.9 -5.55 Q-756.9 -14.05 -756.4 -23.05" fill="#6f6f6f" fill-rule="evenodd" stroke="none"/>
    <path d="M-739.4 -207.05 Q-739.4 -202.55 -739.9 -198.05 L-759.9 -199.55 -758.9 -208.55 -739.4 -207.05" fill="#6f6f6f" fill-rule="evenodd" stroke="none"/>
    <path d="M-736.9 -231.05 L-734.9 -212.05 -744.9 -211.05 Q-745.4 -220.55 -746.4 -230.05 L-736.9 -231.05" fill="#6f6f6f" fill-rule="evenodd" stroke="none"/>
    <path d="M-737.4 -23.05 L-732.4 -23.05 -732.4 -6.05 -737.4 -6.05 -737.4 -23.05" fill="#6f6f6f" fill-rule="evenodd" stroke="none"/>
    <path d="M-707.4 100.95 L-707.4 80.45 -702.9 80.45 -702.9 100.95 -707.4 100.95" fill="#6f6f6f" fill-rule="evenodd" stroke="none"/>
    <path d="M-707.4 117.45 L-707.4 102.45 -702.9 102.45 -702.9 117.45 -707.4 117.45" fill="#6f6f6f" fill-rule="evenodd" stroke="none"/>
    <path d="M-707.4 79.45 L-707.4 69.45 -702.9 69.45 -702.9 79.45 -707.4 79.45" fill="#6f6f6f" fill-rule="evenodd" stroke="none"/>
    <path d="M-707.4 67.95 L-707.4 58.45 -702.9 58.45 -702.9 67.95 -707.4 67.95" fill="#6f6f6f" fill-rule="evenodd" stroke="none"/>
    <path d="M-736.4 109.45 L-736.4 99.95 -732.4 99.95 -732.4 109.45 -736.4 109.45" fill="#6f6f6f" fill-rule="evenodd" stroke="none"/>
    <path d="M-736.4 120.95 L-736.4 110.95 -732.4 110.95 -732.4 120.95 -736.4 120.95" fill="#6f6f6f" fill-rule="evenodd" stroke="none"/>
    <path d="M-880.9 119.95 L-880.9 102.95 -863.9 102.95 -863.9 119.95 -880.9 119.95" fill="#6f6f6f" fill-rule="evenodd" stroke="none"/>
    <path d="M-900.9 120.45 L-900.9 103.45 -883.9 103.45 -883.9 120.45 -900.9 120.45" fill="#6f6f6f" fill-rule="evenodd" stroke="none"/>
    <path d="M-875.4 47.95 L-875.4 64.95 -892.4 64.95 -892.4 47.95 -875.4 47.95" fill="#6f6f6f" fill-rule="evenodd" stroke="none"/>
    <path d="M-938.4 95.45 L-938.4 78.45 -921.4 78.45 -921.4 95.45 -938.4 95.45" fill="#6f6f6f" fill-rule="evenodd" stroke="none"/>
    <path d="M-941.4 119.95 L-941.4 102.95 -924.4 102.95 -924.4 119.95 -941.4 119.95" fill="#6f6f6f" fill-rule="evenodd" stroke="none"/>
    <path d="M-913.9 119.95 Q-912.9 109.95 -912.4 99.95 L-902.9 100.95 -904.9 120.45 -913.9 119.95" fill="#6f6f6f" fill-rule="evenodd" stroke="none"/>
    <path d="M-937.4 72.95 L-937.4 55.95 -920.4 55.95 -920.4 72.95 -937.4 72.95" fill="#6f6f6f" fill-rule="evenodd" stroke="none"/>
    <path d="M-939.9 44.95 L-939.9 72.45 -947.4 72.45 -947.4 44.95 -939.9 44.95" fill="#6f6f6f" fill-rule="evenodd" stroke="none"/>
    <path d="M-939.9 73.95 L-939.9 101.45 -947.4 101.45 -947.4 73.95 -939.9 73.95" fill="#6f6f6f" fill-rule="evenodd" stroke="none"/>
    <path d="M-992.9 -100.05 L-992.9 -117.05 -975.9 -117.05 -975.9 -100.05 -992.9 -100.05" fill="#6f6f6f" fill-rule="evenodd" stroke="none"/>
    <path d="M-992.4 -75.05 L-992.4 -92.05 -975.4 -92.05 -975.4 -75.05 -992.4 -75.05" fill="#6f6f6f" fill-rule="evenodd" stroke="none"/>
    <path d="M-992.4 -55.55 L-992.4 -72.55 -975.4 -72.55 -975.4 -55.55 -992.4 -55.55" fill="#6f6f6f" fill-rule="evenodd" stroke="none"/>
    <path d="M-987.9 25.95 L-987.9 16.45 -968.4 16.45 -968.4 25.95 -987.9 25.95" fill="#6f6f6f" fill-rule="evenodd" stroke="none"/>
    <path d="M-994.9 -16.05 L-989.4 -16.05 -989.4 1.95 -994.9 1.95 -994.9 -16.05" fill="#6f6f6f" fill-rule="evenodd" stroke="none"/>
    <path d="M-994.9 20.45 L-994.9 2.45 -989.4 2.45 -989.4 20.45 -994.9 20.45" fill="#6f6f6f" fill-rule="evenodd" stroke="none"/>
    <path d="M-986.4 -44.55 L-986.4 -18.05 -994.9 -18.05 -994.9 -44.55 -986.4 -44.55" fill="#6f6f6f" fill-rule="evenodd" stroke="none"/>
    <path d="M-985.9 -28.05 L-967.4 -29.55 Q-966.4 -20.55 -965.9 -11.55 L-973.4 -11.05 -968.4 -11.05 -968.4 7.45 -985.9 7.45 -985.9 -11.05 -984.9 -11.05 -985.9 -28.05" fill="#6f6f6f" fill-rule="evenodd" stroke="none"/>
    <path d="M-741.4 -232.55 L-741.4 -260.05 -732.4 -260.05 -732.4 -232.55 -741.4 -232.55" fill="#6f6f6f" fill-rule="evenodd" stroke="none"/>
    <path d="M-741.4 -262.05 L-741.4 -289.55 -732.4 -289.55 -732.4 -262.05 -741.4 -262.05" fill="#6f6f6f" fill-rule="evenodd" stroke="none"/>
    <path d="M-854.9 -283.05 L-854.9 -290.55 Q-840.9 -290.55 -827.4 -291.05 L-827.4 -283.05 -854.9 -283.05" fill="#6f6f6f" fill-rule="evenodd" stroke="none"/>
    <path d="M-855.9 -257.55 Q-854.4 -266.55 -853.4 -276.05 L-844.9 -275.05 -846.9 -256.55 -855.9 -257.55" fill="#6f6f6f" fill-rule="evenodd" stroke="none"/>
    <path d="M-795.9 -24.05 L-794.9 -24.05 Q-794.4 -23.55 -794.4 -23.05 -794.4 -22.55 -794.9 -22.05 L-795.9 -22.05 -796.9 -23.05 -795.9 -24.05" fill="#6f6f6f" fill-rule="evenodd" stroke="none"/>
    <path d="M-814.4 35.95 Q-813.9 35.45 -813.9 34.95 L-812.9 34.95 -811.9 35.95 -812.9 36.95 -813.9 36.95 Q-813.9 36.45 -814.4 35.95" fill="#6f6f6f" fill-rule="evenodd" stroke="none"/>
    <path d="M-941.9 36.95 L-942.9 36.95 Q-942.9 36.45 -943.4 35.95 -942.9 35.45 -942.9 34.95 L-941.9 34.95 -940.9 35.95 -941.9 36.95" fill="#6f6f6f" fill-rule="evenodd" stroke="none"/>
    <path d="M-935.9 -22.05 L-937.4 -22.05 Q-937.4 -22.55 -937.9 -23.05 -937.4 -23.55 -937.4 -24.05 L-935.9 -24.05 Q-935.4 -23.55 -935.4 -23.05 -935.4 -22.55 -935.9 -22.05" fill="#6f6f6f" fill-rule="evenodd" stroke="none"/>
    <path d="M-911.4 -23.05 Q-910.9 -23.55 -910.9 -24.05 L-909.9 -24.05 -908.9 -23.05 -909.9 -22.05 -910.9 -22.05 Q-910.9 -22.55 -911.4 -23.05" fill="#6f6f6f" fill-rule="evenodd" stroke="none"/>
    <path d="M-881.4 -22.05 L-882.9 -22.05 Q-882.9 -22.55 -883.4 -23.05 -882.9 -23.55 -882.9 -24.05 L-881.4 -24.05 Q-880.9 -23.55 -880.9 -23.05 -880.9 -22.55 -881.4 -22.05" fill="#6f6f6f" fill-rule="evenodd" stroke="none"/>
    <path d="M-855.9 -24.05 L-854.9 -24.05 -853.9 -23.05 -854.9 -22.05 -855.9 -22.05 Q-855.9 -22.55 -856.4 -23.05 -855.9 -23.55 -855.9 -24.05" fill="#6f6f6f" fill-rule="evenodd" stroke="none"/>
    <path d="M-762.4 -22.05 L-763.4 -22.05 -764.4 -23.05 -763.4 -24.05 -762.4 -24.05 Q-761.9 -23.55 -761.9 -23.05 -761.9 -22.55 -762.4 -22.05" fill="#6f6f6f" fill-rule="evenodd" stroke="none"/>
    <path d="M-737.4 34.95 L-735.9 34.95 Q-735.4 35.45 -735.4 35.95 -735.4 36.45 -735.9 36.95 L-737.4 36.95 Q-737.4 36.45 -737.9 35.95 -737.4 35.45 -737.4 34.95" fill="#6f6f6f" fill-rule="evenodd" stroke="none"/>
    <path d="M-595.9 59.95 L-594.9 59.95 Q-594.4 60.95 -594.4 61.45 -594.4 61.95 -594.9 62.45 L-595.9 62.45 Q-595.9 61.95 -596.4 61.45 -595.9 60.95 -595.9 59.95" fill="#6f6f6f" fill-rule="evenodd" stroke="none"/>
    <path d="M-550.4 62.45 L-551.9 62.45 Q-551.9 61.95 -552.4 61.45 -551.9 60.95 -551.9 59.95 L-550.9 59.95 -549.9 61.45 Q-549.9 61.95 -550.4 62.45" fill="#6f6f6f" fill-rule="evenodd" stroke="none"/>
    <path d="M-451.9 59.95 L-450.9 59.95 Q-450.4 60.45 -450.4 60.95 -450.4 61.45 -450.9 61.95 L-451.9 61.95 -452.9 60.95 -451.9 59.95" fill="#6f6f6f" fill-rule="evenodd" stroke="none"/>
    <path d="M-408.9 59.95 L-407.4 59.95 Q-406.9 60.45 -406.9 60.95 -406.9 61.45 -407.4 61.95 L-408.9 61.95 Q-408.9 61.45 -409.4 60.95 -408.9 60.45 -408.9 59.95" fill="#6f6f6f" fill-rule="evenodd" stroke="none"/>
    <path d="M-745.9 97.95 L-744.9 97.95 -743.9 98.95 -744.9 99.95 -745.9 99.95 Q-745.9 99.45 -746.4 98.95 -745.9 98.45 -745.9 97.95" fill="#6f6f6f" fill-rule="evenodd" stroke="none"/>
    <path d="M-745.9 108.45 L-744.9 108.45 -743.9 109.45 -744.9 110.95 -745.9 110.95 Q-745.9 110.45 -746.4 109.45 -745.9 108.95 -745.9 108.45" fill="#6f6f6f" fill-rule="evenodd" stroke="none"/>
    <path d="M-745.9 120.95 L-744.9 120.95 -743.9 121.95 -744.9 122.95 -745.9 122.95 Q-745.9 122.45 -746.4 121.95 -745.9 121.45 -745.9 120.95" fill="#6f6f6f" fill-rule="evenodd" stroke="none"/>
    <path d="M-852.4 119.95 L-850.9 119.95 Q-850.4 120.45 -850.4 120.95 -850.4 121.45 -850.9 121.95 L-852.4 121.95 Q-852.4 121.45 -852.9 120.95 -852.4 120.45 -852.4 119.95" fill="#6f6f6f" fill-rule="evenodd" stroke="none"/>
    <path d="M-852.4 141.95 L-851.4 141.95 -850.4 142.95 -851.4 143.95 -852.4 143.95 Q-852.4 143.45 -852.9 142.95 -852.4 142.45 -852.4 141.95" fill="#6f6f6f" fill-rule="evenodd" stroke="none"/>
    <path d="M-737.4 141.95 L-735.9 141.95 Q-735.4 142.45 -735.4 142.95 -735.4 143.45 -735.9 143.95 L-737.4 143.95 Q-737.4 143.45 -737.9 142.95 -737.4 142.45 -737.4 141.95" fill="#6f6f6f" fill-rule="evenodd" stroke="none"/>
    <path d="M-735.9 -5.05 Q-735.4 -4.55 -735.4 -4.05 -735.4 -3.55 -735.9 -3.05 L-737.4 -3.05 Q-737.4 -3.55 -737.9 -4.05 -737.4 -4.55 -737.4 -5.05 L-735.9 -5.05" fill="#6f6f6f" fill-rule="evenodd" stroke="none"/>
    <path d="M-822.9 -24.05 L-821.9 -24.05 Q-821.4 -23.55 -821.4 -23.05 -821.4 -22.55 -821.9 -22.05 L-822.9 -22.05 -823.9 -23.05 -822.9 -24.05" fill="#6f6f6f" fill-rule="evenodd" stroke="none"/>
    <path d="M-115.9 89.45 L-113.9 91.45 Q-113.4 92.95 -113.4 94.45 -113.4 95.95 -113.9 97.45 L-116.4 99.45 Q-117.4 99.95 -118.9 99.95 L-121.9 98.95 -123.9 96.95 Q-123.9 95.45 -124.4 93.95 -123.9 92.95 -123.9 91.45 L-121.4 89.45 -118.9 88.45 -115.9 89.45" fill="#6f6f6f" fill-rule="evenodd" stroke="none"/>
    <path d="M-206.4 43.95 L-206.4 40.45 -187.9 40.45 -187.9 43.95 -206.4 43.95" fill="#6f6f6f" fill-rule="evenodd" stroke="none"/>
    <path d="M31.1 46.95 L31.1 29.45 49.1 29.45 49.1 46.95 31.1 46.95" fill="#6f6f6f" fill-rule="evenodd" stroke="none"/>
    <path d="M50.1 86.95 L50.1 69.45 68.1 69.45 68.1 86.95 50.1 86.95" fill="#6f6f6f" fill-rule="evenodd" stroke="none"/>
    <path d="M99.6 72.95 L117.1 76.45 Q115.6 85.45 113.6 94.45 L96.1 90.95 Q98.1 81.95 99.6 72.95" fill="#6f6f6f" fill-rule="evenodd" stroke="none"/>
    <path d="M137.1 80.95 Q135.6 89.95 133.6 98.45 L116.1 94.95 Q118.1 86.45 119.6 77.45 L137.1 80.95" fill="#6f6f6f" fill-rule="evenodd" stroke="none"/>
    <path d="M187.1 11.45 Q184.6 19.95 181.6 28.45 L164.6 23.45 169.6 5.95 187.1 11.45" fill="#6f6f6f" fill-rule="evenodd" stroke="none"/>
    <path d="M172.1 -17.05 Q171.6 -17.05 171.1 -17.55 172.6 -24.05 173.6 -30.55 L179.1 -29.55 Q178.1 -22.55 176.6 -16.05 176.1 -16.05 175.1 -16.55 175.1 -15.55 174.6 -14.55 L175.6 -14.55 175.6 -8.05 170.1 -8.05 170.1 -14.55 172.1 -14.55 172.1 -17.05" fill="#6f6f6f" fill-rule="evenodd" stroke="none"/>
    <path d="M176.1 97.45 Q178.1 84.45 179.6 71.45 L193.1 73.45 Q191.6 86.45 189.6 99.45 L176.1 97.45" fill="#6f6f6f" fill-rule="evenodd" stroke="none"/>
    <path d="M196.6 72.45 L210.6 71.45 Q211.6 84.95 212.1 97.95 L198.6 98.45 196.6 72.45" fill="#6f6f6f" fill-rule="evenodd" stroke="none"/>
    <path d="M206.1 17.95 L218.1 20.95 Q216.1 29.95 213.6 38.45 L201.6 34.95 Q204.1 26.45 206.1 17.95" fill="#6f6f6f" fill-rule="evenodd" stroke="none"/>
    <path d="M252.1 -19.55 L266.1 -16.55 Q263.6 -3.55 260.6 9.45 L246.6 6.45 Q249.6 -6.55 252.1 -19.55" fill="#6f6f6f" fill-rule="evenodd" stroke="none"/>
    <path d="M204.6 -56.05 L217.6 -54.05 213.6 -28.05 200.6 -29.55 204.6 -56.05" fill="#6f6f6f" fill-rule="evenodd" stroke="none"/>
    <path d="M243.6 -99.05 L237.6 -74.05 224.6 -77.05 230.6 -102.05 243.6 -99.05" fill="#6f6f6f" fill-rule="evenodd" stroke="none"/>
    <path d="M225.1 27.95 Q226.1 23.45 226.6 18.45 L243.1 21.95 241.1 30.95 225.1 27.95" fill="#6f6f6f" fill-rule="evenodd" stroke="none"/>
    <path d="M213.6 16.95 L205.1 14.95 210.1 -9.05 218.6 -7.55 213.6 16.95" fill="#6f6f6f" fill-rule="evenodd" stroke="none"/>
    <path d="M252.1 -41.05 L253.1 -49.05 266.6 -47.05 Q265.1 -34.05 263.1 -21.05 L249.6 -23.05 Q250.1 -25.05 250.1 -27.05 L215.6 -34.05 218.6 -47.55 252.1 -41.05" fill="#6f6f6f" fill-rule="evenodd" stroke="none"/>
    <path d="M186.6 -49.55 Q185.1 -41.55 183.1 -33.55 L174.1 -35.05 Q176.1 -43.05 177.6 -51.55 L186.6 -49.55" fill="#6f6f6f" fill-rule="evenodd" stroke="none"/>
    <path d="M190.6 -69.55 L187.6 -53.55 178.6 -55.55 181.6 -71.55 190.6 -69.55" fill="#6f6f6f" fill-rule="evenodd" stroke="none"/>
    <path d="M205.1 -136.05 Q203.6 -127.55 201.6 -119.55 L193.1 -121.55 196.1 -137.55 Q200.6 -136.55 205.1 -136.05" fill="#6f6f6f" fill-rule="evenodd" stroke="none"/>
    <path d="M258.1 -133.55 Q266.1 -131.55 274.1 -130.05 273.6 -125.55 272.6 -121.05 L256.1 -124.05 258.1 -133.55" fill="#6f6f6f" fill-rule="evenodd" stroke="none"/>
    <path d="M277.6 -235.05 L272.6 -236.05 274.6 -246.05 279.6 -245.05 277.6 -235.05" fill="#6f6f6f" fill-rule="evenodd" stroke="none"/>
    <path d="M267.6 -196.05 L268.6 -199.55 320.1 -188.55 Q318.1 -178.05 315.6 -168.05 290.1 -173.05 264.1 -178.55 L265.1 -182.05 245.6 -186.05 227.6 -104.05 Q228.6 -103.55 229.6 -103.55 L222.6 -72.05 Q221.6 -72.05 220.6 -72.55 L217.6 -58.05 206.1 -60.55 Q208.1 -67.55 209.6 -75.05 208.6 -75.05 207.6 -75.55 211.1 -91.05 214.1 -106.55 L216.6 -106.55 237.6 -202.55 Q252.6 -199.05 267.6 -196.05" fill="#6f6f6f" fill-rule="evenodd" stroke="none"/>
    <path d="M281.6 -255.55 L279.6 -245.55 274.6 -246.55 276.6 -256.55 281.6 -255.55" fill="#6f6f6f" fill-rule="evenodd" stroke="none"/>
    <path d="M273.6 -260.55 L272.6 -256.55 252.6 -260.55 253.6 -264.55 273.6 -260.55" fill="#6f6f6f" fill-rule="evenodd" stroke="none"/>
    <path d="M273.6 -122.55 Q274.6 -126.05 275.1 -130.05 282.1 -128.05 289.1 -126.55 L288.1 -120.05 273.6 -122.55" fill="#6f6f6f" fill-rule="evenodd" stroke="none"/>
    <path d="M217.1 104.45 L222.1 87.45 Q228.1 89.45 234.1 90.95 L229.1 108.45 217.1 104.45" fill="#6f6f6f" fill-rule="evenodd" stroke="none"/>
    <path d="M256.1 87.95 L252.1 99.95 235.1 93.95 Q237.6 87.95 239.6 81.95 L256.1 87.95" fill="#6f6f6f" fill-rule="evenodd" stroke="none"/>
    <path d="M239.1 111.95 L240.1 99.95 257.6 100.95 256.6 113.45 239.1 111.95" fill="#6f6f6f" fill-rule="evenodd" stroke="none"/>
    <path d="M100.6 60.45 Q100.1 64.45 99.1 67.95 L71.6 62.45 73.6 54.45 100.6 60.45" fill="#6f6f6f" fill-rule="evenodd" stroke="none"/>
    <path d="M44.1 49.45 L44.1 66.45 26.1 66.45 26.1 49.45 44.1 49.45" fill="#6f6f6f" fill-rule="evenodd" stroke="none"/>
    <path d="M30.6 87.45 L30.6 68.45 48.1 68.45 48.1 87.45 30.6 87.45" fill="#6f6f6f" fill-rule="evenodd" stroke="none"/>
    <path d="M151.1 -47.55 L151.1 -28.05 72.6 -28.05 Q72.6 -24.55 72.1 -21.05 L46.1 -23.55 Q46.6 -26.05 46.6 -29.05 L-125.9 -29.05 -125.9 -30.05 -151.9 -30.05 -151.9 -49.05 -197.9 -49.05 -197.9 -47.55 -305.4 -47.55 -305.4 -65.05 -197.9 -65.05 -197.9 -63.05 -125.9 -63.05 -125.9 -46.05 67.1 -46.05 67.1 -47.55 151.1 -47.55" fill="#6f6f6f" fill-rule="evenodd" stroke="none"/>
    <path d="M32.6 -87.55 L32.6 -83.55 22.1 -83.55 22.1 -87.55 32.6 -87.55" fill="#6f6f6f" fill-rule="evenodd" stroke="none"/>
    <path d="M43.6 -87.55 L43.6 -83.05 33.1 -83.05 33.1 -87.55 43.6 -87.55" fill="#6f6f6f" fill-rule="evenodd" stroke="none"/>
    <path d="M70.6 -87.55 L70.6 -83.55 50.1 -83.55 50.1 -87.55 70.6 -87.55" fill="#6f6f6f" fill-rule="evenodd" stroke="none"/>
    <path d="M7.1 -68.55 L6.1 -56.55 -19.4 -58.55 -18.4 -70.55 7.1 -68.55" fill="#6f6f6f" fill-rule="evenodd" stroke="none"/>
    <path d="M-115.4 -26.05 L-115.4 -19.55 -121.9 -19.55 -121.9 -26.05 -115.4 -26.05" fill="#6f6f6f" fill-rule="evenodd" stroke="none"/>
    <path d="M-86.9 -26.55 L-86.9 -20.05 -93.4 -20.05 -93.4 -26.55 -86.9 -26.55" fill="#6f6f6f" fill-rule="evenodd" stroke="none"/>
    <path d="M-57.9 -26.05 L-57.9 -19.55 -64.4 -19.55 -64.4 -26.05 -57.9 -26.05" fill="#6f6f6f" fill-rule="evenodd" stroke="none"/>
    <path d="M-33.9 -26.05 L-27.4 -26.05 -27.4 -19.55 -33.9 -19.55 -33.9 -26.05" fill="#6f6f6f" fill-rule="evenodd" stroke="none"/>
    <path d="M-4.9 -19.55 L-4.9 -26.05 2.1 -26.05 2.1 -19.55 -4.9 -19.55" fill="#6f6f6f" fill-rule="evenodd" stroke="none"/>
    <path d="M4.6 -48.05 L4.6 -54.55 11.1 -54.55 11.1 -48.05 4.6 -48.05" fill="#6f6f6f" fill-rule="evenodd" stroke="none"/>
    <path d="M-18.4 -54.55 L-18.4 -48.05 -24.9 -48.05 -24.9 -54.55 -18.4 -54.55" fill="#6f6f6f" fill-rule="evenodd" stroke="none"/>
    <path d="M-47.4 -54.55 L-47.4 -48.05 -54.4 -48.05 -54.4 -54.55 -47.4 -54.55" fill="#6f6f6f" fill-rule="evenodd" stroke="none"/>
    <path d="M-76.9 -54.55 L-76.9 -48.05 -83.4 -48.05 -83.4 -54.55 -76.9 -54.55" fill="#6f6f6f" fill-rule="evenodd" stroke="none"/>
    <path d="M-106.4 -54.55 L-106.4 -48.05 -112.9 -48.05 -112.9 -54.55 -106.4 -54.55" fill="#6f6f6f" fill-rule="evenodd" stroke="none"/>
    <path d="M-58.9 21.45 L-58.9 11.95 -42.4 11.95 -42.4 21.45 -58.9 21.45" fill="#6f6f6f" fill-rule="evenodd" stroke="none"/>
    <path d="M-11.4 39.95 L-11.4 23.45 -1.9 23.45 -1.9 39.95 -11.4 39.95" fill="#6f6f6f" fill-rule="evenodd" stroke="none"/>
    <path d="M-89.4 42.45 L-89.4 32.95 -72.4 32.95 -72.4 42.45 -89.4 42.45" fill="#6f6f6f" fill-rule="evenodd" stroke="none"/>
    <path d="M-56.4 35.95 L-56.4 37.95 -52.4 37.95 -52.4 39.95 -56.4 39.95 -56.4 41.45 -69.9 41.45 -69.9 35.95 -56.4 35.95" fill="#6f6f6f" fill-rule="evenodd" stroke="none"/>
    <path d="M-26.4 35.95 L-26.4 37.95 -22.4 37.95 -22.4 39.95 -26.4 39.95 -26.4 41.45 -39.9 41.45 -39.9 35.95 -26.4 35.95" fill="#6f6f6f" fill-rule="evenodd" stroke="none"/>
    <path d="M165.1 26.95 L166.6 26.95 167.1 27.95 Q167.1 28.45 166.6 28.95 L165.1 28.95 164.6 27.95 Q165.1 27.45 165.1 26.95" fill="#6f6f6f" fill-rule="evenodd" stroke="none"/>
    <path d="M157.6 62.45 L158.6 62.45 159.6 63.45 158.6 64.45 157.6 64.45 157.1 63.45 Q157.6 62.95 157.6 62.45" fill="#6f6f6f" fill-rule="evenodd" stroke="none"/>
    <path d="M234.6 -24.55 L246.1 -22.05 Q245.1 -16.05 243.6 -10.05 L232.1 -12.55 Q233.6 -18.55 234.6 -24.55" fill="#6f6f6f" fill-rule="evenodd" stroke="none"/>
    <path d="M220.1 -17.05 L222.1 -27.05 Q227.1 -25.55 232.1 -24.55 L230.1 -15.05 220.1 -17.05" fill="#6f6f6f" fill-rule="evenodd" stroke="none"/>
    <path d="M226.6 -48.05 Q226.1 -48.55 225.6 -49.55 L225.6 -51.55 226.6 -53.05 Q227.6 -53.05 228.1 -53.55 L230.1 -53.55 Q231.1 -53.05 231.6 -53.05 L232.1 -51.55 232.1 -49.55 Q232.1 -48.55 231.6 -48.05 L230.1 -47.05 228.1 -47.05 Q227.6 -47.55 226.6 -48.05" fill="#6f6f6f" fill-rule="evenodd" stroke="none"/>
    <path d="M347.6 -61.55 Q347.1 -54.05 346.1 -47.05 L330.1 -49.05 332.1 -63.55 347.6 -61.55" fill="#6f6f6f" fill-rule="evenodd" stroke="none"/>
    <path d="M510.6 -59.55 L513.6 -59.05 Q498.6 13.45 483.1 85.45 L458.6 80.45 Q474.1 8.45 489.1 -64.05 L492.1 -63.55 494.1 -79.55 512.6 -77.55 510.6 -59.55" fill="#6f6f6f" fill-rule="evenodd" stroke="none"/>
    <path d="M552.6 -66.55 Q565.6 -63.55 578.1 -61.05 568.1 -13.05 557.6 34.45 L532.6 28.95 552.6 -66.55" fill="#6f6f6f" fill-rule="evenodd" stroke="none"/>
    <path d="M505.1 155.45 L521.1 79.95 Q534.1 82.95 547.1 85.45 L531.1 160.95 505.1 155.45" fill="#6f6f6f" fill-rule="evenodd" stroke="none"/>
    <path d="M419.1 127.95 Q418.6 131.45 417.6 134.95 L438.6 139.45 Q433.1 166.95 427.1 193.95 L386.6 184.95 Q392.6 157.95 398.1 130.95 L401.1 131.45 Q402.1 127.95 402.6 124.45 L419.1 127.95" fill="#6f6f6f" fill-rule="evenodd" stroke="none"/>
    <path d="M438.6 141.45 Q439.1 139.45 439.1 137.45 451.6 140.45 464.1 142.95 L463.1 146.95 438.6 141.45" fill="#6f6f6f" fill-rule="evenodd" stroke="none"/>
    <path d="M341.6 -9.05 Q371.6 -1.55 401.6 5.45 L396.6 23.45 387.1 20.95 386.1 25.95 362.6 20.95 347.6 92.45 321.1 86.45 Q331.6 38.95 341.6 -9.05" fill="#6f6f6f" fill-rule="evenodd" stroke="none"/>
    <path d="M377.6 30.95 Q385.6 27.45 393.1 23.45 L401.1 40.45 Q393.6 44.45 386.1 47.95 L377.6 30.95" fill="#6f6f6f" fill-rule="evenodd" stroke="none"/>
    <path d="M382.6 47.45 L396.6 60.45 384.6 73.45 370.6 60.95 382.6 47.45" fill="#6f6f6f" fill-rule="evenodd" stroke="none"/>
    <path d="M427.6 45.95 L430.6 43.45 443.1 56.45 442.6 56.45 Q443.1 56.95 443.6 56.95 L440.6 60.95 450.6 65.95 Q448.6 69.95 446.1 73.95 452.6 78.45 459.1 82.45 L450.1 96.45 436.6 87.95 440.6 81.45 435.1 78.95 Q433.1 87.95 430.6 96.45 422.1 94.45 413.6 91.95 416.1 82.95 418.1 73.45 L423.6 74.95 418.1 70.45 413.1 87.45 Q404.6 84.95 396.1 81.95 L402.1 63.95 414.6 67.95 421.6 58.95 418.1 55.45 Q419.1 54.95 419.6 53.95 L400.6 38.45 408.1 29.45 427.6 45.95" fill="#6f6f6f" fill-rule="evenodd" stroke="none"/>
    <path d="M473.6 -3.05 L471.6 11.45 456.1 9.45 Q457.6 1.95 458.6 -5.55 466.1 -4.05 473.6 -3.05" fill="#6f6f6f" fill-rule="evenodd" stroke="none"/>
    <path d="M464.6 -23.05 L478.6 -20.05 475.6 -4.05 461.1 -7.55 Q463.1 -15.05 464.6 -23.05" fill="#6f6f6f" fill-rule="evenodd" stroke="none"/>
    <path d="M535.1 -77.55 Q533.6 -69.05 531.6 -61.05 L513.6 -64.55 516.6 -81.55 535.1 -77.55" fill="#6f6f6f" fill-rule="evenodd" stroke="none"/>
    <path d="M483.6 -88.05 L480.6 -70.05 Q472.1 -71.05 463.6 -72.55 L466.6 -90.55 483.6 -88.05" fill="#6f6f6f" fill-rule="evenodd" stroke="none"/>
    <path d="M503.6 -87.05 L502.6 -81.55 487.6 -84.55 Q488.6 -87.55 489.1 -90.55 L503.6 -87.05" fill="#6f6f6f" fill-rule="evenodd" stroke="none"/>
    <path d="M533.1 -142.05 Q532.1 -136.55 530.6 -131.55 L502.1 -137.55 Q503.6 -143.05 504.6 -148.55 519.1 -145.05 533.1 -142.05" fill="#6f6f6f" fill-rule="evenodd" stroke="none"/>
    <path d="M529.6 -97.05 L527.6 -86.55 Q513.1 -89.05 498.6 -92.05 500.1 -97.55 501.1 -103.05 L529.6 -97.05" fill="#6f6f6f" fill-rule="evenodd" stroke="none"/>
    <path d="M501.6 -111.55 Q500.1 -102.55 498.1 -94.05 L493.1 -95.05 Q495.1 -103.55 496.6 -112.55 L501.6 -111.55" fill="#6f6f6f" fill-rule="evenodd" stroke="none"/>
    <path d="M533.6 -118.05 L530.6 -102.55 525.1 -103.05 Q527.1 -111.05 528.6 -119.05 L533.6 -118.05" fill="#6f6f6f" fill-rule="evenodd" stroke="none"/>
    <path d="M534.6 -121.05 L532.1 -121.55 Q534.1 -129.55 535.6 -138.05 L538.1 -137.55 Q536.6 -129.05 534.6 -121.05" fill="#6f6f6f" fill-rule="evenodd" stroke="none"/>
    <path d="M449.6 -148.55 Q446.6 -133.55 443.1 -118.55 L439.1 -119.05 Q442.6 -134.05 445.6 -149.55 L449.6 -148.55" fill="#6f6f6f" fill-rule="evenodd" stroke="none"/>
    <path d="M608.1 -201.55 L542.1 -215.55 543.1 -220.05 609.1 -206.05 608.1 -201.55" fill="#ffffff" fill-rule="evenodd" stroke="none"/>
    <path d="M-870.4 -228.55 L-870.4 -253.05 -855.9 -253.05 -855.9 -228.55 -870.4 -228.55" fill="#ffffff" fill-rule="evenodd" stroke="none"/>
    <path d="M-809.9 39.95 L-947.4 39.95 -947.4 38.45 -809.9 38.45 -809.9 39.95" fill="#424242" fill-rule="evenodd" stroke="none"/>
    <path d="M-732.4 58.45 L-856.4 58.45 -856.4 56.95 -732.4 56.95 -732.4 58.45" fill="#424242" fill-rule="evenodd" stroke="none"/>
    <path d="M239.1 -43.05 L235.1 -44.05 236.1 -48.55 240.1 -47.55 239.1 -43.05" fill="#424242" fill-rule="evenodd" stroke="none"/>
    <path d="M222.1 32.45 L218.1 31.45 219.1 26.95 223.1 27.95 222.1 32.45" fill="#424242" fill-rule="evenodd" stroke="none"/>
    <path d="M-83.4 21.45 L-87.9 21.45 -87.9 16.95 -83.4 16.95 -83.4 21.45" fill="#424242" fill-rule="evenodd" stroke="none"/>
    <path d="M-856.4 38.45 L-862.9 38.45 -862.9 33.95 -856.4 33.95 -856.4 38.45" fill="#424242" fill-rule="evenodd" stroke="none"/>
  </g>
</svg>
