<?xml version="1.0" encoding="UTF-8" standalone="no"?>
<svg xmlns:ffdec="https://www.free-decompiler.com/flash" xmlns:xlink="http://www.w3.org/1999/xlink" ffdec:objectType="shape" height="84.0px" width="115.95px" xmlns="http://www.w3.org/2000/svg">
  <g transform="matrix(1.0, 0.0, 0.0, 1.0, 0.0, 0.0)">
    <path d="M61.3 62.55 Q61.65 63.0 61.3 63.35 L60.9 63.5 60.5 63.35 58.0 60.8 55.45 63.35 55.05 63.5 54.65 63.35 Q54.3 63.0 54.65 62.55 L57.2 60.05 54.65 57.5 Q54.3 57.15 54.65 56.75 55.1 56.3 55.45 56.75 L58.0 59.25 60.5 56.75 Q60.85 56.3 61.3 56.75 61.7 57.15 61.3 57.5 L58.75 60.05 61.3 62.55" fill="#51ff00" fill-rule="evenodd" stroke="none"/>
    <path d="M57.95 37.55 Q48.8 37.55 42.3 44.05 35.8 50.55 35.8 59.75 35.8 68.95 42.3 75.45 48.8 81.95 57.95 81.95 67.15 81.95 73.65 75.45 80.15 68.95 80.15 59.75 80.15 50.55 73.65 44.05 67.15 37.55 57.95 37.55 M114.9 58.7 Q115.3 58.7 115.65 59.0 L115.95 59.75 115.65 60.5 Q115.3 60.8 114.9 60.8 L82.2 60.8 Q81.8 70.45 74.75 77.2 67.65 84.0 57.95 84.0 48.3 84.0 41.2 77.2 34.15 70.45 33.7 60.8 L1.05 60.8 0.3 60.5 Q0.0 60.2 0.0 59.75 0.0 59.3 0.3 59.0 L1.05 58.7 33.7 58.7 Q34.1 49.25 40.8 42.6 47.45 35.9 56.9 35.5 L56.9 1.05 Q56.9 0.65 57.2 0.3 57.55 0.0 57.95 0.0 L58.7 0.3 59.0 1.05 59.0 35.5 Q68.45 35.9 75.15 42.6 81.85 49.25 82.2 58.7 L114.9 58.7" fill="#51ff00" fill-rule="evenodd" stroke="none"/>
  </g>
</svg>
