<?xml version="1.0" encoding="UTF-8" standalone="no"?>
<svg xmlns:ffdec="https://www.free-decompiler.com/flash" xmlns:xlink="http://www.w3.org/1999/xlink" ffdec:objectType="shape" height="144.05px" width="256.1px" xmlns="http://www.w3.org/2000/svg">
  <g transform="matrix(1.0, 0.0, 0.0, 1.0, 134.15, 74.5)">
    <path d="M5.35 -23.25 Q6.45 -24.35 8.15 -24.35 9.85 -24.35 11.0 -23.25 12.1 -22.2 12.1 -20.6 L12.15 15.9 28.4 3.2 Q29.5 2.4 30.85 2.4 32.55 2.4 33.8 3.6 35.0 4.8 35.0 6.5 35.0 8.3 33.6 9.6 L18.35 21.6 39.45 41.35 Q40.05 42.25 40.05 43.35 40.05 47.2 36.2 47.2 35.05 47.2 33.85 46.35 32.7 45.55 32.1 44.45 L12.15 26.55 12.15 43.25 Q12.15 44.9 11.0 46.05 9.9 47.05 8.2 47.15 6.6 47.15 5.4 46.05 4.25 44.95 4.25 43.25 L4.2 -20.6 Q4.2 -22.2 5.35 -23.25 M71.1 -19.75 Q75.9 -24.7 83.8 -24.55 85.5 -24.55 86.45 -23.6 87.45 -22.25 87.45 -21.1 87.45 -17.6 83.6 -17.6 80.2 -17.6 77.3 -15.35 74.6 -13.05 74.6 -9.55 L74.6 0.4 93.15 0.4 Q94.95 0.4 95.85 1.5 96.95 2.45 96.95 4.0 L97.0 31.65 Q97.0 34.9 99.35 37.35 101.8 39.7 105.5 39.85 108.9 39.85 111.4 37.35 113.9 35.05 113.9 31.8 L114.05 5.15 Q114.05 3.65 115.25 2.5 116.2 1.5 118.1 1.5 119.45 1.5 120.8 2.5 121.95 3.65 121.95 5.15 L121.75 53.8 Q121.75 60.15 116.95 64.95 112.15 69.55 105.5 69.55 L102.4 69.4 Q100.7 69.4 99.9 68.45 98.75 67.25 98.75 65.95 98.75 64.6 99.9 63.4 100.85 62.45 102.4 62.45 L105.25 62.45 Q108.9 62.45 111.25 60.15 113.7 57.65 113.7 54.25 L113.9 43.9 Q110.3 46.8 105.5 46.8 98.75 46.8 93.75 42.15 88.95 37.35 88.95 31.05 L89.15 7.85 74.4 7.85 74.2 42.95 Q74.2 44.65 73.1 45.4 71.9 46.55 70.2 46.55 68.65 46.55 67.5 45.4 66.35 44.65 66.35 42.75 L66.55 7.85 65.4 7.85 Q63.5 7.5 62.7 6.7 61.55 5.55 61.55 4.0 61.55 2.5 62.7 1.35 64.1 0.4 65.55 0.4 L66.55 0.4 66.75 -8.45 Q66.75 -14.95 71.1 -19.75 M47.25 2.35 Q48.35 1.25 50.05 1.25 51.75 1.25 52.85 2.35 54.0 3.35 54.0 5.0 L54.0 42.8 Q54.0 44.45 52.85 45.45 51.75 46.55 50.05 46.55 48.35 46.55 47.25 45.45 46.1 44.4 46.1 42.8 L46.1 5.0 Q46.1 3.4 47.25 2.35 M-130.15 -23.55 L-90.8 -23.35 Q-89.35 -23.35 -88.0 -22.2 -86.8 -21.05 -86.8 -19.55 -86.8 -17.65 -88.0 -16.85 -89.1 -15.75 -90.8 -15.75 L-106.6 -15.95 -107.0 42.55 Q-107.0 44.1 -108.1 45.25 -109.05 46.2 -111.0 46.2 -112.5 46.2 -113.8 45.25 -114.95 44.1 -114.95 42.55 L-114.55 -15.95 -130.35 -15.95 Q-131.85 -15.95 -133.0 -17.05 -134.15 -18.2 -134.15 -19.75 -134.15 -21.45 -133.0 -22.4 -131.85 -23.55 -130.15 -23.55 M-20.1 11.7 Q-22.15 13.75 -22.15 16.45 L-22.15 31.65 Q-22.15 34.45 -20.1 36.4 -18.15 38.25 -15.15 38.25 L-7.7 38.45 Q-6.0 38.45 -5.05 39.45 -3.95 40.55 -3.95 41.9 -3.95 43.4 -5.05 44.55 -6.4 45.5 -7.7 45.5 L-15.15 45.5 Q-21.35 45.5 -25.6 41.3 -29.95 37.5 -29.95 31.65 L-29.95 16.2 Q-29.95 10.5 -25.4 6.5 -21.0 2.55 -14.9 2.55 L-8.7 2.55 Q-6.6 2.95 -6.0 3.7 -4.9 4.8 -4.9 6.15 -4.9 7.85 -6.0 8.65 -7.2 9.75 -8.7 9.75 L-14.9 9.75 Q-17.95 9.75 -20.1 11.7 M-37.3 38.5 Q-36.55 39.25 -36.55 40.8 -36.55 42.65 -38.05 44.2 -39.75 45.55 -41.5 45.55 -44.35 45.3 -45.7 43.45 -49.25 46.5 -54.25 46.5 -60.85 46.5 -65.6 42.1 -70.35 37.9 -70.35 31.45 -70.35 25.2 -65.6 21.0 -60.85 16.8 -54.0 16.8 -49.5 16.8 -45.85 19.65 L-45.85 16.1 Q-45.7 13.55 -47.75 11.5 -50.0 9.6 -52.5 9.6 L-61.2 9.6 Q-62.75 9.6 -63.9 8.45 -65.05 7.35 -65.05 6.0 -65.05 4.5 -63.9 3.35 -63.0 2.35 -61.05 2.35 L-52.5 2.35 Q-46.45 2.35 -42.3 6.6 -37.9 10.35 -37.9 16.45 L-37.9 37.0 Q-38.05 37.15 -37.3 38.5 M-75.85 8.75 L-81.9 8.75 Q-85.1 8.75 -87.05 10.65 -89.1 12.75 -89.1 15.2 L-89.1 42.8 Q-89.1 44.1 -90.45 45.45 -91.55 46.55 -93.35 46.55 -94.8 46.55 -95.95 45.45 -97.1 44.3 -97.1 42.8 L-96.9 15.2 Q-96.9 9.55 -92.55 5.55 -88.15 1.55 -82.05 1.55 L-75.85 1.55 Q-74.3 1.55 -73.15 2.65 -72.05 3.85 -72.05 5.15 -72.05 6.65 -73.15 7.85 -74.5 8.75 -75.85 8.75 M-45.25 32.25 Q-45.25 28.05 -47.55 25.8 -49.65 23.3 -53.85 23.3 -58.0 23.3 -60.3 25.8 -62.55 28.05 -62.55 32.25 -62.55 35.45 -60.1 37.75 -57.8 40.05 -54.0 40.05 -50.0 40.05 -47.75 37.75 -45.25 35.8 -45.25 32.25" fill="#ffffff" fill-rule="evenodd" stroke="none"/>
    <path d="M40.85 -74.3 L42.5 -74.5 Q46.35 -74.5 49.95 -72.2 53.55 -74.5 57.4 -74.5 L59.05 -74.3 61.65 -73.8 65.45 -71.65 Q68.1 -69.75 69.75 -66.45 71.4 -63.15 71.4 -59.5 71.45 -54.5 68.95 -50.15 L65.8 -45.3 62.0 -40.9 57.2 -36.35 54.3 -33.95 Q52.45 -32.45 50.0 -32.4 L49.9 -32.4 Q47.45 -32.45 45.6 -33.95 L42.7 -36.35 37.9 -40.9 Q35.9 -42.95 34.1 -45.3 32.8 -47.0 30.95 -50.15 28.45 -54.5 28.5 -59.5 28.5 -63.15 30.15 -66.45 31.8 -69.75 34.45 -71.65 36.35 -73.05 38.25 -73.8 L40.85 -74.3" fill="#ff0037" fill-rule="evenodd" stroke="none"/>
    <path d="M45.85 -9.25 Q45.85 -10.85 47.0 -12.0 48.15 -13.15 49.75 -13.15 51.35 -13.15 52.5 -12.0 53.65 -10.85 53.65 -9.25 53.65 -7.65 52.5 -6.5 51.35 -5.35 49.75 -5.35 48.15 -5.35 47.0 -6.5 45.85 -7.65 45.85 -9.25 M49.75 -26.0 Q51.35 -26.0 52.5 -24.85 53.65 -23.7 53.65 -22.1 53.65 -20.5 52.5 -19.35 51.35 -18.2 49.75 -18.2 48.15 -18.2 47.0 -19.35 45.85 -20.5 45.85 -22.1 45.85 -23.7 47.0 -24.85 48.15 -26.0 49.75 -26.0" fill="#ff2626" fill-rule="evenodd" stroke="none"/>
    <path d="M53.5 -66.2 L54.9 -67.0 57.45 -67.55 59.3 -67.25 Q60.2 -66.95 61.35 -66.05 62.7 -65.1 63.55 -63.3 64.45 -61.5 64.45 -59.45 L64.45 -59.35 Q64.45 -56.25 62.95 -53.65 L60.2 -49.45 57.0 -45.7 52.8 -41.7 49.9 -39.35 46.9 -41.7 Q45.0 -43.3 42.05 -46.3 39.2 -49.2 37.2 -52.6 35.15 -56.0 35.05 -59.25 35.05 -61.15 35.9 -63.1 36.75 -64.95 38.0 -65.9 39.2 -66.8 40.05 -67.1 L42.0 -67.45 44.8 -66.95 46.15 -66.3 Q47.6 -65.45 48.65 -63.85 49.75 -62.1 49.75 -60.5 49.75 -61.9 50.85 -63.5 51.9 -65.05 53.5 -66.2" fill="#ffffff" fill-rule="evenodd" stroke="none"/>
  </g>
</svg>
