<?xml version="1.0" encoding="UTF-8" standalone="no"?>
<svg xmlns:ffdec="https://www.free-decompiler.com/flash" xmlns:xlink="http://www.w3.org/1999/xlink" ffdec:objectType="shape" height="357.45px" width="207.45px" xmlns="http://www.w3.org/2000/svg">
  <g transform="matrix(1.0, 0.0, 0.0, 1.0, 107.95, 233.45)">
    <path d="M97.0 -224.45 L97.0 -214.95 99.5 -214.95 99.5 -207.45 97.0 -207.45 97.0 -201.95 98.5 -201.95 98.5 -196.45 97.0 -196.45 97.0 99.0 98.5 99.0 98.5 104.5 97.0 104.5 97.0 106.0 97.5 106.0 97.5 108.0 97.0 108.0 97.0 112.5 98.0 112.5 98.0 115.5 97.0 115.5 97.0 118.5 93.5 118.5 74.5 106.5 47.5 118.5 45.05 118.5 45.05 121.0 29.55 121.0 29.55 118.5 -69.95 118.5 -69.95 124.0 -107.95 124.0 -107.95 -233.45 97.0 -233.45 97.0 -226.95 98.0 -226.95 98.0 -224.45 97.0 -224.45" fill="#424242" fill-rule="evenodd" stroke="none"/>
    <path d="M30.55 -229.45 L93.5 -229.45 93.5 113.5 73.0 117.0 47.5 113.5 Q47.5 77.5 47.0 41.55 L-47.95 41.55 -47.95 58.5 -99.95 58.5 -99.95 -145.45 -98.95 -145.45 -98.95 -147.95 -99.45 -147.95 -99.45 -229.45 -23.95 -229.45 -23.95 -231.45 -9.95 -231.45 -9.95 -229.45 -0.45 -229.45 -0.45 -231.45 30.55 -231.45 30.55 -229.45" fill="#959595" fill-rule="evenodd" stroke="none"/>
    <path d="M83.0 -74.95 L93.5 -74.95 93.5 20.05 88.5 20.05 88.5 3.55 83.0 3.55 83.0 -74.95" fill="#6f6f6f" fill-rule="evenodd" stroke="none"/>
    <path d="M84.5 -109.95 L91.5 -110.95 92.5 -94.95 Q90.0 -93.95 87.5 -93.45 L84.5 -109.95" fill="#6f6f6f" fill-rule="evenodd" stroke="none"/>
    <path d="M-38.45 -98.95 L-38.45 -92.95 -46.45 -92.95 -46.45 -98.95 -50.45 -102.95 -49.45 -103.95 -44.95 -99.95 -39.95 -99.95 -34.95 -103.95 -33.95 -102.95 -38.45 -98.95" fill="#6f6f6f" fill-rule="evenodd" stroke="none"/>
    <path d="M-34.95 -116.95 L-39.95 -120.95 -44.95 -120.95 -49.45 -116.95 -50.45 -117.95 -46.45 -121.95 -46.45 -127.95 -38.45 -127.95 -38.45 -121.95 -33.95 -117.95 -34.95 -116.95" fill="#6f6f6f" fill-rule="evenodd" stroke="none"/>
    <path d="M-69.95 -62.95 L-69.95 -49.95 -14.95 -49.95 -14.95 -62.95 -69.95 -62.95 M-37.45 -73.95 L-37.45 -67.95 -14.95 -67.95 -14.95 -71.45 -12.45 -71.45 -12.45 -41.45 -14.95 -41.45 -14.95 -44.95 -37.45 -44.95 -37.45 -40.45 -44.95 -40.45 -44.95 -44.95 -69.95 -44.95 -69.95 -41.45 -72.45 -41.45 -72.45 -71.45 -69.95 -71.45 -69.95 -67.95 -44.95 -67.95 -44.95 -73.95 -37.45 -73.95" fill="#6f6f6f" fill-rule="evenodd" stroke="none"/>
    <path d="M-14.95 -11.45 L-69.95 -11.45 -69.95 1.05 -14.95 1.05 -14.95 -11.45 M-69.95 -19.95 L-69.95 -16.95 -44.95 -16.95 -44.95 -22.45 -37.45 -22.45 -37.45 -16.95 -14.95 -16.95 -14.95 -20.45 -12.45 -20.45 -12.45 9.55 -14.95 9.55 -14.95 6.55 -37.45 6.55 -37.45 10.55 -44.95 10.55 -44.95 6.55 -69.95 6.55 -69.95 10.05 -72.45 10.05 -72.45 -19.95 -69.95 -19.95" fill="#6f6f6f" fill-rule="evenodd" stroke="none"/>
    <path d="M-21.95 36.05 L-21.95 32.55 15.55 32.55 15.55 41.55 -37.45 41.55 -37.45 36.05 -21.95 36.05" fill="#6f6f6f" fill-rule="evenodd" stroke="none"/>
    <path d="M-98.95 48.5 L-98.95 36.05 -91.45 36.05 -91.45 48.5 -98.95 48.5" fill="#6f6f6f" fill-rule="evenodd" stroke="none"/>
    <path d="M-91.45 -14.95 L-91.45 30.55 -99.95 30.55 -99.95 -14.95 -91.45 -14.95" fill="#6f6f6f" fill-rule="evenodd" stroke="none"/>
    <path d="M-91.45 -69.95 L-91.45 -24.45 -98.95 -24.45 -98.95 -69.95 -91.45 -69.95" fill="#6f6f6f" fill-rule="evenodd" stroke="none"/>
    <path d="M-90.95 -127.45 L-90.95 -81.45 -98.95 -81.45 -98.95 -127.45 -90.95 -127.45" fill="#6f6f6f" fill-rule="evenodd" stroke="none"/>
    <path d="M-92.45 -190.95 L-92.45 -151.45 -99.45 -151.45 -99.45 -190.95 -92.45 -190.95" fill="#6f6f6f" fill-rule="evenodd" stroke="none"/>
    <path d="M-72.95 -229.45 L-72.95 -222.45 -97.45 -222.45 -97.45 -229.45 -72.95 -229.45" fill="#6f6f6f" fill-rule="evenodd" stroke="none"/>
    <path d="M37.05 -203.95 L37.05 -228.95 92.5 -228.95 92.5 -159.95 84.0 -159.95 84.0 -162.45 90.0 -162.45 90.0 -226.45 39.05 -226.45 39.05 -161.95 45.05 -161.95 45.05 -159.95 37.05 -159.95 37.05 -187.95 29.55 -187.95 29.55 -203.95 37.05 -203.95" fill="#6f6f6f" fill-rule="evenodd" stroke="none"/>
    <path d="M93.5 118.5 L47.5 118.5 47.5 113.5 93.5 113.5 93.5 118.5" fill="#ffffff" fill-rule="evenodd" stroke="none"/>
  </g>
</svg>
