<?xml version="1.0" encoding="UTF-8" standalone="no"?>
<svg xmlns:ffdec="https://www.free-decompiler.com/flash" xmlns:xlink="http://www.w3.org/1999/xlink" ffdec:objectType="shape" height="416.0px" width="631.0px" xmlns="http://www.w3.org/2000/svg">
  <g transform="matrix(1.0, 0.0, 0.0, 1.0, 445.95, 257.3)">
    <path d="M185.05 158.7 L-445.95 158.7 -445.95 -257.3 185.05 -257.3 185.05 158.7" fill="#434343" fill-rule="evenodd" stroke="none"/>
    <path d="M7.55 25.3 L-19.35 25.3 -19.35 83.1 -3.85 83.1 -3.85 77.15 7.55 77.15 7.55 25.3 M-282.0 -247.35 L-123.6 -247.35 -123.6 -192.0 -113.35 -192.0 -113.35 -157.0 -123.7 -157.0 -123.7 -126.7 -197.35 -126.7 -197.35 -138.0 -201.0 -138.0 -201.0 -124.35 -206.35 -124.35 -206.35 -121.7 -198.35 -121.7 -198.35 -60.7 -76.9 -60.7 -76.9 -58.0 4.65 -58.0 4.65 -114.65 110.0 -114.65 110.0 -129.15 177.55 -129.15 177.55 148.4 141.55 148.4 141.55 139.3 131.9 139.3 131.9 150.0 120.65 150.0 120.65 139.3 111.1 139.3 111.1 148.4 29.1 148.4 29.1 139.3 20.3 139.3 20.3 150.0 8.5 150.0 8.5 139.3 -4.45 139.3 -4.45 131.8 -19.2 131.8 -19.2 144.0 -198.0 144.0 -198.0 60.0 -242.0 60.0 -242.0 134.65 -255.0 134.65 -255.0 148.3 -345.0 148.3 -345.0 90.0 -322.0 90.0 -322.0 -41.0 -241.35 -41.0 -241.35 -121.7 -233.0 -121.7 -233.0 -124.35 -238.35 -124.35 -238.35 -131.35 -282.0 -131.35 -282.0 -247.35" fill="#969696" fill-rule="evenodd" stroke="none"/>
    <path d="M-367.7 -1.35 L-367.7 5.0 -348.25 5.0 -348.25 149.65 -418.7 149.65 -418.7 63.65 -420.35 63.65 -420.35 60.0 -422.7 60.0 -422.7 35.0 -420.35 35.0 -420.35 31.65 -418.7 31.65 -418.7 5.0 -399.7 5.0 -399.7 -1.35 -367.7 -1.35" fill="#707070" fill-rule="evenodd" stroke="none"/>
    <path d="M37.3 29.0 L37.3 5.65 123.0 5.65 123.0 93.3 99.3 93.3 99.3 29.0 37.3 29.0" fill="#707070" fill-rule="evenodd" stroke="none"/>
    <path d="M54.0 41.1 L86.2 41.1 86.2 71.8 54.0 71.8 54.0 41.1" fill="#707070" fill-rule="evenodd" stroke="none"/>
    <path d="M166.15 -111.65 L168.4 -110.35 170.55 -108.3 173.75 -103.15 174.2 -99.8 173.9 -97.7 166.0 -91.45 162.4 -91.15 158.4 -95.0 155.65 -99.75 154.4 -104.7 156.0 -107.25 166.15 -111.65" fill="#707070" fill-rule="evenodd" stroke="none"/>
    <path d="M12.7 102.4 L28.45 122.0 15.0 132.85 -0.75 113.2 12.7 102.4" fill="#707070" fill-rule="evenodd" stroke="none"/>
    <path d="M36.65 148.4 L36.65 135.75 104.4 135.75 104.4 148.4 36.65 148.4" fill="#707070" fill-rule="evenodd" stroke="none"/>
    <path d="M8.5 150.0 L8.5 139.3 20.3 139.3 20.3 150.0 8.5 150.0" fill="#707070" fill-rule="evenodd" stroke="none"/>
    <path d="M120.65 150.0 L120.65 139.3 131.9 139.3 131.9 150.0 120.65 150.0" fill="#707070" fill-rule="evenodd" stroke="none"/>
    <path d="M-159.0 97.0 L-159.0 67.0 -77.35 67.0 -77.35 97.0 -159.0 97.0" fill="#707070" fill-rule="evenodd" stroke="none"/>
    <path d="M-301.25 -29.25 L-301.25 -41.0 -261.25 -41.0 -261.25 -29.25 -301.25 -29.25" fill="#707070" fill-rule="evenodd" stroke="none"/>
    <path d="M-197.7 143.65 L-197.7 122.65 -46.35 122.65 -46.35 143.65 -197.7 143.65" fill="#707070" fill-rule="evenodd" stroke="none"/>
    <path d="M-184.9 -57.35 L-184.9 -47.35 -194.9 -47.35 -194.9 -57.35 -184.9 -57.35" fill="#707070" fill-rule="evenodd" stroke="none"/>
    <path d="M-93.6 -47.35 L-93.6 -57.35 -83.6 -57.35 -83.6 -47.35 -93.6 -47.35" fill="#707070" fill-rule="evenodd" stroke="none"/>
    <path d="M156.75 -111.35 L156.75 -121.35 166.75 -121.35 166.75 -111.35 156.75 -111.35" fill="#707070" fill-rule="evenodd" stroke="none"/>
    <path d="M-19.2 83.1 L-4.35 83.1 -4.35 131.8 -19.2 131.8 -19.2 83.1" fill="#707070" fill-rule="evenodd" stroke="none"/>
    <path d="M-3.8 -54.5 Q-2.95 -53.25 -1.65 -52.65 -1.55 -51.05 -0.8 -50.0 L-0.8 -49.95 Q-1.6 -48.65 -1.55 -47.25 L-1.6 -47.25 Q-2.95 -46.55 -3.65 -45.35 L-3.7 -45.35 Q-5.1 -45.55 -6.45 -44.95 L-6.5 -44.95 Q-7.6 -45.9 -9.05 -46.05 L-9.05 -46.1 Q-9.5 -47.45 -10.6 -48.4 L-10.6 -48.45 Q-10.2 -49.85 -10.65 -51.25 -9.5 -52.3 -9.15 -53.65 -7.65 -53.9 -6.6 -54.85 -5.3 -54.25 -3.8 -54.5" fill="#707070" fill-rule="evenodd" stroke="none"/>
    <path d="M153.35 -26.5 L154.5 -30.95 172.45 -26.25 171.3 -21.8 153.35 -26.5" fill="#707070" fill-rule="evenodd" stroke="none"/>
    <path d="M-312.0 -29.85 L-314.5 -29.35 -316.95 -30.15 -318.65 -32.1 -319.2 -34.6 -318.35 -37.05 -316.45 -38.75 -313.9 -39.25 -311.5 -38.45 -309.75 -36.5 -309.25 -34.0 -310.05 -31.55 -312.0 -29.85" fill="#707070" fill-rule="evenodd" stroke="none"/>
    <path d="M-123.7 -147.8 L-123.7 -126.7 -197.35 -126.7 -197.35 -139.35 -148.0 -139.35 -148.0 -147.8 -123.7 -147.8" fill="#707070" fill-rule="evenodd" stroke="none"/>
    <path d="M-126.25 -192.0 L-113.35 -192.0 -113.35 -157.0 -126.25 -157.0 -126.25 -192.0" fill="#707070" fill-rule="evenodd" stroke="none"/>
    <path d="M-137.8 -240.9 L-123.6 -240.9 -123.6 -204.45 -137.8 -204.45 -137.8 -240.9" fill="#707070" fill-rule="evenodd" stroke="none"/>
    <path d="M-236.25 -247.35 L-236.25 -227.6 -261.35 -227.6 -261.35 -131.35 -282.0 -131.35 -282.0 -247.35 -236.25 -247.35" fill="#707070" fill-rule="evenodd" stroke="none"/>
    <path d="M-138.5 -198.15 L-136.75 -197.6 -135.6 -196.25 -135.2 -194.5 -135.8 -192.75 -137.15 -191.6 -138.9 -191.2 -140.6 -191.8 -141.8 -193.15 -142.15 -194.9 -141.6 -196.6 -140.25 -197.8 -138.5 -198.15" fill="#707070" fill-rule="evenodd" stroke="none"/>
    <path d="M51.4 -55.3 L54.6 -56.3 57.95 -56.4 61.15 -55.6 63.9 -54.0 65.95 -51.75 67.1 -49.05 67.2 -47.45 66.25 -45.9 64.35 -44.75 61.7 -43.6 55.15 -43.15 51.95 -43.3 49.2 -44.25 47.15 -45.3 46.0 -46.75 45.9 -48.35 46.85 -51.15 48.75 -53.5 51.4 -55.3" fill="#707070" fill-rule="evenodd" stroke="none"/>
    <path d="M-3.2 -56.85 L39.15 -56.85 39.15 -45.0 -3.2 -45.0 -3.2 -56.85" fill="#707070" fill-rule="evenodd" stroke="none"/>
    <path d="M-106.0 -15.8 L-106.0 14.0 -170.45 14.0 -170.45 -15.8 -106.0 -15.8" fill="#707070" fill-rule="evenodd" stroke="none"/>
    <path d="M-35.55 -58.0 L-35.7 -55.35 -36.7 -52.1 -39.0 -49.65 -42.15 -47.85 -45.8 -46.9 -49.7 -46.85 -53.4 -47.8 -56.55 -49.55 -58.85 -52.05 -59.75 -55.1 -60.05 -58.0 -35.55 -58.0" fill="#707070" fill-rule="evenodd" stroke="none"/>
    <path d="M-349.8 135.75 L-349.8 102.85 -344.25 102.85 -344.25 135.75 -349.8 135.75" fill="#ffffff" fill-rule="evenodd" stroke="none"/>
    <path d="M0.0 -58.0 L0.0 -114.65 98.4 -114.65 98.4 -58.0 0.0 -58.0" fill="#ffffff" fill-rule="evenodd" stroke="none"/>
  </g>
</svg>
