<?xml version="1.0" encoding="UTF-8" standalone="no"?>
<svg xmlns:ffdec="https://www.free-decompiler.com/flash" xmlns:xlink="http://www.w3.org/1999/xlink" ffdec:objectType="shape" height="1128.6px" width="982.0px" xmlns="http://www.w3.org/2000/svg">
  <g transform="matrix(1.0, 0.0, 0.0, 1.0, 488.5, 564.5)">
    <path d="M391.5 -368.5 L391.5 -357.5 493.5 -357.5 493.5 113.5 393.05 113.5 393.05 346.0 435.0 346.0 435.0 451.25 393.05 451.25 393.05 564.1 186.55 564.1 186.55 415.85 141.85 415.85 141.85 363.85 -143.85 363.85 -143.85 415.85 -187.0 415.85 -187.0 564.1 -395.0 564.1 -395.0 251.45 -436.5 251.45 -436.5 145.75 -395.0 145.75 -395.0 -49.25 -437.0 -49.25 -437.0 -154.25 -395.0 -154.25 -395.0 -169.5 -488.5 -169.5 -488.5 -268.5 -217.8 -268.5 -217.8 -564.5 217.7 -564.5 217.7 -368.5 391.5 -368.5" fill="#000000" fill-rule="evenodd" stroke="none"/>
    <path d="M348.6 136.35 L328.35 136.35 328.35 53.1 216.6 53.1 216.6 -207.85 273.0 -207.85 273.0 -248.3 216.7 -248.3 216.7 -253.6 216.6 -253.6 216.6 -351.1 348.6 -351.1 348.6 136.35" fill="#000000" fill-rule="evenodd" stroke="none"/>
    <path d="M-351.0 -159.1 L-239.35 -159.1 -239.35 184.0 -262.0 184.0 -261.5 245.5 -351.0 245.5 -351.0 -159.1" fill="#000000" fill-rule="evenodd" stroke="none"/>
    <path d="M205.05 345.5 L205.05 351.0 199.55 351.0 199.55 345.5 205.05 345.5" fill="#000000" fill-rule="evenodd" stroke="none"/>
    <path d="M-200.6 345.5 L-200.6 351.0 -206.1 351.0 -206.1 345.5 -200.6 345.5" fill="#000000" fill-rule="evenodd" stroke="none"/>
    <path d="M196.6 450.95 L196.6 445.45 205.1 445.45 205.1 450.95 196.6 450.95" fill="#000000" fill-rule="evenodd" stroke="none"/>
    <path d="M196.1 550.85 L196.1 545.35 204.6 545.35 204.6 550.85 196.1 550.85" fill="#000000" fill-rule="evenodd" stroke="none"/>
    <path d="M-205.35 450.95 L-205.35 445.45 -196.85 445.45 -196.85 450.95 -205.35 450.95" fill="#000000" fill-rule="evenodd" stroke="none"/>
    <path d="M-205.35 550.85 L-205.35 545.35 -196.85 545.35 -196.85 550.85 -205.35 550.85" fill="#000000" fill-rule="evenodd" stroke="none"/>
    <path d="M374.2 -51.75 L374.2 -50.05 345.85 -50.05 345.85 -54.4 374.2 -54.4 374.2 -52.65 378.45 -52.65 378.45 -54.4 379.35 -54.4 379.35 -50.05 378.45 -50.05 378.45 -51.75 374.2 -51.75" fill="#000000" fill-rule="evenodd" stroke="none"/>
    <path d="M378.45 47.4 L378.45 45.65 379.35 45.65 379.35 50.05 378.45 50.05 378.45 48.35 374.2 48.35 374.2 50.05 348.1 50.05 348.1 51.7 345.1 51.7 345.1 48.7 345.85 48.7 345.85 45.65 374.2 45.65 374.2 47.4 378.45 47.4" fill="#000000" fill-rule="evenodd" stroke="none"/>
    <path d="M374.2 144.9 L374.2 146.6 345.85 146.6 345.85 142.2 374.2 142.2 374.2 143.95 378.45 143.95 378.45 142.2 379.35 142.2 379.35 146.6 378.45 146.6 378.45 144.9 374.2 144.9" fill="#000000" fill-rule="evenodd" stroke="none"/>
    <path d="M378.45 247.4 L378.45 245.65 379.35 245.65 379.35 250.05 378.45 250.05 378.45 248.3 374.2 248.3 374.2 250.05 345.85 250.05 345.85 245.65 374.2 245.65 374.2 247.4 378.45 247.4" fill="#000000" fill-rule="evenodd" stroke="none"/>
    <path d="M374.2 348.25 L374.2 350.0 345.85 350.0 345.85 345.6 374.2 345.6 374.2 347.35 378.45 347.35 378.45 345.6 379.35 345.6 379.35 350.0 378.45 350.0 378.45 348.25 374.2 348.25" fill="#000000" fill-rule="evenodd" stroke="none"/>
    <path d="M378.45 447.35 L378.45 445.6 379.35 445.6 379.35 449.95 378.45 449.95 378.45 448.25 374.2 448.25 374.2 449.95 345.85 449.95 345.85 445.6 374.2 445.6 374.2 447.35 378.45 447.35" fill="#000000" fill-rule="evenodd" stroke="none"/>
    <path d="M374.2 548.3 L374.2 550.0 345.85 550.0 345.85 545.6 374.2 545.6 374.2 547.35 378.45 547.35 378.45 545.6 379.35 545.6 379.35 550.0 378.45 550.0 378.45 548.3 374.2 548.3" fill="#000000" fill-rule="evenodd" stroke="none"/>
    <path d="M378.45 -152.65 L378.45 -154.4 379.35 -154.4 379.35 -150.05 378.45 -150.05 378.45 -151.75 374.2 -151.75 374.2 -150.05 345.85 -150.05 345.85 -154.4 374.2 -154.4 374.2 -152.65 378.45 -152.65" fill="#000000" fill-rule="evenodd" stroke="none"/>
    <path d="M374.2 -251.25 L374.2 -249.55 345.85 -249.55 345.85 -253.9 374.2 -253.9 374.2 -252.15 378.45 -252.15 378.45 -253.9 379.35 -253.9 379.35 -249.55 378.45 -249.55 378.45 -251.25 374.2 -251.25" fill="#000000" fill-rule="evenodd" stroke="none"/>
    <path d="M378.45 -353.9 L379.35 -353.9 379.35 -349.55 378.45 -349.55 378.45 -351.25 374.2 -351.25 374.2 -349.55 345.85 -349.55 345.85 -353.9 374.2 -353.9 374.2 -352.15 378.45 -352.15 378.45 -353.9" fill="#000000" fill-rule="evenodd" stroke="none"/>
    <path d="M-215.6 230.75 L-207.35 230.75 -207.35 304.75 -215.6 304.75 -215.6 295.5 -218.75 295.5 -218.75 288.9 -215.6 288.9 -215.6 246.65 -219.0 246.65 -219.0 240.15 -215.6 240.15 -215.6 230.75" fill="#000000" fill-rule="evenodd" stroke="none"/>
    <path d="M217.25 262.4 L217.25 268.9 213.85 268.9 213.85 311.15 217.0 311.15 217.0 317.8 213.85 317.8 213.85 327.05 205.6 327.05 205.6 253.05 213.85 253.05 213.85 262.4 217.25 262.4" fill="#000000" fill-rule="evenodd" stroke="none"/>
    <path d="M328.65 52.7 L328.65 114.2 238.5 114.2 238.5 52.7 328.65 52.7" fill="#000000" fill-rule="evenodd" stroke="none"/>
    <path d="M-274.75 57.2 L-326.4 57.2 -326.4 145.45 -274.75 145.45 -274.75 57.2 M-328.9 54.7 L-272.25 54.7 -272.25 147.95 -328.9 147.95 -328.9 54.7" fill="#000000" fill-rule="evenodd" stroke="none"/>
    <path d="M-380.7 -54.4 L-379.8 -54.4 -379.8 -52.65 -375.55 -52.65 -375.55 -54.4 -347.2 -54.4 -347.2 -50.05 -375.55 -50.05 -375.55 -51.75 -379.8 -51.75 -379.8 -50.05 -380.7 -50.05 -380.7 -54.4" fill="#000000" fill-rule="evenodd" stroke="none"/>
    <path d="M-380.7 45.65 L-379.8 45.65 -379.8 47.4 -375.55 47.4 -375.55 45.65 -347.2 45.65 -347.2 50.05 -375.55 50.05 -375.55 48.35 -379.8 48.35 -379.8 50.05 -380.7 50.05 -380.7 45.65" fill="#000000" fill-rule="evenodd" stroke="none"/>
    <path d="M-375.55 143.95 L-375.55 142.2 -347.2 142.2 -347.2 146.6 -375.55 146.6 -375.55 144.9 -379.8 144.9 -379.8 146.6 -380.7 146.6 -380.7 142.2 -379.8 142.2 -379.8 143.95 -375.55 143.95" fill="#000000" fill-rule="evenodd" stroke="none"/>
    <path d="M-375.55 247.4 L-375.55 245.65 -347.2 245.65 -347.2 250.05 -375.55 250.05 -375.55 248.3 -379.8 248.3 -379.8 250.05 -380.7 250.05 -380.7 245.65 -379.8 245.65 -379.8 247.4 -375.55 247.4" fill="#000000" fill-rule="evenodd" stroke="none"/>
    <path d="M-375.55 347.35 L-375.55 345.6 -347.2 345.6 -347.2 350.0 -375.55 350.0 -375.55 348.25 -379.8 348.25 -379.8 350.0 -380.7 350.0 -380.7 345.6 -379.8 345.6 -379.8 347.35 -375.55 347.35" fill="#000000" fill-rule="evenodd" stroke="none"/>
    <path d="M-375.55 447.35 L-375.55 445.6 -347.2 445.6 -347.2 449.95 -375.55 449.95 -375.55 448.25 -379.8 448.25 -379.8 449.95 -380.7 449.95 -380.7 445.6 -379.8 445.6 -379.8 447.35 -375.55 447.35" fill="#000000" fill-rule="evenodd" stroke="none"/>
    <path d="M-380.7 545.6 L-379.8 545.6 -379.8 547.35 -375.55 547.35 -375.55 545.6 -347.2 545.6 -347.2 550.0 -375.55 550.0 -375.55 548.3 -379.8 548.3 -379.8 550.0 -380.7 550.0 -380.7 545.6" fill="#000000" fill-rule="evenodd" stroke="none"/>
    <path d="M-375.55 -152.65 L-375.55 -154.4 -347.2 -154.4 -347.2 -150.05 -375.55 -150.05 -375.55 -151.75 -379.8 -151.75 -379.8 -150.05 -380.7 -150.05 -380.7 -154.4 -379.8 -154.4 -379.8 -152.65 -375.55 -152.65" fill="#000000" fill-rule="evenodd" stroke="none"/>
    <path d="M-347.2 -253.9 L-347.2 -249.55 -375.55 -249.55 -375.55 -251.25 -379.8 -251.25 -379.8 -249.55 -380.7 -249.55 -380.7 -253.9 -379.8 -253.9 -379.8 -252.15 -375.55 -252.15 -375.55 -253.9 -347.2 -253.9" fill="#000000" fill-rule="evenodd" stroke="none"/>
    <path d="M-274.9 -121.4 L-326.1 -121.4 -326.1 -32.9 -274.9 -32.9 -274.9 -121.4 M-328.6 -123.9 L-272.4 -123.9 -272.4 -30.4 -328.6 -30.4 -328.6 -123.9" fill="#000000" fill-rule="evenodd" stroke="none"/>
    <path d="M328.05 -148.0 L328.05 11.5 250.75 11.5 250.75 -148.0 328.05 -148.0 M325.55 -96.25 L296.5 -96.25 296.5 -79.0 294.0 -79.0 294.0 -98.75 325.55 -98.75 325.55 -145.5 254.0 -145.5 254.0 9.0 325.55 9.0 325.55 -54.5 294.0 -54.5 294.0 -66.25 296.5 -66.25 296.5 -57.0 325.55 -57.0 325.55 -96.25" fill="#000000" fill-rule="evenodd" stroke="none"/>
    <path d="M346.5 -349.25 L346.5 -277.75 246.25 -277.75 246.25 -328.0 293.5 -328.0 293.5 -349.25 346.5 -349.25 M300.6 -346.55 L300.6 -320.5 297.75 -320.5 297.75 -324.05 294.45 -324.05 294.45 -325.6 248.75 -325.6 248.75 -280.25 344.0 -280.25 344.0 -346.55 300.6 -346.55" fill="#000000" fill-rule="evenodd" stroke="none"/>
    <path d="M-326.5 144.35 L-325.9 139.1 -318.7 139.95 -319.3 145.2 -326.5 144.35" fill="#000000" fill-rule="evenodd" stroke="none"/>
    <path d="M-320.15 65.0 L-323.8 62.35 -319.0 56.7 -315.3 59.35 -320.15 65.0" fill="#000000" fill-rule="evenodd" stroke="none"/>
    <path d="M-307.65 -70.8 L-307.65 -94.5 -293.0 -94.5 -293.0 -70.8 -307.65 -70.8" fill="#000000" fill-rule="evenodd" stroke="none"/>
    <path d="M-274.9 -111.75 L-286.75 -111.75 -286.75 -121.4 -274.9 -121.4 -274.9 -111.75" fill="#000000" fill-rule="evenodd" stroke="none"/>
    <path d="M-326.0 -73.3 L-326.0 -80.15 -320.65 -80.15 -320.65 -73.3 -326.0 -73.3" fill="#000000" fill-rule="evenodd" stroke="none"/>
    <path d="M299.35 71.35 L313.0 71.35 313.0 95.7 299.35 95.7 299.35 71.35" fill="#000000" fill-rule="evenodd" stroke="none"/>
    <path d="M279.7 71.0 L294.0 71.0 294.0 95.7 279.7 95.7 279.7 71.0" fill="#000000" fill-rule="evenodd" stroke="none"/>
    <path d="M250.0 69.35 L266.0 69.35 266.0 98.0 250.0 98.0 250.0 69.35" fill="#000000" fill-rule="evenodd" stroke="none"/>
    <path d="M325.55 -63.8 L325.55 -56.65 297.2 -56.65 297.2 -63.8 325.55 -63.8" fill="#000000" fill-rule="evenodd" stroke="none"/>
    <path d="M325.55 -89.65 L297.2 -89.65 297.2 -96.5 325.55 -96.5 325.55 -89.65" fill="#000000" fill-rule="evenodd" stroke="none"/>
    <path d="M312.0 -106.5 L312.0 -98.5 295.45 -98.5 295.45 -106.5 312.0 -106.5" fill="#000000" fill-rule="evenodd" stroke="none"/>
    <path d="M325.55 -123.65 L325.55 -98.8 319.2 -98.8 319.2 -123.65 325.55 -123.65" fill="#000000" fill-rule="evenodd" stroke="none"/>
    <path d="M254.85 -116.0 L254.85 -129.65 286.0 -129.65 286.0 -116.0 254.85 -116.0" fill="#000000" fill-rule="evenodd" stroke="none"/>
    <path d="M253.7 -57.5 L253.7 -94.5 259.35 -94.5 259.35 -57.5 253.7 -57.5" fill="#000000" fill-rule="evenodd" stroke="none"/>
    <path d="M279.0 -20.3 L293.0 -20.3 293.0 -5.65 279.0 -5.65 279.0 -20.3" fill="#000000" fill-rule="evenodd" stroke="none"/>
    <path d="M255.0 -14.0 L262.0 -14.0 262.0 -1.0 255.0 -1.0 255.0 -14.0" fill="#000000" fill-rule="evenodd" stroke="none"/>
    <path d="M258.65 -22.75 L268.7 -32.0 273.85 -26.35 263.8 -17.15 258.65 -22.75" fill="#000000" fill-rule="evenodd" stroke="none"/>
    <path d="M276.35 -167.3 L285.7 -167.3 285.7 -149.3 276.35 -149.3 276.35 -167.3" fill="#000000" fill-rule="evenodd" stroke="none"/>
    <path d="M325.55 -13.3 L325.55 5.0 319.2 5.0 319.2 -13.3 325.55 -13.3" fill="#000000" fill-rule="evenodd" stroke="none"/>
    <path d="M265.15 9.0 L265.2 1.4 295.0 1.65 295.0 9.0 265.15 9.0" fill="#000000" fill-rule="evenodd" stroke="none"/>
    <path d="M310.25 -53.85 L325.55 -39.25 319.15 -33.35 304.4 -48.1 310.25 -53.85" fill="#000000" fill-rule="evenodd" stroke="none"/>
    <path d="M286.35 -325.8 L286.35 -299.15 261.2 -299.15 261.2 -325.8 286.35 -325.8" fill="#000000" fill-rule="evenodd" stroke="none"/>
    <path d="M344.5 -308.15 L344.5 -301.8 338.7 -301.8 338.7 -308.15 344.5 -308.15" fill="#000000" fill-rule="evenodd" stroke="none"/>
    <path d="M332.15 -320.55 L339.0 -323.0 343.3 -310.9 336.45 -308.45 332.15 -320.55" fill="#000000" fill-rule="evenodd" stroke="none"/>
    <path d="M343.85 -297.9 L338.45 -286.3 331.85 -289.35 337.25 -301.0 343.85 -297.9" fill="#000000" fill-rule="evenodd" stroke="none"/>
    <path d="M300.6 -346.55 L344.0 -346.55 344.0 -340.65 300.6 -340.65 300.6 -346.55" fill="#000000" fill-rule="evenodd" stroke="none"/>
    <path d="M-285.45 54.7 L-285.45 57.2 -300.3 57.2 -300.3 54.7 -285.45 54.7" fill="#000000" fill-rule="evenodd" stroke="none"/>
    <path d="M-315.9 -30.4 L-315.9 -32.9 -302.5 -32.9 -302.5 -30.4 -315.9 -30.4" fill="#000000" fill-rule="evenodd" stroke="none"/>
    <path d="M-260.0 184.0 L-240.5 184.0 -240.5 248.0 -260.0 248.0 -260.0 184.0" fill="#000000" fill-rule="evenodd" stroke="none"/>
    <path d="M-208.45 271.2 L-208.45 264.2 -203.5 264.2 -203.5 271.2 -208.45 271.2" fill="#000000" fill-rule="evenodd" stroke="none"/>
    <path d="M202.45 286.3 L207.45 286.3 207.45 293.3 202.45 293.3 202.45 286.3" fill="#000000" fill-rule="evenodd" stroke="none"/>
    <path d="M217.4 -208.7 L217.4 -247.4 273.0 -247.4 273.0 -228.7 235.15 -228.7 235.15 -227.4 273.0 -227.4 273.0 -208.7 217.4 -208.7" fill="#000000" fill-rule="evenodd" stroke="none"/>
    <path d="M328.65 134.75 L247.9 134.75 247.9 116.0 328.65 116.0 328.65 134.75" fill="#000000" fill-rule="evenodd" stroke="none"/>
    <path d="M-237.5 -177.5 L-237.5 -158.65 -300.5 -158.65 -300.5 -156.65 -320.8 -156.65 -320.8 -178.15 -300.5 -178.15 -300.5 -177.5 -237.5 -177.5" fill="#000000" fill-rule="evenodd" stroke="none"/>
    <path d="M177.6 380.5 L177.6 342.35 175.75 342.35 175.75 380.5 177.6 380.5 M153.6 327.1 L157.1 327.1 157.1 324.35 195.4 324.35 195.4 398.5 157.1 398.5 157.1 343.85 153.6 343.85 153.6 327.1 M-177.15 380.5 L-177.15 342.35 -179.0 342.35 -179.0 380.5 -177.15 380.5 M-159.3 324.35 L-159.3 327.1 -156.1 327.1 -156.1 343.85 -159.3 343.85 -159.3 398.5 -197.65 398.5 -197.65 324.35 -159.3 324.35" fill="#000000" fill-rule="evenodd" stroke="none"/>
    <path d="M400.95 378.55 L399.65 378.55 399.65 419.2 400.95 419.2 400.95 378.55 M357.7 385.7 L357.7 367.0 380.95 367.0 380.95 360.8 419.65 360.8 419.65 436.9 380.95 436.9 380.95 436.0 373.0 436.0 373.0 417.35 380.95 417.35 380.95 385.7 357.7 385.7" fill="#000000" fill-rule="evenodd" stroke="none"/>
    <path d="M-382.45 160.3 L-382.45 166.5 -359.15 166.5 -359.15 185.15 -382.45 185.15 -382.45 216.85 -374.5 216.85 -374.5 235.5 -382.45 235.5 -382.45 236.4 -421.15 236.4 -421.15 160.3 -382.45 160.3 M-401.15 178.0 L-402.45 178.0 -402.45 218.7 -401.15 218.7 -401.15 178.0" fill="#000000" fill-rule="evenodd" stroke="none"/>
    <path d="M-382.45 -140.05 L-382.45 -139.15 -374.5 -139.15 -374.5 -120.5 -382.45 -120.5 -382.45 -88.8 -359.15 -88.8 -359.15 -70.15 -382.45 -70.15 -382.45 -63.95 -421.15 -63.95 -421.15 -140.05 -382.45 -140.05 M-401.15 -122.3 L-402.45 -122.3 -402.45 -81.65 -401.15 -81.65 -401.15 -122.3" fill="#000000" fill-rule="evenodd" stroke="none"/>
    <path d="M348.6 -119.35 L348.6 -139.7 419.4 -139.7 419.4 -63.6 380.7 -63.6 380.7 -70.0 357.8 -70.0 357.8 -88.65 380.7 -88.65 380.7 -119.35 348.6 -119.35 M400.7 -122.0 L399.4 -122.0 399.4 -81.3 400.7 -81.3 400.7 -122.0" fill="#000000" fill-rule="evenodd" stroke="none"/>
    <path d="M328.05 -25.3 L328.05 -32.5 332.7 -32.5 332.7 -25.3 328.05 -25.3" fill="#000000" fill-rule="evenodd" stroke="none"/>
    <path d="M-272.25 134.35 L-274.75 134.35 -274.75 120.85 -272.25 120.85 -272.25 134.35" fill="#000000" fill-rule="evenodd" stroke="none"/>
    <path d="M-300.65 147.95 L-300.65 145.45 -287.3 145.45 -287.3 147.95 -300.65 147.95" fill="#000000" fill-rule="evenodd" stroke="none"/>
    <path d="M-328.9 87.35 L-328.9 74.0 -326.4 74.0 -326.4 87.35 -328.9 87.35" fill="#000000" fill-rule="evenodd" stroke="none"/>
    <path d="M-328.6 -65.5 L-326.1 -65.5 -326.1 -52.25 -328.6 -52.25 -328.6 -65.5" fill="#000000" fill-rule="evenodd" stroke="none"/>
    <path d="M-274.9 -110.0 L-272.4 -110.0 -272.4 -95.8 -274.9 -95.8 -274.9 -110.0" fill="#000000" fill-rule="evenodd" stroke="none"/>
    <path d="M-315.9 -121.4 L-315.9 -123.9 -302.25 -123.9 -302.25 -121.4 -315.9 -121.4" fill="#000000" fill-rule="evenodd" stroke="none"/>
    <path d="M315.75 -145.5 L302.25 -145.5 302.25 -148.0 315.75 -148.0 315.75 -145.5" fill="#000000" fill-rule="evenodd" stroke="none"/>
    <path d="M315.75 11.5 L302.25 11.5 302.25 9.0 315.75 9.0 315.75 11.5" fill="#000000" fill-rule="evenodd" stroke="none"/>
    <path d="M254.0 -35.5 L250.75 -35.5 250.75 -49.0 254.0 -49.0 254.0 -35.5" fill="#000000" fill-rule="evenodd" stroke="none"/>
    <path d="M325.55 -75.5 L325.55 -89.25 328.05 -89.25 328.05 -75.5 325.55 -75.5" fill="#000000" fill-rule="evenodd" stroke="none"/>
    <path d="M242.0 -328.0 L242.0 -347.0 293.5 -347.0 293.5 -328.0 242.0 -328.0" fill="#000000" fill-rule="evenodd" stroke="none"/>
    <path d="M311.0 -277.75 L311.0 -280.25 324.0 -280.25 324.0 -277.75 311.0 -277.75" fill="#000000" fill-rule="evenodd" stroke="none"/>
    <path d="M-332.5 -82.25 L-332.5 -89.75 -328.6 -89.75 -328.6 -82.25 -332.5 -82.25" fill="#000000" fill-rule="evenodd" stroke="none"/>
    <path d="M391.5 -368.5 L391.5 -357.5 493.5 -357.5 493.5 113.5 393.05 113.5 393.05 346.0 435.0 346.0 435.0 451.25 393.05 451.25 393.05 564.1 186.55 564.1 186.55 415.85 141.85 415.85 141.85 363.85 -143.85 363.85 -143.85 415.85 -187.0 415.85 -187.0 564.1 -395.0 564.1 -395.0 251.45 -436.5 251.45 -436.5 145.75 -395.0 145.75 -395.0 -49.25 -437.0 -49.25 -437.0 -154.25 -395.0 -154.25 -395.0 -169.5 -488.5 -169.5 -488.5 -268.5 -217.8 -268.5 -217.8 -564.5 217.7 -564.5 217.7 -368.5 391.5 -368.5" fill="#434343" fill-rule="evenodd" stroke="none"/>
    <path d="M348.6 136.35 L328.35 136.35 328.35 53.1 216.6 53.1 216.6 -207.85 273.0 -207.85 273.0 -248.3 216.7 -248.3 216.7 -253.6 216.6 -253.6 216.6 -351.1 348.6 -351.1 348.6 136.35" fill="#969696" fill-rule="evenodd" stroke="none"/>
    <path d="M-351.0 -159.1 L-239.35 -159.1 -239.35 184.0 -262.0 184.0 -261.5 245.5 -351.0 245.5 -351.0 -159.1" fill="#969696" fill-rule="evenodd" stroke="none"/>
    <path d="M205.05 345.5 L205.05 351.0 199.55 351.0 199.55 345.5 205.05 345.5" fill="#434343" fill-rule="evenodd" stroke="none"/>
    <path d="M-200.6 345.5 L-200.6 351.0 -206.1 351.0 -206.1 345.5 -200.6 345.5" fill="#434343" fill-rule="evenodd" stroke="none"/>
    <path d="M196.6 450.95 L196.6 445.45 205.1 445.45 205.1 450.95 196.6 450.95" fill="#434343" fill-rule="evenodd" stroke="none"/>
    <path d="M196.1 550.85 L196.1 545.35 204.6 545.35 204.6 550.85 196.1 550.85" fill="#434343" fill-rule="evenodd" stroke="none"/>
    <path d="M-205.35 450.95 L-205.35 445.45 -196.85 445.45 -196.85 450.95 -205.35 450.95" fill="#434343" fill-rule="evenodd" stroke="none"/>
    <path d="M-205.35 550.85 L-205.35 545.35 -196.85 545.35 -196.85 550.85 -205.35 550.85" fill="#434343" fill-rule="evenodd" stroke="none"/>
    <path d="M374.2 -51.75 L374.2 -50.05 345.85 -50.05 345.85 -54.4 374.2 -54.4 374.2 -52.65 378.45 -52.65 378.45 -54.4 379.35 -54.4 379.35 -50.05 378.45 -50.05 378.45 -51.75 374.2 -51.75" fill="#434343" fill-rule="evenodd" stroke="none"/>
    <path d="M378.45 47.4 L378.45 45.65 379.35 45.65 379.35 50.05 378.45 50.05 378.45 48.35 374.2 48.35 374.2 50.05 348.1 50.05 348.1 51.7 345.1 51.7 345.1 48.7 345.85 48.7 345.85 45.65 374.2 45.65 374.2 47.4 378.45 47.4" fill="#434343" fill-rule="evenodd" stroke="none"/>
    <path d="M374.2 144.9 L374.2 146.6 345.85 146.6 345.85 142.2 374.2 142.2 374.2 143.95 378.45 143.95 378.45 142.2 379.35 142.2 379.35 146.6 378.45 146.6 378.45 144.9 374.2 144.9" fill="#434343" fill-rule="evenodd" stroke="none"/>
    <path d="M378.45 247.4 L378.45 245.65 379.35 245.65 379.35 250.05 378.45 250.05 378.45 248.3 374.2 248.3 374.2 250.05 345.85 250.05 345.85 245.65 374.2 245.65 374.2 247.4 378.45 247.4" fill="#434343" fill-rule="evenodd" stroke="none"/>
    <path d="M374.2 348.25 L374.2 350.0 345.85 350.0 345.85 345.6 374.2 345.6 374.2 347.35 378.45 347.35 378.45 345.6 379.35 345.6 379.35 350.0 378.45 350.0 378.45 348.25 374.2 348.25" fill="#434343" fill-rule="evenodd" stroke="none"/>
    <path d="M378.45 447.35 L378.45 445.6 379.35 445.6 379.35 449.95 378.45 449.95 378.45 448.25 374.2 448.25 374.2 449.95 345.85 449.95 345.85 445.6 374.2 445.6 374.2 447.35 378.45 447.35" fill="#434343" fill-rule="evenodd" stroke="none"/>
    <path d="M374.2 548.3 L374.2 550.0 345.85 550.0 345.85 545.6 374.2 545.6 374.2 547.35 378.45 547.35 378.45 545.6 379.35 545.6 379.35 550.0 378.45 550.0 378.45 548.3 374.2 548.3" fill="#434343" fill-rule="evenodd" stroke="none"/>
    <path d="M378.45 -152.65 L378.45 -154.4 379.35 -154.4 379.35 -150.05 378.45 -150.05 378.45 -151.75 374.2 -151.75 374.2 -150.05 345.85 -150.05 345.85 -154.4 374.2 -154.4 374.2 -152.65 378.45 -152.65" fill="#434343" fill-rule="evenodd" stroke="none"/>
    <path d="M374.2 -251.25 L374.2 -249.55 345.85 -249.55 345.85 -253.9 374.2 -253.9 374.2 -252.15 378.45 -252.15 378.45 -253.9 379.35 -253.9 379.35 -249.55 378.45 -249.55 378.45 -251.25 374.2 -251.25" fill="#434343" fill-rule="evenodd" stroke="none"/>
    <path d="M378.45 -353.9 L379.35 -353.9 379.35 -349.55 378.45 -349.55 378.45 -351.25 374.2 -351.25 374.2 -349.55 345.85 -349.55 345.85 -353.9 374.2 -353.9 374.2 -352.15 378.45 -352.15 378.45 -353.9" fill="#434343" fill-rule="evenodd" stroke="none"/>
    <path d="M-215.6 230.75 L-207.35 230.75 -207.35 304.75 -215.6 304.75 -215.6 295.5 -218.75 295.5 -218.75 288.9 -215.6 288.9 -215.6 246.65 -219.0 246.65 -219.0 240.15 -215.6 240.15 -215.6 230.75" fill="#434343" fill-rule="evenodd" stroke="none"/>
    <path d="M217.25 262.4 L217.25 268.9 213.85 268.9 213.85 311.15 217.0 311.15 217.0 317.8 213.85 317.8 213.85 327.05 205.6 327.05 205.6 253.05 213.85 253.05 213.85 262.4 217.25 262.4" fill="#434343" fill-rule="evenodd" stroke="none"/>
    <path d="M328.65 52.7 L328.65 114.2 238.5 114.2 238.5 52.7 328.65 52.7" fill="#434343" fill-rule="evenodd" stroke="none"/>
    <path d="M-274.75 57.2 L-326.4 57.2 -326.4 145.45 -274.75 145.45 -274.75 57.2 M-328.9 54.7 L-272.25 54.7 -272.25 147.95 -328.9 147.95 -328.9 54.7" fill="#434343" fill-rule="evenodd" stroke="none"/>
    <path d="M-380.7 -54.4 L-379.8 -54.4 -379.8 -52.65 -375.55 -52.65 -375.55 -54.4 -347.2 -54.4 -347.2 -50.05 -375.55 -50.05 -375.55 -51.75 -379.8 -51.75 -379.8 -50.05 -380.7 -50.05 -380.7 -54.4" fill="#434343" fill-rule="evenodd" stroke="none"/>
    <path d="M-380.7 45.65 L-379.8 45.65 -379.8 47.4 -375.55 47.4 -375.55 45.65 -347.2 45.65 -347.2 50.05 -375.55 50.05 -375.55 48.35 -379.8 48.35 -379.8 50.05 -380.7 50.05 -380.7 45.65" fill="#434343" fill-rule="evenodd" stroke="none"/>
    <path d="M-375.55 143.95 L-375.55 142.2 -347.2 142.2 -347.2 146.6 -375.55 146.6 -375.55 144.9 -379.8 144.9 -379.8 146.6 -380.7 146.6 -380.7 142.2 -379.8 142.2 -379.8 143.95 -375.55 143.95" fill="#434343" fill-rule="evenodd" stroke="none"/>
    <path d="M-375.55 247.4 L-375.55 245.65 -347.2 245.65 -347.2 250.05 -375.55 250.05 -375.55 248.3 -379.8 248.3 -379.8 250.05 -380.7 250.05 -380.7 245.65 -379.8 245.65 -379.8 247.4 -375.55 247.4" fill="#434343" fill-rule="evenodd" stroke="none"/>
    <path d="M-375.55 347.35 L-375.55 345.6 -347.2 345.6 -347.2 350.0 -375.55 350.0 -375.55 348.25 -379.8 348.25 -379.8 350.0 -380.7 350.0 -380.7 345.6 -379.8 345.6 -379.8 347.35 -375.55 347.35" fill="#434343" fill-rule="evenodd" stroke="none"/>
    <path d="M-375.55 447.35 L-375.55 445.6 -347.2 445.6 -347.2 449.95 -375.55 449.95 -375.55 448.25 -379.8 448.25 -379.8 449.95 -380.7 449.95 -380.7 445.6 -379.8 445.6 -379.8 447.35 -375.55 447.35" fill="#434343" fill-rule="evenodd" stroke="none"/>
    <path d="M-380.7 545.6 L-379.8 545.6 -379.8 547.35 -375.55 547.35 -375.55 545.6 -347.2 545.6 -347.2 550.0 -375.55 550.0 -375.55 548.3 -379.8 548.3 -379.8 550.0 -380.7 550.0 -380.7 545.6" fill="#434343" fill-rule="evenodd" stroke="none"/>
    <path d="M-375.55 -152.65 L-375.55 -154.4 -347.2 -154.4 -347.2 -150.05 -375.55 -150.05 -375.55 -151.75 -379.8 -151.75 -379.8 -150.05 -380.7 -150.05 -380.7 -154.4 -379.8 -154.4 -379.8 -152.65 -375.55 -152.65" fill="#434343" fill-rule="evenodd" stroke="none"/>
    <path d="M-347.2 -253.9 L-347.2 -249.55 -375.55 -249.55 -375.55 -251.25 -379.8 -251.25 -379.8 -249.55 -380.7 -249.55 -380.7 -253.9 -379.8 -253.9 -379.8 -252.15 -375.55 -252.15 -375.55 -253.9 -347.2 -253.9" fill="#434343" fill-rule="evenodd" stroke="none"/>
    <path d="M-274.9 -121.4 L-326.1 -121.4 -326.1 -32.9 -274.9 -32.9 -274.9 -121.4 M-328.6 -123.9 L-272.4 -123.9 -272.4 -30.4 -328.6 -30.4 -328.6 -123.9" fill="#434343" fill-rule="evenodd" stroke="none"/>
    <path d="M328.05 -148.0 L328.05 11.5 250.75 11.5 250.75 -148.0 328.05 -148.0 M325.55 -96.25 L296.5 -96.25 296.5 -79.0 294.0 -79.0 294.0 -98.75 325.55 -98.75 325.55 -145.5 254.0 -145.5 254.0 9.0 325.55 9.0 325.55 -54.5 294.0 -54.5 294.0 -66.25 296.5 -66.25 296.5 -57.0 325.55 -57.0 325.55 -96.25" fill="#434343" fill-rule="evenodd" stroke="none"/>
    <path d="M-307.65 -70.8 L-307.65 -94.5 -293.0 -94.5 -293.0 -70.8 -307.65 -70.8" fill="#707070" fill-rule="evenodd" stroke="none"/>
    <path d="M-274.9 -111.75 L-286.75 -111.75 -286.75 -121.4 -274.9 -121.4 -274.9 -111.75" fill="#707070" fill-rule="evenodd" stroke="none"/>
    <path d="M299.35 71.35 L313.0 71.35 313.0 95.7 299.35 95.7 299.35 71.35" fill="#707070" fill-rule="evenodd" stroke="none"/>
    <path d="M279.7 71.0 L294.0 71.0 294.0 95.7 279.7 95.7 279.7 71.0" fill="#707070" fill-rule="evenodd" stroke="none"/>
    <path d="M250.0 69.35 L266.0 69.35 266.0 98.0 250.0 98.0 250.0 69.35" fill="#707070" fill-rule="evenodd" stroke="none"/>
    <path d="M325.55 -63.8 L325.55 -56.65 297.2 -56.65 297.2 -63.8 325.55 -63.8" fill="#707070" fill-rule="evenodd" stroke="none"/>
    <path d="M325.55 -89.65 L297.2 -89.65 297.2 -96.5 325.55 -96.5 325.55 -89.65" fill="#707070" fill-rule="evenodd" stroke="none"/>
    <path d="M312.0 -106.5 L312.0 -98.5 295.45 -98.5 295.45 -106.5 312.0 -106.5" fill="#707070" fill-rule="evenodd" stroke="none"/>
    <path d="M254.85 -116.0 L254.85 -129.65 286.0 -129.65 286.0 -116.0 254.85 -116.0" fill="#707070" fill-rule="evenodd" stroke="none"/>
    <path d="M276.35 -167.3 L285.7 -167.3 285.7 -149.3 276.35 -149.3 276.35 -167.3" fill="#707070" fill-rule="evenodd" stroke="none"/>
    <path d="M-285.45 54.7 L-285.45 57.2 -300.3 57.2 -300.3 54.7 -285.45 54.7" fill="#ffffff" fill-rule="evenodd" stroke="none"/>
    <path d="M-315.9 -30.4 L-315.9 -32.9 -302.5 -32.9 -302.5 -30.4 -315.9 -30.4" fill="#ffffff" fill-rule="evenodd" stroke="none"/>
    <path d="M-260.0 184.0 L-240.5 184.0 -240.5 248.0 -260.0 248.0 -260.0 184.0" fill="#ffffff" fill-rule="evenodd" stroke="none"/>
    <path d="M-208.45 271.2 L-208.45 264.2 -203.5 264.2 -203.5 271.2 -208.45 271.2" fill="#ffffff" fill-rule="evenodd" stroke="none"/>
    <path d="M202.45 286.3 L207.45 286.3 207.45 293.3 202.45 293.3 202.45 286.3" fill="#ffffff" fill-rule="evenodd" stroke="none"/>
    <path d="M217.4 -208.7 L217.4 -247.4 273.0 -247.4 273.0 -228.7 235.15 -228.7 235.15 -227.4 273.0 -227.4 273.0 -208.7 217.4 -208.7" fill="#ffffff" fill-rule="evenodd" stroke="none"/>
    <path d="M328.65 134.75 L247.9 134.75 247.9 116.0 328.65 116.0 328.65 134.75" fill="#ffffff" fill-rule="evenodd" stroke="none"/>
    <path d="M-237.5 -177.5 L-237.5 -158.65 -300.5 -158.65 -300.5 -156.65 -320.8 -156.65 -320.8 -178.15 -300.5 -178.15 -300.5 -177.5 -237.5 -177.5" fill="#ffffff" fill-rule="evenodd" stroke="none"/>
    <path d="M177.6 380.5 L177.6 342.35 175.75 342.35 175.75 380.5 177.6 380.5 M153.6 327.1 L157.1 327.1 157.1 324.35 195.4 324.35 195.4 398.5 157.1 398.5 157.1 343.85 153.6 343.85 153.6 327.1 M-177.15 380.5 L-177.15 342.35 -179.0 342.35 -179.0 380.5 -177.15 380.5 M-159.3 324.35 L-159.3 327.1 -156.1 327.1 -156.1 343.85 -159.3 343.85 -159.3 398.5 -197.65 398.5 -197.65 324.35 -159.3 324.35" fill="#ffffff" fill-rule="evenodd" stroke="none"/>
    <path d="M400.95 378.55 L399.65 378.55 399.65 419.2 400.95 419.2 400.95 378.55 M357.7 385.7 L357.7 367.0 380.95 367.0 380.95 360.8 419.65 360.8 419.65 436.9 380.95 436.9 380.95 436.0 373.0 436.0 373.0 417.35 380.95 417.35 380.95 385.7 357.7 385.7" fill="#ffffff" fill-rule="evenodd" stroke="none"/>
    <path d="M-382.45 160.3 L-382.45 166.5 -359.15 166.5 -359.15 185.15 -382.45 185.15 -382.45 216.85 -374.5 216.85 -374.5 235.5 -382.45 235.5 -382.45 236.4 -421.15 236.4 -421.15 160.3 -382.45 160.3 M-401.15 178.0 L-402.45 178.0 -402.45 218.7 -401.15 218.7 -401.15 178.0" fill="#ffffff" fill-rule="evenodd" stroke="none"/>
    <path d="M-382.45 -140.05 L-382.45 -139.15 -374.5 -139.15 -374.5 -120.5 -382.45 -120.5 -382.45 -88.8 -359.15 -88.8 -359.15 -70.15 -382.45 -70.15 -382.45 -63.95 -421.15 -63.95 -421.15 -140.05 -382.45 -140.05 M-401.15 -122.3 L-402.45 -122.3 -402.45 -81.65 -401.15 -81.65 -401.15 -122.3" fill="#ffffff" fill-rule="evenodd" stroke="none"/>
    <path d="M348.6 -119.35 L348.6 -139.7 419.4 -139.7 419.4 -63.6 380.7 -63.6 380.7 -70.0 357.8 -70.0 357.8 -88.65 380.7 -88.65 380.7 -119.35 348.6 -119.35 M400.7 -122.0 L399.4 -122.0 399.4 -81.3 400.7 -81.3 400.7 -122.0" fill="#ffffff" fill-rule="evenodd" stroke="none"/>
    <path d="M328.05 -25.3 L328.05 -32.5 332.7 -32.5 332.7 -25.3 328.05 -25.3" fill="#ffffff" fill-rule="evenodd" stroke="none"/>
    <path d="M-272.25 134.35 L-274.75 134.35 -274.75 120.85 -272.25 120.85 -272.25 134.35" fill="#ffffff" fill-rule="evenodd" stroke="none"/>
    <path d="M-300.65 147.95 L-300.65 145.45 -287.3 145.45 -287.3 147.95 -300.65 147.95" fill="#ffffff" fill-rule="evenodd" stroke="none"/>
    <path d="M-328.9 87.35 L-328.9 74.0 -326.4 74.0 -326.4 87.35 -328.9 87.35" fill="#ffffff" fill-rule="evenodd" stroke="none"/>
    <path d="M-328.6 -65.5 L-326.1 -65.5 -326.1 -52.25 -328.6 -52.25 -328.6 -65.5" fill="#ffffff" fill-rule="evenodd" stroke="none"/>
    <path d="M-274.9 -110.0 L-272.4 -110.0 -272.4 -95.8 -274.9 -95.8 -274.9 -110.0" fill="#ffffff" fill-rule="evenodd" stroke="none"/>
    <path d="M-315.9 -121.4 L-315.9 -123.9 -302.25 -123.9 -302.25 -121.4 -315.9 -121.4" fill="#ffffff" fill-rule="evenodd" stroke="none"/>
    <path d="M315.75 -145.5 L302.25 -145.5 302.25 -148.0 315.75 -148.0 315.75 -145.5" fill="#ffffff" fill-rule="evenodd" stroke="none"/>
    <path d="M315.75 11.5 L302.25 11.5 302.25 9.0 315.75 9.0 315.75 11.5" fill="#ffffff" fill-rule="evenodd" stroke="none"/>
    <path d="M254.0 -35.5 L250.75 -35.5 250.75 -49.0 254.0 -49.0 254.0 -35.5" fill="#ffffff" fill-rule="evenodd" stroke="none"/>
    <path d="M325.55 -75.5 L325.55 -89.25 328.05 -89.25 328.05 -75.5 325.55 -75.5" fill="#ffffff" fill-rule="evenodd" stroke="none"/>
    <path d="M-332.5 -82.25 L-332.5 -89.75 -328.6 -89.75 -328.6 -82.25 -332.5 -82.25" fill="#ffffff" fill-rule="evenodd" stroke="none"/>
  </g>
</svg>
