<?xml version="1.0" encoding="UTF-8" standalone="no"?>
<svg xmlns:ffdec="https://www.free-decompiler.com/flash" xmlns:xlink="http://www.w3.org/1999/xlink" ffdec:objectType="shape" height="141.95px" width="191.45px" xmlns="http://www.w3.org/2000/svg">
  <g transform="matrix(1.0, 0.0, 0.0, 1.0, 43.95, 43.45)">
    <path d="M147.5 -43.45 L147.5 98.5 -43.95 98.5 -43.95 -43.45 147.5 -43.45" fill="#424242" fill-rule="evenodd" stroke="none"/>
    <path d="M-14.95 -41.45 L-14.95 -40.45 -12.95 -40.45 -12.95 -41.45 7.55 -41.45 7.55 -40.45 8.55 -40.45 8.55 -41.45 22.05 -41.45 22.05 -40.45 39.55 -40.45 39.55 11.55 Q41.05 14.55 42.05 17.55 41.05 22.55 39.55 27.55 L39.55 40.05 5.05 40.05 -0.45 42.05 -6.45 40.05 -39.95 40.05 -39.95 22.55 -41.45 22.55 -41.45 9.55 -39.95 9.55 -39.95 6.55 -41.45 6.55 -41.45 -13.45 -39.95 -13.45 -39.95 -14.45 -41.45 -14.45 -41.45 -27.45 -39.95 -27.45 -39.95 -40.45 -27.95 -40.45 -27.95 -41.45 -14.95 -41.45" fill="#959595" fill-rule="evenodd" stroke="none"/>
    <path d="M10.05 -24.45 L10.05 -10.45 -15.95 -10.45 -15.95 -24.45 10.05 -24.45" fill="#6f6f6f" fill-rule="evenodd" stroke="none"/>
    <path d="M-32.45 23.05 L-32.45 32.05 -18.95 32.05 -18.95 40.05 -39.95 40.05 -39.95 23.05 -32.45 23.05" fill="#6f6f6f" fill-rule="evenodd" stroke="none"/>
    <path d="M17.55 32.55 L39.55 32.55 39.55 40.05 17.55 40.05 17.55 32.55" fill="#6f6f6f" fill-rule="evenodd" stroke="none"/>
    <path d="M28.05 -25.95 L37.05 -25.95 37.05 -0.95 28.05 -0.95 28.05 -25.95" fill="#6f6f6f" fill-rule="evenodd" stroke="none"/>
    <path d="M-31.45 18.05 L-34.95 20.05 -39.95 13.55 Q-38.45 13.05 -36.95 12.05 L-35.95 10.55 -33.45 11.05 -31.45 12.05 Q-30.45 13.55 -29.95 15.05 -30.45 16.55 -31.45 18.05" fill="#6f6f6f" fill-rule="evenodd" stroke="none"/>
    <path d="M37.55 -37.45 L37.55 -29.45 29.55 -29.45 29.55 -37.45 37.55 -37.45" fill="#6f6f6f" fill-rule="evenodd" stroke="none"/>
    <path d="M36.05 6.55 L37.55 7.05 Q38.05 7.55 38.05 8.05 38.05 9.05 37.55 9.55 37.05 10.05 36.55 10.05 36.05 10.05 35.55 9.55 35.55 9.05 35.05 8.55 L35.05 7.55 36.05 6.55" fill="#6f6f6f" fill-rule="evenodd" stroke="none"/>
    <path d="M-35.95 -35.95 L-33.95 -36.95 -31.95 -36.95 -29.95 -35.95 -28.95 -34.45 -28.95 -32.45 Q-28.95 -31.45 -29.45 -30.45 L-31.45 -29.45 Q-32.45 -28.95 -33.45 -28.95 L-35.45 -29.95 -36.45 -31.95 -36.45 -33.95 Q-35.95 -34.95 -35.95 -35.95" fill="#6f6f6f" fill-rule="evenodd" stroke="none"/>
    <path d="M-35.45 -22.45 Q-34.45 -23.95 -33.45 -25.95 -32.45 -24.45 -31.45 -23.45 -31.95 -22.45 -32.45 -21.95 -33.95 -21.95 -35.45 -22.45" fill="#6f6f6f" fill-rule="evenodd" stroke="none"/>
    <path d="M-13.95 35.05 L12.05 35.05 12.05 40.05 5.05 40.05 5.05 43.05 -7.45 43.05 -7.45 40.05 -13.95 40.05 -13.95 35.05" fill="#6f6f6f" fill-rule="evenodd" stroke="none"/>
    <path d="M42.55 27.55 L39.55 27.55 39.55 11.55 42.55 11.55 42.55 27.55" fill="#ffffff" fill-rule="evenodd" stroke="none"/>
  </g>
</svg>
