<?xml version="1.0" encoding="UTF-8" standalone="no"?>
<svg xmlns:ffdec="https://www.free-decompiler.com/flash" xmlns:xlink="http://www.w3.org/1999/xlink" ffdec:objectType="shape" height="4972.0px" width="3773.3px" xmlns="http://www.w3.org/2000/svg">
  <g transform="matrix(1.0, 0.0, 0.0, 1.0, 1940.4, 2635.9)">
    <path d="M1337.6 453.2 L1351.1 496.25 1364.45 531.3 1380.95 564.9 1410.8 617.55 1523.5 767.3 1560.4 781.8 1602.85 794.35 1647.0 842.6 1663.35 886.3 1667.1 936.4 1675.0 964.85 1706.55 1005.7 1749.15 1079.9 1794.1 1187.35 1808.4 1240.8 1823.3 1307.75 1831.2 1364.0 1832.9 1411.15 1828.2 1508.9 1814.5 1577.4 1791.75 1676.55 1730.6 1800.55 1662.55 1895.15 1604.1 1964.3 1568.9 2012.05 1542.05 2066.4 1518.8 2121.4 1503.4 2192.3 1608.5 2221.35 1592.95 2277.45 1578.5 2336.1 1345.45 2270.85 1359.6 2215.7 1372.8 2162.75 1381.45 2164.65 1402.5 2082.6 1427.65 2017.85 1466.45 1942.3 1500.85 1893.25 1576.0 1806.8 1626.25 1739.4 1665.25 1651.9 1694.8 1551.3 1702.3 1507.8 1707.65 1414.1 1696.2 1316.4 1689.45 1270.0 1677.0 1227.45 1640.9 1141.0 1622.5 1104.7 1586.65 1056.8 1527.6 973.5 1470.4 898.55 1433.9 881.55 1407.05 864.3 1391.0 845.6 1379.55 814.95 1378.75 781.3 1364.15 758.2 1309.15 685.75 1272.7 626.05 1256.35 594.3 1236.4 549.2 1218.15 490.45 1195.55 379.8 1166.8 285.05 1145.7 250.95 1127.2 214.95 1081.6 156.05 1043.6 101.65 967.85 0.3 950.7 -4.25 926.8 -15.4 899.15 -33.15 883.6 -74.8 882.8 -108.45 868.05 -131.7 819.65 -196.45 775.95 -243.25 735.75 -283.65 686.85 -315.85 635.15 -342.4 594.6 -365.65 502.7 -401.95 423.0 -414.7 368.5 -415.8 307.7 -418.95 238.7 -427.75 203.65 -434.65 156.05 -447.05 100.4 -468.45 23.25 -505.85 -11.8 -525.35 -69.95 -563.35 -99.15 -585.65 -135.8 -617.1 -176.45 -660.8 -229.25 -728.05 -252.2 -761.05 -287.9 -820.6 -303.9 -852.5 -323.55 -897.75 -340.85 -954.65 -360.0 -1038.1 -382.15 -1164.25 -398.5 -1228.85 -423.8 -1258.85 -434.05 -1275.55 -440.0 -1304.3 -436.55 -1331.65 -422.7 -1358.2 -421.0 -1374.85 -429.65 -1431.9 -440.45 -1444.95 -468.45 -1455.6 -524.4 -1449.65 -558.5 -1433.0 -574.35 -1408.0 -565.7 -1394.65 -557.05 -1386.0 -512.6 -1356.3 -570.1 -1246.6 -632.35 -1281.95 -646.95 -1292.05 -695.65 -1333.5 Q-761.2 -1251.65 -826.9 -1169.95 L-861.15 -1196.5 -877.35 -1177.3 -968.95 -1252.1 Q-959.65 -1262.65 -950.55 -1273.35 L-969.55 -1292.5 Q-964.7 -1298.95 -960.0 -1305.55 L-1025.5 -1332.25 -1029.6 -1332.55 Q-1036.85 -1328.95 -1044.2 -1325.5 L-1052.7 -1317.15 -1056.0 -1311.35 -1073.6 -1249.15 Q-1064.15 -1243.95 -1054.9 -1238.9 L-1046.25 -1230.9 -1042.35 -1223.05 -1041.55 -1214.25 -1047.2 -1198.85 -1066.7 -1162.25 -1078.0 -1149.2 Q-1082.7 -1146.5 -1087.45 -1144.0 L-1095.3 -1142.25 -1103.95 -1143.2 -1110.05 -1144.95 -1150.75 -1170.7 -1151.4 -1171.05 -1204.2 -1209.05 -1246.6 -1231.7 -1285.1 -1247.25 -1346.7 -1259.5 -1369.05 -1261.25 -1428.6 -1257.75 -1461.6 -1250.85 -1522.55 -1231.35 -1559.15 -1226.8 -1591.25 -1229.5 -1618.55 -1234.65 -1652.85 -1246.15 -1674.2 -1255.25 -1703.1 -1270.5 -1721.2 -1282.6 -1740.05 -1301.75 -1755.75 -1322.35 -1764.7 -1339.35 -1791.45 -1335.55 -1831.95 -1783.25 -1831.65 -1807.75 Q-1828.35 -1821.75 -1825.2 -1835.75 -1822.55 -1840.3 -1820.05 -1845.0 L-1817.65 -1853.8 -1817.65 -1867.8 -1940.4 -1867.8 -1940.4 -2305.3 -1780.75 -2305.3 -1780.75 -2456.45 -1623.6 -2456.45 -1623.6 -2434.45 -1602.25 -2434.45 -1602.25 -2451.75 -1606.65 -2455.85 -1616.2 -2468.85 -1620.0 -2476.4 Q-1622.05 -2482.85 -1624.25 -2489.3 L-1625.65 -2503.15 -1624.25 -2515.7 -1619.5 -2531.4 -1611.35 -2545.4 -1602.4 -2555.0 -1602.4 -2597.4 -1427.95 -2597.4 -1411.15 -2621.95 -1337.75 -2635.9 -1276.0 -2593.65 -1262.15 -2520.25 -1304.3 -2458.5 -1377.85 -2444.65 -1433.15 -2485.7 -1463.8 -2485.7 -1463.8 -2503.75 -1486.25 -2503.75 -1486.25 -2503.45 -1487.65 -2489.0 -1491.75 -2475.45 -1499.95 -2461.5 -1505.25 -2455.2 -1508.75 -2451.9 -1508.75 -2331.85 -1623.6 -2331.85 -1623.6 -2305.3 -1553.05 -2305.3 -1553.05 -1867.95 -1589.5 -1867.95 -1589.5 -1830.1 -1672.95 -1830.1 -1683.45 -1827.55 Q-1688.35 -1823.95 -1693.35 -1820.5 L-1698.7 -1812.35 -1701.55 -1801.35 -1702.35 -1789.05 -1694.8 -1716.0 -1621.7 -1721.2 -1602.7 -1721.05 -1584.65 -1718.65 -1564.35 -1713.5 -1543.0 -1704.05 -1525.55 -1694.0 -1508.9 -1681.6 -1485.45 -1657.85 -1469.15 -1634.45 -1453.75 -1604.45 -1446.05 -1583.7 -1445.1 -1582.75 -1438.95 -1581.0 -1377.85 -1572.05 -1282.9 -1573.65 -1282.9 -1487.05 -1026.15 -1487.05 -928.7 -1445.25 -936.9 -1423.55 -902.65 -1410.2 -862.25 -1460.5 -835.55 -1438.5 Q-780.85 -1504.8 -726.3 -1571.25 L-651.85 -1506.85 -628.75 -1546.9 -596.5 -1567.2 -506.95 -1595.15 -469.05 -1597.05 -414.05 -1591.85 -387.5 -1579.6 -361.45 -1563.4 -343.05 -1548.0 -325.3 -1525.7 -313.2 -1503.7 -304.05 -1481.85 -286.15 -1390.1 -272.95 -1291.25 -265.9 -1280.7 -243.55 -1265.3 -225.8 -1239.4 -212.95 -1171.05 -216.4 -1136.95 -239.95 -1107.4 -242.15 -1089.45 -234.3 -1057.1 -221.4 -992.5 -208.35 -949.75 -195.35 -914.55 -162.95 -849.5 -149.6 -827.85 -129.8 -800.15 -100.4 -766.05 -85.65 -747.05 -55.15 -714.2 -28.0 -688.45 29.7 -644.15 51.05 -630.45 81.25 -614.25 144.1 -586.0 185.9 -569.8 221.55 -558.35 292.9 -544.05 318.05 -541.05 349.95 -539.8 386.4 -540.25 414.85 -539.0 481.15 -529.9 593.85 -498.95 Q619.3 -488.1 644.75 -477.4 L677.1 -461.05 728.65 -432.15 789.65 -393.95 865.85 -330.3 913.6 -275.0 965.8 -205.7 989.7 -171.9 1032.75 -123.35 Q1048.6 -115.5 1064.5 -107.8 L1096.05 -95.55 1121.05 -79.05 1155.6 -26.1 1165.2 1.55 1163.65 27.5 1185.95 79.35 1223.5 129.3 1253.5 188.55 1299.4 296.05 1314.35 349.3 1337.6 453.2" fill="#434343" fill-rule="evenodd" stroke="none"/>
    <path d="M-1584.45 -2273.85 L-1584.45 -1899.4 -1908.95 -1899.4 -1908.95 -2273.85 -1584.45 -2273.85" fill="#434343" fill-rule="evenodd" stroke="none"/>
    <path d="M-1782.65 -2013.3 L-1782.65 -2019.9 -1775.55 -2019.9 -1775.55 -2027.0 -1793.3 -2027.0 -1793.3 -2004.35 -1782.65 -2004.35 -1782.65 -2009.25 -1777.9 -2009.25 -1777.9 -2013.3 -1782.65 -2013.3 M-1740.2 -2093.95 L-1753.25 -2093.95 -1753.25 -2079.45 -1740.2 -2079.45 -1740.2 -2093.95 M-1750.55 -2101.8 L-1750.55 -2102.75 -1766.3 -2102.75 -1766.3 -2070.35 -1750.55 -2070.35 -1750.55 -2071.6 -1760.3 -2071.6 -1760.3 -2101.8 -1750.55 -2101.8 M-1793.3 -2138.85 L-1793.3 -2135.1 -1834.5 -2135.1 -1834.5 -2117.8 -1812.15 -2117.8 -1812.15 -2101.8 -1801.65 -2101.8 -1801.65 -2096.9 -1797.1 -2096.9 -1797.1 -2101.8 -1793.8 -2101.8 -1793.8 -2071.6 -1797.1 -2071.6 -1797.1 -2076.5 -1801.65 -2076.5 -1801.65 -2071.6 -1812.15 -2071.6 -1812.15 -2055.45 -1834.5 -2055.45 -1834.5 -2038.15 -1793.3 -2038.15 -1793.3 -2034.55 -1775.55 -2034.55 -1775.55 -2044.9 -1785.0 -2044.9 -1785.0 -2076.5 -1778.25 -2076.5 -1778.25 -2096.9 -1785.0 -2096.9 -1785.0 -2128.35 -1775.55 -2128.35 -1775.55 -2138.85 -1793.3 -2138.85 M-1782.65 -2168.9 L-1793.3 -2168.9 -1793.3 -2146.4 -1775.55 -2146.4 -1775.55 -2153.35 -1782.65 -2153.35 -1782.65 -2160.1 -1777.9 -2160.1 -1777.9 -2164.15 -1782.65 -2164.15 -1782.65 -2168.9 M-1717.9 -2027.0 L-1717.9 -2019.9 -1710.8 -2019.9 -1710.8 -2013.3 -1715.55 -2013.3 -1715.55 -2009.25 -1710.8 -2009.25 -1710.8 -2004.35 -1700.15 -2004.35 -1700.15 -2027.0 -1717.9 -2027.0 M-1727.15 -2070.35 L-1727.15 -2102.75 -1742.85 -2102.75 -1742.85 -2101.8 -1733.15 -2101.8 -1733.15 -2071.6 -1742.85 -2071.6 -1742.85 -2070.35 -1727.15 -2070.35 M-1730.3 -2054.35 L-1730.3 -2058.9 -1734.55 -2058.9 -1734.55 -2055.9 -1758.9 -2055.9 -1758.9 -2058.9 -1763.15 -2058.9 -1763.15 -2054.35 -1758.6 -2054.35 -1758.6 -2044.9 -1767.7 -2044.9 -1767.7 -2019.9 -1763.45 -2019.9 -1763.45 -2029.95 -1758.9 -2029.95 -1758.9 -2032.8 -1763.45 -2032.8 -1763.45 -2037.05 -1730.15 -2037.05 -1730.15 -2032.8 -1734.55 -2032.8 -1734.55 -2029.95 -1730.15 -2029.95 -1730.15 -2019.9 -1725.75 -2019.9 -1725.75 -2044.9 -1734.85 -2044.9 -1734.85 -2054.35 -1730.3 -2054.35 M-1717.9 -2138.85 L-1717.9 -2128.35 -1708.45 -2128.35 -1708.45 -2096.9 -1715.2 -2096.9 -1715.2 -2076.5 -1708.45 -2076.5 -1708.45 -2044.9 -1717.9 -2044.9 -1717.9 -2034.55 -1700.15 -2034.55 -1700.15 -2038.15 -1658.95 -2038.15 -1658.95 -2055.45 -1681.25 -2055.45 -1681.25 -2071.6 -1691.95 -2071.6 -1691.95 -2076.5 -1696.2 -2076.5 -1696.2 -2071.6 -1699.5 -2071.6 -1699.5 -2101.8 -1696.2 -2101.8 -1696.2 -2096.9 -1691.95 -2096.9 -1691.95 -2101.8 -1681.25 -2101.8 -1681.25 -2117.8 -1658.95 -2117.8 -1658.95 -2135.1 -1700.15 -2135.1 -1700.15 -2138.85 -1717.9 -2138.85 M-1725.75 -2153.35 L-1730.15 -2153.35 -1730.15 -2143.9 -1734.55 -2143.9 -1734.55 -2139.2 -1730.15 -2139.2 -1730.15 -2135.75 -1763.3 -2135.75 -1763.3 -2139.2 -1758.9 -2139.2 -1758.9 -2143.9 -1763.3 -2143.9 -1763.3 -2153.35 -1767.7 -2153.35 -1767.7 -2128.35 -1758.6 -2128.35 -1758.6 -2118.75 -1763.15 -2118.75 -1763.15 -2114.5 -1758.9 -2114.5 -1758.9 -2117.5 -1734.55 -2117.5 -1734.55 -2114.5 -1730.3 -2114.5 -1730.3 -2118.75 -1734.85 -2118.75 -1734.85 -2128.35 -1725.75 -2128.35 -1725.75 -2153.35 M-1700.15 -2168.9 L-1710.8 -2168.9 -1710.8 -2164.15 -1715.55 -2164.15 -1715.55 -2160.1 -1710.8 -2160.1 -1710.8 -2153.35 -1717.9 -2153.35 -1717.9 -2146.4 -1700.15 -2146.4 -1700.15 -2168.9 M-1723.4 -2182.85 L-1723.4 -2187.75 -1687.4 -2187.75 -1687.4 -2150.2 -1642.45 -2150.2 -1642.45 -2107.9 -1650.8 -2107.9 -1650.8 -2094.55 -1672.3 -2094.55 -1672.3 -2078.7 -1650.8 -2078.7 -1650.8 -2065.35 -1642.45 -2065.35 -1642.45 -2023.05 -1687.4 -2023.05 -1687.4 -1985.8 -1723.4 -1985.8 -1723.4 -1990.35 -1738.15 -1990.35 -1738.15 -2013.65 -1755.3 -2013.65 -1755.3 -1990.35 -1770.05 -1990.35 -1770.05 -1985.8 -1806.05 -1985.8 -1806.05 -2023.05 -1851.0 -2023.05 -1851.0 -2065.35 -1842.65 -2065.35 -1842.65 -2078.7 -1820.95 -2078.7 -1820.95 -2094.55 -1842.65 -2094.55 -1842.65 -2107.9 -1851.0 -2107.9 -1851.0 -2150.2 -1806.05 -2150.2 -1806.05 -2187.75 -1770.05 -2187.75 -1770.05 -2182.85 -1755.3 -2182.85 -1755.3 -2159.6 -1738.15 -2159.6 -1738.15 -2182.85 -1723.4 -2182.85" fill="#000000" fill-rule="evenodd" stroke="none"/>
    <path d="M-1640.75 -2136.35 L-1639.8 -2136.35 -1639.8 -2137.75 -1643.25 -2137.75 -1643.25 -2142.95 -1639.8 -2142.95 -1639.8 -2144.05 -1619.2 -2144.05 -1619.2 -2153.65 -1617.95 -2153.65 -1617.95 -2153.8 -1612.3 -2153.8 -1612.3 -2153.65 -1611.35 -2153.65 -1611.35 -2136.05 -1612.6 -2136.05 -1612.6 -2117.2 -1640.75 -2117.2 -1640.75 -2136.35" fill="#000000" fill-rule="evenodd" stroke="none"/>
    <path d="M-1612.6 -2056.2 L-1612.6 -2037.35 -1611.35 -2037.35 -1611.35 -2019.75 -1612.3 -2019.75 -1612.3 -2019.45 -1617.95 -2019.45 -1617.95 -2019.75 -1619.2 -2019.75 -1619.2 -2029.2 -1639.8 -2029.2 -1639.8 -2030.3 -1643.25 -2030.3 -1643.25 -2035.45 -1639.8 -2035.45 -1639.8 -2037.05 -1640.75 -2037.05 -1640.75 -2056.2 -1612.6 -2056.2" fill="#000000" fill-rule="evenodd" stroke="none"/>
    <path d="M-1882.1 -2153.65 L-1881.15 -2153.65 -1881.15 -2153.8 -1875.5 -2153.8 -1875.5 -2153.65 -1874.25 -2153.65 -1874.25 -2144.05 -1853.65 -2144.05 -1853.65 -2142.95 -1850.2 -2142.95 -1850.2 -2137.75 -1853.65 -2137.75 -1853.65 -2136.35 -1852.7 -2136.35 -1852.7 -2117.2 -1880.85 -2117.2 -1880.85 -2136.05 -1882.1 -2136.05 -1882.1 -2153.65" fill="#000000" fill-rule="evenodd" stroke="none"/>
    <path d="M-1852.7 -2056.2 L-1852.7 -2037.05 -1853.65 -2037.05 -1853.65 -2035.45 -1850.2 -2035.45 -1850.2 -2030.3 -1853.65 -2030.3 -1853.65 -2029.2 -1874.25 -2029.2 -1874.25 -2019.75 -1875.5 -2019.75 -1875.5 -2019.45 -1881.15 -2019.45 -1881.15 -2019.75 -1882.1 -2019.75 -1882.1 -2037.35 -1880.85 -2037.35 -1880.85 -2056.2 -1852.7 -2056.2" fill="#000000" fill-rule="evenodd" stroke="none"/>
    <path d="M-1719.6 -2211.0 L-1729.2 -2211.0 -1729.2 -2212.25 -1729.35 -2212.25 -1729.35 -2217.9 -1729.2 -2217.9 -1729.2 -2218.85 -1711.6 -2218.85 -1711.6 -2217.6 -1692.45 -2217.6 -1692.45 -2189.45 -1711.6 -2189.45 -1711.6 -2190.4 -1713.35 -2190.4 -1713.35 -2186.95 -1718.5 -2186.95 -1718.5 -2190.4 -1719.6 -2190.4 -1719.6 -2211.0" fill="#000000" fill-rule="evenodd" stroke="none"/>
    <path d="M-1764.25 -2218.85 L-1764.25 -2217.9 -1764.1 -2217.9 -1764.1 -2212.25 -1764.25 -2212.25 -1764.25 -2211.0 -1773.85 -2211.0 -1773.85 -2190.4 -1774.95 -2190.4 -1774.95 -2186.95 -1780.1 -2186.95 -1780.1 -2190.4 -1781.85 -2190.4 -1781.85 -2189.45 -1801.0 -2189.45 -1801.0 -2217.6 -1781.85 -2217.6 -1781.85 -2218.85 -1764.25 -2218.85" fill="#000000" fill-rule="evenodd" stroke="none"/>
    <path d="M-1692.25 -1983.95 L-1692.25 -1955.65 -1711.45 -1955.65 -1711.45 -1954.4 -1729.05 -1954.4 -1729.05 -1955.35 -1729.35 -1955.35 -1729.35 -1961.0 -1729.05 -1961.0 -1729.05 -1962.25 -1719.6 -1962.25 -1719.6 -1983.0 -1718.5 -1983.0 -1718.5 -1986.3 -1713.35 -1986.3 -1713.35 -1983.0 -1711.45 -1983.0 -1711.45 -1983.95 -1692.25 -1983.95" fill="#000000" fill-rule="evenodd" stroke="none"/>
    <path d="M-1801.0 -1983.95 L-1781.85 -1983.95 -1781.85 -1983.0 -1780.1 -1983.0 -1780.1 -1986.3 -1774.95 -1986.3 -1774.95 -1983.0 -1773.85 -1983.0 -1773.85 -1962.25 -1764.25 -1962.25 -1764.25 -1961.0 -1764.1 -1961.0 -1764.1 -1955.35 -1764.25 -1955.35 -1764.25 -1954.4 -1781.85 -1954.4 -1781.85 -1955.65 -1801.0 -1955.65 -1801.0 -1983.95" fill="#000000" fill-rule="evenodd" stroke="none"/>
    <path d="M-1710.8 -2154.6 L-1714.9 -2154.6 -1714.9 -2160.1 -1710.8 -2160.1 -1710.8 -2154.6" fill="#000000" fill-rule="evenodd" stroke="none"/>
    <path d="M-1710.8 -2164.15 L-1714.75 -2164.15 -1714.75 -2166.55 -1710.8 -2166.55 -1710.8 -2164.15" fill="#000000" fill-rule="evenodd" stroke="none"/>
    <path d="M-1778.55 -2154.75 L-1782.65 -2154.75 -1782.65 -2160.1 -1778.55 -2160.1 -1778.55 -2154.75" fill="#000000" fill-rule="evenodd" stroke="none"/>
    <path d="M-1778.55 -2164.15 L-1782.65 -2164.15 -1782.65 -2166.85 -1778.55 -2166.85 -1778.55 -2164.15" fill="#000000" fill-rule="evenodd" stroke="none"/>
    <path d="M-1710.8 -2018.8 L-1710.8 -2013.3 -1715.05 -2013.3 -1715.05 -2018.8 -1710.8 -2018.8" fill="#000000" fill-rule="evenodd" stroke="none"/>
    <path d="M-1710.8 -2009.25 L-1710.8 -2006.85 -1714.9 -2006.85 -1714.9 -2009.25 -1710.8 -2009.25" fill="#000000" fill-rule="evenodd" stroke="none"/>
    <path d="M-1778.55 -2018.65 L-1778.55 -2013.3 -1782.65 -2013.3 -1782.65 -2018.65 -1778.55 -2018.65" fill="#000000" fill-rule="evenodd" stroke="none"/>
    <path d="M-1778.55 -2009.25 L-1778.55 -2006.55 -1782.65 -2006.55 -1782.65 -2009.25 -1778.55 -2009.25" fill="#000000" fill-rule="evenodd" stroke="none"/>
    <path d="M-1730.15 -2142.8 L-1734.05 -2142.8 -1734.05 -2148.0 -1730.15 -2148.0 -1730.15 -2142.8" fill="#000000" fill-rule="evenodd" stroke="none"/>
    <path d="M-1730.15 -2148.95 L-1732.2 -2148.95 -1732.2 -2153.65 -1730.15 -2153.65 -1730.15 -2148.95" fill="#000000" fill-rule="evenodd" stroke="none"/>
    <path d="M-1761.25 -2148.95 L-1763.3 -2148.95 -1763.3 -2153.65 -1761.25 -2153.65 -1761.25 -2148.95" fill="#000000" fill-rule="evenodd" stroke="none"/>
    <path d="M-1730.15 -2135.75 L-1734.05 -2135.75 -1734.05 -2139.8 -1730.15 -2139.8 -1730.15 -2135.75" fill="#000000" fill-rule="evenodd" stroke="none"/>
    <path d="M-1759.2 -2142.65 L-1763.3 -2142.65 -1763.3 -2147.85 -1759.2 -2147.85 -1759.2 -2142.65" fill="#000000" fill-rule="evenodd" stroke="none"/>
    <path d="M-1759.2 -2135.75 L-1763.3 -2135.75 -1763.3 -2139.8 -1759.2 -2139.8 -1759.2 -2135.75" fill="#000000" fill-rule="evenodd" stroke="none"/>
    <path d="M-1744.15 -2140.15 L-1749.45 -2140.15 -1749.45 -2142.95 -1744.15 -2142.95 -1744.15 -2140.15" fill="#000000" fill-rule="evenodd" stroke="none"/>
    <path d="M-1753.25 -2135.75 L-1758.25 -2135.75 -1758.25 -2138.1 -1753.25 -2138.1 -1753.25 -2135.75" fill="#000000" fill-rule="evenodd" stroke="none"/>
    <path d="M-1747.25 -2135.75 L-1752.3 -2135.75 -1752.3 -2138.1 -1747.25 -2138.1 -1747.25 -2135.75" fill="#000000" fill-rule="evenodd" stroke="none"/>
    <path d="M-1740.65 -2135.75 L-1745.7 -2135.75 -1745.7 -2138.1 -1740.65 -2138.1 -1740.65 -2135.75" fill="#000000" fill-rule="evenodd" stroke="none"/>
    <path d="M-1734.85 -2135.75 L-1739.9 -2135.75 -1739.9 -2138.1 -1734.85 -2138.1 -1734.85 -2135.75" fill="#000000" fill-rule="evenodd" stroke="none"/>
    <path d="M-1730.15 -2029.95 L-1730.15 -2024.8 -1734.25 -2024.8 -1734.25 -2029.95 -1730.15 -2029.95" fill="#000000" fill-rule="evenodd" stroke="none"/>
    <path d="M-1730.15 -2023.85 L-1730.15 -2019.15 -1732.5 -2019.15 -1732.5 -2023.85 -1730.15 -2023.85" fill="#000000" fill-rule="evenodd" stroke="none"/>
    <path d="M-1761.4 -2023.85 L-1761.4 -2019.15 -1763.45 -2019.15 -1763.45 -2023.85 -1761.4 -2023.85" fill="#000000" fill-rule="evenodd" stroke="none"/>
    <path d="M-1730.15 -2037.05 L-1730.15 -2032.8 -1734.4 -2032.8 -1734.4 -2037.05 -1730.15 -2037.05" fill="#000000" fill-rule="evenodd" stroke="none"/>
    <path d="M-1759.55 -2029.95 L-1759.55 -2024.8 -1763.45 -2024.8 -1763.45 -2029.95 -1759.55 -2029.95" fill="#000000" fill-rule="evenodd" stroke="none"/>
    <path d="M-1759.55 -2037.05 L-1759.55 -2032.8 -1763.45 -2032.8 -1763.45 -2037.05 -1759.55 -2037.05" fill="#000000" fill-rule="evenodd" stroke="none"/>
    <path d="M-1744.15 -2033.25 L-1744.15 -2030.3 -1749.65 -2030.3 -1749.65 -2033.25 -1744.15 -2033.25" fill="#000000" fill-rule="evenodd" stroke="none"/>
    <path d="M-1753.55 -2037.05 L-1753.55 -2034.7 -1758.6 -2034.7 -1758.6 -2037.05 -1753.55 -2037.05" fill="#000000" fill-rule="evenodd" stroke="none"/>
    <path d="M-1747.6 -2037.05 L-1747.6 -2034.7 -1752.6 -2034.7 -1752.6 -2037.05 -1747.6 -2037.05" fill="#000000" fill-rule="evenodd" stroke="none"/>
    <path d="M-1741.0 -2037.05 L-1741.0 -2034.7 -1746.0 -2034.7 -1746.0 -2037.05 -1741.0 -2037.05" fill="#000000" fill-rule="evenodd" stroke="none"/>
    <path d="M-1735.0 -2037.05 L-1735.0 -2034.7 -1740.05 -2034.7 -1740.05 -2037.05 -1735.0 -2037.05" fill="#000000" fill-rule="evenodd" stroke="none"/>
    <path d="M-1730.95 -2127.25 L-1730.95 -2118.75 -1734.85 -2118.75 -1734.85 -2127.25 -1730.95 -2127.25" fill="#000000" fill-rule="evenodd" stroke="none"/>
    <path d="M-1762.65 -2118.75 L-1762.65 -2127.1 -1758.6 -2127.1 -1758.6 -2118.75 -1762.65 -2118.75" fill="#000000" fill-rule="evenodd" stroke="none"/>
    <path d="M-1730.75 -2054.35 L-1730.75 -2045.85 -1734.85 -2045.85 -1734.85 -2054.35 -1730.75 -2054.35" fill="#000000" fill-rule="evenodd" stroke="none"/>
    <path d="M-1762.5 -2045.85 L-1762.5 -2054.35 -1758.6 -2054.35 -1758.6 -2045.85 -1762.5 -2045.85" fill="#000000" fill-rule="evenodd" stroke="none"/>
    <path d="M-1783.4 -2118.9 L-1777.15 -2126.0 -1775.25 -2124.25 -1781.55 -2117.2 -1783.4 -2118.9" fill="#000000" fill-rule="evenodd" stroke="none"/>
    <path d="M-1775.25 -2100.05 L-1777.15 -2098.5 -1783.4 -2105.4 -1781.55 -2107.15 -1775.25 -2100.05" fill="#000000" fill-rule="evenodd" stroke="none"/>
    <path d="M-1783.4 -2068.0 L-1777.15 -2075.05 -1775.25 -2073.35 -1781.55 -2066.25 -1783.4 -2068.0" fill="#000000" fill-rule="evenodd" stroke="none"/>
    <path d="M-1775.25 -2049.15 L-1777.15 -2047.55 -1783.4 -2054.5 -1781.55 -2056.2 -1775.25 -2049.15" fill="#000000" fill-rule="evenodd" stroke="none"/>
    <path d="M-1716.45 -2106.35 L-1720.55 -2106.35 -1720.55 -2117.65 -1716.45 -2117.65 -1716.45 -2106.35" fill="#000000" fill-rule="evenodd" stroke="none"/>
    <path d="M-1710.35 -2113.25 L-1712.25 -2113.25 -1712.25 -2118.6 -1710.35 -2118.6 -1710.35 -2113.25" fill="#000000" fill-rule="evenodd" stroke="none"/>
    <path d="M-1710.35 -2106.2 L-1712.25 -2106.2 -1712.25 -2111.55 -1710.35 -2111.55 -1710.35 -2106.2" fill="#000000" fill-rule="evenodd" stroke="none"/>
    <path d="M-1710.5 -2056.35 L-1712.85 -2056.35 -1712.85 -2065.65 -1710.5 -2065.65 -1710.5 -2056.35" fill="#000000" fill-rule="evenodd" stroke="none"/>
    <path d="M-1711.6 -2073.65 L-1716.65 -2073.65 -1716.65 -2075.4 -1711.6 -2075.4 -1711.6 -2073.65" fill="#000000" fill-rule="evenodd" stroke="none"/>
    <path d="M-1711.6 -2047.1 L-1716.65 -2047.1 -1716.65 -2048.85 -1711.6 -2048.85 -1711.6 -2047.1" fill="#000000" fill-rule="evenodd" stroke="none"/>
    <path d="M-1687.55 -2097.55 L-1691.95 -2097.55 -1691.95 -2101.8 -1687.55 -2101.8 -1687.55 -2097.55" fill="#000000" fill-rule="evenodd" stroke="none"/>
    <path d="M-1681.45 -2099.45 L-1686.6 -2099.45 -1686.6 -2101.8 -1681.45 -2101.8 -1681.45 -2099.45" fill="#000000" fill-rule="evenodd" stroke="none"/>
    <path d="M-1681.25 -2071.6 L-1686.45 -2071.6 -1686.45 -2073.65 -1681.25 -2073.65 -1681.25 -2071.6" fill="#000000" fill-rule="evenodd" stroke="none"/>
    <path d="M-1687.4 -2071.6 L-1691.95 -2071.6 -1691.95 -2075.7 -1687.4 -2075.7 -1687.4 -2071.6" fill="#000000" fill-rule="evenodd" stroke="none"/>
    <path d="M-1696.2 -2101.8 L-1696.2 -2071.6 -1699.5 -2071.6 -1699.5 -2101.8 -1696.2 -2101.8" fill="#000000" fill-rule="evenodd" stroke="none"/>
    <path d="M-1660.7 -2065.0 L-1672.0 -2065.0 -1672.0 -2068.65 -1660.7 -2068.65 -1660.7 -2065.0" fill="#000000" fill-rule="evenodd" stroke="none"/>
    <path d="M-1660.7 -2104.75 L-1672.0 -2104.75 -1672.0 -2108.4 -1660.7 -2108.4 -1660.7 -2104.75" fill="#000000" fill-rule="evenodd" stroke="none"/>
    <path d="M-1692.6 -2083.7 L-1695.75 -2083.7 -1695.75 -2089.35 -1692.6 -2089.35 -1692.6 -2083.7" fill="#000000" fill-rule="evenodd" stroke="none"/>
    <path d="M-1812.0 -2099.45 L-1812.0 -2101.8 -1806.85 -2101.8 -1806.85 -2099.45 -1812.0 -2099.45" fill="#000000" fill-rule="evenodd" stroke="none"/>
    <path d="M-1812.0 -2071.6 L-1812.0 -2073.65 -1806.85 -2073.65 -1806.85 -2071.6 -1812.0 -2071.6" fill="#000000" fill-rule="evenodd" stroke="none"/>
    <path d="M-1806.05 -2071.6 L-1806.05 -2075.7 -1801.65 -2075.7 -1801.65 -2071.6 -1806.05 -2071.6" fill="#000000" fill-rule="evenodd" stroke="none"/>
    <path d="M-1806.2 -2097.85 L-1806.2 -2101.8 -1801.65 -2101.8 -1801.65 -2097.85 -1806.2 -2097.85" fill="#000000" fill-rule="evenodd" stroke="none"/>
    <path d="M-1797.1 -2101.8 L-1793.8 -2101.8 -1793.8 -2071.6 -1797.1 -2071.6 -1797.1 -2101.8" fill="#000000" fill-rule="evenodd" stroke="none"/>
    <path d="M-1832.6 -2065.0 L-1832.6 -2068.65 -1821.3 -2068.65 -1821.3 -2065.0 -1832.6 -2065.0" fill="#000000" fill-rule="evenodd" stroke="none"/>
    <path d="M-1832.6 -2104.75 L-1832.6 -2108.4 -1821.3 -2108.4 -1821.3 -2104.75 -1832.6 -2104.75" fill="#000000" fill-rule="evenodd" stroke="none"/>
    <path d="M-1800.85 -2083.7 L-1800.85 -2089.35 -1797.7 -2089.35 -1797.7 -2083.7 -1800.85 -2083.7" fill="#000000" fill-rule="evenodd" stroke="none"/>
    <path d="M-1739.75 -2078.85 L-1753.55 -2078.85 -1753.55 -2094.25 -1739.75 -2094.25 -1739.75 -2078.85" fill="#000000" fill-rule="evenodd" stroke="none"/>
    <path d="M-1672.65 -2078.2 L-1672.65 -2086.55 -1660.35 -2086.55 -1660.35 -2085.3 -1650.8 -2085.3 -1650.8 -2078.2 -1672.65 -2078.2" fill="#000000" fill-rule="evenodd" stroke="none"/>
    <path d="M-1650.8 -2077.75 L-1672.65 -2077.75 -1672.65 -2079.0 -1650.8 -2079.0 -1650.8 -2077.75" fill="#000000" fill-rule="evenodd" stroke="none"/>
    <path d="M-1671.35 -2085.45 L-1672.65 -2085.45 -1672.65 -2095.8 -1650.8 -2095.8 -1650.8 -2094.55 -1671.35 -2094.55 -1671.35 -2085.45" fill="#000000" fill-rule="evenodd" stroke="none"/>
    <path d="M-1820.95 -2077.9 L-1842.65 -2077.9 -1842.65 -2084.95 -1833.05 -2084.95 -1833.05 -2086.25 -1820.95 -2086.25 -1820.95 -2077.9" fill="#000000" fill-rule="evenodd" stroke="none"/>
    <path d="M-1842.65 -2077.45 L-1842.65 -2078.7 -1820.95 -2078.7 -1820.95 -2077.45 -1842.65 -2077.45" fill="#000000" fill-rule="evenodd" stroke="none"/>
    <path d="M-1822.05 -2085.15 L-1822.05 -2094.25 -1842.65 -2094.25 -1842.65 -2095.5 -1820.95 -2095.5 -1820.95 -2085.15 -1822.05 -2085.15" fill="#000000" fill-rule="evenodd" stroke="none"/>
    <path d="M-1738.3 -2159.6 L-1746.5 -2159.6 -1746.5 -2174.05 -1745.25 -2174.05 -1745.25 -2182.85 -1738.3 -2182.85 -1738.3 -2159.6" fill="#000000" fill-rule="evenodd" stroke="none"/>
    <path d="M-1737.7 -2182.85 L-1737.7 -2159.6 -1738.95 -2159.6 -1738.95 -2182.85 -1737.7 -2182.85" fill="#000000" fill-rule="evenodd" stroke="none"/>
    <path d="M-1745.4 -2161.05 L-1745.4 -2159.6 -1755.75 -2159.6 -1755.75 -2182.85 -1754.5 -2182.85 -1754.5 -2161.05 -1745.4 -2161.05" fill="#000000" fill-rule="evenodd" stroke="none"/>
    <path d="M-1738.3 -2013.65 L-1738.3 -1990.35 -1745.25 -1990.35 -1745.25 -1999.35 -1746.5 -1999.35 -1746.5 -2013.65 -1738.3 -2013.65" fill="#000000" fill-rule="evenodd" stroke="none"/>
    <path d="M-1737.7 -1990.35 L-1738.95 -1990.35 -1738.95 -2013.65 -1737.7 -2013.65 -1737.7 -1990.35" fill="#000000" fill-rule="evenodd" stroke="none"/>
    <path d="M-1745.4 -2012.35 L-1754.5 -2012.35 -1754.5 -1990.35 -1755.75 -1990.35 -1755.75 -2013.65 -1745.4 -2013.65 -1745.4 -2012.35" fill="#000000" fill-rule="evenodd" stroke="none"/>
    <path d="M-1646.85 -2087.95 L-1646.85 -2085.3 -1660.35 -2085.3 -1660.35 -2087.95 -1646.85 -2087.95" fill="#000000" fill-rule="evenodd" stroke="none"/>
    <path d="M-1846.6 -2087.65 L-1833.05 -2087.65 -1833.05 -2084.95 -1846.6 -2084.95 -1846.6 -2087.65" fill="#000000" fill-rule="evenodd" stroke="none"/>
    <path d="M-1748.05 -2186.5 L-1745.25 -2186.5 -1745.25 -2174.05 -1748.05 -2174.05 -1748.05 -2186.5" fill="#000000" fill-rule="evenodd" stroke="none"/>
    <path d="M-1748.05 -1986.9 L-1748.05 -1999.35 -1745.25 -1999.35 -1745.25 -1986.9 -1748.05 -1986.9" fill="#000000" fill-rule="evenodd" stroke="none"/>
    <path d="M-1782.65 -2013.3 L-1782.65 -2019.9 -1775.55 -2019.9 -1775.55 -2027.0 -1793.3 -2027.0 -1793.3 -2004.35 -1782.65 -2004.35 -1782.65 -2009.25 -1777.9 -2009.25 -1777.9 -2013.3 -1782.65 -2013.3 M-1740.2 -2093.95 L-1753.25 -2093.95 -1753.25 -2079.45 -1740.2 -2079.45 -1740.2 -2093.95 M-1750.55 -2101.8 L-1750.55 -2102.75 -1766.3 -2102.75 -1766.3 -2070.35 -1750.55 -2070.35 -1750.55 -2071.6 -1760.3 -2071.6 -1760.3 -2101.8 -1750.55 -2101.8 M-1793.3 -2138.85 L-1793.3 -2135.1 -1834.5 -2135.1 -1834.5 -2117.8 -1812.15 -2117.8 -1812.15 -2101.8 -1801.65 -2101.8 -1801.65 -2096.9 -1797.1 -2096.9 -1797.1 -2101.8 -1793.8 -2101.8 -1793.8 -2071.6 -1797.1 -2071.6 -1797.1 -2076.5 -1801.65 -2076.5 -1801.65 -2071.6 -1812.15 -2071.6 -1812.15 -2055.45 -1834.5 -2055.45 -1834.5 -2038.15 -1793.3 -2038.15 -1793.3 -2034.55 -1775.55 -2034.55 -1775.55 -2044.9 -1785.0 -2044.9 -1785.0 -2076.5 -1778.25 -2076.5 -1778.25 -2096.9 -1785.0 -2096.9 -1785.0 -2128.35 -1775.55 -2128.35 -1775.55 -2138.85 -1793.3 -2138.85 M-1782.65 -2168.9 L-1793.3 -2168.9 -1793.3 -2146.4 -1775.55 -2146.4 -1775.55 -2153.35 -1782.65 -2153.35 -1782.65 -2160.1 -1777.9 -2160.1 -1777.9 -2164.15 -1782.65 -2164.15 -1782.65 -2168.9 M-1717.9 -2027.0 L-1717.9 -2019.9 -1710.8 -2019.9 -1710.8 -2013.3 -1715.55 -2013.3 -1715.55 -2009.25 -1710.8 -2009.25 -1710.8 -2004.35 -1700.15 -2004.35 -1700.15 -2027.0 -1717.9 -2027.0 M-1727.15 -2070.35 L-1727.15 -2102.75 -1742.85 -2102.75 -1742.85 -2101.8 -1733.15 -2101.8 -1733.15 -2071.6 -1742.85 -2071.6 -1742.85 -2070.35 -1727.15 -2070.35 M-1730.3 -2054.35 L-1730.3 -2058.9 -1734.55 -2058.9 -1734.55 -2055.9 -1758.9 -2055.9 -1758.9 -2058.9 -1763.15 -2058.9 -1763.15 -2054.35 -1758.6 -2054.35 -1758.6 -2044.9 -1767.7 -2044.9 -1767.7 -2019.9 -1763.45 -2019.9 -1763.45 -2029.95 -1758.9 -2029.95 -1758.9 -2032.8 -1763.45 -2032.8 -1763.45 -2037.05 -1730.15 -2037.05 -1730.15 -2032.8 -1734.55 -2032.8 -1734.55 -2029.95 -1730.15 -2029.95 -1730.15 -2019.9 -1725.75 -2019.9 -1725.75 -2044.9 -1734.85 -2044.9 -1734.85 -2054.35 -1730.3 -2054.35 M-1717.9 -2138.85 L-1717.9 -2128.35 -1708.45 -2128.35 -1708.45 -2096.9 -1715.2 -2096.9 -1715.2 -2076.5 -1708.45 -2076.5 -1708.45 -2044.9 -1717.9 -2044.9 -1717.9 -2034.55 -1700.15 -2034.55 -1700.15 -2038.15 -1658.95 -2038.15 -1658.95 -2055.45 -1681.25 -2055.45 -1681.25 -2071.6 -1691.95 -2071.6 -1691.95 -2076.5 -1696.2 -2076.5 -1696.2 -2071.6 -1699.5 -2071.6 -1699.5 -2101.8 -1696.2 -2101.8 -1696.2 -2096.9 -1691.95 -2096.9 -1691.95 -2101.8 -1681.25 -2101.8 -1681.25 -2117.8 -1658.95 -2117.8 -1658.95 -2135.1 -1700.15 -2135.1 -1700.15 -2138.85 -1717.9 -2138.85 M-1725.75 -2153.35 L-1730.15 -2153.35 -1730.15 -2143.9 -1734.55 -2143.9 -1734.55 -2139.2 -1730.15 -2139.2 -1730.15 -2135.75 -1763.3 -2135.75 -1763.3 -2139.2 -1758.9 -2139.2 -1758.9 -2143.9 -1763.3 -2143.9 -1763.3 -2153.35 -1767.7 -2153.35 -1767.7 -2128.35 -1758.6 -2128.35 -1758.6 -2118.75 -1763.15 -2118.75 -1763.15 -2114.5 -1758.9 -2114.5 -1758.9 -2117.5 -1734.55 -2117.5 -1734.55 -2114.5 -1730.3 -2114.5 -1730.3 -2118.75 -1734.85 -2118.75 -1734.85 -2128.35 -1725.75 -2128.35 -1725.75 -2153.35 M-1700.15 -2168.9 L-1710.8 -2168.9 -1710.8 -2164.15 -1715.55 -2164.15 -1715.55 -2160.1 -1710.8 -2160.1 -1710.8 -2153.35 -1717.9 -2153.35 -1717.9 -2146.4 -1700.15 -2146.4 -1700.15 -2168.9 M-1723.4 -2182.85 L-1723.4 -2187.75 -1687.4 -2187.75 -1687.4 -2150.2 -1642.45 -2150.2 -1642.45 -2107.9 -1650.8 -2107.9 -1650.8 -2094.55 -1672.3 -2094.55 -1672.3 -2078.7 -1650.8 -2078.7 -1650.8 -2065.35 -1642.45 -2065.35 -1642.45 -2023.05 -1687.4 -2023.05 -1687.4 -1985.8 -1723.4 -1985.8 -1723.4 -1990.35 -1738.15 -1990.35 -1738.15 -2013.65 -1755.3 -2013.65 -1755.3 -1990.35 -1770.05 -1990.35 -1770.05 -1985.8 -1806.05 -1985.8 -1806.05 -2023.05 -1851.0 -2023.05 -1851.0 -2065.35 -1842.65 -2065.35 -1842.65 -2078.7 -1820.95 -2078.7 -1820.95 -2094.55 -1842.65 -2094.55 -1842.65 -2107.9 -1851.0 -2107.9 -1851.0 -2150.2 -1806.05 -2150.2 -1806.05 -2187.75 -1770.05 -2187.75 -1770.05 -2182.85 -1755.3 -2182.85 -1755.3 -2159.6 -1738.15 -2159.6 -1738.15 -2182.85 -1723.4 -2182.85" fill="#969696" fill-rule="evenodd" stroke="none"/>
    <path d="M-1640.75 -2136.35 L-1639.8 -2136.35 -1639.8 -2137.75 -1643.25 -2137.75 -1643.25 -2142.95 -1639.8 -2142.95 -1639.8 -2144.05 -1619.2 -2144.05 -1619.2 -2153.65 -1617.95 -2153.65 -1617.95 -2153.8 -1612.3 -2153.8 -1612.3 -2153.65 -1611.35 -2153.65 -1611.35 -2136.05 -1612.6 -2136.05 -1612.6 -2117.2 -1640.75 -2117.2 -1640.75 -2136.35" fill="#969696" fill-rule="evenodd" stroke="none"/>
    <path d="M-1612.6 -2056.2 L-1612.6 -2037.35 -1611.35 -2037.35 -1611.35 -2019.75 -1612.3 -2019.75 -1612.3 -2019.45 -1617.95 -2019.45 -1617.95 -2019.75 -1619.2 -2019.75 -1619.2 -2029.2 -1639.8 -2029.2 -1639.8 -2030.3 -1643.25 -2030.3 -1643.25 -2035.45 -1639.8 -2035.45 -1639.8 -2037.05 -1640.75 -2037.05 -1640.75 -2056.2 -1612.6 -2056.2" fill="#969696" fill-rule="evenodd" stroke="none"/>
    <path d="M-1882.1 -2153.65 L-1881.15 -2153.65 -1881.15 -2153.8 -1875.5 -2153.8 -1875.5 -2153.65 -1874.25 -2153.65 -1874.25 -2144.05 -1853.65 -2144.05 -1853.65 -2142.95 -1850.2 -2142.95 -1850.2 -2137.75 -1853.65 -2137.75 -1853.65 -2136.35 -1852.7 -2136.35 -1852.7 -2117.2 -1880.85 -2117.2 -1880.85 -2136.05 -1882.1 -2136.05 -1882.1 -2153.65" fill="#969696" fill-rule="evenodd" stroke="none"/>
    <path d="M-1852.7 -2056.2 L-1852.7 -2037.05 -1853.65 -2037.05 -1853.65 -2035.45 -1850.2 -2035.45 -1850.2 -2030.3 -1853.65 -2030.3 -1853.65 -2029.2 -1874.25 -2029.2 -1874.25 -2019.75 -1875.5 -2019.75 -1875.5 -2019.45 -1881.15 -2019.45 -1881.15 -2019.75 -1882.1 -2019.75 -1882.1 -2037.35 -1880.85 -2037.35 -1880.85 -2056.2 -1852.7 -2056.2" fill="#969696" fill-rule="evenodd" stroke="none"/>
    <path d="M-1719.6 -2211.0 L-1729.2 -2211.0 -1729.2 -2212.25 -1729.35 -2212.25 -1729.35 -2217.9 -1729.2 -2217.9 -1729.2 -2218.85 -1711.6 -2218.85 -1711.6 -2217.6 -1692.45 -2217.6 -1692.45 -2189.45 -1711.6 -2189.45 -1711.6 -2190.4 -1713.35 -2190.4 -1713.35 -2186.95 -1718.5 -2186.95 -1718.5 -2190.4 -1719.6 -2190.4 -1719.6 -2211.0" fill="#969696" fill-rule="evenodd" stroke="none"/>
    <path d="M-1764.25 -2218.85 L-1764.25 -2217.9 -1764.1 -2217.9 -1764.1 -2212.25 -1764.25 -2212.25 -1764.25 -2211.0 -1773.85 -2211.0 -1773.85 -2190.4 -1774.95 -2190.4 -1774.95 -2186.95 -1780.1 -2186.95 -1780.1 -2190.4 -1781.85 -2190.4 -1781.85 -2189.45 -1801.0 -2189.45 -1801.0 -2217.6 -1781.85 -2217.6 -1781.85 -2218.85 -1764.25 -2218.85" fill="#969696" fill-rule="evenodd" stroke="none"/>
    <path d="M-1692.25 -1983.95 L-1692.25 -1955.65 -1711.45 -1955.65 -1711.45 -1954.4 -1729.05 -1954.4 -1729.05 -1955.35 -1729.35 -1955.35 -1729.35 -1961.0 -1729.05 -1961.0 -1729.05 -1962.25 -1719.6 -1962.25 -1719.6 -1983.0 -1718.5 -1983.0 -1718.5 -1986.3 -1713.35 -1986.3 -1713.35 -1983.0 -1711.45 -1983.0 -1711.45 -1983.95 -1692.25 -1983.95" fill="#969696" fill-rule="evenodd" stroke="none"/>
    <path d="M-1801.0 -1983.95 L-1781.85 -1983.95 -1781.85 -1983.0 -1780.1 -1983.0 -1780.1 -1986.3 -1774.95 -1986.3 -1774.95 -1983.0 -1773.85 -1983.0 -1773.85 -1962.25 -1764.25 -1962.25 -1764.25 -1961.0 -1764.1 -1961.0 -1764.1 -1955.35 -1764.25 -1955.35 -1764.25 -1954.4 -1781.85 -1954.4 -1781.85 -1955.65 -1801.0 -1955.65 -1801.0 -1983.95" fill="#969696" fill-rule="evenodd" stroke="none"/>
    <path d="M-1710.8 -2154.6 L-1714.9 -2154.6 -1714.9 -2160.1 -1710.8 -2160.1 -1710.8 -2154.6" fill="#707070" fill-rule="evenodd" stroke="none"/>
    <path d="M-1710.8 -2164.15 L-1714.75 -2164.15 -1714.75 -2166.55 -1710.8 -2166.55 -1710.8 -2164.15" fill="#707070" fill-rule="evenodd" stroke="none"/>
    <path d="M-1778.55 -2154.75 L-1782.65 -2154.75 -1782.65 -2160.1 -1778.55 -2160.1 -1778.55 -2154.75" fill="#707070" fill-rule="evenodd" stroke="none"/>
    <path d="M-1778.55 -2164.15 L-1782.65 -2164.15 -1782.65 -2166.85 -1778.55 -2166.85 -1778.55 -2164.15" fill="#707070" fill-rule="evenodd" stroke="none"/>
    <path d="M-1710.8 -2018.8 L-1710.8 -2013.3 -1715.05 -2013.3 -1715.05 -2018.8 -1710.8 -2018.8" fill="#707070" fill-rule="evenodd" stroke="none"/>
    <path d="M-1710.8 -2009.25 L-1710.8 -2006.85 -1714.9 -2006.85 -1714.9 -2009.25 -1710.8 -2009.25" fill="#707070" fill-rule="evenodd" stroke="none"/>
    <path d="M-1778.55 -2018.65 L-1778.55 -2013.3 -1782.65 -2013.3 -1782.65 -2018.65 -1778.55 -2018.65" fill="#707070" fill-rule="evenodd" stroke="none"/>
    <path d="M-1778.55 -2009.25 L-1778.55 -2006.55 -1782.65 -2006.55 -1782.65 -2009.25 -1778.55 -2009.25" fill="#707070" fill-rule="evenodd" stroke="none"/>
    <path d="M-1730.15 -2142.8 L-1734.05 -2142.8 -1734.05 -2148.0 -1730.15 -2148.0 -1730.15 -2142.8" fill="#707070" fill-rule="evenodd" stroke="none"/>
    <path d="M-1730.15 -2148.95 L-1732.2 -2148.95 -1732.2 -2153.65 -1730.15 -2153.65 -1730.15 -2148.95" fill="#707070" fill-rule="evenodd" stroke="none"/>
    <path d="M-1761.25 -2148.95 L-1763.3 -2148.95 -1763.3 -2153.65 -1761.25 -2153.65 -1761.25 -2148.95" fill="#707070" fill-rule="evenodd" stroke="none"/>
    <path d="M-1730.15 -2135.75 L-1734.05 -2135.75 -1734.05 -2139.8 -1730.15 -2139.8 -1730.15 -2135.75" fill="#707070" fill-rule="evenodd" stroke="none"/>
    <path d="M-1759.2 -2142.65 L-1763.3 -2142.65 -1763.3 -2147.85 -1759.2 -2147.85 -1759.2 -2142.65" fill="#707070" fill-rule="evenodd" stroke="none"/>
    <path d="M-1759.2 -2135.75 L-1763.3 -2135.75 -1763.3 -2139.8 -1759.2 -2139.8 -1759.2 -2135.75" fill="#707070" fill-rule="evenodd" stroke="none"/>
    <path d="M-1744.15 -2140.15 L-1749.45 -2140.15 -1749.45 -2142.95 -1744.15 -2142.95 -1744.15 -2140.15" fill="#707070" fill-rule="evenodd" stroke="none"/>
    <path d="M-1753.25 -2135.75 L-1758.25 -2135.75 -1758.25 -2138.1 -1753.25 -2138.1 -1753.25 -2135.75" fill="#707070" fill-rule="evenodd" stroke="none"/>
    <path d="M-1747.25 -2135.75 L-1752.3 -2135.75 -1752.3 -2138.1 -1747.25 -2138.1 -1747.25 -2135.75" fill="#707070" fill-rule="evenodd" stroke="none"/>
    <path d="M-1740.65 -2135.75 L-1745.7 -2135.75 -1745.7 -2138.1 -1740.65 -2138.1 -1740.65 -2135.75" fill="#707070" fill-rule="evenodd" stroke="none"/>
    <path d="M-1734.85 -2135.75 L-1739.9 -2135.75 -1739.9 -2138.1 -1734.85 -2138.1 -1734.85 -2135.75" fill="#707070" fill-rule="evenodd" stroke="none"/>
    <path d="M-1730.15 -2029.95 L-1730.15 -2024.8 -1734.25 -2024.8 -1734.25 -2029.95 -1730.15 -2029.95" fill="#707070" fill-rule="evenodd" stroke="none"/>
    <path d="M-1730.15 -2023.85 L-1730.15 -2019.15 -1732.5 -2019.15 -1732.5 -2023.85 -1730.15 -2023.85" fill="#707070" fill-rule="evenodd" stroke="none"/>
    <path d="M-1761.4 -2023.85 L-1761.4 -2019.15 -1763.45 -2019.15 -1763.45 -2023.85 -1761.4 -2023.85" fill="#707070" fill-rule="evenodd" stroke="none"/>
    <path d="M-1730.15 -2037.05 L-1730.15 -2032.8 -1734.4 -2032.8 -1734.4 -2037.05 -1730.15 -2037.05" fill="#707070" fill-rule="evenodd" stroke="none"/>
    <path d="M-1759.55 -2029.95 L-1759.55 -2024.8 -1763.45 -2024.8 -1763.45 -2029.95 -1759.55 -2029.95" fill="#707070" fill-rule="evenodd" stroke="none"/>
    <path d="M-1759.55 -2037.05 L-1759.55 -2032.8 -1763.45 -2032.8 -1763.45 -2037.05 -1759.55 -2037.05" fill="#707070" fill-rule="evenodd" stroke="none"/>
    <path d="M-1744.15 -2033.25 L-1744.15 -2030.3 -1749.65 -2030.3 -1749.65 -2033.25 -1744.15 -2033.25" fill="#707070" fill-rule="evenodd" stroke="none"/>
    <path d="M-1753.55 -2037.05 L-1753.55 -2034.7 -1758.6 -2034.7 -1758.6 -2037.05 -1753.55 -2037.05" fill="#707070" fill-rule="evenodd" stroke="none"/>
    <path d="M-1747.6 -2037.05 L-1747.6 -2034.7 -1752.6 -2034.7 -1752.6 -2037.05 -1747.6 -2037.05" fill="#707070" fill-rule="evenodd" stroke="none"/>
    <path d="M-1741.0 -2037.05 L-1741.0 -2034.7 -1746.0 -2034.7 -1746.0 -2037.05 -1741.0 -2037.05" fill="#707070" fill-rule="evenodd" stroke="none"/>
    <path d="M-1735.0 -2037.05 L-1735.0 -2034.7 -1740.05 -2034.7 -1740.05 -2037.05 -1735.0 -2037.05" fill="#707070" fill-rule="evenodd" stroke="none"/>
    <path d="M-1730.95 -2127.25 L-1730.95 -2118.75 -1734.85 -2118.75 -1734.85 -2127.25 -1730.95 -2127.25" fill="#707070" fill-rule="evenodd" stroke="none"/>
    <path d="M-1762.65 -2118.75 L-1762.65 -2127.1 -1758.6 -2127.1 -1758.6 -2118.75 -1762.65 -2118.75" fill="#707070" fill-rule="evenodd" stroke="none"/>
    <path d="M-1730.75 -2054.35 L-1730.75 -2045.85 -1734.85 -2045.85 -1734.85 -2054.35 -1730.75 -2054.35" fill="#707070" fill-rule="evenodd" stroke="none"/>
    <path d="M-1762.5 -2045.85 L-1762.5 -2054.35 -1758.6 -2054.35 -1758.6 -2045.85 -1762.5 -2045.85" fill="#707070" fill-rule="evenodd" stroke="none"/>
    <path d="M-1783.4 -2118.9 L-1777.15 -2126.0 -1775.25 -2124.25 -1781.55 -2117.2 -1783.4 -2118.9" fill="#707070" fill-rule="evenodd" stroke="none"/>
    <path d="M-1775.25 -2100.05 L-1777.15 -2098.5 -1783.4 -2105.4 -1781.55 -2107.15 -1775.25 -2100.05" fill="#707070" fill-rule="evenodd" stroke="none"/>
    <path d="M-1783.4 -2068.0 L-1777.15 -2075.05 -1775.25 -2073.35 -1781.55 -2066.25 -1783.4 -2068.0" fill="#707070" fill-rule="evenodd" stroke="none"/>
    <path d="M-1775.25 -2049.15 L-1777.15 -2047.55 -1783.4 -2054.5 -1781.55 -2056.2 -1775.25 -2049.15" fill="#707070" fill-rule="evenodd" stroke="none"/>
    <path d="M-1716.45 -2106.35 L-1720.55 -2106.35 -1720.55 -2117.65 -1716.45 -2117.65 -1716.45 -2106.35" fill="#707070" fill-rule="evenodd" stroke="none"/>
    <path d="M-1710.35 -2113.25 L-1712.25 -2113.25 -1712.25 -2118.6 -1710.35 -2118.6 -1710.35 -2113.25" fill="#707070" fill-rule="evenodd" stroke="none"/>
    <path d="M-1710.35 -2106.2 L-1712.25 -2106.2 -1712.25 -2111.55 -1710.35 -2111.55 -1710.35 -2106.2" fill="#707070" fill-rule="evenodd" stroke="none"/>
    <path d="M-1710.5 -2056.35 L-1712.85 -2056.35 -1712.85 -2065.65 -1710.5 -2065.65 -1710.5 -2056.35" fill="#707070" fill-rule="evenodd" stroke="none"/>
    <path d="M-1711.6 -2073.65 L-1716.65 -2073.65 -1716.65 -2075.4 -1711.6 -2075.4 -1711.6 -2073.65" fill="#707070" fill-rule="evenodd" stroke="none"/>
    <path d="M-1711.6 -2047.1 L-1716.65 -2047.1 -1716.65 -2048.85 -1711.6 -2048.85 -1711.6 -2047.1" fill="#707070" fill-rule="evenodd" stroke="none"/>
    <path d="M-1687.55 -2097.55 L-1691.95 -2097.55 -1691.95 -2101.8 -1687.55 -2101.8 -1687.55 -2097.55" fill="#707070" fill-rule="evenodd" stroke="none"/>
    <path d="M-1681.45 -2099.45 L-1686.6 -2099.45 -1686.6 -2101.8 -1681.45 -2101.8 -1681.45 -2099.45" fill="#707070" fill-rule="evenodd" stroke="none"/>
    <path d="M-1681.25 -2071.6 L-1686.45 -2071.6 -1686.45 -2073.65 -1681.25 -2073.65 -1681.25 -2071.6" fill="#707070" fill-rule="evenodd" stroke="none"/>
    <path d="M-1687.4 -2071.6 L-1691.95 -2071.6 -1691.95 -2075.7 -1687.4 -2075.7 -1687.4 -2071.6" fill="#707070" fill-rule="evenodd" stroke="none"/>
    <path d="M-1696.2 -2101.8 L-1696.2 -2071.6 -1699.5 -2071.6 -1699.5 -2101.8 -1696.2 -2101.8" fill="#707070" fill-rule="evenodd" stroke="none"/>
    <path d="M-1660.7 -2065.0 L-1672.0 -2065.0 -1672.0 -2068.65 -1660.7 -2068.65 -1660.7 -2065.0" fill="#707070" fill-rule="evenodd" stroke="none"/>
    <path d="M-1660.7 -2104.75 L-1672.0 -2104.75 -1672.0 -2108.4 -1660.7 -2108.4 -1660.7 -2104.75" fill="#707070" fill-rule="evenodd" stroke="none"/>
    <path d="M-1692.6 -2083.7 L-1695.75 -2083.7 -1695.75 -2089.35 -1692.6 -2089.35 -1692.6 -2083.7" fill="#707070" fill-rule="evenodd" stroke="none"/>
    <path d="M-1812.0 -2099.45 L-1812.0 -2101.8 -1806.85 -2101.8 -1806.85 -2099.45 -1812.0 -2099.45" fill="#707070" fill-rule="evenodd" stroke="none"/>
    <path d="M-1812.0 -2071.6 L-1812.0 -2073.65 -1806.85 -2073.65 -1806.85 -2071.6 -1812.0 -2071.6" fill="#707070" fill-rule="evenodd" stroke="none"/>
    <path d="M-1806.05 -2071.6 L-1806.05 -2075.7 -1801.65 -2075.7 -1801.65 -2071.6 -1806.05 -2071.6" fill="#707070" fill-rule="evenodd" stroke="none"/>
    <path d="M-1806.2 -2097.85 L-1806.2 -2101.8 -1801.65 -2101.8 -1801.65 -2097.85 -1806.2 -2097.85" fill="#707070" fill-rule="evenodd" stroke="none"/>
    <path d="M-1797.1 -2101.8 L-1793.8 -2101.8 -1793.8 -2071.6 -1797.1 -2071.6 -1797.1 -2101.8" fill="#707070" fill-rule="evenodd" stroke="none"/>
    <path d="M-1832.6 -2065.0 L-1832.6 -2068.65 -1821.3 -2068.65 -1821.3 -2065.0 -1832.6 -2065.0" fill="#707070" fill-rule="evenodd" stroke="none"/>
    <path d="M-1832.6 -2104.75 L-1832.6 -2108.4 -1821.3 -2108.4 -1821.3 -2104.75 -1832.6 -2104.75" fill="#707070" fill-rule="evenodd" stroke="none"/>
    <path d="M-1800.85 -2083.7 L-1800.85 -2089.35 -1797.7 -2089.35 -1797.7 -2083.7 -1800.85 -2083.7" fill="#707070" fill-rule="evenodd" stroke="none"/>
    <path d="M-1739.75 -2078.85 L-1753.55 -2078.85 -1753.55 -2094.25 -1739.75 -2094.25 -1739.75 -2078.85" fill="#ffffff" fill-rule="evenodd" stroke="none"/>
    <path d="M-1672.65 -2078.2 L-1672.65 -2086.55 -1660.35 -2086.55 -1660.35 -2085.3 -1650.8 -2085.3 -1650.8 -2078.2 -1672.65 -2078.2" fill="#ffffff" fill-rule="evenodd" stroke="none"/>
    <path d="M-1650.8 -2077.75 L-1672.65 -2077.75 -1672.65 -2079.0 -1650.8 -2079.0 -1650.8 -2077.75" fill="#707070" fill-rule="evenodd" stroke="none"/>
    <path d="M-1671.35 -2085.45 L-1672.65 -2085.45 -1672.65 -2095.8 -1650.8 -2095.8 -1650.8 -2094.55 -1671.35 -2094.55 -1671.35 -2085.45" fill="#707070" fill-rule="evenodd" stroke="none"/>
    <path d="M-1820.95 -2077.9 L-1842.65 -2077.9 -1842.65 -2084.95 -1833.05 -2084.95 -1833.05 -2086.25 -1820.95 -2086.25 -1820.95 -2077.9" fill="#ffffff" fill-rule="evenodd" stroke="none"/>
    <path d="M-1842.65 -2077.45 L-1842.65 -2078.7 -1820.95 -2078.7 -1820.95 -2077.45 -1842.65 -2077.45" fill="#707070" fill-rule="evenodd" stroke="none"/>
    <path d="M-1822.05 -2085.15 L-1822.05 -2094.25 -1842.65 -2094.25 -1842.65 -2095.5 -1820.95 -2095.5 -1820.95 -2085.15 -1822.05 -2085.15" fill="#707070" fill-rule="evenodd" stroke="none"/>
    <path d="M-1738.3 -2159.6 L-1746.5 -2159.6 -1746.5 -2174.05 -1745.25 -2174.05 -1745.25 -2182.85 -1738.3 -2182.85 -1738.3 -2159.6" fill="#ffffff" fill-rule="evenodd" stroke="none"/>
    <path d="M-1737.7 -2182.85 L-1737.7 -2159.6 -1738.95 -2159.6 -1738.95 -2182.85 -1737.7 -2182.85" fill="#707070" fill-rule="evenodd" stroke="none"/>
    <path d="M-1745.4 -2161.05 L-1745.4 -2159.6 -1755.75 -2159.6 -1755.75 -2182.85 -1754.5 -2182.85 -1754.5 -2161.05 -1745.4 -2161.05" fill="#707070" fill-rule="evenodd" stroke="none"/>
    <path d="M-1738.3 -2013.65 L-1738.3 -1990.35 -1745.25 -1990.35 -1745.25 -1999.35 -1746.5 -1999.35 -1746.5 -2013.65 -1738.3 -2013.65" fill="#ffffff" fill-rule="evenodd" stroke="none"/>
    <path d="M-1737.7 -1990.35 L-1738.95 -1990.35 -1738.95 -2013.65 -1737.7 -2013.65 -1737.7 -1990.35" fill="#707070" fill-rule="evenodd" stroke="none"/>
    <path d="M-1745.4 -2012.35 L-1754.5 -2012.35 -1754.5 -1990.35 -1755.75 -1990.35 -1755.75 -2013.65 -1745.4 -2013.65 -1745.4 -2012.35" fill="#707070" fill-rule="evenodd" stroke="none"/>
    <path d="M-1646.85 -2087.95 L-1646.85 -2085.3 -1660.35 -2085.3 -1660.35 -2087.95 -1646.85 -2087.95" fill="#434343" fill-rule="evenodd" stroke="none"/>
    <path d="M-1846.6 -2087.65 L-1833.05 -2087.65 -1833.05 -2084.95 -1846.6 -2084.95 -1846.6 -2087.65" fill="#434343" fill-rule="evenodd" stroke="none"/>
    <path d="M-1748.05 -2186.5 L-1745.25 -2186.5 -1745.25 -2174.05 -1748.05 -2174.05 -1748.05 -2186.5" fill="#434343" fill-rule="evenodd" stroke="none"/>
    <path d="M-1748.05 -1986.9 L-1748.05 -1999.35 -1745.25 -1999.35 -1745.25 -1986.9 -1748.05 -1986.9" fill="#434343" fill-rule="evenodd" stroke="none"/>
  </g>
</svg>
