<?xml version="1.0" encoding="UTF-8" standalone="no"?>
<svg xmlns:ffdec="https://www.free-decompiler.com/flash" xmlns:xlink="http://www.w3.org/1999/xlink" ffdec:objectType="shape" height="548.0px" width="500.0px" xmlns="http://www.w3.org/2000/svg">
  <g transform="matrix(1.0, 0.0, 0.0, 1.0, 0.0, 0.0)">
    <path d="M497.0 497.0 Q500.0 497.0 500.0 500.0 L500.0 548.0 0.0 548.0 0.0 500.0 Q0.0 497.0 3.0 497.0 L497.0 497.0" fill="#ffffff" fill-rule="evenodd" stroke="none"/>
    <path d="M3.0 548.0 Q0.0 548.0 0.0 545.0 L0.0 51.0 500.0 51.0 500.0 545.0 Q500.0 548.0 497.0 548.0 L3.0 548.0" fill="#f1eeee" fill-rule="evenodd" stroke="none"/>
    <path d="M497.0 0.0 Q500.0 0.0 500.0 3.0 L500.0 51.0 0.0 51.0 0.0 3.0 Q0.0 0.0 3.0 0.0 L497.0 0.0" fill="#ffffff" fill-rule="evenodd" stroke="none"/>
    <path d="M480.0 71.0 L480.0 528.0 20.0 528.0 20.0 71.0 480.0 71.0" fill="#cccccc" fill-rule="evenodd" stroke="none"/>
    <path d="M479.0 277.0 L479.0 527.0 21.0 527.0 21.0 277.0 479.0 277.0" fill="#ffffff" fill-rule="evenodd" stroke="none"/>
  </g>
</svg>
