<?xml version="1.0" encoding="UTF-8" standalone="no"?>
<svg xmlns:ffdec="https://www.free-decompiler.com/flash" xmlns:xlink="http://www.w3.org/1999/xlink" ffdec:objectType="shape" height="269.0px" width="380.0px" xmlns="http://www.w3.org/2000/svg">
  <g transform="matrix(1.0, 0.0, 0.0, 1.0, 0.0, 0.0)">
    <path d="M377.0 0.0 Q380.0 0.0 380.0 3.0 L380.0 51.0 0.0 51.0 0.0 3.0 Q0.0 0.0 3.0 0.0 L377.0 0.0" fill="#ffffff" fill-rule="evenodd" stroke="none"/>
    <path d="M380.0 266.0 Q380.0 269.0 377.0 269.0 L3.0 269.0 Q0.0 269.0 0.0 266.0 L0.0 51.0 380.0 51.0 380.0 266.0" fill="#f1eeee" fill-rule="evenodd" stroke="none"/>
    <path d="M380.0 136.0 L0.0 136.0 0.0 92.0 380.0 92.0 380.0 136.0" fill="#f8f7f7" fill-rule="evenodd" stroke="none"/>
    <path d="M380.0 222.0 L0.0 222.0 0.0 178.0 380.0 178.0 380.0 222.0" fill="#f8f7f7" fill-rule="evenodd" stroke="none"/>
  </g>
</svg>
