<?xml version="1.0" encoding="UTF-8" standalone="no"?>
<svg xmlns:ffdec="https://www.free-decompiler.com/flash" xmlns:xlink="http://www.w3.org/1999/xlink" ffdec:objectType="shape" height="32.45px" width="24.15px" xmlns="http://www.w3.org/2000/svg">
  <g transform="matrix(1.0, 0.0, 0.0, 1.0, -20.15, -16.0)">
    <path d="M32.85 16.0 L44.3 27.45 20.6 27.45 20.55 27.35 31.95 16.0 32.85 16.0" fill="#000000" fill-rule="evenodd" stroke="none"/>
    <path d="M44.3 31.45 L44.3 34.45 20.15 34.45 20.15 31.45 44.3 31.45" fill="#000000" fill-rule="evenodd" stroke="none"/>
    <path d="M44.3 38.45 L44.3 41.45 20.15 41.45 20.15 38.45 44.3 38.45" fill="#000000" fill-rule="evenodd" stroke="none"/>
    <path d="M44.3 45.45 L44.3 48.45 20.15 48.45 20.15 45.45 44.3 45.45" fill="#000000" fill-rule="evenodd" stroke="none"/>
    <path d="M30.7 23.95 L33.7 23.95 33.7 48.1 30.7 48.1 30.7 23.95" fill="#000000" fill-rule="evenodd" stroke="none"/>
  </g>
</svg>
