<?xml version="1.0" encoding="UTF-8" standalone="no"?>
<svg xmlns:ffdec="https://www.free-decompiler.com/flash" xmlns:xlink="http://www.w3.org/1999/xlink" ffdec:objectType="shape" height="28.2px" width="32.55px" xmlns="http://www.w3.org/2000/svg">
  <g transform="matrix(1.0, 0.0, 0.0, 1.0, -14.95, -16.9)">
    <path d="M47.5 16.9 L47.5 45.1 43.65 45.1 43.65 22.95 39.55 22.95 39.55 19.9 Q41.75 19.8 42.75 19.05 43.8 18.35 44.0 16.9 L47.5 16.9 M36.15 22.0 Q36.8 23.6 36.8 25.55 36.8 30.0 33.15 32.35 35.9 34.2 35.9 38.2 L35.9 41.65 Q35.9 42.6 36.05 43.4 L36.6 45.1 32.75 45.1 32.25 43.65 32.1 42.0 32.1 38.2 Q32.1 34.2 27.75 34.2 L18.8 34.2 18.8 45.1 14.95 45.1 14.95 16.9 27.55 16.9 Q29.65 16.9 31.35 17.5 33.1 18.15 34.3 19.25 35.5 20.4 36.15 22.0 M32.9 25.55 Q32.9 20.55 27.55 20.55 L18.8 20.55 18.8 30.5 27.65 30.5 Q30.2 30.5 31.55 29.2 32.9 27.9 32.9 25.55" fill="#000000" fill-rule="evenodd" stroke="none"/>
  </g>
</svg>
