<?xml version="1.0" encoding="UTF-8" standalone="no"?>
<svg xmlns:ffdec="https://www.free-decompiler.com/flash" xmlns:xlink="http://www.w3.org/1999/xlink" ffdec:objectType="shape" height="14.0px" width="51.65px" xmlns="http://www.w3.org/2000/svg">
  <g transform="matrix(1.0, 0.0, 0.0, 1.0, 0.0, 0.0)">
    <path d="M20.8 4.2 L21.85 4.2 19.1 9.6 18.0 9.6 17.1 4.2 18.1 4.2 18.75 8.3 20.8 4.2 M29.65 6.1 L29.8 5.65 29.55 5.2 29.0 5.1 27.85 5.1 27.55 6.55 28.1 6.55 29.2 6.45 29.65 6.1 M26.0 4.2 L25.85 5.1 23.15 5.1 22.9 6.35 25.5 6.35 25.35 7.25 22.75 7.25 22.4 8.7 25.35 8.7 25.15 9.6 21.25 9.6 22.3 4.2 26.0 4.2 M32.0 4.2 L33.0 4.2 31.95 9.6 30.95 9.6 32.0 4.2 M30.65 4.8 L30.8 5.65 Q30.8 6.35 30.45 6.75 30.05 7.25 29.3 7.3 L29.65 7.8 30.4 9.6 29.3 9.6 28.8 8.15 28.35 7.45 27.85 7.35 27.4 7.35 26.95 9.6 25.95 9.6 27.0 4.2 29.2 4.2 30.1 4.35 30.65 4.8 M37.45 4.2 L37.3 5.1 34.8 5.1 34.55 6.4 37.0 6.4 36.8 7.3 34.4 7.3 33.95 9.6 32.9 9.6 33.95 4.2 37.45 4.2 M38.2 4.2 L39.25 4.2 38.2 9.6 37.15 9.6 38.2 4.2 M43.75 5.1 L41.05 5.1 40.8 6.35 43.4 6.35 43.25 7.25 40.65 7.25 40.35 8.7 43.25 8.7 43.05 9.6 39.15 9.6 40.2 4.2 43.9 4.2 43.75 5.1 M46.95 4.25 L47.5 4.35 47.95 4.65 48.3 5.1 48.55 5.7 48.6 6.45 48.3 8.0 47.55 9.05 46.6 9.5 45.6 9.6 43.85 9.6 44.9 4.2 46.95 4.25 M47.4 5.55 L47.0 5.15 45.75 5.1 45.05 8.75 45.55 8.75 46.4 8.65 46.85 8.35 47.35 7.6 47.6 6.4 47.4 5.55 M50.35 1.7 Q50.35 1.35 50.0 1.35 L15.35 1.35 15.35 12.7 50.0 12.7 50.35 12.35 50.35 1.7 M51.65 1.7 L51.65 12.35 51.2 13.5 Q50.7 14.0 50.0 14.0 L1.65 14.0 Q1.0 14.0 0.5 13.5 0.0 13.05 0.0 12.35 L0.0 1.7 Q0.0 1.0 0.5 0.5 0.95 0.0 1.65 0.0 L50.0 0.0 Q50.7 0.0 51.2 0.5 51.65 1.0 51.65 1.7 M10.4 7.7 L10.5 8.3 10.55 8.5 10.55 8.65 12.55 8.65 11.55 9.35 11.05 9.7 10.75 9.9 10.8 10.2 10.9 10.8 11.05 11.9 10.2 11.25 9.75 10.9 9.55 10.75 9.5 10.7 9.15 10.9 8.55 11.25 7.4 11.95 7.9 10.8 8.2 10.15 8.35 9.8 8.3 9.75 8.2 9.6 7.85 9.25 7.25 8.6 7.15 8.4 7.1 8.15 7.15 7.7 7.15 7.2 7.0 6.6 6.4 6.45 5.45 6.45 5.0 8.45 3.55 8.45 4.7 2.9 7.5 2.9 8.8 3.15 Q9.3 3.45 9.3 4.35 L9.0 5.4 Q8.7 5.8 8.0 5.9 8.6 6.05 8.6 6.85 L8.6 7.4 8.55 7.9 8.6 8.25 8.75 8.6 9.05 8.6 9.25 8.4 10.25 6.65 10.4 7.7 M7.55 5.25 L7.85 4.6 7.6 4.15 7.05 4.05 5.95 4.05 5.7 5.4 6.85 5.4 7.55 5.25 M1.65 1.35 Q1.3 1.35 1.3 1.7 L1.3 12.35 Q1.3 12.7 1.65 12.7 L14.05 12.7 14.05 1.35 1.65 1.35" fill="#000000" fill-rule="evenodd" stroke="none"/>
  </g>
</svg>
