<?xml version="1.0" encoding="UTF-8" standalone="no"?>
<svg xmlns:ffdec="https://www.free-decompiler.com/flash" xmlns:xlink="http://www.w3.org/1999/xlink" ffdec:objectType="shape" height="23.0px" width="26.2px" xmlns="http://www.w3.org/2000/svg">
  <g transform="matrix(1.0, 0.0, 0.0, 1.0, 0.45, -2.6)">
    <path d="M25.75 5.8 L25.75 22.4 25.7 22.65 25.0 23.95 24.9 24.1 23.7 25.15 23.5 25.25 22.4 25.6 22.25 25.6 3.05 25.6 2.9 25.6 1.8 25.25 1.6 25.15 0.4 24.1 0.3 23.95 -0.4 22.65 -0.45 22.4 -0.45 5.8 -0.4 5.6 0.3 4.3 0.4 4.15 1.6 3.1 1.8 3.0 2.9 2.65 3.05 2.6 22.25 2.6 22.4 2.65 23.5 3.0 23.7 3.1 24.9 4.15 25.0 4.3 25.7 5.6 25.75 5.8 M22.15 3.6 L3.15 3.6 2.25 3.9 1.15 4.85 0.55 5.95 0.55 22.3 1.15 23.35 2.25 24.3 3.15 24.6 22.15 24.6 23.05 24.3 24.15 23.35 24.75 22.3 24.75 5.95 24.15 4.85 23.05 3.9 22.15 3.6" fill="#000000" fill-rule="evenodd" stroke="none"/>
    <path d="M22.15 3.6 L23.05 3.9 24.15 4.85 24.75 5.95 24.75 22.3 24.15 23.35 23.05 24.3 22.15 24.6 3.15 24.6 2.25 24.3 1.15 23.35 0.55 22.3 0.55 5.95 1.15 4.85 2.25 3.9 3.15 3.6 22.15 3.6" fill="#282828" fill-rule="evenodd" stroke="none"/>
  </g>
</svg>
