<?xml version="1.0" encoding="UTF-8" standalone="no"?>
<svg xmlns:ffdec="https://www.free-decompiler.com/flash" xmlns:xlink="http://www.w3.org/1999/xlink" ffdec:objectType="shape" height="63.95px" width="64.0px" xmlns="http://www.w3.org/2000/svg">
  <g transform="matrix(1.0, 0.0, 0.0, 1.0, 0.0, 0.0)">
    <path d="M57.15 15.45 L60.35 22.55 61.9 30.35 61.35 37.95 58.8 45.35 54.4 51.85 54.4 52.0 48.65 56.85 48.55 56.95 41.6 60.25 33.85 61.8 26.15 61.25 18.75 58.7 12.25 54.3 7.25 48.55 7.25 48.45 3.85 41.5 2.3 33.65 2.85 26.05 5.5 18.65 9.8 12.05 9.9 12.05 15.65 7.1 22.7 3.65 30.45 2.25 38.15 2.7 45.55 5.35 52.2 9.85 57.05 15.45 57.15 15.45" fill="#282828" fill-rule="evenodd" stroke="none"/>
    <path d="M62.35 21.7 L62.45 21.95 64.0 29.85 64.0 30.2 63.45 38.25 63.45 38.45 60.8 46.2 60.7 46.5 56.15 53.15 55.95 53.35 49.75 58.65 49.55 58.75 42.35 62.3 42.05 62.4 34.1 63.95 33.85 63.95 25.8 63.4 25.5 63.4 17.75 60.75 17.55 60.65 10.9 56.1 10.7 55.9 5.4 49.7 5.2 49.5 1.65 42.2 1.55 41.9 0.0 33.95 0.0 33.6 0.55 25.55 0.65 25.35 3.4 17.75 Q3.4 17.5 3.55 17.5 L7.95 10.8 8.15 10.55 14.35 5.3 14.55 5.05 21.85 1.55 Q21.95 1.4 22.2 1.4 L30.1 0.0 30.35 0.0 38.4 0.4 38.75 0.55 46.35 3.3 46.55 3.4 53.3 7.9 53.5 8.15 58.8 14.2 62.35 21.7" fill="#000000" fill-rule="evenodd" stroke="none"/>
    <path d="M43.9 25.4 Q43.9 27.25 42.95 28.85 42.05 30.55 40.35 31.55 42.6 32.45 43.65 34.35 44.7 36.3 44.7 38.8 44.7 42.75 42.05 45.35 40.7 46.7 38.95 47.25 L34.95 47.8 21.45 47.8 21.45 16.9 34.85 16.9 38.6 17.5 Q40.3 18.15 41.45 19.25 42.65 20.35 43.25 21.9 43.9 23.5 43.9 25.4 M25.65 20.9 L25.65 29.75 35.0 29.75 Q37.0 29.75 38.35 28.65 39.65 27.6 39.65 25.35 39.65 20.9 34.85 20.9 L25.65 20.9 M39.05 42.55 Q40.5 41.2 40.5 38.85 40.5 33.75 35.0 33.75 L25.65 33.75 25.65 43.9 35.15 43.9 Q37.65 43.9 39.05 42.55" fill="#cc6666" fill-rule="evenodd" stroke="none"/>
  </g>
</svg>
