<?xml version="1.0" encoding="UTF-8" standalone="no"?>
<svg xmlns:ffdec="https://www.free-decompiler.com/flash" xmlns:xlink="http://www.w3.org/1999/xlink" ffdec:objectType="shape" height="25.75px" width="35.5px" xmlns="http://www.w3.org/2000/svg">
  <g transform="matrix(1.0, 0.0, 0.0, 1.0, -15.15, -20.0)">
    <path d="M41.9 23.15 Q39.45 23.15 38.25 24.5 37.05 25.85 37.05 28.0 L33.6 28.0 Q33.6 24.4 35.9 22.2 38.35 20.0 41.9 20.0 45.5 20.0 47.65 21.95 49.8 23.95 49.8 26.9 49.8 30.35 47.0 31.9 50.65 33.55 50.65 38.1 50.65 41.4 48.2 43.7 45.9 45.75 41.7 45.75 37.45 45.75 35.35 43.75 33.1 41.55 32.85 37.95 L36.3 37.95 Q36.55 40.4 37.85 41.6 39.2 42.75 41.7 42.75 44.25 42.75 45.8 41.4 47.3 40.1 47.3 38.1 47.3 35.95 45.85 34.85 44.45 33.75 41.45 33.75 L40.15 33.75 40.15 30.65 Q43.55 30.65 45.0 29.7 46.4 28.7 46.4 26.9 46.4 25.2 45.25 24.15 44.15 23.15 41.9 23.15 M18.55 20.6 L18.55 42.25 31.15 42.25 31.15 45.35 15.15 45.35 15.15 20.6 18.55 20.6" fill="#000000" fill-rule="evenodd" stroke="none"/>
  </g>
</svg>
