<?xml version="1.0" encoding="UTF-8" standalone="no"?>
<svg xmlns:ffdec="https://www.free-decompiler.com/flash" xmlns:xlink="http://www.w3.org/1999/xlink" ffdec:objectType="shape" height="29.9px" width="29.9px" xmlns="http://www.w3.org/2000/svg">
  <g transform="matrix(1.0, 0.0, 0.0, 1.0, 0.0, 0.0)">
    <path d="M29.5 9.7 L29.5 9.8 29.85 10.65 29.9 10.75 29.9 19.25 29.5 20.25 29.4 20.3 28.85 20.85 28.0 20.95 22.25 20.95 21.2 20.55 16.65 16.2 16.5 16.1 16.5 13.8 21.2 9.45 22.35 9.0 28.0 9.0 28.85 9.15 28.9 9.2 29.5 9.7" fill="#000000" fill-rule="evenodd" stroke="none"/>
    <path d="M22.5 10.0 L27.85 10.0 28.4 10.1 28.65 10.3 28.9 10.95 28.9 19.0 28.65 19.7 28.4 19.9 27.85 19.95 22.5 19.95 21.75 19.7 17.5 15.65 17.5 14.2 21.75 10.3 22.5 10.0" fill="#ffffff" fill-rule="evenodd" stroke="none"/>
    <path d="M1.1 9.15 L1.95 9.0 7.6 9.0 7.65 9.05 8.75 9.45 13.4 13.8 13.4 16.1 8.75 20.55 7.6 20.95 1.95 20.95 1.1 20.85 0.45 20.25 0.4 20.15 0.05 19.3 0.0 19.2 0.0 10.75 0.05 10.7 0.45 9.7 0.5 9.65 1.1 9.15" fill="#000000" fill-rule="evenodd" stroke="none"/>
    <path d="M1.3 10.3 L1.5 10.1 2.1 10.0 7.45 10.0 8.15 10.3 12.4 14.25 12.4 15.65 8.15 19.7 7.45 19.95 2.1 19.95 1.5 19.9 1.25 19.65 1.0 19.05 1.0 10.95 1.3 10.3" fill="#ffffff" fill-rule="evenodd" stroke="none"/>
    <path d="M20.45 21.1 L20.55 21.3 20.9 22.3 20.9 28.0 20.8 28.85 20.2 29.5 19.15 29.9 10.65 29.9 9.65 29.5 9.6 29.4 9.1 28.85 8.95 28.0 8.95 22.35 9.4 21.2 13.85 16.5 16.15 16.5 20.45 21.1" fill="#000000" fill-rule="evenodd" stroke="none"/>
    <path d="M10.25 21.75 L14.25 17.5 15.7 17.5 19.65 21.75 19.9 22.5 19.9 27.85 19.85 28.4 19.6 28.65 18.95 28.9 10.95 28.9 10.25 28.65 10.05 28.4 9.95 27.85 9.95 22.5 10.25 21.75" fill="#ffffff" fill-rule="evenodd" stroke="none"/>
    <path d="M20.8 1.1 L20.9 1.95 20.9 7.6 20.5 8.75 16.15 13.4 13.85 13.4 9.4 8.75 9.35 8.65 8.95 7.6 8.95 1.95 9.1 1.1 9.15 1.0 9.65 0.45 10.7 0.0 19.15 0.0 20.2 0.45 20.8 1.1" fill="#000000" fill-rule="evenodd" stroke="none"/>
    <path d="M19.9 2.1 L19.9 7.45 19.65 8.2 15.7 12.4 14.25 12.4 10.25 8.2 9.95 7.4 9.95 2.1 10.05 1.5 10.25 1.3 10.9 1.0 18.95 1.0 19.65 1.3 19.85 1.5 19.9 2.1" fill="#ffffff" fill-rule="evenodd" stroke="none"/>
  </g>
</svg>
