<?xml version="1.0" encoding="UTF-8" standalone="no"?>
<svg xmlns:ffdec="https://www.free-decompiler.com/flash" xmlns:xlink="http://www.w3.org/1999/xlink" ffdec:objectType="shape" height="530.5px" width="646.45px" xmlns="http://www.w3.org/2000/svg">
  <g transform="matrix(1.0, 0.0, 0.0, 1.0, 175.7, 154.35)">
    <path d="M470.75 -84.85 Q470.75 115.15 470.25 315.15 L243.25 315.15 243.25 376.15 157.25 376.15 157.25 158.15 84.25 158.15 84.25 140.65 -175.7 140.65 -175.7 34.65 -83.7 34.65 -83.7 -76.85 -43.2 -76.85 -43.2 -138.85 53.75 -138.85 53.75 -132.85 165.75 -132.85 165.75 -154.35 292.75 -154.35 292.75 -84.85 470.75 -84.85" fill="#424242" fill-rule="evenodd" stroke="none"/>
    <path d="M235.75 -12.35 L265.25 -12.35 265.25 -15.35 235.75 -15.35 235.75 -12.35 M215.25 -32.85 L285.75 -32.85 285.75 5.15 215.25 5.15 215.25 -32.85" fill="#ffffff" fill-rule="evenodd" stroke="none"/>
  </g>
</svg>
