<?xml version="1.0" encoding="UTF-8" standalone="no"?>
<svg xmlns:ffdec="https://www.free-decompiler.com/flash" xmlns:xlink="http://www.w3.org/1999/xlink" ffdec:objectType="shape" height="19.3px" width="28.95px" xmlns="http://www.w3.org/2000/svg">
  <g transform="matrix(1.0, 0.0, 0.0, 1.0, -13.05, -1.0)">
    <path d="M42.0 6.0 Q42.0 12.45 37.65 16.6 33.85 20.3 27.4 20.3 20.7 20.3 17.35 17.1 13.5 13.6 13.05 8.35 L18.9 8.35 Q19.35 11.25 21.5 13.2 23.65 15.1 27.4 15.1 L31.05 14.45 Q32.7 13.8 33.85 12.55 35.05 11.3 35.7 9.65 36.35 8.0 36.35 6.0 36.35 3.95 35.75 2.3 L35.15 1.0 41.3 1.0 Q42.0 3.3 42.0 6.0 M17.65 1.0 L20.05 1.0 19.5 1.75 17.65 1.0" fill="#ffffff" fill-opacity="0.9019608" fill-rule="evenodd" stroke="none"/>
  </g>
</svg>
