<?xml version="1.0" encoding="UTF-8" standalone="no"?>
<svg xmlns:ffdec="https://www.free-decompiler.com/flash" xmlns:xlink="http://www.w3.org/1999/xlink" ffdec:objectType="shape" height="19.3px" width="29.95px" xmlns="http://www.w3.org/2000/svg">
  <g transform="matrix(1.0, 0.0, 0.0, 1.0, -12.85, -1.0)">
    <path d="M42.8 5.75 Q42.8 12.35 38.6 16.5 36.55 18.5 34.0 19.4 31.4 20.3 28.35 20.3 21.4 20.3 17.45 15.75 12.9 10.75 12.85 1.0 L20.6 1.0 Q19.4 3.1 19.4 5.75 19.4 7.85 20.05 9.6 20.7 11.3 21.9 12.6 23.1 13.85 24.8 14.55 26.5 15.3 28.5 15.3 32.45 15.3 34.8 12.8 37.1 10.25 37.1 5.75 37.1 3.05 36.2 1.0 L42.2 1.0 Q42.8 3.2 42.8 5.75" fill="#ffffff" fill-opacity="0.9019608" fill-rule="evenodd" stroke="none"/>
  </g>
</svg>
