<?xml version="1.0" encoding="UTF-8" standalone="no"?>
<svg xmlns:ffdec="https://www.free-decompiler.com/flash" xmlns:xlink="http://www.w3.org/1999/xlink" ffdec:objectType="shape" height="19.3px" width="29.65px" xmlns="http://www.w3.org/2000/svg">
  <g transform="matrix(1.0, 0.0, 0.0, 1.0, -12.65, -1.0)">
    <path d="M40.7 1.2 Q42.3 4.0 42.3 7.4 42.3 12.9 38.05 16.8 34.15 20.3 27.45 20.3 24.2 20.3 21.6 19.5 19.0 18.75 16.85 16.8 12.65 12.95 12.65 7.4 12.65 4.0 14.2 1.2 L14.35 1.0 21.8 1.0 20.85 1.7 Q19.65 2.75 19.0 4.25 18.35 5.7 18.35 7.35 18.35 11.0 21.05 13.2 23.7 15.3 27.45 15.3 31.25 15.3 33.9 13.2 36.55 11.0 36.55 7.35 36.55 5.7 35.9 4.25 35.25 2.75 34.05 1.7 L33.15 1.0 40.6 1.0 40.7 1.2" fill="#ffffff" fill-opacity="0.9019608" fill-rule="evenodd" stroke="none"/>
  </g>
</svg>
