<?xml version="1.0" encoding="UTF-8" standalone="no"?>
<svg xmlns:ffdec="https://www.free-decompiler.com/flash" xmlns:xlink="http://www.w3.org/1999/xlink" ffdec:objectType="shape" height="19.3px" width="28.9px" xmlns="http://www.w3.org/2000/svg">
  <g transform="matrix(1.0, 0.0, 0.0, 1.0, -13.15, -1.0)">
    <path d="M26.6 20.3 Q21.0 20.3 17.6 17.45 14.2 14.7 13.15 9.95 L19.0 9.95 Q19.65 12.25 21.55 13.7 23.45 15.2 26.65 15.2 31.0 15.2 33.45 11.95 35.85 8.75 36.5 1.85 34.95 3.75 32.35 4.95 29.75 6.15 26.85 6.15 20.55 6.15 16.4 2.05 L15.5 1.0 42.05 1.0 Q41.5 9.55 38.35 14.4 34.5 20.3 26.6 20.3" fill="#ffffff" fill-opacity="0.9019608" fill-rule="evenodd" stroke="none"/>
  </g>
</svg>
