<?xml version="1.0" encoding="UTF-8" standalone="no"?>
<svg xmlns:ffdec="https://www.free-decompiler.com/flash" xmlns:xlink="http://www.w3.org/1999/xlink" ffdec:objectType="shape" height="23.4px" width="28.45px" xmlns="http://www.w3.org/2000/svg">
  <g transform="matrix(1.0, 0.0, 0.0, 1.0, -13.35, 23.4)">
    <path d="M17.2 -19.1 Q21.05 -23.4 27.9 -23.4 34.1 -23.4 38.0 -19.9 41.8 -16.35 41.8 -11.05 41.8 -8.15 40.95 -6.05 40.15 -3.9 38.05 -2.0 L36.1 -0.3 35.75 0.0 25.25 0.0 25.85 -0.35 Q32.0 -3.8 34.05 -5.9 36.05 -7.95 36.05 -11.05 36.05 -12.5 35.6 -13.8 35.1 -15.1 34.15 -16.0 33.15 -17.0 31.6 -17.55 30.0 -18.15 27.9 -18.15 23.6 -18.15 21.45 -15.45 19.3 -12.8 19.15 -8.3 L13.35 -8.3 Q13.4 -11.7 14.35 -14.35 15.3 -17.0 17.2 -19.1" fill="#ffffff" fill-opacity="0.9019608" fill-rule="evenodd" stroke="none"/>
  </g>
</svg>
