<?xml version="1.0" encoding="UTF-8" standalone="no"?>
<svg xmlns:ffdec="https://www.free-decompiler.com/flash" xmlns:xlink="http://www.w3.org/1999/xlink" ffdec:objectType="shape" height="23.4px" width="27.5px" xmlns="http://www.w3.org/2000/svg">
  <g transform="matrix(1.0, 0.0, 0.0, 1.0, -13.45, 23.4)">
    <path d="M17.4 -19.7 Q21.5 -23.4 27.55 -23.4 33.7 -23.4 37.35 -20.1 40.95 -16.75 40.95 -11.7 40.95 -5.8 36.2 -3.25 38.85 -2.05 40.4 0.0 L29.0 0.0 26.8 -0.1 24.55 -0.1 24.55 -5.35 Q30.4 -5.35 32.8 -7.0 35.25 -8.65 35.25 -11.7 35.25 -14.65 33.3 -16.4 31.35 -18.15 27.55 -18.15 23.4 -18.15 21.4 -15.8 19.35 -13.5 19.35 -9.85 L13.45 -9.85 Q13.45 -15.95 17.4 -19.7" fill="#ffffff" fill-opacity="0.9019608" fill-rule="evenodd" stroke="none"/>
  </g>
</svg>
