<?xml version="1.0" encoding="UTF-8" standalone="no"?>
<svg xmlns:ffdec="https://www.free-decompiler.com/flash" xmlns:xlink="http://www.w3.org/1999/xlink" ffdec:objectType="shape" height="23.4px" width="29.3px" xmlns="http://www.w3.org/2000/svg">
  <g transform="matrix(1.0, 0.0, 0.0, 1.0, -12.85, 23.4)">
    <path d="M38.8 -4.95 Q40.85 -2.75 41.85 0.0 L35.7 0.0 34.8 -1.2 Q32.5 -3.8 28.5 -3.8 24.85 -3.8 22.1 -1.0 L21.25 0.0 12.85 0.0 Q13.0 -10.35 16.7 -16.5 20.9 -23.4 28.75 -23.4 35.3 -23.4 39.0 -19.0 41.35 -16.2 42.15 -11.85 L36.35 -11.85 Q35.55 -15.1 33.65 -16.6 31.8 -18.15 28.75 -18.15 24.6 -18.15 22.0 -14.5 19.4 -10.85 18.75 -4.5 20.65 -6.75 23.25 -7.95 25.85 -9.15 28.55 -9.15 34.75 -9.15 38.8 -4.95" fill="#ffffff" fill-opacity="0.9019608" fill-rule="evenodd" stroke="none"/>
  </g>
</svg>
