<?xml version="1.0" encoding="UTF-8" standalone="no"?>
<svg xmlns:ffdec="https://www.free-decompiler.com/flash" xmlns:xlink="http://www.w3.org/1999/xlink" ffdec:objectType="shape" height="23.4px" width="26.3px" xmlns="http://www.w3.org/2000/svg">
  <g transform="matrix(1.0, 0.0, 0.0, 1.0, -14.3, 23.4)">
    <path d="M18.05 -20.1 Q21.7 -23.4 27.45 -23.4 33.25 -23.4 36.9 -20.1 40.6 -16.85 40.6 -12.0 40.6 -6.8 36.2 -3.3 38.45 -1.95 39.9 0.0 L31.05 0.0 27.45 -0.55 23.9 0.0 15.05 0.0 Q16.5 -1.95 18.7 -3.3 14.3 -6.8 14.3 -12.0 14.3 -16.85 18.05 -20.1 M22.05 -16.4 Q20.0 -14.65 20.0 -11.95 20.0 -9.0 22.2 -7.4 24.4 -5.7 27.45 -5.7 30.45 -5.7 32.7 -7.4 34.9 -9.05 34.9 -11.95 34.9 -14.65 32.9 -16.4 30.9 -18.15 27.45 -18.15 24.05 -18.15 22.05 -16.4" fill="#ffffff" fill-opacity="0.9019608" fill-rule="evenodd" stroke="none"/>
  </g>
</svg>
