<?xml version="1.0" encoding="UTF-8" standalone="no"?>
<svg xmlns:ffdec="https://www.free-decompiler.com/flash" xmlns:xlink="http://www.w3.org/1999/xlink" ffdec:objectType="shape" height="23.4px" width="29.75px" xmlns="http://www.w3.org/2000/svg">
  <g transform="matrix(1.0, 0.0, 0.0, 1.0, -12.4, 23.4)">
    <path d="M16.4 -19.25 Q20.55 -23.4 26.8 -23.4 34.85 -23.4 38.95 -16.65 42.15 -11.3 42.15 -2.7 L42.1 0.0 31.05 0.0 Q32.35 -0.65 33.3 -1.7 34.5 -2.95 35.15 -4.7 35.8 -6.5 35.8 -8.6 35.8 -12.75 33.3 -15.45 30.75 -18.15 26.85 -18.15 24.85 -18.15 23.25 -17.45 21.65 -16.75 20.5 -15.5 19.35 -14.25 18.75 -12.5 18.1 -10.75 18.1 -8.6 18.1 -4.25 20.5 -1.65 21.45 -0.6 22.65 0.0 L14.75 0.0 Q12.4 -3.55 12.4 -8.6 12.4 -15.25 16.4 -19.25" fill="#ffffff" fill-opacity="0.9019608" fill-rule="evenodd" stroke="none"/>
  </g>
</svg>
