<?xml version="1.0" encoding="UTF-8" standalone="no"?>
<svg xmlns:ffdec="https://www.free-decompiler.com/flash" xmlns:xlink="http://www.w3.org/1999/xlink" ffdec:objectType="shape" height="306.5px" width="347.5px" xmlns="http://www.w3.org/2000/svg">
  <g transform="matrix(1.0, 0.0, 0.0, 1.0, -84.05, 138.65)">
    <path d="M250.55 -58.65 L219.05 -120.15 Q237.05 -129.15 254.55 -138.65 L286.05 -77.15 Q344.05 -106.15 401.55 -135.65 L425.05 -90.15 348.05 -51.15 431.55 112.35 Q377.05 140.35 322.55 167.85 314.55 151.35 306.05 134.85 L288.55 143.85 278.55 124.35 263.55 132.35 206.55 21.35 Q157.05 46.85 107.05 71.85 L84.05 25.85 Q167.55 -16.15 250.55 -58.65" fill="#424242" fill-rule="evenodd" stroke="none"/>
    <path d="M334.05 -58.65 L322.05 -82.15 324.05 -83.15 321.05 -88.65 Q358.55 -107.65 396.05 -127.15 L414.05 -92.65 Q376.55 -73.15 338.55 -54.15 L336.05 -59.65 334.05 -58.65" fill="#6f6f6f" fill-rule="evenodd" stroke="none"/>
    <path d="M110.55 61.85 L93.55 27.35 Q131.55 8.35 169.05 -11.15 170.55 -8.65 171.55 -6.15 L173.55 -7.15 185.55 15.85 183.55 16.85 186.55 23.35 Q148.55 42.85 110.55 61.85" fill="#6f6f6f" fill-rule="evenodd" stroke="none"/>
    <path d="M258.05 -56.65 L253.05 -66.15 Q258.05 -71.65 262.55 -77.65 L279.55 -79.65 284.55 -70.15 319.55 -88.15 Q328.55 -70.65 337.05 -53.15 L240.55 -4.15 241.55 -1.65 Q243.05 -2.15 244.55 -3.15 L246.05 -0.65 Q293.05 -24.15 339.55 -48.15 L417.55 105.35 387.05 121.35 Q387.55 121.85 387.55 122.35 L376.05 128.35 375.05 127.35 Q349.55 140.35 324.05 152.85 L310.05 124.85 Q302.55 128.85 294.55 132.35 L292.55 128.35 Q292.05 128.85 291.05 128.85 L285.05 117.35 Q286.05 117.35 286.55 116.85 L284.55 112.85 Q277.55 116.35 270.05 119.85 L215.05 11.85 Q217.05 11.35 218.55 10.35 L217.05 7.85 Q203.05 15.35 188.55 22.35 L170.55 -12.15 Q214.55 -34.15 258.05 -56.65" fill="#959595" fill-rule="evenodd" stroke="none"/>
    <path d="M279.55 -79.65 Q266.55 -72.65 253.05 -66.15 L224.05 -123.15 Q237.55 -129.65 250.55 -136.65 L279.55 -79.65" fill="#ffffff" fill-rule="evenodd" stroke="none"/>
    <path d="M360.05 29.85 L352.55 33.85 334.55 -1.15 342.55 -5.15 Q351.55 12.35 360.05 29.85" fill="#6f6f6f" fill-rule="evenodd" stroke="none"/>
    <path d="M305.55 66.35 Q304.05 67.35 302.55 67.85 L278.05 19.35 280.55 18.35 305.55 66.35" fill="#424242" fill-rule="evenodd" stroke="none"/>
    <path d="M395.55 56.85 Q346.55 82.35 297.05 107.35 L295.05 103.85 Q344.55 78.85 393.55 53.85 L395.55 56.85" fill="#424242" fill-rule="evenodd" stroke="none"/>
    <path d="M417.55 105.35 Q409.55 109.85 401.55 113.85 L397.55 106.35 Q400.55 104.85 403.05 103.35 395.55 87.85 387.55 72.35 L349.55 91.35 345.55 82.85 393.55 57.85 417.55 105.35" fill="#6f6f6f" fill-rule="evenodd" stroke="none"/>
    <path d="M341.05 -45.15 L280.05 -14.15 278.05 -18.15 339.05 -49.15 341.05 -45.15" fill="#424242" fill-rule="evenodd" stroke="none"/>
    <path d="M332.55 148.85 L324.05 152.85 Q317.55 139.35 310.55 125.85 314.55 123.85 318.55 121.35 L332.55 148.85" fill="#6f6f6f" fill-rule="evenodd" stroke="none"/>
  </g>
</svg>
