<?xml version="1.0" encoding="UTF-8" standalone="no"?>
<svg xmlns:ffdec="https://www.free-decompiler.com/flash" xmlns:xlink="http://www.w3.org/1999/xlink" ffdec:objectType="shape" height="424.45px" width="485.95px" xmlns="http://www.w3.org/2000/svg">
  <g transform="matrix(1.0, 0.0, 0.0, 1.0, 276.7, 219.7)">
    <path d="M-276.7 -219.7 L209.25 -219.7 209.25 204.75 -276.7 204.75 -276.7 -219.7" fill="#434343" fill-rule="evenodd" stroke="none"/>
    <path d="M-146.15 -212.9 L-96.45 -212.9 -96.45 -207.15 -86.85 -198.7 -36.0 -198.7 -26.35 -207.15 -26.35 -212.9 23.4 -212.9 23.4 -207.15 33.0 -198.7 83.8 -198.7 93.5 -207.15 93.5 -212.9 143.25 -212.9 143.25 -207.15 152.8 -198.7 179.25 -198.7 179.25 191.5 166.0 191.5 166.0 197.0 71.0 197.0 71.0 191.5 46.75 191.5 46.75 197.0 -48.25 197.0 -48.25 191.5 -72.5 191.5 -72.5 197.0 -167.5 197.0 -167.5 191.5 -177.75 191.5 -177.75 81.35 -139.3 81.35 -139.3 60.7 -149.0 60.7 -149.0 49.35 -163.0 49.35 -163.0 64.7 -177.75 64.7 -177.75 -31.3 -163.0 -31.3 -163.0 -16.0 -149.0 -16.0 -149.0 -27.3 -139.3 -27.3 -139.3 -48.0 -177.75 -48.0 -177.75 -198.7 -155.85 -198.7 -146.15 -207.15 -146.15 -212.9" fill="#000000" fill-rule="evenodd" stroke="none"/>
    <path d="M-258.0 64.7 L-258.0 -31.3 -163.0 -31.3 -163.0 64.7 -258.0 64.7" fill="#000000" fill-rule="evenodd" stroke="none"/>
    <path d="M-30.65 204.75 L-30.65 197.0 29.7 197.0 29.7 204.75 -30.65 204.75" fill="#000000" fill-rule="evenodd" stroke="none"/>
    <path d="M159.35 85.2 L127.35 85.2 127.35 -51.5 159.35 -51.5 159.35 85.2" fill="#000000" fill-rule="evenodd" stroke="none"/>
    <path d="M136.7 -54.5 L179.25 -54.5 179.25 88.2 136.7 88.2 136.7 -54.5" fill="#000000" fill-rule="evenodd" stroke="none"/>
    <path d="M58.7 -93.3 L-61.3 -93.3 -61.3 -135.3 58.7 -135.3 58.7 -93.3" fill="#000000" fill-rule="evenodd" stroke="none"/>
    <path d="M-156.0 -132.0 L-156.0 -53.3 -177.75 -53.3 -177.75 -132.0 -156.0 -132.0" fill="#000000" fill-rule="evenodd" stroke="none"/>
    <path d="M-123.3 104.0 L-58.65 104.0 -58.65 142.7 -123.3 142.7 -123.3 104.0" fill="#000000" fill-rule="evenodd" stroke="none"/>
    <path d="M179.25 176.0 L154.7 176.0 154.7 98.0 179.25 98.0 179.25 176.0" fill="#000000" fill-rule="evenodd" stroke="none"/>
    <path d="M179.25 -145.3 L203.35 -145.3 203.35 -99.3 179.25 -99.3 179.25 -145.3" fill="#000000" fill-rule="evenodd" stroke="none"/>
    <path d="M-128.65 -160.65 L-129.9 -151.6 -134.55 -143.75 -141.8 -138.25 -150.65 -136.0 -159.65 -137.25 -167.55 -141.85 -173.0 -149.15 -175.3 -158.0 -174.05 -167.0 -169.4 -174.85 -162.15 -180.35 -153.3 -182.65 -144.3 -181.4 -136.4 -176.75 -130.95 -169.45 -128.65 -160.65" fill="#000000" fill-rule="evenodd" stroke="none"/>
    <path d="M-177.75 94.0 L-154.65 94.0 -154.65 148.7 -177.75 148.7 -177.75 94.0" fill="#000000" fill-rule="evenodd" stroke="none"/>
    <path d="M-146.15 -212.9 L-96.45 -212.9 -96.45 -207.15 -86.85 -198.7 -36.0 -198.7 -26.35 -207.15 -26.35 -212.9 23.4 -212.9 23.4 -207.15 33.0 -198.7 83.8 -198.7 93.5 -207.15 93.5 -212.9 143.25 -212.9 143.25 -207.15 152.8 -198.7 179.25 -198.7 179.25 191.5 166.0 191.5 166.0 197.0 71.0 197.0 71.0 191.5 46.75 191.5 46.75 197.0 -48.25 197.0 -48.25 191.5 -72.5 191.5 -72.5 197.0 -167.5 197.0 -167.5 191.5 -177.75 191.5 -177.75 81.35 -139.3 81.35 -139.3 60.7 -149.0 60.7 -149.0 49.35 -163.0 49.35 -163.0 64.7 -177.75 64.7 -177.75 -31.3 -163.0 -31.3 -163.0 -16.0 -149.0 -16.0 -149.0 -27.3 -139.3 -27.3 -139.3 -48.0 -177.75 -48.0 -177.75 -198.7 -155.85 -198.7 -146.15 -207.15 -146.15 -212.9" fill="#969696" fill-rule="evenodd" stroke="none"/>
    <path d="M-258.0 64.7 L-258.0 -31.3 -163.0 -31.3 -163.0 64.7 -258.0 64.7" fill="#ffffff" fill-rule="evenodd" stroke="none"/>
    <path d="M-30.65 204.75 L-30.65 197.0 29.7 197.0 29.7 204.75 -30.65 204.75" fill="#ffffff" fill-rule="evenodd" stroke="none"/>
    <path d="M159.35 85.2 L127.35 85.2 127.35 -51.5 159.35 -51.5 159.35 85.2" fill="#707070" fill-rule="evenodd" stroke="none"/>
    <path d="M136.7 -54.5 L179.25 -54.5 179.25 88.2 136.7 88.2 136.7 -54.5" fill="#707070" fill-rule="evenodd" stroke="none"/>
    <path d="M58.7 -93.3 L-61.3 -93.3 -61.3 -135.3 58.7 -135.3 58.7 -93.3" fill="#707070" fill-rule="evenodd" stroke="none"/>
    <path d="M-156.0 -132.0 L-156.0 -53.3 -177.75 -53.3 -177.75 -132.0 -156.0 -132.0" fill="#707070" fill-rule="evenodd" stroke="none"/>
    <path d="M-123.3 104.0 L-58.65 104.0 -58.65 142.7 -123.3 142.7 -123.3 104.0" fill="#707070" fill-rule="evenodd" stroke="none"/>
    <path d="M179.25 176.0 L154.7 176.0 154.7 98.0 179.25 98.0 179.25 176.0" fill="#707070" fill-rule="evenodd" stroke="none"/>
    <path d="M179.25 -145.3 L203.35 -145.3 203.35 -99.3 179.25 -99.3 179.25 -145.3" fill="#707070" fill-rule="evenodd" stroke="none"/>
    <path d="M-128.65 -160.65 L-129.9 -151.6 -134.55 -143.75 -141.8 -138.25 -150.65 -136.0 -159.65 -137.25 -167.55 -141.85 -173.0 -149.15 -175.3 -158.0 -174.05 -167.0 -169.4 -174.85 -162.15 -180.35 -153.3 -182.65 -144.3 -181.4 -136.4 -176.75 -130.95 -169.45 -128.65 -160.65" fill="#707070" fill-rule="evenodd" stroke="none"/>
    <path d="M-177.75 94.0 L-154.65 94.0 -154.65 148.7 -177.75 148.7 -177.75 94.0" fill="#707070" fill-rule="evenodd" stroke="none"/>
  </g>
</svg>
