<?xml version="1.0" encoding="UTF-8" standalone="no"?>
<svg xmlns:ffdec="https://www.free-decompiler.com/flash" xmlns:xlink="http://www.w3.org/1999/xlink" ffdec:objectType="shape" height="16.4px" width="7.95px" xmlns="http://www.w3.org/2000/svg">
  <g transform="matrix(1.0, 0.0, 0.0, 1.0, 4.2, 10.05)">
    <path d="M-4.2 -10.05 L3.75 -10.05 3.75 6.35 -4.2 6.35 -4.2 -10.05" fill="#424242" fill-rule="evenodd" stroke="none"/>
    <path d="M-0.4 5.15 L-0.25 5.65 0.0 6.0 0.2 6.2 0.4 6.35 -1.6 6.35 -1.6 5.05 -0.4 5.05 -0.4 5.15" fill="#6f6f6f" fill-rule="evenodd" stroke="none"/>
    <path d="M1.25 -5.5 L2.55 -5.5 2.55 -5.05 3.2 -5.05 3.2 5.9 2.9 5.9 2.9 6.25 0.45 6.25 0.25 6.15 0.05 5.95 -0.15 5.6 -0.2 5.35 -0.3 5.05 -0.4 5.05 -0.4 5.15 -1.6 5.15 -1.6 5.05 -2.6 5.05 -2.6 -5.05 1.25 -5.05 1.25 -5.5" fill="#959595" fill-rule="evenodd" stroke="none"/>
    <path d="M-2.6 2.35 L-2.6 1.6 -1.35 1.6 -1.35 2.35 -2.6 2.35" fill="#6f6f6f" fill-rule="evenodd" stroke="none"/>
    <path d="M1.95 -0.4 L2.2 -0.3 2.25 -0.3 2.25 0.1 2.2 0.1 1.95 0.2 1.95 0.25 1.45 0.2 1.4 0.15 1.25 0.15 1.2 0.05 1.2 -0.35 1.4 -0.4 1.45 -0.4 1.95 -0.45 1.95 -0.4" fill="#6f6f6f" fill-rule="evenodd" stroke="none"/>
    <path d="M1.2 1.55 L1.2 1.15 1.4 1.15 1.45 1.1 1.95 1.05 1.95 1.1 2.2 1.2 2.25 1.2 2.25 1.65 2.2 1.65 1.95 1.7 1.95 1.75 1.45 1.7 1.4 1.65 1.25 1.65 1.2 1.55" fill="#6f6f6f" fill-rule="evenodd" stroke="none"/>
    <path d="M1.2 -1.45 L1.2 -1.85 1.4 -1.9 1.45 -1.9 1.95 -1.95 1.95 -1.9 2.2 -1.8 2.25 -1.8 2.25 -1.4 2.2 -1.4 1.95 -1.3 1.95 -1.25 1.45 -1.3 1.4 -1.35 1.25 -1.35 1.2 -1.45" fill="#6f6f6f" fill-rule="evenodd" stroke="none"/>
    <path d="M2.85 -2.55 L2.85 -2.6 3.2 -2.6 3.2 2.4 2.7 2.4 2.7 1.85 2.85 1.85 2.85 0.9 2.65 0.9 2.65 0.35 2.85 0.35 2.85 -0.4 2.65 -0.4 2.65 -1.15 2.85 -1.15 2.85 -2.0 2.65 -2.0 2.65 -2.55 2.85 -2.55" fill="#6f6f6f" fill-rule="evenodd" stroke="none"/>
    <path d="M2.3 5.5 L2.3 2.7 3.2 2.7 3.2 5.5 2.3 5.5" fill="#6f6f6f" fill-rule="evenodd" stroke="none"/>
    <path d="M0.8 5.65 L0.8 4.7 1.8 4.7 1.8 5.65 0.8 5.65" fill="#6f6f6f" fill-rule="evenodd" stroke="none"/>
    <path d="M-2.6 4.2 L-2.6 3.0 -2.35 3.0 -2.35 4.2 -2.6 4.2" fill="#6f6f6f" fill-rule="evenodd" stroke="none"/>
    <path d="M-0.4 -5.05 L-0.4 -4.45 -1.05 -4.45 -1.05 -4.7 -1.9 -4.7 -1.9 -4.55 -2.15 -4.55 -2.15 -2.45 -1.95 -2.45 -1.95 0.3 -2.6 0.3 -2.6 -5.05 -0.4 -5.05" fill="#6f6f6f" fill-rule="evenodd" stroke="none"/>
    <path d="M1.1 -5.05 L1.1 -4.6 -0.25 -4.6 -0.25 -5.05 1.1 -5.05" fill="#6f6f6f" fill-rule="evenodd" stroke="none"/>
    <path d="M3.2 -4.55 L3.2 -3.1 2.85 -3.1 2.85 -4.55 3.2 -4.55" fill="#6f6f6f" fill-rule="evenodd" stroke="none"/>
  </g>
</svg>
