<?xml version="1.0" encoding="UTF-8" standalone="no"?>
<svg xmlns:ffdec="https://www.free-decompiler.com/flash" xmlns:xlink="http://www.w3.org/1999/xlink" ffdec:objectType="shape" height="116.45px" width="225.95px" xmlns="http://www.w3.org/2000/svg">
  <g transform="matrix(1.0, 0.0, 0.0, 1.0, 113.95, 58.45)">
    <path d="M112.0 -58.45 L112.0 58.0 -113.95 58.0 -113.95 -58.45 112.0 -58.45" fill="#424242" fill-rule="evenodd" stroke="none"/>
    <path d="M43.55 -51.95 L44.55 -51.95 44.55 -53.95 59.0 -53.95 59.0 -52.95 62.5 -52.95 62.5 -53.95 77.0 -53.95 77.0 -52.95 78.0 -52.95 78.0 -51.95 79.5 -51.95 79.5 -52.95 80.0 -52.95 80.0 -53.95 95.0 -53.95 95.0 -52.95 106.0 -52.95 106.0 -51.95 107.0 -51.95 107.0 -43.45 109.0 -43.45 109.0 -3.95 107.5 -3.95 107.5 -1.45 106.5 -1.45 106.5 0.05 107.5 0.05 107.5 2.55 109.0 2.55 109.0 42.05 107.0 42.05 107.0 8.55 43.05 8.55 43.05 16.05 44.05 16.05 44.05 9.05 106.0 9.05 106.0 51.0 44.05 51.0 44.05 44.55 43.05 44.55 43.05 52.0 26.55 52.0 26.55 58.0 12.05 58.0 12.05 52.0 5.55 52.0 5.55 54.0 -34.45 54.0 -34.45 52.5 -39.95 52.5 -39.95 54.0 -54.45 54.0 -54.45 52.5 -57.45 52.5 -57.45 54.0 -71.95 54.0 -71.95 52.5 -75.45 52.5 -75.45 54.0 -89.95 54.0 -89.95 52.5 -107.95 52.5 -107.95 51.5 -109.45 51.5 -109.45 42.05 -110.45 42.05 -110.45 2.55 -109.45 2.55 -109.45 0.05 -108.45 0.05 -108.45 -1.45 -109.45 -1.45 -109.45 -3.95 -110.45 -3.95 -110.45 -43.45 -109.45 -43.45 -109.45 -51.95 -107.95 -51.95 -107.95 -52.95 -73.95 -52.95 -73.95 -51.95 -72.45 -51.95 -72.45 -52.95 -69.45 -52.95 -69.45 -54.45 -41.95 -54.45 -41.95 -52.95 -37.95 -52.95 -37.95 -51.95 -35.95 -51.95 -35.95 -52.95 7.05 -52.95 7.05 -51.95 8.55 -51.95 8.55 -52.95 43.55 -52.95 43.55 -51.95" fill="#959595" fill-rule="evenodd" stroke="none"/>
    <path d="M-1.45 -27.45 L-1.45 -20.45 -7.95 -20.45 -10.95 -16.45 Q-11.45 -16.45 -12.45 -16.95 -9.95 -19.45 -7.95 -22.45 L-7.95 -24.95 Q-9.95 -27.95 -12.45 -30.95 L-11.45 -31.95 -7.45 -27.45 -1.45 -27.45 M-25.95 -31.95 L-24.95 -30.95 -29.95 -24.95 -29.95 -22.45 -25.45 -16.95 Q-25.95 -16.45 -26.45 -16.45 L-30.45 -20.45 -36.45 -20.45 -36.45 -27.45 -30.45 -27.45 Q-27.95 -29.45 -25.95 -31.95 M-96.45 14.55 L-68.95 14.55 -68.95 11.05 -67.95 11.05 -67.95 9.55 -64.95 9.55 Q-64.45 10.55 -64.45 11.05 L-63.95 11.05 -63.95 14.55 -39.95 14.55 -39.95 12.55 -38.95 12.55 -38.95 40.05 -39.95 40.05 -39.95 37.55 -63.95 37.55 -63.95 41.05 -68.45 41.05 -68.45 37.55 -95.95 37.55 Q-95.95 38.05 -96.45 38.05 L-96.45 40.05 -97.45 40.05 -97.45 12.55 -96.45 12.55 -96.45 14.55 M-95.95 19.55 L-95.95 32.55 -39.95 32.55 -39.95 19.55 -95.95 19.55" fill="#6f6f6f" fill-rule="evenodd" stroke="none"/>
    <path d="M26.55 58.0 L12.05 58.0 12.05 54.0 26.55 54.0 26.55 58.0" fill="#ffffff" fill-rule="evenodd" stroke="none"/>
    <path d="M5.55 58.0 L-34.45 58.0 -34.45 54.0 5.55 54.0 5.55 58.0" fill="#ffffff" fill-rule="evenodd" stroke="none"/>
  </g>
</svg>
