<?xml version="1.0" encoding="UTF-8" standalone="no"?>
<svg xmlns:ffdec="https://www.free-decompiler.com/flash" xmlns:xlink="http://www.w3.org/1999/xlink" ffdec:objectType="shape" height="213.65px" width="463.3px" xmlns="http://www.w3.org/2000/svg">
  <g transform="matrix(1.0, 0.0, 0.0, 1.0, 269.0, 80.0)">
    <path d="M194.3 133.65 L-269.0 133.65 -269.0 -80.0 194.3 -80.0 194.3 133.65" fill="#434343" fill-rule="evenodd" stroke="none"/>
    <path d="M148.3 -71.35 L148.3 -67.0 183.5 -67.0 183.5 -30.0 189.65 -30.0 189.65 -4.0 183.5 -4.0 183.5 57.0 189.65 57.0 189.65 83.0 183.5 83.0 183.5 119.3 141.0 119.3 141.0 109.0 115.0 109.0 115.0 119.3 92.3 119.3 92.3 127.3 -0.35 127.3 -0.35 119.3 -23.7 119.3 -23.7 109.0 -47.35 109.0 -47.35 119.3 -69.7 119.3 -69.7 127.3 -162.35 127.3 -162.35 119.3 -187.0 119.3 -187.0 109.0 -209.0 109.0 -209.0 119.3 -260.45 119.3 -260.45 -67.0 -220.0 -67.0 -220.0 -71.35 -179.35 -71.35 -179.35 -67.0 -137.7 -67.0 -137.7 -71.35 -97.0 -71.35 -97.0 -67.0 -55.0 -67.0 -55.0 -71.35 -14.35 -71.35 -14.35 -67.0 26.3 -67.0 26.3 -71.35 67.0 -71.35 67.0 -67.0 107.65 -67.0 107.65 -71.35 148.3 -71.35" fill="#969696" fill-rule="evenodd" stroke="none"/>
    <path d="M-181.6 118.05 L-185.35 118.05 -185.35 114.05 -181.6 114.05 -181.6 118.05" fill="#434343" fill-rule="evenodd" stroke="none"/>
    <path d="M-17.95 118.05 L-21.7 118.05 -21.7 114.05 -17.95 114.05 -17.95 118.05" fill="#434343" fill-rule="evenodd" stroke="none"/>
    <path d="M-4.5 13.3 L-9.25 13.3 -9.25 6.0 -4.5 6.0 -4.5 13.3" fill="#434343" fill-rule="evenodd" stroke="none"/>
    <path d="M-87.2 13.3 L-91.9 13.3 -91.9 6.0 -87.2 6.0 -87.2 13.3" fill="#434343" fill-rule="evenodd" stroke="none"/>
    <path d="M-168.65 13.3 L-173.4 13.3 -173.4 6.0 -168.65 6.0 -168.65 13.3" fill="#434343" fill-rule="evenodd" stroke="none"/>
    <path d="M76.65 13.3 L71.95 13.3 71.95 6.0 76.65 6.0 76.65 13.3" fill="#434343" fill-rule="evenodd" stroke="none"/>
    <path d="M157.65 13.3 L152.9 13.3 152.9 6.0 157.65 6.0 157.65 13.3" fill="#434343" fill-rule="evenodd" stroke="none"/>
    <path d="M-95.7 4.65 L-95.7 19.65 -122.35 19.65 -122.35 4.65 -95.7 4.65" fill="#707070" fill-rule="evenodd" stroke="none"/>
    <path d="M-24.35 99.0 L-24.35 109.0 -46.35 109.0 -46.35 107.1 -60.9 109.1 -61.25 109.8 -65.1 113.75 -69.9 116.4 -75.25 117.5 -80.75 116.95 -85.8 114.85 -90.05 111.35 -93.0 106.7 -94.5 101.45 -94.5 111.5 -138.0 111.5 -138.0 90.95 -146.85 96.9 -171.1 60.75 -153.7 49.05 -129.45 85.2 -137.3 90.5 -94.5 90.5 -94.5 101.35 -94.4 95.95 -92.7 90.75 -89.5 86.25 -85.1 82.95 -81.8 81.75 -91.85 81.75 -91.85 69.0 -86.45 69.0 -86.45 61.0 -65.2 61.0 -65.2 69.0 -59.85 69.0 -59.85 81.75 -70.6 81.75 -69.15 82.1 -64.45 84.95 -60.8 89.05 -58.55 94.05 -57.85 99.5 -57.95 100.15 -53.0 100.15 -53.0 104.45 -46.35 103.55 -46.35 99.0 -24.35 99.0" fill="#707070" fill-rule="evenodd" stroke="none"/>
    <path d="M-120.35 -61.35 L-120.35 -38.7 -163.35 -38.7 -163.35 -61.35 -120.35 -61.35" fill="#707070" fill-rule="evenodd" stroke="none"/>
    <path d="M160.5 -61.5 L160.5 -39.0 -14.5 -39.0 -14.5 -61.5 160.5 -61.5" fill="#707070" fill-rule="evenodd" stroke="none"/>
    <path d="M-16.5 -60.5 L-16.5 -37.5 -119.0 -37.5 -119.0 -60.5 -16.5 -60.5" fill="#707070" fill-rule="evenodd" stroke="none"/>
    <path d="M-166.35 34.15 L-154.2 37.15 -157.2 49.3 -169.35 46.3 -166.35 34.15" fill="#707070" fill-rule="evenodd" stroke="none"/>
    <path d="M50.05 36.85 L40.45 36.7 40.05 59.1 -2.25 58.35 -2.4 58.65 -3.45 59.75 -4.8 60.5 -6.3 60.8 -7.8 60.65 -9.25 60.05 -10.4 59.1 -11.25 57.8 -11.65 56.35 -11.6 54.8 -11.15 53.4 -10.25 52.15 -9.05 51.2 -7.6 50.7 -6.1 50.6 -4.6 50.95 -3.3 51.75 -2.85 52.3 -2.55 35.1 -2.15 35.1 -2.9 34.45 -3.85 33.05 -4.3 31.45 -4.25 29.8 -3.7 28.25 -2.75 26.9 -1.45 25.9 0.1 25.35 1.75 25.25 3.35 25.65 4.75 26.5 5.85 27.75 6.55 29.25 6.75 30.9 6.5 32.5 5.75 34.0 4.6 35.15 4.5 35.2 7.05 35.25 7.4 15.1 50.4 15.85 50.05 36.85" fill="#707070" fill-rule="evenodd" stroke="none"/>
    <path d="M-11.0 32.35 L-13.45 37.1 -17.2 40.95 -21.9 43.55 -27.15 44.65 -32.45 44.1 -37.4 42.05 -41.55 38.6 -44.45 34.1 -44.6 33.75 -44.7 35.15 -54.9 34.4 -53.2 10.7 -43.0 11.4 -43.4 17.5 -41.0 14.15 -36.75 10.9 -31.7 9.05 -26.35 8.75 -21.15 10.05 -16.55 12.85 -13.0 16.85 -10.8 21.75 -10.1 27.05 -11.0 32.35" fill="#707070" fill-rule="evenodd" stroke="none"/>
    <path d="M-165.75 99.9 L-164.7 102.25 -164.35 104.8 -164.8 107.4 -166.0 109.7 -167.8 111.55 -170.05 112.8 -172.6 113.35 -175.2 113.1 -177.6 112.1 -179.6 110.4 -181.0 108.25 -181.7 105.75 -181.65 103.15 -180.85 100.7 -179.35 98.55 -177.25 97.0 -174.85 96.1 -172.25 95.95 -169.7 96.6 -167.5 97.95 -165.75 99.9" fill="#707070" fill-rule="evenodd" stroke="none"/>
    <path d="M-8.75 30.15 L-7.9 29.85 -7.0 29.8 -6.1 30.0 -5.35 30.5 -4.75 31.15 -4.35 32.0 -4.25 32.9 -4.4 33.75 -4.8 34.6 -5.45 35.25 -6.25 35.65 -7.1 35.85 -8.0 35.75 -8.85 35.4 -9.55 34.85 -10.05 34.05 -10.3 33.2 -10.25 32.3 -10.0 31.45 -9.45 30.7 -8.75 30.15" fill="#707070" fill-rule="evenodd" stroke="none"/>
    <path d="M-8.95 36.85 L-8.25 36.3 -7.4 36.0 -6.5 35.95 -5.6 36.2 -4.85 36.65 -4.25 37.35 -3.85 38.15 -3.75 39.05 -3.9 39.95 -4.3 40.75 -4.95 41.4 -5.75 41.85 -6.6 42.0 -7.5 41.9 -8.35 41.55 -9.05 41.0 -9.55 40.25 -9.8 39.35 -9.75 38.45 -9.5 37.6 -8.95 36.85" fill="#707070" fill-rule="evenodd" stroke="none"/>
    <path d="M162.65 -33.35 L183.5 -33.35 183.5 7.3 162.65 7.3 162.65 -33.35" fill="#707070" fill-rule="evenodd" stroke="none"/>
    <path d="M181.65 13.0 L181.65 53.65 161.3 53.65 161.3 13.0 181.65 13.0" fill="#707070" fill-rule="evenodd" stroke="none"/>
    <path d="M163.3 55.0 L183.5 55.0 183.5 95.65 163.3 95.65 163.3 55.0" fill="#707070" fill-rule="evenodd" stroke="none"/>
    <path d="M122.0 109.0 L122.0 100.65 137.0 100.65 137.0 109.0 122.0 109.0" fill="#707070" fill-rule="evenodd" stroke="none"/>
    <path d="M25.65 105.9 L21.9 121.3 -15.7 112.1 -11.95 96.7 25.65 105.9" fill="#707070" fill-rule="evenodd" stroke="none"/>
    <path d="M94.4 31.45 L96.5 36.5 93.95 37.55 94.1 38.7 93.6 41.65 92.25 44.25 90.2 46.4 87.65 47.8 84.75 48.4 81.8 48.1 79.05 47.0 76.8 45.1 75.2 42.6 74.4 39.9 74.4 61.5 51.75 61.5 51.75 58.8 50.75 59.85 49.3 60.65 47.7 60.95 46.05 60.8 44.5 60.15 43.25 59.1 42.35 57.75 41.9 56.15 41.9 54.5 42.45 52.9 43.4 51.55 44.7 50.55 46.25 50.0 47.9 49.9 49.5 50.3 50.95 51.15 51.75 52.1 51.75 46.8 50.75 47.85 49.3 48.65 47.7 48.95 46.05 48.8 44.5 48.15 43.25 47.1 42.35 45.75 41.9 44.15 41.9 42.5 42.45 40.9 43.4 39.55 44.7 38.55 46.25 38.0 47.9 37.9 49.5 38.3 50.95 39.15 51.75 40.1 51.75 16.5 56.3 16.5 55.95 15.25 56.0 13.1 56.7 11.1 57.9 9.35 59.6 8.05 61.6 7.35 63.75 7.2 65.8 7.75 67.6 8.85 69.05 10.45 69.9 12.35 70.2 14.5 69.85 16.5 74.4 16.5 74.4 38.1 74.45 36.8 75.35 34.0 77.1 31.6 79.45 29.8 82.2 28.8 85.15 28.65 88.0 29.35 90.55 30.9 91.9 32.45 94.4 31.45" fill="#707070" fill-rule="evenodd" stroke="none"/>
    <path d="M-200.5 32.5 L-218.0 32.5 -218.0 -0.5 -176.5 -0.5 -176.5 2.0 -215.5 2.0 -215.5 30.0 -198.0 30.0 -198.0 109.0 -200.5 109.0 -200.5 32.5 M-176.5 -38.5 L-176.5 -36.0 -252.5 -36.0 -252.5 32.5 -260.45 32.5 -260.45 30.0 -255.0 30.0 -255.0 -38.5 -176.5 -38.5" fill="#707070" fill-rule="evenodd" stroke="none"/>
    <path d="M-269.0 67.7 L-260.45 67.7 -260.45 95.65 -269.0 95.65 -269.0 67.7" fill="#ffffff" fill-rule="evenodd" stroke="none"/>
  </g>
</svg>
