<?xml version="1.0" encoding="UTF-8" standalone="no"?>
<svg xmlns:ffdec="https://www.free-decompiler.com/flash" xmlns:xlink="http://www.w3.org/1999/xlink" ffdec:objectType="shape" height="227.65px" width="185.1px" xmlns="http://www.w3.org/2000/svg">
  <g transform="matrix(1.0, 0.0, 0.0, 1.0, 80.95, 106.75)">
    <path d="M-26.35 26.5 L-24.55 25.65 -28.2 17.45 -30.05 18.25 -26.35 26.5 M-22.15 31.05 L-24.15 26.6 -25.95 27.4 -23.95 31.85 -22.15 31.05 M-42.5 23.8 L-38.85 32.05 -37.0 31.2 -40.65 23.0 -42.5 23.8 M-36.6 32.1 L-38.45 32.95 -36.45 37.45 -34.4 36.5 -35.4 34.85 -36.6 32.1 M-46.6 14.7 L-42.95 22.9 -41.05 22.05 -44.7 13.85 -46.6 14.7 M-47.0 13.8 L-45.1 12.95 -48.75 4.75 -50.65 5.55 -47.0 13.8 M-34.5 8.2 L-32.7 7.4 -36.35 -0.8 -38.15 0.0 -34.5 8.2 M-32.3 8.3 L-34.1 9.15 -30.45 17.35 -28.6 16.55 -32.3 8.3 M-40.4 -9.95 L-42.25 -9.15 -38.55 -0.9 -36.75 -1.7 -40.4 -9.95 M-44.45 -19.05 L-46.3 -18.25 -42.65 -10.05 -40.8 -10.85 -44.45 -19.05 M-56.9 -13.55 L-58.8 -12.7 -55.1 -4.5 -53.25 -5.3 -56.9 -13.55 M-52.85 -4.4 Q-53.75 -3.95 -54.7 -3.55 L-51.05 4.65 -49.2 3.8 -52.85 -4.4 M-61.0 -22.75 L-62.9 -21.95 -59.2 -13.65 -57.3 -14.5 -61.0 -22.75 M-51.35 -34.55 L-53.2 -33.75 -46.7 -19.2 -44.9 -20.0 -51.35 -34.55 M-16.7 -50.0 L-18.25 -49.35 -17.6 -47.55 -17.15 -44.75 -17.25 -42.0 -17.9 -39.25 -19.05 -36.7 -20.7 -34.45 -22.75 -32.55 -25.1 -31.1 -27.7 -30.1 -30.5 -29.65 -33.3 -29.75 -36.0 -30.4 -38.55 -31.55 -40.8 -33.2 -42.7 -35.25 -44.2 -37.65 -44.6 -38.75 -47.2 -37.6 -47.1 -37.3 -46.95 -37.35 -40.2 -22.1 -35.75 -24.1 -35.35 -23.2 -35.4 -23.2 -35.35 -23.1 -39.75 -21.15 -36.1 -12.95 -31.7 -14.9 -31.3 -14.0 -35.7 -12.05 -34.9 -10.25 -12.05 -20.4 -13.25 -23.1 -10.8 -24.2 -11.2 -25.15 -6.6 -27.25 -16.7 -50.0 M32.05 -0.2 L31.85 -0.65 29.75 0.25 29.95 0.7 32.05 -0.2 M36.75 10.4 L36.55 9.9 34.45 10.85 34.65 11.3 34.7 11.3 36.75 10.4 M15.85 -8.6 L13.35 -7.5 8.4 -18.6 10.9 -19.75 9.25 -23.45 13.0 -25.15 12.3 -26.8 3.15 -22.7 3.9 -20.95 1.65 -19.95 3.25 -16.3 1.05 -15.3 8.5 1.4 18.35 -3.0 15.85 -8.6 M18.85 -36.45 L18.5 -37.35 10.3 -33.7 10.7 -32.8 18.85 -36.45 M21.4 -30.85 L13.15 -27.2 13.9 -25.5 22.15 -29.2 21.4 -30.85 M34.9 -46.25 L35.1 -45.8 36.35 -46.35 36.55 -45.9 37.05 -46.1 38.25 -43.4 37.8 -43.2 39.0 -40.45 39.5 -40.65 40.7 -37.9 40.25 -37.7 41.45 -35.0 41.9 -35.2 43.15 -32.45 42.65 -32.25 43.9 -29.5 44.35 -29.7 45.55 -27.0 45.1 -26.8 46.3 -24.05 46.8 -24.25 47.95 -21.55 47.55 -21.3 48.75 -18.6 49.2 -18.8 50.4 -16.1 49.95 -15.85 51.2 -13.1 51.65 -13.3 52.85 -10.65 52.4 -10.45 52.6 -9.95 47.75 -7.75 48.95 -5.0 33.05 2.05 32.45 0.7 30.35 1.6 34.05 9.95 36.15 9.0 35.55 7.65 51.45 0.55 63.75 28.2 68.25 26.15 71.7 34.05 73.2 33.4 73.6 34.3 72.1 34.95 75.5 42.55 80.5 40.3 90.6 44.65 92.65 46.0 94.55 47.85 95.8 50.05 96.95 55.0 97.55 59.3 98.05 60.9 98.75 62.25 102.95 68.0 103.7 69.8 104.1 71.55 104.15 75.05 103.85 76.7 103.3 78.35 102.45 79.95 101.35 81.25 99.85 82.45 95.15 85.0 78.65 92.35 79.35 93.9 76.6 95.15 78.7 99.95 75.25 106.95 55.15 115.85 48.45 100.85 49.4 100.4 48.6 98.65 34.0 105.2 36.4 110.6 36.35 110.6 13.2 120.9 8.35 110.0 9.2 109.6 1.05 91.35 -8.1 95.4 -13.0 84.35 -13.0 90.35 -17.5 90.3 -17.55 92.15 -18.55 92.1 -18.5 90.3 -22.85 90.25 -22.8 85.0 -22.7 85.05 -22.7 84.05 -23.15 83.9 -22.8 64.05 -12.1 64.25 -12.15 70.25 -7.15 70.3 -7.1 64.35 -6.1 64.3 -6.15 66.3 -5.15 66.35 -5.1 66.85 -2.15 66.9 -2.15 66.4 -1.15 66.4 -0.75 43.75 6.7 43.85 6.85 43.95 7.2 43.6 9.1 42.45 11.15 41.8 13.35 41.65 15.5 42.05 17.45 42.95 19.15 44.25 20.5 45.95 21.4 47.95 21.8 50.1 21.65 52.25 21.0 54.35 19.85 56.2 18.3 57.75 16.45 58.9 14.35 59.55 13.75 59.6 13.8 59.75 31.45 99.5 46.1 93.0 45.3 91.25 44.4 91.65 39.25 80.1 40.05 79.8 38.2 75.7 43.2 73.5 42.45 71.8 43.35 71.4 44.1 73.05 49.15 70.85 49.15 71.0 55.5 68.15 50.2 56.3 34.85 63.15 18.05 25.4 18.35 25.25 16.25 20.6 21.2 18.35 20.8 17.45 30.1 13.35 29.9 12.9 24.45 15.35 24.05 14.4 29.5 11.95 25.8 3.65 20.35 6.1 19.9 5.2 25.4 2.75 25.0 1.85 21.25 3.5 20.4 1.7 5.9 8.15 -3.65 -13.2 -5.5 -12.4 -7.5 -16.9 -32.85 -5.6 -32.05 -3.8 -27.65 -5.8 -27.25 -4.85 -31.6 -2.9 -31.2 -1.9 -28.2 -3.25 -25.0 4.0 -23.55 3.35 -23.15 4.25 -24.55 4.9 -21.25 12.3 -24.25 13.65 -23.9 14.45 -19.5 12.5 -19.1 13.4 -23.5 15.35 -19.85 23.55 -15.45 21.6 -15.05 22.5 -19.45 24.5 -15.6 33.1 -15.8 33.15 -15.6 33.65 -19.25 35.3 -17.25 39.75 -18.15 40.15 -20.15 35.7 -23.65 37.25 -24.2 37.7 -31.05 44.55 -31.6 45.0 -32.7 45.6 -33.45 45.8 -34.2 45.9 -35.35 45.85 -37.35 45.25 -38.25 44.7 -40.0 44.0 -41.45 43.75 -45.25 45.45 -45.55 44.8 -58.2 50.45 -57.9 51.15 -64.55 54.1 -66.2 50.3 -67.4 50.85 -67.85 49.85 -66.65 49.3 -69.9 42.1 -71.05 42.6 -71.45 41.7 -70.3 41.2 -71.75 37.95 -68.15 36.35 -69.85 32.55 -66.8 31.15 -67.55 29.45 -66.65 29.05 -65.85 30.75 -59.0 27.7 -59.8 26.0 -58.9 25.6 -58.15 27.3 -51.25 24.25 -52.0 22.55 -51.15 22.15 -50.35 23.85 -48.3 22.95 -51.05 16.7 -55.5 18.65 -55.9 17.75 -51.45 15.75 -54.25 9.55 -57.3 10.95 -58.2 8.9 -59.75 9.6 -60.15 8.7 -58.6 8.0 -62.25 -0.25 -63.8 0.45 -64.2 -0.45 -62.65 -1.15 -64.55 -5.4 -61.5 -6.75 -63.3 -10.75 -67.75 -8.8 -68.1 -9.7 -63.75 -11.65 -71.45 -29.0 -70.55 -29.4 -69.25 -26.5 -65.65 -28.1 -65.3 -27.35 -63.4 -28.2 -63.8 -29.05 -64.7 -28.6 -80.95 -65.15 -69.7 -70.15 -64.75 -67.3 -60.35 -65.8 -57.35 -65.15 -52.9 -64.85 -48.9 -65.2 -49.35 -66.25 -36.1 -72.2 -35.6 -71.1 -34.5 -72.0 -32.4 -74.1 -29.0 -78.75 -26.6 -84.2 -25.85 -87.0 -25.25 -92.75 -25.55 -97.0 -25.85 -98.6 -7.6 -106.75 2.2 -84.75 -6.95 -80.7 2.85 -58.7 Q-4.15 -55.55 -11.2 -52.45 L-1.1 -29.7 -0.15 -30.1 0.65 -28.35 9.8 -32.4 9.0 -34.2 18.05 -38.25 16.45 -41.9 25.25 -45.8 26.9 -42.15 32.35 -44.6 32.15 -45.05 34.9 -46.25" fill="#424242" fill-rule="evenodd" stroke="none"/>
    <path d="M-14.95 78.1 L-14.9 77.4 -12.9 77.5 -13.0 80.35 -22.7 80.25 -22.65 74.95 -14.85 75.1 -14.85 77.2 -20.5 77.2 -20.5 78.05 -14.95 78.1" fill="#ffffff" fill-rule="evenodd" stroke="none"/>
    <path d="M-66.75 39.05 L-63.85 37.75 -57.85 51.25 -64.5 54.2 -71.8 37.8 -68.2 36.2 -66.9 39.1 -67.6 39.4 -62.9 50.0 -62.05 49.65 -66.75 39.05" fill="#ffffff" fill-rule="evenodd" stroke="none"/>
    <path d="M65.75 80.6 L65.1 80.9 64.3 79.1 66.75 78.0 70.7 86.8 66.05 88.9 62.9 81.9 61.65 81.25 62.1 80.05 64.05 79.2 67.15 86.15 68.05 85.75 65.75 80.6" fill="#ffffff" fill-rule="evenodd" stroke="none"/>
    <path d="M65.3 54.0 L65.0 53.35 66.85 52.55 68.0 55.1 59.15 59.05 57.1 54.35 65.9 50.45 66.75 52.3 59.8 55.4 60.2 56.3 65.3 54.0" fill="#ffffff" fill-rule="evenodd" stroke="none"/>
    <path d="M-66.7 39.05 L-68.0 36.15 -48.8 27.6 -42.15 42.45 -57.95 49.45 -63.25 37.5 -66.7 39.05" fill="#959595" fill-rule="evenodd" stroke="none"/>
    <path d="M62.1 80.05 L62.9 81.9 61.6 82.5 68.75 98.5 67.85 100.45 52.05 107.5 49.25 101.2 50.9 100.45 46.4 90.3 44.7 91.05 43.5 88.35 62.1 80.05" fill="#959595" fill-rule="evenodd" stroke="none"/>
    <path d="M-22.55 64.4 L-12.35 64.5 -12.45 73.8 -12.95 73.8 -13.0 75.35 -2.05 75.4 -0.25 79.4 18.3 71.15 35.75 110.3 13.45 120.25 9.0 110.3 18.5 106.05 9.9 86.8 -7.9 94.7 -12.35 84.75 -2.1 80.2 -3.35 77.45 -14.9 77.2 -14.95 73.75 -22.6 73.7 -22.55 64.4" fill="#959595" fill-rule="evenodd" stroke="none"/>
    <path d="M45.2 13.3 L37.95 16.5 35.85 11.75 52.3 4.45 70.9 46.25 65.2 48.8 65.9 50.45 Q64.95 50.9 63.95 51.3 L63.25 49.7 61.7 50.4 45.2 13.3" fill="#959595" fill-rule="evenodd" stroke="none"/>
    <path d="M45.7 12.5 L45.95 13.0 49.1 11.6 51.75 17.65 48.6 19.05 48.85 19.55 48.45 19.7 48.2 19.2 47.9 19.35 45.2 13.35 45.5 13.2 45.3 12.7 45.7 12.5" fill="#6f6f6f" fill-rule="evenodd" stroke="none"/>
    <path d="M52.45 29.8 L49.75 23.75 50.1 23.65 49.85 23.15 50.3 22.95 50.5 23.45 53.65 22.05 56.35 28.05 53.2 29.5 53.4 30.0 53.0 30.15 52.8 29.65 Q52.65 29.75 52.45 29.8" fill="#6f6f6f" fill-rule="evenodd" stroke="none"/>
    <path d="M54.8 35.0 L55.1 34.85 54.85 34.35 55.3 34.2 55.5 34.7 58.65 33.3 61.35 39.3 58.2 40.7 58.4 41.2 58.0 41.4 57.8 40.9 57.45 41.05 54.8 35.0" fill="#6f6f6f" fill-rule="evenodd" stroke="none"/>
    <path d="M10.85 89.0 L11.2 88.85 10.95 88.35 11.4 88.15 11.6 88.65 14.75 87.25 17.45 93.3 14.3 94.7 14.5 95.2 14.1 95.35 13.85 94.85 13.55 95.0 10.85 89.0" fill="#6f6f6f" fill-rule="evenodd" stroke="none"/>
    <path d="M-21.7 -79.15 L-15.7 -81.8 -14.3 -78.65 -13.8 -78.9 -13.6 -78.5 -14.1 -78.25 -13.95 -77.95 -20.0 -75.25 -20.15 -75.55 -20.65 -75.35 -20.8 -75.75 -20.3 -76.0 -21.7 -79.15" fill="#6f6f6f" fill-rule="evenodd" stroke="none"/>
    <path d="M-62.45 -61.0 L-61.05 -57.85 -60.55 -58.05 -60.4 -57.65 -60.9 -57.45 -60.75 -57.1 -66.75 -54.45 -66.9 -54.75 -67.4 -54.5 -67.6 -54.95 -67.1 -55.15 -68.5 -58.3 -62.45 -61.0" fill="#6f6f6f" fill-rule="evenodd" stroke="none"/>
    <path d="M15.0 97.35 L15.4 97.15 15.6 97.65 18.75 96.25 21.45 102.3 18.3 103.7 18.5 104.2 18.1 104.4 17.9 103.9 17.55 104.05 14.9 98.0 15.2 97.85 15.0 97.35" fill="#6f6f6f" fill-rule="evenodd" stroke="none"/>
    <path d="M64.6 89.25 L61.75 90.55 59.0 84.35 61.85 83.1 64.6 89.25" fill="#6f6f6f" fill-rule="evenodd" stroke="none"/>
    <path d="M36.45 -8.5 L33.55 -7.2 30.8 -13.4 33.7 -14.65 36.45 -8.5" fill="#6f6f6f" fill-rule="evenodd" stroke="none"/>
    <path d="M-34.75 17.85 L-37.65 19.1 -40.4 12.95 -37.5 11.65 -34.75 17.85" fill="#6f6f6f" fill-rule="evenodd" stroke="none"/>
    <path d="M-45.4 -6.25 L-42.65 -0.1 -45.5 1.2 -48.25 -5.0 -45.4 -6.25" fill="#6f6f6f" fill-rule="evenodd" stroke="none"/>
    <path d="M-50.85 -18.35 L-53.75 -17.05 -56.5 -23.2 -53.6 -24.5 -50.85 -18.35" fill="#6f6f6f" fill-rule="evenodd" stroke="none"/>
    <path d="M31.05 -20.6 L28.15 -19.3 25.45 -25.5 28.3 -26.75 31.05 -20.6" fill="#6f6f6f" fill-rule="evenodd" stroke="none"/>
    <path d="M41.2 -33.8 L40.05 -33.3 38.25 -37.25 39.4 -37.8 41.2 -33.8" fill="#6f6f6f" fill-rule="evenodd" stroke="none"/>
    <path d="M44.85 -25.55 L43.7 -25.05 41.95 -29.0 43.1 -29.5 44.85 -25.55" fill="#6f6f6f" fill-rule="evenodd" stroke="none"/>
    <path d="M48.45 -17.55 L47.25 -17.05 45.5 -21.0 46.65 -21.55 48.45 -17.55" fill="#6f6f6f" fill-rule="evenodd" stroke="none"/>
    <path d="M40.2 22.3 L39.0 22.8 37.25 18.85 38.4 18.3 40.2 22.3" fill="#6f6f6f" fill-rule="evenodd" stroke="none"/>
    <path d="M42.25 26.95 L41.1 27.5 39.3 23.5 40.5 23.0 42.25 26.95" fill="#6f6f6f" fill-rule="evenodd" stroke="none"/>
    <path d="M44.95 33.0 L43.75 33.5 42.0 29.55 43.15 29.0 44.95 33.0" fill="#6f6f6f" fill-rule="evenodd" stroke="none"/>
    <path d="M47.05 37.75 L45.9 38.3 44.15 34.3 45.3 33.8 47.05 37.75" fill="#6f6f6f" fill-rule="evenodd" stroke="none"/>
    <path d="M49.45 43.1 L48.25 43.6 46.5 39.6 47.65 39.1 49.45 43.1" fill="#6f6f6f" fill-rule="evenodd" stroke="none"/>
    <path d="M51.45 47.65 L50.3 48.15 48.5 44.2 Q49.1 43.95 49.7 43.65 L51.45 47.65" fill="#6f6f6f" fill-rule="evenodd" stroke="none"/>
    <path d="M-9.35 -102.4 L-7.6 -98.4 -8.75 -97.9 -10.5 -101.85 -9.35 -102.4" fill="#6f6f6f" fill-rule="evenodd" stroke="none"/>
    <path d="M-4.75 -92.1 L-5.95 -91.55 -7.7 -95.55 -6.55 -96.05 -4.75 -92.1" fill="#6f6f6f" fill-rule="evenodd" stroke="none"/>
    <path d="M-1.9 -85.6 L-3.05 -85.1 -4.8 -89.05 -3.65 -89.6 -1.9 -85.6" fill="#6f6f6f" fill-rule="evenodd" stroke="none"/>
    <path d="M65.85 92.1 L68.6 98.25 65.75 99.55 63.0 93.35 Q64.45 92.75 65.85 92.1" fill="#6f6f6f" fill-rule="evenodd" stroke="none"/>
    <path d="M72.0 92.7 L71.55 91.7 71.35 90.7 71.45 89.85 71.75 89.2 72.3 88.95 73.0 89.1 73.7 89.65 74.35 90.45 74.8 91.45 75.0 92.45 74.9 93.35 74.6 93.95 74.05 94.2 73.35 94.05 72.65 93.55 72.0 92.7" fill="#6f6f6f" fill-rule="evenodd" stroke="none"/>
    <path d="M-21.25 72.0 L-21.25 73.1 -21.4 74.1 -21.8 74.9 -22.35 75.35 -22.95 75.35 -23.55 74.95 -24.0 74.2 -24.25 73.2 -24.3 72.15 -24.1 71.1 -23.75 70.35 -23.2 69.9 -22.6 69.85 -22.0 70.25 -21.55 71.0 -21.25 72.0" fill="#6f6f6f" fill-rule="evenodd" stroke="none"/>
    <path d="M-46.55 -51.4 L-46.65 -50.4 -47.0 -49.35 -47.55 -48.5 -48.2 -47.9 -48.9 -47.7 -49.45 -47.9 -49.85 -48.45 -50.0 -49.35 -49.9 -50.35 -49.55 -51.4 -49.0 -52.25 -48.35 -52.85 -47.65 -53.05 -47.1 -52.85 -46.7 -52.3 -46.55 -51.4" fill="#6f6f6f" fill-rule="evenodd" stroke="none"/>
    <path d="M-22.1 -59.6 L-22.7 -59.25 -23.55 -59.2 -24.55 -59.35 -25.6 -59.8 -26.4 -60.4 -26.95 -61.1 -27.1 -61.75 -26.9 -62.3 -26.3 -62.65 -25.4 -62.75 -24.4 -62.6 -23.4 -62.15 -22.55 -61.55 -22.0 -60.85 -21.85 -60.2 -22.1 -59.6" fill="#6f6f6f" fill-rule="evenodd" stroke="none"/>
    <path d="M16.35 111.45 L16.15 114.1 14.0 112.45 16.35 111.45" fill="#6f6f6f" fill-rule="evenodd" stroke="none"/>
    <path d="M-60.9 -36.9 L-61.15 -34.25 -63.25 -35.9 -60.9 -36.9" fill="#6f6f6f" fill-rule="evenodd" stroke="none"/>
    <path d="M36.25 -43.7 L36.05 -41.05 33.95 -42.7 36.25 -43.7" fill="#6f6f6f" fill-rule="evenodd" stroke="none"/>
    <path d="M-14.85 78.15 L-20.55 78.1 -20.55 77.1 -14.85 77.2 -14.85 78.15" fill="#424242" fill-rule="evenodd" stroke="none"/>
  </g>
</svg>
