<?xml version="1.0" encoding="UTF-8" standalone="no"?>
<svg xmlns:ffdec="https://www.free-decompiler.com/flash" xmlns:xlink="http://www.w3.org/1999/xlink" ffdec:objectType="shape" height="601.2px" width="402.85px" xmlns="http://www.w3.org/2000/svg">
  <g transform="matrix(1.0, 0.0, 0.0, 1.0, 199.8, 268.0)">
    <path d="M-64.65 -89.5 L-70.55 -89.5 -70.55 38.95 -64.65 38.95 -64.65 -89.5 M26.05 77.85 L26.05 71.15 -9.3 71.15 -9.3 102.1 9.25 102.1 9.25 78.05 26.05 77.85 M51.45 73.1 L51.45 76.6 150.85 76.6 150.85 165.0 149.35 165.0 149.35 165.2 154.15 165.2 154.15 73.1 51.45 73.1 M59.9 -252.1 L63.6 -252.1 63.6 -266.1 157.55 -266.1 157.55 -220.25 108.3 -220.25 108.3 -72.3 203.05 23.05 203.05 214.4 154.15 214.4 154.15 190.9 149.35 190.9 149.35 227.4 9.25 227.4 9.25 143.3 -9.3 143.3 -9.3 227.65 -12.95 227.65 -12.95 232.6 -9.15 232.6 -9.15 333.2 -186.65 333.2 -186.65 234.75 -60.7 234.75 -60.7 232.6 -39.3 232.6 -39.3 229.2 -59.95 229.2 -59.95 227.65 -63.85 227.65 -63.85 223.1 -66.15 223.1 -66.15 82.9 -63.85 82.9 -63.85 65.5 -72.1 65.5 -72.1 71.9 -199.8 71.9 -199.8 -120.95 -72.1 -120.95 -72.1 -115.3 -63.4 -115.3 -63.35 -120.6 -58.05 -120.6 -58.05 -128.55 -103.55 -128.55 -103.55 -268.0 53.0 -268.0 53.0 -251.7 59.9 -251.7 59.9 -252.1 M59.9 -225.95 L55.65 -225.95 55.65 -126.25 -32.65 -126.25 -32.65 -122.5 59.9 -122.5 59.9 -225.95" fill="#727272" fill-rule="evenodd" stroke="none"/>
  </g>
</svg>
