<?xml version="1.0" encoding="UTF-8" standalone="no"?>
<svg xmlns:ffdec="https://www.free-decompiler.com/flash" xmlns:xlink="http://www.w3.org/1999/xlink" ffdec:objectType="shape" height="298.85px" width="366.5px" xmlns="http://www.w3.org/2000/svg">
  <g transform="matrix(1.0, 0.0, 0.0, 1.0, 186.7, 148.35)">
    <path d="M44.35 -74.9 L44.35 -43.4 78.75 -43.4 78.75 -27.5 179.8 -27.5 179.8 150.5 -186.7 150.5 -186.7 -27.5 -81.9 -27.5 -81.9 -43.4 -45.45 -43.4 -45.45 -74.9 -52.3 -74.9 -52.3 -148.3 51.25 -148.35 51.25 -74.9 44.35 -74.9" fill="#424242" fill-rule="evenodd" stroke="none"/>
    <path d="M-11.05 -114.7 L8.8 -114.7 8.8 -70.0 32.5 -70.0 32.5 -43.15 23.9 -43.15 23.9 -38.3 12.0 -38.3 12.0 -33.3 28.15 -33.3 28.15 -22.75 62.65 -22.75 62.65 -20.25 65.2 -20.25 65.2 -14.0 70.35 -14.0 70.35 -22.95 130.8 -22.95 130.8 30.05 90.4 30.05 90.4 19.55 70.35 19.55 70.35 10.95 65.25 10.95 65.25 17.0 62.65 17.0 62.65 19.5 10.45 19.5 10.45 23.1 -11.9 23.1 -11.9 19.5 -41.25 19.5 -41.25 30.05 -52.7 30.05 -52.7 35.05 -47.9 35.05 -47.9 75.0 -70.95 75.0 -70.95 71.25 -73.55 71.25 -73.55 80.0 -97.3 80.0 -97.3 35.05 -73.9 35.05 -73.9 50.35 -70.7 50.35 -70.7 35.05 -67.7 35.05 -67.7 30.05 -77.55 30.05 -77.55 19.5 -119.6 19.55 -119.6 24.45 -133.65 24.45 -133.65 19.55 -164.35 19.5 -164.35 -22.95 -77.55 -22.75 -77.55 -33.3 -13.0 -33.3 -13.0 -38.3 -25.1 -38.3 -25.1 -43.15 -33.7 -43.15 -33.7 -73.4 -33.55 -73.7 -33.55 -73.4 -11.05 -73.4 -11.05 -114.7" fill="#939393" fill-rule="evenodd" stroke="none"/>
    <path d="M11.25 -116.9 L-13.5 -116.9 -13.65 -73.4 -31.75 -73.4 -31.75 -138.45 30.75 -138.45 30.75 -71.9 11.25 -71.9 11.25 -116.9" fill="#ffffff" fill-rule="evenodd" stroke="none"/>
    <path d="M-70.35 73.5 L-70.35 71.25 -49.8 71.25 -49.8 73.5 -70.35 73.5" fill="#959595" fill-rule="evenodd" stroke="none"/>
    <path d="M-95.5 80.0 L-75.4 80.0 -75.4 115.8 -70.35 115.8 -70.35 74.85 -49.8 74.85 -49.8 129.55 -95.5 129.55 -95.5 80.0" fill="#ffffff" fill-rule="evenodd" stroke="none"/>
  </g>
</svg>
