<?xml version="1.0" encoding="UTF-8" standalone="no"?>
<svg xmlns:ffdec="https://www.free-decompiler.com/flash" xmlns:xlink="http://www.w3.org/1999/xlink" ffdec:objectType="shape" height="316.55px" width="360.5px" xmlns="http://www.w3.org/2000/svg">
  <g transform="matrix(1.0, 0.0, 0.0, 1.0, 180.7, 148.3)">
    <path d="M147.75 -28.4 L147.75 -32.6 151.2 -32.6 151.2 -28.4 179.8 -28.4 179.8 152.05 169.35 152.05 169.35 151.5 151.2 151.5 151.2 155.55 147.8 155.55 147.8 151.5 110.7 151.5 110.7 155.55 107.3 155.55 107.3 151.5 85.8 151.5 85.6 152.2 79.15 152.2 79.15 166.5 62.3 166.5 62.2 168.25 59.1 168.25 58.8 166.5 -59.95 166.5 -60.0 168.25 -63.15 168.25 -63.4 166.5 -80.3 166.5 -80.3 152.2 -86.75 152.2 -86.9 151.5 -108.25 151.5 -108.25 155.65 -111.65 155.65 -111.65 151.5 -148.75 151.5 -148.75 155.55 -152.25 155.55 -152.25 151.5 -170.25 151.5 -170.25 152.05 -180.7 152.05 -180.7 -28.3 -152.35 -28.3 -152.35 -32.7 -148.9 -32.7 -148.9 -28.3 -111.75 -28.3 -111.75 -32.6 -108.35 -32.6 -108.35 -28.3 -79.95 -28.3 -79.95 -43.4 -45.45 -43.4 -45.45 -74.9 -52.3 -74.9 -52.3 -148.3 51.25 -148.3 51.25 -74.9 44.35 -74.9 44.35 -43.4 78.75 -43.4 78.75 -28.4 107.15 -28.4 107.15 -32.45 110.45 -32.5 110.55 -28.4 147.75 -28.4" fill="#424242" fill-rule="evenodd" stroke="none"/>
    <path d="M-109.0 72.5 L-108.3 71.05 -111.65 67.65 -111.65 65.65 -112.7 65.65 -112.7 57.35 -113.3 57.35 -113.3 27.85 -115.65 27.9 -115.65 57.35 -116.25 57.35 -116.25 65.55 -117.35 65.6 -117.35 67.15 -122.7 67.15 -122.7 67.75 -152.5 67.75 -152.5 69.5 -122.7 69.5 -122.7 70.15 -117.35 70.15 -117.35 71.55 -109.8 71.55 -109.0 72.5 M-14.9 10.4 L-14.9 7.95 -29.8 7.95 -29.8 6.3 -34.25 6.3 -34.35 7.7 -61.65 34.8 -62.95 34.8 -62.95 39.75 -61.65 39.75 -61.65 116.3 -57.95 116.3 -57.95 35.8 -34.25 12.0 -29.8 12.0 -29.8 10.4 -14.9 10.4 M62.75 34.8 L61.45 34.8 34.15 7.7 34.05 6.3 29.55 6.3 29.55 7.95 14.7 7.95 14.7 10.4 29.55 10.4 29.55 12.0 33.75 12.0 57.7 35.8 57.7 116.3 61.4 116.3 61.4 39.75 62.75 39.75 62.75 34.8 M98.15 34.05 L99.4 32.4 98.2 30.95 94.65 34.7 92.55 34.7 92.55 40.6 93.6 40.55 93.6 116.3 97.2 116.3 97.2 40.55 98.2 40.55 98.15 34.05 M107.85 21.35 L109.5 22.75 110.9 21.6 116.45 21.6 116.55 20.1 152.75 20.1 152.75 17.3 116.45 17.25 116.45 16.25 112.0 16.25 111.9 17.2 107.85 21.35 M-12.5 -73.55 L-12.5 -67.15 32.5 -67.15 32.5 -43.15 24.15 -43.15 24.15 -38.3 13.45 -38.3 13.45 -35.8 12.05 -35.8 12.05 -33.2 73.9 -33.2 73.85 -20.4 79.65 -20.4 79.7 -22.4 111.25 -22.4 111.25 -17.65 113.45 -17.65 113.45 -19.65 115.1 -19.65 115.1 -17.5 117.15 -17.5 117.15 -22.4 176.55 -22.4 176.55 15.75 170.85 15.8 170.85 17.3 166.35 17.3 166.35 19.7 170.85 19.6 170.85 21.8 176.55 21.7 176.55 143.1 171.5 143.1 171.5 148.1 98.2 148.1 98.2 143.1 96.2 143.1 96.2 142.3 93.6 142.3 93.6 143.1 92.55 143.1 92.55 148.1 62.95 148.1 62.95 143.05 61.7 143.05 61.7 142.3 59.3 142.3 59.3 143.05 57.0 143.05 57.0 158.75 -56.2 158.75 -56.2 143.05 -57.95 143.05 -57.95 142.3 -61.9 142.3 -61.9 143.05 -63.15 143.05 -63.15 148.1 -92.75 148.1 -92.75 143.1 -93.75 143.1 -93.75 90.55 -92.75 90.6 -92.75 84.7 -94.85 84.7 -98.4 80.95 -99.6 82.4 -98.35 84.05 -98.4 90.55 -96.4 90.55 -96.4 143.1 -98.4 143.1 -98.4 148.1 -170.65 148.1 -170.65 143.1 -175.4 143.1 -175.4 70.75 -171.05 70.8 -171.05 69.05 -167.1 69.05 -167.1 67.2 -171.05 67.3 -171.05 65.8 -175.65 65.75 -175.65 -22.7 -117.35 -22.7 -117.35 -20.65 -115.65 -20.65 -115.65 -0.1 -113.3 -0.15 -113.3 -20.65 -112.45 -20.65 -112.45 -22.7 -79.95 -22.7 -80.0 -20.4 -74.15 -20.4 -74.1 -33.2 -13.2 -33.2 -13.2 -35.8 -14.55 -35.8 -14.55 -38.3 -25.2 -38.3 -25.2 -43.15 -33.55 -43.15 -33.55 -73.55 -12.5 -73.55" fill="#959595" fill-rule="evenodd" stroke="none"/>
    <path d="M8.8 -112.7 L8.3 -113.95 7.25 -114.4 -9.55 -114.4 -10.65 -113.75 -11.05 -112.7 -11.05 -73.55 -33.55 -73.55 -33.55 -140.45 32.3 -140.45 32.5 -67.15 8.8 -67.15 8.8 -112.7" fill="#424242" fill-rule="evenodd" stroke="none"/>
    <path d="M11.4 -115.25 L-13.65 -115.25 -13.65 -73.55 -31.75 -73.55 -31.75 -139.0 30.95 -139.0 30.95 -67.15 11.4 -67.15 11.4 -115.25" fill="#ffffff" fill-rule="evenodd" stroke="none"/>
    <path d="M-21.7 142.0 L-21.7 117.0 19.0 117.0 19.0 142.0 -21.7 142.0" fill="#6f6f6f" fill-rule="evenodd" stroke="none"/>
    <path d="M-16.5 60.8 L-16.5 83.65 -41.0 83.65 -44.0 87.5 -44.0 110.95 -57.95 110.95 -57.95 35.8 -34.25 12.0 -23.75 21.25 -44.0 42.0 -44.35 57.3 -40.75 60.8 -16.5 60.8" fill="#6f6f6f" fill-rule="evenodd" stroke="none"/>
    <path d="M23.3 21.25 L33.75 12.0 57.7 35.8 57.7 110.95 43.55 110.95 43.55 87.5 40.5 83.65 16.05 83.65 16.05 60.8 40.25 60.8 43.85 57.3 43.55 42.0 23.3 21.25" fill="#6f6f6f" fill-rule="evenodd" stroke="none"/>
    <path d="M23.65 -63.55 L30.95 -63.55 30.95 -45.0 23.65 -45.0 23.65 -63.55" fill="#6f6f6f" fill-rule="evenodd" stroke="none"/>
    <path d="M-18.2 10.4 L-18.2 17.3 -22.7 17.3 -22.7 10.4 -18.2 10.4" fill="#6f6f6f" fill-rule="evenodd" stroke="none"/>
    <path d="M123.1 49.0 L123.1 59.65 98.4 59.65 98.4 49.0 123.1 49.0" fill="#6f6f6f" fill-rule="evenodd" stroke="none"/>
    <path d="M123.1 74.65 L123.1 85.0 98.4 85.0 98.4 74.65 123.1 74.65" fill="#6f6f6f" fill-rule="evenodd" stroke="none"/>
    <path d="M123.1 99.3 L123.1 109.65 98.4 109.65 98.4 99.3 123.1 99.3" fill="#6f6f6f" fill-rule="evenodd" stroke="none"/>
    <path d="M162.25 124.0 L169.05 117.7 174.55 123.6 167.75 129.9 162.25 124.0" fill="#6f6f6f" fill-rule="evenodd" stroke="none"/>
    <path d="M148.4 59.65 L148.4 49.0 173.1 49.0 173.1 59.65 148.4 59.65" fill="#6f6f6f" fill-rule="evenodd" stroke="none"/>
    <path d="M137.15 -4.55 L138.1 -6.35 146.75 -6.35 146.75 4.3 138.1 4.3 137.15 2.25 137.15 -4.55" fill="#6f6f6f" fill-rule="evenodd" stroke="none"/>
    <path d="M136.0 -22.4 L136.0 -14.45 134.15 -13.45 128.05 -13.45 126.35 -14.45 126.35 -22.4 136.0 -22.4" fill="#6f6f6f" fill-rule="evenodd" stroke="none"/>
    <path d="M148.4 85.0 L148.4 74.65 173.1 74.65 173.1 85.0 148.4 85.0" fill="#6f6f6f" fill-rule="evenodd" stroke="none"/>
    <path d="M148.4 109.65 L148.4 99.3 173.1 99.3 173.1 109.65 148.4 109.65" fill="#6f6f6f" fill-rule="evenodd" stroke="none"/>
    <path d="M132.5 27.6 L132.5 26.5 130.1 26.5 130.1 22.1 132.5 22.1 132.5 21.1 143.35 21.1 143.35 22.1 144.35 22.1 144.35 26.5 143.35 26.5 143.35 27.6 132.5 27.6" fill="#6f6f6f" fill-rule="evenodd" stroke="none"/>
    <path d="M98.2 148.1 L98.2 142.0 115.25 142.0 115.25 148.1 98.2 148.1" fill="#6f6f6f" fill-rule="evenodd" stroke="none"/>
    <path d="M117.95 142.5 L117.95 139.0 144.5 139.0 144.5 142.5 117.95 142.5" fill="#6f6f6f" fill-rule="evenodd" stroke="none"/>
    <path d="M148.3 141.9 L147.65 138.5 174.4 133.4 175.05 136.85 148.3 141.9" fill="#6f6f6f" fill-rule="evenodd" stroke="none"/>
    <path d="M-169.25 148.1 L-169.25 142.0 -136.5 142.0 -136.5 148.1 -169.25 148.1" fill="#6f6f6f" fill-rule="evenodd" stroke="none"/>
    <path d="M-118.0 148.1 L-118.0 140.45 -100.8 140.45 -100.8 148.1 -118.0 148.1" fill="#6f6f6f" fill-rule="evenodd" stroke="none"/>
    <path d="M-133.0 148.1 L-133.0 146.5 -121.25 146.5 -121.25 148.1 -133.0 148.1" fill="#6f6f6f" fill-rule="evenodd" stroke="none"/>
    <path d="M-168.75 98.45 L-168.75 113.25 -175.4 113.25 -175.4 98.45 -168.75 98.45" fill="#6f6f6f" fill-rule="evenodd" stroke="none"/>
    <path d="M-170.0 114.2 L-170.0 129.7 -175.4 129.7 -175.4 114.2 -170.0 114.2" fill="#6f6f6f" fill-rule="evenodd" stroke="none"/>
    <path d="M-175.4 131.5 L-167.5 131.5 -167.5 139.5 -175.4 139.5 -175.4 131.5" fill="#6f6f6f" fill-rule="evenodd" stroke="none"/>
    <path d="M-139.0 78.25 L-139.0 69.5 -123.0 69.5 -123.0 78.25 -139.0 78.25" fill="#6f6f6f" fill-rule="evenodd" stroke="none"/>
    <path d="M-171.25 73.45 L-171.25 77.75 -175.4 77.75 -175.4 73.45 -171.25 73.45" fill="#6f6f6f" fill-rule="evenodd" stroke="none"/>
    <path d="M-145.2 96.7 L-124.8 116.7 -133.6 125.75 -154.05 105.75 -145.2 96.7" fill="#6f6f6f" fill-rule="evenodd" stroke="none"/>
    <path d="M-136.05 10.0 L-136.05 49.3 -161.35 49.3 -161.35 10.0 -136.05 10.0" fill="#6f6f6f" fill-rule="evenodd" stroke="none"/>
    <path d="M-161.35 -18.0 L-136.05 -18.0 -136.05 -4.7 -161.35 -4.7 -161.35 -18.0" fill="#6f6f6f" fill-rule="evenodd" stroke="none"/>
    <path d="M143.3 -22.4 L143.3 -16.5 137.15 -16.5 137.15 -22.4 143.3 -22.4" fill="#6f6f6f" fill-rule="evenodd" stroke="none"/>
    <path d="M169.0 -14.2 L144.8 -14.2 144.8 -22.4 176.55 -22.4 176.55 4.5 169.0 4.5 169.0 -14.2" fill="#6f6f6f" fill-rule="evenodd" stroke="none"/>
    <path d="M122.15 -22.4 L122.15 -18.0 118.15 -18.0 118.15 -22.4 122.15 -22.4" fill="#6f6f6f" fill-rule="evenodd" stroke="none"/>
    <path d="M21.7 158.75 L21.7 152.5 37.95 152.5 37.95 158.75 21.7 158.75" fill="#6f6f6f" fill-rule="evenodd" stroke="none"/>
    <path d="M39.7 158.75 L39.7 149.2 56.8 149.2 56.8 158.75 39.7 158.75" fill="#6f6f6f" fill-rule="evenodd" stroke="none"/>
  </g>
</svg>
