<?xml version="1.0" encoding="UTF-8" standalone="no"?>
<svg xmlns:ffdec="https://www.free-decompiler.com/flash" xmlns:xlink="http://www.w3.org/1999/xlink" ffdec:objectType="shape" height="438.9px" width="843.1px" xmlns="http://www.w3.org/2000/svg">
  <g transform="matrix(1.0, 0.0, 0.0, 1.0, -218.45, -140.55)">
    <path d="M704.0 360.0 Q704.0 386.5 685.25 405.25 666.5 424.0 640.0 424.0 613.5 424.0 594.75 405.25 576.0 386.5 576.0 360.0 576.0 333.5 594.75 314.75 613.5 296.0 640.0 296.0 666.5 296.0 685.25 314.75 704.0 333.5 704.0 360.0" fill="none" stroke="#ffffff" stroke-linecap="round" stroke-linejoin="round" stroke-opacity="0.49803922" stroke-width="2.0"/>
    <path d="M651.8 371.8 L628.25 371.8 628.25 348.25 651.8 348.25 651.8 371.8 M725.1 358.75 L751.75 358.75 M839.55 293.5 L830.45 268.45 M839.55 428.5 L830.45 453.55 M440.45 293.5 L449.55 268.45 M528.25 359.75 L554.9 359.75 M440.45 428.5 L449.55 453.55 M626.7 468.25 L653.35 468.25 M626.7 253.75 L653.35 253.75" fill="none" stroke="#ffffff" stroke-linecap="round" stroke-linejoin="round" stroke-opacity="0.13333334" stroke-width="2.0"/>
    <path d="M450.0 141.55 L337.0 141.55 337.0 254.55" fill="none" stroke="#ffffff" stroke-linecap="round" stroke-linejoin="round" stroke-opacity="0.49803922" stroke-width="2.0"/>
    <path d="M337.05 465.45 L337.05 578.45 450.05 578.45" fill="none" stroke="#ffffff" stroke-linecap="round" stroke-linejoin="round" stroke-opacity="0.49803922" stroke-width="2.0"/>
    <path d="M830.0 578.45 L943.0 578.45 943.0 465.45" fill="none" stroke="#ffffff" stroke-linecap="round" stroke-linejoin="round" stroke-opacity="0.49803922" stroke-width="2.0"/>
    <path d="M942.95 254.55 L942.95 141.55 829.95 141.55" fill="none" stroke="#ffffff" stroke-linecap="round" stroke-linejoin="round" stroke-opacity="0.49803922" stroke-width="2.0"/>
    <path d="M1024.45 522.55 L1060.55 522.55 1060.55 197.4 1024.45 197.4" fill="none" stroke="#ffffff" stroke-linecap="round" stroke-linejoin="round" stroke-opacity="0.49803922" stroke-width="2.0"/>
    <path d="M255.55 197.45 L219.45 197.45 219.45 522.6 255.55 522.6" fill="none" stroke="#ffffff" stroke-linecap="round" stroke-linejoin="round" stroke-opacity="0.49803922" stroke-width="2.0"/>
  </g>
</svg>
