<?xml version="1.0" encoding="UTF-8" standalone="no"?>
<svg xmlns:ffdec="https://www.free-decompiler.com/flash" xmlns:xlink="http://www.w3.org/1999/xlink" ffdec:objectType="shape" height="17.8px" width="17.15px" xmlns="http://www.w3.org/2000/svg">
  <g transform="matrix(1.0, 0.0, 0.0, 1.0, 8.6, 8.9)">
    <path d="M3.3 -8.9 L8.55 -3.5 8.55 8.9 -8.6 8.9 -8.6 -8.9 3.3 -8.9 M6.2 0.05 Q6.45 -0.1 6.35 -0.45 L5.95 -0.7 2.3 -0.75 1.65 -4.75 1.35 -5.05 0.9 -4.85 -1.55 -0.75 -5.35 -0.75 -5.7 -0.5 -5.65 -0.05 -3.4 2.3 -5.3 6.4 -5.2 6.85 -4.7 6.9 -0.55 4.45 2.75 6.95 3.0 7.05 3.2 7.0 3.4 6.55 2.8 2.4 6.2 0.05" fill="#ffffff" fill-rule="evenodd" stroke="none"/>
  </g>
</svg>
