<?xml version="1.0" encoding="UTF-8" standalone="no"?>
<svg xmlns:ffdec="https://www.free-decompiler.com/flash" xmlns:xlink="http://www.w3.org/1999/xlink" ffdec:objectType="shape" height="590.45px" width="754.0px" xmlns="http://www.w3.org/2000/svg">
  <g transform="matrix(1.0, 0.0, 0.0, 1.0, 590.0, 442.5)">
    <path d="M-225.15 -217.05 L-225.15 -324.4 -9.5 -324.4 -9.5 -442.5 164.0 -442.5 164.0 -383.0 158.45 -368.6 164.0 -355.1 164.0 -300.5 155.85 -300.5 155.85 147.95 -590.0 147.95 -590.0 -5.05 -428.0 -5.05 -428.0 -217.05 -225.15 -217.05" fill="#434343" fill-rule="evenodd" stroke="none"/>
    <path d="M107.0 -316.0 L107.0 -312.0 141.0 -312.0 141.0 133.5 -210.7 133.5 -210.7 114.5 -289.5 114.5 -289.5 136.0 -577.35 136.0 -577.35 8.65 -413.7 8.65 -413.7 -204.0 -261.0 -204.0 -261.0 -44.5 -289.5 -44.5 -289.5 -10.0 -210.7 -10.0 -210.7 -312.0 17.3 -312.0 17.3 -316.0 4.35 -316.0 4.35 -432.7 153.2 -432.7 153.2 -316.0 107.0 -316.0" fill="#969696" fill-rule="evenodd" stroke="none"/>
    <path d="M77.65 -408.25 L80.05 -430.1 102.15 -427.65 99.75 -405.85 77.65 -408.25" fill="#707070" fill-rule="evenodd" stroke="none"/>
    <path d="M24.0 -423.7 L46.1 -423.7 46.1 -401.8 24.0 -401.8 24.0 -423.7" fill="#707070" fill-rule="evenodd" stroke="none"/>
    <path d="M51.85 -425.85 L73.65 -422.1 69.9 -400.5 48.1 -404.25 51.85 -425.85" fill="#707070" fill-rule="evenodd" stroke="none"/>
    <path d="M4.35 -408.4 L16.95 -408.4 16.95 -385.25 4.35 -385.25 4.35 -408.4" fill="#707070" fill-rule="evenodd" stroke="none"/>
    <path d="M4.35 -334.65 L4.35 -379.05 13.45 -379.05 13.45 -334.65 4.35 -334.65" fill="#707070" fill-rule="evenodd" stroke="none"/>
    <path d="M133.0 -284.7 L133.0 -298.7 141.0 -298.7 141.0 -284.7 133.0 -284.7" fill="#707070" fill-rule="evenodd" stroke="none"/>
    <path d="M137.3 -274.0 L137.3 -281.0 141.0 -281.0 141.0 -274.0 137.3 -274.0" fill="#707070" fill-rule="evenodd" stroke="none"/>
    <path d="M127.0 20.65 L127.0 2.65 141.0 2.65 141.0 27.65 134.85 27.65 134.85 20.65 127.0 20.65" fill="#707070" fill-rule="evenodd" stroke="none"/>
    <path d="M-263.5 -86.0 L-283.0 -86.0 -283.0 -159.0 -263.5 -159.0 -263.5 -86.0" fill="#707070" fill-rule="evenodd" stroke="none"/>
    <path d="M-403.5 -196.35 L-403.5 -102.0 -413.7 -102.0 -413.7 -196.35 -403.5 -196.35" fill="#707070" fill-rule="evenodd" stroke="none"/>
    <path d="M-423.0 57.5 L-403.0 57.5 -403.0 101.5 -423.0 101.5 -423.0 57.5" fill="#707070" fill-rule="evenodd" stroke="none"/>
    <path d="M-515.0 105.5 L-515.0 61.5 -495.0 61.5 -495.0 105.5 -515.0 105.5" fill="#707070" fill-rule="evenodd" stroke="none"/>
    <path d="M-526.7 31.3 L-526.7 11.3 -482.7 11.3 -482.7 31.3 -526.7 31.3" fill="#707070" fill-rule="evenodd" stroke="none"/>
    <path d="M-431.0 11.3 L-431.0 31.3 -475.0 31.3 -475.0 11.3 -431.0 11.3" fill="#707070" fill-rule="evenodd" stroke="none"/>
    <path d="M109.95 -307.15 L110.25 -306.55 110.35 -305.8 110.25 -305.1 109.95 -304.5 109.45 -303.95 108.8 -303.6 108.1 -303.45 107.4 -303.55 106.75 -303.8 106.2 -304.25 105.8 -304.85 105.6 -305.5 105.6 -306.25 105.8 -306.9 106.25 -307.5 106.8 -307.95 107.45 -308.2 108.15 -308.25 108.85 -308.05 109.5 -307.7 109.95 -307.15" fill="#434343" fill-rule="evenodd" stroke="none"/>
    <path d="M19.45 -307.15 L19.75 -306.55 19.85 -305.8 19.75 -305.1 19.45 -304.5 18.95 -303.95 18.3 -303.6 17.6 -303.45 16.9 -303.55 16.25 -303.8 15.7 -304.25 15.3 -304.85 15.1 -305.5 15.1 -306.25 15.3 -306.9 15.75 -307.5 16.3 -307.95 16.95 -308.2 17.65 -308.25 18.35 -308.05 Q18.7 -307.85 19.0 -307.7 L19.45 -307.15" fill="#434343" fill-rule="evenodd" stroke="none"/>
    <path d="M-54.9 -307.15 L-54.55 -306.55 -54.5 -305.8 -54.6 -305.1 -54.9 -304.5 -55.4 -303.95 -56.0 -303.6 -56.7 -303.45 -57.45 -303.55 -58.1 -303.8 -58.65 -304.25 -59.05 -304.85 -59.25 -305.5 -59.25 -306.25 -59.0 -306.9 -58.6 -307.5 -58.05 -307.95 -57.35 -308.2 -56.65 -308.25 -55.95 -308.05 -55.35 -307.7 -54.9 -307.15" fill="#434343" fill-rule="evenodd" stroke="none"/>
    <path d="M-200.25 -307.15 L-199.95 -306.55 -199.85 -305.8 -199.95 -305.1 -200.25 -304.5 -200.75 -303.95 -201.4 -303.6 -202.1 -303.45 -202.8 -303.55 -203.45 -303.8 -204.0 -304.25 -204.4 -304.85 -204.6 -305.5 -204.6 -306.25 -204.35 -306.9 -203.95 -307.5 -203.4 -307.95 -202.75 -308.2 -202.0 -308.25 -201.35 -308.05 -200.7 -307.7 -200.25 -307.15" fill="#434343" fill-rule="evenodd" stroke="none"/>
    <path d="M-201.35 -168.05 L-200.7 -167.7 -200.25 -167.15 -199.95 -166.55 -199.85 -165.8 -199.95 -165.1 -200.25 -164.5 -200.75 -163.95 -201.4 -163.6 -202.1 -163.45 -202.8 -163.55 -203.45 -163.8 -204.0 -164.25 -204.4 -164.85 -204.6 -165.5 -204.6 -166.25 -204.35 -166.9 -203.95 -167.5 -203.4 -167.95 -202.75 -168.2 -202.0 -168.25 -201.35 -168.05" fill="#434343" fill-rule="evenodd" stroke="none"/>
    <path d="M139.25 -164.75 L138.95 -164.15 138.45 -163.6 137.85 -163.25 137.15 -163.1 136.45 -163.2 135.8 -163.45 135.25 -163.9 134.85 -164.5 134.65 -165.2 134.65 -165.9 134.85 -166.55 135.25 -167.15 135.85 -167.6 136.5 -167.85 137.2 -167.9 137.9 -167.7 138.5 -167.35 139.0 -166.85 139.3 -166.2 139.4 -165.5 139.25 -164.75" fill="#434343" fill-rule="evenodd" stroke="none"/>
    <path d="M139.4 -90.75 L139.25 -90.0 138.95 -89.4 138.45 -88.85 137.85 -88.5 137.15 -88.35 136.45 -88.45 135.8 -88.7 135.25 -89.15 134.85 -89.75 134.65 -90.45 134.65 -91.15 134.85 -91.8 135.25 -92.4 135.85 -92.85 136.5 -93.1 137.2 -93.15 137.9 -92.95 138.5 -92.6 139.0 -92.1 139.3 -91.45 139.4 -90.75" fill="#434343" fill-rule="evenodd" stroke="none"/>
    <path d="M139.0 -14.1 L139.3 -13.45 139.4 -12.75 139.25 -12.0 138.95 -11.4 138.45 -10.85 137.85 -10.5 137.15 -10.35 136.45 -10.45 135.8 -10.7 135.25 -11.15 134.85 -11.75 134.65 -12.45 134.65 -13.15 134.85 -13.8 135.25 -14.4 135.85 -14.85 136.5 -15.1 137.2 -15.15 137.9 -14.95 138.5 -14.6 139.0 -14.1" fill="#434343" fill-rule="evenodd" stroke="none"/>
    <path d="M-200.6 -93.05 L-200.0 -92.7 -199.5 -92.15 -199.2 -91.55 -199.1 -90.8 -199.25 -90.1 -199.55 -89.5 -200.05 -88.95 -200.65 -88.6 -201.35 -88.45 -202.05 -88.55 -202.75 -88.8 -203.3 -89.25 -203.7 -89.85 -203.9 -90.5 -203.85 -91.25 -203.65 -91.9 -203.25 -92.5 -202.7 -92.95 -202.0 -93.2 -201.3 -93.25 -200.6 -93.05" fill="#434343" fill-rule="evenodd" stroke="none"/>
    <path d="M-200.6 125.7 L-200.0 126.05 -199.5 126.6 -199.2 127.25 -199.1 127.95 -199.25 128.65 -199.55 129.25 -200.05 129.8 -200.65 130.15 -201.35 130.3 -202.05 130.25 -202.75 129.95 -203.3 129.5 -203.7 128.9 -203.9 128.25 -203.85 127.5 -203.65 126.85 -203.25 126.25 -202.7 125.8 -202.0 125.55 -201.3 125.5 -200.6 125.7" fill="#434343" fill-rule="evenodd" stroke="none"/>
    <path d="M-140.0 126.05 L-139.5 126.6 -139.2 127.25 -139.1 127.95 -139.25 128.65 -139.55 129.25 -140.05 129.8 -140.65 130.15 -141.35 130.3 -142.05 130.25 -142.75 129.95 -143.3 129.5 -143.7 128.9 -143.9 128.25 -143.85 127.5 -143.65 126.85 -143.25 126.25 -142.7 125.8 -142.0 125.55 -141.3 125.5 -140.6 125.7 -140.0 126.05" fill="#434343" fill-rule="evenodd" stroke="none"/>
    <path d="M-55.25 126.05 L-54.75 126.6 -54.45 127.25 -54.35 127.95 -54.5 128.65 -54.8 129.25 -55.3 129.8 -55.9 130.15 -56.6 130.3 -57.3 130.25 -58.0 129.95 -58.55 129.5 -58.95 128.9 -59.15 128.25 -59.1 127.5 -58.9 126.85 -58.5 126.25 -57.95 125.8 -57.25 125.55 -56.55 125.5 -55.85 125.7 -55.25 126.05" fill="#434343" fill-rule="evenodd" stroke="none"/>
    <path d="M92.5 126.05 L93.0 126.6 93.3 127.25 93.4 127.95 93.25 128.65 92.95 129.25 92.45 129.8 91.85 130.15 91.15 130.3 90.45 130.25 89.75 129.95 89.2 129.5 88.8 128.9 88.6 128.25 88.65 127.5 88.85 126.85 89.25 126.25 89.8 125.8 90.5 125.55 91.2 125.5 91.9 125.7 92.5 126.05" fill="#434343" fill-rule="evenodd" stroke="none"/>
    <path d="M153.2 -383.0 L164.0 -383.0 164.0 -355.1 153.2 -355.1 153.2 -383.0" fill="#ffffff" fill-rule="evenodd" stroke="none"/>
  </g>
</svg>
