<?xml version="1.0" encoding="UTF-8" standalone="no"?>
<svg xmlns:ffdec="https://www.free-decompiler.com/flash" xmlns:xlink="http://www.w3.org/1999/xlink" ffdec:objectType="shape" height="616.0px" width="751.0px" xmlns="http://www.w3.org/2000/svg">
  <g transform="matrix(1.0, 0.0, 0.0, 1.0, 387.0, 289.0)">
    <path d="M364.0 -53.0 L364.0 304.0 121.0 304.0 121.0 327.0 -121.0 327.0 -121.0 304.0 -387.0 304.0 -387.0 -53.0 -162.0 -53.0 -162.0 -74.0 -75.0 -74.0 -75.0 -289.0 75.0 -289.0 75.0 -74.0 163.0 -74.0 163.0 -53.0 364.0 -53.0" fill="#434343" fill-rule="evenodd" stroke="none"/>
    <path d="M-65.45 -245.8 L65.3 -245.8 65.3 -85.25 48.9 -85.25 48.9 -75.65 24.5 -75.65 24.5 -66.0 57.0 -66.0 57.0 -45.0 127.0 -45.0 127.0 -40.0 132.0 -40.0 132.0 -27.0 142.3 -27.0 142.3 -44.4 261.5 -44.4 261.5 145.0 182.8 145.0 182.8 40.0 142.3 40.0 142.3 22.0 132.0 22.0 132.0 34.5 127.0 34.5 127.0 39.0 21.3 39.0 21.3 47.25 16.15 47.25 16.15 50.9 26.0 50.9 26.0 113.15 -26.85 113.15 -26.85 50.9 -17.0 50.9 -17.0 47.25 -22.5 47.25 -22.5 39.0 -81.7 39.0 -81.7 60.65 -104.2 60.65 -104.2 71.65 -95.35 71.65 -95.35 260.5 -193.6 260.5 -193.6 71.65 -134.05 71.65 -134.05 60.65 -153.05 60.65 -153.05 39.0 -240.7 39.0 -240.7 52.65 -224.0 52.65 -224.0 172.5 -374.5 172.5 -374.5 92.65 -284.5 92.65 -284.5 52.65 -267.35 52.65 -267.35 39.0 -327.7 39.0 -327.7 -45.0 -154.1 -45.0 -154.1 -66.0 -25.1 -66.0 -25.1 -75.65 -49.1 -75.65 -49.1 -85.25 -65.45 -85.25 -65.45 -245.8" fill="#969696" fill-rule="evenodd" stroke="none"/>
    <path d="M20.5 -227.8 L-22.0 -227.8 -22.0 -146.45 -65.45 -146.45 -65.45 -280.5 65.15 -280.5 65.15 -135.8 20.5 -135.8 20.5 -227.8" fill="#ffffff" fill-rule="evenodd" stroke="none"/>
    <path d="M-141.7 169.65 L-95.35 169.65 -95.35 261.3 -193.6 261.3 -193.6 142.65 -145.7 142.65 -145.7 220.0 -141.7 220.0 -141.7 169.65" fill="#ffffff" fill-rule="evenodd" stroke="none"/>
    <path d="M-22.0 -113.95 L-65.45 -113.95 -65.45 -146.45 -22.0 -146.45 -22.0 -113.95" fill="#969696" fill-rule="evenodd" stroke="none"/>
  </g>
</svg>
