<?xml version="1.0" encoding="UTF-8" standalone="no"?>
<svg xmlns:ffdec="https://www.free-decompiler.com/flash" xmlns:xlink="http://www.w3.org/1999/xlink" ffdec:objectType="shape" height="616.0px" width="726.0px" xmlns="http://www.w3.org/2000/svg">
  <g transform="matrix(1.0, 0.0, 0.0, 1.0, 362.0, 289.0)">
    <path d="M364.0 -53.0 L364.0 304.0 121.0 304.0 121.0 327.0 -121.0 327.0 -121.0 304.0 -362.0 304.0 -362.0 -53.0 -162.0 -53.0 -162.0 -74.0 -75.0 -74.0 -75.0 -289.0 75.0 -289.0 75.0 -74.0 163.0 -74.0 163.0 -53.0 364.0 -53.0" fill="#434343" fill-rule="evenodd" stroke="none"/>
    <path d="M-226.2 54.4 L-230.55 54.4 -230.55 131.45 -234.1 131.45 -234.1 134.75 -305.15 134.75 -305.15 138.05 -233.8 138.05 -233.8 143.05 -222.45 143.05 -221.45 142.1 -218.3 145.35 -215.3 142.5 -221.7 135.9 -223.5 135.9 -223.5 131.45 -226.2 131.45 -226.2 54.4 M192.4 81.65 L195.75 81.65 195.75 67.95 198.35 65.3 195.95 62.75 188.6 70.15 186.3 70.15 186.3 81.65 188.25 81.65 188.25 230.0 192.4 230.0 192.4 81.65 M-26.7 20.25 L-26.7 15.0 -57.45 15.0 -57.45 12.65 -66.35 12.65 -66.35 17.0 -122.7 69.8 -126.0 69.8 -126.0 81.65 -122.85 81.65 -122.85 230.3 -118.35 230.3 -118.35 81.65 -115.35 81.65 -115.35 69.8 -117.7 69.8 -66.35 21.3 -66.35 23.25 -57.45 23.25 -57.45 20.25 -26.7 20.25 M68.8 16.0 L68.8 12.65 57.5 12.65 57.5 15.0 25.75 15.0 25.75 20.25 57.5 20.25 57.5 23.25 68.8 23.25 68.8 20.5 117.3 69.8 113.65 69.8 113.65 81.65 118.0 81.65 118.0 230.0 123.0 230.0 123.0 81.65 124.65 81.65 124.65 69.8 122.0 69.8 68.8 16.0 M303.5 38.25 L303.5 35.15 233.75 35.15 233.75 32.65 222.9 32.65 222.9 35.75 215.65 43.0 218.0 45.5 220.25 43.25 235.0 43.25 235.0 38.25 303.5 38.25 M354.15 32.65 L344.15 32.65 344.15 35.15 332.4 35.15 332.4 38.25 343.25 38.25 343.25 43.25 354.25 43.25 354.25 51.05 357.65 51.05 357.65 84.65 354.25 84.65 354.25 161.8 357.65 161.8 357.65 195.85 354.25 195.85 354.25 227.15 357.65 227.15 357.65 260.4 354.25 260.4 354.25 286.75 343.55 286.75 343.55 297.05 316.15 297.05 316.15 299.75 284.25 299.75 284.25 297.05 235.0 297.05 235.0 299.75 203.05 299.75 203.05 297.05 196.9 297.05 196.9 285.75 186.3 285.75 186.3 296.75 124.65 296.75 124.65 285.75 115.3 285.75 115.3 318.0 77.65 318.0 77.65 323.3 44.3 323.3 44.3 318.0 27.3 318.0 27.3 323.3 -27.7 323.3 -27.7 318.0 -44.0 318.0 -44.0 323.3 -78.0 323.3 -78.0 318.0 -115.0 318.0 -115.0 284.65 -126.0 284.65 -126.0 297.65 -143.0 297.65 -143.0 300.0 -167.5 300.0 -167.5 297.65 -185.5 297.65 -185.5 287.3 -188.2 287.3 -188.2 179.55 -185.5 179.55 -185.5 169.4 -187.7 169.4 -188.55 170.2 -196.4 162.05 -199.45 164.85 -196.85 167.55 -196.45 167.55 -196.45 167.95 -195.95 168.5 -196.45 169.0 -196.45 179.55 -192.8 179.55 -192.8 287.15 -196.45 287.15 -196.45 297.5 -202.8 297.5 -202.8 300.15 -234.85 300.15 -234.85 297.5 -283.8 297.5 -283.8 300.15 -315.85 300.15 -315.85 297.5 -341.85 297.5 -341.85 287.0 -351.6 287.0 -351.6 259.25 -354.85 259.25 -354.85 228.05 -351.6 228.05 -351.6 195.0 -354.85 195.0 -354.85 163.8 -351.6 163.8 -351.6 143.05 -342.3 143.05 -342.3 138.05 -332.25 138.05 -332.25 134.75 -341.0 134.75 -341.0 130.75 -351.0 130.75 -351.0 84.4 -354.75 84.4 -354.75 52.9 -351.0 52.9 -351.0 19.75 -354.75 19.75 -354.75 -11.75 -351.0 -11.75 -351.0 -45.05 -234.35 -45.05 -234.35 -40.35 -230.55 -40.35 -230.55 2.55 -226.2 2.55 -226.2 -40.35 -223.1 -40.35 -223.1 -44.65 -160.2 -44.65 -160.2 -40.65 -147.6 -40.65 -147.6 -66.0 -135.1 -66.0 -135.1 -69.5 -109.0 -69.5 -109.0 -66.0 -25.1 -66.0 -25.1 -70.5 -27.75 -70.5 -27.75 -75.65 -49.1 -75.65 -49.1 -85.25 -65.45 -85.25 -65.45 -135.8 65.15 -135.8 65.15 -85.25 48.9 -85.25 48.9 -75.65 27.6 -75.65 27.6 -70.5 24.5 -70.5 24.5 -66.0 109.8 -66.0 109.8 -69.5 135.0 -69.5 135.0 -66.0 148.5 -66.0 148.5 -40.65 160.25 -40.65 160.25 -44.65 223.15 -44.65 223.15 -35.15 233.75 -35.15 233.75 -44.65 354.15 -44.65 354.15 32.65" fill="#969696" fill-rule="evenodd" stroke="none"/>
    <path d="M354.25 114.0 L354.25 147.5 291.0 147.5 291.0 114.0 354.25 114.0" fill="#707070" fill-rule="evenodd" stroke="none"/>
    <path d="M354.25 195.85 L354.25 227.15 304.3 227.15 304.3 195.85 354.25 195.85" fill="#707070" fill-rule="evenodd" stroke="none"/>
    <path d="M196.3 183.85 L243.55 183.85 243.55 215.8 196.3 215.8 196.3 183.85" fill="#707070" fill-rule="evenodd" stroke="none"/>
    <path d="M195.95 133.8 L195.95 117.5 243.2 117.5 243.2 133.8 195.95 133.8" fill="#707070" fill-rule="evenodd" stroke="none"/>
    <path d="M263.15 56.1 L263.15 42.2 287.75 42.2 287.75 56.1 263.15 56.1" fill="#707070" fill-rule="evenodd" stroke="none"/>
    <path d="M243.9 281.1 L274.85 281.1 274.85 296.5 243.9 296.5 243.9 281.1" fill="#707070" fill-rule="evenodd" stroke="none"/>
    <path d="M197.8 295.0 L197.8 285.35 230.35 285.35 230.35 295.0 197.8 295.0" fill="#707070" fill-rule="evenodd" stroke="none"/>
    <path d="M113.6 301.0 L113.6 317.6 81.05 317.6 81.05 301.0 113.6 301.0" fill="#707070" fill-rule="evenodd" stroke="none"/>
    <path d="M-70.95 317.1 L-70.95 301.25 73.75 301.25 73.75 317.1 -70.95 317.1" fill="#707070" fill-rule="evenodd" stroke="none"/>
    <path d="M-113.95 318.1 L-113.95 302.25 -83.0 302.25 -83.0 318.1 -113.95 318.1" fill="#707070" fill-rule="evenodd" stroke="none"/>
    <path d="M-235.7 278.6 L-202.75 278.6 -202.75 294.75 -235.7 294.75 -235.7 278.6" fill="#707070" fill-rule="evenodd" stroke="none"/>
    <path d="M-249.35 233.65 L-267.2 251.8 -309.15 210.55 -291.3 192.4 -249.35 233.65" fill="#707070" fill-rule="evenodd" stroke="none"/>
    <path d="M-339.05 284.3 L-273.2 284.3 -273.2 295.05 -339.05 295.05 -339.05 284.3" fill="#707070" fill-rule="evenodd" stroke="none"/>
    <path d="M-298.55 159.3 L-298.55 140.3 -240.05 140.3 -240.05 159.3 -298.55 159.3" fill="#707070" fill-rule="evenodd" stroke="none"/>
    <path d="M-334.85 263.65 L-334.85 279.0 -351.6 279.0 -351.6 263.65 -334.85 263.65" fill="#707070" fill-rule="evenodd" stroke="none"/>
    <path d="M-351.6 197.3 L-339.85 197.3 -339.85 261.0 -351.6 261.0 -351.6 197.3" fill="#707070" fill-rule="evenodd" stroke="none"/>
    <path d="M-264.9 297.5 L-264.9 293.65 -242.2 293.65 -242.2 297.5 -264.9 297.5" fill="#707070" fill-rule="evenodd" stroke="none"/>
    <path d="M-66.35 24.3 L-47.0 42.65 -89.5 82.0 -89.5 113.15 -81.3 121.25 -32.35 121.25 -32.35 167.3 -80.6 167.3 -89.5 176.4 -89.5 223.1 -115.35 223.1 -115.35 72.5 -66.35 24.3" fill="#707070" fill-rule="evenodd" stroke="none"/>
    <path d="M65.55 24.3 L113.65 72.5 113.65 223.1 88.7 223.1 88.7 175.3 80.85 167.3 31.55 167.3 31.55 121.25 81.55 121.25 88.7 114.2 88.7 82.0 46.2 42.65 65.55 24.3" fill="#707070" fill-rule="evenodd" stroke="none"/>
    <path d="M-351.0 -44.5 L-325.85 -44.5 -325.85 -4.15 -318.3 3.25 -286.35 3.25 -286.35 49.3 -317.6 49.3 -325.85 57.7 -325.85 104.8 -351.0 104.8 -351.0 -44.5" fill="#707070" fill-rule="evenodd" stroke="none"/>
    <path d="M20.5 -227.8 L-22.0 -227.8 -22.0 -146.45 -65.45 -146.45 -65.45 -280.5 65.15 -280.5 65.15 -135.8 20.5 -135.8 20.5 -227.8" fill="#ffffff" fill-rule="evenodd" stroke="none"/>
    <path d="M-22.0 -113.95 L-65.45 -113.95 -65.45 -146.45 -22.0 -146.45 -22.0 -113.95" fill="#969696" fill-rule="evenodd" stroke="none"/>
  </g>
</svg>
