<?xml version="1.0" encoding="UTF-8" standalone="no"?>
<svg xmlns:ffdec="https://www.free-decompiler.com/flash" xmlns:xlink="http://www.w3.org/1999/xlink" ffdec:objectType="shape" height="9.0px" width="9.0px" xmlns="http://www.w3.org/2000/svg">
  <g transform="matrix(1.0, 0.0, 0.0, 1.0, 0.5, 0.5)">
    <path d="M1.2 6.8 Q0.0 5.65 0.0 4.0 0.0 2.35 1.2 1.2 2.35 0.0 4.0 0.0 5.65 0.0 6.8 1.2 8.0 2.35 8.0 4.0 8.0 5.65 6.8 6.8 5.65 8.0 4.0 8.0 2.35 8.0 1.2 6.8" fill="#ffffff" fill-rule="evenodd" stroke="none"/>
    <path d="M1.2 6.8 Q0.0 5.65 0.0 4.0 0.0 2.35 1.2 1.2 2.35 0.0 4.0 0.0 5.65 0.0 6.8 1.2 8.0 2.35 8.0 4.0 8.0 5.65 6.8 6.8 5.65 8.0 4.0 8.0 2.35 8.0 1.2 6.8 Z" fill="none" stroke="#000000" stroke-linecap="round" stroke-linejoin="round" stroke-width="1.0"/>
  </g>
</svg>
