<?xml version="1.0" encoding="UTF-8" standalone="no"?>
<svg xmlns:ffdec="https://www.free-decompiler.com/flash" xmlns:xlink="http://www.w3.org/1999/xlink" ffdec:objectType="shape" height="11.15px" width="11.05px" xmlns="http://www.w3.org/2000/svg">
  <g transform="matrix(1.0, 0.0, 0.0, 1.0, 5.55, 5.55)">
    <path d="M2.9 -4.45 L1.85 -4.7 1.15 -4.45 0.75 -4.1 1.85 -3.85 Q2.25 -3.85 2.55 -4.1 L2.9 -4.45 M3.15 -3.5 Q2.6 -3.05 1.85 -3.05 L0.5 -3.3 0.0 -3.85 -0.5 -3.3 -1.9 -3.05 Q-2.6 -3.05 -3.2 -3.5 -3.8 -3.95 -3.8 -4.45 -3.8 -4.95 -3.25 -5.25 L-1.9 -5.55 Q-1.15 -5.55 -0.55 -5.05 L0.0 -4.3 0.5 -5.05 Q1.1 -5.55 1.85 -5.55 L3.2 -5.25 Q3.75 -4.95 3.75 -4.45 3.75 -3.95 3.15 -3.5 M0.65 1.2 L5.0 1.2 5.0 5.6 0.65 5.6 0.65 1.2 M0.65 -2.65 L5.5 -2.65 5.5 0.55 0.65 0.55 0.65 -2.65 M-0.8 -4.1 L-1.15 -4.45 -1.85 -4.65 -2.9 -4.45 -2.6 -4.05 -1.85 -3.85 Q-1.1 -3.85 -0.8 -4.1 M-0.65 5.6 L-5.05 5.6 -5.05 1.2 -0.65 1.2 -0.65 5.6 M-5.55 -2.65 L-0.65 -2.65 -0.65 0.55 -5.55 0.55 -5.55 -2.65" fill="#000000" fill-rule="evenodd" stroke="none"/>
  </g>
</svg>
