<?xml version="1.0" encoding="UTF-8" standalone="no"?>
<svg xmlns:ffdec="https://www.free-decompiler.com/flash" xmlns:xlink="http://www.w3.org/1999/xlink" ffdec:objectType="shape" height="12.0px" width="11.95px" xmlns="http://www.w3.org/2000/svg">
  <g transform="matrix(1.0, 0.0, 0.0, 1.0, 6.0, 6.0)">
    <path d="M0.15 -1.95 L0.25 -1.9 Q0.85 -1.75 0.9 -1.1 L0.95 -0.1 0.95 0.95 1.15 1.65 1.25 1.75 1.55 1.6 2.9 -0.7 3.0 -0.75 3.4 1.75 5.95 1.75 5.85 1.85 3.75 3.3 3.65 3.5 4.0 5.85 4.0 5.9 3.9 5.85 2.05 4.45 1.9 4.45 -0.6 5.95 -0.7 6.0 0.5 3.4 0.5 3.25 -0.8 1.9 -1.05 1.35 -1.05 0.6 -1.0 -0.4 Q-1.05 -1.15 -1.85 -1.15 L-3.3 -1.2 -3.4 -1.1 -3.95 1.6 -6.0 1.6 -4.35 -6.0 -0.35 -6.0 0.9 -5.8 Q1.75 -5.5 1.9 -4.55 L1.9 -3.35 Q1.65 -2.3 0.5 -2.0 L0.15 -1.95 M0.05 2.1 L0.0 2.05 1.6 2.05 2.75 0.2 3.2 2.05 4.8 2.05 4.7 2.15 4.8 2.05 3.2 2.05 2.75 0.2 1.6 2.05 0.0 2.05 0.05 2.1 -0.05 2.1 0.5 2.7 0.05 2.1 M0.2 5.0 L0.0 5.05 0.9 3.2 0.5 2.7 0.9 3.2 0.0 5.05 0.2 5.0 0.15 5.05 0.5 4.85 0.2 5.0 M3.45 4.65 L3.5 5.05 3.45 5.05 1.95 4.25 0.5 4.85 1.95 4.25 3.45 5.05 3.5 5.05 3.45 4.65 3.25 3.35 3.35 3.15 4.75 2.15 4.7 2.15 3.2 3.2 3.45 4.65 M-0.85 -4.4 L-2.6 -4.45 -2.65 -4.35 -3.0 -2.6 -1.4 -2.6 -0.95 -2.65 Q-0.05 -2.75 -0.05 -3.65 -0.05 -4.15 -0.55 -4.35 L-0.85 -4.4" fill="#ffffff" fill-rule="evenodd" stroke="none"/>
    <path d="M4.7 2.15 L4.8 2.05 3.2 2.05 2.75 0.2 1.6 2.05 0.0 2.05 0.05 2.1 0.5 2.7 0.9 3.2 0.0 5.05 0.2 5.0 0.5 4.85 1.95 4.25 3.45 5.05 3.5 5.05 3.45 4.65 3.2 3.2 4.7 2.15 Z" ffdec:has-small-stroke="true" ffdec:original-stroke-width="0.5" fill="none" stroke="#ffffff" stroke-linecap="butt" stroke-linejoin="miter-clip" stroke-miterlimit="4.0" stroke-width="1.0"/>
  </g>
</svg>
