<?xml version="1.0" encoding="UTF-8" standalone="no"?>
<svg xmlns:ffdec="https://www.free-decompiler.com/flash" xmlns:xlink="http://www.w3.org/1999/xlink" ffdec:objectType="shape" height="11.5px" width="11.0px" xmlns="http://www.w3.org/2000/svg">
  <g transform="matrix(1.0, 0.0, 0.0, 1.0, 5.5, 5.75)">
    <path d="M0.0 -2.75 L0.0 0.25 -1.0 0.25 -1.0 -2.75 0.0 -2.75 M2.8 2.45 L4.5 0.75 4.5 -4.75 -3.7 -4.75 -3.7 2.45 -1.45 2.45 -1.45 3.95 0.0 2.45 2.8 2.45 M2.5 4.25 L0.25 4.25 -1.25 5.75 -2.7 5.75 -2.7 4.25 -5.5 4.25 -5.5 -3.75 -4.7 -5.75 5.5 -5.75 5.5 1.25 2.5 4.25 M1.75 -2.75 L2.75 -2.75 2.75 0.25 1.75 0.25 1.75 -2.75" fill="#ffffff" fill-rule="evenodd" stroke="none"/>
  </g>
</svg>
