<?xml version="1.0" encoding="UTF-8" standalone="no"?>
<svg xmlns:ffdec="https://www.free-decompiler.com/flash" xmlns:xlink="http://www.w3.org/1999/xlink" ffdec:objectType="shape" height="8.9px" width="7.1px" xmlns="http://www.w3.org/2000/svg">
  <g transform="matrix(1.0, 0.0, 0.0, 1.0, 3.55, 4.45)">
    <path d="M0.9 1.35 Q0.9 0.95 0.6 0.7 L-0.05 0.45 Q-0.4 0.45 -0.7 0.7 L-1.0 1.35 -0.55 2.1 -0.55 2.9 -0.4 3.25 -0.05 3.4 0.35 3.25 0.5 2.9 0.5 2.1 0.9 1.35 M1.55 -2.1 L1.35 -2.85 Q1.05 -3.4 0.45 -3.55 L-0.7 -3.5 Q-1.55 -3.1 -1.6 -2.25 L-1.6 -0.9 -1.55 -0.7 1.55 -0.7 1.55 -0.9 1.55 -2.1 M2.4 -2.75 L2.5 -2.05 2.5 -0.7 3.15 -0.7 3.4 -0.6 3.5 -0.35 3.5 -0.25 3.55 4.0 3.1 4.45 -3.05 4.45 Q-3.55 4.45 -3.55 4.0 L-3.55 -0.3 Q-3.55 -0.75 -3.05 -0.75 L-2.45 -0.75 -2.45 -2.1 Q-2.45 -3.5 -1.2 -4.15 L0.95 -4.3 Q2.05 -3.85 2.4 -2.75" fill="#000000" fill-rule="evenodd" stroke="none"/>
  </g>
</svg>
