<?xml version="1.0" encoding="UTF-8" standalone="no"?>
<svg xmlns:ffdec="https://www.free-decompiler.com/flash" xmlns:xlink="http://www.w3.org/1999/xlink" ffdec:objectType="shape" height="230.15px" width="173.7px" xmlns="http://www.w3.org/2000/svg">
  <g transform="matrix(1.0, 0.0, 0.0, 1.0, 86.35, 118.1)">
    <path d="M21.3 -4.85 Q21.75 -4.6 22.15 -4.4 L21.55 -4.5 21.3 -4.85 M22.2 0.65 L-64.15 1.3 -86.35 -108.05 -57.5 -118.1 -54.2 -114.5 -36.85 -0.35 -27.95 -0.1 -22.4 -49.05 -17.15 0.0 -12.05 0.0 -6.05 -55.65 -6.05 0.1 5.9 0.3 6.65 -8.0 9.5 -7.2 10.15 0.35 22.2 0.65 M-37.15 -80.85 L-27.65 -83.0 -25.8 -81.1 -32.1 -36.3 -37.15 -80.85 M-18.1 -64.3 L-12.5 -65.25 -11.05 -63.8 -14.6 -27.85 -18.1 -64.3 M2.95 -41.35 L3.0 -43.15 6.05 -43.45 7.05 -42.5 3.8 -9.1 -1.75 -10.05 -1.75 -22.35 2.9 -20.2 2.95 -29.2 -1.8 -32.75 -1.8 -42.5 2.9 -38.4 2.95 -41.35 M9.55 -37.05 L11.4 -37.2 12.3 -36.35 12.3 -29.3 14.85 -26.9 12.0 -4.7 9.55 -37.05 M16.5 -31.35 L17.05 -30.7 17.05 -5.9 16.4 -5.65 14.25 -6.25 16.5 -31.35 M19.85 -27.4 L20.3 -26.9 20.15 -4.9 18.3 -5.3 18.3 -11.95 19.45 -11.7 19.75 -16.75 18.25 -18.1 18.25 -23.3 19.45 -22.55 19.85 -27.4 M9.15 -14.6 L7.0 -15.35 8.05 -30.4 9.15 -14.6 M-16.95 2.7 L-13.95 2.6 -0.3 3.0 4.2 3.25 7.85 3.5 33.15 4.9 54.95 6.15 59.55 6.4 62.45 6.6 65.35 6.7 68.8 6.9 72.25 7.2 75.75 7.3 79.15 7.5 83.05 7.7 86.85 7.85 87.35 8.05 87.35 22.8 86.2 23.0 65.5 24.45 63.5 24.65 Q54.65 24.85 46.35 21.95 L44.05 21.25 41.45 20.65 38.85 20.05 36.3 19.45 33.7 18.75 29.2 17.65 24.65 16.5 21.35 15.7 18.0 14.85 16.9 14.75 16.95 16.35 21.7 17.05 87.35 34.5 87.35 49.55 69.6 52.35 87.35 61.1 87.35 76.2 75.0 79.25 87.35 87.75 87.35 102.85 59.5 112.05 57.85 110.45 57.85 95.95 57.0 95.25 4.45 43.7 4.1 47.2 4.1 48.0 2.45 48.15 1.8 47.55 1.85 5.65 1.65 4.3 -16.95 2.7 M57.75 23.7 L57.85 9.4 4.25 4.7 4.35 11.2 57.15 23.7 57.75 23.7 M4.15 30.75 L4.15 36.95 57.85 81.65 57.65 67.1 44.4 57.85 30.75 48.55 16.2 38.75 4.15 30.75 M4.2 17.6 L4.2 24.05 57.65 52.55 57.85 38.3 4.2 17.6" fill="#000000" fill-rule="evenodd" stroke="none"/>
    <path d="M-10.5 33.5 L-8.85 33.3 -8.2 36.15 -10.5 33.5" fill="#980000" fill-rule="evenodd" stroke="none"/>
    <path d="M-17.1 6.0 Q-11.5 7.6 -5.45 8.5 -3.75 8.85 -2.7 9.95 0.7 13.5 0.4 18.7 L0.1 19.15 -2.2 19.5 -1.1 22.6 Q1.95 31.0 -1.2 38.5 L-5.5 39.25 -6.25 39.05 -6.55 38.55 -6.0 38.3 Q-4.55 34.35 -4.85 30.3 -5.05 28.1 -5.75 26.1 -7.9 20.2 -7.2 14.6 L-6.5 16.1 -6.45 16.5 -6.3 17.4 -6.2 17.75 -5.0 18.35 Q-4.7 14.1 -6.6 10.25 -6.9 9.7 -7.35 9.3 -9.4 14.05 -8.2 19.15 -6.5 26.2 -6.9 32.85 L-7.95 28.35 -9.2 27.4 -8.85 33.3 -10.5 33.5 -11.2 32.7 -10.0 9.25 -10.95 9.1 -11.7 22.9 -12.25 8.65 -12.85 8.5 -13.65 15.5 -14.1 8.2 -14.7 7.9 -14.1 29.45 -15.45 27.8 -15.6 23.85 -16.4 22.75 -16.4 21.8 -16.2 19.05 -16.15 18.9 -16.0 18.9 -15.85 18.95 -15.6 15.3 -16.4 14.6 -16.15 11.3 -15.45 11.35 -15.45 7.7 -17.05 7.25 -17.15 25.8 -17.9 25.05 -17.95 7.2 -18.4 15.5 -19.05 7.05 -19.45 6.5 -18.2 6.05 -17.1 6.0 M-18.4 24.3 L-19.05 23.7 -18.9 14.75 -18.4 24.3 M-12.1 31.7 L-13.3 30.3 -12.7 21.1 -12.3 25.6 -12.1 31.7" fill="#ffffff" fill-rule="evenodd" stroke="none"/>
    <path d="M4.1 47.2 L4.45 43.7 57.0 95.25 57.85 95.95 57.85 110.45 4.15 49.8 4.1 47.2 M57.75 23.7 L57.15 23.7 4.35 11.2 4.25 4.7 57.85 9.4 57.75 23.7 M4.2 17.6 L57.85 38.3 57.65 52.55 4.2 24.05 4.2 17.6 M4.15 30.75 L16.2 38.75 30.75 48.55 44.4 57.85 57.65 67.1 57.85 81.65 4.15 36.95 4.15 30.75" fill="url(#gradient0)" fill-rule="evenodd" stroke="none"/>
    <path d="M20.3 -26.9 L21.1 -26.1 21.3 -4.85 21.55 -4.5 22.15 -4.4 22.2 0.65 10.15 0.35 9.5 -7.2 6.65 -8.0 5.9 0.3 -6.05 0.1 -6.05 -55.65 -12.05 0.0 -17.15 0.0 -22.4 -49.05 -27.95 -0.1 -36.85 -0.35 -54.2 -114.5 -39.0 -96.7 -37.15 -80.85 -32.1 -36.3 -25.8 -81.1 -19.05 -73.25 -18.1 -64.3 -14.6 -27.85 -11.05 -63.8 3.0 -47.3 2.95 -41.35 2.9 -38.4 -1.8 -42.5 -1.8 -32.75 2.95 -29.2 2.9 -20.2 -1.75 -22.35 -1.75 -10.05 3.8 -9.1 7.05 -42.5 9.55 -37.05 12.0 -4.7 14.85 -26.9 12.3 -29.3 12.3 -36.35 16.5 -31.35 14.25 -6.25 16.4 -5.65 17.05 -5.9 17.05 -30.7 19.85 -27.4 19.45 -22.55 18.25 -23.3 18.25 -18.1 19.75 -16.75 19.45 -11.7 18.3 -11.95 18.3 -5.3 20.15 -4.9 20.3 -26.9 M9.15 -14.6 L8.05 -30.4 7.0 -15.35 9.15 -14.6" fill="url(#gradient1)" fill-rule="evenodd" stroke="none"/>
    <path d="M-16.95 2.7 L1.65 4.3 1.85 5.65 1.8 47.55 -5.5 39.25 -1.2 38.5 Q1.95 31.0 -1.1 22.6 L-2.2 19.5 0.1 19.15 0.4 18.7 Q0.7 13.5 -2.7 9.95 -3.75 8.85 -5.45 8.5 -11.5 7.6 -17.1 6.0 L-16.95 2.7" fill="url(#gradient2)" fill-rule="evenodd" stroke="none"/>
    <path d="M-19.45 6.5 L-19.05 7.05 -18.4 15.5 -17.95 7.2 -17.9 25.05 -18.4 24.3 -18.9 14.75 -19.05 23.7 -19.2 23.15 Q-19.55 14.9 -19.45 6.5 M-17.15 25.8 L-17.05 7.25 -15.45 7.7 -15.45 11.35 -16.15 11.3 -16.4 14.6 -15.6 15.3 -15.85 18.95 -16.0 18.9 -16.15 18.9 -16.2 19.05 -16.4 21.8 -16.4 22.75 -15.6 23.85 -15.45 27.8 -17.15 25.8 M-14.1 29.45 L-14.7 7.9 -14.1 8.2 -13.65 15.5 -12.85 8.5 -12.25 8.65 -11.7 22.9 -10.95 9.1 -10.0 9.25 -11.2 32.7 -12.1 31.7 -12.3 25.6 -12.7 21.1 -13.3 30.3 -14.1 29.45 M-8.85 33.3 L-9.2 27.4 -7.95 28.35 -6.9 32.85 Q-6.5 26.2 -8.2 19.15 -9.4 14.05 -7.35 9.3 -6.9 9.7 -6.6 10.25 -4.7 14.1 -5.0 18.35 L-6.2 17.75 -6.3 17.4 -6.45 16.5 -6.5 16.1 -7.2 14.6 Q-7.9 20.2 -5.75 26.1 -5.05 28.1 -4.85 30.3 -4.55 34.35 -6.0 38.3 L-6.55 38.55 -8.2 36.15 -8.85 33.3" fill="url(#gradient3)" fill-rule="evenodd" stroke="none"/>
  </g>
  <defs>
    <radialGradient cx="0" cy="0" gradientTransform="matrix(0.0788, 0.0, 0.0, 0.0499, 27.55, 7.55)" gradientUnits="userSpaceOnUse" id="gradient0" r="819.2" spreadMethod="pad">
      <stop offset="0.00392156862745098" stop-color="#826c64"/>
      <stop offset="0.10196078431372549" stop-color="#6b6361"/>
      <stop offset="1.0" stop-color="#000000"/>
    </radialGradient>
    <radialGradient cx="0" cy="0" gradientTransform="matrix(0.1353, 0.0, 0.0, 0.081, 4.05, -6.2)" gradientUnits="userSpaceOnUse" id="gradient1" r="819.2" spreadMethod="pad">
      <stop offset="0.00392156862745098" stop-color="#ffffff"/>
      <stop offset="0.25882352941176473" stop-color="#f1f1f1"/>
      <stop offset="0.8509803921568627" stop-color="#737373"/>
      <stop offset="1.0" stop-color="#373737"/>
    </radialGradient>
    <radialGradient cx="0" cy="0" gradientTransform="matrix(0.1235, 0.0, 0.0, 0.0844, 0.55, 3.35)" gradientUnits="userSpaceOnUse" id="gradient2" r="819.2" spreadMethod="pad">
      <stop offset="0.00392156862745098" stop-color="#e30202"/>
      <stop offset="0.3137254901960784" stop-color="#c80000"/>
      <stop offset="0.6980392156862745" stop-color="#800000"/>
      <stop offset="1.0" stop-color="#430101"/>
    </radialGradient>
    <linearGradient gradientTransform="matrix(0.0, 0.0173, -0.0117, 0.0, -70.8, 26.55)" gradientUnits="userSpaceOnUse" id="gradient3" spreadMethod="pad" x1="-819.2" x2="819.2">
      <stop offset="0.0" stop-color="#ffffff" stop-opacity="0.8901961"/>
      <stop offset="0.5333333333333333" stop-color="#dbcccc" stop-opacity="0.8980392"/>
      <stop offset="0.596078431372549" stop-color="#aa8888" stop-opacity="0.9019608"/>
      <stop offset="1.0" stop-color="#cebdbd" stop-opacity="0.9019608"/>
    </linearGradient>
  </defs>
</svg>
