<?xml version="1.0" encoding="UTF-8" standalone="no"?>
<svg xmlns:ffdec="https://www.free-decompiler.com/flash" xmlns:xlink="http://www.w3.org/1999/xlink" ffdec:objectType="shape" height="245.3px" width="84.3px" xmlns="http://www.w3.org/2000/svg">
  <g transform="matrix(1.0, 0.0, 0.0, 1.0, 42.0, 126.25)">
    <path d="M41.75 8.75 L41.7 25.55 23.7 26.05 42.3 39.3 41.7 55.5 31.85 55.95 42.3 68.95 41.7 85.35 35.35 85.95 41.7 115.3 3.4 119.05 -4.25 62.4 -9.0 2.45 26.9 6.6 41.75 8.75 M4.5 -66.45 L5.5 -66.0 8.0 -43.55 8.55 -43.05 10.8 0.9 -31.05 1.1 -42.0 -122.1 -2.3 -126.25 0.15 -106.75 1.4 -85.7 2.85 -85.45 4.5 -66.45" fill="#000000" fill-rule="evenodd" stroke="none"/>
  </g>
</svg>
