<?xml version="1.0" encoding="UTF-8" standalone="no"?>
<svg xmlns:ffdec="https://www.free-decompiler.com/flash" xmlns:xlink="http://www.w3.org/1999/xlink" ffdec:objectType="shape" height="37.65px" width="245.85px" xmlns="http://www.w3.org/2000/svg">
  <g transform="matrix(1.0, 0.0, 0.0, 1.0, 122.9, 16.8)">
    <path d="M36.1 -11.3 Q49.75 -5.8 49.75 2.0 49.75 9.8 36.1 15.3 22.4 20.85 3.05 20.85 -16.3 20.85 -30.0 15.3 -43.65 9.8 -43.65 2.0 -43.65 -5.8 -30.0 -11.3 -16.3 -16.8 3.05 -16.8 22.4 -16.8 36.1 -11.3" fill="url(#gradient0)" fill-rule="evenodd" stroke="none"/>
    <path d="M122.95 -0.05 Q122.95 2.1 86.95 3.65 50.95 5.15 0.05 5.15 -50.9 5.15 -86.9 3.65 -122.9 2.1 -122.9 -0.05 -122.9 -2.15 -86.9 -3.7 -50.9 -5.2 0.05 -5.2 50.95 -5.2 86.95 -3.7 122.95 -2.15 122.95 -0.05" fill="url(#gradient1)" fill-rule="evenodd" stroke="none"/>
    <path d="M54.55 -6.7 Q77.1 -3.95 77.1 0.0 77.1 3.95 54.55 6.75 32.0 9.5 0.1 9.5 -31.75 9.5 -54.3 6.75 -76.85 3.95 -76.85 0.0 -76.85 -3.95 -54.3 -6.7 -31.75 -9.5 0.1 -9.5 32.0 -9.5 54.55 -6.7" fill="url(#gradient2)" fill-rule="evenodd" stroke="none"/>
    <path d="M21.3 -10.25 Q30.1 -6.0 30.1 0.0 30.1 6.0 21.3 10.25 12.5 14.5 0.1 14.5 -12.35 14.5 -21.15 10.25 -29.95 6.0 -29.95 0.0 -29.95 -6.0 -21.15 -10.25 -12.35 -14.5 0.1 -14.5 12.5 -14.5 21.3 -10.25" fill="url(#gradient3)" fill-rule="evenodd" stroke="none"/>
    <path d="M25.55 -10.25 Q36.1 -6.0 36.1 0.0 36.1 6.0 25.55 10.25 15.0 14.5 0.1 14.5 -14.85 14.5 -25.4 10.25 -35.9 6.0 -35.9 0.0 -35.9 -6.0 -25.4 -10.25 -14.85 -14.5 0.1 -14.5 15.0 -14.5 25.55 -10.25" fill="url(#gradient4)" fill-rule="evenodd" stroke="none"/>
  </g>
  <defs>
    <radialGradient cx="0" cy="0" gradientTransform="matrix(0.0576, 0.0, 0.0, 0.0232, 3.05, 2.0)" gradientUnits="userSpaceOnUse" id="gradient0" r="819.2" spreadMethod="pad">
      <stop offset="0.0" stop-color="#b633ee" stop-opacity="0.8509804"/>
      <stop offset="1.0" stop-color="#a42ff2" stop-opacity="0.0"/>
    </radialGradient>
    <radialGradient cx="0" cy="0" gradientTransform="matrix(0.1516, 0.0, 0.0, 0.0064, 0.05, -0.05)" gradientUnits="userSpaceOnUse" id="gradient1" r="819.2" spreadMethod="pad">
      <stop offset="0.0" stop-color="#ffffff"/>
      <stop offset="1.0" stop-color="#ffffff" stop-opacity="0.0"/>
    </radialGradient>
    <radialGradient cx="0" cy="0" gradientTransform="matrix(0.0949, 0.0, 0.0, 0.0117, 0.1, 0.0)" gradientUnits="userSpaceOnUse" id="gradient2" r="819.2" spreadMethod="pad">
      <stop offset="0.0" stop-color="#ffffff"/>
      <stop offset="1.0" stop-color="#ffffff" stop-opacity="0.0"/>
    </radialGradient>
    <radialGradient cx="0" cy="0" gradientTransform="matrix(0.037, 0.0, 0.0, 0.0179, 0.1, 0.0)" gradientUnits="userSpaceOnUse" id="gradient3" r="819.2" spreadMethod="pad">
      <stop offset="0.0" stop-color="#ffffff"/>
      <stop offset="1.0" stop-color="#ffffff" stop-opacity="0.0"/>
    </radialGradient>
    <radialGradient cx="0" cy="0" gradientTransform="matrix(0.0444, 0.0, 0.0, 0.0179, 0.1, 0.0)" gradientUnits="userSpaceOnUse" id="gradient4" r="819.2" spreadMethod="pad">
      <stop offset="0.0" stop-color="#ffffff"/>
      <stop offset="1.0" stop-color="#ffffff" stop-opacity="0.0"/>
    </radialGradient>
  </defs>
</svg>
