<?xml version="1.0" encoding="UTF-8" standalone="no"?>
<svg xmlns:ffdec="https://www.free-decompiler.com/flash" xmlns:xlink="http://www.w3.org/1999/xlink" ffdec:objectType="shape" height="161.1px" width="224.5px" xmlns="http://www.w3.org/2000/svg">
  <g transform="matrix(1.0, 0.0, 0.0, 1.0, 111.75, 76.2)">
    <path d="M41.5 17.55 L41.55 21.25 34.2 23.25 18.15 27.4 18.05 22.9 41.5 17.55 M41.5 24.8 L41.55 28.35 40.55 28.85 18.75 37.0 18.1 37.15 17.9 32.6 18.8 32.1 41.5 24.8 M-28.8 27.5 L-28.65 27.55 -28.75 27.6 -28.8 27.5 M-9.95 21.65 L-9.7 22.1 -9.75 22.65 -9.95 21.65" fill="#646464" fill-rule="evenodd" stroke="none"/>
    <path d="M14.65 18.1 L14.65 19.9 14.5 22.9 13.65 21.75 12.35 20.65 8.7 18.75 8.55 17.4 14.4 17.25 14.65 18.1 M0.5 20.85 L0.65 21.0 0.5 20.95 0.5 20.85 M-11.85 36.85 L-12.0 36.8 -12.0 36.65 -11.85 36.85" fill="#990000" fill-rule="evenodd" stroke="none"/>
    <path d="M-38.85 0.6 L-36.55 0.45 -34.8 -18.05 -32.65 0.45 -29.9 0.55 -25.6 -32.2 -25.6 0.35 -10.75 0.35 -9.3 -7.3 -2.45 -7.85 -0.6 0.4 106.25 -0.1 106.4 -16.0 82.2 -14.5 82.05 -15.35 81.95 -17.15 81.9 -21.95 81.9 -26.8 81.9 -73.3 81.75 -74.65 65.4 -68.45 65.4 -13.45 42.15 -11.5 42.1 -24.95 59.6 -28.3 59.6 -40.8 42.0 -36.85 42.0 -48.0 59.6 -53.5 59.45 -66.1 31.3 -55.4 31.3 -10.55 14.7 -9.2 15.75 -12.4 17.25 -16.5 18.8 -20.7 19.9 -23.65 21.05 -26.65 22.05 -29.3 23.1 -32.0 26.05 -40.5 26.95 -43.6 27.3 -45.95 27.55 -49.7 27.55 -51.65 27.45 -53.65 6.25 -45.85 21.15 -52.0 28.7 -54.8 30.85 -54.0 31.05 -55.4 61.15 -67.45 64.35 -64.95 64.65 -68.8 83.7 -76.2 90.55 -67.15 90.55 -16.4 Q100.5 -17.65 110.05 -16.25 111.45 -16.25 112.75 -15.45 L112.75 1.1 -38.3 1.1 -38.85 0.6 M6.15 -40.25 L6.3 -36.95 17.35 -40.3 17.05 -38.7 16.7 -37.35 Q16.15 -35.2 15.1 -33.35 L9.05 -35.0 8.9 -34.55 11.55 -23.55 4.85 -5.2 -3.1 -41.85 -8.4 -40.25 -2.35 -42.75 6.15 -40.25 M-9.25 -36.55 L-14.55 -7.0 -21.7 -6.55 -21.7 -14.7 -15.85 -15.7 -15.85 -22.8 -21.7 -21.65 -21.7 -28.1 -15.85 -30.1 -15.85 -37.25 -29.1 -32.3 -14.9 -37.95 -9.25 -36.55 M-29.5 -30.5 L-31.25 -13.2 -33.35 -30.4 -35.6 -29.8 -32.7 -31.05 -29.5 -30.5 M-36.05 -28.25 L-37.7 -11.7 -39.8 -28.25 -36.05 -28.25 M52.75 -21.9 L52.75 -13.15 64.6 -14.15 64.6 -23.55 52.75 -21.9 M61.55 -42.0 L64.65 -40.5 64.65 -45.55 52.75 -42.45 52.85 -40.15 61.55 -42.0 M31.0 -20.65 L26.75 -11.0 31.0 -11.35 31.0 -20.65 M41.5 3.05 L17.95 3.8 17.95 8.5 41.45 6.65 32.65 7.65 17.25 8.65 14.65 8.7 14.55 3.75 -106.1 7.1 -106.25 84.15 -105.2 84.1 -107.25 84.9 -111.75 73.15 -111.75 5.8 0.0 3.35 5.1 3.3 17.25 3.2 23.9 3.05 24.85 3.0 Q30.95 2.7 37.0 2.85 L40.6 3.0 41.5 3.05 M14.65 11.5 L17.25 11.25 22.95 10.7 Q32.25 9.15 41.5 10.3 L18.0 13.3 18.0 17.8 22.65 17.25 38.1 14.5 41.35 14.0 31.35 16.2 Q24.35 17.75 17.25 18.05 L14.65 18.1 15.35 16.35 14.55 12.0 14.65 11.5 M14.65 19.9 L17.25 19.35 21.55 18.35 Q31.2 15.85 41.2 17.2 L41.5 17.55 18.05 22.9 18.15 27.4 34.2 23.25 34.75 23.65 40.9 24.35 41.5 24.8 18.8 32.1 17.9 32.6 18.1 37.15 14.65 36.9 14.55 33.35 15.55 28.05 15.65 28.0 Q15.85 27.8 15.55 27.6 L14.5 22.9 14.65 19.9 M-52.7 64.35 L-53.5 64.6 -53.15 64.35 -52.7 64.35 M-63.7 68.45 L-64.35 68.65 -64.1 68.45 -63.7 68.45 M-68.0 70.05 L-68.45 70.25 -68.3 70.05 -68.0 70.05 M-95.0 80.25 L-95.65 80.85 -96.8 80.95 -96.3 80.6 -95.0 80.25 M-8.55 -14.3 L-6.05 -30.9 -3.4 -15.15 -8.55 -14.3" fill="#000000" fill-rule="evenodd" stroke="none"/>
    <path d="M-18.75 12.5 L-18.8 12.55 -18.8 12.5 -18.75 12.5" fill="#fdfdfd" fill-rule="evenodd" stroke="none"/>
    <path d="M12.55 9.7 L12.5 9.55 12.45 9.55 Q5.1 9.55 4.55 17.85 4.15 24.2 9.9 26.75 13.2 28.1 11.85 31.15 11.25 32.45 9.8 32.65 L9.25 32.45 8.45 30.7 8.1 29.35 4.3 30.4 Q4.2 35.45 8.15 37.55 8.85 37.9 9.55 37.95 1.95 39.75 0.25 31.0 L0.05 29.2 7.9 28.05 7.75 27.3 Q2.4 25.55 0.65 21.0 L0.5 20.85 2.1 11.05 Q5.25 7.6 10.1 8.5 L12.2 9.05 12.5 9.55 12.75 9.8 12.55 9.7 M13.65 21.75 L8.7 18.75 12.35 20.65 13.65 21.75 M8.55 17.4 L9.05 15.7 9.35 15.15 9.95 14.55 11.1 14.6 12.4 16.95 15.35 16.35 14.65 18.1 14.4 17.25 8.55 17.4 M-7.15 16.05 L-6.45 10.35 1.9 9.75 2.1 10.2 2.05 10.65 -2.15 11.1 -4.9 32.4 -7.15 16.05 M-2.95 41.65 L-7.8 43.7 -10.95 42.7 -11.85 36.85 -12.0 36.65 -9.95 21.65 -9.75 22.65 -6.5 42.85 -2.95 41.65 M-13.35 45.2 L-18.95 47.55 -22.0 46.4 -28.45 18.35 -28.55 21.2 -37.95 22.6 -37.95 26.45 -28.55 26.25 -28.8 27.5 -28.75 27.6 -38.3 29.15 -38.3 21.75 -28.8 20.45 -28.75 13.3 -46.1 14.8 -46.1 56.45 -28.8 50.5 -28.75 43.35 -38.3 46.05 -38.3 36.8 -29.5 34.8 -28.5 34.55 -28.8 34.6 -28.75 27.6 -28.65 27.55 -28.4 27.95 -28.5 34.55 -28.55 35.2 -38.0 37.45 -38.0 42.4 -31.65 40.75 -28.65 41.85 -28.75 50.95 -47.75 57.55 -50.7 55.7 -50.7 13.4 -19.0 11.45 -18.75 12.5 -18.8 12.5 -24.9 12.95 -17.85 46.7 -13.35 45.2 M-17.7 18.2 L-16.4 10.95 -7.95 10.85 -7.9 11.5 -12.05 11.85 -15.35 31.15 -17.7 18.2 M-80.45 15.65 L-78.4 16.15 -69.8 31.75 -69.6 14.8 -55.15 14.25 -54.9 60.05 -66.05 63.55 -77.5 45.7 -77.5 67.95 -93.0 73.35 -94.85 70.8 -95.0 16.85 -94.65 16.6 -80.45 15.65 M-79.05 17.6 L-91.05 18.65 -91.05 71.9 -78.45 67.6 -79.1 33.25 -64.45 62.75 -55.5 59.7 -55.5 15.6 -65.1 16.4 -65.0 44.05 -79.05 17.6" fill="#ffffff" fill-rule="evenodd" stroke="none"/>
    <path d="M6.25 -45.85 L27.45 -53.65 27.55 -51.65 27.55 -49.7 27.3 -45.95 26.95 -43.6 26.05 -40.5 23.1 -32.0 22.05 -29.3 21.05 -26.65 19.9 -23.65 18.8 -20.7 17.25 -16.5 15.75 -12.4 14.7 -9.2 31.3 -10.55 31.3 -55.4 59.45 -66.1 59.6 -53.5 42.0 -48.0 42.0 -36.85 59.6 -40.8 59.6 -28.3 42.1 -24.95 42.15 -11.5 65.4 -13.45 65.4 -68.45 81.75 -74.65 81.9 -73.3 81.9 -26.8 81.9 -21.95 81.95 -17.15 82.05 -15.35 82.2 -14.5 106.4 -16.0 106.25 -0.1 -0.6 0.4 -2.45 -7.85 -9.3 -7.3 -10.75 0.35 -25.6 0.35 -25.6 -32.2 -29.9 0.55 -32.65 0.45 -34.8 -18.05 -36.55 0.45 -38.85 0.6 -41.9 -27.3 -39.8 -28.25 -37.7 -11.7 -36.05 -28.25 -35.6 -29.8 -33.35 -30.4 -31.25 -13.2 -29.5 -30.5 -29.1 -32.3 -15.85 -37.25 -15.85 -30.1 -21.7 -28.1 -21.7 -21.65 -15.85 -22.8 -15.85 -15.7 -21.7 -14.7 -21.7 -6.55 -14.55 -7.0 -9.25 -36.55 -8.4 -40.25 -3.1 -41.85 4.85 -5.2 11.55 -23.55 15.1 -33.35 Q16.15 -35.2 16.7 -37.35 L17.05 -38.7 17.35 -40.3 6.3 -36.95 6.15 -40.25 6.25 -45.85 M-8.55 -14.3 L-3.4 -15.15 -6.05 -30.9 -8.55 -14.3" fill="url(#gradient0)" fill-rule="evenodd" stroke="none"/>
    <path d="M41.5 3.05 L41.45 6.65 17.95 8.5 17.95 3.8 41.5 3.05 M41.5 10.3 L41.35 14.0 38.1 14.5 22.65 17.25 18.0 17.8 18.0 13.3 41.5 10.3" fill="url(#gradient1)" fill-rule="evenodd" stroke="none"/>
    <path d="M14.65 8.7 L14.65 11.5 14.55 12.0 12.75 9.8 12.5 9.55 12.2 9.05 10.1 8.5 Q5.25 7.6 2.1 11.05 L2.05 10.65 2.1 10.2 1.9 9.75 -6.45 10.35 -7.15 16.05 -7.9 11.5 -7.95 10.85 -16.4 10.95 -17.7 18.2 -18.8 12.55 -18.75 12.5 -19.0 11.45 -50.7 13.4 -50.7 55.7 -47.75 57.55 -28.75 50.95 -28.65 41.85 -31.65 40.75 -38.0 42.4 -38.0 37.45 -28.55 35.2 -28.5 34.55 -28.4 27.95 -28.65 27.55 -28.8 27.5 -28.55 26.25 -37.95 26.45 -37.95 22.6 -28.55 21.2 -28.45 18.35 -22.0 46.4 -18.95 47.55 -13.35 45.2 -12.0 36.8 -11.85 36.85 -10.95 42.7 -7.8 43.7 -2.95 41.65 0.5 20.95 0.65 21.0 Q2.4 25.55 7.75 27.3 L7.9 28.05 0.05 29.2 0.25 31.0 Q1.95 39.75 9.55 37.95 L10.95 37.5 11.85 36.75 Q13.7 35.4 14.55 33.35 L14.65 36.9 14.45 38.95 -52.7 64.35 -53.15 64.35 -53.5 64.6 -63.7 68.45 -64.1 68.45 -64.35 68.65 -68.0 70.05 -68.3 70.05 -68.45 70.25 -95.0 80.25 -96.3 80.6 -105.2 84.1 -106.25 84.15 -106.1 7.1 14.55 3.75 14.65 8.7 M-80.45 15.65 L-94.65 16.6 -95.0 16.85 -94.85 70.8 -93.0 73.35 -77.5 67.95 -77.5 45.7 -66.05 63.55 -54.9 60.05 -55.15 14.25 -69.6 14.8 -69.8 31.75 -78.4 16.15 -80.45 15.65" fill="url(#gradient2)" fill-rule="evenodd" stroke="none"/>
    <path d="M12.45 9.55 L12.55 9.7 12.75 9.8 14.55 12.0 15.35 16.35 12.4 16.95 11.1 14.6 9.95 14.55 9.35 15.15 9.05 15.7 8.55 17.4 8.7 18.75 13.65 21.75 14.5 22.9 15.55 27.6 15.55 28.05 14.55 33.35 Q13.7 35.4 11.85 36.75 L10.95 37.5 9.55 37.95 Q8.85 37.9 8.15 37.55 4.2 35.45 4.3 30.4 L8.1 29.35 8.45 30.7 9.25 32.45 9.8 32.65 Q11.25 32.45 11.85 31.15 13.2 28.1 9.9 26.75 4.15 24.2 4.55 17.85 5.1 9.55 12.45 9.55 M2.05 10.65 L2.1 11.05 0.5 20.85 0.5 20.95 -2.95 41.65 -6.5 42.85 -9.75 22.65 -9.7 22.1 -9.95 21.65 -12.0 36.65 -12.0 36.8 -13.35 45.2 -17.85 46.7 -24.9 12.95 -18.8 12.5 -18.8 12.55 -17.7 18.2 -15.35 31.15 -12.05 11.85 -7.9 11.5 -7.15 16.05 -4.9 32.4 -2.15 11.1 2.05 10.65 M-29.5 34.8 L-38.3 36.8 -38.3 46.05 -28.75 43.35 -28.8 50.5 -46.1 56.45 -46.1 14.8 -28.75 13.3 -28.8 20.45 -38.3 21.75 -38.3 29.15 -28.75 27.6 -28.8 34.6 -29.5 34.8 M-79.05 17.6 L-65.0 44.05 -65.1 16.4 -55.5 15.6 -55.5 59.7 -64.45 62.75 -79.1 33.25 -78.45 67.6 -91.05 71.9 -91.05 18.65 -79.05 17.6" fill="url(#gradient3)" fill-rule="evenodd" stroke="none"/>
  </g>
  <defs>
    <radialGradient cx="0" cy="0" gradientTransform="matrix(0.1353, 0.0, 0.0, 0.081, 4.05, -6.2)" gradientUnits="userSpaceOnUse" id="gradient0" r="819.2" spreadMethod="pad">
      <stop offset="0.00392156862745098" stop-color="#ffffff"/>
      <stop offset="0.25882352941176473" stop-color="#f1f1f1"/>
      <stop offset="0.8509803921568627" stop-color="#737373"/>
      <stop offset="1.0" stop-color="#373737"/>
    </radialGradient>
    <radialGradient cx="0" cy="0" gradientTransform="matrix(0.0788, 0.0, 0.0, 0.0499, 27.55, 7.55)" gradientUnits="userSpaceOnUse" id="gradient1" r="819.2" spreadMethod="pad">
      <stop offset="0.00392156862745098" stop-color="#826c64"/>
      <stop offset="0.10196078431372549" stop-color="#6b6361"/>
      <stop offset="1.0" stop-color="#000000"/>
    </radialGradient>
    <radialGradient cx="0" cy="0" gradientTransform="matrix(0.1235, 0.0, 0.0, 0.0844, 0.55, 3.35)" gradientUnits="userSpaceOnUse" id="gradient2" r="819.2" spreadMethod="pad">
      <stop offset="0.00392156862745098" stop-color="#e30202"/>
      <stop offset="0.3137254901960784" stop-color="#c80000"/>
      <stop offset="0.6980392156862745" stop-color="#800000"/>
      <stop offset="1.0" stop-color="#430101"/>
    </radialGradient>
    <linearGradient gradientTransform="matrix(0.0, 0.0173, -0.0117, 0.0, -70.8, 26.55)" gradientUnits="userSpaceOnUse" id="gradient3" spreadMethod="pad" x1="-819.2" x2="819.2">
      <stop offset="0.0" stop-color="#ffffff" stop-opacity="0.8901961"/>
      <stop offset="0.5333333333333333" stop-color="#dbcccc" stop-opacity="0.8980392"/>
      <stop offset="0.596078431372549" stop-color="#aa8888" stop-opacity="0.9019608"/>
      <stop offset="1.0" stop-color="#cebdbd" stop-opacity="0.9019608"/>
    </linearGradient>
  </defs>
</svg>
