<?xml version="1.0" encoding="UTF-8" standalone="no"?>
<svg xmlns:ffdec="https://www.free-decompiler.com/flash" xmlns:xlink="http://www.w3.org/1999/xlink" ffdec:objectType="shape" height="130.0px" width="1280.0px" xmlns="http://www.w3.org/2000/svg">
  <g transform="matrix(1.0, 0.0, 0.0, 1.0, 0.0, 0.0)">
    <path d="M1280.0 20.85 L1206.45 130.0 1197.45 130.0 1280.0 7.5 1280.0 20.85 M1280.0 37.15 L1217.45 130.0 1208.45 130.0 1280.0 23.8 1280.0 37.15 M1263.05 0.0 L1272.05 0.0 1184.45 130.0 1175.45 130.0 1263.05 0.0 M1280.0 4.55 L1195.45 130.0 1186.45 130.0 1274.05 0.0 1280.0 0.0 1280.0 4.55 M1219.1 0.0 L1228.1 0.0 1140.45 130.0 1131.45 130.0 1219.1 0.0 M1230.1 0.0 L1239.1 0.0 1151.45 130.0 1142.45 130.0 1230.1 0.0 M1241.1 0.0 L1250.1 0.0 1162.45 130.0 1153.45 130.0 1241.1 0.0 M1280.0 69.8 L1239.45 130.0 1230.45 130.0 1280.0 56.45 1280.0 69.8 M1280.0 86.1 L1250.45 130.0 1241.45 130.0 1280.0 72.75 1280.0 86.1 M1252.1 0.0 L1261.05 0.0 1173.45 130.0 1164.45 130.0 1252.1 0.0 M1280.0 53.5 L1228.45 130.0 1219.45 130.0 1280.0 40.15 1280.0 53.5 M1164.1 0.0 L1173.1 0.0 1085.45 130.0 1076.45 130.0 1164.1 0.0 M1153.1 0.0 L1162.1 0.0 1074.45 130.0 1065.45 130.0 1153.1 0.0 M1142.1 0.0 L1151.1 0.0 1063.45 130.0 1054.45 130.0 1142.1 0.0 M1175.1 0.0 L1184.1 0.0 1096.45 130.0 1087.45 130.0 1175.1 0.0 M1186.1 0.0 L1195.1 0.0 1107.45 130.0 1098.45 130.0 1186.1 0.0 M1197.1 0.0 L1206.1 0.0 1118.45 130.0 1109.45 130.0 1197.1 0.0 M1272.4 130.0 L1263.4 130.0 1280.0 105.35 1280.0 118.7 1272.4 130.0 M1274.4 130.0 L1280.0 121.65 1280.0 130.0 1274.4 130.0 M1261.45 130.0 L1252.45 130.0 1280.0 89.05 1280.0 102.4 1261.45 130.0 M141.85 0.0 L150.85 0.0 63.2 130.0 54.2 130.0 141.85 0.0 M130.85 0.0 L139.85 0.0 52.2 130.0 43.2 130.0 130.85 0.0 M249.8 0.0 L162.2 130.0 153.2 130.0 240.8 0.0 249.8 0.0 M239.15 130.0 L230.15 130.0 317.8 0.0 326.8 0.0 239.15 130.0 M196.8 0.0 L205.8 0.0 118.2 130.0 109.2 130.0 196.8 0.0 M174.8 0.0 L183.8 0.0 96.2 130.0 87.2 130.0 174.8 0.0 M163.85 0.0 L172.8 0.0 85.2 130.0 76.2 130.0 163.85 0.0 M185.8 0.0 L194.8 0.0 107.2 130.0 98.2 130.0 185.8 0.0 M229.8 0.0 L238.8 0.0 151.2 130.0 142.2 130.0 229.8 0.0 M218.8 0.0 L227.8 0.0 140.2 130.0 131.2 130.0 218.8 0.0 M207.8 0.0 L216.8 0.0 129.2 130.0 120.2 130.0 207.8 0.0 M273.8 0.0 L282.8 0.0 195.15 130.0 186.15 130.0 273.8 0.0 M262.8 0.0 L271.8 0.0 184.15 130.0 175.2 130.0 262.8 0.0 M251.8 0.0 L260.8 0.0 173.2 130.0 164.2 130.0 251.8 0.0 M284.8 0.0 L293.8 0.0 206.15 130.0 197.15 130.0 284.8 0.0 M295.8 0.0 L304.8 0.0 217.15 130.0 208.15 130.0 295.8 0.0 M306.8 0.0 L315.8 0.0 228.15 130.0 219.15 130.0 306.8 0.0 M404.1 130.0 L395.15 130.0 482.75 0.0 491.75 0.0 404.1 130.0 M361.8 0.0 L370.8 0.0 283.15 130.0 274.15 130.0 361.8 0.0 M328.8 0.0 L337.8 0.0 250.15 130.0 241.15 130.0 328.8 0.0 M350.8 0.0 L359.8 0.0 272.15 130.0 263.15 130.0 350.8 0.0 M339.8 0.0 L348.8 0.0 261.15 130.0 252.15 130.0 339.8 0.0 M372.8 0.0 L381.8 0.0 294.15 130.0 285.15 130.0 372.8 0.0 M394.75 0.0 L403.75 0.0 316.15 130.0 307.15 130.0 394.75 0.0 M383.8 0.0 L392.75 0.0 305.15 130.0 296.15 130.0 383.8 0.0 M438.75 0.0 L447.75 0.0 360.15 130.0 351.15 130.0 438.75 0.0 M405.75 0.0 L414.75 0.0 327.15 130.0 318.15 130.0 405.75 0.0 M427.75 0.0 L436.75 0.0 349.15 130.0 340.15 130.0 427.75 0.0 M416.75 0.0 L425.75 0.0 338.15 130.0 329.15 130.0 416.75 0.0 M449.75 0.0 L458.75 0.0 371.15 130.0 362.15 130.0 449.75 0.0 M471.75 0.0 L480.75 0.0 393.15 130.0 384.15 130.0 471.75 0.0 M460.75 0.0 L469.75 0.0 382.15 130.0 373.15 130.0 460.75 0.0 M559.75 0.0 L568.75 0.0 481.1 130.0 472.1 130.0 559.75 0.0 M560.1 130.0 L647.7 0.0 656.7 0.0 569.1 130.0 560.1 130.0 M515.75 0.0 L524.75 0.0 437.1 130.0 428.1 130.0 515.75 0.0 M504.75 0.0 L513.75 0.0 426.1 130.0 417.1 130.0 504.75 0.0 M493.75 0.0 L502.75 0.0 415.1 130.0 406.1 130.0 493.75 0.0 M526.75 0.0 L535.75 0.0 448.1 130.0 439.1 130.0 526.75 0.0 M537.75 0.0 L546.75 0.0 459.1 130.0 450.1 130.0 537.75 0.0 M548.75 0.0 L557.75 0.0 470.1 130.0 461.1 130.0 548.75 0.0 M603.7 0.0 L612.7 0.0 525.1 130.0 516.1 130.0 603.7 0.0 M570.75 0.0 L579.75 0.0 492.1 130.0 483.1 130.0 570.75 0.0 M592.75 0.0 L601.75 0.0 514.1 130.0 505.1 130.0 592.75 0.0 M581.75 0.0 L590.75 0.0 503.1 130.0 494.1 130.0 581.75 0.0 M636.7 0.0 L645.7 0.0 558.1 130.0 549.1 130.0 636.7 0.0 M625.7 0.0 L634.7 0.0 547.1 130.0 538.1 130.0 625.7 0.0 M614.7 0.0 L623.7 0.0 536.1 130.0 527.1 130.0 614.7 0.0 M724.2 0.0 L733.2 0.0 645.55 130.0 636.55 130.0 724.2 0.0 M722.55 130.0 L713.55 130.0 801.2 0.0 810.2 0.0 722.55 130.0 M680.2 0.0 L689.2 0.0 601.6 130.0 592.6 130.0 680.2 0.0 M669.2 0.0 L678.7 0.0 591.1 130.0 581.6 130.0 669.2 0.0 M658.7 0.0 L667.7 0.0 580.1 130.0 571.1 130.0 658.7 0.0 M691.2 0.0 L700.2 0.0 612.6 130.0 603.6 130.0 691.2 0.0 M702.2 0.0 L711.2 0.0 623.55 130.0 614.6 130.0 702.2 0.0 M713.2 0.0 L722.2 0.0 634.55 130.0 625.55 130.0 713.2 0.0 M768.2 0.0 L777.2 0.0 689.55 130.0 680.55 130.0 768.2 0.0 M757.2 0.0 L766.2 0.0 678.55 130.0 669.55 130.0 757.2 0.0 M746.2 0.0 L755.2 0.0 667.55 130.0 658.55 130.0 746.2 0.0 M735.2 0.0 L744.2 0.0 656.55 130.0 647.55 130.0 735.2 0.0 M790.2 0.0 L799.2 0.0 711.55 130.0 702.55 130.0 790.2 0.0 M779.2 0.0 L788.2 0.0 700.55 130.0 691.55 130.0 779.2 0.0 M889.15 0.0 L898.15 0.0 810.55 130.0 801.55 130.0 889.15 0.0 M887.5 130.0 L878.5 130.0 966.15 0.0 975.15 0.0 887.5 130.0 M845.15 0.0 L854.15 0.0 766.55 130.0 757.55 130.0 845.15 0.0 M812.2 0.0 L821.15 0.0 733.55 130.0 724.55 130.0 812.2 0.0 M823.15 0.0 L832.15 0.0 744.55 130.0 735.55 130.0 823.15 0.0 M834.15 0.0 L843.15 0.0 755.55 130.0 746.55 130.0 834.15 0.0 M878.15 0.0 L887.15 0.0 799.55 130.0 790.55 130.0 878.15 0.0 M867.15 0.0 L876.15 0.0 788.55 130.0 779.55 130.0 867.15 0.0 M856.15 0.0 L865.15 0.0 777.55 130.0 768.55 130.0 856.15 0.0 M922.15 0.0 L931.15 0.0 843.5 130.0 834.5 130.0 922.15 0.0 M911.15 0.0 L920.15 0.0 832.55 130.0 823.55 130.0 911.15 0.0 M900.15 0.0 L909.15 0.0 821.55 130.0 812.55 130.0 900.15 0.0 M933.15 0.0 L942.15 0.0 854.5 130.0 845.5 130.0 933.15 0.0 M944.15 0.0 L953.15 0.0 865.5 130.0 856.5 130.0 944.15 0.0 M955.15 0.0 L964.15 0.0 876.5 130.0 867.5 130.0 955.15 0.0 M1052.5 130.0 L1043.5 130.0 1131.1 0.0 1140.1 0.0 1052.5 130.0 M1010.15 0.0 L1019.15 0.0 931.5 130.0 922.5 130.0 1010.15 0.0 M977.15 0.0 L986.15 0.0 898.5 130.0 889.5 130.0 977.15 0.0 M988.15 0.0 L997.15 0.0 909.5 130.0 900.5 130.0 988.15 0.0 M999.15 0.0 L1008.15 0.0 920.5 130.0 911.5 130.0 999.15 0.0 M1021.15 0.0 L1030.15 0.0 942.5 130.0 933.5 130.0 1021.15 0.0 M1043.1 0.0 L1052.1 0.0 964.5 130.0 955.5 130.0 1043.1 0.0 M1032.15 0.0 L1041.1 0.0 953.5 130.0 944.5 130.0 1032.15 0.0 M1087.1 0.0 L1096.1 0.0 1008.5 130.0 999.5 130.0 1087.1 0.0 M1054.1 0.0 L1063.1 0.0 975.5 130.0 966.5 130.0 1054.1 0.0 M1065.1 0.0 L1074.1 0.0 986.5 130.0 977.5 130.0 1065.1 0.0 M1076.1 0.0 L1085.1 0.0 997.5 130.0 988.5 130.0 1076.1 0.0 M1120.1 0.0 L1129.1 0.0 1041.5 130.0 1032.5 130.0 1120.1 0.0 M1109.1 0.0 L1118.1 0.0 1030.5 130.0 1021.5 130.0 1109.1 0.0 M1098.1 0.0 L1107.1 0.0 1019.5 130.0 1010.5 130.0 1098.1 0.0 M1208.1 0.0 L1217.1 0.0 1129.45 130.0 1120.45 130.0 1208.1 0.0 M161.85 0.0 L74.2 130.0 65.2 130.0 152.85 0.0 161.85 0.0 M0.0 11.65 L0.0 0.0 7.85 0.0 0.0 11.65 M9.85 0.0 L18.85 0.0 0.0 27.95 0.0 14.6 9.85 0.0 M20.85 0.0 L29.85 0.0 0.0 44.25 0.0 30.9 20.85 0.0 M42.85 0.0 L51.85 0.0 0.0 76.9 0.0 63.6 42.85 0.0 M64.85 0.0 L73.85 0.0 0.0 109.55 0.0 96.2 64.85 0.0 M53.85 0.0 L62.85 0.0 0.0 93.2 0.0 79.9 53.85 0.0 M119.85 0.0 L128.85 0.0 41.2 130.0 32.2 130.0 119.85 0.0 M108.85 0.0 L117.85 0.0 30.2 130.0 21.2 130.0 108.85 0.0 M97.85 0.0 L106.85 0.0 19.2 130.0 10.2 130.0 97.85 0.0 M86.85 0.0 L95.85 0.0 8.2 130.0 0.0 130.0 0.0 128.8 86.85 0.0 M31.85 0.0 L40.85 0.0 0.0 60.55 0.0 47.25 31.85 0.0 M0.0 112.5 L75.85 0.0 84.85 0.0 0.0 125.85 0.0 112.5" fill="#000000" fill-rule="evenodd" stroke="none"/>
  </g>
</svg>
