<?xml version="1.0" encoding="UTF-8" standalone="no"?>
<svg xmlns:ffdec="https://www.free-decompiler.com/flash" xmlns:xlink="http://www.w3.org/1999/xlink" ffdec:objectType="shape" height="37.7px" width="411.6px" xmlns="http://www.w3.org/2000/svg">
  <g transform="matrix(1.0, 0.0, 0.0, 1.0, 0.0, 0.0)">
    <path d="M410.2 7.8 L396.95 7.8 390.95 36.7 381.25 36.7 387.25 7.8 374.0 7.8 375.4 1.0 411.6 1.0 410.2 7.8 M370.65 7.05 Q371.2 8.85 370.85 11.35 L360.1 11.35 Q360.25 9.6 359.6 8.6 358.9 7.55 357.75 7.05 356.6 6.5 355.15 6.35 L352.2 6.2 Q349.2 6.2 347.15 7.4 345.15 8.6 344.75 10.4 344.45 11.85 345.4 12.65 346.35 13.45 348.15 13.75 L359.9 15.7 Q362.25 16.1 364.2 16.8 366.15 17.5 367.45 18.65 368.7 19.8 369.2 21.5 369.75 23.25 369.25 25.7 368.75 28.2 367.35 30.4 366.0 32.55 363.5 34.15 361.0 35.8 357.25 36.75 353.45 37.7 348.2 37.7 L343.75 37.6 339.3 37.0 Q337.15 36.55 335.35 35.75 333.5 34.95 332.3 33.6 331.05 32.2 330.55 30.25 330.1 28.25 330.65 25.45 L341.55 25.45 Q341.2 27.3 341.85 28.4 342.45 29.55 343.65 30.2 344.85 30.8 346.4 31.0 L349.55 31.2 Q353.0 31.2 355.35 30.2 357.65 29.15 358.15 26.75 358.35 25.7 358.1 25.05 L357.15 23.9 Q356.45 23.45 355.4 23.15 L352.95 22.65 344.4 21.3 340.05 20.35 Q338.0 19.75 336.5 18.65 335.0 17.5 334.35 15.75 333.7 13.95 334.3 11.2 335.55 5.25 340.75 2.65 345.9 0.0 354.3 0.0 L358.2 0.15 362.15 0.7 Q364.1 1.1 365.85 1.9 367.6 2.65 368.85 3.95 370.05 5.2 370.65 7.05 M328.25 6.6 Q329.4 8.55 329.85 10.65 330.25 12.75 330.1 14.85 L329.6 18.85 328.45 22.85 Q327.7 24.95 326.4 27.05 325.1 29.15 323.15 31.1 321.2 33.0 318.45 34.5 315.65 35.95 311.95 36.8 L303.45 37.7 295.35 36.8 Q292.0 35.95 289.85 34.5 287.7 33.0 286.55 31.1 285.4 29.15 285.0 27.05 284.55 24.95 284.65 22.85 284.8 20.7 285.2 18.85 285.6 17.0 286.35 14.85 287.1 12.75 288.4 10.65 289.7 8.55 291.6 6.6 293.55 4.7 296.35 3.25 299.1 1.75 302.8 0.9 306.5 0.0 311.3 0.0 316.1 0.0 319.45 0.9 322.75 1.75 324.9 3.25 327.1 4.7 328.25 6.6 M319.6 14.65 Q319.4 12.5 318.35 10.75 317.3 9.0 315.25 7.9 313.2 6.8 309.9 6.8 306.6 6.8 304.1 7.9 301.6 9.0 299.85 10.75 298.05 12.5 297.0 14.65 295.95 16.75 295.5 18.85 295.05 20.95 295.25 23.1 295.4 25.2 296.45 26.95 297.5 28.7 299.55 29.8 301.6 30.9 304.9 30.9 308.2 30.9 310.7 29.8 313.2 28.7 314.95 26.95 316.75 25.2 317.8 23.1 318.85 20.95 319.3 18.85 319.75 16.75 319.6 14.65 M280.3 29.6 L278.85 36.7 247.4 36.7 254.8 1.0 264.5 1.0 258.55 29.6 280.3 29.6 M203.95 29.6 L225.7 29.6 224.25 36.7 192.8 36.7 200.2 1.0 209.9 1.0 203.95 29.6 M190.1 36.7 L179.65 36.7 178.25 29.35 161.85 29.35 157.45 36.7 147.0 36.7 170.1 1.0 181.8 1.0 190.1 36.7 M165.8 22.85 L177.0 22.85 174.35 8.7 165.8 22.85 M142.3 1.0 L151.7 1.0 144.3 36.7 133.75 36.7 119.45 11.8 119.35 11.8 114.2 36.7 104.8 36.7 112.2 1.0 123.45 1.0 137.0 25.9 137.1 25.9 142.3 1.0 M103.15 12.75 L92.35 12.75 Q92.15 11.0 91.4 9.85 90.6 8.7 89.55 8.05 88.45 7.4 87.15 7.1 L84.5 6.8 Q81.2 6.8 78.7 7.9 76.2 9.0 74.4 10.75 72.65 12.5 71.6 14.65 70.55 16.75 70.1 18.85 69.65 20.95 69.85 23.1 70.0 25.2 71.05 26.95 72.1 28.7 74.15 29.8 76.2 30.9 79.5 30.9 L83.35 30.5 Q85.15 30.1 86.7 29.15 88.25 28.25 89.5 26.7 90.75 25.2 91.65 23.0 L83.0 23.0 84.3 16.8 102.5 16.8 98.4 36.7 93.5 36.7 93.05 32.55 Q89.9 35.3 85.75 36.5 81.65 37.7 76.95 37.7 72.05 37.7 68.4 36.65 64.7 35.55 62.45 33.25 60.2 30.95 59.45 27.35 58.75 23.8 59.8 18.85 60.65 14.75 62.75 11.3 64.9 7.8 68.1 5.3 71.3 2.8 75.5 1.4 79.75 0.0 84.8 0.0 L91.85 0.6 Q95.25 1.2 97.8 2.7 100.3 4.15 101.8 6.6 103.25 9.05 103.15 12.75 M58.2 1.0 L50.8 36.7 41.1 36.7 48.5 1.0 58.2 1.0 M35.5 1.9 Q37.25 2.65 38.5 3.95 39.7 5.2 40.3 7.05 40.85 8.85 40.5 11.35 L29.75 11.35 Q29.9 9.6 29.25 8.6 28.55 7.55 27.4 7.05 L24.8 6.35 21.85 6.2 Q18.85 6.2 16.8 7.4 14.8 8.6 14.4 10.4 14.1 11.85 15.05 12.65 16.0 13.45 17.8 13.75 L29.55 15.7 Q31.9 16.1 33.85 16.8 35.8 17.5 37.1 18.65 38.35 19.8 38.85 21.5 39.4 23.25 38.9 25.7 38.4 28.2 37.0 30.4 35.65 32.55 33.15 34.15 30.65 35.8 26.9 36.75 23.1 37.7 17.85 37.7 L13.4 37.6 8.95 37.0 Q6.8 36.55 5.0 35.75 3.15 34.95 1.95 33.6 0.7 32.2 0.2 30.25 -0.25 28.25 0.3 25.45 L11.2 25.45 Q10.85 27.3 11.5 28.4 12.1 29.55 13.3 30.2 14.5 30.8 16.05 31.0 L19.2 31.2 Q22.65 31.2 25.0 30.2 27.3 29.15 27.8 26.75 28.0 25.7 27.75 25.05 L26.8 23.9 Q26.1 23.45 25.05 23.15 L22.6 22.65 14.05 21.3 9.7 20.35 Q7.65 19.75 6.15 18.65 4.65 17.5 4.0 15.75 3.35 13.95 3.95 11.2 5.2 5.25 10.4 2.65 15.55 0.0 23.95 0.0 L27.85 0.15 31.8 0.7 Q33.75 1.1 35.5 1.9" fill="#0133ea" fill-rule="evenodd" stroke="none"/>
  </g>
</svg>
