<?xml version="1.0" encoding="UTF-8" standalone="no"?>
<svg xmlns:ffdec="https://www.free-decompiler.com/flash" xmlns:xlink="http://www.w3.org/1999/xlink" ffdec:objectType="shape" height="37.7px" width="416.1px" xmlns="http://www.w3.org/2000/svg">
  <g transform="matrix(1.0, 0.0, 0.0, 1.0, 0.0, 0.0)">
    <path d="M414.7 7.8 L401.45 7.8 401.2 8.95 396.7 8.95 390.95 36.7 381.25 36.7 387.0 8.95 391.5 8.95 391.75 7.8 378.5 7.8 379.9 1.0 416.1 1.0 414.7 7.8 M371.0 8.95 L370.85 11.35 360.1 11.35 Q360.25 9.9 359.8 8.95 L364.3 8.95 364.1 8.6 Q363.4 7.55 362.25 7.05 L359.65 6.35 356.7 6.2 Q353.7 6.2 351.65 7.4 350.5 8.1 349.9 8.95 L345.4 8.95 Q344.9 9.6 344.75 10.4 344.45 11.85 345.4 12.65 346.35 13.45 348.15 13.75 L359.9 15.7 Q362.25 16.1 364.2 16.8 366.15 17.5 367.45 18.65 368.7 19.8 369.2 21.5 369.75 23.25 369.25 25.7 368.75 28.2 367.35 30.4 366.0 32.55 363.5 34.15 361.0 35.8 357.25 36.75 353.45 37.7 348.2 37.7 L343.75 37.6 339.3 37.0 Q337.15 36.55 335.35 35.75 333.5 34.95 332.3 33.6 331.05 32.2 330.55 30.25 330.1 28.25 330.65 25.45 L341.55 25.45 Q341.2 27.3 341.85 28.4 342.45 29.55 343.65 30.2 344.85 30.8 346.4 31.0 L349.55 31.2 Q353.0 31.2 355.35 30.2 357.65 29.15 358.15 26.75 358.35 25.7 358.1 25.05 L357.15 23.9 Q356.45 23.45 355.4 23.15 L352.95 22.65 344.4 21.3 340.05 20.35 Q338.0 19.75 336.5 18.65 335.0 17.5 334.35 15.75 333.7 13.95 334.3 11.2 334.55 10.0 334.95 8.95 L339.45 8.95 Q341.1 4.75 345.25 2.65 350.4 0.0 358.8 0.0 L362.7 0.15 366.65 0.7 Q368.6 1.1 370.35 1.9 372.1 2.65 373.35 3.95 374.55 5.2 375.15 7.05 L375.5 8.95 371.0 8.95 M329.35 8.95 L329.85 10.65 Q330.25 12.75 330.1 14.85 L329.6 18.85 328.45 22.85 Q327.7 24.95 326.4 27.05 325.1 29.15 323.15 31.1 321.2 33.0 318.45 34.5 315.65 35.95 311.95 36.8 L303.45 37.7 295.35 36.8 Q292.0 35.95 289.85 34.5 287.7 33.0 286.55 31.1 285.4 29.15 285.0 27.05 284.55 24.95 284.65 22.85 284.8 20.7 285.2 18.85 285.6 17.0 286.35 14.85 287.1 12.75 288.4 10.65 L289.6 8.95 294.1 8.95 296.1 6.6 Q298.05 4.7 300.85 3.25 303.6 1.75 307.3 0.9 311.0 0.0 315.8 0.0 320.6 0.0 323.95 0.9 327.25 1.75 329.4 3.25 331.6 4.7 332.75 6.6 L333.85 8.95 329.35 8.95 M316.8 8.95 L321.3 8.95 Q320.6 8.35 319.75 7.9 317.7 6.8 314.4 6.8 311.1 6.8 308.6 7.9 307.55 8.35 306.65 8.95 L302.15 8.95 299.85 10.75 Q298.05 12.5 297.0 14.65 295.95 16.75 295.5 18.85 295.05 20.95 295.25 23.1 295.4 25.2 296.45 26.95 297.5 28.7 299.55 29.8 301.6 30.9 304.9 30.9 308.2 30.9 310.7 29.8 313.2 28.7 314.95 26.95 316.75 25.2 317.8 23.1 318.85 20.95 319.3 18.85 319.75 16.75 319.6 14.65 319.4 12.5 318.35 10.75 L316.8 8.95 M267.35 8.95 L262.85 8.95 258.55 29.6 280.3 29.6 278.85 36.7 247.4 36.7 253.15 8.95 257.65 8.95 259.3 1.0 269.0 1.0 267.35 8.95 M208.25 8.95 L203.95 29.6 225.7 29.6 224.25 36.7 192.8 36.7 198.55 8.95 203.05 8.95 204.7 1.0 214.4 1.0 212.75 8.95 208.25 8.95 M188.15 8.95 L183.65 8.95 190.1 36.7 179.65 36.7 178.25 29.35 161.85 29.35 157.45 36.7 147.0 36.7 164.95 8.95 169.45 8.95 174.6 1.0 186.3 1.0 188.15 8.95 M178.9 8.95 L178.85 8.7 178.7 8.95 178.9 8.95 M174.2 8.95 L165.8 22.85 177.0 22.85 174.4 8.95 174.2 8.95 M154.55 8.95 L150.05 8.95 144.3 36.7 133.75 36.7 119.45 11.8 119.35 11.8 114.2 36.7 104.8 36.7 110.55 8.95 115.05 8.95 116.7 1.0 127.95 1.0 132.3 8.95 127.8 8.95 137.0 25.9 137.1 25.9 140.65 8.95 145.15 8.95 146.8 1.0 156.2 1.0 154.55 8.95 M102.8 8.95 Q103.2 10.65 103.15 12.75 L92.35 12.75 Q92.15 11.0 91.4 9.85 L90.65 8.95 95.15 8.95 94.05 8.05 Q92.95 7.4 91.65 7.1 L89.0 6.8 Q85.7 6.8 83.2 7.9 L81.2 8.95 76.7 8.95 Q75.45 9.75 74.4 10.75 72.65 12.5 71.6 14.65 70.55 16.75 70.1 18.85 69.65 20.95 69.85 23.1 70.0 25.2 71.05 26.95 72.1 28.7 74.15 29.8 76.2 30.9 79.5 30.9 L83.35 30.5 Q85.15 30.1 86.7 29.15 88.25 28.25 89.5 26.7 90.75 25.2 91.65 23.0 L83.0 23.0 84.3 16.8 102.5 16.8 98.4 36.7 93.5 36.7 93.05 32.55 Q89.9 35.3 85.75 36.5 81.65 37.7 76.95 37.7 72.05 37.7 68.4 36.65 64.7 35.55 62.45 33.25 60.2 30.95 59.45 27.35 58.75 23.8 59.8 18.85 60.65 14.75 62.75 11.3 63.5 10.05 64.4 8.95 L68.9 8.95 Q70.55 6.9 72.6 5.3 75.8 2.8 80.0 1.4 84.25 0.0 89.3 0.0 L96.35 0.6 Q99.75 1.2 102.3 2.7 104.8 4.15 106.3 6.6 106.95 7.65 107.3 8.95 L102.8 8.95 M61.05 8.95 L56.55 8.95 50.8 36.7 41.1 36.7 46.85 8.95 51.35 8.95 53.0 1.0 62.7 1.0 61.05 8.95 M40.65 8.95 L40.5 11.35 29.75 11.35 Q29.9 9.9 29.45 8.95 L33.95 8.95 33.75 8.6 Q33.05 7.55 31.9 7.05 L29.3 6.35 26.35 6.2 Q23.35 6.2 21.3 7.4 20.15 8.1 19.55 8.95 L15.05 8.95 Q14.55 9.6 14.4 10.4 14.1 11.85 15.05 12.65 16.0 13.45 17.8 13.75 L29.55 15.7 Q31.9 16.1 33.85 16.8 35.8 17.5 37.1 18.65 38.35 19.8 38.85 21.5 39.4 23.25 38.9 25.7 38.4 28.2 37.0 30.4 35.65 32.55 33.15 34.15 30.65 35.8 26.9 36.75 23.1 37.7 17.85 37.7 L13.4 37.6 8.95 37.0 Q6.8 36.55 5.0 35.75 3.15 34.95 1.95 33.6 0.7 32.2 0.2 30.25 -0.25 28.25 0.3 25.45 L11.2 25.45 Q10.85 27.3 11.5 28.4 12.1 29.55 13.3 30.2 14.5 30.8 16.05 31.0 L19.2 31.2 Q22.65 31.2 25.0 30.2 27.3 29.15 27.8 26.75 28.0 25.7 27.75 25.05 L26.8 23.9 Q26.1 23.45 25.05 23.15 L22.6 22.65 14.05 21.3 9.7 20.35 Q7.65 19.75 6.15 18.65 4.65 17.5 4.0 15.75 3.35 13.95 3.95 11.2 4.2 10.0 4.6 8.95 L9.1 8.95 Q10.75 4.75 14.9 2.65 20.05 0.0 28.45 0.0 L32.35 0.15 36.3 0.7 Q38.25 1.1 40.0 1.9 41.75 2.65 43.0 3.95 44.2 5.2 44.8 7.05 L45.15 8.95 40.65 8.95" fill="#0133ea" fill-rule="evenodd" stroke="none"/>
  </g>
</svg>
