<?xml version="1.0" encoding="UTF-8" standalone="no"?>
<svg xmlns:ffdec="https://www.free-decompiler.com/flash" xmlns:xlink="http://www.w3.org/1999/xlink" ffdec:objectType="shape" height="37.7px" width="411.6px" xmlns="http://www.w3.org/2000/svg">
  <g transform="matrix(1.0, 0.0, 0.0, 1.0, 0.0, 0.0)">
    <path d="M410.2 7.8 L396.95 7.8 395.35 15.6 400.35 15.6 398.45 24.8 393.45 24.8 390.95 36.7 381.25 36.7 383.75 24.8 388.75 24.8 390.65 15.6 385.65 15.6 387.25 7.8 374.0 7.8 375.4 1.0 411.6 1.0 410.2 7.8 M372.45 18.65 Q373.7 19.8 374.2 21.5 374.65 22.9 374.4 24.8 L369.4 24.8 369.25 25.7 Q368.75 28.2 367.35 30.4 366.0 32.55 363.5 34.15 361.0 35.8 357.25 36.75 353.45 37.7 348.2 37.7 L343.75 37.6 339.3 37.0 Q337.15 36.55 335.35 35.75 333.5 34.95 332.3 33.6 331.05 32.2 330.55 30.25 330.1 28.25 330.65 25.45 L341.55 25.45 Q341.2 27.3 341.85 28.4 342.45 29.55 343.65 30.2 344.85 30.8 346.4 31.0 L349.55 31.2 Q353.0 31.2 355.35 30.2 357.65 29.15 358.15 26.75 358.35 25.7 358.1 25.05 L358.0 24.8 363.0 24.8 362.15 23.9 Q361.45 23.45 360.4 23.15 L357.95 22.65 349.4 21.3 345.05 20.35 Q343.0 19.75 341.5 18.65 340.0 17.5 339.35 15.75 L339.3 15.6 335.05 15.6 334.6 18.85 333.45 22.85 332.65 24.8 327.65 24.8 326.4 27.05 Q325.1 29.15 323.15 31.1 321.2 33.0 318.45 34.5 315.65 35.95 311.95 36.8 L303.45 37.7 295.35 36.8 Q292.0 35.95 289.85 34.5 287.7 33.0 286.55 31.1 285.4 29.15 285.0 27.05 L284.7 24.8 289.7 24.8 289.65 22.85 Q289.8 20.7 290.2 18.85 L291.1 15.6 286.1 15.6 286.35 14.85 Q287.1 12.75 288.4 10.65 289.7 8.55 291.6 6.6 293.55 4.7 296.35 3.25 299.1 1.75 302.8 0.9 306.5 0.0 311.3 0.0 316.1 0.0 319.45 0.9 322.75 1.75 324.9 3.25 327.1 4.7 328.25 6.6 329.4 8.55 329.85 10.65 330.25 12.75 330.1 14.85 L330.05 15.6 334.3 15.6 Q333.7 13.85 334.3 11.2 335.55 5.25 340.75 2.65 345.9 0.0 354.3 0.0 L358.2 0.15 362.15 0.7 Q364.1 1.1 365.85 1.9 367.6 2.65 368.85 3.95 370.05 5.2 370.65 7.05 371.2 8.85 370.85 11.35 L360.1 11.35 Q360.25 9.6 359.6 8.6 358.9 7.55 357.75 7.05 356.6 6.5 355.15 6.35 L352.2 6.2 Q349.2 6.2 347.15 7.4 345.15 8.6 344.75 10.4 344.45 11.85 345.4 12.65 346.35 13.45 348.15 13.75 L359.3 15.6 364.3 15.6 364.9 15.7 Q367.25 16.1 369.2 16.8 371.15 17.5 372.45 18.65 M324.65 15.6 L319.65 15.6 319.6 14.65 Q319.4 12.5 318.35 10.75 317.3 9.0 315.25 7.9 313.2 6.8 309.9 6.8 306.6 6.8 304.1 7.9 301.6 9.0 299.85 10.75 298.05 12.5 297.0 14.65 L296.55 15.6 301.55 15.6 Q300.85 17.25 300.5 18.85 300.05 20.95 300.25 23.1 L300.55 24.8 295.55 24.8 Q295.85 25.95 296.45 26.95 297.5 28.7 299.55 29.8 301.6 30.9 304.9 30.9 308.2 30.9 310.7 29.8 313.2 28.7 314.95 26.95 L316.8 24.8 321.8 24.8 322.8 23.1 Q323.85 20.95 324.3 18.85 L324.65 15.6 M256.8 15.6 L251.8 15.6 254.8 1.0 264.5 1.0 261.5 15.6 266.5 15.6 264.55 24.8 259.55 24.8 258.55 29.6 280.3 29.6 278.85 36.7 247.4 36.7 249.9 24.8 254.9 24.8 256.8 15.6 M211.9 15.6 L209.95 24.8 204.95 24.8 203.95 29.6 225.7 29.6 224.25 36.7 192.8 36.7 195.3 24.8 200.3 24.8 202.2 15.6 197.2 15.6 200.2 1.0 209.9 1.0 206.9 15.6 211.9 15.6 M190.2 15.6 L192.35 24.8 187.35 24.8 190.1 36.7 179.65 36.7 178.25 29.35 161.85 29.35 157.45 36.7 147.0 36.7 154.7 24.8 159.7 24.8 165.65 15.6 160.65 15.6 170.1 1.0 181.8 1.0 185.2 15.6 190.2 15.6 M180.65 15.6 L175.65 15.6 174.35 8.7 170.2 15.6 175.2 15.6 170.8 22.85 182.0 22.85 180.65 15.6 M153.7 15.6 L151.8 24.8 146.8 24.8 144.3 36.7 133.75 36.7 126.95 24.8 131.95 24.8 126.65 15.6 123.55 15.6 121.65 24.8 116.65 24.8 114.2 36.7 104.8 36.7 107.3 24.8 112.3 24.8 114.2 15.6 109.2 15.6 112.2 1.0 123.45 1.0 131.4 15.6 136.4 15.6 141.4 24.8 142.35 24.8 144.25 15.6 139.25 15.6 142.3 1.0 151.7 1.0 148.7 15.6 153.7 15.6 M136.4 24.8 L137.0 25.9 137.1 25.9 137.35 24.8 136.4 24.8 M103.15 12.75 L92.35 12.75 Q92.15 11.0 91.4 9.85 90.6 8.7 89.55 8.05 88.45 7.4 87.15 7.1 L84.5 6.8 Q81.2 6.8 78.7 7.9 76.2 9.0 74.4 10.75 72.65 12.5 71.6 14.65 L71.15 15.6 76.15 15.6 Q75.45 17.25 75.1 18.85 74.65 20.95 74.85 23.1 L75.15 24.8 70.15 24.8 Q70.45 25.95 71.05 26.95 72.1 28.7 74.15 29.8 76.2 30.9 79.5 30.9 L83.35 30.5 Q85.15 30.1 86.7 29.15 88.25 28.25 89.5 26.7 L90.8 24.8 95.8 24.8 96.65 23.0 88.0 23.0 89.3 16.8 107.5 16.8 105.85 24.8 100.85 24.8 98.4 36.7 93.5 36.7 93.05 32.55 Q89.9 35.3 85.75 36.5 81.65 37.7 76.95 37.7 72.05 37.7 68.4 36.65 64.7 35.55 62.45 33.25 60.2 30.95 59.45 27.35 59.2 26.15 59.2 24.8 L64.2 24.8 Q64.1 22.15 64.8 18.85 L65.7 15.6 60.7 15.6 Q61.5 13.35 62.75 11.3 64.9 7.8 68.1 5.3 71.3 2.8 75.5 1.4 79.75 0.0 84.8 0.0 L91.85 0.6 Q95.25 1.2 97.8 2.7 100.3 4.15 101.8 6.6 103.25 9.05 103.15 12.75 M119.35 11.8 L118.55 15.6 121.65 15.6 119.45 11.8 119.35 11.8 M50.5 15.6 L45.5 15.6 48.5 1.0 58.2 1.0 55.2 15.6 60.2 15.6 58.3 24.8 53.3 24.8 50.8 36.7 41.1 36.7 43.6 24.8 39.05 24.8 38.9 25.7 Q38.4 28.2 37.0 30.4 35.65 32.55 33.15 34.15 30.65 35.8 26.9 36.75 23.1 37.7 17.85 37.7 L13.4 37.6 8.95 37.0 Q6.8 36.55 5.0 35.75 3.15 34.95 1.95 33.6 0.7 32.2 0.2 30.25 -0.25 28.25 0.3 25.45 L11.2 25.45 Q10.85 27.3 11.5 28.4 12.1 29.55 13.3 30.2 14.5 30.8 16.05 31.0 L19.2 31.2 Q22.65 31.2 25.0 30.2 27.3 29.15 27.8 26.75 28.0 25.7 27.75 25.05 L27.65 24.8 32.65 24.8 31.8 23.9 30.05 23.15 27.6 22.65 19.05 21.3 14.7 20.35 Q12.65 19.75 11.15 18.65 9.65 17.5 9.0 15.75 L8.95 15.6 3.95 15.6 Q3.35 13.85 3.95 11.2 5.2 5.25 10.4 2.65 15.55 0.0 23.95 0.0 L27.85 0.15 31.8 0.7 Q33.75 1.1 35.5 1.9 37.25 2.65 38.5 3.95 39.7 5.2 40.3 7.05 40.85 8.85 40.5 11.35 L29.75 11.35 Q29.9 9.6 29.25 8.6 28.55 7.55 27.4 7.05 L24.8 6.35 21.85 6.2 Q18.85 6.2 16.8 7.4 14.8 8.6 14.4 10.4 14.1 11.85 15.05 12.65 16.0 13.45 17.8 13.75 L28.95 15.6 33.95 15.6 34.55 15.7 Q36.9 16.1 38.85 16.8 40.8 17.5 42.1 18.65 43.35 19.8 43.85 21.5 44.3 22.9 44.05 24.8 L48.6 24.8 50.5 15.6" fill="#0133ea" fill-rule="evenodd" stroke="none"/>
  </g>
</svg>
