<?xml version="1.0" encoding="UTF-8" standalone="no"?>
<svg xmlns:ffdec="https://www.free-decompiler.com/flash" xmlns:xlink="http://www.w3.org/1999/xlink" ffdec:objectType="shape" height="15.35px" width="198.85px" xmlns="http://www.w3.org/2000/svg">
  <g transform="matrix(1.0, 0.0, 0.0, 1.0, -202.95, -6.55)">
    <path d="M401.8 10.9 L401.8 14.2 397.75 14.2 397.75 14.95 393.5 14.95 393.5 14.2 391.0 14.2 391.0 21.55 386.65 21.55 382.55 14.2 382.1 14.2 382.1 21.55 377.85 21.55 377.85 14.2 375.5 14.2 375.5 21.55 370.95 21.55 370.95 14.2 375.0 14.2 375.0 6.9 379.55 6.9 379.55 14.2 381.9 14.2 381.9 6.9 386.5 6.9 390.45 14.2 390.8 14.2 390.8 6.9 395.05 6.9 395.05 14.2 397.55 14.2 397.55 10.9 401.8 10.9 M386.4 14.2 L386.7 14.75 386.75 14.75 386.75 14.2 386.6 14.2 386.2 13.55 386.15 13.55 386.15 14.2 386.4 14.2 M393.5 17.5 L397.75 17.5 397.75 21.55 393.5 21.55 393.5 17.5 M366.2 11.35 L361.9 11.35 361.85 10.65 361.4 10.2 360.75 9.9 360.05 9.8 359.55 9.85 359.0 10.0 358.6 10.3 Q358.45 10.5 358.45 10.8 358.45 11.2 358.85 11.45 L359.8 11.9 361.15 12.25 362.7 12.65 364.2 13.15 365.5 13.95 365.8 14.2 361.75 14.2 362.4 15.15 Q362.75 15.85 362.75 16.85 362.75 18.3 362.15 19.25 L360.6 20.8 Q359.65 21.4 358.45 21.65 L356.0 21.9 354.95 21.85 353.6 21.55 352.15 21.0 350.85 20.1 349.9 18.65 Q349.55 17.8 349.55 16.65 L354.05 16.65 354.2 17.6 355.1 18.45 356.4 18.65 356.95 18.6 357.6 18.4 358.05 18.0 358.25 17.35 358.1 16.85 Q357.95 16.65 357.6 16.5 L356.65 16.1 355.1 15.65 353.35 15.1 351.75 14.4 351.5 14.2 355.55 14.2 354.6 13.2 Q354.15 12.5 354.15 11.4 354.15 10.15 354.65 9.2 355.15 8.3 356.0 7.7 356.8 7.1 357.9 6.85 L360.1 6.55 362.35 6.8 Q363.45 7.05 364.3 7.65 L365.65 9.1 Q366.15 10.0 366.2 11.35 M352.85 10.65 L348.75 10.65 348.75 14.2 344.7 14.2 344.7 21.55 340.2 21.55 340.2 14.2 344.25 14.2 344.25 10.65 340.15 10.65 340.15 6.9 352.85 6.9 352.85 10.65 M334.35 10.8 Q333.9 10.4 332.6 10.4 L330.5 10.4 330.5 13.3 332.85 13.3 333.5 13.25 334.15 13.05 334.65 12.65 334.8 11.85 Q334.8 11.15 334.35 10.8 M338.95 9.25 Q339.35 10.05 339.35 11.1 L339.2 12.25 338.8 13.3 338.1 14.15 338.05 14.2 334.0 14.2 333.1 14.75 Q334.0 15.1 334.55 16.05 335.1 17.05 335.25 18.4 L335.3 19.1 335.35 20.0 335.5 20.9 335.75 21.55 331.25 21.55 331.0 20.45 330.85 19.3 330.75 18.25 330.45 17.35 329.9 16.7 328.85 16.45 326.45 16.45 326.45 21.55 321.9 21.55 321.9 14.2 318.25 14.2 320.9 21.55 316.25 21.55 315.65 19.45 310.95 19.45 310.3 21.55 305.8 21.55 308.5 14.2 312.55 14.2 315.25 6.9 319.65 6.9 322.3 14.2 325.95 14.2 325.95 6.9 334.55 6.9 336.4 7.2 Q337.25 7.45 337.9 7.95 L338.95 9.25 M317.4 11.8 L316.65 14.2 318.15 14.2 317.45 11.8 317.4 11.8 M306.9 10.65 L306.9 14.2 302.85 14.2 302.85 21.55 298.35 21.55 298.35 14.2 302.4 14.2 302.4 10.65 298.3 10.65 298.3 6.9 311.0 6.9 311.0 10.65 306.9 10.65 M311.95 16.3 L314.7 16.3 314.1 14.2 312.6 14.2 311.95 16.3 M297.0 11.35 L292.7 11.35 292.65 10.65 292.2 10.2 291.55 9.9 290.85 9.8 290.35 9.85 289.8 10.0 Q289.55 10.1 289.4 10.3 289.25 10.5 289.25 10.8 289.25 11.2 289.65 11.45 L290.6 11.9 291.95 12.25 293.5 12.65 295.0 13.15 296.3 13.95 296.6 14.2 292.55 14.2 293.2 15.15 Q293.55 15.85 293.55 16.85 293.55 18.3 292.95 19.25 L291.4 20.8 Q290.45 21.4 289.25 21.65 L286.8 21.9 285.75 21.85 284.4 21.55 282.95 21.0 281.65 20.1 280.7 18.65 Q280.35 17.8 280.35 16.65 L284.85 16.65 285.0 17.6 Q285.3 18.25 285.9 18.45 L287.2 18.65 287.75 18.6 288.4 18.4 288.85 18.0 289.05 17.35 288.9 16.85 288.4 16.5 287.45 16.1 285.9 15.65 284.15 15.1 282.55 14.4 282.3 14.2 286.35 14.2 285.4 13.2 Q284.95 12.5 284.95 11.4 284.95 10.15 285.45 9.2 285.95 8.3 286.8 7.7 287.6 7.1 288.7 6.85 L290.9 6.55 293.15 6.8 Q294.25 7.05 295.1 7.65 295.9 8.2 296.45 9.1 296.95 10.0 297.0 11.35 M276.8 10.65 L272.7 10.65 272.7 14.2 268.65 14.2 268.65 21.55 264.15 21.55 264.15 14.2 268.2 14.2 268.2 10.65 264.1 10.65 264.1 6.9 276.8 6.9 276.8 10.65 M254.85 10.65 L254.85 12.5 261.75 12.5 261.75 14.2 257.7 14.2 257.7 15.95 250.8 15.95 250.8 17.8 258.6 17.8 258.6 21.55 246.25 21.55 246.25 14.2 243.9 14.2 244.55 15.15 Q244.9 15.85 244.9 16.85 244.9 18.3 244.3 19.25 L242.75 20.8 Q241.8 21.4 240.6 21.65 L238.15 21.9 237.1 21.85 235.75 21.55 234.3 21.0 Q233.6 20.65 233.0 20.1 L232.05 18.65 Q231.7 17.8 231.7 16.65 L236.2 16.65 236.35 17.6 Q236.65 18.25 237.25 18.45 L238.55 18.65 239.1 18.6 239.75 18.4 240.2 18.0 240.4 17.35 240.25 16.85 Q240.1 16.65 239.75 16.5 L238.8 16.1 237.25 15.65 235.5 15.1 Q234.6 14.85 233.9 14.4 L233.65 14.2 229.6 14.2 229.6 15.95 222.7 15.95 222.7 17.8 230.5 17.8 230.5 21.55 218.15 21.55 218.15 14.2 215.05 14.2 214.15 14.75 Q215.05 15.1 215.6 16.05 216.15 17.05 216.3 18.4 L216.35 19.1 216.4 20.0 216.55 20.9 Q216.6 21.3 216.8 21.55 L212.3 21.55 212.05 20.45 211.9 19.3 211.8 18.25 211.5 17.35 210.95 16.7 209.9 16.45 207.5 16.45 207.5 21.55 202.95 21.55 202.95 14.2 207.0 14.2 207.0 6.9 215.6 6.9 217.45 7.2 Q218.3 7.45 218.95 7.95 L220.0 9.25 Q220.4 10.05 220.4 11.1 L220.25 12.25 219.85 13.3 219.15 14.15 219.1 14.2 222.2 14.2 222.2 6.9 234.35 6.9 234.35 10.65 226.75 10.65 226.75 12.5 233.65 12.5 233.65 14.2 237.7 14.2 236.75 13.2 Q236.3 12.5 236.3 11.4 236.3 10.15 236.8 9.2 237.3 8.3 238.15 7.7 238.95 7.1 240.05 6.85 L242.25 6.55 244.5 6.8 Q245.6 7.05 246.45 7.65 247.25 8.2 247.8 9.1 248.3 10.0 248.35 11.35 L244.05 11.35 244.0 10.65 243.55 10.2 242.9 9.9 242.2 9.8 241.7 9.85 241.15 10.0 240.75 10.3 Q240.6 10.5 240.6 10.8 240.6 11.2 241.0 11.45 L241.95 11.9 243.3 12.25 244.85 12.65 246.35 13.15 Q247.1 13.45 247.65 13.95 L247.95 14.2 250.3 14.2 250.3 6.9 262.45 6.9 262.45 10.65 254.85 10.65 M213.65 10.4 L211.55 10.4 211.55 13.3 213.9 13.3 214.55 13.25 215.2 13.05 215.7 12.65 215.85 11.85 Q215.85 11.15 215.4 10.8 214.95 10.4 213.65 10.4" fill="#fecc15" fill-rule="evenodd" stroke="none"/>
  </g>
</svg>
