<?xml version="1.0" encoding="UTF-8" standalone="no"?>
<svg xmlns:ffdec="https://www.free-decompiler.com/flash" xmlns:xlink="http://www.w3.org/1999/xlink" ffdec:objectType="shape" height="15.35px" width="199.3px" xmlns="http://www.w3.org/2000/svg">
  <g transform="matrix(1.0, 0.0, 0.0, 1.0, -207.0, -6.55)">
    <path d="M406.3 14.95 L402.05 14.95 402.05 11.6 406.3 11.6 406.3 14.95 M406.3 18.05 L402.05 18.05 402.05 17.5 406.3 17.5 406.3 18.05 M399.55 11.6 L399.55 18.05 401.8 18.05 401.8 21.55 397.55 21.55 397.55 18.05 395.05 18.05 395.05 21.55 390.7 21.55 388.75 18.05 386.4 18.05 386.4 11.6 384.05 11.6 384.05 18.05 386.15 18.05 386.15 21.55 381.9 21.55 381.9 18.05 379.55 18.05 379.55 21.55 375.0 21.55 375.0 18.05 379.5 18.05 379.5 11.6 375.0 11.6 375.0 6.9 379.55 6.9 379.55 11.6 381.9 11.6 381.9 6.9 386.5 6.9 389.05 11.6 390.8 11.6 390.8 6.9 395.05 6.9 395.05 11.6 393.55 11.6 395.25 14.75 395.3 14.75 395.3 11.6 397.55 11.6 397.55 10.9 401.8 10.9 401.8 11.6 399.55 11.6 M390.7 13.55 L390.65 13.55 390.65 18.05 393.25 18.05 390.7 13.55 M366.2 11.35 L361.9 11.35 361.85 10.65 361.4 10.2 360.75 9.9 360.05 9.8 359.55 9.85 359.0 10.0 358.6 10.3 Q358.45 10.5 358.45 10.8 358.45 11.2 358.85 11.45 L359.1 11.6 363.6 11.6 364.3 11.9 365.65 12.25 367.2 12.65 368.7 13.15 370.0 13.95 370.95 15.15 Q371.3 15.85 371.3 16.85 L371.2 18.05 366.7 18.05 366.2 19.25 364.65 20.8 Q363.7 21.4 362.5 21.65 L360.05 21.9 359.0 21.85 357.65 21.55 356.2 21.0 354.9 20.1 353.95 18.65 353.75 18.05 358.25 18.05 358.1 16.65 362.6 16.65 362.75 17.6 363.05 18.05 366.55 18.05 366.6 18.0 366.8 17.35 366.65 16.85 366.15 16.5 365.2 16.1 363.65 15.65 361.9 15.1 Q361.0 14.85 360.3 14.4 359.55 13.9 359.1 13.2 358.7 12.55 358.65 11.6 L354.15 11.6 354.15 11.4 Q354.15 10.15 354.65 9.2 355.15 8.3 356.0 7.7 356.8 7.1 357.9 6.85 L360.1 6.55 362.35 6.8 Q363.45 7.05 364.3 7.65 L365.65 9.1 Q366.15 10.0 366.2 11.35 M353.25 11.6 L353.25 18.05 348.75 18.05 348.75 21.55 344.25 21.55 344.25 18.05 348.75 18.05 348.75 11.6 344.25 11.6 344.25 10.65 340.15 10.65 340.15 6.9 352.85 6.9 352.85 10.65 348.75 10.65 348.75 11.6 353.25 11.6 M362.05 18.05 L358.55 18.05 359.15 18.45 360.45 18.65 361.0 18.6 361.65 18.4 362.05 18.05 M337.9 7.95 L338.95 9.25 Q339.35 10.05 339.35 11.1 L339.35 11.6 343.85 11.6 343.7 12.25 343.3 13.3 342.6 14.15 341.65 14.75 Q342.55 15.1 343.1 16.05 343.6 16.9 343.75 18.05 L339.3 18.05 339.0 17.35 338.45 16.7 337.4 16.45 335.0 16.45 335.0 18.05 339.25 18.05 339.3 18.4 339.35 19.1 339.4 20.0 339.55 20.9 339.8 21.55 335.3 21.55 335.05 20.45 334.9 19.3 334.8 18.25 334.8 18.05 330.5 18.05 330.5 21.55 325.95 21.55 325.95 18.05 323.7 18.05 324.95 21.55 320.3 21.55 319.7 19.45 315.0 19.45 314.35 21.55 309.85 21.55 311.15 18.05 306.9 18.05 306.9 21.55 302.4 21.55 302.4 18.05 306.9 18.05 306.9 11.6 302.4 11.6 302.4 10.65 298.3 10.65 298.3 6.9 311.0 6.9 311.0 10.65 306.9 10.65 306.9 11.6 311.4 11.6 311.4 18.05 315.65 18.05 318.05 11.6 313.55 11.6 315.25 6.9 319.65 6.9 321.35 11.6 325.85 11.6 328.2 18.05 330.45 18.05 330.45 11.6 325.95 11.6 325.95 6.9 334.55 6.9 336.4 7.2 Q337.25 7.45 337.9 7.95 M334.35 10.8 Q333.9 10.4 332.6 10.4 L330.5 10.4 330.5 11.6 334.8 11.6 334.35 10.8 M339.3 11.6 L335.0 11.6 335.0 13.3 337.35 13.3 338.0 13.25 338.65 13.05 339.15 12.65 339.3 11.85 339.3 11.6 M321.9 11.8 L320.5 16.3 323.25 16.3 321.95 11.8 321.9 11.8 M296.45 12.25 L298.0 12.65 299.5 13.15 Q300.25 13.45 300.8 13.95 L301.75 15.15 Q302.1 15.85 302.1 16.85 L302.0 18.05 297.5 18.05 297.0 19.25 295.45 20.8 Q294.5 21.4 293.3 21.65 L290.85 21.9 289.8 21.85 288.45 21.55 287.0 21.0 285.7 20.1 284.75 18.65 284.55 18.05 289.05 18.05 288.9 16.65 293.4 16.65 293.55 17.6 293.85 18.05 297.35 18.05 297.4 18.0 297.6 17.35 297.45 16.85 Q297.3 16.65 296.95 16.5 L296.0 16.1 294.45 15.65 292.7 15.1 Q291.8 14.85 291.1 14.4 290.35 13.9 289.9 13.2 289.5 12.55 289.45 11.6 L284.95 11.6 284.95 11.4 Q284.95 10.15 285.45 9.2 285.95 8.3 286.8 7.7 287.6 7.1 288.7 6.85 L290.9 6.55 293.15 6.8 Q294.25 7.05 295.1 7.65 295.9 8.2 296.45 9.1 296.95 10.0 297.0 11.35 L292.7 11.35 292.65 10.65 292.2 10.2 291.55 9.9 290.85 9.8 290.35 9.85 289.8 10.0 Q289.55 10.1 289.4 10.3 289.25 10.5 289.25 10.8 289.25 11.2 289.65 11.45 L289.9 11.6 294.4 11.6 295.1 11.9 296.45 12.25 M289.95 18.45 L291.25 18.65 291.8 18.6 292.45 18.4 292.85 18.05 289.35 18.05 289.95 18.45 M276.8 10.65 L272.7 10.65 272.7 11.6 277.2 11.6 277.2 18.05 272.7 18.05 272.7 21.55 268.2 21.55 268.2 18.05 272.7 18.05 272.7 11.6 268.2 11.6 268.2 10.65 264.1 10.65 264.1 6.9 276.8 6.9 276.8 10.65 M267.15 18.05 L262.65 18.05 262.65 21.55 250.3 21.55 250.3 18.05 248.85 18.05 248.35 19.25 246.8 20.8 Q245.85 21.4 244.65 21.65 L242.2 21.9 241.15 21.85 239.8 21.55 238.35 21.0 237.05 20.1 236.1 18.65 235.9 18.05 234.55 18.05 234.55 21.55 222.2 21.55 222.2 18.05 220.35 18.05 220.05 17.35 219.5 16.7 218.45 16.45 216.05 16.45 216.05 18.05 220.3 18.05 220.35 18.4 220.4 19.1 220.45 20.0 220.6 20.9 220.85 21.55 216.35 21.55 Q216.15 21.0 216.1 20.45 L215.95 19.3 215.85 18.25 215.85 18.05 211.55 18.05 211.55 21.55 207.0 21.55 207.0 18.05 211.5 18.05 211.5 11.6 207.0 11.6 207.0 6.9 215.6 6.9 217.45 7.2 Q218.3 7.45 218.95 7.95 L220.0 9.25 Q220.4 10.05 220.4 11.1 L220.4 11.6 222.2 11.6 222.2 6.9 234.35 6.9 234.35 10.65 226.75 10.65 226.75 11.6 231.25 11.6 231.25 12.5 238.15 12.5 238.15 15.95 231.25 15.95 231.25 17.8 239.05 17.8 239.05 18.05 240.4 18.05 Q240.25 17.4 240.25 16.65 L244.75 16.65 244.9 17.6 245.2 18.05 248.7 18.05 248.75 18.0 248.95 17.35 248.8 16.85 Q248.65 16.65 248.3 16.5 L247.35 16.1 245.8 15.65 244.05 15.1 242.45 14.4 Q241.7 13.9 241.25 13.2 240.85 12.55 240.8 11.6 L236.3 11.6 236.3 11.4 Q236.3 10.15 236.8 9.2 237.3 8.3 238.15 7.7 238.95 7.1 240.05 6.85 L242.25 6.55 244.5 6.8 Q245.6 7.05 246.45 7.65 247.25 8.2 247.8 9.1 248.3 10.0 248.35 11.35 L244.05 11.35 244.0 10.65 243.55 10.2 242.9 9.9 242.2 9.8 241.7 9.85 241.15 10.0 240.75 10.3 Q240.6 10.5 240.6 10.8 240.6 11.2 241.0 11.45 L241.25 11.6 245.75 11.6 246.45 11.9 247.8 12.25 249.35 12.65 250.85 13.15 252.15 13.95 253.1 15.15 Q253.45 15.85 253.45 16.85 L253.35 18.05 254.8 18.05 254.8 11.6 250.3 11.6 250.3 6.9 262.45 6.9 262.45 10.65 254.85 10.65 254.85 11.6 259.35 11.6 259.35 12.5 266.25 12.5 266.25 15.95 259.35 15.95 259.35 17.8 267.15 17.8 267.15 18.05 M244.2 18.05 L240.7 18.05 241.3 18.45 242.6 18.65 243.15 18.6 243.8 18.4 244.2 18.05 M224.9 11.6 L224.75 12.25 224.35 13.3 223.65 14.15 Q223.25 14.55 222.7 14.75 223.6 15.1 224.15 16.05 224.65 16.9 224.8 18.05 L226.7 18.05 226.7 11.6 224.9 11.6 M215.4 10.8 Q214.95 10.4 213.65 10.4 L211.55 10.4 211.55 11.6 215.85 11.6 215.4 10.8 M220.35 11.6 L216.05 11.6 216.05 13.3 218.4 13.3 219.05 13.25 219.7 13.05 220.2 12.65 220.35 11.85 220.35 11.6" fill="#fecc15" fill-rule="evenodd" stroke="none"/>
  </g>
</svg>
