<?xml version="1.0" encoding="UTF-8" standalone="no"?>
<svg xmlns:ffdec="https://www.free-decompiler.com/flash" xmlns:xlink="http://www.w3.org/1999/xlink" ffdec:objectType="shape" height="31.2px" width="162.55px" xmlns="http://www.w3.org/2000/svg">
  <g transform="matrix(1.0, 0.0, 0.0, 1.0, -223.1, -40.55)">
    <path d="M370.6 48.3 Q370.6 50.5 372.0 51.85 373.4 53.25 375.6 53.25 377.8 53.25 379.2 51.9 380.55 50.5 380.55 48.5 380.55 46.45 379.15 45.05 377.7 43.65 375.6 43.65 373.45 43.65 372.0 45.0 370.6 46.4 370.6 48.3 M384.4 48.55 Q384.4 50.65 383.3 52.25 382.2 53.8 379.9 54.65 382.75 55.6 384.2 57.65 385.65 59.7 385.65 62.5 385.65 66.45 382.9 69.1 380.15 71.75 375.6 71.75 371.1 71.75 368.3 69.1 365.55 66.4 365.55 62.4 365.55 59.45 367.05 57.45 368.55 55.4 371.35 54.65 369.0 53.8 367.9 52.25 366.75 50.65 366.75 48.45 366.75 45.1 369.15 42.85 371.55 40.55 375.55 40.55 379.55 40.55 382.0 42.9 384.4 45.2 384.4 48.55 M347.6 45.85 Q345.7 48.65 345.7 56.2 345.7 63.7 347.45 66.2 349.2 68.7 351.8 68.7 354.35 68.7 356.15 66.2 357.9 63.7 357.9 56.2 357.9 48.65 356.15 46.15 354.35 43.65 351.75 43.65 349.15 43.65 347.6 45.85 M351.8 40.55 Q354.25 40.55 356.1 41.55 357.95 42.55 359.15 44.4 360.4 46.25 361.05 48.95 361.75 51.65 361.75 56.2 361.75 61.55 360.65 64.85 359.55 68.15 357.35 70.0 355.15 71.75 351.8 71.75 347.35 71.75 344.85 68.6 341.8 64.8 341.8 56.2 341.8 50.75 342.95 47.45 344.05 44.15 346.25 42.35 348.45 40.55 351.8 40.55 M336.35 49.1 L336.35 53.4 332.05 53.4 332.05 49.1 336.35 49.1 M325.05 64.85 Q323.95 68.15 321.75 70.0 319.55 71.75 316.2 71.75 311.75 71.75 309.25 68.6 306.2 64.8 306.2 56.2 306.2 50.75 307.35 47.45 308.45 44.15 310.65 42.35 312.85 40.55 316.2 40.55 318.65 40.55 320.5 41.55 322.35 42.55 323.55 44.4 324.8 46.25 325.45 48.95 326.15 51.65 326.15 56.2 326.15 61.55 325.05 64.85 M332.05 67.0 L336.35 67.0 336.35 71.25 332.05 71.25 332.05 67.0 M375.5 56.3 Q372.85 56.3 371.15 58.05 369.4 59.8 369.4 62.45 369.4 64.05 370.15 65.55 370.9 67.05 372.4 67.85 373.9 68.7 375.65 68.7 378.35 68.7 380.1 66.95 381.85 65.2 381.85 62.55 381.85 59.85 380.05 58.05 378.25 56.3 375.5 56.3 M292.45 40.55 Q294.9 40.55 296.75 41.55 298.6 42.55 299.8 44.4 301.05 46.25 301.7 48.95 302.4 51.65 302.4 56.2 302.4 61.55 301.3 64.85 300.2 68.15 298.0 70.0 295.8 71.75 292.45 71.75 288.0 71.75 285.5 68.6 282.45 64.8 282.45 56.2 282.45 50.75 283.6 47.45 284.7 44.15 286.9 42.35 289.1 40.55 292.45 40.55 M292.4 43.65 Q289.8 43.65 288.25 45.85 286.35 48.65 286.35 56.2 286.35 63.7 288.1 66.2 289.85 68.7 292.45 68.7 295.0 68.7 296.8 66.2 298.55 63.7 298.55 56.2 298.55 48.65 296.8 46.15 295.0 43.65 292.4 43.65 M316.15 43.65 Q313.55 43.65 312.0 45.85 310.1 48.65 310.1 56.2 310.1 63.7 311.85 66.2 313.6 68.7 316.2 68.7 318.75 68.7 320.55 66.2 322.3 63.7 322.3 56.2 322.3 48.65 320.55 46.15 318.75 43.65 316.15 43.65 M277.0 49.1 L277.0 53.4 272.7 53.4 272.7 49.1 277.0 49.1 M252.65 45.85 Q250.75 48.65 250.75 56.2 250.75 63.7 252.5 66.2 254.25 68.7 256.85 68.7 259.4 68.7 261.2 66.2 262.95 63.7 262.95 56.2 262.95 48.65 261.2 46.15 259.4 43.65 256.8 43.65 254.2 43.65 252.65 45.85 M256.85 40.55 Q259.3 40.55 261.15 41.55 263.0 42.55 264.2 44.4 265.45 46.25 266.1 48.95 266.8 51.65 266.8 56.2 266.8 61.55 265.7 64.85 264.6 68.15 262.4 70.0 260.2 71.75 256.85 71.75 252.4 71.75 249.9 68.6 246.85 64.8 246.85 56.2 246.85 50.75 248.0 47.45 249.1 44.15 251.3 42.35 253.5 40.55 256.85 40.55 M272.7 71.25 L272.7 67.0 277.0 67.0 277.0 71.25 272.7 71.25 M228.9 45.85 Q227.0 48.65 227.0 56.2 227.0 63.7 228.75 66.2 230.5 68.7 233.1 68.7 235.65 68.7 237.45 66.2 239.2 63.7 239.2 56.2 239.2 48.65 237.45 46.15 235.65 43.65 233.05 43.65 230.45 43.65 228.9 45.85 M233.1 40.55 Q235.55 40.55 237.4 41.55 239.25 42.55 240.45 44.4 241.7 46.25 242.35 48.95 243.05 51.65 243.05 56.2 243.05 61.55 241.95 64.85 240.85 68.15 238.65 70.0 236.45 71.75 233.1 71.75 228.65 71.75 226.15 68.6 223.1 64.8 223.1 56.2 223.1 50.75 224.25 47.45 225.35 44.15 227.55 42.35 229.75 40.55 233.1 40.55" fill="#fecc15" fill-rule="evenodd" stroke="none"/>
  </g>
</svg>
