<?xml version="1.0" encoding="UTF-8" standalone="no"?>
<svg xmlns:ffdec="https://www.free-decompiler.com/flash" xmlns:xlink="http://www.w3.org/1999/xlink" ffdec:objectType="shape" height="22.25px" width="230.1px" xmlns="http://www.w3.org/2000/svg">
  <g transform="matrix(1.0, 0.0, 0.0, 1.0, -3.15, -8.65)">
    <path d="M230.95 10.3 Q232.15 11.15 232.9 12.45 L233.25 13.25 230.1 13.25 Q230.45 14.25 230.45 15.55 L224.9 15.55 Q224.95 14.8 224.65 14.3 L223.85 13.55 223.3 13.25 226.45 13.25 225.85 13.1 224.6 12.95 223.7 13.05 Q223.35 13.1 223.05 13.25 L219.9 13.25 219.65 13.35 Q219.3 13.55 219.0 13.9 L218.8 14.8 Q218.8 15.4 219.3 15.8 L220.7 16.5 222.7 17.0 224.95 17.6 227.25 18.4 Q228.35 18.85 229.2 19.55 230.1 20.25 230.6 21.3 231.15 22.3 231.15 23.75 231.15 25.8 230.35 27.15 229.55 28.55 228.25 29.35 226.95 30.2 225.3 30.55 L221.85 30.9 218.35 30.5 Q216.7 30.05 215.4 29.15 214.1 28.2 213.35 26.75 212.6 25.35 212.6 23.25 L218.15 23.25 Q218.25 25.15 219.3 25.9 220.4 26.6 222.2 26.6 L223.45 26.5 224.5 26.1 225.3 25.45 225.6 24.4 Q225.6 23.7 225.05 23.25 224.55 22.8 223.7 22.45 L221.75 21.9 219.45 21.3 217.2 20.5 215.2 19.35 Q214.3 18.65 213.75 17.65 213.2 16.6 213.2 15.15 213.2 14.1 213.5 13.25 L210.75 13.25 206.0 30.45 200.45 30.45 197.5 15.75 197.45 15.75 194.5 30.45 188.85 30.45 184.25 13.25 181.5 13.25 181.5 13.55 170.1 13.55 170.1 17.3 180.55 17.3 180.55 21.6 170.1 21.6 170.1 25.65 181.85 25.65 181.85 30.45 164.5 30.45 164.5 13.25 167.65 13.25 167.65 9.1 184.65 9.1 184.65 13.25 187.4 13.25 186.25 9.1 191.8 9.1 192.6 13.25 189.45 13.25 191.7 24.7 191.75 24.7 194.05 13.25 197.2 13.25 198.05 9.1 203.25 9.1 204.1 13.25 200.95 13.25 203.25 24.7 203.3 24.7 205.55 13.25 208.7 13.25 209.5 9.1 215.05 9.1 213.9 13.25 216.65 13.25 217.15 12.15 Q217.95 10.95 219.2 10.15 220.45 9.35 222.0 9.0 L225.05 8.65 228.2 9.05 Q229.75 9.45 230.95 10.3 M163.9 13.25 L160.75 13.25 160.75 30.45 155.0 30.45 147.6 17.15 147.55 17.15 147.55 30.45 142.3 30.45 142.3 13.25 145.45 13.25 145.45 9.1 151.2 9.1 153.55 13.25 150.4 13.25 155.45 22.25 155.5 22.25 155.5 13.25 158.65 13.25 158.65 9.1 163.9 9.1 163.9 13.25 M123.45 13.25 L120.3 13.25 120.3 25.65 130.25 25.65 130.25 30.45 114.7 30.45 114.7 13.25 117.85 13.25 117.85 9.1 123.45 9.1 123.45 13.25 M111.2 13.25 L111.2 13.55 99.8 13.55 99.8 17.3 110.25 17.3 110.25 21.6 99.8 21.6 99.8 25.65 111.55 25.65 111.55 30.45 94.2 30.45 94.2 13.25 91.2 13.25 91.2 13.4 79.95 25.65 91.6 25.65 91.6 30.45 73.05 30.45 73.05 25.9 84.0 13.9 73.7 13.9 73.7 13.25 76.85 13.25 76.85 9.1 94.35 9.1 94.35 13.25 97.35 13.25 97.35 9.1 114.35 9.1 114.35 13.25 111.2 13.25 M61.85 15.0 L61.8 15.0 59.35 22.5 64.2 22.5 61.85 15.0 M69.35 13.25 L66.2 13.25 72.65 30.45 66.85 30.45 65.55 26.6 58.1 26.6 56.75 30.45 51.05 30.45 57.45 13.25 60.6 13.25 62.15 9.1 67.8 9.1 69.35 13.25 M49.7 13.25 L49.7 13.55 38.3 13.55 38.3 17.3 48.75 17.3 48.75 21.6 38.3 21.6 38.3 25.65 50.05 25.65 50.05 30.45 32.7 30.45 32.7 13.25 29.65 13.25 24.9 30.45 19.35 30.45 16.4 15.75 16.35 15.75 13.4 30.45 7.75 30.45 3.15 13.25 6.3 13.25 5.15 9.1 10.7 9.1 11.5 13.25 8.35 13.25 10.6 24.7 10.65 24.7 12.95 13.25 16.1 13.25 16.95 9.1 22.15 9.1 23.0 13.25 19.85 13.25 22.15 24.7 22.2 24.7 24.45 13.25 27.6 13.25 28.4 9.1 33.95 9.1 32.8 13.25 35.85 13.25 35.85 9.1 52.85 9.1 52.85 13.25 49.7 13.25" fill="#fecc15" fill-rule="evenodd" stroke="none"/>
  </g>
</svg>
