<?xml version="1.0" encoding="UTF-8" standalone="no"?>
<svg xmlns:ffdec="https://www.free-decompiler.com/flash" xmlns:xlink="http://www.w3.org/1999/xlink" ffdec:objectType="shape" height="715.95px" width="1280.0px" xmlns="http://www.w3.org/2000/svg">
  <g transform="matrix(1.0, 0.0, 0.0, 1.0, 0.0, 0.0)">
    <path d="M1280.0 45.5 L0.0 45.5 0.0 41.9 1280.0 41.9 1280.0 45.5 M1280.0 37.1 L0.0 37.1 0.0 33.5 1280.0 33.5 1280.0 37.1 M1280.0 28.75 L0.0 28.75 0.0 25.1 1280.0 25.1 1280.0 28.75 M1280.0 20.35 L0.0 20.35 0.0 16.75 1280.0 16.75 1280.0 20.35 M1280.0 12.0 L0.0 12.0 0.0 8.35 1280.0 8.35 1280.0 12.0 M1280.0 3.6 L0.0 3.6 0.0 0.0 1280.0 0.0 1280.0 3.6 M1280.0 70.65 L0.0 70.65 0.0 67.0 1280.0 67.0 1280.0 70.65 M1280.0 95.8 L0.0 95.8 0.0 92.15 1280.0 92.15 1280.0 95.8 M1280.0 87.4 L0.0 87.4 0.0 83.8 1280.0 83.8 1280.0 87.4 M1280.0 79.0 L0.0 79.0 0.0 75.4 1280.0 75.4 1280.0 79.0 M1280.0 62.25 L0.0 62.25 0.0 58.65 1280.0 58.65 1280.0 62.25 M1280.0 53.9 L0.0 53.9 0.0 50.25 1280.0 50.25 1280.0 53.9 M1280.0 120.95 L0.0 120.95 0.0 117.3 1280.0 117.3 1280.0 120.95 M1280.0 146.05 L0.0 146.05 0.0 142.45 1280.0 142.45 1280.0 146.05 M1280.0 137.7 L0.0 137.7 0.0 134.05 1280.0 134.05 1280.0 137.7 M1280.0 129.3 L0.0 129.3 0.0 125.7 1280.0 125.7 1280.0 129.3 M1280.0 112.55 L0.0 112.55 0.0 108.95 1280.0 108.95 1280.0 112.55 M1280.0 104.15 L0.0 104.15 0.0 100.55 1280.0 100.55 1280.0 104.15 M1280.0 171.2 L0.0 171.2 0.0 167.6 1280.0 167.6 1280.0 171.2 M1280.0 196.35 L0.0 196.35 0.0 192.75 1280.0 192.75 1280.0 196.35 M1280.0 187.95 L0.0 187.95 0.0 184.35 1280.0 184.35 1280.0 187.95 M1280.0 179.6 L0.0 179.6 0.0 175.95 1280.0 175.95 1280.0 179.6 M1280.0 162.85 L0.0 162.85 0.0 159.2 1280.0 159.2 1280.0 162.85 M1280.0 154.45 L0.0 154.45 0.0 150.85 1280.0 150.85 1280.0 154.45 M1280.0 221.5 L0.0 221.5 0.0 217.9 1280.0 217.9 1280.0 221.5 M1280.0 246.65 L0.0 246.65 0.0 243.0 1280.0 243.0 1280.0 246.65 M1280.0 238.25 L0.0 238.25 0.0 234.65 1280.0 234.65 1280.0 238.25 M1280.0 229.9 L0.0 229.9 0.0 226.25 1280.0 226.25 1280.0 229.9 M1280.0 213.1 L0.0 213.1 0.0 209.5 1280.0 209.5 1280.0 213.1 M1280.0 204.75 L0.0 204.75 0.0 201.1 1280.0 201.1 1280.0 204.75 M1280.0 271.8 L0.0 271.8 0.0 268.15 1280.0 268.15 1280.0 271.8 M1280.0 296.9 L0.0 296.9 0.0 293.3 1280.0 293.3 1280.0 296.9 M1280.0 288.55 L0.0 288.55 0.0 284.9 1280.0 284.9 1280.0 288.55 M1280.0 280.15 L0.0 280.15 0.0 276.55 1280.0 276.55 1280.0 280.15 M1280.0 263.4 L0.0 263.4 0.0 259.8 1280.0 259.8 1280.0 263.4 M1280.0 255.0 L0.0 255.0 0.0 251.4 1280.0 251.4 1280.0 255.0 M1280.0 322.05 L0.0 322.05 0.0 318.45 1280.0 318.45 1280.0 322.05 M1280.0 330.45 L0.0 330.45 0.0 326.85 1280.0 326.85 1280.0 330.45 M1280.0 338.85 L0.0 338.85 0.0 335.2 1280.0 335.2 1280.0 338.85 M1280.0 313.7 L0.0 313.7 0.0 310.05 1280.0 310.05 1280.0 313.7 M1280.0 305.3 L0.0 305.3 0.0 301.7 1280.0 301.7 1280.0 305.3 M1280.0 372.35 L0.0 372.35 0.0 368.75 1280.0 368.75 1280.0 372.35 M1280.0 380.75 L0.0 380.75 0.0 377.1 1280.0 377.1 1280.0 380.75 M1280.0 389.1 L0.0 389.1 0.0 385.5 1280.0 385.5 1280.0 389.1 M1280.0 355.6 L0.0 355.6 0.0 351.95 1280.0 351.95 1280.0 355.6 M1280.0 363.95 L0.0 363.95 0.0 360.35 1280.0 360.35 1280.0 363.95 M1280.0 347.2 L0.0 347.2 0.0 343.6 1280.0 343.6 1280.0 347.2 M1280.0 422.65 L0.0 422.65 0.0 419.0 1280.0 419.0 1280.0 422.65 M1280.0 431.0 L0.0 431.0 0.0 427.4 1280.0 427.4 1280.0 431.0 M1280.0 439.4 L0.0 439.4 0.0 435.8 1280.0 435.8 1280.0 439.4 M1280.0 405.9 L0.0 405.9 0.0 402.25 1280.0 402.25 1280.0 405.9 M1280.0 414.25 L0.0 414.25 0.0 410.65 1280.0 410.65 1280.0 414.25 M1280.0 472.9 L0.0 472.9 0.0 469.3 1280.0 469.3 1280.0 472.9 M1280.0 481.3 L0.0 481.3 0.0 477.7 1280.0 477.7 1280.0 481.3 M1280.0 489.7 L0.0 489.7 0.0 486.05 1280.0 486.05 1280.0 489.7 M1280.0 456.15 L0.0 456.15 0.0 452.55 1280.0 452.55 1280.0 456.15 M1280.0 464.55 L0.0 464.55 0.0 460.9 1280.0 460.9 1280.0 464.55 M1280.0 447.8 L0.0 447.8 0.0 444.15 1280.0 444.15 1280.0 447.8 M1280.0 523.2 L0.0 523.2 0.0 519.6 1280.0 519.6 1280.0 523.2 M1280.0 531.6 L0.0 531.6 0.0 527.95 1280.0 527.95 1280.0 531.6 M1280.0 539.95 L0.0 539.95 0.0 536.35 1280.0 536.35 1280.0 539.95 M1280.0 506.45 L0.0 506.45 0.0 502.85 1280.0 502.85 1280.0 506.45 M1280.0 514.85 L0.0 514.85 0.0 511.2 1280.0 511.2 1280.0 514.85 M1280.0 573.5 L0.0 573.5 0.0 569.85 1280.0 569.85 1280.0 573.5 M1280.0 581.85 L0.0 581.85 0.0 578.25 1280.0 578.25 1280.0 581.85 M1280.0 590.25 L0.0 590.25 0.0 586.65 1280.0 586.65 1280.0 590.25 M1280.0 548.35 L0.0 548.35 0.0 544.75 1280.0 544.75 1280.0 548.35 M1280.0 556.75 L0.0 556.75 0.0 553.1 1280.0 553.1 1280.0 556.75 M1280.0 565.1 L0.0 565.1 0.0 561.5 1280.0 561.5 1280.0 565.1 M1280.0 498.05 L0.0 498.05 0.0 494.45 1280.0 494.45 1280.0 498.05 M1280.0 615.4 L0.0 615.4 0.0 611.8 1280.0 611.8 1280.0 615.4 M1280.0 640.55 L0.0 640.55 0.0 636.9 1280.0 636.9 1280.0 640.55 M1280.0 623.8 L0.0 623.8 0.0 620.15 1280.0 620.15 1280.0 623.8 M1280.0 632.15 L0.0 632.15 0.0 628.55 1280.0 628.55 1280.0 632.15 M1280.0 598.65 L0.0 598.65 0.0 595.0 1280.0 595.0 1280.0 598.65 M1280.0 607.0 L0.0 607.0 0.0 603.4 1280.0 603.4 1280.0 607.0 M1280.0 665.7 L0.0 665.7 0.0 662.05 1280.0 662.05 1280.0 665.7 M1280.0 674.05 L0.0 674.05 0.0 670.45 1280.0 670.45 1280.0 674.05 M1280.0 682.45 L0.0 682.45 0.0 678.8 1280.0 678.8 1280.0 682.45 M1280.0 690.8 L0.0 690.8 0.0 687.2 1280.0 687.2 1280.0 690.8 M1280.0 648.9 L0.0 648.9 0.0 645.3 1280.0 645.3 1280.0 648.9 M1280.0 657.3 L0.0 657.3 0.0 653.7 1280.0 653.7 1280.0 657.3 M1280.0 715.95 L0.0 715.95 0.0 712.35 1280.0 712.35 1280.0 715.95 M1280.0 699.2 L0.0 699.2 0.0 695.6 1280.0 695.6 1280.0 699.2 M1280.0 707.6 L0.0 707.6 0.0 703.95 1280.0 703.95 1280.0 707.6 M1280.0 397.5 L0.0 397.5 0.0 393.9 1280.0 393.9 1280.0 397.5" fill="#00014e" fill-rule="evenodd" stroke="none"/>
  </g>
</svg>
