<?xml version="1.0" encoding="UTF-8" standalone="no"?>
<svg xmlns:ffdec="https://www.free-decompiler.com/flash" xmlns:xlink="http://www.w3.org/1999/xlink" ffdec:objectType="shape" height="83.5px" width="139.5px" xmlns="http://www.w3.org/2000/svg">
  <g transform="matrix(1.0, 0.0, 0.0, 1.0, 60.2, 33.35)">
    <path d="M-59.7 -26.35 L13.8 -26.35 13.8 -33.35 22.8 -33.35 22.8 -26.35 69.3 -26.35 69.3 -8.35 Q73.3 -5.35 76.8 -2.35 L79.3 -1.85 79.3 -0.85 Q78.3 -0.35 76.8 0.15 L69.3 5.15 69.3 20.15 66.3 20.15 66.3 25.15 24.8 25.15 24.8 48.65 28.3 48.65 28.3 50.15 -43.2 50.15 -43.2 25.15 -59.7 25.15 -59.7 21.65 -60.2 21.65 -60.2 20.15 -59.7 20.15 -59.7 -21.85 -60.2 -21.85 -60.2 -23.35 -59.7 -23.35 -59.7 -26.35 M74.3 -2.85 L69.3 -5.85 69.3 3.65 74.3 0.65 74.3 -2.85" fill="#424242" fill-rule="evenodd" stroke="none"/>
    <path d="M-41.2 48.65 L-41.2 25.15 24.8 25.15 24.8 48.65 -41.2 48.65" fill="#6f6f6f" fill-rule="evenodd" stroke="none"/>
    <path d="M2.3 -24.35 L64.8 -24.35 64.8 -22.35 68.3 -22.35 68.3 19.15 64.8 19.15 64.8 22.65 -1.2 22.65 -1.2 25.15 -15.2 25.15 -15.2 22.65 -29.7 22.65 -29.7 10.65 -30.7 10.65 -30.7 22.65 -57.7 22.65 -57.7 -24.35 -30.7 -24.35 -30.7 -2.35 -29.7 -2.35 -29.7 -10.35 -15.7 -10.35 -15.7 -11.85 -29.7 -11.85 -29.7 -24.35 0.3 -24.35 0.3 -11.85 -2.7 -11.85 -2.7 -10.35 2.3 -10.35 2.3 -24.35" fill="#959595" fill-rule="evenodd" stroke="none"/>
    <path d="M-1.2 25.15 L-15.2 25.15 -15.2 22.65 -1.2 22.65 -1.2 25.15" fill="#ffffff" fill-rule="evenodd" stroke="none"/>
    <path d="M30.3 2.15 L35.3 2.15 35.8 3.65 35.8 22.65 1.3 22.65 1.3 17.15 2.3 14.65 29.3 14.65 29.3 3.65 30.3 2.15" fill="#6f6f6f" fill-rule="evenodd" stroke="none"/>
    <path d="M58.8 5.65 L64.8 5.65 64.8 22.65 58.8 22.65 58.8 5.65" fill="#6f6f6f" fill-rule="evenodd" stroke="none"/>
    <path d="M14.3 -14.85 L14.3 -24.35 38.8 -24.35 38.8 -14.85 14.3 -14.85" fill="#6f6f6f" fill-rule="evenodd" stroke="none"/>
    <path d="M12.8 -24.35 L12.8 -15.35 3.3 -15.35 3.3 -24.35 12.8 -24.35" fill="#6f6f6f" fill-rule="evenodd" stroke="none"/>
    <path d="M-29.7 -9.85 L-23.7 -9.85 -23.7 -3.85 -29.7 -3.85 -29.7 -9.85" fill="#6f6f6f" fill-rule="evenodd" stroke="none"/>
    <path d="M-29.7 22.65 L-29.7 12.65 -23.7 12.65 -23.7 22.65 -29.7 22.65" fill="#6f6f6f" fill-rule="evenodd" stroke="none"/>
    <path d="M-43.2 22.65 L-43.2 16.15 -32.2 16.15 -32.2 22.65 -43.2 22.65" fill="#6f6f6f" fill-rule="evenodd" stroke="none"/>
    <path d="M-57.7 22.65 L-57.7 7.65 -51.7 7.65 -51.7 22.65 -57.7 22.65" fill="#6f6f6f" fill-rule="evenodd" stroke="none"/>
    <path d="M-57.7 -24.35 L-37.7 -24.35 -37.7 1.15 -57.7 1.15 -57.7 -24.35" fill="#6f6f6f" fill-rule="evenodd" stroke="none"/>
    <path d="M-33.2 -23.85 L-33.2 -19.35 -37.7 -19.35 -37.7 -23.85 -33.2 -23.85" fill="#6f6f6f" fill-rule="evenodd" stroke="none"/>
    <path d="M-1.7 -24.35 L0.3 -24.35 0.3 -11.85 -1.7 -11.85 -1.7 -15.85 Q-2.2 -15.35 -2.7 -15.35 L-4.7 -15.35 Q-5.2 -15.85 -6.2 -16.35 -6.2 -16.85 -6.7 -17.85 -6.2 -18.35 -6.2 -19.35 L-4.2 -20.35 -2.2 -20.35 -1.7 -19.85 -1.7 -24.35" fill="#6f6f6f" fill-rule="evenodd" stroke="none"/>
    <path d="M-15.2 -21.35 L-15.2 -24.35 -10.2 -24.35 -10.2 -21.35 -15.2 -21.35" fill="#6f6f6f" fill-rule="evenodd" stroke="none"/>
    <path d="M46.3 -7.35 L44.3 -10.35 Q44.3 -12.35 43.8 -14.35 L44.8 -17.85 47.3 -20.85 50.8 -22.85 54.8 -22.85 Q56.8 -21.85 58.3 -21.35 L60.8 -18.85 Q61.8 -16.85 62.3 -14.85 62.3 -12.85 61.8 -11.35 61.3 -9.35 60.3 -7.85 58.8 -6.35 57.3 -5.35 L53.3 -4.35 49.8 -4.85 46.3 -7.35" fill="#6f6f6f" fill-rule="evenodd" stroke="none"/>
  </g>
</svg>
