<?xml version="1.0" encoding="UTF-8" standalone="no"?>
<svg xmlns:ffdec="https://www.free-decompiler.com/flash" xmlns:xlink="http://www.w3.org/1999/xlink" ffdec:objectType="shape" height="416.0px" width="631.0px" xmlns="http://www.w3.org/2000/svg">
  <g transform="matrix(1.0, 0.0, 0.0, 1.0, 445.95, 257.3)">
    <path d="M185.05 158.7 L-445.95 158.7 -445.95 -257.3 185.05 -257.3 185.05 158.7" fill="#434343" fill-rule="evenodd" stroke="none"/>
    <path d="M0.2 83.1 L0.2 40.65 -19.35 40.65 -19.35 83.1 0.2 83.1 M-282.0 -247.35 L-123.6 -247.35 -123.6 -192.0 -113.35 -192.0 -113.35 -157.0 -123.7 -157.0 -123.7 -126.7 -197.35 -126.7 -197.35 -138.0 -201.0 -138.0 -201.0 -124.35 -206.35 -124.35 -206.35 -121.7 -198.35 -121.7 -198.35 -60.7 -76.9 -60.7 -76.9 -58.0 4.65 -58.0 4.65 -114.65 110.0 -114.65 110.0 -129.15 177.55 -129.15 177.55 148.4 1.1 148.4 1.1 144.0 -198.0 144.0 -198.0 60.0 -242.0 60.0 -242.0 134.65 -255.0 134.65 -255.0 148.3 -345.0 148.3 -345.0 90.0 -322.0 90.0 -322.0 -41.0 -241.35 -41.0 -241.35 -121.7 -233.0 -121.7 -233.0 -124.35 -238.35 -124.35 -238.35 -131.35 -282.0 -131.35 -282.0 -247.35" fill="#969696" fill-rule="evenodd" stroke="none"/>
    <path d="M-367.7 -1.35 L-367.7 5.0 -348.25 5.0 -348.25 149.65 -418.7 149.65 -418.7 63.65 -420.35 63.65 -420.35 60.0 -422.7 60.0 -422.7 35.0 -420.35 35.0 -420.35 31.65 -418.7 31.65 -418.7 5.0 -399.7 5.0 -399.7 -1.35 -367.7 -1.35" fill="#707070" fill-rule="evenodd" stroke="none"/>
    <path d="M-174.4 -11.8 L-173.65 -14.5 -172.4 -17.1 -170.7 -19.35 -168.6 -21.3 -166.25 -22.9 -163.6 -24.0 -160.85 -24.6 -114.7 -24.6 -111.9 -24.0 -109.3 -22.9 -106.9 -21.3 -104.85 -19.35 -103.15 -17.1 -101.9 -14.5 -101.1 -11.8 -100.85 -8.95 -101.05 -6.1 -101.8 -3.35 -103.0 -0.8 -104.65 1.55 -106.7 3.5 -109.1 5.1 -111.7 6.25 -114.45 6.9 -161.05 6.9 -163.85 6.25 -166.45 5.1 -168.8 3.5 -170.85 1.55 -172.5 -0.8 -173.75 -3.35 -174.45 -6.1 -174.7 -8.95 -174.4 -11.8" fill="#707070" fill-rule="evenodd" stroke="none"/>
    <path d="M38.65 29.0 L38.65 5.65 122.3 5.65 122.3 94.0 98.65 94.0 98.65 29.0 38.65 29.0" fill="#707070" fill-rule="evenodd" stroke="none"/>
    <path d="M86.2 41.1 L86.2 74.4 52.2 74.4 52.2 41.1 86.2 41.1" fill="#707070" fill-rule="evenodd" stroke="none"/>
    <path d="M28.65 122.65 L16.85 132.85 -1.5 113.5 10.3 103.3 28.65 122.65" fill="#707070" fill-rule="evenodd" stroke="none"/>
    <path d="M43.55 148.4 L43.55 134.2 99.3 134.2 99.3 148.4 43.55 148.4" fill="#707070" fill-rule="evenodd" stroke="none"/>
    <path d="M-159.0 97.0 L-159.0 67.0 -77.35 67.0 -77.35 97.0 -159.0 97.0" fill="#707070" fill-rule="evenodd" stroke="none"/>
    <path d="M-307.0 -29.25 L-307.0 -41.0 -255.95 -41.0 -255.95 -29.25 -307.0 -29.25" fill="#707070" fill-rule="evenodd" stroke="none"/>
    <path d="M-197.7 143.65 L-197.7 122.65 -46.35 122.65 -46.35 143.65 -197.7 143.65" fill="#707070" fill-rule="evenodd" stroke="none"/>
    <path d="M-11.15 35.3 L-11.15 25.3 -1.15 25.3 -1.15 35.3 -11.15 35.3" fill="#707070" fill-rule="evenodd" stroke="none"/>
    <path d="M-15.8 -40.9 L-15.8 -50.9 -5.8 -50.9 -5.8 -40.9 -15.8 -40.9" fill="#707070" fill-rule="evenodd" stroke="none"/>
    <path d="M53.6 -39.95 L53.9 -54.4 70.8 -54.1 70.5 -39.65 53.6 -39.95" fill="#707070" fill-rule="evenodd" stroke="none"/>
    <path d="M1.65 35.15 L10.9 31.35 14.75 40.55 5.5 44.4 1.65 35.15" fill="#707070" fill-rule="evenodd" stroke="none"/>
    <path d="M139.4 132.4 L149.4 132.4 149.4 142.4 139.4 142.4 139.4 132.4" fill="#707070" fill-rule="evenodd" stroke="none"/>
    <path d="M106.2 137.45 L111.4 136.95 111.95 142.5 106.75 143.0 106.2 137.45" fill="#707070" fill-rule="evenodd" stroke="none"/>
    <path d="M35.4 138.65 L35.1 144.2 29.9 143.95 30.2 138.4 35.4 138.65" fill="#707070" fill-rule="evenodd" stroke="none"/>
    <path d="M-18.0 83.1 L-8.35 83.1 -8.35 144.3 -18.0 144.3 -18.0 83.1" fill="#707070" fill-rule="evenodd" stroke="none"/>
    <path d="M16.35 131.2 L18.6 134.6 18.65 138.7 16.5 142.2 12.8 143.95 8.75 143.4 5.6 140.75 4.4 136.85 5.5 132.9 8.55 130.2 12.6 129.55 16.35 131.2" fill="#707070" fill-rule="evenodd" stroke="none"/>
    <path d="M25.65 132.8 L27.3 135.25 27.3 138.2 25.75 140.65 23.1 141.95 20.2 141.55 17.95 139.65 17.05 136.85 17.85 134.0 20.05 132.05 22.95 131.6 25.65 132.8" fill="#707070" fill-rule="evenodd" stroke="none"/>
    <path d="M49.2 -51.2 L50.85 -48.75 50.85 -45.8 49.3 -43.35 46.65 -42.05 43.75 -42.45 41.5 -44.35 40.6 -47.15 41.4 -50.0 43.6 -51.95 46.5 -52.4 49.2 -51.2" fill="#707070" fill-rule="evenodd" stroke="none"/>
    <path d="M153.35 -26.5 L154.5 -30.95 172.45 -26.25 171.3 -21.8 153.35 -26.5" fill="#707070" fill-rule="evenodd" stroke="none"/>
    <path d="M-312.0 -24.1 L-314.5 -23.55 -316.95 -24.4 -318.65 -26.3 -319.2 -28.8 -318.35 -31.25 -316.45 -32.95 -313.9 -33.5 -311.5 -32.65 -309.75 -30.75 -309.25 -28.25 -310.05 -25.8 -312.0 -24.1" fill="#707070" fill-rule="evenodd" stroke="none"/>
    <path d="M-123.7 -147.8 L-123.7 -126.7 -197.35 -126.7 -197.35 -139.35 -148.0 -139.35 -148.0 -147.8 -123.7 -147.8" fill="#707070" fill-rule="evenodd" stroke="none"/>
    <path d="M-126.25 -192.0 L-113.35 -192.0 -113.35 -157.0 -126.25 -157.0 -126.25 -192.0" fill="#707070" fill-rule="evenodd" stroke="none"/>
    <path d="M-137.8 -240.9 L-123.6 -240.9 -123.6 -204.45 -137.8 -204.45 -137.8 -240.9" fill="#707070" fill-rule="evenodd" stroke="none"/>
    <path d="M-236.25 -247.35 L-236.25 -227.6 -261.35 -227.6 -261.35 -131.35 -282.0 -131.35 -282.0 -247.35 -236.25 -247.35" fill="#707070" fill-rule="evenodd" stroke="none"/>
    <path d="M-138.5 -198.15 L-136.75 -197.6 -135.6 -196.25 -135.2 -194.5 -135.8 -192.75 -137.15 -191.6 -138.9 -191.2 -140.6 -191.8 -141.8 -193.15 -142.15 -194.9 -141.6 -196.6 -140.25 -197.8 -138.5 -198.15" fill="#707070" fill-rule="evenodd" stroke="none"/>
    <path d="M162.75 -121.45 Q163.8 -121.0 164.8 -120.6 L166.5 -119.2 167.65 -117.3 168.2 -115.15 168.0 -112.95 167.2 -110.9 165.75 -109.25 163.9 -108.05 161.75 -107.55 159.55 -107.7 157.5 -108.5 155.8 -109.95 154.65 -111.8 154.1 -113.95 154.25 -116.15 155.1 -118.2 156.5 -119.9 158.4 -121.05 160.55 -121.6 162.75 -121.45" fill="#707070" fill-rule="evenodd" stroke="none"/>
    <path d="M-3.2 -56.85 L39.15 -56.85 39.15 -45.0 -3.2 -45.0 -3.2 -56.85" fill="#707070" fill-rule="evenodd" stroke="none"/>
    <path d="M-19.35 17.5 L-16.95 17.5 -16.95 40.65 -19.35 40.65 -19.35 17.5" fill="#707070" fill-rule="evenodd" stroke="none"/>
    <path d="M-349.8 135.75 L-349.8 102.85 -344.25 102.85 -344.25 135.75 -349.8 135.75" fill="#ffffff" fill-rule="evenodd" stroke="none"/>
    <path d="M4.65 -58.0 L4.65 -114.65 98.4 -114.65 98.4 -58.0 4.65 -58.0" fill="#ffffff" fill-rule="evenodd" stroke="none"/>
  </g>
</svg>
