<?xml version="1.0" encoding="UTF-8" standalone="no"?>
<svg xmlns:ffdec="https://www.free-decompiler.com/flash" xmlns:xlink="http://www.w3.org/1999/xlink" ffdec:objectType="shape" height="96.8px" width="85.5px" xmlns="http://www.w3.org/2000/svg">
  <g transform="matrix(1.0, 0.0, 0.0, 1.0, -111.25, 3.2)">
    <path d="M179.75 33.85 Q172.15 26.05 166.95 21.65 157.4 13.5 151.75 14.75 141.2 18.8 135.6 24.3 133.55 26.35 130.85 29.8 L125.75 36.35 Q120.4 43.0 119.3 47.3 118.75 49.45 118.75 58.1 118.75 59.0 120.15 62.85 122.05 68.0 124.75 72.35 133.15 85.85 145.75 85.85 177.4 85.85 186.55 70.65 191.05 63.1 189.25 56.0 189.25 47.8 188.55 45.6 186.95 40.35 179.75 33.85 M192.75 75.6 Q183.8 93.6 158.0 93.6 138.7 93.6 125.0 83.4 111.25 73.1 111.25 58.6 111.25 44.05 117.6 35.15 123.45 26.9 145.5 9.25 143.6 8.1 135.4 7.15 L115.0 4.75 112.2 2.65 Q111.25 1.95 111.25 1.25 111.25 -4.75 124.6 -2.7 137.7 -0.7 154.0 7.45 172.05 16.45 183.4 28.1 196.75 41.85 196.75 55.75 196.75 67.6 192.75 75.6" fill="#ff0000" fill-opacity="0.8" fill-rule="evenodd" stroke="none"/>
  </g>
</svg>
