<?xml version="1.0" encoding="UTF-8" standalone="no"?>
<svg xmlns:ffdec="https://www.free-decompiler.com/flash" xmlns:xlink="http://www.w3.org/1999/xlink" ffdec:objectType="shape" height="91.95px" width="115.5px" xmlns="http://www.w3.org/2000/svg">
  <g transform="matrix(1.0, 0.0, 0.0, 1.0, -6.25, 2.0)">
    <path d="M112.7 72.35 Q114.25 67.95 114.25 61.75 114.25 44.3 101.65 33.8 85.05 19.95 41.25 11.0 21.85 18.1 16.7 24.35 14.55 27.05 14.0 30.5 13.75 32.1 13.75 37.35 13.75 40.1 19.05 47.95 24.65 56.3 32.2 64.1 52.5 85.25 66.0 81.85 L102.5 81.6 Q109.85 80.25 112.7 72.35 M103.0 89.6 L68.0 89.6 Q48.75 92.75 26.15 68.95 17.75 60.1 11.8 50.4 6.25 41.4 6.25 37.6 6.25 31.7 6.55 29.55 7.05 25.5 9.1 22.35 13.8 14.95 31.25 6.25 L19.0 5.75 16.2 3.7 Q15.25 3.0 15.25 2.25 15.25 -3.2 31.9 -1.65 48.85 0.0 68.5 7.65 91.25 16.5 105.1 29.25 121.75 44.5 121.75 62.25 121.75 71.45 119.3 76.95 115.0 86.6 103.0 89.6" fill="#ff0000" fill-opacity="0.8" fill-rule="evenodd" stroke="none"/>
  </g>
</svg>
