<?xml version="1.0" encoding="UTF-8" standalone="no"?>
<svg xmlns:ffdec="https://www.free-decompiler.com/flash" xmlns:xlink="http://www.w3.org/1999/xlink" ffdec:objectType="shape" height="58.5px" width="372.6px" xmlns="http://www.w3.org/2000/svg">
  <g transform="matrix(1.0, 0.0, 0.0, 1.0, 186.3, 29.25)">
    <path d="M38.95 -28.55 L58.5 -3.7 58.5 -28.55 63.2 -28.55 63.2 4.15 58.5 4.15 38.95 -20.7 38.95 4.15 34.25 4.15 34.25 -28.55 38.95 -28.55 M14.7 -24.6 Q19.95 -19.7 19.95 -12.2 19.95 -4.7 14.7 0.15 9.6 4.85 2.45 4.85 -4.8 4.85 -9.85 0.2 -15.05 -4.65 -15.05 -12.2 -15.05 -19.7 -9.85 -24.55 -4.85 -29.25 2.45 -29.25 9.7 -29.25 14.7 -24.6 M2.45 -24.55 Q-3.1 -24.55 -6.75 -20.9 -10.35 -17.3 -10.35 -12.2 -10.35 -7.1 -6.75 -3.5 -3.0 0.15 2.45 0.15 7.9 0.15 11.6 -3.5 15.25 -7.05 15.25 -12.2 15.25 -17.3 11.6 -20.9 7.95 -24.55 2.45 -24.55 M83.65 -14.85 L97.6 -14.85 Q102.5 -14.85 102.5 -19.65 102.5 -23.85 97.6 -23.85 L83.65 -23.85 83.65 -14.85 M83.65 -0.55 L97.6 -0.55 Q104.05 -0.55 104.05 -5.35 104.05 -10.15 97.6 -10.15 L83.65 -10.15 83.65 -0.55 M104.25 -13.05 Q105.9 -12.4 107.2 -10.45 108.75 -8.15 108.75 -5.35 108.75 -0.85 105.55 1.75 102.5 4.15 97.6 4.15 L78.95 4.15 78.95 -28.55 97.6 -28.55 Q101.6 -28.55 104.2 -26.4 107.2 -24.0 107.2 -19.65 107.2 -16.0 104.25 -13.05 M158.0 -4.95 L160.65 -3.0 Q162.5 -1.65 164.75 -0.85 167.75 0.15 171.2 0.15 175.05 0.15 178.05 -1.15 181.6 -2.7 181.6 -5.45 181.6 -8.95 178.0 -10.1 L171.4 -10.8 166.5 -10.8 Q162.7 -10.8 160.0 -12.75 156.85 -15.05 156.85 -19.15 156.85 -23.95 161.5 -26.8 165.55 -29.25 170.7 -29.25 177.95 -29.25 184.05 -24.8 L181.4 -21.0 177.1 -23.4 Q174.35 -24.55 170.8 -24.55 167.3 -24.55 164.65 -23.3 161.55 -21.8 161.55 -19.2 161.55 -15.45 167.1 -15.45 L171.4 -15.45 Q186.3 -15.45 186.3 -5.4 186.3 -0.55 181.65 2.3 177.4 4.85 170.9 4.85 164.55 4.85 159.85 2.25 157.4 0.9 154.7 -1.8 L158.0 -4.95 M142.45 -28.55 L148.4 -28.55 134.8 -9.95 134.8 4.15 130.1 4.15 130.1 -9.95 116.9 -28.55 122.55 -28.55 132.55 -14.6 142.45 -28.55 M-181.6 -9.85 L-181.6 4.15 -186.3 4.15 -186.3 -28.55 -167.45 -28.55 Q-163.45 -28.55 -160.85 -26.3 -157.95 -23.85 -157.95 -19.5 -157.95 -14.55 -160.8 -12.1 -163.35 -9.85 -167.45 -9.85 L-181.6 -9.85 M-167.45 -14.55 Q-162.65 -14.55 -162.65 -19.45 -162.65 -21.35 -163.85 -22.55 -165.2 -23.85 -167.45 -23.85 L-181.6 -23.85 -181.6 -14.55 -167.45 -14.55 M-142.1 -24.55 Q-137.05 -29.25 -129.8 -29.25 -122.55 -29.25 -117.55 -24.6 -112.3 -19.7 -112.3 -12.2 -112.3 -4.7 -117.55 0.15 -122.65 4.85 -129.8 4.85 -137.0 4.85 -142.1 0.2 -147.3 -4.7 -147.3 -12.2 -147.3 -19.65 -142.1 -24.55 M-139.0 -20.9 Q-142.6 -17.3 -142.6 -12.2 -142.6 -7.1 -139.0 -3.5 -135.25 0.15 -129.8 0.15 -124.4 0.15 -120.6 -3.5 -117.0 -7.1 -117.0 -12.2 -117.0 -17.3 -120.6 -20.9 -124.3 -24.55 -129.8 -24.55 -135.35 -24.55 -139.0 -20.9 M-93.25 -28.55 L-73.75 -3.7 -73.75 -28.55 -69.05 -28.55 -69.05 4.15 -73.75 4.15 -93.25 -20.7 -93.25 4.15 -97.95 4.15 -97.95 -28.55 -93.25 -28.55 M-41.1 -29.25 Q-33.8 -29.25 -27.75 -24.8 L-30.4 -21.0 Q-33.7 -23.0 -34.7 -23.4 -37.45 -24.55 -41.0 -24.55 -44.4 -24.55 -47.15 -23.3 -50.25 -21.8 -50.25 -19.2 -50.25 -15.45 -44.7 -15.45 L-40.35 -15.45 Q-25.45 -15.45 -25.45 -5.4 -25.45 -0.55 -30.15 2.3 -34.35 4.85 -40.9 4.85 -47.25 4.85 -51.95 2.25 -54.2 1.0 -57.1 -1.8 L-53.8 -4.95 -51.15 -3.0 Q-49.15 -1.6 -47.0 -0.85 -44.1 0.15 -40.6 0.15 -36.75 0.15 -33.7 -1.15 -30.15 -2.75 -30.15 -5.45 -30.15 -8.95 -33.75 -10.1 L-40.4 -10.8 -45.3 -10.8 Q-49.1 -10.8 -51.8 -12.75 -54.95 -15.05 -54.95 -19.15 -54.95 -23.95 -50.3 -26.8 -46.25 -29.25 -41.1 -29.25" fill="#dcdcdc" fill-rule="evenodd" stroke="none"/>
    <path d="M-70.45 18.7 L-67.45 18.7 Q-65.8 18.7 -64.75 19.8 -63.85 20.8 -63.85 22.2 -63.85 23.6 -64.75 24.65 -65.8 25.75 -67.45 25.75 L-68.65 25.75 -68.65 29.1 -70.45 29.1 -70.45 18.7 M-67.7 20.35 L-68.65 20.35 -68.65 24.1 -67.7 24.1 Q-65.65 24.1 -65.65 22.2 -65.65 20.35 -67.7 20.35 M-41.7 20.35 L-43.0 20.35 -43.0 23.6 -42.2 23.6 Q-39.9 23.6 -39.9 21.95 -39.9 20.35 -41.7 20.35 M-58.65 20.25 Q-57.05 18.55 -54.6 18.55 -52.15 18.55 -50.55 20.25 -49.1 21.8 -49.1 23.9 -49.1 26.0 -50.55 27.55 -52.15 29.25 -54.6 29.25 -57.05 29.25 -58.65 27.55 -60.1 26.0 -60.1 23.9 -60.1 21.8 -58.65 20.25 M-57.1 21.2 Q-58.25 22.25 -58.25 23.9 -58.25 25.5 -57.1 26.55 -56.05 27.5 -54.6 27.5 -53.2 27.5 -52.15 26.55 -51.0 25.5 -51.0 23.9 -51.0 22.25 -52.15 21.2 -53.2 20.25 -54.6 20.25 -56.05 20.25 -57.1 21.2 M-31.9 20.4 L-34.35 20.4 -34.35 18.7 -27.6 18.7 -27.6 20.4 -30.1 20.4 -30.1 29.1 -31.9 29.1 -31.9 20.4 M-38.1 21.95 Q-38.1 23.15 -38.85 24.0 -39.55 24.9 -40.8 25.1 L-36.85 29.1 -39.4 29.1 -43.0 25.3 -43.0 29.1 -44.8 29.1 -44.8 18.7 -41.7 18.7 Q-40.1 18.7 -39.1 19.6 -38.1 20.5 -38.1 21.95 M-8.95 18.7 L-7.15 18.7 -7.15 27.35 -3.65 27.35 -3.65 29.1 -8.95 29.1 -8.95 18.7 M-14.7 20.25 Q-13.25 21.8 -13.25 23.9 -13.25 26.0 -14.7 27.55 -16.3 29.25 -18.75 29.25 -21.2 29.25 -22.8 27.55 -24.25 26.0 -24.25 23.9 -24.25 21.8 -22.8 20.25 -21.2 18.55 -18.75 18.55 -16.3 18.55 -14.7 20.25 M-16.25 21.2 Q-17.3 20.25 -18.75 20.25 -20.2 20.25 -21.2 21.2 -22.35 22.25 -22.35 23.9 -22.35 25.5 -21.2 26.55 -20.2 27.5 -18.75 27.5 -17.3 27.5 -16.25 26.55 -15.15 25.5 -15.15 23.9 -15.15 22.25 -16.25 21.2 M2.95 25.15 L5.85 25.15 4.4 21.4 2.95 25.15 M3.65 18.7 L5.1 18.7 9.35 29.1 7.4 29.1 6.5 26.8 2.3 26.8 1.4 29.1 -0.6 29.1 3.65 18.7 M35.7 18.7 Q37.3 18.7 38.3 19.6 39.3 20.5 39.3 21.95 39.3 23.15 38.55 24.0 37.8 24.9 36.6 25.1 L40.5 29.1 37.95 29.1 34.4 25.3 34.4 29.1 32.55 29.1 32.55 18.7 35.7 18.7 M34.4 20.35 L34.4 23.6 35.2 23.6 Q37.45 23.6 37.45 21.95 37.45 20.35 35.65 20.35 L34.4 20.35 M22.85 20.4 L21.55 20.4 21.55 27.35 22.95 27.35 Q24.45 27.35 25.45 26.35 26.4 25.35 26.4 23.8 26.4 22.35 25.4 21.35 24.35 20.4 22.85 20.4 M23.25 18.7 Q25.15 18.7 26.65 20.1 28.25 21.65 28.25 23.85 28.25 26.05 26.75 27.6 25.2 29.1 22.95 29.1 L19.75 29.1 19.75 18.7 23.25 18.7 M43.9 18.7 L45.75 18.7 45.75 29.1 43.9 29.1 43.9 18.7 M49.5 18.7 L51.4 18.7 54.05 26.05 56.7 18.7 58.6 18.7 54.75 29.1 53.35 29.1 49.5 18.7 M68.1 20.4 L64.25 20.4 64.25 22.95 68.1 22.95 68.1 24.7 64.25 24.7 64.25 27.35 68.1 27.35 68.1 29.1 62.4 29.1 62.4 18.7 68.1 18.7 68.1 20.4" fill="#dcdcdc" fill-rule="evenodd" stroke="none"/>
  </g>
</svg>
