<?xml version="1.0" encoding="UTF-8" standalone="no"?>
<svg xmlns:ffdec="https://www.free-decompiler.com/flash" xmlns:xlink="http://www.w3.org/1999/xlink" ffdec:objectType="shape" height="25.35px" width="19.1px" xmlns="http://www.w3.org/2000/svg">
  <g transform="matrix(1.0, 0.0, 0.0, 1.0, 6.6, 2.8)">
    <path d="M2.25 -2.45 L2.45 -2.6 2.7 -2.7 2.9 -2.75 3.2 -2.8 3.45 -2.8 3.7 -2.8 3.9 -2.75 4.15 -2.7 4.35 -2.6 4.55 -2.5 4.75 -2.4 4.95 -2.25 5.1 -2.1 5.25 -1.95 5.4 -1.75 5.5 -1.6 5.6 -1.4 5.75 -1.5 5.95 -1.55 6.15 -1.65 6.35 -1.7 6.6 -1.7 6.8 -1.75 7.15 -1.7 7.45 -1.65 7.7 -1.55 8.0 -1.4 8.25 -1.25 8.45 -1.05 8.65 -0.8 8.85 -0.55 8.95 -0.3 9.05 0.0 9.15 0.3 9.15 0.6 9.15 0.95 9.3 0.9 9.45 0.8 9.65 0.75 9.8 0.75 10.0 0.7 10.2 0.7 10.5 0.7 10.8 0.8 11.1 0.9 11.35 1.0 11.6 1.2 11.85 1.4 12.05 1.6 12.2 1.85 12.35 2.1 12.45 2.4 12.5 2.7 12.5 3.05 12.5 11.15 12.5 11.35 12.5 13.4 12.5 13.7 12.5 14.05 12.45 14.45 12.4 14.9 12.3 15.4 12.15 15.9 12.0 16.4 11.75 16.9 11.15 17.9 11.05 18.05 10.95 18.25 10.85 18.45 10.8 18.75 10.45 20.4 10.25 22.55 -1.1 22.55 -1.15 21.4 -1.15 21.1 -1.15 20.8 -1.2 20.55 -1.25 20.35 -1.3 20.1 -1.35 19.95 -1.45 19.75 -1.55 19.55 -1.65 19.4 -1.75 19.25 -1.9 19.1 -2.05 18.9 -3.15 17.85 -3.45 17.5 -3.75 17.15 -4.0 16.8 -4.25 16.45 -4.45 16.15 -4.6 15.85 -4.7 15.6 -4.85 15.35 -5.0 14.8 -5.05 14.7 -5.3 13.2 -5.4 12.75 -5.55 12.3 -5.7 11.85 -5.9 11.35 -6.1 10.85 -6.35 10.35 -6.4 10.3 -6.4 10.25 -6.5 10.05 -6.55 9.85 -6.6 9.65 -6.6 9.45 -6.6 9.25 -6.6 9.05 -6.55 8.9 -6.5 8.7 -6.4 8.55 -6.3 8.4 -6.1 8.15 -5.9 8.05 -5.75 7.95 -5.55 7.85 -5.35 7.8 -5.15 7.75 -4.95 7.75 Q-4.25 7.75 -3.5 8.25 L-2.65 9.1 -2.45 9.3 -2.25 9.55 -2.25 0.35 -2.25 0.0 -2.15 -0.3 -2.05 -0.6 -1.95 -0.85 -1.75 -1.1 -1.55 -1.3 -1.35 -1.5 -1.1 -1.7 -0.85 -1.8 -0.55 -1.9 -0.25 -2.0 0.05 -2.0 0.3 -2.0 0.55 -1.95 0.8 -1.9 1.0 -1.8 1.2 -1.7 1.4 -1.6 1.5 -1.8 1.65 -2.0 1.85 -2.15 2.05 -2.35 2.25 -2.45 M1.0 -0.3 L0.85 -0.45 0.7 -0.6 0.5 -0.7 0.3 -0.75 0.05 -0.8 -0.1 -0.8 -0.2 -0.75 -0.35 -0.7 -0.5 -0.65 -0.7 -0.45 -0.9 -0.25 -0.95 -0.1 -1.0 0.05 -1.05 0.2 -1.05 0.35 -1.05 11.1 -1.05 11.4 -1.1 11.65 -1.2 11.8 -1.25 11.95 -1.4 12.0 -1.5 12.05 -1.75 12.1 -1.8 12.1 -2.05 12.05 -2.2 11.9 -2.35 11.75 -2.4 11.7 -2.5 11.45 -2.6 11.2 -2.75 10.95 -2.9 10.75 -3.05 10.5 -3.2 10.3 -3.75 9.65 -3.95 9.45 -4.2 9.25 -4.35 9.15 -4.45 9.1 -4.6 9.0 -4.7 9.0 -4.85 8.95 -4.95 8.95 -5.3 9.05 -5.4 9.25 -5.4 9.4 -5.35 9.5 -5.3 9.7 -5.3 9.8 -5.1 10.2 -4.9 10.6 -4.7 11.05 -4.55 11.45 -4.4 11.85 -4.3 12.25 -3.8 14.7 -3.7 14.95 -3.5 15.25 -3.3 15.65 -3.05 16.05 -2.25 17.0 -1.4 17.85 -1.2 18.05 -1.0 18.25 -0.8 18.5 -0.65 18.7 -0.5 18.95 -0.35 19.25 -0.25 19.5 -0.15 19.8 -0.05 20.15 0.0 20.55 0.05 20.95 0.1 21.35 9.1 21.35 9.15 21.25 9.45 18.95 9.55 18.6 9.65 18.25 9.75 17.95 9.9 17.65 10.05 17.4 10.2 17.15 10.4 16.85 10.6 16.5 10.75 16.15 10.9 15.8 11.0 15.45 11.1 15.1 11.2 14.8 11.25 14.5 11.3 13.9 11.3 11.3 11.3 11.15 11.3 3.05 11.3 2.8 11.25 2.6 11.1 2.4 11.0 2.25 10.8 2.1 10.65 2.0 10.4 1.95 10.2 1.9 10.05 1.9 9.9 1.95 9.75 2.0 9.65 2.05 9.4 2.25 9.2 2.45 9.15 2.6 9.1 2.75 9.1 2.9 9.05 3.05 9.05 9.65 7.95 9.65 7.95 0.6 7.9 0.35 7.85 0.15 7.75 -0.05 7.6 -0.2 7.45 -0.35 7.25 -0.45 7.05 -0.5 6.8 -0.5 6.65 -0.5 6.5 -0.5 6.4 -0.45 6.25 -0.35 6.05 -0.2 5.85 0.05 5.8 0.15 5.75 0.3 5.7 0.45 5.7 0.6 5.7 8.95 4.55 8.95 4.55 -0.5 4.55 -0.7 4.5 -0.9 4.35 -1.1 4.25 -1.25 4.05 -1.4 3.9 -1.5 3.65 -1.55 3.45 -1.6 3.3 -1.6 3.15 -1.55 3.0 -1.5 2.9 -1.45 2.65 -1.25 2.45 -1.05 2.4 -0.9 2.35 -0.8 2.35 -0.65 2.3 -0.5 2.3 8.35 1.2 8.35 1.2 0.35 1.15 0.1 1.1 -0.1 1.0 -0.3" fill="#000000" fill-rule="evenodd" stroke="none"/>
    <path d="M1.0 -0.3 L1.1 -0.1 1.15 0.1 1.2 0.35 1.2 8.35 2.3 8.35 2.3 -0.5 2.35 -0.65 2.35 -0.8 2.4 -0.9 2.45 -1.05 2.65 -1.25 2.9 -1.45 3.0 -1.5 3.15 -1.55 3.3 -1.6 3.45 -1.6 3.65 -1.55 3.9 -1.5 4.05 -1.4 4.25 -1.25 4.35 -1.1 4.5 -0.9 4.55 -0.7 4.55 -0.5 4.55 8.95 5.7 8.95 5.7 0.6 5.7 0.45 5.75 0.3 5.8 0.15 5.85 0.05 6.05 -0.2 6.25 -0.35 6.4 -0.45 6.5 -0.5 6.65 -0.5 6.8 -0.5 7.05 -0.5 7.25 -0.45 7.45 -0.35 7.6 -0.2 7.75 -0.05 7.85 0.15 7.9 0.35 7.95 0.6 7.95 9.65 9.05 9.65 9.05 3.05 9.1 2.9 9.1 2.75 9.15 2.6 9.2 2.45 9.4 2.25 9.65 2.05 9.75 2.0 9.9 1.95 10.05 1.9 10.2 1.9 10.4 1.95 10.65 2.0 10.8 2.1 11.0 2.25 11.1 2.4 11.25 2.6 11.3 2.8 11.3 3.05 11.3 11.15 11.3 11.3 11.3 13.9 11.25 14.5 11.2 14.8 11.1 15.1 11.0 15.45 10.9 15.8 10.75 16.15 10.6 16.5 10.4 16.85 10.2 17.15 10.05 17.4 9.9 17.65 9.75 17.95 9.65 18.25 9.55 18.6 9.45 18.95 9.15 21.25 9.1 21.35 0.1 21.35 0.05 20.95 0.0 20.55 -0.05 20.15 -0.15 19.8 -0.25 19.5 -0.35 19.25 -0.5 18.95 -0.65 18.7 -0.8 18.5 -1.0 18.25 -1.2 18.05 -1.4 17.85 -2.25 17.0 -3.05 16.05 -3.3 15.65 -3.5 15.25 -3.7 14.95 -3.8 14.7 -4.3 12.25 -4.4 11.85 -4.55 11.45 -4.7 11.05 -4.9 10.6 -5.1 10.2 -5.3 9.8 -5.3 9.7 -5.35 9.5 -5.4 9.4 -5.4 9.25 -5.3 9.05 -4.95 8.95 -4.85 8.95 -4.7 9.0 -4.6 9.0 -4.45 9.1 -4.35 9.15 -4.2 9.25 -3.95 9.45 -3.75 9.65 -3.2 10.3 -3.05 10.5 -2.9 10.75 -2.75 10.95 -2.6 11.2 -2.5 11.45 -2.4 11.7 -2.35 11.75 -2.2 11.9 -2.05 12.05 -1.8 12.1 -1.75 12.1 -1.5 12.05 -1.4 12.0 -1.25 11.95 -1.2 11.8 -1.1 11.65 -1.05 11.4 -1.05 11.1 -1.05 0.35 -1.05 0.2 -1.0 0.05 -0.95 -0.1 -0.9 -0.25 -0.7 -0.45 -0.5 -0.65 -0.35 -0.7 -0.2 -0.75 -0.1 -0.8 0.05 -0.8 0.3 -0.75 0.5 -0.7 0.7 -0.6 0.85 -0.45 1.0 -0.3" fill="#ffffff" fill-rule="evenodd" stroke="none"/>
  </g>
</svg>
