<?xml version="1.0" encoding="UTF-8" standalone="no"?>
<svg xmlns:ffdec="https://www.free-decompiler.com/flash" xmlns:xlink="http://www.w3.org/1999/xlink" ffdec:objectType="shape" height="144.5px" width="275.95px" xmlns="http://www.w3.org/2000/svg">
  <g transform="matrix(1.0, 0.0, 0.0, 1.0, 176.7, 97.85)">
    <path d="M99.25 46.65 L30.8 46.65 30.8 33.65 -13.2 33.65 -13.2 45.15 -176.7 45.15 -176.7 -97.85 99.25 -97.85 99.25 46.65" fill="#424242" fill-rule="evenodd" stroke="none"/>
    <path d="M-32.2 -62.35 L-28.2 -62.35 -28.2 -63.85 -3.2 -63.85 -3.2 -62.35 39.3 -62.35 39.3 -14.85 47.75 -14.85 47.75 -17.35 60.75 -17.35 60.75 -14.85 69.75 -14.85 69.75 -12.85 74.25 -12.85 74.25 28.15 69.75 28.15 69.75 30.15 30.8 30.15 30.8 33.15 -13.2 33.15 -13.2 30.15 -32.2 30.15 -32.2 28.15 -33.7 28.15 -33.7 0.15 -32.2 0.15 -32.2 -62.35" fill="#959595" fill-rule="evenodd" stroke="none"/>
    <path d="M0.3 -17.85 L0.3 -25.35 5.3 -25.35 5.3 -22.85 27.8 -22.85 27.8 -47.35 36.8 -47.35 34.3 -47.85 35.3 -52.35 Q36.8 -51.85 38.3 -51.85 L37.3 -47.35 39.3 -47.35 39.3 -17.85 0.3 -17.85" fill="#6f6f6f" fill-rule="evenodd" stroke="none"/>
    <path d="M5.3 -55.85 L5.3 -36.85 0.3 -36.85 0.3 -62.35 39.3 -62.35 39.3 -55.85 5.3 -55.85" fill="#6f6f6f" fill-rule="evenodd" stroke="none"/>
    <path d="M-32.7 -25.35 L-32.7 -57.85 -26.2 -57.85 -26.2 -25.35 -32.7 -25.35" fill="#6f6f6f" fill-rule="evenodd" stroke="none"/>
    <path d="M-32.2 -8.35 L-32.2 -24.85 -26.7 -24.85 -26.7 -8.35 -32.2 -8.35" fill="#6f6f6f" fill-rule="evenodd" stroke="none"/>
    <path d="M-31.2 -7.35 L-27.2 -7.35 -27.2 -3.35 -31.2 -3.35 -31.2 -7.35" fill="#6f6f6f" fill-rule="evenodd" stroke="none"/>
    <path d="M32.3 29.65 L32.3 23.65 48.25 23.65 48.25 29.65 32.3 29.65" fill="#6f6f6f" fill-rule="evenodd" stroke="none"/>
    <path d="M50.75 29.65 L50.75 23.15 65.75 23.15 65.75 29.65 50.75 29.65" fill="#6f6f6f" fill-rule="evenodd" stroke="none"/>
    <path d="M71.75 -12.35 L73.75 -7.35 Q71.75 -6.35 69.75 -5.85 L67.75 -10.85 Q69.75 -11.35 71.75 -12.35" fill="#6f6f6f" fill-rule="evenodd" stroke="none"/>
    <path d="M3.8 -19.35 L1.3 -19.35 1.3 -21.85 3.8 -21.85 3.8 -19.35" fill="#424242" fill-rule="evenodd" stroke="none"/>
    <path d="M30.8 32.15 L30.8 35.15 -13.2 35.15 -13.2 32.15 30.8 32.15" fill="#ffffff" fill-rule="evenodd" stroke="none"/>
  </g>
</svg>
