<?xml version="1.0" encoding="UTF-8" standalone="no"?>
<svg xmlns:ffdec="https://www.free-decompiler.com/flash" xmlns:xlink="http://www.w3.org/1999/xlink" ffdec:objectType="shape" height="253.0px" width="253.0px" xmlns="http://www.w3.org/2000/svg">
  <g transform="matrix(1.0, 0.0, 0.0, 1.0, 0.0, 0.0)">
    <path d="M215.95 37.05 Q233.45 54.55 243.05 77.3 253.0 100.75 253.0 126.5 253.0 152.25 243.05 175.7 233.45 198.45 215.95 215.95 198.45 233.45 175.7 243.05 152.25 253.0 126.5 253.0 100.75 253.0 77.3 243.05 54.55 233.45 37.05 215.95 19.55 198.45 9.95 175.7 0.0 152.25 0.0 126.5 0.0 100.75 9.95 77.3 19.55 54.55 37.05 37.05 54.55 19.55 77.3 9.95 100.75 0.0 126.5 0.0 152.25 0.0 175.7 9.95 198.45 19.55 215.95 37.05" fill="#669868" fill-rule="evenodd" stroke="none"/>
    <path d="M170.35 163.65 Q170.35 179.4 161.35 188.8 152.65 197.8 138.0 200.25 L138.0 222.0 115.0 222.0 115.0 200.3 Q109.9 199.35 105.55 197.7 101.7 196.2 98.4 194.15 94.85 191.85 91.95 188.9 82.65 179.35 82.65 162.8 L82.65 151.5 107.25 151.5 107.25 161.35 Q107.25 172.05 112.45 177.4 117.6 182.8 126.4 182.8 134.75 182.8 140.15 178.05 145.75 173.3 145.75 163.65 145.75 157.15 143.4 153.0 141.0 148.7 134.15 143.95 L108.35 125.9 Q97.25 118.2 91.35 110.6 85.55 103.15 85.55 89.95 85.55 73.95 93.75 64.45 101.15 55.9 115.0 53.35 L115.0 31.0 138.0 31.0 138.0 53.4 Q152.05 56.05 159.85 65.2 168.05 74.7 168.05 90.8 L168.05 100.05 143.2 100.05 143.2 92.25 Q143.2 82.55 139.15 76.85 134.95 70.85 126.4 70.85 118.15 70.85 113.95 76.0 109.85 81.05 109.85 89.95 109.85 96.4 112.2 100.4 114.55 104.2 121.45 109.05 L147.55 127.1 Q158.45 134.65 164.5 142.7 170.35 150.4 170.35 163.65" fill="#ffffff" fill-rule="evenodd" stroke="none"/>
  </g>
</svg>
