<?xml version="1.0" encoding="UTF-8" standalone="no"?>
<svg xmlns:ffdec="https://www.free-decompiler.com/flash" xmlns:xlink="http://www.w3.org/1999/xlink" ffdec:objectType="shape" height="100.0px" width="100.0px" xmlns="http://www.w3.org/2000/svg">
  <g transform="matrix(1.0, 0.0, 0.0, 1.0, 0.0, 0.0)">
    <path d="M88.75 3.1 Q93.85 6.15 96.85 11.25 99.9 16.35 100.0 22.65 L100.0 77.35 Q99.9 83.65 96.85 88.75 93.85 93.85 88.75 96.85 83.65 99.9 77.35 100.0 L22.65 100.0 Q16.35 99.9 11.25 96.85 6.15 93.85 3.1 88.75 0.1 83.65 0.0 77.35 L0.0 22.65 Q0.1 16.35 3.1 11.25 6.15 6.15 11.25 3.1 16.35 0.1 22.65 0.0 L77.35 0.0 Q83.65 0.1 88.75 3.1 M86.5 21.9 Q86.5 18.5 84.05 15.85 81.4 13.4 78.0 13.4 74.6 13.4 72.05 15.85 L49.95 37.95 27.85 15.95 Q25.3 13.5 21.9 13.5 18.5 13.5 15.85 15.95 13.4 18.6 13.4 22.0 13.4 25.4 15.85 27.95 L37.95 50.05 15.95 72.15 Q13.5 74.7 13.5 78.1 13.5 81.5 15.95 84.1 18.6 86.6 22.0 86.6 25.4 86.6 27.95 84.1 L50.05 62.05 72.15 84.05 Q74.7 86.5 78.1 86.5 81.5 86.5 84.1 84.05 86.6 81.4 86.6 78.0 86.6 74.6 84.1 72.05 L62.05 49.95 84.05 27.85 Q86.5 25.3 86.5 21.9" fill="#ffffff" fill-rule="evenodd" stroke="none"/>
  </g>
</svg>
