<?xml version="1.0" encoding="UTF-8" standalone="no"?>
<svg xmlns:ffdec="https://www.free-decompiler.com/flash" xmlns:xlink="http://www.w3.org/1999/xlink" ffdec:objectType="shape" height="14.9px" width="14.85px" xmlns="http://www.w3.org/2000/svg">
  <g transform="matrix(1.0, 0.0, 0.0, 1.0, 7.4, 7.45)">
    <path d="M-3.65 0.6 L-5.8 1.2 Q-5.25 4.1 -2.55 5.4 L-2.45 5.4 -2.0 5.45 Q-1.25 5.45 -0.8 4.8 L-0.8 3.55 Q-1.15 2.9 -1.95 2.0 L-2.3 1.65 Q-3.15 0.6 -3.65 0.6 M5.3 -5.25 Q7.45 -3.1 7.45 0.0 7.45 3.1 5.3 5.25 3.1 7.45 0.05 7.45 -3.0 7.45 -5.2 5.25 -7.4 3.1 -7.4 0.0 -7.4 -3.05 -5.2 -5.25 -3.0 -7.45 0.05 -7.45 3.1 -7.45 5.3 -5.25 M3.75 -1.4 L5.3 -1.15 Q5.6 -1.15 5.75 -1.75 5.2 -3.55 3.6 -4.75 2.0 -5.95 0.05 -5.95 -1.95 -5.95 -3.55 -4.75 -5.15 -3.55 -5.7 -1.7 -5.5 -1.15 -5.3 -1.15 L-3.7 -1.4 0.0 -1.9 3.75 -1.4 M5.9 1.2 L3.7 0.6 Q3.2 0.6 2.05 1.85 L1.8 2.15 0.8 3.55 0.8 4.8 Q1.25 5.45 2.0 5.45 L2.4 5.4 2.75 5.3 Q5.25 4.05 5.9 1.2" fill="#ffffff" fill-rule="evenodd" stroke="none"/>
  </g>
</svg>
