<?xml version="1.0" encoding="UTF-8" standalone="no"?>
<svg xmlns:ffdec="https://www.free-decompiler.com/flash" xmlns:xlink="http://www.w3.org/1999/xlink" ffdec:objectType="shape" height="16.0px" width="22.9px" xmlns="http://www.w3.org/2000/svg">
  <g transform="matrix(1.0, 0.0, 0.0, 1.0, 11.45, 8.0)">
    <path d="M-11.45 -1.25 L11.45 -1.25 11.45 1.25 -11.45 1.25 -11.45 -1.25" fill="#d62020" fill-rule="evenodd" stroke="none"/>
    <path d="M11.45 2.75 L-11.45 2.75 -11.45 -2.75 11.45 -2.75 11.45 2.75" fill="#ffffff" fill-rule="evenodd" stroke="none"/>
    <path d="M-1.25 -8.0 L1.25 -8.0 1.25 8.0 -1.25 8.0 -1.25 -8.0" fill="#d62020" fill-rule="evenodd" stroke="none"/>
    <path d="M2.75 8.0 L-2.75 8.0 -2.75 -8.0 2.75 -8.0 2.75 8.0" fill="#ffffff" fill-rule="evenodd" stroke="none"/>
    <path d="M-11.45 -1.25 L11.45 -1.25 11.45 1.25 -11.45 1.25 -11.45 -1.25" fill="#d62020" fill-rule="evenodd" stroke="none"/>
    <path d="M-1.25 -8.0 L1.25 -8.0 1.25 8.0 -1.25 8.0 -1.25 -8.0" fill="#d62020" fill-rule="evenodd" stroke="none"/>
  </g>
</svg>
