<?xml version="1.0" encoding="UTF-8" standalone="no"?>
<svg xmlns:ffdec="https://www.free-decompiler.com/flash" xmlns:xlink="http://www.w3.org/1999/xlink" ffdec:objectType="shape" height="18.1px" width="23.5px" xmlns="http://www.w3.org/2000/svg">
  <g transform="matrix(1.0, 0.0, 0.0, 1.0, 11.75, 9.05)">
    <path d="M0.0 -8.05 Q4.45 -8.05 7.6 -6.3 10.75 -4.5 10.75 -2.0 10.75 0.5 7.6 2.3 4.45 4.05 0.0 4.05 L-0.1 4.05 -5.15 8.05 -5.15 3.3 Q-7.7 2.5 -9.2 1.1 -10.75 -0.3 -10.75 -2.0 -10.75 -4.5 -7.6 -6.3 -4.45 -8.05 0.0 -8.05" fill="#ffffff" fill-rule="evenodd" stroke="none"/>
    <path d="M7.6 -6.3 Q4.45 -8.05 0.0 -8.05 -4.45 -8.05 -7.6 -6.3 -10.75 -4.5 -10.75 -2.0 -10.75 -0.3 -9.2 1.1 -7.7 2.5 -5.15 3.3 L-5.15 8.05 -0.1 4.05 0.0 4.05 Q4.45 4.05 7.6 2.3 10.75 0.5 10.75 -2.0 10.75 -4.5 7.6 -6.3 M0.0 -9.05 Q4.95 -9.05 8.35 -7.0 11.75 -4.95 11.75 -2.0 11.75 0.9 8.4 2.95 5.1 5.0 0.25 5.05 L-4.55 8.85 -5.15 9.05 -5.6 8.95 Q-6.15 8.7 -6.15 8.05 L-6.15 4.0 Q-8.75 3.05 -10.25 1.45 -11.75 -0.15 -11.75 -2.0 -11.75 -4.95 -8.35 -7.0 -4.95 -9.05 0.0 -9.05" fill="#000000" fill-rule="evenodd" stroke="none"/>
  </g>
</svg>
