<?xml version="1.0" encoding="UTF-8" standalone="no"?>
<svg xmlns:ffdec="https://www.free-decompiler.com/flash" xmlns:xlink="http://www.w3.org/1999/xlink" ffdec:objectType="shape" height="13.25px" width="19.95px" xmlns="http://www.w3.org/2000/svg">
  <g transform="matrix(1.0, 0.0, 0.0, 1.0, 9.95, 6.6)">
    <path d="M0.0 -1.0 L-1.8 -1.0 -2.25 0.65 -0.55 0.65 0.0 -1.0 M7.15 -4.85 L7.15 -5.6 8.35 -5.6 8.35 -4.85 9.0 -4.85 9.0 -2.1 7.15 -2.1 7.15 -1.0 1.4 -1.0 0.45 2.0 -2.6 2.0 -3.6 5.65 -8.95 5.65 -7.2 -1.0 -7.9 -1.0 -7.9 -2.55 -7.3 -2.55 -7.3 -4.85 7.15 -4.85" fill="#ffffff" fill-rule="evenodd" stroke="none"/>
    <path d="M-1.8 -1.0 L0.0 -1.0 -0.55 0.65 -2.25 0.65 -1.8 -1.0 M9.0 -4.85 L8.35 -4.85 8.35 -5.6 7.15 -5.6 7.15 -4.85 -7.3 -4.85 -7.3 -2.55 -7.9 -2.55 -7.9 -1.0 -7.2 -1.0 -8.95 5.65 -3.6 5.65 -2.6 2.0 0.45 2.0 1.4 -1.0 7.15 -1.0 7.15 -2.1 9.0 -2.1 9.0 -4.85 M8.35 -6.6 Q9.15 -6.6 9.35 -5.8 10.0 -5.55 10.0 -4.85 L10.0 -2.1 9.7 -1.4 Q9.4 -1.1 9.0 -1.1 L8.15 -1.1 8.15 -1.0 7.85 -0.3 Q7.55 0.0 7.15 0.0 L2.15 0.0 1.4 2.3 Q1.15 3.0 0.45 3.0 L-1.85 3.0 -2.6 5.95 Q-2.85 6.65 -3.6 6.65 L-8.95 6.65 Q-9.4 6.65 -9.75 6.3 L-9.9 5.4 -8.45 -0.2 Q-8.9 -0.45 -8.9 -1.0 L-8.9 -2.55 Q-8.9 -3.2 -8.3 -3.45 L-8.3 -4.85 -8.0 -5.55 -7.3 -5.85 6.2 -5.85 Q6.35 -6.6 7.15 -6.6 L8.35 -6.6" fill="#000000" fill-rule="evenodd" stroke="none"/>
  </g>
</svg>
