<?xml version="1.0" encoding="UTF-8" standalone="no"?>
<svg xmlns:ffdec="https://www.free-decompiler.com/flash" xmlns:xlink="http://www.w3.org/1999/xlink" ffdec:objectType="shape" height="10.8px" width="20.7px" xmlns="http://www.w3.org/2000/svg">
  <g transform="matrix(1.0, 0.0, 0.0, 1.0, 10.35, 5.4)">
    <path d="M-3.55 -0.05 Q-3.55 -0.8 -4.1 -1.35 -4.65 -1.9 -5.45 -1.9 -6.25 -1.9 -6.8 -1.35 -7.35 -0.8 -7.35 -0.05 -7.35 0.75 -6.8 1.3 -6.25 1.85 -5.45 1.85 -4.65 1.85 -4.1 1.3 -3.55 0.75 -3.55 -0.05 M9.35 -4.4 L9.35 4.4 -5.8 4.4 -9.3 -0.15 -5.8 -4.4 9.35 -4.4" fill="#ffffff" fill-rule="evenodd" stroke="none"/>
    <path d="M-4.1 -1.35 Q-3.55 -0.8 -3.55 -0.05 -3.55 0.75 -4.1 1.3 -4.65 1.85 -5.45 1.85 -6.25 1.85 -6.8 1.3 -7.35 0.75 -7.35 -0.05 -7.35 -0.8 -6.8 -1.35 -6.25 -1.9 -5.45 -1.9 -4.65 -1.9 -4.1 -1.35 M-4.55 -0.05 L-4.8 -0.65 -5.45 -0.9 -6.1 -0.65 -6.35 -0.05 -6.1 0.6 -5.45 0.85 Q-5.05 0.85 -4.8 0.6 L-4.55 -0.05 M9.35 4.4 L9.35 -4.4 -5.8 -4.4 -9.3 -0.15 -5.8 4.4 9.35 4.4 M10.05 -5.1 L10.35 -4.4 10.35 4.4 10.05 5.1 9.35 5.4 -5.8 5.4 Q-6.3 5.4 -6.6 5.0 L-10.1 0.45 Q-10.6 -0.15 -10.05 -0.8 L-6.55 -5.05 Q-6.3 -5.4 -5.8 -5.4 L9.35 -5.4 10.05 -5.1" fill="#000000" fill-rule="evenodd" stroke="none"/>
  </g>
</svg>
