<?xml version="1.0" encoding="UTF-8" standalone="no"?>
<svg xmlns:ffdec="https://www.free-decompiler.com/flash" xmlns:xlink="http://www.w3.org/1999/xlink" ffdec:objectType="shape" height="17.05px" width="17.05px" xmlns="http://www.w3.org/2000/svg">
  <g transform="matrix(1.0, 0.0, 0.0, 1.0, 8.5, 8.5)">
    <path d="M3.8 3.75 Q5.05 2.5 5.3 0.75 L1.45 0.75 1.45 -0.7 5.3 -0.7 Q5.05 -2.45 3.8 -3.7 2.5 -5.0 0.75 -5.25 L0.75 -1.4 -0.7 -1.4 -0.7 -5.25 Q-2.45 -5.0 -3.7 -3.7 -4.95 -2.45 -5.2 -0.7 L-1.4 -0.7 -1.4 0.75 -5.2 0.75 Q-4.95 2.5 -3.7 3.75 -2.45 5.05 -0.7 5.25 L-0.7 1.45 0.75 1.45 0.75 5.25 Q2.5 5.05 3.8 3.75 M8.55 -0.7 L8.55 0.75 6.5 0.75 Q6.25 3.0 4.6 4.6 3.0 6.25 0.75 6.5 L0.75 8.55 -0.7 8.55 -0.7 6.5 Q-2.95 6.25 -4.55 4.6 -6.2 3.0 -6.45 0.75 L-8.5 0.75 -8.5 -0.7 -6.45 -0.7 Q-6.2 -2.95 -4.55 -4.55 -2.95 -6.2 -0.7 -6.45 L-0.7 -8.5 0.75 -8.5 0.75 -6.45 Q3.0 -6.2 4.6 -4.55 6.25 -2.95 6.5 -0.7 L8.55 -0.7" fill="#ffffff" fill-rule="evenodd" stroke="none"/>
  </g>
</svg>
