<?xml version="1.0" encoding="UTF-8" standalone="no"?>
<svg xmlns:ffdec="https://www.free-decompiler.com/flash" xmlns:xlink="http://www.w3.org/1999/xlink" ffdec:objectType="shape" height="18.85px" width="16.85px" xmlns="http://www.w3.org/2000/svg">
  <g transform="matrix(1.0, 0.0, 0.0, 1.0, 8.4, 9.4)">
    <path d="M-5.35 -2.85 Q-4.05 -2.85 -3.2 -1.95 -2.3 -1.05 -2.3 0.2 -2.3 1.45 -3.2 2.3 -4.1 3.2 -5.35 3.2 -6.6 3.2 -7.5 2.3 -8.4 1.45 -8.4 0.2 -8.4 -1.05 -7.5 -1.95 -6.6 -2.85 -5.35 -2.85" fill="#ffffff" fill-rule="evenodd" stroke="none"/>
    <path d="M3.0 0.2 Q3.0 4.0 0.1 6.5 L-2.2 5.15 Q0.5 3.45 0.5 0.2 0.5 -1.4 -0.3 -2.75 -1.05 -4.05 -2.35 -4.85 L-0.15 -6.3 Q3.0 -3.8 3.0 0.2" fill="#ffffff" fill-rule="evenodd" stroke="none"/>
    <path d="M2.35 -7.95 L4.55 -9.4 Q8.45 -5.4 8.45 0.2 8.45 5.55 4.85 9.45 L2.65 8.05 Q5.85 4.85 5.85 0.2 5.85 -4.6 2.35 -7.95" fill="#ffffff" fill-rule="evenodd" stroke="none"/>
  </g>
</svg>
