<?xml version="1.0" encoding="UTF-8" standalone="no"?>
<svg xmlns:ffdec="https://www.free-decompiler.com/flash" xmlns:xlink="http://www.w3.org/1999/xlink" ffdec:objectType="shape" height="20.8px" width="20.75px" xmlns="http://www.w3.org/2000/svg">
  <g transform="matrix(1.0, 0.0, 0.0, 1.0, 10.35, 10.4)">
    <path d="M7.55 0.0 Q7.55 3.1 5.35 5.35 3.1 7.55 0.0 7.55 -3.1 7.55 -5.3 5.35 -7.5 3.1 -7.5 0.0 -7.5 -3.1 -5.3 -5.3 -3.1 -7.5 0.0 -7.5 3.1 -7.5 5.35 -5.3 7.55 -3.1 7.55 0.0" fill="#000000" fill-rule="evenodd" stroke="none"/>
    <path d="M1.6 0.8 L1.6 -0.8 5.8 -0.8 Q5.55 -2.75 4.15 -4.15 2.75 -5.55 0.8 -5.8 L0.8 -1.6 -0.8 -1.6 -0.8 -5.8 Q-2.7 -5.55 -4.1 -4.15 -5.5 -2.75 -5.75 -0.8 L-1.55 -0.8 -1.55 0.8 -5.75 0.8 Q-5.5 2.75 -4.1 4.15 -2.7 5.55 -0.8 5.8 L-0.8 1.6 0.8 1.6 0.8 5.8 Q2.75 5.55 4.15 4.15 5.55 2.75 5.8 0.8 L1.6 0.8 M0.8 -9.4 L0.8 -7.15 Q3.3 -6.85 5.1 -5.05 6.9 -3.25 7.15 -0.8 L9.4 -0.8 9.4 0.8 7.15 0.8 Q6.9 3.3 5.1 5.1 3.3 6.85 0.8 7.15 L0.8 9.4 -0.8 9.4 -0.8 7.15 Q-3.3 6.85 -5.05 5.1 -6.85 3.3 -7.1 0.8 L-9.35 0.8 -9.35 -0.8 -7.1 -0.8 Q-6.85 -3.25 -5.05 -5.05 -3.3 -6.85 -0.8 -7.15 L-0.8 -9.4 0.8 -9.4" fill="#ffffff" fill-rule="evenodd" stroke="none"/>
    <path d="M-1.8 1.8 L-4.5 1.8 Q-3.75 3.7 -1.8 4.5 L-1.8 1.8 M-4.5 -1.8 L-1.8 -1.8 -1.8 -4.5 Q-3.7 -3.7 -4.5 -1.8 M1.6 -0.8 L1.6 0.8 5.8 0.8 Q5.55 2.75 4.15 4.15 2.75 5.55 0.8 5.8 L0.8 1.6 -0.8 1.6 -0.8 5.8 Q-2.7 5.55 -4.1 4.15 -5.5 2.75 -5.75 0.8 L-1.55 0.8 -1.55 -0.8 -5.75 -0.8 Q-5.5 -2.75 -4.1 -4.15 -2.7 -5.55 -0.8 -5.8 L-0.8 -1.6 0.8 -1.6 0.8 -5.8 Q2.75 -5.55 4.15 -4.15 5.55 -2.75 5.8 -0.8 L1.6 -0.8 M4.5 1.8 L1.8 1.8 1.8 4.5 Q3.75 3.75 4.5 1.8 M0.6 0.6 L0.6 -0.6 -0.55 -0.6 -0.55 0.6 0.6 0.6 M1.8 -1.8 L4.5 -1.8 Q3.8 -3.7 1.8 -4.5 L1.8 -1.8 M0.8 -7.15 L0.8 -9.4 -0.8 -9.4 -0.8 -7.15 Q-3.3 -6.85 -5.05 -5.05 -6.85 -3.25 -7.1 -0.8 L-9.35 -0.8 -9.35 0.8 -7.1 0.8 Q-6.85 3.3 -5.05 5.1 -3.3 6.85 -0.8 7.15 L-0.8 9.4 0.8 9.4 0.8 7.15 Q3.3 6.85 5.1 5.1 6.9 3.3 7.15 0.8 L9.4 0.8 9.4 -0.8 7.15 -0.8 Q6.9 -3.25 5.1 -5.05 3.3 -6.85 0.8 -7.15 M10.1 -1.5 L10.4 -0.8 10.4 0.8 10.1 1.5 9.4 1.8 8.0 1.8 Q7.5 4.1 5.8 5.8 4.1 7.5 1.8 8.0 L1.8 9.4 1.5 10.1 0.8 10.4 -0.8 10.4 -1.5 10.1 -1.8 9.4 -1.8 8.0 Q-4.1 7.5 -5.75 5.8 -7.4 4.1 -7.95 1.8 L-9.35 1.8 -10.05 1.5 -10.35 0.8 -10.35 -0.8 -10.05 -1.5 -9.35 -1.8 -7.95 -1.8 Q-7.4 -4.1 -5.75 -5.75 -4.1 -7.4 -1.8 -7.95 L-1.8 -9.4 -1.5 -10.1 -0.8 -10.4 0.8 -10.4 1.5 -10.1 1.8 -9.4 1.8 -7.95 Q4.1 -7.4 5.8 -5.75 7.5 -4.1 8.0 -1.8 L9.4 -1.8 10.1 -1.5" fill="#000000" fill-rule="evenodd" stroke="none"/>
  </g>
</svg>
