<?xml version="1.0" encoding="UTF-8" standalone="no"?>
<svg xmlns:ffdec="https://www.free-decompiler.com/flash" xmlns:xlink="http://www.w3.org/1999/xlink" ffdec:objectType="shape" height="15.6px" width="15.6px" xmlns="http://www.w3.org/2000/svg">
  <g transform="matrix(1.0, 0.0, 0.0, 1.0, 7.8, 7.8)">
    <path d="M6.4 -4.45 Q7.8 -2.5 7.8 0.0 7.8 2.5 6.4 4.45 4.7 2.5 4.7 0.0 4.7 -2.5 6.4 -4.45" fill="#ffffff" fill-rule="evenodd" stroke="none"/>
    <path d="M-6.4 -4.45 Q-4.65 -2.55 -4.65 0.0 -4.65 2.55 -6.4 4.45 -7.8 2.4 -7.8 0.0 -7.8 -2.4 -6.4 -4.45" fill="#ffffff" fill-rule="evenodd" stroke="none"/>
    <path d="M3.2 0.0 Q3.2 3.25 5.4 5.6 3.1 7.8 0.0 7.8 -3.1 7.8 -5.4 5.6 -3.15 3.25 -3.15 0.0 -3.15 -3.25 -5.4 -5.6 -3.1 -7.8 0.0 -7.8 3.1 -7.8 5.4 -5.6 3.2 -3.25 3.2 0.0" fill="#ffffff" fill-rule="evenodd" stroke="none"/>
  </g>
</svg>
