<?xml version="1.0" encoding="UTF-8" standalone="no"?>
<svg xmlns:ffdec="https://www.free-decompiler.com/flash" xmlns:xlink="http://www.w3.org/1999/xlink" ffdec:objectType="shape" height="15.8px" width="15.65px" xmlns="http://www.w3.org/2000/svg">
  <g transform="matrix(1.0, 0.0, 0.0, 1.0, 7.8, 7.9)">
    <path d="M6.25 -6.4 L-6.2 -6.4 Q-5.2 -0.35 -3.15 2.55 -1.3 5.2 0.0 6.25 1.25 5.35 3.2 2.55 5.25 -0.35 6.25 -6.4 M4.4 3.45 Q1.9 7.05 0.35 7.85 L0.0 7.9 -0.3 7.85 Q-1.85 7.05 -4.35 3.45 -6.0 1.15 -7.05 -3.05 L-7.8 -7.05 -7.6 -7.65 -7.05 -7.9 7.1 -7.9 7.65 -7.65 7.85 -7.05 7.1 -3.05 Q6.05 1.15 4.4 3.45" fill="#ffffff" fill-rule="evenodd" stroke="none"/>
    <path d="M3.45 -1.0 L0.9 -1.0 0.9 1.8 -0.45 1.8 -0.45 -1.0 -3.0 -1.0 -3.0 -2.4 -0.45 -2.4 -0.45 -5.25 0.9 -5.25 0.9 -2.4 3.45 -2.4 3.45 -1.0" fill="#ffffff" fill-rule="evenodd" stroke="none"/>
  </g>
</svg>
