<?xml version="1.0" encoding="UTF-8" standalone="no"?>
<svg xmlns:ffdec="https://www.free-decompiler.com/flash" xmlns:xlink="http://www.w3.org/1999/xlink" ffdec:objectType="shape" height="21.15px" width="22.3px" xmlns="http://www.w3.org/2000/svg">
  <g transform="matrix(1.0, 0.0, 0.0, 1.0, 11.15, 10.55)">
    <path d="M1.05 1.35 L-1.0 1.4 -1.0 -1.1 1.05 -1.05 1.55 -0.9 1.9 -0.5 2.05 0.15 1.9 0.8 1.55 1.15 1.05 1.35" fill="#ffffff" fill-rule="evenodd" stroke="none"/>
    <path d="M3.65 1.15 L3.8 0.15 3.65 -0.85 3.15 -1.7 2.25 -2.3 0.95 -2.55 -2.8 -2.55 -2.8 5.8 -1.0 5.8 -1.0 2.8 0.95 2.8 2.25 2.6 3.15 2.0 3.65 1.15 M0.0 -10.55 L3.45 -3.6 11.15 -2.45 5.55 2.95 6.9 10.6 0.0 7.0 -6.85 10.6 -5.55 2.95 -11.15 -2.45 -3.45 -3.6 0.0 -10.55" fill="#ffffff" fill-rule="evenodd" stroke="none"/>
  </g>
</svg>
