<?xml version="1.0" encoding="UTF-8" standalone="no"?>
<svg xmlns:ffdec="https://www.free-decompiler.com/flash" xmlns:xlink="http://www.w3.org/1999/xlink" ffdec:objectType="shape" height="12.95px" width="16.65px" xmlns="http://www.w3.org/2000/svg">
  <g transform="matrix(1.0, 0.0, 0.0, 1.0, 8.3, 6.45)">
    <path d="M3.2 -3.85 Q5.35 -3.85 6.85 -2.3 8.35 -0.8 8.35 1.35 8.35 3.5 6.85 5.0 5.35 6.5 3.2 6.5 L-3.15 6.5 Q-5.3 6.5 -6.8 5.0 -8.3 3.5 -8.3 1.35 -8.3 -0.8 -6.8 -2.3 -5.3 -3.85 -3.15 -3.85 L-2.15 -3.85 -2.15 -2.05 -3.15 -2.05 Q-4.55 -2.05 -5.5 -1.05 -6.5 -0.05 -6.5 1.35 -6.5 2.75 -5.5 3.7 -4.55 4.7 -3.15 4.7 L3.2 4.7 Q4.6 4.7 5.55 3.7 6.55 2.75 6.55 1.35 6.55 -0.05 5.55 -1.05 4.6 -2.05 3.2 -2.05 L2.4 -2.05 3.95 -0.5 2.65 0.8 -0.15 -2.05 -0.35 -2.2 -1.0 -2.85 2.65 -6.45 3.9 -5.2 2.55 -3.85 3.2 -3.85" fill="#ffffff" fill-rule="evenodd" stroke="none"/>
  </g>
</svg>
