<?xml version="1.0" encoding="UTF-8" standalone="no"?>
<svg xmlns:ffdec="https://www.free-decompiler.com/flash" xmlns:xlink="http://www.w3.org/1999/xlink" ffdec:objectType="shape" height="21.6px" width="12.45px" xmlns="http://www.w3.org/2000/svg">
  <g transform="matrix(1.0, 0.0, 0.0, 1.0, 6.2, 10.8)">
    <path d="M5.25 -1.3 L-3.3 9.8 -0.65 1.3 -5.2 1.3 3.4 -9.8 0.7 -1.3 5.25 -1.3" fill="#ffffff" fill-rule="evenodd" stroke="none"/>
    <path d="M3.4 -9.8 L-5.2 1.3 -0.65 1.3 -3.3 9.8 5.25 -1.3 0.7 -1.3 3.4 -9.8 M5.25 -2.3 L5.95 -2.0 6.25 -1.3 6.05 -0.65 -2.5 10.45 Q-2.8 10.8 -3.3 10.8 L-3.75 10.7 Q-4.5 10.35 -4.25 9.5 L-2.0 2.3 -5.2 2.3 Q-5.75 2.3 -6.1 1.75 -6.35 1.2 -6.0 0.7 L2.6 -10.45 Q2.9 -10.8 3.4 -10.8 L3.85 -10.7 Q4.6 -10.3 4.35 -9.55 L2.05 -2.3 5.25 -2.3" fill="#000000" fill-rule="evenodd" stroke="none"/>
  </g>
</svg>
