<?xml version="1.0" encoding="UTF-8" standalone="no"?>
<svg xmlns:ffdec="https://www.free-decompiler.com/flash" xmlns:xlink="http://www.w3.org/1999/xlink" ffdec:objectType="shape" height="14.25px" width="15.65px" xmlns="http://www.w3.org/2000/svg">
  <g transform="matrix(1.0, 0.0, 0.0, 1.0, 7.35, 6.6)">
    <path d="M2.9 2.35 L2.1 4.65 1.4 6.15 Q0.8 7.3 0.25 7.5 -0.55 7.8 -3.1 7.5 -6.0 7.2 -7.0 6.3 L-7.35 5.7 -7.15 5.2 Q-6.65 4.65 -5.05 4.25 L-2.3 3.8 -1.2 3.5 Q0.15 2.6 0.55 1.15 1.0 -0.6 2.85 -3.2 3.8 -4.6 6.1 -6.55 6.35 -6.8 7.35 -5.75 8.35 -4.7 8.3 -3.9 L7.75 -1.9 6.95 0.75 Q6.35 4.85 6.35 6.95 6.35 7.4 5.95 7.55 L5.5 7.55 Q5.1 7.5 5.1 7.1 5.25 0.95 5.05 0.45 4.95 0.05 4.15 0.75 3.3 1.45 2.9 2.35" fill="#f5f5f5" fill-rule="evenodd" stroke="none"/>
  </g>
</svg>
