<?xml version="1.0" encoding="UTF-8" standalone="no"?>
<svg xmlns:ffdec="https://www.free-decompiler.com/flash" xmlns:xlink="http://www.w3.org/1999/xlink" ffdec:objectType="shape" height="17.65px" width="17.95px" xmlns="http://www.w3.org/2000/svg">
  <g transform="matrix(1.0, 0.0, 0.0, 1.0, 8.95, 8.8)">
    <path d="M3.9 5.0 Q4.9 6.25 4.9 7.2 4.9 8.0 4.15 8.3 L0.65 8.8 -2.55 8.5 Q-3.1 7.75 -8.95 -8.25 L-7.65 -8.8 -1.8 6.8 Q3.0 3.9 3.9 5.0" fill="#ffffff" fill-rule="evenodd" stroke="none"/>
    <path d="M9.0 7.0 Q9.0 7.6 8.6 8.05 8.15 8.45 7.55 8.45 6.95 8.45 6.55 8.05 6.1 7.6 6.1 7.0 6.1 6.4 6.55 6.0 6.95 5.6 7.55 5.6 8.15 5.6 8.6 6.0 9.0 6.4 9.0 7.0" fill="#ffffff" fill-rule="evenodd" stroke="none"/>
  </g>
</svg>
