<?xml version="1.0" encoding="UTF-8" standalone="no"?>
<svg xmlns:ffdec="https://www.free-decompiler.com/flash" xmlns:xlink="http://www.w3.org/1999/xlink" ffdec:objectType="shape" height="15.95px" width="15.95px" xmlns="http://www.w3.org/2000/svg">
  <g transform="matrix(1.0, 0.0, 0.0, 1.0, 7.95, 7.95)">
    <path d="M-1.15 3.6 L0.95 1.5 -0.3 0.4 Q-1.55 -0.85 -2.2 -1.95 L-2.2 -2.0 -6.1 1.9 Q-7.05 2.8 -7.05 4.1 -7.05 5.35 -6.1 6.25 -5.3 7.05 -4.2 6.4 L-1.15 3.6 M6.85 -6.8 Q8.0 -5.65 8.0 -3.95 8.0 -2.3 6.85 -1.15 L-1.2 6.85 Q-2.35 8.0 -4.0 8.0 -5.65 8.0 -6.8 6.85 -7.95 5.7 -7.95 4.05 -7.95 2.4 -6.8 1.25 L1.2 -6.8 Q2.35 -7.95 4.05 -7.95 5.7 -7.95 6.85 -6.8" fill="#ffffff" fill-rule="evenodd" stroke="none"/>
  </g>
</svg>
