<?xml version="1.0" encoding="UTF-8" standalone="no"?>
<svg xmlns:ffdec="https://www.free-decompiler.com/flash" xmlns:xlink="http://www.w3.org/1999/xlink" ffdec:objectType="shape" height="15.05px" width="12.9px" xmlns="http://www.w3.org/2000/svg">
  <g transform="matrix(1.0, 0.0, 0.0, 1.0, 6.45, 7.5)">
    <path d="M1.0 3.1 Q1.0 2.7 0.55 2.55 L0.05 2.45 -0.4 2.55 Q-0.9 2.75 -0.9 3.1 L-0.9 4.25 Q-0.8 5.05 -0.3 5.1 L0.4 5.1 Q0.9 5.05 1.0 4.25 L1.0 3.1 M-1.55 -0.35 L-2.25 -0.75 Q-2.95 -0.8 -3.85 -0.1 L-4.65 0.65 Q-5.0 1.75 -4.55 2.55 L-4.05 3.15 Q-3.7 3.6 -2.45 3.15 L-1.1 1.55 -0.85 0.65 Q-0.8 0.1 -1.55 -0.35 M4.45 2.55 Q4.85 1.75 4.55 0.65 3.25 -0.8 2.15 -0.7 L1.45 -0.3 Q0.75 0.15 0.8 0.65 L0.85 0.95 1.05 1.55 1.6 2.3 2.4 3.15 3.05 3.3 3.95 3.15 4.45 2.55 M6.35 -2.9 L6.35 -2.8 6.45 -0.95 6.35 2.05 Q6.1 3.45 5.15 4.4 L4.15 5.2 3.75 5.3 3.6 5.2 3.3 4.95 3.2 5.1 2.95 6.35 Q2.3 7.5 0.5 7.5 L0.0 7.55 -0.5 7.5 Q-1.6 7.5 -2.4 6.95 L-2.95 6.35 -3.2 5.1 -3.3 4.95 -3.6 5.2 Q-3.85 5.4 -4.15 5.2 L-5.05 4.55 -6.05 2.95 -6.35 2.05 -6.45 -0.9 -6.35 -2.8 -6.35 -2.9 Q-5.75 -5.9 -2.85 -7.0 L-0.05 -7.5 0.05 -7.5 2.85 -7.0 Q5.75 -5.9 6.35 -2.9" fill="#ffffff" fill-rule="evenodd" stroke="none"/>
  </g>
</svg>
