<?xml version="1.0" encoding="UTF-8" standalone="no"?>
<svg xmlns:ffdec="https://www.free-decompiler.com/flash" xmlns:xlink="http://www.w3.org/1999/xlink" ffdec:objectType="shape" height="18.15px" width="15.8px" xmlns="http://www.w3.org/2000/svg">
  <g transform="matrix(1.0, 0.0, 0.0, 1.0, 7.9, 9.05)">
    <path d="M6.9 1.5 L-6.9 1.5 -6.9 -8.05 6.9 -8.05 6.9 1.5" fill="#000000" fill-rule="evenodd" stroke="none"/>
    <path d="M6.9 1.5 L6.9 -8.05 -6.9 -8.05 -6.9 1.5 6.9 1.5 M6.9 -9.05 Q7.3 -9.05 7.6 -8.75 L7.9 -8.05 7.9 1.5 7.6 2.2 Q7.3 2.5 6.9 2.5 L-6.9 2.5 Q-7.3 2.5 -7.6 2.2 L-7.9 1.5 -7.9 -8.05 -7.6 -8.75 Q-7.3 -9.05 -6.9 -9.05 L6.9 -9.05" fill="#000000" fill-rule="evenodd" stroke="none"/>
    <path d="M6.9 1.5 L3.0 1.5 3.0 -1.7 6.9 -1.7 6.9 1.5 M6.9 -8.05 L6.9 -4.85 3.0 -4.85 3.0 -8.05 6.9 -8.05 M3.0 -4.85 L3.0 -1.7 -0.9 -1.7 -0.9 1.5 -4.8 1.5 -4.8 8.1 -6.9 8.1 -6.9 -8.05 -0.9 -8.05 -0.9 -4.85 3.0 -4.85 M-0.9 -4.85 L-4.8 -4.85 -4.8 -1.7 -0.9 -1.7 -0.9 -4.85" fill="#ffffff" fill-rule="evenodd" stroke="none"/>
    <path d="M-1.9 -3.85 L-3.8 -3.85 -3.8 -2.7 -1.9 -2.7 -1.9 -3.85 M-0.9 -4.85 L-0.9 -1.7 -4.8 -1.7 -4.8 -4.85 -0.9 -4.85 -0.9 -8.05 -6.9 -8.05 -6.9 8.1 -4.8 8.1 -4.8 1.5 -0.9 1.5 -0.9 -1.7 3.0 -1.7 3.0 1.5 6.9 1.5 6.9 -1.7 3.0 -1.7 3.0 -4.85 6.9 -4.85 6.9 -8.05 3.0 -8.05 3.0 -4.85 -0.9 -4.85 M7.6 -8.75 L7.9 -8.05 7.9 -4.85 7.6 -4.15 Q7.3 -3.85 6.9 -3.85 L4.0 -3.85 4.0 -2.7 6.9 -2.7 Q7.3 -2.7 7.6 -2.4 L7.9 -1.7 7.9 1.5 7.6 2.2 Q7.3 2.5 6.9 2.5 L3.0 2.5 Q2.6 2.5 2.3 2.2 2.0 1.9 2.0 1.5 L2.0 -0.7 0.1 -0.7 0.1 1.5 -0.2 2.2 Q-0.5 2.5 -0.9 2.5 L-3.8 2.5 -3.8 8.1 Q-3.8 8.5 -4.1 8.8 L-4.8 9.1 -6.9 9.1 Q-7.3 9.1 -7.6 8.8 L-7.9 8.1 -7.9 -8.05 -7.6 -8.75 Q-7.3 -9.05 -6.9 -9.05 L-0.9 -9.05 Q-0.5 -9.05 -0.2 -8.75 L0.1 -8.05 0.1 -5.85 2.0 -5.85 2.0 -8.05 Q2.0 -8.45 2.3 -8.75 2.6 -9.05 3.0 -9.05 L6.9 -9.05 Q7.3 -9.05 7.6 -8.75" fill="#000000" fill-rule="evenodd" stroke="none"/>
  </g>
</svg>
