<?xml version="1.0" encoding="UTF-8" standalone="no"?>
<svg xmlns:ffdec="https://www.free-decompiler.com/flash" xmlns:xlink="http://www.w3.org/1999/xlink" ffdec:objectType="shape" height="16.65px" width="10.95px" xmlns="http://www.w3.org/2000/svg">
  <g transform="matrix(1.0, 0.0, 0.0, 1.0, 5.45, 8.3)">
    <path d="M-1.05 1.05 Q-1.55 1.05 -1.85 1.4 -2.2 1.7 -2.2 2.2 L-1.85 3.0 -1.05 3.3 0.85 3.3 1.65 3.0 1.95 2.2 1.65 1.4 Q1.3 1.05 0.85 1.05 L-1.05 1.05 M-2.6 -3.1 L-3.7 -3.2 -4.1 -2.7 Q-4.25 -1.3 -2.6 -1.0 -1.3 -0.8 -0.6 -1.9 -1.7 -2.8 -2.6 -3.1 M2.4 -3.1 L1.05 -2.4 0.4 -1.9 Q1.05 -0.8 2.4 -1.0 4.05 -1.3 3.9 -2.7 L3.5 -3.2 2.4 -3.1 M4.7 -5.55 L4.95 -5.05 Q5.55 -3.2 5.5 -1.25 L5.1 1.8 5.05 1.9 Q4.25 5.5 5.4 8.35 L-5.35 8.3 -5.25 7.45 -5.1 7.2 Q-4.35 5.55 -4.5 4.5 L-5.35 0.7 -5.4 -3.0 Q-5.05 -4.95 -4.2 -6.15 -3.2 -7.45 -1.4 -8.0 L0.2 -8.3 1.85 -8.0 Q3.7 -7.35 4.7 -5.55" fill="#ffffff" fill-rule="evenodd" stroke="none"/>
  </g>
</svg>
