<?xml version="1.0" encoding="UTF-8" standalone="no"?>
<svg xmlns:ffdec="https://www.free-decompiler.com/flash" xmlns:xlink="http://www.w3.org/1999/xlink" ffdec:objectType="shape" height="14.35px" width="6.95px" xmlns="http://www.w3.org/2000/svg">
  <g transform="matrix(1.0, 0.0, 0.0, 1.0, 3.45, 7.15)">
    <path d="M1.25 -5.65 Q2.75 -5.5 3.5 -4.9 L2.8 -2.9 Q2.0 -3.6 0.65 -3.65 L0.45 -3.65 0.3 -3.6 0.1 -3.6 -0.2 -3.5 -0.3 -3.45 -0.45 -3.35 -0.55 -3.3 -0.85 -3.0 -0.9 -2.9 -0.95 -2.75 -1.0 -2.65 -1.0 -2.4 Q-1.0 -1.45 0.55 -0.85 3.55 0.35 3.5 2.55 3.5 4.8 1.25 5.5 L1.25 7.2 -1.0 7.2 -1.0 5.7 Q-2.2 5.6 -2.95 5.15 L-3.45 4.75 -2.8 2.75 Q-2.35 3.0 -1.95 3.2 L-0.2 3.7 0.05 3.65 0.3 3.65 0.65 3.55 0.75 3.45 0.9 3.4 1.05 3.25 1.2 2.95 1.2 2.9 1.25 2.8 1.25 2.65 Q1.25 1.8 -0.45 1.15 -3.3 -0.05 -3.3 -2.3 -3.2 -4.65 -1.0 -5.4 L-1.0 -7.15 1.25 -7.15 1.25 -5.65" fill="#ffffff" fill-rule="evenodd" stroke="none"/>
  </g>
</svg>
