<?xml version="1.0" encoding="UTF-8" standalone="no"?>
<svg xmlns:ffdec="https://www.free-decompiler.com/flash" xmlns:xlink="http://www.w3.org/1999/xlink" ffdec:objectType="shape" height="14.05px" width="13.95px" xmlns="http://www.w3.org/2000/svg">
  <g transform="matrix(1.0, 0.0, 0.0, 1.0, 6.95, 7.0)">
    <path d="M-5.45 1.15 Q-4.9 3.85 -2.35 5.1 L-2.2 5.1 -1.85 5.15 Q-1.2 5.15 -0.7 4.5 L-0.7 3.35 -1.8 1.9 -2.15 1.55 Q-3.0 0.6 -3.45 0.6 -4.0 0.6 -5.45 1.15 M5.5 1.15 L3.45 0.6 Q2.9 0.6 1.95 1.75 L1.7 2.0 0.75 3.35 0.75 4.5 Q1.1 5.15 1.9 5.15 L2.25 5.1 2.6 5.0 Q4.95 3.85 5.5 1.15 M3.5 -1.3 L5.0 -1.05 Q5.25 -1.05 5.35 -1.65 4.8 -3.4 3.35 -4.5 1.9 -5.6 0.0 -5.6 -1.85 -5.6 -3.35 -4.45 -4.8 -3.35 -5.35 -1.6 -5.15 -1.05 -4.95 -1.05 L-3.5 -1.3 0.0 -1.8 3.5 -1.3 M4.95 -4.95 Q7.0 -2.9 7.0 0.0 7.0 2.95 4.95 5.0 2.95 7.05 0.05 7.05 -2.85 7.05 -4.9 5.0 -6.95 2.9 -6.95 0.0 -6.95 -2.9 -4.9 -4.95 -2.9 -7.0 0.0 -7.0 2.9 -7.0 4.95 -4.95" fill="#ffffff" fill-rule="evenodd" stroke="none"/>
  </g>
</svg>
