<?xml version="1.0" encoding="UTF-8" standalone="no"?>
<svg xmlns:ffdec="https://www.free-decompiler.com/flash" xmlns:xlink="http://www.w3.org/1999/xlink" ffdec:objectType="shape" height="12.3px" width="16.05px" xmlns="http://www.w3.org/2000/svg">
  <g transform="matrix(1.0, 0.0, 0.0, 1.0, 8.0, 6.15)">
    <path d="M-4.7 2.15 Q-4.3 1.75 -4.3 1.2 -4.3 0.6 -4.7 0.2 -5.1 -0.2 -5.7 -0.2 -6.25 -0.2 -6.65 0.2 -7.05 0.6 -7.05 1.2 -7.05 1.75 -6.65 2.15 -6.25 2.55 -5.7 2.55 -5.1 2.55 -4.7 2.15 M5.75 2.55 Q6.35 2.55 6.75 2.15 7.15 1.75 7.15 1.2 7.15 0.6 6.75 0.2 6.35 -0.2 5.75 -0.2 5.2 -0.2 4.8 0.2 4.4 0.6 4.4 1.2 4.4 1.75 4.8 2.15 5.2 2.55 5.75 2.55 M5.55 -1.7 L5.1 -4.55 Q5.1 -5.1 4.55 -5.1 L-4.45 -5.1 Q-5.0 -5.1 -5.0 -4.55 L-5.45 -1.7 5.55 -1.7 M5.1 -6.15 Q5.55 -6.15 5.9 -5.8 L6.2 -5.05 6.85 -0.75 6.95 -0.75 7.75 -0.4 8.05 0.35 8.05 1.9 Q8.05 2.9 7.1 3.0 L7.1 5.05 6.8 5.85 6.0 6.15 5.55 6.15 4.8 5.85 Q4.45 5.5 4.45 5.05 L4.45 3.05 -4.4 3.05 -4.4 5.05 Q-4.4 5.5 -4.7 5.85 L-5.5 6.15 -5.9 6.15 -6.65 5.85 -7.0 5.05 -7.0 3.0 Q-8.0 2.9 -8.0 1.9 L-8.0 0.35 -7.65 -0.4 Q-7.35 -0.75 -6.9 -0.75 L-6.75 -0.75 -6.15 -5.05 -5.8 -5.8 Q-5.5 -6.15 -5.05 -6.15 L5.1 -6.15" fill="#ffffff" fill-rule="evenodd" stroke="none"/>
  </g>
</svg>
