<?xml version="1.0" encoding="UTF-8" standalone="no"?>
<svg xmlns:ffdec="https://www.free-decompiler.com/flash" xmlns:xlink="http://www.w3.org/1999/xlink" ffdec:objectType="shape" height="14.7px" width="16.0px" xmlns="http://www.w3.org/2000/svg">
  <g transform="matrix(1.0, 0.0, 0.0, 1.0, 8.0, 7.35)">
    <path d="M8.0 -2.8 Q8.15 -2.0 7.35 -0.35 5.7 2.9 0.85 7.0 L1.4 4.05 -0.35 1.45 2.35 -0.2 0.15 -3.1 0.55 -4.95 Q1.6 -7.35 4.25 -7.35 L6.15 -6.9 Q8.0 -5.85 8.0 -2.8" fill="#f5f5f5" fill-rule="evenodd" stroke="none"/>
    <path d="M-2.1 1.1 L0.1 4.35 -0.45 7.35 Q-5.55 3.05 -7.3 -0.3 -8.15 -1.95 -8.0 -2.8 -8.0 -5.85 -6.1 -6.9 -5.15 -7.4 -4.2 -7.35 -1.85 -7.35 -0.65 -5.25 L-1.2 -2.8 0.55 -0.55 -2.1 1.1" fill="#f5f5f5" fill-rule="evenodd" stroke="none"/>
  </g>
</svg>
