<?xml version="1.0" encoding="UTF-8" standalone="no"?>
<svg xmlns:ffdec="https://www.free-decompiler.com/flash" xmlns:xlink="http://www.w3.org/1999/xlink" ffdec:objectType="shape" height="15.6px" width="18.2px" xmlns="http://www.w3.org/2000/svg">
  <g transform="matrix(1.0, 0.0, 0.0, 1.0, 9.1, 7.8)">
    <path d="M6.6 -7.75 L8.8 -6.35 Q9.25 -6.0 9.0 -5.15 L8.55 -3.5 7.8 -1.45 7.6 -0.1 Q6.6 5.6 5.65 6.35 L3.35 7.8 1.15 6.85 0.3 6.15 -0.15 5.7 -2.45 5.0 -3.0 4.7 -3.05 4.7 -3.6 4.2 Q-4.75 2.65 -5.25 2.35 L-6.9 1.8 Q-7.95 1.35 -8.4 0.45 -9.1 -0.4 -9.1 -1.55 -9.1 -2.95 -8.1 -3.9 -7.15 -4.9 -5.75 -4.9 -4.6 -4.9 -3.65 -4.15 -2.75 -3.45 -2.5 -2.3 L-2.3 -1.6 -1.3 -1.7 -1.1 -1.75 -1.05 -1.75 Q0.25 -1.7 1.2 -0.85 2.15 0.0 2.35 1.25 L2.25 2.0 2.4 1.7 3.65 0.05 4.15 -0.55 Q5.35 -1.65 4.75 -2.6 L3.75 -4.5 3.55 -5.0 Q3.4 -5.5 3.75 -5.7 L4.0 -5.8 4.55 -5.5 4.0 -6.45 4.15 -6.75 Q4.55 -7.1 5.4 -7.5 L6.6 -7.75" fill="#ffffff" fill-rule="evenodd" stroke="none"/>
  </g>
</svg>
