<?xml version="1.0" encoding="UTF-8" standalone="no"?>
<svg xmlns:ffdec="https://www.free-decompiler.com/flash" xmlns:xlink="http://www.w3.org/1999/xlink" ffdec:objectType="shape" height="29.1px" width="28.35px" xmlns="http://www.w3.org/2000/svg">
  <g transform="matrix(1.0, 0.0, 0.0, 1.0, 14.15, 14.55)">
    <path d="M-2.55 -3.8 Q-2.55 -9.0 -0.5 -13.25 -0.35 -13.55 0.0 -13.55 0.4 -13.55 0.55 -13.25 2.6 -9.0 2.6 -3.8 2.6 -1.3 2.1 2.2 5.45 -3.55 11.4 -7.55 L12.05 -7.6 12.3 -7.1 12.3 -7.05 Q12.1 -5.05 10.4 -2.25 8.4 1.15 4.6 4.85 8.5 3.15 12.65 3.05 13.0 3.05 13.15 3.4 L13.2 3.65 13.05 4.0 Q11.65 5.6 7.55 6.95 L4.9 7.75 Q7.1 8.1 8.0 9.05 L8.15 9.45 8.1 9.65 7.7 10.0 6.1 10.2 Q4.2 10.2 1.25 9.1 L1.0 9.05 0.9 12.15 Q0.9 13.2 0.25 13.5 L0.0 13.55 -0.2 13.5 Q-0.75 13.25 -0.9 12.15 L-1.0 9.05 -1.2 9.1 Q-4.3 10.2 -6.05 10.2 L-7.65 10.0 -8.05 9.65 -8.1 9.45 -7.95 9.05 Q-7.05 8.1 -4.85 7.75 L-7.5 6.95 Q-11.6 5.6 -13.05 4.0 L-13.15 3.65 -13.1 3.4 Q-13.0 3.05 -12.6 3.05 -8.55 3.1 -4.55 4.85 -8.45 1.05 -10.4 -2.25 -12.05 -5.15 -12.25 -7.05 L-12.25 -7.1 -12.0 -7.6 -11.4 -7.55 Q-5.4 -3.55 -2.05 2.2 -2.55 -0.8 -2.55 -3.8" fill="#000000" fill-rule="evenodd" stroke="none"/>
    <path d="M-2.55 -3.8 Q-2.55 -9.0 -0.5 -13.25 -0.35 -13.55 0.0 -13.55 0.4 -13.55 0.55 -13.25 2.6 -9.0 2.6 -3.8 2.6 -1.3 2.1 2.2 5.45 -3.55 11.4 -7.55 L12.05 -7.6 12.3 -7.1 12.3 -7.05 Q12.1 -5.05 10.4 -2.25 8.4 1.15 4.6 4.85 8.5 3.15 12.65 3.05 13.0 3.05 13.15 3.4 L13.2 3.65 13.05 4.0 Q11.65 5.6 7.55 6.95 L4.9 7.75 Q7.1 8.1 8.0 9.05 L8.15 9.45 8.1 9.65 7.7 10.0 6.1 10.2 Q4.2 10.2 1.25 9.1 L1.0 9.05 0.9 12.15 Q0.9 13.2 0.25 13.5 L0.0 13.55 -0.2 13.5 Q-0.75 13.25 -0.9 12.15 L-1.0 9.05 -1.2 9.1 Q-4.3 10.2 -6.05 10.2 L-7.65 10.0 -8.05 9.65 -8.1 9.45 -7.95 9.05 Q-7.05 8.1 -4.85 7.75 L-7.5 6.95 Q-11.6 5.6 -13.05 4.0 L-13.15 3.65 -13.1 3.4 Q-13.0 3.05 -12.6 3.05 -8.55 3.1 -4.55 4.85 -8.45 1.05 -10.4 -2.25 -12.05 -5.15 -12.25 -7.05 L-12.25 -7.1 -12.0 -7.6 -11.4 -7.55 Q-5.4 -3.55 -2.05 2.2 -2.55 -0.8 -2.55 -3.8" fill="#ffffff" fill-rule="evenodd" stroke="none"/>
    <path d="M0.0 -13.55 Q-0.35 -13.55 -0.5 -13.25 -2.55 -9.0 -2.55 -3.8 -2.55 -0.8 -2.05 2.2 -5.4 -3.55 -11.4 -7.55 L-11.7 -7.65 -12.0 -7.6 -12.25 -7.1 -12.25 -7.05 Q-12.05 -5.15 -10.4 -2.25 -8.45 1.05 -4.55 4.85 -8.55 3.1 -12.6 3.05 -13.0 3.05 -13.1 3.4 L-13.15 3.65 -13.05 4.0 Q-11.6 5.6 -7.5 6.95 L-4.85 7.75 Q-7.05 8.1 -7.95 9.05 L-8.1 9.45 -8.05 9.65 -7.65 10.0 -6.05 10.2 Q-4.3 10.2 -1.2 9.1 L-1.0 9.05 -0.9 12.15 Q-0.75 13.25 -0.2 13.5 L0.0 13.55 0.25 13.5 Q0.9 13.2 0.9 12.15 L1.0 9.05 1.25 9.1 Q4.2 10.2 6.1 10.2 L7.7 10.0 8.1 9.65 8.15 9.45 8.0 9.05 Q7.1 8.1 4.9 7.75 L7.55 6.95 Q11.65 5.6 13.05 4.0 L13.2 3.65 13.15 3.4 Q13.0 3.05 12.65 3.05 8.5 3.15 4.6 4.85 8.4 1.15 10.4 -2.25 12.1 -5.05 12.3 -7.05 L12.3 -7.1 12.05 -7.6 11.75 -7.65 11.4 -7.55 Q5.45 -3.55 2.1 2.2 2.6 -1.3 2.6 -3.8 2.6 -9.0 0.55 -13.25 0.4 -13.55 0.0 -13.55 M-1.4 -13.7 Q-0.9 -14.55 0.0 -14.55 0.95 -14.55 1.45 -13.65 3.6 -9.2 3.6 -3.8 L3.5 -1.65 Q6.45 -5.4 10.85 -8.4 L11.75 -8.65 12.55 -8.45 Q13.3 -7.95 13.3 -7.1 L13.3 -6.95 Q13.05 -4.75 11.3 -1.75 9.9 0.55 8.1 2.6 L12.65 2.05 Q13.65 2.05 14.05 2.95 L14.2 3.65 Q14.2 4.25 13.8 4.65 L11.25 6.6 8.1 7.85 8.7 8.4 Q9.15 8.85 9.15 9.45 L9.05 9.95 Q8.8 10.85 7.9 11.0 L6.1 11.2 Q4.35 11.2 1.95 10.4 L1.9 12.15 Q1.9 13.85 0.6 14.4 L0.0 14.55 -0.6 14.4 Q-1.7 13.9 -1.9 12.15 L-1.9 10.4 Q-4.4 11.2 -6.05 11.2 L-7.85 11.0 Q-8.7 10.85 -9.05 9.9 L-9.1 9.45 Q-9.1 8.9 -8.7 8.4 L-8.05 7.85 -11.2 6.6 -13.8 4.65 Q-14.15 4.3 -14.15 3.65 L-14.05 2.95 Q-13.65 2.05 -12.6 2.05 L-8.1 2.6 Q-9.95 0.5 -11.25 -1.75 -13.0 -4.65 -13.25 -6.95 L-13.25 -7.1 Q-13.25 -8.0 -12.5 -8.45 L-11.7 -8.65 -10.85 -8.4 Q-6.3 -5.3 -3.5 -1.65 L-3.55 -3.8 Q-3.55 -9.3 -1.4 -13.7" fill="#000000" fill-rule="evenodd" stroke="none"/>
  </g>
</svg>
