<?xml version="1.0" encoding="UTF-8" standalone="no"?>
<svg xmlns:ffdec="https://www.free-decompiler.com/flash" xmlns:xlink="http://www.w3.org/1999/xlink" ffdec:objectType="shape" height="29.1px" width="18.7px" xmlns="http://www.w3.org/2000/svg">
  <g transform="matrix(1.0, 0.0, 0.0, 1.0, 9.35, 14.55)">
    <path d="M6.0 -11.6 Q7.1 -10.65 7.7 -9.25 8.35 -7.7 8.35 -6.05 L8.05 -3.8 7.35 -2.2 6.3 -0.95 3.85 1.25 2.85 2.5 Q1.9 3.95 1.9 6.35 L-2.0 6.35 Q-2.0 2.1 -0.45 0.1 L1.95 -2.1 2.9 -3.1 3.55 -4.3 3.75 -5.9 Q3.75 -7.1 3.4 -7.8 L2.45 -9.1 1.3 -9.8 0.2 -10.0 Q-2.0 -10.0 -3.15 -8.5 -4.2 -7.0 -4.2 -4.5 L-8.35 -4.5 Q-8.35 -6.55 -7.75 -8.2 -7.15 -9.8 -6.0 -11.05 L-3.25 -12.9 0.4 -13.55 3.5 -13.05 Q4.9 -12.55 6.0 -11.6 M1.9 8.9 L1.9 13.55 -2.0 13.55 -2.0 8.9 1.9 8.9" fill="#ffffff" fill-rule="evenodd" stroke="none"/>
    <path d="M1.9 7.9 Q2.3 7.9 2.6 8.2 L2.9 8.9 2.9 13.55 2.6 14.25 1.9 14.55 -2.0 14.55 -2.7 14.25 -3.0 13.55 -3.0 8.9 -2.7 8.2 Q-2.4 7.9 -2.0 7.9 L1.9 7.9 M1.9 13.55 L1.9 8.9 -2.0 8.9 -2.0 13.55 1.9 13.55 M7.7 -9.25 Q7.1 -10.65 6.0 -11.6 4.9 -12.55 3.5 -13.05 L0.4 -13.55 -3.25 -12.9 -6.0 -11.05 Q-7.15 -9.8 -7.75 -8.2 -8.35 -6.55 -8.35 -4.5 L-4.2 -4.5 Q-4.2 -7.0 -3.15 -8.5 -2.0 -10.0 0.2 -10.0 L1.3 -9.8 2.45 -9.1 3.4 -7.8 Q3.75 -7.1 3.75 -5.9 L3.55 -4.3 2.9 -3.1 1.95 -2.1 -0.45 0.1 Q-2.0 2.1 -2.0 6.35 L1.9 6.35 Q1.9 3.95 2.85 2.5 L3.85 1.25 6.3 -0.95 7.35 -2.2 8.05 -3.8 8.35 -6.05 Q8.35 -7.7 7.7 -9.25 M-9.05 -3.8 L-9.35 -4.5 Q-9.35 -6.75 -8.7 -8.55 -8.05 -10.4 -6.75 -11.75 -5.35 -13.15 -3.6 -13.8 -1.8 -14.55 0.4 -14.55 L3.85 -14.0 Q5.45 -13.4 6.7 -12.35 7.95 -11.2 8.6 -9.65 9.35 -8.05 9.35 -6.05 9.35 -4.75 9.0 -3.55 L8.15 -1.65 6.95 -0.2 4.55 1.95 3.65 3.05 3.6 3.15 Q2.9 4.25 2.9 6.35 L2.6 7.05 1.9 7.35 -2.0 7.35 -2.7 7.05 -3.0 6.35 Q-3.0 1.65 -1.25 -0.45 L-1.2 -0.5 0.15 -1.9 2.1 -3.7 2.6 -4.65 2.75 -5.9 2.5 -7.4 1.8 -8.35 0.95 -8.85 0.2 -9.0 Q-1.55 -9.0 -2.3 -7.95 -3.2 -6.65 -3.2 -4.5 -3.2 -4.1 -3.5 -3.8 -3.8 -3.5 -4.2 -3.5 L-8.35 -3.5 Q-8.75 -3.5 -9.05 -3.8" fill="#000000" fill-rule="evenodd" stroke="none"/>
  </g>
</svg>
