<?xml version="1.0" encoding="UTF-8" standalone="no"?>
<svg xmlns:ffdec="https://www.free-decompiler.com/flash" xmlns:xlink="http://www.w3.org/1999/xlink" ffdec:objectType="shape" height="31.1px" width="19.45px" xmlns="http://www.w3.org/2000/svg">
  <g transform="matrix(1.0, 0.0, 0.0, 1.0, 9.7, 15.55)">
    <path d="M8.7 0.8 Q9.0 1.35 8.45 1.7 L7.15 2.45 Q6.6 2.75 6.25 2.2 L3.9 -1.85 3.9 13.9 Q3.9 14.55 3.25 14.55 L1.75 14.55 Q1.1 14.55 1.1 13.9 L1.1 4.15 -1.05 4.15 -1.05 13.9 Q-1.05 14.55 -1.7 14.55 L-3.2 14.55 Q-3.85 14.55 -3.85 13.9 L-3.85 -1.85 -6.2 2.2 Q-6.55 2.7 -7.1 2.45 L-8.4 1.7 Q-8.9 1.35 -8.65 0.8 L-3.7 -7.7 -3.2 -7.95 3.25 -7.95 3.8 -7.7 3.85 -7.55 8.7 0.8" fill="#ffffff" fill-rule="evenodd" stroke="none"/>
    <path d="M3.85 -7.55 L3.8 -7.7 3.25 -7.95 -3.2 -7.95 -3.7 -7.7 -8.65 0.8 Q-8.9 1.35 -8.4 1.7 L-7.1 2.45 -6.75 2.55 Q-6.35 2.55 -6.2 2.2 L-3.85 -1.85 -3.85 13.9 Q-3.85 14.55 -3.2 14.55 L-1.7 14.55 Q-1.05 14.55 -1.05 13.9 L-1.05 4.15 1.1 4.15 1.1 13.9 Q1.1 14.55 1.75 14.55 L3.25 14.55 Q3.9 14.55 3.9 13.9 L3.9 -1.85 6.25 2.2 Q6.5 2.55 6.8 2.55 L7.15 2.45 8.45 1.7 Q9.0 1.35 8.7 0.8 L3.85 -7.55 M3.25 -8.95 Q4.1 -8.95 4.6 -8.3 L4.65 -8.2 4.75 -8.05 9.55 0.3 Q9.9 0.9 9.7 1.55 L8.95 2.55 7.65 3.3 6.8 3.55 Q5.9 3.55 5.4 2.7 L4.9 1.85 4.9 13.9 Q4.9 14.6 4.4 15.1 3.95 15.55 3.25 15.55 L1.75 15.55 Q1.05 15.55 0.6 15.1 0.1 14.6 0.1 13.9 L0.1 5.15 -0.05 5.15 -0.05 13.9 Q-0.05 14.6 -0.55 15.1 -1.0 15.55 -1.7 15.55 L-3.2 15.55 Q-3.9 15.55 -4.35 15.1 -4.85 14.6 -4.85 13.9 L-4.85 1.85 -5.35 2.7 Q-5.85 3.55 -6.75 3.55 L-7.6 3.3 -8.9 2.55 Q-9.5 2.2 -9.65 1.55 -9.85 0.9 -9.5 0.3 L-4.65 -8.05 -4.6 -8.2 -4.5 -8.3 Q-4.0 -8.95 -3.2 -8.95 L3.25 -8.95" fill="#000000" fill-rule="evenodd" stroke="none"/>
    <path d="M0.05 -14.55 Q1.2 -14.55 2.0 -13.75 2.8 -12.95 2.8 -11.8 2.8 -10.65 2.0 -9.8 1.2 -9.0 0.05 -9.0 -1.1 -9.0 -1.95 -9.8 -2.75 -10.65 -2.75 -11.8 -2.75 -12.95 -1.95 -13.75 -1.1 -14.55 0.05 -14.55" fill="#ffffff" fill-rule="evenodd" stroke="none"/>
    <path d="M0.05 -9.0 Q1.2 -9.0 2.0 -9.8 2.8 -10.65 2.8 -11.8 2.8 -12.95 2.0 -13.75 1.2 -14.55 0.05 -14.55 -1.1 -14.55 -1.95 -13.75 -2.75 -12.95 -2.75 -11.8 -2.75 -10.65 -1.95 -9.8 -1.1 -9.0 0.05 -9.0 M0.05 -15.55 Q1.6 -15.55 2.7 -14.45 3.8 -13.35 3.8 -11.8 3.8 -10.25 2.7 -9.1 1.6 -8.0 0.05 -8.0 -1.5 -8.0 -2.65 -9.1 -3.75 -10.2 -3.75 -11.8 -3.75 -13.35 -2.65 -14.45 -1.55 -15.55 0.05 -15.55" fill="#000000" fill-rule="evenodd" stroke="none"/>
  </g>
</svg>
