<?xml version="1.0" encoding="UTF-8" standalone="no"?>
<svg xmlns:ffdec="https://www.free-decompiler.com/flash" xmlns:xlink="http://www.w3.org/1999/xlink" ffdec:objectType="shape" height="20.85px" width="27.1px" xmlns="http://www.w3.org/2000/svg">
  <g transform="matrix(1.0, 0.0, 0.0, 1.0, 13.55, 10.4)">
    <path d="M4.65 -1.5 L-4.65 -1.5 -4.65 -7.35 4.65 -7.35 4.65 -1.5" fill="#000000" fill-rule="evenodd" stroke="none"/>
    <path d="M4.35 -4.5 Q4.35 -6.45 2.9 -6.65 L-2.75 -6.65 Q-4.2 -6.4 -4.2 -4.5 L-4.2 -0.25 -3.1 -0.25 -3.1 -3.95 3.3 -3.95 3.3 -0.25 4.35 -0.25 4.35 -4.5 M7.1 -4.5 L7.1 -0.25 8.2 -0.25 8.2 -3.95 10.35 -3.95 Q11.25 -3.95 11.9 -3.3 12.55 -2.65 12.55 -1.75 L12.55 9.45 -12.55 9.45 -12.55 -1.75 Q-12.55 -2.65 -11.9 -3.3 -11.25 -3.95 -10.35 -3.95 L-8.05 -3.95 -8.05 -0.25 -6.95 -0.25 -6.95 -4.5 Q-6.95 -6.85 -5.45 -8.2 -4.35 -9.25 -2.95 -9.4 L3.0 -9.4 Q4.5 -9.25 5.65 -8.2 7.1 -6.9 7.1 -4.5" fill="#ffffff" fill-rule="evenodd" stroke="none"/>
    <path d="M3.35 -4.95 L2.8 -5.65 -2.65 -5.65 Q-3.05 -5.5 -3.15 -4.95 L3.35 -4.95 M2.9 -6.65 Q4.35 -6.45 4.35 -4.5 L4.35 -0.25 3.3 -0.25 3.3 -3.95 -3.1 -3.95 -3.1 -0.25 -4.2 -0.25 -4.2 -4.5 Q-4.2 -6.4 -2.75 -6.65 L2.9 -6.65 M8.2 -0.25 L7.1 -0.25 7.1 -4.5 Q7.1 -6.9 5.65 -8.2 4.5 -9.25 3.0 -9.4 L-2.95 -9.4 Q-4.35 -9.25 -5.45 -8.2 -6.95 -6.85 -6.95 -4.5 L-6.95 -0.25 -8.05 -0.25 -8.05 -3.95 -10.35 -3.95 Q-11.25 -3.95 -11.9 -3.3 -12.55 -2.65 -12.55 -1.75 L-12.55 9.45 12.55 9.45 12.55 -1.75 Q12.55 -2.65 11.9 -3.3 11.25 -3.95 10.35 -3.95 L8.2 -3.95 8.2 -0.25 M8.1 -4.95 L10.35 -4.95 Q11.65 -4.95 12.6 -4.0 13.55 -3.05 13.55 -1.75 L13.55 9.45 13.25 10.15 12.55 10.45 -12.55 10.45 -13.25 10.15 -13.55 9.45 -13.55 -1.75 Q-13.55 -3.05 -12.6 -4.0 -11.65 -4.95 -10.35 -4.95 L-7.9 -4.95 Q-7.75 -7.55 -6.0 -9.05 -4.7 -10.2 -3.05 -10.35 L-2.95 -10.4 3.1 -10.4 Q4.85 -10.2 6.2 -9.05 7.95 -7.55 8.1 -4.95" fill="#000000" fill-rule="evenodd" stroke="none"/>
  </g>
</svg>
