<?xml version="1.0" encoding="UTF-8" standalone="no"?>
<svg xmlns:ffdec="https://www.free-decompiler.com/flash" xmlns:xlink="http://www.w3.org/1999/xlink" ffdec:objectType="shape" height="27.85px" width="21.4px" xmlns="http://www.w3.org/2000/svg">
  <g transform="matrix(1.0, 0.0, 0.0, 1.0, 10.7, 13.9)">
    <path d="M-9.7 12.95 L-9.7 -12.9 9.7 -12.9 9.7 12.95 -9.7 12.95" fill="#ffffff" fill-rule="evenodd" stroke="none"/>
    <path d="M-10.7 13.95 L-10.7 -13.9 10.7 -13.9 10.7 13.95 -10.7 13.95 M-9.7 -12.9 L-9.7 12.95 9.7 12.95 9.7 -12.9 -9.7 -12.9" fill="#000000" fill-rule="evenodd" stroke="none"/>
    <path d="M-7.85 -10.55 L1.4 -10.55 1.4 -1.35 -7.85 -1.35 -7.85 -10.55" fill="#000000" fill-rule="evenodd" stroke="none"/>
    <path d="M-7.85 2.35 L6.95 2.35 6.95 5.1 -7.85 5.1 -7.85 2.35" fill="#000000" fill-rule="evenodd" stroke="none"/>
    <path d="M-7.85 7.45 L6.95 7.45 6.95 10.2 -7.85 10.2 -7.85 7.45" fill="#000000" fill-rule="evenodd" stroke="none"/>
  </g>
</svg>
