<?xml version="1.0" encoding="UTF-8" standalone="no"?>
<svg xmlns:ffdec="https://www.free-decompiler.com/flash" xmlns:xlink="http://www.w3.org/1999/xlink" ffdec:objectType="shape" height="29.1px" width="29.1px" xmlns="http://www.w3.org/2000/svg">
  <g transform="matrix(1.0, 0.0, 0.0, 1.0, 14.55, 14.55)">
    <path d="M-6.8 -1.75 L-4.45 0.55 5.6 0.55 -1.75 -6.8 -6.8 -1.75 M-13.5 -7.05 L-13.25 -7.8 -7.8 -13.25 -6.7 -13.35 -5.9 -12.6 Q-5.45 -12.05 -6.0 -11.5 L-8.0 -9.5 -6.45 -7.95 -5.05 -9.35 -4.6 -9.7 -3.7 -9.65 -2.5 -8.45 -0.9 -10.05 Q-0.3 -10.65 0.2 -10.2 L0.4 -10.0 Q0.9 -9.45 0.3 -8.85 L-0.7 -7.85 6.65 -0.45 Q8.1 1.0 8.1 3.1 L7.9 4.55 10.25 6.9 10.65 8.2 10.65 8.25 10.15 8.75 12.7 11.35 13.5 13.55 11.3 12.7 8.75 10.15 8.25 10.65 8.2 10.65 7.55 10.55 6.85 10.25 4.55 7.9 1.85 7.95 Q0.55 7.65 -0.45 6.65 L-7.85 -0.7 -8.85 0.3 -9.65 0.55 -10.0 0.4 -10.2 0.2 -10.35 -0.1 Q-10.45 -0.5 -10.1 -0.9 L-8.45 -2.5 -9.65 -3.7 Q-10.0 -4.05 -9.75 -4.55 L-9.4 -5.0 -7.95 -6.45 -9.5 -8.0 -11.5 -6.0 Q-11.8 -5.7 -12.25 -5.75 L-12.6 -5.9 -13.35 -6.7 -13.5 -7.05" fill="#ffffff" fill-rule="evenodd" stroke="none"/>
    <path d="M-4.45 0.55 L-6.8 -1.75 -1.75 -6.8 5.6 0.55 -4.45 0.55 M-5.35 -1.75 L-4.0 -0.45 3.2 -0.45 -1.75 -5.35 -5.35 -1.75 M-13.2 -5.1 L-14.1 -5.95 -14.15 -6.05 -14.55 -7.1 Q-14.55 -7.9 -13.95 -8.5 L-8.5 -13.95 Q-7.9 -14.55 -7.2 -14.55 -6.35 -14.55 -6.0 -14.05 L-5.15 -13.25 Q-4.75 -12.8 -4.75 -12.15 -4.7 -11.35 -5.3 -10.8 L-6.6 -9.5 -6.45 -9.35 -5.75 -10.05 -5.25 -10.5 Q-4.7 -10.85 -4.15 -10.85 -3.45 -10.85 -3.0 -10.35 L-2.5 -9.9 -1.6 -10.8 Q-1.0 -11.35 -0.25 -11.35 L0.95 -10.9 1.2 -10.65 1.6 -9.55 Q1.6 -8.75 1.0 -8.15 L0.7 -7.85 7.35 -1.15 Q9.1 0.55 9.1 3.1 L9.0 4.25 10.95 6.15 Q11.45 6.65 11.6 8.05 L11.65 8.15 11.5 8.75 13.45 10.65 13.65 11.0 14.45 13.2 Q14.7 13.75 14.25 14.25 L13.5 14.55 13.15 14.45 10.95 13.6 10.6 13.4 8.7 11.55 8.25 11.65 8.05 11.65 Q6.75 11.45 6.15 10.95 L4.25 9.0 3.05 9.1 Q0.55 9.1 -1.15 7.35 L-7.85 0.7 -7.85 0.75 -8.15 1.0 Q-8.75 1.6 -9.5 1.6 -10.2 1.6 -10.6 1.2 L-10.7 1.15 -10.9 0.95 -10.95 0.85 -11.35 -0.2 Q-11.35 -1.0 -10.8 -1.6 L-9.9 -2.5 -10.35 -3.0 Q-10.85 -3.45 -10.85 -4.15 -10.85 -5.0 -10.1 -5.75 L-9.35 -6.45 -9.5 -6.6 -10.75 -5.3 Q-11.4 -4.75 -12.1 -4.75 L-13.2 -5.1 M-13.25 -7.8 L-13.5 -7.05 -13.35 -6.7 -12.6 -5.9 -12.1 -5.75 Q-11.75 -5.75 -11.5 -6.0 L-9.5 -8.0 -7.95 -6.45 -9.4 -5.0 -9.75 -4.55 Q-10.0 -4.05 -9.65 -3.7 L-8.45 -2.5 -10.1 -0.9 Q-10.45 -0.5 -10.35 -0.1 L-10.2 0.2 -10.0 0.4 -9.5 0.6 Q-9.2 0.6 -8.85 0.3 L-7.85 -0.7 -0.45 6.65 Q1.0 8.1 3.05 8.1 L4.55 7.9 6.85 10.25 7.55 10.55 8.2 10.65 8.25 10.65 8.75 10.15 11.3 12.7 13.5 13.55 12.7 11.35 10.15 8.75 10.65 8.25 10.65 8.2 10.25 6.9 7.9 4.55 8.1 3.1 Q8.1 1.0 6.65 -0.45 L-0.7 -7.85 0.3 -8.85 Q0.9 -9.45 0.4 -10.0 L0.2 -10.2 -0.25 -10.35 -0.9 -10.05 -2.5 -8.45 -3.7 -9.65 -4.15 -9.85 -4.75 -9.6 -5.05 -9.35 -6.45 -7.95 -8.0 -9.5 -6.0 -11.5 Q-5.45 -12.05 -5.9 -12.6 L-6.7 -13.35 Q-6.9 -13.55 -7.2 -13.55 L-7.8 -13.25 -13.25 -7.8" fill="#000000" fill-rule="evenodd" stroke="none"/>
    <path d="M-4.45 0.55 L-6.8 -1.75 -1.75 -6.8 5.6 0.55 -4.45 0.55" fill="#000000" fill-rule="evenodd" stroke="none"/>
  </g>
</svg>
