<?xml version="1.0" encoding="UTF-8" standalone="no"?>
<svg xmlns:ffdec="https://www.free-decompiler.com/flash" xmlns:xlink="http://www.w3.org/1999/xlink" ffdec:objectType="shape" height="28.0px" width="28.0px" xmlns="http://www.w3.org/2000/svg">
  <g transform="matrix(1.0, 0.0, 0.0, 1.0, 14.0, 14.0)">
    <path d="M-8.85 -9.5 Q-4.9 -13.2 0.45 -13.0 5.85 -12.8 9.5 -8.85 13.2 -4.9 13.0 0.45 12.8 5.85 8.85 9.5 4.9 13.2 -0.45 13.0 -5.85 12.8 -9.5 8.85 -13.2 4.9 -13.0 -0.45 -12.8 -5.85 -8.85 -9.5" fill="#f5f5f5" fill-rule="evenodd" stroke="none"/>
    <path d="M-9.05 -9.35 Q-12.8 -5.7 -13.0 -0.45 -13.2 4.9 -9.5 8.85 -5.85 12.8 -0.45 13.0 L0.0 13.0 Q5.25 13.0 9.0 9.35 12.8 5.7 13.0 0.45 13.2 -4.9 9.5 -8.85 5.85 -12.8 0.45 -13.0 L0.0 -13.0 Q-5.25 -13.0 -9.05 -9.35 M-10.25 9.55 Q-14.2 5.3 -14.0 -0.5 -13.8 -6.15 -9.75 -10.1 -5.7 -14.0 0.0 -14.0 L0.5 -14.0 Q6.25 -13.75 10.25 -9.55 14.15 -5.35 14.0 0.5 13.8 6.2 9.75 10.1 5.7 14.0 0.0 14.0 L-0.5 14.0 Q-6.25 13.8 -10.25 9.55" fill="#000000" fill-rule="evenodd" stroke="none"/>
    <path d="M-6.0 5.6 Q-3.7 8.1 -0.3 8.2 0.3 8.2 0.7 8.65 1.15 9.1 1.1 9.7 L0.65 10.7 Q0.2 11.1 -0.4 11.1 -5.0 10.9 -8.1 7.55 -11.25 4.15 -11.05 -0.4 -11.05 -1.0 -10.6 -1.4 -10.15 -1.8 -9.6 -1.8 L-8.6 -1.35 Q-8.15 -0.9 -8.2 -0.3 -8.3 3.1 -6.0 5.6" fill="#000000" fill-rule="evenodd" stroke="none"/>
    <path d="M4.8 0.2 Q4.75 2.2 3.3 3.55 1.8 4.9 -0.2 4.8 -2.2 4.75 -3.55 3.3 -4.85 1.85 -4.8 -0.15 -4.7 -2.15 -3.3 -3.5 -1.85 -4.85 0.15 -4.8 2.2 -4.7 3.55 -3.25 4.9 -1.8 4.8 0.2" fill="#000000" fill-rule="evenodd" stroke="none"/>
  </g>
</svg>
