<?xml version="1.0" encoding="UTF-8" standalone="no"?>
<svg xmlns:ffdec="https://www.free-decompiler.com/flash" xmlns:xlink="http://www.w3.org/1999/xlink" ffdec:objectType="shape" height="17.75px" width="17.75px" xmlns="http://www.w3.org/2000/svg">
  <g transform="matrix(1.0, 0.0, 0.0, 1.0, 8.85, 8.85)">
    <path d="M7.65 0.05 Q7.65 -3.15 5.4 -5.35 3.2 -7.6 0.0 -7.6 -3.15 -7.6 -5.4 -5.35 -7.65 -3.15 -7.65 0.05 -7.65 3.2 -5.4 5.45 -3.15 7.7 0.0 7.7 3.2 7.7 5.4 5.45 7.65 3.2 7.65 0.05 M6.3 -6.25 Q8.9 -3.6 8.9 0.05 8.9 3.7 6.3 6.3 3.7 8.9 0.0 8.9 -3.65 8.9 -6.25 6.3 -8.85 3.75 -8.85 0.05 -8.85 -3.65 -6.25 -6.25 -3.65 -8.85 0.0 -8.85 3.7 -8.85 6.3 -6.25" fill="#ffffff" fill-rule="evenodd" stroke="none"/>
    <path d="M1.55 0.9 Q0.9 0.4 0.0 0.4 -0.95 0.4 -1.5 0.9 -2.1 1.45 -2.1 2.35 -2.1 3.3 -1.5 3.9 -0.95 4.4 0.0 4.4 0.9 4.4 1.55 3.9 2.15 3.3 2.15 2.35 2.15 1.45 1.55 0.9 M3.95 2.35 L3.65 3.8 2.85 4.9 1.6 5.6 0.0 5.85 -1.55 5.6 -2.8 4.9 -3.65 3.8 -3.95 2.35 Q-3.95 1.35 -3.4 0.55 -2.85 -0.2 -1.9 -0.4 L-3.05 -1.3 Q-3.5 -1.9 -3.5 -2.75 -3.5 -4.15 -2.6 -5.0 -1.65 -5.8 0.0 -5.8 1.65 -5.8 2.6 -5.0 3.5 -4.15 3.5 -2.75 3.5 -1.95 3.1 -1.3 2.65 -0.7 1.9 -0.4 2.85 -0.2 3.4 0.55 3.95 1.25 3.95 2.35 M-1.25 -3.9 Q-1.75 -3.45 -1.75 -2.65 -1.75 -1.75 -1.25 -1.4 -0.8 -1.0 0.0 -1.0 0.85 -1.0 1.25 -1.4 1.75 -1.75 1.75 -2.65 1.75 -3.45 1.25 -3.9 0.75 -4.35 0.0 -4.35 -0.7 -4.35 -1.25 -3.9" fill="#ffffff" fill-rule="evenodd" stroke="none"/>
  </g>
</svg>
