<?xml version="1.0" encoding="UTF-8" standalone="no"?>
<svg xmlns:ffdec="https://www.free-decompiler.com/flash" xmlns:xlink="http://www.w3.org/1999/xlink" ffdec:objectType="shape" height="20.95px" width="28.5px" xmlns="http://www.w3.org/2000/svg">
  <g transform="matrix(1.0, 0.0, 0.0, 1.0, 14.25, 10.45)">
    <path d="M13.25 -9.45 L13.25 9.5 -13.25 9.5 -13.25 -9.45 13.25 -9.45" fill="#ffffff" fill-rule="evenodd" stroke="none"/>
    <path d="M13.25 -9.45 L13.25 9.5 -13.25 9.5 -13.25 -9.45 13.25 -9.45" fill="#ffffff" fill-rule="evenodd" stroke="none"/>
    <path d="M14.25 -10.45 L14.25 10.5 -14.25 10.5 -14.25 -10.45 14.25 -10.45 M13.25 9.5 L13.25 -9.45 -13.25 -9.45 -13.25 9.5 13.25 9.5" fill="#000000" fill-rule="evenodd" stroke="none"/>
    <path d="M-2.05 -1.1 Q-1.2 -1.95 -0.05 -1.95 1.1 -1.95 1.95 -1.1 2.8 -0.3 2.8 0.9 L2.8 4.1 Q2.8 5.25 1.95 6.1 1.1 6.95 -0.05 6.95 -1.2 6.95 -2.05 6.1 -2.9 5.25 -2.9 4.1 L-2.9 0.9 Q-2.9 -0.3 -2.05 -1.1" fill="#000000" fill-rule="evenodd" stroke="none"/>
    <path d="M-9.75 4.2 L-13.25 4.2 Q-13.6 3.95 -13.6 2.3 -13.6 0.7 -13.25 0.45 L-9.75 0.45 Q-8.95 0.45 -8.4 1.0 -7.85 1.55 -7.85 2.3 -7.85 3.1 -8.4 3.65 -8.95 4.2 -9.75 4.2" fill="#000000" fill-rule="evenodd" stroke="none"/>
    <path d="M13.25 4.2 L9.75 4.2 Q8.95 4.2 8.4 3.65 7.85 3.1 7.85 2.35 7.85 1.55 8.4 1.0 8.95 0.45 9.75 0.45 L13.25 0.45 Q13.7 0.95 13.7 2.35 13.65 3.75 13.25 4.2" fill="#000000" fill-rule="evenodd" stroke="none"/>
    <path d="M13.65 -4.15 L-13.75 -4.1 -13.75 -6.95 13.65 -7.0 13.65 -4.15" fill="#000000" fill-rule="evenodd" stroke="none"/>
  </g>
</svg>
