<?xml version="1.0" encoding="UTF-8" standalone="no"?>
<svg xmlns:ffdec="https://www.free-decompiler.com/flash" xmlns:xlink="http://www.w3.org/1999/xlink" ffdec:objectType="shape" height="27.95px" width="14.6px" xmlns="http://www.w3.org/2000/svg">
  <g transform="matrix(1.0, 0.0, 0.0, 1.0, 7.3, 13.95)">
    <path d="M6.3 -8.85 L5.0 -5.25 Q3.5 -6.55 1.1 -6.6 -0.25 -6.6 -1.05 -6.0 -1.85 -5.4 -1.9 -4.35 -1.9 -3.45 -1.35 -2.85 -0.75 -2.15 0.95 -1.5 6.4 0.5 6.3 4.55 6.25 6.3 5.3 7.65 4.35 9.05 2.6 9.75 L2.6 13.0 -1.1 13.0 -1.1 10.3 Q-3.6 10.2 -5.2 9.35 L-6.3 8.55 -5.1 4.9 Q-2.65 6.6 -0.45 6.6 1.2 6.65 1.85 5.85 L2.2 4.8 Q2.2 3.95 1.65 3.4 1.0 2.75 -0.9 2.0 -3.25 1.1 -4.4 -0.1 -6.05 -1.75 -6.0 -4.2 -5.95 -6.35 -4.7 -7.9 -3.4 -9.5 -1.1 -10.0 L-1.1 -12.95 2.6 -12.95 2.6 -10.2 Q5.05 -9.85 6.3 -8.85" fill="#ffffff" fill-rule="evenodd" stroke="none"/>
    <path d="M5.0 -5.25 L6.3 -8.85 Q5.05 -9.85 2.6 -10.2 L2.6 -12.95 -1.1 -12.95 -1.1 -10.0 Q-3.4 -9.5 -4.7 -7.9 -5.95 -6.35 -6.0 -4.2 -6.05 -1.75 -4.4 -0.1 -3.25 1.1 -0.9 2.0 1.0 2.75 1.65 3.4 2.2 3.95 2.2 4.8 2.2 6.6 -0.35 6.6 L-0.45 6.6 Q-2.65 6.6 -5.1 4.9 L-6.3 8.55 -5.2 9.35 Q-3.6 10.2 -1.1 10.3 L-1.1 13.0 2.6 13.0 2.6 9.75 Q4.35 9.05 5.3 7.65 6.25 6.3 6.3 4.55 6.4 0.5 0.95 -1.5 -0.75 -2.15 -1.35 -2.85 -1.9 -3.45 -1.9 -4.35 -1.85 -5.35 -1.1 -6.0 -0.3 -6.6 1.05 -6.6 L1.1 -6.6 Q3.5 -6.55 5.0 -5.25 M3.6 -11.05 L6.0 -10.2 6.9 -9.65 Q7.45 -9.2 7.25 -8.55 L5.95 -4.95 Q5.8 -4.45 5.25 -4.3 L5.0 -4.25 4.35 -4.5 Q3.1 -5.55 1.1 -5.6 L1.05 -5.6 Q-0.85 -5.6 -0.9 -4.35 L-0.6 -3.55 Q-0.15 -3.0 1.3 -2.45 7.4 -0.15 7.3 4.6 7.25 6.5 6.3 8.0 5.3 9.55 3.6 10.4 L3.6 13.0 3.35 13.7 2.6 14.0 -1.1 14.0 -1.8 13.7 -2.1 13.0 -2.1 11.2 Q-4.4 11.0 -5.9 10.1 -6.75 9.65 -7.1 9.15 L-7.25 8.25 -6.05 4.6 Q-5.9 4.1 -5.4 3.95 L-5.1 3.9 -4.55 4.05 Q-2.3 5.6 -0.4 5.6 L-0.35 5.6 Q1.2 5.6 1.2 4.8 L0.9 4.1 Q0.4 3.6 -1.25 2.95 -3.85 1.9 -5.15 0.55 -7.05 -1.35 -7.0 -4.25 -6.95 -6.55 -5.65 -8.3 -4.35 -10.0 -2.1 -10.75 L-2.1 -12.95 -1.8 -13.65 -1.1 -13.95 2.6 -13.95 3.35 -13.65 3.6 -12.95 3.6 -11.05" fill="#000000" fill-rule="evenodd" stroke="none"/>
  </g>
</svg>
