<?xml version="1.0" encoding="UTF-8" standalone="no"?>
<svg xmlns:ffdec="https://www.free-decompiler.com/flash" xmlns:xlink="http://www.w3.org/1999/xlink" ffdec:objectType="shape" height="21.05px" width="26.9px" xmlns="http://www.w3.org/2000/svg">
  <g transform="matrix(1.0, 0.0, 0.0, 1.0, 13.45, 10.5)">
    <path d="M8.9 4.0 L-8.9 4.0 -8.9 -3.95 8.9 -3.95 8.9 4.0" fill="#000000" fill-rule="evenodd" stroke="none"/>
    <path d="M11.4 2.25 L-11.35 2.25 -11.35 -2.25 11.4 -2.25 11.4 2.25" fill="#000000" fill-rule="evenodd" stroke="none"/>
    <path d="M-7.65 1.7 Q-7.65 2.4 -8.0 2.85 -8.35 3.35 -8.85 3.35 -9.35 3.35 -9.65 2.85 -10.0 2.4 -10.0 1.7 -10.0 1.0 -9.65 0.55 -9.35 0.05 -8.85 0.05 -8.35 0.05 -8.0 0.55 -7.65 1.05 -7.65 1.7" fill="#ffffff" fill-rule="evenodd" stroke="none"/>
    <path d="M-7.65 1.7 Q-7.65 2.4 -8.0 2.85 -8.35 3.35 -8.85 3.35 -9.35 3.35 -9.65 2.85 -10.0 2.4 -10.0 1.7 -10.0 1.0 -9.65 0.55 -9.35 0.05 -8.85 0.05 -8.35 0.05 -8.0 0.55 -7.65 1.05 -7.65 1.7 Z" fill="none" stroke="#000000" stroke-linecap="butt" stroke-linejoin="round" stroke-width="2.9000000000000004"/>
    <path d="M10.1 1.95 L9.8 3.0 Q9.45 3.45 9.0 3.45 8.5 3.45 8.2 3.0 7.9 2.6 7.9 1.95 7.9 1.35 8.2 0.95 8.5 0.5 9.0 0.5 9.45 0.5 9.8 0.95 L10.1 1.95" fill="#ffffff" fill-rule="evenodd" stroke="none"/>
    <path d="M10.1 1.95 L9.8 3.0 Q9.45 3.45 9.0 3.45 8.5 3.45 8.2 3.0 7.9 2.6 7.9 1.95 7.9 1.35 8.2 0.95 8.5 0.5 9.0 0.5 9.45 0.5 9.8 0.95 L10.1 1.95 Z" fill="none" stroke="#000000" stroke-linecap="butt" stroke-linejoin="round" stroke-width="3.0500000000000003"/>
    <path d="M-8.85 -0.3 Q-9.75 -0.3 -10.35 0.35 -11.0 0.95 -11.0 1.85 -11.0 2.75 -10.35 3.4 -9.75 4.0 -8.85 4.0 -8.0 4.0 -7.35 3.4 -6.7 2.75 -6.7 1.85 -6.7 0.95 -7.35 0.35 -8.0 -0.3 -8.85 -0.3 M8.9 -0.3 Q8.0 -0.3 7.4 0.35 6.75 0.95 6.75 1.85 6.75 2.75 7.4 3.4 8.0 4.0 8.9 4.0 9.8 4.0 10.45 3.4 11.05 2.75 11.05 1.85 11.05 0.95 10.45 0.35 9.8 -0.3 8.9 -0.3 M7.85 -7.05 L7.6 -7.65 7.0 -7.9 -7.0 -7.9 -7.55 -7.65 -7.8 -7.05 -8.55 -2.6 8.55 -2.6 7.85 -7.05 M7.9 -9.5 Q8.6 -9.5 9.1 -9.0 9.6 -8.5 9.6 -7.8 L10.55 -1.1 10.75 -1.1 Q11.45 -1.1 11.95 -0.6 12.45 -0.1 12.45 0.6 L12.45 3.0 Q12.45 3.65 12.0 4.15 11.6 4.65 10.95 4.7 L10.95 7.85 Q10.95 8.55 10.45 9.05 9.95 9.55 9.25 9.55 L8.6 9.55 Q7.9 9.55 7.4 9.05 6.9 8.55 6.9 7.85 L6.9 4.7 -6.85 4.7 -6.85 7.85 Q-6.85 8.55 -7.35 9.05 -7.85 9.55 -8.55 9.55 L-9.2 9.55 Q-9.9 9.55 -10.45 9.05 -10.95 8.55 -10.95 7.85 L-10.95 4.7 Q-11.55 4.65 -12.0 4.15 -12.45 3.65 -12.45 3.0 L-12.45 0.6 Q-12.45 -0.1 -11.95 -0.6 L-10.7 -1.1 -10.5 -1.1 -9.55 -7.8 Q-9.55 -8.5 -9.05 -9.0 -8.55 -9.5 -7.85 -9.5 L7.9 -9.5" fill="#ffffff" fill-rule="evenodd" stroke="none"/>
    <path d="M7.9 -9.5 L-7.85 -9.5 Q-8.55 -9.5 -9.05 -9.0 -9.55 -8.5 -9.55 -7.8 L-10.5 -1.1 -10.7 -1.1 -11.95 -0.6 Q-12.45 -0.1 -12.45 0.6 L-12.45 3.0 Q-12.45 3.65 -12.0 4.15 -11.55 4.65 -10.95 4.7 L-10.95 7.85 Q-10.95 8.55 -10.45 9.05 -9.9 9.55 -9.2 9.55 L-8.55 9.55 Q-7.85 9.55 -7.35 9.05 -6.85 8.55 -6.85 7.85 L-6.85 4.7 6.9 4.7 6.9 7.85 Q6.9 8.55 7.4 9.05 7.9 9.55 8.6 9.55 L9.25 9.55 Q9.95 9.55 10.45 9.05 10.95 8.55 10.95 7.85 L10.95 4.7 Q11.6 4.65 12.0 4.15 12.45 3.65 12.45 3.0 L12.45 0.6 Q12.45 -0.1 11.95 -0.6 11.45 -1.1 10.75 -1.1 L10.55 -1.1 9.6 -7.8 Q9.6 -8.5 9.1 -9.0 8.6 -9.5 7.9 -9.5 M7.85 -7.05 L8.55 -2.6 -8.55 -2.6 -7.8 -7.05 -7.55 -7.65 -7.0 -7.9 7.0 -7.9 7.6 -7.65 7.85 -7.05 M8.9 -0.3 Q9.8 -0.3 10.45 0.35 11.05 0.95 11.05 1.85 11.05 2.75 10.45 3.4 9.8 4.0 8.9 4.0 8.0 4.0 7.4 3.4 6.75 2.75 6.75 1.85 6.75 0.95 7.4 0.35 8.0 -0.3 8.9 -0.3 M-8.85 -0.3 Q-8.0 -0.3 -7.35 0.35 -6.7 0.95 -6.7 1.85 -6.7 2.75 -7.35 3.4 -8.0 4.0 -8.85 4.0 -9.75 4.0 -10.35 3.4 -11.0 2.75 -11.0 1.85 -11.0 0.95 -10.35 0.35 -9.75 -0.3 -8.85 -0.3 Z" fill="none" stroke="#000000" stroke-linecap="butt" stroke-linejoin="round" stroke-width="1.0"/>
    <path d="M-8.85 -0.3 Q-9.75 -0.3 -10.35 0.35 -11.0 0.95 -11.0 1.85 -11.0 2.75 -10.35 3.4 -9.75 4.0 -8.85 4.0 -8.0 4.0 -7.35 3.4 -6.7 2.75 -6.7 1.85 -6.7 0.95 -7.35 0.35 -8.0 -0.3 -8.85 -0.3 M8.9 -0.3 Q8.0 -0.3 7.4 0.35 6.75 0.95 6.75 1.85 6.75 2.75 7.4 3.4 8.0 4.0 8.9 4.0 9.8 4.0 10.45 3.4 11.05 2.75 11.05 1.85 11.05 0.95 10.45 0.35 9.8 -0.3 8.9 -0.3 M7.85 -7.05 L7.6 -7.65 7.0 -7.9 -7.0 -7.9 -7.55 -7.65 -7.8 -7.05 -8.55 -2.6 8.55 -2.6 7.85 -7.05 M7.9 -9.5 Q8.6 -9.5 9.1 -9.0 9.6 -8.5 9.6 -7.8 L10.55 -1.1 10.75 -1.1 Q11.45 -1.1 11.95 -0.6 12.45 -0.1 12.45 0.6 L12.45 3.0 Q12.45 3.65 12.0 4.15 11.6 4.65 10.95 4.7 L10.95 7.85 Q10.95 8.55 10.45 9.05 9.95 9.55 9.25 9.55 L8.6 9.55 Q7.9 9.55 7.4 9.05 6.9 8.55 6.9 7.85 L6.9 4.7 -6.85 4.7 -6.85 7.85 Q-6.85 8.55 -7.35 9.05 -7.85 9.55 -8.55 9.55 L-9.2 9.55 Q-9.9 9.55 -10.45 9.05 -10.95 8.55 -10.95 7.85 L-10.95 4.7 Q-11.55 4.65 -12.0 4.15 -12.45 3.65 -12.45 3.0 L-12.45 0.6 Q-12.45 -0.1 -11.95 -0.6 L-10.7 -1.1 -10.5 -1.1 -9.55 -7.8 Q-9.55 -8.5 -9.05 -9.0 -8.55 -9.5 -7.85 -9.5 L7.9 -9.5" fill="#ffffff" fill-rule="evenodd" stroke="none"/>
    <path d="M-10.35 0.35 Q-9.75 -0.3 -8.85 -0.3 -8.0 -0.3 -7.35 0.35 -6.7 0.95 -6.7 1.85 -6.7 2.75 -7.35 3.4 -8.0 4.0 -8.85 4.0 -9.75 4.0 -10.35 3.4 -11.0 2.75 -11.0 1.85 -11.0 0.95 -10.35 0.35 M-8.85 0.7 Q-9.35 0.7 -9.65 1.05 -10.0 1.35 -10.0 1.85 -10.0 2.35 -9.65 2.65 -9.35 3.0 -8.85 3.0 -8.4 3.0 -8.05 2.65 -7.7 2.35 -7.7 1.85 -7.7 1.35 -8.05 1.05 -8.4 0.7 -8.85 0.7 M7.4 -3.6 L6.85 -6.9 -6.8 -6.9 -7.35 -3.6 7.4 -3.6 M10.05 1.85 Q10.05 1.35 9.7 1.05 9.4 0.7 8.9 0.7 8.4 0.7 8.1 1.05 7.75 1.35 7.75 1.85 7.75 2.35 8.1 2.65 8.4 3.0 8.9 3.0 9.4 3.0 9.7 2.65 10.05 2.35 10.05 1.85 M7.4 0.35 Q8.0 -0.3 8.9 -0.3 9.8 -0.3 10.45 0.35 11.05 0.95 11.05 1.85 11.05 2.75 10.45 3.4 9.8 4.0 8.9 4.0 8.0 4.0 7.4 3.4 6.75 2.75 6.75 1.85 6.75 0.95 7.4 0.35 M9.8 -9.7 Q10.55 -8.95 10.6 -7.85 L11.45 -2.05 12.9 -1.1 Q13.45 -0.35 13.45 0.6 L13.45 3.0 Q13.45 4.65 11.95 5.4 L11.95 7.85 Q11.95 9.0 11.15 9.75 10.4 10.55 9.25 10.55 L8.6 10.55 Q7.5 10.55 6.7 9.75 5.9 9.0 5.9 7.85 L5.9 5.7 -5.85 5.7 -5.85 7.85 Q-5.85 9.0 -6.65 9.75 -7.4 10.55 -8.55 10.55 L-9.2 10.55 Q-10.35 10.55 -11.15 9.75 -11.95 8.95 -11.95 7.85 L-11.95 5.4 Q-13.45 4.6 -13.45 3.0 L-13.45 0.6 Q-13.45 -0.3 -12.85 -1.1 -12.25 -1.8 -11.4 -2.05 L-10.55 -7.85 Q-10.55 -8.95 -9.75 -9.7 -8.95 -10.5 -7.85 -10.5 L7.9 -10.5 Q9.0 -10.5 9.8 -9.7 M9.1 -9.0 Q8.6 -9.5 7.9 -9.5 L-7.85 -9.5 Q-8.55 -9.5 -9.05 -9.0 -9.55 -8.5 -9.55 -7.8 L-10.5 -1.1 -10.7 -1.1 -11.95 -0.6 Q-12.45 -0.1 -12.45 0.6 L-12.45 3.0 Q-12.45 3.65 -12.0 4.15 -11.55 4.65 -10.95 4.7 L-10.95 7.85 Q-10.95 8.55 -10.45 9.05 -9.9 9.55 -9.2 9.55 L-8.55 9.55 Q-7.85 9.55 -7.35 9.05 -6.85 8.55 -6.85 7.85 L-6.85 4.7 6.9 4.7 6.9 7.85 Q6.9 8.55 7.4 9.05 7.9 9.55 8.6 9.55 L9.25 9.55 Q9.95 9.55 10.45 9.05 10.95 8.55 10.95 7.85 L10.95 4.7 Q11.6 4.65 12.0 4.15 12.45 3.65 12.45 3.0 L12.45 0.6 Q12.45 -0.1 11.95 -0.6 11.45 -1.1 10.75 -1.1 L10.55 -1.1 9.6 -7.8 Q9.6 -8.5 9.1 -9.0 M7.6 -7.65 L7.85 -7.05 8.55 -2.6 -8.55 -2.6 -7.8 -7.05 -7.55 -7.65 -7.0 -7.9 7.0 -7.9 7.6 -7.65" fill="#000000" fill-rule="evenodd" stroke="none"/>
  </g>
</svg>
