<?xml version="1.0" encoding="UTF-8" standalone="no"?>
<svg xmlns:ffdec="https://www.free-decompiler.com/flash" xmlns:xlink="http://www.w3.org/1999/xlink" ffdec:objectType="shape" height="29.15px" width="26.95px" xmlns="http://www.w3.org/2000/svg">
  <g transform="matrix(1.0, 0.0, 0.0, 1.0, 13.45, 14.55)">
    <path d="M3.65 -8.3 L3.25 -7.5 2.85 -7.0 2.1 -6.4 1.5 -6.1 1.5 -5.15 4.95 -5.15 Q5.55 -5.15 6.0 -4.7 6.4 -4.3 6.4 -3.7 6.4 -3.1 6.0 -2.65 5.55 -2.25 4.95 -2.25 L1.5 -2.25 1.5 8.45 2.8 8.15 2.9 8.1 4.1 7.65 4.2 7.6 5.35 7.0 5.4 6.95 6.5 6.15 7.45 5.25 7.55 5.1 8.35 4.1 9.1 2.85 9.15 2.7 9.7 1.45 10.15 0.75 Q10.8 0.25 11.55 0.55 12.1 0.75 12.4 1.25 12.65 1.8 12.45 2.35 L12.1 3.3 11.45 4.65 10.3 6.35 9.0 7.8 8.05 8.65 7.45 9.05 7.4 9.1 Q4.8 10.95 1.5 11.35 L1.5 12.15 Q1.5 12.75 1.1 13.2 0.65 13.6 0.05 13.6 -0.55 13.6 -0.95 13.2 L-1.4 12.15 -1.4 11.35 -1.45 11.35 Q-4.6 11.0 -7.35 9.1 L-7.4 9.05 -8.2 8.45 -8.65 8.0 -8.95 7.8 -10.55 5.9 -11.6 4.2 -12.4 2.3 -12.45 1.75 Q-12.35 0.75 -11.45 0.45 -10.5 0.2 -9.9 0.9 L-9.1 2.65 -9.05 2.8 -8.4 3.9 -8.25 4.1 -7.5 5.1 -6.45 6.15 -4.15 7.6 -4.05 7.65 -2.8 8.1 -2.75 8.15 -1.4 8.45 -1.4 -2.25 -4.85 -2.25 Q-5.45 -2.25 -5.85 -2.65 -6.3 -3.1 -6.3 -3.7 -6.3 -4.3 -5.85 -4.7 -5.45 -5.15 -4.85 -5.15 L-1.4 -5.15 -1.4 -6.1 -1.45 -6.1 -1.6 -6.2 -2.05 -6.4 -2.25 -6.55 -2.75 -7.0 -3.15 -7.5 -3.2 -7.6 -3.5 -8.1 -3.75 -8.95 -3.85 -9.65 Q-3.85 -11.25 -2.7 -12.4 -1.55 -13.55 0.05 -13.55 1.65 -13.55 2.8 -12.4 3.9 -11.25 3.9 -9.65 L3.85 -8.95 3.65 -8.3" fill="#ffffff" fill-rule="evenodd" stroke="none"/>
    <path d="M3.65 -8.3 L3.85 -8.95 3.9 -9.65 Q3.9 -11.25 2.8 -12.4 1.65 -13.55 0.05 -13.55 -1.55 -13.55 -2.7 -12.4 -3.85 -11.25 -3.85 -9.65 L-3.75 -8.95 -3.5 -8.1 -3.2 -7.6 -3.15 -7.5 -2.75 -7.0 -2.25 -6.55 -2.05 -6.4 -1.6 -6.2 -1.45 -6.1 -1.4 -6.1 -1.4 -5.15 -4.85 -5.15 Q-5.45 -5.15 -5.85 -4.7 -6.3 -4.3 -6.3 -3.7 -6.3 -3.1 -5.85 -2.65 -5.45 -2.25 -4.85 -2.25 L-1.4 -2.25 -1.4 8.45 -2.75 8.15 -2.8 8.1 -4.05 7.65 -6.45 6.15 -7.5 5.1 -8.25 4.1 -8.4 3.9 -9.05 2.8 -9.1 2.65 -9.9 0.9 Q-10.35 0.4 -11.0 0.4 L-11.45 0.45 Q-12.35 0.75 -12.45 1.75 L-12.4 2.3 -11.6 4.2 -10.55 5.9 -8.95 7.8 -8.65 8.0 -8.2 8.45 -7.4 9.05 -7.35 9.1 Q-4.6 11.0 -1.45 11.35 L-1.4 11.35 -1.4 12.15 -0.95 13.2 Q-0.55 13.6 0.05 13.6 0.65 13.6 1.1 13.2 1.5 12.75 1.5 12.15 L1.5 11.35 Q4.8 10.95 7.4 9.1 L7.45 9.05 8.05 8.65 9.4 7.4 10.3 6.35 11.45 4.65 12.1 3.3 12.45 2.35 Q12.65 1.8 12.4 1.25 12.1 0.75 11.55 0.55 L11.05 0.45 Q10.6 0.45 10.15 0.75 L9.7 1.45 9.15 2.7 9.1 2.85 8.35 4.1 7.55 5.1 7.45 5.25 6.5 6.15 5.4 6.95 5.35 7.0 4.2 7.6 4.1 7.65 2.9 8.1 2.8 8.15 1.5 8.45 1.5 -2.25 4.95 -2.25 Q5.55 -2.25 6.0 -2.65 6.4 -3.1 6.4 -3.7 6.4 -4.3 6.0 -4.7 5.55 -5.15 4.95 -5.15 L1.5 -5.15 1.5 -6.1 2.1 -6.4 2.85 -7.0 3.25 -7.5 3.65 -8.3 M4.85 -8.8 L4.55 -7.9 4.5 -7.65 4.15 -7.05 4.05 -6.95 3.55 -6.3 3.4 -6.15 4.95 -6.15 Q5.95 -6.15 6.7 -5.45 7.4 -4.7 7.4 -3.7 7.4 -2.7 6.7 -1.95 5.95 -1.25 4.95 -1.25 L2.5 -1.25 2.5 7.2 2.55 7.2 2.6 7.15 3.7 6.75 4.8 6.15 4.85 6.1 5.85 5.4 6.8 4.45 7.5 3.55 8.75 1.1 Q8.95 0.45 9.55 -0.05 10.3 -0.55 11.05 -0.55 L11.85 -0.4 Q12.8 -0.1 13.25 0.8 13.7 1.7 13.4 2.7 L13.3 2.85 13.3 2.95 12.85 4.0 12.8 4.15 12.55 4.7 12.35 5.0 12.3 5.1 11.75 6.05 10.8 7.35 8.9 9.25 8.75 9.35 8.65 9.4 8.05 9.85 7.95 9.95 Q5.55 11.65 2.5 12.25 2.45 13.25 1.75 13.9 1.05 14.6 0.05 14.6 -0.95 14.6 -1.65 13.9 -2.35 13.25 -2.4 12.25 -5.55 11.6 -7.9 9.9 L-8.0 9.85 -8.6 9.4 -8.65 9.35 -8.85 9.2 -10.35 7.75 -11.65 6.05 -11.7 6.0 -11.7 5.95 -11.95 5.6 -12.85 3.9 -13.35 2.65 -13.45 1.65 Q-13.3 0.1 -11.8 -0.5 L-11.0 -0.6 Q-9.95 -0.6 -9.15 0.2 -8.85 0.55 -8.7 1.05 L-8.15 2.3 -8.15 2.35 -6.75 4.45 -5.75 5.4 -4.75 6.1 -4.75 6.15 -3.7 6.7 -3.65 6.75 -2.5 7.15 -2.45 7.2 -2.4 7.2 -2.4 -1.25 -4.85 -1.25 Q-5.85 -1.25 -6.6 -1.95 -7.3 -2.7 -7.3 -3.7 -7.3 -4.7 -6.6 -5.45 -5.85 -6.15 -4.85 -6.15 L-3.35 -6.15 -3.45 -6.3 -3.95 -6.9 -4.05 -7.05 -4.4 -7.7 -4.7 -8.55 -4.75 -8.8 -4.85 -9.65 Q-4.85 -11.65 -3.4 -13.1 -1.95 -14.55 0.05 -14.55 2.05 -14.55 3.5 -13.1 4.9 -11.7 4.9 -9.65 L4.85 -8.8" fill="#000000" fill-rule="evenodd" stroke="none"/>
    <path d="M2.0 -9.65 Q2.0 -8.85 1.4 -8.3 0.85 -7.75 0.05 -7.75 -0.75 -7.75 -1.35 -8.3 -1.9 -8.85 -1.9 -9.65 -1.9 -10.45 -1.35 -11.05 -0.75 -11.6 0.05 -11.6 0.85 -11.6 1.4 -11.05 2.0 -10.45 2.0 -9.65" fill="#000000" fill-rule="evenodd" stroke="none"/>
  </g>
</svg>
