<?xml version="1.0" encoding="UTF-8" standalone="no"?>
<svg xmlns:ffdec="https://www.free-decompiler.com/flash" xmlns:xlink="http://www.w3.org/1999/xlink" ffdec:objectType="shape" height="17.75px" width="17.75px" xmlns="http://www.w3.org/2000/svg">
  <g transform="matrix(1.0, 0.0, 0.0, 1.0, 8.85, 8.85)">
    <path d="M0.05 -0.95 Q-0.75 -0.95 -1.2 -1.4 -1.7 -1.75 -1.7 -2.6 -1.7 -3.45 -1.2 -3.9 -0.65 -4.35 0.05 -4.35 0.8 -4.35 1.3 -3.9 1.8 -3.45 1.8 -2.6 1.8 -1.75 1.3 -1.4 0.85 -0.95 0.05 -0.95" fill="#ffffff" fill-rule="evenodd" stroke="none"/>
    <path d="M0.05 0.4 Q1.0 0.4 1.55 0.9 2.15 1.45 2.15 2.35 2.15 3.4 1.55 3.9 1.0 4.4 0.05 4.4 L-1.5 3.9 Q-2.1 3.4 -2.1 2.35 -2.1 1.45 -1.5 0.9 -0.85 0.4 0.05 0.4" fill="#ffffff" fill-rule="evenodd" stroke="none"/>
    <path d="M6.3 -6.25 Q8.9 -3.65 8.9 0.05 8.9 3.75 6.3 6.3 3.75 8.9 0.05 8.9 -3.65 8.9 -6.25 6.3 -8.85 3.7 -8.85 0.05 -8.85 -3.6 -6.25 -6.25 -3.6 -8.85 0.05 -8.85 3.7 -8.85 6.3 -6.25 M4.0 2.35 Q4.0 1.3 3.45 0.6 2.95 -0.1 1.95 -0.4 2.75 -0.7 3.1 -1.3 3.55 -1.9 3.55 -2.7 3.55 -4.2 2.65 -4.95 1.8 -5.75 0.05 -5.75 -1.7 -5.75 -2.55 -4.95 -3.45 -4.2 -3.45 -2.7 -3.45 -1.95 -3.05 -1.3 -2.6 -0.7 -1.85 -0.4 -2.85 -0.1 -3.35 0.6 -3.9 1.2 -3.9 2.35 L-3.6 3.85 -2.8 4.95 -1.55 5.6 0.05 5.85 1.6 5.6 2.9 4.95 3.7 3.85 4.0 2.35" fill="#ffffff" fill-rule="evenodd" stroke="none"/>
  </g>
</svg>
