<?xml version="1.0" encoding="UTF-8" standalone="no"?>
<svg xmlns:ffdec="https://www.free-decompiler.com/flash" xmlns:xlink="http://www.w3.org/1999/xlink" ffdec:objectType="shape" height="17.8px" width="17.75px" xmlns="http://www.w3.org/2000/svg">
  <g transform="matrix(1.0, 0.0, 0.0, 1.0, 8.85, 8.9)">
    <path d="M6.3 -6.3 Q8.9 -3.65 8.9 0.0 8.9 3.7 6.3 6.3 3.7 8.9 0.0 8.9 -3.65 8.9 -6.25 6.3 -8.85 3.7 -8.85 0.0 -8.85 -3.7 -6.25 -6.3 -3.65 -8.9 0.0 -8.9 3.7 -8.9 6.3 -6.3 M3.85 -4.1 L3.85 -5.6 -3.8 -5.6 -3.8 -3.95 2.0 -3.95 0.4 -1.85 -0.95 0.45 -1.85 3.0 -2.35 5.6 -0.35 5.6 0.1 2.75 1.0 0.25 Q1.55 -1.05 2.25 -2.0 L3.85 -4.1" fill="#ffffff" fill-rule="evenodd" stroke="none"/>
  </g>
</svg>
