<?xml version="1.0" encoding="UTF-8" standalone="no"?>
<svg xmlns:ffdec="https://www.free-decompiler.com/flash" xmlns:xlink="http://www.w3.org/1999/xlink" ffdec:objectType="shape" height="17.75px" width="17.75px" xmlns="http://www.w3.org/2000/svg">
  <g transform="matrix(1.0, 0.0, 0.0, 1.0, 8.85, 8.85)">
    <path d="M7.65 0.05 Q7.65 -3.15 5.4 -5.35 3.2 -7.6 0.0 -7.6 -3.15 -7.6 -5.4 -5.35 -7.65 -3.15 -7.65 0.05 -7.65 3.2 -5.4 5.45 -3.15 7.7 0.0 7.7 3.2 7.7 5.4 5.45 7.65 3.2 7.65 0.05 M6.3 -6.25 Q8.9 -3.6 8.9 0.05 8.9 3.7 6.3 6.3 3.7 8.9 0.0 8.9 -3.65 8.9 -6.25 6.3 -8.85 3.75 -8.85 0.05 -8.85 -3.65 -6.25 -6.25 -3.65 -8.85 0.0 -8.85 3.7 -8.85 6.3 -6.25" fill="#ffffff" fill-rule="evenodd" stroke="none"/>
    <path d="M3.4 -3.95 L3.7 -2.7 1.9 -2.7 Q1.85 -3.3 1.4 -3.85 0.9 -4.25 0.25 -4.25 -0.55 -4.25 -0.95 -3.85 L-1.6 -2.9 -1.95 -1.65 -2.05 -0.4 -1.05 -1.4 0.4 -1.7 1.85 -1.45 3.0 -0.65 3.65 0.55 3.9 2.05 3.65 3.55 2.9 4.75 1.7 5.55 0.2 5.85 -1.85 5.4 -3.1 4.15 Q-3.55 3.4 -3.7 2.3 L-3.9 0.0 -3.7 -2.0 -2.95 -3.9 Q-2.5 -4.7 -1.65 -5.25 -0.8 -5.8 0.35 -5.8 L1.6 -5.55 2.65 -4.95 3.4 -3.95 M2.1 2.0 L1.95 1.15 1.6 0.4 1.0 -0.1 0.1 -0.3 -0.75 -0.1 -1.4 0.4 -1.75 1.15 -1.9 2.0 -1.75 2.9 -1.4 3.65 -0.75 4.15 0.1 4.35 1.0 4.15 1.6 3.65 1.95 2.9 2.1 2.0" fill="#ffffff" fill-rule="evenodd" stroke="none"/>
  </g>
</svg>
