<?xml version="1.0" encoding="UTF-8" standalone="no"?>
<svg xmlns:ffdec="https://www.free-decompiler.com/flash" xmlns:xlink="http://www.w3.org/1999/xlink" ffdec:objectType="shape" height="17.75px" width="17.75px" xmlns="http://www.w3.org/2000/svg">
  <g transform="matrix(1.0, 0.0, 0.0, 1.0, 8.85, 8.85)">
    <path d="M1.65 0.45 L2.0 1.15 2.1 2.0 2.0 2.9 1.65 3.65 1.0 4.15 0.15 4.35 -0.7 4.15 -1.35 3.65 -1.75 2.9 -1.85 2.0 -1.75 1.15 -1.35 0.4 -0.7 -0.1 0.15 -0.25 1.0 -0.05 1.65 0.45" fill="#ffffff" fill-rule="evenodd" stroke="none"/>
    <path d="M6.3 -6.25 Q8.9 -3.65 8.9 0.05 8.9 3.75 6.3 6.3 3.75 8.9 0.05 8.9 -3.65 8.9 -6.25 6.3 -8.85 3.7 -8.85 0.05 -8.85 -3.6 -6.25 -6.25 -3.6 -8.85 0.05 -8.85 3.7 -8.85 6.3 -6.25 M1.9 -2.7 L3.75 -2.7 3.45 -3.95 2.7 -4.9 1.6 -5.55 0.35 -5.75 Q-0.85 -5.75 -1.65 -5.25 L-2.95 -3.85 -3.65 -2.0 -3.85 0.0 -3.7 2.3 -3.05 4.15 -1.8 5.4 0.2 5.85 1.75 5.55 Q2.4 5.35 2.9 4.75 L3.7 3.55 3.95 2.05 3.7 0.55 3.0 -0.65 Q2.45 -1.2 1.9 -1.4 L0.4 -1.7 -1.0 -1.4 -2.0 -0.4 -2.05 -0.4 -1.9 -1.65 -1.6 -2.9 -0.9 -3.85 Q-0.4 -4.25 0.3 -4.25 0.95 -4.25 1.45 -3.85 L1.9 -2.7" fill="#ffffff" fill-rule="evenodd" stroke="none"/>
  </g>
</svg>
