<?xml version="1.0" encoding="UTF-8" standalone="no"?>
<svg xmlns:ffdec="https://www.free-decompiler.com/flash" xmlns:xlink="http://www.w3.org/1999/xlink" ffdec:objectType="shape" height="17.8px" width="17.75px" xmlns="http://www.w3.org/2000/svg">
  <g transform="matrix(1.0, 0.0, 0.0, 1.0, 8.85, 8.9)">
    <path d="M6.3 -6.3 Q8.9 -3.7 8.9 0.0 8.9 3.7 6.3 6.3 3.7 8.9 0.05 8.9 -3.6 8.9 -6.25 6.3 -8.85 3.7 -8.85 0.0 -8.85 -3.65 -6.25 -6.3 -3.6 -8.9 0.05 -8.9 3.7 -8.9 6.3 -6.3 M3.35 -4.05 L3.35 -5.7 -2.45 -5.7 -3.65 0.4 -1.8 0.4 -1.1 -0.4 0.0 -0.6 0.95 -0.4 1.6 0.1 2.0 0.85 2.1 1.75 2.0 2.7 1.65 3.5 1.0 4.0 0.05 4.2 Q-0.9 4.2 -1.4 3.7 -1.9 3.25 -2.0 2.3 L-3.85 2.3 -3.5 3.8 -2.65 4.85 -1.45 5.5 0.05 5.7 1.85 5.35 3.05 4.4 3.75 3.1 3.95 1.7 3.7 0.2 3.05 -1.0 1.95 -1.75 0.45 -2.05 -0.7 -1.8 Q-1.25 -1.65 -1.6 -1.2 L-1.65 -1.2 -1.1 -4.05 3.35 -4.05" fill="#ffffff" fill-rule="evenodd" stroke="none"/>
  </g>
</svg>
