<?xml version="1.0" encoding="UTF-8" standalone="no"?>
<svg xmlns:ffdec="https://www.free-decompiler.com/flash" xmlns:xlink="http://www.w3.org/1999/xlink" ffdec:objectType="shape" height="17.75px" width="17.75px" xmlns="http://www.w3.org/2000/svg">
  <g transform="matrix(1.0, 0.0, 0.0, 1.0, 8.85, 8.85)">
    <path d="M6.3 -6.25 Q8.9 -3.65 8.9 0.05 8.9 3.75 6.3 6.3 3.75 8.9 0.05 8.9 -3.65 8.9 -6.25 6.3 -8.85 3.7 -8.85 0.05 -8.85 -3.6 -6.25 -6.25 -3.6 -8.85 0.05 -8.85 3.7 -8.85 6.3 -6.25 M7.7 0.05 Q7.7 -3.15 5.45 -5.35 3.2 -7.6 0.05 -7.6 -3.15 -7.6 -5.4 -5.35 -7.65 -3.15 -7.65 0.05 -7.65 3.2 -5.4 5.45 -3.15 7.7 0.05 7.7 3.2 7.7 5.45 5.45 7.7 3.2 7.7 0.05" fill="#ffffff" fill-rule="evenodd" stroke="none"/>
    <path d="M3.7 3.0 L2.25 3.0 2.25 5.65 0.55 5.65 0.55 3.0 -4.25 3.0 -4.25 1.15 0.55 -5.55 2.25 -5.55 2.25 1.55 3.7 1.55 3.7 3.0 M-2.85 1.55 L0.55 1.55 0.55 -3.4 0.5 -3.4 -2.85 1.55" fill="#ffffff" fill-rule="evenodd" stroke="none"/>
  </g>
</svg>
