<?xml version="1.0" encoding="UTF-8" standalone="no"?>
<svg xmlns:ffdec="https://www.free-decompiler.com/flash" xmlns:xlink="http://www.w3.org/1999/xlink" ffdec:objectType="shape" height="17.75px" width="17.75px" xmlns="http://www.w3.org/2000/svg">
  <g transform="matrix(1.0, 0.0, 0.0, 1.0, 8.85, 8.85)">
    <path d="M7.7 0.0 Q7.7 -3.15 5.45 -5.4 3.2 -7.65 0.05 -7.65 -3.15 -7.65 -5.4 -5.4 -7.65 -3.15 -7.65 0.0 -7.65 3.2 -5.4 5.4 -3.15 7.65 0.05 7.65 3.2 7.65 5.45 5.4 7.7 3.2 7.7 0.0 M6.3 -6.25 Q8.9 -3.65 8.9 0.0 8.9 3.7 6.3 6.3 3.7 8.9 0.05 8.9 -3.6 8.9 -6.25 6.3 -8.85 3.7 -8.85 0.0 -8.85 -3.65 -6.25 -6.25 -3.65 -8.85 0.05 -8.85 3.75 -8.85 6.3 -6.25" fill="#ffffff" fill-rule="evenodd" stroke="none"/>
    <path d="M2.5 -4.85 L3.3 -3.9 3.6 -2.6 Q3.6 -1.8 3.2 -1.15 2.85 -0.5 2.0 -0.2 3.0 0.05 3.5 0.75 4.05 1.55 4.05 2.6 L3.7 4.05 2.85 5.1 1.6 5.8 0.05 6.0 -1.65 5.75 -2.85 4.95 -3.6 3.75 -3.85 2.15 -2.05 2.15 Q-2.05 3.2 -1.55 3.85 -1.05 4.5 0.05 4.5 1.05 4.5 1.6 4.0 2.2 3.5 2.2 2.5 L1.95 1.5 1.3 0.9 0.35 0.65 -0.7 0.6 -0.7 -0.75 0.2 -0.8 1.0 -1.1 1.55 -1.65 1.75 -2.5 1.3 -3.65 Q0.8 -4.1 0.0 -4.1 L-0.8 -3.9 -1.4 -3.4 -1.75 -2.65 -1.85 -1.8 -3.65 -1.8 -3.35 -3.3 -2.6 -4.5 Q-2.1 -5.1 -1.45 -5.3 L0.05 -5.6 1.35 -5.4 2.5 -4.85" fill="#ffffff" fill-rule="evenodd" stroke="none"/>
  </g>
</svg>
