<?xml version="1.0" encoding="UTF-8" standalone="no"?>
<svg xmlns:ffdec="https://www.free-decompiler.com/flash" xmlns:xlink="http://www.w3.org/1999/xlink" ffdec:objectType="shape" height="17.75px" width="17.75px" xmlns="http://www.w3.org/2000/svg">
  <g transform="matrix(1.0, 0.0, 0.0, 1.0, 8.85, 8.85)">
    <path d="M6.3 -6.25 Q8.9 -3.65 8.9 0.0 8.9 3.7 6.3 6.3 3.7 8.9 0.05 8.9 -3.6 8.9 -6.25 6.3 -8.85 3.7 -8.85 0.0 -8.85 -3.65 -6.25 -6.25 -3.65 -8.85 0.05 -8.85 3.75 -8.85 6.3 -6.25 M2.45 -5.05 L1.3 -5.6 0.0 -5.8 -1.5 -5.5 -2.65 -4.7 -3.4 -3.5 -3.7 -2.0 -1.9 -2.0 -1.8 -2.85 -1.45 -3.55 -0.85 -4.1 0.0 -4.3 Q0.75 -4.3 1.25 -3.85 L1.7 -2.7 Q1.7 -2.1 1.5 -1.85 L0.95 -1.3 0.15 -1.0 -0.75 -0.95 -0.75 0.4 0.3 0.45 1.25 0.7 1.9 1.3 2.15 2.3 Q2.15 3.3 1.55 3.8 1.0 4.3 0.05 4.3 -1.0 4.3 -1.6 3.65 -2.1 3.0 -2.1 1.95 L-3.9 1.95 -3.65 3.55 -2.9 4.75 -1.7 5.55 0.05 5.85 1.55 5.6 2.8 4.9 3.7 3.85 4.0 2.4 Q4.0 1.35 3.45 0.55 L1.95 -0.4 Q2.8 -0.7 3.15 -1.35 3.55 -2.0 3.55 -2.8 L3.25 -4.1 2.45 -5.05" fill="#ffffff" fill-rule="evenodd" stroke="none"/>
  </g>
</svg>
