<?xml version="1.0" encoding="UTF-8" standalone="no"?>
<svg xmlns:ffdec="https://www.free-decompiler.com/flash" xmlns:xlink="http://www.w3.org/1999/xlink" ffdec:objectType="shape" height="17.75px" width="17.75px" xmlns="http://www.w3.org/2000/svg">
  <g transform="matrix(1.0, 0.0, 0.0, 1.0, 8.85, 8.85)">
    <path d="M7.7 0.0 Q7.7 -3.15 5.45 -5.4 3.2 -7.65 0.05 -7.65 -3.15 -7.65 -5.4 -5.4 -7.65 -3.15 -7.65 0.0 -7.65 3.2 -5.4 5.45 -3.15 7.7 0.05 7.7 3.2 7.7 5.45 5.45 7.7 3.2 7.7 0.0 M6.3 -6.25 Q8.9 -3.65 8.9 0.0 8.9 3.7 6.3 6.3 3.7 8.9 0.05 8.9 -3.6 8.9 -6.25 6.3 -8.85 3.7 -8.85 0.0 -8.85 -3.65 -6.25 -6.25 -3.65 -8.85 0.05 -8.85 3.75 -8.85 6.3 -6.25" fill="#ffffff" fill-rule="evenodd" stroke="none"/>
    <path d="M3.5 -3.9 L3.65 -2.75 3.45 -1.55 2.9 -0.55 2.1 0.25 -1.3 2.8 -1.75 3.5 3.65 3.5 3.65 5.1 -3.9 5.1 Q-3.9 3.85 -3.25 2.7 -2.55 1.7 -1.45 0.95 L0.75 -0.65 1.55 -1.55 1.85 -2.7 1.8 -3.35 1.5 -3.95 0.95 -4.45 0.0 -4.65 -0.9 -4.45 -1.45 -3.85 -1.75 -3.0 -1.9 -1.9 -3.7 -1.9 -3.45 -3.6 -2.7 -4.95 Q-2.2 -5.5 -1.5 -5.8 L0.1 -6.15 1.8 -5.8 2.9 -5.0 3.5 -3.9" fill="#ffffff" fill-rule="evenodd" stroke="none"/>
  </g>
</svg>
