<?xml version="1.0" encoding="UTF-8" standalone="no"?>
<svg xmlns:ffdec="https://www.free-decompiler.com/flash" xmlns:xlink="http://www.w3.org/1999/xlink" ffdec:objectType="shape" height="11.25px" width="23.7px" xmlns="http://www.w3.org/2000/svg">
  <g transform="matrix(1.0, 0.0, 0.0, 1.0, 11.85, 5.6)">
    <path d="M9.55 -3.2 Q10.85 -1.85 10.85 0.05 10.85 1.95 9.5 3.3 8.15 4.65 6.25 4.65 L3.15 4.65 Q4.4 3.65 4.95 1.95 L6.25 1.95 Q7.05 1.95 7.6 1.4 8.15 0.85 8.15 0.05 8.15 -0.75 7.65 -1.25 7.1 -1.8 6.35 -1.85 L6.25 -1.9 0.75 -1.9 Q0.0 -1.9 -0.55 -1.35 -1.05 -0.85 -1.15 -0.1 L-1.15 0.05 -1.05 0.5 -3.8 0.5 -3.85 0.05 -3.85 -0.1 Q-3.8 -1.95 -2.45 -3.25 -1.1 -4.55 0.75 -4.55 L6.25 -4.6 6.35 -4.55 Q8.25 -4.5 9.55 -3.2" fill="#ffffff" fill-rule="evenodd" stroke="none"/>
    <path d="M9.5 3.3 Q10.85 1.95 10.85 0.05 10.85 -1.85 9.55 -3.2 8.25 -4.5 6.35 -4.55 L6.25 -4.6 0.75 -4.55 Q-1.1 -4.55 -2.45 -3.25 -3.8 -1.95 -3.85 -0.1 L-3.85 0.05 -3.8 0.5 -1.05 0.5 -1.15 0.05 -1.15 -0.1 Q-1.05 -0.85 -0.55 -1.35 0.0 -1.9 0.75 -1.9 L6.25 -1.9 6.35 -1.85 Q7.1 -1.8 7.65 -1.25 8.15 -0.75 8.15 0.05 8.15 0.85 7.6 1.4 7.05 1.95 6.25 1.95 L4.95 1.95 Q4.4 3.65 3.15 4.65 L6.25 4.65 Q8.15 4.65 9.5 3.3 M10.25 -3.85 Q11.85 -2.2 11.85 0.05 11.85 2.35 10.2 4.0 8.55 5.65 6.25 5.65 L3.15 5.65 Q2.45 5.65 2.2 5.0 1.95 4.35 2.5 3.9 3.5 3.05 4.0 1.65 4.25 0.95 4.95 0.95 L6.25 0.95 6.9 0.7 7.15 0.05 6.9 -0.6 6.3 -0.85 6.1 -0.9 0.75 -0.9 0.15 -0.65 -0.15 0.0 -0.15 0.15 -0.1 0.25 Q0.05 0.65 -0.25 1.1 -0.55 1.5 -1.05 1.5 L-3.8 1.5 Q-4.7 1.5 -4.8 0.6 L-4.8 0.5 -4.85 0.05 -4.85 -0.15 Q-4.75 -2.4 -3.15 -3.95 -1.5 -5.55 0.75 -5.55 L6.25 -5.6 6.4 -5.55 Q8.65 -5.45 10.25 -3.85" fill="#000000" fill-rule="evenodd" stroke="none"/>
    <path d="M3.8 -0.45 L3.85 0.05 3.85 0.15 Q3.85 1.05 3.45 1.95 2.35 4.2 0.0 4.6 L-6.35 4.65 Q-8.2 4.6 -9.55 3.25 -10.85 1.95 -10.85 0.05 -10.85 -1.85 -9.5 -3.2 -8.15 -4.55 -6.25 -4.55 L-3.15 -4.55 Q-4.4 -3.5 -4.95 -1.85 L-6.25 -1.85 Q-7.05 -1.85 -7.6 -1.3 -8.15 -0.75 -8.15 0.05 -8.15 0.8 -7.6 1.35 -7.1 1.9 -6.35 1.95 L-0.75 1.95 -0.15 1.85 0.0 1.8 Q1.05 1.3 1.15 0.15 L1.15 0.05 1.05 -0.45 3.8 -0.45" fill="#ffffff" fill-rule="evenodd" stroke="none"/>
    <path d="M3.85 0.15 L3.85 0.05 3.8 -0.45 1.05 -0.45 1.15 0.05 1.15 0.15 Q1.05 1.3 0.0 1.8 L-0.15 1.85 -0.75 1.95 -6.35 1.95 Q-7.1 1.9 -7.6 1.35 -8.15 0.8 -8.15 0.05 -8.15 -0.75 -7.6 -1.3 -7.05 -1.85 -6.25 -1.85 L-4.95 -1.85 Q-4.4 -3.5 -3.15 -4.55 L-6.25 -4.55 Q-8.15 -4.55 -9.5 -3.2 -10.85 -1.85 -10.85 0.05 -10.85 1.95 -9.55 3.25 -8.2 4.6 -6.35 4.65 L0.0 4.6 Q2.35 4.2 3.45 1.95 3.85 1.05 3.85 0.15 M4.85 0.05 L4.85 0.25 4.35 2.35 Q3.05 5.1 0.15 5.55 L-0.75 5.65 -6.4 5.65 Q-8.65 5.6 -10.25 3.95 -11.85 2.3 -11.85 0.05 -11.85 -2.25 -10.2 -3.9 -8.55 -5.55 -6.25 -5.55 L-3.15 -5.55 Q-2.45 -5.55 -2.2 -4.9 -1.95 -4.25 -2.5 -3.8 -3.55 -2.9 -4.0 -1.55 -4.25 -0.85 -4.95 -0.85 L-6.25 -0.85 -6.9 -0.6 -7.15 0.05 -6.9 0.65 -6.3 0.95 -0.75 0.95 -0.45 0.9 -0.4 0.85 Q0.05 0.7 0.15 0.1 L0.15 -0.05 0.1 -0.15 Q-0.05 -0.6 0.3 -1.05 0.55 -1.45 1.05 -1.45 L3.8 -1.45 4.45 -1.2 4.8 -0.55 4.8 -0.4 4.85 0.05" fill="#000000" fill-rule="evenodd" stroke="none"/>
  </g>
</svg>
