<?xml version="1.0" encoding="UTF-8" standalone="no"?>
<svg xmlns:ffdec="https://www.free-decompiler.com/flash" xmlns:xlink="http://www.w3.org/1999/xlink" ffdec:objectType="shape" height="17.35px" width="17.7px" xmlns="http://www.w3.org/2000/svg">
  <g transform="matrix(1.0, 0.0, 0.0, 1.0, 8.85, 8.65)">
    <path d="M-0.3 -0.35 L-2.15 -2.2 -4.0 -0.35 -0.3 7.0 -0.3 -0.35 M-6.5 -2.2 L-8.25 -0.4 -7.85 -0.05 -1.2 6.65 -4.85 -0.6 -6.5 -2.2 M8.3 -0.4 L6.5 -2.2 4.8 -0.5 1.25 6.7 8.3 -0.4 M8.55 -1.7 L8.55 -1.65 8.7 -0.45 8.8 -0.4 8.8 0.1 8.65 0.2 0.3 8.6 0.3 8.65 0.2 8.65 0.15 8.7 -0.1 8.7 -0.15 8.65 -0.2 8.65 -8.6 0.15 -8.65 0.15 -8.75 0.05 Q-8.95 -0.15 -8.75 -0.4 L-8.65 -0.5 -8.6 -0.75 Q-8.35 -4.1 -5.85 -6.35 -3.35 -8.65 0.05 -8.65 3.2 -8.65 5.6 -6.65 8.0 -4.7 8.55 -1.7 M4.0 -0.35 L2.2 -2.2 0.4 -0.4 0.4 6.95 4.0 -0.35" fill="#ffffff" fill-rule="evenodd" stroke="none"/>
  </g>
</svg>
