<?xml version="1.0" encoding="UTF-8" standalone="no"?>
<svg xmlns:ffdec="https://www.free-decompiler.com/flash" xmlns:xlink="http://www.w3.org/1999/xlink" ffdec:objectType="shape" height="12.9px" width="16.95px" xmlns="http://www.w3.org/2000/svg">
  <g transform="matrix(1.0, 0.0, 0.0, 1.0, 8.4, 6.45)">
    <path d="M6.9 -6.45 L8.55 -4.85 3.7 0.0 8.55 4.8 6.9 6.45 2.1 1.6 -2.75 6.45 -4.35 4.8 0.45 0.0 -4.35 -4.85 -2.75 -6.45 2.1 -1.65 6.9 -6.45" fill="#ffffff" fill-rule="evenodd" stroke="none"/>
    <path d="M-5.35 -2.85 Q-4.05 -2.85 -3.2 -1.95 -2.3 -1.05 -2.3 0.2 -2.3 1.45 -3.2 2.3 -4.1 3.2 -5.35 3.2 -6.6 3.2 -7.5 2.3 -8.4 1.45 -8.4 0.2 -8.4 -1.05 -7.5 -1.95 -6.6 -2.85 -5.35 -2.85" fill="#ffffff" fill-rule="evenodd" stroke="none"/>
  </g>
</svg>
