<?xml version="1.0" encoding="UTF-8" standalone="no"?>
<svg xmlns:ffdec="https://www.free-decompiler.com/flash" xmlns:xlink="http://www.w3.org/1999/xlink" ffdec:objectType="shape" height="19.95px" width="15.05px" xmlns="http://www.w3.org/2000/svg">
  <g transform="matrix(1.0, 0.0, 0.0, 1.0, 7.5, 9.95)">
    <path d="M0.0 -5.5 Q-1.3 -5.5 -2.25 -4.55 -3.15 -3.6 -3.15 -2.3 -3.15 -1.0 -2.25 -0.05 -1.3 0.85 0.0 0.85 1.3 0.85 2.25 -0.05 3.2 -1.0 3.2 -2.3 3.2 -3.6 2.25 -4.55 1.3 -5.5 0.0 -5.5 M6.55 -2.45 Q6.55 -0.4 5.45 1.15 L0.0 9.0 -5.4 1.15 Q-6.5 -0.4 -6.5 -2.45 -6.5 -5.15 -4.6 -7.05 -2.7 -8.95 0.0 -8.95 2.7 -8.95 4.65 -7.05 6.55 -5.15 6.55 -2.45" fill="#ffffff" fill-rule="evenodd" stroke="none"/>
    <path d="M0.0 -4.5 Q-0.9 -4.5 -1.5 -3.85 -2.15 -3.2 -2.15 -2.3 -2.15 -1.4 -1.5 -0.75 -0.9 -0.15 0.0 -0.15 0.9 -0.15 1.55 -0.75 2.2 -1.4 2.2 -2.3 2.2 -3.2 1.55 -3.85 0.9 -4.5 0.0 -4.5 M-2.25 -4.55 Q-1.3 -5.5 0.0 -5.5 1.3 -5.5 2.25 -4.55 3.2 -3.6 3.2 -2.3 3.2 -1.0 2.25 -0.05 1.3 0.85 0.0 0.85 -1.3 0.85 -2.25 -0.05 -3.15 -1.0 -3.15 -2.3 -3.15 -3.6 -2.25 -4.55 M5.35 -7.75 Q7.55 -5.55 7.55 -2.45 7.55 -0.2 6.3 1.75 L0.85 9.6 Q0.55 10.0 0.0 10.0 -0.5 10.0 -0.8 9.6 L-6.25 1.7 Q-7.5 -0.15 -7.5 -2.45 -7.5 -5.55 -5.3 -7.75 -3.1 -9.95 0.0 -9.95 3.1 -9.95 5.35 -7.75 M5.45 1.15 Q6.55 -0.4 6.55 -2.45 6.55 -5.15 4.65 -7.05 2.7 -8.95 0.0 -8.95 -2.7 -8.95 -4.6 -7.05 -6.5 -5.15 -6.5 -2.45 -6.5 -0.4 -5.4 1.15 L0.0 9.0 5.45 1.15" fill="#000000" fill-rule="evenodd" stroke="none"/>
  </g>
</svg>
