<?xml version="1.0" encoding="UTF-8" standalone="no"?>
<svg xmlns:ffdec="https://www.free-decompiler.com/flash" xmlns:xlink="http://www.w3.org/1999/xlink" ffdec:objectType="shape" height="9.95px" width="15.8px" xmlns="http://www.w3.org/2000/svg">
  <g transform="matrix(1.0, 0.0, 0.0, 1.0, 7.9, 4.95)">
    <path d="M7.6 -4.25 L7.9 -3.4 Q7.9 -2.35 7.0 -2.25 L7.0 4.9 4.9 4.05 Q2.4 3.15 0.1 3.15 -2.2 3.15 -4.8 4.1 L-7.0 5.0 -7.0 -2.25 Q-7.9 -2.35 -7.9 -3.4 L-7.6 -4.25 -6.85 -4.6 Q-6.4 -4.6 -6.1 -4.25 -5.8 -3.9 -5.8 -3.4 -5.8 -2.45 -6.6 -2.25 L-3.5 0.4 -0.35 -2.25 Q-1.3 -2.6 -1.3 -3.55 -1.3 -4.1 -0.9 -4.55 -0.5 -4.95 0.0 -4.95 0.55 -4.95 0.9 -4.55 1.3 -4.1 1.3 -3.55 1.3 -2.6 0.35 -2.25 L3.5 0.4 6.6 -2.25 Q5.8 -2.45 5.8 -3.4 5.8 -3.9 6.1 -4.25 6.4 -4.6 6.85 -4.6 7.3 -4.6 7.6 -4.25" fill="#ffffff" fill-rule="evenodd" stroke="none"/>
  </g>
</svg>
