<?xml version="1.0" encoding="UTF-8" standalone="no"?>
<svg xmlns:ffdec="https://www.free-decompiler.com/flash" xmlns:xlink="http://www.w3.org/1999/xlink" ffdec:objectType="shape" height="27.8px" width="27.8px" xmlns="http://www.w3.org/2000/svg">
  <g transform="matrix(1.0, 0.0, 0.0, 1.0, 13.9, 13.9)">
    <path d="M9.05 -1.0 L11.9 -1.0 11.9 1.05 9.05 1.05 Q8.75 4.2 6.45 6.45 4.2 8.75 1.05 9.05 L1.05 11.9 -1.0 11.9 -1.0 9.05 Q-4.2 8.75 -6.4 6.45 -8.7 4.2 -9.0 1.05 L-11.9 1.05 -11.9 -1.0 -9.0 -1.0 Q-8.7 -4.2 -6.4 -6.45 -4.2 -8.7 -1.0 -9.05 L-1.0 -11.9 1.05 -11.9 1.05 -9.05 Q4.2 -8.7 6.45 -6.45 8.75 -4.2 9.05 -1.0" fill="#000000" fill-rule="evenodd" stroke="none"/>
    <path d="M9.05 -1.0 Q8.75 -4.2 6.45 -6.45 4.2 -8.7 1.05 -9.05 L1.05 -11.9 -1.0 -11.9 -1.0 -9.05 Q-4.2 -8.7 -6.4 -6.45 -8.7 -4.2 -9.0 -1.0 L-11.9 -1.0 -11.9 1.05 -9.0 1.05 Q-8.7 4.2 -6.4 6.45 -4.2 8.75 -1.0 9.05 L-1.0 11.9 1.05 11.9 1.05 9.05 Q4.2 8.75 6.45 6.45 8.75 4.2 9.05 1.05 L11.9 1.05 11.9 -1.0 9.05 -1.0 Z" fill="none" stroke="#000000" stroke-linecap="round" stroke-linejoin="round" stroke-width="4.0"/>
    <path d="M5.25 -5.25 Q3.5 -7.0 1.05 -7.4 L1.05 -2.0 -1.0 -2.0 -1.0 -7.4 Q-3.5 -7.0 -5.25 -5.25 -7.0 -3.5 -7.4 -1.0 L-2.0 -1.0 -2.0 1.0 -7.4 1.0 Q-7.0 3.5 -5.25 5.25 -3.5 7.0 -1.0 7.35 L-1.0 1.95 1.05 1.95 1.05 7.35 Q3.5 7.0 5.25 5.25 7.0 3.5 7.35 1.0 L2.0 1.0 2.0 -1.0 7.35 -1.0 Q7.0 -3.5 5.25 -5.25 M11.9 -1.0 L11.9 1.0 9.05 1.0 Q8.7 4.15 6.45 6.45 4.15 8.7 1.05 9.05 L1.05 11.9 -1.0 11.9 -1.0 9.05 Q-4.2 8.7 -6.45 6.45 -8.7 4.15 -9.05 1.0 L-11.95 1.0 -11.95 -1.0 -9.05 -1.0 Q-8.7 -4.2 -6.45 -6.5 -4.2 -8.7 -1.0 -9.1 L-1.0 -11.95 1.05 -11.95 1.05 -9.1 Q4.15 -8.7 6.45 -6.5 8.7 -4.2 9.05 -1.0 L11.9 -1.0" fill="#ffffff" fill-rule="evenodd" stroke="none"/>
  </g>
</svg>
