<?xml version="1.0" encoding="UTF-8" standalone="no"?>
<svg xmlns:ffdec="https://www.free-decompiler.com/flash" xmlns:xlink="http://www.w3.org/1999/xlink" ffdec:objectType="shape" height="28.4px" width="28.95px" xmlns="http://www.w3.org/2000/svg">
  <g transform="matrix(1.0, 0.0, 0.0, 1.0, 14.45, 14.2)">
    <path d="M12.2 -0.7 L12.35 -0.6 Q12.7 -0.25 12.35 0.05 L0.3 12.15 0.25 12.15 0.05 12.2 -0.1 12.15 -0.2 12.15 -0.2 12.1 -0.25 12.1 -12.25 0.05 Q-12.6 -0.3 -12.25 -0.65 L-12.1 -0.7 -12.1 -1.1 Q-11.7 -5.8 -8.2 -8.95 -4.7 -12.2 0.05 -12.2 4.5 -12.2 7.85 -9.4 11.15 -6.65 12.0 -2.4 L12.05 -2.35 12.2 -0.7" fill="#000000" fill-rule="evenodd" stroke="none"/>
    <path d="M12.2 -0.7 L12.05 -2.35 12.0 -2.4 Q11.15 -6.65 7.85 -9.4 4.5 -12.2 0.05 -12.2 -4.7 -12.2 -8.2 -8.95 -11.7 -5.8 -12.1 -1.1 L-12.1 -0.7 -12.25 -0.65 Q-12.6 -0.3 -12.25 0.05 L-0.25 12.1 -0.2 12.1 -0.2 12.15 -0.1 12.15 0.05 12.2 0.25 12.15 0.3 12.15 12.35 0.05 Q12.7 -0.25 12.35 -0.6 L12.2 -0.7 Z" fill="none" stroke="#000000" stroke-linecap="round" stroke-linejoin="round" stroke-width="4.0"/>
    <path d="M-9.1 -3.1 L-11.6 -0.65 -1.7 9.3 -6.85 -0.85 -9.1 -3.1 M-0.4 -0.55 L-3.0 -3.1 -5.6 -0.5 -0.4 9.75 -0.4 -0.55 M3.05 -3.1 L0.55 -0.6 0.55 9.7 5.65 -0.55 3.05 -3.1 M9.15 -3.1 L6.8 -0.75 5.9 1.05 5.75 1.3 1.75 9.35 11.7 -0.6 9.15 -3.1 M0.05 -12.2 Q4.5 -12.2 7.85 -9.4 11.15 -6.65 12.0 -2.4 L12.05 -2.35 12.2 -0.7 12.35 -0.6 Q12.7 -0.25 12.35 0.05 L0.3 12.15 0.25 12.15 0.05 12.2 -0.1 12.15 -0.2 12.15 -0.2 12.1 -0.25 12.1 -12.25 0.05 Q-12.6 -0.3 -12.25 -0.65 L-12.1 -0.7 -12.1 -1.1 Q-11.7 -5.8 -8.2 -8.95 -4.7 -12.2 0.05 -12.2" fill="#f5f5f5" fill-rule="evenodd" stroke="none"/>
  </g>
</svg>
