<?xml version="1.0" encoding="UTF-8" standalone="no"?>
<svg xmlns:ffdec="https://www.free-decompiler.com/flash" xmlns:xlink="http://www.w3.org/1999/xlink" ffdec:objectType="shape" height="28.65px" width="28.5px" xmlns="http://www.w3.org/2000/svg">
  <g transform="matrix(1.0, 0.0, 0.0, 1.0, 14.25, 14.3)">
    <path d="M1.05 -12.55 L1.05 -9.5 Q4.35 -9.1 6.75 -6.75 9.1 -4.35 9.45 -1.05 L12.5 -1.05 12.5 1.1 9.45 1.1 Q9.1 4.45 6.75 6.8 4.35 9.15 1.05 9.55 L1.05 12.6 -1.1 12.6 -1.1 9.55 Q-4.4 9.2 -6.75 6.8 -9.1 4.45 -9.5 1.1 L-12.5 1.1 -12.5 -1.05 -9.5 -1.05 Q-9.1 -4.4 -6.75 -6.75 -4.4 -9.1 -1.1 -9.5 L-1.1 -12.55 1.05 -12.55" fill="#000000" fill-rule="evenodd" stroke="none"/>
    <path d="M1.05 -12.55 L-1.1 -12.55 -1.1 -9.5 Q-4.4 -9.1 -6.75 -6.75 -9.1 -4.4 -9.5 -1.05 L-12.5 -1.05 -12.5 1.1 -9.5 1.1 Q-9.1 4.45 -6.75 6.8 -4.4 9.2 -1.1 9.55 L-1.1 12.6 1.05 12.6 1.05 9.55 Q4.35 9.15 6.75 6.8 9.1 4.45 9.45 1.1 L12.5 1.1 12.5 -1.05 9.45 -1.05 Q9.1 -4.35 6.75 -6.75 4.35 -9.1 1.05 -9.5 L1.05 -12.55 Z" fill="none" stroke="#000000" stroke-linecap="round" stroke-linejoin="round" stroke-width="3.5500000000000003"/>
    <path d="M1.05 -9.5 Q4.35 -9.1 6.75 -6.75 9.1 -4.35 9.45 -1.05 L12.5 -1.05 12.5 1.1 9.45 1.1 Q9.1 4.45 6.75 6.8 4.35 9.15 1.05 9.55 L1.05 12.6 -1.1 12.6 -1.1 9.55 Q-4.4 9.2 -6.75 6.8 -9.1 4.45 -9.5 1.1 L-12.5 1.1 -12.5 -1.05 -9.5 -1.05 Q-9.1 -4.4 -6.75 -6.75 -4.4 -9.1 -1.1 -9.5 L-1.1 -12.55 1.05 -12.55 1.05 -9.5 M0.85 -5.05 L0.95 -5.0 2.15 -4.6 Q3.05 -4.1 3.25 -2.75 L1.2 -2.45 0.95 -3.0 0.9 -3.15 0.4 -3.5 -0.55 -3.55 -1.0 -3.3 -1.15 -3.2 -1.4 -2.55 Q-1.4 -1.85 -0.55 -1.55 L1.95 -0.75 2.5 -0.4 3.25 0.5 3.45 1.0 3.55 1.8 3.2 3.2 2.1 4.35 0.95 4.8 0.85 4.8 0.85 6.7 -0.95 6.7 -0.95 4.85 -1.0 4.8 -1.8 4.6 Q-2.45 4.4 -3.0 3.75 -3.55 3.2 -3.8 1.95 L-1.6 1.75 -1.3 2.6 -1.0 2.9 -0.55 3.2 0.4 3.25 0.95 3.0 1.25 2.8 1.5 2.05 1.3 1.5 0.95 1.15 0.4 0.9 -0.55 0.6 -1.95 0.1 -3.0 -0.75 -3.15 -1.0 Q-3.45 -1.5 -3.45 -2.35 L-3.2 -3.55 -2.3 -4.6 -1.0 -5.1 -0.95 -5.1 -0.95 -6.75 0.85 -6.75 0.85 -5.05 M1.05 -7.7 L0.0 -7.8 -1.1 -7.7 Q-3.65 -7.35 -5.5 -5.5 -7.35 -3.65 -7.7 -1.05 L-7.65 -1.05 -7.75 0.05 -7.65 1.1 -7.7 1.1 Q-7.35 3.7 -5.5 5.55 -3.65 7.4 -1.1 7.75 L0.0 7.85 1.05 7.75 Q3.65 7.4 5.5 5.55 7.35 3.7 7.7 1.1 L7.65 1.1 7.65 -1.05 7.7 -1.05 Q7.35 -3.65 5.5 -5.5 3.65 -7.35 1.05 -7.7" fill="#f5f5f5" fill-rule="evenodd" stroke="none"/>
  </g>
</svg>
