<?xml version="1.0" encoding="UTF-8" standalone="no"?>
<svg xmlns:ffdec="https://www.free-decompiler.com/flash" xmlns:xlink="http://www.w3.org/1999/xlink" ffdec:objectType="shape" height="15.2px" width="12.4px" xmlns="http://www.w3.org/2000/svg">
  <g transform="matrix(1.0, 0.0, 0.0, 1.0, 6.2, 7.6)">
    <path d="M6.1 -5.7 L2.45 -5.2 -4.05 -6.15 6.1 -7.6 6.1 -5.7" fill="#ffffff" fill-rule="evenodd" stroke="none"/>
    <path d="M5.05 -1.7 L2.45 -1.35 -4.05 -2.3 -1.45 -2.65 5.05 -1.7" fill="#ffffff" fill-rule="evenodd" stroke="none"/>
    <path d="M5.05 2.15 L2.45 2.5 -4.05 1.55 -1.45 1.2 5.05 2.15" fill="#ffffff" fill-rule="evenodd" stroke="none"/>
    <path d="M-6.2 5.75 L-1.45 5.05 5.05 5.95 -6.2 7.6 -6.2 5.75" fill="#ffffff" fill-rule="evenodd" stroke="none"/>
    <path d="M-6.1 -5.8 L6.2 -4.05 6.2 -2.15 6.1 -2.15 -6.1 -3.95 -6.1 -5.8" fill="#ffffff" fill-rule="evenodd" stroke="none"/>
    <path d="M6.1 1.65 L-6.1 -0.1 -6.1 -2.0 6.2 -0.2 6.2 1.7 6.1 1.65" fill="#ffffff" fill-rule="evenodd" stroke="none"/>
    <path d="M6.1 5.5 L-6.1 3.75 -6.1 1.85 6.2 3.65 6.2 5.55 6.1 5.5" fill="#ffffff" fill-rule="evenodd" stroke="none"/>
  </g>
</svg>
