<?xml version="1.0" encoding="UTF-8" standalone="no"?>
<svg xmlns:ffdec="https://www.free-decompiler.com/flash" xmlns:xlink="http://www.w3.org/1999/xlink" ffdec:objectType="shape" height="14.85px" width="16.95px" xmlns="http://www.w3.org/2000/svg">
  <g transform="matrix(1.0, 0.0, 0.0, 1.0, 8.45, 7.4)">
    <path d="M-3.75 -4.5 L-4.2 -4.7 -4.5 -3.35 -4.45 -3.4 -4.15 -3.45 -3.9 -3.45 -3.6 -3.5 -3.55 -3.5 -3.4 -3.45 -3.75 -4.5 M-3.2 -5.2 L-2.75 -5.5 -3.0 -6.55 -3.4 -6.7 -3.9 -6.45 -4.15 -5.95 -4.05 -5.65 Q-3.55 -5.65 -3.2 -5.2 M-2.35 -4.9 L-2.85 -4.55 -2.6 -3.35 -2.4 -3.3 -2.35 -3.3 -2.15 -3.25 -1.75 -3.1 -1.7 -3.35 -1.7 -3.45 -1.55 -3.9 -1.5 -4.0 -2.35 -4.9 M-0.65 -5.15 L-0.65 -5.2 -0.3 -5.45 -0.25 -5.5 -0.5 -5.75 Q-1.35 -6.55 -2.05 -6.55 L-1.9 -5.95 -1.95 -5.7 -1.25 -4.9 -1.05 -4.7 -0.75 -5.0 -0.65 -5.15 M5.75 -2.9 Q4.5 -4.25 2.7 -3.65 L1.45 -2.9 0.8 -1.95 0.65 -1.45 Q0.45 -0.7 0.65 0.05 L1.1 1.0 1.45 1.4 Q1.95 1.95 2.75 2.2 4.5 2.75 5.75 1.4 6.65 0.5 6.65 -0.75 6.65 -2.0 5.75 -2.9 M2.8 -5.55 L4.2 -5.6 4.35 -5.6 Q6.05 -5.25 7.05 -4.2 8.5 -2.75 8.5 -0.75 8.5 1.3 7.05 2.7 5.7 4.05 3.75 4.15 L2.55 4.05 1.25 3.55 0.15 2.7 -0.6 1.75 -1.0 0.85 -1.15 0.25 -1.25 -0.2 -1.25 -0.5 -1.25 -1.25 -1.2 -1.7 -1.2 -1.75 -1.9 -2.8 -2.0 -2.9 -2.0 -2.95 -2.05 -2.9 -2.15 -2.85 -2.5 -2.25 -2.5 -2.15 -2.55 -1.85 -2.6 -1.8 -2.6 -1.5 -2.65 -1.1 -2.65 -0.35 -3.55 -0.5 -3.8 -0.5 -5.25 0.05 Q-6.6 1.0 -6.6 2.55 -6.6 3.8 -5.7 4.7 -4.8 5.6 -3.55 5.6 -2.3 5.6 -1.4 4.7 L-0.75 3.8 0.8 4.85 0.1 5.8 Q-1.4 7.45 -3.55 7.45 -5.55 7.45 -7.0 6.0 -8.45 4.6 -8.45 2.55 -8.45 1.05 -7.45 -0.35 L-7.3 -0.55 -6.3 -1.5 -6.15 -2.2 -5.85 -2.75 -5.75 -2.85 -5.3 -3.1 Q-5.4 -4.65 -4.7 -5.35 L-4.85 -5.95 Q-4.85 -6.55 -4.4 -6.95 L-3.4 -7.4 -2.6 -7.15 -2.05 -7.35 Q-1.1 -7.35 0.05 -6.3 L0.4 -5.95 0.9 -6.15 1.5 -6.25 1.55 -6.25 2.1 -6.1 2.8 -5.55" fill="#ffffff" fill-rule="evenodd" stroke="none"/>
  </g>
</svg>
