<?xml version="1.0" encoding="UTF-8" standalone="no"?>
<svg xmlns:ffdec="https://www.free-decompiler.com/flash" xmlns:xlink="http://www.w3.org/1999/xlink" ffdec:objectType="shape" height="206.5px" width="201.0px" xmlns="http://www.w3.org/2000/svg">
  <g transform="matrix(1.0, 0.0, 0.0, 1.0, 120.65, 101.95)">
    <path d="M-111.65 -101.95 L80.35 -101.95 80.35 104.55 -111.65 104.55 -115.65 104.05 -115.65 96.55 -113.65 94.55 -113.65 63.05 -115.65 61.05 -115.65 54.55 -119.15 54.55 -120.65 54.05 -120.65 48.55 -115.15 48.55 -115.15 21.05 -119.65 21.05 -120.65 20.55 -120.65 15.05 -115.1 15.05 -115.1 -12.45 -120.65 -12.45 -120.65 -17.95 -119.15 -18.45 -115.15 -18.45 -115.15 -45.95 -119.65 -45.95 -120.65 -46.45 -120.65 -51.45 -119.15 -51.95 -115.65 -51.95 -115.65 -57.95 -113.65 -60.45 -113.65 -91.95 -115.65 -93.95 -115.65 -101.45 -111.65 -101.95" fill="#424242" fill-rule="evenodd" stroke="none"/>
    <path d="M-4.15 -82.95 L3.35 -82.95 10.85 -80.95 Q14.35 -78.45 17.35 -76.45 L22.35 -70.45 25.35 -63.45 Q25.85 -60.95 25.85 -58.45 23.35 -55.95 20.35 -53.95 L29.85 -39.95 30.35 -39.95 Q33.85 -41.95 36.85 -44.45 L37.85 -44.45 37.85 -46.45 51.35 -46.45 51.35 -44.45 55.35 -44.45 55.35 -40.95 62.35 -40.95 62.35 43.55 55.35 43.55 55.35 45.05 36.85 45.05 Q33.35 44.05 29.85 42.55 L19.85 56.55 26.35 61.05 25.35 66.55 22.35 73.55 17.35 79.05 Q14.35 81.55 10.85 83.55 L3.35 85.55 -4.15 85.55 -11.65 83.55 -18.65 79.05 -23.15 73.55 Q-24.65 70.05 -26.65 66.55 -26.65 64.05 -27.15 61.05 L-27.65 61.05 Q-24.15 59.05 -21.15 56.55 -25.65 49.55 -30.65 42.55 L-38.15 47.55 -38.15 47.05 -41.15 47.05 -41.15 49.05 -54.15 49.05 -54.15 47.05 -99.65 47.05 -99.65 43.55 -106.65 43.55 -106.65 15.05 -112.65 15.05 -112.65 14.55 -113.65 1.05 -112.65 -11.45 -112.65 -12.45 -106.65 -12.45 -106.65 -40.95 -99.65 -40.95 -99.65 -44.45 -54.15 -44.45 -54.15 -47.45 -82.65 -47.45 -82.65 -76.45 -36.65 -76.45 -36.65 -47.45 -41.15 -47.45 -41.15 -44.45 -36.65 -44.45 Q-36.65 -43.95 -37.15 -43.95 L-31.65 -39.95 -21.65 -53.95 -27.15 -57.95 Q-26.65 -60.45 -26.65 -63.45 -24.65 -66.95 -23.15 -70.45 -20.65 -73.45 -18.65 -76.45 L-11.65 -80.45 Q-7.65 -81.45 -4.15 -82.95" fill="#959595" fill-rule="evenodd" stroke="none"/>
    <path d="M-13.65 -41.95 L-13.65 -48.45 12.35 -48.45 12.35 -41.95 -13.65 -41.95" fill="#6f6f6f" fill-rule="evenodd" stroke="none"/>
    <path d="M-72.65 7.55 L-72.65 -4.95 -47.15 -4.95 -47.15 7.55 -72.65 7.55" fill="#6f6f6f" fill-rule="evenodd" stroke="none"/>
    <path d="M17.85 6.55 L17.85 25.05 11.85 25.05 11.85 30.55 -12.65 30.55 -12.65 25.05 -18.65 25.05 -18.65 6.55 -12.15 6.55 -12.15 18.55 -6.15 18.55 -6.15 24.55 5.35 24.55 5.35 18.55 11.35 18.55 11.35 6.55 17.85 6.55" fill="#6f6f6f" fill-rule="evenodd" stroke="none"/>
    <path d="M-90.15 47.05 L-90.15 40.55 -64.15 40.55 -64.15 47.05 -90.15 47.05" fill="#6f6f6f" fill-rule="evenodd" stroke="none"/>
    <path d="M-64.15 -44.45 L-64.15 -37.95 -90.15 -37.95 -90.15 -44.45 -64.15 -44.45" fill="#6f6f6f" fill-rule="evenodd" stroke="none"/>
    <path d="M39.85 32.05 L39.85 6.55 46.85 6.05 46.85 32.55 39.85 32.05" fill="#6f6f6f" fill-rule="evenodd" stroke="none"/>
    <path d="M-13.65 51.05 L-13.65 44.55 12.35 44.55 12.35 51.05 -13.65 51.05" fill="#6f6f6f" fill-rule="evenodd" stroke="none"/>
    <path d="M39.85 -29.45 L46.85 -29.95 46.85 -3.95 39.85 -3.95 39.85 -29.45" fill="#6f6f6f" fill-rule="evenodd" stroke="none"/>
    <path d="M5.35 -21.45 L-6.15 -21.45 -6.15 -15.45 -12.15 -15.45 -12.15 -3.95 -18.65 -3.95 -18.65 -21.95 -12.65 -21.95 -12.65 -27.95 11.85 -27.95 11.85 -22.45 17.85 -22.45 17.85 -3.95 5.35 -3.95 5.35 -21.45" fill="#6f6f6f" fill-rule="evenodd" stroke="none"/>
    <path d="M-4.15 85.55 L3.35 85.55 3.35 89.05 -4.15 89.05 -4.15 85.55" fill="#6f6f6f" fill-rule="evenodd" stroke="none"/>
    <path d="M-20.15 82.05 Q-19.15 80.55 -18.65 79.05 L-11.65 83.55 -13.65 86.55 -20.15 82.05" fill="#6f6f6f" fill-rule="evenodd" stroke="none"/>
    <path d="M-29.65 68.05 Q-28.15 67.55 -26.65 66.55 -24.65 70.05 -23.15 73.55 -24.65 74.55 -26.65 75.05 L-29.65 68.05" fill="#6f6f6f" fill-rule="evenodd" stroke="none"/>
    <path d="M10.85 83.55 Q14.35 81.55 17.35 79.05 18.35 80.55 18.85 82.05 15.85 84.55 12.85 86.55 L10.85 83.55" fill="#6f6f6f" fill-rule="evenodd" stroke="none"/>
    <path d="M22.35 73.55 L25.35 66.55 28.35 67.55 25.35 74.55 22.35 73.55" fill="#6f6f6f" fill-rule="evenodd" stroke="none"/>
    <path d="M3.35 -86.45 L3.35 -82.95 -4.15 -82.95 -4.15 -86.45 3.35 -86.45" fill="#6f6f6f" fill-rule="evenodd" stroke="none"/>
    <path d="M-11.65 -80.45 L-18.65 -76.45 Q-19.15 -77.95 -20.15 -79.45 -16.65 -81.45 -13.65 -83.45 L-11.65 -80.45" fill="#6f6f6f" fill-rule="evenodd" stroke="none"/>
    <path d="M-29.65 -64.95 L-26.65 -71.95 Q-24.65 -70.95 -23.15 -70.45 -24.65 -66.95 -26.65 -63.45 -28.15 -63.95 -29.65 -64.95" fill="#6f6f6f" fill-rule="evenodd" stroke="none"/>
    <path d="M10.85 -80.95 L12.85 -83.45 18.85 -79.45 Q18.35 -77.95 17.35 -76.45 14.35 -78.45 10.85 -80.95" fill="#6f6f6f" fill-rule="evenodd" stroke="none"/>
    <path d="M22.35 -70.45 Q23.85 -70.95 25.35 -71.95 L28.35 -64.95 Q26.85 -63.95 25.35 -63.45 L22.35 -70.45" fill="#6f6f6f" fill-rule="evenodd" stroke="none"/>
    <path d="M-112.65 -11.45 L-112.65 14.55 -115.15 14.55 -115.15 -11.45 -112.65 -11.45" fill="#ffffff" fill-rule="evenodd" stroke="none"/>
  </g>
</svg>
