<?xml version="1.0" encoding="UTF-8" standalone="no"?>
<svg xmlns:ffdec="https://www.free-decompiler.com/flash" xmlns:xlink="http://www.w3.org/1999/xlink" ffdec:objectType="shape" height="356.5px" width="276.2px" xmlns="http://www.w3.org/2000/svg">
  <g transform="matrix(1.0, 0.0, 0.0, 1.0, -727.95, -640.0)">
    <path d="M1004.15 996.5 L728.0 996.5 728.0 992.95 1004.15 992.45 1004.15 996.5" fill="#d9c69c" fill-rule="evenodd" stroke="none"/>
    <path d="M1004.15 943.45 L728.0 943.45 728.0 939.9 1004.15 939.4 1004.15 943.45" fill="#d9c69c" fill-rule="evenodd" stroke="none"/>
    <path d="M1004.1 909.35 L727.95 909.85 727.95 905.8 1004.1 905.8 1004.1 909.35" fill="#d9c69c" fill-rule="evenodd" stroke="none"/>
    <path d="M1004.1 874.3 L727.95 874.8 727.95 870.75 1004.1 870.75 1004.1 874.3" fill="#d9c69c" fill-rule="evenodd" stroke="none"/>
    <path d="M1004.15 841.3 L728.0 841.3 728.0 837.75 1004.15 837.25 1004.15 841.3" fill="#d9c69c" fill-rule="evenodd" stroke="none"/>
    <path d="M1004.15 802.75 L728.0 802.75 728.0 799.2 1004.15 798.7 1004.15 802.75" fill="#d9c69c" fill-rule="evenodd" stroke="none"/>
    <path d="M728.0 763.65 L1004.15 763.15 1004.15 767.2 728.0 767.2 728.0 763.65" fill="#d9c69c" fill-rule="evenodd" stroke="none"/>
    <path d="M728.0 712.1 L1004.15 711.6 1004.15 715.65 728.0 715.65 728.0 712.1" fill="#d9c69c" fill-rule="evenodd" stroke="none"/>
    <path d="M727.95 678.0 L1004.1 678.0 1004.1 681.55 727.95 682.05 727.95 678.0" fill="#d9c69c" fill-rule="evenodd" stroke="none"/>
    <path d="M728.0 640.5 L1004.15 640.0 1004.15 644.05 728.0 644.05 728.0 640.5" fill="#d9c69c" fill-rule="evenodd" stroke="none"/>
  </g>
</svg>
