<?xml version="1.0" encoding="UTF-8" standalone="no"?>
<svg xmlns:ffdec="https://www.free-decompiler.com/flash" xmlns:xlink="http://www.w3.org/1999/xlink" ffdec:objectType="shape" height="492.75px" width="522.7px" xmlns="http://www.w3.org/2000/svg">
  <g transform="matrix(1.0, 0.0, 0.0, 1.0, 210.7, 128.0)">
    <path d="M312.0 -128.0 L312.0 200.75 80.75 200.75 80.75 364.75 -210.7 364.75 -210.7 -128.0 312.0 -128.0" fill="#434343" fill-rule="evenodd" stroke="none"/>
    <path d="M296.15 -97.0 L296.15 96.0 278.25 96.0 278.25 192.75 84.75 192.75 84.75 96.0 8.25 96.0 8.25 143.0 70.75 143.0 70.75 337.0 8.25 337.0 8.25 348.75 -191.0 348.75 -191.0 337.0 -201.7 337.0 -201.7 143.0 -191.0 143.0 -191.0 96.0 -201.0 96.0 -201.0 -97.0 -191.0 -97.0 -191.0 -116.25 8.25 -116.25 8.25 -97.0 84.75 -97.0 84.75 -117.75 278.25 -117.75 278.25 -97.0 296.15 -97.0" fill="#969696" fill-rule="evenodd" stroke="none"/>
    <path d="M-123.0 364.75 L-123.0 348.75 -64.5 348.75 -64.5 364.75 -123.0 364.75" fill="#ffffff" fill-rule="evenodd" stroke="none"/>
    <path d="M296.15 -28.0 L312.0 -28.0 312.0 30.5 296.15 30.5 296.15 -28.0" fill="#ffffff" fill-rule="evenodd" stroke="none"/>
    <path d="M96.0 108.0 L268.0 108.0 268.0 186.0 96.0 186.0 96.0 108.0" fill="#707070" fill-rule="evenodd" stroke="none"/>
    <path d="M-9.95 -32.95 L-181.95 -32.95 -181.95 -110.95 -9.95 -110.95 -9.95 -32.95" fill="#707070" fill-rule="evenodd" stroke="none"/>
    <path d="M70.75 163.0 L70.75 319.0 21.0 319.0 21.0 163.0 70.75 163.0" fill="#707070" fill-rule="evenodd" stroke="none"/>
  </g>
</svg>
