<?xml version="1.0" encoding="UTF-8" standalone="no"?>
<svg xmlns:ffdec="https://www.free-decompiler.com/flash" xmlns:xlink="http://www.w3.org/1999/xlink" ffdec:objectType="shape" height="294.15px" width="79.75px" xmlns="http://www.w3.org/2000/svg">
  <g transform="matrix(1.0, 0.0, 0.0, 1.0, 1.7, 245.25)">
    <path d="M76.4 -1.25 L76.4 4.75 0.35 4.75 0.35 -1.25 76.4 -1.25" fill="#000000" fill-rule="evenodd" stroke="none"/>
    <path d="M30.05 -239.65 L31.25 -245.25 33.05 -245.2 34.0 -239.6 Q55.6 -115.25 59.7 30.3 66.7 9.1 75.05 -0.45 L78.05 2.15 Q68.0 13.8 59.95 43.35 L58.4 48.9 56.15 48.65 56.0 42.85 Q52.7 -103.5 31.75 -228.7 10.3 -127.4 2.8 -6.5 2.55 -3.1 2.45 4.15 L-1.7 4.15 -1.2 -6.5 Q6.65 -133.9 30.05 -239.65" fill="#ffffff" fill-rule="evenodd" stroke="none"/>
  </g>
</svg>
