<?xml version="1.0" encoding="UTF-8" standalone="no"?>
<svg xmlns:ffdec="https://www.free-decompiler.com/flash" xmlns:xlink="http://www.w3.org/1999/xlink" ffdec:objectType="shape" height="275.05px" width="259.25px" xmlns="http://www.w3.org/2000/svg">
  <g transform="matrix(1.0, 0.0, 0.0, 1.0, 130.25, 63.75)">
    <path d="M48.75 -30.85 L51.35 -30.85 51.35 -60.6 128.25 -60.75 128.25 80.5 108.25 80.5 108.25 86.3 129.0 86.3 129.0 208.3 99.3 208.3 99.3 128.65 75.65 128.65 75.65 86.3 82.5 86.3 82.5 80.5 5.25 80.5 5.25 85.0 67.75 85.0 67.75 153.5 -28.25 153.5 -28.25 85.0 -20.5 85.0 -20.5 80.5 -57.5 80.5 -57.5 75.75 -61.75 75.75 -61.75 101.3 -109.0 101.3 -109.0 86.25 -130.25 86.25 -130.25 46.25 -111.25 46.25 -111.25 64.75 -109.0 64.75 -109.0 46.25 -61.75 46.25 -61.75 50.25 -57.5 50.25 -57.5 46.25 -41.0 46.25 -41.0 41.0 -89.75 41.0 -89.75 7.0 -86.25 7.0 -86.25 -32.5 -89.75 -32.5 -89.75 -59.5 -68.5 -59.5 -68.5 -63.75 -29.25 -63.75 -29.25 -59.75 48.75 -59.75 48.75 -30.85" fill="#969696" fill-rule="evenodd" stroke="none"/>
    <path d="M67.75 95.6 L9.5 95.6 9.5 85.0 67.75 85.0 67.75 95.6" fill="#707070" fill-rule="evenodd" stroke="none"/>
    <path d="M24.5 119.6 L67.75 119.6 67.75 153.5 24.5 153.5 24.5 119.6" fill="#707070" fill-rule="evenodd" stroke="none"/>
    <path d="M67.75 118.0 L58.25 118.0 58.25 103.1 67.75 103.1 67.75 118.0" fill="#707070" fill-rule="evenodd" stroke="none"/>
    <path d="M3.0 153.5 L-28.25 153.5 -28.25 139.5 3.0 139.5 3.0 153.5" fill="#707070" fill-rule="evenodd" stroke="none"/>
    <path d="M-81.4 87.95 L-79.25 87.95 -77.4 89.05 -76.3 90.9 -76.3 93.05 -77.4 94.9 -78.9 95.8 -75.95 95.8 -75.95 101.3 -84.75 101.3 -84.75 95.8 -81.8 95.8 -83.3 94.9 -84.4 93.05 -84.4 90.9 -83.3 89.05 -81.4 87.95" fill="#707070" fill-rule="evenodd" stroke="none"/>
    <path d="M-89.35 46.25 L-89.35 55.0 -100.5 55.0 -100.5 46.25 -89.35 46.25" fill="#707070" fill-rule="evenodd" stroke="none"/>
    <path d="M-61.75 101.3 L-68.7 101.3 -68.7 93.05 -61.75 93.05 -61.75 101.3" fill="#707070" fill-rule="evenodd" stroke="none"/>
    <path d="M-89.75 41.0 L-89.75 23.0 -41.65 23.0 -41.65 41.0 -89.75 41.0" fill="#707070" fill-rule="evenodd" stroke="none"/>
    <path d="M-84.9 -30.35 L-82.15 -30.35 -82.15 5.1 -84.9 5.1 -84.9 -30.35" fill="#707070" fill-rule="evenodd" stroke="none"/>
    <path d="M-17.75 -6.1 L-47.15 -10.95 -44.55 -26.7 -15.15 -21.85 -17.75 -6.1" fill="#707070" fill-rule="evenodd" stroke="none"/>
    <path d="M51.35 -30.85 L51.35 -1.25 48.75 -1.25 48.75 -30.85 51.35 -30.85" fill="#707070" fill-rule="evenodd" stroke="none"/>
    <path d="M46.3 -32.25 L39.3 -32.25 39.3 -53.4 46.3 -53.4 46.3 -32.25" fill="#707070" fill-rule="evenodd" stroke="none"/>
    <path d="M23.15 -42.65 L29.85 4.2 11.45 6.85 4.75 -40.0 23.15 -42.65" fill="#707070" fill-rule="evenodd" stroke="none"/>
    <path d="M-10.05 -40.05 L-34.6 -40.05 -34.6 -57.4 -10.05 -57.4 -10.05 -40.05" fill="#707070" fill-rule="evenodd" stroke="none"/>
    <path d="M51.35 -46.4 L51.35 -60.6 128.25 -60.75 128.25 -46.55 51.35 -46.4" fill="#707070" fill-rule="evenodd" stroke="none"/>
    <path d="M115.4 -53.75 L128.25 -60.75 128.25 16.5 115.4 16.5 115.4 -53.75" fill="#707070" fill-rule="evenodd" stroke="none"/>
    <path d="M118.25 23.75 L128.25 23.75 128.25 53.85 118.25 53.85 118.25 23.75" fill="#707070" fill-rule="evenodd" stroke="none"/>
    <path d="M126.9 211.3 L101.15 211.3 101.15 206.65 126.9 206.65 126.9 211.3" fill="#ffffff" fill-rule="evenodd" stroke="none"/>
  </g>
</svg>
