<?xml version="1.0" encoding="UTF-8" standalone="no"?>
<svg xmlns:ffdec="https://www.free-decompiler.com/flash" xmlns:xlink="http://www.w3.org/1999/xlink" ffdec:objectType="shape" height="2683.0px" width="1476.6px" xmlns="http://www.w3.org/2000/svg">
  <g transform="matrix(1.0, 0.0, 0.0, 1.0, 106.85, -604.0)">
    <path d="M1299.0 3287.0 L-101.0 3287.0 -101.0 3271.0 1299.0 3271.0 1299.0 3287.0" fill="#000000" fill-rule="evenodd" stroke="none"/>
    <path d="M1369.75 620.0 L-29.45 663.05 -29.95 647.05 1369.25 604.0 1369.75 620.0" fill="#000000" fill-rule="evenodd" stroke="none"/>
    <path d="M1332.35 987.9 L-66.85 944.85 -66.35 928.9 1332.85 971.95 1332.35 987.9" fill="#000000" fill-rule="evenodd" stroke="none"/>
    <path d="M1367.75 1276.0 L-31.45 1319.05 -31.95 1303.05 1367.25 1260.0 1367.75 1276.0" fill="#000000" fill-rule="evenodd" stroke="none"/>
    <path d="M1330.35 1643.9 L-68.85 1600.85 -68.35 1584.9 1330.85 1627.95 1330.35 1643.9" fill="#000000" fill-rule="evenodd" stroke="none"/>
    <path d="M1329.75 1932.0 L-69.45 1975.05 -69.95 1959.05 1329.25 1916.0 1329.75 1932.0" fill="#000000" fill-rule="evenodd" stroke="none"/>
    <path d="M1292.35 2299.9 L-106.85 2256.85 -106.35 2240.9 1292.85 2283.95 1292.35 2299.9" fill="#000000" fill-rule="evenodd" stroke="none"/>
    <path d="M1361.75 2588.0 L-37.45 2631.05 -37.95 2615.05 1361.25 2572.0 1361.75 2588.0" fill="#000000" fill-rule="evenodd" stroke="none"/>
    <path d="M1324.35 2955.9 L-74.85 2912.85 -74.35 2896.9 1324.85 2939.95 1324.35 2955.9" fill="#000000" fill-rule="evenodd" stroke="none"/>
  </g>
</svg>
