<?xml version="1.0" encoding="UTF-8" standalone="no"?>
<svg xmlns:ffdec="https://www.free-decompiler.com/flash" xmlns:xlink="http://www.w3.org/1999/xlink" ffdec:objectType="shape" height="230.5px" width="291.95px" xmlns="http://www.w3.org/2000/svg">
  <g transform="matrix(1.0, 0.0, 0.0, 1.0, 199.7, 127.85)">
    <path d="M39.8 -78.85 L92.25 -78.85 Q92.25 -3.85 91.75 70.65 L90.75 78.15 Q89.25 82.15 87.25 85.65 L82.25 93.65 Q78.75 96.15 74.75 98.15 71.75 99.65 68.25 100.65 L53.75 102.65 -115.2 102.65 -115.2 24.15 -199.7 24.15 -199.7 -79.35 -57.7 -79.35 -57.7 -95.85 24.8 -95.85 24.8 -127.85 39.8 -127.85 39.8 -78.85" fill="#424242" fill-rule="evenodd" stroke="none"/>
    <path d="M-37.7 -74.85 L-37.7 -55.35 -57.2 -55.35 -57.2 -74.85 -53.2 -74.85 -53.2 -75.85 -39.7 -75.85 -39.7 -74.85 -37.7 -74.85" fill="#959595" fill-rule="evenodd" stroke="none"/>
    <path d="M-28.7 19.15 L-31.7 19.15 -31.7 24.65 -28.7 24.65 -28.7 19.15 M-61.2 -44.85 L-58.2 -44.85 -58.2 -47.85 -47.7 -47.85 -47.7 -52.35 -5.2 -52.35 -5.2 -23.85 -8.7 -23.85 -8.7 -18.35 -5.2 -18.35 -5.2 18.65 -8.7 18.65 -8.7 24.65 -5.2 24.65 -5.2 53.65 -50.7 53.65 -50.7 31.65 -58.2 31.65 -58.2 15.15 Q-60.2 17.15 -62.7 19.15 L-80.7 19.15 -80.7 -18.35 -62.7 -18.35 -58.2 -12.85 -58.2 -26.85 -61.2 -26.85 -61.2 -20.85 -89.2 -20.85 -89.2 -17.85 -107.2 -17.85 -107.2 -20.85 -108.2 -20.85 -108.2 -52.35 -104.7 -52.35 -104.7 -55.35 -107.7 -55.35 -107.7 -72.85 -87.2 -72.85 -87.2 -55.35 -91.7 -55.35 -91.7 -52.35 -61.2 -52.35 -61.2 -44.85" fill="#959595" fill-rule="evenodd" stroke="none"/>
    <path d="M-8.7 -18.35 L-3.7 -18.35 -3.7 18.65 -8.7 18.65 -8.7 -18.35" fill="#6f6f6f" fill-rule="evenodd" stroke="none"/>
    <path d="M-8.7 -52.35 L-3.7 -52.35 -3.7 -23.85 -8.7 -23.85 -8.7 -52.35" fill="#6f6f6f" fill-rule="evenodd" stroke="none"/>
    <path d="M-10.2 -52.35 L-10.2 -45.35 -47.7 -45.35 -47.7 -52.35 -10.2 -52.35" fill="#6f6f6f" fill-rule="evenodd" stroke="none"/>
    <path d="M-20.7 53.65 L-20.7 48.65 -14.2 48.65 -14.2 53.65 -20.7 53.65" fill="#6f6f6f" fill-rule="evenodd" stroke="none"/>
    <path d="M-6.2 30.65 L-6.2 24.65 -3.7 24.65 -3.7 53.65 -6.2 53.65 -6.2 32.65 -36.7 32.65 -36.7 30.65 -6.2 30.65" fill="#6f6f6f" fill-rule="evenodd" stroke="none"/>
    <path d="M-58.2 31.15 L-58.2 19.15 -52.7 19.65 -52.7 31.15 -58.2 31.15" fill="#6f6f6f" fill-rule="evenodd" stroke="none"/>
    <path d="M-64.2 -18.35 L-58.2 -18.35 -58.2 19.15 -64.2 19.15 -64.2 6.15 -67.2 6.15 -67.2 -6.85 -64.2 -6.85 -64.2 -18.35" fill="#6f6f6f" fill-rule="evenodd" stroke="none"/>
    <path d="M-85.7 -18.35 L-79.2 -18.35 -79.2 19.15 -85.7 19.15 -85.7 -18.35" fill="#6f6f6f" fill-rule="evenodd" stroke="none"/>
    <path d="M-39.7 -75.85 L-53.2 -75.85 -53.2 -79.35 -39.7 -79.35 -39.7 -75.85" fill="#ffffff" fill-rule="evenodd" stroke="none"/>
    <path d="M-107.2 14.65 L-107.2 -17.85 -89.2 -17.85 -89.2 14.65 -107.2 14.65" fill="#ffffff" fill-rule="evenodd" stroke="none"/>
    <path d="M-87.2 -55.35 L-87.2 -72.85 -57.2 -72.85 -57.2 -55.35 -87.2 -55.35" fill="#ffffff" fill-rule="evenodd" stroke="none"/>
  </g>
</svg>
