<?xml version="1.0" encoding="UTF-8" standalone="no"?>
<svg xmlns:ffdec="https://www.free-decompiler.com/flash" xmlns:xlink="http://www.w3.org/1999/xlink" ffdec:objectType="shape" height="31.0px" width="336.0px" xmlns="http://www.w3.org/2000/svg">
  <g transform="matrix(1.0, 0.0, 0.0, 1.0, 0.5, 0.5)">
    <path d="M330.6 4.35 Q335.0 8.75 335.0 14.95 L335.0 15.0 Q335.0 21.2 330.6 25.6 326.2 30.0 320.0 30.0 L15.0 30.0 Q8.8 30.0 4.4 25.6 0.0 21.2 0.0 15.0 L0.0 14.95 Q0.0 8.75 4.4 4.35 8.85 0.0 15.0 0.0 L320.0 0.0 Q326.2 0.0 330.6 4.35" fill="#f4fbe9" fill-rule="evenodd" stroke="none"/>
    <path d="M330.6 4.35 Q326.2 0.0 320.0 0.0 L15.0 0.0 Q8.85 0.0 4.4 4.35 0.0 8.75 0.0 14.95 L0.0 15.0 Q0.0 21.2 4.4 25.6 8.8 30.0 15.0 30.0 L320.0 30.0 Q326.2 30.0 330.6 25.6 335.0 21.2 335.0 15.0 L335.0 14.95 Q335.0 8.75 330.6 4.35 Z" fill="none" stroke="#e3e3e3" stroke-linecap="round" stroke-linejoin="round" stroke-width="1.0"/>
  </g>
</svg>
