<?xml version="1.0" encoding="UTF-8" standalone="no"?>
<svg xmlns:ffdec="https://www.free-decompiler.com/flash" xmlns:xlink="http://www.w3.org/1999/xlink" ffdec:objectType="shape" height="1259.2px" width="2459.1px" xmlns="http://www.w3.org/2000/svg">
  <g transform="matrix(1.0, 0.0, 0.0, 1.0, 1178.6, 985.3)">
    <path d="M1280.5 -185.0 L1251.4 -160.4 1256.8 -132.7 1241.9 -131.1 1238.9 -97.5 1190.0 -137.6 1145.9 -77.2 1139.0 -120.0 1142.0 -137.2 1127.8 -219.5 1127.5 -220.4 1118.7 -225.8 1108.6 -225.8 Q1092.2 -235.0 1075.8 -244.3 L1060.0 -251.2 1038.9 -254.8 1017.4 -255.0 992.1 -247.7 978.0 -246.7 950.9 -255.0 923.5 -245.0 883.2 -226.4 870.8 -217.1 859.0 -205.5 848.3 -190.5 809.1 -154.0 786.9 -120.8 818.2 -94.0 825.0 -89.5 839.5 -74.5 848.0 -69.6 890.8 -34.1 842.2 58.5 790.0 28.9 770.7 15.7 652.0 -85.4 626.2 -54.7 616.6 -62.8 610.4 -55.5 611.4 -54.5 592.2 -33.4 606.3 -21.4 592.1 -4.7 592.3 -4.5 571.1 20.5 578.3 26.6 544.0 67.0 522.1 48.8 501.9 72.6 548.0 109.9 540.1 119.5 558.6 140.2 572.2 158.4 582.6 174.7 593.8 171.4 620.1 227.0 606.7 235.3 611.9 248.5 574.4 233.8 563.3 273.9 556.0 260.6 541.4 267.4 514.0 208.4 522.7 203.3 510.3 184.7 498.7 170.7 498.4 170.4 493.1 177.0 445.1 140.8 425.6 164.1 393.6 137.3 367.4 168.0 299.5 112.6 327.1 80.7 315.1 69.9 334.9 46.2 293.6 7.0 300.6 -0.2 283.5 -13.6 273.0 -18.2 267.3 -21.9 263.6 -11.5 201.2 -36.8 204.5 -46.0 147.6 -67.3 93.8 -53.8 61.9 -41.5 50.8 -35.5 47.7 -32.1 41.9 -23.7 36.9 -13.0 18.5 56.6 27.8 59.2 9.4 124.3 -0.1 121.6 -1.7 124.7 13.1 143.5 8.3 160.2 16.1 163.9 6.3 181.2 1.6 178.4 -0.7 182.7 6.6 187.4 -13.4 211.4 -28.7 197.4 -40.6 206.2 -69.1 181.7 -118.8 145.6 -139.3 133.4 -139.6 133.5 -177.2 113.9 -177.1 112.7 -238.3 86.1 -271.4 75.1 -293.0 69.8 -293.9 71.2 -329.3 63.4 -329.4 63.4 -367.3 57.3 -368.4 55.9 -408.4 53.4 -461.9 54.8 -462.2 56.2 -510.5 60.2 -568.5 72.5 -652.4 97.6 -691.2 103.4 -723.1 103.1 -768.2 98.1 -841.3 79.3 -835.5 63.5 -865.2 51.6 -906.2 29.3 -921.2 18.7 -933.8 31.9 -956.7 4.8 -977.5 -25.1 -993.4 -53.8 -1002.0 -73.5 -1044.2 -66.7 -1065.1 -354.6 -1078.8 -516.3 -1073.8 -516.8 -1084.5 -636.5 -1082.2 -636.7 -1088.5 -678.3 -1076.1 -679.0 -1076.0 -685.0 -1078.8 -706.2 -1080.3 -733.6 -1085.0 -754.0 -1084.4 -773.4 -1078.5 -801.5 -1073.0 -813.3 -1067.2 -822.3 -1051.8 -841.4 -1049.2 -844.1 -1088.3 -839.8 -1124.7 -832.0 -1152.6 -816.2 -1178.6 -880.1 Q-1157.6 -890.6 -1136.6 -901.2 L-1094.9 -917.7 -1033.3 -922.2 -982.2 -914.3 -982.2 -962.6 -974.2 -962.6 -974.2 -985.3 -938.7 -949.4 -903.4 -985.3 -903.4 -962.6 -894.7 -962.6 -894.7 -917.3 -877.8 -917.5 -878.2 -928.3 -811.2 -930.3 -808.7 -842.6 -875.6 -840.6 -875.9 -850.7 -936.1 -849.2 -962.0 -831.5 -990.9 -808.3 -1012.7 -786.9 -1014.0 -784.9 -1016.2 -778.8 -1018.1 -770.8 -1018.9 -755.9 -1010.6 -686.4 -1010.3 -685.0 -999.3 -685.6 -995.6 -645.5 -969.7 -648.1 -969.6 -646.7 -961.9 -647.3 -956.0 -580.6 -952.9 -580.6 -929.5 -582.9 -927.3 -565.5 -808.4 -577.3 -783.6 -577.1 -760.9 -574.3 -735.8 -567.8 -707.9 -555.4 -685.1 -542.3 -663.1 -526.0 -648.4 -512.3 -632.1 -494.5 -621.5 -480.9 -611.4 -464.7 -589.2 -421.4 -574.0 -381.1 -556.0 -362.7 -530.3 -355.4 -425.8 -340.1 -324.4 -341.9 -312.8 -251.1 -423.0 -249.1 -552.7 -265.5 -571.1 -270.7 -618.0 -290.9 -633.7 -259.7 -638.2 -244.9 -630.8 -244.9 -630.8 -205.0 13.9 -205.0 13.9 -220.6 87.1 -220.6 87.1 -158.2 142.1 -140.0 159.0 -184.8 227.4 -159.1 212.5 -119.3 213.6 -118.9 211.7 -113.8 227.1 -108.3 231.0 -119.1 Q263.6 -106.3 296.1 -93.6 L294.0 -82.5 324.5 -64.7 346.8 -47.7 354.7 -55.9 391.4 -21.4 407.1 -41.6 358.1 -83.6 405.0 -141.8 456.8 -99.1 495.7 -144.9 494.5 -145.9 503.5 -159.3 496.1 -166.8 620.1 -317.6 730.3 -221.9 771.8 -253.5 796.2 -285.0 797.8 -295.4 807.7 -315.2 835.2 -332.5 863.6 -332.9 877.3 -334.3 881.1 -335.4 904.5 -346.1 930.5 -355.5 940.6 -362.5 955.3 -368.9 965.8 -376.2 978.9 -379.3 981.7 -380.5 981.8 -379.9 1006.8 -385.9 1021.1 -387.2 1093.8 -380.4 1114.7 -362.0 Q1123.3 -359.2 1131.8 -356.5 L1165.1 -335.8 1187.7 -316.9 1210.0 -288.7 1226.0 -259.6 1237.9 -231.3 1241.2 -213.7 1245.0 -213.4 1280.5 -185.0" fill="#000000" fill-rule="evenodd" stroke="none"/>
    <path d="M-6.6 -28.2 L-9.9 -29.5 -20.9 10.1 -17.9 11.3 -9.7 -11.8 -6.7 -28.1 -6.6 -28.2 M-41.6 -130.1 L-41.6 -144.6 -57.9 -144.6 -57.9 -103.6 -34.4 -103.6 -34.4 -76.6 -57.9 -76.6 -57.9 -28.2 -235.6 -28.2 -235.6 -71.2 -242.3 -71.2 -242.3 -28.6 -451.3 -28.6 -451.3 -88.2 -456.9 -88.2 -456.9 -28.6 -565.9 -28.6 -565.9 -25.1 -558.7 -25.1 -558.7 0.4 -568.2 0.4 -572.9 2.2 -572.9 13.8 -538.3 4.9 -540.4 -6.2 -513.9 -10.7 -481.3 -14.7 -419.6 -17.4 -419.8 -4.9 -360.3 -2.2 -358.7 -14.3 -309.2 -6.8 -250.7 7.7 -254.5 20.0 -244.4 23.4 -240.9 23.3 -229.3 27.6 -226.8 28.3 -225.6 29.6 -204.9 37.3 -201.4 37.9 -170.1 49.9 -165.9 40.8 -163.6 40.3 -161.8 41.3 -140.2 51.4 -87.9 81.2 -49.4 107.4 -46.9 108.4 -44.4 105.2 -40.2 104.4 -36.1 90.6 -50.4 86.6 -42.9 60.3 -35.0 62.5 -25.4 40.2 -20.4 21.6 -23.7 20.1 -26.2 29.2 -64.7 18.2 -42.9 -58.8 -4.7 -48.6 -8.1 -36.3 -4.2 -34.8 6.7 -54.9 15.7 -65.6 28.7 -75.9 39.4 -81.9 Q55.4 -88.7 71.4 -95.6 L86.7 -100.9 92.7 -102.2 94.1 -104.9 94.1 -106.6 93.4 -107.9 91.4 -109.2 37.1 -126.2 -13.9 -139.7 -13.9 -130.1 -41.6 -130.1 M-686.4 -424.8 L-702.4 -447.1 -721.9 -464.1 -747.4 -479.6 -762.9 -486.1 -774.9 -489.6 -798.9 -492.1 -801.4 -493.0 -801.4 -492.6 -912.4 -481.6 -939.0 -482.1 -938.9 -481.6 -939.9 -479.1 -966.9 -477.6 -954.9 -318.1 -933.1 -99.8 -935.2 -99.6 -915.9 -58.6 -899.4 -39.1 -888.9 -30.1 -863.9 -13.6 -847.9 -5.1 -805.4 13.9 -781.9 21.4 -736.4 30.9 -718.9 32.4 -697.3 32.4 -681.9 31.4 -669.3 28.8 -644.3 22.1 -628.9 16.4 -624.1 27.0 -590.7 18.4 -591.4 2.2 -595.9 0.4 -606.4 0.4 -606.4 -25.1 -597.4 -25.1 -597.4 -28.6 -697.4 -28.6 -697.4 -181.1 -683.8 -181.1 -683.8 -197.1 -698.8 -197.1 -698.8 -224.9 -689.8 -224.9 -689.8 -232.3 -687.9 -252.6 -682.3 -276.6 -652.0 -348.3 -657.4 -361.1 -661.4 -367.1 -667.2 -385.1 -686.4 -424.8 M1249.0 -184.6 L1242.6 -179.2 1236.0 -187.2 1225.9 -186.2 1233.0 -150.2 1220.6 -148.9 1214.8 -139.1 1221.6 -128.9 1220.3 -113.9 1162.3 -101.2 1159.3 -119.9 1162.3 -137.2 1147.2 -224.6 1143.7 -234.6 1139.7 -243.1 1134.5 -239.6 1124.2 -245.8 1113.7 -245.8 1084.9 -262.1 1065.7 -270.5 1040.6 -274.7 1014.7 -275.0 988.6 -267.5 980.2 -266.9 973.7 -268.9 974.2 -270.4 972.7 -276.1 Q971.8 -275.7 970.9 -275.4 L969.4 -277.6 969.7 -282.2 947.1 -274.9 916.1 -263.6 872.7 -243.6 857.7 -232.2 843.7 -218.6 833.1 -203.6 810.1 -180.6 806.7 -178.9 807.1 -177.6 794.6 -168.1 765.1 -124.1 757.6 -119.6 806.1 -78.1 812.1 -74.1 827.1 -58.6 836.6 -53.1 865.6 -29.1 834.1 30.9 800.6 11.9 783.1 -0.1 655.6 -108.6 648.7 -112.7 623.7 -82.9 607.1 -96.9 597.4 -85.6 580.7 -99.6 574.1 -95.2 571.1 -97.2 565.0 -89.9 590.6 -66.6 580.1 -52.8 573.1 -58.3 552.0 -33.1 554.3 -30.9 558.5 -35.9 578.1 -19.1 565.4 -4.2 545.8 -20.9 549.6 -25.4 547.4 -27.5 538.2 -16.2 540.4 -14.2 544.5 -19.0 564.1 -2.3 551.4 12.7 531.8 -4.1 535.7 -8.7 533.7 -10.6 521.3 4.7 550.1 28.9 541.6 38.9 519.7 20.8 499.6 44.4 483.0 30.8 471.9 41.0 489.8 55.9 465.1 85.6 489.3 107.2 498.7 95.8 519.7 112.8 515.3 118.2 515.1 122.8 528.4 136.1 543.1 152.8 555.7 169.8 574.1 198.1 583.1 195.4 594.4 219.4 582.1 227.1 586.7 239.1 571.4 247.1 565.4 236.1 562.4 235.4 551.1 240.8 539.7 216.4 547.1 212.1 543.4 198.4 526.4 172.8 513.4 157.1 502.4 146.4 495.0 142.9 489.7 149.4 468.1 133.1 477.4 121.7 453.1 100.0 423.1 135.9 387.6 106.2 390.6 101.4 383.7 95.8 372.4 109.4 382.1 119.9 364.8 140.2 328.1 110.2 345.8 89.7 358.1 97.5 368.9 83.8 363.8 79.7 360.3 83.7 342.8 67.9 372.6 32.3 362.8 25.4 353.8 15.9 353.2 15.4 341.6 24.9 322.1 6.4 328.9 -0.6 Q327.6 -1.3 326.3 -2.1 L323.3 -6.8 316.8 -12.8 293.6 -31.1 Q288.1 -33.4 282.6 -35.8 L272.3 -42.6 260.6 -46.3 255.3 -47.3 251.8 -37.8 226.6 -48.1 231.5 -61.8 216.8 -67.4 215.4 -63.2 150.4 -87.6 143.4 -86.9 87.7 -72.9 54.1 -59.9 42.7 -54.6 37.1 -50.2 24.4 -33.6 18.1 -20.1 1.1 42.4 -4.9 70.7 -5.0 70.8 3.1 73.1 -4.4 99.6 -18.9 95.5 -22.4 111.1 -17.9 112.4 -25.3 127.0 -15.9 138.9 -17.8 140.2 -15.8 147.7 -10.8 154.7 -14.0 161.9 -27.4 154.9 -33.8 165.4 -36.6 165.5 -37.8 171.3 -43.0 177.7 -83.9 145.2 -99.9 133.9 -138.4 110.6 -139.4 111.1 -155.4 102.8 -155.3 101.6 -197.6 80.9 -231.6 67.3 -256.0 59.2 -294.7 48.4 -301.2 47.3 -301.4 47.4 -302.8 47.2 -303.6 48.6 -320.9 44.8 -320.9 42.9 -337.2 40.3 -338.3 41.8 -355.9 38.9 -357.2 37.2 -363.7 36.2 -407.9 33.4 -461.4 34.7 -478.4 36.2 -478.6 37.2 -513.6 40.4 -546.3 46.6 -573.4 53.1 -656.9 78.1 -692.3 83.4 -722.3 83.1 -743.6 81.4 -764.3 78.4 -814.9 65.4 -810.3 52.8 -831.4 43.4 -856.9 33.4 -895.4 12.4 -923.4 -8.1 -932.9 1.9 -940.9 -7.6 -960.4 -35.6 -975.4 -62.6 -988.9 -93.6 -989.0 -94.8 -1015.8 -92.4 -1033.5 -290.6 -1039.5 -290.1 -1041.8 -312.4 -1035.5 -312.9 -1041.2 -376.6 -1047.2 -376.1 -1049.4 -398.4 -1043.1 -398.9 -1049.4 -468.9 -1054.4 -468.4 -1057.1 -498.2 -1052.1 -498.6 -1062.8 -618.4 -1044.9 -620.0 -1044.9 -620.1 -1046.4 -629.6 -1046.4 -632.6 -1048.4 -633.1 -1061.4 -633.1 -1065.4 -659.6 -1056.4 -660.1 -1055.9 -686.1 -1058.9 -708.1 -1060.4 -736.1 -1064.9 -756.1 -1064.4 -771.1 -1059.4 -795.1 -1055.4 -803.6 -1050.9 -810.6 -1036.9 -828.1 -1006.9 -856.1 -1000.4 -860.6 -998.4 -864.1 -999.9 -866.6 -1002.9 -867.1 -1031.9 -866.6 -1091.4 -859.6 -1112.4 -855.1 -1114.0 -859.0 -1136.9 -848.7 -1137.4 -840.6 -1136.1 -837.1 Q-1138.7 -835.3 -1141.4 -833.6 L-1162.3 -873.6 -1154.4 -877.4 -1152.8 -874.7 -1146.6 -870.1 -1122.1 -879.1 -1123.9 -883.6 -1111.4 -886.1 -1074.9 -888.6 -1074.9 -896.1 -1041.9 -893.6 -1042.4 -891.1 -948.7 -896.1 -947.9 -902.1 -947.4 -902.1 -947.4 -915.1 -962.2 -915.1 -962.2 -942.6 -954.2 -942.6 -954.2 -965.3 -923.4 -965.3 -923.4 -942.6 -914.7 -942.6 -914.7 -915.1 -929.9 -915.1 -929.9 -902.1 -914.4 -902.1 -914.2 -897.1 -873.2 -897.6 -873.1 -894.3 -857.2 -894.3 -857.6 -908.9 -830.6 -909.7 -829.2 -862.0 -856.2 -861.2 -856.8 -875.8 -872.4 -875.8 -872.2 -870.8 -942.4 -869.1 -973.9 -847.6 -1004.4 -823.1 -1017.4 -809.6 -1027.9 -800.1 -1031.9 -794.1 -1035.4 -784.6 -1037.9 -774.1 -1038.9 -754.6 -1036.4 -735.6 -1034.9 -716.1 -1031.4 -695.1 -1030.4 -683.1 -1026.4 -664.1 -1017.4 -664.6 -1014.9 -637.1 -1028.9 -634.6 -1028.4 -624.1 -1028.0 -621.5 -980.1 -625.8 -974.3 -560.6 -951.9 -560.6 -946.9 -561.1 -943.4 -533.1 -915.4 -533.1 -914.9 -533.0 -914.9 -546.6 -807.4 -557.3 -784.9 -557.1 -764.7 -554.6 -742.4 -548.8 -716.9 -537.6 -696.1 -525.6 -675.9 -510.6 -662.6 -498.2 -647.4 -481.6 -637.9 -469.4 -628.9 -455.1 -619.4 -435.1 -607.4 -413.1 -599.4 -391.8 -611.4 -386.6 -611.5 -385.8 -590.4 -356.6 -562.9 -343.9 -534.9 -335.9 -504.4 -330.1 -426.9 -320.1 -341.9 -321.6 -335.4 -270.6 -422.4 -269.1 -443.4 -270.6 -489.4 -276.1 -548.4 -285.1 -564.4 -289.6 -622.4 -315.1 -625.7 -320.2 -652.4 -267.1 -658.9 -245.2 -659.8 -224.9 -650.8 -224.9 -650.8 -197.1 -665.8 -197.1 -665.8 -181.1 -566.9 -181.1 -566.9 -185.1 -503.4 -185.1 -503.4 -181.1 -456.9 -181.1 -456.9 -123.4 -451.3 -123.4 -451.3 -180.6 -242.3 -180.6 -242.3 -137.7 -235.6 -137.7 -235.6 -180.2 -184.9 -180.2 -184.9 -186.9 -121.9 -186.9 -121.9 -180.2 -57.9 -180.2 -57.9 -163.1 -41.6 -163.1 -41.6 -178.6 -13.9 -178.6 -13.9 -169.4 -10.3 -167.9 8.1 -163.2 32.7 -155.0 32.7 -158.1 49.7 -158.1 49.7 -162.2 54.2 -162.2 54.2 -163.4 33.9 -163.4 33.9 -200.6 67.1 -200.6 67.1 -163.4 62.9 -163.4 62.9 -162.2 66.9 -162.2 66.9 -153.9 65.7 -144.3 154.3 -114.9 154.4 -115.3 157.3 -123.1 161.1 -121.7 161.5 -122.8 157.6 -124.2 170.6 -159.0 201.7 -147.4 188.6 -112.6 Q179.1 -116.1 169.6 -119.7 L169.2 -118.6 Q171.3 -117.8 173.4 -117.1 L171.9 -113.2 187.8 -107.2 185.9 -101.9 223.7 -88.2 222.6 -84.7 237.7 -78.9 242.8 -93.1 Q268.6 -83.1 268.6 -83.6 L266.0 -76.8 268.8 -72.1 286.8 -63.8 313.3 -48.1 347.8 -22.8 349.2 -21.5 355.3 -27.8 375.1 -9.3 366.1 2.8 374.3 11.2 384.8 17.8 409.1 -11.3 430.1 6.2 440.4 -6.3 426.3 -18.3 446.5 -42.8 445.3 -44.0 441.8 -40.0 410.5 -66.3 423.0 -80.3 453.8 -54.1 449.8 -49.3 451.0 -48.2 455.8 -54.1 404.7 -97.3 408.1 -102.3 400.8 -108.6 406.6 -114.6 459.3 -71.1 512.1 -133.3 539.4 -110.3 546.3 -117.8 544.1 -120.8 546.3 -128.1 521.1 -149.6 529.3 -161.8 523.1 -168.1 590.2 -249.3 598.4 -243.1 629.8 -280.0 722.6 -200.8 693.7 -166.2 693.6 -166.1 702.1 -166.1 706.1 -163.6 710.6 -168.6 752.1 -201.1 758.6 -205.1 754.1 -207.1 751.1 -212.6 786.6 -239.6 786.7 -239.1 787.4 -240.9 800.1 -258.2 815.1 -276.6 817.1 -289.2 823.1 -301.2 841.1 -312.6 864.7 -312.9 881.1 -314.6 888.1 -316.6 912.1 -327.6 939.7 -337.6 950.4 -344.9 964.1 -350.9 964.1 -350.7 974.1 -357.6 1010.0 -366.1 1021.0 -367.1 1085.5 -361.1 1104.6 -344.2 1123.3 -338.2 1153.3 -319.6 1173.3 -302.9 1193.3 -277.6 1208.0 -250.9 1218.6 -225.6 1224.3 -194.9 1237.3 -193.9 1249.0 -184.6" fill="#000000" fill-rule="evenodd" stroke="none"/>
    <path d="M-968.9 -202.7 L-965.3 -202.8 -964.4 -192.7 -968.0 -192.3 -968.9 -202.7" fill="#000000" fill-rule="evenodd" stroke="none"/>
    <path d="M-993.0 -332.5 L-992.3 -325.1 -1000.0 -325.0 -1000.2 -332.4 -993.0 -332.5" fill="#000000" fill-rule="evenodd" stroke="none"/>
    <path d="M-991.2 -313.5 L-990.5 -304.8 -997.1 -304.8 -997.2 -313.3 -991.2 -313.5" fill="#000000" fill-rule="evenodd" stroke="none"/>
    <path d="M-1004.0 -618.5 L-1004.7 -623.5 -988.9 -625.0 -988.8 -623.5 -993.7 -623.1 -993.5 -619.3 -1004.0 -618.5" fill="#000000" fill-rule="evenodd" stroke="none"/>
    <path d="M-460.3 -70.8 L-460.3 -103.3 -457.5 -103.3 -457.5 -70.8 -460.3 -70.8" fill="#000000" fill-rule="evenodd" stroke="none"/>
    <path d="M-460.3 -121.8 L-460.3 -138.3 -457.5 -138.3 -457.5 -121.8 -460.3 -121.8" fill="#000000" fill-rule="evenodd" stroke="none"/>
    <path d="M-243.2 -137.7 L-235.6 -137.7 -235.6 -70.3 -243.2 -70.3 -243.2 -137.7" fill="#000000" fill-rule="evenodd" stroke="none"/>
    <path d="M-218.7 -141.3 L-218.7 -154.6 -200.7 -154.6 -200.7 -141.3 -218.7 -141.3" fill="#000000" fill-rule="evenodd" stroke="none"/>
    <path d="M-218.7 -162.1 L-218.7 -175.6 -200.7 -175.6 -200.7 -162.1 -218.7 -162.1" fill="#000000" fill-rule="evenodd" stroke="none"/>
    <path d="M-47.6 -85.1 L-47.6 -76.7 -65.6 -76.7 -65.6 -28.9 -157.4 -28.9 -157.4 -28.7 -179.6 -28.7 -179.6 -50.7 -173.3 -50.7 -173.3 -34.1 -157.4 -34.1 -157.4 -59.4 -77.6 -59.4 -77.6 -63.6 -99.8 -63.6 -99.8 -85.6 -93.5 -85.6 -93.5 -69.0 -77.6 -69.0 -77.6 -85.1 -47.6 -85.1" fill="#000000" fill-rule="evenodd" stroke="none"/>
    <path d="M598.4 -243.1 L629.8 -280.0 722.6 -200.8 708.2 -183.9 703.1 -188.4 713.8 -201.2 702.1 -211.2 685.8 -191.8 618.7 -248.5 616.0 -245.3 633.0 -231.0 618.9 -214.2 614.1 -218.2 624.8 -230.9 612.6 -241.2 602.2 -228.8 584.2 -242.1 590.2 -249.3 598.4 -243.1" fill="#000000" fill-rule="evenodd" stroke="none"/>
    <path d="M-1019.6 -620.8 L-1011.7 -621.3 -987.4 -368.6 -976.0 -232.7 -972.2 -233.0 -965.9 -159.1 -968.1 -159.0 -966.3 -139.5 -975.0 -138.7 -977.3 -158.5 -980.4 -158.3 -986.5 -232.1 -983.8 -232.2 -988.8 -287.5 -994.3 -287.5 -994.3 -291.1 -989.1 -291.1 -989.9 -299.6 -989.7 -296.9 -994.2 -296.9 -994.2 -301.6 -990.1 -301.5 -996.0 -366.2 -1000.4 -366.6 -1000.6 -374.3 -996.8 -374.4 -1019.6 -620.8" fill="#000000" fill-rule="evenodd" stroke="none"/>
    <path d="M-436.4 -129.1 L-436.4 -146.8 -423.7 -146.8 -423.7 -129.1 -436.4 -129.1" fill="#000000" fill-rule="evenodd" stroke="none"/>
    <path d="M-408.2 -130.3 L-408.2 -142.8 -390.2 -142.8 -390.2 -130.3 -408.2 -130.3" fill="#000000" fill-rule="evenodd" stroke="none"/>
    <path d="M-392.9 -169.3 L-392.9 -152.3 -405.7 -152.3 -405.7 -169.3 -392.9 -169.3" fill="#000000" fill-rule="evenodd" stroke="none"/>
    <path d="M-436.9 -156.3 L-436.9 -174.8 -423.7 -174.8 -423.7 -156.3 -436.9 -156.3" fill="#000000" fill-rule="evenodd" stroke="none"/>
    <path d="M461.2 59.7 L457.2 63.8 453.1 59.7 457.1 55.7 461.2 59.7" fill="#000000" fill-rule="evenodd" stroke="none"/>
    <path d="M412.2 13.4 L409.3 18.4 404.3 15.6 407.1 10.6 412.2 13.4" fill="#000000" fill-rule="evenodd" stroke="none"/>
    <path d="M449.6 -39.5 L451.3 -34.0 445.8 -32.2 444.1 -37.7 449.6 -39.5" fill="#000000" fill-rule="evenodd" stroke="none"/>
    <path d="M420.3 2.1 L416.3 6.2 412.2 2.2 416.2 -1.9 420.3 2.1" fill="#000000" fill-rule="evenodd" stroke="none"/>
    <path d="M415.6 6.6 L411.6 10.7 407.4 6.7 411.4 2.6 415.6 6.6" fill="#000000" fill-rule="evenodd" stroke="none"/>
    <path d="M450.8 -28.2 L446.8 -24.1 442.7 -28.2 446.7 -32.3 450.8 -28.2" fill="#000000" fill-rule="evenodd" stroke="none"/>
    <path d="M519.8 -102.0 L515.8 -97.9 511.7 -101.9 515.7 -106.0 519.8 -102.0" fill="#000000" fill-rule="evenodd" stroke="none"/>
    <path d="M446.1 -23.7 L442.1 -19.6 437.9 -23.7 441.9 -27.8 446.1 -23.7" fill="#000000" fill-rule="evenodd" stroke="none"/>
    <path d="M440.1 96.6 L434.2 104.1 428.4 99.6 434.2 92.0 440.1 96.6" fill="#000000" fill-rule="evenodd" stroke="none"/>
    <path d="M423.4 117.9 L418.7 124.0 413.9 120.3 418.6 114.2 423.4 117.9" fill="#000000" fill-rule="evenodd" stroke="none"/>
    <path d="M411.3 114.5 L407.9 118.2 403.4 114.2 406.7 110.4 411.3 114.5" fill="#000000" fill-rule="evenodd" stroke="none"/>
    <path d="M403.4 111.7 L400.9 114.5 396.4 110.4 398.8 107.6 403.4 111.7" fill="#000000" fill-rule="evenodd" stroke="none"/>
    <path d="M471.9 53.2 L466.0 59.7 460.8 55.0 466.7 48.5 471.9 53.2" fill="#000000" fill-rule="evenodd" stroke="none"/>
    <path d="M473.0 67.5 L465.9 75.3 459.8 69.9 466.9 62.1 473.0 67.5" fill="#000000" fill-rule="evenodd" stroke="none"/>
    <path d="M480.8 59.5 L473.9 67.2 468.2 62.0 475.1 54.4 480.8 59.5" fill="#000000" fill-rule="evenodd" stroke="none"/>
    <path d="M490.2 28.3 L470.9 49.5 466.0 45.0 485.3 23.8 490.2 28.3" fill="#000000" fill-rule="evenodd" stroke="none"/>
    <path d="M471.0 41.9 L487.0 56.4 483.3 60.4 467.3 45.9 471.0 41.9" fill="#000000" fill-rule="evenodd" stroke="none"/>
    <path d="M573.3 -62.1 L583.1 -53.2 579.4 -49.1 569.6 -58.1 573.3 -62.1" fill="#000000" fill-rule="evenodd" stroke="none"/>
    <path d="M485.5 24.0 L502.9 39.8 499.5 43.5 482.1 27.7 485.5 24.0" fill="#000000" fill-rule="evenodd" stroke="none"/>
    <path d="M518.5 2.0 L527.9 10.5 524.5 14.2 515.1 5.7 518.5 2.0" fill="#000000" fill-rule="evenodd" stroke="none"/>
    <path d="M528.6 10.9 L500.0 43.7 496.2 40.4 524.9 7.6 528.6 10.9" fill="#000000" fill-rule="evenodd" stroke="none"/>
    <path d="M576.8 -59.3 L519.0 9.3 514.6 5.7 572.4 -62.9 576.8 -59.3" fill="#000000" fill-rule="evenodd" stroke="none"/>
    <path d="M575.1 -53.5 L588.3 -69.2 592.7 -65.5 579.5 -49.8 575.1 -53.5" fill="#000000" fill-rule="evenodd" stroke="none"/>
    <path d="M440.7 114.5 L435.9 119.8 434.0 118.2 439.1 112.8 440.7 114.5" fill="#000000" fill-rule="evenodd" stroke="none"/>
    <path d="M566.6 -53.6 L555.1 -39.4 551.1 -43.6 561.8 -56.8 566.6 -53.6" fill="#000000" fill-rule="evenodd" stroke="none"/>
    <path d="M375.6 54.1 L370.2 56.5 367.1 49.7 372.5 47.3 375.6 54.1" fill="#000000" fill-rule="evenodd" stroke="none"/>
    <path d="M360.4 63.1 L354.6 58.2 360.8 51.0 366.6 55.9 360.4 63.1" fill="#000000" fill-rule="evenodd" stroke="none"/>
    <path d="M355.2 71.8 L349.5 66.9 355.6 59.6 361.4 64.6 355.2 71.8" fill="#000000" fill-rule="evenodd" stroke="none"/>
    <path d="M398.4 17.5 L392.6 12.5 398.8 5.3 404.6 10.3 398.4 17.5" fill="#000000" fill-rule="evenodd" stroke="none"/>
    <path d="M433.6 -12.7 L428.4 -18.2 435.3 -24.8 440.5 -19.3 433.6 -12.7" fill="#000000" fill-rule="evenodd" stroke="none"/>
    <path d="M468.7 -66.8 L462.7 -71.4 468.4 -79.0 474.5 -74.4 468.7 -66.8" fill="#000000" fill-rule="evenodd" stroke="none"/>
    <path d="M523.2 -104.8 L517.2 -109.4 522.9 -117.0 529.0 -112.4 523.2 -104.8" fill="#000000" fill-rule="evenodd" stroke="none"/>
    <path d="M501.0 -94.8 L494.9 -99.4 500.7 -107.0 506.7 -102.4 501.0 -94.8" fill="#000000" fill-rule="evenodd" stroke="none"/>
    <path d="M507.4 -118.2 L513.5 -113.6 507.7 -106.1 501.7 -110.7 507.4 -118.2" fill="#000000" fill-rule="evenodd" stroke="none"/>
    <path d="M591.6 -231.3 L578.4 -215.9 572.6 -220.8 585.8 -236.3 591.6 -231.3" fill="#000000" fill-rule="evenodd" stroke="none"/>
    <path d="M558.1 -206.0 L556.5 -207.3 559.6 -210.9 561.1 -209.6 558.1 -206.0" fill="#000000" fill-rule="evenodd" stroke="none"/>
    <path d="M520.0 -120.8 L514.0 -116.1 508.1 -123.5 514.1 -128.2 520.0 -120.8" fill="#000000" fill-rule="evenodd" stroke="none"/>
    <path d="M420.6 -67.7 L416.1 -71.1 420.3 -76.6 424.7 -73.2 420.6 -67.7" fill="#000000" fill-rule="evenodd" stroke="none"/>
    <path d="M-795.3 -538.2 L-805.3 -538.2 -805.3 -544.1 -795.3 -544.1 -795.3 -538.2" fill="#000000" fill-rule="evenodd" stroke="none"/>
    <path d="M-806.4 -537.6 L-816.4 -537.6 -816.4 -543.4 -806.4 -543.4 -806.4 -537.6" fill="#000000" fill-rule="evenodd" stroke="none"/>
    <path d="M-846.9 -546.2 L-856.9 -546.2 -856.9 -552.1 -846.9 -552.1 -846.9 -546.2" fill="#000000" fill-rule="evenodd" stroke="none"/>
    <path d="M-731.2 -537.2 L-740.5 -541.0 -738.3 -546.4 -729.0 -542.7 -731.2 -537.2" fill="#000000" fill-rule="evenodd" stroke="none"/>
    <path d="M-149.9 104.1 L-158.2 99.0 -155.2 94.1 -146.9 99.2 -149.9 104.1" fill="#000000" fill-rule="evenodd" stroke="none"/>
    <path d="M-214.6 73.1 L-222.5 67.6 -217.8 60.7 -209.9 66.2 -214.6 73.1" fill="#000000" fill-rule="evenodd" stroke="none"/>
    <path d="M-265.1 14.3 L-280.4 10.5 -278.4 2.5 -263.1 6.4 -265.1 14.3" fill="#000000" fill-rule="evenodd" stroke="none"/>
    <path d="M-344.6 39.9 L-353.1 38.4 -351.7 30.4 -343.3 31.9 -344.6 39.9" fill="#000000" fill-rule="evenodd" stroke="none"/>
    <path d="M-329.8 3.8 L-339.6 4.9 -340.5 -3.2 -330.7 -4.3 -329.8 3.8" fill="#000000" fill-rule="evenodd" stroke="none"/>
    <path d="M-349.3 -7.4 L-353.6 6.4 -361.4 3.9 -357.0 -9.8 -349.3 -7.4" fill="#000000" fill-rule="evenodd" stroke="none"/>
    <path d="M-485.4 2.4 L-492.4 3.0 -493.5 -11.4 -486.5 -12.0 -485.4 2.4" fill="#000000" fill-rule="evenodd" stroke="none"/>
    <path d="M-421.3 33.0 L-438.9 33.0 -438.9 26.8 -421.3 26.8 -421.3 33.0" fill="#000000" fill-rule="evenodd" stroke="none"/>
    <path d="M-559.9 49.2 L-574.2 50.9 -575.1 43.0 -560.8 41.3 -559.9 49.2" fill="#000000" fill-rule="evenodd" stroke="none"/>
    <path d="M-551.0 14.4 L-561.2 17.2 -562.6 11.8 -552.4 9.0 -551.0 14.4" fill="#000000" fill-rule="evenodd" stroke="none"/>
    <path d="M-546.5 9.7 L-551.2 10.9 -551.8 8.9 -547.1 7.7 -546.5 9.7" fill="#000000" fill-rule="evenodd" stroke="none"/>
    <path d="M-1011.9 -621.1 L-1019.4 -620.6 -983.4 -231.4 -985.7 -231.3 -979.5 -159.2 -977.3 -159.3 -977.2 -157.4 -981.3 -157.0 -987.9 -233.1 -984.2 -233.4 -1019.9 -621.1 -1011.4 -621.6 -1000.2 -498.6 -986.3 -359.9 -975.9 -234.2 -971.6 -234.5 -965.1 -158.4 -968.0 -158.1 -968.2 -160.1 -967.2 -160.2 -973.4 -232.3 -976.3 -232.1 -986.8 -359.9 -1000.7 -498.6 -1011.9 -621.1" fill="#000000" fill-rule="evenodd" stroke="none"/>
    <path d="M-997.4 -380.9 L-997.0 -377.3 -1006.0 -376.9 -1006.1 -380.5 -997.4 -380.9" fill="#000000" fill-rule="evenodd" stroke="none"/>
    <path d="M-1002.2 -338.9 L-993.5 -339.1 -993.2 -335.8 -1002.0 -335.1 -1002.2 -338.9" fill="#000000" fill-rule="evenodd" stroke="none"/>
    <path d="M-989.4 -292.6 L-998.1 -292.1 -998.3 -295.8 -989.6 -296.2 -989.4 -292.6" fill="#000000" fill-rule="evenodd" stroke="none"/>
    <path d="M-1010.7 -427.0 L-1001.7 -427.5 -1001.4 -424.2 -1010.4 -423.3 -1010.7 -427.0" fill="#000000" fill-rule="evenodd" stroke="none"/>
    <path d="M-1006.4 -476.0 L-1015.4 -475.2 -1015.7 -478.8 -1006.7 -479.5 -1006.4 -476.0" fill="#000000" fill-rule="evenodd" stroke="none"/>
    <path d="M618.6 -249.9 L685.7 -193.2 701.3 -211.9 702.9 -210.6 685.9 -190.4 618.8 -247.1 616.8 -244.7 615.2 -245.9 618.6 -249.9" fill="#000000" fill-rule="evenodd" stroke="none"/>
    <path d="M629.7 -281.4 L706.0 -216.3 704.7 -214.7 629.9 -278.5 598.5 -241.8 590.3 -247.9 585.7 -242.3 602.0 -230.2 611.8 -241.8 613.3 -240.5 602.4 -227.5 582.8 -241.9 590.0 -250.7 598.2 -244.5 629.7 -281.4" fill="#000000" fill-rule="evenodd" stroke="none"/>
    <path d="M-968.9 -191.1 L-969.9 -203.7 -964.4 -203.9 -963.3 -191.8 -968.9 -191.1 M-967.8 -201.7 L-967.1 -193.4 -965.4 -193.6 -966.2 -201.8 -967.8 -201.7" fill="#000000" fill-rule="evenodd" stroke="none"/>
    <path d="M-46.6 -75.7 L-64.6 -75.7 -64.6 -27.9 -157.4 -27.9 -157.4 -29.9 -66.6 -29.9 -66.6 -77.7 -48.6 -77.7 -48.6 -84.1 -76.6 -84.1 -76.6 -69.0 -78.6 -69.0 -78.6 -86.1 -46.6 -86.1 -46.6 -75.7" fill="#000000" fill-rule="evenodd" stroke="none"/>
    <path d="M-156.4 -34.0 L-158.4 -34.0 -158.4 -60.4 -78.6 -60.4 -78.6 -63.7 -76.6 -63.7 -76.6 -58.4 -156.4 -58.4 -156.4 -34.0" fill="#000000" fill-rule="evenodd" stroke="none"/>
    <path d="M-1010.7 -523.3 L-1019.8 -522.6 -1020.1 -526.1 -1011.0 -526.8 -1010.7 -523.3" fill="#000000" fill-rule="evenodd" stroke="none"/>
    <path d="M-1015.3 -572.8 L-1024.4 -572.1 -1024.7 -575.6 -1015.6 -576.3 -1015.3 -572.8" fill="#000000" fill-rule="evenodd" stroke="none"/>
    <path d="M576.8 -170.4 L571.7 -164.4 570.2 -165.7 574.0 -170.1 559.0 -182.5 532.5 -150.9 547.1 -138.3 560.5 -154.4 562.0 -153.1 547.4 -135.5 529.7 -150.6 558.8 -185.3 576.8 -170.4" fill="#000000" fill-rule="evenodd" stroke="none"/>
    <path d="M1003.2 -281.4 L999.9 -280.6 999.0 -284.1 1002.3 -284.9 1003.2 -281.4" fill="#000000" fill-rule="evenodd" stroke="none"/>
    <path d="M1029.9 -281.8 L1026.4 -282.0 1026.6 -285.7 1030.1 -285.5 1029.9 -281.8" fill="#000000" fill-rule="evenodd" stroke="none"/>
    <path d="M1054.4 -278.5 L1051.0 -279.5 1052.1 -283.0 1055.4 -282.0 1054.4 -278.5" fill="#000000" fill-rule="evenodd" stroke="none"/>
    <path d="M1078.9 -270.6 L1075.7 -272.0 1077.1 -275.4 1080.3 -274.0 1078.9 -270.6" fill="#000000" fill-rule="evenodd" stroke="none"/>
    <path d="M1104.7 -255.4 L1101.8 -257.2 1103.7 -260.4 1106.7 -258.5 1104.7 -255.4" fill="#000000" fill-rule="evenodd" stroke="none"/>
    <path d="M-941.6 -88.6 L-947.0 -86.7 -947.6 -88.4 -942.2 -90.3 -941.6 -88.6" fill="#000000" fill-rule="evenodd" stroke="none"/>
    <path d="M-929.4 -63.9 L-934.0 -60.6 -935.1 -62.1 Q-932.8 -63.7 -930.5 -65.4 L-929.4 -63.9" fill="#000000" fill-rule="evenodd" stroke="none"/>
    <path d="M-902.2 -27.1 L-905.5 -22.5 -907.0 -23.6 -903.7 -28.2 -902.2 -27.1" fill="#000000" fill-rule="evenodd" stroke="none"/>
    <path d="M-850.6 4.9 L-852.9 10.1 -854.5 9.4 -852.3 4.2 -850.6 4.9" fill="#000000" fill-rule="evenodd" stroke="none"/>
    <path d="M-804.3 25.1 L-806.1 30.5 -807.8 29.9 -806.1 24.5 -804.3 25.1" fill="#000000" fill-rule="evenodd" stroke="none"/>
    <path d="M-770.5 34.8 L-771.2 40.4 -773.0 40.2 -772.3 34.6 -770.5 34.8" fill="#000000" fill-rule="evenodd" stroke="none"/>
    <path d="M-726.6 42.3 L-726.4 48.0 -728.3 48.0 -728.4 42.4 -726.6 42.3" fill="#000000" fill-rule="evenodd" stroke="none"/>
    <path d="M-689.7 42.6 L-689.6 48.3 -691.4 48.4 -691.6 42.7 -689.7 42.6" fill="#000000" fill-rule="evenodd" stroke="none"/>
    <path d="M-638.6 30.7 L-637.2 36.2 -638.9 36.6 -640.3 31.2 -638.6 30.7" fill="#000000" fill-rule="evenodd" stroke="none"/>
    <path d="M-511.9 -0.7 L-511.3 4.9 -513.1 5.1 -513.7 -0.5 -511.9 -0.7" fill="#000000" fill-rule="evenodd" stroke="none"/>
    <path d="M-474.4 -4.9 L-473.8 0.8 -475.6 1.0 -476.2 -4.7 -474.4 -4.9" fill="#000000" fill-rule="evenodd" stroke="none"/>
    <path d="M-436.9 -7.2 L-436.6 -1.5 -438.4 -1.4 -438.8 -7.1 -436.9 -7.2" fill="#000000" fill-rule="evenodd" stroke="none"/>
    <path d="M-324.0 1.0 L-324.5 6.7 -326.4 6.5 -325.8 0.8 -324.0 1.0" fill="#000000" fill-rule="evenodd" stroke="none"/>
    <path d="M-287.0 8.9 L-287.7 14.5 -289.5 14.3 -288.8 8.7 -287.0 8.9" fill="#000000" fill-rule="evenodd" stroke="none"/>
    <path d="M-250.2 18.5 L-251.5 24.1 -253.3 23.6 -252.0 18.1 -250.2 18.5" fill="#000000" fill-rule="evenodd" stroke="none"/>
    <path d="M-210.3 32.4 L-212.1 37.7 -213.9 37.2 -212.1 31.8 -210.3 32.4" fill="#000000" fill-rule="evenodd" stroke="none"/>
    <path d="M-179.5 43.9 L-181.3 49.2 -183.0 48.7 -181.2 43.3 -179.5 43.9" fill="#000000" fill-rule="evenodd" stroke="none"/>
    <path d="M-145.4 61.0 L-147.7 66.2 -149.4 65.5 -147.1 60.3 -145.4 61.0" fill="#000000" fill-rule="evenodd" stroke="none"/>
    <path d="M-112.7 78.9 L-115.2 84.0 -116.8 83.2 -114.3 78.1 -112.7 78.9" fill="#000000" fill-rule="evenodd" stroke="none"/>
    <path d="M-80.8 99.0 L-83.8 103.8 -85.3 102.9 -82.4 98.0 -80.8 99.0" fill="#000000" fill-rule="evenodd" stroke="none"/>
    <path d="M-65.8 108.7 L-68.8 113.6 -70.3 112.6 -67.4 107.8 -65.8 108.7" fill="#000000" fill-rule="evenodd" stroke="none"/>
    <path d="M-54.3 167.2 L-56.5 166.0 -26.3 124.7 -24.8 125.9 -54.3 167.2" fill="#000000" fill-rule="evenodd" stroke="none"/>
    <path d="M-0.3 171.9 L-13.9 161.3 -10.8 154.7 4.6 167.4 -0.3 171.9" fill="#000000" fill-rule="evenodd" stroke="none"/>
    <path d="M-31.9 185.4 L-43.1 178.3 -38.9 173.1 -26.1 180.4 -31.9 185.4" fill="#000000" fill-rule="evenodd" stroke="none"/>
    <path d="M-23.6 166.4 Q-27.9 163.4 -32.3 160.4 L-26.9 155.6 -23.8 151.3 -18.3 158.9 -23.6 166.4" fill="#000000" fill-rule="evenodd" stroke="none"/>
    <path d="M-15.6 178.9 L-7.6 184.3 -14.9 192.3 -21.6 187.4 -15.6 178.9" fill="#000000" fill-rule="evenodd" stroke="none"/>
    <path d="M464.6 86.5 L462.7 86.0 459.6 86.1 457.0 87.2 454.7 89.1 453.0 91.7 452.3 94.4 452.6 97.5 453.6 99.7 448.2 105.8 448.7 99.7 448.0 95.6 448.1 90.1 450.9 85.7 454.8 82.4 460.3 81.7 464.4 81.8 469.8 80.2 464.6 86.5" fill="#000000" fill-rule="evenodd" stroke="none"/>
    <path d="M358.1 103.2 L359.2 105.7 361.2 108.0 363.8 109.5 366.6 110.1 369.7 109.8 372.3 109.1 377.6 115.0 372.0 113.6 368.0 114.4 362.4 114.5 358.0 111.8 354.5 108.0 353.6 102.6 353.6 98.5 351.5 93.3 358.0 97.5 358.1 103.2" fill="#000000" fill-rule="evenodd" stroke="none"/>
    <path d="M-34.3 -144.6 L-37.4 -141.9 -41.6 -136.9 -41.6 -144.5 Q-40.3 -145.3 -39.1 -146.2 L-36.8 -148.3 -35.6 -150.8 -35.2 -153.8 -35.7 -156.8 -37.1 -159.3 -39.4 -161.5 -41.6 -162.9 -41.6 -170.8 -38.0 -165.7 -34.8 -163.1 -31.0 -159.0 -30.2 -153.9 -30.8 -148.8 -34.3 -144.6" fill="#000000" fill-rule="evenodd" stroke="none"/>
    <path d="M-11.3 97.4 L-18.7 95.4 -19.5 92.6 -21.0 89.8 -23.2 88.0 -26.0 86.8 -29.0 86.6 -31.7 87.2 -34.4 88.9 -36.4 90.6 -44.0 88.5 -38.1 86.4 -34.8 83.9 -29.8 81.5 -24.7 82.0 -19.9 83.9 -16.8 88.4 -15.0 92.1 -11.3 97.4" fill="#000000" fill-rule="evenodd" stroke="none"/>
    <path d="M-847.1 -890.4 L-846.2 -885.4 -846.7 -880.3 -850.2 -876.0 -853.2 -873.3 -856.9 -868.2 -857.3 -875.8 -854.9 -877.5 -852.7 -879.7 -851.5 -882.2 -851.2 -885.2 -851.8 -888.2 -853.1 -890.7 -855.5 -892.8 -857.7 -894.3 -857.9 -902.1 -854.2 -897.0 -850.9 -894.5 -847.1 -890.4" fill="#000000" fill-rule="evenodd" stroke="none"/>
    <path d="M-1148.7 -867.0 L-1152.0 -874.1 -1146.6 -871.0 -1142.6 -870.0 -1137.5 -867.8 -1134.5 -863.6 -1133.0 -858.7 -1134.4 -853.4 -1136.0 -849.7 -1137.4 -843.6 -1140.8 -850.4 -1139.3 -852.8 -1138.2 -855.7 -1138.2 -858.5 -1139.1 -861.4 -1140.8 -863.9 -1143.1 -865.6 -1148.7 -867.0" fill="#000000" fill-rule="evenodd" stroke="none"/>
    <path d="M1280.5 -185.0 L1251.4 -160.4 1256.8 -132.7 1241.9 -131.1 1238.9 -97.5 1190.0 -137.6 1145.9 -77.2 1139.0 -120.0 1142.0 -137.2 1127.8 -219.5 1127.5 -220.4 1118.7 -225.8 1108.6 -225.8 Q1092.2 -235.0 1075.8 -244.3 L1060.0 -251.2 1038.9 -254.8 1017.4 -255.0 992.1 -247.7 978.0 -246.7 950.9 -255.0 923.5 -245.0 883.2 -226.4 870.8 -217.1 859.0 -205.5 848.3 -190.5 809.1 -154.0 786.9 -120.8 818.2 -94.0 825.0 -89.5 839.5 -74.5 848.0 -69.6 890.8 -34.1 842.2 58.5 790.0 28.9 770.7 15.7 652.0 -85.4 626.2 -54.7 616.6 -62.8 610.4 -55.5 611.4 -54.5 592.2 -33.4 606.3 -21.4 592.1 -4.7 592.3 -4.5 571.1 20.5 578.3 26.6 544.0 67.0 522.1 48.8 501.9 72.6 548.0 109.9 540.1 119.5 558.6 140.2 572.2 158.4 582.6 174.7 593.8 171.4 620.1 227.0 606.7 235.3 611.9 248.5 574.4 233.8 563.3 273.9 556.0 260.6 541.4 267.4 514.0 208.4 522.7 203.3 510.3 184.7 498.7 170.7 498.4 170.4 493.1 177.0 445.1 140.8 425.6 164.1 393.6 137.3 367.4 168.0 299.5 112.6 327.1 80.7 315.1 69.9 334.9 46.2 293.6 7.0 300.6 -0.2 283.5 -13.6 273.0 -18.2 267.3 -21.9 263.6 -11.5 201.2 -36.8 204.5 -46.0 147.6 -67.3 93.8 -53.8 61.9 -41.5 50.8 -35.5 47.7 -32.1 41.9 -23.7 36.9 -13.0 18.5 56.6 27.8 59.2 9.4 124.3 -0.1 121.6 -1.7 124.7 13.1 143.5 8.3 160.2 16.1 163.9 6.3 181.2 1.6 178.4 -0.7 182.7 6.6 187.4 -13.4 211.4 -28.7 197.4 -40.6 206.2 -69.1 181.7 -118.8 145.6 -139.3 133.4 -139.6 133.5 -177.2 113.9 -177.1 112.7 -238.3 86.1 -271.4 75.1 -293.0 69.8 -293.9 71.2 -329.3 63.4 -329.4 63.4 -367.3 57.3 -368.4 55.9 -408.4 53.4 -461.9 54.8 -462.2 56.2 -510.5 60.2 -568.5 72.5 -652.4 97.6 -691.2 103.4 -723.1 103.1 -768.2 98.1 -841.3 79.3 -835.5 63.5 -865.2 51.6 -906.2 29.3 -921.2 18.7 -933.8 31.9 -956.7 4.8 -977.5 -25.1 -993.4 -53.8 -1002.0 -73.5 -1044.2 -66.7 -1065.1 -354.6 -1078.8 -516.3 -1073.8 -516.8 -1084.5 -636.5 -1082.2 -636.7 -1088.5 -678.3 -1076.1 -679.0 -1076.0 -685.0 -1078.8 -706.2 -1080.3 -733.6 -1085.0 -754.0 -1084.4 -773.4 -1078.5 -801.5 -1073.0 -813.3 -1067.2 -822.3 -1051.8 -841.4 -1049.2 -844.1 -1088.3 -839.8 -1124.7 -832.0 -1152.6 -816.2 -1178.6 -880.1 Q-1157.6 -890.6 -1136.6 -901.2 L-1094.9 -917.7 -1033.3 -922.2 -982.2 -914.3 -982.2 -962.6 -974.2 -962.6 -974.2 -985.3 -938.7 -949.4 -903.4 -985.3 -903.4 -962.6 -894.7 -962.6 -894.7 -917.3 -877.8 -917.5 -878.2 -928.3 -811.2 -930.3 -808.7 -842.6 -875.6 -840.6 -875.9 -850.7 -936.1 -849.2 -962.0 -831.5 -990.9 -808.3 -1012.7 -786.9 -1014.0 -784.9 -1016.2 -778.8 -1018.1 -770.8 -1018.9 -755.9 -1010.6 -686.4 -1010.3 -685.0 -999.3 -685.6 -995.6 -645.5 -969.7 -648.1 -969.6 -646.7 -961.9 -647.3 -956.0 -580.6 -952.9 -580.6 -929.5 -582.9 -927.3 -565.5 -808.4 -577.3 -783.6 -577.1 -760.9 -574.3 -735.8 -567.8 -707.9 -555.4 -685.1 -542.3 -663.1 -526.0 -648.4 -512.3 -632.1 -494.5 -621.5 -480.9 -611.4 -464.7 -589.2 -421.4 -574.0 -381.1 -556.0 -362.7 -530.3 -355.4 -425.8 -340.1 -324.4 -341.9 -312.8 -251.1 -423.0 -249.1 -552.7 -265.5 -571.1 -270.7 -618.0 -290.9 -633.7 -259.7 -638.2 -244.9 -630.8 -244.9 -630.8 -205.0 13.9 -205.0 13.9 -220.6 87.1 -220.6 87.1 -158.2 142.1 -140.0 159.0 -184.8 227.4 -159.1 212.5 -119.3 213.6 -118.9 211.7 -113.8 227.1 -108.3 231.0 -119.1 Q263.6 -106.3 296.1 -93.6 L294.0 -82.5 324.5 -64.7 346.8 -47.7 354.7 -55.9 391.4 -21.4 407.1 -41.6 358.1 -83.6 405.0 -141.8 456.8 -99.1 495.7 -144.9 494.5 -145.9 503.5 -159.3 496.1 -166.8 620.1 -317.6 730.3 -221.9 771.8 -253.5 796.2 -285.0 797.8 -295.4 807.7 -315.2 835.2 -332.5 863.6 -332.9 877.3 -334.3 881.1 -335.4 904.5 -346.1 930.5 -355.5 940.6 -362.5 955.3 -368.9 965.8 -376.2 978.9 -379.3 981.7 -380.5 981.8 -379.9 1006.8 -385.9 1021.1 -387.2 1093.8 -380.4 1114.7 -362.0 Q1123.3 -359.2 1131.8 -356.5 L1165.1 -335.8 1187.7 -316.9 1210.0 -288.7 1226.0 -259.6 1237.9 -231.3 1241.2 -213.7 1245.0 -213.4 1280.5 -185.0" fill="#434343" fill-rule="evenodd" stroke="none"/>
    <path d="M-6.6 -28.2 L-9.9 -29.5 -20.9 10.1 -17.9 11.3 -9.7 -11.8 -6.7 -28.1 -6.6 -28.2 M-41.6 -130.1 L-41.6 -144.6 -57.9 -144.6 -57.9 -103.6 -34.4 -103.6 -34.4 -76.6 -57.9 -76.6 -57.9 -28.2 -235.6 -28.2 -235.6 -71.2 -242.3 -71.2 -242.3 -28.6 -451.3 -28.6 -451.3 -88.2 -456.9 -88.2 -456.9 -28.6 -565.9 -28.6 -565.9 -25.1 -558.7 -25.1 -558.7 0.4 -568.2 0.4 -572.9 2.2 -572.9 13.8 -538.3 4.9 -540.4 -6.2 -513.9 -10.7 -481.3 -14.7 -419.6 -17.4 -419.8 -4.9 -360.3 -2.2 -358.7 -14.3 -309.2 -6.8 -250.7 7.7 -254.5 20.0 -244.4 23.4 -240.9 23.3 -229.3 27.6 -226.8 28.3 -225.6 29.6 -204.9 37.3 -201.4 37.9 -170.1 49.9 -165.9 40.8 -163.6 40.3 -161.8 41.3 -140.2 51.4 -87.9 81.2 -49.4 107.4 -46.9 108.4 -44.4 105.2 -40.2 104.4 -36.1 90.6 -50.4 86.6 -42.9 60.3 -35.0 62.5 -25.4 40.2 -20.4 21.6 -23.7 20.1 -26.2 29.2 -64.7 18.2 -42.9 -58.8 -4.7 -48.6 -8.1 -36.3 -4.2 -34.8 6.7 -54.9 15.7 -65.6 28.7 -75.9 39.4 -81.9 Q55.4 -88.7 71.4 -95.6 L86.7 -100.9 92.7 -102.2 94.1 -104.9 94.1 -106.6 93.4 -107.9 91.4 -109.2 37.1 -126.2 -13.9 -139.7 -13.9 -130.1 -41.6 -130.1 M-686.4 -424.8 L-702.4 -447.1 -721.9 -464.1 -747.4 -479.6 -762.9 -486.1 -774.9 -489.6 -798.9 -492.1 -801.4 -493.0 -801.4 -492.6 -912.4 -481.6 -939.0 -482.1 -938.9 -481.6 -939.9 -479.1 -966.9 -477.6 -954.9 -318.1 -933.1 -99.8 -935.2 -99.6 -915.9 -58.6 -899.4 -39.1 -888.9 -30.1 -863.9 -13.6 -847.9 -5.1 -805.4 13.9 -781.9 21.4 -736.4 30.9 -718.9 32.4 -697.3 32.4 -681.9 31.4 -669.3 28.8 -644.3 22.1 -628.9 16.4 -624.1 27.0 -590.7 18.4 -591.4 2.2 -595.9 0.4 -606.4 0.4 -606.4 -25.1 -597.4 -25.1 -597.4 -28.6 -697.4 -28.6 -697.4 -181.1 -683.8 -181.1 -683.8 -197.1 -698.8 -197.1 -698.8 -224.9 -689.8 -224.9 -689.8 -232.3 -687.9 -252.6 -682.3 -276.6 -652.0 -348.3 -657.4 -361.1 -661.4 -367.1 -667.2 -385.1 -686.4 -424.8 M1249.0 -184.6 L1242.6 -179.2 1236.0 -187.2 1225.9 -186.2 1233.0 -150.2 1220.6 -148.9 1214.8 -139.1 1221.6 -128.9 1220.3 -113.9 1162.3 -101.2 1159.3 -119.9 1162.3 -137.2 1147.2 -224.6 1143.7 -234.6 1139.7 -243.1 1134.5 -239.6 1124.2 -245.8 1113.7 -245.8 1084.9 -262.1 1065.7 -270.5 1040.6 -274.7 1014.7 -275.0 988.6 -267.5 980.2 -266.9 973.7 -268.9 974.2 -270.4 972.7 -276.1 Q971.8 -275.7 970.9 -275.4 L969.4 -277.6 969.7 -282.2 947.1 -274.9 916.1 -263.6 872.7 -243.6 857.7 -232.2 843.7 -218.6 833.1 -203.6 810.1 -180.6 806.7 -178.9 807.1 -177.6 794.6 -168.1 765.1 -124.1 757.6 -119.6 806.1 -78.1 812.1 -74.1 827.1 -58.6 836.6 -53.1 865.6 -29.1 834.1 30.9 800.6 11.9 783.1 -0.1 655.6 -108.6 648.7 -112.7 623.7 -82.9 607.1 -96.9 597.4 -85.6 580.7 -99.6 574.1 -95.2 571.1 -97.2 565.0 -89.9 590.6 -66.6 580.1 -52.8 573.1 -58.3 552.0 -33.1 554.3 -30.9 558.5 -35.9 578.1 -19.1 565.4 -4.2 545.8 -20.9 549.6 -25.4 547.4 -27.5 538.2 -16.2 540.4 -14.2 544.5 -19.0 564.1 -2.3 551.4 12.7 531.8 -4.1 535.7 -8.7 533.7 -10.6 521.3 4.7 550.1 28.9 541.6 38.9 519.7 20.8 499.6 44.4 483.0 30.8 471.9 41.0 489.8 55.9 465.1 85.6 489.3 107.2 498.7 95.8 519.7 112.8 515.3 118.2 515.1 122.8 528.4 136.1 543.1 152.8 555.7 169.8 574.1 198.1 583.1 195.4 594.4 219.4 582.1 227.1 586.7 239.1 571.4 247.1 565.4 236.1 562.4 235.4 551.1 240.8 539.7 216.4 547.1 212.1 543.4 198.4 526.4 172.8 513.4 157.1 502.4 146.4 495.0 142.9 489.7 149.4 468.1 133.1 477.4 121.7 453.1 100.0 423.1 135.9 387.6 106.2 390.6 101.4 383.7 95.8 372.4 109.4 382.1 119.9 364.8 140.2 328.1 110.2 345.8 89.7 358.1 97.5 368.9 83.8 363.8 79.7 360.3 83.7 342.8 67.9 372.6 32.3 362.8 25.4 353.8 15.9 353.2 15.4 341.6 24.9 322.1 6.4 328.9 -0.6 Q327.6 -1.3 326.3 -2.1 L323.3 -6.8 316.8 -12.8 293.6 -31.1 Q288.1 -33.4 282.6 -35.8 L272.3 -42.6 260.6 -46.3 255.3 -47.3 251.8 -37.8 226.6 -48.1 231.5 -61.8 216.8 -67.4 215.4 -63.2 150.4 -87.6 143.4 -86.9 87.7 -72.9 54.1 -59.9 42.7 -54.6 37.1 -50.2 24.4 -33.6 18.1 -20.1 1.1 42.4 -4.9 70.7 -5.0 70.8 3.1 73.1 -4.4 99.6 -18.9 95.5 -22.4 111.1 -17.9 112.4 -25.3 127.0 -15.9 138.9 -17.8 140.2 -15.8 147.7 -10.8 154.7 -14.0 161.9 -27.4 154.9 -33.8 165.4 -36.6 165.5 -37.8 171.3 -43.0 177.7 -83.9 145.2 -99.9 133.9 -138.4 110.6 -139.4 111.1 -155.4 102.8 -155.3 101.6 -197.6 80.9 -231.6 67.3 -256.0 59.2 -294.7 48.4 -301.2 47.3 -301.4 47.4 -302.8 47.2 -303.6 48.6 -320.9 44.8 -320.9 42.9 -337.2 40.3 -338.3 41.8 -355.9 38.9 -357.2 37.2 -363.7 36.2 -407.9 33.4 -461.4 34.7 -478.4 36.2 -478.6 37.2 -513.6 40.4 -546.3 46.6 -573.4 53.1 -656.9 78.1 -692.3 83.4 -722.3 83.1 -743.6 81.4 -764.3 78.4 -814.9 65.4 -810.3 52.8 -831.4 43.4 -856.9 33.4 -895.4 12.4 -923.4 -8.1 -932.9 1.9 -940.9 -7.6 -960.4 -35.6 -975.4 -62.6 -988.9 -93.6 -989.0 -94.8 -1015.8 -92.4 -1033.5 -290.6 -1039.5 -290.1 -1041.8 -312.4 -1035.5 -312.9 -1041.2 -376.6 -1047.2 -376.1 -1049.4 -398.4 -1043.1 -398.9 -1049.4 -468.9 -1054.4 -468.4 -1057.1 -498.2 -1052.1 -498.6 -1062.8 -618.4 -1044.9 -620.0 -1044.9 -620.1 -1046.4 -629.6 -1046.4 -632.6 -1048.4 -633.1 -1061.4 -633.1 -1065.4 -659.6 -1056.4 -660.1 -1055.9 -686.1 -1058.9 -708.1 -1060.4 -736.1 -1064.9 -756.1 -1064.4 -771.1 -1059.4 -795.1 -1055.4 -803.6 -1050.9 -810.6 -1036.9 -828.1 -1006.9 -856.1 -1000.4 -860.6 -998.4 -864.1 -999.9 -866.6 -1002.9 -867.1 -1031.9 -866.6 -1091.4 -859.6 -1112.4 -855.1 -1114.0 -859.0 -1136.9 -848.7 -1137.4 -840.6 -1136.1 -837.1 Q-1138.7 -835.3 -1141.4 -833.6 L-1162.3 -873.6 -1154.4 -877.4 -1152.8 -874.7 -1146.6 -870.1 -1122.1 -879.1 -1123.9 -883.6 -1111.4 -886.1 -1074.9 -888.6 -1074.9 -896.1 -1041.9 -893.6 -1042.4 -891.1 -948.7 -896.1 -947.9 -902.1 -947.4 -902.1 -947.4 -915.1 -962.2 -915.1 -962.2 -942.6 -954.2 -942.6 -954.2 -965.3 -923.4 -965.3 -923.4 -942.6 -914.7 -942.6 -914.7 -915.1 -929.9 -915.1 -929.9 -902.1 -914.4 -902.1 -914.2 -897.1 -873.2 -897.6 -873.1 -894.3 -857.2 -894.3 -857.6 -908.9 -830.6 -909.7 -829.2 -862.0 -856.2 -861.2 -856.8 -875.8 -872.4 -875.8 -872.2 -870.8 -942.4 -869.1 -973.9 -847.6 -1004.4 -823.1 -1017.4 -809.6 -1027.9 -800.1 -1031.9 -794.1 -1035.4 -784.6 -1037.9 -774.1 -1038.9 -754.6 -1036.4 -735.6 -1034.9 -716.1 -1031.4 -695.1 -1030.4 -683.1 -1026.4 -664.1 -1017.4 -664.6 -1014.9 -637.1 -1028.9 -634.6 -1028.4 -624.1 -1028.0 -621.5 -980.1 -625.8 -974.3 -560.6 -951.9 -560.6 -946.9 -561.1 -943.4 -533.1 -915.4 -533.1 -914.9 -533.0 -914.9 -546.6 -807.4 -557.3 -784.9 -557.1 -764.7 -554.6 -742.4 -548.8 -716.9 -537.6 -696.1 -525.6 -675.9 -510.6 -662.6 -498.2 -647.4 -481.6 -637.9 -469.4 -628.9 -455.1 -619.4 -435.1 -607.4 -413.1 -599.4 -391.8 -611.4 -386.6 -611.5 -385.8 -590.4 -356.6 -562.9 -343.9 -534.9 -335.9 -504.4 -330.1 -426.9 -320.1 -341.9 -321.6 -335.4 -270.6 -422.4 -269.1 -443.4 -270.6 -489.4 -276.1 -548.4 -285.1 -564.4 -289.6 -622.4 -315.1 -625.7 -320.2 -652.4 -267.1 -658.9 -245.2 -659.8 -224.9 -650.8 -224.9 -650.8 -197.1 -665.8 -197.1 -665.8 -181.1 -566.9 -181.1 -566.9 -185.1 -503.4 -185.1 -503.4 -181.1 -456.9 -181.1 -456.9 -123.4 -451.3 -123.4 -451.3 -180.6 -242.3 -180.6 -242.3 -137.7 -235.6 -137.7 -235.6 -180.2 -184.9 -180.2 -184.9 -186.9 -121.9 -186.9 -121.9 -180.2 -57.9 -180.2 -57.9 -163.1 -41.6 -163.1 -41.6 -178.6 -13.9 -178.6 -13.9 -169.4 -10.3 -167.9 8.1 -163.2 32.7 -155.0 32.7 -158.1 49.7 -158.1 49.7 -162.2 54.2 -162.2 54.2 -163.4 33.9 -163.4 33.9 -200.6 67.1 -200.6 67.1 -163.4 62.9 -163.4 62.9 -162.2 66.9 -162.2 66.9 -153.9 65.7 -144.3 154.3 -114.9 154.4 -115.3 157.3 -123.1 161.1 -121.7 161.5 -122.8 157.6 -124.2 170.6 -159.0 201.7 -147.4 188.6 -112.6 Q179.1 -116.1 169.6 -119.7 L169.2 -118.6 Q171.3 -117.8 173.4 -117.1 L171.9 -113.2 187.8 -107.2 185.9 -101.9 223.7 -88.2 222.6 -84.7 237.7 -78.9 242.8 -93.1 Q268.6 -83.1 268.6 -83.6 L266.0 -76.8 268.8 -72.1 286.8 -63.8 313.3 -48.1 347.8 -22.8 349.2 -21.5 355.3 -27.8 375.1 -9.3 366.1 2.8 374.3 11.2 384.8 17.8 409.1 -11.3 430.1 6.2 440.4 -6.3 426.3 -18.3 446.5 -42.8 445.3 -44.0 441.8 -40.0 410.5 -66.3 423.0 -80.3 453.8 -54.1 449.8 -49.3 451.0 -48.2 455.8 -54.1 404.7 -97.3 408.1 -102.3 400.8 -108.6 406.6 -114.6 459.3 -71.1 512.1 -133.3 539.4 -110.3 546.3 -117.8 544.1 -120.8 546.3 -128.1 521.1 -149.6 529.3 -161.8 523.1 -168.1 590.2 -249.3 598.4 -243.1 629.8 -280.0 722.6 -200.8 693.7 -166.2 693.6 -166.1 702.1 -166.1 706.1 -163.6 710.6 -168.6 752.1 -201.1 758.6 -205.1 754.1 -207.1 751.1 -212.6 786.6 -239.6 786.7 -239.1 787.4 -240.9 800.1 -258.2 815.1 -276.6 817.1 -289.2 823.1 -301.2 841.1 -312.6 864.7 -312.9 881.1 -314.6 888.1 -316.6 912.1 -327.6 939.7 -337.6 950.4 -344.9 964.1 -350.9 964.1 -350.7 974.1 -357.6 1010.0 -366.1 1021.0 -367.1 1085.5 -361.1 1104.6 -344.2 1123.3 -338.2 1153.3 -319.6 1173.3 -302.9 1193.3 -277.6 1208.0 -250.9 1218.6 -225.6 1224.3 -194.9 1237.3 -193.9 1249.0 -184.6" fill="#969696" fill-rule="evenodd" stroke="none"/>
    <path d="M-968.9 -202.7 L-965.3 -202.8 -964.4 -192.7 -968.0 -192.3 -968.9 -202.7" fill="#707070" fill-rule="evenodd" stroke="none"/>
    <path d="M-993.0 -332.5 L-992.3 -325.1 -1000.0 -325.0 -1000.2 -332.4 -993.0 -332.5" fill="#707070" fill-rule="evenodd" stroke="none"/>
    <path d="M-991.2 -313.5 L-990.5 -304.8 -997.1 -304.8 -997.2 -313.3 -991.2 -313.5" fill="#707070" fill-rule="evenodd" stroke="none"/>
    <path d="M-1004.0 -618.5 L-1004.7 -623.5 -988.9 -625.0 -988.8 -623.5 -993.7 -623.1 -993.5 -619.3 -1004.0 -618.5" fill="#707070" fill-rule="evenodd" stroke="none"/>
    <path d="M-460.3 -70.8 L-460.3 -103.3 -457.5 -103.3 -457.5 -70.8 -460.3 -70.8" fill="#707070" fill-rule="evenodd" stroke="none"/>
    <path d="M-460.3 -121.8 L-460.3 -138.3 -457.5 -138.3 -457.5 -121.8 -460.3 -121.8" fill="#707070" fill-rule="evenodd" stroke="none"/>
    <path d="M-243.2 -137.7 L-235.6 -137.7 -235.6 -70.3 -243.2 -70.3 -243.2 -137.7" fill="#707070" fill-rule="evenodd" stroke="none"/>
    <path d="M-218.7 -141.3 L-218.7 -154.6 -200.7 -154.6 -200.7 -141.3 -218.7 -141.3" fill="#707070" fill-rule="evenodd" stroke="none"/>
    <path d="M-218.7 -162.1 L-218.7 -175.6 -200.7 -175.6 -200.7 -162.1 -218.7 -162.1" fill="#707070" fill-rule="evenodd" stroke="none"/>
    <path d="M-47.6 -85.1 L-47.6 -76.7 -65.6 -76.7 -65.6 -28.9 -157.4 -28.9 -157.4 -28.7 -179.6 -28.7 -179.6 -50.7 -173.3 -50.7 -173.3 -34.1 -157.4 -34.1 -157.4 -59.4 -77.6 -59.4 -77.6 -63.6 -99.8 -63.6 -99.8 -85.6 -93.5 -85.6 -93.5 -69.0 -77.6 -69.0 -77.6 -85.1 -47.6 -85.1" fill="#707070" fill-rule="evenodd" stroke="none"/>
    <path d="M598.4 -243.1 L629.8 -280.0 722.6 -200.8 708.2 -183.9 703.1 -188.4 713.8 -201.2 702.1 -211.2 685.8 -191.8 618.7 -248.5 616.0 -245.3 633.0 -231.0 618.9 -214.2 614.1 -218.2 624.8 -230.9 612.6 -241.2 602.2 -228.8 584.2 -242.1 590.2 -249.3 598.4 -243.1" fill="#707070" fill-rule="evenodd" stroke="none"/>
    <path d="M-1019.6 -620.8 L-1011.7 -621.3 -987.4 -368.6 -976.0 -232.7 -972.2 -233.0 -965.9 -159.1 -968.1 -159.0 -966.3 -139.5 -975.0 -138.7 -977.3 -158.5 -980.4 -158.3 -986.5 -232.1 -983.8 -232.2 -988.8 -287.5 -994.3 -287.5 -994.3 -291.1 -989.1 -291.1 -989.9 -299.6 -989.7 -296.9 -994.2 -296.9 -994.2 -301.6 -990.1 -301.5 -996.0 -366.2 -1000.4 -366.6 -1000.6 -374.3 -996.8 -374.4 -1019.6 -620.8" fill="#707070" fill-rule="evenodd" stroke="none"/>
    <path d="M-436.4 -129.1 L-436.4 -146.8 -423.7 -146.8 -423.7 -129.1 -436.4 -129.1" fill="#707070" fill-rule="evenodd" stroke="none"/>
    <path d="M-408.2 -130.3 L-408.2 -142.8 -390.2 -142.8 -390.2 -130.3 -408.2 -130.3" fill="#707070" fill-rule="evenodd" stroke="none"/>
    <path d="M-392.9 -169.3 L-392.9 -152.3 -405.7 -152.3 -405.7 -169.3 -392.9 -169.3" fill="#707070" fill-rule="evenodd" stroke="none"/>
    <path d="M-436.9 -156.3 L-436.9 -174.8 -423.7 -174.8 -423.7 -156.3 -436.9 -156.3" fill="#707070" fill-rule="evenodd" stroke="none"/>
    <path d="M461.2 59.7 L457.2 63.8 453.1 59.7 457.1 55.7 461.2 59.7" fill="#707070" fill-rule="evenodd" stroke="none"/>
    <path d="M412.2 13.4 L409.3 18.4 404.3 15.6 407.1 10.6 412.2 13.4" fill="#707070" fill-rule="evenodd" stroke="none"/>
    <path d="M449.6 -39.5 L451.3 -34.0 445.8 -32.2 444.1 -37.7 449.6 -39.5" fill="#707070" fill-rule="evenodd" stroke="none"/>
    <path d="M420.3 2.1 L416.3 6.2 412.2 2.2 416.2 -1.9 420.3 2.1" fill="#707070" fill-rule="evenodd" stroke="none"/>
    <path d="M415.6 6.6 L411.6 10.7 407.4 6.7 411.4 2.6 415.6 6.6" fill="#707070" fill-rule="evenodd" stroke="none"/>
    <path d="M450.8 -28.2 L446.8 -24.1 442.7 -28.2 446.7 -32.3 450.8 -28.2" fill="#707070" fill-rule="evenodd" stroke="none"/>
    <path d="M519.8 -102.0 L515.8 -97.9 511.7 -101.9 515.7 -106.0 519.8 -102.0" fill="#707070" fill-rule="evenodd" stroke="none"/>
    <path d="M446.1 -23.7 L442.1 -19.6 437.9 -23.7 441.9 -27.8 446.1 -23.7" fill="#707070" fill-rule="evenodd" stroke="none"/>
    <path d="M440.1 96.6 L434.2 104.1 428.4 99.6 434.2 92.0 440.1 96.6" fill="#707070" fill-rule="evenodd" stroke="none"/>
    <path d="M423.4 117.9 L418.7 124.0 413.9 120.3 418.6 114.2 423.4 117.9" fill="#707070" fill-rule="evenodd" stroke="none"/>
    <path d="M411.3 114.5 L407.9 118.2 403.4 114.2 406.7 110.4 411.3 114.5" fill="#707070" fill-rule="evenodd" stroke="none"/>
    <path d="M403.4 111.7 L400.9 114.5 396.4 110.4 398.8 107.6 403.4 111.7" fill="#707070" fill-rule="evenodd" stroke="none"/>
    <path d="M471.9 53.2 L466.0 59.7 460.8 55.0 466.7 48.5 471.9 53.2" fill="#707070" fill-rule="evenodd" stroke="none"/>
    <path d="M473.0 67.5 L465.9 75.3 459.8 69.9 466.9 62.1 473.0 67.5" fill="#707070" fill-rule="evenodd" stroke="none"/>
    <path d="M480.8 59.5 L473.9 67.2 468.2 62.0 475.1 54.4 480.8 59.5" fill="#707070" fill-rule="evenodd" stroke="none"/>
    <path d="M490.2 28.3 L470.9 49.5 466.0 45.0 485.3 23.8 490.2 28.3" fill="#707070" fill-rule="evenodd" stroke="none"/>
    <path d="M471.0 41.9 L487.0 56.4 483.3 60.4 467.3 45.9 471.0 41.9" fill="#707070" fill-rule="evenodd" stroke="none"/>
    <path d="M573.3 -62.1 L583.1 -53.2 579.4 -49.1 569.6 -58.1 573.3 -62.1" fill="#707070" fill-rule="evenodd" stroke="none"/>
    <path d="M485.5 24.0 L502.9 39.8 499.5 43.5 482.1 27.7 485.5 24.0" fill="#707070" fill-rule="evenodd" stroke="none"/>
    <path d="M518.5 2.0 L527.9 10.5 524.5 14.2 515.1 5.7 518.5 2.0" fill="#707070" fill-rule="evenodd" stroke="none"/>
    <path d="M528.6 10.9 L500.0 43.7 496.2 40.4 524.9 7.6 528.6 10.9" fill="#707070" fill-rule="evenodd" stroke="none"/>
    <path d="M576.8 -59.3 L519.0 9.3 514.6 5.7 572.4 -62.9 576.8 -59.3" fill="#707070" fill-rule="evenodd" stroke="none"/>
    <path d="M575.1 -53.5 L588.3 -69.2 592.7 -65.5 579.5 -49.8 575.1 -53.5" fill="#707070" fill-rule="evenodd" stroke="none"/>
    <path d="M440.7 114.5 L435.9 119.8 434.0 118.2 439.1 112.8 440.7 114.5" fill="#707070" fill-rule="evenodd" stroke="none"/>
    <path d="M566.6 -53.6 L555.1 -39.4 551.1 -43.6 561.8 -56.8 566.6 -53.6" fill="#707070" fill-rule="evenodd" stroke="none"/>
    <path d="M375.6 54.1 L370.2 56.5 367.1 49.7 372.5 47.3 375.6 54.1" fill="#707070" fill-rule="evenodd" stroke="none"/>
    <path d="M360.4 63.1 L354.6 58.2 360.8 51.0 366.6 55.9 360.4 63.1" fill="#707070" fill-rule="evenodd" stroke="none"/>
    <path d="M355.2 71.8 L349.5 66.9 355.6 59.6 361.4 64.6 355.2 71.8" fill="#707070" fill-rule="evenodd" stroke="none"/>
    <path d="M398.4 17.5 L392.6 12.5 398.8 5.3 404.6 10.3 398.4 17.5" fill="#707070" fill-rule="evenodd" stroke="none"/>
    <path d="M433.6 -12.7 L428.4 -18.2 435.3 -24.8 440.5 -19.3 433.6 -12.7" fill="#707070" fill-rule="evenodd" stroke="none"/>
    <path d="M468.7 -66.8 L462.7 -71.4 468.4 -79.0 474.5 -74.4 468.7 -66.8" fill="#707070" fill-rule="evenodd" stroke="none"/>
    <path d="M523.2 -104.8 L517.2 -109.4 522.9 -117.0 529.0 -112.4 523.2 -104.8" fill="#707070" fill-rule="evenodd" stroke="none"/>
    <path d="M501.0 -94.8 L494.9 -99.4 500.7 -107.0 506.7 -102.4 501.0 -94.8" fill="#707070" fill-rule="evenodd" stroke="none"/>
    <path d="M507.4 -118.2 L513.5 -113.6 507.7 -106.1 501.7 -110.7 507.4 -118.2" fill="#707070" fill-rule="evenodd" stroke="none"/>
    <path d="M591.6 -231.3 L578.4 -215.9 572.6 -220.8 585.8 -236.3 591.6 -231.3" fill="#707070" fill-rule="evenodd" stroke="none"/>
    <path d="M558.1 -206.0 L556.5 -207.3 559.6 -210.9 561.1 -209.6 558.1 -206.0" fill="#707070" fill-rule="evenodd" stroke="none"/>
    <path d="M520.0 -120.8 L514.0 -116.1 508.1 -123.5 514.1 -128.2 520.0 -120.8" fill="#707070" fill-rule="evenodd" stroke="none"/>
    <path d="M420.6 -67.7 L416.1 -71.1 420.3 -76.6 424.7 -73.2 420.6 -67.7" fill="#707070" fill-rule="evenodd" stroke="none"/>
    <path d="M-795.3 -538.2 L-805.3 -538.2 -805.3 -544.1 -795.3 -544.1 -795.3 -538.2" fill="#707070" fill-rule="evenodd" stroke="none"/>
    <path d="M-806.4 -537.6 L-816.4 -537.6 -816.4 -543.4 -806.4 -543.4 -806.4 -537.6" fill="#707070" fill-rule="evenodd" stroke="none"/>
    <path d="M-846.9 -546.2 L-856.9 -546.2 -856.9 -552.1 -846.9 -552.1 -846.9 -546.2" fill="#707070" fill-rule="evenodd" stroke="none"/>
    <path d="M-731.2 -537.2 L-740.5 -541.0 -738.3 -546.4 -729.0 -542.7 -731.2 -537.2" fill="#707070" fill-rule="evenodd" stroke="none"/>
    <path d="M-149.9 104.1 L-158.2 99.0 -155.2 94.1 -146.9 99.2 -149.9 104.1" fill="#707070" fill-rule="evenodd" stroke="none"/>
    <path d="M-214.6 73.1 L-222.5 67.6 -217.8 60.7 -209.9 66.2 -214.6 73.1" fill="#707070" fill-rule="evenodd" stroke="none"/>
    <path d="M-265.1 14.3 L-280.4 10.5 -278.4 2.5 -263.1 6.4 -265.1 14.3" fill="#707070" fill-rule="evenodd" stroke="none"/>
    <path d="M-344.6 39.9 L-353.1 38.4 -351.7 30.4 -343.3 31.9 -344.6 39.9" fill="#707070" fill-rule="evenodd" stroke="none"/>
    <path d="M-329.8 3.8 L-339.6 4.9 -340.5 -3.2 -330.7 -4.3 -329.8 3.8" fill="#707070" fill-rule="evenodd" stroke="none"/>
    <path d="M-349.3 -7.4 L-353.6 6.4 -361.4 3.9 -357.0 -9.8 -349.3 -7.4" fill="#707070" fill-rule="evenodd" stroke="none"/>
    <path d="M-485.4 2.4 L-492.4 3.0 -493.5 -11.4 -486.5 -12.0 -485.4 2.4" fill="#707070" fill-rule="evenodd" stroke="none"/>
    <path d="M-421.3 33.0 L-438.9 33.0 -438.9 26.8 -421.3 26.8 -421.3 33.0" fill="#707070" fill-rule="evenodd" stroke="none"/>
    <path d="M-559.9 49.2 L-574.2 50.9 -575.1 43.0 -560.8 41.3 -559.9 49.2" fill="#707070" fill-rule="evenodd" stroke="none"/>
    <path d="M-551.0 14.4 L-561.2 17.2 -562.6 11.8 -552.4 9.0 -551.0 14.4" fill="#707070" fill-rule="evenodd" stroke="none"/>
    <path d="M-546.5 9.7 L-551.2 10.9 -551.8 8.9 -547.1 7.7 -546.5 9.7" fill="#707070" fill-rule="evenodd" stroke="none"/>
    <path d="M-1011.9 -621.1 L-1019.4 -620.6 -983.4 -231.4 -985.7 -231.3 -979.5 -159.2 -977.3 -159.3 -977.2 -157.4 -981.3 -157.0 -987.9 -233.1 -984.2 -233.4 -1019.9 -621.1 -1011.4 -621.6 -1000.2 -498.6 -986.3 -359.9 -975.9 -234.2 -971.6 -234.5 -965.1 -158.4 -968.0 -158.1 -968.2 -160.1 -967.2 -160.2 -973.4 -232.3 -976.3 -232.1 -986.8 -359.9 -1000.7 -498.6 -1011.9 -621.1" fill="#434343" fill-rule="evenodd" stroke="none"/>
    <path d="M-997.4 -380.9 L-997.0 -377.3 -1006.0 -376.9 -1006.1 -380.5 -997.4 -380.9" fill="#434343" fill-rule="evenodd" stroke="none"/>
    <path d="M-1002.2 -338.9 L-993.5 -339.1 -993.2 -335.8 -1002.0 -335.1 -1002.2 -338.9" fill="#434343" fill-rule="evenodd" stroke="none"/>
    <path d="M-989.4 -292.6 L-998.1 -292.1 -998.3 -295.8 -989.6 -296.2 -989.4 -292.6" fill="#434343" fill-rule="evenodd" stroke="none"/>
    <path d="M-1010.7 -427.0 L-1001.7 -427.5 -1001.4 -424.2 -1010.4 -423.3 -1010.7 -427.0" fill="#434343" fill-rule="evenodd" stroke="none"/>
    <path d="M-1006.4 -476.0 L-1015.4 -475.2 -1015.7 -478.8 -1006.7 -479.5 -1006.4 -476.0" fill="#434343" fill-rule="evenodd" stroke="none"/>
    <path d="M618.6 -249.9 L685.7 -193.2 701.3 -211.9 702.9 -210.6 685.9 -190.4 618.8 -247.1 616.8 -244.7 615.2 -245.9 618.6 -249.9" fill="#434343" fill-rule="evenodd" stroke="none"/>
    <path d="M629.7 -281.4 L706.0 -216.3 704.7 -214.7 629.9 -278.5 598.5 -241.8 590.3 -247.9 585.7 -242.3 602.0 -230.2 611.8 -241.8 613.3 -240.5 602.4 -227.5 582.8 -241.9 590.0 -250.7 598.2 -244.5 629.7 -281.4" fill="#434343" fill-rule="evenodd" stroke="none"/>
    <path d="M-968.9 -191.1 L-969.9 -203.7 -964.4 -203.9 -963.3 -191.8 -968.9 -191.1 M-967.8 -201.7 L-967.1 -193.4 -965.4 -193.6 -966.2 -201.8 -967.8 -201.7" fill="#434343" fill-rule="evenodd" stroke="none"/>
    <path d="M-46.6 -75.7 L-64.6 -75.7 -64.6 -27.9 -157.4 -27.9 -157.4 -29.9 -66.6 -29.9 -66.6 -77.7 -48.6 -77.7 -48.6 -84.1 -76.6 -84.1 -76.6 -69.0 -78.6 -69.0 -78.6 -86.1 -46.6 -86.1 -46.6 -75.7" fill="#434343" fill-rule="evenodd" stroke="none"/>
    <path d="M-156.4 -34.0 L-158.4 -34.0 -158.4 -60.4 -78.6 -60.4 -78.6 -63.7 -76.6 -63.7 -76.6 -58.4 -156.4 -58.4 -156.4 -34.0" fill="#434343" fill-rule="evenodd" stroke="none"/>
    <path d="M-1010.7 -523.3 L-1019.8 -522.6 -1020.1 -526.1 -1011.0 -526.8 -1010.7 -523.3" fill="#434343" fill-rule="evenodd" stroke="none"/>
    <path d="M-1015.3 -572.8 L-1024.4 -572.1 -1024.7 -575.6 -1015.6 -576.3 -1015.3 -572.8" fill="#434343" fill-rule="evenodd" stroke="none"/>
    <path d="M576.8 -170.4 L571.7 -164.4 570.2 -165.7 574.0 -170.1 559.0 -182.5 532.5 -150.9 547.1 -138.3 560.5 -154.4 562.0 -153.1 547.4 -135.5 529.7 -150.6 558.8 -185.3 576.8 -170.4" fill="#434343" fill-rule="evenodd" stroke="none"/>
    <path d="M1003.2 -281.4 L999.9 -280.6 999.0 -284.1 1002.3 -284.9 1003.2 -281.4" fill="#434343" fill-rule="evenodd" stroke="none"/>
    <path d="M1029.9 -281.8 L1026.4 -282.0 1026.6 -285.7 1030.1 -285.5 1029.9 -281.8" fill="#434343" fill-rule="evenodd" stroke="none"/>
    <path d="M1054.4 -278.5 L1051.0 -279.5 1052.1 -283.0 1055.4 -282.0 1054.4 -278.5" fill="#434343" fill-rule="evenodd" stroke="none"/>
    <path d="M1078.9 -270.6 L1075.7 -272.0 1077.1 -275.4 1080.3 -274.0 1078.9 -270.6" fill="#434343" fill-rule="evenodd" stroke="none"/>
    <path d="M1104.7 -255.4 L1101.8 -257.2 1103.7 -260.4 1106.7 -258.5 1104.7 -255.4" fill="#434343" fill-rule="evenodd" stroke="none"/>
    <path d="M-941.6 -88.6 L-947.0 -86.7 -947.6 -88.4 -942.2 -90.3 -941.6 -88.6" fill="#434343" fill-rule="evenodd" stroke="none"/>
    <path d="M-929.4 -63.9 L-934.0 -60.6 -935.1 -62.1 Q-932.8 -63.7 -930.5 -65.4 L-929.4 -63.9" fill="#434343" fill-rule="evenodd" stroke="none"/>
    <path d="M-902.2 -27.1 L-905.5 -22.5 -907.0 -23.6 -903.7 -28.2 -902.2 -27.1" fill="#434343" fill-rule="evenodd" stroke="none"/>
    <path d="M-850.6 4.9 L-852.9 10.1 -854.5 9.4 -852.3 4.2 -850.6 4.9" fill="#434343" fill-rule="evenodd" stroke="none"/>
    <path d="M-804.3 25.1 L-806.1 30.5 -807.8 29.9 -806.1 24.5 -804.3 25.1" fill="#434343" fill-rule="evenodd" stroke="none"/>
    <path d="M-770.5 34.8 L-771.2 40.4 -773.0 40.2 -772.3 34.6 -770.5 34.8" fill="#434343" fill-rule="evenodd" stroke="none"/>
    <path d="M-726.6 42.3 L-726.4 48.0 -728.3 48.0 -728.4 42.4 -726.6 42.3" fill="#434343" fill-rule="evenodd" stroke="none"/>
    <path d="M-689.7 42.6 L-689.6 48.3 -691.4 48.4 -691.6 42.7 -689.7 42.6" fill="#434343" fill-rule="evenodd" stroke="none"/>
    <path d="M-638.6 30.7 L-637.2 36.2 -638.9 36.6 -640.3 31.2 -638.6 30.7" fill="#434343" fill-rule="evenodd" stroke="none"/>
    <path d="M-511.9 -0.7 L-511.3 4.9 -513.1 5.1 -513.7 -0.5 -511.9 -0.7" fill="#434343" fill-rule="evenodd" stroke="none"/>
    <path d="M-474.4 -4.9 L-473.8 0.8 -475.6 1.0 -476.2 -4.7 -474.4 -4.9" fill="#434343" fill-rule="evenodd" stroke="none"/>
    <path d="M-436.9 -7.2 L-436.6 -1.5 -438.4 -1.4 -438.8 -7.1 -436.9 -7.2" fill="#434343" fill-rule="evenodd" stroke="none"/>
    <path d="M-324.0 1.0 L-324.5 6.7 -326.4 6.5 -325.8 0.8 -324.0 1.0" fill="#434343" fill-rule="evenodd" stroke="none"/>
    <path d="M-287.0 8.9 L-287.7 14.5 -289.5 14.3 -288.8 8.7 -287.0 8.9" fill="#434343" fill-rule="evenodd" stroke="none"/>
    <path d="M-250.2 18.5 L-251.5 24.1 -253.3 23.6 -252.0 18.1 -250.2 18.5" fill="#434343" fill-rule="evenodd" stroke="none"/>
    <path d="M-210.3 32.4 L-212.1 37.7 -213.9 37.2 -212.1 31.8 -210.3 32.4" fill="#434343" fill-rule="evenodd" stroke="none"/>
    <path d="M-179.5 43.9 L-181.3 49.2 -183.0 48.7 -181.2 43.3 -179.5 43.9" fill="#434343" fill-rule="evenodd" stroke="none"/>
    <path d="M-145.4 61.0 L-147.7 66.2 -149.4 65.5 -147.1 60.3 -145.4 61.0" fill="#434343" fill-rule="evenodd" stroke="none"/>
    <path d="M-112.7 78.9 L-115.2 84.0 -116.8 83.2 -114.3 78.1 -112.7 78.9" fill="#434343" fill-rule="evenodd" stroke="none"/>
    <path d="M-80.8 99.0 L-83.8 103.8 -85.3 102.9 -82.4 98.0 -80.8 99.0" fill="#434343" fill-rule="evenodd" stroke="none"/>
    <path d="M-65.8 108.7 L-68.8 113.6 -70.3 112.6 -67.4 107.8 -65.8 108.7" fill="#434343" fill-rule="evenodd" stroke="none"/>
    <path d="M-54.3 167.2 L-56.5 166.0 -26.3 124.7 -24.8 125.9 -54.3 167.2" fill="#434343" fill-rule="evenodd" stroke="none"/>
    <path d="M-0.3 171.9 L-13.9 161.3 -10.8 154.7 4.6 167.4 -0.3 171.9" fill="#434343" fill-rule="evenodd" stroke="none"/>
    <path d="M-31.9 185.4 L-43.1 178.3 -38.9 173.1 -26.1 180.4 -31.9 185.4" fill="#434343" fill-rule="evenodd" stroke="none"/>
    <path d="M-23.6 166.4 Q-27.9 163.4 -32.3 160.4 L-26.9 155.6 -23.8 151.3 -18.3 158.9 -23.6 166.4" fill="#434343" fill-rule="evenodd" stroke="none"/>
    <path d="M-15.6 178.9 L-7.6 184.3 -14.9 192.3 -21.6 187.4 -15.6 178.9" fill="#434343" fill-rule="evenodd" stroke="none"/>
    <path d="M464.6 86.5 L462.7 86.0 459.6 86.1 457.0 87.2 454.7 89.1 453.0 91.7 452.3 94.4 452.6 97.5 453.6 99.7 448.2 105.8 448.7 99.7 448.0 95.6 448.1 90.1 450.9 85.7 454.8 82.4 460.3 81.7 464.4 81.8 469.8 80.2 464.6 86.5" fill="#434343" fill-rule="evenodd" stroke="none"/>
    <path d="M358.1 103.2 L359.2 105.7 361.2 108.0 363.8 109.5 366.6 110.1 369.7 109.8 372.3 109.1 377.6 115.0 372.0 113.6 368.0 114.4 362.4 114.5 358.0 111.8 354.5 108.0 353.6 102.6 353.6 98.5 351.5 93.3 358.0 97.5 358.1 103.2" fill="#434343" fill-rule="evenodd" stroke="none"/>
    <path d="M-34.3 -144.6 L-37.4 -141.9 -41.6 -136.9 -41.6 -144.5 Q-40.3 -145.3 -39.1 -146.2 L-36.8 -148.3 -35.6 -150.8 -35.2 -153.8 -35.7 -156.8 -37.1 -159.3 -39.4 -161.5 -41.6 -162.9 -41.6 -170.8 -38.0 -165.7 -34.8 -163.1 -31.0 -159.0 -30.2 -153.9 -30.8 -148.8 -34.3 -144.6" fill="#434343" fill-rule="evenodd" stroke="none"/>
    <path d="M-11.3 97.4 L-18.7 95.4 -19.5 92.6 -21.0 89.8 -23.2 88.0 -26.0 86.8 -29.0 86.6 -31.7 87.2 -34.4 88.9 -36.4 90.6 -44.0 88.5 -38.1 86.4 -34.8 83.9 -29.8 81.5 -24.7 82.0 -19.9 83.9 -16.8 88.4 -15.0 92.1 -11.3 97.4" fill="#434343" fill-rule="evenodd" stroke="none"/>
    <path d="M-847.1 -890.4 L-846.2 -885.4 -846.7 -880.3 -850.2 -876.0 -853.2 -873.3 -856.9 -868.2 -857.3 -875.8 -854.9 -877.5 -852.7 -879.7 -851.5 -882.2 -851.2 -885.2 -851.8 -888.2 -853.1 -890.7 -855.5 -892.8 -857.7 -894.3 -857.9 -902.1 -854.2 -897.0 -850.9 -894.5 -847.1 -890.4" fill="#434343" fill-rule="evenodd" stroke="none"/>
    <path d="M-1148.7 -867.0 L-1152.0 -874.1 -1146.6 -871.0 -1142.6 -870.0 -1137.5 -867.8 -1134.5 -863.6 -1133.0 -858.7 -1134.4 -853.4 -1136.0 -849.7 -1137.4 -843.6 -1140.8 -850.4 -1139.3 -852.8 -1138.2 -855.7 -1138.2 -858.5 -1139.1 -861.4 -1140.8 -863.9 -1143.1 -865.6 -1148.7 -867.0" fill="#434343" fill-rule="evenodd" stroke="none"/>
  </g>
</svg>
