<?xml version="1.0" encoding="UTF-8" standalone="no"?>
<svg xmlns:ffdec="https://www.free-decompiler.com/flash" xmlns:xlink="http://www.w3.org/1999/xlink" ffdec:objectType="shape" height="46.4px" width="40.05px" xmlns="http://www.w3.org/2000/svg">
  <g transform="matrix(1.0, 0.0, 0.0, 1.0, 6.5, 7.8)">
    <path d="M33.35 7.75 Q35.0 20.55 23.8 29.65 14.1 37.45 1.25 38.6 -5.85 33.75 -6.45 16.65 -7.15 -0.9 0.8 -6.3 4.35 -8.65 8.95 -7.35 13.5 -6.05 15.6 -2.15 22.1 -5.15 27.5 -1.65 32.6 1.6 33.35 7.75 M24.55 6.7 Q20.3 2.2 12.75 6.5 L10.75 3.15 Q9.7 1.9 8.25 1.5 -1.0 -0.6 -1.15 14.6 -1.15 20.45 0.45 25.5 2.0 30.6 4.1 31.2 6.0 31.65 10.2 30.15 13.95 28.8 16.45 27.1 18.7 25.55 21.35 22.7 23.75 20.15 24.7 18.45 28.8 11.2 24.55 6.7" fill="#000000" fill-rule="evenodd" stroke="none"/>
    <path d="M24.55 6.7 Q28.8 11.2 24.7 18.45 23.75 20.15 21.35 22.7 18.7 25.55 16.45 27.1 13.95 28.8 10.2 30.15 6.0 31.65 4.1 31.2 2.0 30.6 0.45 25.5 -1.15 20.45 -1.15 14.6 -1.0 -0.6 8.25 1.5 9.7 1.9 10.75 3.15 L12.75 6.5 Q20.3 2.2 24.55 6.7" fill="#ed1c24" fill-rule="evenodd" stroke="none"/>
  </g>
</svg>
