<?xml version="1.0" encoding="UTF-8" standalone="no"?>
<svg xmlns:ffdec="https://www.free-decompiler.com/flash" xmlns:xlink="http://www.w3.org/1999/xlink" ffdec:objectType="shape" height="42.35px" width="36.65px" xmlns="http://www.w3.org/2000/svg">
  <g transform="matrix(1.0, 0.0, 0.0, 1.0, 4.8, 5.75)">
    <path d="M23.65 7.5 Q19.7 3.4 12.85 7.3 L11.0 4.3 Q10.05 3.1 8.75 2.75 0.3 0.85 0.15 14.7 0.15 20.05 1.6 24.65 3.05 29.35 4.95 29.9 6.65 30.3 10.5 28.95 13.95 27.7 16.2 26.1 18.25 24.75 20.7 22.15 22.85 19.8 23.75 18.2 27.45 11.6 23.65 7.5 M31.65 8.45 Q33.15 20.15 22.95 28.45 14.1 35.6 2.35 36.6 -4.2 32.2 -4.75 16.55 -5.35 0.55 1.95 -4.4 5.15 -6.5 9.35 -5.35 13.55 -4.15 15.45 -0.6 21.35 -3.35 26.3 -0.1 31.0 2.85 31.65 8.45" fill="#000000" fill-rule="evenodd" stroke="none"/>
    <path d="M23.65 7.5 Q27.45 11.6 23.75 18.2 22.85 19.8 20.7 22.15 18.25 24.75 16.2 26.1 13.95 27.7 10.5 28.95 6.65 30.3 4.95 29.9 3.05 29.35 1.6 24.65 0.15 20.05 0.15 14.7 0.3 0.85 8.75 2.75 10.05 3.1 11.0 4.3 L12.85 7.3 Q19.7 3.4 23.65 7.5" fill="#ed1c24" fill-rule="evenodd" stroke="none"/>
  </g>
</svg>
