<?xml version="1.0" encoding="UTF-8" standalone="no"?>
<svg xmlns:ffdec="https://www.free-decompiler.com/flash" xmlns:xlink="http://www.w3.org/1999/xlink" ffdec:objectType="shape" height="51.35px" width="44.4px" xmlns="http://www.w3.org/2000/svg">
  <g transform="matrix(1.0, 0.0, 0.0, 1.0, 8.65, 10.25)">
    <path d="M25.75 5.8 Q21.0 0.8 12.7 5.55 L10.45 1.9 Q9.3 0.5 7.7 0.05 -2.55 -2.25 -2.7 14.55 -2.7 21.05 -0.95 26.65 0.8 32.3 3.1 32.95 5.2 33.45 9.85 31.8 14.05 30.3 16.8 28.4 19.3 26.7 22.2 23.55 24.85 20.7 25.95 18.8 30.45 10.8 25.75 5.8 M35.5 7.0 Q37.35 21.15 24.95 31.2 14.2 39.85 -0.05 41.1 -7.95 35.8 -8.6 16.8 -9.35 -2.6 -0.55 -8.6 3.35 -11.15 8.45 -9.75 13.55 -8.35 15.85 -4.0 23.0 -7.35 29.0 -3.4 34.7 0.15 35.5 7.0" fill="#000000" fill-rule="evenodd" stroke="none"/>
    <path d="M25.75 5.8 Q30.45 10.8 25.95 18.8 24.85 20.7 22.2 23.55 19.3 26.7 16.8 28.4 14.05 30.3 9.85 31.8 5.2 33.45 3.1 32.95 0.8 32.3 -0.95 26.65 -2.7 21.05 -2.7 14.55 -2.55 -2.25 7.7 0.05 9.3 0.5 10.45 1.9 L12.7 5.55 Q21.0 0.8 25.75 5.8" fill="#ed1c24" fill-rule="evenodd" stroke="none"/>
  </g>
</svg>
