<?xml version="1.0" encoding="UTF-8" standalone="no"?>
<svg xmlns:ffdec="https://www.free-decompiler.com/flash" xmlns:xlink="http://www.w3.org/1999/xlink" ffdec:objectType="shape" height="627.0px" width="1280.0px" xmlns="http://www.w3.org/2000/svg">
  <g transform="matrix(1.0, 0.0, 0.0, 1.0, 0.0, 0.0)">
    <path d="M1280.0 58.35 L1280.0 590.95 1280.0 621.6 1280.0 627.0 783.95 627.0 556.95 627.0 0.0 627.0 0.0 621.6 0.0 590.95 0.0 58.35 0.0 0.0 1280.0 0.0 1280.0 58.35" fill="#27aae1" fill-rule="evenodd" stroke="none"/>
    <path d="M1015.0 560.0 L265.0 560.0 265.0 0.0 1015.0 0.0 1015.0 560.0" fill="#f15a29" fill-rule="evenodd" stroke="none"/>
    <path d="M1007.0 550.0 L273.0 550.0 273.0 0.0 1007.0 0.0 1007.0 550.0" fill="#ffffff" fill-rule="evenodd" stroke="none"/>
    <path d="M1015.0 154.0 L265.0 154.0 265.0 0.0 1015.0 0.0 1015.0 154.0" fill="#f15a29" fill-rule="evenodd" stroke="none"/>
  </g>
</svg>
