<?xml version="1.0" encoding="UTF-8" standalone="no"?>
<svg xmlns:ffdec="https://www.free-decompiler.com/flash" xmlns:xlink="http://www.w3.org/1999/xlink" ffdec:objectType="shape" height="530.55px" width="646.55px" xmlns="http://www.w3.org/2000/svg">
  <g transform="matrix(1.0, 0.0, 0.0, 1.0, 175.5, 154.5)">
    <path d="M471.05 -84.95 Q471.05 115.05 470.55 315.05 L243.55 315.05 243.55 376.05 157.55 376.05 157.55 199.05 126.05 199.05 126.05 158.05 84.55 158.05 84.55 140.55 -175.5 140.55 -175.5 34.55 -83.45 34.55 -83.45 -76.95 -42.95 -76.95 -42.95 -139.0 54.05 -139.0 54.05 -133.0 166.05 -133.0 166.05 -154.5 293.05 -154.5 293.05 -84.95 471.05 -84.95" fill="#424242" fill-rule="evenodd" stroke="none"/>
    <path d="M35.55 -10.45 L83.05 -10.45 83.05 -12.95 109.55 -12.95 109.55 -10.45 229.55 -10.45 229.55 36.55 231.55 36.55 231.55 62.05 229.55 62.05 229.55 74.05 220.55 74.05 220.55 76.05 229.55 76.05 229.55 101.55 234.55 101.55 234.55 179.05 229.55 179.05 229.55 183.05 222.55 183.05 222.55 186.05 229.55 186.05 229.55 190.05 234.55 190.05 234.55 234.05 274.05 234.05 274.05 240.55 275.55 240.55 275.55 266.55 274.05 266.55 274.05 294.05 248.55 294.05 248.55 259.55 195.05 259.55 195.05 253.05 192.05 253.05 192.05 240.05 195.05 240.05 195.05 186.05 210.05 186.05 210.05 183.05 195.05 183.05 195.05 175.05 192.55 175.05 192.55 182.55 145.55 182.55 145.55 149.55 192.55 149.55 192.55 162.05 195.05 162.05 195.05 138.55 192.55 138.55 192.55 146.55 145.55 146.55 145.55 113.05 192.55 113.05 192.55 125.55 195.05 125.55 195.05 93.05 192.55 93.05 192.55 109.55 157.55 109.55 157.55 76.55 192.55 76.55 192.55 80.55 195.05 80.55 195.05 76.05 207.55 76.05 207.55 75.05 170.05 75.05 170.05 62.55 160.05 62.55 160.05 19.55 197.05 19.55 197.05 24.05 203.55 24.05 203.55 14.05 149.55 14.05 149.55 15.55 137.05 15.55 137.05 14.05 130.55 14.05 130.55 46.55 35.55 46.55 35.55 -10.45" fill="#959595" fill-rule="evenodd" stroke="none"/>
    <path d="M36.55 94.55 L36.55 36.55 61.05 36.55 61.05 94.55 36.55 94.55" fill="#ffffff" fill-rule="evenodd" stroke="none"/>
    <path d="M248.55 297.05 L248.55 290.55 274.05 290.55 274.05 297.05 248.55 297.05" fill="#ffffff" fill-rule="evenodd" stroke="none"/>
    <path d="M157.55 182.55 L157.55 173.05 180.55 173.05 180.55 182.55 157.55 182.55" fill="#6f6f6f" fill-rule="evenodd" stroke="none"/>
    <path d="M180.55 137.05 L180.55 146.55 157.55 146.55 157.55 137.05 180.55 137.05" fill="#6f6f6f" fill-rule="evenodd" stroke="none"/>
    <path d="M166.55 86.55 L166.55 109.55 157.55 109.55 157.55 86.55 166.55 86.55" fill="#6f6f6f" fill-rule="evenodd" stroke="none"/>
    <path d="M160.55 118.05 L160.55 113.05 187.55 113.05 187.55 118.05 160.55 118.05" fill="#6f6f6f" fill-rule="evenodd" stroke="none"/>
    <path d="M168.05 109.55 L168.05 105.05 191.05 105.05 191.05 109.55 168.05 109.55" fill="#6f6f6f" fill-rule="evenodd" stroke="none"/>
    <path d="M160.55 154.55 L160.55 149.55 187.55 149.55 187.55 154.55 160.55 154.55" fill="#6f6f6f" fill-rule="evenodd" stroke="none"/>
    <path d="M149.05 116.05 L151.05 114.55 Q152.55 115.55 153.55 116.05 L153.55 119.05 Q152.55 120.05 151.05 120.55 150.05 120.05 149.05 119.05 L149.05 120.05 145.55 120.05 145.55 115.05 149.05 115.05 149.05 116.05" fill="#6f6f6f" fill-rule="evenodd" stroke="none"/>
    <path d="M153.55 153.05 L153.55 156.05 Q152.55 157.05 151.05 157.55 150.05 157.05 149.05 156.05 L149.05 157.05 145.55 157.05 145.55 152.05 149.05 152.05 149.05 153.05 151.05 151.55 Q152.55 152.55 153.55 153.05" fill="#6f6f6f" fill-rule="evenodd" stroke="none"/>
    <path d="M157.55 83.05 L157.55 78.55 160.55 78.55 160.55 79.55 Q162.05 79.05 163.05 78.05 164.55 79.05 165.55 79.55 L165.55 82.55 163.05 83.55 160.55 82.55 160.55 83.05 157.55 83.05" fill="#6f6f6f" fill-rule="evenodd" stroke="none"/>
    <path d="M186.55 55.55 L177.05 55.55 177.05 51.05 176.05 51.05 176.05 30.05 187.05 30.05 187.05 51.05 186.55 51.05 186.55 55.55" fill="#6f6f6f" fill-rule="evenodd" stroke="none"/>
    <path d="M165.55 19.55 L165.55 62.55 160.05 62.55 160.05 19.55 165.55 19.55" fill="#6f6f6f" fill-rule="evenodd" stroke="none"/>
    <path d="M174.55 14.05 L197.55 14.05 197.55 21.55 174.55 21.55 174.55 14.05" fill="#6f6f6f" fill-rule="evenodd" stroke="none"/>
  </g>
</svg>
