<?xml version="1.0" encoding="UTF-8" standalone="no"?>
<svg xmlns:ffdec="https://www.free-decompiler.com/flash" xmlns:xlink="http://www.w3.org/1999/xlink" ffdec:objectType="shape" height="600.55px" width="646.55px" xmlns="http://www.w3.org/2000/svg">
  <g transform="matrix(1.0, 0.0, 0.0, 1.0, 175.4, 184.2)">
    <path d="M465.65 -85.15 L465.65 -106.7 471.15 -106.7 Q471.15 107.85 470.65 322.35 L404.15 322.35 404.15 314.85 318.15 314.85 318.15 320.35 291.15 320.35 291.15 352.35 283.15 352.35 283.15 314.85 249.15 314.85 249.15 351.35 243.65 351.35 243.65 416.35 235.65 416.35 235.65 375.85 157.65 375.85 157.65 157.85 84.65 157.85 84.65 140.35 -170.9 140.35 -170.9 148.85 -175.4 148.85 -175.4 34.35 -81.35 34.35 -81.35 -77.15 -42.85 -77.15 -42.85 -139.2 54.15 -139.2 54.15 -133.2 124.65 -133.2 124.65 -184.2 155.15 -184.2 155.15 -178.7 130.15 -178.7 130.15 -133.2 166.15 -133.2 166.15 -154.7 293.15 -154.7 293.15 -85.15 465.65 -85.15" fill="#424242" fill-rule="evenodd" stroke="none"/>
    <path d="M36.65 94.35 L36.65 36.35 61.15 36.35 61.15 94.35 36.65 94.35" fill="#ffffff" fill-rule="evenodd" stroke="none"/>
    <path d="M40.65 -49.15 L40.65 -52.15 33.15 -52.15 33.15 -66.15 29.15 -66.15 29.15 -39.65 32.15 -39.65 32.15 -45.15 33.15 -45.15 33.15 -49.15 40.65 -49.15 M6.15 -61.15 L6.15 -55.15 13.15 -55.15 13.15 -61.15 6.15 -61.15 M-35.85 -69.15 L-35.85 -109.7 29.65 -109.7 29.65 -100.2 32.65 -100.2 32.65 -128.2 109.15 -128.2 109.15 -72.15 72.65 -72.15 72.65 -52.15 53.65 -52.15 53.65 -49.15 58.15 -49.15 58.15 -45.15 62.65 -45.15 62.65 -39.65 73.65 -39.65 73.65 -35.65 77.65 -35.65 77.65 -68.15 104.65 -68.15 104.65 -31.15 107.65 -31.15 107.65 -68.15 142.15 -68.15 142.15 -63.15 150.15 -63.15 150.15 -68.15 202.15 -68.15 202.15 -11.15 107.65 -11.15 107.65 -18.65 104.65 -18.65 104.65 -8.65 77.65 -8.65 77.65 -9.65 74.15 -9.65 74.15 6.85 78.15 6.85 78.15 -3.15 185.65 -3.15 185.65 2.85 190.65 2.85 190.65 -8.15 204.65 -8.15 204.65 -14.65 285.65 -14.65 285.65 31.35 190.65 31.35 190.65 14.85 185.65 14.85 185.65 20.85 101.65 20.85 101.65 23.85 114.65 23.85 114.65 29.85 124.15 29.85 124.15 23.85 182.65 23.85 182.65 43.85 184.15 43.85 184.15 70.35 182.65 70.35 182.65 85.35 67.15 85.35 67.15 46.35 78.65 46.35 78.65 23.85 88.15 23.85 88.15 20.85 78.15 20.85 78.15 19.35 74.15 19.35 74.15 40.35 34.65 40.35 34.65 46.35 35.65 46.35 35.65 94.35 61.15 94.35 61.15 118.35 47.65 118.35 47.65 120.35 21.15 120.35 21.15 118.35 7.65 118.35 7.65 94.35 3.15 94.35 3.15 116.85 -28.35 116.85 -28.35 113.85 -34.35 113.85 -34.35 116.85 -65.85 116.85 -65.85 45.85 -34.35 45.85 -34.35 48.85 -27.85 48.85 -27.85 45.85 3.15 45.85 3.15 68.35 7.65 68.35 7.65 46.35 9.15 46.35 9.15 40.35 7.65 40.35 7.65 32.35 -75.35 32.35 -75.35 -18.65 -81.35 -18.65 -81.35 -44.65 -75.35 -44.65 -75.35 -63.65 -67.35 -63.65 -67.35 -69.15 -58.85 -69.15 -58.85 -71.65 -45.85 -71.65 -45.85 -69.15 -35.85 -69.15" fill="#959595" fill-rule="evenodd" stroke="none"/>
    <path d="M264.65 -13.65 L236.15 -13.65 236.15 -34.15 287.65 -34.15 287.65 32.35 221.15 32.35 221.15 12.35 264.65 12.35 264.65 -13.65" fill="#ffffff" fill-rule="evenodd" stroke="none"/>
    <path d="M-65.85 108.85 L-65.85 97.85 -40.35 97.85 -40.35 108.85 -65.85 108.85" fill="#6f6f6f" fill-rule="evenodd" stroke="none"/>
    <path d="M-21.85 116.85 L-21.85 112.35 3.15 112.35 3.15 116.85 -21.85 116.85" fill="#6f6f6f" fill-rule="evenodd" stroke="none"/>
    <path d="M-42.85 85.35 L-42.85 79.35 -36.85 79.35 -36.85 85.35 -42.85 85.35" fill="#6f6f6f" fill-rule="evenodd" stroke="none"/>
    <path d="M-5.85 60.85 L-5.85 45.85 3.15 45.85 3.15 66.85 -2.85 66.85 -2.85 60.85 -5.85 60.85" fill="#6f6f6f" fill-rule="evenodd" stroke="none"/>
    <path d="M-27.85 49.35 L-27.85 45.85 -23.35 45.85 -23.35 49.35 -27.85 49.35" fill="#6f6f6f" fill-rule="evenodd" stroke="none"/>
    <path d="M-36.85 31.35 L-36.85 -1.15 -28.85 -1.15 -28.85 31.35 -36.85 31.35" fill="#6f6f6f" fill-rule="evenodd" stroke="none"/>
    <path d="M-53.85 26.35 L-53.85 32.35 -60.35 32.35 -60.35 26.35 -53.85 26.35" fill="#6f6f6f" fill-rule="evenodd" stroke="none"/>
    <path d="M-46.35 26.35 L-46.35 32.35 -52.85 32.35 -52.85 26.35 -46.35 26.35" fill="#6f6f6f" fill-rule="evenodd" stroke="none"/>
    <path d="M-18.85 -1.15 L-18.85 31.35 -27.35 31.35 -27.35 -1.15 -18.85 -1.15" fill="#6f6f6f" fill-rule="evenodd" stroke="none"/>
    <path d="M-5.35 -1.15 L2.65 -1.15 2.65 31.35 -5.35 31.35 -5.35 -1.15" fill="#6f6f6f" fill-rule="evenodd" stroke="none"/>
    <path d="M-7.85 -107.7 L-7.85 -97.2 -32.35 -97.2 -32.35 -107.7 -7.85 -107.7" fill="#6f6f6f" fill-rule="evenodd" stroke="none"/>
    <path d="M29.65 -104.7 L-1.85 -104.7 -1.85 -109.7 29.65 -109.7 29.65 -104.7" fill="#6f6f6f" fill-rule="evenodd" stroke="none"/>
    <path d="M33.15 -99.2 L33.15 -113.2 61.65 -113.2 61.65 -99.2 33.15 -99.2" fill="#6f6f6f" fill-rule="evenodd" stroke="none"/>
    <path d="M100.15 -73.65 L100.15 -102.2 109.15 -102.2 109.15 -73.65 100.15 -73.65" fill="#6f6f6f" fill-rule="evenodd" stroke="none"/>
    <path d="M107.65 -128.2 L107.65 -122.7 64.65 -122.7 64.65 -128.2 107.65 -128.2" fill="#6f6f6f" fill-rule="evenodd" stroke="none"/>
    <path d="M72.15 -70.15 L72.15 -65.15 67.65 -65.15 67.65 -70.15 72.15 -70.15" fill="#6f6f6f" fill-rule="evenodd" stroke="none"/>
    <path d="M104.15 -104.2 Q104.65 -106.2 104.65 -108.7 L109.15 -108.2 Q109.15 -105.7 108.65 -103.7 L104.15 -104.2" fill="#6f6f6f" fill-rule="evenodd" stroke="none"/>
    <path d="M72.15 -65.15 L72.15 -59.15 66.65 -59.15 66.65 -65.15 72.15 -65.15" fill="#6f6f6f" fill-rule="evenodd" stroke="none"/>
    <path d="M66.65 -52.65 L66.65 -58.65 72.15 -58.65 72.15 -52.65 66.65 -52.65" fill="#6f6f6f" fill-rule="evenodd" stroke="none"/>
    <path d="M107.65 -36.15 L107.65 -68.15 125.65 -68.15 125.65 -62.65 113.15 -62.65 113.15 -36.15 107.65 -36.15" fill="#6f6f6f" fill-rule="evenodd" stroke="none"/>
    <path d="M201.15 -62.65 L201.15 -48.15 197.65 -48.15 197.65 -62.65 201.15 -62.65" fill="#6f6f6f" fill-rule="evenodd" stroke="none"/>
    <path d="M197.65 -47.15 L201.15 -47.15 201.15 -32.65 197.65 -32.65 197.65 -47.15" fill="#6f6f6f" fill-rule="evenodd" stroke="none"/>
    <path d="M197.65 -16.65 L197.65 -31.15 201.15 -31.15 201.15 -16.65 197.65 -16.65" fill="#6f6f6f" fill-rule="evenodd" stroke="none"/>
    <path d="M104.65 -36.15 L102.15 -36.15 102.15 -67.65 104.65 -67.65 104.65 -36.15" fill="#6f6f6f" fill-rule="evenodd" stroke="none"/>
    <path d="M141.15 -68.15 L141.15 -63.15 126.15 -63.15 126.15 -68.15 141.15 -68.15" fill="#6f6f6f" fill-rule="evenodd" stroke="none"/>
    <path d="M166.15 -67.65 L166.15 -63.65 151.15 -63.65 151.15 -67.65 166.15 -67.65" fill="#6f6f6f" fill-rule="evenodd" stroke="none"/>
    <path d="M181.65 -67.65 L181.65 -63.65 166.65 -63.65 166.65 -67.65 181.65 -67.65" fill="#6f6f6f" fill-rule="evenodd" stroke="none"/>
    <path d="M182.15 -63.65 L182.15 -67.65 197.15 -67.65 197.15 -63.65 182.15 -63.65" fill="#6f6f6f" fill-rule="evenodd" stroke="none"/>
    <path d="M133.65 -16.15 L133.65 -11.65 118.65 -11.65 118.65 -16.15 133.65 -16.15" fill="#6f6f6f" fill-rule="evenodd" stroke="none"/>
    <path d="M134.65 -11.65 L134.65 -15.65 149.65 -15.65 149.65 -11.65 134.65 -11.65" fill="#6f6f6f" fill-rule="evenodd" stroke="none"/>
    <path d="M124.15 29.35 L124.15 23.85 182.65 23.85 182.65 29.35 124.15 29.35" fill="#6f6f6f" fill-rule="evenodd" stroke="none"/>
    <path d="M124.15 90.35 L124.15 85.35 182.65 85.35 182.65 90.35 124.15 90.35" fill="#6f6f6f" fill-rule="evenodd" stroke="none"/>
    <path d="M178.65 42.85 L178.65 38.85 182.65 38.85 182.65 42.85 178.65 42.85" fill="#6f6f6f" fill-rule="evenodd" stroke="none"/>
    <path d="M114.65 84.85 L114.65 90.35 65.15 90.35 65.15 42.85 76.65 42.85 76.65 23.85 82.15 23.85 82.15 47.85 70.15 47.85 70.15 84.85 114.65 84.85" fill="#6f6f6f" fill-rule="evenodd" stroke="none"/>
    <path d="M181.15 -16.15 L181.15 -12.15 166.15 -12.15 166.15 -16.15 181.15 -16.15" fill="#6f6f6f" fill-rule="evenodd" stroke="none"/>
    <path d="M182.15 -11.65 L182.15 -16.15 197.15 -16.15 197.15 -11.65 182.15 -11.65" fill="#6f6f6f" fill-rule="evenodd" stroke="none"/>
    <path d="M165.15 -16.15 L165.15 -12.15 150.15 -12.15 150.15 -16.15 165.15 -16.15" fill="#6f6f6f" fill-rule="evenodd" stroke="none"/>
    <path d="M-35.85 -79.15 L-26.85 -79.15 -26.85 -65.15 -28.85 -65.15 -28.85 -58.65 1.15 -58.65 1.15 -62.65 6.65 -62.65 6.65 -55.15 13.65 -55.15 13.65 -46.65 11.15 -44.65 -40.85 -44.65 -42.85 -46.65 -42.85 -69.15 -35.85 -69.15 -35.85 -79.15" fill="#6f6f6f" fill-rule="evenodd" stroke="none"/>
    <path d="M-64.85 25.35 L-64.85 28.85 -67.35 31.85 -70.85 31.85 -73.35 28.85 -73.35 25.35 Q-71.85 24.35 -70.85 22.85 L-67.35 22.85 -64.85 25.35" fill="#6f6f6f" fill-rule="evenodd" stroke="none"/>
    <path d="M70.15 39.85 L66.65 39.85 64.15 37.35 64.15 33.85 Q65.65 32.85 66.65 31.35 L70.15 31.35 72.65 33.85 72.65 37.35 Q71.65 38.85 70.15 39.85" fill="#6f6f6f" fill-rule="evenodd" stroke="none"/>
    <path d="M73.15 -5.65 L73.15 3.85 71.65 3.85 71.65 -5.65 73.15 -5.65" fill="#6f6f6f" fill-rule="evenodd" stroke="none"/>
    <path d="M-75.35 -44.65 L-75.35 -18.65 -81.35 -18.65 -81.35 -44.65 -75.35 -44.65" fill="#ffffff" fill-rule="evenodd" stroke="none"/>
  </g>
</svg>
