<?xml version="1.0" encoding="UTF-8" standalone="no"?>
<svg xmlns:ffdec="https://www.free-decompiler.com/flash" xmlns:xlink="http://www.w3.org/1999/xlink" ffdec:objectType="shape" height="530.55px" width="646.55px" xmlns="http://www.w3.org/2000/svg">
  <g transform="matrix(1.0, 0.0, 0.0, 1.0, 175.4, 154.7)">
    <path d="M471.15 -85.15 Q471.15 114.85 470.65 314.85 L243.65 314.85 243.65 375.85 157.65 375.85 157.65 157.85 84.65 157.85 84.65 140.35 -175.4 140.35 -175.4 34.35 -81.35 34.35 -81.35 -77.15 -42.85 -77.15 -42.85 -139.2 54.15 -139.2 54.15 -133.2 166.15 -133.2 166.15 -154.7 293.15 -154.7 293.15 -85.15 471.15 -85.15" fill="#424242" fill-rule="evenodd" stroke="none"/>
    <path d="M215.65 -33.15 L286.15 -33.15 286.15 4.85 215.65 4.85 215.65 -33.15 M236.15 -12.65 L265.65 -12.65 265.65 -15.65 236.15 -15.65 236.15 -12.65" fill="#ffffff" fill-rule="evenodd" stroke="none"/>
  </g>
</svg>
