<?xml version="1.0" encoding="UTF-8" standalone="no"?>
<svg xmlns:ffdec="https://www.free-decompiler.com/flash" xmlns:xlink="http://www.w3.org/1999/xlink" ffdec:objectType="shape" height="33.4px" width="380.0px" xmlns="http://www.w3.org/2000/svg">
  <g transform="matrix(1.0, 0.0, 0.0, 1.0, 190.0, 0.4)">
    <path d="M190.0 32.0 L-190.0 32.0 -190.0 0.0 -189.85 0.3 -189.6 0.55 190.0 0.55 190.0 32.0" fill="url(#gradient0)" fill-rule="evenodd" stroke="none"/>
    <path d="M-189.7 32.15 L-189.0 32.0 189.05 32.0 189.75 32.15 190.0 32.5 189.75 32.85 189.05 33.0 -189.0 33.0 -189.7 32.85 -190.0 32.5 -189.7 32.15 M189.0 -0.4 L189.7 -0.25 190.0 0.15 189.7 0.45 189.0 0.6 -189.0 0.6 -189.7 0.45 -190.0 0.15 -189.7 -0.25 -189.0 -0.4 189.0 -0.4" fill="#ffffff" fill-rule="evenodd" stroke="none"/>
  </g>
  <defs>
    <linearGradient gradientTransform="matrix(0.2319, 0.0, 0.0, 0.0195, 0.0, 16.0)" gradientUnits="userSpaceOnUse" id="gradient0" spreadMethod="reflect" x1="-819.2" x2="819.2">
      <stop offset="0.0" stop-color="#000000" stop-opacity="0.0"/>
      <stop offset="0.5176470588235295" stop-color="#000000"/>
      <stop offset="1.0" stop-color="#000000" stop-opacity="0.0"/>
    </linearGradient>
  </defs>
</svg>
