<?xml version="1.0" encoding="UTF-8" standalone="no"?>
<svg xmlns:ffdec="https://www.free-decompiler.com/flash" xmlns:xlink="http://www.w3.org/1999/xlink" ffdec:objectType="shape" height="52.3px" width="60.15px" xmlns="http://www.w3.org/2000/svg">
  <g transform="matrix(1.0, 0.0, 0.0, 1.0, 0.0, 0.0)">
    <path d="M44.6 0.0 L45.1 0.15 45.5 0.5 60.05 25.65 60.15 26.15 60.05 26.65 45.5 51.8 45.1 52.2 44.6 52.3 15.55 52.3 15.05 52.2 14.7 51.8 0.15 26.65 0.0 26.15 0.15 25.65 14.7 0.5 Q14.8 0.25 15.05 0.15 L15.55 0.0 44.6 0.0 M58.0 26.15 L44.05 2.0 16.15 2.0 2.2 26.15 16.15 50.3 44.05 50.3 58.0 26.15" fill="#000000" fill-rule="evenodd" stroke="none"/>
    <path d="M58.0 26.15 L44.05 50.3 16.15 50.3 2.2 26.15 16.15 2.0 44.05 2.0 58.0 26.15" fill="#ffffff" fill-rule="evenodd" stroke="none"/>
  </g>
</svg>
