<?xml version="1.0" encoding="UTF-8" standalone="no"?>
<svg xmlns:ffdec="https://www.free-decompiler.com/flash" xmlns:xlink="http://www.w3.org/1999/xlink" ffdec:objectType="shape" height="55.75px" width="66.5px" xmlns="http://www.w3.org/2000/svg">
  <g transform="matrix(1.0, 0.0, 0.0, 1.0, 0.0, 27.9)">
    <path d="M20.3 -20.45 L20.3 -20.4 44.3 -20.4 44.3 -23.65 53.05 -23.65 53.05 -27.4 61.3 -27.4 61.3 -27.9 66.5 -27.9 66.5 12.6 47.8 12.6 47.8 5.6 45.55 5.6 45.55 3.85 31.05 3.85 31.05 4.85 29.8 4.85 29.8 5.6 29.55 5.6 29.55 12.6 29.0 12.6 29.0 27.85 13.55 27.85 13.55 7.6 0.0 7.6 0.0 -20.45 20.3 -20.45" fill="#00ff33" fill-opacity="0.0" fill-rule="evenodd" stroke="none"/>
  </g>
</svg>
