<?xml version="1.0" encoding="UTF-8" standalone="no"?>
<svg xmlns:ffdec="https://www.free-decompiler.com/flash" xmlns:xlink="http://www.w3.org/1999/xlink" ffdec:objectType="shape" height="1768.5px" width="320.45px" xmlns="http://www.w3.org/2000/svg">
  <g transform="matrix(1.0, 0.0, 0.0, 1.0, 154.95, 898.8)">
    <path d="M-135.45 -539.8 L-126.45 -741.8 -104.45 -898.8 113.0 -898.8 Q124.0 -822.3 134.5 -745.8 L144.5 -539.8 147.5 -539.8 Q147.0 -98.3 146.0 342.7 144.0 407.2 141.5 471.7 L126.5 549.2 130.0 549.2 Q128.0 568.7 125.5 587.7 L139.5 652.7 93.5 781.7 Q80.0 806.2 66.0 830.7 58.0 840.7 49.5 850.2 L30.5 863.7 Q26.0 866.2 21.5 868.2 L7.5 869.7 -1.5 869.7 -12.0 867.2 Q-18.0 865.2 -24.0 862.7 L-40.5 849.2 -58.5 829.7 -101.45 737.7 Q-116.45 695.2 -131.95 652.7 -123.45 621.2 -115.45 589.7 -118.45 569.7 -121.95 549.2 L-117.45 549.2 -131.45 471.7 -137.45 342.7 -137.45 -539.8 -135.45 -539.8" fill="#6f6f6f" fill-rule="evenodd" stroke="none"/>
    <path d="M-16.5 -719.3 L-16.5 -790.8 26.0 -790.8 26.0 -719.3 Q26.0 -716.8 25.5 -714.8 25.0 -712.8 24.0 -710.8 L22.0 -708.3 16.0 -704.3 9.0 -703.3 0.0 -703.3 -7.5 -704.8 -12.5 -707.8 Q-13.5 -709.3 -15.0 -710.8 L-16.0 -714.8 Q-16.0 -716.8 -16.5 -719.3" fill="#424242" fill-rule="evenodd" stroke="none"/>
    <path d="M-105.95 -568.3 L-88.0 -568.3 -88.0 -677.3 -45.5 -677.3 -45.5 -695.8 55.0 -695.8 55.0 -685.3 90.0 -685.3 90.0 -676.8 97.0 -676.8 97.0 -568.3 114.5 -568.3 114.5 -504.3 78.0 -504.3 78.0 -502.3 -70.0 -502.3 -70.0 -504.3 -105.95 -504.3 -105.95 -568.3" fill="#424242" fill-rule="evenodd" stroke="none"/>
    <path d="M55.5 -667.8 L55.5 -683.3 65.0 -683.3 65.0 -685.3 78.5 -685.3 78.5 -683.3 88.5 -683.3 88.5 -675.3 96.0 -675.3 96.0 -569.8 90.0 -569.8 90.0 -590.3 82.0 -590.3 82.0 -667.8 55.5 -667.8" fill="#959595" fill-rule="evenodd" stroke="none"/>
    <path d="M-85.5 -674.3 L-74.0 -674.3 -74.0 -677.3 -60.0 -677.3 -60.0 -674.3 -46.5 -674.3 -46.5 -599.3 -70.0 -599.3 -70.0 -568.3 -85.5 -568.3 -85.5 -674.3" fill="#959595" fill-rule="evenodd" stroke="none"/>
    <path d="M62.0 -664.8 L62.0 -670.8 72.0 -670.8 72.0 -664.8 62.0 -664.8" fill="#ffffff" fill-rule="evenodd" stroke="none"/>
    <path d="M-46.5 -656.3 L-46.5 -598.3 -61.0 -598.3 -61.0 -656.3 -46.5 -656.3" fill="#424242" fill-rule="evenodd" stroke="none"/>
    <path d="M-60.0 -598.3 L-60.0 -656.3 -48.5 -656.3 -48.5 -598.3 -60.0 -598.3" fill="#ffffff" fill-rule="evenodd" stroke="none"/>
    <path d="M161.0 -660.8 Q163.5 -640.3 165.5 -620.3 L164.5 -588.3 163.5 -584.3 161.5 -579.8 Q160.5 -577.8 159.0 -576.3 158.0 -574.8 156.5 -573.8 L152.5 -570.8 151.0 -570.8 Q149.0 -572.3 146.5 -573.8 L143.5 -576.8 140.0 -583.8 132.5 -583.8 132.5 -593.3 138.5 -593.3 Q139.0 -615.3 139.0 -637.3 139.5 -638.3 139.5 -639.3 L132.5 -639.3 132.5 -648.3 141.5 -648.3 142.5 -652.8 142.5 -660.8 153.0 -661.8 161.0 -660.8" fill="#424242" fill-rule="evenodd" stroke="none"/>
    <path d="M-150.45 -658.8 L-142.45 -659.8 -131.95 -658.8 -131.95 -650.8 -130.95 -646.3 -121.95 -646.3 -121.95 -637.3 -128.95 -637.3 Q-128.45 -636.3 -128.45 -635.3 L-127.45 -598.8 Q-127.45 -594.8 -127.95 -591.3 L-121.95 -591.3 -121.95 -581.8 -129.45 -581.8 Q-130.95 -578.3 -132.95 -574.8 L-135.95 -571.8 -140.45 -568.8 -141.95 -568.8 -145.95 -571.8 -148.45 -574.3 -150.95 -577.8 -152.95 -582.3 -153.95 -586.3 -154.95 -618.3 Q-152.45 -638.3 -150.45 -658.8" fill="#424242" fill-rule="evenodd" stroke="none"/>
    <path d="M78.5 -742.3 L78.5 -684.8 64.5 -684.8 64.5 -742.3 78.5 -742.3 M-60.5 -734.3 L-60.5 -676.8 -74.0 -676.8 -74.0 -734.3 -60.5 -734.3" fill="#424242" fill-rule="evenodd" stroke="none"/>
    <path d="M-73.0 -676.8 L-73.0 -734.3 -61.5 -734.3 -61.5 -676.8 -73.0 -676.8" fill="#ffffff" fill-rule="evenodd" stroke="none"/>
    <path d="M66.0 -685.3 L66.0 -742.3 77.5 -742.3 77.5 -685.3 66.0 -685.3" fill="#ffffff" fill-rule="evenodd" stroke="none"/>
  </g>
</svg>
