<?xml version="1.0" encoding="UTF-8" standalone="no"?>
<svg xmlns:ffdec="https://www.free-decompiler.com/flash" xmlns:xlink="http://www.w3.org/1999/xlink" ffdec:objectType="shape" height="1768.55px" width="284.95px" xmlns="http://www.w3.org/2000/svg">
  <g transform="matrix(1.0, 0.0, 0.0, 1.0, 137.45, 898.15)">
    <path d="M-135.45 -539.15 L-126.45 -741.15 -104.45 -898.15 113.0 -898.15 Q124.0 -821.65 134.5 -745.15 L144.5 -539.15 147.5 -539.15 Q147.0 -97.65 146.0 343.35 144.0 407.85 141.5 472.35 L126.5 549.85 130.0 549.85 Q128.0 569.35 125.5 588.35 L139.5 653.35 93.5 782.35 Q80.0 806.85 66.0 831.4 58.0 841.4 49.5 850.9 L30.5 864.4 Q26.0 866.9 21.5 868.9 L7.5 870.4 -1.5 870.4 -12.0 867.9 Q-18.0 865.9 -24.0 863.4 L-40.5 849.9 -58.5 830.4 -101.45 738.35 Q-116.45 695.85 -131.95 653.35 -123.45 621.85 -115.45 590.35 -118.45 570.35 -121.95 549.85 L-117.45 549.85 -131.45 472.35 -137.45 343.35 -137.45 -539.15 -135.45 -539.15" fill="#6f6f6f" fill-rule="evenodd" stroke="none"/>
    <path d="M-16.5 -718.65 L-16.5 -790.15 26.0 -790.15 26.0 -718.65 Q26.0 -716.15 25.5 -714.15 25.0 -712.15 24.0 -710.15 L22.0 -707.65 16.0 -703.65 9.0 -702.65 0.0 -702.65 -7.5 -704.15 -12.5 -707.15 Q-13.5 -708.65 -15.0 -710.15 L-16.0 -714.15 Q-16.0 -716.15 -16.5 -718.65" fill="#424242" fill-rule="evenodd" stroke="none"/>
    <path d="M-105.95 -567.65 L-88.0 -567.65 -88.0 -676.15 -45.5 -676.15 -45.5 -695.15 55.0 -695.15 55.0 -684.65 90.0 -684.65 90.0 -676.15 97.0 -676.15 97.0 -567.65 114.5 -567.65 114.5 -503.65 78.0 -503.65 78.0 -501.65 -70.0 -501.65 -70.0 -503.65 -105.95 -503.65 -105.95 -567.65" fill="#424242" fill-rule="evenodd" stroke="none"/>
    <path d="M-1.5 -695.15 L-1.5 -693.65 53.5 -693.65 53.5 -666.15 79.5 -666.15 79.5 -616.65 78.5 -616.65 78.5 -588.15 87.0 -588.15 87.0 -568.15 60.5 -568.15 60.5 -568.65 58.5 -568.65 58.5 -616.65 53.5 -616.65 53.5 -616.15 -23.5 -616.15 -23.5 -568.15 -36.5 -568.15 -36.5 -567.65 -67.5 -567.65 -67.5 -596.15 -60.0 -596.15 -60.0 -598.15 -48.5 -598.15 -48.5 -596.15 -44.0 -596.15 -44.0 -693.65 -18.5 -693.65 -18.5 -695.15 -1.5 -695.15" fill="#959595" fill-rule="evenodd" stroke="none"/>
    <path d="M-11.0 -672.65 L-11.0 -674.15 -7.0 -674.15 -7.0 -672.65 -3.5 -672.65 -3.5 -655.15 -2.5 -655.15 -2.5 -648.15 -3.5 -648.15 -3.5 -644.15 -19.5 -644.15 -19.5 -648.15 -21.0 -648.15 -21.0 -655.15 -19.5 -655.15 -19.5 -672.65 -11.0 -672.65" fill="#424242" fill-rule="evenodd" stroke="none"/>
    <path d="M34.5 -649.15 L6.5 -649.15 6.5 -667.15 34.5 -667.15 34.5 -649.15" fill="#424242" fill-rule="evenodd" stroke="none"/>
    <path d="M3.0 -614.65 L-6.5 -614.65 -6.5 -620.15 3.0 -620.15 3.0 -614.65" fill="#ffffff" fill-rule="evenodd" stroke="none"/>
    <path d="M62.0 -664.15 L62.0 -670.15 72.0 -670.15 72.0 -664.15 62.0 -664.15" fill="#ffffff" fill-rule="evenodd" stroke="none"/>
    <path d="M-46.5 -655.65 L-46.5 -597.65 -61.0 -597.65 -61.0 -655.65 -46.5 -655.65" fill="#424242" fill-rule="evenodd" stroke="none"/>
    <path d="M-60.0 -597.65 L-60.0 -655.65 -48.5 -655.65 -48.5 -597.65 -60.0 -597.65" fill="#ffffff" fill-rule="evenodd" stroke="none"/>
  </g>
</svg>
