<?xml version="1.0" encoding="UTF-8" standalone="no"?>
<svg xmlns:ffdec="https://www.free-decompiler.com/flash" xmlns:xlink="http://www.w3.org/1999/xlink" ffdec:objectType="shape" height="376.0px" width="288.0px" xmlns="http://www.w3.org/2000/svg">
  <g transform="matrix(1.0, 0.0, 0.0, 1.0, 0.0, 0.0)">
    <path d="M169.85 134.75 Q169.85 119.85 160.5 113.75 152.85 108.75 137.15 108.75 L87.0 108.75 65.75 209.05 92.4 209.05 100.15 172.5 117.9 172.5 Q131.15 172.5 131.15 186.05 131.15 192.8 130.4 203.3 130.4 208.95 132.15 211.45 L151.35 231.7 134.9 267.3 170.25 246.3 196.75 266.55 191.75 232.95 222.25 211.7 188.5 211.7 183.1 177.85 163.35 211.45 159.6 211.45 Q156.5 206.05 156.5 198.45 L156.85 179.75 Q156.85 172.35 154.5 168.35 152.0 164.25 146.5 163.0 L146.5 162.75 Q158.25 161.1 164.25 153.5 169.85 146.35 169.85 134.75 M143.75 140.0 Q143.75 153.75 125.75 153.75 L104.65 153.75 109.65 129.6 129.4 129.6 Q143.75 129.6 143.75 140.0 M143.5 216.25 L166.1 216.25 180.35 192.15 184.25 216.5 206.6 216.5 186.5 230.65 190.1 255.25 170.6 240.4 146.0 255.0 157.25 230.75 143.5 216.25 M0.0 0.0 L288.0 0.0 288.0 376.0 0.0 376.0 0.0 0.0" fill="#000000" fill-rule="evenodd" stroke="none"/>
  </g>
</svg>
