<?xml version="1.0" encoding="UTF-8" standalone="no"?>
<svg xmlns:ffdec="https://www.free-decompiler.com/flash" xmlns:xlink="http://www.w3.org/1999/xlink" ffdec:objectType="shape" height="36.5px" width="46.75px" xmlns="http://www.w3.org/2000/svg">
  <g transform="matrix(1.0, 0.0, 0.0, 1.0, 23.35, 18.25)">
    <path d="M-16.7 -5.45 Q-15.35 -6.0 -13.05 -6.0 L-9.45 -5.5 -9.4 -5.45 -9.3 -5.45 Q-8.0 -4.85 -6.65 -3.65 -10.3 -1.7 -12.45 2.15 -14.6 6.0 -14.6 10.6 L-14.5 12.15 Q-20.0 11.6 -23.2 7.7 L-23.35 5.65 Q-23.35 1.9 -21.5 -1.15 -19.7 -4.15 -16.75 -5.45 L-16.7 -5.45 M-13.15 -18.25 Q-11.5 -18.25 -10.15 -17.4 -8.75 -16.55 -8.05 -15.2 -9.55 -13.0 -9.55 -10.25 L-9.3 -8.05 Q-10.9 -6.55 -13.15 -6.55 -15.6 -6.55 -17.3 -8.25 -19.0 -9.95 -19.0 -12.4 -19.0 -14.8 -17.3 -16.5 -15.6 -18.25 -13.15 -18.25 M7.8 -4.5 Q8.5 -5.05 9.45 -5.45 L9.5 -5.45 Q10.85 -6.0 13.15 -6.0 L16.75 -5.5 16.85 -5.45 16.9 -5.45 Q19.8 -4.1 21.6 -1.15 23.4 1.9 23.4 5.65 L23.25 7.7 Q20.25 11.4 15.05 12.1 L15.15 10.6 Q15.15 5.95 12.95 2.1 10.75 -1.8 7.0 -3.75 L7.8 -4.5 M4.75 -2.25 L4.8 -2.2 4.9 -2.2 Q8.25 -0.65 10.3 2.8 12.4 6.35 12.4 10.6 L12.2 13.0 Q10.3 15.4 7.25 16.8 4.1 18.25 0.5 18.25 -3.05 18.25 -6.2 16.8 -9.25 15.4 -11.15 13.0 L-11.35 10.6 Q-11.35 6.25 -9.2 2.75 -7.15 -0.75 -3.75 -2.25 L-3.65 -2.25 Q-2.1 -2.9 0.6 -2.9 3.25 -2.9 4.7 -2.25 L4.75 -2.25 M0.45 -17.0 Q3.25 -17.0 5.2 -15.05 7.2 -13.05 7.2 -10.25 7.2 -7.45 5.2 -5.45 3.25 -3.5 0.45 -3.5 -2.35 -3.5 -4.35 -5.45 -6.3 -7.45 -6.3 -10.25 -6.3 -13.05 -4.35 -15.05 -2.35 -17.0 0.45 -17.0 M17.2 -16.5 Q18.9 -14.8 18.9 -12.4 18.9 -9.95 17.2 -8.25 15.5 -6.55 13.05 -6.55 11.2 -6.55 9.55 -7.7 9.95 -9.0 9.95 -10.25 9.95 -13.2 8.15 -15.55 9.9 -18.25 13.05 -18.25 15.5 -18.25 17.2 -16.5" fill="#ffffff" fill-rule="evenodd" stroke="none"/>
  </g>
</svg>
