<?xml version="1.0" encoding="UTF-8" standalone="no"?>
<svg xmlns:ffdec="https://www.free-decompiler.com/flash" xmlns:xlink="http://www.w3.org/1999/xlink" ffdec:objectType="shape" height="106.0px" width="288.0px" xmlns="http://www.w3.org/2000/svg">
  <g transform="matrix(1.0, 0.0, 0.0, 1.0, 0.0, 0.0)">
    <path d="M163.6 63.4 L161.2 48.55 152.5 63.3 150.85 63.3 Q149.5 60.9 149.5 57.55 L149.65 49.35 Q149.65 46.15 148.6 44.35 147.5 42.55 145.1 42.0 L145.1 41.9 Q150.25 41.2 152.9 37.8 155.4 34.7 155.4 29.55 155.4 23.05 151.25 20.35 147.9 18.15 141.0 18.15 L118.9 18.15 109.55 62.25 121.3 62.25 124.7 46.2 132.5 46.2 Q138.35 46.2 138.35 52.1 L138.0 59.7 Q138.0 62.2 138.8 63.3 L147.25 72.2 140.0 87.85 155.55 78.65 167.2 87.55 165.0 72.75 178.45 63.4 163.6 63.4 M162.7 71.75 L164.3 82.6 155.7 76.05 144.9 82.5 149.85 71.8 143.8 65.45 153.75 65.45 160.0 54.8 161.7 65.55 171.55 65.55 162.7 71.75 M288.0 106.0 L0.0 106.0 0.0 0.0 288.0 0.0 288.0 106.0 M126.7 37.95 L128.9 27.3 137.55 27.3 Q143.9 27.3 143.9 31.9 143.9 37.95 135.95 37.95 L126.7 37.95" fill="#000000" fill-rule="evenodd" stroke="none"/>
  </g>
</svg>
