<?xml version="1.0" encoding="UTF-8" standalone="no"?>
<svg xmlns:ffdec="https://www.free-decompiler.com/flash" xmlns:xlink="http://www.w3.org/1999/xlink" ffdec:objectType="shape" height="214.0px" width="288.0px" xmlns="http://www.w3.org/2000/svg">
  <g transform="matrix(1.0, 0.0, 0.0, 1.0, 0.0, 0.0)">
    <path d="M194.1 128.8 L178.0 140.1 180.9 159.8 165.3 147.9 145.6 159.6 154.6 140.2 143.6 128.6 161.7 128.6 173.1 109.3 176.2 128.8 194.1 128.8 M186.2 168.8 L182.2 141.9 206.6 124.9 179.6 124.9 175.3 97.9 159.5 124.7 156.5 124.7 Q154.0 120.4 154.0 114.3 L154.3 99.4 Q154.3 93.5 152.4 90.3 150.4 87.0 146.0 86.0 L146.0 85.8 Q155.4 84.5 160.2 78.4 164.7 72.7 164.7 63.4 164.7 51.5 157.2 46.6 151.1 42.6 138.5 42.6 L98.4 42.6 81.4 122.8 102.7 122.8 108.9 93.6 123.1 93.6 Q133.7 93.6 133.7 104.4 133.7 109.8 133.1 118.2 133.1 122.7 134.5 124.7 L149.9 140.9 136.7 169.4 165.0 152.6 186.2 168.8 M116.5 59.3 L132.3 59.3 Q143.8 59.3 143.8 67.6 143.8 78.6 129.4 78.6 L112.5 78.6 116.5 59.3 M288.0 0.0 L288.0 214.0 0.0 214.0 0.0 0.0 288.0 0.0" fill="#000000" fill-rule="evenodd" stroke="none"/>
  </g>
</svg>
