<?xml version="1.0" encoding="UTF-8" standalone="no"?>
<svg xmlns:ffdec="https://www.free-decompiler.com/flash" xmlns:xlink="http://www.w3.org/1999/xlink" ffdec:objectType="shape" height="430.0px" width="288.0px" xmlns="http://www.w3.org/2000/svg">
  <g transform="matrix(1.0, 0.0, 0.0, 1.0, 0.0, 0.0)">
    <path d="M169.85 161.75 Q169.85 146.9 160.5 140.75 152.85 135.75 137.15 135.75 L87.0 135.75 65.75 236.0 92.4 236.0 100.15 199.5 117.9 199.5 Q131.15 199.5 131.15 213.0 131.15 219.75 130.4 230.25 130.4 235.85 132.15 238.35 L151.35 258.6 134.9 294.25 170.25 273.25 196.75 293.5 191.75 259.85 222.25 238.6 188.5 238.6 183.1 204.9 163.35 238.35 159.6 238.35 Q156.5 233.0 156.5 225.35 L156.85 206.75 Q156.85 199.4 154.5 195.4 152.0 191.25 146.5 190.0 L146.5 189.75 Q158.25 188.15 164.25 180.5 169.85 173.4 169.85 161.75 M109.65 156.65 L129.4 156.65 Q143.75 156.65 143.75 167.0 143.75 180.75 125.75 180.75 L104.65 180.75 109.65 156.65 M157.25 257.75 L143.5 243.25 166.1 243.25 180.35 219.1 184.25 243.5 206.6 243.5 186.5 257.6 190.1 282.25 170.6 267.35 146.0 282.0 157.25 257.75 M288.0 0.0 L288.0 430.0 0.0 430.0 0.0 0.0 288.0 0.0" fill="#000000" fill-rule="evenodd" stroke="none"/>
  </g>
</svg>
