<?xml version="1.0" encoding="UTF-8" standalone="no"?>
<svg xmlns:ffdec="https://www.free-decompiler.com/flash" xmlns:xlink="http://www.w3.org/1999/xlink" ffdec:objectType="shape" height="139.0px" width="112.0px" xmlns="http://www.w3.org/2000/svg">
  <g transform="matrix(1.0, 0.0, 0.0, 1.0, 91.15, 103.95)">
    <path d="M20.85 -103.95 L20.85 35.05 -91.15 35.05 -91.15 -103.95 20.85 -103.95" fill="#424242" fill-rule="evenodd" stroke="none"/>
    <path d="M-43.15 -97.45 L-43.15 -66.95 -46.65 -66.95 -46.65 -62.95 -58.65 -62.95 -58.65 -59.45 -46.65 -59.45 -46.65 -54.95 -43.15 -54.95 -43.15 -62.45 -6.15 -62.45 -6.15 -51.45 -3.15 -51.45 -3.15 -61.95 18.35 -61.95 18.35 32.55 -33.65 32.55 -33.65 35.05 -59.15 35.05 -59.15 32.55 -87.15 32.55 -87.15 -3.45 -72.15 -3.45 -72.15 -1.95 -8.15 -1.95 -8.15 -13.45 -11.65 -13.45 -11.65 -9.95 -72.15 -9.95 -72.15 -10.45 -87.65 -10.45 -87.65 -27.45 -11.65 -27.45 -11.65 -23.95 -8.15 -23.95 -8.15 -27.45 -3.15 -27.45 -3.15 -38.45 -6.15 -38.45 -6.15 -34.45 -43.15 -34.45 -43.15 -38.95 -46.65 -38.95 -46.65 -34.95 -76.15 -34.95 -76.15 -38.95 -83.15 -38.95 -83.15 -59.45 -75.65 -59.45 -75.65 -62.95 -85.65 -62.95 -85.65 -66.95 -89.15 -66.95 -89.15 -97.45 -85.65 -97.45 -85.65 -101.45 -46.65 -101.45 -46.65 -97.45 -43.15 -97.45" fill="#959595" fill-rule="evenodd" stroke="none"/>
    <path d="M-11.15 -3.45 L-11.15 -1.95 -72.15 -1.95 -72.15 -3.45 -11.15 -3.45" fill="#6f6f6f" fill-rule="evenodd" stroke="none"/>
    <path d="M-72.15 -6.45 L-72.15 -9.95 -11.65 -9.95 -11.65 -6.45 -72.15 -6.45" fill="#6f6f6f" fill-rule="evenodd" stroke="none"/>
    <path d="M-32.65 -31.95 L-32.65 -27.45 -81.65 -27.45 -81.65 -31.95 -32.65 -31.95" fill="#6f6f6f" fill-rule="evenodd" stroke="none"/>
    <path d="M-86.15 21.55 L-86.15 16.55 -80.65 16.55 -80.65 21.55 -86.15 21.55" fill="#6f6f6f" fill-rule="evenodd" stroke="none"/>
    <path d="M-13.15 32.55 L-13.15 27.05 -7.65 27.05 -7.65 32.55 -13.15 32.55" fill="#6f6f6f" fill-rule="evenodd" stroke="none"/>
    <path d="M-6.15 32.55 L-6.15 27.05 -0.65 27.05 -0.65 32.55 -6.15 32.55" fill="#6f6f6f" fill-rule="evenodd" stroke="none"/>
    <path d="M1.35 32.55 L1.35 27.05 6.85 27.05 6.85 32.55 1.35 32.55" fill="#6f6f6f" fill-rule="evenodd" stroke="none"/>
    <path d="M12.85 17.55 L12.85 12.55 18.35 12.55 18.35 17.55 12.85 17.55" fill="#6f6f6f" fill-rule="evenodd" stroke="none"/>
    <path d="M-81.15 10.55 L-81.15 16.05 -86.65 16.05 -86.65 10.55 -81.15 10.55" fill="#6f6f6f" fill-rule="evenodd" stroke="none"/>
    <path d="M-86.15 4.55 L-81.15 4.05 Q-80.65 7.05 -80.65 9.55 L-85.65 10.05 Q-85.65 7.55 -86.15 4.55" fill="#6f6f6f" fill-rule="evenodd" stroke="none"/>
    <path d="M12.35 -6.95 L12.35 -18.95 18.35 -18.95 18.35 -6.95 14.35 -6.95 17.35 -2.95 Q15.85 -1.45 13.85 -0.45 L10.85 -4.45 Q12.35 -5.45 13.85 -6.95 L12.35 -6.95" fill="#6f6f6f" fill-rule="evenodd" stroke="none"/>
    <path d="M12.85 -19.45 L12.85 -24.95 18.35 -24.95 18.35 -19.45 12.85 -19.45" fill="#6f6f6f" fill-rule="evenodd" stroke="none"/>
    <path d="M12.35 -25.45 L12.35 -30.95 18.35 -30.95 18.35 -25.45 12.35 -25.45" fill="#6f6f6f" fill-rule="evenodd" stroke="none"/>
    <path d="M12.85 -31.95 L12.85 -37.45 18.35 -37.45 18.35 -31.95 12.85 -31.95" fill="#6f6f6f" fill-rule="evenodd" stroke="none"/>
    <path d="M12.35 -43.45 L18.35 -43.45 18.35 -37.95 12.35 -37.95 12.35 -43.45" fill="#6f6f6f" fill-rule="evenodd" stroke="none"/>
    <path d="M-26.15 -40.45 L-14.15 -40.45 -14.15 -34.95 -26.15 -34.95 -26.15 -40.45" fill="#6f6f6f" fill-rule="evenodd" stroke="none"/>
    <path d="M-6.15 -61.95 L-6.15 -55.95 -12.15 -55.95 -12.15 -61.95 -6.15 -61.95" fill="#6f6f6f" fill-rule="evenodd" stroke="none"/>
    <path d="M-13.15 -60.95 L-13.15 -57.45 -17.15 -57.45 -17.15 -60.95 -13.15 -60.95" fill="#6f6f6f" fill-rule="evenodd" stroke="none"/>
    <path d="M-20.65 -61.95 L-20.65 -59.95 -33.15 -59.95 -33.15 -61.95 -20.65 -61.95" fill="#6f6f6f" fill-rule="evenodd" stroke="none"/>
    <path d="M-82.65 -25.95 L-82.65 -23.45 -79.15 -23.45 -79.15 -13.95 -81.65 -13.95 -81.65 -10.95 -85.15 -10.95 -85.15 -13.95 -86.15 -13.95 -86.15 -18.45 -87.15 -18.45 -87.15 -22.45 -86.15 -22.45 -86.15 -23.45 -84.65 -23.45 -84.65 -25.95 -82.65 -25.95" fill="#6f6f6f" fill-rule="evenodd" stroke="none"/>
    <path d="M-33.65 35.05 L-59.15 35.05 -59.15 32.55 -33.65 32.55 -33.65 35.05" fill="#ffffff" fill-rule="evenodd" stroke="none"/>
  </g>
</svg>
