<?xml version="1.0" encoding="UTF-8" standalone="no"?>
<svg xmlns:ffdec="https://www.free-decompiler.com/flash" xmlns:xlink="http://www.w3.org/1999/xlink" ffdec:objectType="shape" height="999.15px" width="1028.55px" xmlns="http://www.w3.org/2000/svg">
  <g transform="matrix(1.0, 0.0, 0.0, 1.0, 268.75, 445.1)">
    <path d="M579.0 -445.1 L590.1 -423.8 691.25 -386.85 687.75 -371.45 691.65 -369.0 705.05 -358.0 716.95 -345.4 727.15 -331.35 735.45 -316.1 741.7 -299.95 745.9 -283.1 747.85 -265.85 747.6 -248.5 746.75 -242.55 759.8 -239.25 718.75 -126.1 652.05 -95.2 525.5 -141.75 494.2 -132.4 483.55 -175.05 368.4 -144.2 357.4 -185.15 46.9 -102.35 47.5 -100.05 56.6 -96.35 69.0 -89.6 80.55 -81.4 91.05 -71.95 100.4 -61.3 108.45 -49.65 114.7 -37.9 120.2 -20.55 125.2 10.45 125.4 25.55 124.8 31.95 121.85 45.75 117.35 59.15 111.3 71.95 103.8 83.95 94.95 95.0 84.9 104.95 81.1 107.9 163.75 419.85 48.6 450.75 47.5 446.7 -127.95 493.7 -120.05 523.15 -235.3 554.05 -268.75 429.35 22.85 354.65 15.25 326.35 37.1 320.5 -13.8 133.6 -35.3 128.5 -47.5 123.55 -59.95 116.8 -71.45 108.6 -82.0 99.15 -91.35 88.5 -105.3 67.45 -113.3 46.45 -116.7 23.5 -117.05 9.35 -115.75 -4.7 -112.8 -18.55 -108.25 -31.95 -102.2 -44.75 -94.7 -56.75 -87.35 -66.0 -72.45 -80.4 -93.8 -166.5 -93.75 -166.5 -94.0 -167.4 494.2 -323.75 515.95 -386.9 503.5 -411.8 579.0 -445.1" fill="#434343" fill-rule="evenodd" stroke="none"/>
    <path d="M371.3 -249.25 L368.75 -258.85 430.55 -275.75 436.85 -251.75 432.25 -250.75 438.7 -226.65 447.45 -228.65 476.9 -236.9 476.1 -239.85 497.75 -245.65 485.5 -291.25 510.1 -282.1 511.15 -287.2 515.6 -299.95 519.15 -307.05 543.8 -375.75 551.9 -379.3 544.4 -397.05 565.65 -407.3 573.85 -390.2 583.15 -394.4 656.15 -367.75 653.8 -357.4 654.6 -355.45 662.65 -351.75 674.1 -344.6 684.55 -336.05 693.8 -326.2 701.7 -315.3 708.15 -303.45 713.05 -290.85 716.3 -277.75 717.85 -264.35 717.65 -250.85 715.75 -237.5 712.15 -224.5 710.55 -220.75 720.3 -218.3 694.8 -148.05 650.15 -127.4 630.8 -133.75 635.15 -144.55 531.5 -182.4 527.05 -172.45 518.05 -170.0 505.1 -218.3 483.45 -212.45 482.8 -214.9 444.6 -204.6 446.85 -196.25 389.6 -180.95 376.95 -228.2 8.55 -129.5 17.8 -95.1 -9.55 -87.75 -6.75 -77.25 2.4 -78.0 13.05 -77.6 23.6 -76.0 33.85 -73.2 43.75 -69.2 53.1 -64.1 61.75 -57.95 69.7 -50.8 76.7 -42.8 82.8 -34.05 87.8 -24.65 91.65 -14.7 94.35 -4.4 95.85 6.15 96.1 16.8 95.1 27.4 92.9 37.8 89.5 47.9 84.9 57.55 79.3 66.6 72.6 74.9 65.05 82.4 56.65 88.95 47.55 94.5 40.2 97.85 103.4 333.75 109.2 332.2 127.0 398.65 69.8 414.0 67.0 403.55 -166.4 466.1 -156.8 501.95 -214.1 517.3 -223.6 481.9 -234.15 484.75 -240.0 462.9 -229.45 460.1 -232.0 450.6 -174.65 435.25 -172.05 445.05 61.35 382.55 52.0 347.55 80.95 339.8 17.8 104.2 17.3 104.3 6.65 105.2 -3.95 104.8 -14.5 103.2 -24.8 100.4 -34.65 96.4 -44.0 91.3 -52.7 85.15 -60.6 78.0 -67.65 70.0 -73.7 61.25 -78.7 51.85 -82.6 41.9 -85.3 31.6 -86.75 21.05 -87.0 10.4 -86.05 -0.2 -83.8 -10.6 -80.4 -20.7 -75.85 -30.35 -70.2 -39.35 -63.55 -47.7 -55.95 -55.2 -47.6 -61.75 -38.5 -67.3 -29.25 -71.5 -32.0 -81.75 -39.45 -79.75 -57.25 -146.2 0.0 -161.5 2.9 -150.55 371.3 -249.25" fill="#969696" fill-rule="evenodd" stroke="none"/>
    <path d="M-165.45 436.2 L56.8 376.65 58.5 383.15 -163.45 442.75 -165.45 436.2" fill="#707070" fill-rule="evenodd" stroke="none"/>
    <path d="M18.7 107.7 L78.15 329.45 71.15 331.55 11.6 109.3 18.7 107.7" fill="#707070" fill-rule="evenodd" stroke="none"/>
    <path d="M47.95 100.1 L107.5 322.35 100.8 324.15 41.2 101.8 47.95 100.1" fill="#707070" fill-rule="evenodd" stroke="none"/>
    <path d="M-157.75 463.85 L64.15 404.4 65.85 410.75 -156.05 470.2 -157.75 463.85" fill="#707070" fill-rule="evenodd" stroke="none"/>
    <path d="M368.2 -248.4 L8.75 -152.95 7.05 -159.3 366.2 -255.5 368.2 -248.4" fill="#707070" fill-rule="evenodd" stroke="none"/>
    <path d="M375.35 -221.0 L16.55 -125.3 14.85 -131.65 373.5 -227.45 375.35 -221.0" fill="#707070" fill-rule="evenodd" stroke="none"/>
    <path d="M454.75 -207.3 L482.8 -214.9 484.7 -207.9 456.55 -200.55 454.75 -207.3" fill="#707070" fill-rule="evenodd" stroke="none"/>
    <path d="M445.7 -235.9 L475.15 -243.45 476.9 -236.9 447.45 -228.65 445.7 -235.9" fill="#707070" fill-rule="evenodd" stroke="none"/>
    <path d="M23.95 -62.3 L5.7 -62.8 3.45 -60.8 1.2 -61.05 1.7 -71.8 24.45 -70.8 23.95 -62.3" fill="#707070" fill-rule="evenodd" stroke="none"/>
    <path d="M-206.1 450.3 L-219.25 462.4 -222.65 458.7 -209.5 446.6 -206.1 450.3" fill="#707070" fill-rule="evenodd" stroke="none"/>
    <path d="M-170.45 469.65 L-163.1 485.95 -167.65 488.0 -175.0 471.7 -170.45 469.65" fill="#707070" fill-rule="evenodd" stroke="none"/>
    <path d="M-190.2 440.2 L-188.9 444.25 -204.55 449.45 -205.9 445.4 -190.2 440.2" fill="#707070" fill-rule="evenodd" stroke="none"/>
    <path d="M-207.8 509.25 L-188.3 504.05 -186.95 509.05 -206.45 514.25 -207.8 509.25" fill="#707070" fill-rule="evenodd" stroke="none"/>
    <path d="M-217.55 484.05 L-222.7 485.45 -224.05 480.45 -218.9 479.05 -217.55 484.05" fill="#707070" fill-rule="evenodd" stroke="none"/>
    <path d="M-223.45 461.7 L-228.65 463.1 -229.95 458.1 -224.8 456.7 -223.45 461.7" fill="#707070" fill-rule="evenodd" stroke="none"/>
    <path d="M-165.7 470.4 L-170.9 471.75 -172.2 466.75 -167.05 465.4 -165.7 470.4" fill="#707070" fill-rule="evenodd" stroke="none"/>
    <path d="M-171.65 448.05 L-176.8 449.45 -178.15 444.45 -172.95 443.05 -171.65 448.05" fill="#707070" fill-rule="evenodd" stroke="none"/>
    <path d="M-158.05 501.1 L-182.95 507.75 -184.4 502.3 -159.5 495.65 -158.05 501.1" fill="#707070" fill-rule="evenodd" stroke="none"/>
    <path d="M-173.35 441.1 L-187.3 444.8 -188.8 439.35 -174.85 435.65 -173.35 441.1" fill="#707070" fill-rule="evenodd" stroke="none"/>
    <path d="M394.25 -260.2 L381.1 -248.1 377.7 -251.75 390.85 -263.85 394.25 -260.2" fill="#707070" fill-rule="evenodd" stroke="none"/>
    <path d="M388.0 -221.55 L391.35 -205.35 383.75 -203.8 380.4 -219.95 388.0 -221.55" fill="#707070" fill-rule="evenodd" stroke="none"/>
    <path d="M382.8 -226.45 L377.65 -225.05 376.3 -230.05 381.45 -231.4 382.8 -226.45" fill="#707070" fill-rule="evenodd" stroke="none"/>
    <path d="M376.9 -248.75 L371.7 -247.4 370.4 -252.35 375.55 -253.75 376.9 -248.75" fill="#707070" fill-rule="evenodd" stroke="none"/>
    <path d="M445.2 -202.0 L440.05 -200.65 438.7 -205.6 443.85 -207.0 445.2 -202.0" fill="#707070" fill-rule="evenodd" stroke="none"/>
    <path d="M439.3 -224.35 L434.1 -222.95 432.8 -227.95 437.95 -229.35 439.3 -224.35" fill="#707070" fill-rule="evenodd" stroke="none"/>
    <path d="M438.4 -202.65 L422.75 -190.3 419.25 -194.75 434.9 -207.1 438.4 -202.65" fill="#707070" fill-rule="evenodd" stroke="none"/>
    <path d="M421.8 -264.55 L416.65 -263.2 415.3 -268.1 420.45 -269.5 421.8 -264.55" fill="#707070" fill-rule="evenodd" stroke="none"/>
    <path d="M412.85 -263.85 L405.15 -261.8 404.3 -264.85 412.05 -266.95 412.85 -263.85" fill="#707070" fill-rule="evenodd" stroke="none"/>
    <path d="M11.55 -110.7 L7.0 -108.6 -0.4 -124.9 4.15 -126.95 11.55 -110.7" fill="#707070" fill-rule="evenodd" stroke="none"/>
    <path d="M-21.1 -150.55 L-36.8 -145.35 -38.1 -149.4 -22.45 -154.6 -21.1 -150.55" fill="#707070" fill-rule="evenodd" stroke="none"/>
    <path d="M-32.55 -86.55 L-44.75 -102.6 -40.65 -105.75 -28.45 -89.65 -32.55 -86.55" fill="#707070" fill-rule="evenodd" stroke="none"/>
    <path d="M8.9 -126.25 L3.75 -124.85 2.4 -129.85 7.55 -131.25 8.9 -126.25" fill="#707070" fill-rule="evenodd" stroke="none"/>
    <path d="M-30.1 -82.25 L-35.25 -80.85 -36.6 -85.85 -31.45 -87.25 -30.1 -82.25" fill="#707070" fill-rule="evenodd" stroke="none"/>
    <path d="M-7.9 -88.1 L-13.05 -86.7 -14.4 -91.7 -9.2 -93.1 -7.9 -88.1" fill="#707070" fill-rule="evenodd" stroke="none"/>
    <path d="M3.0 -148.6 L-2.2 -147.2 -3.5 -152.2 1.65 -153.55 3.0 -148.6" fill="#707070" fill-rule="evenodd" stroke="none"/>
    <path d="M16.6 -95.55 L-8.35 -88.85 -9.8 -94.3 15.1 -101.0 16.6 -95.55" fill="#707070" fill-rule="evenodd" stroke="none"/>
    <path d="M-36.8 -143.95 L-55.4 -138.95 -57.05 -145.25 -38.45 -150.25 -36.8 -143.95" fill="#707070" fill-rule="evenodd" stroke="none"/>
    <path d="M-42.65 -113.3 L-48.0 -111.9 -54.95 -137.7 -49.6 -139.15 -42.65 -113.3" fill="#707070" fill-rule="evenodd" stroke="none"/>
    <path d="M551.65 -365.1 L544.7 -341.5 535.9 -344.1 542.8 -367.65 551.65 -365.1" fill="#707070" fill-rule="evenodd" stroke="none"/>
    <path d="M586.75 -379.8 L589.65 -388.5 612.95 -380.7 610.05 -372.0 586.75 -379.8" fill="#707070" fill-rule="evenodd" stroke="none"/>
    <path d="M643.8 -356.9 L618.1 -365.5 621.5 -375.65 647.2 -367.05 643.8 -356.9" fill="#707070" fill-rule="evenodd" stroke="none"/>
    <path d="M626.65 -318.4 L622.7 -318.8 624.5 -336.0 628.5 -335.55 626.65 -318.4" fill="#707070" fill-rule="evenodd" stroke="none"/>
    <path d="M537.15 -256.5 L554.05 -259.95 554.85 -256.0 537.95 -252.6 537.15 -256.5" fill="#707070" fill-rule="evenodd" stroke="none"/>
    <path d="M622.3 -203.75 L626.15 -204.85 630.85 -188.25 627.05 -187.15 622.3 -203.75" fill="#707070" fill-rule="evenodd" stroke="none"/>
    <path d="M595.4 -271.6 L596.85 -273.7 600.5 -277.25 602.65 -278.65 607.35 -280.55 612.4 -281.2 617.45 -280.55 619.85 -279.75 622.15 -278.65 624.3 -277.25 626.25 -275.6 627.95 -273.7 629.4 -271.6 631.45 -266.95 632.25 -261.95 632.2 -259.4 631.05 -254.45 630.0 -252.1 628.7 -249.95 627.1 -247.95 625.3 -246.2 623.25 -244.65 621.0 -243.4 616.2 -241.8 611.15 -241.5 608.6 -241.8 603.8 -243.4 601.55 -244.65 599.5 -246.2 597.7 -247.95 596.1 -249.95 594.8 -252.1 593.75 -254.45 592.6 -259.4 592.8 -264.5 593.35 -266.95 595.4 -271.6" fill="#434343" fill-rule="evenodd" stroke="none"/>
    <path d="M626.9 -335.65 L626.8 -339.7 632.8 -338.55 642.5 -335.35 651.7 -330.9 660.25 -325.3 668.05 -318.7 674.9 -311.15 680.75 -302.75 685.5 -293.7 689.0 -284.1 691.3 -274.15 692.25 -264.0 691.95 -253.75 690.3 -243.7 687.4 -233.9 683.25 -224.55 677.95 -215.8 671.6 -207.8 664.25 -200.7 656.05 -194.6 647.15 -189.6 645.45 -193.2 653.9 -197.95 661.65 -203.75 668.65 -210.5 674.7 -218.1 679.7 -226.4 683.65 -235.25 686.4 -244.55 687.95 -254.15 688.25 -263.85 687.35 -273.5 685.15 -282.95 681.8 -292.05 677.35 -300.7 671.8 -308.65 665.25 -315.8 657.85 -322.1 649.75 -327.4 641.0 -331.6 631.8 -334.65 626.9 -335.65 M537.75 -233.9 L536.95 -236.6 540.8 -237.65 541.5 -235.25 545.45 -226.4 550.45 -218.1 556.5 -210.5 563.5 -203.75 571.25 -197.95 579.7 -193.2 588.7 -189.55 598.1 -187.1 607.7 -185.85 617.4 -185.85 627.05 -187.1 627.8 -183.15 617.7 -181.85 607.45 -181.85 597.35 -183.15 587.45 -185.75 578.0 -189.6 569.05 -194.6 560.9 -200.7 553.55 -207.8 547.15 -215.8 541.9 -224.55 537.75 -233.9 M550.25 -311.15 L557.1 -318.7 564.9 -325.3 573.45 -330.9 Q578.05 -333.1 582.65 -335.35 L592.35 -338.55 602.4 -340.5 608.65 -340.9 609.05 -336.95 602.9 -336.55 593.35 -334.65 584.15 -331.6 575.4 -327.4 567.3 -322.1 559.9 -315.8 553.35 -308.65 547.8 -300.7 543.3 -292.05 539.95 -282.95 537.8 -273.5 536.9 -263.85 537.3 -257.05 533.1 -256.55 532.9 -264.0 533.85 -274.15 536.15 -284.1 539.65 -293.7 544.4 -302.75 550.25 -311.15" fill="#434343" fill-rule="evenodd" stroke="none"/>
    <path d="M685.45 -184.65 L688.85 -184.65 692.2 -183.75 693.75 -183.0 696.5 -180.95 697.65 -179.7 699.45 -176.75 700.05 -175.15 700.4 -173.45 700.5 -170.0 700.25 -168.35 699.05 -165.1 697.1 -162.3 694.5 -160.05 693.0 -159.2 691.4 -158.55 688.0 -157.9 686.3 -157.9 682.9 -158.55 679.85 -160.05 677.2 -162.3 675.25 -165.1 674.05 -168.35 673.8 -170.0 673.9 -173.45 674.85 -176.75 676.65 -179.7 677.8 -180.95 680.55 -183.0 682.1 -183.75 685.45 -184.65" fill="#434343" fill-rule="evenodd" stroke="none"/>
    <path d="M708.1 -196.15 L706.85 -194.75 705.25 -193.75 703.4 -193.35 701.55 -193.5 699.8 -194.25 698.35 -195.5 697.4 -197.1 697.0 -198.95 697.15 -200.85 697.9 -202.6 699.15 -204.0 700.75 -204.95 702.6 -205.4 704.5 -205.2 706.2 -204.45 707.65 -203.25 708.6 -201.6 709.05 -199.75 708.85 -197.9 708.1 -196.15" fill="#434343" fill-rule="evenodd" stroke="none"/>
    <path d="M696.3 -191.2 L695.9 -190.75 695.4 -190.45 694.8 -190.35 694.2 -190.4 693.65 -190.6 693.2 -191.0 692.9 -191.5 692.8 -192.1 692.85 -192.7 693.05 -193.25 693.45 -193.7 693.95 -194.0 694.55 -194.1 695.15 -194.05 695.7 -193.85 696.15 -193.45 696.45 -192.95 696.55 -192.35 696.5 -191.75 696.3 -191.2" fill="#434343" fill-rule="evenodd" stroke="none"/>
    <path d="M644.05 -357.25 L644.1 -357.85 644.3 -358.4 644.7 -358.85 645.2 -359.15 645.8 -359.3 646.4 -359.25 646.95 -359.0 647.4 -358.6 647.7 -358.1 647.8 -357.5 647.75 -356.9 647.55 -356.4 647.15 -355.95 646.65 -355.65 646.05 -355.5 645.45 -355.55 Q645.2 -355.65 644.9 -355.8 L644.45 -356.15 644.15 -356.7 644.05 -357.25" fill="#434343" fill-rule="evenodd" stroke="none"/>
    <path d="M650.2 -368.55 L650.65 -368.2 650.95 -367.65 651.05 -367.1 651.0 -366.5 650.8 -365.95 650.4 -365.5 649.9 -365.2 649.3 -365.1 648.7 -365.15 648.15 -365.35 647.7 -365.75 647.4 -366.25 647.3 -366.85 647.35 -367.45 647.55 -368.0 647.95 -368.45 648.45 -368.75 649.05 -368.85 649.65 -368.8 650.2 -368.55" fill="#434343" fill-rule="evenodd" stroke="none"/>
    <path d="M619.55 -379.0 L620.15 -379.1 620.7 -379.05 621.25 -378.8 621.7 -378.45 622.0 -377.9 622.15 -377.35 622.1 -376.75 621.85 -376.2 621.45 -375.75 620.95 -375.45 620.4 -375.35 619.8 -375.4 619.25 -375.6 618.8 -376.0 618.5 -376.5 618.35 -377.1 618.4 -377.7 618.65 -378.25 619.05 -378.7 619.55 -379.0" fill="#434343" fill-rule="evenodd" stroke="none"/>
    <path d="M618.2 -369.25 L618.5 -368.75 618.65 -368.2 618.6 -367.6 618.35 -367.05 617.95 -366.6 617.45 -366.3 616.9 -366.15 616.3 -366.2 615.75 -366.45 615.3 -366.85 615.0 -367.35 614.85 -367.95 614.9 -368.5 615.15 -369.05 615.55 -369.5 616.05 -369.8 616.65 -369.95 617.2 -369.9 617.75 -369.65 618.2 -369.25" fill="#434343" fill-rule="evenodd" stroke="none"/>
    <path d="M612.2 -371.8 L612.75 -371.55 613.2 -371.2 613.5 -370.65 613.65 -370.1 613.6 -369.5 613.35 -368.95 612.95 -368.5 612.45 -368.2 611.9 -368.1 611.3 -368.15 610.75 -368.35 610.3 -368.75 610.0 -369.25 609.85 -369.85 609.9 -370.45 610.15 -371.0 610.55 -371.45 611.05 -371.75 611.65 -371.85 612.2 -371.8" fill="#434343" fill-rule="evenodd" stroke="none"/>
    <path d="M615.9 -380.8 L616.45 -380.55 616.9 -380.2 617.2 -379.65 617.3 -379.1 617.25 -378.5 617.05 -377.95 616.65 -377.5 616.15 -377.2 615.55 -377.1 614.95 -377.15 614.4 -377.35 613.95 -377.75 613.65 -378.25 613.55 -378.85 613.6 -379.45 613.8 -380.0 614.2 -380.45 614.7 -380.75 615.3 -380.85 615.9 -380.8" fill="#434343" fill-rule="evenodd" stroke="none"/>
    <path d="M588.15 -390.8 L588.45 -390.3 588.55 -389.7 588.5 -389.15 588.3 -388.6 587.9 -388.15 587.4 -387.85 586.8 -387.7 586.2 -387.75 585.65 -388.0 585.2 -388.4 584.9 -388.9 584.8 -389.45 584.85 -390.05 585.05 -390.6 585.45 -391.05 585.95 -391.35 586.55 -391.5 587.15 -391.45 Q587.45 -391.3 587.7 -391.2 L588.15 -390.8" fill="#434343" fill-rule="evenodd" stroke="none"/>
    <path d="M584.5 -381.7 L584.8 -381.15 584.95 -380.6 584.9 -380.0 584.65 -379.45 584.25 -379.0 583.75 -378.7 583.15 -378.6 582.6 -378.65 582.05 -378.85 581.6 -379.25 581.3 -379.75 581.15 -380.35 581.2 -380.95 581.45 -381.5 581.85 -381.95 582.35 -382.25 582.9 -382.35 583.5 -382.3 584.05 -382.05 584.5 -381.7" fill="#434343" fill-rule="evenodd" stroke="none"/>
    <path d="M555.15 -368.95 Q555.45 -368.8 555.7 -368.7 L556.15 -368.3 556.45 -367.8 556.55 -367.2 556.5 -366.65 556.3 -366.1 555.9 -365.65 555.4 -365.35 554.8 -365.2 554.2 -365.25 553.65 -365.5 553.2 -365.9 552.9 -366.4 552.8 -366.95 552.85 -367.55 553.05 -368.1 553.45 -368.55 553.95 -368.85 554.55 -369.0 555.15 -368.95" fill="#434343" fill-rule="evenodd" stroke="none"/>
    <path d="M543.65 -369.9 L543.55 -370.45 543.6 -371.05 543.8 -371.6 544.2 -372.05 544.7 -372.35 545.3 -372.5 545.9 -372.45 Q546.2 -372.3 546.45 -372.2 L546.9 -371.8 547.2 -371.3 547.3 -370.7 547.25 -370.15 547.05 -369.6 546.65 -369.15 546.15 -368.85 545.55 -368.7 544.95 -368.75 544.4 -369.0 543.95 -369.4 543.65 -369.9" fill="#434343" fill-rule="evenodd" stroke="none"/>
    <path d="M536.7 -341.7 L536.65 -341.15 536.4 -340.6 536.0 -340.15 535.5 -339.85 534.9 -339.7 534.35 -339.75 533.8 -340.0 533.35 -340.4 533.05 -340.9 532.9 -341.45 532.95 -342.05 533.2 -342.6 533.6 -343.05 534.1 -343.35 534.65 -343.5 535.25 -343.45 535.8 -343.2 536.25 -342.8 536.55 -342.3 536.7 -341.7" fill="#434343" fill-rule="evenodd" stroke="none"/>
    <path d="M545.8 -338.2 L545.75 -337.65 545.55 -337.1 545.15 -336.65 544.65 -336.35 544.05 -336.2 543.45 -336.25 542.9 -336.5 542.45 -336.9 542.15 -337.4 542.05 -337.95 542.1 -338.55 542.3 -339.1 542.7 -339.55 543.2 -339.85 543.8 -340.0 544.4 -339.95 544.95 -339.7 545.4 -339.3 545.7 -338.8 545.8 -338.2" fill="#434343" fill-rule="evenodd" stroke="none"/>
    <path d="M-17.4 48.85 L-17.9 49.4 -18.5 49.75 -19.25 49.95 -19.95 49.85 -20.65 49.55 -21.2 49.1 -21.6 48.45 -21.75 47.7 -21.7 47.0 -21.4 46.3 -20.9 45.75 -20.25 45.35 -19.55 45.2 -18.8 45.25 -18.15 45.55 -17.55 46.05 -17.2 46.7 -17.05 47.4 -17.1 48.15 -17.4 48.85" fill="#434343" fill-rule="evenodd" stroke="none"/>
    <path d="M2.1 11.9 L2.75 11.55 3.45 11.35 4.2 11.45 4.85 11.75 5.45 12.2 5.8 12.85 5.95 13.55 5.9 14.3 5.6 15.0 5.1 15.55 4.5 15.95 3.75 16.1 3.05 16.05 2.35 15.75 1.8 15.25 1.4 14.6 1.25 13.9 1.3 13.15 1.6 12.45 2.1 11.9" fill="#434343" fill-rule="evenodd" stroke="none"/>
    <path d="M-16.25 51.55 L-15.7 52.05 -15.35 52.65 -15.15 53.4 -15.25 54.15 -15.5 54.8 -16.0 55.35 -16.65 55.75 -17.35 55.9 -18.1 55.85 -18.8 55.55 -19.35 55.05 -19.75 54.45 -19.9 53.7 -19.8 52.95 -19.55 52.3 -19.05 51.75 -18.4 51.35 -17.7 51.2 -16.95 51.25 -16.25 51.55" fill="#434343" fill-rule="evenodd" stroke="none"/>
    <path d="M-18.25 57.8 L-17.75 57.25 -17.15 56.85 -16.4 56.7 -15.65 56.75 -15.0 57.05 -14.45 57.55 -14.05 58.15 -13.9 58.9 -13.95 59.65 -14.25 60.3 -14.75 60.85 -15.35 61.25 -16.1 61.4 -16.85 61.35 -17.5 61.05 -18.05 60.55 -18.45 59.95 -18.6 59.2 -18.55 58.45 -18.25 57.8" fill="#434343" fill-rule="evenodd" stroke="none"/>
    <path d="M-12.75 63.8 L-12.4 64.45 -12.2 65.2 -12.3 65.9 -12.6 66.6 -13.05 67.15 -13.7 67.55 -14.45 67.7 -15.15 67.65 -15.85 67.35 -16.4 66.85 -16.8 66.2 -16.95 65.5 -16.9 64.75 -16.6 64.05 -16.1 63.5 -15.45 63.15 -14.75 62.95 -14.0 63.05 -13.3 63.35 -12.75 63.8" fill="#434343" fill-rule="evenodd" stroke="none"/>
    <path d="M705.8 -189.7 L705.95 -189.1 705.9 -188.5 705.65 -187.95 705.25 -187.5 704.75 -187.2 704.2 -187.1 703.6 -187.15 703.05 -187.35 702.6 -187.75 702.3 -188.25 702.15 -188.85 702.2 -189.45 702.45 -190.0 702.85 -190.45 703.35 -190.75 703.95 -190.85 704.5 -190.8 705.05 -190.6 705.5 -190.2 705.8 -189.7" fill="#434343" fill-rule="evenodd" stroke="none"/>
    <path d="M700.65 -191.2 L700.8 -190.9 700.9 -190.55 700.85 -190.25 700.7 -189.95 700.5 -189.65 700.2 -189.5 699.9 -189.45 699.55 -189.45 699.25 -189.6 699.0 -189.8 698.8 -190.1 698.75 -190.4 698.8 -190.75 698.9 -191.05 699.4 -191.5 699.75 -191.55 700.05 -191.55 700.4 -191.4 700.65 -191.2" fill="#434343" fill-rule="evenodd" stroke="none"/>
    <path d="M703.35 -221.45 L703.55 -222.0 703.95 -222.45 704.45 -222.75 705.05 -222.85 705.65 -222.8 706.2 -222.6 706.65 -222.2 706.95 -221.7 707.05 -221.1 707.0 -220.5 706.8 -219.95 706.4 -219.5 705.9 -219.2 705.3 -219.1 704.7 -219.15 704.15 -219.35 703.7 -219.75 703.4 -220.25 703.3 -220.85 703.35 -221.45" fill="#434343" fill-rule="evenodd" stroke="none"/>
    <path d="M716.4 -217.25 L716.15 -216.7 715.75 -216.25 715.25 -215.95 714.7 -215.85 714.1 -215.9 713.55 -216.1 713.1 -216.5 712.8 -217.0 712.65 -217.6 712.7 -218.2 712.95 -218.75 713.35 -219.2 713.85 -219.5 714.45 -219.6 715.0 -219.55 715.55 -219.35 716.0 -218.95 716.3 -218.45 716.45 -217.85 716.4 -217.25" fill="#434343" fill-rule="evenodd" stroke="none"/>
    <path d="M711.05 -219.4 L711.15 -219.05 711.1 -218.75 710.95 -218.45 710.75 -218.15 710.45 -218.0 710.15 -217.95 709.8 -217.95 709.5 -218.1 709.25 -218.3 709.05 -218.6 709.0 -218.9 709.05 -219.25 709.15 -219.55 709.65 -220.0 710.0 -220.05 710.3 -220.05 710.65 -219.9 710.9 -219.7 711.05 -219.4" fill="#434343" fill-rule="evenodd" stroke="none"/>
    <path d="M97.95 1.85 L67.4 10.15 66.35 6.25 96.95 -2.0 97.95 1.85" fill="#434343" fill-rule="evenodd" stroke="none"/>
    <path d="M53.05 14.0 L-87.05 51.85 -88.05 48.0 52.0 10.15 53.05 14.0" fill="#434343" fill-rule="evenodd" stroke="none"/>
    <path d="M-12.15 83.45 L-4.85 110.65 -8.75 111.7 -16.0 84.45 -12.15 83.45" fill="#434343" fill-rule="evenodd" stroke="none"/>
    <path d="M-20.25 68.7 L-40.5 -7.1 -36.65 -8.15 -16.35 67.65 -20.25 68.7" fill="#434343" fill-rule="evenodd" stroke="none"/>
    <path d="M-51.35 -63.1 L-40.6 -22.8 -44.45 -21.75 -55.25 -62.05 -51.35 -63.1" fill="#434343" fill-rule="evenodd" stroke="none"/>
    <path d="M5.3 54.0 L31.75 46.25 32.9 50.1 6.45 57.85 5.3 54.0" fill="#434343" fill-rule="evenodd" stroke="none"/>
    <path d="M-5.9 63.95 L-6.95 58.65 -11.8 59.85 -12.8 56.0 -3.9 53.75 -1.95 63.15 -5.9 63.95" fill="#434343" fill-rule="evenodd" stroke="none"/>
    <path d="M-14.95 49.9 L-15.9 46.0 -11.25 44.85 -10.35 48.75 -14.95 49.9" fill="#434343" fill-rule="evenodd" stroke="none"/>
    <path d="M31.05 -30.85 L29.85 -35.75 35.75 -37.15 36.9 -32.3 31.05 -30.85" fill="#434343" fill-rule="evenodd" stroke="none"/>
    <path d="M555.3 -378.55 L547.4 -396.3 564.55 -404.7 573.05 -386.95 555.3 -378.55" fill="#ffffff" fill-rule="evenodd" stroke="none"/>
    <path d="M-0.5 102.95 L-2.9 95.0 6.2 92.25 8.6 100.2 -0.5 102.95" fill="#ffffff" fill-rule="evenodd" stroke="none"/>
  </g>
</svg>
