<?xml version="1.0" encoding="UTF-8" standalone="no"?>
<svg xmlns:ffdec="https://www.free-decompiler.com/flash" xmlns:xlink="http://www.w3.org/1999/xlink" ffdec:objectType="shape" height="300.0px" width="751.0px" xmlns="http://www.w3.org/2000/svg">
  <g transform="matrix(1.0, 0.0, 0.0, 1.0, 510.4, 36.15)">
    <path d="M-136.4 -36.15 L146.1 -36.15 Q146.1 -16.15 145.6 3.85 L149.6 3.85 Q149.6 4.35 149.1 4.35 L149.1 10.85 149.6 11.35 146.1 11.35 146.1 49.35 189.6 49.35 189.6 32.85 240.6 32.85 240.6 212.35 215.1 212.35 215.1 228.35 182.1 228.35 182.1 243.35 163.1 243.35 163.1 263.85 -480.4 263.85 -480.4 206.85 -504.9 206.85 -504.9 169.35 -510.4 169.35 -510.4 135.85 -505.4 135.85 -505.4 133.35 -507.9 133.35 -507.9 127.35 -505.4 127.35 -505.4 99.85 -480.4 99.85 -480.4 41.85 -252.9 41.85 -252.9 30.35 -155.9 30.35 -155.9 -14.15 -136.4 -14.15 -136.4 -36.15" fill="#424242" fill-rule="evenodd" stroke="none"/>
    <path d="M-154.4 -14.15 L-136.4 -14.15 -136.4 52.85 Q-193.9 52.85 -251.9 52.35 L-251.9 30.85 -154.4 30.85 -154.4 -14.15" fill="#6f6f6f" fill-rule="evenodd" stroke="none"/>
    <path d="M133.1 -31.15 L133.1 42.85 43.6 42.85 43.6 43.35 38.6 43.35 38.6 41.85 37.6 41.85 37.6 44.85 38.6 44.85 38.6 45.85 91.1 45.85 91.1 118.85 -33.9 118.85 -33.9 45.85 3.6 45.85 3.6 44.85 4.6 44.85 4.6 41.85 3.6 41.85 Q3.6 42.85 3.1 43.35 L-1.4 43.35 -1.4 42.85 -35.4 42.85 -35.4 43.35 -40.4 43.35 -40.4 41.85 -41.4 41.85 -41.4 43.35 -74.4 43.35 -74.4 41.85 -75.4 41.85 Q-75.4 42.85 -75.9 43.35 L-80.4 43.35 -80.4 42.85 -131.9 42.85 -131.9 -34.15 57.6 -34.15 57.6 -31.15 133.1 -31.15" fill="#959595" fill-rule="evenodd" stroke="none"/>
    <path d="M41.1 34.85 Q41.1 36.35 40.1 36.35 38.6 36.35 38.6 34.85 38.6 33.35 40.1 33.35 L41.1 34.85" fill="#6f6f6f" fill-rule="evenodd" stroke="none"/>
    <path d="M3.6 34.85 Q3.6 36.35 2.1 36.35 0.6 36.35 0.6 34.85 1.6 34.35 2.1 33.35 3.6 33.35 3.6 34.85" fill="#6f6f6f" fill-rule="evenodd" stroke="none"/>
    <path d="M-37.4 34.85 Q-37.4 36.35 -38.9 36.35 -40.4 36.35 -40.4 34.85 -40.4 33.35 -38.9 33.35 L-37.4 34.85" fill="#6f6f6f" fill-rule="evenodd" stroke="none"/>
    <path d="M-75.4 34.85 Q-75.4 36.35 -76.9 36.35 -78.9 36.35 -78.9 34.85 -78.9 33.35 -76.9 33.35 L-75.4 34.85" fill="#6f6f6f" fill-rule="evenodd" stroke="none"/>
    <path d="M-92.4 -18.15 L-113.9 -18.15 -113.9 -1.65 -103.9 -1.65 -103.9 35.85 -141.9 35.85 -141.9 -1.65 -127.4 -2.15 -127.4 -31.65 -92.4 -31.65 -92.4 -18.15" fill="#424242" fill-rule="evenodd" stroke="none"/>
    <path d="M17.1 -15.15 L17.1 -30.15 57.6 -30.15 57.6 -34.15 76.6 -34.15 76.6 -35.15 134.1 -35.15 134.1 -10.65 57.6 -10.65 57.6 -15.65 17.6 -15.65 17.6 -15.15 17.1 -15.15" fill="#424242" fill-rule="evenodd" stroke="none"/>
    <path d="M58.6 -16.65 L17.6 -16.65 17.6 -29.15 58.6 -29.15 58.6 -16.65" fill="#ffffff" fill-rule="evenodd" stroke="none"/>
    <path d="M-115.4 -24.15 L-118.9 -24.15 -118.9 -26.65 -115.4 -26.65 -115.4 -24.15" fill="#959595" fill-rule="evenodd" stroke="none"/>
    <path d="M-140.9 34.85 L-140.9 -0.65 -104.9 -0.65 -104.9 34.85 -140.9 34.85" fill="#959595" fill-rule="evenodd" stroke="none"/>
    <path d="M78.1 -27.65 L78.1 -13.15 76.6 -13.15 76.6 -11.65 58.6 -11.65 58.6 -35.15 76.6 -35.15 76.6 -27.65 78.1 -27.65" fill="#959595" fill-rule="evenodd" stroke="none"/>
    <path d="M-92.4 -30.15 L-92.4 -19.15 -115.4 -19.15 -115.4 -0.65 -126.4 -0.65 -126.4 -30.15 -92.4 -30.15" fill="#ffffff" fill-rule="evenodd" stroke="none"/>
  </g>
</svg>
