<?xml version="1.0" encoding="UTF-8" standalone="no"?>
<svg xmlns:ffdec="https://www.free-decompiler.com/flash" xmlns:xlink="http://www.w3.org/1999/xlink" ffdec:objectType="shape" height="106.75px" width="548.85px" xmlns="http://www.w3.org/2000/svg">
  <g transform="matrix(1.0, 0.0, 0.0, 1.0, -271.15, -607.6)">
    <path d="M383.45 626.95 L376.9 626.95 374.85 620.7 380.2 616.85 385.5 620.7 383.45 626.95" fill="#666666" fill-rule="evenodd" stroke="none"/>
    <path d="M285.95 620.7 L291.3 616.85 296.6 620.7 294.55 626.95 288.0 626.95 285.95 620.7" fill="#666666" fill-rule="evenodd" stroke="none"/>
    <path d="M309.35 626.95 L302.8 626.95 300.75 620.7 Q303.45 618.8 306.1 616.85 L311.4 620.7 309.35 626.95" fill="#666666" fill-rule="evenodd" stroke="none"/>
    <path d="M315.55 620.7 L320.9 616.85 326.2 620.7 324.15 626.95 317.6 626.95 315.55 620.7" fill="#666666" fill-rule="evenodd" stroke="none"/>
    <path d="M330.35 620.7 L335.7 616.85 341.0 620.7 338.95 626.95 332.4 626.95 330.35 620.7" fill="#666666" fill-rule="evenodd" stroke="none"/>
    <path d="M347.2 626.95 L345.15 620.7 Q347.85 618.8 350.5 616.85 L355.8 620.7 353.75 626.95 347.2 626.95" fill="#666666" fill-rule="evenodd" stroke="none"/>
    <path d="M368.55 626.95 L362.0 626.95 359.95 620.7 365.3 616.85 370.6 620.7 368.55 626.95" fill="#666666" fill-rule="evenodd" stroke="none"/>
    <path d="M273.2 626.95 L271.15 620.7 276.5 616.85 281.8 620.7 279.75 626.95 273.2 626.95" fill="#666666" fill-rule="evenodd" stroke="none"/>
    <path d="M820.0 682.6 L471.75 682.6 440.0 714.35 440.0 682.6 420.0 682.6 420.0 607.6 820.0 607.6 820.0 682.6" fill="#e6e7e8" fill-rule="evenodd" stroke="none"/>
  </g>
</svg>
