<?xml version="1.0" encoding="UTF-8" standalone="no"?>
<svg xmlns:ffdec="https://www.free-decompiler.com/flash" xmlns:xlink="http://www.w3.org/1999/xlink" ffdec:objectType="shape" height="106.75px" width="578.45px" xmlns="http://www.w3.org/2000/svg">
  <g transform="matrix(1.0, 0.0, 0.0, 1.0, -241.55, -490.6)">
    <path d="M383.45 509.95 L376.9 509.95 374.85 503.7 380.2 499.85 385.5 503.7 383.45 509.95" fill="#666666" fill-rule="evenodd" stroke="none"/>
    <path d="M285.95 503.7 L291.3 499.85 296.6 503.7 294.55 509.95 288.0 509.95 285.95 503.7" fill="#666666" fill-rule="evenodd" stroke="none"/>
    <path d="M309.35 509.95 L302.8 509.95 300.75 503.7 Q303.45 501.8 306.1 499.85 L311.4 503.7 309.35 509.95" fill="#666666" fill-rule="evenodd" stroke="none"/>
    <path d="M315.55 503.7 L320.9 499.85 326.2 503.7 324.15 509.95 317.6 509.95 315.55 503.7" fill="#666666" fill-rule="evenodd" stroke="none"/>
    <path d="M330.35 503.7 L335.7 499.85 341.0 503.7 338.95 509.95 332.4 509.95 330.35 503.7" fill="#666666" fill-rule="evenodd" stroke="none"/>
    <path d="M347.2 509.95 L345.15 503.7 Q347.85 501.8 350.5 499.85 L355.8 503.7 353.75 509.95 347.2 509.95" fill="#666666" fill-rule="evenodd" stroke="none"/>
    <path d="M368.55 509.95 L362.0 509.95 359.95 503.7 365.3 499.85 370.6 503.7 368.55 509.95" fill="#666666" fill-rule="evenodd" stroke="none"/>
    <path d="M273.2 509.95 L271.15 503.7 276.5 499.85 281.8 503.7 279.75 509.95 273.2 509.95" fill="#666666" fill-rule="evenodd" stroke="none"/>
    <path d="M243.6 509.95 L241.55 503.7 246.9 499.85 252.2 503.7 250.15 509.95 243.6 509.95" fill="#666666" fill-rule="evenodd" stroke="none"/>
    <path d="M264.95 509.95 L258.4 509.95 256.35 503.7 261.7 499.85 267.0 503.7 264.95 509.95" fill="#666666" fill-rule="evenodd" stroke="none"/>
    <path d="M820.0 565.6 L471.75 565.6 440.0 597.35 440.0 565.6 420.0 565.6 420.0 490.6 820.0 490.6 820.0 565.6" fill="#e6e7e8" fill-rule="evenodd" stroke="none"/>
  </g>
</svg>
