<?xml version="1.0" encoding="UTF-8" standalone="no"?>
<svg xmlns:ffdec="https://www.free-decompiler.com/flash" xmlns:xlink="http://www.w3.org/1999/xlink" ffdec:objectType="shape" height="478.2px" width="563.95px" xmlns="http://www.w3.org/2000/svg">
  <g transform="matrix(1.0, 0.0, 0.0, 1.0, -241.55, -499.85)">
    <path d="M800.2 850.95 L805.5 854.8 803.45 861.05 796.9 861.05 794.85 854.8 800.2 850.95" fill="#666666" fill-rule="evenodd" stroke="none"/>
    <path d="M765.15 854.8 L770.5 850.95 775.8 854.8 773.75 861.05 767.2 861.05 765.15 854.8" fill="#666666" fill-rule="evenodd" stroke="none"/>
    <path d="M785.3 850.95 L790.6 854.8 788.55 861.05 782.0 861.05 779.95 854.8 785.3 850.95" fill="#666666" fill-rule="evenodd" stroke="none"/>
    <path d="M678.4 509.95 L676.35 503.7 681.7 499.85 687.0 503.7 684.95 509.95 678.4 509.95 M670.15 509.95 L663.6 509.95 661.55 503.7 666.9 499.85 672.2 503.7 670.15 509.95" fill="#c3922e" fill-rule="evenodd" stroke="none"/>
    <path d="M294.55 626.95 L288.0 626.95 285.95 620.7 291.3 616.85 296.6 620.7 294.55 626.95 M300.75 620.7 Q303.45 618.8 306.1 616.85 L311.4 620.7 309.35 626.95 302.8 626.95 300.75 620.7 M315.55 620.7 L320.9 616.85 326.2 620.7 324.15 626.95 317.6 626.95 315.55 620.7 M250.15 626.95 L243.6 626.95 241.55 620.7 246.9 616.85 252.2 620.7 250.15 626.95 M256.35 620.7 L261.7 616.85 267.0 620.7 264.95 626.95 258.4 626.95 256.35 620.7 M279.75 626.95 L273.2 626.95 271.15 620.7 276.5 616.85 281.8 620.7 279.75 626.95" fill="#c3922e" fill-rule="evenodd" stroke="none"/>
    <path d="M773.75 626.95 L767.2 626.95 765.15 620.7 770.5 616.85 775.8 620.7 773.75 626.95 M729.35 626.95 L722.8 626.95 720.75 620.7 726.1 616.85 731.4 620.7 729.35 626.95 M737.6 626.95 L735.55 620.7 740.9 616.85 746.2 620.7 744.15 626.95 737.6 626.95 M758.95 626.95 L752.4 626.95 750.35 620.7 755.7 616.85 761.0 620.7 758.95 626.95 M691.15 620.7 L696.5 616.85 701.8 620.7 699.75 626.95 693.2 626.95 691.15 620.7 M705.95 620.7 L711.3 616.85 716.6 620.7 714.55 626.95 708.0 626.95 705.95 620.7 M661.55 620.7 L666.9 616.85 672.2 620.7 670.15 626.95 663.6 626.95 661.55 620.7 M676.35 620.7 L681.7 616.85 687.0 620.7 684.95 626.95 678.4 626.95 676.35 620.7" fill="#c3922e" fill-rule="evenodd" stroke="none"/>
    <path d="M267.0 737.75 L264.95 744.0 258.4 744.0 256.35 737.75 261.7 733.9 267.0 737.75 M252.2 737.75 L250.15 744.0 243.6 744.0 241.55 737.75 246.9 733.9 252.2 737.75" fill="#c3922e" fill-rule="evenodd" stroke="none"/>
    <path d="M701.8 737.75 L699.75 744.0 693.2 744.0 691.15 737.75 696.5 733.9 701.8 737.75 M716.6 737.75 L714.55 744.0 708.0 744.0 705.95 737.75 711.3 733.9 716.6 737.75 M681.7 733.9 L687.0 737.75 684.95 744.0 678.4 744.0 676.35 737.75 681.7 733.9 M672.2 737.75 L670.15 744.0 663.6 744.0 661.55 737.75 666.9 733.9 672.2 737.75" fill="#c3922e" fill-rule="evenodd" stroke="none"/>
    <path d="M347.2 861.05 L345.15 854.8 Q347.85 852.9 350.5 850.95 L355.8 854.8 353.75 861.05 347.2 861.05 M335.7 850.95 L341.0 854.8 338.95 861.05 332.4 861.05 330.35 854.8 335.7 850.95 M324.15 861.05 L317.6 861.05 315.55 854.8 320.9 850.95 326.2 854.8 324.15 861.05 M264.95 861.05 L258.4 861.05 256.35 854.8 261.7 850.95 267.0 854.8 264.95 861.05 M279.75 861.05 L273.2 861.05 271.15 854.8 276.5 850.95 281.8 854.8 279.75 861.05 M252.2 854.8 L250.15 861.05 243.6 861.05 241.55 854.8 246.9 850.95 252.2 854.8 M311.4 854.8 L309.35 861.05 302.8 861.05 300.75 854.8 Q303.45 852.9 306.1 850.95 L311.4 854.8 M288.0 861.05 L285.95 854.8 291.3 850.95 296.6 854.8 294.55 861.05 288.0 861.05" fill="#c3922e" fill-rule="evenodd" stroke="none"/>
    <path d="M761.0 854.8 L758.95 861.05 752.4 861.05 750.35 854.8 755.7 850.95 761.0 854.8 M740.9 850.95 L746.2 854.8 744.15 861.05 737.6 861.05 735.55 854.8 740.9 850.95 M729.35 861.05 L722.8 861.05 720.75 854.8 726.1 850.95 731.4 854.8 729.35 861.05 M687.0 854.8 L684.95 861.05 678.4 861.05 676.35 854.8 681.7 850.95 687.0 854.8 M670.15 861.05 L663.6 861.05 661.55 854.8 666.9 850.95 672.2 854.8 670.15 861.05 M716.6 854.8 L714.55 861.05 708.0 861.05 705.95 854.8 711.3 850.95 716.6 854.8 M696.5 850.95 L701.8 854.8 699.75 861.05 693.2 861.05 691.15 854.8 696.5 850.95" fill="#c3922e" fill-rule="evenodd" stroke="none"/>
    <path d="M261.7 967.95 L267.0 971.8 264.95 978.05 258.4 978.05 256.35 971.8 261.7 967.95 M252.2 971.8 L250.15 978.05 243.6 978.05 241.55 971.8 246.9 967.95 252.2 971.8" fill="#c3922e" fill-rule="evenodd" stroke="none"/>
    <path d="M661.55 971.8 L666.9 967.95 672.2 971.8 670.15 978.05 663.6 978.05 661.55 971.8 M681.7 967.95 L687.0 971.8 684.95 978.05 678.4 978.05 676.35 971.8 681.7 967.95 M699.75 978.05 L693.2 978.05 691.15 971.8 696.5 967.95 701.8 971.8 699.75 978.05 M705.95 971.8 L711.3 967.95 716.6 971.8 714.55 978.05 708.0 978.05 705.95 971.8 M720.75 971.8 L726.1 967.95 731.4 971.8 729.35 978.05 722.8 978.05 720.75 971.8 M746.2 971.8 L744.15 978.05 737.6 978.05 735.55 971.8 740.9 967.95 746.2 971.8 M761.0 971.8 L758.95 978.05 752.4 978.05 750.35 971.8 755.7 967.95 761.0 971.8 M765.15 971.8 L770.5 967.95 775.8 971.8 773.75 978.05 767.2 978.05 765.15 971.8" fill="#c3922e" fill-rule="evenodd" stroke="none"/>
  </g>
</svg>
