<?xml version="1.0" encoding="UTF-8" standalone="no"?>
<svg xmlns:ffdec="https://www.free-decompiler.com/flash" xmlns:xlink="http://www.w3.org/1999/xlink" ffdec:objectType="shape" height="106.75px" width="474.85px" xmlns="http://www.w3.org/2000/svg">
  <g transform="matrix(1.0, 0.0, 0.0, 1.0, -345.15, -724.65)">
    <path d="M385.5 737.75 L383.45 744.0 376.9 744.0 374.85 737.75 380.2 733.9 385.5 737.75" fill="#666666" fill-rule="evenodd" stroke="none"/>
    <path d="M350.5 733.9 L355.8 737.75 353.75 744.0 347.2 744.0 345.15 737.75 Q347.85 735.85 350.5 733.9" fill="#666666" fill-rule="evenodd" stroke="none"/>
    <path d="M370.6 737.75 L368.55 744.0 362.0 744.0 359.95 737.75 365.3 733.9 370.6 737.75" fill="#666666" fill-rule="evenodd" stroke="none"/>
    <path d="M440.0 799.65 L420.0 799.65 420.0 724.65 820.0 724.65 820.0 799.65 471.75 799.65 440.0 831.4 440.0 799.65" fill="#e6e7e8" fill-rule="evenodd" stroke="none"/>
  </g>
</svg>
