<?xml version="1.0" encoding="UTF-8" standalone="no"?>
<svg xmlns:ffdec="https://www.free-decompiler.com/flash" xmlns:xlink="http://www.w3.org/1999/xlink" ffdec:objectType="shape" height="487.45px" width="805.5px" xmlns="http://www.w3.org/2000/svg">
  <g transform="matrix(1.0, 0.0, 0.0, 1.0, -230.25, -668.7)">
    <path d="M1033.7 1156.15 L1027.15 1156.15 1025.1 1149.9 1030.45 1146.05 1035.75 1149.9 1033.7 1156.15" fill="#666666" fill-rule="evenodd" stroke="none"/>
    <path d="M974.4 1156.15 L967.85 1156.15 965.8 1149.9 971.15 1146.05 976.45 1149.9 974.4 1156.15" fill="#666666" fill-rule="evenodd" stroke="none"/>
    <path d="M989.2 1156.15 L982.65 1156.15 980.6 1149.9 985.95 1146.05 991.25 1149.9 989.2 1156.15" fill="#666666" fill-rule="evenodd" stroke="none"/>
    <path d="M1004.0 1156.15 L997.45 1156.15 995.4 1149.9 1000.75 1146.05 1006.05 1149.9 1004.0 1156.15" fill="#666666" fill-rule="evenodd" stroke="none"/>
    <path d="M1010.2 1149.9 L1015.55 1146.05 1020.85 1149.9 1018.8 1156.15 1012.25 1156.15 1010.2 1149.9" fill="#666666" fill-rule="evenodd" stroke="none"/>
    <path d="M250.25 743.7 L230.25 743.7 230.25 668.7 630.25 668.7 630.25 743.7 282.0 743.7 250.25 775.45 250.25 743.7" fill="#e6e7e8" fill-rule="evenodd" stroke="none"/>
  </g>
</svg>
