<?xml version="1.0" encoding="UTF-8" standalone="no"?>
<svg xmlns:ffdec="https://www.free-decompiler.com/flash" xmlns:xlink="http://www.w3.org/1999/xlink" ffdec:objectType="shape" height="127.1px" width="563.95px" xmlns="http://www.w3.org/2000/svg">
  <g transform="matrix(1.0, 0.0, 0.0, 1.0, -471.8, -1146.05)">
    <path d="M1027.15 1273.15 L1025.1 1266.9 1030.45 1263.05 1035.75 1266.9 1033.7 1273.15 1027.15 1273.15" fill="#666666" fill-rule="evenodd" stroke="none"/>
    <path d="M936.2 1266.9 L941.55 1263.05 946.85 1266.9 944.8 1273.15 938.25 1273.15 936.2 1266.9" fill="#666666" fill-rule="evenodd" stroke="none"/>
    <path d="M959.6 1273.15 L953.05 1273.15 951.0 1266.9 956.35 1263.05 961.65 1266.9 959.6 1273.15" fill="#666666" fill-rule="evenodd" stroke="none"/>
    <path d="M971.15 1263.05 L976.45 1266.9 974.4 1273.15 967.85 1273.15 965.8 1266.9 971.15 1263.05" fill="#666666" fill-rule="evenodd" stroke="none"/>
    <path d="M982.65 1273.15 L980.6 1266.9 985.95 1263.05 991.25 1266.9 989.2 1273.15 982.65 1273.15" fill="#666666" fill-rule="evenodd" stroke="none"/>
    <path d="M997.45 1273.15 L995.4 1266.9 1000.75 1263.05 1006.05 1266.9 1004.0 1273.15 997.45 1273.15" fill="#666666" fill-rule="evenodd" stroke="none"/>
    <path d="M1010.2 1266.9 L1015.55 1263.05 1020.85 1266.9 1018.8 1273.15 1012.25 1273.15 1010.2 1266.9" fill="#666666" fill-rule="evenodd" stroke="none"/>
    <path d="M921.4 1266.9 L926.75 1263.05 932.05 1266.9 930.0 1273.15 923.45 1273.15 921.4 1266.9" fill="#666666" fill-rule="evenodd" stroke="none"/>
    <path d="M908.65 1273.15 L906.6 1266.9 911.95 1263.05 917.25 1266.9 915.2 1273.15 908.65 1273.15" fill="#666666" fill-rule="evenodd" stroke="none"/>
    <path d="M480.4 1156.15 L473.85 1156.15 471.8 1149.9 477.15 1146.05 482.45 1149.9 480.4 1156.15 M510.0 1156.15 L503.45 1156.15 501.4 1149.9 506.75 1146.05 512.05 1149.9 510.0 1156.15 M518.25 1156.15 L516.2 1149.9 521.55 1146.05 526.85 1149.9 524.8 1156.15 518.25 1156.15 M486.6 1149.9 L491.95 1146.05 497.25 1149.9 495.2 1156.15 488.65 1156.15 486.6 1149.9 M560.6 1149.9 L565.95 1146.05 571.25 1149.9 569.2 1156.15 562.65 1156.15 560.6 1149.9 M554.4 1156.15 L547.85 1156.15 545.8 1149.9 551.15 1146.05 556.45 1149.9 554.4 1156.15 M533.05 1156.15 L531.0 1149.9 536.35 1146.05 541.65 1149.9 539.6 1156.15 533.05 1156.15" fill="#c3922e" fill-rule="evenodd" stroke="none"/>
    <path d="M915.2 1156.15 L908.65 1156.15 906.6 1149.9 911.95 1146.05 917.25 1149.9 915.2 1156.15 M923.45 1156.15 L921.4 1149.9 926.75 1146.05 932.05 1149.9 930.0 1156.15 923.45 1156.15 M891.8 1149.9 L897.15 1146.05 902.45 1149.9 900.4 1156.15 893.85 1156.15 891.8 1149.9 M936.2 1149.9 L941.55 1146.05 946.85 1149.9 944.8 1156.15 938.25 1156.15 936.2 1149.9" fill="#c3922e" fill-rule="evenodd" stroke="none"/>
    <path d="M501.4 1266.9 L506.75 1263.05 512.05 1266.9 510.0 1273.15 503.45 1273.15 501.4 1266.9 M495.2 1273.15 L488.65 1273.15 486.6 1266.9 491.95 1263.05 497.25 1266.9 495.2 1273.15 M473.85 1273.15 L471.8 1266.9 477.15 1263.05 482.45 1266.9 480.4 1273.15 473.85 1273.15" fill="#c3922e" fill-rule="evenodd" stroke="none"/>
    <path d="M959.6 1156.15 L953.05 1156.15 951.0 1149.9 956.35 1146.05 961.65 1149.9 959.6 1156.15" fill="#c3922e" fill-rule="evenodd" stroke="none"/>
    <path d="M902.45 1266.9 L900.4 1273.15 893.85 1273.15 891.8 1266.9 897.15 1263.05 902.45 1266.9" fill="#c3922e" fill-rule="evenodd" stroke="none"/>
  </g>
</svg>
