<?xml version="1.0" encoding="UTF-8" standalone="no"?>
<svg xmlns:ffdec="https://www.free-decompiler.com/flash" xmlns:xlink="http://www.w3.org/1999/xlink" ffdec:objectType="shape" height="487.45px" width="400.0px" xmlns="http://www.w3.org/2000/svg">
  <g transform="matrix(1.0, 0.0, 0.0, 1.0, 0.0, -490.6)">
    <path d="M385.5 971.8 L383.45 978.05 376.9 978.05 374.85 971.8 380.2 967.95 385.5 971.8" fill="#666666" fill-rule="evenodd" stroke="none"/>
    <path d="M324.15 978.05 L317.6 978.05 315.55 971.8 320.9 967.95 326.2 971.8 324.15 978.05" fill="#666666" fill-rule="evenodd" stroke="none"/>
    <path d="M341.0 971.8 L338.95 978.05 332.4 978.05 330.35 971.8 335.7 967.95 341.0 971.8" fill="#666666" fill-rule="evenodd" stroke="none"/>
    <path d="M355.8 971.8 L353.75 978.05 347.2 978.05 345.15 971.8 Q347.85 969.9 350.5 967.95 L355.8 971.8" fill="#666666" fill-rule="evenodd" stroke="none"/>
    <path d="M359.95 971.8 L365.3 967.95 370.6 971.8 368.55 978.05 362.0 978.05 359.95 971.8" fill="#666666" fill-rule="evenodd" stroke="none"/>
    <path d="M0.0 565.6 L0.0 490.6 400.0 490.6 400.0 565.6 51.75 565.6 20.0 597.35 20.0 565.6 0.0 565.6" fill="#e6e7e8" fill-rule="evenodd" stroke="none"/>
  </g>
</svg>
