<?xml version="1.0" encoding="UTF-8" standalone="no"?>
<svg xmlns:ffdec="https://www.free-decompiler.com/flash" xmlns:xlink="http://www.w3.org/1999/xlink" ffdec:objectType="shape" height="214.55px" width="805.5px" xmlns="http://www.w3.org/2000/svg">
  <g transform="matrix(1.0, 0.0, 0.0, 1.0, 0.0, -616.85)">
    <path d="M800.2 616.85 L805.5 620.7 803.45 626.95 796.9 626.95 794.85 620.7 800.2 616.85" fill="#666666" fill-rule="evenodd" stroke="none"/>
    <path d="M714.55 626.95 L708.0 626.95 705.95 620.7 711.3 616.85 716.6 620.7 714.55 626.95" fill="#666666" fill-rule="evenodd" stroke="none"/>
    <path d="M729.35 626.95 L722.8 626.95 720.75 620.7 726.1 616.85 731.4 620.7 729.35 626.95" fill="#666666" fill-rule="evenodd" stroke="none"/>
    <path d="M746.2 620.7 L744.15 626.95 737.6 626.95 735.55 620.7 740.9 616.85 746.2 620.7" fill="#666666" fill-rule="evenodd" stroke="none"/>
    <path d="M758.95 626.95 L752.4 626.95 750.35 620.7 755.7 616.85 761.0 620.7 758.95 626.95" fill="#666666" fill-rule="evenodd" stroke="none"/>
    <path d="M775.8 620.7 L773.75 626.95 767.2 626.95 765.15 620.7 770.5 616.85 775.8 620.7" fill="#666666" fill-rule="evenodd" stroke="none"/>
    <path d="M782.0 626.95 L779.95 620.7 785.3 616.85 790.6 620.7 788.55 626.95 782.0 626.95" fill="#666666" fill-rule="evenodd" stroke="none"/>
    <path d="M701.8 620.7 L699.75 626.95 693.2 626.95 691.15 620.7 696.5 616.85 701.8 620.7" fill="#666666" fill-rule="evenodd" stroke="none"/>
    <path d="M681.7 616.85 L687.0 620.7 684.95 626.95 678.4 626.95 676.35 620.7 681.7 616.85" fill="#666666" fill-rule="evenodd" stroke="none"/>
    <path d="M400.0 724.65 L400.0 799.65 51.75 799.65 20.0 831.4 20.0 799.65 0.0 799.65 0.0 724.65 400.0 724.65" fill="#e6e7e8" fill-rule="evenodd" stroke="none"/>
  </g>
</svg>
