<?xml version="1.0" encoding="UTF-8" standalone="no"?>
<svg xmlns:ffdec="https://www.free-decompiler.com/flash" xmlns:xlink="http://www.w3.org/1999/xlink" ffdec:objectType="shape" height="478.2px" width="563.95px" xmlns="http://www.w3.org/2000/svg">
  <g transform="matrix(1.0, 0.0, 0.0, 1.0, -241.55, -499.85)">
    <path d="M800.2 850.95 L805.5 854.8 803.45 861.05 796.9 861.05 794.85 854.8 800.2 850.95" fill="#666666" fill-rule="evenodd" stroke="none"/>
    <path d="M711.3 850.95 L716.6 854.8 714.55 861.05 708.0 861.05 705.95 854.8 711.3 850.95" fill="#666666" fill-rule="evenodd" stroke="none"/>
    <path d="M729.35 861.05 L722.8 861.05 720.75 854.8 726.1 850.95 731.4 854.8 729.35 861.05" fill="#666666" fill-rule="evenodd" stroke="none"/>
    <path d="M740.9 850.95 L746.2 854.8 744.15 861.05 737.6 861.05 735.55 854.8 740.9 850.95" fill="#666666" fill-rule="evenodd" stroke="none"/>
    <path d="M755.7 850.95 L761.0 854.8 758.95 861.05 752.4 861.05 750.35 854.8 755.7 850.95" fill="#666666" fill-rule="evenodd" stroke="none"/>
    <path d="M765.15 854.8 L770.5 850.95 775.8 854.8 773.75 861.05 767.2 861.05 765.15 854.8" fill="#666666" fill-rule="evenodd" stroke="none"/>
    <path d="M785.3 850.95 L790.6 854.8 788.55 861.05 782.0 861.05 779.95 854.8 785.3 850.95" fill="#666666" fill-rule="evenodd" stroke="none"/>
    <path d="M696.5 850.95 L701.8 854.8 699.75 861.05 693.2 861.05 691.15 854.8 696.5 850.95" fill="#666666" fill-rule="evenodd" stroke="none"/>
    <path d="M315.55 503.7 L320.9 499.85 326.2 503.7 324.15 509.95 317.6 509.95 315.55 503.7 M309.35 509.95 L302.8 509.95 300.75 503.7 Q303.45 501.8 306.1 499.85 L311.4 503.7 309.35 509.95 M294.55 509.95 L288.0 509.95 285.95 503.7 291.3 499.85 296.6 503.7 294.55 509.95 M264.95 509.95 L258.4 509.95 256.35 503.7 261.7 499.85 267.0 503.7 264.95 509.95 M271.15 503.7 L276.5 499.85 281.8 503.7 279.75 509.95 273.2 509.95 271.15 503.7 M252.2 503.7 L250.15 509.95 243.6 509.95 241.55 503.7 246.9 499.85 252.2 503.7 M335.7 499.85 L341.0 503.7 338.95 509.95 332.4 509.95 330.35 503.7 335.7 499.85" fill="#c3922e" fill-rule="evenodd" stroke="none"/>
    <path d="M714.55 509.95 L708.0 509.95 705.95 503.7 711.3 499.85 716.6 503.7 714.55 509.95 M726.1 499.85 L731.4 503.7 729.35 509.95 722.8 509.95 720.75 503.7 726.1 499.85 M693.2 509.95 L691.15 503.7 696.5 499.85 701.8 503.7 699.75 509.95 693.2 509.95 M681.7 499.85 L687.0 503.7 684.95 509.95 678.4 509.95 676.35 503.7 681.7 499.85 M670.15 509.95 L663.6 509.95 661.55 503.7 666.9 499.85 672.2 503.7 670.15 509.95 M740.9 499.85 L746.2 503.7 744.15 509.95 737.6 509.95 735.55 503.7 740.9 499.85" fill="#c3922e" fill-rule="evenodd" stroke="none"/>
    <path d="M285.95 620.7 L291.3 616.85 296.6 620.7 294.55 626.95 288.0 626.95 285.95 620.7 M300.75 620.7 Q303.45 618.8 306.1 616.85 L311.4 620.7 309.35 626.95 302.8 626.95 300.75 620.7 M315.55 620.7 L320.9 616.85 326.2 620.7 324.15 626.95 317.6 626.95 315.55 620.7 M256.35 620.7 L261.7 616.85 267.0 620.7 264.95 626.95 258.4 626.95 256.35 620.7 M250.15 626.95 L243.6 626.95 241.55 620.7 246.9 616.85 252.2 620.7 250.15 626.95 M271.15 620.7 L276.5 616.85 281.8 620.7 279.75 626.95 273.2 626.95 271.15 620.7 M370.6 620.7 L368.55 626.95 362.0 626.95 359.95 620.7 365.3 616.85 370.6 620.7 M374.85 620.7 L380.2 616.85 385.5 620.7 383.45 626.95 376.9 626.95 374.85 620.7 M332.4 626.95 L330.35 620.7 335.7 616.85 341.0 620.7 338.95 626.95 332.4 626.95 M353.75 626.95 L347.2 626.95 345.15 620.7 Q347.85 618.8 350.5 616.85 L355.8 620.7 353.75 626.95" fill="#c3922e" fill-rule="evenodd" stroke="none"/>
    <path d="M661.55 620.7 L666.9 616.85 672.2 620.7 670.15 626.95 663.6 626.95 661.55 620.7" fill="#c3922e" fill-rule="evenodd" stroke="none"/>
    <path d="M320.9 733.9 L326.2 737.75 324.15 744.0 317.6 744.0 315.55 737.75 320.9 733.9 M306.1 733.9 L311.4 737.75 309.35 744.0 302.8 744.0 300.75 737.75 Q303.45 735.85 306.1 733.9 M296.6 737.75 L294.55 744.0 288.0 744.0 285.95 737.75 291.3 733.9 296.6 737.75 M261.7 733.9 L267.0 737.75 264.95 744.0 258.4 744.0 256.35 737.75 261.7 733.9 M252.2 737.75 L250.15 744.0 243.6 744.0 241.55 737.75 246.9 733.9 252.2 737.75 M281.8 737.75 L279.75 744.0 273.2 744.0 271.15 737.75 276.5 733.9 281.8 737.75" fill="#c3922e" fill-rule="evenodd" stroke="none"/>
    <path d="M701.8 737.75 L699.75 744.0 693.2 744.0 691.15 737.75 696.5 733.9 701.8 737.75 M726.1 733.9 L731.4 737.75 729.35 744.0 722.8 744.0 720.75 737.75 726.1 733.9 M716.6 737.75 L714.55 744.0 708.0 744.0 705.95 737.75 711.3 733.9 716.6 737.75 M687.0 737.75 L684.95 744.0 678.4 744.0 676.35 737.75 681.7 733.9 687.0 737.75 M666.9 733.9 L672.2 737.75 670.15 744.0 663.6 744.0 661.55 737.75 666.9 733.9" fill="#c3922e" fill-rule="evenodd" stroke="none"/>
    <path d="M281.8 854.8 L279.75 861.05 273.2 861.05 271.15 854.8 276.5 850.95 281.8 854.8 M264.95 861.05 L258.4 861.05 256.35 854.8 261.7 850.95 267.0 854.8 264.95 861.05 M250.15 861.05 L243.6 861.05 241.55 854.8 246.9 850.95 252.2 854.8 250.15 861.05" fill="#c3922e" fill-rule="evenodd" stroke="none"/>
    <path d="M684.95 861.05 L678.4 861.05 676.35 854.8 681.7 850.95 687.0 854.8 684.95 861.05 M670.15 861.05 L663.6 861.05 661.55 854.8 666.9 850.95 672.2 854.8 670.15 861.05" fill="#c3922e" fill-rule="evenodd" stroke="none"/>
    <path d="M256.35 971.8 L261.7 967.95 267.0 971.8 264.95 978.05 258.4 978.05 256.35 971.8 M252.2 971.8 L250.15 978.05 243.6 978.05 241.55 971.8 246.9 967.95 252.2 971.8 M281.8 971.8 L279.75 978.05 273.2 978.05 271.15 971.8 276.5 967.95 281.8 971.8 M300.75 971.8 Q303.45 969.9 306.1 967.95 L311.4 971.8 309.35 978.05 302.8 978.05 300.75 971.8 M294.55 978.05 L288.0 978.05 285.95 971.8 291.3 967.95 296.6 971.8 294.55 978.05" fill="#c3922e" fill-rule="evenodd" stroke="none"/>
  </g>
</svg>
