<?xml version="1.0" encoding="UTF-8" standalone="no"?>
<svg xmlns:ffdec="https://www.free-decompiler.com/flash" xmlns:xlink="http://www.w3.org/1999/xlink" ffdec:objectType="shape" height="214.5px" width="805.5px" xmlns="http://www.w3.org/2000/svg">
  <g transform="matrix(1.0, 0.0, 0.0, 1.0, 0.0, -499.85)">
    <path d="M803.45 509.95 L796.9 509.95 794.85 503.7 800.2 499.85 805.5 503.7 803.45 509.95" fill="#666666" fill-rule="evenodd" stroke="none"/>
    <path d="M705.95 503.7 L711.3 499.85 716.6 503.7 714.55 509.95 708.0 509.95 705.95 503.7" fill="#666666" fill-rule="evenodd" stroke="none"/>
    <path d="M726.1 499.85 L731.4 503.7 729.35 509.95 722.8 509.95 720.75 503.7 726.1 499.85" fill="#666666" fill-rule="evenodd" stroke="none"/>
    <path d="M737.6 509.95 L735.55 503.7 740.9 499.85 746.2 503.7 744.15 509.95 737.6 509.95" fill="#666666" fill-rule="evenodd" stroke="none"/>
    <path d="M750.35 503.7 L755.7 499.85 761.0 503.7 758.95 509.95 752.4 509.95 750.35 503.7" fill="#666666" fill-rule="evenodd" stroke="none"/>
    <path d="M775.8 503.7 L773.75 509.95 767.2 509.95 765.15 503.7 770.5 499.85 775.8 503.7" fill="#666666" fill-rule="evenodd" stroke="none"/>
    <path d="M785.3 499.85 L790.6 503.7 788.55 509.95 782.0 509.95 779.95 503.7 785.3 499.85" fill="#666666" fill-rule="evenodd" stroke="none"/>
    <path d="M0.0 682.6 L0.0 607.6 400.0 607.6 400.0 682.6 51.75 682.6 20.0 714.35 20.0 682.6 0.0 682.6" fill="#e6e7e8" fill-rule="evenodd" stroke="none"/>
  </g>
</svg>
