<?xml version="1.0" encoding="UTF-8" standalone="no"?>
<svg xmlns:ffdec="https://www.free-decompiler.com/flash" xmlns:xlink="http://www.w3.org/1999/xlink" ffdec:objectType="shape" height="244.15px" width="563.95px" xmlns="http://www.w3.org/2000/svg">
  <g transform="matrix(1.0, 0.0, 0.0, 1.0, -241.55, -499.85)">
    <path d="M805.5 737.75 L803.45 744.0 796.9 744.0 794.85 737.75 800.2 733.9 805.5 737.75" fill="#666666" fill-rule="evenodd" stroke="none"/>
    <path d="M309.35 509.95 L302.8 509.95 300.75 503.7 Q303.45 501.8 306.1 499.85 L311.4 503.7 309.35 509.95 M296.6 503.7 L294.55 509.95 288.0 509.95 285.95 503.7 291.3 499.85 296.6 503.7 M264.95 509.95 L258.4 509.95 256.35 503.7 261.7 499.85 267.0 503.7 264.95 509.95 M273.2 509.95 L271.15 503.7 276.5 499.85 281.8 503.7 279.75 509.95 273.2 509.95 M252.2 503.7 L250.15 509.95 243.6 509.95 241.55 503.7 246.9 499.85 252.2 503.7" fill="#c3922e" fill-rule="evenodd" stroke="none"/>
    <path d="M699.75 509.95 L693.2 509.95 691.15 503.7 696.5 499.85 701.8 503.7 699.75 509.95 M676.35 503.7 L681.7 499.85 687.0 503.7 684.95 509.95 678.4 509.95 676.35 503.7 M670.15 509.95 L663.6 509.95 661.55 503.7 666.9 499.85 672.2 503.7 670.15 509.95" fill="#c3922e" fill-rule="evenodd" stroke="none"/>
    <path d="M252.2 620.7 L250.15 626.95 243.6 626.95 241.55 620.7 246.9 616.85 252.2 620.7 M267.0 620.7 L264.95 626.95 258.4 626.95 256.35 620.7 261.7 616.85 267.0 620.7" fill="#c3922e" fill-rule="evenodd" stroke="none"/>
    <path d="M276.5 733.9 L281.8 737.75 279.75 744.0 273.2 744.0 271.15 737.75 276.5 733.9 M252.2 737.75 L250.15 744.0 243.6 744.0 241.55 737.75 246.9 733.9 252.2 737.75 M267.0 737.75 L264.95 744.0 258.4 744.0 256.35 737.75 261.7 733.9 267.0 737.75" fill="#c3922e" fill-rule="evenodd" stroke="none"/>
    <path d="M320.9 499.85 L326.2 503.7 324.15 509.95 317.6 509.95 315.55 503.7 320.9 499.85 M355.8 503.7 L353.75 509.95 347.2 509.95 345.15 503.7 Q347.85 501.8 350.5 499.85 L355.8 503.7 M341.0 503.7 L338.95 509.95 332.4 509.95 330.35 503.7 335.7 499.85 341.0 503.7" fill="#c3922e" fill-rule="evenodd" stroke="none"/>
    <path d="M726.1 499.85 L731.4 503.7 729.35 509.95 722.8 509.95 720.75 503.7 726.1 499.85 M708.0 509.95 L705.95 503.7 711.3 499.85 716.6 503.7 714.55 509.95 708.0 509.95 M744.15 509.95 L737.6 509.95 735.55 503.7 740.9 499.85 746.2 503.7 744.15 509.95" fill="#c3922e" fill-rule="evenodd" stroke="none"/>
    <path d="M300.75 620.7 Q303.45 618.8 306.1 616.85 L311.4 620.7 309.35 626.95 302.8 626.95 300.75 620.7 M288.0 626.95 L285.95 620.7 291.3 616.85 296.6 620.7 294.55 626.95 288.0 626.95 M315.55 620.7 L320.9 616.85 326.2 620.7 324.15 626.95 317.6 626.95 315.55 620.7 M279.75 626.95 L273.2 626.95 271.15 620.7 276.5 616.85 281.8 620.7 279.75 626.95" fill="#c3922e" fill-rule="evenodd" stroke="none"/>
    <path d="M803.45 626.95 L796.9 626.95 794.85 620.7 800.2 616.85 805.5 620.7 803.45 626.95" fill="#666666" fill-rule="evenodd" stroke="none"/>
    <path d="M705.95 620.7 L711.3 616.85 716.6 620.7 714.55 626.95 708.0 626.95 705.95 620.7" fill="#666666" fill-rule="evenodd" stroke="none"/>
    <path d="M729.35 626.95 L722.8 626.95 720.75 620.7 726.1 616.85 731.4 620.7 729.35 626.95" fill="#666666" fill-rule="evenodd" stroke="none"/>
    <path d="M737.6 626.95 L735.55 620.7 740.9 616.85 746.2 620.7 744.15 626.95 737.6 626.95" fill="#666666" fill-rule="evenodd" stroke="none"/>
    <path d="M750.35 620.7 L755.7 616.85 761.0 620.7 758.95 626.95 752.4 626.95 750.35 620.7" fill="#666666" fill-rule="evenodd" stroke="none"/>
    <path d="M773.75 626.95 L767.2 626.95 765.15 620.7 770.5 616.85 775.8 620.7 773.75 626.95" fill="#666666" fill-rule="evenodd" stroke="none"/>
    <path d="M785.3 616.85 L790.6 620.7 788.55 626.95 782.0 626.95 779.95 620.7 785.3 616.85" fill="#666666" fill-rule="evenodd" stroke="none"/>
    <path d="M693.2 626.95 L691.15 620.7 696.5 616.85 701.8 620.7 699.75 626.95 693.2 626.95" fill="#666666" fill-rule="evenodd" stroke="none"/>
    <path d="M661.55 620.7 L666.9 616.85 672.2 620.7 670.15 626.95 663.6 626.95 661.55 620.7 M684.95 626.95 L678.4 626.95 676.35 620.7 681.7 616.85 687.0 620.7 684.95 626.95" fill="#c3922e" fill-rule="evenodd" stroke="none"/>
    <path d="M320.9 733.9 L326.2 737.75 324.15 744.0 317.6 744.0 315.55 737.75 320.9 733.9 M311.4 737.75 L309.35 744.0 302.8 744.0 300.75 737.75 Q303.45 735.85 306.1 733.9 L311.4 737.75 M291.3 733.9 L296.6 737.75 294.55 744.0 288.0 744.0 285.95 737.75 291.3 733.9 M350.5 733.9 L355.8 737.75 353.75 744.0 347.2 744.0 345.15 737.75 Q347.85 735.85 350.5 733.9 M335.7 733.9 L341.0 737.75 338.95 744.0 332.4 744.0 330.35 737.75 335.7 733.9" fill="#c3922e" fill-rule="evenodd" stroke="none"/>
    <path d="M696.5 733.9 L701.8 737.75 699.75 744.0 693.2 744.0 691.15 737.75 696.5 733.9 M726.1 733.9 L731.4 737.75 729.35 744.0 722.8 744.0 720.75 737.75 726.1 733.9 M711.3 733.9 L716.6 737.75 714.55 744.0 708.0 744.0 705.95 737.75 711.3 733.9 M681.7 733.9 L687.0 737.75 684.95 744.0 678.4 744.0 676.35 737.75 681.7 733.9 M672.2 737.75 L670.15 744.0 663.6 744.0 661.55 737.75 666.9 733.9 672.2 737.75 M785.3 733.9 L790.6 737.75 788.55 744.0 782.0 744.0 779.95 737.75 785.3 733.9 M775.8 737.75 L773.75 744.0 767.2 744.0 765.15 737.75 770.5 733.9 775.8 737.75 M755.7 733.9 L761.0 737.75 758.95 744.0 752.4 744.0 750.35 737.75 755.7 733.9 M740.9 733.9 L746.2 737.75 744.15 744.0 737.6 744.0 735.55 737.75 740.9 733.9" fill="#c3922e" fill-rule="evenodd" stroke="none"/>
  </g>
</svg>
