<?xml version="1.0" encoding="UTF-8" standalone="no"?>
<svg xmlns:ffdec="https://www.free-decompiler.com/flash" xmlns:xlink="http://www.w3.org/1999/xlink" ffdec:objectType="shape" height="244.15px" width="563.95px" xmlns="http://www.w3.org/2000/svg">
  <g transform="matrix(1.0, 0.0, 0.0, 1.0, -241.55, -499.85)">
    <path d="M805.5 737.75 L803.45 744.0 796.9 744.0 794.85 737.75 800.2 733.9 805.5 737.75" fill="#666666" fill-rule="evenodd" stroke="none"/>
    <path d="M746.2 737.75 L744.15 744.0 737.6 744.0 735.55 737.75 740.9 733.9 746.2 737.75" fill="#666666" fill-rule="evenodd" stroke="none"/>
    <path d="M761.0 737.75 L758.95 744.0 752.4 744.0 750.35 737.75 755.7 733.9 761.0 737.75" fill="#666666" fill-rule="evenodd" stroke="none"/>
    <path d="M775.8 737.75 L773.75 744.0 767.2 744.0 765.15 737.75 770.5 733.9 775.8 737.75" fill="#666666" fill-rule="evenodd" stroke="none"/>
    <path d="M790.6 737.75 L788.55 744.0 782.0 744.0 779.95 737.75 785.3 733.9 790.6 737.75" fill="#666666" fill-rule="evenodd" stroke="none"/>
    <path d="M252.2 503.7 L250.15 509.95 243.6 509.95 241.55 503.7 246.9 499.85 252.2 503.7" fill="#c3922e" fill-rule="evenodd" stroke="none"/>
    <path d="M701.8 503.7 L699.75 509.95 693.2 509.95 691.15 503.7 696.5 499.85 701.8 503.7 M670.15 509.95 L663.6 509.95 661.55 503.7 666.9 499.85 672.2 503.7 670.15 509.95 M687.0 503.7 L684.95 509.95 678.4 509.95 676.35 503.7 681.7 499.85 687.0 503.7" fill="#c3922e" fill-rule="evenodd" stroke="none"/>
    <path d="M294.55 626.95 L288.0 626.95 285.95 620.7 291.3 616.85 296.6 620.7 294.55 626.95 M256.35 620.7 L261.7 616.85 267.0 620.7 264.95 626.95 258.4 626.95 256.35 620.7 M243.6 626.95 L241.55 620.7 246.9 616.85 252.2 620.7 250.15 626.95 243.6 626.95 M271.15 620.7 L276.5 616.85 281.8 620.7 279.75 626.95 273.2 626.95 271.15 620.7" fill="#c3922e" fill-rule="evenodd" stroke="none"/>
    <path d="M666.9 616.85 L672.2 620.7 670.15 626.95 663.6 626.95 661.55 620.7 666.9 616.85" fill="#c3922e" fill-rule="evenodd" stroke="none"/>
    <path d="M320.9 733.9 L326.2 737.75 324.15 744.0 317.6 744.0 315.55 737.75 320.9 733.9 M311.4 737.75 L309.35 744.0 302.8 744.0 300.75 737.75 Q303.45 735.85 306.1 733.9 L311.4 737.75 M291.3 733.9 L296.6 737.75 294.55 744.0 288.0 744.0 285.95 737.75 291.3 733.9 M267.0 737.75 L264.95 744.0 258.4 744.0 256.35 737.75 261.7 733.9 267.0 737.75 M252.2 737.75 L250.15 744.0 243.6 744.0 241.55 737.75 246.9 733.9 252.2 737.75 M276.5 733.9 L281.8 737.75 279.75 744.0 273.2 744.0 271.15 737.75 276.5 733.9 M350.5 733.9 L355.8 737.75 353.75 744.0 347.2 744.0 345.15 737.75 Q347.85 735.85 350.5 733.9 M335.7 733.9 L341.0 737.75 338.95 744.0 332.4 744.0 330.35 737.75 335.7 733.9" fill="#c3922e" fill-rule="evenodd" stroke="none"/>
    <path d="M696.5 733.9 L701.8 737.75 699.75 744.0 693.2 744.0 691.15 737.75 696.5 733.9 M726.1 733.9 L731.4 737.75 729.35 744.0 722.8 744.0 720.75 737.75 726.1 733.9 M711.3 733.9 L716.6 737.75 714.55 744.0 708.0 744.0 705.95 737.75 711.3 733.9 M681.7 733.9 L687.0 737.75 684.95 744.0 678.4 744.0 676.35 737.75 681.7 733.9 M672.2 737.75 L670.15 744.0 663.6 744.0 661.55 737.75 666.9 733.9 672.2 737.75" fill="#c3922e" fill-rule="evenodd" stroke="none"/>
  </g>
</svg>
