<?xml version="1.0" encoding="UTF-8" standalone="no"?>
<svg xmlns:ffdec="https://www.free-decompiler.com/flash" xmlns:xlink="http://www.w3.org/1999/xlink" ffdec:objectType="shape" height="127.1px" width="563.95px" xmlns="http://www.w3.org/2000/svg">
  <g transform="matrix(1.0, 0.0, 0.0, 1.0, -241.55, -499.85)">
    <path d="M800.2 616.85 L805.5 620.7 803.45 626.95 796.9 626.95 794.85 620.7 800.2 616.85" fill="#666666" fill-rule="evenodd" stroke="none"/>
    <path d="M775.8 620.7 L773.75 626.95 767.2 626.95 765.15 620.7 770.5 616.85 775.8 620.7" fill="#666666" fill-rule="evenodd" stroke="none"/>
    <path d="M782.0 626.95 L779.95 620.7 785.3 616.85 790.6 620.7 788.55 626.95 782.0 626.95" fill="#666666" fill-rule="evenodd" stroke="none"/>
    <path d="M271.15 503.7 L276.5 499.85 281.8 503.7 279.75 509.95 273.2 509.95 271.15 503.7 M264.95 509.95 L258.4 509.95 256.35 503.7 261.7 499.85 267.0 503.7 264.95 509.95 M252.2 503.7 L250.15 509.95 243.6 509.95 241.55 503.7 246.9 499.85 252.2 503.7" fill="#c3922e" fill-rule="evenodd" stroke="none"/>
    <path d="M716.6 503.7 L714.55 509.95 708.0 509.95 705.95 503.7 711.3 499.85 716.6 503.7 M720.75 503.7 L726.1 499.85 731.4 503.7 729.35 509.95 722.8 509.95 720.75 503.7 M696.5 499.85 L701.8 503.7 699.75 509.95 693.2 509.95 691.15 503.7 696.5 499.85 M670.15 509.95 L663.6 509.95 661.55 503.7 666.9 499.85 672.2 503.7 670.15 509.95 M687.0 503.7 L684.95 509.95 678.4 509.95 676.35 503.7 681.7 499.85 687.0 503.7 M775.8 503.7 L773.75 509.95 767.2 509.95 765.15 503.7 770.5 499.85 775.8 503.7 M758.95 509.95 L752.4 509.95 750.35 503.7 755.7 499.85 761.0 503.7 758.95 509.95 M735.55 503.7 L740.9 499.85 746.2 503.7 744.15 509.95 737.6 509.95 735.55 503.7" fill="#c3922e" fill-rule="evenodd" stroke="none"/>
    <path d="M300.75 620.7 Q303.45 618.8 306.1 616.85 L311.4 620.7 309.35 626.95 302.8 626.95 300.75 620.7 M294.55 626.95 L288.0 626.95 285.95 620.7 291.3 616.85 296.6 620.7 294.55 626.95 M315.55 620.7 L320.9 616.85 326.2 620.7 324.15 626.95 317.6 626.95 315.55 620.7 M256.35 620.7 L261.7 616.85 267.0 620.7 264.95 626.95 258.4 626.95 256.35 620.7 M243.6 626.95 L241.55 620.7 246.9 616.85 252.2 620.7 250.15 626.95 243.6 626.95 M271.15 620.7 L276.5 616.85 281.8 620.7 279.75 626.95 273.2 626.95 271.15 620.7 M368.55 626.95 L362.0 626.95 359.95 620.7 365.3 616.85 370.6 620.7 368.55 626.95 M330.35 620.7 L335.7 616.85 341.0 620.7 338.95 626.95 332.4 626.95 330.35 620.7 M353.75 626.95 L347.2 626.95 345.15 620.7 Q347.85 618.8 350.5 616.85 L355.8 620.7 353.75 626.95" fill="#c3922e" fill-rule="evenodd" stroke="none"/>
    <path d="M729.35 626.95 L722.8 626.95 720.75 620.7 726.1 616.85 731.4 620.7 729.35 626.95 M735.55 620.7 L740.9 616.85 746.2 620.7 744.15 626.95 737.6 626.95 735.55 620.7 M750.35 620.7 L755.7 616.85 761.0 620.7 758.95 626.95 752.4 626.95 750.35 620.7 M705.95 620.7 L711.3 616.85 716.6 620.7 714.55 626.95 708.0 626.95 705.95 620.7 M693.2 626.95 L691.15 620.7 696.5 616.85 701.8 620.7 699.75 626.95 693.2 626.95 M661.55 620.7 L666.9 616.85 672.2 620.7 670.15 626.95 663.6 626.95 661.55 620.7 M684.95 626.95 L678.4 626.95 676.35 620.7 681.7 616.85 687.0 620.7 684.95 626.95" fill="#c3922e" fill-rule="evenodd" stroke="none"/>
  </g>
</svg>
