<?xml version="1.0" encoding="UTF-8" standalone="no"?>
<svg xmlns:ffdec="https://www.free-decompiler.com/flash" xmlns:xlink="http://www.w3.org/1999/xlink" ffdec:objectType="shape" height="361.2px" width="460.25px" xmlns="http://www.w3.org/2000/svg">
  <g transform="matrix(1.0, 0.0, 0.0, 1.0, -241.55, -499.85)">
    <path d="M385.5 854.8 L383.45 861.05 376.9 861.05 374.85 854.8 380.2 850.95 385.5 854.8" fill="#666666" fill-rule="evenodd" stroke="none"/>
    <path d="M311.4 854.8 L309.35 861.05 302.8 861.05 300.75 854.8 Q303.45 852.9 306.1 850.95 L311.4 854.8" fill="#666666" fill-rule="evenodd" stroke="none"/>
    <path d="M324.15 861.05 L317.6 861.05 315.55 854.8 320.9 850.95 326.2 854.8 324.15 861.05" fill="#666666" fill-rule="evenodd" stroke="none"/>
    <path d="M341.0 854.8 L338.95 861.05 332.4 861.05 330.35 854.8 335.7 850.95 341.0 854.8" fill="#666666" fill-rule="evenodd" stroke="none"/>
    <path d="M355.8 854.8 L353.75 861.05 347.2 861.05 345.15 854.8 Q347.85 852.9 350.5 850.95 L355.8 854.8" fill="#666666" fill-rule="evenodd" stroke="none"/>
    <path d="M359.95 854.8 L365.3 850.95 370.6 854.8 368.55 861.05 362.0 861.05 359.95 854.8" fill="#666666" fill-rule="evenodd" stroke="none"/>
    <path d="M320.9 499.85 L326.2 503.7 324.15 509.95 317.6 509.95 315.55 503.7 320.9 499.85 M311.4 503.7 L309.35 509.95 302.8 509.95 300.75 503.7 Q303.45 501.8 306.1 499.85 L311.4 503.7 M285.95 503.7 L291.3 499.85 296.6 503.7 294.55 509.95 288.0 509.95 285.95 503.7 M271.15 503.7 L276.5 499.85 281.8 503.7 279.75 509.95 273.2 509.95 271.15 503.7 M264.95 509.95 L258.4 509.95 256.35 503.7 261.7 499.85 267.0 503.7 264.95 509.95 M252.2 503.7 L250.15 509.95 243.6 509.95 241.55 503.7 246.9 499.85 252.2 503.7 M341.0 503.7 L338.95 509.95 332.4 509.95 330.35 503.7 335.7 499.85 341.0 503.7" fill="#c3922e" fill-rule="evenodd" stroke="none"/>
    <path d="M701.8 503.7 L699.75 509.95 693.2 509.95 691.15 503.7 696.5 499.85 701.8 503.7 M670.15 509.95 L663.6 509.95 661.55 503.7 666.9 499.85 672.2 503.7 670.15 509.95 M687.0 503.7 L684.95 509.95 678.4 509.95 676.35 503.7 681.7 499.85 687.0 503.7" fill="#c3922e" fill-rule="evenodd" stroke="none"/>
    <path d="M300.75 620.7 Q303.45 618.8 306.1 616.85 L311.4 620.7 309.35 626.95 302.8 626.95 300.75 620.7 M294.55 626.95 L288.0 626.95 285.95 620.7 291.3 616.85 296.6 620.7 294.55 626.95 M256.35 620.7 L261.7 616.85 267.0 620.7 264.95 626.95 258.4 626.95 256.35 620.7 M243.6 626.95 L241.55 620.7 246.9 616.85 252.2 620.7 250.15 626.95 243.6 626.95 M271.15 620.7 L276.5 616.85 281.8 620.7 279.75 626.95 273.2 626.95 271.15 620.7" fill="#c3922e" fill-rule="evenodd" stroke="none"/>
    <path d="M666.9 616.85 L672.2 620.7 670.15 626.95 663.6 626.95 661.55 620.7 666.9 616.85" fill="#c3922e" fill-rule="evenodd" stroke="none"/>
    <path d="M320.9 733.9 L326.2 737.75 324.15 744.0 317.6 744.0 315.55 737.75 320.9 733.9 M311.4 737.75 L309.35 744.0 302.8 744.0 300.75 737.75 Q303.45 735.85 306.1 733.9 L311.4 737.75 M291.3 733.9 L296.6 737.75 294.55 744.0 288.0 744.0 285.95 737.75 291.3 733.9 M267.0 737.75 L264.95 744.0 258.4 744.0 256.35 737.75 261.7 733.9 267.0 737.75 M252.2 737.75 L250.15 744.0 243.6 744.0 241.55 737.75 246.9 733.9 252.2 737.75 M276.5 733.9 L281.8 737.75 279.75 744.0 273.2 744.0 271.15 737.75 276.5 733.9" fill="#c3922e" fill-rule="evenodd" stroke="none"/>
    <path d="M681.7 733.9 L687.0 737.75 684.95 744.0 678.4 744.0 676.35 737.75 681.7 733.9 M672.2 737.75 L670.15 744.0 663.6 744.0 661.55 737.75 666.9 733.9 672.2 737.75" fill="#c3922e" fill-rule="evenodd" stroke="none"/>
    <path d="M264.95 861.05 L258.4 861.05 256.35 854.8 261.7 850.95 267.0 854.8 264.95 861.05 M279.75 861.05 L273.2 861.05 271.15 854.8 276.5 850.95 281.8 854.8 279.75 861.05 M250.15 861.05 L243.6 861.05 241.55 854.8 246.9 850.95 252.2 854.8 250.15 861.05 M294.55 861.05 L288.0 861.05 285.95 854.8 291.3 850.95 296.6 854.8 294.55 861.05" fill="#c3922e" fill-rule="evenodd" stroke="none"/>
  </g>
</svg>
