<?xml version="1.0" encoding="UTF-8" standalone="no"?>
<svg xmlns:ffdec="https://www.free-decompiler.com/flash" xmlns:xlink="http://www.w3.org/1999/xlink" ffdec:objectType="shape" height="244.15px" width="563.95px" xmlns="http://www.w3.org/2000/svg">
  <g transform="matrix(1.0, 0.0, 0.0, 1.0, -241.55, -499.85)">
    <path d="M385.5 737.75 L383.45 744.0 376.9 744.0 374.85 737.75 380.2 733.9 385.5 737.75" fill="#666666" fill-rule="evenodd" stroke="none"/>
    <path d="M291.3 733.9 L296.6 737.75 294.55 744.0 288.0 744.0 285.95 737.75 291.3 733.9" fill="#666666" fill-rule="evenodd" stroke="none"/>
    <path d="M311.4 737.75 L309.35 744.0 302.8 744.0 300.75 737.75 Q303.45 735.85 306.1 733.9 L311.4 737.75" fill="#666666" fill-rule="evenodd" stroke="none"/>
    <path d="M320.9 733.9 L326.2 737.75 324.15 744.0 317.6 744.0 315.55 737.75 320.9 733.9" fill="#666666" fill-rule="evenodd" stroke="none"/>
    <path d="M335.7 733.9 L341.0 737.75 338.95 744.0 332.4 744.0 330.35 737.75 335.7 733.9" fill="#666666" fill-rule="evenodd" stroke="none"/>
    <path d="M350.5 733.9 L355.8 737.75 353.75 744.0 347.2 744.0 345.15 737.75 Q347.85 735.85 350.5 733.9" fill="#666666" fill-rule="evenodd" stroke="none"/>
    <path d="M370.6 737.75 L368.55 744.0 362.0 744.0 359.95 737.75 365.3 733.9 370.6 737.75" fill="#666666" fill-rule="evenodd" stroke="none"/>
    <path d="M276.5 733.9 L281.8 737.75 279.75 744.0 273.2 744.0 271.15 737.75 276.5 733.9" fill="#666666" fill-rule="evenodd" stroke="none"/>
    <path d="M252.2 737.75 L250.15 744.0 243.6 744.0 241.55 737.75 246.9 733.9 252.2 737.75" fill="#666666" fill-rule="evenodd" stroke="none"/>
    <path d="M267.0 737.75 L264.95 744.0 258.4 744.0 256.35 737.75 261.7 733.9 267.0 737.75" fill="#666666" fill-rule="evenodd" stroke="none"/>
    <path d="M264.95 509.95 L258.4 509.95 256.35 503.7 261.7 499.85 267.0 503.7 264.95 509.95 M276.5 499.85 L281.8 503.7 279.75 509.95 273.2 509.95 271.15 503.7 276.5 499.85 M252.2 503.7 L250.15 509.95 243.6 509.95 241.55 503.7 246.9 499.85 252.2 503.7" fill="#c3922e" fill-rule="evenodd" stroke="none"/>
    <path d="M714.55 509.95 L708.0 509.95 705.95 503.7 711.3 499.85 716.6 503.7 714.55 509.95 M726.1 499.85 L731.4 503.7 729.35 509.95 722.8 509.95 720.75 503.7 726.1 499.85 M699.75 509.95 L693.2 509.95 691.15 503.7 696.5 499.85 701.8 503.7 699.75 509.95 M687.0 503.7 L684.95 509.95 678.4 509.95 676.35 503.7 681.7 499.85 687.0 503.7 M670.15 509.95 L663.6 509.95 661.55 503.7 666.9 499.85 672.2 503.7 670.15 509.95 M800.2 499.85 L805.5 503.7 803.45 509.95 796.9 509.95 794.85 503.7 800.2 499.85 M779.95 503.7 L785.3 499.85 790.6 503.7 788.55 509.95 782.0 509.95 779.95 503.7 M775.8 503.7 L773.75 509.95 767.2 509.95 765.15 503.7 770.5 499.85 775.8 503.7 M752.4 509.95 L750.35 503.7 755.7 499.85 761.0 503.7 758.95 509.95 752.4 509.95 M746.2 503.7 L744.15 509.95 737.6 509.95 735.55 503.7 740.9 499.85 746.2 503.7" fill="#c3922e" fill-rule="evenodd" stroke="none"/>
    <path d="M294.55 626.95 L288.0 626.95 285.95 620.7 291.3 616.85 296.6 620.7 294.55 626.95 M300.75 620.7 Q303.45 618.8 306.1 616.85 L311.4 620.7 309.35 626.95 302.8 626.95 300.75 620.7 M315.55 620.7 L320.9 616.85 326.2 620.7 324.15 626.95 317.6 626.95 315.55 620.7 M256.35 620.7 L261.7 616.85 267.0 620.7 264.95 626.95 258.4 626.95 256.35 620.7 M250.15 626.95 L243.6 626.95 241.55 620.7 246.9 616.85 252.2 620.7 250.15 626.95 M271.15 620.7 L276.5 616.85 281.8 620.7 279.75 626.95 273.2 626.95 271.15 620.7 M338.95 626.95 L332.4 626.95 330.35 620.7 335.7 616.85 341.0 620.7 338.95 626.95 M353.75 626.95 L347.2 626.95 345.15 620.7 Q347.85 618.8 350.5 616.85 L355.8 620.7 353.75 626.95" fill="#c3922e" fill-rule="evenodd" stroke="none"/>
    <path d="M661.55 620.7 L666.9 616.85 672.2 620.7 670.15 626.95 663.6 626.95 661.55 620.7 M684.95 626.95 L678.4 626.95 676.35 620.7 681.7 616.85 687.0 620.7 684.95 626.95" fill="#c3922e" fill-rule="evenodd" stroke="none"/>
  </g>
</svg>
