<?xml version="1.0" encoding="UTF-8" standalone="no"?>
<svg xmlns:ffdec="https://www.free-decompiler.com/flash" xmlns:xlink="http://www.w3.org/1999/xlink" ffdec:objectType="shape" height="361.2px" width="534.25px" xmlns="http://www.w3.org/2000/svg">
  <g transform="matrix(1.0, 0.0, 0.0, 1.0, -241.55, -499.85)">
    <path d="M374.85 854.8 L380.2 850.95 385.5 854.8 383.45 861.05 376.9 861.05 374.85 854.8" fill="#666666" fill-rule="evenodd" stroke="none"/>
    <path d="M300.75 854.8 Q303.45 852.9 306.1 850.95 L311.4 854.8 309.35 861.05 302.8 861.05 300.75 854.8" fill="#666666" fill-rule="evenodd" stroke="none"/>
    <path d="M324.15 861.05 L317.6 861.05 315.55 854.8 320.9 850.95 326.2 854.8 324.15 861.05" fill="#666666" fill-rule="evenodd" stroke="none"/>
    <path d="M330.35 854.8 L335.7 850.95 341.0 854.8 338.95 861.05 332.4 861.05 330.35 854.8" fill="#666666" fill-rule="evenodd" stroke="none"/>
    <path d="M345.15 854.8 Q347.85 852.9 350.5 850.95 L355.8 854.8 353.75 861.05 347.2 861.05 345.15 854.8" fill="#666666" fill-rule="evenodd" stroke="none"/>
    <path d="M359.95 854.8 L365.3 850.95 370.6 854.8 368.55 861.05 362.0 861.05 359.95 854.8" fill="#666666" fill-rule="evenodd" stroke="none"/>
    <path d="M309.35 509.95 L302.8 509.95 300.75 503.7 Q303.45 501.8 306.1 499.85 L311.4 503.7 309.35 509.95 M296.6 503.7 L294.55 509.95 288.0 509.95 285.95 503.7 291.3 499.85 296.6 503.7 M264.95 509.95 L258.4 509.95 256.35 503.7 261.7 499.85 267.0 503.7 264.95 509.95 M281.8 503.7 L279.75 509.95 273.2 509.95 271.15 503.7 276.5 499.85 281.8 503.7 M252.2 503.7 L250.15 509.95 243.6 509.95 241.55 503.7 246.9 499.85 252.2 503.7" fill="#c3922e" fill-rule="evenodd" stroke="none"/>
    <path d="M691.15 503.7 L696.5 499.85 701.8 503.7 699.75 509.95 693.2 509.95 691.15 503.7 M684.95 509.95 L678.4 509.95 676.35 503.7 681.7 499.85 687.0 503.7 684.95 509.95 M670.15 509.95 L663.6 509.95 661.55 503.7 666.9 499.85 672.2 503.7 670.15 509.95" fill="#c3922e" fill-rule="evenodd" stroke="none"/>
    <path d="M258.4 626.95 L256.35 620.7 261.7 616.85 267.0 620.7 264.95 626.95 258.4 626.95 M250.15 626.95 L243.6 626.95 241.55 620.7 246.9 616.85 252.2 620.7 250.15 626.95" fill="#c3922e" fill-rule="evenodd" stroke="none"/>
    <path d="M775.8 620.7 L773.75 626.95 767.2 626.95 765.15 620.7 770.5 616.85 775.8 620.7 M729.35 626.95 L722.8 626.95 720.75 620.7 726.1 616.85 731.4 620.7 729.35 626.95 M735.55 620.7 L740.9 616.85 746.2 620.7 744.15 626.95 737.6 626.95 735.55 620.7 M750.35 620.7 L755.7 616.85 761.0 620.7 758.95 626.95 752.4 626.95 750.35 620.7 M691.15 620.7 L696.5 616.85 701.8 620.7 699.75 626.95 693.2 626.95 691.15 620.7 M705.95 620.7 L711.3 616.85 716.6 620.7 714.55 626.95 708.0 626.95 705.95 620.7 M661.55 620.7 L666.9 616.85 672.2 620.7 670.15 626.95 663.6 626.95 661.55 620.7 M684.95 626.95 L678.4 626.95 676.35 620.7 681.7 616.85 687.0 620.7 684.95 626.95" fill="#c3922e" fill-rule="evenodd" stroke="none"/>
    <path d="M261.7 733.9 L267.0 737.75 264.95 744.0 258.4 744.0 256.35 737.75 261.7 733.9 M252.2 737.75 L250.15 744.0 243.6 744.0 241.55 737.75 246.9 733.9 252.2 737.75 M281.8 737.75 L279.75 744.0 273.2 744.0 271.15 737.75 276.5 733.9 281.8 737.75" fill="#c3922e" fill-rule="evenodd" stroke="none"/>
    <path d="M273.2 861.05 L271.15 854.8 276.5 850.95 281.8 854.8 279.75 861.05 273.2 861.05 M264.95 861.05 L258.4 861.05 256.35 854.8 261.7 850.95 267.0 854.8 264.95 861.05 M250.15 861.05 L243.6 861.05 241.55 854.8 246.9 850.95 252.2 854.8 250.15 861.05 M291.3 850.95 L296.6 854.8 294.55 861.05 288.0 861.05 285.95 854.8 291.3 850.95" fill="#c3922e" fill-rule="evenodd" stroke="none"/>
  </g>
</svg>
