<?xml version="1.0" encoding="UTF-8" standalone="no"?>
<svg xmlns:ffdec="https://www.free-decompiler.com/flash" xmlns:xlink="http://www.w3.org/1999/xlink" ffdec:objectType="shape" height="56.55px" width="2.0px" xmlns="http://www.w3.org/2000/svg">
  <g transform="matrix(1.0, 0.0, 0.0, 1.0, -639.3, -901.2)">
    <path d="M641.3 903.2 L639.3 903.2 639.3 901.2 641.3 901.2 641.3 903.2 M641.3 904.5 L641.3 906.5 639.3 906.5 639.3 904.5 641.3 904.5 M641.3 908.5 L641.3 910.5 639.3 910.5 639.3 908.5 641.3 908.5 M641.3 914.5 L639.3 914.5 639.3 912.5 641.3 912.5 641.3 914.5 M639.3 918.5 L639.3 916.5 641.3 916.5 641.3 918.5 639.3 918.5 M641.3 920.5 L641.3 922.5 639.3 922.5 639.3 920.5 641.3 920.5 M641.3 926.5 L639.3 926.5 639.3 924.5 641.3 924.5 641.3 926.5 M639.3 930.5 L639.3 928.5 641.3 928.5 641.3 930.5 639.3 930.5" fill="#58595b" fill-rule="evenodd" stroke="none"/>
    <path d="M641.3 933.75 L639.3 933.75 639.3 931.75 641.3 931.75 641.3 933.75 M639.3 928.45 L641.3 928.45 641.3 930.45 639.3 930.45 639.3 928.45 M641.3 937.75 L639.3 937.75 639.3 935.75 641.3 935.75 641.3 937.75 M641.3 939.75 L641.3 941.75 639.3 941.75 639.3 939.75 641.3 939.75 M639.3 943.75 L641.3 943.75 641.3 945.75 639.3 945.75 639.3 943.75 M641.3 947.75 L641.3 949.75 639.3 949.75 639.3 947.75 641.3 947.75 M641.3 951.75 L641.3 953.75 639.3 953.75 639.3 951.75 641.3 951.75 M639.3 955.75 L641.3 955.75 641.3 957.75 639.3 957.75 639.3 955.75" fill="#58595b" fill-rule="evenodd" stroke="none"/>
  </g>
</svg>
