<?xml version="1.0" encoding="UTF-8" standalone="no"?>
<svg xmlns:ffdec="https://www.free-decompiler.com/flash" xmlns:xlink="http://www.w3.org/1999/xlink" ffdec:objectType="shape" height="77.65px" width="90.4px" xmlns="http://www.w3.org/2000/svg">
  <g transform="matrix(1.0, 0.0, 0.0, 1.0, 38.1, 40.65)">
    <path d="M48.7 -14.15 L52.3 -8.0 48.0 -5.5 48.25 -5.05 45.55 -3.5 39.25 -0.9 39.1 -0.8 39.5 -0.05 35.25 2.45 34.8 1.65 -12.8 29.15 -16.65 32.4 -21.05 34.95 -21.3 34.5 -25.65 37.0 -29.2 30.8 -25.2 28.5 -28.65 22.45 -32.7 24.8 -36.2 18.7 -31.9 16.2 -32.15 15.75 -27.75 13.2 -23.0 11.5 24.6 -15.95 24.25 -16.55 28.55 -19.05 28.9 -18.45 29.05 -18.55 34.45 -22.7 37.15 -24.25 37.4 -23.8 41.7 -26.3 45.25 -20.2 41.15 -17.85 44.6 -11.8 48.7 -14.15" fill="#424242" fill-rule="evenodd" stroke="none"/>
    <path d="M41.3 -7.1 L-16.7 26.4 -24.25 28.55 -28.3 21.55 -22.65 16.05 35.35 -17.45 40.45 -18.25 44.5 -11.25 41.3 -7.1" fill="#959595" fill-rule="evenodd" stroke="none"/>
    <path d="M-11.75 17.4 L-12.35 16.4 -10.9 15.55 -10.3 16.55 -11.75 17.4" fill="#6f6f6f" fill-rule="evenodd" stroke="none"/>
    <path d="M-19.1 21.6 L-19.7 20.6 -16.95 19.05 -16.35 20.05 -19.1 21.6" fill="#6f6f6f" fill-rule="evenodd" stroke="none"/>
    <path d="M36.85 -10.35 L36.25 -10.15 35.45 -11.45 35.95 -11.9 36.75 -12.4 37.45 -12.6 38.2 -11.3 37.7 -10.8 36.85 -10.35" fill="#424242" fill-rule="evenodd" stroke="none"/>
    <path d="M12.05 5.1 L10.25 1.95 12.85 0.45 14.7 3.6 12.05 5.1" fill="#424242" fill-rule="evenodd" stroke="none"/>
    <path d="M35.6 -10.15 L35.1 -11.0 35.85 -11.45 36.35 -10.6 35.6 -10.15" fill="#424242" fill-rule="evenodd" stroke="none"/>
    <path d="M-15.75 17.9 L-15.15 17.75 -14.4 19.05 -14.85 19.5 -15.7 20.0 -16.35 20.2 -17.1 18.9 -16.6 18.4 -15.75 17.9" fill="#424242" fill-rule="evenodd" stroke="none"/>
    <path d="M-22.9 22.4 L-22.5 22.25 -21.95 23.25 -22.25 23.5 -22.85 23.85 -23.3 24.0 -23.85 23.05 -23.5 22.7 -22.9 22.4" fill="#424242" fill-rule="evenodd" stroke="none"/>
    <path d="M-14.55 17.65 L-14.05 18.5 -14.85 18.95 -15.35 18.1 -14.55 17.65" fill="#424242" fill-rule="evenodd" stroke="none"/>
    <path d="M40.55 -13.65 L39.05 -16.25 40.9 -17.3 42.4 -14.7 40.55 -13.65" fill="#424242" fill-rule="evenodd" stroke="none"/>
    <path d="M-12.0 16.95 L-12.1 16.8 -10.65 15.95 -10.55 16.1 -12.0 16.95" fill="#424242" fill-rule="evenodd" stroke="none"/>
    <path d="M8.55 -22.0 L9.1 -21.05 9.4 -21.2 11.3 -17.9 11.0 -17.75 13.55 -13.35 13.35 -10.0 14.0 -10.35 15.15 -8.35 15.75 -3.25 19.35 2.95 23.45 6.1 24.6 8.1 23.6 8.65 24.95 11.05 Q21.8 12.9 18.6 14.7 L18.75 14.95 15.5 16.85 15.35 16.6 13.3 17.8 11.9 15.4 10.85 16.05 9.75 14.15 9.05 8.9 5.5 2.7 1.35 -0.4 0.2 -2.4 1.2 -3.0 -0.95 -4.2 -2.85 -3.15 -2.95 -3.35 -6.15 -1.5 -6.4 -1.95 -10.6 0.55 -10.2 1.3 -20.3 7.15 -22.55 3.2 -23.5 3.7 -26.55 -1.6 -25.65 -2.1 -26.8 -4.15 -25.15 -5.1 -25.45 -5.65 -28.0 -4.2 -29.5 -6.75 -28.75 -7.15 -33.7 -15.75 -34.55 -15.25 -38.1 -21.35 -37.25 -21.85 -37.95 -23.1 -27.45 -29.15 -26.8 -27.95 -4.8 -40.65 -3.7 -38.8 -2.85 -39.3 1.35 -32.0 0.5 -31.5 1.3 -30.1 -0.25 -29.15 1.35 -26.35 0.95 -26.1 -2.45 -25.8 -3.85 -23.3 Q-4.05 -23.15 -4.3 -23.05 L-5.9 -25.9 -13.3 -21.65 -12.85 -20.85 -18.9 -17.35 -19.35 -18.15 -20.65 -17.4 -18.25 -13.2 -16.35 -14.3 -12.7 -8.0 -10.6 -9.3 -10.75 -9.6 -10.45 -9.75 -10.75 -10.3 -6.2 -12.9 -5.9 -12.4 -5.55 -12.6 -4.7 -14.3 -3.75 -14.85 -4.2 -15.65 -1.75 -17.05 -1.65 -16.85 3.05 -19.55 3.4 -19.0 8.55 -22.0" fill="#424242" fill-rule="evenodd" stroke="none"/>
    <path d="M8.4 -21.3 L8.95 -20.35 9.2 -20.5 10.65 -18.1 10.35 -17.9 13.05 -13.25 12.8 -9.1 13.8 -9.7 14.65 -8.2 15.3 -3.1 18.95 3.3 23.1 6.45 23.95 7.9 22.9 8.5 24.3 10.85 17.95 14.5 18.1 14.8 15.7 16.15 15.55 15.9 13.45 17.1 12.1 14.75 11.0 15.35 10.25 14.0 9.55 8.7 5.85 2.35 1.75 -0.75 0.9 -2.25 1.95 -2.85 1.7 -3.3 -1.25 -4.9 -1.45 -4.8 -1.3 -4.6 -2.65 -3.8 -2.75 -4.05 -5.95 -2.2 -6.2 -2.65 -11.3 0.4 -10.85 1.15 -20.1 6.45 -22.4 2.5 -23.3 3.05 -25.85 -1.4 -24.95 -1.95 -26.1 -3.95 -24.45 -4.9 -25.3 -6.35 -27.8 -4.85 -28.8 -6.55 -28.1 -7.0 -33.55 -16.45 -34.35 -15.95 -37.4 -21.2 -36.55 -21.65 -37.3 -22.9 -27.65 -28.5 -25.9 -25.45 -25.05 -25.9 -26.1 -27.8 -5.0 -40.0 -3.9 -38.1 -3.05 -38.6 0.7 -32.2 -0.2 -31.7 0.65 -30.25 -0.95 -29.35 0.95 -26.1 -3.85 -23.3 -5.75 -26.6 -14.0 -21.8 -13.55 -21.05 -18.7 -18.05 -19.15 -18.85 -20.5 -18.05 -21.3 -19.45 -22.15 -18.95 -18.9 -13.3 -19.25 -13.1 -18.8 -12.3 -16.5 -13.6 -12.85 -7.3 -9.9 -9.1 -10.05 -9.4 -9.8 -9.6 -10.1 -10.1 -6.4 -12.2 -6.1 -11.7 -5.2 -12.25 -4.35 -13.95 8.4 -21.3" fill="#939393" fill-rule="evenodd" stroke="none"/>
    <path d="M15.1 9.45 L14.3 8.05 15.5 7.35 16.3 8.75 15.1 9.45" fill="#6f6f6f" fill-rule="evenodd" stroke="none"/>
    <path d="M18.65 13.95 L18.4 13.5 22.75 10.95 23.05 11.45 18.65 13.95" fill="#6f6f6f" fill-rule="evenodd" stroke="none"/>
    <path d="M12.65 15.5 L12.35 14.95 12.75 14.7 13.1 15.25 12.65 15.5" fill="#6f6f6f" fill-rule="evenodd" stroke="none"/>
    <path d="M22.85 9.65 L22.5 9.05 22.9 8.85 23.25 9.45 22.85 9.65" fill="#6f6f6f" fill-rule="evenodd" stroke="none"/>
    <path d="M-6.95 -11.45 L-7.15 -11.8 -6.8 -12.0 -6.6 -11.65 -6.95 -11.45" fill="#6f6f6f" fill-rule="evenodd" stroke="none"/>
    <path d="M-8.1 -10.8 L-8.3 -11.1 -7.95 -11.3 -7.75 -11.0 -8.1 -10.8" fill="#6f6f6f" fill-rule="evenodd" stroke="none"/>
    <path d="M-9.45 -10.05 L-9.6 -10.35 -9.25 -10.55 -9.1 -10.25 -9.45 -10.05" fill="#6f6f6f" fill-rule="evenodd" stroke="none"/>
    <path d="M-26.15 -16.6 L-28.75 -15.1 -29.6 -16.55 -27.0 -18.1 -26.15 -16.6" fill="#6f6f6f" fill-rule="evenodd" stroke="none"/>
    <path d="M-28.7 -9.0 L-29.15 -8.75 -30.85 -11.75 -30.45 -12.0 -28.7 -9.0" fill="#6f6f6f" fill-rule="evenodd" stroke="none"/>
    <path d="M-19.5 -14.3 L-19.95 -14.05 -21.7 -17.05 -21.25 -17.3 -19.5 -14.3" fill="#6f6f6f" fill-rule="evenodd" stroke="none"/>
    <path d="M-12.2 1.9 L-12.65 2.2 -12.85 1.85 -12.4 1.55 -12.2 1.9" fill="#6f6f6f" fill-rule="evenodd" stroke="none"/>
    <path d="M-12.8 2.25 L-13.25 2.55 -13.45 2.2 -13.0 1.9 -12.8 2.25" fill="#6f6f6f" fill-rule="evenodd" stroke="none"/>
    <path d="M-17.3 4.85 L-17.75 5.15 -17.95 4.8 -17.5 4.5 -17.3 4.85" fill="#6f6f6f" fill-rule="evenodd" stroke="none"/>
    <path d="M-17.9 5.2 L-18.35 5.5 -18.55 5.15 -18.1 4.85 -17.9 5.2" fill="#6f6f6f" fill-rule="evenodd" stroke="none"/>
    <path d="M-17.75 -9.55 L-19.15 -8.75 -19.2 -8.85 -17.8 -9.65 -17.75 -9.55" fill="#6f6f6f" fill-rule="evenodd" stroke="none"/>
    <path d="M-22.3 -6.0 L-22.55 -5.85 -23.25 -7.0 -22.95 -7.15 -22.3 -6.0" fill="#6f6f6f" fill-rule="evenodd" stroke="none"/>
    <path d="M-21.4 -6.5 L-21.65 -6.35 -22.35 -7.5 -22.05 -7.65 -21.4 -6.5" fill="#6f6f6f" fill-rule="evenodd" stroke="none"/>
    <path d="M-20.45 -7.05 L-20.7 -6.9 -21.35 -8.1 -21.1 -8.25 -20.45 -7.05" fill="#6f6f6f" fill-rule="evenodd" stroke="none"/>
    <path d="M-19.4 -7.65 L-19.65 -7.5 -20.3 -8.7 -20.05 -8.85 -19.4 -7.65" fill="#6f6f6f" fill-rule="evenodd" stroke="none"/>
    <path d="M12.05 5.1 L10.25 1.95 12.85 0.45 14.7 3.6 12.05 5.1" fill="#424242" fill-rule="evenodd" stroke="none"/>
    <path d="M-0.7 -15.75 L-1.15 -16.55 2.85 -18.85 3.35 -18.05 -0.7 -15.75" fill="#424242" fill-rule="evenodd" stroke="none"/>
    <path d="M-3.05 -14.65 L-3.5 -15.45 -1.95 -16.35 -1.45 -15.55 -3.05 -14.65" fill="#424242" fill-rule="evenodd" stroke="none"/>
    <path d="M15.6 9.15 L14.8 7.75 14.95 7.65 15.8 9.05 15.6 9.15" fill="#424242" fill-rule="evenodd" stroke="none"/>
    <path d="M-26.5 -16.05 L-26.5 -15.6 -26.75 -15.15 -27.15 -14.95 -27.65 -14.95 -28.05 -15.15 -29.2 -17.15 -29.2 -17.65 -29.0 -18.05 -28.55 -18.3 -28.1 -18.3 -27.65 -18.05 -26.5 -16.05" fill="#424242" fill-rule="evenodd" stroke="none"/>
    <path d="M-12.65 -28.55 L-12.4 -28.15 -12.4 -27.65 -12.65 -27.25 -14.65 -26.1 -15.15 -26.1 -15.55 -26.35 -15.8 -26.75 -15.8 -27.25 -15.55 -27.65 -13.55 -28.8 -13.1 -28.8 -12.65 -28.55" fill="#424242" fill-rule="evenodd" stroke="none"/>
    <path d="M-15.1 -10.2 L-17.25 -9.0 -18.85 -11.8 -16.75 -13.05 -15.1 -10.2" fill="#424242" fill-rule="evenodd" stroke="none"/>
    <path d="M6.6 3.6 L8.75 7.35 -3.55 14.4 -5.7 10.7 6.6 3.6" fill="#ffffff" fill-rule="evenodd" stroke="none"/>
    <path d="M28.25 -8.9 L30.4 -5.2 18.15 1.9 16.0 -1.85 28.25 -8.9" fill="#ffffff" fill-rule="evenodd" stroke="none"/>
  </g>
</svg>
