<?xml version="1.0" encoding="UTF-8" standalone="no"?>
<svg xmlns:ffdec="https://www.free-decompiler.com/flash" xmlns:xlink="http://www.w3.org/1999/xlink" ffdec:objectType="shape" height="347.5px" width="432.0px" xmlns="http://www.w3.org/2000/svg">
  <g transform="matrix(1.0, 0.0, 0.0, 1.0, 212.2, 316.35)">
    <path d="M149.8 -301.35 L149.8 -299.85 163.8 -299.85 163.8 -301.35 204.8 -301.35 204.8 -299.35 209.8 -299.85 209.8 -230.35 211.3 -228.85 211.3 -221.35 213.3 -221.35 213.3 -175.85 211.3 -175.85 211.3 -169.85 217.8 -169.85 217.8 -51.35 219.8 -51.35 219.8 -36.35 217.8 -36.35 217.8 18.15 213.3 18.15 213.3 22.65 205.8 22.65 205.8 18.15 95.8 18.15 95.8 22.65 88.3 22.65 88.3 18.15 30.8 18.15 30.8 31.15 26.8 31.15 26.8 28.65 -13.2 28.65 -13.2 31.15 -17.2 31.15 -17.2 18.15 -144.2 18.15 -144.2 10.15 -194.2 10.15 -194.2 15.15 -201.7 15.15 -201.7 10.15 -203.7 10.15 -210.2 3.65 -210.2 -163.35 -212.2 -163.35 -212.2 -170.85 -210.2 -170.85 -210.2 -300.35 -75.7 -300.35 -75.7 -316.35 -60.7 -316.35 -60.7 -301.35 -30.7 -301.35 -30.7 -299.35 -28.2 -299.35 -28.2 -302.35 -20.7 -302.35 -20.7 -299.35 -13.2 -299.35 -13.2 -300.35 26.8 -300.35 26.8 -299.35 Q65.3 -299.35 103.8 -299.85 L103.8 -301.35 149.8 -301.35" fill="#424242" fill-rule="evenodd" stroke="none"/>
    <path d="M17.3 -84.85 L17.3 -10.35 -13.2 -10.35 -13.2 -84.85 17.3 -84.85" fill="#ffffff" fill-rule="evenodd" stroke="none"/>
    <path d="M-12.7 -84.85 L-12.7 -21.35 17.8 -21.35 17.8 -84.85 -12.7 -84.85 M-46.7 -84.35 L-46.7 -86.35 -49.2 -86.35 -49.2 -84.35 -46.7 -84.35 M-76.2 -119.35 L-76.2 -110.35 -72.2 -110.35 -72.2 -124.85 -76.2 -124.85 -76.2 -121.35 -95.2 -121.35 -95.2 -119.35 -76.2 -119.35 M16.8 -162.35 L16.8 -161.35 36.3 -161.35 36.3 -95.35 37.8 -95.35 37.8 -82.35 36.3 -82.35 36.3 -59.85 37.8 -59.85 37.8 -46.85 36.3 -46.85 36.3 7.15 23.3 7.15 23.3 9.65 -9.7 9.65 -9.7 7.15 -36.7 7.15 -36.7 9.65 -69.7 9.65 -69.7 7.15 -72.2 7.15 -72.2 -95.35 -76.2 -95.35 -76.2 -57.85 -135.2 -57.85 -135.2 -62.35 -136.7 -62.35 -136.7 -94.35 -135.7 -94.35 Q-135.2 -106.85 -135.2 -119.35 L-109.2 -119.35 -109.2 -121.35 -135.2 -121.35 -135.2 -122.35 -136.7 -122.35 -136.7 -154.85 -135.2 -154.85 -135.2 -158.85 -76.2 -158.85 -76.2 -138.35 -72.2 -138.35 -72.2 -161.35 -64.7 -161.35 -64.7 -162.35 -43.2 -162.35 -43.2 -161.35 -5.2 -161.35 -5.2 -162.35 16.8 -162.35" fill="#939393" fill-rule="evenodd" stroke="none"/>
    <path d="M-38.2 -159.85 L-38.2 -153.85 -51.7 -153.85 -51.7 -159.85 -38.2 -159.85" fill="#6f6f6f" fill-rule="evenodd" stroke="none"/>
    <path d="M-22.2 -160.35 L-22.2 -154.35 -35.7 -154.35 -35.7 -160.35 -22.2 -160.35" fill="#6f6f6f" fill-rule="evenodd" stroke="none"/>
    <path d="M-52.7 -160.35 L-52.7 -154.35 -66.2 -154.35 -66.2 -160.35 -52.7 -160.35" fill="#6f6f6f" fill-rule="evenodd" stroke="none"/>
    <path d="M-6.2 -160.35 L-6.2 -154.85 -19.7 -154.85 -19.7 -160.35 -6.2 -160.35" fill="#6f6f6f" fill-rule="evenodd" stroke="none"/>
    <path d="M23.3 -160.35 L23.3 -154.35 9.8 -154.35 9.8 -160.35 23.3 -160.35" fill="#6f6f6f" fill-rule="evenodd" stroke="none"/>
    <path d="M36.3 -154.35 L36.3 -137.35 33.8 -137.35 33.8 -154.35 36.3 -154.35" fill="#6f6f6f" fill-rule="evenodd" stroke="none"/>
    <path d="M33.8 -118.35 L33.8 -135.35 36.3 -135.35 36.3 -118.35 33.8 -118.35" fill="#6f6f6f" fill-rule="evenodd" stroke="none"/>
    <path d="M31.8 -63.85 L31.8 -78.35 35.8 -78.35 35.8 -63.85 31.8 -63.85" fill="#6f6f6f" fill-rule="evenodd" stroke="none"/>
    <path d="M8.3 -160.35 L8.3 -154.35 -5.2 -154.35 -5.2 -160.35 8.3 -160.35" fill="#6f6f6f" fill-rule="evenodd" stroke="none"/>
    <path d="M29.8 -7.85 Q32.8 -6.85 35.8 -6.35 L33.8 -0.85 28.3 -2.35 Q29.3 -4.85 29.8 -7.85" fill="#6f6f6f" fill-rule="evenodd" stroke="none"/>
    <path d="M35.3 0.15 Q35.8 3.15 35.8 6.15 L30.3 6.65 29.3 1.15 35.3 0.15" fill="#6f6f6f" fill-rule="evenodd" stroke="none"/>
    <path d="M-26.2 7.15 L-26.2 0.65 -12.7 0.65 -12.7 7.15 -26.2 7.15" fill="#6f6f6f" fill-rule="evenodd" stroke="none"/>
    <path d="M-15.7 -37.35 L-15.7 -22.85 -19.7 -22.85 -19.7 -37.35 -15.7 -37.35" fill="#6f6f6f" fill-rule="evenodd" stroke="none"/>
    <path d="M-71.7 -38.35 L-71.7 -59.85 -62.7 -59.85 -62.7 -38.35 -71.7 -38.35" fill="#6f6f6f" fill-rule="evenodd" stroke="none"/>
    <path d="M-71.2 -8.35 L-71.2 -21.85 -65.2 -21.85 -65.2 -8.35 -71.2 -8.35" fill="#6f6f6f" fill-rule="evenodd" stroke="none"/>
    <path d="M-71.7 -7.35 L-65.2 -7.35 -65.2 6.15 -71.7 6.15 -71.7 -7.35" fill="#6f6f6f" fill-rule="evenodd" stroke="none"/>
    <path d="M-49.2 -83.85 L-49.2 -86.35 -46.7 -86.35 -46.7 -83.85 -49.2 -83.85" fill="#6f6f6f" fill-rule="evenodd" stroke="none"/>
    <path d="M-12.7 -86.35 L-12.7 -22.85 17.3 -22.85 17.3 -84.85 17.8 -84.85 17.8 -86.35 20.3 -86.35 20.3 -83.85 19.3 -83.85 19.3 -19.85 -14.2 -19.85 -14.2 -83.85 -15.2 -83.85 -15.2 -86.35 -12.7 -86.35" fill="#6f6f6f" fill-rule="evenodd" stroke="none"/>
    <path d="M31.8 -101.85 L31.8 -116.85 36.3 -116.85 36.3 -101.85 31.8 -101.85" fill="#6f6f6f" fill-rule="evenodd" stroke="none"/>
    <path d="M-64.2 -143.85 L-70.2 -145.85 -68.2 -152.35 -62.2 -150.35 -64.2 -143.85" fill="#6f6f6f" fill-rule="evenodd" stroke="none"/>
    <path d="M-76.7 -112.35 L-93.2 -112.35 -93.2 -117.85 -82.7 -117.85 -82.7 -117.35 -76.7 -117.35 -76.7 -112.35" fill="#6f6f6f" fill-rule="evenodd" stroke="none"/>
    <path d="M-126.7 -143.85 L-134.2 -143.85 -134.2 -157.35 -121.7 -157.35 -119.2 -156.85 -114.2 -156.35 -114.2 -150.35 -126.7 -150.35 -126.7 -143.85" fill="#6f6f6f" fill-rule="evenodd" stroke="none"/>
    <path d="M-134.2 -127.35 L-127.7 -128.35 -126.7 -121.85 -133.2 -121.35 -134.2 -127.35" fill="#6f6f6f" fill-rule="evenodd" stroke="none"/>
    <path d="M-122.7 -113.35 L-127.2 -113.35 -127.2 -117.85 -122.7 -117.85 -122.7 -113.35" fill="#6f6f6f" fill-rule="evenodd" stroke="none"/>
    <path d="M-133.7 -98.85 Q-133.7 -101.35 -134.2 -103.85 L-131.2 -103.85 -131.2 -98.85 -133.7 -98.85" fill="#6f6f6f" fill-rule="evenodd" stroke="none"/>
    <path d="M-134.7 -113.35 Q-134.2 -113.35 -134.2 -113.85 L-134.7 -113.85 -134.7 -118.35 -130.2 -118.35 -130.2 -116.85 Q-129.2 -116.35 -128.2 -116.35 L-130.2 -111.85 Q-132.2 -112.35 -134.7 -113.35" fill="#6f6f6f" fill-rule="evenodd" stroke="none"/>
    <path d="M-129.7 -110.85 Q-129.2 -108.85 -129.2 -107.35 L-133.7 -106.85 Q-133.7 -108.35 -134.2 -110.35 L-129.7 -110.85" fill="#6f6f6f" fill-rule="evenodd" stroke="none"/>
    <path d="M-83.2 -65.85 L-83.2 -82.85 -75.7 -82.85 -75.7 -65.85 -83.2 -65.85" fill="#6f6f6f" fill-rule="evenodd" stroke="none"/>
    <path d="M-83.7 -64.85 L-83.7 -59.85 -79.7 -59.85 -79.7 -57.85 -96.2 -57.85 -96.2 -59.85 -118.2 -59.85 -118.2 -71.35 -88.7 -71.35 -88.7 -64.85 -83.7 -64.85" fill="#6f6f6f" fill-rule="evenodd" stroke="none"/>
    <path d="M-119.7 -70.85 Q-123.7 -69.85 -128.2 -69.35 -128.2 -66.85 -128.7 -64.35 L-127.7 -64.35 -127.7 -57.85 -134.2 -57.85 Q-134.2 -64.85 -134.7 -71.85 L-128.7 -71.85 Q-130.7 -84.35 -133.2 -97.35 L-124.2 -98.85 Q-121.7 -84.85 -119.7 -70.85" fill="#6f6f6f" fill-rule="evenodd" stroke="none"/>
    <path d="M-126.7 -61.35 Q-125.7 -64.35 -125.2 -67.85 -122.2 -66.85 -119.2 -66.35 -119.7 -63.35 -120.7 -60.35 L-126.7 -61.35" fill="#6f6f6f" fill-rule="evenodd" stroke="none"/>
    <path d="M-64.7 -73.35 L-65.7 -67.35 -72.2 -68.35 -71.2 -74.35 -64.7 -73.35" fill="#6f6f6f" fill-rule="evenodd" stroke="none"/>
  </g>
</svg>
