<?xml version="1.0" encoding="UTF-8" standalone="no"?>
<svg xmlns:ffdec="https://www.free-decompiler.com/flash" xmlns:xlink="http://www.w3.org/1999/xlink" ffdec:objectType="shape" height="6.6px" width="11.25px" xmlns="http://www.w3.org/2000/svg">
  <g transform="matrix(1.0, 0.0, 0.0, 1.0, -3.05, -3.95)">
    <path d="M5.95 3.95 L6.85 4.1 Q7.3 4.2 7.55 4.5 L8.0 5.15 8.15 5.95 Q8.15 7.0 7.3 7.55 7.95 7.95 7.95 8.9 L7.95 9.75 8.1 10.55 7.2 10.55 7.1 10.25 7.05 9.8 7.05 8.9 Q7.05 8.05 6.0 8.05 L3.95 8.05 3.95 10.55 3.05 10.55 3.05 3.95 5.95 3.95 M7.25 6.0 Q7.25 4.85 5.95 4.85 L3.95 4.85 3.95 7.15 6.0 7.15 6.9 6.85 7.25 6.0 M12.15 3.95 L13.0 4.1 13.7 4.5 14.1 5.15 14.3 5.95 14.1 6.8 13.7 7.45 13.0 7.85 12.15 8.05 10.2 8.05 10.2 10.55 9.3 10.55 9.3 3.95 12.15 3.95 M13.4 5.95 Q13.4 5.4 13.0 5.1 12.75 4.85 12.15 4.85 L10.2 4.85 10.2 7.15 12.15 7.15 13.0 6.85 Q13.4 6.55 13.4 5.95" fill="#ffffff" fill-rule="evenodd" stroke="none"/>
  </g>
</svg>
