<?xml version="1.0" encoding="UTF-8" standalone="no"?>
<svg xmlns:ffdec="https://www.free-decompiler.com/flash" xmlns:xlink="http://www.w3.org/1999/xlink" ffdec:objectType="shape" height="13.0px" width="13.0px" xmlns="http://www.w3.org/2000/svg">
  <g transform="matrix(1.0, 0.0, 0.0, 1.0, 13.0, 0.0)">
    <path d="M-4.65 4.65 L-4.2 3.3 Q-4.65 2.95 -5.7 2.9 L-5.7 1.85 -7.15 1.85 -7.15 2.95 Q-8.65 3.5 -8.65 5.05 -8.65 6.6 -6.75 7.3 -6.1 7.5 -5.85 7.8 -5.55 8.0 -5.7 8.25 -5.7 8.9 -6.55 8.9 L-7.7 8.65 -8.3 8.3 -8.8 9.6 -8.35 9.9 -7.15 10.25 -7.15 11.25 -5.7 11.25 -5.7 10.1 Q-4.2 9.6 -4.2 8.15 -4.2 6.75 -6.1 5.95 -7.15 5.6 -7.15 4.95 -7.15 4.15 -6.05 4.15 -5.15 4.15 -4.65 4.65 M-6.5 0.0 Q-3.75 0.0 -1.9 1.9 0.0 3.8 0.0 6.5 0.0 9.2 -1.9 11.1 -3.75 13.0 -6.5 13.0 -9.15 13.0 -11.1 11.1 -13.0 9.2 -13.0 6.5 -13.0 3.8 -11.1 1.9 -9.2 0.0 -6.5 0.0" fill="#4ecd58" fill-rule="evenodd" stroke="none"/>
    <path d="M-4.65 4.65 Q-5.15 4.15 -6.05 4.15 -7.15 4.15 -7.15 4.95 -7.15 5.6 -6.1 5.95 -4.2 6.75 -4.2 8.15 -4.2 9.6 -5.7 10.1 L-5.7 11.25 -7.15 11.25 -7.15 10.25 -8.35 9.9 -8.8 9.6 -8.3 8.3 -7.7 8.65 -6.55 8.9 Q-5.7 8.9 -5.7 8.25 -5.55 8.0 -5.85 7.8 -6.1 7.5 -6.75 7.3 -8.65 6.6 -8.65 5.05 -8.65 3.5 -7.15 2.95 L-7.15 1.85 -5.7 1.85 -5.7 2.9 Q-4.65 2.95 -4.2 3.3 L-4.65 4.65" fill="#f5f5f5" fill-rule="evenodd" stroke="none"/>
  </g>
</svg>
