<?xml version="1.0" encoding="UTF-8" standalone="no"?>
<svg xmlns:ffdec="https://www.free-decompiler.com/flash" xmlns:xlink="http://www.w3.org/1999/xlink" ffdec:objectType="shape" height="15.0px" width="15.0px" xmlns="http://www.w3.org/2000/svg">
  <g transform="matrix(1.0, 0.0, 0.0, 1.0, 7.5, 7.5)">
    <path d="M1.4 -1.0 L1.25 -2.1 -2.15 -1.1 -2.35 -0.3 -2.3 -0.35 -2.05 -0.35 Q-1.7 -0.35 -1.7 -0.05 L-1.75 0.25 -2.65 2.95 -2.85 3.45 -2.9 4.1 Q-2.9 4.8 -2.5 5.2 -2.1 5.6 -1.4 5.6 -0.25 5.6 0.95 4.4 L0.8 3.55 0.65 3.7 0.05 4.05 -0.1 3.85 0.05 3.2 1.15 0.2 1.4 -1.0 M2.3 -4.35 Q2.3 -5.0 1.85 -5.45 1.4 -5.95 0.7 -5.95 0.05 -5.95 -0.45 -5.45 L-0.9 -4.3 Q-0.9 -3.65 -0.45 -3.2 0.0 -2.7 0.7 -2.7 1.35 -2.7 1.8 -3.2 2.3 -3.65 2.3 -4.35 M0.0 -7.5 L2.95 -6.95 Q4.3 -6.35 5.3 -5.3 6.35 -4.25 6.9 -2.9 7.5 -1.55 7.5 0.0 7.5 1.5 6.9 2.95 6.35 4.25 5.3 5.3 4.3 6.35 2.95 6.9 1.55 7.5 0.0 7.5 -1.55 7.5 -2.9 6.9 L-5.3 5.3 Q-6.35 4.25 -6.9 2.95 -7.5 1.5 -7.5 0.0 -7.5 -1.55 -6.9 -2.9 -6.35 -4.25 -5.3 -5.3 -4.25 -6.35 -2.9 -6.95 -1.55 -7.5 0.0 -7.5" fill="#ffffff" fill-rule="evenodd" stroke="none"/>
  </g>
</svg>
