<?xml version="1.0" encoding="UTF-8" standalone="no"?>
<svg xmlns:ffdec="https://www.free-decompiler.com/flash" xmlns:xlink="http://www.w3.org/1999/xlink" ffdec:objectType="shape" height="280.0px" width="513.5px" xmlns="http://www.w3.org/2000/svg">
  <g transform="matrix(1.0, 0.0, 0.0, 1.0, 199.0, 154.0)">
    <path d="M314.5 -154.0 L314.5 126.0 -199.0 126.0 -199.0 -154.0 314.5 -154.0" fill="#434343" fill-rule="evenodd" stroke="none"/>
    <path d="M298.3 -144.3 L298.3 -83.3 281.75 -83.3 281.75 -78.5 307.0 -78.5 307.0 55.5 -146.75 55.5 -146.75 61.15 -94.35 61.15 -94.35 120.0 -103.35 120.0 -103.35 126.0 -130.35 126.0 -130.35 120.0 -191.7 120.0 -191.7 61.15 -175.0 61.15 -175.0 55.5 -192.0 55.5 -192.0 -78.5 253.5 -78.5 253.5 -83.3 199.0 -83.3 199.0 -144.3 298.3 -144.3" fill="#969696" fill-rule="evenodd" stroke="none"/>
    <path d="M-191.7 120.0 L-191.7 85.3 -174.35 85.3 -174.35 107.0 -136.0 107.0 -136.0 120.0 -191.7 120.0" fill="#707070" fill-rule="evenodd" stroke="none"/>
    <path d="M-94.35 61.15 L-94.35 79.0 -114.7 79.0 -114.7 74.3 -126.35 74.3 -126.35 61.15 -94.35 61.15" fill="#707070" fill-rule="evenodd" stroke="none"/>
    <path d="M216.65 -102.3 L239.0 -102.3 239.0 -83.3 199.0 -83.3 199.0 -111.65 216.65 -111.65 216.65 -102.3" fill="#707070" fill-rule="evenodd" stroke="none"/>
    <path d="M298.3 -144.3 L298.3 -111.65 287.3 -111.65 287.3 -130.3 263.65 -130.3 263.65 -144.3 298.3 -144.3" fill="#707070" fill-rule="evenodd" stroke="none"/>
  </g>
</svg>
