<?xml version="1.0" encoding="UTF-8" standalone="no"?>
<svg xmlns:ffdec="https://www.free-decompiler.com/flash" xmlns:xlink="http://www.w3.org/1999/xlink" ffdec:objectType="shape" height="108.0px" width="160.0px" xmlns="http://www.w3.org/2000/svg">
  <g transform="matrix(1.0, 0.0, 0.0, 1.0, 80.0, 54.0)">
    <path d="M-80.0 42.0 L-77.95 42.0 -77.95 52.0 -66.0 52.0 -66.0 54.0 -80.0 54.0 -80.0 42.0 M-80.0 -54.0 L-65.0 -54.0 -65.0 -52.05 -77.95 -52.05 -77.95 -42.05 -80.0 -42.05 -80.0 -54.0 M77.95 42.0 L80.0 42.0 80.0 53.95 65.0 53.95 65.0 52.0 77.95 52.0 77.95 42.0 M6.15 -8.85 L8.8 -6.2 2.65 0.0 8.8 6.15 6.15 8.85 -0.05 2.65 -6.2 8.85 -8.85 6.15 -2.7 0.0 -8.85 -6.2 -6.2 -8.85 -0.05 -2.65 6.15 -8.85 M64.95 -54.0 L80.0 -54.0 80.0 -42.0 78.0 -42.0 78.0 -52.0 64.95 -52.0 64.95 -54.0" fill="#14e821" fill-rule="evenodd" stroke="none"/>
  </g>
</svg>
