<?xml version="1.0" encoding="UTF-8" standalone="no"?>
<svg xmlns:ffdec="https://www.free-decompiler.com/flash" xmlns:xlink="http://www.w3.org/1999/xlink" ffdec:objectType="shape" height="506.4px" width="829.9px" xmlns="http://www.w3.org/2000/svg">
  <g transform="matrix(1.0, 0.0, 0.0, 1.0, 211.55, 236.05)">
    <path d="M507.55 -100.85 L618.35 -100.85 618.35 270.35 -211.55 270.35 -211.55 -236.05 507.55 -236.05 507.55 -100.85" fill="#434343" fill-rule="evenodd" stroke="none"/>
    <path d="M315.2 138.0 L316.45 138.0 316.35 138.25 316.0 140.7 316.1 141.65 315.2 138.0" fill="#969696" fill-rule="evenodd" stroke="none"/>
    <path d="M223.35 135.25 L223.0 137.7 223.35 140.15 224.35 142.4 225.95 144.25 228.05 145.6 230.4 146.25 232.9 146.25 235.25 145.6 237.3 144.25 238.95 142.4 239.95 140.15 240.3 137.7 239.95 135.25 238.95 133.0 237.3 131.15 235.25 129.8 232.9 129.1 230.4 129.1 228.05 129.8 225.95 131.15 224.35 133.0 223.35 135.25 M307.0 -110.5 L376.5 -110.5 376.5 -76.5 451.5 -76.5 451.5 80.7 376.5 80.7 376.5 138.0 332.85 138.0 331.95 136.0 330.3 134.15 328.25 132.8 325.9 132.1 323.4 132.1 321.05 132.8 318.95 134.15 317.35 136.0 316.45 138.0 315.2 138.0 316.35 143.15 316.65 143.9 318.35 150.65 319.4 166.9 317.55 183.05 312.8 198.65 305.35 213.1 295.45 226.0 283.4 236.95 269.6 245.55 254.5 251.6 238.55 254.8 222.3 255.1 206.2 252.5 190.9 247.1 176.75 239.0 164.3 228.55 153.9 216.05 145.9 201.85 140.6 186.45 138.1 170.4 138.5 154.15 140.15 146.25 142.4 146.25 144.75 145.6 146.8 144.25 148.45 142.4 149.45 140.15 149.8 137.7 149.45 135.25 148.45 133.0 146.8 131.15 144.75 129.8 142.4 129.1 139.9 129.1 137.55 129.8 135.45 131.15 133.85 133.0 132.85 135.25 132.5 137.7 65.7 137.7 65.35 135.25 64.3 133.0 62.7 131.15 60.6 129.8 58.25 129.1 55.8 129.1 53.4 129.8 51.35 131.15 49.75 133.0 48.7 135.25 48.35 137.7 -36.0 137.7 -36.05 137.5 -37.05 135.25 -38.7 133.4 -40.75 132.05 -43.1 131.35 -45.6 131.35 -47.95 132.05 -50.05 133.4 -51.35 134.95 -51.35 -94.95 -50.05 -93.95 -47.75 -93.45 -45.45 -93.9 -43.5 -95.25 -42.3 -97.25 -42.0 -99.6 -42.7 -101.85 -44.25 -103.6 -46.4 -104.6 -48.75 -104.65 -50.9 -103.7 -51.35 -103.2 -51.35 -117.5 -57.35 -117.5 -57.35 -78.0 -80.25 -78.0 -80.25 -74.3 -56.35 -74.3 -56.35 -8.65 -121.5 -8.65 -121.5 -5.15 -71.7 -5.15 -71.7 138.0 -166.5 138.0 -166.5 -5.15 -147.35 -5.15 -147.35 -8.65 -166.5 -8.65 -166.5 -74.3 -107.25 -74.3 -107.25 -78.0 -133.35 -78.0 -133.35 -109.0 -142.75 -109.0 -142.75 -103.25 -151.35 -103.95 -160.55 -106.1 -169.3 -109.65 -177.4 -114.55 -184.6 -120.7 -190.8 -127.85 -195.75 -135.9 -199.4 -144.6 -201.65 -153.8 -202.45 -163.2 -201.75 -172.65 -199.6 -181.85 -196.0 -190.6 -191.1 -198.7 -185.0 -205.9 -177.85 -212.05 -169.8 -217.05 -161.1 -220.7 -151.9 -222.95 -142.5 -223.75 -133.05 -223.05 -123.85 -220.85 -115.1 -217.3 -107.0 -212.4 -99.8 -206.3 -93.6 -199.1 -88.65 -191.1 -85.0 -182.35 -82.75 -173.2 -81.95 -163.25 -88.75 -163.25 -88.75 -154.3 -57.35 -154.3 -57.35 -143.5 -51.35 -143.5 -51.35 -157.65 -50.05 -156.1 -47.95 -154.8 -45.6 -154.1 -43.1 -154.1 -40.75 -154.8 -38.7 -156.1 -37.05 -158.0 -36.05 -160.2 -35.7 -162.65 -35.75 -163.0 45.9 -163.0 45.85 -162.65 46.2 -160.2 47.25 -158.0 48.85 -156.1 50.9 -154.8 53.3 -154.1 55.75 -154.1 58.1 -154.8 60.2 -156.1 61.8 -158.0 62.85 -160.2 63.2 -162.65 63.15 -163.0 146.0 -163.0 146.0 -104.65 289.5 -104.65 289.5 -85.65 307.0 -85.65 307.0 -110.5" fill="#969696" fill-rule="evenodd" stroke="none"/>
    <path d="M-166.5 -74.3 L-153.5 -74.3 -153.5 -18.0 -166.5 -18.0 -166.5 -74.3" fill="#707070" fill-rule="evenodd" stroke="none"/>
    <path d="M-166.5 5.7 L-161.0 5.7 -161.0 131.5 -166.5 131.5 -166.5 5.7" fill="#707070" fill-rule="evenodd" stroke="none"/>
    <path d="M-66.85 -16.65 L-66.85 -54.0 -56.35 -54.0 -56.35 -16.65 -66.85 -16.65" fill="#707070" fill-rule="evenodd" stroke="none"/>
    <path d="M-103.0 63.7 L-103.0 68.2 -71.7 68.2 -71.7 71.2 -103.0 71.2 -103.0 76.5 -106.0 76.5 -106.0 63.7 -103.0 63.7" fill="#707070" fill-rule="evenodd" stroke="none"/>
    <path d="M-103.0 29.5 L-103.0 33.2 -71.7 33.2 -71.7 36.2 -103.0 36.2 -103.0 42.35 -106.0 42.35 -106.0 29.5 -103.0 29.5" fill="#707070" fill-rule="evenodd" stroke="none"/>
    <path d="M-103.0 98.4 L-103.0 102.7 -71.7 102.7 -71.7 105.7 -103.0 105.7 -103.0 111.85 -106.0 111.85 -106.0 98.4 -103.0 98.4" fill="#707070" fill-rule="evenodd" stroke="none"/>
    <path d="M-106.0 138.0 L-106.0 132.65 -103.0 132.65 -103.0 138.0 -106.0 138.0" fill="#707070" fill-rule="evenodd" stroke="none"/>
    <path d="M-103.0 -5.15 L-103.0 7.75 -106.0 7.75 -106.0 -5.15 -103.0 -5.15" fill="#707070" fill-rule="evenodd" stroke="none"/>
    <path d="M59.0 -49.0 L72.3 -49.0 72.3 54.2 59.0 54.2 59.0 -49.0" fill="#707070" fill-rule="evenodd" stroke="none"/>
    <path d="M15.3 56.0 L15.3 79.7 35.0 79.7 35.0 116.7 -22.7 116.7 -22.7 56.0 -51.35 56.0 -51.35 -50.0 57.65 -50.0 57.65 56.0 15.3 56.0" fill="#707070" fill-rule="evenodd" stroke="none"/>
    <path d="M376.5 -60.0 L376.5 -81.0 464.3 -81.0 464.3 85.0 376.5 85.0 376.5 63.0 381.65 63.0 391.2 61.5 400.4 58.5 409.05 54.1 416.85 48.45 423.7 41.6 429.4 33.75 433.8 25.15 436.8 15.95 438.3 6.35 438.3 -3.3 436.8 -12.9 433.8 -22.1 429.4 -30.7 423.7 -38.55 416.85 -45.4 409.05 -51.05 400.4 -55.45 391.2 -58.45 381.65 -60.0 376.5 -60.0" fill="#707070" fill-rule="evenodd" stroke="none"/>
    <path d="M152.1 143.0 L157.05 131.5 198.35 149.35 195.0 157.15 193.55 163.4 193.2 169.85 194.05 176.25 196.05 182.4 199.05 188.1 203.05 193.15 207.9 197.45 213.45 200.75 219.45 203.05 225.8 204.25 232.25 204.25 240.6 202.75 248.5 247.1 236.15 249.25 221.6 249.2 207.3 246.55 193.65 241.4 181.2 233.85 170.3 224.25 161.25 212.85 154.4 200.0 149.95 186.15 148.05 171.7 148.8 157.2 152.1 143.0" fill="#ffffff" fill-rule="evenodd" stroke="none"/>
    <path d="M-151.2 -214.75 L-142.95 -215.45 -134.75 -214.85 -126.7 -212.95 -119.1 -209.85 -112.0 -205.55 -105.75 -200.2 -100.35 -193.95 -96.0 -186.95 -92.8 -179.35 -90.85 -171.35 -90.15 -163.1 -144.7 -163.0 -192.8 -178.9 -189.7 -186.55 -185.4 -193.6 -180.1 -199.9 -173.85 -205.25 -166.8 -209.6 -159.2 -212.8 -151.2 -214.75" fill="#ffffff" fill-rule="evenodd" stroke="none"/>
    <path d="M57.65 53.7 L42.0 53.7 42.0 43.0 57.65 43.0 57.65 53.7" fill="#434343" fill-rule="evenodd" stroke="none"/>
    <path d="M41.65 -48.3 L57.3 -48.3 57.3 -37.65 41.65 -37.65 41.65 -48.3" fill="#434343" fill-rule="evenodd" stroke="none"/>
    <path d="M-44.7 -37.65 L-51.35 -37.65 -51.35 -48.3 -44.7 -48.3 -44.7 -37.65" fill="#434343" fill-rule="evenodd" stroke="none"/>
    <path d="M-44.7 53.7 L-51.35 53.7 -51.35 43.0 -44.7 43.0 -44.7 53.7" fill="#434343" fill-rule="evenodd" stroke="none"/>
    <path d="M-143.6 -171.5 L-141.1 -171.5 -138.75 -170.8 -136.7 -169.45 -135.05 -167.6 -134.05 -165.35 -133.7 -162.9 -134.05 -160.45 -135.05 -158.25 -136.7 -156.35 -138.75 -155.05 -141.1 -154.35 -143.6 -154.35 -145.95 -155.05 -148.05 -156.35 -149.65 -158.25 -150.65 -160.45 -151.0 -162.9 -150.65 -165.35 -149.65 -167.6 -148.05 -169.45 -145.95 -170.8 -143.6 -171.5" fill="#434343" fill-rule="evenodd" stroke="none"/>
    <path d="M322.5 43.0 L338.15 43.0 338.15 53.7 322.5 53.7 322.5 43.0" fill="#434343" fill-rule="evenodd" stroke="none"/>
    <path d="M322.5 -48.3 L338.15 -48.3 338.15 -37.65 322.5 -37.65 322.5 -48.3" fill="#434343" fill-rule="evenodd" stroke="none"/>
  </g>
</svg>
