<?xml version="1.0" encoding="UTF-8" standalone="no"?>
<svg xmlns:ffdec="https://www.free-decompiler.com/flash" xmlns:xlink="http://www.w3.org/1999/xlink" ffdec:objectType="shape" height="140.0px" width="224.0px" xmlns="http://www.w3.org/2000/svg">
  <g transform="matrix(1.0, 0.0, 0.0, 1.0, 151.65, 82.3)">
    <path d="M-150.15 -10.3 L-141.65 -10.3 -141.65 -11.3 -92.65 -11.3 -92.65 -10.3 -86.65 -10.3 -86.65 -82.3 72.35 -82.3 72.35 -42.3 70.85 -42.3 70.85 -35.8 72.35 -35.8 72.35 4.2 70.85 4.2 70.85 9.7 72.35 9.7 72.35 46.7 70.35 46.7 70.35 56.2 62.85 56.2 62.85 57.7 24.35 57.7 24.35 56.2 18.35 56.2 18.35 57.7 -20.65 57.7 -20.65 56.2 -26.15 56.2 -26.15 57.7 -65.15 57.7 -65.15 56.2 -92.65 56.2 -92.65 57.2 -141.65 57.2 -141.65 56.2 -150.15 56.2 -150.15 47.2 -151.65 47.2 -151.65 -1.8 -150.15 -1.8 -150.15 -10.3" fill="#424242" fill-rule="evenodd" stroke="none"/>
    <path d="M-24.65 -79.8 L-24.65 -59.8 -58.65 -59.8 -58.65 -13.8 -79.15 -13.8 -79.15 -79.8 -24.65 -79.8" fill="#ffffff" fill-rule="evenodd" stroke="none"/>
    <path d="M12.35 -7.3 L12.35 -13.3 -12.15 -13.3 -12.15 -36.3 -16.15 -36.3 -16.15 -56.3 -12.15 -56.3 -12.15 -79.3 52.85 -79.3 52.85 -13.3 38.85 -13.3 38.85 -7.3 64.85 -7.3 64.85 48.2 60.85 48.2 60.85 50.2 45.85 50.2 45.85 48.2 40.85 48.2 40.85 50.2 25.85 50.2 25.85 48.2 16.85 48.2 16.85 50.7 -19.15 50.7 -19.15 48.2 -27.65 48.2 -27.65 50.7 -42.65 50.7 -42.65 48.2 -48.15 48.2 -48.15 50.7 -63.15 50.7 -63.15 48.2 -86.65 48.2 -86.65 28.7 -92.65 28.7 -92.65 43.2 -97.15 43.2 -97.15 46.2 -136.65 46.2 -136.65 43.2 -140.15 43.2 -140.15 2.7 -136.65 2.7 -136.65 -0.3 -97.15 -0.3 -97.15 2.7 -92.65 2.7 -92.65 17.2 -86.65 17.2 -86.65 -7.3 -79.15 -7.3 -79.15 -14.8 -14.15 -14.8 -14.15 -7.3 12.35 -7.3" fill="#959595" fill-rule="evenodd" stroke="none"/>
    <path d="M-14.15 -15.3 L-14.15 -12.8 -58.65 -12.8 -58.65 -15.3 -14.15 -15.3" fill="#6f6f6f" fill-rule="evenodd" stroke="none"/>
    <path d="M-55.15 -11.8 L-42.15 -12.8 Q-41.15 -6.3 -40.65 -0.3 L-54.15 0.7 -55.15 -11.8" fill="#6f6f6f" fill-rule="evenodd" stroke="none"/>
    <path d="M18.35 37.7 L33.35 31.7 37.35 42.2 22.35 48.2 18.35 37.7" fill="#6f6f6f" fill-rule="evenodd" stroke="none"/>
    <path d="M58.35 20.2 Q52.35 26.2 46.35 31.7 L36.85 21.7 48.85 10.2 58.35 20.2" fill="#6f6f6f" fill-rule="evenodd" stroke="none"/>
    <path d="M23.35 -28.3 L5.85 -31.8 13.85 -71.8 31.35 -68.3 23.35 -28.3" fill="#6f6f6f" fill-rule="evenodd" stroke="none"/>
    <path d="M56.85 32.7 L57.85 35.7 63.35 36.7 61.35 47.7 51.85 46.2 44.35 48.2 Q44.35 47.2 43.85 46.2 L41.35 47.2 38.35 36.2 48.35 33.7 48.85 35.2 Q52.85 34.2 56.85 32.7" fill="#6f6f6f" fill-rule="evenodd" stroke="none"/>
    <path d="M63.35 5.7 L55.35 14.2 43.85 2.7 52.35 -5.3 63.35 5.7" fill="#6f6f6f" fill-rule="evenodd" stroke="none"/>
    <path d="M10.85 -65.8 Q6.85 -61.3 2.35 -57.3 -3.15 -62.8 -8.65 -68.8 L-0.65 -76.8 10.85 -65.8" fill="#6f6f6f" fill-rule="evenodd" stroke="none"/>
    <path d="M-85.65 36.7 L-75.65 35.7 -74.65 47.2 -84.65 47.7 -85.65 36.7" fill="#6f6f6f" fill-rule="evenodd" stroke="none"/>
    <path d="M-15.65 28.7 L-15.65 32.2 -5.15 32.2 -5.15 43.7 -15.65 43.7 -15.65 47.2 -56.65 47.2 -56.65 28.7 -15.65 28.7" fill="#6f6f6f" fill-rule="evenodd" stroke="none"/>
    <path d="M4.35 -2.8 L3.35 -0.3 7.85 0.2 Q7.35 5.7 6.35 11.2 L-13.65 8.2 Q-12.65 2.7 -12.15 -2.8 L-9.65 -2.3 -8.65 -5.8 4.35 -2.8" fill="#6f6f6f" fill-rule="evenodd" stroke="none"/>
    <path d="M-110.65 18.7 L-110.65 35.2 -140.15 35.2 -140.15 18.7 -110.65 18.7" fill="#6f6f6f" fill-rule="evenodd" stroke="none"/>
    <path d="M-110.65 20.7 L-107.65 20.7 -107.65 27.7 -110.65 27.7 -110.65 20.7" fill="#ffffff" fill-rule="evenodd" stroke="none"/>
  </g>
</svg>
