<?xml version="1.0" encoding="UTF-8" standalone="no"?>
<svg xmlns:ffdec="https://www.free-decompiler.com/flash" xmlns:xlink="http://www.w3.org/1999/xlink" ffdec:objectType="shape" height="142.15px" width="136.5px" xmlns="http://www.w3.org/2000/svg">
  <g transform="matrix(1.0, 0.0, 0.0, 1.0, 67.75, 34.25)">
    <path d="M-51.75 18.35 L-51.75 -34.25 68.75 -34.25 68.75 107.9 61.75 107.9 57.05 105.7 52.25 107.9 45.1 107.9 45.1 84.75 -67.75 84.75 -67.75 18.35 -51.75 18.35" fill="#414141" fill-rule="evenodd" stroke="none"/>
    <path d="M64.6 -29.95 L64.6 40.5 53.8 40.5 46.05 42.6 40.65 40.5 1.15 40.5 1.15 41.85 33.95 41.85 33.95 76.95 -15.9 76.95 -15.9 41.85 -11.85 41.85 -11.85 40.5 -29.5 40.5 -29.5 37.7 -31.25 37.7 -31.25 42.5 -64.85 42.5 -64.85 22.7 -31.85 22.7 -31.85 24.7 -29.5 24.7 -29.5 22.7 -20.35 22.7 -20.35 20.2 -45.05 20.2 -45.05 -29.95 23.7 -29.95 23.7 -1.05 25.8 -1.05 25.8 -29.95 64.6 -29.95" fill="#959595" fill-rule="evenodd" stroke="none"/>
    <path d="M64.6 43.2 L64.6 104.95 49.3 104.95 49.3 63.7 37.3 63.7 37.3 43.2 40.65 43.2 46.75 41.6 53.8 43.2 64.6 43.2" fill="#959595" fill-rule="evenodd" stroke="none"/>
    <path d="M25.8 -22.4 L25.8 -30.45 64.6 -30.45 64.6 8.5 57.15 8.5 55.9 8.0 55.9 -1.65 57.65 -2.55 57.65 -22.4 25.8 -22.4" fill="#6f6f6f" fill-rule="evenodd" stroke="none"/>
    <path d="M23.7 -26.65 L23.7 -16.05 18.8 -16.05 18.8 -26.65 23.7 -26.65" fill="#6f6f6f" fill-rule="evenodd" stroke="none"/>
    <path d="M29.0 27.25 L31.5 29.0 32.1 31.9 32.1 35.25 31.5 38.15 29.0 39.75 14.6 39.75 11.85 38.15 11.35 35.25 11.35 31.9 11.85 29.0 14.6 27.25 29.0 27.25" fill="#6f6f6f" fill-rule="evenodd" stroke="none"/>
    <path d="M-45.2 20.45 L-45.2 10.75 -21.25 10.75 -21.25 20.45 -45.2 20.45" fill="#6f6f6f" fill-rule="evenodd" stroke="none"/>
    <path d="M-45.45 -14.5 L-41.0 -14.5 -41.0 2.95 -45.45 2.95 -45.45 -14.5" fill="#6f6f6f" fill-rule="evenodd" stroke="none"/>
    <path d="M1.6 -20.7 L10.75 -22.2 14.6 1.35 5.5 2.85 1.6 -20.7" fill="#6f6f6f" fill-rule="evenodd" stroke="none"/>
    <path d="M-7.85 -10.8 L-9.45 -2.55 -24.4 -5.55 -22.75 -13.75 -7.85 -10.8" fill="#6f6f6f" fill-rule="evenodd" stroke="none"/>
    <path d="M-50.85 27.35 L-50.85 22.7 -45.2 22.7 -45.2 27.35 -50.85 27.35" fill="#6f6f6f" fill-rule="evenodd" stroke="none"/>
    <path d="M-37.5 22.7 L-37.5 25.35 -39.1 25.35 -38.75 26.5 -38.9 27.75 -39.75 28.6 -41.05 28.9 -42.2 28.6 -43.05 27.75 -43.2 26.5 -42.8 25.35 -44.4 25.35 -44.4 22.7 -37.5 22.7" fill="#6f6f6f" fill-rule="evenodd" stroke="none"/>
    <path d="M59.65 26.85 L59.65 11.5 64.5 11.5 64.5 26.85 59.65 26.85" fill="#6f6f6f" fill-rule="evenodd" stroke="none"/>
    <path d="M-65.5 42.5 L-65.5 22.7 -54.75 22.7 -54.75 42.5 -65.5 42.5" fill="#6f6f6f" fill-rule="evenodd" stroke="none"/>
    <path d="M11.6 74.75 L11.6 59.15 31.5 59.15 31.5 58.4 28.6 58.4 28.6 51.25 31.5 51.25 31.5 47.65 3.6 47.65 3.6 41.9 33.25 41.9 33.25 75.15 31.5 75.15 31.5 74.75 11.6 74.75" fill="#6f6f6f" fill-rule="evenodd" stroke="none"/>
    <path d="M1.1 71.7 L3.85 71.35 4.35 75.2 1.5 75.55 1.1 72.55 1.1 75.75 -13.75 75.75 -13.75 69.4 1.1 69.4 1.1 71.7" fill="#6f6f6f" fill-rule="evenodd" stroke="none"/>
    <path d="M4.85 73.0 L7.4 68.8 10.45 70.65 7.9 74.85 4.85 73.0" fill="#6f6f6f" fill-rule="evenodd" stroke="none"/>
    <path d="M-5.5 -29.1 L-5.5 -20.25 -17.65 -20.25 -17.65 -29.1 -5.5 -29.1" fill="#6f6f6f" fill-rule="evenodd" stroke="none"/>
    <path d="M2.1 -21.35 L-2.9 -21.35 -2.9 -26.5 2.1 -26.5 2.1 -21.35" fill="#6f6f6f" fill-rule="evenodd" stroke="none"/>
    <path d="M-30.95 -24.75 L-39.45 -15.4 -45.05 -20.5 -43.5 -28.0 -36.6 -29.85 -30.95 -24.75" fill="#6f6f6f" fill-rule="evenodd" stroke="none"/>
    <path d="M-31.7 42.35 L-35.35 42.35 -35.35 39.0 -31.7 39.0 -31.7 42.35" fill="#6f6f6f" fill-rule="evenodd" stroke="none"/>
    <path d="M61.0 30.8 L62.3 32.8 62.25 35.15 60.8 37.0 58.55 37.7 56.3 36.9 54.95 34.95 55.05 32.55 56.5 30.7 58.75 30.0 61.0 30.8" fill="#6f6f6f" fill-rule="evenodd" stroke="none"/>
    <path d="M53.8 43.2 L40.65 43.2 40.65 40.5 53.8 40.5 53.8 43.2" fill="#ffffff" fill-rule="evenodd" stroke="none"/>
    <path d="M52.25 107.9 L52.25 104.95 61.75 104.95 61.75 107.9 52.25 107.9" fill="#ffffff" fill-rule="evenodd" stroke="none"/>
  </g>
</svg>
