<?xml version="1.0" encoding="UTF-8" standalone="no"?>
<svg xmlns:ffdec="https://www.free-decompiler.com/flash" xmlns:xlink="http://www.w3.org/1999/xlink" ffdec:objectType="shape" height="20.75px" width="22.05px" xmlns="http://www.w3.org/2000/svg">
  <g transform="matrix(1.0, 0.0, 0.0, 1.0, 0.0, 0.0)">
    <path d="M14.35 14.75 L14.6 14.15 14.6 13.85 Q14.65 13.35 13.95 12.85 L13.2 12.45 Q12.5 12.4 11.55 13.15 L10.75 13.85 Q10.45 14.95 10.9 15.8 L11.4 16.35 Q11.8 16.8 13.0 16.35 L14.35 14.75 M15.9 18.35 Q16.4 18.25 16.55 17.45 L16.55 16.35 Q16.55 15.9 16.05 15.75 L15.55 15.65 15.1 15.75 Q14.6 15.95 14.6 16.35 L14.6 17.45 Q14.65 18.25 15.15 18.35 L15.9 18.35 M17.0 12.9 Q16.25 13.35 16.3 13.85 L16.3 14.15 16.55 14.75 17.1 15.5 17.95 16.35 Q19.1 16.75 19.5 16.35 L20.0 15.75 Q20.4 14.95 20.1 13.85 18.8 12.4 17.65 12.5 L17.0 12.9 M4.2 7.9 L4.2 8.75 Q4.25 9.35 4.65 9.4 L5.2 9.4 Q5.55 9.35 5.65 8.75 L5.65 7.9 Q5.65 7.6 5.3 7.45 L4.95 7.4 4.6 7.45 4.2 7.9 M3.2 5.05 Q2.65 5.0 1.95 5.55 L1.35 6.05 Q1.1 6.9 1.45 7.5 L1.85 7.95 Q2.1 8.25 3.05 7.95 L4.05 6.7 4.25 6.3 4.25 6.05 3.75 5.3 3.2 5.05 M8.35 6.05 Q7.4 5.0 6.55 5.05 L6.0 5.35 Q5.5 5.7 5.5 6.05 L5.5 6.3 5.7 6.7 6.1 7.3 6.7 7.9 Q7.6 8.2 7.9 7.9 L8.25 7.45 Q8.6 6.9 8.35 6.05 M9.75 3.5 L9.8 4.85 9.7 7.1 Q9.5 8.15 8.8 8.9 L8.05 9.5 7.65 9.45 7.4 9.25 7.3 9.4 7.15 10.35 6.7 10.75 Q6.15 11.2 5.3 11.2 L4.5 11.2 3.05 10.75 2.65 10.35 2.45 9.4 2.4 9.25 2.2 9.45 1.75 9.5 1.05 9.0 0.3 7.75 0.1 7.1 0.0 4.85 0.1 3.5 0.1 3.45 Q0.55 1.15 2.75 0.35 L4.85 0.0 4.95 0.0 7.05 0.35 Q9.25 1.15 9.7 3.45 L9.75 3.5 M21.9 15.25 Q21.65 16.6 20.7 17.65 L19.7 18.45 19.15 18.4 18.85 18.15 18.75 18.35 18.5 19.55 17.95 20.15 Q17.15 20.75 16.0 20.75 L14.95 20.75 Q13.8 20.75 13.05 20.15 L12.5 19.55 12.25 18.35 12.15 18.15 11.85 18.4 11.3 18.45 10.4 17.75 Q9.8 17.1 9.35 16.1 L9.05 15.25 8.95 12.25 9.05 10.4 9.05 10.3 Q9.65 7.3 12.65 6.2 14.05 5.65 15.45 5.7 L15.55 5.7 18.35 6.2 Q21.3 7.3 21.9 10.3 L21.95 10.4 22.05 12.25 21.9 15.25" fill="#ffffff" fill-rule="evenodd" stroke="none"/>
  </g>
</svg>
