<?xml version="1.0" encoding="UTF-8" standalone="no"?>
<svg xmlns:ffdec="https://www.free-decompiler.com/flash" xmlns:xlink="http://www.w3.org/1999/xlink" ffdec:objectType="shape" height="19.45px" width="12.0px" xmlns="http://www.w3.org/2000/svg">
  <g transform="matrix(1.0, 0.0, 0.0, 1.0, 0.0, 0.0)">
    <path d="M8.95 13.95 L6.75 13.85 6.05 11.7 5.35 13.85 3.1 13.95 4.85 15.4 4.2 17.5 6.05 16.25 7.85 17.5 7.2 15.4 8.95 13.95 M6.0 8.8 L7.0 0.0 12.0 0.0 8.4 9.9 Q7.25 9.2 6.0 9.2 4.8 9.2 3.55 9.9 L0.0 0.0 4.6 0.0 6.0 8.8 M3.6 10.75 Q4.8 10.05 6.05 10.05 7.3 10.05 8.4 10.75 10.7 12.05 10.7 14.7 10.7 16.7 9.3 18.05 8.0 19.45 6.05 19.45 4.05 19.45 2.75 18.05 1.35 16.7 1.35 14.7 1.35 12.05 3.6 10.75" fill="#ffffff" fill-rule="evenodd" stroke="none"/>
  </g>
</svg>
