<?xml version="1.0" encoding="UTF-8" standalone="no"?>
<svg xmlns:ffdec="https://www.free-decompiler.com/flash" xmlns:xlink="http://www.w3.org/1999/xlink" ffdec:objectType="shape" height="20.25px" width="21.7px" xmlns="http://www.w3.org/2000/svg">
  <g transform="matrix(1.0, 0.0, 0.0, 1.0, 0.3, 0.3)">
    <path d="M3.95 3.75 L2.95 3.75 9.95 1.9 9.95 0.0 11.0 0.0 11.0 1.9 18.0 3.75 16.9 3.75 11.0 3.75 11.0 16.95 15.75 19.65 11.0 19.65 9.95 19.65 5.2 19.65 9.95 16.95 9.95 3.75 3.95 3.75 M20.2 12.8 L21.1 12.8 17.15 15.3 13.15 12.8 14.05 12.8 20.2 12.8 M7.2 12.8 L7.9 12.8 3.95 15.3 0.0 12.8 1.05 12.8 7.2 12.8 M9.95 1.9 L9.95 3.75 9.95 1.9 M11.0 1.9 L11.0 3.75 11.0 1.9 M11.0 19.65 L11.0 16.95 11.0 19.65 M9.95 16.95 L9.95 19.65 9.95 16.95" fill="#ffffff" fill-rule="evenodd" stroke="none"/>
    <path d="M3.95 3.75 L2.95 3.75 9.95 1.9 9.95 0.0 11.0 0.0 11.0 1.9 18.0 3.75 16.9 3.75 11.0 3.75 11.0 16.95 15.75 19.65 11.0 19.65 9.95 19.65 5.2 19.65 9.95 16.95 9.95 3.75 3.95 3.75 M20.2 12.8 L21.1 12.8 17.15 15.3 13.15 12.8 14.05 12.8 20.2 12.8 M7.2 12.8 L7.9 12.8 3.95 15.3 0.0 12.8 1.05 12.8 7.2 12.8 M11.0 3.75 L11.0 1.9 M9.95 3.75 L9.95 1.9 M9.95 19.65 L9.95 16.95 M11.0 16.95 L11.0 19.65" fill="none" stroke="#ffffff" stroke-linecap="round" stroke-linejoin="round" stroke-width="0.65"/>
    <path d="M16.9 3.75 L20.2 12.8 M14.05 12.8 L16.9 3.75 M3.95 3.75 L7.2 12.8 M1.05 12.8 L3.95 3.75" fill="none" stroke="#ffffff" stroke-linecap="round" stroke-linejoin="miter-clip" stroke-miterlimit="10.0" stroke-width="1.2000000000000002"/>
  </g>
</svg>
