<?xml version="1.0" encoding="UTF-8" standalone="no"?>
<svg xmlns:ffdec="https://www.free-decompiler.com/flash" xmlns:xlink="http://www.w3.org/1999/xlink" ffdec:objectType="shape" height="1595.55px" width="549.95px" xmlns="http://www.w3.org/2000/svg">
  <g transform="matrix(1.0, 0.0, 0.0, 1.0, 210.9, 692.95)">
    <path d="M-210.5 -671.4 L-210.9 -676.95 -209.25 -683.7 -204.95 -689.2 -198.8 -692.5 -191.85 -692.95 -185.3 -690.5 -180.25 -685.6 -177.6 -680.25 -157.4 -605.0 -139.65 -572.15 -106.9 -505.85 -76.0 -438.9 -46.4 -380.6 -11.0 -314.5 24.65 -324.05 73.45 -141.95 81.8 -122.85 93.45 -92.05 97.25 -84.8 100.3 -85.6 100.9 -83.25 110.45 -85.8 148.9 57.6 143.8 58.95 162.15 127.3 195.6 155.1 195.75 155.65 196.85 155.35 197.2 156.75 196.15 157.05 216.3 230.4 244.2 338.2 245.05 337.95 245.45 339.4 244.55 339.65 261.8 409.75 262.7 409.5 263.05 410.95 262.15 411.2 262.15 411.25 241.8 416.7 259.95 484.45 262.7 483.7 301.05 627.0 298.5 627.7 309.45 668.55 318.35 666.15 318.25 665.65 319.55 665.3 319.7 665.8 325.75 664.15 326.45 664.4 327.05 665.0 327.6 666.05 339.05 708.7 339.05 709.85 338.85 710.7 338.35 711.25 332.3 712.9 332.45 713.35 331.1 713.75 331.0 713.25 322.05 715.65 324.95 726.35 307.05 731.15 307.95 734.55 298.65 737.05 297.75 733.65 285.25 737.0 291.7 791.7 294.65 837.5 288.45 846.4 278.0 851.25 274.4 854.65 266.7 856.7 272.3 877.65 179.25 902.6 173.65 881.65 164.3 884.15 159.5 883.0 148.05 884.0 138.2 879.4 117.85 838.3 105.7 809.8 99.2 793.25 99.1 792.55 82.0 797.15 43.5 653.55 45.6 653.0 2.9 537.45 -35.15 424.45 -61.95 335.85 -69.1 337.8 -75.0 315.8 -97.7 321.9 -98.9 317.4 -107.85 319.8 -107.7 320.3 -109.0 320.65 -109.15 320.15 -115.2 321.8 -115.9 321.55 -116.5 320.95 -117.05 319.9 -128.5 277.25 -128.5 276.1 -128.3 275.25 -127.8 274.7 -121.75 273.05 -121.9 272.6 -120.55 272.2 -120.45 272.7 -111.5 270.3 -112.75 265.6 -90.05 259.55 -117.65 156.65 -113.45 149.5 -120.65 122.8 -120.4 122.7 -149.7 -9.15 -158.9 -79.7 -164.5 -138.25 -168.25 -204.45 -174.3 -346.3 -177.85 -411.6 -184.5 -485.05 -189.3 -558.85 -190.35 -596.15 -210.5 -671.4" fill="#424242" fill-rule="evenodd" stroke="none"/>
    <path d="M147.75 741.9 L146.85 742.35 146.3 742.75 145.8 743.8 145.7 744.35 146.85 748.6 147.2 748.5 161.0 799.95 160.65 800.05 162.2 805.9 162.6 805.8 163.0 807.35 162.65 807.45 162.7 807.75 161.7 808.05 161.75 808.3 162.7 808.05 164.1 813.45 164.75 813.25 174.95 851.35 174.3 851.55 175.35 855.45 175.3 855.95 175.05 856.25 174.6 856.5 166.55 858.65 153.6 810.5 155.1 810.1 155.0 809.8 153.35 810.3 133.4 735.9 238.65 707.7 254.6 734.0 266.25 777.45 246.2 782.85 246.25 783.15 246.0 783.2 246.5 785.15 247.4 784.95 247.55 785.4 258.0 782.6 262.5 799.45 261.25 833.3 252.3 835.7 251.75 835.7 251.35 835.55 251.1 835.15 250.0 831.25 249.4 831.4 239.2 793.3 239.8 793.15 238.4 787.85 239.7 787.5 239.55 787.0 240.2 786.85 239.7 784.9 239.4 785.0 239.3 784.7 237.55 785.15 236.1 779.85 235.75 779.95 222.0 728.5 222.35 728.4 221.2 724.15 220.85 723.7 219.9 723.05 219.25 722.95 218.2 723.05 147.75 741.9" fill="#959595" fill-rule="evenodd" stroke="none"/>
    <path d="M273.6 840.9 L263.95 843.45 252.25 799.7 261.9 797.1 273.6 840.9" fill="#ffffff" fill-rule="evenodd" stroke="none"/>
    <path d="M237.2 708.1 L246.95 705.45 254.75 734.65 245.0 737.25 237.2 708.1" fill="#ffffff" fill-rule="evenodd" stroke="none"/>
    <path d="M143.5 773.7 L141.5 766.2 144.05 765.5 146.1 773.0 143.5 773.7" fill="#6f6f6f" fill-rule="evenodd" stroke="none"/>
    <path d="M166.1 853.9 L164.7 848.6 167.95 847.7 169.4 853.0 166.1 853.9" fill="#6f6f6f" fill-rule="evenodd" stroke="none"/>
    <path d="M163.75 848.25 L162.3 842.95 163.3 842.65 164.75 848.0 163.75 848.25" fill="#6f6f6f" fill-rule="evenodd" stroke="none"/>
    <path d="M136.7 735.0 L143.5 733.2 143.65 733.85 136.85 735.65 136.7 735.0" fill="#6f6f6f" fill-rule="evenodd" stroke="none"/>
    <path d="M150.15 798.4 L149.65 796.55 152.05 795.9 152.55 797.75 150.15 798.4" fill="#6f6f6f" fill-rule="evenodd" stroke="none"/>
    <path d="M180.0 723.4 L182.1 722.85 182.4 723.95 180.3 724.55 180.0 723.4" fill="#6f6f6f" fill-rule="evenodd" stroke="none"/>
    <path d="M223.95 711.65 L227.7 710.65 228.1 712.15 224.35 713.15 223.95 711.65" fill="#6f6f6f" fill-rule="evenodd" stroke="none"/>
    <path d="M252.15 778.8 L259.65 776.75 260.3 779.05 252.75 781.1 252.15 778.8" fill="#6f6f6f" fill-rule="evenodd" stroke="none"/>
    <path d="M170.15 854.9 L171.0 854.85 171.75 855.3 172.05 856.05 171.9 856.9 171.2 857.45 170.35 857.55 169.65 857.1 169.3 856.3 169.5 855.45 170.15 854.9" fill="#6f6f6f" fill-rule="evenodd" stroke="none"/>
    <path d="M168.05 855.65 L168.8 856.1 169.1 856.9 168.9 857.7 168.25 858.3 167.4 858.35 166.7 857.9 166.35 857.1 166.55 856.25 167.2 855.7 168.05 855.65" fill="#6f6f6f" fill-rule="evenodd" stroke="none"/>
  </g>
</svg>
