<?xml version="1.0" encoding="UTF-8" standalone="no"?>
<svg xmlns:ffdec="https://www.free-decompiler.com/flash" xmlns:xlink="http://www.w3.org/1999/xlink" ffdec:objectType="shape" height="1661.1px" width="703.15px" xmlns="http://www.w3.org/2000/svg">
  <g transform="matrix(1.0, 0.0, 0.0, 1.0, 299.35, 741.75)">
    <path d="M297.45 344.9 L298.05 345.05 299.9 352.05 299.65 352.5 297.1 353.2 296.45 352.7 296.05 351.25 295.85 351.3 297.1 356.0 297.3 355.9 296.95 354.45 297.25 353.75 299.65 353.1 300.25 353.3 302.1 360.3 301.85 360.7 299.3 361.4 298.65 360.9 298.25 359.45 298.05 359.5 299.6 365.25 299.8 365.2 299.4 363.75 299.7 363.0 302.15 362.35 302.75 362.55 304.6 369.55 304.35 370.0 301.75 370.65 301.15 370.2 300.75 368.75 300.55 368.8 301.8 373.45 302.0 373.4 301.6 371.95 301.9 371.25 304.35 370.6 304.95 370.75 306.8 377.75 306.55 378.2 303.95 378.9 303.35 378.4 302.95 376.95 302.75 377.0 314.2 419.75 314.4 419.7 314.05 418.25 314.35 417.55 316.75 416.85 317.35 417.05 319.2 424.05 318.95 424.5 316.4 425.2 315.75 424.7 315.35 423.25 315.15 423.3 316.4 427.95 316.6 427.9 316.25 426.45 316.55 425.75 318.95 425.1 319.55 425.25 321.4 432.25 321.15 432.7 318.6 433.4 317.95 432.9 317.55 431.45 317.35 431.5 319.3 438.9 319.55 438.8 319.15 437.35 319.45 436.65 321.9 436.0 322.45 436.15 324.35 443.2 324.05 443.6 321.5 444.3 320.85 443.8 320.5 442.35 320.25 442.4 321.5 447.1 321.75 447.05 321.35 445.6 321.65 444.85 324.1 444.2 324.65 444.4 326.55 451.4 326.25 451.8 323.7 452.5 323.05 452.0 322.7 450.55 322.45 450.6 368.95 624.15 369.15 624.05 368.8 622.6 369.1 621.9 371.5 621.25 372.1 621.45 373.95 628.45 373.7 628.85 371.15 629.55 370.5 629.05 370.1 627.6 369.9 627.65 371.15 632.35 371.35 632.3 371.0 630.85 371.3 630.1 373.7 629.45 374.3 629.65 376.15 636.65 375.9 637.05 373.35 637.75 372.7 637.25 372.3 635.8 372.1 635.85 373.7 641.8 373.9 641.75 373.55 640.3 373.85 639.6 376.25 638.95 376.85 639.1 378.7 646.1 378.45 646.55 375.9 647.25 375.25 646.75 374.85 645.3 374.65 645.35 375.9 650.05 376.1 649.95 375.75 648.5 376.05 647.8 378.45 647.15 379.05 647.3 380.9 654.35 380.65 654.75 378.1 655.45 377.45 654.95 377.05 653.5 376.85 653.55 378.4 659.3 378.6 659.25 378.2 657.8 378.5 657.05 380.95 656.4 381.5 656.6 383.4 663.6 383.1 664.05 380.55 664.7 379.95 664.25 379.55 662.8 379.35 662.85 380.6 667.5 380.8 667.45 380.4 666.0 380.7 665.3 383.15 664.65 383.7 664.8 385.6 671.8 385.3 672.25 382.75 672.95 382.15 672.45 381.75 671.0 381.55 671.05 387.65 693.9 387.9 693.85 387.5 692.4 387.8 691.7 390.2 691.05 390.8 691.2 392.65 698.25 392.4 698.65 389.85 699.35 389.2 698.85 388.8 697.4 388.6 697.45 389.85 702.15 390.1 702.1 389.7 700.65 390.0 699.9 392.4 699.25 393.0 699.45 394.85 706.45 394.6 706.85 392.05 707.55 391.4 707.05 391.0 705.6 390.8 705.65 392.4 711.65 392.65 711.6 392.25 710.15 392.55 709.45 395.0 708.8 395.55 708.95 397.4 715.95 397.15 716.4 394.6 717.1 393.95 716.6 393.6 715.15 393.35 715.2 394.6 719.9 394.85 719.8 394.45 718.35 394.75 717.65 397.2 717.0 397.75 717.2 399.6 724.2 399.35 724.6 396.8 725.3 396.15 724.8 395.8 723.35 395.55 723.4 403.8 754.2 367.0 771.45 368.1 775.75 368.6 793.55 369.65 797.5 370.1 797.35 370.5 797.1 372.0 796.7 372.55 796.9 374.4 803.9 374.15 804.35 372.55 804.75 372.05 804.75 371.6 804.85 372.15 806.75 372.55 806.65 373.0 806.4 374.55 806.0 375.1 806.2 377.0 813.2 376.6 813.75 375.05 814.15 374.6 814.15 374.15 814.25 375.05 817.6 359.05 821.9 362.9 836.3 362.95 837.2 362.6 838.0 361.75 838.75 342.85 843.9 344.25 849.15 343.1 849.45 341.7 844.2 338.0 845.2 343.4 856.65 229.55 909.3 225.3 900.2 153.7 919.35 143.2 903.4 138.0 904.8 137.7 904.7 137.35 904.8 136.2 904.8 135.4 904.6 135.0 904.05 135.0 904.0 134.55 903.9 131.45 892.3 128.5 893.1 36.6 884.75 -25.4 653.6 -45.1 633.85 -51.2 611.2 -68.75 613.85 -68.7 614.6 -69.05 615.6 -69.55 616.6 -70.5 617.3 -71.1 617.55 -84.4 621.1 -84.8 621.1 -85.55 621.0 -86.7 620.45 -87.5 619.2 -87.9 618.1 -91.25 605.3 -91.15 603.85 -90.45 602.75 -89.65 602.15 -76.35 598.55 -75.55 598.45 -74.4 598.55 -72.65 599.9 -72.3 600.55 -55.8 594.25 -61.5 573.0 -61.8 573.1 -61.4 574.55 -61.7 575.25 -64.25 575.95 -64.7 575.7 -66.6 568.7 -66.2 568.25 -63.75 567.6 -63.15 568.1 -62.75 569.55 -62.45 569.45 -63.7 564.8 -64.0 564.85 -63.6 566.3 -63.9 567.05 -66.45 567.75 -66.9 567.5 -68.8 560.5 -68.4 560.05 -65.95 559.4 -65.35 559.9 -64.95 561.35 -64.65 561.25 -66.35 554.95 -66.65 555.05 -66.25 556.5 -66.55 557.25 -69.1 557.95 Q-69.3 557.85 -69.55 557.7 L-71.45 550.7 -71.05 550.25 -68.6 549.6 -67.95 550.05 -67.6 551.5 -67.3 551.45 -68.55 546.75 -68.85 546.85 -68.45 548.3 -68.75 549.05 -71.3 549.7 -71.75 549.5 -73.65 542.5 -73.25 542.05 -70.8 541.4 -70.15 541.85 -69.8 543.3 -69.5 543.25 -71.35 536.2 -71.65 536.3 -71.3 537.75 -71.55 538.45 -74.15 539.15 -74.6 538.9 -76.45 531.9 -76.05 531.45 -73.6 530.8 -73.0 531.3 -72.6 532.75 -72.3 532.65 -73.55 528.0 -73.85 528.05 -73.5 529.5 -73.75 530.25 -76.35 530.95 -76.8 530.7 -78.65 523.7 -78.25 523.25 -75.8 522.6 -75.2 523.1 -74.8 524.55 -74.5 524.45 -85.4 483.65 -85.75 483.75 -85.35 485.2 -85.65 485.95 -88.2 486.65 -88.65 486.4 -90.55 479.4 -90.15 478.95 -87.7 478.3 -87.05 478.75 -86.7 480.2 -86.35 480.15 -87.6 475.45 -87.95 475.55 -87.55 477.0 -87.85 477.75 -90.4 478.4 -90.85 478.2 -92.75 471.2 -92.35 470.75 -89.9 470.1 -89.25 470.55 -88.9 472.0 -88.55 471.95 -90.25 465.65 -90.55 465.75 -90.2 467.2 -90.5 467.9 -93.05 468.6 -93.5 468.35 -95.35 461.35 -94.95 460.9 -92.55 460.25 -91.9 460.75 -91.5 462.2 -91.2 462.1 -92.45 457.45 -92.75 457.5 -92.4 458.95 -92.7 459.7 -95.25 460.4 -95.7 460.15 -97.55 453.15 -97.15 452.7 -94.75 452.05 -94.1 452.55 -93.7 454.0 -93.4 453.9 -95.3 446.85 -95.6 446.95 -95.2 448.4 -95.5 449.15 -98.05 449.8 -98.5 449.6 -100.4 442.6 -100.0 442.15 -97.55 441.5 -96.95 441.95 -96.55 443.4 -96.2 443.35 -97.45 438.65 -97.8 438.75 -97.4 440.2 -97.7 440.95 -100.25 441.6 -100.7 441.4 -102.6 434.35 -102.2 433.95 -99.75 433.3 -99.15 433.75 -98.75 435.2 -98.4 435.1 -112.2 383.7 -112.5 383.8 -112.15 385.25 -112.45 385.95 -115.0 386.65 -115.45 386.4 -117.3 379.4 -116.9 378.95 -114.5 378.3 -113.85 378.8 -113.45 380.25 -113.15 380.15 -114.4 375.5 -114.75 375.55 -114.35 377.0 -114.65 377.75 -117.2 378.45 -117.65 378.2 -119.5 371.2 -119.1 370.75 -116.7 370.1 -116.05 370.6 -115.65 372.05 -115.35 371.95 -117.0 365.65 -117.35 365.75 -116.95 367.2 -117.25 367.95 -119.8 368.6 -120.25 368.4 -122.15 361.4 -121.75 360.95 -119.3 360.3 -118.7 360.75 -118.3 362.2 -117.95 362.15 -119.2 357.45 -119.55 357.55 -119.15 359.0 -119.45 359.75 -122.0 360.4 -122.45 360.2 -124.35 353.2 -123.95 352.75 -121.5 352.1 -120.9 352.55 -120.5 354.0 -120.15 353.9 -122.1 346.65 -122.45 346.75 -122.05 348.2 -122.35 348.9 -124.9 349.6 -125.35 349.35 -127.25 342.35 -126.85 341.95 -124.4 341.25 -123.8 341.75 -123.4 343.2 -123.05 343.1 -124.3 338.45 -124.65 338.55 -124.25 339.95 -124.55 340.7 -127.1 341.4 -127.55 341.15 -129.45 334.15 -129.05 333.7 -126.6 333.05 -126.0 333.55 -125.6 335.0 -125.25 334.9 -132.15 309.1 -132.5 309.2 -132.1 310.65 -132.4 311.4 -135.0 312.05 -135.45 311.85 -137.3 304.85 -136.9 304.4 -134.45 303.75 -133.85 304.2 -133.45 305.65 -133.1 305.55 -134.35 300.9 -134.7 301.0 -134.3 302.45 -134.6 303.15 -137.2 303.85 -137.65 303.6 -139.5 296.6 -139.1 296.15 -136.65 295.5 -136.05 296.0 -135.65 297.45 -135.3 297.35 -137.25 290.1 -137.6 290.2 -137.2 291.65 -137.5 292.35 -140.05 293.05 -140.5 292.8 -142.4 285.8 -142.0 285.35 -139.55 284.7 -138.95 285.2 -138.55 286.65 -138.2 286.55 -139.45 281.85 -139.8 281.95 -139.4 283.4 -139.7 284.15 -142.25 284.85 -142.7 284.6 -144.6 277.6 -144.2 277.15 -141.75 276.5 -141.15 277.0 -140.75 278.45 -140.4 278.35 -152.4 233.5 -169.95 236.15 -169.9 236.9 -170.25 237.95 -170.75 238.95 -171.7 239.6 -172.3 239.85 -185.6 243.4 -186.0 243.45 -186.75 243.35 -187.9 242.75 -188.7 241.5 -189.1 240.45 -192.45 227.65 -192.35 226.15 -191.65 225.1 -190.85 224.45 -177.55 220.9 -176.75 220.8 -175.6 220.9 -174.6 221.55 -173.85 222.25 -173.5 222.85 -156.95 216.55 -163.55 191.95 -163.9 192.05 -163.5 193.5 -163.8 194.2 -166.35 194.9 -166.8 194.65 -168.7 187.65 -168.3 187.25 -165.85 186.55 -165.25 187.05 -164.85 188.5 -164.5 188.4 -165.75 183.75 -166.1 183.85 -165.7 185.25 -166.0 186.0 -168.55 186.7 -169.0 186.45 -170.9 179.45 -170.5 179.0 -168.05 178.35 -167.45 178.85 -167.05 180.3 -166.7 180.2 -168.25 174.3 -168.65 174.4 -168.25 175.85 -168.55 176.55 -171.1 177.25 -171.55 177.0 -173.45 170.0 -173.05 169.6 -170.6 168.9 -169.95 169.4 -169.6 170.85 -169.2 170.75 -170.45 166.1 -170.85 166.2 -170.45 167.65 -170.75 168.35 -173.3 169.05 Q-173.5 168.95 -173.75 168.8 L-175.65 161.8 -175.25 161.35 -172.8 160.7 -172.15 161.2 -171.8 162.65 -171.4 162.55 -172.95 156.8 -173.3 156.9 -172.95 158.35 -173.25 159.1 -175.8 159.75 -176.25 159.55 -178.1 152.55 -177.7 152.1 -175.3 151.45 -174.65 151.9 -174.25 153.35 -173.9 153.25 -175.15 148.6 -175.5 148.7 -175.15 150.15 -175.45 150.9 -178.0 151.55 -178.45 151.35 -180.3 144.3 -179.9 143.9 -177.5 143.25 -176.85 143.7 -176.45 145.15 -176.1 145.05 -177.9 138.3 -187.15 39.75 -183.35 39.4 -299.35 -210.0 Q-296.75 -211.1 -294.2 -212.25 L-295.8 -215.6 -185.0 -268.0 -253.9 -686.6 -235.95 -691.4 -241.65 -724.25 -233.75 -726.35 -222.1 -695.1 -178.55 -706.8 -184.25 -739.65 -176.4 -741.75 -164.75 -710.5 -146.8 -715.3 -22.85 -384.75 49.75 -367.6 57.6 -338.35 49.4 -330.3 50.4 -326.65 50.75 -326.75 50.35 -328.2 50.65 -328.9 53.1 -329.55 53.65 -329.4 55.55 -322.4 55.25 -321.95 52.7 -321.25 52.1 -321.75 51.7 -323.2 51.3 -323.1 52.85 -317.3 53.25 -317.4 52.85 -318.85 53.15 -319.6 55.6 -320.25 56.15 -320.05 58.05 -313.05 57.75 -312.65 55.2 -311.95 54.6 -312.45 54.2 -313.9 53.8 -313.8 57.05 -301.8 57.8 -301.6 59.4 -307.25 119.05 -290.75 150.4 -173.9 144.65 -172.4 152.1 -144.65 162.2 -147.4 162.85 -145.0 163.1 -145.05 162.7 -146.5 163.0 -147.2 165.45 -147.85 166.0 -147.7 167.9 -140.7 167.6 -140.25 165.05 -139.55 164.45 -140.05 164.05 -141.5 163.8 -141.45 165.05 -136.75 165.3 -136.85 164.9 -138.3 165.2 -139.0 167.65 -139.65 168.2 -139.45 170.1 -132.45 169.8 -132.05 167.25 -131.35 166.65 -131.85 166.25 -133.3 166.0 -133.25 166.6 -131.1 184.05 -133.9 184.0 -134.6 184.85 -136.65 185.8 -137.35 199.85 -141.2 200.85 -141.05 202.0 -140.45 202.8 -139.25 206.55 -125.35 206.45 -123.9 205.75 -122.8 205.1 -122.3 204.75 -122.15 191.5 -118.6 190.85 -118.5 189.7 -118.6 187.95 -119.95 187.6 -120.6 171.15 -114.15 171.7 -111.95 171.95 -112.0 171.55 -113.45 171.85 -114.2 174.3 -114.85 174.85 -114.65 176.75 -107.65 176.45 -107.2 173.9 -106.55 173.3 -107.0 172.9 -108.45 172.65 -108.4 173.9 -103.75 174.15 -103.8 173.75 -105.25 174.05 -105.95 176.5 -106.6 177.05 -106.45 178.95 -99.45 178.65 -99.0 176.1 -98.3 175.5 -98.8 175.1 -100.25 174.85 -100.2 216.75 56.15 217.0 56.1 216.6 54.65 216.9 53.95 219.35 53.3 219.9 53.45 221.8 60.45 221.5 60.9 218.95 61.6 218.35 61.1 217.95 59.65 217.7 59.7 218.95 64.4 219.2 64.3 218.8 62.85 219.1 62.15 221.55 61.5 222.1 61.7 224.0 68.7 223.7 69.1 221.15 69.8 220.55 69.3 220.15 67.85 219.9 67.9 221.6 74.25 221.85 74.2 221.45 72.75 221.75 72.0 224.2 71.35 224.75 71.55 226.6 78.55 226.35 78.95 223.8 79.65 223.15 79.15 222.8 77.7 222.55 77.8 223.8 82.45 224.05 82.4 223.65 80.95 223.95 80.2 226.4 79.55 226.95 79.75 228.8 86.75 228.55 87.2 226.0 87.85 225.35 87.35 225.0 85.95 224.75 86.0 226.55 92.65 226.75 92.6 226.35 91.15 226.65 90.4 229.1 89.75 229.7 89.95 231.55 96.95 231.3 97.35 228.7 98.05 228.1 97.55 227.7 96.1 227.5 96.15 228.75 100.85 228.95 100.8 228.55 99.35 228.85 98.6 231.3 97.95 231.9 98.15 233.75 105.15 233.5 105.6 230.9 106.25 230.3 105.75 229.9 104.3 229.7 104.4 246.0 165.3 246.25 165.25 245.85 163.8 246.15 163.05 248.6 162.4 249.15 162.6 251.0 169.6 250.75 170.05 248.2 170.7 247.55 170.25 247.2 168.8 246.95 168.85 248.2 173.5 248.45 173.45 248.05 172.0 248.35 171.3 250.8 170.6 251.35 170.8 253.2 177.8 252.95 178.25 250.4 178.95 249.75 178.45 249.4 177.0 249.15 177.05 250.85 183.35 251.05 183.3 250.7 181.85 251.0 181.15 253.4 180.5 254.0 180.65 255.85 187.65 255.6 188.1 253.05 188.8 252.4 188.3 252.0 186.85 251.8 186.9 253.05 191.6 253.25 191.5 252.9 190.05 253.2 189.35 255.6 188.7 256.2 188.9 258.05 195.9 257.8 196.3 255.25 197.0 254.6 196.5 254.2 195.05 254.0 195.1 255.8 201.75 256.0 201.7 255.6 200.25 255.9 199.55 258.35 198.9 258.9 199.05 260.8 206.05 260.5 206.5 257.95 207.2 257.35 206.7 256.95 205.25 256.75 205.3 258.0 210.0 258.2 209.9 257.8 208.45 258.1 207.75 260.55 207.1 261.1 207.25 263.0 214.3 262.7 214.7 260.15 215.4 259.55 214.9 259.15 213.45 258.95 213.5 260.75 220.3 260.95 220.25 260.6 218.8 260.9 218.1 263.3 217.45 263.9 217.6 265.75 224.6 265.5 225.05 262.95 225.75 262.3 225.25 261.9 223.8 261.7 223.85 262.95 228.55 263.15 228.45 262.8 227.0 263.1 226.3 265.5 225.65 266.1 225.8 267.95 232.85 267.7 233.25 265.15 233.95 264.5 233.45 264.1 232.0 263.9 232.05 294.9 347.75 295.1 347.7 294.75 346.25 295.05 345.55 297.45 344.9" fill="#6f6f6f" fill-rule="evenodd" stroke="none"/>
    <path d="M135.45 187.35 Q152.15 174.55 168.8 161.7 L211.3 167.75 223.75 214.1 217.6 215.75 223.55 237.95 224.8 238.5 226.7 238.0 235.8 243.15 246.5 282.9 241.2 292.1 239.55 292.5 241.45 299.45 246.95 304.85 246.6 305.25 253.85 332.25 254.45 332.4 252.95 342.4 254.4 347.9 252.35 348.45 252.65 349.55 253.35 349.4 256.35 360.65 255.25 360.95 255.2 361.9 254.25 366.0 251.95 369.6 248.65 372.25 249.1 373.9 224.15 380.75 217.35 385.7 206.0 388.75 188.2 385.45 180.9 358.2 184.3 357.3 180.9 352.75 181.4 352.35 173.9 324.4 173.55 324.25 175.05 317.0 173.25 310.3 172.1 310.6 162.95 305.3 152.25 265.5 157.6 256.5 159.55 256.0 160.15 255.1 154.3 233.2 148.2 234.85 135.45 187.35" fill="#424242" fill-rule="evenodd" stroke="none"/>
    <path d="M171.15 169.25 L204.95 174.45 214.3 209.2 182.05 217.85 182.2 218.4 183.65 218.05 187.3 231.8 185.85 232.2 186.15 233.2 187.6 232.8 191.35 246.85 189.2 247.45 189.5 248.55 213.8 242.05 205.75 212.1 214.8 209.7 222.9 240.0 226.3 239.1 235.15 243.75 245.5 282.55 240.55 291.1 236.55 292.2 238.2 298.3 245.7 305.1 253.05 332.45 251.1 346.45 254.6 359.65 224.6 367.7 221.3 355.3 242.6 349.6 228.0 295.0 215.55 298.35 215.85 299.45 218.0 298.9 221.4 311.7 203.2 316.55 203.5 317.55 204.75 317.2 206.95 325.4 225.15 320.55 227.4 328.9 209.3 333.75 213.35 348.95 212.1 349.3 212.35 350.3 214.3 349.75 216.0 356.05 220.05 354.95 223.8 368.95 214.8 378.45 204.8 381.1 193.55 377.05 189.9 363.5 202.15 360.25 200.35 353.5 204.15 352.5 203.85 351.5 202.4 351.9 197.15 332.25 197.95 332.05 196.55 326.75 195.8 326.9 194.0 320.1 195.25 319.75 195.0 318.75 193.6 319.15 190.15 306.35 209.0 301.3 208.7 300.2 184.3 306.7 198.3 358.85 189.3 361.3 182.05 351.45 174.7 324.1 176.55 313.6 175.2 308.65 171.75 309.55 163.4 304.55 153.0 265.75 157.8 257.45 161.95 256.35 153.8 226.05 162.05 223.85 170.05 253.75 181.9 250.6 181.55 249.45 180.25 249.85 176.5 235.8 177.75 235.45 177.5 234.45 176.2 234.75 172.55 221.0 173.6 220.7 173.45 220.1 153.2 225.3 143.85 190.6 171.15 169.25" fill="#959595" fill-rule="evenodd" stroke="none"/>
    <path d="M195.65 352.6 L196.55 352.35 197.0 354.05 196.1 354.25 195.65 352.6" fill="#6f6f6f" fill-rule="evenodd" stroke="none"/>
    <path d="M194.3 346.7 L194.95 346.5 195.4 348.15 194.75 348.3 194.6 347.85 194.05 348.0 193.8 347.2 194.4 347.05 194.3 346.7" fill="#6f6f6f" fill-rule="evenodd" stroke="none"/>
    <path d="M194.3 348.65 L195.45 348.35 196.4 351.85 195.25 352.2 194.3 348.65" fill="#6f6f6f" fill-rule="evenodd" stroke="none"/>
    <path d="M185.15 229.6 L186.65 229.2 186.9 230.25 185.45 230.65 185.15 229.6" fill="#6f6f6f" fill-rule="evenodd" stroke="none"/>
    <path d="M175.3 227.5 L175.6 228.55 174.6 228.8 174.35 227.75 175.3 227.5" fill="#6f6f6f" fill-rule="evenodd" stroke="none"/>
    <path d="M173.05 223.0 L174.2 222.7 174.5 223.75 173.35 224.05 173.05 223.0" fill="#6f6f6f" fill-rule="evenodd" stroke="none"/>
    <path d="M175.7 232.9 L176.8 232.6 177.05 233.7 176.0 233.95 175.7 232.9" fill="#6f6f6f" fill-rule="evenodd" stroke="none"/>
    <path d="M183.2 222.6 L184.75 222.2 185.05 223.25 183.5 223.7 183.2 222.6" fill="#6f6f6f" fill-rule="evenodd" stroke="none"/>
    <path d="M182.6 220.3 L184.15 219.9 184.45 221.0 182.9 221.45 182.6 220.3" fill="#6f6f6f" fill-rule="evenodd" stroke="none"/>
    <path d="M162.0 226.7 L162.75 226.5 163.7 230.1 162.95 230.25 162.0 226.7" fill="#6f6f6f" fill-rule="evenodd" stroke="none"/>
    <path d="M206.85 216.2 L207.5 216.05 208.7 220.5 208.05 220.65 206.85 216.2" fill="#6f6f6f" fill-rule="evenodd" stroke="none"/>
    <path d="M223.35 321.8 L220.8 322.45 220.7 322.0 223.2 321.3 223.35 321.8" fill="#6f6f6f" fill-rule="evenodd" stroke="none"/>
    <path d="M218.35 322.7 L220.15 322.2 220.4 323.05 218.55 323.55 218.35 322.7" fill="#6f6f6f" fill-rule="evenodd" stroke="none"/>
    <path d="M214.85 324.55 L214.6 323.7 218.0 322.8 218.25 323.65 214.85 324.55" fill="#6f6f6f" fill-rule="evenodd" stroke="none"/>
    <path d="M212.8 332.45 L214.65 331.95 214.8 332.55 212.95 333.05 212.8 332.45" fill="#6f6f6f" fill-rule="evenodd" stroke="none"/>
    <path d="M216.05 332.25 L215.75 332.35 215.65 332.1 216.0 332.0 216.05 332.25" fill="#6f6f6f" fill-rule="evenodd" stroke="none"/>
    <path d="M224.85 329.35 L225.3 329.25 225.45 329.85 225.05 329.95 224.85 329.35" fill="#6f6f6f" fill-rule="evenodd" stroke="none"/>
    <path d="M227.05 329.1 L226.75 327.85 227.0 327.8 226.65 326.6 226.95 326.5 227.3 327.85 227.15 327.9 227.45 328.95 227.05 329.1" fill="#6f6f6f" fill-rule="evenodd" stroke="none"/>
    <path d="M214.5 314.05 L214.35 313.45 215.95 313.05 216.1 313.65 214.5 314.05" fill="#6f6f6f" fill-rule="evenodd" stroke="none"/>
    <path d="M218.45 302.7 L218.95 302.55 219.55 304.75 219.0 304.85 218.45 302.7" fill="#6f6f6f" fill-rule="evenodd" stroke="none"/>
    <path d="M219.9 307.75 L220.3 307.65 220.5 308.35 220.05 308.45 219.9 307.75" fill="#6f6f6f" fill-rule="evenodd" stroke="none"/>
    <path d="M199.0 304.25 L202.9 303.2 203.25 304.4 199.35 305.45 199.0 304.25" fill="#6f6f6f" fill-rule="evenodd" stroke="none"/>
    <path d="M196.6 305.0 L196.8 305.85 195.25 306.3 195.0 305.4 196.6 305.0" fill="#6f6f6f" fill-rule="evenodd" stroke="none"/>
    <path d="M191.2 306.35 L194.4 305.5 194.7 306.6 191.5 307.45 191.2 306.35" fill="#6f6f6f" fill-rule="evenodd" stroke="none"/>
    <path d="M194.4 321.85 L194.8 321.75 195.25 323.5 194.9 323.6 194.4 321.85" fill="#6f6f6f" fill-rule="evenodd" stroke="none"/>
    <path d="M197.75 334.45 L198.05 334.4 198.3 335.4 198.0 335.5 197.75 334.45" fill="#6f6f6f" fill-rule="evenodd" stroke="none"/>
    <path d="M198.15 335.75 L198.5 335.65 198.85 336.95 198.5 337.05 198.15 335.75" fill="#6f6f6f" fill-rule="evenodd" stroke="none"/>
    <path d="M201.35 345.7 L200.8 345.85 200.6 345.05 201.1 344.9 201.35 345.7" fill="#6f6f6f" fill-rule="evenodd" stroke="none"/>
    <path d="M201.8 347.95 L201.45 348.0 201.1 346.75 201.45 346.65 201.8 347.95" fill="#6f6f6f" fill-rule="evenodd" stroke="none"/>
    <path d="M202.65 351.0 L202.35 351.1 201.85 349.35 202.2 349.3 202.65 351.0" fill="#6f6f6f" fill-rule="evenodd" stroke="none"/>
    <path d="M214.7 353.05 L214.25 351.3 214.7 351.2 215.15 352.95 214.7 353.05" fill="#6f6f6f" fill-rule="evenodd" stroke="none"/>
    <path d="M215.9 355.75 L215.3 355.9 214.7 353.7 215.35 353.55 215.9 355.75" fill="#6f6f6f" fill-rule="evenodd" stroke="none"/>
    <path d="M210.05 337.25 L210.25 337.2 210.5 338.05 210.3 338.1 210.05 337.25" fill="#6f6f6f" fill-rule="evenodd" stroke="none"/>
    <path d="M210.65 343.15 L211.1 343.0 211.0 342.6 211.7 342.4 212.15 344.1 211.45 344.3 211.3 343.85 210.85 344.0 210.65 343.15" fill="#6f6f6f" fill-rule="evenodd" stroke="none"/>
    <path d="M217.35 331.0 L217.5 331.4 217.25 331.75 216.9 331.85 216.5 331.65 216.4 331.25 216.6 330.9 217.0 330.8 217.35 331.0" fill="#6f6f6f" fill-rule="evenodd" stroke="none"/>
    <path d="M202.5 356.8 L202.6 357.2 202.4 357.55 202.0 357.65 201.65 357.45 201.5 357.05 201.75 356.7 202.1 356.6 202.5 356.8" fill="#6f6f6f" fill-rule="evenodd" stroke="none"/>
    <path d="M201.4 353.3 L202.4 353.05 202.5 353.4 201.5 353.65 201.4 353.3" fill="#6f6f6f" fill-rule="evenodd" stroke="none"/>
    <path d="M200.9 353.4 L201.25 353.3 201.3 353.55 200.95 353.65 200.9 353.4" fill="#6f6f6f" fill-rule="evenodd" stroke="none"/>
    <path d="M200.75 354.9 L201.15 354.8 201.45 356.0 201.1 356.1 200.75 354.9" fill="#6f6f6f" fill-rule="evenodd" stroke="none"/>
    <path d="M193.6 377.3 L190.0 363.75 196.15 362.1 197.45 366.8 198.3 366.6 198.6 367.65 197.7 367.9 197.75 368.1 198.6 367.85 198.9 368.95 198.05 369.15 199.75 375.4 217.85 370.55 215.15 360.55 218.25 359.7 217.4 356.7 220.3 355.9 223.9 369.2 214.85 378.7 204.9 381.35 193.6 377.3" fill="#6f6f6f" fill-rule="evenodd" stroke="none"/>
    <path d="M151.5 220.2 L148.6 209.4 153.95 207.95 156.8 218.75 151.5 220.2" fill="#6f6f6f" fill-rule="evenodd" stroke="none"/>
    <path d="M156.5 224.1 L155.7 221.15 158.7 220.35 159.45 223.3 156.5 224.1" fill="#6f6f6f" fill-rule="evenodd" stroke="none"/>
    <path d="M160.15 223.0 L159.35 220.0 162.35 219.2 163.15 222.2 160.15 223.0" fill="#6f6f6f" fill-rule="evenodd" stroke="none"/>
    <path d="M144.7 194.8 L149.85 193.45 153.6 207.35 148.45 208.75 144.7 194.8" fill="#6f6f6f" fill-rule="evenodd" stroke="none"/>
    <path d="M170.55 191.45 L176.05 211.85 165.95 214.55 160.5 194.1 170.55 191.45" fill="#6f6f6f" fill-rule="evenodd" stroke="none"/>
    <path d="M196.5 214.0 L196.15 212.6 206.2 209.9 206.6 211.3 196.5 214.0" fill="#6f6f6f" fill-rule="evenodd" stroke="none"/>
    <path d="M191.6 215.3 L191.0 213.05 203.2 209.75 203.8 212.0 191.6 215.3" fill="#6f6f6f" fill-rule="evenodd" stroke="none"/>
    <path d="M189.6 215.85 L189.4 215.1 190.9 214.7 191.1 215.45 189.6 215.85" fill="#6f6f6f" fill-rule="evenodd" stroke="none"/>
    <path d="M186.65 216.6 L186.45 215.95 188.85 215.35 189.0 216.0 186.65 216.6" fill="#6f6f6f" fill-rule="evenodd" stroke="none"/>
    <path d="M189.05 182.0 L194.55 202.35 184.4 205.05 178.95 184.7 189.05 182.0" fill="#6f6f6f" fill-rule="evenodd" stroke="none"/>
    <path d="M170.95 169.35 L177.4 170.3 179.9 179.45 168.5 182.4 166.0 173.2 170.95 169.35" fill="#6f6f6f" fill-rule="evenodd" stroke="none"/>
    <path d="M207.0 210.2 L205.05 203.0 211.0 201.4 212.95 208.6 207.0 210.2" fill="#6f6f6f" fill-rule="evenodd" stroke="none"/>
    <path d="M206.05 202.15 L204.05 194.8 209.0 193.5 211.0 200.8 206.05 202.15" fill="#6f6f6f" fill-rule="evenodd" stroke="none"/>
    <path d="M206.95 185.55 L208.9 192.9 203.95 194.2 202.0 186.9 206.95 185.55" fill="#6f6f6f" fill-rule="evenodd" stroke="none"/>
    <path d="M201.8 186.3 L196.8 180.1 200.8 176.9 205.8 183.05 201.8 186.3" fill="#6f6f6f" fill-rule="evenodd" stroke="none"/>
    <path d="M196.9 179.5 L182.55 176.9 183.6 171.2 197.9 173.6 196.9 179.5" fill="#6f6f6f" fill-rule="evenodd" stroke="none"/>
    <path d="M182.35 175.3 L179.45 174.8 180.0 171.75 182.9 172.25 182.35 175.3" fill="#6f6f6f" fill-rule="evenodd" stroke="none"/>
    <path d="M159.9 184.7 L156.9 180.7 162.9 175.85 166.1 180.05 159.9 184.7" fill="#6f6f6f" fill-rule="evenodd" stroke="none"/>
    <path d="M159.15 185.35 L153.05 190.25 149.75 186.2 155.95 181.35 159.15 185.35" fill="#6f6f6f" fill-rule="evenodd" stroke="none"/>
    <path d="M167.75 221.6 L167.45 220.45 170.75 219.6 171.05 220.75 167.75 221.6" fill="#6f6f6f" fill-rule="evenodd" stroke="none"/>
    <path d="M165.7 222.2 L165.45 221.4 167.1 220.95 167.35 221.75 165.7 222.2" fill="#6f6f6f" fill-rule="evenodd" stroke="none"/>
    <path d="M163.85 222.7 L163.7 222.3 165.1 221.9 165.2 222.3 163.85 222.7" fill="#6f6f6f" fill-rule="evenodd" stroke="none"/>
    <path d="M187.75 282.85 L184.95 272.4 204.05 267.3 206.85 277.7 187.75 282.85" fill="#ffffff" fill-rule="evenodd" stroke="none"/>
    <path d="M211.2 232.4 L210.1 228.3 212.4 227.7 213.5 231.75 211.2 232.4" fill="#ffffff" fill-rule="evenodd" stroke="none"/>
    <path d="M165.1 244.75 L164.0 240.7 166.35 240.05 167.45 244.1 165.1 244.75" fill="#ffffff" fill-rule="evenodd" stroke="none"/>
    <path d="M237.0 366.9 L232.9 367.95 232.3 365.65 236.35 364.55 237.0 366.9" fill="#ffffff" fill-rule="evenodd" stroke="none"/>
    <path d="M238.1 332.75 L232.15 310.55 238.6 308.8 244.55 331.05 238.1 332.75" fill="#ffffff" fill-rule="evenodd" stroke="none"/>
    <path d="M188.45 322.25 L194.4 344.45 187.85 346.2 181.9 324.0 188.45 322.25" fill="#ffffff" fill-rule="evenodd" stroke="none"/>
  </g>
</svg>
