<?xml version="1.0" encoding="UTF-8" standalone="no"?>
<svg xmlns:ffdec="https://www.free-decompiler.com/flash" xmlns:xlink="http://www.w3.org/1999/xlink" ffdec:objectType="shape" height="1661.0px" width="703.85px" xmlns="http://www.w3.org/2000/svg">
  <g transform="matrix(1.0, 0.0, 0.0, 1.0, 299.9, 741.75)">
    <path d="M-233.75 -726.35 L-222.1 -695.1 -178.55 -706.8 -184.25 -739.65 -176.4 -741.75 -164.75 -710.5 -146.8 -715.3 -75.4 -516.2 -22.3 -384.55 49.85 -368.6 57.85 -338.65 49.1 -330.2 56.8 -301.45 59.1 -308.25 119.0 -290.8 150.3 -173.95 145.25 -172.6 152.9 -144.1 162.55 -146.7 175.7 -97.65 158.15 -93.0 143.65 -73.25 115.15 -65.65 142.7 37.2 171.2 29.6 193.7 39.65 211.2 34.95 403.95 754.2 366.85 771.9 367.9 775.85 368.3 792.8 374.9 817.45 358.8 821.75 362.5 835.7 362.55 836.8 362.2 837.6 361.7 838.2 360.95 838.7 337.35 845.0 343.0 857.2 229.85 909.25 225.65 900.15 154.4 919.25 143.45 903.35 137.45 904.95 136.55 904.9 135.75 904.6 135.1 904.1 134.55 903.15 131.65 892.2 129.05 892.9 107.45 890.95 107.4 890.95 36.85 884.5 16.65 809.15 33.6 804.6 49.2 784.35 76.9 776.95 49.5 674.85 21.25 682.4 0.45 671.95 -18.75 677.05 -24.95 653.75 -45.05 634.05 -177.55 139.6 -183.8 37.75 -299.9 -210.7 -294.3 -212.5 -295.7 -215.6 -185.1 -270.45 -217.4 -478.15 -253.9 -686.6 -235.95 -691.4 -241.65 -724.25 -233.75 -726.35" fill="#424242" fill-rule="evenodd" stroke="none"/>
    <path d="M273.9 840.8 L263.95 843.45 252.25 799.7 262.2 797.0 273.9 840.8" fill="#ffffff" fill-rule="evenodd" stroke="none"/>
    <path d="M237.15 707.95 L246.9 705.35 254.75 734.65 245.0 737.25 237.15 707.95" fill="#ffffff" fill-rule="evenodd" stroke="none"/>
    <path d="M273.9 840.8 L258.7 783.95 154.5 811.85 169.75 868.7 273.9 840.8 M247.0 705.4 L236.7 708.2 237.4 708.95 245.4 738.65 255.15 736.0 247.0 705.4 M242.6 668.8 L242.25 668.9 242.05 669.2 242.1 669.6 242.4 669.8 242.75 669.85 243.05 669.6 243.1 669.25 242.95 668.9 242.6 668.8 M242.8 668.15 L242.65 667.8 242.3 667.7 241.95 667.8 241.75 668.1 241.8 668.45 242.1 668.7 242.45 668.7 242.75 668.5 242.8 668.15 M41.45 473.35 L41.55 473.15 41.55 472.95 41.4 472.8 41.25 472.7 41.05 472.75 40.9 472.85 40.8 473.05 40.8 473.25 40.95 473.4 41.1 473.45 41.3 473.45 41.45 473.35 M41.8 474.05 L41.65 473.85 41.5 473.8 41.3 473.8 41.15 473.9 41.05 474.1 41.05 474.3 41.2 474.45 41.35 474.55 41.55 474.5 41.7 474.4 41.8 474.25 41.8 474.05 M-86.35 162.5 L-86.25 162.9 -85.95 163.15 -85.6 163.25 -85.65 163.25 -86.25 163.8 -86.5 164.55 -86.3 165.35 -85.7 165.85 -84.9 166.0 -84.15 165.7 -83.7 165.0 -83.7 164.2 -84.1 163.5 -84.85 163.15 -85.5 163.25 -85.15 163.05 -84.9 162.75 -84.9 162.3 -85.15 161.95 -85.5 161.8 -85.9 161.85 -86.25 162.1 -86.35 162.5 M134.5 -73.35 L134.55 -73.1 136.6 -73.65 136.95 -72.3 134.9 -71.75 135.2 -70.8 142.6 -72.75 156.15 -92.45 175.7 -97.65 211.15 34.65 191.6 39.9 170.05 29.6 162.6 31.6 162.9 32.6 164.9 32.05 165.25 33.4 163.25 33.95 163.3 34.2 157.35 35.8 157.3 35.55 155.2 36.1 154.85 34.75 156.95 34.2 156.65 33.2 149.75 35.05 149.95 35.85 145.05 39.15 145.45 40.6 143.5 41.15 144.0 42.9 144.7 42.7 145.3 44.95 144.6 45.15 145.1 47.0 144.1 47.25 144.4 48.25 134.15 50.95 133.9 50.0 131.55 50.65 131.85 51.75 128.25 52.75 121.35 26.95 106.8 30.85 112.6 52.6 81.15 61.0 93.35 106.1 82.6 109.0 86.75 124.4 86.2 124.7 86.5 125.9 86.7 125.9 74.5 129.15 74.05 127.4 72.1 127.9 72.6 129.7 -43.2 160.7 -46.1 150.0 -49.9 151.05 -43.15 176.3 -39.3 175.25 -41.95 165.4 -28.4 161.75 -28.75 160.4 -28.65 160.35 -28.95 159.3 -25.55 158.4 -25.3 159.45 -3.15 153.55 -3.5 152.25 49.8 137.95 50.15 139.25 71.4 133.55 71.0 132.1 74.35 131.2 74.75 132.65 75.1 132.55 75.45 133.9 87.75 130.6 87.95 131.35 88.8 131.35 91.2 140.3 92.4 140.0 100.5 170.35 99.35 170.65 101.75 179.7 101.05 180.15 101.35 181.3 102.2 181.3 104.7 190.65 108.85 189.55 107.0 182.7 108.05 182.4 108.1 181.65 125.2 177.05 125.6 177.7 126.75 177.4 126.75 176.65 142.25 172.5 142.6 173.15 143.75 172.85 143.75 172.1 159.7 167.85 160.05 168.45 161.25 168.15 161.25 168.1 173.1 212.35 173.05 212.3 171.9 212.6 171.9 213.75 156.2 217.95 155.6 217.0 154.45 217.3 154.4 218.45 139.15 222.55 138.55 221.55 137.4 221.85 137.4 223.0 120.5 227.55 119.9 226.55 118.8 226.85 116.95 219.85 112.8 221.0 115.25 230.0 114.5 230.4 114.8 231.6 115.65 231.6 128.7 280.3 128.0 280.7 128.3 281.9 129.15 281.9 142.1 330.3 141.4 330.75 141.7 331.9 142.55 331.9 145.0 341.0 146.35 340.65 154.5 370.95 153.15 371.3 155.55 380.4 154.8 380.85 155.15 382.0 156.0 382.05 158.45 391.25 159.85 390.9 168.05 421.5 166.7 421.9 169.05 430.8 168.3 431.25 168.6 432.4 156.65 435.6 156.15 433.8 154.2 434.35 154.85 436.75 153.5 437.15 153.75 438.1 152.25 438.5 152.6 439.8 154.1 439.4 154.4 440.35 156.7 439.75 156.85 440.35 169.85 436.85 170.05 437.7 170.9 437.75 180.2 472.25 190.4 469.5 202.45 514.5 231.1 506.8 231.0 506.9 230.75 507.65 230.95 508.4 231.5 508.9 232.3 509.0 233.0 508.7 233.45 508.05 233.45 507.3 233.05 506.65 232.55 506.4 233.95 506.05 239.75 527.65 255.15 523.55 248.25 497.7 263.95 493.5 296.85 616.4 281.15 620.6 274.55 595.95 259.15 600.1 265.0 621.75 233.55 630.15 235.5 637.4 234.85 637.75 235.15 638.95 235.9 638.95 238.1 647.2 237.6 646.95 236.95 647.05 236.45 647.45 236.25 648.1 236.4 648.75 236.9 649.2 237.55 649.3 238.2 649.05 238.5 648.6 249.2 688.55 248.55 688.95 248.85 690.1 249.6 690.15 263.65 740.5 260.85 741.25 260.85 741.15 261.05 740.4 260.85 739.65 260.35 739.1 259.65 738.9 258.9 739.05 258.35 739.55 258.1 740.3 258.3 741.05 258.85 741.7 258.85 741.8 180.45 762.75 181.05 765.0 189.95 762.65 190.35 764.05 192.25 763.55 191.85 762.15 219.7 754.65 220.05 756.1 222.15 755.55 221.75 754.1 243.05 748.4 244.5 753.85 244.05 753.35 243.15 753.15 242.25 753.5 241.8 754.35 241.85 755.3 242.5 756.0 243.4 756.2 243.15 756.65 243.2 757.35 243.65 757.85 244.3 758.0 244.95 757.75 245.25 757.15 245.2 756.6 246.95 763.05 241.05 764.6 241.9 767.8 268.25 760.75 291.45 847.3 276.45 851.3 278.55 859.15 268.2 861.95 266.1 854.05 160.95 882.2 138.9 799.95 192.25 785.6 195.55 780.2 235.55 769.5 234.7 766.3 225.7 768.75 225.25 767.1 223.15 767.65 223.6 769.3 195.75 776.75 195.35 775.1 193.45 775.6 193.9 777.25 192.3 777.65 188.9 783.95 186.95 784.5 187.2 785.45 160.5 792.6 160.2 791.5 137.95 797.45 132.7 777.95 154.8 772.05 154.2 769.8 111.85 781.15 104.4 753.4 90.25 757.15 97.25 783.4 93.65 784.35 93.35 783.25 91.0 783.85 91.25 784.85 81.05 787.55 80.8 786.6 79.85 786.85 79.35 785.0 78.6 785.2 78.0 782.95 78.75 782.75 78.25 781.0 76.35 781.5 75.95 780.05 70.05 779.65 69.85 778.85 62.9 780.7 63.15 781.7 65.25 781.1 65.6 782.45 63.55 783.0 63.6 783.3 57.65 784.85 57.55 784.6 55.55 785.15 55.2 783.8 57.2 783.3 56.95 782.3 49.55 784.3 36.0 803.95 16.45 809.2 -19.0 676.85 0.55 671.65 22.1 681.9 29.5 679.9 29.25 678.95 27.25 679.45 26.9 678.15 28.9 677.6 28.8 677.35 34.8 675.75 34.85 676.0 36.95 675.45 37.3 676.75 35.2 677.35 35.45 678.3 42.4 676.45 42.2 675.65 47.1 672.35 46.7 670.9 48.6 670.4 48.15 668.6 47.4 668.8 46.8 666.55 47.55 666.35 47.05 664.5 48.0 664.25 47.75 663.3 57.95 660.55 58.2 661.5 60.55 660.9 60.25 659.75 63.9 658.8 70.85 684.75 85.0 680.95 52.95 561.4 63.35 558.65 53.95 523.65 54.95 523.1 54.65 521.9 53.5 521.9 40.3 472.8 41.3 472.2 41.05 471.2 53.95 467.75 53.7 466.7 55.5 466.2 55.9 465.6 55.9 465.55 57.25 465.2 57.05 464.15 55.65 464.5 55.5 463.95 54.6 463.5 53.9 463.65 53.3 461.45 51.35 461.95 51.7 463.2 38.75 466.7 36.05 456.55 34.95 456.85 26.85 426.5 27.95 426.25 25.45 417.05 26.4 416.5 26.1 415.35 25.0 415.35 22.6 406.3 21.5 406.6 13.4 376.3 14.45 376.0 12.05 366.95 12.95 366.4 12.65 365.25 11.6 365.2 -1.35 316.9 -0.45 316.4 -0.75 315.2 -1.8 315.2 -14.85 266.6 -13.9 266.1 -14.2 264.9 -15.3 264.9 -17.7 255.95 -18.8 256.25 -26.9 225.95 -25.65 225.6 -28.15 216.25 -27.4 215.8 -27.7 214.65 -28.6 214.65 -31.1 205.2 -35.05 206.25 -32.3 216.7 -69.85 226.8 -83.7 175.05 -82.3 174.2 -82.6 173.05 -84.25 173.05 -98.0 121.7 -60.45 111.6 -57.9 121.2 -54.05 120.2 -56.2 112.25 -54.9 111.5 -55.25 110.35 -56.7 110.3 -69.6 62.2 -79.9 64.95 -92.6 17.5 -91.75 17.0 -92.05 15.8 -93.05 15.8 -105.7 -31.3 -104.8 -31.8 -105.15 -32.95 -106.15 -33.0 -118.75 -80.1 -117.9 -80.6 -118.2 -81.8 -119.2 -81.8 -131.8 -128.75 -130.95 -129.25 -131.1 -129.85 -121.25 -132.5 -121.35 -132.75 -107.9 -136.35 -109.1 -140.75 -5.9 -168.4 -4.7 -164.05 18.25 -170.2 18.5 -169.3 19.5 -169.3 32.05 -122.3 31.2 -121.8 31.55 -120.65 32.5 -120.65 45.15 -73.5 44.3 -73.0 44.6 -71.85 45.6 -71.85 50.15 -54.85 81.55 -63.4 87.35 -41.6 101.9 -45.5 94.85 -71.9 98.5 -72.85 98.8 -71.7 101.15 -72.35 100.85 -73.3 111.1 -76.05 111.35 -75.1 112.3 -75.35 112.8 -73.5 113.55 -73.7 114.15 -71.45 113.4 -71.25 113.85 -69.45 115.8 -70.0 116.2 -68.55 122.1 -68.15 122.3 -67.3 129.25 -69.2 128.95 -70.15 126.85 -69.6 126.5 -70.95 128.6 -71.5 128.55 -71.75 134.5 -73.35" fill="#959595" fill-rule="evenodd" stroke="none"/>
    <path d="M-127.9 277.55 L-127.9 276.4 -127.7 275.6 -127.2 275.05 -111.6 270.85 -111.2 272.45 -101.65 269.9 -90.05 313.3 -99.55 315.85 -99.2 317.25 -114.75 321.45 -115.5 321.2 -116.05 320.6 -116.65 319.6 -127.9 277.55" fill="#6f6f6f" fill-rule="evenodd" stroke="none"/>
    <path d="M327.2 666.45 L338.5 708.45 338.5 709.6 338.3 710.45 337.8 711.0 322.2 715.15 321.85 713.75 312.3 716.3 300.65 672.9 310.2 670.35 309.75 668.75 325.35 664.6 326.05 664.8 326.65 665.45 327.2 666.45" fill="#6f6f6f" fill-rule="evenodd" stroke="none"/>
    <path d="M320.9 713.9 L313.3 715.95 312.6 713.4 320.25 711.35 320.9 713.9" fill="#6f6f6f" fill-rule="evenodd" stroke="none"/>
    <path d="M309.95 673.1 L302.35 675.15 301.7 672.6 309.3 670.6 309.95 673.1" fill="#6f6f6f" fill-rule="evenodd" stroke="none"/>
    <path d="M-99.85 -13.15 L-94.6 -14.55 -92.45 -6.55 -97.7 -5.15 -99.85 -13.15" fill="#6f6f6f" fill-rule="evenodd" stroke="none"/>
    <path d="M-97.95 -2.45 L-92.4 -3.95 -90.25 4.1 -95.8 5.6 -97.95 -2.45" fill="#6f6f6f" fill-rule="evenodd" stroke="none"/>
    <path d="M-87.5 -3.9 L-90.4 -2.05 -92.2 -4.85 -89.3 -6.7 -87.5 -3.9" fill="#6f6f6f" fill-rule="evenodd" stroke="none"/>
    <path d="M-57.85 55.9 L-54.7 67.4 -65.75 70.45 -68.9 58.95 -57.85 55.9" fill="#6f6f6f" fill-rule="evenodd" stroke="none"/>
    <path d="M-65.65 71.15 L-54.05 68.95 -51.75 81.1 -63.35 83.3 -65.65 71.15" fill="#6f6f6f" fill-rule="evenodd" stroke="none"/>
    <path d="M-73.9 59.95 L-78.6 47.4 -67.85 43.4 -63.2 55.9 -73.9 59.95" fill="#6f6f6f" fill-rule="evenodd" stroke="none"/>
    <path d="M-63.0 84.5 L-51.4 81.4 -48.3 92.9 -59.9 96.0 -63.0 84.5" fill="#6f6f6f" fill-rule="evenodd" stroke="none"/>
    <path d="M-43.55 109.8 L-54.0 112.6 -58.45 96.05 -47.95 93.25 -43.55 109.8" fill="#6f6f6f" fill-rule="evenodd" stroke="none"/>
    <path d="M-91.65 21.05 L-90.0 20.6 -88.95 24.55 -90.6 25.0 -91.65 21.05" fill="#6f6f6f" fill-rule="evenodd" stroke="none"/>
    <path d="M-33.35 50.3 L-43.0 52.9 -45.1 45.1 -35.4 42.5 -33.35 50.3" fill="#6f6f6f" fill-rule="evenodd" stroke="none"/>
    <path d="M-30.65 58.65 L-40.3 61.25 -42.4 53.45 -32.75 50.85 -30.65 58.65" fill="#6f6f6f" fill-rule="evenodd" stroke="none"/>
    <path d="M-41.0 61.8 L-31.3 59.45 -29.4 67.3 -39.1 69.65 -41.0 61.8" fill="#6f6f6f" fill-rule="evenodd" stroke="none"/>
    <path d="M-45.0 -133.85 L-63.75 -136.7 -62.7 -143.6 -43.95 -140.75 -45.0 -133.85" fill="#6f6f6f" fill-rule="evenodd" stroke="none"/>
    <path d="M-25.9 110.0 L-12.6 108.8 -9.6 142.8 -22.9 143.95 -25.9 110.0" fill="#6f6f6f" fill-rule="evenodd" stroke="none"/>
    <path d="M-42.9 154.9 L-44.7 151.7 -43.9 151.25 -44.35 149.6 -36.3 147.45 -34.25 155.1 -33.7 156.05 -33.95 156.15 -33.7 157.05 -37.15 157.95 -40.25 159.7 -40.7 158.9 -41.75 159.2 -42.9 154.9" fill="#6f6f6f" fill-rule="evenodd" stroke="none"/>
    <path d="M60.1 76.15 L70.35 73.4 74.9 90.25 64.6 93.0 60.1 76.15" fill="#6f6f6f" fill-rule="evenodd" stroke="none"/>
    <path d="M68.85 113.25 L62.55 94.95 74.75 90.7 85.75 122.65 84.1 123.2 84.3 124.0 72.1 127.3 68.4 113.4 68.85 113.25" fill="#6f6f6f" fill-rule="evenodd" stroke="none"/>
    <path d="M84.75 59.95 L83.1 53.85 100.5 49.2 102.1 55.3 84.75 59.95" fill="#6f6f6f" fill-rule="evenodd" stroke="none"/>
    <path d="M83.1 67.95 L81.35 68.4 80.25 64.4 82.05 63.9 83.1 67.95" fill="#6f6f6f" fill-rule="evenodd" stroke="none"/>
    <path d="M70.5 -46.5 L58.85 -43.4 55.7 -55.2 67.35 -58.35 70.5 -46.5" fill="#6f6f6f" fill-rule="evenodd" stroke="none"/>
    <path d="M76.25 -60.55 L80.1 -61.6 82.0 -54.65 78.1 -53.6 76.25 -60.55" fill="#6f6f6f" fill-rule="evenodd" stroke="none"/>
    <path d="M83.4 -56.35 L81.95 -56.0 81.4 -58.0 82.85 -58.35 83.4 -56.35" fill="#6f6f6f" fill-rule="evenodd" stroke="none"/>
    <path d="M72.05 -59.6 L75.9 -60.65 77.75 -53.7 73.9 -52.65 72.05 -59.6" fill="#6f6f6f" fill-rule="evenodd" stroke="none"/>
    <path d="M73.65 -52.6 L69.8 -51.55 67.95 -58.5 71.8 -59.55 73.65 -52.6" fill="#6f6f6f" fill-rule="evenodd" stroke="none"/>
    <path d="M-53.75 118.15 L-54.55 118.4 -55.7 114.2 -54.85 114.0 -53.75 118.15" fill="#6f6f6f" fill-rule="evenodd" stroke="none"/>
    <path d="M-62.95 112.2 L-62.6 113.5 -65.75 114.35 -66.1 113.05 -62.95 112.2" fill="#6f6f6f" fill-rule="evenodd" stroke="none"/>
    <path d="M-76.95 117.35 L-77.3 116.0 -74.2 115.2 -73.85 116.5 -76.95 117.35" fill="#6f6f6f" fill-rule="evenodd" stroke="none"/>
    <path d="M-67.9 117.55 L-67.95 117.4 -69.7 117.85 -69.65 118.0 -71.5 118.5 -71.55 118.35 -72.4 118.6 -73.35 114.95 -66.35 113.1 -65.4 116.7 -66.1 116.9 -66.05 117.05 -67.9 117.55" fill="#6f6f6f" fill-rule="evenodd" stroke="none"/>
    <path d="M-77.45 116.05 L-76.5 119.7 -77.2 119.85 -77.15 120.05 -79.0 120.55 -79.05 120.35 -80.8 120.85 -80.75 121.0 -82.6 121.5 -82.65 121.35 -83.5 121.55 -84.45 117.95 -77.45 116.05" fill="#6f6f6f" fill-rule="evenodd" stroke="none"/>
    <path d="M245.8 620.9 L245.85 621.1 248.5 620.4 248.45 620.2 251.25 619.45 251.3 619.65 252.4 619.4 253.8 624.75 243.25 627.55 241.85 622.2 243.1 621.85 243.0 621.65 245.8 620.9" fill="#6f6f6f" fill-rule="evenodd" stroke="none"/>
    <path d="M137.35 781.1 L137.6 781.9 137.7 781.9 138.2 783.75 138.1 783.8 138.55 785.55 138.7 785.5 139.2 787.4 139.05 787.4 139.25 788.15 135.7 789.1 133.8 782.05 137.35 781.1" fill="#6f6f6f" fill-rule="evenodd" stroke="none"/>
    <path d="M247.85 683.0 L250.65 693.55 245.25 695.0 244.95 693.75 244.7 693.85 243.95 691.05 244.2 690.95 243.5 688.35 243.25 688.4 242.5 685.6 242.75 685.55 242.45 684.45 247.85 683.0" fill="#6f6f6f" fill-rule="evenodd" stroke="none"/>
    <path d="M-97.25 122.2 L-86.65 119.4 -82.2 135.95 -92.8 138.8 -97.25 122.2" fill="#6f6f6f" fill-rule="evenodd" stroke="none"/>
    <path d="M-89.95 151.7 L-88.75 151.4 -86.25 160.85 -87.45 161.2 -89.95 151.7" fill="#6f6f6f" fill-rule="evenodd" stroke="none"/>
    <path d="M-85.75 167.55 L-84.1 167.1 -83.05 171.0 -84.7 171.45 -85.75 167.55" fill="#6f6f6f" fill-rule="evenodd" stroke="none"/>
    <path d="M-58.45 173.35 L-62.6 161.85 -51.7 157.9 -47.55 169.4 -58.45 173.35" fill="#6f6f6f" fill-rule="evenodd" stroke="none"/>
    <path d="M-80.15 184.75 L-71.8 182.5 -69.7 190.4 -78.05 192.65 -80.15 184.75" fill="#6f6f6f" fill-rule="evenodd" stroke="none"/>
    <path d="M-78.05 196.15 L-76.7 195.75 -76.1 197.95 -77.5 198.3 -78.05 196.15" fill="#6f6f6f" fill-rule="evenodd" stroke="none"/>
    <path d="M-70.15 186.0 L-72.3 178.1 -65.95 176.4 -63.85 184.3 -70.15 186.0" fill="#6f6f6f" fill-rule="evenodd" stroke="none"/>
    <path d="M-75.6 172.5 L-72.4 180.9 -80.35 183.95 -83.6 175.55 -75.6 172.5" fill="#6f6f6f" fill-rule="evenodd" stroke="none"/>
    <path d="M-54.45 200.0 L-52.7 206.5 -60.55 208.6 -62.3 202.1 -54.45 200.0" fill="#6f6f6f" fill-rule="evenodd" stroke="none"/>
    <path d="M-60.65 210.9 L-57.5 222.65 -70.05 226.05 -73.2 214.25 -60.65 210.9" fill="#6f6f6f" fill-rule="evenodd" stroke="none"/>
    <path d="M-63.35 198.75 L-61.25 210.75 -73.6 212.9 -75.4 200.85 -63.35 198.75" fill="#6f6f6f" fill-rule="evenodd" stroke="none"/>
    <path d="M-52.6 214.15 L-48.65 213.1 -46.7 220.25 -50.7 221.35 -52.6 214.15" fill="#6f6f6f" fill-rule="evenodd" stroke="none"/>
    <path d="M-48.35 213.05 L-44.4 211.95 -42.45 219.15 -46.45 220.2 -48.35 213.05" fill="#6f6f6f" fill-rule="evenodd" stroke="none"/>
    <path d="M-44.15 211.9 L-40.15 210.85 -38.2 218.0 -42.2 219.05 -44.15 211.9" fill="#6f6f6f" fill-rule="evenodd" stroke="none"/>
    <path d="M-30.85 165.0 L-38.45 167.0 -39.15 164.45 -31.55 162.4 -30.85 165.0" fill="#6f6f6f" fill-rule="evenodd" stroke="none"/>
    <path d="M-38.85 172.55 L-39.7 172.8 -40.8 168.6 -40.0 168.35 -38.85 172.55" fill="#6f6f6f" fill-rule="evenodd" stroke="none"/>
    <path d="M-10.45 158.5 L7.9 153.55 9.6 159.95 -8.75 164.85 -10.45 158.5" fill="#6f6f6f" fill-rule="evenodd" stroke="none"/>
    <path d="M-29.35 211.8 L-30.45 207.8 -28.7 207.3 -27.6 211.35 -29.35 211.8" fill="#6f6f6f" fill-rule="evenodd" stroke="none"/>
    <path d="M-27.5 218.65 L-26.8 218.45 -25.65 222.8 -26.35 223.0 -27.5 218.65" fill="#6f6f6f" fill-rule="evenodd" stroke="none"/>
    <path d="M-14.85 266.7 L-7.8 264.8 -3.65 280.15 -10.7 282.0 -14.85 266.7" fill="#6f6f6f" fill-rule="evenodd" stroke="none"/>
    <path d="M-10.55 282.75 L-3.6 280.9 0.5 296.2 -6.4 298.1 -10.55 282.75" fill="#6f6f6f" fill-rule="evenodd" stroke="none"/>
    <path d="M-6.15 299.05 L0.75 297.2 4.9 312.5 -2.05 314.4 -6.15 299.05" fill="#6f6f6f" fill-rule="evenodd" stroke="none"/>
    <path d="M12.65 369.2 L13.75 368.9 14.8 372.75 13.65 373.05 12.65 369.2" fill="#6f6f6f" fill-rule="evenodd" stroke="none"/>
    <path d="M1.1 323.3 L13.65 319.9 22.35 352.5 9.8 355.9 1.1 323.3" fill="#6f6f6f" fill-rule="evenodd" stroke="none"/>
    <path d="M27.65 338.75 L30.1 347.85 22.05 350.0 19.6 340.9 27.65 338.75" fill="#6f6f6f" fill-rule="evenodd" stroke="none"/>
    <path d="M17.35 332.55 L18.05 332.35 15.2 324.95 21.2 322.65 24.1 330.25 19.7 331.95 26.0 330.25 28.15 338.3 19.5 340.6 17.35 332.55" fill="#6f6f6f" fill-rule="evenodd" stroke="none"/>
    <path d="M7.75 255.0 L6.0 248.45 14.0 246.3 15.75 252.85 7.75 255.0" fill="#6f6f6f" fill-rule="evenodd" stroke="none"/>
    <path d="M9.6 261.8 L7.85 255.25 15.85 253.1 17.65 259.65 9.6 261.8" fill="#6f6f6f" fill-rule="evenodd" stroke="none"/>
    <path d="M9.4 261.85 L1.4 264.0 -0.35 257.45 7.65 255.3 9.4 261.85" fill="#6f6f6f" fill-rule="evenodd" stroke="none"/>
    <path d="M-2.2 250.65 L5.85 248.5 7.6 255.05 -0.45 257.2 -2.2 250.65" fill="#6f6f6f" fill-rule="evenodd" stroke="none"/>
    <path d="M11.6 269.0 L9.85 262.45 17.85 260.3 19.6 266.85 11.6 269.0" fill="#6f6f6f" fill-rule="evenodd" stroke="none"/>
    <path d="M19.75 267.1 L21.5 273.65 13.45 275.8 11.7 269.25 19.75 267.1" fill="#6f6f6f" fill-rule="evenodd" stroke="none"/>
    <path d="M3.5 271.45 L11.5 269.3 13.25 275.85 5.25 278.0 3.5 271.45" fill="#6f6f6f" fill-rule="evenodd" stroke="none"/>
    <path d="M11.45 269.05 L3.4 271.2 1.65 264.65 9.7 262.5 11.45 269.05" fill="#6f6f6f" fill-rule="evenodd" stroke="none"/>
    <path d="M122.15 258.0 L114.3 260.1 112.55 253.6 120.4 251.5 122.15 258.0" fill="#6f6f6f" fill-rule="evenodd" stroke="none"/>
    <path d="M124.0 264.7 L116.15 266.8 114.4 260.3 122.25 258.2 124.0 264.7" fill="#6f6f6f" fill-rule="evenodd" stroke="none"/>
    <path d="M115.95 266.85 L108.15 268.95 106.4 262.45 114.2 260.35 115.95 266.85" fill="#6f6f6f" fill-rule="evenodd" stroke="none"/>
    <path d="M114.15 260.1 L106.3 262.2 104.6 255.7 112.4 253.6 114.15 260.1" fill="#6f6f6f" fill-rule="evenodd" stroke="none"/>
    <path d="M125.7 272.95 L117.75 274.7 116.35 268.1 124.25 266.4 125.7 272.95" fill="#6f6f6f" fill-rule="evenodd" stroke="none"/>
    <path d="M119.3 281.5 L117.85 274.9 125.8 273.2 127.25 279.75 119.3 281.5" fill="#6f6f6f" fill-rule="evenodd" stroke="none"/>
    <path d="M109.75 276.7 L117.7 274.95 119.1 281.55 111.2 283.25 109.75 276.7" fill="#6f6f6f" fill-rule="evenodd" stroke="none"/>
    <path d="M107.65 276.1 L99.75 277.4 98.15 267.6 106.05 266.35 107.65 276.1" fill="#6f6f6f" fill-rule="evenodd" stroke="none"/>
    <path d="M117.6 274.7 L109.7 276.45 108.25 269.85 116.2 268.15 117.6 274.7" fill="#6f6f6f" fill-rule="evenodd" stroke="none"/>
    <path d="M81.75 132.1 L88.5 130.3 92.65 145.75 85.9 147.55 81.75 132.1" fill="#6f6f6f" fill-rule="evenodd" stroke="none"/>
    <path d="M77.4 133.65 L81.4 132.6 83.3 139.7 79.3 140.75 77.4 133.65" fill="#6f6f6f" fill-rule="evenodd" stroke="none"/>
    <path d="M78.65 142.0 L82.4 140.15 85.6 146.8 81.9 148.6 78.65 142.0" fill="#6f6f6f" fill-rule="evenodd" stroke="none"/>
    <path d="M79.75 237.75 L71.2 246.25 64.1 239.15 72.65 230.65 79.75 237.75" fill="#6f6f6f" fill-rule="evenodd" stroke="none"/>
    <path d="M113.0 224.1 L113.6 223.95 114.7 228.0 114.1 228.2 113.0 224.1" fill="#6f6f6f" fill-rule="evenodd" stroke="none"/>
    <path d="M110.9 235.7 L111.15 235.65 110.85 234.45 116.05 233.05 118.85 243.55 113.65 244.95 113.3 243.65 113.15 243.7 112.4 241.0 112.6 240.95 111.9 238.35 111.6 238.45 110.9 235.7" fill="#6f6f6f" fill-rule="evenodd" stroke="none"/>
    <path d="M120.2 248.55 L118.4 249.05 117.15 244.35 118.95 243.85 120.2 248.55" fill="#6f6f6f" fill-rule="evenodd" stroke="none"/>
    <path d="M122.8 284.45 L129.35 282.7 133.4 297.75 126.8 299.5 122.8 284.45" fill="#6f6f6f" fill-rule="evenodd" stroke="none"/>
    <path d="M114.5 285.5 L114.75 286.05 115.35 285.75 118.9 293.35 117.9 293.8 119.7 297.7 120.25 297.45 120.85 298.7 121.55 298.35 121.25 297.75 122.2 297.35 123.25 299.6 Q122.8 299.85 122.3 300.05 L122.0 299.35 121.3 299.65 125.0 307.65 125.65 307.35 126.1 308.35 125.5 308.65 130.35 319.1 131.0 318.8 130.7 318.2 131.65 317.75 132.7 320.1 131.8 320.5 131.45 319.75 130.8 320.05 131.3 321.15 123.8 324.65 123.3 323.55 122.65 323.85 123.0 324.6 122.05 325.05 120.95 322.7 121.9 322.3 122.2 322.9 122.85 322.6 117.95 312.15 117.35 312.45 116.9 311.45 117.5 311.15 113.8 303.15 113.2 303.45 113.55 304.15 112.6 304.55 111.55 302.3 112.45 301.85 112.75 302.45 113.35 302.2 112.75 300.95 113.3 300.7 111.5 296.8 110.35 297.3 106.85 289.75 107.45 289.45 107.15 288.9 114.5 285.5" fill="#6f6f6f" fill-rule="evenodd" stroke="none"/>
    <path d="M137.45 346.55 L137.9 346.05 137.4 345.6 138.05 344.85 140.0 346.5 139.35 347.3 138.7 346.75 138.25 347.3 139.15 348.05 133.75 354.35 132.85 353.55 132.4 354.1 133.0 354.65 132.35 355.4 130.4 353.75 131.05 352.95 131.55 353.4 132.05 352.85 123.3 345.35 122.85 345.85 122.05 345.15 122.5 344.6 115.8 338.85 115.4 339.35 115.95 339.85 115.3 340.65 113.4 339.0 114.05 338.2 114.6 338.65 115.0 338.15 113.95 337.25 114.35 336.85 113.85 336.5 113.1 337.4 106.75 331.95 107.15 331.45 106.7 331.05 112.0 324.95 112.45 325.3 112.85 324.8 119.2 330.3 118.5 331.1 118.95 331.45 119.35 331.0 120.4 331.9 120.9 331.3 120.4 330.9 121.05 330.1 122.95 331.75 122.3 332.5 121.7 332.0 121.2 332.6 127.9 338.35 128.35 337.8 129.2 338.5 128.7 339.05 137.45 346.55" fill="#6f6f6f" fill-rule="evenodd" stroke="none"/>
    <path d="M36.0 316.3 L32.75 304.2 37.8 302.85 34.65 291.15 44.65 288.45 47.8 300.3 46.6 300.65 49.8 312.6 36.0 316.3" fill="#6f6f6f" fill-rule="evenodd" stroke="none"/>
    <path d="M46.6 313.75 L52.2 329.9 41.75 333.55 36.15 317.4 46.6 313.75" fill="#6f6f6f" fill-rule="evenodd" stroke="none"/>
    <path d="M51.85 328.45 L49.2 320.8 49.05 320.85 46.6 313.75 50.55 312.4 53.0 319.45 55.3 318.7 57.95 326.35 51.85 328.45" fill="#6f6f6f" fill-rule="evenodd" stroke="none"/>
    <path d="M47.7 346.9 L41.25 337.9 55.05 328.0 61.5 337.0 47.7 346.9" fill="#6f6f6f" fill-rule="evenodd" stroke="none"/>
    <path d="M59.85 334.15 L55.6 328.2 58.85 325.85 63.1 331.8 59.85 334.15" fill="#6f6f6f" fill-rule="evenodd" stroke="none"/>
    <path d="M155.35 385.3 L156.8 384.9 157.75 388.6 156.3 388.95 155.35 385.3" fill="#6f6f6f" fill-rule="evenodd" stroke="none"/>
    <path d="M154.9 377.9 L154.3 378.1 153.2 373.85 153.75 373.7 154.9 377.9" fill="#6f6f6f" fill-rule="evenodd" stroke="none"/>
    <path d="M168.45 428.55 L167.9 428.75 166.75 424.5 167.35 424.35 168.45 428.55" fill="#6f6f6f" fill-rule="evenodd" stroke="none"/>
    <path d="M166.1 432.85 L158.65 434.8 157.9 432.05 165.35 430.05 166.1 432.85" fill="#6f6f6f" fill-rule="evenodd" stroke="none"/>
    <path d="M149.5 430.9 L139.95 433.45 138.4 427.8 148.0 425.25 149.5 430.9" fill="#6f6f6f" fill-rule="evenodd" stroke="none"/>
    <path d="M145.85 439.95 L135.95 441.75 134.9 435.95 144.8 434.1 145.85 439.95" fill="#6f6f6f" fill-rule="evenodd" stroke="none"/>
    <path d="M171.4 443.75 L172.45 443.5 173.1 445.75 172.0 446.05 171.4 443.75" fill="#6f6f6f" fill-rule="evenodd" stroke="none"/>
    <path d="M158.6 457.6 L158.4 457.1 158.55 456.65 159.0 456.4 159.5 456.55 159.75 457.05 159.6 457.5 159.1 457.75 158.6 457.6" fill="#6f6f6f" fill-rule="evenodd" stroke="none"/>
    <path d="M171.55 506.5 L171.75 506.0 172.2 505.8 172.7 505.95 172.9 506.4 172.75 506.9 172.3 507.15 171.8 506.95 171.55 506.5" fill="#6f6f6f" fill-rule="evenodd" stroke="none"/>
    <path d="M179.55 531.0 L179.4 531.5 178.9 531.7 178.4 531.55 178.2 531.1 178.35 530.6 178.85 530.35 179.3 530.55 179.55 531.0" fill="#6f6f6f" fill-rule="evenodd" stroke="none"/>
    <path d="M202.85 524.45 L203.0 523.95 203.5 523.7 204.0 523.9 204.2 524.35 204.05 524.85 203.55 525.05 203.1 524.9 202.85 524.45" fill="#6f6f6f" fill-rule="evenodd" stroke="none"/>
    <path d="M227.5 517.9 L227.65 517.4 228.1 517.15 228.6 517.35 228.85 517.8 228.65 518.3 228.2 518.5 227.7 518.35 227.5 517.9" fill="#6f6f6f" fill-rule="evenodd" stroke="none"/>
    <path d="M229.25 622.95 L229.4 622.45 229.9 622.25 230.4 622.4 230.6 622.85 230.45 623.35 229.95 623.6 229.5 623.4 229.25 622.95" fill="#6f6f6f" fill-rule="evenodd" stroke="none"/>
    <path d="M253.85 616.4 L254.05 615.9 254.5 615.7 255.0 615.85 255.2 616.3 255.05 616.8 254.6 617.05 254.1 616.85 253.85 616.4" fill="#6f6f6f" fill-rule="evenodd" stroke="none"/>
    <path d="M155.75 474.95 L167.05 470.75 171.3 482.25 160.0 486.45 155.75 474.95" fill="#6f6f6f" fill-rule="evenodd" stroke="none"/>
    <path d="M164.35 493.8 L158.1 495.5 155.95 487.65 162.25 485.95 164.35 493.8" fill="#6f6f6f" fill-rule="evenodd" stroke="none"/>
    <path d="M173.55 492.1 L164.6 493.85 163.05 485.85 172.0 484.15 173.55 492.1" fill="#6f6f6f" fill-rule="evenodd" stroke="none"/>
    <path d="M173.25 500.25 L169.3 501.0 167.95 493.85 171.9 493.1 173.25 500.25" fill="#6f6f6f" fill-rule="evenodd" stroke="none"/>
    <path d="M165.0 501.7 L163.65 494.55 167.6 493.8 168.95 500.95 165.0 501.7" fill="#6f6f6f" fill-rule="evenodd" stroke="none"/>
    <path d="M159.35 495.3 L163.3 494.55 164.65 501.7 160.7 502.45 159.35 495.3" fill="#6f6f6f" fill-rule="evenodd" stroke="none"/>
    <path d="M201.8 512.2 L200.55 512.5 199.55 508.7 200.8 508.35 201.8 512.2" fill="#6f6f6f" fill-rule="evenodd" stroke="none"/>
    <path d="M208.75 519.35 L207.05 513.25 224.4 508.6 226.05 514.7 208.75 519.35" fill="#6f6f6f" fill-rule="evenodd" stroke="none"/>
    <path d="M235.7 512.05 L234.2 512.45 233.7 510.65 235.2 510.25 235.7 512.05" fill="#6f6f6f" fill-rule="evenodd" stroke="none"/>
    <path d="M238.4 628.9 L237.85 626.8 242.5 625.55 243.05 627.65 238.4 628.9" fill="#6f6f6f" fill-rule="evenodd" stroke="none"/>
    <path d="M239.05 653.85 L239.25 653.8 238.9 652.5 239.6 652.35 241.45 659.15 240.5 659.4 240.45 659.05 239.85 659.2 239.6 658.3 240.2 658.15 240.05 657.65 239.95 657.7 239.35 655.55 239.5 655.5 239.4 655.1 238.8 655.25 238.55 654.35 239.15 654.2 239.05 653.85" fill="#6f6f6f" fill-rule="evenodd" stroke="none"/>
    <path d="M243.15 665.5 L242.55 665.7 241.45 661.55 242.05 661.4 243.15 665.5" fill="#6f6f6f" fill-rule="evenodd" stroke="none"/>
    <path d="M247.35 681.2 L244.35 682.0 241.8 672.45 244.75 671.65 247.35 681.2" fill="#6f6f6f" fill-rule="evenodd" stroke="none"/>
    <path d="M252.0 698.6 L250.0 699.15 248.75 694.3 250.7 693.75 252.0 698.6" fill="#6f6f6f" fill-rule="evenodd" stroke="none"/>
    <path d="M262.2 740.1 L261.45 740.3 260.55 736.8 261.25 736.6 262.2 740.1" fill="#6f6f6f" fill-rule="evenodd" stroke="none"/>
    <path d="M253.9 743.0 L253.6 741.95 255.6 741.4 255.9 742.45 253.9 743.0" fill="#6f6f6f" fill-rule="evenodd" stroke="none"/>
    <path d="M249.1 743.55 L250.6 743.15 250.75 743.85 249.3 744.25 249.1 743.55" fill="#6f6f6f" fill-rule="evenodd" stroke="none"/>
    <path d="M242.95 745.7 L243.15 745.65 243.25 745.85 240.75 746.55 240.7 746.3 240.95 746.25 240.75 745.55 241.5 745.35 241.7 746.05 242.2 745.9 242.0 745.2 242.75 745.0 242.95 745.7" fill="#6f6f6f" fill-rule="evenodd" stroke="none"/>
    <path d="M240.35 746.4 L240.6 746.35 240.65 746.55 238.15 747.2 238.1 747.0 238.35 746.95 238.2 746.25 238.9 746.05 239.1 746.75 239.6 746.6 239.45 745.9 240.15 745.7 240.35 746.4" fill="#6f6f6f" fill-rule="evenodd" stroke="none"/>
    <path d="M213.3 743.4 L211.6 737.0 219.55 734.85 219.9 736.15 228.15 733.2 224.45 733.85 223.25 726.7 227.3 726.05 228.5 733.1 231.65 732.0 232.75 735.1 233.75 734.9 235.15 741.95 236.45 745.6 235.9 745.75 236.1 746.7 229.75 747.95 224.7 749.75 223.35 745.9 224.35 749.55 215.35 751.95 213.2 743.9 221.85 741.6 219.9 736.2 221.3 741.3 213.3 743.4" fill="#6f6f6f" fill-rule="evenodd" stroke="none"/>
    <path d="M219.95 734.7 L215.9 735.4 214.7 728.3 218.75 727.6 219.95 734.7" fill="#6f6f6f" fill-rule="evenodd" stroke="none"/>
    <path d="M218.95 727.5 L223.05 726.8 224.25 733.9 220.15 734.6 218.95 727.5" fill="#6f6f6f" fill-rule="evenodd" stroke="none"/>
    <path d="M212.95 717.4 L211.2 710.95 219.2 708.8 220.9 715.25 212.95 717.4" fill="#6f6f6f" fill-rule="evenodd" stroke="none"/>
    <path d="M211.15 710.75 L209.45 704.3 217.4 702.15 219.15 708.6 211.15 710.75" fill="#6f6f6f" fill-rule="evenodd" stroke="none"/>
    <path d="M227.45 706.4 L219.45 708.55 217.75 702.1 225.7 699.95 227.45 706.4" fill="#6f6f6f" fill-rule="evenodd" stroke="none"/>
    <path d="M229.2 713.05 L221.25 715.2 219.5 708.7 227.5 706.6 229.2 713.05" fill="#6f6f6f" fill-rule="evenodd" stroke="none"/>
    <path d="M186.65 753.55 L194.6 751.45 196.35 757.9 188.35 760.05 186.65 753.55" fill="#6f6f6f" fill-rule="evenodd" stroke="none"/>
    <path d="M184.85 746.95 L192.8 744.8 194.55 751.25 186.6 753.4 184.85 746.95" fill="#6f6f6f" fill-rule="evenodd" stroke="none"/>
    <path d="M173.15 763.9 L171.0 755.8 179.0 753.7 181.15 761.75 173.15 763.9" fill="#6f6f6f" fill-rule="evenodd" stroke="none"/>
    <path d="M193.15 744.7 L201.1 742.55 202.85 749.05 194.9 751.15 193.15 744.7" fill="#6f6f6f" fill-rule="evenodd" stroke="none"/>
    <path d="M194.95 751.35 L202.9 749.2 204.65 755.65 196.65 757.8 194.95 751.35" fill="#6f6f6f" fill-rule="evenodd" stroke="none"/>
    <path d="M209.55 773.05 L208.7 769.9 218.25 767.35 219.1 770.5 209.55 773.05" fill="#6f6f6f" fill-rule="evenodd" stroke="none"/>
    <path d="M261.65 765.4 L268.95 763.45 274.0 782.35 266.75 784.3 261.65 765.4" fill="#6f6f6f" fill-rule="evenodd" stroke="none"/>
    <path d="M205.9 760.05 L204.05 760.55 203.65 758.95 205.5 758.5 205.9 760.05" fill="#6f6f6f" fill-rule="evenodd" stroke="none"/>
    <path d="M202.3 760.5 L200.3 761.05 200.0 759.95 202.0 759.4 202.3 760.5" fill="#6f6f6f" fill-rule="evenodd" stroke="none"/>
    <path d="M214.8 757.35 L207.6 759.25 207.3 758.0 217.1 755.35 217.25 755.85 216.75 755.95 216.9 756.6 215.15 757.1 214.95 756.45 214.55 756.55 214.8 757.35" fill="#6f6f6f" fill-rule="evenodd" stroke="none"/>
    <path d="M198.2 772.8 L207.75 770.25 208.6 773.3 199.05 775.85 198.2 772.8" fill="#6f6f6f" fill-rule="evenodd" stroke="none"/>
    <path d="M131.1 751.75 L114.85 746.1 118.35 736.0 134.6 741.7 131.1 751.75" fill="#6f6f6f" fill-rule="evenodd" stroke="none"/>
    <path d="M80.05 662.5 L81.65 662.05 82.15 663.9 80.55 664.35 80.05 662.5" fill="#6f6f6f" fill-rule="evenodd" stroke="none"/>
    <path d="M81.05 666.2 L82.05 665.9 82.35 667.1 81.35 667.35 81.05 666.2" fill="#6f6f6f" fill-rule="evenodd" stroke="none"/>
    <path d="M92.35 651.35 L85.95 653.05 86.1 653.55 79.2 655.4 79.1 654.9 78.1 655.2 74.9 643.25 89.15 639.4 92.35 651.35" fill="#6f6f6f" fill-rule="evenodd" stroke="none"/>
    <path d="M64.2 603.35 L65.85 602.9 66.85 606.7 65.2 607.15 64.2 603.35" fill="#6f6f6f" fill-rule="evenodd" stroke="none"/>
    <path d="M70.25 625.85 L67.1 614.1 78.95 610.9 82.1 622.65 80.95 622.95 83.45 629.6 82.05 622.15 91.05 620.45 92.65 628.6 89.1 629.3 89.2 629.85 92.65 628.9 95.0 637.7 87.1 639.8 86.85 638.8 86.7 638.85 86.8 639.45 83.65 640.0 76.65 642.65 76.1 641.25 75.1 641.45 74.25 636.55 70.5 626.8 80.05 623.2 70.25 625.85" fill="#6f6f6f" fill-rule="evenodd" stroke="none"/>
    <path d="M75.5 552.1 L83.4 550.0 85.7 558.6 77.8 560.75 75.5 552.1" fill="#6f6f6f" fill-rule="evenodd" stroke="none"/>
    <path d="M53.5 560.95 L62.9 558.45 65.2 567.1 55.85 569.6 53.5 560.95" fill="#6f6f6f" fill-rule="evenodd" stroke="none"/>
    <path d="M60.2 545.3 L61.25 545.05 63.55 553.7 62.5 553.95 60.2 545.3" fill="#6f6f6f" fill-rule="evenodd" stroke="none"/>
    <path d="M58.6 538.95 L59.55 538.7 60.6 542.65 59.65 542.9 58.6 538.95" fill="#6f6f6f" fill-rule="evenodd" stroke="none"/>
    <path d="M86.1 558.1 L83.0 546.55 94.8 543.4 97.9 554.95 86.1 558.1" fill="#6f6f6f" fill-rule="evenodd" stroke="none"/>
    <path d="M108.75 561.35 L102.35 563.1 100.2 555.1 106.6 553.35 108.75 561.35" fill="#6f6f6f" fill-rule="evenodd" stroke="none"/>
    <path d="M110.1 552.4 L98.3 554.6 96.1 542.7 107.9 540.5 110.1 552.4" fill="#6f6f6f" fill-rule="evenodd" stroke="none"/>
    <path d="M91.9 570.8 L87.95 559.5 99.35 555.5 103.3 566.8 91.9 570.8" fill="#6f6f6f" fill-rule="evenodd" stroke="none"/>
    <path d="M87.2 558.45 L90.15 566.0 81.5 569.35 78.6 561.75 87.2 558.45" fill="#6f6f6f" fill-rule="evenodd" stroke="none"/>
    <path d="M101.85 540.95 L93.85 543.1 92.05 536.5 100.1 534.35 101.85 540.95" fill="#6f6f6f" fill-rule="evenodd" stroke="none"/>
    <path d="M65.85 519.0 L76.3 516.2 80.7 532.65 70.25 535.45 65.85 519.0" fill="#6f6f6f" fill-rule="evenodd" stroke="none"/>
    <path d="M55.2 484.8 L65.7 481.95 70.1 498.4 59.6 501.2 55.2 484.8" fill="#6f6f6f" fill-rule="evenodd" stroke="none"/>
    <path d="M59.85 502.35 L70.3 499.55 74.7 515.95 64.25 518.75 59.85 502.35" fill="#6f6f6f" fill-rule="evenodd" stroke="none"/>
    <path d="M76.85 516.5 L84.95 514.35 87.25 522.95 79.15 525.1 76.85 516.5" fill="#6f6f6f" fill-rule="evenodd" stroke="none"/>
    <path d="M78.35 482.2 L90.0 479.1 92.65 489.0 81.85 491.9 88.65 490.6 89.4 494.6 82.45 495.9 81.7 491.9 81.0 492.1 78.35 482.2" fill="#6f6f6f" fill-rule="evenodd" stroke="none"/>
    <path d="M82.4 496.15 L89.35 494.85 90.15 498.85 83.15 500.2 82.4 496.15" fill="#6f6f6f" fill-rule="evenodd" stroke="none"/>
    <path d="M90.85 503.1 L83.85 504.45 83.1 500.4 90.05 499.1 90.85 503.1" fill="#6f6f6f" fill-rule="evenodd" stroke="none"/>
    <path d="M66.6 481.55 L77.05 478.75 81.45 495.15 79.25 495.75 79.15 497.05 81.05 496.45 86.05 512.7 75.8 515.85 70.75 499.6 75.15 498.25 75.3 496.85 71.0 497.95 66.6 481.55" fill="#6f6f6f" fill-rule="evenodd" stroke="none"/>
    <path d="M52.65 518.0 L52.35 516.9 53.15 516.65 53.45 517.8 52.65 518.0" fill="#6f6f6f" fill-rule="evenodd" stroke="none"/>
    <path d="M43.1 470.65 L50.5 468.65 51.2 471.25 43.8 473.25 43.1 470.65" fill="#6f6f6f" fill-rule="evenodd" stroke="none"/>
    <path d="M50.0 462.45 L49.75 463.75 40.15 466.3 35.7 454.25 49.0 449.3 53.4 461.2 50.0 462.45" fill="#6f6f6f" fill-rule="evenodd" stroke="none"/>
    <path d="M196.9 761.85 L196.65 761.5 196.95 760.75 197.3 760.65 197.85 761.15 197.85 761.6 197.65 761.85 197.15 762.0 196.9 761.85" fill="#6f6f6f" fill-rule="evenodd" stroke="none"/>
    <path d="M195.1 762.35 L194.85 762.0 195.15 761.25 195.5 761.15 196.05 761.65 196.05 762.1 195.85 762.35 195.35 762.5 195.1 762.35" fill="#6f6f6f" fill-rule="evenodd" stroke="none"/>
    <path d="M134.3 778.1 L135.15 781.35 133.7 781.75 132.85 778.5 134.3 778.1" fill="#6f6f6f" fill-rule="evenodd" stroke="none"/>
    <path d="M136.6 792.5 L138.05 792.1 138.9 795.35 137.5 795.75 136.6 792.5" fill="#6f6f6f" fill-rule="evenodd" stroke="none"/>
    <path d="M96.85 647.35 L97.75 660.3 94.25 660.55 93.35 647.6 96.85 647.35" fill="#6f6f6f" fill-rule="evenodd" stroke="none"/>
    <path d="M80.1 582.3 L80.1 580.6 85.3 576.2 87.0 576.35 90.8 580.9 91.35 583.4 92.05 584.15 86.8 588.55 86.15 587.75 83.8 586.65 80.1 582.3" fill="#6f6f6f" fill-rule="evenodd" stroke="none"/>
    <path d="M30.55 387.85 L34.0 387.2 36.35 400.0 32.9 400.6 30.55 387.85" fill="#6f6f6f" fill-rule="evenodd" stroke="none"/>
    <path d="M34.5 64.9 L25.35 55.7 27.85 53.25 37.0 62.45 34.5 64.9" fill="#6f6f6f" fill-rule="evenodd" stroke="none"/>
    <path d="M52.95 311.0 L51.55 298.05 55.05 297.7 56.4 310.6 52.95 311.0" fill="#6f6f6f" fill-rule="evenodd" stroke="none"/>
    <path d="M86.35 176.0 L89.8 176.3 88.6 189.25 85.1 188.9 86.35 176.0" fill="#6f6f6f" fill-rule="evenodd" stroke="none"/>
    <path d="M57.9 458.25 L56.85 456.9 58.35 450.25 59.8 449.35 65.55 450.65 67.5 452.3 68.5 452.5 67.0 459.15 66.0 458.9 63.45 459.5 57.9 458.25" fill="#6f6f6f" fill-rule="evenodd" stroke="none"/>
    <path d="M65.2 384.4 L65.1 382.7 70.0 378.0 71.75 378.05 75.8 382.3 76.5 384.8 77.2 385.55 72.3 390.2 71.6 389.45 69.15 388.5 65.2 384.4" fill="#6f6f6f" fill-rule="evenodd" stroke="none"/>
    <path d="M88.0 238.95 L88.9 240.4 87.4 246.15 85.65 248.05 85.4 249.0 78.85 247.3 79.1 246.3 78.95 245.6 74.0 249.6 71.5 246.5 77.05 242.0 78.65 243.9 78.6 243.75 80.0 238.25 81.4 237.2 88.0 238.95" fill="#6f6f6f" fill-rule="evenodd" stroke="none"/>
    <path d="M97.95 501.7 L100.7 501.9 100.5 504.65 97.75 504.45 97.95 501.7" fill="#6f6f6f" fill-rule="evenodd" stroke="none"/>
    <path d="M156.5 496.5 L153.8 498.35 151.9 495.65 154.55 493.8 156.5 496.5" fill="#6f6f6f" fill-rule="evenodd" stroke="none"/>
    <path d="M79.3 432.6 L76.65 431.8 78.55 425.25 81.2 426.0 79.3 432.6" fill="#6f6f6f" fill-rule="evenodd" stroke="none"/>
    <path d="M56.4 391.05 L53.55 389.55 55.3 385.2 58.65 386.65 56.4 391.05" fill="#6f6f6f" fill-rule="evenodd" stroke="none"/>
    <path d="M60.55 339.1 L64.5 346.1 55.05 351.45 51.1 344.5 60.55 339.1" fill="#6f6f6f" fill-rule="evenodd" stroke="none"/>
    <path d="M67.8 328.0 L71.85 327.65 73.1 342.5 69.05 342.85 67.8 328.0" fill="#6f6f6f" fill-rule="evenodd" stroke="none"/>
    <path d="M39.4 232.75 L35.95 234.9 28.05 222.25 31.5 220.1 39.4 232.75" fill="#6f6f6f" fill-rule="evenodd" stroke="none"/>
    <path d="M25.05 221.65 L21.25 223.1 15.95 209.15 19.8 207.7 25.05 221.65" fill="#6f6f6f" fill-rule="evenodd" stroke="none"/>
    <path d="M26.45 262.7 L22.05 263.45 20.75 256.1 25.1 255.3 26.45 262.7" fill="#6f6f6f" fill-rule="evenodd" stroke="none"/>
    <path d="M69.5 254.6 L66.75 256.25 65.0 253.35 67.75 251.7 69.5 254.6" fill="#6f6f6f" fill-rule="evenodd" stroke="none"/>
    <path d="M61.2 245.95 L61.4 243.25 64.1 243.4 63.95 246.15 61.2 245.95" fill="#6f6f6f" fill-rule="evenodd" stroke="none"/>
    <path d="M-4.5 176.3 L-14.85 181.4 -17.65 175.8 -7.3 170.7 -4.5 176.3" fill="#6f6f6f" fill-rule="evenodd" stroke="none"/>
    <path d="M-65.15 37.2 L-62.45 37.4 -62.65 40.2 -65.35 40.0 -65.15 37.2" fill="#6f6f6f" fill-rule="evenodd" stroke="none"/>
    <path d="M-11.55 64.05 L-7.35 62.95 -3.4 77.6 -7.6 78.7 -11.55 64.05" fill="#6f6f6f" fill-rule="evenodd" stroke="none"/>
    <path d="M119.0 186.6 L118.6 186.0 119.5 185.4 119.9 186.0 129.4 179.5 129.0 178.9 128.45 179.3 127.9 178.45 130.0 177.0 130.6 177.85 129.9 178.3 130.3 178.9 131.3 178.2 135.95 185.05 135.0 185.7 135.4 186.3 136.05 185.85 136.65 186.7 134.55 188.15 133.95 187.3 134.5 186.9 134.1 186.3 124.6 192.85 125.0 193.4 124.1 194.0 123.7 193.45 116.4 198.4 116.8 198.95 117.4 198.5 118.0 199.35 115.95 200.8 115.35 199.95 115.9 199.55 115.55 199.05 114.4 199.8 114.05 199.3 110.55 201.75 111.2 202.75 104.3 207.5 103.95 206.95 103.45 207.3 98.85 200.6 99.35 200.25 99.0 199.75 105.9 195.0 106.5 195.9 110.05 193.45 109.7 192.95 110.85 192.2 110.4 191.55 109.85 191.95 109.3 191.1 111.35 189.65 111.95 190.5 111.3 190.95 111.75 191.6 119.0 186.6" fill="#6f6f6f" fill-rule="evenodd" stroke="none"/>
    <path d="M154.75 206.6 L154.55 205.9 155.6 205.65 155.75 206.3 166.9 203.35 166.75 202.65 166.1 202.85 165.8 201.85 168.3 201.2 168.55 202.2 167.75 202.4 167.95 203.05 169.1 202.75 171.25 210.75 170.1 211.05 170.3 211.75 171.05 211.55 171.35 212.55 168.85 213.2 168.6 212.2 169.25 212.05 169.05 211.35 157.9 214.3 158.1 215.0 157.05 215.25 156.85 214.6 148.35 216.9 148.55 217.5 149.25 217.3 149.55 218.3 147.1 218.95 146.85 217.95 147.5 217.8 147.3 217.15 146.0 217.5 145.85 216.95 141.7 218.05 142.0 219.25 133.9 221.4 133.75 220.75 133.15 220.9 131.05 213.1 131.65 212.95 131.5 212.3 139.6 210.15 139.85 211.2 144.0 210.1 143.85 209.5 145.2 209.15 145.0 208.4 144.35 208.6 144.05 207.6 146.5 206.95 146.75 207.95 146.0 208.15 146.2 208.9 154.75 206.6" fill="#6f6f6f" fill-rule="evenodd" stroke="none"/>
    <path d="M165.05 189.4 L166.2 189.1 168.35 197.1 167.2 197.4 167.4 198.1 168.2 197.9 168.45 198.9 166.0 199.55 165.7 198.55 166.35 198.4 166.15 197.7 155.05 200.7 155.2 201.35 154.2 201.65 154.0 200.95 145.5 203.25 145.65 203.85 146.4 203.65 146.65 204.65 144.25 205.3 143.95 204.3 144.6 204.15 144.45 203.5 143.1 203.85 142.95 203.3 138.8 204.4 139.15 205.6 131.05 207.75 130.85 207.15 130.3 207.3 128.2 199.45 128.75 199.3 128.6 198.7 136.7 196.5 137.0 197.55 141.15 196.45 140.95 195.9 142.3 195.5 142.1 194.8 141.45 194.95 141.2 193.95 143.6 193.3 143.9 194.3 143.15 194.5 143.35 195.25 151.85 192.95 151.65 192.25 152.7 192.0 152.9 192.7 164.05 189.7 163.85 189.05 163.2 189.2 162.95 188.2 165.4 187.55 165.7 188.55 164.9 188.75 165.05 189.4" fill="#6f6f6f" fill-rule="evenodd" stroke="none"/>
    <path d="M-50.3 -124.8 L-43.6 -127.25 -42.7 -124.7 -49.4 -122.25 -50.3 -124.8" fill="#6f6f6f" fill-rule="evenodd" stroke="none"/>
    <path d="M-36.8 -52.95 L-47.9 -55.85 -46.65 -60.55 -35.6 -57.65 -36.8 -52.95" fill="#6f6f6f" fill-rule="evenodd" stroke="none"/>
    <path d="M-24.5 13.95 L-31.55 11.0 -27.4 1.05 -20.3 4.0 -24.5 13.95" fill="#6f6f6f" fill-rule="evenodd" stroke="none"/>
    <path d="M-4.4 -21.3 L-6.25 -18.55 -12.95 -23.05 -11.1 -25.8 -4.4 -21.3" fill="#6f6f6f" fill-rule="evenodd" stroke="none"/>
    <path d="M2.3 -15.3 L-1.9 -12.8 -3.75 -15.9 0.45 -18.4 2.3 -15.3" fill="#6f6f6f" fill-rule="evenodd" stroke="none"/>
    <path d="M3.6 -5.75 L0.75 -4.7 -0.3 -7.5 2.6 -8.55 3.6 -5.75" fill="#6f6f6f" fill-rule="evenodd" stroke="none"/>
    <path d="M-16.7 -31.3 L-17.75 -29.85 -19.4 -31.05 -18.35 -32.5 -16.7 -31.3" fill="#6f6f6f" fill-rule="evenodd" stroke="none"/>
    <path d="M1.2 195.05 L2.05 193.0 7.85 195.45 6.95 197.5 1.2 195.05" fill="#6f6f6f" fill-rule="evenodd" stroke="none"/>
    <path d="M-71.45 -46.95 L-69.3 -38.95 -75.85 -37.2 -78.0 -45.2 -71.45 -46.95" fill="#6f6f6f" fill-rule="evenodd" stroke="none"/>
    <path d="M-82.65 -35.35 L-84.75 -43.35 -78.2 -45.1 -76.1 -37.1 -82.65 -35.35" fill="#6f6f6f" fill-rule="evenodd" stroke="none"/>
    <path d="M-84.8 -43.55 L-86.95 -51.6 -80.4 -53.35 -78.25 -45.3 -84.8 -43.55" fill="#6f6f6f" fill-rule="evenodd" stroke="none"/>
    <path d="M-73.6 -55.15 L-71.5 -47.1 -78.05 -45.35 -80.15 -53.4 -73.6 -55.15" fill="#6f6f6f" fill-rule="evenodd" stroke="none"/>
    <path d="M-86.25 -47.1 L-84.55 -39.0 -91.15 -37.6 -92.9 -45.7 -86.25 -47.1" fill="#6f6f6f" fill-rule="evenodd" stroke="none"/>
    <path d="M-98.05 -36.1 L-99.75 -44.2 -93.1 -45.6 -91.4 -37.5 -98.05 -36.1" fill="#6f6f6f" fill-rule="evenodd" stroke="none"/>
    <path d="M-99.8 -44.4 L-101.5 -52.55 -94.9 -53.95 -93.15 -45.8 -99.8 -44.4" fill="#6f6f6f" fill-rule="evenodd" stroke="none"/>
    <path d="M-88.0 -55.4 L-86.3 -47.25 -92.9 -45.85 -94.65 -54.0 -88.0 -55.4" fill="#6f6f6f" fill-rule="evenodd" stroke="none"/>
    <path d="M148.6 798.6 L148.3 797.4 152.5 796.3 152.8 797.45 148.6 798.6" fill="#6f6f6f" fill-rule="evenodd" stroke="none"/>
    <path d="M147.2 831.05 L145.2 823.5 147.2 822.95 149.25 830.5 147.2 831.05" fill="#6f6f6f" fill-rule="evenodd" stroke="none"/>
    <path d="M144.9 822.3 L140.2 804.9 143.45 804.05 148.1 821.45 144.9 822.3" fill="#6f6f6f" fill-rule="evenodd" stroke="none"/>
    <path d="M154.0 856.35 L152.0 848.95 153.9 848.45 155.9 855.8 154.0 856.35" fill="#6f6f6f" fill-rule="evenodd" stroke="none"/>
    <path d="M281.2 809.15 L280.2 809.45 279.25 805.8 280.25 805.55 281.2 809.15" fill="#6f6f6f" fill-rule="evenodd" stroke="none"/>
    <path d="M281.75 811.2 L281.0 811.45 280.6 809.9 281.35 809.7 281.75 811.2" fill="#6f6f6f" fill-rule="evenodd" stroke="none"/>
    <path d="M284.2 820.3 L282.2 820.8 280.15 813.25 282.15 812.7 284.2 820.3" fill="#6f6f6f" fill-rule="evenodd" stroke="none"/>
    <path d="M271.2 784.4 L274.0 783.65 274.75 786.45 271.95 787.2 271.2 784.4" fill="#ffffff" fill-rule="evenodd" stroke="none"/>
    <path d="M80.3 654.05 L83.2 653.3 83.95 656.15 81.05 656.9 80.3 654.05" fill="#ffffff" fill-rule="evenodd" stroke="none"/>
    <path d="M98.35 180.05 L101.25 179.25 102.0 182.15 99.1 182.9 98.35 180.05" fill="#ffffff" fill-rule="evenodd" stroke="none"/>
    <path d="M53.6 -53.4 L56.45 -54.15 57.25 -51.3 54.35 -50.5 53.6 -53.4" fill="#ffffff" fill-rule="evenodd" stroke="none"/>
    <path d="M-25.4 213.25 L-24.6 216.1 -27.5 216.9 -28.3 214.0 -25.4 213.25" fill="#ffffff" fill-rule="evenodd" stroke="none"/>
    <path d="M77.6 166.35 L81.7 181.75 70.4 184.75 63.2 157.9 91.6 150.3 94.65 161.75 77.6 166.35" fill="#ffffff" fill-rule="evenodd" stroke="none"/>
    <path d="M26.3 417.75 L25.5 414.75 28.3 414.0 29.1 416.95 26.3 417.75" fill="#ffffff" fill-rule="evenodd" stroke="none"/>
    <path d="M209.85 518.05 L207.15 518.8 206.35 515.8 209.05 515.1 209.85 518.05" fill="#ffffff" fill-rule="evenodd" stroke="none"/>
    <path d="M179.05 475.25 L191.3 471.95 199.85 503.95 187.65 507.2 179.05 475.25" fill="#ffffff" fill-rule="evenodd" stroke="none"/>
    <path d="M71.9 74.9 L84.05 71.65 92.85 104.5 80.7 107.75 71.9 74.9" fill="#ffffff" fill-rule="evenodd" stroke="none"/>
    <path d="M-89.2 30.2 L-77.1 26.95 -68.25 59.9 -80.4 63.15 -89.2 30.2" fill="#ffffff" fill-rule="evenodd" stroke="none"/>
    <path d="M53.45 563.25 L65.6 560.0 74.3 592.45 62.15 595.7 53.45 563.25" fill="#ffffff" fill-rule="evenodd" stroke="none"/>
  </g>
</svg>
