<?xml version="1.0" encoding="UTF-8" standalone="no"?>
<svg xmlns:ffdec="https://www.free-decompiler.com/flash" xmlns:xlink="http://www.w3.org/1999/xlink" ffdec:objectType="shape" height="1661.1px" width="703.15px" xmlns="http://www.w3.org/2000/svg">
  <g transform="matrix(1.0, 0.0, 0.0, 1.0, 299.35, 741.75)">
    <path d="M297.5 344.9 L298.05 345.05 299.9 352.05 299.65 352.5 297.1 353.2 296.45 352.7 296.1 351.25 295.85 351.3 297.1 356.0 297.35 355.9 296.95 354.45 297.25 353.75 299.7 353.1 300.25 353.3 302.1 360.3 301.85 360.7 299.3 361.4 298.65 360.9 298.3 359.45 298.05 359.5 299.6 365.25 299.8 365.2 299.45 363.75 299.75 363.0 302.15 362.35 302.75 362.55 304.6 369.55 304.35 370.0 301.8 370.65 301.15 370.2 300.75 368.75 300.55 368.8 301.8 373.45 302.0 373.4 301.65 371.95 301.95 371.25 304.35 370.6 304.95 370.75 306.8 377.75 306.55 378.2 304.0 378.9 303.35 378.4 302.95 376.95 302.75 377.0 314.2 419.75 314.4 419.7 314.05 418.25 314.35 417.55 316.75 416.85 317.35 417.05 319.2 424.05 318.95 424.5 316.4 425.2 315.75 424.7 315.35 423.25 315.15 423.3 316.4 427.95 316.6 427.9 316.25 426.45 316.55 425.75 318.95 425.1 319.55 425.25 321.4 432.25 321.15 432.7 318.6 433.4 317.95 432.9 317.55 431.45 317.35 431.5 319.3 438.85 319.55 438.8 319.15 437.35 319.45 436.65 321.9 436.0 322.45 436.15 324.35 443.2 324.05 443.6 321.5 444.3 320.9 443.8 320.5 442.35 320.25 442.4 321.5 447.1 321.75 447.05 321.35 445.6 321.65 444.85 324.1 444.2 324.65 444.4 326.55 451.4 326.25 451.8 323.7 452.5 323.1 452.0 322.7 450.55 322.45 450.6 368.95 624.15 369.2 624.05 368.8 622.6 369.1 621.9 371.55 621.25 372.1 621.4 373.95 628.45 373.7 628.85 371.15 629.55 370.5 629.05 370.15 627.6 369.9 627.65 371.15 632.35 371.4 632.3 371.0 630.85 371.3 630.1 373.75 629.45 374.3 629.65 376.15 636.65 375.9 637.05 373.35 637.75 372.7 637.25 372.35 635.8 372.1 635.85 373.7 641.8 373.9 641.75 373.55 640.3 373.85 639.6 376.25 638.95 376.85 639.1 378.7 646.1 378.45 646.55 375.9 647.25 375.25 646.75 374.85 645.3 374.65 645.35 375.9 650.05 376.1 649.95 375.75 648.5 376.05 647.8 378.45 647.15 379.05 647.3 380.9 654.35 380.65 654.75 378.1 655.45 377.45 654.95 377.05 653.5 376.85 653.55 378.4 659.3 378.6 659.25 378.2 657.8 378.5 657.05 380.95 656.4 381.5 656.6 383.4 663.6 383.1 664.05 380.55 664.7 379.95 664.25 379.55 662.8 379.35 662.85 380.6 667.5 380.8 667.45 380.4 666.0 380.7 665.3 383.15 664.65 383.7 664.8 385.6 671.8 385.3 672.25 382.75 672.95 382.15 672.45 381.75 671.0 381.55 671.05 387.65 693.9 387.9 693.85 387.5 692.4 387.8 691.7 390.25 691.05 390.8 691.2 392.65 698.25 392.4 698.65 389.85 699.35 389.2 698.85 388.85 697.4 388.6 697.45 389.85 702.15 390.1 702.05 389.7 700.65 390.0 699.9 392.45 699.25 393.0 699.45 394.85 706.45 394.6 706.85 392.05 707.55 391.4 707.05 391.05 705.6 390.8 705.65 392.4 711.65 392.65 711.6 392.25 710.15 392.55 709.45 395.0 708.8 395.55 708.95 397.45 715.95 397.15 716.4 394.6 717.1 393.95 716.6 393.6 715.15 393.35 715.2 394.6 719.9 394.85 719.8 394.45 718.35 394.75 717.65 397.2 717.0 397.75 717.2 399.65 724.2 399.35 724.6 396.8 725.3 396.15 724.8 395.8 723.35 395.55 723.4 403.8 754.2 367.0 771.45 368.15 775.75 368.6 793.55 369.65 797.5 370.1 797.35 370.5 797.1 372.0 796.7 372.55 796.9 374.45 803.9 374.15 804.35 372.55 804.75 372.05 804.75 371.6 804.85 372.15 806.75 372.6 806.65 373.0 806.4 374.55 806.0 375.1 806.2 377.0 813.2 376.6 813.75 375.1 814.15 374.6 814.15 374.15 814.25 375.05 817.6 359.05 821.9 362.9 836.3 362.95 837.2 362.6 838.0 361.8 838.75 342.85 843.9 344.25 849.15 343.1 849.45 341.7 844.2 338.0 845.2 343.4 856.65 229.55 909.3 225.3 900.2 153.7 919.35 143.2 903.4 138.0 904.8 134.6 903.9 131.45 892.3 128.5 893.1 36.6 884.75 -25.4 653.6 -45.1 633.85 -51.2 611.2 -68.75 613.85 -68.7 614.6 -69.05 615.6 -69.55 616.6 -70.5 617.3 -71.1 617.55 -84.4 621.1 -84.8 621.1 -85.55 621.0 -86.7 620.4 -87.5 619.2 -87.9 618.1 -91.25 605.3 -91.15 603.85 -90.45 602.75 -89.65 602.15 -76.35 598.55 -75.55 598.45 -74.4 598.55 -72.65 599.9 -72.3 600.55 -55.8 594.25 -61.5 573.0 -61.8 573.1 -61.4 574.55 -61.7 575.25 -64.25 575.95 -64.7 575.7 -66.6 568.7 -66.2 568.25 -63.75 567.6 -63.15 568.1 -62.75 569.55 -62.45 569.45 -63.7 564.8 -64.0 564.85 -63.6 566.3 -63.9 567.05 -66.45 567.75 -66.9 567.5 -68.8 560.5 -68.4 560.05 -65.95 559.4 -65.35 559.9 -64.95 561.35 -64.65 561.25 -66.35 554.95 -66.65 555.05 -66.25 556.5 -66.55 557.25 -69.1 557.9 -69.55 557.7 -71.4 550.7 -71.0 550.25 -68.6 549.6 -67.95 550.05 -67.6 551.5 -67.25 551.45 -68.55 546.75 -68.85 546.85 -68.45 548.3 -68.75 549.05 -71.3 549.7 -71.75 549.5 -73.6 542.5 -73.2 542.05 -70.8 541.4 -70.15 541.85 -69.75 543.3 -69.45 543.25 -71.35 536.2 -71.65 536.3 -71.25 537.75 -71.55 538.45 -74.1 539.15 -74.55 538.9 -76.45 531.9 -76.05 531.45 -73.6 530.8 -73.0 531.3 -72.6 532.75 -72.3 532.65 -73.55 528.0 -73.85 528.05 -73.45 529.5 -73.75 530.25 -76.3 530.95 -76.75 530.7 -78.65 523.7 -78.25 523.25 -75.8 522.6 -75.2 523.1 -74.8 524.55 -74.5 524.45 -85.4 483.65 -85.75 483.75 -85.35 485.2 -85.65 485.95 -88.2 486.65 -88.65 486.4 -90.55 479.4 -90.15 478.95 -87.7 478.3 -87.05 478.75 -86.7 480.2 -86.35 480.15 -87.6 475.45 -87.95 475.55 -87.55 477.0 -87.85 477.75 -90.4 478.4 -90.85 478.2 -92.75 471.2 -92.35 470.75 -89.9 470.1 -89.25 470.55 -88.9 472.0 -88.55 471.95 -90.25 465.65 -90.55 465.75 -90.2 467.15 -90.45 467.9 -93.05 468.6 -93.5 468.35 -95.35 461.35 -94.95 460.9 -92.5 460.25 -91.9 460.75 -91.5 462.2 -91.2 462.1 -92.45 457.45 -92.75 457.5 -92.4 458.95 -92.65 459.7 -95.25 460.4 -95.7 460.15 -97.55 453.15 -97.15 452.7 -94.7 452.05 -94.1 452.55 -93.7 454.0 -93.4 453.9 -95.25 446.85 -95.6 446.95 -95.2 448.4 -95.5 449.15 -98.05 449.8 -98.5 449.6 -100.4 442.6 -100.0 442.15 -97.55 441.5 -96.95 441.95 -96.55 443.4 -96.2 443.35 -97.45 438.65 -97.8 438.75 -97.4 440.2 -97.7 440.95 -100.25 441.6 -100.7 441.4 -102.6 434.35 -102.2 433.95 -99.75 433.3 -99.15 433.75 -98.75 435.2 -98.4 435.1 -112.2 383.7 -112.5 383.8 -112.15 385.25 -112.45 385.95 -115.0 386.65 -115.45 386.4 -117.3 379.4 -116.9 378.95 -114.5 378.3 -113.85 378.8 -113.45 380.25 -113.15 380.15 -114.4 375.5 -114.7 375.55 -114.35 377.0 -114.65 377.75 -117.2 378.45 -117.65 378.2 -119.5 371.2 -119.1 370.75 -116.7 370.1 -116.05 370.6 -115.65 372.05 -115.35 371.95 -117.0 365.65 -117.35 365.75 -116.95 367.2 -117.25 367.95 -119.8 368.6 -120.25 368.4 -122.15 361.4 -121.75 360.95 -119.3 360.3 -118.7 360.75 -118.3 362.2 -117.95 362.15 -119.2 357.45 -119.55 357.55 -119.15 359.0 -119.45 359.75 -122.0 360.4 -122.45 360.2 -124.35 353.15 -123.95 352.75 -121.5 352.1 -120.9 352.55 -120.5 354.0 -120.15 353.9 -122.1 346.65 -122.45 346.75 -122.05 348.2 -122.35 348.9 -124.9 349.6 -125.35 349.35 -127.25 342.35 -126.85 341.9 -124.4 341.25 -123.8 341.75 -123.4 343.2 -123.05 343.1 -124.3 338.45 -124.65 338.5 -124.25 339.95 -124.55 340.7 -127.1 341.4 -127.55 341.15 -129.45 334.15 -129.05 333.7 -126.6 333.05 -126.0 333.55 -125.6 335.0 -125.25 334.9 -132.15 309.1 -132.5 309.2 -132.1 310.65 -132.4 311.4 -134.95 312.05 -135.4 311.85 -137.3 304.85 -136.9 304.4 -134.45 303.75 -133.85 304.2 -133.45 305.65 -133.1 305.55 -134.35 300.9 -134.7 301.0 -134.3 302.45 -134.6 303.15 -137.15 303.85 -137.6 303.6 -139.5 296.6 -139.1 296.15 -136.65 295.5 -136.05 296.0 -135.65 297.45 -135.3 297.35 -137.25 290.1 -137.6 290.2 -137.2 291.65 -137.5 292.35 -140.05 293.05 -140.5 292.8 -142.4 285.8 -142.0 285.35 -139.55 284.7 -138.95 285.2 -138.55 286.65 -138.2 286.55 -139.45 281.85 -139.8 281.95 -139.4 283.4 -139.7 284.15 -142.25 284.85 -142.7 284.6 -144.6 277.6 -144.2 277.15 -141.75 276.5 -141.15 277.0 -140.75 278.45 -140.4 278.35 -152.4 233.5 -169.95 236.15 -169.9 236.9 -170.25 237.95 -170.75 238.95 -171.7 239.6 -172.3 239.85 -185.55 243.4 -186.0 243.45 -186.75 243.35 -187.9 242.75 -188.7 241.5 -192.45 227.65 -192.35 226.15 -191.65 225.1 -190.85 224.45 -177.55 220.9 -176.75 220.8 -175.6 220.9 -174.6 221.55 -173.85 222.25 -173.5 222.85 -156.95 216.55 -163.55 191.95 -163.9 192.05 -163.5 193.5 -163.8 194.2 -166.35 194.9 -166.8 194.65 -168.7 187.65 -168.3 187.2 -165.85 186.55 -165.25 187.05 -164.85 188.5 -164.5 188.4 -165.75 183.75 -166.1 183.85 -165.7 185.25 -166.0 186.0 -168.55 186.7 -169.0 186.45 -170.9 179.45 -170.5 179.0 -168.05 178.35 -167.45 178.85 -167.05 180.3 -166.7 180.2 -168.25 174.3 -168.65 174.4 -168.25 175.85 -168.55 176.55 -171.1 177.25 -171.55 177.0 -173.4 170.0 -173.0 169.6 -170.6 168.9 -169.95 169.4 -169.55 170.85 -169.2 170.75 -170.45 166.1 -170.85 166.2 -170.45 167.65 -170.75 168.35 -173.3 169.05 Q-173.5 168.95 -173.75 168.8 L-175.6 161.8 -175.2 161.35 -172.8 160.7 -172.15 161.2 -171.75 162.65 -171.4 162.55 -172.95 156.8 -173.3 156.9 -172.95 158.35 -173.2 159.1 -175.8 159.75 -176.25 159.55 -178.1 152.55 -177.7 152.1 -175.25 151.45 -174.65 151.9 -174.25 153.35 -173.9 153.25 -175.15 148.6 -175.5 148.7 -175.15 150.15 -175.4 150.9 -178.0 151.55 -178.45 151.35 -180.3 144.3 -179.9 143.9 -177.45 143.25 -176.85 143.7 -176.45 145.15 -176.1 145.05 -177.9 138.3 -187.15 39.75 -183.35 39.4 -299.35 -210.0 Q-296.75 -211.1 -294.2 -212.25 L-295.8 -215.6 -185.0 -268.0 -253.9 -686.6 -235.95 -691.4 -241.65 -724.25 -233.75 -726.35 -222.1 -695.1 -178.55 -706.8 -184.25 -739.65 -176.4 -741.75 -164.75 -710.5 -146.8 -715.3 -22.85 -384.75 49.75 -367.6 57.6 -338.35 49.4 -330.3 50.4 -326.65 50.75 -326.75 50.35 -328.2 50.65 -328.9 53.1 -329.55 53.65 -329.4 55.55 -322.4 55.3 -321.95 52.7 -321.25 52.1 -321.75 51.7 -323.2 51.35 -323.1 52.9 -317.3 53.25 -317.4 52.85 -318.85 53.15 -319.6 55.6 -320.25 56.15 -320.05 58.05 -313.05 57.8 -312.65 55.2 -311.95 54.6 -312.45 54.2 -313.9 53.85 -313.8 57.05 -301.8 57.8 -301.6 59.4 -307.25 119.1 -290.75 150.4 -173.9 144.65 -172.4 152.1 -144.65 162.25 -147.4 162.85 -145.0 163.1 -145.05 162.7 -146.5 163.0 -147.2 165.45 -147.85 166.0 -147.7 167.9 -140.7 167.6 -140.25 165.05 -139.55 164.45 -140.05 164.05 -141.5 163.8 -141.45 165.05 -136.75 165.3 -136.85 164.9 -138.3 165.2 -139.0 167.65 -139.65 168.2 -139.45 170.1 -132.45 169.8 -132.05 167.25 -131.35 166.65 -131.85 166.25 -133.3 166.0 -133.25 166.6 -131.1 184.05 -133.9 184.0 -134.6 184.85 -136.65 185.8 -137.35 199.85 -141.2 200.85 -141.05 202.0 -140.45 202.8 -139.25 203.2 -138.15 206.55 -125.35 206.45 -123.9 205.75 -122.8 205.15 -122.3 204.75 -122.15 191.5 -118.6 190.85 -118.5 189.7 -118.6 187.95 -119.95 187.6 -120.6 171.15 -114.15 171.7 -111.95 171.95 -112.0 171.55 -113.45 171.85 -114.2 174.3 -114.85 174.85 -114.65 176.75 -107.65 176.45 -107.2 173.9 -106.55 173.3 -107.0 172.9 -108.45 172.65 -108.4 173.9 -103.75 174.15 -103.8 173.75 -105.25 174.05 -105.95 176.5 -106.6 177.05 -106.45 178.95 -99.45 178.65 -99.0 176.1 -98.3 175.5 -98.8 175.1 -100.25 174.85 -100.2 216.75 56.15 217.0 56.1 216.6 54.65 216.9 53.95 219.35 53.3 219.9 53.45 221.8 60.45 221.5 60.9 218.95 61.6 218.35 61.1 217.95 59.65 217.7 59.7 218.95 64.4 219.2 64.3 218.8 62.85 219.1 62.15 221.55 61.5 222.1 61.7 224.0 68.7 223.7 69.1 221.15 69.8 220.55 69.3 220.15 67.85 219.9 67.9 221.6 74.25 221.85 74.2 221.45 72.75 221.75 72.0 224.2 71.35 224.75 71.55 226.65 78.55 226.35 78.95 223.8 79.65 223.15 79.15 222.8 77.7 222.55 77.75 223.8 82.45 224.05 82.4 223.65 80.95 223.95 80.2 226.4 79.55 226.95 79.75 228.85 86.75 228.55 87.2 226.0 87.85 225.35 87.35 225.0 85.95 224.75 86.0 226.55 92.65 226.75 92.6 226.4 91.15 226.7 90.4 229.1 89.75 229.7 89.95 231.55 96.95 231.3 97.35 228.75 98.05 228.1 97.55 227.7 96.1 227.5 96.15 228.75 100.85 228.95 100.8 228.6 99.35 228.9 98.6 231.3 97.95 231.9 98.15 233.75 105.15 233.5 105.55 230.95 106.25 230.3 105.75 229.9 104.3 229.7 104.4 246.0 165.3 246.25 165.25 245.85 163.8 246.15 163.05 248.6 162.4 249.15 162.6 251.05 169.6 250.75 170.05 248.2 170.7 247.55 170.25 247.2 168.8 246.95 168.85 248.2 173.5 248.45 173.45 248.05 172.0 248.35 171.3 250.8 170.6 251.35 170.8 253.25 177.8 252.95 178.25 250.4 178.95 249.75 178.45 249.4 177.0 249.15 177.05 250.85 183.35 251.1 183.3 250.7 181.85 251.0 181.15 253.45 180.5 254.0 180.65 255.85 187.65 255.6 188.1 253.05 188.8 252.4 188.3 252.05 186.85 251.8 186.9 253.05 191.6 253.3 191.5 252.9 190.05 253.2 189.35 255.6 188.7 256.2 188.9 258.05 195.9 257.8 196.3 255.25 197.0 254.6 196.5 254.25 195.05 254.0 195.1 255.8 201.75 256.0 201.7 255.6 200.25 255.9 199.55 258.35 198.9 258.9 199.05 260.8 206.05 260.5 206.5 257.95 207.2 257.35 206.7 256.95 205.25 256.75 205.3 258.0 210.0 258.2 209.9 257.8 208.45 258.1 207.75 260.55 207.1 261.1 207.25 263.0 214.3 262.75 214.7 260.15 215.4 259.55 214.9 259.15 213.45 258.95 213.5 260.75 220.3 261.0 220.25 260.6 218.8 260.9 218.1 263.35 217.45 263.9 217.6 265.75 224.6 265.5 225.05 262.95 225.75 262.3 225.25 261.95 223.8 261.7 223.85 262.95 228.55 263.2 228.45 262.8 227.0 263.1 226.3 265.5 225.65 266.1 225.8 267.95 232.85 267.7 233.25 265.15 233.95 264.5 233.45 264.15 232.0 263.9 232.05 294.9 347.75 295.15 347.7 294.75 346.25 295.05 345.55 297.5 344.9" fill="#424242" fill-rule="evenodd" stroke="none"/>
    <path d="M2.25 -318.3 L-22.4 -383.45 48.6 -366.75 56.2 -338.6 47.95 -330.75 55.3 -303.2 2.25 -318.3" fill="#959595" fill-rule="evenodd" stroke="none"/>
    <path d="M17.3 808.45 L26.85 805.9 45.15 874.1 129.05 882.4 128.3 891.7 37.4 883.45 17.3 808.45" fill="#959595" fill-rule="evenodd" stroke="none"/>
    <path d="M361.45 834.95 L361.6 835.95 361.5 836.7 361.15 837.2 360.75 837.55 359.7 838.1 359.85 838.55 342.4 843.25 342.2 842.8 341.25 843.05 341.3 843.55 338.25 844.35 330.65 828.95 357.9 821.65 361.45 834.95" fill="#959595" fill-rule="evenodd" stroke="none"/>
    <path d="M317.05 474.6 L317.65 474.45 317.15 472.55 316.65 472.7 291.4 378.6 292.1 378.4 227.9 138.15 227.05 138.4 202.3 46.0 202.6 45.95 200.4 37.75 210.5 35.0 403.15 754.0 366.05 771.35 367.2 775.65 367.6 796.3 373.15 816.9 330.5 828.3 310.95 785.4 391.45 748.5 384.9 724.1 384.05 724.35 354.7 614.85 355.0 614.75 352.8 606.55 352.45 606.65 317.05 474.6" fill="#959595" fill-rule="evenodd" stroke="none"/>
    <path d="M151.95 -143.7 L161.65 -146.3 166.1 -129.75 185.2 -132.9 185.1 -133.25 185.0 -134.5 185.65 -136.0 186.3 -136.45 186.8 -136.65 199.95 -140.2 200.55 -140.1 201.3 -139.7 201.9 -138.8 205.55 -125.3 205.45 -124.2 205.0 -123.5 204.5 -123.1 190.85 -119.5 190.05 -119.55 189.35 -120.0 188.75 -120.55 188.2 -121.6 188.15 -121.95 170.0 -115.1 174.75 -97.35 165.1 -94.75 151.95 -143.7" fill="#959595" fill-rule="evenodd" stroke="none"/>
    <path d="M-186.0 40.8 L-176.1 39.7 -77.0 409.55 -85.15 444.6 -81.55 458.05 -81.15 457.9 -35.6 627.9 -15.65 647.25 -8.65 673.45 -18.15 676.0 -24.4 652.8 -44.15 633.05 -50.4 609.75 -69.85 612.95 -69.8 613.25 -69.7 614.45 -70.35 615.95 -71.0 616.4 -71.5 616.6 -84.65 620.15 -85.25 620.05 -86.0 619.65 -86.6 618.75 -86.85 618.25 -90.25 605.45 -90.35 604.75 -90.15 604.15 -89.7 603.45 -89.2 603.05 -75.55 599.45 -74.75 599.55 -74.05 600.0 -73.45 600.55 -72.9 601.65 -72.8 602.0 -54.35 595.0 -151.6 232.1 -171.05 235.25 -170.9 236.75 -171.55 238.25 -172.2 238.7 -172.7 238.95 -185.85 242.45 -186.45 242.35 -187.2 242.0 -187.8 241.05 -188.0 240.6 -191.45 227.8 -191.55 227.1 -191.35 226.5 -190.9 225.75 -190.4 225.4 -177.25 221.85 -176.7 221.8 -175.95 221.85 -175.25 222.3 -174.65 222.85 -174.1 223.95 -174.0 224.3 -155.55 217.35 -176.8 137.95 -186.0 40.8" fill="#959595" fill-rule="evenodd" stroke="none"/>
    <path d="M315.65 472.95 L309.45 474.65 294.1 494.75 254.35 505.4 254.85 507.2 295.65 496.15 310.35 476.55 316.2 475.0 351.55 606.9 345.75 608.45 323.25 598.75 282.3 609.7 282.8 611.55 322.9 600.8 345.95 610.85 351.6 609.3 353.2 615.25 353.75 615.1 383.1 724.65 382.55 724.8 388.6 747.5 308.55 784.25 338.2 847.15 224.95 899.3 153.8 918.35 129.9 882.0 45.55 873.5 27.35 805.65 33.85 803.9 35.3 804.5 50.35 785.15 89.7 774.6 89.3 773.05 92.65 766.95 67.75 674.1 61.8 670.55 61.3 668.6 21.35 679.3 -0.7 670.15 -1.65 671.55 -8.1 673.3 -15.15 646.95 -35.1 627.8 -80.65 457.8 -80.0 457.6 -83.55 444.35 -75.3 409.85 -174.7 38.9 -176.3 38.85 -294.5 -215.1 -184.0 -267.4 -252.6 -685.65 -147.45 -713.8 -24.05 -385.0 -25.0 -384.75 0.5 -316.6 70.2 -296.85 70.5 -297.85 113.3 -285.55 164.1 -96.05 155.45 -93.75 141.65 -74.1 101.9 -63.45 102.4 -61.7 98.9 -55.85 123.85 37.15 129.8 40.55 130.2 42.1 169.95 31.45 193.1 41.15 198.3 39.75 200.1 46.6 201.35 46.3 226.1 138.65 225.5 138.8 289.75 379.05 290.45 378.85 315.65 472.95" fill="#959595" fill-rule="evenodd" stroke="none"/>
    <path d="M129.55 883.75 L130.1 883.9 142.8 903.3 137.35 904.8 136.2 904.8 135.4 904.6 135.0 904.05 129.55 883.75" fill="#959595" fill-rule="evenodd" stroke="none"/>
    <path d="M151.75 185.6 L152.65 184.6 161.8 178.25 161.9 178.15 161.6 177.45 165.55 175.8 165.7 176.2 165.9 176.15 165.7 175.7 167.75 174.85 167.95 175.3 171.95 173.8 177.2 172.9 187.85 172.65 187.95 171.75 189.6 171.95 189.5 172.85 194.0 173.4 195.35 173.9 200.2 191.85 200.7 191.7 200.8 191.95 200.25 192.1 203.95 205.9 204.4 205.75 204.85 207.3 204.35 207.4 204.75 208.85 205.3 208.7 205.35 208.95 204.8 209.1 205.95 213.4 206.1 213.35 208.15 221.0 208.0 221.0 208.55 223.1 209.1 222.95 209.75 225.4 209.2 225.55 210.9 231.8 211.4 231.7 214.0 241.45 223.4 238.95 228.15 241.95 229.0 240.2 229.8 240.6 228.9 242.4 232.2 244.5 237.5 264.25 238.3 264.05 238.35 264.35 237.6 264.55 237.8 265.35 238.55 265.15 238.65 265.45 237.9 265.65 238.15 266.65 238.75 266.45 239.2 268.05 238.6 268.2 238.7 268.65 239.1 268.5 239.55 268.9 239.65 269.35 239.45 270.0 239.1 270.1 239.2 270.6 239.85 270.4 240.15 271.5 239.5 271.65 240.75 276.25 241.45 276.05 241.5 276.35 240.8 276.55 242.75 283.85 237.55 292.95 238.7 297.35 239.35 297.2 239.4 297.45 238.8 297.6 239.75 301.3 240.3 301.15 240.75 302.8 240.2 302.95 240.3 303.25 240.8 303.1 241.05 304.05 240.55 304.2 241.45 307.65 240.95 307.8 251.8 348.25 252.3 348.15 255.3 359.4 254.75 360.3 245.8 362.7 245.4 361.25 253.65 359.05 250.85 348.55 251.3 348.4 240.45 307.95 240.0 308.05 236.45 294.75 192.35 306.55 192.0 305.35 193.05 305.05 189.2 290.7 188.1 290.65 187.25 290.9 186.9 289.55 187.75 289.3 188.85 288.6 189.0 289.25 210.1 283.6 206.65 270.6 185.6 276.25 184.2 276.2 183.35 276.4 183.0 275.05 183.85 274.85 184.9 273.95 205.9 268.3 202.5 255.6 181.8 261.15 181.05 258.2 155.45 265.05 157.1 271.1 156.6 271.2 154.85 264.8 155.5 264.65 157.3 261.45 156.6 261.0 157.2 260.0 157.9 260.4 160.35 255.95 162.45 255.4 162.35 254.95 163.25 254.7 163.4 255.15 163.8 255.05 163.7 254.6 164.6 254.35 164.7 254.8 165.35 254.65 165.3 254.15 166.8 253.75 167.0 254.2 169.35 253.55 166.9 244.3 167.2 244.2 164.05 231.95 163.7 232.05 163.05 229.5 163.4 229.4 163.05 228.0 162.9 228.05 162.6 227.7 162.45 227.2 162.55 226.75 162.7 226.7 162.55 226.2 162.4 226.25 162.15 225.9 162.0 225.4 162.05 224.95 162.2 224.9 161.15 220.8 160.8 220.85 160.75 220.65 161.1 220.55 151.75 185.6" fill="#424242" fill-rule="evenodd" stroke="none"/>
    <path d="M158.4 278.0 L158.9 277.85 159.7 280.9 160.9 281.0 161.75 280.75 162.1 282.1 161.25 282.35 160.25 282.95 163.6 295.4 164.8 295.45 165.6 295.25 165.95 296.6 165.15 296.8 164.15 297.45 165.25 301.5 165.95 301.0 166.45 300.75 167.05 300.75 167.55 300.95 167.95 301.35 168.1 301.9 168.05 302.45 167.8 302.95 167.35 303.3 166.8 303.4 166.25 303.3 165.65 303.05 165.85 303.85 179.85 300.15 181.95 308.05 183.1 307.75 183.4 308.95 176.65 310.75 180.25 324.1 178.8 324.5 174.9 309.9 165.35 304.05 163.65 297.65 163.35 297.75 162.95 296.25 163.25 296.15 163.15 295.75 162.9 295.8 162.6 295.35 162.5 294.85 162.5 294.3 162.75 294.25 162.65 293.8 162.3 293.9 162.0 292.85 162.35 292.75 162.25 292.45 161.95 292.55 161.7 291.5 162.0 291.4 160.1 284.3 159.55 284.45 159.5 284.15 160.0 284.0 158.4 278.0" fill="#424242" fill-rule="evenodd" stroke="none"/>
    <path d="M193.9 375.05 L202.1 372.85 202.5 374.3 193.55 376.7 Q192.85 376.9 192.65 376.15 L189.6 364.9 191.05 364.5 193.9 375.05" fill="#424242" fill-rule="evenodd" stroke="none"/>
    <path d="M178.3 260.35 L178.45 259.8 178.85 259.4 179.35 259.15 179.9 259.15 180.4 259.35 180.8 259.75 181.0 260.3 180.95 260.85 180.65 261.35 180.2 261.7 179.65 261.8 179.1 261.7 178.65 261.4 178.35 260.9 178.3 260.35" fill="#424242" fill-rule="evenodd" stroke="none"/>
    <path d="M177.85 259.95 L177.55 260.05 177.25 259.9 177.15 259.55 177.35 259.3 177.65 259.2 177.95 259.35 178.05 259.7 177.85 259.95" fill="#424242" fill-rule="evenodd" stroke="none"/>
    <path d="M176.95 259.65 L177.05 259.95 176.85 260.25 176.55 260.3 176.25 260.15 176.15 259.85 176.35 259.55 176.65 259.45 176.95 259.65" fill="#424242" fill-rule="evenodd" stroke="none"/>
    <path d="M347.9 839.45 L337.2 842.3 332.85 833.45 332.0 830.25 344.55 826.9 347.9 839.45" fill="#6f6f6f" fill-rule="evenodd" stroke="none"/>
    <path d="M323.35 811.15 L322.75 811.3 319.2 803.5 321.15 803.0 323.35 811.15" fill="#6f6f6f" fill-rule="evenodd" stroke="none"/>
    <path d="M327.95 813.3 L327.45 809.8 329.35 809.5 329.9 813.0 327.95 813.3" fill="#6f6f6f" fill-rule="evenodd" stroke="none"/>
    <path d="M324.2 814.6 L327.05 813.3 327.9 815.05 325.1 816.35 324.2 814.6" fill="#6f6f6f" fill-rule="evenodd" stroke="none"/>
    <path d="M317.8 800.6 L314.65 793.55 315.35 793.15 318.85 800.05 317.8 800.6" fill="#6f6f6f" fill-rule="evenodd" stroke="none"/>
    <path d="M348.2 793.65 L353.8 792.15 354.85 796.15 353.3 796.6 363.45 802.35 356.85 813.95 345.2 807.35 350.95 797.2 349.3 797.65 348.2 793.65" fill="#6f6f6f" fill-rule="evenodd" stroke="none"/>
    <path d="M361.85 736.4 L362.95 740.3 356.0 742.3 354.85 738.45 361.85 736.4" fill="#6f6f6f" fill-rule="evenodd" stroke="none"/>
    <path d="M363.05 740.5 L364.2 744.35 357.2 746.4 356.1 742.5 363.05 740.5" fill="#6f6f6f" fill-rule="evenodd" stroke="none"/>
    <path d="M364.25 744.55 L365.4 748.45 358.45 750.45 357.3 746.6 364.25 744.55" fill="#6f6f6f" fill-rule="evenodd" stroke="none"/>
    <path d="M364.6 748.85 L366.5 752.4 360.1 755.85 358.2 752.25 364.6 748.85" fill="#6f6f6f" fill-rule="evenodd" stroke="none"/>
    <path d="M373.25 731.0 L373.35 731.4 377.4 729.45 380.7 736.05 376.4 738.2 373.7 732.75 377.7 747.6 367.3 750.4 362.85 733.8 373.25 731.0" fill="#6f6f6f" fill-rule="evenodd" stroke="none"/>
    <path d="M66.5 866.0 L60.5 861.95 62.75 858.6 68.75 862.65 66.5 866.0" fill="#6f6f6f" fill-rule="evenodd" stroke="none"/>
    <path d="M64.1 869.6 L58.05 865.6 60.3 862.25 66.3 866.25 64.1 869.6" fill="#6f6f6f" fill-rule="evenodd" stroke="none"/>
    <path d="M57.95 865.8 L64.0 869.8 61.75 873.2 55.7 869.15 57.95 865.8" fill="#6f6f6f" fill-rule="evenodd" stroke="none"/>
    <path d="M60.65 860.1 L58.4 863.45 52.4 859.45 54.65 856.1 60.65 860.1" fill="#6f6f6f" fill-rule="evenodd" stroke="none"/>
    <path d="M58.25 863.75 L56.0 867.1 49.95 863.05 52.2 859.7 58.25 863.75" fill="#6f6f6f" fill-rule="evenodd" stroke="none"/>
    <path d="M55.9 867.3 L53.65 870.65 47.6 866.6 49.85 863.25 55.9 867.3" fill="#6f6f6f" fill-rule="evenodd" stroke="none"/>
    <path d="M83.15 780.55 L85.4 777.2 91.4 781.2 89.15 784.6 83.15 780.55" fill="#6f6f6f" fill-rule="evenodd" stroke="none"/>
    <path d="M88.95 784.85 L86.7 788.2 80.7 784.15 82.95 780.8 88.95 784.85" fill="#6f6f6f" fill-rule="evenodd" stroke="none"/>
    <path d="M80.6 784.35 L86.65 788.4 84.4 791.75 78.35 787.7 80.6 784.35" fill="#6f6f6f" fill-rule="evenodd" stroke="none"/>
    <path d="M249.8 352.2 L245.85 353.05 244.35 345.95 248.3 345.1 249.8 352.2" fill="#6f6f6f" fill-rule="evenodd" stroke="none"/>
    <path d="M245.55 353.05 L241.6 353.9 240.1 346.85 244.05 346.0 245.55 353.05" fill="#6f6f6f" fill-rule="evenodd" stroke="none"/>
    <path d="M241.4 354.0 L237.45 354.85 235.95 347.75 239.9 346.9 241.4 354.0" fill="#6f6f6f" fill-rule="evenodd" stroke="none"/>
    <path d="M181.2 46.0 L182.35 49.85 175.45 52.0 174.25 48.1 181.2 46.0" fill="#6f6f6f" fill-rule="evenodd" stroke="none"/>
    <path d="M177.3 57.75 L175.75 54.0 182.45 51.3 184.0 55.0 177.3 57.75" fill="#6f6f6f" fill-rule="evenodd" stroke="none"/>
    <path d="M174.15 47.8 L173.0 43.95 179.9 41.8 181.1 45.7 174.15 47.8" fill="#6f6f6f" fill-rule="evenodd" stroke="none"/>
    <path d="M172.9 43.75 L171.7 39.9 178.65 37.75 179.8 41.6 172.9 43.75" fill="#6f6f6f" fill-rule="evenodd" stroke="none"/>
    <path d="M67.9 782.6 L76.4 782.7 76.3 788.9 67.8 788.8 67.9 782.6" fill="#6f6f6f" fill-rule="evenodd" stroke="none"/>
    <path d="M58.75 784.2 L67.25 784.3 67.15 790.85 58.65 790.75 58.75 784.2" fill="#6f6f6f" fill-rule="evenodd" stroke="none"/>
    <path d="M369.85 728.2 L369.95 721.6 378.2 721.75 378.1 728.35 369.85 728.2" fill="#6f6f6f" fill-rule="evenodd" stroke="none"/>
    <path d="M343.75 618.35 L351.85 618.3 351.9 624.85 343.8 624.9 343.75 618.35" fill="#6f6f6f" fill-rule="evenodd" stroke="none"/>
    <path d="M328.1 609.55 L333.5 614.0 323.4 626.2 318.0 621.75 328.1 609.55" fill="#6f6f6f" fill-rule="evenodd" stroke="none"/>
    <path d="M343.0 614.3 L341.45 618.15 335.05 615.55 340.2 618.75 338.05 622.25 331.95 618.45 334.1 614.95 334.8 615.4 336.35 611.6 343.0 614.3" fill="#6f6f6f" fill-rule="evenodd" stroke="none"/>
    <path d="M329.45 622.05 L331.65 618.55 337.75 622.3 335.55 625.85 329.45 622.05" fill="#6f6f6f" fill-rule="evenodd" stroke="none"/>
    <path d="M329.15 622.3 L335.25 626.1 333.1 629.6 327.0 625.8 329.15 622.3" fill="#6f6f6f" fill-rule="evenodd" stroke="none"/>
    <path d="M319.45 604.7 L324.85 609.15 314.75 621.35 309.35 616.9 319.45 604.7" fill="#6f6f6f" fill-rule="evenodd" stroke="none"/>
    <path d="M68.6 864.95 L76.85 864.85 76.95 871.25 68.7 871.35 68.6 864.95" fill="#6f6f6f" fill-rule="evenodd" stroke="none"/>
    <path d="M112.6 865.05 L124.4 862.9 126.5 874.55 114.7 876.7 112.6 865.05" fill="#6f6f6f" fill-rule="evenodd" stroke="none"/>
    <path d="M32.9 653.95 L37.25 670.35 26.85 673.15 22.45 656.75 32.9 653.95" fill="#6f6f6f" fill-rule="evenodd" stroke="none"/>
    <path d="M38.55 662.35 L46.75 662.35 46.75 668.8 38.5 668.8 38.55 662.35" fill="#6f6f6f" fill-rule="evenodd" stroke="none"/>
    <path d="M128.8 877.85 L126.7 866.15 138.5 864.05 140.6 875.7 128.8 877.85" fill="#6f6f6f" fill-rule="evenodd" stroke="none"/>
    <path d="M34.3 654.15 L34.2 653.8 35.9 653.4 37.45 652.65 37.6 652.95 38.25 652.75 38.45 653.6 41.75 651.3 45.95 657.25 42.55 659.65 38.6 654.05 39.1 656.1 40.6 659.2 40.0 659.5 40.1 659.85 38.4 660.25 36.85 661.0 36.7 660.7 36.05 660.9 35.2 657.55 33.7 654.4 34.3 654.15" fill="#6f6f6f" fill-rule="evenodd" stroke="none"/>
    <path d="M232.7 354.55 L224.4 354.65 224.3 348.3 232.6 348.15 232.7 354.55" fill="#6f6f6f" fill-rule="evenodd" stroke="none"/>
    <path d="M206.85 365.35 L206.1 372.55 203.35 372.25 203.5 370.55 195.4 371.3 194.8 364.8 192.8 365.0 192.4 360.9 199.65 360.25 200.0 364.1 202.95 363.85 203.55 370.25 204.1 365.05 206.85 365.35" fill="#6f6f6f" fill-rule="evenodd" stroke="none"/>
    <path d="M229.9 343.65 L228.75 343.5 229.0 340.85 226.95 338.15 232.65 333.8 235.3 337.25 233.6 338.55 233.35 341.0 237.15 345.05 234.0 348.0 229.9 343.65" fill="#6f6f6f" fill-rule="evenodd" stroke="none"/>
    <path d="M235.85 308.4 L235.65 314.9 227.3 314.55 227.45 308.05 235.85 308.4" fill="#6f6f6f" fill-rule="evenodd" stroke="none"/>
    <path d="M224.9 317.35 L236.65 315.15 238.8 326.8 227.1 329.0 224.9 317.35" fill="#6f6f6f" fill-rule="evenodd" stroke="none"/>
    <path d="M234.1 329.8 L244.5 327.0 248.85 343.15 238.45 345.95 234.1 329.8" fill="#6f6f6f" fill-rule="evenodd" stroke="none"/>
    <path d="M192.25 368.9 L193.3 368.65 193.75 370.3 192.7 370.6 192.25 368.9" fill="#6f6f6f" fill-rule="evenodd" stroke="none"/>
    <path d="M192.85 371.05 L194.0 370.75 194.95 374.3 193.8 374.6 192.85 371.05" fill="#6f6f6f" fill-rule="evenodd" stroke="none"/>
    <path d="M267.85 353.0 L273.05 357.45 262.7 369.65 257.45 365.2 267.85 353.0" fill="#6f6f6f" fill-rule="evenodd" stroke="none"/>
    <path d="M276.3 357.7 L281.5 362.15 271.15 374.35 265.9 369.9 276.3 357.7" fill="#6f6f6f" fill-rule="evenodd" stroke="none"/>
    <path d="M165.75 56.05 L171.9 54.4 174.0 62.2 167.85 63.85 165.75 56.05" fill="#6f6f6f" fill-rule="evenodd" stroke="none"/>
    <path d="M184.9 52.85 L193.25 53.05 193.1 59.55 184.8 59.4 184.9 52.85" fill="#6f6f6f" fill-rule="evenodd" stroke="none"/>
    <path d="M192.3 51.8 L183.95 51.8 183.95 45.1 192.3 45.05 192.3 51.8" fill="#6f6f6f" fill-rule="evenodd" stroke="none"/>
    <path d="M159.7 38.8 L170.05 36.0 174.4 52.25 164.05 55.05 159.7 38.8" fill="#6f6f6f" fill-rule="evenodd" stroke="none"/>
    <path d="M67.35 -280.15 L79.25 -278.9 78.0 -266.7 66.05 -267.95 67.35 -280.15" fill="#6f6f6f" fill-rule="evenodd" stroke="none"/>
    <path d="M91.45 -264.95 L102.4 -264.75 102.1 -247.45 91.15 -247.65 91.45 -264.95" fill="#6f6f6f" fill-rule="evenodd" stroke="none"/>
    <path d="M56.75 -277.75 L64.05 -278.25 64.3 -274.1 57.0 -273.6 56.75 -277.75" fill="#6f6f6f" fill-rule="evenodd" stroke="none"/>
    <path d="M29.95 -363.75 L42.8 -360.2 39.3 -347.7 26.5 -351.3 29.95 -363.75" fill="#6f6f6f" fill-rule="evenodd" stroke="none"/>
    <path d="M-86.85 618.25 L-90.25 605.45 -77.45 602.05 -74.05 614.85 -86.85 618.25" fill="#6f6f6f" fill-rule="evenodd" stroke="none"/>
    <path d="M-175.25 237.15 L-188.0 240.6 -191.45 227.8 -178.65 224.35 -175.25 237.15" fill="#6f6f6f" fill-rule="evenodd" stroke="none"/>
    <path d="M-141.75 266.0 L-146.1 249.8 -135.95 247.05 -131.6 263.3 -141.75 266.0" fill="#6f6f6f" fill-rule="evenodd" stroke="none"/>
    <path d="M-137.0 234.15 L-135.1 246.0 -146.8 247.9 -148.7 236.05 -137.0 234.15" fill="#6f6f6f" fill-rule="evenodd" stroke="none"/>
    <path d="M154.1 814.8 L159.55 808.4 164.05 807.2 172.0 810.05 174.25 818.55 168.85 825.05 164.35 826.3 156.4 823.3 154.1 814.8" fill="#6f6f6f" fill-rule="evenodd" stroke="none"/>
    <path d="M108.5 324.45 L113.95 318.05 118.45 316.8 126.4 319.65 128.65 328.15 123.25 334.7 118.75 335.9 110.8 332.95 108.5 324.45" fill="#6f6f6f" fill-rule="evenodd" stroke="none"/>
    <path d="M205.45 -125.8 L192.65 -122.4 189.25 -135.2 202.05 -138.6 205.45 -125.8" fill="#6f6f6f" fill-rule="evenodd" stroke="none"/>
    <path d="M175.15 259.75 L175.8 259.6 176.05 260.55 175.4 260.7 175.15 259.75" fill="#6f6f6f" fill-rule="evenodd" stroke="none"/>
    <path d="M174.1 261.05 L173.85 260.1 174.5 259.95 174.75 260.9 174.1 261.05" fill="#6f6f6f" fill-rule="evenodd" stroke="none"/>
    <path d="M172.55 260.45 L173.2 260.3 173.45 261.25 172.8 261.4 172.55 260.45" fill="#6f6f6f" fill-rule="evenodd" stroke="none"/>
    <path d="M171.3 260.8 L171.9 260.65 172.15 261.55 171.55 261.75 171.3 260.8" fill="#6f6f6f" fill-rule="evenodd" stroke="none"/>
    <path d="M160.25 263.75 L162.1 263.25 162.25 263.8 160.4 264.3 160.25 263.75" fill="#6f6f6f" fill-rule="evenodd" stroke="none"/>
    <path d="M156.95 264.9 L160.0 264.1 160.8 267.15 157.75 267.95 156.95 264.9" fill="#6f6f6f" fill-rule="evenodd" stroke="none"/>
    <path d="M162.55 291.5 L162.1 289.9 163.25 289.6 163.7 291.2 162.55 291.5" fill="#6f6f6f" fill-rule="evenodd" stroke="none"/>
    <path d="M163.6 295.45 L162.7 292.05 163.9 291.7 164.8 295.15 163.6 295.45" fill="#6f6f6f" fill-rule="evenodd" stroke="none"/>
    <path d="M165.2 301.35 L164.15 297.55 164.8 297.4 165.8 301.15 165.2 301.35" fill="#6f6f6f" fill-rule="evenodd" stroke="none"/>
    <path d="M188.7 294.35 L188.45 293.5 189.85 293.15 190.1 293.95 188.7 294.35" fill="#6f6f6f" fill-rule="evenodd" stroke="none"/>
    <path d="M178.85 318.9 L177.8 315.0 178.85 314.7 179.9 318.6 178.85 318.9" fill="#6f6f6f" fill-rule="evenodd" stroke="none"/>
    <path d="M271.2 376.95 L266.9 390.6 263.25 389.45 267.55 375.8 271.2 376.95" fill="#6f6f6f" fill-rule="evenodd" stroke="none"/>
    <path d="M290.45 615.9 L301.75 607.05 304.1 610.1 292.85 618.9 290.45 615.9" fill="#6f6f6f" fill-rule="evenodd" stroke="none"/>
    <path d="M326.55 632.8 L320.05 645.55 316.65 643.8 323.15 631.05 326.55 632.8" fill="#6f6f6f" fill-rule="evenodd" stroke="none"/>
    <path d="M367.4 723.2 L365.8 726.65 352.8 720.6 354.45 717.15 367.4 723.2" fill="#6f6f6f" fill-rule="evenodd" stroke="none"/>
    <path d="M355.05 752.9 L354.95 756.7 340.65 756.25 340.75 752.4 355.05 752.9" fill="#6f6f6f" fill-rule="evenodd" stroke="none"/>
    <path d="M108.5 851.15 L115.85 850.5 116.2 854.55 108.85 855.2 108.5 851.15" fill="#6f6f6f" fill-rule="evenodd" stroke="none"/>
    <path d="M110.85 854.8 L119.1 854.0 119.75 860.75 111.45 861.5 110.85 854.8" fill="#6f6f6f" fill-rule="evenodd" stroke="none"/>
    <path d="M120.15 855.15 L122.85 855.45 122.0 862.4 119.3 862.05 120.15 855.15" fill="#6f6f6f" fill-rule="evenodd" stroke="none"/>
    <path d="M102.6 850.4 L106.25 851.45 102.2 865.2 98.55 864.1 102.6 850.4" fill="#6f6f6f" fill-rule="evenodd" stroke="none"/>
    <path d="M69.05 790.3 L71.8 790.45 71.35 797.85 68.6 797.65 69.05 790.3" fill="#6f6f6f" fill-rule="evenodd" stroke="none"/>
    <path d="M66.5 792.3 L66.8 796.35 59.45 796.95 59.15 792.9 66.5 792.3" fill="#6f6f6f" fill-rule="evenodd" stroke="none"/>
    <path d="M132.95 848.8 L136.4 850.5 130.1 863.35 126.7 861.7 132.95 848.8" fill="#6f6f6f" fill-rule="evenodd" stroke="none"/>
    <path d="M243.9 374.4 L241.25 371.6 251.65 361.75 254.3 364.55 243.9 374.4" fill="#6f6f6f" fill-rule="evenodd" stroke="none"/>
    <path d="M232.0 332.4 L219.55 339.4 217.65 336.1 230.15 329.05 232.0 332.4" fill="#6f6f6f" fill-rule="evenodd" stroke="none"/>
    <path d="M234.35 366.2 L231.75 363.85 240.25 354.2 242.85 356.55 234.35 366.2" fill="#6f6f6f" fill-rule="evenodd" stroke="none"/>
    <path d="M97.15 795.3 L94.0 793.8 99.4 782.15 102.55 783.6 97.15 795.3" fill="#6f6f6f" fill-rule="evenodd" stroke="none"/>
    <path d="M93.2 782.35 L96.5 783.5 92.15 795.6 88.85 794.45 93.2 782.35" fill="#6f6f6f" fill-rule="evenodd" stroke="none"/>
    <path d="M61.3 650.05 L51.7 660.7 48.85 658.15 58.45 647.5 61.3 650.05" fill="#6f6f6f" fill-rule="evenodd" stroke="none"/>
    <path d="M10.8 641.7 L14.4 643.1 9.1 656.45 5.55 655.05 10.8 641.7" fill="#6f6f6f" fill-rule="evenodd" stroke="none"/>
    <path d="M7.95 657.75 L20.3 661.3 19.35 664.7 7.0 661.15 7.95 657.75" fill="#6f6f6f" fill-rule="evenodd" stroke="none"/>
    <path d="M7.4 662.25 L19.0 667.8 17.5 671.0 5.9 665.45 7.4 662.25" fill="#6f6f6f" fill-rule="evenodd" stroke="none"/>
    <path d="M160.5 55.9 L162.35 59.3 149.75 66.1 147.9 62.75 160.5 55.9" fill="#6f6f6f" fill-rule="evenodd" stroke="none"/>
    <path d="M162.95 60.3 L165.3 63.3 154.1 72.15 151.7 69.15 162.95 60.3" fill="#6f6f6f" fill-rule="evenodd" stroke="none"/>
    <path d="M132.95 52.5 L146.2 57.85 144.8 61.4 131.5 56.05 132.95 52.5" fill="#6f6f6f" fill-rule="evenodd" stroke="none"/>
    <path d="M147.9 52.1 L146.5 55.65 133.2 50.3 134.65 46.75 147.9 52.1" fill="#6f6f6f" fill-rule="evenodd" stroke="none"/>
    <path d="M147.85 46.6 L148.85 43.25 161.2 46.8 160.2 50.15 147.85 46.6" fill="#6f6f6f" fill-rule="evenodd" stroke="none"/>
    <path d="M146.0 41.8 L147.0 38.4 159.35 41.95 158.35 45.35 146.0 41.8" fill="#6f6f6f" fill-rule="evenodd" stroke="none"/>
    <path d="M90.65 -239.4 L104.95 -238.9 104.85 -235.1 90.55 -235.6 90.65 -239.4" fill="#6f6f6f" fill-rule="evenodd" stroke="none"/>
    <path d="M90.85 -245.5 L105.15 -245.0 105.0 -241.15 90.7 -241.65 90.85 -245.5" fill="#6f6f6f" fill-rule="evenodd" stroke="none"/>
    <path d="M79.5 -262.85 L82.7 -248.9 78.95 -248.05 75.75 -262.0 79.5 -262.85" fill="#6f6f6f" fill-rule="evenodd" stroke="none"/>
    <path d="M85.6 -264.15 L88.8 -250.2 85.1 -249.35 81.9 -263.3 85.6 -264.15" fill="#6f6f6f" fill-rule="evenodd" stroke="none"/>
    <path d="M65.9 -249.05 L67.75 -252.0 78.65 -245.2 76.8 -242.25 65.9 -249.05" fill="#6f6f6f" fill-rule="evenodd" stroke="none"/>
    <path d="M237.75 368.4 L235.15 366.1 243.65 356.45 246.25 358.75 237.75 368.4" fill="#6f6f6f" fill-rule="evenodd" stroke="none"/>
    <path d="M198.05 313.3 L195.95 305.55 226.65 297.35 228.7 305.1 198.05 313.3" fill="#6f6f6f" fill-rule="evenodd" stroke="none"/>
    <path d="M-172.5 102.7 L-175.05 90.95 -163.25 88.4 -160.65 100.1 -172.5 102.7" fill="#6f6f6f" fill-rule="evenodd" stroke="none"/>
    <path d="M-169.25 116.0 L-171.4 104.2 -159.5 102.05 -157.35 113.85 -169.25 116.0" fill="#6f6f6f" fill-rule="evenodd" stroke="none"/>
    <path d="M-162.3 136.2 L-166.8 119.95 -156.1 117.0 -151.65 133.25 -162.3 136.2" fill="#6f6f6f" fill-rule="evenodd" stroke="none"/>
    <path d="M-151.4 135.1 L-146.9 151.35 -157.55 154.3 -162.05 138.05 -151.4 135.1" fill="#6f6f6f" fill-rule="evenodd" stroke="none"/>
    <path d="M-153.15 154.5 L-147.4 152.1 -144.1 160.0 -149.85 162.4 -153.15 154.5" fill="#6f6f6f" fill-rule="evenodd" stroke="none"/>
    <path d="M-160.55 194.6 L-161.55 190.7 -154.55 188.8 -153.5 192.75 -160.55 194.6" fill="#6f6f6f" fill-rule="evenodd" stroke="none"/>
    <path d="M-159.4 198.8 L-160.45 194.95 -153.45 193.1 -152.4 196.9 -159.4 198.8" fill="#6f6f6f" fill-rule="evenodd" stroke="none"/>
    <path d="M-158.25 203.15 L-159.35 199.05 -152.35 197.15 -151.25 201.25 -158.25 203.15" fill="#6f6f6f" fill-rule="evenodd" stroke="none"/>
    <path d="M-118.7 354.7 L-119.75 350.8 -112.75 348.95 -111.7 352.85 -118.7 354.7" fill="#6f6f6f" fill-rule="evenodd" stroke="none"/>
    <path d="M-117.6 358.9 L-118.6 355.05 -111.6 353.2 -110.6 357.0 -117.6 358.9" fill="#6f6f6f" fill-rule="evenodd" stroke="none"/>
    <path d="M-116.45 363.25 L-117.55 359.15 -110.55 357.25 -109.45 361.35 -116.45 363.25" fill="#6f6f6f" fill-rule="evenodd" stroke="none"/>
    <path d="M-158.25 204.15 L-154.75 202.4 -151.4 209.1 -154.9 210.85 -158.25 204.15" fill="#6f6f6f" fill-rule="evenodd" stroke="none"/>
    <path d="M-153.35 204.25 L-151.65 203.4 -150.05 206.55 -151.8 207.4 -153.35 204.25" fill="#6f6f6f" fill-rule="evenodd" stroke="none"/>
    <path d="M-156.35 211.7 L-151.8 210.35 -151.25 212.25 -155.8 213.6 -156.35 211.7" fill="#6f6f6f" fill-rule="evenodd" stroke="none"/>
    <path d="M-110.9 288.05 L-108.65 295.6 -115.0 297.5 -117.25 289.95 -110.9 288.05" fill="#6f6f6f" fill-rule="evenodd" stroke="none"/>
    <path d="M-97.2 335.05 L-103.55 337.05 -105.9 329.55 -99.6 327.55 -97.2 335.05" fill="#6f6f6f" fill-rule="evenodd" stroke="none"/>
    <path d="M-91.85 383.55 L-94.1 376.0 -87.75 374.1 -85.5 381.65 -91.85 383.55" fill="#6f6f6f" fill-rule="evenodd" stroke="none"/>
    <path d="M-85.25 396.45 L-87.0 389.5 -83.05 388.5 -81.3 395.45 -85.25 396.45" fill="#6f6f6f" fill-rule="evenodd" stroke="none"/>
    <path d="M-87.95 389.95 L-89.25 388.45 -85.55 385.2 -84.3 386.7 -87.95 389.95" fill="#6f6f6f" fill-rule="evenodd" stroke="none"/>
    <path d="M-84.3 383.6 L-87.95 386.85 -89.25 385.35 -85.6 382.1 -84.3 383.6" fill="#6f6f6f" fill-rule="evenodd" stroke="none"/>
    <path d="M-82.3 407.25 L-83.15 405.5 -79.9 404.0 -79.1 405.75 -82.3 407.25" fill="#6f6f6f" fill-rule="evenodd" stroke="none"/>
    <path d="M-98.4 426.65 L-100.9 418.85 -94.7 416.9 -92.2 424.65 -98.4 426.65" fill="#6f6f6f" fill-rule="evenodd" stroke="none"/>
    <path d="M-95.9 435.0 L-98.4 427.25 -92.2 425.25 -89.7 433.05 -95.9 435.0" fill="#6f6f6f" fill-rule="evenodd" stroke="none"/>
    <path d="M-83.35 403.9 L-85.15 397.0 -81.2 396.0 -79.4 402.9 -83.35 403.9" fill="#6f6f6f" fill-rule="evenodd" stroke="none"/>
    <path d="M-112.8 370.7 L-115.85 364.4 -112.1 362.6 -109.1 368.9 -112.8 370.7" fill="#6f6f6f" fill-rule="evenodd" stroke="none"/>
    <path d="M-109.25 363.45 L-107.7 366.65 -109.45 367.45 -110.95 364.3 -109.25 363.45" fill="#6f6f6f" fill-rule="evenodd" stroke="none"/>
    <path d="M-112.75 371.15 L-108.25 369.75 -107.75 371.5 -112.25 372.9 -112.75 371.15" fill="#6f6f6f" fill-rule="evenodd" stroke="none"/>
    <path d="M-118.9 299.2 L-107.25 297.3 -105.35 309.15 -117.0 311.05 -118.9 299.2" fill="#6f6f6f" fill-rule="evenodd" stroke="none"/>
    <path d="M-114.25 312.75 L-104.1 310.0 -99.7 326.45 -109.85 329.15 -114.25 312.75" fill="#6f6f6f" fill-rule="evenodd" stroke="none"/>
    <path d="M-170.2 82.95 L-170.7 81.95 -170.3 80.9 -169.3 80.45 -168.25 80.85 -167.8 81.85 -168.15 82.85 -169.2 83.35 -170.2 82.95" fill="#6f6f6f" fill-rule="evenodd" stroke="none"/>
    <path d="M-171.35 85.75 L-171.8 84.75 -171.4 83.75 -170.4 83.25 -169.35 83.65 -168.9 84.65 -169.3 85.7 -170.3 86.15 -171.35 85.75" fill="#6f6f6f" fill-rule="evenodd" stroke="none"/>
    <path d="M-149.95 162.35 L-148.9 161.9 -147.9 162.25 -147.4 163.25 -147.8 164.3 -148.8 164.75 -149.85 164.4 -150.3 163.4 -149.95 162.35" fill="#6f6f6f" fill-rule="evenodd" stroke="none"/>
    <path d="M-149.3 167.5 L-149.75 166.5 -149.4 165.45 -148.4 165.0 -147.35 165.4 -146.9 166.4 -147.25 167.45 -148.25 167.9 -149.3 167.5" fill="#6f6f6f" fill-rule="evenodd" stroke="none"/>
    <path d="M-159.15 185.1 L-159.65 184.1 -159.25 183.05 -158.25 182.6 -157.2 183.0 -156.75 184.0 -157.1 185.05 -158.1 185.5 -159.15 185.1" fill="#6f6f6f" fill-rule="evenodd" stroke="none"/>
    <path d="M-156.25 187.25 L-156.65 188.3 -157.65 188.75 -158.7 188.35 -159.15 187.35 -158.75 186.3 -157.75 185.85 -156.7 186.25 -156.25 187.25" fill="#6f6f6f" fill-rule="evenodd" stroke="none"/>
    <path d="M-136.9 269.35 L-137.35 268.35 -136.95 267.3 -135.95 266.85 -134.95 267.2 -134.45 268.25 -134.85 269.25 -135.85 269.75 -136.9 269.35" fill="#6f6f6f" fill-rule="evenodd" stroke="none"/>
    <path d="M-140.3 269.95 L-140.75 268.95 -140.4 267.9 -139.35 267.45 -138.35 267.85 -137.85 268.85 -138.25 269.9 -139.25 270.35 -140.3 269.95" fill="#6f6f6f" fill-rule="evenodd" stroke="none"/>
    <path d="M-139.85 273.0 L-140.35 272.0 -139.95 270.95 -138.95 270.5 -137.9 270.9 -137.45 271.9 -137.85 272.95 -138.85 273.4 -139.85 273.0" fill="#6f6f6f" fill-rule="evenodd" stroke="none"/>
    <path d="M-136.4 272.6 L-136.9 271.6 -136.5 270.55 Q-136.0 270.35 -135.5 270.1 L-134.45 270.45 -134.0 271.45 -134.35 272.5 -135.4 272.95 -136.4 272.6" fill="#6f6f6f" fill-rule="evenodd" stroke="none"/>
    <path d="M-114.1 284.15 L-114.55 283.15 -114.15 282.1 -113.15 281.65 -112.15 282.0 -111.65 283.05 -112.05 284.05 -113.05 284.55 -114.1 284.15" fill="#6f6f6f" fill-rule="evenodd" stroke="none"/>
    <path d="M-111.4 286.25 L-111.8 287.25 -112.8 287.75 -113.85 287.35 -114.3 286.35 -113.9 285.3 -112.9 284.85 -111.85 285.2 -111.4 286.25" fill="#6f6f6f" fill-rule="evenodd" stroke="none"/>
    <path d="M-90.8 370.4 L-91.25 369.4 -90.9 368.35 -89.9 367.9 -88.85 368.3 -88.4 369.3 -88.75 370.35 -89.75 370.8 -90.8 370.4" fill="#6f6f6f" fill-rule="evenodd" stroke="none"/>
    <path d="M-90.65 373.55 L-91.1 372.5 -90.7 371.5 -89.7 371.0 -88.65 371.4 -88.2 372.4 -88.6 373.45 -89.6 373.9 -90.65 373.55" fill="#6f6f6f" fill-rule="evenodd" stroke="none"/>
    <path d="M-103.7 408.1 L-104.15 407.05 -103.75 406.05 -102.75 405.55 -101.7 405.95 -101.25 406.95 -101.65 408.0 -102.65 408.45 -103.7 408.1" fill="#6f6f6f" fill-rule="evenodd" stroke="none"/>
    <path d="M-102.5 411.15 L-103.0 410.15 -102.6 409.1 -101.6 408.65 -100.55 409.05 -100.1 410.05 -100.5 411.1 -101.5 411.55 -102.5 411.15" fill="#6f6f6f" fill-rule="evenodd" stroke="none"/>
    <path d="M-101.7 414.55 L-102.2 413.55 -101.8 412.5 -100.8 412.05 -99.75 412.45 -99.3 413.45 -99.7 414.5 -100.7 414.95 -101.7 414.55" fill="#6f6f6f" fill-rule="evenodd" stroke="none"/>
    <path d="M-100.25 417.2 L-100.7 416.2 -100.3 415.15 -99.3 414.7 -98.3 415.1 -97.8 416.1 -98.2 417.15 -99.2 417.6 -100.25 417.2" fill="#6f6f6f" fill-rule="evenodd" stroke="none"/>
    <path d="M-159.8 187.8 L-160.15 188.85 -161.15 189.3 -162.2 188.9 -162.7 187.9 -162.3 186.85 -161.3 186.4 -160.25 186.8 -159.8 187.8" fill="#6f6f6f" fill-rule="evenodd" stroke="none"/>
    <path d="M-162.7 185.65 L-163.15 184.65 -162.75 183.6 -161.75 183.15 -160.7 183.55 -160.25 184.55 -160.65 185.6 -161.65 186.05 -162.7 185.65" fill="#6f6f6f" fill-rule="evenodd" stroke="none"/>
    <path d="M-145.95 166.8 L-146.4 165.8 -146.0 164.75 -145.0 164.3 -143.95 164.7 -143.5 165.7 -143.9 166.7 -144.9 167.2 -145.95 166.8" fill="#6f6f6f" fill-rule="evenodd" stroke="none"/>
    <path d="M-146.4 163.65 L-146.85 162.65 -146.45 161.6 -145.45 161.15 -144.4 161.55 -143.95 162.55 -144.35 163.55 -145.35 164.05 -146.4 163.65" fill="#6f6f6f" fill-rule="evenodd" stroke="none"/>
    <path d="M-167.0 85.0 L-167.45 84.0 -167.05 82.95 -166.05 82.5 -165.0 82.85 -164.55 83.9 -164.95 84.9 -165.95 85.4 -167.0 85.0" fill="#6f6f6f" fill-rule="evenodd" stroke="none"/>
    <path d="M-168.65 87.65 L-169.1 86.6 -168.75 85.6 -167.7 85.1 -166.7 85.5 -166.2 86.5 -166.6 87.55 -167.6 88.0 -168.65 87.65" fill="#6f6f6f" fill-rule="evenodd" stroke="none"/>
    <path d="M-169.7 79.0 L-170.15 78.0 -169.75 76.95 -168.75 76.5 -167.75 76.9 -167.25 77.9 -167.65 78.95 -168.65 79.4 -169.7 79.0" fill="#6f6f6f" fill-rule="evenodd" stroke="none"/>
    <path d="M-172.95 79.25 L-173.4 78.25 -173.0 77.2 -172.0 76.75 -170.95 77.1 -170.5 78.15 -170.9 79.15 -171.9 79.65 -172.95 79.25" fill="#6f6f6f" fill-rule="evenodd" stroke="none"/>
    <path d="M-172.35 75.5 L-172.85 74.5 -172.45 73.45 -171.45 73.0 -170.4 73.4 -169.95 74.4 -170.3 75.45 -171.35 75.9 -172.35 75.5" fill="#6f6f6f" fill-rule="evenodd" stroke="none"/>
    <path d="M-169.3 75.95 L-169.75 74.9 -169.4 73.9 -168.4 73.4 -167.35 73.8 -166.9 74.8 -167.25 75.85 -168.25 76.3 -169.3 75.95" fill="#6f6f6f" fill-rule="evenodd" stroke="none"/>
    <path d="M345.3 827.2 L344.75 825.15 349.35 823.9 349.9 825.95 345.3 827.2" fill="#6f6f6f" fill-rule="evenodd" stroke="none"/>
    <path d="M352.15 821.8 L355.25 821.0 355.9 823.45 352.8 824.3 352.15 821.8" fill="#ffffff" fill-rule="evenodd" stroke="none"/>
    <path d="M206.2 283.8 L188.8 288.45 185.7 276.85 203.1 272.2 206.2 283.8" fill="#ffffff" fill-rule="evenodd" stroke="none"/>
    <path d="M184.7 273.15 L181.7 262.0 199.9 257.1 202.9 268.25 184.7 273.15" fill="#ffffff" fill-rule="evenodd" stroke="none"/>
    <path d="M162.6 301.5 L161.85 298.6 163.8 298.1 164.55 301.0 162.6 301.5" fill="#ffffff" fill-rule="evenodd" stroke="none"/>
    <path d="M240.5 275.45 L239.7 272.4 241.85 271.8 242.65 274.85 240.5 275.45" fill="#ffffff" fill-rule="evenodd" stroke="none"/>
    <path d="M255.3 350.15 L256.35 354.2 254.05 354.85 253.0 350.75 255.3 350.15" fill="#ffffff" fill-rule="evenodd" stroke="none"/>
    <path d="M189.0 370.85 L187.9 366.65 190.05 366.1 191.15 370.25 189.0 370.85" fill="#ffffff" fill-rule="evenodd" stroke="none"/>
  </g>
</svg>
