<?xml version="1.0" encoding="UTF-8" standalone="no"?>
<svg xmlns:ffdec="https://www.free-decompiler.com/flash" xmlns:xlink="http://www.w3.org/1999/xlink" ffdec:objectType="shape" height="863.25px" width="722.25px" xmlns="http://www.w3.org/2000/svg">
  <g transform="matrix(1.0, 0.0, 0.0, 1.0, 624.75, -12.75)">
    <path d="M-34.0 354.0 L-29.0 355.25 -65.25 490.75 -70.25 489.5 -69.5 486.25 -65.5 487.5 -30.75 358.25 -34.75 357.25 Q-34.25 355.75 -34.0 354.0" fill="#6f6f6f" fill-rule="evenodd" stroke="none"/>
    <path d="M10.5 187.75 L15.5 189.25 -22.5 331.5 -27.5 330.25 -26.75 327.0 -22.75 328.0 13.75 192.25 9.75 191.0 10.5 187.75" fill="#6f6f6f" fill-rule="evenodd" stroke="none"/>
    <path d="M-333.5 109.25 L-329.0 99.75 -316.25 92.25 -294.25 98.0 -295.5 102.5 -298.25 101.75 -297.25 98.25 -316.25 93.25 -328.5 100.75 -332.25 109.25 Q-332.25 109.75 -332.5 110.25 L-333.5 119.5 -326.75 132.0 -307.75 137.0 -306.75 133.5 -304.0 134.25 -305.25 138.75 -327.25 132.75 -334.5 120.0 -333.5 109.25" fill="#6f6f6f" fill-rule="evenodd" stroke="none"/>
    <path d="M-343.75 280.0 L-344.75 284.5 -347.5 283.75 -346.75 280.25 -365.5 275.25 -377.75 282.5 -381.5 291.0 -381.75 292.0 -382.75 301.25 -376.0 313.75 -357.0 319.0 -356.0 315.5 -353.25 316.25 Q-353.75 318.5 -354.5 320.75 L-376.5 314.75 -383.75 302.0 -382.75 291.25 -378.25 281.75 -365.75 274.0 -343.75 280.0" fill="#6f6f6f" fill-rule="evenodd" stroke="none"/>
    <path d="M-130.0 297.25 L-139.25 294.75 Q-138.25 291.75 -137.5 288.75 L-128.25 291.0 Q-129.0 294.25 -130.0 297.25" fill="#424242" fill-rule="evenodd" stroke="none"/>
    <path d="M-97.5 140.75 L-86.0 143.75 Q-86.75 147.0 -87.75 150.0 L-99.0 146.75 -97.5 140.75" fill="#424242" fill-rule="evenodd" stroke="none"/>
    <path d="M-210.0 210.0 Q-209.5 208.75 -209.25 207.25 L-205.75 208.5 -206.5 211.0 -210.0 210.0" fill="#424242" fill-rule="evenodd" stroke="none"/>
    <path d="M96.0 124.5 L97.5 124.75 43.25 327.75 41.75 327.25 96.0 124.5" fill="#424242" fill-rule="evenodd" stroke="none"/>
    <path d="M29.0 375.0 L30.5 375.5 -18.0 556.5 -19.5 556.25 29.0 375.0" fill="#424242" fill-rule="evenodd" stroke="none"/>
    <path d="M-33.75 609.25 L-32.25 609.75 Q-36.0 624.25 -40.0 638.5 L-41.5 638.0 -33.75 609.25" fill="#424242" fill-rule="evenodd" stroke="none"/>
    <path d="M-305.0 875.75 Q-304.75 875.25 -304.75 874.5 L-303.5 874.75 Q-303.5 875.5 -303.75 876.0 L-305.0 875.75" fill="#424242" fill-rule="evenodd" stroke="none"/>
    <path d="M-346.25 865.0 L-347.25 864.5 -347.0 863.5 -345.75 863.75 -346.25 865.0" fill="#424242" fill-rule="evenodd" stroke="none"/>
    <path d="M-343.5 865.5 Q-343.25 865.0 -343.25 864.25 L-342.0 864.5 Q-342.0 865.25 -342.25 865.75 L-343.5 865.5" fill="#424242" fill-rule="evenodd" stroke="none"/>
    <path d="M-308.75 874.5 L-310.0 874.5 Q-309.75 874.0 -309.75 873.25 L-308.75 873.25 -308.75 874.5" fill="#424242" fill-rule="evenodd" stroke="none"/>
    <path d="M-266.25 744.75 L-267.5 744.5 -267.5 743.25 -266.25 743.5 -266.25 744.75" fill="#424242" fill-rule="evenodd" stroke="none"/>
    <path d="M-262.25 731.0 L-263.5 730.75 Q-263.25 730.25 -263.25 729.5 L-262.0 729.75 Q-262.0 730.5 -262.25 731.0" fill="#424242" fill-rule="evenodd" stroke="none"/>
    <path d="M-259.0 718.0 L-260.25 717.75 Q-260.0 717.25 -260.0 716.5 L-258.75 716.75 Q-258.75 717.5 -259.0 718.0" fill="#424242" fill-rule="evenodd" stroke="none"/>
    <path d="M-192.0 750.75 L-193.25 750.25 -193.0 749.25 -191.75 749.5 Q-191.75 750.25 -192.0 750.75" fill="#424242" fill-rule="evenodd" stroke="none"/>
    <path d="M-194.25 759.0 L-195.5 758.5 Q-195.25 758.0 -195.25 757.25 L-194.0 757.75 Q-194.0 758.5 -194.25 759.0" fill="#424242" fill-rule="evenodd" stroke="none"/>
    <path d="M-199.5 747.5 L-199.75 748.5 -201.0 748.25 Q-200.75 747.75 -200.75 747.0 L-199.5 747.5" fill="#424242" fill-rule="evenodd" stroke="none"/>
    <path d="M-202.0 756.75 L-203.25 756.5 -202.75 755.25 -201.75 755.75 -202.0 756.75" fill="#424242" fill-rule="evenodd" stroke="none"/>
    <path d="M-12.25 580.0 L-13.25 579.75 Q-13.0 579.25 -13.0 578.5 L-11.75 579.0 -12.25 580.0" fill="#424242" fill-rule="evenodd" stroke="none"/>
    <path d="M-21.0 577.75 L-22.25 577.5 -21.75 576.25 -20.75 576.5 Q-20.75 577.25 -21.0 577.75" fill="#424242" fill-rule="evenodd" stroke="none"/>
    <path d="M-28.25 569.0 Q-28.25 569.5 -28.5 570.0 L-29.75 569.75 Q-29.5 569.25 -29.5 568.5 L-28.25 569.0" fill="#424242" fill-rule="evenodd" stroke="none"/>
    <path d="M-33.25 582.75 L-32.0 583.0 -32.5 584.25 -33.5 584.0 Q-33.25 583.5 -33.25 582.75" fill="#424242" fill-rule="evenodd" stroke="none"/>
    <path d="M-16.0 594.25 L-17.25 594.0 -16.75 592.75 -15.5 593.0 -16.0 594.25" fill="#424242" fill-rule="evenodd" stroke="none"/>
    <path d="M-24.75 592.0 L-26.0 591.5 -25.75 590.5 -24.5 590.75 Q-24.5 591.5 -24.75 592.0" fill="#424242" fill-rule="evenodd" stroke="none"/>
    <path d="M-52.75 438.75 L-53.75 442.25 -57.25 441.25 -56.25 438.0 -52.75 438.75" fill="#424242" fill-rule="evenodd" stroke="none"/>
    <path d="M-70.75 401.0 L-69.75 397.5 -66.25 398.5 -67.25 401.75 -70.75 401.0" fill="#424242" fill-rule="evenodd" stroke="none"/>
    <path d="M-63.75 389.25 L-64.75 392.5 -68.25 391.5 -67.25 388.25 -63.75 389.25" fill="#424242" fill-rule="evenodd" stroke="none"/>
    <path d="M56.5 268.25 L53.0 267.5 54.0 264.0 57.5 265.0 56.5 268.25" fill="#424242" fill-rule="evenodd" stroke="none"/>
    <path d="M11.5 571.0 L8.0 570.0 9.0 566.75 12.25 567.5 11.5 571.0" fill="#424242" fill-rule="evenodd" stroke="none"/>
    <path d="M-594.75 24.0 L-591.0 24.0 -591.0 28.0 -594.75 27.75 -594.75 24.0" fill="#424242" fill-rule="evenodd" stroke="none"/>
    <path d="M-119.0 647.25 L-115.75 648.25 Q-116.0 650.0 -116.5 651.5 L-120.0 650.75 -119.0 647.25" fill="#424242" fill-rule="evenodd" stroke="none"/>
    <path d="M40.0 46.25 L41.0 42.75 44.5 43.75 43.5 47.25 40.0 46.25" fill="#424242" fill-rule="evenodd" stroke="none"/>
    <path d="M-15.25 577.5 L-15.5 577.5 -16.0 579.0 -14.5 579.5 -18.0 592.5 -23.5 591.0 -20.0 578.0 -18.25 578.5 -18.0 577.0 -18.25 576.5 Q-18.0 576.0 -18.0 575.25 L-16.75 574.5 -15.5 575.0 -14.75 576.0 -15.25 577.5" fill="#424242" fill-rule="evenodd" stroke="none"/>
    <path d="M-258.75 640.5 L-255.75 628.5 -230.5 635.5 -231.5 639.5 -228.75 640.0 -227.5 639.5 -225.0 640.0 -224.0 642.5 -224.75 645.0 Q-225.75 645.75 -227.0 646.25 L-229.5 645.75 -229.75 645.0 -232.75 644.25 -233.5 647.25 -258.75 640.5" fill="#424242" fill-rule="evenodd" stroke="none"/>
    <path d="M-159.75 385.75 L-157.25 386.5 -156.0 389.0 -156.75 391.5 Q-157.75 392.25 -159.0 392.75 L-161.5 392.0 -161.75 391.5 -164.75 390.5 Q-165.0 392.25 -165.5 393.75 L-191.0 387.0 -187.75 375.0 -171.0 379.5 -170.0 375.5 -165.5 376.75 -166.5 380.75 -162.5 381.75 -163.5 385.75 -161.0 386.5 -159.75 385.75" fill="#424242" fill-rule="evenodd" stroke="none"/>
    <path d="M-127.25 249.0 L-128.25 253.0 -125.75 253.75 -124.5 253.0 -122.0 253.75 -120.75 256.25 -121.5 258.75 Q-122.5 259.5 -123.75 260.0 L-126.25 259.25 -126.5 258.75 -129.5 257.75 -130.5 261.0 -155.5 254.25 -156.0 256.0 -168.25 252.75 -167.25 248.75 -155.0 252.0 -152.5 242.25 -127.25 249.0" fill="#424242" fill-rule="evenodd" stroke="none"/>
    <path d="M-26.25 571.25 L-26.75 573.5 -29.25 573.0 -28.75 570.5 -26.25 571.25" fill="#424242" fill-rule="evenodd" stroke="none"/>
    <path d="M-29.0 580.75 L-29.75 583.0 -32.0 582.5 -31.5 580.0 -29.0 580.75" fill="#424242" fill-rule="evenodd" stroke="none"/>
    <path d="M-93.5 568.75 Q-93.25 568.25 -93.25 567.75 L-92.0 568.0 Q-92.0 568.75 -92.25 569.25 L-93.5 568.75" fill="#424242" fill-rule="evenodd" stroke="none"/>
    <path d="M-77.5 510.0 L-78.75 509.75 Q-78.5 509.25 -78.5 508.5 L-77.25 508.75 Q-77.25 509.5 -77.5 510.0" fill="#424242" fill-rule="evenodd" stroke="none"/>
    <path d="M-74.75 495.0 L-73.75 495.25 Q-73.75 496.0 -74.0 496.5 L-75.25 496.0 -74.75 495.0" fill="#424242" fill-rule="evenodd" stroke="none"/>
    <path d="M-69.75 510.75 Q-69.75 511.5 -70.0 512.0 L-71.25 511.75 Q-71.0 511.25 -71.0 510.5 L-69.75 510.75" fill="#424242" fill-rule="evenodd" stroke="none"/>
    <path d="M-178.5 469.0 Q-178.5 469.75 -178.75 470.25 L-180.0 469.75 -179.75 468.75 -178.5 469.0" fill="#424242" fill-rule="evenodd" stroke="none"/>
    <path d="M-177.5 469.25 L-176.25 469.5 -176.75 470.75 -177.75 470.5 Q-177.5 470.0 -177.5 469.25" fill="#424242" fill-rule="evenodd" stroke="none"/>
    <path d="M-67.25 496.75 L-66.0 497.25 -66.5 498.25 -67.75 498.0 -67.25 496.75" fill="#424242" fill-rule="evenodd" stroke="none"/>
    <path d="M-110.25 421.25 Q-110.25 422.0 -110.5 422.5 L-111.75 422.0 -111.5 421.0 -110.25 421.25" fill="#424242" fill-rule="evenodd" stroke="none"/>
    <path d="M-101.25 423.5 Q-101.25 424.25 -101.5 424.75 L-102.75 424.5 Q-102.5 424.0 -102.5 423.25 L-101.25 423.5" fill="#424242" fill-rule="evenodd" stroke="none"/>
    <path d="M-144.25 559.75 L-143.0 560.0 Q-143.0 560.75 -143.25 561.25 L-144.5 561.0 Q-144.25 560.5 -144.25 559.75" fill="#424242" fill-rule="evenodd" stroke="none"/>
    <path d="M-142.0 552.5 L-140.75 552.75 -141.25 554.0 -142.5 553.75 -142.0 552.5" fill="#424242" fill-rule="evenodd" stroke="none"/>
    <path d="M-91.75 553.75 L-89.75 554.25 Q-89.5 554.0 -89.5 553.5 L-88.25 553.75 Q-88.25 554.5 -88.5 555.0 L-89.5 554.75 -89.75 556.75 -92.25 556.0 -91.75 553.75" fill="#424242" fill-rule="evenodd" stroke="none"/>
    <path d="M-91.75 563.75 L-92.5 566.25 -94.75 565.75 -94.25 563.25 -91.75 563.75" fill="#424242" fill-rule="evenodd" stroke="none"/>
    <path d="M-107.0 549.5 L-107.75 552.0 -110.25 551.25 -109.5 548.75 -107.0 549.5" fill="#424242" fill-rule="evenodd" stroke="none"/>
    <path d="M-109.75 559.0 L-110.25 561.5 -112.75 560.75 Q-112.25 559.75 -112.0 558.5 L-109.75 559.0" fill="#424242" fill-rule="evenodd" stroke="none"/>
    <path d="M31.0 419.5 L30.5 420.75 29.25 420.5 29.75 419.25 31.0 419.5" fill="#424242" fill-rule="evenodd" stroke="none"/>
    <path d="M20.75 416.75 L22.0 417.25 21.75 418.25 20.5 418.0 20.75 416.75" fill="#424242" fill-rule="evenodd" stroke="none"/>
    <path d="M13.0 410.0 L13.25 408.75 14.5 409.0 14.25 410.25 13.0 410.0" fill="#424242" fill-rule="evenodd" stroke="none"/>
    <path d="M9.25 424.0 L9.5 422.75 10.75 423.25 10.5 424.25 9.25 424.0" fill="#424242" fill-rule="evenodd" stroke="none"/>
    <path d="M26.75 435.0 L25.5 434.5 26.0 433.5 27.0 433.75 26.75 435.0" fill="#424242" fill-rule="evenodd" stroke="none"/>
    <path d="M18.0 432.5 L16.75 432.25 17.0 431.0 18.25 431.25 18.0 432.5" fill="#424242" fill-rule="evenodd" stroke="none"/>
    <path d="M27.25 415.5 L27.75 416.75 27.5 418.0 27.25 418.25 26.75 419.75 28.25 420.25 24.75 433.0 19.25 431.75 22.75 418.75 24.5 419.0 24.75 417.75 24.5 417.0 24.75 415.75 26.0 415.25 27.25 415.5" fill="#424242" fill-rule="evenodd" stroke="none"/>
    <path d="M13.5 413.0 L14.25 410.75 16.5 411.25 16.0 413.75 13.5 413.0" fill="#424242" fill-rule="evenodd" stroke="none"/>
    <path d="M10.75 422.5 L11.5 420.25 13.75 420.75 13.25 423.25 10.75 422.5" fill="#424242" fill-rule="evenodd" stroke="none"/>
    <path d="M-49.0 392.0 L-47.75 392.25 Q-47.75 393.0 -48.0 393.5 L-49.25 393.0 -49.0 392.0" fill="#424242" fill-rule="evenodd" stroke="none"/>
    <path d="M-51.5 406.25 L-52.0 407.5 -53.0 407.25 Q-52.75 406.75 -52.75 406.0 L-51.5 406.25" fill="#424242" fill-rule="evenodd" stroke="none"/>
    <path d="M-49.5 393.5 L-50.25 396.0 -52.5 395.25 -52.0 392.75 -49.5 393.5" fill="#424242" fill-rule="evenodd" stroke="none"/>
    <path d="M-55.0 405.0 L-54.25 402.5 -51.75 403.25 Q-52.0 404.5 -52.5 405.5 L-55.0 405.0" fill="#424242" fill-rule="evenodd" stroke="none"/>
    <path d="M74.0 253.5 L75.25 253.75 75.0 255.0 73.75 254.75 74.0 253.5" fill="#424242" fill-rule="evenodd" stroke="none"/>
    <path d="M65.25 251.25 L66.5 251.5 66.0 252.75 65.0 252.5 65.25 251.25" fill="#424242" fill-rule="evenodd" stroke="none"/>
    <path d="M59.0 243.25 L58.75 244.5 57.5 244.25 57.75 243.0 59.0 243.25" fill="#424242" fill-rule="evenodd" stroke="none"/>
    <path d="M55.25 257.5 L54.75 258.75 53.75 258.5 54.0 257.25 55.25 257.5" fill="#424242" fill-rule="evenodd" stroke="none"/>
    <path d="M71.5 268.0 L71.25 269.25 70.0 269.0 70.25 267.75 71.5 268.0" fill="#424242" fill-rule="evenodd" stroke="none"/>
    <path d="M61.5 265.25 L62.75 265.75 62.25 267.0 61.0 266.5 61.5 265.25" fill="#424242" fill-rule="evenodd" stroke="none"/>
    <path d="M70.25 249.5 L71.5 250.0 72.25 251.0 72.0 252.25 71.5 252.5 71.25 254.0 72.75 254.5 69.25 267.5 63.5 266.0 67.0 253.0 68.75 253.5 69.25 252.0 68.75 251.5 69.25 250.25 70.25 249.5" fill="#424242" fill-rule="evenodd" stroke="none"/>
    <path d="M58.0 247.5 L58.5 245.0 61.0 245.75 60.25 248.0 58.0 247.5" fill="#424242" fill-rule="evenodd" stroke="none"/>
    <path d="M58.25 255.25 L57.5 257.5 55.25 257.0 55.75 254.5 58.25 255.25" fill="#424242" fill-rule="evenodd" stroke="none"/>
    <path d="M-179.25 703.0 L-178.25 698.75 -173.75 700.0 -174.75 704.25 -179.25 703.0" fill="#424242" fill-rule="evenodd" stroke="none"/>
    <path d="M-185.25 703.25 L-184.0 699.25 -179.5 700.25 -180.75 704.5 -185.25 703.25" fill="#424242" fill-rule="evenodd" stroke="none"/>
    <path d="M-199.25 749.25 L-193.75 750.75 -195.25 756.5 -200.75 755.0 -199.25 749.25" fill="#424242" fill-rule="evenodd" stroke="none"/>
    <path d="M-203.5 694.75 L-202.5 695.0 Q-202.5 695.75 -202.75 696.25 L-204.0 696.0 -203.5 694.75" fill="#424242" fill-rule="evenodd" stroke="none"/>
    <path d="M-175.25 689.5 L-174.0 689.75 -174.5 691.0 -175.5 690.75 Q-175.25 690.25 -175.25 689.5" fill="#424242" fill-rule="evenodd" stroke="none"/>
    <path d="M-170.25 675.75 Q-170.25 676.5 -170.5 677.0 L-171.75 676.75 -171.25 675.5 -170.25 675.75" fill="#424242" fill-rule="evenodd" stroke="none"/>
    <path d="M-168.0 661.5 L-166.75 662.0 Q-166.75 662.75 -167.0 663.25 L-168.25 662.75 Q-168.0 662.25 -168.0 661.5" fill="#424242" fill-rule="evenodd" stroke="none"/>
    <path d="M-163.75 644.0 L-165.0 643.75 -164.5 642.5 -163.25 642.75 -163.75 644.0" fill="#424242" fill-rule="evenodd" stroke="none"/>
    <path d="M-160.25 630.5 L-161.5 630.25 Q-161.25 629.75 -161.25 629.0 L-160.0 629.25 Q-160.0 630.0 -160.25 630.5" fill="#424242" fill-rule="evenodd" stroke="none"/>
    <path d="M-152.75 612.5 Q-152.75 613.25 -153.0 613.75 L-154.25 613.5 Q-154.0 613.0 -154.0 612.25 L-152.75 612.5" fill="#424242" fill-rule="evenodd" stroke="none"/>
    <path d="M-150.25 603.75 Q-150.25 604.5 -150.5 605.0 L-151.75 604.75 -151.25 603.5 -150.25 603.75" fill="#424242" fill-rule="evenodd" stroke="none"/>
    <path d="M-149.0 572.75 L-149.5 574.0 -150.75 573.75 -150.25 572.5 -149.0 572.75" fill="#424242" fill-rule="evenodd" stroke="none"/>
    <path d="M-230.75 677.75 Q-230.5 677.25 -230.5 676.5 L-229.25 676.75 Q-229.25 677.5 -229.5 678.0 L-230.75 677.75" fill="#424242" fill-rule="evenodd" stroke="none"/>
    <path d="M-227.75 666.25 Q-227.5 665.75 -227.5 665.0 L-226.25 665.25 -226.75 666.5 -227.75 666.25" fill="#424242" fill-rule="evenodd" stroke="none"/>
    <path d="M-194.75 697.25 L-193.5 697.5 -194.0 698.75 -195.0 698.25 -194.75 697.25" fill="#424242" fill-rule="evenodd" stroke="none"/>
    <path d="M-233.0 692.0 L-231.25 686.25 -226.0 687.5 -227.5 693.5 -233.0 692.0" fill="#424242" fill-rule="evenodd" stroke="none"/>
    <path d="M-248.75 707.0 L-198.75 720.0 -203.25 737.5 -253.25 724.75 -248.75 707.0" fill="#424242" fill-rule="evenodd" stroke="none"/>
    <path d="M-370.25 671.75 L-374.75 687.0 -422.0 673.0 -417.5 657.75 -370.25 671.75" fill="#424242" fill-rule="evenodd" stroke="none"/>
    <path d="M-246.25 681.25 L-248.0 688.0 -259.25 685.0 -257.25 678.25 -246.25 681.25" fill="#424242" fill-rule="evenodd" stroke="none"/>
    <path d="M-251.5 667.5 L-253.75 675.5 -263.0 673.0 Q-261.75 669.25 -260.75 665.25 L-251.5 667.5" fill="#424242" fill-rule="evenodd" stroke="none"/>
    <path d="M-291.0 676.75 L-298.0 675.0 -296.5 668.75 -289.25 670.5 Q-290.0 673.75 -291.0 676.75" fill="#424242" fill-rule="evenodd" stroke="none"/>
    <path d="M-329.75 659.75 Q-330.5 663.0 -331.5 666.0 L-359.0 658.5 Q-358.0 655.5 -357.25 652.25 L-329.75 659.75" fill="#424242" fill-rule="evenodd" stroke="none"/>
    <path d="M-287.75 666.75 L-290.0 666.0 -288.0 658.25 -280.75 660.25 -282.75 668.0 -283.75 667.75 -286.75 678.25 -254.75 686.75 -303.5 869.0 -304.0 869.0 -305.75 875.5 -308.25 874.75 Q-307.25 871.5 -306.5 868.25 L-342.0 858.75 Q-342.75 862.0 -343.75 865.0 L-345.5 864.5 Q-344.5 861.5 -343.75 858.25 L-344.5 858.0 -295.5 675.75 -290.5 677.25 -287.75 666.75" fill="#424242" fill-rule="evenodd" stroke="none"/>
    <path d="M-172.75 705.5 L-173.25 705.25 -171.75 699.75 -177.75 698.25 Q-177.5 698.0 -177.5 697.5 L-171.0 699.25 -172.75 705.5" fill="#424242" fill-rule="evenodd" stroke="none"/>
    <path d="M-143.0 594.5 L-144.75 600.75 -151.0 599.25 -149.5 592.75 -143.0 594.5" fill="#424242" fill-rule="evenodd" stroke="none"/>
    <path d="M-196.5 577.75 L-198.0 583.25 -203.25 581.75 -202.0 576.25 -196.5 577.75" fill="#424242" fill-rule="evenodd" stroke="none"/>
    <path d="M-205.25 508.5 Q-205.75 511.25 -206.5 513.75 L-212.0 512.5 -210.5 507.0 -205.25 508.5" fill="#424242" fill-rule="evenodd" stroke="none"/>
    <path d="M-233.5 470.75 L-227.75 472.25 -228.75 476.0 -234.5 474.5 -233.5 470.75" fill="#424242" fill-rule="evenodd" stroke="none"/>
    <path d="M-213.25 476.75 L-214.25 480.5 -227.0 477.0 -226.0 473.25 -213.25 476.75" fill="#424242" fill-rule="evenodd" stroke="none"/>
    <path d="M-186.5 554.0 L-187.5 557.5 -191.0 556.5 -190.0 553.0 -186.5 554.0" fill="#424242" fill-rule="evenodd" stroke="none"/>
    <path d="M-120.5 482.0 L-119.0 476.5 -113.5 478.0 -115.0 483.5 -120.5 482.0" fill="#424242" fill-rule="evenodd" stroke="none"/>
    <path d="M-218.25 575.0 L-219.75 580.5 -225.25 579.0 -224.5 576.25 -228.75 575.0 -227.25 569.75 -221.75 571.0 Q-222.0 572.5 -222.5 573.75 L-218.25 575.0" fill="#424242" fill-rule="evenodd" stroke="none"/>
    <path d="M-176.25 401.0 L-181.75 399.5 -180.25 394.0 -174.75 395.5 -176.25 401.0" fill="#424242" fill-rule="evenodd" stroke="none"/>
    <path d="M-91.75 396.5 L-92.75 400.75 -98.25 399.25 Q-97.5 397.25 -97.0 395.0 L-91.75 396.5" fill="#424242" fill-rule="evenodd" stroke="none"/>
    <path d="M-109.75 418.75 L-108.25 413.25 -102.75 414.75 -104.25 420.25 -109.75 418.75" fill="#424242" fill-rule="evenodd" stroke="none"/>
    <path d="M-71.0 296.75 L-65.5 298.25 -67.0 303.75 -72.5 302.25 -71.0 296.75" fill="#424242" fill-rule="evenodd" stroke="none"/>
    <path d="M-149.0 402.25 L-150.5 407.75 -156.0 406.25 -154.5 401.0 -149.0 402.25" fill="#424242" fill-rule="evenodd" stroke="none"/>
    <path d="M-218.75 384.75 L-213.25 386.25 -214.75 391.75 -220.25 390.25 -218.75 384.75" fill="#424242" fill-rule="evenodd" stroke="none"/>
    <path d="M-186.5 456.25 L-187.75 461.75 -193.25 460.25 Q-192.75 459.0 -192.5 457.5 L-197.0 456.25 -195.5 450.75 -190.0 452.25 -190.75 455.0 -186.5 456.25" fill="#424242" fill-rule="evenodd" stroke="none"/>
    <path d="M-222.5 605.25 L-216.25 607.0 -214.75 601.75 -204.0 604.5 Q-201.25 595.0 -198.75 585.25 L-198.25 585.5 Q-197.75 584.5 -197.5 583.25 L-190.0 585.25 -190.5 587.5 -165.25 594.25 -164.75 591.75 -160.75 593.0 -157.25 579.5 -153.25 580.5 -155.5 589.0 -149.75 590.5 -151.25 595.75 -156.25 594.5 -156.75 596.5 -156.25 596.75 -158.0 603.25 -152.0 605.0 -153.5 611.0 -159.75 609.5 -182.75 695.0 -225.25 683.5 -223.25 677.0 -229.25 675.25 -228.25 672.0 -222.5 673.5 -222.0 672.0 -227.75 670.25 -226.75 666.75 -221.0 668.25 -207.0 616.0 -224.25 611.5 -222.5 605.25" fill="#424242" fill-rule="evenodd" stroke="none"/>
    <path d="M-261.5 566.75 L-266.75 565.25 -265.5 559.75 -260.0 561.25 -261.5 566.75" fill="#424242" fill-rule="evenodd" stroke="none"/>
    <path d="M-239.5 586.0 L-237.75 579.0 -228.75 581.5 -230.5 588.5 -239.5 586.0" fill="#424242" fill-rule="evenodd" stroke="none"/>
    <path d="M-250.75 627.5 L-248.75 620.5 -239.75 622.75 -241.75 629.75 -250.75 627.5" fill="#424242" fill-rule="evenodd" stroke="none"/>
    <path d="M-269.0 615.0 Q-269.75 618.75 -270.75 622.25 L-278.0 620.5 -276.0 613.0 -269.0 615.0" fill="#424242" fill-rule="evenodd" stroke="none"/>
    <path d="M-257.75 573.5 L-259.75 580.75 -267.0 579.0 -265.0 571.5 -257.75 573.5" fill="#424242" fill-rule="evenodd" stroke="none"/>
    <path d="M-151.25 572.75 L-153.25 579.75 -157.5 578.5 Q-156.5 575.25 -155.75 571.75 L-151.25 572.75" fill="#424242" fill-rule="evenodd" stroke="none"/>
    <path d="M-166.0 590.75 Q-163.5 582.0 -161.25 573.25 L-157.0 574.5 -161.5 591.75 -166.0 590.75" fill="#424242" fill-rule="evenodd" stroke="none"/>
    <path d="M-121.75 466.5 L-122.75 470.5 -117.75 471.75 -119.25 477.25 -124.25 475.75 -131.75 503.75 -125.0 505.5 -124.75 504.5 -126.75 504.0 Q-125.5 499.75 -124.5 495.5 L-122.5 496.0 -119.75 486.25 -96.0 492.5 -96.0 493.0 -71.5 499.5 -69.25 502.0 Q-69.25 503.0 -69.5 503.75 -69.75 504.75 -70.25 505.75 L-71.75 506.5 -73.25 506.5 -98.0 499.75 -98.5 502.5 -95.25 503.25 Q-96.25 507.5 -97.5 511.75 L-101.0 510.75 -105.5 528.0 -103.25 528.5 -108.25 547.0 -110.5 546.5 -111.0 548.5 -134.75 542.25 -130.0 524.0 -136.5 522.25 -137.5 526.0 -132.5 527.25 -133.75 532.75 -139.0 531.5 -147.0 560.75 -164.0 556.25 -164.5 558.25 -174.25 555.75 -173.75 553.5 -189.0 549.5 Q-185.0 535.25 -181.25 520.75 L-186.75 519.25 -185.25 513.75 -179.75 515.25 -168.0 471.25 -178.0 468.5 -176.75 463.25 -183.0 461.5 -181.25 455.25 -165.0 459.75 -163.75 455.25 -121.75 466.5" fill="#424242" fill-rule="evenodd" stroke="none"/>
    <path d="M-35.25 347.25 L-34.0 347.5 -34.5 348.75 -35.5 348.5 Q-35.25 348.0 -35.25 347.25" fill="#424242" fill-rule="evenodd" stroke="none"/>
    <path d="M-31.5 333.5 L-30.5 334.0 -30.75 335.0 -32.0 334.75 -31.5 333.5" fill="#424242" fill-rule="evenodd" stroke="none"/>
    <path d="M-27.75 349.25 L-26.5 349.5 Q-26.5 350.25 -26.75 350.75 L-28.0 350.25 -27.75 349.25" fill="#424242" fill-rule="evenodd" stroke="none"/>
    <path d="M-23.0 335.75 Q-23.0 336.5 -23.25 337.0 L-24.5 336.75 -24.0 335.5 -23.0 335.75" fill="#424242" fill-rule="evenodd" stroke="none"/>
    <path d="M-28.25 338.25 L-26.0 340.75 -26.25 342.5 -27.25 344.5 -28.5 345.25 -30.0 345.25 -54.75 338.5 -55.5 341.0 -52.0 342.0 -54.25 350.5 -57.75 349.5 -62.25 366.5 -60.0 367.0 -65.25 386.25 -67.25 385.75 -67.75 387.25 -91.5 380.75 -87.5 365.5 -94.75 363.5 -103.75 396.75 -104.0 396.75 -104.75 399.25 -112.25 397.25 -111.75 394.75 -118.25 393.0 Q-118.25 393.5 -118.5 394.0 L-134.0 390.0 Q-133.75 389.5 -133.75 388.75 L-136.0 388.25 Q-136.25 389.5 -136.75 390.5 L-138.5 390.0 -139.5 393.25 -146.0 391.25 -145.25 388.25 -146.0 388.0 Q-145.5 387.0 -145.25 386.0 L-146.0 385.75 Q-145.25 383.25 -144.75 380.75 L-143.5 381.25 -135.75 352.75 -141.5 351.25 -140.0 345.75 -134.5 347.5 -121.0 297.0 -127.0 295.25 -125.5 289.75 -119.25 291.5 Q-119.5 293.25 -120.0 294.75 L-118.25 295.25 -117.75 292.75 -113.75 294.0 -114.5 296.25 -85.5 304.0 Q-85.0 302.75 -84.75 301.25 L-80.5 302.5 Q-80.75 304.0 -81.25 305.25 L-79.5 305.75 -78.5 302.5 -73.0 304.0 -74.5 309.5 -80.0 308.0 -86.5 332.25 -84.5 332.75 -86.0 339.0 -88.25 338.5 -89.25 342.75 -81.75 344.75 -81.5 343.25 -83.5 342.75 Q-82.25 338.5 -81.25 334.25 L-79.25 334.75 Q-77.75 329.75 -76.5 324.75 L-52.75 331.25 -52.75 331.75 -28.25 338.25" fill="#424242" fill-rule="evenodd" stroke="none"/>
    <path d="M-124.5 463.0 L-119.0 464.25 -120.5 470.0 -115.25 471.5 -116.5 476.0 -111.5 477.25 -113.0 482.75 -113.5 482.5 Q-112.75 480.25 -112.25 477.75 L-117.25 476.5 -116.0 472.0 -121.25 470.5 -119.75 464.75 -124.5 463.5 -124.5 463.0" fill="#424242" fill-rule="evenodd" stroke="none"/>
    <path d="M-67.5 417.5 L-54.75 420.75 -62.75 450.0 -75.25 446.5 -67.5 417.5" fill="#424242" fill-rule="evenodd" stroke="none"/>
    <path d="M-75.75 447.5 L-63.0 451.0 -70.75 480.0 -83.5 476.5 -75.75 447.5" fill="#424242" fill-rule="evenodd" stroke="none"/>
    <path d="M-320.5 396.25 Q-322.0 402.5 -323.75 408.75 L-353.0 401.0 -349.5 388.25 -320.5 396.25" fill="#424242" fill-rule="evenodd" stroke="none"/>
    <path d="M-322.75 409.25 L-319.25 396.5 -290.25 404.25 -293.75 417.0 -322.75 409.25" fill="#424242" fill-rule="evenodd" stroke="none"/>
    <path d="M-26.25 235.25 L-25.25 232.0 -22.0 232.75 -23.0 236.25 -26.25 235.25" fill="#424242" fill-rule="evenodd" stroke="none"/>
    <path d="M-19.5 223.5 L-20.5 226.75 -23.75 226.0 -22.75 222.5 -19.5 223.5" fill="#424242" fill-rule="evenodd" stroke="none"/>
    <path d="M-4.5 226.25 L-3.5 226.5 Q-3.5 227.25 -3.75 227.75 L-5.0 227.5 -4.5 226.25" fill="#424242" fill-rule="evenodd" stroke="none"/>
    <path d="M-8.75 241.5 L-8.5 240.5 -7.25 240.75 Q-7.25 241.5 -7.5 242.0 L-8.75 241.5" fill="#424242" fill-rule="evenodd" stroke="none"/>
    <path d="M-60.5 240.25 L-59.25 240.5 Q-59.25 241.25 -59.5 241.75 L-60.75 241.5 Q-60.5 241.0 -60.5 240.25" fill="#424242" fill-rule="evenodd" stroke="none"/>
    <path d="M-56.5 236.75 L-56.75 237.75 -58.0 237.5 Q-57.75 237.0 -57.75 236.25 L-56.5 236.75" fill="#424242" fill-rule="evenodd" stroke="none"/>
    <path d="M-5.0 227.75 L-5.75 230.25 -8.25 229.5 Q-7.75 228.5 -7.5 227.25 L-5.0 227.75" fill="#424242" fill-rule="evenodd" stroke="none"/>
    <path d="M-10.5 239.25 L-9.75 236.75 -7.5 237.5 -8.0 240.0 -10.5 239.25" fill="#424242" fill-rule="evenodd" stroke="none"/>
    <path d="M-76.75 277.75 L-77.75 277.5 Q-77.5 277.0 -77.5 276.25 L-76.25 276.5 -76.75 277.75" fill="#424242" fill-rule="evenodd" stroke="none"/>
    <path d="M-93.25 291.25 L-92.75 290.0 -91.75 290.25 Q-91.75 291.0 -92.0 291.5 L-93.25 291.25" fill="#424242" fill-rule="evenodd" stroke="none"/>
    <path d="M-133.5 282.0 L-132.25 282.25 -132.75 283.5 -133.75 283.0 -133.5 282.0" fill="#424242" fill-rule="evenodd" stroke="none"/>
    <path d="M-130.75 282.75 L-129.5 283.0 Q-129.5 283.75 -129.75 284.25 L-131.0 284.0 Q-130.75 283.5 -130.75 282.75" fill="#424242" fill-rule="evenodd" stroke="none"/>
    <path d="M-75.25 267.5 L-74.0 267.75 Q-74.0 268.5 -74.25 269.0 L-75.5 268.75 Q-75.25 268.25 -75.25 267.5" fill="#424242" fill-rule="evenodd" stroke="none"/>
    <path d="M-176.5 252.75 L-177.75 252.5 Q-177.5 252.0 -177.5 251.25 L-176.25 251.5 Q-176.25 252.25 -176.5 252.75" fill="#424242" fill-rule="evenodd" stroke="none"/>
    <path d="M-140.75 261.0 L-139.5 261.25 Q-139.5 262.0 -139.75 262.5 L-141.0 262.25 Q-140.75 261.75 -140.75 261.0" fill="#424242" fill-rule="evenodd" stroke="none"/>
    <path d="M-174.25 244.25 Q-174.25 245.0 -174.5 245.5 L-175.75 245.25 Q-175.5 244.75 -175.5 244.0 L-174.25 244.25" fill="#424242" fill-rule="evenodd" stroke="none"/>
    <path d="M-78.75 268.0 L-76.25 268.5 -78.25 276.0 -80.75 275.25 -78.75 268.0" fill="#424242" fill-rule="evenodd" stroke="none"/>
    <path d="M-19.75 289.5 L-32.5 286.25 -24.5 257.0 -11.75 260.5 -19.75 289.5" fill="#424242" fill-rule="evenodd" stroke="none"/>
    <path d="M-32.75 287.25 L-20.0 290.75 -27.75 319.75 -40.75 316.25 -32.75 287.25" fill="#424242" fill-rule="evenodd" stroke="none"/>
    <path d="M-209.25 444.25 L-212.25 454.75 -223.5 451.5 -220.75 441.25 -209.25 444.25" fill="#424242" fill-rule="evenodd" stroke="none"/>
    <path d="M-194.25 390.25 L-197.0 400.75 -208.25 397.75 -205.5 387.25 -194.25 390.25" fill="#424242" fill-rule="evenodd" stroke="none"/>
    <path d="M-89.75 262.25 L-90.25 264.75 -82.5 266.75 -83.5 270.75 -91.5 268.75 -90.75 269.0 -92.75 275.75 -100.0 274.0 -98.5 268.25 -100.25 268.0 -99.75 266.5 -103.75 265.5 -102.75 261.5 -98.75 262.5 -98.0 260.0 -89.75 262.25" fill="#424242" fill-rule="evenodd" stroke="none"/>
    <path d="M-106.75 260.75 L-103.0 261.75 Q-105.25 270.5 -107.75 279.0 L-111.5 278.0 Q-109.0 269.5 -106.75 260.75" fill="#424242" fill-rule="evenodd" stroke="none"/>
    <path d="M-102.0 290.75 L-103.25 295.25 -107.25 294.0 -106.25 289.75 -102.0 290.75" fill="#424242" fill-rule="evenodd" stroke="none"/>
    <path d="M-101.75 295.5 L-100.75 291.25 -96.5 292.25 -97.75 296.75 -101.75 295.5" fill="#424242" fill-rule="evenodd" stroke="none"/>
    <path d="M-139.0 278.75 L-140.25 283.25 -144.75 282.0 -143.5 277.5 -139.0 278.75" fill="#424242" fill-rule="evenodd" stroke="none"/>
    <path d="M-184.5 280.0 L-190.25 278.5 -188.75 272.5 -183.0 274.25 -184.5 280.0" fill="#424242" fill-rule="evenodd" stroke="none"/>
    <path d="M-173.25 217.25 L-167.5 218.75 -169.0 224.5 -175.0 223.0 -173.25 217.25" fill="#424242" fill-rule="evenodd" stroke="none"/>
    <path d="M-135.5 227.0 L-129.75 228.5 -131.25 234.5 -137.25 232.75 Q-136.25 230.0 -135.5 227.0" fill="#424242" fill-rule="evenodd" stroke="none"/>
    <path d="M-110.25 234.25 L-104.5 235.75 -106.0 241.5 -112.0 240.0 Q-111.0 237.25 -110.25 234.25" fill="#424242" fill-rule="evenodd" stroke="none"/>
    <path d="M-65.0 252.25 L-63.5 246.5 -57.75 248.0 -59.25 253.75 -65.0 252.25" fill="#424242" fill-rule="evenodd" stroke="none"/>
    <path d="M-162.75 227.75 L-163.75 230.75 -167.5 229.75 -166.5 226.75 -162.75 227.75" fill="#424242" fill-rule="evenodd" stroke="none"/>
    <path d="M-159.75 228.5 L-156.0 229.5 -156.75 232.75 -160.5 231.75 Q-160.0 230.25 -159.75 228.5" fill="#424242" fill-rule="evenodd" stroke="none"/>
    <path d="M-149.0 231.5 Q-149.25 233.0 -149.75 234.5 L-153.5 233.5 -152.75 230.5 -149.0 231.5" fill="#424242" fill-rule="evenodd" stroke="none"/>
    <path d="M-143.0 236.5 L-146.75 235.5 -145.75 232.25 -142.0 233.25 -143.0 236.5" fill="#424242" fill-rule="evenodd" stroke="none"/>
    <path d="M-226.5 286.25 L-229.75 285.25 -229.0 283.25 -225.75 284.25 -226.5 286.25" fill="#424242" fill-rule="evenodd" stroke="none"/>
    <path d="M-262.0 274.5 L-262.5 276.5 -265.75 275.75 -265.25 273.5 -262.0 274.5" fill="#424242" fill-rule="evenodd" stroke="none"/>
    <path d="M-291.5 266.0 L-292.5 269.75 -295.25 269.0 -294.25 265.25 -291.5 266.0" fill="#424242" fill-rule="evenodd" stroke="none"/>
    <path d="M-221.25 272.0 L-224.5 271.0 -223.75 269.0 -220.5 269.75 Q-220.75 271.0 -221.25 272.0" fill="#424242" fill-rule="evenodd" stroke="none"/>
    <path d="M-257.25 262.25 L-260.5 261.25 -260.0 259.25 -256.75 260.0 -257.25 262.25" fill="#424242" fill-rule="evenodd" stroke="none"/>
    <path d="M-297.25 248.25 L-298.25 252.5 -302.25 251.5 -301.0 247.0 -297.25 248.25" fill="#424242" fill-rule="evenodd" stroke="none"/>
    <path d="M-286.75 208.0 Q-287.25 210.25 -288.0 212.25 L-291.75 211.25 -290.75 207.0 -286.75 208.0" fill="#424242" fill-rule="evenodd" stroke="none"/>
    <path d="M-298.25 236.0 L-294.25 237.0 Q-294.75 239.25 -295.5 241.25 L-299.25 240.25 -298.25 236.0" fill="#424242" fill-rule="evenodd" stroke="none"/>
    <path d="M-274.75 200.25 L-272.75 193.25 -266.5 195.0 Q-267.25 198.5 -268.25 202.0 L-274.75 200.25" fill="#424242" fill-rule="evenodd" stroke="none"/>
    <path d="M-275.0 180.75 L-264.75 183.5 -267.5 193.5 -277.5 190.75 -276.25 186.25 -288.0 183.0 -291.5 195.5 -302.75 192.5 -295.0 163.5 -283.75 166.5 -287.75 181.5 -276.0 184.5 -275.0 180.75" fill="#424242" fill-rule="evenodd" stroke="none"/>
    <path d="M-263.0 158.75 L-264.0 162.5 -266.25 161.75 -265.25 158.25 -263.0 158.75" fill="#424242" fill-rule="evenodd" stroke="none"/>
    <path d="M-270.0 176.5 L-267.75 177.0 -268.75 180.5 -271.0 180.0 -270.0 176.5" fill="#424242" fill-rule="evenodd" stroke="none"/>
    <path d="M-283.0 191.0 L-285.25 190.25 -284.25 186.75 -282.0 187.25 -283.0 191.0" fill="#424242" fill-rule="evenodd" stroke="none"/>
    <path d="M-273.5 155.5 L-274.5 159.5 -276.5 158.75 -275.5 155.0 -273.5 155.5" fill="#424242" fill-rule="evenodd" stroke="none"/>
    <path d="M-279.5 154.0 L-277.25 154.5 -278.25 158.5 -280.5 157.75 -279.5 154.0" fill="#424242" fill-rule="evenodd" stroke="none"/>
    <path d="M-226.0 108.75 L-226.75 111.5 -217.75 114.0 -216.75 110.5 -151.0 128.0 -153.75 138.25 -140.0 142.0 -139.25 139.0 -132.0 141.0 Q-132.25 142.5 -132.75 143.75 L-131.25 144.25 -130.75 141.75 -123.0 144.0 Q-123.25 145.25 -123.75 146.25 L-120.75 147.0 -120.25 145.0 -112.5 147.0 -113.0 149.25 -109.75 150.0 -112.75 161.5 -110.0 162.25 -114.75 179.75 -117.5 179.0 Q-118.25 182.75 -119.25 186.25 L-123.5 185.0 -126.25 196.0 -137.0 193.25 -134.0 182.25 -138.25 181.0 -139.5 185.25 -156.25 180.75 Q-155.5 178.75 -155.0 176.5 L-163.25 174.25 -166.0 184.0 -231.75 166.5 Q-231.25 165.0 -231.0 163.25 L-240.0 160.75 Q-240.25 162.0 -240.75 163.0 L-267.25 156.0 Q-265.5 149.75 -264.0 143.5 L-286.5 137.25 -288.0 142.5 -284.0 143.75 Q-285.25 149.0 -286.75 154.0 L-297.5 151.25 -294.75 140.75 -290.25 142.0 Q-289.5 139.5 -289.0 136.75 L-296.25 134.75 Q-295.0 130.75 -294.0 126.75 L-296.75 126.0 Q-296.75 126.5 -297.0 126.75 L-310.25 134.5 -325.0 130.5 -332.75 117.5 -329.0 102.75 -315.75 95.0 -301.0 98.75 -293.25 112.0 -293.5 112.75 -290.5 113.5 -289.0 108.25 -256.75 116.75 -252.75 101.5 -250.25 102.25 -249.25 98.75 -247.0 99.25 -248.0 102.75 -226.0 108.75" fill="#424242" fill-rule="evenodd" stroke="none"/>
    <path d="M-238.5 222.75 L-239.25 225.25 -243.0 224.25 -242.25 221.75 -238.5 222.75" fill="#424242" fill-rule="evenodd" stroke="none"/>
    <path d="M-202.0 196.25 L-202.5 198.75 -206.5 197.75 -205.75 195.25 -202.0 196.25" fill="#424242" fill-rule="evenodd" stroke="none"/>
    <path d="M-241.75 185.75 L-242.5 188.25 -246.25 187.25 Q-245.75 186.0 -245.5 184.75 L-241.75 185.75" fill="#424242" fill-rule="evenodd" stroke="none"/>
    <path d="M-245.0 83.0 L-242.75 83.5 -243.75 87.25 -246.0 86.5 -245.0 83.0" fill="#424242" fill-rule="evenodd" stroke="none"/>
    <path d="M-180.5 103.0 L-179.75 100.5 -176.0 101.5 Q-176.25 103.0 -176.75 104.25 L-180.5 103.0" fill="#424242" fill-rule="evenodd" stroke="none"/>
    <path d="M-216.5 93.25 L-215.75 90.75 -211.75 91.75 -212.5 94.25 -216.5 93.25" fill="#424242" fill-rule="evenodd" stroke="none"/>
    <path d="M-260.25 97.25 L-258.0 98.0 -259.0 101.5 -261.25 101.0 -260.25 97.25" fill="#424242" fill-rule="evenodd" stroke="none"/>
    <path d="M-249.25 66.25 L-250.25 70.0 -253.0 69.25 -252.0 65.5 -249.25 66.25" fill="#424242" fill-rule="evenodd" stroke="none"/>
    <path d="M-171.75 87.25 L-172.25 89.75 -176.25 88.75 -175.5 86.25 -171.75 87.25" fill="#424242" fill-rule="evenodd" stroke="none"/>
    <path d="M-207.5 77.5 L-208.25 80.0 -212.0 79.0 -211.25 76.5 -207.5 77.5" fill="#424242" fill-rule="evenodd" stroke="none"/>
    <path d="M-245.0 198.0 L-245.75 200.5 -249.5 199.5 -248.75 197.0 -245.0 198.0" fill="#424242" fill-rule="evenodd" stroke="none"/>
    <path d="M-250.5 251.75 L-249.75 249.25 -246.0 250.25 -246.5 252.75 -250.5 251.75" fill="#424242" fill-rule="evenodd" stroke="none"/>
    <path d="M-185.25 237.0 L-186.0 239.5 -190.0 238.5 -189.25 236.0 -185.25 237.0" fill="#424242" fill-rule="evenodd" stroke="none"/>
    <path d="M-193.5 267.0 L-197.25 266.0 -196.5 263.5 -192.75 264.5 -193.5 267.0" fill="#424242" fill-rule="evenodd" stroke="none"/>
    <path d="M-314.0 281.25 L-318.0 280.25 -316.75 276.0 -313.0 277.0 -314.0 281.25" fill="#424242" fill-rule="evenodd" stroke="none"/>
    <path d="M-295.75 281.5 L-296.75 285.25 -299.5 284.75 -298.5 280.75 -295.75 281.5" fill="#424242" fill-rule="evenodd" stroke="none"/>
    <path d="M-168.5 248.0 L-169.75 252.25 -175.75 250.75 -174.5 246.25 -168.5 248.0" fill="#424242" fill-rule="evenodd" stroke="none"/>
    <path d="M-145.25 284.25 L-146.75 290.0 -152.5 288.5 -151.0 282.75 -145.25 284.25" fill="#424242" fill-rule="evenodd" stroke="none"/>
    <path d="M-46.5 231.5 L-47.5 236.0 -53.0 234.5 -52.0 230.25 -46.5 231.5" fill="#424242" fill-rule="evenodd" stroke="none"/>
    <path d="M-31.75 131.5 L-30.25 126.0 -24.75 127.5 -26.25 133.0 -31.75 131.5" fill="#424242" fill-rule="evenodd" stroke="none"/>
    <path d="M-63.25 58.0 L-61.75 52.5 -56.25 54.0 -57.75 59.5 -63.25 58.0" fill="#424242" fill-rule="evenodd" stroke="none"/>
    <path d="M-97.5 83.75 L-96.0 78.25 -90.5 79.75 -92.0 85.25 -97.5 83.75" fill="#424242" fill-rule="evenodd" stroke="none"/>
    <path d="M-107.0 120.0 L-105.5 114.5 -99.75 116.0 -101.0 121.5 -107.0 120.0" fill="#424242" fill-rule="evenodd" stroke="none"/>
    <path d="M-130.0 78.25 L-131.25 83.75 -137.25 82.25 -135.75 76.75 -130.0 78.25" fill="#424242" fill-rule="evenodd" stroke="none"/>
    <path d="M-118.25 35.5 L-119.75 41.0 -125.5 39.5 -124.0 34.0 -118.25 35.5" fill="#424242" fill-rule="evenodd" stroke="none"/>
    <path d="M-104.5 130.5 L-103.0 125.5 -98.0 126.75 -99.25 132.0 -104.5 130.5" fill="#424242" fill-rule="evenodd" stroke="none"/>
    <path d="M-5.25 73.75 L-16.25 71.0 -14.5 65.0 -3.5 68.0 -5.25 73.75" fill="#424242" fill-rule="evenodd" stroke="none"/>
    <path d="M-77.75 46.75 L-79.5 53.5 -88.25 51.0 Q-87.25 47.75 -86.5 44.25 L-77.75 46.75" fill="#424242" fill-rule="evenodd" stroke="none"/>
    <path d="M-31.5 150.5 L-30.25 146.25 -26.0 147.5 -27.25 151.5 -31.5 150.5" fill="#424242" fill-rule="evenodd" stroke="none"/>
    <path d="M9.5 183.5 L10.0 182.25 11.25 182.75 10.75 183.75 9.5 183.5" fill="#424242" fill-rule="evenodd" stroke="none"/>
    <path d="M14.5 170.25 L13.25 170.0 13.5 168.75 14.75 169.0 14.5 170.25" fill="#424242" fill-rule="evenodd" stroke="none"/>
    <path d="M17.5 184.25 L18.75 184.5 18.25 185.75 17.25 185.5 17.5 184.25" fill="#424242" fill-rule="evenodd" stroke="none"/>
    <path d="M21.25 170.5 L22.25 171.0 22.0 172.25 20.75 171.75 21.25 170.5" fill="#424242" fill-rule="evenodd" stroke="none"/>
    <path d="M17.0 101.25 L24.75 72.0 37.5 75.5 29.75 104.5 17.0 101.25" fill="#424242" fill-rule="evenodd" stroke="none"/>
    <path d="M21.75 134.75 L8.75 131.25 16.5 102.25 29.5 105.75 21.75 134.75" fill="#424242" fill-rule="evenodd" stroke="none"/>
    <path d="M-328.5 75.25 L-325.0 62.5 -296.0 70.25 Q-297.5 76.75 -299.25 83.0 L-328.5 75.25" fill="#424242" fill-rule="evenodd" stroke="none"/>
    <path d="M-298.25 83.5 L-294.75 70.5 -265.75 78.25 -269.25 91.25 -298.25 83.5" fill="#424242" fill-rule="evenodd" stroke="none"/>
    <path d="M-77.0 129.5 L-75.0 130.0 -74.25 126.5 -33.25 137.5 -41.25 167.25 -39.25 168.0 -40.75 174.0 -43.0 173.5 -44.0 177.75 -36.75 179.75 -36.25 178.25 -38.25 177.75 -36.0 169.25 -34.0 169.75 Q-32.5 165.0 -31.25 160.0 L-7.5 166.25 -7.75 166.75 17.0 173.5 18.25 174.5 19.25 175.75 19.0 177.5 18.0 179.5 16.75 180.25 15.25 180.25 -9.5 173.5 -10.25 176.25 -6.75 177.0 -9.0 185.5 -12.5 184.75 -17.0 201.75 -15.0 202.25 -20.0 221.25 -22.0 220.75 -22.5 222.25 -46.25 216.0 -42.25 200.5 -48.75 198.75 -49.75 202.75 -50.75 202.5 -58.25 231.0 -57.75 231.25 -58.75 234.75 -61.0 234.25 Q-61.5 236.75 -62.25 239.0 L-69.25 237.25 -67.25 229.5 -92.0 223.0 -93.0 226.0 -101.5 223.75 -99.5 216.0 -100.0 216.0 -99.25 213.25 -100.25 213.0 -99.25 208.75 -98.25 209.0 -96.75 203.25 -97.75 203.0 Q-97.0 201.0 -96.5 198.75 L-95.5 199.0 -94.0 193.0 -95.25 192.75 -94.25 188.5 -93.0 189.0 -92.5 187.5 -96.25 186.5 -94.75 181.0 -91.0 182.0 -77.0 129.5" fill="#424242" fill-rule="evenodd" stroke="none"/>
    <path d="M-107.25 204.0 L-106.25 201.0 -107.0 200.75 Q-106.5 199.5 -106.25 198.0 L-105.5 198.25 -105.5 197.25 -98.75 199.0 -99.0 200.0 -97.0 200.5 Q-97.25 202.0 -97.75 203.25 L-99.75 202.75 -100.5 205.75 -107.25 204.0" fill="#424242" fill-rule="evenodd" stroke="none"/>
    <path d="M-309.5 170.75 L-298.75 173.5 -301.75 184.0 -312.5 181.25 -309.5 170.75" fill="#424242" fill-rule="evenodd" stroke="none"/>
    <path d="M-333.75 50.5 L-333.0 48.0 -330.5 48.75 -331.25 51.25 -333.75 50.5" fill="#424242" fill-rule="evenodd" stroke="none"/>
    <path d="M-335.5 57.25 L-334.75 54.75 -332.25 55.5 -333.0 58.0 -335.5 57.25" fill="#424242" fill-rule="evenodd" stroke="none"/>
    <path d="M-373.75 39.75 Q-373.25 38.5 -373.0 37.25 L-370.5 38.0 -371.25 40.5 -373.75 39.75" fill="#424242" fill-rule="evenodd" stroke="none"/>
    <path d="M-375.5 46.5 L-375.0 44.0 -372.5 44.75 -373.0 47.25 -375.5 46.5" fill="#424242" fill-rule="evenodd" stroke="none"/>
    <path d="M-389.75 32.75 L-390.5 35.25 -393.0 34.75 -392.5 32.0 -389.75 32.75" fill="#424242" fill-rule="evenodd" stroke="none"/>
    <path d="M-395.0 41.25 L-394.25 38.75 -391.75 39.5 -392.5 42.0 -395.0 41.25" fill="#424242" fill-rule="evenodd" stroke="none"/>
    <path d="M-436.5 28.5 L-436.5 31.0 -439.25 31.0 -439.25 28.5 -436.5 28.5" fill="#424242" fill-rule="evenodd" stroke="none"/>
    <path d="M-439.25 38.0 L-439.25 35.5 -436.5 35.5 -436.5 38.0 -439.25 38.0" fill="#424242" fill-rule="evenodd" stroke="none"/>
    <path d="M-489.0 28.5 L-489.0 31.25 -491.75 31.25 -491.75 28.5 -489.0 28.5" fill="#424242" fill-rule="evenodd" stroke="none"/>
    <path d="M-491.75 38.25 L-491.75 35.5 -489.0 35.5 -489.0 38.25 -491.75 38.25" fill="#424242" fill-rule="evenodd" stroke="none"/>
    <path d="M-559.0 28.75 L-559.0 31.5 -561.75 31.5 -561.75 28.75 -559.0 28.75" fill="#424242" fill-rule="evenodd" stroke="none"/>
    <path d="M-597.25 31.0 L-597.25 28.25 -594.5 28.25 -594.5 31.0 -597.25 31.0" fill="#424242" fill-rule="evenodd" stroke="none"/>
    <path d="M-622.0 29.0 L-622.0 31.75 -624.75 31.75 -624.75 29.0 -622.0 29.0" fill="#424242" fill-rule="evenodd" stroke="none"/>
    <path d="M-614.75 29.0 L-614.75 31.75 -617.5 31.75 -617.5 29.0 -614.75 29.0" fill="#424242" fill-rule="evenodd" stroke="none"/>
    <path d="M-624.75 58.0 L-624.75 55.5 -622.25 55.5 -622.25 58.0 -624.75 58.0" fill="#424242" fill-rule="evenodd" stroke="none"/>
    <path d="M-617.5 58.0 L-617.5 55.5 -614.75 55.5 -614.75 58.0 -617.5 58.0" fill="#424242" fill-rule="evenodd" stroke="none"/>
    <path d="M-597.0 39.0 L-597.0 36.25 -594.25 36.25 -594.25 39.0 -597.0 39.0" fill="#424242" fill-rule="evenodd" stroke="none"/>
    <path d="M-561.75 38.5 L-561.75 35.75 -559.0 35.75 -559.0 38.5 -561.75 38.5" fill="#424242" fill-rule="evenodd" stroke="none"/>
    <path d="M-315.75 377.0 L-317.5 384.0 -324.0 382.25 -322.0 375.25 -315.75 377.0" fill="#424242" fill-rule="evenodd" stroke="none"/>
    <path d="M-315.5 343.75 L-314.5 340.25 -312.25 340.75 -313.25 344.5 -315.5 343.75" fill="#424242" fill-rule="evenodd" stroke="none"/>
    <path d="M-319.25 358.25 L-317.0 359.0 -318.0 362.5 -320.25 362.0 -319.25 358.25" fill="#424242" fill-rule="evenodd" stroke="none"/>
    <path d="M-333.5 368.75 L-331.25 369.25 -332.25 373.0 -334.5 372.25 -333.5 368.75" fill="#424242" fill-rule="evenodd" stroke="none"/>
    <path d="M-322.75 337.5 L-323.75 341.25 -326.0 340.75 Q-325.25 339.0 -324.75 337.0 L-322.75 337.5" fill="#424242" fill-rule="evenodd" stroke="none"/>
    <path d="M-328.75 335.75 L-326.5 336.5 -327.75 340.25 -329.75 339.75 -328.75 335.75" fill="#424242" fill-rule="evenodd" stroke="none"/>
    <path d="M-398.0 481.0 Q-396.75 476.75 -395.75 472.25 L-381.0 476.25 -383.25 485.0 -398.0 481.0" fill="#424242" fill-rule="evenodd" stroke="none"/>
    <path d="M-200.0 310.0 L-202.75 320.25 -188.75 324.0 -188.25 321.5 -182.0 323.25 -182.75 325.75 -180.0 326.25 -179.5 324.5 -171.5 326.5 -172.0 328.5 -169.75 329.0 Q-169.25 328.0 -169.0 326.75 L-161.25 329.0 -161.75 331.25 -157.5 332.25 -167.5 369.0 -196.75 361.25 -197.75 364.75 -213.5 360.5 -215.0 366.0 -280.25 348.5 -279.5 345.5 -288.25 343.25 Q-288.25 344.0 -288.5 344.5 L-316.25 337.25 -313.0 325.5 -335.5 319.5 -336.75 324.75 -333.25 325.75 -336.0 336.0 -346.75 333.25 -344.0 322.75 -339.0 324.0 Q-338.25 321.5 -337.75 318.75 L-345.5 316.75 -343.25 308.75 -346.0 308.0 Q-346.0 308.5 -346.25 308.75 L-359.5 316.5 -374.25 312.5 -382.0 299.5 -378.25 284.75 -365.0 277.0 -350.25 280.75 -342.5 294.0 Q-342.5 294.5 -342.75 294.75 L-339.75 295.5 -338.25 290.0 -306.0 298.75 -302.0 284.25 -274.5 291.75 Q-274.5 292.5 -274.75 293.0 L-266.0 295.25 -265.25 292.5 -200.0 310.0" fill="#424242" fill-rule="evenodd" stroke="none"/>
    <path d="M-259.0 392.0 L-258.25 389.5 -254.5 390.5 -255.25 393.25 -259.0 392.0" fill="#424242" fill-rule="evenodd" stroke="none"/>
    <path d="M-251.25 378.25 L-251.75 380.75 -255.75 379.75 -255.0 377.25 -251.25 378.25" fill="#424242" fill-rule="evenodd" stroke="none"/>
    <path d="M-333.5 562.25 L-332.75 559.75 -330.0 560.5 -330.5 563.0 -333.5 562.25" fill="#424242" fill-rule="evenodd" stroke="none"/>
    <path d="M-321.0 527.5 L-324.0 526.75 -323.25 524.25 -320.25 525.0 -321.0 527.5" fill="#424242" fill-rule="evenodd" stroke="none"/>
    <path d="M-378.75 552.0 L-382.5 551.0 -381.5 546.75 -377.75 547.75 -378.75 552.0" fill="#424242" fill-rule="evenodd" stroke="none"/>
    <path d="M-371.5 509.5 L-367.75 510.5 -368.75 514.75 -372.5 513.75 -371.5 509.5" fill="#424242" fill-rule="evenodd" stroke="none"/>
    <path d="M-277.0 577.5 L-279.75 576.75 -279.25 574.25 -276.25 575.0 -277.0 577.5" fill="#424242" fill-rule="evenodd" stroke="none"/>
    <path d="M-266.75 539.25 Q-267.0 540.75 -267.5 542.0 L-270.25 541.25 -269.75 538.5 -266.75 539.25" fill="#424242" fill-rule="evenodd" stroke="none"/>
    <path d="M-291.0 367.75 L-291.75 370.25 -295.5 369.25 -294.75 366.75 -291.0 367.75" fill="#424242" fill-rule="evenodd" stroke="none"/>
    <path d="M-298.75 381.5 Q-298.25 380.25 -298.0 379.0 L-294.25 380.0 -295.0 382.5 -298.75 381.5" fill="#424242" fill-rule="evenodd" stroke="none"/>
    <path d="M-344.25 345.25 L-333.0 348.25 -337.0 363.25 -325.25 366.5 -324.25 362.75 -314.0 365.5 -316.75 375.5 -326.75 372.75 Q-326.0 370.5 -325.5 368.0 L-337.25 365.0 -340.75 377.25 -352.0 374.25 -344.25 345.25" fill="#424242" fill-rule="evenodd" stroke="none"/>
    <path d="M-348.0 355.5 L-351.0 366.0 -361.75 363.0 -359.0 352.5 -348.0 355.5" fill="#424242" fill-rule="evenodd" stroke="none"/>
    <path d="M-321.75 437.0 L-318.5 424.75 -294.5 431.25 -293.0 426.5 -235.5 442.0 -234.75 440.0 -228.0 441.75 -229.75 447.75 -234.0 446.5 -247.5 496.75 -242.75 498.0 -244.25 503.5 -249.0 502.25 -252.25 514.5 -312.5 498.5 -311.75 496.0 -336.0 489.5 -332.25 476.0 -348.75 471.75 -346.0 461.75 -348.25 461.0 -349.5 461.25 -350.25 462.25 -360.0 498.5 -360.0 499.75 -358.75 500.5 -339.5 505.75 -340.0 508.0 -359.5 502.75 -361.0 502.0 -362.0 500.75 -362.75 499.25 Q-362.5 498.25 -362.5 497.0 -357.75 479.75 -353.25 462.25 L-352.25 460.25 -350.75 459.25 -349.5 458.75 -347.75 458.75 -345.5 459.5 Q-341.75 446.0 -338.25 432.5 L-321.75 437.0" fill="#424242" fill-rule="evenodd" stroke="none"/>
    <path d="M-375.0 407.0 Q-373.5 402.0 -372.25 396.75 L-360.25 399.75 -363.0 410.25 -375.0 407.0" fill="#424242" fill-rule="evenodd" stroke="none"/>
    <path d="M-319.25 416.5 L-320.5 420.75 -326.0 419.5 -324.75 415.0 -319.25 416.5" fill="#424242" fill-rule="evenodd" stroke="none"/>
    <path d="M-339.5 488.0 L-340.75 492.25 -346.25 491.0 -345.0 486.5 -339.5 488.0" fill="#424242" fill-rule="evenodd" stroke="none"/>
    <path d="M-297.25 426.75 L-308.0 424.0 -307.5 421.5 -296.5 424.5 Q-296.75 425.75 -297.25 426.75" fill="#424242" fill-rule="evenodd" stroke="none"/>
    <path d="M-415.75 559.0 L-412.5 546.75 -400.5 550.0 Q-402.0 556.25 -403.75 562.25 L-415.75 559.0" fill="#424242" fill-rule="evenodd" stroke="none"/>
    <path d="M-366.75 571.5 L-365.5 567.0 -360.0 568.5 -361.25 573.0 -366.75 571.5" fill="#424242" fill-rule="evenodd" stroke="none"/>
    <path d="M-337.25 576.5 L-338.0 579.0 -348.75 576.0 -348.25 573.75 -337.25 576.5" fill="#424242" fill-rule="evenodd" stroke="none"/>
    <path d="M-393.25 423.25 Q-393.25 424.25 -393.5 425.0 L-385.75 427.0 Q-385.5 426.5 -385.5 425.75 L-362.75 431.75 -363.0 432.0 -357.0 433.5 -360.75 447.0 -362.25 460.25 -370.0 458.25 -370.25 459.25 -392.75 453.0 -392.25 451.25 -401.0 449.0 Q-401.0 449.75 -401.25 450.25 L-411.0 447.5 -412.5 453.5 -408.75 454.5 -411.25 464.5 -421.0 461.75 -418.5 451.75 -414.25 453.0 -412.75 447.0 -420.75 445.0 -418.75 438.0 -415.5 439.0 -412.0 426.25 -414.75 425.5 -412.75 418.0 -393.25 423.25" fill="#424242" fill-rule="evenodd" stroke="none"/>
    <path d="M-325.0 493.25 L-320.25 494.5 -325.75 515.5 -330.5 514.25 -325.0 493.25" fill="#424242" fill-rule="evenodd" stroke="none"/>
    <path d="M-438.5 632.25 Q-437.25 628.0 -436.25 623.5 L-421.5 627.25 -423.75 636.0 -438.5 632.25" fill="#424242" fill-rule="evenodd" stroke="none"/>
    <path d="M-333.5 577.75 L-273.5 593.75 -292.75 665.75 -353.0 649.75 -352.25 647.25 -360.0 645.0 -367.0 670.75 -372.75 669.0 -366.0 643.5 -376.5 640.75 -372.75 627.25 -389.25 622.75 -386.5 612.75 -388.75 612.25 -390.0 612.5 -390.75 613.25 -400.5 649.75 -400.5 650.75 -399.25 651.75 -380.0 656.75 -380.5 659.0 -400.0 653.75 -401.5 653.0 -402.5 652.0 -403.25 650.25 Q-403.0 649.25 -403.0 648.25 L-393.75 613.25 -392.75 611.25 -390.0 609.75 -386.0 610.5 -378.75 583.75 -362.25 588.0 -359.0 576.0 -335.0 582.5 -333.5 577.75" fill="#424242" fill-rule="evenodd" stroke="none"/>
    <path d="M-381.25 643.5 L-386.75 642.0 Q-386.0 640.0 -385.5 637.75 L-380.0 639.0 -381.25 643.5" fill="#424242" fill-rule="evenodd" stroke="none"/>
    <path d="M-433.75 574.25 L-434.0 576.0 -426.25 578.25 Q-426.0 577.75 -426.0 577.0 L-403.25 583.0 -403.5 583.0 -397.5 584.75 -401.25 598.0 -402.75 611.5 -410.5 609.25 -410.75 610.25 -433.25 604.25 -432.75 602.5 -441.5 600.25 -441.75 601.25 -451.5 598.75 -453.0 604.5 -449.25 605.5 -451.75 615.5 -461.5 613.0 -459.0 603.0 -454.75 604.0 -453.25 598.25 -461.25 596.0 -459.25 589.25 -456.0 590.0 -452.5 577.25 -455.25 576.75 -453.25 569.0 -433.75 574.25" fill="#424242" fill-rule="evenodd" stroke="none"/>
    <path d="M-463.75 478.75 L-466.75 477.75 -466.25 475.75 -463.0 476.5 Q-463.25 477.75 -463.75 478.75" fill="#424242" fill-rule="evenodd" stroke="none"/>
    <path d="M-469.0 486.0 L-465.75 486.75 Q-466.0 488.0 -466.5 489.0 L-469.5 488.25 -469.0 486.0" fill="#424242" fill-rule="evenodd" stroke="none"/>
    <path d="M-430.0 485.25 L-426.75 486.25 -427.5 488.25 -430.5 487.5 -430.0 485.25" fill="#424242" fill-rule="evenodd" stroke="none"/>
    <path d="M-433.25 498.0 L-432.75 495.75 -429.75 496.5 -430.25 498.75 -433.25 498.0" fill="#424242" fill-rule="evenodd" stroke="none"/>
    <path d="M-191.25 13.5 L-182.75 13.5 -182.75 22.0 -191.25 22.0 -191.25 13.5" fill="#424242" fill-rule="evenodd" stroke="none"/>
    <path d="M-288.5 13.25 L-280.0 13.25 -280.0 22.0 -288.5 22.0 -288.5 13.25" fill="#424242" fill-rule="evenodd" stroke="none"/>
    <path d="M-364.5 12.75 L-364.5 21.25 -373.0 21.25 -373.0 12.75 -364.5 12.75" fill="#424242" fill-rule="evenodd" stroke="none"/>
    <path d="M-468.5 21.5 L-468.5 13.0 -460.0 13.0 -460.0 21.5 -468.5 21.5" fill="#424242" fill-rule="evenodd" stroke="none"/>
    <path d="M-104.25 21.5 L-104.25 13.25 -95.75 13.25 -95.75 21.5 -104.25 21.5" fill="#424242" fill-rule="evenodd" stroke="none"/>
    <path d="M-179.5 455.75 L-178.25 450.75 -172.0 452.25 Q-172.5 455.0 -173.25 457.5 L-179.5 455.75" fill="#ffffff" fill-rule="evenodd" stroke="none"/>
    <path d="M-222.0 611.75 L-215.75 613.5 -217.25 618.75 -223.5 617.0 -222.0 611.75" fill="#ffffff" fill-rule="evenodd" stroke="none"/>
    <path d="M-137.25 295.0 L-131.0 296.75 -132.5 302.0 -138.75 300.25 -137.25 295.0" fill="#ffffff" fill-rule="evenodd" stroke="none"/>
    <path d="M-94.5 141.75 Q-93.75 139.25 -93.25 136.5 L-87.0 138.25 -88.5 143.5 -94.5 141.75" fill="#ffffff" fill-rule="evenodd" stroke="none"/>
    <path d="M-286.0 391.75 L-283.5 382.25 -258.5 389.0 Q-261.0 399.0 -263.75 408.75 L-288.0 402.25 -285.5 393.0 -271.25 396.75 -271.0 395.75 -286.0 391.75" fill="#424242" fill-rule="evenodd" stroke="none"/>
    <path d="M-283.75 383.25 L-259.5 389.5 -264.5 407.5 -287.75 401.25 Q-286.75 397.75 -286.0 394.0 L-270.5 398.0 -269.75 395.0 -285.75 390.75 -283.75 383.25" fill="#ffffff" fill-rule="evenodd" stroke="none"/>
    <path d="M-236.75 209.75 L-234.25 200.25 -209.25 207.0 Q-211.75 217.0 -214.5 226.75 L-239.0 220.25 -236.5 211.0 -222.25 214.75 -221.75 213.75 -236.75 209.75" fill="#424242" fill-rule="evenodd" stroke="none"/>
    <path d="M-234.5 201.25 L-210.5 207.75 Q-212.75 216.75 -215.25 225.5 L-238.75 219.25 -236.75 212.0 -221.5 216.0 Q-221.0 214.75 -220.75 213.25 L-236.5 208.75 -234.5 201.25" fill="#ffffff" fill-rule="evenodd" stroke="none"/>
    <path d="M-616.0 47.5 L-616.0 38.5 -589.0 38.5 -589.0 57.75 -614.75 57.75 -614.75 48.5 -599.5 48.5 -599.5 47.5 -616.0 47.5" fill="#424242" fill-rule="evenodd" stroke="none"/>
    <path d="M-616.0 39.25 L-589.75 39.25 -589.75 57.0 -614.75 57.0 -614.75 49.25 -598.5 49.25 -598.5 47.0 -616.0 47.0 -616.0 39.25" fill="#ffffff" fill-rule="evenodd" stroke="none"/>
    <path d="M-292.75 676.5 L-258.25 685.75 Q-282.5 777.0 -307.0 868.0 L-341.5 858.75 Q-317.0 767.75 -292.75 676.5" fill="#939393" fill-rule="evenodd" stroke="none"/>
  </g>
</svg>
