<?xml version="1.0" encoding="UTF-8" standalone="no"?>
<svg xmlns:ffdec="https://www.free-decompiler.com/flash" xmlns:xlink="http://www.w3.org/1999/xlink" ffdec:objectType="shape" height="863.25px" width="776.0px" xmlns="http://www.w3.org/2000/svg">
  <g transform="matrix(1.0, 0.0, 0.0, 1.0, 678.5, -12.75)">
    <path d="M-33.75 609.25 L-32.25 609.75 Q-36.0 624.25 -40.0 638.5 L-41.5 638.0 -33.75 609.25" fill="#424242" fill-rule="evenodd" stroke="none"/>
    <path d="M-305.0 875.75 Q-304.75 875.25 -304.75 874.5 L-303.5 874.75 Q-303.5 875.5 -303.75 876.0 L-305.0 875.75" fill="#424242" fill-rule="evenodd" stroke="none"/>
    <path d="M-346.25 865.0 L-347.25 864.5 -347.0 863.5 -345.75 863.75 -346.25 865.0" fill="#424242" fill-rule="evenodd" stroke="none"/>
    <path d="M-343.5 865.5 Q-343.25 865.0 -343.25 864.25 L-342.0 864.5 Q-342.0 865.25 -342.25 865.75 L-343.5 865.5" fill="#424242" fill-rule="evenodd" stroke="none"/>
    <path d="M-308.75 874.5 L-310.0 874.5 Q-309.75 874.0 -309.75 873.25 L-308.75 873.25 -308.75 874.5" fill="#424242" fill-rule="evenodd" stroke="none"/>
    <path d="M-52.75 438.75 L-53.75 442.25 -57.25 441.25 -56.25 438.0 -52.75 438.75" fill="#424242" fill-rule="evenodd" stroke="none"/>
    <path d="M54.0 264.0 L57.5 265.0 56.5 268.25 53.0 267.5 54.0 264.0" fill="#424242" fill-rule="evenodd" stroke="none"/>
    <path d="M11.5 571.0 L8.0 570.0 9.0 566.75 12.25 567.5 11.5 571.0" fill="#424242" fill-rule="evenodd" stroke="none"/>
    <path d="M-119.0 647.25 L-115.75 648.25 Q-116.0 650.0 -116.5 651.5 L-120.0 650.75 -119.0 647.25" fill="#424242" fill-rule="evenodd" stroke="none"/>
    <path d="M43.5 47.25 L40.0 46.25 41.0 42.75 44.5 43.75 43.5 47.25" fill="#424242" fill-rule="evenodd" stroke="none"/>
    <path d="M-178.5 469.0 Q-178.5 469.75 -178.75 470.25 L-180.0 469.75 -179.75 468.75 -178.5 469.0" fill="#424242" fill-rule="evenodd" stroke="none"/>
    <path d="M-176.25 469.5 L-176.75 470.75 -177.75 470.5 Q-177.5 470.0 -177.5 469.25 L-176.25 469.5" fill="#424242" fill-rule="evenodd" stroke="none"/>
    <path d="M-164.5 642.5 L-163.25 642.75 -163.75 644.0 -165.0 643.75 -164.5 642.5" fill="#424242" fill-rule="evenodd" stroke="none"/>
    <path d="M-253.25 724.75 L-248.75 707.0 -198.75 720.0 -203.25 737.5 -253.25 724.75" fill="#424242" fill-rule="evenodd" stroke="none"/>
    <path d="M-370.25 671.75 L-374.75 687.0 -422.0 673.0 -417.5 657.75 -370.25 671.75" fill="#424242" fill-rule="evenodd" stroke="none"/>
    <path d="M-54.75 420.75 L-62.75 450.0 -75.25 446.5 -67.5 417.5 -54.75 420.75" fill="#424242" fill-rule="evenodd" stroke="none"/>
    <path d="M-83.5 476.5 L-75.75 447.5 -63.0 451.0 -70.75 480.0 -83.5 476.5" fill="#424242" fill-rule="evenodd" stroke="none"/>
    <path d="M-320.5 396.25 Q-322.0 402.5 -323.75 408.75 L-353.0 401.0 -349.5 388.25 -320.5 396.25" fill="#424242" fill-rule="evenodd" stroke="none"/>
    <path d="M-11.75 260.5 L-19.75 289.5 -32.5 286.25 -24.5 257.0 -11.75 260.5" fill="#424242" fill-rule="evenodd" stroke="none"/>
    <path d="M-40.75 316.25 L-32.75 287.25 -20.0 290.75 -27.75 319.75 -40.75 316.25" fill="#424242" fill-rule="evenodd" stroke="none"/>
    <path d="M37.5 75.5 L29.75 104.5 17.0 101.25 24.75 72.0 37.5 75.5" fill="#424242" fill-rule="evenodd" stroke="none"/>
    <path d="M21.75 134.75 L8.75 131.25 16.5 102.25 29.5 105.75 21.75 134.75" fill="#424242" fill-rule="evenodd" stroke="none"/>
    <path d="M-328.5 75.25 L-325.0 62.5 -296.0 70.25 Q-297.5 76.75 -299.25 83.0 L-328.5 75.25" fill="#424242" fill-rule="evenodd" stroke="none"/>
    <path d="M-265.75 78.25 L-269.25 91.25 -298.25 83.5 -294.75 70.5 -265.75 78.25" fill="#424242" fill-rule="evenodd" stroke="none"/>
    <path d="M-298.75 173.5 L-301.75 184.0 -312.5 181.25 -309.5 170.75 -298.75 173.5" fill="#424242" fill-rule="evenodd" stroke="none"/>
    <path d="M-348.0 355.5 L-351.0 366.0 -361.75 363.0 -359.0 352.5 -348.0 355.5" fill="#424242" fill-rule="evenodd" stroke="none"/>
    <path d="M-182.75 22.0 L-191.25 22.0 -191.25 13.5 -182.75 13.5 -182.75 22.0" fill="#424242" fill-rule="evenodd" stroke="none"/>
    <path d="M-288.5 22.0 L-288.5 13.25 -280.0 13.25 -280.0 22.0 -288.5 22.0" fill="#424242" fill-rule="evenodd" stroke="none"/>
    <path d="M-373.0 21.25 L-373.0 12.75 -364.5 12.75 -364.5 21.25 -373.0 21.25" fill="#424242" fill-rule="evenodd" stroke="none"/>
    <path d="M-468.5 21.5 L-468.5 13.0 -460.0 13.0 -460.0 21.5 -468.5 21.5" fill="#424242" fill-rule="evenodd" stroke="none"/>
    <path d="M-104.25 21.5 L-104.25 13.25 -95.75 13.25 -95.75 21.5 -104.25 21.5" fill="#424242" fill-rule="evenodd" stroke="none"/>
    <path d="M-599.75 236.5 L-603.25 235.25 -605.5 232.5 -606.25 228.75 -605.0 225.25 -602.25 223.0 -598.5 222.25 -596.25 223.0 -595.75 222.25 -593.5 223.75 -594.0 224.5 -592.75 226.25 -592.0 230.0 -593.25 233.5 -596.0 235.75 -599.75 236.5" fill="#424242" fill-rule="evenodd" stroke="none"/>
    <path d="M-630.5 594.5 L-626.0 607.25 Q-627.25 614.0 -628.75 620.75 L-637.75 631.0 -647.25 634.25 -647.25 637.0 -657.5 637.0 -657.5 634.0 -664.0 632.75 Q-669.0 628.25 -674.25 623.75 L-678.5 611.0 -676.0 597.5 -667.0 587.25 -654.25 583.0 -640.75 585.5 -630.5 594.5" fill="#424242" fill-rule="evenodd" stroke="none"/>
    <path d="M-670.0 176.0 L-661.0 165.75 -648.25 161.5 -634.75 164.0 -624.5 173.0 -620.0 185.75 -622.75 199.25 -631.75 209.5 -641.25 212.75 -641.25 215.5 -651.5 215.5 -651.5 212.5 -658.0 211.25 -668.25 202.25 -672.5 189.5 -670.0 176.0" fill="#424242" fill-rule="evenodd" stroke="none"/>
    <path d="M-641.25 291.75 L-641.25 294.5 -651.5 294.5 -651.5 291.5 -658.0 290.25 -668.25 281.25 -672.5 268.5 -670.0 255.0 -661.0 244.75 -648.25 240.5 -634.75 243.0 -624.5 252.0 -620.0 264.75 -622.75 278.25 -631.75 288.5 -641.25 291.75" fill="#424242" fill-rule="evenodd" stroke="none"/>
    <path d="M-399.25 634.0 L-397.5 628.0 -425.25 620.5 -426.75 626.0 -421.5 627.25 -421.5 628.0 -399.25 634.0 M-400.25 638.0 Q-400.0 637.5 -400.0 636.75 L-422.25 630.75 -422.75 632.0 -400.25 638.0 M-385.25 648.75 L-383.75 647.0 -384.75 646.75 -386.0 647.0 -387.25 648.25 Q-388.0 651.5 -389.0 654.5 L-387.25 655.0 -385.25 648.75 M-388.0 645.5 L-386.5 644.75 -398.25 641.5 Q-399.25 645.75 -400.5 649.75 L-400.5 650.75 -399.25 651.75 -391.75 653.75 -389.75 647.5 -388.0 645.5 M-380.5 649.5 L-379.5 648.5 -379.5 648.25 -380.0 648.0 -381.75 648.5 -383.0 649.75 -384.5 655.75 -382.5 656.25 -380.5 649.5 M-384.75 637.75 L-384.25 636.5 -391.0 629.75 -395.0 628.75 -396.5 634.75 -385.5 637.75 -384.75 637.75 M-386.75 641.75 L-386.25 640.25 -397.25 637.5 Q-397.25 638.25 -397.5 638.75 L-386.75 641.75 M-412.5 560.0 L-413.75 559.75 -415.25 565.25 -414.0 565.5 -412.5 560.0 M-403.25 560.0 L-403.75 562.25 -408.75 561.0 -410.25 566.0 -375.0 575.25 -366.0 572.75 -365.75 571.75 -366.75 571.5 -366.25 570.0 -403.25 560.0 M-357.25 488.0 L-346.25 490.75 -345.75 489.5 -356.75 486.5 -357.25 488.0 M-351.0 502.5 Q-350.0 499.75 -349.25 496.75 L-347.5 494.75 -346.5 494.25 -346.5 493.75 -358.0 490.75 -360.0 498.5 -360.0 499.75 -358.75 500.5 -351.0 502.5 M-359.75 487.25 Q-359.5 486.5 -359.5 485.75 L-368.75 483.5 -369.25 484.75 -359.75 487.25 M-366.5 474.75 L-368.25 480.75 -358.75 483.25 Q-357.75 480.25 -357.0 477.0 L-366.5 474.75 M-373.5 482.0 L-382.0 479.75 Q-382.0 480.5 -382.25 481.25 L-374.0 483.5 -373.5 482.0 M-372.75 479.5 L-371.25 473.25 -384.75 469.75 -386.25 474.75 -381.0 476.25 -381.25 477.25 -372.75 479.5 M-132.5 527.25 L-133.75 532.75 -135.25 532.5 -137.75 542.0 -135.75 542.5 -130.75 523.75 -132.75 523.25 -133.75 527.0 -132.5 527.25 M-251.75 679.75 L-250.25 680.0 Q-245.5 662.75 -241.0 645.25 L-242.5 644.75 -251.75 679.75 M-317.5 662.5 L-316.5 659.25 -318.25 659.0 -319.25 662.0 -317.5 662.5 M-312.5 664.0 L-311.5 660.75 -313.5 660.25 -314.25 663.5 -312.5 664.0 M-308.5 661.5 Q-308.75 663.25 -309.25 664.75 L-294.5 668.75 -293.75 665.5 -308.5 661.5 M-322.25 661.25 L-321.5 658.0 -328.25 656.25 -329.0 659.5 -322.25 661.25 M-307.25 580.75 L-308.25 584.5 -274.5 593.5 -273.5 589.5 -307.25 580.75 M-343.25 496.25 L-344.25 496.0 -345.5 496.25 -346.75 497.5 Q-347.5 500.5 -348.5 503.25 L-346.5 503.75 -344.75 498.25 -343.25 496.25 M-338.75 497.5 L-339.25 497.25 -341.25 497.75 -342.5 499.0 -344.0 504.5 -341.75 505.0 -340.0 498.75 -338.75 497.5 M-259.0 535.5 L-256.25 525.75 -317.75 509.5 -317.5 509.25 -323.5 507.5 -326.0 517.5 -259.0 535.5 M-275.5 508.25 L-278.0 507.75 Q-278.25 509.25 -278.75 510.5 L-276.25 511.0 -275.5 508.25 M-270.75 509.75 L-273.0 509.0 Q-273.25 510.5 -273.75 511.75 L-271.5 512.5 -270.75 509.75 M-286.25 505.5 Q-286.5 507.0 -287.0 508.25 L-281.0 509.75 Q-280.5 508.5 -280.25 507.0 L-286.25 505.5 M-253.25 514.25 L-268.25 510.25 -269.75 515.75 -254.75 519.75 -253.25 514.25 M-150.75 590.25 L-149.75 590.5 -151.25 595.75 -152.0 595.5 -154.5 604.25 -152.5 604.75 -149.5 592.75 -149.25 593.0 -138.75 553.0 -140.5 552.5 -150.75 590.25 M-220.75 580.25 L-221.5 580.0 -236.0 634.0 -235.25 634.0 -220.75 580.25 M-223.5 579.5 L-224.75 579.25 -239.25 633.0 -237.75 633.5 -223.5 579.5 M-222.5 571.0 L-221.75 571.0 Q-222.0 572.5 -222.5 573.75 L-222.0 574.0 -219.75 565.5 -221.0 565.25 -222.5 571.0 M-217.0 566.25 L-217.75 566.0 -220.0 574.5 -219.5 574.75 -217.0 566.25 M-200.5 570.75 L-211.75 567.75 -221.75 605.5 -216.25 607.0 -214.75 601.75 -209.25 603.25 -200.5 570.75 M-191.5 460.75 L-193.0 460.25 Q-199.25 484.25 -205.75 508.25 L-205.25 508.5 Q-205.75 511.25 -206.5 513.75 L-207.25 513.75 -218.25 554.75 -216.75 555.0 -191.5 460.75 M-189.0 461.5 L-189.75 461.25 -215.0 555.5 -214.25 555.75 -189.0 461.5 M-158.0 412.5 L-169.25 409.5 -208.75 557.25 -197.75 560.25 -173.5 469.75 -178.0 468.5 -176.75 463.25 -183.0 461.5 -181.25 455.25 -170.25 458.25 Q-164.0 435.5 -158.0 412.5 M-177.25 407.25 L-178.75 407.0 -190.75 452.0 -190.0 452.25 -190.75 455.0 -190.0 455.25 -177.25 407.25 M-174.75 408.0 L-175.25 407.75 -188.25 455.75 -187.5 456.0 Q-181.0 432.0 -174.75 408.0 M-173.0 391.75 L-174.5 391.25 -175.5 395.25 -174.75 395.5 Q-174.75 396.25 -175.0 396.75 L-174.5 396.75 -173.0 391.75 M-170.5 392.25 L-171.25 392.25 -172.5 397.25 -172.0 397.5 -170.5 392.25 M-246.75 437.75 L-247.0 438.75 -235.5 442.0 -234.75 440.0 -233.5 440.5 -233.0 438.75 -269.5 429.0 -270.0 431.5 -246.75 437.75 M-344.5 486.5 L-344.0 484.5 -347.75 479.5 -354.5 477.75 -356.0 484.0 -345.25 486.75 -345.0 486.5 -344.5 486.5 M-333.5 424.25 L-325.5 421.5 -325.0 419.75 -326.0 419.5 -325.75 419.5 -363.0 409.5 -363.0 410.25 -368.5 408.75 -370.0 414.5 -333.5 424.25 M-323.75 381.5 L-322.5 376.5 -339.25 372.0 -340.5 377.0 -323.75 381.5 M-295.0 389.25 L-294.75 388.25 -316.5 382.25 -315.5 378.25 -316.0 378.25 -317.5 383.25 -295.0 389.25 M-248.75 377.25 L-249.5 379.5 -219.5 387.5 Q-219.0 386.25 -218.75 384.75 L-218.5 384.75 -217.75 382.25 -225.75 383.5 -248.75 377.25 M-253.0 392.75 L-253.5 395.0 -261.0 393.0 -262.5 398.0 -224.75 408.0 -222.75 400.75 -253.0 392.75 M-332.75 320.0 L-335.5 319.5 -336.75 324.75 -334.25 325.5 -332.75 320.0 M-119.0 476.5 L-118.25 476.75 -116.75 471.75 -118.75 471.25 -118.75 471.5 -117.75 471.75 -119.25 477.25 -120.25 476.75 -127.75 504.75 -125.75 505.25 -125.5 504.25 -126.75 504.0 Q-125.5 499.75 -124.5 495.5 L-123.25 495.75 -119.75 482.25 -120.5 482.0 -119.0 476.5 M-96.0 393.75 L-97.75 393.25 -103.5 414.5 -102.75 414.75 -104.25 420.25 -105.0 420.0 -118.5 470.5 -116.75 471.0 -97.5 399.5 -98.25 399.25 Q-97.5 397.25 -97.0 395.0 L-96.5 395.25 -96.0 393.75 M-88.25 365.25 L-90.25 364.75 -95.0 382.5 -93.25 383.0 -88.25 365.25 M-141.25 283.0 L-141.75 282.75 -167.0 376.5 -166.25 376.5 -141.25 283.0 M-139.0 258.75 Q-139.25 260.75 -139.75 262.5 L-140.0 262.5 Q-142.75 273.25 -145.75 284.0 L-145.25 284.25 -146.75 290.0 -147.25 290.0 Q-152.75 311.0 -158.5 332.0 L-157.5 332.25 -167.5 369.0 -168.5 368.75 Q-169.75 374.25 -171.25 379.5 L-171.0 379.5 -170.0 375.5 -168.75 376.0 -143.75 282.25 -144.75 282.0 -143.5 277.5 -142.5 277.75 -137.5 259.0 -139.0 258.75 M-135.0 259.75 L-135.5 259.5 Q-138.0 269.0 -140.75 278.25 L-140.0 278.5 -135.0 259.75 M-51.5 227.5 L-53.25 227.0 Q-56.0 237.5 -59.0 247.75 L-57.75 248.0 -59.25 253.75 -60.5 253.5 -74.0 303.75 -73.0 304.0 -74.5 309.5 -75.25 309.25 -84.75 344.0 -82.75 344.5 -82.25 343.0 -83.5 342.75 Q-82.25 338.5 -81.25 334.25 L-80.0 334.5 -71.5 302.5 -72.5 302.25 -71.0 296.75 -70.0 297.0 -51.5 227.5 M-44.0 200.0 L-46.0 199.5 -50.5 216.5 -48.5 217.0 -44.0 200.0 M-110.5 235.0 L-121.75 232.0 Q-124.5 242.75 -127.5 253.25 L-125.75 253.75 -124.5 253.0 -122.0 253.75 -120.75 256.25 -121.5 258.75 Q-122.5 259.5 -123.75 260.0 L-126.25 259.25 -126.5 258.75 -128.75 258.0 Q-132.75 273.5 -137.0 288.75 L-128.25 291.0 Q-129.0 294.25 -130.0 297.25 L-138.5 295.0 -163.0 386.0 -161.0 386.5 -159.75 385.75 -157.25 386.5 -156.0 389.0 -156.75 391.5 Q-157.75 392.25 -159.0 392.75 L-161.5 392.0 -161.75 391.5 -164.25 390.75 Q-165.25 395.0 -166.5 399.0 L-155.25 402.0 -126.75 295.5 -127.0 295.25 -125.5 289.75 -125.25 289.75 -111.75 240.0 -112.0 240.0 -110.5 235.0 M-127.25 230.5 L-127.75 230.25 -132.5 247.75 -131.75 247.75 -127.25 230.5 M-131.25 234.5 L-132.25 234.25 -135.75 246.75 -134.25 247.25 -129.75 229.75 -130.0 229.75 Q-130.5 232.25 -131.25 234.5 M-119.25 186.25 L-119.5 186.0 Q-123.75 202.5 -128.25 219.0 L-127.0 219.25 -116.25 179.25 -117.5 179.0 Q-118.25 182.75 -119.25 186.25 M-102.5 205.25 L-107.25 204.0 -106.25 201.0 -107.0 200.75 Q-106.5 199.5 -106.25 198.0 L-105.5 198.25 -105.5 197.25 -100.75 198.5 -87.75 150.0 -98.75 147.0 -118.75 221.5 -107.75 224.5 Q-105.0 215.0 -102.5 205.25 M-100.75 131.5 L-101.25 131.5 -125.0 219.75 -124.25 220.0 -100.75 131.5 M-101.0 121.5 L-102.0 121.25 -104.5 130.5 -112.75 161.5 -111.5 161.75 Q-107.25 146.5 -103.25 131.0 L-104.5 130.5 -103.0 125.5 -101.75 125.75 -100.0 118.75 -100.25 118.75 -101.0 121.5 M-97.5 119.5 L-98.0 119.25 -100.0 126.25 -99.25 126.5 Q-98.25 123.0 -97.5 119.5 M-86.0 143.75 L-80.75 124.0 -92.0 121.0 Q-94.5 131.0 -97.25 140.75 L-86.0 143.75 M-59.25 58.25 Q-66.5 86.0 -74.0 113.5 L-29.75 125.25 -14.75 67.5 -56.5 56.5 Q-56.75 57.75 -57.25 58.75 L-59.25 58.25 M-89.0 110.5 L-76.5 113.5 Q-69.0 85.5 -61.75 57.5 L-62.75 57.25 -62.0 55.0 -73.5 52.0 -89.0 110.5 M-82.25 52.75 L-83.5 52.25 -91.0 79.75 -90.5 79.75 -92.0 85.25 -92.5 85.25 -98.5 108.0 -97.25 108.25 -82.25 52.75 M-79.75 53.25 L-80.25 53.25 -95.25 108.75 -94.5 109.0 Q-87.0 81.25 -79.75 53.25 M-10.0 72.5 L-11.75 72.0 -26.5 127.0 -24.75 127.5 -26.25 133.0 -28.0 132.5 -40.5 178.75 -38.5 179.25 -38.0 177.75 -38.25 177.75 -36.0 169.25 -35.75 169.25 -30.75 150.5 -31.5 150.5 -30.25 146.25 -29.75 146.5 -10.0 72.5 M-199.5 195.5 L-200.0 197.75 -170.5 205.75 -169.0 200.25 -173.25 202.5 -199.5 195.5 M-223.5 220.75 L-224.25 223.75 -178.75 236.0 Q-176.25 227.5 -174.0 218.75 L-203.5 210.75 Q-203.75 212.0 -204.25 213.0 L-217.25 209.5 -218.5 214.0 -176.0 225.5 -178.0 232.75 -223.5 220.75 M-291.25 194.5 L-274.5 199.0 -273.25 194.5 -290.0 190.0 -291.25 194.5 M-617.5 30.75 L-622.0 30.75 -622.0 31.75 -622.75 31.75 -622.75 38.25 -616.0 38.25 -616.0 31.75 -617.5 31.75 -617.5 30.75 M96.0 124.5 L97.5 124.75 64.75 247.25 70.5 248.75 70.25 249.5 71.5 250.0 72.25 251.0 72.0 252.25 71.5 252.5 71.25 254.0 72.75 254.5 69.25 267.5 63.5 266.0 65.5 258.75 62.0 258.0 43.25 327.75 41.75 327.25 60.5 257.5 57.75 256.75 57.5 257.5 55.25 257.0 55.25 256.25 -8.0 239.25 -8.0 240.0 -10.5 239.25 Q-10.25 239.0 -10.25 238.5 L-22.75 235.25 -23.0 236.25 -26.25 235.25 -26.0 234.25 -48.0 228.5 -48.75 231.0 -46.5 231.5 -47.5 236.0 -49.75 235.25 Q-58.0 266.75 -66.5 298.0 L-65.5 298.25 -67.0 303.75 -68.0 303.5 -74.0 325.5 -52.75 331.25 -52.75 331.75 -28.25 338.25 -26.0 340.75 -26.25 342.5 -27.25 344.5 -28.5 345.25 -30.0 345.25 -54.75 338.5 -55.5 341.0 -52.0 342.0 -54.25 350.5 -57.75 349.5 -62.25 366.5 -60.0 367.0 -65.25 386.25 -67.25 385.75 -67.75 387.25 -89.0 381.5 -89.75 384.0 -67.75 390.0 -67.25 388.25 -63.75 389.25 -64.25 390.75 -52.25 394.0 Q-52.0 393.5 -52.0 392.75 L-49.5 393.5 Q-49.5 394.25 -49.75 394.75 L14.0 411.75 14.25 410.75 16.5 411.25 16.25 412.5 18.75 413.0 29.0 375.0 30.5 375.5 20.25 413.5 26.25 415.0 26.25 415.25 27.25 415.5 27.75 416.75 27.5 418.0 27.25 418.25 26.75 419.75 28.25 420.25 24.75 433.0 19.25 431.75 21.0 425.0 17.5 424.0 -18.0 556.5 -19.5 556.25 16.0 423.75 13.25 423.0 13.25 423.25 10.75 422.5 10.75 422.25 -52.5 405.25 -52.5 405.5 -55.0 405.0 -54.75 404.75 -67.25 401.5 -67.25 401.75 -70.75 401.0 -70.5 400.5 -92.5 394.5 -93.0 396.25 -91.75 396.5 -92.75 400.75 -94.0 400.5 -114.5 476.5 -111.5 477.25 -113.0 482.75 -113.5 482.5 Q-112.75 480.25 -112.25 477.75 L-114.5 477.0 Q-114.5 477.5 -114.75 477.75 L-113.5 478.0 -115.0 483.5 -116.25 483.25 -117.25 486.75 -96.0 492.5 -96.0 493.0 -71.5 499.5 -69.25 502.0 Q-69.25 503.0 -69.5 503.75 -69.75 504.75 -70.25 505.75 L-71.75 506.5 -73.25 506.5 -98.0 499.75 -98.5 502.5 -95.25 503.25 Q-96.25 507.5 -97.5 511.75 L-101.0 510.75 -105.5 528.0 -103.25 528.5 -108.25 547.0 -110.5 546.5 -111.0 548.5 -132.25 542.75 -132.25 543.25 -109.75 549.5 -109.5 548.75 -107.0 549.5 -107.25 550.0 -91.75 554.25 -91.75 553.75 -89.25 554.25 -89.25 555.0 -28.75 571.0 -28.75 570.5 -26.25 571.25 -26.25 571.75 -15.75 574.5 -15.75 574.75 -15.5 575.0 -14.75 576.0 -15.25 577.5 -15.5 577.5 -16.0 579.0 -14.5 579.5 -18.0 592.5 -23.5 591.0 Q-22.5 587.75 -21.75 584.25 L-29.5 582.25 Q-29.5 582.75 -29.75 583.0 L-32.0 582.5 -31.75 581.5 -92.25 565.5 -92.5 566.25 -94.75 565.75 -94.75 564.75 -110.0 560.75 Q-110.0 561.25 -110.25 561.5 L-112.75 560.75 -112.5 560.0 -135.25 554.0 -145.75 593.75 -143.0 594.5 -144.75 600.75 -147.5 600.0 -174.0 698.5 -171.0 699.25 -172.75 705.5 -173.25 705.25 -171.75 699.75 -174.0 699.0 -174.25 700.0 -173.75 700.0 -174.75 704.25 -175.5 704.0 -175.5 704.75 -179.0 703.75 -179.0 703.25 -179.25 703.0 -178.25 698.75 -177.75 699.0 Q-177.5 698.75 -177.5 698.25 L-177.75 698.25 Q-177.5 698.0 -177.5 697.5 L-177.25 697.5 Q-172.5 680.25 -168.0 662.75 L-168.25 662.75 Q-168.0 662.25 -168.0 661.5 L-167.75 661.75 -154.25 611.0 -156.0 610.5 -161.0 629.0 -160.0 629.25 Q-160.0 630.0 -160.25 630.5 L-161.5 630.25 -180.25 700.25 -179.5 700.25 -180.75 704.5 -181.25 704.5 Q-181.25 705.25 -181.5 705.75 L-182.75 705.5 -194.75 750.5 -193.75 750.75 -195.25 756.5 -200.75 755.0 -199.25 749.25 -198.25 749.5 -186.0 704.5 -233.0 692.0 -228.5 675.5 -229.25 675.25 -228.25 672.0 -227.75 672.25 -227.25 670.5 -227.75 670.25 -226.75 666.75 -226.25 666.75 -212.25 614.75 -223.5 611.75 -231.0 639.5 -228.75 640.0 -227.5 639.5 -225.0 640.0 -224.0 642.5 -224.75 645.0 Q-225.75 645.75 -227.0 646.25 L-229.5 645.75 -229.75 645.0 -232.75 644.25 -233.5 647.25 -237.5 646.25 Q-242.0 663.75 -246.75 681.0 L-246.25 681.25 -248.0 688.0 -258.0 685.25 -258.25 685.75 -254.75 686.75 -303.5 869.0 -304.0 869.0 -305.75 875.5 -308.25 874.75 Q-307.25 871.5 -306.5 868.25 L-307.0 868.0 -341.5 858.75 -342.0 858.75 Q-342.75 862.0 -343.75 865.0 L-345.5 864.5 Q-344.5 861.5 -343.75 858.25 L-344.5 858.0 -296.0 677.5 -363.75 659.25 -367.0 670.75 -372.75 669.0 -369.75 657.75 -379.25 655.0 -380.5 659.0 -400.0 653.75 -401.5 653.0 -402.5 652.0 -403.25 650.25 Q-403.0 649.25 -403.0 648.25 L-401.0 641.0 -423.5 635.0 -423.75 636.0 -438.5 632.25 Q-437.25 628.0 -436.25 623.5 L-429.75 625.25 -424.75 606.5 -433.25 604.25 -432.75 602.5 -441.5 600.25 -441.75 601.25 -451.5 598.75 -453.0 604.5 -449.25 605.5 -451.75 615.5 -461.5 613.0 -459.0 603.0 -454.75 604.0 -453.25 598.5 -465.25 595.25 -458.25 570.0 -453.75 571.25 -453.25 569.0 -433.75 574.25 -434.0 576.0 -426.25 578.25 Q-426.0 577.75 -426.0 577.0 L-417.25 579.25 Q-416.25 576.0 -415.5 572.75 L-415.75 572.5 -415.25 570.0 -419.5 569.0 -419.5 568.75 -421.5 568.0 -404.75 505.0 -430.0 498.25 -430.25 498.75 -433.25 498.0 -433.25 497.5 -466.25 488.5 -466.5 489.0 -469.5 488.25 -469.5 487.75 -574.0 459.75 -574.25 459.75 -647.0 439.5 -648.5 439.5 -649.5 440.75 -649.5 496.75 -640.0 498.5 -629.75 507.5 -625.25 520.25 -628.0 533.75 -637.0 544.0 -646.5 547.25 -646.5 550.0 -656.75 550.0 -656.75 547.0 -663.25 545.75 -673.5 536.75 -677.75 524.0 -675.25 510.5 -666.25 500.25 -654.75 496.25 -654.75 441.25 -654.25 439.25 Q-653.75 438.5 -653.5 437.5 L-651.5 436.0 -650.0 435.25 -648.25 435.0 -646.75 435.0 -642.5 435.75 -402.25 500.0 -403.0 503.5 -399.0 504.5 -410.5 547.5 -400.5 550.0 -402.75 558.0 -365.75 568.0 -365.5 567.0 -364.5 567.25 -363.75 564.25 -357.0 566.0 Q-356.25 563.5 -355.75 560.75 L-387.5 552.25 Q-381.0 528.5 -374.75 504.5 L-330.75 516.25 -328.25 506.25 -338.75 503.5 -339.5 506.75 -339.75 506.75 Q-339.75 507.5 -340.0 508.0 L-359.5 502.75 -361.0 502.0 -362.0 500.75 -362.75 499.25 Q-362.5 498.25 -362.5 497.0 L-360.5 490.0 -370.0 487.5 -373.25 499.75 -373.75 501.0 -375.25 502.5 -376.5 503.5 -378.25 504.25 -382.5 504.5 -589.0 449.25 -589.25 449.5 -596.0 447.75 -594.5 442.75 -592.75 443.25 -592.75 442.5 -574.0 447.5 -573.75 446.5 -570.75 447.25 -571.0 448.25 -466.25 476.25 -466.25 475.75 -463.0 476.5 Q-463.0 477.0 -463.25 477.25 L-430.0 486.0 -430.0 485.25 -426.75 486.25 -427.0 486.75 -380.0 499.5 -378.5 499.0 -377.75 498.0 -374.75 486.25 -383.0 484.0 -383.25 485.0 -398.0 481.0 Q-396.75 476.75 -395.75 472.25 L-388.75 474.0 Q-386.25 464.75 -384.0 455.5 L-392.75 453.0 -392.25 451.25 -401.0 449.0 Q-401.0 449.75 -401.25 450.25 L-411.0 447.5 -412.5 453.5 -408.75 454.5 -411.25 464.5 -421.0 461.75 -418.5 451.75 -414.25 453.0 -412.75 447.25 -424.75 444.0 Q-421.25 431.5 -418.0 418.75 L-413.25 420.0 -412.75 418.0 -393.25 423.25 Q-393.25 424.25 -393.5 425.0 L-385.75 427.0 Q-385.5 426.5 -385.5 425.75 L-376.5 428.0 -372.75 413.75 -372.5 413.75 -371.0 408.0 -375.0 407.0 Q-374.75 406.75 -374.75 406.25 L-375.0 406.25 Q-374.5 405.0 -374.25 403.5 L-374.0 403.5 -372.25 396.75 -360.25 399.75 -362.25 406.75 -325.25 416.75 -324.75 415.0 -323.75 415.25 -323.25 413.25 -316.5 415.25 -315.5 411.25 -322.75 409.25 -319.25 396.5 -290.25 404.25 -293.5 415.75 -231.25 432.5 -226.5 414.5 -264.0 404.25 -265.25 408.25 -297.75 399.5 -296.75 395.75 -348.25 381.75 -346.75 375.75 -352.0 374.25 -344.25 345.25 -340.0 346.5 -337.0 335.75 -346.75 333.25 -344.0 322.75 -339.0 324.0 Q-338.25 321.5 -337.75 318.75 L-345.5 316.75 -343.25 308.75 -346.0 308.0 Q-346.0 308.5 -346.25 308.75 L-359.5 316.5 -374.25 312.5 -382.0 299.5 -378.25 284.75 -365.0 277.0 -350.25 280.75 -342.5 294.0 Q-342.5 294.5 -342.75 294.75 L-339.75 295.5 -338.25 290.0 -321.75 294.5 -317.75 280.25 -318.0 280.25 -308.5 245.0 -189.75 276.75 -188.75 272.5 -188.5 272.75 Q-188.25 272.25 -188.25 271.5 L-303.5 240.5 -294.25 205.0 -248.75 217.25 Q-248.25 215.75 -248.0 214.25 L-300.25 200.0 -298.5 193.5 -302.75 192.5 -295.0 163.5 -286.5 165.75 -279.5 139.25 -286.5 137.25 -288.0 142.5 -284.0 143.75 Q-285.25 149.0 -286.75 154.0 L-297.5 151.25 -294.75 140.75 -290.25 142.0 Q-289.5 139.5 -289.0 136.75 L-296.25 134.75 Q-295.0 130.75 -294.0 126.75 L-296.75 126.0 Q-296.75 126.5 -297.0 126.75 L-310.25 134.5 -325.0 130.5 -332.75 117.5 -329.0 102.75 -315.75 95.0 -301.0 98.75 -293.25 112.0 -293.5 112.75 -290.5 113.5 -289.0 108.25 -272.25 112.75 -262.75 77.0 -406.25 38.75 -589.5 38.75 -589.5 57.75 -615.0 57.75 -615.0 58.0 -617.5 58.0 -617.5 57.75 -622.25 57.75 -622.25 58.0 -624.75 58.0 -624.75 38.25 -624.0 38.25 -624.0 31.75 -624.75 31.75 -624.75 29.0 -622.0 29.0 -622.0 29.5 -617.5 29.5 -617.5 29.0 -614.75 29.0 -614.75 31.75 -615.0 31.75 -615.0 38.25 -600.25 38.25 -600.25 27.5 -594.75 27.5 -594.75 24.0 -591.0 24.0 -591.0 27.5 -404.75 27.5 -404.75 28.0 -404.5 27.75 -260.0 66.25 -259.0 63.25 -170.5 87.0 -171.0 88.75 -141.25 96.5 -124.5 34.0 -124.0 34.0 -118.25 35.5 -118.25 35.75 -77.75 46.75 -78.0 48.25 -61.5 52.5 Q-61.25 52.0 -61.25 51.5 L-55.75 53.0 -56.0 54.0 -14.25 65.25 -12.75 62.25 -9.5 63.25 -10.25 66.0 -3.5 68.0 -5.25 73.75 -6.5 73.5 -26.25 147.5 -26.0 147.5 Q-27.75 154.0 -29.75 160.25 L-7.5 166.25 -7.75 166.75 17.0 173.5 18.25 174.5 19.25 175.75 19.0 177.5 18.0 179.5 16.75 180.25 15.25 180.25 -9.5 173.5 -10.25 176.25 -6.75 177.0 -9.0 185.5 -12.5 184.75 -17.0 201.75 -15.0 202.25 -20.0 221.25 -22.0 220.75 -22.5 222.25 -44.75 216.25 -45.25 217.75 -23.25 223.75 -22.75 222.5 -19.5 223.5 Q-19.5 224.25 -19.75 224.75 L-7.75 228.0 -7.5 227.25 -5.0 227.75 Q-5.0 228.25 -5.25 228.5 L58.5 245.5 58.5 245.0 61.0 245.75 60.75 246.25 63.25 247.0 96.0 124.5" fill="#424242" fill-rule="evenodd" stroke="none"/>
    <path d="M-261.25 285.0 Q-270.0 318.0 -279.0 350.75 L-217.0 367.25 -199.25 301.75 -261.25 285.0 M-302.25 283.5 L-317.5 340.25 -288.5 348.0 -273.25 291.25 -302.25 283.5 M-268.75 156.5 L-239.75 164.25 -224.75 107.5 -253.5 100.0 -268.75 156.5 M-230.25 167.0 L-168.25 183.75 Q-159.25 151.0 -150.5 118.0 L-212.5 101.5 -230.25 167.0 M-204.0 220.25 L-201.25 210.0 -225.0 203.75 -222.5 194.25 -257.5 185.0 -278.5 263.0 -186.5 287.75 -165.25 209.75 -189.0 203.25 -194.25 222.75 -204.0 220.25 M-267.25 182.25 L-284.5 177.75 -256.75 74.25 -120.0 111.0 -129.75 147.25 -110.25 152.5 -119.25 187.5 -139.25 182.0 -147.75 214.25 -155.5 212.25 Q-166.0 251.25 -176.75 290.25 L-168.5 292.5 -178.5 329.25 -159.0 334.5 -168.75 369.5 -187.75 364.0 -196.25 395.75 -237.5 384.75 -243.0 405.0 -252.75 402.25 -250.0 392.25 -273.75 385.75 -271.0 375.75 -333.0 359.25 -305.25 255.75 -288.25 260.5 -267.25 182.25" fill="#424242" fill-rule="evenodd" stroke="none"/>
    <path d="M-304.5 352.0 L-302.5 344.25 -288.5 348.0 -272.75 289.25 -302.5 281.25 -320.5 347.75 -304.5 352.0 M-198.25 300.75 L-193.5 302.0 -191.5 294.25 -207.5 290.0 Q-208.25 293.5 -209.25 297.0 L-262.5 282.75 -280.5 350.0 -216.0 367.25 -198.25 300.75 M-213.0 196.0 L-215.5 205.75 -224.0 203.5 -221.5 193.75 -258.0 184.0 -279.5 264.5 -253.75 271.25 -255.75 278.25 -239.5 282.75 -237.5 275.5 -185.75 289.5 Q-174.75 249.25 -164.0 209.0 L-172.75 206.75 -170.5 198.75 -186.75 194.5 -189.0 202.5 -213.0 196.0 M-271.5 165.75 L-255.5 170.0 -253.5 162.0 -239.5 165.75 -223.75 107.25 -253.5 99.25 -271.5 165.75 M-204.75 89.25 L-206.75 96.25 -190.5 100.5 -188.5 93.25 -121.25 111.5 Q-134.75 162.5 -148.5 213.25 L-156.5 211.0 -178.0 291.5 -170.25 293.5 -197.5 395.25 -221.75 388.75 Q-220.5 385.0 -219.5 381.0 L-235.75 376.75 Q-236.75 380.75 -238.0 384.5 L-262.0 378.25 -264.5 388.0 -273.0 385.5 -270.5 375.75 -332.0 359.25 -304.5 257.75 -287.25 262.5 -265.75 181.75 -283.0 177.25 -255.5 75.75 -204.75 89.25 M-158.5 107.75 Q-159.25 111.25 -160.25 114.75 L-213.5 100.5 -231.5 167.75 -167.0 185.25 -149.25 118.75 -144.5 120.0 -142.5 112.0 -158.5 107.75" fill="#959595" fill-rule="evenodd" stroke="none"/>
    <path d="M-179.75 335.5 L-172.75 340.75 -177.25 356.75 -174.5 357.25 -170.25 341.25 -171.25 341.0 Q-170.0 337.0 -169.0 332.75 L-160.5 335.25 -169.25 367.5 -187.0 362.75 -179.75 335.5" fill="#ffffff" fill-rule="evenodd" stroke="none"/>
    <path d="M-131.75 157.25 L-124.0 159.25 -128.5 175.0 -125.25 175.75 -121.25 159.5 -123.0 159.0 -120.5 150.75 -111.5 153.25 Q-115.75 169.75 -120.25 186.0 L-138.25 181.0 -131.75 157.25" fill="#ffffff" fill-rule="evenodd" stroke="none"/>
    <path d="M-329.75 661.25 L-306.25 667.5 -308.0 673.25 -331.5 667.0 -329.75 661.25" fill="#ffffff" fill-rule="evenodd" stroke="none"/>
    <path d="M-267.5 522.5 L-290.75 516.25 -289.25 510.75 -266.0 517.0 -267.5 522.5" fill="#ffffff" fill-rule="evenodd" stroke="none"/>
    <path d="M-124.0 159.25 L-140.5 155.0 Q-139.25 150.5 -138.25 146.0 L-121.5 150.0 -124.0 159.25" fill="#959595" fill-rule="evenodd" stroke="none"/>
    <path d="M-172.75 340.75 L-189.25 336.5 -186.75 328.25 -170.5 332.5 Q-171.5 336.75 -172.75 340.75" fill="#959595" fill-rule="evenodd" stroke="none"/>
    <path d="M-260.0 380.25 L-259.5 380.5 Q-260.25 384.0 -261.25 387.5 L-261.75 387.25 -260.0 380.25" fill="#959595" fill-rule="evenodd" stroke="none"/>
    <path d="M-260.5 387.75 L-261.0 387.5 -259.0 380.5 -258.5 380.75 -260.5 387.75" fill="#959595" fill-rule="evenodd" stroke="none"/>
    <path d="M-258.25 380.75 L-257.75 381.0 -259.5 388.0 -260.0 387.75 -258.25 380.75" fill="#959595" fill-rule="evenodd" stroke="none"/>
    <path d="M-259.25 388.0 L-257.25 381.0 -256.75 381.25 -258.75 388.25 -259.25 388.0" fill="#959595" fill-rule="evenodd" stroke="none"/>
    <path d="M-256.5 381.25 L-256.0 381.5 -257.75 388.5 -258.25 388.25 Q-257.25 384.75 -256.5 381.25" fill="#959595" fill-rule="evenodd" stroke="none"/>
    <path d="M-257.0 388.75 L-257.5 388.5 -255.5 381.5 -255.0 381.75 -257.0 388.75" fill="#959595" fill-rule="evenodd" stroke="none"/>
    <path d="M-256.5 388.75 L-254.75 381.75 -254.25 382.0 -256.0 389.0 -256.5 388.75" fill="#959595" fill-rule="evenodd" stroke="none"/>
    <path d="M-255.75 389.0 L-253.75 382.0 -253.25 382.25 -255.25 389.25 -255.75 389.0" fill="#959595" fill-rule="evenodd" stroke="none"/>
    <path d="M-254.75 389.25 L-253.0 382.25 -252.5 382.5 Q-253.25 386.0 -254.25 389.25 L-254.75 389.25" fill="#959595" fill-rule="evenodd" stroke="none"/>
    <path d="M-251.25 382.75 L-250.75 382.75 -252.5 389.75 -253.0 389.75 -251.25 382.75" fill="#959595" fill-rule="evenodd" stroke="none"/>
    <path d="M-237.0 384.75 L-235.25 377.75 -234.75 378.0 -236.5 385.0 -237.0 384.75" fill="#959595" fill-rule="evenodd" stroke="none"/>
    <path d="M-234.25 378.0 L-233.75 378.25 -235.75 385.25 -236.25 385.0 -234.25 378.0" fill="#959595" fill-rule="evenodd" stroke="none"/>
    <path d="M-233.5 385.75 L-231.75 378.75 -231.25 378.75 -233.0 385.75 -233.5 385.75" fill="#959595" fill-rule="evenodd" stroke="none"/>
    <path d="M-231.0 386.5 L-229.0 379.5 -228.5 379.5 -230.5 386.5 -231.0 386.5" fill="#959595" fill-rule="evenodd" stroke="none"/>
    <path d="M-230.0 386.75 L-228.25 379.75 -227.75 379.75 -229.5 386.75 -230.0 386.75" fill="#959595" fill-rule="evenodd" stroke="none"/>
    <path d="M-229.0 387.0 L-227.25 380.0 -226.75 380.0 -228.75 387.0 -229.0 387.0" fill="#959595" fill-rule="evenodd" stroke="none"/>
    <path d="M-226.0 387.75 L-226.5 387.5 -224.5 380.5 -224.0 380.75 -226.0 387.75" fill="#959595" fill-rule="evenodd" stroke="none"/>
    <path d="M-222.75 381.0 L-222.25 381.25 -224.25 388.25 -224.75 388.0 -222.75 381.0" fill="#959595" fill-rule="evenodd" stroke="none"/>
    <path d="M-319.0 347.5 L-317.25 340.5 -316.75 340.5 -318.5 347.5 -319.0 347.5" fill="#959595" fill-rule="evenodd" stroke="none"/>
    <path d="M-315.5 348.5 L-313.75 341.5 -313.25 341.5 -315.0 348.5 -315.5 348.5" fill="#959595" fill-rule="evenodd" stroke="none"/>
    <path d="M-313.0 349.0 L-311.0 342.0 -310.5 342.25 -312.5 349.25 -313.0 349.0" fill="#959595" fill-rule="evenodd" stroke="none"/>
    <path d="M-312.0 349.25 L-310.25 342.25 -309.75 342.5 -311.5 349.5 -312.0 349.25" fill="#959595" fill-rule="evenodd" stroke="none"/>
    <path d="M-311.0 349.5 L-309.25 342.5 -308.75 342.75 -310.75 349.75 -311.0 349.5" fill="#959595" fill-rule="evenodd" stroke="none"/>
    <path d="M-307.5 343.0 L-307.0 343.25 -308.75 350.25 -309.25 350.0 Q-308.25 346.5 -307.5 343.0" fill="#959595" fill-rule="evenodd" stroke="none"/>
    <path d="M-308.0 350.5 L-308.5 350.25 -306.5 343.25 -306.0 343.5 -308.0 350.5" fill="#959595" fill-rule="evenodd" stroke="none"/>
    <path d="M-304.75 343.75 L-304.25 344.0 -306.25 351.0 -306.75 350.75 -304.75 343.75" fill="#959595" fill-rule="evenodd" stroke="none"/>
    <path d="M-250.0 390.5 L-264.25 386.75 -262.25 379.75 -248.0 383.5 -250.0 390.5" fill="#ffffff" fill-rule="evenodd" stroke="none"/>
    <path d="M-304.25 351.5 L-319.0 347.5 -317.25 340.25 -302.25 344.25 -304.25 351.5" fill="#ffffff" fill-rule="evenodd" stroke="none"/>
    <path d="M-240.75 281.75 L-255.5 277.75 -253.75 271.25 -239.0 275.25 -240.75 281.75" fill="#ffffff" fill-rule="evenodd" stroke="none"/>
    <path d="M-194.5 301.0 L-209.25 297.0 -207.5 290.5 -192.75 294.5 -194.5 301.0" fill="#ffffff" fill-rule="evenodd" stroke="none"/>
    <path d="M-223.25 388.75 L-238.0 384.5 -236.0 377.75 -221.25 381.5 -223.25 388.75" fill="#ffffff" fill-rule="evenodd" stroke="none"/>
    <path d="M-201.0 208.5 L-215.25 204.5 Q-214.25 201.0 -213.5 197.5 L-199.0 201.5 -201.0 208.5" fill="#ffffff" fill-rule="evenodd" stroke="none"/>
    <path d="M-255.25 169.25 L-270.25 165.25 -268.25 158.0 -253.5 162.0 Q-254.25 165.75 -255.25 169.25" fill="#ffffff" fill-rule="evenodd" stroke="none"/>
    <path d="M-191.75 99.5 L-206.75 95.5 -205.0 89.25 -190.0 93.0 -191.75 99.5" fill="#ffffff" fill-rule="evenodd" stroke="none"/>
    <path d="M-145.5 118.75 L-160.25 114.75 -158.75 108.25 -143.75 112.5 -145.5 118.75" fill="#ffffff" fill-rule="evenodd" stroke="none"/>
    <path d="M-174.25 206.5 L-189.0 202.5 -187.25 195.5 -172.5 199.5 Q-173.25 203.0 -174.25 206.5" fill="#ffffff" fill-rule="evenodd" stroke="none"/>
    <path d="M-245.25 671.25 L-234.25 631.5 -227.5 633.0 -240.0 680.0 -255.25 676.0 -253.25 669.0 -245.25 671.25" fill="#424242" fill-rule="evenodd" stroke="none"/>
    <path d="M-179.25 692.25 Q-178.25 688.75 -177.5 685.0 L-171.75 686.5 -173.75 693.75 -179.25 692.25" fill="#424242" fill-rule="evenodd" stroke="none"/>
    <path d="M-168.5 654.0 L-163.0 655.5 -164.5 661.25 -170.0 659.75 -168.5 654.0" fill="#424242" fill-rule="evenodd" stroke="none"/>
    <path d="M-228.5 634.0 L-240.75 679.0 -254.25 675.25 -252.75 670.0 -244.25 672.5 Q-238.75 652.75 -233.5 632.75 L-228.5 634.0" fill="#959595" fill-rule="evenodd" stroke="none"/>
    <path d="M-235.25 646.0 L-237.0 645.5 -236.25 642.5 -234.5 643.0 -235.25 646.0" fill="#ffffff" fill-rule="evenodd" stroke="none"/>
    <path d="M-173.0 190.0 L-175.25 189.25 -174.75 187.0 -172.25 187.5 -173.0 190.0" fill="#424242" fill-rule="evenodd" stroke="none"/>
    <path d="M-186.25 186.5 L-188.75 185.75 -188.25 183.25 -185.75 184.0 -186.25 186.5" fill="#424242" fill-rule="evenodd" stroke="none"/>
    <path d="M-195.75 183.75 L-198.25 183.25 Q-197.75 182.0 -197.5 180.75 L-195.0 181.5 Q-195.25 182.75 -195.75 183.75" fill="#424242" fill-rule="evenodd" stroke="none"/>
    <path d="M-228.0 172.25 L-230.25 171.5 -229.75 169.0 -227.25 169.75 -228.0 172.25" fill="#424242" fill-rule="evenodd" stroke="none"/>
    <path d="M-178.75 189.75 L-183.5 188.5 Q-182.75 186.25 -182.25 183.75 L-177.5 185.0 Q-178.0 187.5 -178.75 189.75" fill="#424242" fill-rule="evenodd" stroke="none"/>
    <path d="M-221.75 372.25 L-224.25 371.5 -223.5 369.0 -221.0 369.75 -221.75 372.25" fill="#424242" fill-rule="evenodd" stroke="none"/>
    <path d="M-235.25 368.5 L-237.5 368.0 -237.0 365.5 -234.5 366.25 -235.25 368.5" fill="#424242" fill-rule="evenodd" stroke="none"/>
    <path d="M-244.5 366.0 L-247.0 365.25 Q-246.5 364.25 -246.25 363.0 L-244.0 363.5 -244.5 366.0" fill="#424242" fill-rule="evenodd" stroke="none"/>
    <path d="M-276.75 354.25 L-279.0 353.75 -278.5 351.25 -276.0 352.0 Q-276.25 353.25 -276.75 354.25" fill="#424242" fill-rule="evenodd" stroke="none"/>
    <path d="M-227.5 372.0 L-232.25 370.75 Q-231.5 368.5 -231.0 366.0 L-226.25 367.25 Q-226.75 369.75 -227.5 372.0" fill="#424242" fill-rule="evenodd" stroke="none"/>
  </g>
</svg>
