<?xml version="1.0" encoding="UTF-8" standalone="no"?>
<svg xmlns:ffdec="https://www.free-decompiler.com/flash" xmlns:xlink="http://www.w3.org/1999/xlink" ffdec:objectType="shape" height="314.8px" width="614.8px" xmlns="http://www.w3.org/2000/svg">
  <g transform="matrix(1.0, 0.0, 0.0, 1.0, 589.5, 199.6)">
    <path d="M-497.65 -185.85 L-497.05 -163.9 -513.8 -163.4 -513.85 -165.95 -528.9 -165.55 -535.35 -161.15 -542.6 -155.35 -548.05 -150.0 -548.35 -149.5 -548.95 -147.95 -549.4 -146.0 -549.6 -142.25 -547.55 -124.85 -547.45 -124.5 -544.7 -124.65 -543.75 -114.65 -537.3 -115.3 -537.25 -114.95 -535.35 -115.1 -533.85 -98.4 -533.1 -98.4 -527.25 -99.0 -526.7 -94.65 -496.95 -97.6 -490.75 -97.55 -485.1 -96.85 -478.85 -95.2 -471.85 -92.15 -466.15 -88.85 -460.65 -84.75 -452.9 -76.9 -447.7 -69.45 -442.15 -58.65 -438.35 -48.55 -433.85 -43.95 -427.45 -42.1 -401.3 -38.3 -375.95 -38.75 -373.05 -16.05 -400.65 -15.55 -433.05 -19.65 -437.65 -20.95 -449.35 -26.0 -453.3 -18.2 -454.4 -14.5 -452.55 -14.5 -452.55 -4.5 -291.4 -4.5 -291.4 -8.4 -273.1 -8.4 -273.1 7.15 -259.35 11.7 -255.15 0.55 -238.0 6.95 -241.75 16.9 -241.45 17.0 -241.95 18.3 -238.1 19.65 -237.15 16.95 -220.85 23.35 -221.35 26.1 -213.75 30.55 -208.2 34.8 -206.2 32.75 -197.0 41.4 -193.1 36.35 -205.35 25.85 -193.6 11.3 -180.65 21.95 -170.95 10.5 -171.25 10.25 -169.0 6.9 -170.85 5.05 -139.85 -32.65 -112.3 -8.75 -101.9 -16.65 -95.85 -24.55 -95.4 -27.1 -92.95 -32.05 -86.1 -36.4 -75.55 -36.85 -74.6 -37.1 -68.75 -39.8 -62.25 -42.15 -59.7 -43.9 -56.05 -45.5 -53.4 -47.3 -50.15 -48.1 -49.45 -48.4 -49.45 -48.25 -43.15 -49.75 -39.6 -50.05 -21.4 -48.35 -16.15 -43.75 -11.9 -42.4 -3.6 -37.25 2.1 -32.5 7.65 -25.45 11.65 -18.2 14.65 -11.1 15.45 -6.7 16.4 -6.6 25.3 0.5 18.0 6.6 19.35 13.55 15.65 13.95 14.9 22.35 2.65 12.35 -8.35 27.45 -10.1 16.7 -9.35 12.4 -12.95 -8.4 -15.2 -9.7 -17.7 -9.7 -25.9 -14.35 -29.85 -16.05 -35.15 -16.95 -40.5 -17.0 -46.85 -15.2 -50.4 -14.95 -57.15 -17.0 -64.0 -14.5 -74.05 -9.9 -77.15 -7.55 -80.1 -4.65 -82.8 -0.9 -92.6 8.25 -98.15 16.55 -90.3 23.25 -88.65 24.35 -85.0 28.1 -82.85 29.35 -72.15 38.2 -84.3 61.35 -97.4 53.95 -102.2 50.65 -131.9 25.4 -138.3 33.05 -140.75 31.05 -142.3 32.85 -142.05 33.1 -146.8 38.35 -143.3 41.4 -146.85 45.55 -146.8 45.6 -152.1 51.85 -150.3 53.4 -158.85 63.45 -164.35 58.9 -169.4 64.9 -157.9 74.2 -159.85 76.6 -155.2 81.75 -149.2 90.4 -146.4 89.55 -139.85 103.5 -143.2 105.55 -141.9 108.85 -151.25 105.15 -154.05 115.2 -155.9 111.85 -159.5 113.6 -166.4 98.85 -164.2 97.55 -167.3 92.9 -170.2 89.4 -170.25 89.35 -171.6 90.95 -183.6 81.95 -188.45 87.75 -196.5 81.05 -203.05 88.75 -220.0 74.9 -213.1 66.9 -216.1 64.2 -211.15 58.3 -221.45 48.5 -219.7 46.7 -224.0 43.3 -226.6 42.2 -228.05 41.25 -229.0 43.85 -244.55 37.55 -243.75 35.25 -257.95 29.9 -258.1 29.95 -271.4 33.3 -279.4 36.35 -282.15 37.85 -282.95 38.7 -284.4 40.8 -285.65 43.45 -290.25 60.9 -287.9 61.55 -292.5 77.8 -294.9 77.15 -295.3 77.9 -291.6 82.6 -292.8 86.75 -290.85 87.7 -293.3 92.0 -294.5 91.35 -295.05 92.4 -293.25 93.6 -298.25 99.6 -302.05 96.1 -305.0 98.25 -312.15 92.15 -324.55 83.15 -329.7 80.1 -329.75 80.1 -339.2 75.2 -339.15 74.9 -354.45 68.25 -362.7 65.5 -368.1 64.2 -368.35 64.55 -377.2 62.6 -386.7 61.05 -386.95 60.7 -396.95 60.1 -410.35 60.45 -410.4 60.8 -422.5 61.8 -437.0 64.85 -457.95 71.15 -467.65 72.6 -475.65 72.5 -486.9 71.25 -505.2 66.55 -503.75 62.6 -511.2 59.65 -521.4 54.05 -525.2 51.4 -528.3 54.7 -534.05 47.95 -539.25 40.45 -543.25 33.25 -545.35 28.35 -555.9 30.05 -561.15 -41.9 -564.55 -82.35 -563.3 -82.45 -566.0 -112.4 -565.4 -112.45 -567.0 -122.85 -563.9 -123.0 -563.85 -124.5 -564.6 -129.8 -564.95 -136.7 -566.1 -141.8 -565.95 -146.6 -564.5 -153.65 -563.1 -156.6 -561.65 -158.85 -557.85 -163.65 -557.15 -164.3 -566.95 -163.2 -576.05 -161.25 -583.0 -157.35 -589.5 -173.3 -579.0 -178.6 -568.6 -182.7 -553.2 -183.85 -540.4 -181.85 -540.4 -193.9 -538.4 -193.9 -538.4 -199.6 -529.55 -190.6 -520.75 -199.6 -520.75 -193.9 -518.55 -193.9 -518.55 -182.6 -514.35 -182.65 -514.4 -185.35 -497.65 -185.85" fill="#000000" fill-rule="evenodd" stroke="none"/>
    <path d="M-300.1 49.25 L-299.35 49.55 -299.25 49.15 -297.3 43.75 -296.55 39.7 -297.35 39.35 -300.1 49.25 M-353.75 28.9 L-355.45 28.9 -355.45 39.6 -407.7 39.6 -407.7 24.7 -409.1 24.7 -409.1 39.6 -436.35 39.6 -436.35 40.45 -434.55 40.45 -434.55 46.85 -436.9 46.85 -438.1 47.3 -438.1 50.2 -429.45 47.95 -430.0 45.15 -419.35 43.45 -399.75 42.4 -399.8 45.5 -384.95 46.15 -384.55 43.15 -378.5 44.0 -362.25 47.35 -357.55 48.65 -358.5 51.75 -356.0 52.6 -355.1 52.55 -352.2 53.65 -351.55 53.8 -351.25 54.15 -346.1 56.05 -345.25 56.2 -337.4 59.2 -336.35 56.9 -335.75 56.8 -316.85 67.0 -307.25 73.6 -306.6 73.85 -306.0 73.0 -304.9 72.85 -303.9 69.4 -307.5 68.4 -305.6 61.8 -303.6 62.35 -301.25 56.75 -299.95 52.15 -300.8 51.75 -301.4 54.0 -311.05 51.25 -305.6 32.0 -296.05 34.6 -296.9 37.65 -295.9 38.05 -295.9 38.0 -293.2 33.0 -290.95 30.35 -287.7 27.75 -283.1 25.35 -273.2 21.5 -271.7 21.15 -271.35 20.5 -271.35 20.1 -271.5 19.75 -272.0 19.4 -285.6 15.15 -298.35 11.8 -298.35 14.2 -305.25 14.2 -305.25 10.6 -309.35 10.6 -309.35 20.85 -303.5 20.85 -303.5 27.6 -309.35 27.6 -309.35 39.65 -353.75 39.65 -353.75 28.9 M-495.2 -76.5 L-495.25 -76.4 -523.0 -73.65 -529.6 -73.8 -529.6 -73.65 -529.85 -73.05 -536.6 -72.65 -533.6 -32.8 -528.15 21.8 -528.65 21.85 -523.85 32.1 -519.75 36.95 -510.85 43.35 -496.25 50.2 -490.35 52.1 -479.0 54.45 -469.2 54.85 -465.35 54.6 -455.95 52.25 -452.1 50.85 -450.9 53.5 -442.55 51.35 -442.75 47.25 -443.85 46.85 -446.5 46.85 -446.5 40.45 -444.25 40.45 -444.25 39.6 -469.25 39.6 -469.25 1.45 -465.8 1.45 -465.8 -2.55 -469.55 -2.55 -469.55 -9.5 -467.3 -9.5 -467.3 -11.35 -466.85 -16.4 -465.45 -22.4 -457.85 -40.35 -459.25 -43.55 -460.25 -45.05 -461.65 -49.55 -466.5 -59.5 -470.5 -65.05 -475.35 -69.3 -481.75 -73.15 -485.6 -74.8 -488.6 -75.65 -494.6 -76.3 -495.2 -76.5 M-513.15 -177.65 L-513.15 -176.85 -509.15 -176.85 -509.25 -180.5 -502.5 -180.7 -502.2 -168.75 -508.9 -168.55 -509.05 -172.25 -512.95 -172.25 -512.9 -171.0 -530.5 -170.55 -546.0 -159.05 -551.85 -153.3 -552.85 -151.8 -553.75 -149.4 -554.35 -146.8 -554.6 -141.9 -552.5 -124.05 -551.5 -119.3 -549.25 -119.4 -548.6 -112.55 -552.1 -111.9 -552.0 -109.3 -551.85 -108.65 -539.9 -109.7 -538.45 -93.4 -532.85 -93.4 -531.6 -93.55 -530.75 -86.55 -523.6 -86.55 -523.6 -89.9 -496.75 -92.6 -491.1 -92.55 -486.05 -91.9 -480.5 -90.5 -474.1 -87.65 -468.9 -84.65 -463.85 -80.9 -460.5 -77.85 -454.35 -70.6 -452.1 -67.05 -446.75 -56.55 -444.75 -51.25 -447.75 -49.9 -447.75 -49.7 -442.5 -42.4 -435.6 -39.25 -428.6 -37.25 -421.0 -35.8 -401.6 -33.3 -380.35 -33.65 -378.75 -20.9 -400.5 -20.55 -417.25 -22.3 -432.0 -24.55 -436.0 -25.65 -450.5 -32.05 -451.3 -33.3 -457.95 -20.05 -459.6 -14.6 -459.8 -9.5 -457.55 -9.5 -457.55 -2.55 -461.3 -2.55 -461.3 1.45 -436.6 1.45 -436.6 0.45 -420.75 0.45 -420.75 1.45 -409.1 1.45 -409.1 15.9 -407.7 15.9 -407.7 1.6 -355.45 1.6 -355.45 12.3 -353.75 12.3 -353.75 1.65 -341.1 1.65 -341.1 0.0 -325.35 0.0 -325.35 1.65 -309.35 1.65 -309.35 5.95 -305.25 5.95 -305.25 2.1 -298.35 2.1 -298.35 4.4 -297.45 4.75 -286.7 8.0 -286.7 7.2 -282.45 7.2 -282.45 6.15 -281.3 6.15 -281.3 5.9 -286.4 5.9 -286.4 -3.4 -278.1 -3.4 -278.1 5.9 -279.15 5.9 -279.15 6.15 -278.15 6.15 -278.15 8.25 -278.45 10.65 -256.3 18.0 -256.25 17.9 -255.55 15.95 -254.6 16.3 -254.5 16.05 -255.5 15.65 -252.2 6.95 -244.45 9.9 -247.7 18.6 -252.45 16.8 -252.6 17.05 -251.5 17.45 -251.9 18.45 -247.9 19.95 -248.4 21.25 -247.6 21.6 -238.95 24.65 -239.25 25.55 -235.45 27.0 -234.15 23.45 -227.75 25.85 -228.35 27.55 -227.65 28.7 -223.15 30.75 -216.55 34.7 -207.9 41.0 -207.55 41.35 -206.05 39.75 -201.1 44.4 -203.35 47.45 -203.0 47.75 -201.3 49.5 -198.7 51.15 -192.6 43.9 -187.35 48.3 -184.75 45.15 -188.3 42.15 -183.25 36.05 -183.55 35.75 -184.4 36.75 -192.25 30.15 -189.15 26.65 -181.4 33.2 -182.45 34.4 -182.1 34.65 -180.9 33.2 -193.7 22.4 -192.85 21.15 -194.65 19.6 -193.25 18.1 -180.05 28.95 -166.85 13.4 -160.05 19.15 -158.3 17.25 -158.85 16.5 -158.3 14.7 -164.6 9.35 -162.55 6.25 -164.1 4.7 -147.35 -15.6 -145.25 -14.05 -137.4 -23.25 -114.25 -3.5 -121.45 5.15 -121.45 5.2 -119.35 5.2 -118.35 5.85 -117.25 4.6 -106.85 -3.55 -105.25 -4.55 -106.35 -5.05 -107.1 -6.4 -98.25 -13.15 -98.2 -13.05 -98.0 -13.5 -91.1 -22.4 -90.6 -25.6 -89.1 -28.6 -84.6 -31.4 -74.6 -31.9 -72.85 -32.4 -66.85 -35.15 -59.95 -37.65 -57.25 -39.5 -53.85 -41.0 -53.85 -40.95 -51.35 -42.65 -42.35 -44.8 -39.6 -45.05 -23.5 -43.55 -18.7 -39.35 -14.0 -37.85 -6.5 -33.15 -1.5 -29.0 3.5 -22.65 7.15 -16.0 9.8 -9.65 11.25 -2.0 14.5 -1.75 17.4 0.6 15.8 1.9 14.15 -0.1 11.65 0.15 13.4 9.15 10.3 9.5 8.85 11.95 10.55 14.5 10.25 18.25 -4.25 21.4 -5.0 16.75 -4.25 12.4 -8.05 -9.4 -9.9 -14.05 -11.25 -13.15 -13.8 -14.7 -16.4 -14.7 -23.6 -18.8 -28.4 -20.9 -34.7 -21.95 -41.15 -22.0 -47.7 -20.15 -49.8 -20.0 -51.45 -20.5 -51.3 -20.85 -51.7 -22.3 -52.15 -22.1 -52.5 -22.65 -52.45 -23.85 -65.85 -19.15 -76.7 -14.15 -80.45 -11.35 -83.95 -7.9 -86.6 -4.15 -92.35 1.6 -93.2 2.0 -93.1 2.35 -96.25 4.7 -103.6 15.7 -105.5 16.85 -93.35 27.2 -91.85 28.2 -88.1 32.1 -85.75 33.45 -78.5 39.45 -86.35 54.45 -94.75 49.7 -99.1 46.7 -131.0 19.6 -132.7 18.55 -138.95 26.0 -143.1 22.5 -145.5 25.35 -149.7 21.85 -151.35 22.9 -152.1 22.4 -153.6 24.25 -147.25 30.1 -149.85 33.5 -151.6 32.15 -156.9 38.45 -156.3 39.0 -155.25 37.75 -150.35 41.95 -153.5 45.7 -158.45 41.5 -157.45 40.35 -158.05 39.85 -160.3 42.7 -159.8 43.2 -158.75 42.0 -153.85 46.15 -157.0 49.9 -161.95 45.7 -160.95 44.55 -161.45 44.1 -164.55 47.9 -157.35 53.95 -159.5 56.45 -164.95 51.9 -170.0 57.85 -174.15 54.45 -176.9 57.0 -172.4 60.7 -178.6 68.15 -172.55 73.55 -170.2 70.65 -164.95 74.9 -166.05 76.3 -166.1 77.4 -159.1 84.9 -151.35 96.25 -149.1 95.6 -146.25 101.6 -149.35 103.5 -148.2 106.5 -152.0 108.5 -153.5 105.75 -154.25 105.6 -157.1 106.9 -159.95 100.85 -158.1 99.75 -159.0 96.35 -163.25 89.9 -169.25 83.35 -171.1 82.45 -172.45 84.1 -177.85 80.0 -175.5 77.15 -181.6 71.75 -189.1 80.7 -198.0 73.25 -197.25 72.1 -198.95 70.7 -201.8 74.1 -199.35 76.7 -203.65 81.75 -212.85 74.25 -208.4 69.15 -205.35 71.1 -202.65 67.7 -203.9 66.65 -204.8 67.65 -209.15 63.7 -201.7 54.8 -204.15 53.1 -206.4 50.7 -206.6 50.55 -206.75 50.7 -209.5 52.95 -214.35 48.35 -212.65 46.55 -213.3 46.2 -214.05 45.0 -221.5 38.95 -224.25 37.75 -226.8 36.1 -229.75 35.15 -231.05 34.9 -231.9 37.25 -238.25 34.7 -237.0 31.3 -240.65 29.85 -241.0 30.9 -257.25 24.85 -258.35 24.9 -259.0 25.0 -272.95 28.5 -284.2 33.1 -285.6 34.15 -288.75 38.35 -290.35 41.7 -294.6 57.35 -296.1 64.4 -296.1 64.45 -294.1 65.0 -296.0 71.65 -299.6 70.6 -300.5 74.5 -299.35 74.85 -301.2 78.5 -298.85 81.45 -299.3 81.8 -298.8 83.65 -297.55 85.4 -298.4 87.2 Q-300.05 86.35 -301.75 85.45 L-303.3 88.1 -304.0 88.1 -304.3 89.55 -305.65 91.15 -309.0 88.25 -319.85 80.2 -329.5 74.4 -329.75 74.5 -333.75 72.4 -333.7 72.15 -347.0 65.8 -361.3 60.7 -370.15 58.55 -370.25 58.6 -370.55 58.55 -370.75 58.9 -375.1 57.9 -375.1 57.45 -379.15 56.8 -379.45 57.15 -383.85 56.45 -384.15 56.0 -385.8 55.75 -410.25 55.4 -414.5 55.75 -414.55 56.05 -423.25 56.85 -442.4 61.15 -459.1 66.25 -467.95 67.6 -480.75 67.1 -485.95 66.35 -498.6 63.1 -497.45 59.9 -509.1 55.1 -518.75 49.85 -525.75 44.7 -528.1 47.2 -532.85 41.1 -538.75 31.1 -542.1 23.35 -542.1 23.05 -548.8 23.65 -553.25 -25.9 -554.75 -25.8 -555.3 -31.35 -553.75 -31.5 -555.15 -47.4 -556.65 -47.3 -557.25 -52.85 -555.65 -53.0 -557.2 -70.5 -558.5 -70.4 -559.15 -77.8 -557.9 -77.95 -560.55 -107.85 -556.1 -108.25 -556.1 -108.3 -556.5 -110.65 -556.5 -111.4 -557.0 -111.55 -560.25 -111.55 -561.25 -118.15 -559.0 -118.3 -558.85 -124.8 -560.0 -137.3 -561.1 -142.3 -561.0 -146.05 -559.75 -152.05 -558.75 -154.15 -557.6 -155.9 -551.75 -162.65 -546.6 -167.3 -545.0 -168.4 -544.5 -169.3 -544.85 -169.9 -545.6 -170.05 -552.85 -169.9 -567.75 -168.15 -573.0 -167.05 -573.35 -168.0 -579.1 -165.45 -579.25 -163.4 -578.9 -162.55 -580.25 -161.65 -585.45 -171.65 -583.5 -172.6 -583.05 -171.95 -581.5 -170.8 -575.4 -173.05 -575.85 -174.15 -572.75 -174.8 -563.6 -175.4 -563.6 -177.3 -555.35 -176.65 -555.5 -176.05 -532.05 -177.3 -531.85 -178.8 -531.75 -178.8 -531.75 -182.05 -535.4 -182.05 -535.4 -188.9 -533.4 -188.9 -533.4 -194.6 -525.75 -194.6 -525.75 -188.9 -523.55 -188.9 -523.55 -182.05 -527.35 -182.05 -527.35 -178.8 -523.5 -178.8 -523.4 -177.55 -513.15 -177.65" fill="#000000" fill-rule="evenodd" stroke="none"/>
    <path d="M-537.1 -3.95 L-536.2 -4.0 -535.95 -1.45 -536.85 -1.35 -537.1 -3.95" fill="#000000" fill-rule="evenodd" stroke="none"/>
    <path d="M-543.1 -36.4 L-542.95 -34.55 -544.9 -34.5 -544.95 -36.35 -543.1 -36.4" fill="#000000" fill-rule="evenodd" stroke="none"/>
    <path d="M-542.65 -31.65 L-542.5 -29.45 -544.15 -29.45 -544.2 -31.6 -542.65 -31.65" fill="#000000" fill-rule="evenodd" stroke="none"/>
    <path d="M-546.05 -109.15 L-542.1 -109.55 -542.05 -109.15 -543.3 -109.05 -543.25 -108.1 -545.9 -107.9 -546.05 -109.15" fill="#000000" fill-rule="evenodd" stroke="none"/>
    <path d="M-409.95 29.0 L-409.95 20.9 -409.25 20.9 -409.25 29.0 -409.95 29.0" fill="#000000" fill-rule="evenodd" stroke="none"/>
    <path d="M-409.95 16.25 L-409.95 12.15 -409.25 12.15 -409.25 16.25 -409.95 16.25" fill="#000000" fill-rule="evenodd" stroke="none"/>
    <path d="M-355.65 29.15 L-355.65 12.3 -353.75 12.3 -353.75 29.15 -355.65 29.15" fill="#000000" fill-rule="evenodd" stroke="none"/>
    <path d="M-349.55 11.4 L-349.55 8.1 -345.05 8.1 -345.05 11.4 -349.55 11.4" fill="#000000" fill-rule="evenodd" stroke="none"/>
    <path d="M-349.55 6.2 L-349.55 2.85 -345.05 2.85 -345.05 6.2 -349.55 6.2" fill="#000000" fill-rule="evenodd" stroke="none"/>
    <path d="M-306.75 25.45 L-306.75 27.55 -311.25 27.55 -311.25 39.5 -334.2 39.5 -334.2 39.55 -339.75 39.55 -339.75 34.05 -338.2 34.05 -338.2 38.2 -334.25 38.2 -334.25 31.9 -314.25 31.9 -314.25 30.85 -319.8 30.85 -319.8 25.35 -318.25 25.35 -318.25 29.5 -314.25 29.5 -314.25 25.45 -306.75 25.45" fill="#000000" fill-rule="evenodd" stroke="none"/>
    <path d="M-144.3 -10.45 L-148.8 -13.8 -147.35 -15.6 -145.25 -14.05 -137.4 -23.25 -114.25 -3.5 -117.8 0.75 -119.1 -0.4 -116.45 -3.55 -119.35 -6.1 -123.4 -1.25 -140.2 -15.4 -140.85 -14.6 -136.6 -11.05 -140.15 -6.8 -141.35 -7.8 -138.65 -11.0 -141.75 -13.55 -144.3 -10.45" fill="#000000" fill-rule="evenodd" stroke="none"/>
    <path d="M-549.75 -108.5 L-547.8 -108.6 -538.9 -11.45 -537.9 -11.5 -536.35 6.95 -536.9 7.0 -536.45 11.85 -538.6 12.05 -539.2 7.1 -540.0 7.15 -541.5 -11.3 -540.85 -11.35 -542.05 -25.15 -543.45 -25.15 -543.45 -26.05 -542.15 -26.05 -542.35 -28.45 -542.4 -28.6 -542.3 -27.5 -543.45 -27.5 -543.45 -28.7 -542.4 -28.65 -543.9 -44.85 -544.95 -44.9 -545.05 -46.85 -544.05 -46.85 -549.75 -108.5" fill="#000000" fill-rule="evenodd" stroke="none"/>
    <path d="M-404.0 14.45 L-404.0 10.0 -400.8 10.0 -400.8 14.45 -404.0 14.45" fill="#000000" fill-rule="evenodd" stroke="none"/>
    <path d="M-392.4 11.0 L-392.4 14.15 -396.9 14.15 -396.9 11.0 -392.4 11.0" fill="#000000" fill-rule="evenodd" stroke="none"/>
    <path d="M-393.1 4.4 L-393.1 8.65 -396.3 8.65 -396.3 4.4 -393.1 4.4" fill="#000000" fill-rule="evenodd" stroke="none"/>
    <path d="M-404.1 7.65 L-404.1 3.0 -400.8 3.0 -400.8 7.65 -404.1 7.65" fill="#000000" fill-rule="evenodd" stroke="none"/>
    <path d="M-179.55 61.65 L-180.55 62.7 -181.6 61.65 -180.6 60.65 -179.55 61.65" fill="#000000" fill-rule="evenodd" stroke="none"/>
    <path d="M-191.85 50.1 L-192.55 51.35 -193.8 50.65 -193.1 49.4 -191.85 50.1" fill="#000000" fill-rule="evenodd" stroke="none"/>
    <path d="M-182.5 36.85 L-182.05 38.25 -183.4 38.7 -183.85 37.3 -182.5 36.85" fill="#000000" fill-rule="evenodd" stroke="none"/>
    <path d="M-190.8 46.25 L-189.8 47.25 -190.8 48.3 -191.85 47.3 -190.8 46.25" fill="#000000" fill-rule="evenodd" stroke="none"/>
    <path d="M-191.0 48.4 L-192.0 49.4 -193.0 48.4 -192.0 47.4 -191.0 48.4" fill="#000000" fill-rule="evenodd" stroke="none"/>
    <path d="M-184.2 39.7 L-183.2 38.65 -182.15 39.65 -183.15 40.7 -184.2 39.7" fill="#000000" fill-rule="evenodd" stroke="none"/>
    <path d="M-164.9 21.25 L-165.9 22.25 -166.95 21.25 -165.95 20.2 -164.9 21.25" fill="#000000" fill-rule="evenodd" stroke="none"/>
    <path d="M-183.35 40.8 L-184.35 41.85 -185.4 40.8 -184.4 39.8 -183.35 40.8" fill="#000000" fill-rule="evenodd" stroke="none"/>
    <path d="M-184.85 70.9 L-186.3 72.75 -187.8 71.65 -186.3 69.75 -184.85 70.9" fill="#000000" fill-rule="evenodd" stroke="none"/>
    <path d="M-190.2 75.3 L-189.0 76.2 -190.2 77.75 -191.4 76.8 -190.2 75.3" fill="#000000" fill-rule="evenodd" stroke="none"/>
    <path d="M-192.05 75.35 L-192.9 76.3 -194.05 75.25 -193.2 74.35 -192.05 75.35" fill="#000000" fill-rule="evenodd" stroke="none"/>
    <path d="M-194.0 74.65 L-194.65 75.35 -195.8 74.35 -195.15 73.65 -194.0 74.65" fill="#000000" fill-rule="evenodd" stroke="none"/>
    <path d="M-176.9 60.05 L-178.35 61.65 -179.65 60.5 -178.2 58.85 -176.9 60.05" fill="#000000" fill-rule="evenodd" stroke="none"/>
    <path d="M-176.65 63.6 L-178.4 65.55 -179.9 64.2 -178.15 62.25 -176.65 63.6" fill="#000000" fill-rule="evenodd" stroke="none"/>
    <path d="M-174.65 61.6 L-176.4 63.5 -177.8 62.25 -176.1 60.3 -174.65 61.6" fill="#000000" fill-rule="evenodd" stroke="none"/>
    <path d="M-172.35 53.8 L-177.15 59.1 -178.35 58.0 -173.55 52.7 -172.35 53.8" fill="#000000" fill-rule="evenodd" stroke="none"/>
    <path d="M-177.1 57.2 L-173.1 60.85 -174.05 61.85 -178.05 58.2 -177.1 57.2" fill="#000000" fill-rule="evenodd" stroke="none"/>
    <path d="M-151.55 31.2 L-149.1 33.45 -150.0 34.45 -152.45 32.2 -151.55 31.2" fill="#000000" fill-rule="evenodd" stroke="none"/>
    <path d="M-173.5 52.7 L-169.15 56.7 -170.0 57.6 -174.35 53.65 -173.5 52.7" fill="#000000" fill-rule="evenodd" stroke="none"/>
    <path d="M-165.25 47.2 L-162.9 49.35 -163.75 50.3 -166.1 48.15 -165.25 47.2" fill="#000000" fill-rule="evenodd" stroke="none"/>
    <path d="M-170.8 56.85 L-163.65 48.65 -162.7 49.45 -169.9 57.65 -170.8 56.85" fill="#000000" fill-rule="evenodd" stroke="none"/>
    <path d="M-150.7 31.9 L-165.1 49.05 -166.2 48.15 -151.75 31.0 -150.7 31.9" fill="#000000" fill-rule="evenodd" stroke="none"/>
    <path d="M-146.7 30.35 L-150.0 34.3 -151.1 33.35 -147.8 29.45 -146.7 30.35" fill="#000000" fill-rule="evenodd" stroke="none"/>
    <path d="M-184.7 75.35 L-185.9 76.7 -186.35 76.25 -185.1 74.95 -184.7 75.35" fill="#000000" fill-rule="evenodd" stroke="none"/>
    <path d="M-153.25 33.35 L-156.1 36.9 -157.1 35.85 -154.4 32.5 -153.25 33.35" fill="#000000" fill-rule="evenodd" stroke="none"/>
    <path d="M-201.0 60.25 L-202.3 60.85 -203.1 59.15 -201.75 58.55 -201.0 60.25" fill="#000000" fill-rule="evenodd" stroke="none"/>
    <path d="M-204.75 62.5 L-206.2 61.3 -204.65 59.5 -203.25 60.7 -204.75 62.5" fill="#000000" fill-rule="evenodd" stroke="none"/>
    <path d="M-206.05 64.7 L-207.5 63.45 -205.95 61.65 -204.5 62.9 -206.05 64.7" fill="#000000" fill-rule="evenodd" stroke="none"/>
    <path d="M-195.25 51.1 L-196.7 49.85 -195.15 48.05 -193.75 49.3 -195.25 51.1" fill="#000000" fill-rule="evenodd" stroke="none"/>
    <path d="M-186.45 43.55 L-187.75 42.2 -186.05 40.55 -184.75 41.9 -186.45 43.55" fill="#000000" fill-rule="evenodd" stroke="none"/>
    <path d="M-177.7 30.0 L-179.2 28.9 -177.75 27.0 -176.25 28.15 -177.7 30.0" fill="#000000" fill-rule="evenodd" stroke="none"/>
    <path d="M-164.05 20.5 L-165.6 19.4 -164.15 17.5 -162.6 18.65 -164.05 20.5" fill="#000000" fill-rule="evenodd" stroke="none"/>
    <path d="M-169.65 23.0 L-171.15 21.9 -169.7 20.0 -168.2 21.15 -169.65 23.0" fill="#000000" fill-rule="evenodd" stroke="none"/>
    <path d="M-167.95 20.2 L-169.45 19.05 -168.0 17.15 -166.5 18.3 -167.95 20.2" fill="#000000" fill-rule="evenodd" stroke="none"/>
    <path d="M-147.0 -11.1 L-150.25 -7.25 -151.7 -8.45 -148.45 -12.35 -147.0 -11.1" fill="#000000" fill-rule="evenodd" stroke="none"/>
    <path d="M-155.35 -4.75 L-155.75 -5.1 -155.0 -6.0 -154.6 -5.65 -155.35 -4.75" fill="#000000" fill-rule="evenodd" stroke="none"/>
    <path d="M-167.85 15.85 L-166.35 14.65 -164.85 16.55 -166.35 17.7 -167.85 15.85" fill="#000000" fill-rule="evenodd" stroke="none"/>
    <path d="M-189.75 29.8 L-190.85 28.95 -189.8 27.6 -188.7 28.45 -189.75 29.8" fill="#000000" fill-rule="evenodd" stroke="none"/>
    <path d="M-493.7 -87.85 L-496.2 -87.85 -496.2 -89.3 -493.7 -89.3 -493.7 -87.85" fill="#000000" fill-rule="evenodd" stroke="none"/>
    <path d="M-496.5 -87.65 L-499.0 -87.65 -499.0 -89.1 -496.5 -89.1 -496.5 -87.65" fill="#000000" fill-rule="evenodd" stroke="none"/>
    <path d="M-506.6 -89.85 L-509.1 -89.85 -509.1 -91.3 -506.6 -91.3 -506.6 -89.85" fill="#000000" fill-rule="evenodd" stroke="none"/>
    <path d="M-477.65 -87.6 L-480.0 -88.5 -479.45 -89.85 -477.15 -88.95 -477.65 -87.6" fill="#000000" fill-rule="evenodd" stroke="none"/>
    <path d="M-332.35 72.75 L-334.4 71.5 -333.65 70.25 -331.6 71.55 -332.35 72.75" fill="#000000" fill-rule="evenodd" stroke="none"/>
    <path d="M-348.5 65.0 L-350.5 63.65 -349.3 61.9 -347.35 63.25 -348.5 65.0" fill="#000000" fill-rule="evenodd" stroke="none"/>
    <path d="M-361.15 50.3 L-365.0 49.35 -364.5 47.35 -360.65 48.35 -361.15 50.3" fill="#000000" fill-rule="evenodd" stroke="none"/>
    <path d="M-381.05 56.7 L-383.15 56.35 -382.8 54.35 -380.7 54.7 -381.05 56.7" fill="#000000" fill-rule="evenodd" stroke="none"/>
    <path d="M-377.3 47.7 L-379.75 47.95 -380.0 45.95 -377.55 45.65 -377.3 47.7" fill="#000000" fill-rule="evenodd" stroke="none"/>
    <path d="M-382.2 44.9 L-383.25 48.3 -385.2 47.7 -384.15 44.25 -382.2 44.9" fill="#000000" fill-rule="evenodd" stroke="none"/>
    <path d="M-416.25 47.35 L-417.95 47.45 -418.25 43.9 -416.5 43.75 -416.25 47.35" fill="#000000" fill-rule="evenodd" stroke="none"/>
    <path d="M-400.2 55.0 L-404.6 55.0 -404.6 53.45 -400.2 53.45 -400.2 55.0" fill="#000000" fill-rule="evenodd" stroke="none"/>
    <path d="M-434.85 59.05 L-438.4 59.45 -438.65 57.5 -435.05 57.05 -434.85 59.05" fill="#000000" fill-rule="evenodd" stroke="none"/>
    <path d="M-432.6 50.3 L-435.15 51.0 -435.55 49.7 -433.0 49.0 -432.6 50.3" fill="#000000" fill-rule="evenodd" stroke="none"/>
    <path d="M-431.5 49.15 L-432.65 49.45 -432.8 48.95 -431.65 48.65 -431.5 49.15" fill="#000000" fill-rule="evenodd" stroke="none"/>
    <path d="M-547.85 -108.55 L-549.7 -108.4 -540.7 -11.1 -541.3 -11.1 -539.75 6.95 -539.2 6.9 -539.15 7.4 -540.2 7.5 -541.85 -11.55 -540.9 -11.6 -549.85 -108.55 -547.75 -108.65 -541.45 -43.25 -538.85 -11.8 -537.75 -11.9 -536.15 7.15 -536.85 7.2 -536.9 6.7 -536.65 6.7 -538.2 -11.35 -538.95 -11.3 -538.95 -11.8 -547.85 -108.55" fill="#000000" fill-rule="evenodd" stroke="none"/>
    <path d="M-544.2 -48.5 L-544.15 -47.6 -546.35 -47.5 -546.4 -48.4 -544.2 -48.5" fill="#000000" fill-rule="evenodd" stroke="none"/>
    <path d="M-545.4 -38.0 L-543.25 -38.05 -543.2 -37.25 -545.4 -37.05 -545.4 -38.0" fill="#000000" fill-rule="evenodd" stroke="none"/>
    <path d="M-542.2 -26.4 L-544.4 -26.3 -544.45 -27.2 -542.25 -27.35 -542.2 -26.4" fill="#000000" fill-rule="evenodd" stroke="none"/>
    <path d="M-547.55 -60.0 L-545.3 -60.15 -545.25 -59.3 -547.5 -59.1 -547.55 -60.0" fill="#000000" fill-rule="evenodd" stroke="none"/>
    <path d="M-546.45 -72.25 L-548.75 -72.05 -548.8 -72.95 -546.55 -73.15 -546.45 -72.25" fill="#000000" fill-rule="evenodd" stroke="none"/>
    <path d="M-140.25 -15.75 L-123.45 -1.6 -119.55 -6.25 -119.15 -5.9 -123.4 -0.85 -140.15 -15.05 -140.7 -14.45 -141.05 -14.75 -140.25 -15.75" fill="#000000" fill-rule="evenodd" stroke="none"/>
    <path d="M-147.35 -15.95 L-145.3 -14.4 -137.45 -23.6 -118.35 -7.35 -118.7 -6.95 -137.4 -22.9 -145.25 -13.7 -147.3 -15.25 -148.45 -13.85 -144.35 -10.8 -141.9 -13.7 -141.55 -13.4 -144.3 -10.15 -149.15 -13.75 -147.35 -15.95" fill="#000000" fill-rule="evenodd" stroke="none"/>
    <path d="M-537.1 -1.05 L-537.35 -4.2 -535.95 -4.25 -535.7 -1.25 -537.1 -1.05 M-536.8 -3.7 L-536.65 -1.6 -536.25 -1.65 -536.4 -3.7 -536.8 -3.7" fill="#000000" fill-rule="evenodd" stroke="none"/>
    <path d="M-311.0 27.8 L-311.0 39.75 -334.25 39.75 -334.25 39.25 -311.5 39.25 -311.5 27.3 -307.0 27.3 -307.0 25.7 -314.0 25.7 -314.0 29.5 -314.5 29.5 -314.5 25.2 -306.5 25.2 -306.5 27.8 -311.0 27.8" fill="#000000" fill-rule="evenodd" stroke="none"/>
    <path d="M-334.0 38.25 L-334.5 38.25 -334.5 31.65 -314.5 31.65 -314.5 30.8 -314.0 30.8 -314.0 32.15 -334.0 32.15 -334.0 38.25" fill="#000000" fill-rule="evenodd" stroke="none"/>
    <path d="M-547.55 -84.1 L-549.8 -83.9 -549.9 -84.8 -547.6 -85.0 -547.55 -84.1" fill="#000000" fill-rule="evenodd" stroke="none"/>
    <path d="M-548.7 -96.45 L-550.95 -96.3 -551.05 -97.15 -548.75 -97.35 -548.7 -96.45" fill="#000000" fill-rule="evenodd" stroke="none"/>
    <path d="M-158.05 12.85 L-162.45 9.05 -155.15 0.4 -150.65 4.15 -151.95 5.65 -152.35 5.3 -151.35 4.2 -155.1 1.1 -161.75 9.0 -158.1 12.15 -154.75 8.15 -154.35 8.45 -158.05 12.85" fill="#000000" fill-rule="evenodd" stroke="none"/>
    <path d="M-44.05 -23.6 L-44.9 -23.4 -45.1 -24.3 -44.25 -24.5 -44.05 -23.6" fill="#000000" fill-rule="evenodd" stroke="none"/>
    <path d="M-37.35 -23.75 L-38.25 -23.75 -38.2 -24.7 -37.35 -24.65 -37.35 -23.75" fill="#000000" fill-rule="evenodd" stroke="none"/>
    <path d="M-31.25 -22.9 L-32.1 -23.15 -31.85 -24.0 -31.0 -23.75 -31.25 -22.9" fill="#000000" fill-rule="evenodd" stroke="none"/>
    <path d="M-25.1 -20.95 L-25.95 -21.25 -25.6 -22.1 -24.75 -21.75 -25.1 -20.95" fill="#000000" fill-rule="evenodd" stroke="none"/>
    <path d="M-18.65 -17.1 L-19.4 -17.6 -18.9 -18.35 -18.15 -17.9 -18.65 -17.1" fill="#000000" fill-rule="evenodd" stroke="none"/>
    <path d="M-530.25 24.6 L-531.6 25.05 -531.75 24.6 -530.4 24.15 -530.25 24.6" fill="#000000" fill-rule="evenodd" stroke="none"/>
    <path d="M-527.25 30.75 L-528.35 31.6 -528.65 31.2 -527.5 30.4 -527.25 30.75" fill="#000000" fill-rule="evenodd" stroke="none"/>
    <path d="M-520.4 39.95 L-521.25 41.1 -521.6 40.85 -520.8 39.7 -520.4 39.95" fill="#000000" fill-rule="evenodd" stroke="none"/>
    <path d="M-507.55 47.95 L-508.1 49.25 -508.5 49.1 -507.95 47.8 -507.55 47.95" fill="#000000" fill-rule="evenodd" stroke="none"/>
    <path d="M-495.95 53.0 L-496.4 54.35 -496.85 54.2 -496.4 52.85 -495.95 53.0" fill="#000000" fill-rule="evenodd" stroke="none"/>
    <path d="M-487.5 55.45 L-487.65 56.85 -488.1 56.8 -487.95 55.4 -487.5 55.45" fill="#000000" fill-rule="evenodd" stroke="none"/>
    <path d="M-476.5 57.3 L-476.5 58.75 -476.95 58.75 -476.95 57.3 -476.5 57.3" fill="#000000" fill-rule="evenodd" stroke="none"/>
    <path d="M-467.3 57.4 L-467.25 58.8 -467.75 58.8 -467.75 57.4 -467.3 57.4" fill="#000000" fill-rule="evenodd" stroke="none"/>
    <path d="M-454.5 54.4 L-454.15 55.8 -454.6 55.9 -454.95 54.5 -454.5 54.4" fill="#000000" fill-rule="evenodd" stroke="none"/>
    <path d="M-422.85 46.55 L-422.7 47.95 -423.15 48.0 -423.3 46.6 -422.85 46.55" fill="#000000" fill-rule="evenodd" stroke="none"/>
    <path d="M-413.45 45.5 L-413.3 46.9 -413.75 46.95 -413.95 45.55 -413.45 45.5" fill="#000000" fill-rule="evenodd" stroke="none"/>
    <path d="M-404.1 44.95 L-404.0 46.35 -404.45 46.4 -404.55 44.95 -404.1 44.95" fill="#000000" fill-rule="evenodd" stroke="none"/>
    <path d="M-375.85 47.0 L-376.0 48.4 -376.45 48.35 -376.3 46.95 -375.85 47.0" fill="#000000" fill-rule="evenodd" stroke="none"/>
    <path d="M-366.6 48.95 L-366.8 50.35 -367.25 50.3 -367.05 48.9 -366.6 48.95" fill="#000000" fill-rule="evenodd" stroke="none"/>
    <path d="M-357.45 51.35 L-357.75 52.75 -358.2 52.65 -357.85 51.25 -357.45 51.35" fill="#000000" fill-rule="evenodd" stroke="none"/>
    <path d="M-347.45 54.8 L-347.9 56.15 -348.35 56.0 -347.9 54.7 -347.45 54.8" fill="#000000" fill-rule="evenodd" stroke="none"/>
    <path d="M-339.75 57.7 L-340.2 59.05 -340.6 58.9 -340.2 57.55 -339.75 57.7" fill="#000000" fill-rule="evenodd" stroke="none"/>
    <path d="M-331.25 62.0 L-331.8 63.3 -332.2 63.1 -331.65 61.8 -331.25 62.0" fill="#000000" fill-rule="evenodd" stroke="none"/>
    <path d="M-323.05 66.45 L-323.65 67.75 -324.1 67.55 -323.45 66.25 -323.05 66.45" fill="#000000" fill-rule="evenodd" stroke="none"/>
    <path d="M-315.1 71.5 L-315.8 72.7 -316.2 72.45 -315.45 71.25 -315.1 71.5" fill="#000000" fill-rule="evenodd" stroke="none"/>
    <path d="M-311.7 73.7 L-311.35 73.9 -312.05 75.1 -312.45 74.9 -311.7 73.7" fill="#000000" fill-rule="evenodd" stroke="none"/>
    <path d="M-308.45 88.5 L-309.0 88.25 -301.45 77.9 -301.05 78.2 -308.45 88.5" fill="#000000" fill-rule="evenodd" stroke="none"/>
    <path d="M-298.35 87.05 L-297.55 85.4 -293.75 88.6 -294.95 89.7 -298.35 87.05" fill="#000000" fill-rule="evenodd" stroke="none"/>
    <path d="M-302.85 93.1 L-305.65 91.3 -304.6 90.0 -303.25 90.65 -301.4 91.85 -302.85 93.1" fill="#000000" fill-rule="evenodd" stroke="none"/>
    <path d="M-300.75 88.35 L-302.95 86.85 -301.6 85.65 -300.8 84.55 -299.45 86.45 -300.75 88.35" fill="#000000" fill-rule="evenodd" stroke="none"/>
    <path d="M-298.75 91.45 L-296.75 92.8 -298.6 94.8 -300.25 93.6 -298.75 91.45" fill="#000000" fill-rule="evenodd" stroke="none"/>
    <path d="M-178.75 68.35 L-179.2 68.25 -180.0 68.25 -180.6 68.5 -181.2 69.0 -181.6 69.65 -181.8 70.3 -181.75 71.1 -181.5 71.65 -182.8 73.2 -182.7 71.65 -182.85 70.65 -182.85 69.25 -182.15 68.15 -181.15 67.35 -179.8 67.15 -178.8 67.2 -177.4 66.75 -178.75 68.35" fill="#000000" fill-rule="evenodd" stroke="none"/>
    <path d="M-206.45 71.35 L-207.0 70.05 Q-206.15 70.6 -205.35 71.1 L-205.4 71.75 -205.35 72.5 -205.05 73.15 -204.55 73.7 -203.9 74.1 -203.25 74.25 -202.45 74.2 -201.8 74.0 -200.45 75.5 -201.9 75.15 -202.9 75.35 -204.25 75.35 -205.35 74.7 -206.25 73.75 -206.45 72.4 -206.45 71.35" fill="#000000" fill-rule="evenodd" stroke="none"/>
    <path d="M-304.35 5.3 L-303.55 5.95 -302.65 7.0 -302.4 8.25 -302.55 9.55 -303.45 10.6 -304.2 11.25 -305.25 12.5 -305.25 10.6 -304.65 10.2 -304.05 9.65 -303.75 9.0 -303.7 8.25 -303.8 7.5 -304.15 6.9 -304.7 6.35 -305.25 6.0 -305.25 4.0 -304.35 5.3" fill="#000000" fill-rule="evenodd" stroke="none"/>
    <path d="M-301.35 68.45 L-302.1 68.35 -302.8 68.55 -303.45 68.95 -303.95 69.4 -305.9 68.85 -304.4 68.3 -303.55 67.7 -302.3 67.1 -301.05 67.2 -299.85 67.7 -299.05 68.85 -298.6 69.75 -297.7 71.1 -299.55 70.6 -299.75 69.85 -300.15 69.2 -300.65 68.75 -301.35 68.45" fill="#000000" fill-rule="evenodd" stroke="none"/>
    <path d="M-508.15 -175.95 L-509.3 -176.85 -509.35 -178.8 -508.4 -177.5 -507.6 -176.9 -506.65 -175.9 -506.4 -174.6 -506.55 -173.35 -507.4 -172.25 -508.15 -171.6 -509.1 -170.35 -509.2 -172.25 -508.6 -172.65 -508.05 -173.2 -507.75 -173.8 -507.7 -174.6 -507.8 -175.3 -508.15 -175.95" fill="#000000" fill-rule="evenodd" stroke="none"/>
    <path d="M-581.5 -171.0 L-580.5 -170.8 -579.25 -170.25 -578.5 -169.15 -578.1 -167.95 -578.45 -166.6 -578.85 -165.7 -579.2 -164.15 -580.05 -165.85 -579.7 -166.45 -579.4 -167.2 -579.4 -167.9 -579.65 -168.6 -580.1 -169.25 -580.65 -169.65 -581.4 -169.9 -582.05 -170.0 -582.9 -171.8 -581.5 -171.0" fill="#000000" fill-rule="evenodd" stroke="none"/>
    <path d="M-497.65 -185.85 L-497.05 -163.9 -513.8 -163.4 -513.85 -165.95 -528.9 -165.55 -535.35 -161.15 -542.6 -155.35 -548.05 -150.0 -548.35 -149.5 -548.95 -147.95 -549.4 -146.0 -549.6 -142.25 -547.55 -124.85 -547.45 -124.5 -544.7 -124.65 -543.75 -114.65 -537.3 -115.3 -537.25 -114.95 -535.35 -115.1 -533.85 -98.4 -533.1 -98.4 -527.25 -99.0 -526.7 -94.65 -496.95 -97.6 -490.75 -97.55 -485.1 -96.85 -478.85 -95.2 -471.85 -92.15 -466.15 -88.85 -460.65 -84.75 -452.9 -76.9 -447.7 -69.45 -442.15 -58.65 -438.35 -48.55 -433.85 -43.95 -427.45 -42.1 -401.3 -38.3 -375.95 -38.75 -373.05 -16.05 -400.65 -15.55 -433.05 -19.65 -437.65 -20.95 -449.35 -26.0 -453.3 -18.2 -454.4 -14.5 -452.55 -14.5 -452.55 -4.5 -291.4 -4.5 -291.4 -8.4 -273.1 -8.4 -273.1 7.15 -259.35 11.7 -255.15 0.55 -238.0 6.95 -241.75 16.9 -241.45 17.0 -241.95 18.3 -238.1 19.65 -237.15 16.95 -220.85 23.35 -221.35 26.1 -213.75 30.55 -208.2 34.8 -206.2 32.75 -197.0 41.4 -193.1 36.35 -205.35 25.85 -193.6 11.3 -180.65 21.95 -170.95 10.5 -171.25 10.25 -169.0 6.9 -170.85 5.05 -139.85 -32.65 -112.3 -8.75 -101.9 -16.65 -95.85 -24.55 -95.4 -27.1 -92.95 -32.05 -86.1 -36.4 -75.55 -36.85 -74.6 -37.1 -68.75 -39.8 -62.25 -42.15 -59.7 -43.9 -56.05 -45.5 -53.4 -47.3 -50.15 -48.1 -49.45 -48.4 -49.45 -48.25 -43.15 -49.75 -39.6 -50.05 -21.4 -48.35 -16.15 -43.75 -11.9 -42.4 -3.6 -37.25 2.1 -32.5 7.65 -25.45 11.65 -18.2 14.65 -11.1 15.45 -6.7 16.4 -6.6 25.3 0.5 18.0 6.6 19.35 13.55 15.65 13.95 14.9 22.35 2.65 12.35 -8.35 27.45 -10.1 16.7 -9.35 12.4 -12.95 -8.4 -15.2 -9.7 -17.7 -9.7 -25.9 -14.35 -29.85 -16.05 -35.15 -16.95 -40.5 -17.0 -46.85 -15.2 -50.4 -14.95 -57.15 -17.0 -64.0 -14.5 -74.05 -9.9 -77.15 -7.55 -80.1 -4.65 -82.8 -0.9 -92.6 8.25 -98.15 16.55 -90.3 23.25 -88.65 24.35 -85.0 28.1 -82.85 29.35 -72.15 38.2 -84.3 61.35 -97.4 53.95 -102.2 50.65 -131.9 25.4 -138.3 33.05 -140.75 31.05 -142.3 32.85 -142.05 33.1 -146.8 38.35 -143.3 41.4 -146.85 45.55 -146.8 45.6 -152.1 51.85 -150.3 53.4 -158.85 63.45 -164.35 58.9 -169.4 64.9 -157.9 74.2 -159.85 76.6 -155.2 81.75 -149.2 90.4 -146.4 89.55 -139.85 103.5 -143.2 105.55 -141.9 108.85 -151.25 105.15 -154.05 115.2 -155.9 111.85 -159.5 113.6 -166.4 98.85 -164.2 97.55 -167.3 92.9 -170.2 89.4 -170.25 89.35 -171.6 90.95 -183.6 81.95 -188.45 87.75 -196.5 81.05 -203.05 88.75 -220.0 74.9 -213.1 66.9 -216.1 64.2 -211.15 58.3 -221.45 48.5 -219.7 46.7 -224.0 43.3 -226.6 42.2 -228.05 41.25 -229.0 43.85 -244.55 37.55 -243.75 35.25 -257.95 29.9 -258.1 29.95 -271.4 33.3 -279.4 36.35 -282.15 37.85 -282.95 38.7 -284.4 40.8 -285.65 43.45 -290.25 60.9 -287.9 61.55 -292.5 77.8 -294.9 77.15 -295.3 77.9 -291.6 82.6 -292.8 86.75 -290.85 87.7 -293.3 92.0 -294.5 91.35 -295.05 92.4 -293.25 93.6 -298.25 99.6 -302.05 96.1 -305.0 98.25 -312.15 92.15 -324.55 83.15 -329.7 80.1 -329.75 80.1 -339.2 75.2 -339.15 74.9 -354.45 68.25 -362.7 65.5 -368.1 64.2 -368.35 64.55 -377.2 62.6 -386.7 61.05 -386.95 60.7 -396.95 60.1 -410.35 60.45 -410.4 60.8 -422.5 61.8 -437.0 64.85 -457.95 71.15 -467.65 72.6 -475.65 72.5 -486.9 71.25 -505.2 66.55 -503.75 62.6 -511.2 59.65 -521.4 54.05 -525.2 51.4 -528.3 54.7 -534.05 47.95 -539.25 40.45 -543.25 33.25 -545.35 28.35 -555.9 30.05 -561.15 -41.9 -564.55 -82.35 -563.3 -82.45 -566.0 -112.4 -565.4 -112.45 -567.0 -122.85 -563.9 -123.0 -563.85 -124.5 -564.6 -129.8 -564.95 -136.7 -566.1 -141.8 -565.95 -146.6 -564.5 -153.65 -563.1 -156.6 -561.65 -158.85 -557.85 -163.65 -557.15 -164.3 -566.95 -163.2 -576.05 -161.25 -583.0 -157.35 -589.5 -173.3 -579.0 -178.6 -568.6 -182.7 -553.2 -183.85 -540.4 -181.85 -540.4 -193.9 -538.4 -193.9 -538.4 -199.6 -529.55 -190.6 -520.75 -199.6 -520.75 -193.9 -518.55 -193.9 -518.55 -182.6 -514.35 -182.65 -514.4 -185.35 -497.65 -185.85" fill="#434343" fill-rule="evenodd" stroke="none"/>
    <path d="M-300.1 49.25 L-299.35 49.55 -299.25 49.15 -297.3 43.75 -296.55 39.7 -297.35 39.35 -300.1 49.25 M-353.75 28.9 L-355.45 28.9 -355.45 39.6 -407.7 39.6 -407.7 24.7 -409.1 24.7 -409.1 39.6 -436.35 39.6 -436.35 40.45 -434.55 40.45 -434.55 46.85 -436.9 46.85 -438.1 47.3 -438.1 50.2 -429.45 47.95 -430.0 45.15 -419.35 43.45 -399.75 42.4 -399.8 45.5 -384.95 46.15 -384.55 43.15 -378.5 44.0 -362.25 47.35 -357.55 48.65 -358.5 51.75 -356.0 52.6 -355.1 52.55 -352.2 53.65 -351.55 53.8 -351.25 54.15 -346.1 56.05 -345.25 56.2 -337.4 59.2 -336.35 56.9 -335.75 56.8 -316.85 67.0 -307.25 73.6 -306.6 73.85 -306.0 73.0 -304.9 72.85 -303.9 69.4 -307.5 68.4 -305.6 61.8 -303.6 62.35 -301.25 56.75 -299.95 52.15 -300.8 51.75 -301.4 54.0 -311.05 51.25 -305.6 32.0 -296.05 34.6 -296.9 37.65 -295.9 38.05 -295.9 38.0 -293.2 33.0 -290.95 30.35 -287.7 27.75 -283.1 25.35 -273.2 21.5 -271.7 21.15 -271.35 20.5 -271.35 20.1 -271.5 19.75 -272.0 19.4 -285.6 15.15 -298.35 11.8 -298.35 14.2 -305.25 14.2 -305.25 10.6 -309.35 10.6 -309.35 20.85 -303.5 20.85 -303.5 27.6 -309.35 27.6 -309.35 39.65 -353.75 39.65 -353.75 28.9 M-495.2 -76.5 L-495.25 -76.4 -523.0 -73.65 -529.6 -73.8 -529.6 -73.65 -529.85 -73.05 -536.6 -72.65 -533.6 -32.8 -528.15 21.8 -528.65 21.85 -523.85 32.1 -519.75 36.95 -510.85 43.35 -496.25 50.2 -490.35 52.1 -479.0 54.45 -469.2 54.85 -465.35 54.6 -455.95 52.25 -452.1 50.85 -450.9 53.5 -442.55 51.35 -442.75 47.25 -443.85 46.85 -446.5 46.85 -446.5 40.45 -444.25 40.45 -444.25 39.6 -469.25 39.6 -469.25 1.45 -465.8 1.45 -465.8 -2.55 -469.55 -2.55 -469.55 -9.5 -467.3 -9.5 -467.3 -11.35 -466.85 -16.4 -465.45 -22.4 -457.85 -40.35 -459.25 -43.55 -460.25 -45.05 -461.65 -49.55 -466.5 -59.5 -470.5 -65.05 -475.35 -69.3 -481.75 -73.15 -485.6 -74.8 -488.6 -75.65 -494.6 -76.3 -495.2 -76.5 M-513.15 -177.65 L-513.15 -176.85 -509.15 -176.85 -509.25 -180.5 -502.5 -180.7 -502.2 -168.75 -508.9 -168.55 -509.05 -172.25 -512.95 -172.25 -512.9 -171.0 -530.5 -170.55 -546.0 -159.05 -551.85 -153.3 -552.85 -151.8 -553.75 -149.4 -554.35 -146.8 -554.6 -141.9 -552.5 -124.05 -551.5 -119.3 -549.25 -119.4 -548.6 -112.55 -552.1 -111.9 -552.0 -109.3 -551.85 -108.65 -539.9 -109.7 -538.45 -93.4 -532.85 -93.4 -531.6 -93.55 -530.75 -86.55 -523.6 -86.55 -523.6 -89.9 -496.75 -92.6 -491.1 -92.55 -486.05 -91.9 -480.5 -90.5 -474.1 -87.65 -468.9 -84.65 -463.85 -80.9 -460.5 -77.85 -454.35 -70.6 -452.1 -67.05 -446.75 -56.55 -444.75 -51.25 -447.75 -49.9 -447.75 -49.7 -442.5 -42.4 -435.6 -39.25 -428.6 -37.25 -421.0 -35.8 -401.6 -33.3 -380.35 -33.65 -378.75 -20.9 -400.5 -20.55 -417.25 -22.3 -432.0 -24.55 -436.0 -25.65 -450.5 -32.05 -451.3 -33.3 -457.95 -20.05 -459.6 -14.6 -459.8 -9.5 -457.55 -9.5 -457.55 -2.55 -461.3 -2.55 -461.3 1.45 -436.6 1.45 -436.6 0.45 -420.75 0.45 -420.75 1.45 -409.1 1.45 -409.1 15.9 -407.7 15.9 -407.7 1.6 -355.45 1.6 -355.45 12.3 -353.75 12.3 -353.75 1.65 -341.1 1.65 -341.1 0.0 -325.35 0.0 -325.35 1.65 -309.35 1.65 -309.35 5.95 -305.25 5.95 -305.25 2.1 -298.35 2.1 -298.35 4.4 -297.45 4.75 -286.7 8.0 -286.7 7.2 -282.45 7.2 -282.45 6.15 -281.3 6.15 -281.3 5.9 -286.4 5.9 -286.4 -3.4 -278.1 -3.4 -278.1 5.9 -279.15 5.9 -279.15 6.15 -278.15 6.15 -278.15 8.25 -278.45 10.65 -256.3 18.0 -256.25 17.9 -255.55 15.95 -254.6 16.3 -254.5 16.05 -255.5 15.65 -252.2 6.95 -244.45 9.9 -247.7 18.6 -252.45 16.8 -252.6 17.05 -251.5 17.45 -251.9 18.45 -247.9 19.95 -248.4 21.25 -247.6 21.6 -238.95 24.65 -239.25 25.55 -235.45 27.0 -234.15 23.45 -227.75 25.85 -228.35 27.55 -227.65 28.7 -223.15 30.75 -216.55 34.7 -207.9 41.0 -207.55 41.35 -206.05 39.75 -201.1 44.4 -203.35 47.45 -203.0 47.75 -201.3 49.5 -198.7 51.15 -192.6 43.9 -187.35 48.3 -184.75 45.15 -188.3 42.15 -183.25 36.05 -183.55 35.75 -184.4 36.75 -192.25 30.15 -189.15 26.65 -181.4 33.2 -182.45 34.4 -182.1 34.65 -180.9 33.2 -193.7 22.4 -192.85 21.15 -194.65 19.6 -193.25 18.1 -180.05 28.95 -166.85 13.4 -160.05 19.15 -158.3 17.25 -158.85 16.5 -158.3 14.7 -164.6 9.35 -162.55 6.25 -164.1 4.7 -147.35 -15.6 -145.25 -14.05 -137.4 -23.25 -114.25 -3.5 -121.45 5.15 -121.45 5.2 -119.35 5.2 -118.35 5.85 -117.25 4.6 -106.85 -3.55 -105.25 -4.55 -106.35 -5.05 -107.1 -6.4 -98.25 -13.15 -98.2 -13.05 -98.0 -13.5 -91.1 -22.4 -90.6 -25.6 -89.1 -28.6 -84.6 -31.4 -74.6 -31.9 -72.85 -32.4 -66.85 -35.15 -59.95 -37.65 -57.25 -39.5 -53.85 -41.0 -53.85 -40.95 -51.35 -42.65 -42.35 -44.8 -39.6 -45.05 -23.5 -43.55 -18.7 -39.35 -14.0 -37.85 -6.5 -33.15 -1.5 -29.0 3.5 -22.65 7.15 -16.0 9.8 -9.65 11.25 -2.0 14.5 -1.75 17.4 0.6 15.8 1.9 14.15 -0.1 11.65 0.15 13.4 9.15 10.3 9.5 8.85 11.95 10.55 14.5 10.25 18.25 -4.25 21.4 -5.0 16.75 -4.25 12.4 -8.05 -9.4 -9.9 -14.05 -11.25 -13.15 -13.8 -14.7 -16.4 -14.7 -23.6 -18.8 -28.4 -20.9 -34.7 -21.95 -41.15 -22.0 -47.7 -20.15 -49.8 -20.0 -51.45 -20.5 -51.3 -20.85 -51.7 -22.3 -52.15 -22.1 -52.5 -22.65 -52.45 -23.85 -65.85 -19.15 -76.7 -14.15 -80.45 -11.35 -83.95 -7.9 -86.6 -4.15 -92.35 1.6 -93.2 2.0 -93.1 2.35 -96.25 4.7 -103.6 15.7 -105.5 16.85 -93.35 27.2 -91.85 28.2 -88.1 32.1 -85.75 33.45 -78.5 39.45 -86.35 54.45 -94.75 49.7 -99.1 46.7 -131.0 19.6 -132.7 18.55 -138.95 26.0 -143.1 22.5 -145.5 25.35 -149.7 21.85 -151.35 22.9 -152.1 22.4 -153.6 24.25 -147.25 30.1 -149.85 33.5 -151.6 32.15 -156.9 38.45 -156.3 39.0 -155.25 37.75 -150.35 41.95 -153.5 45.7 -158.45 41.5 -157.45 40.35 -158.05 39.85 -160.3 42.7 -159.8 43.2 -158.75 42.0 -153.85 46.15 -157.0 49.9 -161.95 45.7 -160.95 44.55 -161.45 44.1 -164.55 47.9 -157.35 53.95 -159.5 56.45 -164.95 51.9 -170.0 57.85 -174.15 54.45 -176.9 57.0 -172.4 60.7 -178.6 68.15 -172.55 73.55 -170.2 70.65 -164.95 74.9 -166.05 76.3 -166.1 77.4 -159.1 84.9 -151.35 96.25 -149.1 95.6 -146.25 101.6 -149.35 103.5 -148.2 106.5 -152.0 108.5 -153.5 105.75 -154.25 105.6 -157.1 106.9 -159.95 100.85 -158.1 99.75 -159.0 96.35 -163.25 89.9 -169.25 83.35 -171.1 82.45 -172.45 84.1 -177.85 80.0 -175.5 77.15 -181.6 71.75 -189.1 80.7 -198.0 73.25 -197.25 72.1 -198.95 70.7 -201.8 74.1 -199.35 76.7 -203.65 81.75 -212.85 74.25 -208.4 69.15 -205.35 71.1 -202.65 67.7 -203.9 66.65 -204.8 67.65 -209.15 63.7 -201.7 54.8 -204.15 53.1 -206.4 50.7 -206.6 50.55 -206.75 50.7 -209.5 52.95 -214.35 48.35 -212.65 46.55 -213.3 46.2 -214.05 45.0 -221.5 38.95 -224.25 37.75 -226.8 36.1 -229.75 35.15 -231.05 34.9 -231.9 37.25 -238.25 34.7 -237.0 31.3 -240.65 29.85 -241.0 30.9 -257.25 24.85 -258.35 24.9 -259.0 25.0 -272.95 28.5 -284.2 33.1 -285.6 34.15 -288.75 38.35 -290.35 41.7 -294.6 57.35 -296.1 64.4 -296.1 64.45 -294.1 65.0 -296.0 71.65 -299.6 70.6 -300.5 74.5 -299.35 74.85 -301.2 78.5 -298.85 81.45 -299.3 81.8 -298.8 83.65 -297.55 85.4 -298.4 87.2 Q-300.05 86.35 -301.75 85.45 L-303.3 88.1 -304.0 88.1 -304.3 89.55 -305.65 91.15 -309.0 88.25 -319.85 80.2 -329.5 74.4 -329.75 74.5 -333.75 72.4 -333.7 72.15 -347.0 65.8 -361.3 60.7 -370.15 58.55 -370.25 58.6 -370.55 58.55 -370.75 58.9 -375.1 57.9 -375.1 57.45 -379.15 56.8 -379.45 57.15 -383.85 56.45 -384.15 56.0 -385.8 55.75 -410.25 55.4 -414.5 55.75 -414.55 56.05 -423.25 56.85 -442.4 61.15 -459.1 66.25 -467.95 67.6 -480.75 67.1 -485.95 66.35 -498.6 63.1 -497.45 59.9 -509.1 55.1 -518.75 49.85 -525.75 44.7 -528.1 47.2 -532.85 41.1 -538.75 31.1 -542.1 23.35 -542.1 23.05 -548.8 23.65 -553.25 -25.9 -554.75 -25.8 -555.3 -31.35 -553.75 -31.5 -555.15 -47.4 -556.65 -47.3 -557.25 -52.85 -555.65 -53.0 -557.2 -70.5 -558.5 -70.4 -559.15 -77.8 -557.9 -77.95 -560.55 -107.85 -556.1 -108.25 -556.1 -108.3 -556.5 -110.65 -556.5 -111.4 -557.0 -111.55 -560.25 -111.55 -561.25 -118.15 -559.0 -118.3 -558.85 -124.8 -560.0 -137.3 -561.1 -142.3 -561.0 -146.05 -559.75 -152.05 -558.75 -154.15 -557.6 -155.9 -551.75 -162.65 -546.6 -167.3 -545.0 -168.4 -544.5 -169.3 -544.85 -169.9 -545.6 -170.05 -552.85 -169.9 -567.75 -168.15 -573.0 -167.05 -573.35 -168.0 -579.1 -165.45 -579.25 -163.4 -578.9 -162.55 -580.25 -161.65 -585.45 -171.65 -583.5 -172.6 -583.05 -171.95 -581.5 -170.8 -575.4 -173.05 -575.85 -174.15 -572.75 -174.8 -563.6 -175.4 -563.6 -177.3 -555.35 -176.65 -555.5 -176.05 -532.05 -177.3 -531.85 -178.8 -531.75 -178.8 -531.75 -182.05 -535.4 -182.05 -535.4 -188.9 -533.4 -188.9 -533.4 -194.6 -525.75 -194.6 -525.75 -188.9 -523.55 -188.9 -523.55 -182.05 -527.35 -182.05 -527.35 -178.8 -523.5 -178.8 -523.4 -177.55 -513.15 -177.65" fill="#969696" fill-rule="evenodd" stroke="none"/>
    <path d="M-537.1 -3.95 L-536.2 -4.0 -535.95 -1.45 -536.85 -1.35 -537.1 -3.95" fill="#707070" fill-rule="evenodd" stroke="none"/>
    <path d="M-543.1 -36.4 L-542.95 -34.55 -544.9 -34.5 -544.95 -36.35 -543.1 -36.4" fill="#707070" fill-rule="evenodd" stroke="none"/>
    <path d="M-542.65 -31.65 L-542.5 -29.45 -544.15 -29.45 -544.2 -31.6 -542.65 -31.65" fill="#707070" fill-rule="evenodd" stroke="none"/>
    <path d="M-546.05 -109.15 L-542.1 -109.55 -542.05 -109.15 -543.3 -109.05 -543.25 -108.1 -545.9 -107.9 -546.05 -109.15" fill="#707070" fill-rule="evenodd" stroke="none"/>
    <path d="M-409.95 29.0 L-409.95 20.9 -409.25 20.9 -409.25 29.0 -409.95 29.0" fill="#707070" fill-rule="evenodd" stroke="none"/>
    <path d="M-409.95 16.25 L-409.95 12.15 -409.25 12.15 -409.25 16.25 -409.95 16.25" fill="#707070" fill-rule="evenodd" stroke="none"/>
    <path d="M-355.65 29.15 L-355.65 12.3 -353.75 12.3 -353.75 29.15 -355.65 29.15" fill="#707070" fill-rule="evenodd" stroke="none"/>
    <path d="M-349.55 11.4 L-349.55 8.1 -345.05 8.1 -345.05 11.4 -349.55 11.4" fill="#707070" fill-rule="evenodd" stroke="none"/>
    <path d="M-349.55 6.2 L-349.55 2.85 -345.05 2.85 -345.05 6.2 -349.55 6.2" fill="#707070" fill-rule="evenodd" stroke="none"/>
    <path d="M-306.75 25.45 L-306.75 27.55 -311.25 27.55 -311.25 39.5 -334.2 39.5 -334.2 39.55 -339.75 39.55 -339.75 34.05 -338.2 34.05 -338.2 38.2 -334.25 38.2 -334.25 31.9 -314.25 31.9 -314.25 30.85 -319.8 30.85 -319.8 25.35 -318.25 25.35 -318.25 29.5 -314.25 29.5 -314.25 25.45 -306.75 25.45" fill="#707070" fill-rule="evenodd" stroke="none"/>
    <path d="M-144.3 -10.45 L-148.8 -13.8 -147.35 -15.6 -145.25 -14.05 -137.4 -23.25 -114.25 -3.5 -117.8 0.75 -119.1 -0.4 -116.45 -3.55 -119.35 -6.1 -123.4 -1.25 -140.2 -15.4 -140.85 -14.6 -136.6 -11.05 -140.15 -6.8 -141.35 -7.8 -138.65 -11.0 -141.75 -13.55 -144.3 -10.45" fill="#707070" fill-rule="evenodd" stroke="none"/>
    <path d="M-549.75 -108.5 L-547.8 -108.6 -538.9 -11.45 -537.9 -11.5 -536.35 6.95 -536.9 7.0 -536.45 11.85 -538.6 12.05 -539.2 7.1 -540.0 7.15 -541.5 -11.3 -540.85 -11.35 -542.05 -25.15 -543.45 -25.15 -543.45 -26.05 -542.15 -26.05 -542.35 -28.45 -542.4 -28.6 -542.3 -27.5 -543.45 -27.5 -543.45 -28.7 -542.4 -28.65 -543.9 -44.85 -544.95 -44.9 -545.05 -46.85 -544.05 -46.85 -549.75 -108.5" fill="#707070" fill-rule="evenodd" stroke="none"/>
    <path d="M-404.0 14.45 L-404.0 10.0 -400.8 10.0 -400.8 14.45 -404.0 14.45" fill="#707070" fill-rule="evenodd" stroke="none"/>
    <path d="M-392.4 11.0 L-392.4 14.15 -396.9 14.15 -396.9 11.0 -392.4 11.0" fill="#707070" fill-rule="evenodd" stroke="none"/>
    <path d="M-393.1 4.4 L-393.1 8.65 -396.3 8.65 -396.3 4.4 -393.1 4.4" fill="#707070" fill-rule="evenodd" stroke="none"/>
    <path d="M-404.1 7.65 L-404.1 3.0 -400.8 3.0 -400.8 7.65 -404.1 7.65" fill="#707070" fill-rule="evenodd" stroke="none"/>
    <path d="M-179.55 61.65 L-180.55 62.7 -181.6 61.65 -180.6 60.65 -179.55 61.65" fill="#707070" fill-rule="evenodd" stroke="none"/>
    <path d="M-191.85 50.1 L-192.55 51.35 -193.8 50.65 -193.1 49.4 -191.85 50.1" fill="#707070" fill-rule="evenodd" stroke="none"/>
    <path d="M-182.5 36.85 L-182.05 38.25 -183.4 38.7 -183.85 37.3 -182.5 36.85" fill="#707070" fill-rule="evenodd" stroke="none"/>
    <path d="M-190.8 46.25 L-189.8 47.25 -190.8 48.3 -191.85 47.3 -190.8 46.25" fill="#707070" fill-rule="evenodd" stroke="none"/>
    <path d="M-191.0 48.4 L-192.0 49.4 -193.0 48.4 -192.0 47.4 -191.0 48.4" fill="#707070" fill-rule="evenodd" stroke="none"/>
    <path d="M-184.2 39.7 L-183.2 38.65 -182.15 39.65 -183.15 40.7 -184.2 39.7" fill="#707070" fill-rule="evenodd" stroke="none"/>
    <path d="M-164.9 21.25 L-165.9 22.25 -166.95 21.25 -165.95 20.2 -164.9 21.25" fill="#707070" fill-rule="evenodd" stroke="none"/>
    <path d="M-183.35 40.8 L-184.35 41.85 -185.4 40.8 -184.4 39.8 -183.35 40.8" fill="#707070" fill-rule="evenodd" stroke="none"/>
    <path d="M-184.85 70.9 L-186.3 72.75 -187.8 71.65 -186.3 69.75 -184.85 70.9" fill="#707070" fill-rule="evenodd" stroke="none"/>
    <path d="M-190.2 75.3 L-189.0 76.2 -190.2 77.75 -191.4 76.8 -190.2 75.3" fill="#707070" fill-rule="evenodd" stroke="none"/>
    <path d="M-192.05 75.35 L-192.9 76.3 -194.05 75.25 -193.2 74.35 -192.05 75.35" fill="#707070" fill-rule="evenodd" stroke="none"/>
    <path d="M-194.0 74.65 L-194.65 75.35 -195.8 74.35 -195.15 73.65 -194.0 74.65" fill="#707070" fill-rule="evenodd" stroke="none"/>
    <path d="M-176.9 60.05 L-178.35 61.65 -179.65 60.5 -178.2 58.85 -176.9 60.05" fill="#707070" fill-rule="evenodd" stroke="none"/>
    <path d="M-176.65 63.6 L-178.4 65.55 -179.9 64.2 -178.15 62.25 -176.65 63.6" fill="#707070" fill-rule="evenodd" stroke="none"/>
    <path d="M-174.65 61.6 L-176.4 63.5 -177.8 62.25 -176.1 60.3 -174.65 61.6" fill="#707070" fill-rule="evenodd" stroke="none"/>
    <path d="M-172.35 53.8 L-177.15 59.1 -178.35 58.0 -173.55 52.7 -172.35 53.8" fill="#707070" fill-rule="evenodd" stroke="none"/>
    <path d="M-177.1 57.2 L-173.1 60.85 -174.05 61.85 -178.05 58.2 -177.1 57.2" fill="#707070" fill-rule="evenodd" stroke="none"/>
    <path d="M-151.55 31.2 L-149.1 33.45 -150.0 34.45 -152.45 32.2 -151.55 31.2" fill="#707070" fill-rule="evenodd" stroke="none"/>
    <path d="M-173.5 52.7 L-169.15 56.7 -170.0 57.6 -174.35 53.65 -173.5 52.7" fill="#707070" fill-rule="evenodd" stroke="none"/>
    <path d="M-165.25 47.2 L-162.9 49.35 -163.75 50.3 -166.1 48.15 -165.25 47.2" fill="#707070" fill-rule="evenodd" stroke="none"/>
    <path d="M-170.8 56.85 L-163.65 48.65 -162.7 49.45 -169.9 57.65 -170.8 56.85" fill="#707070" fill-rule="evenodd" stroke="none"/>
    <path d="M-150.7 31.9 L-165.1 49.05 -166.2 48.15 -151.75 31.0 -150.7 31.9" fill="#707070" fill-rule="evenodd" stroke="none"/>
    <path d="M-146.7 30.35 L-150.0 34.3 -151.1 33.35 -147.8 29.45 -146.7 30.35" fill="#707070" fill-rule="evenodd" stroke="none"/>
    <path d="M-184.7 75.35 L-185.9 76.7 -186.35 76.25 -185.1 74.95 -184.7 75.35" fill="#707070" fill-rule="evenodd" stroke="none"/>
    <path d="M-153.25 33.35 L-156.1 36.9 -157.1 35.85 -154.4 32.5 -153.25 33.35" fill="#707070" fill-rule="evenodd" stroke="none"/>
    <path d="M-201.0 60.25 L-202.3 60.85 -203.1 59.15 -201.75 58.55 -201.0 60.25" fill="#707070" fill-rule="evenodd" stroke="none"/>
    <path d="M-204.75 62.5 L-206.2 61.3 -204.65 59.5 -203.25 60.7 -204.75 62.5" fill="#707070" fill-rule="evenodd" stroke="none"/>
    <path d="M-206.05 64.7 L-207.5 63.45 -205.95 61.65 -204.5 62.9 -206.05 64.7" fill="#707070" fill-rule="evenodd" stroke="none"/>
    <path d="M-195.25 51.1 L-196.7 49.85 -195.15 48.05 -193.75 49.3 -195.25 51.1" fill="#707070" fill-rule="evenodd" stroke="none"/>
    <path d="M-186.45 43.55 L-187.75 42.2 -186.05 40.55 -184.75 41.9 -186.45 43.55" fill="#707070" fill-rule="evenodd" stroke="none"/>
    <path d="M-177.7 30.0 L-179.2 28.9 -177.75 27.0 -176.25 28.15 -177.7 30.0" fill="#707070" fill-rule="evenodd" stroke="none"/>
    <path d="M-164.05 20.5 L-165.6 19.4 -164.15 17.5 -162.6 18.65 -164.05 20.5" fill="#707070" fill-rule="evenodd" stroke="none"/>
    <path d="M-169.65 23.0 L-171.15 21.9 -169.7 20.0 -168.2 21.15 -169.65 23.0" fill="#707070" fill-rule="evenodd" stroke="none"/>
    <path d="M-167.95 20.2 L-169.45 19.05 -168.0 17.15 -166.5 18.3 -167.95 20.2" fill="#707070" fill-rule="evenodd" stroke="none"/>
    <path d="M-147.0 -11.1 L-150.25 -7.25 -151.7 -8.45 -148.45 -12.35 -147.0 -11.1" fill="#707070" fill-rule="evenodd" stroke="none"/>
    <path d="M-155.35 -4.75 L-155.75 -5.1 -155.0 -6.0 -154.6 -5.65 -155.35 -4.75" fill="#707070" fill-rule="evenodd" stroke="none"/>
    <path d="M-167.85 15.85 L-166.35 14.65 -164.85 16.55 -166.35 17.7 -167.85 15.85" fill="#707070" fill-rule="evenodd" stroke="none"/>
    <path d="M-189.75 29.8 L-190.85 28.95 -189.8 27.6 -188.7 28.45 -189.75 29.8" fill="#707070" fill-rule="evenodd" stroke="none"/>
    <path d="M-493.7 -87.85 L-496.2 -87.85 -496.2 -89.3 -493.7 -89.3 -493.7 -87.85" fill="#707070" fill-rule="evenodd" stroke="none"/>
    <path d="M-496.5 -87.65 L-499.0 -87.65 -499.0 -89.1 -496.5 -89.1 -496.5 -87.65" fill="#707070" fill-rule="evenodd" stroke="none"/>
    <path d="M-506.6 -89.85 L-509.1 -89.85 -509.1 -91.3 -506.6 -91.3 -506.6 -89.85" fill="#707070" fill-rule="evenodd" stroke="none"/>
    <path d="M-477.65 -87.6 L-480.0 -88.5 -479.45 -89.85 -477.15 -88.95 -477.65 -87.6" fill="#707070" fill-rule="evenodd" stroke="none"/>
    <path d="M-332.35 72.75 L-334.4 71.5 -333.65 70.25 -331.6 71.55 -332.35 72.75" fill="#707070" fill-rule="evenodd" stroke="none"/>
    <path d="M-348.5 65.0 L-350.5 63.65 -349.3 61.9 -347.35 63.25 -348.5 65.0" fill="#707070" fill-rule="evenodd" stroke="none"/>
    <path d="M-361.15 50.3 L-365.0 49.35 -364.5 47.35 -360.65 48.35 -361.15 50.3" fill="#707070" fill-rule="evenodd" stroke="none"/>
    <path d="M-381.05 56.7 L-383.15 56.35 -382.8 54.35 -380.7 54.7 -381.05 56.7" fill="#707070" fill-rule="evenodd" stroke="none"/>
    <path d="M-377.3 47.7 L-379.75 47.95 -380.0 45.95 -377.55 45.65 -377.3 47.7" fill="#707070" fill-rule="evenodd" stroke="none"/>
    <path d="M-382.2 44.9 L-383.25 48.3 -385.2 47.7 -384.15 44.25 -382.2 44.9" fill="#707070" fill-rule="evenodd" stroke="none"/>
    <path d="M-416.25 47.35 L-417.95 47.45 -418.25 43.9 -416.5 43.75 -416.25 47.35" fill="#707070" fill-rule="evenodd" stroke="none"/>
    <path d="M-400.2 55.0 L-404.6 55.0 -404.6 53.45 -400.2 53.45 -400.2 55.0" fill="#707070" fill-rule="evenodd" stroke="none"/>
    <path d="M-434.85 59.05 L-438.4 59.45 -438.65 57.5 -435.05 57.05 -434.85 59.05" fill="#707070" fill-rule="evenodd" stroke="none"/>
    <path d="M-432.6 50.3 L-435.15 51.0 -435.55 49.7 -433.0 49.0 -432.6 50.3" fill="#707070" fill-rule="evenodd" stroke="none"/>
    <path d="M-431.5 49.15 L-432.65 49.45 -432.8 48.95 -431.65 48.65 -431.5 49.15" fill="#707070" fill-rule="evenodd" stroke="none"/>
    <path d="M-547.85 -108.55 L-549.7 -108.4 -540.7 -11.1 -541.3 -11.1 -539.75 6.95 -539.2 6.9 -539.15 7.4 -540.2 7.5 -541.85 -11.55 -540.9 -11.6 -549.85 -108.55 -547.75 -108.65 -541.45 -43.25 -538.85 -11.8 -537.75 -11.9 -536.15 7.15 -536.85 7.2 -536.9 6.7 -536.65 6.7 -538.2 -11.35 -538.95 -11.3 -538.95 -11.8 -547.85 -108.55" fill="#434343" fill-rule="evenodd" stroke="none"/>
    <path d="M-544.2 -48.5 L-544.15 -47.6 -546.35 -47.5 -546.4 -48.4 -544.2 -48.5" fill="#434343" fill-rule="evenodd" stroke="none"/>
    <path d="M-545.4 -38.0 L-543.25 -38.05 -543.2 -37.25 -545.4 -37.05 -545.4 -38.0" fill="#434343" fill-rule="evenodd" stroke="none"/>
    <path d="M-542.2 -26.4 L-544.4 -26.3 -544.45 -27.2 -542.25 -27.35 -542.2 -26.4" fill="#434343" fill-rule="evenodd" stroke="none"/>
    <path d="M-547.55 -60.0 L-545.3 -60.15 -545.25 -59.3 -547.5 -59.1 -547.55 -60.0" fill="#434343" fill-rule="evenodd" stroke="none"/>
    <path d="M-546.45 -72.25 L-548.75 -72.05 -548.8 -72.95 -546.55 -73.15 -546.45 -72.25" fill="#434343" fill-rule="evenodd" stroke="none"/>
    <path d="M-140.25 -15.75 L-123.45 -1.6 -119.55 -6.25 -119.15 -5.9 -123.4 -0.85 -140.15 -15.05 -140.7 -14.45 -141.05 -14.75 -140.25 -15.75" fill="#434343" fill-rule="evenodd" stroke="none"/>
    <path d="M-147.35 -15.95 L-145.3 -14.4 -137.45 -23.6 -118.35 -7.35 -118.7 -6.95 -137.4 -22.9 -145.25 -13.7 -147.3 -15.25 -148.45 -13.85 -144.35 -10.8 -141.9 -13.7 -141.55 -13.4 -144.3 -10.15 -149.15 -13.75 -147.35 -15.95" fill="#434343" fill-rule="evenodd" stroke="none"/>
    <path d="M-537.1 -1.05 L-537.35 -4.2 -535.95 -4.25 -535.7 -1.25 -537.1 -1.05 M-536.8 -3.7 L-536.65 -1.6 -536.25 -1.65 -536.4 -3.7 -536.8 -3.7" fill="#434343" fill-rule="evenodd" stroke="none"/>
    <path d="M-311.0 27.8 L-311.0 39.75 -334.25 39.75 -334.25 39.25 -311.5 39.25 -311.5 27.3 -307.0 27.3 -307.0 25.7 -314.0 25.7 -314.0 29.5 -314.5 29.5 -314.5 25.2 -306.5 25.2 -306.5 27.8 -311.0 27.8" fill="#434343" fill-rule="evenodd" stroke="none"/>
    <path d="M-334.0 38.25 L-334.5 38.25 -334.5 31.65 -314.5 31.65 -314.5 30.8 -314.0 30.8 -314.0 32.15 -334.0 32.15 -334.0 38.25" fill="#434343" fill-rule="evenodd" stroke="none"/>
    <path d="M-547.55 -84.1 L-549.8 -83.9 -549.9 -84.8 -547.6 -85.0 -547.55 -84.1" fill="#434343" fill-rule="evenodd" stroke="none"/>
    <path d="M-548.7 -96.45 L-550.95 -96.3 -551.05 -97.15 -548.75 -97.35 -548.7 -96.45" fill="#434343" fill-rule="evenodd" stroke="none"/>
    <path d="M-158.05 12.85 L-162.45 9.05 -155.15 0.4 -150.65 4.15 -151.95 5.65 -152.35 5.3 -151.35 4.2 -155.1 1.1 -161.75 9.0 -158.1 12.15 -154.75 8.15 -154.35 8.45 -158.05 12.85" fill="#434343" fill-rule="evenodd" stroke="none"/>
    <path d="M-44.05 -23.6 L-44.9 -23.4 -45.1 -24.3 -44.25 -24.5 -44.05 -23.6" fill="#434343" fill-rule="evenodd" stroke="none"/>
    <path d="M-37.35 -23.75 L-38.25 -23.75 -38.2 -24.7 -37.35 -24.65 -37.35 -23.75" fill="#434343" fill-rule="evenodd" stroke="none"/>
    <path d="M-31.25 -22.9 L-32.1 -23.15 -31.85 -24.0 -31.0 -23.75 -31.25 -22.9" fill="#434343" fill-rule="evenodd" stroke="none"/>
    <path d="M-25.1 -20.95 L-25.95 -21.25 -25.6 -22.1 -24.75 -21.75 -25.1 -20.95" fill="#434343" fill-rule="evenodd" stroke="none"/>
    <path d="M-18.65 -17.1 L-19.4 -17.6 -18.9 -18.35 -18.15 -17.9 -18.65 -17.1" fill="#434343" fill-rule="evenodd" stroke="none"/>
    <path d="M-530.25 24.6 L-531.6 25.05 -531.75 24.6 -530.4 24.15 -530.25 24.6" fill="#434343" fill-rule="evenodd" stroke="none"/>
    <path d="M-527.25 30.75 L-528.35 31.6 -528.65 31.2 -527.5 30.4 -527.25 30.75" fill="#434343" fill-rule="evenodd" stroke="none"/>
    <path d="M-520.4 39.95 L-521.25 41.1 -521.6 40.85 -520.8 39.7 -520.4 39.95" fill="#434343" fill-rule="evenodd" stroke="none"/>
    <path d="M-507.55 47.95 L-508.1 49.25 -508.5 49.1 -507.95 47.8 -507.55 47.95" fill="#434343" fill-rule="evenodd" stroke="none"/>
    <path d="M-495.95 53.0 L-496.4 54.35 -496.85 54.2 -496.4 52.85 -495.95 53.0" fill="#434343" fill-rule="evenodd" stroke="none"/>
    <path d="M-487.5 55.45 L-487.65 56.85 -488.1 56.8 -487.95 55.4 -487.5 55.45" fill="#434343" fill-rule="evenodd" stroke="none"/>
    <path d="M-476.5 57.3 L-476.5 58.75 -476.95 58.75 -476.95 57.3 -476.5 57.3" fill="#434343" fill-rule="evenodd" stroke="none"/>
    <path d="M-467.3 57.4 L-467.25 58.8 -467.75 58.8 -467.75 57.4 -467.3 57.4" fill="#434343" fill-rule="evenodd" stroke="none"/>
    <path d="M-454.5 54.4 L-454.15 55.8 -454.6 55.9 -454.95 54.5 -454.5 54.4" fill="#434343" fill-rule="evenodd" stroke="none"/>
    <path d="M-422.85 46.55 L-422.7 47.95 -423.15 48.0 -423.3 46.6 -422.85 46.55" fill="#434343" fill-rule="evenodd" stroke="none"/>
    <path d="M-413.45 45.5 L-413.3 46.9 -413.75 46.95 -413.95 45.55 -413.45 45.5" fill="#434343" fill-rule="evenodd" stroke="none"/>
    <path d="M-404.1 44.95 L-404.0 46.35 -404.45 46.4 -404.55 44.95 -404.1 44.95" fill="#434343" fill-rule="evenodd" stroke="none"/>
    <path d="M-375.85 47.0 L-376.0 48.4 -376.45 48.35 -376.3 46.95 -375.85 47.0" fill="#434343" fill-rule="evenodd" stroke="none"/>
    <path d="M-366.6 48.95 L-366.8 50.35 -367.25 50.3 -367.05 48.9 -366.6 48.95" fill="#434343" fill-rule="evenodd" stroke="none"/>
    <path d="M-357.45 51.35 L-357.75 52.75 -358.2 52.65 -357.85 51.25 -357.45 51.35" fill="#434343" fill-rule="evenodd" stroke="none"/>
    <path d="M-347.45 54.8 L-347.9 56.15 -348.35 56.0 -347.9 54.7 -347.45 54.8" fill="#434343" fill-rule="evenodd" stroke="none"/>
    <path d="M-339.75 57.7 L-340.2 59.05 -340.6 58.9 -340.2 57.55 -339.75 57.7" fill="#434343" fill-rule="evenodd" stroke="none"/>
    <path d="M-331.25 62.0 L-331.8 63.3 -332.2 63.1 -331.65 61.8 -331.25 62.0" fill="#434343" fill-rule="evenodd" stroke="none"/>
    <path d="M-323.05 66.45 L-323.65 67.75 -324.1 67.55 -323.45 66.25 -323.05 66.45" fill="#434343" fill-rule="evenodd" stroke="none"/>
    <path d="M-315.1 71.5 L-315.8 72.7 -316.2 72.45 -315.45 71.25 -315.1 71.5" fill="#434343" fill-rule="evenodd" stroke="none"/>
    <path d="M-311.7 73.7 L-311.35 73.9 -312.05 75.1 -312.45 74.9 -311.7 73.7" fill="#434343" fill-rule="evenodd" stroke="none"/>
    <path d="M-308.45 88.5 L-309.0 88.25 -301.45 77.9 -301.05 78.2 -308.45 88.5" fill="#434343" fill-rule="evenodd" stroke="none"/>
    <path d="M-298.35 87.05 L-297.55 85.4 -293.75 88.6 -294.95 89.7 -298.35 87.05" fill="#434343" fill-rule="evenodd" stroke="none"/>
    <path d="M-302.85 93.1 L-305.65 91.3 -304.6 90.0 -303.25 90.65 -301.4 91.85 -302.85 93.1" fill="#434343" fill-rule="evenodd" stroke="none"/>
    <path d="M-300.75 88.35 L-302.95 86.85 -301.6 85.65 -300.8 84.55 -299.45 86.45 -300.75 88.35" fill="#434343" fill-rule="evenodd" stroke="none"/>
    <path d="M-298.75 91.45 L-296.75 92.8 -298.6 94.8 -300.25 93.6 -298.75 91.45" fill="#434343" fill-rule="evenodd" stroke="none"/>
    <path d="M-178.75 68.35 L-179.2 68.25 -180.0 68.25 -180.6 68.5 -181.2 69.0 -181.6 69.65 -181.8 70.3 -181.75 71.1 -181.5 71.65 -182.8 73.2 -182.7 71.65 -182.85 70.65 -182.85 69.25 -182.15 68.15 -181.15 67.35 -179.8 67.15 -178.8 67.2 -177.4 66.75 -178.75 68.35" fill="#434343" fill-rule="evenodd" stroke="none"/>
    <path d="M-206.45 71.35 L-207.0 70.05 Q-206.15 70.6 -205.35 71.1 L-205.4 71.75 -205.35 72.5 -205.05 73.15 -204.55 73.7 -203.9 74.1 -203.25 74.25 -202.45 74.2 -201.8 74.0 -200.45 75.5 -201.9 75.15 -202.9 75.35 -204.25 75.35 -205.35 74.7 -206.25 73.75 -206.45 72.4 -206.45 71.35" fill="#434343" fill-rule="evenodd" stroke="none"/>
    <path d="M-304.35 5.3 L-303.55 5.95 -302.65 7.0 -302.4 8.25 -302.55 9.55 -303.45 10.6 -304.2 11.25 -305.25 12.5 -305.25 10.6 -304.65 10.2 -304.05 9.65 -303.75 9.0 -303.7 8.25 -303.8 7.5 -304.15 6.9 -304.7 6.35 -305.25 6.0 -305.25 4.0 -304.35 5.3" fill="#434343" fill-rule="evenodd" stroke="none"/>
    <path d="M-301.35 68.45 L-302.1 68.35 -302.8 68.55 -303.45 68.95 -303.95 69.4 -305.9 68.85 -304.4 68.3 -303.55 67.7 -302.3 67.1 -301.05 67.2 -299.85 67.7 -299.05 68.85 -298.6 69.75 -297.7 71.1 -299.55 70.6 -299.75 69.85 -300.15 69.2 -300.65 68.75 -301.35 68.45" fill="#434343" fill-rule="evenodd" stroke="none"/>
    <path d="M-508.15 -175.95 L-509.3 -176.85 -509.35 -178.8 -508.4 -177.5 -507.6 -176.9 -506.65 -175.9 -506.4 -174.6 -506.55 -173.35 -507.4 -172.25 -508.15 -171.6 -509.1 -170.35 -509.2 -172.25 -508.6 -172.65 -508.05 -173.2 -507.75 -173.8 -507.7 -174.6 -507.8 -175.3 -508.15 -175.95" fill="#434343" fill-rule="evenodd" stroke="none"/>
    <path d="M-581.5 -171.0 L-580.5 -170.8 -579.25 -170.25 -578.5 -169.15 -578.1 -167.95 -578.45 -166.6 -578.85 -165.7 -579.2 -164.15 -580.05 -165.85 -579.7 -166.45 -579.4 -167.2 -579.4 -167.9 -579.65 -168.6 -580.1 -169.25 -580.65 -169.65 -581.4 -169.9 -582.05 -170.0 -582.9 -171.8 -581.5 -171.0" fill="#434343" fill-rule="evenodd" stroke="none"/>
  </g>
</svg>
