<?xml version="1.0" encoding="UTF-8" standalone="no"?>
<svg xmlns:ffdec="https://www.free-decompiler.com/flash" xmlns:xlink="http://www.w3.org/1999/xlink" ffdec:objectType="shape" height="168.0px" width="123.0px" xmlns="http://www.w3.org/2000/svg">
  <g transform="matrix(1.0, 0.0, 0.0, 1.0, 0.0, 0.0)">
    <path d="M123.0 6.0 L100.0 6.0 100.0 0.0 123.0 0.0 123.0 6.0 M123.0 33.0 L100.0 33.0 100.0 27.0 123.0 27.0 123.0 33.0 M98.0 6.0 L75.0 6.0 75.0 0.0 98.0 0.0 98.0 6.0 M98.0 33.0 L75.0 33.0 75.0 27.0 98.0 27.0 98.0 33.0 M100.0 81.0 L123.0 81.0 123.0 87.0 100.0 87.0 100.0 81.0 M98.0 87.0 L75.0 87.0 75.0 81.0 98.0 81.0 98.0 87.0 M100.0 54.0 L123.0 54.0 123.0 60.0 100.0 60.0 100.0 54.0 M98.0 60.0 L75.0 60.0 75.0 54.0 98.0 54.0 98.0 60.0 M73.0 6.0 L50.0 6.0 50.0 0.0 73.0 0.0 73.0 6.0 M48.0 6.0 L25.0 6.0 25.0 0.0 48.0 0.0 48.0 6.0 M50.0 27.0 L73.0 27.0 73.0 33.0 50.0 33.0 50.0 27.0 M48.0 33.0 L25.0 33.0 25.0 27.0 48.0 27.0 48.0 33.0 M23.0 6.0 L0.0 6.0 0.0 0.0 23.0 0.0 23.0 6.0 M0.0 27.0 L23.0 27.0 23.0 33.0 0.0 33.0 0.0 27.0 M25.0 54.0 L48.0 54.0 48.0 60.0 25.0 60.0 25.0 54.0 M23.0 60.0 L0.0 60.0 0.0 54.0 23.0 54.0 23.0 60.0 M0.0 81.0 L23.0 81.0 23.0 87.0 0.0 87.0 0.0 81.0 M25.0 81.0 L48.0 81.0 48.0 87.0 25.0 87.0 25.0 81.0 M73.0 60.0 L50.0 60.0 50.0 54.0 73.0 54.0 73.0 60.0 M50.0 81.0 L73.0 81.0 73.0 87.0 50.0 87.0 50.0 81.0 M75.0 108.0 L98.0 108.0 98.0 114.0 75.0 114.0 75.0 108.0 M73.0 114.0 L50.0 114.0 50.0 108.0 73.0 108.0 73.0 114.0 M48.0 114.0 L25.0 114.0 25.0 108.0 48.0 108.0 48.0 114.0 M48.0 141.0 L25.0 141.0 25.0 135.0 48.0 135.0 48.0 141.0 M50.0 135.0 L73.0 135.0 73.0 141.0 50.0 141.0 50.0 135.0 M75.0 135.0 L98.0 135.0 98.0 141.0 75.0 141.0 75.0 135.0 M23.0 114.0 L0.0 114.0 0.0 108.0 23.0 108.0 23.0 114.0 M0.0 135.0 L23.0 135.0 23.0 141.0 0.0 141.0 0.0 135.0 M25.0 162.0 L48.0 162.0 48.0 168.0 25.0 168.0 25.0 162.0 M23.0 162.0 L23.0 168.0 0.0 168.0 0.0 162.0 23.0 162.0 M73.0 162.0 L73.0 168.0 50.0 168.0 50.0 162.0 73.0 162.0 M75.0 162.0 L98.0 162.0 98.0 168.0 75.0 168.0 75.0 162.0 M123.0 141.0 L100.0 141.0 100.0 135.0 123.0 135.0 123.0 141.0 M123.0 114.0 L100.0 114.0 100.0 108.0 123.0 108.0 123.0 114.0 M100.0 162.0 L123.0 162.0 123.0 168.0 100.0 168.0 100.0 162.0" fill="#d6d6d6" fill-rule="evenodd" stroke="none"/>
  </g>
</svg>
