<?xml version="1.0" encoding="UTF-8" standalone="no"?>
<svg xmlns:ffdec="https://www.free-decompiler.com/flash" xmlns:xlink="http://www.w3.org/1999/xlink" ffdec:objectType="shape" height="144.0px" width="144.0px" xmlns="http://www.w3.org/2000/svg">
  <g transform="matrix(1.0, 0.0, 0.0, 1.0, 72.0, 72.0)">
    <path d="M70.0 -47.0 L70.0 -72.0 72.0 -72.0 72.0 -47.0 70.0 -47.0" fill="#ffffff" fill-rule="evenodd" stroke="none"/>
    <path d="M47.0 -72.0 L72.0 -72.0 72.0 -70.0 47.0 -70.0 47.0 -72.0" fill="#ffffff" fill-rule="evenodd" stroke="none"/>
    <path d="M47.0 70.0 L72.0 70.0 72.0 72.0 47.0 72.0 47.0 70.0" fill="#ffffff" fill-rule="evenodd" stroke="none"/>
    <path d="M72.0 47.0 L72.0 72.0 70.0 72.0 70.0 47.0 72.0 47.0" fill="#ffffff" fill-rule="evenodd" stroke="none"/>
    <path d="M-70.0 47.0 L-70.0 72.0 -72.0 72.0 -72.0 47.0 -70.0 47.0" fill="#ffffff" fill-rule="evenodd" stroke="none"/>
    <path d="M-47.0 72.0 L-72.0 72.0 -72.0 70.0 -47.0 70.0 -47.0 72.0" fill="#ffffff" fill-rule="evenodd" stroke="none"/>
    <path d="M-47.0 -70.0 L-72.0 -70.0 -72.0 -72.0 -47.0 -72.0 -47.0 -70.0" fill="#ffffff" fill-rule="evenodd" stroke="none"/>
    <path d="M-72.0 -47.0 L-72.0 -72.0 -70.0 -72.0 -70.0 -47.0 -72.0 -47.0" fill="#ffffff" fill-rule="evenodd" stroke="none"/>
  </g>
</svg>
