<?xml version="1.0" encoding="UTF-8" standalone="no"?>
<svg xmlns:ffdec="https://www.free-decompiler.com/flash" xmlns:xlink="http://www.w3.org/1999/xlink" ffdec:objectType="shape" height="42.8px" width="43.05px" xmlns="http://www.w3.org/2000/svg">
  <g transform="matrix(1.0, 0.0, 0.0, 1.0, 21.4, 21.65)">
    <path d="M6.3 -15.3 L4.85 -13.85 -1.5 -20.2 -0.05 -21.65 6.3 -15.3" fill="#e60000" fill-rule="evenodd" stroke="none"/>
    <path d="M21.15 -0.45 L19.7 1.0 13.35 -5.35 14.8 -6.8 21.15 -0.45" fill="#e60000" fill-rule="evenodd" stroke="none"/>
    <path d="M-13.6 4.65 L-15.05 6.1 -21.4 -0.25 -19.95 -1.7 -13.6 4.65" fill="#e60000" fill-rule="evenodd" stroke="none"/>
    <path d="M1.35 19.35 L-0.1 20.8 -6.45 14.45 -5.0 13.0 1.35 19.35" fill="#e60000" fill-rule="evenodd" stroke="none"/>
    <path d="M15.3 6.3 L13.85 4.85 20.2 -1.5 21.65 -0.05 15.3 6.3" fill="#e60000" fill-rule="evenodd" stroke="none"/>
    <path d="M0.45 21.15 L-1.0 19.7 5.35 13.35 6.8 14.8 0.45 21.15" fill="#e60000" fill-rule="evenodd" stroke="none"/>
    <path d="M-4.5 -13.5 L-5.95 -14.95 0.4 -21.3 1.85 -19.85 -4.5 -13.5" fill="#e60000" fill-rule="evenodd" stroke="none"/>
    <path d="M-19.35 1.4 L-20.8 -0.05 -14.45 -6.4 -13.0 -4.95 -19.35 1.4" fill="#e60000" fill-rule="evenodd" stroke="none"/>
    <path d="M0.05 18.55 L-18.3 0.2 0.05 -18.15 18.4 0.2 0.05 18.55" fill="#9b0000" fill-opacity="0.14901961" fill-rule="evenodd" stroke="none"/>
  </g>
</svg>
