<?xml version="1.0" encoding="UTF-8" standalone="no"?>
<svg xmlns:ffdec="https://www.free-decompiler.com/flash" xmlns:xlink="http://www.w3.org/1999/xlink" ffdec:objectType="shape" height="52.8px" width="52.85px" xmlns="http://www.w3.org/2000/svg">
  <g transform="matrix(1.0, 0.0, 0.0, 1.0, 26.4, 26.4)">
    <path d="M-19.95 -6.45 L-18.5 -5.05 -23.6 0.05 -18.55 5.1 -19.95 6.5 -26.4 0.0 -19.95 -6.45 M5.05 18.55 L6.45 20.0 0.0 26.4 -6.5 19.95 -5.1 18.55 0.0 23.6 5.05 18.55 M6.5 -19.9 L5.05 -18.5 0.0 -23.55 -5.1 -18.5 -6.5 -19.9 0.0 -26.4 6.5 -19.9 M18.5 -5.0 L19.9 -6.45 26.45 0.0 19.9 6.5 18.5 5.1 23.6 0.05 18.5 -5.0" fill="#70ffff" fill-rule="evenodd" stroke="none"/>
  </g>
</svg>
