<?xml version="1.0" encoding="UTF-8" standalone="no"?>
<svg xmlns:ffdec="https://www.free-decompiler.com/flash" xmlns:xlink="http://www.w3.org/1999/xlink" ffdec:objectType="shape" height="1259.2px" width="2459.2px" xmlns="http://www.w3.org/2000/svg">
  <g transform="matrix(1.0, 0.0, 0.0, 1.0, 1702.6, 899.7)">
    <path d="M607.9 -270.9 L641.1 -250.2 663.8 -231.3 686.1 -203.0 702.1 -174.0 714.0 -145.7 717.3 -128.0 721.1 -127.8 756.6 -99.3 727.4 -74.8 732.9 -47.1 718.0 -45.5 715.0 -11.9 666.0 -52.0 622.0 8.4 615.1 -34.4 618.1 -51.6 603.9 -133.9 603.6 -134.8 594.7 -140.1 584.7 -140.1 551.9 -158.6 536.1 -165.6 514.9 -169.1 493.5 -169.4 468.1 -162.1 453.9 -161.1 426.9 -169.4 399.5 -159.4 359.2 -140.8 346.8 -131.4 335.0 -119.9 324.3 -104.9 285.1 -68.4 262.9 -35.2 294.2 -8.4 300.9 -3.9 315.5 11.1 324.0 16.1 366.8 51.5 318.2 144.1 265.9 114.5 246.7 101.3 127.9 0.2 102.2 30.9 92.5 22.8 86.3 30.2 87.3 31.1 68.2 52.2 82.3 64.3 68.1 80.9 68.3 81.1 47.0 106.1 54.3 112.2 20.0 152.6 -1.9 134.4 -22.1 158.2 23.9 195.5 16.1 205.1 34.6 225.8 48.2 244.0 58.6 260.3 69.8 257.0 96.1 312.6 82.7 320.9 87.8 334.2 50.4 319.4 39.2 359.5 31.9 346.2 17.4 353.0 -10.1 294.1 -1.3 288.9 -13.7 270.3 -25.3 256.3 -25.6 256.0 -31.0 262.6 -79.0 226.4 -98.4 249.8 -130.5 222.9 -156.7 253.7 -224.5 198.3 -196.9 166.3 -208.9 155.5 -189.1 131.8 -230.4 92.6 -223.4 85.4 -240.5 72.0 -251.0 67.5 -256.7 63.7 -260.5 74.1 -322.8 48.8 -319.5 39.7 -376.4 18.3 -430.2 31.8 -462.1 44.1 -473.2 50.1 -476.3 53.6 -482.2 61.9 -487.2 72.6 -505.5 142.3 -496.2 144.8 -514.7 209.9 -524.2 207.2 -525.7 210.3 -510.9 229.1 -515.7 245.8 -508.0 249.5 -517.7 266.8 -522.5 264.0 -524.7 268.3 -517.5 273.0 -537.5 297.0 -552.7 283.0 -564.6 291.8 -593.1 267.3 -642.8 231.3 -663.3 219.0 -663.6 219.2 -701.3 199.6 -701.1 198.3 -762.3 171.7 -795.4 160.8 -817.0 155.4 -817.9 156.9 -853.4 149.0 -853.4 149.1 -891.4 143.0 -892.4 141.5 -932.4 139.0 -985.9 140.4 -986.2 141.8 -1034.6 145.8 -1092.5 158.1 -1176.4 183.2 -1215.2 189.1 -1247.2 188.7 -1292.2 183.7 -1365.4 164.9 -1359.5 149.1 -1389.3 137.3 -1430.2 114.9 -1445.3 104.3 -1457.8 117.5 -1480.7 90.4 -1501.5 60.5 -1517.5 31.8 -1526.0 12.1 -1568.2 19.0 -1589.2 -269.0 -1602.8 -430.7 -1597.8 -431.2 -1608.5 -550.9 -1606.2 -551.1 -1612.5 -592.7 -1600.2 -593.4 -1600.0 -599.4 -1602.9 -620.5 -1604.4 -648.0 -1609.0 -668.4 -1608.4 -687.8 -1602.5 -715.9 -1597.0 -727.7 -1591.2 -736.6 -1575.9 -755.8 -1573.2 -758.4 -1612.3 -754.2 -1648.7 -746.4 -1676.6 -730.6 -1702.6 -794.5 -1660.6 -815.6 -1619.0 -832.0 -1557.3 -836.6 -1506.2 -828.7 -1506.2 -877.0 -1498.2 -877.0 -1498.2 -899.7 -1462.7 -863.8 -1427.5 -899.7 -1427.5 -877.0 -1418.7 -877.0 -1418.7 -831.7 -1401.9 -831.9 -1402.2 -842.7 -1335.2 -844.6 -1332.7 -756.9 -1399.7 -755.0 -1399.9 -765.1 -1460.1 -763.6 -1486.0 -745.9 -1514.9 -722.7 -1536.7 -701.3 -1538.0 -699.3 -1540.3 -693.2 -1542.2 -685.2 -1543.0 -670.3 -1534.7 -600.7 -1534.3 -599.4 -1523.3 -600.0 -1519.6 -559.8 -1493.7 -562.4 -1493.6 -561.1 -1486.0 -561.7 -1480.0 -495.0 -1476.9 -495.0 -1453.5 -497.3 -1451.3 -479.8 -1332.4 -491.7 -1307.6 -491.4 -1285.0 -488.6 -1259.9 -482.2 -1231.9 -469.8 -1209.1 -456.7 -1187.2 -440.4 -1172.4 -426.7 -1156.2 -408.9 -1145.6 -395.3 -1135.4 -379.1 -1113.2 -335.8 -1098.0 -295.5 -1080.0 -277.1 -1054.3 -269.8 -949.8 -254.5 -848.4 -256.3 -836.8 -165.5 -947.1 -163.4 -1076.7 -179.9 -1095.1 -185.1 -1142.0 -205.3 -1157.8 -174.1 -1162.2 -159.2 -1154.8 -159.2 -1154.8 -119.3 -510.1 -119.3 -510.1 -135.0 -437.0 -135.0 -437.0 -72.6 -381.9 -54.4 -365.1 -99.2 -296.6 -73.4 -311.5 -33.6 -310.4 -33.2 -312.4 -28.1 -297.0 -22.7 -293.1 -33.5 -228.0 -8.0 -230.0 3.1 -199.5 21.0 -177.3 37.9 -169.4 29.8 -132.6 64.2 -117.0 44.0 -166.0 2.0 -119.0 -56.2 -67.2 -13.4 -28.3 -59.3 -29.5 -60.3 -20.5 -73.7 -28.0 -81.2 96.0 -232.0 206.2 -136.2 247.8 -167.9 272.1 -199.4 273.8 -209.8 283.7 -229.6 311.1 -246.9 339.6 -247.3 353.3 -248.7 357.1 -249.8 380.5 -260.5 406.5 -269.9 416.6 -276.8 431.3 -283.3 441.8 -290.5 454.9 -293.6 457.7 -294.9 457.7 -294.3 482.8 -300.2 497.1 -301.5 569.8 -294.8 590.8 -276.4 607.9 -270.9" fill="#000000" fill-rule="evenodd" stroke="none"/>
    <path d="M-533.7 73.8 L-530.7 57.5 -534.0 56.1 -544.9 95.8 -541.9 96.9 -541.5 95.3 -533.7 73.8 M-1090.0 57.0 L-1090.0 60.5 -1082.7 60.5 -1082.7 86.0 -1092.2 86.0 -1097.0 87.8 -1097.0 99.5 -1062.3 90.5 -1064.5 79.4 -1022.0 72.5 -982.3 69.4 -943.6 68.2 -943.8 80.7 -884.3 83.4 -882.7 71.3 -833.2 78.8 -774.7 93.3 -778.5 105.7 -768.5 109.0 -765.0 108.9 -753.3 113.2 -750.8 113.9 -749.6 115.2 -729.0 122.9 -725.5 123.5 -694.1 135.5 -690.0 126.4 -687.6 125.9 -685.8 126.9 -652.2 143.3 -602.7 172.8 -573.5 193.0 -571.0 194.0 -568.5 190.8 -564.2 190.0 -560.2 176.3 -574.5 172.2 -567.0 145.9 -559.0 148.1 -549.5 125.8 -544.4 107.3 -547.7 105.7 -550.2 114.8 -588.7 103.8 -567.0 26.8 -528.7 37.0 -532.1 49.3 -528.2 50.9 -528.2 50.8 -517.3 30.7 -508.3 20.0 -495.3 9.7 -484.6 3.7 -452.6 -10.0 Q-444.9 -12.6 -437.3 -15.3 L-431.3 -16.6 -430.0 -19.3 -430.0 -21.0 -430.6 -22.3 -432.6 -23.6 -487.0 -40.6 -538.0 -54.1 -538.0 -44.5 -565.6 -44.5 -565.6 -59.0 -582.0 -59.0 -582.0 -18.0 -558.5 -18.0 -558.5 9.0 -582.0 9.0 -582.0 57.4 -759.6 57.4 -759.6 14.4 -766.3 14.4 -766.3 57.0 -975.3 57.0 -975.3 -2.5 -981.0 -2.5 -981.0 57.0 -1090.0 57.0 M-1176.0 -262.7 L-1181.5 -275.5 -1185.5 -281.5 -1191.2 -299.5 -1210.5 -339.2 -1226.5 -361.5 -1246.0 -378.5 -1271.5 -394.0 -1287.0 -400.5 -1299.0 -404.0 -1323.0 -406.5 Q-1324.2 -406.9 -1325.4 -407.4 L-1325.5 -407.0 -1436.5 -396.0 -1463.0 -396.5 -1463.0 -396.0 -1464.0 -393.5 -1490.9 -392.0 -1479.0 -232.5 -1457.1 -14.1 -1459.2 -14.0 -1440.0 27.0 -1423.5 46.5 -1413.0 55.5 -1388.0 72.0 -1372.0 80.5 -1329.5 99.5 -1306.0 107.0 -1260.5 116.5 -1243.0 118.0 -1221.3 118.0 -1206.0 117.0 -1193.3 114.4 -1168.3 107.7 -1153.0 102.0 -1148.1 112.6 -1114.7 104.0 -1115.5 87.8 -1120.0 86.0 -1130.5 86.0 -1130.5 60.5 -1121.5 60.5 -1121.5 57.0 -1221.5 57.0 -1221.5 -95.5 -1207.8 -95.5 -1207.8 -111.5 -1222.8 -111.5 -1222.8 -139.2 -1213.8 -139.2 -1213.8 -146.6 -1212.0 -167.0 -1206.3 -191.0 -1176.0 -262.7 M599.4 -252.6 L629.4 -234.0 649.4 -217.3 669.4 -192.0 684.0 -165.3 694.7 -140.0 700.4 -109.3 713.4 -108.3 725.0 -99.0 718.7 -93.6 712.0 -101.6 702.0 -100.6 709.0 -64.6 696.7 -63.3 690.8 -53.5 697.7 -43.3 696.4 -28.3 638.4 -15.6 635.4 -34.3 638.4 -51.6 623.3 -139.0 619.8 -149.0 615.8 -157.5 610.5 -154.0 600.3 -160.1 589.8 -160.1 561.0 -176.5 541.8 -184.9 516.7 -189.1 490.8 -189.4 464.6 -181.9 456.2 -181.3 449.7 -183.3 450.2 -184.8 448.7 -190.5 446.9 -189.8 445.4 -192.0 445.7 -196.6 423.0 -189.3 392.0 -178.0 348.7 -158.0 333.7 -146.6 319.7 -133.0 309.0 -118.0 286.0 -95.0 282.6 -93.2 283.0 -92.0 270.5 -82.5 241.0 -38.5 233.5 -34.0 282.0 7.5 288.0 11.5 303.0 27.0 312.5 32.5 341.5 56.5 310.0 116.5 276.5 97.5 259.0 85.5 131.5 -23.0 124.7 -27.0 99.7 2.7 83.0 -11.3 73.4 0.0 56.7 -14.0 50.0 -9.6 47.0 -11.6 41.0 -4.3 41.0 -4.2 66.5 19.0 56.0 32.8 49.0 27.3 27.9 52.5 30.3 54.7 34.5 49.8 54.1 66.5 41.4 81.5 21.7 64.7 25.6 60.2 23.3 58.2 14.2 69.4 16.3 71.5 20.5 66.6 40.1 83.4 27.4 98.3 7.7 81.6 11.7 76.9 9.7 75.0 -2.7 90.3 26.0 114.5 17.5 124.5 -4.3 106.4 -24.5 130.0 -41.1 116.4 -52.1 126.7 -34.2 141.5 -59.0 171.2 -34.7 192.8 -25.3 181.4 -4.3 198.4 -8.7 203.8 -9.0 208.4 4.4 221.7 19.0 238.4 31.7 255.4 50.0 283.7 59.0 281.0 70.4 305.0 58.0 312.7 62.7 324.7 47.4 332.7 41.4 321.7 38.4 321.0 27.0 326.4 15.7 302.0 23.0 297.7 19.4 284.0 2.4 258.4 -10.6 242.7 -21.6 232.0 -29.0 228.6 -34.3 235.0 -56.0 218.7 -46.6 207.4 -71.0 185.6 -101.0 221.5 -136.5 191.8 -133.5 187.0 -140.3 181.5 -151.7 195.0 -142.0 205.5 -159.2 225.8 -196.0 195.8 -178.2 175.3 -166.0 183.2 -155.1 169.4 -160.2 165.3 -163.7 169.3 -181.2 153.5 -151.4 118.0 -161.2 111.0 -170.2 101.5 -170.9 101.0 -182.5 110.5 -202.0 92.0 -195.1 85.0 -197.7 83.5 -200.7 78.8 -230.5 54.5 -241.5 49.8 -251.7 43.0 -263.5 39.3 -268.8 38.3 -272.2 47.8 -297.5 37.5 -292.5 23.9 -307.2 18.2 -308.6 22.4 -373.6 -2.0 -380.6 -1.3 -436.3 12.7 -470.0 25.7 -481.3 31.0 -487.0 35.4 -492.0 41.0 -499.6 52.0 -506.0 65.5 -523.0 128.0 -529.0 156.3 -529.0 156.5 -521.0 158.7 -528.5 185.2 -542.9 181.1 -546.5 196.7 -542.0 198.0 -549.3 212.7 -540.0 224.5 -541.8 225.8 -539.8 233.3 -534.8 240.3 -538.1 247.5 -551.5 240.5 -557.8 251.0 -560.6 251.1 -561.8 256.9 -567.1 263.3 -596.2 239.5 -632.2 214.3 -662.5 196.2 -663.5 196.7 -679.5 188.4 -679.3 187.2 -701.5 175.5 -741.6 158.5 -780.1 144.8 -818.7 134.0 -825.2 132.9 -825.5 133.0 -826.8 132.9 -827.6 134.2 -845.0 130.4 -845.0 128.5 -861.2 126.0 -862.3 127.4 -880.0 124.5 -881.2 122.8 -932.0 119.0 -985.5 120.3 -1002.5 121.8 -1002.7 122.9 -1021.0 124.0 -1037.6 126.0 -1070.3 132.2 -1097.5 138.7 -1181.0 163.7 -1199.6 167.0 -1216.3 169.0 -1246.3 168.7 -1267.6 167.0 -1288.3 164.0 -1339.0 151.0 -1334.3 138.4 -1355.5 129.0 -1381.0 119.0 -1419.5 98.0 -1447.5 77.5 -1457.0 87.5 -1465.0 78.0 -1484.5 50.0 -1499.5 23.0 -1513.0 -8.0 -1513.0 -9.2 -1539.8 -6.8 -1557.5 -205.0 -1563.5 -204.5 -1565.8 -226.8 -1559.5 -227.3 -1565.2 -291.0 -1571.2 -290.5 -1573.5 -312.8 -1567.2 -313.3 -1573.4 -383.3 -1578.5 -382.8 -1581.1 -412.6 -1576.1 -413.0 -1586.8 -532.8 -1569.0 -534.4 -1569.0 -534.5 -1570.5 -544.0 -1570.5 -547.0 -1572.5 -547.5 -1585.5 -547.5 -1589.5 -574.0 -1580.5 -574.5 -1580.0 -600.5 -1583.0 -622.5 -1584.5 -650.5 -1589.0 -670.5 -1588.5 -685.5 -1583.5 -709.5 -1579.5 -718.0 -1561.0 -742.5 -1531.0 -770.5 -1524.5 -775.0 -1522.5 -778.5 -1524.0 -781.0 -1527.0 -781.5 -1556.0 -781.0 -1615.5 -774.0 -1636.5 -769.5 -1638.0 -773.3 -1661.0 -763.1 -1661.5 -755.0 -1660.1 -751.5 -1665.5 -748.0 -1686.3 -788.0 -1678.5 -791.8 -1676.8 -789.0 Q-1673.7 -786.7 -1670.6 -784.5 L-1646.1 -793.5 -1648.0 -798.0 -1635.5 -800.5 -1599.0 -803.0 -1599.0 -810.5 -1566.0 -808.0 -1566.5 -805.5 -1472.7 -810.4 -1472.0 -816.5 -1471.5 -816.5 -1471.5 -829.5 -1486.2 -829.5 -1486.2 -857.0 -1478.2 -857.0 -1478.2 -879.7 -1447.5 -879.7 -1447.5 -857.0 -1438.7 -857.0 -1438.7 -829.5 -1454.0 -829.5 -1454.0 -816.5 -1438.5 -816.5 -1438.2 -811.5 -1397.2 -812.0 -1397.1 -808.7 -1381.2 -808.6 -1381.6 -823.3 -1354.6 -824.1 -1353.2 -776.3 -1380.2 -775.6 -1380.8 -790.2 -1396.4 -790.2 -1396.2 -785.2 -1466.5 -783.4 -1498.0 -762.0 -1528.5 -737.5 -1541.5 -724.0 Q-1546.7 -719.2 -1552.0 -714.5 L-1556.0 -708.5 -1559.5 -699.0 -1562.0 -688.5 -1563.0 -669.0 -1560.5 -650.0 -1559.0 -630.5 -1555.5 -609.5 -1554.5 -597.5 -1550.5 -578.5 -1541.5 -579.0 -1539.0 -551.5 -1553.0 -549.0 -1552.5 -538.5 -1552.0 -535.9 -1504.1 -540.1 -1498.3 -475.0 -1476.0 -475.0 -1471.0 -475.5 -1467.5 -447.5 -1439.5 -447.5 -1439.0 -447.4 -1439.0 -461.0 -1331.5 -471.7 -1309.0 -471.5 -1288.7 -469.0 -1266.5 -463.2 -1241.0 -452.0 -1220.1 -440.0 -1200.0 -425.0 -1186.6 -412.6 -1171.5 -396.0 -1162.0 -383.8 -1153.0 -369.5 -1143.5 -349.5 -1131.5 -327.5 -1123.5 -306.2 -1135.5 -301.0 -1135.5 -300.2 -1114.5 -271.0 -1087.0 -258.3 -1059.0 -250.3 -1028.5 -244.5 -951.0 -234.5 -866.0 -236.0 -859.5 -185.0 -946.5 -183.5 -967.5 -185.0 -1013.5 -190.5 -1072.5 -199.5 -1088.5 -204.0 Q-1117.5 -216.7 -1146.5 -229.5 L-1149.7 -234.6 -1176.4 -181.5 -1183.0 -159.6 -1183.8 -139.2 -1174.8 -139.2 -1174.8 -111.5 -1189.8 -111.5 -1189.8 -95.5 -1091.0 -95.5 -1091.0 -99.5 -1027.5 -99.5 -1027.5 -95.5 -981.0 -95.5 -981.0 -37.8 -975.3 -37.8 -975.3 -95.0 -766.3 -95.0 -766.3 -52.1 -759.6 -52.1 -759.6 -94.6 -709.0 -94.6 -709.0 -101.3 -646.0 -101.3 -646.0 -94.6 -582.0 -94.6 -582.0 -77.5 -565.6 -77.5 -565.6 -93.0 -538.0 -93.0 -538.0 -83.8 -534.3 -82.3 -516.0 -77.6 -491.3 -69.4 -491.3 -72.5 -474.3 -72.5 -474.3 -76.6 -469.8 -76.6 -469.8 -77.8 -490.1 -77.8 -490.1 -115.0 -457.0 -115.0 -457.0 -77.8 -461.1 -77.8 -461.1 -76.6 -457.1 -76.6 -457.1 -68.3 -458.3 -58.6 -369.7 -29.3 -369.6 -29.7 -366.7 -37.5 -363.0 -36.1 -362.6 -37.2 -366.5 -38.6 -353.4 -73.4 -322.3 -61.7 -335.4 -27.0 -354.4 -34.1 Q-354.6 -33.5 -354.9 -33.0 L-350.6 -31.4 -352.1 -27.5 -336.2 -21.6 -338.2 -16.3 -300.3 -2.6 -301.5 0.9 -286.3 6.7 -281.2 -7.5 Q-255.5 2.5 -255.5 2.0 L-258.0 8.8 -255.2 13.5 -237.2 21.8 -210.7 37.5 -188.5 54.5 -176.2 62.8 -174.8 64.1 -168.7 57.8 -149.0 76.3 -158.0 88.5 -156.5 89.8 -149.7 96.8 -139.3 103.4 -115.0 74.3 -93.9 91.8 -83.6 79.4 -97.7 67.3 -77.5 42.8 -78.8 41.6 -82.2 45.7 -113.6 19.3 -101.1 5.3 -70.2 31.5 -74.3 36.3 -73.0 37.4 -68.2 31.5 -119.3 -11.7 -116.0 -16.7 -123.2 -23.0 -117.5 -29.0 -64.7 14.5 -12.0 -47.7 15.3 -24.6 22.3 -32.2 20.0 -35.2 22.3 -42.5 -3.0 -64.0 5.3 -76.2 -1.0 -82.5 66.1 -163.7 74.4 -157.5 105.8 -194.3 198.5 -115.2 169.7 -80.6 169.6 -80.5 178.0 -80.5 182.0 -78.0 186.5 -83.0 228.0 -115.5 234.5 -119.5 230.0 -121.5 227.0 -127.0 262.5 -154.0 262.7 -153.5 263.4 -155.3 276.0 -172.6 291.0 -191.0 293.0 -203.6 299.0 -215.6 317.0 -227.0 340.7 -227.3 357.0 -229.0 364.0 -231.0 388.0 -242.0 415.7 -252.0 426.4 -259.3 440.0 -265.3 440.1 -265.0 450.0 -272.0 486.0 -280.5 497.0 -281.5 561.5 -275.5 580.7 -258.6 599.4 -252.6" fill="#000000" fill-rule="evenodd" stroke="none"/>
    <path d="M-1492.9 -117.1 L-1489.3 -117.2 -1488.4 -107.1 -1492.0 -106.6 -1492.9 -117.1" fill="#000000" fill-rule="evenodd" stroke="none"/>
    <path d="M-1517.0 -246.8 L-1516.3 -239.5 -1524.1 -239.4 -1524.3 -246.8 -1517.0 -246.8" fill="#000000" fill-rule="evenodd" stroke="none"/>
    <path d="M-1515.2 -227.8 L-1514.6 -219.1 -1521.1 -219.1 -1521.3 -227.7 -1515.2 -227.8" fill="#000000" fill-rule="evenodd" stroke="none"/>
    <path d="M-1528.1 -532.8 L-1528.7 -537.8 -1513.0 -539.4 -1512.8 -537.8 -1517.7 -537.5 -1517.6 -533.7 -1528.1 -532.8" fill="#000000" fill-rule="evenodd" stroke="none"/>
    <path d="M-984.3 14.8 L-984.3 -17.7 -981.6 -17.7 -981.6 14.8 -984.3 14.8" fill="#000000" fill-rule="evenodd" stroke="none"/>
    <path d="M-984.3 -36.2 L-984.3 -52.7 -981.6 -52.7 -981.6 -36.2 -984.3 -36.2" fill="#000000" fill-rule="evenodd" stroke="none"/>
    <path d="M-767.2 -52.1 L-759.6 -52.1 -759.6 15.3 -767.2 15.3 -767.2 -52.1" fill="#000000" fill-rule="evenodd" stroke="none"/>
    <path d="M-742.7 -55.7 L-742.7 -69.0 -724.7 -69.0 -724.7 -55.7 -742.7 -55.7" fill="#000000" fill-rule="evenodd" stroke="none"/>
    <path d="M-742.7 -76.5 L-742.7 -90.0 -724.7 -90.0 -724.7 -76.5 -742.7 -76.5" fill="#000000" fill-rule="evenodd" stroke="none"/>
    <path d="M-571.6 0.5 L-571.6 8.9 -589.6 8.9 -589.6 56.7 -681.4 56.7 -681.4 56.9 -703.6 56.9 -703.6 34.9 -697.4 34.9 -697.4 51.5 -681.5 51.5 -681.5 26.2 -601.6 26.2 -601.6 22.0 -623.8 22.0 -623.8 0.0 -617.6 0.0 -617.6 16.7 -601.6 16.7 -601.6 0.5 -571.6 0.5" fill="#000000" fill-rule="evenodd" stroke="none"/>
    <path d="M100.8 -145.3 L88.5 -155.6 78.2 -143.2 60.2 -156.5 66.1 -163.7 74.4 -157.5 105.8 -194.3 198.5 -115.2 184.2 -98.3 Q181.7 -100.5 179.1 -102.8 L189.7 -115.6 178.1 -125.6 161.8 -106.2 94.7 -162.9 92.0 -159.7 109.0 -145.4 94.9 -128.5 90.1 -132.6 100.8 -145.3" fill="#000000" fill-rule="evenodd" stroke="none"/>
    <path d="M-1543.6 -535.2 L-1535.7 -535.7 -1506.3 -222.6 -1500.1 -147.1 -1496.2 -147.3 -1490.0 -73.5 -1492.1 -73.3 -1490.3 -53.8 -1499.0 -53.1 -1501.3 -72.9 -1504.5 -72.7 -1510.6 -146.5 -1507.9 -146.6 -1512.8 -201.9 -1518.3 -201.8 -1518.3 -205.5 -1513.2 -205.5 -1514.0 -215.1 -1514.1 -215.6 -1513.8 -211.3 -1518.3 -211.3 -1518.3 -216.0 -1514.1 -215.9 -1520.1 -280.6 -1524.4 -281.0 -1524.7 -288.7 -1520.8 -288.8 -1543.6 -535.2" fill="#000000" fill-rule="evenodd" stroke="none"/>
    <path d="M-960.5 -43.5 L-960.5 -61.2 -947.7 -61.2 -947.7 -43.5 -960.5 -43.5" fill="#000000" fill-rule="evenodd" stroke="none"/>
    <path d="M-932.2 -44.7 L-932.2 -57.2 -914.2 -57.2 -914.2 -44.7 -932.2 -44.7" fill="#000000" fill-rule="evenodd" stroke="none"/>
    <path d="M-917.0 -83.7 L-917.0 -66.7 -929.7 -66.7 -929.7 -83.7 -917.0 -83.7" fill="#000000" fill-rule="evenodd" stroke="none"/>
    <path d="M-961.0 -70.7 L-961.0 -89.2 -947.7 -89.2 -947.7 -70.7 -961.0 -70.7" fill="#000000" fill-rule="evenodd" stroke="none"/>
    <path d="M-62.8 145.3 L-66.8 149.4 -71.0 145.4 -66.9 141.3 -62.8 145.3" fill="#000000" fill-rule="evenodd" stroke="none"/>
    <path d="M-111.9 99.1 L-114.7 104.1 -119.7 101.2 -116.9 96.2 -111.9 99.1" fill="#000000" fill-rule="evenodd" stroke="none"/>
    <path d="M-74.5 46.2 L-72.7 51.7 -78.2 53.4 -80.0 47.9 -74.5 46.2" fill="#000000" fill-rule="evenodd" stroke="none"/>
    <path d="M-103.7 87.8 L-107.7 91.9 -111.9 87.8 -107.8 83.7 -103.7 87.8" fill="#000000" fill-rule="evenodd" stroke="none"/>
    <path d="M-108.5 92.3 L-112.5 96.4 -116.6 92.3 -112.6 88.2 -108.5 92.3" fill="#000000" fill-rule="evenodd" stroke="none"/>
    <path d="M-73.2 57.4 L-77.2 61.5 -81.4 57.5 -77.3 53.3 -73.2 57.4" fill="#000000" fill-rule="evenodd" stroke="none"/>
    <path d="M-12.4 -16.3 L-8.3 -20.4 -4.2 -16.4 -8.2 -12.2 -12.4 -16.3" fill="#000000" fill-rule="evenodd" stroke="none"/>
    <path d="M-78.0 61.9 L-82.0 66.0 -86.1 62.0 -82.1 57.8 -78.0 61.9" fill="#000000" fill-rule="evenodd" stroke="none"/>
    <path d="M-95.7 185.2 L-89.8 177.7 -84.0 182.2 -89.8 189.8 -95.7 185.2" fill="#000000" fill-rule="evenodd" stroke="none"/>
    <path d="M-100.6 203.5 L-105.3 209.6 -110.2 205.9 -105.4 199.8 -100.6 203.5" fill="#000000" fill-rule="evenodd" stroke="none"/>
    <path d="M-112.8 200.1 L-116.1 203.8 -120.7 199.8 -117.3 196.0 -112.8 200.1" fill="#000000" fill-rule="evenodd" stroke="none"/>
    <path d="M-120.6 197.3 L-123.1 200.1 -127.7 196.0 -125.2 193.3 -120.6 197.3" fill="#000000" fill-rule="evenodd" stroke="none"/>
    <path d="M-57.3 134.1 L-52.1 138.8 -58.0 145.3 -63.2 140.6 -57.3 134.1" fill="#000000" fill-rule="evenodd" stroke="none"/>
    <path d="M-57.1 147.7 L-51.1 153.2 -58.2 161.0 -64.2 155.5 -57.1 147.7" fill="#000000" fill-rule="evenodd" stroke="none"/>
    <path d="M-43.2 145.2 L-50.1 152.8 -55.8 147.6 -48.9 140.0 -43.2 145.2" fill="#000000" fill-rule="evenodd" stroke="none"/>
    <path d="M-33.9 113.9 L-53.1 135.1 -58.0 130.6 -38.8 109.5 -33.9 113.9" fill="#000000" fill-rule="evenodd" stroke="none"/>
    <path d="M-40.7 146.1 L-56.7 131.5 -53.0 127.5 -37.0 142.0 -40.7 146.1" fill="#000000" fill-rule="evenodd" stroke="none"/>
    <path d="M49.2 23.5 L59.1 32.4 55.4 36.5 45.6 27.5 49.2 23.5" fill="#000000" fill-rule="evenodd" stroke="none"/>
    <path d="M-38.6 109.6 L-21.2 125.4 -24.5 129.1 -41.9 113.3 -38.6 109.6" fill="#000000" fill-rule="evenodd" stroke="none"/>
    <path d="M-5.6 87.6 L3.8 96.1 0.5 99.8 -8.9 91.3 -5.6 87.6" fill="#000000" fill-rule="evenodd" stroke="none"/>
    <path d="M-27.8 126.1 L0.9 93.3 4.6 96.6 -24.1 129.4 -27.8 126.1" fill="#000000" fill-rule="evenodd" stroke="none"/>
    <path d="M52.7 26.4 L-5.0 95.0 -9.4 91.3 48.4 22.7 52.7 26.4" fill="#000000" fill-rule="evenodd" stroke="none"/>
    <path d="M51.1 32.1 L64.3 16.5 68.6 20.1 55.4 35.8 51.1 32.1" fill="#000000" fill-rule="evenodd" stroke="none"/>
    <path d="M-83.3 200.1 L-88.1 205.5 -90.0 203.8 -85.0 198.5 -83.3 200.1" fill="#000000" fill-rule="evenodd" stroke="none"/>
    <path d="M42.5 32.0 L31.0 46.2 27.0 42.0 37.8 28.8 42.5 32.0" fill="#000000" fill-rule="evenodd" stroke="none"/>
    <path d="M-148.5 139.7 L-153.8 142.1 -156.9 135.3 -151.6 132.9 -148.5 139.7" fill="#000000" fill-rule="evenodd" stroke="none"/>
    <path d="M-163.6 148.8 L-169.4 143.8 -163.2 136.6 -157.5 141.5 -163.6 148.8" fill="#000000" fill-rule="evenodd" stroke="none"/>
    <path d="M-168.8 157.4 L-174.6 152.5 -168.4 145.3 -162.6 150.2 -168.8 157.4" fill="#000000" fill-rule="evenodd" stroke="none"/>
    <path d="M-125.6 103.1 L-131.4 98.2 -125.2 90.9 -119.5 95.9 -125.6 103.1" fill="#000000" fill-rule="evenodd" stroke="none"/>
    <path d="M-90.4 72.9 L-95.6 67.4 -88.7 60.9 -83.5 66.4 -90.4 72.9" fill="#000000" fill-rule="evenodd" stroke="none"/>
    <path d="M-55.3 18.8 L-61.4 14.2 -55.6 6.6 -49.5 11.2 -55.3 18.8" fill="#000000" fill-rule="evenodd" stroke="none"/>
    <path d="M5.0 -26.8 L-0.8 -19.2 -6.9 -23.8 -1.1 -31.4 5.0 -26.8" fill="#000000" fill-rule="evenodd" stroke="none"/>
    <path d="M-23.1 -9.2 L-29.1 -13.8 -23.3 -21.4 -17.3 -16.8 -23.1 -9.2" fill="#000000" fill-rule="evenodd" stroke="none"/>
    <path d="M-16.3 -20.5 L-22.4 -25.0 -16.6 -32.6 -10.5 -28.0 -16.3 -20.5" fill="#000000" fill-rule="evenodd" stroke="none"/>
    <path d="M54.4 -130.3 L48.6 -135.2 61.7 -150.6 67.5 -145.7 54.4 -130.3" fill="#000000" fill-rule="evenodd" stroke="none"/>
    <path d="M34.1 -120.3 L32.5 -121.7 35.5 -125.3 37.1 -123.9 34.1 -120.3" fill="#000000" fill-rule="evenodd" stroke="none"/>
    <path d="M-15.9 -37.9 L-9.9 -42.6 -4.0 -35.2 -10.0 -30.4 -15.9 -37.9" fill="#000000" fill-rule="evenodd" stroke="none"/>
    <path d="M-103.5 17.9 L-107.9 14.5 -103.8 9.0 -99.3 12.4 -103.5 17.9" fill="#000000" fill-rule="evenodd" stroke="none"/>
    <path d="M-1319.3 -452.6 L-1329.3 -452.6 -1329.3 -458.5 -1319.3 -458.5 -1319.3 -452.6" fill="#000000" fill-rule="evenodd" stroke="none"/>
    <path d="M-1330.5 -452.0 L-1340.5 -452.0 -1340.5 -457.8 -1330.5 -457.8 -1330.5 -452.0" fill="#000000" fill-rule="evenodd" stroke="none"/>
    <path d="M-1371.0 -460.6 L-1381.0 -460.6 -1381.0 -466.5 -1371.0 -466.5 -1371.0 -460.6" fill="#000000" fill-rule="evenodd" stroke="none"/>
    <path d="M-1255.2 -451.6 L-1264.5 -455.4 -1262.3 -460.8 -1253.1 -457.0 -1255.2 -451.6" fill="#000000" fill-rule="evenodd" stroke="none"/>
    <path d="M-674.0 189.8 L-682.2 184.6 -679.2 179.8 -670.9 184.9 -674.0 189.8" fill="#000000" fill-rule="evenodd" stroke="none"/>
    <path d="M-738.6 158.7 L-746.6 153.2 -741.8 146.3 -733.9 151.8 -738.6 158.7" fill="#000000" fill-rule="evenodd" stroke="none"/>
    <path d="M-789.1 100.0 L-804.5 96.1 -802.5 88.2 -787.1 92.0 -789.1 100.0" fill="#000000" fill-rule="evenodd" stroke="none"/>
    <path d="M-868.7 125.5 L-877.1 124.1 -875.7 116.0 -867.3 117.5 -868.7 125.5" fill="#000000" fill-rule="evenodd" stroke="none"/>
    <path d="M-853.8 89.4 L-863.6 90.5 -864.5 82.4 -854.7 81.3 -853.8 89.4" fill="#000000" fill-rule="evenodd" stroke="none"/>
    <path d="M-873.3 78.2 L-877.6 92.0 -885.4 89.6 -881.1 75.8 -873.3 78.2" fill="#000000" fill-rule="evenodd" stroke="none"/>
    <path d="M-1010.6 73.7 L-1009.5 88.0 -1016.4 88.6 -1017.5 74.2 -1010.6 73.7" fill="#000000" fill-rule="evenodd" stroke="none"/>
    <path d="M-963.0 112.4 L-945.3 112.4 -945.3 118.7 -963.0 118.7 -963.0 112.4" fill="#000000" fill-rule="evenodd" stroke="none"/>
    <path d="M-1083.9 134.8 L-1098.2 136.5 -1099.1 128.6 -1084.8 126.9 -1083.9 134.8" fill="#000000" fill-rule="evenodd" stroke="none"/>
    <path d="M-1075.0 100.0 L-1085.2 102.8 -1086.7 97.4 -1076.5 94.7 -1075.0 100.0" fill="#000000" fill-rule="evenodd" stroke="none"/>
    <path d="M-1070.6 95.3 L-1075.2 96.6 -1075.8 94.6 -1071.1 93.3 -1070.6 95.3" fill="#000000" fill-rule="evenodd" stroke="none"/>
    <path d="M-1535.9 -535.4 L-1543.4 -535.0 -1507.4 -145.8 -1509.7 -145.6 -1503.6 -73.5 -1501.4 -73.7 -1501.2 -71.7 -1505.4 -71.4 -1511.9 -147.5 -1508.2 -147.7 -1544.0 -535.4 -1535.5 -536.0 -1510.4 -274.3 -1499.9 -148.5 -1495.6 -148.9 -1489.1 -72.8 -1492.0 -72.5 -1492.2 -74.5 -1491.2 -74.6 -1497.4 -146.7 -1500.3 -146.5 -1510.9 -274.3 -1524.7 -412.9 -1535.9 -535.4" fill="#000000" fill-rule="evenodd" stroke="none"/>
    <path d="M-1521.4 -295.3 L-1521.1 -291.7 -1530.0 -291.3 -1530.2 -294.8 -1521.4 -295.3" fill="#000000" fill-rule="evenodd" stroke="none"/>
    <path d="M-1526.2 -253.3 L-1517.6 -253.5 -1517.3 -250.2 -1526.1 -249.5 -1526.2 -253.3" fill="#000000" fill-rule="evenodd" stroke="none"/>
    <path d="M-1522.4 -210.1 L-1513.6 -210.6 -1513.4 -207.0 -1522.2 -206.5 -1522.4 -210.1" fill="#000000" fill-rule="evenodd" stroke="none"/>
    <path d="M-1534.8 -341.4 L-1525.8 -341.8 -1525.5 -338.6 -1534.5 -337.7 -1534.8 -341.4" fill="#000000" fill-rule="evenodd" stroke="none"/>
    <path d="M-1530.4 -390.3 L-1539.5 -389.6 -1539.7 -393.2 -1530.7 -393.9 -1530.4 -390.3" fill="#000000" fill-rule="evenodd" stroke="none"/>
    <path d="M94.5 -164.3 L161.7 -107.6 177.3 -126.3 178.8 -125.0 161.9 -104.8 94.8 -161.5 92.7 -159.0 91.2 -160.3 94.5 -164.3" fill="#000000" fill-rule="evenodd" stroke="none"/>
    <path d="M74.2 -158.9 L105.7 -195.7 182.0 -130.6 180.7 -129.1 105.9 -192.9 74.5 -156.1 66.3 -162.3 61.7 -156.6 78.0 -144.6 87.8 -156.2 89.3 -154.9 78.3 -141.8 58.8 -156.3 66.0 -165.0 74.2 -158.9" fill="#000000" fill-rule="evenodd" stroke="none"/>
    <path d="M-1491.8 -116.1 L-1491.1 -107.8 -1489.5 -108.0 -1490.2 -116.2 -1491.8 -116.1 M-1492.9 -105.5 L-1494.0 -118.0 -1488.4 -118.2 -1487.3 -106.2 -1492.9 -105.5" fill="#000000" fill-rule="evenodd" stroke="none"/>
    <path d="M-572.6 1.5 L-600.6 1.5 -600.6 16.7 -602.6 16.7 -602.6 -0.5 -570.6 -0.5 -570.6 9.9 -588.6 9.9 -588.6 57.7 -681.5 57.7 -681.5 55.7 -590.6 55.7 -590.6 7.9 -572.6 7.9 -572.6 1.5" fill="#000000" fill-rule="evenodd" stroke="none"/>
    <path d="M-600.6 27.2 L-680.5 27.2 -680.5 51.7 -682.5 51.7 -682.5 25.2 -602.6 25.2 -602.6 21.9 -600.6 21.9 -600.6 27.2" fill="#000000" fill-rule="evenodd" stroke="none"/>
    <path d="M-1534.7 -437.7 L-1543.8 -436.9 -1544.1 -440.5 -1535.0 -441.2 -1534.7 -437.7" fill="#000000" fill-rule="evenodd" stroke="none"/>
    <path d="M-1539.4 -487.2 L-1548.4 -486.4 -1548.7 -490.0 -1539.6 -490.7 -1539.4 -487.2" fill="#000000" fill-rule="evenodd" stroke="none"/>
    <path d="M23.1 -52.7 L36.4 -68.8 38.0 -67.5 23.3 -49.9 5.6 -65.0 34.8 -99.7 52.8 -84.7 47.6 -78.8 46.1 -80.1 50.0 -84.5 35.0 -96.9 8.5 -65.2 23.1 -52.7" fill="#000000" fill-rule="evenodd" stroke="none"/>
    <path d="M479.3 -195.7 L475.9 -194.9 475.0 -198.5 478.4 -199.3 479.3 -195.7" fill="#000000" fill-rule="evenodd" stroke="none"/>
    <path d="M506.0 -196.2 L502.5 -196.4 502.6 -200.0 506.1 -199.9 506.0 -196.2" fill="#000000" fill-rule="evenodd" stroke="none"/>
    <path d="M530.5 -192.9 L527.1 -193.8 528.1 -197.4 531.5 -196.4 530.5 -192.9" fill="#000000" fill-rule="evenodd" stroke="none"/>
    <path d="M555.0 -185.0 L551.7 -186.4 553.1 -189.7 556.4 -188.4 555.0 -185.0" fill="#000000" fill-rule="evenodd" stroke="none"/>
    <path d="M580.8 -169.8 L577.8 -171.6 579.8 -174.7 582.8 -172.9 580.8 -169.8" fill="#000000" fill-rule="evenodd" stroke="none"/>
    <path d="M-1465.6 -2.9 L-1471.0 -1.1 -1471.6 -2.8 -1466.2 -4.7 -1465.6 -2.9" fill="#000000" fill-rule="evenodd" stroke="none"/>
    <path d="M-1453.5 21.7 L-1458.0 25.0 -1459.1 23.6 -1454.5 20.2 -1453.5 21.7" fill="#000000" fill-rule="evenodd" stroke="none"/>
    <path d="M-1426.2 58.5 L-1429.5 63.1 -1431.0 62.1 -1427.7 57.5 -1426.2 58.5" fill="#000000" fill-rule="evenodd" stroke="none"/>
    <path d="M-1374.7 90.5 L-1376.9 95.8 -1378.6 95.0 -1376.4 89.8 -1374.7 90.5" fill="#000000" fill-rule="evenodd" stroke="none"/>
    <path d="M-1328.4 110.7 L-1330.1 116.1 -1331.9 115.5 -1330.1 110.2 -1328.4 110.7" fill="#000000" fill-rule="evenodd" stroke="none"/>
    <path d="M-1294.5 120.4 L-1295.2 126.1 -1297.0 125.8 -1296.3 120.2 -1294.5 120.4" fill="#000000" fill-rule="evenodd" stroke="none"/>
    <path d="M-1250.6 127.9 L-1250.5 133.6 -1252.3 133.7 -1252.4 128.0 -1250.6 127.9" fill="#000000" fill-rule="evenodd" stroke="none"/>
    <path d="M-1213.8 128.3 L-1213.6 133.9 -1215.5 134.0 -1215.6 128.3 -1213.8 128.3" fill="#000000" fill-rule="evenodd" stroke="none"/>
    <path d="M-1162.6 116.3 L-1161.2 121.8 -1163.0 122.3 -1164.4 116.8 -1162.6 116.3" fill="#000000" fill-rule="evenodd" stroke="none"/>
    <path d="M-1035.9 84.9 L-1035.3 90.5 -1037.1 90.7 -1037.8 85.1 -1035.9 84.9" fill="#000000" fill-rule="evenodd" stroke="none"/>
    <path d="M-998.4 80.8 L-997.8 86.4 -999.6 86.6 -1000.3 81.0 -998.4 80.8" fill="#000000" fill-rule="evenodd" stroke="none"/>
    <path d="M-961.0 78.5 L-960.6 84.1 -962.4 84.2 -962.8 78.6 -961.0 78.5" fill="#000000" fill-rule="evenodd" stroke="none"/>
    <path d="M-848.0 86.7 L-848.6 92.3 -850.4 92.1 -849.8 86.5 -848.0 86.7" fill="#000000" fill-rule="evenodd" stroke="none"/>
    <path d="M-811.0 94.5 L-811.7 100.1 -813.6 99.9 -812.8 94.3 -811.0 94.5" fill="#000000" fill-rule="evenodd" stroke="none"/>
    <path d="M-774.3 104.2 L-775.5 109.7 -777.3 109.3 -776.0 103.7 -774.3 104.2" fill="#000000" fill-rule="evenodd" stroke="none"/>
    <path d="M-734.4 118.0 L-736.1 123.4 -737.9 122.8 -736.1 117.4 -734.4 118.0" fill="#000000" fill-rule="evenodd" stroke="none"/>
    <path d="M-705.3 128.9 L-703.5 129.5 -705.3 134.9 -707.0 134.3 -705.3 128.9" fill="#000000" fill-rule="evenodd" stroke="none"/>
    <path d="M-669.5 146.7 L-671.8 151.8 -673.4 151.1 -671.1 145.9 -669.5 146.7" fill="#000000" fill-rule="evenodd" stroke="none"/>
    <path d="M-636.7 164.6 L-639.2 169.7 -640.9 168.9 -638.4 163.8 -636.7 164.6" fill="#000000" fill-rule="evenodd" stroke="none"/>
    <path d="M-604.9 184.6 L-607.8 189.4 -609.4 188.5 -606.4 183.7 -604.9 184.6" fill="#000000" fill-rule="evenodd" stroke="none"/>
    <path d="M-589.9 194.4 L-592.8 199.2 -594.4 198.2 -591.4 193.4 -589.9 194.4" fill="#000000" fill-rule="evenodd" stroke="none"/>
    <path d="M-578.3 252.8 L-580.6 251.7 -550.3 210.3 -548.8 211.5 -578.3 252.8" fill="#000000" fill-rule="evenodd" stroke="none"/>
    <path d="M-524.3 257.5 L-538.0 246.9 -534.8 240.3 -519.5 253.0 -524.3 257.5" fill="#000000" fill-rule="evenodd" stroke="none"/>
    <path d="M-563.0 258.7 L-550.1 266.0 -556.0 271.0 -567.1 263.9 -563.0 258.7" fill="#000000" fill-rule="evenodd" stroke="none"/>
    <path d="M-547.6 252.0 L-556.3 246.0 -551.0 241.2 -547.8 236.9 -542.3 244.5 -547.6 252.0" fill="#000000" fill-rule="evenodd" stroke="none"/>
    <path d="M-539.6 264.5 L-531.6 269.9 -539.0 277.9 -545.6 273.0 -539.6 264.5" fill="#000000" fill-rule="evenodd" stroke="none"/>
    <path d="M-71.0 177.3 L-71.7 180.0 -71.5 183.2 -70.5 185.3 -75.8 191.4 -75.4 185.3 -76.0 181.3 -75.9 175.7 -73.1 171.4 -69.2 168.0 -63.7 167.3 -59.7 167.4 -54.2 165.8 -59.5 172.2 -61.3 171.7 -64.5 171.7 -67.0 172.8 -69.4 174.7 -71.0 177.3" fill="#000000" fill-rule="evenodd" stroke="none"/>
    <path d="M-156.1 200.0 L-161.6 200.1 -166.0 197.5 -169.5 193.6 -170.4 188.2 -170.4 184.1 -172.5 178.9 -166.0 183.1 -165.9 188.8 -164.8 191.3 -162.8 193.6 -160.2 195.2 -157.5 195.8 -154.3 195.4 -151.8 194.7 -146.4 200.6 -152.1 199.3 -156.1 200.0" fill="#000000" fill-rule="evenodd" stroke="none"/>
    <path d="M-555.1 -73.4 L-554.2 -68.3 -554.8 -63.2 -558.4 -59.0 -561.4 -56.3 -565.6 -51.3 -565.6 -58.9 -563.1 -60.5 -560.8 -62.7 -559.6 -65.2 -559.3 -68.2 -559.8 -71.2 -561.1 -73.7 -563.4 -75.8 -565.6 -77.3 -565.6 -85.2 -562.0 -80.0 -558.8 -77.5 -555.1 -73.4" fill="#000000" fill-rule="evenodd" stroke="none"/>
    <path d="M-539.0 177.7 L-535.3 183.1 -542.7 181.1 -543.6 178.2 -545.1 175.4 -547.2 173.6 -550.0 172.5 -553.0 172.2 -555.7 172.8 -558.4 174.5 -560.4 176.2 -568.1 174.1 -562.1 172.0 -558.8 169.6 -553.8 167.1 -548.7 167.6 -544.0 169.5 -540.8 174.0 -539.0 177.7" fill="#000000" fill-rule="evenodd" stroke="none"/>
    <path d="M-1370.7 -794.7 L-1374.2 -790.4 -1377.2 -787.6 -1381.0 -782.6 -1381.3 -790.2 -1378.9 -791.9 -1376.7 -794.1 -1375.6 -796.6 -1375.3 -799.6 -1375.8 -802.6 -1377.2 -805.0 -1379.5 -807.2 -1381.7 -808.6 -1381.9 -816.5 -1378.2 -811.4 -1374.9 -808.9 -1371.2 -804.8 -1370.2 -799.8 -1370.7 -794.7" fill="#000000" fill-rule="evenodd" stroke="none"/>
    <path d="M-1658.6 -778.0 L-1657.0 -773.1 -1658.4 -767.8 -1660.0 -764.0 -1661.4 -757.9 -1664.8 -764.7 -1663.3 -767.2 -1662.2 -770.1 -1662.2 -772.9 -1663.1 -775.8 -1664.9 -778.3 -1667.1 -779.9 -1670.1 -780.9 -1672.7 -781.4 -1676.1 -788.5 -1670.6 -785.3 -1666.6 -784.4 -1661.5 -782.2 -1658.6 -778.0" fill="#000000" fill-rule="evenodd" stroke="none"/>
    <path d="M607.9 -270.9 L641.1 -250.2 663.8 -231.3 686.1 -203.0 702.1 -174.0 714.0 -145.7 717.3 -128.0 721.1 -127.8 756.6 -99.3 727.4 -74.8 732.9 -47.1 718.0 -45.5 715.0 -11.9 666.0 -52.0 622.0 8.4 615.1 -34.4 618.1 -51.6 603.9 -133.9 603.6 -134.8 594.7 -140.1 584.7 -140.1 551.9 -158.6 536.1 -165.6 514.9 -169.1 493.5 -169.4 468.1 -162.1 453.9 -161.1 426.9 -169.4 399.5 -159.4 359.2 -140.8 346.8 -131.4 335.0 -119.9 324.3 -104.9 285.1 -68.4 262.9 -35.2 294.2 -8.4 300.9 -3.9 315.5 11.1 324.0 16.1 366.8 51.5 318.2 144.1 265.9 114.5 246.7 101.3 127.9 0.2 102.2 30.9 92.5 22.8 86.3 30.2 87.3 31.1 68.2 52.2 82.3 64.3 68.1 80.9 68.3 81.1 47.0 106.1 54.3 112.2 20.0 152.6 -1.9 134.4 -22.1 158.2 23.9 195.5 16.1 205.1 34.6 225.8 48.2 244.0 58.6 260.3 69.8 257.0 96.1 312.6 82.7 320.9 87.8 334.2 50.4 319.4 39.2 359.5 31.9 346.2 17.4 353.0 -10.1 294.1 -1.3 288.9 -13.7 270.3 -25.3 256.3 -25.6 256.0 -31.0 262.6 -79.0 226.4 -98.4 249.8 -130.5 222.9 -156.7 253.7 -224.5 198.3 -196.9 166.3 -208.9 155.5 -189.1 131.8 -230.4 92.6 -223.4 85.4 -240.5 72.0 -251.0 67.5 -256.7 63.7 -260.5 74.1 -322.8 48.8 -319.5 39.7 -376.4 18.3 -430.2 31.8 -462.1 44.1 -473.2 50.1 -476.3 53.6 -482.2 61.9 -487.2 72.6 -505.5 142.3 -496.2 144.8 -514.7 209.9 -524.2 207.2 -525.7 210.3 -510.9 229.1 -515.7 245.8 -508.0 249.5 -517.7 266.8 -522.5 264.0 -524.7 268.3 -517.5 273.0 -537.5 297.0 -552.7 283.0 -564.6 291.8 -593.1 267.3 -642.8 231.3 -663.3 219.0 -663.6 219.2 -701.3 199.6 -701.1 198.3 -762.3 171.7 -795.4 160.8 -817.0 155.4 -817.9 156.9 -853.4 149.0 -853.4 149.1 -891.4 143.0 -892.4 141.5 -932.4 139.0 -985.9 140.4 -986.2 141.8 -1034.6 145.8 -1092.5 158.1 -1176.4 183.2 -1215.2 189.1 -1247.2 188.7 -1292.2 183.7 -1365.4 164.9 -1359.5 149.1 -1389.3 137.3 -1430.2 114.9 -1445.3 104.3 -1457.8 117.5 -1480.7 90.4 -1501.5 60.5 -1517.5 31.8 -1526.0 12.1 -1568.2 19.0 -1589.2 -269.0 -1602.8 -430.7 -1597.8 -431.2 -1608.5 -550.9 -1606.2 -551.1 -1612.5 -592.7 -1600.2 -593.4 -1600.0 -599.4 -1602.9 -620.5 -1604.4 -648.0 -1609.0 -668.4 -1608.4 -687.8 -1602.5 -715.9 -1597.0 -727.7 -1591.2 -736.6 -1575.9 -755.8 -1573.2 -758.4 -1612.3 -754.2 -1648.7 -746.4 -1676.6 -730.6 -1702.6 -794.5 -1660.6 -815.6 -1619.0 -832.0 -1557.3 -836.6 -1506.2 -828.7 -1506.2 -877.0 -1498.2 -877.0 -1498.2 -899.7 -1462.7 -863.8 -1427.5 -899.7 -1427.5 -877.0 -1418.7 -877.0 -1418.7 -831.7 -1401.9 -831.9 -1402.2 -842.7 -1335.2 -844.6 -1332.7 -756.9 -1399.7 -755.0 -1399.9 -765.1 -1460.1 -763.6 -1486.0 -745.9 -1514.9 -722.7 -1536.7 -701.3 -1538.0 -699.3 -1540.3 -693.2 -1542.2 -685.2 -1543.0 -670.3 -1534.7 -600.7 -1534.3 -599.4 -1523.3 -600.0 -1519.6 -559.8 -1493.7 -562.4 -1493.6 -561.1 -1486.0 -561.7 -1480.0 -495.0 -1476.9 -495.0 -1453.5 -497.3 -1451.3 -479.8 -1332.4 -491.7 -1307.6 -491.4 -1285.0 -488.6 -1259.9 -482.2 -1231.9 -469.8 -1209.1 -456.7 -1187.2 -440.4 -1172.4 -426.7 -1156.2 -408.9 -1145.6 -395.3 -1135.4 -379.1 -1113.2 -335.8 -1098.0 -295.5 -1080.0 -277.1 -1054.3 -269.8 -949.8 -254.5 -848.4 -256.3 -836.8 -165.5 -947.1 -163.4 -1076.7 -179.9 -1095.1 -185.1 -1142.0 -205.3 -1157.8 -174.1 -1162.2 -159.2 -1154.8 -159.2 -1154.8 -119.3 -510.1 -119.3 -510.1 -135.0 -437.0 -135.0 -437.0 -72.6 -381.9 -54.4 -365.1 -99.2 -296.6 -73.4 -311.5 -33.6 -310.4 -33.2 -312.4 -28.1 -297.0 -22.7 -293.1 -33.5 -228.0 -8.0 -230.0 3.1 -199.5 21.0 -177.3 37.9 -169.4 29.8 -132.6 64.2 -117.0 44.0 -166.0 2.0 -119.0 -56.2 -67.2 -13.4 -28.3 -59.3 -29.5 -60.3 -20.5 -73.7 -28.0 -81.2 96.0 -232.0 206.2 -136.2 247.8 -167.9 272.1 -199.4 273.8 -209.8 283.7 -229.6 311.1 -246.9 339.6 -247.3 353.3 -248.7 357.1 -249.8 380.5 -260.5 406.5 -269.9 416.6 -276.8 431.3 -283.3 441.8 -290.5 454.9 -293.6 457.7 -294.9 457.7 -294.3 482.8 -300.2 497.1 -301.5 569.8 -294.8 590.8 -276.4 607.9 -270.9" fill="#434343" fill-rule="evenodd" stroke="none"/>
    <path d="M-533.7 73.8 L-530.7 57.5 -534.0 56.1 -544.9 95.8 -541.9 96.9 -541.5 95.3 -533.7 73.8 M-1090.0 57.0 L-1090.0 60.5 -1082.7 60.5 -1082.7 86.0 -1092.2 86.0 -1097.0 87.8 -1097.0 99.5 -1062.3 90.5 -1064.5 79.4 -1022.0 72.5 -982.3 69.4 -943.6 68.2 -943.8 80.7 -884.3 83.4 -882.7 71.3 -833.2 78.8 -774.7 93.3 -778.5 105.7 -768.5 109.0 -765.0 108.9 -753.3 113.2 -750.8 113.9 -749.6 115.2 -729.0 122.9 -725.5 123.5 -694.1 135.5 -690.0 126.4 -687.6 125.9 -685.8 126.9 -652.2 143.3 -602.7 172.8 -573.5 193.0 -571.0 194.0 -568.5 190.8 -564.2 190.0 -560.2 176.3 -574.5 172.2 -567.0 145.9 -559.0 148.1 -549.5 125.8 -544.4 107.3 -547.7 105.7 -550.2 114.8 -588.7 103.8 -567.0 26.8 -528.7 37.0 -532.1 49.3 -528.2 50.9 -528.2 50.8 -517.3 30.7 -508.3 20.0 -495.3 9.7 -484.6 3.7 -452.6 -10.0 Q-444.9 -12.6 -437.3 -15.3 L-431.3 -16.6 -430.0 -19.3 -430.0 -21.0 -430.6 -22.3 -432.6 -23.6 -487.0 -40.6 -538.0 -54.1 -538.0 -44.5 -565.6 -44.5 -565.6 -59.0 -582.0 -59.0 -582.0 -18.0 -558.5 -18.0 -558.5 9.0 -582.0 9.0 -582.0 57.4 -759.6 57.4 -759.6 14.4 -766.3 14.4 -766.3 57.0 -975.3 57.0 -975.3 -2.5 -981.0 -2.5 -981.0 57.0 -1090.0 57.0 M-1176.0 -262.7 L-1181.5 -275.5 -1185.5 -281.5 -1191.2 -299.5 -1210.5 -339.2 -1226.5 -361.5 -1246.0 -378.5 -1271.5 -394.0 -1287.0 -400.5 -1299.0 -404.0 -1323.0 -406.5 Q-1324.2 -406.9 -1325.4 -407.4 L-1325.5 -407.0 -1436.5 -396.0 -1463.0 -396.5 -1463.0 -396.0 -1464.0 -393.5 -1490.9 -392.0 -1479.0 -232.5 -1457.1 -14.1 -1459.2 -14.0 -1440.0 27.0 -1423.5 46.5 -1413.0 55.5 -1388.0 72.0 -1372.0 80.5 -1329.5 99.5 -1306.0 107.0 -1260.5 116.5 -1243.0 118.0 -1221.3 118.0 -1206.0 117.0 -1193.3 114.4 -1168.3 107.7 -1153.0 102.0 -1148.1 112.6 -1114.7 104.0 -1115.5 87.8 -1120.0 86.0 -1130.5 86.0 -1130.5 60.5 -1121.5 60.5 -1121.5 57.0 -1221.5 57.0 -1221.5 -95.5 -1207.8 -95.5 -1207.8 -111.5 -1222.8 -111.5 -1222.8 -139.2 -1213.8 -139.2 -1213.8 -146.6 -1212.0 -167.0 -1206.3 -191.0 -1176.0 -262.7 M599.4 -252.6 L629.4 -234.0 649.4 -217.3 669.4 -192.0 684.0 -165.3 694.7 -140.0 700.4 -109.3 713.4 -108.3 725.0 -99.0 718.7 -93.6 712.0 -101.6 702.0 -100.6 709.0 -64.6 696.7 -63.3 690.8 -53.5 697.7 -43.3 696.4 -28.3 638.4 -15.6 635.4 -34.3 638.4 -51.6 623.3 -139.0 619.8 -149.0 615.8 -157.5 610.5 -154.0 600.3 -160.1 589.8 -160.1 561.0 -176.5 541.8 -184.9 516.7 -189.1 490.8 -189.4 464.6 -181.9 456.2 -181.3 449.7 -183.3 450.2 -184.8 448.7 -190.5 446.9 -189.8 445.4 -192.0 445.7 -196.6 423.0 -189.3 392.0 -178.0 348.7 -158.0 333.7 -146.6 319.7 -133.0 309.0 -118.0 286.0 -95.0 282.6 -93.2 283.0 -92.0 270.5 -82.5 241.0 -38.5 233.5 -34.0 282.0 7.5 288.0 11.5 303.0 27.0 312.5 32.5 341.5 56.5 310.0 116.5 276.5 97.5 259.0 85.5 131.5 -23.0 124.7 -27.0 99.7 2.7 83.0 -11.3 73.4 0.0 56.7 -14.0 50.0 -9.6 47.0 -11.6 41.0 -4.3 41.0 -4.2 66.5 19.0 56.0 32.8 49.0 27.3 27.9 52.5 30.3 54.7 34.5 49.8 54.1 66.5 41.4 81.5 21.7 64.7 25.6 60.2 23.3 58.2 14.2 69.4 16.3 71.5 20.5 66.6 40.1 83.4 27.4 98.3 7.7 81.6 11.7 76.9 9.7 75.0 -2.7 90.3 26.0 114.5 17.5 124.5 -4.3 106.4 -24.5 130.0 -41.1 116.4 -52.1 126.7 -34.2 141.5 -59.0 171.2 -34.7 192.8 -25.3 181.4 -4.3 198.4 -8.7 203.8 -9.0 208.4 4.4 221.7 19.0 238.4 31.7 255.4 50.0 283.7 59.0 281.0 70.4 305.0 58.0 312.7 62.7 324.7 47.4 332.7 41.4 321.7 38.4 321.0 27.0 326.4 15.7 302.0 23.0 297.7 19.4 284.0 2.4 258.4 -10.6 242.7 -21.6 232.0 -29.0 228.6 -34.3 235.0 -56.0 218.7 -46.6 207.4 -71.0 185.6 -101.0 221.5 -136.5 191.8 -133.5 187.0 -140.3 181.5 -151.7 195.0 -142.0 205.5 -159.2 225.8 -196.0 195.8 -178.2 175.3 -166.0 183.2 -155.1 169.4 -160.2 165.3 -163.7 169.3 -181.2 153.5 -151.4 118.0 -161.2 111.0 -170.2 101.5 -170.9 101.0 -182.5 110.5 -202.0 92.0 -195.1 85.0 -197.7 83.5 -200.7 78.8 -230.5 54.5 -241.5 49.8 -251.7 43.0 -263.5 39.3 -268.8 38.3 -272.2 47.8 -297.5 37.5 -292.5 23.9 -307.2 18.2 -308.6 22.4 -373.6 -2.0 -380.6 -1.3 -436.3 12.7 -470.0 25.7 -481.3 31.0 -487.0 35.4 -492.0 41.0 -499.6 52.0 -506.0 65.5 -523.0 128.0 -529.0 156.3 -529.0 156.5 -521.0 158.7 -528.5 185.2 -542.9 181.1 -546.5 196.7 -542.0 198.0 -549.3 212.7 -540.0 224.5 -541.8 225.8 -539.8 233.3 -534.8 240.3 -538.1 247.5 -551.5 240.5 -557.8 251.0 -560.6 251.1 -561.8 256.9 -567.1 263.3 -596.2 239.5 -632.2 214.3 -662.5 196.2 -663.5 196.7 -679.5 188.4 -679.3 187.2 -701.5 175.5 -741.6 158.5 -780.1 144.8 -818.7 134.0 -825.2 132.9 -825.5 133.0 -826.8 132.9 -827.6 134.2 -845.0 130.4 -845.0 128.5 -861.2 126.0 -862.3 127.4 -880.0 124.5 -881.2 122.8 -932.0 119.0 -985.5 120.3 -1002.5 121.8 -1002.7 122.9 -1021.0 124.0 -1037.6 126.0 -1070.3 132.2 -1097.5 138.7 -1181.0 163.7 -1199.6 167.0 -1216.3 169.0 -1246.3 168.7 -1267.6 167.0 -1288.3 164.0 -1339.0 151.0 -1334.3 138.4 -1355.5 129.0 -1381.0 119.0 -1419.5 98.0 -1447.5 77.5 -1457.0 87.5 -1465.0 78.0 -1484.5 50.0 -1499.5 23.0 -1513.0 -8.0 -1513.0 -9.2 -1539.8 -6.8 -1557.5 -205.0 -1563.5 -204.5 -1565.8 -226.8 -1559.5 -227.3 -1565.2 -291.0 -1571.2 -290.5 -1573.5 -312.8 -1567.2 -313.3 -1573.4 -383.3 -1578.5 -382.8 -1581.1 -412.6 -1576.1 -413.0 -1586.8 -532.8 -1569.0 -534.4 -1569.0 -534.5 -1570.5 -544.0 -1570.5 -547.0 -1572.5 -547.5 -1585.5 -547.5 -1589.5 -574.0 -1580.5 -574.5 -1580.0 -600.5 -1583.0 -622.5 -1584.5 -650.5 -1589.0 -670.5 -1588.5 -685.5 -1583.5 -709.5 -1579.5 -718.0 -1561.0 -742.5 -1531.0 -770.5 -1524.5 -775.0 -1522.5 -778.5 -1524.0 -781.0 -1527.0 -781.5 -1556.0 -781.0 -1615.5 -774.0 -1636.5 -769.5 -1638.0 -773.3 -1661.0 -763.1 -1661.5 -755.0 -1660.1 -751.5 -1665.5 -748.0 -1686.3 -788.0 -1678.5 -791.8 -1676.8 -789.0 Q-1673.7 -786.7 -1670.6 -784.5 L-1646.1 -793.5 -1648.0 -798.0 -1635.5 -800.5 -1599.0 -803.0 -1599.0 -810.5 -1566.0 -808.0 -1566.5 -805.5 -1472.7 -810.4 -1472.0 -816.5 -1471.5 -816.5 -1471.5 -829.5 -1486.2 -829.5 -1486.2 -857.0 -1478.2 -857.0 -1478.2 -879.7 -1447.5 -879.7 -1447.5 -857.0 -1438.7 -857.0 -1438.7 -829.5 -1454.0 -829.5 -1454.0 -816.5 -1438.5 -816.5 -1438.2 -811.5 -1397.2 -812.0 -1397.1 -808.7 -1381.2 -808.6 -1381.6 -823.3 -1354.6 -824.1 -1353.2 -776.3 -1380.2 -775.6 -1380.8 -790.2 -1396.4 -790.2 -1396.2 -785.2 -1466.5 -783.4 -1498.0 -762.0 -1528.5 -737.5 -1541.5 -724.0 Q-1546.7 -719.2 -1552.0 -714.5 L-1556.0 -708.5 -1559.5 -699.0 -1562.0 -688.5 -1563.0 -669.0 -1560.5 -650.0 -1559.0 -630.5 -1555.5 -609.5 -1554.5 -597.5 -1550.5 -578.5 -1541.5 -579.0 -1539.0 -551.5 -1553.0 -549.0 -1552.5 -538.5 -1552.0 -535.9 -1504.1 -540.1 -1498.3 -475.0 -1476.0 -475.0 -1471.0 -475.5 -1467.5 -447.5 -1439.5 -447.5 -1439.0 -447.4 -1439.0 -461.0 -1331.5 -471.7 -1309.0 -471.5 -1288.7 -469.0 -1266.5 -463.2 -1241.0 -452.0 -1220.1 -440.0 -1200.0 -425.0 -1186.6 -412.6 -1171.5 -396.0 -1162.0 -383.8 -1153.0 -369.5 -1143.5 -349.5 -1131.5 -327.5 -1123.5 -306.2 -1135.5 -301.0 -1135.5 -300.2 -1114.5 -271.0 -1087.0 -258.3 -1059.0 -250.3 -1028.5 -244.5 -951.0 -234.5 -866.0 -236.0 -859.5 -185.0 -946.5 -183.5 -967.5 -185.0 -1013.5 -190.5 -1072.5 -199.5 -1088.5 -204.0 Q-1117.5 -216.7 -1146.5 -229.5 L-1149.7 -234.6 -1176.4 -181.5 -1183.0 -159.6 -1183.8 -139.2 -1174.8 -139.2 -1174.8 -111.5 -1189.8 -111.5 -1189.8 -95.5 -1091.0 -95.5 -1091.0 -99.5 -1027.5 -99.5 -1027.5 -95.5 -981.0 -95.5 -981.0 -37.8 -975.3 -37.8 -975.3 -95.0 -766.3 -95.0 -766.3 -52.1 -759.6 -52.1 -759.6 -94.6 -709.0 -94.6 -709.0 -101.3 -646.0 -101.3 -646.0 -94.6 -582.0 -94.6 -582.0 -77.5 -565.6 -77.5 -565.6 -93.0 -538.0 -93.0 -538.0 -83.8 -534.3 -82.3 -516.0 -77.6 -491.3 -69.4 -491.3 -72.5 -474.3 -72.5 -474.3 -76.6 -469.8 -76.6 -469.8 -77.8 -490.1 -77.8 -490.1 -115.0 -457.0 -115.0 -457.0 -77.8 -461.1 -77.8 -461.1 -76.6 -457.1 -76.6 -457.1 -68.3 -458.3 -58.6 -369.7 -29.3 -369.6 -29.7 -366.7 -37.5 -363.0 -36.1 -362.6 -37.2 -366.5 -38.6 -353.4 -73.4 -322.3 -61.7 -335.4 -27.0 -354.4 -34.1 Q-354.6 -33.5 -354.9 -33.0 L-350.6 -31.4 -352.1 -27.5 -336.2 -21.6 -338.2 -16.3 -300.3 -2.6 -301.5 0.9 -286.3 6.7 -281.2 -7.5 Q-255.5 2.5 -255.5 2.0 L-258.0 8.8 -255.2 13.5 -237.2 21.8 -210.7 37.5 -188.5 54.5 -176.2 62.8 -174.8 64.1 -168.7 57.8 -149.0 76.3 -158.0 88.5 -156.5 89.8 -149.7 96.8 -139.3 103.4 -115.0 74.3 -93.9 91.8 -83.6 79.4 -97.7 67.3 -77.5 42.8 -78.8 41.6 -82.2 45.7 -113.6 19.3 -101.1 5.3 -70.2 31.5 -74.3 36.3 -73.0 37.4 -68.2 31.5 -119.3 -11.7 -116.0 -16.7 -123.2 -23.0 -117.5 -29.0 -64.7 14.5 -12.0 -47.7 15.3 -24.6 22.3 -32.2 20.0 -35.2 22.3 -42.5 -3.0 -64.0 5.3 -76.2 -1.0 -82.5 66.1 -163.7 74.4 -157.5 105.8 -194.3 198.5 -115.2 169.7 -80.6 169.6 -80.5 178.0 -80.5 182.0 -78.0 186.5 -83.0 228.0 -115.5 234.5 -119.5 230.0 -121.5 227.0 -127.0 262.5 -154.0 262.7 -153.5 263.4 -155.3 276.0 -172.6 291.0 -191.0 293.0 -203.6 299.0 -215.6 317.0 -227.0 340.7 -227.3 357.0 -229.0 364.0 -231.0 388.0 -242.0 415.7 -252.0 426.4 -259.3 440.0 -265.3 440.1 -265.0 450.0 -272.0 486.0 -280.5 497.0 -281.5 561.5 -275.5 580.7 -258.6 599.4 -252.6" fill="#969696" fill-rule="evenodd" stroke="none"/>
    <path d="M-1492.9 -117.1 L-1489.3 -117.2 -1488.4 -107.1 -1492.0 -106.6 -1492.9 -117.1" fill="#707070" fill-rule="evenodd" stroke="none"/>
    <path d="M-1517.0 -246.8 L-1516.3 -239.5 -1524.1 -239.4 -1524.3 -246.8 -1517.0 -246.8" fill="#707070" fill-rule="evenodd" stroke="none"/>
    <path d="M-1515.2 -227.8 L-1514.6 -219.1 -1521.1 -219.1 -1521.3 -227.7 -1515.2 -227.8" fill="#707070" fill-rule="evenodd" stroke="none"/>
    <path d="M-1528.1 -532.8 L-1528.7 -537.8 -1513.0 -539.4 -1512.8 -537.8 -1517.7 -537.5 -1517.6 -533.7 -1528.1 -532.8" fill="#707070" fill-rule="evenodd" stroke="none"/>
    <path d="M-984.3 14.8 L-984.3 -17.7 -981.6 -17.7 -981.6 14.8 -984.3 14.8" fill="#707070" fill-rule="evenodd" stroke="none"/>
    <path d="M-984.3 -36.2 L-984.3 -52.7 -981.6 -52.7 -981.6 -36.2 -984.3 -36.2" fill="#707070" fill-rule="evenodd" stroke="none"/>
    <path d="M-767.2 -52.1 L-759.6 -52.1 -759.6 15.3 -767.2 15.3 -767.2 -52.1" fill="#707070" fill-rule="evenodd" stroke="none"/>
    <path d="M-742.7 -55.7 L-742.7 -69.0 -724.7 -69.0 -724.7 -55.7 -742.7 -55.7" fill="#707070" fill-rule="evenodd" stroke="none"/>
    <path d="M-742.7 -76.5 L-742.7 -90.0 -724.7 -90.0 -724.7 -76.5 -742.7 -76.5" fill="#707070" fill-rule="evenodd" stroke="none"/>
    <path d="M-571.6 0.5 L-571.6 8.9 -589.6 8.9 -589.6 56.7 -681.4 56.7 -681.4 56.9 -703.6 56.9 -703.6 34.9 -697.4 34.9 -697.4 51.5 -681.5 51.5 -681.5 26.2 -601.6 26.2 -601.6 22.0 -623.8 22.0 -623.8 0.0 -617.6 0.0 -617.6 16.7 -601.6 16.7 -601.6 0.5 -571.6 0.5" fill="#707070" fill-rule="evenodd" stroke="none"/>
    <path d="M100.8 -145.3 L88.5 -155.6 78.2 -143.2 60.2 -156.5 66.1 -163.7 74.4 -157.5 105.8 -194.3 198.5 -115.2 184.2 -98.3 Q181.7 -100.5 179.1 -102.8 L189.7 -115.6 178.1 -125.6 161.8 -106.2 94.7 -162.9 92.0 -159.7 109.0 -145.4 94.9 -128.5 90.1 -132.6 100.8 -145.3" fill="#707070" fill-rule="evenodd" stroke="none"/>
    <path d="M-1543.6 -535.2 L-1535.7 -535.7 -1506.3 -222.6 -1500.1 -147.1 -1496.2 -147.3 -1490.0 -73.5 -1492.1 -73.3 -1490.3 -53.8 -1499.0 -53.1 -1501.3 -72.9 -1504.5 -72.7 -1510.6 -146.5 -1507.9 -146.6 -1512.8 -201.9 -1518.3 -201.8 -1518.3 -205.5 -1513.2 -205.5 -1514.0 -215.1 -1514.1 -215.6 -1513.8 -211.3 -1518.3 -211.3 -1518.3 -216.0 -1514.1 -215.9 -1520.1 -280.6 -1524.4 -281.0 -1524.7 -288.7 -1520.8 -288.8 -1543.6 -535.2" fill="#707070" fill-rule="evenodd" stroke="none"/>
    <path d="M-960.5 -43.5 L-960.5 -61.2 -947.7 -61.2 -947.7 -43.5 -960.5 -43.5" fill="#707070" fill-rule="evenodd" stroke="none"/>
    <path d="M-932.2 -44.7 L-932.2 -57.2 -914.2 -57.2 -914.2 -44.7 -932.2 -44.7" fill="#707070" fill-rule="evenodd" stroke="none"/>
    <path d="M-917.0 -83.7 L-917.0 -66.7 -929.7 -66.7 -929.7 -83.7 -917.0 -83.7" fill="#707070" fill-rule="evenodd" stroke="none"/>
    <path d="M-961.0 -70.7 L-961.0 -89.2 -947.7 -89.2 -947.7 -70.7 -961.0 -70.7" fill="#707070" fill-rule="evenodd" stroke="none"/>
    <path d="M-62.8 145.3 L-66.8 149.4 -71.0 145.4 -66.9 141.3 -62.8 145.3" fill="#707070" fill-rule="evenodd" stroke="none"/>
    <path d="M-111.9 99.1 L-114.7 104.1 -119.7 101.2 -116.9 96.2 -111.9 99.1" fill="#707070" fill-rule="evenodd" stroke="none"/>
    <path d="M-74.5 46.2 L-72.7 51.7 -78.2 53.4 -80.0 47.9 -74.5 46.2" fill="#707070" fill-rule="evenodd" stroke="none"/>
    <path d="M-103.7 87.8 L-107.7 91.9 -111.9 87.8 -107.8 83.7 -103.7 87.8" fill="#707070" fill-rule="evenodd" stroke="none"/>
    <path d="M-108.5 92.3 L-112.5 96.4 -116.6 92.3 -112.6 88.2 -108.5 92.3" fill="#707070" fill-rule="evenodd" stroke="none"/>
    <path d="M-73.2 57.4 L-77.2 61.5 -81.4 57.5 -77.3 53.3 -73.2 57.4" fill="#707070" fill-rule="evenodd" stroke="none"/>
    <path d="M-12.4 -16.3 L-8.3 -20.4 -4.2 -16.4 -8.2 -12.2 -12.4 -16.3" fill="#707070" fill-rule="evenodd" stroke="none"/>
    <path d="M-78.0 61.9 L-82.0 66.0 -86.1 62.0 -82.1 57.8 -78.0 61.9" fill="#707070" fill-rule="evenodd" stroke="none"/>
    <path d="M-95.7 185.2 L-89.8 177.7 -84.0 182.2 -89.8 189.8 -95.7 185.2" fill="#707070" fill-rule="evenodd" stroke="none"/>
    <path d="M-100.6 203.5 L-105.3 209.6 -110.2 205.9 -105.4 199.8 -100.6 203.5" fill="#707070" fill-rule="evenodd" stroke="none"/>
    <path d="M-112.8 200.1 L-116.1 203.8 -120.7 199.8 -117.3 196.0 -112.8 200.1" fill="#707070" fill-rule="evenodd" stroke="none"/>
    <path d="M-120.6 197.3 L-123.1 200.1 -127.7 196.0 -125.2 193.3 -120.6 197.3" fill="#707070" fill-rule="evenodd" stroke="none"/>
    <path d="M-57.3 134.1 L-52.1 138.8 -58.0 145.3 -63.2 140.6 -57.3 134.1" fill="#707070" fill-rule="evenodd" stroke="none"/>
    <path d="M-57.1 147.7 L-51.1 153.2 -58.2 161.0 -64.2 155.5 -57.1 147.7" fill="#707070" fill-rule="evenodd" stroke="none"/>
    <path d="M-43.2 145.2 L-50.1 152.8 -55.8 147.6 -48.9 140.0 -43.2 145.2" fill="#707070" fill-rule="evenodd" stroke="none"/>
    <path d="M-33.9 113.9 L-53.1 135.1 -58.0 130.6 -38.8 109.5 -33.9 113.9" fill="#707070" fill-rule="evenodd" stroke="none"/>
    <path d="M-40.7 146.1 L-56.7 131.5 -53.0 127.5 -37.0 142.0 -40.7 146.1" fill="#707070" fill-rule="evenodd" stroke="none"/>
    <path d="M49.2 23.5 L59.1 32.4 55.4 36.5 45.6 27.5 49.2 23.5" fill="#707070" fill-rule="evenodd" stroke="none"/>
    <path d="M-38.6 109.6 L-21.2 125.4 -24.5 129.1 -41.9 113.3 -38.6 109.6" fill="#707070" fill-rule="evenodd" stroke="none"/>
    <path d="M-5.6 87.6 L3.8 96.1 0.5 99.8 -8.9 91.3 -5.6 87.6" fill="#707070" fill-rule="evenodd" stroke="none"/>
    <path d="M-27.8 126.1 L0.9 93.3 4.6 96.6 -24.1 129.4 -27.8 126.1" fill="#707070" fill-rule="evenodd" stroke="none"/>
    <path d="M52.7 26.4 L-5.0 95.0 -9.4 91.3 48.4 22.7 52.7 26.4" fill="#707070" fill-rule="evenodd" stroke="none"/>
    <path d="M51.1 32.1 L64.3 16.5 68.6 20.1 55.4 35.8 51.1 32.1" fill="#707070" fill-rule="evenodd" stroke="none"/>
    <path d="M-83.3 200.1 L-88.1 205.5 -90.0 203.8 -85.0 198.5 -83.3 200.1" fill="#707070" fill-rule="evenodd" stroke="none"/>
    <path d="M42.5 32.0 L31.0 46.2 27.0 42.0 37.8 28.8 42.5 32.0" fill="#707070" fill-rule="evenodd" stroke="none"/>
    <path d="M-148.5 139.7 L-153.8 142.1 -156.9 135.3 -151.6 132.9 -148.5 139.7" fill="#707070" fill-rule="evenodd" stroke="none"/>
    <path d="M-163.6 148.8 L-169.4 143.8 -163.2 136.6 -157.5 141.5 -163.6 148.8" fill="#707070" fill-rule="evenodd" stroke="none"/>
    <path d="M-168.8 157.4 L-174.6 152.5 -168.4 145.3 -162.6 150.2 -168.8 157.4" fill="#707070" fill-rule="evenodd" stroke="none"/>
    <path d="M-125.6 103.1 L-131.4 98.2 -125.2 90.9 -119.5 95.9 -125.6 103.1" fill="#707070" fill-rule="evenodd" stroke="none"/>
    <path d="M-90.4 72.9 L-95.6 67.4 -88.7 60.9 -83.5 66.4 -90.4 72.9" fill="#707070" fill-rule="evenodd" stroke="none"/>
    <path d="M-55.3 18.8 L-61.4 14.2 -55.6 6.6 -49.5 11.2 -55.3 18.8" fill="#707070" fill-rule="evenodd" stroke="none"/>
    <path d="M5.0 -26.8 L-0.8 -19.2 -6.9 -23.8 -1.1 -31.4 5.0 -26.8" fill="#707070" fill-rule="evenodd" stroke="none"/>
    <path d="M-23.1 -9.2 L-29.1 -13.8 -23.3 -21.4 -17.3 -16.8 -23.1 -9.2" fill="#707070" fill-rule="evenodd" stroke="none"/>
    <path d="M-16.3 -20.5 L-22.4 -25.0 -16.6 -32.6 -10.5 -28.0 -16.3 -20.5" fill="#707070" fill-rule="evenodd" stroke="none"/>
    <path d="M54.4 -130.3 L48.6 -135.2 61.7 -150.6 67.5 -145.7 54.4 -130.3" fill="#707070" fill-rule="evenodd" stroke="none"/>
    <path d="M34.1 -120.3 L32.5 -121.7 35.5 -125.3 37.1 -123.9 34.1 -120.3" fill="#707070" fill-rule="evenodd" stroke="none"/>
    <path d="M-15.9 -37.9 L-9.9 -42.6 -4.0 -35.2 -10.0 -30.4 -15.9 -37.9" fill="#707070" fill-rule="evenodd" stroke="none"/>
    <path d="M-103.5 17.9 L-107.9 14.5 -103.8 9.0 -99.3 12.4 -103.5 17.9" fill="#707070" fill-rule="evenodd" stroke="none"/>
    <path d="M-1319.3 -452.6 L-1329.3 -452.6 -1329.3 -458.5 -1319.3 -458.5 -1319.3 -452.6" fill="#707070" fill-rule="evenodd" stroke="none"/>
    <path d="M-1330.5 -452.0 L-1340.5 -452.0 -1340.5 -457.8 -1330.5 -457.8 -1330.5 -452.0" fill="#707070" fill-rule="evenodd" stroke="none"/>
    <path d="M-1371.0 -460.6 L-1381.0 -460.6 -1381.0 -466.5 -1371.0 -466.5 -1371.0 -460.6" fill="#707070" fill-rule="evenodd" stroke="none"/>
    <path d="M-1255.2 -451.6 L-1264.5 -455.4 -1262.3 -460.8 -1253.1 -457.0 -1255.2 -451.6" fill="#707070" fill-rule="evenodd" stroke="none"/>
    <path d="M-674.0 189.8 L-682.2 184.6 -679.2 179.8 -670.9 184.9 -674.0 189.8" fill="#707070" fill-rule="evenodd" stroke="none"/>
    <path d="M-738.6 158.7 L-746.6 153.2 -741.8 146.3 -733.9 151.8 -738.6 158.7" fill="#707070" fill-rule="evenodd" stroke="none"/>
    <path d="M-789.1 100.0 L-804.5 96.1 -802.5 88.2 -787.1 92.0 -789.1 100.0" fill="#707070" fill-rule="evenodd" stroke="none"/>
    <path d="M-868.7 125.5 L-877.1 124.1 -875.7 116.0 -867.3 117.5 -868.7 125.5" fill="#707070" fill-rule="evenodd" stroke="none"/>
    <path d="M-853.8 89.4 L-863.6 90.5 -864.5 82.4 -854.7 81.3 -853.8 89.4" fill="#707070" fill-rule="evenodd" stroke="none"/>
    <path d="M-873.3 78.2 L-877.6 92.0 -885.4 89.6 -881.1 75.8 -873.3 78.2" fill="#707070" fill-rule="evenodd" stroke="none"/>
    <path d="M-1010.6 73.7 L-1009.5 88.0 -1016.4 88.6 -1017.5 74.2 -1010.6 73.7" fill="#707070" fill-rule="evenodd" stroke="none"/>
    <path d="M-963.0 112.4 L-945.3 112.4 -945.3 118.7 -963.0 118.7 -963.0 112.4" fill="#707070" fill-rule="evenodd" stroke="none"/>
    <path d="M-1083.9 134.8 L-1098.2 136.5 -1099.1 128.6 -1084.8 126.9 -1083.9 134.8" fill="#707070" fill-rule="evenodd" stroke="none"/>
    <path d="M-1075.0 100.0 L-1085.2 102.8 -1086.7 97.4 -1076.5 94.7 -1075.0 100.0" fill="#707070" fill-rule="evenodd" stroke="none"/>
    <path d="M-1070.6 95.3 L-1075.2 96.6 -1075.8 94.6 -1071.1 93.3 -1070.6 95.3" fill="#707070" fill-rule="evenodd" stroke="none"/>
    <path d="M-1535.9 -535.4 L-1543.4 -535.0 -1507.4 -145.8 -1509.7 -145.6 -1503.6 -73.5 -1501.4 -73.7 -1501.2 -71.7 -1505.4 -71.4 -1511.9 -147.5 -1508.2 -147.7 -1544.0 -535.4 -1535.5 -536.0 -1510.4 -274.3 -1499.9 -148.5 -1495.6 -148.9 -1489.1 -72.8 -1492.0 -72.5 -1492.2 -74.5 -1491.2 -74.6 -1497.4 -146.7 -1500.3 -146.5 -1510.9 -274.3 -1524.7 -412.9 -1535.9 -535.4" fill="#434343" fill-rule="evenodd" stroke="none"/>
    <path d="M-1521.4 -295.3 L-1521.1 -291.7 -1530.0 -291.3 -1530.2 -294.8 -1521.4 -295.3" fill="#434343" fill-rule="evenodd" stroke="none"/>
    <path d="M-1526.2 -253.3 L-1517.6 -253.5 -1517.3 -250.2 -1526.1 -249.5 -1526.2 -253.3" fill="#434343" fill-rule="evenodd" stroke="none"/>
    <path d="M-1522.4 -210.1 L-1513.6 -210.6 -1513.4 -207.0 -1522.2 -206.5 -1522.4 -210.1" fill="#434343" fill-rule="evenodd" stroke="none"/>
    <path d="M-1534.8 -341.4 L-1525.8 -341.8 -1525.5 -338.6 -1534.5 -337.7 -1534.8 -341.4" fill="#434343" fill-rule="evenodd" stroke="none"/>
    <path d="M-1530.4 -390.3 L-1539.5 -389.6 -1539.7 -393.2 -1530.7 -393.9 -1530.4 -390.3" fill="#434343" fill-rule="evenodd" stroke="none"/>
    <path d="M94.5 -164.3 L161.7 -107.6 177.3 -126.3 178.8 -125.0 161.9 -104.8 94.8 -161.5 92.7 -159.0 91.2 -160.3 94.5 -164.3" fill="#434343" fill-rule="evenodd" stroke="none"/>
    <path d="M74.2 -158.9 L105.7 -195.7 182.0 -130.6 180.7 -129.1 105.9 -192.9 74.5 -156.1 66.3 -162.3 61.7 -156.6 78.0 -144.6 87.8 -156.2 89.3 -154.9 78.3 -141.8 58.8 -156.3 66.0 -165.0 74.2 -158.9" fill="#434343" fill-rule="evenodd" stroke="none"/>
    <path d="M-1491.8 -116.1 L-1491.1 -107.8 -1489.5 -108.0 -1490.2 -116.2 -1491.8 -116.1 M-1492.9 -105.5 L-1494.0 -118.0 -1488.4 -118.2 -1487.3 -106.2 -1492.9 -105.5" fill="#434343" fill-rule="evenodd" stroke="none"/>
    <path d="M-572.6 1.5 L-600.6 1.5 -600.6 16.7 -602.6 16.7 -602.6 -0.5 -570.6 -0.5 -570.6 9.9 -588.6 9.9 -588.6 57.7 -681.5 57.7 -681.5 55.7 -590.6 55.7 -590.6 7.9 -572.6 7.9 -572.6 1.5" fill="#434343" fill-rule="evenodd" stroke="none"/>
    <path d="M-600.6 27.2 L-680.5 27.2 -680.5 51.7 -682.5 51.7 -682.5 25.2 -602.6 25.2 -602.6 21.9 -600.6 21.9 -600.6 27.2" fill="#434343" fill-rule="evenodd" stroke="none"/>
    <path d="M-1534.7 -437.7 L-1543.8 -436.9 -1544.1 -440.5 -1535.0 -441.2 -1534.7 -437.7" fill="#434343" fill-rule="evenodd" stroke="none"/>
    <path d="M-1539.4 -487.2 L-1548.4 -486.4 -1548.7 -490.0 -1539.6 -490.7 -1539.4 -487.2" fill="#434343" fill-rule="evenodd" stroke="none"/>
    <path d="M23.1 -52.7 L36.4 -68.8 38.0 -67.5 23.3 -49.9 5.6 -65.0 34.8 -99.7 52.8 -84.7 47.6 -78.8 46.1 -80.1 50.0 -84.5 35.0 -96.9 8.5 -65.2 23.1 -52.7" fill="#434343" fill-rule="evenodd" stroke="none"/>
    <path d="M479.3 -195.7 L475.9 -194.9 475.0 -198.5 478.4 -199.3 479.3 -195.7" fill="#434343" fill-rule="evenodd" stroke="none"/>
    <path d="M506.0 -196.2 L502.5 -196.4 502.6 -200.0 506.1 -199.9 506.0 -196.2" fill="#434343" fill-rule="evenodd" stroke="none"/>
    <path d="M530.5 -192.9 L527.1 -193.8 528.1 -197.4 531.5 -196.4 530.5 -192.9" fill="#434343" fill-rule="evenodd" stroke="none"/>
    <path d="M555.0 -185.0 L551.7 -186.4 553.1 -189.7 556.4 -188.4 555.0 -185.0" fill="#434343" fill-rule="evenodd" stroke="none"/>
    <path d="M580.8 -169.8 L577.8 -171.6 579.8 -174.7 582.8 -172.9 580.8 -169.8" fill="#434343" fill-rule="evenodd" stroke="none"/>
    <path d="M-1465.6 -2.9 L-1471.0 -1.1 -1471.6 -2.8 -1466.2 -4.7 -1465.6 -2.9" fill="#434343" fill-rule="evenodd" stroke="none"/>
    <path d="M-1453.5 21.7 L-1458.0 25.0 -1459.1 23.6 -1454.5 20.2 -1453.5 21.7" fill="#434343" fill-rule="evenodd" stroke="none"/>
    <path d="M-1426.2 58.5 L-1429.5 63.1 -1431.0 62.1 -1427.7 57.5 -1426.2 58.5" fill="#434343" fill-rule="evenodd" stroke="none"/>
    <path d="M-1374.7 90.5 L-1376.9 95.8 -1378.6 95.0 -1376.4 89.8 -1374.7 90.5" fill="#434343" fill-rule="evenodd" stroke="none"/>
    <path d="M-1328.4 110.7 L-1330.1 116.1 -1331.9 115.5 -1330.1 110.2 -1328.4 110.7" fill="#434343" fill-rule="evenodd" stroke="none"/>
    <path d="M-1294.5 120.4 L-1295.2 126.1 -1297.0 125.8 -1296.3 120.2 -1294.5 120.4" fill="#434343" fill-rule="evenodd" stroke="none"/>
    <path d="M-1250.6 127.9 L-1250.5 133.6 -1252.3 133.7 -1252.4 128.0 -1250.6 127.9" fill="#434343" fill-rule="evenodd" stroke="none"/>
    <path d="M-1213.8 128.3 L-1213.6 133.9 -1215.5 134.0 -1215.6 128.3 -1213.8 128.3" fill="#434343" fill-rule="evenodd" stroke="none"/>
    <path d="M-1162.6 116.3 L-1161.2 121.8 -1163.0 122.3 -1164.4 116.8 -1162.6 116.3" fill="#434343" fill-rule="evenodd" stroke="none"/>
    <path d="M-1035.9 84.9 L-1035.3 90.5 -1037.1 90.7 -1037.8 85.1 -1035.9 84.9" fill="#434343" fill-rule="evenodd" stroke="none"/>
    <path d="M-998.4 80.8 L-997.8 86.4 -999.6 86.6 -1000.3 81.0 -998.4 80.8" fill="#434343" fill-rule="evenodd" stroke="none"/>
    <path d="M-961.0 78.5 L-960.6 84.1 -962.4 84.2 -962.8 78.6 -961.0 78.5" fill="#434343" fill-rule="evenodd" stroke="none"/>
    <path d="M-848.0 86.7 L-848.6 92.3 -850.4 92.1 -849.8 86.5 -848.0 86.7" fill="#434343" fill-rule="evenodd" stroke="none"/>
    <path d="M-811.0 94.5 L-811.7 100.1 -813.6 99.9 -812.8 94.3 -811.0 94.5" fill="#434343" fill-rule="evenodd" stroke="none"/>
    <path d="M-774.3 104.2 L-775.5 109.7 -777.3 109.3 -776.0 103.7 -774.3 104.2" fill="#434343" fill-rule="evenodd" stroke="none"/>
    <path d="M-734.4 118.0 L-736.1 123.4 -737.9 122.8 -736.1 117.4 -734.4 118.0" fill="#434343" fill-rule="evenodd" stroke="none"/>
    <path d="M-705.3 128.9 L-703.5 129.5 -705.3 134.9 -707.0 134.3 -705.3 128.9" fill="#434343" fill-rule="evenodd" stroke="none"/>
    <path d="M-669.5 146.7 L-671.8 151.8 -673.4 151.1 -671.1 145.9 -669.5 146.7" fill="#434343" fill-rule="evenodd" stroke="none"/>
    <path d="M-636.7 164.6 L-639.2 169.7 -640.9 168.9 -638.4 163.8 -636.7 164.6" fill="#434343" fill-rule="evenodd" stroke="none"/>
    <path d="M-604.9 184.6 L-607.8 189.4 -609.4 188.5 -606.4 183.7 -604.9 184.6" fill="#434343" fill-rule="evenodd" stroke="none"/>
    <path d="M-589.9 194.4 L-592.8 199.2 -594.4 198.2 -591.4 193.4 -589.9 194.4" fill="#434343" fill-rule="evenodd" stroke="none"/>
    <path d="M-578.3 252.8 L-580.6 251.7 -550.3 210.3 -548.8 211.5 -578.3 252.8" fill="#434343" fill-rule="evenodd" stroke="none"/>
    <path d="M-524.3 257.5 L-538.0 246.9 -534.8 240.3 -519.5 253.0 -524.3 257.5" fill="#434343" fill-rule="evenodd" stroke="none"/>
    <path d="M-563.0 258.7 L-550.1 266.0 -556.0 271.0 -567.1 263.9 -563.0 258.7" fill="#434343" fill-rule="evenodd" stroke="none"/>
    <path d="M-547.6 252.0 L-556.3 246.0 -551.0 241.2 -547.8 236.9 -542.3 244.5 -547.6 252.0" fill="#434343" fill-rule="evenodd" stroke="none"/>
    <path d="M-539.6 264.5 L-531.6 269.9 -539.0 277.9 -545.6 273.0 -539.6 264.5" fill="#434343" fill-rule="evenodd" stroke="none"/>
    <path d="M-71.0 177.3 L-71.7 180.0 -71.5 183.2 -70.5 185.3 -75.8 191.4 -75.4 185.3 -76.0 181.3 -75.9 175.7 -73.1 171.4 -69.2 168.0 -63.7 167.3 -59.7 167.4 -54.2 165.8 -59.5 172.2 -61.3 171.7 -64.5 171.7 -67.0 172.8 -69.4 174.7 -71.0 177.3" fill="#434343" fill-rule="evenodd" stroke="none"/>
    <path d="M-156.1 200.0 L-161.6 200.1 -166.0 197.5 -169.5 193.6 -170.4 188.2 -170.4 184.1 -172.5 178.9 -166.0 183.1 -165.9 188.8 -164.8 191.3 -162.8 193.6 -160.2 195.2 -157.5 195.8 -154.3 195.4 -151.8 194.7 -146.4 200.6 -152.1 199.3 -156.1 200.0" fill="#434343" fill-rule="evenodd" stroke="none"/>
    <path d="M-555.1 -73.4 L-554.2 -68.3 -554.8 -63.2 -558.4 -59.0 -561.4 -56.3 -565.6 -51.3 -565.6 -58.9 -563.1 -60.5 -560.8 -62.7 -559.6 -65.2 -559.3 -68.2 -559.8 -71.2 -561.1 -73.7 -563.4 -75.8 -565.6 -77.3 -565.6 -85.2 -562.0 -80.0 -558.8 -77.5 -555.1 -73.4" fill="#434343" fill-rule="evenodd" stroke="none"/>
    <path d="M-539.0 177.7 L-535.3 183.1 -542.7 181.1 -543.6 178.2 -545.1 175.4 -547.2 173.6 -550.0 172.5 -553.0 172.2 -555.7 172.8 -558.4 174.5 -560.4 176.2 -568.1 174.1 -562.1 172.0 -558.8 169.6 -553.8 167.1 -548.7 167.6 -544.0 169.5 -540.8 174.0 -539.0 177.7" fill="#434343" fill-rule="evenodd" stroke="none"/>
    <path d="M-1370.7 -794.7 L-1374.2 -790.4 -1377.2 -787.6 -1381.0 -782.6 -1381.3 -790.2 -1378.9 -791.9 -1376.7 -794.1 -1375.6 -796.6 -1375.3 -799.6 -1375.8 -802.6 -1377.2 -805.0 -1379.5 -807.2 -1381.7 -808.6 -1381.9 -816.5 -1378.2 -811.4 -1374.9 -808.9 -1371.2 -804.8 -1370.2 -799.8 -1370.7 -794.7" fill="#434343" fill-rule="evenodd" stroke="none"/>
    <path d="M-1658.6 -778.0 L-1657.0 -773.1 -1658.4 -767.8 -1660.0 -764.0 -1661.4 -757.9 -1664.8 -764.7 -1663.3 -767.2 -1662.2 -770.1 -1662.2 -772.9 -1663.1 -775.8 -1664.9 -778.3 -1667.1 -779.9 -1670.1 -780.9 -1672.7 -781.4 -1676.1 -788.5 -1670.6 -785.3 -1666.6 -784.4 -1661.5 -782.2 -1658.6 -778.0" fill="#434343" fill-rule="evenodd" stroke="none"/>
  </g>
</svg>
