<?xml version="1.0" encoding="UTF-8" standalone="no"?>
<svg xmlns:ffdec="https://www.free-decompiler.com/flash" xmlns:xlink="http://www.w3.org/1999/xlink" ffdec:objectType="shape" height="1134.5px" width="1415.0px" xmlns="http://www.w3.org/2000/svg">
  <g transform="matrix(1.0, 0.0, 0.0, 1.0, 846.45, 564.15)">
    <path d="M555.55 -557.65 L555.55 -564.15 568.55 -564.15 568.55 -295.15 560.55 -295.15 560.55 -291.65 562.55 -291.65 562.55 -239.65 560.55 -239.65 560.55 -194.65 568.05 -194.65 568.05 570.35 -703.95 570.35 -703.95 505.85 -695.95 505.85 -695.95 465.85 -846.45 465.85 -846.45 177.35 -697.45 177.35 -697.45 115.35 -674.45 115.35 -674.45 -412.65 -461.95 -412.65 -461.95 -563.65 -449.95 -563.65 -449.95 -557.65 555.55 -557.65" fill="#424242" fill-rule="evenodd" stroke="none"/>
    <path d="M107.55 -305.65 L44.05 -305.65 44.05 -304.15 85.55 -304.15 85.55 -290.65 22.55 -290.65 22.55 -319.15 107.55 -319.15 107.55 -305.65" fill="#ffffff" fill-rule="evenodd" stroke="none"/>
    <path d="M-154.95 -267.15 L-154.95 -253.65 -217.95 -253.65 -217.95 -282.15 -132.95 -282.15 -132.95 -269.15 -196.45 -269.15 -196.45 -267.15 -154.95 -267.15" fill="#ffffff" fill-rule="evenodd" stroke="none"/>
    <path d="M-370.95 -385.65 L-370.95 -449.65 -372.45 -449.65 -372.45 -407.65 -385.95 -407.65 -385.95 -470.65 -357.45 -470.65 -357.45 -385.65 -370.95 -385.65" fill="#ffffff" fill-rule="evenodd" stroke="none"/>
    <path d="M-225.95 -261.65 L-231.95 -261.65 -231.95 -267.65 -225.95 -267.65 -225.95 -261.65" fill="#424242" fill-rule="evenodd" stroke="none"/>
    <path d="M-329.95 -261.65 L-335.95 -261.65 -335.95 -267.65 -329.95 -267.65 -329.95 -261.65" fill="#424242" fill-rule="evenodd" stroke="none"/>
    <path d="M-329.45 -206.15 L-335.45 -206.15 -335.45 -211.65 -329.45 -211.65 -329.45 -206.15" fill="#424242" fill-rule="evenodd" stroke="none"/>
    <path d="M-334.45 40.35 L-340.45 40.35 -340.45 34.35 -334.45 34.35 -334.45 40.35" fill="#424242" fill-rule="evenodd" stroke="none"/>
    <path d="M-401.95 139.85 L-407.95 139.85 -407.95 133.85 -401.95 133.85 -401.95 139.85" fill="#424242" fill-rule="evenodd" stroke="none"/>
    <path d="M-123.45 -261.65 L-129.45 -261.65 -129.45 -267.65 -123.45 -267.65 -123.45 -261.65" fill="#424242" fill-rule="evenodd" stroke="none"/>
    <path d="M-123.45 -206.15 L-129.45 -206.15 -129.45 -211.65 -123.45 -211.65 -123.45 -206.15" fill="#424242" fill-rule="evenodd" stroke="none"/>
    <path d="M16.55 -209.65 L10.55 -209.65 10.55 -215.15 16.55 -215.15 16.55 -209.65" fill="#424242" fill-rule="evenodd" stroke="none"/>
    <path d="M119.05 -209.65 L113.05 -209.65 113.05 -215.15 119.05 -215.15 119.05 -209.65" fill="#424242" fill-rule="evenodd" stroke="none"/>
    <path d="M119.05 -290.15 L113.05 -290.15 113.05 -296.15 119.05 -296.15 119.05 -290.15" fill="#424242" fill-rule="evenodd" stroke="none"/>
    <path d="M16.55 -290.15 L10.55 -290.15 10.55 -296.15 16.55 -296.15 16.55 -290.15" fill="#424242" fill-rule="evenodd" stroke="none"/>
    <path d="M-226.45 -206.15 L-232.45 -206.15 -232.45 -211.65 -226.45 -211.65 -226.45 -206.15" fill="#424242" fill-rule="evenodd" stroke="none"/>
    <path d="M-443.95 -551.65 L-391.45 -551.65 -391.45 -13.65 -413.95 -13.65 -432.95 139.35 -502.95 211.85 -664.45 211.85 -664.45 -391.65 -443.95 -391.65 -443.95 -551.65" fill="#6f6f6f" fill-rule="evenodd" stroke="none"/>
    <path d="M342.55 -551.65 L563.55 -551.65 563.55 -355.15 412.55 -355.15 342.55 -425.15 342.55 -551.65" fill="#6f6f6f" fill-rule="evenodd" stroke="none"/>
    <path d="M10.05 -305.65 L120.05 -305.65 120.05 -199.15 10.05 -199.15 10.05 -305.65" fill="#959595" fill-rule="evenodd" stroke="none"/>
    <path d="M-119.95 -268.15 L-119.95 -205.65 -334.95 -205.65 -334.95 43.35 -402.45 43.35 -402.45 139.35 -432.95 139.35 -432.95 -75.65 -422.95 -75.65 -422.95 -551.65 -371.45 -551.65 -371.45 -268.15 -119.95 -268.15" fill="#959595" fill-rule="evenodd" stroke="none"/>
    <path d="M40.05 -212.15 Q34.55 -208.65 29.05 -205.65 L21.05 -219.65 Q26.55 -222.65 32.05 -226.15 L40.05 -212.15" fill="#6f6f6f" fill-rule="evenodd" stroke="none"/>
    <path d="M37.55 -241.15 L28.55 -247.15 32.55 -253.65 42.05 -247.65 Q40.05 -244.15 37.55 -241.15" fill="#6f6f6f" fill-rule="evenodd" stroke="none"/>
    <path d="M-126.95 -246.15 L-137.95 -245.65 Q-137.95 -249.15 -138.45 -253.15 L-127.45 -254.15 Q-126.95 -250.15 -126.95 -246.15" fill="#6f6f6f" fill-rule="evenodd" stroke="none"/>
    <path d="M71.05 -289.65 Q64.05 -291.65 56.55 -294.15 58.05 -297.65 59.05 -301.15 L73.05 -296.15 71.05 -289.65" fill="#6f6f6f" fill-rule="evenodd" stroke="none"/>
    <path d="M39.55 -290.65 Q29.55 -288.65 19.55 -287.15 L17.55 -297.15 Q27.55 -298.65 37.55 -300.65 L39.55 -290.65" fill="#6f6f6f" fill-rule="evenodd" stroke="none"/>
    <path d="M51.05 -291.15 L47.05 -296.65 49.55 -298.65 Q51.55 -295.65 53.55 -293.15 L51.05 -291.15" fill="#6f6f6f" fill-rule="evenodd" stroke="none"/>
    <path d="M94.55 -248.15 Q92.55 -248.65 90.05 -249.65 L89.05 -254.15 Q91.05 -255.65 92.55 -257.65 95.05 -256.65 97.05 -256.15 L98.05 -251.65 Q96.55 -249.65 94.55 -248.15" fill="#6f6f6f" fill-rule="evenodd" stroke="none"/>
    <path d="M-234.45 -255.65 L-237.95 -256.65 -238.95 -260.65 -235.95 -263.65 Q-233.95 -262.65 -231.95 -262.15 -231.45 -260.15 -231.45 -258.15 L-234.45 -255.65" fill="#6f6f6f" fill-rule="evenodd" stroke="none"/>
    <path d="M-242.45 -256.15 Q-243.95 -256.65 -245.95 -257.65 L-246.95 -261.65 Q-245.45 -262.65 -243.95 -264.15 L-239.95 -263.15 Q-239.45 -261.15 -239.45 -259.15 L-242.45 -256.15" fill="#6f6f6f" fill-rule="evenodd" stroke="none"/>
    <path d="M-348.95 -256.65 L-352.95 -257.65 Q-352.95 -259.65 -353.45 -261.65 L-350.45 -264.65 -346.95 -263.15 -345.95 -259.15 Q-347.45 -257.65 -348.95 -256.65" fill="#6f6f6f" fill-rule="evenodd" stroke="none"/>
    <path d="M-414.95 -229.65 L-418.45 -230.65 -419.45 -234.15 Q-417.95 -235.15 -416.95 -236.65 L-413.45 -235.65 -412.45 -232.15 Q-413.45 -230.65 -414.95 -229.65" fill="#6f6f6f" fill-rule="evenodd" stroke="none"/>
    <path d="M-415.95 -223.65 L-419.45 -224.65 -420.45 -228.15 -417.95 -230.15 -414.45 -229.15 -413.45 -225.65 -415.95 -223.65" fill="#6f6f6f" fill-rule="evenodd" stroke="none"/>
    <path d="M-408.95 -222.65 L-412.45 -223.65 -413.45 -227.15 -410.45 -229.15 -406.95 -228.15 Q-406.45 -226.15 -406.45 -224.65 L-408.95 -222.65" fill="#6f6f6f" fill-rule="evenodd" stroke="none"/>
    <path d="M106.05 -250.15 Q103.55 -250.65 101.05 -251.65 L100.05 -256.15 Q102.05 -257.65 103.55 -259.65 106.05 -258.65 108.55 -258.15 L109.55 -253.65 Q108.05 -251.65 106.05 -250.15" fill="#6f6f6f" fill-rule="evenodd" stroke="none"/>
    <path d="M-133.95 -209.15 L-153.95 -209.15 -153.95 -219.65 -133.95 -219.65 -133.95 -209.15" fill="#6f6f6f" fill-rule="evenodd" stroke="none"/>
    <path d="M-163.95 -256.65 Q-166.45 -255.65 -168.95 -255.15 -169.45 -258.15 -170.45 -261.65 -167.95 -262.15 -165.45 -263.15 -164.45 -259.65 -163.95 -256.65" fill="#6f6f6f" fill-rule="evenodd" stroke="none"/>
    <path d="M-157.45 -210.15 L-172.95 -211.65 Q-172.45 -215.15 -172.45 -218.65 L-156.45 -216.65 -157.45 -210.15" fill="#6f6f6f" fill-rule="evenodd" stroke="none"/>
    <path d="M-182.95 -213.15 Q-184.45 -211.65 -186.45 -210.65 -188.45 -213.15 -190.45 -216.15 -188.45 -217.15 -186.95 -218.65 -184.95 -215.65 -182.95 -213.15" fill="#6f6f6f" fill-rule="evenodd" stroke="none"/>
    <path d="M-256.95 -250.15 L-264.95 -258.15 Q-261.45 -261.65 -258.45 -265.15 L-250.45 -257.15 Q-253.45 -253.65 -256.95 -250.15" fill="#6f6f6f" fill-rule="evenodd" stroke="none"/>
    <path d="M-267.95 -252.65 L-283.45 -252.65 -283.45 -264.65 -267.95 -264.65 -267.95 -252.65" fill="#6f6f6f" fill-rule="evenodd" stroke="none"/>
    <path d="M-337.45 -186.65 L-346.45 -185.65 -347.45 -200.65 -338.95 -201.15 Q-337.95 -193.65 -337.45 -186.65" fill="#6f6f6f" fill-rule="evenodd" stroke="none"/>
    <path d="M-337.95 -186.15 L-345.95 -185.15 Q-346.45 -192.65 -347.45 -200.15 L-338.95 -200.65 -337.95 -186.15" fill="#6f6f6f" fill-rule="evenodd" stroke="none"/>
    <path d="M-410.95 -151.65 Q-414.45 -153.65 -417.95 -156.15 L-408.95 -168.15 Q-405.45 -165.65 -402.45 -163.65 -406.45 -157.65 -410.95 -151.65" fill="#6f6f6f" fill-rule="evenodd" stroke="none"/>
    <path d="M-414.45 -238.65 L-421.45 -238.15 -421.45 -244.65 -414.45 -245.15 -414.45 -238.65" fill="#6f6f6f" fill-rule="evenodd" stroke="none"/>
    <path d="M-407.95 -205.15 L-419.95 -204.15 -420.95 -220.65 -408.95 -221.15 -407.95 -205.15" fill="#6f6f6f" fill-rule="evenodd" stroke="none"/>
    <path d="M-407.95 -189.15 L-418.95 -190.15 Q-418.45 -195.15 -418.45 -200.15 L-407.45 -199.15 Q-407.45 -194.15 -407.95 -189.15" fill="#6f6f6f" fill-rule="evenodd" stroke="none"/>
    <path d="M-409.95 -177.65 L-421.95 -178.15 Q-421.45 -183.65 -421.45 -189.15 L-409.95 -188.15 -409.95 -177.65" fill="#6f6f6f" fill-rule="evenodd" stroke="none"/>
  </g>
</svg>
