<?xml version="1.0" encoding="UTF-8" standalone="no"?>
<svg xmlns:ffdec="https://www.free-decompiler.com/flash" xmlns:xlink="http://www.w3.org/1999/xlink" ffdec:objectType="shape" height="873.5px" width="922.1px" xmlns="http://www.w3.org/2000/svg">
  <g transform="matrix(1.0, 0.0, 0.0, 1.0, 459.15, 626.5)">
    <path d="M462.95 247.0 L-459.15 247.0 -459.15 -626.5 462.95 -626.5 462.95 247.0" fill="#434343" fill-rule="evenodd" stroke="none"/>
    <path d="M462.95 58.4 L462.95 199.4 17.5 199.4 9.9 201.9 -6.35 201.9 -11.75 199.4 -459.15 199.4 -459.15 58.4 -189.15 58.4 -189.15 -576.65 -10.65 -576.65 -6.35 -579.15 9.9 -579.15 19.25 -576.65 191.9 -576.65 191.9 58.4 462.95 58.4" fill="#969696" fill-rule="evenodd" stroke="none"/>
    <path d="M-11.45 -609.5 L15.05 -609.5 15.05 -583.0 9.9 -583.0 9.9 -579.15 -6.35 -579.15 -6.35 -583.0 -11.45 -583.0 -11.45 -609.5" fill="#ffffff" fill-rule="evenodd" stroke="none"/>
    <path d="M15.05 230.55 L-11.45 230.55 -11.45 204.05 -6.35 204.05 -6.35 201.9 9.9 201.9 9.9 204.05 15.05 204.05 15.05 230.55" fill="#ffffff" fill-rule="evenodd" stroke="none"/>
    <path d="M462.95 201.9 L9.9 201.9 14.9 193.9 462.95 193.9 462.95 201.9" fill="#707070" fill-rule="evenodd" stroke="none"/>
    <path d="M-459.15 193.9 L-10.85 193.9 -6.35 201.9 -459.15 201.9 -459.15 193.9" fill="#707070" fill-rule="evenodd" stroke="none"/>
    <path d="M-10.85 -571.15 L-182.15 -571.15 -182.15 53.25 -183.05 56.65 -185.95 60.3 -190.0 62.95 -194.1 63.9 -459.15 63.9 -459.15 55.9 -194.95 55.9 -193.2 55.5 -191.4 54.3 -190.35 52.95 -190.15 52.2 -190.15 -579.15 -6.35 -579.15 -10.85 -571.15" fill="#707070" fill-rule="evenodd" stroke="none"/>
    <path d="M462.95 63.9 L196.5 63.9 192.45 62.1 189.35 59.15 186.7 55.55 186.4 51.25 186.4 -571.15 14.4 -571.15 9.9 -579.15 194.4 -579.15 194.5 52.65 195.35 53.8 197.0 55.35 198.2 55.9 462.95 55.9 462.95 63.9" fill="#707070" fill-rule="evenodd" stroke="none"/>
    <path d="M-459.15 118.5 L-233.5 118.5 -228.9 119.0 -225.65 120.75 -223.5 124.35 -223.5 129.5 -225.65 132.1 -228.9 134.6 -233.5 135.0 -459.15 135.0 -459.15 118.5" fill="#707070" fill-rule="evenodd" stroke="none"/>
    <path d="M462.95 118.15 L462.95 136.15 249.5 136.15 249.5 118.15 462.95 118.15" fill="#707070" fill-rule="evenodd" stroke="none"/>
    <path d="M445.65 131.3 L437.3 131.3 437.3 123.0 445.65 123.0 445.65 131.3" fill="#434343" fill-rule="evenodd" stroke="none"/>
    <path d="M343.9 131.3 L335.55 131.3 335.55 123.0 343.9 123.0 343.9 131.3" fill="#434343" fill-rule="evenodd" stroke="none"/>
    <path d="M261.15 131.3 L252.8 131.3 252.8 123.0 261.15 123.0 261.15 131.3" fill="#434343" fill-rule="evenodd" stroke="none"/>
    <path d="M-99.85 131.35 L-108.2 131.35 -108.2 123.0 -99.85 123.0 -99.85 131.35" fill="#434343" fill-rule="evenodd" stroke="none"/>
    <path d="M6.15 131.35 L-2.2 131.35 -2.2 123.0 6.15 123.0 6.15 131.35" fill="#434343" fill-rule="evenodd" stroke="none"/>
    <path d="M110.9 131.35 L102.55 131.35 102.55 123.0 110.9 123.0 110.9 131.35" fill="#434343" fill-rule="evenodd" stroke="none"/>
    <path d="M-99.85 29.8 L-108.2 29.8 -108.2 21.5 -99.85 21.5 -99.85 29.8" fill="#434343" fill-rule="evenodd" stroke="none"/>
    <path d="M6.15 29.8 L-2.2 29.8 -2.2 21.5 6.15 21.5 6.15 29.8" fill="#434343" fill-rule="evenodd" stroke="none"/>
    <path d="M110.9 29.8 L102.55 29.8 102.55 21.5 110.9 21.5 110.9 29.8" fill="#434343" fill-rule="evenodd" stroke="none"/>
    <path d="M-99.85 -143.35 L-108.2 -143.35 -108.2 -151.7 -99.85 -151.7 -99.85 -143.35" fill="#434343" fill-rule="evenodd" stroke="none"/>
    <path d="M6.15 -143.35 L-2.2 -143.35 -2.2 -151.7 6.15 -151.7 6.15 -143.35" fill="#434343" fill-rule="evenodd" stroke="none"/>
    <path d="M110.9 -143.35 L102.55 -143.35 102.55 -151.7 110.9 -151.7 110.9 -143.35" fill="#434343" fill-rule="evenodd" stroke="none"/>
    <path d="M-99.85 -312.6 L-108.2 -312.6 -108.2 -320.9 -99.85 -320.9 -99.85 -312.6" fill="#434343" fill-rule="evenodd" stroke="none"/>
    <path d="M6.15 -312.6 L-2.2 -312.6 -2.2 -320.9 6.15 -320.9 6.15 -312.6" fill="#434343" fill-rule="evenodd" stroke="none"/>
    <path d="M110.9 -312.6 L102.55 -312.6 102.55 -320.9 110.9 -320.9 110.9 -312.6" fill="#434343" fill-rule="evenodd" stroke="none"/>
    <path d="M-99.85 -478.35 L-108.2 -478.35 -108.2 -486.65 -99.85 -486.65 -99.85 -478.35" fill="#434343" fill-rule="evenodd" stroke="none"/>
    <path d="M6.15 -478.35 L-2.2 -478.35 -2.2 -486.65 6.15 -486.65 6.15 -478.35" fill="#434343" fill-rule="evenodd" stroke="none"/>
    <path d="M110.9 -478.35 L102.55 -478.35 102.55 -486.65 110.9 -486.65 110.9 -478.35" fill="#434343" fill-rule="evenodd" stroke="none"/>
    <path d="M-248.35 131.4 L-256.7 131.4 -256.7 123.05 -248.35 123.05 -248.35 131.4" fill="#434343" fill-rule="evenodd" stroke="none"/>
    <path d="M-343.1 131.4 L-351.45 131.4 -351.45 123.05 -343.1 123.05 -343.1 131.4" fill="#434343" fill-rule="evenodd" stroke="none"/>
    <path d="M-454.85 131.4 L-459.15 131.4 -459.15 123.05 -454.85 123.05 -454.85 131.4" fill="#434343" fill-rule="evenodd" stroke="none"/>
    <path d="M316.65 134.75 L308.3 134.75 308.3 120.15 316.65 120.15 316.65 134.75" fill="#434343" fill-rule="evenodd" stroke="none"/>
  </g>
</svg>
