<?xml version="1.0" encoding="UTF-8" standalone="no"?>
<svg xmlns:ffdec="https://www.free-decompiler.com/flash" xmlns:xlink="http://www.w3.org/1999/xlink" ffdec:objectType="shape" height="191.0px" width="87.7px" xmlns="http://www.w3.org/2000/svg">
  <g transform="matrix(1.0, 0.0, 0.0, 1.0, -96.15, -44.5)">
    <path d="M181.55 113.55 L156.7 113.55 156.7 105.75 Q156.7 96.05 152.65 90.35 148.45 84.35 139.9 84.35 131.65 84.35 127.45 89.5 123.35 94.55 123.35 103.45 123.35 109.9 125.7 113.9 128.05 117.7 134.95 122.55 L161.05 140.6 Q171.95 148.15 178.0 156.2 183.85 163.9 183.85 177.15 183.85 192.9 174.85 202.3 166.15 211.3 151.5 213.75 L151.5 235.5 128.5 235.5 128.5 213.8 Q123.4 212.85 119.05 211.2 115.2 209.7 111.9 207.65 108.35 205.35 105.45 202.4 96.15 192.85 96.15 176.3 L96.15 165.0 120.75 165.0 120.75 174.85 Q120.75 185.55 125.95 190.9 131.1 196.3 139.9 196.3 148.25 196.3 153.65 191.55 159.25 186.8 159.25 177.15 159.25 170.65 156.9 166.5 154.5 162.2 147.65 157.45 L121.85 139.4 Q110.75 131.7 104.85 124.1 99.05 116.65 99.05 103.45 99.05 87.45 107.25 77.95 114.65 69.4 128.5 66.85 L128.5 44.5 151.5 44.5 151.5 66.9 Q165.55 69.55 173.35 78.7 181.55 88.2 181.55 104.3 L181.55 113.55" fill="#ffffff" fill-rule="evenodd" stroke="none"/>
  </g>
</svg>
