<?xml version="1.0" encoding="UTF-8" standalone="no"?>
<svg xmlns:ffdec="https://www.free-decompiler.com/flash" xmlns:xlink="http://www.w3.org/1999/xlink" ffdec:objectType="shape" height="113.55px" width="314.25px" xmlns="http://www.w3.org/2000/svg">
  <g transform="matrix(1.0, 0.0, 0.0, 1.0, 3.0, 2.0)">
    <path d="M67.7 76.75 L67.75 76.95 67.7 76.95 68.95 81.75 69.3 80.5 68.25 77.05 68.25 76.95 68.1 76.9 67.7 76.75 M54.95 22.95 L53.95 22.75 54.35 22.75 53.85 22.7 Q52.6 22.7 51.75 21.85 L51.5 21.6 51.5 34.45 53.2 34.7 Q54.3 34.85 55.05 35.7 55.75 36.55 55.75 37.65 L55.75 43.0 Q57.25 42.4 59.1 42.4 61.5 42.3 64.15 43.9 L64.45 43.2 56.1 25.15 54.95 22.95 M156.35 77.65 L155.3 77.45 154.4 77.15 154.65 78.4 154.65 84.45 Q154.65 85.7 153.8 86.6 152.9 87.45 151.65 87.45 L147.2 87.45 147.2 97.15 147.2 97.35 148.7 96.3 148.95 96.15 149.45 95.8 Q150.35 95.2 151.45 95.4 152.45 95.5 153.2 96.3 L155.9 99.2 156.35 99.1 156.35 77.75 156.35 77.65 M105.8 76.85 L109.25 76.7 108.2 75.3 108.05 75.55 Q107.45 76.35 106.55 76.65 L105.8 76.85 M88.05 76.65 L88.1 76.8 89.45 82.1 90.9 77.35 90.9 77.4 91.0 76.9 90.6 76.95 89.65 76.8 88.95 76.65 87.9 76.0 88.05 76.65 M105.6 65.0 Q106.85 65.0 107.75 65.9 L108.35 66.8 Q108.95 65.85 109.9 65.0 112.4 62.6 116.3 62.6 120.2 62.6 122.7 64.95 125.35 67.35 125.35 71.1 125.35 73.75 124.0 75.75 L124.15 75.9 Q125.0 76.75 125.0 78.0 L125.0 99.1 126.1 99.3 Q127.15 99.5 127.85 100.35 128.55 101.15 128.55 102.25 L128.55 108.0 Q128.55 109.25 127.7 110.15 126.8 111.0 125.55 111.0 L105.8 111.0 Q104.55 111.0 103.7 110.15 102.8 109.25 102.8 108.0 L102.8 102.25 Q102.8 101.15 103.5 100.35 104.2 99.5 105.25 99.3 L106.35 99.1 106.35 88.85 105.45 88.7 Q104.3 88.55 103.55 87.7 102.8 86.8 102.8 85.7 L102.8 83.3 94.25 108.95 Q93.95 109.85 93.15 110.45 92.35 111.0 91.4 111.0 L80.9 111.0 Q79.9 111.0 79.15 110.4 78.3 109.8 78.05 108.9 L75.85 101.85 73.65 108.9 Q73.3 109.85 72.55 110.45 71.75 111.0 70.75 111.0 L60.05 111.0 Q59.05 111.0 58.3 110.4 57.45 109.8 57.2 108.9 L47.8 78.3 47.25 76.9 47.0 76.9 46.95 76.9 46.4 76.75 Q45.35 76.55 44.7 75.7 44.0 74.85 44.0 73.8 L44.0 68.0 Q44.0 66.75 44.9 65.9 45.75 65.0 47.0 65.0 L105.6 65.0 M88.8 22.8 L88.9 22.8 88.0 23.15 Q87.4 23.9 86.6 25.8 L86.6 25.75 77.15 47.55 Q74.35 54.05 71.2 56.55 L71.15 56.6 68.55 58.3 Q65.45 59.9 61.65 59.9 57.0 59.9 54.05 57.65 L53.95 57.6 Q50.45 54.8 50.5 50.8 50.5 48.3 51.7 46.4 L30.75 46.4 Q29.5 46.4 28.65 45.55 L28.55 45.45 28.15 45.8 Q27.35 46.4 26.35 46.4 L19.75 46.4 Q18.75 46.4 17.95 45.8 L17.7 45.55 Q16.8 46.4 15.6 46.4 L0.0 46.4 Q-1.25 46.4 -2.1 45.55 -3.0 44.65 -3.0 43.4 L-3.0 37.65 Q-3.0 36.55 -2.25 35.7 -1.55 34.85 -0.4 34.7 L1.2 34.45 1.2 12.35 -0.25 12.2 Q-1.45 12.05 -2.2 11.25 -3.0 10.35 -3.0 9.2 L-3.0 3.4 Q-3.0 2.15 -2.1 1.3 -1.25 0.4 0.0 0.4 L22.15 0.4 Q23.15 0.4 24.0 1.05 24.8 1.65 25.05 2.65 L26.5 8.2 28.1 2.6 Q28.35 1.6 29.15 1.0 29.95 0.4 30.95 0.4 L52.75 0.4 Q54.0 0.4 54.9 1.3 55.75 2.15 55.75 3.4 L55.75 9.2 Q55.75 10.1 55.3 10.8 L73.35 10.8 73.95 10.85 74.55 10.8 89.2 10.8 Q90.45 10.8 91.35 11.7 92.2 12.55 92.2 13.8 L92.2 19.7 Q92.2 20.8 91.45 21.7 90.7 22.55 89.6 22.7 L88.8 22.8 M127.25 13.05 L127.1 13.05 127.1 33.55 126.95 34.0 127.15 34.0 Q130.4 34.05 132.2 31.75 134.25 28.85 134.25 23.9 134.25 18.35 132.25 15.35 130.5 13.05 127.25 13.05 M257.8 83.65 L257.85 83.65 Q258.2 85.1 258.2 88.9 L258.2 99.1 259.3 99.3 Q260.35 99.5 261.05 100.35 261.75 101.15 261.75 102.25 L261.75 108.0 Q261.75 109.25 260.9 110.15 260.0 111.0 258.75 111.0 L240.25 111.0 239.55 110.95 238.85 111.0 220.45 111.0 Q219.4 111.0 218.65 110.4 217.85 111.0 216.8 111.0 L197.05 111.0 195.45 110.55 Q194.75 111.0 193.85 111.0 L175.5 111.0 174.75 110.9 173.95 111.0 155.8 111.0 Q154.55 111.0 153.7 110.15 152.95 109.4 152.85 108.4 147.9 111.55 141.4 111.55 133.3 111.55 130.4 107.15 129.0 105.4 128.85 104.0 128.65 103.0 128.65 99.65 L128.65 87.45 128.15 87.45 Q126.9 87.45 126.05 86.6 125.15 85.7 125.15 84.45 L125.15 78.4 Q125.15 77.25 125.9 76.4 126.65 75.55 127.8 75.45 130.1 75.15 131.2 74.05 L131.2 74.1 Q132.25 72.6 132.45 69.55 132.55 68.35 133.4 67.55 134.25 66.75 135.45 66.75 L144.2 66.75 Q145.45 66.75 146.35 67.65 147.2 68.5 147.2 69.75 L147.2 75.4 151.65 75.4 Q152.45 75.4 153.05 75.75 L152.8 74.5 152.8 68.75 Q152.8 67.6 153.6 66.75 154.4 65.85 155.6 65.75 160.6 65.35 166.4 63.65 L167.25 63.5 171.6 63.5 Q172.85 63.5 173.75 64.4 174.6 65.25 174.6 66.5 L174.6 75.7 Q177.1 74.95 179.95 74.95 183.25 74.95 186.25 76.2 189.5 77.55 191.1 79.7 193.3 82.25 193.3 88.85 L193.3 99.1 194.4 99.3 195.45 99.7 Q195.9 99.4 196.5 99.3 L197.6 99.1 197.6 88.85 196.7 88.7 Q195.55 88.55 194.8 87.7 194.05 86.8 194.05 85.7 L194.05 79.85 Q194.05 78.6 194.95 77.75 195.8 76.85 197.05 76.85 L200.5 76.7 Q198.35 74.35 198.35 71.15 198.3 67.55 201.15 65.0 203.65 62.6 207.55 62.6 211.45 62.6 213.95 64.95 216.6 67.35 216.6 71.1 216.6 73.75 215.25 75.75 L215.4 75.9 Q216.25 76.75 216.25 78.0 L216.25 99.1 217.35 99.3 Q218.05 99.45 218.65 99.9 219.2 99.45 219.9 99.3 L221.0 99.1 221.0 89.45 221.05 89.35 220.2 89.25 Q219.05 89.15 218.25 88.3 217.45 87.4 217.45 86.25 L217.45 80.4 Q217.45 79.2 218.3 78.35 219.1 77.45 220.3 77.4 226.3 77.1 230.5 75.25 L231.7 75.0 235.75 75.0 Q237.0 75.0 237.9 75.9 L238.15 76.2 Q241.2 75.0 244.7 75.0 250.7 75.0 254.5 78.35 257.05 80.5 257.8 83.65 M295.6 33.6 Q297.15 33.45 298.4 32.1 L293.5 32.1 Q294.15 33.4 295.6 33.6 M303.8 13.2 Q308.5 16.2 309.95 21.15 310.75 23.85 310.75 28.75 L310.75 29.1 Q310.75 30.35 309.9 31.25 L309.5 31.55 309.65 31.6 Q310.65 32.15 311.05 33.3 311.45 34.4 310.95 35.5 305.75 46.95 292.95 46.95 284.65 46.95 279.55 41.9 278.2 40.55 277.2 39.05 L277.2 43.4 Q277.2 44.65 276.35 45.55 275.45 46.4 274.2 46.4 L255.7 46.4 255.0 46.35 254.3 46.4 235.9 46.4 Q234.85 46.4 234.1 45.8 233.3 46.4 232.25 46.4 L212.5 46.4 Q211.25 46.4 210.4 45.55 209.5 44.65 209.5 43.4 L209.5 37.65 Q209.5 36.55 210.2 35.75 210.9 34.9 211.95 34.7 L213.05 34.5 213.05 24.25 212.15 24.1 Q211.2 23.95 210.55 23.4 209.45 24.45 208.6 26.7 L208.6 26.65 201.9 44.45 Q201.55 45.35 200.8 45.9 200.05 46.4 199.1 46.4 L187.5 46.4 Q186.55 46.4 185.8 45.85 185.0 45.3 184.7 44.4 L178.0 25.0 177.05 22.8 176.95 22.7 176.6 22.7 176.05 22.6 175.25 22.35 175.25 34.5 176.35 34.7 Q177.4 34.9 178.1 35.75 178.8 36.55 178.8 37.65 L178.8 43.4 Q178.8 44.65 177.95 45.55 177.05 46.4 175.8 46.4 L156.05 46.4 Q154.8 46.4 153.95 45.55 153.05 44.65 153.05 43.4 L153.05 37.65 Q153.05 36.55 153.75 35.75 154.45 34.9 155.5 34.7 L156.6 34.5 156.6 24.25 155.7 24.1 154.9 23.9 Q154.75 37.1 145.0 42.75 L145.0 42.7 Q141.3 44.95 137.3 45.7 L126.3 46.4 106.05 46.4 Q104.8 46.4 103.95 45.55 103.05 44.65 103.05 43.4 L103.05 37.65 Q103.05 36.55 103.8 35.7 104.5 34.85 105.65 34.7 L107.3 34.45 107.3 12.4 105.75 12.2 Q104.6 12.05 103.85 11.2 103.05 10.35 103.05 9.2 L103.05 3.4 Q103.05 2.15 103.95 1.3 104.8 0.4 106.05 0.4 L126.75 0.4 137.95 1.25 137.9 1.2 Q141.85 2.0 145.65 4.7 151.0 8.35 153.3 14.1 L153.95 13.15 Q154.8 12.25 156.05 12.25 L159.5 12.1 Q157.35 9.75 157.35 6.55 157.3 2.95 160.15 0.4 162.65 -2.0 166.55 -2.0 170.45 -2.0 172.95 0.35 175.6 2.75 175.6 6.5 175.6 9.15 174.25 11.15 L174.4 11.3 174.65 11.6 Q175.5 10.8 176.65 10.8 L195.55 10.8 196.3 10.9 197.0 10.8 211.25 10.8 Q212.5 10.8 213.4 11.7 L213.85 12.25 215.95 12.1 Q213.8 9.75 213.8 6.55 213.75 2.95 216.6 0.4 219.1 -2.0 223.0 -2.0 226.9 -2.0 229.4 0.35 232.05 2.75 232.05 6.5 232.05 9.15 230.7 11.15 L230.85 11.3 Q231.7 12.15 231.7 13.4 L231.7 34.5 232.8 34.7 Q233.5 34.85 234.1 35.3 234.65 34.85 235.35 34.7 L236.45 34.5 236.45 24.85 236.5 24.75 235.65 24.65 Q234.5 24.55 233.7 23.7 232.9 22.8 232.9 21.65 L232.9 15.8 Q232.9 14.6 233.75 13.75 234.55 12.85 235.75 12.8 241.75 12.5 245.95 10.65 L247.15 10.4 251.2 10.4 Q252.45 10.4 253.35 11.3 L253.6 11.6 Q256.65 10.4 260.15 10.4 266.15 10.4 269.95 13.75 272.5 15.9 273.25 19.05 L273.3 19.05 Q273.65 20.5 273.65 24.3 L273.65 34.5 274.75 34.7 275.3 34.85 Q274.4 32.0 274.4 28.65 274.4 20.5 279.75 15.45 L279.7 15.45 Q284.85 10.35 293.2 10.35 299.25 10.35 303.75 13.15 L303.8 13.2" fill="#373785" fill-rule="evenodd" stroke="none"/>
    <path d="M302.15 14.7 Q305.9 17.1 307.05 21.0 307.75 23.4 307.75 27.75 L307.75 28.1 290.0 28.1 290.0 28.3 Q290.0 35.6 295.6 35.6 299.8 35.6 302.6 30.25 L308.2 33.25 Q303.8 42.95 292.95 42.95 285.95 42.95 281.65 38.75 277.4 34.5 277.4 27.65 277.4 20.85 281.8 16.6 286.15 12.35 293.2 12.35 298.35 12.35 302.15 14.7 M295.9 21.75 Q295.9 18.0 293.2 18.0 290.4 18.0 290.25 22.65 L295.9 22.65 295.9 21.75 M270.35 18.75 Q270.65 20.0 270.65 23.3 L270.65 33.55 Q270.65 36.0 272.55 36.35 L274.2 36.65 274.2 42.4 255.7 42.4 255.7 36.65 256.7 36.3 Q257.65 35.95 257.95 35.2 L258.05 33.55 258.05 23.85 Q258.05 19.95 255.3 19.95 253.6 19.95 251.9 21.4 L251.9 33.55 Q251.9 34.8 252.05 35.2 252.3 35.95 253.25 36.3 L254.3 36.65 254.3 42.4 235.9 42.4 235.9 36.65 237.5 36.35 Q238.8 36.1 239.15 35.45 239.45 34.95 239.45 33.5 L239.45 23.85 Q239.45 21.0 237.1 20.75 L235.9 20.65 235.9 14.8 Q242.5 14.45 247.15 12.4 L251.2 12.4 251.2 15.35 Q255.1 12.4 260.15 12.4 264.95 12.4 268.0 15.0 269.8 16.55 270.35 18.75 M252.55 79.6 Q254.35 81.15 254.9 83.35 255.2 84.6 255.2 87.9 L255.2 98.15 Q255.2 100.6 257.1 100.95 L258.75 101.25 258.75 107.0 240.25 107.0 240.25 101.25 241.25 100.9 Q242.2 100.55 242.5 99.8 L242.6 98.15 242.6 88.45 Q242.6 84.55 239.85 84.55 238.15 84.55 236.45 86.0 L236.45 98.15 Q236.45 99.4 236.6 99.8 236.85 100.55 237.8 100.9 L238.85 101.25 238.85 107.0 220.45 107.0 220.45 101.25 222.05 100.95 Q223.35 100.7 223.7 100.05 224.0 99.55 224.0 98.1 L224.0 88.45 Q224.0 85.6 221.65 85.35 L220.45 85.25 220.45 79.4 Q227.05 79.05 231.7 77.0 L235.75 77.0 235.75 79.95 Q239.65 77.0 244.7 77.0 249.5 77.0 252.55 79.6 M227.35 1.55 Q229.05 3.1 229.05 5.5 229.05 7.9 227.35 9.5 225.6 11.1 222.95 11.1 220.35 11.1 218.6 9.5 216.8 7.9 216.8 5.55 216.8 3.25 218.6 1.6 220.35 0.0 223.0 0.0 225.65 0.0 227.35 1.55 M228.7 12.4 L228.7 33.6 Q228.7 36.0 230.65 36.35 L232.25 36.65 232.25 42.4 212.5 42.4 212.5 36.65 214.1 36.35 Q215.4 36.1 215.75 35.45 216.05 34.95 216.05 33.6 L216.05 23.15 Q216.05 21.75 215.7 21.2 215.3 20.65 214.1 20.35 L212.5 20.1 212.5 14.25 Q219.3 14.2 224.5 12.4 L228.7 12.4 M210.5 18.85 Q207.6 19.85 205.8 24.6 L199.1 42.4 187.5 42.4 180.8 23.0 Q179.95 20.55 179.3 19.8 178.7 19.05 177.2 18.75 L176.65 18.65 176.65 12.8 195.55 12.8 195.55 18.65 195.2 18.75 Q194.0 19.15 193.65 19.45 193.05 19.95 193.05 21.1 L193.3 23.05 195.7 32.6 198.55 22.4 198.95 20.35 Q198.95 19.3 198.25 19.05 L197.25 18.75 197.0 18.65 197.0 12.8 211.25 12.8 211.25 18.65 210.5 18.85 M166.5 11.1 Q163.9 11.1 162.15 9.5 160.35 7.9 160.35 5.55 160.35 3.25 162.15 1.6 163.9 0.0 166.55 0.0 169.2 0.0 170.9 1.55 172.6 3.1 172.6 5.5 172.6 7.9 170.9 9.5 169.15 11.1 166.5 11.1 M172.25 12.4 L172.25 33.6 Q172.25 36.0 174.2 36.35 L175.8 36.65 175.8 42.4 156.05 42.4 156.05 36.65 157.65 36.35 Q158.95 36.1 159.3 35.45 159.6 34.95 159.6 33.6 L159.6 23.15 Q159.6 21.75 159.25 21.2 158.85 20.65 157.65 20.35 L156.05 20.1 156.05 14.25 Q162.85 14.2 168.05 12.4 L172.25 12.4 M171.6 65.5 L171.6 79.35 Q175.15 76.95 179.95 76.95 182.65 76.95 185.1 77.95 187.5 78.95 188.7 80.5 190.3 82.6 190.3 87.85 L190.3 98.2 Q190.3 100.6 192.25 100.95 L193.85 101.25 193.85 107.0 175.5 107.0 175.5 101.25 176.45 100.9 Q177.45 100.55 177.65 99.85 L177.85 98.2 177.85 88.45 Q177.85 84.45 174.9 84.45 173.05 84.45 171.6 85.95 L171.6 98.2 171.8 99.85 Q172.0 100.45 173.05 100.9 L173.95 101.25 173.95 107.0 155.8 107.0 155.8 101.25 157.4 100.95 Q158.7 100.7 159.05 100.05 159.35 99.55 159.35 98.2 L159.35 76.75 Q159.35 75.2 158.9 74.55 158.45 73.95 157.0 73.7 L155.8 73.5 155.8 67.75 Q161.15 67.35 167.25 65.5 L171.6 65.5 M200.6 87.75 Q200.6 86.35 200.25 85.8 199.85 85.25 198.65 84.95 L197.05 84.7 197.05 78.85 Q203.85 78.8 209.05 77.0 L213.25 77.0 213.25 98.2 Q213.25 100.6 215.2 100.95 L216.8 101.25 216.8 107.0 197.05 107.0 197.05 101.25 198.65 100.95 Q199.95 100.7 200.3 100.05 200.6 99.55 200.6 98.2 L200.6 87.75 M213.6 70.1 Q213.6 72.5 211.9 74.1 210.15 75.7 207.5 75.7 204.9 75.7 203.15 74.1 201.35 72.5 201.35 70.15 201.35 67.85 203.15 66.2 204.9 64.6 207.55 64.6 210.2 64.6 211.9 66.15 213.6 67.7 213.6 70.1 M151.9 22.5 Q151.9 34.15 143.45 39.15 140.25 41.1 136.75 41.75 L126.3 42.4 106.05 42.4 106.05 36.65 108.1 36.35 Q110.3 36.05 110.3 33.45 L110.3 11.3 Q110.3 8.7 108.1 8.45 L106.05 8.2 106.05 2.4 126.75 2.4 137.3 3.15 Q140.7 3.85 143.95 6.15 151.9 11.65 151.9 22.5 M124.7 9.6 Q124.1 10.15 124.1 11.95 L124.1 32.55 Q124.1 35.25 125.15 35.75 L127.15 36.0 Q131.9 36.0 134.55 32.55 137.25 29.05 137.25 22.9 137.25 16.2 134.65 12.6 132.1 9.05 127.25 9.05 125.3 9.05 124.7 9.6 M89.2 18.7 L88.4 18.8 Q86.8 19.05 85.85 20.0 85.0 20.95 83.85 23.55 L74.4 45.35 Q71.95 51.05 69.25 53.25 66.05 55.9 61.65 55.9 58.1 55.9 55.8 54.2 53.5 52.4 53.5 49.8 53.5 47.45 55.1 45.9 56.7 44.4 59.1 44.4 61.3 44.4 63.8 46.35 L64.75 46.8 Q65.4 46.8 65.8 46.2 L67.45 42.85 67.75 42.2 58.8 22.9 Q57.6 20.25 56.9 19.65 56.15 19.0 54.35 18.75 L53.85 18.7 53.85 12.8 73.35 12.8 73.35 18.7 73.0 18.7 Q71.05 18.85 71.05 20.2 L71.35 21.55 73.95 28.8 76.45 21.7 76.8 19.9 Q76.8 18.85 75.0 18.7 L74.55 18.7 74.55 12.8 89.2 12.8 89.2 18.7 M104.65 73.05 Q103.3 73.4 102.65 74.3 102.0 75.15 101.05 78.05 L91.4 107.0 80.9 107.0 75.85 90.7 70.75 107.0 60.05 107.0 50.65 76.4 Q50.05 74.5 49.45 73.85 48.85 73.2 47.55 72.95 L47.0 72.8 47.0 67.0 66.75 67.0 66.75 72.75 66.3 72.95 Q64.45 73.45 64.45 74.75 64.45 75.2 64.8 76.65 L68.6 91.65 72.45 79.5 71.1 75.15 Q70.6 73.4 68.9 73.0 L68.2 72.75 68.2 67.0 88.05 67.0 88.05 72.75 87.1 72.95 Q84.85 73.35 84.85 74.7 L85.15 76.4 89.2 92.2 93.75 77.2 94.15 75.05 Q94.15 73.35 90.9 72.95 L89.95 72.8 89.95 67.0 105.6 67.0 105.6 72.8 104.65 73.05 M111.9 66.2 Q113.65 64.6 116.3 64.6 118.95 64.6 120.65 66.15 122.35 67.7 122.35 70.1 122.35 72.5 120.65 74.1 118.9 75.7 116.25 75.7 113.65 75.7 111.9 74.1 110.1 72.5 110.1 70.15 110.1 67.85 111.9 66.2 M107.4 84.95 L105.8 84.7 105.8 78.85 Q112.6 78.8 117.8 77.0 L122.0 77.0 122.0 98.2 Q122.0 100.6 123.95 100.95 L125.55 101.25 125.55 107.0 105.8 107.0 105.8 101.25 107.4 100.95 Q108.7 100.7 109.05 100.05 L109.35 98.2 109.35 87.75 Q109.35 86.35 109.0 85.8 108.6 85.25 107.4 84.95 M133.5 75.0 Q135.15 73.0 135.45 68.75 L144.2 68.75 144.2 77.4 151.65 77.4 151.65 83.45 144.2 83.45 144.2 96.15 Q144.2 97.95 144.45 98.6 144.9 99.75 146.3 99.75 147.8 99.75 150.5 97.7 L151.0 97.35 155.0 101.65 Q149.65 107.55 141.4 107.55 135.15 107.55 132.8 104.35 131.95 103.3 131.8 102.45 131.65 101.6 131.65 98.65 L131.65 83.45 128.15 83.45 128.15 77.4 Q131.85 76.95 133.5 75.0 M52.75 8.2 L50.65 8.45 Q48.5 8.7 48.5 11.3 L48.5 33.45 Q48.5 36.05 50.65 36.35 L52.75 36.65 52.75 42.4 30.75 42.4 30.75 36.65 32.8 36.35 Q34.95 36.05 34.95 33.45 L34.95 12.65 26.35 42.4 19.75 42.4 11.35 12.3 11.35 33.45 Q11.35 36.05 13.5 36.35 L15.6 36.65 15.6 42.4 0.0 42.4 0.0 36.65 2.1 36.35 Q4.2 36.05 4.2 33.45 L4.2 11.3 Q4.2 8.7 2.1 8.45 L0.0 8.2 0.0 2.4 22.15 2.4 26.35 18.65 30.95 2.4 52.75 2.4 52.75 8.2" fill="#f1f2f2" fill-rule="evenodd" stroke="none"/>
  </g>
</svg>
