<?xml version="1.0" encoding="UTF-8" standalone="no"?>
<svg xmlns:ffdec="https://www.free-decompiler.com/flash" xmlns:xlink="http://www.w3.org/1999/xlink" ffdec:objectType="shape" height="17.0px" width="17.0px" xmlns="http://www.w3.org/2000/svg">
  <g transform="matrix(1.0, 0.0, 0.0, 1.0, 2.8, 18.85)">
    <path d="M7.05 -17.45 L7.05 -11.7 12.8 -11.7 Q13.4 -11.7 13.8 -11.25 14.2 -10.9 14.2 -10.3 14.2 -9.75 13.8 -9.3 13.4 -8.95 12.8 -8.95 L7.05 -8.95 7.05 -3.2 Q7.05 -2.6 6.7 -2.25 6.25 -1.85 5.65 -1.85 5.1 -1.85 4.7 -2.25 4.3 -2.6 4.3 -3.2 L4.3 -8.95 -1.4 -8.95 Q-2.0 -8.95 -2.35 -9.3 -2.8 -9.75 -2.8 -10.3 -2.8 -10.9 -2.35 -11.25 -2.0 -11.7 -1.4 -11.7 L4.3 -11.7 4.3 -17.45 Q4.3 -18.05 4.7 -18.4 5.1 -18.85 5.65 -18.85 6.25 -18.85 6.7 -18.4 L7.05 -17.45" fill="#c5b298" fill-rule="evenodd" stroke="none"/>
  </g>
</svg>
