<?xml version="1.0" encoding="UTF-8" standalone="no"?>
<svg xmlns:ffdec="https://www.free-decompiler.com/flash" xmlns:xlink="http://www.w3.org/1999/xlink" ffdec:objectType="shape" height="287.2px" width="312.65px" xmlns="http://www.w3.org/2000/svg">
  <g transform="matrix(1.0, 0.0, 0.0, 1.0, 156.3, 132.1)">
    <path d="M39.95 -124.05 Q20.5 -130.3 0.0 -130.3 -19.1 -130.3 -37.1 -124.9 L-37.8 -124.95 -38.25 -125.5 Q-38.45 -126.4 -37.65 -126.6 -19.25 -132.1 0.0 -132.1 20.75 -132.1 40.5 -125.75 L41.0 -125.3 41.05 -124.6 Q40.9 -124.0 40.2 -124.0 L39.95 -124.05 M56.05 -118.6 Q56.5 -119.35 57.25 -119.0 77.2 -109.3 92.95 -93.55 108.7 -77.75 118.3 -57.85 118.5 -57.5 118.35 -57.15 L117.9 -56.65 117.5 -56.55 Q116.95 -56.55 116.7 -57.05 107.2 -76.7 91.65 -92.25 76.15 -107.85 56.5 -117.4 56.15 -117.55 56.05 -117.9 55.9 -118.25 56.05 -118.6 M41.65 -52.8 L41.45 -52.15 Q41.25 -51.8 40.75 -51.8 L40.2 -52.0 Q31.55 -58.8 21.3 -62.35 11.05 -65.9 0.0 -65.9 -11.05 -65.9 -21.25 -62.35 -31.5 -58.8 -40.2 -52.0 -40.95 -51.45 -41.45 -52.15 L-41.65 -52.8 -41.3 -53.4 Q-32.35 -60.4 -21.85 -64.05 -11.3 -67.7 0.0 -67.7 11.35 -67.7 21.9 -64.05 32.4 -60.4 41.3 -53.4 L41.65 -52.8 M7.25 -52.95 L7.5 -52.3 7.25 -51.65 Q7.0 -51.4 6.6 -51.4 L-6.55 -51.4 Q-6.9 -51.4 -7.2 -51.65 L-7.45 -52.3 -7.2 -52.95 -6.55 -53.2 6.6 -53.2 7.25 -52.95 M7.25 -40.05 L7.5 -39.4 7.25 -38.75 Q7.0 -38.5 6.6 -38.5 L-6.55 -38.5 Q-6.9 -38.5 -7.2 -38.75 L-7.45 -39.4 -7.2 -40.05 -6.55 -40.3 6.6 -40.3 7.25 -40.05 M7.25 -27.2 L7.5 -26.55 7.25 -25.9 Q7.0 -25.65 6.6 -25.65 L-6.55 -25.65 Q-6.9 -25.65 -7.2 -25.9 L-7.45 -26.55 -7.2 -27.2 -6.55 -27.45 6.6 -27.45 7.25 -27.2 M7.35 -12.4 L7.8 -11.85 7.65 -11.2 Q7.45 -10.75 6.9 -10.75 L6.45 -10.85 Q3.55 -12.55 0.1 -12.55 -3.35 -12.55 -6.3 -10.85 L-6.95 -10.75 -7.5 -11.2 -7.6 -11.85 -7.2 -12.4 Q-3.9 -14.4 0.1 -14.4 4.05 -14.4 7.35 -12.4 M0.65 -1.25 L5.75 3.8 6.0 4.45 5.75 5.1 5.1 5.35 4.45 5.1 0.05 0.65 -4.45 5.1 -5.1 5.35 -5.7 5.1 -5.95 4.45 -5.7 3.8 -0.65 -1.25 0.0 -1.5 0.05 -1.5 0.65 -1.25 M10.7 -6.5 Q10.5 -6.85 10.6 -7.2 L11.0 -7.75 Q11.8 -8.2 12.25 -7.45 14.25 -4.05 14.25 -0.15 14.25 3.7 12.25 7.1 L11.5 7.55 11.0 7.45 10.6 6.9 Q10.5 6.55 10.7 6.2 12.45 3.25 12.45 -0.15 12.45 -3.6 10.7 -6.5 M27.25 -8.75 L27.5 -8.1 27.5 5.05 27.25 5.7 26.6 5.95 26.0 5.7 25.75 5.05 25.75 -8.1 26.0 -8.75 26.6 -9.0 27.25 -8.75 M40.4 -8.1 L40.4 5.05 40.15 5.7 39.5 5.95 38.85 5.7 38.6 5.05 38.6 -8.1 38.85 -8.75 39.5 -9.0 40.15 -8.75 40.4 -8.1 M52.65 -41.65 Q53.05 -41.6 53.25 -41.3 59.95 -32.5 63.45 -22.15 66.9 -11.85 66.9 -0.8 66.9 7.35 64.95 15.3 64.8 15.95 64.1 15.95 L63.85 15.95 Q63.05 15.7 63.2 14.85 65.1 7.4 65.1 -0.8 65.1 -11.55 61.7 -21.6 58.3 -31.65 51.8 -40.2 L51.65 -40.85 52.0 -41.45 52.65 -41.65 M52.4 -9.0 L53.05 -8.75 53.3 -8.1 53.3 5.05 53.05 5.7 52.4 5.95 51.75 5.7 Q51.5 5.45 51.5 5.05 L51.5 -8.1 51.75 -8.75 52.4 -9.0 M79.05 -8.1 L79.05 5.05 78.8 5.7 78.15 5.95 77.5 5.7 Q77.25 5.45 77.25 5.05 L77.25 -8.1 77.5 -8.75 78.15 -9.0 78.8 -8.75 79.05 -8.1 M91.7 -8.75 L91.95 -8.1 91.95 5.05 91.7 5.7 91.05 5.95 90.4 5.7 Q90.15 5.45 90.15 5.05 L90.15 -8.1 90.4 -8.75 91.05 -9.0 91.7 -8.75 M116.15 -8.75 L116.8 -9.0 117.45 -8.75 117.7 -8.1 117.7 5.05 117.45 5.7 116.8 5.95 116.15 5.7 Q115.9 5.45 115.9 5.05 L115.9 -8.1 116.15 -8.75 M103.9 -9.0 L104.55 -8.75 104.8 -8.1 104.8 5.05 104.55 5.7 103.9 5.95 103.25 5.7 Q103.0 5.45 103.0 5.05 L103.0 -8.1 103.25 -8.75 103.9 -9.0 M124.55 -41.55 L125.0 -41.05 Q131.3 -21.55 131.3 -0.8 131.3 19.85 125.05 39.35 124.9 39.95 124.2 39.95 L123.95 39.9 Q123.6 39.8 123.4 39.45 L123.35 38.8 Q129.55 19.45 129.55 -0.8 129.55 -21.2 123.3 -40.5 L123.35 -41.2 123.9 -41.65 124.55 -41.55 M154.8 -8.75 L155.45 -9.0 156.1 -8.75 156.35 -8.1 156.35 5.05 156.1 5.7 155.45 5.95 154.8 5.7 Q154.55 5.45 154.55 5.05 L154.55 -8.1 154.8 -8.75 M143.45 -8.1 L143.45 5.05 143.2 5.7 142.55 5.95 141.9 5.7 Q141.65 5.45 141.65 5.05 L141.65 -8.1 141.9 -8.75 142.55 -9.0 143.2 -8.75 143.45 -8.1 M117.95 54.95 L118.4 55.45 118.4 56.1 Q109.05 75.5 93.85 91.0 L93.4 91.5 100.3 98.45 115.75 114.55 99.7 99.1 92.65 92.2 Q77.9 106.95 59.5 116.3 L59.05 116.4 Q58.55 116.4 58.25 115.9 57.9 115.1 58.65 114.7 76.8 105.45 91.4 90.95 L83.35 83.1 46.95 46.85 Q40.85 52.9 33.3 57.2 L32.85 57.35 Q32.35 57.35 32.1 56.9 31.9 56.55 32.0 56.2 32.1 55.85 32.4 55.65 39.7 51.5 45.7 45.6 L14.25 14.25 14.0 13.65 Q14.0 13.25 14.25 13.0 14.5 12.75 14.9 12.75 L15.5 13.0 46.8 44.55 Q52.95 38.2 57.15 30.45 57.3 30.1 57.65 30.0 L58.35 30.1 58.8 30.65 58.7 31.3 Q54.35 39.25 48.05 45.8 L92.1 90.2 92.55 89.75 Q107.55 74.45 116.75 55.35 117.2 54.55 117.95 54.95 M7.35 12.1 Q3.95 14.1 0.1 14.1 -3.8 14.1 -7.2 12.1 L-7.6 11.55 -7.5 10.85 -6.95 10.45 -6.3 10.55 Q-3.35 12.3 0.1 12.3 3.55 12.3 6.45 10.55 L7.1 10.45 Q7.45 10.55 7.65 10.85 L7.8 11.55 7.35 12.1 M7.5 38.3 L7.25 38.9 6.6 39.2 -6.55 39.2 -7.2 38.9 -7.45 38.3 -7.2 37.65 Q-6.9 37.4 -6.55 37.4 L6.6 37.4 Q7.0 37.4 7.25 37.65 L7.5 38.3 M7.25 26.05 L6.6 26.3 -6.55 26.3 -7.2 26.05 -7.45 25.4 -7.2 24.75 Q-6.9 24.5 -6.55 24.5 L6.6 24.5 Q7.0 24.5 7.25 24.75 L7.5 25.4 7.25 26.05 M7.5 51.15 L7.25 51.8 6.6 52.05 -6.55 52.05 -7.2 51.8 -7.45 51.15 -7.2 50.5 Q-6.9 50.25 -6.55 50.25 L6.6 50.25 Q7.0 50.25 7.25 50.5 L7.5 51.15 M18.25 62.65 L18.2 63.3 17.65 63.75 Q8.95 66.1 0.0 66.1 -8.9 66.1 -17.6 63.75 -18.45 63.5 -18.25 62.65 -18.0 61.8 -17.15 62.0 0.0 66.65 17.15 62.0 18.1 61.8 18.25 62.65 M7.25 89.15 L7.5 89.8 7.25 90.45 6.6 90.7 -6.55 90.7 -7.2 90.45 -7.45 89.8 -7.2 89.15 Q-6.9 88.9 -6.55 88.9 L6.6 88.9 Q7.0 88.9 7.25 89.15 M7.5 76.9 L7.25 77.55 6.6 77.8 -6.55 77.8 -7.2 77.55 -7.45 76.9 -7.2 76.3 Q-6.9 76.05 -6.55 76.05 L6.6 76.05 7.25 76.3 7.5 76.9 M43.4 122.25 L43.35 122.9 42.85 123.35 Q22.15 130.5 0.0 130.5 -20.75 130.5 -40.0 124.3 L-40.5 123.85 -40.55 123.2 -40.1 122.65 -39.45 122.6 Q-20.25 128.7 0.0 128.7 21.9 128.7 42.25 121.65 L42.95 121.7 43.4 122.25 M7.25 103.35 L6.6 103.6 -6.55 103.6 -7.2 103.35 -7.45 102.7 -7.2 102.05 Q-6.9 101.8 -6.55 101.8 L6.6 101.8 Q7.0 101.8 7.25 102.05 L7.5 102.7 7.25 103.35 M7.5 115.55 L7.25 116.2 6.6 116.45 -6.55 116.45 -7.2 116.2 -7.45 115.55 -7.2 114.9 Q-6.9 114.65 -6.55 114.65 L6.6 114.65 Q7.0 114.65 7.25 114.9 L7.5 115.55 M7.25 140.7 L7.5 141.35 7.25 142.0 6.6 142.25 -6.55 142.25 -7.2 142.0 -7.45 141.35 -7.2 140.7 Q-6.9 140.45 -6.55 140.45 L6.6 140.45 Q7.0 140.45 7.25 140.7 M7.25 154.85 L6.6 155.1 -6.55 155.1 -7.2 154.85 -7.45 154.2 -7.2 153.55 Q-6.9 153.3 -6.55 153.3 L6.6 153.3 Q7.0 153.3 7.25 153.55 L7.5 154.2 7.25 154.85 M-53.35 -119.8 Q-53.0 -119.0 -53.8 -118.65 -74.65 -109.1 -91.0 -92.95 -107.35 -76.75 -117.15 -56.05 -117.4 -55.5 -118.0 -55.5 L-118.35 -55.6 -118.8 -56.1 -118.8 -56.8 Q-108.85 -77.85 -92.3 -94.2 -75.7 -110.55 -54.55 -120.25 L-53.85 -120.25 -53.35 -119.8 M-123.65 -39.4 Q-129.5 -20.7 -129.5 -0.8 -129.5 19.0 -123.7 37.7 -123.45 38.6 -124.3 38.85 L-124.55 38.9 Q-125.25 38.9 -125.4 38.25 -131.3 19.2 -131.3 -0.8 -131.3 -20.9 -125.35 -39.95 L-124.9 -40.5 -124.25 -40.55 Q-123.4 -40.3 -123.65 -39.4 M-142.55 -9.0 Q-142.15 -9.0 -141.9 -8.75 L-141.65 -8.1 -141.65 5.05 Q-141.65 5.45 -141.9 5.7 -142.15 5.95 -142.55 5.95 L-143.2 5.7 -143.45 5.05 -143.45 -8.1 -143.2 -8.75 -142.55 -9.0 M-156.05 -8.75 L-155.45 -9.0 Q-155.05 -9.0 -154.8 -8.75 L-154.55 -8.1 -154.55 5.05 Q-154.55 5.45 -154.8 5.7 -155.05 5.95 -155.45 5.95 L-156.05 5.7 -156.3 5.05 -156.3 -8.1 -156.05 -8.75 M-103.25 -8.75 L-103.0 -8.1 -103.0 5.05 Q-103.0 5.45 -103.25 5.7 L-103.9 5.95 -104.55 5.7 -104.8 5.05 -104.8 -8.1 -104.55 -8.75 -103.9 -9.0 -103.25 -8.75 M-116.8 -9.0 L-116.15 -8.75 -115.9 -8.1 -115.9 5.05 Q-115.9 5.45 -116.15 5.7 L-116.8 5.95 -117.4 5.7 -117.7 5.05 -117.7 -8.1 -117.4 -8.75 -116.8 -9.0 M-90.1 -8.1 L-90.1 5.05 -90.35 5.7 -91.0 5.95 -91.65 5.7 -91.9 5.05 -91.9 -8.1 -91.65 -8.75 -91.0 -9.0 -90.35 -8.75 -90.1 -8.1 M-51.8 -40.2 Q-58.3 -31.65 -61.7 -21.6 -65.1 -11.55 -65.1 -0.8 -65.1 8.0 -62.65 16.9 L-62.7 17.55 -63.25 18.0 -63.5 18.05 Q-64.15 18.05 -64.35 17.4 -66.9 8.5 -66.9 -0.8 -66.9 -11.85 -63.4 -22.15 -59.9 -32.5 -53.2 -41.3 L-52.6 -41.65 -51.95 -41.45 Q-51.25 -40.95 -51.8 -40.2 M-77.5 -8.75 L-77.25 -8.1 -77.25 5.05 Q-77.25 5.45 -77.5 5.7 L-78.15 5.95 -78.8 5.7 -79.05 5.05 -79.05 -8.1 -78.8 -8.75 -78.15 -9.0 -77.5 -8.75 M-52.35 -9.0 L-51.7 -8.75 -51.45 -8.1 -51.45 5.05 -51.7 5.7 -52.35 5.95 -53.0 5.7 -53.25 5.05 -53.25 -8.1 -53.0 -8.75 -52.35 -9.0 M-25.7 -8.1 L-25.7 5.05 -25.95 5.7 -26.6 5.95 -27.25 5.7 -27.5 5.05 -27.5 -8.1 -27.25 -8.75 -26.6 -9.0 -25.95 -8.75 -25.7 -8.1 M-40.15 -8.75 L-39.5 -9.0 -38.85 -8.75 -38.6 -8.1 -38.6 5.05 -38.85 5.7 -39.5 5.95 -40.15 5.7 -40.4 5.05 -40.4 -8.1 -40.15 -8.75 M-10.6 -7.2 Q-10.5 -6.85 -10.7 -6.5 -12.45 -3.6 -12.45 -0.15 -12.45 3.25 -10.7 6.2 -10.5 6.55 -10.6 6.9 L-11.0 7.45 -11.45 7.55 Q-11.95 7.55 -12.25 7.1 -14.25 3.7 -14.25 -0.15 -14.25 -4.05 -12.25 -7.45 -11.8 -8.2 -11.0 -7.75 L-10.6 -7.2 M-14.2 13.0 Q-13.95 13.25 -13.95 13.65 -13.95 14.0 -14.2 14.25 L-45.75 45.6 Q-39.85 51.4 -32.4 55.65 -31.6 56.1 -32.05 56.9 -32.35 57.35 -32.85 57.35 L-33.3 57.2 Q-40.9 52.85 -47.0 46.85 L-91.4 90.95 Q-75.8 106.5 -56.0 116.0 -55.2 116.45 -55.6 117.2 -55.8 117.7 -56.4 117.7 L-56.8 117.65 Q-76.85 108.0 -92.7 92.2 L-99.65 99.1 -115.75 114.55 -100.3 98.45 -93.4 91.5 Q-109.25 75.4 -118.85 55.1 L-118.85 54.4 -118.4 53.9 Q-117.6 53.55 -117.2 54.3 -107.75 74.35 -92.1 90.25 L-48.0 45.8 Q-53.5 40.15 -57.65 33.15 L-57.75 32.45 -57.35 31.9 Q-56.55 31.45 -56.1 32.2 -52.1 39.05 -46.8 44.55 L-15.5 13.0 Q-15.25 12.75 -14.85 12.75 L-14.2 13.0" fill="#c5b298" fill-rule="evenodd" stroke="none"/>
  </g>
</svg>
