<?xml version="1.0" encoding="UTF-8" standalone="no"?>
<svg xmlns:ffdec="https://www.free-decompiler.com/flash" xmlns:xlink="http://www.w3.org/1999/xlink" ffdec:objectType="shape" height="1299.3px" width="1728.6px" xmlns="http://www.w3.org/2000/svg">
  <g transform="matrix(1.0, 0.0, 0.0, 1.0, 865.85, 662.75)">
    <path d="M641.1 -651.7 L649.35 -645.5 861.95 -369.5 862.75 -365.6 861.0 -361.75 779.1 -277.35 676.7 -139.95 613.95 24.7 583.5 184.75 579.9 416.5 588.7 541.95 587.75 546.1 583.25 547.85 270.55 582.0 135.05 618.1 32.65 636.55 -81.9 634.55 -201.85 609.7 -352.1 562.5 -455.25 521.25 -670.1 382.35 -794.85 309.7 -864.25 274.45 -865.85 271.45 -863.9 267.3 -687.7 153.55 92.15 -211.45 205.2 -291.7 332.45 -432.7 447.1 -593.8 489.4 -638.2 537.15 -657.15 579.45 -662.75 630.05 -655.25 641.1 -651.7" fill="#ff0000" fill-rule="evenodd" stroke="none"/>
  </g>
</svg>
