<?xml version="1.0" encoding="UTF-8" standalone="no"?>
<svg xmlns:ffdec="https://www.free-decompiler.com/flash" xmlns:xlink="http://www.w3.org/1999/xlink" ffdec:objectType="shape" height="416.0px" width="631.0px" xmlns="http://www.w3.org/2000/svg">
  <g transform="matrix(1.0, 0.0, 0.0, 1.0, 445.95, 257.3)">
    <path d="M185.05 158.7 L-445.95 158.7 -445.95 -257.3 185.05 -257.3 185.05 158.7" fill="#434343" fill-rule="evenodd" stroke="none"/>
    <path d="M0.2 83.1 L0.2 40.65 -19.35 40.65 -19.35 83.1 0.2 83.1 M-282.0 -247.35 L-123.6 -247.35 -123.6 -192.0 -113.35 -192.0 -113.35 -157.0 -123.7 -157.0 -123.7 -126.7 -197.35 -126.7 -197.35 -138.0 -201.0 -138.0 -201.0 -124.35 -206.35 -124.35 -206.35 -121.7 -201.7 -121.7 -201.7 -69.35 -168.25 -69.35 -168.25 -114.65 110.0 -114.65 110.0 -129.15 177.55 -129.15 177.55 148.4 1.1 148.4 1.1 144.0 -198.0 144.0 -198.0 60.0 -242.0 60.0 -242.0 134.65 -255.0 134.65 -255.0 148.3 -345.0 148.3 -345.0 90.0 -322.0 90.0 -322.0 -41.0 -241.35 -41.0 -241.35 -69.35 -238.7 -69.35 -238.7 -121.7 -233.0 -121.7 -233.0 -124.35 -238.35 -124.35 -238.35 -131.35 -282.0 -131.35 -282.0 -247.35" fill="#969696" fill-rule="evenodd" stroke="none"/>
    <path d="M-367.7 -1.35 L-367.7 5.0 -348.25 5.0 -348.25 149.65 -418.7 149.65 -418.7 63.65 -420.35 63.65 -420.35 60.0 -422.7 60.0 -422.7 35.0 -420.35 35.0 -420.35 31.65 -418.7 31.65 -418.7 5.0 -399.7 5.0 -399.7 -1.35 -367.7 -1.35" fill="#707070" fill-rule="evenodd" stroke="none"/>
    <path d="M33.3 28.3 L33.3 3.65 124.3 3.65 124.3 94.0 99.3 94.0 99.3 28.3 33.3 28.3" fill="#707070" fill-rule="evenodd" stroke="none"/>
    <path d="M60.0 39.65 L83.65 39.65 83.65 87.65 60.0 87.65 60.0 39.65" fill="#707070" fill-rule="evenodd" stroke="none"/>
    <path d="M14.65 148.4 L14.65 134.2 126.65 134.2 126.65 148.4 14.65 148.4" fill="#707070" fill-rule="evenodd" stroke="none"/>
    <path d="M-159.0 97.0 L-159.0 67.0 -77.35 67.0 -77.35 97.0 -159.0 97.0" fill="#707070" fill-rule="evenodd" stroke="none"/>
    <path d="M-307.0 -28.25 L-307.0 -41.0 -254.0 -41.0 -254.0 -28.25 -307.0 -28.25" fill="#707070" fill-rule="evenodd" stroke="none"/>
    <path d="M-319.0 146.85 L-319.0 136.65 -282.45 136.65 -282.45 146.85 -319.0 146.85" fill="#707070" fill-rule="evenodd" stroke="none"/>
    <path d="M-197.7 143.65 L-197.7 122.65 -46.35 122.65 -46.35 143.65 -197.7 143.65" fill="#707070" fill-rule="evenodd" stroke="none"/>
    <path d="M57.65 43.0 L58.95 62.0 39.35 63.3 38.05 44.3 57.65 43.0" fill="#707070" fill-rule="evenodd" stroke="none"/>
    <path d="M146.3 128.9 L162.0 108.3 175.95 118.95 160.25 139.55 146.3 128.9" fill="#707070" fill-rule="evenodd" stroke="none"/>
    <path d="M129.2 146.65 L129.2 139.1 136.4 139.1 136.4 146.65 129.2 146.65" fill="#707070" fill-rule="evenodd" stroke="none"/>
    <path d="M6.1 146.65 L6.1 139.1 13.3 139.1 13.3 146.65 6.1 146.65" fill="#707070" fill-rule="evenodd" stroke="none"/>
    <path d="M-12.0 83.1 L-5.7 83.1 -5.7 144.3 -12.0 144.3 -12.0 83.1" fill="#707070" fill-rule="evenodd" stroke="none"/>
    <path d="M162.4 -129.15 L162.4 -119.15 119.65 -119.15 119.65 -129.15 162.4 -129.15" fill="#707070" fill-rule="evenodd" stroke="none"/>
    <path d="M-52.15 -108.6 L-47.6 -104.05 -52.25 -99.4 -56.8 -103.95 -52.15 -108.6" fill="#707070" fill-rule="evenodd" stroke="none"/>
    <path d="M-133.4 -104.5 L-138.05 -99.85 -142.6 -104.4 -137.95 -109.05 -133.4 -104.5" fill="#707070" fill-rule="evenodd" stroke="none"/>
    <path d="M-311.3 -32.15 L-306.75 -27.6 -311.35 -23.0 -315.9 -27.55 -311.3 -32.15" fill="#707070" fill-rule="evenodd" stroke="none"/>
    <path d="M-120.2 -102.95 L-120.2 -112.65 -77.25 -112.65 -77.25 -102.95 -120.2 -102.95" fill="#707070" fill-rule="evenodd" stroke="none"/>
    <path d="M-150.45 -13.8 L-84.7 -13.8 -84.7 14.4 -150.45 14.4 -150.45 -13.8" fill="#707070" fill-rule="evenodd" stroke="none"/>
    <path d="M153.35 -26.5 L154.5 -30.95 172.45 -26.25 171.3 -21.8 153.35 -26.5" fill="#707070" fill-rule="evenodd" stroke="none"/>
    <path d="M-123.7 -147.8 L-123.7 -126.7 -197.35 -126.7 -197.35 -139.35 -148.0 -139.35 -148.0 -147.8 -123.7 -147.8" fill="#707070" fill-rule="evenodd" stroke="none"/>
    <path d="M-126.25 -192.0 L-113.35 -192.0 -113.35 -157.0 -126.25 -157.0 -126.25 -192.0" fill="#707070" fill-rule="evenodd" stroke="none"/>
    <path d="M-137.8 -240.9 L-123.6 -240.9 -123.6 -204.45 -137.8 -204.45 -137.8 -240.9" fill="#707070" fill-rule="evenodd" stroke="none"/>
    <path d="M-236.25 -247.35 L-236.25 -227.6 -261.35 -227.6 -261.35 -131.35 -282.0 -131.35 -282.0 -247.35 -236.25 -247.35" fill="#707070" fill-rule="evenodd" stroke="none"/>
    <path d="M-138.5 -198.15 L-136.75 -197.6 -135.6 -196.25 -135.2 -194.5 -135.8 -192.75 -137.15 -191.6 -138.9 -191.2 -140.6 -191.8 -141.8 -193.15 -142.15 -194.9 -141.6 -196.6 -140.25 -197.8 -138.5 -198.15" fill="#707070" fill-rule="evenodd" stroke="none"/>
    <path d="M2.3 -109.3 L4.9 -107.7 6.95 -105.6 8.3 -103.1 8.95 -100.4 8.8 -97.6 7.85 -94.95 6.15 -92.6 3.85 -90.7 1.1 -89.3 -1.95 -88.6 -5.15 -88.55 -8.2 -89.2 -11.0 -90.5 -13.35 -92.35 -15.05 -94.7 -16.1 -97.3 -16.3 -100.1 -15.75 -102.8 -14.45 -105.35 -12.45 -107.5 -9.9 -109.15 -6.95 -110.2 -3.8 -110.6 -0.65 -110.3 2.3 -109.3" fill="#707070" fill-rule="evenodd" stroke="none"/>
    <path d="M-349.8 135.75 L-349.8 102.85 -344.25 102.85 -344.25 135.75 -349.8 135.75" fill="#ffffff" fill-rule="evenodd" stroke="none"/>
    <path d="M4.65 -59.35 L4.65 -114.65 98.4 -114.65 98.4 -59.35 4.65 -59.35" fill="#ffffff" fill-rule="evenodd" stroke="none"/>
  </g>
</svg>
