<?xml version="1.0" encoding="UTF-8" standalone="no"?>
<svg xmlns:ffdec="https://www.free-decompiler.com/flash" xmlns:xlink="http://www.w3.org/1999/xlink" ffdec:objectType="shape" height="123.6px" width="123.8px" xmlns="http://www.w3.org/2000/svg">
  <g transform="matrix(1.0, 0.0, 0.0, 1.0, 62.0, 62.0)">
    <path d="M8.9 -61.4 L9.5 -61.25 10.2 -61.2 15.25 -60.1 25.05 -56.7 27.4 -55.6 27.95 -55.25 28.55 -55.0 29.1 -54.65 29.7 -54.4 35.2 -51.0 43.15 -44.4 49.1 -37.65 50.25 -36.0 50.7 -35.55 55.0 -28.25 55.35 -27.75 59.5 -16.85 60.9 -10.55 61.75 -2.85 61.8 -0.2 61.15 8.8 59.85 15.1 56.95 23.7 55.35 27.25 50.7 35.1 50.25 35.55 49.95 36.1 42.7 44.4 35.2 50.55 27.4 55.15 16.45 59.3 8.9 60.95 2.45 61.55 0.45 61.55 -0.15 61.6 -9.25 60.95 -21.75 57.7 -27.75 55.15 -28.25 54.8 -35.55 50.55 -36.0 50.15 -36.55 49.8 -41.15 46.15 -46.65 40.6 -50.25 36.1 -50.6 35.55 -51.0 35.1 -54.45 29.55 -54.7 28.95 -55.05 28.4 -55.3 27.8 -55.65 27.25 -57.3 23.7 -60.2 15.1 -61.25 10.05 -61.3 9.4 -61.45 8.8 -62.0 3.65 -61.45 -9.25 -61.3 -9.85 -61.25 -10.55 -59.85 -16.85 -55.65 -27.75 -55.3 -28.25 -55.05 -28.9 -54.7 -29.4 -54.45 -30.0 -51.0 -35.55 -50.6 -36.0 -49.45 -37.65 -44.9 -43.0 -35.55 -51.0 -30.0 -54.4 -29.4 -54.65 -28.85 -55.0 -28.25 -55.25 -27.75 -55.6 -24.15 -57.2 -15.55 -60.1 -10.5 -61.2 -9.85 -61.25 -9.25 -61.4 -0.2 -62.0 -0.15 -59.7 -0.15 -62.0 8.9 -61.4" fill="#373535" fill-rule="evenodd" stroke="none"/>
  </g>
</svg>
