<?xml version="1.0" encoding="UTF-8" standalone="no"?>
<svg xmlns:ffdec="https://www.free-decompiler.com/flash" xmlns:xlink="http://www.w3.org/1999/xlink" ffdec:objectType="shape" height="12.7px" width="22.2px" xmlns="http://www.w3.org/2000/svg">
  <g transform="matrix(1.0, 0.0, 0.0, 1.0, 22.15, 46.0)">
    <path d="M0.0 -46.0 L0.05 -38.0 -1.55 -38.0 -1.95 -37.95 -2.35 -37.95 -2.75 -37.9 -3.15 -37.9 -4.35 -37.75 -4.75 -37.75 -6.3 -37.5 -6.7 -37.4 -7.5 -37.3 -11.35 -36.3 -11.7 -36.15 -12.1 -36.05 -12.45 -35.9 -12.85 -35.8 -15.8 -34.6 -16.85 -34.05 -17.25 -33.9 -18.3 -33.3 -22.15 -40.35 -21.7 -40.55 -21.3 -40.8 -20.85 -41.0 -20.45 -41.25 -17.8 -42.45 -11.4 -44.6 -7.65 -45.4 -7.15 -45.45 -6.7 -45.55 -1.9 -46.0 0.0 -46.0" fill="#ffffff" fill-rule="evenodd" stroke="none"/>
  </g>
</svg>
