<?xml version="1.0" encoding="UTF-8" standalone="no"?>
<svg xmlns:ffdec="https://www.free-decompiler.com/flash" xmlns:xlink="http://www.w3.org/1999/xlink" ffdec:objectType="shape" height="124.0px" width="124.0px" xmlns="http://www.w3.org/2000/svg">
  <g transform="matrix(1.0, 0.0, 0.0, 1.0, 62.0, 62.0)">
    <path d="M10.1 -50.25 L6.9 -50.75 6.35 -50.9 -2.2 -51.2 -5.95 -50.9 -6.5 -50.9 -8.6 -50.55 -9.15 -50.4 -10.2 -50.25 -15.4 -48.95 -15.9 -48.7 -16.4 -48.6 -21.4 -46.65 -22.8 -45.9 -23.35 -45.7 -29.75 -41.8 -30.15 -41.45 -30.65 -41.2 -36.3 -36.25 -36.65 -35.85 -37.05 -35.5 -41.25 -30.6 -41.5 -30.1 -41.85 -29.7 -45.75 -23.3 -48.3 -17.4 -48.45 -16.85 -48.65 -16.4 -49.45 -13.8 -50.95 -6.45 -50.95 -5.95 -51.2 -2.7 -51.3 -2.15 -51.3 2.1 -51.2 2.65 -50.95 5.85 -50.95 6.4 -50.2 10.65 -50.05 11.1 -49.85 12.2 -49.0 15.3 -48.8 15.75 -48.3 17.3 -45.75 23.25 -42.8 28.3 -41.85 29.65 -41.5 30.05 -41.25 30.55 -37.05 35.45 -36.65 35.8 -36.3 36.2 -30.65 41.1 -25.25 44.6 -17.45 48.2 -16.9 48.3 -16.4 48.5 -12.3 49.75 -11.75 49.8 -10.2 50.2 -6.5 50.8 -5.95 50.8 -4.35 51.0 -3.8 51.0 -3.25 51.1 -0.55 51.15 -0.05 51.2 0.45 51.15 3.15 51.1 3.7 51.0 4.2 51.0 5.85 50.8 6.35 50.8 10.1 50.2 11.65 49.8 12.15 49.75 16.3 48.5 16.75 48.3 17.3 48.2 23.25 45.6 30.5 41.1 36.2 36.2 36.5 35.8 37.3 35.05 41.1 30.55 44.6 25.15 44.8 24.65 45.6 23.25 48.2 17.3 48.3 16.8 48.65 15.75 48.85 15.3 50.8 6.4 50.8 5.85 51.0 4.25 51.0 3.7 51.1 3.15 51.15 0.45 51.2 0.0 51.1 -3.25 51.0 -3.75 51.0 -4.3 50.8 -5.95 50.8 -6.45 50.65 -7.0 49.75 -12.25 48.5 -16.4 48.3 -16.85 48.2 -17.4 44.6 -25.2 41.1 -30.6 37.3 -35.1 36.5 -35.85 36.2 -36.25 35.75 -36.6 35.05 -37.4 30.5 -41.2 30.05 -41.45 29.65 -41.8 23.25 -45.7 17.3 -48.25 16.75 -48.4 16.3 -48.6 15.75 -48.7 15.25 -48.95 12.15 -49.8 11.65 -49.85 10.1 -50.25 M9.0 -61.4 L9.6 -61.25 10.3 -61.2 15.35 -60.1 25.2 -56.7 27.55 -55.6 28.1 -55.25 28.7 -55.0 29.25 -54.65 29.85 -54.4 35.35 -50.95 43.3 -44.35 49.3 -37.55 50.45 -35.9 50.9 -35.45 55.2 -28.15 55.55 -27.65 59.7 -16.7 61.1 -10.4 61.95 -2.65 62.0 0.0 61.35 9.05 60.05 15.35 57.15 24.0 55.55 27.55 50.9 35.4 50.45 35.85 50.15 36.4 42.85 44.75 35.35 50.9 27.55 55.55 16.6 59.7 9.0 61.35 2.55 61.95 0.55 61.95 -0.05 62.0 -9.15 61.35 -21.7 58.1 -27.7 55.55 -28.2 55.2 -35.5 50.9 -35.95 50.5 -36.5 50.15 -41.1 46.5 -46.65 40.95 -50.25 36.4 -50.6 35.85 -51.0 35.4 -54.45 29.85 -54.7 29.25 -55.05 28.7 -55.3 28.1 -55.65 27.55 -57.3 24.0 -60.2 15.35 -61.25 10.3 -61.3 9.65 -61.45 9.05 -62.0 3.85 -61.45 -9.1 -61.3 -9.7 -61.25 -10.4 -59.85 -16.7 -55.65 -27.65 -55.3 -28.15 -55.05 -28.8 -54.7 -29.3 -54.45 -29.9 -51.0 -35.45 -50.6 -35.9 -49.45 -37.55 -44.85 -42.95 -35.5 -50.95 -29.95 -54.4 -29.35 -54.65 Q-29.05 -54.8 -28.8 -55.0 L-28.2 -55.25 -27.7 -55.6 -24.1 -57.2 -15.45 -60.1 -10.4 -61.2 -9.75 -61.25 -9.15 -61.4 -0.1 -62.0 -0.05 -59.7 -0.05 -62.0 9.0 -61.4" fill="#ffffff" fill-rule="evenodd" stroke="none"/>
  </g>
</svg>
