<?xml version="1.0" encoding="UTF-8" standalone="no"?>
<svg xmlns:ffdec="https://www.free-decompiler.com/flash" xmlns:xlink="http://www.w3.org/1999/xlink" ffdec:objectType="shape" height="840.0px" width="866.0px" xmlns="http://www.w3.org/2000/svg">
  <g transform="matrix(1.0, 0.0, 0.0, 1.0, 0.0, 2.05)">
    <path d="M10.0 22.05 L10.0 20.95 Q10.0 16.7 12.75 12.7 15.95 7.95 20.9 7.95 L31.85 7.95 836.65 7.95 845.1 7.95 Q850.1 7.95 853.25 11.7 856.0 14.95 856.0 18.95 L856.0 22.05 856.0 819.7 856.0 820.95 Q856.0 827.95 845.1 827.95 L836.65 827.95 31.85 827.95 20.9 827.95 Q10.0 827.95 10.0 820.95 L10.0 819.7 10.0 22.05" fill="#ffffff" fill-rule="evenodd" stroke="none"/>
    <path d="M4.5 7.05 L4.45 7.15 Q7.65 2.4 11.4 0.3 15.15 -1.8 20.9 -2.05 L31.85 -2.05 836.65 -2.05 845.1 -2.05 Q854.75 -2.0 860.9 5.25 L860.9 5.3 Q866.05 11.4 866.0 18.95 L866.0 22.05 866.0 819.7 866.0 820.95 Q866.1 829.65 861.25 833.75 856.25 837.95 845.1 837.95 L836.65 837.95 31.85 837.95 20.9 837.95 Q9.75 837.95 4.9 833.8 0.2 829.85 0.0 820.95 L0.0 819.7 0.0 22.05 0.0 20.95 Q-0.1 13.75 4.5 7.05 M10.0 22.05 L10.0 819.7 10.0 820.95 Q10.0 827.95 20.9 827.95 L31.85 827.95 836.65 827.95 845.1 827.95 Q856.0 827.95 856.0 820.95 L856.0 819.7 856.0 22.05 856.0 18.95 Q856.0 14.95 853.25 11.7 850.1 7.95 845.1 7.95 L836.65 7.95 31.85 7.95 20.9 7.95 Q15.95 7.95 12.75 12.7 10.0 16.7 10.0 20.95 L10.0 22.05" fill="#ffffff" fill-opacity="0.2" fill-rule="evenodd" stroke="none"/>
  </g>
</svg>
