<?xml version="1.0" encoding="UTF-8" standalone="no"?>
<svg xmlns:ffdec="https://www.free-decompiler.com/flash" xmlns:xlink="http://www.w3.org/1999/xlink" ffdec:objectType="shape" height="1186.0px" width="1291.55px" xmlns="http://www.w3.org/2000/svg">
  <g transform="matrix(1.0, 0.0, 0.0, 1.0, 538.1, 864.95)">
    <path d="M240.9 -503.45 L240.9 -299.45 106.4 -299.45 106.4 300.55 -221.6 300.55 -221.6 302.05 -227.6 302.05 -227.6 295.55 -228.1 295.55 -228.1 -164.95 -330.1 -164.95 -330.1 -633.45 107.9 -633.45 107.9 -503.45 240.9 -503.45" fill="#424242" fill-rule="evenodd" stroke="none"/>
    <path d="M-294.6 204.55 L-296.6 194.05 Q-294.6 189.55 -293.1 184.55 L-285.1 177.55 -274.6 175.55 -265.1 179.05 -258.1 187.05 Q-257.1 192.55 -256.6 197.55 -258.1 202.55 -260.1 207.05 L-267.6 214.05 -278.1 215.55 -287.6 212.05 -294.6 204.55" fill="#424242" fill-rule="evenodd" stroke="none"/>
    <path d="M-295.1 153.05 L-297.1 142.55 Q-295.1 138.05 -293.6 133.05 L-285.6 126.05 -275.1 124.05 -265.6 127.55 -258.6 135.55 Q-257.6 141.05 -257.1 146.05 -258.6 151.05 -260.6 155.55 L-268.1 162.55 -278.6 164.05 -288.1 160.55 -295.1 153.05" fill="#424242" fill-rule="evenodd" stroke="none"/>
    <path d="M753.45 -416.95 L753.45 -223.95 332.4 -223.95 332.4 -416.95 753.45 -416.95" fill="#424242" fill-rule="evenodd" stroke="none"/>
    <path d="M-415.1 -347.95 L-415.1 -373.95 -410.1 -373.95 -410.1 183.05 -411.6 183.05 -411.6 184.05 -538.1 184.05 -538.1 -364.95 -529.1 -364.95 -529.1 -347.95 -415.1 -347.95" fill="#424242" fill-rule="evenodd" stroke="none"/>
    <path d="M-107.6 -864.95 L-107.6 -854.95 -68.1 -854.95 -68.1 -822.45 -58.1 -822.45 -58.1 -802.95 -68.1 -802.95 -68.1 -798.95 -92.1 -798.95 -92.1 -791.95 -113.1 -791.95 -113.1 -798.95 -131.6 -798.95 -131.6 -791.95 -152.6 -791.95 -152.6 -798.95 -192.6 -798.95 -192.6 -854.95 -138.1 -854.95 -138.1 -864.95 -107.6 -864.95" fill="#424242" fill-rule="evenodd" stroke="none"/>
    <path d="M-395.6 313.05 Q-395.1 296.55 -395.1 279.55 -367.6 280.55 -340.1 281.05 L-340.1 276.05 -335.1 276.05 -335.1 281.05 -332.1 281.05 Q-331.1 286.55 -330.6 291.55 -330.6 299.05 -331.1 306.05 L-333.1 314.55 -336.1 314.55 -336.1 319.05 -341.1 318.55 -341.1 314.55 -375.6 313.55 -375.6 321.05 Q-384.6 321.05 -394.1 320.55 -393.6 317.05 -393.6 313.05 L-395.6 313.05" fill="#424242" fill-rule="evenodd" stroke="none"/>
    <path d="M437.45 237.05 L440.45 234.05 443.95 237.55 440.95 240.55 463.95 266.05 469.45 261.05 481.45 274.55 476.45 279.55 477.45 281.05 Q465.45 292.55 452.95 303.55 L415.95 263.05 Q414.45 265.05 412.45 266.55 L408.95 263.05 412.95 259.55 410.95 257.05 416.95 249.05 427.45 239.05 435.45 234.55 437.45 237.05" fill="#424242" fill-rule="evenodd" stroke="none"/>
    <path d="M729.95 28.55 L724.95 33.55 725.95 35.05 Q713.95 46.55 701.45 57.55 L664.45 17.05 Q662.95 19.05 660.95 20.55 L657.45 16.55 661.45 13.05 659.45 11.05 665.45 3.05 675.95 -6.95 Q679.95 -8.95 683.95 -11.45 L685.95 -9.45 Q687.45 -10.45 688.95 -11.95 L692.45 -8.45 689.45 -5.45 712.45 20.05 717.95 15.05 729.95 28.55" fill="#424242" fill-rule="evenodd" stroke="none"/>
    <path d="M98.9 -544.45 L98.9 -496.95 67.4 -496.95 67.4 -544.45 98.9 -544.45" fill="#fcfcff" fill-rule="evenodd" stroke="none"/>
    <path d="M-174.1 -396.95 L-141.6 -396.95 -141.6 -307.45 -209.1 -307.45 -209.1 -383.95 -178.6 -383.95 -178.6 -336.45 -174.1 -336.45 -174.1 -396.95" fill="#fcfcff" fill-rule="evenodd" stroke="none"/>
    <path d="M-145.1 -626.45 L-145.1 -436.95 -216.6 -436.95 -216.6 -626.45 -145.1 -626.45" fill="#959595" fill-rule="evenodd" stroke="none"/>
    <path d="M-192.6 29.05 L-192.6 264.05 70.9 264.05 70.9 29.05 -192.6 29.05 M70.9 -267.95 L14.9 -267.95 14.9 -240.95 -135.1 -240.95 -135.1 -273.45 -139.1 -273.45 -139.1 -268.95 -192.6 -268.95 -192.6 1.05 70.9 1.05 70.9 -267.95 M23.4 -626.45 L98.9 -626.45 98.9 -540.45 67.4 -540.45 67.4 -592.95 57.4 -592.95 57.4 -433.95 87.4 -433.95 87.4 -307.45 20.0 -307.45 20.0 -336.45 54.9 -336.45 54.9 -374.95 47.4 -374.95 47.4 -398.95 -45.1 -398.95 -45.1 -393.95 -44.1 -393.95 -44.1 -306.45 -43.6 -306.45 -43.6 -301.95 -40.1 -301.95 -40.1 -306.95 -17.6 -306.95 -17.6 -301.95 -13.1 -301.95 -13.1 -306.45 10.9 -306.45 10.9 -300.95 98.4 -300.95 98.4 292.55 -221.6 292.55 -221.6 -301.45 -139.1 -301.45 -139.1 -295.95 -135.1 -295.95 -135.1 -387.45 -130.1 -387.45 -130.1 -393.95 -75.6 -393.95 -75.6 -398.95 -176.6 -398.95 -176.6 -338.45 -141.6 -338.45 -141.6 -307.45 -209.1 -307.45 -209.1 -432.95 -140.1 -432.95 -140.1 -626.45 18.4 -626.45 18.4 -433.95 23.4 -433.95 23.4 -626.45" fill="#959595" fill-rule="evenodd" stroke="none"/>
    <path d="M-135.1 -376.45 L-135.1 -385.95 -127.6 -385.95 -127.6 -376.45 -135.1 -376.45" fill="#6f6f6f" fill-rule="evenodd" stroke="none"/>
    <path d="M-135.1 -363.45 L-135.1 -372.95 -127.6 -372.95 -127.6 -363.45 -135.1 -363.45" fill="#6f6f6f" fill-rule="evenodd" stroke="none"/>
    <path d="M-134.6 -349.95 L-134.6 -359.45 -127.1 -359.45 -127.1 -349.95 -134.6 -349.95" fill="#6f6f6f" fill-rule="evenodd" stroke="none"/>
    <path d="M-134.6 -335.95 L-134.6 -345.45 -127.1 -345.45 -127.1 -335.95 -134.6 -335.95" fill="#6f6f6f" fill-rule="evenodd" stroke="none"/>
    <path d="M-170.1 -298.95 L-195.6 -298.95 -195.6 -300.95 -170.1 -300.95 -170.1 -298.95" fill="#6f6f6f" fill-rule="evenodd" stroke="none"/>
    <path d="M68.4 -298.95 L42.4 -298.95 42.4 -301.45 68.4 -301.45 68.4 -298.95" fill="#6f6f6f" fill-rule="evenodd" stroke="none"/>
    <path d="M86.9 -295.45 L78.4 -295.45 78.4 -300.95 86.9 -300.95 86.9 -295.45" fill="#6f6f6f" fill-rule="evenodd" stroke="none"/>
    <path d="M98.4 41.05 L84.9 41.05 84.9 11.55 98.4 11.55 98.4 41.05" fill="#6f6f6f" fill-rule="evenodd" stroke="none"/>
    <path d="M-137.6 -552.45 L-162.1 -554.45 Q-161.1 -565.45 -160.6 -576.45 L-136.1 -574.45 Q-136.6 -563.45 -137.6 -552.45" fill="#6f6f6f" fill-rule="evenodd" stroke="none"/>
    <path d="M-218.1 -562.95 L-218.1 -577.45 -200.1 -577.45 -200.1 -562.95 -218.1 -562.95" fill="#6f6f6f" fill-rule="evenodd" stroke="none"/>
    <path d="M-206.6 -559.45 L-189.1 -557.45 Q-189.6 -550.45 -190.6 -543.45 L-208.1 -544.95 Q-207.1 -551.95 -206.6 -559.45" fill="#6f6f6f" fill-rule="evenodd" stroke="none"/>
    <path d="M-191.1 -586.95 L-208.6 -584.45 Q-209.6 -593.45 -211.1 -602.45 L-193.6 -604.45 Q-192.1 -595.45 -191.1 -586.95" fill="#6f6f6f" fill-rule="evenodd" stroke="none"/>
    <path d="M-192.6 -508.95 Q-193.1 -501.95 -194.1 -494.95 L-211.6 -496.45 Q-210.6 -503.45 -210.1 -510.95 L-192.6 -508.95" fill="#6f6f6f" fill-rule="evenodd" stroke="none"/>
    <path d="M-217.6 -466.45 L-217.6 -489.95 -200.6 -489.95 -200.6 -466.45 -217.6 -466.45" fill="#6f6f6f" fill-rule="evenodd" stroke="none"/>
    <path d="M-224.1 -456.95 L-224.1 -462.95 -200.1 -462.95 -200.1 -456.95 -224.1 -456.95" fill="#6f6f6f" fill-rule="evenodd" stroke="none"/>
    <path d="M-171.6 -429.45 L-175.6 -429.45 -175.6 -433.45 -171.6 -433.45 -171.6 -429.45" fill="#424242" fill-rule="evenodd" stroke="none"/>
    <path d="M-111.6 -429.45 L-115.6 -429.45 -115.6 -433.45 -111.6 -433.45 -111.6 -429.45" fill="#424242" fill-rule="evenodd" stroke="none"/>
    <path d="M-14.1 -429.45 L-18.1 -429.45 -18.1 -433.45 -14.1 -433.45 -14.1 -429.45" fill="#424242" fill-rule="evenodd" stroke="none"/>
    <path d="M53.4 -429.45 L49.9 -429.45 49.9 -433.45 53.4 -433.45 53.4 -429.45" fill="#424242" fill-rule="evenodd" stroke="none"/>
    <path d="M-137.6 -535.45 L-99.1 -535.45 -99.1 -480.45 -137.6 -480.45 -137.6 -535.45" fill="#424242" fill-rule="evenodd" stroke="none"/>
    <path d="M-215.6 -601.95 L-223.6 -601.95 -223.6 -610.45 -215.6 -610.45 -215.6 -601.95" fill="#fcfcff" fill-rule="evenodd" stroke="none"/>
    <path d="M20.05 -397.35 L55.05 -397.35 55.05 -334.95 20.05 -334.95 20.05 -397.35" fill="#ffffff" fill-rule="evenodd" stroke="none"/>
  </g>
</svg>
