<?xml version="1.0" encoding="UTF-8" standalone="no"?>
<svg xmlns:ffdec="https://www.free-decompiler.com/flash" xmlns:xlink="http://www.w3.org/1999/xlink" ffdec:objectType="shape" height="33.3px" width="28.75px" xmlns="http://www.w3.org/2000/svg">
  <g transform="matrix(1.0, 0.0, 0.0, 1.0, -8.45, -17.35)">
    <path d="M30.6 24.05 Q31.4 24.8 31.5 25.9 L31.5 26.15 31.5 33.3 34.2 33.3 Q36.05 33.25 36.95 35.1 L36.95 35.15 Q37.7 36.95 36.3 38.4 L24.95 49.75 Q24.05 50.65 22.85 50.65 21.6 50.65 20.7 49.75 L9.35 38.4 Q7.95 36.95 8.7 35.15 L8.75 35.1 Q9.5 33.3 11.5 33.3 L14.15 33.3 14.15 25.9 Q14.25 24.8 15.0 24.05 L15.05 24.0 Q15.9 23.15 17.15 23.15 L28.5 23.15 Q29.7 23.15 30.55 24.0 L30.6 24.05 M30.45 20.55 L28.35 20.9 17.0 20.9 14.95 20.55 14.9 20.55 Q14.0 20.2 14.0 19.7 L14.0 18.55 Q14.0 18.05 14.85 17.7 L14.9 17.7 Q15.75 17.35 17.0 17.35 L28.35 17.35 30.4 17.7 30.45 17.7 Q31.35 18.05 31.35 18.55 L31.35 19.7 Q31.35 20.2 30.5 20.55 L30.45 20.55 M17.15 26.15 L17.15 36.3 11.5 36.3 22.85 47.65 34.2 36.3 28.5 36.3 28.5 26.15 17.15 26.15" fill="#000000" fill-rule="evenodd" stroke="none"/>
  </g>
</svg>
