<?xml version="1.0" encoding="UTF-8" standalone="no"?>
<svg xmlns:ffdec="https://www.free-decompiler.com/flash" xmlns:xlink="http://www.w3.org/1999/xlink" ffdec:objectType="shape" height="22.5px" width="21.6px" xmlns="http://www.w3.org/2000/svg">
  <g transform="matrix(1.0, 0.0, 0.0, 1.0, -37.85, -36.05)">
    <path d="M54.5 36.7 Q55.15 37.35 55.15 38.3 L55.15 45.55 57.2 45.55 Q58.55 45.5 59.25 46.9 59.8 48.25 58.75 49.35 L50.25 57.85 Q49.55 58.55 48.65 58.55 47.75 58.55 47.05 57.85 L38.55 49.35 Q37.5 48.25 38.05 46.9 L38.1 46.9 Q38.65 45.55 40.15 45.55 L42.15 45.55 42.15 38.3 Q42.15 37.35 42.8 36.7 43.45 36.05 44.4 36.05 L52.9 36.05 Q53.8 36.05 54.45 36.7 L54.5 36.7 M44.4 38.3 L44.4 47.8 40.15 47.8 48.65 56.3 57.2 47.8 52.9 47.8 52.9 38.3 44.4 38.3" fill="#000000" fill-rule="evenodd" stroke="none"/>
  </g>
</svg>
