<?xml version="1.0" encoding="UTF-8" standalone="no"?>
<svg xmlns:ffdec="https://www.free-decompiler.com/flash" xmlns:xlink="http://www.w3.org/1999/xlink" ffdec:objectType="shape" height="64.0px" width="64.0px" xmlns="http://www.w3.org/2000/svg">
  <g transform="matrix(1.0, 0.0, 0.0, 1.0, 0.0, 0.0)">
    <path d="M64.0 64.0 L0.0 64.0 0.0 0.0 64.0 0.0 64.0 64.0" fill="#66cc99" fill-opacity="0.0" fill-rule="evenodd" stroke="none"/>
    <path d="M61.4 15.05 Q60.8 14.45 60.0 14.45 L4.0 14.45 Q3.2 14.45 2.6 15.05 2.0 15.65 2.0 16.45 L2.0 49.35 2.0 49.5 2.0 49.6 62.0 49.6 62.0 49.5 62.0 49.35 62.0 16.45 Q62.0 15.65 61.4 15.05 M62.8 13.65 Q64.0 14.85 64.0 16.45 L64.0 49.35 64.0 49.5 64.0 49.6 64.0 51.6 0.0 51.6 0.0 49.6 0.0 49.5 0.0 49.35 0.0 16.45 Q0.0 14.85 1.2 13.65 2.4 12.45 4.0 12.45 L60.0 12.45 Q61.6 12.45 62.8 13.65" fill="#000000" fill-rule="evenodd" stroke="none"/>
    <path d="M61.4 15.05 Q62.0 15.65 62.0 16.45 L62.0 49.35 62.0 49.5 62.0 49.6 2.0 49.6 2.0 49.5 2.0 49.35 2.0 16.45 Q2.0 15.65 2.6 15.05 3.2 14.45 4.0 14.45 L60.0 14.45 Q60.8 14.45 61.4 15.05" fill="#ffffff" fill-rule="evenodd" stroke="none"/>
    <path d="M57.05 27.4 Q57.05 28.2 56.5 28.8 55.9 29.35 55.15 29.35 54.35 29.35 53.75 28.8 53.2 28.2 53.2 27.4 53.2 26.65 53.75 26.05 54.35 25.5 55.15 25.5 55.9 25.5 56.5 26.05 57.05 26.65 57.05 27.4 M44.5 26.05 Q45.1 25.5 45.9 25.5 46.65 25.5 47.25 26.05 47.85 26.65 47.85 27.4 47.85 28.2 47.25 28.8 46.65 29.35 45.9 29.35 45.1 29.35 44.5 28.8 43.95 28.2 43.95 27.4 43.95 26.65 44.5 26.05 M18.15 25.5 Q18.95 25.5 19.55 26.05 20.1 26.65 20.1 27.4 20.1 28.2 19.55 28.8 18.95 29.35 18.15 29.35 17.4 29.35 16.8 28.8 16.2 28.2 16.2 27.4 16.2 26.65 16.8 26.05 17.4 25.5 18.15 25.5 M10.85 27.4 Q10.85 28.2 10.3 28.8 9.7 29.35 8.95 29.35 8.15 29.35 7.55 28.8 7.0 28.2 7.0 27.4 7.0 26.65 7.55 26.05 8.15 25.5 8.95 25.5 9.7 25.5 10.3 26.05 10.85 26.65 10.85 27.4 M38.0 26.05 Q38.6 26.65 38.6 27.4 38.6 28.2 38.0 28.8 37.45 29.35 36.65 29.35 35.85 29.35 35.3 28.8 34.7 28.2 34.7 27.4 34.7 26.65 35.3 26.05 35.85 25.5 36.65 25.5 37.45 25.5 38.0 26.05 M26.05 26.05 Q26.6 25.5 27.4 25.5 28.2 25.5 28.75 26.05 29.35 26.65 29.35 27.4 29.35 28.2 28.75 28.8 28.2 29.35 27.4 29.35 26.6 29.35 26.05 28.8 25.45 28.2 25.45 27.4 25.45 26.65 26.05 26.05" fill="#999999" fill-rule="evenodd" stroke="none"/>
    <path d="M56.5 34.2 Q57.05 34.8 57.05 35.55 57.05 36.35 56.5 36.95 55.9 37.5 55.15 37.5 54.35 37.5 53.75 36.95 53.2 36.35 53.2 35.55 53.2 34.8 53.75 34.2 54.35 33.65 55.15 33.65 55.9 33.65 56.5 34.2 M45.9 33.65 Q46.65 33.65 47.25 34.2 47.85 34.8 47.85 35.55 47.85 36.35 47.25 36.95 46.65 37.5 45.9 37.5 45.1 37.5 44.5 36.95 43.95 36.35 43.95 35.55 43.95 34.8 44.5 34.2 45.1 33.65 45.9 33.65 M19.55 36.95 Q18.95 37.5 18.15 37.5 17.4 37.5 16.8 36.95 16.2 36.35 16.2 35.55 16.2 34.8 16.8 34.2 17.4 33.65 18.15 33.65 18.95 33.65 19.55 34.2 20.1 34.8 20.1 35.55 20.1 36.35 19.55 36.95 M10.85 35.55 Q10.85 36.35 10.3 36.95 9.7 37.5 8.95 37.5 8.15 37.5 7.55 36.95 7.0 36.35 7.0 35.55 7.0 34.8 7.55 34.2 8.15 33.65 8.95 33.65 9.7 33.65 10.3 34.2 10.85 34.8 10.85 35.55 M34.7 35.55 Q34.7 34.8 35.3 34.2 35.85 33.65 36.65 33.65 37.45 33.65 38.0 34.2 38.6 34.8 38.6 35.55 38.6 36.35 38.0 36.95 37.45 37.5 36.65 37.5 35.85 37.5 35.3 36.95 34.7 36.35 34.7 35.55 M26.05 34.2 Q26.6 33.65 27.4 33.65 28.2 33.65 28.75 34.2 29.35 34.8 29.35 35.55 29.35 36.35 28.75 36.95 28.2 37.5 27.4 37.5 26.6 37.5 26.05 36.95 25.45 36.35 25.45 35.55 25.45 34.8 26.05 34.2" fill="#999999" fill-rule="evenodd" stroke="none"/>
    <path d="M47.85 43.75 Q47.85 44.55 47.25 45.1 46.65 45.7 45.9 45.7 45.1 45.7 44.5 45.1 43.95 44.55 43.95 43.75 43.95 42.95 44.5 42.4 45.1 41.8 45.9 41.8 46.65 41.8 47.25 42.4 47.85 42.95 47.85 43.75 M57.05 43.75 Q57.05 44.55 56.5 45.1 55.9 45.7 55.15 45.7 54.35 45.7 53.75 45.1 53.2 44.55 53.2 43.75 53.2 42.95 53.75 42.4 54.35 41.8 55.15 41.8 55.9 41.8 56.5 42.4 57.05 42.95 57.05 43.75 M7.55 42.4 Q8.15 41.8 8.95 41.8 9.7 41.8 10.3 42.4 10.85 42.95 10.85 43.75 10.85 44.55 10.3 45.1 9.7 45.7 8.95 45.7 8.15 45.7 7.55 45.1 7.0 44.55 7.0 43.75 7.0 42.95 7.55 42.4 M19.55 42.4 Q20.1 42.95 20.1 43.75 20.1 44.55 19.55 45.1 18.95 45.7 18.15 45.7 17.4 45.7 16.8 45.1 16.2 44.55 16.2 43.75 16.2 42.95 16.8 42.4 17.4 41.8 18.15 41.8 18.95 41.8 19.55 42.4 M27.4 41.8 Q28.2 41.8 28.75 42.4 29.35 42.95 29.35 43.75 29.35 44.55 28.75 45.1 28.2 45.7 27.4 45.7 26.6 45.7 26.05 45.1 25.45 44.55 25.45 43.75 25.45 42.95 26.05 42.4 26.6 41.8 27.4 41.8 M35.3 42.4 Q35.85 41.8 36.65 41.8 37.45 41.8 38.0 42.4 38.6 42.95 38.6 43.75 38.6 44.55 38.0 45.1 37.45 45.7 36.65 45.7 35.85 45.7 35.3 45.1 34.7 44.55 34.7 43.75 34.7 42.95 35.3 42.4" fill="#999999" fill-rule="evenodd" stroke="none"/>
  </g>
</svg>
