<?xml version="1.0" encoding="UTF-8" standalone="no"?>
<svg xmlns:ffdec="https://www.free-decompiler.com/flash" xmlns:xlink="http://www.w3.org/1999/xlink" ffdec:objectType="shape" height="20.4px" width="20.4px" xmlns="http://www.w3.org/2000/svg">
  <g transform="matrix(1.0, 0.0, 0.0, 1.0, -7.5, -6.8)">
    <path d="M20.3 12.0 L15.1 12.0 15.1 6.8 20.3 6.8 20.3 12.0 M22.7 12.0 L22.7 6.8 27.9 6.8 27.9 12.0 22.7 12.0 M27.9 14.4 L27.9 19.6 22.7 19.6 22.7 14.4 27.9 14.4 M20.3 19.6 L15.1 19.6 15.1 14.4 20.3 14.4 20.3 19.6 M27.9 22.0 L27.9 27.2 22.7 27.2 22.7 22.0 27.9 22.0 M12.7 12.0 L7.5 12.0 7.5 6.8 12.7 6.8 12.7 12.0 M7.5 14.4 L12.7 14.4 12.7 19.6 7.5 19.6 7.5 14.4 M12.7 22.0 L12.7 27.2 7.5 27.2 7.5 22.0 12.7 22.0 M15.1 22.0 L20.3 22.0 20.3 27.2 15.1 27.2 15.1 22.0" fill="#000000" fill-rule="evenodd" stroke="none"/>
  </g>
</svg>
