<?xml version="1.0" encoding="UTF-8" standalone="no"?>
<svg xmlns:ffdec="https://www.free-decompiler.com/flash" xmlns:xlink="http://www.w3.org/1999/xlink" ffdec:objectType="shape" height="64.0px" width="64.0px" xmlns="http://www.w3.org/2000/svg">
  <g transform="matrix(1.0, 0.0, 0.0, 1.0, 0.0, 0.0)">
    <path d="M64.0 0.0 L64.0 64.0 0.0 64.0 0.0 0.0 64.0 0.0" fill="#ff00ff" fill-opacity="0.0" fill-rule="evenodd" stroke="none"/>
    <path d="M41.55 14.85 L41.55 0.9 Q46.55 1.2 51.55 3.35 57.15 5.75 60.95 9.55 L60.85 21.3 60.8 26.4 18.65 26.4 18.55 21.3 18.35 9.3 Q22.05 5.6 27.55 3.3 32.6 1.2 37.6 0.85 L37.6 14.85 41.55 14.85" fill="#ffffff" fill-rule="evenodd" stroke="none"/>
    <path d="M51.55 3.35 Q57.15 5.75 60.95 9.55 L60.6 41.65 Q60.6 44.75 58.9 49.7 57.9 52.1 56.1 54.55 53.35 58.25 48.95 60.35 44.55 62.5 39.75 62.5 34.95 62.5 30.55 60.35 26.15 58.25 23.35 54.55 21.55 52.1 20.55 49.7 18.9 44.95 18.9 41.65 L18.35 9.3 Q22.05 5.6 27.55 3.3 33.55 0.8 39.5 0.8 45.5 0.8 51.55 3.35" fill="#ffffff" fill-rule="evenodd" stroke="none"/>
    <path d="M41.55 3.65 Q45.9 4.0 50.3 5.9 54.6 7.7 57.8 10.5 L57.65 26.0 21.8 26.0 21.5 10.25 Q24.5 7.65 28.65 5.9 L28.85 5.85 Q33.25 3.95 37.6 3.65 L37.6 14.45 41.55 14.45 41.55 3.65" fill="#cccccc" fill-rule="evenodd" stroke="none"/>
    <path d="M43.25 16.95 Q43.25 15.4 42.1 14.35 41.1 13.35 39.6 13.35 38.1 13.35 37.05 14.35 35.95 15.4 35.95 16.95 L35.95 25.8 Q35.95 27.4 37.05 28.3 38.1 29.4 39.6 29.4 41.1 29.4 42.1 28.3 43.25 27.4 43.25 25.8 L43.25 16.95 M45.85 16.75 L45.85 25.7 Q45.85 28.3 44.0 30.2 42.1 32.1 39.6 32.1 36.9 32.1 35.1 30.2 33.2 28.3 33.2 25.7 L33.2 16.75 Q33.2 14.25 35.1 12.35 36.9 10.45 39.6 10.45 42.1 10.45 44.0 12.35 45.85 14.25 45.85 16.75" fill="#ffffff" fill-rule="evenodd" stroke="none"/>
    <path d="M43.25 16.95 L43.25 25.8 Q43.25 27.4 42.1 28.3 41.1 29.4 39.6 29.4 38.1 29.4 37.05 28.3 35.95 27.4 35.95 25.8 L35.95 16.95 Q35.95 15.4 37.05 14.35 38.1 13.35 39.6 13.35 41.1 13.35 42.1 14.35 43.25 15.4 43.25 16.95" fill="#999999" fill-rule="evenodd" stroke="none"/>
    <path d="M2.25 31.95 L10.75 25.2 10.75 38.7 2.25 31.95" fill="#ffffff" fill-rule="evenodd" stroke="none"/>
  </g>
</svg>
