<?xml version="1.0" encoding="UTF-8" standalone="no"?>
<svg xmlns:ffdec="https://www.free-decompiler.com/flash" xmlns:xlink="http://www.w3.org/1999/xlink" ffdec:objectType="shape" height="64.0px" width="64.0px" xmlns="http://www.w3.org/2000/svg">
  <g transform="matrix(1.0, 0.0, 0.0, 1.0, 0.0, 0.0)">
    <path d="M64.0 0.0 L64.0 64.0 0.0 64.0 0.0 0.0 64.0 0.0" fill="#ff00ff" fill-opacity="0.0" fill-rule="evenodd" stroke="none"/>
    <path d="M43.8 3.35 Q49.4 5.75 53.2 9.55 L53.1 21.3 53.05 26.4 10.9 26.4 10.8 21.3 10.6 9.3 Q14.3 5.6 19.8 3.3 24.85 1.2 29.85 0.85 L29.85 14.85 33.8 14.85 33.8 0.9 Q38.8 1.2 43.8 3.35" fill="#ffffff" fill-rule="evenodd" stroke="none"/>
    <path d="M53.2 9.55 L52.85 41.65 Q52.85 44.75 51.15 49.7 50.15 52.1 48.35 54.55 45.6 58.25 41.2 60.35 36.8 62.5 32.0 62.5 27.2 62.5 22.8 60.35 18.4 58.25 15.6 54.55 13.8 52.1 12.8 49.7 11.15 44.95 11.15 41.65 L10.6 9.3 Q14.3 5.6 19.8 3.3 25.8 0.8 31.75 0.8 37.75 0.8 43.8 3.35 49.4 5.75 53.2 9.55" fill="#ffffff" fill-rule="evenodd" stroke="none"/>
    <path d="M50.05 10.5 L49.9 26.0 14.05 26.0 13.75 10.25 Q16.75 7.65 20.9 5.9 L21.1 5.85 Q25.5 3.95 29.85 3.65 L29.85 14.45 33.8 14.45 33.8 3.65 Q38.15 4.0 42.55 5.9 46.85 7.7 50.05 10.5" fill="#cccccc" fill-rule="evenodd" stroke="none"/>
    <path d="M36.25 12.35 Q38.1 14.25 38.1 16.75 L38.1 25.7 Q38.1 28.3 36.25 30.2 34.35 32.1 31.85 32.1 29.15 32.1 27.35 30.2 25.45 28.3 25.45 25.7 L25.45 16.75 Q25.45 14.25 27.35 12.35 29.15 10.45 31.85 10.45 34.35 10.45 36.25 12.35 M29.3 14.35 Q28.2 15.4 28.2 16.95 L28.2 25.8 Q28.2 27.4 29.3 28.3 30.35 29.4 31.85 29.4 33.35 29.4 34.35 28.3 35.5 27.4 35.5 25.8 L35.5 16.95 Q35.5 15.4 34.35 14.35 33.35 13.35 31.85 13.35 30.35 13.35 29.3 14.35" fill="#ffffff" fill-rule="evenodd" stroke="none"/>
    <path d="M29.3 14.35 Q30.35 13.35 31.85 13.35 33.35 13.35 34.35 14.35 35.5 15.4 35.5 16.95 L35.5 25.8 Q35.5 27.4 34.35 28.3 33.35 29.4 31.85 29.4 30.35 29.4 29.3 28.3 28.2 27.4 28.2 25.8 L28.2 16.95 Q28.2 15.4 29.3 14.35" fill="#999999" fill-rule="evenodd" stroke="none"/>
    <path d="M32.3 34.85 Q29.9 34.85 28.35 37.0 26.85 39.1 26.45 42.8 27.6 41.5 29.1 40.8 30.6 40.1 32.2 40.1 35.8 40.1 38.15 42.55 40.5 45.0 40.5 48.8 40.5 52.65 38.05 55.05 36.85 56.25 35.35 56.8 L32.05 57.3 Q28.05 57.3 25.7 54.65 23.05 51.65 23.05 45.85 23.05 39.5 25.25 35.8 27.7 31.8 32.3 31.8 36.15 31.8 38.3 34.4 39.65 36.0 40.1 38.55 L36.7 38.55 Q36.25 36.65 35.15 35.75 34.1 34.85 32.3 34.85 M26.85 48.8 Q26.85 50.05 27.25 51.05 27.6 52.05 28.3 52.8 L30.0 53.95 Q31.0 54.35 32.15 54.35 34.45 54.35 35.8 52.9 37.15 51.45 37.15 48.8 37.15 46.3 35.85 44.75 34.5 43.25 32.15 43.25 30.05 43.25 28.4 44.85 26.85 46.45 26.85 48.8" fill="#000000" fill-rule="evenodd" stroke="none"/>
  </g>
</svg>
