<?xml version="1.0" encoding="UTF-8" standalone="no"?>
<svg xmlns:ffdec="https://www.free-decompiler.com/flash" xmlns:xlink="http://www.w3.org/1999/xlink" ffdec:objectType="shape" height="24.75px" width="19.2px" xmlns="http://www.w3.org/2000/svg">
  <g transform="matrix(1.0, 0.0, 0.0, 1.0, -23.15, -19.6)">
    <path d="M41.7 42.85 L42.15 44.35 38.75 44.35 38.35 43.1 38.2 41.65 38.2 38.3 Q38.2 34.8 34.4 34.8 L26.55 34.8 26.55 44.35 23.15 44.35 23.15 19.6 34.2 19.6 Q36.05 19.6 37.55 20.15 39.05 20.7 40.15 21.7 41.2 22.7 41.75 24.1 42.35 25.45 42.35 27.2 42.35 31.1 39.15 33.15 41.55 34.8 41.55 38.3 L41.55 41.35 41.7 42.85 M26.55 22.85 L26.55 31.55 34.3 31.55 Q36.55 31.55 37.7 30.4 38.95 29.25 38.95 27.2 38.95 22.85 34.2 22.85 L26.55 22.85" fill="#000000" fill-rule="evenodd" stroke="none"/>
  </g>
</svg>
