<?xml version="1.0" encoding="UTF-8" standalone="no"?>
<svg xmlns:ffdec="https://www.free-decompiler.com/flash" xmlns:xlink="http://www.w3.org/1999/xlink" ffdec:objectType="shape" height="29.0px" width="29.0px" xmlns="http://www.w3.org/2000/svg">
  <g transform="matrix(1.0, 0.0, 0.0, 1.0, 0.0, 0.0)">
    <path d="M21.0 1.5 L21.1 1.55 24.15 3.6 24.25 3.7 26.65 6.45 28.25 9.85 28.3 9.95 29.0 13.55 29.0 13.7 28.75 17.35 28.75 17.45 27.55 20.95 27.5 21.1 25.45 24.1 25.35 24.2 22.55 26.6 22.45 26.65 19.2 28.25 19.05 28.3 15.45 29.0 15.35 29.0 11.7 28.75 11.55 28.75 8.05 27.55 7.95 27.5 4.95 25.45 4.85 25.35 2.45 22.55 2.35 22.45 0.75 19.15 0.7 19.0 0.0 15.4 0.0 15.25 0.25 11.6 0.3 11.5 1.55 8.05 1.6 7.95 3.6 4.9 3.7 4.8 6.5 2.4 6.6 2.3 9.9 0.7 10.05 0.65 13.65 0.0 13.75 0.0 17.4 0.2 17.55 0.25 21.0 1.5" fill="#232323" fill-rule="evenodd" stroke="none"/>
    <path d="M23.55 4.4 L23.6 4.45 25.8 7.0 25.85 7.0 27.3 10.2 28.0 13.75 27.75 17.2 26.6 20.55 24.6 23.5 24.6 23.55 22.0 25.75 21.95 25.8 18.8 27.3 15.3 28.0 11.8 27.75 8.45 26.6 5.5 24.6 3.25 22.0 3.25 21.95 1.7 18.8 1.0 15.25 1.25 11.8 2.45 8.45 4.4 5.45 4.45 5.45 7.05 3.2 10.25 1.65 13.75 1.0 17.25 1.2 20.6 2.4 23.55 4.4" fill="#484848" fill-rule="evenodd" stroke="none"/>
  </g>
</svg>
