<?xml version="1.0" encoding="UTF-8" standalone="no"?>
<svg xmlns:ffdec="https://www.free-decompiler.com/flash" xmlns:xlink="http://www.w3.org/1999/xlink" ffdec:objectType="shape" height="28.25px" width="28.25px" xmlns="http://www.w3.org/2000/svg">
  <g transform="matrix(1.0, 0.0, 0.0, 1.0, 0.75, 0.6)">
    <path d="M16.05 -0.6 L16.4 -0.5 16.95 -0.25 17.15 -0.15 17.1 -0.15 17.35 0.0 17.35 0.05 17.65 0.55 17.7 0.6 17.7 0.7 17.75 0.75 17.9 1.45 17.9 1.55 17.9 4.65 18.15 5.95 18.55 6.6 19.05 7.15 19.95 7.8 19.95 7.85 21.4 8.55 22.45 8.85 25.4 8.85 25.6 8.9 26.2 9.05 26.25 9.05 26.4 9.1 26.85 9.4 26.8 9.4 27.1 9.65 27.45 10.45 27.4 10.45 27.5 10.7 27.5 16.35 27.5 16.55 27.5 16.6 27.15 17.4 27.1 17.45 26.9 17.65 26.45 17.95 26.25 18.05 26.25 18.1 25.6 18.25 25.55 18.25 25.4 18.25 22.45 18.25 21.3 18.6 21.3 18.55 20.0 19.25 19.95 19.25 19.1 19.95 18.55 20.55 18.15 21.2 17.9 22.4 17.9 25.5 17.9 25.6 17.9 25.65 17.75 26.3 17.65 26.5 17.65 26.55 17.35 27.05 17.1 27.25 17.05 27.3 17.0 27.35 16.35 27.6 16.3 27.6 16.2 27.65 16.05 27.65 10.6 27.65 10.45 27.65 10.4 27.65 9.9 27.45 9.85 27.4 9.45 27.2 9.4 27.15 9.3 27.05 9.3 27.0 9.1 26.6 9.1 26.65 8.95 26.35 8.85 25.65 8.85 25.6 8.85 25.5 8.8 22.45 8.6 21.15 8.2 20.6 7.6 19.95 6.75 19.25 5.45 18.55 5.5 18.6 4.3 18.25 1.25 18.25 0.55 18.1 0.2 17.95 0.25 17.95 -0.2 17.65 -0.25 17.65 -0.4 17.4 -0.7 16.6 -0.75 16.35 -0.75 10.7 -0.7 10.45 -0.4 9.7 -0.15 9.4 0.3 9.1 0.25 9.1 0.55 9.0 1.25 8.85 4.3 8.85 5.5 8.55 5.45 8.55 5.65 8.45 5.6 8.45 5.8 8.35 6.8 7.85 6.8 7.8 7.55 7.25 7.55 7.15 8.15 6.55 8.15 6.6 8.6 5.9 8.8 4.85 8.8 4.8 8.8 4.75 8.8 1.55 8.85 1.4 8.85 1.45 8.85 1.4 8.85 1.35 9.0 0.75 9.05 0.5 9.05 0.55 9.35 0.05 9.65 -0.2 10.35 -0.55 10.6 -0.6 16.05 -0.6 M22.2 10.1 L20.95 9.75 20.85 9.7 20.8 9.65 20.85 9.65 19.4 8.95 19.2 8.85 19.25 8.85 18.3 8.15 18.2 8.0 17.5 7.3 17.0 6.5 16.9 6.25 16.65 4.9 16.65 4.85 16.65 4.75 16.65 1.6 16.55 1.1 16.4 0.9 15.9 0.65 10.75 0.65 10.35 0.85 10.25 1.05 10.1 1.65 10.1 4.75 10.1 4.85 10.1 4.9 9.85 6.2 9.75 6.45 9.75 6.5 9.25 7.3 8.5 8.1 7.55 8.85 7.45 8.9 7.4 8.9 6.35 9.45 6.35 9.5 6.25 9.5 6.2 9.6 5.8 9.75 4.5 10.1 4.45 10.1 4.3 10.1 1.45 10.1 0.85 10.25 0.85 10.2 0.75 10.3 0.5 10.85 0.5 16.2 0.75 16.8 0.85 16.9 1.4 17.0 4.3 17.0 4.5 17.05 5.8 17.4 5.85 17.4 5.9 17.4 7.35 18.15 7.4 18.15 7.5 18.25 8.35 18.95 8.5 19.05 9.15 19.8 9.15 19.75 9.25 19.85 9.25 19.9 9.7 20.65 9.8 20.9 10.05 22.25 10.1 25.45 10.25 26.1 10.2 26.05 10.3 26.2 10.4 26.25 10.8 26.4 15.85 26.4 16.4 26.2 16.5 25.95 16.5 26.0 16.6 25.5 16.6 22.3 16.65 22.15 16.9 20.85 16.95 20.6 16.95 20.65 17.45 19.9 17.5 19.7 17.5 19.75 18.15 19.05 18.15 19.0 18.3 18.95 19.2 18.25 Q19.2 18.15 19.35 18.15 L20.1 17.75 20.05 17.75 20.3 17.7 20.85 17.4 20.9 17.4 20.95 17.4 22.1 17.05 22.35 17.0 25.35 17.0 25.85 16.9 26.0 16.8 26.25 16.2 26.25 10.85 26.0 10.35 25.8 10.2 25.4 10.1 22.35 10.1 22.2 10.1" fill="#232323" fill-rule="evenodd" stroke="none"/>
    <path d="M21.15 9.45 L22.15 9.7 22.25 9.7 22.35 9.7 25.45 9.7 25.9 9.8 26.0 9.85 26.25 10.05 26.35 10.15 26.6 10.7 26.6 10.8 26.6 16.25 26.6 16.35 26.35 16.95 26.25 17.05 26.0 17.2 25.95 17.25 25.9 17.25 25.45 17.35 22.4 17.35 22.3 17.4 22.25 17.4 21.0 17.75 20.45 18.05 20.35 18.05 20.3 18.1 19.55 18.45 19.45 18.5 19.45 18.55 18.5 19.25 18.45 19.3 18.4 19.35 17.85 19.95 17.8 20.05 17.75 20.1 17.8 20.05 17.3 20.8 17.25 20.95 17.0 22.25 17.0 22.3 16.95 22.45 16.95 25.55 16.85 26.05 16.85 26.1 16.85 26.15 16.7 26.45 16.55 26.55 16.0 26.75 15.9 26.75 10.75 26.75 10.7 26.75 10.25 26.6 10.2 26.6 10.15 26.55 10.1 26.55 10.1 26.5 10.0 26.4 10.0 26.45 9.9 26.25 9.9 26.2 9.75 25.55 9.75 25.5 9.7 25.45 9.65 22.3 9.45 21.05 9.45 21.0 9.4 20.85 9.4 20.8 9.0 20.15 8.95 20.1 8.9 20.05 8.8 20.0 8.15 19.3 8.2 19.3 8.1 19.25 8.1 19.2 7.3 18.6 7.2 18.5 7.15 18.45 5.85 17.8 5.8 17.75 5.7 17.75 4.4 17.4 4.3 17.4 4.25 17.35 1.4 17.35 0.8 17.25 0.65 17.2 0.45 17.05 0.4 16.95 0.15 16.35 0.1 16.25 0.1 10.85 0.15 10.7 0.4 10.1 0.5 10.0 0.7 9.9 0.75 9.9 1.35 9.75 1.45 9.7 4.3 9.7 4.45 9.7 4.5 9.7 5.7 9.4 5.85 9.3 5.9 9.25 Q5.95 9.15 6.05 9.15 L6.1 9.15 6.2 9.15 7.2 8.6 7.25 8.6 7.35 8.5 7.4 8.5 8.1 7.95 8.2 7.85 8.3 7.75 8.35 7.7 8.85 7.2 8.9 7.1 8.95 7.0 9.05 6.9 9.4 6.3 9.45 6.15 9.7 4.8 9.7 1.65 9.75 1.6 9.9 0.95 9.9 0.9 10.05 0.65 10.15 0.55 10.65 0.3 10.75 0.25 15.9 0.25 16.05 0.3 16.65 0.6 16.6 0.6 16.7 0.7 16.85 0.95 16.9 0.95 16.9 1.0 17.0 1.5 17.0 4.8 17.25 6.15 17.35 6.3 17.8 7.0 17.8 7.05 18.5 7.8 18.55 7.85 18.6 7.85 19.45 8.55 19.55 8.6 21.05 9.35 21.0 9.35 21.05 9.35 21.15 9.45" fill="#484848" fill-rule="evenodd" stroke="none"/>
  </g>
</svg>
