<?xml version="1.0" encoding="UTF-8" standalone="no"?>
<svg xmlns:ffdec="https://www.free-decompiler.com/flash" xmlns:xlink="http://www.w3.org/1999/xlink" ffdec:objectType="shape" height="64.0px" width="64.0px" xmlns="http://www.w3.org/2000/svg">
  <g transform="matrix(1.0, 0.0, 0.0, 1.0, 0.0, 0.0)">
    <path d="M0.0 64.0 L0.0 0.0 64.0 0.0 64.0 64.0 0.0 64.0" fill="#66cc99" fill-opacity="0.0" fill-rule="evenodd" stroke="none"/>
    <path d="M56.3 15.9 L59.5 22.7 59.6 22.9 61.0 30.1 61.0 30.4 60.5 37.7 60.5 37.9 58.1 44.9 58.0 45.2 53.9 51.2 53.7 51.4 48.1 56.2 47.9 56.3 41.4 59.5 41.1 59.6 33.9 61.0 33.7 61.0 26.4 60.5 26.1 60.5 19.1 58.1 18.9 58.0 12.9 53.9 12.7 53.7 7.9 48.1 7.7 47.9 4.5 41.3 4.4 41.0 3.0 33.8 3.0 33.5 3.5 26.2 3.6 26.0 6.1 19.1 6.2 18.9 10.2 12.8 10.4 12.6 16.0 7.8 16.2 7.6 22.8 4.4 23.1 4.3 30.3 3.0 30.5 3.0 37.8 3.4 38.1 3.5 45.0 6.0 45.2 6.1 51.3 10.2 51.5 10.4 56.3 15.9" fill="#000000" fill-rule="evenodd" stroke="none"/>
    <path d="M54.7 17.0 L57.6 23.4 59.0 30.5 58.5 37.4 56.2 44.1 52.2 50.0 52.2 50.1 47.0 54.5 46.9 54.6 40.6 57.6 33.6 59.0 26.6 58.5 19.9 56.2 14.0 52.2 9.5 47.0 9.5 46.9 6.4 40.6 5.0 33.5 5.5 26.6 7.9 19.9 11.8 13.9 11.9 13.9 17.1 9.4 23.5 6.3 30.5 5.0 37.5 5.4 44.2 7.8 50.1 11.8 50.2 11.9 54.6 17.0 54.7 17.0" fill="#282828" fill-rule="evenodd" stroke="none"/>
    <path d="M36.4 25.65 L32.3 25.65 32.3 23.15 17.15 23.15 17.15 31.95 24.0 31.95 24.0 35.2 13.0 35.2 13.0 19.9 36.4 19.9 36.4 25.65 M50.95 28.9 L50.95 44.2 27.55 44.2 27.55 28.9 50.95 28.9 M46.8 40.95 L46.8 32.15 31.7 32.15 31.7 40.95 46.8 40.95" fill="#ffffff" fill-rule="evenodd" stroke="none"/>
  </g>
</svg>
