<?xml version="1.0" encoding="UTF-8" standalone="no"?>
<svg xmlns:ffdec="https://www.free-decompiler.com/flash" xmlns:xlink="http://www.w3.org/1999/xlink" ffdec:objectType="shape" height="24.25px" width="29.5px" xmlns="http://www.w3.org/2000/svg">
  <g transform="matrix(1.0, 0.0, 0.0, 1.0, 0.5, 0.5)">
    <path d="M1.75 -0.1 L2.85 -0.45 3.0 -0.5 16.9 -0.45 17.0 -0.45 19.05 -0.15 19.2 -0.1 20.6 0.6 20.65 0.65 23.2 2.6 23.3 2.7 25.95 5.75 26.0 5.8 28.3 9.35 28.35 9.45 29.0 11.4 28.95 18.85 28.9 19.7 28.85 19.7 28.8 19.8 28.05 21.35 27.95 21.45 26.8 22.8 26.65 22.95 25.15 23.7 24.95 23.75 3.0 23.75 2.85 23.75 1.75 23.35 1.55 23.25 0.35 22.1 0.25 21.95 -0.45 20.5 -0.5 20.25 -0.5 2.7 -0.45 2.5 0.25 1.2 0.35 1.05 1.55 0.0 1.75 -0.1 M27.85 19.65 L27.9 18.85 27.9 15.55 27.95 15.55 28.0 11.4 27.95 11.4 27.4 9.85 25.15 6.35 22.6 3.4 20.15 1.5 18.8 0.85 16.85 0.55 3.1 0.5 2.2 0.8 1.1 1.75 0.5 2.85 0.5 20.1 0.5 20.15 0.8 20.75 1.1 21.3 2.2 22.35 3.1 22.65 24.85 22.65 26.15 22.0 27.2 20.75 27.75 19.7 27.85 19.7 27.85 19.65" fill="#000000" fill-rule="evenodd" stroke="none"/>
    <path d="M0.5 20.1 L0.5 2.85 1.1 1.75 2.2 0.8 3.1 0.5 16.85 0.55 18.8 0.85 20.15 1.5 22.6 3.4 25.15 6.35 27.4 9.85 27.95 11.4 28.0 11.4 27.95 15.55 27.9 15.55 27.9 18.85 27.85 19.65 27.75 19.65 27.2 20.75 26.15 22.0 24.85 22.65 3.1 22.65 2.2 22.35 1.1 21.3 0.8 20.75 0.5 20.1" fill="#282828" fill-rule="evenodd" stroke="none"/>
  </g>
</svg>
