<?xml version="1.0" encoding="UTF-8" standalone="no"?>
<svg xmlns:ffdec="https://www.free-decompiler.com/flash" xmlns:xlink="http://www.w3.org/1999/xlink" ffdec:objectType="shape" height="26.6px" width="40.8px" xmlns="http://www.w3.org/2000/svg">
  <g transform="matrix(1.0, 0.0, 0.0, 1.0, -15.9, -17.9)">
    <path d="M55.45 22.2 Q56.0 23.55 56.0 25.2 56.0 26.8 55.2 28.2 54.45 29.6 52.95 30.5 54.9 31.3 55.8 32.95 56.7 34.6 56.7 36.75 56.7 40.15 54.45 42.4 53.25 43.55 51.75 44.0 L48.3 44.5 36.7 44.5 36.7 17.9 48.25 17.9 51.45 18.4 53.9 19.9 Q54.95 20.85 55.45 22.2 M52.35 25.15 Q52.35 21.35 48.25 21.35 L40.3 21.35 40.3 28.95 48.35 28.95 Q50.05 28.95 51.2 28.0 52.35 27.1 52.35 25.15 M48.35 32.4 L40.3 32.4 40.3 41.15 48.45 41.15 Q50.65 41.15 51.85 40.0 53.1 38.85 53.1 36.75 53.1 32.4 48.35 32.4" fill="#ffffff" fill-rule="evenodd" stroke="none"/>
    <path d="M33.05 44.5 L15.9 44.5 15.9 17.9 19.5 17.9 19.5 41.15 33.05 41.15 33.05 44.5" fill="#ffffff" fill-rule="evenodd" stroke="none"/>
  </g>
</svg>
