<?xml version="1.0" encoding="UTF-8" standalone="no"?>
<svg xmlns:ffdec="https://www.free-decompiler.com/flash" xmlns:xlink="http://www.w3.org/1999/xlink" ffdec:objectType="shape" height="20.1px" width="20.0px" xmlns="http://www.w3.org/2000/svg">
  <g transform="matrix(1.0, 0.0, 0.0, 1.0, -8.15, -3.0)">
    <path d="M19.4 18.4 Q18.9 17.9 18.15 17.9 17.45 17.9 16.95 18.4 16.45 18.9 16.45 19.6 16.45 20.3 16.95 20.8 17.45 21.3 18.15 21.3 18.9 21.3 19.4 20.8 L19.85 19.6 19.4 18.4 M19.8 6.15 Q19.8 5.45 19.45 4.95 19.1 4.45 18.15 4.45 17.2 4.45 16.9 4.95 16.55 5.45 16.55 6.15 L16.55 15.15 Q16.55 15.8 16.9 16.3 17.2 16.8 18.15 16.8 19.1 16.8 19.45 16.3 19.8 15.8 19.8 15.15 L19.8 6.15 M28.15 11.45 L28.15 14.65 Q27.65 17.8 25.25 20.1 22.35 23.1 18.2 23.1 14.0 23.1 11.05 20.1 8.15 17.2 8.15 13.05 8.15 8.85 11.05 5.9 14.0 3.0 18.2 3.0 22.35 3.0 25.25 5.9 27.65 8.25 28.15 11.45" fill="#ffffff" fill-rule="evenodd" stroke="none"/>
  </g>
</svg>
