<?xml version="1.0" encoding="UTF-8" standalone="no"?>
<svg xmlns:ffdec="https://www.free-decompiler.com/flash" xmlns:xlink="http://www.w3.org/1999/xlink" ffdec:objectType="shape" height="416.95px" width="336.0px" xmlns="http://www.w3.org/2000/svg">
  <g transform="matrix(1.0, 0.0, 0.0, 1.0, 272.15, 311.85)">
    <path d="M63.85 -311.85 L63.85 105.1 -272.15 105.1 -272.15 -311.85 63.85 -311.85" fill="#424242" fill-rule="evenodd" stroke="none"/>
    <path d="M-128.15 -292.35 L-128.15 -200.85 -138.65 -200.85 -138.65 -188.85 -174.65 -188.85 -174.65 -178.35 -138.65 -178.35 -138.65 -164.85 -128.15 -164.85 -128.15 -187.35 -17.15 -187.35 -17.15 -154.35 -8.15 -154.35 -8.15 -185.85 56.35 -185.85 56.35 97.6 -99.65 97.6 -99.65 105.1 -176.15 105.1 -176.15 97.6 -260.15 97.6 -260.15 -10.35 -215.15 -10.35 -215.15 -5.85 -23.15 -5.85 -23.15 -40.35 -33.65 -40.35 -33.65 -29.85 -215.15 -29.85 -215.15 -31.35 -261.65 -31.35 -261.65 -82.35 -33.65 -82.35 -33.65 -71.85 -23.15 -71.85 -23.15 -82.35 -8.15 -82.35 -8.15 -115.35 -17.15 -115.35 -17.15 -103.35 -128.15 -103.35 -128.15 -116.85 -138.65 -116.85 -138.65 -104.85 -227.15 -104.85 -227.15 -116.85 -248.15 -116.85 -248.15 -178.35 -225.65 -178.35 -225.65 -188.85 -255.65 -188.85 -255.65 -200.85 -266.15 -200.85 -266.15 -292.35 -255.65 -292.35 -255.65 -304.35 -138.65 -304.35 -138.65 -292.35 -128.15 -292.35" fill="#959595" fill-rule="evenodd" stroke="none"/>
    <path d="M-32.15 -10.35 L-32.15 -5.85 -215.15 -5.85 -215.15 -10.35 -32.15 -10.35" fill="#6f6f6f" fill-rule="evenodd" stroke="none"/>
    <path d="M-215.15 -19.35 L-215.15 -29.85 -33.65 -29.85 -33.65 -19.35 -215.15 -19.35" fill="#6f6f6f" fill-rule="evenodd" stroke="none"/>
    <path d="M-96.65 -95.85 L-96.65 -82.35 -243.65 -82.35 -243.65 -95.85 -96.65 -95.85" fill="#6f6f6f" fill-rule="evenodd" stroke="none"/>
    <path d="M-257.15 64.65 L-257.15 49.65 -240.65 49.65 -240.65 64.65 -257.15 64.65" fill="#6f6f6f" fill-rule="evenodd" stroke="none"/>
    <path d="M-38.15 97.6 L-38.15 81.15 -21.65 81.15 -21.65 97.6 -38.15 97.6" fill="#6f6f6f" fill-rule="evenodd" stroke="none"/>
    <path d="M-17.15 97.6 L-17.15 81.15 -0.65 81.15 -0.65 97.6 -17.15 97.6" fill="#6f6f6f" fill-rule="evenodd" stroke="none"/>
    <path d="M5.35 97.6 L5.35 81.15 21.85 81.15 21.85 97.6 5.35 97.6" fill="#6f6f6f" fill-rule="evenodd" stroke="none"/>
    <path d="M39.85 52.65 L39.85 37.65 56.35 37.65 56.35 52.65 39.85 52.65" fill="#6f6f6f" fill-rule="evenodd" stroke="none"/>
    <path d="M-242.15 31.65 L-242.15 48.15 -258.65 48.15 -258.65 31.65 -242.15 31.65" fill="#6f6f6f" fill-rule="evenodd" stroke="none"/>
    <path d="M-257.15 13.65 Q-249.65 13.65 -242.15 12.15 -240.65 21.15 -240.65 28.65 -248.15 30.15 -255.65 30.15 -255.65 22.65 -257.15 13.65" fill="#6f6f6f" fill-rule="evenodd" stroke="none"/>
    <path d="M38.35 -20.85 L38.35 -56.85 56.35 -56.85 56.35 -20.85 44.35 -20.85 53.35 -8.85 Q48.85 -4.35 42.85 -1.35 L33.85 -13.35 Q38.35 -16.35 42.85 -20.85 L38.35 -20.85" fill="#6f6f6f" fill-rule="evenodd" stroke="none"/>
    <path d="M39.85 -58.35 L39.85 -74.85 56.35 -74.85 56.35 -58.35 39.85 -58.35" fill="#6f6f6f" fill-rule="evenodd" stroke="none"/>
    <path d="M38.35 -76.35 L38.35 -92.85 56.35 -92.85 56.35 -76.35 38.35 -76.35" fill="#6f6f6f" fill-rule="evenodd" stroke="none"/>
    <path d="M39.85 -95.85 L39.85 -112.35 56.35 -112.35 56.35 -95.85 39.85 -95.85" fill="#6f6f6f" fill-rule="evenodd" stroke="none"/>
    <path d="M38.35 -130.35 L56.35 -130.35 56.35 -113.85 38.35 -113.85 38.35 -130.35" fill="#6f6f6f" fill-rule="evenodd" stroke="none"/>
    <path d="M-77.15 -121.35 L-41.15 -121.35 -41.15 -104.85 -77.15 -104.85 -77.15 -121.35" fill="#6f6f6f" fill-rule="evenodd" stroke="none"/>
    <path d="M-17.15 -185.85 L-17.15 -167.85 -35.15 -167.85 -35.15 -185.85 -17.15 -185.85" fill="#6f6f6f" fill-rule="evenodd" stroke="none"/>
    <path d="M-38.15 -182.85 L-38.15 -172.35 -50.15 -172.35 -50.15 -182.85 -38.15 -182.85" fill="#6f6f6f" fill-rule="evenodd" stroke="none"/>
    <path d="M-60.65 -185.85 L-60.65 -179.85 -98.15 -179.85 -98.15 -185.85 -60.65 -185.85" fill="#6f6f6f" fill-rule="evenodd" stroke="none"/>
    <path d="M-246.65 -77.85 L-246.65 -70.35 -236.15 -70.35 -236.15 -41.85 -243.65 -41.85 -243.65 -32.85 -254.15 -32.85 -254.15 -41.85 -257.15 -41.85 -257.15 -55.35 -260.15 -55.35 -260.15 -67.35 -257.15 -67.35 -257.15 -70.35 -252.65 -70.35 -252.65 -77.85 -246.65 -77.85" fill="#6f6f6f" fill-rule="evenodd" stroke="none"/>
    <path d="M-99.65 105.1 L-176.15 105.1 -176.15 97.6 -99.65 97.6 -99.65 105.1" fill="#ffffff" fill-rule="evenodd" stroke="none"/>
  </g>
</svg>
