<?xml version="1.0" encoding="UTF-8" standalone="no"?>
<svg xmlns:ffdec="https://www.free-decompiler.com/flash" xmlns:xlink="http://www.w3.org/1999/xlink" ffdec:objectType="shape" height="250.25px" width="224.1px" xmlns="http://www.w3.org/2000/svg">
  <g transform="matrix(1.0, 0.0, 0.0, 1.0, -162.6, -65.55)">
    <path d="M357.7 190.6 L386.7 190.6 386.7 210.6 358.35 210.6 358.35 215.1 360.2 215.1 360.2 233.1 341.55 233.1 341.55 192.3 357.7 192.3 357.7 190.6 M334.65 294.1 L310.1 294.1 310.1 297.45 294.55 297.45 294.55 315.8 249.45 315.8 249.45 315.6 245.15 315.6 245.15 259.6 215.85 259.6 215.85 266.05 215.65 266.05 215.65 312.1 199.55 312.1 199.55 315.15 184.2 315.15 184.2 313.1 171.1 313.1 171.1 293.1 171.65 293.1 171.65 266.05 164.1 266.05 164.1 234.1 168.6 234.1 168.6 175.5 162.6 175.5 162.6 136.05 185.65 136.05 185.65 175.5 185.05 175.5 185.05 206.15 197.15 206.15 197.15 191.95 191.65 191.95 191.65 128.8 191.15 128.8 191.15 115.55 186.25 115.55 186.25 91.05 202.15 91.05 202.15 92.05 215.15 92.05 215.15 100.65 215.85 100.65 215.85 170.1 238.15 170.1 238.15 191.95 265.0 191.95 265.0 175.15 265.15 175.15 265.15 163.6 285.65 163.6 285.65 112.35 294.25 112.35 294.25 82.45 315.65 82.45 315.65 128.2 309.8 128.2 309.8 164.05 295.65 164.05 295.65 175.15 295.5 175.15 295.5 191.95 295.65 191.95 295.65 207.55 295.15 207.55 295.15 222.45 310.1 222.45 310.1 240.2 334.65 240.2 334.65 294.1 M262.85 158.55 L241.65 158.55 241.65 65.55 262.85 65.55 262.85 158.55" fill="#ffff00" fill-rule="evenodd" stroke="none"/>
  </g>
</svg>
