<?xml version="1.0" encoding="UTF-8" standalone="no"?>
<svg xmlns:ffdec="https://www.free-decompiler.com/flash" xmlns:xlink="http://www.w3.org/1999/xlink" ffdec:objectType="shape" height="330.0px" width="650.0px" xmlns="http://www.w3.org/2000/svg">
  <g transform="matrix(1.0, 0.0, 0.0, 1.0, 0.0, 0.0)">
    <path d="M0.0 26.7 L0.0 0.0 41.95 0.0 589.2 0.0 650.0 0.0 650.0 26.7 650.0 276.1 650.0 330.0 589.2 330.0 41.95 330.0 0.0 330.0 0.0 276.1 0.0 26.7" fill="#132c3e" fill-rule="evenodd" stroke="none"/>
    <path d="M10.0 36.7 L10.0 10.0 51.95 10.0 599.2 10.0 640.0 10.0 640.0 36.7 640.0 286.1 640.0 320.0 599.2 320.0 51.95 320.0 10.0 320.0 10.0 286.1 10.0 36.7" fill="#09161f" fill-rule="evenodd" stroke="none"/>
  </g>
</svg>
