<?xml version="1.0" encoding="UTF-8" standalone="no"?>
<svg xmlns:ffdec="https://www.free-decompiler.com/flash" xmlns:xlink="http://www.w3.org/1999/xlink" ffdec:objectType="shape" height="290.0px" width="293.0px" xmlns="http://www.w3.org/2000/svg">
  <g transform="matrix(1.0, 0.0, 0.0, 1.0, 0.0, 0.0)">
    <path d="M0.0 63.7 L0.0 0.0 72.2 0.0 218.8 0.0 293.0 0.0 293.0 63.7 293.0 193.3 293.0 290.0 218.8 290.0 72.2 290.0 0.0 290.0 0.0 193.3 0.0 63.7" fill="#ffffff" fill-rule="evenodd" stroke="none"/>
    <path d="M1.0 64.7 L1.0 1.0 73.2 1.0 219.8 1.0 292.0 1.0 292.0 64.7 292.0 194.3 292.0 289.0 219.8 289.0 73.2 289.0 1.0 289.0 1.0 194.3 1.0 64.7" fill="#0f222e" fill-rule="evenodd" stroke="none"/>
  </g>
</svg>
