<?xml version="1.0" encoding="UTF-8" standalone="no"?>
<svg xmlns:ffdec="https://www.free-decompiler.com/flash" xmlns:xlink="http://www.w3.org/1999/xlink" ffdec:objectType="shape" height="109.35px" width="75.7px" xmlns="http://www.w3.org/2000/svg">
  <g transform="matrix(1.0, 0.0, 0.0, 1.0, 0.0, 51.45)">
    <path d="M23.0 -32.5 Q17.9 -26.7 17.9 -17.55 L3.15 -17.55 Q3.15 -32.85 13.05 -42.15 23.15 -51.45 38.45 -51.45 53.8 -51.45 62.95 -43.2 71.95 -34.85 71.95 -22.25 71.95 -7.55 60.1 -1.1 75.7 5.95 75.7 25.3 75.7 39.4 65.15 49.0 55.4 57.9 37.65 57.9 19.7 57.9 10.7 49.3 0.95 40.0 0.0 24.7 L14.75 24.7 Q15.75 35.25 21.35 40.15 26.9 45.15 37.65 45.15 48.35 45.15 54.95 39.4 61.4 33.85 61.4 25.3 61.4 16.15 55.3 11.5 49.25 6.85 36.5 6.85 L30.95 6.85 30.95 -6.35 Q45.5 -6.35 51.6 -10.45 57.65 -14.65 57.65 -22.25 57.65 -29.55 52.75 -33.95 47.9 -38.3 38.45 -38.3 28.05 -38.3 23.0 -32.5" fill="#dcdcdc" fill-rule="evenodd" stroke="none"/>
  </g>
</svg>
