<?xml version="1.0" encoding="UTF-8" standalone="no"?>
<svg xmlns:ffdec="https://www.free-decompiler.com/flash" xmlns:xlink="http://www.w3.org/1999/xlink" ffdec:objectType="shape" height="106.9px" width="72.35px" xmlns="http://www.w3.org/2000/svg">
  <g transform="matrix(1.0, 0.0, 0.0, 1.0, 0.0, 49.0)">
    <path d="M38.3 -14.1 Q53.6 -14.1 62.9 -3.8 72.35 6.6 72.35 22.05 72.35 38.25 61.55 48.6 51.8 57.9 35.9 57.9 19.25 57.9 10.7 49.8 1.1 41.1 0.0 27.9 L14.6 27.9 Q15.75 35.25 21.1 40.0 26.45 44.85 35.9 44.85 40.8 44.85 45.0 43.15 49.1 41.55 52.0 38.45 54.95 35.4 56.55 31.15 58.25 26.95 58.25 22.0 58.25 16.95 56.75 12.75 55.25 8.65 52.4 5.65 49.5 2.65 45.65 1.05 41.75 -0.65 37.05 -0.65 30.75 -0.65 25.3 2.5 19.85 5.65 16.1 11.35 L3.8 6.55 10.85 -49.0 66.2 -49.0 66.2 -35.35 23.3 -35.35 19.7 -8.7 Q27.75 -14.1 38.3 -14.1" fill="#dcdcdc" fill-rule="evenodd" stroke="none"/>
  </g>
</svg>
