<?xml version="1.0" encoding="UTF-8" standalone="no"?>
<svg xmlns:ffdec="https://www.free-decompiler.com/flash" xmlns:xlink="http://www.w3.org/1999/xlink" ffdec:objectType="shape" height="26.4px" width="26.4px" xmlns="http://www.w3.org/2000/svg">
  <g transform="matrix(1.0, 0.0, 0.0, 1.0, 13.2, 13.2)">
    <path d="M0.0 -13.2 Q5.45 -13.2 9.3 -9.35 13.2 -5.5 13.2 0.0 13.2 5.45 9.3 9.3 5.45 13.2 0.0 13.2 -5.5 13.2 -9.35 9.3 -13.2 5.45 -13.2 0.0 -13.2 -5.5 -9.35 -9.35 -5.5 -13.2 0.0 -13.2" fill="#000000" fill-opacity="0.08627451" fill-rule="evenodd" stroke="none"/>
    <path d="M-5.6 10.15 Q-6.35 7.8 -6.7 4.95 L-10.5 4.95 Q-8.85 8.35 -5.6 10.15 M-5.75 -10.1 L-5.7 -10.2 Q-8.95 -8.3 -10.55 -4.9 L-6.75 -4.9 Q-6.45 -7.75 -5.75 -10.1 M-11.15 -3.1 L-11.35 -0.15 -11.05 3.15 -6.9 3.15 -7.05 -0.15 -6.95 -3.1 -11.15 -3.1 M0.9 11.6 L1.8 11.45 3.3 11.15 3.35 11.05 Q4.45 8.6 4.9 4.95 L-4.9 4.95 Q-4.4 8.7 -3.3 11.1 L-3.3 11.15 -0.9 11.6 0.9 11.6 M5.65 10.1 L5.6 10.2 Q8.95 8.35 10.55 4.95 L6.7 4.95 Q6.4 7.75 5.65 10.1 M0.0 -13.2 Q5.45 -13.2 9.3 -9.35 13.2 -5.5 13.2 0.0 13.2 5.45 9.3 9.3 5.45 13.2 0.0 13.2 -5.5 13.2 -9.35 9.3 -13.2 5.45 -13.2 0.0 -13.2 -5.5 -9.35 -9.35 -5.5 -13.2 0.0 -13.2 M5.7 -10.2 L5.75 -10.05 Q6.4 -7.85 6.75 -4.9 L10.6 -4.9 Q9.0 -8.35 5.7 -10.2 M3.5 -11.1 L3.45 -11.15 0.9 -11.65 -0.9 -11.65 -3.45 -11.15 -3.45 -11.1 Q-4.5 -8.6 -4.95 -4.9 L4.95 -4.9 Q4.5 -8.6 3.5 -11.1 M6.95 -3.1 L7.05 -0.15 6.9 3.15 11.1 3.15 11.35 -0.15 11.15 -3.1 6.95 -3.1 M5.25 -0.15 L5.1 -3.1 -5.1 -3.1 -5.2 -0.15 -5.1 3.15 5.1 3.15 5.25 -0.15" fill="#ffffff" fill-opacity="0.29803923" fill-rule="evenodd" stroke="none"/>
  </g>
</svg>
