<?xml version="1.0" encoding="UTF-8" standalone="no"?>
<svg xmlns:ffdec="https://www.free-decompiler.com/flash" xmlns:xlink="http://www.w3.org/1999/xlink" ffdec:objectType="shape" height="25.75px" width="25.6px" xmlns="http://www.w3.org/2000/svg">
  <g transform="matrix(1.0, 0.0, 0.0, 1.0, 0.0, 12.85)">
    <path d="M4.15 -2.6 Q4.3 -1.75 4.75 -1.75 L7.15 -2.15 12.8 -2.9 18.45 -2.15 20.85 -1.75 Q21.25 -1.75 21.5 -2.65 20.65 -5.5 18.25 -7.3 15.8 -9.1 12.8 -9.1 9.75 -9.1 7.35 -7.25 5.0 -5.45 4.15 -2.6 M4.8 -8.0 Q8.1 -11.35 12.8 -11.35 17.5 -11.35 20.8 -8.0 24.1 -4.65 24.1 0.05 24.15 4.75 20.8 8.05 17.5 11.4 12.85 11.4 8.15 11.4 4.85 8.05 1.55 4.75 1.5 0.05 1.5 -4.65 4.8 -8.0 M15.9 2.85 L15.5 3.25 14.0 5.4 14.0 7.3 Q14.6 8.3 15.85 8.3 L15.9 8.3 16.4 8.25 17.0 8.1 Q18.8 7.15 20.05 5.5 21.3 3.85 21.7 1.85 19.35 0.95 18.35 0.95 17.5 0.95 15.9 2.85 M11.6 7.3 L11.6 5.45 Q10.95 4.3 9.8 3.1 L9.3 2.5 Q7.9 0.95 7.2 0.95 6.5 0.95 3.95 1.8 4.35 3.95 5.7 5.65 7.05 7.35 8.95 8.25 L9.2 8.25 9.75 8.3 Q10.8 8.3 11.6 7.3" fill="#ffffff" fill-rule="evenodd" stroke="none"/>
    <path d="M4.15 -2.6 Q5.0 -5.45 7.35 -7.25 9.75 -9.1 12.8 -9.1 15.8 -9.1 18.25 -7.3 20.65 -5.5 21.5 -2.65 21.25 -1.75 20.85 -1.75 L18.45 -2.15 12.8 -2.9 7.15 -2.15 4.75 -1.75 Q4.3 -1.75 4.15 -2.6 M6.7 -3.6 L6.85 -3.6 12.8 -4.4 18.75 -3.6 19.55 -3.45 Q18.55 -5.35 16.75 -6.45 14.9 -7.6 12.8 -7.6 10.7 -7.6 8.85 -6.45 7.05 -5.35 6.1 -3.45 L6.7 -3.6 M4.8 -8.0 Q1.5 -4.65 1.5 0.05 1.55 4.75 4.85 8.05 8.15 11.4 12.85 11.4 17.5 11.4 20.8 8.05 24.15 4.75 24.1 0.05 24.1 -4.65 20.8 -8.0 17.5 -11.35 12.8 -11.35 8.1 -11.35 4.8 -8.0 M3.75 -9.1 Q7.6 -12.85 12.8 -12.85 18.1 -12.85 21.85 -9.05 25.6 -5.3 25.6 0.0 25.7 5.3 21.85 9.15 18.1 12.9 12.85 12.9 7.55 12.9 3.8 9.1 0.05 5.35 0.0 0.05 0.0 -5.25 3.75 -9.1 M15.9 2.85 Q17.5 0.95 18.35 0.95 19.35 0.95 21.7 1.85 21.3 3.85 20.05 5.5 18.8 7.15 17.0 8.1 L16.4 8.25 15.9 8.3 15.85 8.3 Q14.6 8.3 14.0 7.3 L14.0 5.4 15.5 3.25 15.9 2.85 M19.85 2.8 L18.45 2.45 17.05 3.8 16.6 4.3 15.5 5.8 15.5 6.7 15.85 6.8 16.05 6.8 16.45 6.7 Q18.95 5.3 19.85 2.8 M11.6 7.3 Q10.8 8.3 9.75 8.3 L9.2 8.25 8.95 8.25 Q7.05 7.35 5.7 5.65 4.35 3.95 3.95 1.8 6.5 0.95 7.2 0.95 7.9 0.95 9.3 2.5 L9.8 3.1 Q10.95 4.3 11.6 5.45 L11.6 7.3 M10.1 5.9 L8.7 4.1 8.2 3.5 7.15 2.45 5.8 2.8 Q6.8 5.45 9.35 6.75 L9.55 6.8 9.75 6.8 10.1 6.7 10.1 5.9" fill="#000000" fill-rule="evenodd" stroke="none"/>
  </g>
</svg>
