<?xml version="1.0" encoding="UTF-8" standalone="no"?>
<svg xmlns:ffdec="https://www.free-decompiler.com/flash" xmlns:xlink="http://www.w3.org/1999/xlink" ffdec:objectType="shape" height="15.6px" width="15.6px" xmlns="http://www.w3.org/2000/svg">
  <g transform="matrix(1.0, 0.0, 0.0, 1.0, 0.0, 0.0)">
    <path d="M14.5 9.0 L14.6 8.2 14.6 7.8 Q14.6 5.0 12.6 3.0 10.6 1.0 7.8 1.0 5.0 1.0 3.0 3.0 1.0 5.0 1.0 7.8 1.0 10.6 3.0 12.6 5.0 14.6 7.8 14.6 10.6 14.6 12.6 12.6 14.15 11.05 14.5 9.0 M15.55 9.0 Q15.15 11.45 13.3 13.3 11.0 15.6 7.8 15.6 4.6 15.6 2.3 13.3 0.0 11.0 0.0 7.8 0.0 4.6 2.3 2.3 4.6 0.0 7.8 0.0 11.0 0.0 13.3 2.3 15.6 4.6 15.6 7.8 L15.6 8.2 15.55 9.0" fill="#ffffff" fill-rule="evenodd" stroke="none"/>
  </g>
</svg>
