<?xml version="1.0" encoding="UTF-8" standalone="no"?>
<svg xmlns:ffdec="https://www.free-decompiler.com/flash" xmlns:xlink="http://www.w3.org/1999/xlink" ffdec:objectType="shape" height="27.3px" width="26.1px" xmlns="http://www.w3.org/2000/svg">
  <g transform="matrix(1.0, 0.0, 0.0, 1.0, 0.0, 13.65)">
    <path d="M4.0 -4.05 Q4.5 -7.5 7.05 -9.8 9.65 -12.15 13.05 -12.15 16.45 -12.15 19.05 -9.8 21.6 -7.5 22.1 -4.05 24.6 -2.4 24.6 0.4 24.6 2.55 23.05 4.05 21.55 5.6 19.4 5.6 L19.4 -4.55 Q18.8 -6.75 17.05 -8.2 15.3 -9.65 13.05 -9.65 10.8 -9.65 9.05 -8.2 7.3 -6.75 6.7 -4.55 L6.7 5.2 Q8.25 8.15 11.4 8.9 12.05 8.0 13.05 8.0 13.9 8.0 14.55 8.6 15.15 9.2 15.15 10.05 15.15 10.9 14.55 11.55 13.9 12.15 13.05 12.15 12.25 12.15 11.7 11.6 11.1 11.05 11.05 10.25 9.1 9.75 7.55 8.45 6.0 7.15 5.2 5.35 3.55 4.85 2.55 3.5 1.5 2.15 1.5 0.4 1.5 -2.4 4.0 -4.05" fill="#ffffff" fill-rule="evenodd" stroke="none"/>
    <path d="M4.0 -4.05 Q1.5 -2.4 1.5 0.4 1.5 2.15 2.55 3.5 3.55 4.85 5.2 5.35 6.0 7.15 7.55 8.45 9.1 9.75 11.05 10.25 11.1 11.05 11.7 11.6 12.25 12.15 13.05 12.15 13.9 12.15 14.55 11.55 15.15 10.9 15.15 10.05 15.15 9.2 14.55 8.6 13.9 8.0 13.05 8.0 12.05 8.0 11.4 8.9 8.25 8.15 6.7 5.2 L6.7 -4.55 Q7.3 -6.75 9.05 -8.2 10.8 -9.65 13.05 -9.65 15.3 -9.65 17.05 -8.2 18.8 -6.75 19.4 -4.55 L19.4 5.6 Q21.55 5.6 23.05 4.05 24.6 2.55 24.6 0.4 24.6 -2.4 22.1 -4.05 21.6 -7.5 19.05 -9.8 16.45 -12.15 13.05 -12.15 9.65 -12.15 7.05 -9.8 4.5 -7.5 4.0 -4.05 M2.65 -4.9 Q3.4 -8.7 6.35 -11.15 9.25 -13.65 13.05 -13.65 16.85 -13.65 19.75 -11.15 22.7 -8.7 23.45 -4.9 26.1 -2.9 26.1 0.4 26.1 3.2 24.15 5.15 22.2 7.1 19.4 7.1 18.75 7.1 18.35 6.65 17.9 6.2 17.9 5.6 L17.9 -4.3 Q17.4 -6.0 16.05 -7.1 14.7 -8.15 13.05 -8.15 11.4 -8.15 10.05 -7.1 8.75 -6.0 8.2 -4.3 L8.2 4.8 Q9.2 6.5 11.0 7.2 11.95 6.5 13.05 6.5 14.55 6.5 15.6 7.55 16.65 8.6 16.65 10.05 16.65 11.55 15.6 12.6 14.55 13.65 13.05 13.65 11.95 13.65 11.05 13.05 10.2 12.45 9.8 11.45 6.0 10.15 4.1 6.55 2.25 5.75 1.15 4.1 0.0 2.4 0.0 0.4 0.0 -2.9 2.65 -4.9" fill="#000000" fill-rule="evenodd" stroke="none"/>
  </g>
</svg>
