<?xml version="1.0" encoding="UTF-8" standalone="no"?>
<svg xmlns:ffdec="https://www.free-decompiler.com/flash" xmlns:xlink="http://www.w3.org/1999/xlink" ffdec:objectType="shape" height="298.0px" width="164.65px" xmlns="http://www.w3.org/2000/svg">
  <g transform="matrix(1.0, 0.0, 0.0, 1.0, 69.25, 110.75)">
    <path d="M-69.25 -110.75 L95.4 -110.75 95.4 187.25 -69.25 187.25 -69.25 -110.75" fill="#434343" fill-rule="evenodd" stroke="none"/>
    <path d="M-2.25 -108.1 L-2.25 -109.1 20.6 -109.1 20.6 -108.1 24.5 -108.1 24.5 -49.1 11.75 -49.1 11.75 -47.0 21.75 -47.0 21.75 -21.25 11.85 -21.25 11.85 -15.35 17.2 -15.35 17.2 83.4 11.95 83.4 11.95 87.75 -3.8 87.75 -3.8 89.7 2.0 89.7 2.0 163.85 4.05 163.85 4.05 120.95 50.15 120.95 50.15 176.95 44.6 176.95 44.6 185.0 4.05 185.0 4.05 176.85 2.0 176.85 2.0 185.0 -66.2 185.0 -66.2 163.75 -67.6 163.75 -67.6 149.0 -66.2 149.0 -66.2 120.75 -67.6 120.75 -67.6 106.0 -66.2 106.0 -66.2 89.7 -60.35 89.7 -60.35 83.5 -66.2 83.5 -66.2 63.65 -67.6 63.65 -67.6 48.9 -66.2 48.9 -66.2 17.65 -67.6 17.65 -67.6 2.9 -66.2 2.9 -66.2 -15.45 -60.1 -15.45 -60.1 -21.35 -48.55 -21.35 -48.55 -23.5 -63.35 -23.5 -63.35 -65.0 -5.9 -65.0 -5.9 -23.5 -35.45 -23.5 -35.45 -21.35 -3.5 -21.35 -3.5 -67.3 -65.35 -67.3 -65.35 -108.1 -2.25 -108.1" fill="#969696" fill-rule="evenodd" stroke="none"/>
    <path d="M-15.7 -0.75 L-15.7 24.1 -38.25 24.1 -38.25 -0.75 -15.7 -0.75" fill="#707070" fill-rule="evenodd" stroke="none"/>
    <path d="M9.85 -15.35 L17.2 -15.35 17.2 14.3 9.85 14.3 9.85 -15.35" fill="#707070" fill-rule="evenodd" stroke="none"/>
    <path d="M11.0 21.95 L17.1 21.95 17.1 45.7 11.0 45.7 11.0 21.95" fill="#707070" fill-rule="evenodd" stroke="none"/>
    <path d="M10.35 83.4 L10.35 54.2 17.2 54.2 17.2 83.4 10.35 83.4" fill="#707070" fill-rule="evenodd" stroke="none"/>
    <path d="M-66.2 -13.5 L-59.55 -13.5 -59.55 7.5 -66.2 7.5 -66.2 -13.5" fill="#707070" fill-rule="evenodd" stroke="none"/>
    <path d="M21.75 -44.9 L21.75 -21.25 15.0 -21.25 15.0 -44.9 21.75 -44.9" fill="#707070" fill-rule="evenodd" stroke="none"/>
    <path d="M-18.0 -108.1 L-8.05 -108.1 -8.05 -98.6 -18.0 -98.6 -18.0 -108.1" fill="#707070" fill-rule="evenodd" stroke="none"/>
    <path d="M-39.85 42.1 L-14.45 42.1 -14.45 53.1 -39.85 53.1 -39.85 42.1" fill="#707070" fill-rule="evenodd" stroke="none"/>
    <path d="M-66.2 21.5 L-61.5 21.5 -61.5 46.65 -66.2 46.65 -66.2 21.5" fill="#707070" fill-rule="evenodd" stroke="none"/>
    <path d="M-61.45 65.3 L-61.45 83.5 -66.2 83.5 -66.2 65.3 -61.45 65.3" fill="#707070" fill-rule="evenodd" stroke="none"/>
    <path d="M-14.7 87.6 L-37.85 87.6 -37.85 81.6 -14.7 81.6 -14.7 87.6" fill="#707070" fill-rule="evenodd" stroke="none"/>
    <path d="M-13.25 89.95 L-13.25 99.5 -42.5 99.5 -42.5 89.95 -13.25 89.95" fill="#707070" fill-rule="evenodd" stroke="none"/>
    <path d="M-8.35 89.7 L2.0 89.7 2.0 99.2 -8.35 99.2 -8.35 89.7" fill="#707070" fill-rule="evenodd" stroke="none"/>
    <path d="M-21.5 120.5 L-35.2 120.5 -35.2 106.75 -21.5 106.75 -21.5 120.5" fill="#707070" fill-rule="evenodd" stroke="none"/>
    <path d="M-66.2 123.2 L-61.25 123.2 -61.25 146.7 -66.2 146.7 -66.2 123.2" fill="#707070" fill-rule="evenodd" stroke="none"/>
    <path d="M-8.85 141.6 L-8.85 115.75 2.0 115.75 2.0 141.6 -8.85 141.6" fill="#707070" fill-rule="evenodd" stroke="none"/>
    <path d="M-21.2 150.45 L-21.2 162.5 -49.35 162.5 -49.35 150.45 -21.2 150.45" fill="#707070" fill-rule="evenodd" stroke="none"/>
    <path d="M-61.5 185.0 L-61.5 179.45 -0.2 179.45 -0.2 185.0 -61.5 185.0" fill="#707070" fill-rule="evenodd" stroke="none"/>
    <path d="M50.15 120.95 L50.15 135.1 24.05 135.1 24.05 120.95 50.15 120.95" fill="#707070" fill-rule="evenodd" stroke="none"/>
    <path d="M7.75 135.95 L4.05 135.95 4.05 120.95 7.75 120.95 7.75 135.95" fill="#707070" fill-rule="evenodd" stroke="none"/>
    <path d="M25.15 152.7 L25.15 158.25 13.15 158.25 13.15 159.5 4.05 159.5 4.05 144.55 13.15 144.55 13.15 152.7 25.15 152.7" fill="#707070" fill-rule="evenodd" stroke="none"/>
    <path d="M20.25 185.0 L20.25 179.95 26.15 179.95 26.15 178.3 35.25 178.3 35.25 172.95 43.65 172.95 43.65 157.8 50.15 157.8 50.15 176.95 44.6 176.95 44.6 185.0 20.25 185.0" fill="#707070" fill-rule="evenodd" stroke="none"/>
    <path d="M-12.1 79.5 L-3.85 79.5 -3.85 77.2 9.25 77.2 9.25 86.0 -12.1 86.0 -12.1 79.5" fill="#707070" fill-rule="evenodd" stroke="none"/>
    <path d="M-65.85 -108.1 L-18.95 -108.1 -18.95 -88.65 -45.95 -88.65 -45.95 -87.0 -18.95 -87.0 -18.95 -67.3 -65.85 -67.3 -65.85 -108.1" fill="#ffffff" fill-rule="evenodd" stroke="none"/>
    <path d="M20.6 -108.1 L-2.25 -108.1 -2.25 -110.75 20.6 -110.75 20.6 -108.1" fill="#ffffff" fill-rule="evenodd" stroke="none"/>
  </g>
</svg>
