<?xml version="1.0" encoding="UTF-8" standalone="no"?>
<svg xmlns:ffdec="https://www.free-decompiler.com/flash" xmlns:xlink="http://www.w3.org/1999/xlink" ffdec:objectType="shape" height="61.25px" width="30.2px" xmlns="http://www.w3.org/2000/svg">
  <g transform="matrix(1.0, 0.0, 0.0, 1.0, 15.1, 30.6)">
    <path d="M14.1 -14.5 L12.05 -10.55 Q10.75 -8.15 11.0 -6.1 L12.4 2.45 Q13.5 9.3 13.6 12.75 13.75 17.5 11.85 23.6 9.85 30.2 7.55 30.65 5.5 31.05 5.15 24.95 L5.0 13.75 Q4.75 8.0 3.75 5.05 2.55 1.35 0.0 1.25 -2.55 1.35 -3.75 5.05 -4.75 8.0 -5.0 13.75 L-5.15 24.95 Q-5.5 31.05 -7.55 30.65 -9.85 30.2 -11.85 23.6 -13.7 17.5 -13.6 12.75 -13.55 9.3 -12.4 2.45 L-11.0 -6.1 Q-10.75 -8.15 -12.05 -10.55 -13.6 -13.1 -14.15 -14.5 -15.05 -16.8 -15.1 -19.5 -15.25 -22.65 -14.15 -25.1 -13.05 -27.5 -10.2 -29.15 -7.7 -30.6 -5.75 -30.6 -3.55 -30.6 0.0 -29.25 L2.05 -29.9 5.75 -30.6 Q7.7 -30.6 10.2 -29.15 13.05 -27.5 14.1 -25.1 15.2 -22.65 15.1 -19.5 15.0 -16.85 14.1 -14.5" fill="url(#gradient0)" fill-rule="evenodd" stroke="none"/>
  </g>
  <defs>
    <linearGradient gradientTransform="matrix(0.0, -0.0195, 0.0374, 0.0, 3.65, -9.0)" gradientUnits="userSpaceOnUse" id="gradient0" spreadMethod="pad" x1="-819.2" x2="819.2">
      <stop offset="0.0" stop-color="#ffffff"/>
      <stop offset="0.5058823529411764" stop-color="#ec4f43" stop-opacity="0.74509805"/>
      <stop offset="1.0" stop-color="#ffffff"/>
    </linearGradient>
  </defs>
</svg>
