<?xml version="1.0" encoding="UTF-8" standalone="no"?>
<svg xmlns:ffdec="https://www.free-decompiler.com/flash" xmlns:xlink="http://www.w3.org/1999/xlink" ffdec:objectType="shape" height="9.5px" width="29.6px" xmlns="http://www.w3.org/2000/svg">
  <g transform="matrix(1.0, 0.0, 0.0, 1.0, 14.8, 4.75)">
    <path d="M13.15 -0.2 L14.7 1.05 14.8 2.35 Q14.2 1.75 13.15 1.25 11.0 0.3 8.65 0.85 7.2 1.2 4.95 3.15 3.1 4.75 0.0 4.75 -3.1 4.75 -5.0 3.15 -7.25 1.2 -8.65 0.85 -11.0 0.3 -13.15 1.25 -14.2 1.75 -14.8 2.35 L-14.8 1.2 -13.15 -0.2 Q-11.0 -1.4 -8.65 -0.7 -7.25 -0.25 -5.0 2.2 -3.1 4.25 0.0 4.25 3.1 4.25 4.95 2.2 7.25 -0.25 8.65 -0.7 11.0 -1.4 13.15 -0.2 M4.1 -2.25 Q2.85 -1.55 2.55 -0.1 L2.45 0.75 2.4 0.05 2.7 -1.35 Q3.25 -3.0 4.65 -4.25 5.8 -5.3 5.65 -4.15 5.5 -3.0 4.1 -2.25 M-3.9 -2.25 Q-5.3 -3.0 -5.45 -4.15 -5.6 -5.3 -4.45 -4.25 -3.05 -3.0 -2.5 -1.35 -2.2 -0.5 -2.2 0.05 L-2.3 0.9 -2.35 -0.1 Q-2.65 -1.55 -3.9 -2.25" fill="#000000" fill-opacity="0.49803922" fill-rule="evenodd" stroke="none"/>
  </g>
</svg>
