<?xml version="1.0" encoding="UTF-8" standalone="no"?>
<svg xmlns:ffdec="https://www.free-decompiler.com/flash" xmlns:xlink="http://www.w3.org/1999/xlink" ffdec:objectType="shape" height="1452.15px" width="637.05px" xmlns="http://www.w3.org/2000/svg">
  <g transform="matrix(1.0, 0.0, 0.0, 1.0, 356.5, 763.55)">
    <path d="M280.55 -763.55 L280.55 688.6 -356.5 688.6 -356.5 -763.55 280.55 -763.55" fill="#434343" fill-rule="evenodd" stroke="none"/>
    <path d="M-234.35 563.4 L-236.5 563.7 -238.5 564.6 -240.2 565.9 -241.55 567.6 -242.4 569.6 -242.75 571.75 -242.5 573.9 -241.8 575.95 -240.55 577.75 -238.95 579.2 -237.0 580.15 -234.9 580.65 -232.75 580.55 -230.65 579.95 -228.8 578.85 -227.25 577.3 -226.15 575.45 -225.55 573.35 -225.5 571.2 -225.95 569.1 -226.95 567.15 -228.35 565.55 -230.15 564.3 -232.2 563.6 -234.35 563.4 M-173.05 245.3 L-175.4 247.45 -187.0 255.1 -199.6 261.0 -200.2 261.2 -200.2 282.75 -193.2 285.45 -181.1 292.25 -170.05 300.75 -160.4 310.75 -152.3 322.05 -145.95 334.45 -141.45 347.6 -140.3 354.0 -130.35 354.0 -129.15 347.6 -124.65 334.45 -118.7 322.9 -173.05 245.3 M167.05 566.15 L165.65 564.55 163.85 563.3 161.8 562.6 159.65 562.4 157.5 562.7 155.5 563.6 153.8 564.9 152.45 566.6 151.6 568.6 151.25 570.75 151.5 572.9 152.2 574.95 153.45 576.75 155.05 578.2 157.0 579.15 159.1 579.65 161.25 579.55 163.35 578.95 165.2 577.85 166.75 576.3 167.85 574.45 168.45 572.35 168.5 570.2 168.05 568.1 167.05 566.15 M66.65 389.0 L66.5 387.5 56.85 387.5 56.7 389.0 53.2 402.45 47.75 415.25 45.2 419.45 99.9 497.55 107.8 491.45 119.9 484.65 126.75 482.05 126.75 460.8 126.35 460.65 113.75 454.75 102.15 447.1 91.75 437.8 82.9 427.15 75.65 415.25 70.2 402.45 66.65 389.0 M102.15 247.45 L100.15 245.65 45.3 323.95 50.7 334.45 55.2 347.6 56.4 354.0 67.0 354.0 68.2 347.6 72.7 334.45 79.05 322.05 87.15 310.75 96.8 300.75 107.8 292.25 119.9 285.45 126.75 282.8 126.75 261.15 126.35 261.0 113.75 255.1 102.15 247.45 M178.0 79.05 L193.25 82.9 200.8 85.75 212.9 92.55 223.95 101.05 233.6 111.1 241.7 122.4 248.05 134.75 252.55 147.95 255.05 161.6 255.55 175.5 254.05 189.35 250.5 202.8 245.1 215.6 237.85 227.45 228.95 238.15 218.6 247.45 207.0 255.1 194.4 261.0 193.25 261.35 193.25 282.55 200.8 285.45 212.9 292.25 223.95 300.75 233.6 310.75 241.7 322.05 248.05 334.45 252.55 347.6 255.05 361.25 255.55 375.15 254.05 389.0 250.5 402.45 245.1 415.25 237.85 427.15 228.95 437.8 218.6 447.1 207.0 454.75 194.4 460.65 193.25 461.0 193.25 481.75 200.8 484.65 212.9 491.45 223.95 499.95 233.6 509.95 241.7 521.3 248.05 533.65 252.55 546.8 255.05 560.5 255.55 574.4 254.05 588.2 250.5 601.7 245.1 614.5 237.85 626.35 228.95 637.05 218.6 646.3 207.0 654.0 194.4 659.9 181.05 663.9 167.3 665.95 153.4 665.95 139.65 663.9 126.35 659.9 113.75 654.0 102.15 646.3 91.75 637.05 82.9 626.35 75.65 614.5 70.2 601.7 66.65 588.2 65.15 574.4 65.65 560.5 68.2 546.8 72.7 533.65 77.8 523.7 23.05 445.5 21.25 447.1 9.65 454.75 -2.95 460.65 -7.0 461.9 -7.0 465.35 -16.65 468.05 -37.45 470.0 -56.9 468.05 -67.0 465.0 -67.0 461.9 -71.0 460.65 -83.6 454.75 -95.2 447.1 -96.2 446.2 -150.85 524.2 -145.95 533.65 -141.45 546.8 -138.95 560.5 -138.45 574.4 -139.95 588.2 -143.5 601.7 -148.9 614.5 -156.15 626.35 -165.05 637.05 -175.4 646.3 -187.0 654.0 -199.6 659.9 -212.95 663.9 -226.7 665.95 -240.6 665.95 -254.35 663.9 -267.65 659.9 -280.25 654.0 -291.85 646.3 -302.25 637.05 -311.1 626.35 -318.35 614.5 -323.8 601.7 -327.35 588.2 -328.85 574.4 -328.35 560.5 -325.8 546.8 -321.3 533.65 -314.95 521.3 -306.85 509.95 -297.2 499.95 -286.2 491.45 -274.1 484.65 -267.7 482.2 -267.7 475.15 -200.2 475.15 -200.2 481.95 -193.2 484.65 -181.1 491.45 -172.8 497.85 -118.55 420.4 -121.7 415.25 -127.15 402.45 -130.65 389.0 -130.8 387.5 -139.8 387.5 -139.95 389.0 -143.5 402.45 -148.9 415.25 -156.15 427.15 -165.05 437.8 -175.4 447.1 -187.0 454.75 -199.6 460.65 -200.2 460.85 -200.2 468.4 -267.7 468.4 -267.7 460.65 -280.25 454.75 -291.85 447.1 -302.25 437.8 -311.1 427.15 -318.35 415.25 -323.8 402.45 -327.35 389.0 -328.85 375.15 -328.35 361.25 -325.8 347.6 -321.3 334.45 -314.95 322.05 -306.85 310.75 -297.2 300.75 -286.2 292.25 -274.1 285.45 -267.7 283.0 -267.7 261.0 -280.25 255.1 -291.85 247.45 -302.25 238.15 -311.1 227.45 -318.35 215.6 -323.8 202.8 -327.35 189.35 -328.85 175.5 -328.35 161.6 -325.8 147.95 -321.3 134.75 -314.95 122.4 -306.85 111.1 -297.2 101.05 -286.2 92.55 -274.1 85.75 -267.7 83.35 -251.1 79.05 -220.1 79.05 -200.2 83.1 -193.2 85.75 -181.1 92.55 -170.05 101.05 -160.4 111.1 -152.3 122.4 -145.95 134.75 -141.45 147.95 -138.95 161.6 -138.45 175.5 -139.95 189.35 -143.5 202.8 -148.9 215.6 -151.05 219.05 -96.2 297.35 -89.55 292.25 -77.4 285.45 -69.5 282.4 -69.5 262.0 -3.5 262.0 -3.5 282.8 3.45 285.45 15.6 292.25 23.05 298.0 78.0 219.5 75.65 215.6 70.2 202.8 66.65 189.35 65.15 175.5 65.65 161.6 68.2 147.95 72.7 134.75 79.05 122.4 87.15 111.1 96.8 101.05 107.8 92.55 119.9 85.75 137.5 80.85 160.25 78.1 178.0 79.05" fill="#969696" fill-rule="evenodd" stroke="none"/>
    <path d="M-200.4 580.65 L-199.2 573.9 -199.35 567.05 -201.05 559.4 -181.5 555.05 -179.4 564.65 -179.2 575.45 -181.05 586.05 -185.0 596.15 -190.8 605.25 -198.25 613.0 -207.1 619.2 -216.1 623.15 -224.15 604.85 -216.95 601.7 -211.35 597.75 -206.6 592.8 -202.9 587.0 -200.4 580.65" fill="#707070" fill-rule="evenodd" stroke="none"/>
    <path d="M-229.8 516.3 L-219.2 518.15 -209.15 522.1 -200.05 527.9 -195.1 532.6 -208.95 547.05 -212.45 543.7 -218.25 540.0 -224.65 537.5 -231.4 536.3 -238.25 536.45 -244.95 537.95 -251.2 540.7 -256.8 544.6 -258.95 546.8 -273.35 532.95 -269.9 529.35 -261.05 523.15 -251.15 518.8 -240.6 516.5 -229.8 516.3" fill="#707070" fill-rule="evenodd" stroke="none"/>
    <path d="M-288.75 577.7 L-289.0 566.9 -287.25 557.25 -267.6 560.75 -268.95 568.45 -268.8 575.35 -267.35 582.0 -264.6 588.3 -260.65 593.9 -255.7 598.65 -249.95 602.35 -242.6 605.2 -249.9 623.85 -259.05 620.25 -268.15 614.45 -275.9 607.0 -282.1 598.15 -286.45 588.25 -288.75 577.7" fill="#707070" fill-rule="evenodd" stroke="none"/>
    <path d="M75.85 408.9 L83.05 404.05 94.75 421.35 87.55 426.2 75.85 408.9" fill="#707070" fill-rule="evenodd" stroke="none"/>
    <path d="M118.05 442.95 L113.0 450.0 96.05 437.75 101.1 430.75 118.05 442.95" fill="#707070" fill-rule="evenodd" stroke="none"/>
    <path d="M97.25 303.6 L106.4 310.4 90.3 332.2 81.1 325.4 97.25 303.6" fill="#707070" fill-rule="evenodd" stroke="none"/>
    <path d="M-194.0 453.5 L-204.55 437.5 -181.35 422.2 -170.8 438.25 -194.0 453.5" fill="#707070" fill-rule="evenodd" stroke="none"/>
    <path d="M-306.25 429.5 L-283.55 402.05 -255.5 425.2 -278.2 452.65 -306.25 429.5" fill="#707070" fill-rule="evenodd" stroke="none"/>
    <path d="M-305.75 313.2 L-278.15 290.0 -257.0 316.15 -284.6 339.4 -305.75 313.2" fill="#707070" fill-rule="evenodd" stroke="none"/>
    <path d="M-169.8 305.7 L-180.6 321.6 -203.55 306.05 -192.8 290.15 -169.8 305.7" fill="#707070" fill-rule="evenodd" stroke="none"/>
    <path d="M-204.2 106.05 L-193.45 90.15 -170.45 105.7 -181.25 121.6 -204.2 106.05" fill="#707070" fill-rule="evenodd" stroke="none"/>
    <path d="M-161.1 176.5 L-142.5 181.4 -149.6 208.25 -168.15 203.35 -161.1 176.5" fill="#707070" fill-rule="evenodd" stroke="none"/>
    <path d="M-175.6 328.4 L-158.25 320.25 -146.4 345.3 -163.75 353.5 -175.6 328.4" fill="#707070" fill-rule="evenodd" stroke="none"/>
    <path d="M-174.25 418.05 L-165.3 403.0 -152.95 410.4 -161.85 425.4 -174.25 418.05" fill="#707070" fill-rule="evenodd" stroke="none"/>
    <path d="M-324.3 351.35 L-293.0 351.35 -293.0 391.0 -324.3 391.0 -324.3 351.35" fill="#707070" fill-rule="evenodd" stroke="none"/>
    <path d="M-305.55 229.5 L-282.85 202.05 -254.85 225.2 -277.55 252.65 -305.55 229.5" fill="#707070" fill-rule="evenodd" stroke="none"/>
    <path d="M-305.1 113.2 L-277.5 90.0 -256.3 116.15 -283.9 139.4 -305.1 113.2" fill="#707070" fill-rule="evenodd" stroke="none"/>
    <path d="M-323.65 151.35 L-292.3 151.35 -292.3 191.0 -323.65 191.0 -323.65 151.35" fill="#707070" fill-rule="evenodd" stroke="none"/>
    <path d="M-42.9 209.15 L-34.8 208.7 -27.0 210.05 -23.6 211.3 -20.7 212.95 -18.45 214.85 -16.85 217.0 -16.05 219.25 -16.1 261.5 -21.85 263.4 -52.25 263.4 -57.85 261.5 -57.85 219.25 -56.8 217.0 -55.25 214.9 -53.0 212.95 -50.1 211.35 -46.7 210.05 -42.9 209.15" fill="#ffffff" fill-rule="evenodd" stroke="none"/>
  </g>
</svg>
