<?xml version="1.0" encoding="UTF-8" standalone="no"?>
<svg xmlns:ffdec="https://www.free-decompiler.com/flash" xmlns:xlink="http://www.w3.org/1999/xlink" ffdec:objectType="shape" height="616.0px" width="511.5px" xmlns="http://www.w3.org/2000/svg">
  <g transform="matrix(1.0, 0.0, 0.0, 1.0, 390.4, 554.95)">
    <path d="M121.1 -183.45 L120.1 -173.95 102.1 -91.95 92.1 -68.45 79.1 -46.45 52.1 -12.45 16.6 17.55 Q-3.4 29.05 -23.9 40.05 L-34.9 45.05 Q-51.4 49.55 -67.9 53.55 -79.4 56.55 -91.4 59.05 L-116.9 61.05 -229.4 61.05 -229.4 8.55 -390.4 8.55 -389.4 -319.95 -371.4 -401.95 -348.4 -447.95 -321.4 -481.45 Q-312.4 -489.45 -303.9 -497.95 L-265.9 -523.95 -234.4 -538.95 Q-214.4 -543.95 -194.4 -549.45 L-153.4 -554.45 Q-96.9 -554.45 -40.4 -554.95 L-40.4 -502.45 121.1 -502.45 121.1 -183.45" fill="#424242" fill-rule="evenodd" stroke="none"/>
    <path d="M-70.95 -73.0 L-63.95 -73.0 -63.95 -80.0 -70.95 -80.0 -70.95 -73.0 M49.05 -273.0 L54.05 -273.0 54.05 -218.0 39.55 -218.0 39.55 -216.0 51.55 -216.0 Q51.55 -196.0 51.05 -176.5 L43.05 -129.5 45.55 -129.0 53.55 -176.5 58.55 -176.5 58.55 -177.5 75.55 -177.5 75.55 -181.0 58.55 -181.0 58.55 -182.5 53.55 -183.0 Q54.05 -199.5 54.05 -216.0 L58.55 -216.0 58.55 -226.0 118.05 -226.0 118.05 -183.5 105.55 -182.5 105.55 -181.0 88.55 -181.0 88.55 -177.5 105.55 -177.5 105.55 -175.5 117.05 -174.0 Q116.55 -167.5 115.55 -161.5 110.55 -136.5 105.05 -111.5 L99.05 -92.5 89.55 -94.5 Q89.05 -93.5 88.55 -93.0 L45.05 -112.0 Q45.55 -112.5 45.55 -113.0 L40.55 -115.0 41.55 -117.0 39.05 -117.5 Q37.55 -113.5 35.55 -109.5 37.05 -108.5 38.55 -108.0 L39.55 -109.5 43.55 -107.5 Q44.05 -108.0 44.05 -109.0 L87.55 -90.0 86.55 -88.0 Q91.05 -85.5 95.05 -83.5 91.55 -75.0 87.55 -67.0 76.55 -49.0 65.05 -31.5 57.55 -22.5 49.55 -14.0 L41.55 -20.0 40.05 -19.0 6.55 -52.5 7.55 -53.5 4.05 -56.5 Q9.55 -62.5 14.55 -69.0 L32.55 -96.0 30.05 -97.5 11.55 -69.5 Q7.05 -64.0 2.05 -59.0 -0.95 -55.5 -4.45 -52.5 L-26.95 -35.5 Q-33.95 -31.0 -40.95 -27.0 L-39.95 -25.0 Q-32.45 -29.0 -25.45 -33.5 -12.45 -43.0 0.05 -53.0 L3.05 -49.0 4.55 -50.0 37.55 -17.0 36.55 -15.0 42.55 -7.0 12.55 16.5 Q-6.95 28.0 -26.45 39.0 L-31.45 30.5 -33.45 31.0 -52.45 -12.5 Q-51.45 -12.5 -50.95 -13.0 L-54.95 -20.0 Q-57.95 -18.5 -61.45 -17.5 L-60.45 -15.5 Q-59.45 -15.5 -58.45 -16.0 L-56.45 -10.5 Q-55.45 -10.5 -54.95 -11.0 -45.45 10.5 -36.45 32.0 L-37.95 33.0 -35.95 42.5 -67.95 51.5 Q-81.45 54.5 -95.45 57.0 L-116.95 58.5 -118.95 49.0 -120.95 49.0 Q-120.95 25.5 -121.45 2.0 L-119.95 2.0 -119.95 -3.0 Q-95.95 -7.0 -72.45 -11.5 -72.45 -12.5 -72.95 -13.5 L-119.95 -5.5 -153.45 -5.5 -153.45 -3.0 -126.45 -3.0 Q-125.95 0.0 -125.95 2.5 -124.95 2.5 -124.45 2.0 -123.95 25.5 -123.95 49.0 L-125.95 49.0 -126.95 59.5 -167.45 59.5 -167.45 -3.0 -165.95 -3.0 -165.95 -5.5 -171.45 -5.5 -171.45 -3.0 -169.95 -3.0 -169.95 59.5 -210.45 59.5 Q-210.95 54.5 -211.95 49.0 L-219.95 49.0 -219.95 2.5 -211.45 2.5 Q-211.45 0.0 -211.95 -3.0 L-183.95 -3.0 -183.95 -5.5 -220.95 -5.5 -220.95 -27.5 -222.45 -27.5 -222.45 -3.0 -319.95 -3.0 -319.95 -57.5 -297.45 -57.5 -297.45 -59.5 -319.95 -59.5 -319.95 -73.0 -316.45 -73.0 -316.45 -80.0 -319.95 -80.0 -319.95 -143.0 -316.45 -143.0 -316.45 -144.0 -297.45 -144.0 -297.45 -145.5 -287.95 -145.5 -287.95 -144.0 -278.45 -144.0 -278.45 -124.0 -274.95 -124.0 -274.95 -143.0 -252.45 -143.0 Q-237.95 -138.5 -223.45 -134.5 -212.95 -118.5 -202.45 -103.0 L-274.95 -103.0 -274.95 -109.5 -278.45 -109.5 -278.45 -59.5 -287.95 -59.5 -287.95 -57.5 -222.45 -57.5 -222.45 -40.5 -220.95 -40.5 -220.95 -57.5 -136.45 -57.5 -136.45 -59.5 -198.95 -59.5 -198.95 -97.0 -122.45 -97.0 -122.45 -59.5 -123.45 -59.5 -123.45 -57.5 -119.95 -57.5 -119.95 -97.0 -53.95 -97.0 -53.95 -114.0 -21.45 -114.0 -21.45 -162.5 -23.45 -162.5 -23.45 -116.5 -58.45 -116.5 -58.45 -176.5 -23.45 -176.5 -23.45 -175.5 -21.45 -175.5 -21.45 -176.5 -0.95 -176.5 -0.95 -180.5 -3.45 -180.5 -3.45 -178.5 -53.45 -178.5 -53.45 -216.0 -3.45 -216.0 -3.45 -193.5 -0.95 -193.5 -0.95 -216.0 13.05 -216.0 13.05 -218.0 -1.45 -218.0 -1.45 -283.5 -3.95 -283.5 -3.95 -298.0 -1.45 -298.0 -1.45 -313.5 -3.95 -313.5 -3.95 -328.0 -1.45 -328.0 -1.45 -336.0 49.05 -336.0 49.05 -273.0" fill="#959595" fill-rule="evenodd" stroke="none"/>
    <path d="M-175.4 -70.95 L-186.4 -70.45 -187.4 -95.95 -176.4 -96.45 -175.4 -70.95" fill="#6f6f6f" fill-rule="evenodd" stroke="none"/>
    <path d="M-151.9 -90.45 L-163.4 -89.95 Q-163.4 -92.95 -163.9 -95.95 L-152.4 -96.45 Q-151.9 -93.45 -151.9 -90.45" fill="#6f6f6f" fill-rule="evenodd" stroke="none"/>
    <path d="M-138.9 -90.45 L-150.9 -89.95 -150.9 -95.95 -138.9 -95.95 -138.9 -90.45" fill="#6f6f6f" fill-rule="evenodd" stroke="none"/>
    <path d="M-138.9 48.05 L-149.4 48.55 Q-149.4 36.05 -149.9 23.05 L-138.9 23.05 -138.9 48.05" fill="#6f6f6f" fill-rule="evenodd" stroke="none"/>
    <path d="M-92.9 50.55 L-103.4 52.05 Q-105.4 40.05 -107.9 27.55 L-97.4 25.55 Q-94.9 38.05 -92.9 50.55" fill="#6f6f6f" fill-rule="evenodd" stroke="none"/>
    <path d="M-98.9 23.05 L-106.9 24.55 Q-107.4 20.55 -108.4 16.55 -103.9 16.05 -99.9 15.05 L-98.9 23.05" fill="#6f6f6f" fill-rule="evenodd" stroke="none"/>
    <path d="M-44.9 15.55 L-49.9 17.05 -53.9 6.05 Q-51.4 5.55 -48.9 4.55 L-44.9 15.55" fill="#6f6f6f" fill-rule="evenodd" stroke="none"/>
    <path d="M-41.9 21.05 Q-44.4 22.05 -47.4 23.05 L-49.4 18.05 Q-46.9 17.05 -44.4 15.55 -42.9 18.55 -41.9 21.05" fill="#6f6f6f" fill-rule="evenodd" stroke="none"/>
    <path d="M-192.4 48.55 L-203.4 48.55 -203.4 23.55 -192.4 23.55 -192.4 48.55" fill="#6f6f6f" fill-rule="evenodd" stroke="none"/>
    <path d="M-10.9 8.05 Q-21.4 14.55 -32.4 20.55 L-37.4 11.55 Q-26.9 5.55 -16.4 -0.95 -13.4 3.55 -10.9 8.05" fill="#6f6f6f" fill-rule="evenodd" stroke="none"/>
    <path d="M25.1 -18.45 Q15.6 -10.45 5.6 -2.45 L-0.9 -10.45 18.6 -26.45 25.1 -18.45" fill="#6f6f6f" fill-rule="evenodd" stroke="none"/>
    <path d="M44.1 -35.45 L24.1 -49.45 30.6 -58.45 50.1 -43.95 44.1 -35.45" fill="#6f6f6f" fill-rule="evenodd" stroke="none"/>
    <path d="M61.6 -35.45 L56.6 -38.45 64.6 -49.45 69.1 -45.95 Q65.6 -40.45 61.6 -35.45" fill="#6f6f6f" fill-rule="evenodd" stroke="none"/>
    <path d="M-76.4 -90.45 L-89.4 -90.45 -89.4 -96.95 -76.4 -96.95 -76.4 -90.45" fill="#6f6f6f" fill-rule="evenodd" stroke="none"/>
    <path d="M-61.9 -90.45 L-73.4 -90.45 -73.4 -96.95 -61.9 -96.95 -61.9 -90.45" fill="#6f6f6f" fill-rule="evenodd" stroke="none"/>
    <path d="M74.1 -142.95 L49.6 -147.45 51.6 -157.45 76.1 -153.45 74.1 -142.95" fill="#6f6f6f" fill-rule="evenodd" stroke="none"/>
    <path d="M66.1 -218.95 L60.1 -218.95 60.1 -225.45 66.1 -225.45 66.1 -218.95" fill="#6f6f6f" fill-rule="evenodd" stroke="none"/>
    <path d="M73.6 -218.95 L67.6 -218.95 67.6 -225.45 73.6 -225.45 73.6 -218.95" fill="#6f6f6f" fill-rule="evenodd" stroke="none"/>
    <path d="M-31.9 -128.95 L-56.9 -128.95 -56.9 -139.45 -31.9 -139.45 -31.9 -128.95" fill="#6f6f6f" fill-rule="evenodd" stroke="none"/>
    <path d="M-24.4 -108.45 L-48.9 -108.45 -48.9 -112.45 -24.4 -112.45 -24.4 -108.45" fill="#6f6f6f" fill-rule="evenodd" stroke="none"/>
    <path d="M-26.9 -189.95 L-37.4 -189.95 -37.4 -214.95 -26.9 -214.95 -26.9 -189.95" fill="#6f6f6f" fill-rule="evenodd" stroke="none"/>
    <path d="M-281.4 -30.95 L-270.4 -30.95 -270.4 -2.95 -319.9 -2.95 -319.9 -30.45 -307.9 -30.45 -307.9 -14.95 -281.4 -14.95 -281.4 -30.95" fill="#6f6f6f" fill-rule="evenodd" stroke="none"/>
    <path d="M-245.9 -19.95 L-245.9 -18.95 -244.9 -18.95 -244.9 -2.95 -255.4 -2.95 -255.4 -18.95 -254.4 -18.95 -254.4 -19.95 -250.4 -20.95 -248.9 -20.95 -245.9 -19.95" fill="#6f6f6f" fill-rule="evenodd" stroke="none"/>
    <path d="M52.6 -227.95 L50.1 -227.95 50.1 -235.45 52.6 -235.45 52.6 -227.95" fill="#6f6f6f" fill-rule="evenodd" stroke="none"/>
    <path d="M47.1 -211.45 Q47.6 -210.45 48.1 -209.95 48.1 -208.95 47.6 -208.45 L46.6 -207.45 45.1 -207.45 Q44.6 -207.95 43.6 -208.45 L43.1 -209.95 Q43.6 -210.45 44.1 -211.45 45.1 -211.45 45.6 -211.95 46.6 -211.45 47.1 -211.45" fill="#6f6f6f" fill-rule="evenodd" stroke="none"/>
    <path d="M6.6 -210.45 Q7.1 -209.95 7.6 -209.95 L8.6 -208.95 Q8.6 -207.95 8.1 -207.45 L7.1 -206.45 6.1 -206.45 5.1 -207.45 4.6 -208.95 Q5.1 -209.45 5.1 -209.95 6.1 -209.95 6.6 -210.45" fill="#6f6f6f" fill-rule="evenodd" stroke="none"/>
    <path d="M-52.9 -335.95 L-5.4 -335.95 -5.4 -275.95 -21.9 -275.95 -21.9 -272.95 -31.9 -272.95 -31.9 -275.95 -52.9 -275.95 -52.9 -335.95" fill="#6f6f6f" fill-rule="evenodd" stroke="none"/>
    <path d="M-3.9 -335.95 L-3.9 -275.95 -21.9 -275.95 -21.9 -272.95 -31.9 -272.95 -31.9 -275.95 -52.9 -275.95 -52.9 -335.95 -3.9 -335.95" fill="#6f6f6f" fill-rule="evenodd" stroke="none"/>
    <path d="M-35.4 -306.95 L-35.4 -333.95 -6.4 -333.95 -6.4 -306.95 -35.4 -306.95" fill="#959595" fill-rule="evenodd" stroke="none"/>
    <path d="M-35.4 -277.45 L-35.4 -303.95 -6.4 -303.95 -6.4 -297.95 -3.9 -297.95 -3.9 -283.45 -6.4 -283.45 -6.4 -277.45 -35.4 -277.45" fill="#ffffff" fill-rule="evenodd" stroke="none"/>
    <path d="M-252.4 -142.95 L-202.4 -142.95 -202.4 -102.95 -250.4 -102.95 -250.4 -122.45 -225.4 -122.45 -225.4 -123.95 -252.4 -123.95 -252.4 -142.95" fill="#ffffff" fill-rule="evenodd" stroke="none"/>
  </g>
</svg>
