<?xml version="1.0" encoding="UTF-8" standalone="no"?>
<svg xmlns:ffdec="https://www.free-decompiler.com/flash" xmlns:xlink="http://www.w3.org/1999/xlink" ffdec:objectType="shape" height="616.0px" width="511.5px" xmlns="http://www.w3.org/2000/svg">
  <g transform="matrix(1.0, 0.0, 0.0, 1.0, 390.4, 554.95)">
    <path d="M102.1 -91.95 L92.1 -68.45 79.1 -46.45 52.1 -12.45 Q43.6 -3.95 34.6 4.05 L-3.4 30.05 -34.9 45.05 -74.9 55.55 -125.9 61.05 -229.4 61.05 -229.4 8.55 -390.4 8.55 -389.4 -319.95 Q-385.9 -339.95 -382.9 -360.45 -376.9 -380.95 -371.4 -401.95 L-348.4 -447.95 -321.4 -481.45 Q-312.4 -489.45 -303.9 -497.95 L-265.9 -523.95 -234.4 -538.95 Q-214.4 -543.95 -194.4 -549.45 L-153.4 -554.45 Q-96.9 -554.45 -40.4 -554.95 L-40.4 -502.45 121.1 -502.45 120.1 -173.95 Q114.6 -143.95 108.6 -114.45 105.6 -102.95 102.1 -91.95" fill="#424242" fill-rule="evenodd" stroke="none"/>
    <path d="M-63.4 -338.95 L-63.4 -379.45 -14.9 -379.45 -14.9 -359.45 -39.9 -359.45 -39.9 -358.45 -12.9 -358.45 -12.9 -338.95 -63.4 -338.95" fill="#ffffff" fill-rule="evenodd" stroke="none"/>
    <path d="M-90.4 -165.45 L-91.4 -163.95 -91.4 -83.45 -156.9 -83.45 -156.9 -128.95 -159.9 -128.95 -159.9 -62.45 -156.9 -62.45 -156.9 -80.95 -71.4 -80.95 -71.4 -72.95 -67.4 -72.95 -63.9 -73.95 -63.9 -83.45 -88.4 -83.45 -88.4 -165.45 -90.4 -165.45 M-43.4 -162.45 L-43.4 -165.45 -71.4 -165.45 -71.4 -162.45 -43.4 -162.45 M-68.4 -309.95 L-71.4 -309.95 -71.4 -250.95 -78.4 -250.95 Q-78.4 -248.95 -78.9 -247.45 L-71.4 -247.45 -71.4 -185.45 -68.4 -185.45 -68.4 -242.95 -64.4 -242.95 Q-63.9 -246.45 -63.9 -250.45 L-68.4 -250.45 -68.4 -309.95 M-315.9 -309.95 L-315.9 -317.95 -323.9 -317.95 -323.9 -309.95 -315.9 -309.95 M-323.9 -267.95 L-326.4 -267.95 -326.4 -250.45 -383.9 -250.45 -383.9 -226.45 -387.4 -226.45 -387.4 -309.95 -376.9 -310.45 -376.9 -317.95 -386.4 -319.95 -382.4 -360.45 Q-375.9 -380.45 -369.9 -400.95 -364.9 -399.45 -360.4 -398.45 -359.9 -398.45 -359.9 -398.95 L-285.4 -398.95 -285.4 -250.45 -288.4 -250.45 -288.4 -247.45 -277.9 -247.45 -277.9 -244.95 -275.4 -244.95 -275.4 -247.45 -206.4 -247.45 -206.4 -242.95 -198.9 -242.95 -198.9 -247.45 -159.9 -247.45 -159.9 -216.95 -165.4 -216.95 -165.4 -213.95 -159.9 -213.95 -159.9 -141.95 -156.9 -141.95 -156.9 -162.45 -144.4 -162.45 -144.4 -165.45 -156.9 -165.45 -156.9 -247.45 -106.4 -247.45 -106.4 -250.95 -116.4 -250.95 -116.4 -346.45 -118.9 -346.45 -118.9 -292.45 -161.4 -292.45 -161.4 -367.45 -118.9 -367.45 -118.9 -357.45 -116.4 -357.45 -116.4 -489.45 -71.4 -489.45 -71.4 -475.95 -68.4 -475.95 -68.4 -489.45 49.1 -489.45 49.1 -424.45 39.6 -424.45 Q39.6 -422.95 39.1 -421.45 L49.1 -421.45 49.1 -335.45 39.6 -335.45 39.6 -333.95 26.1 -333.95 26.1 -335.45 12.6 -335.45 12.6 -358.45 10.1 -358.45 10.1 -338.95 -13.4 -338.95 -13.4 -359.45 -15.9 -359.45 -15.9 -379.45 10.1 -379.45 10.1 -372.95 12.6 -372.95 12.6 -421.45 26.1 -421.45 26.1 -424.45 12.6 -424.45 12.6 -437.95 -68.4 -437.95 -68.4 -449.95 -71.4 -449.95 -71.4 -322.95 -68.4 -322.95 -68.4 -327.95 -39.9 -327.95 -39.9 -272.45 -6.4 -272.45 -6.4 -267.95 -3.4 -267.95 -3.4 -254.95 -6.4 -254.95 -6.4 -165.45 -30.4 -165.45 -30.4 -162.45 47.6 -162.45 45.6 -144.95 Q41.1 -128.95 36.1 -112.95 L34.1 -109.95 20.1 -83.45 -0.9 -57.45 -26.9 -36.45 Q-34.4 -31.95 -42.4 -27.95 L-43.4 -26.95 -43.9 -27.45 -56.9 -20.45 Q-72.4 -15.45 -88.4 -10.95 L-156.9 -7.45 -156.9 -49.45 -159.4 -49.45 Q-159.4 -35.45 -159.9 -21.95 L-198.9 -21.95 -198.9 -122.45 -200.9 -122.45 -200.9 -150.95 -198.9 -150.95 -198.9 -164.95 -206.4 -165.45 -206.4 -213.95 -191.4 -213.95 -191.4 -216.95 -275.4 -216.95 -275.4 -218.95 -277.9 -218.95 -277.9 -206.45 -275.4 -206.45 -275.4 -191.45 -277.9 -191.45 -277.9 -176.45 -275.4 -176.45 -275.4 -161.45 -277.9 -161.45 -277.9 -145.95 -288.4 -145.95 -288.4 -142.95 -301.4 -142.95 -301.4 -145.95 -323.9 -145.95 -323.9 -157.95 -316.4 -157.95 -316.4 -165.45 -323.9 -165.45 -323.9 -242.95 -316.4 -242.95 -316.4 -247.45 -314.4 -247.45 -314.4 -250.45 -323.9 -250.45 -323.9 -267.95" fill="#959595" fill-rule="evenodd" stroke="none"/>
    <path d="M-216.4 -540.45 L-214.4 -536.95 Q-216.9 -534.95 -219.9 -533.45 L-228.4 -531.45 Q-227.9 -529.95 -227.9 -528.45 L-232.9 -526.45 Q-233.9 -530.95 -235.4 -535.95 -232.9 -536.45 -230.9 -537.45 L-229.9 -534.95 Q-224.9 -535.95 -220.4 -537.45 L-216.4 -540.45" fill="#959595" fill-rule="evenodd" stroke="none"/>
    <path d="M-287.9 -448.95 L-288.9 -446.45 -290.4 -446.45 -290.4 -446.95 Q-289.9 -446.95 -289.4 -447.45 L-288.4 -449.45 -294.4 -456.45 Q-295.4 -454.45 -296.9 -452.95 -297.9 -453.95 -298.9 -455.45 L-296.9 -458.45 -297.9 -459.45 -299.4 -459.45 -303.4 -459.95 -307.4 -457.95 Q-307.9 -457.45 -308.9 -457.45 L-309.9 -452.45 Q-310.4 -451.45 -311.4 -450.45 L-311.9 -450.95 -310.9 -452.45 Q-309.9 -454.45 -309.4 -456.95 -311.9 -454.95 -314.4 -453.45 L-315.4 -453.45 Q-320.9 -445.95 -326.9 -438.45 -325.9 -437.45 -324.9 -436.95 -323.9 -437.95 -323.4 -439.45 -322.4 -439.45 -321.4 -439.95 -320.9 -439.45 -320.4 -439.45 L-321.9 -438.45 -323.9 -435.45 Q-322.4 -434.45 -320.9 -433.95 -318.4 -434.45 -316.4 -435.45 -314.9 -435.45 -313.9 -435.95 L-313.4 -435.45 Q-314.9 -434.95 -316.4 -434.95 -317.9 -433.95 -319.9 -432.95 L-312.4 -428.45 Q-311.4 -430.45 -310.9 -432.95 L-310.4 -432.95 Q-310.9 -430.45 -311.9 -427.95 L-303.4 -420.95 -298.4 -427.45 -298.4 -424.95 -302.4 -419.95 -298.9 -416.45 Q-295.4 -421.45 -291.9 -426.95 -288.4 -428.95 -285.4 -430.95 L-280.4 -441.95 -287.9 -448.95 M-247.4 -513.95 Q-247.4 -514.45 -247.9 -514.95 L-241.4 -515.45 Q-241.4 -518.45 -241.9 -521.95 -242.4 -521.45 -243.4 -521.45 L-245.4 -523.45 Q-252.4 -519.45 -259.4 -515.95 L-262.4 -519.45 Q-254.4 -522.95 -246.9 -526.45 L-248.4 -529.95 -244.4 -531.95 -239.4 -523.45 Q-237.9 -523.95 -236.4 -524.95 L-236.4 -525.95 -232.4 -525.45 Q-229.9 -521.95 -227.9 -518.45 -227.4 -516.45 -227.4 -514.45 L-215.4 -486.45 -208.4 -489.45 -204.9 -488.95 Q-185.9 -493.95 -167.4 -499.45 L-167.4 -500.45 -162.4 -502.45 -159.4 -506.95 -157.4 -508.95 -157.4 -512.45 -155.4 -515.95 Q-155.4 -524.95 -155.9 -533.95 -155.4 -533.95 -155.4 -534.45 -154.4 -537.95 -153.9 -541.95 L-159.9 -540.95 Q-160.9 -540.95 -161.9 -541.45 -161.9 -542.45 -162.4 -543.45 L-170.4 -542.45 -176.4 -543.45 -177.4 -546.95 -162.9 -546.45 Q-162.9 -548.45 -163.4 -550.95 L-153.9 -551.95 Q-152.9 -547.95 -152.4 -543.95 L-144.9 -542.45 -144.9 -495.45 -150.9 -495.45 Q-150.4 -493.45 -150.4 -491.95 -165.9 -489.45 -181.9 -487.45 -197.4 -482.95 -212.9 -478.95 L-214.4 -482.45 Q-214.9 -481.95 -215.9 -481.95 -215.4 -480.95 -215.4 -479.95 L-218.4 -478.95 -219.4 -480.45 -219.9 -480.45 -218.9 -476.45 Q-226.9 -471.45 -234.9 -466.95 -233.9 -465.45 -232.9 -464.45 L-216.9 -473.45 -216.9 -379.45 Q-231.9 -378.95 -246.9 -378.95 -269.4 -394.45 -292.4 -409.95 L-292.4 -410.45 -273.4 -434.45 Q-270.9 -436.45 -268.9 -438.95 L-254.4 -449.95 -256.4 -452.95 Q-263.9 -446.95 -271.4 -441.45 L-273.9 -443.95 -278.4 -439.95 Q-276.9 -438.45 -275.9 -436.95 -285.4 -424.45 -295.4 -412.45 L-345.9 -446.45 Q-342.4 -450.45 -339.4 -454.45 L-339.4 -457.95 -335.9 -458.95 Q-327.9 -468.95 -320.4 -478.95 L-312.4 -472.95 -307.4 -477.95 -313.4 -485.95 Q-309.4 -488.95 -305.4 -492.45 -303.9 -490.95 -302.9 -489.45 -297.4 -493.45 -292.4 -497.95 L-289.9 -495.45 -300.9 -486.45 Q-300.4 -485.45 -300.4 -484.95 -300.4 -483.95 -300.9 -483.45 L-300.4 -482.95 -299.4 -483.95 -297.4 -486.45 -295.4 -487.95 Q-294.9 -486.95 -294.9 -485.95 -295.4 -485.45 -296.4 -485.45 -296.9 -484.45 -297.9 -483.45 -297.4 -482.45 -297.4 -481.95 L-293.4 -482.45 -292.4 -482.45 -292.4 -481.45 Q-292.9 -481.45 -293.4 -481.95 L-296.4 -481.45 Q-296.9 -480.45 -297.9 -479.95 -294.9 -476.95 -292.4 -473.95 L-289.9 -474.95 Q-289.4 -475.45 -288.9 -476.45 L-287.9 -475.45 -289.4 -474.45 -291.9 -473.45 Q-291.4 -472.45 -291.4 -471.95 -290.4 -471.45 -289.4 -471.45 -289.4 -470.45 -289.9 -469.45 L-286.9 -466.45 Q-284.9 -466.95 -283.4 -467.95 L-283.4 -467.45 Q-284.9 -466.45 -286.4 -465.95 L-282.4 -460.95 -279.4 -460.95 Q-277.9 -461.95 -276.9 -463.45 -274.4 -464.45 -272.4 -465.45 L-270.9 -466.45 Q-271.4 -466.45 -272.4 -466.95 -273.9 -470.95 -275.9 -474.95 -275.4 -475.45 -275.4 -475.95 -273.4 -471.95 -271.9 -467.95 -270.9 -467.45 -270.4 -466.95 L-263.9 -471.95 Q-264.9 -473.95 -266.4 -475.95 -265.9 -475.95 -265.4 -476.45 L-263.4 -472.45 -261.9 -473.45 -261.9 -474.45 Q-258.4 -476.45 -254.9 -478.95 -253.9 -478.45 -252.9 -478.45 L-250.4 -479.45 Q-249.9 -480.45 -249.9 -481.45 -247.9 -482.45 -245.9 -483.95 -246.4 -485.45 -247.4 -486.95 -246.9 -486.95 -246.4 -487.45 -245.4 -485.95 -244.9 -484.45 L-242.4 -486.45 -243.4 -488.95 -235.9 -492.95 Q-235.9 -493.45 -236.4 -493.95 -235.4 -494.95 -234.9 -496.45 -234.9 -496.95 -235.4 -497.95 L-236.4 -496.95 -239.9 -496.95 -239.9 -497.45 -237.4 -497.45 -235.9 -498.45 -238.9 -505.95 -242.9 -504.95 -243.4 -505.45 -239.4 -506.45 -240.4 -511.95 Q-240.9 -511.95 -241.4 -512.45 L-241.4 -514.95 -247.4 -513.95" fill="#959595" fill-rule="evenodd" stroke="none"/>
    <path d="M-365.4 -254.95 L-364.4 -265.45 -334.9 -262.95 -335.9 -252.45 -365.4 -254.95" fill="#6f6f6f" fill-rule="evenodd" stroke="none"/>
    <path d="M-376.4 -264.95 L-367.9 -262.95 Q-368.9 -256.95 -370.4 -251.45 L-378.9 -253.45 Q-377.4 -258.95 -376.4 -264.95" fill="#6f6f6f" fill-rule="evenodd" stroke="none"/>
    <path d="M-302.4 -365.95 L-296.4 -372.95 -289.9 -366.95 -295.9 -360.45 -302.4 -365.95" fill="#6f6f6f" fill-rule="evenodd" stroke="none"/>
    <path d="M-306.9 -332.95 L-305.9 -341.95 -296.9 -340.95 -297.9 -331.95 -306.9 -332.95" fill="#6f6f6f" fill-rule="evenodd" stroke="none"/>
    <path d="M-354.9 -387.95 Q-358.9 -386.95 -363.4 -386.45 -363.9 -390.95 -364.9 -395.45 -360.4 -395.95 -356.4 -396.95 -355.4 -392.45 -354.9 -387.95" fill="#6f6f6f" fill-rule="evenodd" stroke="none"/>
    <path d="M-367.4 -387.95 Q-364.9 -385.95 -362.9 -383.95 -364.9 -381.95 -367.4 -379.95 L-371.4 -383.95 -367.4 -387.95" fill="#6f6f6f" fill-rule="evenodd" stroke="none"/>
    <path d="M-276.9 -424.95 L-259.4 -406.45 -267.4 -399.45 -284.9 -417.95 -276.9 -424.95" fill="#6f6f6f" fill-rule="evenodd" stroke="none"/>
    <path d="M-258.4 -406.45 L-237.9 -389.45 Q-241.4 -384.95 -245.4 -380.45 L-265.9 -396.95 Q-261.9 -401.45 -258.4 -406.45" fill="#6f6f6f" fill-rule="evenodd" stroke="none"/>
    <path d="M-119.4 -345.95 L-147.4 -331.95 Q-149.4 -336.95 -151.9 -341.95 -137.9 -348.45 -124.4 -355.45 L-119.4 -345.95" fill="#6f6f6f" fill-rule="evenodd" stroke="none"/>
    <path d="M-129.4 -302.45 L-130.4 -292.95 -141.9 -293.95 Q-141.4 -298.45 -141.4 -303.45 L-129.4 -302.45" fill="#6f6f6f" fill-rule="evenodd" stroke="none"/>
    <path d="M-67.4 -259.95 L-58.4 -258.95 -59.4 -249.45 -68.4 -250.45 -67.4 -259.95" fill="#6f6f6f" fill-rule="evenodd" stroke="none"/>
    <path d="M-59.4 -223.45 Q-59.4 -218.45 -59.9 -213.95 L-68.9 -214.95 -67.9 -224.45 -59.4 -223.45" fill="#6f6f6f" fill-rule="evenodd" stroke="none"/>
    <path d="M-66.9 -200.95 Q-66.9 -206.45 -67.4 -211.95 L-57.9 -212.45 Q-57.4 -206.95 -57.4 -201.45 L-66.9 -200.95" fill="#6f6f6f" fill-rule="evenodd" stroke="none"/>
    <path d="M-65.9 -199.95 L-55.4 -198.45 Q-55.9 -192.95 -56.9 -187.45 L-48.9 -197.45 -40.4 -190.95 Q-49.9 -178.95 -59.9 -166.95 -63.9 -169.95 -67.9 -173.45 L-57.9 -186.45 -67.9 -187.95 -65.9 -199.95" fill="#6f6f6f" fill-rule="evenodd" stroke="none"/>
    <path d="M-15.4 -227.95 L-7.9 -226.95 -8.9 -217.95 -16.4 -219.45 -15.4 -227.95" fill="#6f6f6f" fill-rule="evenodd" stroke="none"/>
    <path d="M-16.4 -237.95 L-16.4 -238.95 -7.4 -237.95 Q-7.4 -232.95 -7.9 -228.45 L-16.9 -228.95 -16.9 -230.45 -21.9 -230.45 Q-21.4 -234.45 -21.4 -238.45 L-16.4 -237.95" fill="#6f6f6f" fill-rule="evenodd" stroke="none"/>
    <path d="M-16.9 -216.45 L-6.9 -216.95 Q-6.4 -211.45 -6.4 -205.95 L-15.9 -205.45 -16.9 -216.45" fill="#6f6f6f" fill-rule="evenodd" stroke="none"/>
    <path d="M-7.9 -204.95 Q-6.9 -199.45 -6.4 -193.95 L-15.4 -192.95 -16.4 -204.45 -7.9 -204.95" fill="#6f6f6f" fill-rule="evenodd" stroke="none"/>
    <path d="M-14.4 -179.45 L-15.4 -188.45 -7.4 -189.45 Q-6.9 -184.45 -6.9 -179.95 L-14.4 -179.45" fill="#6f6f6f" fill-rule="evenodd" stroke="none"/>
    <path d="M-6.4 -177.45 L-7.4 -166.95 -16.9 -167.45 -15.9 -178.45 -6.4 -177.45" fill="#6f6f6f" fill-rule="evenodd" stroke="none"/>
    <path d="M-83.4 -169.45 Q-82.4 -174.95 -81.9 -180.95 L-72.4 -179.45 Q-72.9 -173.45 -73.9 -167.95 L-83.4 -169.45" fill="#6f6f6f" fill-rule="evenodd" stroke="none"/>
    <path d="M-125.9 -165.95 Q-126.9 -170.45 -128.4 -175.45 L-117.4 -178.45 Q-115.9 -173.95 -114.9 -169.45 -120.4 -167.45 -125.9 -165.95" fill="#6f6f6f" fill-rule="evenodd" stroke="none"/>
    <path d="M-126.4 -135.45 Q-131.9 -138.95 -137.9 -142.45 -142.9 -133.45 -148.4 -124.45 -152.4 -126.45 -156.9 -128.95 -153.9 -133.95 -151.4 -139.45 L-152.4 -151.45 -147.4 -159.45 Q-134.4 -151.45 -121.4 -143.95 -123.9 -139.45 -126.4 -135.45" fill="#6f6f6f" fill-rule="evenodd" stroke="none"/>
    <path d="M-153.4 -98.95 Q-154.4 -110.95 -155.9 -122.95 L-144.9 -123.95 Q-143.4 -111.95 -142.4 -99.95 L-153.4 -98.95" fill="#6f6f6f" fill-rule="evenodd" stroke="none"/>
    <path d="M-198.4 -51.45 L-186.9 -55.45 -176.9 -27.45 Q-182.4 -24.95 -188.4 -22.95 L-198.4 -51.45" fill="#6f6f6f" fill-rule="evenodd" stroke="none"/>
    <path d="M-111.4 -105.45 L-119.9 -111.95 Q-110.9 -124.45 -102.4 -136.95 L-93.9 -130.45 Q-102.4 -117.95 -111.4 -105.45" fill="#6f6f6f" fill-rule="evenodd" stroke="none"/>
    <path d="M-30.4 -95.45 L-20.4 -66.45 Q-24.9 -64.45 -29.9 -62.95 L-29.9 -63.45 -44.9 -42.95 -52.9 -48.95 Q-43.4 -61.45 -33.9 -74.45 L-39.9 -91.95 Q-34.9 -93.45 -30.4 -95.45" fill="#6f6f6f" fill-rule="evenodd" stroke="none"/>
    <path d="M-147.4 -24.45 Q-137.4 -35.95 -127.9 -47.95 -123.9 -44.45 -119.9 -41.45 -129.4 -29.45 -139.4 -17.95 -143.4 -20.95 -147.4 -24.45" fill="#6f6f6f" fill-rule="evenodd" stroke="none"/>
    <path d="M-98.4 -46.45 Q-93.9 -44.95 -89.9 -43.95 L-96.9 -19.45 Q-101.4 -20.45 -105.9 -21.95 -101.9 -33.95 -98.4 -46.45" fill="#6f6f6f" fill-rule="evenodd" stroke="none"/>
    <path d="M-132.4 -8.45 L-132.4 -17.95 -120.4 -17.45 Q-120.4 -12.45 -120.9 -7.95 L-132.4 -8.45" fill="#6f6f6f" fill-rule="evenodd" stroke="none"/>
    <path d="M-155.9 -9.95 Q-155.4 -13.45 -155.4 -17.45 L-145.9 -16.95 -146.9 -8.95 -155.9 -9.95" fill="#6f6f6f" fill-rule="evenodd" stroke="none"/>
    <path d="M-91.4 -18.95 Q-86.9 -19.95 -82.9 -21.45 L-80.9 -13.95 Q-84.9 -12.45 -88.9 -11.45 -89.9 -14.95 -91.4 -18.95" fill="#6f6f6f" fill-rule="evenodd" stroke="none"/>
    <path d="M-73.9 -25.45 L-72.9 -25.45 -69.9 -17.45 -78.9 -14.45 Q-79.9 -18.45 -81.4 -22.95 L-80.9 -22.95 Q-81.4 -25.45 -82.4 -27.95 L-78.4 -28.95 -80.4 -30.95 Q-78.9 -32.45 -77.9 -33.95 -75.9 -31.95 -73.9 -30.45 L-74.9 -28.95 -73.9 -25.45" fill="#6f6f6f" fill-rule="evenodd" stroke="none"/>
    <path d="M-70.9 -26.45 Q-65.4 -27.95 -60.4 -29.95 -58.9 -25.45 -57.9 -20.95 L-68.4 -17.95 Q-69.4 -21.95 -70.9 -26.45" fill="#6f6f6f" fill-rule="evenodd" stroke="none"/>
    <path d="M-58.9 -30.45 L-48.9 -35.45 -44.9 -27.45 -54.9 -22.45 -58.9 -30.45" fill="#6f6f6f" fill-rule="evenodd" stroke="none"/>
    <path d="M-45.9 -35.95 L-37.9 -39.95 -34.4 -33.45 Q-38.4 -30.95 -42.4 -28.95 -43.9 -32.45 -45.9 -35.95" fill="#6f6f6f" fill-rule="evenodd" stroke="none"/>
    <path d="M-36.9 -40.95 Q-32.9 -42.95 -28.9 -45.45 -26.9 -41.95 -25.4 -38.45 L-33.4 -34.45 -36.9 -40.95" fill="#6f6f6f" fill-rule="evenodd" stroke="none"/>
    <path d="M-87.4 -23.95 Q-88.4 -22.45 -89.9 -20.95 -91.9 -22.45 -93.9 -24.45 L-91.9 -27.45 -87.4 -23.95" fill="#6f6f6f" fill-rule="evenodd" stroke="none"/>
    <path d="M-119.4 -17.45 Q-113.4 -18.45 -107.9 -19.95 -106.9 -14.95 -106.4 -10.45 -111.9 -8.95 -117.4 -7.95 L-119.4 -17.45" fill="#6f6f6f" fill-rule="evenodd" stroke="none"/>
    <path d="M-29.9 -48.45 L-10.9 -64.45 -3.9 -56.45 -22.9 -40.45 -29.9 -48.45" fill="#6f6f6f" fill-rule="evenodd" stroke="none"/>
    <path d="M-103.9 -158.45 Q-103.4 -153.45 -103.4 -148.95 L-114.9 -147.95 Q-114.9 -152.95 -115.4 -157.95 L-103.9 -158.45" fill="#6f6f6f" fill-rule="evenodd" stroke="none"/>
    <path d="M-105.4 -93.45 L-106.4 -83.45 -117.9 -84.45 -116.9 -94.45 -105.4 -93.45" fill="#6f6f6f" fill-rule="evenodd" stroke="none"/>
    <path d="M-72.9 -93.45 L-72.9 -83.45 -87.4 -83.95 Q-86.9 -88.45 -86.9 -93.45 L-72.9 -93.45" fill="#6f6f6f" fill-rule="evenodd" stroke="none"/>
    <path d="M-25.4 -53.45 L-30.9 -56.45 Q-29.4 -58.95 -28.4 -61.95 -25.4 -60.45 -22.9 -59.45 -23.9 -56.45 -25.4 -53.45" fill="#6f6f6f" fill-rule="evenodd" stroke="none"/>
    <path d="M-117.9 -71.45 L-117.9 -79.45 -107.4 -79.45 -107.4 -79.95 -97.9 -79.45 -97.9 -71.45 -107.4 -71.95 -107.4 -71.45 -108.9 -71.45 -108.9 -65.45 -115.9 -65.45 Q-115.9 -68.45 -116.4 -71.45 L-117.9 -71.45" fill="#6f6f6f" fill-rule="evenodd" stroke="none"/>
    <path d="M-83.9 -70.45 Q-83.9 -73.95 -84.4 -77.95 L-85.4 -69.95 -97.4 -71.95 Q-96.4 -76.45 -95.9 -80.95 L-84.4 -79.45 -84.4 -79.95 -72.4 -79.95 -72.4 -70.45 -83.9 -70.45" fill="#6f6f6f" fill-rule="evenodd" stroke="none"/>
    <path d="M-75.9 -161.95 Q-75.9 -156.95 -76.4 -151.95 L-87.9 -152.45 Q-87.4 -156.95 -87.4 -161.95 L-75.9 -161.95" fill="#6f6f6f" fill-rule="evenodd" stroke="none"/>
    <path d="M-63.9 -156.95 L-62.9 -147.45 -74.4 -145.95 -75.4 -155.95 -63.9 -156.95" fill="#6f6f6f" fill-rule="evenodd" stroke="none"/>
    <path d="M-31.4 -132.45 L-31.4 -121.45 -41.9 -121.45 -41.9 -132.45 -31.4 -132.45" fill="#6f6f6f" fill-rule="evenodd" stroke="none"/>
    <path d="M-13.9 -135.45 Q-8.9 -133.45 -4.4 -131.95 -4.4 -131.45 -4.9 -130.95 -0.4 -128.95 4.1 -127.45 L0.1 -116.95 -9.4 -120.95 Q-8.9 -121.45 -8.9 -121.95 -13.4 -123.45 -17.9 -125.45 L-13.9 -135.45" fill="#6f6f6f" fill-rule="evenodd" stroke="none"/>
    <path d="M-8.4 -161.45 L12.1 -160.45 Q12.1 -154.45 11.6 -148.95 L1.6 -149.95 1.6 -149.45 -9.4 -150.45 -8.4 -161.45" fill="#6f6f6f" fill-rule="evenodd" stroke="none"/>
    <path d="M-9.9 -119.45 Q-12.9 -114.45 -16.4 -109.45 L-24.9 -114.95 Q-21.4 -119.95 -18.4 -124.95 L-9.9 -119.45" fill="#6f6f6f" fill-rule="evenodd" stroke="none"/>
    <path d="M-17.9 -107.95 Q-20.4 -103.95 -23.4 -99.95 -27.4 -102.95 -31.9 -105.95 L-30.9 -106.95 -33.9 -108.95 Q-31.4 -111.95 -29.4 -114.95 L-26.9 -112.95 -25.9 -113.95 -17.9 -107.95" fill="#6f6f6f" fill-rule="evenodd" stroke="none"/>
    <path d="M-8.4 -102.95 Q-11.4 -98.45 -14.9 -94.45 -18.4 -96.95 -22.4 -99.45 -18.9 -103.95 -15.9 -108.45 L-8.4 -102.95" fill="#6f6f6f" fill-rule="evenodd" stroke="none"/>
    <path d="M0.6 -76.95 Q4.6 -74.45 8.1 -72.45 L2.6 -62.45 Q-1.4 -64.45 -5.4 -66.95 -4.4 -67.95 -3.9 -69.45 L-7.9 -66.45 Q-17.4 -77.95 -27.4 -89.45 L-19.4 -96.45 -0.9 -74.95 Q0.1 -75.95 0.6 -76.95" fill="#6f6f6f" fill-rule="evenodd" stroke="none"/>
    <path d="M3.1 -77.95 Q7.1 -81.95 10.6 -86.45 L17.6 -80.45 9.6 -71.95 3.1 -77.95" fill="#6f6f6f" fill-rule="evenodd" stroke="none"/>
    <path d="M-0.9 -114.95 L-6.9 -104.95 Q-11.4 -107.45 -15.9 -110.45 -12.4 -115.45 -9.4 -120.45 L-0.9 -114.95" fill="#6f6f6f" fill-rule="evenodd" stroke="none"/>
    <path d="M13.6 -91.95 L19.1 -101.95 Q23.1 -99.45 27.1 -97.45 24.6 -92.45 21.6 -87.95 L13.6 -91.95" fill="#6f6f6f" fill-rule="evenodd" stroke="none"/>
    <path d="M28.6 -122.95 Q30.6 -128.45 32.1 -134.45 L40.6 -131.45 37.6 -120.45 Q33.1 -121.45 28.6 -122.95" fill="#6f6f6f" fill-rule="evenodd" stroke="none"/>
    <path d="M32.6 -134.95 Q34.6 -140.45 36.1 -145.95 40.6 -144.45 44.6 -143.45 L41.6 -132.45 Q37.1 -133.45 32.6 -134.95" fill="#6f6f6f" fill-rule="evenodd" stroke="none"/>
    <path d="M36.1 -148.45 Q37.1 -153.45 37.6 -158.95 L46.6 -157.95 Q46.1 -152.45 45.1 -147.45 L36.1 -148.45" fill="#6f6f6f" fill-rule="evenodd" stroke="none"/>
    <path d="M12.6 -131.95 L-10.9 -137.95 -7.9 -149.45 19.1 -142.45 Q18.1 -138.45 16.6 -134.45 17.6 -134.95 18.6 -135.95 L34.6 -109.45 Q32.6 -107.95 30.6 -106.95 31.1 -106.45 31.6 -106.45 L27.6 -98.95 Q24.1 -100.45 20.6 -102.45 L22.6 -106.45 8.6 -129.95 12.6 -131.95" fill="#6f6f6f" fill-rule="evenodd" stroke="none"/>
    <path d="M-92.9 -157.95 Q-92.9 -153.95 -93.4 -149.95 L-101.9 -149.95 -101.9 -157.95 -92.9 -157.95" fill="#6f6f6f" fill-rule="evenodd" stroke="none"/>
    <path d="M-144.4 -167.45 Q-143.4 -171.95 -142.9 -176.95 L-131.4 -175.95 Q-131.9 -170.95 -132.9 -165.95 L-144.4 -167.45" fill="#6f6f6f" fill-rule="evenodd" stroke="none"/>
    <path d="M-93.9 -219.95 Q-90.4 -227.95 -87.4 -235.95 L-107.4 -240.95 -105.4 -250.45 -83.9 -244.45 Q-82.9 -246.45 -82.4 -248.95 L-72.9 -244.95 Q-78.4 -230.45 -84.4 -215.95 L-93.9 -219.95" fill="#6f6f6f" fill-rule="evenodd" stroke="none"/>
    <path d="M-37.4 -263.95 L-30.4 -271.45 -7.9 -250.95 -14.9 -242.95 -37.4 -263.95" fill="#6f6f6f" fill-rule="evenodd" stroke="none"/>
    <path d="M-123.4 -325.95 L-122.4 -314.45 -131.9 -313.95 -132.9 -325.45 -123.4 -325.95" fill="#6f6f6f" fill-rule="evenodd" stroke="none"/>
    <path d="M-146.9 -316.95 Q-147.4 -310.95 -148.4 -305.45 L-157.9 -306.95 Q-156.9 -312.45 -156.4 -318.45 L-146.9 -316.95" fill="#6f6f6f" fill-rule="evenodd" stroke="none"/>
    <path d="M-32.4 -489.95 L48.1 -489.95 48.1 -485.95 -32.4 -485.95 -32.4 -489.95" fill="#6f6f6f" fill-rule="evenodd" stroke="none"/>
  </g>
</svg>
