<?xml version="1.0" encoding="UTF-8" standalone="no"?>
<svg xmlns:ffdec="https://www.free-decompiler.com/flash" xmlns:xlink="http://www.w3.org/1999/xlink" ffdec:objectType="shape" height="22.0px" width="28.65px" xmlns="http://www.w3.org/2000/svg">
  <g transform="matrix(1.0, 0.0, 0.0, 1.0, 0.0, -1.0)">
    <path d="M27.85 4.4 L28.6 5.85 28.65 6.1 28.65 20.15 28.65 20.3 28.3 21.35 28.2 21.5 27.45 22.4 27.25 22.6 26.25 23.0 26.05 23.0 2.6 23.0 2.45 23.0 1.45 22.6 1.2 22.4 0.45 21.5 0.4 21.35 0.05 20.3 0.0 20.15 0.0 6.1 0.1 5.85 0.85 4.4 0.9 4.3 1.95 3.2 2.05 3.15 3.5 2.15 3.6 2.1 5.3 1.45 5.4 1.4 7.05 1.0 21.55 1.0 21.7 1.05 23.35 1.45 23.4 1.45 25.1 2.1 25.2 2.15 26.65 3.15 27.75 4.3 27.85 4.4 M27.0 4.95 L26.1 4.0 24.65 3.0 23.1 2.4 21.55 2.05 7.2 2.05 5.65 2.4 4.05 3.0 4.0 3.0 2.6 4.0 1.65 4.95 1.0 6.2 1.0 20.1 1.3 20.95 1.9 21.7 2.75 22.0 25.95 22.0 26.75 21.7 27.4 20.95 27.65 20.1 27.65 6.2 27.0 4.95" fill="#000000" fill-rule="evenodd" stroke="none"/>
    <path d="M27.0 4.95 L27.65 6.2 27.65 20.1 27.4 20.95 26.75 21.7 25.95 22.0 2.75 22.0 1.9 21.7 1.3 20.95 1.0 20.1 1.0 6.2 1.65 4.95 2.6 4.0 4.0 3.0 4.05 3.0 5.65 2.4 7.2 2.05 21.55 2.05 23.1 2.4 24.65 3.0 26.1 4.0 27.0 4.95" fill="#ffffff" fill-rule="evenodd" stroke="none"/>
  </g>
</svg>
