<?xml version="1.0" encoding="UTF-8" standalone="no"?>
<svg xmlns:ffdec="https://www.free-decompiler.com/flash" xmlns:xlink="http://www.w3.org/1999/xlink" ffdec:objectType="shape" height="26.6px" width="43.0px" xmlns="http://www.w3.org/2000/svg">
  <g transform="matrix(1.0, 0.0, 0.0, 1.0, -11.7, -17.9)">
    <path d="M46.4 21.35 L46.4 44.5 42.8 44.5 42.8 21.35 34.5 21.35 34.5 17.9 54.7 17.9 54.7 21.35 46.4 21.35 M31.7 22.7 Q32.3 24.2 32.3 26.05 32.3 30.25 28.85 32.45 31.45 34.25 31.45 38.0 L31.45 41.25 Q31.45 42.15 31.6 42.85 L32.1 44.5 28.45 44.5 28.0 43.15 Q27.85 42.5 27.85 41.6 L27.85 38.0 Q27.85 34.25 23.75 34.25 L15.3 34.25 15.3 44.5 11.7 44.5 11.7 17.9 23.55 17.9 Q25.55 17.9 27.15 18.45 28.8 19.05 29.95 20.1 31.05 21.2 31.7 22.7 M28.65 26.05 Q28.65 21.35 23.55 21.35 L15.3 21.35 15.3 30.75 23.65 30.75 Q26.05 30.75 27.35 29.5 28.65 28.25 28.65 26.05" fill="#ffffff" fill-rule="evenodd" stroke="none"/>
  </g>
</svg>
