<?xml version="1.0" encoding="UTF-8" standalone="no"?>
<svg xmlns:ffdec="https://www.free-decompiler.com/flash" xmlns:xlink="http://www.w3.org/1999/xlink" ffdec:objectType="shape" height="54.0px" width="304.0px" xmlns="http://www.w3.org/2000/svg">
  <g transform="matrix(1.0, 0.0, 0.0, 1.0, 2.0, 2.0)">
    <path d="M2.0 -2.0 L298.0 -2.0 Q302.0 -2.0 302.0 2.0 L302.0 48.0 Q302.0 52.0 298.0 52.0 L2.0 52.0 Q-2.0 52.0 -2.0 48.0 L-2.0 2.0 Q-2.0 -2.0 2.0 -2.0 M300.0 2.0 Q300.0 0.0 298.0 0.0 L2.0 0.0 Q0.0 0.0 0.0 2.0 L0.0 48.0 Q0.0 50.0 2.0 50.0 L298.0 50.0 Q300.0 50.0 300.0 48.0 L300.0 2.0" fill="#000000" fill-rule="evenodd" stroke="none"/>
  </g>
</svg>
