<?xml version="1.0" encoding="UTF-8" standalone="no"?>
<svg xmlns:ffdec="https://www.free-decompiler.com/flash" xmlns:xlink="http://www.w3.org/1999/xlink" ffdec:objectType="morphshape" height="15.4px" width="168.45px" xmlns="http://www.w3.org/2000/svg">
  <g transform="matrix(1.0, 0.0, 0.0, 1.0, -8.3, -12.7)">
    <path d="M9.05 20.6 Q17.65 25.1 25.95 23.85 28.8 23.1 31.65 22.3 L35.35 20.6 39.0 19.0 Q41.85 17.85 44.65 17.45 52.9 16.25 61.85 20.6 70.8 25.0 78.15 23.75 81.9 23.1 85.6 20.6 89.3 18.1 94.45 17.25 102.8 15.85 109.85 20.6 116.9 25.4 124.2 24.0 128.85 23.15 131.6 20.6 134.8 17.7 138.0 16.95 144.65 15.4 153.6 20.6 162.35 25.7 170.05 23.7 173.9 22.65 176.0 20.6" fill="none" stroke="#666666" stroke-linecap="round" stroke-linejoin="round" stroke-opacity="0.6" stroke-width="1.5">
      <animate attributeName="stroke" dur="2s" repeatCount="indefinite" values="#666666;#666667"/>
      <animate attributeName="stroke-width" dur="2s" repeatCount="indefinite" values="1.5;1.5"/>
      <animate attributeName="fill-opacity" dur="2s" repeatCount="indefinite" values="0.6;0.6"/>
      <animate attributeName="d" dur="2s" repeatCount="indefinite" values="M9.05 20.6 Q17.65 25.1 25.95 23.85 28.8 23.1 31.65 22.3 L35.35 20.6 39.0 19.0 Q41.85 17.85 44.65 17.45 52.9 16.25 61.85 20.6 70.8 25.0 78.15 23.75 81.9 23.1 85.6 20.6 89.3 18.1 94.45 17.25 102.8 15.85 109.85 20.6 116.9 25.4 124.2 24.0 128.85 23.15 131.6 20.6 134.8 17.7 138.0 16.95 144.65 15.4 153.6 20.6 162.35 25.7 170.05 23.7 173.9 22.65 176.0 20.6;M9.05 20.1 Q17.65 12.0 25.95 14.25 28.75 15.1 31.65 17.05 L35.35 20.1 39.0 23.0 Q41.85 25.05 44.65 25.8 52.9 27.95 61.85 20.1 70.8 12.2 78.15 14.45 81.9 15.6 85.6 20.1 89.3 24.6 94.45 26.15 102.8 28.65 109.85 20.1 116.9 11.5 124.2 14.0 128.85 15.55 131.6 20.1 134.8 25.35 138.0 26.7 144.65 29.5 153.6 20.1 162.35 10.95 170.05 14.55 173.9 16.45 176.0 20.1"/>
    </path>
  </g>
</svg>
