<?xml version="1.0" encoding="UTF-8" standalone="no"?>
<svg xmlns:ffdec="https://www.free-decompiler.com/flash" xmlns:xlink="http://www.w3.org/1999/xlink" ffdec:objectType="shape" height="1545.25px" width="1574.8px" xmlns="http://www.w3.org/2000/svg">
  <g transform="matrix(1.0, 0.0, 0.0, 1.0, 503.15, 858.7)">
    <path d="M568.3 -19.85 L580.8 -10.2 607.45 13.95 607.7 14.3 629.65 37.95 659.65 79.5 667.95 93.55 676.1 109.55 695.25 155.8 700.2 171.65 716.8 239.05 722.5 255.8 738.3 286.5 751.0 305.9 770.25 327.95 788.05 343.8 1071.65 581.45 984.05 686.55 740.15 482.3 674.2 426.65 651.2 401.2 622.55 361.1 605.95 331.4 599.75 317.8 586.65 284.05 581.75 268.3 565.2 201.2 559.7 185.05 543.3 153.2 534.7 139.45 530.9 135.6 515.6 117.65 499.7 101.35 486.55 91.05 467.3 77.7 449.7 68.1 433.65 60.85 407.65 52.3 383.1 48.15 347.2 46.1 81.25 46.1 81.25 150.9 -503.15 150.9 -503.15 -199.5 -363.65 -199.5 -363.65 -252.7 -455.65 -252.7 -455.65 -660.7 -414.15 -660.7 -414.15 -772.7 -352.5 -772.7 -352.75 -803.9 -349.7 -818.1 -343.4 -831.15 -334.1 -842.3 -322.45 -850.9 -309.05 -856.45 -294.7 -858.7 -280.25 -857.4 -266.55 -852.65 -254.35 -844.8 -244.4 -834.25 -237.25 -821.65 -233.35 -807.65 -233.1 -772.7 -171.65 -772.7 -171.65 -660.7 -132.65 -660.7 -132.65 -252.7 -224.1 -252.7 -224.1 -199.5 81.25 -199.5 81.25 -91.2 369.1 -90.95 403.3 -88.15 420.4 -85.3 420.7 -85.2 452.0 -77.7 484.65 -67.15 500.75 -60.4 538.65 -40.1 568.3 -19.85" fill="#434343" fill-rule="evenodd" stroke="none"/>
    <path d="M2.75 40.3 L2.75 37.05 -59.3 37.05 -59.3 5.55 -68.35 5.55 -68.35 28.6 -78.35 28.6 -78.35 41.6 -70.0 41.6 -70.0 46.95 -66.85 46.95 -66.85 87.3 -70.0 87.3 -70.0 92.55 -64.35 92.55 -64.35 56.55 -62.15 56.55 -62.15 42.45 -22.4 42.45 -22.4 40.3 2.75 40.3 M-149.0 28.6 L-168.65 28.6 -168.65 41.6 -149.0 41.6 -149.0 28.6 M-149.0 -89.0 L-168.65 -89.0 -168.65 -74.35 -149.0 -74.35 -149.0 -89.0 M-258.35 28.6 L-258.35 41.6 -239.35 41.6 -239.35 28.6 -258.35 28.6 M-329.35 41.6 L-329.35 29.3 -348.0 29.3 -348.0 41.6 -329.35 41.6 M-258.35 -89.0 L-258.35 -74.35 -239.35 -74.35 -239.35 -89.0 -258.35 -89.0 M-348.35 -89.0 L-348.35 -74.7 -329.35 -74.7 -329.35 -89.0 -348.35 -89.0 M-329.25 -388.7 L-329.25 -402.0 -347.0 -402.0 -347.0 -388.7 -329.25 -388.7 M-431.0 -402.0 L-431.0 -388.7 -419.55 -388.7 -419.55 -402.0 -431.0 -402.0 M-419.55 -525.0 L-431.0 -525.0 -431.0 -513.7 -419.55 -513.7 -419.55 -525.0 M-329.25 -513.7 L-329.25 -525.0 -347.0 -525.0 -347.0 -513.7 -329.25 -513.7 M-240.55 -388.7 L-240.55 -402.0 -256.65 -402.0 -256.65 -388.7 -240.55 -388.7 M-168.0 -388.7 L-156.9 -388.7 -156.9 -402.0 -168.0 -402.0 -168.0 -388.7 M-240.55 -513.7 L-240.55 -525.0 -256.65 -525.0 -256.65 -513.7 -240.55 -513.7 M-156.9 -525.0 L-168.0 -525.0 -168.0 -513.7 -156.9 -513.7 -156.9 -525.0 M403.6 -69.7 L424.1 -65.2 420.65 -49.6 430.85 -47.0 434.8 -63.0 456.1 -57.35 481.25 -48.35 500.25 -39.5 493.4 -25.25 502.1 -20.1 509.45 -34.5 529.05 -24.5 551.75 -10.4 568.45 2.25 556.3 17.25 564.25 24.35 576.15 10.4 592.45 25.25 610.55 44.85 623.3 61.5 611.05 70.9 616.0 77.95 629.1 68.15 641.7 86.15 655.1 109.25 663.9 128.3 649.9 134.8 653.75 145.6 668.85 139.4 676.9 159.9 684.45 185.5 688.5 206.1 673.25 209.1 675.65 217.85 691.7 214.8 694.7 230.1 698.95 245.15 705.4 262.45 691.55 268.1 693.35 274.35 706.85 268.3 712.85 281.3 720.85 296.3 731.1 312.55 718.95 321.15 719.45 321.85 723.45 326.55 736.1 316.8 745.1 328.55 756.6 340.3 770.1 351.8 759.4 364.1 765.3 370.0 775.45 357.65 815.2 390.35 804.65 403.2 811.0 408.5 820.95 396.4 860.7 429.1 850.6 441.4 856.9 446.6 866.95 434.4 906.7 467.1 896.45 479.55 903.3 485.3 913.1 473.35 953.6 506.6 943.4 519.0 949.25 523.95 958.95 512.15 998.7 544.85 988.65 557.05 995.25 562.65 1005.35 550.35 1045.85 583.6 1035.35 596.35 1039.45 599.8 994.4 653.35 990.9 650.4 981.0 662.45 940.55 629.2 950.8 616.7 944.2 611.15 933.9 623.7 894.1 591.0 904.8 578.0 898.95 573.1 888.75 585.45 848.3 552.2 858.85 539.35 852.0 533.6 841.9 545.95 802.1 513.25 812.45 500.7 806.15 495.45 795.9 507.95 756.1 475.25 766.55 462.55 760.2 457.25 750.4 469.2 710.6 436.5 720.65 424.3 713.5 417.2 702.85 429.55 689.6 417.05 670.6 397.55 655.35 379.05 667.95 369.3 661.8 361.6 648.85 370.8 635.35 351.55 622.6 328.3 614.75 309.95 628.95 303.55 626.3 294.45 610.65 300.75 602.75 280.25 595.3 254.6 591.4 233.95 606.7 231.05 604.4 222.7 588.35 225.85 585.25 210.6 580.9 195.55 574.35 178.3 588.95 172.25 586.1 164.3 571.25 171.15 564.65 157.05 556.85 143.5 547.4 129.3 559.95 119.95 555.65 113.8 555.4 113.55 542.3 123.6 532.75 111.3 522.2 99.75 509.85 88.0 518.75 77.6 512.15 71.7 503.6 82.3 483.1 68.05 463.6 55.3 470.2 42.35 462.95 38.05 456.1 52.3 410.35 35.3 413.9 20.9 405.75 18.8 402.35 34.55 387.1 31.3 371.6 29.3 354.6 28.3 354.65 12.75 346.6 12.75 346.6 28.5 294.35 28.5 294.35 12.75 286.1 12.75 286.1 28.5 233.85 28.5 233.85 12.75 226.35 12.75 226.35 28.5 174.1 28.5 174.1 12.75 166.35 12.75 166.35 28.5 114.1 28.5 114.1 12.75 105.85 12.75 105.85 28.5 53.6 28.5 53.6 11.8 50.1 11.8 50.1 5.55 45.1 5.55 45.1 37.05 16.6 37.05 16.6 40.3 39.85 40.3 39.85 88.8 27.85 88.8 27.85 91.35 14.0 91.35 14.0 88.8 -22.4 88.8 -22.4 68.55 -31.85 68.55 -31.85 124.95 -64.35 124.95 -64.35 107.05 -70.0 107.05 -70.0 108.3 -78.35 108.3 -78.35 119.3 -87.35 119.3 -87.35 126.3 -139.65 126.3 -139.65 119.3 -149.0 119.3 -149.0 108.3 -168.65 108.3 -168.65 119.3 -177.65 119.3 -177.65 126.3 -230.0 126.3 -230.0 119.3 -239.35 119.3 -239.35 108.3 -258.35 108.3 -258.35 118.3 -268.0 118.3 -268.0 126.6 -320.0 126.6 -320.0 118.3 -329.35 118.3 -329.35 108.3 -348.0 108.3 -348.0 118.3 -372.65 118.3 -372.65 119.8 -393.35 119.8 -393.35 118.3 -419.35 118.3 -419.35 108.3 -429.0 108.3 -429.0 41.6 -419.35 41.6 -419.35 29.3 -429.35 29.3 -429.35 5.6 -402.85 5.6 -402.85 2.9 -383.65 2.9 -383.65 5.6 -333.65 5.6 -333.65 -13.0 -338.65 -13.0 -338.65 -33.7 -333.65 -33.7 -333.65 -51.0 -428.35 -51.0 -428.35 -74.7 -418.65 -74.7 -418.65 -89.0 -427.65 -89.0 -427.65 -155.0 -419.35 -155.0 -419.35 -165.8 -394.4 -165.8 -394.4 -167.45 -373.75 -167.45 -373.75 -165.8 -348.0 -165.8 -348.0 -155.0 -329.35 -155.0 -329.35 -165.7 -320.0 -165.7 -320.0 -178.45 -329.2 -178.45 -329.2 -190.5 -338.75 -190.5 -338.75 -266.55 -329.2 -266.55 -329.2 -279.6 -348.1 -279.6 -348.1 -271.45 -419.0 -271.45 -419.0 -279.6 -431.0 -279.6 -431.0 -272.15 -437.9 -272.15 -437.9 -641.35 -431.0 -641.35 -431.0 -636.7 -419.55 -636.7 -419.55 -644.7 -347.0 -644.7 -347.0 -636.7 -329.25 -636.7 -329.25 -644.35 -338.0 -644.35 -338.0 -687.5 -341.15 -687.5 -341.15 -703.35 -338.0 -703.35 -338.0 -716.7 -341.15 -716.7 -341.15 -732.85 -338.0 -732.85 -338.0 -751.0 -340.0 -751.0 -340.2 -801.0 -338.8 -812.15 -334.75 -822.7 -328.3 -831.95 -319.75 -839.4 -309.65 -844.65 -298.55 -847.35 -287.15 -847.35 -276.05 -844.65 -265.95 -839.4 -257.4 -831.95 -250.9 -822.7 -246.9 -812.15 -245.5 -801.0 -245.5 -751.0 -248.6 -751.0 -248.6 -732.85 -245.1 -732.85 -245.1 -716.7 -248.6 -716.7 -248.6 -703.35 -245.1 -703.35 -245.1 -687.5 -248.6 -687.5 -248.6 -644.35 -256.65 -644.35 -256.65 -636.7 -240.55 -636.7 -240.55 -643.35 -168.0 -643.35 -168.0 -636.7 -156.9 -636.7 -156.9 -641.35 -150.0 -641.35 -150.0 -272.15 -156.9 -272.15 -156.9 -279.6 -169.2 -279.6 -169.2 -271.45 -240.1 -271.45 -240.1 -279.6 -258.3 -279.6 -258.3 -266.55 -249.45 -266.55 -249.45 -190.5 -257.85 -190.5 -257.85 -178.45 -268.0 -178.45 -268.0 -165.7 -258.35 -165.7 -258.35 -155.0 -239.35 -155.0 -239.35 -166.0 -230.0 -166.0 -230.0 -172.0 -177.65 -172.0 -177.65 -166.0 -168.65 -166.0 -168.65 -155.0 -149.0 -155.0 -149.0 -166.0 -139.65 -166.0 -139.65 -172.0 -87.35 -172.0 -87.35 -166.0 -78.35 -166.0 -78.35 -155.0 -68.65 -155.0 -68.65 -89.0 -78.35 -89.0 -78.35 -74.35 -68.35 -74.35 -68.35 -51.3 -59.3 -51.3 -59.3 -83.0 45.1 -83.0 45.1 -51.3 50.1 -51.3 50.1 -57.95 53.6 -57.95 53.6 -74.7 105.85 -74.7 105.85 -57.2 114.1 -57.2 114.1 -74.7 166.35 -74.7 166.35 -57.2 174.1 -57.2 174.1 -74.7 226.35 -74.7 226.35 -57.2 233.85 -57.2 233.85 -74.7 286.1 -74.7 286.1 -57.2 294.35 -57.2 294.35 -74.7 346.6 -74.7 346.6 -57.2 355.0 -57.2 355.1 -73.7 377.1 -72.95 403.6 -69.7" fill="#969696" fill-rule="evenodd" stroke="none"/>
    <path d="M-349.65 -194.35 L-349.35 -194.35 -349.35 -193.35 -349.65 -193.35 -349.65 -194.35" fill="#969696" fill-rule="evenodd" stroke="none"/>
    <path d="M-333.0 -802.8 L-331.0 -812.4 -326.7 -821.25 -320.4 -828.8 -312.5 -834.65 -303.4 -838.45 -293.7 -839.9 -283.9 -839.05 -274.65 -835.85 -266.35 -830.5 -259.65 -823.4 -254.8 -814.85 -252.15 -805.35 -251.85 -795.55 -253.85 -785.95 -258.15 -777.1 -264.45 -769.55 -272.35 -763.7 -281.4 -759.95 -291.15 -758.45 -300.9 -759.3 -310.2 -762.5 -318.5 -767.85 -325.2 -774.95 -330.05 -783.5 -332.7 -793.0 -333.0 -802.8" fill="#707070" fill-rule="evenodd" stroke="none"/>
    <path d="M-248.6 -753.7 L-248.6 -750.2 -267.3 -750.2 -267.3 -748.45 -320.8 -748.45 -320.8 -750.2 -338.0 -750.2 -338.0 -753.7 -320.8 -753.7 -320.8 -755.45 -267.3 -755.45 -267.3 -753.7 -248.6 -753.7" fill="#707070" fill-rule="evenodd" stroke="none"/>
    <path d="M-374.0 -739.85 L-374.0 -745.35 -341.15 -745.35 -341.15 -674.35 -374.0 -674.35 -374.0 -679.35 -394.5 -679.35 -394.5 -739.85 -374.0 -739.85" fill="#707070" fill-rule="evenodd" stroke="none"/>
    <path d="M-383.55 0.8 L-385.9 0.8 -385.9 2.9 -399.65 2.9 -399.65 0.8 -471.15 0.8 -471.15 -42.3 -383.55 -42.3 -383.55 0.8" fill="#707070" fill-rule="evenodd" stroke="none"/>
    <path d="M21.35 47.05 L21.35 40.3 40.65 40.3 40.65 88.8 35.6 88.8 35.6 47.05 21.35 47.05" fill="#707070" fill-rule="evenodd" stroke="none"/>
    <path d="M3.65 79.95 L3.65 82.7 11.4 82.7 11.4 88.8 -22.4 88.8 -22.4 79.95 3.65 79.95" fill="#707070" fill-rule="evenodd" stroke="none"/>
    <path d="M-9.9 40.3 L-9.9 49.3 -56.4 49.3 -56.4 89.55 -65.0 89.55 -65.0 40.3 -9.9 40.3" fill="#707070" fill-rule="evenodd" stroke="none"/>
    <path d="M-34.0 71.9 L-25.4 71.9 -25.4 114.4 -34.0 114.4 -34.0 71.9" fill="#707070" fill-rule="evenodd" stroke="none"/>
    <path d="M-35.3 120.05 L-35.3 124.95 -61.9 124.95 -61.9 120.05 -35.3 120.05" fill="#707070" fill-rule="evenodd" stroke="none"/>
    <path d="M-212.3 -739.85 L-191.8 -739.85 -191.8 -679.35 -212.3 -679.35 -212.3 -674.35 -245.1 -674.35 -245.1 -745.35 -212.3 -745.35 -212.3 -739.85" fill="#707070" fill-rule="evenodd" stroke="none"/>
    <path d="M-338.65 -38.7 L-338.65 -7.35 -369.1 -7.35 -369.1 -38.7 -338.65 -38.7" fill="#ffffff" fill-rule="evenodd" stroke="none"/>
    <path d="M1041.35 601.05 L996.6 656.05 990.55 651.15 1035.35 596.15 1041.35 601.05" fill="#ffffff" fill-rule="evenodd" stroke="none"/>
  </g>
</svg>
