<?xml version="1.0" encoding="UTF-8" standalone="no"?>
<svg xmlns:ffdec="https://www.free-decompiler.com/flash" xmlns:xlink="http://www.w3.org/1999/xlink" ffdec:objectType="shape" height="720.0px" width="1280.0px" xmlns="http://www.w3.org/2000/svg">
  <g transform="matrix(1.0, 0.0, 0.0, 1.0, 0.0, 0.0)">
    <path d="M961.65 360.0 Q961.65 226.75 867.4 132.55 773.2 38.35 640.0 38.35 506.8 38.35 412.55 132.55 318.35 226.75 318.35 360.0 318.35 493.2 412.55 587.4 506.8 681.65 640.0 681.65 773.2 681.65 867.4 587.4 961.65 493.2 961.65 360.0 M1280.0 720.0 L0.0 720.0 0.0 0.0 1280.0 0.0 1280.0 720.0" fill="#000000" fill-rule="evenodd" stroke="none"/>
    <path d="M961.65 360.0 Q961.65 493.2 867.4 587.4 773.2 681.65 640.0 681.65 506.8 681.65 412.55 587.4 318.35 493.2 318.35 360.0 318.35 226.75 412.55 132.55 506.8 38.35 640.0 38.35 773.2 38.35 867.4 132.55 961.65 226.75 961.65 360.0" fill="url(#gradient0)" fill-rule="evenodd" stroke="none"/>
  </g>
  <defs>
    <radialGradient cx="0" cy="0" gradientTransform="matrix(0.4358, 0.0, 0.0, 0.4358, 640.0, 360.0)" gradientUnits="userSpaceOnUse" id="gradient0" r="819.2" spreadMethod="pad">
      <stop offset="0.592156862745098" stop-color="#000000" stop-opacity="0.0"/>
      <stop offset="1.0" stop-color="#000000" stop-opacity="0.8"/>
    </radialGradient>
  </defs>
</svg>
