<?xml version="1.0" encoding="UTF-8" standalone="no"?>
<svg xmlns:ffdec="https://www.free-decompiler.com/flash" xmlns:xlink="http://www.w3.org/1999/xlink" ffdec:objectType="shape" height="139.0px" width="154.55px" xmlns="http://www.w3.org/2000/svg">
  <g transform="matrix(1.0, 0.0, 0.0, 1.0, -52.2, -56.0)">
    <path d="M172.7 72.65 L160.3 72.65 160.3 124.25 172.7 124.25 Q179.5 124.25 182.55 120.35 185.7 116.55 185.7 109.8 L185.7 87.05 Q185.7 80.4 182.55 76.55 179.5 72.65 172.7 72.65 M188.25 58.15 Q194.55 60.25 198.8 64.25 203.0 68.2 204.85 73.8 206.75 79.55 206.75 86.35 L206.75 110.6 Q206.75 124.55 198.8 132.65 190.8 140.9 172.7 140.9 L160.3 140.9 160.3 195.0 139.15 195.0 139.15 56.0 172.7 56.0 Q181.75 56.0 188.25 58.15 M119.1 86.35 L119.1 105.1 Q119.1 112.35 115.3 117.45 111.4 122.6 105.95 125.1 112.55 127.45 115.8 133.3 119.1 139.25 119.1 147.25 L119.1 179.3 Q119.1 183.4 119.8 187.65 120.4 191.85 121.85 195.0 L100.4 195.0 Q98.85 192.0 98.45 189.15 98.05 186.15 98.05 181.15 L98.05 148.1 Q98.05 141.55 94.85 137.65 91.65 133.85 85.05 133.85 L73.3 133.85 73.3 195.0 52.2 195.0 52.2 56.0 85.05 56.0 Q94.2 56.0 100.65 58.15 106.95 60.3 111.15 64.25 115.35 68.2 117.2 73.8 119.1 79.55 119.1 86.35 M85.05 72.65 L73.3 72.65 73.3 118.5 85.05 118.5 Q91.65 118.5 94.85 114.65 98.05 110.75 98.05 104.15 L98.05 87.05 Q98.05 80.35 94.85 76.5 91.65 72.65 85.05 72.65" fill="#ffffff" fill-rule="evenodd" stroke="none"/>
  </g>
</svg>
