<?xml version="1.0" encoding="UTF-8" standalone="no"?>
<svg xmlns:ffdec="https://www.free-decompiler.com/flash" xmlns:xlink="http://www.w3.org/1999/xlink" ffdec:objectType="shape" height="75.05px" width="171.3px" xmlns="http://www.w3.org/2000/svg">
  <g transform="matrix(1.0, 0.0, 0.0, 1.0, 0.0, 0.0)">
    <path d="M171.3 26.95 L169.05 28.75 132.25 44.2 122.6 46.45 117.8 48.05 107.65 54.05 95.55 66.45 89.75 70.75 83.85 73.9 70.85 75.05 63.2 74.25 53.85 72.55 48.5 72.0 31.6 72.35 22.85 73.1 19.25 72.85 17.1 72.15 15.05 70.5 10.7 58.0 9.1 54.85 7.1 53.05 2.45 51.5 0.0 51.0 14.95 45.65 21.1 44.4 27.05 41.75 32.85 38.45 36.25 37.3 39.85 37.0 43.95 37.15 48.6 36.35 53.2 33.75 54.2 33.6 55.4 33.8 56.3 34.6 58.15 36.7 59.3 37.35 61.15 38.15 63.35 38.35 65.8 38.0 135.15 19.25 134.7 17.4 134.05 9.7 138.1 7.6 139.6 4.35 154.55 0.0 163.5 15.95 171.3 26.95" fill="#ffffff" fill-rule="evenodd" stroke="none"/>
  </g>
</svg>
