<?xml version="1.0" encoding="UTF-8" standalone="no"?>
<svg xmlns:ffdec="https://www.free-decompiler.com/flash" xmlns:xlink="http://www.w3.org/1999/xlink" ffdec:objectType="shape" height="49.6px" width="47.2px" xmlns="http://www.w3.org/2000/svg">
  <g transform="matrix(1.0, 0.0, 0.0, 1.0, 0.0, 0.0)">
    <path d="M47.1 25.15 L25.55 25.15 25.5 25.05 25.5 24.75 25.55 24.7 25.6 24.65 47.1 24.65 47.2 24.7 47.2 25.05 47.2 25.15 47.1 25.15" fill="url(#gradient0)" fill-rule="evenodd" stroke="none"/>
    <path d="M23.45 0.0 L23.75 0.0 23.85 0.05 23.85 22.85 23.85 22.95 23.75 22.95 23.4 22.95 23.35 22.85 23.35 0.1 23.4 0.05 23.45 0.0" fill="url(#gradient1)" fill-rule="evenodd" stroke="none"/>
    <path d="M21.7 24.7 L21.7 25.05 21.7 25.15 21.6 25.15 0.05 25.15 0.0 25.05 0.0 24.75 0.05 24.7 0.1 24.65 21.6 24.65 21.7 24.7" fill="url(#gradient2)" fill-rule="evenodd" stroke="none"/>
    <path d="M23.75 26.75 L23.85 26.8 23.85 49.5 23.85 49.6 23.75 49.6 23.4 49.6 23.35 49.5 23.35 26.85 23.4 26.8 23.45 26.75 23.75 26.75" fill="url(#gradient3)" fill-rule="evenodd" stroke="none"/>
  </g>
  <defs>
    <linearGradient gradientTransform="matrix(0.0145, -1.0E-4, 0.0, 0.0373, 35.45, 19.35)" gradientUnits="userSpaceOnUse" id="gradient0" spreadMethod="pad" x1="-819.2" x2="819.2">
      <stop offset="0.0" stop-color="#f0f0f0"/>
      <stop offset="1.0" stop-color="#ffffff" stop-opacity="0.0"/>
    </linearGradient>
    <linearGradient gradientTransform="matrix(-1.0E-4, -0.0154, 0.0355, 0.0, 18.35, 12.4)" gradientUnits="userSpaceOnUse" id="gradient1" spreadMethod="pad" x1="-819.2" x2="819.2">
      <stop offset="0.0" stop-color="#f0f0f0"/>
      <stop offset="1.0" stop-color="#ffffff" stop-opacity="0.0"/>
    </linearGradient>
    <linearGradient gradientTransform="matrix(-0.0145, 1.0E-4, 0.0, -0.0373, 11.75, 30.45)" gradientUnits="userSpaceOnUse" id="gradient2" spreadMethod="pad" x1="-819.2" x2="819.2">
      <stop offset="0.0" stop-color="#f0f0f0"/>
      <stop offset="1.0" stop-color="#ffffff" stop-opacity="0.0"/>
    </linearGradient>
    <linearGradient gradientTransform="matrix(1.0E-4, 0.0153, -0.0355, 0.0, 28.85, 37.25)" gradientUnits="userSpaceOnUse" id="gradient3" spreadMethod="pad" x1="-819.2" x2="819.2">
      <stop offset="0.0" stop-color="#f0f0f0"/>
      <stop offset="1.0" stop-color="#ffffff" stop-opacity="0.0"/>
    </linearGradient>
  </defs>
</svg>
