<?xml version="1.0" encoding="UTF-8" standalone="no"?>
<svg xmlns:ffdec="https://www.free-decompiler.com/flash" xmlns:xlink="http://www.w3.org/1999/xlink" ffdec:objectType="shape" height="16.0px" width="16.0px" xmlns="http://www.w3.org/2000/svg">
  <g transform="matrix(1.0, 0.0, 0.0, 1.0, 8.0, 8.0)">
    <path d="M-3.45 -7.6 L-2.85 -7.1 -2.4 -6.5 -2.1 -5.8 -2.0 -5.0 -2.1 -4.2 -2.4 -3.5 -2.85 -2.85 -3.45 -2.4 -4.2 -2.1 -4.95 -2.0 -5.75 -2.1 -6.5 -2.4 -7.1 -2.85 -7.55 -3.5 -7.85 -4.2 -8.0 -5.0 -7.85 -5.8 -7.55 -6.5 -7.1 -7.1 -6.5 -7.6 -5.75 -7.9 -4.95 -8.0 -4.2 -7.9 -3.45 -7.6" fill="#000000" fill-rule="evenodd" stroke="none"/>
    <path d="M8.0 8.0 L-8.0 8.0 -8.0 -8.0 8.0 -8.0 8.0 8.0" fill="#009a33" fill-opacity="0.0" fill-rule="evenodd" stroke="none"/>
    <path d="M-4.65 -6.4 L-4.95 -6.45 -5.5 -6.2 -5.7 -5.6 -6.2 -5.6 -6.1 -6.1 -5.85 -6.5 Q-5.55 -6.9 -4.95 -6.9 L-4.15 -6.6 Q-3.8 -6.3 -3.8 -5.85 L-3.9 -5.45 -4.1 -5.1 -4.3 -4.95 -4.45 -4.85 -4.65 -4.7 -4.9 -4.55 -5.5 -4.15 -5.75 -3.75 -3.85 -3.75 -3.85 -3.3 -6.25 -3.3 -6.25 -3.5 Q-6.25 -4.1 -5.9 -4.45 L-5.75 -4.6 -5.55 -4.7 -5.35 -4.85 -5.15 -4.95 -4.45 -5.4 Q-4.3 -5.6 -4.3 -5.85 L-4.35 -6.1 -4.45 -6.25 -4.65 -6.4" fill="#ffffff" fill-rule="evenodd" stroke="none"/>
  </g>
</svg>
