<?xml version="1.0" encoding="UTF-8" standalone="no"?>
<svg xmlns:ffdec="https://www.free-decompiler.com/flash" xmlns:xlink="http://www.w3.org/1999/xlink" ffdec:objectType="shape" height="16.0px" width="16.0px" xmlns="http://www.w3.org/2000/svg">
  <g transform="matrix(1.0, 0.0, 0.0, 1.0, 8.0, 8.0)">
    <path d="M-3.45 -7.6 L-2.85 -7.1 -2.4 -6.5 -2.1 -5.8 -2.0 -5.0 -2.1 -4.2 -2.4 -3.5 -2.85 -2.85 -3.45 -2.4 -4.2 -2.1 -4.95 -2.0 -5.75 -2.1 -6.5 -2.4 -7.1 -2.85 -7.55 -3.5 -7.85 -4.2 -8.0 -5.0 -7.85 -5.8 -7.55 -6.5 -7.1 -7.1 -6.5 -7.6 -5.75 -7.9 -4.95 -8.0 -4.2 -7.9 -3.45 -7.6" fill="#000000" fill-rule="evenodd" stroke="none"/>
    <path d="M8.0 8.0 L-8.0 8.0 -8.0 -8.0 8.0 -8.0 8.0 8.0" fill="#009a33" fill-opacity="0.0" fill-rule="evenodd" stroke="none"/>
    <path d="M-3.7 -6.25 L-4.65 -4.95 -5.1 -3.15 -5.55 -3.15 -5.45 -4.05 -5.2 -4.9 -4.85 -5.6 -4.4 -6.2 -6.1 -6.2 -6.1 -6.65 -3.7 -6.65 -3.7 -6.25" fill="#ffffff" fill-rule="evenodd" stroke="none"/>
  </g>
</svg>
