<?xml version="1.0" encoding="UTF-8" standalone="no"?>
<svg xmlns:ffdec="https://www.free-decompiler.com/flash" xmlns:xlink="http://www.w3.org/1999/xlink" ffdec:objectType="shape" height="16.0px" width="16.0px" xmlns="http://www.w3.org/2000/svg">
  <g transform="matrix(1.0, 0.0, 0.0, 1.0, 8.0, 8.0)">
    <path d="M-3.45 -7.6 L-2.85 -7.1 -2.4 -6.5 -2.1 -5.8 -2.0 -5.0 -2.1 -4.2 -2.4 -3.5 -2.85 -2.85 -3.45 -2.4 -4.2 -2.1 -4.95 -2.0 -5.75 -2.1 -6.5 -2.4 -7.1 -2.85 -7.55 -3.5 -7.85 -4.2 -8.0 -5.0 -7.85 -5.8 -7.55 -6.5 -7.1 -7.1 -6.5 -7.6 -5.75 -7.9 -4.95 -8.0 -4.2 -7.9 -3.45 -7.6" fill="#000000" fill-rule="evenodd" stroke="none"/>
    <path d="M8.0 -8.0 L8.0 8.0 -8.0 8.0 -8.0 -8.0 8.0 -8.0" fill="#009a33" fill-opacity="0.0" fill-rule="evenodd" stroke="none"/>
    <path d="M-4.05 -6.45 L-3.8 -5.85 -4.3 -5.85 -4.5 -6.25 -4.9 -6.4 -5.5 -6.1 -5.75 -5.25 -5.4 -5.55 -4.95 -5.65 Q-4.4 -5.65 -4.1 -5.3 -3.75 -4.95 -3.75 -4.4 -3.75 -3.85 -4.1 -3.5 L-4.5 -3.25 -4.95 -3.2 Q-5.55 -3.2 -5.85 -3.55 -6.25 -4.0 -6.25 -4.8 L-5.95 -6.25 Q-5.6 -6.85 -4.9 -6.85 -4.35 -6.85 -4.05 -6.45 M-5.7 -4.4 L-5.65 -4.1 -5.5 -3.85 -5.25 -3.65 -4.95 -3.6 -4.4 -3.8 Q-4.25 -4.0 -4.25 -4.4 L-4.4 -5.0 -4.95 -5.2 -5.5 -4.95 -5.7 -4.4" fill="#ffffff" fill-rule="evenodd" stroke="none"/>
  </g>
</svg>
