<?xml version="1.0" encoding="UTF-8" standalone="no"?>
<svg xmlns:ffdec="https://www.free-decompiler.com/flash" xmlns:xlink="http://www.w3.org/1999/xlink" ffdec:objectType="shape" height="129.0px" width="129.0px" xmlns="http://www.w3.org/2000/svg">
  <g transform="matrix(1.0, 0.0, 0.0, 1.0, 64.5, 64.5)">
    <path d="M-24.8 -19.35 L-25.15 -18.95 Q-27.8 -15.55 -29.3 -11.65 L-29.35 -11.65 -29.55 -11.0 -29.55 -10.95 Q-31.5 -5.85 -31.5 0.05 L-31.35 2.55 -31.35 2.6 -31.35 3.25 -31.35 3.3 Q-30.95 7.55 -29.45 11.35 L-29.25 11.9 Q-28.0 15.05 -25.95 17.95 L-25.9 18.0 -25.6 18.45 -22.3 22.3 Q-13.05 31.5 -0.05 31.5 13.05 31.5 22.25 22.3 31.5 13.1 31.5 0.05 31.5 -13.0 22.25 -22.25 13.05 -31.45 -0.05 -31.45 -11.1 -31.45 -19.45 -24.75 L-19.5 -24.7 -19.9 -24.4 -19.9 -24.35 -22.3 -22.25 -24.75 -19.4 -24.8 -19.35 M-20.05 -25.55 Q-11.4 -32.45 -0.05 -32.45 13.45 -32.45 22.95 -22.95 32.5 -13.4 32.5 0.05 32.5 13.5 22.95 23.0 13.45 32.5 -0.05 32.5 -13.45 32.5 -23.0 23.0 -24.9 21.1 -26.4 19.05 L-26.75 18.55 Q-28.9 15.55 -30.2 12.25 L-30.2 12.2 -30.4 11.7 Q-31.95 7.75 -32.35 3.35 L-32.35 3.3 -32.35 2.65 -32.5 0.05 Q-32.5 -6.05 -30.5 -11.3 L-30.5 -11.25 -30.25 -12.05 -30.25 -12.0 Q-28.7 -16.05 -25.95 -19.55 L-25.55 -20.0 -23.0 -22.95 -20.6 -25.1 -20.55 -25.1 -20.05 -25.55 M-44.55 -16.65 L-44.55 -16.6 Q-47.5 -8.9 -47.5 0.0 L-47.3 3.8 -47.3 3.85 -47.25 4.85 Q-46.65 11.3 -44.45 17.05 L-44.15 17.85 -44.1 17.9 Q-42.2 22.7 -39.15 27.05 L-38.6 27.8 -33.6 33.6 Q-19.7 47.5 -0.05 47.5 19.65 47.5 33.55 33.6 47.5 19.7 47.5 0.0 47.5 -19.65 33.55 -33.6 19.65 -47.5 -0.05 -47.5 -16.7 -47.5 -29.25 -37.4 L-29.3 -37.35 -30.0 -36.85 -30.0 -36.8 -33.6 -33.6 -37.35 -29.35 -37.4 -29.3 -37.85 -28.65 -37.9 -28.65 Q-41.9 -23.5 -44.2 -17.65 L-44.55 -16.65 M-45.5 -16.95 L-45.5 -16.9 -45.15 -18.0 Q-42.8 -24.0 -38.7 -29.2 L-38.15 -29.95 -34.3 -34.3 -30.65 -37.6 -30.7 -37.55 -29.9 -38.2 Q-17.1 -48.5 -0.05 -48.5 20.05 -48.5 34.25 -34.3 48.5 -20.05 48.5 0.0 48.5 20.1 34.25 34.3 20.05 48.5 -0.05 48.5 -20.1 48.5 -34.3 34.3 -37.15 31.45 -39.4 28.4 L-39.95 27.65 Q-43.1 23.2 -45.05 18.25 L-45.4 17.4 Q-47.65 11.5 -48.25 4.95 L-48.3 3.9 -48.5 0.0 Q-48.5 -9.1 -45.5 -16.95 M-39.75 -50.8 L-39.8 -50.8 Q-22.8 -64.5 -0.1 -64.5 26.65 -64.5 45.55 -45.6 64.5 -26.65 64.5 0.0 64.5 26.75 45.55 45.6 26.65 64.5 -0.1 64.5 -26.75 64.5 -45.65 45.6 -49.45 41.85 -52.4 37.8 L-53.15 36.75 Q-57.35 30.85 -59.95 24.3 L-60.4 23.15 Q-63.4 15.3 -64.2 6.6 L-64.3 5.2 -64.5 0.0 Q-64.5 -12.1 -60.55 -22.55 L-60.55 -22.5 -60.05 -23.95 -60.05 -23.9 Q-56.95 -31.9 -51.5 -38.9 L-51.5 -38.85 -50.75 -39.85 -50.7 -39.85 -45.65 -45.6 -40.8 -49.95 -39.75 -50.8 M-0.1 -63.5 Q-22.4 -63.5 -39.15 -50.0 L-39.2 -50.0 -40.15 -49.2 -44.95 -44.9 -49.95 -39.25 -49.95 -39.2 -50.7 -38.3 Q-56.05 -31.4 -59.1 -23.55 L-59.15 -23.55 -59.6 -22.25 -59.6 -22.2 Q-63.5 -11.9 -63.5 0.0 L-63.3 5.1 -63.3 5.15 -63.2 6.55 Q-62.4 15.1 -59.45 22.8 L-59.05 23.9 -59.0 23.95 Q-56.45 30.35 -52.35 36.15 L-52.35 36.2 -51.6 37.2 Q-48.65 41.15 -44.95 44.9 -26.35 63.5 -0.1 63.5 26.25 63.5 44.85 44.9 63.5 26.35 63.5 0.0 63.5 -26.25 44.85 -44.9 26.25 -63.5 -0.1 -63.5 M0.0 -16.5 Q6.8 -16.5 11.65 -11.7 16.5 -6.85 16.5 -0.05 16.5 6.8 11.65 11.6 6.8 16.45 0.0 16.45 -6.85 16.45 -11.65 11.6 L-13.4 9.6 -13.6 9.35 Q-14.6 7.9 -15.25 6.25 L-15.3 6.2 -15.45 5.95 -15.45 5.9 Q-16.2 3.85 -16.4 1.65 L-16.45 1.3 -16.5 -0.05 Q-16.5 -3.15 -15.45 -5.8 L-15.35 -6.1 Q-14.55 -8.15 -13.15 -9.9 L-13.15 -9.95 -13.0 -10.2 -11.65 -11.7 -10.45 -12.75 -10.15 -13.0 Q-5.85 -16.5 0.0 -16.5 M10.95 -11.0 Q6.4 -15.5 0.0 -15.5 -5.45 -15.5 -9.5 -12.2 L-9.7 -12.1 -9.65 -12.1 -9.8 -12.0 -10.95 -11.0 -12.2 -9.6 -12.25 -9.55 -12.25 -9.5 -12.35 -9.35 Q-13.65 -7.7 -14.4 -5.75 L-14.4 -5.8 -14.5 -5.5 -14.5 -5.45 Q-15.5 -2.95 -15.5 -0.05 L-15.45 1.2 -15.45 1.25 -15.4 1.5 -15.4 1.55 Q-15.2 3.65 -14.5 5.55 L-14.4 5.7 -14.35 5.8 -12.8 8.8 -12.75 8.8 -12.65 8.95 -12.6 9.0 -10.95 10.9 Q-6.45 15.45 0.0 15.45 6.4 15.45 10.95 10.9 15.5 6.4 15.5 -0.05 15.5 -6.45 10.95 -11.0" fill="#000000" fill-rule="evenodd" stroke="none"/>
  </g>
</svg>
