<?xml version="1.0" encoding="UTF-8" standalone="no"?>
<svg xmlns:ffdec="https://www.free-decompiler.com/flash" xmlns:xlink="http://www.w3.org/1999/xlink" ffdec:objectType="shape" height="13.9px" width="13.0px" xmlns="http://www.w3.org/2000/svg">
  <g transform="matrix(1.0, 0.0, 0.0, 1.0, 6.3, 7.1)">
    <path d="M6.3 -0.8 L2.1 -0.8 Q2.4 0.45 3.45 1.45 L3.45 1.5 Q4.65 2.7 6.05 2.85 L6.7 2.95 6.7 6.8 5.85 6.65 Q4.3 6.35 2.85 5.55 L1.95 5.0 1.95 6.75 -1.95 6.75 -1.95 -0.8 -6.3 -0.8 0.0 -7.1 6.3 -0.8" fill="#000000" fill-opacity="0.69411767" fill-rule="evenodd" stroke="none"/>
    <path d="M4.5 -1.55 L1.25 -1.55 Q1.3 0.45 2.9 2.0 4.35 3.45 5.95 3.6 L5.95 5.9 Q4.55 5.65 3.2 4.9 1.85 4.1 1.2 3.15 L1.2 6.0 -1.2 6.0 -1.2 -1.55 -4.5 -1.55 0.0 -6.05 4.5 -1.55" fill="#ffffff" fill-rule="evenodd" stroke="none"/>
  </g>
</svg>
