<?xml version="1.0" encoding="UTF-8" standalone="no"?>
<svg xmlns:ffdec="https://www.free-decompiler.com/flash" xmlns:xlink="http://www.w3.org/1999/xlink" ffdec:objectType="shape" height="18.0px" width="18.0px" xmlns="http://www.w3.org/2000/svg">
  <g transform="matrix(1.0, 0.0, 0.0, 1.0, 9.0, 5.0)">
    <path d="M5.55 -1.55 Q3.2 -3.95 0.0 -3.95 -3.2 -3.95 -5.55 -1.55 -7.95 0.8 -7.95 4.0 -7.95 7.2 -5.55 9.55 -3.2 11.95 0.0 11.95 3.2 11.95 5.55 9.55 7.95 7.2 7.95 4.0 7.95 0.8 5.55 -1.55 M0.0 -5.0 Q3.6 -5.0 6.3 -2.3 9.0 0.4 9.0 4.0 9.0 7.6 6.3 10.3 3.6 13.0 0.0 13.0 -3.6 13.0 -6.3 10.3 -9.0 7.6 -9.0 4.0 -9.0 0.4 -6.3 -2.3 -3.6 -5.0 0.0 -5.0" fill="#000000" fill-rule="evenodd" stroke="none"/>
  </g>
</svg>
