<?xml version="1.0" encoding="UTF-8" standalone="no"?>
<svg xmlns:ffdec="https://www.free-decompiler.com/flash" xmlns:xlink="http://www.w3.org/1999/xlink" ffdec:objectType="shape" height="93.0px" width="120.0px" xmlns="http://www.w3.org/2000/svg">
  <g transform="matrix(1.0, 0.0, 0.0, 1.0, 60.0, 46.8)">
    <path d="M7.5 -26.0 L-7.5 -26.0 -7.5 -27.0 7.5 -27.0 7.5 -26.0 M11.0 -35.0 L-11.0 -35.0 -11.0 -36.0 11.0 -36.0 11.0 -35.0 M5.5 -17.0 L-5.5 -17.0 -5.5 -18.0 5.5 -18.0 5.5 -17.0 M4.5 -8.0 L-4.5 -8.0 -4.5 -9.0 4.5 -9.0 4.5 -8.0 M60.0 -44.95 L60.0 -44.0 59.9 -44.0 -59.95 -44.0 -60.0 -44.05 -60.0 -44.9 -59.95 -44.95 -59.9 -45.0 59.9 -45.0 60.0 -44.95 M-4.0 0.0 L4.0 0.0 4.0 1.0 -4.0 1.0 -4.0 0.0 M-4.5 9.0 L4.5 9.0 4.5 10.0 -4.5 10.0 -4.5 9.0 M-5.5 18.0 L5.5 18.0 5.5 19.0 -5.5 19.0 -5.5 18.0 M-11.0 36.0 L11.0 36.0 11.0 37.0 -11.0 37.0 -11.0 36.0 M-7.5 27.0 L7.5 27.0 7.5 28.0 -7.5 28.0 -7.5 27.0 M-59.9 45.0 L59.9 45.0 60.0 45.05 60.0 46.1 60.0 46.2 59.9 46.2 -59.95 46.2 -60.0 46.1 -60.0 45.1 -59.95 45.05 -59.9 45.0" fill="#000000" fill-opacity="0.9882353" fill-rule="evenodd" stroke="none"/>
    <path d="M4.5 -8.3 L-4.5 -8.3 -4.5 -9.3 4.5 -9.3 4.5 -8.3 M5.5 -17.3 L-5.5 -17.3 -5.5 -18.3 5.5 -18.3 5.5 -17.3 M11.0 -35.3 L-11.0 -35.3 -11.0 -36.3 11.0 -36.3 11.0 -35.3 M7.5 -26.3 L-7.5 -26.3 -7.5 -27.3 7.5 -27.3 7.5 -26.3 M59.9 -44.3 L-59.95 -44.3 -60.0 -44.35 -60.0 -45.2 -59.95 -45.25 -59.9 -45.3 59.9 -45.3 60.0 -45.25 60.0 -44.3 59.9 -44.3 M-7.5 26.7 L7.5 26.7 7.5 27.7 -7.5 27.7 -7.5 26.7 M-11.0 35.7 L11.0 35.7 11.0 36.7 -11.0 36.7 -11.0 35.7 M-5.5 17.7 L5.5 17.7 5.5 18.7 -5.5 18.7 -5.5 17.7 M-4.5 8.7 L4.5 8.7 4.5 9.7 -4.5 9.7 -4.5 8.7 M-59.9 44.7 L59.9 44.7 60.0 44.75 60.0 45.8 60.0 45.9 59.9 45.9 -59.95 45.9 -60.0 45.8 -60.0 44.8 -59.95 44.75 -59.9 44.7 M4.0 0.7 L-4.0 0.7 -4.0 -0.3 4.0 -0.3 4.0 0.7" fill="#000000" fill-rule="evenodd" stroke="none"/>
    <path d="M60.0 -44.0 L59.9 -44.0 -59.95 -44.0 -60.0 -44.05 -60.0 -44.9 -59.95 -44.95 -59.9 -45.0 59.9 -45.0 60.0 -44.95 60.0 -44.0 M59.9 46.2 L-59.95 46.2 -60.0 46.1 -60.0 45.1 -59.95 45.05 -59.9 45.0 59.9 45.0 60.0 45.05 60.0 46.1 60.0 46.2 59.9 46.2" fill="#000000" fill-opacity="0.9882353" fill-rule="evenodd" stroke="none"/>
    <path d="M4.0 -0.8 L-4.0 -0.8 -4.0 -1.8 4.0 -1.8 4.0 -0.8 M7.5 -27.8 L-7.5 -27.8 -7.5 -28.8 7.5 -28.8 7.5 -27.8 M11.0 -36.8 L-11.0 -36.8 -11.0 -37.8 11.0 -37.8 11.0 -36.8 M5.5 -18.8 L-5.5 -18.8 -5.5 -19.8 5.5 -19.8 5.5 -18.8 M4.5 -9.8 L-4.5 -9.8 -4.5 -10.8 4.5 -10.8 4.5 -9.8 M59.9 -45.8 L-59.95 -45.8 -60.0 -45.85 -60.0 -46.7 -59.95 -46.75 -59.9 -46.8 59.9 -46.8 60.0 -46.75 60.0 -45.8 59.9 -45.8 M-4.5 7.2 L4.5 7.2 4.5 8.2 -4.5 8.2 -4.5 7.2 M-5.5 16.2 L5.5 16.2 5.5 17.2 -5.5 17.2 -5.5 16.2 M-11.0 34.2 L11.0 34.2 11.0 35.2 -11.0 35.2 -11.0 34.2 M-7.5 25.2 L7.5 25.2 7.5 26.2 -7.5 26.2 -7.5 25.2 M-59.9 43.2 L59.9 43.2 60.0 43.25 60.0 44.3 60.0 44.4 59.9 44.4 -59.95 44.4 -60.0 44.3 -60.0 43.3 -59.95 43.25 -59.9 43.2" fill="#ffffff" fill-opacity="0.08627451" fill-rule="evenodd" stroke="none"/>
  </g>
</svg>
