<?xml version="1.0" encoding="UTF-8" standalone="no"?>
<svg xmlns:ffdec="https://www.free-decompiler.com/flash" xmlns:xlink="http://www.w3.org/1999/xlink" ffdec:objectType="shape" height="94.75px" width="41.0px" xmlns="http://www.w3.org/2000/svg">
  <g transform="matrix(1.0, 0.0, 0.0, 1.0, 20.5, 94.25)">
    <path d="M20.5 -0.5 L20.5 0.5 -20.5 0.5 -20.5 -0.5 20.5 -0.5 M20.5 -50.5 L20.5 -49.5 -20.5 -49.5 -20.5 -50.5 20.5 -50.5 M5.5 -25.5 L5.5 -24.5 -5.5 -24.5 -5.5 -25.5 5.5 -25.5 M2.5 -6.75 L2.5 -5.75 -2.5 -5.75 -2.5 -6.75 2.5 -6.75 M2.5 -19.25 L2.5 -18.25 -2.5 -18.25 -2.5 -19.25 2.5 -19.25 M2.5 -44.25 L2.5 -43.25 -2.5 -43.25 -2.5 -44.25 2.5 -44.25 M2.5 -31.75 L2.5 -30.75 -2.5 -30.75 -2.5 -31.75 2.5 -31.75 M5.5 -38.0 L5.5 -37.0 -5.5 -37.0 -5.5 -38.0 5.5 -38.0 M5.5 -13.0 L5.5 -12.0 -5.5 -12.0 -5.5 -13.0 5.5 -13.0 M5.5 -63.0 L5.5 -62.0 -5.5 -62.0 -5.5 -63.0 5.5 -63.0 M5.5 -88.0 L5.5 -87.0 -5.5 -87.0 -5.5 -88.0 5.5 -88.0 M2.5 -94.25 L2.5 -93.25 -2.5 -93.25 -2.5 -94.25 2.5 -94.25 M2.5 -81.75 L2.5 -80.75 -2.5 -80.75 -2.5 -81.75 2.5 -81.75 M2.5 -69.25 L2.5 -68.25 -2.5 -68.25 -2.5 -69.25 2.5 -69.25 M2.5 -56.75 L2.5 -55.75 -2.5 -55.75 -2.5 -56.75 2.5 -56.75 M5.5 -75.5 L5.5 -74.5 -5.5 -74.5 -5.5 -75.5 5.5 -75.5" fill="#cccccc" fill-opacity="0.7058824" fill-rule="evenodd" stroke="none"/>
  </g>
</svg>
