<?xml version="1.0" encoding="UTF-8" standalone="no"?>
<svg xmlns:ffdec="https://www.free-decompiler.com/flash" xmlns:xlink="http://www.w3.org/1999/xlink" ffdec:objectType="shape" height="15.15px" width="222.5px" xmlns="http://www.w3.org/2000/svg">
  <g transform="matrix(1.0, 0.0, 0.0, 1.0, 111.25, 13.7)">
    <path d="M2.3 -12.7 L11.3 -1.7 61.0 -1.7 111.0 -1.7 111.0 -0.5 61.0 -0.5 10.7 -0.5 1.2 -12.0 0.5 -12.45 -0.35 -12.5 -1.1 -12.0 -10.65 -0.5 -44.75 -0.5 -61.0 -0.5 -111.0 -0.5 -111.0 -1.7 -61.0 -1.7 -44.75 -1.7 -11.25 -1.7 -2.2 -12.7 -0.65 -13.7 0.8 -13.65 2.3 -12.7" fill="#ffffff" fill-opacity="0.2" fill-rule="evenodd" stroke="none"/>
    <path d="M10.85 -0.65 L111.0 -0.65 111.2 -0.55 111.25 -0.4 111.25 1.2 111.2 1.4 111.0 1.45 10.45 1.45 9.8 1.3 9.7 1.25 9.2 0.85 9.15 0.8 0.05 -10.2 -9.1 0.8 -9.15 0.85 -9.65 1.25 -9.75 1.3 -10.4 1.45 -111.0 1.45 -111.15 1.4 -111.25 1.2 -111.25 -0.4 -111.15 -0.55 -111.0 -0.65 -10.75 -0.65 -1.3 -12.05 -1.25 -12.1 -0.5 -12.6 -0.3 -12.65 0.55 -12.6 0.65 -12.55 1.35 -12.1 1.4 -12.05 10.85 -0.65" fill="#000000" fill-rule="evenodd" stroke="none"/>
  </g>
</svg>
