<?xml version="1.0" encoding="UTF-8" standalone="no"?>
<svg xmlns:ffdec="https://www.free-decompiler.com/flash" xmlns:xlink="http://www.w3.org/1999/xlink" ffdec:objectType="shape" height="101.5px" width="101.5px" xmlns="http://www.w3.org/2000/svg">
  <g transform="matrix(1.0, 0.0, 0.0, 1.0, 50.75, 50.75)">
    <path d="M0.0 -50.75 Q20.95 -50.75 35.85 -35.9 50.75 -21.0 50.75 0.0 50.75 21.0 35.85 35.85 20.95 50.75 0.0 50.75 -21.0 50.75 -35.9 35.85 -50.75 21.0 -50.75 0.0 -50.75 -21.0 -35.9 -35.9 -21.0 -50.75 0.0 -50.75 M34.8 -34.85 Q20.35 -49.25 0.0 -49.25 -20.4 -49.25 -34.85 -34.85 -49.25 -20.4 -49.25 0.0 -49.25 20.4 -34.85 34.8 -20.4 49.25 0.0 49.25 20.35 49.25 34.8 34.8 49.25 20.4 49.25 0.0 49.25 -20.4 34.8 -34.85" fill="#ffffff" fill-rule="evenodd" stroke="none"/>
  </g>
</svg>
