<?xml version="1.0" encoding="UTF-8" standalone="no"?>
<svg xmlns:ffdec="https://www.free-decompiler.com/flash" xmlns:xlink="http://www.w3.org/1999/xlink" ffdec:objectType="shape" height="16.5px" width="16.5px" xmlns="http://www.w3.org/2000/svg">
  <g transform="matrix(1.0, 0.0, 0.0, 1.0, 8.25, 8.25)">
    <path d="M2.15 -7.75 L4.05 -6.95 5.65 -5.65 6.95 -4.05 7.75 -2.15 8.0 0.0 7.75 2.05 6.95 4.0 5.65 5.65 4.05 6.95 2.15 7.65 0.05 8.0 -2.05 7.65 -4.0 6.95 -5.65 5.65 -6.85 4.0 -7.65 2.05 -8.0 0.0 -7.65 -2.15 -6.85 -4.05 -5.65 -5.65 -4.0 -6.95 -2.05 -7.75 0.05 -8.0 2.15 -7.75" fill="#ffffff" fill-rule="evenodd" stroke="none"/>
    <path d="M2.15 -7.75 L4.05 -6.95 5.65 -5.65 6.95 -4.05 7.75 -2.15 8.0 0.0 7.75 2.05 6.95 4.0 5.65 5.65 4.05 6.95 2.15 7.65 0.05 8.0 -2.05 7.65 -4.0 6.95 -5.65 5.65 -6.85 4.0 -7.65 2.05 -8.0 0.0 -7.65 -2.15 -6.85 -4.05 -5.65 -5.65 -4.0 -6.95 -2.05 -7.75 0.05 -8.0 2.15 -7.75 Z" fill="none" stroke="#000000" stroke-linecap="round" stroke-linejoin="round" stroke-width="0.5"/>
    <path d="M5.4 -3.8 Q6.3 -2.65 6.3 0.0 6.3 2.65 5.35 3.8 4.6 4.75 3.25 4.75 1.9 4.75 1.1 3.7 0.25 2.65 0.25 0.0 0.25 -2.65 1.15 -3.8 1.9 -4.75 3.25 -4.75 4.6 -4.75 5.4 -3.8 M2.7 -3.05 L2.3 -2.3 2.1 0.0 2.3 2.25 2.7 3.1 3.25 3.3 3.85 3.1 4.25 2.35 4.4 0.0 4.25 -2.25 3.85 -3.05 3.25 -3.25 2.7 -3.05" fill="#000000" fill-rule="evenodd" stroke="none"/>
    <path d="M-5.6 -3.65 L-4.65 -4.45 -3.25 -4.75 Q-1.95 -4.75 -1.15 -3.9 -0.5 -3.2 -0.5 -2.35 -0.5 -1.15 -1.85 -0.4 -1.05 -0.25 -0.55 0.35 -0.1 0.95 -0.1 1.8 -0.1 3.05 -0.95 3.9 -1.85 4.75 -3.2 4.75 -4.45 4.75 -5.3 4.05 -6.15 3.3 -6.25 2.15 L-4.55 1.9 -4.1 2.95 Q-3.75 3.3 -3.2 3.3 -2.65 3.3 -2.3 2.85 -1.9 2.45 -1.9 1.75 -1.9 1.05 -2.25 0.65 -2.65 0.25 -3.15 0.25 L-3.95 0.4 -3.75 -1.05 -2.65 -1.35 Q-2.3 -1.7 -2.3 -2.25 -2.3 -2.7 -2.55 -3.0 L-3.3 -3.3 Q-3.75 -3.3 -4.1 -2.95 L-4.5 -2.05 -6.15 -2.3 -5.6 -3.65" fill="#000000" fill-rule="evenodd" stroke="none"/>
  </g>
</svg>
