<?xml version="1.0" encoding="UTF-8" standalone="no"?>
<svg xmlns:ffdec="https://www.free-decompiler.com/flash" xmlns:xlink="http://www.w3.org/1999/xlink" ffdec:objectType="shape" height="13.0px" width="16.0px" xmlns="http://www.w3.org/2000/svg">
  <g transform="matrix(1.0, 0.0, 0.0, 1.0, 8.0, 6.5)">
    <path d="M7.5 -4.0 L-7.5 -4.0 -7.5 -6.0 7.5 -6.0 7.5 -4.0" fill="#ffffff" fill-opacity="0.6" fill-rule="evenodd" stroke="none"/>
    <path d="M-7.5 4.0 L7.5 4.0 7.5 6.0 -7.5 6.0 -7.5 4.0" fill="#ffffff" fill-rule="evenodd" stroke="none"/>
    <path d="M7.5 1.0 L-7.5 1.0 -7.5 -1.0 7.5 -1.0 7.5 1.0" fill="#ffffff" fill-opacity="0.8" fill-rule="evenodd" stroke="none"/>
    <path d="M7.5 -4.0 L7.5 -6.0 -7.5 -6.0 -7.5 -4.0 7.5 -4.0 M8.0 -3.5 L-8.0 -3.5 -8.0 -6.5 8.0 -6.5 8.0 -3.5 M-7.5 4.0 L-7.5 6.0 7.5 6.0 7.5 4.0 -7.5 4.0 M-8.0 3.5 L8.0 3.5 8.0 6.5 -8.0 6.5 -8.0 3.5 M7.5 1.0 L7.5 -1.0 -7.5 -1.0 -7.5 1.0 7.5 1.0 M8.0 1.5 L-8.0 1.5 -8.0 -1.5 8.0 -1.5 8.0 1.5" fill="#000000" fill-rule="evenodd" stroke="none"/>
  </g>
</svg>
