<?xml version="1.0" encoding="UTF-8" standalone="no"?>
<svg xmlns:ffdec="https://www.free-decompiler.com/flash" xmlns:xlink="http://www.w3.org/1999/xlink" ffdec:objectType="shape" height="16.5px" width="16.5px" xmlns="http://www.w3.org/2000/svg">
  <g transform="matrix(1.0, 0.0, 0.0, 1.0, 8.25, 8.25)">
    <path d="M2.15 -7.75 L4.05 -6.95 5.65 -5.65 6.95 -4.05 7.75 -2.15 8.0 0.0 7.75 2.05 6.95 4.0 5.65 5.65 4.05 6.95 2.15 7.65 0.05 8.0 -2.05 7.65 -4.0 6.95 -5.65 5.65 -6.85 4.0 -7.65 2.05 -8.0 0.0 -7.65 -2.15 -6.85 -4.05 -5.65 -5.65 -4.0 -6.95 -2.05 -7.75 0.05 -8.0 2.15 -7.75" fill="#ffffff" fill-rule="evenodd" stroke="none"/>
    <path d="M2.15 -7.75 L4.05 -6.95 5.65 -5.65 6.95 -4.05 7.75 -2.15 8.0 0.0 7.75 2.05 6.95 4.0 5.65 5.65 4.05 6.95 2.15 7.65 0.05 8.0 -2.05 7.65 -4.0 6.95 -5.65 5.65 -6.85 4.0 -7.65 2.05 -8.0 0.0 -7.65 -2.15 -6.85 -4.05 -5.65 -5.65 -4.0 -6.95 -2.05 -7.75 0.05 -8.0 2.15 -7.75 Z" ffdec:has-small-stroke="true" ffdec:original-stroke-width="0.5" fill="none" stroke="#000000" stroke-linecap="round" stroke-linejoin="round" stroke-width="1.0"/>
    <path d="M0.8 -2.95 L-0.15 -3.4 Q-0.65 -3.4 -0.95 -3.0 -1.3 -2.65 -1.3 -1.75 -1.3 -0.85 -0.95 -0.4 -0.55 0.0 -0.05 0.0 0.45 0.0 0.85 -0.4 1.2 -0.8 1.2 -1.6 1.2 -2.45 0.8 -2.95 M3.2 -0.2 Q3.2 2.35 2.25 3.5 1.3 4.6 -0.25 4.6 -1.3 4.6 -2.0 4.05 -2.65 3.45 -2.85 2.3 L-1.15 2.1 -0.8 2.9 -0.1 3.15 Q0.45 3.15 0.85 2.65 1.25 2.15 1.35 0.55 0.65 1.3 -0.35 1.3 -1.45 1.3 -2.25 0.45 -3.05 -0.4 -3.05 -1.75 -3.05 -3.15 -2.2 -4.0 -1.35 -4.9 -0.05 -4.9 1.35 -4.9 2.25 -3.8 3.2 -2.7 3.2 -0.2" fill="#000000" fill-rule="evenodd" stroke="none"/>
  </g>
</svg>
