<?xml version="1.0" encoding="UTF-8" standalone="no"?>
<svg xmlns:ffdec="https://www.free-decompiler.com/flash" xmlns:xlink="http://www.w3.org/1999/xlink" ffdec:objectType="shape" height="16.5px" width="16.5px" xmlns="http://www.w3.org/2000/svg">
  <g transform="matrix(1.0, 0.0, 0.0, 1.0, 8.25, 8.25)">
    <path d="M2.15 -7.75 L4.05 -6.95 5.65 -5.65 6.95 -4.05 7.75 -2.15 8.0 0.0 7.75 2.05 6.95 4.0 5.65 5.65 4.05 6.95 2.15 7.65 0.05 8.0 -2.05 7.65 -4.0 6.95 -5.65 5.65 -6.85 4.0 -7.65 2.05 -8.0 0.0 -7.65 -2.15 -6.85 -4.05 -5.65 -5.65 -4.0 -6.95 -2.05 -7.75 0.05 -8.0 2.15 -7.75" fill="#ffffff" fill-rule="evenodd" stroke="none"/>
    <path d="M2.15 -7.75 L4.05 -6.95 5.65 -5.65 6.95 -4.05 7.75 -2.15 8.0 0.0 7.75 2.05 6.95 4.0 5.65 5.65 4.05 6.95 2.15 7.65 0.05 8.0 -2.05 7.65 -4.0 6.95 -5.65 5.65 -6.85 4.0 -7.65 2.05 -8.0 0.0 -7.65 -2.15 -6.85 -4.05 -5.65 -5.65 -4.0 -6.95 -2.05 -7.75 0.05 -8.0 2.15 -7.75 Z" fill="none" stroke="#000000" stroke-linecap="round" stroke-linejoin="round" stroke-width="0.5"/>
    <path d="M1.1 -2.2 L0.8 -3.0 Q0.5 -3.35 0.0 -3.35 -0.5 -3.35 -0.8 -3.0 L-1.1 -2.2 -0.8 -1.4 Q-0.5 -1.1 0.0 -1.1 0.5 -1.1 0.8 -1.4 L1.1 -2.2 M2.8 -2.35 Q2.8 -1.7 2.45 -1.2 L1.5 -0.4 Q2.3 -0.1 2.7 0.5 3.1 1.1 3.1 1.85 3.1 3.15 2.3 3.95 1.45 4.75 0.1 4.75 -1.2 4.75 -2.05 4.1 -3.0 3.3 -3.0 1.95 -3.0 1.2 -2.65 0.55 -2.25 -0.1 -1.45 -0.4 L-2.45 -1.2 Q-2.8 -1.75 -2.8 -2.35 -2.8 -3.4 -2.05 -4.05 -1.35 -4.75 0.0 -4.75 1.35 -4.75 2.05 -4.05 2.8 -3.4 2.8 -2.35 M1.35 1.8 Q1.35 1.15 0.95 0.75 0.6 0.35 0.05 0.35 -0.6 0.35 -0.95 0.8 L-1.25 1.75 Q-1.25 2.5 -0.9 2.9 L0.05 3.35 Q0.6 3.35 0.95 2.95 1.35 2.55 1.35 1.8" fill="#000000" fill-rule="evenodd" stroke="none"/>
  </g>
</svg>
