<?xml version="1.0" encoding="UTF-8" standalone="no"?>
<svg xmlns:ffdec="https://www.free-decompiler.com/flash" xmlns:xlink="http://www.w3.org/1999/xlink" ffdec:objectType="shape" height="16.5px" width="16.5px" xmlns="http://www.w3.org/2000/svg">
  <g transform="matrix(1.0, 0.0, 0.0, 1.0, 8.25, 8.25)">
    <path d="M2.15 -7.75 L4.05 -6.95 5.65 -5.65 6.95 -4.05 7.75 -2.15 8.0 0.0 7.75 2.05 6.95 4.0 5.65 5.65 4.05 6.95 2.15 7.65 0.05 8.0 -2.05 7.65 -4.0 6.95 -5.65 5.65 -6.85 4.0 -7.65 2.05 -8.0 0.0 -7.65 -2.15 -6.85 -4.05 -5.65 -5.65 -4.0 -6.95 -2.05 -7.75 0.05 -8.0 2.15 -7.75" fill="#ffffff" fill-rule="evenodd" stroke="none"/>
    <path d="M2.15 -7.75 L4.05 -6.95 5.65 -5.65 6.95 -4.05 7.75 -2.15 8.0 0.0 7.75 2.05 6.95 4.0 5.65 5.65 4.05 6.95 2.15 7.65 0.05 8.0 -2.05 7.65 -4.0 6.95 -5.65 5.65 -6.85 4.0 -7.65 2.05 -8.0 0.0 -7.65 -2.15 -6.85 -4.05 -5.65 -5.65 -4.0 -6.95 -2.05 -7.75 0.05 -8.0 2.15 -7.75 Z" ffdec:has-small-stroke="true" ffdec:original-stroke-width="0.5" fill="none" stroke="#000000" stroke-linecap="round" stroke-linejoin="round" stroke-width="1.0"/>
    <path d="M1.8 -4.8 L1.8 1.1 2.95 1.1 2.95 2.7 1.8 2.7 1.8 4.55 0.05 4.55 0.05 2.7 -3.75 2.7 -3.75 1.1 0.3 -4.8 1.8 -4.8 M0.05 -2.05 L-2.1 1.1 0.05 1.1 0.05 -2.05" fill="#000000" fill-rule="evenodd" stroke="none"/>
  </g>
</svg>
