<?xml version="1.0" encoding="UTF-8" standalone="no"?>
<svg xmlns:ffdec="https://www.free-decompiler.com/flash" xmlns:xlink="http://www.w3.org/1999/xlink" ffdec:objectType="shape" height="18.25px" width="18.2px" xmlns="http://www.w3.org/2000/svg">
  <g transform="matrix(1.0, 0.0, 0.0, 1.0, 11.0, 11.05)">
    <path d="M3.75 -2.1 L0.85 0.8 1.6 2.95 -8.75 4.15 -3.7 0.9 -9.55 -3.75 -4.15 -2.55 -9.95 -10.05 -1.55 -5.2 -2.05 -9.65 1.55 -4.0 0.9 -3.75 3.75 -2.1" fill="#ffffff" fill-rule="evenodd" stroke="none"/>
    <path d="M0.85 0.8 L3.75 -2.1 0.9 -3.75 1.55 -4.0 -2.05 -9.65 -1.55 -5.2 -9.95 -10.05 -4.15 -2.55 -9.55 -3.75 -3.7 0.9 -8.75 4.15 1.6 2.95 0.85 0.8 M2.4 -4.55 L2.55 -3.95 4.25 -2.95 Q4.7 -2.7 4.75 -2.25 L4.45 -1.4 2.0 1.05 2.55 2.6 Q2.7 3.05 2.45 3.45 L1.7 3.95 -8.65 5.1 -8.75 5.15 Q-9.45 5.15 -9.7 4.45 -9.95 3.7 -9.3 3.3 L-5.4 0.8 -10.2 -2.95 Q-10.8 -3.45 -10.45 -4.2 -10.2 -4.75 -9.55 -4.75 L-9.35 -4.75 -6.65 -4.15 -10.75 -9.45 Q-11.25 -10.1 -10.75 -10.75 L-9.95 -11.05 -9.45 -10.95 -2.8 -7.05 -3.05 -9.55 Q-3.15 -10.35 -2.4 -10.6 L-2.05 -10.65 Q-1.45 -10.65 -1.25 -10.2 L2.4 -4.55" fill="#000000" fill-rule="evenodd" stroke="none"/>
    <path d="M5.3 -0.8 L5.3 3.2 1.2 3.2 1.2 -0.8 5.3 -0.8" fill="#000000" fill-rule="evenodd" stroke="none"/>
    <path d="M1.45 2.2 L1.05 2.1 0.65 2.2 Q0.25 2.35 0.25 2.65 L0.25 3.55 Q0.35 4.2 0.75 4.25 L1.35 4.25 Q1.75 4.2 1.8 3.55 L1.8 2.65 Q1.8 2.35 1.45 2.2 M4.65 0.7 Q3.6 -0.5 2.75 -0.4 L2.2 -0.1 Q1.6 0.3 1.65 0.7 L1.65 0.9 1.85 1.4 2.3 2.0 2.9 2.65 Q3.85 3.0 4.15 2.65 5.05 2.05 4.65 0.7 M-2.25 2.7 Q-1.95 3.05 -1.0 2.7 L0.1 1.4 0.2 1.25 -2.85 1.25 Q-2.9 2.25 -2.25 2.7 M6.1 -2.1 L6.2 -0.6 6.1 1.8 Q5.9 2.9 5.1 3.7 L4.35 4.35 3.9 4.3 3.65 4.1 3.55 4.25 3.35 5.25 Q2.85 6.2 1.4 6.2 L0.6 6.2 Q-0.85 6.2 -1.35 5.25 L-1.55 4.25 -1.65 4.1 -1.9 4.3 -2.35 4.35 -3.05 3.8 -3.85 2.5 -4.1 1.8 -4.15 -0.6 -4.15 -1.55 -2.35 -1.1 Q0.15 -0.65 1.05 -2.05 1.7 -3.0 1.7 -5.15 L1.6 -5.8 Q3.75 -5.65 5.0 -4.3 5.8 -3.5 6.1 -2.15 L6.1 -2.1" fill="#ffffff" fill-rule="evenodd" stroke="none"/>
    <path d="M0.65 2.2 L1.05 2.1 1.45 2.2 Q1.8 2.35 1.8 2.65 L1.8 3.55 Q1.75 4.2 1.35 4.25 L0.75 4.25 Q0.35 4.2 0.25 3.55 L0.25 2.65 Q0.25 2.35 0.65 2.2 M2.75 -0.4 L2.8 -0.4 Q3.7 -0.4 4.65 0.7 5.05 2.05 4.15 2.65 L3.7 2.8 2.9 2.65 2.3 2.0 1.85 1.4 1.65 0.9 1.65 0.7 Q1.6 0.3 2.2 -0.1 L2.75 -0.4 M2.65 0.8 L3.4 1.75 3.6 1.8 3.75 1.2 2.9 0.6 2.65 0.8 M-1.8 2.85 L-2.25 2.7 Q-2.9 2.25 -2.85 1.25 L0.2 1.25 0.1 1.4 -1.0 2.7 -1.8 2.85 M6.1 -2.15 Q5.8 -3.5 5.0 -4.3 3.75 -5.65 1.6 -5.8 L1.7 -5.15 Q1.7 -3.25 1.25 -2.3 0.55 -1.0 -1.2 -1.0 L-2.35 -1.1 -4.15 -1.55 -4.15 -0.6 -4.1 1.8 -3.85 2.5 -3.05 3.8 -2.35 4.35 -2.1 4.4 -1.9 4.3 -1.65 4.1 -1.55 4.25 -1.35 5.25 Q-0.85 6.2 0.6 6.2 L1.4 6.2 Q2.85 6.2 3.35 5.25 L3.55 4.25 3.65 4.1 3.9 4.3 4.15 4.4 4.35 4.35 5.1 3.7 Q5.9 2.9 6.1 1.8 L6.2 -0.6 6.1 -2.1 6.1 -2.15 M5.75 -5.0 Q6.75 -3.8 7.05 -2.35 L7.05 -2.3 7.1 -2.25 7.2 -0.6 7.05 1.9 7.05 1.95 6.8 2.85 5.85 4.4 5.75 4.45 5.0 5.1 4.8 5.2 4.35 5.35 4.35 5.45 4.25 5.7 Q3.45 7.15 1.45 7.2 L0.55 7.2 Q-1.45 7.15 -2.25 5.7 L-2.35 5.45 -2.35 5.35 -2.8 5.2 -2.95 5.1 -3.65 4.55 -3.75 4.5 -4.75 2.95 -5.05 2.0 -5.05 1.9 -5.15 -0.55 -5.15 -1.6 -4.65 -2.4 -4.15 -2.55 -3.7 -2.45 -2.6 -2.15 -1.2 -2.0 Q-0.2 -2.0 0.2 -2.6 0.7 -3.25 0.7 -5.15 L0.65 -5.65 Q0.55 -6.15 0.9 -6.5 1.15 -6.8 1.6 -6.8 L1.7 -6.8 Q4.3 -6.55 5.75 -5.0" fill="#000000" fill-rule="evenodd" stroke="none"/>
  </g>
</svg>
