<?xml version="1.0" encoding="UTF-8" standalone="no"?>
<svg xmlns:ffdec="https://www.free-decompiler.com/flash" xmlns:xlink="http://www.w3.org/1999/xlink" ffdec:objectType="shape" height="11.05px" width="11.0px" xmlns="http://www.w3.org/2000/svg">
  <g transform="matrix(1.0, 0.0, 0.0, 1.0, 5.6, 5.5)">
    <path d="M-1.25 1.35 L-1.3 1.3 -1.45 1.15 -1.45 1.35 -1.25 1.35 M-1.55 -0.25 L-1.65 -0.1 -1.9 0.05 -1.65 0.25 -1.55 0.4 -1.55 -0.25 M-1.45 -1.3 L-1.45 -1.0 -1.3 -1.15 -1.15 -1.3 -1.45 -1.3 M1.25 1.35 L1.25 1.15 1.15 1.3 1.05 1.35 1.25 1.35 M0.1 1.6 L0.15 1.5 -0.35 1.5 -0.25 1.6 -0.1 1.85 0.1 1.6 M1.5 -0.1 L1.35 -0.25 1.35 0.4 1.5 0.25 1.75 0.05 1.5 -0.1 M1.15 -1.15 L1.25 -1.0 1.25 -1.3 1.0 -1.3 1.15 -1.15 M0.25 -1.4 L0.1 -1.5 -0.1 -1.75 -0.25 -1.5 -0.4 -1.4 0.25 -1.4 M3.35 -4.2 L3.9 -3.95 4.1 -3.45 4.1 -2.05 3.9 -1.5 3.75 -1.4 4.65 -1.4 5.2 -1.15 5.4 -0.65 5.4 0.75 5.2 1.3 4.65 1.5 3.8 1.5 3.9 1.6 4.1 2.1 4.1 3.5 3.9 4.05 3.35 4.25 1.95 4.25 Q1.65 4.25 1.45 4.05 L1.35 3.95 1.35 4.8 1.15 5.35 0.6 5.55 -0.8 5.55 Q-1.1 5.55 -1.3 5.35 L-1.55 4.8 -1.55 3.95 -1.6 4.05 Q-1.85 4.25 -2.15 4.25 L-3.55 4.25 -4.05 4.05 -4.3 3.5 -4.3 2.1 -4.05 1.6 -4.0 1.5 -4.85 1.5 -5.35 1.3 -5.6 0.75 -5.6 -0.65 -5.35 -1.15 -4.85 -1.4 -4.05 -1.4 -4.1 -1.45 -4.35 -2.0 -4.35 -3.4 -4.1 -3.9 -3.6 -4.15 -2.2 -4.15 -1.65 -3.9 -1.55 -3.75 -1.55 -4.75 -1.3 -5.25 -0.8 -5.5 0.6 -5.5 1.15 -5.25 1.35 -4.75 1.35 -3.9 1.45 -3.95 1.95 -4.2 3.35 -4.2" fill="#000000" fill-rule="evenodd" stroke="none"/>
    <path d="M2.0 -0.65 L4.65 -0.65 4.65 0.75 2.0 0.75 2.0 2.1 3.35 2.1 3.35 3.5 1.95 3.5 1.95 2.1 0.6 2.1 0.6 4.8 -0.8 4.8 -0.8 2.1 -2.15 2.1 -2.15 3.5 -3.55 3.5 -3.55 2.1 -2.2 2.1 -2.2 0.75 -4.85 0.75 -4.85 -0.65 -2.2 -0.65 -2.2 -2.0 -3.6 -2.0 -3.6 -3.4 -2.2 -3.4 -2.2 -2.05 -0.8 -2.05 -0.8 -4.75 0.6 -4.75 0.6 -2.05 1.95 -2.05 1.95 -3.45 3.35 -3.45 3.35 -2.05 2.0 -2.05 2.0 -0.65 M0.6 0.75 L0.6 -0.65 -0.8 -0.65 -0.8 0.75 0.6 0.75" fill="#666666" fill-rule="evenodd" stroke="none"/>
  </g>
</svg>
