<?xml version="1.0" encoding="UTF-8" standalone="no"?>
<svg xmlns:ffdec="https://www.free-decompiler.com/flash" xmlns:xlink="http://www.w3.org/1999/xlink" ffdec:objectType="shape" height="9.0px" width="18.8px" xmlns="http://www.w3.org/2000/svg">
  <g transform="matrix(1.0, 0.0, 0.0, 1.0, 9.4, 4.5)">
    <path d="M1.5 -4.25 L1.7 -3.75 1.7 -2.6 8.65 -2.6 9.2 -2.35 9.4 -1.85 9.4 0.0 9.2 0.55 8.65 0.75 1.55 0.75 1.55 0.85 1.35 1.4 0.8 1.6 -1.8 1.6 -1.95 2.1 -2.0 2.15 Q-2.2 2.35 -2.45 2.35 L-2.8 2.4 -3.45 3.95 -3.45 4.0 -3.75 4.35 -4.15 4.5 -7.65 4.5 -8.1 4.35 -8.4 3.95 -8.4 3.85 -8.3 3.4 -8.25 3.35 -7.4 1.6 -8.65 1.6 -9.15 1.4 -9.4 0.85 -9.4 -1.0 -9.15 -1.5 -8.65 -1.75 -8.35 -1.75 -8.35 -1.85 -8.1 -2.35 -7.7 -2.6 -7.7 -3.75 -7.45 -4.25 -6.95 -4.5 0.95 -4.5 1.5 -4.25" fill="#000000" fill-rule="evenodd" stroke="none"/>
    <path d="M0.95 -2.5 L-1.65 -2.5 -1.65 -1.85 8.65 -1.85 8.65 0.0 0.8 0.0 0.8 0.85 -2.55 0.85 -2.55 1.6 -3.35 1.65 -4.2 3.75 -7.65 3.75 -6.2 0.85 -8.65 0.85 -8.65 -1.0 -7.6 -1.0 -7.6 -1.85 -3.6 -1.85 -3.6 -2.5 -6.95 -2.5 -6.95 -3.75 0.95 -3.75 0.95 -2.5" fill="#666666" fill-rule="evenodd" stroke="none"/>
  </g>
</svg>
