<?xml version="1.0" encoding="UTF-8" standalone="no"?>
<svg xmlns:ffdec="https://www.free-decompiler.com/flash" xmlns:xlink="http://www.w3.org/1999/xlink" ffdec:objectType="shape" height="7.35px" width="17.05px" xmlns="http://www.w3.org/2000/svg">
  <g transform="matrix(1.0, 0.0, 0.0, 1.0, 8.55, 3.65)">
    <path d="M2.85 -3.4 L3.05 -2.95 7.75 -2.95 8.3 -2.7 8.5 -2.2 8.5 -0.35 8.3 0.2 7.75 0.4 6.8 0.4 6.6 1.0 6.6 1.1 6.35 1.5 6.25 1.55 5.85 1.65 0.05 1.65 -0.45 1.45 -0.65 1.2 -2.6 1.2 -3.7 3.35 -4.0 3.65 -4.05 3.65 -4.4 3.7 -7.6 3.7 -8.05 3.55 -8.35 3.15 -8.35 3.05 -8.25 2.6 -7.1 0.4 -7.8 0.4 Q-8.1 0.4 -8.3 0.2 L-8.55 -0.35 -8.55 -2.2 -8.3 -2.7 -7.95 -2.9 -7.7 -3.4 -7.2 -3.65 2.3 -3.65 2.85 -3.4" fill="#000000" fill-rule="evenodd" stroke="none"/>
    <path d="M2.3 -2.2 L7.75 -2.2 7.75 -0.35 6.3 -0.35 5.85 0.9 0.35 0.9 0.05 0.45 -3.05 0.45 -4.4 2.95 -7.6 2.95 -6.15 0.25 -6.15 -0.35 -7.8 -0.35 -7.8 -2.2 -7.2 -2.2 -7.2 -2.9 2.3 -2.9 2.3 -2.2" fill="#666666" fill-rule="evenodd" stroke="none"/>
  </g>
</svg>
