<?xml version="1.0" encoding="UTF-8" standalone="no"?>
<svg xmlns:ffdec="https://www.free-decompiler.com/flash" xmlns:xlink="http://www.w3.org/1999/xlink" ffdec:objectType="shape" height="5.2px" width="12.85px" xmlns="http://www.w3.org/2000/svg">
  <g transform="matrix(1.0, 0.0, 0.0, 1.0, 6.45, 2.6)">
    <path d="M6.4 -0.9 L6.4 0.9 6.2 1.45 5.65 1.65 2.5 1.65 1.75 2.4 1.2 2.6 -5.7 2.6 -6.2 2.4 -6.45 1.85 -6.45 -1.85 -6.2 -2.35 -5.7 -2.6 1.2 -2.6 1.75 -2.35 2.5 -1.65 5.65 -1.65 6.2 -1.4 6.4 -0.9" fill="#000000" fill-rule="evenodd" stroke="none"/>
    <path d="M5.65 -0.05 L5.65 0.05 5.65 0.9 2.2 0.9 1.2 1.85 -5.7 1.85 -5.7 0.05 -5.7 -0.05 -5.7 -1.85 1.2 -1.85 2.2 -0.9 5.65 -0.9 5.65 -0.05" fill="#666666" fill-rule="evenodd" stroke="none"/>
  </g>
</svg>
