<?xml version="1.0" encoding="UTF-8" standalone="no"?>
<svg xmlns:ffdec="https://www.free-decompiler.com/flash" xmlns:xlink="http://www.w3.org/1999/xlink" ffdec:objectType="shape" height="11.6px" width="10.25px" xmlns="http://www.w3.org/2000/svg">
  <g transform="matrix(1.0, 0.0, 0.0, 1.0, 5.2, 5.85)">
    <path d="M4.85 -5.6 L5.05 -5.1 5.05 5.0 4.85 5.55 4.3 5.75 -3.9 5.75 Q-4.2 5.75 -4.4 5.55 L-4.65 5.0 -4.65 -1.1 -4.95 -1.3 -5.2 -1.85 -5.2 -3.2 -4.55 -3.95 -3.8 -4.6 -2.55 -4.6 -2.1 -4.45 -2.1 -5.1 -1.85 -5.6 -1.35 -5.85 4.3 -5.85 4.85 -5.6" fill="#000000" fill-rule="evenodd" stroke="none"/>
    <path d="M0.0 -3.15 L3.1 -3.15 3.1 -4.25 0.0 -4.25 0.0 -3.15 M4.35 5.05 L-3.85 5.05 -3.85 -1.8 -4.4 -1.8 -4.4 -3.15 -3.75 -3.8 -2.5 -3.8 -2.5 -3.15 -1.2 -3.15 -1.2 -5.05 4.35 -5.05 4.35 5.05" fill="#666666" fill-rule="evenodd" stroke="none"/>
    <path d="M1.95 -0.75 L1.95 -0.25 1.45 -0.25 1.45 0.25 0.95 0.25 0.95 0.75 0.5 0.75 0.5 1.2 1.0 1.2 1.0 1.7 1.5 1.7 1.5 2.2 2.0 2.2 2.0 2.7 2.5 2.7 2.5 3.25 1.95 3.25 1.95 2.75 1.45 2.75 1.45 2.25 0.95 2.25 0.95 1.75 0.45 1.75 0.45 1.25 -0.05 1.25 -0.05 1.75 -0.55 1.75 -0.55 2.25 -1.05 2.25 -1.05 2.75 -1.55 2.75 -1.55 3.25 -2.1 3.25 -2.1 2.7 -1.6 2.7 -1.6 2.2 -1.1 2.2 -1.1 1.7 -0.6 1.7 -0.6 1.2 -0.1 1.2 -0.1 0.75 -0.55 0.75 -0.55 0.25 -1.05 0.25 -1.05 -0.25 -1.55 -0.25 -1.55 -0.75 -2.05 -0.75 -2.05 -1.3 -1.5 -1.3 -1.5 -0.8 -1.0 -0.8 -1.0 -0.3 -0.5 -0.3 -0.5 0.2 0.0 0.2 0.0 0.7 0.4 0.7 0.4 0.2 0.9 0.2 0.9 -0.3 1.4 -0.3 1.4 -0.8 1.9 -0.8 1.9 -1.3 2.45 -1.3 2.45 -0.75 1.95 -0.75" fill="#999999" fill-rule="evenodd" stroke="none"/>
  </g>
</svg>
