<?xml version="1.0" encoding="UTF-8" standalone="no"?>
<svg xmlns:ffdec="https://www.free-decompiler.com/flash" xmlns:xlink="http://www.w3.org/1999/xlink" ffdec:objectType="shape" height="8.0px" width="19.1px" xmlns="http://www.w3.org/2000/svg">
  <g transform="matrix(1.0, 0.0, 0.0, 1.0, 8.7, 2.85)">
    <path d="M9.6 -0.1 L6.45 -0.15 6.5 0.95 3.4 0.9 3.45 4.4 1.6 4.4 1.6 1.4 0.5 1.4 -0.1 3.05 -2.25 3.05 -1.65 1.4 -2.9 1.5 -6.55 4.3 -7.95 4.35 -7.9 -0.7 -4.7 -0.85 -3.6 -2.1 -2.0 -2.1 -1.55 -1.75 9.65 -1.75 9.6 -0.1" fill="#666666" fill-rule="evenodd" stroke="none"/>
    <path d="M9.6 -0.1 L6.45 -0.15 6.5 0.95 3.4 0.9 3.45 4.4 1.6 4.4 1.6 1.4 0.5 1.4 -0.1 3.05 -2.25 3.05 -1.65 1.4 -2.9 1.5 -6.55 4.3 -7.95 4.35 -7.9 -0.7 -4.7 -0.85 -3.6 -2.1 -2.0 -2.1 -1.55 -1.75 9.65 -1.75 9.6 -0.1 Z" fill="none" stroke="#000000" stroke-linecap="round" stroke-linejoin="round" stroke-width="1.5"/>
    <path d="M-1.6 -1.65 L9.6 -1.65 9.55 0.0 6.4 -0.05 6.45 1.05 3.35 1.0 3.4 4.5 1.55 4.5 1.55 1.5 0.45 1.5 -0.15 3.15 -2.3 3.15 -1.7 1.5 -2.95 1.6 -6.6 4.4 -8.0 4.45 -7.95 -0.6 -4.75 -0.75 -3.65 -2.0 -2.05 -2.0 -1.6 -1.65" fill="#666666" fill-rule="evenodd" stroke="none"/>
  </g>
</svg>
