<?xml version="1.0" encoding="UTF-8" standalone="no"?>
<svg xmlns:ffdec="https://www.free-decompiler.com/flash" xmlns:xlink="http://www.w3.org/1999/xlink" ffdec:objectType="shape" height="9.1px" width="8.4px" xmlns="http://www.w3.org/2000/svg">
  <g transform="matrix(1.0, 0.0, 0.0, 1.0, 4.2, 4.55)">
    <path d="M4.2 -3.8 L4.2 1.45 4.0 2.0 3.45 2.2 2.1 2.2 2.1 2.35 2.05 2.65 2.05 2.75 1.25 4.2 0.95 4.45 0.9 4.5 0.55 4.55 -2.65 4.55 -3.0 4.5 -3.3 4.2 -4.1 2.65 -4.15 2.55 -4.2 2.25 -4.2 -0.6 -4.15 -0.85 -3.95 -1.1 -3.95 -1.15 -3.15 -1.85 -3.4 -2.0 -3.65 -2.55 -3.65 -3.8 -3.4 -4.3 -2.9 -4.55 3.45 -4.55 4.0 -4.3 4.2 -3.8" fill="#000000" fill-rule="evenodd" stroke="none"/>
    <path d="M1.35 -0.6 L1.35 2.35 0.55 3.8 -2.65 3.8 -3.45 2.25 -3.45 -0.6 -2.1 -1.8 -2.1 -2.55 -2.9 -2.55 -2.9 -3.8 3.45 -3.8 3.45 1.45 2.15 1.45 2.15 -1.8 0.15 -1.8 1.35 -0.6" fill="#666666" fill-rule="evenodd" stroke="none"/>
  </g>
</svg>
