<?xml version="1.0" encoding="UTF-8" standalone="no"?>
<svg xmlns:ffdec="https://www.free-decompiler.com/flash" xmlns:xlink="http://www.w3.org/1999/xlink" ffdec:objectType="shape" height="12.3px" width="15.25px" xmlns="http://www.w3.org/2000/svg">
  <g transform="matrix(1.0, 0.0, 0.0, 1.0, 9.9, 7.95)">
    <path d="M5.15 -4.05 L5.35 -3.55 5.35 -0.55 5.15 0.0 4.6 0.2 0.35 0.2 -0.6 3.85 -0.7 3.95 -0.8 4.0 -0.8 4.1 -0.9 4.2 -1.35 4.35 -4.6 4.35 -5.05 4.2 -5.3 3.8 -5.35 3.5 -5.35 3.4 -4.45 0.15 -4.65 0.0 -4.9 -0.55 -4.9 -3.55 -4.65 -4.05 -4.15 -4.3 4.6 -4.3 5.15 -4.05" fill="#000000" fill-rule="evenodd" stroke="none"/>
    <path d="M4.6 -0.55 L-0.25 -0.55 -1.35 3.6 -4.6 3.6 -3.45 -0.55 -4.15 -0.55 -4.15 -3.55 4.6 -3.55 4.6 -0.55" fill="#666666" fill-rule="evenodd" stroke="none"/>
    <path d="M-4.05 -3.9 L0.05 -3.9 -6.4 2.05 -5.45 -1.65 -9.55 -1.65 -3.1 -7.6 -4.05 -3.9" fill="#ffffff" fill-rule="evenodd" stroke="none"/>
    <path d="M-4.05 -3.9 L0.05 -3.9 -6.4 2.05 -5.45 -1.65 -9.55 -1.65 -3.1 -7.6 -4.05 -3.9 Z" fill="none" stroke="#000000" stroke-linecap="round" stroke-linejoin="round" stroke-width="0.75"/>
  </g>
</svg>
