<?xml version="1.0" encoding="UTF-8" standalone="no"?>
<svg xmlns:ffdec="https://www.free-decompiler.com/flash" xmlns:xlink="http://www.w3.org/1999/xlink" ffdec:objectType="shape" height="7.05px" width="18.4px" xmlns="http://www.w3.org/2000/svg">
  <g transform="matrix(1.0, 0.0, 0.0, 1.0, 9.25, 3.25)">
    <path d="M-8.5 -2.5 L-6.65 -0.8 7.7 -1.0 8.4 0.6 7.55 2.25 6.2 3.0 6.1 3.05 3.75 2.55 6.1 1.65 6.65 0.7 -7.55 0.7 -8.5 -1.4 -8.5 -2.5" fill="#000000" fill-rule="evenodd" stroke="none"/>
    <path d="M-8.5 -2.5 L-6.65 -0.8 7.7 -1.0 8.4 0.6 7.55 2.25 6.2 3.0 6.1 3.05 3.75 2.55 6.1 1.65 6.65 0.7 -7.55 0.7 -8.5 -1.4 -8.5 -2.5 Z" fill="none" stroke="#000000" stroke-linecap="round" stroke-linejoin="round" stroke-width="1.5"/>
    <path d="M-8.45 -2.5 L-6.6 -0.8 7.75 -1.0 8.45 0.6 7.6 2.25 6.2 3.0 6.15 3.05 3.75 2.55 6.15 1.65 6.7 0.7 -7.5 0.7 -8.45 -1.4 -8.45 -2.5" fill="#666666" fill-rule="evenodd" stroke="none"/>
  </g>
</svg>
