<?xml version="1.0" encoding="UTF-8" standalone="no"?>
<svg xmlns:ffdec="https://www.free-decompiler.com/flash" xmlns:xlink="http://www.w3.org/1999/xlink" ffdec:objectType="shape" height="4.75px" width="16.95px" xmlns="http://www.w3.org/2000/svg">
  <g transform="matrix(1.0, 0.0, 0.0, 1.0, 8.45, 2.4)">
    <path d="M8.3 -2.15 L8.5 -1.65 8.5 1.55 8.3 2.1 7.75 2.3 -3.35 2.3 -3.7 2.25 -3.65 2.25 -3.75 2.2 -4.0 1.9 -4.15 1.6 -6.15 1.6 -6.15 1.65 -6.45 2.2 -6.9 2.35 -7.7 2.35 -8.2 2.15 -8.45 1.45 -8.45 -1.45 -8.2 -2.1 -7.7 -2.35 -6.9 -2.35 -6.45 -2.2 -6.2 -1.75 -6.15 -1.7 -4.15 -1.7 -4.0 -1.95 -3.75 -2.25 -3.65 -2.3 -3.7 -2.3 -3.35 -2.4 7.75 -2.4 8.3 -2.15" fill="#000000" fill-rule="evenodd" stroke="none"/>
    <path d="M-6.9 -1.6 L-6.85 -1.45 -6.75 -0.95 -3.8 -0.95 -3.35 -1.65 7.75 -1.65 7.75 1.55 -3.35 1.55 -3.8 0.85 -6.75 0.85 -6.9 1.6 -7.7 1.6 -7.7 -1.35 -7.7 -1.45 -7.7 -1.6 -6.9 -1.6" fill="#666666" fill-rule="evenodd" stroke="none"/>
  </g>
</svg>
