<?xml version="1.0" encoding="UTF-8" standalone="no"?>
<svg xmlns:ffdec="https://www.free-decompiler.com/flash" xmlns:xlink="http://www.w3.org/1999/xlink" ffdec:objectType="shape" height="9.1px" width="21.5px" xmlns="http://www.w3.org/2000/svg">
  <g transform="matrix(1.0, 0.0, 0.0, 1.0, 10.75, 4.7)">
    <path d="M4.05 -3.15 L5.35 -2.6 8.5 -2.6 8.55 -2.7 8.6 -2.8 8.9 -3.1 9.2 -3.2 10.0 -3.2 10.55 -2.95 10.75 -2.45 10.75 0.05 10.55 0.6 10.0 0.8 3.45 0.75 4.3 2.9 4.35 3.35 4.35 3.45 4.05 3.8 3.6 3.95 1.15 3.95 0.75 3.85 0.8 3.85 0.5 3.55 0.45 3.45 -0.35 1.55 -1.3 1.55 -2.5 4.0 -2.5 4.05 -2.8 4.35 -3.2 4.4 -5.95 4.4 -6.4 4.25 -6.65 3.85 -6.7 3.8 -6.7 3.75 -6.6 3.3 -6.55 3.25 -5.45 0.9 -9.85 1.8 -9.9 1.8 -10.3 1.75 -10.6 1.5 -10.65 1.45 -10.75 1.0 -10.55 -2.45 -10.3 -2.9 -10.25 -2.95 -9.8 -3.15 -4.35 -3.05 -4.35 -3.95 -4.1 -4.45 -3.6 -4.7 1.05 -4.7 1.6 -4.45 1.8 -3.95 1.8 -3.25 3.75 -3.25 4.05 -3.15" fill="#000000" fill-rule="evenodd" stroke="none"/>
    <path d="M5.05 -1.85 L8.95 -1.85 9.25 -2.45 10.0 -2.45 10.0 0.05 2.95 0.0 2.65 0.8 3.6 3.2 1.15 3.2 0.1 0.8 -1.75 0.8 -3.2 3.65 -5.95 3.65 -4.5 0.5 -4.85 0.0 -10.0 1.05 -9.8 -2.4 -3.6 -2.3 -3.6 -3.85 1.05 -3.85 1.05 -2.5 3.75 -2.5 5.05 -1.85" fill="#666666" fill-rule="evenodd" stroke="none"/>
  </g>
</svg>
