<?xml version="1.0" encoding="UTF-8" standalone="no"?>
<svg xmlns:ffdec="https://www.free-decompiler.com/flash" xmlns:xlink="http://www.w3.org/1999/xlink" ffdec:objectType="shape" height="16.5px" width="16.5px" xmlns="http://www.w3.org/2000/svg">
  <g transform="matrix(1.0, 0.0, 0.0, 1.0, 8.25, 8.25)">
    <path d="M2.15 -7.75 L4.05 -6.95 5.65 -5.65 6.95 -4.05 7.75 -2.15 8.0 0.0 7.75 2.05 6.95 4.0 5.65 5.65 4.05 6.95 2.15 7.65 0.05 8.0 -2.05 7.65 -4.0 6.95 -5.65 5.65 -6.85 4.0 -7.65 2.05 -8.0 0.0 -7.65 -2.15 -6.85 -4.05 -5.65 -5.65 -4.0 -6.95 -2.05 -7.75 0.05 -8.0 2.15 -7.75" fill="#ffffff" fill-rule="evenodd" stroke="none"/>
    <path d="M2.15 -7.75 L4.05 -6.95 5.65 -5.65 6.95 -4.05 7.75 -2.15 8.0 0.0 7.75 2.05 6.95 4.0 5.65 5.65 4.05 6.95 2.15 7.65 0.05 8.0 -2.05 7.65 -4.0 6.95 -5.65 5.65 -6.85 4.0 -7.65 2.05 -8.0 0.0 -7.65 -2.15 -6.85 -4.05 -5.65 -5.65 -4.0 -6.95 -2.05 -7.75 0.05 -8.0 2.15 -7.75 Z" fill="none" stroke="#000000" stroke-linecap="round" stroke-linejoin="round" stroke-width="0.5"/>
    <path d="M4.15 -2.1 L2.3 -1.75 1.55 -2.8 Q1.0 -3.2 0.2 -3.2 -1.05 -3.2 -1.75 -2.45 -2.5 -1.65 -2.5 -0.1 -2.5 1.55 -1.75 2.4 -1.0 3.2 0.15 3.2 L1.35 2.95 2.4 2.4 2.4 1.25 0.2 1.25 0.2 -0.35 4.25 -0.35 4.25 3.35 Q3.7 3.95 2.55 4.4 L0.3 4.8 Q-1.15 4.8 -2.25 4.2 -3.35 3.6 -3.9 2.45 -4.45 1.3 -4.45 -0.05 -4.45 -1.5 -3.8 -2.6 -3.2 -3.75 -2.05 -4.35 L0.2 -4.8 Q1.95 -4.8 2.9 -4.1 3.85 -3.35 4.15 -2.1" fill="#000000" fill-rule="evenodd" stroke="none"/>
  </g>
</svg>
