<?xml version="1.0" encoding="UTF-8" standalone="no"?>
<svg xmlns:ffdec="https://www.free-decompiler.com/flash" xmlns:xlink="http://www.w3.org/1999/xlink" ffdec:objectType="shape" height="16.5px" width="16.5px" xmlns="http://www.w3.org/2000/svg">
  <g transform="matrix(1.0, 0.0, 0.0, 1.0, 8.25, 8.25)">
    <path d="M2.15 -7.75 L4.05 -6.95 5.65 -5.65 6.95 -4.05 7.75 -2.15 8.0 0.0 7.75 2.05 6.95 4.0 5.65 5.65 4.05 6.95 2.15 7.65 0.05 8.0 -2.05 7.65 -4.0 6.95 -5.65 5.65 -6.85 4.0 -7.65 2.05 -8.0 0.0 -7.65 -2.15 -6.85 -4.05 -5.65 -5.65 -4.0 -6.95 -2.05 -7.75 0.05 -8.0 2.15 -7.75" fill="#ffffff" fill-rule="evenodd" stroke="none"/>
    <path d="M2.15 -7.75 L4.05 -6.95 5.65 -5.65 6.95 -4.05 7.75 -2.15 8.0 0.0 7.75 2.05 6.95 4.0 5.65 5.65 4.05 6.95 2.15 7.65 0.05 8.0 -2.05 7.65 -4.0 6.95 -5.65 5.65 -6.85 4.0 -7.65 2.05 -8.0 0.0 -7.65 -2.15 -6.85 -4.05 -5.65 -5.65 -4.0 -6.95 -2.05 -7.75 0.05 -8.0 2.15 -7.75 Z" ffdec:has-small-stroke="true" ffdec:original-stroke-width="0.5" fill="none" stroke="#000000" stroke-linecap="round" stroke-linejoin="round" stroke-width="1.0"/>
    <path d="M0.95 -3.0 L-0.6 -3.1 -1.45 -3.1 -1.45 3.1 -0.05 3.1 1.1 3.0 Q1.55 2.9 1.85 2.6 L2.35 1.7 2.55 0.0 2.35 -1.65 1.8 -2.55 0.95 -3.0 M3.3 -3.6 L4.2 -2.1 4.5 0.1 4.2 2.05 3.2 3.7 1.9 4.45 0.25 4.65 -3.3 4.65 -3.3 -4.65 0.1 -4.65 1.9 -4.5 Q2.7 -4.25 3.3 -3.6" fill="#000000" fill-rule="evenodd" stroke="none"/>
  </g>
</svg>
