<?xml version="1.0" encoding="UTF-8" standalone="no"?>
<svg xmlns:ffdec="https://www.free-decompiler.com/flash" xmlns:xlink="http://www.w3.org/1999/xlink" ffdec:objectType="shape" height="16.5px" width="16.5px" xmlns="http://www.w3.org/2000/svg">
  <g transform="matrix(1.0, 0.0, 0.0, 1.0, 8.25, 8.25)">
    <path d="M5.65 -5.65 L6.95 -4.05 7.75 -2.15 8.0 0.0 7.75 2.05 6.95 4.0 5.65 5.65 4.05 6.95 2.15 7.65 0.05 8.0 -2.05 7.65 -4.0 6.95 -5.65 5.65 -6.85 4.0 -7.65 2.05 -8.0 0.0 -7.65 -2.15 -6.85 -4.05 -5.65 -5.65 -4.0 -6.95 -2.05 -7.75 0.05 -8.0 2.15 -7.75 4.05 -6.95 5.65 -5.65" fill="#ffffff" fill-rule="evenodd" stroke="none"/>
    <path d="M5.65 -5.65 L6.95 -4.05 7.75 -2.15 8.0 0.0 7.75 2.05 6.95 4.0 5.65 5.65 4.05 6.95 2.15 7.65 0.05 8.0 -2.05 7.65 -4.0 6.95 -5.65 5.65 -6.85 4.0 -7.65 2.05 -8.0 0.0 -7.65 -2.15 -6.85 -4.05 -5.65 -5.65 -4.0 -6.95 -2.05 -7.75 0.05 -8.0 2.15 -7.75 4.05 -6.95 5.65 -5.65 Z" ffdec:has-small-stroke="true" ffdec:original-stroke-width="0.5" fill="none" stroke="#000000" stroke-linecap="round" stroke-linejoin="round" stroke-width="1.0"/>
    <path d="M4.0 -2.1 L2.15 -1.65 1.45 -2.8 Q0.9 -3.2 0.2 -3.2 -0.85 -3.2 -1.5 -2.45 -2.15 -1.7 -2.15 -0.05 -2.15 1.7 -1.5 2.45 -0.9 3.2 0.15 3.2 0.9 3.2 1.45 2.75 L2.2 1.25 4.0 1.8 Q3.6 3.35 2.65 4.05 1.65 4.8 0.15 4.8 -1.7 4.8 -2.9 3.55 -4.1 2.3 -4.1 0.1 -4.1 -2.25 -2.9 -3.55 -1.7 -4.8 0.25 -4.8 2.0 -4.8 3.05 -3.8 3.7 -3.2 4.0 -2.1" fill="#000000" fill-rule="evenodd" stroke="none"/>
  </g>
</svg>
