<?xml version="1.0" encoding="UTF-8" standalone="no"?>
<svg xmlns:ffdec="https://www.free-decompiler.com/flash" xmlns:xlink="http://www.w3.org/1999/xlink" ffdec:objectType="shape" height="16.5px" width="16.5px" xmlns="http://www.w3.org/2000/svg">
  <g transform="matrix(1.0, 0.0, 0.0, 1.0, 8.25, 8.25)">
    <path d="M4.05 -6.95 L5.65 -5.65 6.95 -4.05 7.75 -2.15 8.0 0.0 7.75 2.05 6.95 4.0 5.65 5.65 4.05 6.95 2.15 7.65 0.05 8.0 -2.05 7.65 -4.0 6.95 -5.65 5.65 -6.85 4.0 -7.65 2.05 -8.0 0.0 -7.65 -2.15 -6.85 -4.05 -5.65 -5.65 -4.0 -6.95 -2.05 -7.75 0.05 -8.0 2.15 -7.75 4.05 -6.95" fill="#ffffff" fill-rule="evenodd" stroke="none"/>
    <path d="M4.05 -6.95 L5.65 -5.65 6.95 -4.05 7.75 -2.15 8.0 0.0 7.75 2.05 6.95 4.0 5.65 5.65 4.05 6.95 2.15 7.65 0.05 8.0 -2.05 7.65 -4.0 6.95 -5.65 5.65 -6.85 4.0 -7.65 2.05 -8.0 0.0 -7.65 -2.15 -6.85 -4.05 -5.65 -5.65 -4.0 -6.95 -2.05 -7.75 0.05 -8.0 2.15 -7.75 4.05 -6.95 Z" ffdec:has-small-stroke="true" ffdec:original-stroke-width="0.5" fill="none" stroke="#000000" stroke-linecap="round" stroke-linejoin="round" stroke-width="1.0"/>
    <path d="M3.65 -3.3 L3.95 -2.2 Q3.95 -1.55 3.6 -1.0 L2.65 -0.2 Q3.5 0.05 3.95 0.65 4.4 1.25 4.4 2.05 L4.1 3.3 3.3 4.25 2.05 4.7 -0.25 4.75 -3.4 4.75 -3.4 -4.55 0.3 -4.55 1.95 -4.45 2.95 -4.1 3.65 -3.3 M1.15 -3.0 L-0.45 -3.0 -1.5 -3.0 -1.5 -0.85 -0.3 -0.85 1.1 -0.9 1.85 -1.2 2.1 -1.95 1.9 -2.65 1.15 -3.0 M1.65 0.85 L0.0 0.7 -1.5 0.7 -1.5 3.2 0.2 3.2 1.5 3.15 2.2 2.75 2.45 1.95 2.25 1.25 Q2.05 0.95 1.65 0.85" fill="#000000" fill-rule="evenodd" stroke="none"/>
  </g>
</svg>
