<?xml version="1.0" encoding="UTF-8" standalone="no"?>
<svg xmlns:ffdec="https://www.free-decompiler.com/flash" xmlns:xlink="http://www.w3.org/1999/xlink" ffdec:objectType="shape" height="9.7px" width="6.5px" xmlns="http://www.w3.org/2000/svg">
  <g transform="matrix(1.0, 0.0, 0.0, 1.0, 0.0, 0.0)">
    <path d="M6.05 1.75 L2.6 1.75 2.3 3.4 Q2.9 3.1 3.55 3.1 4.8 3.1 5.65 4.0 6.5 4.9 6.5 6.3 6.5 7.5 5.8 8.45 4.85 9.7 3.2 9.7 1.85 9.7 1.0 9.0 0.15 8.3 0.0 7.05 L1.85 6.85 Q1.9 7.5 2.3 7.85 2.7 8.25 3.2 8.25 3.8 8.25 4.2 7.75 4.6 7.3 4.6 6.35 4.6 5.45 4.2 5.0 3.8 4.55 3.15 4.55 2.35 4.55 1.75 5.25 L0.2 5.05 1.15 0.0 6.05 0.0 6.05 1.75" fill="#ffffff" fill-rule="evenodd" stroke="none"/>
  </g>
</svg>
