<?xml version="1.0" encoding="UTF-8" standalone="no"?>
<svg xmlns:ffdec="https://www.free-decompiler.com/flash" xmlns:xlink="http://www.w3.org/1999/xlink" ffdec:objectType="shape" height="9.7px" width="6.5px" xmlns="http://www.w3.org/2000/svg">
  <g transform="matrix(1.0, 0.0, 0.0, 1.0, 0.0, 0.0)">
    <path d="M6.5 2.7 L6.25 3.95 5.5 5.15 4.3 6.4 3.2 7.45 2.8 8.0 6.5 8.0 6.5 9.7 0.0 9.7 Q0.1 8.7 0.6 7.85 L2.7 5.55 4.25 3.95 4.6 2.8 Q4.6 2.2 4.3 1.85 3.95 1.55 3.35 1.55 2.8 1.55 2.45 1.9 2.1 2.25 2.05 3.05 L0.2 2.85 Q0.35 1.35 1.25 0.65 2.1 0.0 3.4 0.0 4.85 0.0 5.65 0.75 6.5 1.55 6.5 2.7" fill="#ffffff" fill-rule="evenodd" stroke="none"/>
  </g>
</svg>
