<?xml version="1.0" encoding="UTF-8" standalone="no"?>
<svg xmlns:ffdec="https://www.free-decompiler.com/flash" xmlns:xlink="http://www.w3.org/1999/xlink" ffdec:objectType="shape" height="9.85px" width="6.3px" xmlns="http://www.w3.org/2000/svg">
  <g transform="matrix(1.0, 0.0, 0.0, 1.0, 0.0, 0.0)">
    <path d="M6.3 4.95 Q6.3 7.7 5.35 8.9 4.55 9.85 3.15 9.85 1.75 9.85 0.9 8.8 0.0 7.7 0.0 4.9 0.0 2.2 0.95 1.0 1.75 0.0 3.15 0.0 4.55 0.0 5.35 1.0 6.3 2.2 6.3 4.95 M3.75 1.75 L3.15 1.55 2.55 1.75 Q2.3 1.95 2.15 2.5 L1.95 4.95 2.15 7.25 2.55 8.1 3.15 8.35 3.75 8.1 4.15 7.35 4.35 4.95 4.2 2.6 3.75 1.75" fill="#ffffff" fill-rule="evenodd" stroke="none"/>
  </g>
</svg>
