<?xml version="1.0" encoding="UTF-8" standalone="no"?>
<svg xmlns:ffdec="https://www.free-decompiler.com/flash" xmlns:xlink="http://www.w3.org/1999/xlink" ffdec:objectType="shape" height="15.0px" width="15.0px" xmlns="http://www.w3.org/2000/svg">
  <g transform="matrix(1.0, 0.0, 0.0, 1.0, 7.5, 7.5)">
    <path d="M0.0 -7.5 L0.05 -7.5 Q0.65 -7.5 1.05 -7.1 L1.5 -6.05 1.5 -1.5 6.05 -1.5 Q6.65 -1.5 7.1 -1.05 7.5 -0.6 7.5 0.0 L7.5 0.05 Q7.5 0.65 7.1 1.05 6.65 1.5 6.05 1.5 L1.5 1.5 1.5 6.05 Q1.5 6.65 1.05 7.05 0.65 7.5 0.05 7.5 L0.0 7.5 -1.05 7.05 Q-1.5 6.65 -1.5 6.05 L-1.5 1.5 -6.05 1.5 Q-6.65 1.5 -7.05 1.05 -7.5 0.65 -7.5 0.05 L-7.5 0.0 -7.05 -1.05 Q-6.65 -1.5 -6.05 -1.5 L-1.5 -1.5 -1.5 -6.05 -1.05 -7.1 Q-0.6 -7.5 0.0 -7.5" fill="#145665" fill-rule="evenodd" stroke="none"/>
  </g>
</svg>
