<?xml version="1.0" encoding="UTF-8" standalone="no"?>
<svg xmlns:ffdec="https://www.free-decompiler.com/flash" xmlns:xlink="http://www.w3.org/1999/xlink" ffdec:objectType="shape" height="20.45px" width="20.45px" xmlns="http://www.w3.org/2000/svg">
  <g transform="matrix(1.0, 0.0, 0.0, 1.0, 8.0, 12.45)">
    <path d="M5.65 -5.65 L6.95 -4.05 7.75 -2.15 8.0 0.0 7.75 2.05 6.95 4.0 5.65 5.65 4.05 6.95 2.15 7.65 0.05 8.0 -2.05 7.65 -4.0 6.95 -5.65 5.65 -6.85 4.0 -7.65 2.05 -8.0 0.0 -7.65 -2.15 -6.85 -4.05 -5.65 -5.65 -4.0 -6.95 -2.05 -7.75 0.05 -8.0 2.15 -7.75 4.05 -6.95 5.65 -5.65" fill="#145665" fill-rule="evenodd" stroke="none"/>
    <path d="M7.05 -7.05 Q4.15 -9.95 0.0 -9.95 L0.0 -12.45 Q5.15 -12.45 8.8 -8.8 10.05 -7.55 10.9 -6.05 12.45 -3.35 12.45 0.0 L9.95 0.0 Q9.95 -4.15 7.05 -7.05" fill="#145665" fill-rule="evenodd" stroke="none"/>
  </g>
</svg>
