<?xml version="1.0" encoding="UTF-8" standalone="no"?>
<svg xmlns:ffdec="https://www.free-decompiler.com/flash" xmlns:xlink="http://www.w3.org/1999/xlink" ffdec:objectType="shape" height="4.3px" width="9.0px" xmlns="http://www.w3.org/2000/svg">
  <g transform="matrix(1.0, 0.0, 0.0, 1.0, 4.5, 2.15)">
    <path d="M0.05 0.85 L0.3 0.5 0.4 0.0 1.3 0.0 1.2 0.55 0.85 1.3 0.35 1.8 -0.15 2.05 -0.9 2.15 -2.35 2.15 -2.75 2.1 -3.25 1.95 -3.75 1.65 -4.1 1.3 -4.35 0.9 -4.5 0.45 -4.5 -0.35 -4.3 -1.0 -4.0 -1.4 -3.55 -1.8 -3.05 -2.0 -2.35 -2.15 -0.7 -2.15 -1.15 -1.95 -1.4 -1.75 -1.75 -1.3 -2.35 -1.3 -2.65 -1.25 -2.95 -1.1 -3.25 -0.9 -3.5 -0.6 -3.6 -0.3 -3.65 0.0 -3.6 0.35 -3.5 0.6 -3.15 1.0 -2.7 1.2 -2.35 1.3 -0.9 1.3 -0.55 1.2 -0.25 1.05 0.05 0.85 M0.5 -1.25 L0.15 -1.05 -0.1 -0.8 -0.35 -0.45 -0.4 -0.15 -0.45 0.0 -1.3 0.0 -1.3 -0.25 -1.25 -0.5 -0.9 -1.3 -0.4 -1.75 0.5 -2.15 2.7 -2.15 3.2 -1.95 3.7 -1.65 4.05 -1.3 4.45 -0.4 4.5 0.0 4.4 0.55 4.2 1.0 3.95 1.4 3.5 1.8 3.0 2.05 2.3 2.15 0.6 2.15 0.6 2.1 1.05 1.95 1.35 1.75 1.7 1.3 2.3 1.3 2.85 1.15 3.2 0.9 3.45 0.6 3.55 0.35 3.6 0.0 3.55 -0.35 3.45 -0.6 3.1 -1.0 2.65 -1.25 2.3 -1.3 0.85 -1.3 0.5 -1.25" fill="#000000" fill-rule="evenodd" stroke="none"/>
  </g>
</svg>
