<?xml version="1.0" encoding="UTF-8" standalone="no"?>
<svg xmlns:ffdec="https://www.free-decompiler.com/flash" xmlns:xlink="http://www.w3.org/1999/xlink" ffdec:objectType="shape" height="15.0px" width="15.0px" xmlns="http://www.w3.org/2000/svg">
  <g transform="matrix(1.0, 0.0, 0.0, 1.0, 7.5, 7.5)">
    <path d="M1.5 -6.05 L1.5 -1.5 6.05 -1.5 Q6.65 -1.5 7.1 -1.05 7.5 -0.6 7.5 0.0 L7.5 0.05 Q7.5 0.65 7.1 1.05 6.65 1.5 6.05 1.5 L1.5 1.5 1.5 6.05 Q1.5 6.65 1.05 7.05 0.65 7.5 0.05 7.5 L0.0 7.5 -1.05 7.05 Q-1.5 6.65 -1.5 6.05 L-1.5 1.5 -6.05 1.5 Q-6.65 1.5 -7.05 1.05 -7.5 0.65 -7.5 0.05 L-7.5 0.0 -7.05 -1.05 Q-6.65 -1.5 -6.05 -1.5 L-1.5 -1.5 -1.5 -6.05 -1.05 -7.1 Q-0.6 -7.5 0.0 -7.5 L0.05 -7.5 Q0.65 -7.5 1.05 -7.1 L1.5 -6.05" fill="#000000" fill-rule="evenodd" stroke="none"/>
    <path d="M0.05 -7.0 L0.7 -6.75 1.0 -6.05 1.0 -1.5 Q1.0 -1.3 1.15 -1.15 1.3 -1.0 1.5 -1.0 L6.05 -1.0 6.75 -0.7 7.0 0.0 7.0 0.05 6.75 0.7 6.05 1.0 1.5 1.0 Q1.3 1.0 1.15 1.15 1.0 1.3 1.0 1.5 L1.0 6.05 0.75 6.7 0.7 6.75 0.05 7.0 0.0 7.0 -0.7 6.7 -1.0 6.05 -1.0 1.5 Q-1.0 1.3 -1.15 1.15 -1.3 1.0 -1.5 1.0 L-6.05 1.0 Q-6.45 1.0 -6.65 0.75 L-6.7 0.7 -7.0 0.05 -7.0 0.0 -6.7 -0.7 -6.65 -0.7 -6.05 -1.0 -1.5 -1.0 Q-1.3 -1.0 -1.15 -1.15 -1.0 -1.3 -1.0 -1.5 L-1.0 -6.05 -0.7 -6.7 -0.7 -6.75 0.0 -7.0 0.05 -7.0" fill="#ffffff" fill-rule="evenodd" stroke="none"/>
  </g>
</svg>
