<?xml version="1.0" encoding="UTF-8" standalone="no"?>
<svg xmlns:ffdec="https://www.free-decompiler.com/flash" xmlns:xlink="http://www.w3.org/1999/xlink" ffdec:objectType="shape" height="7.15px" width="6.45px" xmlns="http://www.w3.org/2000/svg">
  <g transform="matrix(1.0, 0.0, 0.0, 1.0, 2.8, 3.6)">
    <path d="M1.9 -3.4 L2.7 -2.7 3.05 -1.6 Q3.05 -0.8 2.55 -0.3 2.1 0.25 1.15 0.4 L1.95 1.0 2.7 2.15 3.65 3.55 1.9 3.55 0.85 1.95 0.15 0.9 -0.3 0.6 -1.05 0.55 -1.4 0.55 -1.4 3.55 -2.8 3.55 -2.8 -3.6 0.25 -3.6 1.9 -3.4 M1.4 -2.1 L0.85 -2.4 -0.25 -2.4 -1.4 -2.4 -1.4 -0.6 -0.3 -0.6 1.0 -0.65 1.45 -0.95 1.5 -1.55 1.4 -2.1" fill="#000000" fill-rule="evenodd" stroke="none"/>
  </g>
</svg>
