<?xml version="1.0" encoding="UTF-8" standalone="no"?>
<svg xmlns:ffdec="https://www.free-decompiler.com/flash" xmlns:xlink="http://www.w3.org/1999/xlink" ffdec:objectType="shape" height="56.85px" width="61.1px" xmlns="http://www.w3.org/2000/svg">
  <g transform="matrix(1.0, 0.0, 0.0, 1.0, 0.0, 0.0)">
    <path d="M56.1 21.6 L61.1 28.3 55.75 38.55 54.8 42.95 54.8 44.45 47.5 46.55 44.4 46.85 40.35 46.65 37.95 48.05 36.8 51.0 35.55 53.0 33.65 55.3 31.8 56.5 29.95 56.85 11.1 49.15 9.25 47.7 7.8 45.7 7.5 44.2 6.8 30.15 7.3 27.25 8.55 23.75 0.0 15.1 1.7 13.55 3.8 10.95 5.25 9.5 8.3 4.7 11.95 0.75 15.65 0.0 17.6 0.0 25.2 1.75 49.0 15.1 56.1 21.6" fill="#ffffff" fill-rule="evenodd" stroke="none"/>
  </g>
</svg>
