<?xml version="1.0" encoding="UTF-8" standalone="no"?>
<svg xmlns:ffdec="https://www.free-decompiler.com/flash" xmlns:xlink="http://www.w3.org/1999/xlink" ffdec:objectType="shape" height="15.0px" width="15.0px" xmlns="http://www.w3.org/2000/svg">
  <g transform="matrix(1.0, 0.0, 0.0, 1.0, 7.5, 7.5)">
    <path d="M5.3 -5.3 Q6.4 -4.25 6.9 -2.85 7.5 -1.55 7.5 0.0 7.5 1.5 6.9 2.95 6.4 4.25 5.3 5.3 4.3 6.4 2.95 6.9 1.55 7.5 0.0 7.5 -1.55 7.5 -2.85 6.9 -4.25 6.4 -5.3 5.3 -6.35 4.25 -6.85 2.95 -7.5 1.5 -7.5 0.0 -7.5 -1.55 -6.85 -2.85 -6.35 -4.25 -5.3 -5.3 L-2.85 -6.95 Q-1.55 -7.5 0.0 -7.5 L2.95 -6.95 Q4.3 -6.35 5.3 -5.3 M1.8 -3.2 Q2.3 -3.6 2.3 -4.35 2.3 -5.0 1.9 -5.45 1.4 -5.95 0.7 -5.95 0.05 -5.95 -0.45 -5.45 -0.85 -5.0 -0.85 -4.3 -0.85 -3.6 -0.45 -3.2 0.0 -2.7 0.7 -2.7 1.4 -2.7 1.8 -3.2 M1.4 -1.0 L1.25 -2.1 -2.1 -1.1 -2.35 -0.3 -2.3 -0.35 -2.05 -0.35 Q-1.7 -0.35 -1.7 -0.05 L-1.75 0.25 -2.6 2.95 -2.85 3.45 -2.85 4.15 Q-2.85 4.8 -2.5 5.2 -2.1 5.65 -1.35 5.65 -0.25 5.65 0.95 4.4 L0.8 3.55 0.65 3.7 0.05 4.05 -0.1 3.9 0.05 3.2 1.15 0.2 1.4 -1.0" fill="#ffffff" fill-rule="evenodd" stroke="none"/>
  </g>
</svg>
