<?xml version="1.0" encoding="UTF-8" standalone="no"?>
<svg xmlns:ffdec="https://www.free-decompiler.com/flash" xmlns:xlink="http://www.w3.org/1999/xlink" ffdec:objectType="shape" height="13.0px" width="13.0px" xmlns="http://www.w3.org/2000/svg">
  <g transform="matrix(1.0, 0.0, 0.0, 1.0, 6.5, 6.5)">
    <path d="M0.05 -6.0 L-1.55 -5.8 0.0 -6.0 0.05 -6.0 M-5.15 -2.95 L-5.75 -1.6 -6.0 0.0 Q-6.0 -1.6 -5.15 -2.95 M-6.0 0.0 L-5.75 1.55 -5.15 3.0 -4.6 3.8 Q-6.0 2.15 -6.0 0.0 M-1.55 5.75 L0.05 6.0 1.6 5.75 2.7 5.35 Q1.5 6.0 0.05 6.0 L0.0 6.0 Q-1.55 6.0 -2.8 5.3 L-1.55 5.75" fill="#000000" fill-rule="evenodd" stroke="none"/>
    <path d="M4.25 -4.25 L5.2 -3.05 5.4 -2.6 5.75 -1.7 5.8 -1.6 5.8 -1.5 6.0 0.0 5.8 1.55 5.3 2.8 5.2 3.0 4.25 4.25 3.05 5.2 1.6 5.75 0.05 6.0 -1.55 5.75 -3.0 5.2 -4.25 4.25 -5.15 3.0 -5.75 1.55 -6.0 0.0 -5.75 -1.6 -5.15 -2.95 -5.15 -3.05 -4.95 -3.3 -4.75 -3.55 -4.75 -3.6 -4.25 -4.25 -3.0 -5.2 -2.75 -5.3 -1.55 -5.8 0.05 -6.0 1.45 -5.8 1.6 -5.8 1.75 -5.7 2.65 -5.35 3.05 -5.2 4.25 -4.25" fill="#ffffff" fill-rule="evenodd" stroke="none"/>
    <path d="M4.25 -4.25 L5.2 -3.05 5.4 -2.6 5.75 -1.7 5.8 -1.6 5.8 -1.5 6.0 0.0 5.8 1.55 5.3 2.8 5.2 3.0 4.25 4.25 3.05 5.2 1.6 5.75 0.05 6.0 -1.55 5.75 -3.0 5.2 -4.25 4.25 -5.15 3.0 -5.75 1.55 -6.0 0.0 -5.75 -1.6 -5.15 -2.95 -5.15 -3.05 -4.95 -3.3 -4.75 -3.55 -4.75 -3.6 -4.25 -4.25 -3.0 -5.2 -2.75 -5.3 -1.55 -5.8 0.05 -6.0 1.45 -5.8 1.6 -5.8 1.75 -5.7 2.65 -5.35 3.05 -5.2 4.25 -4.25 Z" fill="none" stroke="#000000" stroke-linecap="round" stroke-linejoin="round" stroke-width="1.0"/>
    <path d="M0.8 -0.7 L3.55 -0.75 3.6 0.8 0.8 0.9 0.75 3.55 -0.75 3.55 -0.8 0.9 -3.6 0.8 -3.55 -0.75 -0.8 -0.7 -0.8 -3.6 0.8 -3.6 0.8 -0.7" fill="#000000" fill-rule="evenodd" stroke="none"/>
  </g>
</svg>
