<?xml version="1.0" encoding="UTF-8" standalone="no"?>
<svg xmlns:ffdec="https://www.free-decompiler.com/flash" xmlns:xlink="http://www.w3.org/1999/xlink" ffdec:objectType="shape" height="17.0px" width="17.0px" xmlns="http://www.w3.org/2000/svg">
  <g transform="matrix(1.0, 0.0, 0.0, 1.0, 0.5, 0.5)">
    <path d="M14.95 12.0 L13.65 13.65 12.05 14.95 10.15 15.65 8.05 16.0 5.95 15.65 4.0 14.95 2.35 13.65 1.15 12.0 0.35 10.05 0.0 8.0 0.35 5.85 1.15 3.95 2.35 2.35 4.0 1.05 5.95 0.25 8.05 0.0 10.15 0.25 12.05 1.05 13.65 2.35 14.95 3.95 15.75 5.85 16.0 8.0 15.75 10.05 14.95 12.0" fill="#ffffff" fill-rule="evenodd" stroke="none"/>
    <path d="M14.95 12.0 L13.65 13.65 12.05 14.95 10.15 15.65 8.05 16.0 5.95 15.65 4.0 14.95 2.35 13.65 1.15 12.0 0.35 10.05 0.0 8.0 0.35 5.85 1.15 3.95 2.35 2.35 4.0 1.05 5.95 0.25 8.05 0.0 10.15 0.25 12.05 1.05 13.65 2.35 14.95 3.95 15.75 5.85 16.0 8.0 15.75 10.05 14.95 12.0 Z" fill="none" stroke="#000000" stroke-linecap="round" stroke-linejoin="round" stroke-width="1.0"/>
  </g>
</svg>
