<?xml version="1.0" encoding="UTF-8" standalone="no"?>
<svg xmlns:ffdec="https://www.free-decompiler.com/flash" xmlns:xlink="http://www.w3.org/1999/xlink" ffdec:objectType="shape" height="19.15px" width="17.5px" xmlns="http://www.w3.org/2000/svg">
  <g transform="matrix(1.0, 0.0, 0.0, 1.0, 8.75, 9.95)">
    <path d="M2.05 -8.6 L8.6 6.1 8.65 6.2 8.75 7.25 8.75 7.45 8.1 8.6 8.1 8.65 6.95 9.2 6.9 9.2 5.6 9.0 0.0 6.15 -5.5 9.0 -5.55 9.05 -6.85 9.2 -6.9 9.2 -8.0 8.65 -8.05 8.6 -8.7 7.45 -8.55 6.15 -8.55 6.1 -2.0 -8.6 Q-1.7 -9.35 -0.85 -9.75 L0.75 -9.8 0.95 -9.75 2.05 -8.6" fill="#ff0000" fill-opacity="0.6" fill-rule="evenodd" stroke="none"/>
  </g>
</svg>
