<?xml version="1.0" encoding="UTF-8" standalone="no"?>
<svg xmlns:ffdec="https://www.free-decompiler.com/flash" xmlns:xlink="http://www.w3.org/1999/xlink" ffdec:objectType="shape" height="16.1px" width="13.5px" xmlns="http://www.w3.org/2000/svg">
  <g transform="matrix(1.0, 0.0, 0.0, 1.0, 6.75, 7.85)">
    <path d="M0.95 -6.05 L6.7 6.85 6.75 7.45 6.45 8.0 5.9 8.25 5.3 8.15 0.0 5.45 -5.3 8.15 -5.9 8.25 -6.4 8.0 -6.7 7.45 -6.65 6.85 -0.9 -6.05 -0.35 -6.55 Q0.0 -6.75 0.4 -6.55 L0.95 -6.05" fill="#000000" fill-opacity="0.24705882" fill-rule="evenodd" stroke="none"/>
    <path d="M0.95 -7.25 L6.7 5.65 6.75 6.25 6.45 6.8 5.9 7.05 5.3 6.95 0.0 4.25 -5.3 6.95 -5.9 7.05 -6.4 6.8 -6.7 6.25 -6.65 5.65 -0.9 -7.25 -0.35 -7.75 Q0.0 -7.95 0.4 -7.75 L0.95 -7.25" fill="#000000" fill-rule="evenodd" stroke="none"/>
    <path d="M0.0 3.1 L-5.75 6.05 0.0 -6.85 5.75 6.05 0.0 3.1" fill="#ffffff" fill-rule="evenodd" stroke="none"/>
    <path d="M0.0 3.1 L0.0 -6.85 5.75 6.05 0.0 3.1" fill="#000000" fill-opacity="0.29803923" fill-rule="evenodd" stroke="none"/>
  </g>
</svg>
