<?xml version="1.0" encoding="UTF-8" standalone="no"?>
<svg xmlns:ffdec="https://www.free-decompiler.com/flash" xmlns:xlink="http://www.w3.org/1999/xlink" ffdec:objectType="shape" height="18.1px" width="18.1px" xmlns="http://www.w3.org/2000/svg">
  <g transform="matrix(1.0, 0.0, 0.0, 1.0, 9.1, 9.05)">
    <path d="M9.0 -6.05 L2.95 0.0 9.0 6.05 6.0 9.05 -0.05 3.0 -6.1 9.05 -9.1 6.05 -3.05 0.0 -9.05 -6.0 -6.05 -9.0 -0.05 -3.0 6.0 -9.05 9.0 -6.05" fill="#000000" fill-rule="evenodd" stroke="none"/>
    <path d="M-1.85 -6.8 L-1.8 -6.85 -1.7 -6.85 -0.9 -7.0 0.85 -7.0 1.65 -6.85 1.75 -6.85 1.8 -6.8 2.65 -6.5 3.6 -6.05 3.65 -6.0 3.75 -5.95 4.35 -5.45 4.45 -5.35 5.05 -4.65 5.15 -4.55 5.2 -4.45 5.55 -3.75 5.65 -3.65 5.95 -2.6 5.95 -2.55 6.0 -2.45 6.0 1.75 5.75 2.5 5.75 2.55 5.35 3.4 5.3 3.45 5.25 3.6 4.75 4.25 4.65 4.35 4.55 4.45 3.9 4.95 3.65 5.15 3.4 5.2 3.35 5.2 3.3 5.45 2.85 6.05 2.7 6.15 2.15 6.6 2.0 6.65 1.4 6.85 1.3 6.95 1.15 6.95 0.5 7.0 -0.55 7.0 -1.2 6.95 -1.35 6.95 -1.45 6.85 -2.05 6.65 -2.2 6.6 -2.75 6.15 -2.85 6.05 -3.35 5.45 -3.4 5.2 -3.45 5.2 -3.7 5.15 -4.6 4.45 -4.7 4.35 -4.8 4.25 -5.35 3.45 -5.75 2.6 -5.75 2.55 -5.8 2.5 -6.0 1.75 -6.0 -2.45 -6.0 -2.55 -6.0 -2.6 -5.7 -3.65 -5.6 -3.75 -5.25 -4.45 -5.2 -4.55 -5.1 -4.65 -4.5 -5.35 -4.4 -5.45 -3.8 -5.95 -3.7 -6.0 -3.65 -6.05 -2.7 -6.5 -1.85 -6.8" fill="#000000" fill-rule="evenodd" stroke="none"/>
    <path d="M-0.7 2.45 L-0.7 3.5 -0.25 3.95 0.2 3.95 0.65 3.5 0.7 2.45 0.35 2.0 0.0 1.9 -0.4 2.0 -0.7 2.45 M-1.95 2.45 L-0.9 1.2 -0.7 0.5 -1.75 -0.6 -3.6 0.5 -3.7 1.45 -3.15 2.45 -1.95 2.45 M3.1 2.45 L3.65 1.45 3.55 0.5 1.7 -0.6 0.65 0.5 0.85 1.2 1.9 2.45 3.1 2.45 M-4.9 -2.3 L-4.6 -3.15 -4.25 -3.9 -3.7 -4.55 -3.1 -5.0 -2.35 -5.45 -1.5 -5.7 0.0 -5.85 1.45 -5.7 2.3 -5.45 3.05 -5.0 3.65 -4.55 4.2 -3.9 4.6 -3.15 4.85 -2.3 4.85 1.6 4.7 2.1 4.3 2.9 3.85 3.55 3.2 4.05 2.95 4.1 2.75 4.05 2.55 3.85 2.45 3.95 2.25 4.95 1.95 5.3 1.6 5.55 1.0 5.8 0.35 5.85 -0.4 5.85 -1.05 5.8 -1.65 5.55 -2.0 5.3 -2.3 4.95 -2.45 3.95 -2.6 3.85 -2.75 4.05 -3.0 4.1 -3.2 4.05 -3.9 3.55 -4.35 2.9 -4.9 1.6 -4.9 -2.3" fill="#ffffff" fill-rule="evenodd" stroke="none"/>
  </g>
</svg>
