<?xml version="1.0" encoding="UTF-8" standalone="no"?>
<svg xmlns:ffdec="https://www.free-decompiler.com/flash" xmlns:xlink="http://www.w3.org/1999/xlink" ffdec:objectType="shape" height="14.85px" width="14.1px" xmlns="http://www.w3.org/2000/svg">
  <g transform="matrix(1.0, 0.0, 0.0, 1.0, 7.1, 7.5)">
    <path d="M-0.05 3.45 Q-0.75 3.45 -0.85 3.9 L-0.8 4.55 -0.2 4.9 -0.05 4.95 0.05 4.9 0.7 4.55 0.75 3.9 Q0.7 3.45 -0.05 3.45 M0.75 1.25 L2.9 0.3 3.25 -0.8 1.85 -0.8 0.75 1.25 M-3.35 -0.8 L-3.0 0.3 -0.85 1.25 -1.95 -0.8 -3.35 -0.8 M5.85 -1.2 Q6.1 -0.65 5.85 -0.6 4.4 -0.4 3.75 0.9 3.35 1.55 3.1 2.55 L2.6 2.85 2.7 2.35 Q2.85 2.05 2.55 1.9 L2.1 2.8 1.75 4.0 0.9 6.35 0.7 5.0 -0.05 5.25 -0.8 5.05 -0.95 6.35 -1.75 4.2 Q-2.4 1.8 -2.65 1.9 -2.95 2.05 -2.8 2.35 L-2.7 2.85 Q-3.15 2.7 -3.2 2.55 -3.45 1.55 -3.85 0.9 -4.55 -0.4 -5.95 -0.6 -6.2 -0.65 -5.95 -1.2 L-5.25 -2.3 -4.6 -3.45 Q-4.4 -3.9 -4.45 -4.4 L-4.5 -6.2 Q-4.5 -6.6 -4.15 -6.45 L-2.65 -5.3 -1.4 -4.5 1.3 -4.5 2.55 -5.3 4.05 -6.45 Q4.4 -6.6 4.4 -6.2 L4.35 -4.4 Q4.3 -3.9 4.5 -3.45 L5.2 -2.3 5.85 -1.2" fill="#ffffff" fill-rule="evenodd" stroke="none"/>
    <path d="M-0.85 3.9 Q-0.75 3.45 -0.05 3.45 0.7 3.45 0.75 3.9 L0.7 4.55 0.05 4.9 -0.05 4.95 -0.2 4.9 -0.8 4.55 -0.85 3.9 M0.75 1.25 L1.85 -0.8 3.25 -0.8 2.9 0.3 0.75 1.25 M-3.0 0.3 L-3.35 -0.8 -1.95 -0.8 -0.85 1.25 -3.0 0.3 M4.2 -6.5 L4.05 -6.45 2.6 -5.35 1.35 -4.5 -1.45 -4.5 -2.7 -5.35 -4.15 -6.45 -4.3 -6.5 -4.5 -6.2 -4.45 -4.4 Q-4.4 -3.9 -4.6 -3.45 L-5.25 -2.3 -5.95 -1.2 Q-6.2 -0.65 -5.95 -0.6 -4.55 -0.4 -3.85 0.9 -3.45 1.55 -3.2 2.55 -3.15 2.7 -2.7 2.85 L-2.8 2.35 Q-2.95 2.05 -2.65 1.9 -2.45 1.9 -2.15 2.95 L-1.75 4.2 -0.95 6.35 -0.8 5.05 -0.05 5.25 0.7 5.0 0.9 6.35 1.75 4.0 2.1 2.85 Q2.35 1.9 2.55 1.9 2.85 2.05 2.7 2.35 L2.6 2.85 3.1 2.55 Q3.35 1.55 3.75 0.9 4.4 -0.4 5.85 -0.6 6.1 -0.65 5.85 -1.2 L5.2 -2.3 4.5 -3.45 Q4.3 -3.9 4.35 -4.4 L4.4 -6.2 4.2 -6.5 M4.2 -7.5 Q5.25 -7.5 5.4 -6.35 L5.35 -4.2 Q5.3 -4.1 5.4 -3.9 L6.0 -2.9 6.75 -1.6 Q7.15 -0.8 6.85 -0.25 6.55 0.25 6.0 0.35 5.2 0.5 4.8 1.05 4.55 1.45 4.25 2.35 L4.0 3.0 3.15 3.7 3.1 3.7 2.85 3.8 1.85 6.7 Q1.6 7.35 0.9 7.35 L0.8 7.35 Q0.2 7.3 -0.05 6.7 -0.2 7.25 -0.85 7.35 L-0.95 7.35 Q-1.65 7.35 -1.9 6.7 L-2.95 3.8 -3.2 3.7 -3.25 3.7 -4.1 3.0 -4.35 2.35 Q-4.6 1.45 -4.9 1.05 -5.3 0.5 -6.1 0.35 L-6.95 -0.25 Q-7.25 -0.8 -6.85 -1.6 L-6.1 -2.9 -5.5 -3.9 -5.45 -4.2 Q-5.65 -5.3 -5.5 -6.35 -5.35 -7.5 -4.3 -7.5 L-3.75 -7.35 -2.2 -6.2 -1.25 -5.5 1.15 -5.5 2.1 -6.2 3.65 -7.35 4.2 -7.5" fill="#000000" fill-rule="evenodd" stroke="none"/>
  </g>
</svg>
