<?xml version="1.0" encoding="UTF-8" standalone="no"?>
<svg xmlns:ffdec="https://www.free-decompiler.com/flash" xmlns:xlink="http://www.w3.org/1999/xlink" ffdec:objectType="shape" height="13.0px" width="13.0px" xmlns="http://www.w3.org/2000/svg">
  <g transform="matrix(1.0, 0.0, 0.0, 1.0, 6.5, 6.5)">
    <path d="M2.15 -1.25 L1.75 -1.75 1.25 -2.15 0.65 -2.4 0.0 -2.5 -0.65 -2.4 -1.25 -2.15 -1.75 -1.75 -2.15 -1.25 -2.4 -0.65 -2.5 0.0 -2.4 0.65 -2.15 1.25 -1.75 1.75 -1.25 2.15 -0.65 2.4 0.0 2.5 0.65 2.4 1.25 2.15 1.75 1.75 2.15 1.25 2.4 0.65 2.5 0.0 2.4 -0.65 2.15 -1.25 M1.6 -5.8 L3.05 -5.2 4.25 -4.25 5.2 -3.05 5.8 -1.6 6.0 0.0 5.8 1.55 5.2 3.0 4.25 4.25 3.05 5.2 1.6 5.75 0.05 6.0 -1.55 5.75 -3.0 5.2 -4.25 4.25 -5.15 3.0 -5.75 1.55 -6.0 0.0 -5.75 -1.6 -5.15 -3.05 -4.25 -4.25 -3.0 -5.2 -1.55 -5.8 0.05 -6.0 1.6 -5.8" fill="#ffffff" fill-rule="evenodd" stroke="none"/>
    <path d="M2.15 -1.25 L2.4 -0.65 2.5 0.0 2.4 0.65 2.15 1.25 1.75 1.75 1.25 2.15 0.65 2.4 0.0 2.5 -0.65 2.4 -1.25 2.15 -1.75 1.75 -2.15 1.25 -2.4 0.65 -2.5 0.0 -2.4 -0.65 -2.15 -1.25 -1.75 -1.75 -1.25 -2.15 -0.65 -2.4 0.0 -2.5 0.65 -2.4 1.25 -2.15 1.75 -1.75 2.15 -1.25 M1.6 -5.8 L3.05 -5.2 4.25 -4.25 5.2 -3.05 5.8 -1.6 6.0 0.0 5.8 1.55 5.2 3.0 4.25 4.25 3.05 5.2 1.6 5.75 0.05 6.0 -1.55 5.75 -3.0 5.2 -4.25 4.25 -5.15 3.0 -5.75 1.55 -6.0 0.0 -5.75 -1.6 -5.15 -3.05 -4.25 -4.25 -3.0 -5.2 -1.55 -5.8 0.05 -6.0 1.6 -5.8 Z" fill="none" stroke="#000000" stroke-linecap="round" stroke-linejoin="round" stroke-width="1.0"/>
  </g>
</svg>
