<?xml version="1.0" encoding="UTF-8" standalone="no"?>
<svg xmlns:ffdec="https://www.free-decompiler.com/flash" xmlns:xlink="http://www.w3.org/1999/xlink" ffdec:objectType="shape" height="119.4px" width="15.35px" xmlns="http://www.w3.org/2000/svg">
  <g transform="matrix(1.0, 0.0, 0.0, 1.0, 7.2, 38.7)">
    <path d="M7.95 -11.45 L8.0 -11.45 8.15 72.8 8.0 73.7 8.0 76.55 7.4 78.35 6.9 79.2 6.2 79.9 5.4 80.4 4.45 80.65 3.85 80.65 3.85 80.7 -3.3 80.7 -4.2 80.45 -5.05 79.95 -5.75 79.25 -6.25 78.4 -6.85 76.6 -6.85 73.75 -7.05 72.85 -7.2 -11.45 -6.4 -19.45 -4.85 -26.55 -0.35 -38.1 0.1 -38.65 0.3 -38.7 0.35 -38.7 0.55 -38.65 0.7 -38.5 1.0 -38.1 4.75 -29.35 6.7 -21.95 7.95 -11.45" fill="#434343" fill-rule="evenodd" stroke="none"/>
    <path d="M-0.3 4.05 L1.1 4.05 2.85 4.45 4.35 5.25 5.0 5.8 5.6 6.45 6.05 7.15 6.65 8.75 6.8 9.55 6.8 18.45 5.7 18.45 5.65 9.95 4.9 7.8 4.1 6.8 3.55 6.35 3.0 6.0 2.35 5.7 1.7 5.5 1.0 5.4 -0.2 5.4 -0.9 5.5 -1.55 5.7 -2.75 6.35 -3.7 7.3 -4.35 8.45 -4.85 9.95 -4.8 18.5 -5.95 18.5 -5.95 9.6 -5.85 8.75 -5.6 7.95 -5.25 7.2 -4.2 5.85 -2.8 4.8 -2.05 4.45 -0.3 4.05" fill="#707070" fill-rule="evenodd" stroke="none"/>
    <path d="M-2.3 -23.3 L-1.0 -23.7 -1.0 -18.9 1.8 -18.9 1.75 -23.7 2.95 -23.3 3.55 -21.0 3.7 -21.05 3.15 -23.45 1.55 -24.0 1.6 -20.7 -0.8 -20.7 -0.8 -24.0 -2.45 -23.45 -3.0 -21.05 -2.8 -21.0 -2.75 -21.4 -2.3 -23.3 M7.25 1.0 L7.0 -0.2 6.6 -1.3 6.05 -2.25 5.35 -3.15 4.5 -3.9 3.55 -4.5 2.5 -4.9 1.35 -5.15 0.25 -5.25 -0.9 -5.1 -2.0 -4.8 -3.95 -3.7 -4.75 -2.9 -5.4 -2.0 -5.95 -0.95 -6.3 0.1 -6.45 1.0 -6.05 -14.4 -4.55 -24.15 -1.5 -33.15 0.35 -36.75 3.9 -29.05 6.2 -19.3 6.85 -14.4 7.25 1.0" fill="#707070" fill-rule="evenodd" stroke="none"/>
    <path d="M3.85 23.75 L4.05 24.2 4.05 28.65 4.0 28.85 3.85 29.05 3.65 29.2 3.4 29.3 -2.5 29.3 -2.75 29.25 -2.9 29.1 -3.05 28.9 -3.15 28.65 -3.15 24.2 -2.95 23.75 -2.75 23.6 -2.5 23.5 3.4 23.5 3.65 23.6 3.85 23.75" fill="#707070" fill-rule="evenodd" stroke="none"/>
    <path d="M-2.1 69.35 L-2.4 69.65 -3.1 69.65 -3.1 69.4 -3.35 69.4 -3.3 75.2 -2.9 76.2 -2.7 76.6 -2.05 77.3 -1.65 77.6 -1.2 77.85 -0.7 78.05 0.35 78.2 1.3 78.15 2.35 77.85 2.8 77.6 3.2 77.3 3.85 76.6 4.4 75.15 4.4 69.4 4.15 69.4 4.15 69.65 3.45 69.65 3.25 69.45 2.9 69.2 2.8 69.15 2.75 66.85 1.55 66.85 1.55 70.75 1.65 70.75 2.0 70.95 2.55 71.45 2.8 71.75 3.1 72.45 3.2 72.8 3.2 73.4 3.1 73.75 2.8 74.45 2.55 74.75 2.0 75.25 1.3 75.55 0.9 75.65 0.15 75.65 -0.2 75.55 -0.9 75.25 -1.45 74.75 -1.7 74.45 -2.0 73.75 -2.1 72.8 -1.9 72.05 -1.7 71.75 -1.2 71.15 -0.45 70.7 -0.5 66.85 -1.75 66.9 -1.75 69.15 -2.1 69.35 M-4.7 62.8 L-4.75 62.9 -4.8 62.95 -4.9 63.15 -4.9 63.55 -4.8 63.55 -4.8 63.45 -4.75 63.3 -4.75 63.15 -4.7 63.05 -4.6 62.95 -4.2 62.75 -1.6 62.75 -1.6 62.9 2.55 62.9 2.55 62.75 5.15 62.75 5.25 62.8 5.4 62.8 5.45 62.85 5.55 62.9 5.6 63.0 5.65 63.05 5.7 63.15 5.75 63.2 5.75 63.5 5.9 63.5 5.9 63.2 5.85 63.1 5.85 63.05 5.8 62.95 5.65 62.8 5.25 62.6 -4.4 62.65 -4.7 62.8 M5.55 51.5 L5.4 51.5 5.4 51.6 5.0 51.85 4.75 51.95 4.75 52.4 4.5 53.5 4.25 54.05 3.6 54.95 2.65 55.65 2.15 55.9 1.0 56.15 0.05 56.15 -1.1 55.9 -1.6 55.65 -2.55 54.95 -3.2 54.05 -3.45 53.55 -3.7 52.45 -3.7 51.95 -3.95 51.9 -4.55 51.5 -4.55 54.25 -4.5 54.35 -4.45 54.5 -4.25 54.7 -4.1 54.8 -3.8 54.9 -3.65 54.9 -3.65 54.75 -3.75 54.75 -3.85 54.7 -4.0 54.65 -4.15 54.55 -4.25 54.45 -4.3 54.35 -4.4 54.25 -4.4 54.2 -4.45 54.1 -4.45 51.8 -4.05 52.05 -3.9 52.1 -3.9 52.45 -3.65 53.6 -3.4 54.15 -2.65 55.1 -2.2 55.5 -1.7 55.8 -0.55 56.25 0.05 56.35 1.05 56.35 1.65 56.25 2.75 55.8 3.25 55.5 3.25 55.45 3.3 55.45 3.7 55.1 4.1 54.65 4.7 53.6 4.95 52.45 4.95 52.1 5.1 52.05 5.4 51.8 5.4 54.15 5.3 54.35 5.1 54.55 4.95 54.65 4.8 54.7 4.7 54.75 4.55 54.75 4.55 54.85 4.9 54.85 5.35 54.55 5.4 54.45 5.5 54.35 5.5 54.25 5.55 54.15 5.55 51.5 M7.0 36.8 L7.0 21.3 7.55 19.1 7.6 44.55 7.85 44.55 7.9 53.35 7.65 53.25 7.65 49.95 7.0 49.7 7.0 49.85 7.55 50.05 7.55 54.3 7.45 54.8 7.3 55.2 7.05 55.6 6.4 56.3 6.0 56.55 5.05 56.85 4.6 56.85 4.6 57.05 5.05 57.05 5.6 56.9 6.05 56.7 6.45 56.45 6.75 56.2 6.6 56.55 7.3 56.95 6.8 57.8 6.3 58.4 4.9 59.4 4.05 59.8 2.1 60.3 2.05 60.3 2.05 60.65 2.3 60.6 5.15 60.6 5.9 60.7 6.95 61.25 7.25 61.55 7.65 62.2 7.8 62.6 7.9 63.3 7.95 63.5 7.95 72.3 7.8 73.05 7.7 73.25 7.55 73.4 7.4 73.6 7.1 73.8 6.9 73.9 6.7 73.95 6.1 73.95 6.1 69.8 5.95 69.8 6.0 75.7 6.3 75.7 6.65 75.6 7.0 75.4 7.45 75.05 7.8 74.65 7.8 76.5 7.2 78.25 6.75 79.1 6.1 79.75 5.3 80.25 4.4 80.45 -3.25 80.5 -4.15 80.25 -4.95 79.75 -5.6 79.1 -6.05 78.25 -6.65 76.55 -6.65 74.7 -6.3 75.1 -5.9 75.4 -5.5 75.6 -5.15 75.7 -4.9 75.7 -4.9 69.8 -5.05 69.8 -5.05 73.95 -5.65 73.95 -6.05 73.85 -6.2 73.75 -6.5 73.45 -6.65 73.25 -6.75 73.05 -6.9 72.35 -6.9 63.0 -6.85 62.6 -6.5 61.9 -6.0 61.2 -5.3 60.85 -4.55 60.65 -0.95 60.65 -0.95 60.3 -1.1 60.3 -3.05 59.8 -3.95 59.4 -4.7 58.95 -5.3 58.4 -5.8 57.8 -6.15 57.2 -6.25 56.95 -5.55 56.6 -5.5 56.6 -5.75 56.2 -5.45 56.5 -4.65 56.95 -4.1 57.1 -3.6 57.1 -3.6 56.9 -4.1 56.9 -4.6 56.75 -5.05 56.55 -5.45 56.3 -5.8 56.0 -6.1 55.65 -6.5 54.8 -6.55 54.35 -6.55 50.05 -6.05 49.9 -6.05 49.7 -6.7 49.95 -6.7 51.25 -6.8 51.25 -6.85 44.55 -6.65 44.55 -6.7 19.1 -6.05 21.3 -6.0 36.9 -5.35 38.75 -4.95 39.35 -4.45 39.9 -3.85 40.35 -3.15 40.75 -2.4 41.05 -1.6 41.2 2.8 41.2 4.25 40.7 4.95 40.3 5.55 39.85 6.05 39.3 6.7 38.1 7.0 36.8" fill="#707070" fill-rule="evenodd" stroke="none"/>
    <path d="M7.65 56.7 L7.9 56.0 7.95 62.8 7.85 62.45 7.55 61.7 7.3 61.35 6.65 60.85 6.3 60.65 5.9 60.5 5.15 60.4 2.55 60.45 3.2 60.35 4.15 60.05 5.85 59.15 6.5 58.55 7.0 57.95 7.65 56.7" fill="#707070" fill-rule="evenodd" stroke="none"/>
    <path d="M-4.55 60.45 L-5.35 60.7 -5.7 60.85 -6.3 61.4 -6.55 61.7 -6.75 62.05 -6.9 62.45 -6.95 56.1 -6.0 58.0 -5.5 58.6 -4.85 59.15 -4.05 59.65 -3.15 60.05 -2.15 60.35 -1.6 60.45 -4.55 60.45" fill="#707070" fill-rule="evenodd" stroke="none"/>
  </g>
</svg>
