<?xml version="1.0" encoding="UTF-8" standalone="no"?>
<svg xmlns:ffdec="https://www.free-decompiler.com/flash" xmlns:xlink="http://www.w3.org/1999/xlink" ffdec:objectType="shape" height="8.1px" width="18.95px" xmlns="http://www.w3.org/2000/svg">
  <g transform="matrix(1.0, 0.0, 0.0, 1.0, 9.5, 4.05)">
    <path d="M9.45 -2.6 L9.45 0.15 9.25 0.65 9.25 0.7 9.2 0.7 8.7 0.9 5.7 0.9 5.7 1.8 5.5 2.3 5.5 2.35 5.45 2.35 4.95 2.55 0.8 2.55 0.3 2.35 0.25 2.35 0.25 2.3 0.05 1.8 0.05 1.3 -1.65 3.75 -1.65 3.7 -1.9 3.95 -1.95 4.0 -2.3 4.05 -5.6 4.05 -6.1 3.85 -6.35 3.35 -6.2 2.85 -4.9 0.95 -6.55 0.95 -6.65 1.15 -6.65 1.25 -6.85 1.45 -6.95 1.55 -7.4 1.7 -8.75 1.7 -9.25 1.5 -9.3 1.5 -9.3 1.45 -9.5 0.95 -9.5 -2.6 -9.3 -3.1 -9.25 -3.15 -8.75 -3.35 -7.4 -3.35 -6.95 -3.2 -6.65 -2.75 -6.55 -2.45 -3.85 -2.45 -3.85 -2.6 -3.65 -3.1 -3.6 -3.15 -3.15 -3.35 -2.95 -3.8 -2.9 -3.85 -2.4 -4.05 -1.55 -4.05 -1.05 -3.85 -1.0 -3.85 -1.0 -3.8 -0.8 -3.35 8.7 -3.35 9.2 -3.15 9.25 -3.15 9.25 -3.1 9.45 -2.6" fill="#000000" fill-rule="evenodd" stroke="none"/>
    <path d="M-1.55 -2.6 L8.7 -2.6 8.7 0.15 4.95 0.15 4.95 1.8 0.8 1.8 0.8 0.2 -0.1 0.2 -2.3 3.3 -5.6 3.3 -3.45 0.2 -7.1 0.2 -7.4 0.95 -8.75 0.95 -8.75 -2.6 -7.4 -2.6 -7.1 -1.7 -3.1 -1.7 -3.1 -2.6 -2.4 -2.6 -2.4 -3.3 -1.55 -3.3 -1.55 -2.6" fill="#666666" fill-rule="evenodd" stroke="none"/>
  </g>
</svg>
