<?xml version="1.0" encoding="UTF-8" standalone="no"?>
<svg xmlns:ffdec="https://www.free-decompiler.com/flash" xmlns:xlink="http://www.w3.org/1999/xlink" ffdec:objectType="shape" height="8.55px" width="20.2px" xmlns="http://www.w3.org/2000/svg">
  <g transform="matrix(1.0, 0.0, 0.0, 1.0, 10.1, 4.25)">
    <path d="M9.8 -3.95 L10.1 -3.25 10.1 0.85 9.8 1.55 9.1 1.85 3.05 1.85 3.05 2.35 2.75 3.05 2.05 3.35 -1.8 3.35 Q-2.2 3.35 -2.5 3.05 L-2.55 2.95 -3.0 3.8 -3.4 4.15 -3.9 4.3 -7.1 4.3 -7.7 4.1 -8.05 3.5 -7.95 2.85 -7.0 1.0 -9.1 1.0 -9.6 0.85 -9.95 0.5 -10.1 0.0 -10.05 -2.55 -9.75 -3.25 -9.05 -3.55 -6.5 -3.55 -6.25 -3.95 -5.55 -4.25 9.1 -4.25 9.8 -3.95" fill="#000000" fill-rule="evenodd" stroke="none"/>
    <path d="M-9.05 -2.55 L-5.55 -2.55 -5.55 -3.25 9.1 -3.25 9.1 0.85 2.05 0.85 2.05 2.35 -1.8 2.35 -1.8 0.85 -2.55 0.85 -3.9 3.3 -7.1 3.3 -5.65 0.6 -5.65 0.0 -9.1 0.0 -9.05 -2.55" fill="#666666" fill-rule="evenodd" stroke="none"/>
  </g>
</svg>
