<?xml version="1.0" encoding="UTF-8" standalone="no"?>
<svg xmlns:ffdec="https://www.free-decompiler.com/flash" xmlns:xlink="http://www.w3.org/1999/xlink" ffdec:objectType="shape" height="47.6px" width="32.65px" xmlns="http://www.w3.org/2000/svg">
  <g transform="matrix(1.0, 0.0, 0.0, 1.0, 0.0, 0.0)">
    <path d="M8.55 2.9 L8.8 0.65 8.95 0.65 12.15 0.0 16.8 13.3 19.25 16.05 31.35 33.0 30.4 33.6 32.65 37.3 17.65 44.8 16.2 45.05 12.5 47.6 11.65 46.05 9.65 38.0 8.4 36.3 6.05 34.05 5.8 33.45 5.8 33.15 6.05 32.15 6.65 30.95 6.75 28.35 6.45 25.35 4.8 22.7 0.45 13.6 0.0 11.8 0.25 9.6 0.8 8.6 6.8 4.55 8.55 2.9" fill="#ffffff" fill-rule="evenodd" stroke="none"/>
  </g>
</svg>
