<?xml version="1.0" encoding="UTF-8" standalone="no"?>
<svg xmlns:ffdec="https://www.free-decompiler.com/flash" xmlns:xlink="http://www.w3.org/1999/xlink" ffdec:objectType="shape" height="83.2px" width="61.85px" xmlns="http://www.w3.org/2000/svg">
  <g transform="matrix(1.0, 0.0, 0.0, 1.0, 0.0, 0.0)">
    <path d="M58.85 17.4 L56.65 48.85 54.3 57.05 49.5 67.95 48.95 72.8 49.45 82.05 32.35 83.2 25.05 77.45 22.2 70.8 3.8 70.75 3.8 73.1 0.0 73.1 0.0 67.05 3.8 67.05 3.8 69.35 21.65 69.3 23.75 61.3 22.85 55.35 25.95 38.95 30.6 6.4 38.55 0.0 61.85 0.85 60.45 5.2 60.7 5.25 59.9 8.7 58.85 17.4" fill="#ffffff" fill-rule="evenodd" stroke="none"/>
  </g>
</svg>
