<?xml version="1.0" encoding="UTF-8" standalone="no"?>
<svg xmlns:ffdec="https://www.free-decompiler.com/flash" xmlns:xlink="http://www.w3.org/1999/xlink" ffdec:objectType="shape" height="1237.95px" width="510.0px" xmlns="http://www.w3.org/2000/svg">
  <g transform="matrix(1.0, 0.0, 0.0, 1.0, 255.0, 512.95)">
    <path d="M-182.4 -494.0 L-182.4 -512.95 174.6 -512.95 174.6 -494.0 255.0 -494.0 255.0 694.4 174.6 694.4 174.6 725.0 -182.4 725.0 -182.4 694.4 -255.0 694.4 -255.0 -494.0 -182.4 -494.0" fill="#434343" fill-rule="evenodd" stroke="none"/>
    <path d="M-41.9 312.5 L-37.95 312.5 -37.95 302.85 -28.45 302.85 -28.45 296.85 28.1 296.85 28.1 302.85 37.9 302.85 37.9 312.5 41.55 312.5 41.55 380.0 37.9 380.0 37.9 395.55 39.05 395.55 39.05 401.4 84.65 401.4 120.6 462.5 120.6 543.75 59.65 543.75 55.2 691.6 39.2 691.6 39.2 696.0 -39.4 696.0 -39.4 691.6 -120.75 691.6 -120.75 401.4 -39.7 401.4 -39.7 395.55 -37.95 395.55 -37.95 380.0 -41.9 380.0 -41.9 312.5" fill="#969696" fill-rule="evenodd" stroke="none"/>
    <path d="M51.55 438.35 L51.55 401.4 120.6 401.4 120.6 499.65 93.75 499.7 93.75 480.0 51.55 438.35" fill="#707070" fill-rule="evenodd" stroke="none"/>
    <path d="M-92.85 449.4 L-92.85 468.2 -45.35 523.75 -45.35 546.0 -42.2 546.0 -42.2 548.75 -45.35 548.75 -45.35 570.65 -92.85 627.2 -92.85 645.65 -120.65 645.65 -120.65 449.4 -92.85 449.4" fill="#707070" fill-rule="evenodd" stroke="none"/>
    <path d="M-117.6 -393.25 L-117.6 -400.75 -103.25 -400.75 -103.25 -503.2 103.35 -503.2 103.35 -400.75 117.75 -400.75 117.75 -393.25 201.2 -393.25 201.2 13.15 173.1 40.95 173.1 43.75 201.2 43.75 201.2 194.95 102.1 194.95 102.1 296.0 28.1 296.0 28.1 308.8 -28.45 308.8 -28.45 296.0 -102.5 296.0 -102.5 194.95 -200.1 194.95 -169.5 135.2 -164.35 40.55 -200.1 15.1 -200.1 -393.25 -117.6 -393.25" fill="#969696" fill-rule="evenodd" stroke="none"/>
    <path d="M-16.9 43.75 L15.0 43.75 15.0 116.25 -16.9 116.25 -16.9 43.75" fill="#707070" fill-rule="evenodd" stroke="none"/>
    <path d="M173.1 43.75 L201.2 43.75 201.2 194.95 173.1 194.95 173.1 43.75" fill="#707070" fill-rule="evenodd" stroke="none"/>
    <path d="M165.6 -393.25 L201.2 -393.25 201.2 -180.4 165.6 -216.35 165.6 -393.25" fill="#707070" fill-rule="evenodd" stroke="none"/>
    <path d="M-164.5 -393.25 L-164.5 -216.35 -200.1 -180.4 -200.1 -393.25 -164.5 -393.25" fill="#707070" fill-rule="evenodd" stroke="none"/>
    <path d="M-200.1 15.1 L-200.1 -5.6 -129.4 61.25 -128.75 83.15 -149.45 97.5 -149.45 194.95 -200.1 194.95 -200.1 65.0 -178.35 65.0 -178.35 45.45 -172.3 45.45 -172.3 42.65 -200.1 15.1" fill="#707070" fill-rule="evenodd" stroke="none"/>
    <path d="M-147.95 -126.8 L-147.95 -109.45 -160.15 -109.45 -160.15 -67.25 -195.3 -67.25 -195.3 -126.8 -147.95 -126.8" fill="#707070" fill-rule="evenodd" stroke="none"/>
    <path d="M-96.8 -512.95 L96.75 -512.95 96.75 -503.2 -96.8 -503.2 -96.8 -512.95" fill="#ffffff" fill-rule="evenodd" stroke="none"/>
  </g>
</svg>
