<?xml version="1.0" encoding="UTF-8" standalone="no"?>
<svg xmlns:ffdec="https://www.free-decompiler.com/flash" xmlns:xlink="http://www.w3.org/1999/xlink" ffdec:objectType="shape" height="68.0px" width="80.0px" xmlns="http://www.w3.org/2000/svg">
  <g transform="matrix(1.0, 0.0, 0.0, 1.0, 0.0, 0.0)">
    <path d="M72.95 1.3 Q73.5 2.3 74.2 5.75 L75.55 14.9 70.45 14.9 Q71.0 9.75 71.8 5.75 72.45 2.35 72.95 1.3 M63.75 16.0 L64.4 22.0 55.25 22.0 55.85 16.0 63.75 16.0 M69.05 16.0 L76.9 16.0 77.6 22.0 68.4 22.0 Q68.5 19.75 69.05 16.0 M26.1 60.4 L26.1 66.9 14.3 66.9 14.3 60.4 26.1 60.4 M27.55 66.9 L27.55 60.4 39.3 60.4 39.3 66.9 27.55 66.9 M26.1 56.75 L26.1 59.3 14.3 59.3 14.3 56.75 15.0 56.75 15.35 56.75 26.1 56.75 M39.3 56.75 L39.3 59.3 27.55 59.3 27.55 56.75 39.3 56.75 M14.3 23.2 L26.1 23.2 26.1 55.55 16.25 55.6 15.75 55.6 14.3 55.6 14.3 23.2 M30.3 25.15 Q29.75 25.15 29.75 25.7 L29.75 39.3 Q29.75 39.85 30.3 39.85 30.85 39.85 30.85 39.3 L30.85 25.7 Q30.85 25.15 30.3 25.15 M4.45 25.75 Q4.45 25.2 3.9 25.2 3.35 25.2 3.35 25.75 L3.35 39.3 Q3.35 39.85 3.9 39.85 4.45 39.85 4.45 39.3 L4.45 25.75 M17.1 25.15 Q16.55 25.15 16.55 25.7 L16.55 39.3 Q16.55 39.85 17.1 39.85 17.65 39.85 17.65 39.3 L17.65 25.7 Q17.65 25.15 17.1 25.15 M1.1 23.2 L12.85 23.2 12.9 55.6 11.7 55.6 11.3 55.6 10.75 55.6 1.1 55.6 1.1 23.2 M9.3 22.05 L2.4 22.05 Q2.5 19.85 3.05 16.0 L10.9 16.0 11.6 22.05 10.3 22.05 9.9 22.05 9.3 22.05 M6.95 1.35 Q7.5 2.3 8.2 5.8 8.95 9.65 9.5 14.9 L4.45 14.9 Q5.0 9.7 5.8 5.8 6.45 2.35 6.95 1.35 M21.4 5.8 L22.75 14.9 17.65 14.9 Q18.15 9.75 18.95 5.8 19.6 2.35 20.15 1.35 20.75 2.3 21.4 5.8 M27.55 23.2 L39.3 23.2 39.3 55.55 27.55 55.55 27.55 23.2 M28.8 22.05 L29.4 16.0 37.35 16.0 37.95 22.0 28.8 22.05 M24.15 16.0 L24.8 22.05 15.6 22.05 16.2 16.0 24.15 16.0 M33.4 1.35 Q33.95 2.3 34.6 5.8 L35.95 14.9 30.85 14.9 Q31.35 9.75 32.15 5.8 32.8 2.35 33.4 1.35 M53.9 23.2 L65.65 23.15 65.7 55.55 53.95 55.55 53.9 23.2 M69.9 25.15 Q69.35 25.15 69.35 25.7 L69.35 39.3 Q69.35 39.85 69.9 39.85 70.45 39.85 70.45 39.3 L70.45 25.7 Q70.45 25.15 69.9 25.15 M43.55 25.15 Q42.95 25.15 42.95 25.7 L42.95 39.3 Q42.95 39.85 43.55 39.85 44.1 39.85 44.1 39.3 L44.1 25.7 Q44.1 25.15 43.55 25.15 M57.25 25.7 Q57.25 25.15 56.7 25.15 56.15 25.15 56.15 25.7 L56.2 39.3 Q56.2 39.85 56.75 39.85 57.25 39.85 57.25 39.3 L57.25 25.7 M40.7 23.2 L52.5 23.2 52.5 55.55 40.75 55.55 40.7 23.2 M42.0 22.0 L42.65 16.0 50.55 16.0 51.15 22.0 42.0 22.0 M45.35 5.75 Q46.05 2.3 46.6 1.3 47.15 2.35 47.8 5.75 48.6 9.8 49.1 14.9 L44.05 14.9 Q44.6 9.7 45.35 5.75 M61.05 5.75 L62.3 14.9 57.25 14.9 Q57.8 9.7 58.6 5.75 59.25 2.3 59.8 1.3 60.35 2.35 61.05 5.75 M67.1 23.15 L78.85 23.15 78.85 55.55 67.1 55.55 67.1 23.15 M12.9 59.3 L1.1 59.3 1.1 56.75 9.2 56.75 11.85 56.75 12.3 56.75 12.9 56.75 12.9 59.3 M52.5 60.4 L52.5 66.9 40.75 66.9 40.75 60.4 52.5 60.4 M52.5 56.75 L52.5 59.3 40.75 59.3 40.75 56.75 52.5 56.75 M65.7 60.4 L65.7 66.85 53.95 66.9 53.95 60.4 65.7 60.4 M67.1 66.85 L67.1 60.4 78.95 60.35 78.95 66.85 67.1 66.85 M65.7 56.7 L65.7 59.3 53.95 59.3 53.95 56.75 55.2 56.7 55.6 56.7 56.2 56.7 65.7 56.7 M78.85 56.7 L78.85 59.3 67.1 59.3 67.1 56.7 78.85 56.7 M1.1 60.4 L12.9 60.4 12.9 66.9 1.1 66.9 1.1 60.4" fill="#57ffff" fill-opacity="0.09803922" fill-rule="evenodd" stroke="none"/>
    <path d="M72.95 1.3 Q72.45 2.35 71.8 5.75 71.0 9.75 70.45 14.9 L75.55 14.9 74.2 5.75 Q73.5 2.3 72.95 1.3 M69.35 14.9 Q71.0 0.0 72.95 0.0 74.95 0.0 76.65 14.9 L77.9 14.9 78.0 15.3 78.7 22.0 80.0 22.0 80.0 67.95 0.05 68.0 0.0 22.05 1.25 22.05 2.0 15.4 2.05 14.9 3.35 14.9 Q5.0 0.05 6.95 0.05 8.95 0.05 10.65 14.9 L11.9 14.9 11.95 15.4 12.7 22.05 14.5 22.05 Q14.6 20.0 15.2 15.4 L15.25 14.9 16.55 14.9 Q16.95 10.8 17.65 6.75 18.85 0.05 20.15 0.05 22.2 0.05 23.85 14.9 L25.15 14.9 25.2 15.4 25.9 22.05 27.7 22.05 Q27.8 20.0 28.4 15.4 L28.45 14.9 29.75 14.9 Q30.25 10.1 30.85 6.35 32.05 0.0 33.4 0.0 35.4 0.0 37.05 14.9 L38.3 14.9 38.4 15.4 39.1 22.0 40.9 22.0 Q41.0 19.75 41.6 15.4 L41.7 14.9 42.95 14.9 Q43.35 10.65 44.05 6.75 45.25 0.0 46.6 0.0 47.95 0.0 49.1 6.75 49.85 10.75 50.2 14.9 L51.5 14.9 51.55 15.3 52.3 22.0 54.1 22.0 Q54.2 20.0 54.8 15.3 L54.85 14.9 56.15 14.9 Q57.8 0.0 59.8 0.0 61.15 0.0 62.3 6.75 63.05 10.75 63.45 14.9 L64.7 14.9 64.75 15.3 65.5 22.0 67.3 22.0 Q67.4 20.05 68.0 15.3 L68.05 14.9 69.35 14.9 M63.75 16.0 L55.85 16.0 55.25 22.0 64.4 22.0 63.75 16.0 M69.05 16.0 Q68.5 19.75 68.4 22.0 L77.6 22.0 76.9 16.0 69.05 16.0 M67.1 23.15 L67.1 55.55 78.85 55.55 78.85 23.15 67.1 23.15 M61.05 5.75 Q60.35 2.35 59.8 1.3 59.25 2.3 58.6 5.75 57.8 9.7 57.25 14.9 L62.3 14.9 61.05 5.75 M45.35 5.75 Q44.6 9.7 44.05 14.9 L49.1 14.9 Q48.6 9.8 47.8 5.75 47.15 2.35 46.6 1.3 46.05 2.3 45.35 5.75 M42.0 22.0 L51.15 22.0 50.55 16.0 42.65 16.0 42.0 22.0 M40.7 23.2 L40.75 55.55 52.5 55.55 52.5 23.2 40.7 23.2 M57.25 25.7 L57.25 39.3 Q57.25 39.85 56.75 39.85 56.2 39.85 56.2 39.3 L56.15 25.7 Q56.15 25.15 56.7 25.15 57.25 25.15 57.25 25.7 M43.55 25.15 Q44.1 25.15 44.1 25.7 L44.1 39.3 Q44.1 39.85 43.55 39.85 42.95 39.85 42.95 39.3 L42.95 25.7 Q42.95 25.15 43.55 25.15 M69.9 25.15 Q70.45 25.15 70.45 25.7 L70.45 39.3 Q70.45 39.85 69.9 39.85 69.35 39.85 69.35 39.3 L69.35 25.7 Q69.35 25.15 69.9 25.15 M53.9 23.2 L53.95 55.55 65.7 55.55 65.65 23.15 53.9 23.2 M33.4 1.35 Q32.8 2.35 32.15 5.8 31.35 9.75 30.85 14.9 L35.95 14.9 34.6 5.8 Q33.95 2.3 33.4 1.35 M24.15 16.0 L16.2 16.0 15.6 22.05 24.8 22.05 24.15 16.0 M28.8 22.05 L37.95 22.0 37.35 16.0 29.4 16.0 28.8 22.05 M27.55 23.2 L27.55 55.55 39.3 55.55 39.3 23.2 27.55 23.2 M21.4 5.8 Q20.75 2.3 20.15 1.35 19.6 2.35 18.95 5.8 18.15 9.75 17.65 14.9 L22.75 14.9 21.4 5.8 M6.95 1.35 Q6.45 2.35 5.8 5.8 5.0 9.7 4.45 14.9 L9.5 14.9 Q8.95 9.65 8.2 5.8 7.5 2.3 6.95 1.35 M9.3 22.05 L9.9 22.05 10.3 22.05 11.6 22.05 10.9 16.0 3.05 16.0 Q2.5 19.85 2.4 22.05 L9.3 22.05 M1.1 23.2 L1.1 55.6 10.75 55.6 11.3 55.6 11.7 55.6 12.9 55.6 12.85 23.2 1.1 23.2 M17.1 25.15 Q17.65 25.15 17.65 25.7 L17.65 39.3 Q17.65 39.85 17.1 39.85 16.55 39.85 16.55 39.3 L16.55 25.7 Q16.55 25.15 17.1 25.15 M4.45 25.75 L4.45 39.3 Q4.45 39.85 3.9 39.85 3.35 39.85 3.35 39.3 L3.35 25.75 Q3.35 25.2 3.9 25.2 4.45 25.2 4.45 25.75 M30.3 25.15 Q30.85 25.15 30.85 25.7 L30.85 39.3 Q30.85 39.85 30.3 39.85 29.75 39.85 29.75 39.3 L29.75 25.7 Q29.75 25.15 30.3 25.15 M14.3 23.2 L14.3 55.6 15.75 55.6 16.25 55.6 26.1 55.55 26.1 23.2 14.3 23.2 M39.3 56.75 L27.55 56.75 27.55 59.3 39.3 59.3 39.3 56.75 M26.1 56.75 L15.35 56.75 15.0 56.75 14.3 56.75 14.3 59.3 26.1 59.3 26.1 56.75 M27.55 66.9 L39.3 66.9 39.3 60.4 27.55 60.4 27.55 66.9 M26.1 60.4 L14.3 60.4 14.3 66.9 26.1 66.9 26.1 60.4 M12.9 59.3 L12.9 56.75 12.3 56.75 11.85 56.75 9.2 56.75 1.1 56.75 1.1 59.3 12.9 59.3 M1.1 60.4 L1.1 66.9 12.9 66.9 12.9 60.4 1.1 60.4 M78.85 56.7 L67.1 56.7 67.1 59.3 78.85 59.3 78.85 56.7 M65.7 56.7 L56.2 56.7 55.6 56.7 55.2 56.7 53.95 56.75 53.95 59.3 65.7 59.3 65.7 56.7 M67.1 66.85 L78.95 66.85 78.95 60.35 67.1 60.4 67.1 66.85 M65.7 60.4 L53.95 60.4 53.95 66.9 65.7 66.85 65.7 60.4 M52.5 56.75 L40.75 56.75 40.75 59.3 52.5 59.3 52.5 56.75 M52.5 60.4 L40.75 60.4 40.75 66.9 52.5 66.9 52.5 60.4" fill="#90fffc" fill-rule="evenodd" stroke="none"/>
  </g>
</svg>
