<?xml version="1.0" encoding="UTF-8" standalone="no"?>
<svg xmlns:ffdec="https://www.free-decompiler.com/flash" xmlns:xlink="http://www.w3.org/1999/xlink" ffdec:objectType="shape" height="126.0px" width="126.0px" xmlns="http://www.w3.org/2000/svg">
  <g transform="matrix(1.0, 0.0, 0.0, 1.0, 0.0, 0.0)">
    <path d="M116.45 29.35 Q126.0 44.25 126.0 63.0 126.0 89.05 107.5 107.4 89.15 126.0 63.0 126.0 36.95 126.0 18.4 107.4 0.0 89.05 0.0 63.0 0.0 36.85 18.4 18.35 L20.9 16.05 Q25.7 11.65 31.0 8.5 L34.15 6.7 Q40.7 3.35 47.95 1.65 55.15 0.0 63.0 0.0 70.9 0.0 78.05 1.65 94.7 5.55 107.5 18.35 112.7 23.55 116.45 29.35" fill="#57ffff" fill-opacity="0.49803922" fill-rule="evenodd" stroke="none"/>
  </g>
</svg>
