<?xml version="1.0" encoding="UTF-8" standalone="no"?>
<svg xmlns:ffdec="https://www.free-decompiler.com/flash" xmlns:xlink="http://www.w3.org/1999/xlink" ffdec:objectType="shape" height="383.95px" width="42.8px" xmlns="http://www.w3.org/2000/svg">
  <g transform="matrix(1.0, 0.0, 0.0, 1.0, 26.45, 183.95)">
    <path d="M15.9 -182.95 L15.6 -182.25 14.9 -181.95 0.15 -181.95 0.15 -88.25 14.9 -88.25 15.6 -87.95 15.9 -87.25 15.6 -86.55 14.9 -86.25 0.15 -86.25 0.15 7.35 14.9 7.35 15.6 7.65 15.9 8.35 15.6 9.05 14.9 9.35 0.15 9.35 0.15 103.15 14.9 103.15 15.6 103.45 15.9 104.15 15.6 104.85 14.9 105.15 0.15 105.15 0.15 198.0 15.35 198.0 16.05 198.3 16.35 199.0 16.05 199.7 15.35 200.0 -1.85 200.0 -1.85 47.95 -14.3 47.95 -15.0 47.65 -15.3 46.95 -15.0 46.25 -14.3 45.95 -1.85 45.95 -1.85 43.1 -14.3 43.1 -15.0 42.8 -15.3 42.1 -15.0 41.4 -14.3 41.1 -1.85 41.1 -1.85 38.25 -14.3 38.25 -15.0 37.95 -15.3 37.25 -15.0 36.55 -14.3 36.25 -1.85 36.25 -1.85 33.4 -25.45 33.4 -26.15 33.1 -26.45 32.4 -26.15 31.7 Q-25.85 31.4 -25.45 31.4 L-1.85 31.4 -1.85 28.6 -14.3 28.6 -15.0 28.3 -15.3 27.6 -15.0 26.9 -14.3 26.6 -1.85 26.6 -1.85 23.75 -14.3 23.75 -15.0 23.45 -15.3 22.75 -15.0 22.05 -14.3 21.75 -1.85 21.75 -1.85 18.9 -14.3 18.9 -15.0 18.6 -15.3 17.9 -15.0 17.2 -14.3 16.9 -1.85 16.9 -1.85 14.05 -14.3 14.05 -15.0 13.75 -15.3 13.05 -15.0 12.35 -14.3 12.05 -1.85 12.05 -1.85 9.25 -25.45 9.25 -26.15 8.95 -26.45 8.25 -26.15 7.55 Q-25.85 7.25 -25.45 7.25 L-1.85 7.25 -1.85 4.4 -14.3 4.4 -15.0 4.1 -15.3 3.4 -15.0 2.7 -14.3 2.4 -1.85 2.4 -1.85 -0.45 -14.3 -0.45 -15.0 -0.75 -15.3 -1.45 -15.0 -2.15 -14.3 -2.45 -1.85 -2.45 -1.85 -5.3 -14.3 -5.3 -15.0 -5.6 -15.3 -6.3 -15.0 -7.0 -14.3 -7.3 -1.85 -7.3 -1.85 -10.1 -14.3 -10.1 -15.0 -10.4 -15.3 -11.1 Q-15.3 -12.1 -14.3 -12.1 L-1.85 -12.1 -1.85 -14.95 -25.45 -14.95 Q-25.85 -14.95 -26.15 -15.25 L-26.45 -15.95 -26.15 -16.65 -25.45 -16.95 -1.85 -16.95 -1.85 -19.8 -14.3 -19.8 -15.0 -20.1 -15.3 -20.8 -15.0 -21.5 -14.3 -21.8 -1.85 -21.8 -1.85 -24.65 -14.3 -24.65 -15.0 -24.95 -15.3 -25.65 -15.0 -26.35 -14.3 -26.65 -1.85 -26.65 -1.85 -29.5 -14.3 -29.5 -15.0 -29.8 -15.3 -30.5 -15.0 -31.2 -14.3 -31.5 -1.85 -31.5 -1.85 -34.3 -14.3 -34.3 -15.0 -34.6 -15.3 -35.3 -15.0 -36.0 -14.3 -36.3 -1.85 -36.3 -1.85 -39.15 -25.45 -39.15 Q-25.85 -39.15 -26.15 -39.45 L-26.45 -40.15 -26.15 -40.85 -25.45 -41.15 -1.85 -41.15 -1.85 -44.0 -14.3 -44.0 -15.0 -44.3 -15.3 -45.0 -15.0 -45.7 -14.3 -46.0 -1.85 -46.0 -1.85 -183.95 14.9 -183.95 15.6 -183.65 15.9 -182.95" fill="#51ff00" fill-rule="evenodd" stroke="none"/>
  </g>
</svg>
