<?xml version="1.0" encoding="UTF-8" standalone="no"?>
<svg xmlns:ffdec="https://www.free-decompiler.com/flash" xmlns:xlink="http://www.w3.org/1999/xlink" ffdec:objectType="shape" height="87.6px" width="88.25px" xmlns="http://www.w3.org/2000/svg">
  <g transform="matrix(1.0, 0.0, 0.0, 1.0, 0.0, 0.0)">
    <path d="M87.75 0.5 Q88.95 1.7 87.2 6.1 L86.1 8.6 85.55 9.7 84.35 12.0 Q81.7 16.85 79.35 19.4 L78.95 19.8 43.45 54.95 37.55 72.8 22.65 87.6 20.45 76.75 10.9 67.1 0.0 64.75 14.95 50.0 32.85 44.25 46.85 30.35 46.9 30.4 68.7 8.7 68.75 8.75 Q70.1 7.45 72.2 6.1 74.3 4.75 77.15 3.25 L81.0 1.45 81.85 1.1 Q84.65 0.0 86.25 0.0 87.25 0.0 87.75 0.5 M86.95 1.25 L86.25 1.1 Q84.7 1.1 81.85 2.25 L81.0 2.6 77.95 4.05 Q75.95 5.1 74.25 6.1 71.3 7.85 69.5 9.5 L78.6 18.65 Q81.25 15.65 84.35 9.7 L84.6 9.2 84.9 8.6 86.0 6.1 86.9 3.5 Q87.35 1.65 86.95 1.25 M68.75 14.8 L57.1 26.35 56.7 26.5 56.3 26.35 Q55.95 26.0 56.3 25.6 L68.0 14.05 Q68.4 13.7 68.75 14.05 69.15 14.45 68.75 14.8 M77.8 19.45 L68.7 10.25 50.7 28.1 52.95 30.4 53.8 31.3 59.75 37.3 77.8 19.45 M51.05 30.05 L49.9 28.9 47.65 31.15 56.7 40.3 59.0 38.05 53.8 32.8 51.05 30.05 M46.1 36.5 Q46.5 36.9 46.1 37.25 L38.8 44.45 38.45 44.6 38.05 44.45 Q37.7 44.1 38.05 43.7 L45.35 36.5 Q45.75 36.05 46.1 36.5 M55.95 41.1 L46.85 31.9 33.95 44.75 34.5 45.3 35.05 45.9 43.0 53.9 44.2 52.65 44.2 52.75 55.95 41.1 M31.0 52.2 L19.35 63.75 18.95 63.9 18.55 63.75 Q18.2 63.4 18.55 63.0 L30.25 51.45 Q30.6 51.05 31.0 51.45 31.4 51.85 31.0 52.2 M13.95 64.55 L11.85 66.55 20.95 75.75 23.0 73.65 13.95 64.55 M17.7 66.8 L23.8 72.9 42.2 54.65 33.15 45.5 14.75 63.75 15.3 64.35 15.5 64.5 17.7 66.8 M2.2 64.1 L10.9 65.95 31.1 46.0 15.5 50.95 2.2 64.1 M23.3 85.4 L36.6 72.2 41.75 56.65 21.55 76.7 23.3 85.4" fill="#90fffc" fill-rule="evenodd" stroke="none"/>
    <path d="M87.05 1.15 Q88.35 2.5 84.75 9.75 81.3 16.75 78.25 19.7 L42.7 54.95 36.75 72.8 22.65 86.8 20.65 76.8 10.8 66.85 0.8 64.75 14.9 50.75 32.85 45.0 68.4 9.8 Q71.45 6.8 78.45 3.4 85.75 -0.15 87.05 1.15" fill="#57ffff" fill-opacity="0.09803922" fill-rule="evenodd" stroke="none"/>
  </g>
</svg>
