<?xml version="1.0" encoding="UTF-8" standalone="no"?>
<svg xmlns:ffdec="https://www.free-decompiler.com/flash" xmlns:xlink="http://www.w3.org/1999/xlink" ffdec:objectType="shape" height="63.6px" width="65.3px" xmlns="http://www.w3.org/2000/svg">
  <g transform="matrix(1.0, 0.0, 0.0, 1.0, 1.5, 1.5)">
    <path d="M42.5 29.6 L42.5 32.6 59.4 32.6 Q60.9 33.7 61.1 36.1 61.4 38.5 59.7 39.9 L57.5 40.0 57.5 39.9 43.3 39.9 43.3 42.9 56.7 42.9 Q57.4 44.3 57.4 46.8 57.4 49.8 55.3 50.8 L42.9 50.8 42.9 53.8 50.2 53.8 Q51.1 55.6 50.7 57.6 50.3 59.6 47.2 60.6 L26.1 60.6 Q19.7 60.6 10.6 57.0 4.9 54.8 0.1 52.1 L0.0 29.7 Q15.6 26.7 26.0 15.3 31.3 9.5 33.7 3.7 L34.7 1.9 Q36.0 0.0 38.0 0.0 39.3 0.0 40.1 1.3 41.4 4.0 40.5 9.3 39.4 15.0 36.3 19.6 L34.7 21.9 54.4 21.9 Q59.4 21.9 60.9 22.6 62.3 23.2 62.3 25.1 62.3 27.4 61.1 28.7 60.4 29.4 59.6 29.6 L42.5 29.6" fill="#f5f5f5" fill-rule="evenodd" stroke="none"/>
    <path d="M42.5 29.6 L59.6 29.6 Q60.4 29.4 61.1 28.7 62.3 27.4 62.3 25.1 62.3 23.2 60.9 22.6 59.4 21.9 54.4 21.9 L34.7 21.9 36.3 19.6 Q39.4 15.0 40.5 9.3 41.4 4.0 40.1 1.3 39.3 0.0 38.0 0.0 36.0 0.0 34.7 1.9 L33.7 3.7 Q31.3 9.5 26.0 15.3 15.6 26.7 0.0 29.7 L0.1 52.1 Q4.9 54.8 10.6 57.0 19.7 60.6 26.1 60.6 L47.2 60.6 Q50.3 59.6 50.7 57.6 51.1 55.6 50.2 53.8 L42.9 53.8 42.9 50.8 55.3 50.8 Q57.4 49.8 57.4 46.8 57.4 44.3 56.7 42.9 L43.3 42.9 43.3 39.9 57.5 39.9 57.5 40.0 59.7 39.9 Q61.4 38.5 61.1 36.1 60.9 33.7 59.4 32.6 L42.5 32.6 42.5 29.6 Z" fill="none" stroke="#000000" stroke-linecap="butt" stroke-linejoin="miter-clip" stroke-miterlimit="10.0" stroke-width="3.0"/>
  </g>
</svg>
