<?xml version="1.0" encoding="UTF-8" standalone="no"?>
<svg xmlns:ffdec="https://www.free-decompiler.com/flash" xmlns:xlink="http://www.w3.org/1999/xlink" ffdec:objectType="shape" height="14.0px" width="51.7px" xmlns="http://www.w3.org/2000/svg">
  <g transform="matrix(1.0, 0.0, 0.0, 1.0, 0.0, 0.0)">
    <path d="M51.05 0.8 L51.05 13.25 0.95 13.25 0.95 0.8 51.05 0.8" fill="#ffffff" fill-rule="evenodd" stroke="none"/>
    <path d="M20.85 4.2 L21.85 4.2 19.1 9.55 18.0 9.55 17.1 4.2 18.15 4.2 18.75 8.25 20.85 4.2" fill="#000000" fill-rule="evenodd" stroke="none"/>
    <path d="M26.05 4.2 L25.85 5.1 23.2 5.1 22.95 6.3 25.55 6.3 25.35 7.2 22.75 7.2 22.45 8.65 25.35 8.65 25.2 9.55 21.25 9.55 22.3 4.2 26.05 4.2" fill="#000000" fill-rule="evenodd" stroke="none"/>
    <path d="M29.0 5.1 L27.85 5.1 27.6 6.55 29.25 6.45 29.65 6.1 29.8 5.6 29.6 5.2 29.0 5.1 M30.65 4.8 L30.85 5.6 Q30.85 6.25 30.45 6.75 30.1 7.15 29.3 7.3 L29.7 7.8 30.45 9.55 29.35 9.55 28.8 8.15 28.35 7.45 27.85 7.35 27.45 7.35 27.0 9.55 25.95 9.55 27.0 4.2 29.25 4.2 30.15 4.3 30.65 4.8" fill="#000000" fill-rule="evenodd" stroke="none"/>
    <path d="M32.0 4.2 L33.05 4.2 32.0 9.55 30.95 9.55 32.0 4.2" fill="#000000" fill-rule="evenodd" stroke="none"/>
    <path d="M37.5 4.2 L37.3 5.1 34.85 5.1 34.6 6.4 37.0 6.4 36.85 7.3 34.4 7.3 33.95 9.55 32.95 9.55 34.0 4.2 37.5 4.2" fill="#000000" fill-rule="evenodd" stroke="none"/>
    <path d="M38.25 4.2 L39.25 4.2 38.2 9.55 37.2 9.55 38.25 4.2" fill="#000000" fill-rule="evenodd" stroke="none"/>
    <path d="M43.75 5.1 L41.1 5.1 40.85 6.3 43.45 6.3 43.25 7.2 40.65 7.2 40.35 8.65 43.3 8.65 43.1 9.55 39.2 9.55 40.25 4.2 43.95 4.2 43.75 5.1" fill="#000000" fill-rule="evenodd" stroke="none"/>
    <path d="M48.35 5.1 L48.55 5.7 48.65 6.45 48.35 7.95 47.55 9.05 Q47.2 9.35 46.65 9.5 L45.65 9.55 43.85 9.55 44.9 4.2 47.0 4.2 47.55 4.35 48.0 4.65 48.35 5.1 M47.0 5.15 L45.8 5.1 45.05 8.7 45.6 8.7 46.4 8.65 46.9 8.35 47.4 7.55 47.6 6.4 47.45 5.55 47.0 5.15" fill="#000000" fill-rule="evenodd" stroke="none"/>
    <path d="M1.65 1.3 Q1.3 1.3 1.3 1.65 L1.3 12.35 Q1.3 12.7 1.65 12.7 L14.05 12.7 14.05 1.3 1.65 1.3 M50.05 12.7 L50.4 12.35 50.4 1.65 Q50.4 1.3 50.05 1.3 L15.35 1.3 15.35 12.7 50.05 12.7 M51.7 1.65 L51.7 12.35 Q51.7 13.05 51.2 13.5 50.75 14.0 50.05 14.0 L1.65 14.0 Q1.0 14.0 0.5 13.5 0.0 13.05 0.0 12.35 L0.0 1.65 Q0.0 1.0 0.5 0.5 1.0 0.0 1.65 0.0 L50.05 0.0 Q50.75 0.0 51.2 0.5 51.7 1.0 51.7 1.65" fill="#000000" fill-rule="evenodd" stroke="none"/>
  </g>
</svg>
