<?xml version="1.0" encoding="UTF-8" standalone="no"?>
<svg xmlns:ffdec="https://www.free-decompiler.com/flash" xmlns:xlink="http://www.w3.org/1999/xlink" ffdec:objectType="shape" height="65.0px" width="65.0px" xmlns="http://www.w3.org/2000/svg">
  <g transform="matrix(1.0, 0.0, 0.0, 1.0, 0.0, 0.0)">
    <path d="M62.55 20.1 L64.4 26.2 65.0 32.55 64.4 38.85 62.55 44.95 59.5 50.55 55.45 55.5 50.55 59.55 44.95 62.55 38.85 64.4 32.5 65.0 26.15 64.4 20.05 62.55 14.45 59.55 9.55 55.5 5.5 50.55 2.5 44.95 0.6 38.85 0.0 32.55 0.6 26.2 2.5 20.1 5.5 14.45 9.55 9.55 14.45 5.5 20.05 2.5 26.15 0.65 32.5 0.0 38.85 0.65 44.95 2.5 50.55 5.5 55.45 9.55 59.5 14.45 62.55 20.1" fill="#ffffff" fill-rule="evenodd" stroke="none"/>
  </g>
</svg>
