<?xml version="1.0" encoding="UTF-8" standalone="no"?>
<svg xmlns:ffdec="https://www.free-decompiler.com/flash" xmlns:xlink="http://www.w3.org/1999/xlink" ffdec:objectType="shape" height="46.95px" width="22.2px" xmlns="http://www.w3.org/2000/svg">
  <g transform="matrix(1.0, 0.0, 0.0, 1.0, 11.1, 0.0)">
    <path d="M10.55 14.75 L10.55 17.45 3.65 17.45 3.65 15.1 Q3.65 12.9 2.8 11.6 1.85 10.3 0.0 10.3 -1.85 10.3 -2.75 11.4 -3.7 12.55 -3.7 14.55 -3.7 16.05 -3.15 16.9 -2.6 17.8 -1.0 18.9 L5.35 23.3 Q8.1 25.2 9.6 27.2 11.1 29.2 11.1 32.55 11.1 36.55 8.8 38.95 6.5 41.35 2.5 41.95 L2.5 46.95 -2.15 46.95 -2.15 42.0 Q-6.35 41.45 -8.7 39.0 -11.1 36.55 -11.1 32.35 L-11.1 29.2 -4.3 29.2 -4.3 32.0 Q-4.3 34.4 -3.15 35.6 -2.0 36.8 0.0 36.8 1.85 36.8 3.1 35.75 4.3 34.75 4.3 32.55 4.3 31.05 3.8 30.1 3.25 29.2 1.65 28.05 L-4.65 23.65 Q-7.35 21.75 -8.85 19.85 -10.35 17.9 -10.35 14.55 -10.35 10.5 -8.3 8.05 -6.2 5.7 -2.15 5.1 L-2.15 0.0 2.5 0.0 2.5 5.2 Q6.35 5.8 8.4 8.25 10.55 10.7 10.55 14.75" fill="#ffffff" fill-rule="evenodd" stroke="none"/>
  </g>
</svg>
