<?xml version="1.0" encoding="UTF-8" standalone="no"?>
<svg xmlns:ffdec="https://www.free-decompiler.com/flash" xmlns:xlink="http://www.w3.org/1999/xlink" ffdec:objectType="shape" height="45.35px" width="36.25px" xmlns="http://www.w3.org/2000/svg">
  <g transform="matrix(1.0, 0.0, 0.0, 1.0, 48.85, 32.55)">
    <path d="M-45.1 -14.75 Q-45.1 -8.55 -40.35 -3.55 L-26.1 8.8 -22.75 8.8 Q-18.8 4.9 -17.4 1.15 -16.35 -1.75 -16.35 -6.1 -16.35 -12.65 -21.1 -17.55 -27.6 -24.25 -41.6 -25.6 -45.1 -22.05 -45.1 -14.75 M-46.75 -25.45 Q-42.7 -33.65 -32.0 -32.35 -30.1 -31.85 -30.1 -30.4 -30.1 -29.5 -31.25 -29.1 -33.1 -28.45 -38.5 -28.35 -23.45 -26.7 -17.0 -18.85 -12.6 -13.55 -12.6 -6.1 -12.9 -1.1 -14.5 3.55 -17.7 12.8 -24.25 12.8 -37.75 12.8 -48.85 -14.75 -48.85 -21.2 -46.75 -25.45" fill="#ff0000" fill-opacity="0.8" fill-rule="evenodd" stroke="none"/>
  </g>
</svg>
