<?xml version="1.0" encoding="UTF-8" standalone="no"?>
<svg xmlns:ffdec="https://www.free-decompiler.com/flash" xmlns:xlink="http://www.w3.org/1999/xlink" ffdec:objectType="shape" height="57.55px" width="49.65px" xmlns="http://www.w3.org/2000/svg">
  <g transform="matrix(1.0, 0.0, 0.0, 1.0, 46.35, 29.25)">
    <path d="M-44.85 -26.35 Q-44.85 -29.1 -43.0 -29.25 -41.6 -29.35 -38.35 -27.85 L-32.2 -24.95 Q-28.4 -23.35 -25.85 -23.35 -24.15 -23.35 -21.95 -24.35 -19.7 -25.35 -19.0 -25.35 -17.85 -25.35 -17.35 -24.45 L-17.1 -23.4 Q-17.1 -22.3 -18.45 -21.7 -19.1 -21.4 -21.35 -20.85 -6.5 -11.35 -1.3 -4.15 3.3 2.2 3.3 11.5 3.3 17.8 2.05 19.75 -0.3 23.4 -10.5 28.3 L-24.0 28.3 Q-36.85 22.05 -42.0 15.6 -46.35 10.2 -46.35 3.05 -46.35 -4.35 -43.95 -9.15 -40.45 -16.05 -31.0 -21.1 -33.75 -22.15 -41.05 -23.8 -44.85 -24.65 -44.85 -26.35 M-20.1 -15.35 Q-30.8 -22.35 -37.55 -12.6 -39.95 -9.15 -41.4 -4.15 -42.6 0.0 -42.6 2.85 -42.6 8.9 -38.45 13.8 -33.9 19.2 -23.6 24.3 L-10.0 24.3 Q-2.5 20.3 -1.0 17.6 -0.35 16.45 -0.35 11.35 -0.35 4.0 -4.25 -1.55 -8.6 -7.8 -20.1 -15.35" fill="#ff0000" fill-opacity="0.8" fill-rule="evenodd" stroke="none"/>
  </g>
</svg>
