<?xml version="1.0" encoding="UTF-8" standalone="no"?>
<svg xmlns:ffdec="https://www.free-decompiler.com/flash" xmlns:xlink="http://www.w3.org/1999/xlink" ffdec:objectType="shape" height="248.55px" width="248.6px" xmlns="http://www.w3.org/2000/svg">
  <g transform="matrix(1.0, 0.0, 0.0, 1.0, -98.05, 76.7)">
    <path d="M151.25 -61.0 Q208.0 -63.05 228.7 -67.5 234.4 -68.75 272.9 -72.7 L313.5 -76.25 313.85 -76.7 Q314.15 -76.8 314.15 -74.85 314.15 -72.35 266.5 -66.1 270.95 -63.05 270.75 -50.15 L270.1 -36.75 Q269.75 -28.95 270.4 -25.3 L270.4 22.85 Q270.95 49.65 270.45 73.85 269.95 98.1 268.35 110.1 289.2 108.35 298.35 106.7 L310.7 105.0 346.0 103.9 346.35 104.1 Q346.65 104.2 346.65 106.05 346.65 109.1 267.45 115.65 266.05 121.85 264.15 121.85 L261.25 121.55 260.7 121.2 Q260.4 121.05 260.4 117.95 260.4 117.35 260.95 116.15 L202.45 120.6 152.35 121.0 145.15 121.1 Q146.9 142.25 147.9 169.35 L147.1 170.95 Q146.3 171.85 144.3 171.85 L141.4 171.55 140.85 171.2 Q139.9 142.95 138.2 121.15 101.95 121.5 101.2 121.85 99.3 121.2 98.35 120.3 L98.05 118.4 Q98.8 117.3 100.0 116.15 101.3 114.9 102.45 114.35 L137.6 114.25 137.05 108.45 Q135.55 93.05 132.4 72.35 L130.5 58.9 127.9 59.6 Q123.7 60.8 113.9 63.95 L105.25 66.65 102.5 66.35 102.1 66.0 Q101.65 65.55 101.1 65.45 100.85 65.2 100.85 63.2 100.85 59.6 125.35 51.2 L129.35 49.85 128.45 41.15 127.9 33.3 127.1 32.25 127.2 30.45 127.7 29.9 Q126.8 13.8 126.8 -7.15 126.8 -33.15 127.35 -40.35 127.85 -46.55 128.8 -52.05 118.65 -51.55 111.2 -51.55 109.05 -51.55 107.7 -52.05 L105.85 -53.25 105.7 -53.0 Q105.55 -53.2 105.55 -55.15 105.55 -57.95 118.85 -59.3 L130.5 -60.1 Q132.25 -67.1 134.95 -72.8 136.4 -72.55 136.95 -72.15 137.9 -71.55 137.9 -69.5 L137.0 -60.4 151.25 -61.0 M132.9 -7.15 Q132.9 14.45 133.95 30.9 137.5 31.95 142.4 34.05 150.0 37.25 155.05 40.55 L155.25 40.4 157.35 40.95 Q158.25 41.35 158.35 42.9 L158.35 42.95 158.35 43.35 Q158.35 44.1 157.95 44.9 158.35 46.0 158.35 46.65 L157.75 53.75 Q157.1 59.55 157.1 62.6 156.75 62.6 155.85 63.15 L154.0 64.15 Q151.65 62.7 151.1 60.25 150.85 59.3 150.85 56.0 L150.9 50.7 149.4 51.5 Q143.9 54.4 136.7 56.9 L138.9 71.45 Q142.25 92.2 143.85 107.45 L144.55 114.25 208.7 114.05 263.95 110.45 264.15 109.95 264.15 -65.8 229.95 -61.6 Q170.3 -54.6 136.1 -52.45 L135.4 -46.5 Q132.9 -25.05 132.9 -7.15 M198.8 72.15 Q198.55 71.95 198.55 70.0 198.55 68.35 203.3 67.0 207.15 65.9 210.7 64.45 201.45 55.15 198.55 49.7 207.8 49.7 218.9 60.25 L222.7 57.3 Q225.45 55.65 228.1 57.65 L228.35 57.1 Q228.55 56.95 228.55 58.9 228.55 61.1 223.3 64.8 230.0 72.25 233.55 79.7 L232.75 81.3 Q231.95 82.2 229.95 82.2 L215.75 69.35 Q208.1 73.45 204.35 73.45 200.4 73.45 199.0 71.9 L198.8 72.15 M135.5 47.8 L143.7 45.05 146.55 44.1 Q143.15 42.55 138.7 40.05 136.3 38.75 134.45 37.65 L134.65 40.25 135.5 47.8" fill="#ff0000" fill-opacity="0.6" fill-rule="evenodd" stroke="none"/>
  </g>
</svg>
