<?xml version="1.0" encoding="UTF-8" standalone="no"?>
<svg xmlns:ffdec="https://www.free-decompiler.com/flash" xmlns:xlink="http://www.w3.org/1999/xlink" ffdec:objectType="shape" height="102.15px" width="154.65px" xmlns="http://www.w3.org/2000/svg">
  <g transform="matrix(1.0, 0.0, 0.0, 1.0, 16.7, 60.45)">
    <path d="M38.75 -60.45 L73.75 -60.45 Q111.3 -46.3 126.85 -22.65 137.95 -5.8 137.95 16.55 L137.85 24.25 Q137.5 27.85 135.7 30.3 131.65 35.75 113.75 41.7 L77.5 41.7 Q22.8 29.75 1.35 14.0 -16.7 0.75 -16.7 -20.45 -16.7 -34.35 -6.9 -43.85 6.9 -57.2 38.75 -60.15 L38.75 -60.45 M58.0 -47.1 Q53.5 -48.15 46.85 -53.9 12.85 -51.9 -1.1 -40.25 -10.45 -32.45 -10.45 -20.3 -10.45 -1.9 7.5 10.95 28.3 25.85 75.15 35.15 L115.45 35.15 Q127.75 31.3 130.7 25.35 131.8 23.25 131.85 20.4 L131.7 15.9 Q131.7 3.2 130.35 -1.4 129.0 -6.0 120.9 -20.9 118.85 -24.85 113.6 -29.35 109.65 -32.8 100.0 -39.65 90.65 -46.3 83.75 -48.9 77.15 -51.45 72.15 -50.6 70.3 -50.3 65.0 -48.0 61.2 -46.35 58.0 -47.1" fill="#ff0000" fill-opacity="0.6" fill-rule="evenodd" stroke="none"/>
  </g>
</svg>
