<?xml version="1.0" encoding="UTF-8" standalone="no"?>
<svg xmlns:ffdec="https://www.free-decompiler.com/flash" xmlns:xlink="http://www.w3.org/1999/xlink" ffdec:objectType="shape" height="1884.4px" width="288.1px" xmlns="http://www.w3.org/2000/svg">
  <g transform="matrix(1.0, 0.0, 0.0, 1.0, 140.8, 940.4)">
    <path d="M124.8 -931.5 L137.8 -895.0 144.7 -868.1 147.3 -816.4 131.7 -603.1 125.7 -538.8 105.5 -418.7 54.7 -192.2 40.8 -99.4 26.9 32.9 -27.6 711.2 -35.0 771.0 -47.1 822.6 -80.0 896.6 -105.7 944.0 -109.8 941.8 -121.2 929.8 -136.7 927.2 -140.8 924.9 -115.6 878.3 -85.1 809.7 -74.4 763.9 -67.4 706.7 -12.9 29.0 1.2 -104.8 15.3 -199.5 66.3 -426.9 86.1 -544.6 91.9 -606.6 107.2 -816.8 104.9 -862.3 99.3 -884.0 88.2 -914.9 85.0 -920.6 88.6 -922.6 108.5 -922.7 116.1 -938.3 119.8 -940.4 124.8 -931.5" fill="#424242" fill-rule="evenodd" stroke="none"/>
    <path d="M134.0 -893.8 L140.7 -867.7 143.3 -816.4 127.8 -603.4 121.7 -539.3 101.6 -419.4 50.7 -192.9 36.8 -99.9 22.9 32.6 -31.6 710.8 -38.9 770.2 -50.8 821.2 -83.6 894.8 -109.8 941.8 -136.7 927.2 -112.0 880.1 -81.4 811.1 -70.5 764.7 -63.4 707.1 -9.0 29.4 5.1 -104.3 19.2 -198.8 70.3 -426.1 90.1 -544.1 95.9 -606.2 111.2 -816.7 111.3 -816.8 108.9 -862.7 103.1 -885.2 91.9 -916.5 88.6 -922.6 116.1 -938.3 121.1 -930.0 134.0 -893.8" fill="#959595" fill-rule="evenodd" stroke="none"/>
  </g>
</svg>
