<?xml version="1.0" encoding="UTF-8" standalone="no"?>
<svg xmlns:ffdec="https://www.free-decompiler.com/flash" xmlns:xlink="http://www.w3.org/1999/xlink" ffdec:objectType="shape" height="1237.95px" width="510.0px" xmlns="http://www.w3.org/2000/svg">
  <g transform="matrix(1.0, 0.0, 0.0, 1.0, 255.0, 512.95)">
    <path d="M-182.4 -494.0 L-182.4 -512.95 174.6 -512.95 174.6 -494.0 255.0 -494.0 255.0 694.4 174.6 694.4 174.6 725.0 -182.4 725.0 -182.4 694.4 -255.0 694.4 -255.0 -494.0 -182.4 -494.0" fill="#434343" fill-rule="evenodd" stroke="none"/>
    <path d="M-90.45 -491.2 L-69.25 -491.2 -69.25 -506.15 69.15 -506.15 69.15 -491.2 87.45 -491.2 87.45 -103.45 27.2 -103.45 27.2 -94.0 91.55 -94.0 91.55 -84.95 96.75 -84.95 96.75 56.75 91.55 56.75 91.55 67.5 96.75 67.5 96.75 216.75 91.55 216.75 91.55 227.5 96.75 227.5 96.75 291.75 -97.0 291.75 -97.0 227.5 -92.85 227.5 -92.85 216.75 -97.0 216.75 -97.0 67.5 -92.85 67.5 -92.85 56.75 -97.0 56.75 -97.0 -84.95 -92.85 -84.95 -92.85 -94.0 -28.0 -94.0 -28.0 -103.45 -90.45 -103.45 -90.45 -491.2" fill="#969696" fill-rule="evenodd" stroke="none"/>
    <path d="M-90.45 -392.75 L-72.55 -392.75 -36.85 -379.55 -36.85 -312.9 -70.0 -299.6 -36.85 -287.6 -36.85 -221.0 -72.55 -206.95 -90.45 -206.95 -90.45 -392.75" fill="#707070" fill-rule="evenodd" stroke="none"/>
    <path d="M87.45 -392.75 L87.45 -206.95 68.85 -206.95 33.15 -221.0 33.15 -287.6 66.3 -299.6 33.15 -312.9 33.15 -379.55 68.85 -392.75 87.45 -392.75" fill="#707070" fill-rule="evenodd" stroke="none"/>
    <path d="M-97.0 -86.0 L-49.4 -86.0 -49.4 -9.6 -97.0 -9.6 -97.0 -86.0" fill="#707070" fill-rule="evenodd" stroke="none"/>
    <path d="M49.15 -86.0 L96.75 -86.0 96.75 -9.6 49.15 -9.6 49.15 -86.0" fill="#707070" fill-rule="evenodd" stroke="none"/>
    <path d="M-28.45 291.75 L28.1 291.75 28.1 301.55 -28.45 301.55 -28.45 291.75" fill="#ffffff" fill-rule="evenodd" stroke="none"/>
  </g>
</svg>
