<?xml version="1.0" encoding="UTF-8" standalone="no"?>
<svg xmlns:ffdec="https://www.free-decompiler.com/flash" xmlns:xlink="http://www.w3.org/1999/xlink" ffdec:objectType="shape" height="194.0px" width="359.2px" xmlns="http://www.w3.org/2000/svg">
  <g transform="matrix(1.0, 0.0, 0.0, 1.0, 223.7, 135.0)">
    <path d="M-64.5 -115.75 L-64.5 -135.0 135.5 -135.0 135.5 59.0 -57.5 59.0 -57.5 51.0 -144.75 51.0 -144.75 58.65 -223.7 58.65 -223.7 -115.75 -64.5 -115.75" fill="#424242" fill-rule="evenodd" stroke="none"/>
    <path d="M-98.85 6.5 L-102.5 6.5 -102.5 8.75 -95.2 8.75 -79.0 19.0 -50.7 8.75 -50.7 6.5 -54.5 6.5 -76.2 -4.3 -98.85 6.5 M9.0 -88.75 L9.0 -76.25 11.15 -76.25 11.15 -89.05 62.15 -89.05 62.15 -38.0 11.15 -38.0 11.15 -50.55 9.0 -50.55 9.0 -32.75 62.75 -32.75 62.75 49.0 55.75 49.0 55.75 54.5 -19.2 54.5 -19.2 6.5 -21.85 6.5 -21.85 48.0 -24.2 48.0 -24.2 54.7 -50.7 54.7 -50.7 44.0 -75.35 31.35 -95.2 44.0 -129.0 44.0 -129.0 40.15 -137.25 40.15 -137.25 -33.5 -129.0 -33.5 -129.0 -37.5 -98.5 -37.5 -98.5 -33.25 -88.2 -15.5 -54.0 -33.25 -21.85 -33.25 -21.85 -26.5 -19.2 -26.5 -19.2 -47.0 -21.7 -47.0 -21.7 -37.3 -66.4 -37.3 -66.4 -73.65 -41.65 -73.65 -41.65 -87.55 -21.7 -87.55 -21.7 -62.5 -19.2 -62.5 -19.2 -88.75 9.0 -88.75" fill="#959595" fill-rule="evenodd" stroke="none"/>
    <path d="M-53.7 6.5 L-98.85 6.5 -98.85 -33.25 -53.7 -33.25 -53.7 6.5" fill="#ffffff" fill-rule="evenodd" stroke="none"/>
    <path d="M-95.2 8.75 L-50.7 8.75 -50.7 44.0 -95.2 44.0 -95.2 8.75" fill="#ffffff" fill-rule="evenodd" stroke="none"/>
    <path d="M55.25 -15.75 L62.75 -15.75 62.75 30.0 55.25 30.0 55.25 17.25 36.25 17.25 36.25 -4.75 55.25 -4.75 55.25 -15.75" fill="#6f6f6f" fill-rule="evenodd" stroke="none"/>
    <path d="M14.0 34.0 L-3.5 34.0 -3.5 17.75 14.0 17.75 14.0 34.0" fill="#6f6f6f" fill-rule="evenodd" stroke="none"/>
    <path d="M9.5 -32.75 L62.75 -32.75 62.75 -27.0 9.5 -27.0 9.5 -32.75" fill="#6f6f6f" fill-rule="evenodd" stroke="none"/>
    <path d="M-27.7 51.85 L-47.95 51.85 -47.95 45.35 -27.7 45.35 -27.7 51.85" fill="#6f6f6f" fill-rule="evenodd" stroke="none"/>
    <path d="M10.5 40.2 L10.5 46.7 0.75 46.7 0.75 40.2 10.5 40.2" fill="#6f6f6f" fill-rule="evenodd" stroke="none"/>
    <path d="M-9.85 30.2 L-15.55 30.55 -16.15 21.5 -10.45 21.15 -9.85 30.2" fill="#6f6f6f" fill-rule="evenodd" stroke="none"/>
    <path d="M5.0 -81.5 L-15.25 -81.5 -15.25 -87.95 5.0 -87.95 5.0 -81.5" fill="#6f6f6f" fill-rule="evenodd" stroke="none"/>
    <path d="M58.05 41.0 L58.05 46.0 54.0 46.0 54.0 41.0 58.05 41.0" fill="#6f6f6f" fill-rule="evenodd" stroke="none"/>
    <path d="M30.5 15.55 L25.8 17.35 23.95 12.45 28.65 10.65 30.5 15.55" fill="#6f6f6f" fill-rule="evenodd" stroke="none"/>
    <path d="M18.4 -45.95 L62.15 -45.95 62.15 -38.0 18.4 -38.0 18.4 -45.95" fill="#6f6f6f" fill-rule="evenodd" stroke="none"/>
    <path d="M62.15 -80.5 L18.65 -80.5 18.65 -89.05 62.15 -89.05 62.15 -80.5" fill="#6f6f6f" fill-rule="evenodd" stroke="none"/>
    <path d="M17.3 -81.5 L12.5 -81.5 12.5 -89.05 17.3 -89.05 17.3 -81.5" fill="#6f6f6f" fill-rule="evenodd" stroke="none"/>
    <path d="M-21.7 -73.85 L-41.65 -73.65 -41.65 -87.55 -21.7 -87.55 -21.7 -73.85" fill="#6f6f6f" fill-rule="evenodd" stroke="none"/>
    <path d="M-45.75 -73.65 L-45.75 -57.6 -66.4 -57.6 -66.4 -73.65 -45.75 -73.65" fill="#6f6f6f" fill-rule="evenodd" stroke="none"/>
    <path d="M-32.5 -37.3 L-54.5 -37.3 -54.5 -45.25 -32.5 -45.25 -32.5 -37.3" fill="#6f6f6f" fill-rule="evenodd" stroke="none"/>
    <path d="M-58.45 -37.8 L-63.4 -37.8 -63.4 -39.75 -58.45 -39.75 -58.45 -37.8" fill="#6f6f6f" fill-rule="evenodd" stroke="none"/>
    <path d="M-59.05 -38.95 L-62.85 -38.95 -62.85 -43.25 -62.1 -43.9 -60.85 -44.1 -59.95 -43.9 -59.05 -43.25 -59.05 -38.95" fill="#6f6f6f" fill-rule="evenodd" stroke="none"/>
  </g>
</svg>
