<?xml version="1.0" encoding="UTF-8" standalone="no"?>
<svg xmlns:ffdec="https://www.free-decompiler.com/flash" xmlns:xlink="http://www.w3.org/1999/xlink" ffdec:objectType="shape" height="84.0px" width="84.0px" xmlns="http://www.w3.org/2000/svg">
  <g transform="matrix(1.0, 0.0, 0.0, 1.0, 42.0, 42.0)">
    <path d="M18.4 -18.4 Q10.75 -26.0 0.0 -26.0 -10.75 -26.0 -18.4 -18.4 -26.0 -10.75 -26.0 0.0 -26.0 10.75 -18.4 18.4 -10.75 26.0 0.0 26.0 10.75 26.0 18.4 18.4 26.0 10.75 26.0 0.0 26.0 -10.75 18.4 -18.4 M29.7 -29.7 Q42.0 -17.4 42.0 0.0 42.0 17.4 29.7 29.7 17.4 42.0 0.0 42.0 -17.4 42.0 -29.7 29.7 -42.0 17.4 -42.0 0.0 -42.0 -17.4 -29.7 -29.7 -17.4 -42.0 0.0 -42.0 17.4 -42.0 29.7 -29.7" fill="#ffffff" fill-rule="evenodd" stroke="none"/>
  </g>
</svg>
