<?xml version="1.0" encoding="UTF-8" standalone="no"?>
<svg xmlns:ffdec="https://www.free-decompiler.com/flash" xmlns:xlink="http://www.w3.org/1999/xlink" ffdec:objectType="shape" height="84.0px" width="84.0px" xmlns="http://www.w3.org/2000/svg">
  <g transform="matrix(1.0, 0.0, 0.0, 1.0, 42.0, 42.0)">
    <path d="M19.1 -19.1 Q11.15 -27.0 0.0 -27.0 -11.15 -27.0 -19.1 -19.1 -27.0 -11.15 -27.0 0.0 -27.0 11.15 -19.1 19.1 -11.15 27.0 0.0 27.0 11.15 27.0 19.1 19.1 27.0 11.15 27.0 0.0 27.0 -11.15 19.1 -19.1 M29.7 -29.7 Q42.0 -17.4 42.0 0.0 42.0 17.4 29.7 29.7 17.4 42.0 0.0 42.0 -17.4 42.0 -29.7 29.7 -42.0 17.4 -42.0 0.0 -42.0 -17.4 -29.7 -29.7 -17.4 -42.0 0.0 -42.0 17.4 -42.0 29.7 -29.7" fill="#ffffff" fill-rule="evenodd" stroke="none"/>
  </g>
</svg>
