<?xml version="1.0" encoding="UTF-8" standalone="no"?>
<svg xmlns:ffdec="https://www.free-decompiler.com/flash" xmlns:xlink="http://www.w3.org/1999/xlink" ffdec:objectType="shape" height="20.8px" width="77.95px" xmlns="http://www.w3.org/2000/svg">
  <g transform="matrix(1.0, 0.0, 0.0, 1.0, 0.0, 0.0)">
    <path d="M77.95 3.95 L77.95 16.95 77.7 18.5 76.8 19.7 75.55 20.55 74.8 20.75 73.95 20.8 23.75 20.8 23.75 0.0 74.05 0.0 Q75.7 0.0 76.85 1.2 77.95 2.25 77.95 3.95 M74.65 7.75 L74.15 7.1 Q73.8 6.8 73.45 6.7 L72.6 6.5 69.45 6.5 67.85 14.05 70.55 14.05 72.05 13.95 Q72.95 13.7 73.45 13.3 74.15 12.75 74.65 11.8 75.1 10.8 75.1 9.6 L75.0 8.6 74.85 8.15 74.65 7.75 M73.25 8.35 L73.55 9.6 73.45 10.45 73.25 11.2 72.45 12.3 71.75 12.7 70.5 12.85 69.7 12.85 70.75 7.75 71.65 7.75 72.6 7.8 73.25 8.35 M67.9 7.75 L68.15 6.5 62.5 6.5 60.95 14.05 66.9 14.05 67.15 12.75 62.75 12.75 63.2 10.7 67.15 10.7 67.4 9.5 63.45 9.5 63.85 7.75 67.9 7.75 M61.75 6.5 L55.75 6.5 55.45 7.75 57.7 7.75 56.35 14.05 57.95 14.05 59.3 7.75 61.5 7.75 61.75 6.5 M52.75 11.1 L50.45 11.1 52.3 8.1 52.75 11.1 M51.7 6.5 L47.35 14.05 49.0 14.05 49.9 12.35 52.95 12.35 53.2 14.05 54.65 14.05 53.4 6.5 51.7 6.5 M48.0 7.75 L48.25 6.5 42.6 6.5 41.05 14.05 47.0 14.05 47.25 12.75 42.85 12.75 43.3 10.7 47.25 10.7 47.5 9.5 43.55 9.5 43.9 7.75 48.0 7.75 M40.7 7.3 L39.9 6.65 38.6 6.5 35.2 6.5 33.6 14.05 35.15 14.05 35.8 10.9 36.45 10.9 37.25 11.05 37.9 12.05 38.4 13.25 38.7 14.05 40.4 14.05 39.8 12.6 39.2 11.5 38.65 10.8 Q39.85 10.65 40.45 10.05 41.0 9.45 41.0 8.5 L40.7 7.3 M32.05 8.95 L33.55 8.8 Q33.45 7.7 32.65 7.0 31.9 6.35 30.65 6.35 29.5 6.35 28.6 6.9 27.65 7.5 27.15 8.55 26.65 9.65 26.65 10.9 26.65 12.5 27.4 13.35 28.2 14.2 29.6 14.2 30.85 14.2 31.75 13.5 32.65 12.85 33.15 11.55 L31.55 11.3 30.85 12.45 Q30.3 12.85 29.7 12.85 29.05 12.85 28.6 12.4 28.15 11.9 28.15 10.95 28.15 10.1 28.5 9.35 28.8 8.45 29.4 8.1 29.95 7.7 30.65 7.7 31.2 7.7 31.55 8.0 31.95 8.25 32.05 8.95 M39.1 7.85 Q39.45 8.1 39.45 8.5 L39.2 9.15 38.55 9.65 36.85 9.75 36.05 9.75 36.45 7.75 38.2 7.75 39.1 7.85 M22.4 20.8 L4.0 20.8 3.2 20.75 2.4 20.55 1.15 19.7 0.3 18.45 Q0.0 17.75 0.0 16.95 L0.0 3.95 Q0.0 3.05 0.35 2.4 0.6 1.6 1.2 1.15 1.7 0.65 2.45 0.3 L4.05 0.0 22.4 0.0 22.4 20.8 M11.65 3.95 L7.3 3.9 5.5 12.45 7.8 12.45 8.45 9.35 9.95 9.35 Q11.1 9.35 11.1 10.45 L11.1 10.9 11.1 11.25 11.05 11.6 11.05 11.95 11.05 12.3 11.2 12.65 12.85 14.4 11.4 17.45 14.45 15.65 16.7 17.4 16.3 14.5 18.9 12.65 16.0 12.65 15.6 9.85 13.85 12.65 13.55 12.65 13.35 12.1 13.3 11.8 13.25 11.5 13.25 11.2 13.3 10.8 13.35 10.4 13.35 10.0 13.15 9.0 Q12.95 8.65 12.45 8.55 L12.45 8.5 Q13.55 8.35 13.95 7.75 14.4 7.1 14.4 6.15 14.4 4.75 13.6 4.35 L11.65 3.95 M11.8 5.85 Q12.15 6.0 12.15 6.55 12.15 7.25 11.75 7.5 L10.65 7.75 8.85 7.75 9.25 5.7 10.95 5.7 11.8 5.85" fill="#ffffff" fill-rule="evenodd" stroke="none"/>
  </g>
</svg>
