<?xml version="1.0" encoding="UTF-8" standalone="no"?>
<svg xmlns:ffdec="https://www.free-decompiler.com/flash" xmlns:xlink="http://www.w3.org/1999/xlink" ffdec:objectType="shape" height="41.55px" width="226.5px" xmlns="http://www.w3.org/2000/svg">
  <g transform="matrix(1.0, 0.0, 0.0, 1.0, -208.75, -161.15)">
    <path d="M209.15 165.65 Q209.15 164.8 209.8 164.15 210.45 163.5 211.3 163.5 L216.1 163.5 Q217.0 163.5 217.6 164.15 218.25 164.8 218.25 165.65 L218.25 191.2 Q218.25 193.15 218.8 193.7 219.3 194.15 220.85 194.15 L229.75 194.15 Q230.7 194.15 231.3 194.8 231.95 195.45 231.95 196.3 L231.95 199.4 Q231.95 201.3 230.0 201.6 L226.1 202.1 221.55 202.3 Q216.05 202.3 213.2 200.45 209.15 197.8 209.15 191.2 L209.15 165.65" fill="#a50808" fill-rule="evenodd" stroke="none"/>
    <path d="M209.55 165.65 L209.55 191.2 Q209.55 197.6 213.35 200.1 216.05 201.9 221.55 201.9 L226.05 201.7 229.95 201.25 Q230.7 201.05 231.05 200.75 231.55 200.3 231.55 199.4 L231.55 196.3 Q231.55 195.6 231.05 195.1 230.5 194.55 229.75 194.55 L220.85 194.55 Q219.15 194.55 218.55 193.95 217.85 193.25 217.85 191.2 L217.85 165.65 Q217.85 164.95 217.35 164.45 216.85 163.9 216.1 163.9 L211.3 163.9 Q210.6 163.9 210.05 164.45 209.55 164.95 209.55 165.65 M211.3 163.1 L216.1 163.1 Q217.2 163.1 217.95 163.9 218.65 164.65 218.65 165.65 L218.65 191.2 Q218.65 193.0 219.15 193.45 L220.85 193.8 229.75 193.8 Q230.85 193.8 231.6 194.55 232.35 195.3 232.35 196.3 L232.35 199.4 Q232.35 201.6 230.1 202.0 L226.1 202.5 221.55 202.7 Q215.85 202.7 212.95 200.75 208.75 198.05 208.75 191.2 L208.75 165.65 Q208.75 164.65 209.5 163.9 210.25 163.1 211.3 163.1" fill="#a50808" fill-rule="evenodd" stroke="none"/>
    <path d="M240.6 161.55 Q241.5 161.55 242.1 162.15 242.75 162.8 242.75 163.7 L242.75 167.95 Q242.75 168.9 242.1 169.5 241.5 170.15 240.6 170.15 L235.9 170.15 Q235.0 170.15 234.35 169.5 233.7 168.9 233.7 167.95 L233.7 163.7 Q233.7 162.85 234.35 162.15 235.0 161.55 235.9 161.55 L240.6 161.55" fill="#a50808" fill-rule="evenodd" stroke="none"/>
    <path d="M240.6 161.95 L235.9 161.95 Q235.15 161.95 234.65 162.5 234.1 163.0 234.1 163.7 L234.1 167.95 Q234.1 168.7 234.65 169.25 235.15 169.75 235.9 169.75 L240.6 169.75 Q241.3 169.75 241.85 169.25 242.35 168.7 242.35 167.95 L242.35 163.7 Q242.35 162.95 241.85 162.45 241.3 161.95 240.6 161.95 M243.15 163.7 L243.15 167.95 Q243.15 169.05 242.4 169.8 241.65 170.55 240.6 170.55 L235.9 170.55 Q234.85 170.55 234.05 169.8 233.3 169.0 233.3 167.95 L233.3 163.7 Q233.3 162.7 234.05 161.9 234.85 161.15 235.9 161.15 L240.6 161.15 Q241.65 161.15 242.4 161.9 243.15 162.65 243.15 163.7" fill="#a50808" fill-rule="evenodd" stroke="none"/>
    <path d="M240.45 172.2 Q241.3 172.2 241.95 172.8 242.6 173.45 242.6 174.35 L242.6 199.75 Q242.6 200.65 241.95 201.3 241.3 201.9 240.45 201.9 L236.0 201.9 Q235.15 201.9 234.45 201.3 233.8 200.65 233.8 199.75 L233.8 174.35 Q233.8 173.5 234.45 172.8 235.15 172.2 236.0 172.2 L240.45 172.2" fill="#a50808" fill-rule="evenodd" stroke="none"/>
    <path d="M234.15 172.55 Q234.95 171.8 236.0 171.8 L240.45 171.8 Q241.5 171.8 242.25 172.55 243.0 173.3 243.0 174.35 L243.0 199.75 Q243.0 200.75 242.25 201.55 241.5 202.3 240.45 202.3 L236.0 202.3 Q234.95 202.3 234.15 201.55 233.4 200.75 233.4 199.75 L233.4 174.35 Q233.4 173.3 234.15 172.55 M234.2 174.35 L234.2 199.75 Q234.2 200.45 234.75 201.0 235.3 201.5 236.0 201.5 L240.45 201.5 Q241.15 201.5 241.7 201.0 242.2 200.45 242.2 199.75 L242.2 174.35 Q242.2 173.6 241.7 173.1 241.2 172.55 240.45 172.55 L236.0 172.55 Q235.25 172.55 234.75 173.1 234.2 173.6 234.2 174.35" fill="#a50808" fill-rule="evenodd" stroke="none"/>
    <path d="M259.1 162.05 L262.1 162.45 262.3 162.5 Q264.05 162.95 264.05 164.4 L264.05 167.3 Q264.05 168.2 263.45 168.75 262.9 169.3 262.15 169.3 L260.0 169.3 258.5 169.5 Q258.3 169.7 258.3 171.0 L258.3 172.2 261.75 172.2 Q262.7 172.2 263.3 172.8 263.95 173.5 263.95 174.35 L263.95 177.25 Q263.95 178.15 263.3 178.75 262.7 179.35 261.75 179.35 L258.3 179.35 258.3 199.75 Q258.3 200.6 257.7 201.3 257.05 201.9 256.15 201.9 L251.75 201.9 Q250.85 201.9 250.15 201.3 249.55 200.65 249.55 199.75 L249.55 179.2 246.25 178.7 Q245.35 178.55 244.75 177.95 244.25 177.4 244.25 176.6 L244.25 174.35 Q244.25 173.45 244.9 172.8 245.55 172.2 246.4 172.2 L249.55 172.2 249.55 171.0 Q249.55 165.7 252.7 163.55 254.85 162.05 259.1 162.05" fill="#a50808" fill-rule="evenodd" stroke="none"/>
    <path d="M259.1 162.45 Q254.95 162.45 252.85 163.9 249.95 165.9 249.95 171.0 L249.95 172.55 246.4 172.55 Q245.7 172.55 245.15 173.1 244.65 173.6 244.65 174.35 L244.65 176.6 Q244.65 177.95 246.3 178.3 L249.95 178.85 249.95 199.75 Q249.95 200.45 250.5 201.0 251.0 201.5 251.75 201.5 L256.15 201.5 Q256.9 201.5 257.4 201.0 257.9 200.45 257.9 199.75 L257.9 178.95 261.75 178.95 Q262.5 178.95 263.05 178.5 263.55 177.95 263.55 177.25 L263.55 174.35 Q263.55 173.6 263.05 173.1 262.5 172.55 261.75 172.55 L257.9 172.55 257.9 171.0 Q257.9 169.55 258.25 169.25 258.6 168.9 260.0 168.9 L262.15 168.9 Q262.75 168.9 263.2 168.5 263.65 168.05 263.65 167.3 L263.65 164.4 Q263.65 163.25 262.15 162.85 L262.0 162.8 259.1 162.45 M264.45 164.4 L264.45 167.3 Q264.45 168.4 263.75 169.1 263.1 169.7 262.15 169.7 L260.0 169.7 258.85 169.8 Q258.7 169.85 258.7 171.0 L258.7 171.8 261.75 171.8 Q262.85 171.8 263.6 172.55 264.35 173.3 264.35 174.35 L264.35 177.25 Q264.35 178.35 263.6 179.05 262.9 179.75 261.75 179.75 L258.7 179.75 258.7 199.75 Q258.7 200.75 257.95 201.55 257.2 202.3 256.15 202.3 L251.75 202.3 Q250.7 202.3 249.95 201.55 249.15 200.75 249.15 199.75 L249.15 179.55 246.15 179.1 244.5 178.2 Q243.85 177.55 243.85 176.6 L243.85 174.35 Q243.85 173.3 244.6 172.55 245.35 171.8 246.4 171.8 L249.15 171.8 249.15 171.0 Q249.15 165.45 252.5 163.2 254.85 161.65 259.1 161.65 L262.15 162.05 262.35 162.1 Q263.35 162.35 263.9 162.95 264.45 163.55 264.45 164.4" fill="#a50808" fill-rule="evenodd" stroke="none"/>
    <path d="M276.85 171.85 Q282.65 171.85 286.15 175.5 289.6 179.2 289.6 185.35 L289.6 188.05 Q289.6 189.3 288.9 189.9 288.3 190.5 287.4 190.5 L272.9 190.5 Q273.35 194.4 277.45 194.4 L286.25 193.95 286.5 193.95 Q287.4 193.95 287.95 194.5 288.55 195.0 288.55 195.85 L288.55 199.0 Q288.55 201.1 286.55 201.5 L282.3 202.1 276.95 202.3 Q271.75 202.3 268.25 199.35 264.05 195.75 264.05 188.95 L264.05 185.35 Q264.05 179.1 267.5 175.45 270.95 171.85 276.85 171.85 M276.85 179.75 Q275.25 179.75 274.2 180.75 273.15 181.75 272.9 183.55 L280.7 183.55 Q280.5 181.75 279.5 180.75 278.5 179.75 276.85 179.75" fill="#a50808" fill-rule="evenodd" stroke="none"/>
    <path d="M267.2 175.2 Q270.75 171.45 276.85 171.45 282.85 171.45 286.4 175.25 290.0 179.0 290.0 185.35 L290.0 188.05 Q290.0 189.45 289.2 190.2 288.5 190.9 287.4 190.9 L273.3 190.9 Q273.9 194.0 277.45 194.0 L286.2 193.55 286.5 193.55 Q287.55 193.55 288.3 194.15 288.95 194.85 288.95 195.85 L288.95 199.0 Q288.95 201.45 286.6 201.85 L282.35 202.5 276.95 202.7 Q271.6 202.7 268.0 199.65 263.65 195.9 263.65 188.95 L263.65 185.35 Q263.65 178.95 267.2 175.2 M264.45 185.35 L264.45 188.95 Q264.45 195.5 268.5 199.0 271.95 201.9 276.95 201.9 L282.3 201.7 286.5 201.1 Q288.15 200.8 288.15 199.0 L288.15 195.85 Q288.15 195.15 287.7 194.75 287.25 194.35 286.5 194.35 L286.25 194.35 277.45 194.8 Q272.95 194.8 272.5 190.5 L272.45 190.1 287.4 190.1 Q288.15 190.1 288.65 189.65 289.2 189.1 289.2 188.05 L289.2 185.35 Q289.2 179.35 285.85 175.85 282.5 172.25 276.85 172.25 271.1 172.25 267.75 175.8 264.45 179.3 264.45 185.35 M273.4 183.15 L280.25 183.15 Q279.65 180.15 276.85 180.15 274.05 180.15 273.4 183.15 M272.55 183.5 Q272.75 181.55 273.9 180.45 275.05 179.35 276.85 179.35 278.6 179.35 279.75 180.45 280.85 181.55 281.1 183.5 L281.15 183.95 272.5 183.95 272.55 183.5" fill="#a50808" fill-rule="evenodd" stroke="none"/>
    <path d="M295.85 163.3 Q296.7 163.3 297.3 163.9 297.95 164.5 297.95 165.4 L297.95 168.95 Q297.95 169.85 297.3 170.45 296.7 171.05 295.85 171.05 L295.5 171.05 Q294.65 171.05 294.05 170.45 293.4 169.85 293.4 168.95 L293.4 165.4 Q293.4 164.5 294.05 163.9 294.7 163.3 295.5 163.3 L295.85 163.3" fill="#a50808" fill-rule="evenodd" stroke="none"/>
    <path d="M293.75 163.65 Q294.5 162.9 295.5 162.9 L295.85 162.9 Q296.85 162.9 297.6 163.65 298.35 164.4 298.35 165.4 L298.35 168.95 Q298.35 170.0 297.6 170.75 296.85 171.45 295.85 171.45 L295.5 171.45 Q294.5 171.45 293.75 170.75 293.0 170.0 293.0 168.95 L293.0 165.4 Q293.0 164.4 293.75 163.65 M293.8 165.4 L293.8 168.95 Q293.8 169.7 294.3 170.2 L295.5 170.65 295.85 170.65 Q296.5 170.65 297.0 170.2 297.55 169.7 297.55 168.95 L297.55 165.4 Q297.55 164.65 297.0 164.2 296.5 163.7 295.85 163.7 L295.5 163.7 Q294.85 163.7 294.3 164.2 293.8 164.65 293.8 165.4" fill="#a50808" fill-rule="evenodd" stroke="none"/>
    <path d="M295.85 173.5 Q296.7 173.5 297.3 174.1 297.95 174.75 297.95 175.65 L297.95 200.1 Q297.95 200.95 297.3 201.6 296.7 202.25 295.85 202.25 L295.5 202.25 Q294.7 202.25 294.05 201.6 293.4 200.95 293.4 200.1 L293.4 175.65 Q293.4 174.75 294.05 174.1 294.7 173.5 295.5 173.5 L295.85 173.5" fill="#a50808" fill-rule="evenodd" stroke="none"/>
    <path d="M295.5 173.9 Q294.85 173.9 294.3 174.4 293.8 174.9 293.8 175.65 L293.8 200.1 Q293.8 200.8 294.3 201.3 294.85 201.85 295.5 201.85 L295.85 201.85 Q296.5 201.85 297.0 201.3 297.55 200.8 297.55 200.1 L297.55 175.65 Q297.55 174.9 297.0 174.4 296.5 173.9 295.85 173.9 L295.5 173.9 M298.35 175.65 L298.35 200.1 Q298.35 201.1 297.6 201.85 296.85 202.65 295.85 202.65 L295.5 202.65 Q294.5 202.65 293.75 201.85 293.0 201.1 293.0 200.1 L293.0 175.65 Q293.0 174.6 293.75 173.85 294.5 173.1 295.5 173.1 L295.85 173.1 Q296.85 173.1 297.6 173.85 298.35 174.6 298.35 175.65" fill="#a50808" fill-rule="evenodd" stroke="none"/>
    <path d="M321.1 176.05 Q323.65 178.8 323.65 183.75 L323.65 199.8 Q323.65 200.7 323.05 201.3 322.45 201.9 321.55 201.9 L321.25 201.9 Q320.35 201.9 319.75 201.3 319.2 200.7 319.2 199.8 L319.2 183.75 Q319.2 177.55 313.8 177.55 310.9 177.55 307.35 179.1 L307.35 199.8 Q307.35 200.7 306.7 201.3 306.1 201.9 305.25 201.9 L304.95 201.9 Q304.05 201.9 303.45 201.3 302.8 200.7 302.8 199.8 L302.8 175.65 Q302.8 174.75 303.4 174.1 304.0 173.5 304.9 173.5 L305.3 173.5 Q306.65 173.5 307.15 174.7 310.75 173.25 313.95 173.25 318.5 173.25 321.1 176.05" fill="#a50808" fill-rule="evenodd" stroke="none"/>
    <path d="M320.8 176.3 Q318.35 173.65 313.95 173.65 310.9 173.65 307.25 175.05 L306.95 175.2 306.8 174.9 Q306.35 173.9 305.3 173.9 L304.9 173.9 Q304.15 173.9 303.7 174.4 303.2 174.9 303.2 175.65 L303.2 199.8 Q303.2 200.5 303.75 201.0 304.25 201.5 304.95 201.5 L305.25 201.5 Q305.9 201.5 306.45 201.0 306.95 200.5 306.95 199.8 L306.95 178.85 307.2 178.75 Q310.7 177.15 313.8 177.15 319.6 177.15 319.6 183.75 L319.6 199.8 Q319.6 200.5 320.05 201.05 320.55 201.5 321.25 201.5 L321.55 201.5 Q322.3 201.5 322.8 201.05 323.25 200.5 323.25 199.8 L323.25 183.75 Q323.25 179.0 320.8 176.3 M324.05 183.75 L324.05 199.8 Q324.05 200.85 323.35 201.6 322.6 202.3 321.55 202.3 L321.25 202.3 Q320.2 202.3 319.5 201.6 318.8 200.85 318.8 199.8 L318.8 183.75 Q318.8 180.75 317.55 179.35 316.35 177.95 313.8 177.95 311.1 177.95 307.75 179.35 L307.75 199.8 Q307.75 200.85 307.0 201.55 306.3 202.3 305.25 202.3 L304.95 202.3 Q303.95 202.3 303.2 201.55 302.4 200.85 302.4 199.8 L302.4 175.65 Q302.4 174.55 303.15 173.85 303.85 173.1 304.9 173.1 L305.3 173.1 Q306.6 173.1 307.3 174.2 310.9 172.85 313.95 172.85 318.7 172.85 321.4 175.75 324.05 178.6 324.05 183.75" fill="#a50808" fill-rule="evenodd" stroke="none"/>
    <path d="M345.6 173.5 Q346.55 173.5 347.15 174.2 347.75 175.05 347.4 176.25 L341.05 198.3 Q340.45 200.35 339.4 201.3 338.3 202.25 336.6 202.25 333.2 202.25 332.05 198.3 L325.7 176.25 Q325.35 175.1 326.0 174.25 326.55 173.5 327.6 173.5 L328.05 173.5 Q329.55 173.5 330.1 175.25 L336.3 197.1 336.55 197.8 343.0 175.25 Q343.55 173.5 345.05 173.5 L345.6 173.5" fill="#a50808" fill-rule="evenodd" stroke="none"/>
    <path d="M328.05 173.1 Q328.7 173.1 329.2 173.4 330.15 173.9 330.45 175.1 L336.55 196.55 342.65 175.1 Q342.95 173.9 343.85 173.4 L345.05 173.1 345.6 173.1 Q346.75 173.1 347.45 173.95 348.2 174.95 347.75 176.35 L341.4 198.4 Q340.25 202.65 336.6 202.65 332.9 202.65 331.7 198.4 L325.35 176.35 Q325.0 175.0 325.7 174.0 326.4 173.1 327.6 173.1 L328.05 173.1 M327.6 173.9 Q326.8 173.9 326.35 174.5 325.85 175.15 326.1 176.1 L332.45 198.2 Q333.5 201.85 336.6 201.85 338.2 201.85 339.15 200.95 340.15 200.1 340.65 198.2 L347.0 176.1 Q347.35 175.1 346.8 174.45 346.4 173.9 345.6 173.9 L345.05 173.9 Q343.8 173.9 343.4 175.35 L336.95 198.0 336.55 198.75 335.9 197.25 329.7 175.35 Q329.3 173.9 328.05 173.9 L327.6 173.9" fill="#a50808" fill-rule="evenodd" stroke="none"/>
    <path d="M364.15 195.95 L364.15 188.2 361.6 188.2 Q356.15 188.2 354.3 189.45 352.95 190.3 352.95 192.6 L352.95 193.2 Q352.95 195.7 353.95 196.8 354.95 197.95 357.05 197.95 360.3 197.95 364.15 195.95 M364.15 183.95 L364.15 183.35 Q364.15 179.95 363.15 178.75 362.15 177.55 359.25 177.55 L353.15 177.9 352.5 177.95 350.85 177.65 Q350.05 177.1 350.05 176.05 L350.05 175.75 Q350.05 173.9 352.2 173.7 L359.25 173.25 Q368.7 173.25 368.7 183.35 L368.7 199.75 Q368.7 200.65 368.05 201.3 367.4 201.9 366.5 201.9 L366.25 201.9 Q365.55 201.9 365.0 201.5 L364.2 200.45 Q360.4 202.25 357.05 202.25 353.0 202.25 350.75 199.85 348.45 197.45 348.45 193.2 L348.45 192.6 Q348.45 187.4 352.75 185.4 355.8 183.95 361.6 183.95 L364.15 183.95" fill="#a50808" fill-rule="evenodd" stroke="none"/>
    <path d="M352.25 174.1 Q350.45 174.3 350.45 175.75 L350.45 176.05 Q350.45 176.9 351.05 177.3 L352.45 177.6 353.15 177.5 355.8 177.25 359.25 177.15 Q362.3 177.15 363.45 178.5 364.55 179.8 364.55 183.35 L364.55 184.35 361.6 184.35 Q355.95 184.35 353.0 185.7 348.85 187.65 348.85 192.6 L348.85 193.2 Q348.85 197.25 351.0 199.55 353.2 201.85 357.05 201.85 360.25 201.85 364.05 200.1 L364.45 199.9 364.6 200.35 365.25 201.2 366.25 201.5 366.5 201.5 Q367.25 201.5 367.8 201.0 368.3 200.5 368.3 199.75 L368.3 183.35 Q368.3 178.4 366.05 176.05 363.85 173.65 359.25 173.65 L352.25 174.1 M359.25 172.85 Q369.1 172.85 369.1 183.35 L369.1 199.75 Q369.1 200.8 368.35 201.55 367.6 202.3 366.5 202.3 L366.25 202.3 Q364.7 202.3 364.0 200.95 360.3 202.65 357.05 202.65 352.85 202.65 350.45 200.15 348.05 197.65 348.05 193.2 L348.05 192.6 Q348.05 187.2 352.45 185.05 355.6 183.55 361.6 183.55 L363.75 183.55 363.75 183.35 Q363.75 180.1 362.9 179.0 362.0 177.95 359.25 177.95 L355.9 178.05 353.25 178.3 352.55 178.35 Q351.4 178.5 350.6 177.95 349.65 177.35 349.65 176.05 L349.65 175.75 Q349.65 173.65 352.15 173.35 L359.25 172.85 M361.6 188.6 Q356.1 188.6 354.4 189.85 353.35 190.55 353.35 192.6 L353.35 193.2 Q353.35 195.5 354.25 196.5 355.1 197.55 357.05 197.55 360.05 197.55 363.75 195.7 L363.75 188.6 361.6 188.6 M364.35 196.3 Q360.35 198.35 357.05 198.35 354.75 198.35 353.7 197.1 352.55 195.85 352.55 193.2 L352.55 192.6 Q352.55 190.0 354.25 189.0 356.2 187.8 361.6 187.8 L364.55 187.8 364.55 196.2 364.35 196.3" fill="#a50808" fill-rule="evenodd" stroke="none"/>
    <path d="M388.6 197.45 L388.6 177.95 383.05 177.55 Q380.15 177.55 378.75 179.0 376.85 180.95 376.85 186.05 L376.85 189.25 Q376.85 194.45 378.8 196.45 380.25 197.95 383.05 197.95 L388.6 197.45 M391.1 163.5 Q391.9 163.5 392.5 164.15 393.1 164.75 393.1 165.65 L393.1 199.15 Q393.1 200.85 391.5 201.25 386.85 202.25 383.05 202.25 377.9 202.25 375.1 198.85 372.35 195.5 372.35 189.25 L372.35 186.05 Q372.35 178.9 375.9 175.65 378.55 173.25 383.05 173.25 L388.6 173.7 388.6 165.65 Q388.6 164.75 389.2 164.15 389.75 163.5 390.6 163.5 L391.1 163.5" fill="#a50808" fill-rule="evenodd" stroke="none"/>
    <path d="M388.9 163.85 Q389.6 163.1 390.6 163.1 L391.1 163.1 Q392.1 163.1 392.8 163.85 393.5 164.6 393.5 165.65 L393.5 199.15 Q393.5 201.15 391.6 201.65 L383.05 202.65 Q377.7 202.65 374.85 199.15 371.95 195.7 371.95 189.25 L371.95 186.05 Q371.95 178.65 375.6 175.35 378.4 172.85 383.05 172.85 L388.2 173.3 388.2 165.65 Q388.2 164.6 388.9 163.85 M389.0 165.65 L389.0 174.2 388.55 174.1 383.05 173.65 Q378.7 173.65 376.1 176.0 372.75 179.1 372.75 186.05 L372.75 189.25 Q372.75 195.3 375.4 198.6 378.05 201.85 383.05 201.85 L391.4 200.9 Q392.7 200.5 392.7 199.15 L392.7 165.65 Q392.7 164.9 392.25 164.45 391.75 163.9 391.1 163.9 L390.6 163.9 Q389.95 163.9 389.45 164.45 389.0 164.9 389.0 165.65 M389.0 177.6 L389.0 197.8 388.65 197.85 383.05 198.35 Q380.15 198.35 378.6 196.85 376.45 194.7 376.45 189.25 L376.45 186.05 Q376.45 180.75 378.55 178.65 380.05 177.15 383.05 177.15 L388.65 177.6 389.0 177.6 M388.2 178.3 L383.05 177.95 Q380.35 177.95 379.1 179.2 377.25 181.05 377.25 186.05 L377.25 189.25 Q377.25 194.2 379.05 196.15 380.3 197.55 383.05 197.55 L388.2 197.15 388.2 178.3" fill="#a50808" fill-rule="evenodd" stroke="none"/>
    <path d="M407.8 177.55 Q401.7 177.55 401.3 185.1 L414.05 185.1 Q413.95 181.15 412.45 179.3 410.95 177.55 407.8 177.55 M415.8 176.6 Q418.65 179.9 418.65 186.0 L418.65 187.3 Q418.65 188.2 418.0 188.75 417.35 189.4 416.5 189.4 L401.3 189.4 Q401.35 194.55 403.65 196.45 405.35 197.95 408.9 197.95 L415.8 197.15 Q416.85 196.95 417.55 197.45 418.3 198.0 418.3 198.95 L418.3 199.3 Q418.3 201.0 416.4 201.35 L408.9 202.25 Q402.95 202.25 399.9 198.95 396.8 195.65 396.8 189.25 L396.8 186.05 Q396.8 180.25 399.8 176.75 402.75 173.25 407.8 173.25 412.95 173.25 415.8 176.6" fill="#a50808" fill-rule="evenodd" stroke="none"/>
    <path d="M419.05 186.0 L419.05 187.3 Q419.05 188.35 418.3 189.1 417.5 189.8 416.5 189.8 L401.7 189.8 Q401.85 194.6 404.1 196.35 405.65 197.55 408.9 197.55 L415.75 196.75 Q416.95 196.5 417.8 197.15 418.7 197.8 418.7 198.95 L418.7 199.3 Q418.7 201.3 416.5 201.75 L408.9 202.65 Q402.8 202.65 399.6 199.2 396.4 195.8 396.4 189.25 L396.4 186.05 Q396.4 180.05 399.5 176.45 402.6 172.85 407.8 172.85 413.1 172.85 416.1 176.3 419.05 179.75 419.05 186.0 M407.8 173.65 Q402.95 173.65 400.05 177.0 397.2 180.4 397.2 186.05 L397.2 189.25 Q397.2 195.4 400.15 198.6 403.15 201.85 408.9 201.85 L416.35 200.95 Q417.9 200.7 417.9 199.3 L417.9 198.95 Q417.9 198.2 417.35 197.8 416.75 197.4 415.9 197.55 L408.9 198.35 Q405.3 198.35 403.45 196.85 400.95 194.75 400.95 189.4 L400.9 189.0 416.5 189.0 Q417.2 189.0 417.7 188.55 418.25 188.0 418.25 187.3 L418.25 186.0 Q418.25 180.1 415.5 176.9 412.75 173.65 407.8 173.65 M400.95 185.1 Q401.3 177.15 407.8 177.15 411.1 177.15 412.7 179.05 414.3 181.0 414.45 185.1 L414.5 185.5 400.95 185.5 400.95 185.1 M407.8 177.95 Q402.25 177.95 401.75 184.7 L413.65 184.7 Q413.45 181.15 412.1 179.5 410.7 177.95 407.8 177.95" fill="#a50808" fill-rule="evenodd" stroke="none"/>
    <path d="M424.35 173.5 L424.75 173.5 Q426.05 173.5 426.6 174.7 429.4 173.25 432.35 173.25 434.85 173.25 434.85 175.2 L434.85 175.55 Q434.85 177.55 432.35 177.55 429.65 177.55 426.8 179.25 L426.8 199.8 Q426.8 200.7 426.2 201.3 425.6 201.9 424.7 201.9 L424.4 201.9 Q423.55 201.9 422.9 201.3 422.3 200.7 422.3 199.8 L422.3 175.65 Q422.3 174.75 422.9 174.1 423.5 173.5 424.35 173.5" fill="#a50808" fill-rule="evenodd" stroke="none"/>
    <path d="M426.4 175.25 L426.25 174.9 Q425.8 173.9 424.75 173.9 L424.35 173.9 Q423.65 173.9 423.15 174.4 422.7 174.9 422.7 175.65 L422.7 199.8 Q422.7 200.5 423.2 201.0 423.7 201.5 424.4 201.5 L424.7 201.5 Q425.4 201.5 425.9 201.0 426.4 200.5 426.4 199.8 L426.4 179.0 426.6 178.9 Q429.65 177.15 432.35 177.15 434.5 177.15 434.5 175.55 L434.5 175.2 Q434.5 173.65 432.35 173.65 429.5 173.65 426.8 175.05 L426.4 175.25 M424.75 173.1 Q426.05 173.1 426.75 174.2 429.55 172.85 432.35 172.85 434.1 172.85 434.85 173.8 435.25 174.4 435.25 175.2 L435.25 175.55 Q435.25 176.35 434.85 176.95 434.1 177.95 432.35 177.95 429.95 177.95 427.2 179.5 L427.2 199.8 Q427.2 200.85 426.45 201.55 425.75 202.3 424.7 202.3 L424.4 202.3 Q423.4 202.3 422.65 201.55 421.9 200.85 421.9 199.8 L421.9 175.65 Q421.9 174.55 422.6 173.85 423.3 173.1 424.35 173.1 L424.75 173.1" fill="#a50808" fill-rule="evenodd" stroke="none"/>
    <path d="M217.05 165.65 L217.05 191.2 Q217.05 193.6 217.9 194.5 218.75 195.35 220.85 195.35 L229.75 195.35 Q230.15 195.35 230.5 195.65 L230.75 196.3 230.75 199.4 230.55 200.15 229.75 200.45 226.05 200.9 221.55 201.1 Q216.2 201.1 213.55 199.25 210.35 196.9 210.35 191.2 L210.35 165.65 Q210.35 165.25 210.65 165.0 210.9 164.7 211.3 164.7 L216.1 164.7 Q216.5 164.7 216.8 165.0 L217.05 165.65" fill="#ffffff" fill-rule="evenodd" stroke="none"/>
    <path d="M241.3 163.0 L241.55 163.7 241.55 167.95 241.3 168.7 240.6 168.95 235.9 168.95 235.2 168.7 Q234.9 168.35 234.9 167.95 L234.9 163.7 Q234.9 163.3 235.2 163.0 235.5 162.75 235.9 162.75 L240.6 162.75 241.3 163.0" fill="#ffffff" fill-rule="evenodd" stroke="none"/>
    <path d="M241.4 174.35 L241.4 199.75 241.1 200.4 240.45 200.7 236.0 200.7 Q235.6 200.7 235.3 200.4 235.0 200.15 235.0 199.75 L235.0 174.35 Q235.0 173.95 235.3 173.65 235.6 173.35 236.0 173.35 L240.45 173.35 Q240.85 173.35 241.1 173.65 L241.4 174.35" fill="#ffffff" fill-rule="evenodd" stroke="none"/>
    <path d="M262.9 164.4 L262.9 167.3 Q262.9 168.1 262.15 168.1 L260.0 168.1 Q258.25 168.1 257.7 168.7 257.1 169.25 257.1 171.0 L257.1 173.35 261.75 173.35 Q262.2 173.35 262.5 173.65 L262.75 174.35 262.75 177.25 262.5 177.95 261.75 178.15 257.1 178.15 257.1 199.75 256.85 200.4 256.15 200.7 251.75 200.7 Q251.35 200.7 251.05 200.4 250.75 200.15 250.75 199.75 L250.75 178.15 246.4 177.5 Q245.45 177.35 245.45 176.6 L245.45 174.35 Q245.45 173.95 245.75 173.65 246.0 173.35 246.4 173.35 L250.75 173.35 250.75 171.0 Q250.75 166.6 253.05 164.8 255.0 163.25 259.1 163.25 L262.05 163.65 Q262.9 163.85 262.9 164.4" fill="#ffffff" fill-rule="evenodd" stroke="none"/>
    <path d="M268.25 176.4 Q271.35 173.05 276.85 173.05 282.35 173.05 285.45 176.5 288.4 179.8 288.4 185.35 L288.4 188.05 Q288.4 189.3 287.4 189.3 L271.6 189.3 271.6 189.45 Q271.6 192.0 272.8 193.6 274.25 195.6 277.45 195.6 L286.4 195.1 286.5 195.1 Q287.4 195.1 287.4 195.85 L287.4 199.0 287.2 199.9 Q287.0 200.2 286.4 200.3 L282.15 200.9 276.95 201.1 Q272.45 201.1 269.25 198.6 265.2 195.4 265.2 188.95 L265.2 185.35 Q265.2 179.65 268.25 176.4 M280.55 180.1 Q279.15 178.55 276.85 178.55 274.55 178.55 273.15 180.1 271.7 181.7 271.7 184.5 L271.7 184.7 281.95 184.7 281.95 184.5 Q281.95 181.75 280.55 180.1" fill="#ffffff" fill-rule="evenodd" stroke="none"/>
    <path d="M296.75 165.4 L296.75 168.95 296.45 169.65 295.85 169.85 295.5 169.85 294.9 169.65 Q294.6 169.35 294.6 168.95 L294.6 165.4 Q294.6 165.05 294.9 164.75 295.15 164.45 295.5 164.45 L295.85 164.45 Q296.2 164.45 296.45 164.75 L296.75 165.4 M296.75 175.65 L296.75 200.1 296.45 200.75 Q296.2 201.05 295.85 201.05 L295.5 201.05 Q295.15 201.05 294.9 200.75 294.6 200.5 294.6 200.1 L294.6 175.65 Q294.6 175.25 294.9 174.95 295.15 174.7 295.5 174.7 L295.85 174.7 Q296.2 174.7 296.45 174.95 L296.75 175.65" fill="#ffffff" fill-rule="evenodd" stroke="none"/>
    <path d="M322.45 183.75 L322.45 199.8 322.25 200.45 321.55 200.7 321.25 200.7 320.6 200.45 320.35 199.8 320.35 183.75 Q320.35 179.8 318.45 177.95 316.8 176.35 313.8 176.35 310.3 176.35 306.15 178.35 L306.15 199.8 305.9 200.45 305.25 200.7 304.95 200.7 Q304.55 200.7 304.3 200.45 L304.0 199.8 304.0 175.65 Q304.0 175.25 304.25 174.95 304.5 174.7 304.9 174.7 L305.3 174.7 Q305.7 174.7 305.9 174.95 L306.15 175.65 306.15 176.4 Q310.3 174.45 313.95 174.45 317.75 174.45 319.95 176.55 322.45 178.95 322.45 183.75" fill="#ffffff" fill-rule="evenodd" stroke="none"/>
    <path d="M346.25 175.9 L339.9 198.0 Q339.4 199.75 338.5 200.5 337.75 201.05 336.6 201.05 334.1 201.05 333.2 198.0 L326.85 175.9 Q326.7 175.4 326.9 175.05 327.1 174.7 327.6 174.7 L328.05 174.7 Q328.7 174.7 328.95 175.55 L335.15 197.45 Q335.65 199.15 336.6 199.15 337.45 199.15 337.95 197.45 L344.15 175.55 Q344.45 174.7 345.05 174.7 L345.6 174.7 Q346.1 174.7 346.25 175.05 L346.25 175.9" fill="#ffffff" fill-rule="evenodd" stroke="none"/>
    <path d="M352.35 174.9 L359.25 174.45 Q363.85 174.45 365.85 176.95 367.5 179.05 367.5 183.35 L367.5 199.75 367.2 200.45 366.5 200.7 366.25 200.7 365.6 200.45 Q365.3 200.15 365.3 199.75 L365.3 198.55 Q360.75 201.05 357.05 201.05 353.9 201.05 351.95 199.4 349.65 197.4 349.65 193.2 L349.65 192.6 Q349.65 188.75 352.35 187.0 355.15 185.1 361.6 185.1 L365.35 185.1 365.35 183.35 Q365.35 179.5 364.1 177.95 362.75 176.35 359.25 176.35 L352.35 176.8 Q351.25 176.85 351.25 176.05 L351.25 175.75 Q351.25 175.3 351.55 175.1 L352.35 174.9 M365.35 187.05 L361.6 187.05 Q356.1 187.05 353.95 188.25 351.8 189.5 351.8 192.6 L351.8 193.2 Q351.8 199.15 357.05 199.15 L361.0 198.6 Q362.9 198.0 365.35 196.65 L365.35 187.05" fill="#ffffff" fill-rule="evenodd" stroke="none"/>
    <path d="M391.9 165.65 L391.9 199.15 391.8 199.8 391.2 200.1 383.05 201.05 Q378.2 201.05 375.8 197.8 373.55 194.75 373.55 189.25 L373.55 186.05 Q373.55 174.45 383.05 174.45 L389.75 175.2 389.75 165.65 Q389.75 165.25 390.0 165.0 390.25 164.7 390.6 164.7 L391.1 164.7 Q391.45 164.7 391.7 165.0 L391.9 165.65 M389.75 177.0 L383.05 176.35 Q379.15 176.35 377.35 178.8 375.7 181.1 375.7 186.05 L375.7 189.25 Q375.7 194.15 377.35 196.5 379.15 199.15 383.05 199.15 L389.75 198.5 389.75 177.0" fill="#ffffff" fill-rule="evenodd" stroke="none"/>
    <path d="M400.15 186.25 L415.3 186.25 415.3 186.0 Q415.3 181.25 413.6 178.9 411.75 176.35 407.8 176.35 403.9 176.35 401.95 179.05 400.15 181.5 400.15 186.05 L400.15 186.25 M415.15 177.65 Q417.45 180.65 417.45 186.0 L417.45 187.3 417.15 187.95 416.5 188.2 400.15 188.2 400.15 189.25 Q400.15 194.9 402.65 197.25 404.75 199.15 408.9 199.15 L416.05 198.3 Q417.1 198.15 417.1 198.95 L417.1 199.3 Q417.1 200.0 416.15 200.2 L408.9 201.05 Q398.0 201.05 398.0 189.25 L398.0 186.05 Q398.0 180.85 400.5 177.75 403.1 174.45 407.8 174.45 412.65 174.45 415.15 177.65" fill="#ffffff" fill-rule="evenodd" stroke="none"/>
    <path d="M423.7 174.95 L424.35 174.7 424.75 174.7 Q425.15 174.7 425.4 174.95 L425.6 175.65 425.6 176.65 Q427.5 175.45 429.05 174.95 L432.35 174.45 Q433.7 174.45 433.7 175.2 L433.7 175.55 Q433.7 176.35 432.35 176.35 429.2 176.35 425.6 178.55 L425.6 199.8 425.35 200.45 424.7 200.7 424.4 200.7 423.75 200.45 423.5 199.8 423.5 175.65 423.7 174.95" fill="#ffffff" fill-rule="evenodd" stroke="none"/>
  </g>
</svg>
