<?xml version="1.0" encoding="UTF-8" standalone="no"?>
<svg xmlns:ffdec="https://www.free-decompiler.com/flash" xmlns:xlink="http://www.w3.org/1999/xlink" ffdec:objectType="shape" height="16.0px" width="15.55px" xmlns="http://www.w3.org/2000/svg">
  <g transform="matrix(1.0, 0.0, 0.0, 1.0, 7.75, 8.0)">
    <path d="M4.05 1.65 L4.05 0.05 -3.65 0.05 -3.65 1.65 4.05 1.65 M4.05 4.9 L4.05 3.25 -3.65 3.25 -3.65 4.9 4.05 4.9 M0.25 -8.0 L0.85 -7.75 7.3 -3.2 Q7.8 -2.85 7.8 -2.3 L7.8 -1.1 Q7.8 -0.65 7.45 -0.35 7.15 0.0 6.7 0.0 L6.1 0.0 6.1 6.9 5.75 7.7 5.0 8.0 4.05 8.0 4.05 6.55 -3.65 6.55 -3.65 8.0 -4.5 8.0 -5.3 7.7 -5.65 6.9 -5.65 0.0 -6.65 0.0 Q-7.1 0.0 -7.45 -0.35 -7.75 -0.65 -7.75 -1.1 L-7.75 -2.15 Q-7.75 -2.75 -7.3 -3.05 L-0.4 -7.8 0.25 -8.0" fill="#ffffff" fill-rule="evenodd" stroke="none"/>
  </g>
</svg>
