<?xml version="1.0" encoding="UTF-8" standalone="no"?>
<svg xmlns:ffdec="https://www.free-decompiler.com/flash" xmlns:xlink="http://www.w3.org/1999/xlink" ffdec:objectType="shape" height="13.0px" width="13.0px" xmlns="http://www.w3.org/2000/svg">
  <g transform="matrix(1.0, 0.0, 0.0, 1.0, 6.5, 6.5)">
    <path d="M-0.8 -4.3 L-2.05 -4.3 -2.05 2.15 Q-2.05 2.6 -2.2 2.8 L-2.75 3.0 Q-3.5 3.0 -3.5 2.15 L-3.5 1.3 -4.7 1.3 -4.7 2.2 Q-4.7 3.05 -4.2 3.5 -3.65 3.95 -2.75 3.95 L-1.3 3.5 Q-0.8 3.05 -0.8 2.2 L-0.8 -4.3 M0.0 -6.5 Q2.7 -6.5 4.6 -4.6 6.5 -2.7 6.5 0.0 6.5 2.7 4.6 4.6 2.7 6.5 0.0 6.5 -2.7 6.5 -4.6 4.6 -6.5 2.7 -6.5 0.0 -6.5 -2.7 -4.6 -4.6 -2.7 -6.5 0.0 -6.5 M1.6 -3.3 L2.35 -3.3 2.9 -3.1 3.1 -2.45 3.1 -1.1 2.9 -0.5 2.35 -0.3 1.6 -0.3 1.6 -3.3 M3.85 -3.8 L3.25 -4.15 2.35 -4.3 0.35 -4.3 0.35 3.85 1.6 3.85 1.6 0.7 2.35 0.7 Q3.4 0.7 3.85 0.2 4.35 -0.25 4.35 -1.1 L4.35 -2.5 4.2 -3.25 3.85 -3.8" fill="#ffffff" fill-rule="evenodd" stroke="none"/>
  </g>
</svg>
