<?xml version="1.0" encoding="UTF-8" standalone="no"?>
<svg xmlns:ffdec="https://www.free-decompiler.com/flash" xmlns:xlink="http://www.w3.org/1999/xlink" ffdec:objectType="shape" height="22.45px" width="21.3px" xmlns="http://www.w3.org/2000/svg">
  <g transform="matrix(1.0, 0.0, 0.0, 1.0, 10.65, 11.2)">
    <path d="M5.85 -4.2 Q5.3 -6.25 3.7 -7.55 2.05 -8.9 0.0 -8.9 -2.05 -8.9 -3.7 -7.55 -5.35 -6.25 -5.9 -4.2 L-5.9 4.8 Q-4.45 7.5 -1.55 8.2 -0.95 7.4 0.0 7.4 0.8 7.4 1.35 7.95 1.9 8.5 1.9 9.3 1.9 10.1 1.35 10.65 0.8 11.25 0.0 11.25 -0.75 11.25 -1.3 10.75 -1.8 10.2 -1.9 9.45 -5.75 8.5 -7.25 4.95 -8.75 4.5 -9.7 3.25 -10.65 2.0 -10.65 0.4 -10.65 -2.3 -8.35 -3.7 -7.95 -6.9 -5.55 -9.05 -3.15 -11.2 0.0 -11.2 3.15 -11.2 5.5 -9.05 7.9 -6.9 8.3 -3.7 10.65 -2.25 10.65 0.4 10.65 2.4 9.25 3.75 7.85 5.15 5.85 5.15 L5.85 -4.2" fill="#ffffff" fill-rule="evenodd" stroke="none"/>
  </g>
</svg>
