<?xml version="1.0" encoding="UTF-8" standalone="no"?>
<svg xmlns:ffdec="https://www.free-decompiler.com/flash" xmlns:xlink="http://www.w3.org/1999/xlink" ffdec:objectType="shape" height="25.0px" width="25.0px" xmlns="http://www.w3.org/2000/svg">
  <g transform="matrix(1.0, 0.0, 0.0, 1.0, 12.5, 12.5)">
    <path d="M12.5 -12.5 L12.5 12.5 -12.5 12.5 -12.5 -12.5 12.5 -12.5" fill="#00cc66" fill-opacity="0.0" fill-rule="evenodd" stroke="none"/>
    <path d="M0.0 -10.5 Q4.35 -10.5 7.4 -7.45 10.5 -4.35 10.5 0.0 10.5 4.35 7.4 7.4 4.35 10.5 0.0 10.5 -4.35 10.5 -7.45 7.4 -10.5 4.35 -10.5 0.0 -10.5 -4.35 -7.45 -7.45 -4.35 -10.5 0.0 -10.5" fill="#ffffff" fill-rule="evenodd" stroke="none"/>
    <path d="M0.0 -2.3 L4.95 -7.25 7.25 -4.95 2.3 0.0 7.25 4.95 4.95 7.25 0.0 2.3 -4.95 7.25 -7.25 4.95 -2.3 0.0 -7.25 -4.95 -4.95 -7.25 0.0 -2.3" fill="#000000" fill-rule="evenodd" stroke="none"/>
  </g>
</svg>
