<?xml version="1.0" encoding="UTF-8" standalone="no"?>
<svg xmlns:ffdec="https://www.free-decompiler.com/flash" xmlns:xlink="http://www.w3.org/1999/xlink" ffdec:objectType="shape" height="16.0px" width="16.0px" xmlns="http://www.w3.org/2000/svg">
  <g transform="matrix(1.0, 0.0, 0.0, 1.0, 8.0, 8.0)">
    <path d="M3.15 -3.2 Q2.2 -4.2 0.8 -4.45 L0.8 -1.75 -0.8 -1.75 -0.8 -4.45 Q-2.15 -4.2 -3.15 -3.2 -4.2 -2.2 -4.45 -0.8 L-1.75 -0.8 -1.75 0.8 -4.45 0.8 Q-4.2 2.2 -3.15 3.2 -2.15 4.2 -0.8 4.45 L-0.8 1.75 0.8 1.75 0.8 4.45 Q2.2 4.2 3.15 3.2 4.2 2.2 4.45 0.8 L1.75 0.8 1.75 -0.8 4.45 -0.8 Q4.2 -2.2 3.15 -3.2 M0.65 -8.0 L0.85 -7.85 0.85 -6.1 Q2.85 -5.85 4.4 -4.35 5.85 -2.9 6.1 -0.85 L7.8 -0.85 8.0 -0.65 8.0 0.65 7.8 0.85 6.1 0.85 Q5.85 2.9 4.4 4.35 2.85 5.85 0.85 6.1 L0.85 7.85 0.65 8.0 -0.65 8.0 -0.85 7.85 -0.85 6.1 Q-2.85 5.85 -4.35 4.35 -5.8 2.9 -6.1 0.85 L-7.8 0.85 -8.0 0.65 -8.0 -0.65 -7.8 -0.85 -6.1 -0.85 Q-5.8 -2.9 -4.35 -4.35 -2.85 -5.85 -0.85 -6.1 L-0.85 -7.85 -0.65 -8.0 0.65 -8.0" fill="#ffffff" fill-rule="evenodd" stroke="none"/>
  </g>
</svg>
