<?xml version="1.0" encoding="UTF-8" standalone="no"?>
<svg xmlns:ffdec="https://www.free-decompiler.com/flash" xmlns:xlink="http://www.w3.org/1999/xlink" ffdec:objectType="shape" height="16.0px" width="10.95px" xmlns="http://www.w3.org/2000/svg">
  <g transform="matrix(1.0, 0.0, 0.0, 1.0, 5.45, 8.0)">
    <path d="M1.65 -3.35 L0.05 -3.6 -1.6 -3.35 -1.6 -5.0 1.65 -5.0 1.65 -3.35 M0.0 -7.45 Q0.4 -7.05 0.4 -6.55 L0.4 -5.8 -0.45 -5.8 -0.45 -6.55 -0.6 -6.9 -1.55 -7.15 -1.6 -7.15 Q-2.3 -7.15 -2.6 -6.75 L-2.8 -6.25 -2.8 -5.7 Q-2.7 -4.95 -3.15 -4.45 -3.55 -3.95 -4.4 -3.9 L-4.45 -3.9 -5.45 -4.05 -5.2 -4.85 -4.45 -4.75 -4.4 -4.75 -3.75 -4.95 Q-3.6 -5.1 -3.6 -5.4 L-3.6 -6.25 Q-3.6 -6.85 -3.2 -7.35 -2.65 -7.95 -1.6 -8.0 L-1.55 -8.0 Q-0.55 -8.0 0.0 -7.45 M0.05 -2.95 Q2.3 -2.95 3.9 -1.35 5.5 0.25 5.5 2.55 5.5 4.8 3.9 6.4 2.3 8.0 0.05 8.0 -2.25 8.0 -3.85 6.4 -5.45 4.8 -5.45 2.55 -5.45 0.25 -3.85 -1.35 -2.25 -2.95 0.05 -2.95" fill="#ffffff" fill-rule="evenodd" stroke="none"/>
  </g>
</svg>
