<?xml version="1.0" encoding="UTF-8" standalone="no"?>
<svg xmlns:ffdec="https://www.free-decompiler.com/flash" xmlns:xlink="http://www.w3.org/1999/xlink" ffdec:objectType="shape" height="1360.5px" width="1390.5px" xmlns="http://www.w3.org/2000/svg">
  <g transform="matrix(1.0, 0.0, 0.0, 1.0, 603.45, 941.95)">
    <path d="M-134.95 -620.95 L-134.95 -633.45 16.05 -633.45 16.05 -626.95 102.05 -626.95 102.05 -498.45 172.05 -498.45 172.05 -503.45 187.55 -503.45 187.55 -498.45 237.05 -498.45 237.05 -303.95 236.05 -303.95 236.05 -302.95 102.05 -302.95 102.05 294.05 51.05 294.05 51.05 300.55 21.05 300.55 21.05 369.05 -7.45 369.05 -7.45 416.05 -102.45 416.05 -102.45 369.05 -131.45 369.05 -131.45 300.55 -162.95 300.55 -162.95 294.05 -223.95 294.05 -223.95 -171.95 -269.95 -171.95 -269.95 -164.95 -297.95 -164.95 -297.95 -171.95 -326.45 -171.95 -326.45 -620.95 -320.95 -620.95 -320.95 -633.45 -207.45 -633.45 -207.45 -620.95 -134.95 -620.95" fill="#959595" fill-rule="evenodd" stroke="none"/>
    <path d="M-52.45 44.55 L-52.45 32.05 -37.45 32.05 -37.45 44.55 -52.45 44.55" fill="#6f6f6f" fill-rule="evenodd" stroke="none"/>
    <path d="M37.05 -210.95 L37.05 -229.95 51.55 -229.95 51.55 -210.95 37.05 -210.95" fill="#6f6f6f" fill-rule="evenodd" stroke="none"/>
    <path d="M-86.45 34.05 L-86.45 27.05 -73.95 27.05 -73.95 34.05 -86.45 34.05" fill="#6f6f6f" fill-rule="evenodd" stroke="none"/>
    <path d="M-49.95 -48.45 L-49.95 -35.95 -63.95 -35.95 -63.95 -48.45 -49.95 -48.45" fill="#6f6f6f" fill-rule="evenodd" stroke="none"/>
    <path d="M-47.45 -96.45 L-47.45 -81.45 -60.45 -81.45 -60.45 -96.45 -47.45 -96.45" fill="#6f6f6f" fill-rule="evenodd" stroke="none"/>
    <path d="M-93.95 6.05 L-93.95 -0.45 -66.45 -0.45 -66.45 6.05 -93.95 6.05" fill="#6f6f6f" fill-rule="evenodd" stroke="none"/>
    <path d="M-47.45 4.55 L-47.45 -1.95 -19.95 -1.95 -19.95 4.55 -47.45 4.55" fill="#6f6f6f" fill-rule="evenodd" stroke="none"/>
    <path d="M-89.95 -30.45 L-70.45 -30.45 -70.45 -23.95 -89.95 -23.95 -89.95 -30.45" fill="#6f6f6f" fill-rule="evenodd" stroke="none"/>
    <path d="M-17.45 7.55 L-17.45 3.55 11.05 3.55 11.05 7.55 -17.45 7.55" fill="#6f6f6f" fill-rule="evenodd" stroke="none"/>
    <path d="M-16.45 -42.95 L-16.45 -46.95 12.55 -46.95 12.55 -42.95 -16.45 -42.95" fill="#6f6f6f" fill-rule="evenodd" stroke="none"/>
    <path d="M11.05 -132.95 L11.05 -128.95 -17.45 -128.95 -17.45 -132.95 11.05 -132.95" fill="#6f6f6f" fill-rule="evenodd" stroke="none"/>
    <path d="M-94.95 -154.95 L-94.95 -150.95 -121.45 -150.95 -121.45 -154.95 -94.95 -154.95" fill="#6f6f6f" fill-rule="evenodd" stroke="none"/>
    <path d="M-121.45 75.55 L-121.45 71.55 -94.95 71.55 -94.95 75.55 -121.45 75.55" fill="#6f6f6f" fill-rule="evenodd" stroke="none"/>
    <path d="M-122.45 127.05 L-122.45 123.05 -96.45 123.05 -96.45 127.05 -122.45 127.05" fill="#6f6f6f" fill-rule="evenodd" stroke="none"/>
    <path d="M-122.95 213.05 L-122.95 209.05 -96.45 209.05 -96.45 213.05 -122.95 213.05" fill="#6f6f6f" fill-rule="evenodd" stroke="none"/>
    <path d="M-17.45 235.55 L-17.45 231.55 9.55 231.55 9.55 235.55 -17.45 235.55" fill="#6f6f6f" fill-rule="evenodd" stroke="none"/>
    <path d="M-14.95 138.05 L-14.95 134.05 11.05 134.05 11.05 138.05 -14.95 138.05" fill="#6f6f6f" fill-rule="evenodd" stroke="none"/>
    <path d="M-162.95 -43.95 L-162.95 -88.95 -152.95 -88.95 -152.95 -43.95 -162.95 -43.95" fill="#6f6f6f" fill-rule="evenodd" stroke="none"/>
    <path d="M-214.95 -25.45 L-219.95 -25.45 -219.95 -39.95 -214.95 -39.95 -214.95 -71.45 -188.95 -71.45 -188.95 -3.95 -198.45 -3.95 -198.45 15.55 -213.45 15.55 -213.45 -3.95 -214.95 -3.95 -214.95 -25.45" fill="#6f6f6f" fill-rule="evenodd" stroke="none"/>
    <path d="M-214.95 -138.95 L-214.95 -199.95 -192.45 -199.95 -192.45 -138.95 -214.95 -138.95" fill="#6f6f6f" fill-rule="evenodd" stroke="none"/>
    <path d="M-203.45 -236.95 L-203.45 -222.95 -217.95 -222.95 -217.95 -236.95 -203.45 -236.95" fill="#6f6f6f" fill-rule="evenodd" stroke="none"/>
    <path d="M-248.95 -239.45 L-248.95 -218.45 -259.45 -218.45 -259.45 -239.45 -248.95 -239.45" fill="#6f6f6f" fill-rule="evenodd" stroke="none"/>
    <path d="M-296.45 -236.45 L-296.45 -222.45 -309.95 -222.45 -309.95 -236.45 -296.45 -236.45" fill="#6f6f6f" fill-rule="evenodd" stroke="none"/>
    <path d="M-295.45 -299.95 L-295.45 -244.45 -311.95 -244.45 -311.95 -299.95 -295.45 -299.95" fill="#6f6f6f" fill-rule="evenodd" stroke="none"/>
    <path d="M-222.95 -359.95 L-222.95 -339.45 -232.45 -339.45 -232.45 -359.95 -222.95 -359.95" fill="#6f6f6f" fill-rule="evenodd" stroke="none"/>
    <path d="M-275.95 -499.95 L-275.95 -457.95 -298.95 -457.95 -298.95 -499.95 -275.95 -499.95" fill="#6f6f6f" fill-rule="evenodd" stroke="none"/>
    <path d="M-122.45 -453.45 L-122.45 -439.95 -132.95 -439.95 -132.95 -453.45 -122.45 -453.45" fill="#6f6f6f" fill-rule="evenodd" stroke="none"/>
    <path d="M-122.45 -516.95 L-133.95 -516.95 -133.95 -545.45 -122.45 -545.45 -122.45 -622.95 -105.95 -622.95 -105.95 -489.45 -122.45 -489.45 -122.45 -516.95" fill="#6f6f6f" fill-rule="evenodd" stroke="none"/>
    <path d="M-12.45 -559.95 L4.05 -559.95 4.05 -502.95 -12.45 -502.95 -12.45 -559.95" fill="#6f6f6f" fill-rule="evenodd" stroke="none"/>
    <path d="M12.55 -487.45 L12.55 -418.95 -14.95 -418.95 -14.95 -487.45 12.55 -487.45" fill="#6f6f6f" fill-rule="evenodd" stroke="none"/>
    <path d="M20.05 -531.95 L33.55 -531.95 33.55 -418.45 20.05 -418.45 20.05 -531.95" fill="#6f6f6f" fill-rule="evenodd" stroke="none"/>
    <path d="M4.55 -585.95 L4.55 -565.95 -8.95 -565.95 -8.95 -585.95 4.55 -585.95" fill="#6f6f6f" fill-rule="evenodd" stroke="none"/>
    <path d="M-127.95 -427.45 L-111.45 -427.45 -111.45 -344.95 -119.95 -344.95 -119.95 -328.95 -122.95 -328.95 -122.95 -339.95 -127.95 -339.95 -127.95 -427.45" fill="#6f6f6f" fill-rule="evenodd" stroke="none"/>
    <path d="M-317.45 -524.95 L-303.45 -524.95 -303.45 -410.95 -317.45 -410.95 -317.45 -524.95" fill="#6f6f6f" fill-rule="evenodd" stroke="none"/>
    <path d="M-313.45 -540.45 L-313.45 -529.45 -320.95 -529.45 -320.95 -540.45 -313.45 -540.45" fill="#6f6f6f" fill-rule="evenodd" stroke="none"/>
    <path d="M-312.95 -553.95 L-312.95 -542.95 -320.95 -542.95 -320.95 -553.95 -312.95 -553.95" fill="#6f6f6f" fill-rule="evenodd" stroke="none"/>
    <path d="M-312.95 -592.95 L-312.95 -581.95 -320.95 -581.95 -320.95 -592.95 -312.95 -592.95" fill="#6f6f6f" fill-rule="evenodd" stroke="none"/>
    <path d="M-312.45 -606.95 L-312.45 -595.95 -320.95 -595.95 -320.95 -606.95 -312.45 -606.95" fill="#6f6f6f" fill-rule="evenodd" stroke="none"/>
    <path d="M-33.95 -256.95 L-33.95 -241.45 -52.95 -241.45 -52.95 -256.95 -33.95 -256.95" fill="#6f6f6f" fill-rule="evenodd" stroke="none"/>
    <path d="M11.05 -352.95 L11.05 -284.95 -16.45 -284.95 -16.45 -352.95 11.05 -352.95" fill="#6f6f6f" fill-rule="evenodd" stroke="none"/>
    <path d="M-151.45 -409.45 L-151.45 -422.45 -138.95 -422.45 -138.95 -409.45 -151.45 -409.45" fill="#6f6f6f" fill-rule="evenodd" stroke="none"/>
    <path d="M16.05 -555.45 L16.05 -566.45 28.55 -566.45 28.55 -555.45 16.05 -555.45" fill="#6f6f6f" fill-rule="evenodd" stroke="none"/>
    <path d="M16.05 -541.45 L16.05 -552.95 28.55 -552.95 28.55 -541.45 16.05 -541.45" fill="#6f6f6f" fill-rule="evenodd" stroke="none"/>
    <path d="M123.55 -548.95 L123.55 -533.95 109.05 -533.95 109.05 -548.95 123.55 -548.95" fill="#6f6f6f" fill-rule="evenodd" stroke="none"/>
    <path d="M118.55 -510.95 L118.55 -531.95 139.55 -531.95 139.55 -510.95 118.55 -510.95" fill="#6f6f6f" fill-rule="evenodd" stroke="none"/>
    <path d="M117.05 -582.95 L117.05 -567.95 103.55 -567.95 103.55 -582.95 117.05 -582.95" fill="#6f6f6f" fill-rule="evenodd" stroke="none"/>
    <path d="M7.55 -643.95 L7.55 -665.95 82.05 -665.95 82.05 -643.95 7.55 -643.95" fill="#6f6f6f" fill-rule="evenodd" stroke="none"/>
    <path d="M18.05 -641.95 L24.05 -641.95 24.05 -634.95 18.05 -634.95 18.05 -641.95" fill="#6f6f6f" fill-rule="evenodd" stroke="none"/>
    <path d="M130.55 -585.95 L123.05 -590.95 Q123.05 -593.45 122.55 -595.95 L127.55 -601.95 Q130.05 -599.45 132.55 -597.45 L130.05 -594.45 134.55 -590.95 130.55 -585.95" fill="#6f6f6f" fill-rule="evenodd" stroke="none"/>
    <path d="M241.55 -337.45 L241.55 -415.45 257.55 -415.45 257.55 -337.45 241.55 -337.45" fill="#6f6f6f" fill-rule="evenodd" stroke="none"/>
    <path d="M25.05 -383.45 L25.05 -404.45 40.05 -404.45 40.05 -383.45 25.05 -383.45" fill="#6f6f6f" fill-rule="evenodd" stroke="none"/>
    <path d="M118.55 -363.95 L118.55 -343.45 107.55 -343.45 107.55 -363.95 118.55 -363.95" fill="#6f6f6f" fill-rule="evenodd" stroke="none"/>
    <path d="M131.05 -313.45 L131.05 -325.95 145.05 -325.95 145.05 -313.45 131.05 -313.45" fill="#6f6f6f" fill-rule="evenodd" stroke="none"/>
    <path d="M205.05 -317.95 L205.05 -310.45 193.05 -310.45 193.05 -317.95 205.05 -317.95" fill="#6f6f6f" fill-rule="evenodd" stroke="none"/>
    <path d="M206.55 -309.95 L206.55 -317.95 218.05 -317.95 218.05 -309.95 206.55 -309.95" fill="#6f6f6f" fill-rule="evenodd" stroke="none"/>
    <path d="M192.55 -349.45 L192.55 -381.95 226.55 -381.95 226.55 -349.45 192.55 -349.45" fill="#6f6f6f" fill-rule="evenodd" stroke="none"/>
    <path d="M192.55 -391.45 L192.55 -423.95 226.55 -423.95 226.55 -391.45 192.55 -391.45" fill="#6f6f6f" fill-rule="evenodd" stroke="none"/>
    <path d="M190.05 -371.95 Q189.55 -363.95 188.55 -356.45 L171.05 -357.95 Q172.05 -365.95 172.55 -373.95 L190.05 -371.95" fill="#6f6f6f" fill-rule="evenodd" stroke="none"/>
    <path d="M116.05 -313.95 L116.05 -310.45 91.05 -310.45 91.05 -317.45 116.05 -317.45 116.05 -326.45 130.05 -326.45 130.05 -313.95 116.05 -313.95" fill="#6f6f6f" fill-rule="evenodd" stroke="none"/>
    <path d="M113.55 -329.45 L110.05 -329.45 110.05 -338.95 113.55 -338.95 113.55 -329.45" fill="#6f6f6f" fill-rule="evenodd" stroke="none"/>
    <path d="M327.55 -344.45 L331.05 -344.45 331.05 -220.45 317.55 -220.45 317.55 -229.45 314.55 -229.45 314.55 -247.45 306.05 -247.45 306.05 -275.95 314.55 -275.95 314.55 -353.45 327.55 -353.45 327.55 -344.45" fill="#6f6f6f" fill-rule="evenodd" stroke="none"/>
    <path d="M112.05 -204.95 L112.05 -227.45 173.05 -227.45 173.05 -204.95 112.05 -204.95" fill="#6f6f6f" fill-rule="evenodd" stroke="none"/>
    <path d="M219.05 -465.45 Q225.05 -466.45 230.55 -467.95 232.55 -458.95 234.05 -449.95 228.05 -448.45 222.05 -447.45 L219.05 -465.45" fill="#6f6f6f" fill-rule="evenodd" stroke="none"/>
    <path d="M111.05 -177.45 L111.05 -203.95 178.55 -203.95 178.55 -177.45 111.05 -177.45" fill="#6f6f6f" fill-rule="evenodd" stroke="none"/>
    <path d="M111.05 -149.95 L111.05 -176.45 178.55 -176.45 178.55 -149.95 111.05 -149.95" fill="#6f6f6f" fill-rule="evenodd" stroke="none"/>
    <path d="M135.05 -283.45 L139.05 -277.95 140.05 -271.45 Q139.05 -268.45 137.55 -265.45 L132.55 -260.95 125.55 -259.95 Q122.55 -260.95 119.55 -262.45 117.55 -264.95 115.55 -267.95 L114.55 -274.45 Q116.05 -277.45 117.05 -280.95 L122.55 -284.95 129.05 -285.95 Q132.05 -284.45 135.05 -283.45" fill="#6f6f6f" fill-rule="evenodd" stroke="none"/>
    <path d="M189.55 -116.45 L189.55 -98.45 109.55 -98.45 109.55 -116.45 189.55 -116.45" fill="#6f6f6f" fill-rule="evenodd" stroke="none"/>
    <path d="M145.05 -118.45 L133.55 -118.95 134.55 -129.95 145.55 -128.95 Q145.55 -123.45 145.05 -118.45" fill="#6f6f6f" fill-rule="evenodd" stroke="none"/>
    <path d="M130.55 -119.45 L114.55 -119.45 114.55 -135.95 130.55 -135.95 130.55 -119.45" fill="#6f6f6f" fill-rule="evenodd" stroke="none"/>
    <path d="M131.05 -79.45 L113.05 -77.95 111.05 -94.45 129.55 -96.45 Q130.55 -87.95 131.05 -79.45" fill="#6f6f6f" fill-rule="evenodd" stroke="none"/>
    <path d="M143.55 -98.45 L161.05 -98.45 161.05 -84.95 143.55 -84.95 143.55 -98.45" fill="#6f6f6f" fill-rule="evenodd" stroke="none"/>
    <path d="M176.55 58.55 L176.55 92.55 113.05 92.55 113.05 58.55 111.55 58.55 111.55 46.55 123.55 46.55 123.55 58.55 176.55 58.55" fill="#6f6f6f" fill-rule="evenodd" stroke="none"/>
    <path d="M136.55 155.55 L113.55 155.55 113.55 95.55 136.55 95.55 136.55 155.55" fill="#6f6f6f" fill-rule="evenodd" stroke="none"/>
    <path d="M153.55 117.55 L139.55 116.05 Q141.05 107.05 142.05 97.55 L156.05 99.55 Q155.05 108.55 153.55 117.55" fill="#6f6f6f" fill-rule="evenodd" stroke="none"/>
    <path d="M739.55 -227.95 L739.55 -206.95 711.55 -206.95 711.55 -198.95 682.05 -198.95 682.05 -206.95 608.05 -206.95 608.05 -227.95 739.55 -227.95" fill="#6f6f6f" fill-rule="evenodd" stroke="none"/>
    <path d="M761.05 -398.45 L787.05 -398.45 787.05 -330.45 761.05 -330.45 761.05 -398.45" fill="#6f6f6f" fill-rule="evenodd" stroke="none"/>
    <path d="M756.05 -310.45 Q757.05 -318.95 757.55 -327.45 L778.05 -325.95 Q777.55 -317.45 776.55 -308.95 L756.05 -310.45" fill="#6f6f6f" fill-rule="evenodd" stroke="none"/>
    <path d="M719.55 -433.95 L719.55 -414.45 661.55 -414.45 661.55 -433.95 719.55 -433.95" fill="#6f6f6f" fill-rule="evenodd" stroke="none"/>
    <path d="M636.05 -440.45 L636.05 -413.95 620.05 -413.95 620.05 -440.45 636.05 -440.45" fill="#6f6f6f" fill-rule="evenodd" stroke="none"/>
    <path d="M659.55 -440.95 L659.55 -414.45 643.55 -414.45 643.55 -440.95 659.55 -440.95" fill="#6f6f6f" fill-rule="evenodd" stroke="none"/>
    <path d="M135.05 167.55 L139.05 212.55 185.05 208.55 Q183.55 186.05 181.55 163.05 L135.05 167.55 M128.55 168.05 L115.05 169.05 119.05 214.55 132.55 213.05 128.55 168.05 M202.55 161.05 L188.05 162.05 Q190.05 185.05 191.55 207.55 L206.05 206.55 208.05 216.55 114.55 225.55 108.55 160.05 202.05 151.55 Q202.55 156.55 202.55 161.05" fill="#6f6f6f" fill-rule="evenodd" stroke="none"/>
    <path d="M331.05 332.55 L331.05 406.55 334.55 406.55 334.55 418.05 318.55 418.05 318.55 406.55 321.05 406.55 321.05 332.55 331.05 332.55" fill="#6f6f6f" fill-rule="evenodd" stroke="none"/>
    <path d="M-213.95 298.05 L-213.95 302.05 -211.45 302.05 -211.45 314.55 -225.95 314.55 -225.95 302.05 -218.95 302.05 -218.95 298.05 -213.95 298.05" fill="#6f6f6f" fill-rule="evenodd" stroke="none"/>
    <path d="M-191.95 303.55 L-191.95 298.55 -185.95 298.55 -185.95 303.55 -191.95 303.55" fill="#6f6f6f" fill-rule="evenodd" stroke="none"/>
    <path d="M-248.95 274.05 L-248.95 258.55 -231.45 258.55 -231.45 274.05 -232.45 274.05 -232.45 291.55 -247.45 291.55 -247.45 274.05 -248.95 274.05" fill="#6f6f6f" fill-rule="evenodd" stroke="none"/>
    <path d="M-250.45 215.55 L-231.45 215.55 -231.45 239.55 -229.95 239.55 -228.95 254.05 -247.95 255.55 Q-248.45 248.55 -249.45 241.05 L-236.45 240.05 -250.45 240.05 -250.45 215.55" fill="#6f6f6f" fill-rule="evenodd" stroke="none"/>
    <path d="M-274.95 219.55 L-251.95 218.55 -250.95 236.55 -273.95 238.05 -274.95 219.55" fill="#6f6f6f" fill-rule="evenodd" stroke="none"/>
    <path d="M-294.45 234.05 L-297.95 229.55 Q-298.45 227.05 -299.45 224.05 L-297.45 218.55 Q-294.95 217.05 -292.95 215.05 -289.95 214.55 -287.45 213.55 L-281.95 215.55 -277.95 220.05 -276.95 225.55 -278.95 231.05 -283.45 235.05 -288.95 236.05 -294.45 234.05" fill="#6f6f6f" fill-rule="evenodd" stroke="none"/>
    <path d="M-231.45 138.05 L-253.95 138.05 -253.95 118.05 -231.45 118.05 -231.45 138.05" fill="#6f6f6f" fill-rule="evenodd" stroke="none"/>
    <path d="M-228.95 51.55 L-249.95 51.55 -249.95 46.55 -252.95 46.55 -252.95 27.05 -232.95 27.05 -232.95 46.05 -228.95 46.05 -228.95 51.55" fill="#6f6f6f" fill-rule="evenodd" stroke="none"/>
    <path d="M-276.45 119.55 L-277.45 105.55 -261.45 104.55 -260.45 118.05 -276.45 119.55" fill="#6f6f6f" fill-rule="evenodd" stroke="none"/>
    <path d="M-294.45 106.05 Q-294.45 99.05 -294.95 92.05 L-282.45 91.55 Q-281.95 98.55 -281.95 105.55 L-294.45 106.05" fill="#6f6f6f" fill-rule="evenodd" stroke="none"/>
    <path d="M-296.45 123.05 L-296.45 110.55 -281.45 110.05 Q-280.95 116.55 -280.95 122.55 L-296.45 123.05" fill="#6f6f6f" fill-rule="evenodd" stroke="none"/>
    <path d="M-257.95 -21.95 L-250.45 -21.95 -250.45 14.05 -257.95 14.05 -257.95 -21.95" fill="#6f6f6f" fill-rule="evenodd" stroke="none"/>
    <path d="M-284.95 53.55 L-284.95 36.55 -270.95 36.55 -270.95 53.55 -284.95 53.55" fill="#6f6f6f" fill-rule="evenodd" stroke="none"/>
    <path d="M-282.45 22.05 L-284.45 35.05 -301.45 32.55 Q-299.95 26.05 -298.95 19.05 L-282.45 22.05" fill="#6f6f6f" fill-rule="evenodd" stroke="none"/>
    <path d="M-271.45 -10.95 L-260.95 -11.95 -253.95 65.05 -264.45 66.05 Q-266.45 42.05 -268.95 18.05 L-269.95 32.05 -278.95 31.05 Q-277.95 23.05 -277.45 15.05 L-268.95 16.05 Q-269.95 2.55 -271.45 -10.95" fill="#6f6f6f" fill-rule="evenodd" stroke="none"/>
    <path d="M-291.95 18.05 L-293.95 10.55 Q-291.45 10.05 -288.95 9.05 -289.45 6.55 -290.45 3.55 L-274.95 -0.45 -272.95 7.05 Q-275.45 8.05 -277.95 8.55 -276.95 11.55 -276.45 14.05 L-291.95 18.05" fill="#6f6f6f" fill-rule="evenodd" stroke="none"/>
    <path d="M-275.95 -7.95 L-276.95 0.05 -292.95 -1.45 -291.95 -8.95 -275.95 -7.95" fill="#6f6f6f" fill-rule="evenodd" stroke="none"/>
    <path d="M-272.45 61.05 Q-273.95 63.05 -275.95 65.05 L-281.45 59.55 -277.45 55.55 -272.45 61.05" fill="#6f6f6f" fill-rule="evenodd" stroke="none"/>
    <path d="M-241.95 88.55 L-241.95 52.55 -225.95 52.55 -225.95 88.55 -232.95 88.55 -232.95 111.55 -252.45 111.55 -252.45 88.55 -241.95 88.55" fill="#6f6f6f" fill-rule="evenodd" stroke="none"/>
    <path d="M-264.95 88.05 L-264.95 80.05 -259.45 80.05 -259.45 88.05 -264.95 88.05" fill="#6f6f6f" fill-rule="evenodd" stroke="none"/>
    <path d="M-261.95 90.55 Q-257.95 92.55 -254.45 94.55 -255.45 97.55 -256.95 100.05 L-264.95 96.05 -261.95 90.55" fill="#6f6f6f" fill-rule="evenodd" stroke="none"/>
    <path d="M-277.45 86.05 Q-274.45 82.55 -271.95 79.05 -269.45 81.05 -267.45 83.05 L-272.45 89.55 Q-274.95 88.05 -277.45 86.05" fill="#6f6f6f" fill-rule="evenodd" stroke="none"/>
    <path d="M-256.95 70.55 Q-253.95 71.55 -251.45 72.55 L-253.45 78.55 Q-256.45 77.55 -259.45 76.05 -257.95 73.55 -256.95 70.55" fill="#6f6f6f" fill-rule="evenodd" stroke="none"/>
    <path d="M-291.45 -53.95 Q-295.45 -52.95 -299.95 -52.45 -300.45 -57.45 -301.45 -62.95 L-290.95 -64.95 -288.95 -55.45 Q-287.45 -55.45 -286.45 -55.95 -285.95 -52.95 -285.95 -50.45 L-225.45 -50.45 -225.45 -24.95 -261.45 -24.95 -261.45 -14.45 -294.95 -14.45 -294.95 -50.45 -291.45 -50.45 -291.45 -53.95" fill="#6f6f6f" fill-rule="evenodd" stroke="none"/>
    <path d="M-287.95 -56.95 L-290.95 -101.45 -274.45 -102.45 Q-272.95 -79.95 -271.95 -57.95 L-287.95 -56.95" fill="#6f6f6f" fill-rule="evenodd" stroke="none"/>
    <path d="M-271.45 -82.45 L-256.45 -82.45 -256.45 -72.95 -232.45 -73.95 Q-231.95 -63.95 -231.95 -53.95 -243.95 -53.45 -255.95 -53.45 -255.95 -58.95 -256.45 -64.45 L-271.45 -64.45 -271.45 -82.45" fill="#6f6f6f" fill-rule="evenodd" stroke="none"/>
    <path d="M-253.45 -75.95 L-253.45 -84.95 -272.45 -84.95 -272.45 -99.45 -233.95 -99.45 -233.95 -75.95 -253.45 -75.95" fill="#6f6f6f" fill-rule="evenodd" stroke="none"/>
    <path d="M-228.95 -103.45 L-262.95 -103.45 -262.95 -147.95 -245.45 -147.95 -245.45 -158.45 -228.95 -158.45 -228.95 -103.45" fill="#6f6f6f" fill-rule="evenodd" stroke="none"/>
    <path d="M-308.45 -147.95 L-326.95 -146.45 Q-327.45 -153.45 -328.45 -160.95 L-309.95 -162.45 Q-308.95 -154.95 -308.45 -147.95" fill="#6f6f6f" fill-rule="evenodd" stroke="none"/>
    <path d="M-332.45 -160.95 L-346.95 -161.45 -346.95 -176.45 -332.45 -176.45 -332.45 -160.95" fill="#6f6f6f" fill-rule="evenodd" stroke="none"/>
    <path d="M-337.95 -181.95 L-354.95 -180.95 Q-356.45 -203.45 -358.45 -225.95 L-341.45 -226.95 Q-339.45 -204.45 -337.95 -181.95" fill="#6f6f6f" fill-rule="evenodd" stroke="none"/>
    <path d="M-329.95 -139.95 L-348.45 -139.95 -348.45 -154.45 -329.95 -154.45 -329.95 -139.95" fill="#6f6f6f" fill-rule="evenodd" stroke="none"/>
    <path d="M-330.45 -148.45 L-346.45 -158.45 Q-344.45 -160.95 -342.95 -163.95 L-326.95 -154.45 Q-328.45 -151.45 -330.45 -148.45" fill="#6f6f6f" fill-rule="evenodd" stroke="none"/>
    <path d="M-327.95 -266.45 L-344.95 -266.45 -344.95 -297.45 -327.95 -297.45 -327.95 -266.45" fill="#6f6f6f" fill-rule="evenodd" stroke="none"/>
    <path d="M-333.45 -244.95 L-348.95 -244.95 -348.95 -264.45 -333.45 -264.45 -333.45 -244.95" fill="#6f6f6f" fill-rule="evenodd" stroke="none"/>
    <path d="M-331.45 -227.95 L-349.95 -227.95 -349.95 -242.95 -331.45 -242.95 -331.45 -227.95" fill="#6f6f6f" fill-rule="evenodd" stroke="none"/>
    <path d="M-332.45 -318.45 L-338.95 -317.45 -339.95 -325.95 -332.95 -326.95 Q-332.45 -322.45 -332.45 -318.45" fill="#6f6f6f" fill-rule="evenodd" stroke="none"/>
    <path d="M-331.45 -328.95 L-337.95 -328.45 -338.95 -336.95 -331.95 -337.45 Q-331.45 -332.95 -331.45 -328.95" fill="#6f6f6f" fill-rule="evenodd" stroke="none"/>
    <path d="M-334.95 -338.45 Q-337.95 -338.95 -340.95 -339.95 -339.45 -343.95 -338.45 -347.95 L-332.45 -345.95 Q-333.45 -341.95 -334.95 -338.45" fill="#6f6f6f" fill-rule="evenodd" stroke="none"/>
    <path d="M-328.95 -381.45 L-352.45 -381.45 -352.45 -455.45 -328.95 -455.45 -328.95 -381.45" fill="#6f6f6f" fill-rule="evenodd" stroke="none"/>
    <path d="M-328.45 -527.95 L-328.45 -472.95 -347.95 -472.95 -347.95 -527.95 -328.45 -527.95" fill="#6f6f6f" fill-rule="evenodd" stroke="none"/>
    <path d="M-323.95 -530.95 L-358.95 -530.95 -358.95 -597.95 -323.95 -597.95 -323.95 -530.95" fill="#6f6f6f" fill-rule="evenodd" stroke="none"/>
    <path d="M-331.95 -471.95 L-349.95 -457.45 Q-351.95 -460.45 -354.45 -463.45 -345.45 -470.45 -336.45 -477.95 -333.95 -474.95 -331.95 -471.95" fill="#6f6f6f" fill-rule="evenodd" stroke="none"/>
    <path d="M-430.45 -447.45 L-442.45 -447.45 -442.45 -465.95 -430.45 -465.95 -430.45 -447.45" fill="#6f6f6f" fill-rule="evenodd" stroke="none"/>
    <path d="M-430.45 -404.95 L-442.45 -404.95 -442.45 -421.95 -430.45 -421.95 -430.45 -404.95" fill="#6f6f6f" fill-rule="evenodd" stroke="none"/>
    <path d="M-497.45 -447.45 L-509.45 -447.45 -509.45 -465.95 -497.45 -465.95 -497.45 -447.45" fill="#6f6f6f" fill-rule="evenodd" stroke="none"/>
    <path d="M-497.95 -404.95 L-509.45 -404.95 -509.45 -421.95 -497.95 -421.95 -497.95 -404.95" fill="#6f6f6f" fill-rule="evenodd" stroke="none"/>
    <path d="M-427.45 -519.45 L-427.45 -502.95 -445.45 -502.95 -445.45 -519.45 -427.45 -519.45" fill="#6f6f6f" fill-rule="evenodd" stroke="none"/>
    <path d="M-491.45 -519.95 L-491.45 -503.45 -508.95 -503.45 -508.95 -519.95 -491.45 -519.95" fill="#6f6f6f" fill-rule="evenodd" stroke="none"/>
    <path d="M-491.45 -357.45 L-526.45 -357.45 -526.45 -365.95 -491.45 -365.95 -491.45 -357.45" fill="#6f6f6f" fill-rule="evenodd" stroke="none"/>
    <path d="M-483.45 -357.45 L-489.95 -357.95 -488.95 -364.45 -482.45 -363.45 -483.45 -357.45" fill="#6f6f6f" fill-rule="evenodd" stroke="none"/>
    <path d="M-403.45 -791.45 L-459.45 -784.95 Q-462.95 -817.95 -466.95 -850.95 L-410.95 -857.45 Q-406.95 -824.45 -403.45 -791.45" fill="#6f6f6f" fill-rule="evenodd" stroke="none"/>
    <path d="M-590.45 -801.95 L-598.95 -800.95 Q-600.95 -820.95 -603.45 -840.95 L-594.95 -841.95 Q-592.45 -821.95 -590.45 -801.95" fill="#6f6f6f" fill-rule="evenodd" stroke="none"/>
    <path d="M-587.95 -717.95 L-596.45 -717.95 Q-596.95 -737.95 -597.95 -758.45 L-589.95 -758.45 -587.95 -717.95" fill="#6f6f6f" fill-rule="evenodd" stroke="none"/>
    <path d="M479.55 -675.95 L395.05 -689.95 Q398.55 -708.45 401.55 -726.95 L485.55 -712.95 479.55 -675.95" fill="#6f6f6f" fill-rule="evenodd" stroke="none"/>
    <path d="M488.55 -732.95 L404.55 -746.95 410.55 -783.95 495.05 -770.45 Q492.05 -751.45 488.55 -732.95" fill="#6f6f6f" fill-rule="evenodd" stroke="none"/>
    <path d="M498.05 -792.95 L414.05 -806.95 420.05 -843.95 504.05 -830.45 498.05 -792.95" fill="#6f6f6f" fill-rule="evenodd" stroke="none"/>
    <path d="M90.05 -848.95 L-14.45 -840.45 -17.45 -875.45 87.55 -883.95 Q89.05 -866.45 90.05 -848.95" fill="#6f6f6f" fill-rule="evenodd" stroke="none"/>
    <path d="M98.05 -848.45 L73.05 -846.45 Q72.55 -856.95 71.55 -867.95 L96.05 -869.95 98.05 -848.45" fill="#6f6f6f" fill-rule="evenodd" stroke="none"/>
    <path d="M511.55 -920.45 L378.05 -910.95 Q377.55 -919.45 376.55 -927.95 L510.05 -936.95 Q511.05 -928.45 511.55 -920.45" fill="#6f6f6f" fill-rule="evenodd" stroke="none"/>
    <path d="M486.05 -908.45 L455.05 -906.45 454.05 -921.45 485.05 -923.45 486.05 -908.45" fill="#6f6f6f" fill-rule="evenodd" stroke="none"/>
    <path d="M676.05 -814.45 Q661.05 -817.45 646.05 -820.95 L671.05 -941.95 Q686.05 -938.45 701.05 -935.45 L676.05 -814.45" fill="#6f6f6f" fill-rule="evenodd" stroke="none"/>
    <path d="M402.55 -79.95 L372.55 -79.95 372.55 -206.95 402.55 -206.95 402.55 -79.95" fill="#6f6f6f" fill-rule="evenodd" stroke="none"/>
    <path d="M-394.45 175.55 L-394.45 116.05 -370.45 116.05 -370.45 175.55 -394.45 175.55" fill="#6f6f6f" fill-rule="evenodd" stroke="none"/>
    <path d="M-222.95 -625.95 L-222.95 -617.45 -234.95 -617.45 -234.95 -625.95 -222.95 -625.95" fill="#6f6f6f" fill-rule="evenodd" stroke="none"/>
    <path d="M-329.95 -633.45 L-298.95 -633.45 -298.95 -624.95 -311.45 -624.95 -311.45 -616.45 -320.45 -616.45 -320.45 -573.95 -313.95 -573.95 -313.95 -565.45 -320.45 -565.45 -320.45 -504.45 -317.95 -504.45 -317.95 -495.95 -320.45 -495.95 -320.45 -436.45 -317.45 -436.45 -317.45 -428.45 -320.45 -428.45 -320.45 -394.95 -280.95 -394.95 -280.95 -339.45 -320.45 -339.45 -320.45 -304.95 -314.95 -304.95 -314.95 -296.95 -320.45 -296.95 -320.45 -239.45 -313.95 -239.45 -313.95 -231.45 -320.45 -231.45 -320.45 -181.95 -313.95 -181.95 -313.95 -175.45 -293.95 -175.45 -293.95 -164.95 -329.95 -164.95 -329.95 -633.45" fill="#424242" fill-rule="evenodd" stroke="none"/>
    <path d="M-141.45 -429.95 L-147.45 -429.95 -147.45 -434.45 -174.95 -434.45 -174.95 -431.45 -180.95 -431.45 -180.95 -434.45 -202.95 -434.45 -202.95 -429.45 -208.95 -429.45 -208.95 -434.45 -217.95 -434.45 -217.95 -624.95 -257.95 -624.95 -257.95 -633.45 -131.45 -633.45 -131.45 -298.45 -135.95 -298.45 -135.95 -293.95 -142.45 -293.95 -142.45 -298.95 -216.45 -298.95 -216.45 -291.95 -220.45 -291.95 -220.45 -286.45 -222.95 -286.45 -222.95 -284.45 -225.95 -284.45 -225.95 -286.45 -229.45 -286.45 -229.45 -309.95 -220.45 -309.95 -220.45 -308.95 -209.95 -308.95 -209.95 -306.45 -141.45 -306.45 -141.45 -397.45 -147.95 -397.45 -147.95 -402.45 -141.45 -402.45 -141.45 -429.95" fill="#424242" fill-rule="evenodd" stroke="none"/>
    <path d="M-275.95 -633.45 L-275.95 -626.95 -280.95 -626.95 -280.95 -633.45 -275.95 -633.45" fill="#424242" fill-rule="evenodd" stroke="none"/>
    <path d="M-243.95 -573.45 L-243.95 -565.45 -247.45 -565.45 -247.45 -573.45 -243.95 -573.45" fill="#424242" fill-rule="evenodd" stroke="none"/>
    <path d="M-247.45 -496.45 L-247.45 -503.95 -243.95 -503.95 -243.95 -496.45 -247.45 -496.45" fill="#424242" fill-rule="evenodd" stroke="none"/>
    <path d="M-247.45 -429.95 L-247.45 -437.95 -243.95 -437.95 -243.95 -429.95 -247.45 -429.95" fill="#424242" fill-rule="evenodd" stroke="none"/>
    <path d="M-247.45 -364.45 L-247.45 -372.45 -243.95 -372.45 -243.95 -364.45 -247.45 -364.45" fill="#424242" fill-rule="evenodd" stroke="none"/>
    <path d="M-247.45 -296.95 L-247.45 -304.95 -243.45 -304.95 -243.45 -296.95 -247.45 -296.95" fill="#424242" fill-rule="evenodd" stroke="none"/>
    <path d="M-247.45 -228.95 L-247.45 -236.95 -243.45 -236.95 -243.45 -228.95 -247.45 -228.95" fill="#424242" fill-rule="evenodd" stroke="none"/>
    <path d="M-222.95 -252.45 L-221.45 -252.45 -221.45 -211.95 -217.45 -211.95 -217.45 -203.45 -221.45 -203.45 -221.45 -138.45 -217.45 -138.45 -217.45 -128.95 -221.45 -128.95 -221.45 -67.95 -217.45 -67.95 -217.45 -58.45 -221.45 -58.45 -221.45 7.05 -217.45 7.05 -217.45 16.05 -221.45 16.05 -221.45 82.05 -217.95 82.05 -217.95 91.55 -221.45 91.55 -221.45 158.05 -217.95 158.05 -217.95 167.55 -221.45 167.55 -221.45 213.05 -217.95 213.05 -217.95 222.05 -221.45 222.05 -221.45 283.05 -217.45 283.05 -217.45 292.05 Q-188.95 292.55 -160.45 292.55 L-160.45 300.55 -221.45 300.55 -221.45 302.05 -227.45 302.05 -227.45 -164.95 -278.95 -164.95 -278.95 -174.95 -228.95 -174.95 -228.95 -252.45 -225.95 -252.45 -225.95 -256.95 -222.95 -256.95 -222.95 -252.45" fill="#424242" fill-rule="evenodd" stroke="none"/>
    <path d="M22.55 -531.95 L21.55 -531.95 21.55 -337.45 26.05 -337.45 26.05 -331.95 21.55 -331.95 21.55 -312.45 26.05 -312.45 26.05 -309.45 46.05 -309.45 46.05 -299.95 21.55 -299.95 21.55 -294.45 11.05 -294.45 11.05 -633.45 108.05 -633.45 108.05 -503.45 173.55 -503.45 173.55 -494.45 108.05 -494.45 108.05 -492.95 99.05 -492.95 99.05 -543.45 95.55 -543.45 95.55 -548.95 99.05 -548.95 99.05 -624.45 21.55 -624.45 21.55 -541.45 25.05 -541.45 25.05 -536.45 22.55 -536.45 22.55 -531.95" fill="#424242" fill-rule="evenodd" stroke="none"/>
    <path d="M106.55 -376.45 L106.55 -366.95 100.05 -366.95 100.05 -376.45 106.55 -376.45" fill="#424242" fill-rule="evenodd" stroke="none"/>
    <path d="M106.05 -437.45 L106.05 -427.95 99.55 -427.95 99.55 -437.45 106.05 -437.45" fill="#424242" fill-rule="evenodd" stroke="none"/>
    <path d="M50.05 -429.45 L50.05 -435.45 56.05 -435.45 56.05 -429.45 50.05 -429.45" fill="#424242" fill-rule="evenodd" stroke="none"/>
    <path d="M88.55 -435.45 L88.55 -429.45 82.55 -429.45 82.55 -435.45 88.55 -435.45" fill="#424242" fill-rule="evenodd" stroke="none"/>
    <path d="M50.05 -495.45 L50.05 -500.95 56.05 -500.95 56.05 -495.45 50.05 -495.45" fill="#424242" fill-rule="evenodd" stroke="none"/>
    <path d="M50.05 -536.45 L50.05 -541.95 56.05 -541.95 56.05 -536.45 50.05 -536.45" fill="#424242" fill-rule="evenodd" stroke="none"/>
    <path d="M67.05 -548.45 L72.55 -548.45 72.55 -543.45 67.05 -543.45 67.05 -548.45" fill="#424242" fill-rule="evenodd" stroke="none"/>
    <path d="M187.55 -494.95 L187.55 -503.45 241.05 -503.45 241.05 -299.45 106.55 -299.45 106.55 300.55 36.05 300.55 36.05 292.55 Q67.05 292.55 98.05 292.05 L98.05 283.05 99.55 283.05 99.55 222.05 97.55 222.05 97.55 213.05 99.55 213.05 99.55 167.55 97.55 167.55 97.55 158.05 99.55 158.05 99.55 91.55 97.55 91.55 97.55 82.05 99.55 82.05 99.55 16.05 98.05 16.05 98.05 7.05 99.55 7.05 99.55 -58.45 98.05 -58.45 98.05 -67.95 99.55 -67.95 99.55 -128.95 98.05 -128.95 98.05 -138.45 99.55 -138.45 99.55 -203.45 97.55 -203.45 97.55 -211.95 99.55 -211.95 99.55 -290.95 97.55 -290.95 97.55 -299.45 75.05 -299.45 75.05 -308.95 82.05 -308.95 82.05 -313.45 87.55 -313.45 87.55 -308.95 231.55 -308.95 231.55 -494.95 187.55 -494.95" fill="#424242" fill-rule="evenodd" stroke="none"/>
    <path d="M45.55 -373.95 L45.55 -426.95 83.55 -426.95 83.55 -373.95 45.55 -373.95" fill="#424242" fill-rule="evenodd" stroke="none"/>
    <path d="M22.55 -218.45 L22.55 371.55 -8.45 371.55 -8.45 366.55 17.55 366.55 17.55 -213.45 -126.45 -213.45 -126.45 366.55 -102.95 366.55 -102.95 371.55 -131.45 371.55 -131.45 -218.45 22.55 -218.45" fill="#424242" fill-rule="evenodd" stroke="none"/>
    <path d="M-4.95 -198.45 L-4.95 418.55 -104.95 418.55 -104.95 -198.45 -4.95 -198.45 M-99.95 -193.45 L-99.95 413.55 -9.95 413.55 -9.95 -193.45 -99.95 -193.45" fill="#424242" fill-rule="evenodd" stroke="none"/>
    <path d="M-135.45 -232.95 L-141.95 -232.95 -141.95 -238.45 -135.45 -238.45 -135.45 -232.95" fill="#424242" fill-rule="evenodd" stroke="none"/>
    <path d="M-85.95 -232.95 L-92.45 -232.95 -92.45 -238.45 -85.95 -238.45 -85.95 -232.95" fill="#424242" fill-rule="evenodd" stroke="none"/>
    <path d="M-28.95 -232.95 L-34.95 -232.95 -34.95 -238.45 -28.95 -238.45 -28.95 -232.95" fill="#424242" fill-rule="evenodd" stroke="none"/>
    <path d="M21.55 -232.95 L15.05 -232.95 15.05 -238.45 21.55 -238.45 21.55 -232.95" fill="#424242" fill-rule="evenodd" stroke="none"/>
    <path d="M46.55 5.55 L40.05 5.55 40.05 0.05 46.55 0.05 46.55 5.55" fill="#424242" fill-rule="evenodd" stroke="none"/>
    <path d="M46.55 33.05 L40.05 33.05 40.05 27.55 46.55 27.55 46.55 33.05" fill="#424242" fill-rule="evenodd" stroke="none"/>
    <path d="M-160.45 5.55 L-166.95 5.55 -166.95 0.05 -160.45 0.05 -160.45 5.55" fill="#424242" fill-rule="evenodd" stroke="none"/>
    <path d="M-160.45 33.05 L-166.95 33.05 -166.95 27.55 -160.45 27.55 -160.45 33.05" fill="#424242" fill-rule="evenodd" stroke="none"/>
    <path d="M-146.45 95.05 L-184.95 95.05 -184.95 39.55 -146.45 39.55 -146.45 95.05" fill="#424242" fill-rule="evenodd" stroke="none"/>
    <path d="M-294.45 204.55 L-296.45 194.05 Q-294.45 189.55 -292.95 184.55 L-284.95 177.55 -274.45 175.55 -264.95 179.05 -257.95 187.05 Q-256.95 192.55 -256.45 197.55 -257.95 202.55 -259.95 207.05 -263.45 210.55 -267.45 214.05 L-277.95 215.55 -287.45 212.05 -294.45 204.55" fill="#424242" fill-rule="evenodd" stroke="none"/>
    <path d="M-294.95 153.05 L-296.95 142.55 Q-294.95 138.05 -293.45 133.05 L-285.45 126.05 -274.95 124.05 -265.45 127.55 -258.45 135.55 Q-257.45 141.05 -256.95 146.05 -258.45 151.05 -260.45 155.55 L-267.95 162.55 -278.45 164.05 -287.95 160.55 -294.95 153.05" fill="#424242" fill-rule="evenodd" stroke="none"/>
    <path d="M-125.95 300.55 L-135.45 300.55 -135.45 292.55 -125.95 292.55 -125.95 300.55" fill="#424242" fill-rule="evenodd" stroke="none"/>
    <path d="M14.55 300.55 L6.05 300.55 6.05 292.55 14.55 292.55 14.55 300.55" fill="#424242" fill-rule="evenodd" stroke="none"/>
    <path d="M753.55 -223.95 L332.55 -223.95 332.55 -416.95 753.55 -416.95 753.55 -223.95" fill="#424242" fill-rule="evenodd" stroke="none"/>
    <path d="M-411.45 -347.95 L-411.45 184.05 -537.95 184.05 -537.95 -347.95 -411.45 -347.95" fill="#424242" fill-rule="evenodd" stroke="none"/>
    <path d="M-409.95 -373.95 L-409.95 183.05 -414.95 183.05 -414.95 -373.95 -409.95 -373.95" fill="#424242" fill-rule="evenodd" stroke="none"/>
    <path d="M-528.95 -364.95 L-528.95 182.05 -537.95 182.05 -537.95 -364.95 -528.95 -364.95" fill="#424242" fill-rule="evenodd" stroke="none"/>
    <path d="M-67.95 -798.95 L-192.45 -798.95 -192.45 -854.95 -67.95 -854.95 -67.95 -798.95" fill="#424242" fill-rule="evenodd" stroke="none"/>
    <path d="M-131.45 -791.95 L-152.45 -791.95 -152.45 -801.95 -131.45 -801.95 -131.45 -791.95" fill="#424242" fill-rule="evenodd" stroke="none"/>
    <path d="M-91.95 -791.95 L-112.95 -791.95 -112.95 -801.95 -91.95 -801.95 -91.95 -791.95" fill="#424242" fill-rule="evenodd" stroke="none"/>
    <path d="M-57.95 -802.95 L-78.95 -802.95 -78.95 -822.45 -57.95 -822.45 -57.95 -802.95" fill="#424242" fill-rule="evenodd" stroke="none"/>
    <path d="M-107.45 -845.95 L-137.95 -845.95 -137.95 -864.95 -107.45 -864.95 -107.45 -845.95" fill="#424242" fill-rule="evenodd" stroke="none"/>
    <path d="M-395.45 313.05 Q-394.95 296.55 -394.95 279.55 -367.45 280.55 -339.95 281.05 L-339.95 276.05 -334.95 276.05 -334.95 281.05 -331.95 281.05 Q-330.95 286.55 -330.45 291.55 -330.45 299.05 -330.95 306.05 L-332.95 314.55 -335.95 314.55 -335.95 319.05 -340.95 318.55 -340.95 314.55 -375.45 313.55 -375.45 321.05 Q-384.45 321.05 -393.95 320.55 -393.45 317.05 -393.45 313.05 L-395.45 313.05" fill="#424242" fill-rule="evenodd" stroke="none"/>
    <path d="M435.55 234.55 L437.55 237.05 440.55 234.05 444.05 237.55 441.05 240.55 464.05 266.05 469.55 261.05 481.55 274.55 476.55 279.55 477.55 281.05 Q465.55 292.55 453.05 303.55 L416.05 263.05 Q414.55 265.05 412.55 266.55 L409.05 263.05 413.05 259.55 411.05 257.05 417.05 249.05 427.55 239.05 Q431.55 237.05 435.55 234.55" fill="#424242" fill-rule="evenodd" stroke="none"/>
    <path d="M730.05 28.55 L725.05 33.55 726.05 35.05 Q714.05 46.55 701.55 57.55 L664.55 17.05 Q663.05 19.05 661.05 20.55 L657.55 16.55 661.55 13.05 659.55 11.05 665.55 3.05 676.05 -6.95 684.05 -11.45 686.05 -9.45 Q687.55 -10.45 689.05 -11.95 L692.55 -8.45 689.55 -5.45 712.55 20.05 718.05 15.05 730.05 28.55" fill="#424242" fill-rule="evenodd" stroke="none"/>
    <path d="M-34.95 -217.45 L-20.95 -217.95 Q-20.45 -143.45 -20.45 -69.45 2.55 -69.45 25.05 -69.95 25.55 -63.95 25.55 -57.95 2.55 -57.45 -20.45 -57.45 L-20.45 -53.45 -34.45 -52.95 -34.45 -57.45 -133.45 -56.45 Q-133.45 -62.45 -133.95 -68.45 L-34.45 -69.45 Q-34.45 -143.45 -34.95 -217.45" fill="#6f6f6f" fill-rule="evenodd" stroke="none"/>
    <path d="M24.55 265.05 Q-54.95 266.55 -134.45 267.55 -134.45 262.55 -134.95 257.05 -55.45 256.05 24.05 254.55 24.55 260.05 24.55 265.05" fill="#6f6f6f" fill-rule="evenodd" stroke="none"/>
    <path d="M4.55 394.05 L-112.95 394.05 -112.95 377.55 4.55 377.55 4.55 394.05" fill="#6f6f6f" fill-rule="evenodd" stroke="none"/>
    <path d="M99.05 -544.45 L99.05 -496.95 67.55 -496.95 67.55 -544.45 99.05 -544.45" fill="#fcfcff" fill-rule="evenodd" stroke="none"/>
    <path d="M-173.95 -396.95 L-141.45 -396.95 -141.45 -306.45 -208.95 -306.45 -208.95 -383.95 -178.45 -383.95 -178.45 -336.45 -173.95 -336.45 -173.95 -396.95" fill="#fcfcff" fill-rule="evenodd" stroke="none"/>
    <path d="M-215.45 -601.95 L-223.45 -601.95 -223.45 -610.45 -215.45 -610.45 -215.45 -601.95" fill="#fcfcff" fill-rule="evenodd" stroke="none"/>
  </g>
</svg>
