<?xml version="1.0" encoding="UTF-8" standalone="no"?>
<svg xmlns:ffdec="https://www.free-decompiler.com/flash" xmlns:xlink="http://www.w3.org/1999/xlink" ffdec:objectType="shape" height="1186.0px" width="1291.5px" xmlns="http://www.w3.org/2000/svg">
  <g transform="matrix(1.0, 0.0, 0.0, 1.0, 537.95, 864.95)">
    <path d="M241.05 -503.45 L241.05 -299.45 106.55 -299.45 106.55 300.55 -221.45 300.55 -221.45 302.05 -227.45 302.05 -227.45 295.55 -227.95 295.55 -227.95 -164.95 -329.95 -164.95 -329.95 -633.45 108.05 -633.45 108.05 -503.45 241.05 -503.45" fill="#424242" fill-rule="evenodd" stroke="none"/>
    <path d="M-294.45 204.55 L-296.45 194.05 Q-294.45 189.55 -292.95 184.55 L-284.95 177.55 -274.45 175.55 -264.95 179.05 -257.95 187.05 Q-256.95 192.55 -256.45 197.55 -257.95 202.55 -259.95 207.05 -263.45 210.55 -267.45 214.05 L-277.95 215.55 -287.45 212.05 -294.45 204.55" fill="#424242" fill-rule="evenodd" stroke="none"/>
    <path d="M-294.95 153.05 L-296.95 142.55 Q-294.95 138.05 -293.45 133.05 L-285.45 126.05 -274.95 124.05 -265.45 127.55 -258.45 135.55 Q-257.45 141.05 -256.95 146.05 -258.45 151.05 -260.45 155.55 L-267.95 162.55 -278.45 164.05 -287.95 160.55 -294.95 153.05" fill="#424242" fill-rule="evenodd" stroke="none"/>
    <path d="M753.55 -416.95 L753.55 -223.95 332.55 -223.95 332.55 -416.95 753.55 -416.95" fill="#424242" fill-rule="evenodd" stroke="none"/>
    <path d="M-414.95 -347.95 L-414.95 -373.95 -409.95 -373.95 -409.95 183.05 -411.45 183.05 -411.45 184.05 -537.95 184.05 -537.95 -364.95 -528.95 -364.95 -528.95 -347.95 -414.95 -347.95" fill="#424242" fill-rule="evenodd" stroke="none"/>
    <path d="M-107.45 -864.95 L-107.45 -854.95 -67.95 -854.95 -67.95 -822.45 -57.95 -822.45 -57.95 -802.95 -67.95 -802.95 -67.95 -798.95 -91.95 -798.95 -91.95 -791.95 -112.95 -791.95 -112.95 -798.95 -131.45 -798.95 -131.45 -791.95 -152.45 -791.95 -152.45 -798.95 -192.45 -798.95 -192.45 -854.95 -137.95 -854.95 -137.95 -864.95 -107.45 -864.95" fill="#424242" fill-rule="evenodd" stroke="none"/>
    <path d="M-395.45 313.05 Q-394.95 296.55 -394.95 279.55 -367.45 280.55 -339.95 281.05 L-339.95 276.05 -334.95 276.05 -334.95 281.05 -331.95 281.05 Q-330.95 286.55 -330.45 291.55 -330.45 299.05 -330.95 306.05 L-332.95 314.55 -335.95 314.55 -335.95 319.05 -340.95 318.55 -340.95 314.55 -375.45 313.55 -375.45 321.05 Q-384.45 321.05 -393.95 320.55 -393.45 317.05 -393.45 313.05 L-395.45 313.05" fill="#424242" fill-rule="evenodd" stroke="none"/>
    <path d="M437.55 237.05 L440.55 234.05 444.05 237.55 441.05 240.55 464.05 266.05 469.55 261.05 481.55 274.55 476.55 279.55 477.55 281.05 Q465.55 292.55 453.05 303.55 L416.05 263.05 Q414.55 265.05 412.55 266.55 L409.05 263.05 413.05 259.55 411.05 257.05 417.05 249.05 427.55 239.05 Q431.55 237.05 435.55 234.55 L437.55 237.05" fill="#424242" fill-rule="evenodd" stroke="none"/>
    <path d="M730.05 28.55 L725.05 33.55 726.05 35.05 Q714.05 46.55 701.55 57.55 L664.55 17.05 Q663.05 19.05 661.05 20.55 L657.55 16.55 661.55 13.05 659.55 11.05 665.55 3.05 676.05 -6.95 684.05 -11.45 686.05 -9.45 Q687.55 -10.45 689.05 -11.95 L692.55 -8.45 689.55 -5.45 712.55 20.05 718.05 15.05 730.05 28.55" fill="#424242" fill-rule="evenodd" stroke="none"/>
    <path d="M20.05 -334.95 L20.05 -402.45 55.05 -402.45 55.05 -334.95 20.05 -334.95" fill="#ffffff" fill-rule="evenodd" stroke="none"/>
    <path d="M-177.45 -333.45 L-177.45 -402.45 -141.45 -402.45 -141.45 -333.45 -177.45 -333.45" fill="#ffffff" fill-rule="evenodd" stroke="none"/>
    <path d="M55.05 -400.95 L-177.45 -400.95 -177.45 -434.95 55.05 -434.95 55.05 -400.95" fill="#959595" fill-rule="evenodd" stroke="none"/>
  </g>
</svg>
