<?xml version="1.0" encoding="UTF-8" standalone="no"?>
<svg xmlns:ffdec="https://www.free-decompiler.com/flash" xmlns:xlink="http://www.w3.org/1999/xlink" ffdec:objectType="shape" height="1000.0px" width="954.65px" xmlns="http://www.w3.org/2000/svg">
  <g transform="matrix(1.0, 0.0, 0.0, 1.0, 203.5, 666.55)">
    <path d="M751.15 -666.55 L751.15 333.45 -203.5 333.45 -203.5 -70.1 -125.75 -70.1 -127.75 -550.25 197.0 -550.25 197.0 -666.55 751.15 -666.55" fill="#434343" fill-rule="evenodd" stroke="none"/>
    <path d="M-169.25 264.8 L-169.25 270.7 -139.5 270.7 -139.5 264.8 -169.25 264.8 M-87.35 180.1 L-82.9 185.35 -79.7 190.8 -77.2 197.05 -75.45 203.9 -74.6 211.05 -74.6 218.4 -75.45 225.55 -77.2 232.4 -79.7 238.65 -82.9 244.1 -87.35 249.35 -82.0 253.85 -77.15 248.15 -73.4 241.75 -70.5 234.55 -68.55 226.85 -67.6 218.8 -67.6 210.65 -68.55 202.6 -70.5 194.9 -73.4 187.7 -77.15 181.3 -82.0 175.6 -87.35 180.1 M-169.25 158.5 L-169.25 164.35 -139.5 164.35 -139.5 158.5 -169.25 158.5 M-186.15 160.4 L-175.4 160.4 -175.4 156.0 -132.9 156.0 -132.9 147.15 -72.95 147.15 -72.95 155.5 -75.15 161.25 -78.65 166.75 -82.9 172.25 -82.95 173.25 -82.05 173.8 -77.95 177.7 -74.3 182.7 -71.25 188.7 -68.9 195.45 -67.25 202.75 -66.45 210.45 -66.45 218.25 -67.25 225.95 -68.9 233.25 -71.25 240.0 -74.3 246.0 -77.95 251.0 -82.05 254.9 -84.1 256.15 -84.15 257.9 -83.0 258.75 -91.4 265.0 -97.6 268.8 -104.5 271.8 -114.25 274.3 -112.6 281.15 -102.25 278.45 -94.55 275.15 -87.6 270.9 -78.2 263.85 -75.05 269.75 -73.15 276.5 -73.15 296.5 -77.15 296.5 -77.15 298.25 -89.4 298.25 -89.4 296.5 -133.15 296.5 -133.15 272.75 -175.4 272.75 -175.4 268.5 -186.15 268.5 -186.15 160.4" fill="#707070" fill-rule="evenodd" stroke="none"/>
    <path d="M123.7 118.85 L123.1 117.35 121.95 116.15 120.4 115.55 118.75 115.55 117.25 116.15 116.1 117.35 115.45 118.85 115.45 120.5 116.1 122.05 117.25 123.2 118.75 123.8 120.4 123.8 121.95 123.2 123.1 122.05 123.7 120.5 123.7 118.85 M544.15 217.05 L542.35 217.05 542.35 261.75 544.15 261.75 544.15 217.05 M402.9 193.0 L379.65 193.0 379.65 195.15 380.85 195.15 380.85 197.1 467.95 197.1 467.95 195.15 468.8 195.15 468.8 193.0 414.4 193.0 414.4 182.55 410.55 182.55 410.55 179.85 406.3 179.85 406.3 182.55 402.9 182.55 402.9 193.0 M406.6 42.2 L412.9 42.2 412.9 28.75 276.3 28.75 276.3 23.0 272.4 23.0 272.4 28.5 253.65 28.5 253.65 31.65 269.55 31.65 269.55 76.35 263.65 76.35 263.65 80.85 269.55 80.85 269.55 87.7 276.05 87.7 276.05 81.8 321.15 81.8 321.15 84.55 325.05 84.55 325.05 81.65 344.05 81.65 344.05 79.5 346.95 79.5 346.95 78.0 347.15 78.0 347.15 76.3 275.45 76.3 275.45 33.15 363.6 33.15 363.6 76.3 360.5 76.3 360.5 78.0 360.75 78.0 360.75 79.5 363.65 79.5 363.65 81.65 412.9 81.65 412.9 63.0 406.6 63.0 406.6 42.2 M568.05 195.15 L568.05 196.8 603.7 196.8 603.7 195.15 604.85 195.15 604.85 194.5 587.9 194.5 587.9 176.25 585.65 176.25 585.65 193.0 581.35 193.0 581.35 182.55 570.1 182.55 570.1 193.0 567.25 193.0 567.25 195.15 568.05 195.15 M535.75 152.1 L535.75 154.8 585.65 154.8 585.65 162.75 587.9 162.75 587.9 154.25 614.4 154.25 614.4 151.85 570.9 151.85 570.9 141.6 566.05 141.6 566.05 152.1 535.75 152.1 M519.25 195.15 L519.25 196.8 542.35 196.8 542.35 202.65 544.15 202.65 544.15 196.8 553.7 196.8 553.7 195.15 555.1 195.15 555.1 193.0 518.3 193.0 518.3 195.15 519.25 195.15 M504.1 182.55 L493.15 182.55 493.15 193.0 480.9 193.0 480.9 195.15 482.0 195.15 482.0 197.1 491.9 197.1 491.9 199.75 495.6 199.75 495.6 196.8 505.2 196.8 505.2 195.15 506.2 195.15 506.2 193.0 504.1 193.0 504.1 182.55 M557.75 109.05 L557.75 112.0 566.05 112.0 566.05 122.15 570.9 122.15 570.9 113.8 579.15 113.8 579.15 101.6 570.9 101.6 570.9 97.9 566.25 97.9 566.25 109.05 557.75 109.05 M502.05 87.85 L495.1 87.85 495.1 101.75 493.65 101.75 493.65 103.75 479.8 103.75 479.8 106.25 465.65 106.25 465.65 103.75 448.65 103.75 448.65 38.5 449.05 38.5 449.05 21.75 443.05 21.75 443.05 116.5 435.25 116.5 435.25 119.65 443.15 119.65 443.15 151.9 395.25 151.9 395.25 119.65 421.25 119.65 421.25 116.5 412.9 116.5 412.9 104.4 403.4 104.4 403.4 116.4 381.75 116.4 381.75 118.05 367.4 118.05 367.4 116.4 325.05 116.4 325.05 98.75 321.15 98.75 321.15 104.5 315.65 104.5 315.65 113.6 276.05 113.6 276.05 101.55 269.55 101.55 269.55 145.25 262.15 145.25 262.15 153.45 261.3 153.45 261.3 154.75 406.3 154.75 406.3 161.05 410.55 161.05 410.55 154.8 516.95 154.8 516.95 152.1 501.8 152.1 501.8 112.0 542.9 112.0 542.9 109.05 502.05 109.05 502.05 87.85 M677.8 -157.15 L669.65 -157.15 669.65 -157.1 669.05 -157.1 669.05 -144.35 669.65 -144.35 669.65 -144.15 677.8 -144.15 677.8 -157.15 M579.15 -4.75 L570.9 -4.75 570.9 -1.75 529.75 -1.75 529.75 1.75 565.75 1.75 565.75 39.05 566.25 39.05 566.25 83.05 570.9 83.05 570.9 7.85 579.15 7.85 579.15 -4.75 M502.05 -35.6 L498.5 -35.6 498.5 -12.55 489.4 -12.55 489.4 -9.3 486.7 -9.3 486.7 -6.0 493.4 -6.0 493.4 8.0 495.25 8.0 495.25 16.75 502.05 16.75 502.05 7.9 502.55 7.9 502.55 1.75 514.75 1.75 514.75 -1.75 502.05 -1.75 502.05 -35.6 M444.1 -342.15 L442.7 -344.85 435.9 -341.05 429.55 -336.25 424.0 -330.6 419.3 -324.25 415.6 -317.25 412.95 -309.75 411.35 -302.0 410.9 -294.05 411.65 -286.2 413.45 -278.5 416.4 -271.1 420.35 -264.25 425.25 -258.0 431.0 -252.55 437.45 -248.0 443.85 -244.6 445.2 -247.3 439.05 -250.55 435.95 -252.6 430.15 -257.35 425.05 -262.85 420.85 -269.05 417.6 -275.8 416.35 -279.35 414.6 -286.65 414.1 -290.35 414.0 -297.85 414.95 -305.25 416.95 -312.5 419.95 -319.35 423.95 -325.7 428.8 -331.4 434.4 -336.35 437.5 -338.5 444.1 -342.15 M512.4 -324.15 L507.75 -330.55 502.2 -336.2 499.1 -338.7 492.5 -343.05 488.95 -344.85 487.6 -342.15 494.2 -338.5 500.15 -334.0 502.9 -331.4 507.75 -325.7 511.7 -319.35 514.75 -312.5 516.75 -305.25 517.7 -297.85 517.55 -290.35 516.35 -282.95 514.05 -275.8 510.8 -269.05 506.6 -262.85 501.55 -257.35 498.75 -254.85 492.6 -250.55 486.6 -247.45 487.85 -244.75 494.1 -247.95 500.6 -252.5 503.55 -255.1 508.9 -260.95 513.35 -267.5 516.85 -274.65 519.25 -282.2 520.05 -286.1 520.75 -294.05 520.35 -301.9 518.75 -309.65 516.1 -317.15 512.4 -324.15 M276.15 -13.0 L276.15 -33.25 272.4 -33.25 272.4 1.9 276.3 1.9 276.3 -6.4 315.75 -6.4 315.75 5.75 324.75 5.75 324.75 -6.4 403.4 -6.4 403.4 5.75 412.9 5.75 412.9 -6.25 443.05 -6.25 443.05 7.55 449.05 7.55 449.05 -6.0 472.05 -6.0 472.05 -9.3 469.3 -9.3 469.3 -12.55 412.8 -12.55 412.8 -32.25 408.3 -32.25 408.3 -12.5 318.55 -12.5 318.55 -42.1 314.65 -42.1 314.65 -13.0 305.15 -13.0 305.15 -11.25 291.05 -11.25 291.05 -13.0 276.15 -13.0 M217.8 -12.8 L213.0 -12.8 213.0 -8.15 214.65 -8.15 214.65 7.35 213.0 7.35 213.0 11.75 214.65 11.75 214.65 27.25 213.0 27.25 213.0 32.65 189.75 32.65 189.75 30.0 184.75 27.25 180.05 23.65 174.35 28.5 178.55 32.6 184.55 36.35 189.0 38.2 194.4 39.35 189.45 41.2 184.75 46.75 190.35 49.5 195.85 47.15 202.0 45.15 215.85 35.5 215.85 44.55 219.05 44.55 219.05 31.65 239.8 31.65 239.8 28.5 217.8 28.5 217.8 -12.8 M173.85 -99.55 L171.95 -99.95 170.05 -99.55 168.5 -98.4 167.5 -96.7 167.3 -94.8 167.9 -92.95 169.2 -91.5 170.95 -90.7 172.9 -90.7 174.7 -91.5 175.95 -92.95 176.55 -94.8 176.35 -96.7 175.4 -98.4 173.85 -99.55 M260.65 -161.0 L260.3 -159.0 260.25 -158.1 262.65 -156.95 259.15 -152.85 253.65 -148.0 247.35 -143.5 240.85 -140.2 233.15 -137.35 232.9 -137.3 230.55 -136.4 227.0 -135.75 227.0 -135.8 226.5 -135.7 215.35 -157.5 214.0 -158.85 216.5 -160.5 213.15 -165.95 201.0 -156.5 203.85 -151.5 206.65 -153.2 212.0 -144.2 208.65 -143.0 213.85 -136.9 212.8 -134.85 211.45 -129.95 210.95 -124.95 211.45 -119.9 212.8 -115.05 215.05 -110.55 218.1 -106.5 221.85 -103.1 222.95 -102.4 222.6 -92.35 222.65 -92.15 222.65 -89.5 224.85 -89.5 224.75 -78.35 222.0 -59.7 219.15 -50.2 213.35 -37.85 199.5 -46.35 190.0 -48.7 187.25 -44.95 189.5 -41.0 194.4 -39.25 187.4 -37.25 179.45 -32.6 176.0 -29.35 174.35 -26.8 180.05 -21.9 185.35 -26.7 189.75 -29.2 189.75 -31.5 213.0 -31.5 213.0 -27.6 217.8 -27.6 217.8 -30.9 224.55 -43.75 228.95 -57.95 231.4 -70.6 272.4 -70.6 272.4 -54.4 276.15 -54.4 276.15 -72.25 291.3 -72.25 291.3 -73.7 291.45 -73.7 291.45 -74.8 289.8 -74.8 289.8 -76.3 228.8 -76.3 228.8 -131.3 309.3 -131.3 309.3 -76.3 306.5 -76.3 306.5 -74.8 305.05 -74.8 305.05 -73.7 305.25 -73.7 305.25 -72.25 314.65 -72.25 314.65 -56.25 319.05 -56.25 319.05 -74.75 325.05 -74.75 325.05 -86.25 335.8 -86.25 335.8 -89.1 352.8 -89.1 352.8 -86.25 373.9 -86.25 373.9 -89.1 390.9 -89.1 390.9 -86.25 403.55 -86.25 403.55 -74.75 408.0 -74.75 408.0 -62.1 412.8 -62.1 412.8 -71.75 476.55 -71.75 476.55 -74.0 468.3 -74.0 468.3 -84.0 442.8 -84.0 442.8 -112.25 455.8 -112.25 455.8 -115.15 443.15 -115.15 443.15 -140.5 454.9 -140.5 454.9 -160.95 448.95 -160.95 449.05 -201.35 454.4 -201.35 454.4 -202.75 455.4 -202.75 455.4 -203.2 433.2 -203.2 433.2 -214.65 440.05 -214.65 440.05 -216.35 435.85 -216.85 427.65 -219.7 418.7 -225.1 410.45 -231.5 403.1 -238.85 396.7 -247.1 391.35 -256.05 387.1 -265.6 384.1 -275.55 382.8 -283.1 379.0 -283.3 381.15 -273.25 384.4 -263.45 388.85 -254.0 394.4 -245.1 400.9 -236.9 408.35 -229.45 416.55 -222.95 424.1 -218.25 422.9 -207.45 420.6 -197.0 418.3 -188.7 415.6 -181.9 413.95 -183.55 409.45 -179.05 409.1 -179.2 414.6 -173.7 414.95 -170.15 413.9 -164.5 412.45 -160.25 410.35 -156.7 408.75 -158.3 402.9 -152.45 411.35 -144.4 396.85 -129.9 388.45 -138.0 382.45 -132.05 384.05 -130.45 380.55 -128.3 376.3 -126.9 370.65 -125.85 367.1 -126.2 361.6 -131.7 357.25 -126.85 358.9 -125.2 352.05 -122.5 328.5 -117.2 320.6 -116.75 317.65 -123.35 304.15 -139.2 295.15 -146.35 284.85 -152.7 269.35 -158.5 260.65 -161.0 M53.9 -103.75 L52.35 -104.85 50.45 -105.25 48.55 -104.85 47.0 -103.75 46.0 -102.05 45.8 -100.1 46.4 -98.3 47.7 -96.85 49.45 -96.05 51.4 -96.05 53.2 -96.85 54.45 -98.3 55.05 -100.1 54.85 -102.05 53.9 -103.75 M142.4 -138.4 L144.2 -139.15 145.45 -140.6 146.05 -142.45 145.85 -144.4 144.9 -146.05 143.35 -147.2 141.45 -147.6 139.55 -147.2 138.0 -146.05 137.0 -144.4 136.8 -142.45 137.4 -140.6 138.7 -139.15 140.45 -138.4 142.4 -138.4 M86.85 -149.35 L84.95 -149.75 83.05 -149.35 81.5 -148.25 80.5 -146.55 80.3 -144.6 80.9 -142.8 82.2 -141.35 83.95 -140.55 85.9 -140.55 87.7 -141.35 88.95 -142.8 89.55 -144.6 89.35 -146.55 88.4 -148.25 86.85 -149.35 M2.15 -332.2 L0.1 -336.15 -7.1 -333.45 -14.8 -331.45 -13.85 -327.15 -5.65 -329.25 2.15 -332.2 M41.65 -376.55 L43.75 -384.75 39.45 -385.7 37.45 -378.0 34.75 -370.8 38.7 -368.75 41.65 -376.55 M174.0 -264.35 L168.65 -273.2 160.85 -283.35 148.35 -294.5 138.0 -301.0 138.5 -310.7 142.35 -326.2 145.85 -336.0 147.65 -335.85 152.45 -342.0 146.95 -347.75 147.7 -354.15 149.1 -360.0 150.7 -362.4 152.7 -360.75 159.0 -367.15 153.8 -372.3 147.65 -366.0 149.0 -364.5 145.15 -360.85 141.15 -364.7 115.65 -339.15 120.6 -334.2 119.7 -321.3 116.95 -308.8 112.5 -297.1 106.5 -286.45 99.0 -276.95 94.3 -272.2 84.75 -264.7 74.1 -258.7 62.4 -254.3 49.9 -251.5 37.35 -250.45 36.85 -249.75 31.35 -254.35 6.85 -229.5 40.35 -196.0 35.7 -191.9 44.85 -179.75 48.6 -183.0 47.2 -185.75 66.6 -196.4 68.4 -193.25 76.65 -196.75 87.85 -200.0 89.2 -200.0 90.1 -198.85 93.85 -195.45 98.15 -192.75 102.85 -190.95 107.8 -190.0 112.85 -190.0 117.8 -190.95 122.55 -192.75 126.85 -195.45 130.55 -198.85 131.3 -199.8 132.6 -199.75 144.9 -196.75 154.15 -193.0 156.15 -195.75 174.4 -186.0 173.65 -182.75 177.35 -180.25 186.5 -191.85 181.6 -195.4 179.1 -194.0 156.25 -205.6 157.85 -212.5 162.05 -222.35 167.15 -231.25 174.25 -238.95 177.75 -241.95 179.0 -237.2 181.75 -237.7 180.35 -246.75 179.15 -250.95 174.0 -264.35 M266.8 -328.6 L272.15 -323.7 276.5 -317.95 279.75 -311.45 280.35 -309.4 279.85 -309.0 276.1 -286.5 253.1 -263.0 230.35 -261.75 229.95 -260.6 225.75 -262.25 219.6 -266.05 214.25 -270.9 209.9 -276.7 206.7 -283.15 204.7 -290.1 204.05 -297.3 204.7 -304.55 205.55 -308.75 202.6 -309.35 201.75 -305.1 201.0 -297.3 201.75 -289.55 203.85 -282.05 207.35 -275.1 212.05 -268.9 217.8 -263.65 224.4 -259.55 229.0 -257.75 228.6 -256.5 215.45 -257.75 215.35 -253.15 225.35 -252.85 235.65 -250.0 245.3 -245.35 254.0 -239.05 261.4 -231.3 267.3 -222.35 271.5 -212.5 273.9 -202.05 274.2 -195.05 274.35 -195.25 278.1 -195.25 276.85 -207.5 278.6 -208.7 279.0 -207.3 282.45 -200.3 287.15 -194.1 292.9 -188.85 299.55 -184.75 306.8 -181.95 314.45 -180.5 322.15 -180.5 328.1 -181.05 330.8 -181.7 330.1 -184.6 327.7 -184.0 322.0 -183.5 314.7 -183.5 307.6 -184.85 300.85 -187.45 294.7 -191.25 289.4 -196.15 285.0 -201.9 281.8 -208.35 281.35 -209.95 285.45 -211.65 285.75 -211.7 285.35 -212.75 289.6 -241.25 303.75 -252.45 329.9 -259.55 330.15 -259.8 335.8 -257.6 341.95 -253.8 347.3 -248.9 351.65 -243.15 354.85 -236.7 356.85 -229.7 357.5 -222.5 356.85 -215.25 356.0 -211.05 358.95 -210.5 359.8 -214.75 360.55 -222.5 359.8 -230.3 357.7 -237.75 354.2 -244.75 349.5 -250.95 343.75 -256.2 337.15 -260.3 332.35 -262.15 334.5 -264.35 343.95 -262.95 344.5 -265.65 341.0 -265.8 333.7 -267.05 326.65 -269.2 319.9 -272.15 313.55 -275.95 307.75 -280.5 302.5 -285.7 298.0 -291.5 294.2 -297.85 291.2 -304.6 289.1 -311.65 287.85 -318.95 287.4 -325.0 283.1 -325.5 284.85 -312.85 282.9 -311.35 282.55 -312.55 279.1 -319.55 274.4 -325.75 268.65 -331.0 262.0 -335.1 254.75 -337.9 247.1 -339.35 239.45 -339.35 233.45 -338.8 230.7 -338.15 231.45 -335.25 233.85 -335.85 239.5 -336.35 246.85 -336.35 253.95 -335.0 260.7 -332.4 266.8 -328.6 M339.9 -399.3 L333.05 -396.3 325.85 -394.3 318.4 -393.35 310.9 -393.5 303.5 -394.7 296.35 -396.95 289.6 -400.25 283.4 -404.45 277.9 -409.5 273.15 -415.3 271.1 -418.4 267.85 -424.55 265.2 -423.2 268.5 -416.9 273.05 -410.45 278.5 -404.7 284.7 -399.75 291.6 -395.8 295.2 -394.2 302.75 -391.8 306.65 -391.0 314.6 -390.3 322.45 -390.7 330.25 -392.25 334.0 -393.45 341.25 -396.65 348.0 -400.85 354.05 -405.95 359.3 -411.9 361.55 -415.15 365.4 -422.1 362.75 -423.45 359.1 -416.85 354.55 -410.85 349.2 -405.6 346.25 -403.3 339.9 -399.3 M337.8 -495.4 L330.35 -498.1 322.55 -499.65 314.6 -500.1 306.75 -499.4 299.05 -497.55 291.7 -494.65 284.8 -490.7 278.6 -485.8 273.1 -480.05 268.55 -473.55 265.3 -467.25 268.0 -465.95 271.1 -471.95 275.4 -478.1 280.55 -483.55 286.45 -488.15 292.95 -491.9 299.9 -494.7 307.2 -496.45 314.65 -497.1 322.15 -496.7 329.5 -495.2 333.05 -494.1 339.9 -491.05 343.15 -489.2 349.2 -484.75 354.55 -479.5 359.1 -473.55 362.75 -466.95 365.4 -468.3 361.6 -475.15 359.35 -478.4 354.1 -484.35 348.05 -489.5 344.8 -491.7 337.8 -495.4 M598.5 -626.2 L606.9 -626.2 606.9 -629.5 628.9 -629.5 628.9 -626.2 661.9 -626.2 661.9 -591.45 672.55 -591.45 672.55 -606.25 677.4 -606.25 677.4 -618.5 723.4 -618.5 723.4 -585.5 725.15 -585.5 725.15 -570.5 723.4 -570.5 723.4 -513.25 725.4 -513.25 725.4 -491.0 723.4 -491.0 723.4 -428.5 725.4 -428.5 725.4 -406.25 723.4 -406.25 723.4 -345.5 725.55 -345.5 725.55 -330.95 723.4 -330.95 723.4 -304.0 725.55 -304.0 725.55 -289.45 723.4 -289.45 723.4 -272.45 702.25 -272.45 702.25 -269.6 711.25 -269.6 711.25 -237.45 667.55 -237.45 667.55 -233.45 669.65 -233.45 669.65 -222.65 677.05 -222.65 677.05 -233.6 701.75 -233.6 701.75 -213.75 704.75 -213.75 704.75 -172.95 702.05 -172.95 702.05 -96.4 649.15 -95.4 649.15 -104.4 645.8 -104.4 645.8 -88.15 634.9 -88.15 634.9 -85.65 658.9 -85.65 658.9 57.4 660.7 57.4 660.7 7.25 667.55 7.25 667.55 -4.25 662.0 -4.25 662.0 -46.75 664.15 -46.75 664.3 -85.0 710.65 -85.0 710.65 -55.75 713.4 -55.75 713.4 -33.75 710.65 -33.75 710.65 78.25 709.4 78.25 709.4 81.05 666.3 81.05 666.3 78.25 663.85 78.25 663.85 75.9 660.7 75.9 660.7 74.05 658.9 74.05 658.9 151.85 635.35 151.85 635.35 154.25 646.65 154.25 646.65 194.5 623.65 194.5 623.65 195.15 624.8 195.15 624.8 196.8 645.15 196.8 645.15 197.05 656.05 197.05 656.05 221.4 659.75 221.4 659.75 236.05 656.05 236.05 656.05 245.55 645.15 245.55 645.15 293.5 580.4 293.5 580.4 283.25 570.9 283.25 570.9 293.5 544.15 293.5 544.15 276.05 542.4 276.05 542.4 293.5 500.4 293.5 500.4 283.25 495.6 283.25 495.6 213.75 491.9 213.75 491.9 283.5 358.05 283.5 358.05 279.5 354.55 279.5 354.55 265.5 358.05 265.5 358.05 219.75 354.4 219.75 354.4 205.75 358.05 205.75 358.05 197.1 366.8 197.1 366.8 195.15 367.55 195.15 367.55 193.0 324.15 193.0 324.15 182.55 312.8 182.55 312.8 193.0 302.8 193.0 302.8 195.05 290.65 195.05 290.65 193.0 263.15 193.0 263.15 195.05 244.3 195.05 244.3 193.0 234.05 193.0 234.05 182.55 222.75 182.55 222.75 193.0 204.9 193.0 204.9 181.25 202.4 181.25 202.4 168.25 205.0 168.25 205.0 154.75 236.9 154.75 236.9 153.45 236.15 153.45 236.15 145.25 228.8 145.25 228.8 113.6 232.4 113.6 232.4 101.6 228.4 101.6 228.4 80.85 237.65 80.85 237.65 76.35 219.05 76.35 219.05 58.6 215.85 58.6 215.85 72.0 210.15 74.25 204.4 81.0 196.6 105.5 194.1 145.5 166.85 179.5 109.35 207.75 103.85 220.5 97.35 228.5 89.35 220.05 86.1 223.0 79.85 216.0 17.75 153.35 20.2 151.3 11.65 143.5 4.15 139.0 -60.1 118.35 -64.2 118.0 -67.45 119.25 -68.85 122.15 -69.45 124.8 -69.45 136.5 -72.95 136.5 -72.95 145.3 -132.9 145.3 -132.9 136.5 -136.4 136.5 -136.15 116.3 -134.8 107.8 -132.4 99.5 -129.0 91.55 -124.6 84.05 -119.35 77.15 -113.25 70.95 -110.5 68.8 -115.1 62.75 -130.85 76.75 -142.3 65.2 -144.35 67.25 -156.35 55.5 -154.35 53.0 -166.1 41.25 -161.1 33.45 -157.1 22.25 -154.55 10.65 -153.4 -1.15 -153.55 -6.3 -158.6 -6.3 -158.6 -9.5 -160.0 -9.5 -160.0 -23.5 -158.6 -23.5 -158.6 -27.75 -153.75 -27.75 -153.75 -33.0 -148.35 -33.0 -148.35 -30.5 -81.6 -30.5 -81.6 -33.0 -76.6 -33.0 -76.9 -1.15 -75.8 10.65 -73.25 22.25 -69.25 33.45 -65.5 40.8 -58.3 37.15 -58.95 36.15 -62.85 28.45 -65.75 20.3 -67.6 11.85 -68.4 3.25 -68.15 -5.35 -66.8 -13.9 -64.4 -22.2 -57.0 -38.35 -48.35 -48.85 -37.65 -57.0 -31.05 -60.65 -23.1 -64.25 -14.75 -66.9 -6.15 -68.45 2.55 -69.0 11.3 -68.45 16.95 -67.4 19.15 -75.5 -3.1 -76.75 -3.85 -89.5 -0.25 -91.0 -1.35 -102.35 -0.95 -103.25 -0.15 -103.7 3.55 -107.15 6.6 -111.15 8.85 -115.7 10.25 -120.55 10.7 -125.55 10.25 -130.6 8.85 -135.45 8.7 -135.8 12.0 -142.7 9.35 -144.5 15.25 -153.7 17.85 -152.0 20.85 -156.5 8.85 -166.0 4.85 -161.0 -32.55 -197.65 -34.3 -196.0 -49.9 -213.75 -54.65 -224.0 -56.65 -231.25 -57.65 -241.75 -57.15 -249.5 -54.65 -257.25 -51.5 -263.5 -46.15 -271.5 -37.85 -280.2 -35.85 -279.0 -34.85 -278.85 -14.85 -280.7 -2.65 -282.35 17.15 -290.0 7.35 -300.2 4.9 -297.75 -6.4 -292.0 -41.9 -288.75 -55.9 -293.5 -60.4 -298.0 -61.85 -296.5 -75.75 -310.45 -74.3 -311.9 -82.75 -320.4 -69.35 -333.8 -62.6 -331.1 -59.65 -333.25 -60.65 -335.65 -66.65 -338.15 -74.45 -342.85 -85.9 -351.85 -98.6 -364.25 -102.0 -378.1 -104.6 -386.8 -106.15 -395.75 -106.55 -404.85 -105.85 -413.9 -104.05 -422.8 -101.15 -431.4 -97.25 -439.6 -92.35 -447.25 -86.55 -454.25 -79.9 -460.45 -72.55 -465.85 -64.65 -470.25 -56.2 -473.65 -47.45 -476.0 -38.45 -477.25 -29.35 -477.4 -20.35 -476.45 -11.5 -474.35 -5.95 -472.3 8.6 -465.25 19.6 -455.6 25.4 -449.05 30.55 -441.6 34.75 -433.5 35.4 -431.7 38.4 -429.75 40.0 -431.85 36.75 -439.9 50.15 -453.3 58.65 -444.85 60.35 -446.4 74.25 -432.5 72.55 -430.9 77.0 -426.45 81.35 -409.0 81.35 -387.5 76.85 -372.25 72.5 -365.35 71.0 -363.85 80.85 -354.0 84.5 -364.4 87.85 -376.7 90.0 -389.5 91.35 -406.65 88.85 -408.7 97.15 -415.35 108.85 -423.7 117.15 -426.85 126.65 -428.7 136.15 -428.35 144.65 -426.2 155.35 -421.2 169.35 -410.5 178.5 -401.5 176.85 -399.7 180.65 -396.2 176.35 -391.85 174.75 -393.6 168.2 -386.9 173.4 -381.75 179.85 -388.25 178.2 -390.4 187.35 -393.75 193.45 -394.15 199.45 -388.0 204.85 -393.5 203.95 -395.25 209.4 -397.6 217.7 -399.9 228.15 -402.2 238.95 -403.4 243.65 -395.85 250.15 -387.65 257.6 -380.2 265.8 -373.7 274.7 -368.15 284.15 -363.7 294.35 -360.7 303.5 -358.85 303.8 -362.15 296.2 -363.45 286.2 -366.5 276.65 -370.7 267.7 -376.05 259.5 -382.45 252.1 -389.85 245.7 -398.05 240.35 -407.0 236.15 -416.15 234.85 -416.15 234.85 -412.6 223.8 -412.6 223.8 -434.25 221.7 -434.25 221.4 -433.4 218.8 -428.6 215.45 -424.4 211.35 -420.8 206.7 -418.05 201.65 -416.1 196.3 -415.15 190.9 -415.15 185.55 -416.1 180.45 -418.05 175.8 -420.8 171.75 -424.4 168.35 -428.6 165.8 -433.4 165.5 -434.25 163.85 -434.25 163.85 -430.75 107.35 -430.75 107.35 -515.5 163.85 -515.5 163.85 -456.5 165.65 -456.5 166.95 -459.6 169.95 -464.15 173.7 -468.05 178.1 -471.25 182.95 -473.6 183.4 -473.7 183.4 -475.5 205.4 -475.5 205.4 -473.0 209.1 -471.25 213.5 -468.05 217.25 -464.15 220.2 -459.6 221.55 -456.5 223.8 -456.5 223.8 -478.0 234.85 -478.0 234.85 -474.0 236.6 -474.0 241.6 -487.15 247.2 -495.95 253.9 -503.95 261.5 -511.1 269.9 -517.25 279.0 -522.3 288.7 -526.25 298.75 -528.95 298.85 -529.8 295.05 -529.8 295.05 -538.05 309.0 -538.05 309.0 -541.35 299.35 -541.35 299.35 -545.2 294.35 -545.2 294.35 -575.2 298.85 -575.2 298.85 -579.2 293.15 -579.2 293.15 -645.2 299.35 -645.2 299.35 -649.0 334.3 -649.0 334.3 -645.2 335.85 -645.2 335.85 -647.0 353.5 -647.0 353.5 -632.0 335.85 -632.0 335.85 -633.4 334.3 -633.4 334.3 -629.55 335.85 -629.55 335.85 -631.0 353.5 -631.0 353.5 -614.5 335.85 -614.5 335.85 -615.9 334.3 -615.9 334.3 -612.05 335.85 -612.05 335.85 -613.5 353.5 -613.5 353.5 -597.15 335.85 -597.15 335.85 -598.55 334.3 -598.55 334.3 -594.75 335.85 -594.75 335.85 -596.15 353.5 -596.15 353.5 -579.2 335.85 -579.2 335.85 -580.9 334.3 -580.9 334.3 -579.2 333.35 -579.2 333.35 -575.2 339.35 -575.2 339.35 -545.2 332.85 -545.2 332.85 -541.35 322.85 -541.35 322.85 -538.05 336.6 -538.05 336.6 -529.1 332.65 -529.1 332.7 -527.9 339.3 -526.35 349.1 -522.7 368.95 -512.0 375.6 -504.2 377.5 -506.2 375.0 -511.9 385.65 -511.9 385.65 -514.2 400.0 -514.2 400.0 -511.9 408.1 -512.0 414.85 -505.25 436.6 -520.25 464.35 -530.5 489.1 -529.25 512.35 -522.5 530.1 -511.0 544.1 -494.25 549.1 -473.75 551.85 -438.2 542.85 -418.85 523.15 -396.5 532.15 -388.5 532.25 -378.9 534.7 -378.9 534.7 -365.5 532.25 -365.5 532.25 -351.1 527.1 -356.3 525.3 -354.55 525.75 -354.15 532.65 -346.35 538.55 -337.75 543.35 -328.45 546.95 -318.7 548.65 -312.5 550.05 -312.5 550.05 -317.0 559.5 -317.0 559.5 -302.1 562.0 -302.1 562.0 -312.1 565.95 -312.1 565.95 -318.6 595.45 -318.6 595.45 -312.1 599.55 -312.1 599.55 -313.25 601.5 -313.25 601.5 -314.8 599.55 -314.8 599.55 -332.8 616.75 -332.8 616.75 -314.8 615.3 -314.8 615.3 -313.25 619.15 -313.25 619.15 -314.8 617.75 -314.8 617.75 -332.8 634.0 -332.8 634.0 -314.8 632.55 -314.8 632.55 -313.25 636.4 -313.25 636.4 -314.8 635.0 -314.8 635.0 -332.8 651.35 -332.8 651.35 -314.8 649.95 -314.8 649.95 -313.25 653.75 -313.25 653.75 -314.8 652.35 -314.8 652.35 -332.8 667.55 -332.8 667.55 -314.8 666.05 -314.8 666.05 -313.25 669.9 -313.25 669.9 -278.6 666.05 -278.6 666.05 -272.45 600.05 -272.45 600.05 -278.6 595.45 -278.6 595.45 -273.6 565.95 -273.6 565.95 -278.6 562.0 -278.6 562.0 -288.3 559.5 -288.3 559.5 -273.95 550.05 -273.95 550.05 -277.85 548.65 -277.85 546.9 -268.05 542.95 -258.35 537.9 -249.25 531.75 -240.85 524.6 -233.25 516.55 -226.6 507.8 -220.95 498.35 -217.0 494.65 -216.35 494.65 -214.65 499.6 -214.65 499.6 -203.2 476.0 -203.2 476.0 -201.35 501.65 -201.35 501.65 -193.15 503.55 -193.15 503.55 -173.15 501.65 -173.15 501.65 -152.45 496.75 -152.45 496.75 -140.5 508.4 -140.5 508.4 -115.15 486.8 -115.15 486.8 -112.25 498.8 -112.25 498.8 -107.0 500.4 -107.0 500.4 -92.75 498.8 -92.75 498.8 -86.35 496.4 -86.35 496.4 -74.0 490.75 -74.0 490.75 -71.75 498.5 -71.75 498.5 -60.35 501.05 -60.35 501.05 -75.65 503.9 -75.65 503.9 -84.7 571.4 -84.7 571.4 -75.65 579.15 -75.65 579.15 -85.65 603.8 -85.65 603.8 -88.15 589.6 -88.15 589.6 -96.5 586.8 -96.5 586.8 -118.15 589.6 -118.15 589.6 -123.2 645.8 -123.2 645.8 -118.2 649.15 -118.2 649.15 -126.4 595.95 -125.7 595.95 -187.95 594.75 -187.95 594.75 -209.1 595.95 -209.1 595.95 -233.45 633.1 -233.45 633.1 -237.45 612.25 -237.45 612.25 -246.25 610.4 -246.25 610.4 -260.25 612.25 -260.25 612.25 -269.6 681.1 -269.6 681.1 -272.45 671.05 -272.45 671.05 -298.25 675.4 -298.25 675.4 -310.75 671.0 -310.75 671.0 -327.95 669.0 -327.95 669.0 -350.2 672.55 -350.2 672.55 -375.25 677.4 -375.25 677.4 -387.25 672.55 -387.25 672.55 -454.5 677.4 -454.5 677.4 -464.75 672.55 -464.75 672.55 -529.25 677.4 -529.25 677.4 -541.75 672.55 -541.75 672.55 -565.25 661.9 -565.25 661.9 -557.5 653.15 -557.5 653.15 -555.0 631.4 -555.0 631.4 -557.5 598.5 -557.5 598.5 -626.2" fill="#969696" fill-rule="evenodd" stroke="none"/>
    <path d="M165.0 -10.35 L166.6 -14.9 168.75 -19.25 171.4 -23.3 174.35 -26.8 180.05 -21.9 175.25 -15.5 173.5 -12.0 171.4 -4.5 171.05 -0.5 171.4 6.2 173.5 13.75 177.4 20.5 180.05 23.65 174.35 28.5 171.4 25.0 168.75 21.0 166.6 16.65 165.0 12.1 163.95 7.35 163.55 2.45 163.95 -5.6 165.0 -10.35" fill="#707070" fill-rule="evenodd" stroke="none"/>
    <path d="M134.95 -19.4 L139.2 -27.25 145.45 -22.75 141.7 -15.75 138.9 -7.8 138.05 -4.0 137.7 2.75 138.05 6.7 138.9 10.55 141.9 17.75 145.45 23.1 138.95 27.85 133.25 17.15 131.65 12.6 130.65 7.85 130.2 -0.55 130.65 -5.1 131.65 -9.85 134.95 -19.4" fill="#707070" fill-rule="evenodd" stroke="none"/>
    <path d="M-26.6 -29.1 L-22.8 -32.15 -18.65 -34.7 -14.2 -36.75 -9.55 -38.25 -4.8 -39.15 0.1 -39.45 4.95 -39.15 9.75 -38.25 14.4 -36.75 18.8 -34.7 22.95 -32.15 26.75 -29.1 30.15 -25.6 33.1 -21.7 35.55 -17.5 37.45 -13.0 38.75 -8.3 39.5 -3.5 39.65 1.4 39.2 6.25 38.15 11.0 36.55 15.6 34.35 19.95 31.7 24.0 28.5 27.7 24.9 31.0 20.95 33.8 16.65 36.1 12.1 37.9 7.35 39.05 2.55 39.65 -2.35 39.65 -7.2 39.05 -11.9 37.9 -16.45 36.1 -20.75 33.8 -24.75 31.0 -28.35 27.7 -31.5 24.0 -34.2 19.95 -36.35 15.6 -38.0 11.0 -39.05 6.25 -39.5 1.4 -39.35 -3.5 -38.6 -8.3 -37.25 -13.0 -35.35 -17.5 -32.9 -21.7 -29.95 -25.6 -26.6 -29.1" fill="#707070" fill-rule="evenodd" stroke="none"/>
    <path d="M137.0 -88.75 L135.95 -82.25 133.55 -76.6 128.65 -79.05 130.7 -83.9 131.5 -88.95 131.0 -94.0 129.35 -98.8 126.5 -103.05 124.75 -104.85 120.6 -107.8 115.85 -109.65 110.8 -110.25 105.75 -109.65 101.0 -107.8 96.85 -104.85 95.1 -103.05 92.25 -98.8 91.25 -96.45 90.2 -91.5 90.1 -88.95 90.9 -83.9 92.95 -79.05 88.0 -76.6 85.55 -82.55 84.6 -88.75 85.25 -95.35 87.4 -101.4 89.05 -104.2 93.25 -109.05 98.55 -112.75 104.55 -115.0 110.8 -115.8 117.35 -114.95 120.4 -113.95 126.05 -110.85 130.8 -106.5 134.35 -101.1 136.45 -95.0 137.0 -88.75" fill="#707070" fill-rule="evenodd" stroke="none"/>
    <path d="M60.1 -47.45 L64.1 -42.2 68.8 -34.0 72.5 -25.25 75.1 -16.15 76.55 -6.8 76.85 2.7 76.0 12.15 73.95 21.4 70.8 30.35 66.6 38.8 61.35 46.7 55.2 53.9 48.15 60.3 40.45 65.8 32.1 70.25 23.25 73.7 14.05 76.0 4.65 77.15 -4.85 77.15 -14.25 76.0 -16.45 75.45 -16.45 75.35 -17.7 75.0 -15.35 66.45 -13.25 67.05 -13.5 67.95 -12.8 68.15 -4.35 69.15 4.15 69.15 12.55 68.15 20.8 66.05 28.75 63.0 Q32.5 61.0 36.2 58.95 L43.15 54.05 49.4 48.35 54.95 41.9 59.65 34.8 63.45 27.2 66.25 19.2 68.05 10.9 68.85 2.45 68.6 -6.05 67.3 -14.45 64.95 -22.6 61.65 -30.45 57.4 -37.8 53.75 -42.65 60.1 -47.45" fill="#707070" fill-rule="evenodd" stroke="none"/>
    <path d="M-95.65 -6.2 L-95.65 3.0 -135.4 3.0 -135.4 -6.2 -95.65 -6.2" fill="#707070" fill-rule="evenodd" stroke="none"/>
    <path d="M144.7 -154.4 L144.7 -148.15 138.2 -148.15 138.2 -154.4 144.7 -154.4" fill="#707070" fill-rule="evenodd" stroke="none"/>
    <path d="M113.35 -190.1 L113.35 -182.9 106.85 -182.9 106.85 -190.2 107.8 -190.0 112.85 -190.0 113.35 -190.1" fill="#707070" fill-rule="evenodd" stroke="none"/>
    <path d="M121.65 -184.9 L115.4 -183.25 113.55 -190.15 117.8 -190.95 119.85 -191.75 121.65 -184.9" fill="#707070" fill-rule="evenodd" stroke="none"/>
    <path d="M129.15 -188.95 L123.55 -185.7 120.0 -191.8 122.55 -192.75 125.8 -194.8 129.15 -188.95" fill="#707070" fill-rule="evenodd" stroke="none"/>
    <path d="M130.95 -189.95 L126.0 -194.9 126.85 -195.45 130.55 -198.85 130.85 -199.25 135.55 -194.55 130.95 -189.95" fill="#707070" fill-rule="evenodd" stroke="none"/>
    <path d="M105.0 -183.25 L98.7 -184.9 100.55 -191.85 102.85 -190.95 106.85 -190.2 105.0 -183.25" fill="#707070" fill-rule="evenodd" stroke="none"/>
    <path d="M94.65 -194.95 L98.15 -192.75 100.4 -191.9 96.8 -185.7 91.2 -188.95 94.65 -194.95" fill="#707070" fill-rule="evenodd" stroke="none"/>
    <path d="M93.85 -195.45 L94.5 -195.05 89.4 -189.95 84.8 -194.55 89.65 -199.4 90.1 -198.85 93.85 -195.45" fill="#707070" fill-rule="evenodd" stroke="none"/>
    <path d="M8.4 -114.75 L8.85 -115.7 10.25 -120.55 10.25 -120.85 16.55 -119.15 14.85 -112.95 8.4 -114.75" fill="#707070" fill-rule="evenodd" stroke="none"/>
    <path d="M10.3 -121.2 L10.7 -125.55 10.5 -127.6 16.8 -127.55 16.75 -121.15 10.3 -121.2" fill="#707070" fill-rule="evenodd" stroke="none"/>
    <path d="M10.5 -127.95 L10.25 -130.6 9.2 -134.2 14.95 -135.7 16.55 -129.5 10.5 -127.95" fill="#707070" fill-rule="evenodd" stroke="none"/>
    <path d="M5.1 -109.15 L6.6 -111.15 8.35 -114.65 14.05 -111.3 10.8 -105.75 5.1 -109.15" fill="#707070" fill-rule="evenodd" stroke="none"/>
    <path d="M3.55 -107.15 L4.9 -108.9 9.55 -104.2 5.0 -99.7 0.5 -104.3 3.55 -107.15" fill="#707070" fill-rule="evenodd" stroke="none"/>
    <path d="M211.45 -119.9 L212.8 -115.05 213.0 -114.65 207.0 -112.95 205.3 -119.15 211.35 -120.8 211.45 -119.9" fill="#707070" fill-rule="evenodd" stroke="none"/>
    <path d="M205.05 -121.15 L205.0 -127.55 211.2 -127.6 210.95 -124.95 211.3 -121.2 205.05 -121.15" fill="#707070" fill-rule="evenodd" stroke="none"/>
    <path d="M205.25 -129.5 L206.85 -135.7 212.65 -134.2 211.45 -129.95 211.25 -127.95 205.25 -129.5" fill="#707070" fill-rule="evenodd" stroke="none"/>
    <path d="M207.8 -111.3 L213.15 -114.4 215.05 -110.55 216.3 -108.9 211.05 -105.75 207.8 -111.3" fill="#707070" fill-rule="evenodd" stroke="none"/>
    <path d="M216.55 -108.55 L218.1 -106.5 220.95 -103.9 216.85 -99.7 212.3 -104.2 216.55 -108.55" fill="#707070" fill-rule="evenodd" stroke="none"/>
    <path d="M153.65 -143.8 L147.85 -141.45 145.4 -147.5 151.2 -149.85 153.65 -143.8" fill="#707070" fill-rule="evenodd" stroke="none"/>
    <path d="M150.9 -135.55 L145.75 -131.6 141.95 -136.6 147.15 -140.5 150.9 -135.55" fill="#707070" fill-rule="evenodd" stroke="none"/>
    <path d="M137.5 -147.5 L135.05 -141.45 129.25 -143.8 131.7 -149.85 137.5 -147.5" fill="#707070" fill-rule="evenodd" stroke="none"/>
    <path d="M135.75 -140.5 L140.95 -136.6 137.2 -131.6 132.0 -135.55 135.75 -140.5" fill="#707070" fill-rule="evenodd" stroke="none"/>
    <path d="M81.85 -156.75 L88.35 -156.75 88.35 -150.5 81.85 -150.5 81.85 -156.75" fill="#707070" fill-rule="evenodd" stroke="none"/>
    <path d="M91.5 -143.8 L89.1 -149.85 94.85 -152.15 97.3 -146.15 91.5 -143.8" fill="#707070" fill-rule="evenodd" stroke="none"/>
    <path d="M89.4 -133.95 L85.65 -138.95 90.8 -142.85 94.6 -137.85 89.4 -133.95" fill="#707070" fill-rule="evenodd" stroke="none"/>
    <path d="M72.95 -146.15 L75.35 -152.15 81.15 -149.85 78.75 -143.8 72.95 -146.15" fill="#707070" fill-rule="evenodd" stroke="none"/>
    <path d="M79.45 -142.85 L84.6 -138.95 80.85 -133.95 75.65 -137.85 79.45 -142.85" fill="#707070" fill-rule="evenodd" stroke="none"/>
    <path d="M174.85 -106.4 L174.85 -100.15 168.35 -100.15 168.35 -106.4 174.85 -106.4" fill="#707070" fill-rule="evenodd" stroke="none"/>
    <path d="M183.8 -95.8 L178.0 -93.45 175.6 -99.5 181.35 -101.85 183.8 -95.8" fill="#707070" fill-rule="evenodd" stroke="none"/>
    <path d="M181.1 -87.55 L175.9 -83.6 172.15 -88.6 177.3 -92.5 181.1 -87.55" fill="#707070" fill-rule="evenodd" stroke="none"/>
    <path d="M167.65 -99.5 L165.25 -93.45 159.45 -95.8 161.85 -101.85 167.65 -99.5" fill="#707070" fill-rule="evenodd" stroke="none"/>
    <path d="M171.1 -88.6 L167.35 -83.6 162.15 -87.55 165.95 -92.5 171.1 -88.6" fill="#707070" fill-rule="evenodd" stroke="none"/>
    <path d="M53.85 -112.25 L53.85 -106.0 47.35 -106.0 47.35 -112.25 53.85 -112.25" fill="#707070" fill-rule="evenodd" stroke="none"/>
    <path d="M62.8 -101.65 L57.0 -99.3 54.6 -105.35 60.35 -107.65 62.8 -101.65" fill="#707070" fill-rule="evenodd" stroke="none"/>
    <path d="M56.3 -98.35 L60.1 -93.35 54.9 -89.45 51.15 -94.45 56.3 -98.35" fill="#707070" fill-rule="evenodd" stroke="none"/>
    <path d="M40.85 -107.65 L46.65 -105.35 44.25 -99.3 38.45 -101.65 40.85 -107.65" fill="#707070" fill-rule="evenodd" stroke="none"/>
    <path d="M50.1 -94.45 L46.35 -89.45 41.15 -93.35 44.95 -98.35 50.1 -94.45" fill="#707070" fill-rule="evenodd" stroke="none"/>
    <path d="M131.35 99.95 L127.7 98.2 123.85 97.1 119.85 96.75 115.85 97.15 111.95 98.2 108.35 99.95 105.1 102.3 102.35 105.2 100.1 108.55 98.55 112.25 97.65 116.2 97.45 120.2 98.0 124.2 99.25 128.0 101.15 131.55 103.65 134.7 106.7 137.3 110.15 139.4 113.9 140.8 117.85 141.5 121.9 141.5 125.85 140.75 129.6 139.35 133.05 137.3 136.05 134.65 138.55 131.5 140.45 127.95 141.7 124.15 142.25 120.15 142.05 116.15 141.15 112.25 139.6 108.55 137.35 105.2 134.6 102.3 131.35 99.95 M114.0 88.1 L119.8 87.6 125.6 88.1 131.2 89.65 136.4 92.15 141.1 95.55 145.15 99.75 148.35 104.6 150.6 109.95 151.9 115.6 152.2 121.4 151.4 127.15 149.6 132.7 146.85 137.8 143.25 142.35 138.9 146.15 133.9 149.15 128.45 151.2 122.75 152.25 116.95 152.25 111.25 151.2 105.8 149.2 100.8 146.2 96.4 142.4 92.8 137.85 90.05 132.75 88.25 127.2 87.45 121.45 87.7 115.65 89.0 110.0 91.25 104.65 94.45 99.8 98.5 95.6 103.2 92.2 108.4 89.65 114.0 88.1" fill="#707070" fill-rule="evenodd" stroke="none"/>
    <path d="M121.95 116.15 L120.4 115.55 118.75 115.55 117.25 116.15 116.1 117.35 115.45 118.85 115.45 120.5 116.1 122.05 117.25 123.2 118.75 123.8 120.4 123.8 121.95 123.2 123.1 122.05 123.7 120.5 123.7 118.85 123.1 117.35 121.95 116.15 M114.05 111.05 L117.65 109.55 121.55 109.55 125.15 111.05 127.9 113.8 129.4 117.4 129.4 121.3 127.9 124.9 125.15 127.65 121.55 129.15 117.65 129.15 114.05 127.65 111.25 124.9 109.8 121.3 109.8 117.4 111.25 113.8 114.05 111.05" fill="#707070" fill-rule="evenodd" stroke="none"/>
    <path d="M103.2 -101.5 L118.3 -101.5 118.3 -98.15 126.6 -98.15 126.6 -96.4 94.85 -96.4 94.85 -98.15 103.2 -98.15 103.2 -101.5" fill="#707070" fill-rule="evenodd" stroke="none"/>
    <path d="M179.75 -42.0 L180.45 -50.3 190.0 -48.7 189.5 -41.0 179.75 -42.0" fill="#707070" fill-rule="evenodd" stroke="none"/>
    <path d="M180.15 41.95 L189.45 41.2 190.35 49.5 180.8 50.25 180.15 41.95" fill="#707070" fill-rule="evenodd" stroke="none"/>
    <path d="M328.7 -425.85 L336.25 -433.4 352.65 -417.0 343.15 -407.5 337.75 -412.95 338.15 -416.4 328.7 -425.85" fill="#707070" fill-rule="evenodd" stroke="none"/>
    <path d="M297.85 -476.85 L307.3 -467.4 299.75 -459.85 283.35 -476.25 292.85 -485.75 298.25 -480.35 297.85 -476.85" fill="#707070" fill-rule="evenodd" stroke="none"/>
    <path d="M488.65 -266.9 L479.2 -276.35 486.75 -283.9 503.15 -267.5 493.65 -258.0 488.25 -263.45 488.65 -266.9" fill="#707070" fill-rule="evenodd" stroke="none"/>
    <path d="M443.35 -336.25 L448.75 -330.85 448.35 -327.35 457.8 -317.9 450.25 -310.35 433.85 -326.75 443.35 -336.25" fill="#707070" fill-rule="evenodd" stroke="none"/>
    <path d="M453.05 -480.95 L443.6 -471.5 436.05 -479.05 452.45 -495.45 461.95 -485.95 456.55 -480.55 453.05 -480.95" fill="#707070" fill-rule="evenodd" stroke="none"/>
    <path d="M490.2 -424.0 L495.65 -429.4 499.1 -429.0 508.6 -438.45 516.1 -430.9 499.7 -414.5 490.2 -424.0" fill="#707070" fill-rule="evenodd" stroke="none"/>
    <path d="M22.6 -418.5 L19.55 -421.55 31.65 -433.7 34.75 -430.65 22.6 -418.5" fill="#707070" fill-rule="evenodd" stroke="none"/>
    <path d="M-59.8 -336.0 L-62.85 -339.1 -50.75 -351.25 -47.65 -348.15 -59.8 -336.0" fill="#707070" fill-rule="evenodd" stroke="none"/>
    <path d="M1.75 -398.2 L-27.35 -369.1 -30.45 -372.15 -1.3 -401.25 1.75 -398.2" fill="#707070" fill-rule="evenodd" stroke="none"/>
    <path d="M-42.45 -384.85 L-47.25 -389.65 -18.15 -418.75 -13.35 -413.95 -42.45 -384.85" fill="#707070" fill-rule="evenodd" stroke="none"/>
    <path d="M-67.4 -409.45 L-38.25 -438.55 -33.25 -433.55 -62.35 -404.45 -67.4 -409.45" fill="#707070" fill-rule="evenodd" stroke="none"/>
    <path d="M-7.5 -468.65 L-2.75 -463.9 -17.9 -448.75 -22.65 -453.5 -7.5 -468.65" fill="#707070" fill-rule="evenodd" stroke="none"/>
    <path d="M5.45 -433.7 L0.7 -438.45 15.85 -453.6 20.6 -448.85 5.45 -433.7" fill="#707070" fill-rule="evenodd" stroke="none"/>
    <path d="M-67.05 -370.85 L-62.3 -366.1 -77.45 -350.95 -82.2 -355.7 -67.05 -370.85" fill="#707070" fill-rule="evenodd" stroke="none"/>
    <path d="M-77.55 -389.15 L-92.7 -374.0 -97.45 -378.75 -82.3 -393.85 -77.55 -389.15" fill="#707070" fill-rule="evenodd" stroke="none"/>
    <path d="M43.75 -384.75 L39.45 -385.7 40.6 -390.45 41.25 -395.5 47.2 -394.75 46.5 -389.2 43.15 -376.05 40.2 -368.25 34.55 -358.8 29.5 -362.05 34.75 -370.8 38.7 -368.75 41.65 -376.55 43.75 -384.75" fill="#707070" fill-rule="evenodd" stroke="none"/>
    <path d="M36.75 -439.2 L38.0 -440.45 43.3 -428.25 43.85 -426.3 38.05 -424.65 37.55 -426.5 35.65 -431.25 39.4 -432.75 36.75 -439.2" fill="#707070" fill-rule="evenodd" stroke="none"/>
    <path d="M0.1 -336.15 L8.85 -341.4 12.1 -336.35 2.65 -330.7 -5.15 -327.75 -18.3 -324.45 -23.85 -323.7 -24.6 -329.65 -19.55 -330.3 -14.8 -331.45 -13.85 -327.15 -5.65 -329.25 2.15 -332.2 0.1 -336.15" fill="#707070" fill-rule="evenodd" stroke="none"/>
    <path d="M-70.1 -332.35 L-69.05 -333.4 -62.3 -330.65 -60.35 -335.25 -55.6 -333.35 -53.75 -332.85 -55.4 -327.05 -62.85 -329.45 -70.1 -332.35" fill="#707070" fill-rule="evenodd" stroke="none"/>
    <path d="M468.2 -422.05 L469.35 -419.2 469.7 -416.15 469.15 -413.25 467.8 -410.65 465.7 -408.55 463.1 -407.2 460.2 -406.65 457.15 -407.0 454.3 -408.15 451.8 -410.05 456.65 -414.9 458.45 -415.0 461.25 -417.8 461.25 -419.5 466.3 -424.55 468.2 -422.05" fill="#707070" fill-rule="evenodd" stroke="none"/>
    <path d="M511.5 -469.6 L513.25 -469.65 516.1 -472.5 516.1 -474.15 521.15 -479.2 523.05 -476.75 524.2 -473.85 524.5 -470.85 524.0 -467.9 522.6 -465.3 520.55 -463.25 517.95 -461.85 515.0 -461.35 512.0 -461.65 509.1 -462.8 506.65 -464.7 511.5 -469.6" fill="#707070" fill-rule="evenodd" stroke="none"/>
    <path d="M440.35 -448.35 L443.2 -447.2 445.7 -445.3 440.8 -440.45 439.05 -440.35 436.2 -437.5 436.25 -435.85 431.15 -430.8 429.25 -433.25 428.1 -436.15 427.8 -439.15 428.35 -442.1 429.7 -444.7 431.75 -446.8 434.35 -448.15 437.3 -448.7 440.35 -448.35" fill="#707070" fill-rule="evenodd" stroke="none"/>
    <path d="M340.4 -473.95 L340.5 -472.15 343.35 -469.35 345.0 -469.35 350.05 -464.3 347.6 -462.4 344.7 -461.25 341.7 -460.9 338.75 -461.45 336.15 -462.8 334.05 -464.9 332.7 -467.5 332.15 -470.4 332.5 -473.45 333.65 -476.3 335.55 -478.8 340.4 -473.95" fill="#707070" fill-rule="evenodd" stroke="none"/>
    <path d="M296.45 -428.05 L298.55 -425.95 299.9 -423.35 300.45 -420.4 300.1 -417.4 298.95 -414.5 297.05 -412.05 292.2 -416.9 292.1 -418.7 289.25 -421.5 287.6 -421.5 282.55 -426.55 285.05 -428.45 287.9 -429.6 290.95 -429.95 293.85 -429.4 296.45 -428.05" fill="#707070" fill-rule="evenodd" stroke="none"/>
    <path d="M490.9 -324.45 L491.0 -322.65 493.85 -319.85 495.5 -319.85 500.55 -314.8 498.1 -312.9 495.2 -311.75 492.2 -311.4 489.25 -311.95 486.65 -313.3 484.55 -315.4 483.2 -318.0 482.65 -320.9 483.0 -323.95 484.15 -326.8 486.05 -329.3 490.9 -324.45" fill="#707070" fill-rule="evenodd" stroke="none"/>
    <path d="M433.05 -277.05 L435.55 -278.95 438.4 -280.1 441.45 -280.45 444.35 -279.9 446.95 -278.55 449.05 -276.45 450.4 -273.85 450.95 -270.9 450.6 -267.9 449.45 -265.0 447.55 -262.55 442.7 -267.4 442.6 -269.2 439.75 -272.0 438.1 -272.0 433.05 -277.05" fill="#707070" fill-rule="evenodd" stroke="none"/>
    <path d="M495.35 -503.05 L498.2 -501.85 500.7 -500.0 495.8 -495.1 494.05 -495.0 491.2 -492.2 491.25 -490.5 486.15 -485.45 484.25 -487.95 483.1 -490.8 482.8 -493.85 483.35 -496.75 484.7 -499.4 486.75 -501.45 489.35 -502.8 492.3 -503.35 495.35 -503.05" fill="#707070" fill-rule="evenodd" stroke="none"/>
    <path d="M341.75 -575.2 L341.75 -545.2 334.35 -545.2 334.35 -575.2 341.75 -575.2" fill="#707070" fill-rule="evenodd" stroke="none"/>
    <path d="M297.25 -575.2 L297.25 -545.2 292.0 -545.2 292.0 -575.2 297.25 -575.2" fill="#707070" fill-rule="evenodd" stroke="none"/>
    <path d="M296.4 -641.5 L296.4 -636.85 293.15 -636.85 293.15 -641.5 296.4 -641.5" fill="#707070" fill-rule="evenodd" stroke="none"/>
    <path d="M296.4 -631.15 L296.4 -626.65 293.15 -626.65 293.15 -631.15 296.4 -631.15" fill="#707070" fill-rule="evenodd" stroke="none"/>
    <path d="M296.4 -621.25 L296.4 -616.8 293.15 -616.8 293.15 -621.25 296.4 -621.25" fill="#707070" fill-rule="evenodd" stroke="none"/>
    <path d="M296.4 -610.9 L296.4 -606.4 293.15 -606.4 293.15 -610.9 296.4 -610.9" fill="#707070" fill-rule="evenodd" stroke="none"/>
    <path d="M296.4 -601.0 L296.4 -596.55 293.15 -596.55 293.15 -601.0 296.4 -601.0" fill="#707070" fill-rule="evenodd" stroke="none"/>
    <path d="M296.4 -590.65 L296.4 -586.15 293.15 -586.15 293.15 -590.65 296.4 -590.65" fill="#707070" fill-rule="evenodd" stroke="none"/>
    <path d="M346.75 -641.4 L347.5 -641.95 348.45 -642.25 349.8 -642.25 350.7 -641.9 350.7 -642.25 353.5 -642.25 353.5 -637.55 350.7 -637.55 350.7 -637.9 349.8 -637.55 348.45 -637.55 347.5 -637.85 346.75 -638.35 346.3 -639.05 346.3 -640.7 346.75 -641.4" fill="#707070" fill-rule="evenodd" stroke="none"/>
    <path d="M346.75 -623.85 L347.5 -624.4 348.45 -624.7 349.8 -624.7 350.7 -624.35 350.7 -624.7 353.5 -624.7 353.5 -620.0 350.7 -620.0 350.7 -620.3 349.8 -620.0 348.45 -620.0 347.5 -620.3 346.75 -620.8 346.3 -621.5 346.3 -623.15 346.75 -623.85" fill="#707070" fill-rule="evenodd" stroke="none"/>
    <path d="M346.3 -604.45 L346.3 -606.1 346.75 -606.8 347.5 -607.35 348.45 -607.65 349.8 -607.65 350.7 -607.3 350.7 -607.65 353.5 -607.65 353.5 -602.95 350.7 -602.95 350.7 -603.25 349.8 -602.95 348.45 -602.95 347.5 -603.2 346.75 -603.75 346.3 -604.45" fill="#707070" fill-rule="evenodd" stroke="none"/>
    <path d="M346.3 -586.9 L346.3 -588.55 346.75 -589.25 347.5 -589.8 348.45 -590.05 349.8 -590.05 350.7 -589.75 350.7 -590.1 353.5 -590.1 353.5 -585.35 350.7 -585.35 350.7 -585.7 349.8 -585.4 348.45 -585.4 347.5 -585.65 346.75 -586.2 346.3 -586.9" fill="#707070" fill-rule="evenodd" stroke="none"/>
    <path d="M458.15 -537.85 L468.5 -539.45 478.9 -539.7 488.55 -538.75 492.65 -537.85 491.95 -535.15 499.25 -533.3 506.85 -529.95 508.15 -533.0 518.4 -528.05 527.0 -522.15 534.85 -515.25 541.75 -507.45 547.65 -498.85 552.4 -490.1 553.5 -487.1 550.75 -486.1 553.7 -478.85 555.25 -471.1 558.15 -471.6 559.35 -466.6 559.4 -448.85 557.95 -438.5 555.25 -428.45 551.35 -418.75 546.25 -409.65 545.65 -408.35 543.25 -410.25 539.5 -404.85 532.75 -397.45 527.6 -393.2 530.1 -390.5 524.35 -386.0 515.6 -381.75 510.15 -392.45 521.95 -400.1 531.4 -409.25 539.05 -420.05 544.55 -432.0 547.75 -444.8 548.55 -457.95 546.9 -471.05 542.9 -483.6 536.65 -495.2 528.4 -505.5 518.35 -514.05 506.95 -520.65 494.5 -525.0 481.5 -527.05 468.3 -526.6 455.45 -523.8 443.3 -518.65 432.3 -511.35 422.85 -502.15 416.15 -494.35 413.15 -488.85 402.6 -495.0 404.85 -500.0 411.35 -509.3 413.1 -507.5 424.4 -518.1 431.0 -522.65 429.4 -525.0 433.9 -528.45 441.15 -532.25 448.9 -535.35 458.15 -537.85" fill="#707070" fill-rule="evenodd" stroke="none"/>
    <path d="M392.35 -333.4 L391.35 -327.7 385.4 -328.75 386.4 -334.45 392.35 -333.4" fill="#707070" fill-rule="evenodd" stroke="none"/>
    <path d="M393.15 -321.05 L391.9 -326.95 397.55 -328.15 398.8 -322.25 393.15 -321.05" fill="#707070" fill-rule="evenodd" stroke="none"/>
    <path d="M387.0 -317.6 L392.35 -320.3 395.0 -315.15 389.6 -312.4 387.0 -317.6" fill="#707070" fill-rule="evenodd" stroke="none"/>
    <path d="M379.75 -331.3 L384.65 -328.25 381.45 -323.15 376.55 -326.2 379.75 -331.3" fill="#707070" fill-rule="evenodd" stroke="none"/>
    <path d="M381.95 -322.15 L386.05 -317.75 381.8 -313.8 377.7 -318.2 381.95 -322.15" fill="#707070" fill-rule="evenodd" stroke="none"/>
    <path d="M342.65 -371.5 L343.65 -377.2 349.6 -376.15 348.6 -370.45 342.65 -371.5" fill="#707070" fill-rule="evenodd" stroke="none"/>
    <path d="M354.8 -370.9 L356.05 -365.0 350.4 -363.8 349.15 -369.7 354.8 -370.9" fill="#707070" fill-rule="evenodd" stroke="none"/>
    <path d="M344.25 -360.35 L349.6 -363.05 352.25 -357.9 346.85 -355.15 344.25 -360.35" fill="#707070" fill-rule="evenodd" stroke="none"/>
    <path d="M337.0 -374.05 L341.9 -371.0 338.7 -365.9 333.8 -368.95 337.0 -374.05" fill="#707070" fill-rule="evenodd" stroke="none"/>
    <path d="M339.2 -364.9 L343.3 -360.5 339.05 -356.55 334.95 -360.95 339.2 -364.9" fill="#707070" fill-rule="evenodd" stroke="none"/>
    <path d="M565.95 -313.6 L565.95 -321.0 595.45 -321.0 595.45 -313.6 565.95 -313.6" fill="#707070" fill-rule="evenodd" stroke="none"/>
    <path d="M595.45 -276.5 L595.45 -271.25 565.95 -271.25 565.95 -276.5 595.45 -276.5" fill="#707070" fill-rule="evenodd" stroke="none"/>
    <path d="M661.65 -276.65 L661.65 -272.45 657.25 -272.45 657.25 -276.65 661.65 -276.65" fill="#707070" fill-rule="evenodd" stroke="none"/>
    <path d="M651.35 -276.65 L651.35 -272.45 646.95 -272.45 646.95 -276.65 651.35 -276.65" fill="#707070" fill-rule="evenodd" stroke="none"/>
    <path d="M641.55 -276.65 L641.55 -272.45 637.15 -272.45 637.15 -276.65 641.55 -276.65" fill="#707070" fill-rule="evenodd" stroke="none"/>
    <path d="M626.85 -272.45 L626.85 -276.65 631.3 -276.65 631.3 -272.45 626.85 -272.45" fill="#707070" fill-rule="evenodd" stroke="none"/>
    <path d="M616.55 -272.45 L616.55 -276.65 621.0 -276.65 621.0 -272.45 616.55 -272.45" fill="#707070" fill-rule="evenodd" stroke="none"/>
    <path d="M606.8 -272.45 L606.8 -276.65 611.2 -276.65 611.2 -272.45 606.8 -272.45" fill="#707070" fill-rule="evenodd" stroke="none"/>
    <path d="M658.2 -329.05 L658.5 -330.0 658.15 -330.0 658.15 -332.75 662.9 -332.75 662.9 -330.0 662.55 -330.0 662.85 -329.05 662.85 -327.75 662.6 -326.8 662.05 -326.05 661.35 -325.55 659.7 -325.55 659.0 -326.05 658.45 -326.8 658.2 -327.75 658.2 -329.05" fill="#707070" fill-rule="evenodd" stroke="none"/>
    <path d="M640.6 -332.75 L645.3 -332.75 645.3 -330.0 645.0 -330.0 645.3 -329.05 645.3 -327.75 645.05 -326.8 644.5 -326.05 643.8 -325.55 642.15 -325.55 641.45 -326.05 640.9 -326.8 640.6 -327.75 640.6 -329.05 640.95 -330.0 640.6 -330.0 640.6 -332.75" fill="#707070" fill-rule="evenodd" stroke="none"/>
    <path d="M623.05 -332.75 L627.75 -332.75 627.75 -330.0 627.45 -330.0 627.75 -329.05 627.75 -327.75 627.45 -326.8 626.95 -326.05 626.25 -325.55 624.6 -325.55 623.9 -326.05 623.35 -326.8 623.05 -327.75 623.05 -329.05 623.4 -330.0 623.05 -330.0 623.05 -332.75" fill="#707070" fill-rule="evenodd" stroke="none"/>
    <path d="M605.5 -332.75 L610.2 -332.75 610.2 -330.0 609.85 -330.0 610.2 -329.05 610.2 -327.75 609.9 -326.8 609.4 -326.05 608.7 -325.55 607.05 -325.55 606.3 -326.05 605.8 -326.8 605.5 -327.75 605.5 -329.05 605.85 -330.0 605.5 -330.0 605.5 -332.75" fill="#707070" fill-rule="evenodd" stroke="none"/>
    <path d="M410.35 -314.85 L413.75 -322.65 418.3 -329.85 423.8 -336.3 430.15 -341.95 438.65 -347.25 435.1 -354.15 439.55 -356.4 446.8 -342.4 438.0 -337.7 435.0 -335.55 429.5 -330.7 424.75 -325.1 420.85 -318.9 417.9 -312.15 415.9 -305.05 415.0 -297.8 415.1 -290.45 415.55 -287.0 417.3 -279.65 420.0 -272.8 421.75 -269.55 425.85 -263.5 430.8 -258.05 436.5 -253.4 442.8 -249.6 446.2 -248.05 442.95 -240.55 431.9 -246.85 425.3 -252.25 422.35 -255.3 417.05 -261.95 412.8 -269.3 409.65 -277.2 407.7 -285.5 406.9 -293.95 407.0 -298.2 408.05 -306.65 410.35 -314.85 M415.6 -317.25 L412.95 -309.75 411.35 -302.0 410.9 -294.05 411.65 -286.2 413.45 -278.5 416.4 -271.1 420.35 -264.25 425.25 -258.0 428.0 -255.2 434.15 -250.15 443.85 -244.6 445.2 -247.3 439.05 -250.55 432.95 -254.85 430.15 -257.35 425.05 -262.85 420.85 -269.05 419.1 -272.4 416.35 -279.35 414.6 -286.65 413.9 -294.1 414.35 -301.55 414.95 -305.25 416.95 -312.5 418.3 -315.95 421.85 -322.6 426.25 -328.65 431.5 -334.0 437.5 -338.5 444.1 -342.15 442.7 -344.85 435.9 -341.05 429.55 -336.25 424.0 -330.6 419.3 -324.25 415.6 -317.25" fill="#707070" fill-rule="evenodd" stroke="none"/>
    <path d="M495.9 -341.0 L488.95 -344.85 487.6 -342.15 494.2 -338.5 500.15 -334.0 505.4 -328.65 507.75 -325.7 511.7 -319.35 514.75 -312.5 516.75 -305.25 517.35 -301.55 517.75 -294.1 517.05 -286.65 515.35 -279.35 512.55 -272.4 508.8 -265.9 506.6 -262.85 501.55 -257.35 498.75 -254.85 492.6 -250.55 486.6 -247.45 487.85 -244.75 494.1 -247.95 500.6 -252.5 503.55 -255.1 508.9 -260.95 513.35 -267.5 516.85 -274.65 519.25 -282.2 520.55 -290.0 520.75 -294.05 520.35 -301.9 518.75 -309.65 516.1 -317.15 512.4 -324.15 507.75 -330.55 502.2 -336.2 495.9 -341.0 M492.1 -356.5 L496.55 -354.2 493.1 -347.45 501.5 -341.95 507.9 -336.3 513.4 -329.85 517.9 -322.65 521.35 -314.85 523.6 -306.65 524.3 -302.45 524.75 -293.95 524.5 -289.7 523.15 -281.3 520.6 -273.2 518.85 -269.3 514.6 -261.95 509.35 -255.3 503.15 -249.45 499.8 -246.85 493.25 -242.9 488.2 -240.7 486.5 -245.75 485.45 -248.05 492.1 -251.4 498.1 -255.65 503.45 -260.7 508.0 -266.45 509.95 -269.55 513.15 -276.2 514.4 -279.65 516.1 -286.8 516.75 -294.1 516.7 -297.8 516.65 -297.95 515.75 -305.05 513.8 -312.15 510.85 -318.9 504.65 -328.0 499.5 -333.25 493.65 -337.7 484.9 -342.4 492.1 -356.5" fill="#707070" fill-rule="evenodd" stroke="none"/>
    <path d="M365.4 -422.1 L362.75 -423.45 359.1 -416.85 354.55 -410.85 349.2 -405.6 346.25 -403.3 339.9 -399.3 333.05 -396.3 325.85 -394.3 318.4 -393.35 310.9 -393.5 303.5 -394.7 296.35 -396.95 289.6 -400.25 283.4 -404.45 277.9 -409.5 273.15 -415.3 269.25 -421.7 267.85 -424.55 265.2 -423.2 270.65 -413.6 275.65 -407.45 281.5 -402.1 284.7 -399.75 291.6 -395.8 295.2 -394.2 302.75 -391.8 306.65 -391.0 314.6 -390.3 322.45 -390.7 330.25 -392.25 334.0 -393.45 341.25 -396.65 348.0 -400.85 354.05 -405.95 359.3 -411.9 361.55 -415.15 365.4 -422.1 M351.25 -408.85 L356.1 -414.35 358.25 -417.4 363.0 -426.15 Q370.0 -422.5 377.0 -418.9 L374.7 -414.45 367.8 -418.0 362.5 -409.55 356.9 -403.15 350.4 -397.65 343.2 -393.15 335.4 -389.7 327.2 -387.4 318.8 -386.35 310.25 -386.5 301.9 -387.9 293.75 -390.45 289.9 -392.15 282.5 -396.4 275.85 -401.7 272.8 -404.65 267.4 -411.25 261.1 -422.35 268.6 -425.55 271.95 -418.95 278.6 -410.15 284.05 -405.2 290.1 -401.1 293.35 -399.35 300.2 -396.65 303.75 -395.65 311.0 -394.5 314.65 -394.3 322.0 -394.7 325.65 -395.25 332.7 -397.25 336.15 -398.6 342.6 -402.05 345.65 -404.1 351.25 -408.85" fill="#707070" fill-rule="evenodd" stroke="none"/>
    <path d="M348.55 -484.0 L342.6 -488.35 336.15 -491.8 329.2 -494.25 322.0 -495.7 314.65 -496.1 307.35 -495.45 300.2 -493.75 293.35 -491.0 287.0 -487.35 281.25 -482.8 276.2 -477.45 271.95 -471.45 268.6 -464.8 266.3 -465.85 261.25 -467.55 265.1 -475.55 267.4 -479.15 272.8 -485.7 279.1 -491.45 282.5 -493.95 289.9 -498.2 293.75 -499.95 301.9 -502.5 306.05 -503.35 314.5 -504.1 323.0 -503.65 331.35 -501.95 335.4 -500.7 343.2 -497.25 350.4 -492.75 353.75 -490.1 359.8 -484.15 364.95 -477.4 368.0 -472.45 374.8 -475.9 377.05 -471.45 363.0 -464.25 358.25 -473.0 353.8 -478.85 348.55 -484.0 M339.9 -491.05 L343.15 -489.2 349.2 -484.75 354.55 -479.5 359.1 -473.55 362.75 -466.95 365.4 -468.3 363.65 -471.75 359.35 -478.4 354.1 -484.35 348.05 -489.5 344.8 -491.7 337.8 -495.4 334.1 -496.9 326.5 -499.0 318.6 -500.05 310.7 -499.9 302.85 -498.6 295.3 -496.25 291.7 -494.65 284.8 -490.7 278.6 -485.8 273.1 -480.05 268.55 -473.55 265.3 -467.25 268.0 -465.95 271.1 -471.95 275.4 -478.1 280.55 -483.55 286.45 -488.15 292.95 -491.9 299.9 -494.7 303.5 -495.7 310.9 -496.9 318.4 -497.05 325.85 -496.1 333.05 -494.1 339.9 -491.05" fill="#707070" fill-rule="evenodd" stroke="none"/>
    <path d="M300.85 -257.6 L307.6 -260.2 314.7 -261.55 321.95 -261.55 329.05 -260.2 335.8 -257.6 341.95 -253.8 347.3 -248.9 351.65 -243.15 354.85 -236.7 356.85 -229.7 347.0 -227.85 344.85 -234.0 339.5 -241.8 335.6 -245.4 331.1 -248.15 326.15 -250.05 321.0 -251.05 315.7 -251.05 310.5 -250.05 305.55 -248.15 301.1 -245.4 297.15 -241.8 294.0 -237.6 291.65 -232.85 290.2 -227.8 289.7 -222.5 290.2 -217.25 291.65 -212.2 294.0 -207.45 297.15 -203.25 301.1 -199.65 305.65 -196.35 312.65 -193.5 311.1 -184.2 307.6 -184.85 300.85 -187.45 294.7 -191.25 289.4 -196.15 285.0 -201.9 281.8 -208.35 279.8 -215.35 279.15 -222.5 279.8 -229.7 281.8 -236.7 285.0 -243.15 289.4 -248.9 294.7 -253.8 300.85 -257.6" fill="#707070" fill-rule="evenodd" stroke="none"/>
    <path d="M323.0 -242.7 L323.85 -240.9 323.95 -238.9 323.25 -237.0 321.9 -235.5 320.1 -234.65 318.1 -234.55 316.2 -235.25 314.7 -236.6 313.85 -238.4 313.75 -240.4 314.4 -242.3 315.75 -243.8 317.6 -244.65 319.6 -244.75 321.5 -244.05 323.0 -242.7" fill="#707070" fill-rule="evenodd" stroke="none"/>
    <path d="M303.6 -226.3 L305.1 -224.95 305.95 -223.15 306.05 -221.15 305.4 -219.25 304.05 -217.75 302.2 -216.9 300.2 -216.8 298.3 -217.5 296.8 -218.85 295.95 -220.65 295.85 -222.65 296.55 -224.55 297.9 -226.05 299.7 -226.9 301.7 -227.0 303.6 -226.3" fill="#707070" fill-rule="evenodd" stroke="none"/>
    <path d="M321.35 -193.3 L322.85 -191.95 323.7 -190.15 323.8 -188.15 323.15 -186.25 321.8 -184.75 319.95 -183.9 317.95 -183.8 316.05 -184.5 314.55 -185.85 313.7 -187.65 313.6 -189.65 314.3 -191.55 315.65 -193.05 317.45 -193.9 319.45 -194.0 321.35 -193.3" fill="#707070" fill-rule="evenodd" stroke="none"/>
    <path d="M356.35 -223.5 L356.45 -221.5 355.75 -219.6 354.4 -218.15 352.6 -217.25 350.6 -217.2 348.7 -217.85 347.2 -219.2 346.35 -221.0 346.25 -223.05 346.9 -224.95 348.25 -226.4 350.1 -227.25 352.1 -227.35 354.0 -226.7 355.5 -225.35 356.35 -223.5" fill="#707070" fill-rule="evenodd" stroke="none"/>
    <path d="M338.15 -262.35 L345.15 -258.05 351.25 -252.5 356.2 -245.95 359.85 -238.6 362.1 -230.7 362.85 -222.5 362.05 -214.3 361.15 -209.9 356.25 -210.9 356.3 -211.0 358.95 -210.5 359.8 -214.75 360.55 -222.5 359.8 -230.3 357.7 -237.75 354.2 -244.75 349.5 -250.95 343.75 -256.2 337.15 -260.3 332.25 -262.2 333.05 -264.35 338.15 -262.35" fill="#707070" fill-rule="evenodd" stroke="none"/>
    <path d="M330.2 -184.3 L330.25 -184.3 331.45 -179.45 328.7 -178.75 322.3 -178.2 314.25 -178.2 306.15 -179.7 298.5 -182.7 291.5 -187.0 285.45 -192.55 280.5 -199.1 276.85 -206.45 276.15 -208.85 278.35 -209.5 279.0 -207.3 282.45 -200.3 287.15 -194.1 292.9 -188.85 299.55 -184.75 306.8 -181.95 314.45 -180.5 322.15 -180.5 328.1 -181.05 330.8 -181.7 330.2 -184.3" fill="#707070" fill-rule="evenodd" stroke="none"/>
    <path d="M248.9 -326.3 L250.45 -335.65 253.95 -335.0 260.7 -332.4 266.8 -328.6 272.15 -323.7 276.5 -317.95 279.75 -311.45 281.75 -304.5 282.4 -297.3 281.75 -290.1 279.75 -283.15 276.5 -276.7 272.15 -270.9 266.8 -266.05 260.7 -262.25 253.95 -259.65 246.85 -258.3 239.6 -258.3 232.5 -259.65 225.75 -262.25 219.6 -266.05 214.25 -270.9 209.9 -276.7 206.7 -283.15 204.7 -290.1 214.55 -292.0 216.7 -285.8 222.05 -278.0 225.95 -274.45 230.45 -271.7 235.4 -269.75 240.55 -268.8 245.85 -268.8 251.05 -269.75 256.0 -271.7 260.45 -274.45 264.35 -278.0 267.55 -282.25 269.9 -286.95 271.35 -292.05 271.85 -297.3 271.35 -302.6 269.9 -307.65 267.55 -312.4 264.35 -316.6 260.45 -320.15 255.9 -323.5 248.9 -326.3" fill="#707070" fill-rule="evenodd" stroke="none"/>
    <path d="M245.35 -284.6 L246.85 -283.25 247.7 -281.45 247.8 -279.45 247.15 -277.55 245.8 -276.05 243.95 -275.2 241.95 -275.1 240.05 -275.75 238.55 -277.1 237.7 -278.95 237.6 -280.95 238.3 -282.85 239.65 -284.35 241.45 -285.2 243.45 -285.3 245.35 -284.6" fill="#707070" fill-rule="evenodd" stroke="none"/>
    <path d="M263.25 -302.35 L264.75 -301.0 265.6 -299.2 265.7 -297.2 265.0 -295.3 263.65 -293.8 261.85 -292.95 259.85 -292.85 257.95 -293.5 256.45 -294.85 255.6 -296.7 255.5 -298.7 256.15 -300.6 257.5 -302.1 259.35 -302.95 261.35 -303.05 263.25 -302.35" fill="#707070" fill-rule="evenodd" stroke="none"/>
    <path d="M247.0 -334.0 L247.85 -332.2 247.95 -330.2 247.25 -328.3 245.9 -326.8 Q245.0 -326.35 244.1 -325.95 L242.1 -325.85 240.2 -326.5 238.7 -327.85 237.85 -329.7 237.75 -331.7 238.4 -333.6 239.75 -335.1 241.6 -335.95 243.6 -336.05 245.5 -335.35 247.0 -334.0" fill="#707070" fill-rule="evenodd" stroke="none"/>
    <path d="M205.2 -296.3 L205.1 -298.35 205.8 -300.2 207.15 -301.7 208.95 -302.55 210.95 -302.65 212.85 -302.0 214.35 -300.65 215.2 -298.8 215.3 -296.8 214.65 -294.9 213.3 -293.45 211.45 -292.55 209.45 -292.45 207.55 -293.15 206.05 -294.5 205.2 -296.3" fill="#707070" fill-rule="evenodd" stroke="none"/>
    <path d="M200.35 -309.95 L205.25 -308.95 205.25 -308.85 202.6 -309.35 201.75 -305.1 201.0 -297.3 201.75 -289.55 203.85 -282.05 207.35 -275.1 212.05 -268.9 217.8 -263.65 224.4 -259.55 229.3 -257.65 228.5 -255.5 223.35 -257.45 216.4 -261.8 210.3 -267.35 205.35 -273.9 201.7 -281.25 199.45 -289.15 198.7 -297.3 199.5 -305.55 200.35 -309.95" fill="#707070" fill-rule="evenodd" stroke="none"/>
    <path d="M247.1 -339.35 L239.45 -339.35 233.45 -338.8 230.7 -338.15 231.35 -335.55 231.3 -335.55 230.1 -340.4 232.85 -341.1 239.35 -341.65 247.3 -341.65 255.4 -340.15 263.05 -337.15 270.05 -332.85 276.1 -327.3 281.05 -320.75 284.7 -313.4 285.4 -311.0 283.2 -310.35 282.55 -312.55 279.1 -319.55 274.4 -325.75 268.65 -331.0 262.0 -335.1 254.75 -337.9 247.1 -339.35" fill="#707070" fill-rule="evenodd" stroke="none"/>
    <path d="M321.65 -296.4 L317.3 -292.05 312.7 -296.65 317.05 -301.0 321.65 -296.4" fill="#707070" fill-rule="evenodd" stroke="none"/>
    <path d="M315.35 -302.2 L312.25 -296.8 306.65 -300.05 309.75 -305.45 315.35 -302.2" fill="#707070" fill-rule="evenodd" stroke="none"/>
    <path d="M307.85 -306.2 L306.2 -300.05 299.9 -301.75 301.55 -307.9 307.85 -306.2" fill="#707070" fill-rule="evenodd" stroke="none"/>
    <path d="M299.6 -308.45 L299.6 -301.7 293.1 -301.7 293.1 -308.45 299.6 -308.45" fill="#707070" fill-rule="evenodd" stroke="none"/>
    <path d="M325.95 -289.2 L320.65 -286.1 317.4 -291.75 322.7 -294.85 325.95 -289.2" fill="#707070" fill-rule="evenodd" stroke="none"/>
    <path d="M328.45 -281.05 L322.6 -279.5 320.9 -285.75 326.75 -287.3 328.45 -281.05" fill="#707070" fill-rule="evenodd" stroke="none"/>
    <path d="M329.0 -279.05 L329.0 -272.55 322.5 -272.55 322.5 -279.05 329.0 -279.05" fill="#707070" fill-rule="evenodd" stroke="none"/>
    <path d="M20.3 -460.85 L22.95 -458.45 20.05 -454.95 8.9 -464.1 -5.3 -472.2 -3.15 -476.15 11.5 -467.75 20.3 -460.85" fill="#707070" fill-rule="evenodd" stroke="none"/>
    <path d="M-105.35 -374.7 L-101.35 -376.75 -94.4 -364.15 -84.3 -351.25 -87.8 -348.45 -98.2 -361.7 -105.35 -374.7" fill="#707070" fill-rule="evenodd" stroke="none"/>
    <path d="M78.85 -414.5 L77.1 -426.25 81.2 -422.35 82.85 -424.0 84.95 -404.45 84.7 -394.8 83.05 -383.25 80.95 -373.6 78.8 -369.1 77.65 -370.3 72.65 -365.3 76.1 -376.75 77.6 -383.75 79.1 -395.75 79.6 -405.5 78.85 -414.5" fill="#707070" fill-rule="evenodd" stroke="none"/>
    <path d="M-55.8 -293.45 L-33.5 -291.2 -25.0 -291.7 -5.5 -294.35 5.05 -297.65 0.35 -292.95 1.5 -291.8 -2.95 -289.65 -12.65 -287.55 -24.2 -285.9 -33.85 -285.65 -53.4 -287.8 -51.75 -289.45 -55.8 -293.45" fill="#707070" fill-rule="evenodd" stroke="none"/>
    <path d="M200.65 81.25 L208.1 68.8 209.2 67.3 215.85 72.0 214.65 73.35 207.85 84.7 204.1 94.1 201.6 101.8 199.8 115.45 199.3 129.55 198.45 135.05 196.4 143.6 190.3 157.9 185.1 166.8 180.0 172.65 172.8 179.85 164.05 186.35 156.1 190.85 150.35 193.5 131.8 200.15 118.4 207.45 113.4 211.2 103.75 220.85 97.95 215.35 108.25 205.1 114.0 200.75 128.55 192.8 147.45 186.0 152.65 183.65 159.65 179.6 167.55 173.75 174.25 167.05 178.55 162.15 183.15 154.3 188.8 141.1 190.65 133.35 191.35 128.6 192.5 107.55 193.8 99.9 196.6 91.25 200.65 81.25" fill="#707070" fill-rule="evenodd" stroke="none"/>
    <path d="M118.95 187.9 L117.3 186.9 116.15 185.35 115.7 183.5 115.95 181.55 116.95 179.9 118.5 178.75 120.35 178.3 122.3 178.55 123.95 179.55 125.1 181.1 125.55 182.95 125.3 184.9 124.3 186.55 122.75 187.7 120.9 188.15 118.95 187.9" fill="#707070" fill-rule="evenodd" stroke="none"/>
    <path d="M95.2 195.55 L97.1 195.8 98.75 196.8 99.9 198.35 100.4 200.2 100.1 202.15 99.15 203.8 97.6 204.95 95.7 205.4 93.8 205.15 92.15 204.15 91.0 202.6 90.5 200.75 90.8 198.8 91.8 197.15 93.35 196.0 95.2 195.55" fill="#707070" fill-rule="evenodd" stroke="none"/>
    <path d="M150.1 169.95 L151.25 171.5 151.75 173.4 151.45 175.3 150.45 176.95 148.9 178.1 147.05 178.55 145.15 178.3 143.5 177.3 142.35 175.75 141.85 173.9 142.15 172.0 143.1 170.35 144.65 169.2 146.55 168.7 148.45 169.0 150.1 169.95" fill="#707070" fill-rule="evenodd" stroke="none"/>
    <path d="M161.35 158.05 L161.65 156.15 162.6 154.5 164.15 153.35 166.05 152.85 167.95 153.15 169.6 154.15 170.75 155.7 171.25 157.55 170.95 159.45 169.95 161.1 168.4 162.25 166.55 162.75 164.65 162.45 163.0 161.5 161.85 159.95 161.35 158.05" fill="#707070" fill-rule="evenodd" stroke="none"/>
    <path d="M176.0 130.85 L177.85 130.35 179.8 130.65 181.45 131.65 182.6 133.2 183.05 135.05 182.8 136.95 181.8 138.6 180.25 139.75 178.4 140.25 176.45 139.95 174.8 139.0 173.65 137.45 173.2 135.55 173.45 133.65 174.45 132.0 176.0 130.85" fill="#707070" fill-rule="evenodd" stroke="none"/>
    <path d="M176.35 113.6 L175.85 111.75 176.15 109.8 177.1 108.15 178.65 107.0 180.55 106.55 182.45 106.8 184.1 107.8 185.25 109.35 185.75 111.2 185.45 113.15 184.45 114.8 182.9 115.95 181.05 116.4 179.15 116.15 177.5 115.15 176.35 113.6" fill="#707070" fill-rule="evenodd" stroke="none"/>
    <path d="M184.0 87.15 L182.85 85.6 182.35 83.75 182.65 81.8 183.6 80.15 185.15 79.0 187.05 78.55 188.95 78.8 190.6 79.8 191.75 81.35 192.25 83.2 191.95 85.15 190.95 86.8 189.4 87.95 187.55 88.4 185.65 88.15 184.0 87.15" fill="#707070" fill-rule="evenodd" stroke="none"/>
    <path d="M369.25 -17.45 L359.5 -17.05 359.15 -27.1 368.85 -27.45 369.25 -17.45" fill="#707070" fill-rule="evenodd" stroke="none"/>
    <path d="M373.7 -15.15 L373.0 -25.15 385.9 -26.05 386.6 -16.1 373.7 -15.15" fill="#707070" fill-rule="evenodd" stroke="none"/>
    <path d="M340.9 -17.1 L342.05 -27.05 354.9 -25.6 353.75 -15.65 340.9 -17.1" fill="#707070" fill-rule="evenodd" stroke="none"/>
    <path d="M507.4 31.55 L507.4 73.0 489.55 73.0 489.55 31.55 507.4 31.55" fill="#707070" fill-rule="evenodd" stroke="none"/>
    <path d="M443.05 30.0 L449.05 30.0 449.05 23.9 457.9 23.9 457.9 103.75 448.65 103.75 448.65 97.35 443.05 97.35 443.05 30.0" fill="#707070" fill-rule="evenodd" stroke="none"/>
    <path d="M527.9 34.75 L536.75 34.75 536.75 61.25 527.9 61.25 527.9 34.75" fill="#707070" fill-rule="evenodd" stroke="none"/>
    <path d="M529.05 -24.1 L529.05 -29.65 517.3 -29.65 517.3 -24.1 502.25 -24.1 502.25 -31.1 564.1 -31.1 571.2 -30.7 579.15 -29.65 587.0 -26.3 593.8 -21.0 599.15 -14.1 602.7 -6.0 603.95 1.0 604.25 5.05 604.25 76.6 604.45 76.6 604.45 77.85 570.9 77.85 570.9 77.25 570.55 77.25 570.55 64.55 565.9 64.55 565.9 75.25 556.75 75.25 556.75 10.75 533.9 10.75 533.9 2.4 565.9 2.4 565.9 19.4 570.55 19.4 570.55 8.05 574.9 8.05 574.9 68.25 576.75 68.25 576.75 76.6 588.75 76.6 588.75 68.25 597.25 68.25 597.25 5.2 595.95 -3.95 593.1 -10.5 588.8 -16.0 583.45 -20.2 577.3 -22.85 570.4 -23.75 563.8 -24.1 529.05 -24.1" fill="#707070" fill-rule="evenodd" stroke="none"/>
    <path d="M439.3 120.75 L443.15 120.75 443.15 151.9 395.25 151.9 395.25 121.6 399.3 121.6 399.3 146.5 439.3 146.5 439.3 120.75" fill="#707070" fill-rule="evenodd" stroke="none"/>
    <path d="M454.25 196.9 L454.25 206.75 389.25 206.75 389.25 196.9 454.25 196.9" fill="#707070" fill-rule="evenodd" stroke="none"/>
    <path d="M489.75 283.9 L489.75 288.05 450.55 288.05 450.55 283.9 489.75 283.9" fill="#707070" fill-rule="evenodd" stroke="none"/>
    <path d="M358.4 288.55 L358.4 283.9 392.75 283.9 392.75 288.55 358.4 288.55" fill="#707070" fill-rule="evenodd" stroke="none"/>
    <path d="M394.05 281.9 L396.05 281.9 396.05 278.9 447.4 278.9 447.4 281.9 449.75 281.9 449.75 288.05 418.4 288.05 418.4 285.9 416.9 285.9 418.05 283.2 404.55 282.75 405.55 288.05 394.05 288.05 394.05 281.9" fill="#707070" fill-rule="evenodd" stroke="none"/>
    <path d="M448.2 232.3 L450.05 232.3 450.05 233.7 454.7 233.7 454.7 254.35 450.05 254.35 450.05 255.8 448.2 255.8 448.2 250.2 395.85 250.2 395.85 256.3 393.95 256.3 393.95 254.85 389.35 254.85 389.35 234.2 393.95 234.2 393.95 232.8 395.85 232.8 395.85 239.35 448.2 239.35 448.2 232.3" fill="#707070" fill-rule="evenodd" stroke="none"/>
    <path d="M357.9 222.25 L362.25 222.25 362.25 231.75 367.55 231.75 367.55 257.25 362.25 257.25 362.25 261.4 357.9 261.4 357.9 222.25" fill="#707070" fill-rule="evenodd" stroke="none"/>
    <path d="M495.3 223.85 L495.3 219.25 500.3 219.25 500.3 263.35 495.3 263.35 495.3 261.5 489.9 261.5 489.9 223.85 495.3 223.85" fill="#707070" fill-rule="evenodd" stroke="none"/>
    <path d="M599.55 222.05 L599.55 230.05 605.55 230.05 605.55 247.55 599.55 247.55 599.55 254.25 547.4 254.25 547.4 222.05 599.55 222.05" fill="#707070" fill-rule="evenodd" stroke="none"/>
    <path d="M541.75 198.55 L541.75 202.75 524.9 202.75 524.9 198.55 541.75 198.55" fill="#707070" fill-rule="evenodd" stroke="none"/>
    <path d="M501.4 293.5 L501.4 287.25 540.75 287.25 540.75 293.5 501.4 293.5" fill="#707070" fill-rule="evenodd" stroke="none"/>
    <path d="M547.25 293.5 L547.25 287.55 570.4 287.55 570.4 293.5 547.25 293.5" fill="#707070" fill-rule="evenodd" stroke="none"/>
    <path d="M580.4 293.5 L580.4 278.05 625.4 278.05 625.4 286.75 639.75 286.75 639.75 293.5 580.4 293.5" fill="#707070" fill-rule="evenodd" stroke="none"/>
    <path d="M537.8 103.05 L537.8 108.8 502.8 108.8 502.8 103.05 537.8 103.05" fill="#707070" fill-rule="evenodd" stroke="none"/>
    <path d="M449.25 -0.1 L449.25 -5.45 467.25 -5.45 467.25 -0.1 449.25 -0.1" fill="#707070" fill-rule="evenodd" stroke="none"/>
    <path d="M267.55 67.15 L268.2 68.0 268.45 69.0 268.35 70.05 267.9 71.0 267.1 71.7 266.15 72.1 265.1 72.1 264.1 71.7 263.3 71.0 262.85 70.05 262.75 69.0 263.05 68.0 263.7 67.15 264.6 66.6 265.6 66.4 266.65 66.6 267.55 67.15" fill="#707070" fill-rule="evenodd" stroke="none"/>
    <path d="M262.85 39.05 L262.75 38.0 263.05 37.0 263.7 36.15 264.6 35.6 265.6 35.4 266.65 35.6 267.55 36.15 268.2 37.0 268.45 38.0 268.35 39.05 267.9 40.0 267.1 40.7 266.15 41.1 265.1 41.1 264.1 40.7 263.3 40.0 262.85 39.05" fill="#707070" fill-rule="evenodd" stroke="none"/>
    <path d="M329.0 -28.5 L329.85 -28.0 330.4 -27.2 330.65 -26.3 330.6 -25.35 330.15 -24.5 329.45 -23.85 328.55 -23.5 327.6 -23.5 326.7 -23.85 326.0 -24.5 325.6 -25.35 325.5 -26.3 325.75 -27.2 326.35 -28.0 327.15 -28.5 328.1 -28.65 329.0 -28.5" fill="#707070" fill-rule="evenodd" stroke="none"/>
    <path d="M399.65 -23.15 L400.6 -23.35 401.5 -23.15 402.35 -22.65 402.9 -21.9 403.15 -21.0 403.1 -20.05 402.65 -19.15 401.95 -18.55 401.05 -18.2 400.1 -18.2 399.2 -18.55 398.5 -19.15 398.1 -20.05 398.0 -21.0 398.25 -21.9 398.85 -22.65 399.65 -23.15" fill="#707070" fill-rule="evenodd" stroke="none"/>
    <path d="M506.9 -71.4 L507.85 -71.2 508.65 -70.7 509.25 -69.95 509.5 -69.0 509.4 -68.05 509.0 -67.2 508.3 -66.55 507.4 -66.25 506.45 -66.25 505.55 -66.55 504.85 -67.2 504.4 -68.05 504.35 -69.0 504.6 -69.95 505.15 -70.7 506.0 -71.2 506.9 -71.4" fill="#707070" fill-rule="evenodd" stroke="none"/>
    <path d="M585.1 -79.45 L585.4 -78.5 585.3 -77.55 584.85 -76.7 584.15 -76.05 583.25 -75.75 582.3 -75.75 581.4 -76.05 580.7 -76.7 580.3 -77.55 580.2 -78.5 580.45 -79.45 581.05 -80.2 581.85 -80.7 582.8 -80.9 583.75 -80.7 584.55 -80.2 585.1 -79.45" fill="#707070" fill-rule="evenodd" stroke="none"/>
    <path d="M653.5 -79.15 L654.1 -78.4 654.35 -77.45 654.25 -76.5 653.85 -75.65 653.15 -75.0 652.25 -74.65 651.3 -74.65 650.4 -75.0 649.7 -75.65 649.25 -76.5 649.2 -77.45 649.45 -78.4 650.0 -79.15 650.85 -79.65 651.75 -79.85 652.7 -79.65 653.5 -79.15" fill="#707070" fill-rule="evenodd" stroke="none"/>
    <path d="M473.85 -165.95 L475.85 -165.95 475.85 -141.5 496.75 -141.5 496.75 -139.5 473.85 -139.5 473.85 -165.95" fill="#707070" fill-rule="evenodd" stroke="none"/>
    <path d="M455.65 -166.15 L457.65 -166.15 457.65 -140.25 455.65 -140.25 455.65 -166.15" fill="#707070" fill-rule="evenodd" stroke="none"/>
    <path d="M536.3 -84.7 L536.3 -76.65 508.8 -76.65 508.8 -84.7 536.3 -84.7" fill="#707070" fill-rule="evenodd" stroke="none"/>
    <path d="M539.55 -77.0 L539.55 -84.7 567.05 -84.7 567.05 -77.0 539.55 -77.0" fill="#707070" fill-rule="evenodd" stroke="none"/>
    <path d="M632.05 -60.5 L642.05 -60.5 642.05 -30.5 632.05 -30.5 632.05 -60.5" fill="#707070" fill-rule="evenodd" stroke="none"/>
    <path d="M651.25 -69.3 L657.35 -69.3 657.35 -25.8 651.25 -25.8 651.25 -69.3" fill="#707070" fill-rule="evenodd" stroke="none"/>
    <path d="M669.05 -46.75 L669.05 -23.75 662.0 -23.75 662.0 -46.75 669.05 -46.75" fill="#707070" fill-rule="evenodd" stroke="none"/>
    <path d="M660.7 26.4 L660.7 7.25 668.75 7.25 668.75 26.4 660.7 26.4" fill="#707070" fill-rule="evenodd" stroke="none"/>
    <path d="M702.05 -126.5 L702.05 -102.25 694.55 -102.25 694.55 -126.5 702.05 -126.5" fill="#707070" fill-rule="evenodd" stroke="none"/>
    <path d="M621.4 -92.3 L621.4 -81.3 616.9 -81.3 616.9 -92.3 621.4 -92.3" fill="#707070" fill-rule="evenodd" stroke="none"/>
    <path d="M633.75 -92.3 L633.75 -81.3 631.4 -81.3 631.4 -92.3 633.75 -92.3" fill="#707070" fill-rule="evenodd" stroke="none"/>
    <path d="M607.6 -92.3 L607.6 -81.3 605.3 -81.3 605.3 -92.3 607.6 -92.3" fill="#707070" fill-rule="evenodd" stroke="none"/>
    <path d="M699.65 -158.75 L682.05 -158.75 682.05 -169.75 699.65 -169.75 699.65 -158.75" fill="#707070" fill-rule="evenodd" stroke="none"/>
    <path d="M699.75 -202.95 L699.75 -191.95 680.05 -191.95 680.05 -202.95 699.75 -202.95" fill="#707070" fill-rule="evenodd" stroke="none"/>
    <path d="M681.55 -221.1 L681.55 -232.1 699.4 -232.1 699.4 -221.1 681.55 -221.1" fill="#707070" fill-rule="evenodd" stroke="none"/>
    <path d="M625.05 -158.6 L652.9 -158.6 652.9 -156.95 669.05 -156.95 669.05 -154.25 625.05 -154.25 625.05 -158.6" fill="#707070" fill-rule="evenodd" stroke="none"/>
    <path d="M644.75 -132.25 L644.75 -125.9 598.15 -125.9 598.15 -132.25 644.75 -132.25" fill="#707070" fill-rule="evenodd" stroke="none"/>
    <path d="M622.9 -232.15 L629.7 -232.15 629.7 -223.25 622.9 -223.25 622.9 -232.15" fill="#707070" fill-rule="evenodd" stroke="none"/>
    <path d="M614.5 -223.25 L614.5 -232.15 621.3 -232.15 621.3 -223.25 614.5 -223.25" fill="#707070" fill-rule="evenodd" stroke="none"/>
    <path d="M612.9 -232.15 L612.9 -223.25 606.1 -223.25 606.1 -232.15 612.9 -232.15" fill="#707070" fill-rule="evenodd" stroke="none"/>
    <path d="M678.4 -557.6 L680.4 -557.6 680.4 -367.45 678.4 -367.45 678.4 -557.6" fill="#707070" fill-rule="evenodd" stroke="none"/>
    <path d="M696.4 -598.25 L672.55 -598.25 672.55 -600.25 698.4 -600.25 698.4 -367.45 696.4 -367.45 696.4 -598.25" fill="#707070" fill-rule="evenodd" stroke="none"/>
    <path d="M700.4 -24.35 L709.4 -24.35 709.4 -3.25 700.4 -3.25 700.4 -24.35" fill="#707070" fill-rule="evenodd" stroke="none"/>
    <path d="M709.65 6.9 L709.65 28.0 700.65 28.0 700.65 6.9 709.65 6.9" fill="#707070" fill-rule="evenodd" stroke="none"/>
    <path d="M660.7 29.25 L669.65 29.25 669.65 54.25 660.7 54.25 660.7 29.25" fill="#707070" fill-rule="evenodd" stroke="none"/>
    <path d="M708.4 5.25 L701.15 5.25 701.15 -1.6 708.4 -1.6 708.4 5.25" fill="#707070" fill-rule="evenodd" stroke="none"/>
    <path d="M702.05 -156.95 L702.05 -154.25 677.75 -154.25 677.75 -156.95 702.05 -156.95" fill="#707070" fill-rule="evenodd" stroke="none"/>
    <path d="M651.9 -177.75 L651.9 -176.0 595.95 -176.0 595.95 -177.75 651.9 -177.75" fill="#707070" fill-rule="evenodd" stroke="none"/>
    <path d="M-117.15 144.85 L-88.5 144.85 -88.5 147.55 -117.15 147.55 -117.15 144.85" fill="#ffffff" fill-rule="evenodd" stroke="none"/>
    <path d="M-117.15 144.85 L-88.5 144.85 -88.5 147.55 -117.15 147.55 -117.15 144.85" fill="#ffffff" fill-rule="evenodd" stroke="none"/>
    <path d="M298.85 76.1 L298.85 56.2 305.35 56.2 305.35 76.1 298.85 76.1" fill="#ffffff" fill-rule="evenodd" stroke="none"/>
    <path d="M307.8 76.1 L307.8 56.2 314.25 56.2 314.25 76.1 307.8 76.1" fill="#ffffff" fill-rule="evenodd" stroke="none"/>
    <path d="M316.7 76.1 L316.7 56.2 323.2 56.2 323.2 76.1 316.7 76.1" fill="#ffffff" fill-rule="evenodd" stroke="none"/>
    <path d="M325.65 76.1 L325.65 56.2 332.1 56.2 332.1 76.1 325.65 76.1" fill="#ffffff" fill-rule="evenodd" stroke="none"/>
    <path d="M334.55 76.1 L334.55 56.2 341.05 56.2 341.05 76.1 334.55 76.1" fill="#ffffff" fill-rule="evenodd" stroke="none"/>
    <path d="M298.85 33.2 L305.35 33.2 305.35 53.6 298.85 53.6 298.85 33.2" fill="#ffffff" fill-rule="evenodd" stroke="none"/>
    <path d="M307.8 33.2 L314.25 33.2 314.25 53.6 307.8 53.6 307.8 33.2" fill="#ffffff" fill-rule="evenodd" stroke="none"/>
    <path d="M316.7 33.2 L323.2 33.2 323.2 53.6 316.7 53.6 316.7 33.2" fill="#ffffff" fill-rule="evenodd" stroke="none"/>
    <path d="M325.65 33.2 L332.1 33.2 332.1 53.6 325.65 53.6 325.65 33.2" fill="#ffffff" fill-rule="evenodd" stroke="none"/>
    <path d="M334.55 53.6 L334.55 33.2 341.05 33.2 341.05 53.6 334.55 53.6" fill="#ffffff" fill-rule="evenodd" stroke="none"/>
    <path d="M163.85 -489.8 L143.6 -489.8 143.6 -495.0 128.3 -495.0 128.3 -489.8 107.35 -489.8 107.35 -515.5 163.85 -515.5 163.85 -489.8" fill="#ffffff" fill-rule="evenodd" stroke="none"/>
    <path d="M107.35 -460.4 L128.3 -460.4 128.3 -453.95 107.35 -453.95 107.35 -460.4" fill="#ffffff" fill-rule="evenodd" stroke="none"/>
    <path d="M128.3 -462.85 L107.35 -462.85 107.35 -469.35 128.3 -469.35 128.3 -462.85" fill="#ffffff" fill-rule="evenodd" stroke="none"/>
    <path d="M128.3 -471.8 L107.35 -471.8 107.35 -478.25 128.3 -478.25 128.3 -471.8" fill="#ffffff" fill-rule="evenodd" stroke="none"/>
    <path d="M128.3 -480.7 L107.35 -480.7 107.35 -487.2 128.3 -487.2 128.3 -480.7" fill="#ffffff" fill-rule="evenodd" stroke="none"/>
    <path d="M143.6 -460.4 L163.85 -460.4 163.85 -453.95 143.6 -453.95 143.6 -460.4" fill="#ffffff" fill-rule="evenodd" stroke="none"/>
    <path d="M163.85 -462.85 L143.6 -462.85 143.6 -469.35 163.85 -469.35 163.85 -462.85" fill="#ffffff" fill-rule="evenodd" stroke="none"/>
    <path d="M163.85 -471.8 L143.6 -471.8 143.6 -478.25 163.85 -478.25 163.85 -471.8" fill="#ffffff" fill-rule="evenodd" stroke="none"/>
    <path d="M163.85 -480.7 L143.6 -480.7 143.6 -487.2 163.85 -487.2 163.85 -480.7" fill="#ffffff" fill-rule="evenodd" stroke="none"/>
    <path d="M248.85 -76.3 L248.85 -96.8 255.35 -96.8 255.35 -76.3 248.85 -76.3" fill="#ffffff" fill-rule="evenodd" stroke="none"/>
    <path d="M257.8 -76.3 L257.8 -96.8 264.25 -96.8 264.25 -76.3 257.8 -76.3" fill="#ffffff" fill-rule="evenodd" stroke="none"/>
    <path d="M266.7 -76.3 L266.7 -96.8 273.2 -96.8 273.2 -76.3 266.7 -76.3" fill="#ffffff" fill-rule="evenodd" stroke="none"/>
    <path d="M275.65 -76.3 L275.65 -96.8 282.1 -96.8 282.1 -76.3 275.65 -76.3" fill="#ffffff" fill-rule="evenodd" stroke="none"/>
    <path d="M248.85 -110.8 L248.85 -131.3 255.35 -131.3 255.35 -110.8 248.85 -110.8" fill="#ffffff" fill-rule="evenodd" stroke="none"/>
    <path d="M257.8 -110.8 L257.8 -131.3 264.25 -131.3 264.25 -110.8 257.8 -110.8" fill="#ffffff" fill-rule="evenodd" stroke="none"/>
    <path d="M266.7 -110.8 L266.7 -131.3 273.2 -131.3 273.2 -110.8 266.7 -110.8" fill="#ffffff" fill-rule="evenodd" stroke="none"/>
    <path d="M275.65 -110.8 L275.65 -131.3 282.1 -131.3 282.1 -110.8 275.65 -110.8" fill="#ffffff" fill-rule="evenodd" stroke="none"/>
    <path d="M406.6 70.8 L371.6 70.8 371.6 34.9 406.6 34.9 406.6 70.8" fill="#ffffff" fill-rule="evenodd" stroke="none"/>
    <path d="M357.8 -117.1 L357.8 -89.1 330.8 -89.1 330.8 -117.1 357.8 -117.1" fill="#ffffff" fill-rule="evenodd" stroke="none"/>
    <path d="M396.05 -89.1 L368.75 -89.1 368.75 -117.1 396.05 -117.1 396.05 -89.1" fill="#ffffff" fill-rule="evenodd" stroke="none"/>
    <path d="M208.0 -475.5 L179.75 -475.5 179.75 -504.0 208.0 -504.0 208.0 -475.5" fill="#ffffff" fill-rule="evenodd" stroke="none"/>
  </g>
</svg>
