<?xml version="1.0" encoding="UTF-8" standalone="no"?>
<svg xmlns:ffdec="https://www.free-decompiler.com/flash" xmlns:xlink="http://www.w3.org/1999/xlink" ffdec:objectType="shape" height="1000.0px" width="954.65px" xmlns="http://www.w3.org/2000/svg">
  <g transform="matrix(1.0, 0.0, 0.0, 1.0, 203.5, 666.55)">
    <path d="M751.15 -666.55 L751.15 333.45 -203.5 333.45 -203.5 -70.1 -125.75 -70.1 -125.75 -550.25 199.0 -550.25 199.0 -666.55 751.15 -666.55" fill="#434343" fill-rule="evenodd" stroke="none"/>
    <path d="M300.9 -417.75 L334.4 -417.75 334.4 -412.6 338.75 -412.6 338.75 -390.75 334.4 -390.75 334.4 -388.1 323.75 -388.1 323.75 -390.0 312.15 -390.0 312.15 -383.4 322.15 -383.4 322.15 -382.0 324.05 -382.0 324.05 -386.0 383.75 -386.0 383.75 -347.5 324.05 -347.5 324.05 -368.0 322.15 -368.0 322.15 -341.95 324.05 -341.95 324.05 -345.95 383.75 -345.95 383.75 -307.45 324.05 -307.45 324.05 -327.95 322.15 -327.95 322.15 -309.25 312.15 -309.25 312.15 -303.05 321.8 -303.05 321.8 -301.85 324.05 -301.85 324.05 -305.85 383.75 -305.85 383.75 -267.35 324.05 -267.35 324.05 -287.85 321.8 -287.85 321.8 -261.75 324.05 -261.75 324.05 -265.75 383.75 -265.75 383.75 -227.25 324.05 -227.25 324.05 -247.75 321.8 -247.75 321.8 -228.95 312.15 -228.95 312.15 -223.25 321.4 -223.25 321.4 -178.35 306.05 -178.35 306.05 -176.0 325.1 -176.0 325.1 -221.6 408.25 -221.6 408.25 -176.15 413.6 -176.15 413.6 -161.75 415.1 -161.75 415.1 -147.5 413.6 -147.5 413.6 -141.35 405.75 -141.35 405.75 -124.6 390.9 -124.6 390.9 -121.6 373.9 -121.6 373.9 -124.6 352.8 -124.6 352.8 -121.6 335.8 -121.6 335.8 -124.6 325.1 -124.6 325.1 -141.5 316.15 -141.5 316.15 -135.25 304.9 -135.25 304.9 -134.05 306.4 -134.05 306.4 -131.3 309.3 -131.3 309.3 -76.3 306.5 -76.3 306.5 -74.8 305.05 -74.8 305.05 -71.65 291.45 -71.65 291.45 -74.8 289.8 -74.8 289.8 -76.3 228.8 -76.3 228.8 -131.3 289.85 -131.3 289.85 -134.05 291.2 -134.05 291.2 -135.25 265.2 -135.25 265.2 -176.0 284.55 -176.0 284.55 -178.35 277.55 -178.35 277.55 -191.0 275.65 -191.0 275.65 -187.0 242.35 -187.0 242.35 -225.5 275.65 -225.5 275.65 -205.0 277.55 -205.0 277.55 -231.1 275.65 -231.1 275.65 -227.1 215.65 -227.1 215.65 -265.6 275.65 -265.6 275.65 -245.1 277.55 -245.1 277.55 -271.2 275.65 -271.2 275.65 -267.2 215.65 -267.2 215.65 -305.7 275.65 -305.7 275.65 -285.2 277.55 -285.2 277.55 -311.25 275.65 -311.25 275.65 -307.25 215.65 -307.25 215.65 -345.75 275.65 -345.75 275.65 -325.25 277.55 -325.25 277.55 -347.5 217.9 -347.5 217.9 -355.25 210.6 -355.25 210.6 -313.25 182.85 -313.25 182.85 -311.25 134.15 -311.25 134.15 -343.75 128.4 -343.75 128.4 -349.25 126.1 -349.25 126.1 -311.0 123.1 -311.0 123.1 -312.35 120.9 -312.35 120.9 -309.0 122.9 -309.0 122.9 -310.0 149.0 -310.0 149.0 -249.85 152.1 -249.85 152.1 -247.0 153.25 -247.0 153.25 -232.0 152.1 -232.0 152.1 -213.25 148.1 -213.25 148.1 -199.5 145.2 -200.45 143.65 -198.3 136.55 -201.2 128.05 -204.0 119.2 -205.05 102.45 -205.05 92.65 -203.7 84.1 -201.2 77.75 -198.5 76.35 -200.9 73.1 -200.25 73.1 -213.25 69.1 -213.25 69.1 -221.85 68.1 -221.85 68.1 -224.2 66.15 -224.2 66.15 -218.1 40.35 -218.1 40.35 -243.75 66.15 -243.75 66.15 -238.2 68.1 -238.2 68.1 -240.0 69.1 -240.0 69.1 -249.85 72.35 -249.85 72.35 -258.25 64.85 -258.25 64.85 -300.0 73.1 -300.0 73.1 -310.0 97.85 -310.0 97.85 -309.0 100.1 -309.0 100.1 -312.35 97.9 -312.35 97.9 -311.0 94.9 -311.0 94.9 -378.2 97.9 -378.2 97.9 -376.7 100.1 -376.7 100.1 -379.0 120.9 -379.0 120.9 -376.7 123.1 -376.7 123.1 -378.2 126.1 -378.2 126.1 -369.95 128.4 -369.95 128.4 -375.7 177.15 -375.7 177.15 -381.7 183.4 -381.7 183.4 -384.0 178.4 -384.0 178.4 -414.7 183.4 -414.7 183.4 -416.85 180.2 -418.05 175.55 -420.8 171.5 -424.4 168.1 -428.6 165.55 -433.4 165.25 -434.25 163.6 -434.25 163.6 -430.75 107.1 -430.75 107.1 -435.5 105.9 -435.5 105.9 -451.2 107.1 -451.2 107.1 -507.55 127.85 -510.25 163.4 -508.0 163.6 -456.5 165.4 -456.5 166.7 -459.6 169.7 -464.15 173.45 -468.05 177.85 -471.25 182.7 -473.6 183.15 -473.7 183.15 -475.5 205.15 -475.5 205.15 -473.0 208.85 -471.25 213.25 -468.05 217.0 -464.15 219.95 -459.6 221.3 -456.5 225.05 -456.5 225.05 -434.25 221.45 -434.25 221.15 -433.4 218.55 -428.6 215.2 -424.4 211.1 -420.8 206.45 -418.05 204.85 -417.4 204.85 -414.7 209.35 -414.7 209.35 -384.0 204.85 -384.0 204.85 -381.7 210.6 -381.7 210.6 -375.95 217.9 -375.95 217.9 -383.25 242.65 -383.25 242.65 -388.25 235.4 -388.25 235.4 -417.75 246.8 -417.75 246.8 -419.2 242.8 -419.2 242.8 -478.95 281.3 -478.95 281.3 -419.2 260.8 -419.2 260.8 -417.75 286.9 -417.75 286.9 -419.2 282.9 -419.2 282.9 -478.95 321.4 -478.95 321.4 -419.2 300.9 -419.2 300.9 -417.75" fill="#969696" fill-rule="evenodd" stroke="none"/>
    <path d="M126.6 -239.25 L126.6 -229.0 94.1 -229.0 94.1 -239.25 126.6 -239.25" fill="#707070" fill-rule="evenodd" stroke="none"/>
    <path d="M149.0 -257.75 L149.0 -300.25 160.85 -300.25 160.85 -270.75 152.6 -270.75 152.6 -257.75 149.0 -257.75" fill="#707070" fill-rule="evenodd" stroke="none"/>
    <path d="M92.75 -269.2 L81.1 -269.2 81.1 -289.5 92.75 -289.5 92.75 -269.2" fill="#707070" fill-rule="evenodd" stroke="none"/>
    <path d="M66.4 -287.25 L66.4 -294.1 75.4 -294.1 75.4 -264.75 66.4 -264.75 66.4 -271.6 64.75 -271.6 64.75 -287.25 66.4 -287.25" fill="#707070" fill-rule="evenodd" stroke="none"/>
    <path d="M155.1 -321.0 L155.1 -348.2 165.25 -348.2 165.25 -321.0 155.1 -321.0" fill="#707070" fill-rule="evenodd" stroke="none"/>
    <path d="M78.4 -308.7 L93.75 -308.7 93.75 -303.5 78.4 -303.5 78.4 -308.7" fill="#707070" fill-rule="evenodd" stroke="none"/>
    <path d="M102.35 -208.4 L110.4 -208.85 119.05 -208.4 127.95 -207.35 137.1 -204.5 143.5 -201.65 145.2 -200.45 143.65 -198.3 136.55 -201.2 128.05 -204.0 119.2 -205.05 102.45 -205.05 92.65 -203.7 84.1 -201.2 77.75 -198.5 76.35 -200.9 77.6 -201.85 82.35 -204.0 92.55 -207.05 102.35 -208.4" fill="#707070" fill-rule="evenodd" stroke="none"/>
    <path d="M405.7 -181.35 L406.5 -180.85 407.1 -180.05 407.35 -179.15 407.25 -178.2 406.85 -177.35 406.1 -176.7 405.25 -176.35 404.25 -176.35 403.4 -176.7 402.7 -177.35 402.25 -178.2 402.15 -179.15 402.4 -180.05 403.0 -180.85 403.8 -181.35 404.75 -181.5 405.7 -181.35" fill="#707070" fill-rule="evenodd" stroke="none"/>
    <path d="M331.6 -178.75 L331.5 -177.8 331.1 -176.9 330.35 -176.3 329.5 -175.95 328.5 -175.95 327.65 -176.3 326.95 -176.9 326.5 -177.8 326.4 -178.75 326.65 -179.65 327.25 -180.4 328.05 -180.9 329.0 -181.1 329.95 -180.9 330.75 -180.4 331.35 -179.65 331.6 -178.75" fill="#707070" fill-rule="evenodd" stroke="none"/>
    <path d="M274.65 -144.1 L275.2 -143.35 275.45 -142.45 275.4 -141.5 274.95 -140.65 274.25 -140.0 273.35 -139.65 272.4 -139.65 271.5 -140.0 270.8 -140.65 270.4 -141.5 270.3 -142.45 270.55 -143.35 271.1 -144.1 271.95 -144.6 272.9 -144.8 273.8 -144.6 274.65 -144.1" fill="#707070" fill-rule="evenodd" stroke="none"/>
    <path d="M353.65 -188.75 L353.65 -200.5 373.65 -200.5 373.65 -188.75 353.65 -188.75" fill="#707070" fill-rule="evenodd" stroke="none"/>
    <path d="M348.55 -210.25 L348.55 -221.6 377.3 -221.6 377.3 -210.25 348.55 -210.25" fill="#707070" fill-rule="evenodd" stroke="none"/>
    <path d="M402.4 -192.65 L407.9 -192.65 407.9 -185.9 402.4 -185.9 402.4 -192.65" fill="#707070" fill-rule="evenodd" stroke="none"/>
    <path d="M399.05 -210.0 L407.8 -210.0 407.8 -200.3 399.05 -200.3 399.05 -210.0" fill="#707070" fill-rule="evenodd" stroke="none"/>
    <path d="M335.75 -219.75 L335.75 -212.45 328.05 -212.45 328.05 -219.75 335.75 -219.75" fill="#707070" fill-rule="evenodd" stroke="none"/>
    <path d="M326.9 -210.25 L336.25 -210.25 336.25 -181.25 326.9 -181.25 326.9 -210.25" fill="#707070" fill-rule="evenodd" stroke="none"/>
    <path d="M364.25 -248.25 L364.25 -227.25 355.05 -227.25 355.05 -248.25 364.25 -248.25" fill="#707070" fill-rule="evenodd" stroke="none"/>
    <path d="M355.55 -267.35 L355.55 -288.25 364.75 -288.25 364.75 -267.35 355.55 -267.35" fill="#707070" fill-rule="evenodd" stroke="none"/>
    <path d="M364.25 -328.5 L364.25 -307.45 355.05 -307.45 355.05 -328.5 364.25 -328.5" fill="#707070" fill-rule="evenodd" stroke="none"/>
    <path d="M355.3 -368.75 L364.5 -368.75 364.5 -347.5 355.3 -347.5 355.3 -368.75" fill="#707070" fill-rule="evenodd" stroke="none"/>
    <path d="M300.5 -459.45 L321.15 -459.45 321.15 -450.25 300.5 -450.25 300.5 -459.45" fill="#707070" fill-rule="evenodd" stroke="none"/>
    <path d="M260.5 -459.45 L281.15 -459.45 281.15 -450.25 260.5 -450.25 260.5 -459.45" fill="#707070" fill-rule="evenodd" stroke="none"/>
    <path d="M235.15 -324.6 L235.15 -345.75 244.3 -345.75 244.3 -324.6 235.15 -324.6" fill="#707070" fill-rule="evenodd" stroke="none"/>
    <path d="M235.15 -284.95 L235.15 -305.6 244.3 -305.6 244.3 -284.95 235.15 -284.95" fill="#707070" fill-rule="evenodd" stroke="none"/>
    <path d="M235.15 -265.6 L244.3 -265.6 244.3 -245.25 235.15 -245.25 235.15 -265.6" fill="#707070" fill-rule="evenodd" stroke="none"/>
    <path d="M255.1 -224.9 L264.3 -224.9 264.3 -204.2 255.1 -204.2 255.1 -224.9" fill="#707070" fill-rule="evenodd" stroke="none"/>
    <path d="M357.8 -121.6 L357.8 -89.1 330.8 -89.1 330.8 -121.6 357.8 -121.6" fill="#ffffff" fill-rule="evenodd" stroke="none"/>
    <path d="M396.05 -89.1 L368.75 -89.1 368.75 -121.6 396.05 -121.6 396.05 -89.1" fill="#ffffff" fill-rule="evenodd" stroke="none"/>
    <path d="M163.6 -489.8 L143.35 -489.8 143.35 -495.0 128.05 -495.0 128.05 -489.8 107.1 -489.8 107.1 -515.5 163.6 -515.5 163.6 -489.8" fill="#ffffff" fill-rule="evenodd" stroke="none"/>
    <path d="M107.1 -460.4 L128.05 -460.4 128.05 -453.95 107.1 -453.95 107.1 -460.4" fill="#ffffff" fill-rule="evenodd" stroke="none"/>
    <path d="M128.05 -462.85 L107.1 -462.85 107.1 -469.35 128.05 -469.35 128.05 -462.85" fill="#ffffff" fill-rule="evenodd" stroke="none"/>
    <path d="M128.05 -471.8 L107.1 -471.8 107.1 -478.25 128.05 -478.25 128.05 -471.8" fill="#ffffff" fill-rule="evenodd" stroke="none"/>
    <path d="M128.05 -480.7 L107.1 -480.7 107.1 -487.2 128.05 -487.2 128.05 -480.7" fill="#ffffff" fill-rule="evenodd" stroke="none"/>
    <path d="M143.35 -460.4 L163.6 -460.4 163.6 -453.95 143.35 -453.95 143.35 -460.4" fill="#ffffff" fill-rule="evenodd" stroke="none"/>
    <path d="M163.6 -462.85 L143.35 -462.85 143.35 -469.35 163.6 -469.35 163.6 -462.85" fill="#ffffff" fill-rule="evenodd" stroke="none"/>
    <path d="M163.6 -471.8 L143.35 -471.8 143.35 -478.25 163.6 -478.25 163.6 -471.8" fill="#ffffff" fill-rule="evenodd" stroke="none"/>
    <path d="M163.6 -480.7 L143.35 -480.7 143.35 -487.2 163.6 -487.2 163.6 -480.7" fill="#ffffff" fill-rule="evenodd" stroke="none"/>
    <path d="M248.85 -76.3 L248.85 -96.8 255.35 -96.8 255.35 -76.3 248.85 -76.3" fill="#ffffff" fill-rule="evenodd" stroke="none"/>
    <path d="M257.8 -76.3 L257.8 -96.8 264.25 -96.8 264.25 -76.3 257.8 -76.3" fill="#ffffff" fill-rule="evenodd" stroke="none"/>
    <path d="M266.7 -76.3 L266.7 -96.8 273.2 -96.8 273.2 -76.3 266.7 -76.3" fill="#ffffff" fill-rule="evenodd" stroke="none"/>
    <path d="M275.65 -76.3 L275.65 -96.8 282.1 -96.8 282.1 -76.3 275.65 -76.3" fill="#ffffff" fill-rule="evenodd" stroke="none"/>
    <path d="M248.85 -110.8 L248.85 -131.3 255.35 -131.3 255.35 -110.8 248.85 -110.8" fill="#ffffff" fill-rule="evenodd" stroke="none"/>
    <path d="M257.8 -110.8 L257.8 -131.3 264.25 -131.3 264.25 -110.8 257.8 -110.8" fill="#ffffff" fill-rule="evenodd" stroke="none"/>
    <path d="M266.7 -110.8 L266.7 -131.3 273.2 -131.3 273.2 -110.8 266.7 -110.8" fill="#ffffff" fill-rule="evenodd" stroke="none"/>
    <path d="M275.65 -110.8 L275.65 -131.3 282.1 -131.3 282.1 -110.8 275.65 -110.8" fill="#ffffff" fill-rule="evenodd" stroke="none"/>
    <path d="M207.75 -475.5 L179.5 -475.5 179.5 -504.0 207.75 -504.0 207.75 -475.5" fill="#ffffff" fill-rule="evenodd" stroke="none"/>
  </g>
</svg>
