<?xml version="1.0" encoding="UTF-8" standalone="no"?>
<svg xmlns:ffdec="https://www.free-decompiler.com/flash" xmlns:xlink="http://www.w3.org/1999/xlink" ffdec:objectType="shape" height="28.0px" width="24.2px" xmlns="http://www.w3.org/2000/svg">
  <g transform="matrix(1.0, 0.0, 0.0, 1.0, 12.1, 52.0)">
    <path d="M7.3 -47.0 L7.3 -49.4 -7.3 -49.4 -7.3 -47.0 7.3 -47.0 M9.65 -32.25 L12.1 -28.7 12.1 -24.0 3.4 -24.0 3.4 -28.85 4.65 -28.85 4.65 -30.15 -4.65 -30.15 -4.65 -28.85 -3.4 -28.85 -3.4 -24.0 -12.1 -24.0 -12.1 -28.7 -9.65 -32.25 -9.65 -52.0 9.65 -52.0 9.65 -32.25 M7.3 -32.75 L7.3 -35.15 -7.3 -35.15 -7.3 -32.75 7.3 -32.75 M7.3 -37.5 L7.3 -39.9 -7.3 -39.9 -7.3 -37.5 7.3 -37.5 M7.3 -42.25 L7.3 -44.65 -7.3 -44.65 -7.3 -42.25 7.3 -42.25" fill="#ffffff" fill-rule="evenodd" stroke="none"/>
  </g>
</svg>
