<?xml version="1.0" encoding="UTF-8" standalone="no"?>
<svg xmlns:ffdec="https://www.free-decompiler.com/flash" xmlns:xlink="http://www.w3.org/1999/xlink" ffdec:objectType="shape" height="59.8px" width="43.0px" xmlns="http://www.w3.org/2000/svg">
  <g transform="matrix(1.0, 0.0, 0.0, 1.0, 21.5, 59.8)">
    <path d="M0.0 -25.05 Q5.45 -25.05 9.35 -28.95 13.25 -32.8 13.25 -38.3 13.25 -43.75 9.35 -47.65 5.45 -51.55 0.0 -51.55 -5.5 -51.55 -9.4 -47.65 -13.25 -43.75 -13.25 -38.3 -13.25 -32.8 -9.4 -28.95 -5.5 -25.05 0.0 -25.05 M0.0 -59.8 Q8.9 -59.8 15.2 -53.5 21.5 -47.2 21.5 -38.3 21.55 -30.35 10.65 -14.25 L0.0 0.0 -10.65 -14.25 Q-21.55 -30.35 -21.5 -38.3 -21.5 -47.2 -15.2 -53.5 -8.9 -59.8 0.0 -59.8" fill="#ffffff" fill-rule="evenodd" stroke="none"/>
  </g>
</svg>
