<?xml version="1.0" encoding="UTF-8" standalone="no"?>
<svg xmlns:ffdec="https://www.free-decompiler.com/flash" xmlns:xlink="http://www.w3.org/1999/xlink" ffdec:objectType="shape" height="234.0px" width="358.0px" xmlns="http://www.w3.org/2000/svg">
  <g transform="matrix(1.0, 0.0, 0.0, 1.0, 141.5, 61.5)">
    <path d="M140.0 28.0 L140.0 172.5 -141.5 172.5 -141.5 -61.5 216.5 -61.5 216.5 28.0 140.0 28.0" fill="#434343" fill-rule="evenodd" stroke="none"/>
    <path d="M121.0 -53.5 L121.0 -40.5 210.0 -40.5 210.0 17.0 121.0 17.0 121.0 29.8 -119.35 29.8 -119.35 -53.5 121.0 -53.5" fill="#969696" fill-rule="evenodd" stroke="none"/>
    <path d="M121.0 21.25 L121.0 27.0 -118.5 27.0 -118.5 21.25 121.0 21.25" fill="#707070" fill-rule="evenodd" stroke="none"/>
    <path d="M109.5 156.0 L109.5 42.5 2.0 42.5 2.0 156.0 109.5 156.0 M-3.0 156.0 L-3.0 42.5 -110.5 42.5 -110.5 156.0 -3.0 156.0 M130.0 29.8 L130.0 164.0 -132.0 164.0 -132.0 29.8 130.0 29.8" fill="#707070" fill-rule="evenodd" stroke="none"/>
    <path d="M210.0 -28.0 L210.0 4.5 199.5 4.5 199.5 -28.0 210.0 -28.0" fill="#ffffff" fill-rule="evenodd" stroke="none"/>
  </g>
</svg>
