<?xml version="1.0" encoding="UTF-8" standalone="no"?>
<svg xmlns:ffdec="https://www.free-decompiler.com/flash" xmlns:xlink="http://www.w3.org/1999/xlink" ffdec:objectType="shape" height="580.8px" width="417.0px" xmlns="http://www.w3.org/2000/svg">
  <g transform="matrix(1.0, 0.0, 0.0, 1.0, 195.65, 242.25)">
    <path d="M-195.4 -242.25 L-44.45 -242.25 -44.45 -169.95 221.35 -169.95 221.35 338.55 25.0 338.55 25.0 310.9 -195.65 310.9 -195.4 -242.25" fill="#434343" fill-rule="evenodd" stroke="none"/>
    <path d="M-54.0 -234.35 L-54.0 -51.0 -36.2 -51.0 -36.2 -56.35 -48.2 -56.35 -48.2 -142.35 -35.0 -142.35 -35.0 -155.85 92.8 -155.85 92.8 -55.35 -11.0 -56.35 -11.0 -51.0 184.15 -51.0 184.15 123.65 65.65 123.65 65.65 132.3 182.65 131.65 182.65 284.3 124.9 284.3 124.9 203.75 59.65 203.75 59.65 209.0 117.0 209.0 117.0 330.95 87.0 330.95 87.0 328.7 37.3 328.7 37.3 299.0 18.85 299.0 18.85 209.0 32.3 209.0 32.3 204.3 30.75 204.3 30.75 168.75 22.75 168.5 22.75 204.3 13.65 204.3 13.65 301.3 -185.65 301.3 -185.65 -234.35 -54.0 -234.35" fill="#969696" fill-rule="evenodd" stroke="none"/>
    <path d="M-185.65 -234.35 L-54.0 -234.35 -54.0 -84.35 -185.65 -84.35 -185.65 -234.35" fill="#707070" fill-rule="evenodd" stroke="none"/>
    <path d="M82.3 -131.2 L90.8 -131.2 90.8 -81.35 82.3 -81.35 82.3 -131.2" fill="#707070" fill-rule="evenodd" stroke="none"/>
    <path d="M-17.5 -151.7 L-17.5 -138.5 -35.0 -138.5 -35.0 -151.7 -17.5 -151.7" fill="#707070" fill-rule="evenodd" stroke="none"/>
    <path d="M-48.2 -142.0 L-35.0 -142.0 -35.0 -132.0 -37.0 -132.0 -37.0 -108.7 -48.2 -108.7 -48.2 -142.0" fill="#707070" fill-rule="evenodd" stroke="none"/>
    <path d="M152.5 -50.35 L152.5 -31.5 -3.35 -31.5 -3.35 -50.35 152.5 -50.35" fill="#707070" fill-rule="evenodd" stroke="none"/>
    <path d="M165.65 -46.85 L182.0 -46.85 182.0 -0.5 165.65 -0.5 165.65 -46.85" fill="#707070" fill-rule="evenodd" stroke="none"/>
    <path d="M124.9 174.0 L170.0 174.0 170.0 248.0 124.9 248.0 124.9 174.0" fill="#707070" fill-rule="evenodd" stroke="none"/>
    <path d="M75.15 184.95 L114.5 187.9 113.3 203.75 74.0 201.0 75.15 184.95" fill="#707070" fill-rule="evenodd" stroke="none"/>
    <path d="M18.85 214.0 L33.0 214.0 33.0 239.5 18.85 239.5 18.85 214.0" fill="#707070" fill-rule="evenodd" stroke="none"/>
    <path d="M18.85 242.0 L33.0 242.0 33.0 299.0 18.85 299.0 18.85 242.0" fill="#707070" fill-rule="evenodd" stroke="none"/>
    <path d="M108.3 275.3 L108.3 264.65 117.0 264.65 117.0 307.65 99.65 307.65 99.65 275.3 108.3 275.3" fill="#707070" fill-rule="evenodd" stroke="none"/>
    <path d="M101.0 316.65 L101.0 314.3 117.0 314.3 117.0 328.95 88.65 328.95 88.65 316.65 101.0 316.65" fill="#707070" fill-rule="evenodd" stroke="none"/>
    <path d="M93.25 209.0 L93.25 219.75 83.0 219.75 83.0 209.0 93.25 209.0" fill="#707070" fill-rule="evenodd" stroke="none"/>
    <path d="M104.25 219.75 L93.75 219.75 93.75 209.0 104.25 209.0 104.25 219.75" fill="#707070" fill-rule="evenodd" stroke="none"/>
    <path d="M105.25 221.0 L105.25 209.0 117.0 209.0 117.0 221.0 105.25 221.0" fill="#707070" fill-rule="evenodd" stroke="none"/>
    <path d="M-185.65 71.0 L-167.0 71.0 -167.0 223.5 -185.65 223.5 -185.65 71.0" fill="#707070" fill-rule="evenodd" stroke="none"/>
    <path d="M-184.5 -78.5 L-168.0 -78.5 -168.0 43.0 -184.5 43.0 -184.5 -78.5" fill="#707070" fill-rule="evenodd" stroke="none"/>
    <path d="M-185.65 68.5 L-185.65 50.5 -168.5 50.5 -168.5 68.5 -185.65 68.5" fill="#707070" fill-rule="evenodd" stroke="none"/>
    <path d="M-7.85 282.55 L-4.25 260.25 12.0 262.85 8.45 285.15 -7.85 282.55" fill="#707070" fill-rule="evenodd" stroke="none"/>
    <path d="M95.25 -22.5 L111.75 -22.5 111.75 -8.5 95.25 -8.5 95.25 -22.5" fill="#707070" fill-rule="evenodd" stroke="none"/>
    <path d="M78.5 -12.5 L70.3 -19.7 79.25 -29.85 87.4 -22.65 78.5 -12.5" fill="#707070" fill-rule="evenodd" stroke="none"/>
    <path d="M95.25 27.0 L111.75 27.0 111.75 41.0 95.25 41.0 95.25 27.0" fill="#707070" fill-rule="evenodd" stroke="none"/>
    <path d="M-154.45 310.9 L-154.45 301.3 -72.2 301.3 -72.2 310.9 -154.45 310.9" fill="#ffffff" fill-rule="evenodd" stroke="none"/>
    <path d="M50.2 338.55 L50.2 328.7 78.15 328.7 78.15 338.55 50.2 338.55" fill="#ffffff" fill-rule="evenodd" stroke="none"/>
    <path d="M116.65 170.3 L116.65 135.0 184.3 135.0 184.3 284.0 125.0 284.0 125.0 245.0 150.3 245.0 150.3 170.3 116.65 170.3" fill="#ffffff" fill-rule="evenodd" stroke="none"/>
  </g>
</svg>
