<?xml version="1.0" encoding="UTF-8" standalone="no"?>
<svg xmlns:ffdec="https://www.free-decompiler.com/flash" xmlns:xlink="http://www.w3.org/1999/xlink" ffdec:objectType="shape" height="14.45px" width="85.1px" xmlns="http://www.w3.org/2000/svg">
  <g transform="matrix(1.0, 0.0, 0.0, 1.0, 0.0, 0.0)">
    <path d="M84.8 2.25 L84.65 2.6 84.3 2.75 77.15 2.75 77.15 5.75 83.8 5.75 84.15 5.9 84.3 6.25 84.3 7.75 84.15 8.1 83.8 8.25 77.15 8.25 77.15 11.7 84.6 11.7 Q84.8 11.7 84.95 11.85 L85.1 12.2 85.1 13.75 84.95 14.1 84.6 14.25 74.85 14.25 Q74.65 14.25 74.5 14.1 L74.35 13.75 74.35 0.7 74.5 0.35 Q74.65 0.2 74.85 0.2 L84.3 0.2 84.65 0.35 84.8 0.7 84.8 2.25 M73.8 0.9 L68.7 13.95 68.5 14.2 68.2 14.25 66.45 14.25 66.2 14.15 66.0 13.95 61.0 0.9 61.0 0.55 61.15 0.3 61.45 0.2 63.25 0.2 63.55 0.3 63.75 0.55 67.15 10.05 67.15 10.0 67.35 10.65 67.6 10.05 71.15 0.55 71.35 0.3 71.6 0.2 73.3 0.2 73.6 0.3 73.8 0.6 73.8 0.9 M61.45 14.25 L59.3 14.25 59.05 14.2 58.9 14.05 57.15 11.3 56.0 9.6 55.95 9.55 55.25 8.85 54.55 8.55 54.6 8.55 53.7 8.5 52.2 8.5 52.2 13.75 52.05 14.1 51.7 14.25 49.95 14.25 49.6 14.1 49.45 13.75 49.45 0.7 Q49.45 0.5 49.6 0.35 49.75 0.2 49.95 0.2 L55.8 0.2 58.6 0.6 Q59.65 1.0 60.35 2.05 60.9 3.0 60.9 4.3 60.9 5.85 59.9 6.95 59.2 7.7 58.05 8.05 L58.1 8.1 59.65 9.95 61.9 13.5 61.95 13.85 61.8 14.15 61.45 14.25 M58.1 4.3 Q58.1 3.6 57.65 3.15 L57.6 3.15 Q57.05 2.65 55.85 2.65 L52.2 2.65 52.2 5.95 55.45 5.95 57.1 5.75 57.85 5.2 58.1 4.3 M47.8 0.7 L47.8 2.25 47.65 2.6 47.3 2.75 40.15 2.75 40.15 5.75 46.8 5.75 Q47.0 5.75 47.15 5.9 L47.3 6.25 47.3 7.75 47.15 8.1 46.8 8.25 40.15 8.25 40.15 11.7 47.6 11.7 Q47.8 11.7 47.95 11.85 L48.1 12.2 48.1 13.75 47.95 14.1 47.6 14.25 37.85 14.25 37.5 14.1 37.35 13.75 37.35 0.7 37.5 0.35 37.85 0.2 47.3 0.2 Q47.5 0.2 47.65 0.35 L47.8 0.7 M35.55 4.75 L35.2 4.9 33.5 5.0 33.15 4.9 32.95 4.55 Q32.85 3.6 32.25 3.0 31.55 2.5 30.3 2.5 28.95 2.5 28.35 2.95 L28.3 2.95 Q27.8 3.45 27.8 4.0 27.8 4.45 28.1 4.7 L28.15 4.75 30.55 5.6 30.5 5.55 Q32.7 6.0 33.45 6.4 L33.5 6.4 Q34.75 7.0 35.4 7.95 L35.45 7.95 Q36.0 8.85 36.0 10.05 36.0 11.25 35.4 12.25 L35.4 12.3 Q34.65 13.3 33.4 13.9 L30.7 14.45 27.55 13.9 Q26.2 13.3 25.45 12.2 24.65 11.0 24.6 9.6 24.6 9.4 24.75 9.25 L25.1 9.05 26.7 8.9 27.05 9.0 27.25 9.35 27.75 10.75 Q28.05 11.25 28.8 11.55 L28.85 11.55 30.6 11.9 32.2 11.65 33.05 11.05 33.3 10.2 33.05 9.45 Q32.75 9.1 32.15 8.9 L29.85 8.2 27.25 7.35 27.3 7.35 Q26.2 6.8 25.7 6.0 25.15 5.15 25.15 4.1 25.15 2.9 25.8 2.0 26.4 0.95 27.65 0.5 L27.6 0.5 Q28.8 0.0 30.25 0.0 31.75 0.0 32.95 0.5 34.2 1.0 34.9 2.05 35.6 3.05 35.65 4.4 L35.55 4.75 M23.05 2.75 L15.9 2.75 15.9 5.75 22.55 5.75 Q22.75 5.75 22.9 5.9 L23.05 6.25 23.05 7.75 22.9 8.1 22.55 8.25 15.9 8.25 15.9 11.7 23.35 11.7 23.7 11.85 23.85 12.2 23.85 13.75 23.7 14.1 23.35 14.25 13.6 14.25 13.25 14.1 13.1 13.75 13.1 0.7 13.25 0.35 Q13.4 0.2 13.6 0.2 L23.05 0.2 23.4 0.35 23.55 0.7 23.55 2.25 23.4 2.6 23.05 2.75 M11.4 4.3 Q11.4 5.85 10.45 6.95 9.75 7.7 8.55 8.05 L8.6 8.1 10.2 9.95 12.4 13.5 12.45 13.85 12.3 14.15 11.95 14.25 9.85 14.25 9.55 14.2 9.4 14.05 7.65 11.3 6.5 9.6 6.45 9.55 5.75 8.85 5.1 8.55 5.15 8.55 4.2 8.5 2.7 8.5 2.7 13.75 2.55 14.1 2.2 14.25 0.5 14.25 0.15 14.1 0.0 13.75 0.0 0.7 0.15 0.35 Q0.3 0.2 0.5 0.2 L6.3 0.2 9.1 0.6 Q10.2 1.0 10.85 2.05 11.4 3.0 11.4 4.3 M7.6 5.75 L8.35 5.2 8.6 4.3 Q8.6 3.6 8.15 3.15 L8.1 3.15 Q7.55 2.65 6.35 2.65 L2.7 2.65 2.7 5.95 5.95 5.95 7.6 5.75" fill="#cc6600" fill-opacity="0.047058824" fill-rule="evenodd" stroke="none"/>
  </g>
</svg>
