<?xml version="1.0" encoding="UTF-8" standalone="no"?>
<svg xmlns:ffdec="https://www.free-decompiler.com/flash" xmlns:xlink="http://www.w3.org/1999/xlink" ffdec:objectType="shape" height="80.45px" width="77.65px" xmlns="http://www.w3.org/2000/svg">
  <g transform="matrix(1.0, 0.0, 0.0, 1.0, 38.8, 30.45)">
    <path d="M5.4 -1.0 L29.35 -1.0 29.35 1.0 5.4 1.0 5.4 -1.0 M4.85 -17.35 L4.25 -17.15 -4.5 -17.15 -5.1 -17.35 -5.45 -17.85 -5.4 -18.5 -1.0 -29.8 -0.65 -30.25 -0.1 -30.45 0.5 -30.25 0.85 -29.8 5.2 -18.5 5.2 -17.85 4.85 -17.35 M0.85 0.95 Q0.45 1.35 -0.1 1.35 -0.7 1.35 -1.1 0.95 -1.5 0.55 -1.5 0.0 -1.5 -0.55 -1.1 -1.0 -0.7 -1.4 -0.1 -1.4 0.45 -1.4 0.85 -1.0 1.25 -0.55 1.25 0.0 1.25 0.55 0.85 0.95 M-29.6 -1.0 L-5.65 -1.0 -5.65 1.0 -29.6 1.0 -29.6 -1.0 M-0.1 -26.65 L-3.05 -19.15 2.8 -19.15 -0.1 -26.65" fill="#f47e20" fill-rule="evenodd" stroke="none"/>
    <path d="M35.35 35.35 Q20.75 50.0 0.0 50.0 -20.75 50.0 -35.35 35.35 L-38.0 32.55 -38.8 31.55 38.85 31.55 37.7 32.85 36.55 34.15 35.35 35.35" fill="#1f1f1f" fill-rule="evenodd" stroke="none"/>
    <path d="M-0.85 32.35 L0.65 32.35 0.75 46.05 -0.75 46.05 -0.85 32.35" fill="#d8d8d7" fill-rule="evenodd" stroke="none"/>
    <path d="M-20.7 32.4 L-19.2 32.35 -19.05 38.05 -20.55 38.1 -20.7 32.4" fill="#d8d8d7" fill-rule="evenodd" stroke="none"/>
    <path d="M18.95 32.4 L20.45 32.35 20.6 38.05 19.1 38.1 18.95 32.4" fill="#d8d8d7" fill-rule="evenodd" stroke="none"/>
  </g>
</svg>
