<?xml version="1.0" encoding="UTF-8" standalone="no"?>
<svg xmlns:ffdec="https://www.free-decompiler.com/flash" xmlns:xlink="http://www.w3.org/1999/xlink" ffdec:objectType="shape" height="47.15px" width="70.55px" xmlns="http://www.w3.org/2000/svg">
  <g transform="matrix(1.0, 0.0, 0.0, 1.0, 35.25, 26.05)">
    <path d="M3.75 5.4 L3.75 5.9 -3.7 5.9 -3.7 5.4 3.75 5.4 M6.7 10.45 L6.7 10.95 -6.65 10.95 -6.65 10.45 6.7 10.45 M5.0 15.5 L5.0 16.0 -4.95 16.0 -4.95 15.5 5.0 15.5 M9.8 20.6 L9.8 21.1 -9.75 21.1 -9.75 20.6 9.8 20.6" fill="#ffffff" fill-rule="evenodd" stroke="none"/>
    <path d="M7.75 -26.05 Q20.2 -25.8 27.8 -18.35 35.15 -11.25 35.3 -0.25 L-35.25 -0.25 Q-35.1 -11.4 -27.5 -18.6 -19.65 -26.05 -6.95 -26.05 L7.75 -26.05 M9.8 -20.1 L-9.75 -20.1 -9.75 -19.6 9.8 -19.6 9.8 -20.1 M5.0 -15.05 L-4.95 -15.05 -4.95 -14.55 5.0 -14.55 5.0 -15.05 M6.7 -10.0 L-6.65 -10.0 -6.65 -9.5 6.7 -9.5 6.7 -10.0 M3.75 -4.95 L-3.7 -4.95 -3.7 -4.45 3.75 -4.45 3.75 -4.95" fill="#558dba" fill-rule="evenodd" stroke="none"/>
  </g>
</svg>
