<?xml version="1.0" encoding="UTF-8" standalone="no"?>
<svg xmlns:ffdec="https://www.free-decompiler.com/flash" xmlns:xlink="http://www.w3.org/1999/xlink" ffdec:objectType="shape" height="21.1px" width="108.35px" xmlns="http://www.w3.org/2000/svg">
  <g transform="matrix(1.0, 0.0, 0.0, 1.0, -4.65, -29.65)">
    <path d="M96.95 30.05 L99.7 30.05 Q99.85 30.05 100.0 30.2 L100.05 30.4 100.05 38.2 109.65 38.2 109.65 30.4 109.8 30.2 Q109.85 30.05 110.0 30.05 L112.65 30.05 112.95 30.2 113.0 30.4 113.0 50.1 112.95 50.4 112.65 50.45 110.0 50.45 109.8 50.4 109.65 50.1 109.65 41.5 100.05 41.5 100.05 50.1 100.0 50.4 99.7 50.45 96.95 50.45 96.75 50.4 96.6 50.1 96.6 30.4 96.75 30.2 96.95 30.05 M94.75 36.85 L94.6 37.0 94.4 37.1 91.55 37.1 91.45 37.0 91.3 36.85 Q90.45 35.0 88.9 33.95 87.35 32.85 85.25 32.85 82.45 32.85 80.5 35.05 78.45 37.2 78.45 40.25 78.45 43.3 80.5 45.5 82.4 47.6 85.25 47.6 87.25 47.6 88.75 46.55 L88.85 46.55 Q90.4 45.55 91.3 43.6 L91.45 43.45 91.55 43.4 94.4 43.4 94.6 43.45 94.75 43.65 94.75 43.9 Q93.55 47.15 91.1 49.0 88.65 50.75 85.25 50.75 80.9 50.75 78.05 47.8 75.1 44.65 75.1 40.25 75.1 35.9 78.1 32.8 81.05 29.65 85.25 29.65 88.7 29.65 91.15 31.45 93.55 33.35 94.75 36.65 L94.75 36.85 M56.2 33.0 L56.1 33.3 55.85 33.35 44.6 33.35 44.6 38.25 54.7 38.25 Q54.85 38.25 55.0 38.4 L55.05 38.6 55.05 41.15 55.0 41.4 54.7 41.5 44.6 41.5 44.6 47.25 55.85 47.25 Q55.95 47.25 56.1 47.4 L56.2 47.6 56.2 50.1 56.1 50.4 55.85 50.45 41.6 50.45 41.4 50.4 41.25 50.1 41.25 30.4 41.4 30.2 Q41.45 30.05 41.6 30.05 L55.85 30.05 Q55.95 30.05 56.1 30.2 L56.2 30.4 56.2 33.0 M67.55 30.35 L74.8 50.05 74.8 50.25 74.7 50.4 74.45 50.45 71.55 50.45 71.3 50.4 71.25 50.25 69.3 44.85 62.05 44.85 60.05 50.25 59.9 50.4 59.7 50.45 56.9 50.45 56.65 50.4 56.55 50.25 56.6 50.0 64.05 30.3 64.1 30.15 Q64.15 30.05 64.3 30.05 L67.2 30.05 67.4 30.15 67.55 30.35 M68.1 41.7 L65.7 34.9 63.2 41.7 68.1 41.7 M19.25 33.5 Q19.65 34.55 19.65 35.8 19.65 37.1 19.05 38.25 L17.75 39.75 Q18.9 40.35 19.5 41.4 20.15 42.7 20.15 44.35 20.15 46.95 18.4 48.8 L16.3 50.1 13.65 50.45 5.0 50.45 4.8 50.4 4.65 50.1 4.65 30.4 4.8 30.2 Q4.85 30.05 5.0 30.05 L13.55 30.05 Q14.95 30.05 16.1 30.55 17.2 31.0 18.05 31.75 18.75 32.45 19.25 33.5 M13.55 33.35 L8.0 33.35 8.0 38.25 13.65 38.25 Q14.75 38.25 15.5 37.65 16.3 37.0 16.3 35.8 16.3 33.35 13.55 33.35 M8.0 47.25 L13.7 47.25 Q15.15 47.25 16.0 46.55 16.8 45.75 16.8 44.35 16.8 41.5 13.65 41.5 L8.0 41.5 8.0 47.25 M38.5 36.45 Q38.5 39.45 36.25 41.2 37.9 42.55 37.9 45.3 L37.9 47.65 38.0 48.85 38.35 50.05 38.35 50.25 38.25 50.4 38.0 50.45 35.35 50.45 35.2 50.4 35.1 50.25 34.65 49.3 34.65 49.2 34.6 47.95 34.6 45.3 Q34.6 42.85 31.85 42.85 L25.95 42.85 25.95 50.1 25.9 50.4 25.6 50.45 22.95 50.45 22.75 50.4 22.6 50.1 22.6 30.4 22.75 30.2 22.95 30.05 31.7 30.05 Q33.25 30.05 34.5 30.65 35.8 31.05 36.7 31.9 37.55 32.65 38.1 33.85 38.5 35.05 38.5 36.45 M31.7 33.35 L25.95 33.35 25.95 39.6 31.8 39.6 Q33.45 39.6 34.3 38.85 35.15 38.0 35.15 36.45 35.15 33.35 31.7 33.35" fill="#000000" fill-rule="evenodd" stroke="none"/>
  </g>
</svg>
