<?xml version="1.0" encoding="UTF-8" standalone="no"?>
<svg xmlns:ffdec="https://www.free-decompiler.com/flash" xmlns:xlink="http://www.w3.org/1999/xlink" ffdec:objectType="shape" height="895.4px" width="1338.0px" xmlns="http://www.w3.org/2000/svg">
  <g transform="matrix(1.0, 0.0, 0.0, 1.0, 653.0, 458.4)">
    <path d="M487.0 -218.3 L464.0 -218.0 464.0 -227.0 685.0 -225.0 685.0 -221.0 633.0 -220.25 633.0 -207.0 680.0 -207.0 680.0 185.55 633.0 185.55 633.0 198.85 685.0 199.55 685.0 203.55 464.0 205.55 464.0 196.55 487.0 196.9 487.0 68.8 160.0 80.55 154.0 110.55 140.0 124.55 122.0 137.55 102.0 144.55 77.0 145.55 73.0 145.2 73.0 154.55 40.0 154.55 40.0 162.55 28.0 166.55 -20.0 166.55 -20.0 154.55 -22.0 154.55 -22.0 146.55 -44.95 146.55 -69.0 341.05 -143.25 341.05 -143.25 356.15 -118.5 356.15 -111.6 357.35 -106.1 360.55 -102.15 365.7 -101.0 371.1 -101.0 422.05 -102.8 428.7 -106.3 432.75 -112.75 436.15 -118.5 437.0 -245.45 437.0 -251.1 436.2 -256.9 433.35 -261.65 427.75 -263.0 422.05 -263.0 371.1 -262.05 366.25 -257.85 360.55 -252.3 357.35 -245.45 356.15 -187.25 356.15 -187.25 341.05 -273.0 341.05 -239.0 146.55 -239.0 113.65 -259.3 108.55 -303.7 86.55 -476.0 86.55 -545.1 77.5 -553.0 79.55 -587.0 69.55 -606.0 60.55 -630.0 37.55 -645.0 19.55 -653.0 1.55 -653.0 -23.0 -645.0 -41.0 -630.0 -59.0 -606.0 -82.0 -587.0 -91.0 -553.0 -101.0 -545.1 -98.9 -476.0 -108.0 -303.7 -108.0 -259.3 -130.0 -239.0 -135.05 -239.0 -168.0 -273.0 -362.5 -187.25 -362.5 -187.25 -377.55 -245.45 -377.55 -252.3 -378.75 -257.85 -381.95 -262.05 -387.65 -263.0 -392.5 -263.0 -443.45 -261.65 -449.15 -256.9 -454.75 -251.1 -457.6 -245.45 -458.4 -118.5 -458.4 -112.75 -457.55 -106.3 -454.15 -102.8 -450.1 -101.0 -443.45 -101.0 -392.5 -102.15 -387.1 -106.1 -381.95 -111.6 -378.75 -118.5 -377.55 -143.25 -377.55 -143.25 -362.5 -69.0 -362.5 -44.95 -168.0 -22.0 -168.0 -22.0 -176.0 -20.0 -176.0 -20.0 -188.0 28.0 -188.0 40.0 -184.0 40.0 -176.0 73.0 -176.0 73.0 -166.6 77.0 -167.0 102.0 -166.0 122.0 -159.0 140.0 -146.0 154.0 -132.0 160.0 -102.0 487.0 -90.2 487.0 -218.3" fill="#434343" fill-rule="evenodd" stroke="none"/>
    <path d="M166.5 -75.0 L166.5 56.0 -274.5 56.0 -274.5 -75.0 166.5 -75.0" fill="#969696" fill-rule="evenodd" stroke="none"/>
    <path d="M-200.0 29.35 L-200.0 -8.3 -188.3 -8.3 -188.3 29.35 -200.0 29.35" fill="#707070" fill-rule="evenodd" stroke="none"/>
    <path d="M-160.65 24.7 L-184.3 24.7 -184.3 -6.0 -160.65 -6.0 -160.65 24.7" fill="#707070" fill-rule="evenodd" stroke="none"/>
    <path d="M-111.3 34.7 L-144.0 34.7 -144.0 9.35 -111.3 9.35 -111.3 34.7" fill="#707070" fill-rule="evenodd" stroke="none"/>
    <path d="M-188.3 -58.65 L-128.0 -58.65 -128.0 -40.65 -188.3 -40.65 -188.3 -58.65" fill="#707070" fill-rule="evenodd" stroke="none"/>
    <path d="M-71.0 -29.0 L-102.0 -29.0 -102.0 -55.0 -71.0 -55.0 -71.0 -29.0" fill="#707070" fill-rule="evenodd" stroke="none"/>
    <path d="M40.0 -68.0 L80.5 -68.0 80.5 -58.0 40.0 -58.0 40.0 -68.0" fill="#707070" fill-rule="evenodd" stroke="none"/>
    <path d="M125.0 -58.0 L83.0 -58.0 83.0 -68.0 125.0 -68.0 125.0 -58.0" fill="#707070" fill-rule="evenodd" stroke="none"/>
    <path d="M-37.65 -14.3 L-64.65 -14.3 -64.65 -55.3 -37.65 -55.3 -37.65 -14.3" fill="#707070" fill-rule="evenodd" stroke="none"/>
    <path d="M-49.3 36.7 L-80.0 36.7 -80.0 22.0 -49.3 22.0 -49.3 36.7" fill="#707070" fill-rule="evenodd" stroke="none"/>
    <path d="M-103.0 31.0 L-103.0 24.7 -87.3 24.7 -87.3 31.0 -103.0 31.0" fill="#707070" fill-rule="evenodd" stroke="none"/>
    <path d="M-112.0 -60.0 L-126.65 -60.0 -126.65 -67.0 -112.0 -67.0 -112.0 -60.0" fill="#707070" fill-rule="evenodd" stroke="none"/>
    <path d="M276.7 -79.0 L276.7 61.0 261.35 61.0 166.5 67.35 166.5 -87.0 261.35 -79.0 276.7 -79.0" fill="#ffffff" fill-rule="evenodd" stroke="none"/>
    <path d="M130.0 56.0 L130.0 45.5 166.5 45.5 166.5 56.0 130.0 56.0" fill="#434343" fill-rule="evenodd" stroke="none"/>
    <path d="M86.0 56.0 L86.0 45.5 122.5 45.5 122.5 56.0 86.0 56.0" fill="#434343" fill-rule="evenodd" stroke="none"/>
    <path d="M78.0 45.0 L78.0 56.0 41.5 56.0 41.5 45.0 78.0 45.0" fill="#434343" fill-rule="evenodd" stroke="none"/>
    <path d="M-3.0 56.0 L-3.0 46.0 33.5 46.0 33.5 56.0 -3.0 56.0" fill="#434343" fill-rule="evenodd" stroke="none"/>
    <path d="M32.5 -73.5 L32.5 -66.0 -2.5 -66.0 -2.5 -73.5 32.5 -73.5" fill="#434343" fill-rule="evenodd" stroke="none"/>
    <path d="M-11.0 46.5 L-11.0 56.0 -47.5 56.0 -47.5 46.5 -11.0 46.5" fill="#434343" fill-rule="evenodd" stroke="none"/>
    <path d="M166.5 -75.0 L166.5 -66.0 130.0 -66.0 130.0 -75.0 166.5 -75.0" fill="#434343" fill-rule="evenodd" stroke="none"/>
    <path d="M122.5 -75.0 L122.5 -66.0 86.0 -66.0 86.0 -75.0 122.5 -75.0" fill="#434343" fill-rule="evenodd" stroke="none"/>
    <path d="M-11.0 -75.0 L-11.0 -65.0 -47.5 -65.0 -47.5 -75.0 -11.0 -75.0" fill="#434343" fill-rule="evenodd" stroke="none"/>
    <path d="M-117.5 -75.0 L-117.5 -66.0 -154.0 -66.0 -154.0 -75.0 -117.5 -75.0" fill="#434343" fill-rule="evenodd" stroke="none"/>
    <path d="M-7.0 37.5 L-4.5 37.5 -4.5 56.0 -7.0 56.0 -7.0 37.5" fill="#434343" fill-rule="evenodd" stroke="none"/>
    <path d="M-8.0 -75.0 L-5.5 -75.0 -5.5 -58.5 -8.0 -58.5 -8.0 -75.0" fill="#434343" fill-rule="evenodd" stroke="none"/>
    <path d="M-261.5 46.5 L-261.5 48.0 -199.0 48.0 -199.0 46.5 -261.5 46.5 M-116.5 -75.0 L-114.0 -75.0 -114.0 -59.5 -93.5 -59.5 -93.5 -66.0 -110.5 -66.0 -110.5 -75.0 -74.0 -75.0 -74.0 -66.0 -91.0 -66.0 -91.0 -59.5 -71.5 -59.5 -71.5 -75.0 -69.0 -75.0 -69.0 -59.5 -52.0 -59.5 -52.0 -75.0 -49.5 -75.0 -49.5 -59.5 -49.0 -59.5 -49.0 -57.0 -184.5 -57.0 -184.5 -59.5 -182.0 -59.5 -182.0 -66.3 -190.5 -66.3 -190.45 -58.0 -261.5 -58.0 -261.5 38.5 -255.5 38.5 -255.5 28.5 -219.0 28.5 -219.0 38.0 -49.5 38.0 -49.5 40.5 -50.0 40.5 -50.0 56.0 -52.5 56.0 -52.5 40.5 -68.5 40.5 -68.5 56.0 -71.0 56.0 -71.0 40.5 -91.0 40.5 -91.0 46.5 -74.5 46.5 -74.5 56.0 -111.0 56.0 -111.0 46.5 -93.5 46.5 -93.5 40.5 -114.0 40.5 -114.0 56.0 -153.0 56.0 -153.0 46.0 -116.5 46.0 -116.5 40.5 -157.0 40.5 -157.0 56.0 -159.5 56.0 -159.5 40.5 -184.5 40.5 -184.5 45.5 -162.5 45.5 -162.5 56.0 -278.5 56.0 -278.5 -75.0 -261.5 -75.0 -261.5 -66.3 -244.5 -66.3 -244.5 -75.0 -207.5 -75.0 -207.5 -66.3 -198.5 -66.3 -198.5 -75.0 -162.0 -75.0 -162.0 -66.3 -179.5 -66.3 -179.5 -59.5 -160.0 -59.5 -160.0 -75.0 -157.5 -75.0 -157.5 -59.5 -116.5 -59.5 -116.5 -75.0" fill="#434343" fill-rule="evenodd" stroke="none"/>
    <path d="M37.0 37.5 L39.5 37.5 39.5 56.0 37.0 56.0 37.0 37.5" fill="#434343" fill-rule="evenodd" stroke="none"/>
    <path d="M37.5 -75.0 L40.0 -75.0 40.0 -58.5 37.5 -58.5 37.5 -75.0" fill="#434343" fill-rule="evenodd" stroke="none"/>
    <path d="M80.5 -75.0 L83.0 -75.0 83.0 -58.5 80.5 -58.5 80.5 -75.0" fill="#434343" fill-rule="evenodd" stroke="none"/>
    <path d="M81.0 37.5 L83.5 37.5 83.5 56.0 81.0 56.0 81.0 37.5" fill="#434343" fill-rule="evenodd" stroke="none"/>
    <path d="M125.5 37.5 L128.0 37.5 128.0 56.0 125.5 56.0 125.5 37.5" fill="#434343" fill-rule="evenodd" stroke="none"/>
    <path d="M125.0 -75.0 L127.5 -75.0 127.5 -58.5 125.0 -58.5 125.0 -75.0" fill="#434343" fill-rule="evenodd" stroke="none"/>
    <path d="M166.5 -54.3 L166.5 -87.0 175.0 -87.0 175.0 -55.7 252.0 -55.7 252.0 -54.3 166.5 -54.3" fill="#434343" fill-rule="evenodd" stroke="none"/>
    <path d="M249.7 34.7 L249.7 36.1 174.35 36.1 174.35 67.35 166.5 67.35 166.5 34.7 249.7 34.7" fill="#434343" fill-rule="evenodd" stroke="none"/>
  </g>
</svg>
