<?xml version="1.0" encoding="UTF-8" standalone="no"?>
<svg xmlns:ffdec="https://www.free-decompiler.com/flash" xmlns:xlink="http://www.w3.org/1999/xlink" ffdec:objectType="shape" height="13.35px" width="18.35px" xmlns="http://www.w3.org/2000/svg">
  <g transform="matrix(1.0, 0.0, 0.0, 1.0, 8.8, 6.65)">
    <path d="M-8.05 -1.6 Q-7.3 -2.4 -6.25 -2.4 -5.15 -2.4 -4.4 -1.6 -3.65 -0.85 -3.65 0.2 -3.65 1.25 -4.4 2.0 -5.15 2.75 -6.25 2.75 -7.3 2.75 -8.05 2.0 -8.8 1.25 -8.8 0.2 -8.8 -0.85 -8.05 -1.6 M2.85 -1.55 L7.95 -6.6 9.55 -5.0 4.45 0.05 9.5 5.1 7.9 6.7 2.85 1.6 -2.2 6.7 -3.8 5.1 1.3 0.05 -3.75 -5.05 -2.2 -6.65 2.85 -1.55" fill="#266692" fill-rule="evenodd" stroke="none"/>
  </g>
</svg>
