<?xml version="1.0" encoding="UTF-8" standalone="no"?>
<svg xmlns:ffdec="https://www.free-decompiler.com/flash" xmlns:xlink="http://www.w3.org/1999/xlink" ffdec:objectType="shape" height="12.35px" width="101.7px" xmlns="http://www.w3.org/2000/svg">
  <g transform="matrix(1.0, 0.0, 0.0, 1.0, -7.55, -2.8)">
    <path d="M102.0 9.6 L107.45 9.6 Q107.15 8.55 106.4 7.95 105.65 7.35 104.75 7.35 103.8 7.35 103.05 8.0 102.3 8.6 102.0 9.6 M109.1 12.15 Q108.6 13.7 107.5 14.45 106.45 15.15 104.85 15.15 L103.05 14.85 Q102.25 14.55 101.55 13.9 100.25 12.6 100.25 10.6 100.25 8.65 101.55 7.3 102.9 5.9 104.75 5.9 106.55 5.9 107.95 7.3 L108.95 8.9 109.25 11.05 101.9 11.05 Q102.05 12.3 102.85 13.0 103.7 13.75 104.85 13.75 106.6 13.75 107.4 12.15 L109.1 12.15 M92.7 6.1 L92.7 6.9 Q93.65 5.9 95.2 5.9 L96.65 6.15 97.7 6.95 98.4 8.15 98.65 9.7 98.65 15.0 97.05 15.0 97.05 9.65 Q97.05 8.6 96.5 8.0 95.95 7.4 95.0 7.4 L94.1 7.55 Q93.7 7.75 93.4 8.0 93.1 8.3 92.95 8.7 L92.75 9.6 92.75 15.0 91.15 15.0 91.15 6.1 92.7 6.1 M89.4 9.0 Q89.4 11.6 87.7 13.4 86.0 15.15 83.5 15.15 80.95 15.15 79.25 13.4 77.55 11.65 77.55 9.0 77.55 6.4 79.25 4.6 80.15 3.7 81.2 3.25 82.25 2.8 83.5 2.8 86.0 2.8 87.7 4.6 89.4 6.4 89.4 9.0 M86.55 5.65 Q85.3 4.35 83.5 4.35 81.7 4.35 80.45 5.7 79.15 7.05 79.15 9.0 79.15 11.0 80.45 12.35 81.7 13.65 83.5 13.65 85.3 13.65 86.55 12.35 87.8 11.0 87.8 9.0 87.8 7.0 86.55 5.65 M73.05 6.1 L73.05 4.25 74.65 4.25 74.65 6.1 76.65 6.1 76.65 7.65 74.65 7.65 74.65 11.75 Q74.65 12.75 75.1 13.15 75.6 13.6 76.65 13.55 L76.65 14.95 75.2 14.9 Q74.5 14.7 74.05 14.3 L73.3 13.25 Q73.05 12.6 73.05 11.75 L73.05 7.65 71.85 7.65 71.85 6.1 73.05 6.1 M71.2 11.05 L63.85 11.05 Q64.0 12.3 64.8 13.0 65.65 13.75 66.8 13.75 68.55 13.75 69.35 12.15 L71.05 12.15 Q70.55 13.7 69.45 14.45 68.4 15.15 66.8 15.15 L65.0 14.85 Q64.2 14.55 63.5 13.9 62.2 12.6 62.2 10.6 62.2 8.65 63.5 7.3 64.85 5.9 66.7 5.9 68.5 5.9 69.9 7.3 L70.9 8.9 71.2 11.05 M63.95 9.6 L69.4 9.6 Q69.1 8.55 68.35 7.95 67.6 7.35 66.7 7.35 65.75 7.35 65.0 8.0 64.25 8.6 63.95 9.6 M61.45 7.5 Q60.15 7.45 59.4 8.05 58.6 8.65 58.6 9.9 L58.6 15.0 57.0 15.0 57.0 6.1 58.55 6.1 58.55 6.9 Q59.05 6.35 59.85 6.05 L61.45 5.95 61.45 7.5 M55.5 9.0 L53.75 9.0 Q53.35 8.2 52.75 7.8 L51.3 7.4 Q50.1 7.4 49.25 8.3 48.45 9.25 48.45 10.6 48.45 11.85 49.25 12.85 50.1 13.75 51.3 13.75 52.15 13.75 52.75 13.3 L53.75 12.15 55.5 12.15 Q55.0 13.65 53.9 14.4 52.75 15.15 51.3 15.15 49.35 15.15 48.1 13.9 46.8 12.55 46.8 10.6 46.8 8.65 48.1 7.3 49.45 5.9 51.3 5.9 52.75 5.9 53.9 6.7 55.0 7.5 55.5 9.0 M45.85 11.05 L38.5 11.05 Q38.65 12.3 39.45 13.0 40.3 13.75 41.45 13.75 43.2 13.75 44.0 12.15 L45.7 12.15 Q45.2 13.7 44.1 14.45 43.05 15.15 41.45 15.15 L39.65 14.85 38.15 13.9 Q36.85 12.6 36.85 10.6 36.85 8.65 38.15 7.3 39.5 5.9 41.35 5.9 43.15 5.9 44.55 7.3 L45.55 8.9 45.85 11.05 M41.35 7.35 Q40.4 7.35 39.65 8.0 38.9 8.6 38.6 9.6 L44.05 9.6 Q43.75 8.55 43.0 7.95 42.25 7.35 41.35 7.35 M31.25 4.35 Q29.9 4.35 29.3 4.8 28.65 5.35 28.65 6.15 28.65 6.9 29.25 7.3 29.75 7.7 31.55 8.05 33.7 8.45 34.75 9.2 35.8 9.95 35.8 11.6 35.8 13.35 34.55 14.3 33.4 15.15 31.25 15.15 29.1 15.15 27.95 14.15 26.65 13.05 26.65 11.1 L28.35 11.1 Q28.35 12.3 29.15 13.0 29.95 13.7 31.25 13.7 32.75 13.7 33.45 13.15 34.2 12.55 34.2 11.6 34.2 10.8 33.6 10.35 L32.7 9.95 31.2 9.6 Q29.1 9.2 28.1 8.45 27.05 7.7 27.05 6.2 27.05 4.65 28.2 3.7 29.35 2.8 31.25 2.8 L33.0 3.05 Q33.8 3.3 34.35 3.8 L35.2 5.0 35.5 6.6 33.85 6.6 Q33.85 5.5 33.2 4.9 32.5 4.35 31.25 4.35 M23.05 6.1 L23.05 6.9 24.35 6.05 25.95 5.95 25.95 7.5 Q24.65 7.45 23.9 8.05 23.1 8.65 23.1 9.9 L23.1 15.0 21.5 15.0 21.5 6.1 23.05 6.1 M19.05 3.05 L19.05 15.0 17.45 15.0 17.45 5.55 14.15 15.0 12.45 15.0 9.15 5.55 9.15 15.0 7.55 15.0 7.55 3.05 9.9 3.05 13.3 12.85 16.7 3.05 19.05 3.05" fill="#000000" fill-rule="evenodd" stroke="none"/>
  </g>
</svg>
