<?xml version="1.0" encoding="UTF-8" standalone="no"?>
<svg xmlns:ffdec="https://www.free-decompiler.com/flash" xmlns:xlink="http://www.w3.org/1999/xlink" ffdec:objectType="shape" height="11.45px" width="122.35px" xmlns="http://www.w3.org/2000/svg">
  <g transform="matrix(1.0, 0.0, 0.0, 1.0, -3.7, -4.9)">
    <path d="M126.05 16.2 L124.4 16.2 124.4 14.55 126.05 14.55 126.05 16.2 M123.2 13.65 Q122.75 15.05 121.8 15.7 120.85 16.35 119.45 16.35 L117.85 16.1 Q117.15 15.8 116.55 15.2 115.4 14.05 115.4 12.3 115.4 10.6 116.55 9.4 117.75 8.15 119.35 8.15 120.95 8.15 122.15 9.4 L123.05 10.85 123.35 12.7 116.85 12.7 Q116.95 13.8 117.7 14.4 118.45 15.1 119.45 15.1 121.0 15.1 121.7 13.65 L123.2 13.65 M112.2 9.85 Q111.6 9.5 110.9 9.5 109.85 9.5 109.1 10.3 108.4 11.15 108.4 12.3 108.4 13.45 109.1 14.3 109.85 15.1 110.9 15.1 111.65 15.1 112.2 14.7 L113.1 13.65 114.6 13.65 Q114.15 15.0 113.2 15.65 112.2 16.35 110.9 16.35 109.2 16.35 108.1 15.2 106.95 14.0 106.95 12.3 106.95 10.6 108.1 9.4 109.3 8.15 110.9 8.15 112.2 8.15 113.2 8.85 114.15 9.55 114.6 10.9 L113.1 10.9 Q112.75 10.2 112.2 9.85 M119.35 9.45 Q118.55 9.45 117.85 10.0 117.2 10.55 116.95 11.4 L121.75 11.4 Q121.5 10.5 120.85 10.0 120.15 9.45 119.35 9.45 M105.45 5.65 L105.45 7.35 104.05 7.35 104.05 5.65 105.45 5.65 M102.95 8.35 L100.1 16.2 98.6 16.2 95.75 8.35 97.25 8.35 99.35 14.35 101.4 8.35 102.95 8.35 M105.45 8.35 L105.45 16.2 104.05 16.2 104.05 8.35 105.45 8.35 M92.9 8.35 L92.9 9.05 94.0 8.3 95.4 8.2 95.4 9.6 Q94.3 9.5 93.6 10.05 92.95 10.6 92.95 11.7 L92.95 16.2 91.5 16.2 91.5 8.35 92.9 8.35 M83.3 9.4 Q84.5 8.15 86.1 8.15 87.7 8.15 88.9 9.4 L89.8 10.85 90.1 12.7 83.6 12.7 Q83.7 13.8 84.45 14.4 85.2 15.1 86.2 15.1 87.75 15.1 88.45 13.65 L89.95 13.65 Q89.5 15.05 88.55 15.7 87.6 16.35 86.2 16.35 L84.6 16.1 83.3 15.2 Q82.15 14.05 82.15 12.3 82.15 10.6 83.3 9.4 M83.7 11.4 L88.5 11.4 Q88.25 10.5 87.6 10.0 86.9 9.45 86.1 9.45 85.3 9.45 84.6 10.0 83.95 10.55 83.7 11.4 M81.1 14.9 L80.4 15.7 Q79.5 16.35 78.05 16.35 76.6 16.35 75.65 15.65 74.7 14.95 74.5 13.65 L75.95 13.65 Q76.1 14.3 76.65 14.7 77.2 15.1 78.05 15.1 L79.4 14.75 Q79.9 14.4 79.9 13.9 79.9 13.5 79.55 13.25 79.15 12.95 77.9 12.75 L76.55 12.5 75.6 12.1 75.0 11.45 74.8 10.55 Q74.8 9.6 75.6 8.85 76.4 8.15 77.9 8.15 79.35 8.15 80.2 8.85 81.0 9.5 81.15 10.7 L79.7 10.7 Q79.6 10.1 79.1 9.8 L77.9 9.5 76.7 9.8 Q76.25 10.1 76.25 10.5 76.25 10.85 76.6 11.05 L77.15 11.2 78.15 11.4 79.15 11.55 79.95 11.85 80.95 12.55 81.3 13.85 81.1 14.9 M64.2 9.8 L63.8 10.2 Q63.6 10.5 63.55 10.85 L62.1 10.85 Q62.2 9.6 63.1 8.85 64.0 8.15 65.5 8.15 67.1 8.15 67.9 8.8 68.7 9.45 68.7 10.65 L68.7 14.9 68.75 15.55 68.95 16.2 67.55 16.2 67.35 15.45 Q66.9 15.9 66.25 16.15 L64.75 16.35 Q63.4 16.35 62.55 15.8 61.65 15.2 61.65 13.95 61.65 12.75 62.5 12.15 63.3 11.55 64.9 11.45 L66.05 11.35 66.8 11.15 67.2 10.85 67.3 10.5 Q67.3 10.05 66.9 9.75 L65.5 9.5 64.8 9.55 Q64.45 9.6 64.2 9.8 M67.3 13.2 L67.3 12.15 66.45 12.5 65.05 12.7 64.1 12.85 63.5 13.1 63.15 13.5 63.1 13.95 Q63.1 14.5 63.55 14.8 L64.8 15.05 66.6 14.6 Q67.3 14.1 67.3 13.2 M56.05 10.85 L56.35 12.7 49.85 12.7 Q49.95 13.8 50.7 14.4 51.45 15.1 52.45 15.1 54.0 15.1 54.7 13.65 L56.2 13.65 Q55.75 15.05 54.8 15.7 53.85 16.35 52.45 16.35 L50.85 16.1 49.55 15.2 Q48.4 14.05 48.4 12.3 48.4 10.6 49.55 9.4 50.75 8.15 52.35 8.15 53.95 8.15 55.15 9.4 L56.05 10.85 M50.85 10.0 Q50.2 10.55 49.95 11.4 L54.75 11.4 Q54.5 10.5 53.85 10.0 53.15 9.45 52.35 9.45 51.55 9.45 50.85 10.0 M41.05 10.55 Q41.05 9.6 41.85 8.85 42.65 8.15 44.15 8.15 45.6 8.15 46.45 8.85 47.25 9.5 47.4 10.7 L45.95 10.7 Q45.85 10.1 45.35 9.8 L44.15 9.5 Q43.4 9.5 42.95 9.8 42.5 10.1 42.5 10.5 42.5 10.85 42.85 11.05 L43.4 11.2 44.4 11.4 45.4 11.55 46.2 11.85 47.2 12.55 47.55 13.85 47.35 14.9 46.65 15.7 Q45.75 16.35 44.3 16.35 42.85 16.35 41.9 15.65 40.95 14.95 40.75 13.65 L42.2 13.65 Q42.35 14.3 42.9 14.7 43.45 15.1 44.3 15.1 L45.65 14.75 Q46.15 14.4 46.15 13.9 46.15 13.5 45.8 13.25 L44.15 12.75 42.8 12.5 41.85 12.1 41.25 11.45 41.05 10.55 M39.9 12.3 Q39.9 14.0 38.8 15.2 37.7 16.35 35.95 16.35 34.25 16.35 33.15 15.2 32.0 14.0 32.0 12.3 32.0 10.55 33.15 9.4 34.3 8.15 35.95 8.15 37.65 8.15 38.8 9.4 39.9 10.6 39.9 12.3 M37.75 10.3 Q37.0 9.5 35.95 9.5 34.95 9.5 34.2 10.3 33.45 11.15 33.45 12.3 33.45 13.45 34.2 14.3 34.95 15.1 35.95 15.1 37.0 15.1 37.75 14.3 38.5 13.45 38.5 12.3 38.5 11.15 37.75 10.3 M24.3 9.4 Q25.45 8.15 27.1 8.15 28.8 8.15 29.95 9.4 31.05 10.6 31.05 12.3 31.05 14.0 29.95 15.2 28.85 16.35 27.1 16.35 25.4 16.35 24.3 15.2 23.15 14.0 23.15 12.3 23.15 10.55 24.3 9.4 M21.7 11.5 L21.7 16.2 20.3 16.2 20.3 11.45 Q20.3 10.5 19.85 10.0 19.4 9.5 18.5 9.5 L17.75 9.6 Q17.35 9.8 17.1 10.05 L16.7 10.65 Q16.55 11.0 16.55 11.45 L16.55 16.2 15.1 16.2 15.1 4.9 16.55 4.9 16.55 9.0 Q17.4 8.15 18.7 8.15 L19.95 8.4 Q20.5 8.65 20.9 9.05 L21.5 10.15 21.7 11.5 M25.35 10.3 Q24.6 11.15 24.6 12.3 24.6 13.45 25.35 14.3 26.1 15.1 27.1 15.1 28.15 15.1 28.9 14.3 29.65 13.45 29.65 12.3 29.65 11.15 28.9 10.3 28.15 9.5 27.1 9.5 26.1 9.5 25.35 10.3 M13.85 9.0 L12.35 9.0 Q11.9 8.0 11.05 7.4 10.15 6.8 8.95 6.8 7.4 6.8 6.25 8.0 5.15 9.2 5.15 10.9 5.15 12.6 6.25 13.85 7.35 15.0 8.95 15.0 10.1 15.0 10.95 14.45 11.85 13.85 12.35 12.75 L13.85 12.75 Q13.25 14.5 11.95 15.45 10.7 16.35 8.95 16.35 6.7 16.35 5.25 14.8 3.7 13.2 3.7 10.9 3.7 8.65 5.25 7.05 6.8 5.4 8.95 5.4 10.75 5.4 12.0 6.35 13.25 7.35 13.85 9.0" fill="#ffffff" fill-rule="evenodd" stroke="none"/>
  </g>
</svg>
