<?xml version="1.0" encoding="UTF-8" standalone="no"?>
<svg xmlns:ffdec="https://www.free-decompiler.com/flash" xmlns:xlink="http://www.w3.org/1999/xlink" ffdec:objectType="shape" height="14.9px" width="55.15px" xmlns="http://www.w3.org/2000/svg">
  <g transform="matrix(1.0, 0.0, 0.0, 1.0, -4.4, -4.75)">
    <path d="M57.6 5.85 L57.6 7.65 59.5 7.65 59.5 9.1 57.6 9.1 57.6 12.95 Q57.6 13.85 58.05 14.25 58.5 14.7 59.55 14.6 L59.55 15.95 58.1 15.9 57.05 15.35 56.35 14.35 Q56.1 13.75 56.1 12.95 L56.1 9.1 55.0 9.1 55.0 7.65 56.1 7.65 56.1 5.85 57.6 5.85 M53.7 4.75 L53.7 6.55 52.15 6.55 52.15 4.75 53.7 4.75 M53.7 7.65 L53.7 16.0 52.15 16.0 52.15 7.65 53.7 7.65 M44.5 11.6 L43.9 10.9 43.7 9.95 Q43.7 8.95 44.55 8.2 45.4 7.4 47.0 7.4 48.5 7.4 49.45 8.15 50.35 8.85 50.5 10.15 L48.95 10.15 Q48.8 9.5 48.3 9.15 L47.0 8.85 45.7 9.15 Q45.25 9.5 45.25 9.9 45.25 10.3 45.6 10.5 L46.2 10.7 47.25 10.9 48.3 11.05 49.2 11.35 50.25 12.1 Q50.6 12.6 50.65 13.45 L50.4 14.6 49.65 15.5 Q48.75 16.2 47.15 16.2 45.6 16.2 44.6 15.4 43.6 14.65 43.4 13.25 L44.95 13.25 Q45.05 14.0 45.65 14.4 46.25 14.8 47.15 14.8 L48.6 14.45 Q49.15 14.05 49.15 13.55 49.15 13.1 48.75 12.85 L47.0 12.35 45.55 12.05 44.5 11.6 M42.55 11.85 Q42.55 13.7 41.3 14.95 40.15 16.15 38.3 16.15 36.45 16.15 35.3 14.95 34.1 13.7 34.1 11.85 34.1 10.0 35.3 8.75 36.55 7.4 38.3 7.4 40.1 7.4 41.3 8.75 42.55 10.05 42.55 11.85 M30.8 9.7 Q30.05 8.85 28.95 8.85 27.85 8.85 27.0 9.7 26.2 10.55 26.2 11.8 26.2 13.05 27.0 13.95 27.85 14.8 28.95 14.8 30.05 14.8 30.8 13.95 31.6 13.05 31.6 11.8 31.6 10.6 30.8 9.7 M33.1 11.8 L32.85 13.5 31.9 14.95 Q30.75 16.15 28.95 16.15 L27.4 15.85 Q26.7 15.5 26.2 14.95 L26.2 19.65 24.7 19.65 24.7 7.65 26.15 7.65 26.15 8.8 Q26.65 8.2 27.4 7.8 28.1 7.4 28.95 7.4 30.75 7.4 31.9 8.7 33.1 10.0 33.1 11.8 M35.6 11.85 Q35.6 13.1 36.4 13.95 37.2 14.8 38.3 14.8 39.4 14.8 40.2 13.95 41.0 13.1 41.0 11.85 41.0 10.6 40.2 9.7 39.4 8.85 38.3 8.85 37.2 8.85 36.4 9.7 35.6 10.6 35.6 11.85 M23.2 12.25 L16.3 12.25 Q16.4 13.45 17.2 14.1 17.95 14.85 19.05 14.85 20.7 14.85 21.45 13.3 L23.05 13.3 Q22.55 14.75 21.55 15.45 20.55 16.15 19.05 16.15 L17.35 15.85 Q16.6 15.6 15.95 14.95 14.75 13.7 14.75 11.85 14.75 10.0 15.95 8.75 17.25 7.4 18.95 7.4 20.65 7.4 21.95 8.75 22.6 9.4 22.9 10.25 L23.2 12.25 M20.5 9.35 Q19.8 8.8 18.95 8.8 18.05 8.8 17.35 9.4 16.65 9.95 16.4 10.9 L21.5 10.9 Q21.25 9.95 20.5 9.35 M13.75 10.4 Q13.75 13.0 12.35 14.5 L10.7 15.65 8.6 16.0 4.4 16.0 4.4 4.75 8.6 4.75 Q11.0 4.75 12.35 6.3 13.75 7.8 13.75 10.4 M11.2 7.25 L10.05 6.45 8.6 6.2 5.95 6.2 5.95 14.55 8.6 14.55 10.05 14.3 11.2 13.55 11.9 12.25 12.2 10.4 11.9 8.55 Q11.65 7.75 11.2 7.25" fill="#ffffff" fill-rule="evenodd" stroke="none"/>
  </g>
</svg>
