<?xml version="1.0" encoding="UTF-8" standalone="no"?>
<svg xmlns:ffdec="https://www.free-decompiler.com/flash" xmlns:xlink="http://www.w3.org/1999/xlink" ffdec:objectType="shape" height="11.4px" width="33.1px" xmlns="http://www.w3.org/2000/svg">
  <g transform="matrix(1.0, 0.0, 0.0, 1.0, -3.3, -4.8)">
    <path d="M33.75 11.25 L33.75 16.05 32.25 16.05 32.25 7.7 33.7 7.7 33.7 8.45 Q34.15 7.9 34.9 7.65 L36.4 7.5 36.4 9.0 Q35.2 8.95 34.5 9.5 33.75 10.1 33.75 11.25 M24.5 7.7 L24.5 12.8 Q24.5 13.8 25.0 14.35 25.5 14.9 26.45 14.9 27.35 14.9 27.9 14.3 28.55 13.7 28.55 12.8 L28.55 7.7 30.05 7.7 30.05 16.05 28.6 16.05 28.6 15.3 Q27.7 16.2 26.25 16.2 L24.9 15.95 23.85 15.25 23.25 14.15 23.0 12.7 23.0 7.7 24.5 7.7 M21.5 11.9 Q21.5 13.75 20.25 15.0 19.1 16.2 17.25 16.2 15.4 16.2 14.25 15.0 13.05 13.75 13.05 11.9 13.05 10.05 14.25 8.8 15.5 7.45 17.25 7.45 19.05 7.45 20.25 8.8 21.5 10.1 21.5 11.9 M12.65 4.8 L8.7 11.2 8.7 16.05 7.2 16.05 7.2 11.2 3.3 4.8 5.05 4.8 7.95 9.8 10.9 4.8 12.65 4.8 M19.15 9.75 Q18.35 8.9 17.25 8.9 16.15 8.9 15.35 9.75 14.55 10.65 14.55 11.9 14.55 13.15 15.35 14.0 16.15 14.85 17.25 14.85 18.35 14.85 19.15 14.0 19.95 13.15 19.95 11.9 19.95 10.65 19.15 9.75" fill="#ffffff" fill-rule="evenodd" stroke="none"/>
  </g>
</svg>
