<?xml version="1.0" encoding="UTF-8" standalone="no"?>
<svg xmlns:ffdec="https://www.free-decompiler.com/flash" xmlns:xlink="http://www.w3.org/1999/xlink" ffdec:objectType="shape" height="15.15px" width="42.15px" xmlns="http://www.w3.org/2000/svg">
  <g transform="matrix(1.0, 0.0, 0.0, 1.0, -6.9, -3.2)">
    <path d="M42.1 6.35 L42.1 7.5 Q42.6 6.9 43.35 6.5 44.05 6.1 44.9 6.1 46.7 6.1 47.85 7.4 49.05 8.7 49.05 10.5 L48.8 12.2 47.85 13.65 Q46.7 14.85 44.9 14.85 L43.35 14.55 42.15 13.65 42.15 18.35 40.65 18.35 40.65 6.35 42.1 6.35 M42.95 8.4 Q42.15 9.25 42.15 10.5 42.15 11.75 42.95 12.65 43.8 13.5 44.9 13.5 46.0 13.5 46.75 12.65 47.55 11.75 47.55 10.5 47.55 9.3 46.75 8.4 46.0 7.55 44.9 7.55 43.8 7.55 42.95 8.4 M38.45 6.35 L38.45 14.7 37.0 14.7 37.0 13.95 Q36.1 14.85 34.65 14.85 L33.3 14.6 32.25 13.9 31.65 12.8 31.4 11.35 31.4 6.35 32.9 6.35 32.9 11.45 Q32.9 12.45 33.4 13.0 33.9 13.55 34.85 13.55 35.75 13.55 36.3 12.95 36.95 12.35 36.95 11.45 L36.95 6.35 38.45 6.35 M28.15 4.55 L28.15 6.35 30.05 6.35 30.05 7.8 28.15 7.8 28.15 11.65 Q28.15 12.55 28.6 12.95 29.05 13.4 30.1 13.3 L30.1 14.65 28.65 14.6 27.6 14.05 26.9 13.05 Q26.65 12.45 26.65 11.65 L26.65 7.8 25.55 7.8 25.55 6.35 26.65 6.35 26.65 4.55 28.15 4.55 M22.25 8.05 Q21.55 7.5 20.7 7.5 19.8 7.5 19.1 8.1 18.4 8.65 18.15 9.6 L23.25 9.6 Q23.0 8.65 22.25 8.05 M24.8 12.0 Q24.3 13.45 23.3 14.15 22.3 14.85 20.8 14.85 L19.1 14.55 17.7 13.65 Q16.5 12.4 16.5 10.55 16.5 8.7 17.7 7.45 19.0 6.1 20.7 6.1 22.4 6.1 23.7 7.45 24.35 8.1 24.65 8.95 L24.95 10.95 18.05 10.95 Q18.15 12.15 18.95 12.8 19.7 13.55 20.8 13.55 22.45 13.55 23.2 12.0 L24.8 12.0 M11.2 4.65 Q9.95 4.65 9.35 5.1 8.75 5.6 8.75 6.35 8.75 7.05 9.3 7.45 9.8 7.85 11.5 8.15 13.5 8.55 14.5 9.25 15.5 9.95 15.5 11.5 15.5 13.15 14.3 14.05 13.25 14.85 11.2 14.85 9.2 14.85 8.1 13.9 6.9 12.85 6.9 11.05 L8.45 11.05 Q8.45 12.15 9.2 12.8 9.95 13.45 11.2 13.45 12.6 13.45 13.3 12.95 13.95 12.4 13.95 11.5 13.95 10.75 13.4 10.35 L12.6 9.9 11.15 9.6 Q9.2 9.25 8.2 8.55 7.25 7.8 7.25 6.4 7.25 4.95 8.3 4.05 9.4 3.2 11.2 3.2 L12.85 3.45 Q13.6 3.7 14.1 4.15 14.65 4.6 14.9 5.3 L15.2 6.8 13.65 6.8 Q13.65 5.75 13.05 5.2 12.4 4.65 11.2 4.65" fill="#ffffff" fill-rule="evenodd" stroke="none"/>
  </g>
</svg>
