<?xml version="1.0" encoding="UTF-8" standalone="no"?>
<svg xmlns:ffdec="https://www.free-decompiler.com/flash" xmlns:xlink="http://www.w3.org/1999/xlink" ffdec:objectType="shape" height="15.25px" width="25.9px" xmlns="http://www.w3.org/2000/svg">
  <g transform="matrix(1.0, 0.0, 0.0, 1.0, -3.65, -4.8)">
    <path d="M25.3 7.45 L26.85 7.85 28.05 8.85 28.05 7.7 29.55 7.7 29.55 15.6 Q29.55 17.55 28.35 18.8 27.15 20.05 25.2 20.05 23.65 20.05 22.65 19.3 L21.75 18.4 21.25 17.2 22.8 17.2 23.3 17.95 Q23.6 18.25 24.0 18.35 L24.65 18.55 25.2 18.6 Q26.6 18.6 27.3 17.7 28.0 16.75 28.0 15.6 L28.0 15.0 26.8 15.9 25.3 16.25 Q23.45 16.25 22.3 15.0 21.1 13.75 21.1 11.9 21.1 10.05 22.3 8.75 23.5 7.45 25.3 7.45 M23.4 9.75 Q22.6 10.65 22.6 11.9 22.6 13.2 23.4 14.0 24.15 14.9 25.3 14.9 26.35 14.9 27.2 14.0 28.0 13.15 28.0 11.9 28.0 10.65 27.2 9.75 26.35 8.9 25.3 8.9 24.15 8.9 23.4 9.75 M20.15 11.9 Q20.15 13.75 18.9 15.0 17.75 16.2 15.9 16.2 14.05 16.2 12.9 15.0 11.7 13.75 11.7 11.9 11.7 10.05 12.9 8.8 14.15 7.45 15.9 7.45 17.7 7.45 18.9 8.8 20.15 10.1 20.15 11.9 M15.9 8.9 Q14.8 8.9 14.0 9.75 13.2 10.65 13.2 11.9 13.2 13.15 14.0 14.0 14.8 14.85 15.9 14.85 17.0 14.85 17.8 14.0 18.6 13.15 18.6 11.9 18.6 10.65 17.8 9.75 17.0 8.9 15.9 8.9 M5.2 4.8 L5.2 14.6 10.9 14.6 10.9 16.05 3.65 16.05 3.65 4.8 5.2 4.8" fill="#ffffff" fill-rule="evenodd" stroke="none"/>
  </g>
</svg>
