<?xml version="1.0" encoding="UTF-8" standalone="no"?>
<svg xmlns:ffdec="https://www.free-decompiler.com/flash" xmlns:xlink="http://www.w3.org/1999/xlink" ffdec:objectType="shape" height="13.0px" width="193.6px" xmlns="http://www.w3.org/2000/svg">
  <g transform="matrix(1.0, 0.0, 0.0, 1.0, -6.95, -2.25)">
    <path d="M195.35 7.8 Q194.8 8.15 194.8 8.6 194.8 9.0 195.2 9.2 L195.85 9.4 196.95 9.6 198.1 9.8 199.05 10.1 Q199.8 10.4 200.15 10.9 L200.55 12.35 Q200.6 13.05 200.3 13.6 L199.5 14.5 Q198.55 15.25 196.9 15.25 195.25 15.25 194.15 14.45 193.05 13.65 192.85 12.15 L194.5 12.15 Q194.65 12.9 195.3 13.35 195.9 13.8 196.9 13.8 197.85 13.8 198.4 13.4 199.0 13.0 199.0 12.45 199.0 12.0 198.55 11.7 L196.7 11.15 195.15 10.85 194.05 10.4 193.4 9.65 193.2 8.65 Q193.2 7.55 194.1 6.75 195.0 5.95 196.7 5.95 198.3 5.95 199.3 6.7 200.25 7.45 200.4 8.85 L198.75 8.85 Q198.6 8.15 198.05 7.8 197.55 7.45 196.7 7.45 195.85 7.45 195.35 7.8 M185.4 6.15 L185.4 6.95 Q186.35 5.95 187.9 5.95 L189.35 6.2 190.4 7.0 191.1 8.2 191.35 9.75 191.35 15.05 189.75 15.05 189.75 9.7 Q189.75 8.65 189.2 8.05 188.65 7.45 187.7 7.45 L186.8 7.6 Q186.4 7.8 186.1 8.05 185.8 8.35 185.65 8.75 L185.45 9.65 185.45 15.05 183.85 15.05 183.85 6.15 185.4 6.15 M182.2 10.65 Q182.2 12.6 180.9 13.95 179.65 15.2 177.7 15.2 175.75 15.2 174.5 13.95 173.2 12.6 173.2 10.65 173.2 8.65 174.5 7.35 175.85 5.95 177.7 5.95 179.6 5.95 180.9 7.35 182.2 8.7 182.2 10.65 M177.7 7.45 Q176.55 7.45 175.7 8.35 174.85 9.3 174.85 10.65 174.85 11.95 175.7 12.9 176.55 13.8 177.7 13.8 178.85 13.8 179.7 12.9 180.55 11.95 180.55 10.65 180.55 9.3 179.7 8.35 178.9 7.45 177.7 7.45 M171.55 6.15 L171.55 15.05 169.9 15.05 169.9 6.15 171.55 6.15 M171.55 5.0 L169.9 5.0 169.9 3.1 171.55 3.1 171.55 5.0 M164.85 6.15 L164.85 4.3 166.45 4.3 166.45 6.15 168.45 6.15 168.45 7.7 166.45 7.7 166.45 11.8 Q166.45 12.8 166.9 13.2 167.4 13.65 168.45 13.6 L168.45 15.0 167.0 14.95 Q166.3 14.75 165.85 14.35 L165.1 13.3 Q164.85 12.65 164.85 11.8 L164.85 7.7 163.65 7.7 163.65 6.15 164.85 6.15 M155.7 7.35 Q157.05 5.95 158.9 5.95 160.35 5.95 161.5 6.75 162.6 7.55 163.1 9.05 L161.35 9.05 Q160.95 8.25 160.35 7.85 L158.9 7.45 Q157.7 7.45 156.85 8.35 156.05 9.3 156.05 10.65 156.05 11.9 156.85 12.9 157.7 13.8 158.9 13.8 L160.35 13.35 161.35 12.2 163.1 12.2 Q162.6 13.7 161.5 14.45 160.35 15.2 158.9 15.2 156.95 15.2 155.7 13.95 154.4 12.6 154.4 10.65 154.4 8.7 155.7 7.35 M143.8 12.35 Q143.85 13.05 143.55 13.6 L142.75 14.5 Q141.8 15.25 140.15 15.25 138.5 15.25 137.4 14.45 136.3 13.65 136.1 12.15 L137.75 12.15 Q137.9 12.9 138.55 13.35 L140.15 13.8 Q141.1 13.8 141.65 13.4 142.25 13.0 142.25 12.45 142.25 12.0 141.8 11.7 141.4 11.4 139.95 11.15 L138.4 10.85 137.3 10.4 136.65 9.65 136.45 8.65 Q136.45 7.55 137.35 6.75 138.25 5.95 139.95 5.95 141.55 5.95 142.55 6.7 143.5 7.45 143.65 8.85 L142.0 8.85 Q141.85 8.15 141.3 7.8 140.8 7.45 139.95 7.45 139.1 7.45 138.6 7.8 138.05 8.15 138.05 8.6 138.05 9.0 138.45 9.2 L139.1 9.4 140.2 9.6 141.35 9.8 142.3 10.1 143.4 10.9 143.8 12.35 M146.4 6.75 Q147.4 5.95 149.15 5.95 150.95 5.95 151.85 6.7 152.75 7.4 152.75 8.75 L152.75 13.55 152.85 14.3 153.05 15.05 151.45 15.05 151.2 14.2 150.0 15.0 148.3 15.2 Q146.75 15.2 145.8 14.6 144.75 13.95 144.75 12.5 144.75 11.15 145.7 10.45 146.65 9.75 148.45 9.7 L149.75 9.55 150.6 9.3 151.05 9.0 151.2 8.6 Q151.2 8.1 150.7 7.75 150.2 7.45 149.15 7.45 L148.35 7.5 Q147.95 7.6 147.65 7.8 147.35 7.95 147.15 8.25 146.95 8.6 146.9 9.0 L145.25 9.0 Q145.4 7.55 146.4 6.75 M147.55 11.25 Q147.1 11.35 146.85 11.55 L146.5 11.95 146.4 12.5 Q146.4 13.1 146.9 13.45 L148.35 13.8 Q149.5 13.8 150.35 13.25 151.2 12.65 151.2 11.65 L151.2 10.45 150.2 10.85 148.6 11.05 147.55 11.25 M132.45 8.05 Q131.9 7.45 130.95 7.45 L130.05 7.6 129.35 8.05 128.9 8.75 128.7 9.65 128.7 15.05 127.1 15.05 127.1 6.15 128.65 6.15 128.65 6.95 Q129.6 5.95 131.15 5.95 L132.6 6.2 133.65 7.0 134.35 8.2 134.6 9.75 134.6 15.05 133.0 15.05 133.0 9.7 Q133.0 8.65 132.45 8.05 M123.25 10.45 L122.25 10.85 120.65 11.05 119.6 11.25 Q119.15 11.35 118.9 11.55 L118.55 11.95 118.45 12.5 Q118.45 13.1 118.95 13.45 119.45 13.8 120.4 13.8 121.55 13.8 122.4 13.25 123.25 12.65 123.25 11.65 L123.25 10.45 M122.65 9.3 L123.1 9.0 123.25 8.6 Q123.25 8.1 122.75 7.75 L121.2 7.45 120.4 7.5 Q120.0 7.6 119.7 7.8 L119.2 8.25 118.95 9.0 117.3 9.0 Q117.45 7.55 118.45 6.75 119.45 5.95 121.2 5.95 123.0 5.95 123.9 6.7 124.8 7.4 124.8 8.75 L124.8 13.55 124.9 14.3 125.1 15.05 123.5 15.05 123.25 14.2 122.05 15.0 120.35 15.2 Q118.8 15.2 117.85 14.6 116.8 13.95 116.8 12.5 116.8 11.15 117.75 10.45 118.7 9.75 120.5 9.7 L121.8 9.55 122.65 9.3 M116.05 6.0 L116.05 7.55 Q114.75 7.5 114.0 8.1 113.2 8.7 113.2 9.95 L113.2 15.05 111.6 15.05 111.6 6.15 113.15 6.15 113.15 6.95 114.45 6.1 116.05 6.0 M106.55 4.65 L106.55 15.05 104.9 15.05 104.9 4.65 101.2 4.65 101.2 3.1 110.25 3.1 110.25 4.65 106.55 4.65 M94.85 2.25 L94.85 15.05 93.25 15.05 93.25 13.85 92.0 14.9 90.35 15.25 Q88.35 15.25 87.15 13.95 85.85 12.6 85.85 10.65 85.85 8.7 87.15 7.3 88.4 5.95 90.35 5.95 L91.95 6.35 93.2 7.35 93.2 2.25 94.85 2.25 M92.35 8.4 Q91.5 7.45 90.35 7.45 89.15 7.45 88.3 8.4 87.5 9.3 87.5 10.65 87.5 12.0 88.3 12.9 89.15 13.8 90.35 13.8 91.5 13.8 92.35 12.9 93.2 11.95 93.2 10.65 93.2 9.35 92.35 8.4 M84.9 11.1 L77.55 11.1 Q77.7 12.35 78.5 13.05 79.35 13.8 80.5 13.8 82.25 13.8 83.05 12.2 L84.75 12.2 Q84.25 13.75 83.15 14.5 82.1 15.2 80.5 15.2 L78.7 14.9 Q77.9 14.6 77.2 13.95 75.9 12.65 75.9 10.65 75.9 8.7 77.2 7.35 78.55 5.95 80.4 5.95 82.2 5.95 83.6 7.35 L84.6 8.95 84.9 11.1 M82.05 8.0 Q81.3 7.4 80.4 7.4 79.45 7.4 78.7 8.05 77.95 8.65 77.65 9.65 L83.1 9.65 Q82.8 8.6 82.05 8.0 M75.35 6.15 L72.1 15.05 70.45 15.05 67.2 6.15 68.9 6.15 71.3 12.95 73.6 6.15 75.35 6.15 M64.45 8.6 Q64.45 8.1 63.95 7.75 L62.4 7.45 61.6 7.5 Q61.2 7.6 60.9 7.8 L60.4 8.25 60.15 9.0 58.5 9.0 Q58.65 7.55 59.65 6.75 60.65 5.95 62.4 5.95 64.2 5.95 65.1 6.7 66.0 7.4 66.0 8.75 L66.0 13.55 66.1 14.3 66.3 15.05 64.7 15.05 64.45 14.2 63.25 15.0 61.55 15.2 Q60.0 15.2 59.05 14.6 58.0 13.95 58.0 12.5 58.0 11.15 58.95 10.45 59.9 9.75 61.7 9.7 L63.0 9.55 63.85 9.3 64.3 9.0 64.45 8.6 M60.8 11.25 Q60.35 11.35 60.1 11.55 L59.75 11.95 59.65 12.5 Q59.65 13.1 60.15 13.45 L61.6 13.8 Q62.75 13.8 63.6 13.25 64.45 12.65 64.45 11.65 L64.45 10.45 63.45 10.85 61.85 11.05 60.8 11.25 M52.4 4.4 Q51.05 4.4 50.45 4.85 49.8 5.4 49.8 6.2 49.8 6.95 50.4 7.35 50.9 7.75 52.7 8.1 54.85 8.5 55.9 9.25 56.95 10.0 56.95 11.65 56.95 13.4 55.7 14.35 54.55 15.2 52.4 15.2 50.25 15.2 49.1 14.2 47.8 13.1 47.8 11.15 L49.5 11.15 Q49.5 12.35 50.3 13.05 51.1 13.75 52.4 13.75 53.9 13.75 54.6 13.2 55.35 12.6 55.35 11.65 55.35 10.85 54.75 10.4 L53.85 10.0 52.35 9.65 Q50.25 9.25 49.25 8.5 48.2 7.75 48.2 6.25 48.2 4.7 49.35 3.75 50.5 2.85 52.4 2.85 L54.15 3.1 55.5 3.85 56.35 5.05 56.65 6.65 55.0 6.65 Q55.0 5.55 54.35 4.95 53.65 4.4 52.4 4.4 M42.1 7.55 Q40.8 7.5 40.05 8.1 39.25 8.7 39.25 9.95 L39.25 15.05 37.65 15.05 37.65 6.15 39.2 6.15 39.2 6.95 Q39.7 6.4 40.5 6.1 L42.1 6.0 42.1 7.55 M35.35 6.15 L35.35 15.05 33.8 15.05 33.8 14.25 Q32.9 15.2 31.3 15.2 L29.85 14.95 28.8 14.2 28.1 13.05 27.85 11.5 27.85 6.15 29.45 6.15 29.45 11.6 Q29.45 12.65 30.0 13.25 30.55 13.8 31.55 13.8 32.45 13.8 33.1 13.2 33.75 12.55 33.75 11.6 L33.75 6.15 35.35 6.15 M24.95 7.35 Q26.25 8.7 26.25 10.65 26.25 12.6 24.95 13.95 23.7 15.2 21.75 15.2 19.8 15.2 18.55 13.95 17.25 12.6 17.25 10.65 17.25 8.65 18.55 7.35 19.9 5.95 21.75 5.95 23.65 5.95 24.95 7.35 M23.75 8.35 Q22.95 7.45 21.75 7.45 20.6 7.45 19.75 8.35 18.9 9.3 18.9 10.65 18.9 11.95 19.75 12.9 20.6 13.8 21.75 13.8 22.9 13.8 23.75 12.9 24.6 11.95 24.6 10.65 24.6 9.3 23.75 8.35 M15.0 3.1 L16.85 3.1 12.7 9.9 12.7 15.05 11.1 15.05 11.1 9.9 6.95 3.1 8.8 3.1 11.9 8.4 15.0 3.1" fill="#000000" fill-rule="evenodd" stroke="none"/>
  </g>
</svg>
