<?xml version="1.0" encoding="UTF-8" standalone="no"?>
<svg xmlns:ffdec="https://www.free-decompiler.com/flash" xmlns:xlink="http://www.w3.org/1999/xlink" ffdec:objectType="shape" height="13.75px" width="77.75px" xmlns="http://www.w3.org/2000/svg">
  <g transform="matrix(1.0, 0.0, 0.0, 1.0, -4.25, -3.55)">
    <path d="M82.0 12.9 L74.25 12.9 Q74.4 14.2 75.25 15.0 76.1 15.8 77.35 15.8 79.2 15.8 80.05 14.1 L81.85 14.1 Q81.3 15.7 80.15 16.5 79.05 17.3 77.35 17.3 L75.45 16.95 Q74.6 16.65 73.85 15.95 72.5 14.55 72.5 12.45 72.5 10.35 73.85 8.95 75.3 7.45 77.25 7.45 79.15 7.45 80.6 8.95 81.35 9.7 81.7 10.65 82.05 11.6 82.0 12.9 M77.25 9.05 Q76.25 9.05 75.4 9.7 74.65 10.3 74.35 11.35 L80.1 11.35 Q79.8 10.3 79.0 9.65 78.2 9.05 77.25 9.05 M64.65 8.3 Q65.6 7.45 67.4 7.45 69.1 7.45 70.15 8.25 71.15 9.05 71.3 10.55 L69.6 10.55 Q69.4 9.8 68.85 9.4 68.3 9.05 67.4 9.05 66.5 9.05 65.95 9.4 65.4 9.8 65.4 10.25 65.4 10.7 65.8 10.9 L66.5 11.15 67.65 11.35 68.9 11.55 69.9 11.9 71.05 12.75 Q71.45 13.25 71.5 14.25 L71.2 15.55 70.4 16.55 Q69.35 17.3 67.6 17.3 65.85 17.3 64.7 16.45 63.55 15.6 63.35 14.05 L65.05 14.05 Q65.2 14.85 65.9 15.3 66.55 15.8 67.6 15.8 68.6 15.8 69.2 15.35 69.85 14.9 69.85 14.35 L69.4 13.55 Q68.9 13.2 67.4 13.0 L65.75 12.65 Q65.1 12.5 64.6 12.15 L63.95 11.4 Q63.7 10.95 63.7 10.3 63.7 9.15 64.65 8.3 M61.65 6.45 L59.95 6.45 59.95 4.45 61.65 4.45 61.65 6.45 M61.65 17.1 L59.95 17.1 59.95 7.7 61.65 7.7 61.65 17.1 M55.45 11.7 L55.45 17.1 53.7 17.1 53.7 7.7 55.4 7.7 55.4 8.55 Q55.9 7.95 56.7 7.65 L58.4 7.5 58.4 9.15 Q57.05 9.1 56.25 9.75 55.45 10.4 55.45 11.7 M50.55 8.95 Q51.95 10.4 51.95 12.45 51.95 14.5 50.55 15.9 49.25 17.3 47.2 17.3 45.1 17.3 43.8 15.9 42.45 14.5 42.45 12.45 42.45 10.35 43.8 8.95 45.2 7.45 47.2 7.45 49.2 7.45 50.55 8.95 M45.05 10.05 Q44.15 11.05 44.15 12.45 44.15 13.8 45.05 14.8 45.95 15.8 47.2 15.8 48.45 15.8 49.35 14.8 50.25 13.8 50.25 12.45 50.25 11.05 49.35 10.05 48.45 9.05 47.2 9.05 45.95 9.05 45.05 10.05 M40.7 17.1 L39.0 17.1 39.0 11.4 Q39.0 10.3 38.45 9.65 37.9 9.05 36.8 9.05 L35.9 9.2 Q35.5 9.4 35.15 9.7 L34.65 10.45 Q34.5 10.9 34.5 11.4 L34.5 17.1 32.75 17.1 32.75 3.55 34.5 3.55 34.5 8.5 Q35.5 7.45 37.05 7.45 37.9 7.45 38.6 7.75 L39.7 8.55 40.45 9.85 40.7 11.45 40.7 17.1 M31.2 9.3 L29.05 9.3 29.05 13.65 Q29.05 14.7 29.55 15.15 30.1 15.65 31.2 15.55 L31.2 17.05 29.65 16.95 Q28.95 16.8 28.45 16.35 L27.65 15.25 Q27.4 14.55 27.4 13.65 L27.4 9.3 26.1 9.3 26.1 7.7 27.4 7.7 27.4 5.7 29.05 5.7 29.05 7.7 31.2 7.7 31.2 9.3 M24.65 7.7 L24.65 17.1 23.0 17.1 23.0 16.3 Q22.05 17.3 20.4 17.3 L18.85 17.0 Q18.2 16.7 17.7 16.2 L17.0 15.0 Q16.75 14.25 16.75 13.35 L16.75 7.7 18.45 7.7 18.45 13.45 Q18.45 14.55 19.0 15.2 19.55 15.8 20.65 15.8 21.6 15.8 22.25 15.15 22.95 14.45 22.95 13.45 L22.95 7.7 24.65 7.7 M8.0 11.9 L11.75 11.9 9.9 6.7 8.0 11.9 M4.25 17.1 L9.0 4.45 10.85 4.45 15.55 17.1 13.65 17.1 12.35 13.5 7.4 13.5 6.05 17.1 4.25 17.1" fill="#000000" fill-rule="evenodd" stroke="none"/>
  </g>
</svg>
