<?xml version="1.0" encoding="UTF-8" standalone="no"?>
<svg xmlns:ffdec="https://www.free-decompiler.com/flash" xmlns:xlink="http://www.w3.org/1999/xlink" ffdec:objectType="shape" height="8.55px" width="24.3px" xmlns="http://www.w3.org/2000/svg">
  <g transform="matrix(1.0, 0.0, 0.0, 1.0, -6.1, -4.4)">
    <path d="M30.4 7.55 Q29.5 7.5 28.95 7.95 28.4 8.35 28.4 9.25 L28.4 12.8 27.25 12.8 27.25 6.55 28.35 6.55 28.35 7.15 Q28.7 6.7 29.25 6.55 L30.4 6.45 30.4 7.55 M25.2 7.4 L25.95 8.55 26.15 10.05 20.95 10.05 Q21.05 10.9 21.65 11.4 22.25 11.95 23.05 11.95 24.3 11.95 24.85 10.8 L26.05 10.8 Q25.7 11.9 24.95 12.45 24.15 12.95 23.05 12.95 L21.8 12.75 20.75 12.05 Q19.8 11.15 19.8 9.7 19.8 8.35 20.75 7.4 21.7 6.4 23.0 6.4 24.25 6.4 25.2 7.4 M24.15 7.85 Q23.65 7.45 23.0 7.45 22.3 7.45 21.75 7.9 21.25 8.3 21.05 9.0 L24.9 9.0 24.15 7.85 M12.65 4.4 L12.65 9.8 Q12.65 11.25 11.75 12.15 10.9 12.95 9.4 12.95 7.85 12.95 7.0 12.15 6.1 11.25 6.1 9.8 L6.1 4.4 7.25 4.4 7.25 9.8 7.4 10.65 7.8 11.3 8.5 11.75 9.4 11.9 Q10.4 11.9 10.95 11.3 11.5 10.75 11.5 9.8 L11.5 4.4 12.65 4.4 M14.6 6.95 Q15.2 6.4 16.4 6.4 17.55 6.4 18.2 6.95 18.9 7.45 19.0 8.45 L17.85 8.45 17.35 7.7 Q17.0 7.45 16.4 7.45 L15.45 7.7 15.05 8.25 Q15.05 8.55 15.35 8.7 L15.8 8.85 16.6 9.0 17.4 9.15 18.05 9.35 18.85 9.9 19.1 10.95 18.95 11.8 18.4 12.45 Q17.7 12.95 16.55 12.95 15.35 12.95 14.6 12.4 13.85 11.85 13.7 10.8 L14.85 10.8 Q14.95 11.35 15.4 11.65 L16.55 11.95 17.6 11.65 Q18.0 11.4 18.0 11.0 L17.7 10.45 16.4 10.1 15.3 9.9 14.55 9.55 14.1 9.05 13.95 8.3 Q13.95 7.55 14.6 6.95" fill="#000000" fill-rule="evenodd" stroke="none"/>
  </g>
</svg>
