<?xml version="1.0" encoding="UTF-8" standalone="no"?>
<svg xmlns:ffdec="https://www.free-decompiler.com/flash" xmlns:xlink="http://www.w3.org/1999/xlink" ffdec:objectType="shape" height="12.65px" width="15.0px" xmlns="http://www.w3.org/2000/svg">
  <g transform="matrix(1.0, 0.0, 0.0, 1.0, -6.9, -5.75)">
    <path d="M20.35 16.75 Q19.5 17.6 18.5 18.0 L16.15 18.4 11.4 18.4 11.4 5.75 16.15 5.75 Q18.8 5.75 20.35 7.5 21.9 9.2 21.9 12.1 21.9 15.05 20.35 16.75 M16.15 7.4 L13.15 7.4 13.15 16.8 16.15 16.8 17.8 16.5 19.05 15.65 19.85 14.15 20.15 12.1 19.85 10.0 Q19.6 9.1 19.05 8.55 18.5 7.95 17.8 7.7 L16.15 7.4 M8.6 5.75 L8.6 18.4 6.9 18.4 6.9 5.75 8.6 5.75" fill="#000000" fill-rule="evenodd" stroke="none"/>
  </g>
</svg>
