<?xml version="1.0" encoding="UTF-8" standalone="no"?>
<svg xmlns:ffdec="https://www.free-decompiler.com/flash" xmlns:xlink="http://www.w3.org/1999/xlink" ffdec:objectType="shape" height="16.0px" width="118.55px" xmlns="http://www.w3.org/2000/svg">
  <g transform="matrix(1.0, 0.0, 0.0, 1.0, -5.3, -4.85)">
    <path d="M121.85 8.15 L123.85 8.15 123.85 9.7 121.85 9.7 121.85 13.8 Q121.85 14.8 122.3 15.2 122.8 15.65 123.85 15.6 L123.85 17.0 122.4 16.95 Q121.7 16.75 121.25 16.35 L120.5 15.3 Q120.25 14.65 120.25 13.8 L120.25 9.7 119.05 9.7 119.05 8.15 120.25 8.15 120.25 6.3 121.85 6.3 121.85 8.15 M115.75 8.2 L116.8 9.0 117.5 10.2 117.75 11.75 117.75 17.05 116.15 17.05 116.15 11.7 Q116.15 10.65 115.6 10.05 115.05 9.45 114.1 9.45 L113.2 9.6 112.5 10.05 Q112.2 10.35 112.05 10.75 L111.85 11.65 111.85 17.05 110.25 17.05 110.25 8.15 111.8 8.15 111.8 8.95 Q112.75 7.95 114.3 7.95 L115.75 8.2 M108.35 10.95 L108.65 13.1 101.3 13.1 Q101.45 14.35 102.25 15.05 103.1 15.8 104.25 15.8 106.0 15.8 106.8 14.2 L108.5 14.2 Q108.0 15.75 106.9 16.5 105.85 17.2 104.25 17.2 L102.45 16.9 Q101.65 16.6 100.95 15.95 99.65 14.65 99.65 12.65 99.65 10.7 100.95 9.35 102.3 7.95 104.15 7.95 105.95 7.95 107.35 9.35 L108.35 10.95 M104.15 9.4 Q103.2 9.4 102.45 10.05 101.7 10.65 101.4 11.65 L106.85 11.65 Q106.55 10.6 105.8 10.0 105.05 9.4 104.15 9.4 M94.5 9.45 L93.75 9.6 93.1 10.05 92.7 10.75 Q92.55 11.15 92.55 11.65 L92.55 17.05 90.95 17.05 90.95 11.55 Q90.95 10.55 90.5 10.0 90.0 9.45 89.05 9.45 L88.3 9.6 Q87.9 9.8 87.65 10.05 L87.2 10.75 Q87.05 11.15 87.05 11.65 L87.05 17.05 85.45 17.05 85.45 8.15 87.0 8.15 87.0 8.95 Q87.9 7.95 89.25 7.95 91.05 7.95 91.95 9.35 92.9 7.95 94.7 7.95 96.3 7.95 97.15 8.9 98.05 9.9 98.05 11.6 L98.05 17.05 96.4 17.05 96.4 11.55 Q96.4 10.55 95.95 10.0 95.5 9.45 94.5 9.45 M84.25 8.15 L80.3 18.65 Q79.8 19.9 79.0 20.45 L76.8 20.8 76.8 19.3 78.05 19.1 78.75 18.05 79.25 16.95 75.85 8.15 77.6 8.15 80.1 14.95 82.5 8.15 84.25 8.15 M74.65 10.75 L74.65 15.55 74.75 16.3 74.95 17.05 73.35 17.05 73.1 16.2 71.9 17.0 70.2 17.2 Q68.65 17.2 67.7 16.6 66.65 15.95 66.65 14.5 66.65 13.15 67.6 12.45 68.55 11.75 70.35 11.7 L71.65 11.55 72.5 11.3 72.95 11.0 73.1 10.6 Q73.1 10.1 72.6 9.75 L71.05 9.45 70.25 9.5 Q69.85 9.6 69.55 9.8 L69.05 10.25 Q68.85 10.6 68.8 11.0 L67.15 11.0 Q67.3 9.55 68.3 8.75 69.3 7.95 71.05 7.95 72.85 7.95 73.75 8.7 74.65 9.4 74.65 10.75 M64.8 6.15 L65.55 7.3 65.8 8.75 65.55 10.25 64.8 11.4 Q64.3 11.9 63.6 12.15 L61.95 12.45 58.5 12.45 58.5 17.05 56.9 17.05 56.9 5.1 61.95 5.1 63.6 5.4 Q64.3 5.65 64.8 6.15 M63.6 10.35 Q64.2 9.85 64.2 8.75 64.2 7.7 63.6 7.15 63.0 6.65 61.95 6.65 L58.5 6.65 58.5 10.9 61.95 10.9 Q63.0 10.9 63.6 10.35 M68.4 13.95 L68.3 14.5 Q68.3 15.1 68.8 15.45 L70.25 15.8 Q71.4 15.8 72.25 15.25 73.1 14.65 73.1 13.65 L73.1 12.45 72.1 12.85 70.5 13.05 69.45 13.25 68.75 13.55 68.4 13.95 M53.3 9.7 L53.3 13.8 Q53.3 14.8 53.75 15.2 54.25 15.65 55.3 15.6 L55.3 17.0 53.85 16.95 Q53.15 16.75 52.7 16.35 L51.95 15.3 Q51.7 14.65 51.7 13.8 L51.7 9.7 50.5 9.7 50.5 8.15 51.7 8.15 51.7 6.3 53.3 6.3 53.3 8.15 55.3 8.15 55.3 9.7 53.3 9.7 M45.35 7.95 Q47.15 7.95 48.55 9.35 L49.55 10.95 49.85 13.1 42.5 13.1 Q42.65 14.35 43.45 15.05 44.3 15.8 45.45 15.8 47.2 15.8 48.0 14.2 L49.7 14.2 Q49.2 15.75 48.1 16.5 47.05 17.2 45.45 17.2 L43.65 16.9 Q42.85 16.6 42.15 15.95 40.85 14.65 40.85 12.65 40.85 10.7 42.15 9.35 43.5 7.95 45.35 7.95 M42.6 11.65 L48.05 11.65 Q47.75 10.6 47.0 10.0 46.25 9.4 45.35 9.4 44.4 9.4 43.65 10.05 42.9 10.65 42.6 11.65 M34.15 11.05 L32.4 11.05 Q32.0 10.25 31.4 9.85 30.75 9.45 29.95 9.45 28.75 9.45 27.9 10.35 27.1 11.3 27.1 12.65 27.1 13.9 27.9 14.9 28.75 15.8 29.95 15.8 30.8 15.8 31.4 15.35 L32.4 14.2 34.15 14.2 Q33.65 15.7 32.55 16.45 31.4 17.2 29.95 17.2 28.0 17.2 26.75 15.95 25.45 14.6 25.45 12.65 25.45 10.7 26.75 9.35 28.1 7.95 29.95 7.95 31.4 7.95 32.55 8.75 33.65 9.55 34.15 11.05 M37.25 11.95 L37.25 17.05 35.65 17.05 35.65 8.15 37.2 8.15 37.2 8.95 38.5 8.1 40.1 8.0 40.1 9.55 Q38.8 9.5 38.05 10.1 37.25 10.7 37.25 11.95 M24.2 10.95 L24.5 13.1 17.15 13.1 Q17.3 14.35 18.1 15.05 18.95 15.8 20.1 15.8 21.85 15.8 22.65 14.2 L24.35 14.2 Q23.85 15.75 22.75 16.5 21.7 17.2 20.1 17.2 L18.3 16.9 16.8 15.95 Q15.5 14.65 15.5 12.65 15.5 10.7 16.8 9.35 18.15 7.95 20.0 7.95 21.8 7.95 23.2 9.35 L24.2 10.95 M21.65 10.0 Q20.9 9.4 20.0 9.4 19.05 9.4 18.3 10.05 17.55 10.65 17.25 11.65 L22.7 11.65 Q22.4 10.6 21.65 10.0 M13.0 5.85 L13.85 7.05 14.15 8.65 12.5 8.65 Q12.5 7.55 11.85 6.95 11.15 6.4 9.9 6.4 8.55 6.4 7.95 6.85 7.3 7.4 7.3 8.2 7.3 8.95 7.9 9.35 8.4 9.75 10.2 10.1 12.35 10.5 13.4 11.25 14.45 12.0 14.45 13.65 14.45 15.4 13.2 16.35 12.05 17.2 9.9 17.2 7.75 17.2 6.6 16.2 5.3 15.1 5.3 13.15 L7.0 13.15 Q7.0 14.35 7.8 15.05 8.6 15.75 9.9 15.75 11.4 15.75 12.1 15.2 12.85 14.6 12.85 13.65 12.85 12.85 12.25 12.4 11.95 12.15 11.35 12.0 L9.85 11.65 Q7.75 11.25 6.75 10.5 5.7 9.75 5.7 8.25 5.7 6.7 6.85 5.75 8.0 4.85 9.9 4.85 L11.65 5.1 Q12.45 5.35 13.0 5.85" fill="#000000" fill-rule="evenodd" stroke="none"/>
  </g>
</svg>
