<?xml version="1.0" encoding="UTF-8" standalone="no"?>
<svg xmlns:ffdec="https://www.free-decompiler.com/flash" xmlns:xlink="http://www.w3.org/1999/xlink" ffdec:objectType="shape" height="13.75px" width="30.55px" xmlns="http://www.w3.org/2000/svg">
  <g transform="matrix(1.0, 0.0, 0.0, 1.0, -2.7, -6.5)">
    <path d="M31.1 12.25 L31.1 16.6 Q31.1 17.65 31.6 18.1 32.15 18.6 33.25 18.5 L33.25 20.0 31.7 19.9 Q31.0 19.75 30.5 19.3 L29.7 18.2 Q29.45 17.5 29.45 16.6 L29.45 12.25 28.15 12.25 28.15 10.65 29.45 10.65 29.45 8.65 31.1 8.65 31.1 10.65 33.25 10.65 33.25 12.25 31.1 12.25 M20.85 6.5 L22.55 6.5 22.55 20.05 20.9 20.05 20.9 18.8 Q20.35 19.5 19.55 19.85 18.7 20.25 17.75 20.25 15.7 20.25 14.4 18.9 13.05 17.45 13.05 15.4 13.05 13.3 14.4 11.85 15.75 10.4 17.75 10.4 L19.5 10.8 20.85 11.9 20.85 6.5 M25.0 7.4 L26.7 7.4 26.7 9.4 25.0 9.4 25.0 7.4 M26.7 10.65 L26.7 20.05 25.0 20.05 25.0 10.65 26.7 10.65 M11.85 9.05 L4.45 9.05 4.45 12.65 11.1 12.65 11.1 14.3 4.45 14.3 4.45 18.45 11.85 18.45 11.85 20.05 2.7 20.05 2.7 7.4 11.85 7.4 11.85 9.05 M19.9 17.75 Q20.85 16.8 20.85 15.4 20.85 14.0 19.9 13.0 19.0 12.0 17.75 12.0 16.5 12.0 15.65 13.0 14.75 14.0 14.75 15.4 14.75 16.85 15.65 17.75 16.5 18.75 17.75 18.75 19.0 18.75 19.9 17.75" fill="#ffffff" fill-rule="evenodd" stroke="none"/>
  </g>
</svg>
