<?xml version="1.0" encoding="UTF-8" standalone="no"?>
<svg xmlns:ffdec="https://www.free-decompiler.com/flash" xmlns:xlink="http://www.w3.org/1999/xlink" ffdec:objectType="shape" height="14.8px" width="25.75px" xmlns="http://www.w3.org/2000/svg">
  <g transform="matrix(1.0, 0.0, 0.0, 1.0, -7.2, -7.95)">
    <path d="M32.95 10.85 L29.25 20.7 Q28.75 21.9 28.0 22.4 L25.95 22.7 25.95 21.35 27.1 21.15 27.8 20.15 28.25 19.1 25.05 10.85 26.7 10.85 29.05 17.25 31.3 10.85 32.95 10.85 M23.1 11.3 Q23.95 12.0 23.95 13.25 L23.95 17.8 24.05 18.5 24.25 19.2 22.75 19.2 22.5 18.4 21.35 19.15 19.75 19.35 Q18.3 19.35 17.4 18.75 16.45 18.15 16.45 16.8 16.45 15.55 17.3 14.9 18.2 14.2 19.9 14.15 L21.15 14.05 21.95 13.8 22.35 13.5 22.5 13.1 Q22.5 12.65 22.0 12.35 L20.55 12.05 19.8 12.1 19.15 12.35 18.7 12.8 Q18.5 13.1 18.45 13.5 L16.9 13.5 Q17.0 12.15 17.95 11.4 18.9 10.6 20.55 10.6 22.25 10.6 23.1 11.3 M22.45 14.9 L21.55 15.25 20.05 15.45 19.05 15.6 18.4 15.9 18.05 16.3 17.95 16.8 Q17.95 17.4 18.45 17.7 L19.8 18.0 Q20.9 18.0 21.7 17.5 22.5 16.95 22.5 16.0 L22.45 14.9 M15.6 11.4 L15.35 12.8 14.65 13.9 13.5 14.6 11.95 14.85 8.75 14.85 8.75 19.2 7.2 19.2 7.2 7.95 11.95 7.95 13.5 8.2 14.65 8.9 15.35 10.0 15.6 11.4 M11.95 9.4 L8.75 9.4 8.75 13.4 11.95 13.4 Q13.0 13.4 13.55 12.9 14.1 12.45 14.1 11.4 14.1 10.4 13.55 9.9 13.0 9.4 11.95 9.4" fill="#ffffff" fill-rule="evenodd" stroke="none"/>
  </g>
</svg>
