<?xml version="1.0" encoding="UTF-8" standalone="no"?>
<svg xmlns:ffdec="https://www.free-decompiler.com/flash" xmlns:xlink="http://www.w3.org/1999/xlink" ffdec:objectType="shape" height="316.0px" width="19.25px" xmlns="http://www.w3.org/2000/svg">
  <g transform="matrix(1.0, 0.0, 0.0, 1.0, 10.5, -0.5)">
    <path d="M1.5 1.5 Q3.45 1.55 4.25 2.65 L4.5 3.5 5.3 4.6 5.5 5.5 Q9.85 11.7 7.05 20.35 L6.5 20.5 7.45 26.5 7.5 27.5 Q9.25 34.75 8.0 44.45 L7.5 44.5 7.6 45.45 Q8.15 47.65 6.5 47.5 L7.45 53.5 7.5 54.5 8.0 54.55 Q9.75 66.75 6.5 74.5 L6.5 77.5 6.5 78.5 Q8.2 78.8 7.6 81.5 L7.5 82.5 Q9.25 89.25 8.0 98.45 L7.5 98.5 7.6 99.45 Q8.15 101.65 6.5 101.5 8.45 108.55 8.5 117.5 L8.5 118.5 8.55 119.5 Q9.4 125.9 6.5 128.5 L6.5 132.5 6.5 133.5 Q10.65 146.45 6.65 160.55 6.5 161.0 6.5 161.5 9.7 168.8 8.0 180.45 L7.5 180.5 7.6 181.45 Q8.15 183.65 6.5 183.5 6.25 188.3 7.35 191.55 L7.5 192.5 Q9.25 199.25 8.0 208.45 L7.5 208.5 7.3 209.4 6.5 210.5 6.6 211.45 Q7.15 213.65 5.5 213.5 7.7 215.8 8.4 219.5 L8.5 220.5 8.5 253.5 8.5 254.5 8.5 304.5 8.5 305.5 8.5 315.5 8.5 316.5 7.5 316.5 6.5 316.5 -8.5 316.5 -9.5 316.5 -10.5 316.5 -10.5 315.5 -10.5 297.5 -10.5 296.5 -10.5 224.5 -9.5 224.5 -9.5 223.5 -9.5 216.5 -8.4 215.7 -7.5 215.5 -7.5 214.5 Q-5.85 214.65 -6.4 212.45 L-6.5 211.5 -7.3 211.25 Q-8.7 210.25 -8.5 207.5 L-9.0 207.45 Q-9.5 202.5 -9.5 197.5 L-9.5 196.5 -9.5 193.5 -7.1 188.7 Q-7.0 188.5 -6.5 188.5 L-6.35 187.55 Q-5.55 185.6 -7.5 182.5 L-8.05 182.35 Q-9.25 179.25 -9.5 175.5 L-9.5 174.5 -9.5 165.5 -8.5 165.5 -8.5 164.5 -8.5 162.5 Q-7.0 161.5 -6.1 159.7 L-5.5 159.5 -5.5 158.5 -5.5 157.5 -6.35 157.25 Q-7.45 156.45 -7.5 154.5 L-8.05 154.35 Q-8.5 153.0 -8.5 151.5 L-9.0 151.45 Q-9.5 144.5 -9.5 137.5 L-8.5 137.5 -8.5 136.5 -8.5 135.5 Q-6.85 135.65 -7.0 133.5 L-6.5 133.5 -6.3 132.65 Q-5.3 131.05 -6.5 128.5 L-7.3 128.25 Q-8.7 127.2 -8.5 124.5 L-9.0 124.45 Q-9.5 117.5 -9.5 110.5 L-8.5 110.5 -8.5 109.5 -8.5 108.5 -7.5 108.5 -7.5 107.5 -7.5 106.5 -6.5 106.5 -6.5 105.5 -6.5 104.5 -5.7 103.4 -5.5 102.5 -6.25 102.25 Q-8.3 100.3 -8.5 96.5 L-9.0 96.45 Q-9.5 90.0 -9.5 83.5 L-8.5 83.5 -8.5 82.5 -8.5 80.5 -7.4 79.7 -6.5 79.5 -6.3 78.6 Q-5.0 76.45 -6.5 73.5 -7.0 73.5 -7.1 73.3 -7.5 72.5 -7.5 71.5 L-8.0 71.45 Q-8.5 62.5 -8.5 53.5 -7.0 52.5 -6.1 50.7 L-5.5 50.5 -5.5 49.5 -5.5 47.5 -6.1 47.3 Q-9.7 39.2 -8.5 26.5 -7.0 25.5 -6.1 23.7 L-5.5 23.5 -5.6 22.5 -6.5 18.5 Q-7.0 18.5 -7.1 18.3 -7.5 17.5 -7.5 16.5 L-8.0 16.4 Q-8.5 13.5 -8.5 10.5 L-7.7 9.4 -7.5 8.5 -7.5 7.5 Q-5.8 7.2 -6.0 4.5 L-5.5 4.5 -5.5 3.5 -1.75 1.2 Q-1.5 1.0 -1.5 0.5 L0.5 0.5 1.5 0.5 1.5 1.5" fill="#009900" fill-rule="evenodd" stroke="none"/>
  </g>
</svg>
