<?xml version="1.0" encoding="UTF-8" standalone="no"?>
<svg xmlns:ffdec="https://www.free-decompiler.com/flash" xmlns:xlink="http://www.w3.org/1999/xlink" ffdec:objectType="shape" height="316.0px" width="19.35px" xmlns="http://www.w3.org/2000/svg">
  <g transform="matrix(1.0, 0.0, 0.0, 1.0, 10.5, -0.5)">
    <path d="M1.5 0.5 Q7.9 5.1 7.0 16.45 L6.5 16.5 6.5 19.5 6.5 20.5 Q9.55 23.95 8.55 31.5 L8.5 32.5 8.55 33.5 Q9.45 40.5 6.5 43.5 6.15 46.85 7.25 48.65 L7.5 49.5 8.3 50.6 8.5 51.5 8.5 60.5 8.5 61.5 8.55 62.5 Q9.3 68.3 6.5 70.5 6.75 74.25 7.4 77.5 L7.5 78.5 8.0 78.55 Q9.75 90.75 6.5 98.5 L6.5 101.5 6.5 102.5 Q10.5 111.95 7.6 123.55 L7.5 124.5 7.25 125.25 6.5 125.5 6.5 129.5 6.5 130.5 Q9.75 136.25 8.55 146.5 L8.5 147.5 8.4 148.5 Q7.85 150.85 6.5 152.5 L6.3 153.4 5.5 154.5 Q7.3 156.7 7.5 160.5 L7.5 161.5 Q9.25 168.25 8.0 177.45 L7.5 177.5 7.3 178.4 6.5 179.5 6.5 184.5 6.5 185.5 Q8.15 185.4 7.6 187.55 L7.5 188.5 Q9.25 195.25 8.0 204.45 L7.5 204.5 7.6 205.45 Q8.15 207.65 6.5 207.5 L6.3 208.4 5.5 209.5 Q7.3 211.7 8.0 215.4 L8.5 215.5 8.5 226.5 8.5 227.5 8.5 244.5 8.5 245.5 8.5 252.5 8.5 253.5 8.5 297.5 8.5 298.5 8.5 315.5 8.5 316.5 7.5 316.5 6.5 316.5 -8.5 316.5 -9.5 316.5 -10.5 316.5 -10.5 315.5 -10.5 299.5 -10.5 298.5 -10.5 278.5 -10.5 277.5 -10.5 219.5 -9.5 219.5 -9.5 218.5 -9.5 216.5 -8.7 215.4 -8.5 214.5 -8.5 213.5 Q-6.7 212.3 -5.7 210.4 L-5.5 209.5 -6.25 209.25 Q-8.3 207.3 -8.5 203.5 L-9.0 203.45 Q-9.5 198.5 -9.5 193.5 L-9.5 192.5 -9.5 189.5 Q-7.8 189.2 -8.0 186.5 L-7.5 186.5 -7.5 185.5 -7.5 184.5 -6.5 184.5 -6.55 183.5 Q-6.7 180.7 -7.5 178.5 L-8.05 178.35 Q-10.0 173.5 -9.5 166.5 L-9.5 165.5 -9.5 161.5 Q-7.85 161.65 -8.0 159.5 L-7.5 159.5 -7.5 158.5 -7.5 157.5 -6.5 157.5 -6.3 156.65 Q-5.3 155.05 -6.5 152.5 L-7.3 152.25 Q-8.7 151.2 -8.5 148.5 L-9.0 148.45 Q-9.5 141.5 -9.5 134.5 L-8.5 134.5 -8.5 133.5 -8.5 131.5 Q-7.0 130.5 -6.1 128.7 L-5.5 128.5 Q-5.5 128.0 -5.75 127.7 -8.1 125.1 -8.5 120.5 L-9.0 120.45 Q-9.5 114.0 -9.5 107.5 L-8.5 107.5 -8.5 106.5 -8.5 104.5 Q-7.0 103.5 -6.1 101.7 L-5.5 101.5 Q-5.5 101.0 -5.75 100.65 -6.45 99.45 -6.5 97.5 -7.0 97.5 -7.1 97.3 -8.0 95.5 -8.5 93.5 L-9.0 93.45 Q-9.5 87.0 -9.5 80.5 L-8.5 80.5 -8.5 79.5 -8.5 77.5 -7.5 77.5 -7.5 76.5 -7.5 75.5 -6.5 75.5 -6.5 74.5 -6.5 73.5 -5.7 72.4 -5.5 71.5 -6.15 71.25 Q-9.5 66.0 -8.5 56.5 L-8.5 55.5 -8.5 50.5 Q-7.0 49.5 -6.1 47.7 L-5.5 47.5 -5.6 46.5 -6.5 42.5 -7.05 42.35 Q-9.15 34.65 -8.5 24.5 L-7.5 24.5 -7.5 23.5 -7.5 21.5 -6.5 21.5 -6.5 20.5 -6.5 19.5 Q-4.85 19.65 -5.4 17.45 L-5.5 16.5 Q-6.0 16.5 -6.15 16.3 -8.1 13.1 -7.5 7.5 L-6.4 6.7 -5.5 6.5 -5.5 5.5 -5.5 3.5 -4.5 3.5 -4.5 2.5 Q-3.45 1.55 -1.65 1.05 -1.5 1.0 -1.5 0.5 L0.5 0.5 1.5 0.5" fill="#009900" fill-rule="evenodd" stroke="none"/>
  </g>
</svg>
