<?xml version="1.0" encoding="UTF-8" standalone="no"?>
<svg xmlns:ffdec="https://www.free-decompiler.com/flash" xmlns:xlink="http://www.w3.org/1999/xlink" ffdec:objectType="shape" height="316.0px" width="19.25px" xmlns="http://www.w3.org/2000/svg">
  <g transform="matrix(1.0, 0.0, 0.0, 1.0, 10.5, -0.5)">
    <path d="M1.5 0.5 Q7.3 4.7 7.0 14.5 L6.5 14.5 6.5 17.5 6.5 18.5 Q10.55 29.25 7.05 42.4 L6.5 42.5 Q6.7 45.3 7.35 47.55 L7.5 48.5 7.5 49.5 Q9.25 51.75 8.55 56.5 L8.5 57.5 8.5 63.5 8.5 64.5 8.4 65.5 Q7.85 67.85 6.5 69.5 L6.5 72.5 6.5 73.5 Q10.95 86.1 6.65 99.55 6.5 100.0 6.5 100.5 8.2 100.8 7.6 103.5 L7.5 104.5 Q9.25 110.25 8.55 118.5 L8.5 119.5 8.3 120.4 6.5 123.5 6.5 124.5 6.5 125.5 Q7.5 127.95 7.5 131.5 L7.5 132.5 8.0 132.55 Q9.55 143.55 6.5 150.5 6.6 154.9 7.4 158.5 L7.5 159.5 Q9.25 166.25 8.0 175.45 L7.5 175.5 7.5 176.5 7.5 177.5 7.25 178.25 6.5 178.5 Q8.9 188.6 8.0 201.45 L7.5 201.5 7.6 202.5 Q8.2 205.2 6.5 205.5 L6.5 210.5 6.5 211.5 Q8.7 212.75 8.55 216.5 L8.5 217.5 8.5 253.5 8.5 254.5 8.5 315.5 8.5 316.5 7.5 316.5 6.5 316.5 -8.5 316.5 -9.5 316.5 -10.5 316.5 -10.5 315.5 -10.5 294.5 -10.5 293.5 -10.5 271.5 -10.5 270.5 -10.5 217.5 -9.5 217.5 -9.5 216.5 -9.5 215.5 -9.5 214.5 Q-8.15 212.85 -7.1 210.7 -7.0 210.5 -6.5 210.5 L-6.55 209.5 Q-6.7 206.7 -7.5 204.5 L-8.05 204.35 Q-9.4 200.9 -9.5 196.5 L-9.5 195.5 -9.5 187.5 Q-7.8 187.2 -8.0 184.5 L-7.5 184.5 -7.5 183.5 -7.5 182.5 -6.4 181.7 -5.5 181.5 Q-5.5 181.0 -5.6 181.0 -7.1 180.65 -6.5 178.5 -7.0 178.5 -7.1 178.3 -10.55 171.05 -9.5 159.5 L-8.5 159.5 -8.5 158.5 -8.5 156.5 -7.4 155.7 -6.5 155.5 -6.3 154.65 Q-5.3 153.05 -6.5 150.5 L-7.3 150.25 Q-8.7 149.2 -8.5 146.5 L-9.0 146.45 Q-9.5 139.5 -9.5 132.5 L-8.5 132.5 -8.5 131.5 -8.5 129.5 -7.4 128.7 -6.5 128.5 -6.5 127.5 -6.5 126.5 -5.7 125.4 -5.5 124.5 -6.25 124.25 Q-8.3 122.3 -8.5 118.5 L-9.0 118.45 Q-9.5 112.0 -9.5 105.5 L-8.5 105.5 -8.5 104.5 -8.5 102.5 Q-7.0 101.5 -6.1 99.7 L-5.5 99.5 Q-5.5 99.0 -5.75 98.75 -7.45 96.95 -7.5 93.5 L-8.0 93.45 Q-8.5 84.5 -8.5 75.5 -7.0 74.5 -6.1 72.7 L-5.5 72.5 -5.5 71.5 -5.5 69.5 -6.25 69.25 Q-8.8 66.8 -8.5 61.5 L-8.5 60.5 -8.5 48.5 Q-7.0 47.5 -6.1 45.7 L-5.5 45.5 -5.5 44.5 -5.5 42.5 -6.15 42.25 Q-7.85 39.85 -8.5 36.5 L-8.5 35.5 -8.5 21.5 Q-7.0 20.5 -6.1 18.7 L-5.5 18.5 -5.6 17.5 -6.5 13.5 -7.0 13.4 Q-7.5 10.5 -7.5 7.5 L-6.4 6.7 -5.5 6.5 -5.5 5.5 -5.5 4.5 Q-4.45 2.05 -1.65 1.05 -1.5 1.0 -1.5 0.5 L0.5 0.5 1.5 0.5" fill="#009900" fill-rule="evenodd" stroke="none"/>
  </g>
</svg>
