<?xml version="1.0" encoding="UTF-8" standalone="no"?>
<svg xmlns:ffdec="https://www.free-decompiler.com/flash" xmlns:xlink="http://www.w3.org/1999/xlink" ffdec:objectType="shape" height="316.0px" width="19.4px" xmlns="http://www.w3.org/2000/svg">
  <g transform="matrix(1.0, 0.0, 0.0, 1.0, 10.5, -0.5)">
    <path d="M6.35 8.55 L6.5 9.5 6.5 11.5 6.5 12.5 6.5 15.5 6.5 16.5 Q9.55 19.95 8.55 27.5 L8.5 28.5 8.55 29.5 Q9.25 34.75 7.5 37.5 L7.5 38.5 7.5 39.5 7.25 40.25 6.5 40.5 Q6.5 44.5 8.25 46.7 L8.5 47.5 8.5 62.5 8.5 63.5 8.3 64.4 6.5 67.5 6.5 70.5 6.5 71.5 Q9.8 78.2 8.55 89.5 L8.5 90.5 8.3 91.4 6.5 94.5 6.5 97.5 6.5 98.5 8.3 101.6 8.5 102.5 8.5 116.5 8.5 117.5 8.3 118.4 6.5 121.5 Q8.95 131.05 8.5 143.5 L8.5 144.5 8.4 145.5 Q7.85 147.85 6.5 149.5 L6.5 150.5 Q7.25 153.75 7.45 157.5 L7.5 158.5 8.0 158.55 Q9.55 169.55 6.5 176.5 L6.5 180.5 6.5 181.5 Q9.6 189.4 8.0 201.45 L7.5 201.5 7.3 202.4 6.5 203.5 6.3 204.4 5.5 205.5 7.35 211.55 7.5 212.5 7.5 213.5 Q9.25 218.75 8.55 226.5 L8.5 227.5 8.5 315.5 8.5 316.5 7.5 316.5 6.5 316.5 -8.5 316.5 -9.5 316.5 -10.5 316.5 -10.5 315.5 -10.5 306.5 -10.5 305.5 -10.5 276.5 -10.5 275.5 -10.5 231.5 -10.5 230.5 -10.5 215.5 -9.5 215.5 -9.5 214.5 -9.5 213.5 -9.5 212.5 Q-7.6 211.4 -7.0 208.6 L-6.5 208.5 -6.5 207.5 -6.5 204.5 -7.15 204.25 Q-10.05 200.05 -9.5 192.5 L-9.5 191.5 -9.5 185.5 Q-8.15 183.85 -7.1 181.7 -7.0 181.5 -6.5 181.5 L-6.3 180.65 Q-5.3 179.05 -6.5 176.5 L-7.3 176.25 Q-8.7 175.25 -8.5 172.5 L-9.0 172.45 Q-9.5 165.0 -9.5 157.5 L-8.5 157.5 -8.5 156.5 -8.5 155.5 Q-6.85 155.65 -7.0 153.5 L-6.5 153.5 -5.75 153.25 Q-5.5 153.0 -5.5 152.5 -5.5 152.0 -5.75 151.7 -7.7 149.2 -8.5 145.5 L-9.0 145.45 Q-9.5 138.0 -9.5 130.5 L-8.5 130.5 -8.5 129.5 -8.5 127.5 -7.4 126.7 -6.5 126.5 -6.5 125.5 -6.5 124.5 -5.7 123.4 -5.5 122.5 -6.35 122.25 Q-7.45 121.45 -7.5 119.5 L-8.1 119.3 Q-8.5 118.5 -8.5 117.5 L-9.0 117.45 Q-9.5 110.5 -9.5 103.5 L-8.5 103.5 -8.5 102.5 -8.5 100.5 -7.4 99.7 -6.5 99.5 -6.3 98.6 Q-5.0 96.45 -6.5 93.5 L-7.05 93.4 Q-9.2 84.7 -8.5 73.5 -7.0 72.5 -6.1 70.7 L-5.5 70.5 -5.5 69.5 -5.5 67.5 -6.1 67.3 Q-9.7 59.2 -8.5 46.5 -7.0 45.5 -6.1 43.7 L-5.5 43.5 -5.7 42.6 Q-6.95 39.95 -7.5 36.5 L-8.0 36.45 Q-8.5 28.0 -8.5 19.5 -7.0 18.5 -6.1 16.7 L-5.5 16.5 Q-5.5 16.0 -5.65 15.55 -6.85 12.35 -7.5 8.5 -6.15 6.85 -5.1 4.7 L-4.5 4.5 -4.5 3.5 Q-3.7 1.8 -1.65 1.05 -1.5 1.0 -1.5 0.5 L0.5 0.5 1.5 0.5 Q4.95 3.55 6.35 8.55" fill="#009900" fill-rule="evenodd" stroke="none"/>
  </g>
</svg>
