<?xml version="1.0" encoding="UTF-8" standalone="no"?>
<svg xmlns:ffdec="https://www.free-decompiler.com/flash" xmlns:xlink="http://www.w3.org/1999/xlink" ffdec:objectType="shape" height="316.0px" width="19.3px" xmlns="http://www.w3.org/2000/svg">
  <g transform="matrix(1.0, 0.0, 0.0, 1.0, 10.5, -0.5)">
    <path d="M4.3 3.85 Q4.5 4.0 4.5 4.5 10.55 19.3 7.0 38.4 L6.5 38.5 7.45 44.5 7.5 45.5 Q9.25 48.25 8.55 53.5 L8.5 54.5 8.55 55.5 Q9.2 62.2 6.5 65.5 L6.5 68.5 6.5 69.5 Q9.85 77.15 8.0 89.45 L7.5 89.5 7.6 90.45 Q8.15 92.65 6.5 92.5 6.75 96.25 7.4 99.5 L7.5 100.5 7.5 101.5 8.0 101.55 Q9.65 112.65 6.5 119.5 L6.5 123.5 6.5 124.5 Q8.2 124.8 7.6 127.5 L7.5 128.5 Q9.25 133.75 8.55 141.5 L8.5 142.5 8.4 143.5 Q7.85 145.85 6.5 147.5 9.15 157.8 8.0 171.45 L7.5 171.5 7.6 172.45 Q8.15 174.65 6.5 174.5 L6.5 175.5 6.5 176.5 Q9.8 188.35 7.0 201.4 L6.5 201.5 6.3 202.4 5.5 203.5 Q7.2 206.85 7.45 211.5 L7.5 212.5 Q9.25 262.75 8.5 315.5 L8.5 316.5 7.5 316.5 6.5 316.5 -8.5 316.5 -9.5 316.5 -10.5 316.5 -10.5 315.5 -10.5 295.5 -10.5 294.5 -10.5 215.5 -9.5 215.5 -9.5 214.5 -9.5 211.5 Q-7.8 211.2 -8.0 208.5 L-7.5 208.5 -7.5 207.5 -7.5 206.5 Q-4.6 205.65 -6.25 203.35 L-6.5 202.5 -7.15 202.25 Q-8.85 199.85 -9.5 196.5 L-9.5 195.5 -9.5 183.5 -8.5 183.5 -8.5 182.5 -8.5 180.5 -7.4 179.7 -6.5 179.5 -6.55 178.5 Q-6.9 175.7 -8.5 169.5 L-9.0 169.45 Q-9.5 165.5 -9.5 161.5 L-9.5 160.5 -9.5 158.5 Q-7.8 157.2 -8.0 153.5 L-7.5 153.5 -7.5 152.5 -7.5 151.5 -6.4 150.7 -5.5 150.5 -5.5 149.5 -5.5 148.5 -6.35 148.25 Q-7.45 147.45 -7.5 145.5 L-8.05 145.35 Q-9.75 140.75 -9.5 134.5 L-9.5 133.5 -9.5 132.5 -7.05 124.65 Q-7.0 124.5 -6.5 124.5 L-6.3 123.65 Q-5.3 122.05 -6.5 119.5 -7.0 119.5 -7.1 119.3 -7.5 118.5 -7.5 117.5 L-8.05 117.35 Q-8.5 116.0 -8.5 114.5 L-9.0 114.45 Q-9.5 108.0 -9.5 101.5 L-8.5 101.5 -8.5 100.5 -8.5 99.5 -7.5 99.5 -7.5 98.5 -7.5 97.5 -6.5 97.5 -6.3 96.6 Q-5.0 94.45 -6.5 91.5 L-7.05 91.4 Q-9.2 82.7 -8.5 71.5 L-7.4 70.7 -6.5 70.5 -6.35 69.55 Q-5.2 66.45 -7.5 62.5 L-8.0 62.45 Q-8.5 53.5 -8.5 44.5 -7.0 43.5 -6.1 41.7 L-5.5 41.5 -5.5 40.5 -5.5 38.5 -6.1 38.3 Q-9.7 30.7 -8.5 18.5 L-7.5 18.5 -7.5 17.5 -7.5 16.5 -6.5 16.5 -6.25 15.65 Q-4.55 12.95 -6.5 6.5 L-5.5 6.5 -5.5 5.5 -5.5 4.5 Q-3.35 3.65 -2.15 1.7 L-1.5 1.5 -1.5 0.5 0.5 0.5 1.5 0.5 Q2.35 2.65 4.3 3.85" fill="#009900" fill-rule="evenodd" stroke="none"/>
  </g>
</svg>
