<?xml version="1.0" encoding="UTF-8" standalone="no"?>
<svg xmlns:ffdec="https://www.free-decompiler.com/flash" xmlns:xlink="http://www.w3.org/1999/xlink" ffdec:objectType="shape" height="316.0px" width="19.3px" xmlns="http://www.w3.org/2000/svg">
  <g transform="matrix(1.0, 0.0, 0.0, 1.0, 10.5, -0.5)">
    <path d="M0.5 0.5 L1.5 0.5 Q5.8 3.2 5.5 10.5 L5.5 11.5 Q11.0 21.75 7.05 36.35 L6.5 36.5 6.5 39.5 6.5 40.5 Q9.55 43.95 8.55 51.5 L8.5 52.5 8.55 53.5 Q9.45 60.5 6.5 63.5 L6.5 66.5 6.5 67.5 Q10.45 77.85 7.05 90.35 L6.5 90.5 6.5 94.5 6.5 95.5 Q9.8 102.7 8.0 114.45 L7.5 114.5 7.6 115.5 Q8.2 118.2 6.5 118.5 L6.5 121.5 6.5 122.5 Q10.5 131.95 7.6 143.55 L7.5 144.5 7.25 145.25 6.5 145.5 7.45 153.5 7.5 154.5 8.0 154.55 Q9.65 165.65 6.5 172.5 L6.3 173.4 5.5 174.5 5.5 175.5 Q9.95 183.55 8.0 197.45 L7.5 197.5 7.5 198.5 Q7.4 201.4 5.5 202.5 L5.5 203.5 Q7.95 205.05 7.55 209.5 L7.5 210.5 Q9.25 261.75 8.5 315.5 L8.5 316.5 7.5 316.5 6.5 316.5 -8.5 316.5 -9.5 316.5 -10.5 316.5 -10.5 315.5 -10.5 294.5 -10.5 293.5 -10.5 257.5 -10.5 256.5 -10.5 217.5 -9.5 217.5 -9.5 216.5 -9.5 213.5 -9.5 212.5 -9.5 209.5 Q-6.15 205.05 -6.45 201.5 L-6.5 200.5 -7.15 200.25 Q-10.15 195.7 -9.5 187.5 L-9.5 186.5 -9.5 182.5 Q-7.8 182.2 -8.0 179.5 L-7.5 179.5 -7.5 178.5 -7.5 177.5 -6.5 177.5 -6.5 176.5 -6.5 175.5 -5.75 175.25 Q-5.5 175.0 -5.5 174.5 L-6.25 174.25 Q-8.3 172.3 -8.5 168.5 L-9.0 168.45 Q-9.5 164.0 -9.5 159.5 L-9.5 158.5 -9.5 154.5 -6.1 148.7 -5.5 148.5 -5.5 147.5 -5.5 146.5 -6.35 146.25 Q-7.45 145.45 -7.5 143.5 L-8.05 143.35 Q-8.5 142.0 -8.5 140.5 L-9.0 140.45 Q-9.5 134.0 -9.5 127.5 L-8.5 127.5 -8.5 126.5 -8.5 124.5 -7.5 124.5 -7.5 123.5 -7.5 122.5 Q-4.3 121.3 -6.25 118.35 L-6.5 117.5 -7.3 117.25 Q-8.7 116.2 -8.5 113.5 L-9.0 113.45 Q-9.5 106.5 -9.5 99.5 L-8.5 99.5 -8.5 98.5 -8.5 97.5 -7.5 97.5 -7.5 96.5 -7.5 95.5 -6.5 95.5 -6.5 94.5 -6.5 93.5 -5.7 92.4 -5.5 91.5 -6.25 91.25 Q-8.3 89.3 -8.5 85.5 L-9.0 85.45 Q-9.5 79.5 -9.5 73.5 L-8.5 73.5 -8.5 72.5 -8.5 69.5 -7.4 68.7 -6.5 68.5 -6.3 67.6 Q-5.0 65.45 -6.5 62.5 L-7.05 62.4 Q-9.15 54.15 -8.5 43.5 L-7.5 43.5 -7.5 42.5 -7.5 41.5 -6.5 41.5 -6.5 40.5 -6.5 39.5 Q-4.85 39.65 -5.4 37.45 L-5.5 36.5 -6.2 36.25 Q-9.2 32.7 -8.5 25.5 L-8.5 24.5 -8.5 16.5 -7.5 16.5 -7.5 15.5 -7.5 14.5 -6.5 14.5 -6.5 13.5 -6.5 12.5 Q-4.95 9.65 -4.0 3.6 L-3.5 3.5 -3.5 2.5 Q-2.5 2.0 -1.75 1.25 L-1.5 0.5 0.5 0.5" fill="#009900" fill-rule="evenodd" stroke="none"/>
  </g>
</svg>
