<?xml version="1.0" encoding="UTF-8" standalone="no"?>
<svg xmlns:ffdec="https://www.free-decompiler.com/flash" xmlns:xlink="http://www.w3.org/1999/xlink" ffdec:objectType="shape" height="316.0px" width="19.35px" xmlns="http://www.w3.org/2000/svg">
  <g transform="matrix(1.0, 0.0, 0.0, 1.0, 10.5, -0.5)">
    <path d="M4.3 4.65 L4.5 5.5 Q6.3 9.2 7.4 13.55 L7.5 14.5 8.0 14.55 Q9.85 26.85 6.5 34.5 L6.5 37.5 6.5 38.5 Q10.5 48.75 7.05 61.35 L6.5 61.5 Q6.75 65.25 7.4 68.5 L7.5 69.5 Q9.25 72.25 8.55 77.5 L8.5 78.5 8.5 83.5 8.5 84.5 8.4 85.5 Q7.85 87.85 6.5 89.5 L6.5 92.5 6.5 93.5 Q9.75 99.7 8.55 110.5 L8.5 111.5 8.4 112.5 Q7.85 114.85 6.5 116.5 L6.5 117.5 Q6.85 121.65 8.3 124.6 L8.5 125.5 8.55 126.5 Q9.25 134.75 7.5 140.5 L7.5 141.5 7.3 142.4 6.5 143.5 6.5 147.5 6.5 148.5 Q8.4 149.6 8.5 152.5 L8.5 153.5 8.55 154.5 Q9.25 161.75 7.5 166.5 L7.6 167.5 Q8.2 170.2 6.5 170.5 L6.5 171.5 6.5 172.5 Q9.35 182.15 8.0 195.45 L7.5 195.5 7.5 196.5 Q7.4 199.4 5.5 200.5 L5.5 201.5 Q9.55 206.45 8.55 216.5 L8.5 217.5 8.5 253.5 8.5 254.5 8.5 315.5 8.5 316.5 7.5 316.5 6.5 316.5 -8.5 316.5 -9.5 316.5 -10.5 316.5 -10.5 315.5 -10.5 305.5 -10.5 304.5 -10.5 280.5 -10.5 279.5 -10.5 216.5 -9.5 216.5 -9.5 215.5 -9.5 208.5 -9.5 207.5 Q-7.8 205.7 -7.05 202.6 L-6.5 202.5 -6.6 201.5 Q-6.85 199.85 -8.5 194.5 L-8.5 193.5 -9.0 193.45 Q-9.5 186.5 -9.5 179.5 -8.15 177.85 -7.1 175.7 -7.0 175.5 -6.5 175.5 L-5.75 175.25 Q-5.5 175.0 -5.5 174.5 L-5.5 173.5 -5.5 172.5 -6.25 172.25 Q-8.3 170.3 -8.5 166.5 L-9.0 166.45 Q-9.5 159.5 -9.5 152.5 L-8.5 152.5 -8.5 151.5 -8.5 149.5 -7.4 148.7 -6.5 148.5 -6.3 147.65 Q-5.3 146.05 -6.5 143.5 -7.0 143.5 -7.1 143.3 -7.5 142.5 -7.5 141.5 L-8.1 141.3 Q-8.5 140.5 -8.5 139.5 L-9.0 139.45 Q-9.5 132.5 -9.5 125.5 L-8.5 125.5 -8.5 124.5 -8.5 122.5 Q-7.0 121.5 -6.1 119.7 L-5.5 119.5 Q-5.5 119.0 -5.75 118.75 -7.45 116.95 -7.5 113.5 L-8.1 113.3 Q-8.5 112.5 -8.5 111.5 L-9.0 111.45 Q-9.5 105.0 -9.5 98.5 L-8.5 98.5 -8.5 97.5 -8.5 95.5 Q-7.0 94.5 -6.1 92.7 L-5.5 92.5 -5.5 91.5 -5.5 89.5 -6.25 89.25 Q-8.3 87.3 -8.5 83.5 L-9.0 83.45 Q-9.5 77.5 -9.5 71.5 L-8.5 71.5 -8.5 70.5 -8.5 68.5 -7.5 68.5 -7.5 67.5 -7.5 66.5 -6.5 66.5 -6.5 65.5 -6.5 64.5 -5.7 63.4 -5.5 62.5 -6.2 62.25 Q-9.2 58.7 -8.5 51.5 L-8.5 50.5 -8.5 41.5 Q-7.0 40.5 -6.1 38.7 L-5.5 38.5 Q-5.5 38.0 -5.65 37.55 -6.5 34.5 -7.5 31.5 L-8.0 31.45 Q-8.5 23.0 -8.5 14.5 -7.0 13.5 -6.1 11.7 L-5.5 11.5 -5.5 10.5 -4.5 10.5 Q-4.5 10.0 -4.75 9.65 -5.85 7.85 -5.5 4.5 L-4.4 3.7 -3.5 3.5 -3.5 2.5 Q-2.5 2.0 -1.75 1.25 L-1.5 0.5 0.5 0.5 1.5 0.5 Q3.0 2.5 4.3 4.65" fill="#009900" fill-rule="evenodd" stroke="none"/>
  </g>
</svg>
