<?xml version="1.0" encoding="UTF-8" standalone="no"?>
<svg xmlns:ffdec="https://www.free-decompiler.com/flash" xmlns:xlink="http://www.w3.org/1999/xlink" ffdec:objectType="shape" height="316.0px" width="19.25px" xmlns="http://www.w3.org/2000/svg">
  <g transform="matrix(1.0, 0.0, 0.0, 1.0, 10.5, -0.5)">
    <path d="M3.3 3.6 L3.5 4.5 Q6.95 6.1 7.45 10.5 L7.5 11.5 Q9.25 17.25 8.55 25.5 L8.5 26.5 8.4 27.5 Q7.85 29.85 6.5 31.5 10.2 44.15 7.0 58.4 L6.5 58.5 7.45 64.5 7.5 65.5 Q9.25 68.25 8.55 73.5 L8.5 74.5 8.55 75.5 Q9.2 82.2 6.5 85.5 L6.5 88.5 6.5 89.5 Q9.75 97.25 8.0 109.45 L7.5 109.5 7.6 110.45 Q8.15 112.65 6.5 112.5 6.75 116.25 7.4 119.5 L7.5 120.5 8.0 120.6 Q9.8 132.3 6.5 139.5 9.7 151.8 7.6 164.5 L7.5 165.5 7.3 166.4 6.5 167.5 Q8.95 178.05 8.0 191.45 L7.5 191.5 7.6 192.45 Q8.15 194.65 6.5 194.5 L6.5 199.5 6.5 200.5 Q8.2 200.8 7.6 203.5 L7.5 204.5 Q9.25 208.75 8.55 215.5 L8.5 216.5 8.5 226.5 8.5 227.5 8.5 315.5 8.5 316.5 7.5 316.5 6.5 316.5 -8.5 316.5 -9.5 316.5 -10.5 316.5 -10.5 315.5 -10.5 290.5 -10.5 289.5 -10.5 264.5 -10.5 263.5 -10.5 223.5 -9.5 223.5 -9.5 222.5 -9.5 221.5 -9.5 213.5 -9.5 212.5 -9.5 203.5 Q-8.15 201.85 -7.1 199.7 -7.0 199.5 -6.5 199.5 L-6.55 198.5 Q-7.1 194.65 -8.5 191.5 L-9.0 191.45 Q-9.5 186.5 -9.5 181.5 L-9.5 180.5 -9.5 176.5 -8.7 175.4 -8.5 174.5 -8.5 173.5 Q-4.25 170.55 -7.25 166.35 L-7.5 165.5 -8.05 165.35 Q-8.5 164.0 -8.5 162.5 L-9.0 162.45 Q-9.5 158.5 -9.5 154.5 L-9.5 153.5 -9.5 148.5 Q-8.15 146.85 -7.1 144.7 -7.0 144.5 -6.5 144.5 L-6.3 143.65 Q-5.3 142.05 -6.5 139.5 L-7.3 139.25 Q-8.7 138.2 -8.5 135.5 L-9.0 135.45 Q-9.5 128.5 -9.5 121.5 L-8.5 121.5 -8.5 120.5 -8.5 119.5 -7.5 119.5 -7.5 118.5 -7.5 116.5 Q-5.8 116.2 -5.55 114.5 L-5.5 113.5 -6.25 113.25 Q-8.3 111.3 -8.5 107.5 L-9.0 107.45 Q-9.5 101.0 -9.5 94.5 L-8.5 94.5 -8.5 93.5 -8.5 91.5 Q-7.0 90.5 -6.1 88.7 L-5.5 88.5 Q-5.5 88.0 -5.75 87.65 -6.45 86.45 -6.5 84.5 -7.0 84.5 -7.1 84.3 -7.5 83.5 -7.5 82.5 L-8.0 82.45 Q-8.5 73.5 -8.5 64.5 -7.0 63.5 -6.1 61.7 L-5.5 61.5 -5.5 60.5 -5.5 58.5 -6.1 58.3 Q-9.7 50.2 -8.5 37.5 -7.0 36.5 -6.1 34.7 L-5.5 34.5 -5.6 33.5 -6.5 29.5 Q-7.0 29.5 -7.1 29.3 -7.5 28.5 -7.5 27.5 L-8.0 27.45 Q-8.5 19.5 -8.5 11.5 L-7.75 11.25 -7.5 10.5 -7.5 9.5 Q-5.35 8.65 -4.65 6.45 L-4.5 5.5 -4.5 4.5 -4.5 3.5 -1.75 1.25 -1.5 0.5 -0.5 0.5 0.5 0.5 1.5 0.5 3.3 3.6" fill="#009900" fill-rule="evenodd" stroke="none"/>
  </g>
</svg>
