<?xml version="1.0" encoding="UTF-8" standalone="no"?>
<svg xmlns:ffdec="https://www.free-decompiler.com/flash" xmlns:xlink="http://www.w3.org/1999/xlink" ffdec:objectType="shape" height="316.0px" width="19.35px" xmlns="http://www.w3.org/2000/svg">
  <g transform="matrix(1.0, 0.0, 0.0, 1.0, 10.5, -0.5)">
    <path d="M2.35 2.55 L2.5 3.5 Q6.25 5.25 7.4 9.55 L7.5 10.5 Q9.95 18.95 7.65 27.55 7.5 28.0 7.5 28.5 L7.25 29.25 6.5 29.5 Q6.5 33.5 8.25 35.7 L8.5 36.5 8.55 37.5 Q9.7 49.2 6.5 56.5 L6.5 59.5 6.5 60.5 Q9.6 64.4 8.55 72.5 L8.5 73.5 8.55 74.5 Q9.1 80.6 6.5 83.5 6.6 88.4 8.3 91.6 L8.5 92.5 8.5 99.5 8.5 100.5 8.5 105.5 8.5 106.5 8.4 107.5 Q8.0 109.5 6.5 110.5 L6.5 114.5 6.5 115.5 Q9.8 122.7 8.0 134.45 L7.5 134.5 7.6 135.45 Q8.15 137.65 6.5 137.5 L6.5 141.5 6.5 142.5 Q7.85 144.15 8.4 146.5 L8.5 147.5 8.55 148.5 Q9.25 156.75 7.5 162.5 L7.5 163.5 7.5 164.5 7.25 165.25 6.5 165.5 Q6.35 169.65 7.35 172.55 L7.5 173.5 Q9.25 180.75 8.0 190.45 L7.5 190.5 7.3 191.4 6.5 192.5 6.3 193.4 5.5 194.5 7.35 200.55 7.5 201.5 Q9.25 204.25 8.55 209.5 L8.5 210.5 8.5 215.5 8.5 216.5 8.5 217.5 8.5 253.5 8.5 254.5 8.5 304.5 8.5 305.5 8.5 315.5 8.5 316.5 7.5 316.5 6.5 316.5 -8.5 316.5 -9.5 316.5 -10.5 316.5 -10.5 315.5 -10.5 308.5 -10.5 307.5 -10.5 243.5 -10.5 242.5 -10.5 217.5 -9.5 217.5 -9.5 216.5 -9.5 213.5 -9.5 212.5 -9.5 201.5 Q-8.15 199.85 -7.1 197.7 -7.0 197.5 -6.5 197.5 L-6.55 196.5 Q-6.7 193.7 -7.5 191.5 L-8.1 191.3 Q-8.5 190.5 -8.5 189.5 L-9.0 189.45 Q-9.5 182.0 -9.5 174.5 L-8.5 174.5 -8.5 173.5 -8.5 171.5 -7.4 170.7 -6.5 170.5 -6.3 169.65 Q-5.3 168.05 -6.5 165.5 L-7.3 165.25 Q-8.7 164.25 -8.5 161.5 L-9.0 161.45 Q-9.5 156.5 -9.5 151.5 L-9.5 150.5 -9.5 148.5 Q-7.8 147.7 -8.0 144.5 L-7.5 144.5 -7.5 143.5 -7.5 142.5 -6.4 141.7 -5.5 141.5 Q-5.5 141.0 -5.75 140.65 -6.45 139.45 -6.5 137.5 L-7.3 137.25 Q-8.7 136.2 -8.5 133.5 L-9.0 133.45 Q-9.5 126.5 -9.5 119.5 L-8.5 119.5 -8.5 118.5 -8.5 117.5 -7.5 117.5 -7.5 116.5 -7.5 115.5 -6.5 115.5 -6.5 114.5 -6.5 113.5 -5.7 112.4 -5.5 111.5 -6.25 111.25 Q-8.3 109.3 -8.5 105.5 L-9.0 105.45 Q-9.5 99.0 -9.5 92.5 L-8.5 92.5 -8.5 91.5 -8.5 89.5 -7.4 88.7 -6.5 88.5 -6.3 87.6 Q-5.0 85.45 -6.5 82.5 L-7.05 82.4 Q-9.2 74.2 -8.5 63.5 L-7.5 63.5 -7.3 62.65 Q-4.65 58.25 -7.5 53.5 L-8.0 53.45 Q-8.5 49.5 -8.5 45.5 L-8.5 44.5 -8.5 35.5 Q-7.0 34.5 -6.1 32.7 L-5.5 32.5 -5.7 31.6 Q-6.95 28.95 -7.5 25.5 L-8.0 25.45 Q-8.5 20.5 -8.5 15.5 L-8.5 14.5 -8.5 10.5 Q-6.85 10.65 -7.0 8.5 L-6.5 8.5 -6.5 7.5 Q-3.35 6.65 -3.0 2.55 L-2.5 2.5 -2.5 1.5 -1.75 1.25 -1.5 0.5 0.5 0.5 1.5 0.5 2.35 2.55" fill="#009900" fill-rule="evenodd" stroke="none"/>
  </g>
</svg>
