<?xml version="1.0" encoding="UTF-8" standalone="no"?>
<svg xmlns:ffdec="https://www.free-decompiler.com/flash" xmlns:xlink="http://www.w3.org/1999/xlink" ffdec:objectType="shape" height="316.0px" width="19.25px" xmlns="http://www.w3.org/2000/svg">
  <g transform="matrix(1.0, 0.0, 0.0, 1.0, 10.5, -0.5)">
    <path d="M6.25 6.65 L6.5 7.5 Q10.5 16.35 7.05 27.35 L6.5 27.5 7.45 33.5 7.5 34.5 8.0 34.55 Q9.85 46.85 6.5 54.5 L6.5 57.5 6.5 58.5 Q10.5 68.75 7.05 81.35 L6.5 81.5 Q6.75 85.25 7.4 88.5 L7.5 89.5 7.5 90.5 8.0 90.6 Q9.8 101.8 6.5 108.5 6.1 113.95 8.25 116.7 L8.5 117.5 8.5 130.5 8.5 131.5 8.4 132.5 Q7.85 134.85 6.5 136.5 L6.5 137.5 Q7.25 140.75 7.45 144.5 L7.5 145.5 Q9.25 151.75 8.0 160.45 L7.5 160.5 7.6 161.45 Q8.15 163.65 6.5 163.5 6.35 167.65 7.35 170.55 L7.5 171.5 7.5 172.5 7.5 173.5 8.0 173.55 Q9.5 184.0 6.5 190.5 L6.5 195.5 6.5 196.5 Q9.4 200.6 8.55 208.5 L8.5 209.5 8.5 216.5 8.5 217.5 8.5 252.5 8.5 253.5 8.5 304.5 8.5 305.5 8.5 315.5 8.5 316.5 7.5 316.5 6.5 316.5 -8.5 316.5 -9.5 316.5 -10.5 316.5 -10.5 315.5 -10.5 217.5 -9.5 217.5 -9.5 216.5 -9.5 215.5 -9.5 207.5 -9.5 206.5 -9.5 200.5 Q-7.8 200.2 -8.0 197.5 L-7.5 197.5 -7.5 196.5 -7.5 195.5 -6.4 194.7 -5.5 194.5 Q-5.5 194.0 -5.75 193.8 -7.4 192.4 -7.5 189.5 L-8.05 189.35 Q-8.55 187.55 -9.5 186.5 L-9.5 185.5 -9.5 177.5 -9.5 176.5 -9.5 173.5 -7.1 168.7 Q-7.0 168.5 -6.5 168.5 L-6.3 167.65 Q-5.3 166.05 -6.5 163.5 -7.0 163.5 -7.2 163.25 -9.8 159.8 -9.5 153.5 L-9.5 152.5 -9.5 145.5 -8.5 145.5 -8.5 144.5 -8.5 142.5 Q-7.0 141.5 -6.1 139.7 L-5.5 139.5 -5.5 138.5 -5.5 137.5 -6.25 137.25 Q-8.3 135.3 -8.5 131.5 L-9.0 131.45 Q-9.5 124.5 -9.5 117.5 L-8.5 117.5 -8.5 116.5 -8.5 115.5 Q-6.85 115.65 -7.0 113.5 L-6.5 113.5 -6.35 112.55 Q-5.55 110.2 -7.5 106.5 L-8.1 106.3 Q-8.5 105.5 -8.5 104.5 L-9.0 104.45 Q-9.5 97.5 -9.5 90.5 L-8.5 90.5 -8.5 89.5 -8.5 88.5 -7.5 88.5 -7.5 87.5 -7.5 86.5 -6.5 86.5 -6.5 85.5 -6.5 84.5 -5.7 83.4 -5.5 82.5 -6.1 82.3 Q-9.75 73.75 -8.5 60.5 L-7.4 59.7 -6.5 59.5 -6.3 58.65 Q-5.0 56.45 -6.5 53.5 -7.0 53.5 -7.1 53.3 -7.5 52.5 -7.5 51.5 L-8.0 51.45 Q-8.5 43.0 -8.5 34.5 L-7.5 34.5 -7.5 33.5 -7.5 32.5 -6.5 32.5 -6.5 31.5 -6.5 30.5 Q-4.85 30.65 -5.4 28.45 L-5.5 27.5 -6.25 27.25 Q-8.55 25.05 -8.5 20.5 L-8.5 19.5 -8.5 9.5 Q-6.95 7.05 -4.4 5.7 L-3.5 5.5 -3.5 4.5 -3.5 2.5 -2.4 1.7 -1.5 1.5 -1.5 0.5 0.5 0.5 1.5 0.5 6.25 6.65" fill="#009900" fill-rule="evenodd" stroke="none"/>
  </g>
</svg>
