<?xml version="1.0" encoding="UTF-8" standalone="no"?>
<svg xmlns:ffdec="https://www.free-decompiler.com/flash" xmlns:xlink="http://www.w3.org/1999/xlink" ffdec:objectType="shape" height="316.0px" width="19.4px" xmlns="http://www.w3.org/2000/svg">
  <g transform="matrix(1.0, 0.0, 0.0, 1.0, 10.5, -0.5)">
    <path d="M1.5 0.5 Q2.35 2.65 4.3 3.85 4.5 4.0 4.5 4.5 7.3 6.2 8.35 9.55 L8.5 10.5 8.55 11.5 Q9.7 20.7 6.5 25.5 L6.5 28.5 6.5 29.5 Q9.8 36.2 8.55 47.5 L8.5 48.5 8.4 49.5 Q7.85 51.85 6.5 53.5 L6.5 55.5 6.5 56.5 Q8.2 58.3 8.45 61.5 L8.5 62.5 8.55 63.5 Q9.75 73.75 6.5 79.5 6.45 83.0 7.35 85.55 L7.5 86.5 7.5 87.5 Q9.25 93.25 8.55 101.5 L8.5 102.5 8.4 103.5 Q7.85 105.85 6.5 107.5 6.45 111.0 7.35 113.55 L7.5 114.5 7.5 115.5 Q9.25 122.25 8.0 131.45 L7.5 131.5 7.6 132.45 Q8.15 134.65 6.5 134.5 L6.5 135.5 Q6.7 138.3 7.35 140.55 L7.5 141.5 7.5 142.5 Q9.25 148.25 8.55 156.5 L8.5 157.5 8.3 158.4 6.5 161.5 Q8.9 172.6 8.0 186.45 L7.5 186.5 7.5 187.5 Q7.4 190.4 5.5 191.5 L5.5 192.5 Q7.7 193.75 7.55 197.5 L7.5 198.5 Q9.25 204.75 8.0 213.45 L7.5 213.5 7.5 214.5 7.5 215.5 7.5 216.5 7.5 217.5 Q9.25 252.75 8.5 290.5 L8.5 291.5 8.5 304.5 8.5 305.5 8.5 315.5 8.5 316.5 7.5 316.5 6.5 316.5 -8.5 316.5 -9.5 316.5 -10.5 316.5 -10.5 315.5 -10.5 297.5 -10.5 296.5 -10.5 275.5 -10.5 274.5 -10.5 221.5 -9.5 221.5 -9.5 220.5 -9.5 216.5 -9.5 215.5 -9.5 212.5 -9.5 211.5 -9.5 199.5 -9.5 198.5 -6.1 192.7 -5.5 192.5 Q-5.5 192.0 -5.6 192.0 -7.1 191.65 -6.5 189.5 L-7.15 189.25 Q-8.85 186.85 -9.5 183.5 L-9.5 182.5 -9.5 170.5 -8.5 170.5 -8.5 169.5 -8.5 167.5 -7.4 166.7 -6.5 166.5 -6.5 165.5 Q-6.5 162.8 -8.5 157.5 L-9.1 157.3 Q-9.5 156.5 -9.5 155.5 L-9.5 154.5 -9.5 143.5 -8.5 143.5 -8.5 142.5 -8.5 140.5 -7.4 139.7 -6.5 139.5 -6.5 138.5 -6.5 137.5 -5.7 136.4 -5.5 135.5 -6.25 135.25 Q-7.95 133.45 -8.5 130.5 L-9.0 130.45 Q-9.5 123.5 -9.5 116.5 L-8.5 116.5 -8.5 115.5 -8.5 113.5 Q-7.0 112.5 -6.1 110.7 L-5.5 110.5 Q-5.5 110.0 -5.75 109.65 -6.45 108.45 -6.5 106.5 -7.0 106.5 -7.1 106.3 -8.0 104.5 -8.5 102.5 L-9.0 102.45 Q-9.5 95.5 -9.5 88.5 L-8.5 88.5 -8.5 87.5 -8.5 86.5 Q-7.0 85.5 -6.1 83.7 L-5.5 83.5 -5.5 82.5 -5.5 80.5 -6.15 80.25 Q-9.45 75.45 -8.5 66.5 L-8.5 65.5 -8.5 59.5 Q-6.85 59.65 -7.0 57.5 L-6.5 57.5 -6.3 56.6 Q-5.0 54.45 -6.5 51.5 L-7.05 51.4 Q-9.15 43.15 -8.5 32.5 L-7.5 32.5 -7.5 31.5 -7.5 30.5 -6.5 30.5 -6.35 29.55 Q-5.2 26.45 -7.5 22.5 L-8.0 22.45 Q-8.5 18.5 -8.5 14.5 L-8.5 13.5 -8.5 10.5 Q-7.55 6.45 -4.4 4.7 L-3.5 4.5 -3.5 3.5 -1.75 1.35 -1.5 0.5 0.5 0.5 1.5 0.5" fill="#009900" fill-rule="evenodd" stroke="none"/>
  </g>
</svg>
