<?xml version="1.0" encoding="UTF-8" standalone="no"?>
<svg xmlns:ffdec="https://www.free-decompiler.com/flash" xmlns:xlink="http://www.w3.org/1999/xlink" ffdec:objectType="shape" height="316.0px" width="19.3px" xmlns="http://www.w3.org/2000/svg">
  <g transform="matrix(1.0, 0.0, 0.0, 1.0, 10.5, -0.5)">
    <path d="M6.45 6.5 L6.5 7.5 Q7.85 9.15 8.4 11.55 L8.5 12.5 8.5 18.5 8.5 19.5 8.4 20.5 Q7.85 22.85 6.5 24.5 L6.5 26.5 6.5 27.5 Q8.2 27.8 7.6 30.5 L7.5 31.5 Q9.25 37.25 8.55 45.5 L8.5 46.5 8.4 47.5 Q7.85 49.85 6.5 51.5 10.75 66.5 6.65 81.55 6.5 82.0 6.5 82.5 9.2 85.8 8.55 92.5 L8.5 93.5 8.55 94.5 Q9.25 99.75 7.5 102.5 L7.5 103.5 7.5 104.5 7.25 105.25 6.5 105.5 Q9.05 114.95 8.5 127.5 L8.5 128.5 8.3 129.4 6.5 132.5 6.5 136.5 6.5 137.5 Q9.6 143.4 8.55 153.5 L8.5 154.5 8.5 155.5 Q8.4 158.4 6.5 159.5 L6.5 164.5 6.5 165.5 Q8.15 165.4 7.6 167.55 L7.5 168.5 Q9.25 175.25 8.0 184.45 L7.5 184.5 7.5 185.5 Q7.4 188.4 5.5 189.5 L5.5 190.5 Q10.8 200.85 7.6 215.5 L7.5 216.5 7.5 217.5 Q9.25 233.75 8.5 252.5 L8.5 253.5 8.5 270.5 8.5 271.5 8.5 315.5 8.5 316.5 7.5 316.5 6.5 316.5 -8.5 316.5 -9.5 316.5 -10.5 316.5 -10.5 315.5 -10.5 298.5 -10.5 297.5 -10.5 282.5 -10.5 281.5 -10.5 271.5 -10.5 270.5 -10.5 237.5 -10.5 236.5 -10.5 226.5 -9.5 226.5 -9.5 225.5 -9.5 220.5 -9.5 219.5 -9.5 216.5 Q-7.8 215.7 -8.4 212.5 L-8.5 211.5 -9.0 211.45 Q-9.5 204.0 -9.5 196.5 L-8.5 196.5 -8.5 195.5 -8.5 193.5 -7.4 192.7 -6.5 192.5 -6.3 191.65 Q-5.3 190.05 -6.5 187.5 -7.0 187.5 -7.1 187.3 -10.55 180.05 -9.5 168.5 L-8.5 168.5 -8.5 167.5 -8.5 166.5 -7.5 166.5 -7.5 165.5 -7.5 164.5 Q-6.5 164.5 -5.7 164.1 -5.5 164.0 -5.5 163.5 -5.5 163.0 -5.75 162.7 -7.05 161.05 -7.5 158.5 L-8.1 158.3 Q-8.5 157.5 -8.5 156.5 L-9.0 156.45 Q-9.5 149.0 -9.5 141.5 L-8.5 141.5 -8.5 140.5 -8.5 138.5 -7.4 137.7 -6.5 137.5 -6.5 136.5 -6.5 135.5 -5.7 134.4 -5.5 133.5 -6.25 133.25 Q-7.95 131.45 -8.5 128.5 L-9.0 128.45 Q-9.5 121.5 -9.5 114.5 L-8.5 114.5 -8.5 113.5 -8.5 111.5 -7.4 110.7 -6.5 110.5 -6.3 109.6 Q-5.0 107.45 -6.5 104.5 L-7.3 104.25 Q-8.7 103.2 -8.5 100.5 L-9.0 100.45 Q-9.5 94.0 -9.5 87.5 L-8.5 87.5 -8.5 86.5 -8.5 84.5 Q-7.0 83.5 -6.1 81.7 L-5.5 81.5 -5.7 80.6 Q-6.95 78.45 -7.5 75.5 L-8.0 75.45 Q-8.5 66.5 -8.5 57.5 -7.0 56.5 -6.1 54.7 L-5.5 54.5 -5.5 53.5 -5.5 51.5 -6.15 51.25 Q-9.5 46.0 -8.5 36.5 L-8.5 35.5 -8.5 30.5 Q-7.0 29.5 -6.1 27.7 L-5.5 27.5 -5.6 26.5 -6.5 22.5 -7.05 22.35 Q-9.0 17.5 -8.5 10.5 L-7.5 10.5 -7.5 9.5 -7.5 6.5 Q-5.8 6.2 -5.1 4.7 L-4.5 4.5 -4.5 3.5 -1.75 1.25 -1.5 0.5 0.5 0.5 1.5 0.5 1.5 1.5 2.25 1.75 2.5 2.5 Q5.95 3.05 6.45 6.5" fill="#009900" fill-rule="evenodd" stroke="none"/>
  </g>
</svg>
