<?xml version="1.0" encoding="UTF-8" standalone="no"?>
<svg xmlns:ffdec="https://www.free-decompiler.com/flash" xmlns:xlink="http://www.w3.org/1999/xlink" ffdec:objectType="shape" height="316.0px" width="19.3px" xmlns="http://www.w3.org/2000/svg">
  <g transform="matrix(1.0, 0.0, 0.0, 1.0, 10.5, -0.5)">
    <path d="M5.3 4.6 L5.5 5.5 Q7.2 7.3 7.45 10.5 L7.5 11.5 Q9.25 14.25 8.05 19.4 L7.5 19.5 7.6 20.45 Q8.15 22.65 6.5 22.5 10.3 34.2 7.6 47.5 L7.5 48.5 7.25 49.25 6.5 49.5 Q10.2 62.15 7.0 76.4 L6.5 76.5 6.5 79.5 6.5 80.5 Q10.45 90.85 7.05 103.35 L6.5 103.5 Q6.45 107.0 7.35 109.55 L7.5 110.5 7.5 111.5 Q9.25 114.25 8.55 119.5 L8.5 120.5 8.55 121.5 Q9.4 127.9 6.5 130.5 6.35 134.65 7.35 137.55 L7.5 138.5 7.5 139.5 8.0 139.6 Q9.8 150.8 6.5 157.5 6.7 163.3 8.35 167.55 L8.5 168.5 8.55 169.5 Q9.25 176.25 7.5 180.5 L7.55 181.5 Q7.95 185.95 5.5 187.5 L5.5 188.5 Q9.95 196.55 8.0 210.45 L7.5 210.5 7.3 211.4 6.5 212.5 6.5 215.5 6.5 216.5 Q7.0 216.5 7.25 216.75 L7.5 217.5 Q9.25 233.75 8.5 252.5 L8.5 253.5 8.5 269.5 8.5 270.5 8.5 315.5 8.5 316.5 7.5 316.5 6.5 316.5 -8.5 316.5 -9.5 316.5 -10.5 316.5 -10.5 315.5 -10.5 306.5 -10.5 305.5 -10.5 297.5 -10.5 296.5 -10.5 264.5 -10.5 263.5 -10.5 225.5 -9.5 225.5 -9.5 224.5 -9.5 223.5 -9.5 216.5 -8.4 215.7 -7.5 215.5 Q-7.5 215.0 -7.65 214.55 -8.3 212.3 -8.5 209.5 L-9.0 209.45 Q-9.5 202.5 -9.5 195.5 L-9.5 194.5 Q-8.15 192.85 -7.1 190.7 -7.0 190.5 -6.5 190.5 L-6.45 189.5 Q-6.15 185.95 -9.5 181.5 L-9.5 180.5 -9.5 172.5 -9.5 171.5 -9.5 168.5 Q-7.8 167.7 -8.0 164.5 L-7.5 164.5 -7.5 163.5 -7.5 162.5 -6.4 161.7 -5.5 161.5 -5.5 160.5 -5.5 159.5 -6.25 159.25 Q-7.95 157.45 -8.5 154.5 L-9.0 154.45 Q-9.5 147.0 -9.5 139.5 L-8.5 139.5 -8.5 138.5 -8.5 136.5 -7.4 135.7 -6.5 135.5 -6.3 134.65 Q-5.3 133.05 -6.5 130.5 -7.0 130.5 -7.1 130.3 -7.5 129.5 -7.5 128.5 L-8.1 128.3 Q-8.5 127.5 -8.5 126.5 L-9.0 126.45 Q-9.5 119.5 -9.5 112.5 L-8.5 112.5 -8.5 111.5 -8.5 109.5 -7.4 108.7 -6.5 108.5 -6.45 107.5 Q-6.1 103.9 -8.5 98.5 L-9.0 98.45 Q-9.5 92.0 -9.5 85.5 L-8.5 85.5 -8.5 84.5 -8.5 82.5 -7.4 81.7 -6.5 81.5 -6.3 80.6 Q-5.0 78.45 -6.5 75.5 -7.0 75.5 -7.1 75.3 -7.5 74.5 -7.5 73.5 L-8.0 73.45 Q-8.5 69.5 -8.5 65.5 L-8.5 64.5 -8.5 55.5 Q-7.0 54.5 -6.1 52.7 L-5.5 52.5 -5.5 51.5 -5.5 49.5 -6.25 49.25 Q-8.3 47.3 -8.5 43.5 L-8.5 42.5 -8.5 28.5 Q-7.0 27.5 -6.1 25.7 L-5.5 25.5 -5.6 24.5 -6.5 20.5 Q-7.0 20.5 -7.1 20.3 -8.85 16.85 -8.5 11.5 L-7.5 11.5 -7.5 10.5 -7.5 9.5 -7.5 6.5 -5.35 4.75 -4.5 4.5 -4.5 3.5 Q-2.8 3.2 -2.1 1.7 L-1.5 1.5 -1.5 0.5 -0.5 0.5 0.5 0.5 1.5 0.5 Q3.95 2.05 5.3 4.6" fill="#009900" fill-rule="evenodd" stroke="none"/>
  </g>
</svg>
