<?xml version="1.0" encoding="UTF-8" standalone="no"?>
<svg xmlns:ffdec="https://www.free-decompiler.com/flash" xmlns:xlink="http://www.w3.org/1999/xlink" ffdec:objectType="shape" height="70.0px" width="156.0px" xmlns="http://www.w3.org/2000/svg">
  <g transform="matrix(1.0, 0.0, 0.0, 1.0, -3.0, 18.0)">
    <path d="M159.0 52.0 L3.0 52.0 3.0 0.0 159.0 0.0 159.0 52.0" fill="#000000" fill-opacity="0.003921569" fill-rule="evenodd" stroke="none"/>
    <path d="M13.0 1.0 L4.0 1.0 4.0 10.0 3.0 10.0 3.0 0.0 13.0 0.0 13.0 1.0" fill="#ffffff" fill-rule="evenodd" stroke="none"/>
    <path d="M159.0 42.0 L159.0 52.0 149.0 52.0 149.0 51.0 158.0 51.0 158.0 42.0 159.0 42.0" fill="#ffffff" fill-rule="evenodd" stroke="none"/>
    <path d="M158.0 1.0 L149.0 1.0 149.0 0.0 159.0 0.0 159.0 10.0 158.0 10.0 158.0 1.0" fill="#ffffff" fill-rule="evenodd" stroke="none"/>
    <path d="M4.0 42.0 L4.0 51.0 13.0 51.0 13.0 52.0 3.0 52.0 3.0 42.0 4.0 42.0" fill="#ffffff" fill-rule="evenodd" stroke="none"/>
    <path d="M52.0 -5.0 L3.0 -5.0 3.0 -18.0 52.0 -18.0 52.0 -5.0" fill="#ffffff" fill-opacity="0.7490196" fill-rule="evenodd" stroke="none"/>
  </g>
</svg>
