<?xml version="1.0" encoding="UTF-8" standalone="no"?>
<svg xmlns:ffdec="https://www.free-decompiler.com/flash" xmlns:xlink="http://www.w3.org/1999/xlink" ffdec:objectType="shape" height="7.0px" width="23.0px" xmlns="http://www.w3.org/2000/svg">
  <g transform="matrix(1.0, 0.0, 0.0, 1.0, 0.0, 0.0)">
    <path d="M23.0 2.0 L22.0 2.0 22.0 1.0 19.0 1.0 19.0 6.0 22.0 6.0 22.0 5.0 23.0 5.0 23.0 6.0 22.0 6.0 22.0 7.0 19.0 7.0 19.0 6.0 18.0 6.0 18.0 1.0 19.0 1.0 19.0 0.0 22.0 0.0 22.0 1.0 23.0 1.0 23.0 2.0 M16.0 1.0 L13.0 1.0 13.0 3.0 16.0 3.0 16.0 4.0 17.0 4.0 17.0 6.0 16.0 6.0 16.0 7.0 13.0 7.0 13.0 6.0 12.0 6.0 12.0 5.0 13.0 5.0 13.0 6.0 16.0 6.0 16.0 4.0 13.0 4.0 13.0 3.0 12.0 3.0 12.0 1.0 13.0 1.0 13.0 0.0 16.0 0.0 16.0 1.0 17.0 1.0 17.0 2.0 16.0 2.0 16.0 1.0 M11.0 1.0 L9.0 1.0 9.0 6.0 11.0 6.0 11.0 7.0 6.0 7.0 6.0 6.0 8.0 6.0 8.0 1.0 6.0 1.0 6.0 0.0 11.0 0.0 11.0 1.0 M4.0 1.0 L5.0 1.0 5.0 6.0 4.0 6.0 4.0 7.0 0.0 7.0 0.0 0.0 4.0 0.0 4.0 1.0 1.0 1.0 1.0 6.0 4.0 6.0 4.0 1.0" fill="#000000" fill-rule="evenodd" stroke="none"/>
  </g>
</svg>
