<?xml version="1.0" encoding="UTF-8" standalone="no"?>
<svg xmlns:ffdec="https://www.free-decompiler.com/flash" xmlns:xlink="http://www.w3.org/1999/xlink" ffdec:objectType="shape" height="70.0px" width="100.0px" xmlns="http://www.w3.org/2000/svg">
  <g transform="matrix(1.0, 0.0, 0.0, 1.0, -180.0, 0.0)">
    <path d="M270.0 40.0 L240.0 40.0 240.0 70.0 230.0 70.0 230.0 10.0 240.0 10.0 240.0 0.0 280.0 0.0 280.0 10.0 240.0 10.0 240.0 30.0 270.0 30.0 270.0 40.0 M210.0 10.0 L220.0 10.0 220.0 30.0 210.0 30.0 210.0 40.0 190.0 40.0 190.0 30.0 180.0 30.0 180.0 10.0 190.0 10.0 190.0 0.0 210.0 0.0 210.0 10.0 190.0 10.0 190.0 30.0 210.0 30.0 210.0 10.0" fill="#ffffff" fill-rule="evenodd" stroke="none"/>
  </g>
</svg>
