<?xml version="1.0" encoding="UTF-8" standalone="no"?>
<svg xmlns:ffdec="https://www.free-decompiler.com/flash" xmlns:xlink="http://www.w3.org/1999/xlink" ffdec:objectType="shape" height="295.95px" width="362.4px" xmlns="http://www.w3.org/2000/svg">
  <g transform="matrix(1.0, 0.0, 0.0, 1.0, 256.05, 144.4)">
    <path d="M-0.45 -144.4 L-0.45 -88.95 106.35 -88.95 106.35 151.55 -94.5 151.55 -94.5 76.9 -256.05 76.9 -256.05 -144.4 -0.45 -144.4" fill="#434343" fill-rule="evenodd" stroke="none"/>
    <path d="M26.8 -80.0 L26.8 -81.0 64.0 -81.0 64.0 -80.0 94.5 -80.0 94.5 -64.5 97.5 -64.5 97.5 6.0 95.5 6.0 95.5 17.9 21.5 17.9 21.5 25.75 95.5 25.75 95.5 45.15 98.3 45.15 98.3 114.15 96.0 114.15 96.0 141.8 91.0 141.8 91.0 143.8 19.5 143.8 19.5 141.8 -10.35 141.8 -10.35 143.8 -81.85 143.8 -81.85 141.8 -82.5 141.8 -82.5 141.5 -86.5 141.5 -86.5 125.5 -88.2 125.5 -88.2 95.5 -85.7 95.5 -85.7 89.05 -82.5 89.05 -82.5 65.5 -87.0 65.5 -87.0 71.5 -187.2 71.5 -187.2 30.65 -182.2 30.65 -182.2 26.5 -155.0 26.5 -155.0 30.65 -149.7 30.65 -149.7 26.5 -87.5 26.5 -87.5 31.0 -82.5 31.0 -82.5 26.5 -30.2 26.5 -30.2 -28.0 -40.0 -28.0 -40.0 -24.65 -34.25 -24.65 -34.25 22.5 -102.5 22.5 -102.5 17.25 -104.75 17.25 -104.75 22.5 -128.45 22.5 -128.45 -0.2 -104.75 -0.2 -104.75 1.75 -102.5 1.75 -102.5 -3.75 -104.75 -3.75 -104.75 -1.7 -128.45 -1.7 -128.45 -24.65 -104.75 -24.65 -104.75 -19.25 -102.5 -19.25 -102.5 -24.65 -69.7 -24.65 -69.7 -28.0 -142.5 -28.0 -142.5 18.0 -155.0 18.0 -155.0 22.5 -182.2 22.5 -182.2 18.0 -193.0 18.0 -193.0 57.5 -247.5 57.5 -247.5 -33.5 -250.5 -33.5 -250.5 -63.0 -247.5 -63.0 -247.5 -136.45 -8.5 -136.45 -8.5 -83.5 7.0 -83.5 7.0 -13.0 21.5 -13.0 21.5 -11.5 26.8 -11.5 26.8 -21.5 10.8 -21.5 10.8 -80.0 26.8 -80.0" fill="#969696" fill-rule="evenodd" stroke="none"/>
    <path d="M-172.5 -99.0 L-172.5 -41.7 -203.35 -41.7 -203.35 -99.0 -172.5 -99.0" fill="#707070" fill-rule="evenodd" stroke="none"/>
    <path d="M-35.5 15.65 L-35.5 22.5 -89.35 22.5 -89.35 15.65 -35.5 15.65" fill="#707070" fill-rule="evenodd" stroke="none"/>
    <path d="M23.15 117.0 L26.4 118.15 29.15 120.25 31.15 123.1 32.25 126.35 32.3 128.0 81.3 128.0 81.3 93.3 96.0 93.3 96.0 141.8 32.0 141.8 32.0 131.1 31.4 133.15 29.5 136.05 26.85 138.25 23.65 139.55 20.25 139.9 16.85 139.2 13.8 137.55 11.4 135.05 9.85 132.0 9.25 128.6 9.7 125.15 11.15 122.0 13.4 119.45 16.4 117.65 19.75 116.8 23.15 117.0" fill="#707070" fill-rule="evenodd" stroke="none"/>
    <path d="M95.5 53.3 L95.5 67.3 22.65 67.3 22.65 47.65 35.0 47.65 35.0 53.3 95.5 53.3" fill="#707070" fill-rule="evenodd" stroke="none"/>
    <path d="M73.65 37.0 L61.3 37.0 61.3 25.75 73.65 25.75 73.65 37.0" fill="#707070" fill-rule="evenodd" stroke="none"/>
    <path d="M-68.35 89.05 L-68.35 114.65 -85.7 114.65 -85.7 89.05 -68.35 89.05" fill="#707070" fill-rule="evenodd" stroke="none"/>
    <path d="M-186.0 30.65 L-160.35 30.65 -158.35 42.3 -174.0 42.3 -174.0 58.0 -186.0 58.0 -186.0 30.65" fill="#707070" fill-rule="evenodd" stroke="none"/>
    <path d="M87.3 37.0 L75.0 37.0 75.0 25.75 87.3 25.75 87.3 37.0" fill="#707070" fill-rule="evenodd" stroke="none"/>
    <path d="M51.65 25.75 L51.65 30.0 26.0 30.0 26.0 25.75 51.65 25.75" fill="#707070" fill-rule="evenodd" stroke="none"/>
    <path d="M95.5 9.15 L95.5 17.9 54.0 17.9 54.0 9.15 95.5 9.15" fill="#707070" fill-rule="evenodd" stroke="none"/>
    <path d="M-125.05 14.45 L-128.45 14.45 -128.45 7.05 -125.05 7.05 -123.5 6.3 -120.95 6.05 -118.5 6.65 -116.55 7.9 -115.5 9.65 -115.5 11.6 -116.55 13.35 -118.45 14.65 -120.85 15.25 -123.4 15.05 -125.05 14.45" fill="#707070" fill-rule="evenodd" stroke="none"/>
    <path d="M-116.55 -14.85 L-115.5 -13.1 -115.5 -11.15 -116.55 -9.4 -118.45 -8.1 -120.85 -7.5 -123.4 -7.7 -125.05 -8.3 -128.45 -8.3 -128.45 -15.7 -125.05 -15.7 -123.5 -16.45 -120.95 -16.7 -118.5 -16.1 -116.55 -14.85" fill="#707070" fill-rule="evenodd" stroke="none"/>
    <path d="M-84.35 -24.65 L-84.35 -18.35 -94.7 -18.35 -94.7 -24.65 -84.35 -24.65" fill="#707070" fill-rule="evenodd" stroke="none"/>
    <path d="M-70.35 -98.0 L-70.35 -78.7 -81.7 -78.7 -81.7 -98.0 -70.35 -98.0" fill="#707070" fill-rule="evenodd" stroke="none"/>
    <path d="M-9.7 -134.35 L-9.7 -116.7 -29.0 -116.7 -29.0 -134.35 -9.7 -134.35" fill="#707070" fill-rule="evenodd" stroke="none"/>
    <path d="M-168.35 -134.35 L-168.35 -128.0 -245.35 -128.0 -245.35 -134.35 -168.35 -134.35" fill="#707070" fill-rule="evenodd" stroke="none"/>
    <path d="M-144.25 2.0 L-143.35 15.7 -169.6 17.45 -170.5 3.7 -144.25 2.0" fill="#707070" fill-rule="evenodd" stroke="none"/>
    <path d="M-206.45 29.7 L-192.95 31.7 -196.6 56.45 -210.05 54.45 -209.75 52.25 -213.0 52.25 -213.0 55.5 -231.0 55.5 -231.0 41.5 -213.0 41.5 -213.0 43.5 -208.45 43.5 -206.45 29.7" fill="#707070" fill-rule="evenodd" stroke="none"/>
    <path d="M-61.85 123.1 L-60.75 126.35 -60.65 129.8 -61.6 133.15 -63.5 136.05 -66.15 138.25 -69.35 139.55 -72.75 139.9 -76.15 139.2 -79.2 137.55 -81.6 135.05 -83.15 132.0 -83.75 128.6 -83.3 125.15 -81.85 122.0 -79.6 119.45 -76.6 117.65 -73.25 116.8 -69.85 117.0 -66.6 118.15 -63.85 120.25 -61.85 123.1" fill="#707070" fill-rule="evenodd" stroke="none"/>
    <path d="M-17.5 120.25 L-15.5 123.1 -14.4 126.35 -14.35 129.8 -15.25 133.15 -17.15 136.05 -19.8 138.25 -23.0 139.55 -26.45 139.9 -29.8 139.2 -32.85 137.55 -35.25 135.05 -36.8 132.0 -37.4 128.6 -36.95 125.15 -35.55 122.0 -33.25 119.45 -30.3 117.65 -26.95 116.8 -23.5 117.0 -20.25 118.15 -17.5 120.25" fill="#707070" fill-rule="evenodd" stroke="none"/>
    <path d="M-3.0 141.75 L-3.0 138.5 12.5 138.5 12.5 141.75 -3.0 141.75" fill="#707070" fill-rule="evenodd" stroke="none"/>
    <path d="M-151.45 76.9 L-151.45 71.5 -123.1 71.5 -123.1 76.9 -151.45 76.9" fill="#ffffff" fill-rule="evenodd" stroke="none"/>
  </g>
</svg>
