<?xml version="1.0" encoding="UTF-8" standalone="no"?>
<svg xmlns:ffdec="https://www.free-decompiler.com/flash" xmlns:xlink="http://www.w3.org/1999/xlink" ffdec:objectType="shape" height="616.0px" width="511.5px" xmlns="http://www.w3.org/2000/svg">
  <g transform="matrix(1.0, 0.0, 0.0, 1.0, 390.45, 554.95)">
    <path d="M102.05 -91.95 L92.05 -68.45 79.05 -46.45 52.05 -12.45 Q43.55 -3.95 34.55 4.05 L-3.45 30.05 Q-18.95 37.55 -34.95 45.05 L-74.95 55.55 -125.95 61.05 -229.45 61.05 -229.45 8.55 -390.45 8.55 -389.45 -319.95 Q-385.95 -339.95 -382.95 -360.45 -376.95 -380.95 -371.45 -401.95 L-348.45 -447.95 Q-334.95 -464.45 -321.45 -481.45 -312.45 -489.45 -303.95 -497.95 L-265.95 -523.95 Q-249.95 -531.45 -234.45 -538.95 -214.45 -543.95 -194.45 -549.45 L-153.45 -554.45 Q-96.95 -554.45 -40.45 -554.95 L-40.45 -502.45 121.05 -502.45 120.05 -173.95 Q114.55 -143.95 108.55 -114.45 105.55 -102.95 102.05 -91.95" fill="#424242" fill-rule="evenodd" stroke="none"/>
    <path d="M-249.45 -102.95 L-249.45 -122.45 -225.45 -122.45 -225.45 -123.95 -251.95 -123.95 -251.95 -142.95 -202.45 -142.95 -202.45 -102.95 -249.45 -102.95" fill="#ffffff" fill-rule="evenodd" stroke="none"/>
    <path d="M-67.95 -307.95 L-71.45 -307.95 -71.45 -99.45 -67.95 -99.45 -67.95 -157.95 -63.95 -157.95 -63.95 -165.45 -67.95 -165.45 -67.95 -242.95 -63.95 -242.95 -63.95 -250.45 -67.95 -250.45 -67.95 -307.95 M-278.45 -415.95 L-206.45 -415.95 -206.45 -412.95 -127.95 -412.95 -127.95 -420.45 -135.45 -420.45 -135.45 -489.95 -63.45 -489.95 -63.45 -441.45 -60.95 -441.45 -60.95 -489.45 -10.95 -489.45 -10.95 -419.95 -60.95 -419.95 -60.95 -428.45 -63.45 -428.45 -63.45 -419.95 -71.45 -419.95 -71.45 -327.95 -63.95 -327.95 -63.95 -335.45 -6.45 -335.45 -6.45 -154.45 -4.45 -154.45 -4.45 -242.95 35.05 -242.95 35.05 -131.95 -4.45 -131.95 -4.45 -141.45 -6.45 -141.45 -6.45 -72.95 -63.95 -72.95 -63.95 -79.95 -71.45 -79.95 -71.45 -57.95 -134.95 -57.95 -134.95 -50.45 -126.95 -50.45 -126.95 -30.45 -125.45 -30.45 -125.45 -50.45 -71.45 -50.45 -71.45 -3.45 -125.45 -3.45 -125.45 -17.45 -126.95 -17.45 -126.95 -3.45 -198.95 -3.45 -198.95 -17.45 -201.95 -17.45 -201.95 -3.45 -319.95 -3.45 -319.95 -57.95 -301.45 -57.95 -301.45 -59.95 -319.95 -59.95 -319.95 -72.45 -316.45 -72.45 -316.45 -79.95 -319.95 -79.95 -319.95 -142.95 -277.95 -142.95 -277.95 -122.45 -275.45 -122.45 -275.45 -142.95 -251.95 -142.95 -251.95 -122.45 -249.45 -122.45 -249.45 -102.95 -275.45 -102.95 -275.45 -109.45 -277.95 -109.45 -277.95 -59.95 -288.45 -59.95 -288.45 -57.95 -206.45 -57.95 -206.45 -50.45 -201.95 -50.45 -201.95 -43.45 -198.95 -43.45 -198.95 -164.95 -206.45 -164.95 -206.45 -157.95 -239.45 -157.95 -239.45 -216.95 -278.45 -216.95 -278.45 -415.95 M-202.45 -393.45 L-202.45 -335.45 -206.45 -335.45 -206.45 -327.95 -202.45 -327.95 -202.45 -250.45 -206.45 -250.45 -206.45 -242.95 -202.45 -242.95 -202.45 -185.95 -198.95 -185.95 -198.95 -393.45 -202.45 -393.45" fill="#959595" fill-rule="evenodd" stroke="none"/>
    <path d="M-88.45 -304.95 L-88.45 -273.45 -110.45 -273.45 -110.45 -304.95 -88.45 -304.95" fill="#6f6f6f" fill-rule="evenodd" stroke="none"/>
    <path d="M-182.45 -189.45 L-182.45 -220.45 -160.45 -220.45 -160.45 -189.45 -182.45 -189.45" fill="#6f6f6f" fill-rule="evenodd" stroke="none"/>
    <path d="M-88.45 -220.45 L-88.45 -189.45 -110.45 -189.45 -110.45 -220.45 -88.45 -220.45" fill="#6f6f6f" fill-rule="evenodd" stroke="none"/>
    <path d="M-182.45 -273.45 L-182.45 -304.95 -160.45 -304.95 -160.45 -273.45 -182.45 -273.45" fill="#6f6f6f" fill-rule="evenodd" stroke="none"/>
    <path d="M-46.95 -286.95 L-31.45 -286.95 -31.45 -206.95 -46.95 -206.95 -48.95 -245.95 -46.95 -286.95" fill="#6f6f6f" fill-rule="evenodd" stroke="none"/>
    <path d="M-28.95 -114.95 L-28.95 -123.95 -19.45 -123.95 -19.45 -114.95 -28.95 -114.95" fill="#6f6f6f" fill-rule="evenodd" stroke="none"/>
    <path d="M-198.95 -157.45 L-198.95 -164.95 -190.45 -164.95 -190.45 -157.45 -198.95 -157.45" fill="#6f6f6f" fill-rule="evenodd" stroke="none"/>
    <path d="M-79.95 -157.95 L-79.95 -165.45 -71.45 -165.45 -71.45 -157.95 -79.95 -157.95" fill="#6f6f6f" fill-rule="evenodd" stroke="none"/>
    <path d="M-198.95 -327.95 L-198.95 -335.45 -190.45 -335.45 -190.45 -327.95 -198.95 -327.95" fill="#6f6f6f" fill-rule="evenodd" stroke="none"/>
    <path d="M-79.95 -327.95 L-79.95 -335.45 -71.45 -335.45 -71.45 -327.95 -79.95 -327.95" fill="#6f6f6f" fill-rule="evenodd" stroke="none"/>
    <path d="M-29.95 -114.45 L-18.95 -114.45 -18.95 -89.45 -29.95 -89.45 -29.95 -114.45" fill="#6f6f6f" fill-rule="evenodd" stroke="none"/>
    <path d="M-275.95 -3.45 L-275.95 -7.95 -222.45 -7.95 -222.45 -3.45 -275.95 -3.45" fill="#6f6f6f" fill-rule="evenodd" stroke="none"/>
    <path d="M-224.45 -302.95 Q-224.45 -297.45 -224.95 -291.95 -237.45 -291.95 -250.45 -292.45 -249.95 -297.95 -249.95 -303.45 -236.95 -302.95 -224.45 -302.95" fill="#6f6f6f" fill-rule="evenodd" stroke="none"/>
    <path d="M-251.45 -292.45 Q-263.95 -291.95 -276.95 -291.95 L-276.95 -302.95 Q-264.45 -302.95 -251.95 -303.45 -251.45 -297.95 -251.45 -292.45" fill="#6f6f6f" fill-rule="evenodd" stroke="none"/>
    <path d="M-277.45 -305.45 L-277.45 -316.45 Q-252.95 -316.45 -228.45 -316.95 -227.95 -311.45 -227.95 -305.95 -252.45 -305.45 -277.45 -305.45" fill="#6f6f6f" fill-rule="evenodd" stroke="none"/>
    <path d="M-226.45 -358.95 L-226.45 -347.95 Q-250.95 -347.45 -275.95 -347.45 L-275.95 -358.45 Q-250.95 -358.45 -226.45 -358.95" fill="#6f6f6f" fill-rule="evenodd" stroke="none"/>
    <path d="M-226.95 -361.95 L-251.95 -361.95 -251.95 -372.95 -226.95 -372.95 -226.95 -361.95" fill="#6f6f6f" fill-rule="evenodd" stroke="none"/>
    <path d="M-254.45 -361.45 L-278.45 -361.45 -278.45 -372.45 -254.45 -372.45 -254.45 -361.45" fill="#6f6f6f" fill-rule="evenodd" stroke="none"/>
    <path d="M-252.45 -263.95 Q-239.45 -263.45 -226.95 -263.45 L-226.95 -252.45 Q-239.45 -252.45 -252.45 -252.95 L-252.45 -263.95" fill="#6f6f6f" fill-rule="evenodd" stroke="none"/>
    <path d="M-278.45 -263.45 Q-265.45 -263.45 -252.95 -263.95 L-252.95 -252.95 Q-265.45 -252.45 -278.45 -252.45 L-278.45 -263.45" fill="#6f6f6f" fill-rule="evenodd" stroke="none"/>
    <path d="M-224.95 -404.95 L-278.45 -404.95 -278.45 -415.95 -224.95 -415.95 -224.95 -404.95" fill="#6f6f6f" fill-rule="evenodd" stroke="none"/>
    <path d="M-36.45 -443.45 L-36.45 -453.95 Q-23.95 -453.95 -11.45 -454.45 L-11.45 -444.45 -36.45 -443.45" fill="#6f6f6f" fill-rule="evenodd" stroke="none"/>
    <path d="M-13.45 -456.95 L-38.45 -456.95 -38.45 -467.45 Q-25.95 -467.45 -13.45 -467.95 L-13.45 -456.95" fill="#6f6f6f" fill-rule="evenodd" stroke="none"/>
    <path d="M-33.95 -481.95 L-60.95 -481.95 -60.95 -489.45 -33.95 -489.45 -33.95 -481.95" fill="#6f6f6f" fill-rule="evenodd" stroke="none"/>
  </g>
</svg>
