<?xml version="1.0" encoding="UTF-8" standalone="no"?>
<svg xmlns:ffdec="https://www.free-decompiler.com/flash" xmlns:xlink="http://www.w3.org/1999/xlink" ffdec:objectType="shape" height="20.6px" width="20.6px" xmlns="http://www.w3.org/2000/svg">
  <g transform="matrix(1.0, 0.0, 0.0, 1.0, 10.3, 10.3)">
    <path d="M6.35 -6.35 Q9.0 -3.7 9.0 0.0 9.0 3.7 6.35 6.35 3.7 9.0 0.0 9.0 -3.7 9.0 -6.35 6.35 -9.0 3.7 -9.0 0.0 -9.0 -3.7 -6.35 -6.35 -3.7 -9.0 0.0 -9.0 3.7 -9.0 6.35 -6.35" fill="#ffffff" fill-rule="evenodd" stroke="none"/>
    <path d="M6.35 -6.35 Q9.0 -3.7 9.0 0.0 9.0 3.7 6.35 6.35 3.7 9.0 0.0 9.0 -3.7 9.0 -6.35 6.35 -9.0 3.7 -9.0 0.0 -9.0 -3.7 -6.35 -6.35 -3.7 -9.0 0.0 -9.0 3.7 -9.0 6.35 -6.35 Z" fill="none" stroke="#000000" stroke-linecap="square" stroke-linejoin="round" stroke-width="2.0"/>
  </g>
</svg>
