<?xml version="1.0" encoding="UTF-8" standalone="no"?>
<svg xmlns:ffdec="https://www.free-decompiler.com/flash" xmlns:xlink="http://www.w3.org/1999/xlink" ffdec:objectType="shape" height="81.95px" width="201.7px" xmlns="http://www.w3.org/2000/svg">
  <g transform="matrix(1.0, 0.0, 0.0, 1.0, 99.7, 41.1)">
    <path d="M96.1 -39.7 L97.8 -34.2 97.85 -33.05 97.25 -32.1 Q96.8 -31.7 96.2 -31.6 L95.85 -31.55 95.9 -31.4 95.9 -31.35 96.8 -25.7 96.85 -25.45 97.9 -25.65 99.1 -25.45 99.2 -25.35 99.85 -24.75 100.0 -24.6 100.2 -23.45 99.65 -17.6 Q99.6 -16.95 99.15 -16.45 L99.1 -16.45 99.1 -16.4 Q98.65 -15.95 98.0 -15.8 L97.95 -15.8 86.4 -13.95 Q85.6 -13.85 84.95 -14.35 L84.7 -14.35 84.6 -14.25 Q84.1 -13.6 83.3 -13.45 L77.75 -12.6 Q76.95 -12.5 76.3 -13.0 75.6 -13.5 75.5 -14.3 L74.5 -20.4 73.8 -20.3 74.8 -14.15 Q74.9 -13.35 74.4 -12.65 L74.35 -12.6 Q73.9 -12.0 73.15 -11.85 L73.1 -11.85 67.55 -11.0 Q66.75 -10.9 66.05 -11.4 65.4 -11.9 65.25 -12.7 L63.1 -26.65 61.25 -26.3 63.45 -12.35 Q63.55 -11.55 63.05 -10.85 62.55 -10.2 61.75 -10.05 L56.2 -9.2 Q55.4 -9.1 54.7 -9.6 54.05 -10.1 53.9 -10.9 L51.7 -24.85 49.3 -24.45 48.2 -24.6 Q47.7 -24.85 47.4 -25.3 47.05 -25.8 47.0 -26.35 L46.75 -31.85 Q46.7 -32.6 47.2 -33.15 L47.25 -33.2 47.25 -33.25 47.2 -33.2 Q47.65 -33.8 48.4 -33.95 L48.5 -33.95 61.6 -36.0 61.65 -36.0 62.6 -35.85 Q63.0 -36.25 63.6 -36.35 L69.15 -37.2 Q69.95 -37.3 70.65 -36.8 71.3 -36.3 71.45 -35.5 L72.3 -30.0 72.95 -30.1 72.1 -35.65 Q72.0 -36.45 72.5 -37.15 73.0 -37.8 73.8 -37.95 L79.35 -38.8 80.7 -38.5 81.15 -38.5 Q81.65 -39.15 82.45 -39.3 L93.9 -41.1 Q94.65 -41.2 95.3 -40.8 95.9 -40.4 96.1 -39.7 M79.65 -36.8 L74.1 -35.95 75.25 -28.45 70.6 -27.7 69.45 -35.2 63.9 -34.35 67.25 -13.0 72.8 -13.85 71.5 -21.95 76.15 -22.7 77.45 -14.6 83.0 -15.45 79.65 -36.8 M95.9 -33.6 L94.2 -39.1 82.75 -37.3 86.1 -15.95 97.65 -17.8 98.2 -23.65 90.75 -22.5 90.4 -24.7 94.8 -25.4 93.9 -31.05 89.5 -30.35 89.15 -32.55 95.9 -33.6 M78.7 -11.15 L78.85 -11.15 79.9 -10.5 79.95 -10.4 80.0 -10.35 80.05 -10.3 82.0 -7.45 81.95 -10.0 Q81.95 -10.75 82.4 -11.3 L82.55 -11.45 Q83.0 -11.9 83.65 -12.0 L89.2 -12.9 90.25 -12.8 91.2 -13.25 96.35 -14.05 Q97.15 -14.15 97.85 -13.65 98.5 -13.15 98.65 -12.35 L100.95 2.25 100.95 2.95 101.15 3.6 102.0 9.0 Q102.1 9.8 101.6 10.5 101.1 11.15 100.3 11.3 L95.15 12.1 Q94.35 12.2 93.65 11.7 93.0 11.2 92.85 10.4 L92.0 5.0 92.05 4.3 91.9 4.0 92.05 10.8 Q92.1 11.55 91.65 12.15 L91.5 12.25 91.45 12.3 Q91.0 12.75 90.35 12.85 L85.9 13.55 84.9 13.45 84.75 13.4 83.95 12.65 81.2 8.6 79.85 13.3 79.9 13.25 79.35 14.25 79.2 14.35 78.3 14.75 73.85 15.5 72.6 15.3 72.45 15.2 Q71.8 14.8 71.6 14.05 L71.6 14.1 69.95 8.5 69.95 8.55 Q69.35 10.95 67.9 13.0 L67.85 13.0 67.8 13.1 67.75 13.1 Q66.3 15.15 64.25 16.45 L64.1 16.55 Q61.95 17.95 59.4 18.35 L54.2 18.05 Q51.65 17.35 49.6 15.85 L47.4 13.8 48.0 17.55 Q48.1 18.35 47.6 19.05 47.1 19.75 46.3 19.85 L43.65 20.25 42.9 20.2 42.8 20.2 42.25 19.95 42.1 19.85 36.65 15.45 37.25 19.25 Q37.35 20.05 36.85 20.75 L36.8 20.8 Q36.35 21.4 35.6 21.55 L35.55 21.55 30.0 22.4 Q29.2 22.5 28.5 22.0 27.85 21.5 27.7 20.7 L24.35 -0.65 Q24.25 -1.5 24.75 -2.15 25.25 -2.85 26.05 -2.95 L28.55 -3.3 28.65 -3.3 29.45 -3.2 29.4 -3.2 30.1 -2.85 30.15 -2.8 30.2 -2.8 35.75 1.85 35.1 -2.35 Q35.0 -3.15 35.5 -3.85 36.0 -4.55 36.8 -4.65 L42.35 -5.5 Q43.15 -5.6 43.85 -5.1 44.5 -4.6 44.65 -3.8 L45.25 -0.1 46.6 -2.6 46.7 -2.75 Q48.15 -4.85 50.4 -6.25 52.6 -7.6 55.25 -8.05 L55.3 -8.05 55.45 -8.05 60.35 -7.8 60.3 -7.85 60.5 -7.8 60.6 -7.75 60.65 -7.75 Q62.95 -7.05 64.95 -5.65 L65.0 -5.6 66.05 -4.75 65.4 -6.8 Q65.25 -7.4 65.4 -7.95 L65.95 -8.85 65.95 -8.9 66.0 -8.95 67.0 -9.35 72.55 -10.25 73.9 -10.0 74.75 -8.9 75.55 -6.4 76.5 -9.75 76.55 -9.9 Q76.8 -10.55 77.35 -10.9 L77.55 -11.0 78.7 -11.15 M38.8 -30.35 L33.25 -29.5 34.7 -20.1 25.0 -28.15 22.5 -27.8 25.85 -6.45 31.4 -7.3 29.95 -16.35 39.5 -8.6 42.15 -9.0 38.8 -30.35 M48.75 -31.95 L49.0 -26.45 53.4 -27.15 55.9 -11.2 61.45 -12.05 58.95 -28.0 63.3 -28.7 61.9 -34.0 48.75 -31.95 M99.15 3.9 L94.0 4.7 94.85 10.1 100.0 9.3 99.15 3.9 M93.8 3.35 L98.95 2.55 96.65 -12.05 91.5 -11.25 93.8 3.35 M75.55 0.4 L75.5 0.4 72.85 -8.3 67.3 -7.4 73.5 13.5 77.95 12.75 80.45 3.9 85.6 11.55 90.05 10.85 89.5 -10.95 83.95 -10.05 84.15 -0.95 84.05 -0.95 78.4 -9.2 75.55 0.4 M62.55 4.3 L62.5 6.4 61.6 8.35 60.15 9.8 Q59.25 10.4 58.2 10.6 L56.05 10.45 Q55.05 10.2 54.15 9.55 L52.75 8.0 Q52.2 7.05 52.0 5.95 51.85 4.8 52.1 3.75 52.35 2.75 52.95 1.85 L54.45 0.4 Q55.35 -0.15 56.45 -0.3 L58.55 -0.2 Q59.6 0.05 60.4 0.75 L61.85 2.25 Q62.4 3.2 62.55 4.3 M68.25 3.4 Q67.9 1.05 66.7 -0.8 65.5 -2.75 63.75 -4.05 62.0 -5.3 59.9 -5.9 L55.55 -6.05 Q53.3 -5.7 51.45 -4.55 49.55 -3.35 48.3 -1.6 47.05 0.2 46.55 2.35 45.95 4.5 46.3 6.85 46.7 9.15 47.9 11.05 49.1 13.0 50.8 14.25 52.55 15.55 54.7 16.1 L59.1 16.35 Q61.3 16.0 63.15 14.75 65.0 13.6 66.25 11.8 67.55 10.05 68.05 7.9 68.65 5.7 68.25 3.4 M40.8 -30.65 L44.15 -9.3 Q44.25 -8.5 43.75 -7.8 43.25 -7.1 42.45 -7.0 L39.8 -6.6 39.05 -6.65 38.95 -6.65 38.4 -6.9 38.25 -7.0 32.8 -11.4 33.4 -7.6 Q33.5 -6.8 33.0 -6.1 L32.95 -6.05 Q32.5 -5.45 31.75 -5.3 L31.7 -5.3 26.15 -4.45 Q25.35 -4.35 24.7 -4.85 L24.65 -4.8 Q24.15 -4.15 23.35 -4.0 L17.8 -3.1 Q17.0 -3.0 16.35 -3.5 L16.3 -3.55 Q15.65 -4.0 15.5 -4.75 L15.5 -4.8 12.15 -26.15 Q12.05 -26.95 12.55 -27.6 13.05 -28.3 13.85 -28.4 L19.4 -29.3 20.85 -28.95 20.9 -29.0 Q21.4 -29.7 22.2 -29.8 L24.7 -30.15 24.8 -30.15 25.6 -30.05 25.55 -30.05 26.25 -29.7 26.3 -29.65 26.35 -29.65 31.9 -25.0 31.25 -29.2 Q31.15 -30.0 31.65 -30.7 32.15 -31.4 32.95 -31.5 L38.5 -32.35 Q39.3 -32.45 40.0 -31.95 40.65 -31.45 40.8 -30.65 M28.85 -1.3 L26.35 -0.95 29.7 20.4 35.25 19.55 33.8 10.5 43.35 18.25 46.0 17.85 42.65 -3.5 37.1 -2.65 38.55 6.75 28.85 -1.3 M58.15 1.75 L57.9 1.7 57.85 1.65 56.9 1.7 56.9 1.65 56.75 1.7 56.7 1.7 55.6 2.05 54.6 3.0 54.05 4.25 Q53.9 4.9 54.0 5.7 L54.0 5.75 54.45 6.95 54.5 7.0 55.35 7.95 55.4 8.0 55.45 8.05 56.55 8.55 56.75 8.6 57.95 8.6 58.05 8.6 59.05 8.15 59.9 7.25 59.9 7.3 60.0 7.15 60.55 5.95 60.6 5.9 60.6 4.8 60.55 4.6 60.15 3.25 59.25 2.4 59.05 2.2 58.15 1.75 M4.6 -26.35 Q5.25 -25.85 5.4 -25.05 L8.75 -3.7 Q8.85 -2.9 8.35 -2.2 7.85 -1.5 7.05 -1.4 L4.4 -1.0 3.65 -1.05 3.55 -1.05 3.0 -1.3 2.85 -1.4 -2.6 -5.8 -2.0 -2.0 Q-1.9 -1.2 -2.4 -0.5 L-2.45 -0.45 Q-2.9 0.15 -3.65 0.3 L-3.7 0.3 -9.25 1.15 Q-10.05 1.25 -10.75 0.75 L-10.9 0.65 -11.15 0.95 -11.2 0.95 -11.2 1.0 Q-11.65 1.45 -12.3 1.6 L-12.35 1.6 -23.9 3.45 -24.85 3.35 -25.75 3.75 -25.8 3.75 -31.5 4.65 -32.85 4.35 Q-33.5 3.95 -33.7 3.25 L-34.45 0.85 -35.45 4.3 Q-35.65 5.0 -36.35 5.4 L-36.3 5.4 Q-37.0 5.85 -37.75 5.7 L-37.75 5.65 Q-38.55 5.5 -39.0 4.85 L-38.95 4.85 -41.0 1.9 -40.95 4.4 Q-40.95 5.1 -41.35 5.7 L-41.5 5.85 Q-42.0 6.3 -42.65 6.4 L-48.35 7.3 -49.45 7.15 -50.3 6.4 -50.4 6.25 -50.65 5.4 -50.65 3.1 -51.5 4.4 -51.55 4.4 -51.6 4.5 -51.65 4.5 Q-53.1 6.55 -55.15 7.85 L-55.3 7.95 Q-57.45 9.35 -60.0 9.75 L-65.2 9.45 Q-67.75 8.75 -69.8 7.25 -71.7 5.85 -73.05 3.7 L-73.1 3.65 -72.95 9.45 Q-72.95 10.2 -73.35 10.8 L-73.5 10.9 -73.55 10.95 Q-74.0 11.4 -74.65 11.5 L-79.1 12.2 -80.1 12.1 -80.25 12.05 -81.05 11.3 -83.8 7.25 -85.15 11.95 -85.1 11.9 -85.65 12.9 -85.8 13.0 Q-86.2 13.3 -86.7 13.4 L-91.15 14.15 -92.4 13.95 -92.55 13.85 Q-93.2 13.45 -93.4 12.7 L-93.4 12.75 -99.6 -8.15 -99.6 -9.3 -99.05 -10.2 -99.05 -10.25 -99.0 -10.3 -98.0 -10.7 -92.45 -11.6 -91.1 -11.35 Q-90.5 -10.95 -90.25 -10.25 L-89.45 -7.75 -88.5 -11.1 -88.45 -11.25 -87.65 -12.25 -87.45 -12.35 -86.3 -12.5 -86.15 -12.5 Q-85.5 -12.35 -85.1 -11.85 L-85.05 -11.75 -85.0 -11.7 -84.95 -11.65 -83.0 -8.8 -83.05 -11.35 Q-83.05 -12.1 -82.6 -12.65 L-82.45 -12.8 Q-82.0 -13.25 -81.35 -13.35 L-75.8 -14.25 -74.7 -14.15 -74.6 -14.05 -73.8 -13.4 -73.75 -13.25 -73.5 -12.35 -73.45 -10.15 -72.8 -11.2 -72.7 -11.35 Q-71.25 -13.45 -69.0 -14.85 -66.8 -16.2 -64.15 -16.65 L-64.1 -16.65 -63.95 -16.65 -59.05 -16.4 -59.1 -16.45 -58.9 -16.4 -58.8 -16.35 -58.75 -16.35 Q-56.45 -15.65 -54.45 -14.25 L-54.4 -14.2 Q-52.45 -12.75 -51.1 -10.6 L-51.0 -10.5 -50.85 -10.3 -50.95 -16.45 -50.5 -17.75 -50.45 -17.8 -49.25 -18.45 -44.85 -19.2 -43.75 -19.1 -43.6 -19.0 -42.8 -18.35 -40.1 -14.2 -38.75 -18.95 -38.25 -19.8 -38.15 -19.95 -37.15 -20.45 -32.7 -21.15 -31.3 -20.85 Q-30.7 -20.45 -30.5 -19.75 L-28.55 -13.35 -29.55 -19.6 Q-29.65 -20.4 -29.15 -21.1 -28.65 -21.75 -27.85 -21.9 L-16.4 -23.7 -15.0 -23.4 -14.65 -23.1 -14.5 -23.4 Q-14.0 -24.1 -13.2 -24.2 L-10.7 -24.55 -10.6 -24.55 -9.8 -24.45 -9.85 -24.45 -9.15 -24.1 -9.1 -24.05 -9.05 -24.05 -3.5 -19.4 -4.15 -23.6 Q-4.25 -24.4 -3.75 -25.1 -3.25 -25.8 -2.45 -25.9 L3.1 -26.75 Q3.9 -26.85 4.6 -26.35 M21.25 -28.6 L20.95 -28.85 21.05 -28.7 21.05 -28.4 21.0 -28.25 21.05 -28.25 21.45 -28.3 21.25 -28.6 M-15.5 -8.0 L-16.4 -13.65 -20.8 -12.95 -21.15 -15.15 -14.4 -16.2 -16.1 -21.7 -27.55 -19.9 -24.2 1.45 -12.65 -0.4 -12.1 -6.25 -19.55 -5.1 -19.9 -7.3 -15.5 -8.0 M-10.4 -22.55 L-12.9 -22.2 -9.55 -0.85 -4.0 -1.7 -5.45 -10.75 4.1 -3.0 6.75 -3.4 3.4 -24.75 -2.15 -23.9 -0.7 -14.5 -10.4 -22.55 M19.7 -27.35 L14.15 -26.45 17.5 -5.1 23.05 -6.0 19.7 -27.35 M-17.35 3.95 L-5.9 2.15 Q-5.15 2.05 -4.5 2.45 -3.9 2.85 -3.7 3.55 L-2.0 9.05 Q-1.8 9.6 -1.95 10.2 L-2.55 11.15 Q-3.0 11.55 -3.6 11.65 L-3.95 11.7 -3.9 11.85 -3.9 11.9 -3.0 17.55 -2.95 17.8 -1.9 17.6 -1.25 17.65 1.6 2.35 Q1.7 1.7 2.15 1.25 2.6 0.75 3.25 0.65 L9.5 -0.3 10.7 -0.1 11.6 0.8 22.1 20.9 22.15 20.95 22.35 22.1 22.35 22.15 22.35 22.25 Q22.25 22.85 21.8 23.3 L21.75 23.35 Q21.3 23.8 20.7 23.9 L20.65 23.9 14.6 24.85 13.4 24.65 Q12.8 24.35 12.5 23.75 L12.05 22.8 7.6 23.55 7.45 24.55 7.45 24.6 Q7.35 25.2 6.9 25.65 L6.85 25.7 5.8 26.25 5.75 26.25 -0.3 27.2 -0.4 27.2 -1.05 27.15 -1.8 27.45 -1.85 27.45 -13.4 29.3 -14.15 29.25 -14.7 29.45 -14.75 29.45 -21.05 30.45 -21.15 30.45 -22.2 30.25 -22.3 30.2 -23.05 29.55 -23.15 29.35 -23.55 30.25 Q-24.05 30.9 -24.85 31.05 L-30.4 31.95 -31.2 31.9 -31.95 32.2 -32.0 32.2 -38.05 33.15 -39.25 32.95 -40.15 32.05 -40.6 31.1 -45.05 31.85 -45.2 32.85 -45.2 32.9 Q-45.3 33.5 -45.75 33.95 L-45.8 34.0 Q-46.25 34.45 -46.85 34.55 L-46.9 34.55 -52.95 35.5 -53.05 35.5 -54.05 35.3 -54.15 35.3 -55.05 34.4 -55.2 33.15 -51.05 10.65 -50.5 9.55 Q-50.05 9.05 -49.4 8.95 L-43.15 8.0 -41.95 8.2 Q-41.35 8.5 -41.05 9.1 L-33.85 22.9 -36.05 8.9 Q-36.15 8.1 -35.65 7.4 -35.15 6.75 -34.35 6.6 L-27.05 5.45 Q-25.15 5.15 -23.45 5.4 -21.65 5.65 -20.15 6.7 -19.4 7.15 -18.8 7.85 L-19.05 6.25 Q-19.15 5.45 -18.65 4.75 -18.15 4.1 -17.35 3.95 M10.7 15.6 L6.75 16.2 7.7 10.0 7.75 10.0 10.7 15.6 M9.8 1.7 L3.55 2.65 -0.6 25.2 5.45 24.25 5.8 21.8 13.15 20.6 14.3 22.85 20.35 21.9 9.8 1.7 M-5.6 4.15 L-17.05 5.95 -13.7 27.3 -2.15 25.45 -1.6 19.6 -9.05 20.75 -9.4 18.55 -5.0 17.85 -5.9 12.2 -10.3 12.9 -10.65 10.7 -3.9 9.65 -5.6 4.15 M47.4 13.55 L47.25 13.55 47.4 13.8 47.4 13.55 M-51.15 -5.2 Q-51.5 -7.55 -52.7 -9.4 -53.9 -11.35 -55.65 -12.65 -57.4 -13.9 -59.5 -14.5 L-63.85 -14.65 Q-66.1 -14.3 -67.95 -13.15 -69.85 -11.95 -71.1 -10.2 -72.35 -8.4 -72.85 -6.25 -73.45 -4.1 -73.1 -1.75 -72.7 0.55 -71.5 2.45 -70.3 4.4 -68.6 5.65 -66.85 6.95 -64.7 7.5 L-60.3 7.75 Q-58.1 7.4 -56.25 6.15 -54.4 5.0 -53.15 3.2 -51.85 1.45 -51.35 -0.7 -50.75 -2.9 -51.15 -5.2 M-57.55 -6.35 Q-57.0 -5.4 -56.85 -4.3 -56.65 -3.2 -56.9 -2.2 -57.2 -1.15 -57.8 -0.25 -58.35 0.6 -59.25 1.2 -60.15 1.8 -61.2 2.0 L-63.35 1.85 Q-64.35 1.6 -65.25 0.95 L-66.65 -0.6 Q-67.2 -1.55 -67.4 -2.65 -67.55 -3.8 -67.3 -4.85 L-66.45 -6.75 -64.95 -8.2 Q-64.05 -8.75 -62.95 -8.9 L-60.85 -8.8 Q-59.8 -8.55 -59.0 -7.85 L-57.55 -6.35 M-32.4 -19.15 L-36.85 -18.45 -39.4 -9.5 -44.5 -17.25 -48.95 -16.5 -48.65 5.3 -42.95 4.4 -43.1 -4.6 -43.05 -4.6 -37.35 3.7 -34.5 -5.95 -34.45 -5.95 -31.8 2.65 -26.1 1.75 -32.4 -19.15 M-58.8 -2.7 L-58.8 -3.8 -58.85 -4.0 -59.25 -5.35 -60.15 -6.2 -60.35 -6.4 -61.25 -6.85 -61.5 -6.9 -61.55 -6.95 -62.5 -6.9 -62.5 -6.95 -62.65 -6.9 -62.7 -6.9 -63.8 -6.55 -64.8 -5.6 -65.35 -4.35 -65.35 -4.4 -65.4 -2.9 -65.4 -2.85 -64.95 -1.65 -64.9 -1.6 -64.05 -0.65 -64.0 -0.6 -63.95 -0.55 -62.85 -0.05 -62.65 0.0 -61.45 0.0 -61.35 0.0 Q-60.8 -0.15 -60.35 -0.45 L-59.5 -1.35 -59.5 -1.3 -59.4 -1.45 -58.85 -2.65 -58.8 -2.7 M-92.15 -9.65 L-97.7 -8.75 -91.5 12.15 -87.05 11.4 -84.55 2.55 -79.4 10.2 -74.95 9.5 -75.5 -12.3 -81.05 -11.4 -80.85 -2.3 -80.95 -2.3 -86.6 -10.55 -89.45 -0.95 -89.5 -0.95 -92.15 -9.65 M-21.3 8.35 Q-22.4 7.6 -23.75 7.4 L-26.75 7.45 -34.05 8.6 -30.7 29.95 -25.15 29.05 -26.55 20.25 -26.5 20.25 -21.35 28.45 -15.05 27.45 -20.6 18.85 Q-19.3 17.7 -18.75 16.25 -18.2 14.85 -18.5 13.15 -18.75 11.45 -19.5 10.25 -20.2 9.05 -21.3 8.35 M-63.7 13.2 L-62.8 18.85 Q-62.7 19.45 -63.0 20.05 L-63.05 20.15 -63.65 20.8 -63.8 20.95 -65.0 21.15 -65.9 20.85 -66.45 20.75 -66.85 20.7 -66.9 20.7 -66.7 20.85 -66.65 20.9 Q-66.0 21.2 -65.3 21.6 L-65.25 21.6 -65.2 21.65 -63.45 22.9 -63.35 23.0 -62.0 24.9 -62.0 24.85 -61.85 25.1 Q-61.3 26.1 -61.0 27.65 L-60.95 27.85 Q-60.55 30.65 -61.1 32.65 L-61.1 32.6 -61.15 32.75 -61.15 32.8 Q-61.8 34.55 -62.9 35.75 L-63.15 36.0 Q-64.45 37.15 -66.2 37.8 L-66.3 37.85 -69.45 38.65 -69.65 38.7 -71.6 38.85 -72.25 38.95 -73.3 38.85 -74.0 38.45 Q-74.45 38.9 -75.05 39.0 L-75.1 39.0 -86.65 40.85 Q-87.45 40.95 -88.1 40.45 L-88.15 40.4 Q-88.8 39.95 -88.95 39.2 L-88.95 39.15 -92.3 17.8 Q-92.4 17.0 -91.9 16.35 -91.4 15.65 -90.6 15.55 L-85.05 14.65 Q-84.25 14.5 -83.55 15.0 L-83.5 15.05 Q-82.9 15.5 -82.75 16.25 L-82.75 16.3 -80.6 30.0 -75.15 29.15 -74.45 29.2 -73.6 29.05 -73.5 29.05 -72.15 29.15 -72.05 29.15 -71.95 29.15 -72.2 29.0 -73.3 28.25 -73.45 28.15 -75.05 26.75 Q-75.85 26.0 -76.45 24.85 L-76.45 24.9 -76.5 24.8 -76.55 24.7 -76.5 24.7 Q-77.25 23.55 -77.5 21.85 L-77.5 21.8 -77.5 21.6 -77.5 21.55 -77.55 20.95 -77.55 19.25 -77.55 19.15 -77.55 19.1 Q-77.45 18.15 -77.0 17.15 L-77.0 17.2 Q-76.7 15.95 -75.85 14.9 L-75.75 14.75 Q-74.9 13.7 -73.65 12.95 L-73.5 12.85 Q-72.2 12.1 -70.2 11.75 L-70.25 11.75 -70.0 11.7 -69.1 11.6 -68.0 11.5 -66.7 11.45 -65.5 11.5 Q-64.85 11.55 -64.3 12.05 L-64.2 12.15 Q-63.8 12.6 -63.7 13.2 M-44.95 18.3 L-44.9 18.3 -41.95 23.9 -45.9 24.5 -44.95 18.3 M-38.35 31.15 L-32.3 30.2 -42.85 10.0 -49.1 10.95 -53.25 33.5 -47.2 32.55 -46.85 30.1 -39.5 28.9 -38.35 31.15 M-27.75 12.45 L-25.25 12.65 Q-24.25 13.15 -24.0 14.6 -23.8 16.05 -24.6 16.75 -25.35 17.5 -26.95 17.75 L-27.75 12.45 M-84.75 16.6 L-90.3 17.5 -86.95 38.85 -75.4 37.0 -74.85 31.15 -82.3 32.3 -84.75 16.6 M-66.7 13.45 L-67.8 13.5 -68.9 13.6 -69.8 13.7 Q-71.45 14.0 -72.55 14.6 L-74.2 16.0 Q-74.85 16.8 -75.1 17.7 L-75.55 19.35 -75.55 20.75 -75.5 21.55 Q-75.3 22.9 -74.75 23.8 L-73.65 25.35 -72.35 26.45 -71.1 27.3 -70.15 28.1 Q-69.7 28.55 -69.6 29.15 -69.5 30.0 -69.85 30.5 -70.3 30.95 -71.05 31.1 L-72.05 31.15 -73.8 31.05 -72.7 36.95 -71.6 36.85 -69.95 36.7 -67.0 35.95 Q-65.55 35.45 -64.5 34.5 -63.55 33.55 -63.05 32.05 -62.6 30.45 -62.95 28.15 -63.2 26.75 -63.7 25.9 L-64.85 24.35 -66.25 23.35 -67.6 22.65 -68.6 21.85 Q-69.05 21.45 -69.15 20.8 -69.3 19.85 -68.75 19.35 -68.2 18.85 -67.35 18.7 L-66.85 18.7 -66.15 18.75 -65.45 18.85 -64.8 19.15 -65.7 13.5 -66.7 13.45" fill="#000000" fill-rule="evenodd" stroke="none"/>
    <path d="M95.9 -33.6 L89.15 -32.55 89.5 -30.35 93.9 -31.05 94.8 -25.4 90.4 -24.7 90.75 -22.5 98.2 -23.65 97.65 -17.8 86.1 -15.95 82.75 -37.3 94.2 -39.1 95.9 -33.6 M79.65 -36.8 L83.0 -15.45 77.45 -14.6 76.15 -22.7 71.5 -21.95 72.8 -13.85 67.25 -13.0 63.9 -34.35 69.45 -35.2 70.6 -27.7 75.25 -28.45 74.1 -35.95 79.65 -36.8 M68.25 3.4 Q68.65 5.7 68.05 7.9 67.55 10.05 66.25 11.8 65.0 13.6 63.15 14.75 61.3 16.0 59.1 16.35 L54.7 16.1 Q52.55 15.55 50.8 14.25 49.1 13.0 47.9 11.05 46.7 9.15 46.3 6.85 45.95 4.5 46.55 2.35 47.05 0.2 48.3 -1.6 49.55 -3.35 51.45 -4.55 53.3 -5.7 55.55 -6.05 L59.9 -5.9 Q62.0 -5.3 63.75 -4.05 65.5 -2.75 66.7 -0.8 67.9 1.05 68.25 3.4 M62.55 4.3 Q62.4 3.2 61.85 2.25 L60.4 0.75 Q59.6 0.05 58.55 -0.2 L56.45 -0.3 Q55.35 -0.15 54.45 0.4 L52.95 1.85 Q52.35 2.75 52.1 3.75 51.85 4.8 52.0 5.95 52.2 7.05 52.75 8.0 L54.15 9.55 Q55.05 10.2 56.05 10.45 L58.2 10.6 Q59.25 10.4 60.15 9.8 L61.6 8.35 62.5 6.4 62.55 4.3 M75.55 0.4 L78.4 -9.2 84.05 -0.95 84.15 -0.95 83.95 -10.05 89.5 -10.95 90.05 10.85 85.6 11.55 80.45 3.9 77.95 12.75 73.5 13.5 67.3 -7.4 72.85 -8.3 75.5 0.4 75.55 0.4 M93.8 3.35 L91.5 -11.25 96.65 -12.05 98.95 2.55 93.8 3.35 M99.15 3.9 L100.0 9.3 94.85 10.1 94.0 4.7 99.15 3.9 M48.75 -31.95 L61.9 -34.0 63.3 -28.7 58.95 -28.0 61.45 -12.05 55.9 -11.2 53.4 -27.15 49.0 -26.45 48.75 -31.95 M38.8 -30.35 L42.15 -9.0 39.5 -8.6 29.95 -16.35 31.4 -7.3 25.85 -6.45 22.5 -27.8 25.0 -28.15 34.7 -20.1 33.25 -29.5 38.8 -30.35 M28.85 -1.3 L38.55 6.75 37.1 -2.65 42.65 -3.5 46.0 17.85 43.35 18.25 33.8 10.5 35.25 19.55 29.7 20.4 26.35 -0.95 28.85 -1.3 M19.7 -27.35 L23.05 -6.0 17.5 -5.1 14.15 -26.45 19.7 -27.35 M-10.4 -22.55 L-0.7 -14.5 -2.15 -23.9 3.4 -24.75 6.75 -3.4 4.1 -3.0 -5.45 -10.75 -4.0 -1.7 -9.55 -0.85 -12.9 -22.2 -10.4 -22.55 M-15.5 -8.0 L-19.9 -7.3 -19.55 -5.1 -12.1 -6.25 -12.65 -0.4 -24.2 1.45 -27.55 -19.9 -16.1 -21.7 -14.4 -16.2 -21.15 -15.15 -20.8 -12.95 -16.4 -13.65 -15.5 -8.0 M-5.6 4.15 L-3.9 9.65 -10.65 10.7 -10.3 12.9 -5.9 12.2 -5.0 17.85 -9.4 18.55 -9.05 20.75 -1.6 19.6 -2.15 25.45 -13.7 27.3 -17.05 5.95 -5.6 4.15 M9.8 1.7 L20.35 21.9 14.3 22.85 13.15 20.6 5.8 21.8 5.45 24.25 -0.6 25.2 3.55 2.65 9.8 1.7 M10.7 15.6 L7.75 10.0 7.7 10.0 6.75 16.2 10.7 15.6 M-32.4 -19.15 L-26.1 1.75 -31.8 2.65 -34.45 -5.95 -34.5 -5.95 -37.35 3.7 -43.05 -4.6 -43.1 -4.6 -42.95 4.4 -48.65 5.3 -48.95 -16.5 -44.5 -17.25 -39.4 -9.5 -36.85 -18.45 -32.4 -19.15 M-57.55 -6.35 L-59.0 -7.85 Q-59.8 -8.55 -60.85 -8.8 L-62.95 -8.9 Q-64.05 -8.75 -64.95 -8.2 L-66.45 -6.75 -67.3 -4.85 Q-67.55 -3.8 -67.4 -2.65 -67.2 -1.55 -66.65 -0.6 L-65.25 0.95 Q-64.35 1.6 -63.35 1.85 L-61.2 2.0 Q-60.15 1.8 -59.25 1.2 -58.35 0.6 -57.8 -0.25 -57.2 -1.15 -56.9 -2.2 -56.65 -3.2 -56.85 -4.3 -57.0 -5.4 -57.55 -6.35 M-51.15 -5.2 Q-50.75 -2.9 -51.35 -0.7 -51.85 1.45 -53.15 3.2 -54.4 5.0 -56.25 6.15 -58.1 7.4 -60.3 7.75 L-64.7 7.5 Q-66.85 6.95 -68.6 5.65 -70.3 4.4 -71.5 2.45 -72.7 0.55 -73.1 -1.75 -73.45 -4.1 -72.85 -6.25 -72.35 -8.4 -71.1 -10.2 -69.85 -11.95 -67.95 -13.15 -66.1 -14.3 -63.85 -14.65 L-59.5 -14.5 Q-57.4 -13.9 -55.65 -12.65 -53.9 -11.35 -52.7 -9.4 -51.5 -7.55 -51.15 -5.2 M-21.3 8.35 Q-20.2 9.05 -19.5 10.25 -18.75 11.45 -18.5 13.15 -18.2 14.85 -18.75 16.25 -19.3 17.7 -20.6 18.85 L-15.05 27.45 -21.35 28.45 -26.5 20.25 -26.55 20.25 -25.15 29.05 -30.7 29.95 -34.05 8.6 -26.75 7.45 -23.75 7.4 Q-22.4 7.6 -21.3 8.35 M-92.15 -9.65 L-89.5 -0.95 -89.45 -0.95 -86.6 -10.55 -80.95 -2.3 -80.85 -2.3 -81.05 -11.4 -75.5 -12.3 -74.95 9.5 -79.4 10.2 -84.55 2.55 -87.05 11.4 -91.5 12.15 -97.7 -8.75 -92.15 -9.65 M-66.7 13.45 L-65.7 13.5 -64.8 19.15 -65.45 18.85 -66.15 18.75 -66.85 18.7 -67.35 18.7 Q-68.2 18.85 -68.75 19.35 -69.3 19.85 -69.15 20.8 -69.05 21.45 -68.6 21.85 L-67.6 22.65 -66.25 23.35 -64.85 24.35 -63.7 25.9 Q-63.2 26.75 -62.95 28.15 -62.6 30.45 -63.05 32.05 -63.55 33.55 -64.5 34.5 -65.55 35.45 -67.0 35.95 L-69.95 36.7 -71.6 36.85 -72.7 36.95 -73.8 31.05 -72.05 31.15 -71.05 31.1 Q-70.3 30.95 -69.85 30.5 -69.5 30.0 -69.6 29.15 -69.7 28.55 -70.15 28.1 L-71.1 27.3 -72.35 26.45 -73.65 25.35 -74.75 23.8 Q-75.3 22.9 -75.5 21.55 L-75.55 20.75 -75.55 19.35 -75.1 17.7 Q-74.85 16.8 -74.2 16.0 L-72.55 14.6 Q-71.45 14.0 -69.8 13.7 L-68.9 13.6 -67.8 13.5 -66.7 13.45 M-84.75 16.6 L-82.3 32.3 -74.85 31.15 -75.4 37.0 -86.95 38.85 -90.3 17.5 -84.75 16.6 M-27.75 12.45 L-26.95 17.75 Q-25.35 17.5 -24.6 16.75 -23.8 16.05 -24.0 14.6 -24.25 13.15 -25.25 12.65 L-27.75 12.45 M-38.35 31.15 L-39.5 28.9 -46.85 30.1 -47.2 32.55 -53.25 33.5 -49.1 10.95 -42.85 10.0 -32.3 30.2 -38.35 31.15 M-44.95 18.3 L-45.9 24.5 -41.95 23.9 -44.9 18.3 -44.95 18.3" fill="#ffffff" fill-rule="evenodd" stroke="none"/>
  </g>
</svg>
