<?xml version="1.0" encoding="UTF-8" standalone="no"?>
<svg xmlns:ffdec="https://www.free-decompiler.com/flash" xmlns:xlink="http://www.w3.org/1999/xlink" ffdec:objectType="shape" height="36.4px" width="420.2px" xmlns="http://www.w3.org/2000/svg">
  <g transform="matrix(1.0, 0.0, 0.0, 1.0, -59.2, -9.4)">
    <path d="M471.35 18.95 Q473.35 19.35 474.85 20.3 476.45 21.25 477.45 22.85 478.5 24.4 478.7 26.8 L471.95 26.8 Q471.8 24.75 470.4 24.05 469.0 23.3 467.1 23.3 L465.8 23.4 464.5 23.7 Q463.95 24.0 463.55 24.45 463.15 24.95 463.15 25.7 463.15 26.65 463.85 27.3 464.55 27.85 465.65 28.25 L468.25 28.9 471.2 29.55 474.2 30.45 Q475.7 30.9 476.85 31.75 478.0 32.6 478.7 33.8 479.4 35.0 479.4 36.8 479.4 39.35 478.35 41.1 477.35 42.8 475.7 43.85 474.05 44.9 471.9 45.35 L467.6 45.8 463.2 45.35 Q461.05 44.9 459.4 43.85 457.7 42.75 456.65 41.0 455.55 39.25 455.45 36.7 L462.2 36.7 Q462.2 37.85 462.65 38.7 L463.9 40.0 Q464.65 40.55 465.6 40.8 L467.65 41.05 469.2 40.9 470.7 40.3 471.85 39.3 Q472.3 38.7 472.3 37.75 472.3 36.95 471.7 36.4 L470.15 35.35 467.65 34.55 464.25 33.75 461.25 32.9 Q459.75 32.45 458.6 31.65 457.45 30.9 456.75 29.7 456.05 28.55 456.05 26.85 456.05 24.4 457.05 22.8 458.0 21.15 459.6 20.25 461.2 19.3 463.2 18.95 L467.3 18.55 471.35 18.95 M449.7 23.25 Q451.3 25.4 452.0 28.15 452.7 30.9 452.5 33.9 L433.85 33.9 Q434.0 37.3 435.6 38.85 437.2 40.45 440.2 40.45 442.35 40.45 443.9 39.4 445.45 38.3 445.8 37.1 L452.05 37.1 Q450.55 41.7 447.45 43.75 444.35 45.8 439.95 45.8 436.9 45.8 434.45 44.8 432.0 43.8 430.3 42.0 428.6 40.2 427.65 37.7 426.75 35.2 426.75 32.2 426.75 29.3 427.7 26.8 428.65 24.3 430.4 22.5 432.15 20.65 434.6 19.6 437.0 18.55 439.95 18.55 443.25 18.55 445.7 19.85 448.15 21.1 449.7 23.25 M436.9 24.5 Q435.8 25.05 435.1 25.9 434.45 26.75 434.15 27.7 L433.85 29.4 445.4 29.4 Q444.9 26.7 443.6 25.3 442.35 23.9 439.75 23.9 438.05 23.9 436.9 24.5 M405.45 22.85 L405.6 22.85 Q406.95 20.65 409.05 19.6 411.15 18.55 413.15 18.55 416.0 18.55 417.8 19.35 419.6 20.1 420.65 21.5 421.7 22.85 422.15 24.85 422.6 26.8 422.6 29.2 L422.6 45.1 415.45 45.1 415.45 30.5 Q415.45 27.3 414.45 25.75 413.4 24.15 410.95 24.15 408.05 24.15 406.75 25.9 405.45 27.6 405.45 31.55 L405.45 45.1 398.35 45.1 398.35 9.4 405.45 9.4 405.45 22.85 M390.25 21.0 Q391.9 22.2 393.0 24.05 394.05 25.9 394.2 28.35 L387.25 28.35 Q386.55 23.9 382.0 23.9 380.3 23.9 379.15 24.7 378.0 25.45 377.3 26.7 376.55 27.9 376.25 29.4 375.95 30.9 375.95 32.3 375.95 33.7 376.25 35.15 376.55 36.6 377.25 37.8 377.9 38.95 379.05 39.7 380.2 40.45 381.85 40.45 384.35 40.45 385.75 39.05 387.15 37.6 387.5 35.2 L394.35 35.2 Q393.65 40.35 390.35 43.05 387.05 45.8 381.9 45.8 378.95 45.8 376.55 44.85 374.15 43.85 372.45 42.05 370.75 40.3 369.8 37.85 368.85 35.45 368.85 32.55 368.85 29.55 369.75 27.0 370.6 24.4 372.3 22.55 374.0 20.65 376.45 19.6 378.9 18.55 382.05 18.55 L386.5 19.15 Q388.6 19.75 390.25 21.0 M366.25 24.0 L361.05 24.0 361.05 36.8 Q361.05 38.6 361.65 39.2 362.25 39.8 364.05 39.8 L366.25 39.6 366.25 45.15 364.25 45.35 362.1 45.4 358.95 45.15 Q357.5 44.95 356.35 44.25 355.25 43.6 354.6 42.4 353.95 41.2 353.95 39.25 L353.95 24.0 349.65 24.0 349.65 19.25 353.95 19.25 353.95 11.5 361.05 11.5 361.05 19.25 366.25 19.25 366.25 24.0 M346.45 15.25 L339.35 15.25 339.35 9.4 346.45 9.4 346.45 15.25 M324.85 17.55 L323.65 16.3 Q322.9 15.85 321.95 15.7 L319.9 15.5 312.55 15.5 312.55 23.85 320.5 23.85 Q322.6 23.85 323.95 22.85 325.3 21.85 325.3 19.6 325.3 18.35 324.85 17.55 M332.05 14.05 Q332.9 15.75 332.9 18.25 332.9 20.9 331.65 22.75 330.4 24.55 328.05 25.7 331.35 26.65 332.95 29.05 334.6 31.4 334.6 34.75 334.6 37.45 333.55 39.45 332.5 41.4 330.7 42.65 328.95 43.9 326.65 44.5 L322.0 45.1 304.7 45.1 304.7 9.4 321.5 9.4 326.15 9.85 Q328.25 10.3 329.75 11.35 331.25 12.35 332.05 14.05 M326.25 36.6 Q326.75 35.7 326.75 34.3 326.75 31.55 325.2 30.4 323.65 29.2 321.1 29.2 L312.55 29.2 312.55 39.0 320.95 39.0 323.15 38.8 325.0 38.0 Q325.8 37.5 326.25 36.6 M339.35 19.25 L346.45 19.25 346.45 45.1 339.35 45.1 339.35 19.25 M288.75 18.8 L288.75 25.4 287.55 25.25 286.2 25.15 Q284.25 25.15 282.95 25.8 281.55 26.45 280.75 27.55 279.9 28.7 279.55 30.25 279.2 31.75 279.2 33.45 L279.2 45.1 272.1 45.1 272.1 19.25 278.85 19.25 278.85 24.05 278.95 24.05 Q279.45 22.85 280.3 21.85 281.15 20.8 282.25 20.1 283.35 19.35 284.65 18.95 L287.2 18.55 288.75 18.8 M252.3 24.5 Q251.2 25.05 250.5 25.9 249.85 26.75 249.55 27.7 L249.25 29.4 260.8 29.4 Q260.3 26.7 259.0 25.3 257.75 23.9 255.15 23.9 253.45 23.9 252.3 24.5 M250.0 19.6 Q252.4 18.55 255.35 18.55 258.65 18.55 261.1 19.85 263.55 21.1 265.1 23.25 266.7 25.4 267.4 28.15 268.1 30.9 267.9 33.9 L249.25 33.9 Q249.4 37.3 251.0 38.85 252.6 40.45 255.6 40.45 257.75 40.45 259.3 39.4 260.85 38.3 261.2 37.1 L267.45 37.1 Q265.95 41.7 262.85 43.75 259.75 45.8 255.35 45.8 252.3 45.8 249.85 44.8 247.4 43.8 245.7 42.0 244.0 40.2 243.05 37.7 242.15 35.2 242.15 32.2 242.15 29.3 243.1 26.8 244.05 24.3 245.8 22.5 247.55 20.65 250.0 19.6 M225.1 23.9 Q223.35 23.9 222.15 24.6 220.95 25.3 220.25 26.45 219.55 27.6 219.2 29.1 218.85 30.55 218.85 32.15 218.85 33.65 219.2 35.15 219.55 36.65 220.35 37.8 221.1 39.0 222.3 39.75 223.45 40.45 225.1 40.45 226.8 40.45 228.0 39.75 229.15 39.05 229.9 37.9 230.6 36.7 230.9 35.2 L231.15 32.1 230.9 29.05 Q230.6 27.55 229.85 26.4 229.1 25.3 227.95 24.6 226.8 23.9 225.1 23.9 M230.95 22.4 L230.95 9.4 238.05 9.4 238.05 45.1 231.25 45.1 231.25 41.8 231.15 41.8 Q229.95 43.9 227.85 44.85 225.85 45.8 223.35 45.8 220.4 45.8 218.25 44.65 216.05 43.5 214.65 41.6 213.2 39.65 212.5 37.15 211.75 34.65 211.75 31.95 211.75 29.35 212.5 26.95 213.2 24.5 214.65 22.65 216.05 20.8 218.2 19.7 220.35 18.55 223.2 18.55 225.5 18.55 227.55 19.55 229.65 20.5 230.85 22.4 L230.95 22.4 M206.3 22.15 Q207.35 23.6 207.35 25.9 L207.35 39.35 207.55 42.7 Q207.75 44.3 208.25 45.1 L201.05 45.1 200.7 43.9 200.55 42.6 Q198.85 44.35 196.55 45.1 194.25 45.8 191.85 45.8 L188.4 45.35 Q186.8 44.85 185.6 43.9 184.4 42.95 183.75 41.5 183.05 40.05 183.05 38.05 183.05 35.85 183.8 34.4 184.55 33.0 185.8 32.15 187.05 31.3 188.65 30.85 L191.85 30.2 195.0 29.8 197.7 29.35 199.55 28.45 Q200.25 27.9 200.25 26.8 200.25 25.65 199.9 25.0 199.5 24.3 198.9 23.95 198.25 23.55 197.4 23.45 L195.65 23.3 Q193.6 23.3 192.35 24.25 191.15 25.15 190.95 27.25 L183.85 27.25 Q184.0 24.7 185.1 23.1 186.2 21.4 187.9 20.4 189.6 19.4 191.7 19.0 L196.0 18.55 199.95 18.85 Q201.95 19.1 203.6 19.9 205.25 20.7 206.3 22.15 M181.2 19.25 L172.45 45.1 164.55 45.1 155.7 19.25 163.15 19.25 168.6 36.9 168.7 36.9 174.15 19.25 181.2 19.25 M192.75 34.35 Q192.0 34.6 191.45 35.0 L190.5 36.1 Q190.15 36.8 190.15 37.75 190.15 38.75 190.5 39.35 L191.45 40.35 192.85 40.9 194.5 41.05 Q196.6 41.05 197.75 40.35 198.9 39.65 199.45 38.7 200.0 37.7 200.15 36.7 L200.25 35.1 200.25 32.45 Q199.8 32.85 199.15 33.05 L197.7 33.45 196.05 33.7 194.35 33.95 192.75 34.35 M151.3 21.5 Q152.35 22.85 152.8 24.85 153.25 26.8 153.25 29.2 L153.25 45.1 146.1 45.1 146.1 30.5 Q146.1 27.3 145.1 25.75 144.05 24.15 141.6 24.15 138.7 24.15 137.4 25.9 136.1 27.6 136.1 31.55 L136.1 45.1 129.0 45.1 129.0 19.25 135.75 19.25 135.75 22.85 135.9 22.85 Q137.25 20.65 139.4 19.6 141.55 18.55 143.8 18.55 146.65 18.55 148.45 19.35 150.25 20.1 151.3 21.5 M124.5 15.3 L117.4 15.3 117.4 9.4 124.5 9.4 124.5 15.3 M124.5 45.1 L117.4 45.1 117.4 19.25 124.5 19.25 124.5 45.1 M110.25 23.25 Q111.85 25.4 112.55 28.15 113.25 30.9 113.05 33.9 L94.4 33.9 Q94.55 37.3 96.15 38.85 97.75 40.45 100.75 40.45 102.9 40.45 104.45 39.4 106.0 38.3 106.35 37.1 L112.6 37.1 Q111.1 41.7 108.0 43.75 104.9 45.8 100.5 45.8 97.45 45.8 95.0 44.8 92.55 43.8 90.85 42.0 89.15 40.2 88.2 37.7 87.3 35.2 87.3 32.2 87.3 29.3 88.25 26.8 89.2 24.3 90.95 22.5 92.7 20.65 95.15 19.6 97.55 18.55 100.5 18.55 103.8 18.55 106.25 19.85 108.7 21.1 110.25 23.25 M84.5 9.5 L86.35 9.6 86.35 14.9 83.75 14.75 Q82.3 14.75 81.7 15.4 81.05 16.1 81.05 17.7 L81.05 19.25 85.95 19.25 85.95 24.0 81.05 24.0 81.05 45.1 73.95 45.1 73.95 24.0 69.7 24.0 69.7 19.25 73.95 19.25 73.95 17.25 Q73.95 15.55 74.5 14.1 75.0 12.65 76.1 11.6 77.2 10.55 78.8 10.0 80.4 9.4 82.6 9.4 L84.5 9.5 M97.45 24.5 Q96.35 25.05 95.65 25.9 95.0 26.75 94.7 27.7 L94.4 29.4 105.95 29.4 Q105.45 26.7 104.15 25.3 102.9 23.9 100.3 23.9 98.6 23.9 97.45 24.5 M66.3 15.25 L59.2 15.25 59.2 9.4 66.3 9.4 66.3 15.25 M59.2 45.1 L59.2 19.25 66.3 19.25 66.3 45.1 59.2 45.1" fill="#ffffff" fill-rule="evenodd" stroke="none"/>
  </g>
</svg>
