<?xml version="1.0" encoding="UTF-8" standalone="no"?>
<svg xmlns:ffdec="https://www.free-decompiler.com/flash" xmlns:xlink="http://www.w3.org/1999/xlink" ffdec:objectType="shape" height="256.0px" width="512.0px" xmlns="http://www.w3.org/2000/svg">
  <g transform="matrix(1.0, 0.0, 0.0, 1.0, 0.0, 0.0)">
    <path d="M502.0 112.0 L502.0 6.0 8.0 6.0 8.0 112.0 502.0 112.0 M502.0 224.0 L502.0 119.0 8.0 119.0 8.0 224.0 502.0 224.0 M512.0 256.0 L0.0 256.0 0.0 0.0 512.0 0.0 512.0 256.0" fill="#0c5601" fill-rule="evenodd" stroke="none"/>
    <path d="M497.2 176.05 Q498.0 168.8 496.5 161.65 495.05 154.8 491.55 148.6 489.8 145.55 487.6 142.7 483.2 137.2 477.35 133.2 471.2 129.2 464.25 127.25 L460.7 126.4 457.3 125.9 Q450.05 125.05 442.9 126.55 436.0 128.0 429.75 131.45 426.65 133.25 423.95 135.45 418.35 139.85 414.35 145.7 410.25 151.8 408.4 158.9 L407.6 162.35 407.05 165.85 Q406.15 173.05 407.7 180.2 409.15 187.2 412.7 193.35 414.4 196.45 416.6 199.2 421.1 204.85 427.0 208.8 433.1 212.8 440.15 214.65 L443.5 215.45 447.1 216.0 Q454.35 216.9 461.55 215.35 468.4 213.9 474.6 210.3 477.55 208.6 480.4 206.4 485.95 201.95 489.9 196.05 493.9 190.05 495.85 183.0 L496.65 179.55 497.2 176.05 M484.95 153.1 Q487.55 157.8 488.65 163.2 489.9 168.8 489.3 174.5 L488.75 178.05 487.95 181.45 Q486.4 186.95 483.15 191.8 480.1 196.35 475.95 199.75 L473.0 201.85 470.05 203.7 Q465.3 206.35 459.8 207.5 L448.6 208.15 445.0 207.6 441.65 206.85 Q436.15 205.25 431.25 202.0 426.75 198.9 423.3 194.75 L421.2 191.85 419.3 188.95 Q416.75 184.15 415.55 178.7 414.3 173.05 414.95 167.35 L415.45 163.85 Q415.8 162.1 416.3 160.4 417.8 154.9 421.05 150.1 424.2 145.55 428.4 142.1 429.75 140.95 431.25 139.95 432.65 139.0 434.3 138.1 439.0 135.55 444.35 134.35 L455.75 133.75 459.2 134.25 462.7 135.1 Q468.15 136.65 472.9 139.85 477.5 143.05 480.95 147.25 L483.05 149.95 484.95 153.1 M471.2 142.4 Q465.5 138.55 458.65 137.2 451.8 135.9 445.0 137.3 438.45 138.75 432.85 142.55 427.35 146.25 423.6 151.85 419.8 157.55 418.45 164.45 417.15 171.3 418.5 178.05 419.95 184.6 423.65 190.2 427.45 195.7 433.0 199.45 438.75 203.3 445.6 204.6 452.45 205.95 459.2 204.55 465.8 203.1 471.3 199.4 476.9 195.6 480.6 190.05 484.5 184.3 485.8 177.45 487.15 170.55 485.7 163.85 484.3 157.25 480.5 151.75 476.8 146.15 471.2 142.4 M432.55 147.1 L437.95 148.15 Q438.25 148.2 438.4 148.45 L439.55 150.05 439.7 149.25 440.0 148.75 440.6 148.65 445.7 149.65 Q446.0 149.7 446.2 149.95 L446.3 150.55 445.8 153.2 445.5 153.75 444.9 153.85 444.45 153.75 442.65 163.1 444.4 163.45 444.95 160.45 445.25 159.95 445.9 159.8 448.55 160.3 449.05 160.65 449.2 161.25 448.6 164.35 449.0 164.35 449.4 164.4 451.2 155.05 450.8 155.0 450.3 154.7 450.15 154.05 450.65 151.4 451.0 150.9 451.6 150.8 456.7 151.75 Q457.0 151.85 457.15 152.05 L457.25 152.65 457.05 153.55 458.85 152.4 459.45 152.3 464.9 153.35 465.35 153.65 466.45 155.25 466.6 154.45 466.95 153.95 467.55 153.85 472.6 154.85 473.1 155.15 473.25 155.75 472.75 158.4 472.4 158.95 471.8 159.05 471.35 158.95 470.8 161.6 473.55 159.35 473.25 159.1 473.1 158.45 473.6 155.8 473.95 155.3 474.55 155.2 480.25 156.3 Q480.55 156.4 480.75 156.65 L480.85 157.2 480.35 159.85 480.05 160.45 479.45 160.5 478.65 160.35 475.25 163.15 477.4 169.85 478.2 170.0 Q478.6 170.05 478.75 170.35 L478.9 170.95 478.35 173.6 478.0 174.1 477.35 174.2 472.05 173.15 Q471.75 173.1 471.55 172.85 L471.4 172.25 471.95 169.6 472.3 169.1 472.85 168.95 471.85 165.95 469.6 167.8 469.55 168.3 470.0 168.4 470.5 168.75 470.65 169.35 470.1 172.0 469.75 172.5 469.15 172.6 464.1 171.6 Q463.75 171.55 463.6 171.3 L463.45 170.7 463.6 170.05 462.15 171.05 461.6 171.15 456.0 170.05 Q455.65 170.0 455.5 169.75 L454.3 168.0 454.1 168.9 453.8 169.4 453.25 169.5 448.15 168.55 447.65 168.25 447.6 168.2 447.0 168.3 437.15 166.4 436.65 166.1 436.55 165.5 436.7 164.85 435.2 165.85 434.65 165.9 429.05 164.85 428.55 164.55 427.2 162.6 Q427.0 162.3 427.1 161.95 L429.55 149.05 429.95 148.55 431.9 147.2 432.55 147.1 M443.8 152.8 L445.05 153.05 445.55 150.4 440.45 149.4 439.95 152.05 441.15 152.3 439.05 163.25 437.85 163.0 437.3 165.65 447.15 167.55 448.4 161.1 445.75 160.6 445.05 164.4 441.7 163.75 443.8 152.8 M439.5 152.7 L439.2 154.3 438.85 154.8 438.2 154.95 435.55 154.45 435.05 154.05 434.95 153.5 435.25 152.0 433.45 151.65 431.65 161.0 433.45 161.35 433.75 159.8 434.05 159.3 434.6 159.2 437.25 159.7 Q437.6 159.75 437.85 160.05 L438.0 160.6 437.65 162.25 438.0 162.2 438.45 162.3 440.25 152.95 439.8 152.85 439.5 152.7 M439.0 150.8 L437.8 148.9 432.4 147.85 430.3 149.2 427.85 162.1 429.2 164.1 434.8 165.15 436.45 164.0 437.15 160.45 434.5 159.95 434.05 162.3 430.75 161.65 432.85 150.7 436.15 151.35 435.7 153.65 438.35 154.15 439.0 150.8 M428.6 172.5 L428.1 172.1 Q427.85 171.8 427.95 171.5 L428.45 168.85 Q428.5 168.5 428.8 168.3 L429.4 168.25 434.45 169.2 434.9 169.4 435.35 169.4 440.45 170.35 Q440.8 170.45 440.95 170.65 L441.6 170.6 451.4 172.5 Q451.75 172.55 451.95 172.8 L452.55 172.7 461.05 174.35 Q461.35 174.4 461.5 174.65 L462.65 176.25 462.75 176.6 462.75 176.85 461.4 183.85 461.15 184.4 459.4 185.5 459.15 185.65 459.9 188.25 460.55 188.35 Q460.9 188.4 461.1 188.65 L461.15 188.65 461.65 188.6 462.1 188.65 463.95 179.3 463.5 179.25 463.05 178.85 Q462.8 178.55 462.9 178.25 L463.4 175.6 Q463.45 175.25 463.75 175.05 L464.3 175.0 474.2 176.9 Q474.5 176.95 474.7 177.2 L474.75 177.85 473.8 182.7 473.55 183.2 472.95 183.35 470.95 182.95 470.95 183.3 470.4 185.95 470.15 186.55 469.75 186.6 472.2 187.1 472.7 187.45 472.75 188.05 471.6 194.05 471.35 194.6 470.75 194.75 460.85 192.85 460.4 192.45 460.4 192.4 460.35 192.45 459.75 192.6 457.05 192.1 456.7 191.85 456.45 191.5 455.65 188.35 455.15 190.85 454.8 191.4 454.2 191.55 449.1 190.55 448.6 190.2 447.95 190.35 438.15 188.45 437.6 188.05 437.0 188.2 431.9 187.25 431.5 186.95 431.0 187.05 425.95 186.1 425.45 185.7 425.3 185.05 425.8 182.4 426.2 181.9 426.75 181.85 427.2 181.9 429.05 172.55 428.6 172.5 M428.75 171.7 L429.95 171.9 427.8 182.8 426.6 182.6 426.1 185.25 431.15 186.2 431.65 183.55 430.45 183.3 431.3 178.95 434.65 179.6 433.8 183.95 432.55 183.75 432.05 186.4 437.15 187.35 437.65 184.7 436.45 184.5 438.6 173.6 439.8 173.8 440.3 171.15 435.2 170.2 434.7 172.85 435.95 173.05 435.15 177.0 431.8 176.35 432.6 172.4 433.8 172.65 434.3 170.0 429.25 169.05 428.75 171.7 M440.95 174.05 L442.1 174.25 439.95 185.15 438.8 184.95 438.3 187.6 448.1 189.5 449.25 183.5 446.6 182.95 445.95 186.3 442.6 185.65 443.55 180.75 446.9 181.4 447.45 178.75 444.1 178.1 444.75 174.75 448.1 175.4 447.65 177.6 450.3 178.15 451.25 173.3 441.45 171.4 440.95 174.05 M440.8 174.85 Q440.45 174.75 440.25 174.45 L439.65 174.6 439.2 174.55 437.35 183.9 437.8 183.95 438.35 184.25 438.95 184.2 439.4 184.25 441.25 174.9 440.8 174.85 M445.1 177.5 L446.9 177.85 446.9 177.5 447.2 176.1 445.45 175.75 445.1 177.5 M445.35 185.45 L445.85 182.85 Q445.95 182.5 446.15 182.3 L446.75 182.15 444.25 181.7 443.6 185.1 445.35 185.45 M435.05 173.7 L434.55 173.65 434.1 173.4 433.65 173.45 433.25 173.35 432.75 175.75 434.55 176.1 435.05 173.7 M431.8 182.8 L432.25 183.05 432.7 183.0 433.2 183.05 433.75 180.2 431.95 179.85 431.4 182.7 431.8 182.8 M478.45 159.5 L479.6 159.7 480.1 157.05 474.4 155.95 473.9 158.6 475.25 158.9 469.6 163.7 470.7 158.0 471.95 158.25 472.45 155.6 467.4 154.6 466.9 157.25 468.1 157.5 466.0 168.45 464.8 168.2 464.25 170.85 469.3 171.85 469.85 169.2 468.6 168.95 468.9 167.35 472.25 164.6 473.95 170.0 472.75 169.75 472.2 172.4 477.5 173.45 478.05 170.8 476.75 170.55 474.35 162.9 478.45 159.5 M466.4 157.9 L466.1 159.5 465.8 160.0 465.15 160.15 462.5 159.65 462.0 159.3 461.9 158.7 462.2 157.2 460.4 156.85 458.6 166.2 460.4 166.55 460.7 165.0 461.0 164.55 461.55 164.4 464.2 164.9 464.8 165.25 464.9 165.8 464.55 167.45 464.95 167.4 465.4 167.5 467.2 158.15 466.75 158.05 466.4 157.9 M459.3 153.05 L457.25 154.45 454.8 167.35 456.15 169.3 461.75 170.4 463.4 169.2 464.1 165.65 461.45 165.15 461.0 167.5 457.65 166.85 459.75 155.9 463.1 156.55 462.65 158.85 465.3 159.35 465.95 156.0 464.75 154.1 459.3 153.05 M455.9 155.95 L455.45 155.9 453.65 165.25 454.1 165.3 454.35 165.5 456.2 155.95 455.9 155.95 M455.75 176.9 L459.1 177.55 458.25 181.95 454.9 181.3 455.75 176.9 M462.0 176.7 L460.9 175.15 452.4 173.5 451.9 176.15 453.1 176.4 450.95 187.3 449.75 187.05 449.25 189.7 454.35 190.7 454.85 188.05 453.6 187.8 454.35 184.0 455.25 184.15 457.2 191.25 459.9 191.75 460.4 189.1 459.3 188.9 458.1 184.7 459.0 184.9 460.65 183.7 462.0 176.7 M463.65 178.45 L464.85 178.65 462.7 189.55 461.5 189.35 461.0 192.0 470.9 193.9 472.05 187.9 469.4 187.35 468.75 190.7 465.35 190.05 466.3 185.15 469.7 185.8 470.25 183.15 466.85 182.5 467.5 179.15 470.9 179.8 470.45 182.0 473.1 182.55 474.05 177.7 464.15 175.8 463.65 178.45 M456.05 155.15 L456.55 152.5 451.45 151.55 450.95 154.2 452.1 154.4 450.0 165.35 448.85 165.15 448.3 167.8 453.4 168.75 453.95 166.1 452.65 165.85 454.75 154.9 456.05 155.15 M456.4 177.85 L455.8 180.75 457.55 181.1 458.15 178.2 456.4 177.85 M450.8 178.8 L450.15 178.95 448.2 178.55 448.25 178.9 447.7 181.55 447.4 182.15 446.95 182.2 449.4 182.7 449.95 183.05 450.05 183.65 449.55 186.35 449.9 186.3 450.35 186.4 452.2 177.05 451.75 176.95 451.4 176.8 451.1 178.3 450.8 178.8 M455.0 187.3 L455.4 187.45 454.9 185.6 454.55 187.2 455.0 187.3 M469.65 181.85 L469.95 180.45 468.2 180.15 467.85 181.9 469.65 182.25 469.65 181.85 M469.55 186.55 L467.0 186.1 466.35 189.5 468.1 189.8 468.6 187.2 468.9 186.7 469.55 186.55 M502.0 224.0 L8.0 224.0 8.0 119.0 502.0 119.0 502.0 224.0 M47.55 134.75 L50.85 133.8 54.4 133.1 Q60.0 132.25 65.65 133.25 71.1 134.2 76.05 136.6 L79.05 138.25 Q80.65 139.2 82.05 140.25 86.35 143.5 89.6 147.95 93.1 152.55 94.85 158.0 L95.85 161.4 96.5 164.85 Q97.4 170.5 96.35 176.25 95.5 181.65 93.1 186.5 L91.3 189.65 89.4 192.5 Q86.15 196.95 81.65 200.25 77.05 203.6 71.7 205.45 L68.2 206.45 64.85 207.15 Q59.15 207.95 53.4 207.0 48.0 206.05 43.1 203.7 L39.95 201.95 37.15 200.05 Q32.75 196.7 29.4 192.25 26.0 187.6 24.15 182.15 L23.2 178.8 22.5 175.3 Q21.7 169.65 22.65 163.95 23.6 158.5 26.05 153.6 L27.7 150.55 Q28.65 149.0 29.75 147.55 33.0 143.25 37.4 140.0 42.1 136.55 47.55 134.75 M52.55 125.3 L49.0 126.0 45.7 126.95 Q38.7 129.2 32.8 133.45 27.1 137.7 22.85 143.4 20.75 146.25 19.2 149.35 15.95 155.7 14.75 162.75 13.5 169.95 14.75 177.15 L15.45 180.65 16.4 184.0 Q18.55 191.0 22.9 196.95 27.1 202.65 32.9 206.8 35.7 208.95 38.85 210.5 45.25 213.8 52.3 214.9 59.5 216.1 66.7 214.85 L70.1 214.2 73.55 213.2 Q80.5 211.0 86.4 206.65 92.1 202.5 96.3 196.7 L99.95 190.75 Q103.1 184.35 104.3 177.35 105.45 170.2 104.3 163.0 L103.65 159.55 102.65 156.15 Q100.4 149.15 96.1 143.35 91.95 137.6 86.2 133.45 L80.25 129.75 Q73.95 126.55 66.9 125.3 59.7 124.25 52.55 125.3 M72.1 147.05 L72.5 147.55 73.1 150.15 73.0 150.8 72.55 151.2 72.1 151.3 72.75 153.9 74.3 150.7 73.9 150.6 73.5 150.05 72.9 147.45 Q72.8 147.15 73.0 146.85 73.2 146.6 73.45 146.5 L79.1 145.2 79.7 145.25 80.05 145.75 80.65 148.35 80.6 149.0 80.1 149.4 79.35 149.55 77.4 153.45 82.05 158.65 82.85 158.45 83.5 158.55 83.9 159.05 84.55 161.7 84.4 162.25 83.85 162.65 78.6 163.9 78.0 163.8 77.65 163.35 77.0 160.7 77.1 160.1 77.55 159.7 75.5 157.4 74.2 160.05 74.3 160.5 74.75 160.4 75.3 160.5 75.7 161.0 76.35 163.65 76.2 164.2 75.75 164.6 70.7 165.8 70.15 165.65 69.8 165.2 69.65 164.55 68.7 166.0 68.25 166.4 62.7 167.7 62.1 167.6 60.3 166.55 60.55 167.45 60.4 168.0 59.95 168.35 54.9 169.55 54.35 169.45 54.3 169.45 53.8 169.85 44.0 172.15 43.45 172.05 43.15 171.6 43.0 170.95 42.0 172.4 41.55 172.75 36.0 174.1 35.4 173.95 33.45 172.8 33.0 172.25 29.95 159.5 Q29.85 159.15 30.1 158.9 L31.3 156.8 Q31.45 156.55 31.85 156.45 L37.2 155.2 37.8 155.25 39.5 156.3 39.3 155.5 39.35 154.9 39.8 154.55 44.9 153.35 45.45 153.45 45.8 153.95 46.4 156.55 46.35 157.2 45.9 157.55 45.45 157.65 47.65 166.85 49.4 166.45 48.7 163.5 48.8 162.9 49.25 162.55 51.9 161.95 52.55 162.0 52.85 162.5 53.6 165.55 Q53.7 165.4 53.9 165.35 L54.35 165.25 52.15 156.05 51.7 156.15 51.15 156.05 50.75 155.5 50.15 152.9 Q50.05 152.6 50.25 152.3 L50.7 151.95 55.75 150.75 56.3 150.85 56.7 151.35 56.9 152.25 58.0 150.45 58.5 150.1 63.9 148.8 64.45 148.9 66.15 149.9 65.95 149.1 Q65.85 148.8 66.05 148.5 66.2 148.25 66.5 148.2 L71.55 147.0 72.1 147.05 M79.3 145.95 L73.65 147.25 74.25 149.85 75.6 149.55 72.45 156.3 71.1 150.65 72.35 150.35 71.75 147.75 66.7 148.95 67.3 151.55 68.55 151.25 71.15 162.1 69.9 162.4 70.55 165.05 75.6 163.85 74.95 161.2 73.7 161.5 73.35 159.95 75.3 156.0 79.0 160.2 77.8 160.5 78.45 163.15 83.7 161.9 83.05 159.25 81.8 159.55 76.5 153.65 78.8 148.8 79.9 148.55 79.3 145.95 M77.5 140.9 Q71.8 137.35 65.2 136.25 L51.55 136.7 Q44.75 138.35 39.2 142.45 33.85 146.45 30.25 152.2 26.8 157.85 25.65 164.5 24.55 171.25 26.2 178.05 27.8 184.85 31.85 190.45 35.85 195.85 41.55 199.4 47.35 202.85 53.9 204.0 60.7 205.1 67.5 203.45 74.3 201.8 79.9 197.8 85.3 193.75 88.8 188.1 92.25 182.35 93.4 175.75 94.5 168.95 92.9 162.15 91.25 155.35 87.2 149.8 83.2 144.35 77.5 140.9 M32.05 157.2 L30.75 159.35 33.8 172.1 35.85 173.35 41.4 172.0 42.4 170.25 41.55 166.7 38.95 167.3 39.5 169.65 36.2 170.45 33.6 159.6 36.9 158.8 37.45 161.1 40.05 160.5 39.25 157.2 37.4 155.95 32.05 157.2 M34.55 160.25 L36.75 169.45 38.55 169.05 38.2 167.5 38.3 167.0 38.75 166.6 41.35 166.0 42.05 166.1 42.4 166.5 42.8 168.15 43.0 167.95 43.45 167.85 41.25 158.65 40.8 158.75 40.55 158.75 40.9 160.3 40.8 160.9 40.25 161.25 37.65 161.85 37.05 161.8 Q36.8 161.65 36.7 161.3 L36.35 159.85 34.55 160.25 M37.2 177.35 L37.7 177.0 42.75 175.8 43.2 175.8 Q43.35 175.65 43.6 175.6 L48.65 174.4 49.25 174.45 Q49.45 174.2 49.8 174.1 L59.5 171.8 60.15 171.85 Q60.3 171.6 60.6 171.55 L69.05 169.5 69.6 169.6 71.35 170.55 71.55 170.85 71.65 171.1 73.3 178.0 73.3 178.65 72.2 180.35 72.05 180.6 73.8 182.65 74.45 182.5 75.0 182.6 75.05 182.55 Q75.25 182.3 75.55 182.25 L76.0 182.15 73.75 172.85 73.3 172.95 72.7 172.8 72.35 172.3 71.7 169.7 71.8 169.05 Q72.0 168.8 72.3 168.75 L82.05 166.4 82.65 166.45 83.0 167.05 84.15 171.85 84.1 172.4 83.6 172.8 81.65 173.25 81.8 173.6 82.4 176.2 82.4 176.85 82.05 177.15 84.5 176.55 85.1 176.6 85.4 177.15 86.85 183.1 86.8 183.7 86.3 184.05 76.55 186.4 75.95 186.3 75.9 186.25 75.9 186.35 75.45 186.65 72.75 187.3 72.3 187.25 71.95 187.05 69.9 184.5 70.5 187.0 70.4 187.65 69.95 187.95 64.85 189.2 64.3 189.1 Q64.1 189.35 63.75 189.45 L54.05 191.75 53.4 191.7 52.9 192.05 47.85 193.25 47.35 193.15 47.0 193.45 41.95 194.65 41.35 194.6 40.95 194.05 40.3 191.4 40.45 190.85 Q40.6 190.6 40.95 190.5 L41.4 190.4 39.15 181.1 38.7 181.2 38.1 181.1 37.75 180.6 37.1 178.0 37.2 177.35 M38.55 180.4 L39.75 180.1 42.3 190.9 41.1 191.2 41.75 193.85 46.8 192.65 46.15 190.0 44.9 190.3 43.9 186.0 47.2 185.2 48.2 189.5 47.0 189.8 47.65 192.45 52.7 191.25 52.05 188.6 50.85 188.9 48.3 178.1 49.5 177.8 48.85 175.2 43.8 176.4 44.45 179.0 45.65 178.7 46.55 182.6 43.25 183.4 42.35 179.5 43.6 179.2 42.95 176.6 37.9 177.8 38.55 180.4 M67.5 152.4 L67.2 152.35 67.55 153.9 67.5 154.5 66.95 154.85 64.3 155.5 63.75 155.4 63.4 154.9 63.05 153.45 61.25 153.9 63.45 163.1 65.25 162.65 64.9 161.1 65.0 160.6 65.4 160.25 68.05 159.6 68.75 159.7 69.05 160.1 69.45 161.75 69.7 161.6 70.15 161.5 67.95 152.3 67.5 152.4 M72.5 169.55 L73.15 172.15 74.3 171.85 76.85 182.65 75.7 182.95 76.35 185.6 86.1 183.25 84.65 177.3 82.05 177.95 82.85 181.25 79.5 182.05 78.35 177.2 81.7 176.4 81.1 173.8 77.75 174.6 76.95 171.25 80.3 170.45 80.8 172.65 83.4 172.0 82.25 167.2 72.5 169.55 M69.25 170.3 L60.8 172.35 61.45 174.95 62.7 174.65 65.25 185.45 64.0 185.75 64.65 188.4 69.75 187.15 69.1 184.5 67.85 184.8 66.95 181.05 67.85 180.85 72.55 186.5 75.25 185.85 74.6 183.2 73.5 183.45 70.65 180.2 71.55 179.95 72.55 178.2 70.9 171.3 69.25 170.3 M66.75 154.1 L65.95 150.8 64.1 149.55 58.7 150.85 57.45 152.95 60.5 165.7 62.55 166.95 68.1 165.65 69.1 163.85 68.25 160.3 65.6 160.95 66.15 163.3 62.85 164.05 60.25 153.2 63.55 152.45 64.1 154.75 66.75 154.1 M77.9 171.85 L78.35 173.6 80.15 173.15 80.0 172.8 79.65 171.4 77.9 171.85 M56.55 154.1 L55.95 151.5 50.9 152.7 51.5 155.3 52.7 155.05 55.3 165.9 54.1 166.15 54.75 168.8 59.8 167.6 59.15 164.95 57.9 165.25 55.3 154.4 56.55 154.1 M56.75 154.95 L56.35 155.05 58.55 164.25 58.95 164.15 59.3 164.2 57.05 154.8 56.75 154.95 M40.6 157.9 L41.85 157.6 44.45 168.45 43.2 168.75 43.85 171.4 53.65 169.1 52.1 162.7 49.45 163.3 50.35 167.05 47.05 167.85 44.45 157.0 45.7 156.7 45.1 154.1 40.0 155.3 40.6 157.9 M59.3 179.0 L59.9 181.6 59.85 182.25 59.5 182.55 61.95 181.95 62.6 182.0 62.9 182.5 63.55 185.2 63.85 185.05 64.3 184.9 62.05 175.6 61.6 175.75 61.3 175.7 61.65 177.2 61.6 177.8 61.05 178.2 59.1 178.65 59.3 179.0 M57.15 176.8 L55.4 177.2 55.85 178.95 57.65 178.55 57.5 178.2 57.15 176.8 M57.75 175.8 L58.25 178.0 60.85 177.4 59.7 172.6 50.0 174.9 50.65 177.5 51.8 177.25 54.35 188.05 53.2 188.3 53.85 190.95 63.55 188.65 62.1 182.7 59.5 183.3 60.3 186.6 56.95 187.4 55.8 182.55 59.15 181.75 58.55 179.15 55.2 179.95 54.4 176.6 57.75 175.8 M50.8 178.3 L50.15 178.2 49.65 178.6 49.2 178.7 51.45 188.0 51.9 187.9 52.5 187.95 Q52.7 187.7 53.05 187.6 L53.45 187.5 51.2 178.2 50.8 178.3 M59.35 182.55 L56.85 183.15 57.65 186.5 59.4 186.1 58.75 183.5 58.85 182.9 Q59.05 182.65 59.35 182.55 M44.15 179.75 L43.75 180.0 43.3 180.1 43.9 182.5 45.7 182.1 45.1 179.7 44.6 179.8 44.15 179.75 M47.35 189.0 L46.65 186.15 44.85 186.55 45.55 189.4 46.0 189.3 46.45 189.35 Q46.6 189.15 46.85 189.1 L47.35 189.0 M80.15 181.15 L81.9 180.7 81.25 178.1 81.35 177.5 Q81.5 177.3 81.75 177.25 L79.35 177.8 80.15 181.15 M66.25 174.6 L66.95 177.45 68.7 177.05 68.0 174.2 66.25 174.6 M69.65 177.6 L66.35 178.4 65.3 174.0 68.6 173.2 69.65 177.6 M68.95 183.8 L69.3 183.85 68.1 182.3 68.5 183.9 68.95 183.8" fill="#000000" fill-rule="evenodd" stroke="none"/>
    <path d="M500.0 17.85 L500.0 8.0 10.0 8.0 10.0 17.85 10.0 37.65 10.0 47.5 10.0 49.15 10.0 62.3 10.0 75.5 10.0 90.3 10.0 110.0 500.0 110.0 500.0 90.3 500.0 75.5 500.0 62.3 500.0 49.15 500.0 47.5 500.0 37.65 500.0 17.85 M502.0 112.0 L8.0 112.0 8.0 6.0 502.0 6.0 502.0 112.0" fill="#122411" fill-rule="evenodd" stroke="none"/>
    <path d="M491.55 148.6 Q495.05 154.8 496.5 161.65 498.0 168.8 497.2 176.05 L489.3 174.5 Q489.9 168.8 488.65 163.2 487.55 157.8 484.95 153.1 L491.55 148.6 M495.85 183.0 Q493.9 190.05 489.9 196.05 485.95 201.95 480.4 206.4 L475.95 199.75 Q480.1 196.35 483.15 191.8 486.4 186.95 487.95 181.45 L495.85 183.0 M474.6 210.3 Q468.4 213.9 461.55 215.35 454.35 216.9 447.1 216.0 L448.6 208.15 459.8 207.5 Q465.3 206.35 470.05 203.7 L474.6 210.3 M440.15 214.65 Q433.1 212.8 427.0 208.8 421.1 204.85 416.6 199.2 L423.3 194.75 Q426.75 198.9 431.25 202.0 436.15 205.25 441.65 206.85 L440.15 214.65 M412.7 193.35 Q409.15 187.2 407.7 180.2 406.15 173.05 407.05 165.85 L414.95 167.35 Q414.3 173.05 415.55 178.7 416.75 184.15 419.3 188.95 L412.7 193.35 M408.4 158.9 Q410.25 151.8 414.35 145.7 418.35 139.85 423.95 135.45 L428.4 142.1 Q424.2 145.55 421.05 150.1 417.8 154.9 416.3 160.4 L408.4 158.9 M429.75 131.45 Q436.0 128.0 442.9 126.55 450.05 125.05 457.3 125.9 L455.75 133.75 444.35 134.35 Q439.0 135.55 434.3 138.1 L429.75 131.45 M464.25 127.25 Q471.2 129.2 477.35 133.2 483.2 137.2 487.6 142.7 L480.95 147.25 Q477.5 143.05 472.9 139.85 468.15 136.65 462.7 135.1 L464.25 127.25 M443.8 152.8 L441.7 163.75 445.05 164.4 445.75 160.6 448.4 161.1 447.15 167.55 437.3 165.65 437.85 163.0 439.05 163.25 441.15 152.3 439.95 152.05 440.45 149.4 445.55 150.4 445.05 153.05 443.8 152.8 M439.0 150.8 L438.35 154.15 435.7 153.65 436.15 151.35 432.85 150.7 430.75 161.65 434.05 162.3 434.5 159.95 437.15 160.45 436.45 164.0 434.8 165.15 429.2 164.1 427.85 162.1 430.3 149.2 432.4 147.85 437.8 148.9 439.0 150.8 M428.75 171.7 L429.25 169.05 434.3 170.0 433.8 172.65 432.6 172.4 431.8 176.35 435.15 177.0 435.95 173.05 434.7 172.85 435.2 170.2 440.3 171.15 439.8 173.8 438.6 173.6 436.45 184.5 437.65 184.7 437.15 187.35 432.05 186.4 432.55 183.75 433.8 183.95 434.65 179.6 431.3 178.95 430.45 183.3 431.65 183.55 431.15 186.2 426.1 185.25 426.6 182.6 427.8 182.8 429.95 171.9 428.75 171.7 M440.95 174.05 L441.45 171.4 451.25 173.3 450.3 178.15 447.65 177.6 448.1 175.4 444.75 174.75 444.1 178.1 447.45 178.75 446.9 181.4 443.55 180.75 442.6 185.65 445.95 186.3 446.6 182.95 449.25 183.5 448.1 189.5 438.3 187.6 438.8 184.95 439.95 185.15 442.1 174.25 440.95 174.05 M478.45 159.5 L474.35 162.9 476.75 170.55 478.05 170.8 477.5 173.45 472.2 172.4 472.75 169.75 473.95 170.0 472.25 164.6 468.9 167.35 468.6 168.95 469.85 169.2 469.3 171.85 464.25 170.85 464.8 168.2 466.0 168.45 468.1 157.5 466.9 157.25 467.4 154.6 472.45 155.6 471.95 158.25 470.7 158.0 469.6 163.7 475.25 158.9 473.9 158.6 474.4 155.95 480.1 157.05 479.6 159.7 478.45 159.5 M459.3 153.05 L464.75 154.1 465.95 156.0 465.3 159.35 462.65 158.85 463.1 156.55 459.75 155.9 457.65 166.85 461.0 167.5 461.45 165.15 464.1 165.65 463.4 169.2 461.75 170.4 456.15 169.3 454.8 167.35 457.25 154.45 459.3 153.05 M456.05 155.15 L454.75 154.9 452.65 165.85 453.95 166.1 453.4 168.75 448.3 167.8 448.85 165.15 450.0 165.35 452.1 154.4 450.95 154.2 451.45 151.55 456.55 152.5 456.05 155.15 M463.65 178.45 L464.15 175.8 474.05 177.7 473.1 182.55 470.45 182.0 470.9 179.8 467.5 179.15 466.85 182.5 470.25 183.15 469.7 185.8 466.3 185.15 465.35 190.05 468.75 190.7 469.4 187.35 472.05 187.9 470.9 193.9 461.0 192.0 461.5 189.35 462.7 189.55 464.85 178.65 463.65 178.45 M462.0 176.7 L460.65 183.7 459.0 184.9 458.1 184.7 459.3 188.9 460.4 189.1 459.9 191.75 457.2 191.25 455.25 184.15 454.35 184.0 453.6 187.8 454.85 188.05 454.35 190.7 449.25 189.7 449.75 187.05 450.95 187.3 453.1 176.4 451.9 176.15 452.4 173.5 460.9 175.15 462.0 176.7 M455.75 176.9 L454.9 181.3 458.25 181.95 459.1 177.55 455.75 176.9 M54.4 133.1 L52.55 125.3 Q59.7 124.25 66.9 125.3 73.95 126.55 80.25 129.75 L76.05 136.6 Q71.1 134.2 65.65 133.25 60.0 132.25 54.4 133.1 M45.7 126.95 L47.55 134.75 Q42.1 136.55 37.4 140.0 33.0 143.25 29.75 147.55 L22.85 143.4 Q27.1 137.7 32.8 133.45 38.7 129.2 45.7 126.95 M26.05 153.6 Q23.6 158.5 22.65 163.95 21.7 169.65 22.5 175.3 L14.75 177.15 Q13.5 169.95 14.75 162.75 15.95 155.7 19.2 149.35 L26.05 153.6 M24.15 182.15 Q26.0 187.6 29.4 192.25 32.75 196.7 37.15 200.05 L32.9 206.8 Q27.1 202.65 22.9 196.95 18.55 191.0 16.4 184.0 L24.15 182.15 M43.1 203.7 Q48.0 206.05 53.4 207.0 59.15 207.95 64.85 207.15 L66.7 214.85 Q59.5 216.1 52.3 214.9 45.25 213.8 38.85 210.5 L43.1 203.7 M71.7 205.45 Q77.05 203.6 81.65 200.25 86.15 196.95 89.4 192.5 L96.3 196.7 Q92.1 202.5 86.4 206.65 80.5 211.0 73.55 213.2 L71.7 205.45 M93.1 186.5 Q95.5 181.65 96.35 176.25 97.4 170.5 96.5 164.85 L104.3 163.0 Q105.45 170.2 104.3 177.35 103.1 184.35 99.95 190.75 L93.1 186.5 M94.85 158.0 Q93.1 152.55 89.6 147.95 86.35 143.5 82.05 140.25 L86.2 133.45 Q91.95 137.6 96.1 143.35 100.4 149.15 102.65 156.15 L94.85 158.0 M79.3 145.95 L79.9 148.55 78.8 148.8 76.5 153.65 81.8 159.55 83.05 159.25 83.7 161.9 78.45 163.15 77.8 160.5 79.0 160.2 75.3 156.0 73.35 159.95 73.7 161.5 74.95 161.2 75.6 163.85 70.55 165.05 69.9 162.4 71.15 162.1 68.55 151.25 67.3 151.55 66.7 148.95 71.75 147.75 72.35 150.35 71.1 150.65 72.45 156.3 75.6 149.55 74.25 149.85 73.65 147.25 79.3 145.95 M32.05 157.2 L37.4 155.95 39.25 157.2 40.05 160.5 37.45 161.1 36.9 158.8 33.6 159.6 36.2 170.45 39.5 169.65 38.95 167.3 41.55 166.7 42.4 170.25 41.4 172.0 35.85 173.35 33.8 172.1 30.75 159.35 32.05 157.2 M38.55 180.4 L37.9 177.8 42.95 176.6 43.6 179.2 42.35 179.5 43.25 183.4 46.55 182.6 45.65 178.7 44.45 179.0 43.8 176.4 48.85 175.2 49.5 177.8 48.3 178.1 50.85 188.9 52.05 188.6 52.7 191.25 47.65 192.45 47.0 189.8 48.2 189.5 47.2 185.2 43.9 186.0 44.9 190.3 46.15 190.0 46.8 192.65 41.75 193.85 41.1 191.2 42.3 190.9 39.75 180.1 38.55 180.4 M66.75 154.1 L64.1 154.75 63.55 152.45 60.25 153.2 62.85 164.05 66.15 163.3 65.6 160.95 68.25 160.3 69.1 163.85 68.1 165.65 62.55 166.95 60.5 165.7 57.45 152.95 58.7 150.85 64.1 149.55 65.95 150.8 66.75 154.1 M69.25 170.3 L70.9 171.3 72.55 178.2 71.55 179.95 70.65 180.2 73.5 183.45 74.6 183.2 75.25 185.85 72.55 186.5 67.85 180.85 66.95 181.05 67.85 184.8 69.1 184.5 69.75 187.15 64.65 188.4 64.0 185.75 65.25 185.45 62.7 174.65 61.45 174.95 60.8 172.35 69.25 170.3 M72.5 169.55 L82.25 167.2 83.4 172.0 80.8 172.65 80.3 170.45 76.95 171.25 77.75 174.6 81.1 173.8 81.7 176.4 78.35 177.2 79.5 182.05 82.85 181.25 82.05 177.95 84.65 177.3 86.1 183.25 76.35 185.6 75.7 182.95 76.85 182.65 74.3 171.85 73.15 172.15 72.5 169.55 M56.55 154.1 L55.3 154.4 57.9 165.25 59.15 164.95 59.8 167.6 54.75 168.8 54.1 166.15 55.3 165.9 52.7 155.05 51.5 155.3 50.9 152.7 55.95 151.5 56.55 154.1 M40.6 157.9 L40.0 155.3 45.1 154.1 45.7 156.7 44.45 157.0 47.05 167.85 50.35 167.05 49.45 163.3 52.1 162.7 53.65 169.1 43.85 171.4 43.2 168.75 44.45 168.45 41.85 157.6 40.6 157.9 M57.75 175.8 L54.4 176.6 55.2 179.95 58.55 179.15 59.15 181.75 55.8 182.55 56.95 187.4 60.3 186.6 59.5 183.3 62.1 182.7 63.55 188.65 53.85 190.95 53.2 188.3 54.35 188.05 51.8 177.25 50.65 177.5 50.0 174.9 59.7 172.6 60.85 177.4 58.25 178.0 57.75 175.8 M69.65 177.6 L68.6 173.2 65.3 174.0 66.35 178.4 69.65 177.6" fill="#e81a1a" fill-rule="evenodd" stroke="none"/>
    <path d="M491.55 148.6 L484.95 153.1 483.05 149.95 480.95 147.25 487.6 142.7 Q489.8 145.55 491.55 148.6 M489.3 174.5 L497.2 176.05 496.65 179.55 495.85 183.0 487.95 181.45 488.75 178.05 489.3 174.5 M480.4 206.4 Q477.55 208.6 474.6 210.3 L470.05 203.7 473.0 201.85 475.95 199.75 480.4 206.4 M447.1 216.0 L443.5 215.45 440.15 214.65 441.65 206.85 445.0 207.6 448.6 208.15 447.1 216.0 M416.6 199.2 Q414.4 196.45 412.7 193.35 L419.3 188.95 421.2 191.85 423.3 194.75 416.6 199.2 M407.05 165.85 L407.6 162.35 408.4 158.9 416.3 160.4 Q415.8 162.1 415.45 163.85 L414.95 167.35 407.05 165.85 M423.95 135.45 Q426.65 133.25 429.75 131.45 L434.3 138.1 Q432.65 139.0 431.25 139.95 429.75 140.95 428.4 142.1 L423.95 135.45 M457.3 125.9 L460.7 126.4 464.25 127.25 462.7 135.1 459.2 134.25 455.75 133.75 457.3 125.9 M471.2 142.4 Q476.8 146.15 480.5 151.75 484.3 157.25 485.7 163.85 487.15 170.55 485.8 177.45 484.5 184.3 480.6 190.05 476.9 195.6 471.3 199.4 465.8 203.1 459.2 204.55 452.45 205.95 445.6 204.6 438.75 203.3 433.0 199.45 427.45 195.7 423.65 190.2 419.95 184.6 418.5 178.05 417.15 171.3 418.45 164.45 419.8 157.55 423.6 151.85 427.35 146.25 432.85 142.55 438.45 138.75 445.0 137.3 451.8 135.9 458.65 137.2 465.5 138.55 471.2 142.4 M432.55 147.1 L431.9 147.2 429.95 148.55 429.55 149.05 427.1 161.95 Q427.0 162.3 427.2 162.6 L428.55 164.55 429.05 164.85 434.65 165.9 435.2 165.85 436.7 164.85 436.55 165.5 436.65 166.1 437.15 166.4 447.0 168.3 447.6 168.2 447.65 168.25 448.15 168.55 453.25 169.5 453.8 169.4 454.1 168.9 454.3 168.0 455.5 169.75 Q455.65 170.0 456.0 170.05 L461.6 171.15 462.15 171.05 463.6 170.05 463.45 170.7 463.6 171.3 Q463.75 171.55 464.1 171.6 L469.15 172.6 469.75 172.5 470.1 172.0 470.65 169.35 470.5 168.75 470.0 168.4 469.55 168.3 469.6 167.8 471.85 165.95 472.85 168.95 472.3 169.1 471.95 169.6 471.4 172.25 471.55 172.85 Q471.75 173.1 472.05 173.15 L477.35 174.2 478.0 174.1 478.35 173.6 478.9 170.95 478.75 170.35 Q478.6 170.05 478.2 170.0 L477.4 169.85 475.25 163.15 478.65 160.35 479.45 160.5 480.05 160.45 480.35 159.85 480.85 157.2 480.75 156.65 Q480.55 156.4 480.25 156.3 L474.55 155.2 473.95 155.3 473.6 155.8 473.1 158.45 473.25 159.1 473.55 159.35 470.8 161.6 471.35 158.95 471.8 159.05 472.4 158.95 472.75 158.4 473.25 155.75 473.1 155.15 472.6 154.85 467.55 153.85 466.95 153.95 466.6 154.45 466.45 155.25 465.35 153.65 464.9 153.35 459.45 152.3 458.85 152.4 457.05 153.55 457.25 152.65 457.15 152.05 Q457.0 151.85 456.7 151.75 L451.6 150.8 451.0 150.9 450.65 151.4 450.15 154.05 450.3 154.7 450.8 155.0 451.2 155.05 449.4 164.4 449.0 164.35 448.6 164.35 449.2 161.25 449.05 160.65 448.55 160.3 445.9 159.8 445.25 159.95 444.95 160.45 444.4 163.45 442.65 163.1 444.45 153.75 444.9 153.85 445.5 153.75 445.8 153.2 446.3 150.55 446.2 149.95 Q446.0 149.7 445.7 149.65 L440.6 148.65 440.0 148.75 439.7 149.25 439.55 150.05 438.4 148.45 Q438.25 148.2 437.95 148.15 L432.55 147.1 M439.5 152.7 L439.8 152.85 440.25 152.95 438.45 162.3 438.0 162.2 437.65 162.25 438.0 160.6 437.85 160.05 Q437.6 159.75 437.25 159.7 L434.6 159.2 434.05 159.3 433.75 159.8 433.45 161.35 431.65 161.0 433.45 151.65 435.25 152.0 434.95 153.5 435.05 154.05 435.55 154.45 438.2 154.95 438.85 154.8 439.2 154.3 439.5 152.7 M428.6 172.5 L429.05 172.55 427.2 181.9 426.75 181.85 426.2 181.9 425.8 182.4 425.3 185.05 425.45 185.7 425.95 186.1 431.0 187.05 431.5 186.95 431.9 187.25 437.0 188.2 437.6 188.05 438.15 188.45 447.95 190.35 448.6 190.2 449.1 190.55 454.2 191.55 454.8 191.4 455.15 190.85 455.65 188.35 456.45 191.5 456.7 191.85 457.05 192.1 459.75 192.6 460.35 192.45 460.4 192.4 460.4 192.45 460.85 192.85 470.75 194.75 471.35 194.6 471.6 194.05 472.75 188.05 472.7 187.45 472.2 187.1 469.75 186.6 470.15 186.55 470.4 185.95 470.95 183.3 470.95 182.95 472.95 183.35 473.55 183.2 473.8 182.7 474.75 177.85 474.7 177.2 Q474.5 176.95 474.2 176.9 L464.3 175.0 463.75 175.05 Q463.45 175.25 463.4 175.6 L462.9 178.25 Q462.8 178.55 463.05 178.85 L463.5 179.25 463.95 179.3 462.1 188.65 461.65 188.6 461.15 188.65 461.1 188.65 Q460.9 188.4 460.55 188.35 L459.9 188.25 459.15 185.65 459.4 185.5 461.15 184.4 461.4 183.85 462.75 176.85 462.75 176.6 462.65 176.25 461.5 174.65 Q461.35 174.4 461.05 174.35 L452.55 172.7 451.95 172.8 Q451.75 172.55 451.4 172.5 L441.6 170.6 440.95 170.65 Q440.8 170.45 440.45 170.35 L435.35 169.4 434.9 169.4 434.45 169.2 429.4 168.25 428.8 168.3 Q428.5 168.5 428.45 168.85 L427.95 171.5 Q427.85 171.8 428.1 172.1 L428.6 172.5 M431.8 182.8 L431.4 182.7 431.95 179.85 433.75 180.2 433.2 183.05 432.7 183.0 432.25 183.05 431.8 182.8 M435.05 173.7 L434.55 176.1 432.75 175.75 433.25 173.35 433.65 173.45 434.1 173.4 434.55 173.65 435.05 173.7 M445.35 185.45 L443.6 185.1 444.25 181.7 446.75 182.15 446.15 182.3 Q445.95 182.5 445.85 182.85 L445.35 185.45 M445.1 177.5 L445.45 175.75 447.2 176.1 446.9 177.5 446.9 177.85 445.1 177.5 M440.8 174.85 L441.25 174.9 439.4 184.25 438.95 184.2 438.35 184.25 437.8 183.95 437.35 183.9 439.2 174.55 439.65 174.6 440.25 174.45 Q440.45 174.75 440.8 174.85 M466.4 157.9 L466.75 158.05 467.2 158.15 465.4 167.5 464.95 167.4 464.55 167.45 464.9 165.8 464.8 165.25 464.2 164.9 461.55 164.4 461.0 164.55 460.7 165.0 460.4 166.55 458.6 166.2 460.4 156.85 462.2 157.2 461.9 158.7 462.0 159.3 462.5 159.65 465.15 160.15 465.8 160.0 466.1 159.5 466.4 157.9 M455.9 155.95 L456.2 155.95 454.35 165.5 454.1 165.3 453.65 165.25 455.45 155.9 455.9 155.95 M469.55 186.55 L468.9 186.7 468.6 187.2 468.1 189.8 466.35 189.5 467.0 186.1 469.55 186.55 M469.65 181.85 L469.65 182.25 467.85 181.9 468.2 180.15 469.95 180.45 469.65 181.85 M455.0 187.3 L454.55 187.2 454.9 185.6 455.4 187.45 455.0 187.3 M450.8 178.8 L451.1 178.3 451.4 176.8 451.75 176.95 452.2 177.05 450.35 186.4 449.9 186.3 449.55 186.35 450.05 183.65 449.95 183.05 449.4 182.7 446.95 182.2 447.4 182.15 447.7 181.55 448.25 178.9 448.2 178.55 450.15 178.95 450.8 178.8 M456.4 177.85 L458.15 178.2 457.55 181.1 455.8 180.75 456.4 177.85 M54.4 133.1 L50.85 133.8 47.55 134.75 45.7 126.95 49.0 126.0 52.55 125.3 54.4 133.1 M29.75 147.55 Q28.65 149.0 27.7 150.55 L26.05 153.6 19.2 149.35 Q20.75 146.25 22.85 143.4 L29.75 147.55 M22.5 175.3 L23.2 178.8 24.15 182.15 16.4 184.0 15.45 180.65 14.75 177.15 22.5 175.3 M37.15 200.05 L39.95 201.95 43.1 203.7 38.85 210.5 Q35.7 208.95 32.9 206.8 L37.15 200.05 M64.85 207.15 L68.2 206.45 71.7 205.45 73.55 213.2 70.1 214.2 66.7 214.85 64.85 207.15 M89.4 192.5 L91.3 189.65 93.1 186.5 99.95 190.75 96.3 196.7 89.4 192.5 M96.5 164.85 L95.85 161.4 94.85 158.0 102.65 156.15 103.65 159.55 104.3 163.0 96.5 164.85 M82.05 140.25 Q80.65 139.2 79.05 138.25 L76.05 136.6 80.25 129.75 86.2 133.45 82.05 140.25 M72.1 147.05 L71.55 147.0 66.5 148.2 Q66.2 148.25 66.05 148.5 65.85 148.8 65.95 149.1 L66.15 149.9 64.45 148.9 63.9 148.8 58.5 150.1 58.0 150.45 56.9 152.25 56.7 151.35 56.3 150.85 55.75 150.75 50.7 151.95 50.25 152.3 Q50.05 152.6 50.15 152.9 L50.75 155.5 51.15 156.05 51.7 156.15 52.15 156.05 54.35 165.25 53.9 165.35 Q53.7 165.4 53.6 165.55 L52.85 162.5 52.55 162.0 51.9 161.95 49.25 162.55 48.8 162.9 48.7 163.5 49.4 166.45 47.65 166.85 45.45 157.65 45.9 157.55 46.35 157.2 46.4 156.55 45.8 153.95 45.45 153.45 44.9 153.35 39.8 154.55 39.35 154.9 39.3 155.5 39.5 156.3 37.8 155.25 37.2 155.2 31.85 156.45 Q31.45 156.55 31.3 156.8 L30.1 158.9 Q29.85 159.15 29.95 159.5 L33.0 172.25 33.45 172.8 35.4 173.95 36.0 174.1 41.55 172.75 42.0 172.4 43.0 170.95 43.15 171.6 43.45 172.05 44.0 172.15 53.8 169.85 54.3 169.45 54.35 169.45 54.9 169.55 59.95 168.35 60.4 168.0 60.55 167.45 60.3 166.55 62.1 167.6 62.7 167.7 68.25 166.4 68.7 166.0 69.65 164.55 69.8 165.2 70.15 165.65 70.7 165.8 75.75 164.6 76.2 164.2 76.35 163.65 75.7 161.0 75.3 160.5 74.75 160.4 74.3 160.5 74.2 160.05 75.5 157.4 77.55 159.7 77.1 160.1 77.0 160.7 77.65 163.35 78.0 163.8 78.6 163.9 83.85 162.65 84.4 162.25 84.55 161.7 83.9 159.05 83.5 158.55 82.85 158.45 82.05 158.65 77.4 153.45 79.35 149.55 80.1 149.4 80.6 149.0 80.65 148.35 80.05 145.75 79.7 145.25 79.1 145.2 73.45 146.5 Q73.2 146.6 73.0 146.85 72.8 147.15 72.9 147.45 L73.5 150.05 73.9 150.6 74.3 150.7 72.75 153.9 72.1 151.3 72.55 151.2 73.0 150.8 73.1 150.15 72.5 147.55 72.1 147.05 M77.5 140.9 Q83.2 144.35 87.2 149.8 91.25 155.35 92.9 162.15 94.5 168.95 93.4 175.75 92.25 182.35 88.8 188.1 85.3 193.75 79.9 197.8 74.3 201.8 67.5 203.45 60.7 205.1 53.9 204.0 47.35 202.85 41.55 199.4 35.85 195.85 31.85 190.45 27.8 184.85 26.2 178.05 24.55 171.25 25.65 164.5 26.8 157.85 30.25 152.2 33.85 146.45 39.2 142.45 44.75 138.35 51.55 136.7 L65.2 136.25 Q71.8 137.35 77.5 140.9 M37.2 177.35 L37.1 178.0 37.75 180.6 38.1 181.1 38.7 181.2 39.15 181.1 41.4 190.4 40.95 190.5 Q40.6 190.6 40.45 190.85 L40.3 191.4 40.95 194.05 41.35 194.6 41.95 194.65 47.0 193.45 47.35 193.15 47.85 193.25 52.9 192.05 53.4 191.7 54.05 191.75 63.75 189.45 Q64.1 189.35 64.3 189.1 L64.85 189.2 69.95 187.95 70.4 187.65 70.5 187.0 69.9 184.5 71.95 187.05 72.3 187.25 72.75 187.3 75.45 186.65 75.9 186.35 75.9 186.25 75.95 186.3 76.55 186.4 86.3 184.05 86.8 183.7 86.85 183.1 85.4 177.15 85.1 176.6 84.5 176.55 82.05 177.15 82.4 176.85 82.4 176.2 81.8 173.6 81.65 173.25 83.6 172.8 84.1 172.4 84.15 171.85 83.0 167.05 82.65 166.45 82.05 166.4 72.3 168.75 Q72.0 168.8 71.8 169.05 L71.7 169.7 72.35 172.3 72.7 172.8 73.3 172.95 73.75 172.85 76.0 182.15 75.55 182.25 Q75.25 182.3 75.05 182.55 L75.0 182.6 74.45 182.5 73.8 182.65 72.05 180.6 72.2 180.35 73.3 178.65 73.3 178.0 71.65 171.1 71.55 170.85 71.35 170.55 69.6 169.6 69.05 169.5 60.6 171.55 Q60.3 171.6 60.15 171.85 L59.5 171.8 49.8 174.1 Q49.45 174.2 49.25 174.45 L48.65 174.4 43.6 175.6 Q43.35 175.65 43.2 175.8 L42.75 175.8 37.7 177.0 37.2 177.35 M34.55 160.25 L36.35 159.85 36.7 161.3 Q36.8 161.65 37.05 161.8 L37.65 161.85 40.25 161.25 40.8 160.9 40.9 160.3 40.55 158.75 40.8 158.75 41.25 158.65 43.45 167.85 43.0 167.95 42.8 168.15 42.4 166.5 42.05 166.1 41.35 166.0 38.75 166.6 38.3 167.0 38.2 167.5 38.55 169.05 36.75 169.45 34.55 160.25 M67.5 152.4 L67.95 152.3 70.15 161.5 69.7 161.6 69.45 161.75 69.05 160.1 68.75 159.7 68.05 159.6 65.4 160.25 65.0 160.6 64.9 161.1 65.25 162.65 63.45 163.1 61.25 153.9 63.05 153.45 63.4 154.9 63.75 155.4 64.3 155.5 66.95 154.85 67.5 154.5 67.55 153.9 67.2 152.35 67.5 152.4 M77.9 171.85 L79.65 171.4 80.0 172.8 80.15 173.15 78.35 173.6 77.9 171.85 M56.75 154.95 L57.05 154.8 59.3 164.2 58.95 164.15 58.55 164.25 56.35 155.05 56.75 154.95 M57.15 176.8 L57.5 178.2 57.65 178.55 55.85 178.95 55.4 177.2 57.15 176.8 M59.3 179.0 L59.1 178.65 61.05 178.2 61.6 177.8 61.65 177.2 61.3 175.7 61.6 175.75 62.05 175.6 64.3 184.9 63.85 185.05 63.55 185.2 62.9 182.5 62.6 182.0 61.95 181.95 59.5 182.55 59.85 182.25 59.9 181.6 59.3 179.0 M66.25 174.6 L68.0 174.2 68.7 177.05 66.95 177.45 66.25 174.6 M80.15 181.15 L79.35 177.8 81.75 177.25 Q81.5 177.3 81.35 177.5 L81.25 178.1 81.9 180.7 80.15 181.15 M47.35 189.0 L46.85 189.1 Q46.6 189.15 46.45 189.35 L46.0 189.3 45.55 189.4 44.85 186.55 46.65 186.15 47.35 189.0 M44.15 179.75 L44.6 179.8 45.1 179.7 45.7 182.1 43.9 182.5 43.3 180.1 43.75 180.0 44.15 179.75 M59.35 182.55 Q59.05 182.65 58.85 182.9 L58.75 183.5 59.4 186.1 57.65 186.5 56.85 183.15 59.35 182.55 M50.8 178.3 L51.2 178.2 53.45 187.5 53.05 187.6 Q52.7 187.7 52.5 187.95 L51.9 187.9 51.45 188.0 49.2 178.7 49.65 178.6 50.15 178.2 50.8 178.3 M68.95 183.8 L68.5 183.9 68.1 182.3 69.3 183.85 68.95 183.8" fill="#f8e50f" fill-rule="evenodd" stroke="none"/>
    <path d="M500.0 37.65 L500.0 47.5 10.0 47.5 10.0 37.65 500.0 37.65" fill="#5f895a" fill-rule="evenodd" stroke="none"/>
    <path d="M500.0 47.5 L500.0 49.15 10.0 49.15 10.0 47.5 500.0 47.5" fill="#467340" fill-rule="evenodd" stroke="none"/>
    <path d="M10.0 17.85 L10.0 8.0 500.0 8.0 500.0 17.85 10.0 17.85" fill="#54864c" fill-rule="evenodd" stroke="none"/>
    <path d="M10.0 17.85 L500.0 17.85 500.0 37.65 10.0 37.65 10.0 17.85" fill="#53834d" fill-rule="evenodd" stroke="none"/>
    <path d="M500.0 75.5 L500.0 90.3 10.0 90.3 10.0 75.5 500.0 75.5" fill="#1b4615" fill-rule="evenodd" stroke="none"/>
    <path d="M500.0 62.3 L500.0 75.5 10.0 75.5 10.0 62.3 500.0 62.3" fill="#265520" fill-rule="evenodd" stroke="none"/>
    <path d="M500.0 49.15 L500.0 62.3 10.0 62.3 10.0 49.15 500.0 49.15" fill="#32622b" fill-rule="evenodd" stroke="none"/>
    <path d="M500.0 90.3 L500.0 110.0 10.0 110.0 10.0 90.3 500.0 90.3" fill="#163c10" fill-rule="evenodd" stroke="none"/>
  </g>
</svg>
