<?xml version="1.0" encoding="UTF-8" standalone="no"?>
<svg xmlns:ffdec="https://www.free-decompiler.com/flash" xmlns:xlink="http://www.w3.org/1999/xlink" ffdec:objectType="shape" height="47.5px" width="460.9px" xmlns="http://www.w3.org/2000/svg">
  <g transform="matrix(1.0, 0.0, 0.0, 1.0, 0.0, 0.0)">
    <path d="M458.9 6.85 L458.9 24.4 458.65 25.1 455.15 28.75 454.8 29.0 454.4 29.05 453.85 29.05 457.75 36.65 459.9 36.65 Q460.3 36.65 460.6 36.95 L460.9 37.65 460.9 44.35 460.6 45.05 459.9 45.35 453.15 45.35 452.65 45.2 452.25 44.8 444.55 29.05 443.85 29.05 443.85 36.65 445.9 36.65 Q446.3 36.65 446.6 36.95 L446.9 37.65 446.9 44.35 446.6 45.05 445.9 45.35 433.1 45.35 Q432.7 45.35 432.4 45.05 432.1 44.75 432.1 44.35 L432.1 37.65 Q432.1 37.25 432.4 36.95 432.7 36.65 433.1 36.65 L435.15 36.65 435.15 11.2 433.1 11.2 Q432.7 11.2 432.4 10.9 432.1 10.6 432.1 10.2 L432.1 3.5 Q432.1 3.1 432.4 2.8 432.7 2.5 433.1 2.5 L454.4 2.5 Q454.8 2.5 455.1 2.8 L458.6 6.15 458.85 6.45 458.9 6.85 M451.2 10.2 L451.2 21.35 442.85 21.35 442.85 10.2 451.2 10.2 M450.2 11.2 L443.85 11.2 443.85 20.35 450.2 20.35 450.2 11.2 M417.8 3.5 L411.75 3.5 402.6 37.65 399.8 37.65 399.8 44.35 412.6 44.35 412.6 37.65 409.05 37.65 409.8 34.95 419.7 34.95 420.45 37.65 417.15 37.65 417.15 44.35 430.3 44.35 430.3 37.65 426.95 37.65 417.8 3.5 M457.9 6.85 L454.4 3.5 433.1 3.5 433.1 10.2 436.15 10.2 436.15 37.65 433.1 37.65 433.1 44.35 445.9 44.35 445.9 37.65 442.85 37.65 442.85 28.05 445.15 28.05 453.15 44.35 459.9 44.35 459.9 37.65 457.1 37.65 452.2 28.05 454.4 28.05 457.9 24.4 457.9 6.85 M418.8 3.25 L427.75 36.65 430.3 36.65 Q430.7 36.65 431.0 36.95 L431.3 37.65 431.3 44.35 431.0 45.05 430.3 45.35 417.15 45.35 Q416.75 45.35 416.45 45.05 L416.15 44.35 416.15 37.65 Q416.15 37.25 416.45 36.95 416.75 36.65 417.15 36.65 L419.15 36.65 418.95 35.95 410.6 35.95 410.4 36.65 412.6 36.65 Q413.0 36.65 413.3 36.95 L413.6 37.65 413.6 44.35 413.3 45.05 412.6 45.35 399.8 45.35 Q399.4 45.35 399.1 45.05 398.8 44.75 398.8 44.35 L398.8 37.65 Q398.8 37.25 399.1 36.95 399.4 36.65 399.8 36.65 L401.85 36.65 410.8 3.25 Q410.85 2.9 411.15 2.7 L411.75 2.5 417.8 2.5 418.4 2.7 418.8 3.25 M418.0 28.35 L411.5 28.35 414.85 16.0 418.0 28.35 M416.7 27.35 L414.85 19.95 412.85 27.35 416.7 27.35 M397.7 2.8 L398.0 3.5 398.0 15.75 397.7 16.45 397.0 16.75 390.3 16.75 389.6 16.45 389.3 15.75 389.3 11.2 382.95 11.2 382.95 17.55 390.3 17.55 Q390.7 17.55 391.0 17.85 L391.3 18.55 391.3 25.25 391.0 25.95 Q390.7 26.25 390.3 26.25 L382.95 26.25 382.95 36.65 389.3 36.65 389.3 29.2 Q389.3 28.8 389.6 28.5 389.9 28.2 390.3 28.2 L397.0 28.2 Q397.4 28.2 397.7 28.5 L398.0 29.2 398.0 44.35 397.7 45.05 397.0 45.35 372.2 45.35 Q371.8 45.35 371.5 45.05 371.2 44.75 371.2 44.35 L371.2 37.65 Q371.2 37.25 371.5 36.95 371.8 36.65 372.2 36.65 L374.25 36.65 374.25 11.2 372.2 11.2 Q371.8 11.2 371.5 10.9 371.2 10.6 371.2 10.2 L371.2 3.5 Q371.2 3.1 371.5 2.8 371.8 2.5 372.2 2.5 L397.0 2.5 Q397.4 2.5 397.7 2.8 M397.0 15.75 L397.0 3.5 372.2 3.5 372.2 10.2 375.25 10.2 375.25 37.65 372.2 37.65 372.2 44.35 397.0 44.35 397.0 29.2 390.3 29.2 390.3 37.65 381.95 37.65 381.95 25.25 390.3 25.25 390.3 18.55 381.95 18.55 381.95 10.2 390.3 10.2 390.3 15.75 397.0 15.75 M368.1 6.15 L368.35 6.45 368.4 6.85 368.4 24.4 368.15 25.1 364.65 28.75 364.3 29.0 363.9 29.05 363.35 29.05 367.25 36.65 369.4 36.65 Q369.8 36.65 370.1 36.95 L370.4 37.65 370.4 44.35 370.1 45.05 369.4 45.35 362.65 45.35 362.15 45.2 361.75 44.8 354.05 29.05 353.35 29.05 353.35 36.65 355.4 36.65 Q355.8 36.65 356.1 36.95 L356.4 37.65 356.4 44.35 356.1 45.05 355.4 45.35 342.6 45.35 Q342.2 45.35 341.9 45.05 L341.6 44.35 341.6 37.65 Q341.6 37.25 341.9 36.95 342.2 36.65 342.6 36.65 L344.65 36.65 344.65 11.2 342.6 11.2 Q342.2 11.2 341.9 10.9 L341.6 10.2 341.6 3.5 Q341.6 3.1 341.9 2.8 342.2 2.5 342.6 2.5 L363.9 2.5 Q364.3 2.5 364.6 2.8 L368.1 6.15 M352.35 21.35 L352.35 10.2 360.7 10.2 360.7 21.35 352.35 21.35 M367.4 24.4 L367.4 6.85 363.9 3.5 342.6 3.5 342.6 10.2 345.65 10.2 345.65 37.65 342.6 37.65 342.6 44.35 355.4 44.35 355.4 37.65 352.35 37.65 352.35 28.05 354.65 28.05 362.65 44.35 369.4 44.35 369.4 37.65 366.6 37.65 361.7 28.05 363.9 28.05 367.4 24.4 M353.35 20.35 L359.7 20.35 359.7 11.2 353.35 11.2 353.35 20.35 M328.2 2.8 L328.5 3.5 328.5 15.75 328.2 16.45 327.5 16.75 320.8 16.75 Q320.4 16.75 320.1 16.45 319.8 16.15 319.8 15.75 L319.8 11.2 313.45 11.2 313.45 17.55 320.8 17.55 Q321.2 17.55 321.5 17.85 L321.8 18.55 321.8 25.25 321.5 25.95 320.8 26.25 313.45 26.25 313.45 36.65 319.8 36.65 319.8 29.2 Q319.8 28.8 320.1 28.5 320.4 28.2 320.8 28.2 L327.5 28.2 Q327.9 28.2 328.2 28.5 L328.5 29.2 328.5 44.35 328.2 45.05 327.5 45.35 302.7 45.35 Q302.3 45.35 302.0 45.05 L301.7 44.35 301.7 37.65 Q301.7 37.25 302.0 36.95 302.3 36.65 302.7 36.65 L304.75 36.65 304.75 11.2 302.7 11.2 Q302.3 11.2 302.0 10.9 L301.7 10.2 301.7 3.5 Q301.7 3.1 302.0 2.8 302.3 2.5 302.7 2.5 L327.5 2.5 Q327.9 2.5 328.2 2.8 M327.5 15.75 L327.5 3.5 302.7 3.5 302.7 10.2 305.75 10.2 305.75 37.65 302.7 37.65 302.7 44.35 327.5 44.35 327.5 29.2 320.8 29.2 320.8 37.65 312.45 37.65 312.45 25.25 320.8 25.25 320.8 18.55 312.45 18.55 312.45 10.2 320.8 10.2 320.8 15.75 327.5 15.75 M300.6 2.8 L300.9 3.5 300.9 10.2 300.6 10.9 299.9 11.2 297.85 11.2 297.85 36.65 299.9 36.65 300.6 36.95 300.9 37.65 300.9 44.35 300.6 45.05 299.9 45.35 287.1 45.35 286.4 45.05 Q286.1 44.75 286.1 44.35 L286.1 37.65 Q286.1 37.25 286.4 36.95 286.7 36.65 287.1 36.65 L289.15 36.65 289.15 27.6 282.8 27.6 282.8 36.65 284.85 36.65 Q285.25 36.65 285.55 36.95 L285.85 37.65 285.85 44.35 285.55 45.05 284.85 45.35 272.05 45.35 Q271.65 45.35 271.35 45.05 271.05 44.75 271.05 44.35 L271.05 37.65 Q271.05 37.25 271.35 36.95 271.65 36.65 272.05 36.65 L274.1 36.65 274.1 11.2 272.05 11.2 Q271.65 11.2 271.35 10.9 271.05 10.6 271.05 10.2 L271.05 3.5 Q271.05 3.1 271.35 2.8 271.65 2.5 272.05 2.5 L284.85 2.5 Q285.25 2.5 285.55 2.8 L285.85 3.5 285.85 10.2 285.55 10.9 284.85 11.2 282.8 11.2 282.8 19.15 289.15 19.15 289.15 11.2 287.1 11.2 286.4 10.9 Q286.1 10.6 286.1 10.2 L286.1 3.5 Q286.1 3.1 286.4 2.8 286.7 2.5 287.1 2.5 L299.9 2.5 300.6 2.8 M299.9 10.2 L299.9 3.5 287.1 3.5 287.1 10.2 290.15 10.2 290.15 20.15 281.8 20.15 281.8 10.2 284.85 10.2 284.85 3.5 272.05 3.5 272.05 10.2 275.1 10.2 275.1 37.65 272.05 37.65 272.05 44.35 284.85 44.35 284.85 37.65 281.8 37.65 281.8 26.6 290.15 26.6 290.15 37.65 287.1 37.65 287.1 44.35 299.9 44.35 299.9 37.65 296.85 37.65 296.85 10.2 299.9 10.2 M269.95 2.8 L270.25 3.5 270.25 18.1 269.95 18.8 269.25 19.1 262.8 19.1 Q262.4 19.1 262.1 18.8 L261.8 18.1 261.8 11.2 259.65 11.2 259.65 36.65 261.7 36.65 Q262.1 36.65 262.4 36.95 L262.7 37.65 262.7 44.35 262.4 45.05 261.7 45.35 248.95 45.35 Q248.55 45.35 248.25 45.05 247.95 44.75 247.95 44.35 L247.95 37.65 Q247.95 37.25 248.25 36.95 248.55 36.65 248.95 36.65 L251.0 36.65 251.0 11.2 248.85 11.2 248.85 18.1 248.55 18.8 247.85 19.1 241.4 19.1 Q241.0 19.1 240.7 18.8 240.4 18.5 240.4 18.1 L240.4 3.5 Q240.4 3.1 240.7 2.8 241.0 2.5 241.4 2.5 L269.25 2.5 Q269.65 2.5 269.95 2.8 M223.25 10.2 L226.3 10.2 226.3 3.5 213.5 3.5 213.5 10.2 216.55 10.2 216.55 27.1 206.75 3.5 197.65 3.5 197.65 10.2 200.7 10.2 200.7 37.65 197.65 37.65 197.65 44.35 210.45 44.35 210.45 37.65 207.4 37.65 207.4 21.5 217.1 44.35 223.25 44.35 223.25 10.2 M269.25 18.1 L269.25 3.5 241.4 3.5 241.4 18.1 247.85 18.1 247.85 10.2 252.0 10.2 252.0 37.65 248.95 37.65 248.95 44.35 261.7 44.35 261.7 37.65 258.65 37.65 258.65 10.2 262.8 10.2 262.8 18.1 269.25 18.1 M224.25 11.2 L224.25 44.35 223.95 45.05 223.25 45.35 217.1 45.35 216.55 45.2 216.2 44.75 208.4 26.45 208.4 36.65 210.45 36.65 Q210.85 36.65 211.15 36.95 L211.45 37.65 211.45 44.35 211.15 45.05 210.45 45.35 197.65 45.35 196.95 45.05 Q196.65 44.75 196.65 44.35 L196.65 37.65 Q196.65 37.25 196.95 36.95 197.25 36.65 197.65 36.65 L199.7 36.65 199.7 11.2 197.65 11.2 196.95 10.9 Q196.65 10.6 196.65 10.2 L196.65 3.5 Q196.65 3.1 196.95 2.8 197.25 2.5 197.65 2.5 L206.75 2.5 207.3 2.7 207.7 3.15 215.55 22.1 215.55 11.2 213.5 11.2 Q213.1 11.2 212.8 10.9 212.5 10.6 212.5 10.2 L212.5 3.5 Q212.5 3.1 212.8 2.8 213.1 2.5 213.5 2.5 L226.3 2.5 Q226.7 2.5 227.0 2.8 L227.3 3.5 227.3 10.2 227.0 10.9 226.3 11.2 224.25 11.2 M195.85 3.5 L195.85 10.2 195.55 10.9 Q195.25 11.2 194.85 11.2 L192.8 11.2 192.8 36.65 194.85 36.65 Q195.25 36.65 195.55 36.95 L195.85 37.65 195.85 44.35 195.55 45.05 Q195.25 45.35 194.85 45.35 L182.05 45.35 181.35 45.05 Q181.05 44.75 181.05 44.35 L181.05 37.65 Q181.05 37.25 181.35 36.95 181.65 36.65 182.05 36.65 L184.1 36.65 184.1 11.2 182.05 11.2 181.35 10.9 Q181.05 10.6 181.05 10.2 L181.05 3.5 Q181.05 3.1 181.35 2.8 181.65 2.5 182.05 2.5 L194.85 2.5 Q195.25 2.5 195.55 2.8 L195.85 3.5 M194.85 10.2 L194.85 3.5 182.05 3.5 182.05 10.2 185.1 10.2 185.1 37.65 182.05 37.65 182.05 44.35 194.85 44.35 194.85 37.65 191.8 37.65 191.8 10.2 194.85 10.2 M165.65 6.15 L165.9 6.45 165.95 6.85 165.95 24.4 165.7 25.1 162.2 28.75 161.85 29.0 161.45 29.05 160.9 29.05 164.8 36.65 166.95 36.65 Q167.35 36.65 167.65 36.95 L167.95 37.65 167.95 44.35 167.65 45.05 166.95 45.35 160.2 45.35 159.7 45.2 159.3 44.8 151.6 29.05 150.9 29.05 150.9 36.65 152.95 36.65 Q153.35 36.65 153.65 36.95 L153.95 37.65 153.95 44.35 153.65 45.05 152.95 45.35 140.15 45.35 Q139.75 45.35 139.45 45.05 139.15 44.75 139.15 44.35 L139.15 37.65 Q139.15 37.25 139.45 36.95 139.75 36.65 140.15 36.65 L142.2 36.65 142.2 11.2 140.15 11.2 Q139.75 11.2 139.45 10.9 139.15 10.6 139.15 10.2 L139.15 3.5 Q139.15 3.1 139.45 2.8 139.75 2.5 140.15 2.5 L161.45 2.5 Q161.85 2.5 162.15 2.8 L165.65 6.15 M164.95 24.4 L164.95 6.85 161.45 3.5 140.15 3.5 140.15 10.2 143.2 10.2 143.2 37.65 140.15 37.65 140.15 44.35 152.95 44.35 152.95 37.65 149.9 37.65 149.9 28.05 152.2 28.05 160.2 44.35 166.95 44.35 166.95 37.65 164.15 37.65 159.25 28.05 161.45 28.05 164.95 24.4 M150.9 20.35 L157.25 20.35 157.25 11.2 150.9 11.2 150.9 20.35 M149.9 21.35 L149.9 10.2 158.25 10.2 158.25 21.35 149.9 21.35 M138.35 3.5 L138.35 15.75 138.05 16.45 137.35 16.75 130.65 16.75 129.95 16.45 Q129.65 16.15 129.65 15.75 L129.65 11.2 123.3 11.2 123.3 17.55 130.65 17.55 Q131.05 17.55 131.35 17.85 L131.65 18.55 131.65 25.25 131.35 25.95 130.65 26.25 123.3 26.25 123.3 36.65 129.65 36.65 129.65 29.2 Q129.65 28.8 129.95 28.5 130.25 28.2 130.65 28.2 L137.35 28.2 Q137.75 28.2 138.05 28.5 L138.35 29.2 138.35 44.35 138.05 45.05 137.35 45.35 112.55 45.35 Q112.15 45.35 111.85 45.05 111.55 44.75 111.55 44.35 L111.55 37.65 Q111.55 37.25 111.85 36.95 112.15 36.65 112.55 36.65 L114.6 36.65 114.6 11.2 112.55 11.2 Q112.15 11.2 111.85 10.9 111.55 10.6 111.55 10.2 L111.55 3.5 Q111.55 3.1 111.85 2.8 112.15 2.5 112.55 2.5 L137.35 2.5 Q137.75 2.5 138.05 2.8 L138.35 3.5 M105.45 10.2 L108.2 10.2 108.2 3.5 93.95 3.5 93.95 10.2 97.35 10.2 86.05 24.45 86.05 10.2 89.1 10.2 89.1 3.5 76.3 3.5 76.3 10.2 79.35 10.2 79.35 37.65 76.3 37.65 76.3 44.35 89.1 44.35 89.1 37.65 86.05 37.65 86.05 33.7 92.85 25.3 99.45 37.65 96.35 37.65 96.35 44.35 109.75 44.35 109.75 37.65 106.5 37.65 97.1 20.3 105.45 10.2 M122.3 10.2 L130.65 10.2 130.65 15.75 137.35 15.75 137.35 3.5 112.55 3.5 112.55 10.2 115.6 10.2 115.6 37.65 112.55 37.65 112.55 44.35 137.35 44.35 137.35 29.2 130.65 29.2 130.65 37.65 122.3 37.65 122.3 25.25 130.65 25.25 130.65 18.55 122.3 18.55 122.3 10.2 M108.9 10.9 L108.2 11.2 105.95 11.2 98.3 20.45 107.1 36.65 109.75 36.65 Q110.15 36.65 110.45 36.95 L110.75 37.65 110.75 44.35 110.45 45.05 109.75 45.35 96.35 45.35 Q95.95 45.35 95.65 45.05 95.35 44.75 95.35 44.35 L95.35 37.65 Q95.35 37.25 95.65 36.95 95.95 36.65 96.35 36.65 L97.8 36.65 92.7 27.1 87.05 34.05 87.05 36.65 89.1 36.65 Q89.5 36.65 89.8 36.95 L90.1 37.65 90.1 44.35 89.8 45.05 89.1 45.35 76.3 45.35 Q75.9 45.35 75.6 45.05 75.3 44.75 75.3 44.35 L75.3 37.65 Q75.3 37.25 75.6 36.95 75.9 36.65 76.3 36.65 L78.35 36.65 78.35 11.2 76.3 11.2 Q75.9 11.2 75.6 10.9 75.3 10.6 75.3 10.2 L75.3 3.5 Q75.3 3.1 75.6 2.8 75.9 2.5 76.3 2.5 L89.1 2.5 Q89.5 2.5 89.8 2.8 L90.1 3.5 90.1 10.2 89.8 10.9 89.1 11.2 87.05 11.2 87.05 21.6 95.3 11.2 93.95 11.2 Q93.55 11.2 93.25 10.9 92.95 10.6 92.95 10.2 L92.95 3.5 Q92.95 3.1 93.25 2.8 93.55 2.5 93.95 2.5 L108.2 2.5 Q108.6 2.5 108.9 2.8 L109.2 3.5 109.2 10.2 108.9 10.9 M35.7 12.55 L36.6 11.4 37.8 10.05 39.2 8.75 40.9 7.5 Q42.35 6.5 44.0 5.75 46.8 4.6 49.8 4.3 L51.6 4.2 53.5 4.3 Q56.45 4.5 59.2 5.7 61.0 6.45 62.6 7.5 L64.15 8.6 65.45 9.8 66.75 11.2 67.8 12.55 68.65 13.9 69.75 16.0 70.0 16.65 70.65 18.6 70.7 18.75 71.0 20.35 71.15 21.4 71.2 21.75 71.25 22.8 71.3 23.6 71.3 24.9 71.25 25.45 70.65 29.0 69.9 31.05 69.8 31.2 Q68.95 33.35 67.65 35.15 L66.95 36.1 65.65 37.45 64.35 38.65 Q62.15 40.6 59.45 41.75 56.75 42.9 53.75 43.25 L51.9 43.3 50.1 43.25 Q47.1 43.0 44.25 41.85 41.65 40.7 39.4 38.95 L38.0 37.7 36.8 36.4 35.85 35.15 33.75 31.5 33.6 31.05 32.95 29.25 32.85 29.0 32.3 25.75 32.3 25.65 32.25 24.9 32.2 24.1 32.2 23.9 32.2 22.8 32.25 22.2 32.25 22.05 Q32.35 20.4 32.8 18.75 L32.85 18.6 33.5 16.65 33.65 16.3 34.85 13.9 35.7 12.55 M68.25 16.65 Q67.6 15.2 66.75 13.9 L65.8 12.55 64.35 11.0 Q62.15 8.75 59.35 7.5 L58.6 7.15 Q55.25 5.7 51.6 5.75 47.95 5.8 44.65 7.25 L44.15 7.5 Q41.25 8.85 38.95 11.15 L37.7 12.55 36.7 13.9 Q35.85 15.2 35.2 16.65 L35.15 16.9 34.5 18.75 Q33.9 20.7 33.8 22.8 L33.8 23.9 33.85 24.9 Q33.95 27.0 34.55 29.0 L35.2 30.9 35.25 31.05 Q36.3 33.3 37.85 35.15 L39.15 36.6 Q41.7 39.0 44.85 40.4 48.2 41.75 51.85 41.7 55.55 41.7 58.9 40.3 62.15 38.85 64.55 36.35 L65.65 35.15 Q67.2 33.25 68.2 31.05 L68.4 30.65 68.95 29.0 69.7 24.9 69.75 23.65 69.7 22.8 Q69.55 20.7 69.0 18.75 L68.25 16.65 M26.5 6.65 L26.8 7.35 26.8 22.95 26.5 23.65 22.35 27.75 21.65 28.05 11.75 28.05 11.75 36.65 13.8 36.65 Q14.2 36.65 14.5 36.95 L14.8 37.65 14.8 44.35 14.5 45.05 Q14.2 45.35 13.8 45.35 L1.0 45.35 Q0.6 45.35 0.3 45.05 0.0 44.75 0.0 44.35 L0.0 37.65 Q0.0 37.25 0.3 36.95 0.6 36.65 1.0 36.65 L3.05 36.65 3.05 11.2 1.0 11.2 Q0.6 11.2 0.3 10.9 0.0 10.6 0.0 10.2 L0.0 3.5 Q0.0 3.1 0.3 2.8 0.6 2.5 1.0 2.5 L21.95 2.5 Q22.35 2.5 22.65 2.8 L26.5 6.65 M25.8 7.35 L21.95 3.5 1.0 3.5 1.0 10.2 4.05 10.2 4.05 37.65 1.0 37.65 1.0 44.35 13.8 44.35 13.8 37.65 10.75 37.65 10.75 27.05 21.65 27.05 25.8 22.95 25.8 7.35 M11.75 11.2 L11.75 19.45 18.1 19.45 18.1 11.2 11.75 11.2 M10.75 10.2 L19.1 10.2 19.1 20.45 10.75 20.45 10.75 10.2" fill="#000000" fill-rule="evenodd" stroke="none"/>
    <path d="M451.2 10.2 L442.85 10.2 442.85 21.35 451.2 21.35 451.2 10.2 M457.9 6.85 L457.9 24.4 454.4 28.05 452.2 28.05 457.1 37.65 459.9 37.65 459.9 44.35 453.15 44.35 445.15 28.05 442.85 28.05 442.85 37.65 445.9 37.65 445.9 44.35 433.1 44.35 433.1 37.65 436.15 37.65 436.15 10.2 433.1 10.2 433.1 3.5 454.4 3.5 457.9 6.85 M417.8 3.5 L426.95 37.65 430.3 37.65 430.3 44.35 417.15 44.35 417.15 37.65 420.45 37.65 419.7 34.95 409.8 34.95 409.05 37.65 412.6 37.65 412.6 44.35 399.8 44.35 399.8 37.65 402.6 37.65 411.75 3.5 417.8 3.5 M418.0 28.35 L414.85 16.0 411.5 28.35 418.0 28.35 M397.0 15.75 L390.3 15.75 390.3 10.2 381.95 10.2 381.95 18.55 390.3 18.55 390.3 25.25 381.95 25.25 381.95 37.65 390.3 37.65 390.3 29.2 397.0 29.2 397.0 44.35 372.2 44.35 372.2 37.65 375.25 37.65 375.25 10.2 372.2 10.2 372.2 3.5 397.0 3.5 397.0 15.75 M367.4 24.4 L363.9 28.05 361.7 28.05 366.6 37.65 369.4 37.65 369.4 44.35 362.65 44.35 354.65 28.05 352.35 28.05 352.35 37.65 355.4 37.65 355.4 44.35 342.6 44.35 342.6 37.65 345.65 37.65 345.65 10.2 342.6 10.2 342.6 3.5 363.9 3.5 367.4 6.85 367.4 24.4 M352.35 21.35 L360.7 21.35 360.7 10.2 352.35 10.2 352.35 21.35 M327.5 15.75 L320.8 15.75 320.8 10.2 312.45 10.2 312.45 18.55 320.8 18.55 320.8 25.25 312.45 25.25 312.45 37.65 320.8 37.65 320.8 29.2 327.5 29.2 327.5 44.35 302.7 44.35 302.7 37.65 305.75 37.65 305.75 10.2 302.7 10.2 302.7 3.5 327.5 3.5 327.5 15.75 M299.9 10.2 L296.85 10.2 296.85 37.65 299.9 37.65 299.9 44.35 287.1 44.35 287.1 37.65 290.15 37.65 290.15 26.6 281.8 26.6 281.8 37.65 284.85 37.65 284.85 44.35 272.05 44.35 272.05 37.65 275.1 37.65 275.1 10.2 272.05 10.2 272.05 3.5 284.85 3.5 284.85 10.2 281.8 10.2 281.8 20.15 290.15 20.15 290.15 10.2 287.1 10.2 287.1 3.5 299.9 3.5 299.9 10.2 M269.25 18.1 L262.8 18.1 262.8 10.2 258.65 10.2 258.65 37.65 261.7 37.65 261.7 44.35 248.95 44.35 248.95 37.65 252.0 37.65 252.0 10.2 247.85 10.2 247.85 18.1 241.4 18.1 241.4 3.5 269.25 3.5 269.25 18.1 M223.25 10.2 L223.25 44.35 217.1 44.35 207.4 21.5 207.4 37.65 210.45 37.65 210.45 44.35 197.65 44.35 197.65 37.65 200.7 37.65 200.7 10.2 197.65 10.2 197.65 3.5 206.75 3.5 216.55 27.1 216.55 10.2 213.5 10.2 213.5 3.5 226.3 3.5 226.3 10.2 223.25 10.2 M194.85 10.2 L191.8 10.2 191.8 37.65 194.85 37.65 194.85 44.35 182.05 44.35 182.05 37.65 185.1 37.65 185.1 10.2 182.05 10.2 182.05 3.5 194.85 3.5 194.85 10.2 M164.95 24.4 L161.45 28.05 159.25 28.05 164.15 37.65 166.95 37.65 166.95 44.35 160.2 44.35 152.2 28.05 149.9 28.05 149.9 37.65 152.95 37.65 152.95 44.35 140.15 44.35 140.15 37.65 143.2 37.65 143.2 10.2 140.15 10.2 140.15 3.5 161.45 3.5 164.95 6.85 164.95 24.4 M149.9 21.35 L158.25 21.35 158.25 10.2 149.9 10.2 149.9 21.35 M122.3 10.2 L122.3 18.55 130.65 18.55 130.65 25.25 122.3 25.25 122.3 37.65 130.65 37.65 130.65 29.2 137.35 29.2 137.35 44.35 112.55 44.35 112.55 37.65 115.6 37.65 115.6 10.2 112.55 10.2 112.55 3.5 137.35 3.5 137.35 15.75 130.65 15.75 130.65 10.2 122.3 10.2 M105.45 10.2 L97.1 20.3 106.5 37.65 109.75 37.65 109.75 44.35 96.35 44.35 96.35 37.65 99.45 37.65 92.85 25.3 86.05 33.7 86.05 37.65 89.1 37.65 89.1 44.35 76.3 44.35 76.3 37.65 79.35 37.65 79.35 10.2 76.3 10.2 76.3 3.5 89.1 3.5 89.1 10.2 86.05 10.2 86.05 24.45 97.35 10.2 93.95 10.2 93.95 3.5 108.2 3.5 108.2 10.2 105.45 10.2 M67.0 18.05 L65.95 17.0 59.25 17.0 59.25 19.1 60.2 19.1 60.2 27.75 59.25 27.75 59.25 29.85 63.25 29.85 63.25 27.75 62.3 27.75 62.3 24.7 63.05 24.7 65.55 29.85 67.65 29.85 67.65 27.75 66.8 27.75 65.25 24.7 65.95 24.7 67.0 23.6 67.0 18.05 M68.25 16.65 L69.0 18.75 Q69.55 20.7 69.7 22.8 L69.75 23.65 69.7 24.9 68.95 29.0 68.4 30.65 68.2 31.05 Q67.2 33.25 65.65 35.15 L64.55 36.35 Q62.15 38.85 58.9 40.3 55.55 41.7 51.85 41.7 48.2 41.75 44.85 40.4 41.7 39.0 39.15 36.6 L37.85 35.15 Q36.3 33.3 35.25 31.05 L35.2 30.9 34.55 29.0 Q33.95 27.0 33.85 24.9 L33.8 23.9 33.8 22.8 Q33.9 20.7 34.5 18.75 L35.15 16.9 35.2 16.65 Q35.85 15.2 36.7 13.9 L37.7 12.55 38.95 11.15 Q41.25 8.85 44.15 7.5 L44.65 7.25 Q47.95 5.8 51.6 5.75 55.25 5.7 58.6 7.15 L59.35 7.5 Q62.15 8.75 64.35 11.0 L65.8 12.55 66.75 13.9 Q67.6 15.2 68.25 16.65 M64.95 22.65 L62.3 22.65 62.3 19.1 64.95 19.1 64.95 22.65 M49.7 17.0 L49.7 21.6 51.7 21.6 51.7 19.1 53.0 19.1 53.0 27.75 52.05 27.75 52.05 29.85 56.05 29.85 56.05 27.75 55.1 27.75 55.1 19.1 56.4 19.1 56.4 21.6 58.4 21.6 58.4 17.0 49.7 17.0 M47.9 19.1 L48.9 19.1 48.9 17.0 44.85 17.0 44.85 19.1 45.8 19.1 45.8 27.75 44.85 27.75 44.85 29.85 48.9 29.85 48.9 27.75 47.9 27.75 47.9 19.1 M41.95 19.1 L41.95 22.35 39.3 22.35 39.3 19.1 41.95 19.1 M44.05 18.2 L42.85 17.0 36.25 17.0 36.25 19.1 37.2 19.1 37.2 27.75 36.25 27.75 36.25 29.85 40.3 29.85 40.3 27.75 39.3 27.75 39.3 24.4 42.75 24.4 44.05 23.15 44.05 18.2 M25.8 7.35 L25.8 22.95 21.65 27.05 10.75 27.05 10.75 37.65 13.8 37.65 13.8 44.35 1.0 44.35 1.0 37.65 4.05 37.65 4.05 10.2 1.0 10.2 1.0 3.5 21.95 3.5 25.8 7.35 M10.75 10.2 L10.75 20.45 19.1 20.45 19.1 10.2 10.75 10.2" fill="#ffffff" fill-rule="evenodd" stroke="none"/>
    <path d="M30.8 12.55 Q31.95 10.35 33.6 8.45 L34.45 7.5 36.15 5.8 Q39.0 3.4 42.4 1.9 45.95 0.5 49.75 0.1 L51.55 0.0 53.45 0.1 Q57.25 0.4 60.8 1.8 64.2 3.25 67.1 5.65 L69.0 7.5 69.65 8.2 Q71.45 10.2 72.7 12.55 L67.8 12.55 66.75 11.2 65.45 9.8 64.15 8.6 62.6 7.5 Q61.0 6.45 59.2 5.7 56.45 4.5 53.5 4.3 L51.6 4.2 49.8 4.3 Q46.8 4.6 44.0 5.75 42.35 6.5 40.9 7.5 L39.2 8.75 37.8 10.05 36.6 11.4 35.7 12.55 30.8 12.55 M74.45 16.65 L75.0 18.75 70.7 18.75 70.65 18.6 70.0 16.65 74.45 16.65 M75.5 22.8 L75.5 23.6 75.5 24.9 71.3 24.9 71.3 23.6 71.25 22.8 75.5 22.8 M74.95 29.0 L74.35 31.05 69.9 31.05 70.65 29.0 74.95 29.0 M72.6 35.15 Q71.45 37.2 69.9 39.05 L67.4 41.65 Q64.55 44.15 61.15 45.55 57.65 47.05 53.85 47.35 L51.95 47.5 50.15 47.4 Q46.35 47.2 42.8 45.75 39.3 44.4 36.45 41.9 35.0 40.8 33.8 39.35 32.1 37.4 30.9 35.15 L35.85 35.15 36.8 36.4 38.0 37.7 39.4 38.95 Q41.65 40.7 44.25 41.85 47.1 43.0 50.1 43.25 L51.9 43.3 53.75 43.25 Q56.75 42.9 59.45 41.75 62.15 40.6 64.35 38.65 L65.65 37.45 66.95 36.1 67.65 35.15 72.6 35.15 M29.1 31.05 L28.55 29.0 32.85 29.0 32.95 29.25 33.6 31.05 29.1 31.05 M28.05 25.15 L28.0 23.95 28.0 22.8 32.2 22.8 32.2 23.9 32.2 24.1 32.25 24.9 28.05 24.9 28.05 25.15 M28.5 18.75 L29.05 16.65 33.5 16.65 32.85 18.6 32.8 18.75 28.5 18.75" fill="#e81a1a" fill-rule="evenodd" stroke="none"/>
    <path d="M30.8 12.55 L35.7 12.55 34.85 13.9 33.65 16.3 33.5 16.65 29.05 16.65 29.75 14.75 30.15 13.9 30.8 12.55 M67.8 12.55 L72.7 12.55 73.35 13.9 73.6 14.4 74.45 16.65 70.0 16.65 69.75 16.0 68.65 13.9 67.8 12.55 M75.0 18.75 L75.4 21.6 75.4 21.7 75.45 21.85 75.45 22.05 75.5 22.8 71.25 22.8 71.2 21.75 71.15 21.4 71.0 20.35 70.7 18.75 75.0 18.75 M75.5 24.9 L75.45 25.4 75.45 25.55 74.95 29.0 70.65 29.0 71.25 25.45 71.3 24.9 75.5 24.9 M74.35 31.05 L73.75 32.75 72.6 35.15 67.65 35.15 Q68.95 33.35 69.8 31.2 L69.9 31.05 74.35 31.05 M30.9 35.15 L29.9 33.15 29.1 31.05 33.6 31.05 33.75 31.5 35.85 35.15 30.9 35.15 M28.55 29.0 L28.1 25.75 28.05 25.15 28.05 24.9 32.25 24.9 32.3 25.65 32.3 25.75 32.85 29.0 28.55 29.0 M28.0 22.8 L28.05 22.1 28.05 21.9 28.05 21.75 28.1 21.55 28.1 21.45 28.5 18.75 32.8 18.75 Q32.35 20.4 32.25 22.05 L32.25 22.2 32.2 22.8 28.0 22.8" fill="#ffff00" fill-rule="evenodd" stroke="none"/>
    <path d="M67.0 18.05 L67.0 23.6 65.95 24.7 65.25 24.7 66.8 27.75 67.65 27.75 67.65 29.85 65.55 29.85 63.05 24.7 62.3 24.7 62.3 27.75 63.25 27.75 63.25 29.85 59.25 29.85 59.25 27.75 60.2 27.75 60.2 19.1 59.25 19.1 59.25 17.0 65.95 17.0 67.0 18.05 M64.95 22.65 L64.95 19.1 62.3 19.1 62.3 22.65 64.95 22.65 M44.05 18.2 L44.05 23.15 42.75 24.4 39.3 24.4 39.3 27.75 40.3 27.75 40.3 29.85 36.25 29.85 36.25 27.75 37.2 27.75 37.2 19.1 36.25 19.1 36.25 17.0 42.85 17.0 44.05 18.2 M41.95 19.1 L39.3 19.1 39.3 22.35 41.95 22.35 41.95 19.1 M47.9 19.1 L47.9 27.75 48.9 27.75 48.9 29.85 44.85 29.85 44.85 27.75 45.8 27.75 45.8 19.1 44.85 19.1 44.85 17.0 48.9 17.0 48.9 19.1 47.9 19.1 M49.7 17.0 L58.4 17.0 58.4 21.6 56.4 21.6 56.4 19.1 55.1 19.1 55.1 27.75 56.05 27.75 56.05 29.85 52.05 29.85 52.05 27.75 53.0 27.75 53.0 19.1 51.7 19.1 51.7 21.6 49.7 21.6 49.7 17.0" fill="#b3b300" fill-rule="evenodd" stroke="none"/>
  </g>
</svg>
