<?xml version="1.0" encoding="UTF-8" standalone="no"?>
<svg xmlns:ffdec="https://www.free-decompiler.com/flash" xmlns:xlink="http://www.w3.org/1999/xlink" ffdec:objectType="shape" height="44.7px" width="279.05px" xmlns="http://www.w3.org/2000/svg">
  <g transform="matrix(1.0, 0.0, 0.0, 1.0, -114.15, -150.75)">
    <path d="M355.4 152.15 Q355.7 151.85 356.1 151.85 L381.55 151.85 Q381.95 151.85 382.25 152.15 L382.55 152.85 382.55 166.2 382.25 166.9 Q381.95 167.2 381.55 167.2 L375.65 167.2 Q375.25 167.2 374.95 166.9 374.65 166.6 374.65 166.2 L374.65 159.95 372.85 159.95 372.85 183.1 374.65 183.1 Q375.05 183.1 375.35 183.4 L375.65 184.1 375.65 190.2 375.35 190.9 374.65 191.2 362.95 191.2 Q362.55 191.2 362.25 190.9 361.95 190.6 361.95 190.2 L361.95 184.1 Q361.95 183.7 362.25 183.4 362.55 183.1 362.95 183.1 L364.75 183.1 364.75 159.95 363.0 159.95 363.0 166.2 362.7 166.9 362.0 167.2 356.1 167.2 355.4 166.9 Q355.1 166.6 355.1 166.2 L355.1 152.85 Q355.1 152.45 355.4 152.15 M354.5 158.95 L354.2 159.65 353.5 159.95 351.7 159.95 351.7 183.1 353.5 183.1 Q353.9 183.1 354.2 183.4 L354.5 184.1 354.5 190.2 354.2 190.9 353.5 191.2 341.8 191.2 Q341.4 191.2 341.1 190.9 340.8 190.6 340.8 190.2 L340.8 184.1 Q340.8 183.7 341.1 183.4 341.4 183.1 341.8 183.1 L343.55 183.1 343.55 159.95 341.8 159.95 Q341.4 159.95 341.1 159.65 340.8 159.35 340.8 158.95 L340.8 152.85 Q340.8 152.45 341.1 152.15 341.4 151.85 341.8 151.85 L353.5 151.85 Q353.9 151.85 354.2 152.15 L354.5 152.85 354.5 158.95 M356.1 166.2 L362.0 166.2 362.0 158.95 365.75 158.95 365.75 184.1 362.95 184.1 362.95 190.2 374.65 190.2 374.65 184.1 371.85 184.1 371.85 158.95 375.65 158.95 375.65 166.2 381.55 166.2 381.55 152.85 356.1 152.85 356.1 166.2 M353.5 158.95 L353.5 152.85 341.8 152.85 341.8 158.95 344.55 158.95 344.55 184.1 341.8 184.1 341.8 190.2 353.5 190.2 353.5 184.1 350.7 184.1 350.7 158.95 353.5 158.95 M336.7 152.15 L339.9 155.15 340.15 155.45 340.2 155.85 340.2 186.75 340.15 187.15 339.9 187.5 336.3 190.95 335.6 191.2 316.55 191.2 Q316.15 191.2 315.85 190.9 315.55 190.6 315.55 190.2 L315.55 184.1 Q315.55 183.7 315.85 183.4 316.15 183.1 316.55 183.1 L318.3 183.1 318.3 159.95 316.55 159.95 Q316.15 159.95 315.85 159.65 315.55 159.35 315.55 158.95 L315.55 152.85 Q315.55 152.45 315.85 152.15 316.15 151.85 316.55 151.85 L336.0 151.85 Q336.4 151.85 336.7 152.15 M325.45 158.95 L333.1 158.95 333.1 184.1 325.45 184.1 325.45 158.95 M339.2 155.85 L336.0 152.85 316.55 152.85 316.55 158.95 319.3 158.95 319.3 184.1 316.55 184.1 316.55 190.2 335.6 190.2 339.2 186.75 339.2 155.85 M326.45 159.95 L326.45 183.1 332.1 183.1 332.1 159.95 326.45 159.95 M392.2 152.85 L384.75 152.85 386.5 181.7 390.45 181.7 392.2 152.85 M392.2 151.85 L392.75 152.0 393.1 152.4 393.2 152.9 391.45 181.75 391.15 182.45 390.45 182.7 386.5 182.7 385.85 182.45 385.5 181.75 383.75 152.9 Q383.75 152.6 383.9 152.4 L384.25 152.0 Q384.45 151.85 384.75 151.85 L392.2 151.85 M384.45 184.1 Q384.45 183.7 384.75 183.4 385.05 183.1 385.45 183.1 L391.55 183.1 Q391.95 183.1 392.25 183.4 L392.55 184.1 392.55 190.2 392.25 190.9 391.55 191.2 385.45 191.2 Q385.05 191.2 384.75 190.9 384.45 190.6 384.45 190.2 L384.45 184.1 M391.55 184.1 L385.45 184.1 385.45 190.2 391.55 190.2 391.55 184.1 M192.7 159.95 L192.7 183.1 198.35 183.1 198.35 159.95 192.7 159.95 M202.3 152.15 L206.2 156.15 206.45 156.85 206.45 186.15 206.15 186.85 202.15 190.9 201.45 191.2 189.35 191.2 188.95 191.15 188.65 190.9 184.9 186.85 Q184.6 186.55 184.6 186.15 L184.6 156.85 Q184.6 156.45 184.9 156.15 L188.85 152.15 Q189.15 151.85 189.55 151.85 L201.55 151.85 Q202.0 151.85 202.3 152.15 M184.0 156.85 L184.0 186.15 183.7 186.85 179.7 190.9 179.0 191.2 166.9 191.2 166.5 191.15 166.2 190.9 162.45 186.85 Q162.15 186.55 162.15 186.15 L162.15 156.85 Q162.15 156.45 162.45 156.15 L166.4 152.15 Q166.7 151.85 167.1 151.85 L179.1 151.85 Q179.55 151.85 179.85 152.15 L183.75 156.15 184.0 156.85 M167.1 152.85 L163.15 156.85 163.15 186.15 166.9 190.2 179.0 190.2 183.0 186.15 183.0 156.85 179.1 152.85 167.1 152.85 M191.7 158.95 L199.35 158.95 199.35 184.1 191.7 184.1 191.7 158.95 M189.55 152.85 L185.6 156.85 185.6 186.15 189.35 190.2 201.45 190.2 205.45 186.15 205.45 156.85 201.55 152.85 189.55 152.85 M170.25 159.95 L170.25 183.1 175.9 183.1 175.9 159.95 170.25 159.95 M227.9 156.85 L224.0 152.85 212.0 152.85 208.05 156.85 208.05 186.15 211.8 190.2 223.9 190.2 227.9 186.15 227.9 156.85 M169.25 158.95 L176.9 158.95 176.9 184.1 169.25 184.1 169.25 158.95 M241.05 156.0 L244.85 152.15 Q245.15 151.85 245.55 151.85 L258.0 151.85 Q258.4 151.85 258.7 152.15 L262.3 155.8 262.6 156.5 262.6 164.2 262.3 164.9 Q262.0 165.2 261.6 165.2 L255.5 165.2 Q255.1 165.2 254.8 164.9 254.5 164.6 254.5 164.2 L254.5 159.95 248.85 159.95 248.85 183.1 254.5 183.1 254.5 178.75 Q254.5 178.35 254.8 178.05 255.1 177.75 255.5 177.75 L261.6 177.75 Q262.0 177.75 262.3 178.05 L262.6 178.75 262.6 186.9 262.35 187.6 259.15 190.9 Q258.8 191.2 258.4 191.2 L245.55 191.2 244.85 190.95 241.05 187.25 Q240.75 186.9 240.75 186.5 L240.75 156.7 Q240.75 156.3 241.05 156.0 M224.75 152.15 L228.65 156.15 228.9 156.85 228.9 186.15 228.6 186.85 224.6 190.9 223.9 191.2 211.8 191.2 211.4 191.15 211.1 190.9 207.35 186.85 Q207.05 186.55 207.05 186.15 L207.05 156.85 Q207.05 156.45 207.35 156.15 L211.3 152.15 Q211.6 151.85 212.0 151.85 L224.0 151.85 Q224.45 151.85 224.75 152.15 M215.15 159.95 L215.15 183.1 220.8 183.1 220.8 159.95 215.15 159.95 M241.75 156.7 L241.75 186.5 245.55 190.2 258.4 190.2 261.6 186.9 261.6 178.75 255.5 178.75 255.5 184.1 247.85 184.1 247.85 158.95 255.5 158.95 255.5 164.2 261.6 164.2 261.6 156.5 258.0 152.85 245.55 152.85 241.75 156.7 M214.15 158.95 L221.8 158.95 221.8 184.1 214.15 184.1 214.15 158.95 M274.1 159.95 L274.1 168.2 279.75 168.2 279.75 159.95 274.1 159.95 M264.2 152.85 L264.2 158.95 266.95 158.95 266.95 184.1 264.2 184.1 264.2 190.2 275.9 190.2 275.9 184.1 273.1 184.1 273.1 175.3 275.2 175.3 282.5 190.2 288.7 190.2 288.7 184.1 286.1 184.1 281.65 175.3 283.65 175.3 286.85 171.95 286.85 155.9 283.65 152.85 264.2 152.85 M264.2 159.95 Q263.8 159.95 263.5 159.65 263.2 159.35 263.2 158.95 L263.2 152.85 Q263.2 152.45 263.5 152.15 263.8 151.85 264.2 151.85 L283.65 151.85 Q284.05 151.85 284.35 152.15 L287.55 155.2 287.8 155.5 287.85 155.9 287.85 171.95 287.6 172.65 284.4 176.0 284.05 176.25 283.65 176.3 283.3 176.3 286.75 183.1 288.7 183.1 Q289.1 183.1 289.4 183.4 L289.7 184.1 289.7 190.2 289.4 190.9 288.7 191.2 282.5 191.2 282.0 191.05 281.6 190.65 274.6 176.3 274.1 176.3 274.1 183.1 275.9 183.1 Q276.3 183.1 276.6 183.4 L276.9 184.1 276.9 190.2 276.6 190.9 275.9 191.2 264.2 191.2 Q263.8 191.2 263.5 190.9 263.2 190.6 263.2 190.2 L263.2 184.1 Q263.2 183.7 263.5 183.4 263.8 183.1 264.2 183.1 L265.95 183.1 265.95 159.95 264.2 159.95 M273.1 169.2 L273.1 158.95 280.75 158.95 280.75 169.2 273.1 169.2 M314.95 152.85 L314.95 164.05 314.65 164.75 313.95 165.05 307.85 165.05 Q307.45 165.05 307.15 164.75 306.85 164.45 306.85 164.05 L306.85 159.95 301.2 159.95 301.2 165.6 307.85 165.6 308.55 165.9 308.85 166.6 308.85 172.75 308.55 173.45 307.85 173.75 301.2 173.75 301.2 183.1 306.85 183.1 306.85 176.35 Q306.85 175.95 307.15 175.65 307.45 175.35 307.85 175.35 L313.95 175.35 Q314.35 175.35 314.65 175.65 L314.95 176.35 314.95 190.2 314.65 190.9 313.95 191.2 291.3 191.2 290.6 190.9 Q290.3 190.6 290.3 190.2 L290.3 184.1 Q290.3 183.7 290.6 183.4 290.9 183.1 291.3 183.1 L293.05 183.1 293.05 159.95 291.3 159.95 290.6 159.65 Q290.3 159.35 290.3 158.95 L290.3 152.85 Q290.3 152.45 290.6 152.15 290.9 151.85 291.3 151.85 L313.95 151.85 Q314.35 151.85 314.65 152.15 L314.95 152.85 M118.45 154.15 L115.15 157.6 115.15 170.4 118.55 174.0 128.9 174.0 128.9 182.95 121.3 182.95 121.3 178.25 115.15 178.25 115.15 185.0 119.1 188.95 121.8 188.95 121.8 193.85 128.05 193.85 128.05 188.95 130.55 188.95 135.0 184.3 135.0 171.5 131.5 167.95 121.3 167.95 121.3 160.4 128.9 160.4 128.9 164.75 135.0 164.75 135.0 157.6 131.65 154.15 128.05 154.15 128.05 151.75 121.8 151.75 121.8 154.15 118.45 154.15 M307.85 172.75 L307.85 166.6 300.2 166.6 300.2 158.95 307.85 158.95 307.85 164.05 313.95 164.05 313.95 152.85 291.3 152.85 291.3 158.95 294.05 158.95 294.05 184.1 291.3 184.1 291.3 190.2 313.95 190.2 313.95 176.35 307.85 176.35 307.85 184.1 300.2 184.1 300.2 172.75 307.85 172.75 M114.45 156.9 L117.75 153.45 Q117.85 153.3 118.05 153.25 L118.45 153.15 120.8 153.15 120.8 151.75 Q120.8 151.35 121.1 151.05 121.4 150.75 121.8 150.75 L128.05 150.75 Q128.45 150.75 128.75 151.05 L129.05 151.75 129.05 153.15 131.65 153.15 Q132.05 153.15 132.4 153.45 L135.75 156.9 136.0 157.6 136.0 164.75 135.7 165.45 Q135.4 165.75 135.0 165.75 L128.9 165.75 Q128.5 165.75 128.2 165.45 127.9 165.15 127.9 164.75 L127.9 161.4 122.3 161.4 122.3 166.95 131.5 166.95 Q131.9 166.95 132.2 167.25 L135.7 170.8 136.0 171.5 136.0 184.3 135.75 185.0 131.3 189.65 130.95 189.9 130.55 189.95 129.05 189.95 129.05 193.85 128.75 194.55 128.05 194.85 121.8 194.85 121.1 194.55 Q120.8 194.25 120.8 193.85 L120.8 189.95 119.1 189.95 118.4 189.65 114.45 185.7 Q114.15 185.4 114.15 185.0 L114.15 178.25 Q114.15 177.85 114.45 177.55 114.75 177.25 115.15 177.25 L121.3 177.25 Q121.7 177.25 122.0 177.55 L122.3 178.25 122.3 181.95 127.9 181.95 127.9 175.0 118.55 175.0 118.15 174.95 117.85 174.7 114.45 171.1 Q114.15 170.8 114.15 170.4 L114.15 157.6 Q114.15 157.2 114.45 156.9 M146.5 152.85 L142.85 152.85 Q141.95 155.1 140.75 156.5 139.65 157.7 137.6 158.95 L137.6 162.2 140.35 162.2 140.35 184.1 137.6 184.1 137.6 190.2 149.3 190.2 149.3 184.1 146.5 184.1 146.5 152.85 M146.5 151.85 Q146.9 151.85 147.2 152.15 L147.5 152.85 147.5 183.1 149.3 183.1 150.0 183.4 150.3 184.1 150.3 190.2 150.0 190.9 149.3 191.2 137.6 191.2 136.9 190.9 Q136.6 190.6 136.6 190.2 L136.6 184.1 Q136.6 183.7 136.9 183.4 137.2 183.1 137.6 183.1 L139.35 183.1 139.35 163.2 137.6 163.2 136.9 162.9 Q136.6 162.6 136.6 162.2 L136.6 158.95 Q136.6 158.7 136.75 158.45 L137.1 158.1 Q138.95 156.95 140.0 155.85 L140.05 155.85 Q141.1 154.55 141.95 152.5 142.05 152.2 142.3 152.05 L142.85 151.85 146.5 151.85 M159.3 184.1 L153.2 184.1 153.2 190.2 156.25 190.2 Q156.25 191.65 155.55 193.25 L156.7 194.45 Q159.3 192.85 159.3 188.7 L159.3 184.1 M159.3 183.1 Q159.7 183.1 160.0 183.4 L160.3 184.1 160.3 188.7 Q160.3 193.5 157.25 195.3 L156.6 195.45 Q156.2 195.4 156.0 195.15 L154.85 193.95 154.6 193.45 Q154.5 193.15 154.65 192.85 L155.15 191.2 153.2 191.2 Q152.8 191.2 152.5 190.9 152.2 190.6 152.2 190.2 L152.2 184.1 Q152.2 183.7 152.5 183.4 152.8 183.1 153.2 183.1 L159.3 183.1" fill="#ff0000" fill-rule="evenodd" stroke="none"/>
    <path d="M353.5 158.95 L350.7 158.95 350.7 184.1 353.5 184.1 353.5 190.2 341.8 190.2 341.8 184.1 344.55 184.1 344.55 158.95 341.8 158.95 341.8 152.85 353.5 152.85 353.5 158.95 M356.1 166.2 L356.1 152.85 381.55 152.85 381.55 166.2 375.65 166.2 375.65 158.95 371.85 158.95 371.85 184.1 374.65 184.1 374.65 190.2 362.95 190.2 362.95 184.1 365.75 184.1 365.75 158.95 362.0 158.95 362.0 166.2 356.1 166.2 M339.2 155.85 L339.2 186.75 335.6 190.2 316.55 190.2 316.55 184.1 319.3 184.1 319.3 158.95 316.55 158.95 316.55 152.85 336.0 152.85 339.2 155.85 M325.45 158.95 L325.45 184.1 333.1 184.1 333.1 158.95 325.45 158.95 M392.2 152.85 L390.45 181.7 386.5 181.7 384.75 152.85 392.2 152.85 M391.55 184.1 L391.55 190.2 385.45 190.2 385.45 184.1 391.55 184.1 M189.55 152.85 L201.55 152.85 205.45 156.85 205.45 186.15 201.45 190.2 189.35 190.2 185.6 186.15 185.6 156.85 189.55 152.85 M191.7 158.95 L191.7 184.1 199.35 184.1 199.35 158.95 191.7 158.95 M167.1 152.85 L179.1 152.85 183.0 156.85 183.0 186.15 179.0 190.2 166.9 190.2 163.15 186.15 163.15 156.85 167.1 152.85 M169.25 158.95 L169.25 184.1 176.9 184.1 176.9 158.95 169.25 158.95 M227.9 156.85 L227.9 186.15 223.9 190.2 211.8 190.2 208.05 186.15 208.05 156.85 212.0 152.85 224.0 152.85 227.9 156.85 M214.15 158.95 L214.15 184.1 221.8 184.1 221.8 158.95 214.15 158.95 M241.75 156.7 L245.55 152.85 258.0 152.85 261.6 156.5 261.6 164.2 255.5 164.2 255.5 158.95 247.85 158.95 247.85 184.1 255.5 184.1 255.5 178.75 261.6 178.75 261.6 186.9 258.4 190.2 245.55 190.2 241.75 186.5 241.75 156.7 M264.2 152.85 L283.65 152.85 286.85 155.9 286.85 171.95 283.65 175.3 281.65 175.3 286.1 184.1 288.7 184.1 288.7 190.2 282.5 190.2 275.2 175.3 273.1 175.3 273.1 184.1 275.9 184.1 275.9 190.2 264.2 190.2 264.2 184.1 266.95 184.1 266.95 158.95 264.2 158.95 264.2 152.85 M273.1 169.2 L280.75 169.2 280.75 158.95 273.1 158.95 273.1 169.2 M307.85 172.75 L300.2 172.75 300.2 184.1 307.85 184.1 307.85 176.35 313.95 176.35 313.95 190.2 291.3 190.2 291.3 184.1 294.05 184.1 294.05 158.95 291.3 158.95 291.3 152.85 313.95 152.85 313.95 164.05 307.85 164.05 307.85 158.95 300.2 158.95 300.2 166.6 307.85 166.6 307.85 172.75 M118.45 154.15 L121.8 154.15 121.8 151.75 128.05 151.75 128.05 154.15 131.65 154.15 135.0 157.6 135.0 164.75 128.9 164.75 128.9 160.4 121.3 160.4 121.3 167.95 131.5 167.95 135.0 171.5 135.0 184.3 130.55 188.95 128.05 188.95 128.05 193.85 121.8 193.85 121.8 188.95 119.1 188.95 115.15 185.0 115.15 178.25 121.3 178.25 121.3 182.95 128.9 182.95 128.9 174.0 118.55 174.0 115.15 170.4 115.15 157.6 118.45 154.15 M146.5 152.85 L146.5 184.1 149.3 184.1 149.3 190.2 137.6 190.2 137.6 184.1 140.35 184.1 140.35 162.2 137.6 162.2 137.6 158.95 Q139.65 157.7 140.75 156.5 141.95 155.1 142.85 152.85 L146.5 152.85 M159.3 184.1 L159.3 188.7 Q159.3 192.85 156.7 194.45 L155.55 193.25 Q156.25 191.65 156.25 190.2 L153.2 190.2 153.2 184.1 159.3 184.1" fill="#ffff00" fill-rule="evenodd" stroke="none"/>
  </g>
</svg>
