<?xml version="1.0" encoding="UTF-8" standalone="no"?>
<svg xmlns:ffdec="https://www.free-decompiler.com/flash" xmlns:xlink="http://www.w3.org/1999/xlink" ffdec:objectType="shape" height="2.0px" width="220.0px" xmlns="http://www.w3.org/2000/svg">
  <g transform="matrix(1.0, 0.0, 0.0, 1.0, 0.0, 1.0)">
    <path d="M8.25 -0.25 L9.85 -0.2 11.5 -0.25 12.6 -0.3 9.35 -0.35 6.6 -0.5 Q5.5 -0.65 8.25 -0.65 L11.5 -0.55 12.05 -0.55 13.15 -0.65 16.45 -0.6 19.2 -0.65 21.9 -0.65 Q21.4 -0.7 21.9 -0.7 L22.45 -0.8 24.65 -0.85 27.4 -0.75 29.05 -0.85 32.35 -0.8 35.05 -0.8 37.25 -0.9 39.45 -0.85 40.55 -0.85 43.3 -0.8 44.95 -0.85 46.55 -0.85 49.3 -0.85 51.5 -0.8 54.25 -0.8 57.55 -0.8 59.15 -0.85 60.8 -0.85 61.9 -0.8 65.75 -0.9 70.15 -0.85 73.95 -0.9 77.25 -0.8 80.55 -0.9 83.25 -0.9 84.9 -0.8 87.1 -0.8 92.05 -0.9 95.3 -0.85 98.05 -0.8 99.7 -0.95 104.65 -0.95 106.8 -0.85 109.55 -0.85 112.3 -0.85 114.5 -0.9 114.5 -0.85 118.9 -0.8 122.7 -0.85 126.55 -0.85 129.3 -0.85 131.45 -0.9 133.65 -0.9 136.4 -0.9 137.5 -0.9 139.15 -0.9 139.7 -0.85 141.9 -0.85 143.5 -0.95 145.7 -0.9 149.0 -0.9 153.95 -0.9 156.1 -0.85 158.3 -0.85 160.5 -0.95 165.45 -0.95 168.7 -0.9 172.0 -0.95 175.85 -0.95 177.5 -0.9 178.6 -0.95 181.85 -0.95 185.15 -0.85 186.8 -0.95 189.55 -1.0 191.75 -0.95 192.25 -0.85 194.45 -0.95 197.2 -0.95 199.4 -0.85 199.4 -0.7 201.6 -0.7 203.8 -0.65 205.4 -0.5 207.6 -0.45 210.9 -0.45 214.2 -0.4 215.3 -0.35 216.9 -0.35 218.55 -0.25 219.65 -0.2 Q220.75 -0.15 218.55 -0.05 L215.3 0.0 216.9 0.15 Q217.45 0.15 216.9 0.25 L215.3 0.3 213.65 0.3 212.0 0.25 209.8 0.2 208.15 0.25 207.05 0.25 210.35 0.35 213.1 0.5 Q214.2 0.6 211.45 0.6 L208.15 0.5 207.6 0.5 206.5 0.6 203.25 0.6 201.05 0.65 197.75 0.6 Q198.3 0.65 197.75 0.7 L197.2 0.75 195.0 0.85 192.25 0.7 190.65 0.8 187.35 0.8 185.15 0.75 182.4 0.85 180.2 0.8 179.15 0.85 176.95 0.75 175.3 0.8 173.1 0.8 170.35 0.85 168.7 0.8 165.45 0.8 162.15 0.8 160.5 0.85 158.85 0.8 157.75 0.8 154.5 0.85 149.55 0.8 146.25 0.9 142.45 0.8 139.7 0.85 136.4 0.85 134.75 0.8 132.55 0.8 128.2 0.9 124.9 0.85 121.6 0.8 119.95 0.9 115.05 0.9 112.85 0.85 110.1 0.8 107.9 0.8 105.75 0.85 100.8 0.8 97.5 0.85 93.7 0.85 90.4 0.85 88.2 0.85 86.0 0.85 83.8 0.85 82.2 0.9 81.1 0.85 80.55 0.85 77.8 0.85 76.15 0.9 73.95 0.85 71.2 0.85 66.3 0.9 63.55 0.85 61.35 0.85 59.15 0.9 54.25 0.95 50.95 0.85 47.65 0.9 44.4 0.9 42.75 0.85 41.65 0.95 37.8 0.95 35.05 0.85 32.9 0.9 30.15 0.95 27.95 0.9 27.4 0.8 25.2 0.95 22.45 0.95 20.3 0.8 20.3 0.65 18.1 0.7 16.45 0.6 14.25 0.5 12.05 0.45 9.35 0.4 5.5 0.4 4.4 0.3 2.75 0.3 1.65 0.25 0.0 0.2 1.65 0.05 4.4 -0.05 3.3 -0.15 Q2.2 -0.2 3.3 -0.25 L4.4 -0.35 6.05 -0.35 8.25 -0.25 M25.2 -0.55 L24.65 -0.55 23.55 -0.55 23.0 -0.55 23.55 -0.5 23.55 -0.45 24.1 -0.5 25.2 -0.55 M26.3 -0.05 L26.85 -0.05 26.3 -0.1 26.3 -0.05 M194.45 -0.65 L192.25 -0.55 193.9 -0.5 194.45 -0.6 Q193.9 -0.6 194.45 -0.65 M196.95 -0.1 L198.85 -0.2 197.2 -0.15 196.95 -0.1 M197.2 0.5 L196.1 0.4 195.55 0.45 Q195.9 0.5 195.5 0.5 L197.2 0.5 M26.85 0.6 L27.4 0.5 25.75 0.5 Q25.2 0.5 25.75 0.55 L26.0 0.6 26.85 0.6 M21.4 0.2 L22.45 0.15 22.85 0.1 21.4 0.2" fill="#ffffff" fill-rule="evenodd" stroke="none"/>
  </g>
</svg>
