<?xml version="1.0" encoding="UTF-8" standalone="no"?>
<svg xmlns:ffdec="https://www.free-decompiler.com/flash" xmlns:xlink="http://www.w3.org/1999/xlink" ffdec:objectType="shape" height="269.1px" width="403.85px" xmlns="http://www.w3.org/2000/svg">
  <g transform="matrix(1.0, 0.0, 0.0, 1.0, 227.35, 113.75)">
    <path d="M106.5 -105.0 L106.55 -106.45 107.0 -107.0 Q108.95 -107.15 115.9 -103.05 121.7 -111.5 128.0 -113.5 L129.7 -112.85 Q130.5 -112.35 130.5 -110.75 130.5 -109.3 125.15 -105.1 122.0 -102.65 120.1 -100.5 129.8 -94.3 132.5 -91.0 132.4 -90.0 132.1 -89.45 131.6 -88.5 130.0 -88.5 128.35 -88.5 117.45 -96.6 L115.6 -89.4 Q114.35 -84.65 111.0 -82.5 L109.2 -83.1 Q108.5 -83.6 108.5 -85.25 108.5 -90.9 113.6 -99.45 L106.5 -105.0 M18.5 -55.25 Q59.55 -55.65 79.05 -37.35 86.25 -30.6 89.75 -21.85 92.5 -15.0 92.5 -8.6 92.5 -1.1 91.05 3.1 89.0 9.3 83.0 13.5 L60.0 13.5 Q44.0 11.35 28.15 0.8 12.5 -9.55 12.5 -17.5 12.5 -20.95 15.3 -25.2 18.35 -29.75 23.75 -33.6 37.05 -43.25 57.0 -43.75 L57.85 -44.15 Q58.9 -44.5 59.25 -44.75 53.8 -47.7 37.05 -50.2 20.5 -52.75 18.75 -53.75 L18.5 -55.25 M2.0 -8.2 Q1.55 -7.5 0.0 -7.5 -5.45 -9.0 -10.85 -12.1 L-11.55 -12.5 Q-13.5 -9.8 -17.0 -7.5 L-18.8 -8.3 Q-19.5 -8.95 -19.5 -10.6 L-17.5 -16.85 Q-21.95 -21.1 -22.5 -26.0 -19.8 -27.2 -14.7 -24.45 L-14.0 -26.15 Q-8.5 -38.95 -8.5 -26.1 -8.5 -22.95 -8.75 -20.5 -0.5 -14.25 2.5 -9.5 L2.0 -8.2 M33.0 -3.25 Q49.45 8.25 58.5 8.25 L82.5 8.0 Q84.1 6.05 85.9 -0.5 87.5 -6.4 87.5 -8.5 87.5 -25.6 76.55 -33.35 67.3 -39.95 52.5 -38.7 39.2 -37.6 28.45 -31.2 17.5 -24.7 17.5 -17.5 17.5 -16.1 22.0 -11.95 26.6 -7.7 33.0 -3.25 M147.75 -36.75 L147.5 -38.25 158.65 -37.95 158.3 -41.7 Q158.2 -46.0 161.0 -47.5 162.95 -45.9 163.4 -43.25 L163.5 -38.75 163.5 -36.45 Q170.2 -33.95 176.25 -29.0 L176.5 -27.5 176.0 -26.2 Q175.55 -25.5 174.0 -25.5 172.25 -25.5 163.1 -29.95 L163.05 -29.85 Q161.8 -25.0 156.0 -19.5 154.7 -19.95 154.2 -20.5 153.5 -21.3 153.5 -23.0 153.5 -25.5 155.5 -28.15 156.9 -30.05 157.75 -32.5 151.0 -35.65 147.75 -36.75 M15.25 1.25 Q15.5 1.4 15.5 2.85 15.5 4.6 12.5 9.3 L21.5 16.5 20.1 18.75 Q19.5 19.5 18.5 19.5 15.1 19.5 9.3 14.35 6.9 18.2 5.5 21.0 L4.0 21.5 Q2.1 20.85 1.65 19.5 1.5 19.05 1.5 17.25 1.5 14.35 4.35 9.5 -0.5 4.5 -0.5 3.6 -0.5 1.1 -0.25 1.0 1.15 0.75 7.25 5.2 11.25 0.1 15.0 1.0 L15.25 1.25 M-34.5 -62.5 Q-34.5 -69.15 -24.95 -59.0 -20.6 -64.15 -18.0 -65.5 L-16.3 -65.05 Q-15.5 -64.65 -15.5 -63.1 -15.5 -61.7 -20.7 -54.3 -14.1 -46.6 -12.5 -42.5 L-13.0 -41.2 Q-13.45 -40.5 -15.0 -40.5 -19.8 -40.5 -25.55 -47.6 -33.05 -37.5 -33.5 -37.5 L-35.45 -37.75 -35.5 -38.0 -36.3 -38.45 Q-36.5 -38.7 -36.5 -40.25 -36.5 -43.8 -29.55 -53.2 L-32.75 -58.8 Q-34.5 -62.1 -34.5 -62.5 M-69.5 95.0 Q-69.5 97.6 -83.5 110.35 L-85.45 110.1 -85.5 109.85 -86.3 109.4 Q-86.5 109.15 -86.5 107.6 -86.5 105.8 -82.5 101.6 L-80.95 100.15 -99.3 105.65 Q-117.55 111.35 -123.5 111.35 L-123.9 111.35 Q-110.5 125.8 -110.5 137.0 L-110.3 140.0 Q-110.35 142.05 -111.55 143.4 -114.85 147.35 -128.5 147.35 -158.35 147.35 -179.3 128.9 L-179.45 128.75 Q-184.15 133.35 -199.75 137.75 L-189.2 143.55 Q-177.75 149.55 -168.0 151.6 L-167.75 151.25 Q-167.5 151.2 -167.5 152.75 -167.5 154.65 -168.95 155.1 L-172.5 155.35 Q-174.35 155.35 -195.5 145.45 -216.35 135.65 -216.35 135.25 -216.35 130.8 -208.45 125.65 L-197.0 119.35 Q-195.75 119.85 -195.3 120.35 -194.5 121.2 -194.5 122.85 -194.5 125.6 -198.25 128.6 -202.2 131.75 -207.75 133.1 L-205.95 134.15 Q-202.75 132.15 -195.5 128.95 L-184.1 124.25 Q-188.4 119.65 -191.5 114.6 -195.5 108.15 -195.5 104.85 -195.5 92.65 -186.75 80.1 L-186.25 79.6 Q-191.05 79.3 -192.25 78.1 L-192.5 76.6 Q-192.5 76.05 -191.6 75.3 L-191.35 75.1 Q-196.0 74.15 -207.85 69.45 -216.3 66.1 -220.15 63.9 L-218.9 66.7 Q-217.35 70.35 -217.35 71.1 -217.35 73.6 -217.6 73.35 L-217.9 73.85 Q-218.3 74.35 -219.85 74.35 -221.2 74.35 -224.4 67.1 L-227.35 60.0 Q-227.35 54.1 -225.1 56.0 L-225.35 54.85 Q-225.35 53.1 -224.95 52.65 L-222.85 51.35 -207.85 50.15 -201.0 49.85 -200.75 50.15 Q-200.5 50.3 -200.5 51.75 -200.5 53.65 -201.6 54.45 -202.5 55.1 -205.25 55.45 -217.4 56.95 -222.85 58.35 L-223.9 57.35 -222.4 59.65 Q-217.35 60.25 -205.75 64.85 L-186.5 72.35 -187.7 74.35 Q-179.75 74.1 -175.4 71.9 -173.9 71.1 -171.55 70.7 L-171.8 70.55 Q-172.5 69.9 -172.5 68.25 -172.5 66.55 -161.3 61.1 -150.95 56.05 -148.3 55.85 -149.9 54.9 -152.85 53.65 -156.2 52.2 -161.25 50.1 L-161.5 48.6 Q-156.55 43.9 -148.85 48.0 -141.5 51.9 -141.5 57.5 -141.5 60.65 -143.2 63.5 -144.5 65.7 -148.0 69.35 L-149.8 68.55 Q-150.5 67.9 -150.5 66.25 -150.5 65.2 -148.5 62.15 -146.5 59.15 -146.5 57.6 -146.5 57.05 -147.65 56.25 -147.5 56.6 -147.5 57.75 -147.5 61.35 -158.35 66.6 -162.45 68.55 -166.9 70.25 -163.85 70.1 -160.0 70.35 L-158.3 70.8 Q-157.5 71.2 -157.5 72.75 -157.5 74.35 -158.35 74.9 L-160.0 75.35 -169.5 75.85 Q-143.25 92.45 -128.5 106.65 L-126.5 108.65 -126.5 108.6 Q-111.75 101.55 -100.75 98.65 -93.0 96.65 -78.3 94.7 -79.85 94.1 -82.3 93.5 -87.2 92.25 -89.25 91.1 L-89.5 89.6 Q-83.45 86.9 -76.25 89.3 -69.5 91.55 -69.5 95.0 M-115.5 136.6 Q-115.5 131.85 -127.2 117.15 -139.65 101.55 -153.0 90.95 -169.15 78.05 -178.8 79.55 -190.5 81.35 -190.5 104.6 -190.5 107.7 -185.9 113.85 -181.15 120.2 -174.05 126.35 -155.75 142.1 -139.75 142.1 L-117.5 141.85 Q-116.25 140.8 -115.85 139.6 -115.5 138.6 -115.5 136.6" fill="#ff0000" fill-opacity="0.69411767" fill-rule="evenodd" stroke="none"/>
    <path d="M37.5 -113.75 L43.0 -113.25 43.85 -113.0 Q44.25 -112.85 44.25 -112.05 44.25 -111.25 43.8 -110.95 L43.0 -110.75 27.75 -111.0 Q45.3 -95.55 49.3 -84.3 51.1 -79.1 57.1 -71.4 64.8 -61.45 67.25 -57.3 L67.0 -57.0 66.0 -56.75 Q62.1 -56.75 55.75 -66.7 51.1 -74.0 47.25 -82.8 41.3 -96.35 26.55 -108.55 L26.75 -108.25 26.75 -101.8 26.4 -101.5 25.25 -101.25 Q22.85 -101.25 22.3 -105.15 22.05 -107.1 22.25 -109.15 22.25 -112.75 23.5 -113.75 L37.5 -113.75" fill="#ff0000" fill-opacity="0.6901961" fill-rule="evenodd" stroke="none"/>
  </g>
</svg>
