<?xml version="1.0" encoding="UTF-8" standalone="no"?>
<svg xmlns:ffdec="https://www.free-decompiler.com/flash" xmlns:xlink="http://www.w3.org/1999/xlink" ffdec:objectType="shape" height="62.7px" width="57.5px" xmlns="http://www.w3.org/2000/svg">
  <g transform="matrix(1.0, 0.0, 0.0, 1.0, -12.3, -7.1)">
    <path d="M63.8 28.55 Q58.35 20.75 37.75 13.7 23.1 17.65 18.2 26.0 15.4 30.75 15.4 39.6 15.4 47.95 18.55 54.2 24.8 66.55 41.4 66.55 59.7 66.55 64.95 55.6 67.65 50.0 66.65 43.6 L66.5 35.85 Q66.0 31.7 63.8 28.55 M69.8 43.8 Q69.8 53.5 66.5 59.0 59.95 69.8 41.3 69.8 22.45 69.8 15.55 55.3 13.35 50.7 12.6 45.05 12.3 42.65 12.3 39.75 12.3 30.35 14.9 25.25 19.6 16.05 33.85 11.15 L21.95 10.45 20.85 10.0 Q20.4 9.7 20.4 8.65 20.4 6.45 26.95 7.4 L48.2 10.45 Q63.75 23.65 66.85 28.45 68.8 31.5 69.35 35.1 69.8 37.75 69.8 43.8" fill="#000000" fill-opacity="0.8" fill-rule="evenodd" stroke="none"/>
  </g>
</svg>
