<?xml version="1.0" encoding="UTF-8" standalone="no"?>
<svg xmlns:ffdec="https://www.free-decompiler.com/flash" xmlns:xlink="http://www.w3.org/1999/xlink" ffdec:objectType="shape" height="416.0px" width="631.0px" xmlns="http://www.w3.org/2000/svg">
  <g transform="matrix(1.0, 0.0, 0.0, 1.0, 445.95, 257.3)">
    <path d="M185.05 158.7 L-445.95 158.7 -445.95 -257.3 185.05 -257.3 185.05 158.7" fill="#434343" fill-rule="evenodd" stroke="none"/>
    <path d="M0.2 83.1 L0.2 40.65 -19.35 40.65 -19.35 83.1 0.2 83.1 M-282.0 -247.35 L-123.6 -247.35 -123.6 -192.0 -113.35 -192.0 -113.35 -157.0 -123.7 -157.0 -123.7 -126.7 -197.35 -126.7 -197.35 -138.0 -201.0 -138.0 -201.0 -124.35 -206.35 -124.35 -206.35 -121.7 -201.7 -121.7 -201.7 -69.35 -168.25 -69.35 -168.25 -114.65 110.0 -114.65 110.0 -129.15 177.55 -129.15 177.55 148.4 1.1 148.4 1.1 144.0 -198.0 144.0 -198.0 60.0 -242.0 60.0 -242.0 134.65 -255.0 134.65 -255.0 148.3 -345.0 148.3 -345.0 90.0 -322.0 90.0 -322.0 -41.0 -241.35 -41.0 -241.35 -69.35 -238.7 -69.35 -238.7 -121.7 -233.0 -121.7 -233.0 -124.35 -238.35 -124.35 -238.35 -131.35 -282.0 -131.35 -282.0 -247.35" fill="#969696" fill-rule="evenodd" stroke="none"/>
    <path d="M-367.7 -1.35 L-367.7 5.0 -348.25 5.0 -348.25 149.65 -418.7 149.65 -418.7 63.65 -420.35 63.65 -420.35 60.0 -422.7 60.0 -422.7 35.0 -420.35 35.0 -420.35 31.65 -418.7 31.65 -418.7 5.0 -399.7 5.0 -399.7 -1.35 -367.7 -1.35" fill="#707070" fill-rule="evenodd" stroke="none"/>
    <path d="M38.0 27.65 L38.0 5.0 122.3 5.0 122.3 94.0 99.3 94.0 99.3 27.65 38.0 27.65" fill="#707070" fill-rule="evenodd" stroke="none"/>
    <path d="M60.0 40.3 L83.65 40.3 83.65 87.65 60.0 87.65 60.0 40.3" fill="#707070" fill-rule="evenodd" stroke="none"/>
    <path d="M57.05 42.9 L58.4 61.55 40.2 62.85 38.85 44.2 57.05 42.9" fill="#707070" fill-rule="evenodd" stroke="none"/>
    <path d="M18.2 148.4 L18.2 134.2 123.3 134.2 123.3 148.4 18.2 148.4" fill="#707070" fill-rule="evenodd" stroke="none"/>
    <path d="M-159.0 97.0 L-159.0 67.0 -77.35 67.0 -77.35 97.0 -159.0 97.0" fill="#707070" fill-rule="evenodd" stroke="none"/>
    <path d="M-154.7 -15.35 L-81.0 -15.35 -81.0 14.65 -154.7 14.65 -154.7 -15.35" fill="#707070" fill-rule="evenodd" stroke="none"/>
    <path d="M-307.0 -28.25 L-307.0 -41.0 -254.0 -41.0 -254.0 -28.25 -307.0 -28.25" fill="#707070" fill-rule="evenodd" stroke="none"/>
    <path d="M-197.7 143.65 L-197.7 122.65 -46.35 122.65 -46.35 143.65 -197.7 143.65" fill="#707070" fill-rule="evenodd" stroke="none"/>
    <path d="M147.7 130.2 L162.75 108.7 175.8 117.8 160.75 139.35 147.7 130.2" fill="#707070" fill-rule="evenodd" stroke="none"/>
    <path d="M8.7 137.2 L11.65 136.7 14.45 137.95 16.1 140.45 16.15 143.45 14.55 146.05 11.8 147.3 8.8 146.95 6.5 145.0 5.6 142.1 6.45 139.2 8.7 137.2" fill="#707070" fill-rule="evenodd" stroke="none"/>
    <path d="M-1.1 140.1 L-0.55 140.9 -0.55 141.95 -1.05 142.8 -2.0 143.2 -3.0 143.1 -3.75 142.45 -4.05 141.45 -3.75 140.5 -3.0 139.85 -2.05 139.7 -1.1 140.1" fill="#707070" fill-rule="evenodd" stroke="none"/>
    <path d="M3.65 142.65 L4.2 143.5 4.25 144.5 3.7 145.35 2.8 145.75 1.8 145.65 1.05 145.0 0.75 144.0 1.0 143.05 1.75 142.4 2.75 142.25 3.65 142.65" fill="#707070" fill-rule="evenodd" stroke="none"/>
    <path d="M148.0 137.85 L151.0 137.4 153.75 138.6 155.4 141.1 155.45 144.15 153.85 146.7 151.15 148.0 148.15 147.6 145.85 145.65 144.95 142.75 145.75 139.85 148.0 137.85" fill="#707070" fill-rule="evenodd" stroke="none"/>
    <path d="M130.65 137.65 L133.4 137.25 135.95 138.35 137.5 140.7 137.55 143.5 136.05 145.85 133.55 147.05 130.75 146.7 128.6 144.9 127.8 142.2 128.55 139.5 130.65 137.65" fill="#707070" fill-rule="evenodd" stroke="none"/>
    <path d="M9.45 -94.85 L-9.85 -90.95 -13.15 -107.2 6.15 -111.1 9.45 -94.85" fill="#707070" fill-rule="evenodd" stroke="none"/>
    <path d="M163.85 -129.15 L163.85 -117.15 119.65 -117.15 119.65 -129.15 163.85 -129.15" fill="#707070" fill-rule="evenodd" stroke="none"/>
    <path d="M-151.85 -104.65 L-151.85 -114.65 -83.25 -114.65 -83.25 -104.65 -151.85 -104.65" fill="#707070" fill-rule="evenodd" stroke="none"/>
    <path d="M153.35 -26.5 L154.5 -30.95 172.45 -26.25 171.3 -21.8 153.35 -26.5" fill="#707070" fill-rule="evenodd" stroke="none"/>
    <path d="M-312.45 -22.4 L-314.85 -23.2 -316.6 -25.15 -317.1 -27.65 -316.3 -30.1 -314.35 -31.8 -311.85 -32.3 -309.4 -31.5 -307.7 -29.6 -307.2 -27.05 -308.0 -24.6 -309.9 -22.9 -312.45 -22.4" fill="#707070" fill-rule="evenodd" stroke="none"/>
    <path d="M-157.25 -112.5 L-155.05 -110.0 -154.4 -106.75 -155.45 -103.6 -157.95 -101.4 -161.2 -100.75 -164.35 -101.8 -166.55 -104.25 -167.2 -107.5 -166.15 -110.65 -163.65 -112.85 -160.4 -113.55 -157.25 -112.5" fill="#707070" fill-rule="evenodd" stroke="none"/>
    <path d="M-78.15 -110.65 L-75.65 -112.85 -72.4 -113.55 -69.25 -112.5 -67.05 -110.0 -66.4 -106.75 -67.45 -103.6 -69.95 -101.4 -73.2 -100.75 -76.35 -101.8 -78.55 -104.25 -79.2 -107.5 -78.15 -110.65" fill="#707070" fill-rule="evenodd" stroke="none"/>
    <path d="M172.85 -124.85 L174.45 -123.1 174.95 -120.75 174.2 -118.45 172.4 -116.9 170.05 -116.4 167.8 -117.15 166.2 -118.95 165.7 -121.3 166.45 -123.55 168.25 -125.15 170.6 -125.6 172.85 -124.85" fill="#707070" fill-rule="evenodd" stroke="none"/>
    <path d="M-123.7 -147.8 L-123.7 -126.7 -197.35 -126.7 -197.35 -139.35 -148.0 -139.35 -148.0 -147.8 -123.7 -147.8" fill="#707070" fill-rule="evenodd" stroke="none"/>
    <path d="M-126.25 -192.0 L-113.35 -192.0 -113.35 -157.0 -126.25 -157.0 -126.25 -192.0" fill="#707070" fill-rule="evenodd" stroke="none"/>
    <path d="M-137.8 -240.9 L-123.6 -240.9 -123.6 -204.45 -137.8 -204.45 -137.8 -240.9" fill="#707070" fill-rule="evenodd" stroke="none"/>
    <path d="M-236.25 -247.35 L-236.25 -227.6 -261.35 -227.6 -261.35 -131.35 -282.0 -131.35 -282.0 -247.35 -236.25 -247.35" fill="#707070" fill-rule="evenodd" stroke="none"/>
    <path d="M-138.5 -198.15 L-136.75 -197.6 -135.6 -196.25 -135.2 -194.5 -135.8 -192.75 -137.15 -191.6 -138.9 -191.2 -140.6 -191.8 -141.8 -193.15 -142.15 -194.9 -141.6 -196.6 -140.25 -197.8 -138.5 -198.15" fill="#707070" fill-rule="evenodd" stroke="none"/>
    <path d="M-349.8 135.75 L-349.8 102.85 -344.25 102.85 -344.25 135.75 -349.8 135.75" fill="#ffffff" fill-rule="evenodd" stroke="none"/>
    <path d="M0.3 -59.35 L0.3 -114.65 98.4 -114.65 98.4 -59.35 0.3 -59.35" fill="#ffffff" fill-rule="evenodd" stroke="none"/>
  </g>
</svg>
