<?xml version="1.0" encoding="UTF-8" standalone="no"?>
<svg xmlns:ffdec="https://www.free-decompiler.com/flash" xmlns:xlink="http://www.w3.org/1999/xlink" ffdec:objectType="shape" height="168.7px" width="256.0px" xmlns="http://www.w3.org/2000/svg">
  <g transform="matrix(1.0, 0.0, 0.0, 1.0, -779.8, -238.5)">
    <path d="M789.05 241.85 Q789.05 240.5 790.0 239.5 L790.05 239.45 Q791.0 238.5 792.35 238.5 793.65 238.5 794.65 239.45 L799.4 244.25 Q800.0 244.9 800.2 245.8 L800.25 246.65 800.05 247.85 799.4 248.85 794.65 253.65 Q793.7 254.5 792.35 254.5 791.05 254.5 790.05 253.65 L790.0 253.5 Q789.05 252.5 789.05 251.25 789.05 250.5 789.3 249.9 L783.0 249.9 Q781.75 249.85 780.8 248.9 779.9 248.0 779.8 246.65 L779.8 246.5 Q779.9 245.2 780.8 244.25 781.75 243.3 783.0 243.25 L789.4 243.25 Q789.05 242.6 789.05 241.85" fill="#01829f" fill-rule="evenodd" stroke="none"/>
    <path d="M1035.8 267.2 L1035.8 407.2 779.8 407.2 779.8 267.2 1035.8 267.2" fill="#2ccc9c" fill-rule="evenodd" stroke="none"/>
    <path d="M1031.8 271.2 L1031.8 403.2 783.8 403.2 783.8 271.2 1031.8 271.2" fill="#e6e7e8" fill-rule="evenodd" stroke="none"/>
  </g>
</svg>
