<?xml version="1.0" encoding="UTF-8" standalone="no"?>
<svg xmlns:ffdec="https://www.free-decompiler.com/flash" xmlns:xlink="http://www.w3.org/1999/xlink" ffdec:objectType="shape" height="441.35px" width="1150.15px" xmlns="http://www.w3.org/2000/svg">
  <g transform="matrix(1.0, 0.0, 0.0, 1.0, 643.2, 220.9)">
    <path d="M445.75 64.45 L450.35 67.3 473.6 74.85 479.1 77.2 487.15 82.5 495.35 90.2 501.9 97.75 505.4 104.45 506.85 110.2 506.95 123.4 482.7 198.7 480.1 203.45 475.3 209.65 470.8 213.45 464.0 216.8 454.25 219.05 443.1 220.45 433.5 220.05 427.65 218.7 404.4 211.15 399.0 210.75 -356.8 -34.8 -430.95 -64.3 -463.5 -78.45 -506.65 -101.45 -541.4 -121.5 -541.45 -121.5 -541.5 -121.55 -582.2 -149.95 -606.2 -170.45 -631.35 -193.1 -643.2 -207.25 -641.85 -211.45 -624.55 -215.85 -590.85 -219.4 -509.7 -220.9 -469.1 -217.05 -420.85 -209.75 -386.05 -202.5 -309.8 -181.05 445.75 64.45" fill="#424242" fill-rule="evenodd" stroke="none"/>
    <path d="M-134.7 -96.05 L-134.05 -97.95 -156.15 -105.1 -162.3 -106.3 -171.05 -107.2 -179.3 -107.05 -186.9 -105.25 -197.5 -101.25 -204.95 -97.25 -209.95 -92.9 -218.05 -81.8 -221.1 -75.3 -223.15 -69.1 -224.5 -62.1 -224.5 -48.35 -223.1 -41.95 -219.4 -34.25 -213.15 -24.75 -208.15 -18.85 -201.55 -13.85 -193.75 -9.3 -165.85 -0.2 -165.3 -1.85 -192.8 -11.05 -200.4 -15.45 -206.7 -20.25 -211.55 -25.9 -217.6 -35.2 -221.15 -42.5 -222.5 -48.55 -222.5 -61.8 -221.2 -68.5 -219.25 -74.55 -216.35 -80.75 -208.55 -91.45 -203.9 -95.55 -196.75 -99.4 -186.4 -103.3 -179.15 -105.05 -171.2 -105.2 -162.6 -104.35 -156.75 -103.2 -134.7 -96.05 M25.7 32.55 L24.4 32.4 11.75 28.3 10.45 28.15 9.55 28.45 8.85 28.95 8.25 30.1 1.95 49.55 1.3 50.7 0.6 51.25 -0.3 51.5 -1.55 51.35 -51.85 35.0 -52.4 36.65 35.55 65.25 36.6 65.5 37.4 65.55 38.15 65.4 38.95 65.05 46.75 59.25 51.15 45.85 51.5 44.35 51.55 42.65 51.3 41.8 50.75 41.1 49.65 40.35 28.65 33.55 32.2 22.55 30.6 22.0 27.85 30.6 27.25 31.75 26.55 32.3 25.7 32.55 M67.0 72.2 L69.25 65.4 58.1 61.75 55.9 68.6 67.0 72.2 M79.9 51.55 L79.05 51.4 78.3 51.75 77.85 52.5 77.95 53.35 78.55 53.95 79.4 54.15 80.15 53.75 80.6 53.0 80.45 52.2 79.9 51.55 M96.75 5.35 L96.65 4.5 96.1 3.9 95.25 3.75 94.45 4.1 94.05 4.85 94.15 5.7 94.75 6.3 95.6 6.45 96.35 6.1 96.75 5.35 M85.4 -22.25 L83.2 -15.45 94.3 -11.8 96.55 -18.65 85.4 -22.25 M29.0 -42.8 L30.15 -42.2 30.7 -41.45 30.95 -40.6 30.8 -39.35 24.45 -19.85 24.3 -18.6 24.55 -17.75 25.1 -17.0 26.2 -16.35 38.9 -12.2 40.05 -11.6 40.55 -10.85 40.8 -10.0 40.6 -8.75 37.8 -0.15 39.4 0.35 43.0 -10.65 64.0 -3.8 65.3 -3.75 66.15 -4.05 66.85 -4.55 67.8 -6.0 68.4 -7.35 72.75 -20.8 69.85 -30.05 69.4 -30.85 68.85 -31.4 68.25 -31.85 -20.75 -60.8 -21.25 -59.15 29.0 -42.8 M181.3 -14.8 L181.7 -16.05 199.7 -10.2 215.55 0.1 219.4 4.35 220.4 1.2 223.2 -0.9 235.0 2.9 230.1 17.9 236.8 31.05 237.75 35.4 238.0 35.5 246.95 41.3 254.1 49.25 258.95 58.75 261.2 69.2 260.6 79.9 257.3 90.05 251.5 99.0 243.55 106.15 234.05 111.0 223.6 113.2 212.95 112.65 212.35 112.45 209.55 115.0 196.4 121.7 191.75 135.95 179.95 132.1 178.95 128.75 179.75 126.3 174.15 127.5 155.25 126.5 137.25 120.65 137.85 118.8 -100.7 41.3 -98.8 35.35 -118.0 29.1 -113.95 16.65 -62.7 33.3 -61.65 30.1 -73.8 26.15 -74.7 25.7 -74.95 25.3 -75.1 24.8 -75.0 23.8 -64.4 -8.75 -66.6 -9.5 -78.25 26.4 -114.15 14.75 -112.7 10.2 -116.1 9.1 -116.05 7.6 -117.2 6.15 Q-118.25 5.55 -119.35 4.9 L-118.15 1.2 -118.2 1.2 -109.35 -26.05 -110.4 -26.4 -113.9 -15.6 -140.1 -24.1 -142.55 -16.5 -135.9 -14.35 -138.95 -5.0 -145.45 -7.1 -148.85 3.45 -154.45 1.65 -155.0 3.35 -115.65 16.1 -119.65 28.55 -198.15 3.05 -205.65 0.25 -211.6 -3.4 -219.05 -9.7 -228.8 -21.35 -235.4 -33.25 -238.7 -42.9 -240.35 -52.15 -240.6 -61.45 -239.5 -70.65 -237.0 -79.5 -233.15 -87.9 -228.05 -95.65 -221.8 -102.65 -214.6 -108.65 -202.25 -115.6 -186.0 -120.5 -175.9 -122.05 -167.05 -121.0 -158.65 -118.6 -158.6 -118.65 -80.15 -93.15 -84.0 -81.35 -123.35 -94.15 -123.9 -92.5 -118.3 -90.65 -121.75 -80.1 -115.25 -78.0 -118.3 -68.65 -124.95 -70.8 -127.4 -63.2 -101.25 -54.7 -104.75 -43.9 -103.65 -43.55 -93.6 -74.45 -91.1 -74.25 -89.3 -74.7 -88.5 -75.95 -85.05 -74.85 -83.6 -79.4 -47.7 -67.7 -59.35 -31.8 -57.15 -31.1 -46.6 -63.7 -46.1 -64.55 -45.7 -64.85 -45.2 -65.05 -44.25 -64.9 -32.1 -60.95 -31.05 -64.15 -82.3 -80.8 -78.45 -92.6 -59.2 -86.35 -57.3 -92.3 181.3 -14.8" fill="#959595" fill-rule="evenodd" stroke="none"/>
    <path d="M-289.95 -56.05 L-289.9 -55.85 -287.8 -50.15 -285.15 -44.85 -281.95 -40.0 -277.95 -36.6 -248.45 -27.05 -252.45 -30.4 -255.7 -35.25 -258.35 -40.55 -260.4 -46.3 -260.45 -46.5 -289.95 -56.05 M-290.8 -87.55 L-292.2 -77.15 -262.7 -67.6 -261.3 -77.95 -259.85 -83.35 -289.3 -92.9 -290.8 -87.55 M-286.75 -100.05 L-288.45 -95.55 -258.95 -85.95 -257.25 -90.45 -254.35 -96.35 -251.85 -100.35 -281.35 -109.9 -286.75 -100.05 M-292.35 -74.3 L-292.2 -68.15 -291.35 -61.9 -290.7 -59.2 -261.2 -49.6 -261.85 -52.3 -262.7 -58.6 -262.85 -64.75 -292.35 -74.3 M-242.65 -111.55 L-239.85 -113.9 -269.35 -123.5 -276.45 -116.55 -279.75 -112.3 -250.25 -102.7 -247.0 -106.95 -242.65 -111.55 M-257.05 -131.3 L-262.35 -128.55 -266.8 -125.55 -237.3 -115.95 -232.85 -118.95 -227.6 -121.7 -222.15 -123.75 -216.9 -124.1 -246.4 -133.7 -251.65 -133.3 -257.05 -131.3 M-163.85 -124.0 L-178.25 -125.15 -186.8 -123.95 -203.65 -118.85 -216.55 -111.55 -224.25 -105.15 -230.85 -97.8 -236.2 -89.6 -240.25 -80.7 -242.9 -71.35 -244.1 -61.65 -243.85 -51.8 -242.1 -42.0 -238.6 -31.8 -231.7 -19.35 -221.55 -7.2 -213.5 -0.45 -205.2 3.3 -174.7 13.25 -175.65 16.1 -277.7 -17.05 -287.3 -21.6 -296.25 -27.3 -304.3 -34.1 -314.4 -46.25 -321.35 -58.7 -324.85 -68.9 -326.6 -78.7 -326.85 -88.5 -325.65 -98.25 -323.0 -107.6 -318.95 -116.5 -313.6 -124.7 -307.0 -132.05 -299.3 -138.45 -286.4 -145.75 -269.5 -150.85 -260.95 -152.05 -250.4 -152.1 -239.85 -150.8 -224.4 -146.5 -132.5 -116.65 -133.35 -114.05 -163.85 -124.0" fill="#6f6f6f" fill-rule="evenodd" stroke="none"/>
    <path d="M223.9 28.95 L238.85 33.7 248.25 39.8 255.75 48.1 258.8 54.05 265.9 52.55 267.15 53.45 270.6 69.75 269.9 71.25 263.0 72.75 262.85 75.8 269.6 78.0 270.15 79.4 265.0 95.25 263.65 96.2 257.1 94.1 255.5 96.5 260.05 101.55 259.75 103.15 247.35 114.3 245.85 114.35 241.45 109.5 234.7 112.9 223.75 115.25 212.55 114.65 197.65 109.65 198.85 106.0 213.3 110.7 223.45 111.2 233.35 109.1 242.4 104.5 249.95 97.7 255.5 89.2 258.65 79.5 259.15 69.4 257.05 59.45 252.45 50.4 245.65 42.85 237.15 37.3 222.7 32.65 223.9 28.95" fill="#6f6f6f" fill-rule="evenodd" stroke="none"/>
    <path d="M133.35 10.6 L132.05 5.9 132.4 1.0 134.3 -3.55 137.55 -7.2 141.8 -9.6 146.65 -10.5 151.5 -9.75 155.85 -7.5 159.25 -3.95 161.3 0.5 161.75 5.4 160.65 10.15 158.05 14.35 154.2 17.4 149.6 19.05 144.7 19.15 140.0 17.65 136.1 14.7 133.35 10.6" fill="#6f6f6f" fill-rule="evenodd" stroke="none"/>
    <path d="M119.2 86.0 L119.5 81.1 121.4 76.55 124.65 72.9 128.95 70.5 133.75 69.6 138.6 70.35 143.0 72.6 146.35 76.15 148.4 80.6 148.9 85.5 147.75 90.3 145.15 94.45 141.35 97.5 136.7 99.2 131.8 99.25 127.15 97.75 123.2 94.8 120.45 90.75 119.2 86.0" fill="#6f6f6f" fill-rule="evenodd" stroke="none"/>
    <path d="M17.95 20.15 L29.95 24.05 27.85 30.6 27.25 31.75 26.55 32.3 25.7 32.55 24.4 32.4 11.75 28.3 10.45 28.15 9.55 28.45 8.85 28.95 8.25 30.1 1.95 49.55 1.3 50.7 0.6 51.25 -0.3 51.5 -1.55 51.35 -47.85 36.3 -45.05 27.7 -7.6 39.9 -6.3 40.05 -5.45 39.75 -4.75 39.25 -4.1 38.1 0.3 24.55 1.7 22.05 4.8 19.85 8.25 18.75 12.2 18.7 17.95 20.15" fill="#6f6f6f" fill-rule="evenodd" stroke="none"/>
    <path d="M-20.1 -49.0 L-17.25 -57.85 29.0 -42.8 30.15 -42.2 30.7 -41.45 30.95 -40.6 30.8 -39.35 24.45 -19.85 24.3 -18.6 24.55 -17.75 25.1 -17.0 26.2 -16.35 38.9 -12.2 40.05 -11.6 40.55 -10.85 40.8 -10.0 40.6 -8.75 38.4 -1.95 23.8 -6.75 20.85 -8.05 17.75 -10.45 15.6 -13.35 14.35 -16.95 14.7 -19.85 19.1 -33.35 19.25 -34.65 19.0 -35.5 18.45 -36.2 17.3 -36.85 -20.1 -49.0" fill="#6f6f6f" fill-rule="evenodd" stroke="none"/>
    <path d="M-70.2 -3.15 L-79.65 25.95 -90.9 22.3 -81.45 -6.8 -70.2 -3.15" fill="#6f6f6f" fill-rule="evenodd" stroke="none"/>
    <path d="M96.75 5.35 L96.65 4.5 96.1 3.9 95.25 3.75 94.45 4.1 94.05 4.85 94.15 5.7 94.75 6.3 95.6 6.45 96.35 6.1 96.75 5.35 M85.4 -22.25 L85.75 -23.35 102.15 -18.05 103.45 -17.35 104.1 -16.75 104.7 -15.55 104.9 -14.65 104.7 -13.65 98.55 5.45 98.05 6.35 97.35 7.0 96.2 7.55 95.3 7.65 93.85 7.5 42.55 -9.2 43.0 -10.65 64.0 -3.8 65.3 -3.75 66.15 -4.05 66.85 -4.55 67.8 -6.0 68.65 -8.05 91.0 -0.8 94.55 -11.75 94.3 -11.8 96.55 -18.65 85.4 -22.25" fill="#6f6f6f" fill-rule="evenodd" stroke="none"/>
    <path d="M80.3 49.15 L81.6 49.85 82.25 50.45 82.85 51.6 83.05 52.5 82.9 53.55 76.7 72.6 76.25 73.55 75.5 74.15 74.35 74.75 73.5 74.85 72.0 74.65 55.65 69.35 55.9 68.6 67.0 72.2 69.25 65.4 58.1 61.75 58.25 61.4 69.55 65.1 73.15 54.15 50.8 46.9 51.5 44.35 51.55 42.65 51.3 41.8 50.75 41.1 49.65 40.35 28.65 33.55 29.0 32.45 80.3 49.15 M79.9 51.55 L79.05 51.4 78.3 51.75 77.85 52.5 77.95 53.35 78.55 53.95 79.4 54.15 80.15 53.75 80.6 53.0 80.45 52.2 79.9 51.55" fill="#6f6f6f" fill-rule="evenodd" stroke="none"/>
    <path d="M-60.3 -71.8 L-49.05 -68.15 -58.5 -39.0 -69.75 -42.7 -60.3 -71.8" fill="#6f6f6f" fill-rule="evenodd" stroke="none"/>
    <path d="M-68.05 20.45 L-67.4 21.5 -67.35 22.7 -67.85 23.75 -68.8 24.5 -70.0 24.7 -71.15 24.35 -71.95 23.5 -72.3 22.35 -72.1 21.15 -71.35 20.25 -70.25 19.75 -69.05 19.85 -68.05 20.45" fill="#6f6f6f" fill-rule="evenodd" stroke="none"/>
    <path d="M-62.4 -4.4 L-61.2 -4.35 -60.2 -3.7 -59.55 -2.7 -59.5 -1.5 -60.0 -0.4 -60.95 0.35 -62.15 0.55 -63.3 0.15 -64.1 -0.7 -64.45 -1.85 -64.25 -3.0 -63.5 -3.95 -62.4 -4.4" fill="#6f6f6f" fill-rule="evenodd" stroke="none"/>
    <path d="M-40.4 -61.65 L-40.35 -60.45 -40.85 -59.35 -41.8 -58.65 -43.0 -58.45 -44.1 -58.8 -44.95 -59.65 -45.3 -60.8 -45.05 -62.0 -44.3 -62.9 -43.2 -63.4 -42.05 -63.3 -41.0 -62.65 -40.4 -61.65" fill="#6f6f6f" fill-rule="evenodd" stroke="none"/>
    <path d="M-50.85 -36.2 L-49.8 -35.55 -49.2 -34.55 -49.15 -33.35 -49.65 -32.25 -50.6 -31.55 -51.8 -31.35 -52.95 -31.7 -53.75 -32.55 -54.1 -33.7 -53.9 -34.85 -53.15 -35.8 -52.05 -36.3 -50.85 -36.2" fill="#6f6f6f" fill-rule="evenodd" stroke="none"/>
    <path d="M-152.65 -70.4 L-151.55 -69.7 -150.85 -68.55 -150.8 -67.2 -161.25 -35.0 -162.1 -33.95 -163.3 -33.45 -164.65 -33.55 -165.75 -34.25 -166.45 -35.35 -166.5 -36.7 -156.0 -68.9 -155.2 -69.95 -154.0 -70.5 -152.65 -70.4" fill="#6f6f6f" fill-rule="evenodd" stroke="none"/>
    <path d="M-169.85 -64.6 L-160.05 -61.45 -165.55 -44.4 -175.4 -47.6 -169.85 -64.6" fill="#6f6f6f" fill-rule="evenodd" stroke="none"/>
    <path d="M-178.0 -92.5 L-178.4 -85.1 -179.7 -82.2 -181.9 -79.95 -184.7 -78.65 -193.0 -76.75 -195.25 -75.5 -196.9 -74.05 -197.9 -73.35 -199.2 -71.4 -203.4 -58.45 -203.5 -56.1 -202.6 -52.8 -201.55 -50.45 -195.95 -44.05 -194.45 -41.35 -194.0 -38.2 -194.65 -35.1 -198.7 -28.9 -206.1 -25.0 -208.5 -27.35 -212.3 -32.7 -216.95 -41.95 -218.4 -47.8 -219.5 -55.1 -218.85 -61.9 -217.45 -68.65 -216.5 -71.6 -213.7 -77.7 -210.25 -83.55 -205.1 -88.85 -200.45 -92.7 -191.25 -97.45 -185.05 -99.55 -181.75 -100.05 -178.0 -92.5" fill="#6f6f6f" fill-rule="evenodd" stroke="none"/>
    <path d="M265.25 13.8 L270.25 17.35 273.7 20.65 277.65 25.95 279.9 32.25 280.95 38.65 280.65 42.05 262.0 40.5 261.0 40.7 260.95 40.45 260.75 40.4 260.8 39.45 260.45 37.3 259.8 35.5 258.65 33.95 257.5 32.8 255.0 31.05 251.2 29.2 228.8 21.95 235.0 2.9 258.7 10.6 265.25 13.8" fill="#ffffff" fill-rule="evenodd" stroke="none"/>
    <path d="M191.75 135.95 L197.95 116.9 220.3 124.2 224.5 124.95 227.55 124.95 229.15 124.75 231.0 124.15 232.55 123.1 234.15 121.55 234.65 120.75 234.85 120.85 235.0 120.7 235.75 121.4 251.75 131.1 249.95 134.05 245.3 138.6 239.8 142.35 233.5 144.35 228.75 145.0 222.65 144.9 215.45 143.65 191.75 135.95" fill="#ffffff" fill-rule="evenodd" stroke="none"/>
  </g>
</svg>
