<?xml version="1.0" encoding="UTF-8" standalone="no"?>
<svg xmlns:ffdec="https://www.free-decompiler.com/flash" xmlns:xlink="http://www.w3.org/1999/xlink" ffdec:objectType="shape" height="441.35px" width="1150.15px" xmlns="http://www.w3.org/2000/svg">
  <g transform="matrix(1.0, 0.0, 0.0, 1.0, 643.2, 220.9)">
    <path d="M445.75 64.45 L450.35 67.3 473.6 74.85 479.1 77.2 487.15 82.5 495.35 90.2 501.9 97.75 505.4 104.45 506.85 110.2 506.95 123.4 482.7 198.7 480.1 203.45 475.3 209.65 470.8 213.45 464.0 216.8 454.25 219.05 443.1 220.45 433.5 220.05 427.65 218.7 404.4 211.15 399.0 210.75 -356.8 -34.8 -430.95 -64.3 -463.5 -78.45 -506.65 -101.45 -541.4 -121.5 -541.45 -121.5 -541.5 -121.55 -582.2 -149.95 -606.2 -170.45 -631.35 -193.1 -643.2 -207.25 -641.85 -211.45 -624.55 -215.85 -590.85 -219.4 -509.7 -220.9 -469.1 -217.05 -420.85 -209.75 -386.05 -202.5 -309.8 -181.05 445.75 64.45" fill="#424242" fill-rule="evenodd" stroke="none"/>
    <path d="M96.45 -37.75 L105.85 -31.9 110.6 -27.2 119.7 -15.9 124.35 -5.35 126.15 2.25 126.9 10.0 126.45 17.7 112.65 60.1 108.5 66.6 103.35 72.4 96.7 78.75 87.45 83.3 74.4 87.45 66.85 88.1 55.8 87.3 -98.35 37.2 -115.65 37.15 -114.65 34.0 -119.35 32.5 -114.8 18.55 -196.5 -8.0 -206.2 -13.95 -211.1 -18.65 -219.5 -29.75 -224.4 -40.4 -226.3 -48.0 -227.1 -55.75 -226.75 -63.5 -225.2 -71.05 -224.0 -74.8 -220.8 -81.8 -216.55 -88.3 -211.35 -94.1 -205.3 -99.15 -195.1 -104.9 -181.8 -108.9 -175.05 -109.85 -163.7 -108.95 -82.0 -82.4 -77.5 -96.35 -72.8 -94.8 -71.75 -97.95 -57.7 -87.8 96.45 -37.75 M11.5 -32.8 L7.95 -35.55 -31.7 -48.45 -36.5 -47.95 -38.95 -47.3 -40.95 -45.2 -42.6 -42.1 -59.25 9.15 -59.75 12.3 -59.15 15.75 -57.1 18.8 -54.2 20.7 -14.5 33.6 -10.9 33.55 -8.1 33.0 -5.55 30.8 -3.6 27.25 13.0 -24.0 13.55 -27.65 13.0 -30.85 11.5 -32.8" fill="#959595" fill-rule="evenodd" stroke="none"/>
    <path d="M26.55 -13.6 L25.55 -16.65 25.85 -19.7 27.4 -22.3 30.0 -24.2 33.35 -25.2 37.0 -25.05 40.6 -23.9 43.65 -21.85 45.75 -19.1 46.75 -16.05 46.45 -13.0 44.9 -10.4 42.3 -8.45 38.95 -7.5 35.3 -7.6 31.7 -8.8 28.7 -10.85 26.55 -13.6" fill="#6f6f6f" fill-rule="evenodd" stroke="none"/>
    <path d="M62.4 37.75 L60.85 40.35 58.25 42.25 54.9 43.25 51.25 43.1 47.65 41.95 44.6 39.9 42.5 37.15 41.5 34.1 41.8 31.05 43.35 28.4 45.95 26.5 49.25 25.55 52.95 25.65 56.5 26.85 59.55 28.9 61.7 31.65 62.65 34.7 62.4 37.75" fill="#6f6f6f" fill-rule="evenodd" stroke="none"/>
    <path d="M71.25 -10.1 L73.7 -6.65 74.75 -2.75 74.25 1.1 72.35 4.55 69.25 7.05 65.25 8.4 60.9 8.4 56.75 7.05 53.2 4.5 50.8 1.1 49.75 -2.8 50.2 -6.7 52.1 -10.1 55.25 -12.65 59.25 -14.0 63.55 -14.0 67.75 -12.65 71.25 -10.1" fill="#6f6f6f" fill-rule="evenodd" stroke="none"/>
    <path d="M23.95 14.65 L28.1 16.0 31.65 18.55 34.05 22.0 35.1 25.9 34.65 29.8 32.75 33.2 29.6 35.75 25.6 37.1 21.3 37.05 17.1 35.7 13.6 33.15 11.15 29.75 10.1 25.85 10.6 21.95 12.5 18.55 15.65 16.0 19.6 14.65 23.95 14.65" fill="#6f6f6f" fill-rule="evenodd" stroke="none"/>
    <path d="M69.6 31.5 L68.75 28.4 69.1 25.3 70.6 22.55 73.15 20.55 76.4 19.5 79.9 19.55 83.3 20.65 86.2 22.7 88.2 25.45 89.05 28.55 88.7 31.65 87.15 34.4 84.65 36.4 81.4 37.45 77.9 37.4 74.45 36.3 71.6 34.25 69.6 31.5" fill="#6f6f6f" fill-rule="evenodd" stroke="none"/>
    <path d="M-110.7 -27.85 L-111.25 -28.2 -111.65 -28.8 -111.8 -29.45 -111.7 -30.05 -108.55 -39.65 -108.25 -40.25 -107.85 -40.65 -107.4 -40.75 -106.45 -40.85 -87.25 -34.6 -86.55 -34.05 -86.25 -33.7 -86.15 -33.1 -86.2 -32.4 -86.35 -32.1 -85.75 -31.9 -88.55 -23.2 -89.15 -23.4 -89.35 -22.8 -89.7 -22.1 -90.2 -21.7 -90.75 -21.6 -91.45 -21.6 -110.7 -27.85" fill="#6f6f6f" fill-rule="evenodd" stroke="none"/>
  </g>
</svg>
