<?xml version="1.0" encoding="UTF-8" standalone="no"?>
<svg xmlns:ffdec="https://www.free-decompiler.com/flash" xmlns:xlink="http://www.w3.org/1999/xlink" ffdec:objectType="shape" height="20.9px" width="28.6px" xmlns="http://www.w3.org/2000/svg">
  <g transform="matrix(1.0, 0.0, 0.0, 1.0, 0.5, 1.75)">
    <path d="M0.0 -0.15 L0.75 -0.95 0.8 -0.95 1.6 -1.5 2.75 -1.75 24.85 -1.75 26.0 -1.5 26.85 -0.95 26.9 -0.95 26.9 -0.9 27.6 -0.2 27.6 -0.15 27.95 0.7 28.0 0.8 28.0 0.85 28.1 1.9 28.1 15.25 28.05 15.25 28.0 16.65 27.6 17.65 26.9 18.3 26.9 18.35 26.85 18.35 26.0 18.95 24.85 19.15 2.75 19.15 1.6 18.95 0.75 18.35 0.05 17.65 0.0 17.55 -0.35 16.7 -0.4 16.65 -0.45 15.25 -0.5 15.25 -0.5 1.9 -0.4 0.85 -0.4 0.8 -0.35 0.7 0.0 -0.15 M2.0 -0.55 L1.35 -0.1 0.9 0.35 0.6 1.05 0.5 2.0 0.5 15.25 0.55 15.25 0.6 16.4 0.9 17.1 1.35 17.55 2.0 18.0 2.95 18.15 24.65 18.15 25.65 18.0 26.75 17.1 27.0 16.4 27.05 15.25 27.1 15.25 27.1 1.95 27.0 1.0 26.75 0.35 26.3 -0.1 25.65 -0.55 24.65 -0.75 2.95 -0.75 2.0 -0.55" fill="#000000" fill-rule="evenodd" stroke="none"/>
    <path d="M2.0 -0.55 L2.95 -0.75 24.65 -0.75 25.65 -0.55 26.3 -0.1 26.75 0.35 27.0 1.0 27.1 1.95 27.1 15.25 27.05 15.25 27.0 16.4 26.75 17.1 25.65 18.0 24.65 18.15 2.95 18.15 2.0 18.0 1.35 17.55 0.9 17.1 0.6 16.4 0.55 15.25 0.5 15.25 0.5 2.0 0.6 1.05 0.9 0.35 1.35 -0.1 2.0 -0.55" fill="#ffffff" fill-rule="evenodd" stroke="none"/>
  </g>
</svg>
