<?xml version="1.0" encoding="UTF-8" standalone="no"?>
<svg xmlns:ffdec="https://www.free-decompiler.com/flash" xmlns:xlink="http://www.w3.org/1999/xlink" ffdec:objectType="shape" height="19.0px" width="19.0px" xmlns="http://www.w3.org/2000/svg">
  <g transform="matrix(1.0, 0.0, 0.0, 1.0, 1.25, 1.25)">
    <path d="M15.0 1.55 Q17.75 4.3 17.75 8.25 17.75 12.15 15.0 14.95 12.25 17.75 8.25 17.75 4.35 17.75 1.55 14.95 -1.25 12.15 -1.25 8.25 -1.25 4.3 1.55 1.55 L1.55 1.5 Q4.35 -1.25 8.25 -1.25 12.2 -1.25 15.0 1.55 M15.25 8.25 Q15.25 5.3 13.25 3.3 11.2 1.25 8.25 1.25 5.35 1.25 3.3 3.3 1.25 5.3 1.25 8.25 1.25 11.15 3.3 13.2 5.35 15.25 8.25 15.25 11.15 15.25 13.2 13.2 L13.25 13.2 Q15.25 11.15 15.25 8.25" fill="#000000" fill-rule="evenodd" stroke="none"/>
  </g>
</svg>
