<?xml version="1.0" encoding="UTF-8" standalone="no"?>
<svg xmlns:ffdec="https://www.free-decompiler.com/flash" xmlns:xlink="http://www.w3.org/1999/xlink" ffdec:objectType="shape" height="63.95px" width="64.0px" xmlns="http://www.w3.org/2000/svg">
  <g transform="matrix(1.0, 0.0, 0.0, 1.0, 0.0, 0.0)">
    <path d="M61.25 37.95 L58.7 45.35 54.3 51.85 54.3 52.0 48.55 56.85 48.45 56.95 41.5 60.25 33.75 61.8 26.05 61.25 18.65 58.7 12.15 54.3 7.15 48.55 7.15 48.45 3.75 41.5 2.2 33.65 2.75 26.05 5.4 18.65 9.7 12.05 9.8 12.05 15.55 7.1 22.6 3.65 30.35 2.25 38.05 2.65 45.45 5.3 52.1 9.85 56.95 15.45 57.05 15.45 60.25 22.55 61.8 30.35 61.25 37.95" fill="#282828" fill-rule="evenodd" stroke="none"/>
    <path d="M62.35 21.7 L62.45 21.95 64.0 29.85 64.0 30.2 63.45 38.25 63.45 38.45 60.8 46.2 60.7 46.5 56.15 53.15 55.95 53.35 49.75 58.65 49.55 58.75 42.35 62.3 42.05 62.4 34.1 63.95 33.85 63.95 25.8 63.4 25.5 63.4 17.75 60.75 17.55 60.65 10.9 56.1 10.7 55.9 5.4 49.7 5.2 49.5 1.65 42.2 1.55 41.9 0.0 33.95 0.0 33.6 0.55 25.55 0.65 25.35 3.4 17.75 Q3.4 17.5 3.55 17.5 L7.95 10.8 8.15 10.55 14.35 5.25 14.55 5.05 Q18.2 3.3 21.85 1.5 L22.2 1.4 30.1 0.0 30.35 0.0 38.4 0.4 38.75 0.55 46.35 3.3 46.55 3.4 53.3 7.9 53.5 8.15 58.8 14.2 62.35 21.7" fill="#000000" fill-rule="evenodd" stroke="none"/>
    <path d="M41.4 46.8 L38.2 38.05 26.05 38.05 22.8 46.8 18.35 46.8 30.05 15.9 34.55 15.9 46.05 46.8 41.4 46.8 M36.8 34.1 L32.2 21.35 27.55 34.1 36.8 34.1" fill="#669933" fill-rule="evenodd" stroke="none"/>
  </g>
</svg>
