<?xml version="1.0" encoding="UTF-8" standalone="no"?>
<svg xmlns:ffdec="https://www.free-decompiler.com/flash" xmlns:xlink="http://www.w3.org/1999/xlink" ffdec:objectType="shape" height="1994.45px" width="1389.45px" xmlns="http://www.w3.org/2000/svg">
  <g transform="matrix(1.0, 0.0, 0.0, 1.0, 696.9, 1867.1)">
    <path d="M235.6 -1736.6 Q267.1 -1721.1 298.1 -1705.6 L357.1 -1667.6 410.6 -1623.1 459.6 -1573.1 502.1 -1517.1 538.1 -1457.1 Q552.6 -1425.1 566.6 -1393.1 L588.6 -1326.6 Q595.6 -1292.1 602.1 -1257.6 L608.1 -1187.6 608.1 -551.6 602.1 -482.1 Q595.6 -447.6 588.6 -413.1 L566.6 -346.65 Q552.6 -314.65 538.1 -282.65 L502.1 -222.65 459.6 -166.65 410.6 -116.65 Q384.1 -94.15 357.1 -72.15 L298.1 -34.15 Q283.1 -26.15 267.6 -18.65 L268.1 -17.65 Q265.6 -16.15 262.6 -15.15 L263.6 -13.15 Q238.1 -2.15 212.6 8.35 213.1 9.35 213.1 10.35 L208.1 13.35 Q205.1 14.35 201.6 14.85 201.6 13.85 201.1 12.85 176.1 21.35 150.6 29.35 L151.1 31.85 Q148.6 33.35 145.6 34.35 L139.1 34.85 Q139.1 33.85 138.6 32.85 L90.1 43.85 90.1 45.85 Q87.6 46.85 84.6 47.35 L78.1 47.35 77.6 44.85 66.1 44.85 48.1 42.85 36.1 44.85 13.1 44.85 -1.9 41.85 -16.9 44.85 -39.9 44.85 -58.9 41.85 -69.4 44.85 -81.9 44.85 Q-81.9 46.85 -82.4 48.35 L-89.4 48.35 -95.4 46.85 Q-94.9 45.35 -94.9 43.35 L-143.9 33.35 Q-144.4 34.85 -145.4 36.35 L-151.4 35.35 -156.9 33.35 Q-156.4 31.85 -156.4 30.35 L-206.9 14.35 Q-207.4 15.85 -208.4 16.85 L-214.4 15.85 -219.4 12.35 -218.4 9.85 Q-243.9 -1.65 -269.9 -13.15 L-268.9 -15.15 -274.4 -17.65 -273.4 -19.65 -301.9 -34.15 Q-330.9 -53.15 -360.4 -72.15 -387.4 -94.15 -414.4 -116.65 L-462.9 -166.65 -504.9 -222.65 -540.9 -282.65 -569.9 -346.65 Q-580.4 -379.6 -591.4 -413.1 L-605.4 -482.1 -611.4 -551.6 -611.4 -1187.6 -605.4 -1257.6 -591.4 -1326.6 Q-580.4 -1359.6 -569.9 -1393.1 L-540.9 -1457.1 -504.9 -1517.1 -462.9 -1573.1 -414.4 -1623.1 -360.4 -1667.6 Q-330.9 -1686.6 -301.9 -1705.6 -285.4 -1713.6 -269.4 -1721.6 L-269.9 -1722.1 Q-243.9 -1733.6 -218.4 -1745.1 L-219.4 -1747.6 Q-216.9 -1749.1 -214.4 -1751.1 L-208.4 -1752.1 -206.9 -1749.6 -156.4 -1765.6 Q-156.4 -1767.1 -156.9 -1768.6 L-151.4 -1770.6 -145.4 -1771.6 Q-144.4 -1770.1 -143.9 -1768.6 L-94.9 -1778.6 Q-94.9 -1780.1 -95.4 -1782.1 -92.4 -1782.6 -89.4 -1783.6 L-82.4 -1783.6 Q-81.9 -1781.6 -81.9 -1780.1 L-74.4 -1779.6 -36.9 -1784.1 33.1 -1784.1 66.1 -1780.1 78.1 -1780.1 Q78.6 -1781.1 78.6 -1782.1 L85.1 -1782.1 90.6 -1781.1 90.6 -1778.6 Q115.1 -1773.1 139.6 -1768.1 140.1 -1769.1 140.1 -1770.1 L147.1 -1769.6 Q150.1 -1768.1 152.6 -1767.1 152.6 -1766.1 152.1 -1765.1 177.6 -1756.6 203.1 -1748.6 L204.1 -1750.6 210.1 -1748.6 Q212.6 -1747.1 215.1 -1746.1 215.1 -1745.1 214.6 -1744.1 225.1 -1740.1 235.6 -1736.6" fill="#424242" fill-rule="evenodd" stroke="none"/>
    <path d="M-45.9 87.35 L-45.9 91.85 -33.9 91.85 -33.9 122.35 -45.9 122.35 -45.9 127.35 -68.9 127.35 -68.9 122.35 -81.9 122.35 -81.9 116.85 -97.4 116.85 -110.4 113.85 -106.4 94.85 -93.9 97.35 -81.9 97.35 -81.9 91.85 -68.9 91.85 -68.9 87.35 -45.9 87.35" fill="#424242" fill-rule="evenodd" stroke="none"/>
    <path d="M-156.4 104.35 L-181.4 97.35 -175.4 78.85 -151.9 84.85 Q-153.9 94.85 -156.4 104.35" fill="#424242" fill-rule="evenodd" stroke="none"/>
    <path d="M-696.9 -786.1 L-696.9 -808.6 -691.9 -808.6 -691.9 -821.1 -661.9 -821.1 -661.9 -808.6 -656.4 -808.6 -656.4 -786.1 -661.9 -786.1 -661.9 -772.6 -666.9 -772.6 -666.9 -746.6 -686.9 -746.6 -686.9 -772.6 -691.9 -772.6 -691.9 -786.1 -696.9 -786.1" fill="#424242" fill-rule="evenodd" stroke="none"/>
    <path d="M-226.9 83.35 Q-238.9 78.85 -250.9 73.85 L-242.9 55.85 -220.4 64.35 Q-223.4 73.85 -226.9 83.35" fill="#424242" fill-rule="evenodd" stroke="none"/>
    <path d="M-294.4 54.35 Q-305.9 48.35 -317.9 42.35 L-307.9 25.85 -286.4 36.35 -294.4 54.35" fill="#424242" fill-rule="evenodd" stroke="none"/>
    <path d="M-368.4 -10.65 L-348.4 2.35 -358.4 19.35 -369.9 12.85 -380.4 4.85 -368.4 -10.65" fill="#424242" fill-rule="evenodd" stroke="none"/>
    <path d="M-418.9 -22.65 L-439.4 -39.15 Q-432.4 -46.15 -425.9 -53.65 L-406.9 -38.65 -418.9 -22.65" fill="#424242" fill-rule="evenodd" stroke="none"/>
    <path d="M-473.4 -71.65 Q-482.4 -81.15 -491.9 -90.65 L-476.9 -103.65 -459.9 -86.65 Q-466.4 -79.15 -473.4 -71.65" fill="#424242" fill-rule="evenodd" stroke="none"/>
    <path d="M-523.4 -125.65 Q-531.4 -135.65 -539.4 -146.15 L-523.4 -157.15 -508.4 -138.65 -523.4 -125.65" fill="#424242" fill-rule="evenodd" stroke="none"/>
    <path d="M-567.4 -183.65 L-581.4 -205.65 Q-572.9 -210.15 -564.4 -215.15 L-551.4 -195.15 -567.4 -183.65" fill="#424242" fill-rule="evenodd" stroke="none"/>
    <path d="M-605.4 -246.65 L-617.4 -270.15 -599.4 -278.15 -588.4 -256.65 -605.4 -246.65" fill="#424242" fill-rule="evenodd" stroke="none"/>
    <path d="M-635.9 -313.15 L-644.9 -337.65 -626.4 -343.65 -617.4 -321.15 Q-626.4 -317.15 -635.9 -313.15" fill="#424242" fill-rule="evenodd" stroke="none"/>
    <path d="M-659.9 -383.1 Q-662.9 -395.6 -666.4 -408.1 L-647.4 -412.1 Q-645.9 -406.1 -644.9 -400.1 L-640.9 -388.6 Q-650.4 -385.6 -659.9 -383.1" fill="#424242" fill-rule="evenodd" stroke="none"/>
    <path d="M-660.9 -481.6 L-656.9 -457.6 Q-666.4 -455.6 -676.4 -454.1 L-679.4 -466.6 -680.4 -479.6 -660.9 -481.6" fill="#424242" fill-rule="evenodd" stroke="none"/>
    <path d="M-685.9 -526.6 Q-686.4 -539.6 -687.4 -552.6 L-667.4 -552.6 -667.4 -540.6 Q-666.4 -534.6 -665.9 -528.6 L-685.9 -526.6" fill="#424242" fill-rule="evenodd" stroke="none"/>
    <path d="M-667.4 -698.6 L-667.4 -672.6 -687.4 -672.6 -687.4 -698.6 -667.4 -698.6" fill="#424242" fill-rule="evenodd" stroke="none"/>
    <path d="M-687.4 -599.1 L-687.4 -625.1 -667.4 -625.1 -667.4 -599.1 -687.4 -599.1" fill="#424242" fill-rule="evenodd" stroke="none"/>
    <path d="M-93.9 -1836.6 Q-99.9 -1835.1 -106.4 -1834.1 L-110.4 -1853.6 -97.4 -1856.6 -81.9 -1856.6 -81.9 -1861.6 -68.9 -1861.6 -68.9 -1867.1 -45.9 -1867.1 -45.9 -1861.6 -33.9 -1861.6 -33.9 -1831.6 -45.9 -1831.6 -45.9 -1826.6 -68.9 -1826.6 -68.9 -1831.6 -81.9 -1831.6 -81.9 -1836.6 -93.9 -1836.6" fill="#424242" fill-rule="evenodd" stroke="none"/>
    <path d="M-181.4 -1837.1 L-156.4 -1844.1 Q-153.9 -1834.1 -151.9 -1824.6 L-175.4 -1818.6 -181.4 -1837.1" fill="#424242" fill-rule="evenodd" stroke="none"/>
    <path d="M-691.9 -953.1 L-691.9 -966.1 -686.9 -966.1 -686.9 -992.6 -666.9 -992.6 -666.9 -966.1 -661.9 -966.1 -661.9 -953.1 -656.4 -953.1 -656.4 -930.1 -661.9 -930.1 -661.9 -917.6 -691.9 -917.6 -691.9 -930.1 -696.9 -930.1 -696.9 -953.1 -691.9 -953.1" fill="#424242" fill-rule="evenodd" stroke="none"/>
    <path d="M-250.9 -1813.1 Q-238.9 -1817.6 -226.9 -1822.6 -223.4 -1813.1 -220.4 -1803.6 -225.9 -1801.6 -231.9 -1800.1 L-242.9 -1795.1 -250.9 -1813.1" fill="#424242" fill-rule="evenodd" stroke="none"/>
    <path d="M-317.9 -1782.1 Q-305.9 -1788.1 -294.4 -1794.1 L-286.4 -1776.1 Q-296.9 -1770.6 -307.9 -1765.1 L-317.9 -1782.1" fill="#424242" fill-rule="evenodd" stroke="none"/>
    <path d="M-380.4 -1744.6 Q-369.4 -1751.6 -358.4 -1759.1 L-348.4 -1741.6 -368.4 -1728.6 -380.4 -1744.6" fill="#424242" fill-rule="evenodd" stroke="none"/>
    <path d="M-439.4 -1700.1 Q-428.9 -1708.1 -418.9 -1716.6 L-406.9 -1700.6 -425.9 -1685.6 -439.4 -1700.1" fill="#424242" fill-rule="evenodd" stroke="none"/>
    <path d="M-491.9 -1649.1 Q-482.4 -1658.1 -473.4 -1667.6 L-459.9 -1653.1 -476.9 -1636.1 -491.9 -1649.1" fill="#424242" fill-rule="evenodd" stroke="none"/>
    <path d="M-539.4 -1593.6 L-523.4 -1614.1 Q-515.9 -1607.1 -508.4 -1600.6 -515.9 -1591.1 -523.4 -1582.1 -531.4 -1587.6 -539.4 -1593.6" fill="#424242" fill-rule="evenodd" stroke="none"/>
    <path d="M-581.4 -1533.6 L-567.4 -1555.6 Q-559.4 -1549.6 -551.4 -1544.1 L-564.4 -1524.1 Q-572.9 -1528.6 -581.4 -1533.6" fill="#424242" fill-rule="evenodd" stroke="none"/>
    <path d="M-617.4 -1469.6 L-605.4 -1492.6 Q-596.9 -1487.6 -588.4 -1483.1 L-599.4 -1461.6 -617.4 -1469.6" fill="#424242" fill-rule="evenodd" stroke="none"/>
    <path d="M-644.9 -1402.1 L-635.9 -1426.1 Q-626.4 -1422.1 -617.4 -1418.6 L-626.4 -1396.1 -644.9 -1402.1" fill="#424242" fill-rule="evenodd" stroke="none"/>
    <path d="M-640.9 -1350.6 Q-643.9 -1339.1 -647.4 -1327.6 L-666.4 -1331.6 Q-662.9 -1344.1 -659.9 -1356.6 L-640.9 -1350.6" fill="#424242" fill-rule="evenodd" stroke="none"/>
    <path d="M-656.9 -1281.6 L-660.9 -1258.1 -680.4 -1259.6 -679.4 -1272.6 -676.4 -1285.6 -656.9 -1281.6" fill="#424242" fill-rule="evenodd" stroke="none"/>
    <path d="M-687.4 -1186.6 Q-686.4 -1199.6 -685.9 -1212.6 L-665.9 -1210.6 Q-666.4 -1204.6 -667.4 -1198.6 L-667.4 -1186.6 -687.4 -1186.6" fill="#424242" fill-rule="evenodd" stroke="none"/>
    <path d="M-667.4 -1066.6 L-667.4 -1040.6 -687.4 -1040.6 -687.4 -1066.6 -667.4 -1066.6" fill="#424242" fill-rule="evenodd" stroke="none"/>
    <path d="M-667.4 -1140.1 L-667.4 -1114.1 -687.4 -1114.1 -687.4 -1140.1 -667.4 -1140.1" fill="#424242" fill-rule="evenodd" stroke="none"/>
    <path d="M89.6 97.35 L101.6 94.85 Q104.1 104.35 106.1 113.85 L92.6 116.85 77.6 116.85 77.6 122.35 64.6 122.35 64.6 127.35 41.6 127.35 41.6 122.35 29.1 122.35 29.1 91.85 41.6 91.85 41.6 87.35 64.6 87.35 64.6 91.85 77.6 91.85 77.6 97.35 89.6 97.35" fill="#424242" fill-rule="evenodd" stroke="none"/>
    <path d="M147.6 84.85 L171.1 78.85 177.1 97.35 152.1 104.35 147.6 84.85" fill="#424242" fill-rule="evenodd" stroke="none"/>
    <path d="M658.05 -808.6 L658.05 -821.1 688.05 -821.1 688.05 -808.6 692.55 -808.6 692.55 -786.1 688.05 -786.1 688.05 -772.6 682.55 -772.6 682.55 -746.6 663.05 -746.6 663.05 -772.6 658.05 -772.6 658.05 -786.1 652.55 -786.1 652.55 -808.6 658.05 -808.6" fill="#424242" fill-rule="evenodd" stroke="none"/>
    <path d="M216.1 64.35 Q227.6 60.35 238.6 55.85 L246.6 73.85 Q234.6 78.85 222.1 83.35 L216.1 64.35" fill="#424242" fill-rule="evenodd" stroke="none"/>
    <path d="M282.1 36.35 Q293.1 31.35 303.6 25.85 L313.1 42.35 290.1 54.35 282.1 36.35" fill="#424242" fill-rule="evenodd" stroke="none"/>
    <path d="M344.1 2.35 L364.1 -10.65 Q370.1 -2.65 376.1 4.85 L365.6 12.85 Q360.1 16.35 354.1 19.35 L344.1 2.35" fill="#424242" fill-rule="evenodd" stroke="none"/>
    <path d="M402.6 -38.65 L421.6 -53.65 434.6 -39.15 Q424.6 -30.65 414.6 -22.65 L402.6 -38.65" fill="#424242" fill-rule="evenodd" stroke="none"/>
    <path d="M455.6 -86.65 L472.6 -103.65 487.6 -90.65 469.1 -71.65 455.6 -86.65" fill="#424242" fill-rule="evenodd" stroke="none"/>
    <path d="M504.6 -138.65 Q512.1 -147.65 519.6 -157.15 L535.6 -146.15 519.6 -125.65 504.6 -138.65" fill="#424242" fill-rule="evenodd" stroke="none"/>
    <path d="M547.1 -195.15 Q554.1 -205.15 560.6 -215.15 569.1 -210.15 577.6 -205.65 L563.6 -183.65 547.1 -195.15" fill="#424242" fill-rule="evenodd" stroke="none"/>
    <path d="M584.1 -256.65 L595.1 -278.15 613.1 -270.15 Q607.6 -258.15 601.6 -246.65 593.1 -251.65 584.1 -256.65" fill="#424242" fill-rule="evenodd" stroke="none"/>
    <path d="M641.05 -337.65 L632.1 -313.15 613.6 -321.15 618.6 -332.15 Q620.6 -337.65 622.1 -343.65 L641.05 -337.65" fill="#424242" fill-rule="evenodd" stroke="none"/>
    <path d="M637.1 -388.6 Q640.55 -400.1 643.55 -412.1 L662.55 -408.1 Q659.55 -395.6 656.05 -383.1 646.55 -385.6 637.1 -388.6" fill="#424242" fill-rule="evenodd" stroke="none"/>
    <path d="M653.05 -457.6 L657.05 -481.6 676.55 -479.6 672.55 -454.1 653.05 -457.6" fill="#424242" fill-rule="evenodd" stroke="none"/>
    <path d="M662.05 -528.6 Q663.05 -540.6 663.55 -552.6 L683.05 -552.6 682.05 -526.6 662.05 -528.6" fill="#424242" fill-rule="evenodd" stroke="none"/>
    <path d="M663.55 -672.6 L663.55 -698.6 683.05 -698.6 683.05 -672.6 663.55 -672.6" fill="#424242" fill-rule="evenodd" stroke="none"/>
    <path d="M663.55 -599.1 L663.55 -625.1 683.05 -625.1 683.05 -599.1 663.55 -599.1" fill="#424242" fill-rule="evenodd" stroke="none"/>
    <path d="M92.6 -1856.6 L106.1 -1853.6 Q104.1 -1843.6 101.6 -1834.1 95.6 -1835.1 89.6 -1836.6 L77.6 -1836.6 77.6 -1831.6 64.6 -1831.6 64.6 -1826.6 41.6 -1826.6 41.6 -1831.6 29.1 -1831.6 29.1 -1861.6 41.6 -1861.6 41.6 -1867.1 64.6 -1867.1 64.6 -1861.6 77.6 -1861.6 77.6 -1856.6 92.6 -1856.6" fill="#424242" fill-rule="evenodd" stroke="none"/>
    <path d="M171.1 -1818.6 L147.6 -1824.6 Q150.1 -1834.1 152.1 -1844.1 L177.1 -1837.1 171.1 -1818.6" fill="#424242" fill-rule="evenodd" stroke="none"/>
    <path d="M682.55 -966.1 L688.05 -966.1 688.05 -953.1 692.55 -953.1 692.55 -930.1 688.05 -930.1 688.05 -917.6 658.05 -917.6 658.05 -930.1 652.55 -930.1 652.55 -953.1 658.05 -953.1 658.05 -966.1 663.05 -966.1 663.05 -992.6 682.55 -992.6 682.55 -966.1" fill="#424242" fill-rule="evenodd" stroke="none"/>
    <path d="M222.1 -1822.6 Q234.6 -1817.6 246.6 -1813.1 L238.6 -1795.1 227.6 -1800.1 216.1 -1803.6 222.1 -1822.6" fill="#424242" fill-rule="evenodd" stroke="none"/>
    <path d="M303.6 -1765.1 L282.1 -1776.1 290.1 -1794.1 313.1 -1782.1 Q308.6 -1773.6 303.6 -1765.1" fill="#424242" fill-rule="evenodd" stroke="none"/>
    <path d="M364.1 -1728.6 L344.1 -1741.6 354.1 -1759.1 Q365.1 -1751.6 376.1 -1744.6 L364.1 -1728.6" fill="#424242" fill-rule="evenodd" stroke="none"/>
    <path d="M421.6 -1685.6 L402.6 -1700.6 414.6 -1716.6 425.1 -1709.1 434.6 -1700.1 Q428.1 -1692.6 421.6 -1685.6" fill="#424242" fill-rule="evenodd" stroke="none"/>
    <path d="M472.6 -1636.1 L455.6 -1653.1 Q462.6 -1660.1 469.1 -1667.6 L487.6 -1649.1 472.6 -1636.1" fill="#424242" fill-rule="evenodd" stroke="none"/>
    <path d="M519.6 -1582.1 L504.6 -1600.6 519.6 -1614.1 Q527.6 -1603.6 535.6 -1593.6 527.6 -1587.6 519.6 -1582.1" fill="#424242" fill-rule="evenodd" stroke="none"/>
    <path d="M563.6 -1555.6 L577.6 -1533.6 Q569.1 -1528.6 560.6 -1524.1 L554.6 -1534.6 547.1 -1544.1 Q555.6 -1549.6 563.6 -1555.6" fill="#424242" fill-rule="evenodd" stroke="none"/>
    <path d="M595.1 -1461.6 L584.1 -1483.1 Q593.1 -1487.6 601.6 -1492.6 L613.1 -1469.6 595.1 -1461.6" fill="#424242" fill-rule="evenodd" stroke="none"/>
    <path d="M632.1 -1426.1 L641.05 -1402.1 622.1 -1396.1 613.6 -1418.6 Q623.1 -1422.1 632.1 -1426.1" fill="#424242" fill-rule="evenodd" stroke="none"/>
    <path d="M643.55 -1327.6 L637.1 -1350.6 656.05 -1356.6 Q659.55 -1344.1 662.55 -1331.6 L643.55 -1327.6" fill="#424242" fill-rule="evenodd" stroke="none"/>
    <path d="M657.05 -1258.1 L653.05 -1281.6 672.55 -1285.6 676.55 -1259.6 657.05 -1258.1" fill="#424242" fill-rule="evenodd" stroke="none"/>
    <path d="M663.55 -1186.6 Q663.05 -1198.6 662.05 -1210.6 L682.05 -1212.6 683.05 -1186.6 663.55 -1186.6" fill="#424242" fill-rule="evenodd" stroke="none"/>
    <path d="M663.55 -1040.6 L663.55 -1066.6 683.05 -1066.6 683.05 -1040.6 663.55 -1040.6" fill="#424242" fill-rule="evenodd" stroke="none"/>
    <path d="M683.05 -1140.1 L683.05 -1114.1 663.55 -1114.1 663.55 -1140.1 683.05 -1140.1" fill="#424242" fill-rule="evenodd" stroke="none"/>
    <path d="M-230.9 -122.15 L-234.9 -115.15 -209.4 -102.15 -249.4 -24.65 -274.4 -37.65 Q-275.4 -35.15 -276.9 -32.65 L-304.4 -46.65 Q-281.4 -91.15 -258.9 -136.15 L-230.9 -122.15" fill="#6f6f6f" fill-rule="evenodd" stroke="none"/>
    <path d="M-208.9 -160.65 Q-210.4 -157.15 -212.4 -154.15 -205.4 -150.65 -198.9 -147.15 L-210.9 -124.15 Q-217.4 -127.15 -223.9 -130.65 L-226.9 -125.65 Q-264.4 -144.65 -302.4 -164.15 L-284.4 -199.15 -208.9 -160.65" fill="#6f6f6f" fill-rule="evenodd" stroke="none"/>
    <path d="M-154.9 -134.15 Q-136.4 -189.65 -118.4 -245.65 -95.4 -238.15 -72.4 -231.15 -90.4 -175.15 -108.9 -119.65 -131.9 -126.65 -154.9 -134.15" fill="#6f6f6f" fill-rule="evenodd" stroke="none"/>
    <path d="M114.6 -245.65 L150.6 -134.15 Q127.6 -126.65 104.6 -119.65 L68.6 -231.15 Q91.6 -238.15 114.6 -245.65" fill="#6f6f6f" fill-rule="evenodd" stroke="none"/>
    <path d="M281.1 -163.65 L269.6 -187.15 271.6 -188.15 268.1 -194.65 343.1 -232.65 361.1 -197.65 286.1 -159.65 283.1 -164.65 281.1 -163.65" fill="#6f6f6f" fill-rule="evenodd" stroke="none"/>
    <path d="M55.1 -155.65 L55.1 -124.15 47.1 -124.15 47.1 -107.15 -50.4 -107.15 -50.4 -124.15 -56.4 -124.15 -56.4 -155.65 55.1 -155.65" fill="#6f6f6f" fill-rule="evenodd" stroke="none"/>
    <path d="M-267.4 -21.65 Q-242.9 -69.15 -218.9 -117.15 L-226.4 -121.65 -207.4 -159.65 Q-180.9 -147.65 -154.9 -135.65 L-71.9 -112.65 67.1 -112.65 Q70.6 -113.15 74.1 -114.15 L73.6 -115.65 96.1 -120.65 96.6 -119.15 Q100.1 -119.65 103.6 -120.65 L151.1 -136.65 Q177.6 -148.15 203.6 -160.15 L206.6 -153.65 Q207.6 -153.65 208.1 -154.15 L205.1 -160.65 Q236.1 -176.65 266.6 -192.65 L284.6 -157.65 222.6 -125.65 220.1 -130.65 Q219.6 -130.15 218.6 -130.15 L222.6 -122.65 Q218.6 -120.15 214.6 -118.15 L263.6 -22.65 257.6 -19.65 258.1 -17.15 Q234.1 -6.15 210.1 4.35 L209.6 1.85 Q204.1 4.35 198.1 6.35 198.6 7.35 198.6 8.35 174.1 16.85 149.1 24.85 L148.1 22.35 142.6 24.35 136.6 25.35 137.1 27.85 Q113.1 33.35 88.6 38.35 L88.6 35.85 82.1 37.35 77.1 36.85 77.1 39.35 -81.9 39.35 -81.9 36.85 -87.4 36.85 -93.4 35.85 Q-93.4 37.35 -93.9 38.35 L-141.9 27.85 Q-141.4 26.85 -141.4 25.35 L-146.9 24.35 -152.9 22.35 -153.9 24.85 -203.9 8.85 -202.9 6.35 -214.4 1.85 -215.4 4.35 Q-238.9 -6.15 -262.9 -17.15 -262.4 -18.15 -262.4 -19.65 L-267.4 -21.65" fill="#959595" fill-rule="evenodd" stroke="none"/>
    <path d="M250.6 -136.15 Q237.6 -129.15 224.1 -122.65 L219.1 -132.65 Q232.6 -139.15 245.6 -146.15 L250.6 -136.15" fill="#959595" fill-rule="evenodd" stroke="none"/>
    <path d="M230.1 -41.15 L217.1 -39.65 Q216.1 -51.15 214.6 -63.15 L227.1 -64.65 230.1 -41.15" fill="#6f6f6f" fill-rule="evenodd" stroke="none"/>
    <path d="M-172.4 -53.15 L-185.4 -66.15 Q-173.4 -77.65 -161.9 -89.65 L-148.9 -76.65 Q-160.4 -64.65 -172.4 -53.15" fill="#6f6f6f" fill-rule="evenodd" stroke="none"/>
    <path d="M-172.4 -43.15 Q-174.4 -46.65 -176.9 -50.15 -170.4 -54.15 -163.9 -58.65 -161.4 -55.15 -159.4 -51.65 L-172.4 -43.15" fill="#6f6f6f" fill-rule="evenodd" stroke="none"/>
    <path d="M-148.9 -63.65 Q-152.9 -65.15 -157.4 -67.15 L-151.4 -81.15 -143.4 -78.15 Q-145.9 -70.65 -148.9 -63.65" fill="#6f6f6f" fill-rule="evenodd" stroke="none"/>
    <path d="M212.1 -120.15 L217.1 -111.15 Q214.6 -109.65 211.6 -108.15 L207.1 -117.65 Q209.6 -118.65 212.1 -120.15" fill="#6f6f6f" fill-rule="evenodd" stroke="none"/>
    <path d="M204.6 -149.15 L203.6 -143.15 193.1 -145.15 194.1 -150.65 204.6 -149.15" fill="#6f6f6f" fill-rule="evenodd" stroke="none"/>
    <path d="M-39.9 39.35 L-39.9 44.85 -69.9 44.85 -69.9 39.35 -39.9 39.35" fill="#ffffff" fill-rule="evenodd" stroke="none"/>
    <path d="M13.1 39.35 L13.1 44.85 -16.9 44.85 -16.9 39.35 13.1 39.35" fill="#ffffff" fill-rule="evenodd" stroke="none"/>
    <path d="M66.1 39.35 L66.1 44.85 36.1 44.85 36.1 39.35 66.1 39.35" fill="#ffffff" fill-rule="evenodd" stroke="none"/>
    <path d="M279.6 -79.65 Q266.6 -72.65 253.1 -66.15 L224.1 -122.65 Q237.6 -129.15 250.6 -136.15 L279.6 -79.65" fill="#ffffff" fill-rule="evenodd" stroke="none"/>
  </g>
</svg>
