<?xml version="1.0" encoding="UTF-8" standalone="no"?>
<svg xmlns:ffdec="https://www.free-decompiler.com/flash" xmlns:xlink="http://www.w3.org/1999/xlink" ffdec:objectType="morphshape" height="34.4px" width="30.2px" xmlns="http://www.w3.org/2000/svg">
  <g transform="matrix(1.0, 0.0, 0.0, 1.0, 15.1, 41.1)">
    <path d="M-15.1 -19.5 Q-15.05 -16.8 -14.15 -14.5 -13.6 -13.1 -12.05 -10.55 -11.0 -8.6 -10.95 -6.9 L-4.45 -10.3 0.55 -6.7 5.05 -11.05 11.05 -7.7 Q11.25 -9.1 12.05 -10.55 L14.1 -14.5 Q15.0 -16.85 15.1 -19.5 15.2 -22.65 14.1 -25.1 13.05 -27.5 10.2 -29.15 7.7 -30.6 5.75 -30.6 L2.05 -29.9 0.0 -29.25 Q-3.55 -30.6 -5.75 -30.6 -7.7 -30.6 -10.2 -29.15 -13.05 -27.5 -14.15 -25.1 -15.25 -22.65 -15.1 -19.5" fill="#ffffff" fill-rule="evenodd" stroke="none">
      <animate attributeName="fill" dur="2s" repeatCount="indefinite" values="#ffffff;#ffffff"/>
      <animate attributeName="fill-opacity" dur="2s" repeatCount="indefinite" values="1.0;1.0"/>
      <animate attributeName="d" dur="2s" repeatCount="indefinite" values="M-15.1 -19.5 Q-15.05 -16.8 -14.15 -14.5 -13.6 -13.1 -12.05 -10.55 -11.0 -8.6 -10.95 -6.9 L-4.45 -10.3 0.55 -6.7 5.05 -11.05 11.05 -7.7 Q11.25 -9.1 12.05 -10.55 L14.1 -14.5 Q15.0 -16.85 15.1 -19.5 15.2 -22.65 14.1 -25.1 13.05 -27.5 10.2 -29.15 7.7 -30.6 5.75 -30.6 L2.05 -29.9 0.0 -29.25 Q-3.55 -30.6 -5.75 -30.6 -7.7 -30.6 -10.2 -29.15 -13.05 -27.5 -14.15 -25.1 -15.25 -22.65 -15.1 -19.5;M-15.1 -30.0 Q-15.05 -27.3 -14.15 -25.0 -13.6 -23.6 -12.05 -21.05 -11.0 -19.1 -10.95 -17.4 L-4.45 -20.8 0.55 -17.2 5.05 -21.55 11.05 -18.2 Q11.25 -19.6 12.05 -21.05 L14.1 -25.0 Q15.0 -27.35 15.1 -30.0 15.2 -33.15 14.1 -35.6 13.05 -38.0 10.2 -39.65 7.7 -41.1 5.75 -41.1 L2.05 -40.4 0.0 -39.75 Q-3.55 -41.1 -5.75 -41.1 -7.7 -41.1 -10.2 -39.65 -13.05 -38.0 -14.15 -35.6 -15.25 -33.15 -15.1 -30.0"/>
    </path>
    <path d="M-15.1 -19.5 Q-15.25 -22.65 -14.15 -25.1 -13.05 -27.5 -10.2 -29.15 -7.7 -30.6 -5.75 -30.6 -3.55 -30.6 0.0 -29.25 L2.05 -29.9 5.75 -30.6 Q7.7 -30.6 10.2 -29.15 13.05 -27.5 14.1 -25.1 15.2 -22.65 15.1 -19.5 15.0 -16.85 14.1 -14.5 L12.05 -10.55 Q11.25 -9.1 11.05 -7.7 L5.05 -11.05 0.55 -6.7 -4.45 -10.3 -10.95 -6.9 Q-11.0 -8.6 -12.05 -10.55 -13.6 -13.1 -14.15 -14.5 -15.05 -16.8 -15.1 -19.5 Z" fill="none" stroke="#000000" stroke-linecap="round" stroke-linejoin="round" stroke-opacity="0.0" stroke-width="0.0">
      <animate attributeName="stroke" dur="2s" repeatCount="indefinite" values="#000000;#000001"/>
      <animate attributeName="stroke-width" dur="2s" repeatCount="indefinite" values="0.0;0.0"/>
      <animate attributeName="fill-opacity" dur="2s" repeatCount="indefinite" values="0.0;0.0"/>
      <animate attributeName="d" dur="2s" repeatCount="indefinite" values="M-15.1 -19.5 Q-15.25 -22.65 -14.15 -25.1 -13.05 -27.5 -10.2 -29.15 -7.7 -30.6 -5.75 -30.6 -3.55 -30.6 0.0 -29.25 L2.05 -29.9 5.75 -30.6 Q7.7 -30.6 10.2 -29.15 13.05 -27.5 14.1 -25.1 15.2 -22.65 15.1 -19.5 15.0 -16.85 14.1 -14.5 L12.05 -10.55 Q11.25 -9.1 11.05 -7.7 L5.05 -11.05 0.55 -6.7 -4.45 -10.3 -10.95 -6.9 Q-11.0 -8.6 -12.05 -10.55 -13.6 -13.1 -14.15 -14.5 -15.05 -16.8 -15.1 -19.5 Z;M-15.1 -30.0 Q-15.25 -33.15 -14.15 -35.6 -13.05 -38.0 -10.2 -39.65 -7.7 -41.1 -5.75 -41.1 -3.55 -41.1 0.0 -39.75 L2.05 -40.4 5.75 -41.1 Q7.7 -41.1 10.2 -39.65 13.05 -38.0 14.1 -35.6 15.2 -33.15 15.1 -30.0 15.0 -27.35 14.1 -25.0 L12.05 -21.05 Q11.25 -19.6 11.05 -18.2 L5.05 -21.55 0.55 -17.2 -4.45 -20.8 -10.95 -17.4 Q-11.0 -19.1 -12.05 -21.05 -13.6 -23.6 -14.15 -25.0 -15.05 -27.3 -15.1 -30.0 Z"/>
    </path>
  </g>
</svg>
