<?xml version="1.0" encoding="UTF-8" standalone="no"?>
<svg xmlns:ffdec="https://www.free-decompiler.com/flash" xmlns:xlink="http://www.w3.org/1999/xlink" ffdec:objectType="shape" height="569.15px" width="704.0px" xmlns="http://www.w3.org/2000/svg">
  <g transform="matrix(1.0, 0.0, 0.0, 1.0, 350.0, 309.0)">
    <path d="M354.0 -309.0 L354.0 260.15 -48.35 260.15 -48.35 94.15 -313.35 94.15 -313.35 53.8 -350.0 53.8 -350.0 -56.2 -313.35 -56.2 -313.35 -96.5 -48.35 -96.5 -48.35 -309.0 354.0 -309.0" fill="#434343" fill-rule="evenodd" stroke="none"/>
    <path d="M208.65 66.0 L208.65 -64.7 130.0 -64.7 130.0 66.0 208.65 66.0 M83.65 106.0 L83.65 100.65 63.5 100.65 63.5 149.3 83.3 149.3 83.3 120.65 190.0 120.65 190.0 141.3 199.0 141.3 199.0 121.0 209.0 121.0 209.0 111.0 237.5 111.0 237.5 103.3 209.65 103.3 209.65 100.65 180.5 100.65 180.5 106.0 83.65 106.0 M198.0 -128.7 L198.0 -123.7 187.3 -123.7 187.3 -128.7 181.3 -128.7 181.3 -122.3 74.25 -122.3 74.25 -109.05 69.5 -109.05 69.5 -104.35 222.3 -104.35 222.3 -128.7 198.0 -128.7 M140.0 -214.7 L80.3 -214.7 80.3 -186.8 140.0 -186.8 140.0 -214.7 M344.0 -293.0 L344.0 -278.7 349.5 -278.7 349.5 -128.7 344.0 -128.7 344.0 -104.0 349.5 -104.0 349.5 101.0 344.3 101.0 344.3 103.65 304.0 103.65 304.0 111.0 343.5 111.0 343.5 125.5 348.0 125.5 348.0 240.5 199.0 240.5 199.0 181.8 176.0 181.8 176.0 184.3 147.65 184.3 147.65 181.8 98.3 181.8 98.3 189.3 101.4 189.3 101.4 228.5 68.05 228.5 68.05 220.0 62.5 220.0 62.5 226.15 -17.2 226.15 -17.2 222.3 -25.5 222.3 -25.5 115.65 -18.2 115.65 -18.2 119.8 14.8 119.8 14.8 100.65 2.85 100.65 2.85 39.15 -52.7 39.15 -52.7 17.95 -64.0 17.95 -64.0 28.4 -58.25 28.4 -58.25 69.35 -77.0 69.35 -77.0 72.95 -111.2 72.95 -111.2 69.7 -124.2 69.7 -124.2 27.2 -150.0 27.2 -150.0 35.0 -139.0 35.0 -139.0 86.95 -191.2 86.95 -191.2 35.0 -180.2 35.0 -180.2 27.2 -216.0 27.2 -216.0 35.0 -205.0 35.0 -205.0 86.95 -257.2 86.95 -257.2 35.0 -246.2 35.0 -246.2 27.2 -274.0 27.2 -274.0 36.45 -286.5 36.45 -286.5 39.95 -321.2 39.95 -321.2 36.45 -333.75 36.45 -333.75 -35.05 -321.2 -35.05 -321.2 -38.55 -286.5 -38.55 -286.5 -35.05 -274.0 -35.05 -274.0 -25.8 -246.2 -25.8 -246.2 -33.05 -257.2 -33.05 -257.2 -85.0 -205.0 -85.0 -205.0 -33.05 -216.0 -33.05 -216.0 -25.8 -180.2 -25.8 -180.2 -33.05 -191.2 -33.05 -191.2 -85.0 -139.0 -85.0 -139.0 -33.05 -150.0 -33.05 -150.0 -25.8 -124.2 -25.8 -124.2 -68.3 -111.2 -68.3 -111.2 -71.5 -77.0 -71.5 -77.0 -68.1 -58.25 -68.1 -58.25 -27.15 -64.0 -27.15 -64.0 -16.55 -52.7 -16.55 -52.7 -37.85 2.85 -37.85 2.85 -104.35 43.15 -104.35 43.15 -109.05 31.9 -109.05 31.9 -151.55 19.7 -151.55 19.7 -149.55 26.7 -149.55 26.7 -124.2 -13.45 -124.2 -13.45 -149.55 3.4 -149.55 3.4 -151.55 -13.45 -151.55 -13.45 -176.85 51.65 -176.85 51.65 -219.3 47.5 -219.3 47.5 -204.5 -1.85 -204.5 -1.85 -250.8 47.5 -250.8 47.5 -246.8 51.65 -246.8 51.65 -281.55 181.3 -281.55 181.3 -155.7 187.3 -155.7 187.3 -163.0 194.3 -163.0 194.3 -183.7 192.65 -183.7 192.65 -210.0 207.3 -210.0 207.3 -293.0 224.5 -293.0 224.5 -289.0 255.3 -289.0 255.3 -293.0 297.8 -293.0 297.8 -289.0 328.65 -289.0 328.65 -293.0 344.0 -293.0" fill="#969696" fill-rule="evenodd" stroke="none"/>
    <path d="M183.55 -64.7 L183.55 -61.85 206.4 -61.85 206.4 63.15 183.55 63.15 183.55 66.0 155.3 66.0 155.3 63.15 132.4 63.15 132.4 -61.85 155.3 -61.85 155.3 -64.7 183.55 -64.7" fill="#707070" fill-rule="evenodd" stroke="none"/>
    <path d="M208.5 -27.0 L220.5 -27.0 220.5 28.5 208.5 28.5 208.5 -27.0" fill="#707070" fill-rule="evenodd" stroke="none"/>
    <path d="M242.55 59.8 L224.05 41.25 235.9 29.4 254.4 47.95 242.55 59.8" fill="#707070" fill-rule="evenodd" stroke="none"/>
    <path d="M236.55 -27.5 L225.6 -40.15 245.4 -57.3 256.35 -44.65 236.55 -27.5" fill="#707070" fill-rule="evenodd" stroke="none"/>
    <path d="M262.65 -15.0 L289.9 -15.0 289.9 13.25 262.65 13.25 262.65 -15.0" fill="#707070" fill-rule="evenodd" stroke="none"/>
    <path d="M324.5 -31.0 L324.5 29.0 308.5 29.0 308.5 -31.0 324.5 -31.0" fill="#707070" fill-rule="evenodd" stroke="none"/>
    <path d="M344.3 103.65 L308.5 103.65 308.5 95.3 344.3 95.3 344.3 103.65" fill="#707070" fill-rule="evenodd" stroke="none"/>
    <path d="M332.75 -120.5 L341.75 -120.5 341.75 -111.5 332.75 -111.5 332.75 -120.5" fill="#707070" fill-rule="evenodd" stroke="none"/>
    <path d="M-38.5 34.15 L-47.5 34.15 -47.5 25.15 -38.5 25.15 -38.5 34.15" fill="#707070" fill-rule="evenodd" stroke="none"/>
    <path d="M-38.5 -23.85 L-47.5 -23.85 -47.5 -32.85 -38.5 -32.85 -38.5 -23.85" fill="#707070" fill-rule="evenodd" stroke="none"/>
    <path d="M-320.3 -16.55 L-320.3 19.05 -333.75 19.05 -333.75 -16.55 -320.3 -16.55" fill="#707070" fill-rule="evenodd" stroke="none"/>
    <path d="M90.65 -35.7 L90.65 36.3 69.0 36.3 69.0 -35.7 90.65 -35.7" fill="#707070" fill-rule="evenodd" stroke="none"/>
    <path d="M2.85 -54.05 L2.85 -90.1 12.65 -90.1 12.65 -54.05 2.85 -54.05" fill="#707070" fill-rule="evenodd" stroke="none"/>
    <path d="M2.85 70.0 L2.85 52.3 16.65 52.3 16.65 70.0 2.85 70.0" fill="#707070" fill-rule="evenodd" stroke="none"/>
    <path d="M2.85 78.0 L16.65 78.0 16.65 95.65 2.85 95.65 2.85 78.0" fill="#707070" fill-rule="evenodd" stroke="none"/>
    <path d="M5.35 184.65 L5.35 158.25 32.25 158.25 32.25 184.65 5.35 184.65" fill="#707070" fill-rule="evenodd" stroke="none"/>
    <path d="M21.0 208.25 L21.0 226.65 -2.4 226.65 -2.4 208.25 21.0 208.25" fill="#707070" fill-rule="evenodd" stroke="none"/>
    <path d="M22.85 226.65 L22.85 208.25 46.25 208.25 46.25 226.65 22.85 226.65" fill="#707070" fill-rule="evenodd" stroke="none"/>
    <path d="M59.75 217.0 L59.75 225.9 51.6 225.9 51.6 217.0 59.75 217.0" fill="#707070" fill-rule="evenodd" stroke="none"/>
    <path d="M68.05 239.3 L68.05 228.2 101.4 228.2 101.4 239.3 68.05 239.3" fill="#707070" fill-rule="evenodd" stroke="none"/>
    <path d="M-25.4 141.5 L-8.0 141.5 -8.0 200.5 -25.4 200.5 -25.4 141.5" fill="#707070" fill-rule="evenodd" stroke="none"/>
    <path d="M83.0 131.25 L83.0 109.5 190.0 109.5 190.0 131.25 83.0 131.25" fill="#707070" fill-rule="evenodd" stroke="none"/>
    <path d="M-17.2 224.05 L-18.35 224.6 -19.65 224.75 -20.95 224.45 -22.05 223.8 -22.85 222.8 -23.3 221.55 -23.35 220.25 -22.95 219.0 -22.2 217.95 -21.15 217.25 -19.85 216.9 -18.55 216.95 -17.35 217.45 -16.4 218.3 -15.75 219.45 -15.5 220.7 -15.65 222.0 -16.25 223.15 -17.2 224.05" fill="#707070" fill-rule="evenodd" stroke="none"/>
    <path d="M339.3 233.45 L340.35 232.75 341.65 232.4 342.95 232.45 344.15 232.95 345.1 233.8 345.75 234.95 346.0 236.2 345.85 237.5 345.25 238.65 344.3 239.55 343.15 240.1 341.85 240.25 340.55 239.95 339.45 239.3 338.65 238.3 338.2 237.05 338.15 235.75 338.55 234.5 339.3 233.45" fill="#707070" fill-rule="evenodd" stroke="none"/>
    <path d="M11.85 44.8 L12.5 45.95 12.75 47.2 12.6 48.5 12.0 49.65 11.05 50.55 9.9 51.1 8.6 51.25 7.3 50.95 6.2 50.3 5.4 49.3 4.95 48.05 4.9 46.75 5.3 45.5 6.05 44.45 7.1 43.75 8.4 43.4 9.7 43.45 10.9 43.95 11.85 44.8" fill="#707070" fill-rule="evenodd" stroke="none"/>
    <path d="M340.65 -287.55 L341.1 -286.75 341.3 -285.85 341.15 -284.9 340.75 -284.1 340.1 -283.45 339.25 -283.05 338.3 -282.95 337.4 -283.15 336.6 -283.65 336.0 -284.35 335.7 -285.25 335.65 -286.15 335.95 -287.05 336.5 -287.8 337.25 -288.3 338.15 -288.55 339.1 -288.5 339.95 -288.15 340.65 -287.55" fill="#707070" fill-rule="evenodd" stroke="none"/>
    <path d="M214.8 35.65 L213.65 36.2 212.35 36.35 211.1 36.1 209.95 35.4 209.15 34.4 208.7 33.15 208.65 31.85 209.05 30.65 209.8 29.6 210.9 28.85 212.15 28.5 213.45 28.55 214.65 29.05 215.6 29.9 216.25 31.05 216.5 32.3 216.35 33.6 215.75 34.75 214.8 35.65" fill="#707070" fill-rule="evenodd" stroke="none"/>
    <path d="M-21.25 205.05 L-20.1 205.15 -19.1 205.75 -18.5 206.8 -18.45 207.95 -18.95 209.0 -19.9 209.75 -21.05 209.95 -22.15 209.55 -23.0 208.7 -23.3 207.6 -23.1 206.45 -22.35 205.5 -21.25 205.05" fill="#707070" fill-rule="evenodd" stroke="none"/>
    <path d="M126.8 51.15 L127.4 52.15 127.45 53.35 126.95 54.4 126.05 55.1 124.85 55.3 123.75 54.95 122.95 54.1 122.6 52.95 122.8 51.8 123.55 50.9 124.65 50.4 125.8 50.5 126.8 51.15" fill="#707070" fill-rule="evenodd" stroke="none"/>
    <path d="M4.0 98.25 L4.7 97.35 5.8 96.9 7.0 97.0 7.95 97.6 8.55 98.6 8.6 99.8 8.15 100.85 7.2 101.55 6.05 101.75 4.9 101.4 4.1 100.55 3.75 99.45 4.0 98.25" fill="#707070" fill-rule="evenodd" stroke="none"/>
    <path d="M125.8 -54.8 L126.8 -54.2 127.4 -53.2 127.45 -52.0 126.95 -50.95 126.05 -50.25 124.85 -50.05 123.75 -50.4 122.95 -51.25 122.6 -52.35 122.8 -53.5 123.55 -54.45 124.65 -54.9 125.8 -54.8" fill="#707070" fill-rule="evenodd" stroke="none"/>
    <path d="M187.3 -216.7 L205.65 -216.7 205.65 -161.0 187.3 -161.0 187.3 -216.7" fill="#707070" fill-rule="evenodd" stroke="none"/>
    <path d="M207.3 -223.0 L207.3 -282.7 218.3 -282.7 218.3 -223.0 207.3 -223.0" fill="#707070" fill-rule="evenodd" stroke="none"/>
    <path d="M181.05 -281.55 L204.0 -281.55 204.0 -221.35 181.05 -221.35 181.05 -281.55" fill="#707070" fill-rule="evenodd" stroke="none"/>
    <path d="M164.3 -212.5 L181.3 -212.5 181.3 -171.7 164.3 -171.7 164.3 -212.5" fill="#707070" fill-rule="evenodd" stroke="none"/>
    <path d="M311.5 -212.0 L248.5 -212.0 248.5 -238.5 311.5 -238.5 311.5 -212.0" fill="#707070" fill-rule="evenodd" stroke="none"/>
    <path d="M85.75 -275.25 L135.0 -275.25 135.0 -248.0 85.75 -248.0 85.75 -275.25" fill="#707070" fill-rule="evenodd" stroke="none"/>
    <path d="M53.75 -269.75 L53.75 -279.25 62.75 -279.25 62.75 -269.75 53.75 -269.75" fill="#707070" fill-rule="evenodd" stroke="none"/>
    <path d="M20.75 -129.2 L20.75 -146.85 26.7 -146.85 26.7 -129.2 20.75 -129.2" fill="#707070" fill-rule="evenodd" stroke="none"/>
    <path d="M130.75 -175.0 L88.5 -175.0 88.5 -186.8 130.75 -186.8 130.75 -175.0" fill="#707070" fill-rule="evenodd" stroke="none"/>
    <path d="M317.65 191.0 L232.0 191.0 232.0 158.65 317.65 158.65 317.65 191.0" fill="#707070" fill-rule="evenodd" stroke="none"/>
    <path d="M294.8 240.5 L253.0 240.5 253.0 225.0 294.8 225.0 294.8 240.5" fill="#707070" fill-rule="evenodd" stroke="none"/>
    <path d="M-1.25 -214.9 L6.5 -214.9 6.5 -205.9 -1.25 -205.9 -1.25 -214.9" fill="#707070" fill-rule="evenodd" stroke="none"/>
    <path d="M-1.25 -219.4 L-1.25 -235.0 10.1 -235.0 10.1 -219.4 -1.25 -219.4" fill="#707070" fill-rule="evenodd" stroke="none"/>
    <path d="M21.2 -238.5 L19.8 -239.75 19.15 -241.45 19.15 -250.8 26.9 -250.8 26.9 -241.45 26.25 -239.75 24.85 -238.5 23.05 -238.1 21.2 -238.5" fill="#707070" fill-rule="evenodd" stroke="none"/>
    <path d="M332.15 -162.95 L333.7 -163.45 336.85 -153.6 344.65 -151.6 343.9 -148.55 336.1 -150.55 328.6 -143.5 327.5 -144.65 334.2 -151.05 326.9 -152.9 327.7 -155.95 335.0 -154.05 332.15 -162.95" fill="#707070" fill-rule="evenodd" stroke="none"/>
    <path d="M37.8 -145.2 Q37.8 -143.45 37.0 -142.25 36.2 -141.0 35.05 -141.0 33.95 -141.0 33.1 -142.25 32.3 -143.5 32.3 -145.2 32.3 -146.9 33.1 -148.15 33.9 -149.35 35.05 -149.35 36.2 -149.35 37.0 -148.15 37.8 -146.95 37.8 -145.2" fill="#707070" fill-rule="evenodd" stroke="none"/>
    <path d="M202.5 229.5 L211.5 229.5 211.5 238.5 202.5 238.5 202.5 229.5" fill="#707070" fill-rule="evenodd" stroke="none"/>
    <path d="M341.5 112.5 L341.5 121.5 332.5 121.5 332.5 112.5 341.5 112.5" fill="#707070" fill-rule="evenodd" stroke="none"/>
    <path d="M-60.05 -16.55 L-54.35 -16.55 -54.35 17.95 -60.05 17.95 -60.05 -16.55" fill="#ffffff" fill-rule="evenodd" stroke="none"/>
  </g>
</svg>
