<?xml version="1.0" encoding="UTF-8" standalone="no"?>
<svg xmlns:ffdec="https://www.free-decompiler.com/flash" xmlns:xlink="http://www.w3.org/1999/xlink" ffdec:objectType="shape" height="397.9px" width="330.05px" xmlns="http://www.w3.org/2000/svg">
  <g transform="matrix(1.0, 0.0, 0.0, 1.0, 103.2, 284.0)">
    <path d="M135.15 73.6 L-43.8 73.6 -43.8 16.65 135.15 16.65 135.15 73.6" fill="#434343" fill-rule="evenodd" stroke="none"/>
    <path d="M83.95 72.95 L-81.95 72.95 -81.95 -6.85 83.95 -6.85 83.95 72.95" fill="#434343" fill-rule="evenodd" stroke="none"/>
    <path d="M62.15 -7.5 L127.9 -52.35 195.2 42.8 130.3 88.75 62.15 -7.5" fill="#434343" fill-rule="evenodd" stroke="none"/>
    <path d="M-87.2 81.55 L-87.2 63.1 -39.5 63.1 -39.5 81.55 -87.2 81.55" fill="#434343" fill-rule="evenodd" stroke="none"/>
    <path d="M83.95 81.55 L-81.95 81.55 -81.95 -6.85 83.95 -6.85 83.95 81.55" fill="#434343" fill-rule="evenodd" stroke="none"/>
    <path d="M71.75 -3.3 L-81.95 -3.3 -81.95 -65.6 48.2 -65.6 87.95 -16.8 71.75 -3.3" fill="#434343" fill-rule="evenodd" stroke="none"/>
    <path d="M177.55 94.85 L150.25 113.9 68.0 113.9 68.0 51.2 177.25 47.5 177.55 94.85" fill="#434343" fill-rule="evenodd" stroke="none"/>
    <path d="M194.6 85.85 L164.95 85.85 164.95 43.3 194.6 43.3 194.6 85.85" fill="#434343" fill-rule="evenodd" stroke="none"/>
    <path d="M186.4 -32.5 L184.5 -35.25 197.8 -44.6 204.35 -35.25 204.55 -34.65 204.7 -33.7 204.55 -32.65 204.1 -31.7 203.4 -30.9 179.4 -14.1 177.5 -16.8 180.0 -18.6 173.65 -27.6 181.6 -33.2 183.5 -30.45 178.3 -26.8 182.75 -20.5 201.15 -33.4 201.2 -33.45 201.25 -33.6 201.3 -33.7 201.2 -33.9 197.0 -39.9 186.4 -32.5" fill="#434343" fill-rule="evenodd" stroke="none"/>
    <path d="M192.45 -61.25 L197.95 -58.9 203.1 -56.0 207.95 -52.5 212.3 -48.45 216.2 -43.95 219.55 -39.05 222.3 -33.8 224.4 -28.25 225.9 -22.5 226.75 -16.6 226.85 -10.75 226.35 -4.75 225.1 1.05 223.25 6.7 220.75 12.15 217.65 17.25 213.95 21.95 209.8 26.2 205.2 29.95 190.0 40.55 185.25 33.3 130.75 -44.25 146.65 -55.95 151.85 -58.9 157.35 -61.2 163.1 -62.9 168.4 -63.8 174.85 -64.25 180.9 -63.9 186.75 -62.9 192.45 -61.25" fill="#434343" fill-rule="evenodd" stroke="none"/>
    <path d="M-103.2 -232.4 L-29.3 -284.0 -9.35 -284.0 65.2 -152.45 65.2 -107.2 95.4 -107.2 143.95 -90.1 143.95 64.4 -103.2 64.4 -103.2 -232.4" fill="#434343" fill-rule="evenodd" stroke="none"/>
    <path d="M8.4 70.45 L30.6 37.7 73.0 66.5 50.85 99.2 8.4 70.45" fill="#434343" fill-rule="evenodd" stroke="none"/>
    <path d="M-65.1 -4.6 L-65.2 -4.6 -65.25 -4.5 -65.25 -2.35 -65.2 -2.25 -65.1 -2.2 -56.3 -2.2 -56.2 -2.25 -56.15 -2.35 -56.15 -4.5 -56.2 -4.6 -56.3 -4.6 -65.1 -4.6 M-65.1 -56.25 L-65.2 -56.2 -65.25 -56.1 -65.25 -53.95 -65.2 -53.85 -65.1 -53.85 -56.3 -53.85 -56.2 -53.85 -56.15 -53.95 -56.15 -56.1 -56.2 -56.2 -56.3 -56.25 -65.1 -56.25 M-10.55 -3.25 L-10.6 -3.35 -10.65 -3.35 -19.5 -3.35 -19.6 -3.35 -19.6 -3.25 -19.6 -1.1 -19.6 -1.0 -19.5 -0.95 -10.65 -0.95 -10.6 -1.0 -10.55 -1.1 -10.55 -3.25 M-10.6 -53.35 L-10.55 -53.45 -10.55 -55.6 -10.6 -55.7 -10.65 -55.75 -19.5 -55.75 -19.6 -55.7 -19.6 -55.6 -19.6 -53.45 -19.6 -53.35 -19.5 -53.35 -10.65 -53.35 -10.6 -53.35 M-10.6 -109.4 L-10.65 -109.4 -19.5 -109.4 -19.6 -109.4 -19.6 -109.3 -19.6 -107.15 -19.6 -107.05 -19.5 -107.0 -10.65 -107.0 -10.6 -107.05 -10.55 -107.15 -10.55 -109.3 -10.6 -109.4 M-10.55 -159.3 L-10.55 -161.5 -10.6 -161.55 -10.65 -161.6 -19.5 -161.6 -19.6 -161.55 -19.6 -161.5 -19.6 -159.3 -19.6 -159.2 -19.5 -159.2 -10.65 -159.2 -10.6 -159.25 -10.55 -159.3 M-65.1 -110.65 L-65.2 -110.65 -65.25 -110.55 -65.25 -108.4 -65.2 -108.3 -65.1 -108.25 -56.3 -108.25 -56.2 -108.3 -56.15 -108.4 -56.15 -110.55 -56.2 -110.65 -56.3 -110.65 -65.1 -110.65 M-65.1 -162.35 L-65.2 -162.3 -65.25 -162.25 -65.25 -160.05 -65.2 -159.95 -65.1 -159.95 -56.3 -159.95 -56.2 -160.0 -56.15 -160.05 -56.15 -162.25 -56.2 -162.3 -56.3 -162.35 -65.1 -162.35 M-56.15 -214.25 L-56.2 -214.35 -56.3 -214.35 -65.1 -214.35 -65.2 -214.35 -65.25 -214.25 -65.25 -212.05 -65.2 -212.0 -65.1 -211.95 -56.3 -211.95 -56.2 -212.0 -56.15 -212.05 -56.15 -214.25 M2.8 -218.5 L2.85 -218.55 2.85 -218.65 1.75 -220.55 1.65 -220.6 1.6 -220.55 -6.05 -216.15 -6.1 -216.05 -6.1 -216.0 -5.0 -214.1 -4.95 -214.05 -4.85 -214.05 2.8 -218.5 M98.05 -82.25 L97.8 -81.65 88.3 -74.9 89.2 -73.65 99.0 -80.65 99.55 -82.0 97.1 -102.75 139.75 -87.35 120.2 -73.8 119.55 -73.5 109.75 -77.8 109.15 -76.4 119.55 -71.9 120.95 -72.5 140.7 -86.2 140.5 -40.65 122.05 -50.1 121.65 -50.75 121.45 -61.2 119.95 -61.15 120.15 -50.3 121.0 -48.95 139.8 -39.35 111.45 -19.4 100.7 -34.75 111.1 -41.95 110.25 -43.2 99.85 -35.95 93.9 -44.45 89.75 -41.65 105.9 -18.55 101.4 -15.4 104.3 -11.25 109.1 -14.6 111.0 -11.9 112.6 -13.0 124.8 3.65 122.85 5.0 124.6 7.5 115.25 14.05 116.45 15.8 97.6 29.05 96.35 27.3 80.2 38.65 71.35 38.65 71.35 39.1 73.95 39.1 73.9 45.6 73.5 52.05 71.9 55.3 65.85 64.0 55.95 57.1 58.7 53.15 60.35 50.15 61.5 46.95 61.8 39.05 64.25 39.05 64.25 38.65 34.35 38.65 34.35 24.35 33.0 24.35 33.0 44.75 32.95 45.65 32.65 46.5 32.2 47.25 31.6 47.9 30.9 48.45 30.1 48.8 29.2 49.0 2.4 49.0 -5.95 49.3 -6.45 49.4 -6.95 49.55 -7.4 49.8 -7.8 50.15 -8.1 50.55 -8.3 51.05 -8.4 51.55 -8.45 52.65 -48.95 52.65 -49.0 51.55 -49.1 51.05 -49.3 50.55 -49.6 50.15 -50.0 49.8 -50.45 49.55 -50.95 49.4 -51.45 49.3 -59.1 49.0 -90.25 48.95 -91.1 48.75 -91.95 48.4 -92.65 47.85 -93.25 47.2 -93.7 46.4 -93.95 45.6 -94.05 44.7 -94.05 18.35 -92.95 18.35 -92.75 18.35 -92.5 18.3 -92.3 18.25 -92.15 18.1 -92.0 17.95 -91.85 17.75 -91.8 17.55 -91.75 17.3 -91.75 -24.6 -91.8 -24.8 -91.85 -25.05 -92.0 -25.25 -92.15 -25.4 -92.3 -25.55 -92.5 -25.6 -92.75 -25.65 -92.95 -25.65 -94.05 -25.65 -94.05 -51.3 -94.15 -52.95 -94.4 -53.85 -95.05 -54.95 -95.85 -55.7 -96.6 -56.0 -98.7 -56.0 -98.7 -108.4 -96.7 -108.4 -95.9 -108.7 -95.1 -109.4 -94.5 -110.55 -94.25 -111.45 -93.95 -115.55 -93.95 -136.5 -93.15 -136.45 -92.95 -136.5 -92.8 -136.6 -92.65 -136.7 -92.55 -136.8 -92.45 -136.95 -92.4 -137.15 -92.4 -137.3 -92.4 -179.65 -92.4 -179.8 -92.45 -180.0 -92.55 -180.15 -92.65 -180.25 -92.8 -180.35 -92.95 -180.45 -93.15 -180.5 -93.95 -180.5 -94.3 -226.05 -93.2 -225.15 -93.95 -226.05 -93.85 -229.55 -92.95 -232.35 -91.75 -234.05 -90.05 -235.4 -84.4 -239.35 -83.95 -238.35 -83.85 -238.2 -83.65 -238.1 -83.5 -238.05 -83.3 -238.0 -83.1 -238.0 -82.9 -238.05 -82.7 -238.15 -48.1 -262.3 -47.95 -262.45 -47.85 -262.6 -47.75 -262.8 -47.7 -262.95 -47.7 -263.35 -47.8 -263.55 -48.6 -264.8 -46.05 -266.7 -40.6 -270.25 -36.85 -272.0 -34.85 -272.5 -31.7 -272.8 -14.8 -272.8 -13.1 -272.7 -11.9 -272.35 -10.2 -271.6 -8.65 -270.35 -8.2 -269.7 -6.8 -267.85 -6.65 -267.45 5.0 -246.45 4.2 -246.0 4.05 -245.9 3.9 -245.75 3.85 -245.55 3.8 -245.35 3.8 -245.15 3.8 -244.95 3.9 -244.8 25.0 -208.05 25.15 -207.9 25.35 -207.8 25.5 -207.7 25.7 -207.7 25.9 -207.7 26.1 -207.75 27.4 -208.45 29.05 -205.8 41.05 -185.05 41.4 -184.25 41.6 -183.35 41.6 -182.5 41.4 -181.6 41.05 -180.8 40.5 -180.1 39.85 -179.5 0.3 -156.75 -1.9 -154.55 -2.35 -153.8 -3.2 -151.3 -3.35 -149.5 -3.2 -139.5 -3.25 -139.5 -3.25 -136.35 -3.1 -136.35 -3.1 -127.05 -1.75 -127.05 -1.75 -130.1 -1.65 -130.8 -1.4 -131.5 -1.05 -132.15 -0.55 -132.7 0.05 -133.1 0.7 -133.4 1.4 -133.6 11.55 -133.55 11.55 -113.8 1.4 -113.85 0.7 -114.0 0.05 -114.3 -0.55 -114.75 -1.05 -115.3 -1.4 -115.95 -1.65 -116.65 -1.75 -117.35 -1.75 -120.75 -3.1 -120.75 -3.1 -110.9 -3.05 -110.4 -2.9 -109.9 -2.65 -109.45 -2.3 -109.05 -1.9 -108.75 -1.4 -108.55 -0.9 -108.45 0.2 -108.4 0.2 -56.55 -0.9 -56.5 -1.4 -56.4 -1.9 -56.2 -2.3 -55.9 -2.65 -55.5 -2.9 -55.05 -3.05 -54.55 -3.1 -54.1 -3.1 -28.0 -3.25 -28.0 -3.25 -5.5 -3.0 -4.65 -2.55 -3.9 -1.95 -3.2 -1.25 -2.7 -0.4 -2.35 0.2 -2.2 28.3 -2.2 29.2 -2.3 30.1 -2.1 30.9 -1.75 31.6 -1.2 32.2 -0.55 32.65 0.2 32.95 1.05 33.0 1.95 33.0 13.1 34.35 13.1 34.35 -2.15 91.25 -2.15 95.5 -5.1 92.6 -9.25 84.95 -3.9 41.75 -65.6 62.7 -80.3 80.7 -54.55 84.9 -57.35 67.15 -82.65 95.55 -102.85 98.05 -82.25" fill="#969696" fill-rule="evenodd" stroke="none"/>
    <path d="M72.4 -29.5 L81.4 -16.6 78.75 -14.75 69.75 -27.6 72.4 -29.5" fill="#707070" fill-rule="evenodd" stroke="none"/>
    <path d="M93.8 -34.85 L102.8 -21.95 100.1 -20.1 91.1 -33.0 93.8 -34.85" fill="#707070" fill-rule="evenodd" stroke="none"/>
    <path d="M54.75 -54.45 L63.75 -41.55 61.05 -39.7 52.05 -52.55 54.75 -54.45" fill="#707070" fill-rule="evenodd" stroke="none"/>
    <path d="M56.05 57.55 L65.85 64.0 50.4 86.15 49.8 86.7 49.15 87.15 48.4 87.45 47.55 87.55 46.75 87.5 46.0 87.3 29.2 75.55 28.7 74.9 28.35 74.2 28.1 73.4 28.1 72.6 28.2 71.8 28.5 71.0 44.05 48.9 53.95 55.55 44.0 69.75 43.95 70.0 43.9 70.2 43.9 70.4 43.95 70.65 44.05 70.85 44.2 71.0 45.0 71.55 45.2 71.6 45.45 71.6 45.65 71.6 45.9 71.5 46.05 71.4 46.25 71.25 46.35 71.05 56.05 57.55" fill="#ffffff" fill-rule="evenodd" stroke="none"/>
    <path d="M110.2 20.2 L110.7 20.85 111.75 20.1 117.45 28.3 109.25 34.0 103.55 25.8 104.45 25.2 104.0 24.55 110.2 20.2" fill="#ffffff" fill-rule="evenodd" stroke="none"/>
    <path d="M-99.9 -108.4 L-98.7 -108.4 -98.7 -56.0 -99.9 -56.0 -99.9 -108.4" fill="#ffffff" fill-rule="evenodd" stroke="none"/>
    <path d="M37.4 -133.35 L38.1 -133.05 38.7 -132.6 39.15 -132.1 39.55 -131.45 39.75 -130.75 39.85 -130.0 39.85 -117.3 39.75 -116.55 39.55 -115.85 39.15 -115.2 38.7 -114.7 38.1 -114.25 37.4 -113.95 36.7 -113.8 26.55 -113.8 26.55 -124.1 11.55 -124.1 11.55 -133.5 36.7 -133.5 37.4 -133.35" fill="#ffffff" fill-rule="evenodd" stroke="none"/>
    <path d="M57.0 -3.3 L64.35 -3.3 64.35 -2.15 57.0 -2.15 57.0 -3.3" fill="#ffffff" fill-rule="evenodd" stroke="none"/>
    <path d="M-0.2 -108.4 L1.0 -108.4 1.0 -56.55 -0.2 -56.55 -0.2 -108.4" fill="#ffffff" fill-rule="evenodd" stroke="none"/>
  </g>
</svg>
