<?xml version="1.0" encoding="UTF-8" standalone="no"?>
<svg xmlns:ffdec="https://www.free-decompiler.com/flash" xmlns:xlink="http://www.w3.org/1999/xlink" ffdec:objectType="shape" height="16.35px" width="36.3px" xmlns="http://www.w3.org/2000/svg">
  <g transform="matrix(1.0, 0.0, 0.0, 1.0, 18.15, 8.15)">
    <path d="M12.75 -2.55 Q15.0 -2.55 16.6 -0.95 18.15 0.6 18.15 2.85 18.15 5.05 16.6 6.65 15.0 8.2 12.75 8.2 10.55 8.2 8.95 6.65 7.4 5.05 7.4 2.85 7.4 0.6 8.95 -0.95 10.55 -2.55 12.75 -2.55 M9.0 -5.2 L11.0 -4.3 Q8.55 -3.7 7.0 -1.7 5.4 0.3 5.4 2.85 5.4 5.2 6.75 7.1 L-6.75 7.1 Q-5.4 5.2 -5.4 2.85 -5.4 -0.2 -7.55 -2.4 -9.7 -4.55 -12.8 -4.55 L-13.2 -4.55 Q-13.65 -5.2 -11.75 -6.4 -9.0 -8.15 -5.85 -8.15 L-5.55 -8.1 -6.55 -5.35 -3.15 -5.8 Q0.3 -5.8 2.45 -3.9 3.35 -3.05 4.55 -3.05 6.8 -3.05 9.0 -5.2 M14.8 4.85 Q15.65 4.0 15.65 2.85 15.65 1.65 14.8 0.85 13.95 0.0 12.75 0.0 11.6 0.0 10.75 0.85 9.9 1.65 9.9 2.85 9.9 4.0 10.75 4.85 11.6 5.7 12.75 5.7 13.95 5.7 14.8 4.85 M-12.8 -2.55 Q-10.55 -2.55 -8.95 -0.95 -7.4 0.6 -7.4 2.85 -7.4 5.05 -8.95 6.65 -10.55 8.2 -12.8 8.2 -15.0 8.2 -16.6 6.65 -18.15 5.05 -18.15 2.85 -18.15 0.6 -16.6 -0.95 -15.0 -2.55 -12.8 -2.55 M-14.8 4.85 Q-13.95 5.7 -12.8 5.7 -11.6 5.7 -10.75 4.85 -9.9 4.0 -9.9 2.85 -9.9 1.65 -10.75 0.85 -11.6 0.0 -12.8 0.0 -13.95 0.0 -14.8 0.85 -15.65 1.65 -15.65 2.85 -15.65 4.0 -14.8 4.85" fill="#ffffff" fill-rule="evenodd" stroke="none"/>
  </g>
</svg>
