<?xml version="1.0" encoding="UTF-8" standalone="no"?>
<svg xmlns:ffdec="https://www.free-decompiler.com/flash" xmlns:xlink="http://www.w3.org/1999/xlink" ffdec:objectType="shape" height="9.7px" width="9.7px" xmlns="http://www.w3.org/2000/svg">
  <g transform="matrix(1.0, 0.0, 0.0, 1.0, 4.85, 4.85)">
    <path d="M0.0 -4.85 Q2.0 -4.85 3.4 -3.45 4.85 -2.0 4.85 0.0 4.85 2.0 3.45 3.4 L3.4 3.45 Q2.0 4.85 0.0 4.85 -2.0 4.85 -3.4 3.45 L-3.4 3.4 Q-4.85 2.0 -4.85 0.0 -4.85 -2.0 -3.4 -3.45 -2.0 -4.85 0.0 -4.85 M2.0 -2.05 Q1.2 -2.85 0.0 -2.85 -1.2 -2.85 -2.0 -2.05 -2.85 -1.2 -2.85 0.0 -2.85 1.15 -2.0 2.0 L-1.95 2.0 Q-1.15 2.85 0.0 2.85 1.15 2.85 2.0 2.0 2.85 1.15 2.85 0.0 2.85 -1.2 2.0 -2.05" fill="#d2d2d2" fill-rule="evenodd" stroke="none"/>
  </g>
</svg>
