<?xml version="1.0" encoding="UTF-8" standalone="no"?>
<svg xmlns:ffdec="https://www.free-decompiler.com/flash" xmlns:xlink="http://www.w3.org/1999/xlink" ffdec:objectType="shape" height="21.85px" width="13.3px" xmlns="http://www.w3.org/2000/svg">
  <g transform="matrix(1.0, 0.0, 0.0, 1.0, 6.65, 10.9)">
    <path d="M6.55 0.55 Q6.85 0.95 6.4 1.2 L5.4 1.8 Q4.9 2.0 4.75 1.6 L2.95 -1.5 1.3 10.95 -1.3 10.95 -2.95 -1.5 -4.75 1.6 Q-4.9 2.0 -5.4 1.8 L-6.4 1.2 Q-6.8 0.9 -6.55 0.55 L-2.85 -5.9 -2.45 -6.1 2.45 -6.1 2.85 -5.9 6.55 0.55" fill="#ffffff" fill-rule="evenodd" stroke="none"/>
    <path d="M0.0 -6.65 Q-0.85 -6.65 -1.5 -7.25 -2.1 -7.9 -2.1 -8.75 -2.1 -9.65 -1.5 -10.25 -0.85 -10.9 0.0 -10.9 0.85 -10.9 1.5 -10.25 2.1 -9.65 2.1 -8.75 2.1 -7.9 1.5 -7.25 0.85 -6.65 0.0 -6.65" fill="#ffffff" fill-rule="evenodd" stroke="none"/>
  </g>
</svg>
