<?xml version="1.0" encoding="UTF-8" standalone="no"?>
<svg xmlns:ffdec="https://www.free-decompiler.com/flash" xmlns:xlink="http://www.w3.org/1999/xlink" ffdec:objectType="shape" height="21.85px" width="10.7px" xmlns="http://www.w3.org/2000/svg">
  <g transform="matrix(1.0, 0.0, 0.0, 1.0, 5.35, 10.9)">
    <path d="M0.0 -6.65 Q-0.85 -6.65 -1.5 -7.25 -2.1 -7.9 -2.1 -8.75 -2.1 -9.65 -1.5 -10.25 -0.85 -10.9 0.0 -10.9 0.85 -10.9 1.5 -10.25 2.1 -9.65 2.1 -8.75 2.1 -7.9 1.5 -7.25 0.85 -6.65 0.0 -6.65" fill="#ffffff" fill-rule="evenodd" stroke="none"/>
    <path d="M-2.5 -2.0 L-2.75 -5.8 -2.65 -5.9 -2.3 -6.1 2.3 -6.1 2.65 -5.9 2.7 -5.8 2.5 -2.0 5.35 4.9 1.85 4.9 1.3 10.95 -1.3 10.95 -1.85 4.9 -5.35 4.9 -2.5 -2.0" fill="#ffffff" fill-rule="evenodd" stroke="none"/>
  </g>
</svg>
