<?xml version="1.0" encoding="UTF-8" standalone="no"?>
<svg xmlns:ffdec="https://www.free-decompiler.com/flash" xmlns:xlink="http://www.w3.org/1999/xlink" ffdec:objectType="shape" height="902.5px" width="975.55px" xmlns="http://www.w3.org/2000/svg">
  <g transform="matrix(1.0, 0.0, 0.0, 1.0, 488.25, 367.8)">
    <path d="M160.8 -44.8 L171.3 -43.8 Q172.3 -43.3 173.3 -43.3 174.3 -41.3 175.3 -39.8 176.3 -34.8 176.8 -29.8 177.3 -22.3 177.3 -14.8 L268.8 42.2 281.3 43.7 284.3 44.7 Q284.8 45.2 285.3 45.2 L286.3 47.7 289.3 47.2 290.3 45.2 Q292.3 44.7 294.3 43.7 L299.3 43.2 307.3 43.7 312.3 44.7 314.3 48.2 Q315.3 52.7 315.8 57.2 L315.8 69.7 Q387.8 114.2 459.8 158.2 L480.3 188.7 483.8 199.2 Q485.8 208.2 487.3 217.2 L487.3 221.7 483.8 222.2 459.8 201.7 241.8 130.7 Q180.3 116.7 118.8 102.2 L42.25 100.2 Q40.75 189.2 38.75 277.7 L29.75 352.2 40.25 362.2 162.3 459.2 163.8 461.7 164.8 532.7 161.8 534.7 Q87.8 499.7 13.25 464.2 L6.25 465.2 2.25 530.2 Q1.75 531.2 0.75 531.7 L-1.75 531.7 -3.25 530.2 -7.25 465.7 -14.75 464.7 -162.75 534.7 -165.75 532.7 -164.75 462.2 Q-163.25 460.2 -162.25 458.2 -101.75 410.7 -41.75 362.7 L-30.75 352.2 -39.75 277.7 -43.75 100.2 -119.75 102.2 Q-181.25 116.7 -242.75 130.7 L-459.75 201.2 -483.75 221.7 -488.25 221.7 Q-486.25 210.7 -484.75 199.2 -482.75 194.2 -481.25 188.7 -470.75 173.7 -460.75 158.2 -388.75 114.7 -316.75 70.7 L-316.75 56.2 Q-315.75 52.2 -315.25 47.7 -314.25 46.2 -313.75 44.7 L-312.75 43.7 -306.25 42.7 -297.25 42.7 -292.25 43.7 Q-291.75 44.2 -291.25 44.2 L-289.75 46.7 -287.75 46.7 -286.75 45.7 Q-286.25 45.2 -286.25 44.2 -285.25 44.2 -284.75 43.7 L-280.25 42.7 -270.75 42.2 -177.75 -14.8 -177.75 -30.3 Q-176.75 -34.8 -176.25 -39.8 -175.25 -41.3 -174.75 -43.3 L-168.75 -44.3 -157.75 -44.3 -153.25 -43.3 -152.75 -42.8 Q-151.75 -41.8 -151.25 -40.8 L-148.75 -40.8 Q-147.75 -41.8 -147.25 -42.8 -145.75 -43.3 -144.75 -43.8 L-139.75 -44.8 -131.75 -44.8 -46.75 -100.8 Q-44.25 -104.8 -42.25 -109.3 L-42.25 -252.8 Q-39.75 -272.3 -37.75 -292.3 L-25.75 -333.8 -18.75 -348.8 -13.75 -356.8 Q-9.25 -361.3 -5.25 -365.8 -4.25 -366.3 -3.25 -367.3 -1.75 -367.3 -0.75 -367.8 0.75 -367.3 1.75 -367.3 3.25 -366.3 4.25 -365.8 L12.25 -357.8 Q18.75 -346.3 24.75 -334.8 L38.75 -279.3 Q40.25 -265.8 41.25 -252.8 L41.25 -108.8 42.25 -106.3 45.75 -100.8 Q89.3 -72.8 132.3 -44.8 L138.3 -44.8 Q141.8 -43.8 145.3 -43.3 145.8 -42.8 146.3 -42.8 L147.8 -40.3 Q149.3 -40.3 150.3 -40.8 L151.3 -42.8 152.8 -43.8 160.8 -44.8" fill="#424242" fill-rule="evenodd" stroke="none"/>
    <path d="M28.25 -286.3 L28.25 245.2 -29.25 244.2 -29.25 -286.3 28.25 -286.3" fill="#6f6f6f" fill-rule="evenodd" stroke="none"/>
    <path d="M-6.25 -277.8 L5.25 -277.8 Q7.75 -266.3 9.75 -254.8 L9.75 245.2 -10.75 245.2 -10.75 -253.8 Q-8.25 -265.8 -6.25 -277.8" fill="#7e7e7e" fill-rule="evenodd" stroke="none"/>
    <path d="M-5.75 -258.3 L-26.25 -258.3 -26.25 -272.3 -5.75 -272.3 -5.75 -258.3" fill="#8b8b8b" fill-rule="evenodd" stroke="none"/>
    <path d="M25.25 -258.3 L4.75 -258.3 4.75 -272.3 25.25 -272.3 25.25 -258.3" fill="#8b8b8b" fill-rule="evenodd" stroke="none"/>
    <path d="M-5.75 -240.3 L-26.25 -240.3 -26.25 -253.8 -5.75 -253.8 -5.75 -240.3" fill="#8b8b8b" fill-rule="evenodd" stroke="none"/>
    <path d="M25.25 -240.3 L4.75 -240.3 4.75 -253.8 25.25 -253.8 25.25 -240.3" fill="#8b8b8b" fill-rule="evenodd" stroke="none"/>
    <path d="M25.25 -110.3 L4.75 -110.3 4.75 -124.3 25.25 -124.3 25.25 -110.3" fill="#8b8b8b" fill-rule="evenodd" stroke="none"/>
    <path d="M25.25 -95.8 L4.75 -95.8 4.75 -109.3 25.25 -109.3 25.25 -95.8" fill="#8b8b8b" fill-rule="evenodd" stroke="none"/>
    <path d="M25.25 -80.8 L4.75 -80.8 4.75 -94.8 25.25 -94.8 25.25 -80.8" fill="#8b8b8b" fill-rule="evenodd" stroke="none"/>
    <path d="M-5.75 -32.8 L-26.25 -32.8 -26.25 -46.3 -5.75 -46.3 -5.75 -32.8" fill="#8b8b8b" fill-rule="evenodd" stroke="none"/>
    <path d="M25.25 24.2 L4.75 24.2 4.75 10.2 25.25 10.2 25.25 24.2" fill="#8b8b8b" fill-rule="evenodd" stroke="none"/>
    <path d="M25.25 41.2 L4.75 41.2 4.75 27.7 25.25 27.7 25.25 41.2" fill="#8b8b8b" fill-rule="evenodd" stroke="none"/>
    <path d="M-5.75 41.2 L-26.25 41.2 -26.25 27.7 -5.75 27.7 -5.75 41.2" fill="#8b8b8b" fill-rule="evenodd" stroke="none"/>
    <path d="M-5.75 88.7 L-26.25 88.7 -26.25 75.2 -5.75 75.2 -5.75 88.7" fill="#8b8b8b" fill-rule="evenodd" stroke="none"/>
    <path d="M-5.75 103.2 L-26.25 103.2 -26.25 89.7 -5.75 89.7 -5.75 103.2" fill="#8b8b8b" fill-rule="evenodd" stroke="none"/>
    <path d="M-5.75 117.2 L-26.25 117.2 -26.25 103.7 -5.75 103.7 -5.75 117.2" fill="#8b8b8b" fill-rule="evenodd" stroke="none"/>
    <path d="M25.25 152.2 L4.75 152.2 4.75 138.2 25.25 138.2 25.25 152.2" fill="#8b8b8b" fill-rule="evenodd" stroke="none"/>
    <path d="M25.25 166.2 L4.75 166.2 4.75 152.7 25.25 152.7 25.25 166.2" fill="#8b8b8b" fill-rule="evenodd" stroke="none"/>
    <path d="M-5.75 222.7 L-26.25 222.7 -26.25 209.2 -5.75 209.2 -5.75 222.7" fill="#8b8b8b" fill-rule="evenodd" stroke="none"/>
    <path d="M-5.75 226.7 L-5.75 240.2 -26.25 240.2 -26.25 226.7 -5.75 226.7" fill="#8b8b8b" fill-rule="evenodd" stroke="none"/>
    <path d="M25.25 227.2 L25.25 240.7 4.75 240.7 4.75 227.2 25.25 227.2" fill="#8b8b8b" fill-rule="evenodd" stroke="none"/>
    <path d="M-5.75 -46.8 L-26.25 -46.8 -26.25 -60.8 -5.75 -60.8 -5.75 -46.8" fill="#8b8b8b" fill-rule="evenodd" stroke="none"/>
    <path d="M-26.25 -286.3 L-17.75 -286.3 -17.75 -280.8 -26.25 -280.8 -26.25 -286.3" fill="#ffffff" fill-rule="evenodd" stroke="none"/>
    <path d="M-13.75 -232.3 L-3.75 -232.3 -3.75 -226.8 -13.75 -226.8 -13.75 -232.3" fill="#ffffff" fill-rule="evenodd" stroke="none"/>
    <path d="M28.25 246.7 L30.75 247.2 Q25.25 317.7 19.25 387.7 17.25 389.7 14.75 391.2 L6.25 395.2 -0.75 396.7 -7.75 395.2 -15.75 391.2 -20.25 387.7 Q-25.75 317.7 -31.75 247.2 -30.25 247.2 -29.25 246.7 L28.25 246.7" fill="#585858" fill-rule="evenodd" stroke="none"/>
    <path d="M33.75 -286.3 L-34.75 -286.3 Q-28.25 -309.3 -22.25 -332.8 L21.75 -332.8 33.75 -286.3" fill="#959595" fill-rule="evenodd" stroke="none"/>
  </g>
</svg>
