<?xml version="1.0" encoding="UTF-8" standalone="no"?>
<svg xmlns:ffdec="https://www.free-decompiler.com/flash" xmlns:xlink="http://www.w3.org/1999/xlink" ffdec:objectType="shape" height="1237.95px" width="510.0px" xmlns="http://www.w3.org/2000/svg">
  <g transform="matrix(1.0, 0.0, 0.0, 1.0, 255.0, 512.95)">
    <path d="M-182.4 -494.0 L-182.4 -512.95 174.6 -512.95 174.6 -494.0 255.0 -494.0 255.0 694.4 174.6 694.4 174.6 725.0 -182.4 725.0 -182.4 694.4 -255.0 694.4 -255.0 -494.0 -182.4 -494.0" fill="#434343" fill-rule="evenodd" stroke="none"/>
    <path d="M-41.05 302.85 L-28.45 302.85 -28.45 296.85 28.1 296.85 28.1 302.85 75.8 302.85 75.8 389.8 37.9 389.8 37.9 395.55 39.05 395.55 39.05 401.4 120.6 401.4 120.6 541.85 45.15 541.85 45.15 545.9 120.6 545.9 120.6 691.6 39.2 691.6 39.2 696.0 -39.4 696.0 -39.4 691.6 -120.85 691.6 -120.85 545.9 -46.7 545.9 -46.7 541.85 -120.85 541.85 -120.85 401.4 -39.7 401.4 -39.7 395.55 -37.95 395.55 -37.95 389.8 -44.8 389.8 -68.75 342.5 -41.05 302.85" fill="#969696" fill-rule="evenodd" stroke="none"/>
    <path d="M-45.0 347.75 L-45.0 389.8 -80.85 389.8 -80.85 302.85 -41.05 302.85 -45.0 347.75" fill="#707070" fill-rule="evenodd" stroke="none"/>
    <path d="M101.85 401.4 L120.6 401.4 120.6 541.85 110.3 541.85 110.3 499.15 107.85 493.05 84.15 475.35 84.15 464.0 108.85 446.0 110.3 442.35 110.3 441.9 101.85 401.4" fill="#707070" fill-rule="evenodd" stroke="none"/>
    <path d="M-84.5 475.35 L-108.25 493.05 -110.65 499.15 -110.65 541.85 -120.85 541.85 -120.85 401.4 -102.2 401.4 -110.65 441.9 -110.65 442.35 -109.2 446.0 -84.5 464.0 -84.5 475.35" fill="#707070" fill-rule="evenodd" stroke="none"/>
    <path d="M53.4 545.9 L120.6 545.9 120.6 691.6 46.25 691.6 49.65 680.95 53.4 678.15 53.4 545.9" fill="#707070" fill-rule="evenodd" stroke="none"/>
    <path d="M-53.8 545.9 L-53.8 678.15 -50.05 680.95 -46.6 691.6 -120.85 691.6 -120.85 545.9 -53.8 545.9" fill="#707070" fill-rule="evenodd" stroke="none"/>
    <path d="M91.55 -100.9 L91.55 -91.55 96.75 -91.55 96.75 54.25 91.55 54.25 91.55 65.0 96.75 65.0 96.75 213.0 91.55 213.0 91.55 223.75 96.75 223.75 96.75 292.05 91.55 292.05 91.55 300.7 -92.85 300.7 -92.85 292.05 -97.0 292.05 -97.0 223.75 -92.85 223.75 -92.85 213.0 -97.0 213.0 -97.0 65.0 -92.85 65.0 -92.85 54.25 -97.0 54.25 -97.0 -91.55 -92.85 -91.55 -92.85 -100.9 91.55 -100.9" fill="#969696" fill-rule="evenodd" stroke="none"/>
    <path d="M-41.05 -497.15 L-28.45 -497.15 -28.45 -503.15 28.1 -503.15 28.1 -497.15 75.8 -497.15 75.8 -410.2 37.9 -410.2 37.9 -404.45 39.05 -404.45 39.05 -398.6 120.6 -398.6 120.6 -258.15 45.15 -258.15 45.15 -254.1 120.6 -254.1 120.6 -108.4 39.2 -108.4 39.2 -104.0 28.1 -104.0 28.1 -91.2 -28.45 -91.2 -28.45 -104.0 -39.4 -104.0 -39.4 -108.4 -120.85 -108.4 -120.85 -254.1 -46.7 -254.1 -46.7 -258.15 -120.85 -258.15 -120.85 -398.6 -39.7 -398.6 -39.7 -404.45 -37.95 -404.45 -37.95 -410.2 -44.8 -410.2 -68.75 -457.5 -41.05 -497.15" fill="#969696" fill-rule="evenodd" stroke="none"/>
    <path d="M-45.0 -410.2 L-80.85 -410.2 -80.85 -497.15 -41.05 -497.15 -45.0 -452.25 -45.0 -410.2" fill="#707070" fill-rule="evenodd" stroke="none"/>
    <path d="M101.85 -398.6 L120.6 -398.6 120.6 -258.15 110.3 -258.15 110.3 -300.85 107.85 -306.95 84.15 -324.65 84.15 -336.0 108.85 -354.0 110.3 -357.65 110.3 -358.1 101.85 -398.6" fill="#707070" fill-rule="evenodd" stroke="none"/>
    <path d="M-84.5 -324.65 L-108.25 -306.95 -110.65 -300.85 -110.65 -258.15 -120.85 -258.15 -120.85 -398.6 -102.2 -398.6 -110.65 -358.1 -110.65 -357.65 -109.2 -354.0 -84.5 -336.0 -84.5 -324.65" fill="#707070" fill-rule="evenodd" stroke="none"/>
    <path d="M53.4 -254.1 L120.6 -254.1 120.6 -108.4 46.25 -108.4 49.65 -119.05 53.4 -121.85 53.4 -254.1" fill="#707070" fill-rule="evenodd" stroke="none"/>
    <path d="M-53.8 -254.1 L-53.8 -121.85 -50.05 -119.05 -46.6 -108.4 -120.85 -108.4 -120.85 -254.1 -53.8 -254.1" fill="#707070" fill-rule="evenodd" stroke="none"/>
    <path d="M-28.45 -512.95 L28.1 -512.95 28.1 -503.15 -28.45 -503.15 -28.45 -512.95" fill="#ffffff" fill-rule="evenodd" stroke="none"/>
  </g>
</svg>
