<?xml version="1.0" encoding="UTF-8" standalone="no"?>
<svg xmlns:ffdec="https://www.free-decompiler.com/flash" xmlns:xlink="http://www.w3.org/1999/xlink" ffdec:objectType="shape" height="102.0px" width="486.0px" xmlns="http://www.w3.org/2000/svg">
  <g transform="matrix(1.0, 0.0, 0.0, 1.0, -397.0, -513.15)">
    <path d="M883.0 538.4 L883.0 589.9 Q882.35 600.1 875.1 607.25 867.65 614.8 856.75 615.15 L423.3 615.15 Q412.7 615.0 404.85 607.25 397.3 599.6 397.0 588.85 L397.0 539.45 Q397.25 528.7 404.85 521.05 412.55 513.4 423.3 513.15 L856.75 513.15 Q867.55 513.45 875.1 521.05 882.45 528.4 883.0 538.4" fill="#c9eef7" fill-rule="evenodd" stroke="none"/>
    <path d="M877.0 542.55 L877.0 585.75 Q876.8 595.35 869.95 602.1 863.3 608.85 853.6 609.15 L426.4 609.15 Q416.9 609.0 410.0 602.1 403.3 595.4 403.0 585.75 L403.0 542.55 Q403.2 533.0 410.0 526.15 416.85 519.35 426.4 519.15 L853.6 519.15 Q863.25 519.45 869.95 526.15 876.85 533.05 877.0 542.55" fill="#ffffff" fill-rule="evenodd" stroke="none"/>
  </g>
</svg>
