<?xml version="1.0" encoding="UTF-8" standalone="no"?>
<svg xmlns:ffdec="https://www.free-decompiler.com/flash" xmlns:xlink="http://www.w3.org/1999/xlink" ffdec:objectType="shape" height="1648.45px" width="245.9px" xmlns="http://www.w3.org/2000/svg">
  <g transform="matrix(1.0, 0.0, 0.0, 1.0, 105.7, 916.05)">
    <path d="M58.25 -906.7 L64.4 -905.95 69.65 -904.75 70.55 -904.15 70.1 -903.4 51.65 -902.85 59.9 -805.65 139.0 -802.95 140.2 -747.75 139.0 -744.95 69.0 -729.75 68.7 -729.75 71.6 -707.35 78.2 -637.75 80.6 -604.15 82.0 -564.55 82.6 -564.55 82.6 -540.55 82.9 -540.15 85.15 -535.5 87.1 -529.05 88.05 -522.45 88.55 -511.95 88.05 -505.7 82.6 -505.7 82.6 -424.5 85.3 -420.9 87.55 -416.25 89.5 -409.8 90.45 -403.2 90.95 -392.7 90.45 -386.45 82.6 -386.45 82.6 374.65 119.3 378.05 119.3 427.25 82.6 427.25 82.6 602.65 81.8 634.6 79.2 658.5 73.2 680.8 64.2 700.3 52.65 717.7 39.2 726.8 26.95 731.8 20.5 732.4 14.0 732.4 6.95 731.8 -4.7 726.8 -18.15 717.7 -29.7 700.3 -38.7 680.8 -44.7 658.5 -47.3 634.6 -48.1 602.65 -48.1 427.25 -84.8 427.25 -84.8 378.05 -48.1 374.65 -48.1 -386.45 -55.95 -386.45 -56.45 -392.7 -55.95 -403.2 -55.0 -409.8 -53.05 -416.25 -50.8 -420.9 -48.1 -424.5 -48.1 -505.7 -53.55 -505.7 -54.05 -511.95 -53.55 -522.45 -52.6 -529.05 -50.65 -535.5 -48.4 -540.15 -48.1 -540.55 -48.1 -564.55 -47.5 -564.55 -46.1 -604.15 -43.7 -637.75 -37.1 -707.35 -34.2 -729.75 -34.5 -729.75 -104.5 -744.95 -105.7 -747.75 -104.5 -802.95 -25.4 -805.65 -17.15 -902.85 -35.6 -903.4 -36.05 -904.15 -35.15 -904.75 -29.9 -905.95 -23.75 -906.7 -16.8 -906.7 -16.35 -909.75 -15.4 -912.75 -14.05 -914.9 -12.5 -916.05 -10.9 -916.05 -9.35 -914.9 -8.0 -912.75 -7.05 -909.75 -6.6 -906.7 0.4 -906.7 6.55 -905.95 11.8 -904.75 12.7 -904.15 12.25 -903.4 -6.2 -902.85 -3.45 -873.95 0.1 -869.35 34.4 -869.35 37.95 -873.95 40.7 -902.85 22.25 -903.4 21.8 -904.15 22.7 -904.75 27.95 -905.95 34.1 -906.7 41.1 -906.7 41.55 -909.75 42.5 -912.75 43.85 -914.9 45.4 -916.05 47.0 -916.05 48.55 -914.9 49.9 -912.75 50.85 -909.75 51.3 -906.7 58.25 -906.7" fill="#434343" fill-rule="evenodd" stroke="none"/>
    <path d="M-7.3 -103.7 L-7.3 -108.6 -11.65 -108.6 -11.65 -103.7 -7.3 -103.7 M-7.3 -146.9 L-7.3 -151.8 -11.65 -151.8 -11.65 -146.9 -7.3 -146.9 M42.75 -103.7 L47.1 -103.7 47.1 -108.6 42.75 -108.6 42.75 -103.7 M47.1 -147.2 L47.1 -152.1 42.75 -152.1 42.75 -147.2 47.1 -147.2 M-7.3 -233.0 L-7.3 -220.35 -11.65 -220.35 -11.65 -215.45 -7.3 -215.45 -7.3 -213.35 6.75 -213.35 6.75 -194.0 -7.3 -194.0 -7.3 -191.55 -11.65 -191.55 -11.65 -186.65 -7.3 -186.65 -7.3 -175.0 42.75 -175.0 42.75 -186.65 47.1 -186.65 47.1 -191.55 42.75 -191.55 42.75 -194.0 28.6 -194.0 28.6 -213.35 42.75 -213.35 42.75 -215.75 47.1 -215.75 47.1 -220.65 42.75 -220.65 42.75 -233.0 -7.3 -233.0 M46.35 -275.4 L41.25 -275.4 41.25 -273.2 71.0 -273.2 71.0 -65.25 44.85 -64.55 44.85 -42.5 43.0 -42.5 43.0 -40.85 47.6 -40.85 47.6 -22.8 47.75 -22.8 47.75 2.1 25.35 2.1 25.35 4.1 26.0 4.1 26.0 15.6 45.35 15.6 45.35 43.65 44.5 43.65 44.5 45.0 45.1 45.0 45.1 109.8 36.5 109.8 36.5 120.2 53.2 120.2 53.2 167.6 10.5 167.6 10.5 180.0 43.5 180.0 43.5 207.6 20.75 207.6 20.75 211.2 43.5 211.2 43.5 251.4 10.75 251.4 10.75 265.65 43.75 265.65 43.75 312.3 34.2 312.3 34.2 427.5 -2.15 427.5 -2.15 312.3 -10.25 312.3 -10.25 265.65 -3.0 265.65 -3.0 251.4 -9.3 251.4 -9.3 211.8 -8.7 211.8 -6.25 211.0 -4.3 211.0 -4.3 207.7 -6.25 207.7 -8.7 206.95 -9.3 206.95 -9.3 180.0 -3.3 180.0 -3.3 167.6 -9.3 167.6 -9.3 120.2 22.7 120.2 22.7 109.8 -15.5 109.8 -15.5 60.4 5.6 60.4 5.6 72.0 22.7 72.0 22.7 45.0 30.6 45.0 30.6 43.65 29.45 43.65 29.45 31.7 10.0 31.7 10.0 4.1 11.35 4.1 11.35 2.1 -8.8 2.1 -8.8 -22.8 23.6 -22.8 23.6 -40.85 29.0 -40.85 29.0 -42.5 -36.0 -42.5 -36.0 -273.2 27.6 -273.2 27.6 -275.4 -8.4 -275.4 -8.4 -321.75 46.35 -321.75 46.35 -275.4 M-10.5 -363.9 L-6.0 -363.9 -6.0 -369.6 -9.3 -369.6 -7.15 -531.35 36.95 -531.35 39.6 -369.6 35.7 -369.6 35.7 -363.9 45.0 -363.9 45.0 -323.5 -10.5 -323.5 -10.5 -363.9" fill="#969696" fill-rule="evenodd" stroke="none"/>
    <path d="M30.6 180.0 L44.75 180.0 44.75 207.6 30.6 207.6 30.6 180.0" fill="#707070" fill-rule="evenodd" stroke="none"/>
    <path d="M30.6 211.2 L44.75 211.2 44.75 251.4 30.6 251.4 30.6 211.2" fill="#707070" fill-rule="evenodd" stroke="none"/>
    <path d="M16.6 120.2 L16.6 123.75 7.75 123.75 7.75 129.15 -9.3 129.15 -9.3 167.6 -32.0 167.6 -32.0 120.2 16.6 120.2" fill="#707070" fill-rule="evenodd" stroke="none"/>
    <path d="M41.25 130.5 L41.25 120.2 66.6 120.2 66.6 167.6 43.15 167.6 43.15 167.15 35.15 167.15 34.45 167.5 33.5 167.65 32.6 167.55 31.7 167.2 30.95 166.6 30.4 165.85 30.05 164.95 29.95 164.0 30.1 163.1 30.55 162.25 31.15 161.5 31.95 161.0 32.9 160.75 33.85 160.7 34.75 160.95 35.55 161.4 36.25 162.1 36.7 162.9 36.9 163.85 36.85 164.8 36.75 165.15 43.15 165.15 43.15 153.55 40.95 153.55 40.95 145.75 43.15 145.75 43.15 130.5 41.25 130.5" fill="#707070" fill-rule="evenodd" stroke="none"/>
    <path d="M14.2 142.05 L14.2 138.6 30.45 138.6 30.45 142.05 29.5 142.05 29.5 167.6 15.1 167.6 15.1 142.05 14.2 142.05" fill="#707070" fill-rule="evenodd" stroke="none"/>
    <path d="M-9.3 231.4 L-9.3 213.2 -5.9 213.2 -5.9 231.4 -9.3 231.4" fill="#707070" fill-rule="evenodd" stroke="none"/>
    <path d="M-9.3 183.3 L-5.9 183.3 -5.9 199.75 -9.3 199.75 -9.3 183.3" fill="#707070" fill-rule="evenodd" stroke="none"/>
    <path d="M16.9 245.95 L18.05 246.1 19.05 246.7 19.65 247.75 19.7 248.95 19.15 250.0 18.2 250.7 17.05 250.85 15.9 250.5 15.1 249.6 14.8 248.5 15.05 247.35 15.8 246.4 16.9 245.95" fill="#707070" fill-rule="evenodd" stroke="none"/>
    <path d="M-4.45 204.3 L-4.95 205.3 -5.8 205.95 -6.9 206.1 -7.95 205.75 -8.7 204.95 -8.95 203.9 -8.75 202.85 -8.05 202.0 -7.05 201.6 -5.95 201.7 -5.0 202.3 -4.5 203.25 -4.45 204.3" fill="#707070" fill-rule="evenodd" stroke="none"/>
    <path d="M-1.95 -1.2 L-1.6 -2.7 -0.65 -3.85 0.75 -4.45 2.3 -4.3 3.6 -3.45 4.35 -2.15 4.35 -0.6 3.7 0.75 2.45 1.7 0.95 1.9 -0.5 1.4 -1.55 0.3 -1.95 -1.2" fill="#707070" fill-rule="evenodd" stroke="none"/>
    <path d="M-9.0 -40.85 L-9.0 2.7 -39.0 2.7 -39.0 -40.85 -9.0 -40.85" fill="#707070" fill-rule="evenodd" stroke="none"/>
    <path d="M44.25 2.1 L44.25 -40.85 69.25 -40.85 69.25 2.1 44.25 2.1" fill="#707070" fill-rule="evenodd" stroke="none"/>
    <path d="M69.25 -62.1 L69.25 -42.5 44.25 -42.5 44.25 -62.1 69.25 -62.1" fill="#707070" fill-rule="evenodd" stroke="none"/>
    <path d="M71.0 -65.25 L71.0 -63.6 -12.9 -63.6 -12.9 -65.25 71.0 -65.25" fill="#707070" fill-rule="evenodd" stroke="none"/>
    <path d="M-7.3 -170.6 L42.65 -170.6 42.65 -84.65 -7.3 -84.65 -7.3 -170.6" fill="#707070" fill-rule="evenodd" stroke="none"/>
    <path d="M6.75 -213.35 L-7.3 -213.35 -7.3 -233.0 42.75 -233.0 42.75 -213.35 28.6 -213.35 28.6 -194.0 42.75 -194.0 42.75 -175.0 -7.3 -175.0 -7.3 -194.0 6.75 -194.0 6.75 -213.35" fill="#707070" fill-rule="evenodd" stroke="none"/>
    <path d="M46.35 -275.4 L46.35 -321.75 70.35 -321.75 70.35 -275.4 46.35 -275.4" fill="#707070" fill-rule="evenodd" stroke="none"/>
    <path d="M-8.4 -321.75 L-8.4 -275.4 -36.25 -275.4 -36.25 -321.75 -8.4 -321.75" fill="#707070" fill-rule="evenodd" stroke="none"/>
    <path d="M8.45 -332.0 L8.45 -323.5 -9.15 -323.5 -9.15 -332.0 8.45 -332.0" fill="#707070" fill-rule="evenodd" stroke="none"/>
    <path d="M27.7 -448.2 L27.7 -440.4 33.05 -440.4 33.05 -415.0 38.25 -415.0 37.75 -448.2 27.7 -448.2 M38.3 -410.4 L33.05 -410.4 33.05 -403.2 38.4 -403.2 38.3 -410.4 M1.5 -463.5 L-8.1 -463.5 -8.25 -453.45 1.5 -453.45 1.5 -463.5 M-7.9 -479.55 L-8.05 -468.75 1.5 -468.75 1.5 -479.55 -7.9 -479.55 M37.55 -463.5 L27.7 -463.5 27.7 -453.45 37.7 -453.45 37.55 -463.5 M27.7 -479.55 L27.7 -468.75 37.5 -468.75 37.35 -479.55 27.7 -479.55 M35.2 -531.35 L35.2 -522.8 27.7 -522.8 27.7 -503.75 23.35 -503.75 23.35 -489.9 27.7 -489.9 27.7 -484.8 37.25 -484.8 36.6 -531.35 58.35 -531.35 66.5 -323.5 40.15 -323.5 38.45 -398.6 33.05 -398.6 33.05 -361.85 24.0 -361.85 24.0 -357.2 17.75 -357.2 17.75 -352.4 10.6 -352.4 10.6 -358.4 1.6 -358.4 1.6 -361.85 -3.85 -361.85 -3.85 -440.4 1.5 -440.4 1.5 -448.2 -8.3 -448.2 -9.5 -363.9 -10.65 -323.5 -31.65 -323.5 -23.5 -531.35 -7.15 -531.35 -7.8 -484.8 1.5 -484.8 1.5 -489.9 5.9 -489.9 5.9 -503.75 1.5 -503.75 1.5 -522.8 -5.65 -522.8 -5.65 -531.35 35.2 -531.35" fill="#707070" fill-rule="evenodd" stroke="none"/>
    <path d="M-9.35 -172.05 L-9.35 -173.7 45.65 -173.7 45.65 -172.05 -9.35 -172.05" fill="#707070" fill-rule="evenodd" stroke="none"/>
    <path d="M43.5 270.3 L37.6 270.3 37.6 275.3 20.1 275.3 20.1 265.65 60.25 265.65 60.25 427.5 -27.75 427.5 -27.75 265.65 -10.25 265.65 -10.25 293.7 0.0 293.7 0.0 309.3 -10.25 309.3 -10.25 320.1 9.25 320.1 9.25 406.5 -1.25 406.5 -1.25 422.3 10.0 422.3 10.0 424.0 24.2 424.0 24.2 422.3 34.0 422.3 34.0 405.9 24.85 405.9 24.85 319.5 43.5 319.5 43.5 270.3" fill="#707070" fill-rule="evenodd" stroke="none"/>
    <path d="M44.1 78.3 L49.95 78.3 49.95 69.9 44.25 69.9 44.25 51.6 53.35 51.6 53.35 105.15 49.95 105.15 49.95 96.6 44.1 96.6 44.1 78.3" fill="#707070" fill-rule="evenodd" stroke="none"/>
    <path d="M10.0 29.1 L13.3 29.1 13.3 30.4 20.1 30.4 20.1 29.1 23.05 29.1 23.05 31.7 10.0 31.7 10.0 29.1" fill="#707070" fill-rule="evenodd" stroke="none"/>
    <path d="M43.7 33.9 L43.7 25.7 45.35 25.7 45.35 39.1 44.5 39.1 44.5 33.9 43.7 33.9" fill="#707070" fill-rule="evenodd" stroke="none"/>
    <path d="M-15.75 25.95 L5.35 25.95 5.35 62.25 -15.75 62.25 -15.75 25.95" fill="#ffffff" fill-rule="evenodd" stroke="none"/>
    <path d="M-12.25 -22.25 L-12.25 -40.85 23.7 -40.85 23.7 -22.25 -12.25 -22.25" fill="#ffffff" fill-rule="evenodd" stroke="none"/>
    <path d="M15.25 -273.2 L15.25 -252.6 -10.65 -252.6 -10.65 -273.2 15.25 -273.2" fill="#ffffff" fill-rule="evenodd" stroke="none"/>
    <path d="M23.5 -295.2 L23.5 -275.1 -12.55 -275.1 -12.55 -295.2 23.5 -295.2" fill="#ffffff" fill-rule="evenodd" stroke="none"/>
    <path d="M23.2 -295.15 L23.2 -275.0 -12.75 -275.0 -12.75 -295.15 23.2 -295.15" fill="#ffffff" fill-rule="evenodd" stroke="none"/>
    <path d="M51.6 -70.15 L64.0 -70.15 64.0 -65.25 51.6 -65.25 51.6 -70.15" fill="#ffffff" fill-rule="evenodd" stroke="none"/>
    <path d="M52.0 -384.6 L52.0 -347.2 33.6 -347.2 33.6 -384.6 52.0 -384.6" fill="#ffffff" fill-rule="evenodd" stroke="none"/>
  </g>
</svg>
