<?xml version="1.0" encoding="UTF-8" standalone="no"?>
<svg xmlns:ffdec="https://www.free-decompiler.com/flash" xmlns:xlink="http://www.w3.org/1999/xlink" ffdec:objectType="shape" height="1648.45px" width="245.9px" xmlns="http://www.w3.org/2000/svg">
  <g transform="matrix(1.0, 0.0, 0.0, 1.0, 140.25, 732.35)">
    <path d="M-79.25 -658.45 L-73.25 -680.75 -64.25 -700.25 -52.7 -717.65 -39.25 -726.75 -27.0 -731.75 -20.55 -732.35 -14.05 -732.35 -7.0 -731.75 4.65 -726.75 18.1 -717.65 29.65 -700.25 38.65 -680.75 44.65 -658.45 47.25 -634.55 48.05 -602.6 48.05 -427.2 84.75 -427.2 84.75 -378.0 48.05 -374.6 48.05 386.5 55.9 386.5 56.4 392.75 55.9 403.25 54.95 409.85 53.0 416.3 50.75 420.95 48.05 424.55 48.05 505.75 53.5 505.75 54.0 512.0 53.5 522.5 52.55 529.1 50.6 535.55 48.35 540.2 48.05 540.6 48.05 564.6 47.45 564.6 46.05 604.2 43.65 637.8 37.05 707.4 34.15 729.8 34.45 729.8 104.45 745.0 105.65 747.8 104.45 803.0 25.35 805.7 17.1 902.9 35.55 903.45 36.0 904.2 35.1 904.8 29.85 906.0 23.7 906.75 16.75 906.75 16.3 909.8 15.35 912.8 14.0 914.95 12.45 916.1 10.85 916.1 9.3 914.95 7.95 912.8 7.0 909.8 6.55 906.75 -0.45 906.75 -6.6 906.0 -11.85 904.8 -12.75 904.2 -12.3 903.45 6.15 902.9 3.4 874.0 -0.15 869.4 -34.45 869.4 -38.0 874.0 -40.75 902.9 -22.3 903.45 -21.85 904.2 -22.75 904.8 -28.0 906.0 -34.15 906.75 -41.15 906.75 -41.6 909.8 -42.55 912.8 -43.9 914.95 -45.45 916.1 -47.05 916.1 -48.6 914.95 -49.95 912.8 -50.9 909.8 -51.35 906.75 -58.3 906.75 -64.45 906.0 -69.7 904.8 -70.6 904.2 -70.15 903.45 -51.7 902.9 -59.95 805.7 -139.05 803.0 -140.25 747.8 -139.05 745.0 -69.05 729.8 -68.75 729.8 -71.65 707.4 -78.25 637.8 -80.65 604.2 -82.05 564.6 -82.65 564.6 -82.65 540.6 -82.95 540.2 -85.2 535.55 -87.15 529.1 -88.1 522.5 -88.6 512.0 -88.1 505.75 -82.65 505.75 -82.65 424.55 -85.35 420.95 -87.6 416.3 -89.55 409.85 -90.5 403.25 -91.0 392.75 -90.5 386.5 -82.65 386.5 -82.65 -374.6 -119.35 -378.0 -119.35 -427.2 -82.65 -427.2 -82.65 -602.6 -81.85 -634.55 -79.25 -658.45" fill="#434343" fill-rule="evenodd" stroke="none"/>
    <path d="M-40.6 174.5 L-40.6 169.6 -43.2 169.6 -43.2 174.5 -40.6 174.5 M5.9 174.5 L5.9 169.6 3.3 169.6 3.3 174.5 5.9 174.5 M3.15 126.0 L3.15 130.9 5.75 130.9 5.75 126.0 3.15 126.0 M-43.35 126.0 L-43.35 130.9 -40.7 130.9 -40.7 126.0 -43.35 126.0 M-51.55 -365.7 L-32.6 -365.7 -32.6 -355.25 -33.25 -352.95 -34.55 -350.9 -36.35 -349.25 -38.55 -348.05 -37.85 -346.7 -35.45 -348.0 -33.4 -349.95 -31.9 -352.35 -31.1 -355.0 -31.1 -365.7 -27.95 -365.7 -27.95 -313.05 -38.45 -313.05 -38.45 -311.2 -31.9 -311.2 -31.9 -310.75 -31.15 -308.35 -31.15 -306.4 -27.85 -306.4 -27.85 -308.35 -27.05 -310.75 -27.05 -311.2 25.25 -311.2 25.25 -310.75 26.05 -308.35 26.05 -306.4 29.35 -306.4 29.35 -308.35 30.1 -310.75 30.1 -311.2 41.2 -311.2 41.2 -267.15 30.1 -267.15 30.1 -267.6 29.35 -270.05 29.35 -272.0 26.05 -272.0 26.05 -270.05 25.25 -267.6 25.25 -267.15 -27.05 -267.15 -27.05 -267.6 -27.85 -270.05 -27.85 -272.0 -31.15 -272.0 -31.15 -270.05 -31.9 -267.6 -31.9 -267.15 -39.3 -267.15 -39.3 -241.8 -26.75 -241.8 -26.75 -226.4 -11.65 -226.4 7.2 -238.6 28.2 -228.6 28.2 -87.2 16.35 -87.2 16.35 -65.4 26.75 -65.4 26.75 -16.0 -11.95 -16.0 -11.95 -2.1 31.0 -2.1 31.0 41.2 12.2 41.2 12.2 20.4 -19.8 20.4 -19.8 41.0 -31.65 41.0 -31.65 43.6 -27.25 43.6 -27.25 42.8 -15.65 42.8 -15.65 43.6 17.35 43.6 17.35 42.8 29.2 42.8 29.2 43.6 32.35 43.6 32.35 65.6 29.2 65.6 29.2 67.0 32.2 67.0 32.2 89.6 29.2 89.6 29.2 91.3 32.2 91.3 32.2 113.95 29.2 113.95 29.2 115.1 32.2 115.1 32.2 137.75 29.2 137.75 29.2 139.1 32.2 139.1 32.2 161.75 29.2 161.75 29.2 163.1 32.0 163.1 32.0 185.75 29.2 185.75 29.2 187.1 32.0 187.1 32.0 209.75 29.2 209.75 29.2 210.95 32.0 210.95 32.0 234.25 29.2 234.25 29.2 235.45 -31.65 235.45 -31.65 237.7 -11.4 237.7 -11.4 248.45 -9.0 248.45 -9.0 237.7 30.6 237.7 30.6 273.45 -9.0 273.45 -9.0 263.2 -11.4 263.2 -11.4 273.45 -31.4 273.45 -31.4 275.8 -20.0 275.8 -20.0 295.2 12.7 295.2 12.7 275.8 31.75 275.8 31.75 321.6 -68.0 321.6 -68.0 275.8 -45.75 275.8 -45.75 273.45 -68.4 273.45 -68.4 237.7 -45.9 237.7 -45.9 235.45 -64.65 235.45 -64.65 234.25 -67.65 234.25 -67.65 210.95 -64.65 210.95 -64.65 209.75 -67.65 209.75 -67.65 187.1 -64.65 187.1 -64.65 185.75 -67.65 185.75 -67.65 163.1 -64.65 163.1 -64.65 161.75 -67.4 161.75 -67.4 139.1 -64.65 139.1 -64.65 137.75 -67.4 137.75 -67.4 115.1 -64.65 115.1 -64.65 113.95 -67.4 113.95 -67.4 91.3 -64.65 91.3 -64.65 89.6 -67.4 89.6 -67.4 67.0 -64.65 67.0 -64.65 65.6 -67.4 65.6 -67.4 43.6 -64.25 43.6 -64.25 42.8 -49.8 42.8 -49.8 43.6 -45.25 43.6 -45.25 41.0 -67.8 41.0 -67.8 -2.1 -24.95 -2.1 -24.95 -16.0 -32.65 -16.0 -32.65 -65.4 3.35 -65.4 3.35 -87.2 -48.15 -87.2 -48.2 -151.65 -64.5 -151.5 -64.5 -241.8 -52.5 -241.8 -52.5 -267.15 -66.95 -267.15 -66.95 -311.2 -53.75 -311.2 -53.75 -313.05 -67.25 -313.05 -67.25 -365.7 -53.05 -365.7 -53.05 -355.0 -52.2 -352.3 -50.7 -349.95 -48.65 -348.0 -46.25 -346.7 -45.5 -348.05 -47.75 -349.25 -49.5 -350.9 -50.8 -352.95 -51.55 -355.25 -51.55 -365.7" fill="#969696" fill-rule="evenodd" stroke="none"/>
    <path d="M-54.05 567.6 L-52.05 568.05 -50.2 569.0 -48.6 570.35 -47.35 572.0 -46.55 573.9 -46.15 575.95 -46.3 578.0 -46.9 580.0 -47.9 581.8 -49.35 583.3 -51.1 584.45 -53.0 585.15 -55.1 585.4 -57.15 585.15 -59.1 584.45 -60.8 583.3 -62.25 581.8 -63.25 580.0 -63.85 578.0 -64.0 575.95 -63.65 573.9 -62.8 572.0 -61.55 570.35 -60.0 569.0 -58.15 568.05 -56.1 567.6 -54.05 567.6" fill="#707070" fill-rule="evenodd" stroke="none"/>
    <path d="M-55.5 64.8 L-53.6 65.75 -52.05 67.2 -50.95 69.0 -50.4 71.05 -50.4 73.15 -50.95 75.2 -52.05 77.0 -53.6 78.45 -55.45 79.45 -57.5 79.85 -59.65 79.75 -61.65 79.05 -63.35 77.8 -64.7 76.2 -65.55 74.25 -65.85 72.15 -65.55 70.05 -64.7 68.1 -63.4 66.45 -61.65 65.25 -59.65 64.5 -57.55 64.4 -55.5 64.8" fill="#707070" fill-rule="evenodd" stroke="none"/>
    <path d="M-26.45 -173.45 L-26.45 -191.4 -1.45 -191.4 -1.45 -173.45 -26.45 -173.45" fill="#707070" fill-rule="evenodd" stroke="none"/>
    <path d="M19.35 -311.2 L23.75 -311.2 23.75 -309.6 19.35 -309.6 19.35 -311.2" fill="#707070" fill-rule="evenodd" stroke="none"/>
    <path d="M-19.25 -308.0 L-19.25 -309.3 -25.8 -309.3 -25.8 -311.2 7.2 -311.2 7.2 -309.3 -6.15 -309.3 -6.15 -308.0 -9.15 -308.0 -9.15 -309.3 -16.25 -309.3 -16.25 -308.0 -19.25 -308.0" fill="#707070" fill-rule="evenodd" stroke="none"/>
    <path d="M-63.45 -346.6 L-63.45 -328.2 -67.25 -328.2 -67.25 -365.6 -53.8 -365.6 -53.8 -356.4 -64.45 -356.4 -64.45 -346.6 -63.45 -346.6" fill="#707070" fill-rule="evenodd" stroke="none"/>
    <path d="M-31.15 -348.95 L-29.45 -348.95 -29.45 -352.2 -27.95 -352.2 -27.95 -313.8 -29.45 -313.8 -29.45 -335.2 -31.15 -335.2 -31.15 -338.8 -29.45 -338.8 -29.45 -339.4 -30.4 -339.4 -30.4 -344.3 -29.45 -344.3 -29.45 -345.35 -31.15 -345.35 -31.15 -348.95" fill="#707070" fill-rule="evenodd" stroke="none"/>
    <path d="M-67.35 -267.15 L-67.35 -306.0 -67.55 -306.7 -67.6 -307.5 -67.4 -308.3 -67.0 -309.05 -66.4 -309.6 -65.7 -310.05 -64.9 -310.25 -64.1 -310.2 -63.3 -309.95 -62.6 -309.5 -62.05 -308.9 -61.7 -308.15 -61.55 -307.35 -61.6 -306.5 -61.9 -305.75 -62.4 -305.05 -63.0 -304.6 -63.0 -302.0 -57.65 -302.0 -57.65 -295.0 -63.0 -295.0 -63.0 -285.4 -58.25 -285.4 -58.25 -267.15 -67.35 -267.15" fill="#707070" fill-rule="evenodd" stroke="none"/>
    <path d="M31.75 -311.2 L43.2 -311.2 43.2 -267.15 32.05 -267.15 32.05 -275.4 38.05 -275.4 38.05 -308.25 31.75 -308.25 31.75 -311.2" fill="#707070" fill-rule="evenodd" stroke="none"/>
    <path d="M15.75 -310.85 L16.3 -311.0 16.85 -310.9 17.35 -310.65 17.7 -310.25 17.85 -309.7 17.75 -309.15 17.5 -308.65 17.05 -308.35 16.55 -308.15 16.0 -308.25 15.5 -308.5 15.2 -308.95 15.0 -309.45 15.1 -310.0 15.35 -310.5 15.75 -310.85" fill="#707070" fill-rule="evenodd" stroke="none"/>
    <path d="M10.9 -310.85 L11.45 -311.0 11.95 -310.9 12.45 -310.65 12.8 -310.25 12.95 -309.7 12.9 -309.15 12.65 -308.65 12.2 -308.35 11.65 -308.15 11.15 -308.25 10.65 -308.5 10.3 -308.95 10.15 -309.45 10.2 -310.0 10.45 -310.5 10.9 -310.85" fill="#707070" fill-rule="evenodd" stroke="none"/>
    <path d="M-64.5 -235.5 L-60.65 -235.5 -60.65 -224.4 -64.5 -224.4 -64.5 -235.5" fill="#707070" fill-rule="evenodd" stroke="none"/>
    <path d="M-64.5 -237.45 L-64.5 -241.8 -52.25 -241.8 -52.25 -237.45 -64.5 -237.45" fill="#707070" fill-rule="evenodd" stroke="none"/>
    <path d="M-64.5 -220.7 L-55.7 -220.7 -55.7 -209.6 -58.05 -209.6 -58.05 -184.8 -54.95 -184.8 -54.95 -159.3 -45.95 -159.3 -45.95 -157.8 -39.75 -157.8 -39.75 -97.65 -48.2 -97.65 -48.2 -151.2 -64.5 -151.2 -64.5 -220.7" fill="#707070" fill-rule="evenodd" stroke="none"/>
    <path d="M-29.25 -87.2 L-48.15 -87.2 -48.15 -90.8 -31.75 -90.8 -31.75 -94.1 -29.25 -94.1 -29.25 -87.2" fill="#707070" fill-rule="evenodd" stroke="none"/>
    <path d="M-16.0 -230.1 L-1.65 -240.0 18.3 -240.0 31.75 -229.5 31.75 -87.2 23.35 -87.2 23.35 -105.8 18.85 -105.8 18.85 -127.05 21.25 -127.05 21.25 -223.45 13.4 -229.6 1.15 -229.6 -13.75 -219.0 -28.25 -219.0 -28.25 -230.1 -16.0 -230.1" fill="#707070" fill-rule="evenodd" stroke="none"/>
    <path d="M-23.45 -141.6 L-21.05 -142.5 -18.55 -142.9 -16.05 -142.7 -13.6 -142.0 -11.35 -140.8 -9.45 -139.15 -7.95 -137.15 -6.9 -134.8 -6.35 -132.35 -6.4 -129.8 -6.95 -127.35 -8.05 -125.05 -9.6 -123.05 -11.55 -121.4 -13.8 -120.25 -16.25 -119.6 -18.75 -119.5 -21.25 -119.9 -23.6 -120.85 -25.7 -122.3 -27.4 -124.15 -28.7 -126.35 -29.5 -128.75 -29.75 -131.3 -29.45 -133.8 -28.6 -136.2 -27.3 -138.35 -25.55 -140.15 -23.45 -141.6" fill="#707070" fill-rule="evenodd" stroke="none"/>
    <path d="M-30.95 -237.4 L-31.25 -238.05 -31.35 -238.8 -31.2 -239.55 -30.8 -240.2 -30.25 -240.7 -29.55 -240.95 -28.8 -241.0 -28.05 -240.75 -27.45 -240.35 -27.0 -239.7 -26.8 -239.0 -26.8 -238.25 -27.1 -237.55 -27.6 -236.95 -28.25 -236.6 -28.95 -236.4 -29.7 -236.5 -30.4 -236.85 -30.95 -237.4" fill="#707070" fill-rule="evenodd" stroke="none"/>
    <path d="M18.1 -65.4 L28.0 -65.4 28.0 -16.0 -0.65 -16.0 -0.65 -19.35 8.25 -19.35 8.25 -25.65 26.1 -25.65 26.1 -36.15 17.95 -36.15 17.95 -47.85 26.1 -47.85 26.1 -62.5 18.1 -62.5 18.1 -65.4" fill="#707070" fill-rule="evenodd" stroke="none"/>
    <path d="M-0.3 1.65 L-0.3 -2.1 35.5 -2.1 35.5 41.2 28.85 41.2 28.85 6.3 22.75 6.3 22.75 1.65 -0.3 1.65" fill="#707070" fill-rule="evenodd" stroke="none"/>
    <path d="M-65.4 -2.1 L-65.4 14.4 -62.8 14.4 -62.8 20.9 -59.9 20.9 -59.9 27.7 -61.0 27.7 -61.0 38.2 -48.4 38.2 -48.4 41.0 -67.8 41.0 -67.8 -2.1 -65.4 -2.1" fill="#707070" fill-rule="evenodd" stroke="none"/>
    <path d="M-13.5 48.1 L-13.5 43.6 4.85 43.6 4.85 48.1 -13.5 48.1" fill="#707070" fill-rule="evenodd" stroke="none"/>
    <path d="M16.25 43.6 L16.25 51.8 7.7 51.8 7.7 43.6 16.25 43.6" fill="#707070" fill-rule="evenodd" stroke="none"/>
    <path d="M29.2 42.8 L29.2 43.6 32.35 43.6 32.35 52.25 21.25 52.25 21.25 42.8 29.2 42.8" fill="#707070" fill-rule="evenodd" stroke="none"/>
    <path d="M-60.8 -2.1 L-30.65 -2.1 -30.65 -0.8 -47.9 -0.8 -47.9 0.6 -60.8 0.6 -60.8 -2.1" fill="#707070" fill-rule="evenodd" stroke="none"/>
    <path d="M-7.5 -18.7 L-3.65 -18.7 -3.65 -16.0 -7.5 -16.0 -7.5 -18.7" fill="#707070" fill-rule="evenodd" stroke="none"/>
    <path d="M-67.4 87.45 L-67.4 85.75 -43.25 85.75 -43.25 63.6 -41.55 63.6 -41.55 87.45 -67.4 87.45" fill="#707070" fill-rule="evenodd" stroke="none"/>
    <path d="M-66.75 98.75 L-66.75 95.55 -60.55 95.55 -60.55 98.75 -66.75 98.75" fill="#707070" fill-rule="evenodd" stroke="none"/>
    <path d="M-66.75 155.85 L-66.75 152.75 -60.55 152.75 -60.55 155.85 -66.75 155.85" fill="#707070" fill-rule="evenodd" stroke="none"/>
    <path d="M-66.75 178.35 L-66.75 175.25 -60.55 175.25 -60.55 178.35 -66.75 178.35" fill="#707070" fill-rule="evenodd" stroke="none"/>
    <path d="M-66.75 183.3 L-66.75 180.2 -60.55 180.2 -60.55 183.3 -66.75 183.3" fill="#707070" fill-rule="evenodd" stroke="none"/>
    <path d="M23.85 199.25 L23.85 192.95 31.95 192.95 31.95 199.25 23.85 199.25" fill="#707070" fill-rule="evenodd" stroke="none"/>
    <path d="M23.85 205.5 L23.85 203.5 31.95 203.5 31.95 205.5 23.85 205.5" fill="#707070" fill-rule="evenodd" stroke="none"/>
    <path d="M29.1 183.35 L29.1 179.65 32.0 179.65 32.0 183.35 29.1 183.35" fill="#707070" fill-rule="evenodd" stroke="none"/>
    <path d="M29.25 163.75 L32.0 163.75 32.0 177.6 29.75 177.6 29.75 173.5 30.5 173.5 30.5 172.3 29.25 172.3 29.25 163.75" fill="#707070" fill-rule="evenodd" stroke="none"/>
    <path d="M-52.5 232.35 L-58.05 232.35 -58.05 214.05 -52.5 214.05 -52.5 232.35" fill="#707070" fill-rule="evenodd" stroke="none"/>
    <path d="M28.95 237.7 L28.95 236.85 32.35 236.85 32.35 273.45 28.95 273.45 28.95 245.8 -9.0 245.8 -9.0 237.7 28.95 237.7" fill="#707070" fill-rule="evenodd" stroke="none"/>
    <path d="M29.9 232.3 L29.9 222.2 32.0 222.2 32.0 234.25 -6.8 234.25 -6.8 232.3 29.9 232.3" fill="#707070" fill-rule="evenodd" stroke="none"/>
    <path d="M-66.85 231.55 L-67.65 230.65 -67.65 225.6 -66.9 224.65 -65.65 224.1 -64.3 223.95 -63.0 224.3 -61.85 225.0 -61.0 226.1 -60.55 227.35 -60.55 228.7 -61.0 230.0 -61.8 231.1 -62.95 231.85 -64.25 232.2 -65.6 232.1 -66.85 231.55" fill="#707070" fill-rule="evenodd" stroke="none"/>
    <path d="M-66.85 223.25 L-67.65 222.35 -67.65 217.3 -66.9 216.35 -65.65 215.8 -64.3 215.65 -63.0 216.0 -61.85 216.7 -61.0 217.8 -60.55 219.05 -60.55 220.4 -61.0 221.7 -61.8 222.8 -62.95 223.55 -64.25 223.9 -65.6 223.8 -66.85 223.25" fill="#707070" fill-rule="evenodd" stroke="none"/>
    <path d="M-25.65 231.85 L-16.3 231.85 -16.3 235.45 -25.65 235.45 -25.65 231.85" fill="#707070" fill-rule="evenodd" stroke="none"/>
    <path d="M-12.65 237.7 L-12.65 239.1 -25.9 239.1 -25.9 237.7 -12.65 237.7" fill="#707070" fill-rule="evenodd" stroke="none"/>
    <path d="M16.25 265.95 L16.25 273.45 -9.0 273.45 -9.0 265.95 16.25 265.95" fill="#707070" fill-rule="evenodd" stroke="none"/>
    <path d="M27.6 319.95 L27.6 289.5 31.75 289.5 31.75 319.95 27.6 319.95" fill="#707070" fill-rule="evenodd" stroke="none"/>
    <path d="M26.35 318.0 L26.35 321.6 -33.75 321.6 -33.75 315.5 -14.65 315.5 -14.65 318.0 26.35 318.0" fill="#707070" fill-rule="evenodd" stroke="none"/>
    <path d="M-60.3 321.6 L-60.3 318.0 -37.4 318.0 -37.4 321.6 -60.3 321.6" fill="#707070" fill-rule="evenodd" stroke="none"/>
    <path d="M-61.65 307.95 L-61.65 321.6 -68.0 321.6 -68.0 307.95 -61.65 307.95" fill="#707070" fill-rule="evenodd" stroke="none"/>
    <path d="M-61.5 284.45 L-61.5 291.0 -68.0 291.0 -68.0 284.45 -61.5 284.45" fill="#707070" fill-rule="evenodd" stroke="none"/>
    <path d="M27.1 275.8 L31.75 275.8 31.75 288.5 27.1 288.5 27.1 275.8" fill="#707070" fill-rule="evenodd" stroke="none"/>
    <path d="M-14.2 233.9 L-14.2 233.4 -14.0 232.95 -13.7 232.6 -13.25 232.35 -12.8 232.3 -12.35 232.35 -11.9 232.55 -11.6 232.9 -11.4 233.35 -11.35 233.8 -11.45 234.25 -11.7 234.65 -12.05 234.95 -12.5 235.15 -13.0 235.15 -13.45 235.0 -13.8 234.75 -14.1 234.35 -14.2 233.9" fill="#707070" fill-rule="evenodd" stroke="none"/>
    <path d="M-65.9 301.15 L-64.9 301.15 -63.9 301.45 -63.1 302.05 -62.5 302.9 -62.15 303.85 -62.15 304.85 -62.5 305.85 -63.1 306.65 -63.9 307.25 -64.9 307.6 -65.9 307.6 -66.85 307.25 -68.0 306.65 -68.0 302.05 -66.85 301.45 -65.9 301.15" fill="#707070" fill-rule="evenodd" stroke="none"/>
    <path d="M-65.5 275.85 L-64.5 276.15 -63.7 276.75 -63.1 277.6 -62.75 278.55 -62.75 279.55 -63.1 280.55 -63.7 281.35 -64.5 281.95 -65.5 282.3 -66.5 282.3 -67.45 281.95 -68.0 281.35 -68.0 276.75 -67.45 276.15 -66.5 275.85 -65.5 275.85" fill="#707070" fill-rule="evenodd" stroke="none"/>
    <path d="M-19.4 20.4 L12.2 20.4 12.2 41.25 -19.4 41.25 -19.4 20.4" fill="#ffffff" fill-rule="evenodd" stroke="none"/>
    <path d="M-20.0 275.8 L12.7 275.8 12.7 295.2 -20.0 295.2 -20.0 275.8" fill="#ffffff" fill-rule="evenodd" stroke="none"/>
    <path d="M-64.25 63.95 L-51.8 63.95 -51.8 69.45 -64.25 69.45 -64.25 63.95" fill="#ffffff" fill-rule="evenodd" stroke="none"/>
    <path d="M-60.25 585.75 L-60.25 581.35 -50.25 581.35 -50.25 585.75 -60.25 585.75" fill="#ffffff" fill-rule="evenodd" stroke="none"/>
    <path d="M-60.25 585.75 L-60.25 581.35 -50.25 581.35 -50.25 585.75 -60.25 585.75" fill="#ffffff" fill-rule="evenodd" stroke="none"/>
    <path d="M-47.2 -361.2 L-47.2 -365.6 -37.2 -365.6 -37.2 -361.2 -47.2 -361.2" fill="#ffffff" fill-rule="evenodd" stroke="none"/>
    <path d="M18.85 -288.65 L18.85 -267.1 -23.25 -267.1 -23.25 -288.65 18.85 -288.65" fill="#ffffff" fill-rule="evenodd" stroke="none"/>
    <path d="M-22.65 -87.2 L-22.65 -91.6 -12.65 -91.6 -12.65 -87.2 -22.65 -87.2" fill="#ffffff" fill-rule="evenodd" stroke="none"/>
  </g>
</svg>
