<?xml version="1.0" encoding="UTF-8" standalone="no"?>
<svg xmlns:ffdec="https://www.free-decompiler.com/flash" xmlns:xlink="http://www.w3.org/1999/xlink" ffdec:objectType="shape" height="1648.45px" width="245.85px" xmlns="http://www.w3.org/2000/svg">
  <g transform="matrix(1.0, 0.0, 0.0, 1.0, 122.95, 1029.4)">
    <path d="M-25.3 -1026.1 L-24.35 -1023.15 -23.9 -1020.05 -16.85 -1020.05 -10.7 -1019.3 -5.45 -1018.1 -4.55 -1017.5 -5.0 -1016.75 -23.5 -1016.25 -20.75 -987.3 -17.15 -982.7 17.1 -982.7 20.7 -987.3 23.45 -1016.25 4.95 -1016.75 4.5 -1017.5 5.4 -1018.1 10.65 -1019.3 16.8 -1020.05 23.85 -1020.05 24.3 -1023.15 25.25 -1026.1 26.55 -1028.25 28.1 -1029.4 29.75 -1029.4 31.3 -1028.25 32.6 -1026.1 33.55 -1023.15 34.0 -1020.05 40.95 -1020.05 47.1 -1019.3 52.35 -1018.1 53.25 -1017.5 52.8 -1016.75 34.35 -1016.25 42.6 -919.05 121.7 -916.3 122.9 -861.1 121.7 -858.3 51.7 -843.1 51.4 -843.15 54.3 -820.7 60.9 -751.1 63.3 -717.5 64.75 -677.9 65.3 -677.9 65.3 -653.95 65.65 -653.5 67.9 -648.85 69.8 -642.4 70.8 -635.8 71.25 -625.35 70.8 -619.05 65.3 -619.05 65.3 -537.9 68.05 -534.25 70.3 -529.6 72.2 -523.15 73.2 -516.55 73.65 -506.1 73.2 -499.8 65.3 -499.8 65.3 489.3 64.5 521.2 61.9 545.15 55.95 567.45 46.95 586.95 35.4 604.35 21.9 613.45 10.25 618.45 3.25 619.05 -3.3 619.05 -9.7 618.45 -21.95 613.45 -35.45 604.35 -47.0 586.95 -56.0 567.45 -61.95 545.15 -64.55 521.2 -65.35 489.3 -65.35 -499.8 -73.25 -499.8 -73.7 -506.1 -73.25 -516.55 -72.25 -523.15 -70.35 -529.6 -68.1 -534.25 -65.35 -537.9 -65.35 -619.05 -70.85 -619.05 -71.3 -625.35 -70.85 -635.8 -69.85 -642.4 -67.95 -648.85 -65.7 -653.5 -65.35 -653.95 -65.35 -677.9 -64.8 -677.9 -63.35 -717.5 -60.95 -751.1 -54.35 -820.7 -51.45 -843.15 -51.75 -843.1 -121.75 -858.3 -122.95 -861.1 -121.75 -916.3 -42.65 -919.05 -34.4 -1016.25 -52.85 -1016.75 -53.3 -1017.5 -52.4 -1018.1 -47.15 -1019.3 -41.0 -1020.05 -34.05 -1020.05 -33.6 -1023.15 -32.65 -1026.1 -31.35 -1028.25 -29.8 -1029.4 -28.15 -1029.4 -26.6 -1028.25 -25.3 -1026.1" fill="#707070" fill-rule="evenodd" stroke="none"/>
    <path d="M19.7 333.55 L19.7 494.65 -19.0 494.65 -19.0 333.55 19.7 333.55" fill="#969696" fill-rule="evenodd" stroke="none"/>
    <path d="M47.45 -20.15 L47.45 146.8 -47.5 146.8 -47.5 -20.15 47.45 -20.15" fill="#969696" fill-rule="evenodd" stroke="none"/>
    <path d="M-18.95 -56.75 L-15.95 -55.85 -13.35 -54.2 -11.3 -51.85 -10.0 -49.0 -9.55 -45.9 -10.0 -42.85 -11.3 -40.0 -13.35 -37.65 -15.95 -35.95 -18.95 -35.1 -46.8 -35.1 -46.8 -56.75 -18.95 -56.75" fill="#969696" fill-rule="evenodd" stroke="none"/>
    <path d="M13.25 -54.2 L15.9 -55.85 18.85 -56.75 46.75 -56.75 46.75 -35.1 18.85 -35.1 15.9 -35.95 13.25 -37.65 11.2 -40.0 9.9 -42.85 9.5 -45.9 9.9 -49.0 11.2 -51.85 13.25 -54.2" fill="#969696" fill-rule="evenodd" stroke="none"/>
    <path d="M-18.95 -81.6 L-15.95 -80.75 -13.35 -79.05 -11.3 -76.7 -10.0 -73.85 -9.55 -70.8 -10.0 -67.7 -11.3 -64.85 -13.35 -62.5 -15.95 -60.8 -18.95 -59.95 -46.8 -59.95 -46.8 -81.6 -18.95 -81.6" fill="#969696" fill-rule="evenodd" stroke="none"/>
    <path d="M46.75 -81.6 L46.75 -59.95 18.85 -59.95 15.9 -60.8 13.25 -62.5 11.2 -64.85 9.9 -67.7 9.5 -70.8 9.9 -73.85 11.2 -76.7 13.25 -79.05 15.9 -80.75 18.85 -81.6 46.75 -81.6" fill="#969696" fill-rule="evenodd" stroke="none"/>
    <path d="M-46.8 -84.8 L-46.8 -106.5 -18.95 -106.5 -15.95 -105.6 -13.35 -103.9 -11.3 -101.55 -10.0 -98.75 -9.55 -95.65 -10.0 -92.55 -11.3 -89.75 -13.35 -87.35 -15.95 -85.7 -18.95 -84.8 -46.8 -84.8" fill="#969696" fill-rule="evenodd" stroke="none"/>
    <path d="M46.75 -84.8 L18.85 -84.8 15.9 -85.7 13.25 -87.35 11.2 -89.75 9.9 -92.55 9.5 -95.65 9.9 -98.75 11.2 -101.55 13.25 -103.9 15.9 -105.6 18.85 -106.5 46.75 -106.5 46.75 -84.8" fill="#969696" fill-rule="evenodd" stroke="none"/>
    <path d="M-18.95 -131.35 L-15.95 -130.45 -13.35 -128.8 -11.3 -126.45 -10.0 -123.6 -9.55 -120.5 -10.0 -117.45 -11.3 -114.6 -13.35 -112.25 -15.95 -110.55 -18.95 -109.7 -46.8 -109.7 -46.8 -131.35 -18.95 -131.35" fill="#969696" fill-rule="evenodd" stroke="none"/>
    <path d="M46.75 -131.35 L46.75 -109.7 18.85 -109.7 15.9 -110.55 13.25 -112.25 11.2 -114.6 9.9 -117.45 9.5 -120.5 9.9 -123.6 11.2 -126.45 13.25 -128.8 15.9 -130.45 18.85 -131.35 46.75 -131.35" fill="#969696" fill-rule="evenodd" stroke="none"/>
    <path d="M-16.65 -808.5 L16.7 -808.5 18.35 -561.8 13.75 -544.0 22.65 -143.65 -22.6 -143.65 -13.7 -544.0 -18.3 -561.8 -16.65 -808.5" fill="#969696" fill-rule="evenodd" stroke="none"/>
    <path d="M-47.15 494.45 L-47.15 486.6 -44.4 486.6 -44.4 494.45 -47.15 494.45" fill="#434343" fill-rule="evenodd" stroke="none"/>
    <path d="M-47.25 477.1 L-44.5 477.1 -44.5 484.95 -47.25 484.95 -47.25 477.1" fill="#434343" fill-rule="evenodd" stroke="none"/>
    <path d="M-37.4 462.0 L-37.4 457.25 -29.8 457.25 -29.8 462.0 -37.4 462.0" fill="#434343" fill-rule="evenodd" stroke="none"/>
    <path d="M-37.4 453.75 L-37.4 448.95 -29.8 448.95 -29.8 453.75 -37.4 453.75" fill="#434343" fill-rule="evenodd" stroke="none"/>
    <path d="M-37.4 440.8 L-37.4 436.0 -29.8 436.0 -29.8 440.8 -37.4 440.8" fill="#434343" fill-rule="evenodd" stroke="none"/>
    <path d="M-37.4 430.6 L-37.4 425.8 -29.8 425.8 -29.8 430.6 -37.4 430.6" fill="#434343" fill-rule="evenodd" stroke="none"/>
    <path d="M-37.4 407.75 L-37.4 402.95 -29.8 402.95 -29.8 407.75 -37.4 407.75" fill="#434343" fill-rule="evenodd" stroke="none"/>
    <path d="M-37.4 390.45 L-37.4 385.6 -29.8 385.6 -29.8 390.45 -37.4 390.45" fill="#434343" fill-rule="evenodd" stroke="none"/>
    <path d="M-37.4 381.75 L-37.4 376.95 -29.8 376.95 -29.8 381.75 -37.4 381.75" fill="#434343" fill-rule="evenodd" stroke="none"/>
    <path d="M-37.4 358.3 L-37.4 353.5 -29.8 353.5 -29.8 358.3 -37.4 358.3" fill="#434343" fill-rule="evenodd" stroke="none"/>
    <path d="M-37.4 332.0 L-29.8 332.0 -29.8 336.8 -37.4 336.8 -37.4 332.0" fill="#434343" fill-rule="evenodd" stroke="none"/>
    <path d="M-47.15 330.95 L-44.05 330.95 -44.05 338.55 -47.15 338.55 -47.15 330.95" fill="#434343" fill-rule="evenodd" stroke="none"/>
    <path d="M-47.15 329.85 L-47.15 322.25 -44.05 322.25 -44.05 329.85 -47.15 329.85" fill="#434343" fill-rule="evenodd" stroke="none"/>
    <path d="M-48.9 156.0 L-48.9 163.2 -52.55 163.2 -52.55 156.0 -48.9 156.0" fill="#434343" fill-rule="evenodd" stroke="none"/>
    <path d="M-48.9 146.35 L-48.9 153.5 -52.55 153.5 -52.55 146.35 -48.9 146.35" fill="#434343" fill-rule="evenodd" stroke="none"/>
    <path d="M-48.9 136.7 L-48.9 143.85 -52.55 143.85 -52.55 136.7 -48.9 136.7" fill="#434343" fill-rule="evenodd" stroke="none"/>
    <path d="M-48.9 127.0 L-48.9 134.15 -52.55 134.15 -52.55 127.0 -48.9 127.0" fill="#434343" fill-rule="evenodd" stroke="none"/>
    <path d="M-48.9 117.35 L-48.9 124.5 -52.55 124.5 -52.55 117.35 -48.9 117.35" fill="#434343" fill-rule="evenodd" stroke="none"/>
    <path d="M-48.9 107.7 L-48.9 114.85 -52.55 114.85 -52.55 107.7 -48.9 107.7" fill="#434343" fill-rule="evenodd" stroke="none"/>
    <path d="M-48.9 98.0 L-48.9 105.15 -52.55 105.15 -52.55 98.0 -48.9 98.0" fill="#434343" fill-rule="evenodd" stroke="none"/>
    <path d="M-48.9 88.35 L-48.9 95.5 -52.55 95.5 -52.55 88.35 -48.9 88.35" fill="#434343" fill-rule="evenodd" stroke="none"/>
    <path d="M-52.55 78.7 L-48.9 78.7 -48.9 85.85 -52.55 85.85 -52.55 78.7" fill="#434343" fill-rule="evenodd" stroke="none"/>
    <path d="M-48.9 69.0 L-48.9 76.15 -52.55 76.15 -52.55 69.0 -48.9 69.0" fill="#434343" fill-rule="evenodd" stroke="none"/>
    <path d="M-57.05 -396.45 L-57.05 -389.3 -59.65 -389.3 -59.65 -396.45 -57.05 -396.45" fill="#434343" fill-rule="evenodd" stroke="none"/>
    <path d="M-57.05 -406.1 L-57.05 -398.95 -59.65 -398.95 -59.65 -406.1 -57.05 -406.1" fill="#434343" fill-rule="evenodd" stroke="none"/>
    <path d="M-59.65 -415.8 L-57.05 -415.8 -57.05 -408.65 -59.65 -408.65 -59.65 -415.8" fill="#434343" fill-rule="evenodd" stroke="none"/>
    <path d="M-57.05 -425.45 L-57.05 -418.3 -59.65 -418.3 -59.65 -425.45 -57.05 -425.45" fill="#434343" fill-rule="evenodd" stroke="none"/>
    <path d="M-57.05 -439.45 L-57.05 -432.3 -59.65 -432.3 -59.65 -439.45 -57.05 -439.45" fill="#434343" fill-rule="evenodd" stroke="none"/>
    <path d="M-57.05 -449.0 L-57.05 -441.85 -59.65 -441.85 -59.65 -449.0 -57.05 -449.0" fill="#434343" fill-rule="evenodd" stroke="none"/>
    <path d="M-57.05 -458.6 L-57.05 -451.45 -59.65 -451.45 -59.65 -458.6 -57.05 -458.6" fill="#434343" fill-rule="evenodd" stroke="none"/>
    <path d="M-57.05 -468.2 L-57.05 -461.05 -59.65 -461.05 -59.65 -468.2 -57.05 -468.2" fill="#434343" fill-rule="evenodd" stroke="none"/>
    <path d="M-57.05 -477.8 L-57.05 -470.65 -59.65 -470.65 -59.65 -477.8 -57.05 -477.8" fill="#434343" fill-rule="evenodd" stroke="none"/>
    <path d="M-57.05 -487.35 L-57.05 -480.2 -59.65 -480.2 -59.65 -487.35 -57.05 -487.35" fill="#434343" fill-rule="evenodd" stroke="none"/>
    <path d="M-57.05 -496.95 L-57.05 -489.8 -59.65 -489.8 -59.65 -496.95 -57.05 -496.95" fill="#434343" fill-rule="evenodd" stroke="none"/>
    <path d="M-57.05 -506.55 L-57.05 -499.4 -59.65 -499.4 -59.65 -506.55 -57.05 -506.55" fill="#434343" fill-rule="evenodd" stroke="none"/>
    <path d="M-57.05 -516.15 L-57.05 -509.0 -59.65 -509.0 -59.65 -516.15 -57.05 -516.15" fill="#434343" fill-rule="evenodd" stroke="none"/>
    <path d="M-57.05 -525.7 L-57.05 -518.55 -59.65 -518.55 -59.65 -525.7 -57.05 -525.7" fill="#434343" fill-rule="evenodd" stroke="none"/>
    <path d="M-57.05 -535.3 L-57.05 -528.15 -59.65 -528.15 -59.65 -535.3 -57.05 -535.3" fill="#434343" fill-rule="evenodd" stroke="none"/>
    <path d="M-57.05 -544.9 L-57.05 -537.75 -59.65 -537.75 -59.65 -544.9 -57.05 -544.9" fill="#434343" fill-rule="evenodd" stroke="none"/>
    <path d="M-57.05 -554.5 L-57.05 -547.35 -59.65 -547.35 -59.65 -554.5 -57.05 -554.5" fill="#434343" fill-rule="evenodd" stroke="none"/>
    <path d="M-53.15 -396.45 L-53.15 -389.3 -55.75 -389.3 -55.75 -396.45 -53.15 -396.45" fill="#434343" fill-rule="evenodd" stroke="none"/>
    <path d="M-53.15 -406.1 L-53.15 -398.95 -55.75 -398.95 -55.75 -406.1 -53.15 -406.1" fill="#434343" fill-rule="evenodd" stroke="none"/>
    <path d="M-55.75 -415.8 L-53.15 -415.8 -53.15 -408.65 -55.75 -408.65 -55.75 -415.8" fill="#434343" fill-rule="evenodd" stroke="none"/>
    <path d="M-53.15 -425.45 L-53.15 -418.3 -55.75 -418.3 -55.75 -425.45 -53.15 -425.45" fill="#434343" fill-rule="evenodd" stroke="none"/>
    <path d="M-53.15 -439.45 L-53.15 -432.3 -55.75 -432.3 -55.75 -439.45 -53.15 -439.45" fill="#434343" fill-rule="evenodd" stroke="none"/>
    <path d="M-53.15 -449.0 L-53.15 -441.85 -55.75 -441.85 -55.75 -449.0 -53.15 -449.0" fill="#434343" fill-rule="evenodd" stroke="none"/>
    <path d="M-53.15 -458.6 L-53.15 -451.45 -55.75 -451.45 -55.75 -458.6 -53.15 -458.6" fill="#434343" fill-rule="evenodd" stroke="none"/>
    <path d="M-53.15 -468.2 L-53.15 -461.05 -55.75 -461.05 -55.75 -468.2 -53.15 -468.2" fill="#434343" fill-rule="evenodd" stroke="none"/>
    <path d="M-53.15 -477.8 L-53.15 -470.65 -55.75 -470.65 -55.75 -477.8 -53.15 -477.8" fill="#434343" fill-rule="evenodd" stroke="none"/>
    <path d="M-53.15 -487.35 L-53.15 -480.2 -55.75 -480.2 -55.75 -487.35 -53.15 -487.35" fill="#434343" fill-rule="evenodd" stroke="none"/>
    <path d="M-53.15 -496.95 L-53.15 -489.8 -55.75 -489.8 -55.75 -496.95 -53.15 -496.95" fill="#434343" fill-rule="evenodd" stroke="none"/>
    <path d="M-53.15 -506.55 L-53.15 -499.4 -55.75 -499.4 -55.75 -506.55 -53.15 -506.55" fill="#434343" fill-rule="evenodd" stroke="none"/>
    <path d="M-53.15 -516.15 L-53.15 -509.0 -55.75 -509.0 -55.75 -516.15 -53.15 -516.15" fill="#434343" fill-rule="evenodd" stroke="none"/>
    <path d="M-53.15 -525.7 L-53.15 -518.55 -55.75 -518.55 -55.75 -525.7 -53.15 -525.7" fill="#434343" fill-rule="evenodd" stroke="none"/>
    <path d="M-53.15 -535.3 L-53.15 -528.15 -55.75 -528.15 -55.75 -535.3 -53.15 -535.3" fill="#434343" fill-rule="evenodd" stroke="none"/>
    <path d="M-53.15 -544.9 L-53.15 -537.75 -55.75 -537.75 -55.75 -544.9 -53.15 -544.9" fill="#434343" fill-rule="evenodd" stroke="none"/>
    <path d="M-53.15 -554.5 L-53.15 -547.35 -55.75 -547.35 -55.75 -554.5 -53.15 -554.5" fill="#434343" fill-rule="evenodd" stroke="none"/>
    <path d="M-48.9 54.5 L-48.9 61.6 -52.55 61.6 -52.55 54.5 -48.9 54.5" fill="#434343" fill-rule="evenodd" stroke="none"/>
    <path d="M-48.9 44.8 L-48.9 51.95 -52.55 51.95 -52.55 44.8 -48.9 44.8" fill="#434343" fill-rule="evenodd" stroke="none"/>
    <path d="M-52.55 35.15 L-48.9 35.15 -48.9 42.3 -52.55 42.3 -52.55 35.15" fill="#434343" fill-rule="evenodd" stroke="none"/>
    <path d="M-48.9 25.45 L-48.9 32.6 -52.55 32.6 -52.55 25.45 -48.9 25.45" fill="#434343" fill-rule="evenodd" stroke="none"/>
    <path d="M-48.9 15.8 L-48.9 22.95 -52.55 22.95 -52.55 15.8 -48.9 15.8" fill="#434343" fill-rule="evenodd" stroke="none"/>
    <path d="M-48.9 6.15 L-48.9 13.3 -52.55 13.3 -52.55 6.15 -48.9 6.15" fill="#434343" fill-rule="evenodd" stroke="none"/>
    <path d="M-48.9 -3.55 L-48.9 3.6 -52.55 3.6 -52.55 -3.55 -48.9 -3.55" fill="#434343" fill-rule="evenodd" stroke="none"/>
    <path d="M-48.9 -13.2 L-48.9 -6.05 -52.55 -6.05 -52.55 -13.2 -48.9 -13.2" fill="#434343" fill-rule="evenodd" stroke="none"/>
    <path d="M-48.55 -38.75 L-48.55 -31.6 -52.25 -31.6 -52.25 -38.75 -48.55 -38.75" fill="#434343" fill-rule="evenodd" stroke="none"/>
    <path d="M-48.55 -48.4 L-48.55 -41.25 -52.25 -41.25 -52.25 -48.4 -48.55 -48.4" fill="#434343" fill-rule="evenodd" stroke="none"/>
    <path d="M-48.55 -58.05 L-48.55 -50.9 -52.25 -50.9 -52.25 -58.05 -48.55 -58.05" fill="#434343" fill-rule="evenodd" stroke="none"/>
    <path d="M-52.25 -67.75 L-48.55 -67.75 -48.55 -60.6 -52.25 -60.6 -52.25 -67.75" fill="#434343" fill-rule="evenodd" stroke="none"/>
    <path d="M-48.55 -77.4 L-48.55 -70.25 -52.25 -70.25 -52.25 -77.4 -48.55 -77.4" fill="#434343" fill-rule="evenodd" stroke="none"/>
    <path d="M-48.55 -87.05 L-48.55 -79.9 -52.25 -79.9 -52.25 -87.05 -48.55 -87.05" fill="#434343" fill-rule="evenodd" stroke="none"/>
    <path d="M-48.55 -96.75 L-48.55 -89.6 -52.25 -89.6 -52.25 -96.75 -48.55 -96.75" fill="#434343" fill-rule="evenodd" stroke="none"/>
    <path d="M-48.55 -106.4 L-48.55 -99.25 -52.25 -99.25 -52.25 -106.4 -48.55 -106.4" fill="#434343" fill-rule="evenodd" stroke="none"/>
    <path d="M-41.15 -369.75 L-41.15 -362.6 -44.8 -362.6 -44.8 -369.75 -41.15 -369.75" fill="#434343" fill-rule="evenodd" stroke="none"/>
    <path d="M-40.9 -379.75 L-40.9 -372.6 -44.55 -372.6 -44.55 -379.75 -40.9 -379.75" fill="#434343" fill-rule="evenodd" stroke="none"/>
    <path d="M-48.5 -124.25 L-48.5 -117.1 -52.15 -117.1 -52.15 -124.25 -48.5 -124.25" fill="#434343" fill-rule="evenodd" stroke="none"/>
    <path d="M-48.5 -133.9 L-48.5 -126.75 -52.15 -126.75 -52.15 -133.9 -48.5 -133.9" fill="#434343" fill-rule="evenodd" stroke="none"/>
    <path d="M-48.5 -153.25 L-48.5 -146.1 -52.15 -146.1 -52.15 -153.25 -48.5 -153.25" fill="#434343" fill-rule="evenodd" stroke="none"/>
    <path d="M-37.4 328.75 L-37.4 324.0 -29.8 324.0 -29.8 328.75 -37.4 328.75" fill="#434343" fill-rule="evenodd" stroke="none"/>
    <path d="M-37.4 320.5 L-37.4 315.75 -29.8 315.75 -29.8 320.5 -37.4 320.5" fill="#434343" fill-rule="evenodd" stroke="none"/>
    <path d="M-32.25 -589.2 L-32.25 -593.9 -25.5 -593.9 -25.5 -589.2 -32.25 -589.2" fill="#434343" fill-rule="evenodd" stroke="none"/>
    <path d="M-25.5 -619.7 L-25.5 -615.0 -32.25 -615.0 -32.25 -619.7 -25.5 -619.7" fill="#434343" fill-rule="evenodd" stroke="none"/>
    <path d="M-32.25 -661.8 L-32.25 -666.5 -25.5 -666.5 -25.5 -661.8 -32.25 -661.8" fill="#434343" fill-rule="evenodd" stroke="none"/>
    <path d="M-35.95 -644.65 L-35.95 -639.85 -40.75 -639.85 -40.75 -644.65 -35.95 -644.65" fill="#434343" fill-rule="evenodd" stroke="none"/>
    <path d="M-32.25 -683.0 L-32.25 -687.7 -25.5 -687.7 -25.5 -683.0 -32.25 -683.0" fill="#434343" fill-rule="evenodd" stroke="none"/>
    <path d="M-31.25 -716.45 L-31.25 -710.3 -35.3 -710.3 -35.3 -716.45 -31.25 -716.45" fill="#434343" fill-rule="evenodd" stroke="none"/>
    <path d="M-0.15 -953.55 L-0.15 -953.7 0.1 -953.6 0.35 -953.7 0.4 -953.55 0.75 -953.5 1.55 -948.35 3.95 -947.2 7.35 -922.0 5.9 -921.45 6.65 -916.85 6.95 -878.2 5.75 -844.85 5.45 -842.5 4.85 -841.2 3.75 -840.35 2.35 -840.1 -2.15 -840.1 -3.5 -840.35 -4.65 -841.2 -5.25 -842.5 -5.5 -844.85 -6.75 -878.2 -6.45 -916.85 -5.7 -921.45 -7.15 -922.0 -3.75 -947.2 -1.35 -948.35 -0.5 -953.5 -0.15 -953.55" fill="#434343" fill-rule="evenodd" stroke="none"/>
    <path d="M-7.6 174.1 L-6.8 171.4 -5.6 169.05 -4.2 167.15 -2.6 165.85 -0.4 165.0 -0.4 164.6 0.0 164.8 0.4 164.6 0.4 165.0 0.8 165.2 2.55 165.85 4.2 167.15 5.6 169.05 6.75 171.4 7.6 174.1 18.2 230.45 19.0 247.8 19.2 268.0 23.35 267.6 24.75 258.25 44.25 259.7 44.25 256.8 47.35 256.8 47.35 259.95 102.0 264.1 102.55 264.95 102.55 313.0 101.55 313.8 47.35 313.8 47.35 321.25 44.25 321.25 44.25 313.8 25.0 313.8 23.35 313.0 19.2 313.0 19.2 338.55 18.55 343.4 17.0 347.95 14.7 352.0 11.7 355.35 8.15 357.85 4.25 359.4 0.1 359.95 0.0 357.1 -0.15 359.95 -4.25 359.4 -8.15 357.85 -11.7 355.35 -14.7 352.0 -17.05 347.95 -18.55 343.4 -19.25 338.55 -19.25 318.2 -19.2 318.25 -19.2 313.0 -23.4 313.0 -25.0 313.8 -44.05 313.8 -44.05 321.25 -47.15 321.25 -47.15 313.8 -101.6 313.8 -102.6 313.0 -102.6 264.95 -102.05 264.1 -47.15 259.9 -47.15 256.8 -44.05 256.8 -44.05 259.7 -24.8 258.25 -23.4 267.6 -19.2 268.0 -19.0 247.8 -18.2 230.45 -7.6 174.1" fill="#434343" fill-rule="evenodd" stroke="none"/>
    <path d="M-18.9 595.65 L-17.3 596.25 -15.75 597.3 -14.4 598.7 -12.4 601.75 -11.75 604.0 -11.45 606.05 -12.15 607.3 -13.25 608.15 -14.65 608.5 -16.75 608.25 -19.15 607.1 -20.7 606.05 -22.05 604.65 -23.05 603.0 -23.7 601.3 -23.9 599.55 -23.6 598.05 -22.9 596.8 -21.85 595.95 -20.45 595.55 -18.9 595.65" fill="#434343" fill-rule="evenodd" stroke="none"/>
    <path d="M-11.75 616.2 L-13.25 615.95 -16.65 614.75 -20.3 612.7 -20.95 612.15 -21.4 611.5 -21.6 610.95 -21.3 610.45 -20.7 610.1 -19.6 610.0 -18.0 610.2 -15.4 611.1 -11.95 613.0 -9.8 614.9 -9.7 615.55 -10.0 616.0 -10.55 616.25 -11.75 616.2" fill="#434343" fill-rule="evenodd" stroke="none"/>
    <path d="M12.6 601.75 L14.6 598.7 15.95 597.3 17.5 596.25 19.1 595.65 20.65 595.55 22.0 595.95 23.1 596.8 23.8 598.05 24.1 599.55 23.9 601.3 23.25 603.0 22.25 604.65 20.9 606.05 19.35 607.1 16.9 608.25 14.8 608.5 13.45 608.15 12.35 607.3 11.65 606.05 11.9 604.0 12.6 601.75" fill="#434343" fill-rule="evenodd" stroke="none"/>
    <path d="M10.0 614.9 L12.15 613.0 15.6 611.1 18.2 610.2 19.8 610.0 20.9 610.1 21.5 610.45 21.8 610.95 21.6 611.5 21.15 612.15 20.5 612.7 16.85 614.75 13.4 615.95 11.95 616.2 10.75 616.25 10.15 616.0 9.9 615.55 10.0 614.9" fill="#434343" fill-rule="evenodd" stroke="none"/>
    <path d="M-8.0 523.0 L8.0 523.0 7.2 589.45 12.6 589.25 11.75 595.25 6.75 595.45 6.35 602.45 2.35 606.6 -2.4 606.6 -6.4 602.45 -6.8 595.45 -11.8 595.25 -12.65 589.25 -7.25 589.45 -8.0 523.0" fill="#434343" fill-rule="evenodd" stroke="none"/>
    <path d="M44.65 494.45 L44.65 486.6 47.35 486.6 47.35 494.45 44.65 494.45" fill="#434343" fill-rule="evenodd" stroke="none"/>
    <path d="M44.75 477.1 L47.45 477.1 47.45 484.95 44.75 484.95 44.75 477.1" fill="#434343" fill-rule="evenodd" stroke="none"/>
    <path d="M30.05 462.0 L30.05 457.25 37.65 457.25 37.65 462.0 30.05 462.0" fill="#434343" fill-rule="evenodd" stroke="none"/>
    <path d="M30.05 453.75 L30.05 448.95 37.65 448.95 37.65 453.75 30.05 453.75" fill="#434343" fill-rule="evenodd" stroke="none"/>
    <path d="M30.05 440.8 L30.05 436.0 37.65 436.0 37.65 440.8 30.05 440.8" fill="#434343" fill-rule="evenodd" stroke="none"/>
    <path d="M30.05 430.6 L30.05 425.8 37.65 425.8 37.65 430.6 30.05 430.6" fill="#434343" fill-rule="evenodd" stroke="none"/>
    <path d="M30.05 407.75 L30.05 402.95 37.65 402.95 37.65 407.75 30.05 407.75" fill="#434343" fill-rule="evenodd" stroke="none"/>
    <path d="M30.05 390.45 L30.05 385.6 37.65 385.6 37.65 390.45 30.05 390.45" fill="#434343" fill-rule="evenodd" stroke="none"/>
    <path d="M30.05 381.75 L30.05 376.95 37.65 376.95 37.65 381.75 30.05 381.75" fill="#434343" fill-rule="evenodd" stroke="none"/>
    <path d="M30.05 358.3 L30.05 353.5 37.65 353.5 37.65 358.3 30.05 358.3" fill="#434343" fill-rule="evenodd" stroke="none"/>
    <path d="M30.05 332.0 L37.65 332.0 37.65 336.8 30.05 336.8 30.05 332.0" fill="#434343" fill-rule="evenodd" stroke="none"/>
    <path d="M44.25 330.95 L47.35 330.95 47.35 338.55 44.25 338.55 44.25 330.95" fill="#434343" fill-rule="evenodd" stroke="none"/>
    <path d="M47.35 322.25 L47.35 329.85 44.25 329.85 44.25 322.25 47.35 322.25" fill="#434343" fill-rule="evenodd" stroke="none"/>
    <path d="M52.8 156.0 L52.8 163.2 49.1 163.2 49.1 156.0 52.8 156.0" fill="#434343" fill-rule="evenodd" stroke="none"/>
    <path d="M52.8 146.35 L52.8 153.5 49.1 153.5 49.1 146.35 52.8 146.35" fill="#434343" fill-rule="evenodd" stroke="none"/>
    <path d="M52.8 136.7 L52.8 143.85 49.1 143.85 49.1 136.7 52.8 136.7" fill="#434343" fill-rule="evenodd" stroke="none"/>
    <path d="M52.8 127.0 L52.8 134.15 49.1 134.15 49.1 127.0 52.8 127.0" fill="#434343" fill-rule="evenodd" stroke="none"/>
    <path d="M52.8 117.35 L52.8 124.5 49.1 124.5 49.1 117.35 52.8 117.35" fill="#434343" fill-rule="evenodd" stroke="none"/>
    <path d="M52.8 107.7 L52.8 114.85 49.1 114.85 49.1 107.7 52.8 107.7" fill="#434343" fill-rule="evenodd" stroke="none"/>
    <path d="M52.8 98.0 L52.8 105.15 49.1 105.15 49.1 98.0 52.8 98.0" fill="#434343" fill-rule="evenodd" stroke="none"/>
    <path d="M52.8 88.35 L52.8 95.5 49.1 95.5 49.1 88.35 52.8 88.35" fill="#434343" fill-rule="evenodd" stroke="none"/>
    <path d="M49.1 78.7 L52.8 78.7 52.8 85.85 49.1 85.85 49.1 78.7" fill="#434343" fill-rule="evenodd" stroke="none"/>
    <path d="M52.8 69.0 L52.8 76.15 49.1 76.15 49.1 69.0 52.8 69.0" fill="#434343" fill-rule="evenodd" stroke="none"/>
    <path d="M59.85 -396.45 L59.85 -389.3 57.25 -389.3 57.25 -396.45 59.85 -396.45" fill="#434343" fill-rule="evenodd" stroke="none"/>
    <path d="M59.85 -406.1 L59.85 -398.95 57.25 -398.95 57.25 -406.1 59.85 -406.1" fill="#434343" fill-rule="evenodd" stroke="none"/>
    <path d="M57.25 -415.8 L59.85 -415.8 59.85 -408.65 57.25 -408.65 57.25 -415.8" fill="#434343" fill-rule="evenodd" stroke="none"/>
    <path d="M59.85 -425.45 L59.85 -418.3 57.25 -418.3 57.25 -425.45 59.85 -425.45" fill="#434343" fill-rule="evenodd" stroke="none"/>
    <path d="M59.85 -439.45 L59.85 -432.3 57.25 -432.3 57.25 -439.45 59.85 -439.45" fill="#434343" fill-rule="evenodd" stroke="none"/>
    <path d="M59.85 -449.0 L59.85 -441.85 57.25 -441.85 57.25 -449.0 59.85 -449.0" fill="#434343" fill-rule="evenodd" stroke="none"/>
    <path d="M59.85 -458.6 L59.85 -451.45 57.25 -451.45 57.25 -458.6 59.85 -458.6" fill="#434343" fill-rule="evenodd" stroke="none"/>
    <path d="M59.85 -468.2 L59.85 -461.05 57.25 -461.05 57.25 -468.2 59.85 -468.2" fill="#434343" fill-rule="evenodd" stroke="none"/>
    <path d="M59.85 -477.8 L59.85 -470.65 57.25 -470.65 57.25 -477.8 59.85 -477.8" fill="#434343" fill-rule="evenodd" stroke="none"/>
    <path d="M59.85 -487.35 L59.85 -480.2 57.25 -480.2 57.25 -487.35 59.85 -487.35" fill="#434343" fill-rule="evenodd" stroke="none"/>
    <path d="M59.85 -496.95 L59.85 -489.8 57.25 -489.8 57.25 -496.95 59.85 -496.95" fill="#434343" fill-rule="evenodd" stroke="none"/>
    <path d="M59.85 -506.55 L59.85 -499.4 57.25 -499.4 57.25 -506.55 59.85 -506.55" fill="#434343" fill-rule="evenodd" stroke="none"/>
    <path d="M59.85 -516.15 L59.85 -509.0 57.25 -509.0 57.25 -516.15 59.85 -516.15" fill="#434343" fill-rule="evenodd" stroke="none"/>
    <path d="M59.85 -525.7 L59.85 -518.55 57.25 -518.55 57.25 -525.7 59.85 -525.7" fill="#434343" fill-rule="evenodd" stroke="none"/>
    <path d="M59.85 -535.3 L59.85 -528.15 57.25 -528.15 57.25 -535.3 59.85 -535.3" fill="#434343" fill-rule="evenodd" stroke="none"/>
    <path d="M59.85 -544.9 L59.85 -537.75 57.25 -537.75 57.25 -544.9 59.85 -544.9" fill="#434343" fill-rule="evenodd" stroke="none"/>
    <path d="M59.85 -554.5 L59.85 -547.35 57.25 -547.35 57.25 -554.5 59.85 -554.5" fill="#434343" fill-rule="evenodd" stroke="none"/>
    <path d="M53.35 -389.3 L53.35 -396.45 56.0 -396.45 56.0 -389.3 53.35 -389.3" fill="#434343" fill-rule="evenodd" stroke="none"/>
    <path d="M53.35 -398.95 L53.35 -406.1 56.0 -406.1 56.0 -398.95 53.35 -398.95" fill="#434343" fill-rule="evenodd" stroke="none"/>
    <path d="M56.0 -415.8 L56.0 -408.65 53.35 -408.65 53.35 -415.8 56.0 -415.8" fill="#434343" fill-rule="evenodd" stroke="none"/>
    <path d="M56.0 -425.45 L56.0 -418.3 53.35 -418.3 53.35 -425.45 56.0 -425.45" fill="#434343" fill-rule="evenodd" stroke="none"/>
    <path d="M56.0 -439.45 L56.0 -432.3 53.35 -432.3 53.35 -439.45 56.0 -439.45" fill="#434343" fill-rule="evenodd" stroke="none"/>
    <path d="M56.0 -449.0 L56.0 -441.85 53.35 -441.85 53.35 -449.0 56.0 -449.0" fill="#434343" fill-rule="evenodd" stroke="none"/>
    <path d="M56.0 -458.6 L56.0 -451.45 53.35 -451.45 53.35 -458.6 56.0 -458.6" fill="#434343" fill-rule="evenodd" stroke="none"/>
    <path d="M53.35 -461.05 L53.35 -468.2 56.0 -468.2 56.0 -461.05 53.35 -461.05" fill="#434343" fill-rule="evenodd" stroke="none"/>
    <path d="M53.35 -470.65 L53.35 -477.8 56.0 -477.8 56.0 -470.65 53.35 -470.65" fill="#434343" fill-rule="evenodd" stroke="none"/>
    <path d="M53.35 -480.2 L53.35 -487.35 56.0 -487.35 56.0 -480.2 53.35 -480.2" fill="#434343" fill-rule="evenodd" stroke="none"/>
    <path d="M53.35 -489.8 L53.35 -496.95 56.0 -496.95 56.0 -489.8 53.35 -489.8" fill="#434343" fill-rule="evenodd" stroke="none"/>
    <path d="M53.35 -499.4 L53.35 -506.55 56.0 -506.55 56.0 -499.4 53.35 -499.4" fill="#434343" fill-rule="evenodd" stroke="none"/>
    <path d="M56.0 -516.15 L56.0 -509.0 53.35 -509.0 53.35 -516.15 56.0 -516.15" fill="#434343" fill-rule="evenodd" stroke="none"/>
    <path d="M56.0 -525.7 L56.0 -518.55 53.35 -518.55 53.35 -525.7 56.0 -525.7" fill="#434343" fill-rule="evenodd" stroke="none"/>
    <path d="M56.0 -535.3 L56.0 -528.15 53.35 -528.15 53.35 -535.3 56.0 -535.3" fill="#434343" fill-rule="evenodd" stroke="none"/>
    <path d="M56.0 -544.9 L56.0 -537.75 53.35 -537.75 53.35 -544.9 56.0 -544.9" fill="#434343" fill-rule="evenodd" stroke="none"/>
    <path d="M56.0 -554.5 L56.0 -547.35 53.35 -547.35 53.35 -554.5 56.0 -554.5" fill="#434343" fill-rule="evenodd" stroke="none"/>
    <path d="M52.8 54.5 L52.8 61.6 49.1 61.6 49.1 54.5 52.8 54.5" fill="#434343" fill-rule="evenodd" stroke="none"/>
    <path d="M52.8 44.8 L52.8 51.95 49.1 51.95 49.1 44.8 52.8 44.8" fill="#434343" fill-rule="evenodd" stroke="none"/>
    <path d="M49.1 35.15 L52.8 35.15 52.8 42.3 49.1 42.3 49.1 35.15" fill="#434343" fill-rule="evenodd" stroke="none"/>
    <path d="M52.8 25.45 L52.8 32.6 49.1 32.6 49.1 25.45 52.8 25.45" fill="#434343" fill-rule="evenodd" stroke="none"/>
    <path d="M52.8 15.8 L52.8 22.95 49.1 22.95 49.1 15.8 52.8 15.8" fill="#434343" fill-rule="evenodd" stroke="none"/>
    <path d="M52.8 6.15 L52.8 13.3 49.1 13.3 49.1 6.15 52.8 6.15" fill="#434343" fill-rule="evenodd" stroke="none"/>
    <path d="M52.8 -3.55 L52.8 3.6 49.1 3.6 49.1 -3.55 52.8 -3.55" fill="#434343" fill-rule="evenodd" stroke="none"/>
    <path d="M52.8 -13.2 L52.8 -6.05 49.1 -6.05 49.1 -13.2 52.8 -13.2" fill="#434343" fill-rule="evenodd" stroke="none"/>
    <path d="M48.8 -31.6 L48.8 -38.75 52.5 -38.75 52.5 -31.6 48.8 -31.6" fill="#434343" fill-rule="evenodd" stroke="none"/>
    <path d="M48.8 -41.25 L48.8 -48.4 52.5 -48.4 52.5 -41.25 48.8 -41.25" fill="#434343" fill-rule="evenodd" stroke="none"/>
    <path d="M48.8 -50.9 L48.8 -58.05 52.5 -58.05 52.5 -50.9 48.8 -50.9" fill="#434343" fill-rule="evenodd" stroke="none"/>
    <path d="M48.8 -67.75 L52.5 -67.75 52.5 -60.6 48.8 -60.6 48.8 -67.75" fill="#434343" fill-rule="evenodd" stroke="none"/>
    <path d="M48.8 -70.25 L48.8 -77.4 52.5 -77.4 52.5 -70.25 48.8 -70.25" fill="#434343" fill-rule="evenodd" stroke="none"/>
    <path d="M48.8 -79.9 L48.8 -87.05 52.5 -87.05 52.5 -79.9 48.8 -79.9" fill="#434343" fill-rule="evenodd" stroke="none"/>
    <path d="M52.5 -96.75 L52.5 -89.6 48.8 -89.6 48.8 -96.75 52.5 -96.75" fill="#434343" fill-rule="evenodd" stroke="none"/>
    <path d="M48.8 -99.25 L48.8 -106.4 52.5 -106.4 52.5 -99.25 48.8 -99.25" fill="#434343" fill-rule="evenodd" stroke="none"/>
    <path d="M41.35 -362.6 L41.35 -369.75 45.05 -369.75 45.05 -362.6 41.35 -362.6" fill="#434343" fill-rule="evenodd" stroke="none"/>
    <path d="M44.8 -379.75 L44.8 -372.6 41.1 -372.6 41.1 -379.75 44.8 -379.75" fill="#434343" fill-rule="evenodd" stroke="none"/>
    <path d="M52.4 -124.25 L52.4 -117.1 48.7 -117.1 48.7 -124.25 52.4 -124.25" fill="#434343" fill-rule="evenodd" stroke="none"/>
    <path d="M52.4 -133.9 L52.4 -126.75 48.7 -126.75 48.7 -133.9 52.4 -133.9" fill="#434343" fill-rule="evenodd" stroke="none"/>
    <path d="M52.4 -153.25 L52.4 -146.1 48.7 -146.1 48.7 -153.25 52.4 -153.25" fill="#434343" fill-rule="evenodd" stroke="none"/>
    <path d="M30.05 328.75 L30.05 324.0 37.65 324.0 37.65 328.75 30.05 328.75" fill="#434343" fill-rule="evenodd" stroke="none"/>
    <path d="M30.05 320.5 L30.05 315.75 37.65 315.75 37.65 320.5 30.05 320.5" fill="#434343" fill-rule="evenodd" stroke="none"/>
    <path d="M32.45 -593.9 L32.45 -589.2 25.75 -589.2 25.75 -593.9 32.45 -593.9" fill="#434343" fill-rule="evenodd" stroke="none"/>
    <path d="M32.45 -619.7 L32.45 -615.0 25.75 -615.0 25.75 -619.7 32.45 -619.7" fill="#434343" fill-rule="evenodd" stroke="none"/>
    <path d="M32.45 -666.5 L32.45 -661.8 25.75 -661.8 25.75 -666.5 32.45 -666.5" fill="#434343" fill-rule="evenodd" stroke="none"/>
    <path d="M40.95 -644.65 L40.95 -639.85 36.15 -639.85 36.15 -644.65 40.95 -644.65" fill="#434343" fill-rule="evenodd" stroke="none"/>
    <path d="M32.45 -687.7 L32.45 -683.0 25.75 -683.0 25.75 -687.7 32.45 -687.7" fill="#434343" fill-rule="evenodd" stroke="none"/>
    <path d="M35.5 -716.45 L35.5 -710.3 31.45 -710.3 31.45 -716.45 35.5 -716.45" fill="#434343" fill-rule="evenodd" stroke="none"/>
    <path d="M-3.4 446.35 L-1.6 445.8 0.25 445.7 2.1 445.95 3.85 446.6 5.4 447.65 6.75 448.95 7.75 450.55 8.35 452.3 8.6 454.15 8.45 456.0 7.85 457.8 6.95 459.45 5.7 460.8 4.15 461.9 2.45 462.6 0.6 462.95 -1.3 462.9 -3.1 462.4 -4.75 461.6 -6.2 460.4 -7.35 458.95 -8.2 457.25 -8.65 455.45 -8.65 453.55 -8.3 451.7 -7.55 450.0 -6.45 448.5 -5.05 447.25 -3.4 446.35" fill="#ffffff" fill-rule="evenodd" stroke="none"/>
    <path d="M-6.45 -663.6 L-5.05 -664.85 -3.4 -665.75 -1.6 -666.3 0.25 -666.45 2.1 -666.15 3.85 -665.5 5.4 -664.5 6.75 -663.15 7.75 -661.55 8.35 -659.8 8.6 -657.95 8.45 -656.1 7.85 -654.3 6.95 -652.7 5.7 -651.3 4.15 -650.2 2.45 -649.5 0.6 -649.15 -1.3 -649.2 -3.1 -649.7 -4.75 -650.55 -6.2 -651.7 -7.35 -653.2 -8.2 -654.85 -8.65 -656.7 -8.65 -658.55 -8.3 -660.4 -7.55 -662.1 -6.45 -663.6" fill="#ffffff" fill-rule="evenodd" stroke="none"/>
    <path d="M6.9 -744.55 L7.5 -742.95 7.7 -741.3 7.55 -739.6 7.05 -738.0 6.2 -736.5 5.05 -735.25 3.7 -734.3 2.1 -733.65 0.45 -733.35 -1.25 -733.4 -2.85 -733.8 -4.4 -734.6 -5.7 -735.65 -6.75 -736.95 -7.5 -738.5 -7.85 -740.15 -7.9 -741.85 -7.55 -743.5 -6.9 -745.05 -5.9 -746.4 -4.65 -747.5 -3.15 -748.35 -1.55 -748.8 0.15 -748.95 1.85 -748.7 3.4 -748.1 4.85 -747.2 6.0 -746.0 6.9 -744.55" fill="#ffffff" fill-rule="evenodd" stroke="none"/>
    <path d="M-6.65 358.5 L6.6 358.5 6.6 362.1 -6.65 362.1 -6.65 358.5" fill="#ffffff" fill-rule="evenodd" stroke="none"/>
  </g>
</svg>
