<?xml version="1.0" encoding="UTF-8" standalone="no"?>
<svg xmlns:ffdec="https://www.free-decompiler.com/flash" xmlns:xlink="http://www.w3.org/1999/xlink" ffdec:objectType="shape" height="1648.45px" width="245.85px" xmlns="http://www.w3.org/2000/svg">
  <g transform="matrix(1.0, 0.0, 0.0, 1.0, 122.95, 619.0)">
    <path d="M-21.95 -613.4 L-10.3 -618.4 -3.3 -619.0 3.25 -619.0 9.65 -618.4 21.9 -613.4 35.4 -604.3 46.95 -586.9 55.95 -567.4 61.9 -545.1 64.5 -521.15 65.3 -489.25 65.3 499.85 73.2 499.85 73.65 506.1 73.2 516.6 72.2 523.2 70.3 529.65 68.05 534.3 65.3 537.9 65.3 619.1 70.8 619.1 71.25 625.35 70.8 635.85 69.8 642.45 67.9 648.9 65.65 653.55 65.3 654.0 65.3 677.95 64.75 677.95 63.3 717.55 60.9 751.15 54.3 820.75 51.4 843.2 51.7 843.15 121.7 858.35 122.9 861.15 121.7 916.35 42.6 919.1 34.35 1016.3 52.8 1016.8 53.25 1017.55 52.35 1018.15 47.1 1019.35 40.95 1020.1 34.0 1020.1 33.55 1023.2 32.6 1026.15 31.3 1028.3 29.75 1029.45 28.1 1029.45 26.55 1028.3 25.25 1026.15 24.3 1023.2 23.85 1020.1 16.8 1020.1 10.65 1019.35 5.4 1018.15 4.5 1017.55 4.95 1016.8 23.45 1016.3 20.7 987.35 17.1 982.75 -17.15 982.75 -20.75 987.35 -23.5 1016.3 -5.0 1016.8 -4.55 1017.55 -5.45 1018.15 -10.7 1019.35 -16.85 1020.1 -23.9 1020.1 -24.35 1023.2 -25.3 1026.15 -26.6 1028.3 -28.15 1029.45 -29.8 1029.45 -31.35 1028.3 -32.65 1026.15 -33.6 1023.2 -34.05 1020.1 -41.0 1020.1 -47.15 1019.35 -52.4 1018.15 -53.3 1017.55 -52.85 1016.8 -34.4 1016.3 -42.65 919.1 -121.75 916.35 -122.95 861.15 -121.75 858.35 -51.75 843.15 -51.45 843.2 -54.35 820.75 -60.95 751.15 -63.35 717.55 -64.8 677.95 -65.35 677.95 -65.35 654.0 -65.7 653.55 -67.95 648.9 -69.85 642.45 -70.85 635.85 -71.3 625.35 -70.85 619.1 -65.35 619.1 -65.35 537.9 -68.1 534.3 -70.35 529.65 -72.25 523.2 -73.25 516.6 -73.7 506.1 -73.25 499.85 -65.35 499.85 -65.35 -489.25 -64.55 -521.15 -61.95 -545.1 -56.0 -567.4 -47.0 -586.9 -35.45 -604.3 -21.95 -613.4" fill="#707070" fill-rule="evenodd" stroke="none"/>
    <path d="M18.95 -494.6 L18.95 -333.5 -19.75 -333.5 -19.75 -494.6 18.95 -494.6" fill="#969696" fill-rule="evenodd" stroke="none"/>
    <path d="M47.45 20.2 L-47.5 20.2 -47.5 -146.75 47.45 -146.75 47.45 20.2" fill="#969696" fill-rule="evenodd" stroke="none"/>
    <path d="M18.9 35.1 L46.75 35.1 46.75 56.8 18.9 56.8 15.9 55.9 13.3 54.25 11.25 51.9 9.95 49.05 9.5 45.95 9.95 42.9 11.25 40.05 13.3 37.7 15.9 36.0 18.9 35.1" fill="#969696" fill-rule="evenodd" stroke="none"/>
    <path d="M-18.9 35.1 L-15.95 36.0 -13.3 37.7 -11.25 40.05 -9.95 42.9 -9.5 45.95 -9.95 49.05 -11.25 51.9 -13.3 54.25 -15.95 55.9 -18.9 56.8 -46.8 56.8 -46.8 35.1 -18.9 35.1" fill="#969696" fill-rule="evenodd" stroke="none"/>
    <path d="M46.75 60.0 L46.75 81.65 18.9 81.65 15.9 80.8 13.3 79.1 11.25 76.75 9.95 73.9 9.5 70.85 9.95 67.75 11.25 64.9 13.3 62.55 15.9 60.85 18.9 60.0 46.75 60.0" fill="#969696" fill-rule="evenodd" stroke="none"/>
    <path d="M-11.25 64.9 L-9.95 67.75 -9.5 70.85 -9.95 73.9 -11.25 76.75 -13.3 79.1 -15.95 80.8 -18.9 81.65 -46.8 81.65 -46.8 60.0 -18.9 60.0 -15.95 60.85 -13.3 62.55 -11.25 64.9" fill="#969696" fill-rule="evenodd" stroke="none"/>
    <path d="M18.9 84.85 L46.75 84.85 46.75 106.55 18.9 106.55 15.9 105.65 13.3 103.95 11.25 101.6 9.95 98.8 9.5 95.7 9.95 92.6 11.25 89.8 13.3 87.4 15.9 85.75 18.9 84.85" fill="#969696" fill-rule="evenodd" stroke="none"/>
    <path d="M-9.5 95.7 L-9.95 98.8 -11.25 101.6 -13.3 103.95 -15.95 105.65 -18.9 106.55 -46.8 106.55 -46.8 84.85 -18.9 84.85 -15.95 85.75 Q-14.6 86.6 -13.3 87.4 L-11.25 89.8 -9.95 92.6 -9.5 95.7" fill="#969696" fill-rule="evenodd" stroke="none"/>
    <path d="M46.75 109.7 L46.75 131.4 18.9 131.4 15.9 130.5 13.3 128.85 11.25 126.5 9.95 123.65 9.5 120.55 9.95 117.5 11.25 114.65 13.3 112.3 15.9 110.6 18.9 109.7 46.75 109.7" fill="#969696" fill-rule="evenodd" stroke="none"/>
    <path d="M-46.8 109.7 L-18.9 109.7 -15.95 110.6 -13.3 112.3 -11.25 114.65 -9.95 117.5 -9.5 120.55 -9.95 123.65 -11.25 126.5 -13.3 128.85 -15.95 130.5 -18.9 131.4 -46.8 131.4 -46.8 109.7" fill="#969696" fill-rule="evenodd" stroke="none"/>
    <path d="M-22.7 143.7 L22.55 143.7 13.65 544.0 18.25 561.8 16.6 808.55 -16.75 808.55 -18.4 561.8 -13.8 544.0 -22.7 143.7" fill="#969696" fill-rule="evenodd" stroke="none"/>
    <path d="M47.1 -494.4 L47.1 -486.6 44.35 -486.6 44.35 -494.4 47.1 -494.4" fill="#434343" fill-rule="evenodd" stroke="none"/>
    <path d="M44.5 -477.1 L44.5 -484.9 47.2 -484.9 47.2 -477.1 44.5 -477.1" fill="#434343" fill-rule="evenodd" stroke="none"/>
    <path d="M29.75 -462.0 L37.35 -462.0 37.35 -457.2 29.75 -457.2 29.75 -462.0" fill="#434343" fill-rule="evenodd" stroke="none"/>
    <path d="M37.35 -453.7 L37.35 -448.9 29.75 -448.9 29.75 -453.7 37.35 -453.7" fill="#434343" fill-rule="evenodd" stroke="none"/>
    <path d="M37.35 -440.8 L37.35 -436.0 29.75 -436.0 29.75 -440.8 37.35 -440.8" fill="#434343" fill-rule="evenodd" stroke="none"/>
    <path d="M37.35 -430.6 L37.35 -425.8 29.75 -425.8 29.75 -430.6 37.35 -430.6" fill="#434343" fill-rule="evenodd" stroke="none"/>
    <path d="M37.35 -407.7 L37.35 -402.9 29.75 -402.9 29.75 -407.7 37.35 -407.7" fill="#434343" fill-rule="evenodd" stroke="none"/>
    <path d="M37.35 -390.4 L37.35 -385.6 29.75 -385.6 29.75 -390.4 37.35 -390.4" fill="#434343" fill-rule="evenodd" stroke="none"/>
    <path d="M37.35 -381.7 L37.35 -376.9 29.75 -376.9 29.75 -381.7 37.35 -381.7" fill="#434343" fill-rule="evenodd" stroke="none"/>
    <path d="M37.35 -358.3 L37.35 -353.5 29.75 -353.5 29.75 -358.3 37.35 -358.3" fill="#434343" fill-rule="evenodd" stroke="none"/>
    <path d="M37.35 -336.8 L37.35 -332.0 29.75 -332.0 29.75 -336.8 37.35 -336.8" fill="#434343" fill-rule="evenodd" stroke="none"/>
    <path d="M47.1 -338.5 L47.1 -330.9 44.0 -330.9 44.0 -338.5 47.1 -338.5" fill="#434343" fill-rule="evenodd" stroke="none"/>
    <path d="M47.1 -329.8 L47.1 -322.2 44.0 -322.2 44.0 -329.8 47.1 -329.8" fill="#434343" fill-rule="evenodd" stroke="none"/>
    <path d="M48.85 -163.15 L52.5 -163.15 52.5 -156.0 48.85 -156.0 48.85 -163.15" fill="#434343" fill-rule="evenodd" stroke="none"/>
    <path d="M48.85 -146.3 L48.85 -153.45 52.5 -153.45 52.5 -146.3 48.85 -146.3" fill="#434343" fill-rule="evenodd" stroke="none"/>
    <path d="M48.85 -136.65 L48.85 -143.8 52.5 -143.8 52.5 -136.65 48.85 -136.65" fill="#434343" fill-rule="evenodd" stroke="none"/>
    <path d="M48.85 -126.95 L48.85 -134.1 52.5 -134.1 52.5 -126.95 48.85 -126.95" fill="#434343" fill-rule="evenodd" stroke="none"/>
    <path d="M48.85 -117.3 L48.85 -124.45 52.5 -124.45 52.5 -117.3 48.85 -117.3" fill="#434343" fill-rule="evenodd" stroke="none"/>
    <path d="M48.85 -114.8 L52.5 -114.8 52.5 -107.65 48.85 -107.65 48.85 -114.8" fill="#434343" fill-rule="evenodd" stroke="none"/>
    <path d="M48.85 -97.95 L48.85 -105.1 52.5 -105.1 52.5 -97.95 48.85 -97.95" fill="#434343" fill-rule="evenodd" stroke="none"/>
    <path d="M48.85 -88.3 L48.85 -95.45 52.5 -95.45 52.5 -88.3 48.85 -88.3" fill="#434343" fill-rule="evenodd" stroke="none"/>
    <path d="M48.85 -78.65 L48.85 -85.8 52.5 -85.8 52.5 -78.65 48.85 -78.65" fill="#434343" fill-rule="evenodd" stroke="none"/>
    <path d="M48.85 -68.95 L48.85 -76.1 52.5 -76.1 52.5 -68.95 48.85 -68.95" fill="#434343" fill-rule="evenodd" stroke="none"/>
    <path d="M57.0 396.5 L57.0 389.35 59.6 389.35 59.6 396.5 57.0 396.5" fill="#434343" fill-rule="evenodd" stroke="none"/>
    <path d="M57.0 406.15 L57.0 399.0 59.6 399.0 59.6 406.15 57.0 406.15" fill="#434343" fill-rule="evenodd" stroke="none"/>
    <path d="M57.0 415.85 L57.0 408.7 59.6 408.7 59.6 415.85 57.0 415.85" fill="#434343" fill-rule="evenodd" stroke="none"/>
    <path d="M57.0 425.5 L57.0 418.35 59.6 418.35 59.6 425.5 57.0 425.5" fill="#434343" fill-rule="evenodd" stroke="none"/>
    <path d="M57.0 439.5 L57.0 432.35 59.6 432.35 59.6 439.5 57.0 439.5" fill="#434343" fill-rule="evenodd" stroke="none"/>
    <path d="M57.0 449.05 L57.0 441.9 59.6 441.9 59.6 449.05 57.0 449.05" fill="#434343" fill-rule="evenodd" stroke="none"/>
    <path d="M57.0 458.65 L57.0 451.5 59.6 451.5 59.6 458.65 57.0 458.65" fill="#434343" fill-rule="evenodd" stroke="none"/>
    <path d="M57.0 468.25 L57.0 461.1 59.6 461.1 59.6 468.25 57.0 468.25" fill="#434343" fill-rule="evenodd" stroke="none"/>
    <path d="M57.0 477.85 L57.0 470.7 59.6 470.7 59.6 477.85 57.0 477.85" fill="#434343" fill-rule="evenodd" stroke="none"/>
    <path d="M57.0 480.25 L59.6 480.25 59.6 487.4 57.0 487.4 57.0 480.25" fill="#434343" fill-rule="evenodd" stroke="none"/>
    <path d="M57.0 497.0 L57.0 489.85 59.6 489.85 59.6 497.0 57.0 497.0" fill="#434343" fill-rule="evenodd" stroke="none"/>
    <path d="M57.0 506.6 L57.0 499.45 59.6 499.45 59.6 506.6 57.0 506.6" fill="#434343" fill-rule="evenodd" stroke="none"/>
    <path d="M57.0 516.2 L57.0 509.05 59.6 509.05 59.6 516.2 57.0 516.2" fill="#434343" fill-rule="evenodd" stroke="none"/>
    <path d="M57.0 525.75 L57.0 518.6 59.6 518.6 59.6 525.75 57.0 525.75" fill="#434343" fill-rule="evenodd" stroke="none"/>
    <path d="M57.0 528.2 L59.6 528.2 59.6 535.35 57.0 535.35 57.0 528.2" fill="#434343" fill-rule="evenodd" stroke="none"/>
    <path d="M57.0 544.95 L57.0 537.8 59.6 537.8 59.6 544.95 57.0 544.95" fill="#434343" fill-rule="evenodd" stroke="none"/>
    <path d="M57.0 554.5 L57.0 547.35 59.6 547.35 59.6 554.5 57.0 554.5" fill="#434343" fill-rule="evenodd" stroke="none"/>
    <path d="M53.1 396.5 L53.1 389.35 55.7 389.35 55.7 396.5 53.1 396.5" fill="#434343" fill-rule="evenodd" stroke="none"/>
    <path d="M53.1 406.15 L53.1 399.0 55.7 399.0 55.7 406.15 53.1 406.15" fill="#434343" fill-rule="evenodd" stroke="none"/>
    <path d="M53.1 415.85 L53.1 408.7 55.7 408.7 55.7 415.85 53.1 415.85" fill="#434343" fill-rule="evenodd" stroke="none"/>
    <path d="M53.1 425.5 L53.1 418.35 55.7 418.35 55.7 425.5 53.1 425.5" fill="#434343" fill-rule="evenodd" stroke="none"/>
    <path d="M55.7 432.35 L55.7 439.5 53.1 439.5 53.1 432.35 55.7 432.35" fill="#434343" fill-rule="evenodd" stroke="none"/>
    <path d="M55.7 441.9 L55.7 449.05 53.1 449.05 53.1 441.9 55.7 441.9" fill="#434343" fill-rule="evenodd" stroke="none"/>
    <path d="M55.7 451.5 L55.7 458.65 53.1 458.65 53.1 451.5 55.7 451.5" fill="#434343" fill-rule="evenodd" stroke="none"/>
    <path d="M55.7 461.1 L55.7 468.25 53.1 468.25 53.1 461.1 55.7 461.1" fill="#434343" fill-rule="evenodd" stroke="none"/>
    <path d="M55.7 470.7 L55.7 477.85 53.1 477.85 53.1 470.7 55.7 470.7" fill="#434343" fill-rule="evenodd" stroke="none"/>
    <path d="M53.1 487.4 L53.1 480.25 55.7 480.25 55.7 487.4 53.1 487.4" fill="#434343" fill-rule="evenodd" stroke="none"/>
    <path d="M53.1 497.0 L53.1 489.85 55.7 489.85 55.7 497.0 53.1 497.0" fill="#434343" fill-rule="evenodd" stroke="none"/>
    <path d="M53.1 506.6 L53.1 499.45 55.7 499.45 55.7 506.6 53.1 506.6" fill="#434343" fill-rule="evenodd" stroke="none"/>
    <path d="M53.1 516.2 L53.1 509.05 55.7 509.05 55.7 516.2 53.1 516.2" fill="#434343" fill-rule="evenodd" stroke="none"/>
    <path d="M53.1 525.75 L53.1 518.6 55.7 518.6 55.7 525.75 53.1 525.75" fill="#434343" fill-rule="evenodd" stroke="none"/>
    <path d="M53.1 528.2 L55.7 528.2 55.7 535.35 53.1 535.35 53.1 528.2" fill="#434343" fill-rule="evenodd" stroke="none"/>
    <path d="M55.7 537.8 L55.7 544.95 53.1 544.95 53.1 537.8 55.7 537.8" fill="#434343" fill-rule="evenodd" stroke="none"/>
    <path d="M55.7 547.35 L55.7 554.5 53.1 554.5 53.1 547.35 55.7 547.35" fill="#434343" fill-rule="evenodd" stroke="none"/>
    <path d="M48.85 -54.45 L48.85 -61.6 52.5 -61.6 52.5 -54.45 48.85 -54.45" fill="#434343" fill-rule="evenodd" stroke="none"/>
    <path d="M48.85 -44.75 L48.85 -51.9 52.5 -51.9 52.5 -44.75 48.85 -44.75" fill="#434343" fill-rule="evenodd" stroke="none"/>
    <path d="M48.85 -35.1 L48.85 -42.25 52.5 -42.25 52.5 -35.1 48.85 -35.1" fill="#434343" fill-rule="evenodd" stroke="none"/>
    <path d="M48.85 -25.4 L48.85 -32.55 52.5 -32.55 52.5 -25.4 48.85 -25.4" fill="#434343" fill-rule="evenodd" stroke="none"/>
    <path d="M48.85 -15.75 L48.85 -22.9 52.5 -22.9 52.5 -15.75 48.85 -15.75" fill="#434343" fill-rule="evenodd" stroke="none"/>
    <path d="M48.85 -6.1 L48.85 -13.25 52.5 -13.25 52.5 -6.1 48.85 -6.1" fill="#434343" fill-rule="evenodd" stroke="none"/>
    <path d="M48.85 3.6 L48.85 -3.55 52.5 -3.55 52.5 3.6 48.85 3.6" fill="#434343" fill-rule="evenodd" stroke="none"/>
    <path d="M48.85 13.25 L48.85 6.1 52.5 6.1 52.5 13.25 48.85 13.25" fill="#434343" fill-rule="evenodd" stroke="none"/>
    <path d="M48.5 31.6 L52.2 31.6 52.2 38.75 48.5 38.75 48.5 31.6" fill="#434343" fill-rule="evenodd" stroke="none"/>
    <path d="M48.5 48.45 L48.5 41.3 52.2 41.3 52.2 48.45 48.5 48.45" fill="#434343" fill-rule="evenodd" stroke="none"/>
    <path d="M48.5 58.1 L48.5 50.95 52.2 50.95 52.2 58.1 48.5 58.1" fill="#434343" fill-rule="evenodd" stroke="none"/>
    <path d="M48.5 67.8 L48.5 60.65 52.2 60.65 52.2 67.8 48.5 67.8" fill="#434343" fill-rule="evenodd" stroke="none"/>
    <path d="M48.5 77.45 L48.5 70.3 52.2 70.3 52.2 77.45 48.5 77.45" fill="#434343" fill-rule="evenodd" stroke="none"/>
    <path d="M48.5 79.95 L52.2 79.95 52.2 87.1 48.5 87.1 48.5 79.95" fill="#434343" fill-rule="evenodd" stroke="none"/>
    <path d="M48.5 96.8 L48.5 89.65 52.2 89.65 52.2 96.8 48.5 96.8" fill="#434343" fill-rule="evenodd" stroke="none"/>
    <path d="M48.5 106.45 L48.5 99.3 52.2 99.3 52.2 106.45 48.5 106.45" fill="#434343" fill-rule="evenodd" stroke="none"/>
    <path d="M41.1 369.75 L41.1 362.6 44.75 362.6 44.75 369.75 41.1 369.75" fill="#434343" fill-rule="evenodd" stroke="none"/>
    <path d="M40.85 379.8 L40.85 372.65 44.5 372.65 44.5 379.8 40.85 379.8" fill="#434343" fill-rule="evenodd" stroke="none"/>
    <path d="M48.45 124.25 L48.45 117.1 52.1 117.1 52.1 124.25 48.45 124.25" fill="#434343" fill-rule="evenodd" stroke="none"/>
    <path d="M48.45 133.95 L48.45 126.8 52.1 126.8 52.1 133.95 48.45 133.95" fill="#434343" fill-rule="evenodd" stroke="none"/>
    <path d="M48.45 153.3 L48.45 146.15 52.1 146.15 52.1 153.3 48.45 153.3" fill="#434343" fill-rule="evenodd" stroke="none"/>
    <path d="M37.35 -328.75 L37.35 -323.95 29.75 -323.95 29.75 -328.75 37.35 -328.75" fill="#434343" fill-rule="evenodd" stroke="none"/>
    <path d="M37.35 -320.5 L37.35 -315.7 29.75 -315.7 29.75 -320.5 37.35 -320.5" fill="#434343" fill-rule="evenodd" stroke="none"/>
    <path d="M32.2 589.2 L32.2 593.9 25.5 593.9 25.5 589.2 32.2 589.2" fill="#434343" fill-rule="evenodd" stroke="none"/>
    <path d="M25.5 619.7 L25.5 615.0 32.2 615.0 32.2 619.7 25.5 619.7" fill="#434343" fill-rule="evenodd" stroke="none"/>
    <path d="M25.5 666.5 L25.5 661.8 32.2 661.8 32.2 666.5 25.5 666.5" fill="#434343" fill-rule="evenodd" stroke="none"/>
    <path d="M35.85 644.7 L35.85 639.9 40.7 639.9 40.7 644.7 35.85 644.7" fill="#434343" fill-rule="evenodd" stroke="none"/>
    <path d="M25.5 687.7 L25.5 683.0 32.2 683.0 32.2 687.7 25.5 687.7" fill="#434343" fill-rule="evenodd" stroke="none"/>
    <path d="M31.2 716.5 L31.2 710.3 35.25 710.3 35.25 716.5 31.2 716.5" fill="#434343" fill-rule="evenodd" stroke="none"/>
    <path d="M-4.9 841.2 L-3.8 840.4 -2.4 840.1 2.1 840.1 3.5 840.4 4.6 841.2 5.2 842.5 5.5 844.9 6.7 878.2 6.35 916.9 5.65 921.5 7.1 922.0 3.7 947.2 1.3 948.4 0.5 953.5 0.1 953.6 0.1 953.7 -0.15 953.65 -0.4 953.7 -0.45 953.6 -0.8 953.5 -1.6 948.4 -4.0 947.2 -7.4 922.0 -5.95 921.5 -6.7 916.9 -7.0 878.2 -5.8 844.9 -5.5 842.5 -4.9 841.2" fill="#434343" fill-rule="evenodd" stroke="none"/>
    <path d="M101.55 -313.8 L102.55 -313.0 102.55 -264.9 102.0 -264.05 47.1 -259.85 47.1 -256.75 44.0 -256.75 44.0 -259.65 24.75 -258.2 23.35 -267.6 19.15 -268.0 18.95 -247.8 18.15 -230.4 7.55 -174.05 6.75 -171.35 5.55 -169.0 4.15 -167.1 2.55 -165.8 0.35 -164.95 0.35 -164.6 -0.05 -164.75 -0.45 -164.6 -0.45 -164.95 -0.85 -165.15 -2.6 -165.8 -4.25 -167.1 -5.65 -169.0 -6.8 -171.35 -7.65 -174.05 -18.25 -230.4 -19.0 -247.8 -19.25 -268.0 -23.4 -267.6 -24.8 -258.2 -44.3 -259.65 -44.3 -256.75 -47.4 -256.75 -47.4 -259.9 -102.05 -264.05 -102.65 -264.9 -102.65 -313.0 -101.65 -313.8 -47.4 -313.8 -47.4 -321.2 -44.3 -321.2 -44.3 -313.8 -25.0 -313.8 -23.4 -313.0 -19.25 -313.0 -19.25 -338.5 -18.6 -343.35 -17.05 -347.9 -14.75 -351.95 -11.75 -355.3 -8.2 -357.8 -4.3 -359.35 -0.15 -359.9 -0.05 -357.05 0.1 -359.9 4.2 -359.35 8.1 -357.8 11.65 -355.3 14.65 -351.95 17.0 -347.9 18.5 -343.35 19.2 -338.5 19.2 -318.15 19.15 -318.2 19.15 -313.0 23.35 -313.0 24.95 -313.8 44.0 -313.8 44.0 -321.2 47.1 -321.2 47.1 -313.8 101.55 -313.8" fill="#434343" fill-rule="evenodd" stroke="none"/>
    <path d="M13.2 -608.1 L14.6 -608.5 16.7 -608.2 19.1 -607.05 20.65 -606.0 22.0 -604.6 23.0 -602.95 23.65 -601.25 23.85 -599.5 23.55 -598.0 22.85 -596.75 21.8 -595.9 20.4 -595.5 18.85 -595.6 17.25 -596.2 15.7 -597.25 14.35 -598.65 12.35 -601.7 11.7 -604.0 11.4 -606.0 12.1 -607.25 13.2 -608.1" fill="#434343" fill-rule="evenodd" stroke="none"/>
    <path d="M11.9 -612.95 L9.75 -614.85 9.65 -615.5 9.95 -615.95 10.5 -616.2 11.7 -616.15 13.2 -615.9 16.6 -614.7 20.25 -612.65 20.9 -612.1 21.35 -611.45 21.55 -610.9 21.25 -610.4 20.65 -610.05 19.55 -609.95 17.95 -610.15 15.35 -611.05 11.9 -612.95" fill="#434343" fill-rule="evenodd" stroke="none"/>
    <path d="M-16.95 -608.2 L-14.85 -608.5 -13.5 -608.1 -12.4 -607.25 -11.7 -606.0 -11.95 -604.0 -12.65 -601.7 -14.65 -598.65 -16.0 -597.25 -17.55 -596.2 -19.15 -595.6 -20.7 -595.5 -22.05 -595.9 -23.15 -596.75 -23.85 -598.0 -24.15 -599.5 -23.95 -601.25 -23.3 -602.95 -22.3 -604.6 -20.95 -606.0 -19.4 -607.05 -16.95 -608.2" fill="#434343" fill-rule="evenodd" stroke="none"/>
    <path d="M-21.65 -611.45 L-21.2 -612.1 -20.55 -612.65 -18.1 -614.1 -15.35 -615.3 -13.45 -615.9 -12.0 -616.15 -10.8 -616.2 -10.2 -615.95 -9.95 -615.5 -10.05 -614.85 -12.2 -612.95 -15.65 -611.05 -18.25 -610.15 -19.85 -609.95 -20.95 -610.05 -21.55 -610.4 -21.85 -610.9 -21.65 -611.45" fill="#434343" fill-rule="evenodd" stroke="none"/>
    <path d="M12.6 -589.2 L7.2 -589.4 8.0 -523.0 -8.0 -523.0 -7.25 -589.4 -12.65 -589.2 -11.8 -595.2 -6.8 -595.4 -6.4 -602.4 -2.4 -606.6 2.35 -606.6 6.35 -602.4 6.75 -595.4 11.75 -595.2 12.6 -589.2" fill="#434343" fill-rule="evenodd" stroke="none"/>
    <path d="M-44.7 -494.4 L-44.7 -486.6 -47.4 -486.6 -47.4 -494.4 -44.7 -494.4" fill="#434343" fill-rule="evenodd" stroke="none"/>
    <path d="M-44.8 -484.9 L-44.8 -477.1 -47.5 -477.1 -47.5 -484.9 -44.8 -484.9" fill="#434343" fill-rule="evenodd" stroke="none"/>
    <path d="M-37.7 -462.0 L-30.1 -462.0 -30.1 -457.2 -37.7 -457.2 -37.7 -462.0" fill="#434343" fill-rule="evenodd" stroke="none"/>
    <path d="M-30.1 -453.7 L-30.1 -448.9 -37.7 -448.9 -37.7 -453.7 -30.1 -453.7" fill="#434343" fill-rule="evenodd" stroke="none"/>
    <path d="M-30.1 -440.8 L-30.1 -436.0 -37.7 -436.0 -37.7 -440.8 -30.1 -440.8" fill="#434343" fill-rule="evenodd" stroke="none"/>
    <path d="M-30.1 -430.6 L-30.1 -425.8 -37.7 -425.8 -37.7 -430.6 -30.1 -430.6" fill="#434343" fill-rule="evenodd" stroke="none"/>
    <path d="M-30.1 -407.7 L-30.1 -402.9 -37.7 -402.9 -37.7 -407.7 -30.1 -407.7" fill="#434343" fill-rule="evenodd" stroke="none"/>
    <path d="M-30.1 -390.4 L-30.1 -385.6 -37.7 -385.6 -37.7 -390.4 -30.1 -390.4" fill="#434343" fill-rule="evenodd" stroke="none"/>
    <path d="M-30.1 -381.7 L-30.1 -376.9 -37.7 -376.9 -37.7 -381.7 -30.1 -381.7" fill="#434343" fill-rule="evenodd" stroke="none"/>
    <path d="M-30.1 -358.3 L-30.1 -353.5 -37.7 -353.5 -37.7 -358.3 -30.1 -358.3" fill="#434343" fill-rule="evenodd" stroke="none"/>
    <path d="M-30.1 -336.8 L-30.1 -332.0 -37.7 -332.0 -37.7 -336.8 -30.1 -336.8" fill="#434343" fill-rule="evenodd" stroke="none"/>
    <path d="M-44.3 -338.5 L-44.3 -330.9 -47.4 -330.9 -47.4 -338.5 -44.3 -338.5" fill="#434343" fill-rule="evenodd" stroke="none"/>
    <path d="M-47.4 -322.2 L-47.4 -329.8 -44.3 -329.8 -44.3 -322.2 -47.4 -322.2" fill="#434343" fill-rule="evenodd" stroke="none"/>
    <path d="M-52.85 -163.15 L-49.15 -163.15 -49.15 -156.0 -52.85 -156.0 -52.85 -163.15" fill="#434343" fill-rule="evenodd" stroke="none"/>
    <path d="M-52.85 -146.3 L-52.85 -153.45 -49.15 -153.45 -49.15 -146.3 -52.85 -146.3" fill="#434343" fill-rule="evenodd" stroke="none"/>
    <path d="M-52.85 -136.65 L-52.85 -143.8 -49.15 -143.8 -49.15 -136.65 -52.85 -136.65" fill="#434343" fill-rule="evenodd" stroke="none"/>
    <path d="M-52.85 -126.95 L-52.85 -134.1 -49.15 -134.1 -49.15 -126.95 -52.85 -126.95" fill="#434343" fill-rule="evenodd" stroke="none"/>
    <path d="M-52.85 -117.3 L-52.85 -124.45 -49.15 -124.45 -49.15 -117.3 -52.85 -117.3" fill="#434343" fill-rule="evenodd" stroke="none"/>
    <path d="M-52.85 -114.8 L-49.15 -114.8 -49.15 -107.65 -52.85 -107.65 -52.85 -114.8" fill="#434343" fill-rule="evenodd" stroke="none"/>
    <path d="M-52.85 -97.95 L-52.85 -105.1 -49.15 -105.1 -49.15 -97.95 -52.85 -97.95" fill="#434343" fill-rule="evenodd" stroke="none"/>
    <path d="M-52.85 -88.3 L-52.85 -95.45 -49.15 -95.45 -49.15 -88.3 -52.85 -88.3" fill="#434343" fill-rule="evenodd" stroke="none"/>
    <path d="M-52.85 -78.65 L-52.85 -85.8 -49.15 -85.8 -49.15 -78.65 -52.85 -78.65" fill="#434343" fill-rule="evenodd" stroke="none"/>
    <path d="M-52.85 -68.95 L-52.85 -76.1 -49.15 -76.1 -49.15 -68.95 -52.85 -68.95" fill="#434343" fill-rule="evenodd" stroke="none"/>
    <path d="M-59.9 396.5 L-59.9 389.35 -57.3 389.35 -57.3 396.5 -59.9 396.5" fill="#434343" fill-rule="evenodd" stroke="none"/>
    <path d="M-59.9 406.15 L-59.9 399.0 -57.3 399.0 -57.3 406.15 -59.9 406.15" fill="#434343" fill-rule="evenodd" stroke="none"/>
    <path d="M-59.9 415.85 L-59.9 408.7 -57.3 408.7 -57.3 415.85 -59.9 415.85" fill="#434343" fill-rule="evenodd" stroke="none"/>
    <path d="M-59.9 425.5 L-59.9 418.35 -57.3 418.35 -57.3 425.5 -59.9 425.5" fill="#434343" fill-rule="evenodd" stroke="none"/>
    <path d="M-59.9 439.5 L-59.9 432.35 -57.3 432.35 -57.3 439.5 -59.9 439.5" fill="#434343" fill-rule="evenodd" stroke="none"/>
    <path d="M-59.9 449.05 L-59.9 441.9 -57.3 441.9 -57.3 449.05 -59.9 449.05" fill="#434343" fill-rule="evenodd" stroke="none"/>
    <path d="M-59.9 458.65 L-59.9 451.5 -57.3 451.5 -57.3 458.65 -59.9 458.65" fill="#434343" fill-rule="evenodd" stroke="none"/>
    <path d="M-59.9 468.25 L-59.9 461.1 -57.3 461.1 -57.3 468.25 -59.9 468.25" fill="#434343" fill-rule="evenodd" stroke="none"/>
    <path d="M-59.9 477.85 L-59.9 470.7 -57.3 470.7 -57.3 477.85 -59.9 477.85" fill="#434343" fill-rule="evenodd" stroke="none"/>
    <path d="M-59.9 480.25 L-57.3 480.25 -57.3 487.4 -59.9 487.4 -59.9 480.25" fill="#434343" fill-rule="evenodd" stroke="none"/>
    <path d="M-59.9 497.0 L-59.9 489.85 -57.3 489.85 -57.3 497.0 -59.9 497.0" fill="#434343" fill-rule="evenodd" stroke="none"/>
    <path d="M-59.9 506.6 L-59.9 499.45 -57.3 499.45 -57.3 506.6 -59.9 506.6" fill="#434343" fill-rule="evenodd" stroke="none"/>
    <path d="M-59.9 516.2 L-59.9 509.05 -57.3 509.05 -57.3 516.2 -59.9 516.2" fill="#434343" fill-rule="evenodd" stroke="none"/>
    <path d="M-59.9 525.75 L-59.9 518.6 -57.3 518.6 -57.3 525.75 -59.9 525.75" fill="#434343" fill-rule="evenodd" stroke="none"/>
    <path d="M-59.9 528.2 L-57.3 528.2 -57.3 535.35 -59.9 535.35 -59.9 528.2" fill="#434343" fill-rule="evenodd" stroke="none"/>
    <path d="M-59.9 544.95 L-59.9 537.8 -57.3 537.8 -57.3 544.95 -59.9 544.95" fill="#434343" fill-rule="evenodd" stroke="none"/>
    <path d="M-59.9 554.5 L-59.9 547.35 -57.3 547.35 -57.3 554.5 -59.9 554.5" fill="#434343" fill-rule="evenodd" stroke="none"/>
    <path d="M-56.0 396.5 L-56.0 389.35 -53.4 389.35 -53.4 396.5 -56.0 396.5" fill="#434343" fill-rule="evenodd" stroke="none"/>
    <path d="M-56.0 406.15 L-56.0 399.0 -53.4 399.0 -53.4 406.15 -56.0 406.15" fill="#434343" fill-rule="evenodd" stroke="none"/>
    <path d="M-56.0 415.85 L-56.0 408.7 -53.4 408.7 -53.4 415.85 -56.0 415.85" fill="#434343" fill-rule="evenodd" stroke="none"/>
    <path d="M-56.0 425.5 L-56.0 418.35 -53.4 418.35 -53.4 425.5 -56.0 425.5" fill="#434343" fill-rule="evenodd" stroke="none"/>
    <path d="M-56.0 439.5 L-56.0 432.35 -53.4 432.35 -53.4 439.5 -56.0 439.5" fill="#434343" fill-rule="evenodd" stroke="none"/>
    <path d="M-56.0 449.05 L-56.0 441.9 -53.4 441.9 -53.4 449.05 -56.0 449.05" fill="#434343" fill-rule="evenodd" stroke="none"/>
    <path d="M-56.0 458.65 L-56.0 451.5 -53.4 451.5 -53.4 458.65 -56.0 458.65" fill="#434343" fill-rule="evenodd" stroke="none"/>
    <path d="M-56.0 468.25 L-56.0 461.1 -53.4 461.1 -53.4 468.25 -56.0 468.25" fill="#434343" fill-rule="evenodd" stroke="none"/>
    <path d="M-56.0 477.85 L-56.0 470.7 -53.4 470.7 -53.4 477.85 -56.0 477.85" fill="#434343" fill-rule="evenodd" stroke="none"/>
    <path d="M-56.0 480.25 L-53.4 480.25 -53.4 487.4 -56.0 487.4 -56.0 480.25" fill="#434343" fill-rule="evenodd" stroke="none"/>
    <path d="M-56.0 497.0 L-56.0 489.85 -53.4 489.85 -53.4 497.0 -56.0 497.0" fill="#434343" fill-rule="evenodd" stroke="none"/>
    <path d="M-56.0 506.6 L-56.0 499.45 -53.4 499.45 -53.4 506.6 -56.0 506.6" fill="#434343" fill-rule="evenodd" stroke="none"/>
    <path d="M-56.0 516.2 L-56.0 509.05 -53.4 509.05 -53.4 516.2 -56.0 516.2" fill="#434343" fill-rule="evenodd" stroke="none"/>
    <path d="M-56.0 525.75 L-56.0 518.6 -53.4 518.6 -53.4 525.75 -56.0 525.75" fill="#434343" fill-rule="evenodd" stroke="none"/>
    <path d="M-56.0 528.2 L-53.4 528.2 -53.4 535.35 -56.0 535.35 -56.0 528.2" fill="#434343" fill-rule="evenodd" stroke="none"/>
    <path d="M-56.0 544.95 L-56.0 537.8 -53.4 537.8 -53.4 544.95 -56.0 544.95" fill="#434343" fill-rule="evenodd" stroke="none"/>
    <path d="M-56.0 554.5 L-56.0 547.35 -53.4 547.35 -53.4 554.5 -56.0 554.5" fill="#434343" fill-rule="evenodd" stroke="none"/>
    <path d="M-52.85 -54.45 L-52.85 -61.6 -49.15 -61.6 -49.15 -54.45 -52.85 -54.45" fill="#434343" fill-rule="evenodd" stroke="none"/>
    <path d="M-52.85 -44.75 L-52.85 -51.9 -49.15 -51.9 -49.15 -44.75 -52.85 -44.75" fill="#434343" fill-rule="evenodd" stroke="none"/>
    <path d="M-52.85 -35.1 L-52.85 -42.25 -49.15 -42.25 -49.15 -35.1 -52.85 -35.1" fill="#434343" fill-rule="evenodd" stroke="none"/>
    <path d="M-52.85 -25.4 L-52.85 -32.55 -49.15 -32.55 -49.15 -25.4 -52.85 -25.4" fill="#434343" fill-rule="evenodd" stroke="none"/>
    <path d="M-52.85 -15.75 L-52.85 -22.9 -49.15 -22.9 -49.15 -15.75 -52.85 -15.75" fill="#434343" fill-rule="evenodd" stroke="none"/>
    <path d="M-52.85 -6.1 L-52.85 -13.25 -49.15 -13.25 -49.15 -6.1 -52.85 -6.1" fill="#434343" fill-rule="evenodd" stroke="none"/>
    <path d="M-52.85 3.6 L-52.85 -3.55 -49.15 -3.55 -49.15 3.6 -52.85 3.6" fill="#434343" fill-rule="evenodd" stroke="none"/>
    <path d="M-52.85 13.25 L-52.85 6.1 -49.15 6.1 -49.15 13.25 -52.85 13.25" fill="#434343" fill-rule="evenodd" stroke="none"/>
    <path d="M-52.55 31.6 L-48.85 31.6 -48.85 38.75 -52.55 38.75 -52.55 31.6" fill="#434343" fill-rule="evenodd" stroke="none"/>
    <path d="M-48.85 41.3 L-48.85 48.45 -52.55 48.45 -52.55 41.3 -48.85 41.3" fill="#434343" fill-rule="evenodd" stroke="none"/>
    <path d="M-48.85 50.95 L-48.85 58.1 -52.55 58.1 -52.55 50.95 -48.85 50.95" fill="#434343" fill-rule="evenodd" stroke="none"/>
    <path d="M-48.85 60.65 L-48.85 67.8 -52.55 67.8 -52.55 60.65 -48.85 60.65" fill="#434343" fill-rule="evenodd" stroke="none"/>
    <path d="M-48.85 70.3 L-48.85 77.45 -52.55 77.45 -52.55 70.3 -48.85 70.3" fill="#434343" fill-rule="evenodd" stroke="none"/>
    <path d="M-52.55 79.95 L-48.85 79.95 -48.85 87.1 -52.55 87.1 -52.55 79.95" fill="#434343" fill-rule="evenodd" stroke="none"/>
    <path d="M-52.55 96.8 L-52.55 89.65 -48.85 89.65 -48.85 96.8 -52.55 96.8" fill="#434343" fill-rule="evenodd" stroke="none"/>
    <path d="M-48.85 99.3 L-48.85 106.45 -52.55 106.45 -52.55 99.3 -48.85 99.3" fill="#434343" fill-rule="evenodd" stroke="none"/>
    <path d="M-41.4 362.6 L-41.4 369.75 -45.1 369.75 -45.1 362.6 -41.4 362.6" fill="#434343" fill-rule="evenodd" stroke="none"/>
    <path d="M-44.85 379.8 L-44.85 372.65 -41.15 372.65 -41.15 379.8 -44.85 379.8" fill="#434343" fill-rule="evenodd" stroke="none"/>
    <path d="M-52.45 124.25 L-52.45 117.1 -48.75 117.1 -48.75 124.25 -52.45 124.25" fill="#434343" fill-rule="evenodd" stroke="none"/>
    <path d="M-52.45 133.95 L-52.45 126.8 -48.75 126.8 -48.75 133.95 -52.45 133.95" fill="#434343" fill-rule="evenodd" stroke="none"/>
    <path d="M-52.45 153.3 L-52.45 146.15 -48.75 146.15 -48.75 153.3 -52.45 153.3" fill="#434343" fill-rule="evenodd" stroke="none"/>
    <path d="M-30.1 -328.75 L-30.1 -323.95 -37.7 -323.95 -37.7 -328.75 -30.1 -328.75" fill="#434343" fill-rule="evenodd" stroke="none"/>
    <path d="M-30.1 -320.5 L-30.1 -315.7 -37.7 -315.7 -37.7 -320.5 -30.1 -320.5" fill="#434343" fill-rule="evenodd" stroke="none"/>
    <path d="M-32.5 593.9 L-32.5 589.2 -25.8 589.2 -25.8 593.9 -32.5 593.9" fill="#434343" fill-rule="evenodd" stroke="none"/>
    <path d="M-32.5 619.7 L-32.5 615.0 -25.8 615.0 -25.8 619.7 -32.5 619.7" fill="#434343" fill-rule="evenodd" stroke="none"/>
    <path d="M-32.5 666.5 L-32.5 661.8 -25.8 661.8 -25.8 666.5 -32.5 666.5" fill="#434343" fill-rule="evenodd" stroke="none"/>
    <path d="M-41.0 644.7 L-41.0 639.9 -36.2 639.9 -36.2 644.7 -41.0 644.7" fill="#434343" fill-rule="evenodd" stroke="none"/>
    <path d="M-32.5 687.7 L-32.5 683.0 -25.8 683.0 -25.8 687.7 -32.5 687.7" fill="#434343" fill-rule="evenodd" stroke="none"/>
    <path d="M-35.55 716.5 L-35.55 710.3 -31.5 710.3 -31.5 716.5 -35.55 716.5" fill="#434343" fill-rule="evenodd" stroke="none"/>
    <path d="M6.15 -460.35 L7.3 -458.9 8.15 -457.2 8.6 -455.4 8.6 -453.5 8.25 -451.65 7.5 -449.95 6.4 -448.45 5.0 -447.2 3.35 -446.3 1.55 -445.75 -0.3 -445.65 -2.15 -445.9 -3.9 -446.55 -5.45 -447.6 -6.8 -448.9 -7.8 -450.5 -8.4 -452.25 -8.65 -454.1 -8.5 -455.95 -7.9 -457.75 -7.0 -459.4 -5.75 -460.75 -4.2 -461.85 -2.5 -462.55 -0.65 -462.9 1.25 -462.85 3.05 -462.35 4.7 -461.55 6.15 -460.35" fill="#ffffff" fill-rule="evenodd" stroke="none"/>
    <path d="M7.3 653.25 L8.15 654.9 8.6 656.75 8.6 658.6 8.25 660.45 7.5 662.15 6.4 663.65 5.0 664.9 3.35 665.8 1.55 666.35 -0.3 666.5 -2.15 666.2 -3.9 665.55 -5.45 664.55 -6.8 663.2 -7.8 661.6 -8.4 659.85 -8.65 658.0 -8.5 656.15 -7.9 654.35 -7.0 652.75 -5.75 651.35 -4.2 650.25 -2.5 649.55 -0.65 649.2 1.25 649.25 3.05 649.75 4.7 650.6 6.15 651.75 7.3 653.25" fill="#ffffff" fill-rule="evenodd" stroke="none"/>
    <path d="M7.8 740.2 L7.85 741.9 7.5 743.55 6.85 745.1 5.85 746.45 4.6 747.55 3.1 748.4 1.5 748.85 -0.2 749.0 -1.9 748.75 -3.45 748.15 -4.9 747.25 -6.05 746.05 -6.95 744.6 -7.55 743.0 -7.75 741.35 -7.6 739.65 -7.1 738.05 -6.25 736.55 -5.1 735.3 -3.75 734.35 -2.15 733.7 -0.5 733.4 1.2 733.45 2.8 733.85 4.35 734.65 5.65 735.7 6.7 737.0 7.45 738.55 7.8 740.2" fill="#ffffff" fill-rule="evenodd" stroke="none"/>
    <path d="M6.6 -362.1 L6.6 -358.5 -6.65 -358.5 -6.65 -362.1 6.6 -362.1" fill="#ffffff" fill-rule="evenodd" stroke="none"/>
  </g>
</svg>
