<?xml version="1.0" encoding="UTF-8" standalone="no"?>
<svg xmlns:ffdec="https://www.free-decompiler.com/flash" xmlns:xlink="http://www.w3.org/1999/xlink" ffdec:objectType="shape" height="268.25px" width="25.75px" xmlns="http://www.w3.org/2000/svg">
  <g transform="matrix(1.0, 0.0, 0.0, 1.0, 9.0, 128.45)">
    <path d="M16.4 -126.35 Q16.0 -125.95 15.5 -125.95 L-2.0 -125.95 -2.0 137.3 15.5 137.3 Q15.95 137.3 16.4 137.65 16.75 138.1 16.75 138.55 L16.4 139.4 Q16.0 139.8 15.5 139.8 L-9.0 139.8 -9.0 -128.45 15.5 -128.45 16.4 -128.1 Q16.75 -127.65 16.75 -127.2 16.75 -126.7 16.4 -126.35 M-7.0 -125.9 L-7.0 137.25 -4.0 137.25 -4.0 -125.9 -7.0 -125.9" fill="#ffffff" fill-rule="evenodd" stroke="none"/>
  </g>
</svg>
