<?xml version="1.0" encoding="UTF-8" standalone="no"?>
<svg xmlns:ffdec="https://www.free-decompiler.com/flash" xmlns:xlink="http://www.w3.org/1999/xlink" ffdec:objectType="shape" height="88.95px" width="89.0px" xmlns="http://www.w3.org/2000/svg">
  <g transform="matrix(1.0, 0.0, 0.0, 1.0, 0.0, 0.0)">
    <path d="M86.0 2.25 Q84.65 0.95 82.25 0.95 80.6 0.95 78.95 1.55 77.5 2.1 76.75 2.85 L76.35 3.25 85.8 12.65 86.15 12.25 Q87.65 10.7 87.95 7.85 88.35 4.6 86.75 3.0 L86.0 2.25 M87.4 2.3 Q89.35 4.25 88.9 7.95 88.5 11.25 86.85 12.9 L74.9 24.9 72.2 38.45 72.05 38.7 69.55 41.25 69.2 41.4 68.85 41.25 63.7 36.1 33.3 66.5 31.3 84.75 31.2 85.05 27.4 88.85 27.05 88.95 26.7 88.85 18.8 80.95 17.2 82.55 Q15.85 83.9 14.6 83.9 L13.55 83.65 12.7 84.5 11.65 84.9 Q11.1 84.9 10.6 84.5 L4.5 78.4 4.1 77.35 Q4.1 76.8 4.5 76.3 L5.35 75.45 5.1 74.55 Q5.0 73.2 6.45 71.8 L8.1 70.2 0.15 62.3 0.0 61.95 0.15 61.6 3.95 57.8 4.25 57.65 22.5 55.75 47.25 31.0 47.3 30.9 47.45 30.8 52.9 25.3 47.75 20.15 47.6 19.8 47.75 19.45 50.3 16.95 Q50.4 16.8 50.55 16.8 L64.1 14.15 76.05 2.15 Q77.05 1.2 78.8 0.6 L82.25 0.0 Q85.05 0.0 86.7 1.55 L87.4 2.3 M73.45 6.2 L67.5 12.15 76.9 21.55 82.85 15.6 73.45 6.2 M74.1 5.5 L83.55 14.9 85.1 13.35 75.7 3.95 74.1 5.5 M70.3 20.5 L59.95 31.65 59.6 31.8 59.25 31.65 57.35 29.75 57.2 29.4 57.4 29.05 68.55 18.7 69.2 18.75 70.3 19.8 Q70.6 20.2 70.3 20.5 M68.85 19.75 L58.4 29.45 59.6 30.6 69.25 20.2 68.85 19.75 M66.8 12.85 L51.15 28.45 60.6 37.85 76.2 22.25 66.8 12.85 M71.25 38.1 L73.65 26.1 64.35 35.4 69.2 40.2 71.25 38.1 M53.6 24.6 L62.85 15.35 50.85 17.7 48.8 19.8 53.6 24.6 M5.2 77.0 L5.05 77.35 5.2 77.7 11.3 83.8 Q11.65 84.15 12.0 83.8 L12.8 83.0 6.0 76.2 5.2 77.0 M6.3 75.1 L13.85 82.65 13.9 82.7 Q14.9 83.5 16.55 81.85 L18.45 80.0 18.45 79.9 32.45 65.9 32.6 65.8 34.8 63.65 25.4 54.25 23.2 56.45 23.1 56.55 7.15 72.45 Q5.5 74.1 6.3 75.1 M13.35 73.8 L13.2 73.45 13.35 73.1 26.1 61.2 Q26.4 60.85 26.75 61.2 L27.85 62.25 Q28.15 62.65 27.85 62.95 L15.95 75.65 15.6 75.85 15.25 75.7 13.35 73.8 M15.55 74.65 L26.8 62.6 26.4 62.2 14.4 73.45 15.55 74.65 M4.5 58.6 L1.2 61.95 8.75 69.5 21.4 56.8 4.5 58.6 M59.9 38.55 L50.5 29.15 48.35 31.25 57.75 40.65 59.9 38.55 M47.65 31.95 L28.9 50.75 38.3 60.15 57.1 41.35 47.65 31.95 M37.6 60.85 L28.2 51.4 26.1 53.55 35.5 62.95 37.6 60.85 M30.35 84.5 L32.15 67.6 19.5 80.25 27.05 87.8 30.35 84.5" fill="#90fffc" fill-rule="evenodd" stroke="none"/>
    <path d="M76.4 2.45 Q77.95 0.9 81.1 0.5 84.55 0.1 86.35 1.85 L87.1 2.6 Q88.85 4.4 88.45 7.85 88.05 10.95 86.5 12.55 L74.4 24.65 71.7 38.3 69.2 40.85 63.7 35.35 32.8 66.25 30.85 84.65 27.05 88.45 18.8 80.2 16.85 82.15 Q14.85 84.15 13.5 82.95 L12.35 84.1 11.65 84.35 10.95 84.1 4.85 78.0 4.55 77.3 Q4.55 76.9 4.85 76.6 L6.0 75.45 Q4.75 74.1 6.8 72.05 L8.75 70.1 0.5 61.9 4.3 58.1 22.7 56.15 53.6 25.25 48.1 19.75 50.65 17.2 64.35 14.5 76.4 2.45" fill="#57ffff" fill-opacity="0.09803922" fill-rule="evenodd" stroke="none"/>
  </g>
</svg>
