<?xml version="1.0" encoding="UTF-8" standalone="no"?>
<svg xmlns:ffdec="https://www.free-decompiler.com/flash" xmlns:xlink="http://www.w3.org/1999/xlink" ffdec:objectType="shape" height="62.75px" width="512.0px" xmlns="http://www.w3.org/2000/svg">
  <g transform="matrix(1.0, 0.0, 0.0, 1.0, 254.4, 31.4)">
    <path d="M257.6 -1.0 L257.6 1.0 28.65 1.0 28.65 -1.0 257.6 -1.0 M-28.45 -1.0 L-28.45 1.0 -254.4 1.0 -254.4 -1.0 -28.45 -1.0" fill="#ffffff" fill-rule="evenodd" stroke="none"/>
    <path d="M-97.05 29.1 L-76.95 -1.1 -75.55 1.0 -95.65 31.2 -97.05 29.1" fill="#ffffff" fill-rule="evenodd" stroke="none"/>
    <path d="M-95.7 -31.4 L-75.6 -1.25 -77.0 0.85 -97.1 -29.3 -95.7 -31.4" fill="#ffffff" fill-rule="evenodd" stroke="none"/>
    <path d="M95.95 -29.3 L75.85 0.9 74.45 -1.2 94.55 -31.4 95.95 -29.3" fill="#ffffff" fill-rule="evenodd" stroke="none"/>
    <path d="M94.6 31.35 L74.5 1.2 75.9 -0.9 96.0 29.25 94.6 31.35" fill="#ffffff" fill-rule="evenodd" stroke="none"/>
  </g>
</svg>
