<?xml version="1.0" encoding="UTF-8" standalone="no"?>
<svg xmlns:ffdec="https://www.free-decompiler.com/flash" xmlns:xlink="http://www.w3.org/1999/xlink" ffdec:objectType="shape" height="515.3px" width="23.15px" xmlns="http://www.w3.org/2000/svg">
  <g transform="matrix(1.0, 0.0, 0.0, 1.0, 12.25, 248.9)">
    <path d="M10.9 -244.65 L10.9 -244.35 10.9 -244.1 10.9 -243.65 10.9 -242.3 10.9 -238.9 10.9 -220.25 10.9 156.25 10.9 164.1 10.9 180.85 10.9 184.45 10.9 257.9 10.9 266.4 -10.8 266.4 Q-11.3 266.4 -11.7 266.0 -12.05 265.7 -12.05 265.15 -12.05 264.65 -11.7 264.25 -11.3 263.9 -10.8 263.9 L8.9 263.9 8.9 257.9 8.9 255.8 8.9 254.45 8.9 184.45 8.9 180.85 8.9 170.9 -10.85 170.9 -11.85 170.45 Q-12.2 170.1 -12.2 169.55 -12.2 168.95 -11.85 168.55 -11.45 168.15 -10.85 168.15 L0.9 168.15 0.9 -149.75 -10.9 -149.75 Q-11.5 -149.75 -11.9 -150.2 -12.25 -150.55 -12.25 -151.1 -12.25 -151.7 -11.9 -152.1 -11.5 -152.5 -10.9 -152.5 L8.9 -152.5 8.9 -246.4 -10.8 -246.4 -10.9 -246.4 Q-11.35 -246.45 -11.7 -246.8 -12.05 -247.1 -12.05 -247.65 L-11.7 -248.55 -10.9 -248.9 10.9 -248.9 10.9 -245.75 10.9 -245.3 10.9 -244.65 M2.9 -149.75 L2.9 168.15 8.9 168.15 8.9 164.1 8.9 156.25 8.9 -131.15 8.9 -134.6 8.9 -138.9 8.9 -149.75 2.9 -149.75" fill="#ffffff" fill-rule="evenodd" stroke="none"/>
  </g>
</svg>
