<?xml version="1.0" encoding="UTF-8" standalone="no"?>
<svg xmlns:ffdec="https://www.free-decompiler.com/flash" xmlns:xlink="http://www.w3.org/1999/xlink" ffdec:objectType="shape" height="23.0px" width="23.0px" xmlns="http://www.w3.org/2000/svg">
  <g transform="matrix(1.0, 0.0, 0.0, 1.0, 0.0, 0.0)">
    <path d="M3.35 3.35 Q6.7 0.0 11.5 0.0 16.25 0.0 19.6 3.35 23.0 6.7 23.0 11.5 23.0 16.25 19.6 19.6 16.25 23.0 11.5 23.0 6.7 23.0 3.35 19.6 0.0 16.25 0.0 11.5 0.0 6.7 3.35 3.35" fill="#19703c" fill-rule="evenodd" stroke="none"/>
    <path d="M6.85 6.9 Q8.75 5.0 11.5 5.0 14.2 5.0 16.1 6.9 18.0 8.8 18.0 11.5 18.0 14.2 16.1 16.1 14.2 18.0 11.5 18.0 8.75 18.0 6.85 16.1 5.0 14.2 5.0 11.5 5.0 8.8 6.85 6.9" fill="#ffffff" fill-rule="evenodd" stroke="none"/>
  </g>
</svg>
