<?xml version="1.0" encoding="UTF-8" standalone="no"?>
<svg xmlns:ffdec="https://www.free-decompiler.com/flash" xmlns:xlink="http://www.w3.org/1999/xlink" ffdec:objectType="shape" height="188.05px" width="231.8px" xmlns="http://www.w3.org/2000/svg">
  <g transform="matrix(1.0, 0.0, 0.0, 1.0, 129.0, 10.4)">
    <path d="M95.45 51.65 Q102.8 51.65 102.8 58.95 L102.8 170.4 Q102.8 177.65 95.45 177.65 L-121.7 177.65 Q-129.0 177.65 -129.0 170.4 L-129.0 58.95 Q-129.0 51.65 -121.7 51.65 L95.45 51.65" fill="#ffffff" fill-rule="evenodd" stroke="none"/>
    <path d="M-127.4 111.2 L-127.4 58.95 Q-127.4 53.3 -121.7 53.3 L95.45 53.3 Q101.15 53.3 101.15 58.95 L101.15 60.8 Q43.6 85.7 -39.8 100.4 -86.55 108.6 -127.4 111.2" fill="#1a773f" fill-rule="evenodd" stroke="none"/>
    <path d="M101.15 60.8 L101.15 170.4 Q101.15 176.1 95.45 176.1 L-121.7 176.1 Q-127.4 176.1 -127.4 170.4 L-127.4 111.2 Q-86.55 108.6 -39.8 100.4 43.6 85.7 101.15 60.8" fill="#186f3b" fill-rule="evenodd" stroke="none"/>
    <path d="M81.85 69.65 L81.85 69.7 80.9 69.0 Q79.95 68.15 79.95 66.75 79.95 65.5 80.9 64.55 81.85 63.65 83.15 63.55 84.4 63.65 85.3 64.55 L85.85 65.2 Q85.3 64.9 84.6 64.95 83.35 64.95 82.4 65.9 81.4 66.75 81.4 68.05 81.4 69.0 81.85 69.65" fill="#000000" fill-rule="evenodd" stroke="none"/>
    <path d="M85.85 65.2 Q86.3 65.9 86.3 66.75 86.3 68.05 85.3 69.0 84.45 69.9 83.15 69.9 L81.85 69.65 Q81.4 69.0 81.4 68.05 81.4 66.75 82.4 65.9 83.35 64.95 84.6 64.95 85.3 64.9 85.85 65.2" fill="#ffffff" fill-rule="evenodd" stroke="none"/>
    <path d="M-107.65 65.2 Q-107.3 65.9 -107.3 66.75 -107.3 68.05 -108.2 69.0 -109.15 69.9 -110.45 69.9 L-111.7 69.65 Q-112.2 69.0 -112.2 68.05 -112.2 66.75 -111.2 65.9 -110.25 64.95 -108.95 64.95 L-107.65 65.2" fill="#ffffff" fill-rule="evenodd" stroke="none"/>
    <path d="M-111.7 69.65 L-111.7 69.7 -112.7 69.0 Q-113.65 68.15 -113.65 66.75 -113.55 65.5 -112.7 64.55 -111.7 63.65 -110.45 63.55 -109.2 63.65 -108.2 64.55 L-107.65 65.2 -108.95 64.95 Q-110.25 64.95 -111.2 65.9 -112.2 66.75 -112.2 68.05 -112.2 69.0 -111.7 69.65" fill="#000000" fill-rule="evenodd" stroke="none"/>
    <path d="M9.5 -6.7 Q13.2 -2.9 13.2 2.4 13.2 7.2 10.1 10.8 L9.5 11.45 Q7.65 13.25 5.5 14.15 3.15 15.15 0.4 15.15 L-3.5 14.65 Q-6.35 13.75 -8.65 11.45 L-9.2 10.85 Q-12.35 7.3 -12.35 2.4 -12.35 -2.9 -8.65 -6.7 -4.9 -10.4 0.4 -10.4 5.7 -10.4 9.5 -6.7" fill="#dfdfdf" fill-rule="evenodd" stroke="none"/>
    <path d="M3.7 2.15 L82.15 65.95 M-109.6 66.4 L-2.1 2.5" fill="none" stroke="#000000" stroke-linecap="butt" stroke-linejoin="round" stroke-opacity="0.2" stroke-width="2.5500000000000003"/>
    <path d="M4.25 -2.95 L82.8 66.75 M-109.65 66.4 L-5.8 0.05" fill="none" stroke="#000000" stroke-linecap="round" stroke-linejoin="round" stroke-width="2.5500000000000003"/>
    <path d="M0.45 -7.4 Q4.45 -7.4 7.3 -4.6 10.2 -1.7 10.2 2.35 10.2 6.0 7.85 8.75 L7.75 8.75 7.3 9.2 Q6.0 10.5 4.3 11.25 2.5 12.0 0.45 12.0 L-2.5 11.65 Q-4.7 10.95 -6.45 9.2 L-6.85 8.75 Q-9.3 6.0 -9.3 2.35 -9.3 -1.7 -6.45 -4.6 -3.6 -7.4 0.45 -7.4" fill="#999999" fill-rule="evenodd" stroke="none"/>
    <path d="M6.3 -3.5 Q8.75 -1.15 8.75 2.4 8.75 5.55 6.7 7.9 L6.3 8.3 3.7 10.05 Q2.2 10.75 0.4 10.75 L-2.1 10.35 Q-4.05 9.75 -5.5 8.3 L-5.8 7.9 Q-7.95 5.55 -7.95 2.4 -7.95 -1.15 -5.5 -3.5 -3.1 -5.95 0.4 -5.95 3.85 -5.95 6.3 -3.5" fill="#f2f2f2" fill-rule="evenodd" stroke="none"/>
  </g>
</svg>
