<?xml version="1.0" encoding="UTF-8" standalone="no"?>
<svg xmlns:ffdec="https://www.free-decompiler.com/flash" xmlns:xlink="http://www.w3.org/1999/xlink" ffdec:objectType="shape" height="13.0px" width="16.95px" xmlns="http://www.w3.org/2000/svg">
  <g transform="matrix(1.0, 0.0, 0.0, 1.0, -0.05, 0.0)">
    <path d="M16.55 5.95 L16.9 6.35 17.0 6.9 17.0 8.5 16.9 9.05 16.55 9.45 16.0 9.7 16.0 11.85 15.6 12.7 14.8 13.0 14.4 13.0 13.65 12.7 13.2 11.85 13.2 9.7 3.85 9.7 3.85 11.85 3.55 12.65 2.7 13.0 2.25 13.0 1.6 12.75 1.1 11.85 1.1 9.7 0.6 9.5 0.25 9.15 0.05 8.5 0.05 6.9 0.35 6.15 0.8 5.85 1.4 5.75 2.0 1.15 2.15 0.6 2.6 0.15 3.2 0.0 13.9 0.0 14.7 0.25 15.0 0.75 15.05 1.15 15.7 5.75 16.55 5.95 M3.85 7.1 L3.25 6.5 2.5 6.3 1.85 6.45 1.3 6.95 1.2 7.25 1.05 7.75 1.25 8.4 1.75 8.95 2.5 9.2 3.2 9.0 3.8 8.45 3.95 7.75 3.85 7.1 M14.05 6.4 L13.4 6.95 13.15 7.75 13.4 8.5 13.9 9.0 14.6 9.2 15.3 9.0 15.85 8.45 16.05 7.75 15.95 7.15 15.45 6.55 14.6 6.3 14.25 6.35 14.05 6.4 M14.4 4.7 L13.85 1.7 13.7 1.25 13.3 1.1 3.8 1.1 3.45 1.25 3.25 1.7 2.7 4.7 14.4 4.7" fill="#000000" fill-rule="evenodd" stroke="none"/>
  </g>
</svg>
