<?xml version="1.0" encoding="UTF-8" standalone="no"?>
<svg xmlns:ffdec="https://www.free-decompiler.com/flash" xmlns:xlink="http://www.w3.org/1999/xlink" ffdec:objectType="shape" height="237.0px" width="332.0px" xmlns="http://www.w3.org/2000/svg">
  <g transform="matrix(1.0, 0.0, 0.0, 1.0, 198.95, 167.95)">
    <path d="M133.05 69.05 L-3.95 69.05 -17.95 67.05 -29.95 69.05 -198.95 69.05 -198.95 -167.95 133.05 -165.95 133.05 69.05" fill="#424242" fill-rule="evenodd" stroke="none"/>
    <path d="M-99.95 -124.95 L-92.95 -124.95 -92.95 -127.95 -41.95 -127.95 -41.95 -124.95 44.05 -124.95 44.05 -29.95 60.05 -29.95 60.05 -34.95 86.05 -34.95 86.05 -29.95 105.05 -29.95 105.05 -26.95 114.05 -26.95 114.05 57.05 105.05 57.05 105.05 62.05 -99.95 62.05 -99.95 56.05 -102.95 56.05 -102.95 0.05 -99.95 0.05 -99.95 -124.95" fill="#959595" fill-rule="evenodd" stroke="none"/>
    <path d="M-34.95 -35.95 L-34.95 -50.95 -24.95 -50.95 -24.95 -45.95 20.05 -45.95 20.05 -94.95 38.05 -94.95 Q36.05 -94.95 33.05 -95.95 L35.05 -104.95 44.05 -103.95 Q43.05 -98.95 41.05 -94.95 L44.05 -94.95 44.05 -35.95 -34.95 -35.95" fill="#6f6f6f" fill-rule="evenodd" stroke="none"/>
    <path d="M-24.95 -111.95 L-24.95 -73.95 -34.95 -73.95 -34.95 -124.95 44.05 -124.95 44.05 -111.95 -24.95 -111.95" fill="#6f6f6f" fill-rule="evenodd" stroke="none"/>
    <path d="M-99.95 -50.95 L-99.95 -115.95 -87.95 -115.95 -87.95 -50.95 -99.95 -50.95" fill="#6f6f6f" fill-rule="evenodd" stroke="none"/>
    <path d="M-99.95 -16.95 L-99.95 -49.95 -88.95 -49.95 -88.95 -16.95 -99.95 -16.95" fill="#6f6f6f" fill-rule="evenodd" stroke="none"/>
    <path d="M-97.95 -14.95 L-89.95 -14.95 -89.95 -6.95 -97.95 -6.95 -97.95 -14.95" fill="#6f6f6f" fill-rule="evenodd" stroke="none"/>
    <path d="M31.05 59.05 L31.05 46.05 61.05 46.05 61.05 59.05 31.05 59.05" fill="#6f6f6f" fill-rule="evenodd" stroke="none"/>
    <path d="M-64.95 59.05 L-64.95 47.05 -33.95 47.05 -33.95 59.05 -64.95 59.05" fill="#6f6f6f" fill-rule="evenodd" stroke="none"/>
    <path d="M66.05 59.05 L66.05 46.05 96.05 46.05 96.05 59.05 66.05 59.05" fill="#6f6f6f" fill-rule="evenodd" stroke="none"/>
    <path d="M109.05 -24.95 L113.05 -14.95 Q109.05 -12.95 105.05 -11.95 L101.05 -21.95 Q105.05 -22.95 109.05 -24.95" fill="#6f6f6f" fill-rule="evenodd" stroke="none"/>
    <path d="M-27.95 -38.95 L-32.95 -38.95 -32.95 -43.95 -27.95 -43.95 -27.95 -38.95" fill="#424242" fill-rule="evenodd" stroke="none"/>
    <path d="M-2.95 62.05 L-2.95 69.05 -31.95 69.05 -31.95 62.05 -2.95 62.05" fill="#ffffff" fill-rule="evenodd" stroke="none"/>
  </g>
</svg>
