<?xml version="1.0" encoding="UTF-8" standalone="no"?>
<svg xmlns:ffdec="https://www.free-decompiler.com/flash" xmlns:xlink="http://www.w3.org/1999/xlink" ffdec:objectType="shape" height="1181.7px" width="1288.1px" xmlns="http://www.w3.org/2000/svg">
  <g transform="matrix(1.0, 0.0, 0.0, 1.0, 805.85, 990.95)">
    <path d="M459.55 -845.4 L470.0 -818.9 477.3 -791.35 481.4 -763.15 482.25 -734.65 479.75 -706.25 473.9 -677.65 459.0 -637.95 453.2 -625.35 439.4 -602.75 437.15 -594.0 437.15 -189.35 -78.0 -189.35 -77.95 -179.4 -47.75 -159.5 -11.1 -119.65 -0.3 -99.4 34.4 -53.55 39.45 -41.75 52.95 -18.65 57.85 -2.9 88.5 40.55 107.3 60.15 123.3 70.5 171.6 92.2 244.3 92.1 259.4 88.1 294.55 70.65 348.45 26.85 362.75 13.45 368.75 9.45 376.75 8.45 383.25 10.45 388.35 14.75 391.75 20.2 392.75 25.7 392.5 31.95 391.65 37.7 368.4 121.9 354.45 144.3 317.2 171.6 283.3 184.75 259.5 189.6 214.5 190.75 169.1 186.1 121.1 172.55 82.0 155.25 44.55 127.7 38.9 120.3 12.2 93.2 2.15 75.45 -23.9 43.55 -48.35 -10.35 -61.75 -31.2 -83.15 -52.9 -112.7 -71.2 -137.75 -73.1 -148.9 -76.35 -164.5 -76.35 -178.55 -80.4 -198.95 -95.15 -222.95 -121.35 -227.7 -131.45 -237.3 -163.45 -247.0 -189.35 -367.4 -189.35 -367.4 -269.45 -542.4 -269.65 -584.6 -274.1 -593.0 -275.8 -635.0 -287.7 -681.55 -311.75 -691.2 -318.15 -724.2 -346.0 -730.65 -352.3 -757.7 -385.6 -763.15 -392.8 -783.5 -431.55 -787.6 -440.85 -799.65 -482.25 -801.65 -490.85 -805.85 -534.6 -805.5 -544.8 -801.4 -587.4 -799.15 -596.9 -787.35 -637.45 -783.0 -647.15 -762.9 -685.45 -756.9 -693.35 -730.4 -725.95 -723.55 -732.6 -690.95 -760.1 -681.3 -766.5 -634.75 -790.55 -591.75 -802.7 -582.65 -804.0 -541.35 -808.35 -78.55 -808.55 -78.5 -822.6 -5.85 -822.6 -1.5 -835.0 7.45 -854.25 15.4 -870.2 31.9 -894.1 50.7 -915.55 71.9 -934.8 95.1 -951.5 120.1 -965.45 146.5 -976.5 174.05 -984.5 202.3 -989.35 230.9 -990.95 259.55 -989.35 287.8 -984.5 315.3 -976.5 341.7 -965.45 366.7 -951.5 389.95 -934.8 411.1 -915.55 429.9 -894.1 446.15 -870.6 459.55 -845.4" fill="#434343" fill-rule="evenodd" stroke="none"/>
    <path d="M368.25 30.75 L372.35 28.5 374.85 28.35 376.35 29.85 376.75 32.75 376.0 36.35 352.75 108.75 341.75 128.25 313.75 148.75 292.25 163.75 264.35 172.1 234.35 173.25 203.6 172.85 147.75 162.35 139.5 159.75 128.25 157.5 118.5 150.35 79.1 134.25 68.25 126.35 57.75 117.35 48.75 107.6 43.5 99.35 35.6 92.25 29.25 84.35 20.6 72.0 10.1 58.5 -2.25 46.85 -17.45 14.1 -17.25 16.1 -20.0 8.0 -25.3 -4.95 -27.0 -7.15 -40.15 -30.0 -47.25 -39.4 -62.25 -57.75 -68.6 -64.5 -88.1 -75.35 -99.75 -85.5 -104.6 -88.85 -121.5 -88.85 -152.6 -95.25 -168.75 -96.0 -172.1 -97.1 -186.0 -106.85 -207.35 -129.0 -211.1 -132.35 -220.85 -168.35 -224.6 -193.1 -223.5 -198.0 -223.85 -203.6 -222.05 -207.5 -140.1 -207.5 -137.6 -201.35 -133.1 -197.6 -125.6 -192.75 -123.75 -185.25 -115.85 -181.85 -107.25 -177.0 -83.6 -161.25 -54.35 -136.85 -41.25 -123.0 -36.85 -116.2 -27.4 -105.75 -22.5 -94.85 -16.9 -89.25 -9.4 -82.85 -2.65 -75.75 18.0 -45.4 31.1 -18.75 37.5 0.0 47.25 15.35 70.1 42.0 75.0 50.25 90.0 67.1 99.0 78.0 124.85 93.35 138.75 98.25 168.35 110.6 194.6 112.1 212.6 111.0 231.75 112.85 249.35 110.25 271.1 104.6 289.1 94.85 304.5 87.75 349.5 49.85 368.25 30.75" fill="#707070" fill-rule="evenodd" stroke="none"/>
    <path d="M-262.8 -505.75 L-267.65 -505.75 -267.65 -500.6 -267.8 -500.6 -267.8 -500.1 -269.45 -500.1 -269.45 -484.6 -267.8 -484.6 -267.8 -474.1 -315.8 -474.1 -315.8 -505.25 -304.3 -505.25 -304.3 -517.95 -232.3 -517.95 -232.3 -505.95 -234.3 -505.95 -234.3 -511.6 -262.8 -511.6 -262.8 -505.75" fill="#969696" fill-rule="evenodd" stroke="none"/>
    <path d="M91.0 -312.7 L91.0 -355.8 179.2 -355.8 179.2 -312.7 176.1 -312.7 176.1 -311.25 176.2 -311.25 176.2 -309.1 178.9 -309.1 178.9 -306.95 233.2 -306.95 233.2 -318.3 228.9 -318.3 228.9 -327.45 222.2 -327.45 222.2 -343.75 228.9 -343.75 228.9 -353.0 233.2 -353.0 233.2 -363.25 84.9 -363.25 84.9 -306.95 159.8 -306.95 159.8 -309.1 162.75 -309.1 162.75 -312.7 91.0 -312.7 M-33.15 -349.6 L-33.15 -321.6 -29.8 -321.6 -29.8 -332.25 28.9 -332.25 28.9 -321.6 34.55 -321.6 34.55 -349.6 28.9 -349.6 28.9 -338.6 -29.8 -338.6 -29.8 -349.6 -33.15 -349.6 M-224.8 -476.25 L-228.15 -476.25 -228.15 -469.75 -237.95 -469.75 -237.95 -466.25 -227.95 -466.25 -227.95 -407.95 -287.8 -407.95 -287.8 -404.35 -232.4 -404.35 -232.4 -385.6 -224.9 -385.6 -224.9 -355.95 -220.95 -355.95 -220.95 -385.95 -214.7 -385.95 -214.7 -405.6 -224.8 -405.6 -224.8 -476.25 M304.2 -939.85 L326.4 -930.5 347.4 -918.7 366.95 -904.6 384.7 -888.35 400.5 -870.25 414.1 -850.45 425.4 -829.2 434.15 -806.85 440.25 -783.65 443.7 -759.9 444.4 -735.9 442.3 -712.0 437.55 -688.45 430.05 -665.65 420.05 -643.8 407.6 -623.25 392.85 -604.25 376.05 -587.05 357.35 -571.85 337.1 -558.9 315.45 -548.3 292.7 -540.25 269.2 -534.8 245.25 -532.1 221.1 -532.1 197.15 -534.8 173.65 -540.25 150.95 -548.3 129.3 -558.9 109.0 -571.85 90.3 -587.05 73.5 -604.25 58.75 -623.25 46.3 -643.8 28.55 -661.25 19.65 -685.25 -45.3 -689.3 -45.3 -701.0 -52.0 -719.35 -56.3 -719.35 -56.3 -710.9 -57.75 -710.9 -57.75 -708.0 -59.15 -703.0 -93.85 -703.0 -95.25 -708.0 -95.25 -710.9 -98.0 -710.9 -98.0 -708.0 -99.4 -703.0 -134.1 -703.0 -135.5 -708.0 -135.5 -710.9 -137.25 -710.9 -137.25 -708.0 -138.65 -703.0 -173.35 -703.0 -174.75 -708.0 -174.75 -710.9 -177.5 -710.9 -177.5 -708.0 -178.9 -703.0 -213.6 -703.0 -215.0 -708.0 -215.0 -710.9 -217.25 -710.9 -217.25 -708.0 -218.65 -703.0 -253.35 -703.0 -254.75 -708.0 -254.75 -710.9 -257.25 -710.9 -257.25 -708.0 -258.65 -703.0 -293.35 -703.0 -294.75 -708.0 -294.75 -710.9 -297.5 -710.9 -297.5 -708.0 -298.9 -703.0 -333.6 -703.0 -335.0 -708.0 -335.0 -710.9 -337.25 -710.9 -337.25 -708.0 -338.65 -703.0 -373.35 -703.0 -374.75 -708.0 -374.75 -710.9 -377.25 -710.9 -377.25 -708.0 -378.65 -703.0 -413.3 -703.0 -414.75 -708.0 -414.75 -710.9 -417.5 -710.9 -417.5 -708.0 -418.9 -703.0 -453.55 -703.0 -455.0 -708.0 -455.0 -710.9 -457.25 -710.9 -457.25 -708.0 -458.65 -703.0 -493.3 -703.0 -494.75 -708.0 -494.75 -710.9 -497.0 -710.9 -497.0 -708.0 -498.4 -703.0 -533.05 -703.0 -534.5 -708.0 -534.5 -710.9 -536.55 -710.9 -537.4 -703.65 -565.9 -700.65 -568.6 -708.2 -571.25 -707.5 -571.2 -707.3 -570.8 -700.0 -598.35 -692.2 -601.45 -697.65 -602.95 -697.1 -601.15 -690.35 -626.6 -677.15 -631.05 -682.2 -632.45 -681.3 -629.35 -675.3 -651.25 -656.85 -656.6 -660.75 -657.95 -659.2 -654.0 -654.2 -672.1 -631.95 -678.9 -635.15 -679.45 -634.1 -674.15 -629.6 -687.5 -604.25 -694.45 -605.95 -695.25 -604.1 -689.15 -600.75 -697.15 -573.2 -704.45 -573.5 -704.75 -571.8 -698.1 -569.65 -700.85 -541.1 -708.15 -540.05 -708.15 -538.15 -701.1 -537.15 -698.3 -508.6 -705.0 -506.4 -704.7 -504.7 -697.4 -505.0 -689.35 -477.5 Q-692.2 -475.9 -695.1 -474.35 L-694.2 -472.4 -687.7 -474.0 -674.4 -448.65 -679.8 -444.05 -679.1 -443.1 -672.35 -446.3 -654.25 -424.05 -659.05 -418.05 -657.65 -416.95 -651.5 -421.4 -629.55 -402.95 -632.5 -397.35 -631.0 -396.35 -626.85 -401.1 -601.4 -387.85 -603.2 -381.15 -601.8 -380.45 -598.6 -386.05 -571.05 -378.25 -571.4 -371.8 -568.9 -371.1 -566.65 -377.35 -538.15 -374.35 -537.3 -367.1 -535.25 -367.1 -535.25 -370.0 -533.8 -375.0 -499.15 -375.0 -497.75 -370.0 -497.75 -367.1 -495.0 -367.1 -495.0 -370.0 -493.55 -375.0 -458.9 -375.0 -457.5 -370.0 -457.5 -367.1 -455.25 -367.1 -455.25 -370.0 -453.8 -375.0 -419.15 -375.0 -417.75 -370.0 -417.75 -367.1 -415.0 -367.1 -415.0 -370.0 -413.55 -375.0 -378.9 -375.0 -377.5 -370.0 -377.5 -367.1 -375.25 -367.1 -375.25 -370.0 -373.8 -375.0 -339.15 -375.0 -337.75 -370.0 -337.75 -367.1 -336.45 -367.1 -336.45 -357.1 -335.45 -357.1 -335.45 -345.25 -333.65 -345.25 -333.65 -357.6 -331.7 -357.6 -325.3 -374.15 -325.3 -405.1 -321.8 -405.1 -321.8 -385.6 -303.9 -385.6 -303.9 -404.35 -302.8 -404.35 -302.8 -407.95 -314.15 -407.95 -314.15 -445.25 -315.45 -445.25 -315.45 -458.45 -314.15 -458.45 -314.15 -466.25 -257.3 -466.25 -257.3 -469.75 -266.65 -469.75 -266.65 -485.6 -268.15 -485.6 -268.15 -498.45 -266.65 -498.45 -266.65 -504.65 -228.15 -504.65 -228.15 -490.6 -224.8 -490.6 -224.8 -504.95 -214.7 -504.95 -214.7 -519.1 -142.45 -519.1 -142.45 -504.95 -136.8 -504.95 -136.8 -460.6 -133.45 -460.6 -133.45 -504.95 -125.4 -504.95 -125.4 -519.1 -79.65 -519.1 -79.65 -521.85 -117.9 -521.85 -117.9 -582.6 -121.15 -582.6 -121.15 -599.25 -117.9 -599.25 -117.9 -641.1 -53.15 -641.1 -53.15 -624.6 -45.65 -624.6 -45.65 -524.35 -53.15 -524.35 -53.15 -521.85 -58.4 -521.85 -58.4 -519.1 -53.15 -519.1 -53.15 -505.35 -45.65 -505.35 -45.65 -405.1 -53.15 -405.1 -53.15 -386.6 -35.45 -386.6 -35.45 -387.95 -33.15 -387.95 -33.15 -377.6 -29.8 -377.6 -29.8 -388.25 28.9 -388.25 28.9 -377.6 34.55 -377.6 34.55 -405.25 36.55 -405.25 36.55 -393.6 53.9 -393.6 53.9 -402.8 55.55 -402.8 55.55 -403.8 60.9 -403.8 60.9 -405.45 83.2 -405.45 83.2 -403.8 95.9 -403.8 95.9 -405.45 118.2 -405.45 118.2 -403.8 124.2 -403.8 124.2 -402.8 125.55 -402.8 125.55 -393.6 143.9 -393.6 143.9 -402.8 145.55 -402.8 145.55 -403.8 150.9 -403.8 150.9 -405.45 173.2 -405.45 173.2 -403.8 185.9 -403.8 185.9 -405.45 208.2 -405.45 208.2 -403.8 214.2 -403.8 214.2 -402.8 215.55 -402.8 215.55 -393.6 233.2 -393.6 233.2 -402.65 234.9 -402.65 234.9 -403.65 240.2 -403.65 240.2 -405.3 262.55 -405.3 262.55 -403.65 275.2 -403.65 275.2 -405.3 297.55 -405.3 297.55 -403.65 303.55 -403.65 303.55 -402.65 304.9 -402.65 304.9 -393.3 322.9 -393.3 322.9 -402.65 324.55 -402.65 324.55 -403.65 329.9 -403.65 329.9 -405.3 352.2 -405.3 352.2 -403.65 364.9 -403.65 364.9 -405.3 387.2 -405.3 387.2 -403.65 393.2 -403.65 393.2 -402.65 394.55 -402.65 394.55 -393.3 402.2 -393.3 402.2 -374.65 403.9 -374.65 403.9 -350.95 402.2 -350.95 402.2 -319.0 403.9 -319.0 403.9 -295.25 402.2 -295.25 402.2 -277.95 394.55 -277.95 394.55 -268.95 393.2 -268.95 393.2 -267.25 387.2 -267.25 387.2 -265.95 364.9 -265.95 364.9 -267.25 352.2 -267.25 352.2 -265.95 329.9 -265.95 329.9 -267.25 324.55 -267.25 324.55 -268.95 322.9 -268.95 322.9 -277.95 304.9 -277.95 304.9 -268.95 303.55 -268.95 303.55 -267.25 297.55 -267.25 297.55 -265.95 275.2 -265.95 275.2 -267.25 262.55 -267.25 262.55 -265.95 240.2 -265.95 240.2 -267.25 234.9 -267.25 234.9 -268.95 233.2 -268.95 233.2 -277.25 215.4 -277.25 215.4 -268.3 214.1 -268.3 214.1 -267.3 208.1 -267.3 208.1 -265.65 185.75 -265.65 185.75 -267.3 173.1 -267.3 173.1 -265.65 150.75 -265.65 150.75 -267.3 145.4 -267.3 145.4 -268.3 143.75 -268.3 143.75 -277.25 125.9 -277.25 125.9 -268.3 124.6 -268.3 124.6 -267.3 118.6 -267.3 118.6 -265.65 96.25 -265.65 96.25 -267.3 83.6 -267.3 83.6 -265.65 61.25 -265.65 61.25 -267.3 55.9 -267.3 55.9 -268.3 54.25 -268.3 54.25 -277.25 36.55 -277.25 36.55 -266.25 34.55 -266.25 34.55 -293.6 28.9 -293.6 28.9 -282.6 -29.8 -282.6 -29.8 -293.6 -33.15 -293.6 -33.15 -282.95 -35.45 -282.95 -35.45 -285.95 -53.15 -285.95 -53.15 -272.6 -59.15 -272.6 -59.15 -268.85 -45.65 -268.85 -45.65 -222.1 -124.65 -222.1 -124.65 -230.35 -127.65 -230.35 -127.65 -211.5 -171.25 -211.5 -171.25 -211.45 -170.95 -207.45 -169.8 -204.2 -149.0 -204.25 -149.25 -199.25 -142.25 -195.5 -140.5 -194.25 -136.5 -187.25 -132.0 -185.5 -126.25 -180.75 -120.25 -172.75 -114.75 -169.75 -106.1 -164.25 -97.85 -160.5 -93.35 -157.1 -78.0 -143.25 -46.15 -116.25 -41.25 -113.25 -35.25 -106.1 -31.15 -97.1 -24.0 -85.5 -4.15 -61.85 3.75 -51.0 9.0 -42.4 13.5 -31.9 19.5 -19.9 26.6 -9.0 30.35 3.0 31.4 8.55 32.25 8.0 38.5 18.0 43.25 24.75 50.25 32.5 61.25 48.5 65.75 55.75 83.25 74.5 88.75 79.75 97.0 86.0 112.75 95.0 124.25 100.75 133.75 104.5 137.25 106.25 140.0 108.25 165.35 118.1 176.6 119.25 202.5 119.7 201.75 136.2 202.65 136.45 202.25 150.45 201.1 150.45 200.25 168.45 185.75 166.75 173.5 163.75 151.25 157.0 127.0 146.65 110.25 138.0 96.0 132.0 86.5 125.75 73.5 115.5 66.5 111.5 62.5 108.75 58.5 103.5 33.25 78.0 26.5 65.5 23.25 60.5 6.0 41.0 -1.5 30.5 -7.5 18.75 -15.0 0.35 -25.15 -21.75 -31.9 -33.4 -42.0 -48.0 -64.85 -68.6 -84.35 -83.6 -96.75 -94.5 -99.35 -95.25 -120.75 -97.5 -134.25 -99.35 -147.0 -103.1 -162.75 -103.1 -168.0 -104.6 -182.0 -114.75 -201.0 -135.5 -203.0 -139.75 -211.5 -168.0 -212.0 -171.0 -214.25 -199.5 -213.75 -204.0 -187.35 -204.15 -185.6 -207.1 -185.25 -209.25 -185.75 -211.5 -228.25 -211.5 -228.25 -269.75 -127.65 -269.75 -127.65 -245.45 -124.65 -245.45 -124.65 -268.85 -80.65 -268.85 -80.65 -272.6 -125.4 -272.6 -125.4 -286.25 -142.45 -286.25 -142.45 -272.6 -214.7 -272.6 -214.7 -286.25 -220.95 -286.25 -220.95 -314.75 -224.9 -314.75 -224.9 -285.85 -232.4 -285.85 -232.4 -272.35 -303.9 -272.35 -303.9 -285.85 -321.8 -285.85 -321.8 -272.75 -325.3 -272.75 -325.3 -295.75 -332.0 -313.1 -333.65 -313.1 -333.65 -325.45 -335.45 -325.45 -335.45 -313.6 -336.45 -313.6 -336.45 -303.25 -337.75 -303.25 -337.75 -300.7 -339.15 -295.7 -373.8 -295.7 -375.25 -300.7 -375.25 -303.25 -377.5 -303.25 -377.5 -300.7 -378.9 -295.7 -413.55 -295.7 -415.0 -300.7 -415.0 -303.25 -417.75 -303.25 -417.75 -300.7 -419.15 -295.7 -453.8 -295.7 -455.25 -300.7 -455.25 -303.25 -457.5 -303.25 -457.5 -300.7 -458.9 -295.7 -493.55 -295.7 -495.0 -300.7 -495.0 -303.25 -497.75 -303.25 -497.75 -300.7 -499.15 -295.7 -533.8 -295.7 -535.25 -300.7 -535.25 -303.25 -538.1 -303.25 -540.4 -295.85 -580.65 -300.1 -580.85 -306.15 -583.6 -307.1 -586.55 -301.25 -625.5 -312.25 -624.55 -319.2 -624.25 -320.15 -627.55 -321.55 -632.3 -315.65 -668.15 -334.35 -665.85 -340.95 -665.3 -341.85 -669.4 -344.05 -669.5 -343.95 -675.45 -339.2 -706.4 -365.25 -702.65 -371.2 -702.4 -371.5 -704.65 -373.5 -711.25 -370.0 -736.75 -401.45 -732.0 -406.55 -731.1 -407.2 -732.85 -409.6 -733.65 -409.05 -740.9 -406.9 -759.75 -442.75 -754.05 -446.85 -753.1 -447.25 -754.6 -450.8 -755.3 -450.5 -762.85 -449.85 -774.2 -488.7 -767.8 -491.6 -767.1 -491.7 -767.75 -494.45 -768.15 -494.35 -775.7 -495.1 -779.55 -535.4 -772.75 -537.05 -772.65 -537.05 -772.65 -541.2 -779.3 -542.85 -775.45 -583.1 -767.95 -583.85 -767.3 -586.6 -767.55 -586.65 -773.95 -589.55 -762.6 -628.4 -755.05 -627.75 -754.8 -627.65 -753.45 -631.25 -753.8 -631.4 -759.5 -635.5 -740.65 -671.35 -733.4 -669.2 -731.65 -671.6 -731.75 -671.65 -736.55 -676.8 -711.0 -708.2 -704.8 -704.95 -702.5 -707.2 -706.15 -712.95 -675.2 -739.05 -669.35 -734.35 -665.15 -736.6 -665.6 -737.25 -667.95 -743.9 -632.05 -762.6 -627.55 -757.0 -624.1 -758.4 -624.3 -759.05 -625.25 -765.95 -586.3 -777.0 -583.1 -770.65 -580.1 -771.05 -579.9 -777.9 -539.65 -782.15 -537.35 -774.75 -534.5 -774.75 -534.5 -777.3 -533.05 -782.3 -498.4 -782.3 -497.0 -777.3 -497.0 -774.75 -494.75 -774.75 -494.75 -777.3 -493.3 -782.3 -458.65 -782.3 -457.25 -777.3 -457.25 -774.75 -455.0 -774.75 -455.0 -777.3 -453.55 -782.3 -418.9 -782.3 -417.5 -777.3 -417.5 -774.75 -414.75 -774.75 -414.75 -777.3 -413.3 -782.3 -378.65 -782.3 -377.25 -777.3 -377.25 -774.75 -374.75 -774.75 -374.75 -777.3 -373.35 -782.3 -338.65 -782.3 -337.25 -777.3 -337.25 -774.75 -335.0 -774.75 -335.0 -777.3 -333.6 -782.3 -298.9 -782.3 -297.5 -777.3 -297.5 -774.75 -294.75 -774.75 -294.75 -777.3 -293.35 -782.3 -258.65 -782.3 -257.25 -777.3 -257.25 -774.75 -254.75 -774.75 -254.75 -777.3 -253.35 -782.3 -218.65 -782.3 -217.25 -777.3 -217.25 -774.75 -215.0 -774.75 -215.0 -777.3 -213.6 -782.3 -178.9 -782.3 -177.5 -777.3 -177.5 -774.75 -174.75 -774.75 -174.75 -777.3 -173.35 -782.3 -138.65 -782.3 -137.25 -777.3 -137.25 -774.75 -135.5 -774.75 -135.5 -777.3 -134.1 -782.3 -99.4 -782.3 -98.0 -777.3 -98.0 -774.75 -95.25 -774.75 -95.25 -777.3 -93.85 -782.3 -59.15 -782.3 -57.75 -777.3 -57.75 -774.75 -56.3 -774.75 -56.3 -763.85 -51.7 -763.85 -45.3 -779.4 -45.3 -795.35 19.6 -799.8 26.55 -819.6 36.0 -816.5 41.0 -829.2 52.25 -850.45 65.85 -870.25 81.65 -888.35 99.45 -904.6 118.95 -918.7 139.95 -930.5 162.15 -939.85 185.3 -946.6 209.1 -950.7 233.2 -952.05 257.25 -950.7 281.05 -946.6 304.2 -939.85" fill="#969696" fill-rule="evenodd" stroke="none"/>
    <path d="M251.8 144.55 L251.9 142.15 266.3 142.4 266.1 145.6 264.1 145.45 264.15 144.35 253.8 144.2 253.65 146.55 240.75 146.6 240.75 146.55 239.5 146.55 239.5 142.9 241.8 142.9 241.8 144.6 251.8 144.55" fill="#707070" fill-rule="evenodd" stroke="none"/>
    <path d="M232.8 164.9 L232.8 162.15 235.55 162.15 235.55 164.9 232.8 164.9" fill="#707070" fill-rule="evenodd" stroke="none"/>
    <path d="M235.15 121.05 L235.15 118.3 237.9 118.3 237.9 121.05 235.15 121.05" fill="#707070" fill-rule="evenodd" stroke="none"/>
    <path d="M200.5 123.1 L200.5 120.35 203.25 120.35 203.25 123.1 200.5 123.1" fill="#707070" fill-rule="evenodd" stroke="none"/>
    <path d="M198.35 166.75 L198.35 164.0 201.1 164.0 201.1 166.75 198.35 166.75" fill="#707070" fill-rule="evenodd" stroke="none"/>
    <path d="M176.05 163.9 L176.7 161.25 179.4 161.85 178.75 164.55 176.05 163.9" fill="#707070" fill-rule="evenodd" stroke="none"/>
    <path d="M157.05 157.6 L157.7 154.9 160.4 155.55 159.75 158.2 157.05 157.6" fill="#707070" fill-rule="evenodd" stroke="none"/>
    <path d="M185.85 121.0 L186.45 118.3 189.1 118.9 188.5 121.55 185.85 121.0" fill="#707070" fill-rule="evenodd" stroke="none"/>
    <path d="M152.9 153.35 L153.85 150.8 156.4 151.7 155.5 154.3 152.9 153.35" fill="#707070" fill-rule="evenodd" stroke="none"/>
    <path d="M162.3 122.7 L163.25 120.1 165.85 121.05 164.9 123.65 162.3 122.7" fill="#707070" fill-rule="evenodd" stroke="none"/>
    <path d="M154.15 116.65 L153.5 119.3 150.8 118.6 151.5 115.95 154.15 116.65" fill="#707070" fill-rule="evenodd" stroke="none"/>
    <path d="M140.15 111.65 L142.7 112.65 141.7 115.2 139.15 114.2 140.15 111.65" fill="#707070" fill-rule="evenodd" stroke="none"/>
    <path d="M85.9 122.85 L87.5 120.65 89.75 122.25 88.1 124.5 85.9 122.85" fill="#707070" fill-rule="evenodd" stroke="none"/>
    <path d="M76.0 116.0 L77.4 113.6 79.75 115.0 78.35 117.4 76.0 116.0" fill="#707070" fill-rule="evenodd" stroke="none"/>
    <path d="M65.75 108.7 L67.35 106.5 69.6 108.05 68.0 110.3 65.75 108.7" fill="#707070" fill-rule="evenodd" stroke="none"/>
    <path d="M87.75 82.25 L86.15 84.5 83.9 82.9 85.5 80.65 87.75 82.25" fill="#707070" fill-rule="evenodd" stroke="none"/>
    <path d="M28.55 67.45 L30.9 66.05 32.3 68.4 29.95 69.8 28.55 67.45" fill="#707070" fill-rule="evenodd" stroke="none"/>
    <path d="M55.85 51.5 L58.2 50.1 59.6 52.45 57.25 53.85 55.85 51.5" fill="#707070" fill-rule="evenodd" stroke="none"/>
    <path d="M51.15 43.25 L49.7 40.9 52.05 39.45 53.5 41.8 51.15 43.25" fill="#707070" fill-rule="evenodd" stroke="none"/>
    <path d="M46.05 28.95 L47.5 31.3 45.15 32.75 43.7 30.4 46.05 28.95" fill="#707070" fill-rule="evenodd" stroke="none"/>
    <path d="M-10.05 -59.7 L-11.45 -62.1 -9.1 -63.5 -7.7 -61.15 -10.05 -59.7" fill="#707070" fill-rule="evenodd" stroke="none"/>
    <path d="M-68.1 -72.3 L-66.5 -74.55 -64.25 -72.9 -65.9 -70.7 -68.1 -72.3" fill="#707070" fill-rule="evenodd" stroke="none"/>
    <path d="M-35.85 -106.4 L-37.45 -104.2 -39.7 -105.8 -38.1 -108.05 -35.85 -106.4" fill="#707070" fill-rule="evenodd" stroke="none"/>
    <path d="M-54.45 -118.65 L-52.9 -120.95 -50.6 -119.4 -52.15 -117.1 -54.45 -118.65" fill="#707070" fill-rule="evenodd" stroke="none"/>
    <path d="M-116.2 -111.15 L-114.9 -113.55 -112.5 -112.25 -113.8 -109.85 -116.2 -111.15" fill="#707070" fill-rule="evenodd" stroke="none"/>
    <path d="M-97.55 -143.9 L-96.25 -146.3 -93.85 -145.0 -95.15 -142.6 -97.55 -143.9" fill="#707070" fill-rule="evenodd" stroke="none"/>
    <path d="M-138.25 -119.45 L-137.1 -121.95 -134.6 -120.85 -135.75 -118.35 -138.25 -119.45" fill="#707070" fill-rule="evenodd" stroke="none"/>
    <path d="M-122.25 -153.8 L-121.1 -156.3 -118.6 -155.15 -119.75 -152.65 -122.25 -153.8" fill="#707070" fill-rule="evenodd" stroke="none"/>
    <path d="M-112.7 -167.9 L-113.85 -165.4 -116.35 -166.55 -115.2 -169.05 -112.7 -167.9" fill="#707070" fill-rule="evenodd" stroke="none"/>
    <path d="M-131.4 -174.05 L-129.75 -176.25 -127.55 -174.55 -129.25 -172.4 -131.4 -174.05" fill="#707070" fill-rule="evenodd" stroke="none"/>
    <path d="M-140.35 -165.95 L-138.15 -164.3 -139.85 -162.1 -142.0 -163.75 -140.35 -165.95" fill="#707070" fill-rule="evenodd" stroke="none"/>
    <path d="M-164.75 -133.65 L-163.1 -135.85 -160.9 -134.15 -162.6 -131.95 -164.75 -133.65" fill="#707070" fill-rule="evenodd" stroke="none"/>
    <path d="M-173.25 -122.6 L-171.6 -124.75 -169.4 -123.1 -171.1 -120.9 -173.25 -122.6" fill="#707070" fill-rule="evenodd" stroke="none"/>
    <path d="M-142.85 -108.75 L-144.0 -106.25 -146.5 -107.4 -145.35 -109.9 -142.85 -108.75" fill="#707070" fill-rule="evenodd" stroke="none"/>
    <path d="M-125.55 -99.65 L-124.25 -102.05 -121.8 -100.75 -123.1 -98.35 -125.55 -99.65" fill="#707070" fill-rule="evenodd" stroke="none"/>
    <path d="M171.3 119.4 L171.55 119.65 171.6 120.0 171.45 120.3 171.15 120.5 170.8 120.5 170.5 120.3 170.35 120.0 170.4 119.65 170.65 119.4 171.0 119.3 171.3 119.4" fill="#707070" fill-rule="evenodd" stroke="none"/>
    <path d="M131.45 141.2 L131.75 140.4 145.7 145.8 145.0 147.65 144.9 147.65 144.75 148.85 142.05 148.5 142.25 146.6 133.45 143.2 132.75 144.8 130.25 143.65 131.4 141.15 131.45 141.2" fill="#707070" fill-rule="evenodd" stroke="none"/>
    <path d="M125.4 105.45 L124.05 107.3 111.6 101.55 112.9 98.45 114.75 99.2 114.2 100.55 123.4 104.8 124.75 103.0 137.4 108.75 135.95 111.75 134.15 110.9 134.7 109.7 125.4 105.45" fill="#707070" fill-rule="evenodd" stroke="none"/>
    <path d="M110.55 132.65 L111.45 130.35 124.15 136.5 122.9 139.25 121.05 138.45 121.55 137.45 112.5 133.1 111.6 135.3 98.05 129.05 99.85 125.95 101.6 127.0 100.9 128.15 110.55 132.65" fill="#707070" fill-rule="evenodd" stroke="none"/>
    <path d="M97.1 89.15 L96.65 90.1 105.7 95.5 106.55 94.4 108.15 95.55 106.25 98.2 94.05 90.85 95.35 88.3 97.1 89.15" fill="#707070" fill-rule="evenodd" stroke="none"/>
    <path d="M66.15 59.7 L65.4 60.25 71.95 68.2 73.65 66.95 82.7 78.2 80.55 80.0 79.25 78.45 79.9 77.9 73.3 69.7 71.65 70.95 62.55 59.9 64.95 58.1 66.15 59.7" fill="#707070" fill-rule="evenodd" stroke="none"/>
    <path d="M48.4 87.95 L50.15 86.7 59.4 97.7 57.05 99.65 55.75 98.15 56.55 97.45 49.8 89.4 48.05 90.65 39.1 79.8 41.35 77.65 42.75 79.1 41.85 80.0 48.4 87.95" fill="#707070" fill-rule="evenodd" stroke="none"/>
    <path d="M-2.85 14.65 L0.05 13.2 0.9 15.0 -0.2 15.55 4.2 24.9 6.35 23.9 12.4 36.7 10.85 37.7 16.55 46.2 18.55 45.2 26.65 57.05 23.7 58.7 22.75 57.0 23.8 56.4 17.9 47.75 15.9 48.75 8.1 37.1 9.8 36.0 5.35 26.55 3.25 27.55 -2.85 14.65" fill="#707070" fill-rule="evenodd" stroke="none"/>
    <path d="M29.6 11.0 L31.55 10.15 38.85 22.6 35.55 24.35 34.65 22.6 36.1 21.85 30.75 12.7 28.85 13.55 21.5 1.55 24.05 -0.1 25.15 1.55 24.2 2.15 29.6 11.0" fill="#707070" fill-rule="evenodd" stroke="none"/>
    <path d="M6.85 -30.3 L9.75 -31.55 10.55 -29.7 9.45 -29.25 13.6 -19.55 15.65 -20.4 21.6 -7.25 18.55 -6.25 17.9 -8.15 18.85 -8.45 14.6 -17.8 12.5 -17.0 6.85 -30.3" fill="#707070" fill-rule="evenodd" stroke="none"/>
    <path d="M-20.25 -17.6 L-17.6 -18.85 -16.75 -17.05 -17.6 -16.65 -13.3 -7.5 -11.6 -8.4 -5.4 4.35 -8.0 6.0 -9.05 4.3 -8.0 3.6 -12.45 -5.65 -14.25 -4.75 -20.25 -17.6" fill="#707070" fill-rule="evenodd" stroke="none"/>
    <path d="M1.4 -40.75 L2.3 -41.25 -3.05 -50.0 -3.55 -49.6 -4.85 -51.15 -2.5 -53.05 5.15 -40.5 2.35 -39.0 1.4 -40.75" fill="#707070" fill-rule="evenodd" stroke="none"/>
    <path d="M-23.25 -26.45 L-25.9 -25.05 -26.8 -26.85 -26.0 -27.25 -30.9 -36.1 -33.0 -35.0 -40.05 -47.55 -37.2 -49.2 -36.2 -47.5 -37.35 -46.8 -32.2 -37.7 -30.15 -38.8 -23.25 -26.45" fill="#707070" fill-rule="evenodd" stroke="none"/>
    <path d="M-48.95 -61.35 L-50.5 -59.55 -60.5 -70.1 -57.9 -72.2 -56.65 -70.65 -57.55 -69.95 -50.55 -62.5 -49.1 -64.2 -38.2 -54.2 -41.0 -51.6 -42.35 -53.1 -41.15 -54.2 -48.95 -61.35" fill="#707070" fill-rule="evenodd" stroke="none"/>
    <path d="M-27.2 -79.25 L-25.3 -80.65 -15.7 -69.6 -18.7 -67.45 -19.85 -69.1 -18.65 -69.95 -25.6 -77.9 -27.55 -76.5 -36.35 -87.25 -34.1 -89.65 -32.65 -88.25 -33.7 -87.15 -27.2 -79.25" fill="#707070" fill-rule="evenodd" stroke="none"/>
    <path d="M-66.3 -129.75 L-66.25 -129.4 -66.4 -129.1 -66.7 -128.9 -67.05 -128.9 -67.3 -129.1 -67.45 -129.4 -67.4 -129.75 -67.2 -130.0 -66.85 -130.1 -66.55 -130.0 -66.3 -129.75" fill="#707070" fill-rule="evenodd" stroke="none"/>
    <path d="M-94.7 -96.45 L-94.45 -96.15 -94.4 -95.85 -94.55 -95.5 -94.85 -95.35 -95.2 -95.35 -95.5 -95.5 -95.65 -95.85 -95.6 -96.15 -95.35 -96.45 -95.0 -96.55 -94.7 -96.45" fill="#707070" fill-rule="evenodd" stroke="none"/>
    <path d="M18.9 -778.1 L21.85 -778.6 23.6 -779.3 26.65 -780.9 28.9 -782.5 29.9 -783.95 37.3 -778.6 34.6 -775.5 31.3 -773.2 27.25 -771.05 24.35 -769.9 19.65 -769.1 -6.85 -769.1 -11.55 -769.9 -18.5 -773.2 -21.8 -775.5 -24.7 -778.5 -17.45 -783.95 -16.1 -782.5 -13.8 -780.9 -10.8 -779.3 -9.05 -778.6 -6.1 -778.1 18.9 -778.1" fill="#707070" fill-rule="evenodd" stroke="none"/>
    <path d="M-164.55 -412.85 L-159.4 -413.45 -156.8 -413.45 -156.8 -404.95 -161.0 -404.85 -164.2 -404.1 -167.15 -402.65 -169.7 -400.55 -171.7 -397.95 -172.45 -396.5 -173.5 -393.4 -173.7 -391.75 -173.5 -376.9 -173.05 -375.3 -171.7 -372.3 -169.7 -369.7 -168.5 -368.6 -167.15 -367.65 -164.2 -366.2 -161.0 -365.45 -103.3 -365.45 -100.1 -366.2 -97.15 -367.65 -95.85 -368.6 -93.55 -370.95 -91.85 -373.75 -91.25 -375.3 -90.6 -378.5 -90.6 -391.75 -91.25 -395.0 -91.85 -396.5 -93.55 -399.3 -94.65 -400.55 -97.15 -402.65 -100.1 -404.1 -103.3 -404.85 -145.15 -404.95 -145.15 -413.45 -102.35 -413.3 -97.25 -412.1 -92.55 -409.8 -88.5 -406.5 -86.8 -404.5 -84.1 -400.05 -82.5 -395.1 -82.05 -390.0 -82.15 -377.75 -83.15 -372.65 -84.1 -370.2 -86.8 -365.75 -88.5 -363.8 -92.55 -360.45 -97.25 -358.15 -102.35 -357.0 -159.65 -356.85 -162.0 -357.0 -167.1 -358.15 -169.5 -359.2 -173.9 -362.0 -177.5 -365.75 -179.0 -367.9 -181.15 -372.65 -182.2 -377.75 -182.2 -392.5 -181.15 -397.6 -179.0 -402.35 -177.5 -404.5 -173.9 -408.25 -169.5 -411.1 -164.55 -412.85" fill="#707070" fill-rule="evenodd" stroke="none"/>
    <path d="M-151.9 -514.1 L-151.9 -508.1 -205.5 -508.1 -205.5 -514.1 -151.9 -514.1" fill="#707070" fill-rule="evenodd" stroke="none"/>
    <path d="M-99.45 -561.25 L-84.8 -561.25 -84.8 -541.1 -99.45 -541.1 -99.45 -561.25" fill="#707070" fill-rule="evenodd" stroke="none"/>
    <path d="M-86.8 -522.1 L-98.3 -522.1 -98.3 -531.6 -86.8 -531.6 -86.8 -522.1" fill="#707070" fill-rule="evenodd" stroke="none"/>
    <path d="M-107.65 -561.1 L-107.65 -539.45 -117.45 -539.45 -117.45 -561.1 -107.65 -561.1" fill="#707070" fill-rule="evenodd" stroke="none"/>
    <path d="M-102.3 -631.1 L-102.3 -640.95 -80.65 -640.95 -80.65 -631.1 -102.3 -631.1" fill="#707070" fill-rule="evenodd" stroke="none"/>
    <path d="M-84.3 -625.25 L-84.3 -615.45 -98.45 -615.45 -98.45 -625.25 -84.3 -625.25" fill="#707070" fill-rule="evenodd" stroke="none"/>
    <path d="M-117.65 -614.45 L-117.65 -625.95 -107.65 -625.95 -107.65 -614.45 -117.65 -614.45" fill="#707070" fill-rule="evenodd" stroke="none"/>
    <path d="M-52.45 -618.95 L-52.45 -606.95 -62.3 -606.95 -62.3 -618.95 -52.45 -618.95" fill="#707070" fill-rule="evenodd" stroke="none"/>
    <path d="M-62.4 -636.2 L-55.15 -626.6 -63.0 -620.7 -70.25 -630.25 -62.4 -636.2" fill="#707070" fill-rule="evenodd" stroke="none"/>
    <path d="M-261.45 -510.45 L-235.4 -510.45 -235.4 -504.65 -261.45 -504.65 -261.45 -510.45" fill="#707070" fill-rule="evenodd" stroke="none"/>
    <path d="M-314.15 -462.0 L-314.15 -472.1 -267.15 -472.1 -267.15 -462.0 -314.15 -462.0" fill="#707070" fill-rule="evenodd" stroke="none"/>
    <path d="M-284.5 -429.95 L-284.5 -448.35 -257.9 -448.35 -257.9 -429.95 -284.5 -429.95" fill="#707070" fill-rule="evenodd" stroke="none"/>
    <path d="M-314.15 -419.7 L-314.15 -443.6 -308.15 -443.6 -308.15 -419.7 -314.15 -419.7" fill="#707070" fill-rule="evenodd" stroke="none"/>
    <path d="M-281.25 -407.95 L-281.25 -416.1 -236.8 -416.1 -236.8 -460.95 -227.95 -460.95 -227.95 -407.95 -281.25 -407.95" fill="#707070" fill-rule="evenodd" stroke="none"/>
    <path d="M-108.95 -537.7 L-107.95 -536.55 -107.35 -535.1 -107.3 -533.6 -107.8 -532.15 -108.7 -530.95 -110.0 -530.15 -111.45 -529.85 -112.9 -530.05 -114.25 -530.8 -115.25 -531.95 -115.8 -533.4 -115.85 -534.95 -115.4 -536.4 -114.45 -537.6 -113.2 -538.4 -111.7 -538.7 -110.25 -538.45 -108.95 -537.7" fill="#707070" fill-rule="evenodd" stroke="none"/>
    <path d="M-109.15 -473.95 L-110.5 -474.7 -111.5 -475.85 -112.05 -477.3 -112.1 -478.8 -111.65 -480.25 -110.7 -481.45 -109.45 -482.25 -107.95 -482.55 -106.5 -482.35 -105.2 -481.6 -104.2 -480.45 -103.6 -479.0 -103.55 -477.45 -104.05 -476.0 -104.95 -474.8 -106.25 -474.0 -107.7 -473.7 -109.15 -473.95" fill="#707070" fill-rule="evenodd" stroke="none"/>
    <path d="M-107.05 -566.95 L-107.0 -565.4 -107.45 -563.95 -108.4 -562.75 -109.65 -561.95 -111.1 -561.65 -112.6 -561.9 -113.9 -562.65 -114.9 -563.8 -115.45 -565.25 -115.5 -566.75 -115.05 -568.25 -114.1 -569.45 -112.85 -570.2 -111.4 -570.5 -109.9 -570.3 -108.6 -569.55 -107.6 -568.4 -107.05 -566.95" fill="#707070" fill-rule="evenodd" stroke="none"/>
    <path d="M-78.75 -632.15 L-79.3 -633.55 -79.35 -635.1 -78.9 -636.55 -77.95 -637.75 -76.7 -638.55 -75.2 -638.85 -73.75 -638.6 -72.45 -637.9 -71.45 -636.7 -70.85 -635.3 -70.8 -633.75 -71.3 -632.3 -72.2 -631.1 -73.5 -630.3 -74.95 -630.0 -76.4 -630.25 -77.75 -631.0 -78.75 -632.15" fill="#707070" fill-rule="evenodd" stroke="none"/>
    <path d="M-111.05 -632.3 L-111.65 -633.75 -111.7 -635.25 -111.2 -636.75 -110.3 -637.95 -109.0 -638.7 -107.55 -639.0 -106.1 -638.8 -104.75 -638.05 -103.75 -636.9 -103.2 -635.45 -103.15 -633.9 -103.6 -632.45 -104.55 -631.25 -105.8 -630.45 -107.3 -630.15 -108.75 -630.4 -110.05 -631.15 -111.05 -632.3" fill="#707070" fill-rule="evenodd" stroke="none"/>
    <path d="M324.4 -926.3 L302.7 -935.45 280.05 -942.05 256.8 -946.05 233.2 -947.4 209.65 -946.05 186.4 -942.05 163.75 -935.45 142.05 -926.3 121.5 -914.75 102.4 -901.0 85.0 -885.1 69.55 -867.4 56.25 -848.0 45.25 -827.25 40.35 -814.75 26.4 -820.2 31.6 -833.5 43.4 -855.8 57.7 -876.6 74.25 -895.6 92.9 -912.65 113.4 -927.45 135.45 -939.8 158.75 -949.6 183.0 -956.7 207.95 -961.0 233.2 -962.45 258.5 -961.0 283.4 -956.7 307.7 -949.6 331.0 -939.8 353.05 -927.45 373.55 -912.65 392.2 -895.6 408.75 -876.6 423.05 -855.8 434.85 -833.5 444.05 -810.05 450.5 -785.7 454.1 -760.75 454.8 -735.6 452.65 -710.5 447.6 -685.85 439.8 -661.9 429.25 -638.95 416.2 -617.4 400.75 -597.45 383.1 -579.4 363.5 -563.45 342.2 -549.85 319.5 -538.75 295.65 -530.3 271.0 -524.6 245.9 -521.75 220.55 -521.75 195.45 -524.6 170.8 -530.3 146.95 -538.75 124.25 -549.85 102.95 -563.45 83.35 -579.4 65.7 -597.45 50.25 -617.4 37.15 -639.0 26.9 -662.3 40.6 -668.35 50.5 -645.95 62.65 -625.9 77.05 -607.35 93.5 -590.5 111.75 -575.65 131.6 -562.95 152.75 -552.6 175.0 -544.7 198.0 -539.4 221.4 -536.75 245.0 -536.75 268.45 -539.4 291.45 -544.7 313.7 -552.6 334.85 -562.95 354.7 -575.65 372.95 -590.5 389.4 -607.35 403.8 -625.9 416.0 -646.0 425.8 -667.35 433.1 -689.65 437.75 -712.65 439.8 -736.05 439.1 -759.5 435.75 -782.7 429.75 -805.4 421.2 -827.25 410.2 -848.0 396.9 -867.4 381.45 -885.1 364.05 -901.0 344.95 -914.75 324.4 -926.3" fill="#707070" fill-rule="evenodd" stroke="none"/>
    <path d="M225.25 -755.0 L229.5 -756.9 234.15 -757.45 238.7 -756.5 242.75 -754.2 245.9 -750.75 247.8 -746.5 248.35 -741.85 247.4 -737.3 245.1 -733.25 241.65 -730.1 237.4 -728.2 232.75 -727.65 228.2 -728.6 224.15 -730.9 221.0 -734.35 219.1 -738.6 218.55 -743.25 219.5 -747.8 221.8 -751.85 225.25 -755.0" fill="#707070" fill-rule="evenodd" stroke="none"/>
    <path d="M186.95 -823.15 L197.2 -828.2 203.8 -814.75 194.8 -810.3 185.4 -803.3 178.7 -797.3 171.8 -789.6 165.1 -779.6 161.7 -772.05 148.05 -778.15 151.9 -786.85 159.95 -798.85 168.05 -807.9 175.85 -814.9 186.95 -823.15" fill="#707070" fill-rule="evenodd" stroke="none"/>
    <path d="M148.15 -706.9 L161.6 -713.55 166.05 -704.5 173.05 -695.1 179.05 -688.4 186.75 -681.55 196.75 -674.8 204.3 -671.45 198.2 -657.75 189.5 -661.65 177.5 -669.65 168.45 -677.8 161.45 -685.6 153.2 -696.65 148.15 -706.9" fill="#707070" fill-rule="evenodd" stroke="none"/>
    <path d="M301.85 -705.75 L305.2 -713.3 318.9 -707.15 315.0 -698.45 307.0 -686.5 298.9 -677.4 291.05 -670.4 280.0 -662.15 269.75 -657.1 263.1 -670.55 272.15 -675.0 281.55 -682.05 288.25 -688.05 295.15 -695.7 301.85 -705.75" fill="#707070" fill-rule="evenodd" stroke="none"/>
    <path d="M314.1 -789.0 L319.15 -778.8 305.7 -772.15 301.25 -781.15 294.25 -790.6 288.25 -797.3 280.55 -804.15 270.55 -810.9 263.0 -814.25 269.1 -827.95 277.85 -824.05 289.8 -816.05 298.85 -807.9 305.9 -800.1 314.1 -789.0" fill="#707070" fill-rule="evenodd" stroke="none"/>
    <path d="M-116.0 -473.7 L-126.9 -473.7 -126.9 -483.35 -116.0 -483.35 -116.0 -473.7" fill="#707070" fill-rule="evenodd" stroke="none"/>
    <path d="M-88.85 -473.9 L-99.7 -473.9 -99.7 -483.5 -88.85 -483.5 -88.85 -473.9" fill="#707070" fill-rule="evenodd" stroke="none"/>
    <path d="M-131.4 -484.2 L-131.4 -485.6 -86.0 -485.6 -86.0 -484.2 -131.4 -484.2" fill="#707070" fill-rule="evenodd" stroke="none"/>
    <path d="M-86.3 -313.55 L-84.9 -313.55 -84.9 -299.1 -117.9 -299.1 -117.9 -313.55 -116.5 -313.55 -116.5 -300.35 -86.3 -300.35 -86.3 -313.55" fill="#707070" fill-rule="evenodd" stroke="none"/>
    <path d="M-113.15 -310.8 L-102.65 -310.8 -102.65 -301.35 -113.15 -301.35 -113.15 -310.8" fill="#707070" fill-rule="evenodd" stroke="none"/>
    <path d="M-99.5 -310.8 L-89.0 -310.8 -89.0 -301.35 -99.5 -301.35 -99.5 -310.8" fill="#707070" fill-rule="evenodd" stroke="none"/>
    <path d="M-199.4 -313.55 L-198.0 -313.55 -198.0 -300.35 -167.8 -300.35 -167.8 -313.55 -166.4 -313.55 -166.4 -299.1 -199.4 -299.1 -199.4 -313.55" fill="#707070" fill-rule="evenodd" stroke="none"/>
    <path d="M-194.65 -301.35 L-194.65 -310.8 -184.15 -310.8 -184.15 -301.35 -194.65 -301.35" fill="#707070" fill-rule="evenodd" stroke="none"/>
    <path d="M-181.0 -310.8 L-170.5 -310.8 -170.5 -301.35 -181.0 -301.35 -181.0 -310.8" fill="#707070" fill-rule="evenodd" stroke="none"/>
    <path d="M306.4 -326.7 L306.4 -345.35 321.15 -345.35 321.15 -326.7 306.4 -326.7" fill="#707070" fill-rule="evenodd" stroke="none"/>
    <path d="M303.15 -315.2 L313.15 -315.2 313.15 -306.2 303.15 -306.2 303.15 -315.2" fill="#707070" fill-rule="evenodd" stroke="none"/>
    <path d="M314.0 -315.2 L324.0 -315.2 324.0 -306.2 314.0 -306.2 314.0 -315.2" fill="#707070" fill-rule="evenodd" stroke="none"/>
    <path d="M337.7 -324.95 L344.2 -318.75 337.3 -311.5 330.8 -317.7 337.7 -324.95" fill="#707070" fill-rule="evenodd" stroke="none"/>
    <path d="M303.15 -356.8 L303.15 -365.8 313.15 -365.8 313.15 -356.8 303.15 -356.8" fill="#707070" fill-rule="evenodd" stroke="none"/>
    <path d="M314.0 -356.8 L314.0 -365.8 324.0 -365.8 324.0 -356.8 314.0 -356.8" fill="#707070" fill-rule="evenodd" stroke="none"/>
    <path d="M344.2 -352.8 L337.7 -346.6 330.8 -353.85 337.3 -360.05 344.2 -352.8" fill="#707070" fill-rule="evenodd" stroke="none"/>
    <path d="M193.65 -872.1 L195.05 -867.6 224.4 -867.6 224.4 -862.6 196.65 -862.6 198.05 -858.25 186.8 -854.35 176.7 -849.2 174.6 -853.25 122.55 -801.2 126.4 -799.25 121.2 -788.95 117.55 -777.6 103.7 -782.25 105.15 -785.85 84.05 -793.75 83.9 -757.6 73.9 -757.6 73.9 -796.25 4.55 -820.45 13.7 -840.1 109.75 -797.35 113.2 -805.95 117.85 -803.6 172.15 -857.9 169.9 -862.25 179.65 -866.3 168.0 -893.1 172.6 -895.1 184.3 -868.25 193.65 -872.1" fill="#434343" fill-rule="evenodd" stroke="none"/>
    <path d="M73.9 -726.6 L83.9 -726.6 83.9 -691.35 105.1 -698.6 103.65 -702.1 117.15 -706.85 121.2 -695.75 126.65 -685.6 122.35 -683.3 174.4 -631.1 176.9 -635.45 187.4 -629.95 198.2 -626.25 196.95 -622.25 223.7 -622.25 223.7 -617.25 195.4 -617.25 193.9 -612.45 183.75 -616.65 172.55 -589.2 167.9 -591.1 179.1 -618.6 169.55 -622.6 171.85 -626.6 117.75 -680.85 113.65 -678.6 109.8 -687.55 11.15 -644.35 17.65 -669.35 73.9 -688.35 73.9 -726.6" fill="#434343" fill-rule="evenodd" stroke="none"/>
    <path d="M309.25 -931.55 L308.3 -931.95 314.85 -954.0 325.5 -949.6 314.35 -930.75 287.05 -866.35 297.25 -861.85 294.95 -857.55 348.8 -803.95 352.9 -806.1 356.85 -796.4 384.6 -807.9 386.5 -803.25 358.7 -791.8 362.9 -781.6 358.15 -780.3 358.15 -751.1 353.15 -751.1 353.15 -778.9 349.4 -777.85 345.65 -788.6 340.15 -799.35 344.2 -801.5 292.5 -852.95 290.65 -849.45 280.0 -854.7 268.9 -858.6 270.05 -862.6 242.9 -862.6 242.9 -867.6 271.55 -867.6 273.0 -872.6 282.5 -868.4 309.25 -931.55" fill="#434343" fill-rule="evenodd" stroke="none"/>
    <path d="M-142.7 -385.7 L-142.7 -404.1 -125.2 -404.1 -125.2 -385.7 -142.7 -385.7" fill="#434343" fill-rule="evenodd" stroke="none"/>
    <path d="M348.9 -706.95 L353.15 -705.65 353.15 -733.1 358.15 -733.1 358.15 -704.15 362.7 -702.75 358.5 -692.55 386.15 -681.6 384.3 -676.95 356.6 -687.95 352.7 -678.45 348.55 -680.7 294.75 -626.75 297.05 -622.6 287.5 -618.85 313.65 -555.45 314.3 -555.7 325.25 -535.5 322.35 -534.3 329.7 -516.55 325.05 -514.65 317.75 -532.4 314.65 -531.1 308.85 -553.6 309.0 -553.65 282.85 -617.05 272.7 -613.1 271.5 -617.25 242.9 -617.25 242.9 -622.25 270.05 -622.25 268.7 -626.75 279.7 -629.75 289.9 -635.6 292.25 -631.35 344.0 -683.25 339.7 -685.6 345.55 -696.45 348.9 -706.95" fill="#434343" fill-rule="evenodd" stroke="none"/>
    <path d="M163.4 -580.0 L168.0 -578.1 157.95 -553.45 158.45 -553.25 151.9 -531.2 149.3 -532.25 146.95 -526.4 142.3 -528.3 144.7 -534.15 141.25 -535.6 153.05 -555.6 153.4 -555.45 163.4 -580.0" fill="#434343" fill-rule="evenodd" stroke="none"/>
    <path d="M167.4 -907.6 L162.85 -905.6 144.6 -948.1 149.15 -950.1 167.4 -907.6" fill="#434343" fill-rule="evenodd" stroke="none"/>
    <path d="M227.75 -969.1 L239.25 -969.1 236.0 -946.1 230.15 -946.2 227.75 -969.1" fill="#434343" fill-rule="evenodd" stroke="none"/>
    <path d="M257.35 -967.9 L268.75 -966.4 262.55 -944.0 256.75 -944.9 257.35 -967.9" fill="#434343" fill-rule="evenodd" stroke="none"/>
    <path d="M288.6 -938.5 L282.95 -940.1 286.55 -962.85 297.65 -959.85 288.6 -938.5" fill="#434343" fill-rule="evenodd" stroke="none"/>
    <path d="M351.7 -935.8 L337.4 -917.5 332.35 -920.55 341.75 -941.55 351.7 -935.8" fill="#434343" fill-rule="evenodd" stroke="none"/>
    <path d="M375.9 -918.7 L359.35 -902.45 354.75 -906.1 366.8 -925.7 375.9 -918.7" fill="#434343" fill-rule="evenodd" stroke="none"/>
    <path d="M397.7 -898.6 L379.15 -884.65 375.05 -888.9 389.55 -906.75 397.7 -898.6" fill="#434343" fill-rule="evenodd" stroke="none"/>
    <path d="M396.4 -864.4 L392.95 -869.15 409.65 -884.95 416.65 -875.8 396.4 -864.4" fill="#434343" fill-rule="evenodd" stroke="none"/>
    <path d="M410.9 -842.05 L408.1 -847.2 426.7 -860.7 432.45 -850.75 410.9 -842.05" fill="#434343" fill-rule="evenodd" stroke="none"/>
    <path d="M395.35 -806.8 L393.4 -811.4 420.5 -822.85 420.25 -823.5 440.5 -834.45 444.9 -823.85 422.4 -818.05 422.35 -818.2 395.35 -806.8" fill="#434343" fill-rule="evenodd" stroke="none"/>
    <path d="M430.6 -792.75 L429.2 -798.45 450.7 -806.65 453.7 -795.55 430.6 -792.75" fill="#434343" fill-rule="evenodd" stroke="none"/>
    <path d="M435.5 -766.55 L434.85 -772.4 457.2 -777.75 458.7 -766.35 435.5 -766.55" fill="#434343" fill-rule="evenodd" stroke="none"/>
    <path d="M436.9 -739.95 L437.0 -745.85 459.9 -748.2 459.9 -736.7 436.9 -739.95" fill="#434343" fill-rule="evenodd" stroke="none"/>
    <path d="M434.8 -713.45 L435.7 -719.25 458.65 -718.6 457.15 -707.2 434.8 -713.45" fill="#434343" fill-rule="evenodd" stroke="none"/>
    <path d="M429.25 -687.4 L430.9 -693.05 453.6 -689.4 450.65 -678.3 429.25 -687.4" fill="#434343" fill-rule="evenodd" stroke="none"/>
    <path d="M422.25 -666.55 L422.75 -667.65 444.8 -661.1 440.4 -650.5 420.45 -662.25 420.35 -661.95 393.1 -673.45 395.0 -678.05 422.25 -666.55" fill="#434343" fill-rule="evenodd" stroke="none"/>
    <path d="M408.3 -638.55 L411.35 -643.6 432.35 -634.2 426.6 -624.25 408.3 -638.55" fill="#434343" fill-rule="evenodd" stroke="none"/>
    <path d="M393.2 -616.65 L396.9 -621.2 416.5 -609.15 409.5 -600.05 393.2 -616.65" fill="#434343" fill-rule="evenodd" stroke="none"/>
    <path d="M379.65 -600.9 L397.5 -586.4 389.4 -578.3 375.4 -596.85 379.65 -600.9" fill="#434343" fill-rule="evenodd" stroke="none"/>
    <path d="M355.2 -579.55 L359.9 -583.05 375.7 -566.3 366.6 -559.3 355.2 -579.55" fill="#434343" fill-rule="evenodd" stroke="none"/>
    <path d="M351.5 -549.25 L341.55 -543.5 332.85 -565.05 338.0 -567.9 351.5 -549.25" fill="#434343" fill-rule="evenodd" stroke="none"/>
    <path d="M283.5 -545.35 L289.2 -546.75 297.45 -525.25 286.3 -522.3 283.5 -545.35" fill="#434343" fill-rule="evenodd" stroke="none"/>
    <path d="M257.35 -540.5 L263.2 -541.15 268.5 -518.75 257.1 -517.25 257.35 -540.5" fill="#434343" fill-rule="evenodd" stroke="none"/>
    <path d="M230.75 -539.1 L236.65 -538.95 239.0 -516.1 227.5 -516.1 230.75 -539.1" fill="#434343" fill-rule="evenodd" stroke="none"/>
    <path d="M198.0 -518.8 L204.2 -541.2 210.0 -540.3 209.4 -517.3 198.0 -518.8" fill="#434343" fill-rule="evenodd" stroke="none"/>
    <path d="M178.15 -546.7 L183.8 -545.05 180.2 -522.35 169.1 -525.35 178.15 -546.7" fill="#434343" fill-rule="evenodd" stroke="none"/>
    <path d="M125.0 -543.65 L115.05 -549.4 129.35 -567.65 134.4 -564.65 125.0 -543.65" fill="#434343" fill-rule="evenodd" stroke="none"/>
    <path d="M107.4 -582.75 L112.0 -579.05 99.95 -559.5 90.85 -566.5 107.4 -582.75" fill="#434343" fill-rule="evenodd" stroke="none"/>
    <path d="M87.6 -600.55 L91.7 -596.3 77.2 -578.45 69.05 -586.6 87.6 -600.55" fill="#434343" fill-rule="evenodd" stroke="none"/>
    <path d="M70.35 -620.8 L73.8 -616.05 57.1 -600.25 50.1 -609.35 70.35 -620.8" fill="#434343" fill-rule="evenodd" stroke="none"/>
    <path d="M40.05 -624.45 L34.3 -634.45 55.85 -643.1 58.65 -637.95 40.05 -624.45" fill="#434343" fill-rule="evenodd" stroke="none"/>
    <path d="M198.25 -966.4 L209.65 -967.9 209.4 -944.7 203.55 -944.05 198.25 -966.4" fill="#434343" fill-rule="evenodd" stroke="none"/>
    <path d="M183.25 -939.85 L177.55 -938.45 169.3 -959.9 180.45 -962.9 183.25 -939.85" fill="#434343" fill-rule="evenodd" stroke="none"/>
    <path d="M133.9 -920.15 L128.75 -917.3 115.25 -935.95 125.2 -941.7 133.9 -920.15" fill="#434343" fill-rule="evenodd" stroke="none"/>
    <path d="M111.55 -905.65 L106.85 -902.15 91.05 -918.85 100.15 -925.85 111.55 -905.65" fill="#434343" fill-rule="evenodd" stroke="none"/>
    <path d="M91.35 -888.35 L87.1 -884.3 69.25 -898.8 77.35 -906.9 91.35 -888.35" fill="#434343" fill-rule="evenodd" stroke="none"/>
    <path d="M73.55 -868.55 L69.85 -864.0 50.25 -876.0 57.25 -885.15 73.55 -868.55" fill="#434343" fill-rule="evenodd" stroke="none"/>
    <path d="M34.4 -850.95 L40.15 -860.95 58.45 -846.6 55.4 -841.6 34.4 -850.95" fill="#434343" fill-rule="evenodd" stroke="none"/>
    <path d="M224.9 -348.75 L224.9 -321.95 193.3 -321.95 193.3 -348.75 224.9 -348.75" fill="#ffffff" fill-rule="evenodd" stroke="none"/>
    <path d="M-121.15 -603.85 L-121.15 -577.6 -152.7 -577.6 -152.7 -603.85 -121.15 -603.85" fill="#ffffff" fill-rule="evenodd" stroke="none"/>
    <path d="M114.45 -312.85 L114.45 -332.75 120.95 -332.75 120.95 -312.85 114.45 -312.85" fill="#ffffff" fill-rule="evenodd" stroke="none"/>
    <path d="M123.4 -312.85 L123.4 -332.75 129.85 -332.75 129.85 -312.85 123.4 -312.85" fill="#ffffff" fill-rule="evenodd" stroke="none"/>
    <path d="M132.3 -312.85 L132.3 -332.75 138.8 -332.75 138.8 -312.85 132.3 -312.85" fill="#ffffff" fill-rule="evenodd" stroke="none"/>
    <path d="M141.25 -312.85 L141.25 -332.75 147.7 -332.75 147.7 -312.85 141.25 -312.85" fill="#ffffff" fill-rule="evenodd" stroke="none"/>
    <path d="M150.15 -312.85 L150.15 -332.75 156.65 -332.75 156.65 -312.85 150.15 -312.85" fill="#ffffff" fill-rule="evenodd" stroke="none"/>
    <path d="M114.45 -335.35 L114.45 -355.75 120.95 -355.75 120.95 -335.35 114.45 -335.35" fill="#ffffff" fill-rule="evenodd" stroke="none"/>
    <path d="M123.4 -335.35 L123.4 -355.75 129.85 -355.75 129.85 -335.35 123.4 -335.35" fill="#ffffff" fill-rule="evenodd" stroke="none"/>
    <path d="M132.3 -335.35 L132.3 -355.75 138.8 -355.75 138.8 -335.35 132.3 -335.35" fill="#ffffff" fill-rule="evenodd" stroke="none"/>
    <path d="M141.25 -335.35 L141.25 -355.75 147.7 -355.75 147.7 -335.35 141.25 -335.35" fill="#ffffff" fill-rule="evenodd" stroke="none"/>
    <path d="M150.15 -335.35 L150.15 -355.75 156.65 -355.75 156.65 -335.35 150.15 -335.35" fill="#ffffff" fill-rule="evenodd" stroke="none"/>
  </g>
</svg>
