<?xml version="1.0" encoding="UTF-8" standalone="no"?>
<svg xmlns:ffdec="https://www.free-decompiler.com/flash" xmlns:xlink="http://www.w3.org/1999/xlink" ffdec:objectType="shape" height="186.0px" width="512.0px" xmlns="http://www.w3.org/2000/svg">
  <g transform="matrix(1.0, 0.0, 0.0, 1.0, 0.0, 0.0)">
    <path d="M510.0 2.0 L16.0 2.0 16.0 46.0 510.0 46.0 510.0 2.0 M510.0 48.0 L16.0 48.0 16.0 92.0 510.0 92.0 510.0 48.0 M510.0 140.0 L16.0 140.0 16.0 184.0 510.0 184.0 510.0 140.0 M510.0 94.0 L16.0 94.0 16.0 138.0 510.0 138.0 510.0 94.0 M512.0 186.0 L0.0 186.0 0.0 0.0 512.0 0.0 512.0 186.0 M2.0 46.0 L14.0 46.0 14.0 2.0 2.0 2.0 2.0 46.0 M2.0 48.0 L2.0 92.0 14.0 92.0 14.0 48.0 2.0 48.0 M2.0 94.0 L2.0 138.0 14.0 138.0 14.0 94.0 2.0 94.0 M2.0 140.0 L2.0 184.0 14.0 184.0 14.0 140.0 2.0 140.0" fill="#ffffff" fill-rule="evenodd" stroke="none"/>
  </g>
</svg>
