<?xml version="1.0" encoding="UTF-8" standalone="no"?>
<svg xmlns:ffdec="https://www.free-decompiler.com/flash" xmlns:xlink="http://www.w3.org/1999/xlink" ffdec:objectType="shape" height="17.0px" width="27.0px" xmlns="http://www.w3.org/2000/svg">
  <g transform="matrix(1.0, 0.0, 0.0, 1.0, 12.9, 8.55)">
    <path d="M14.1 -3.1 L-12.2 6.45 -12.9 4.55 13.4 -5.0 14.1 -3.1" fill="#ffffff" fill-opacity="0.9882353" fill-rule="evenodd" stroke="none"/>
    <path d="M4.65 -6.55 L3.5 -6.55 3.5 -8.55 5.45 -8.55 7.75 -6.1 7.75 6.05 5.45 8.45 3.5 8.45 3.5 6.45 4.65 6.45 5.85 5.2 5.85 -5.3 4.65 -6.55" fill="#ffffff" fill-opacity="0.9882353" fill-rule="evenodd" stroke="none"/>
    <path d="M-2.25 -3.5 L-1.1 -3.5 0.2 -2.05 0.2 5.0 -1.1 6.4 -2.25 6.4 -2.25 5.25 -1.55 5.25 -0.9 4.5 -0.9 -1.6 -1.55 -2.35 -2.25 -2.35 -2.25 -3.5" fill="#ffffff" fill-opacity="0.9882353" fill-rule="evenodd" stroke="none"/>
    <path d="M-8.25 -1.5 L-7.6 -1.5 -6.85 -0.65 -6.85 3.4 -7.6 4.2 -8.25 4.2 -8.25 3.5 -7.9 3.5 -7.5 3.1 -7.5 -0.4 -7.9 -0.8 -8.25 -0.8 -8.25 -1.5" fill="#ffffff" fill-opacity="0.9882353" fill-rule="evenodd" stroke="none"/>
  </g>
</svg>
