<?xml version="1.0" encoding="UTF-8" standalone="no"?>
<svg xmlns:ffdec="https://www.free-decompiler.com/flash" xmlns:xlink="http://www.w3.org/1999/xlink" ffdec:objectType="shape" height="332.75px" width="323.35px" xmlns="http://www.w3.org/2000/svg">
  <g transform="matrix(1.0, 0.0, 0.0, 1.0, 116.2, 103.0)">
    <path d="M-15.2 56.0 L-29.2 56.0 -29.2 64.5 -15.2 64.5 -15.2 56.0 M4.8 -103.0 L31.8 -103.0 31.8 -97.8 64.3 -97.8 64.3 5.8 121.0 5.8 121.0 20.0 125.8 20.0 125.8 -0.3 111.5 -0.3 111.5 -60.8 106.8 -60.8 106.8 -15.8 71.15 -15.8 71.15 -35.5 90.0 -35.5 90.0 -38.3 71.15 -38.3 71.15 -98.3 106.8 -98.3 106.8 -86.45 111.5 -86.45 111.5 -98.15 203.65 -98.15 203.65 -65.8 207.15 -65.8 207.15 10.3 203.65 10.3 203.65 55.8 125.8 55.8 125.8 46.0 121.0 46.0 121.0 55.8 111.65 55.8 111.65 111.3 86.65 111.3 86.65 115.75 111.65 115.75 111.65 174.0 164.0 174.0 164.0 228.25 50.3 228.2 50.3 115.75 60.55 115.75 60.55 111.3 50.3 111.3 50.3 60.3 58.0 60.3 58.0 55.8 30.65 55.8 30.65 64.5 45.3 64.5 45.3 136.65 32.65 136.65 32.65 138.8 -2.5 138.8 -2.5 136.65 -24.5 136.65 -24.5 122.5 -29.2 122.5 -29.2 136.5 -111.35 136.5 -111.35 127.5 -116.2 127.5 -116.2 64.15 -111.35 64.15 -111.35 -65.8 -115.35 -65.8 -115.35 -92.5 -110.35 -92.5 -110.35 -97.8 -106.0 -97.8 -106.0 -102.65 -14.0 -102.65 -14.0 -97.8 4.8 -97.8 4.8 -103.0" fill="#969696" fill-rule="evenodd" stroke="none"/>
    <path d="M164.25 -42.0 L164.25 -4.0 111.5 -4.0 111.5 -42.0 164.25 -42.0" fill="#707070" fill-rule="evenodd" stroke="none"/>
    <path d="M71.15 -43.3 L71.15 -57.45 82.8 -57.45 82.8 -43.3 71.15 -43.3" fill="#707070" fill-rule="evenodd" stroke="none"/>
    <path d="M55.5 -97.8 L64.3 -97.8 64.3 5.8 55.5 5.8 55.5 -97.8" fill="#707070" fill-rule="evenodd" stroke="none"/>
    <path d="M19.5 11.95 L-5.25 11.95 -5.25 -55.6 -79.5 -55.6 -79.5 -80.1 19.5 -80.1 19.5 11.95" fill="#707070" fill-rule="evenodd" stroke="none"/>
    <path d="M75.1 -85.2 L75.1 -88.05 76.2 -90.5 77.7 -91.65 74.75 -91.65 74.75 -98.3 83.55 -98.3 83.55 -91.65 80.6 -91.65 82.1 -90.5 83.2 -88.05 83.2 -85.2 82.1 -82.75 80.25 -81.35 78.1 -81.35 76.2 -82.75 75.1 -85.2" fill="#707070" fill-rule="evenodd" stroke="none"/>
    <path d="M151.75 55.8 L151.75 41.75 184.75 41.75 184.75 55.8 151.75 55.8" fill="#707070" fill-rule="evenodd" stroke="none"/>
    <path d="M181.75 -98.15 L181.75 -84.0 131.25 -84.0 131.25 -98.15 181.75 -98.15" fill="#707070" fill-rule="evenodd" stroke="none"/>
    <path d="M-19.25 -41.25 L-19.25 -10.25 -38.65 -10.25 -38.65 -41.25 -19.25 -41.25" fill="#707070" fill-rule="evenodd" stroke="none"/>
    <path d="M-111.35 -55.85 L-99.5 -55.85 -99.5 26.6 -111.35 26.6 -111.35 -55.85" fill="#707070" fill-rule="evenodd" stroke="none"/>
    <path d="M-48.9 136.5 L-48.9 127.5 -29.2 127.5 -29.2 136.5 -48.9 136.5" fill="#707070" fill-rule="evenodd" stroke="none"/>
    <path d="M-15.2 64.5 L-15.2 102.1 -29.2 102.1 -29.2 64.5 -15.2 64.5" fill="#707070" fill-rule="evenodd" stroke="none"/>
    <path d="M31.65 64.5 L45.3 64.5 45.3 136.65 -24.5 136.65 -24.5 123.25 31.65 123.25 31.65 64.5" fill="#707070" fill-rule="evenodd" stroke="none"/>
    <path d="M86.0 229.75 L60.05 229.75 60.05 225.45 86.0 225.45 86.0 229.75" fill="#ffffff" fill-rule="evenodd" stroke="none"/>
  </g>
</svg>
