<?xml version="1.0" encoding="UTF-8" standalone="no"?>
<svg xmlns:ffdec="https://www.free-decompiler.com/flash" xmlns:xlink="http://www.w3.org/1999/xlink" ffdec:objectType="shape" height="33.0px" width="33.0px" xmlns="http://www.w3.org/2000/svg">
  <g transform="matrix(1.0, 0.0, 0.0, 1.0, 0.0, 0.0)">
    <path d="M30.1 10.85 Q29.05 8.25 27.15 6.3 L26.65 5.8 26.65 5.7 Q24.7 3.9 22.35 2.9 L20.0 2.15 16.5 1.7 16.05 1.75 15.95 1.75 Q13.25 1.8 10.85 2.9 8.2 3.9 6.2 5.9 L5.55 6.45 Q3.85 8.25 2.95 10.5 1.7 13.25 1.7 16.3 1.7 19.25 2.9 21.95 L2.9 22.0 Q3.85 24.35 6.05 26.85 L6.55 27.45 6.6 27.5 Q8.4 29.15 10.65 30.1 13.45 31.3 16.5 31.3 L20.0 30.9 22.3 30.1 Q24.9 29.05 26.9 26.9 L26.95 26.9 Q29.0 24.85 30.1 22.3 31.3 19.5 31.3 16.45 31.3 13.5 30.1 10.85 M28.25 4.9 L28.65 5.35 29.45 6.3 Q30.85 8.05 31.7 10.15 33.0 13.15 33.0 16.45 33.0 19.85 31.7 22.95 30.4 25.85 28.15 28.1 25.9 30.45 22.95 31.7 L20.0 32.65 16.5 33.0 Q13.1 33.0 10.0 31.7 7.45 30.6 5.35 28.7 L5.3 28.65 4.7 28.0 4.7 27.95 Q2.3 25.2 1.3 22.65 0.0 19.6 0.0 16.3 0.0 12.9 1.35 9.85 2.1 7.95 3.45 6.3 3.95 5.55 4.65 4.9 L4.95 4.6 5.95 3.7 Q7.75 2.25 10.15 1.3 12.9 0.1 15.95 0.05 L16.05 0.05 16.5 0.0 20.0 0.35 23.0 1.3 Q25.95 2.6 28.25 4.9" fill="#000000" fill-rule="evenodd" stroke="none"/>
  </g>
</svg>
