<?xml version="1.0" encoding="UTF-8" standalone="no"?>
<svg xmlns:ffdec="https://www.free-decompiler.com/flash" xmlns:xlink="http://www.w3.org/1999/xlink" ffdec:objectType="shape" height="601.85px" width="318.3px" xmlns="http://www.w3.org/2000/svg">
  <g transform="matrix(1.0, 0.0, 0.0, 1.0, 212.0, 475.35)">
    <path d="M-152.9 -423.05 L-152.9 -475.35 -40.45 -475.35 -40.45 -423.05 106.3 -423.05 106.3 126.5 -108.05 126.5 -108.05 -157.35 -212.0 -157.35 -212.0 -423.05 -152.9 -423.05" fill="#434343" fill-rule="evenodd" stroke="none"/>
    <path d="M-71.0 57.15 L-71.0 49.15 -79.0 49.15 -79.0 57.15 -71.0 57.15 M37.5 -77.7 L37.5 -93.85 7.0 -93.85 7.0 -77.7 37.5 -77.7 M-201.7 -283.7 L-198.35 -283.7 -198.35 -295.65 -138.0 -295.65 -132.7 -307.8 -132.7 -355.85 -54.9 -356.15 -41.6 -307.35 90.65 -307.35 97.65 -314.0 96.85 -236.7 96.85 -162.7 102.65 -162.7 102.65 -107.0 96.0 -107.0 96.0 -89.35 86.15 -89.35 86.15 -80.7 96.0 -80.7 96.0 -56.45 83.65 -56.45 83.65 -36.35 96.0 -36.35 96.0 20.65 83.65 20.65 83.65 40.65 96.0 40.65 96.0 66.0 -96.95 66.0 -96.95 -229.15 -198.35 -229.15 -198.35 -247.0 -201.7 -247.0 -201.7 -283.7" fill="#969696" fill-rule="evenodd" stroke="none"/>
    <path d="M-114.55 -347.3 L-113.35 -345.95 -113.0 -344.15 -113.55 -342.45 -114.9 -341.25 -116.7 -340.9 -118.4 -341.45 -119.6 -342.8 -119.95 -344.6 -119.35 -346.3 -118.05 -347.5 -116.25 -347.85 -114.55 -347.3" fill="#707070" fill-rule="evenodd" stroke="none"/>
    <path d="M-43.95 25.55 L-42.6 24.4 -40.8 24.0 -39.05 24.6 -37.85 25.9 -37.5 27.65 -38.1 29.35 -39.45 30.5 -41.2 30.85 -42.95 30.3 -44.15 28.95 -44.5 27.25 -43.95 25.55" fill="#707070" fill-rule="evenodd" stroke="none"/>
    <path d="M-14.1 1.05 L-12.75 -0.1 -10.95 -0.5 -9.25 0.1 -8.05 1.4 -7.65 3.15 -8.25 4.85 -9.6 6.0 -11.4 6.35 -13.1 5.8 -14.3 4.45 -14.7 2.75 -14.1 1.05" fill="#707070" fill-rule="evenodd" stroke="none"/>
    <path d="M78.85 61.4 L75.95 62.45 70.05 45.85 73.0 44.85 78.85 61.4" fill="#707070" fill-rule="evenodd" stroke="none"/>
    <path d="M91.65 47.3 L91.65 56.0 83.0 56.0 83.0 47.3 91.65 47.3" fill="#707070" fill-rule="evenodd" stroke="none"/>
    <path d="M83.7 -64.8 L83.7 -73.45 92.35 -73.45 92.35 -64.8 83.7 -64.8" fill="#707070" fill-rule="evenodd" stroke="none"/>
    <path d="M-92.3 -162.15 L-92.3 -170.8 -83.65 -170.8 -83.65 -162.15 -92.3 -162.15" fill="#707070" fill-rule="evenodd" stroke="none"/>
    <path d="M37.5 -80.7 L37.5 -89.35 86.15 -89.35 86.15 -80.7 37.5 -80.7" fill="#707070" fill-rule="evenodd" stroke="none"/>
    <path d="M-96.95 -15.35 L-96.95 -58.35 -85.35 -58.35 -85.35 -15.35 -96.95 -15.35" fill="#707070" fill-rule="evenodd" stroke="none"/>
    <path d="M-96.95 -158.7 L-82.0 -158.7 -82.0 -92.7 -96.95 -92.7 -96.95 -158.7" fill="#707070" fill-rule="evenodd" stroke="none"/>
    <path d="M-37.6 -305.8 L-37.6 -324.25 97.55 -324.25 97.55 -259.35 98.2 -236.05 95.1 -235.15 96.25 -230.15 -6.85 -206.05 -8.05 -211.1 -12.1 -210.75 -30.45 -261.8 -5.7 -262.15 3.95 -238.4 82.4 -256.75 82.4 -305.8 -37.6 -305.8" fill="#707070" fill-rule="evenodd" stroke="none"/>
    <path d="M102.85 69.75 L102.85 122.4 -103.15 122.4 -103.15 69.75 102.85 69.75" fill="#707070" fill-rule="evenodd" stroke="none"/>
    <path d="M85.85 -36.35 L96.0 -36.35 96.0 20.65 85.85 20.65 85.85 -36.35" fill="#707070" fill-rule="evenodd" stroke="none"/>
    <path d="M72.2 -46.7 L59.7 -36.1 43.75 -54.8 56.25 -65.4 72.2 -46.7" fill="#707070" fill-rule="evenodd" stroke="none"/>
    <path d="M72.2 -159.8 L72.2 -130.0 -2.0 -130.0 -2.0 -159.8 72.2 -159.8" fill="#707070" fill-rule="evenodd" stroke="none"/>
    <path d="M50.4 38.85 L22.4 38.85 22.4 34.0 -0.7 34.0 -0.7 38.65 -37.15 38.65 -37.15 16.2 -32.45 16.2 -32.45 -11.35 -37.15 -11.35 -37.15 -47.8 -14.7 -47.8 -14.7 16.2 22.4 16.2 22.4 10.65 50.4 10.65 50.4 38.85" fill="#707070" fill-rule="evenodd" stroke="none"/>
    <path d="M11.2 -35.4 L12.4 -35.85 13.75 -35.9 15.0 -35.6 18.3 -33.6 22.65 -30.1 22.75 -29.95 28.05 -24.85 32.85 -18.25 33.35 -17.05 33.55 -15.75 33.3 -14.45 32.7 -13.3 31.8 -12.35 30.65 -11.75 24.9 -9.7 13.15 -8.25 8.4 -8.5 5.25 -8.9 4.0 -9.45 3.0 -10.25 2.3 -11.35 1.95 -12.65 1.95 -13.95 3.65 -21.85 7.9 -31.25 10.15 -34.6 11.2 -35.4" fill="#707070" fill-rule="evenodd" stroke="none"/>
    <path d="M-129.35 -413.35 L-117.2 -413.35 -117.2 -417.35 -147.35 -417.35 -147.35 -470.45 -46.7 -470.45 -46.7 -417.35 -84.85 -417.35 -84.85 -413.35 -70.45 -413.35 -55.8 -359.5 -129.35 -359.5 -129.35 -413.35" fill="#707070" fill-rule="evenodd" stroke="none"/>
    <path d="M-132.7 -377.7 L-162.35 -377.7 -162.35 -295.65 -198.35 -295.65 -198.35 -413.35 -132.7 -413.35 -132.7 -377.7" fill="#ffffff" fill-rule="evenodd" stroke="none"/>
    <path d="M-109.0 -361.0 L-76.7 -361.0 -76.7 -355.0 -109.0 -355.0 -109.0 -361.0" fill="#ffffff" fill-rule="evenodd" stroke="none"/>
  </g>
</svg>
