<?xml version="1.0" encoding="UTF-8" standalone="no"?>
<svg xmlns:ffdec="https://www.free-decompiler.com/flash" xmlns:xlink="http://www.w3.org/1999/xlink" ffdec:objectType="shape" height="601.85px" width="318.3px" xmlns="http://www.w3.org/2000/svg">
  <g transform="matrix(1.0, 0.0, 0.0, 1.0, 212.0, 475.35)">
    <path d="M-152.9 -423.05 L-152.9 -475.35 -40.45 -475.35 -40.45 -423.05 106.3 -423.05 106.3 126.5 -108.05 126.5 -108.05 -157.35 -212.0 -157.35 -212.0 -423.05 -152.9 -423.05" fill="#434343" fill-rule="evenodd" stroke="none"/>
    <path d="M102.85 69.75 L102.85 122.4 -103.15 122.4 -103.15 69.75 102.85 69.75" fill="#707070" fill-rule="evenodd" stroke="none"/>
    <path d="M-71.0 54.0 L-71.0 49.15 -78.35 49.15 -78.35 54.0 -71.0 54.0 M-132.7 -413.35 L-117.2 -413.35 -117.2 -417.35 -147.35 -417.35 -147.35 -470.45 -46.7 -470.45 -46.7 -417.35 -84.85 -417.35 -84.85 -413.35 -70.45 -413.35 -70.35 -412.9 11.4 -412.9 11.4 -324.25 97.55 -324.25 97.55 -313.9 97.65 -314.0 97.55 -280.25 102.0 -280.25 102.0 -234.0 96.85 -234.0 96.85 -162.7 102.65 -162.7 102.65 -107.0 96.0 -107.0 96.0 14.0 102.65 14.0 102.65 46.0 96.0 46.0 96.0 66.0 -96.95 66.0 -96.95 -171.7 -159.9 -171.7 -159.9 -226.6 -170.1 -226.6 -170.1 -229.15 -198.35 -229.15 -198.35 -247.0 -201.7 -247.0 -201.7 -283.7 -198.35 -283.7 -198.35 -400.05 -132.7 -410.55 -132.7 -413.35" fill="#707070" fill-rule="evenodd" stroke="none"/>
    <path d="M-122.0 -378.35 L-162.35 -378.35 -162.35 -295.65 -198.35 -295.65 -198.35 -410.0 -122.0 -410.0 -122.0 -378.35" fill="#ffffff" fill-rule="evenodd" stroke="none"/>
  </g>
</svg>
