<?xml version="1.0" encoding="UTF-8" standalone="no"?>
<svg xmlns:ffdec="https://www.free-decompiler.com/flash" xmlns:xlink="http://www.w3.org/1999/xlink" ffdec:objectType="shape" height="646.3px" width="779.1px" xmlns="http://www.w3.org/2000/svg">
  <g transform="matrix(1.0, 0.0, 0.0, 1.0, 210.5, 502.65)">
    <path d="M420.0 51.1 L420.0 59.7 467.35 59.7 467.35 74.0 568.6 74.0 568.6 143.65 325.35 143.65 144.5 92.45 -22.9 92.45 -68.55 32.25 -80.75 28.3 -85.4 26.15 -90.0 23.0 -93.95 19.05 -97.2 14.5 -99.6 9.45 -101.05 4.05 -101.6 -1.5 -101.15 -7.1 -99.75 -12.5 -97.4 -17.55 -94.2 -22.15 -90.3 -26.15 -85.75 -29.35 -80.7 -31.75 -75.3 -33.25 -72.35 -33.5 -78.15 -43.7 -71.85 -52.9 -103.0 -80.45 -135.65 -114.25 -161.85 -145.8 -179.15 -170.0 -88.15 -233.15 -210.5 -444.45 -109.9 -502.65 -50.7 -400.5 -25.0 -415.6 48.4 -290.7 75.15 -303.75 84.9 -306.8 95.05 -308.2 105.3 -307.85 115.35 -305.75 124.9 -302.0 133.65 -296.7 141.4 -290.0 147.95 -282.1 153.0 -273.15 156.5 -263.55 158.3 -253.45 158.4 -243.2 156.75 -233.05 153.4 -223.4 148.45 -214.4 142.1 -206.35 134.45 -199.55 125.75 -194.1 117.8 -190.8 143.45 -172.8 78.8 -81.95 92.2 -76.5 113.1 -69.25 161.65 -56.8 192.15 -51.9 227.1 -49.9 371.85 -49.9 372.35 51.0 420.0 51.1" fill="#434343" fill-rule="evenodd" stroke="none"/>
    <path d="M-190.0 -439.0 L-115.4 -482.15 -56.15 -380.0 -56.1 -379.9 -30.3 -395.05 39.35 -276.5 31.4 -271.85 33.7 -267.9 39.65 -271.4 42.9 -270.25 58.4 -279.1 72.65 -254.35 57.45 -245.6 67.95 -227.7 67.0 -223.9 60.95 -220.35 74.0 -197.65 75.2 -196.15 Q76.05 -195.7 76.85 -195.3 L78.55 -193.95 81.3 -197.95 94.15 -189.1 105.2 -172.15 110.5 -155.5 101.85 -153.65 73.0 -163.1 62.35 -170.5 68.2 -179.0 61.5 -184.0 45.1 -211.05 38.9 -207.4 34.75 -207.95 9.8 -250.5 10.6 -254.3 18.0 -258.7 15.7 -262.6 14.15 -261.7 14.45 -261.15 -28.85 -236.45 -60.8 -217.65 -61.05 -218.05 -61.8 -217.65 -130.5 -336.2 -130.5 -336.25 -190.0 -439.0" fill="#969696" fill-rule="evenodd" stroke="none"/>
    <path d="M-30.7 -356.2 L-21.15 -340.1 -28.25 -335.85 -37.85 -351.95 -30.7 -356.2" fill="#707070" fill-rule="evenodd" stroke="none"/>
    <path d="M49.5 -274.25 L59.75 -256.5 53.5 -252.4 42.9 -270.25 49.5 -274.25" fill="#707070" fill-rule="evenodd" stroke="none"/>
    <path d="M-40.45 -360.2 L-23.05 -370.55 -18.7 -363.2 -36.1 -352.85 -40.45 -360.2" fill="#707070" fill-rule="evenodd" stroke="none"/>
    <path d="M-161.7 -407.25 L-153.1 -408.2 -150.85 -388.6 -159.4 -387.6 -161.7 -407.25" fill="#707070" fill-rule="evenodd" stroke="none"/>
    <path d="M-157.5 -384.0 L-155.3 -385.5 -150.3 -378.5 -152.65 -377.0 -157.5 -384.0" fill="#707070" fill-rule="evenodd" stroke="none"/>
    <path d="M-144.15 -373.9 L-142.05 -377.3 -136.6 -373.95 -138.65 -370.55 -144.15 -373.9" fill="#707070" fill-rule="evenodd" stroke="none"/>
    <path d="M-147.35 -384.25 L-142.05 -378.2 -144.8 -375.75 -150.1 -381.8 -147.35 -384.25" fill="#707070" fill-rule="evenodd" stroke="none"/>
    <path d="M-144.75 -406.95 L-146.5 -410.2 -139.4 -414.05 -137.65 -410.8 -144.75 -406.95" fill="#707070" fill-rule="evenodd" stroke="none"/>
    <path d="M-172.55 -441.05 L-175.25 -446.1 -166.2 -451.0 -163.5 -446.0 -172.55 -441.05" fill="#707070" fill-rule="evenodd" stroke="none"/>
    <path d="M-51.55 -374.9 L-53.95 -377.65 -47.5 -383.25 -45.1 -380.5 -51.55 -374.9" fill="#707070" fill-rule="evenodd" stroke="none"/>
    <path d="M-42.65 -383.2 L-44.2 -385.75 -33.45 -392.15 -31.9 -389.55 -42.65 -383.2" fill="#707070" fill-rule="evenodd" stroke="none"/>
    <path d="M-31.6 -389.15 L-33.15 -391.7 -30.65 -393.2 -29.1 -390.6 -31.6 -389.15" fill="#707070" fill-rule="evenodd" stroke="none"/>
    <path d="M-171.6 -409.35 L-169.05 -410.7 -166.2 -405.45 -168.75 -404.05 -171.6 -409.35" fill="#707070" fill-rule="evenodd" stroke="none"/>
    <path d="M-124.65 -421.45 L-126.75 -425.35 -124.2 -426.7 -122.1 -422.8 -124.65 -421.45" fill="#707070" fill-rule="evenodd" stroke="none"/>
    <path d="M-53.1 -314.75 L-53.15 -315.95 -52.6 -317.1 -51.65 -317.9 -50.45 -318.2 -49.2 -317.95 -48.25 -317.15 -47.7 -316.05 -47.65 -314.8 -48.2 -313.7 -49.15 -312.9 -50.35 -312.6 -51.55 -312.85 -52.55 -313.6 -53.1 -314.75" fill="#434343" fill-rule="evenodd" stroke="none"/>
    <path d="M-22.3 -271.0 L-22.85 -269.85 -23.8 -269.05 -25.0 -268.75 -26.25 -269.0 -27.2 -269.8 -27.75 -270.9 -27.8 -272.15 -27.25 -273.25 -26.3 -274.05 -25.1 -274.35 -23.9 -274.1 -22.9 -273.35 -22.35 -272.2 -22.3 -271.0" fill="#434343" fill-rule="evenodd" stroke="none"/>
    <path d="M-70.9 -245.85 L-70.35 -244.7 -70.3 -243.5 -70.85 -242.35 -71.8 -241.55 -73.0 -241.25 -74.25 -241.5 -75.2 -242.3 -75.75 -243.4 -75.8 -244.65 -75.25 -245.75 -74.3 -246.55 -73.1 -246.85 -71.9 -246.6 -70.9 -245.85" fill="#434343" fill-rule="evenodd" stroke="none"/>
    <path d="M-99.3 -290.25 L-98.1 -290.5 -96.9 -290.25 -95.9 -289.5 -95.35 -288.4 -95.3 -287.15 -95.85 -286.0 -96.8 -285.25 -98.0 -284.95 -99.25 -285.2 -100.2 -285.95 -100.75 -287.05 -100.8 -288.3 -100.25 -289.45 -99.3 -290.25" fill="#434343" fill-rule="evenodd" stroke="none"/>
    <path d="M-78.1 -358.0 L-78.15 -359.2 -77.6 -360.35 -76.65 -361.15 -75.45 -361.45 -74.2 -361.2 -73.25 -360.4 -72.7 -359.3 -72.65 -358.05 -73.2 -356.95 -74.15 -356.15 -75.35 -355.85 -76.55 -356.1 -77.55 -356.85 -78.1 -358.0" fill="#434343" fill-rule="evenodd" stroke="none"/>
    <path d="M-120.9 -332.75 L-120.35 -331.65 -120.3 -330.4 -120.85 -329.25 -121.8 -328.5 -123.0 -328.2 -124.25 -328.45 -125.2 -329.2 -125.75 -330.3 -125.8 -331.55 -125.25 -332.7 -124.3 -333.5 -123.1 -333.75 -121.9 -333.5 -120.9 -332.75" fill="#434343" fill-rule="evenodd" stroke="none"/>
    <path d="M-98.2 -400.45 L-99.15 -399.65 -100.35 -399.35 -101.55 -399.6 -102.55 -400.35 -103.1 -401.5 -103.15 -402.7 -102.6 -403.85 -101.65 -404.65 -100.45 -404.95 -99.2 -404.7 -98.25 -403.9 -97.7 -402.8 -97.65 -401.55 -98.2 -400.45" fill="#434343" fill-rule="evenodd" stroke="none"/>
    <path d="M-147.1 -377.2 L-146.1 -376.4 -145.55 -375.3 -145.55 -374.05 -146.05 -372.95 -147.0 -372.15 -148.25 -371.85 -149.45 -372.1 -150.45 -372.85 -151.0 -374.0 -151.0 -375.2 -150.5 -376.35 -149.5 -377.15 -148.3 -377.45 -147.1 -377.2" fill="#434343" fill-rule="evenodd" stroke="none"/>
    <path d="M-128.25 -445.0 L-128.3 -446.2 -127.75 -447.35 -126.8 -448.15 -125.6 -448.45 -124.4 -448.2 -123.4 -447.4 -122.85 -446.3 -122.8 -445.05 -123.35 -443.95 -124.3 -443.15 -125.5 -442.85 -126.75 -443.1 -127.7 -443.85 -128.25 -445.0" fill="#434343" fill-rule="evenodd" stroke="none"/>
    <path d="M-170.7 -418.8 L-170.7 -417.55 -171.2 -416.45 -172.2 -415.65 -173.4 -415.35 -174.6 -415.6 -175.6 -416.35 -176.15 -417.5 -176.15 -418.7 -175.65 -419.85 -174.7 -420.65 -173.5 -420.95 -172.25 -420.7 -171.25 -419.9 -170.7 -418.8" fill="#434343" fill-rule="evenodd" stroke="none"/>
    <path d="M105.2 -165.65 L86.5 -178.5 94.15 -189.1 123.0 -168.8 119.7 -163.65 121.5 -162.3 109.5 -145.15 107.5 -146.15 104.0 -141.65 73.0 -163.1 80.7 -173.3 101.0 -159.65 105.2 -165.65" fill="#ffffff" fill-rule="evenodd" stroke="none"/>
  </g>
</svg>
