<?xml version="1.0" encoding="UTF-8" standalone="no"?>
<svg xmlns:ffdec="https://www.free-decompiler.com/flash" xmlns:xlink="http://www.w3.org/1999/xlink" ffdec:objectType="shape" height="646.3px" width="779.1px" xmlns="http://www.w3.org/2000/svg">
  <g transform="matrix(1.0, 0.0, 0.0, 1.0, 210.5, 502.65)">
    <path d="M420.0 51.1 L420.0 59.7 467.35 59.7 467.35 74.0 568.6 74.0 568.6 143.65 325.35 143.65 144.5 92.45 -22.9 92.45 -68.55 32.25 -80.75 28.3 -85.4 26.15 -90.0 23.0 -93.95 19.05 -97.2 14.5 -99.6 9.45 -101.05 4.05 -101.6 -1.5 -101.15 -7.1 -99.75 -12.5 -97.4 -17.55 -94.2 -22.15 -90.3 -26.15 -85.75 -29.35 -80.7 -31.75 -75.3 -33.25 -72.35 -33.5 -78.15 -43.7 -71.85 -52.9 -103.0 -80.45 -135.65 -114.25 -161.85 -145.8 -179.15 -170.0 -88.15 -233.15 -210.5 -444.45 -109.9 -502.65 -50.7 -400.5 -25.0 -415.6 48.4 -290.7 75.15 -303.75 84.9 -306.8 95.05 -308.2 105.3 -307.85 115.35 -305.75 124.9 -302.0 133.65 -296.7 141.4 -290.0 147.95 -282.1 153.0 -273.15 156.5 -263.55 158.3 -253.45 158.4 -243.2 156.75 -233.05 153.4 -223.4 148.45 -214.4 142.1 -206.35 134.45 -199.55 125.75 -194.1 117.8 -190.8 143.45 -172.8 78.8 -81.95 92.2 -76.5 113.1 -69.25 161.65 -56.8 192.15 -51.9 227.1 -49.9 371.85 -49.9 372.35 51.0 420.0 51.1" fill="#434343" fill-rule="evenodd" stroke="none"/>
    <path d="M71.25 -68.85 L86.9 -62.45 108.7 -54.9 158.65 -42.1 190.5 -36.95 226.65 -34.9 356.85 -34.9 356.85 37.85 224.8 37.7 182.2 35.65 144.05 29.5 87.35 14.95 41.9 -2.85 25.0 -10.5 4.4 -21.0 -28.55 -39.35 -57.5 -60.2 -92.65 -91.3 -121.8 -121.3 -150.0 -155.0 -158.05 -166.3 -97.9 -207.65 -91.5 -198.35 -67.5 -169.5 -42.85 -143.55 -12.45 -117.75 11.3 -100.6 38.0 -85.0 57.05 -76.1 71.25 -68.85" fill="#6e6e6e" fill-rule="evenodd" stroke="none"/>
    <path d="M19.3 -13.4 L23.45 -23.15 52.95 -11.0 48.7 -0.1 41.9 -2.85 19.3 -13.4" fill="#ffffff" fill-rule="evenodd" stroke="none"/>
    <path d="M288.85 37.85 L257.2 37.85 257.2 26.25 288.85 26.25 288.85 37.85" fill="#ffffff" fill-rule="evenodd" stroke="none"/>
    <path d="M-94.55 -93.25 L-116.65 -116.0 -108.15 -123.15 -87.5 -99.8 -94.55 -93.25" fill="#ffffff" fill-rule="evenodd" stroke="none"/>
    <path d="M-17.35 -31.95 L4.3 -19.9 20.7 -11.6 41.5 -1.95 64.6 7.1 64.3 8.05 64.75 8.0 64.3 8.15 55.85 39.0 153.4 39.0 153.4 51.0 159.5 51.0 159.65 33.05 181.65 35.65 246.5 36.5 246.5 -4.8 206.2 -5.5 175.3 -8.8 141.9 -14.85 117.25 -20.95 93.35 -28.15 74.5 -35.15 58.85 3.85 48.7 -0.1 64.4 -39.5 57.4 -42.25 41.5 -49.95 23.05 -59.5 -4.25 -74.6 -28.15 -40.45 -29.7 -40.95 -29.85 -40.8 -30.75 -39.6 -27.35 -33.0 -30.45 -31.2 -27.45 -26.15 -17.35 -31.95 M45.65 -203.95 L22.45 -170.15 23.1 -169.7 46.7 -203.25 45.65 -203.95 M301.0 -34.9 L301.0 -15.75 356.85 -15.75 356.85 -4.75 257.2 -4.75 257.2 36.5 357.35 36.5 357.35 89.0 406.35 89.0 406.35 86.5 405.0 86.5 405.0 88.5 379.2 88.5 379.2 76.6 378.5 76.6 378.5 88.45 358.25 88.45 358.25 66.0 378.5 66.0 378.5 68.5 379.2 68.5 379.2 66.1 405.0 66.1 405.0 78.45 406.35 78.45 406.35 74.7 452.35 74.7 452.35 89.0 553.6 89.0 553.6 122.7 506.7 122.7 506.7 118.0 502.1 118.0 502.1 122.7 456.25 122.7 456.25 118.0 452.35 118.0 452.35 133.2 446.7 133.2 446.7 133.95 431.05 133.95 431.05 133.2 427.0 133.2 427.0 133.95 411.35 133.95 411.35 133.2 406.35 133.2 406.35 118.0 401.9 118.0 401.9 121.75 359.0 121.75 359.0 118.0 354.9 118.0 354.9 122.15 314.5 122.15 314.5 118.0 310.35 118.0 310.35 121.85 277.0 112.5 277.0 107.85 273.2 107.85 273.2 111.7 239.85 102.35 239.85 98.2 236.35 98.2 236.35 102.0 203.0 92.7 203.0 88.35 198.85 88.35 198.85 91.2 159.5 80.85 159.5 68.4 147.7 68.4 147.7 71.35 111.5 71.35 111.5 68.5 107.35 68.5 107.35 71.35 71.2 71.35 71.2 68.5 67.0 68.5 67.0 71.35 52.5 71.35 52.5 68.5 42.65 68.5 42.65 71.6 38.2 71.6 38.2 73.05 23.0 73.05 23.0 71.6 19.0 71.6 19.0 73.4 3.6 73.4 3.6 71.6 3.3 71.6 3.35 71.7 2.15 71.6 -2.9 71.6 -2.9 71.25 -3.8 71.2 -13.0 66.0 -12.15 63.35 -16.0 62.0 -17.5 64.85 -29.3 59.2 -39.0 46.2 -40.8 47.85 -50.8 32.2 -49.3 30.85 -54.5 22.5 -53.15 20.9 -56.8 17.9 -58.1 19.9 -75.25 14.3 -77.95 13.05 -80.4 11.4 -82.5 9.3 -84.2 6.9 -85.5 4.2 -86.25 1.35 -86.55 -1.6 -86.3 -4.55 -85.55 -7.4 -84.3 -10.1 -82.6 -12.55 -80.55 -14.65 -78.15 -16.35 -75.45 -17.65 -72.6 -18.4 -69.65 -18.7 -66.7 -18.45 -49.55 -13.5 -42.6 -17.5 -45.6 -22.5 -48.0 -21.1 -60.5 -43.0 -51.5 -56.1 -51.6 -56.35 -52.85 -57.35 -29.45 -91.2 -29.95 -91.55 -60.25 -118.85 -85.25 -143.5 -116.65 -116.0 -124.1 -123.85 -92.35 -151.9 -110.05 -173.25 -122.7 -190.6 -113.5 -196.95 -112.5 -195.55 -97.05 -206.35 -90.3 -196.9 -106.1 -186.6 -101.35 -179.95 -77.6 -151.4 -52.05 -126.3 -39.3 -140.5 -31.0 -133.45 -43.25 -119.0 -22.65 -100.9 -12.15 -116.0 -8.7 -113.6 -6.15 -117.3 -11.2 -120.85 3.65 -142.25 2.8 -142.8 -5.25 -131.05 -23.0 -143.5 -34.8 -165.5 -26.15 -172.65 1.75 -166.35 13.65 -158.0 11.2 -154.7 12.0 -154.1 18.15 -162.6 17.45 -163.05 15.15 -160.25 -19.6 -184.85 -16.6 -189.5 -18.35 -191.05 -4.5 -211.05 -2.75 -209.6 0.5 -214.1 -1.35 -215.5 12.65 -235.0 14.2 -234.1 17.9 -239.0 53.15 -214.25 51.0 -211.25 51.7 -210.55 58.7 -220.3 Q62.1 -217.85 65.45 -215.45 L66.1 -216.55 64.2 -218.45 60.2 -224.3 57.25 -230.75 55.4 -237.6 54.75 -244.65 55.3 -251.7 57.0 -258.55 59.85 -265.05 63.8 -270.95 68.65 -276.1 74.3 -280.35 80.6 -283.6 87.35 -285.7 94.4 -286.65 101.45 -286.45 108.4 -285.0 115.0 -282.4 121.05 -278.75 126.4 -274.1 130.9 -268.6 134.4 -262.45 136.8 -255.8 138.05 -248.85 138.15 -241.75 137.0 -234.75 134.7 -228.05 131.3 -221.85 126.85 -216.3 121.6 -211.6 115.6 -207.8 109.05 -205.15 102.15 -203.6 95.05 -203.25 88.0 -204.05 81.25 -206.1 80.35 -206.55 79.5 -205.4 83.95 -202.25 14.2 -103.0 8.8 -106.8 6.3 -103.1 12.55 -98.75 2.05 -83.65 26.7 -70.05 35.3 -86.55 45.15 -81.65 36.45 -64.95 62.05 -52.2 76.1 -46.05 96.25 -38.4 110.6 -34.25 116.85 -52.75 126.55 -50.05 121.2 -31.3 144.2 -25.6 177.05 -19.65 200.15 -17.2 202.0 -36.3 212.35 -35.7 211.1 -16.4 249.8 -15.75 290.0 -15.75 290.0 -34.9 301.0 -34.9" fill="#969696" fill-rule="evenodd" stroke="none"/>
    <path d="M537.35 95.3 L539.1 95.0 540.85 95.0 542.6 95.3 544.25 95.9 545.75 96.75 547.1 97.9 548.25 99.25 549.1 100.75 549.7 102.4 550.0 104.15 550.0 105.9 549.7 107.65 549.1 109.3 548.25 110.8 547.1 112.15 545.75 113.3 544.25 114.15 542.6 114.75 540.85 115.05 539.1 115.05 537.35 114.75 535.7 114.15 534.2 113.3 532.85 112.15 531.7 110.8 530.85 109.3 530.25 107.65 529.95 105.9 529.95 104.15 530.25 102.4 530.85 100.75 531.7 99.25 532.85 97.9 534.2 96.75 535.7 95.9 537.35 95.3" fill="#434343" fill-rule="evenodd" stroke="none"/>
    <path d="M-62.65 -10.55 L-61.1 -9.75 -59.65 -8.7 -58.45 -7.45 -57.45 -6.0 -56.75 -4.4 -56.35 -2.65 -56.25 -0.9 -56.45 0.85 -56.9 2.5 -57.7 4.1 -58.75 5.5 -60.0 6.7 -61.45 7.7 -63.05 8.4 -64.8 8.8 -66.55 8.95 -68.3 8.75 -69.95 8.25 -71.55 7.45 -72.95 6.45 -74.15 5.15 -75.15 3.7 -75.85 2.1 -76.25 0.4 -76.4 -1.35 -76.2 -3.1 -75.7 -4.8 -74.9 -6.35 -73.9 -7.8 -72.6 -9.0 -71.15 -10.0 -69.55 -10.7 -67.85 -11.1 -66.1 -11.2 -64.35 -11.0 -62.65 -10.55" fill="#434343" fill-rule="evenodd" stroke="none"/>
    <path d="M422.5 111.55 L422.7 110.3 423.15 109.05 423.8 107.95 424.65 106.95 425.6 106.15 426.75 105.5 427.95 105.05 429.2 104.8 430.5 104.8 431.75 105.05 433.0 105.5 434.1 106.15 435.1 106.95 435.9 107.95 436.55 109.05 437.0 110.3 437.25 111.55 437.25 112.85 437.0 114.1 436.55 115.3 435.9 116.45 435.1 117.4 434.1 118.25 433.0 118.9 431.75 119.35 430.5 119.55 429.2 119.55 427.95 119.35 426.75 118.9 425.6 118.25 423.8 116.45 423.15 115.3 422.7 114.1 422.5 112.85 422.5 111.55" fill="#434343" fill-rule="evenodd" stroke="none"/>
    <path d="M291.1 56.9 L288.0 56.3 290.45 43.8 293.55 44.45 291.1 56.9" fill="#434343" fill-rule="evenodd" stroke="none"/>
    <path d="M179.1 36.55 L176.9 49.1 173.75 48.55 175.95 36.0 179.1 36.55" fill="#434343" fill-rule="evenodd" stroke="none"/>
    <path d="M443.5 95.35 L443.5 102.7 415.85 102.7 415.85 95.35 443.5 95.35" fill="#707070" fill-rule="evenodd" stroke="none"/>
    <path d="M421.35 115.9 L421.35 108.25 438.5 108.25 438.5 115.9 421.35 115.9" fill="#707070" fill-rule="evenodd" stroke="none"/>
    <path d="M423.6 111.5 L423.8 110.45 424.15 109.4 424.7 108.45 425.4 107.65 426.25 106.95 427.2 106.4 428.25 106.0 429.3 105.8 430.4 105.8 431.5 106.0 432.5 106.4 433.45 106.95 434.3 107.65 435.0 108.45 435.55 109.4 435.9 110.45 436.1 111.5 436.1 112.6 435.9 113.7 435.55 114.7 435.0 115.65 434.3 116.5 433.45 117.2 432.5 117.75 431.5 118.15 430.4 118.3 429.3 118.3 428.25 118.15 427.2 117.75 426.25 117.2 425.4 116.5 424.7 115.65 424.15 114.7 423.8 113.7 423.6 112.6 423.6 111.5" fill="#707070" fill-rule="evenodd" stroke="none"/>
    <path d="M431.6 74.7 L438.85 74.7 438.85 93.9 416.4 93.9 416.4 90.45 431.6 90.45 431.6 74.7" fill="#707070" fill-rule="evenodd" stroke="none"/>
    <path d="M378.5 84.45 L378.5 88.45 358.25 88.45 358.25 75.25 362.1 75.25 362.1 84.45 378.5 84.45" fill="#707070" fill-rule="evenodd" stroke="none"/>
    <path d="M331.9 57.75 L327.4 78.7 271.35 66.55 272.9 59.3 321.9 69.9 324.85 56.2 331.9 57.75" fill="#707070" fill-rule="evenodd" stroke="none"/>
    <path d="M242.9 45.4 L229.15 45.4 229.15 40.75 242.9 40.75 242.9 45.4" fill="#707070" fill-rule="evenodd" stroke="none"/>
    <path d="M217.0 45.2 L203.25 45.1 203.3 40.5 217.05 40.55 217.0 45.2" fill="#707070" fill-rule="evenodd" stroke="none"/>
    <path d="M9.8 -15.0 L7.55 -10.8 -4.6 -17.35 -2.35 -21.55 9.8 -15.0" fill="#707070" fill-rule="evenodd" stroke="none"/>
    <path d="M57.25 29.3 L52.65 28.05 56.35 14.75 60.95 16.0 57.25 29.3" fill="#707070" fill-rule="evenodd" stroke="none"/>
    <path d="M117.4 -259.35 L113.65 -253.85 98.75 -264.0 102.5 -269.5 117.4 -259.35" fill="#707070" fill-rule="evenodd" stroke="none"/>
    <path d="M35.2 -211.2 L31.0 -205.05 16.1 -215.2 20.3 -221.35 35.2 -211.2" fill="#707070" fill-rule="evenodd" stroke="none"/>
    <path d="M21.6 -191.35 L6.7 -201.5 10.85 -207.65 25.75 -197.5 21.6 -191.35" fill="#707070" fill-rule="evenodd" stroke="none"/>
    <path d="M1.45 -194.15 L16.35 -184.0 12.2 -177.85 -2.7 -188.0 1.45 -194.15" fill="#707070" fill-rule="evenodd" stroke="none"/>
    <path d="M3.5 -165.45 L-3.8 -154.65 -24.5 -168.9 -28.65 -162.9 -10.0 -150.1 -17.6 -139.5 -46.5 -159.75 -43.15 -164.9 -45.0 -166.25 -33.0 -183.4 -31.0 -182.4 -27.5 -186.9 3.5 -165.45" fill="#ffffff" fill-rule="evenodd" stroke="none"/>
    <path d="M530.85 100.75 L531.7 99.25 533.3 100.6 533.4 100.4 534.3 99.35 535.35 98.45 536.6 97.75 537.9 97.25 539.25 97.0 540.7 97.0 542.05 97.25 543.35 97.75 544.6 98.45 545.65 99.35 546.55 100.4 547.25 101.65 547.75 102.95 548.0 104.3 548.0 105.75 547.75 107.1 547.25 108.4 546.55 109.65 545.65 110.7 544.6 111.6 543.35 112.3 542.05 112.8 540.7 113.0 539.25 113.0 537.9 112.8 536.6 112.3 535.35 111.6 534.3 110.7 533.45 109.7 531.7 110.8 530.85 109.3 530.25 107.65 529.95 105.9 529.95 104.15 530.25 102.4 530.85 100.75" fill="#ffffff" fill-rule="evenodd" stroke="none"/>
    <path d="M-56.75 -4.4 L-56.35 -2.65 -56.25 -0.9 -56.45 0.85 -56.9 2.5 -57.7 4.1 -58.75 5.5 -60.0 6.7 -61.15 5.0 -62.45 5.9 -63.75 6.45 -65.1 6.8 -66.5 6.9 -67.9 6.75 -69.2 6.35 -70.5 5.7 -71.6 4.9 -72.55 3.9 -73.35 2.7 -73.9 1.45 -74.25 0.1 -74.35 -1.3 -74.2 -2.7 -73.8 -4.05 -73.15 -5.3 -72.35 -6.45 -71.35 -7.4 -70.15 -8.2 -68.9 -8.75 -67.55 -9.1 -66.15 -9.15 -64.75 -9.0 -63.4 -8.6 -62.15 -8.0 -61.0 -7.2 -60.05 -6.15 -59.25 -5.0 -58.75 -3.85 -56.75 -4.4" fill="#ffffff" fill-rule="evenodd" stroke="none"/>
  </g>
</svg>
