<?xml version="1.0" encoding="UTF-8" standalone="no"?>
<svg xmlns:ffdec="https://www.free-decompiler.com/flash" xmlns:xlink="http://www.w3.org/1999/xlink" ffdec:objectType="shape" height="67.2px" width="38.4px" xmlns="http://www.w3.org/2000/svg">
  <g transform="matrix(1.0, 0.0, 0.0, 1.0, 1.5, 1.5)">
    <path d="M4.0 32.3 Q9.1 26.0 17.7 26.0 26.4 26.0 31.5 32.4 35.4 37.1 35.4 44.1 L35.4 64.2 0.0 64.2 0.0 44.1 Q0.0 37.1 4.0 32.3 M25.7 3.3 Q29.0 6.7 29.0 11.3 29.0 16.0 25.7 19.3 22.4 22.6 17.7 22.6 13.0 22.6 9.7 19.3 6.4 16.0 6.4 11.3 6.4 6.6 9.7 3.3 13.0 0.0 17.7 0.0 22.4 0.0 25.7 3.3" fill="#f5f5f5" fill-rule="evenodd" stroke="none"/>
    <path d="M25.7 3.3 Q22.4 0.0 17.7 0.0 13.0 0.0 9.7 3.3 6.4 6.6 6.4 11.3 6.4 16.0 9.7 19.3 13.0 22.6 17.7 22.6 22.4 22.6 25.7 19.3 29.0 16.0 29.0 11.3 29.0 6.7 25.7 3.3 M4.0 32.3 Q0.0 37.1 0.0 44.1 L0.0 64.2 35.4 64.2 35.4 44.1 Q35.4 37.1 31.5 32.4 26.4 26.0 17.7 26.0 9.1 26.0 4.0 32.3 Z" fill="none" stroke="#000000" stroke-linecap="butt" stroke-linejoin="miter-clip" stroke-miterlimit="10.0" stroke-width="3.0"/>
  </g>
</svg>
