<?xml version="1.0" encoding="UTF-8" standalone="no"?>
<svg xmlns:ffdec="https://www.free-decompiler.com/flash" xmlns:xlink="http://www.w3.org/1999/xlink" ffdec:objectType="shape" height="438.5px" width="667.5px" xmlns="http://www.w3.org/2000/svg">
  <g transform="matrix(1.0, 0.0, 0.0, 1.0, 395.2, 291.35)">
    <path d="M84.3 -19.85 L84.3 147.15 -300.2 147.15 -300.2 142.15 -392.7 142.15 Q-392.7 62.65 -393.2 -17.35 L-395.2 -17.35 -395.2 -187.35 -331.7 -187.35 -331.7 -177.35 -73.7 -177.35 -73.7 -224.85 37.8 -224.85 37.8 -251.35 84.8 -251.35 84.8 -291.35 271.8 -291.35 Q272.3 -155.85 272.3 -20.85 L154.3 -20.85 154.3 -4.85 97.8 -4.85 97.8 -20.85 84.3 -19.85" fill="#424242" fill-rule="evenodd" stroke="none"/>
    <path d="M100.8 -80.85 L124.8 -80.85 124.8 -55.85 127.3 -55.85 127.3 -58.35 150.8 -58.35 150.8 -23.85 100.8 -23.85 100.8 -80.85 M-386.2 -139.85 L-362.2 -139.85 -362.2 -115.35 -360.2 -115.35 -360.2 -117.85 -335.7 -117.85 -335.7 -83.35 -386.2 -83.35 -386.2 -139.85" fill="#ffffff" fill-rule="evenodd" stroke="none"/>
    <path d="M82.8 -248.35 L82.8 -249.85 112.8 -249.85 112.8 -248.35 120.3 -248.35 120.3 -249.85 150.3 -249.85 150.3 -248.35 157.8 -248.35 157.8 -249.85 188.3 -249.85 188.3 -248.35 195.3 -248.35 195.3 -249.85 225.3 -249.85 225.3 -248.35 232.8 -248.35 232.8 -249.85 262.8 -249.85 262.8 -248.35 264.8 -248.35 264.8 -178.85 262.8 -178.85 262.8 -174.85 264.8 -174.85 264.8 -163.85 260.8 -163.85 260.8 -160.85 269.3 -160.85 269.3 -150.35 269.8 -150.35 269.8 -120.35 269.3 -120.35 269.3 -112.85 269.8 -112.85 269.8 -82.85 269.3 -82.85 269.3 -79.35 153.8 -79.35 153.8 -84.85 150.8 -84.85 150.8 -82.85 125.3 -82.85 125.3 -79.85 100.8 -79.85 100.8 -114.85 151.8 -114.85 151.8 -110.85 154.8 -110.85 154.8 -157.85 228.8 -157.85 228.8 -160.85 234.8 -160.85 234.8 -163.85 228.8 -163.85 228.8 -177.35 195.3 -177.35 195.3 -178.85 188.3 -178.85 188.3 -177.35 150.3 -177.35 150.3 -174.85 124.3 -174.85 124.3 -177.35 119.8 -177.35 119.8 -178.85 113.8 -178.85 113.8 -177.35 79.3 -177.35 79.3 -163.85 73.3 -163.85 73.3 -160.85 79.3 -160.85 79.3 -102.85 74.3 -102.85 74.3 -99.85 79.3 -99.85 79.3 -50.35 44.3 -50.35 44.3 -52.35 38.8 -52.35 38.8 -50.35 -30.2 -50.35 -30.2 -52.35 -36.2 -52.35 -36.2 -50.35 -105.2 -50.35 -105.2 -52.35 -108.2 -52.35 -108.2 -99.85 -102.7 -99.85 -102.7 -102.85 -105.2 -102.85 -105.2 -104.85 -110.7 -104.85 -110.7 -102.85 -179.7 -102.85 -179.7 -104.35 -185.7 -104.35 -185.7 -102.85 -224.7 -102.85 -224.7 -100.85 -251.2 -100.85 -251.2 -102.85 -255.2 -102.85 -255.2 -104.85 -260.2 -104.85 -260.2 -102.85 -330.2 -102.85 -330.2 -104.35 -333.2 -104.35 -333.2 -143.85 -336.2 -143.85 -336.2 -142.35 -361.7 -142.35 -361.7 -139.35 -385.7 -139.35 -385.7 -183.85 -335.7 -183.85 -335.7 -169.85 -333.2 -169.85 -333.2 -173.85 -329.2 -173.85 -329.2 -177.35 -299.2 -177.35 -299.2 -173.85 -291.7 -173.85 -291.7 -177.35 -261.7 -177.35 -261.7 -173.85 -254.2 -173.85 -254.2 -177.35 -224.2 -177.35 -224.2 -173.85 -217.2 -173.85 -217.2 -177.35 -186.7 -177.35 -186.7 -173.85 -179.7 -173.85 -179.7 -177.35 -149.2 -177.35 -149.2 -173.85 -141.7 -173.85 -141.7 -177.35 -112.2 -177.35 -112.2 -173.85 -103.7 -173.85 -103.7 -177.35 -74.2 -177.35 -74.2 -173.85 -72.2 -173.85 -72.2 -102.85 -76.2 -102.85 -76.2 -99.85 -71.2 -99.85 -71.2 -96.85 -67.2 -96.85 -67.2 -97.85 -54.2 -97.85 -54.2 -96.85 -29.2 -96.85 -29.2 -97.85 -16.7 -97.85 -16.7 -96.85 43.3 -96.85 43.3 -99.85 47.3 -99.85 47.3 -102.85 42.8 -102.85 42.8 -160.85 47.3 -160.85 47.3 -163.85 42.8 -163.85 42.8 -174.85 44.8 -174.85 44.8 -178.85 42.8 -178.85 42.8 -248.35 45.3 -248.35 45.3 -249.85 75.3 -249.85 75.3 -248.35 82.8 -248.35" fill="#959595" fill-rule="evenodd" stroke="none"/>
    <path d="M-297.2 -136.35 L-297.2 -122.85 -313.7 -122.85 -313.7 -136.35 -297.2 -136.35" fill="#6f6f6f" fill-rule="evenodd" stroke="none"/>
    <path d="M-329.2 -104.85 L-329.2 -118.35 -313.2 -118.35 -313.2 -104.85 -329.2 -104.85" fill="#6f6f6f" fill-rule="evenodd" stroke="none"/>
    <path d="M-310.7 -105.35 L-309.7 -121.85 -295.7 -120.85 Q-296.2 -112.35 -297.2 -103.85 L-310.7 -105.35" fill="#6f6f6f" fill-rule="evenodd" stroke="none"/>
    <path d="M-317.2 -138.35 L-316.2 -121.85 -329.7 -120.85 -330.7 -137.35 -317.2 -138.35" fill="#6f6f6f" fill-rule="evenodd" stroke="none"/>
    <path d="M-293.7 -106.35 L-293.7 -116.35 -287.7 -116.35 -287.7 -106.35 -293.7 -106.35" fill="#6f6f6f" fill-rule="evenodd" stroke="none"/>
    <path d="M-168.2 -103.85 L-168.2 -109.85 -160.2 -109.85 -160.2 -103.85 -168.2 -103.85" fill="#6f6f6f" fill-rule="evenodd" stroke="none"/>
    <path d="M-156.2 -102.85 L-156.2 -113.85 -145.7 -113.85 -145.7 -102.85 -156.2 -102.85" fill="#6f6f6f" fill-rule="evenodd" stroke="none"/>
    <path d="M-141.2 -149.85 L-125.7 -152.35 Q-124.2 -145.85 -123.2 -139.85 L-139.2 -136.85 -141.2 -149.85" fill="#6f6f6f" fill-rule="evenodd" stroke="none"/>
    <path d="M-187.7 -134.85 L-186.7 -151.85 -173.2 -150.85 -174.2 -133.85 -187.7 -134.85" fill="#6f6f6f" fill-rule="evenodd" stroke="none"/>
    <path d="M-221.2 -144.35 L-208.7 -146.35 -206.7 -135.85 -219.2 -133.85 -221.2 -144.35" fill="#6f6f6f" fill-rule="evenodd" stroke="none"/>
    <path d="M-236.7 -151.35 Q-236.2 -152.35 -236.2 -153.35 L-222.7 -149.85 -226.7 -133.85 -256.7 -141.85 Q-254.7 -148.85 -253.2 -155.85 -244.7 -153.35 -236.7 -151.35" fill="#6f6f6f" fill-rule="evenodd" stroke="none"/>
    <path d="M-172.2 -148.35 L-155.7 -147.85 -155.7 -150.85 -141.7 -151.85 -140.7 -135.35 -154.7 -134.35 Q-154.7 -136.85 -155.2 -139.35 L-155.2 -133.85 -172.7 -134.35 Q-172.2 -141.35 -172.2 -148.35" fill="#6f6f6f" fill-rule="evenodd" stroke="none"/>
    <path d="M-73.7 -149.35 L-73.7 -139.85 -80.2 -139.85 -80.2 -149.35 -73.7 -149.35" fill="#6f6f6f" fill-rule="evenodd" stroke="none"/>
    <path d="M-108.2 -79.85 L-108.2 -96.85 -104.2 -96.85 -104.2 -79.85 -108.2 -79.85" fill="#6f6f6f" fill-rule="evenodd" stroke="none"/>
    <path d="M-108.2 -55.35 L-108.2 -77.35 -104.2 -77.35 -104.2 -55.35 -108.2 -55.35" fill="#6f6f6f" fill-rule="evenodd" stroke="none"/>
    <path d="M-94.2 -54.35 L-94.2 -50.35 -98.2 -50.35 -98.2 -54.35 -94.2 -54.35" fill="#6f6f6f" fill-rule="evenodd" stroke="none"/>
    <path d="M-76.7 -50.35 L-76.7 -57.35 -45.2 -57.35 -45.2 -50.35 -76.7 -50.35" fill="#6f6f6f" fill-rule="evenodd" stroke="none"/>
    <path d="M-18.2 -50.35 L-18.2 -57.85 29.3 -57.85 29.3 -50.35 -18.2 -50.35" fill="#6f6f6f" fill-rule="evenodd" stroke="none"/>
    <path d="M-86.7 -51.35 Q-86.2 -55.35 -86.2 -59.35 L-78.2 -58.85 -79.2 -50.35 -86.7 -51.35" fill="#6f6f6f" fill-rule="evenodd" stroke="none"/>
    <path d="M-51.2 -90.35 L-51.2 -96.85 -38.2 -96.85 -38.2 -90.35 -51.2 -90.35" fill="#6f6f6f" fill-rule="evenodd" stroke="none"/>
    <path d="M2.3 -88.85 L2.3 -96.85 41.8 -96.85 41.8 -88.85 2.3 -88.85" fill="#6f6f6f" fill-rule="evenodd" stroke="none"/>
    <path d="M95.3 -186.35 L114.8 -188.35 Q115.3 -183.85 115.3 -179.85 L96.3 -177.85 95.3 -186.35" fill="#6f6f6f" fill-rule="evenodd" stroke="none"/>
    <path d="M53.8 -202.85 L55.8 -212.35 Q58.8 -211.35 61.8 -210.85 L59.8 -201.35 Q56.8 -201.85 53.8 -202.85" fill="#6f6f6f" fill-rule="evenodd" stroke="none"/>
    <path d="M44.8 -220.85 L53.8 -220.35 Q53.8 -215.35 53.3 -210.85 L44.3 -211.35 Q44.8 -215.85 44.8 -220.85" fill="#6f6f6f" fill-rule="evenodd" stroke="none"/>
    <path d="M44.3 -207.35 L50.8 -207.85 51.8 -197.85 45.3 -197.35 44.3 -207.35" fill="#6f6f6f" fill-rule="evenodd" stroke="none"/>
    <path d="M98.8 -217.35 L96.8 -226.35 106.3 -227.85 Q107.3 -223.35 107.8 -218.85 103.3 -217.85 98.8 -217.35" fill="#6f6f6f" fill-rule="evenodd" stroke="none"/>
    <path d="M107.3 -233.85 L116.3 -235.35 117.3 -229.35 108.3 -227.35 107.3 -233.85" fill="#6f6f6f" fill-rule="evenodd" stroke="none"/>
    <path d="M138.3 -246.35 L148.3 -247.35 Q148.8 -243.85 148.8 -240.35 L138.8 -239.35 Q138.8 -242.85 138.3 -246.35" fill="#6f6f6f" fill-rule="evenodd" stroke="none"/>
    <path d="M160.8 -247.85 L160.8 -236.35 149.8 -236.35 149.8 -247.85 160.8 -247.85" fill="#6f6f6f" fill-rule="evenodd" stroke="none"/>
    <path d="M185.8 -247.85 L185.8 -241.35 176.8 -241.35 176.8 -247.85 185.8 -247.85" fill="#6f6f6f" fill-rule="evenodd" stroke="none"/>
    <path d="M177.3 -188.85 L177.3 -176.85 160.8 -176.85 160.8 -188.85 177.3 -188.85" fill="#6f6f6f" fill-rule="evenodd" stroke="none"/>
    <path d="M195.3 -177.85 L195.3 -189.35 206.8 -189.35 206.8 -177.85 195.3 -177.85" fill="#6f6f6f" fill-rule="evenodd" stroke="none"/>
    <path d="M154.8 -123.85 L154.8 -133.85 188.3 -133.85 188.3 -123.85 154.8 -123.85" fill="#6f6f6f" fill-rule="evenodd" stroke="none"/>
    <path d="M154.8 -151.35 L154.8 -157.85 167.8 -157.85 167.8 -151.35 154.8 -151.35" fill="#6f6f6f" fill-rule="evenodd" stroke="none"/>
    <path d="M168.8 -154.85 L168.8 -157.85 181.8 -157.85 181.8 -154.85 168.8 -154.85" fill="#6f6f6f" fill-rule="evenodd" stroke="none"/>
    <path d="M261.3 -140.35 L269.3 -140.35 269.3 -132.35 261.3 -132.35 261.3 -140.35" fill="#6f6f6f" fill-rule="evenodd" stroke="none"/>
    <path d="M194.3 -79.35 L194.3 -87.35 226.3 -87.35 226.3 -79.35 194.3 -79.35" fill="#6f6f6f" fill-rule="evenodd" stroke="none"/>
    <path d="M265.8 -110.35 L265.8 -122.35 269.3 -122.35 269.3 -110.35 265.8 -110.35" fill="#6f6f6f" fill-rule="evenodd" stroke="none"/>
    <path d="M196.8 -149.35 L188.8 -149.35 188.8 -153.85 184.8 -153.85 184.8 -157.85 202.3 -157.85 Q202.3 -155.85 201.8 -153.85 L196.8 -153.85 196.8 -149.35" fill="#6f6f6f" fill-rule="evenodd" stroke="none"/>
    <path d="M176.8 -200.85 L176.8 -189.85 165.3 -189.85 165.3 -200.85 176.8 -200.85" fill="#6f6f6f" fill-rule="evenodd" stroke="none"/>
    <path d="M160.8 -187.85 Q160.8 -182.85 160.3 -178.35 L150.3 -178.85 Q150.8 -183.35 150.8 -188.35 L160.8 -187.85" fill="#6f6f6f" fill-rule="evenodd" stroke="none"/>
    <path d="M193.3 -191.35 L194.3 -179.35 178.3 -178.35 177.3 -190.35 193.3 -191.35" fill="#6f6f6f" fill-rule="evenodd" stroke="none"/>
    <path d="M197.3 -231.35 Q192.8 -230.35 187.8 -229.85 L186.8 -236.35 196.3 -237.85 197.3 -231.35 196.3 -240.85 207.8 -241.85 208.8 -230.35 197.3 -229.35 197.3 -231.35" fill="#6f6f6f" fill-rule="evenodd" stroke="none"/>
    <path d="M196.3 -238.35 L187.3 -237.85 186.3 -246.85 195.8 -247.85 Q196.3 -242.85 196.3 -238.35" fill="#6f6f6f" fill-rule="evenodd" stroke="none"/>
    <path d="M263.3 -233.35 Q263.8 -228.35 263.8 -223.35 L257.8 -222.85 256.8 -232.85 263.3 -233.35" fill="#6f6f6f" fill-rule="evenodd" stroke="none"/>
    <path d="M105.3 -237.85 L106.3 -228.85 88.3 -226.85 87.3 -236.35 105.3 -237.85" fill="#6f6f6f" fill-rule="evenodd" stroke="none"/>
    <path d="M87.3 -237.85 L87.3 -243.85 Q86.8 -235.85 85.8 -228.35 L76.3 -229.35 Q77.3 -238.35 77.8 -247.35 L87.3 -246.85 87.3 -247.35 Q96.8 -247.35 105.8 -247.85 106.3 -242.85 106.3 -238.35 96.8 -237.85 87.3 -237.85" fill="#6f6f6f" fill-rule="evenodd" stroke="none"/>
    <path d="M107.3 -245.85 L126.3 -247.35 127.3 -237.85 108.3 -236.35 107.3 -245.85" fill="#6f6f6f" fill-rule="evenodd" stroke="none"/>
  </g>
</svg>
