<?xml version="1.0" encoding="UTF-8" standalone="no"?>
<svg xmlns:ffdec="https://www.free-decompiler.com/flash" xmlns:xlink="http://www.w3.org/1999/xlink" ffdec:objectType="shape" height="624.5px" width="496.2px" xmlns="http://www.w3.org/2000/svg">
  <g transform="matrix(1.0, 0.0, 0.0, 1.0, 260.4, 284.9)">
    <path d="M-209.9 -271.0 L-209.9 -284.9 235.8 -284.9 235.8 339.6 -209.9 339.6 -209.9 240.55 -260.4 240.55 -260.4 -271.0 -209.9 -271.0" fill="#434343" fill-rule="evenodd" stroke="none"/>
    <path d="M156.45 -216.9 L156.45 -217.0 205.2 -217.0 205.2 -265.0 226.15 -265.0 226.15 215.55 156.45 215.55 156.45 188.5 153.95 188.5 153.95 99.35 156.45 99.35 156.45 71.05 134.95 71.05 134.95 95.1 148.85 95.1 148.85 99.1 150.35 99.1 150.35 188.25 148.85 188.25 148.85 192.55 32.45 192.55 32.45 198.2 104.5 198.2 104.5 265.55 90.85 265.55 90.85 296.4 60.55 296.4 60.55 265.55 30.5 265.55 30.5 296.4 0.2 296.4 0.2 265.55 -14.6 265.55 -14.6 198.2 -1.95 198.2 -1.95 192.55 -9.8 192.55 -9.8 95.1 74.85 95.1 74.85 71.05 -19.35 71.05 -19.35 -120.6 52.25 -120.6 52.25 -217.0 156.45 -216.9" fill="#969696" fill-rule="evenodd" stroke="none"/>
    <path d="M45.25 -72.45 L6.6 -32.55 59.4 19.5 50.05 29.35 -12.6 -33.55 33.9 -82.05 45.25 -72.45" fill="#434343" fill-rule="evenodd" stroke="none"/>
    <path d="M210.4 -255.55 L212.95 -257.6 216.1 -258.55 219.35 -258.2 222.25 -256.65 224.3 -254.1 225.25 -250.95 224.9 -247.65 223.3 -244.8 220.75 -242.7 217.6 -241.8 214.35 -242.15 211.45 -243.7 209.4 -246.25 208.45 -249.4 208.8 -252.65 210.4 -255.55" fill="#434343" fill-rule="evenodd" stroke="none"/>
    <path d="M220.75 -130.3 L217.6 -129.35 214.35 -129.7 211.45 -131.3 209.4 -133.85 208.45 -137.0 208.8 -140.25 210.4 -143.15 212.95 -145.2 216.1 -146.15 219.35 -145.8 222.25 -144.2 224.3 -141.65 225.25 -138.5 224.9 -135.25 223.3 -132.35 220.75 -130.3" fill="#434343" fill-rule="evenodd" stroke="none"/>
    <path d="M212.95 -32.1 L216.1 -33.0 219.35 -32.65 222.25 -31.1 224.3 -28.55 225.25 -25.4 224.9 -22.15 223.3 -19.25 220.75 -17.2 217.6 -16.25 214.35 -16.6 211.45 -18.15 209.4 -20.7 208.45 -23.85 208.8 -27.15 210.4 -30.0 212.95 -32.1" fill="#434343" fill-rule="evenodd" stroke="none"/>
    <path d="M225.25 86.6 L224.9 89.85 223.3 92.75 220.75 94.8 217.6 95.75 214.35 95.4 211.45 93.8 209.4 91.25 208.45 88.1 208.8 84.85 210.4 81.95 212.95 79.9 216.1 78.95 219.35 79.3 222.25 80.9 224.3 83.45 225.25 86.6" fill="#434343" fill-rule="evenodd" stroke="none"/>
    <path d="M220.6 207.55 L217.45 208.45 214.15 208.1 211.3 206.55 209.2 204.0 208.3 200.85 208.65 197.6 210.2 194.7 212.75 192.65 215.9 191.7 219.15 192.05 222.05 193.6 224.1 196.15 225.05 199.3 224.7 202.6 223.15 205.45 220.6 207.55" fill="#434343" fill-rule="evenodd" stroke="none"/>
  </g>
</svg>
