<?xml version="1.0" encoding="UTF-8" standalone="no"?>
<svg xmlns:ffdec="https://www.free-decompiler.com/flash" xmlns:xlink="http://www.w3.org/1999/xlink" ffdec:objectType="shape" height="624.5px" width="496.2px" xmlns="http://www.w3.org/2000/svg">
  <g transform="matrix(1.0, 0.0, 0.0, 1.0, 260.4, 284.9)">
    <path d="M-209.9 -271.0 L-209.9 -284.9 235.8 -284.9 235.8 339.6 -209.9 339.6 -209.9 240.55 -260.4 240.55 -260.4 -271.0 -209.9 -271.0" fill="#434343" fill-rule="evenodd" stroke="none"/>
    <path d="M-64.65 -89.5 L-70.55 -89.5 -70.55 38.95 -64.65 38.95 -64.65 -89.5 M51.45 73.1 L51.45 76.6 150.85 76.6 150.85 165.0 149.35 165.0 149.35 165.2 154.15 165.2 154.15 73.1 51.45 73.1 M26.05 77.85 L26.05 71.15 -9.3 71.15 -9.3 102.1 9.25 102.1 9.25 78.05 26.05 77.85 M59.9 -225.95 L55.65 -225.95 55.65 -126.25 -32.65 -126.25 -32.65 -122.5 59.9 -122.5 59.9 -225.95 M53.0 -251.7 L59.9 -251.7 59.9 -252.1 63.6 -252.1 63.6 -266.1 157.55 -266.1 157.55 -220.25 108.3 -220.25 108.3 -72.3 203.05 23.05 203.05 214.4 154.15 214.4 154.15 190.9 149.35 190.9 149.35 227.4 9.25 227.4 9.25 143.3 -9.3 143.3 -9.3 227.65 -12.95 227.65 -12.95 232.6 -9.15 232.6 -9.15 333.2 -186.65 333.2 -186.65 234.75 -60.7 234.75 -60.7 232.6 -39.3 232.6 -39.3 229.2 -59.95 229.2 -59.95 227.65 -63.85 227.65 -63.85 223.1 -66.15 223.1 -66.15 82.9 -63.85 82.9 -63.85 65.5 -72.1 65.5 -72.1 71.9 -199.8 71.9 -199.8 -120.95 -72.1 -120.95 -72.1 -115.3 -63.4 -115.3 -63.35 -120.6 -58.05 -120.6 -58.05 -128.55 -103.55 -128.55 -103.55 -268.0 53.0 -268.0 53.0 -251.7" fill="#969696" fill-rule="evenodd" stroke="none"/>
    <path d="M-121.2 236.0 L-121.2 277.2 -130.05 277.2 -130.05 236.0 -121.2 236.0" fill="#707070" fill-rule="evenodd" stroke="none"/>
    <path d="M-75.0 277.95 L-115.9 277.95 -115.9 268.85 -75.0 268.85 -75.0 277.95" fill="#707070" fill-rule="evenodd" stroke="none"/>
    <path d="M110.95 166.05 L110.95 191.3 47.55 191.3 47.55 166.05 110.95 166.05" fill="#707070" fill-rule="evenodd" stroke="none"/>
    <path d="M95.55 122.3 L71.55 122.3 71.55 110.45 95.55 110.45 95.55 122.3" fill="#707070" fill-rule="evenodd" stroke="none"/>
    <path d="M130.05 99.35 L139.8 117.5 126.25 124.75 116.5 106.6 130.05 99.35" fill="#707070" fill-rule="evenodd" stroke="none"/>
    <path d="M108.2 76.6 L108.2 92.0 58.4 92.0 58.4 76.6 108.2 76.6" fill="#707070" fill-rule="evenodd" stroke="none"/>
    <path d="M201.9 205.7 L166.3 205.7 166.3 193.8 201.9 193.8 201.9 205.7" fill="#707070" fill-rule="evenodd" stroke="none"/>
    <path d="M43.75 227.4 L43.75 244.85 15.2 244.85 15.2 227.4 43.75 227.4" fill="#707070" fill-rule="evenodd" stroke="none"/>
    <path d="M143.55 244.85 L115.0 244.85 115.0 227.4 143.55 227.4 143.55 244.85" fill="#707070" fill-rule="evenodd" stroke="none"/>
    <path d="M65.75 -24.95 L51.8 -38.9 65.05 -52.15 79.0 -38.25 65.75 -24.95" fill="#707070" fill-rule="evenodd" stroke="none"/>
    <path d="M-90.3 -128.95 L-101.9 -149.0 -87.4 -157.35 -75.8 -137.3 -90.3 -128.95" fill="#707070" fill-rule="evenodd" stroke="none"/>
    <path d="M28.15 -38.8 L64.2 -2.75 52.8 8.65 16.75 -27.4 28.15 -38.8" fill="#707070" fill-rule="evenodd" stroke="none"/>
    <path d="M97.7 -22.9 L105.85 -8.8 86.75 2.2 78.65 -11.9 97.7 -22.9" fill="#707070" fill-rule="evenodd" stroke="none"/>
    <path d="M-103.55 -134.25 L-115.65 -134.25 -115.65 -161.15 -103.55 -161.15 -103.55 -134.25" fill="#707070" fill-rule="evenodd" stroke="none"/>
    <path d="M-114.15 -261.55 L-103.55 -261.55 -103.55 -234.65 -114.15 -234.65 -114.15 -261.55" fill="#707070" fill-rule="evenodd" stroke="none"/>
    <path d="M-100.1 -111.85 L-169.85 -111.85 -169.85 -120.95 -100.1 -120.95 -100.1 -111.85" fill="#707070" fill-rule="evenodd" stroke="none"/>
    <path d="M-115.65 -68.3 L-115.65 18.1 -153.95 18.1 -153.95 -68.3 -115.65 -68.3" fill="#707070" fill-rule="evenodd" stroke="none"/>
    <path d="M-100.1 71.9 L-169.45 71.9 -169.45 63.2 -100.1 63.2 -100.1 71.9" fill="#707070" fill-rule="evenodd" stroke="none"/>
    <path d="M45.25 -72.45 L6.6 -32.55 59.4 19.5 50.05 29.35 -12.6 -33.55 33.9 -82.05 45.25 -72.45" fill="#434343" fill-rule="evenodd" stroke="none"/>
    <path d="M157.55 -220.25 L157.55 -266.1 205.7 -266.1 205.7 -115.65 193.9 -105.1 150.35 -62.6 122.05 -90.4 165.25 -133.35 165.25 -220.25 157.55 -220.25" fill="#ffffff" fill-rule="evenodd" stroke="none"/>
    <path d="M-183.85 239.4 L-144.1 239.4 -144.1 291.35 -72.2 291.35 -72.2 326.7 -183.85 326.7 -183.85 239.4" fill="#ffffff" fill-rule="evenodd" stroke="none"/>
  </g>
</svg>
