<?xml version="1.0" encoding="UTF-8" standalone="no"?>
<svg xmlns:ffdec="https://www.free-decompiler.com/flash" xmlns:xlink="http://www.w3.org/1999/xlink" ffdec:objectType="shape" height="592.8px" width="389.55px" xmlns="http://www.w3.org/2000/svg">
  <g transform="matrix(1.0, 0.0, 0.0, 1.0, 183.85, 266.1)">
    <path d="M157.55 -220.25 L157.55 -266.1 205.7 -266.1 205.7 -115.65 193.9 -105.1 150.35 -62.6 122.05 -90.4 165.25 -133.35 165.25 -220.25 157.55 -220.25" fill="#ffffff" fill-rule="evenodd" stroke="none"/>
    <path d="M-183.85 239.4 L-144.1 239.4 -144.1 291.35 -72.2 291.35 -72.2 326.7 -183.85 326.7 -183.85 239.4" fill="#ffffff" fill-rule="evenodd" stroke="none"/>
    <path d="M205.7 -217.0 L205.7 -115.65 193.9 -105.1 150.35 -62.6 122.05 -90.4 165.25 -133.35 166.55 -217.0 205.7 -217.0" fill="#ffffff" fill-rule="evenodd" stroke="none"/>
    <path d="M41.25 272.7 L41.25 324.1 -10.8 324.1 -10.8 272.7 41.25 272.7" fill="#ffffff" fill-rule="evenodd" stroke="none"/>
    <path d="M101.35 324.1 L49.3 324.1 49.3 272.7 101.35 272.7 101.35 324.1" fill="#ffffff" fill-rule="evenodd" stroke="none"/>
  </g>
</svg>
