<?xml version="1.0" encoding="UTF-8" standalone="no"?>
<svg xmlns:ffdec="https://www.free-decompiler.com/flash" xmlns:xlink="http://www.w3.org/1999/xlink" ffdec:objectType="shape" height="383.45px" width="396.45px" xmlns="http://www.w3.org/2000/svg">
  <g transform="matrix(1.0, 0.0, 0.0, 1.0, 194.95, 172.45)">
    <path d="M125.0 -172.45 L196.5 -172.45 196.5 -105.95 201.0 -105.95 201.5 93.5 193.0 93.5 193.0 173.5 100.5 211.0 100.5 91.5 30.55 91.5 30.55 94.0 13.55 94.0 13.55 91.5 -81.45 91.5 -81.45 94.0 -97.95 94.0 -97.95 91.5 -147.45 91.5 -194.95 54.0 -194.95 -100.95 -50.95 -100.95 -50.95 -105.45 -40.95 -105.45 -40.95 -164.45 29.55 -164.45 30.55 -163.45 125.0 -163.45 125.0 -172.45" fill="#424242" fill-rule="evenodd" stroke="none"/>
    <path d="M-146.95 86.0 L-146.95 86.5 -145.95 87.5 -144.95 87.5 -114.95 51.0 -114.95 50.0 -115.45 49.5 -116.95 49.5 -146.95 86.0 M102.5 -161.45 L102.5 -145.95 125.5 -145.95 125.5 -63.95 87.0 -63.95 87.0 -60.95 89.5 -60.95 89.5 -55.95 102.2 -55.95 102.2 4.55 105.0 4.55 105.0 0.55 153.5 0.55 153.5 4.55 154.0 4.55 154.0 17.55 153.5 17.55 153.5 26.05 156.5 26.05 156.5 61.5 105.0 61.5 105.0 17.55 102.2 17.55 102.2 65.5 105.0 65.5 105.0 63.5 154.5 63.5 154.5 139.5 104.3 139.5 104.3 89.0 108.0 89.0 108.0 84.0 105.0 84.0 105.0 78.5 102.6 78.5 102.6 88.9 83.5 88.9 73.0 90.5 63.0 88.9 30.05 89.0 30.05 84.0 13.55 84.0 13.55 89.0 -81.45 89.0 -81.45 84.0 -97.95 84.0 -97.95 89.5 -147.45 89.5 -192.95 53.5 -186.45 53.5 -186.45 36.55 -193.45 36.55 -193.45 17.55 -186.95 17.55 -186.95 0.55 -191.45 0.55 -191.45 -55.95 -97.95 -55.95 -97.95 -54.45 -81.45 -54.45 -81.45 -55.95 13.55 -55.95 13.55 -54.45 30.05 -54.45 30.05 -60.95 33.05 -60.95 33.05 -63.95 -35.45 -63.95 -35.45 -161.45 29.55 -161.45 29.55 -145.95 46.05 -145.95 46.05 -161.45 102.5 -161.45" fill="#959595" fill-rule="evenodd" stroke="none"/>
    <path d="M29.55 -161.45 L29.55 -153.95 -17.45 -153.95 -17.45 -161.45 29.55 -161.45" fill="#6f6f6f" fill-rule="evenodd" stroke="none"/>
    <path d="M-16.95 -63.95 L-30.95 -63.95 -30.95 -74.45 -16.95 -74.45 -16.95 -63.95" fill="#6f6f6f" fill-rule="evenodd" stroke="none"/>
    <path d="M20.05 -63.95 L-6.45 -63.95 -6.45 -72.45 20.05 -72.45 20.05 -63.95" fill="#6f6f6f" fill-rule="evenodd" stroke="none"/>
    <path d="M125.5 -64.45 L117.0 -64.45 117.0 -110.45 125.5 -110.45 125.5 -64.45" fill="#6f6f6f" fill-rule="evenodd" stroke="none"/>
    <path d="M125.5 -114.95 L118.0 -114.95 118.0 -128.95 125.5 -128.95 125.5 -114.95" fill="#6f6f6f" fill-rule="evenodd" stroke="none"/>
    <path d="M125.5 -129.45 L118.5 -129.45 118.5 -144.45 125.5 -144.45 125.5 -129.45" fill="#6f6f6f" fill-rule="evenodd" stroke="none"/>
    <path d="M140.5 0.55 L140.5 7.05 128.5 7.05 128.5 0.55 140.5 0.55" fill="#6f6f6f" fill-rule="evenodd" stroke="none"/>
    <path d="M128.0 4.05 L123.0 4.05 123.0 0.55 128.0 0.55 128.0 4.05" fill="#6f6f6f" fill-rule="evenodd" stroke="none"/>
    <path d="M143.0 44.05 L118.0 44.05 118.0 32.55 143.0 32.55 143.0 44.05" fill="#6f6f6f" fill-rule="evenodd" stroke="none"/>
    <path d="M156.5 61.5 L150.5 61.5 150.5 55.5 156.5 55.5 156.5 61.5" fill="#6f6f6f" fill-rule="evenodd" stroke="none"/>
    <path d="M129.5 61.5 L111.5 61.5 111.5 57.5 129.5 57.5 129.5 61.5" fill="#6f6f6f" fill-rule="evenodd" stroke="none"/>
    <path d="M105.0 58.5 L105.0 46.5 109.5 46.5 109.5 58.5 105.0 58.5" fill="#6f6f6f" fill-rule="evenodd" stroke="none"/>
    <path d="M140.0 139.5 L129.5 139.5 129.5 114.5 140.0 114.5 140.0 139.5" fill="#6f6f6f" fill-rule="evenodd" stroke="none"/>
    <path d="M154.5 139.5 L148.5 139.5 148.5 133.5 154.5 133.5 154.5 139.5" fill="#6f6f6f" fill-rule="evenodd" stroke="none"/>
    <path d="M154.5 92.5 L148.5 92.5 148.5 82.0 154.5 82.0 154.5 92.5" fill="#6f6f6f" fill-rule="evenodd" stroke="none"/>
    <path d="M154.5 111.0 L150.5 111.0 150.5 94.0 154.5 94.0 154.5 111.0" fill="#6f6f6f" fill-rule="evenodd" stroke="none"/>
    <path d="M154.5 80.5 L150.5 80.5 150.5 76.0 154.5 76.0 154.5 80.5" fill="#6f6f6f" fill-rule="evenodd" stroke="none"/>
    <path d="M-153.45 69.5 L-158.95 64.5 Q-147.45 51.0 -136.45 37.55 L-133.45 36.55 -130.95 37.05 -116.95 50.0 Q-118.95 53.0 -121.45 56.0 L-133.45 45.55 -153.45 69.5" fill="#6f6f6f" fill-rule="evenodd" stroke="none"/>
    <path d="M-47.45 -55.95 L-47.45 -51.95 -67.95 -51.95 -67.95 -55.95 -47.45 -55.95" fill="#6f6f6f" fill-rule="evenodd" stroke="none"/>
    <path d="M9.55 -55.95 L9.55 -51.45 -10.95 -51.45 -10.95 -55.95 9.55 -55.95" fill="#6f6f6f" fill-rule="evenodd" stroke="none"/>
    <path d="M21.55 -53.95 L21.55 -47.45 15.05 -47.45 15.05 -53.95 21.55 -53.95" fill="#6f6f6f" fill-rule="evenodd" stroke="none"/>
    <path d="M-73.45 -55.95 L-73.45 -51.95 -81.45 -51.95 -81.45 -55.95 -73.45 -55.95" fill="#6f6f6f" fill-rule="evenodd" stroke="none"/>
    <path d="M-149.45 -35.45 L-149.45 -19.95 -164.45 -19.95 -164.45 -35.45 -149.45 -35.45" fill="#6f6f6f" fill-rule="evenodd" stroke="none"/>
    <path d="M-174.95 -42.95 L-174.95 -13.45 -183.95 -13.45 -183.95 -42.95 -174.95 -42.95" fill="#6f6f6f" fill-rule="evenodd" stroke="none"/>
    <path d="M-172.45 -54.45 L-143.45 -54.45 -143.45 -45.45 -172.45 -45.45 -172.45 -54.45" fill="#6f6f6f" fill-rule="evenodd" stroke="none"/>
    <path d="M-95.95 68.0 L-92.45 66.0 -87.95 67.0 Q-86.45 68.5 -85.45 70.0 L-85.45 74.5 -88.45 77.5 -92.45 78.5 -95.95 76.0 Q-96.45 74.0 -97.45 72.0 -96.45 70.0 -95.95 68.0" fill="#6f6f6f" fill-rule="evenodd" stroke="none"/>
    <path d="M8.55 84.5 L4.55 85.5 1.05 83.0 Q0.55 81.0 -0.45 79.0 0.55 77.0 1.05 75.0 L4.55 73.0 9.05 74.0 11.55 77.0 11.55 81.5 8.55 84.5" fill="#6f6f6f" fill-rule="evenodd" stroke="none"/>
    <path d="M-0.95 -85.95 L-0.95 -92.45 Q-2.95 -94.45 -5.45 -96.45 L-3.95 -97.45 0.55 -93.45 5.55 -93.45 10.55 -97.45 11.55 -96.45 7.05 -92.45 7.05 -85.95 -0.95 -85.95" fill="#6f6f6f" fill-rule="evenodd" stroke="none"/>
    <path d="M0.55 -113.95 L-3.95 -109.95 -5.45 -111.45 Q-2.95 -113.45 -0.95 -115.45 L-0.95 -121.45 7.05 -121.45 7.05 -115.45 Q9.55 -113.45 11.55 -111.45 11.05 -110.45 10.55 -109.95 L5.55 -113.95 0.55 -113.95" fill="#6f6f6f" fill-rule="evenodd" stroke="none"/>
    <path d="M102.0 -18.45 L102.0 -2.95 93.0 -2.95 93.0 -18.45 102.0 -18.45" fill="#6f6f6f" fill-rule="evenodd" stroke="none"/>
    <path d="M83.5 91.5 L63.0 91.5 63.0 88.9 83.5 88.9 83.5 91.5" fill="#ffffff" fill-rule="evenodd" stroke="none"/>
    <path d="M102.5 -160.95 L46.05 -160.95 46.05 -163.45 102.5 -163.45 102.5 -160.95" fill="#ffffff" fill-rule="evenodd" stroke="none"/>
    <path d="M-193.45 36.55 L-194.95 36.55 -194.95 17.55 -193.45 17.55 -193.45 36.55" fill="#ffffff" fill-rule="evenodd" stroke="none"/>
  </g>
</svg>
