<?xml version="1.0" encoding="UTF-8" standalone="no"?>
<svg xmlns:ffdec="https://www.free-decompiler.com/flash" xmlns:xlink="http://www.w3.org/1999/xlink" ffdec:objectType="shape" height="108.9px" width="49.25px" xmlns="http://www.w3.org/2000/svg">
  <g transform="matrix(1.0, 0.0, 0.0, 1.0, 23.75, 95.6)">
    <path d="M25.0 -87.55 Q25.5 -83.95 25.5 -79.05 25.5 -73.7 24.6 -70.0 24.15 -68.15 23.6 -67.25 23.4 -66.85 22.3 -66.35 17.65 -64.15 0.5 -64.15 L-15.5 -65.0 Q-19.3 -65.65 -20.8 -66.45 -21.9 -67.0 -22.35 -68.3 -23.75 -72.15 -23.75 -80.75 -23.75 -87.3 -22.4 -91.3 -22.25 -91.9 -21.7 -92.5 L-20.1 -93.65 Q-15.1 -95.6 1.25 -95.6 17.05 -95.6 22.05 -93.6 23.4 -93.2 23.95 -91.8 24.55 -90.6 25.0 -87.55 M23.5 -87.45 Q23.15 -90.15 22.6 -91.25 22.35 -92.0 21.6 -92.2 L21.55 -92.25 Q16.7 -94.15 1.25 -94.15 -14.75 -94.15 -19.55 -92.3 -20.7 -91.9 -20.95 -91.05 L-21.0 -90.9 Q-22.3 -87.1 -22.3 -80.75 -22.3 -75.5 -21.7 -71.85 L-20.95 -68.75 -20.9 -68.7 Q-20.75 -68.05 -20.2 -67.75 -18.8 -67.0 -15.35 -66.5 L0.5 -65.65 Q17.35 -65.65 21.7 -67.65 L22.4 -68.1 23.3 -71.0 Q24.05 -74.35 24.05 -79.05 24.05 -83.95 23.5 -87.45 M5.45 -81.6 L13.75 -73.4 -11.75 -73.4 -3.6 -81.6 -3.6 -87.95 5.45 -88.05 5.45 -81.6 M4.05 -86.6 L-2.15 -86.55 -2.15 -81.0 -8.3 -74.8 10.2 -74.8 4.05 -81.05 4.05 -86.6 M3.9 -6.75 Q6.5 -5.85 8.15 -3.85 10.2 -1.2 10.2 2.5 L10.2 13.3 -8.75 13.3 -8.75 2.5 Q-8.75 -1.3 -6.6 -3.9 -4.95 -5.85 -2.4 -6.75 L0.8 -7.25 3.9 -6.75 M0.7 -21.15 Q2.1 -21.15 3.35 -20.55 L4.5 -19.85 5.45 -18.8 6.0 -18.05 Q6.8 -16.7 6.8 -15.1 L6.65 -13.85 6.25 -12.5 6.05 -12.15 5.2 -11.0 5.15 -10.95 4.1 -10.1 3.7 -9.8 Q2.25 -9.05 0.7 -9.05 -0.85 -9.05 -2.2 -9.8 L-2.7 -10.1 -3.7 -10.95 -3.75 -11.0 -4.6 -12.15 -4.75 -12.5 -5.2 -13.85 -5.3 -15.1 Q-5.3 -16.7 -4.55 -18.05 L-4.0 -18.8 -3.1 -19.8 -3.0 -19.85 -1.9 -20.55 Q-0.6 -21.15 0.7 -21.15" fill="#ffffff" fill-rule="evenodd" stroke="none"/>
  </g>
</svg>
