<?xml version="1.0" encoding="UTF-8" standalone="no"?>
<svg xmlns:ffdec="https://www.free-decompiler.com/flash" xmlns:xlink="http://www.w3.org/1999/xlink" ffdec:objectType="shape" height="226.0px" width="900.75px" xmlns="http://www.w3.org/2000/svg">
  <g transform="matrix(1.0, 0.0, 0.0, 1.0, -509.25, -382.5)">
    <path d="M1410.0 384.0 L1410.0 605.95 Q1410.0 606.6 1409.4 607.05 1408.85 607.5 1408.0 607.5 L512.0 607.5 Q511.15 607.5 510.55 607.05 510.0 606.6 510.0 605.95 L510.0 384.0 Q510.0 383.35 510.55 382.95 511.15 382.5 512.0 382.5 L1408.0 382.5 Q1408.85 382.5 1409.4 382.95 1410.0 383.4 1410.0 384.0" fill="#292f37" fill-rule="evenodd" stroke="none"/>
    <path d="M1409.5 384.15 L1409.5 606.85 Q1409.5 607.35 1409.05 607.65 L1408.0 608.0 512.0 608.0 Q511.35 608.0 510.95 607.65 510.5 607.35 510.5 606.85 L510.5 384.15 Q510.5 383.7 510.95 383.35 511.35 383.0 512.0 383.0 L1408.0 383.0 Q1408.6 383.0 1409.05 383.35 1409.5 383.7 1409.5 384.15 Z" fill="none" stroke="#ffffff" stroke-linecap="butt" stroke-linejoin="miter-clip" stroke-miterlimit="4.0" stroke-opacity="0.09803922" stroke-width="1.0"/>
    <path d="M1408.0 383.0 Q1408.6 383.0 1409.05 383.45 1409.5 383.9 1409.5 384.5 L1409.5 430.0 510.5 430.0 510.5 384.5 Q510.5 383.9 510.95 383.45 511.35 383.0 512.0 383.0 L1408.0 383.0" fill="#39424f" fill-rule="evenodd" stroke="none"/>
    <path d="M1408.0 383.0 L512.0 383.0 Q511.35 383.0 510.95 383.45 510.5 383.9 510.5 384.5 L510.5 430.0 1409.5 430.0 1409.5 384.5 Q1409.5 383.9 1409.05 383.45 1408.6 383.0 1408.0 383.0 Z" fill="none" stroke="#3e434b" stroke-linecap="butt" stroke-linejoin="miter-clip" stroke-miterlimit="4.0" stroke-width="1.0"/>
  </g>
</svg>
