<?xml version="1.0" encoding="UTF-8" standalone="no"?>
<svg xmlns:ffdec="https://www.free-decompiler.com/flash" xmlns:xlink="http://www.w3.org/1999/xlink" ffdec:objectType="shape" height="33.0px" width="25.5px" xmlns="http://www.w3.org/2000/svg">
  <g transform="matrix(1.0, 0.0, 0.0, 1.0, 9.25, 0.7)">
    <path d="M5.3 -0.7 L7.25 1.25 7.35 8.7 7.7 8.3 9.8 8.3 11.75 10.25 11.75 11.75 12.2 11.3 14.3 11.3 16.25 13.25 16.25 21.3 13.25 31.8 12.5 32.3 -1.0 32.3 -1.65 31.85 -4.65 24.35 -9.25 16.65 -9.25 13.55 -8.5 12.8 -5.5 12.8 -4.8 13.2 -3.25 15.6 -3.25 9.9 -1.3 7.85 0.8 7.85 1.25 8.3 1.25 1.25 3.2 -0.7 5.3 -0.7" fill="#000000" fill-rule="evenodd" stroke="none"/>
    <path d="M9.2 9.8 L10.25 10.85 10.25 16.55 11.75 16.55 11.75 13.85 12.8 12.8 13.7 12.8 14.75 13.85 14.75 21.0 12.0 30.8 -0.45 30.8 -3.3 23.7 -7.75 16.5 -7.75 14.3 -5.85 14.3 -3.1 18.5 -1.75 18.05 -1.75 10.4 -0.7 9.35 0.2 9.35 1.25 10.4 1.25 15.05 2.75 15.05 2.75 1.85 3.8 0.8 4.7 0.8 5.75 1.85 5.75 15.05 7.25 15.05 7.25 10.85 8.3 9.8 9.2 9.8" fill="#ffffff" fill-rule="evenodd" stroke="none"/>
  </g>
</svg>
