<?xml version="1.0" encoding="UTF-8" standalone="no"?>
<svg xmlns:ffdec="https://www.free-decompiler.com/flash" xmlns:xlink="http://www.w3.org/1999/xlink" ffdec:objectType="shape" height="30.0px" width="12.0px" xmlns="http://www.w3.org/2000/svg">
  <g transform="matrix(1.0, 0.0, 0.0, 1.0, 0.8, 0.85)">
    <path d="M9.7 -0.85 L11.2 -0.85 11.2 5.15 8.2 5.15 8.2 23.15 9.7 23.15 11.2 23.15 11.2 29.15 -0.8 29.15 -0.8 27.65 -0.8 23.15 2.2 23.15 2.2 5.15 -0.8 5.15 -0.8 3.65 -0.8 -0.85 9.7 -0.85 M2.2 3.65 L3.7 3.65 3.7 24.65 0.7 24.65 0.7 27.65 9.7 27.65 9.7 24.65 6.7 24.65 6.7 23.15 6.7 3.65 9.7 3.65 9.7 0.65 0.7 0.65 0.7 3.65 2.2 3.65" fill="#000000" fill-rule="evenodd" stroke="none"/>
    <path d="M2.2 3.65 L0.7 3.65 0.7 0.65 9.7 0.65 9.7 3.65 6.7 3.65 6.7 23.15 6.7 24.65 9.7 24.65 9.7 27.65 0.7 27.65 0.7 24.65 3.7 24.65 3.7 3.65 2.2 3.65" fill="#ffffff" fill-rule="evenodd" stroke="none"/>
  </g>
</svg>
