<?xml version="1.0" encoding="UTF-8" standalone="no"?>
<svg xmlns:ffdec="https://www.free-decompiler.com/flash" xmlns:xlink="http://www.w3.org/1999/xlink" ffdec:objectType="shape" height="41.75px" width="461.0px" xmlns="http://www.w3.org/2000/svg">
  <g transform="matrix(1.0, 0.0, 0.0, 1.0, -1179.0, -909.0)">
    <path d="M1179.6 909.6 Q1179.0 910.2 1179.0 911.0 L1179.0 948.0 Q1179.0 948.85 1179.6 949.45 1180.15 950.0 1181.0 950.0 L1638.0 950.0 Q1638.85 950.0 1639.4 949.45 1640.0 948.85 1640.0 948.0 L1640.0 911.0 Q1640.0 910.2 1639.4 909.6 1638.8 909.0 1638.0 909.0 L1181.0 909.0 Q1180.15 909.0 1179.6 909.6" fill="#323942" fill-rule="evenodd" stroke="none"/>
    <path d="M1179.95 909.95 Q1179.5 910.4 1179.5 911.0 L1179.5 948.0 Q1179.5 948.65 1179.95 949.05 1180.4 949.5 1181.0 949.5 L1638.0 949.5 Q1638.65 949.5 1639.05 949.05 L1639.5 948.0 1639.5 911.0 Q1639.5 910.4 1639.05 909.95 1638.65 909.5 1638.0 909.5 L1181.0 909.5 Q1180.4 909.5 1179.95 909.95 Z" fill="none" stroke="#ffffff" stroke-linecap="butt" stroke-linejoin="miter-clip" stroke-miterlimit="4.0" stroke-opacity="0.09803922" stroke-width="1.0"/>
    <path d="M1480.3 910.3 Q1480.0 910.6 1480.0 911.0 L1480.0 948.0 Q1480.0 949.0 1481.0 949.0 L1639.0 949.0 1639.0 910.0 1481.0 910.0 Q1480.6 910.0 1480.3 910.3" fill="#22272a" fill-rule="evenodd" stroke="none"/>
  </g>
</svg>
