<?xml version="1.0" encoding="UTF-8" standalone="no"?>
<svg xmlns:ffdec="https://www.free-decompiler.com/flash" xmlns:xlink="http://www.w3.org/1999/xlink" ffdec:objectType="shape" height="321.0px" width="461.75px" xmlns="http://www.w3.org/2000/svg">
  <g transform="matrix(1.0, 0.0, 0.0, 1.0, -13.75, 0.5)">
    <path d="M475.0 1.5 L475.0 318.5 474.55 319.55 Q474.1 320.0 473.5 320.0 L16.5 320.0 Q15.85 320.0 15.45 319.55 15.0 319.15 15.0 318.5 L15.0 1.5 Q15.0 0.9 15.45 0.45 15.85 0.0 16.5 0.0 L473.5 0.0 Q474.1 0.0 474.55 0.45 475.0 0.9 475.0 1.5" fill="#292f37" fill-rule="evenodd" stroke="none"/>
    <path d="M475.0 1.5 L475.0 318.5 474.55 319.55 Q474.1 320.0 473.5 320.0 L16.5 320.0 Q15.85 320.0 15.45 319.55 15.0 319.15 15.0 318.5 L15.0 1.5 Q15.0 0.9 15.45 0.45 15.85 0.0 16.5 0.0 L473.5 0.0 Q474.1 0.0 474.55 0.45 475.0 0.9 475.0 1.5 Z" fill="none" stroke="#3e434b" stroke-linecap="butt" stroke-linejoin="miter-clip" stroke-miterlimit="4.0" stroke-width="1.0"/>
    <path d="M473.5 320.0 L16.5 320.0 Q15.85 320.0 15.45 319.55 15.0 319.15 15.0 318.5 L15.0 310.0 475.0 310.0 475.0 318.5 474.55 319.55 Q474.1 320.0 473.5 320.0" fill="#323942" fill-rule="evenodd" stroke="none"/>
    <path d="M473.5 320.0 L16.5 320.0 Q15.85 320.0 15.45 319.55 15.0 319.15 15.0 318.5 L15.0 310.0 475.0 310.0 475.0 318.5 474.55 319.55 Q474.1 320.0 473.5 320.0 Z" fill="none" stroke="#3e434b" stroke-linecap="butt" stroke-linejoin="miter-clip" stroke-miterlimit="4.0" stroke-width="1.0"/>
    <path d="M475.0 40.0 L15.0 40.0 15.0 1.5 Q15.0 0.9 15.45 0.45 15.85 0.0 16.5 0.0 L473.5 0.0 Q474.1 0.0 474.55 0.45 475.0 0.9 475.0 1.5 L475.0 40.0" fill="#39424f" fill-rule="evenodd" stroke="none"/>
    <path d="M475.0 40.0 L15.0 40.0 15.0 1.5 Q15.0 0.9 15.45 0.45 15.85 0.0 16.5 0.0 L473.5 0.0 Q474.1 0.0 474.55 0.45 475.0 0.9 475.0 1.5 L475.0 40.0 Z" fill="none" stroke="#3e434b" stroke-linecap="butt" stroke-linejoin="miter-clip" stroke-miterlimit="4.0" stroke-width="1.0"/>
    <path d="M34.6 11.5 L39.5 16.3 39.5 25.9 Q39.5 26.55 39.0 27.05 38.55 27.5 37.85 27.5 L28.1 27.5 Q27.4 27.5 26.95 27.05 26.5 26.6 26.5 25.9 L26.5 13.15 Q26.5 12.45 26.95 12.0 27.45 11.5 28.1 11.5 L34.6 11.5" fill="#dce9e9" fill-rule="evenodd" stroke="none"/>
    <path d="M34.6 11.5 L39.5 16.3 34.6 16.3 34.6 11.5" fill="#dce9e9" fill-rule="evenodd" stroke="none"/>
    <path d="M39.5 16.3 L34.6 11.5 34.6 16.3 39.5 16.3 39.5 25.9 Q39.5 26.55 39.0 27.05 38.55 27.5 37.85 27.5 L28.1 27.5 Q27.4 27.5 26.95 27.05 26.5 26.6 26.5 25.9 L26.5 13.15 Q26.5 12.45 26.95 12.0 27.45 11.5 28.1 11.5 L34.6 11.5" fill="none" stroke="#39424f" stroke-linecap="round" stroke-linejoin="round" stroke-width="1.0"/>
    <path d="M462.0 54.5 L462.0 295.5 461.55 296.55 Q461.1 297.0 460.5 297.0 L29.5 297.0 Q28.85 297.0 28.45 296.55 28.0 296.15 28.0 295.5 L28.0 54.5 Q28.0 53.9 28.45 53.45 28.85 53.0 29.5 53.0 L460.5 53.0 Q461.1 53.0 461.55 53.45 462.0 53.9 462.0 54.5 Z" fill="none" stroke="#3e434b" stroke-linecap="butt" stroke-linejoin="miter-clip" stroke-miterlimit="4.0" stroke-width="1.0"/>
  </g>
</svg>
