<?xml version="1.0" encoding="UTF-8" standalone="no"?>
<svg xmlns:ffdec="https://www.free-decompiler.com/flash" xmlns:xlink="http://www.w3.org/1999/xlink" ffdec:objectType="shape" height="11.0px" width="11.0px" xmlns="http://www.w3.org/2000/svg">
  <g transform="matrix(1.0, 0.0, 0.0, 1.0, 0.5, 0.5)">
    <path d="M10.0 5.0 Q10.0 7.1 8.55 8.55 7.05 10.0 5.0 10.0 2.9 10.0 1.45 8.55 0.0 7.1 0.0 5.0 0.0 2.95 1.45 1.45 2.9 0.0 5.0 0.0 7.05 0.0 8.55 1.45 10.0 2.95 10.0 5.0" fill="#dce9e9" fill-rule="evenodd" stroke="none"/>
    <path d="M10.0 5.0 Q10.0 7.1 8.55 8.55 7.05 10.0 5.0 10.0 2.9 10.0 1.45 8.55 0.0 7.1 0.0 5.0 0.0 2.95 1.45 1.45 2.9 0.0 5.0 0.0 7.05 0.0 8.55 1.45 10.0 2.95 10.0 5.0 Z" fill="none" stroke="#1e2021" stroke-linecap="butt" stroke-linejoin="miter-clip" stroke-miterlimit="4.0" stroke-width="1.0"/>
  </g>
</svg>
