<?xml version="1.0" encoding="UTF-8" standalone="no"?>
<svg xmlns:ffdec="https://www.free-decompiler.com/flash" xmlns:xlink="http://www.w3.org/1999/xlink" ffdec:objectType="shape" height="371.0px" width="461.7px" xmlns="http://www.w3.org/2000/svg">
  <g transform="matrix(1.0, 0.0, 0.0, 1.0, 1.2, 0.5)">
    <path d="M460.0 1.5 L460.0 360.0 0.0 360.0 0.0 1.5 Q0.0 0.9 0.45 0.45 0.85 0.0 1.5 0.0 L458.5 0.0 Q459.1 0.0 459.55 0.45 460.0 0.9 460.0 1.5" fill="#292f37" fill-rule="evenodd" stroke="none"/>
    <path d="M460.0 1.5 L460.0 360.0 0.0 360.0 0.0 1.5 Q0.0 0.9 0.45 0.45 0.85 0.0 1.5 0.0 L458.5 0.0 Q459.1 0.0 459.55 0.45 460.0 0.9 460.0 1.5 Z" fill="none" stroke="#3e434b" stroke-linecap="butt" stroke-linejoin="miter-clip" stroke-miterlimit="4.0" stroke-width="1.0"/>
    <path d="M458.5 370.0 L1.5 370.0 Q0.85 370.0 0.45 369.55 0.0 369.15 0.0 368.5 L0.0 360.0 460.0 360.0 460.0 368.5 459.55 369.55 Q459.1 370.0 458.5 370.0" fill="#323942" fill-rule="evenodd" stroke="none"/>
    <path d="M458.5 370.0 L1.5 370.0 Q0.85 370.0 0.45 369.55 0.0 369.15 0.0 368.5 L0.0 360.0 460.0 360.0 460.0 368.5 459.55 369.55 Q459.1 370.0 458.5 370.0 Z" fill="none" stroke="#3e434b" stroke-linecap="butt" stroke-linejoin="miter-clip" stroke-miterlimit="4.0" stroke-width="1.0"/>
    <path d="M460.0 40.0 L0.0 40.0 0.0 1.5 Q0.0 0.9 0.45 0.45 0.85 0.0 1.5 0.0 L458.5 0.0 Q459.1 0.0 459.55 0.45 460.0 0.9 460.0 1.5 L460.0 40.0" fill="#39424f" fill-rule="evenodd" stroke="none"/>
    <path d="M460.0 40.0 L0.0 40.0 0.0 1.5 Q0.0 0.9 0.45 0.45 0.85 0.0 1.5 0.0 L458.5 0.0 Q459.1 0.0 459.55 0.45 460.0 0.9 460.0 1.5 L460.0 40.0 Z" fill="none" stroke="#3e434b" stroke-linecap="butt" stroke-linejoin="miter-clip" stroke-miterlimit="4.0" stroke-width="1.0"/>
    <path d="M447.0 311.5 L447.0 347.5 446.55 348.55 445.5 349.0 14.5 349.0 Q13.85 349.0 13.45 348.55 13.0 348.15 13.0 347.5 L13.0 311.5 Q13.0 310.9 13.45 310.45 13.85 310.0 14.5 310.0 L445.5 310.0 Q446.1 310.0 446.55 310.45 447.0 310.9 447.0 311.5" fill="#323942" fill-rule="evenodd" stroke="none"/>
    <path d="M447.0 311.5 L447.0 347.5 446.55 348.55 445.5 349.0 14.5 349.0 Q13.85 349.0 13.45 348.55 13.0 348.15 13.0 347.5 L13.0 311.5 Q13.0 310.9 13.45 310.45 13.85 310.0 14.5 310.0 L445.5 310.0 Q446.1 310.0 446.55 310.45 447.0 310.9 447.0 311.5 Z" fill="none" stroke="#3e434b" stroke-linecap="butt" stroke-linejoin="miter-clip" stroke-miterlimit="4.0" stroke-width="1.0"/>
    <path d="M446.5 311.5 L446.5 347.5 Q446.5 348.5 445.5 348.5 L287.5 348.5 287.5 310.5 445.5 310.5 Q445.9 310.5 446.2 310.8 L446.5 311.5" fill="#292f37" fill-rule="evenodd" stroke="none"/>
    <path d="M28.0 15.35 L28.4 15.45 Q28.85 15.75 28.9 16.3 L28.9 25.95 28.75 27.65 Q28.55 28.55 27.8 28.6 L10.65 28.6 Q9.95 28.55 9.7 28.3 L9.5 27.35 9.5 14.55 Q9.55 13.8 10.25 13.55 L10.7 13.5 23.25 13.5 Q24.15 13.5 24.5 14.35 L24.55 14.55 24.75 14.6 Q24.85 14.45 24.9 14.6 25.2 15.35 25.9 15.35 L28.0 15.35" fill="#989ca0" fill-rule="evenodd" stroke="none"/>
    <path d="M31.8 13.5 L29.25 28.05 28.8 28.75 28.0 29.0 10.7 29.0 Q9.7 29.0 10.1 26.6 L11.95 16.15 12.15 15.7 12.55 15.35 12.95 15.25 14.05 15.25 20.9 15.25 21.55 15.05 22.0 14.5 22.6 13.35 23.1 12.75 23.9 12.5 30.85 12.5 31.25 12.6 31.7 12.95 31.8 13.5" fill="#596163" fill-rule="evenodd" stroke="none"/>
  </g>
</svg>
