<?xml version="1.0" encoding="UTF-8" standalone="no"?>
<svg xmlns:ffdec="https://www.free-decompiler.com/flash" xmlns:xlink="http://www.w3.org/1999/xlink" ffdec:objectType="shape" height="40.0px" width="168.7px" xmlns="http://www.w3.org/2000/svg">
  <g transform="matrix(1.0, 0.0, 0.0, 1.0, 1.2, 0.5)">
    <path d="M1.5 0.0 L40.9 0.0 125.4 0.0 165.5 0.0 Q166.1 0.0 166.55 0.45 167.0 0.9 167.0 1.5 L167.0 9.45 167.0 29.55 167.0 37.5 Q167.0 38.15 166.55 38.55 L165.5 39.0 125.4 39.0 40.9 39.0 1.5 39.0 Q0.85 39.0 0.45 38.55 0.0 38.15 0.0 37.5 L0.0 29.55 0.0 9.45 0.0 1.5 Q0.0 0.9 0.45 0.45 0.85 0.0 1.5 0.0" fill="#be1e2d" fill-rule="evenodd" stroke="none"/>
    <path d="M1.5 0.0 L40.9 0.0 125.4 0.0 165.5 0.0 Q166.1 0.0 166.55 0.45 167.0 0.9 167.0 1.5 L167.0 9.45 167.0 29.55 167.0 37.5 Q167.0 38.15 166.55 38.55 L165.5 39.0 125.4 39.0 40.9 39.0 1.5 39.0 Q0.85 39.0 0.45 38.55 0.0 38.15 0.0 37.5 L0.0 29.55 0.0 9.45 0.0 1.5 Q0.0 0.9 0.45 0.45 0.85 0.0 1.5 0.0 Z" fill="none" stroke="#8e1924" stroke-linecap="butt" stroke-linejoin="miter-clip" stroke-miterlimit="4.0" stroke-width="1.0"/>
  </g>
</svg>
