<?xml version="1.0" encoding="UTF-8" standalone="no"?>
<svg xmlns:ffdec="https://www.free-decompiler.com/flash" xmlns:xlink="http://www.w3.org/1999/xlink" ffdec:objectType="shape" height="244.0px" width="435.0px" xmlns="http://www.w3.org/2000/svg">
  <g transform="matrix(1.0, 0.0, 0.0, 1.0, 0.5, 0.0)">
    <path d="M433.55 0.45 Q434.0 0.9 434.0 1.5 L434.0 242.5 433.55 243.55 Q433.1 244.0 432.5 244.0 L1.5 244.0 Q0.85 244.0 0.45 243.55 0.0 243.15 0.0 242.5 L0.0 1.5 Q0.0 0.9 0.45 0.45 0.85 0.0 1.5 0.0 L432.5 0.0 Q433.1 0.0 433.55 0.45" fill="#292f37" fill-rule="evenodd" stroke="none"/>
    <path d="M434.0 39.0 L0.0 39.0" fill="none" stroke="#3e434b" stroke-linecap="butt" stroke-linejoin="miter-clip" stroke-miterlimit="4.0" stroke-width="1.0"/>
    <path d="M410.35 13.9 L422.4 13.9 422.4 15.45 410.35 15.45 410.35 13.9" fill="#84888e" fill-rule="evenodd" stroke="none"/>
    <path d="M410.35 22.55 L422.4 22.55 422.4 24.15 410.35 24.15 410.35 22.55" fill="#84888e" fill-rule="evenodd" stroke="none"/>
    <path d="M410.35 18.2 L422.4 18.2 422.4 19.8 410.35 19.8 410.35 18.2" fill="#84888e" fill-rule="evenodd" stroke="none"/>
  </g>
</svg>
