<?xml version="1.0" encoding="UTF-8" standalone="no"?>
<svg xmlns:ffdec="https://www.free-decompiler.com/flash" xmlns:xlink="http://www.w3.org/1999/xlink" ffdec:objectType="shape" height="16.5px" width="22.3px" xmlns="http://www.w3.org/2000/svg">
  <g transform="matrix(1.0, 0.0, 0.0, 1.0, -9.5, -12.5)">
    <path d="M28.0 15.35 L28.4 15.45 Q28.85 15.75 28.9 16.3 L28.9 25.95 28.75 27.65 Q28.55 28.55 27.8 28.6 L10.65 28.6 Q9.95 28.55 9.7 28.3 L9.5 27.35 9.5 14.55 Q9.55 13.8 10.25 13.55 L10.7 13.5 23.25 13.5 Q24.15 13.5 24.5 14.35 L24.55 14.55 24.75 14.6 Q24.85 14.45 24.9 14.6 25.2 15.35 25.9 15.35 L28.0 15.35" fill="#989ca0" fill-rule="evenodd" stroke="none"/>
    <path d="M31.8 13.5 L29.25 28.05 28.8 28.75 28.0 29.0 10.7 29.0 Q9.7 29.0 10.1 26.6 L11.95 16.15 12.15 15.7 12.55 15.35 12.95 15.25 14.05 15.25 20.9 15.25 21.55 15.05 22.0 14.5 22.6 13.35 23.1 12.75 23.9 12.5 30.85 12.5 31.25 12.6 31.7 12.95 31.8 13.5" fill="#596163" fill-rule="evenodd" stroke="none"/>
  </g>
</svg>
