<?xml version="1.0" encoding="UTF-8" standalone="no"?>
<svg xmlns:ffdec="https://www.free-decompiler.com/flash" xmlns:xlink="http://www.w3.org/1999/xlink" ffdec:objectType="shape" height="295.0px" width="900.75px" xmlns="http://www.w3.org/2000/svg">
  <g transform="matrix(1.0, 0.0, 0.0, 1.0, -509.25, -382.5)">
    <path d="M1410.0 384.5 L1410.0 675.5 Q1410.0 676.35 1409.4 676.95 1408.85 677.5 1408.0 677.5 L512.0 677.5 Q511.15 677.5 510.55 676.95 510.0 676.35 510.0 675.5 L510.0 384.5 Q510.0 383.65 510.55 383.1 511.15 382.5 512.0 382.5 L1408.0 382.5 Q1408.85 382.5 1409.4 383.1 1410.0 383.7 1410.0 384.5" fill="#292f37" fill-rule="evenodd" stroke="none"/>
    <path d="M1409.5 384.5 L1409.5 675.5 1409.05 676.55 Q1408.6 677.0 1408.0 677.0 L512.0 677.0 Q511.35 677.0 510.95 676.55 510.5 676.15 510.5 675.5 L510.5 384.5 Q510.5 383.9 510.95 383.45 511.35 383.0 512.0 383.0 L1408.0 383.0 Q1408.6 383.0 1409.05 383.45 1409.5 383.9 1409.5 384.5 Z" fill="none" stroke="#ffffff" stroke-linecap="butt" stroke-linejoin="miter-clip" stroke-miterlimit="4.0" stroke-opacity="0.09803922" stroke-width="1.0"/>
    <path d="M1408.0 383.0 Q1408.6 383.0 1409.05 383.45 1409.5 383.9 1409.5 384.5 L1409.5 430.0 510.5 430.0 510.5 384.5 Q510.5 383.9 510.95 383.45 511.35 383.0 512.0 383.0 L1408.0 383.0" fill="#39424f" fill-rule="evenodd" stroke="none"/>
    <path d="M1408.0 383.0 L512.0 383.0 Q511.35 383.0 510.95 383.45 510.5 383.9 510.5 384.5 L510.5 430.0 1409.5 430.0 1409.5 384.5 Q1409.5 383.9 1409.05 383.45 1408.6 383.0 1408.0 383.0 Z" fill="none" stroke="#3e434b" stroke-linecap="butt" stroke-linejoin="miter-clip" stroke-miterlimit="4.0" stroke-width="1.0"/>
    <path d="M1201.0 519.5 Q1201.85 519.5 1202.4 520.1 1203.0 520.7 1203.0 521.5 L1203.0 577.5 Q1203.0 578.35 1202.4 578.95 1201.85 579.5 1201.0 579.5 L720.0 579.5 Q719.15 579.5 718.55 578.95 718.0 578.35 718.0 577.5 L718.0 521.5 Q718.0 520.65 718.55 520.1 719.15 519.5 720.0 519.5 L1201.0 519.5" fill="#323942" fill-rule="evenodd" stroke="none"/>
    <path d="M1201.0 520.0 L720.0 520.0 Q719.35 520.0 718.95 520.45 718.5 520.9 718.5 521.5 L718.5 577.5 Q718.5 578.15 718.95 578.55 719.35 579.0 720.0 579.0 L1201.0 579.0 Q1201.6 579.0 1202.05 578.55 L1202.5 577.5 1202.5 521.5 Q1202.5 520.9 1202.05 520.45 1201.6 520.0 1201.0 520.0 Z" fill="none" stroke="#ffffff" stroke-linecap="butt" stroke-linejoin="miter-clip" stroke-miterlimit="4.0" stroke-opacity="0.09803922" stroke-width="1.0"/>
    <path d="M1202.0 521.5 L1202.0 577.5 Q1202.0 578.5 1201.0 578.5 L1002.0 578.5 1002.0 520.5 1201.0 520.5 Q1201.4 520.5 1201.7 520.8 L1202.0 521.5" fill="#22272a" fill-rule="evenodd" stroke="none"/>
  </g>
</svg>
