<?xml version="1.0" encoding="UTF-8" standalone="no"?>
<svg xmlns:ffdec="https://www.free-decompiler.com/flash" xmlns:xlink="http://www.w3.org/1999/xlink" ffdec:objectType="shape" height="48.0px" width="420.7px" xmlns="http://www.w3.org/2000/svg">
  <g transform="matrix(1.0, 0.0, 0.0, 1.0, 0.7, 0.0)">
    <path d="M418.0 0.0 Q418.85 0.0 419.4 0.6 420.0 1.2 420.0 2.0 L420.0 46.0 Q420.0 46.85 419.4 47.45 418.85 48.0 418.0 48.0 L2.0 48.0 Q1.15 48.0 0.55 47.45 0.0 46.85 0.0 46.0 L0.0 2.0 Q0.0 1.15 0.55 0.6 1.15 0.0 2.0 0.0 L418.0 0.0" fill="#323942" fill-rule="evenodd" stroke="none"/>
    <path d="M418.0 0.5 L2.0 0.5 Q1.35 0.5 0.95 0.95 0.5 1.4 0.5 2.0 L0.5 46.0 Q0.5 46.65 0.95 47.05 1.35 47.5 2.0 47.5 L418.0 47.5 Q418.6 47.5 419.05 47.05 L419.5 46.0 419.5 2.0 Q419.5 1.4 419.05 0.95 418.6 0.5 418.0 0.5 Z" fill="none" stroke="#ffffff" stroke-linecap="butt" stroke-linejoin="miter-clip" stroke-miterlimit="4.0" stroke-opacity="0.09803922" stroke-width="1.0"/>
  </g>
</svg>
