<?xml version="1.0" encoding="UTF-8" standalone="no"?>
<svg xmlns:ffdec="https://www.free-decompiler.com/flash" xmlns:xlink="http://www.w3.org/1999/xlink" ffdec:objectType="shape" height="332.5px" width="260.0px" xmlns="http://www.w3.org/2000/svg">
  <g transform="matrix(1.0, 0.0, 0.0, 1.0, 106.2, 176.85)">
    <path d="M-42.2 -176.85 L61.3 -176.85 61.3 -102.85 72.3 -102.85 72.3 -99.35 92.3 -99.35 92.3 -101.35 95.3 -101.35 95.3 -99.35 151.8 -99.35 151.8 -93.35 153.8 -93.35 153.8 -90.35 151.8 -90.35 151.8 -81.35 153.8 -81.35 153.8 -61.35 151.8 -61.35 151.8 15.65 153.8 15.65 153.8 18.65 151.8 18.65 151.8 20.15 83.8 20.15 83.8 22.15 80.8 22.15 80.8 20.15 71.8 20.15 71.8 86.15 9.8 86.15 9.8 88.15 15.8 88.15 15.8 99.65 13.8 99.65 13.8 136.15 15.8 136.15 15.8 147.15 17.3 147.15 17.3 151.15 15.8 151.15 15.8 155.65 5.3 155.65 5.3 153.65 -52.2 153.65 -52.2 155.15 -64.7 155.15 -64.7 153.65 -73.2 153.65 -73.2 155.65 -84.2 155.65 -84.2 150.65 -85.2 150.65 -85.2 146.15 -84.2 146.15 -84.2 136.65 -82.2 136.65 -82.2 100.15 -84.2 100.15 -84.2 80.15 -96.2 80.15 -96.2 30.65 -84.2 30.65 -84.2 26.15 -82.2 26.15 -82.2 22.15 -84.7 22.15 Q-84.7 20.15 -85.2 18.15 L-82.2 18.15 -82.2 -36.85 -106.2 -36.85 -106.2 -91.35 -81.7 -91.35 -81.7 -99.35 -53.7 -99.35 -53.7 -101.85 -50.7 -101.85 -50.7 -99.35 -42.2 -99.35 -42.2 -104.85 -39.2 -128.85 -42.2 -176.85" fill="#424242" fill-rule="evenodd" stroke="none"/>
    <path d="M-75.2 -72.35 L-74.2 -72.35 -74.2 -55.35 -75.2 -55.35 -75.2 -48.35 -92.7 -48.35 -92.7 -39.35 -106.2 -39.85 -106.2 -88.35 -92.7 -88.35 -92.7 -79.35 -75.2 -79.35 -75.2 -72.35 M-96.2 33.65 L-82.2 33.65 -82.2 34.65 -76.2 34.65 -76.2 30.15 -53.2 30.15 -53.2 86.15 9.8 86.15 9.8 99.65 14.3 99.65 14.3 136.15 9.8 136.15 9.8 150.15 -82.2 150.15 -82.2 86.15 -76.2 86.15 -76.2 71.65 -82.2 71.65 -82.2 78.15 -96.2 78.15 -96.2 33.65" fill="#6f6f6f" fill-rule="evenodd" stroke="none"/>
    <path d="M-34.7 -161.85 L49.8 -161.85 49.8 -100.85 48.3 -100.85 48.3 -96.85 53.3 -96.85 53.3 -61.35 56.3 -61.35 57.3 -95.35 147.3 -95.35 148.3 -43.85 130.3 -43.85 130.3 -41.35 148.3 -41.35 148.3 -23.85 Q149.8 -18.35 150.8 -12.85 149.8 -7.35 148.3 -2.35 L148.3 16.15 130.8 16.15 120.3 19.15 106.8 16.15 89.8 16.15 89.8 1.65 86.8 1.65 86.8 16.15 69.3 16.15 69.3 27.15 66.3 27.15 66.3 50.15 69.3 50.15 69.3 83.15 4.3 83.15 4.3 79.15 -11.2 79.15 -11.2 -39.35 -72.2 -39.35 -72.2 -55.35 -74.2 -55.35 -74.2 -72.35 -72.2 -72.35 -72.2 -82.35 -79.2 -82.35 -79.2 -96.35 -74.2 -96.35 -74.2 -97.85 -59.7 -97.85 -59.7 -96.35 -7.2 -96.35 -7.2 -72.35 27.8 -72.35 27.8 -61.35 35.3 -61.35 35.3 -100.85 32.8 -100.85 32.8 -99.85 -34.7 -99.85 -34.7 -104.85 -37.7 -104.85 -37.7 -157.85 -34.7 -157.85 -34.7 -161.85 M34.3 -41.35 L27.8 -41.35 27.8 -39.35 8.3 -39.35 8.3 -16.85 11.3 -16.85 11.3 -25.35 56.3 -25.35 56.3 -41.35 53.3 -41.35 53.3 -39.35 34.3 -39.35 34.3 -41.35 M100.8 -43.85 L86.8 -43.85 86.8 -27.85 89.8 -27.85 89.8 -41.35 100.8 -41.35 100.8 -43.85" fill="#959595" fill-rule="evenodd" stroke="none"/>
    <path d="M106.8 -13.85 L106.8 -17.85 108.8 -21.35 Q110.8 -22.35 112.3 -23.85 L116.3 -24.35 120.3 -23.35 123.3 -20.35 124.8 -16.85 Q124.8 -14.85 124.3 -12.85 123.3 -10.85 122.3 -9.35 120.8 -7.85 119.3 -6.85 L115.3 -6.35 111.3 -7.35 108.3 -9.85 Q107.8 -11.85 106.8 -13.85" fill="#6f6f6f" fill-rule="evenodd" stroke="none"/>
    <path d="M118.3 -73.85 L118.3 -59.35 89.3 -59.35 89.3 -73.85 118.3 -73.85" fill="#6f6f6f" fill-rule="evenodd" stroke="none"/>
    <path d="M56.3 -62.35 L56.3 -96.35 148.3 -96.35 148.3 -77.85 149.8 -77.85 149.8 -64.35 148.3 -64.35 148.3 -43.85 139.8 -43.85 139.8 -85.35 121.8 -85.35 121.8 -89.85 100.8 -89.85 100.8 -85.35 64.3 -85.35 64.3 -62.35 56.3 -62.35" fill="#6f6f6f" fill-rule="evenodd" stroke="none"/>
    <path d="M64.3 -35.35 Q63.3 -34.35 62.3 -33.85 61.8 -33.85 60.8 -34.35 L59.3 -35.85 Q59.8 -36.85 59.8 -37.85 L61.3 -38.85 63.3 -38.85 Q63.8 -37.85 64.3 -37.35 L64.3 -35.35" fill="#6f6f6f" fill-rule="evenodd" stroke="none"/>
    <path d="M65.3 20.15 Q66.3 20.65 67.3 20.65 68.3 21.65 69.3 22.15 L68.3 24.15 66.8 25.15 64.8 24.65 63.3 23.15 Q63.8 22.15 63.8 21.15 L65.3 20.15" fill="#6f6f6f" fill-rule="evenodd" stroke="none"/>
    <path d="M65.3 52.15 Q66.3 52.65 67.3 52.65 68.3 53.65 69.3 54.15 L68.3 56.15 66.8 57.15 64.8 56.65 63.3 55.15 Q63.8 54.15 63.8 53.15 L65.3 52.15" fill="#6f6f6f" fill-rule="evenodd" stroke="none"/>
    <path d="M-4.7 72.15 Q-3.7 72.65 -2.7 72.65 L-1.2 74.15 Q-1.2 75.15 -1.7 76.15 L-3.2 77.15 -5.2 76.65 -6.2 75.15 -6.2 73.15 -4.7 72.15" fill="#6f6f6f" fill-rule="evenodd" stroke="none"/>
    <path d="M61.8 75.65 L63.8 76.15 64.8 77.65 64.8 79.65 63.3 80.65 61.3 80.65 59.8 79.15 Q60.3 78.15 60.3 77.15 61.3 76.65 61.8 75.65" fill="#6f6f6f" fill-rule="evenodd" stroke="none"/>
    <path d="M59.8 66.65 L63.3 67.15 65.3 69.65 Q65.3 71.15 64.8 72.65 L62.3 74.65 58.8 74.15 56.8 71.65 Q57.3 70.15 57.3 68.65 L59.8 66.65" fill="#6f6f6f" fill-rule="evenodd" stroke="none"/>
    <path d="M11.8 12.65 L14.3 11.15 17.8 11.15 19.8 14.15 Q19.8 15.65 19.3 17.15 L16.8 19.15 13.3 18.65 11.3 16.15 Q11.8 14.65 11.8 12.65" fill="#6f6f6f" fill-rule="evenodd" stroke="none"/>
    <path d="M13.3 83.15 L13.3 77.15 30.8 77.15 30.8 83.15 13.3 83.15" fill="#6f6f6f" fill-rule="evenodd" stroke="none"/>
    <path d="M23.3 -17.35 L23.3 -25.35 42.3 -25.35 42.3 -17.35 23.3 -17.35" fill="#6f6f6f" fill-rule="evenodd" stroke="none"/>
    <path d="M27.3 21.15 L36.3 17.15 40.3 26.15 31.3 30.15 27.3 21.15" fill="#6f6f6f" fill-rule="evenodd" stroke="none"/>
    <path d="M56.3 63.65 L59.3 55.65 65.8 57.65 Q64.8 62.15 63.3 66.15 59.8 65.15 56.3 63.65" fill="#6f6f6f" fill-rule="evenodd" stroke="none"/>
    <path d="M29.8 8.65 Q25.8 11.65 21.8 14.15 L17.3 7.65 25.3 1.65 Q27.8 5.15 29.8 8.65" fill="#6f6f6f" fill-rule="evenodd" stroke="none"/>
    <path d="M60.8 51.65 Q61.3 38.65 61.3 25.15 L69.3 25.15 69.3 27.15 66.3 27.15 66.3 50.15 69.3 50.15 69.3 51.65 60.8 51.65" fill="#6f6f6f" fill-rule="evenodd" stroke="none"/>
    <path d="M24.8 51.65 L38.3 49.65 Q39.3 55.15 39.8 60.15 L14.8 64.65 8.8 23.65 20.3 22.15 Q22.8 37.15 24.8 51.65" fill="#6f6f6f" fill-rule="evenodd" stroke="none"/>
    <path d="M27.8 -72.35 L27.8 -63.85 7.3 -63.85 7.3 -72.35 27.8 -72.35" fill="#6f6f6f" fill-rule="evenodd" stroke="none"/>
    <path d="M-32.7 -39.35 L-32.7 -45.85 -15.7 -45.85 -15.7 -39.35 -32.7 -39.35" fill="#6f6f6f" fill-rule="evenodd" stroke="none"/>
    <path d="M-70.2 -39.35 L-70.2 -45.85 -53.2 -45.85 -53.2 -39.35 -70.2 -39.35" fill="#6f6f6f" fill-rule="evenodd" stroke="none"/>
    <path d="M-70.2 -83.85 L-72.7 -83.85 Q-73.7 -84.35 -74.7 -85.35 L-75.7 -87.35 Q-75.7 -88.35 -76.2 -89.35 -75.2 -90.35 -74.7 -91.85 L-72.7 -92.85 -70.2 -92.85 -68.2 -91.85 -67.2 -89.85 -67.2 -87.35 -68.2 -85.35 Q-69.2 -84.35 -70.2 -83.85" fill="#6f6f6f" fill-rule="evenodd" stroke="none"/>
    <path d="M-26.7 -95.85 L-26.7 -86.35 -57.2 -86.35 -57.2 -95.85 -26.7 -95.85" fill="#6f6f6f" fill-rule="evenodd" stroke="none"/>
    <path d="M-7.7 -5.35 Q-6.7 -4.35 -6.2 -3.35 L-6.2 -0.85 Q-6.7 0.15 -7.7 1.15 L-9.7 2.15 -11.2 2.15 -11.2 -6.35 -9.7 -6.35 -7.7 -5.35" fill="#6f6f6f" fill-rule="evenodd" stroke="none"/>
    <path d="M27.3 -38.35 L27.3 -71.85 -7.2 -71.85 -7.2 -96.35 53.3 -96.35 53.3 -38.35 27.3 -38.35" fill="#ffffff" fill-rule="evenodd" stroke="none"/>
    <path d="M151.8 -23.85 L151.8 -1.85 148.3 -1.85 148.3 -23.85 151.8 -23.85" fill="#ffffff" fill-rule="evenodd" stroke="none"/>
    <path d="M131.8 16.15 L131.8 20.15 107.3 20.15 107.3 16.15 131.8 16.15" fill="#ffffff" fill-rule="evenodd" stroke="none"/>
    <path d="M-42.2 -157.85 L-37.7 -157.85 -37.7 -104.85 -42.2 -104.85 -42.2 -157.85" fill="#ffffff" fill-rule="evenodd" stroke="none"/>
    <path d="M-72.2 -55.35 L-75.2 -55.35 -75.2 -72.35 -72.2 -72.35 -72.2 -55.35" fill="#ffffff" fill-rule="evenodd" stroke="none"/>
  </g>
</svg>
