<?xml version="1.0" encoding="UTF-8" standalone="no"?>
<svg xmlns:ffdec="https://www.free-decompiler.com/flash" xmlns:xlink="http://www.w3.org/1999/xlink" ffdec:objectType="shape" height="200.5px" width="258.5px" xmlns="http://www.w3.org/2000/svg">
  <g transform="matrix(1.0, 0.0, 0.0, 1.0, 102.7, 101.85)">
    <path d="M-12.2 -99.35 L30.8 -99.35 30.8 -101.35 50.8 -101.35 50.8 -99.35 75.8 -99.35 75.8 -101.85 154.3 -101.85 154.3 15.15 155.8 15.15 155.8 19.65 154.3 19.65 154.3 22.65 148.3 22.65 148.3 20.15 137.8 20.15 137.8 21.65 128.3 21.65 128.3 20.15 108.8 20.15 108.8 21.65 99.3 21.65 99.3 20.15 89.3 20.15 89.3 22.65 84.3 22.65 84.3 23.15 80.3 23.15 79.8 22.65 74.3 22.65 74.3 88.65 15.8 88.65 15.8 98.65 -10.2 98.65 -10.2 86.15 -74.7 86.15 -74.7 84.65 -76.2 84.65 -76.2 80.15 -74.7 80.15 -74.7 22.65 -84.2 22.65 -84.2 -36.35 -102.7 -36.35 -102.7 -91.35 -81.7 -91.35 -81.7 -99.35 -53.7 -99.35 -53.7 -101.85 -50.7 -101.85 -50.7 -99.35 -42.2 -99.35 -42.2 -100.85 -28.2 -100.85 -28.2 -99.35 -26.2 -99.35 -26.2 -100.85 -12.2 -100.85 -12.2 -99.35" fill="#424242" fill-rule="evenodd" stroke="none"/>
    <path d="M-82.7 -48.35 L-92.2 -48.35 -92.2 -79.35 -82.7 -79.35 -82.7 -48.35" fill="#6f6f6f" fill-rule="evenodd" stroke="none"/>
    <path d="M-70.2 82.65 L-70.2 23.65 -52.7 23.65 -52.7 82.65 -70.2 82.65" fill="#6f6f6f" fill-rule="evenodd" stroke="none"/>
    <path d="M148.3 -0.85 L148.3 16.65 89.3 16.65 89.3 -0.85 148.3 -0.85" fill="#6f6f6f" fill-rule="evenodd" stroke="none"/>
    <path d="M27.3 -71.85 L-7.2 -71.85 -7.2 -96.35 53.3 -96.35 53.3 -38.35 27.3 -38.35 27.3 -71.85" fill="#ffffff" fill-rule="evenodd" stroke="none"/>
    <path d="M-7.7 -64.85 L-7.7 -97.35 -0.2 -97.35 -0.2 -64.85 -7.7 -64.85" fill="#424242" fill-rule="evenodd" stroke="none"/>
    <path d="M-79.2 -35.85 L-79.2 -96.35 -7.7 -96.35 -7.7 -63.85 -5.7 -63.85 Q-3.2 -55.85 -1.2 -48.35 -3.2 -41.85 -5.7 -35.35 -6.2 -35.35 -7.2 -35.85 L-7.2 -33.35 8.3 -33.35 8.3 -39.35 27.3 -39.35 27.3 -43.35 53.3 -43.35 53.3 -33.35 59.8 -33.35 59.8 -34.85 73.3 -34.85 73.3 -33.35 83.8 -33.35 83.8 4.15 48.3 4.15 48.3 6.15 50.3 6.15 50.3 19.65 52.3 19.65 52.3 16.15 67.3 16.15 67.3 19.65 69.3 19.65 69.3 83.65 30.8 83.65 30.8 6.15 33.3 6.15 33.3 4.15 25.8 4.15 25.8 7.15 27.8 7.15 27.8 36.65 23.8 36.65 23.8 38.65 27.8 38.65 27.8 83.65 11.3 83.65 11.3 79.65 1.8 79.65 1.8 51.65 8.3 51.65 8.3 50.15 4.8 50.15 4.8 38.65 9.8 38.65 9.8 36.65 2.3 36.65 2.3 25.15 0.3 25.15 0.3 79.65 -7.7 79.65 -7.7 83.65 -49.2 83.65 -49.2 77.65 -50.7 77.65 -50.7 55.65 -49.2 55.65 -49.2 9.65 -39.7 9.65 -39.7 6.65 -37.7 6.65 -37.7 5.15 -26.7 5.15 -26.7 6.65 0.8 6.65 0.8 9.65 1.8 9.65 1.8 6.65 6.3 6.65 6.3 4.15 -24.2 4.15 -24.2 -33.35 -22.7 -33.35 -22.7 -35.85 -51.2 -35.85 -51.2 -33.35 -27.7 -33.35 -27.7 -2.35 -50.7 -2.35 -50.7 -1.35 -64.2 -1.35 -64.2 -2.35 -78.2 -2.35 -78.2 -33.35 -64.7 -33.35 -64.7 -35.85 -79.2 -35.85" fill="#959595" fill-rule="evenodd" stroke="none"/>
    <path d="M-41.7 -27.85 L-41.7 -33.35 -27.7 -33.35 -27.7 -2.35 -47.2 -2.35 -47.2 -6.85 -38.2 -7.35 -35.2 -9.35 -33.2 -11.35 -32.2 -14.35 Q-31.7 -15.85 -31.7 -17.35 -31.7 -18.85 -32.2 -20.85 L-33.7 -23.35 -36.2 -25.85 -38.7 -27.35 -41.7 -27.85" fill="#6f6f6f" fill-rule="evenodd" stroke="none"/>
    <path d="M-78.2 -30.85 L-68.2 -30.85 -68.2 -3.85 -78.2 -3.85 -78.2 -30.85" fill="#6f6f6f" fill-rule="evenodd" stroke="none"/>
    <path d="M9.3 72.15 L10.8 72.15 Q11.3 72.65 11.8 72.65 L12.8 73.65 12.8 74.65 11.8 75.65 Q11.3 76.15 10.8 76.15 L9.3 76.15 7.8 75.65 7.3 75.15 7.3 79.65 1.8 79.65 1.8 51.65 7.3 51.65 7.3 73.15 Q7.8 73.15 7.8 72.65 8.8 72.65 9.3 72.15" fill="#6f6f6f" fill-rule="evenodd" stroke="none"/>
    <path d="M-34.2 -95.35 L-34.2 -70.85 -53.7 -70.85 -53.7 -95.35 -34.2 -95.35" fill="#6f6f6f" fill-rule="evenodd" stroke="none"/>
    <path d="M-26.7 -95.35 L-26.7 -89.35 -32.7 -89.35 -32.7 -95.35 -26.7 -95.35" fill="#6f6f6f" fill-rule="evenodd" stroke="none"/>
    <path d="M-60.2 -89.35 L-60.2 -95.35 -54.7 -95.35 -54.7 -89.35 -60.2 -89.35" fill="#6f6f6f" fill-rule="evenodd" stroke="none"/>
    <path d="M-5.7 -90.35 L-5.7 -69.85 -12.7 -69.85 -12.7 -90.35 -5.7 -90.35" fill="#6f6f6f" fill-rule="evenodd" stroke="none"/>
    <path d="M-5.7 -35.35 L-5.7 -63.85 3.8 -63.85 3.8 -35.35 -5.7 -35.35" fill="#6f6f6f" fill-rule="evenodd" stroke="none"/>
    <path d="M-0.2 -2.85 L-0.2 3.65 -19.2 3.65 -19.2 -2.85 -0.2 -2.85" fill="#6f6f6f" fill-rule="evenodd" stroke="none"/>
    <path d="M77.3 -23.85 L83.8 -23.85 83.8 -5.85 77.3 -5.85 77.3 -23.85" fill="#6f6f6f" fill-rule="evenodd" stroke="none"/>
    <path d="M67.3 11.15 L67.3 17.65 52.3 17.65 52.3 11.15 67.3 11.15" fill="#6f6f6f" fill-rule="evenodd" stroke="none"/>
    <path d="M38.3 32.65 L38.3 41.15 30.8 41.15 30.8 32.65 38.3 32.65" fill="#6f6f6f" fill-rule="evenodd" stroke="none"/>
    <path d="M30.8 73.65 L30.8 64.65 38.3 64.65 38.3 73.65 30.8 73.65" fill="#6f6f6f" fill-rule="evenodd" stroke="none"/>
    <path d="M53.3 42.65 L53.3 61.65 30.8 61.65 30.8 42.65 53.3 42.65" fill="#6f6f6f" fill-rule="evenodd" stroke="none"/>
    <path d="M63.3 62.15 L63.3 46.15 69.3 46.15 69.3 62.15 63.3 62.15" fill="#6f6f6f" fill-rule="evenodd" stroke="none"/>
    <path d="M59.8 76.65 L65.3 76.15 Q65.8 79.15 65.8 82.15 L60.3 82.65 Q60.3 79.65 59.8 76.65" fill="#6f6f6f" fill-rule="evenodd" stroke="none"/>
    <path d="M40.3 83.65 L40.3 76.15 57.8 76.15 57.8 83.65 40.3 83.65" fill="#6f6f6f" fill-rule="evenodd" stroke="none"/>
    <path d="M8.3 38.65 L8.3 50.15 4.8 50.15 4.8 38.65 8.3 38.65" fill="#6f6f6f" fill-rule="evenodd" stroke="none"/>
    <path d="M-25.7 57.15 L-25.7 38.65 -0.2 38.65 -0.2 57.15 -25.7 57.15" fill="#6f6f6f" fill-rule="evenodd" stroke="none"/>
    <path d="M-43.7 9.65 L-43.7 49.15 -49.2 49.15 -49.2 9.65 -43.7 9.65" fill="#6f6f6f" fill-rule="evenodd" stroke="none"/>
    <path d="M-37.7 11.65 L-37.7 14.15 -41.2 13.65 Q-40.7 12.65 -40.7 11.15 L-37.7 11.65" fill="#6f6f6f" fill-rule="evenodd" stroke="none"/>
    <path d="M-33.7 14.15 Q-34.7 13.65 -36.2 13.15 L-35.2 10.15 Q-33.7 10.65 -32.7 11.15 L-33.7 14.15" fill="#6f6f6f" fill-rule="evenodd" stroke="none"/>
    <path d="M-41.2 51.15 Q-40.7 52.65 -40.7 53.65 L-44.2 54.65 Q-44.2 53.65 -44.7 52.15 L-41.2 51.15" fill="#6f6f6f" fill-rule="evenodd" stroke="none"/>
    <path d="M-37.7 80.65 L-37.7 75.65 -7.7 75.65 -7.7 83.65 -40.7 83.65 -40.7 80.65 -37.7 80.65" fill="#6f6f6f" fill-rule="evenodd" stroke="none"/>
    <path d="M-7.2 74.65 L-1.7 72.65 -0.7 75.65 -6.2 77.65 -7.2 74.65" fill="#6f6f6f" fill-rule="evenodd" stroke="none"/>
    <path d="M-38.7 75.15 L-39.7 78.65 -44.2 77.65 -43.2 73.65 -38.7 75.15" fill="#6f6f6f" fill-rule="evenodd" stroke="none"/>
    <path d="M-48.2 83.65 L-48.2 81.15 -43.2 81.15 -43.2 83.65 -48.2 83.65" fill="#6f6f6f" fill-rule="evenodd" stroke="none"/>
    <path d="M-77.2 -36.35 L-78.2 -37.35 Q-78.2 -37.85 -78.7 -38.85 -78.2 -39.35 -78.2 -40.35 L-77.2 -41.35 Q-76.2 -41.35 -75.2 -41.85 -74.2 -41.35 -73.7 -41.35 L-72.7 -40.35 -72.7 -37.35 Q-73.2 -36.35 -74.2 -35.85 L-75.7 -35.85 -77.2 -36.35" fill="#6f6f6f" fill-rule="evenodd" stroke="none"/>
    <path d="M-75.7 -91.35 L-74.2 -90.85 -73.2 -89.35 Q-72.7 -88.35 -72.7 -87.85 -72.7 -86.85 -73.2 -86.35 L-74.2 -85.35 Q-74.7 -84.85 -75.7 -84.85 -76.7 -84.85 -77.7 -85.35 L-78.7 -86.85 -78.7 -88.35 Q-78.2 -88.85 -78.2 -89.85 L-77.2 -90.85 Q-76.2 -90.85 -75.7 -91.35" fill="#6f6f6f" fill-rule="evenodd" stroke="none"/>
    <path d="M-45.2 -39.35 L-45.2 -41.85 -27.7 -41.85 -27.7 -39.35 Q-27.2 -39.35 -27.2 -39.85 L-25.2 -39.85 Q-24.7 -39.35 -24.7 -38.85 L-24.7 -37.35 Q-25.2 -36.85 -25.7 -36.85 L-27.2 -36.85 -27.7 -37.35 -27.7 -35.35 -45.2 -35.35 -45.2 -37.35 Q-45.2 -36.85 -45.7 -36.85 L-47.7 -36.85 -48.2 -37.35 -48.2 -39.35 Q-47.7 -39.35 -47.2 -39.85 L-45.7 -39.85 -45.2 -39.35" fill="#6f6f6f" fill-rule="evenodd" stroke="none"/>
  </g>
</svg>
