<?xml version="1.0" encoding="UTF-8" standalone="no"?>
<svg xmlns:ffdec="https://www.free-decompiler.com/flash" xmlns:xlink="http://www.w3.org/1999/xlink" ffdec:objectType="shape" height="39.2px" width="238.0px" xmlns="http://www.w3.org/2000/svg">
  <g transform="matrix(1.0, 0.0, 0.0, 1.0, 0.0, -1.0)">
    <path d="M229.8 21.7 Q229.8 24.15 228.55 25.65 227.45 27.0 225.2 27.65 L219.55 28.25 217.55 28.25 217.55 33.45 228.95 33.45 228.95 38.4 215.2 38.4 Q212.85 38.4 211.1 37.35 209.35 36.35 209.35 34.35 L209.35 28.25 207.4 28.25 Q202.55 28.25 199.8 26.8 197.1 25.4 197.1 21.7 L197.1 7.55 Q197.1 3.85 199.7 2.5 202.45 1.0 207.4 1.0 L219.5 1.0 Q224.5 1.0 227.2 2.4 229.8 3.85 229.8 7.55 L229.8 21.7 M213.45 6.3 Q212.2 6.3 210.6 7.05 209.25 7.8 209.25 9.65 L209.25 19.7 Q209.25 22.95 213.45 22.95 215.8 22.95 216.65 21.85 217.55 20.85 217.55 19.7 L217.55 9.65 Q217.55 6.3 213.45 6.3 M234.5 34.1 L234.5 35.2 235.15 35.2 Q236.05 35.2 236.05 34.6 236.05 34.25 235.75 34.2 L235.15 34.1 234.5 34.1 M235.5 33.6 Q236.25 33.6 236.6 33.85 237.0 34.0 237.0 34.5 237.0 35.35 235.9 35.6 L234.8 35.7 234.5 35.7 234.5 37.1 233.75 37.1 233.75 33.6 235.5 33.6 M236.3 31.6 L237.6 32.85 Q238.0 33.7 238.0 34.5 238.0 35.35 237.6 36.2 L236.3 37.45 Q235.75 37.85 234.65 37.85 233.65 37.85 232.9 37.45 L231.7 36.2 Q231.2 35.6 231.2 34.5 231.2 33.75 231.55 33.25 L231.7 32.95 232.2 32.15 233.4 31.4 234.65 31.15 Q235.5 31.15 236.3 31.6 M237.15 33.1 Q236.85 32.45 236.05 32.1 235.55 31.65 234.65 31.65 233.75 31.65 233.2 32.1 232.45 32.35 232.05 33.1 231.8 33.7 231.8 34.5 L232.05 35.95 233.2 37.05 234.65 37.35 236.05 37.05 237.15 35.95 237.5 34.5 Q237.5 33.7 237.15 33.1 M173.4 17.25 L180.6 17.25 177.0 6.45 176.9 6.45 173.4 17.25 M184.2 28.0 L182.45 22.8 171.45 22.8 169.55 28.0 158.3 28.0 167.25 1.25 187.7 1.25 196.7 28.0 184.2 28.0 M157.65 7.55 L157.65 9.3 145.65 9.3 Q145.65 7.45 144.15 6.85 143.05 6.3 141.7 6.3 140.35 6.3 139.2 7.1 138.0 7.7 138.0 9.7 L138.0 11.75 148.35 12.05 152.7 12.4 Q154.3 12.65 155.6 13.55 157.95 15.1 157.95 17.5 L157.95 21.7 Q157.95 24.15 156.65 25.65 155.55 27.0 153.2 27.65 L147.65 28.25 135.75 28.25 130.25 27.65 Q127.9 27.15 126.8 25.65 125.55 24.3 125.55 21.7 L125.55 20.2 137.7 20.2 Q137.85 21.6 138.7 22.2 139.85 22.95 141.55 22.95 143.3 22.95 144.55 22.1 145.65 21.3 145.65 19.75 L145.65 17.95 134.15 17.6 Q125.8 17.45 125.8 11.8 L125.8 7.55 Q125.8 5.2 127.05 3.7 128.15 2.25 130.5 1.6 L136.1 1.0 147.35 1.0 Q152.45 1.0 154.95 2.5 157.65 3.85 157.65 7.55 M109.35 19.1 L113.65 1.25 125.2 1.25 118.5 28.0 101.15 28.0 97.15 9.3 96.95 9.3 92.45 28.0 74.85 28.0 68.7 1.25 80.85 1.25 84.7 18.25 84.8 18.25 88.9 1.25 105.25 1.25 109.3 19.1 109.35 19.1 M46.45 22.8 L44.5 28.0 33.2 28.0 42.25 1.25 62.75 1.25 71.65 28.0 59.1 28.0 57.4 22.8 46.45 22.8 M52.05 6.45 L51.95 6.45 48.25 17.25 55.55 17.25 52.05 6.45 M31.35 11.65 Q30.25 13.0 28.85 13.55 L25.4 14.6 25.4 14.65 Q28.5 15.1 30.1 16.0 31.75 17.25 32.1 18.35 32.6 19.7 32.6 21.2 32.6 24.95 30.1 26.5 27.55 28.0 22.3 28.0 L0.0 28.0 0.0 1.25 21.95 1.25 Q27.15 1.25 29.85 2.7 32.25 4.2 32.25 7.95 32.25 10.2 31.35 11.65 M12.05 11.8 L15.35 11.8 Q17.95 11.8 19.1 10.9 20.05 9.95 20.05 9.2 20.05 8.3 18.95 7.35 17.95 6.8 15.6 6.8 L12.05 6.8 12.05 11.8 M18.5 22.05 Q20.35 21.55 20.35 19.7 20.35 18.7 19.35 17.75 18.1 16.85 15.6 16.85 L12.15 16.85 12.15 22.55 14.65 22.55 18.5 22.05" fill="#ffffff" fill-rule="evenodd" stroke="none"/>
    <path d="M179.95 33.0 L180.15 37.2 181.9 33.0 183.3 33.0 180.2 40.05 179.05 40.05 178.8 34.65 176.5 40.05 175.35 40.05 175.0 33.0 176.35 33.0 176.55 37.2 178.3 33.0 179.95 33.0 M173.9 35.55 Q173.9 37.6 172.85 38.9 171.8 40.2 170.0 40.2 168.8 40.2 168.15 39.5 167.45 38.8 167.45 37.6 167.45 35.6 168.5 34.25 169.55 32.85 171.25 32.85 172.5 32.85 173.2 33.55 173.9 34.3 173.9 35.55 M165.75 33.7 Q166.65 34.45 166.65 35.75 166.65 37.7 165.55 38.9 164.45 40.05 162.6 40.05 L160.2 40.05 161.6 33.0 163.65 33.0 Q164.9 33.0 165.75 33.7 M163.4 34.2 L162.8 34.2 161.85 38.85 162.8 38.85 Q163.85 38.85 164.5 38.0 165.15 37.2 165.15 35.95 165.15 35.1 164.7 34.65 164.25 34.2 163.4 34.2 M169.5 35.1 Q168.9 36.15 168.9 37.5 168.9 39.0 170.2 39.0 171.25 39.0 171.85 37.95 172.45 36.95 172.45 35.5 172.45 34.05 171.15 34.05 170.1 34.05 169.5 35.1 M192.75 35.4 L193.7 35.85 Q194.8 36.2 195.2 36.65 195.6 37.15 195.6 37.85 195.6 39.0 194.9 39.6 194.15 40.2 192.85 40.2 191.0 40.2 190.4 38.55 L191.65 38.1 Q192.05 39.1 193.1 39.1 L193.85 38.8 194.2 38.15 Q194.2 37.7 193.85 37.4 L192.8 36.95 Q191.15 36.45 191.15 35.1 191.15 34.05 191.9 33.4 192.65 32.85 193.9 32.85 194.8 32.85 195.35 33.3 195.95 33.7 196.05 34.4 L194.75 34.75 Q194.5 33.85 193.7 33.85 193.25 33.85 192.9 34.15 192.5 34.35 192.5 34.8 192.5 35.25 192.75 35.4 M185.85 33.0 L187.9 37.8 188.85 33.0 190.25 33.0 188.85 40.05 187.55 40.05 185.45 35.1 184.5 40.05 183.1 40.05 184.5 33.0 185.85 33.0 M131.85 34.75 Q131.6 33.85 130.8 33.85 130.35 33.85 130.0 34.15 129.65 34.35 129.65 34.8 L129.85 35.4 130.8 35.85 Q131.9 36.2 132.35 36.65 132.7 37.15 132.7 37.85 132.7 39.0 132.0 39.6 131.25 40.2 129.95 40.2 128.1 40.2 127.5 38.55 L128.75 38.1 Q129.15 39.1 130.2 39.1 L130.95 38.8 131.3 38.15 Q131.3 37.7 130.95 37.4 130.65 37.2 129.9 36.95 128.25 36.45 128.25 35.1 128.25 34.05 129.0 33.4 129.75 32.85 131.0 32.85 131.9 32.85 132.5 33.3 133.05 33.7 133.15 34.4 L131.85 34.75 M140.95 33.0 L141.95 40.05 140.45 40.05 140.25 38.4 138.0 38.4 137.15 40.05 135.65 40.05 139.5 33.0 140.95 33.0 M123.25 36.15 L124.55 36.15 Q126.0 36.15 126.0 34.95 126.0 34.2 124.95 34.2 L123.65 34.2 123.25 36.15 M125.0 33.0 Q127.45 33.0 127.45 34.85 127.45 36.0 126.7 36.65 125.9 37.25 124.6 37.25 L123.1 37.25 122.5 40.05 121.15 40.05 122.5 33.0 125.0 33.0 M140.15 37.35 L139.8 34.9 138.5 37.35 140.15 37.35 M156.8 35.75 Q156.8 37.7 155.7 38.9 154.6 40.05 152.75 40.05 L150.4 40.05 151.75 33.0 153.8 33.0 Q155.1 33.0 155.95 33.7 156.8 34.45 156.8 35.75 M154.85 34.65 Q154.4 34.2 153.55 34.2 L152.95 34.2 152.0 38.85 152.95 38.85 Q154.05 38.85 154.65 38.0 155.3 37.2 155.3 35.95 155.3 35.1 154.85 34.65 M150.05 33.0 L148.7 40.05 147.4 40.05 145.25 35.1 144.3 40.05 142.95 40.05 144.3 33.0 145.7 33.0 147.75 37.8 148.7 33.0 150.05 33.0 M97.2 34.2 L94.3 34.2 93.95 36.05 95.65 36.05 95.45 37.25 93.7 37.25 93.15 40.05 91.8 40.05 93.15 33.0 97.45 33.0 97.2 34.2 M99.1 36.95 L98.7 38.85 102.0 38.85 101.75 40.05 97.1 40.05 98.45 33.0 102.85 33.0 102.6 34.25 99.6 34.25 99.35 35.75 101.3 35.75 101.05 36.95 99.1 36.95 M86.1 33.0 L84.95 38.85 87.9 38.85 87.65 40.05 83.3 40.05 84.7 33.0 86.1 33.0 M88.7 40.05 L90.05 33.0 91.45 33.0 90.05 40.05 88.7 40.05 M120.85 33.0 L119.95 37.4 Q119.65 38.9 118.85 39.55 118.05 40.2 116.55 40.2 115.5 40.2 114.85 39.65 114.3 39.1 114.3 38.15 L114.4 37.2 115.2 33.0 116.55 33.0 115.75 37.3 115.65 37.9 Q115.65 39.0 116.85 39.0 118.3 39.0 118.65 37.0 L119.4 33.0 120.85 33.0 M103.9 32.85 L105.25 32.85 104.55 35.45 103.6 35.45 103.6 34.2 103.9 32.85 M108.5 32.85 Q109.4 32.85 109.95 33.3 110.55 33.7 110.65 34.4 L109.35 34.75 Q109.1 33.85 108.3 33.85 107.85 33.85 107.5 34.15 107.1 34.35 107.1 34.8 107.1 35.25 107.35 35.4 L108.3 35.85 Q109.4 36.2 109.8 36.65 110.2 37.15 110.2 37.85 110.2 39.0 109.5 39.6 108.75 40.2 107.45 40.2 105.6 40.2 105.0 38.55 L106.25 38.1 Q106.65 39.1 107.7 39.1 L108.45 38.8 108.8 38.15 Q108.8 37.7 108.45 37.4 L107.4 36.95 Q105.75 36.45 105.75 35.1 105.75 34.05 106.5 33.4 107.25 32.85 108.5 32.85 M59.4 33.0 L58.0 40.05 56.7 40.05 54.6 35.1 53.65 40.05 52.25 40.05 53.65 33.0 55.0 33.0 57.05 37.8 58.0 33.0 59.4 33.0 M46.55 33.0 L45.4 38.85 48.35 38.85 48.15 40.05 43.8 40.05 45.2 33.0 46.55 33.0 M49.15 40.05 L50.55 33.0 51.95 33.0 50.55 40.05 49.15 40.05 M41.35 40.05 L41.15 38.4 38.85 38.4 38.0 40.05 36.55 40.05 40.4 33.0 41.8 33.0 42.8 40.05 41.35 40.05 M59.95 37.5 Q59.95 35.35 61.05 34.15 62.15 32.85 64.05 32.85 65.05 32.85 65.7 33.4 66.3 33.95 66.4 34.9 L65.25 35.3 Q65.05 34.05 63.85 34.05 62.65 34.05 62.05 34.95 61.4 35.85 61.4 37.35 61.4 39.05 63.0 39.05 L64.15 38.6 64.9 37.5 63.05 37.5 63.25 36.45 66.2 36.45 65.5 40.05 64.35 40.05 64.55 39.2 Q63.65 40.2 62.4 40.2 61.3 40.2 60.6 39.45 59.95 38.75 59.95 37.5 M40.65 34.9 L39.4 37.35 41.0 37.35 40.65 34.9 M80.2 33.0 L78.8 40.05 77.55 40.05 75.4 35.1 74.45 40.05 73.05 40.05 74.45 33.0 75.8 33.0 77.85 37.8 78.8 33.0 80.2 33.0 M72.75 33.0 L71.35 40.05 70.0 40.05 71.35 33.0 72.75 33.0 M35.65 35.75 L35.4 36.95 33.45 36.95 33.05 38.85 36.35 38.85 36.1 40.05 31.45 40.05 32.85 33.0 37.2 33.0 36.95 34.25 33.95 34.25 33.7 35.75 35.65 35.75 M30.0 33.7 Q30.85 34.45 30.85 35.75 30.85 37.7 29.75 38.9 28.65 40.05 26.8 40.05 L24.45 40.05 25.8 33.0 27.85 33.0 Q29.15 33.0 30.0 33.7 M27.6 34.2 L27.0 34.2 26.05 38.85 27.0 38.85 Q28.1 38.85 28.7 38.0 29.35 37.2 29.35 35.95 29.35 35.1 28.9 34.65 28.45 34.2 27.6 34.2" fill="#ffffff" fill-rule="evenodd" stroke="none"/>
  </g>
</svg>
