<?xml version="1.0" encoding="UTF-8" standalone="no"?>
<svg xmlns:ffdec="https://www.free-decompiler.com/flash" xmlns:xlink="http://www.w3.org/1999/xlink" ffdec:objectType="shape" height="265.7px" width="235.3px" xmlns="http://www.w3.org/2000/svg">
  <g transform="matrix(1.0, 0.0, 0.0, 1.0, 212.0, 423.05)">
    <path d="M-212.0 -423.05 L23.3 -423.05 23.3 -157.35 -212.0 -157.35 -212.0 -423.05" fill="#434343" fill-rule="evenodd" stroke="none"/>
    <path d="M-124.75 -314.0 L-124.75 -321.7 -132.55 -321.7 -132.55 -314.0 -124.75 -314.0 M-198.35 -295.65 L-198.35 -400.05 -117.9 -412.9 11.4 -412.9 11.4 -295.65 -50.3 -295.65 -50.3 -293.75 -44.95 -293.75 -44.95 -286.8 -1.25 -286.8 -1.25 -171.7 -159.9 -171.7 -159.9 -226.6 -170.1 -226.6 -170.1 -261.35 -159.75 -261.35 -159.75 -291.45 -86.0 -291.45 -86.0 -280.2 -82.35 -280.2 -82.35 -293.75 -77.0 -293.75 -77.0 -295.65 -198.35 -295.65" fill="#969696" fill-rule="evenodd" stroke="none"/>
    <path d="M-135.4 -278.9 L-135.4 -270.5 -159.75 -270.5 -159.75 -291.45 -86.0 -291.45 -86.0 -278.9 -135.4 -278.9" fill="#707070" fill-rule="evenodd" stroke="none"/>
    <path d="M-170.1 -261.35 L-157.2 -261.35 -157.2 -226.6 -170.1 -226.6 -170.1 -261.35" fill="#707070" fill-rule="evenodd" stroke="none"/>
    <path d="M-159.9 -214.25 L-145.65 -214.25 -145.65 -178.1 -159.9 -178.1 -159.9 -214.25" fill="#707070" fill-rule="evenodd" stroke="none"/>
    <path d="M-21.95 -286.8 L-1.25 -286.8 -1.25 -171.7 -47.05 -171.7 -47.05 -191.3 -21.95 -191.3 -21.95 -286.8" fill="#707070" fill-rule="evenodd" stroke="none"/>
    <path d="M-147.85 -221.75 L-148.2 -223.5 -147.65 -225.2 -146.3 -226.4 -144.55 -226.75 -142.85 -226.2 -141.65 -224.85 -141.25 -223.1 -141.85 -221.4 -143.2 -220.2 -144.95 -219.85 -146.65 -220.4 -147.85 -221.75" fill="#707070" fill-rule="evenodd" stroke="none"/>
    <path d="M0.05 -312.85 L2.2 -310.45 2.85 -307.3 1.8 -304.3 -0.6 -302.15 -3.75 -301.5 -6.8 -302.55 -8.95 -304.9 -9.6 -308.05 -8.6 -311.1 -6.15 -313.2 -3.0 -313.85 0.05 -312.85" fill="#707070" fill-rule="evenodd" stroke="none"/>
    <path d="M-17.55 -310.65 L-15.2 -308.0 -14.5 -304.55 -15.6 -301.2 -18.25 -298.9 -21.75 -298.2 -25.1 -299.3 -27.45 -301.95 -28.15 -305.35 -27.05 -308.7 -24.4 -311.05 -20.9 -311.75 -17.55 -310.65" fill="#707070" fill-rule="evenodd" stroke="none"/>
    <path d="M-1.9 -406.2 L-0.2 -407.7 2.0 -408.15 4.2 -407.45 5.7 -405.75 6.15 -403.55 5.45 -401.4 3.7 -399.9 1.5 -399.45 -0.65 -400.15 -2.2 -401.85 -2.65 -404.05 -1.9 -406.2" fill="#707070" fill-rule="evenodd" stroke="none"/>
    <path d="M-185.9 -399.05 L-132.55 -399.05 -132.55 -295.65 -185.9 -295.65 -185.9 -399.05" fill="#707070" fill-rule="evenodd" stroke="none"/>
    <path d="M0.1 -375.05 L11.4 -375.05 11.4 -335.05 0.1 -335.05 0.1 -375.05" fill="#707070" fill-rule="evenodd" stroke="none"/>
    <path d="M-16.0 -354.25 L-6.0 -336.45 -2.0 -318.45 -11.5 -314.9 -19.6 -330.7 -24.25 -351.15 -16.0 -354.25" fill="#707070" fill-rule="evenodd" stroke="none"/>
    <path d="M-72.55 -412.9 L-30.4 -412.9 -30.4 -405.25 -72.55 -405.25 -72.55 -412.9" fill="#707070" fill-rule="evenodd" stroke="none"/>
    <path d="M-116.9 -295.65 L-116.9 -302.35 -93.3 -302.35 -93.3 -295.65 -116.9 -295.65" fill="#707070" fill-rule="evenodd" stroke="none"/>
    <path d="M-122.0 -378.35 L-162.35 -378.35 -162.35 -295.65 -198.35 -295.65 -198.35 -410.0 -122.0 -410.0 -122.0 -378.35" fill="#ffffff" fill-rule="evenodd" stroke="none"/>
  </g>
</svg>
