<?xml version="1.0" encoding="UTF-8" standalone="no"?>
<svg xmlns:ffdec="https://www.free-decompiler.com/flash" xmlns:xlink="http://www.w3.org/1999/xlink" ffdec:objectType="shape" height="549.55px" width="318.3px" xmlns="http://www.w3.org/2000/svg">
  <g transform="matrix(1.0, 0.0, 0.0, 1.0, 212.0, 423.05)">
    <path d="M-212.0 -423.05 L106.3 -423.05 106.3 126.5 -108.05 126.5 -108.05 -157.35 -212.0 -157.35 -212.0 -423.05" fill="#434343" fill-rule="evenodd" stroke="none"/>
    <path d="M-70.35 54.0 L-70.35 46.0 -78.35 46.0 -78.35 54.0 -70.35 54.0 M80.85 54.2 L80.85 46.2 72.85 46.2 72.85 54.2 80.85 54.2 M-132.7 -413.35 L-91.8 -413.35 -31.65 -190.3 -50.65 -190.3 -50.65 -186.4 -31.65 -186.4 -31.65 -106.7 -14.45 -106.7 -14.45 -111.7 -25.8 -111.7 -25.8 -151.6 34.3 -151.6 34.3 -111.7 22.3 -111.7 22.3 -106.7 50.65 -106.7 50.65 -111.35 38.65 -111.35 38.65 -190.45 13.95 -190.45 13.95 -188.45 33.75 -188.45 33.75 -155.8 -25.35 -155.8 -25.35 -188.45 -5.35 -188.45 -5.35 -190.45 -25.35 -190.45 -25.35 -278.45 38.4 -295.8 96.2 -295.8 96.2 -280.25 102.0 -280.25 102.0 -234.0 96.85 -234.0 96.85 -111.35 84.0 -111.35 84.0 -106.7 96.0 -106.7 96.0 14.0 102.65 14.0 102.65 46.0 96.0 46.0 96.0 66.0 -96.95 66.0 -96.95 -186.4 -82.3 -186.4 -82.3 -190.3 -96.95 -190.3 -107.35 -230.45 -198.35 -230.45 -198.35 -295.65 -138.0 -295.65 -132.7 -307.8 -132.7 -413.35" fill="#969696" fill-rule="evenodd" stroke="none"/>
    <path d="M60.25 31.5 L59.85 29.75 61.6 29.85 63.45 30.45 65.3 31.55 67.0 33.05 68.5 34.9 69.65 36.95 70.35 39.05 70.65 41.15 70.5 43.0 69.85 44.6 67.95 44.35 61.0 48.95 59.75 49.35 58.3 49.3 56.45 47.25 52.3 40.9 51.2 38.0 51.75 36.6 52.6 35.6 60.25 31.5" fill="#707070" fill-rule="evenodd" stroke="none"/>
    <path d="M-67.5 37.95 L-65.55 38.0 -59.05 32.85 -57.8 32.3 -56.4 32.25 -54.35 34.1 -49.65 40.1 -48.3 42.85 -48.7 44.3 -49.5 45.4 -56.8 50.1 -56.2 51.85 -57.95 51.9 -59.85 51.45 -61.8 50.55 -63.65 49.15 -65.25 47.45 -66.6 45.55 -67.5 43.5 -68.0 41.45 -68.0 39.55 -67.5 37.95" fill="#707070" fill-rule="evenodd" stroke="none"/>
    <path d="M84.0 -49.0 L84.0 -66.7 96.0 -66.7 96.0 11.65 84.0 11.65 84.0 -5.7 35.65 -5.7 35.65 -49.0 84.0 -49.0" fill="#707070" fill-rule="evenodd" stroke="none"/>
    <path d="M-19.0 -144.5 L-19.0 -111.7 -25.8 -111.7 -25.8 -151.6 34.3 -151.6 34.3 -111.7 27.5 -111.7 27.5 -144.5 -19.0 -144.5" fill="#707070" fill-rule="evenodd" stroke="none"/>
    <path d="M-96.95 -56.35 L-84.7 -56.35 -84.7 6.3 -96.95 6.3 -96.95 -56.35" fill="#707070" fill-rule="evenodd" stroke="none"/>
    <path d="M40.65 -282.25 L40.65 -295.8 93.3 -295.8 93.3 -282.25 40.65 -282.25" fill="#707070" fill-rule="evenodd" stroke="none"/>
    <path d="M30.9 -266.25 L32.35 -263.9 32.85 -262.55 33.1 -261.2 33.15 -259.8 33.0 -258.45 32.65 -257.2 32.1 -256.05 31.35 -255.0 30.5 -254.2 27.2 -252.3 21.35 -249.7 4.35 -244.15 0.6 -243.6 -0.6 -243.65 -1.8 -244.0 -3.0 -244.55 -4.05 -245.3 -5.05 -246.25 -5.85 -247.35 -7.0 -249.9 -7.25 -251.3 -7.3 -252.65 -7.15 -254.0 -6.8 -255.3 -6.25 -256.45 -5.5 -257.45 -4.65 -258.25 -1.35 -260.2 12.3 -265.55 21.5 -268.3 25.25 -268.9 26.5 -268.8 27.7 -268.5 28.85 -267.95 29.9 -267.2 30.9 -266.25" fill="#707070" fill-rule="evenodd" stroke="none"/>
    <path d="M84.45 -248.1 L85.85 -248.85 86.7 -249.05 89.45 -249.35 96.5 -249.45 96.45 -241.35 89.4 -241.35 86.65 -241.8 85.1 -242.35 84.4 -242.8 83.85 -243.3 83.4 -243.85 83.1 -244.45 82.95 -245.1 83.0 -245.75 83.15 -246.4 83.45 -247.05 83.85 -247.6 84.45 -248.1" fill="#707070" fill-rule="evenodd" stroke="none"/>
    <path d="M102.85 69.75 L102.85 122.4 -103.15 122.4 -103.15 69.75 102.85 69.75" fill="#707070" fill-rule="evenodd" stroke="none"/>
    <path d="M-89.7 19.65 L-89.75 18.0 -89.05 16.5 -87.8 15.45 -86.2 15.05 -84.6 15.4 -83.3 16.4 -82.55 17.85 -82.5 19.5 -83.15 21.0 -84.45 22.05 -86.0 22.45 -87.65 22.15 -88.95 21.15 -89.7 19.65" fill="#707070" fill-rule="evenodd" stroke="none"/>
    <path d="M89.1 39.4 L90.4 40.4 91.15 41.85 91.2 43.5 90.5 45.0 89.25 46.05 87.65 46.45 86.05 46.15 84.7 45.15 83.95 43.65 83.9 42.0 84.6 40.5 85.85 39.45 87.45 39.05 89.1 39.4" fill="#707070" fill-rule="evenodd" stroke="none"/>
    <path d="M-79.8 27.7 L-78.1 27.65 -76.5 28.15 -75.05 29.1 -74.0 30.4 -73.35 31.95 -73.2 33.65 -73.55 35.3 -74.4 36.75 -75.6 37.95 -77.1 38.7 -78.8 38.95 -80.45 38.75 -82.0 38.0 -83.25 36.9 -84.1 35.45 -84.5 33.8 -84.4 32.1 -83.8 30.55 -82.8 29.2 -81.4 28.2 -79.8 27.7" fill="#707070" fill-rule="evenodd" stroke="none"/>
    <path d="M-132.7 -377.7 L-162.35 -377.7 -162.35 -295.65 -198.35 -295.65 -198.35 -413.35 -132.7 -413.35 -132.7 -377.7" fill="#ffffff" fill-rule="evenodd" stroke="none"/>
  </g>
</svg>
