<?xml version="1.0" encoding="UTF-8" standalone="no"?>
<svg xmlns:ffdec="https://www.free-decompiler.com/flash" xmlns:xlink="http://www.w3.org/1999/xlink" ffdec:objectType="shape" height="1450.5px" width="1068.5px" xmlns="http://www.w3.org/2000/svg">
  <g transform="matrix(1.0, 0.0, 0.0, 1.0, 781.8, 605.7)">
    <path d="M-781.8 -83.2 L-469.3 -83.2 -469.3 -605.7 286.7 -605.7 286.7 844.8 -781.8 844.8 -781.8 -83.2" fill="#434343" fill-rule="evenodd" stroke="none"/>
    <path d="M21.0 73.15 L12.2 73.15 12.2 92.4 5.7 92.4 5.7 94.9 10.85 94.9 10.85 97.8 -3.05 97.8 -3.05 100.85 -9.15 100.85 -9.15 107.85 -39.9 107.85 -39.9 100.85 -45.55 100.85 -45.55 97.8 -59.3 97.8 -59.3 94.9 -54.3 94.9 -54.3 92.4 -59.0 92.4 -59.0 89.4 -65.8 89.4 -65.8 92.65 -70.3 92.65 -70.3 94.65 -65.15 94.65 -65.15 97.55 -79.05 97.55 -79.05 100.85 -85.4 100.85 -85.4 107.85 -116.15 107.85 -116.15 100.85 -121.55 100.85 -121.55 97.55 -135.3 97.55 -135.3 94.65 -130.3 94.65 -130.3 92.65 -137.0 92.65 -137.0 73.15 -148.3 73.15 -148.3 94.8 -150.15 94.8 -150.15 92.3 -155.3 92.3 -155.3 94.8 -151.05 94.8 -151.05 97.8 -201.8 97.8 -201.8 103.3 -199.3 103.3 -199.3 108.8 -193.55 108.8 -193.55 218.8 -199.15 218.8 -199.15 221.8 -202.05 221.8 -202.05 228.15 -141.8 228.15 -141.8 255.3 -134.15 255.3 -134.15 224.8 13.35 224.8 13.35 248.3 21.35 248.3 21.35 226.5 43.2 226.5 43.2 120.5 21.0 120.5 21.0 73.15 M-482.3 356.15 L-482.3 311.15 -576.65 311.15 -576.65 256.8 -583.55 256.8 -583.55 289.55 -605.55 289.55 -605.55 497.2 -583.55 497.2 -583.55 529.95 -580.55 529.95 -580.55 568.2 -583.55 568.2 -583.55 600.95 -605.55 600.95 -605.55 659.9 -326.65 659.9 -326.65 637.15 -294.4 637.15 -294.4 634.5 -256.0 634.5 -256.0 637.15 -223.0 637.15 -223.0 659.9 42.45 659.9 42.45 589.05 21.2 589.05 21.2 556.55 17.95 556.55 17.95 518.05 21.2 518.05 21.2 485.55 43.35 485.55 43.35 328.15 21.35 328.15 21.35 306.8 13.35 306.8 13.35 356.3 -134.15 356.3 -134.15 294.3 -141.8 294.3 -141.8 336.55 -237.3 336.55 -237.3 352.8 -277.3 352.8 -277.3 336.55 -312.8 336.55 -312.8 316.15 -318.3 316.15 -318.3 356.15 -482.3 356.15 M-514.25 99.8 L-514.25 97.15 -546.75 97.15 -546.75 74.8 -605.55 74.8 -605.55 185.8 -583.55 185.8 -583.55 218.55 -576.65 218.55 -576.65 192.8 -482.3 192.8 -482.3 182.15 -373.3 182.15 -373.3 230.15 -318.3 230.15 -318.3 274.15 -312.8 274.15 -312.8 228.15 -229.25 228.15 -229.25 221.8 -232.5 221.8 -232.5 218.8 -359.55 218.8 -359.55 108.8 -232.45 108.8 -232.45 103.3 -229.7 103.3 -229.7 97.8 -366.9 97.8 -366.9 94.8 -361.8 94.8 -361.8 92.3 -366.65 92.3 -366.65 64.3 -373.65 64.3 -373.65 74.8 -443.05 74.8 -443.05 97.15 -475.55 97.15 -475.55 99.8 -514.25 99.8 M-293.0 -287.4 L-271.5 -287.4 -271.5 -254.25 -268.35 -254.25 -268.35 -215.9 -271.5 -215.9 -271.5 -183.5 -293.0 -183.5 -293.0 -34.45 -303.3 -34.45 -303.3 -27.85 -258.55 -27.85 -258.55 -25.55 -263.45 -25.55 -263.45 -22.85 -256.05 -22.85 -256.05 -47.45 -225.05 -47.45 -225.05 -50.1 -185.5 -50.1 -185.5 -47.45 -155.05 -47.45 -155.05 -25.2 -150.15 -25.2 -150.15 -27.35 -148.3 -27.35 -148.3 -5.85 -137.1 -5.85 -137.1 -24.95 -130.75 -24.95 -130.75 -27.2 -135.55 -27.2 -135.55 -30.3 -121.7 -30.3 -121.7 -33.05 -116.3 -33.05 -116.3 -36.7 -85.55 -36.7 -85.55 -33.05 -79.7 -33.05 -79.7 -30.3 -65.8 -30.3 -65.8 -27.2 -70.6 -27.2 -70.6 -24.95 -65.95 -24.95 -65.95 -22.2 -59.3 -22.2 -59.3 -24.95 -53.9 -24.95 -53.9 -27.2 -58.7 -27.2 -58.7 -30.3 -44.85 -30.3 -44.85 -33.05 -39.8 -33.05 -39.8 -36.7 -8.05 -36.7 -8.05 -33.05 -2.85 -33.05 -2.85 -30.3 11.05 -30.3 11.05 -27.2 6.2 -27.2 6.2 -24.95 12.4 -24.95 12.4 -5.85 21.0 -5.85 21.0 -53.5 43.7 -53.5 43.7 -142.3 21.5 -142.3 21.5 -175.45 18.35 -175.45 18.35 -213.8 21.5 -213.8 21.5 -246.25 43.7 -246.25 43.7 -408.95 43.2 -408.95 43.2 -410.2 -79.3 -410.2 -79.3 -387.95 -111.8 -387.95 -111.8 -384.45 -150.3 -384.45 -150.3 -387.95 -182.55 -387.95 -182.55 -410.2 -293.0 -410.2 -293.0 -287.4 M-142.9 -469.2 L-142.9 -487.5 -124.55 -487.5 -124.55 -490.65 -97.3 -490.65 -97.3 -487.5 -78.65 -487.5 -78.65 -469.2 -39.0 -469.2 -39.0 -487.5 -20.7 -487.5 -20.7 -490.65 6.55 -490.65 6.55 -487.5 25.25 -487.5 25.25 -469.2 43.2 -469.2 43.2 -520.2 54.95 -520.2 54.95 -523.45 94.7 -523.45 94.7 -520.2 106.45 -520.2 106.45 -408.95 103.0 -408.95 103.0 -362.85 122.55 -362.85 122.55 -344.5 125.55 -344.5 125.55 -317.1 122.55 -317.1 122.55 -298.75 103.0 -298.75 103.0 -259.2 122.9 -259.2 122.9 -240.8 125.9 -240.8 125.9 -213.45 122.9 -213.45 122.9 -195.05 103.0 -195.05 103.0 -155.45 123.15 -155.45 123.15 -137.05 126.15 -137.05 126.15 -109.7 123.15 -109.7 123.15 -91.3 103.0 -91.3 103.0 -72.0 105.7 -72.0 105.7 -33.2 102.0 -33.2 102.0 179.5 106.0 179.5 106.0 207.3 102.0 207.3 102.0 265.8 122.0 265.8 122.0 283.8 125.0 283.8 125.0 311.5 122.0 311.5 122.0 329.5 102.2 329.5 102.2 369.65 122.35 369.65 122.35 387.65 125.35 387.65 125.35 414.8 122.35 414.8 122.35 433.3 102.2 433.3 102.2 473.3 122.85 473.3 122.85 491.5 125.35 491.5 125.35 519.15 122.85 519.15 122.85 537.15 102.45 537.15 102.45 576.55 122.7 576.55 122.7 596.05 124.95 596.05 124.95 623.55 122.7 623.55 122.7 640.8 102.45 640.8 102.45 658.8 154.0 658.8 154.0 671.15 157.35 671.15 157.35 711.15 154.0 711.15 154.0 723.15 43.35 723.15 43.35 718.3 -3.6 718.3 -3.6 739.0 -21.0 739.0 -21.0 742.0 -48.15 742.0 -48.15 739.0 -66.4 739.0 -66.4 718.3 -107.1 718.3 -107.1 739.0 -124.5 739.0 -124.5 742.0 -151.65 742.0 -151.65 739.0 -169.9 739.0 -169.9 718.3 -211.5 718.3 -211.5 739.0 -228.9 739.0 -228.9 742.0 -256.05 742.0 -256.05 739.0 -274.3 739.0 -274.3 718.8 -315.65 718.8 -315.65 739.0 -333.05 739.0 -333.05 742.0 -360.25 742.0 -360.25 739.0 -378.5 739.0 -378.5 718.3 -420.65 718.3 -420.65 739.0 -438.05 739.0 -438.05 742.0 -465.25 742.0 -465.25 739.0 -483.5 739.0 -483.5 718.3 -523.65 718.3 -523.65 739.0 -541.05 739.0 -541.05 742.0 -568.25 742.0 -568.25 739.0 -586.5 739.0 -586.5 718.3 -605.55 718.3 -605.55 770.55 -617.0 770.55 -617.0 773.7 -657.0 773.7 -657.0 770.55 -668.5 770.55 -668.5 659.15 -665.3 659.15 -665.3 612.65 -684.3 612.65 -684.3 594.75 -687.55 594.75 -687.55 567.65 -684.3 567.65 -684.3 549.75 -665.3 549.75 -665.3 508.8 -684.3 508.8 -684.3 490.9 -687.55 490.9 -687.55 463.8 -684.3 463.8 -684.3 445.9 -665.3 445.9 -665.3 404.95 -684.3 404.95 -684.3 387.1 -687.55 387.1 -687.55 359.95 -684.3 359.95 -684.3 342.1 -665.3 342.1 -665.3 301.15 -684.3 301.15 -684.3 283.25 -687.55 283.25 -687.55 256.15 -684.3 256.15 -684.3 238.25 -665.3 238.25 -665.3 196.9 -684.3 196.9 -684.3 179.0 -687.55 179.0 -687.55 151.9 -684.3 151.9 -684.3 134.0 -665.3 134.0 -665.3 75.4 -715.9 75.4 -715.9 63.2 -719.3 63.2 -719.3 24.15 -715.9 24.15 -715.9 11.5 -605.8 11.5 -605.8 15.15 -373.65 15.15 -373.65 25.3 -366.65 25.3 -366.65 -22.85 -361.8 -22.85 -361.8 -25.55 -366.8 -25.55 -366.8 -27.85 -342.55 -27.85 -342.55 -34.45 -353.05 -34.45 -353.05 -119.05 -372.55 -119.05 -372.55 -137.45 -375.55 -137.45 -375.55 -164.8 -372.55 -164.8 -372.55 -183.2 -353.05 -183.2 -353.05 -222.8 -372.3 -222.8 -372.3 -241.2 -375.3 -241.2 -375.3 -268.55 -372.3 -268.55 -372.3 -286.95 -353.05 -286.95 -353.05 -326.5 -372.0 -326.5 -372.0 -344.85 -375.0 -344.85 -375.0 -372.25 -372.0 -372.25 -372.0 -390.6 -353.05 -390.6 -353.05 -410.2 -404.3 -410.2 -404.3 -420.95 -407.3 -420.95 -407.3 -460.7 -404.55 -460.7 -404.55 -472.95 -293.3 -472.95 -293.3 -469.2 -246.9 -469.2 -246.9 -487.5 -228.55 -487.5 -228.55 -490.65 -201.3 -490.65 -201.3 -487.5 -182.65 -487.5 -182.65 -469.2 -142.9 -469.2" fill="#969696" fill-rule="evenodd" stroke="none"/>
    <path d="M99.3 179.15 L108.8 179.15 108.8 140.5 216.15 140.5 216.15 169.15 219.15 169.15 219.15 197.5 216.15 197.5 216.15 231.5 108.8 231.5 108.8 207.5 99.3 207.5 99.3 179.15" fill="#969696" fill-rule="evenodd" stroke="none"/>
    <path d="M179.1 -86.5 L179.1 -91.35 208.5 -91.35 208.5 -86.5 216.5 -86.5 216.5 136.0 109.85 136.0 109.85 -33.2 94.7 -33.2 92.5 -72.0 109.85 -72.0 109.85 -86.5 179.1 -86.5" fill="#969696" fill-rule="evenodd" stroke="none"/>
    <path d="M114.2 149.5 L114.2 127.3 142.35 127.3 142.35 149.5 114.2 149.5" fill="#969696" fill-rule="evenodd" stroke="none"/>
    <path d="M-44.05 351.05 L-80.25 351.05 -80.25 332.9 -44.05 332.9 -44.05 351.05" fill="#707070" fill-rule="evenodd" stroke="none"/>
    <path d="M-40.8 313.55 L-80.65 313.55 -80.65 295.75 -40.8 295.75 -40.8 313.55" fill="#707070" fill-rule="evenodd" stroke="none"/>
    <path d="M-6.55 333.8 L-24.0 346.6 -34.95 331.65 -17.5 318.9 -6.55 333.8" fill="#707070" fill-rule="evenodd" stroke="none"/>
    <path d="M-102.95 317.0 L-88.95 333.45 -103.05 345.45 -117.05 329.0 -102.95 317.0" fill="#707070" fill-rule="evenodd" stroke="none"/>
    <path d="M-81.2 225.9 L-81.2 245.35 -101.35 245.35 -101.35 225.9 -81.2 225.9" fill="#707070" fill-rule="evenodd" stroke="none"/>
    <path d="M-60.2 245.35 L-80.35 245.35 -80.35 228.1 -60.2 228.1 -60.2 245.35" fill="#707070" fill-rule="evenodd" stroke="none"/>
    <path d="M-39.25 228.1 L-39.25 245.35 -59.4 245.35 -59.4 228.1 -39.25 228.1" fill="#707070" fill-rule="evenodd" stroke="none"/>
    <path d="M-38.25 232.55 L-21.5 232.55 -21.5 245.35 -38.25 245.35 -38.25 232.55" fill="#707070" fill-rule="evenodd" stroke="none"/>
    <path d="M5.15 349.1 L0.65 349.65 -2.95 346.8 -3.5 342.3 -0.7 338.7 3.85 338.15 7.45 340.95 8.0 345.5 5.15 349.1" fill="#707070" fill-rule="evenodd" stroke="none"/>
    <path d="M-118.6 349.1 L-123.1 349.65 -126.7 346.8 -127.25 342.3 -124.45 338.7 -119.9 338.15 -116.3 340.95 -115.75 345.5 -118.6 349.1" fill="#707070" fill-rule="evenodd" stroke="none"/>
    <path d="M-59.9 87.9 L-64.5 87.9 -67.7 84.7 -67.7 80.15 -64.5 76.9 -59.9 76.9 -56.7 80.1 -56.7 84.7 -59.9 87.9" fill="#707070" fill-rule="evenodd" stroke="none"/>
    <path d="M8.8 233.6 L8.8 238.2 5.6 241.4 1.05 241.4 -2.2 238.2 -2.2 233.65 1.0 230.4 5.6 230.4 8.8 233.6" fill="#707070" fill-rule="evenodd" stroke="none"/>
    <path d="M-116.7 233.6 L-116.7 238.2 -119.9 241.4 -124.5 241.4 -127.7 238.2 -127.7 233.65 -124.5 230.4 -119.9 230.4 -116.7 233.6" fill="#707070" fill-rule="evenodd" stroke="none"/>
    <path d="M-56.8 -12.75 L-60.0 -9.55 -64.6 -9.55 -67.8 -12.75 -67.8 -17.35 -64.6 -20.55 -60.0 -20.55 -56.8 -17.35 -56.8 -12.75" fill="#707070" fill-rule="evenodd" stroke="none"/>
    <path d="M-164.35 -35.2 L-168.9 -35.2 -172.15 -38.45 -172.15 -43.0 -168.9 -46.25 -164.35 -46.25 -161.1 -43.0 -161.1 -38.45 -164.35 -35.2" fill="#707070" fill-rule="evenodd" stroke="none"/>
    <path d="M-240.0 -34.85 L-244.6 -34.85 -247.8 -38.1 -247.8 -42.65 -244.6 -45.9 -240.0 -45.9 -236.8 -42.65 -236.8 -38.1 -240.0 -34.85" fill="#707070" fill-rule="evenodd" stroke="none"/>
    <path d="M-357.0 -10.55 L-353.8 -7.35 -353.8 -2.75 -357.0 0.45 -361.6 0.45 -364.8 -2.75 -364.8 -7.35 -361.6 -10.55 -357.0 -10.55" fill="#707070" fill-rule="evenodd" stroke="none"/>
    <path d="M-356.25 84.1 L-351.7 84.1 -348.45 87.35 -348.45 91.9 -351.7 95.15 -356.25 95.15 -359.5 91.9 -359.5 87.35 -356.25 84.1" fill="#707070" fill-rule="evenodd" stroke="none"/>
    <path d="M-230.0 23.55 L-228.5 25.2 -227.45 27.25 -226.75 30.75 -226.7 36.1 -226.75 36.8 -227.45 40.3 -228.5 42.35 -230.0 44.0 -231.85 45.2 -233.85 45.8 -279.9 45.8 -281.95 45.2 -283.75 44.0 -285.25 42.35 -286.3 40.3 -286.85 38.0 -287.15 33.75 -286.85 29.55 -286.3 27.25 -285.25 25.2 -283.75 23.55 -281.95 22.35 -279.9 21.75 -233.85 21.75 -231.85 22.35 -230.0 23.55" fill="#707070" fill-rule="evenodd" stroke="none"/>
    <path d="M-88.55 22.05 L-86.55 22.7 -84.8 23.85 -83.3 25.55 -82.3 27.6 -81.5 31.75 -81.5 36.4 -82.3 40.55 -83.3 42.6 -84.8 44.25 -86.55 45.45 -88.55 46.05 -112.65 46.05 -114.65 45.45 -116.4 44.25 -117.85 42.6 -118.9 40.55 -119.45 38.25 -119.7 36.4 -119.45 29.85 -118.9 27.6 -117.85 25.55 -116.4 23.85 -114.65 22.7 -112.65 22.05 -88.55 22.05" fill="#707070" fill-rule="evenodd" stroke="none"/>
    <path d="M-10.55 22.7 L-8.8 23.85 -7.3 25.55 -6.3 27.6 -5.5 31.75 -5.5 36.4 -6.3 40.55 -7.3 42.6 -8.8 44.25 -10.55 45.45 -12.55 46.05 -36.65 46.05 -38.65 45.45 -40.4 44.25 -41.85 42.6 -42.9 40.55 -43.45 38.25 -43.7 36.4 -43.45 29.85 -42.9 27.6 -41.85 25.55 -40.4 23.85 -38.65 22.7 -36.65 22.05 -12.55 22.05 -10.55 22.7" fill="#707070" fill-rule="evenodd" stroke="none"/>
    <path d="M-273.8 333.15 L-258.15 333.15 -258.15 352.8 -273.8 352.8 -273.8 333.15" fill="#707070" fill-rule="evenodd" stroke="none"/>
    <path d="M-239.3 333.15 L-239.3 352.8 -255.0 352.8 -255.0 333.15 -239.3 333.15" fill="#707070" fill-rule="evenodd" stroke="none"/>
    <path d="M-141.8 306.55 L-141.8 336.55 -225.05 336.55 -225.05 316.8 -195.05 316.8 -195.05 306.55 -141.8 306.55" fill="#707070" fill-rule="evenodd" stroke="none"/>
    <path d="M-264.8 228.15 L-264.8 257.8 -284.3 257.8 -284.3 265.8 -312.8 265.8 -312.8 228.15 -264.8 228.15" fill="#707070" fill-rule="evenodd" stroke="none"/>
    <path d="M-461.55 343.3 L-321.8 343.3 -321.8 356.3 -461.55 356.3 -461.55 343.3" fill="#707070" fill-rule="evenodd" stroke="none"/>
    <path d="M-479.55 355.05 L-479.55 308.8 -466.8 308.8 -466.8 355.05 -479.55 355.05" fill="#707070" fill-rule="evenodd" stroke="none"/>
    <path d="M-574.9 279.8 L-562.15 279.8 -562.15 308.8 -574.9 308.8 -574.9 279.8" fill="#707070" fill-rule="evenodd" stroke="none"/>
    <path d="M-530.0 300.5 L-530.0 310.15 -560.9 310.15 -560.9 300.5 -530.0 300.5" fill="#707070" fill-rule="evenodd" stroke="none"/>
    <path d="M-507.3 299.65 L-508.85 310.5 -528.9 307.65 -527.35 296.75 -507.3 299.65" fill="#707070" fill-rule="evenodd" stroke="none"/>
    <path d="M-472.05 305.05 L-479.55 305.05 -479.55 296.8 -472.05 296.8 -472.05 305.05" fill="#707070" fill-rule="evenodd" stroke="none"/>
    <path d="M-375.05 273.3 L-375.05 303.8 -424.8 303.8 -424.8 273.3 -375.05 273.3" fill="#707070" fill-rule="evenodd" stroke="none"/>
    <path d="M-414.3 231.5 L-320.65 231.5 -320.65 244.5 -414.3 244.5 -414.3 231.5" fill="#707070" fill-rule="evenodd" stroke="none"/>
    <path d="M-373.0 181.5 L-373.0 237.8 -382.3 237.8 -382.3 181.5 -373.0 181.5" fill="#707070" fill-rule="evenodd" stroke="none"/>
    <path d="M-431.65 182.8 L-431.65 195.15 -480.0 195.15 -480.0 182.8 -431.65 182.8" fill="#707070" fill-rule="evenodd" stroke="none"/>
    <path d="M-482.65 223.15 L-501.65 223.15 -502.0 213.15 -530.65 213.15 -530.65 192.8 -482.65 192.8 -482.65 223.15" fill="#707070" fill-rule="evenodd" stroke="none"/>
    <path d="M-127.0 160.05 L-127.0 107.85 -74.5 107.85 -74.5 160.05 -127.0 160.05" fill="#ffffff" fill-rule="evenodd" stroke="none"/>
    <path d="M1.75 107.85 L1.75 160.05 -50.75 160.05 -50.75 107.85 1.75 107.85" fill="#ffffff" fill-rule="evenodd" stroke="none"/>
    <path d="M-314.4 177.85 L-301.45 177.85 -301.45 218.8 -314.4 218.8 -314.4 177.85" fill="#ffffff" fill-rule="evenodd" stroke="none"/>
    <path d="M-296.55 177.85 L-283.6 177.85 -283.6 218.8 -296.55 218.8 -296.55 177.85" fill="#ffffff" fill-rule="evenodd" stroke="none"/>
    <path d="M-278.7 177.85 L-265.75 177.85 -265.75 218.8 -278.7 218.8 -278.7 177.85" fill="#ffffff" fill-rule="evenodd" stroke="none"/>
    <path d="M-260.9 177.85 L-247.9 177.85 -247.9 218.8 -260.9 218.8 -260.9 177.85" fill="#ffffff" fill-rule="evenodd" stroke="none"/>
    <path d="M-314.4 149.8 L-314.4 108.8 -301.45 108.8 -301.45 149.8 -314.4 149.8" fill="#ffffff" fill-rule="evenodd" stroke="none"/>
    <path d="M-296.55 108.8 L-283.6 108.8 -283.6 149.8 -296.55 149.8 -296.55 108.8" fill="#ffffff" fill-rule="evenodd" stroke="none"/>
    <path d="M-278.7 149.8 L-278.7 108.8 -265.75 108.8 -265.75 149.8 -278.7 149.8" fill="#ffffff" fill-rule="evenodd" stroke="none"/>
    <path d="M-260.9 108.8 L-247.9 108.8 -247.9 149.8 -260.9 149.8 -260.9 108.8" fill="#ffffff" fill-rule="evenodd" stroke="none"/>
    <path d="M210.5 44.5 L160.5 44.5 160.5 31.55 210.5 31.55 210.5 44.5" fill="#ffffff" fill-rule="evenodd" stroke="none"/>
    <path d="M210.5 13.7 L210.5 26.65 160.5 26.65 160.5 13.7 210.5 13.7" fill="#ffffff" fill-rule="evenodd" stroke="none"/>
    <path d="M210.5 -4.15 L210.5 8.85 160.5 8.85 160.5 -4.15 210.5 -4.15" fill="#ffffff" fill-rule="evenodd" stroke="none"/>
    <path d="M160.5 -21.95 L210.5 -21.95 210.5 -9.0 160.5 -9.0 160.5 -21.95" fill="#ffffff" fill-rule="evenodd" stroke="none"/>
    <path d="M160.5 80.0 L160.5 67.05 210.5 67.05 210.5 80.0 160.5 80.0" fill="#ffffff" fill-rule="evenodd" stroke="none"/>
    <path d="M160.5 62.15 L160.5 49.2 210.5 49.2 210.5 62.15 160.5 62.15" fill="#ffffff" fill-rule="evenodd" stroke="none"/>
  </g>
</svg>
