<?xml version="1.0" encoding="UTF-8" standalone="no"?>
<svg xmlns:ffdec="https://www.free-decompiler.com/flash" xmlns:xlink="http://www.w3.org/1999/xlink" ffdec:objectType="shape" height="17.5px" width="17.55px" xmlns="http://www.w3.org/2000/svg">
  <g transform="matrix(1.0, 0.0, 0.0, 1.0, 8.75, 8.75)">
    <path d="M3.9 -3.85 Q2.6 -5.15 0.75 -5.4 L0.75 -1.45 -0.75 -1.45 -0.75 -5.4 Q-2.55 -5.15 -3.85 -3.85 -5.1 -2.55 -5.35 -0.75 L-1.45 -0.75 -1.45 0.75 -5.35 0.75 Q-5.1 2.55 -3.85 3.85 -2.55 5.2 -0.75 5.4 L-0.75 1.5 0.75 1.5 0.75 5.4 Q2.6 5.2 3.9 3.85 5.2 2.55 5.4 0.75 L1.5 0.75 1.5 -0.75 5.4 -0.75 Q5.2 -2.55 3.9 -3.85 M-0.75 -8.75 L0.75 -8.75 0.75 -6.65 Q3.1 -6.4 4.75 -4.75 6.45 -3.05 6.65 -0.75 L8.8 -0.75 8.8 0.75 6.65 0.75 Q6.45 3.05 4.75 4.75 3.1 6.4 0.75 6.65 L0.75 8.75 -0.75 8.75 -0.75 6.65 Q-3.05 6.4 -4.7 4.75 -6.35 3.05 -6.6 0.75 L-8.75 0.75 -8.75 -0.75 -6.6 -0.75 Q-6.35 -3.05 -4.7 -4.75 -3.05 -6.4 -0.75 -6.65 L-0.75 -8.75" fill="#ffffff" fill-rule="evenodd" stroke="none"/>
  </g>
</svg>
