<?xml version="1.0" encoding="UTF-8" standalone="no"?>
<svg xmlns:ffdec="https://www.free-decompiler.com/flash" xmlns:xlink="http://www.w3.org/1999/xlink" ffdec:objectType="shape" height="20.15px" width="14.65px" xmlns="http://www.w3.org/2000/svg">
  <g transform="matrix(1.0, 0.0, 0.0, 1.0, 7.3, 10.05)">
    <path d="M5.25 0.55 L6.9 0.65 7.3 1.15 Q7.45 1.65 7.2 2.15 6.8 2.85 5.65 3.1 2.5 3.75 0.95 6.8 0.2 8.35 0.0 10.1 L-7.05 8.3 -6.55 4.0 -6.6 3.95 -7.3 2.55 -7.3 -1.1 -7.0 -2.0 -6.6 -2.2 -6.4 -2.25 -5.8 -2.0 -5.6 -1.45 -5.6 -0.7 -5.3 -0.7 -5.3 -2.5 Q-5.3 -3.1 -4.85 -3.35 L-4.35 -3.45 -3.65 -3.2 Q-3.4 -2.9 -3.4 -2.45 L-3.4 -0.5 -3.1 -0.5 -3.1 -3.2 -2.85 -3.9 Q-2.55 -4.25 -2.0 -4.2 L-1.25 -3.95 -1.05 -3.5 -1.0 -0.65 -0.75 -0.65 -0.75 -9.35 Q-0.6 -10.05 0.55 -10.05 1.35 -10.0 1.4 -9.05 L1.45 1.75 1.6 1.65 5.25 0.55" fill="#ffffff" fill-rule="evenodd" stroke="none"/>
  </g>
</svg>
