<?xml version="1.0" encoding="UTF-8" standalone="no"?>
<svg xmlns:ffdec="https://www.free-decompiler.com/flash" xmlns:xlink="http://www.w3.org/1999/xlink" ffdec:objectType="shape" height="29.9px" width="28.35px" xmlns="http://www.w3.org/2000/svg">
  <g transform="matrix(1.0, 0.0, 0.0, 1.0, 14.15, 14.95)">
    <path d="M12.6 -13.2 Q13.5 -11.05 13.9 -8.8 15.2 -1.55 11.1 3.8 6.95 9.15 3.05 12.6 L0.0 14.95 -3.0 12.6 Q-6.9 9.15 -11.05 3.8 -15.15 -1.55 -13.85 -8.8 -13.45 -11.05 -12.55 -13.2 L-11.7 -14.95 -6.05 -10.75 -7.6 -7.8 -3.0 -7.8 -2.75 -8.5 -2.75 -12.65 Q-2.5 -13.45 -1.8 -13.6 L1.55 -13.6 Q2.5 -13.6 3.65 -12.35 4.25 -11.65 4.2 -10.8 L4.05 -10.05 3.2 -10.4 2.9 -10.5 2.55 -10.5 Q2.25 -10.2 2.25 -9.75 L2.25 -9.15 Q2.45 -8.4 3.0 -7.8 L7.6 -7.8 6.05 -10.75 11.75 -14.95 12.6 -13.2" fill="#ffffff" fill-rule="evenodd" stroke="none"/>
  </g>
</svg>
