<?xml version="1.0" encoding="UTF-8" standalone="no"?>
<svg xmlns:ffdec="https://www.free-decompiler.com/flash" xmlns:xlink="http://www.w3.org/1999/xlink" ffdec:objectType="shape" height="87.45px" width="201.5px" xmlns="http://www.w3.org/2000/svg">
  <g transform="matrix(1.0, 0.0, 0.0, 1.0, 106.15, 44.45)">
    <path d="M95.35 43.0 L-106.15 43.0 -106.15 -44.45 95.35 -44.45 95.35 43.0" fill="#494242" fill-rule="evenodd" stroke="none"/>
    <path d="M75.65 -39.4 L80.15 -34.3 92.6 -34.3 92.6 32.2 80.15 32.2 75.65 37.35 75.65 40.9 12.75 40.9 12.75 27.5 10.2 27.5 10.2 40.9 -103.5 40.9 -103.5 -42.05 10.2 -42.05 10.2 -28.5 12.75 -28.5 12.75 -42.05 75.65 -42.05 75.65 -39.4" fill="#969696" fill-rule="evenodd" stroke="none"/>
    <path d="M50.6 34.5 L50.6 33.1 79.4 33.1 75.65 37.35 75.65 40.9 12.75 40.9 12.75 34.5 50.6 34.5" fill="#707070" fill-rule="evenodd" stroke="none"/>
    <path d="M80.15 -34.3 L92.6 -34.3 92.6 32.2 80.15 32.2 80.15 -34.3" fill="#707070" fill-rule="evenodd" stroke="none"/>
    <path d="M75.65 -42.05 L75.65 -39.4 78.65 -35.95 23.15 -35.95 23.15 -34.65 12.75 -34.65 12.75 -42.05 75.65 -42.05" fill="#707070" fill-rule="evenodd" stroke="none"/>
    <path d="M10.2 -42.05 L10.2 -34.8 -14.85 -34.8 -14.85 -28.8 -43.45 -28.8 -43.45 -42.05 10.2 -42.05" fill="#707070" fill-rule="evenodd" stroke="none"/>
    <path d="M10.2 27.2 L10.2 40.9 -103.5 40.9 -103.5 -42.05 -60.7 -42.05 -60.7 -1.25 -62.85 -1.25 -62.85 -32.8 -65.0 -32.8 -65.1 -24.55 -74.25 -24.6 -74.25 -25.8 -83.7 -25.6 -83.6 -18.15 -87.1 -18.25 -87.5 -0.15 -91.2 -0.15 -91.2 27.85 -71.95 27.95 -71.95 37.65 -62.2 37.6 -62.2 25.85 -39.7 25.85 -39.7 27.2 10.2 27.2" fill="#707070" fill-rule="evenodd" stroke="none"/>
    <path d="M-60.7 -44.45 L-44.15 -44.45 -44.15 -40.65 -60.7 -40.65 -60.7 -44.45" fill="#ffffff" fill-rule="evenodd" stroke="none"/>
    <path d="M13.65 -9.15 L13.65 -33.0 32.35 -33.0 32.35 -9.15 13.65 -9.15" fill="#707070" fill-rule="evenodd" stroke="none"/>
    <path d="M-4.7 -31.0 L-4.5 -29.4 -4.85 -27.85 -5.7 -26.45 -6.95 -25.45 -8.45 -24.85 -10.05 -24.8 -11.6 -25.3 -12.9 -26.25 -13.85 -27.6 -14.3 -29.15 -14.2 -30.75 -13.6 -32.25 -12.5 -33.45 -11.15 -34.3 -9.55 -34.6 -7.95 -34.35 -6.5 -33.65 -5.35 -32.5 -4.7 -31.0" fill="#707070" fill-rule="evenodd" stroke="none"/>
    <path d="M-65.05 32.0 L-63.95 32.55 -63.05 33.45 -62.5 34.6 -62.4 35.85 -62.65 37.1 -63.3 38.15 -64.3 39.0 -65.45 39.4 -66.75 39.45 -67.95 39.1 -68.95 38.35 -69.65 37.3 -70.0 36.1 -69.95 34.8 -69.45 33.65 -68.65 32.7 -67.55 32.05 -66.3 31.85 -65.05 32.0" fill="#707070" fill-rule="evenodd" stroke="none"/>
  </g>
</svg>
