<?xml version="1.0" encoding="UTF-8" standalone="no"?>
<svg xmlns:ffdec="https://www.free-decompiler.com/flash" xmlns:xlink="http://www.w3.org/1999/xlink" ffdec:objectType="shape" height="285.0px" width="1768.05px" xmlns="http://www.w3.org/2000/svg">
  <g transform="matrix(1.0, 0.0, 0.0, 1.0, 880.45, -16.05)">
    <path d="M887.6 164.55 L880.6 187.55 Q874.1 196.05 867.1 204.05 857.6 213.05 847.6 221.55 823.1 235.05 798.05 248.05 L670.55 295.05 607.55 278.55 567.05 285.05 567.05 281.05 489.55 295.05 361.05 301.05 -521.95 301.05 -521.95 298.55 -723.95 289.55 -880.45 267.55 -880.45 50.55 -727.95 29.05 -654.95 22.55 Q-588.45 21.05 -521.95 19.05 L-521.95 16.05 Q-80.45 17.05 361.05 17.55 L489.55 22.05 567.05 37.05 Q567.55 35.55 567.55 33.55 L605.55 38.05 670.55 24.05 Q735.05 47.05 799.55 69.55 L848.6 97.55 868.1 114.05 Q875.1 123.55 881.6 133.05 L886.1 142.05 Q887.1 149.05 887.6 156.05 L887.6 164.55" fill="#6f6f6f" fill-rule="evenodd" stroke="none"/>
    <path d="M-483.95 85.55 L-483.95 233.55 -486.45 233.55 -486.45 269.55 -550.45 269.55 -550.45 187.55 -598.95 187.55 -598.95 104.55 -550.45 104.55 -550.45 49.05 -486.45 49.05 -486.45 85.55 -483.95 85.55" fill="#424242" fill-rule="evenodd" stroke="none"/>
    <path d="M-696.95 137.55 L-690.45 141.05 -686.45 147.05 -685.45 154.05 -685.45 163.55 Q-685.95 167.05 -686.95 170.55 L-689.95 176.05 -692.95 178.55 -696.95 179.55 -701.45 180.05 -772.95 180.05 -772.95 137.55 -696.95 137.55" fill="#424242" fill-rule="evenodd" stroke="none"/>
    <path d="M-548.45 101.05 L-545.95 101.05 -545.95 99.55 -528.95 96.05 -526.45 96.05 -493.95 90.05 -493.95 228.05 -545.95 219.05 -545.95 191.05 -548.45 191.05 Q-547.95 188.55 -547.95 186.05 -547.95 185.55 -548.45 185.05 L-596.45 185.05 -596.45 107.05 -548.45 107.05 -548.45 101.05 M-566.45 142.55 L-566.45 143.05 Q-565.95 143.55 -565.45 143.55 L-565.45 154.55 -566.45 154.55 -566.45 155.05 -564.95 155.05 -557.95 153.05 -556.95 153.05 -556.95 152.55 -549.95 151.05 -549.95 153.55 -548.95 153.55 -548.95 150.55 Q-547.95 150.55 -547.45 150.05 L-547.45 149.05 -544.95 149.05 Q-544.45 149.05 -544.45 148.55 L-547.45 148.55 -547.45 147.55 -548.95 147.05 -548.95 144.05 Q-549.45 144.55 -549.95 144.55 L-549.95 146.55 Q-554.45 145.55 -558.95 144.05 L-566.45 142.55 M-523.45 121.05 L-524.95 121.05 -527.45 120.05 -527.45 120.55 -522.95 122.05 Q-522.95 122.55 -523.45 123.05 L-522.95 123.55 -527.45 124.55 -526.95 125.05 Q-525.95 125.05 -524.95 124.55 L-523.95 124.55 -523.95 124.05 -521.45 124.05 -520.45 123.05 -520.45 122.55 -521.45 121.55 -522.95 121.55 -523.45 121.05" fill="#424242" fill-rule="evenodd" stroke="none"/>
    <path d="M-548.45 101.05 L-545.95 101.05 -545.95 99.55 -528.95 96.05 -526.45 96.05 -493.95 90.05 -493.95 228.05 -545.95 219.05 -545.95 191.05 -548.45 191.05 Q-547.95 188.55 -547.95 186.05 -547.95 185.55 -548.45 185.05 L-596.45 185.05 -596.45 107.05 -548.45 107.05 -548.45 101.05" fill="#959595" fill-rule="evenodd" stroke="none"/>
    <path d="M-547.45 51.05 L-489.95 51.05 -489.95 85.05 -547.45 96.05 -547.45 51.05" fill="#6f6f6f" fill-rule="evenodd" stroke="none"/>
    <path d="M-547.45 266.05 L-547.45 221.05 -489.95 232.55 -489.95 266.05 -547.45 266.05" fill="#6f6f6f" fill-rule="evenodd" stroke="none"/>
    <path d="M-596.45 160.55 L-596.45 162.05 -601.45 162.05 -601.45 168.55 -596.45 168.55 -596.45 170.05 -602.95 170.05 -602.95 160.55 -596.45 160.55" fill="#ffffff" fill-rule="evenodd" stroke="none"/>
    <path d="M-503.45 144.55 L-503.45 148.55 -505.45 152.55 -509.45 154.55 -513.45 154.05 -516.95 151.55 Q-517.45 149.55 -518.45 147.55 L-517.45 143.05 -514.45 140.05 -509.95 139.55 -505.95 141.05 -503.45 144.55" fill="#424242" fill-rule="evenodd" stroke="none"/>
    <path d="M-525.45 121.05 L-521.45 122.05 -521.45 124.05 -525.45 124.55 -525.45 121.05" fill="#424242" fill-rule="evenodd" stroke="none"/>
    <path d="M-565.45 143.55 L-547.95 147.55 -547.95 150.05 -565.45 155.05 -565.45 143.55" fill="#424242" fill-rule="evenodd" stroke="none"/>
  </g>
</svg>
