<?xml version="1.0" encoding="UTF-8" standalone="no"?>
<svg xmlns:ffdec="https://www.free-decompiler.com/flash" xmlns:xlink="http://www.w3.org/1999/xlink" ffdec:objectType="shape" height="319.5px" width="1768.05px" xmlns="http://www.w3.org/2000/svg">
  <g transform="matrix(1.0, 0.0, 0.0, 1.0, 880.45, 0.95)">
    <path d="M887.6 164.55 L880.6 187.55 Q874.1 196.05 867.1 204.05 857.6 213.05 847.6 221.55 823.1 235.05 798.05 248.05 L670.55 295.05 607.55 278.55 567.05 285.05 567.05 281.05 489.55 295.05 361.05 301.05 -521.95 301.05 -521.95 298.55 -723.95 289.55 -880.45 267.55 -880.45 50.55 -727.95 29.05 -654.95 22.55 Q-588.45 21.05 -521.95 19.05 L-521.95 16.05 Q-80.45 17.05 361.05 17.55 L489.55 22.05 567.05 37.05 Q567.55 35.55 567.55 33.55 L605.55 38.05 670.55 24.05 Q735.05 47.05 799.55 69.55 L848.6 97.55 868.1 114.05 Q875.1 123.55 881.6 133.05 L886.1 142.05 Q887.1 149.05 887.6 156.05 L887.6 164.55" fill="#6f6f6f" fill-rule="evenodd" stroke="none"/>
    <path d="M-696.95 137.55 L-690.45 141.05 -686.45 147.05 -685.45 154.05 -685.45 163.55 Q-685.95 167.05 -686.95 170.55 L-689.95 176.05 -692.95 178.55 -696.95 179.55 -701.45 180.05 -772.95 180.05 -772.95 137.55 -696.95 137.55" fill="#424242" fill-rule="evenodd" stroke="none"/>
    <path d="M-486.45 85.55 L-483.95 85.55 -483.95 233.55 -486.45 233.55 -486.45 269.55 -550.45 269.55 -550.45 251.05 -658.95 251.05 -658.95 208.55 -677.45 208.55 -677.45 108.55 -667.45 108.55 -667.45 73.55 -658.95 73.55 -658.95 66.05 -550.45 66.05 -550.45 49.05 -486.45 49.05 -486.45 85.55" fill="#424242" fill-rule="evenodd" stroke="none"/>
    <path d="M-551.45 67.55 L-551.45 73.55 -572.45 73.55 -572.45 81.55 -649.95 81.55 -649.95 108.05 -665.45 108.05 -665.45 98.55 -667.45 98.55 -667.45 84.55 -665.45 84.55 -665.45 75.05 -657.45 75.05 -657.45 67.55 -551.45 67.55" fill="#959595" fill-rule="evenodd" stroke="none"/>
    <path d="M-581.45 233.55 L-549.95 233.55 -549.95 249.05 -656.45 249.05 -656.45 237.55 -658.95 237.55 -658.95 223.55 -656.45 223.55 -656.45 210.05 -581.45 210.05 -581.45 233.55" fill="#959595" fill-rule="evenodd" stroke="none"/>
    <path d="M-555.45 7.05 L-552.45 11.05 -552.45 12.55 Q-553.95 15.05 -555.95 17.05 -558.95 19.55 -562.45 22.05 L-565.95 23.05 -565.95 31.05 -575.45 31.05 -575.45 25.05 Q-597.45 25.05 -619.45 24.55 -620.45 24.55 -621.45 24.05 L-621.45 31.05 -630.45 31.05 -630.45 22.05 -634.95 21.05 -642.95 21.05 -643.95 10.05 -642.95 2.05 -618.95 -0.95 -570.45 -0.95 -561.95 1.55 -555.45 7.05" fill="#424242" fill-rule="evenodd" stroke="none"/>
    <path d="M-563.95 293.05 Q-560.45 295.05 -556.95 296.55 L-553.95 299.55 -550.45 304.05 -550.45 305.05 -556.45 312.05 Q-557.95 313.55 -559.95 314.55 -563.95 316.05 -568.45 317.05 L-580.95 318.55 -616.95 317.05 -640.95 314.05 -641.95 306.05 -640.95 295.05 -632.95 295.05 -628.45 294.05 -628.45 285.05 -619.45 285.05 -619.45 292.55 -617.45 292.05 -573.45 291.05 -573.45 285.55 -563.95 285.55 -563.95 293.05" fill="#424242" fill-rule="evenodd" stroke="none"/>
    <path d="M-716.45 223.55 L-658.95 223.55 -658.95 237.55 -716.45 237.55 -716.45 223.55 M-724.45 84.55 L-666.95 84.55 -666.95 98.55 -724.45 98.55 -724.45 84.55" fill="#424242" fill-rule="evenodd" stroke="none"/>
    <path d="M-658.95 236.05 L-716.45 236.05 -716.45 225.05 -658.95 225.05 -658.95 236.05" fill="#ffffff" fill-rule="evenodd" stroke="none"/>
    <path d="M-667.45 97.05 L-724.45 97.05 -724.45 86.05 -667.45 86.05 -667.45 97.05" fill="#ffffff" fill-rule="evenodd" stroke="none"/>
    <path d="M-646.45 91.55 L-646.45 93.05 -651.45 93.05 -651.45 99.55 -646.45 99.55 -646.45 101.05 -652.95 101.05 -652.95 91.55 -646.45 91.55" fill="#ffffff" fill-rule="evenodd" stroke="none"/>
    <path d="M-580.45 224.55 L-638.45 224.55 -638.45 210.05 -580.45 210.05 -580.45 224.55" fill="#424242" fill-rule="evenodd" stroke="none"/>
    <path d="M-580.45 223.55 L-638.45 223.55 -638.45 212.05 -580.45 212.05 -580.45 223.55" fill="#ffffff" fill-rule="evenodd" stroke="none"/>
  </g>
</svg>
