<?xml version="1.0" encoding="UTF-8" standalone="no"?>
<svg xmlns:ffdec="https://www.free-decompiler.com/flash" xmlns:xlink="http://www.w3.org/1999/xlink" ffdec:objectType="shape" height="195.5px" width="161.0px" xmlns="http://www.w3.org/2000/svg">
  <g transform="matrix(1.0, 0.0, 0.0, 1.0, 100.75, 97.75)">
    <path d="M-65.25 27.55 L-65.25 31.4 -60.0 31.4 -60.0 -97.75 60.25 -97.75 60.25 97.75 -100.75 97.75 -100.75 31.4 -96.0 31.4 -96.0 27.55 -65.25 27.55" fill="#969696" fill-rule="evenodd" stroke="none"/>
    <path d="M-26.5 -35.75 L-26.5 -57.25 24.0 -57.25 24.0 -35.75 -26.5 -35.75" fill="#707070" fill-rule="evenodd" stroke="none"/>
    <path d="M44.75 91.75 L44.75 67.75 60.25 67.75 60.25 91.75 44.75 91.75" fill="#707070" fill-rule="evenodd" stroke="none"/>
    <path d="M29.25 85.75 L43.75 85.75 43.75 97.75 29.25 97.75 29.25 85.75" fill="#707070" fill-rule="evenodd" stroke="none"/>
    <path d="M60.25 -6.85 L60.25 61.0 41.5 61.0 41.5 2.75 51.0 2.75 51.0 -6.85 60.25 -6.85" fill="#707070" fill-rule="evenodd" stroke="none"/>
    <path d="M47.25 -23.75 L47.25 -37.5 50.25 -37.5 50.25 -87.0 60.25 -87.0 60.25 -23.75 47.25 -23.75" fill="#707070" fill-rule="evenodd" stroke="none"/>
    <path d="M49.5 -97.75 L49.5 -88.5 -48.75 -88.5 -48.75 -97.75 49.5 -97.75" fill="#707070" fill-rule="evenodd" stroke="none"/>
    <path d="M-60.0 -87.0 L-49.0 -87.0 -49.0 3.25 -42.25 3.25 -42.25 30.0 -60.0 30.0 -60.0 -87.0" fill="#707070" fill-rule="evenodd" stroke="none"/>
    <path d="M-18.5 85.25 L14.25 85.25 14.25 97.75 -100.75 97.75 -100.75 84.25 -73.75 84.25 -73.75 89.2 -18.5 89.2 -18.5 85.25" fill="#707070" fill-rule="evenodd" stroke="none"/>
    <path d="M-1.1 47.0 L-1.1 16.9 28.15 16.9 28.15 47.0 -1.1 47.0" fill="#707070" fill-rule="evenodd" stroke="none"/>
    <path d="M-65.25 31.4 L-96.0 31.4 -96.0 27.55 -65.25 27.55 -65.25 31.4" fill="#f5f5f5" fill-rule="evenodd" stroke="none"/>
  </g>
</svg>
