<?xml version="1.0" encoding="UTF-8" standalone="no"?>
<svg xmlns:ffdec="https://www.free-decompiler.com/flash" xmlns:xlink="http://www.w3.org/1999/xlink" ffdec:objectType="shape" height="1230.0px" width="368.0px" xmlns="http://www.w3.org/2000/svg">
  <g transform="matrix(1.0, 0.0, 0.0, 1.0, 179.0, 605.0)">
    <path d="M-179.0 -605.0 L189.0 -605.0 189.0 625.0 -179.0 625.0 -179.0 -605.0" fill="#434343" fill-rule="evenodd" stroke="none"/>
    <path d="M-98.5 -218.0 L-65.0 -218.0 -65.0 -267.0 -9.0 -267.0 -9.0 -337.5 44.25 -337.5 44.25 -344.0 90.0 -344.0 90.0 -337.5 173.0 -337.5 173.0 355.15 89.0 355.15 89.0 357.0 36.0 357.0 36.0 358.3 64.65 358.3 64.65 432.3 17.0 432.3 17.0 358.3 20.0 358.3 20.0 357.0 -24.5 357.0 -98.5 205.0 -98.5 -218.0" fill="#969696" fill-rule="evenodd" stroke="none"/>
    <path d="M-99.5 -416.0 L-99.5 -428.5 -91.0 -428.5 -91.0 -593.7 -23.0 -593.7 -23.0 -428.5 -21.75 -428.5 -21.75 -427.7 -20.35 -427.7 -20.35 -266.35 -21.75 -266.35 -21.75 -181.0 -98.5 -181.0 -98.5 -113.85 -151.5 -113.85 -151.5 -181.85 -99.5 -181.85 -99.5 -191.85 -151.5 -191.85 -151.5 -259.85 -99.5 -259.85 -99.5 -269.5 -151.5 -269.5 -151.5 -337.5 -99.5 -337.5 -99.5 -348.0 -151.5 -348.0 -151.5 -416.0 -99.5 -416.0" fill="#707070" fill-rule="evenodd" stroke="none"/>
    <path d="M-151.5 -35.35 L-151.5 -103.35 -98.5 -103.35 -98.5 -35.35 -151.5 -35.35" fill="#707070" fill-rule="evenodd" stroke="none"/>
    <path d="M-151.5 -25.35 L-98.5 -25.35 -98.5 42.65 -151.5 42.65 -151.5 -25.35" fill="#707070" fill-rule="evenodd" stroke="none"/>
    <path d="M-99.0 129.65 L-99.0 120.15 -151.5 120.15 -151.5 52.15 -98.5 52.15 -98.5 118.65 -20.7 118.65 -20.7 290.15 -13.4 290.5 -14.0 302.5 -20.7 302.15 -20.7 439.0 -24.0 439.0 -24.0 606.0 -91.5 606.0 -91.5 439.0 -99.0 439.0 -99.0 432.65 -151.5 432.65 -151.5 364.65 -99.0 364.65 -99.0 355.15 -151.5 355.15 -151.5 287.15 -99.0 287.15 -99.0 277.15 -151.5 277.15 -151.5 209.15 -99.0 209.15 -99.0 197.65 -151.5 197.65 -151.5 129.65 -99.0 129.65" fill="#707070" fill-rule="evenodd" stroke="none"/>
    <path d="M-8.7 -389.7 L35.0 -389.7 35.0 -271.35 -8.7 -271.35 -8.7 -389.7" fill="#707070" fill-rule="evenodd" stroke="none"/>
    <path d="M109.5 -216.5 L104.05 -216.5 104.05 -212.95 104.5 -211.75 105.25 -210.5 106.1 -210.15 107.55 -209.75 118.5 -210.25 145.75 -210.25 145.75 -222.95 109.5 -222.95 109.5 -216.5 M49.0 -216.5 L49.0 -236.0 109.5 -236.0 109.5 -228.6 145.75 -228.6 145.75 -259.85 173.0 -259.85 173.0 -191.85 145.75 -191.85 145.75 -205.0 106.75 -205.0 104.75 -205.35 101.55 -207.95 100.55 -209.75 100.1 -210.9 99.75 -212.45 99.75 -216.5 49.0 -216.5" fill="#707070" fill-rule="evenodd" stroke="none"/>
    <path d="M109.5 -294.2 L104.05 -294.2 104.05 -290.65 104.5 -289.45 105.25 -288.2 106.1 -287.8 107.55 -287.45 118.5 -287.95 145.75 -287.95 145.75 -300.65 109.5 -300.65 109.5 -294.2 M102.75 -284.5 L101.55 -285.65 100.55 -287.45 100.1 -288.55 99.75 -290.15 99.75 -294.2 49.0 -294.2 49.0 -313.7 109.5 -313.7 109.5 -306.25 145.75 -306.25 145.75 -337.5 173.0 -337.5 173.0 -269.5 145.75 -269.5 145.75 -282.7 106.75 -282.7 104.75 -283.0 102.75 -284.5" fill="#707070" fill-rule="evenodd" stroke="none"/>
    <path d="M145.75 -132.25 L145.75 -144.95 109.5 -144.95 109.5 -138.5 104.05 -138.5 104.05 -134.95 104.5 -133.75 105.25 -132.5 106.1 -132.15 107.55 -131.75 118.5 -132.25 145.75 -132.25 M145.75 -181.85 L173.0 -181.85 173.0 -113.85 145.75 -113.85 145.75 -127.0 106.75 -127.0 104.75 -127.35 101.55 -129.95 100.55 -131.75 100.1 -132.9 99.75 -134.45 99.75 -138.5 49.0 -138.5 49.0 -158.0 109.5 -158.0 109.5 -150.6 145.75 -150.6 145.75 -181.85" fill="#707070" fill-rule="evenodd" stroke="none"/>
    <path d="M145.75 -53.75 L145.75 -66.45 109.5 -66.45 109.5 -60.0 104.05 -60.0 104.05 -56.45 104.5 -55.25 105.25 -54.0 106.1 -53.65 107.55 -53.25 118.5 -53.75 145.75 -53.75 M145.75 -72.1 L145.75 -103.35 173.0 -103.35 173.0 -35.35 145.75 -35.35 145.75 -48.5 106.75 -48.5 104.75 -48.85 101.55 -51.45 100.55 -53.25 100.1 -54.4 99.75 -55.95 99.75 -60.0 49.0 -60.0 49.0 -79.5 109.5 -79.5 109.5 -72.1 145.75 -72.1" fill="#707070" fill-rule="evenodd" stroke="none"/>
    <path d="M145.75 -25.35 L173.0 -25.35 173.0 42.65 145.75 42.65 145.75 -25.35" fill="#707070" fill-rule="evenodd" stroke="none"/>
    <path d="M109.5 89.05 L109.5 95.5 104.05 95.5 104.05 99.05 104.5 100.25 105.25 101.5 106.1 101.85 107.55 102.25 118.5 101.75 145.75 101.75 145.75 89.05 109.5 89.05 M109.5 76.0 L109.5 83.4 145.75 83.4 145.75 52.15 173.0 52.15 173.0 120.15 145.75 120.15 145.75 107.0 106.75 107.0 104.75 106.65 101.55 104.05 100.55 102.25 100.1 101.1 99.75 99.55 99.75 95.5 49.0 95.5 49.0 76.0 109.5 76.0" fill="#707070" fill-rule="evenodd" stroke="none"/>
    <path d="M109.5 166.55 L109.5 173.0 104.05 173.0 104.05 176.55 104.5 177.75 105.25 179.0 106.1 179.35 107.55 179.75 118.5 179.25 145.75 179.25 145.75 166.55 109.5 166.55 M49.0 173.0 L49.0 153.5 109.5 153.5 109.5 160.9 145.75 160.9 145.75 129.65 173.0 129.65 173.0 197.65 145.75 197.65 145.75 184.5 106.75 184.5 104.75 184.15 101.55 181.55 100.55 179.75 100.1 178.6 99.75 177.05 99.75 173.0 49.0 173.0" fill="#707070" fill-rule="evenodd" stroke="none"/>
    <path d="M145.75 258.75 L145.75 246.05 109.5 246.05 109.5 252.5 104.05 252.5 104.05 256.05 104.5 257.25 105.25 258.5 106.1 258.85 107.55 259.25 118.5 258.75 145.75 258.75 M145.75 209.15 L173.0 209.15 173.0 277.15 145.75 277.15 145.75 264.0 106.75 264.0 104.75 263.65 101.55 261.05 100.55 259.25 100.1 258.1 99.75 256.55 99.75 252.5 49.0 252.5 49.0 233.0 109.5 233.0 109.5 240.4 145.75 240.4 145.75 209.15" fill="#707070" fill-rule="evenodd" stroke="none"/>
    <path d="M145.75 336.75 L145.75 324.05 109.5 324.05 109.5 330.5 104.05 330.5 104.05 334.05 104.5 335.25 105.25 336.5 106.1 336.85 107.55 337.25 118.5 336.75 145.75 336.75 M145.75 318.4 L145.75 287.15 173.0 287.15 173.0 355.15 145.75 355.15 145.75 342.0 106.75 342.0 104.75 341.65 101.55 339.05 100.55 337.25 100.1 336.1 99.75 334.55 99.75 330.5 49.0 330.5 49.0 311.0 109.5 311.0 109.5 318.4 145.75 318.4" fill="#707070" fill-rule="evenodd" stroke="none"/>
    <path d="M87.1 -23.0 L92.4 -23.0 92.4 -21.0 100.1 -21.0 100.1 39.0 95.75 39.0 95.75 39.65 83.75 39.65 83.75 39.0 79.4 39.0 79.4 -21.0 87.1 -21.0 87.1 -23.0" fill="#707070" fill-rule="evenodd" stroke="none"/>
    <path d="M39.0 15.65 L39.0 5.3 46.0 5.3 46.0 15.65 39.0 15.65" fill="#707070" fill-rule="evenodd" stroke="none"/>
    <path d="M-85.7 -24.35 L-93.7 -24.35 -93.7 -36.0 -85.7 -36.0 -85.7 -24.35" fill="#707070" fill-rule="evenodd" stroke="none"/>
    <path d="M79.0 -273.7 L86.3 -273.7 86.3 -261.7 79.0 -261.7 79.0 -273.7" fill="#707070" fill-rule="evenodd" stroke="none"/>
    <path d="M28.0 -11.0 L38.0 -11.0 38.0 27.5 28.0 27.5 28.0 -11.0" fill="#434343" fill-rule="evenodd" stroke="none"/>
    <path d="M-20.7 198.0 L-11.0 198.0 -11.0 287.65 -20.7 287.65 -20.7 198.0" fill="#434343" fill-rule="evenodd" stroke="none"/>
    <path d="M36.0 359.25 L20.0 359.25 20.0 355.75 36.0 355.75 36.0 359.25" fill="#ffffff" fill-rule="evenodd" stroke="none"/>
    <path d="M19.0 383.5 L38.75 383.5 38.75 408.5 43.75 408.5 43.75 381.5 63.0 381.5 63.0 430.0 19.0 430.0 19.0 383.5" fill="#ffffff" fill-rule="evenodd" stroke="none"/>
  </g>
</svg>
