<?xml version="1.0" encoding="UTF-8" standalone="no"?>
<svg xmlns:ffdec="https://www.free-decompiler.com/flash" xmlns:xlink="http://www.w3.org/1999/xlink" ffdec:objectType="shape" height="1994.4px" width="1990.65px" xmlns="http://www.w3.org/2000/svg">
  <g transform="matrix(1.0, 0.0, 0.0, 1.0, 995.0, 997.35)">
    <path d="M-446.3 -990.55 L-441.05 -987.05 -434.35 -991.35 -389.75 -988.5 -384.7 -985.4 -383.15 -985.35 -377.95 -991.55 -360.25 -991.65 -355.25 -997.35 -336.5 -983.5 -312.8 -974.4 -308.8 -974.45 -290.55 -953.85 -291.95 -948.35 -290.6 -944.35 -287.6 -941.95 -273.1 -916.6 -274.05 -911.2 -254.45 -881.6 -248.9 -880.05 -244.45 -872.8 -198.35 -835.4 -126.5 -824.6 -107.15 -834.25 -101.6 -834.25 -95.75 -835.95 -90.25 -844.1 -83.45 -845.1 -56.0 -869.65 -54.05 -874.35 -22.25 -909.1 -9.5 -913.9 -6.0 -911.9 -2.4 -912.0 15.05 -918.4 16.5 -920.45 51.95 -934.95 54.1 -934.8 54.25 -935.2 87.45 -968.3 113.2 -978.0 125.05 -987.05 147.45 -991.7 159.55 -990.8 170.5 -989.5 172.45 -990.7 181.15 -988.65 184.05 -985.15 193.2 -983.8 218.7 -971.8 247.95 -943.55 254.65 -942.25 254.0 -933.55 306.25 -906.2 320.3 -846.1 350.85 -804.9 387.0 -784.3 391.1 -780.3 399.0 -778.7 404.5 -780.55 409.55 -775.65 416.7 -778.15 455.75 -774.85 463.2 -766.7 484.55 -757.55 495.55 -742.95 499.65 -727.25 496.4 -719.55 497.0 -713.0 499.2 -710.7 519.65 -661.15 522.3 -659.7 539.8 -638.85 562.2 -628.8 570.1 -630.2 578.1 -622.25 584.8 -619.9 586.45 -620.9 590.6 -620.3 590.8 -620.5 643.0 -609.75 655.25 -615.65 668.6 -614.15 669.9 -612.9 681.05 -612.4 696.25 -591.5 684.5 -586.7 634.0 -519.95 626.4 -501.4 603.05 -471.9 601.75 -466.95 584.45 -453.3 579.45 -453.85 552.5 -427.25 539.65 -423.85 515.25 -391.55 511.85 -372.75 514.8 -361.9 534.05 -339.25 541.9 -337.85 552.3 -327.7 595.05 -331.15 597.75 -329.55 607.35 -332.9 629.6 -354.6 698.15 -399.05 702.05 -412.95 773.25 -494.65 803.2 -509.3 808.9 -514.1 825.2 -513.3 840.35 -504.5 858.95 -468.4 855.4 -435.95 841.1 -421.95 839.1 -414.5 832.9 -409.9 826.05 -394.9 816.7 -388.5 801.15 -350.95 782.85 -332.1 768.25 -306.35 757.65 -261.25 759.45 -247.9 756.8 -241.6 757.5 -221.75 773.7 -176.35 787.55 -158.3 791.25 -148.5 803.5 -134.75 861.05 -110.85 863.6 -108.55 884.7 -107.1 893.65 -108.5 915.95 -101.2 915.5 -92.95 937.8 -63.55 957.65 -55.8 968.95 -34.55 969.05 -34.5 975.05 -26.35 975.55 -22.0 991.3 2.75 989.7 11.35 991.9 20.7 993.85 23.0 993.15 172.1 995.65 176.0 992.7 221.35 993.85 223.35 994.15 233.95 992.8 237.2 995.6 243.8 991.6 252.45 995.3 258.25 992.4 339.0 988.45 345.55 992.45 360.45 990.2 599.85 973.0 660.6 973.5 664.35 969.05 674.2 955.55 687.35 936.8 697.6 925.95 711.9 906.4 754.0 902.6 776.7 906.95 782.95 902.85 788.35 901.1 853.85 891.6 871.5 888.75 873.6 888.45 879.2 879.05 883.75 869.9 896.0 850.35 905.9 833.9 903.85 821.55 905.7 819.6 908.05 813.65 905.3 803.35 906.65 790.6 902.9 777.4 904.1 771.3 907.45 735.6 901.65 732.65 903.85 720.45 904.6 716.5 902.75 659.2 906.45 654.05 902.6 644.0 907.0 631.25 905.3 617.8 897.05 613.9 884.75 613.0 866.05 611.15 863.05 609.25 819.5 602.6 798.05 582.0 786.6 577.7 782.0 514.45 738.1 513.15 735.0 455.0 692.15 446.2 676.45 437.8 674.85 431.5 677.55 423.45 671.3 416.3 669.2 413.55 671.45 390.2 665.7 354.45 678.6 353.1 684.8 347.65 684.2 348.8 686.05 345.05 701.7 346.7 704.4 366.35 714.45 373.9 722.55 379.5 746.75 367.3 771.95 364.25 792.55 354.9 808.95 350.05 811.95 347.6 815.55 346.9 819.55 343.1 822.25 338.75 837.7 341.4 841.9 340.75 853.45 346.6 875.2 336.25 914.2 323.55 925.85 308.95 925.65 301.0 932.25 300.4 936.1 295.5 944.15 290.2 945.85 254.4 979.25 220.9 989.6 214.55 987.9 86.05 990.5 80.55 987.35 66.85 988.75 64.3 989.55 53.15 997.05 43.5 988.65 -105.85 991.8 -119.0 988.0 -123.2 985.3 -127.35 986.6 -161.8 972.75 -173.25 929.05 -171.7 920.1 -175.15 908.05 -172.35 904.1 -170.8 882.0 -183.45 808.25 -188.7 802.45 -190.85 783.4 -188.65 779.7 -188.95 771.55 -191.15 768.25 -183.95 741.8 -177.85 736.75 -173.5 724.8 -164.0 718.0 -148.85 685.8 -148.1 676.05 -145.75 668.65 -153.55 640.35 -170.15 622.1 -185.55 615.35 -188.3 612.45 -192.25 612.65 -211.8 609.25 -266.95 586.7 -286.4 569.2 -292.8 552.0 -286.75 509.5 -281.3 499.45 -282.2 493.95 -278.45 488.25 -277.65 484.7 -266.65 477.3 -259.05 476.9 -233.1 455.45 -228.65 454.05 -221.0 444.1 -217.9 442.8 -215.8 434.0 -200.45 409.25 -199.15 402.7 -157.35 359.2 -150.55 359.4 -150.35 357.5 -136.9 349.8 -134.25 350.75 -36.9 272.35 -32.85 271.65 -22.6 260.25 -15.6 258.2 -10.25 248.55 -2.45 247.85 14.8 209.65 2.6 156.4 3.2 154.25 -2.95 144.3 -35.95 118.55 -73.2 111.65 -83.25 118.75 -116.5 125.25 -118.4 124.8 -172.65 175.25 -184.55 179.95 -193.75 179.35 -215.6 192.2 -215.65 192.5 -264.25 234.2 -274.85 234.75 -349.4 267.45 -355.5 274.45 -388.9 298.65 -439.85 302.85 -444.4 297.85 -474.4 284.6 -484.25 270.85 -483.95 268.25 -488.2 257.75 -486.9 236.65 -472.95 207.15 -473.2 205.35 -443.2 149.85 -441.15 149.9 -434.5 139.8 -430.55 137.9 -415.45 104.15 -415.45 104.0 -346.65 -0.85 -338.75 -4.55 -323.95 -49.85 -321.3 -51.3 -315.7 -106.95 -280.8 -182.2 -274.2 -292.25 -302.7 -382.85 -315.2 -403.4 -327.85 -409.4 -329.3 -411.3 -376.4 -402.35 -383.55 -395.7 -409.4 -392.35 -410.2 -388.35 -425.6 -381.0 -430.75 -382.35 -445.95 -375.35 -449.8 -368.35 -466.45 -354.65 -506.75 -255.1 -504.35 -244.75 -512.25 -208.6 -532.5 -192.4 -533.8 -186.35 -548.4 -179.2 -552.15 -180.75 -554.3 -176.8 -573.1 -176.35 -586.45 -192.75 -591.55 -228.3 -601.85 -242.85 -604.2 -252.05 -639.75 -277.5 -653.2 -279.95 -707.95 -257.85 -714.5 -243.6 -756.45 -216.3 -758.1 -211.95 -768.15 -205.85 -787.7 -203.25 -789.7 -204.1 -803.6 -200.4 -807.65 -194.9 -840.4 -188.0 -857.35 -173.7 -860.8 -174.25 -881.5 -160.6 -887.6 -151.65 -916.15 -147.5 -937.75 -138.85 -944.0 -132.15 -973.55 -149.95 -979.55 -158.65 -980.2 -163.65 -990.6 -181.55 -992.9 -198.4 -992.0 -200.25 -992.5 -259.2 -991.1 -262.05 -990.35 -433.9 -990.3 -433.95 -993.6 -459.35 -990.7 -472.2 -992.0 -476.55 -990.75 -484.75 -995.0 -496.3 -984.1 -587.4 -907.45 -685.05 -904.0 -695.1 -901.8 -696.25 -898.0 -702.45 -880.7 -711.0 -871.65 -724.85 -823.9 -767.9 -812.8 -768.05 -802.45 -771.2 -757.75 -757.15 -756.4 -760.5 -718.85 -766.3 -701.5 -773.85 -697.1 -773.95 -695.4 -777.4 -687.5 -782.0 -681.65 -782.4 -668.75 -795.05 -640.85 -841.6 -633.45 -888.2 -619.15 -910.3 -606.4 -909.6 -589.65 -918.65 -578.7 -918.65 -576.25 -924.75 -536.55 -964.15 -531.6 -965.35 -523.7 -973.75 -510.55 -975.15 -496.9 -981.2 -492.9 -986.35 -451.05 -991.8 -446.3 -990.55" fill="#3e5056" fill-opacity="0.49803922" fill-rule="evenodd" stroke="none"/>
    <path d="M-551.95 -910.65 L-527.1 -944.7 -506.8 -959.25 -482.3 -965.5 -474.65 -970.75 -454.8 -971.85 -443.4 -967.95 -433.05 -972.35 -395.15 -970.3 -384.75 -965.75 -360.4 -974.0 -319.05 -955.45 -272.3 -867.55 -263.25 -862.7 -239.9 -840.05 -239.6 -836.85 -234.2 -830.0 -215.15 -823.75 -209.55 -816.3 -163.6 -801.8 -155.35 -804.45 -146.05 -802.6 -143.45 -805.55 -131.1 -801.65 -93.95 -817.7 -87.85 -816.35 -55.95 -843.95 -55.4 -847.45 -39.6 -860.75 -20.7 -886.5 -15.25 -890.15 -8.4 -891.5 -4.5 -890.3 34.0 -914.4 46.05 -911.1 62.15 -918.55 104.95 -956.9 109.3 -956.8 123.9 -966.0 144.65 -973.2 156.35 -972.2 163.9 -968.6 188.95 -965.8 200.85 -955.05 204.7 -956.0 209.6 -951.15 217.85 -948.75 251.25 -910.6 269.25 -898.1 290.15 -892.55 292.25 -886.3 295.05 -849.95 308.5 -829.35 313.1 -814.3 316.1 -812.25 323.4 -801.6 352.5 -777.15 390.85 -761.95 436.9 -754.7 439.75 -751.8 446.65 -752.45 466.05 -741.7 474.4 -730.9 475.3 -724.5 472.25 -719.2 480.55 -684.15 497.45 -653.3 526.2 -620.15 575.2 -598.2 583.95 -599.9 601.25 -595.4 610.0 -588.25 620.4 -591.5 642.8 -586.2 652.65 -589.9 655.15 -588.95 657.85 -584.5 630.35 -540.8 630.75 -537.2 619.2 -529.95 601.45 -498.05 585.85 -481.15 584.95 -474.4 578.8 -471.5 568.35 -469.2 561.95 -461.3 559.0 -459.9 550.25 -447.8 537.05 -443.4 510.75 -414.0 498.0 -381.65 501.85 -345.55 512.5 -331.2 557.1 -305.9 557.2 -306.0 573.05 -302.75 576.5 -305.45 590.95 -310.25 601.5 -310.65 617.5 -317.45 635.4 -335.3 678.4 -357.25 713.6 -387.35 721.55 -400.0 734.65 -406.8 738.0 -415.4 737.85 -416.25 754.55 -438.1 760.65 -455.95 772.2 -465.15 775.5 -465.4 784.7 -479.7 816.25 -494.65 829.35 -487.2 838.85 -463.7 833.2 -447.15 808.25 -409.3 799.95 -404.45 752.95 -324.0 738.2 -277.3 735.7 -235.0 738.75 -226.0 735.55 -214.15 752.15 -157.0 757.15 -151.2 764.4 -136.4 782.9 -129.5 799.25 -115.65 851.35 -90.1 881.3 -86.95 894.15 -89.4 906.3 -70.5 911.2 -70.0 911.4 -64.0 937.55 -44.4 956.35 -21.3 959.75 -12.35 971.6 -2.0 974.75 7.55 971.9 13.55 975.2 256.1 977.45 262.1 975.45 266.55 967.3 418.15 969.6 421.85 968.3 445.65 966.8 449.1 967.3 459.55 969.15 463.45 967.5 465.45 968.7 538.2 967.3 544.05 970.45 555.25 967.05 592.5 971.55 607.35 967.2 612.75 960.05 648.3 952.85 657.35 953.45 662.75 921.5 682.55 918.9 690.3 901.25 713.35 901.4 720.65 895.0 726.45 885.6 768.8 882.75 774.3 882.3 847.75 847.2 884.65 806.05 885.75 788.65 880.7 770.55 887.45 718.45 882.05 Q715.9 883.15 713.35 884.2 L707.15 882.1 669.35 884.35 667.2 885.3 666.15 883.75 656.05 881.3 641.7 885.85 636.5 883.7 635.5 881.75 632.15 868.15 633.65 838.1 628.25 814.7 618.0 798.4 617.1 787.0 572.25 759.5 554.4 741.65 554.1 739.45 530.05 727.8 509.0 708.15 502.85 707.05 471.75 684.65 470.4 680.8 468.45 680.1 457.7 660.9 460.65 656.3 459.2 651.95 449.85 650.85 445.6 652.8 440.0 652.3 438.3 653.9 396.45 645.35 375.7 650.65 374.25 650.35 371.05 651.3 362.7 659.2 360.25 658.25 353.95 660.25 354.65 662.65 343.8 668.05 342.9 668.85 338.4 668.9 335.6 670.05 331.0 669.0 329.85 667.75 327.1 669.6 326.6 671.6 328.95 672.05 330.4 672.95 331.05 674.9 330.5 677.3 329.1 677.45 327.8 676.35 327.3 677.8 329.85 688.45 327.2 699.95 333.2 714.3 334.2 714.7 335.8 716.75 356.7 727.4 362.0 737.0 362.4 745.05 355.3 757.1 348.05 763.0 345.35 778.5 347.45 782.2 347.05 786.3 344.35 788.35 318.35 834.5 323.1 889.45 Q321.35 890.5 319.55 891.5 L318.4 896.1 320.45 900.55 319.8 901.7 317.65 901.05 315.55 898.75 308.45 898.6 304.05 901.1 285.6 920.0 284.1 927.15 248.1 960.3 247.7 962.05 241.45 961.95 203.95 972.8 198.5 972.9 192.7 971.0 191.5 968.45 164.85 972.0 158.5 968.45 149.35 969.85 146.25 968.6 140.45 973.5 138.75 973.5 136.9 971.8 -113.8 962.7 -136.6 950.7 -153.45 914.8 -149.1 908.55 -149.95 906.55 -148.25 902.8 -149.45 895.45 -152.15 892.8 -151.55 866.45 -153.4 863.25 -151.55 858.85 -155.05 852.1 -169.05 761.05 -165.4 752.2 -159.65 746.0 -150.0 740.9 -147.8 735.3 -136.5 720.8 -121.7 675.05 -132.95 626.3 -155.4 602.2 -215.15 581.45 -225.6 584.5 -243.55 578.05 -244.55 575.65 -253.45 568.65 -258.3 567.7 -270.3 551.0 -273.2 536.75 -267.45 513.05 -261.9 505.5 -260.1 497.05 -244.75 492.65 -214.6 470.55 -197.0 447.0 -189.6 429.1 -183.05 424.65 -178.85 411.6 -159.3 396.7 -148.55 381.5 -120.1 367.1 -60.35 311.8 -46.05 309.2 -11.45 286.6 4.4 266.4 13.1 262.2 17.75 249.1 33.2 229.2 35.85 215.5 30.45 163.55 0.0 113.45 -62.4 87.85 -95.75 96.2 -99.8 93.25 -131.95 110.8 -140.8 120.0 -149.0 119.7 -153.15 128.45 -180.85 151.5 -196.25 156.35 -202.2 162.45 -225.75 171.35 -272.55 212.85 -284.4 211.55 -297.2 219.3 -299.75 224.45 -306.7 224.05 -340.3 242.35 -353.05 243.1 -398.95 280.25 -411.2 279.7 -420.0 282.7 -428.65 282.2 -454.5 271.7 -458.5 265.15 -464.5 262.65 -468.55 256.35 -466.9 238.8 -463.1 235.3 -447.95 200.8 -443.25 196.4 -443.65 192.35 -372.9 71.95 -361.0 65.85 -333.15 14.6 -319.25 4.4 -306.1 -35.5 -306.1 -35.55 -306.05 -35.55 -299.4 -49.45 -300.8 -52.0 -298.35 -90.4 -257.6 -200.9 -256.25 -212.2 -251.25 -223.25 -253.2 -232.95 -252.05 -277.75 -294.25 -417.5 -301.6 -426.3 -311.8 -430.15 -320.0 -437.0 -345.35 -436.0 -377.3 -422.0 -380.4 -424.5 -461.9 -389.65 -521.65 -296.8 -530.25 -254.2 -535.8 -243.45 -539.15 -241.45 -542.5 -229.2 -554.0 -217.9 -557.2 -217.35 -566.4 -222.9 -572.4 -254.2 -606.6 -287.25 -648.65 -300.45 -683.0 -295.15 -690.05 -296.15 -694.9 -294.7 -697.95 -289.75 -709.45 -284.45 -734.6 -263.05 -736.25 -258.7 -748.7 -250.05 -754.8 -238.15 -775.3 -226.3 -836.4 -211.35 -860.65 -195.6 -863.8 -196.4 -910.0 -168.7 -922.2 -168.3 -928.45 -166.2 -931.0 -162.75 -936.1 -161.2 -940.0 -157.3 -947.4 -158.2 -952.65 -163.95 -958.5 -164.0 -962.55 -168.25 -963.95 -173.25 -967.05 -175.8 -977.25 -264.8 -970.7 -313.55 -972.5 -320.4 -973.4 -404.35 -971.4 -406.4 -974.1 -409.9 -971.4 -579.45 -965.35 -580.7 -961.35 -586.75 -960.6 -592.05 -952.2 -600.15 -940.55 -606.6 -911.85 -635.55 -911.15 -641.45 -820.7 -721.05 -806.6 -726.15 -804.5 -724.6 -798.5 -726.95 -750.1 -736.05 -740.7 -736.5 -674.35 -762.8 -655.3 -778.75 -641.0 -800.1 -632.65 -803.95 -626.95 -814.5 -627.85 -818.6 -612.8 -858.7 -615.75 -866.0 -614.55 -879.65 -608.55 -887.5 -568.2 -901.0 -559.05 -913.4 -551.95 -910.65" fill="#4e626b" fill-opacity="0.6" fill-rule="evenodd" stroke="none"/>
    <path d="M-532.8 -911.6 L-497.1 -948.35 -482.8 -951.25 -468.0 -957.65 -451.1 -955.95 -447.2 -959.15 -429.65 -960.6 -425.4 -957.7 -394.15 -958.35 -386.65 -954.0 -379.25 -954.5 -370.05 -960.0 -356.9 -960.25 -331.1 -940.95 -294.7 -868.55 -253.15 -823.05 -215.7 -798.15 -167.8 -785.6 -145.55 -786.05 -138.55 -782.15 -120.75 -783.85 -117.3 -787.95 -106.8 -793.5 -97.0 -792.4 -67.15 -819.35 -63.85 -825.0 -58.55 -826.3 -11.05 -879.5 30.45 -904.3 48.5 -906.75 54.75 -904.8 117.7 -946.2 119.3 -951.4 156.35 -963.65 263.95 -879.7 267.1 -880.7 296.75 -806.6 344.8 -759.15 375.1 -747.15 407.6 -735.8 420.8 -737.05 423.05 -734.9 444.0 -729.45 484.55 -625.75 499.75 -609.5 502.65 -604.45 548.55 -590.4 557.45 -580.45 580.45 -575.05 614.7 -558.65 628.15 -560.8 596.65 -505.55 574.15 -482.75 547.65 -466.3 541.85 -454.9 534.45 -452.4 508.65 -422.3 490.4 -384.8 491.25 -361.3 503.15 -328.1 535.0 -298.3 563.3 -291.35 579.55 -298.4 602.75 -300.4 612.9 -306.0 617.35 -306.65 649.35 -332.65 684.4 -340.4 763.5 -435.45 766.55 -448.45 778.9 -456.75 781.35 -461.25 785.75 -462.3 797.1 -476.3 813.15 -474.4 816.95 -454.25 789.3 -422.55 789.6 -418.6 723.25 -294.9 719.5 -267.45 718.4 -261.8 720.2 -256.55 712.4 -224.4 700.4 -207.65 696.4 -178.8 730.0 -138.0 765.45 -127.95 803.75 -96.6 819.25 -93.95 846.0 -79.15 861.4 -78.6 862.85 -76.0 867.4 -78.25 883.3 -75.0 894.7 -60.6 917.5 -44.15 917.8 -39.85 950.15 -14.75 950.05 -12.5 957.2 -3.2 960.65 -2.8 961.95 0.2 967.5 3.3 964.8 11.85 972.35 83.75 969.8 91.2 966.05 254.0 969.0 260.4 965.85 284.55 964.4 286.5 954.45 455.3 956.0 458.35 955.1 524.95 956.9 526.45 950.8 637.25 928.3 657.65 917.35 663.85 916.05 667.5 900.85 682.4 865.85 805.3 865.95 813.7 863.8 817.3 861.1 835.25 862.35 847.05 839.55 866.45 788.95 863.5 782.95 866.5 763.65 869.75 757.6 865.2 732.65 865.8 724.05 870.3 704.15 865.4 676.55 865.9 669.2 861.65 656.5 866.0 651.85 865.0 642.7 821.55 639.25 819.15 621.6 781.25 617.8 779.25 616.55 776.3 593.0 759.25 580.9 743.85 576.05 742.1 571.8 733.65 517.95 704.8 516.25 701.5 511.95 697.95 482.65 685.9 477.75 678.55 472.8 675.9 461.7 662.3 464.65 657.7 461.4 647.2 459.7 646.25 455.8 637.5 448.1 637.75 437.7 634.25 429.8 641.35 425.25 639.9 421.85 635.0 406.6 634.15 398.45 638.8 378.0 644.25 371.05 643.5 364.0 648.7 359.95 653.65 360.0 655.2 357.55 655.6 354.8 658.5 352.85 658.95 352.25 659.95 353.55 662.65 348.2 664.85 346.9 664.85 346.7 665.7 343.6 667.8 340.8 668.7 337.5 667.95 334.55 668.8 333.1 667.75 333.15 666.65 333.95 666.05 336.15 665.65 331.55 663.4 325.15 664.15 323.3 672.0 326.4 672.6 326.95 673.75 323.3 675.1 323.7 679.6 323.65 679.7 325.6 686.65 323.15 687.3 321.9 689.0 319.05 701.95 323.55 719.35 332.4 726.25 335.1 726.15 336.05 726.45 348.8 741.95 348.85 744.9 347.25 746.35 327.75 802.45 326.75 803.3 324.2 804.0 323.5 805.35 319.5 806.9 316.8 809.95 308.85 813.05 306.85 812.35 305.0 812.65 309.6 885.8 296.95 896.8 290.7 898.25 286.7 896.5 279.9 900.55 273.85 897.65 268.95 906.9 247.45 918.3 242.0 934.65 214.8 946.3 201.65 945.95 198.2 947.25 193.95 945.2 191.55 946.95 107.0 943.5 93.85 948.4 54.9 944.6 47.15 946.6 41.4 944.05 18.35 947.05 16.95 945.1 5.45 942.95 -19.6 946.65 -27.85 943.3 -28.05 942.65 -39.35 946.8 -68.35 928.45 -76.8 930.2 -91.85 925.05 -102.8 913.05 -101.05 910.4 -128.0 775.45 -126.15 761.95 -121.15 752.4 -102.7 736.85 -98.25 698.5 -95.8 695.05 -97.3 665.15 -116.5 609.5 -167.1 569.4 -172.95 569.1 -180.6 563.55 -228.15 561.05 -229.6 562.25 -253.8 544.95 -254.6 524.35 -249.85 512.65 -215.1 490.9 -212.75 491.2 -208.0 487.65 -201.75 486.75 -193.35 476.2 -191.85 469.55 -189.8 468.35 -144.55 403.2 -138.55 399.65 -136.05 393.3 -117.7 383.2 -113.9 383.15 -113.4 380.2 -98.05 372.4 -64.85 339.0 -3.3 298.85 44.25 243.7 57.0 208.2 62.75 202.75 56.75 195.55 56.7 167.65 20.0 98.4 1.2 85.85 -2.15 78.75 -19.7 74.2 -21.7 70.85 -59.1 70.85 -62.0 68.55 -90.05 76.3 -93.75 73.65 -107.25 75.3 -118.1 81.4 -139.45 84.85 -143.95 82.8 -210.9 142.85 -224.4 145.25 -229.7 150.35 -263.55 148.4 -343.85 201.2 -369.15 191.2 -375.45 184.9 -378.25 173.5 -362.15 153.25 -361.25 140.3 -328.45 85.25 -327.6 72.5 -321.65 66.75 -322.2 54.0 -309.65 36.75 -308.0 28.0 -310.65 18.0 -285.1 -30.2 -286.95 -33.2 -279.5 -52.0 -281.7 -73.05 -237.3 -260.05 -239.7 -268.35 -238.25 -332.4 -262.95 -388.9 -262.25 -392.7 -300.8 -454.45 -310.15 -455.45 -339.3 -451.25 -354.7 -455.55 -442.35 -422.8 -447.7 -418.5 -459.8 -414.95 -490.8 -394.4 -508.4 -363.45 -542.25 -328.65 -546.9 -288.5 -553.1 -270.25 -559.2 -284.65 -566.05 -287.45 -575.45 -307.5 -604.2 -326.75 -661.4 -320.75 -665.05 -318.2 -677.3 -319.85 -717.85 -306.5 -726.7 -295.0 -753.95 -274.95 -755.7 -267.6 -782.05 -241.55 -816.0 -236.15 -824.5 -237.3 -850.8 -227.55 -859.25 -232.4 -882.95 -235.8 -900.9 -228.9 -907.95 -230.45 -918.5 -226.1 -937.45 -233.2 -942.35 -278.05 -944.95 -285.5 -945.8 -304.4 -943.75 -309.55 -946.7 -350.1 -954.7 -355.9 -963.45 -459.25 -958.25 -491.7 -942.6 -529.7 -942.75 -554.4 -935.5 -561.95 -930.0 -575.55 -918.1 -580.8 -897.9 -599.35 -881.25 -594.3 -829.75 -645.3 -779.05 -676.65 -741.1 -671.4 -736.3 -667.85 -718.75 -672.85 -714.65 -696.0 -702.8 -705.8 -701.4 -726.4 -646.0 -759.4 -611.95 -798.85 -591.25 -866.85 -586.8 -873.85 -567.4 -880.85 -566.6 -884.75 -534.1 -905.9 -532.8 -911.6" fill="#61747c" fill-opacity="0.69411767" fill-rule="evenodd" stroke="none"/>
    <path d="M269.55 829.15 L272.25 816.4 280.25 816.4 294.35 831.45 302.75 853.35 302.65 859.7 307.35 867.3 306.45 873.2 306.2 873.6 301.45 874.6 292.65 868.35 292.0 868.35 273.95 847.05 269.55 829.15" fill="#7c8f98" fill-rule="evenodd" stroke="none"/>
    <path d="M128.15 -943.55 L175.6 -942.45 220.45 -897.9 231.65 -893.25 246.7 -878.8 247.8 -874.55 263.9 -863.2 265.7 -850.5 276.5 -832.45 286.6 -800.85 291.85 -794.15 306.4 -787.65 312.45 -780.75 314.75 -769.95 327.0 -763.4 332.7 -750.75 390.95 -714.25 394.3 -702.95 401.6 -697.35 412.75 -683.15 433.5 -669.7 455.8 -646.95 460.2 -634.0 473.15 -627.0 492.6 -596.3 494.0 -589.7 523.6 -590.15 527.55 -588.8 532.6 -589.7 539.45 -587.55 540.85 -584.5 569.9 -568.25 570.7 -565.3 581.65 -554.2 584.0 -531.3 578.05 -506.95 553.05 -485.45 554.1 -483.6 553.1 -481.15 546.35 -478.2 540.8 -480.9 529.1 -474.45 529.85 -468.3 490.8 -407.55 482.35 -364.95 499.55 -329.0 499.1 -326.7 513.35 -305.9 565.75 -274.55 574.65 -273.4 577.75 -278.5 577.9 -283.35 585.0 -294.55 589.75 -296.4 593.5 -292.05 599.5 -293.45 614.1 -301.3 615.3 -302.75 659.35 -314.55 672.7 -314.15 682.2 -309.15 691.4 -307.4 696.2 -302.4 709.2 -299.0 714.4 -289.8 714.2 -266.2 695.2 -231.0 658.4 -219.3 646.6 -218.6 646.15 -212.15 647.25 -210.0 654.15 -205.5 652.25 -198.6 654.95 -194.85 655.75 -188.4 663.8 -176.7 667.5 -160.95 680.95 -147.9 703.75 -148.8 718.75 -138.0 718.15 -130.7 750.0 -119.65 789.2 -94.0 829.05 -81.95 835.15 -75.55 853.4 -67.95 857.7 -69.65 871.05 -65.45 876.9 -65.75 881.95 -64.4 885.75 -58.5 Q891.6 -55.65 897.4 -52.85 L907.95 -44.35 906.35 -40.5 908.5 -37.05 923.15 -24.6 928.5 -23.7 960.45 8.5 959.35 13.05 961.2 16.4 960.3 19.75 963.75 30.0 964.05 190.1 962.25 193.7 964.05 247.6 961.05 252.95 964.4 259.4 950.65 348.6 898.05 411.75 894.05 408.7 885.9 418.25 884.8 422.0 885.75 439.75 893.45 442.4 903.0 467.6 916.8 476.55 923.2 475.75 926.75 478.4 934.65 490.9 938.45 504.4 934.25 529.3 926.9 535.35 917.75 631.4 914.15 641.4 904.95 652.15 903.8 664.25 893.75 673.15 876.35 733.2 877.85 737.25 865.65 777.15 865.75 786.65 830.6 844.8 811.5 852.75 759.5 859.4 744.1 854.7 733.15 859.45 691.1 854.25 679.75 849.5 650.8 822.5 650.25 816.9 627.25 780.15 622.35 777.35 600.2 748.1 600.55 745.35 593.05 730.9 592.6 730.7 590.1 724.15 575.75 718.9 570.4 719.05 569.9 717.15 568.5 715.2 568.0 709.55 572.2 703.7 564.45 700.0 550.85 704.2 550.35 704.0 549.85 704.6 542.75 707.55 535.05 706.75 523.85 702.95 512.55 692.5 504.0 691.45 499.55 687.05 485.55 683.4 465.2 663.5 467.35 661.2 464.9 648.8 461.55 645.2 460.9 641.45 461.6 640.25 457.9 630.15 452.65 627.1 436.75 625.7 434.3 626.7 434.55 628.15 434.0 630.3 431.65 632.9 429.95 638.15 429.05 638.05 420.25 627.45 413.35 626.45 411.45 627.75 408.6 627.7 399.9 632.45 397.05 637.0 381.9 641.55 371.45 639.45 359.3 649.0 359.0 653.6 352.25 658.1 351.45 659.85 352.05 661.55 352.0 662.7 348.7 664.2 346.3 664.25 345.95 665.8 342.9 667.95 340.9 668.15 337.9 666.9 337.0 665.3 336.25 665.25 335.75 664.6 331.7 662.65 329.0 662.95 326.8 662.25 324.0 663.65 321.45 674.2 324.75 685.6 322.2 685.1 320.3 687.3 318.7 688.2 316.7 702.75 321.55 719.6 332.2 727.75 336.05 728.9 339.55 734.8 341.25 736.1 343.45 741.85 342.3 745.8 334.5 750.35 326.25 764.3 327.05 767.95 325.45 777.15 319.4 772.95 314.65 781.95 303.7 792.4 295.45 796.0 276.95 792.6 264.35 794.55 245.3 787.1 243.15 781.75 239.15 782.55 235.05 785.4 221.05 790.45 217.6 789.45 195.85 813.3 190.65 823.8 192.4 830.0 190.0 833.45 179.85 860.4 141.85 891.3 137.2 892.3 129.8 907.85 114.65 918.45 95.25 921.35 51.7 911.7 48.9 908.1 47.6 902.95 50.8 898.6 40.6 885.45 -3.65 885.45 -7.3 883.1 -12.6 872.0 -21.0 864.9 -27.65 836.55 -30.1 833.4 -30.85 827.7 -25.95 820.4 -24.25 812.3 -31.15 771.0 -36.2 763.1 -38.0 738.05 -57.0 700.65 -69.95 629.25 -68.45 607.1 -98.0 542.75 -152.85 526.45 -155.0 514.75 -153.8 511.25 -156.0 501.75 -149.35 490.75 -71.0 457.1 -64.3 447.75 -46.15 445.2 -39.75 440.7 -34.65 419.15 -37.25 407.95 -21.0 385.25 -22.1 375.3 -3.65 339.35 -7.35 326.7 -4.8 317.35 92.4 198.6 105.9 188.6 109.65 176.45 79.15 39.2 85.95 4.0 67.2 7.9 61.45 14.65 53.3 16.25 28.6 34.35 28.6 34.45 18.0 39.55 11.1 46.85 -11.3 46.8 -14.5 51.3 -40.3 54.95 -46.0 59.7 -75.4 57.6 -127.15 74.25 -156.4 71.2 -251.85 99.2 -255.05 97.4 -264.5 86.1 -268.25 69.85 -222.75 -6.15 -222.15 -19.35 -216.35 -27.2 -203.2 -60.5 -192.3 -69.25 -188.9 -85.5 -207.75 -95.85 -218.45 -96.65 -226.2 -104.3 -242.35 -112.05 -250.75 -136.4 -224.0 -324.65 -225.0 -333.6 -219.85 -348.0 -215.7 -352.95 -240.5 -372.5 -252.85 -391.15 -253.2 -395.5 -292.4 -460.2 -292.9 -464.55 -298.35 -466.0 -320.4 -458.35 -365.55 -465.5 -375.5 -476.5 -379.6 -483.75 -383.7 -485.3 -387.7 -484.75 -394.35 -480.3 -419.7 -473.45 -437.25 -476.1 -443.25 -470.9 -523.3 -437.5 -540.7 -418.3 -547.35 -403.1 -552.4 -397.25 -553.55 -382.95 -555.95 -378.6 -556.55 -364.0 -565.65 -362.25 -563.85 -340.65 -568.8 -339.0 -581.5 -346.8 -594.3 -348.15 -596.15 -352.7 -632.25 -363.45 -692.1 -344.95 -707.6 -334.7 -717.85 -317.05 -725.95 -315.55 -734.75 -318.1 -757.8 -304.85 -765.45 -306.15 -766.95 -311.9 -809.45 -315.75 -826.15 -307.4 -835.8 -311.55 -860.4 -302.25 -873.75 -307.9 -880.0 -303.9 -892.05 -307.8 -917.85 -336.75 -934.7 -438.45 -934.6 -438.65 -934.75 -438.75 -917.6 -529.2 -900.7 -548.95 -882.8 -558.8 -861.25 -584.5 -852.3 -589.05 -782.6 -600.7 -761.05 -595.75 -754.7 -589.85 -734.35 -593.05 -704.75 -609.05 -684.9 -653.7 -667.2 -668.3 -651.5 -670.35 -616.4 -715.25 -614.2 -726.45 -607.7 -737.9 -598.0 -769.65 -576.4 -784.8 -561.1 -865.8 -544.25 -885.3 -535.95 -887.25 -532.5 -892.8 -515.25 -902.65 -496.45 -898.55 -481.05 -901.55 -480.8 -917.95 -449.7 -935.65 -409.45 -936.85 -366.7 -925.9 -346.75 -904.15 -337.25 -875.75 -331.45 -870.45 -325.25 -853.65 -314.0 -839.65 -298.0 -829.2 -281.7 -831.7 -269.4 -823.9 -260.1 -809.1 -248.4 -798.4 -224.95 -789.6 -220.95 -785.5 -196.4 -784.15 -167.55 -773.35 -156.3 -776.15 -137.95 -769.3 -112.75 -778.0 -109.55 -781.3 -86.8 -785.35 -83.5 -792.4 -72.6 -800.95 -68.35 -808.45 -64.15 -809.05 -55.6 -815.75 -50.45 -823.85 -44.4 -826.05 -10.65 -872.4 24.4 -890.9 28.2 -896.8 50.75 -903.05 55.15 -901.25 102.35 -920.95 128.15 -943.55" fill="#7c8f98" fill-opacity="0.8" fill-rule="evenodd" stroke="none"/>
    <path d="M300.25 -784.8 L300.5 -785.0 300.75 -785.05 300.9 -785.0 305.05 -781.55 305.35 -780.1 303.2 -779.85 299.9 -780.9 299.8 -783.7 300.25 -784.8" fill="#a0b1b9" fill-rule="evenodd" stroke="none"/>
    <path d="M-515.1 -881.95 L-509.95 -880.75 -439.3 -910.3 -383.65 -907.8 -373.1 -903.8 -315.8 -825.7 -299.55 -819.5 -289.15 -822.3 -279.1 -817.95 -266.55 -802.9 -224.7 -773.9 -200.3 -778.35 -173.5 -768.5 -156.85 -768.25 -150.9 -770.15 -143.35 -765.5 -121.0 -766.4 -109.95 -773.65 -68.85 -777.65 -57.65 -800.5 -52.85 -802.4 3.85 -875.25 17.2 -881.25 34.45 -897.05 51.55 -897.6 63.2 -900.7 65.5 -903.35 68.4 -901.85 79.3 -907.65 111.15 -913.55 120.9 -919.35 142.05 -914.0 147.95 -916.5 176.6 -903.45 232.95 -856.95 258.35 -814.15 262.9 -793.05 303.35 -777.35 306.55 -770.65 313.05 -763.85 318.4 -763.85 323.2 -761.35 323.45 -755.9 328.55 -749.75 360.0 -719.25 382.7 -708.1 387.5 -694.0 414.95 -673.2 426.85 -669.5 449.9 -631.15 471.6 -621.5 473.75 -613.25 479.3 -607.75 482.6 -597.2 481.8 -589.45 486.65 -582.35 528.2 -585.05 534.4 -583.45 537.55 -579.85 548.65 -575.95 568.4 -556.4 576.1 -539.0 572.9 -515.95 550.8 -495.0 534.7 -490.25 528.5 -484.5 523.2 -482.85 518.2 -485.5 511.2 -483.85 505.05 -476.25 508.75 -463.35 514.5 -455.15 497.2 -434.3 476.65 -379.1 476.4 -365.75 487.7 -339.3 492.75 -334.35 495.0 -330.05 495.0 -326.95 525.1 -273.75 575.05 -246.6 580.35 -245.05 585.0 -239.05 596.95 -233.5 599.5 -234.65 583.4 -258.45 578.55 -260.7 578.15 -273.75 585.2 -286.8 589.55 -290.0 593.7 -288.4 603.15 -288.65 616.15 -295.9 617.95 -298.3 672.85 -312.1 695.5 -295.55 702.6 -295.25 706.25 -288.4 709.25 -269.3 692.5 -237.2 680.7 -233.5 677.75 -230.45 672.35 -230.4 661.05 -226.4 652.85 -228.2 643.45 -224.7 630.0 -204.95 638.9 -189.25 650.4 -121.65 648.95 -116.0 651.3 -106.8 660.0 -103.15 662.3 -104.05 679.1 -99.55 687.7 -100.85 689.35 -104.8 696.05 -107.75 748.1 -100.4 766.0 -90.0 771.0 -84.95 776.6 -82.8 776.65 -77.65 835.65 -60.5 851.45 -40.3 853.15 -41.55 853.15 -41.5 859.05 -41.9 879.35 -29.55 889.1 -19.15 905.7 -17.55 917.7 -9.15 920.65 -9.25 921.75 -5.65 933.55 3.0 937.85 8.55 942.2 18.4 949.6 22.75 961.8 64.9 960.65 69.4 964.15 78.1 963.3 87.8 958.25 103.05 959.4 153.35 953.55 162.9 953.05 247.75 950.75 250.75 954.9 265.0 953.55 278.95 951.75 280.25 954.0 282.3 950.75 319.55 942.8 345.15 902.95 388.55 902.75 390.7 900.85 392.2 898.1 391.9 868.9 410.05 860.9 420.3 860.8 434.3 880.75 472.75 888.55 477.6 905.15 474.0 908.4 477.7 923.0 477.55 925.05 480.0 930.3 495.45 929.55 515.9 927.35 520.4 928.45 525.0 919.2 532.7 917.45 537.45 907.75 548.45 903.5 549.15 900.2 553.15 892.5 631.1 898.4 634.4 900.5 651.6 896.5 656.1 896.15 659.3 886.4 666.35 884.8 669.35 883.85 680.05 884.7 681.9 871.4 739.15 868.1 741.2 858.45 781.95 822.7 828.35 817.9 829.55 813.05 834.4 807.15 833.35 777.95 845.3 773.65 848.55 696.85 840.25 693.1 835.35 661.45 815.2 661.05 812.85 601.95 738.9 599.05 738.25 596.85 727.95 598.65 719.75 598.65 719.7 598.25 717.05 599.65 714.3 598.85 712.2 597.2 711.2 596.45 708.3 593.35 707.3 587.0 711.35 582.75 716.05 573.25 716.3 571.8 711.5 575.9 703.4 581.2 698.7 581.65 694.65 575.55 689.6 568.95 688.95 564.7 691.45 552.75 692.3 549.3 690.55 539.4 689.4 529.35 692.4 508.05 684.55 504.6 686.6 501.6 684.25 491.65 681.6 487.5 678.35 482.75 677.0 470.35 665.4 471.05 664.2 464.2 645.15 463.5 644.55 463.15 643.3 464.8 642.2 466.3 638.25 463.6 629.25 461.95 628.15 459.5 623.15 455.0 619.25 450.95 617.7 446.45 618.95 442.5 617.7 429.2 623.05 428.35 626.15 427.65 626.65 426.9 625.95 426.05 624.05 424.65 624.45 413.4 620.9 401.45 626.6 391.1 637.75 389.45 637.6 388.55 638.7 385.35 639.95 380.45 640.0 377.05 637.85 370.35 637.95 369.05 639.45 357.6 647.65 358.0 652.0 350.95 656.65 350.65 659.7 351.35 661.5 350.95 662.65 346.85 663.7 346.3 663.0 345.8 663.7 345.55 665.5 342.65 667.75 340.55 667.7 338.45 666.8 337.25 664.65 336.9 664.5 336.3 664.85 335.4 663.6 333.15 663.05 331.95 662.2 329.15 662.65 327.15 661.5 323.2 663.5 319.95 673.15 324.1 684.75 322.25 684.1 320.3 686.65 318.1 687.1 315.85 689.6 314.35 703.55 318.55 715.1 318.45 715.95 318.85 716.15 319.75 719.75 326.7 725.75 333.55 729.5 337.7 735.65 338.35 736.0 339.4 740.3 337.0 746.55 331.5 749.9 331.25 750.45 329.2 751.7 327.9 754.0 320.0 758.75 318.95 764.05 315.3 767.4 310.3 783.45 301.95 791.2 297.3 793.15 271.3 791.05 265.45 791.95 251.6 786.15 247.7 781.15 236.65 775.1 209.5 774.65 206.65 778.25 204.15 778.9 190.95 791.8 190.45 793.0 183.95 797.85 179.35 811.1 180.7 821.45 176.2 833.2 176.9 841.2 173.6 848.35 173.1 852.0 148.5 875.95 146.65 883.3 145.25 882.45 139.3 887.75 135.15 888.85 134.15 889.7 131.0 889.95 124.7 893.45 122.65 892.6 116.1 895.15 106.0 904.95 95.15 905.65 90.95 908.4 79.5 904.4 71.25 903.9 62.0 897.55 55.95 885.45 54.1 885.1 23.85 860.7 -22.3 673.3 -21.6 668.3 -27.5 656.6 -29.8 613.45 -26.6 608.85 -30.05 567.1 -58.1 532.85 -66.05 507.9 -66.4 486.1 -64.05 481.55 -56.05 473.0 -52.35 461.5 -48.4 456.6 -24.7 447.0 -15.8 433.9 -12.4 432.75 -12.15 408.0 -13.75 404.8 -11.15 404.4 -7.35 398.7 -8.6 384.2 -3.0 371.2 -3.85 365.5 19.25 321.1 17.0 313.75 21.7 302.6 24.95 300.9 30.25 292.7 36.1 289.55 39.65 283.35 38.25 280.05 81.7 243.1 85.2 233.0 91.45 230.5 96.75 223.55 99.2 223.05 119.8 204.5 111.25 111.85 114.0 105.45 107.55 69.45 102.8 67.75 96.2 62.75 88.7 37.65 90.5 24.45 106.45 10.25 105.05 2.2 91.85 -16.25 55.5 -10.9 18.1 24.5 6.75 30.6 -35.55 37.6 -42.6 44.7 -50.8 48.65 -85.95 51.35 -104.4 57.05 -107.3 60.25 -122.4 64.9 -160.05 59.3 -187.1 43.55 -196.7 31.85 -198.8 20.9 -192.8 -38.65 -186.15 -45.6 -186.9 -53.25 -176.35 -63.6 -132.1 -86.15 -128.1 -91.25 -112.2 -103.2 -108.65 -120.65 -125.05 -119.75 -135.75 -115.5 -140.55 -117.4 -168.95 -105.55 -201.1 -105.45 -205.35 -109.45 -216.6 -114.1 -225.7 -122.4 -231.6 -124.4 -242.65 -141.65 -224.75 -279.05 -225.75 -289.75 -216.6 -320.45 -207.4 -334.25 -194.75 -342.2 -185.7 -362.3 -187.5 -371.5 -215.4 -378.2 -242.2 -392.05 -277.45 -456.2 -281.6 -472.4 -296.65 -478.75 -307.4 -474.8 -314.4 -467.55 -324.45 -467.15 -359.35 -476.8 -364.6 -486.35 -366.35 -498.85 -378.3 -502.15 -384.45 -500.3 -398.85 -490.5 -425.4 -488.8 -548.05 -440.0 -556.3 -441.2 -583.45 -405.2 -587.25 -391.75 -595.3 -387.95 -618.3 -400.7 -628.9 -389.5 -656.35 -381.75 -685.45 -360.5 -693.15 -359.05 -702.95 -352.15 -708.8 -344.6 -722.95 -335.75 -737.65 -337.2 -753.5 -327.15 -779.55 -328.15 -792.15 -332.25 -863.4 -322.95 -876.15 -325.5 -903.2 -346.45 -907.7 -358.55 -906.6 -363.2 -918.6 -399.0 -921.35 -428.3 -913.4 -481.95 -910.8 -486.05 -911.35 -491.9 -895.05 -524.25 -847.3 -553.4 -840.25 -553.5 -787.3 -571.75 -729.75 -566.6 -677.0 -599.75 -675.25 -610.1 -624.55 -655.85 -590.35 -750.95 -583.7 -753.55 -577.4 -767.45 -557.95 -784.2 -546.0 -844.35 -530.25 -869.15 -515.1 -881.95" fill="#a0b1b9" fill-opacity="0.8980392" fill-rule="evenodd" stroke="none"/>
    <path d="M617.35 -289.45 L626.25 -290.6 639.4 -300.4 661.3 -302.5 664.6 -304.95 673.6 -305.65 676.2 -301.85 679.15 -300.9 680.05 -297.0 696.35 -289.15 697.65 -285.6 697.55 -284.85 700.85 -276.6 699.5 -273.85 700.15 -268.4 692.95 -251.95 674.0 -235.9 669.95 -235.5 661.7 -237.75 615.5 -223.25 602.05 -243.4 602.05 -243.6 600.8 -246.7 602.8 -250.3 601.7 -252.3 599.3 -251.95 591.65 -255.95 592.4 -258.45 584.1 -264.35 583.65 -271.6 587.9 -283.95 606.6 -285.4 617.35 -289.45" fill="#c0d1d8" fill-rule="evenodd" stroke="none"/>
    <path d="M601.35 711.0 L603.5 710.85 605.05 713.15 606.7 714.15 609.6 714.2 610.55 715.8 608.15 718.3 607.6 718.35 605.55 719.75 604.15 726.3 604.75 727.25 606.25 727.4 610.2 730.7 610.65 732.65 610.6 732.7 610.45 734.85 608.75 736.65 608.7 737.1 608.0 738.3 600.3 737.05 598.55 727.9 600.85 718.75 600.7 718.2 601.25 717.25 601.85 713.15 600.8 711.6 601.35 711.0" fill="#c0d1d8" fill-rule="evenodd" stroke="none"/>
    <path d="M319.85 -754.8 L322.25 -742.95 324.0 -740.8 337.8 -730.95 347.3 -707.85 366.85 -695.8 369.6 -687.55 Q372.1 -686.45 374.55 -685.4 L385.7 -669.65 406.05 -665.3 411.85 -661.5 421.5 -649.4 425.4 -632.95 432.4 -621.5 442.55 -617.35 452.0 -617.25 465.55 -604.8 467.5 -593.5 472.8 -588.25 473.35 -583.7 552.3 -563.95 565.0 -544.4 568.55 -530.0 565.5 -523.35 547.9 -506.6 543.65 -504.25 526.9 -499.2 520.1 -500.25 510.8 -494.2 497.3 -472.7 500.4 -455.65 466.2 -382.2 465.1 -377.15 467.85 -365.85 482.65 -339.95 481.0 -335.45 492.55 -305.2 492.65 -289.65 522.95 -256.5 539.2 -257.65 542.75 -256.4 548.1 -243.35 574.1 -233.55 630.2 -190.3 635.8 -167.3 634.05 -161.3 622.45 -149.7 616.5 -121.4 622.9 -108.35 631.95 -105.15 639.6 -90.55 662.5 -87.45 668.65 -80.0 690.9 -76.0 706.75 -76.5 716.7 -70.95 746.95 -72.55 751.85 -76.45 760.65 -70.3 776.8 -72.1 780.3 -62.6 780.1 -58.85 788.25 -50.35 809.9 -44.45 828.25 -28.55 831.2 -14.0 845.2 -0.1 860.2 4.0 884.25 4.6 905.4 15.7 917.7 19.0 926.55 24.9 932.3 41.0 944.25 51.55 950.95 113.65 926.2 175.4 928.95 221.75 918.55 252.95 914.05 257.4 910.55 266.9 904.55 270.9 893.9 282.0 894.5 283.55 920.65 287.2 933.5 296.5 940.45 307.8 931.8 337.4 931.65 343.3 918.8 364.1 912.05 368.05 911.55 370.1 Q905.3 373.15 899.0 376.15 L884.0 391.0 873.1 395.3 870.3 395.25 849.6 411.65 845.1 418.85 842.4 428.4 844.25 442.95 846.75 445.05 855.85 468.8 870.15 483.1 882.05 483.65 892.0 479.55 905.25 482.0 912.35 479.25 917.2 478.65 921.05 479.4 927.15 494.05 928.45 510.55 923.15 525.65 904.1 544.75 877.8 555.65 874.25 562.75 873.3 602.75 875.1 606.4 872.8 609.35 870.5 623.85 875.0 630.75 882.9 631.05 887.85 633.55 890.1 633.15 893.8 633.85 896.9 636.75 896.4 649.75 894.45 654.8 895.45 658.1 876.65 669.9 869.5 684.75 870.35 687.2 863.4 716.65 860.2 718.65 834.2 792.15 818.8 805.5 812.75 806.1 794.85 820.7 760.55 828.05 731.0 827.25 728.7 825.95 710.15 825.5 705.1 822.15 704.25 818.45 698.65 815.5 695.4 815.45 676.95 802.05 671.55 792.55 630.4 760.35 612.25 718.35 613.1 712.9 611.35 710.9 611.0 710.75 610.9 710.25 608.65 708.05 608.85 707.05 605.9 703.8 598.3 702.75 584.35 709.05 583.3 711.45 574.6 715.15 573.75 714.8 573.55 709.55 576.4 704.2 582.55 699.35 585.3 698.8 587.6 694.45 582.55 691.95 579.95 687.35 580.65 684.2 579.9 680.7 576.55 675.65 566.55 672.5 565.8 671.5 559.55 669.2 556.9 671.45 550.8 671.55 549.3 669.0 538.95 667.5 528.5 671.6 503.65 663.8 498.2 665.65 494.4 664.05 494.4 663.35 490.5 660.15 480.5 661.05 477.95 660.05 472.25 653.55 469.45 645.65 469.85 643.6 471.5 642.6 471.5 642.0 473.15 637.6 473.0 635.6 473.6 634.65 476.5 633.65 479.95 634.3 481.8 633.5 481.65 632.5 483.3 630.2 477.3 618.9 473.2 619.1 466.6 616.75 465.15 613.3 457.2 609.1 454.8 610.1 440.0 609.3 428.15 616.8 424.9 614.6 423.5 615.15 413.95 615.55 413.0 616.2 410.0 614.55 402.5 617.15 393.95 627.95 390.4 629.25 387.85 633.2 384.5 635.3 381.75 635.3 377.95 632.3 373.2 631.7 350.35 652.95 348.9 655.2 348.45 656.7 349.85 661.45 349.7 662.25 348.2 662.4 347.85 661.95 347.6 661.1 345.3 659.4 344.65 660.5 344.85 664.85 342.15 667.3 339.55 666.65 338.3 664.6 336.75 663.9 335.2 662.2 332.2 661.15 329.4 662.0 327.0 660.95 321.6 662.3 321.4 664.7 317.95 671.7 322.15 681.5 320.05 685.45 319.2 685.4 316.55 688.3 313.1 689.0 312.3 690.2 311.05 696.75 314.3 714.3 322.25 723.1 323.65 723.7 327.35 728.9 332.55 730.6 334.2 734.05 335.3 734.8 336.25 739.75 333.45 746.9 326.0 753.65 324.65 753.65 314.95 762.0 309.6 778.75 306.65 781.2 305.75 781.25 302.15 783.3 298.75 789.1 297.6 789.6 296.05 791.3 273.2 787.75 271.35 785.9 266.05 787.15 261.45 786.5 257.15 783.35 256.9 781.6 253.75 779.4 252.7 777.9 247.9 776.25 243.55 768.15 240.35 766.1 234.4 765.5 231.6 765.95 229.45 764.25 210.5 760.15 195.4 765.9 193.85 768.45 193.65 769.7 190.1 774.05 182.05 777.6 178.65 781.1 177.2 787.3 173.8 791.8 172.55 797.55 173.5 802.7 173.25 803.6 174.45 806.25 172.85 837.3 174.0 839.35 169.25 851.45 142.7 877.85 143.9 878.7 143.75 879.55 140.3 882.7 134.3 885.25 132.75 887.15 131.35 887.3 129.15 886.5 128.25 886.9 126.2 889.05 123.95 889.9 111.5 887.75 107.6 885.4 82.0 891.2 70.95 884.5 65.8 877.05 63.0 876.35 32.8 853.25 30.2 846.85 29.7 840.4 24.25 833.1 23.85 823.95 25.45 816.9 -16.4 647.2 -13.65 632.0 -16.0 617.55 -11.15 568.0 -53.35 515.35 -55.0 494.7 -39.95 472.6 -33.7 468.05 -19.0 465.55 -7.35 454.75 4.4 371.2 30.25 347.95 29.9 341.45 56.75 280.4 85.0 267.5 91.95 255.7 122.3 227.8 130.65 211.7 132.45 194.45 114.4 81.2 115.6 59.6 115.4 59.6 111.95 61.25 106.2 59.35 99.1 34.25 106.4 21.25 110.9 21.25 117.3 14.0 120.3 13.1 125.2 3.65 120.05 2.05 110.7 -14.8 104.2 -21.35 104.3 -23.7 94.25 -27.45 51.6 -27.45 36.0 -34.7 30.5 -34.05 27.5 -29.6 24.1 -27.75 -4.4 5.35 -27.35 9.85 -32.35 14.65 -126.95 45.2 -136.6 44.0 -166.3 21.05 -175.35 -2.5 -172.5 -27.25 -166.5 -40.1 -89.3 -89.6 -82.65 -102.05 -60.0 -122.5 -43.75 -130.15 -25.3 -129.2 5.9 -138.2 18.9 -149.95 18.9 -155.1 49.05 -175.9 49.0 -175.9 52.25 -181.7 62.1 -185.35 65.4 -183.75 83.65 -198.1 94.7 -201.35 102.6 -198.8 113.45 -204.25 117.15 -209.6 119.1 -222.4 116.65 -243.1 98.75 -288.4 99.8 -303.0 110.85 -314.15 111.65 -320.65 117.2 -321.25 132.0 -335.75 147.5 -329.3 148.6 -323.75 160.05 -323.45 165.75 -328.7 166.45 -337.9 166.35 -337.95 148.35 -363.25 141.75 -363.7 134.0 -367.65 127.25 -367.45 104.4 -382.4 87.0 -386.6 11.3 -450.95 -61.4 -464.55 -76.2 -453.05 -81.45 -441.7 -59.0 -416.9 -41.75 -410.75 -40.8 -399.65 -31.85 -388.75 7.8 -371.95 11.45 -365.3 12.1 -317.0 7.2 -311.15 -0.05 -281.75 6.8 -274.3 2.15 -263.3 -19.6 -237.2 -21.2 -233.65 -31.3 -229.45 -33.4 -225.8 -56.65 -212.0 -74.4 -206.6 -120.0 -162.5 -120.5 -158.35 -148.7 -133.35 -201.9 -128.9 -222.75 -140.85 -228.5 -202.85 -212.55 -252.8 -213.7 -257.1 -209.4 -275.35 -212.25 -285.1 -204.95 -290.65 -205.4 -296.7 -119.2 -408.35 -117.45 -423.05 -144.0 -431.7 -154.75 -428.15 -164.1 -414.95 -189.55 -397.7 -212.75 -395.25 -225.05 -407.05 -241.5 -432.4 -241.5 -432.5 -251.15 -450.15 -275.95 -544.15 -286.75 -552.9 -297.75 -550.55 -306.95 -534.25 -308.8 -519.7 -317.35 -495.9 -322.45 -490.55 -335.55 -488.2 -346.3 -494.85 -360.75 -508.85 -379.2 -517.15 -398.85 -509.9 -403.4 -502.95 -407.05 -500.45 -425.25 -500.85 -445.55 -494.4 -448.9 -490.45 -469.3 -490.8 -549.4 -457.2 -557.65 -456.8 -596.7 -431.7 -599.9 -431.65 -599.35 -423.9 -607.65 -416.4 -614.15 -420.95 -649.2 -396.95 -656.45 -397.45 -665.25 -393.55 -670.65 -386.45 -706.15 -367.65 -709.25 -360.05 -720.4 -357.5 -729.6 -350.35 -759.85 -341.9 -767.5 -343.0 -769.25 -342.35 -802.6 -348.45 -816.0 -341.95 -822.8 -345.5 -852.1 -343.65 -861.15 -351.45 -869.2 -351.35 -876.2 -354.55 -878.7 -360.05 -883.0 -360.4 -895.9 -381.7 -905.0 -430.4 -901.05 -456.75 -895.35 -471.85 -896.1 -487.9 -892.15 -492.3 -887.7 -504.25 -874.25 -520.9 -868.0 -523.9 -861.35 -523.7 -813.7 -548.15 -767.2 -548.6 -767.05 -548.3 -758.5 -551.3 -741.35 -542.75 -737.0 -542.95 -665.25 -592.8 -616.0 -650.0 -580.65 -743.7 -574.05 -745.75 -569.85 -758.5 -549.35 -772.95 -535.75 -827.1 -516.7 -862.3 -445.3 -891.5 -398.15 -891.9 -381.7 -887.55 -347.8 -853.25 -338.3 -847.7 -317.95 -812.25 -313.9 -810.45 -284.3 -810.45 -274.7 -801.15 -274.7 -797.4 -266.95 -790.2 -266.9 -790.1 -218.75 -765.8 -203.7 -768.95 -191.8 -768.7 -190.65 -766.6 -177.5 -759.65 -169.85 -761.6 -148.95 -757.3 -132.3 -755.55 -112.8 -764.15 -85.45 -762.35 -58.9 -750.65 -48.7 -757.95 -38.4 -760.4 -24.15 -770.75 -20.85 -786.75 -26.05 -802.4 -10.05 -848.85 -2.7 -860.2 13.4 -866.3 30.05 -885.55 36.75 -890.4 65.15 -892.5 80.15 -898.0 80.6 -900.35 110.15 -902.1 111.55 -897.3 126.35 -894.25 158.3 -875.55 171.1 -874.65 177.45 -862.85 195.4 -846.8 204.8 -840.75 214.05 -816.25 216.85 -814.8 236.8 -766.05 243.85 -761.6 261.25 -771.95 274.8 -773.1 305.1 -759.15 317.45 -756.55 319.85 -754.8" fill="#c0d1d8" fill-rule="evenodd" stroke="none"/>
    <path d="M-205.5 -210.3 L-194.9 -222.9 -178.95 -300.75 -164.75 -308.25 -159.8 -314.35 -152.7 -316.55 -144.4 -334.8 -128.45 -342.4 -113.05 -360.2 -107.0 -381.9 -105.45 -383.05 -102.75 -391.6 -91.25 -404.45 -79.95 -405.35 -70.95 -400.3 -46.35 -361.9 -32.55 -367.3 -6.8 -341.9 -4.95 -328.3 -17.1 -306.25 -17.1 -306.2 -21.25 -272.9 -62.15 -228.6 -67.4 -229.55 -99.25 -216.95 -122.45 -182.9 -131.9 -179.35 -141.3 -171.6 -144.5 -161.95 -144.15 -154.95 -150.0 -151.75 -164.45 -156.05 -174.45 -153.0 -182.7 -153.25 -202.65 -162.0 -208.7 -195.6 -205.5 -210.3" fill="#eaf6fb" fill-rule="evenodd" stroke="none"/>
    <path d="M-38.1 -233.65 L-39.4 -236.2 -39.2 -242.7 -36.95 -245.3 -37.6 -252.2 -27.9 -261.2 -25.4 -265.0 -19.3 -268.0 -17.8 -270.7 -5.65 -274.65 -2.15 -276.75 1.95 -274.45 -0.8 -264.05 -25.4 -234.65 -38.1 -233.65" fill="#eaf6fb" fill-rule="evenodd" stroke="none"/>
    <path d="M593.25 -277.25 L627.95 -283.45 646.55 -294.6 649.85 -293.95 656.45 -296.3 669.5 -295.15 680.45 -286.2 690.6 -282.65 693.25 -278.1 690.0 -259.75 684.8 -256.1 681.55 -248.85 678.05 -246.85 664.1 -247.05 652.5 -243.0 641.75 -242.0 630.05 -236.1 623.55 -237.15 615.5 -233.75 607.2 -245.55 608.3 -253.25 604.0 -253.65 595.4 -262.8 592.15 -267.85 593.25 -277.25" fill="#eaf6fb" fill-rule="evenodd" stroke="none"/>
    <path d="M602.65 718.4 L602.6 713.85 603.8 713.85 606.4 715.55 608.8 715.7 604.95 718.15 604.75 718.8 604.15 719.05 602.4 727.35 604.25 729.0 605.85 729.25 608.3 731.2 608.55 732.4 608.25 733.9 605.85 737.1 603.15 736.75 601.7 730.6 601.35 722.9 602.0 721.95 601.85 720.6 602.65 718.4" fill="#eaf6fb" fill-rule="evenodd" stroke="none"/>
    <path d="M13.9 -860.65 L34.15 -880.35 51.05 -887.35 97.65 -892.85 116.5 -883.25 122.75 -874.85 166.0 -850.8 191.85 -813.35 193.45 -797.25 205.9 -781.8 213.2 -778.0 215.55 -777.9 217.45 -775.1 223.5 -770.85 228.7 -754.95 235.7 -748.25 254.25 -751.35 272.2 -764.65 291.75 -755.95 311.9 -755.3 316.25 -753.9 318.35 -737.25 330.1 -731.85 330.85 -726.0 327.0 -713.9 337.15 -688.6 343.4 -682.55 366.6 -673.2 377.85 -652.45 384.8 -651.2 384.85 -649.1 388.9 -646.2 396.35 -653.9 406.1 -647.55 409.5 -633.8 422.55 -617.0 429.3 -613.1 436.55 -603.75 452.15 -598.35 458.55 -584.65 514.05 -565.0 518.15 -562.0 524.4 -561.65 547.2 -555.0 560.2 -538.3 561.3 -530.55 558.4 -525.1 546.2 -514.05 525.2 -507.5 504.15 -494.05 494.5 -477.9 492.2 -469.35 494.0 -459.65 488.75 -443.65 479.55 -433.25 472.75 -431.65 459.1 -435.6 455.55 -434.4 459.5 -429.8 451.55 -413.55 444.65 -409.5 437.15 -395.55 441.15 -379.35 468.1 -336.15 476.0 -313.25 477.9 -296.05 498.95 -266.9 519.6 -252.3 539.55 -253.65 544.0 -241.65 541.3 -237.2 549.65 -226.0 570.15 -219.25 598.1 -199.15 618.9 -192.15 624.15 -187.55 627.9 -173.8 627.25 -169.1 609.7 -149.7 602.2 -127.6 607.35 -111.3 616.55 -101.15 622.6 -99.55 624.6 -95.8 638.55 -82.65 655.75 -83.4 662.0 -80.8 678.4 -62.0 760.4 -59.25 780.35 -44.75 806.2 -39.0 812.45 -28.25 817.8 -26.95 827.75 0.0 852.35 24.1 866.75 22.0 899.2 22.9 916.55 30.25 916.75 39.85 934.0 72.45 931.95 99.15 928.6 104.0 927.4 125.95 920.7 139.4 917.7 141.15 912.85 158.6 917.75 173.5 913.0 235.65 899.05 250.05 893.2 269.45 867.4 278.0 858.95 286.85 856.55 297.9 858.4 304.4 861.85 307.75 870.0 310.65 888.2 296.4 917.8 293.95 935.0 305.05 937.5 311.2 932.1 330.5 927.05 333.7 913.4 365.2 881.55 380.4 861.55 400.4 829.2 423.0 828.5 428.25 818.3 438.95 816.55 444.05 818.0 446.65 837.35 454.7 845.45 473.3 860.2 484.65 880.7 487.05 892.75 482.4 902.05 484.8 908.5 484.35 911.45 481.4 918.0 480.25 921.2 482.65 926.45 510.3 924.25 517.05 897.0 546.15 882.9 550.65 864.75 551.0 860.5 555.7 860.0 576.95 862.05 579.2 865.2 589.15 861.8 627.5 865.4 633.75 893.3 635.15 894.9 636.25 894.25 640.5 894.95 647.8 893.5 656.9 889.2 660.85 874.55 665.85 865.45 679.15 860.35 701.6 846.15 713.55 844.65 719.4 845.05 743.75 840.05 752.25 836.75 775.2 826.0 785.2 813.15 789.8 797.85 803.55 758.0 818.75 746.7 818.05 734.5 811.9 726.65 803.75 725.2 798.45 721.0 797.1 707.55 783.55 671.45 764.0 663.1 762.85 645.7 765.3 636.5 757.75 634.75 754.25 633.1 746.7 615.25 722.75 614.25 718.95 615.4 716.5 614.9 705.65 612.4 703.05 599.65 699.95 596.4 701.35 590.1 706.65 586.95 706.4 582.5 708.65 579.65 712.9 577.65 713.6 574.1 713.45 574.15 709.5 576.7 704.65 581.35 700.7 586.05 699.25 587.85 697.3 589.65 696.9 593.15 693.6 593.35 692.1 592.3 690.5 591.35 690.75 590.7 691.5 588.65 692.85 587.15 692.8 583.5 690.2 583.8 686.05 585.15 683.15 579.0 668.9 527.2 645.0 499.55 653.2 485.4 653.2 483.8 655.05 481.95 654.1 480.55 650.4 481.3 645.4 478.55 640.6 483.45 636.9 486.8 631.4 486.45 626.3 486.35 626.2 483.7 626.25 481.4 624.2 479.0 617.25 459.95 600.2 454.55 600.3 442.8 595.65 436.7 596.15 420.3 605.45 404.25 606.4 398.65 611.5 397.15 614.55 395.0 615.05 381.85 628.15 378.5 626.95 375.7 627.3 367.85 634.9 367.2 636.95 348.4 649.15 345.9 655.3 343.45 655.7 343.4 659.55 335.5 661.05 332.55 659.25 327.8 660.75 321.75 661.05 319.9 662.25 320.15 664.6 316.25 670.75 316.45 673.7 317.35 673.6 318.45 674.45 320.45 680.75 319.2 684.75 316.3 687.7 311.15 688.75 309.85 689.75 308.7 694.8 313.9 716.75 315.9 719.95 318.05 721.65 319.6 721.9 321.25 723.7 324.4 725.45 327.1 729.75 332.45 731.9 334.9 736.25 335.1 739.3 333.5 744.2 330.75 748.2 311.25 763.4 306.3 774.5 301.3 778.9 299.1 784.05 295.0 789.05 280.1 788.1 276.15 786.55 274.65 784.0 274.2 782.0 272.55 780.55 269.95 780.5 265.95 782.85 263.75 779.85 259.25 778.55 253.4 773.45 246.0 761.6 246.2 760.45 243.8 758.65 240.05 758.45 238.25 756.25 235.1 755.15 231.55 751.95 226.4 750.5 221.75 752.15 221.05 752.0 220.1 753.2 200.9 753.25 186.4 757.45 167.1 780.85 166.1 787.6 165.35 788.9 165.55 789.55 162.55 795.95 164.45 803.35 166.95 807.15 170.95 839.75 169.2 846.7 162.65 856.45 140.0 875.35 138.75 879.1 134.4 882.05 134.25 882.75 130.8 885.55 119.45 887.1 117.3 886.2 114.75 883.25 105.15 882.0 103.6 883.1 101.95 883.5 90.3 882.75 89.4 882.0 76.25 877.85 71.4 873.95 67.2 866.25 64.45 864.8 63.3 863.45 61.45 863.45 60.45 860.75 48.75 856.05 48.25 854.85 34.0 839.55 -0.75 671.45 -6.05 664.2 -5.15 651.8 -8.15 642.5 -7.1 604.4 0.3 591.95 4.65 578.5 2.3 564.15 -7.1 558.0 -26.35 534.75 -34.45 531.8 -42.1 517.8 -46.15 502.6 -42.25 490.75 -34.25 480.75 -12.1 469.35 -4.8 469.05 9.3 460.8 7.05 403.6 9.05 402.05 10.4 380.95 13.75 370.2 23.05 363.05 31.6 360.6 32.05 358.1 43.55 346.25 71.25 291.75 94.6 278.7 123.05 240.65 123.95 235.75 126.8 230.9 131.75 227.6 130.7 225.6 136.8 218.5 139.4 209.15 135.65 193.0 138.65 181.6 136.6 179.55 128.75 159.75 124.65 118.45 126.1 115.3 123.9 108.65 124.7 87.7 128.0 79.05 124.85 76.8 123.05 61.1 114.8 38.95 115.25 20.45 118.65 16.5 131.85 10.5 133.35 6.95 130.9 -4.95 128.4 -5.1 Q125.25 -6.95 122.05 -8.85 L113.75 -22.8 113.8 -26.9 93.2 -32.1 86.95 -47.75 75.0 -54.9 71.3 -50.4 75.3 -36.55 72.55 -33.05 55.95 -43.1 47.55 -57.8 41.35 -62.95 31.7 -82.85 23.55 -83.2 7.95 -73.45 2.7 -63.3 -1.7 -58.7 -6.5 -37.0 -9.95 -34.85 -33.8 -31.4 -40.85 -32.6 -46.1 -30.6 -47.45 -17.05 -65.75 0.25 -72.55 3.45 -98.45 5.85 -119.9 21.15 -134.0 17.55 -144.25 7.15 -149.6 -7.3 -132.2 -34.75 -85.35 -59.65 -72.95 -59.45 -48.55 -67.25 -44.6 -79.45 -46.05 -87.3 -36.3 -95.05 -13.7 -88.55 17.8 -102.85 24.8 -114.65 25.75 -129.35 23.55 -133.45 23.0 -142.25 27.95 -155.1 44.45 -164.85 52.3 -174.65 52.8 -176.85 57.3 -179.95 67.45 -181.05 87.05 -195.95 95.2 -195.65 105.45 -191.95 122.85 -194.45 132.2 -193.7 143.85 -207.65 139.3 -218.75 143.2 -235.6 141.25 -240.25 121.2 -248.5 117.05 -267.6 105.75 -287.55 106.3 -305.35 113.45 -312.15 120.25 -314.5 123.15 -322.4 130.75 -328.95 136.65 -330.3 142.1 -326.95 147.55 -321.15 164.5 -319.25 173.4 -324.9 175.85 -335.05 162.2 -365.7 156.95 -366.4 151.3 -369.25 130.75 -368.4 112.65 -380.5 105.9 -390.85 93.1 -395.0 17.35 -461.45 -29.25 -479.35 -55.1 -480.9 -68.1 -476.15 -86.2 -458.85 -91.0 -458.6 -108.75 -443.65 -145.15 -441.4 -149.5 -443.9 -163.95 -438.35 -165.5 -431.55 -183.7 -410.85 -194.35 -402.75 -207.6 -400.0 -218.3 -402.8 -223.9 -414.2 -222.3 -422.8 -224.2 -458.65 -236.3 -475.75 -260.15 -543.1 -279.3 -561.0 -295.35 -554.95 -301.5 -555.25 -307.65 -544.4 -320.8 -532.4 -328.4 -508.4 -345.9 -502.4 -352.4 -504.4 -364.65 -527.15 -372.8 -529.1 -375.65 -532.3 -377.35 -544.55 -387.45 -545.6 -420.7 -529.75 -463.65 -521.65 -489.2 -506.95 -509.4 -507.95 -525.65 -500.85 -532.9 -489.7 -548.0 -485.85 -558.4 -486.3 -576.95 -475.4 -593.45 -451.5 -726.7 -373.5 -734.4 -362.0 -745.55 -354.45 -752.3 -353.95 -759.65 -349.25 -774.5 -349.9 -782.8 -362.0 -783.9 -367.1 -792.95 -368.2 -807.35 -360.75 -813.55 -359.05 -817.45 -360.15 -839.6 -350.95 -846.15 -350.95 -862.3 -358.3 -874.65 -373.1 -874.95 -378.2 -882.2 -392.45 -888.15 -449.25 -885.7 -454.45 -877.95 -496.0 -833.65 -525.95 -832.45 -528.7 -819.7 -535.1 -809.4 -533.75 -759.15 -538.6 -742.05 -529.75 -723.25 -534.0 -684.0 -554.8 -673.65 -565.25 -669.25 -575.05 -642.05 -592.8 -600.45 -658.05 -600.6 -665.25 -573.2 -711.1 -574.2 -735.6 -572.25 -739.25 -542.75 -763.55 -534.2 -795.85 -534.9 -807.7 -511.3 -860.85 -474.15 -870.4 -468.3 -875.75 -437.75 -887.1 -417.3 -884.2 -414.55 -882.1 -384.95 -875.65 -381.95 -869.8 -366.65 -864.95 -359.85 -853.35 -339.0 -844.25 -316.15 -802.55 -303.4 -804.65 -293.8 -802.4 -285.45 -794.4 -276.5 -792.8 -266.25 -783.55 -229.75 -763.6 -200.45 -766.35 -184.2 -756.9 -161.0 -755.85 -135.8 -745.4 -108.75 -755.55 -66.25 -742.65 -25.9 -753.7 -5.25 -766.85 -3.75 -786.35 -10.9 -797.05 -11.55 -816.65 -2.45 -830.75 2.9 -855.5 13.9 -860.65" fill="#f4fbfd" fill-rule="evenodd" stroke="none"/>
    <path d="M183.45 -10.9 L184.55 -10.95 198.45 -28.6 199.8 -29.15 205.15 -35.25 216.15 -38.35 242.55 -27.05 249.7 -18.4 250.5 -14.4 243.45 12.1 231.3 29.0 226.25 31.2 211.75 29.7 210.55 28.55 209.9 25.65 209.65 25.4 206.6 23.95 204.0 24.0 188.1 11.1 185.5 3.6 186.1 1.1 186.05 0.8 181.25 -5.75 183.45 -10.9" fill="#c0d1d8" fill-rule="evenodd" stroke="none"/>
    <path d="M396.85 -511.25 L396.9 -511.55 398.65 -514.7 400.25 -515.9 408.7 -517.0 Q411.15 -515.8 413.55 -514.65 L414.25 -513.75 415.2 -513.5 415.85 -513.9 424.25 -513.25 425.8 -512.0 428.2 -511.9 432.35 -509.05 437.75 -509.55 440.4 -507.85 440.45 -506.3 445.7 -504.25 448.85 -505.05 450.05 -506.05 452.1 -505.9 453.15 -505.4 453.9 -503.9 454.05 -501.9 451.8 -497.4 451.75 -491.85 451.5 -491.5 449.8 -490.15 449.25 -489.05 449.2 -487.25 451.2 -482.5 453.4 -480.8 454.15 -479.65 444.2 -477.8 443.45 -476.75 442.5 -469.25 439.75 -465.8 438.65 -467.2 438.65 -467.35 437.6 -469.7 434.85 -472.1 434.8 -472.1 434.75 -472.25 434.6 -472.4 434.35 -474.1 432.2 -476.35 432.15 -477.1 431.45 -477.2 431.3 -477.35 430.75 -477.1 427.85 -478.4 427.4 -480.15 419.8 -485.6 416.9 -485.5 415.15 -487.05 408.85 -487.55 406.95 -489.05 406.55 -489.05 401.0 -492.15 396.35 -491.95 390.8 -494.95 389.8 -497.25 390.25 -498.0 390.2 -498.1 390.65 -501.5 396.75 -508.7 396.85 -511.25" fill="#c0d1d8" fill-rule="evenodd" stroke="none"/>
    <path d="M453.35 -448.2 L454.75 -445.35 454.75 -444.95 455.4 -444.45 456.05 -441.25 452.05 -441.45 452.5 -444.4 451.25 -446.85 453.35 -448.2" fill="#c0d1d8" fill-rule="evenodd" stroke="none"/>
    <path d="M228.4 -17.05 L236.05 -12.4 241.15 -3.65 240.2 1.45 227.05 18.4 221.95 20.1 214.45 17.5 208.25 14.1 198.75 3.05 197.4 -1.4 198.6 -8.9 208.1 -17.95 228.4 -17.05" fill="#a0b1b9" fill-rule="evenodd" stroke="none"/>
    <path d="M-2.0 -407.55 L-9.75 -417.2 -11.75 -423.3 -7.2 -427.2 -0.05 -425.85 23.05 -407.25 30.3 -407.35 76.65 -375.6 85.7 -374.1 92.75 -366.25 134.95 -358.35 148.1 -342.8 147.15 -337.6 128.55 -340.6 106.8 -324.85 97.35 -310.4 93.7 -285.25 104.0 -256.2 96.45 -212.6 49.05 -185.35 49.15 -185.45 33.95 -172.75 -28.95 -158.55 -73.2 -158.8 -79.4 -165.25 -74.25 -173.75 -71.0 -175.95 -70.2 -180.75 -14.65 -211.45 22.35 -284.7 37.0 -353.35 20.35 -391.8 -2.0 -407.55" fill="#7c8f98" fill-rule="evenodd" stroke="none"/>
    <path d="M216.15 -7.95 L222.35 -5.9 224.25 -4.1 224.9 0.2 222.85 3.85 220.5 5.45 215.45 4.8 213.65 2.1 210.4 -1.6 210.55 -4.0 211.05 -4.9 216.15 -7.95" fill="#7c8f98" fill-rule="evenodd" stroke="none"/>
    <path d="M55.2 -364.05 L78.85 -362.9 109.55 -346.75 110.3 -339.55 104.0 -331.15 96.25 -313.25 92.0 -310.4 88.65 -285.6 93.9 -271.85 85.45 -220.45 81.45 -213.15 73.3 -206.5 13.3 -189.05 4.05 -189.75 0.25 -197.9 0.55 -207.8 22.75 -233.0 28.4 -249.65 39.15 -262.45 37.5 -265.15 37.85 -280.2 48.4 -301.45 57.05 -360.4 55.2 -364.05" fill="#a0b1b9" fill-rule="evenodd" stroke="none"/>
  </g>
</svg>
