<?xml version="1.0" encoding="UTF-8" standalone="no"?>
<svg xmlns:ffdec="https://www.free-decompiler.com/flash" xmlns:xlink="http://www.w3.org/1999/xlink" ffdec:objectType="shape" height="1772.65px" width="1818.6px" xmlns="http://www.w3.org/2000/svg">
  <g transform="matrix(1.0, 0.0, 0.0, 1.0, 882.35, 888.25)">
    <path d="M-25.4 -89.0 L-25.4 -86.0 -24.4 -85.5 -23.9 -86.5 -22.9 -86.0 -21.4 -84.5 -21.4 -83.5 -21.9 -83.0 -22.4 -83.0 -22.9 -82.5 -24.4 -82.5 -24.4 -81.5 -25.5 -79.7 -25.4 -77.0 -21.0 -66.0 -16.4 -61.0 -10.9 -56.5 -9.4 -54.0 -8.9 -54.0 -8.4 -54.5 -7.4 -54.5 -5.75 -53.9 -4.9 -52.0 -5.9 -51.0 -7.9 -50.0 -7.9 -46.0 -6.4 -45.5 -8.4 -45.0 -8.6 -41.25 -9.9 -39.5 -9.9 -38.0 -9.35 -37.7 -8.9 -36.5 -10.9 -34.5 -11.4 -35.0 -11.9 -35.0 -11.9 -37.0 -13.4 -37.0 -14.4 -36.5 -25.9 -35.0 -30.05 -33.45 -29.9 -32.0 -31.1 -32.0 -30.75 -33.45 -35.9 -33.5 -36.4 -34.0 -38.2 -34.7 -38.5 -33.6 -39.4 -33.5 -39.4 -34.5 -38.85 -34.85 -38.9 -35.5 -43.4 -35.5 -43.9 -35.0 -44.4 -33.5 -44.45 -32.75 -43.45 -31.6 -44.9 -31.0 -45.9 -31.0 -46.4 -31.5 -46.4 -33.0 -45.9 -35.0 -46.4 -35.0 -46.9 -34.5 -47.4 -34.5 -47.4 -33.0 -48.4 -33.0 -48.9 -33.5 -49.4 -33.5 -49.9 -33.0 -50.4 -33.0 -51.4 -32.0 -50.9 -32.0 -51.9 -30.5 -51.9 -31.5 -57.4 -26.5 -57.9 -26.5 -58.4 -26.0 -59.4 -25.5 -65.4 -18.5 -66.4 -16.5 -66.4 -15.0 -63.9 -14.0 -65.4 -12.0 -66.9 -12.0 -68.4 -13.5 -73.9 -10.5 -77.9 -9.0 -82.4 -8.5 -88.4 -10.5 -95.9 -17.5 -96.4 -17.5 -96.4 -16.5 -97.4 -15.5 -98.4 -16.5 -99.9 -16.0 -101.9 -14.0 -102.4 -12.0 -104.4 -13.5 -104.9 -13.5 -111.9 -9.5 -118.4 -2.5 -119.9 -2.0 -121.9 0.0 -123.4 0.45 -123.9 -0.5 -126.35 -3.0 -127.35 -3.5 -127.85 -4.5 -129.85 -6.5 -129.85 -9.0 -129.35 -9.5 -129.35 -13.0 -127.85 -15.5 -126.35 -15.5 -124.9 -16.5 -123.4 -16.5 -121.9 -17.0 -120.4 -17.0 -117.4 -16.5 -116.9 -17.0 -115.9 -17.0 -115.4 -18.0 -114.9 -18.5 -112.4 -18.0 -110.4 -19.0 -105.9 -24.0 -106.4 -24.5 -106.4 -26.5 -104.9 -26.5 -104.4 -27.0 -103.9 -28.5 -102.9 -28.0 -100.4 -29.0 -99.9 -30.0 -100.4 -30.5 -98.4 -30.5 -86.9 -37.5 -87.2 -38.5 -87.9 -39.0 -87.9 -40.6 -85.9 -41.5 -84.45 -43.1 -83.25 -43.0 -82.4 -41.5 -82.4 -40.5 -81.9 -38.5 -80.9 -39.5 -80.4 -39.5 -79.9 -39.0 -78.9 -40.0 -78.4 -40.0 -76.9 -42.0 -76.9 -44.0 -76.4 -44.0 -76.4 -43.5 -75.9 -43.5 -75.4 -45.0 -74.4 -45.5 -73.9 -45.5 -72.4 -49.5 -70.9 -51.0 -66.4 -53.6 -66.4 -54.65 -65.4 -55.0 -64.4 -55.0 -61.4 -56.75 -59.4 -59.5 -57.1 -60.85 -47.1 -63.25 -46.4 -65.0 -44.9 -66.5 -42.4 -71.5 -38.95 -75.2 -38.05 -77.4 -38.4 -79.0 -38.4 -80.0 -40.4 -85.0 -41.4 -85.0 -41.9 -85.5 -41.9 -86.0 -41.4 -87.0 -41.4 -87.5 -37.9 -92.0 -36.9 -92.0 -36.4 -92.5 -35.4 -92.5 -31.9 -91.0 -31.4 -90.5 -28.9 -91.0 -25.4 -89.0" fill="#282828" fill-rule="evenodd" stroke="none"/>
    <path d="M-195.2 -215.0 L-192.85 -216.5 -193.35 -220.5 -193.35 -222.5 -191.85 -224.5 -185.25 -269.2 -180.35 -278.5 -180.35 -286.0 -181.85 -288.5 -181.85 -290.0 -179.85 -294.0 -179.85 -295.0 -178.35 -297.5 -175.35 -300.5 -173.35 -300.5 -171.45 -301.85 -168.75 -301.85 -164.45 -304.0 -163.7 -305.7 -159.35 -309.5 -157.85 -311.5 -155.85 -312.5 -153.85 -312.5 -152.35 -315.0 -150.85 -315.5 -146.35 -321.5 -142.85 -331.0 -139.35 -334.5 -137.0 -334.25 -128.35 -337.5 -126.85 -339.0 -126.85 -339.5 -126.35 -340.0 -125.9 -340.0 -123.9 -341.5 -122.9 -343.5 -118.4 -348.5 -118.4 -349.5 -115.9 -352.5 -113.9 -357.0 -111.9 -359.0 -111.9 -360.5 -110.5 -363.0 -108.4 -370.5 -104.9 -376.5 -102.9 -378.5 -100.9 -382.0 -99.9 -386.0 -91.25 -397.6 -89.85 -398.0 -86.4 -397.0 -83.4 -398.0 -80.4 -398.0 -74.9 -396.0 -71.6 -392.35 -68.0 -386.35 -63.75 -383.35 -59.9 -378.0 -56.4 -374.5 -54.4 -373.5 -52.9 -371.5 -51.9 -363.0 -50.9 -361.0 -47.25 -358.85 -44.4 -359.5 -41.4 -362.0 -39.9 -362.1 -36.9 -361.0 -34.4 -361.0 -31.9 -359.0 -28.35 -358.0 -22.9 -353.0 -19.9 -351.0 -9.9 -340.5 -9.4 -335.5 -10.1 -332.6 -16.9 -318.0 -16.9 -308.5 -22.4 -301.0 -23.9 -285.0 -24.9 -283.0 -25.05 -281.6 -24.6 -278.9 -25.4 -275.5 -45.4 -250.5 -45.4 -249.5 -47.1 -249.35 -51.4 -245.5 -51.4 -245.0 -54.85 -241.5 -56.85 -241.0 -58.5 -238.6 -59.4 -238.5 -61.1 -239.25 -62.9 -239.0 -68.4 -235.0 -71.4 -234.5 -78.9 -230.5 -80.9 -228.5 -83.4 -227.0 -86.95 -226.75 -102.4 -216.0 -103.9 -216.0 -107.9 -213.0 -108.4 -211.5 -110.4 -209.5 -111.4 -209.0 -119.9 -200.0 -120.9 -196.5 -122.4 -196.0 -127.35 -189.5 -128.85 -188.5 -131.35 -188.0 -134.35 -185.5 -137.35 -184.0 -148.35 -170.0 -147.85 -160.0 -149.85 -158.0 -151.35 -157.5 -154.35 -157.5 -157.85 -159.0 -164.85 -158.5 -168.45 -156.7 -170.35 -157.0 -172.85 -156.0 -177.35 -156.0 -179.85 -155.0 -181.85 -155.0 -186.85 -157.5 -190.45 -158.35 -194.3 -162.3 -199.35 -163.0 -199.85 -165.5 -199.85 -175.0 -201.35 -179.5 -201.35 -186.0 -204.85 -189.5 -206.35 -193.0 -205.85 -202.25 -203.45 -204.9 -203.1 -207.45 -200.85 -209.5 -199.3 -211.9 -196.35 -212.5 -195.2 -215.0" fill="#282828" fill-rule="evenodd" stroke="none"/>
    <path d="M598.35 -265.0 L597.35 -265.0 595.85 -266.6 593.85 -271.0 593.85 -273.5 595.35 -274.5 597.1 -275.2 601.85 -274.5 605.35 -276.0 610.35 -276.0 612.35 -277.0 615.85 -277.5 616.35 -278.0 616.35 -279.0 618.35 -279.0 618.85 -278.5 619.35 -278.5 619.85 -280.0 620.85 -280.5 627.85 -282.5 632.35 -285.5 634.45 -285.5 646.35 -293.0 649.35 -293.0 654.45 -295.05 658.85 -294.0 665.8 -294.0 667.3 -293.5 668.8 -293.5 672.8 -289.5 672.8 -289.0 676.3 -286.0 683.1 -285.9 684.4 -286.0 685.2 -282.1 685.15 -280.0 686.75 -277.75 687.3 -275.5 686.8 -266.5 688.4 -263.3 686.3 -261.0 685.3 -260.5 682.8 -260.0 681.3 -259.0 680.3 -256.5 669.8 -249.5 659.85 -247.5 658.85 -247.0 656.85 -247.0 654.35 -245.5 650.85 -246.5 646.35 -246.0 643.35 -243.05 639.6 -240.75 636.35 -241.0 634.85 -244.0 631.85 -246.5 628.85 -247.5 624.85 -246.5 618.45 -246.35 617.35 -246.95 615.85 -249.5 613.5 -249.25 612.7 -249.75 612.25 -251.5 612.85 -252.5 610.35 -255.0 605.35 -256.0 Q604.3 -256.55 603.2 -257.15 L601.2 -259.75 600.85 -263.05 598.35 -265.0" fill="#282828" fill-rule="evenodd" stroke="none"/>
    <path d="M-35.4 -246.0 L-35.4 -250.5 -34.9 -251.5 -29.9 -256.5 -29.9 -257.0 -21.9 -265.0 -16.9 -267.0 -15.9 -268.0 -15.9 -269.0 -15.4 -269.5 -14.4 -269.5 -11.9 -270.5 -9.9 -270.5 -8.4 -271.5 -8.4 -272.0 -6.9 -273.5 -4.9 -274.0 -2.9 -276.0 -1.4 -275.0 -0.9 -273.0 -0.9 -268.0 -1.4 -266.0 -1.4 -264.5 -2.4 -263.5 -3.85 -262.75 -4.35 -261.25 -5.9 -259.5 -6.4 -258.0 -10.4 -254.0 -12.9 -249.5 -15.4 -247.0 -17.9 -245.5 -22.4 -240.0 -23.45 -237.2 -24.9 -236.0 -33.4 -234.5 -36.4 -234.5 -37.4 -235.0 -37.4 -241.5 -35.4 -243.5 -34.9 -245.0 -35.4 -246.0" fill="#282828" fill-rule="evenodd" stroke="none"/>
    <path d="M305.25 -754.6 L309.95 -753.95 313.45 -751.95 315.35 -749.75 315.45 -746.95 316.95 -741.95 316.95 -734.95 319.45 -732.95 325.1 -730.35 325.45 -726.95 320.95 -713.95 321.45 -710.45 327.45 -705.45 331.7 -691.5 333.45 -688.95 340.45 -682.45 361.9 -670.45 363.9 -668.45 364.4 -666.45 367.9 -660.95 367.9 -657.45 370.4 -653.95 372.9 -653.95 Q373.65 -653.55 374.35 -653.2 L374.2 -652.0 376.4 -650.45 379.65 -650.6 386.25 -644.5 388.4 -639.95 391.7 -637.35 392.65 -633.65 394.4 -631.95 400.9 -629.5 406.4 -625.0 409.4 -624.5 430.9 -610.0 430.9 -604.5 432.9 -601.5 441.4 -596.0 446.9 -595.0 450.9 -592.5 452.4 -586.0 457.35 -579.6 459.9 -579.45 461.9 -578.5 470.9 -577.0 478.4 -573.5 483.9 -572.5 487.9 -568.0 491.4 -566.5 496.9 -566.5 506.5 -564.25 512.85 -561.5 520.0 -556.75 528.35 -556.5 546.85 -551.5 551.85 -547.5 551.85 -542.0 554.35 -538.0 552.85 -530.5 549.85 -528.5 546.85 -523.5 546.85 -520.0 544.85 -518.05 538.35 -515.0 536.35 -513.0 533.2 -512.35 527.85 -512.5 514.3 -503.2 504.0 -498.6 496.9 -483.5 490.9 -477.5 489.75 -475.5 488.9 -472.0 488.9 -468.5 490.9 -464.5 490.35 -458.15 481.35 -441.6 477.4 -437.5 474.4 -435.0 465.4 -435.5 464.4 -436.5 445.9 -472.0 445.75 -473.9 447.4 -475.5 448.4 -476.0 448.9 -476.0 448.9 -476.5 448.3 -476.7 450.35 -483.1 449.4 -483.5 452.85 -495.05 454.35 -494.75 451.9 -484.5 460.2 -482.25 464.85 -501.2 459.5 -507.9 450.6 -510.1 450.75 -511.3 449.25 -511.7 448.75 -510.7 442.85 -512.05 440.4 -502.5 414.9 -509.5 417.6 -519.2 395.9 -524.5 392.5 -513.6 391.25 -513.75 389.5 -509.25 390.95 -508.7 386.4 -498.5 397.05 -495.3 396.1 -492.35 384.75 -495.5 384.6 -492.75 388.9 -492.5 397.7 -489.75 400.9 -487.0 406.9 -487.0 410.0 -485.5 419.4 -484.5 420.9 -483.5 422.9 -483.0 424.9 -481.5 435.4 -467.0 435.4 -466.0 435.9 -465.0 436.9 -464.0 438.4 -460.5 439.4 -459.5 439.4 -459.0 441.4 -455.5 441.4 -454.0 449.75 -437.6 454.9 -426.5 454.9 -423.5 453.4 -420.5 450.9 -418.0 447.4 -417.0 441.4 -414.5 435.4 -407.5 435.4 -406.5 433.9 -405.0 432.9 -401.5 428.9 -397.5 428.9 -392.0 430.85 -386.7 432.9 -372.35 438.0 -364.35 446.4 -356.0 453.4 -348.0 456.9 -346.0 459.4 -342.0 459.9 -338.0 463.6 -330.35 465.25 -324.6 465.4 -318.5 467.4 -311.5 467.4 -305.5 468.9 -300.5 471.4 -296.0 472.9 -294.5 476.4 -287.0 481.4 -281.0 481.4 -278.5 490.9 -269.0 493.4 -265.0 498.35 -263.6 507.85 -257.5 509.35 -257.25 510.35 -259.0 510.85 -258.5 511.0 -257.75 509.85 -257.5 509.35 -257.0 509.85 -257.0 510.85 -256.0 512.85 -257.5 514.35 -257.5 515.35 -256.0 515.35 -255.0 514.85 -254.5 514.35 -253.0 517.85 -251.5 521.35 -251.5 522.85 -252.0 525.5 -251.2 530.5 -251.1 532.85 -252.0 534.35 -251.5 535.05 -252.1 534.3 -253.15 534.25 -256.0 539.05 -255.6 538.0 -252.65 537.85 -250.5 538.85 -248.5 539.35 -242.5 535.35 -238.0 534.35 -237.5 534.35 -235.5 537.35 -231.0 538.85 -232.5 541.85 -233.0 542.45 -232.4 542.35 -228.6 539.3 -228.3 540.5 -226.95 541.85 -227.0 543.35 -228.5 544.85 -228.6 544.35 -229.5 544.35 -231.5 547.25 -232.5 548.1 -229.25 545.25 -228.6 545.7 -226.35 547.35 -222.0 548.85 -222.0 549.85 -222.5 553.35 -222.0 559.35 -219.0 563.35 -218.5 568.85 -216.5 574.85 -210.5 579.85 -208.1 590.35 -200.0 601.35 -193.0 608.35 -190.5 614.35 -190.5 617.35 -189.0 619.35 -187.0 619.35 -186.5 621.85 -187.0 624.35 -185.0 633.35 -185.0 634.0 -181.85 636.35 -178.75 636.35 -177.0 629.35 -176.35 626.5 -175.25 622.85 -175.0 622.85 -171.5 620.35 -166.5 607.65 -153.65 608.95 -152.5 609.45 -149.65 609.35 -153.5 611.35 -154.5 614.35 -153.6 613.0 -150.1 610.1 -149.5 609.35 -148.15 603.85 -148.0 604.35 -150.0 605.35 -152.0 603.85 -150.5 602.1 -147.25 601.85 -145.5 604.35 -144.0 603.85 -143.0 603.85 -141.5 600.85 -140.5 597.45 -131.65 600.35 -131.0 601.35 -130.0 600.85 -127.5 598.8 -125.0 602.85 -125.0 603.85 -123.0 601.85 -121.0 603.35 -118.5 603.75 -111.75 604.5 -111.6 605.0 -110.5 604.35 -109.6 612.35 -101.0 618.75 -99.25 630.35 -86.5 636.35 -81.5 639.1 -81.1 639.75 -79.85 640.5 -82.05 639.7 -85.7 643.0 -86.85 643.2 -90.65 646.8 -87.5 643.85 -87.0 645.2 -83.2 643.45 -79.6 645.35 -81.0 647.35 -81.0 651.35 -79.5 651.85 -79.5 652.85 -80.0 653.35 -80.0 654.35 -79.5 656.35 -79.0 656.85 -79.5 661.25 -77.6 661.35 -75.5 663.85 -72.5 663.85 -68.5 665.8 -64.0 668.3 -62.0 669.3 -63.0 669.8 -63.0 669.8 -61.5 669.3 -61.5 672.3 -59.5 672.8 -59.5 673.8 -59.0 674.8 -59.0 675.3 -59.5 676.3 -59.5 678.3 -59.0 678.8 -59.0 679.8 -60.0 679.3 -60.5 678.3 -62.5 678.8 -65.0 680.8 -65.5 682.5 -64.35 682.8 -61.0 683.3 -60.5 696.3 -60.0 700.8 -57.5 701.3 -58.5 702.8 -59.0 703.3 -58.5 703.3 -62.5 706.3 -65.5 707.8 -65.5 709.3 -62.0 710.8 -63.0 711.8 -63.0 713.3 -61.5 713.3 -60.5 714.25 -59.95 717.8 -60.5 726.3 -56.5 731.3 -56.5 731.3 -57.5 731.8 -57.5 732.3 -56.5 732.8 -56.5 733.3 -58.0 734.8 -58.0 736.8 -58.5 737.3 -59.5 740.8 -59.5 741.3 -60.0 749.3 -59.5 749.8 -59.0 751.8 -59.0 754.8 -57.5 757.3 -57.5 758.35 -57.95 767.3 -52.0 769.3 -52.0 771.8 -50.0 771.3 -48.0 772.3 -47.0 773.3 -47.0 779.0 -43.25 783.3 -43.5 786.8 -43.0 791.8 -39.5 793.8 -39.0 801.3 -39.0 803.3 -38.5 805.3 -36.0 807.3 -31.0 813.8 -25.0 816.3 -25.0 818.0 -26.0 819.25 -26.2 819.75 -24.75 818.3 -23.0 817.8 -20.5 818.3 -20.0 818.3 -17.0 820.0 -12.25 820.15 -10.75 820.8 -10.5 821.75 -9.0 822.45 -4.9 823.75 -5.0 825.25 0.0 829.25 1.95 832.25 5.45 832.25 7.45 833.65 8.9 836.2 14.45 836.75 17.95 841.65 22.25 850.25 25.45 858.75 25.45 861.2 24.6 869.25 24.45 872.25 25.95 874.75 25.95 876.25 25.45 877.25 25.95 879.75 25.95 881.25 24.45 883.75 23.45 891.25 24.95 894.75 27.45 907.25 27.95 911.25 32.95 914.25 42.45 916.75 47.45 924.1 56.35 929.75 67.95 930.75 76.45 930.75 88.45 931.25 89.45 930.25 91.95 930.25 97.45 927.25 98.45 924.25 102.35 924.4 103.7 927.75 106.45 926.75 108.95 922.25 109.95 922.25 113.45 926.75 120.45 926.6 126.0 921.7 131.6 921.05 133.35 919.5 134.05 913.25 139.95 914.25 146.75 913.5 152.6 916.75 155.45 915.25 155.95 913.1 160.1 913.95 162.35 915.75 162.45 914.75 164.95 916.75 172.45 916.75 174.45 912.75 186.95 913.4 192.2 911.75 198.45 911.25 209.45 912.7 216.25 909.25 224.95 909.25 229.45 910.4 232.75 909.75 235.45 901.75 242.45 893.25 259.95 892.75 263.45 891.75 265.45 887.75 268.95 883.25 270.45 877.75 271.45 870.75 275.95 869.25 275.45 867.25 275.45 866.25 276.45 867.25 277.95 866.75 278.45 865.75 277.95 865.25 276.95 863.25 278.95 863.25 279.45 862.75 279.95 861.25 279.95 860.25 280.95 853.25 282.95 852.25 284.95 852.25 287.45 850.75 290.95 852.9 292.2 852.25 293.05 851.1 293.15 851.75 294.45 849.75 297.45 849.75 304.45 851.75 305.45 851.25 306.95 855.25 311.95 856.25 312.45 857.75 313.95 858.25 314.95 861.25 314.95 862.5 317.0 869.25 317.45 871.25 315.45 873.75 314.45 874.25 314.45 875.25 312.95 874.75 312.45 873.25 311.95 873.75 310.95 871.75 310.95 870.25 310.45 868.75 308.95 869.25 306.45 871.75 304.1 871.75 302.45 872.75 301.45 874.35 301.3 875.85 302.75 874.75 303.45 874.75 304.95 875.25 306.45 876.75 306.95 876.75 308.95 875.75 310.95 877.25 309.95 879.2 306.65 880.65 306.35 880.75 305.45 881.75 304.45 882.75 304.45 883.75 303.45 883.25 301.95 883.75 301.45 885.25 301.45 886.25 300.95 885.75 299.95 885.25 299.45 886.75 299.45 888.25 297.95 889.75 298.45 891.75 296.95 890.4 295.0 891.7 293.25 894.0 294.25 893.75 297.45 896.75 297.45 897.75 296.95 904.25 297.95 905.75 297.95 913.75 295.95 913.75 294.95 915.25 292.95 916.75 292.95 918.75 297.45 922.25 298.95 922.25 299.95 923.25 300.45 924.6 299.0 926.0 299.75 926.25 302.95 930.75 304.45 933.25 304.95 935.25 306.95 936.25 308.95 935.75 311.45 934.75 312.45 934.75 315.45 930.75 325.45 927.25 329.95 927.25 332.45 926.25 333.45 925.25 332.95 925.25 334.45 926.75 335.45 927.1 338.45 925.0 338.3 923.7 337.3 922.7 340.3 922.5 341.95 921.95 343.6 922.3 345.65 920.25 345.95 913.25 359.95 911.75 361.45 910.65 364.5 906.75 366.95 896.25 370.45 886.25 374.95 877.75 382.45 879.25 384.5 878.75 385.5 874.75 384.95 870.75 388.45 867.25 389.95 862.25 395.45 858.25 398.45 851.75 401.4 844.75 409.45 842.25 410.9 838.75 410.9 834.25 412.4 836.25 415.4 833.25 417.0 831.25 414.9 830.25 415.9 829.25 415.9 827.75 415.4 825.75 415.4 823.75 418.4 824.25 418.9 823.25 419.9 822.75 419.9 823.95 421.75 825.45 421.85 827.75 423.4 826.95 424.95 827.5 426.95 824.75 428.9 822.9 428.75 819.8 425.9 819.25 430.0 818.3 431.9 818.3 435.4 815.8 436.9 811.8 440.9 814.8 443.9 812.3 445.4 810.3 445.4 810.3 446.9 811.3 447.4 811.8 448.9 814.8 449.9 814.95 446.75 814.0 446.0 815.2 444.85 816.55 445.35 818.3 444.9 820.3 445.9 820.5 449.2 819.8 451.4 822.25 449.25 824.25 449.4 827.25 451.4 827.75 452.85 828.75 452.9 832.75 457.2 832.65 458.7 834.25 458.9 836.7 460.7 838.1 466.25 834.0 466.25 835.25 469.4 836.75 469.9 836.75 470.9 835.7 471.2 836.75 472.4 837.85 472.25 839.75 470.9 841.2 471.4 842.45 472.7 840.75 477.0 838.75 476.9 839.75 478.9 842.25 478.9 842.75 479.4 841.25 480.4 842.75 481.9 848.25 484.9 850.25 483.9 852.25 484.9 852.25 486.9 853.25 487.9 857.25 487.9 864.25 490.4 873.25 489.9 875.25 490.4 881.25 489.9 883.25 488.4 887.0 488.35 890.25 485.2 891.1 485.2 892.35 485.85 893.25 485.4 896.75 486.4 900.25 487.9 903.25 487.9 904.25 488.4 906.75 490.4 908.25 490.4 911.25 488.4 911.25 486.4 912.25 483.9 913.75 482.9 917.25 482.4 919.85 484.5 919.75 487.4 917.75 489.4 918.25 490.9 918.25 495.4 920.65 497.05 920.75 501.9 922.9 503.7 922.85 511.25 921.3 512.3 921.2 515.45 918.5 516.9 917.4 521.45 912.25 525.9 909.75 527.4 909.7 529.05 908.65 529.7 908.5 530.9 904.5 533.35 903.25 533.9 900.0 538.1 897.75 538.9 896.75 541.45 893.75 542.4 892.6 544.45 891.25 544.4 889.75 543.9 888.25 545.4 886.25 544.9 882.25 544.9 881.25 545.4 873.25 545.9 871.25 544.4 868.25 544.4 865.75 545.4 863.2 545.7 860.75 546.9 859.25 547.9 856.25 550.4 855.25 551.4 854.75 553.4 854.75 558.4 853.75 559.9 853.75 562.9 855.25 564.4 856.9 567.6 857.3 577.3 860.95 582.4 861.05 596.0 860.6 603.5 858.75 608.9 857.75 609.9 855.25 613.4 854.75 614.4 849.75 619.4 850.2 621.0 853.75 627.9 853.75 629.9 854.25 631.4 854.25 631.9 860.25 637.9 866.25 640.4 867.75 639.4 871.25 638.9 871.75 638.4 877.75 636.4 882.25 635.9 883.25 636.4 885.75 636.4 888.75 635.4 892.75 635.4 894.25 636.9 894.25 638.4 893.75 639.9 893.75 647.9 892.75 651.4 892.5 655.55 891.75 657.4 889.75 659.4 887.25 660.9 880.75 662.9 879.25 662.9 872.75 663.9 865.75 669.4 864.25 671.9 863.1 674.65 861.75 684.9 859.5 690.9 859.7 692.25 863.75 688.9 865.4 692.4 864.25 694.9 862.75 695.4 862.25 696.4 860.85 697.5 860.8 694.25 859.75 693.15 859.45 695.4 855.25 699.9 853.25 704.4 850.75 705.9 849.75 706.9 848.25 707.4 841.25 714.4 840.75 716.4 841.55 717.2 841.65 718.4 843.25 716.9 845.25 717.4 844.75 719.4 843.25 719.9 842.25 719.9 841.25 721.4 841.25 734.9 842.1 735.2 842.75 737.9 842.4 741.4 836.75 752.4 836.25 758.4 835.25 760.9 835.25 764.4 834.75 766.4 833.25 769.4 833.25 771.4 830.75 775.1 828.25 775.9 827.75 776.9 825.75 778.9 823.5 780.45 824.75 781.4 825.75 781.4 826.15 780.4 826.5 779.85 827.1 779.85 828.75 780.75 829.25 782.35 828.75 783.15 827.25 782.9 826.75 782.4 826.4 782.95 827.75 784.25 828.1 785.5 825.75 787.9 823.75 787.9 823.75 788.4 822.75 789.4 819.3 789.4 818.8 788.9 818.8 787.4 816.0 786.2 814.45 786.9 812.25 786.65 810.8 787.4 808.75 787.75 807.2 787.2 806.8 785.9 804.8 786.9 802.3 790.4 792.3 789.9 792.2 791.9 791.75 792.5 790.8 792.55 790.9 793.25 789.7 794.5 788.5 794.45 784.7 802.0 783.3 801.9 783.1 802.4 781.5 802.5 780.9 803.2 781.3 804.4 780.85 804.5 779.9 804.3 779.6 803.95 777.7 803.9 777.5 804.9 776.5 804.9 775.8 805.4 775.3 806.4 773.8 807.9 770.95 806.75 770.8 807.25 769.85 807.75 768.3 806.9 766.8 807.9 761.8 809.4 755.3 814.9 749.3 815.9 747.1 817.4 745.8 815.9 740.8 813.4 736.3 809.4 734.8 808.9 733.3 807.4 733.3 805.3 730.3 801.9 729.3 801.9 726.8 799.9 726.3 797.4 722.3 788.9 722.3 787.4 720.3 784.9 719.8 783.4 718.8 782.9 716.6 780.7 714.8 774.9 712.8 772.9 690.8 761.4 688.8 760.9 688.8 761.9 689.3 762.4 689.3 762.9 687.8 762.4 688.0 763.5 687.7 764.15 685.8 763.4 684.8 763.9 684.75 764.85 684.0 765.9 682.3 766.4 683.75 768.0 683.9 768.9 682.0 770.25 680.8 770.4 679.3 769.4 679.3 768.4 678.3 767.9 676.3 765.9 676.45 760.4 677.25 758.5 678.8 757.4 679.3 757.9 680.25 758.0 681.1 756.95 679.8 755.9 678.8 755.9 673.8 753.4 670.3 753.4 666.3 754.9 665.8 755.9 663.85 757.9 662.85 760.4 660.45 762.0 656.35 762.9 650.85 762.9 649.35 762.4 647.85 762.9 647.35 762.9 646.85 763.4 645.85 763.4 644.85 762.4 644.35 762.4 643.85 761.9 643.85 761.4 640.35 758.4 638.35 757.4 636.35 755.4 635.35 749.4 633.1 744.0 633.1 742.1 632.25 741.45 630.35 744.4 627.85 746.9 627.85 747.4 626.5 748.45 624.35 748.4 623.85 748.9 622.85 748.9 622.35 749.4 622.0 750.25 619.9 753.0 618.1 753.5 614.25 754.15 613.25 753.7 613.35 752.4 614.35 751.4 614.35 749.4 615.25 748.6 616.45 748.65 616.85 747.9 620.35 748.4 621.85 745.4 626.35 744.4 627.85 741.9 629.35 741.4 630.85 741.4 630.85 739.9 629.85 738.9 629.85 737.9 628.35 736.4 627.85 736.4 624.35 732.4 622.7 728.5 620.8 727.5 616.35 722.4 615.35 720.4 615.35 717.9 615.85 717.4 615.85 713.9 615.1 711.2 613.35 710.4 602.35 702.4 597.85 702.9 590.35 706.4 586.35 706.4 583.85 707.9 582.35 707.9 580.85 709.4 580.85 709.9 577.85 713.25 574.85 712.9 574.35 711.9 574.5 709.2 576.35 705.4 582.85 699.9 584.35 699.9 586.35 698.4 587.35 696.9 589.35 696.4 592.35 693.4 592.35 692.4 591.35 691.4 588.85 692.4 586.35 691.9 584.35 689.9 585.85 683.9 585.85 682.4 584.35 679.9 582.35 672.4 576.85 665.9 572.35 663.4 568.85 663.4 562.25 659.5 554.85 654.4 552.55 654.7 550.1 654.0 548.85 652.9 537.35 645.4 533.35 647.9 531.85 647.9 531.35 647.4 531.85 644.9 532.35 644.4 533.85 643.9 532.85 642.9 531.25 642.7 530.2 643.4 529.25 642.5 528.2 643.1 526.35 642.9 524.85 644.4 523.85 644.4 523.25 643.5 520.85 643.4 519.85 643.9 517.85 643.9 513.35 645.4 511.85 646.9 510.35 646.9 506.35 649.4 504.9 649.9 503.4 649.9 502.9 650.4 499.9 650.9 498.9 651.4 483.75 650.85 482.4 648.9 482.4 647.4 483.9 645.9 483.9 643.9 483.4 642.9 481.9 640.9 481.4 639.4 482.4 638.4 483.9 637.65 486.9 632.4 487.4 626.9 481.9 623.4 479.9 617.4 476.9 614.4 476.4 611.9 472.4 607.9 468.9 606.4 461.4 599.4 451.4 595.9 449.4 593.9 446.4 592.4 444.9 590.9 444.9 590.4 442.9 588.4 439.4 588.4 433.9 593.4 431.4 594.4 427.9 594.9 427.25 597.65 424.7 599.25 419.9 599.4 412.9 594.4 410.9 594.4 408.9 592.4 407.4 591.9 404.5 591.9 403.0 590.85 402.25 591.05 402.2 591.85 404.4 592.9 403.4 594.4 403.4 594.9 402.9 595.9 402.9 596.9 403.9 596.4 403.9 595.9 405.4 595.9 405.4 596.4 405.1 597.35 403.55 597.1 401.4 599.9 401.4 603.9 399.1 607.0 396.0 608.7 392.9 607.9 392.4 606.4 389.9 607.4 388.9 609.4 387.9 609.9 381.85 618.2 378.9 620.4 377.85 623.85 374.9 626.4 366.9 635.4 366.4 636.4 364.9 636.4 360.4 640.9 358.4 640.4 357.4 640.9 354.9 643.9 349.9 643.9 344.7 646.75 340.35 647.7 336.0 650.5 337.0 652.0 324.95 659.4 324.45 658.9 321.95 659.4 319.45 661.9 318.45 665.9 315.45 670.4 315.45 673.9 315.95 674.9 316.7 674.25 317.45 674.9 319.45 680.4 319.45 683.4 317.95 685.4 314.45 687.9 310.95 687.9 308.45 690.4 307.95 692.9 307.95 696.9 311.95 706.9 312.95 716.9 316.3 721.6 318.8 722.6 321.95 724.9 324.25 725.7 326.85 730.5 330.45 731.4 332.45 732.9 332.45 734.4 334.25 737.1 333.95 739.9 333.1 743.5 331.2 746.25 329.45 747.4 324.95 751.4 323.45 751.9 319.1 756.6 315.35 757.7 310.95 762.4 308.45 767.9 303.45 775.4 300.95 777.9 299.45 782.9 297.45 784.4 295.95 785.9 294.95 788.4 288.95 788.4 284.1 786.65 282.45 786.9 281.45 786.4 279.6 786.85 276.45 785.4 276.45 784.9 275.95 784.4 275.95 781.9 273.45 778.9 270.35 779.05 268.95 778.4 267.45 780.4 266.95 780.4 264.95 779.4 259.85 777.7 254.45 771.9 254.45 771.4 251.45 768.4 250.45 765.9 250.45 763.9 248.95 761.4 245.95 758.4 243.95 757.4 243.45 756.9 242.45 756.9 236.95 751.4 235.45 750.9 231.95 747.4 229.95 747.4 226.95 748.9 225.45 748.9 221.45 750.4 218.95 750.4 218.45 749.9 213.45 749.9 212.95 749.4 206.45 748.9 201.15 750.5 197.25 750.9 196.45 751.9 189.0 754.9 184.0 756.4 184.5 757.9 184.5 758.9 183.5 759.9 182.5 759.9 181.5 758.9 180.0 760.9 180.0 762.4 179.5 762.9 177.5 762.9 173.0 766.9 163.5 781.4 163.5 781.9 163.0 782.9 162.5 787.9 160.0 790.9 159.5 793.9 157.0 796.4 157.0 800.4 157.5 802.4 161.5 809.4 163.5 814.9 163.5 816.9 164.5 819.9 168.0 822.9 167.45 831.2 168.0 834.4 170.0 839.9 168.0 842.4 168.5 844.4 168.0 844.9 164.0 847.4 160.5 852.4 160.1 855.75 154.0 860.9 152.45 863.25 144.7 869.6 143.0 871.9 140.0 872.4 137.0 874.4 136.5 877.4 135.5 877.9 132.5 878.9 131.5 879.9 131.0 879.9 131.0 880.9 130.5 881.4 129.5 881.4 128.5 880.9 127.0 882.4 127.0 882.9 122.5 884.4 120.5 884.4 115.0 879.4 113.5 878.9 106.0 878.9 105.0 879.4 99.5 879.4 98.5 878.9 93.5 878.95 92.85 878.7 92.6 878.9 88.7 878.35 88.75 877.1 87.75 876.9 87.4 877.75 87.8 878.1 88.4 879.5 87.5 880.4 86.5 880.4 85.5 879.9 83.0 879.9 82.0 878.9 81.0 876.4 81.0 874.9 80.5 873.9 79.5 874.4 78.0 874.4 76.5 872.9 75.5 870.4 74.5 869.9 73.5 869.9 72.5 868.9 71.0 865.4 74.2 866.1 73.0 862.4 70.5 859.4 67.5 857.9 64.5 855.4 64.0 855.4 62.0 852.4 58.0 848.4 57.5 846.9 52.5 841.9 50.5 841.4 48.5 839.9 45.3 839.25 43.0 837.4 39.5 832.9 35.0 821.4 33.5 821.4 33.5 820.4 34.5 819.9 32.75 812.9 28.25 807.6 27.05 803.9 27.05 795.9 26.05 793.4 25.55 785.4 24.05 781.9 24.05 764.9 22.05 751.9 21.55 729.9 20.55 727.9 20.55 722.4 21.05 721.4 21.05 712.4 22.3 709.2 21.55 707.4 19.55 703.9 19.55 701.9 18.05 696.9 14.55 692.4 11.55 685.4 11.05 677.9 8.55 669.4 6.95 667.25 8.0 666.75 6.75 663.9 3.55 660.4 3.05 659.4 2.2 655.1 -0.75 651.0 -0.9 649.4 -2.4 648.4 -2.9 646.4 -2.9 642.9 -1.4 640.9 -1.4 638.9 -2.4 636.9 -2.4 633.4 -3.9 628.9 -6.9 623.4 -7.1 620.7 -4.9 614.9 -5.4 608.9 -2.9 602.4 1.55 594.4 1.55 591.9 2.55 589.9 12.55 579.4 13.05 577.9 13.05 575.9 15.05 572.9 15.05 569.9 14.55 568.9 11.55 565.4 10.55 561.4 7.55 557.9 1.7 553.75 0.55 549.4 -1.9 547.4 -2.4 547.4 -9.4 540.4 -9.9 539.4 -11.3 538.15 -15.3 536.2 -16.4 535.9 -18.9 534.4 -19.9 535.4 -21.4 535.4 -23.4 534.4 -23.4 533.4 -22.4 532.4 -21.9 531.4 -23.9 530.4 -30.4 530.4 -32.85 529.75 -35.4 526.9 -35.9 525.9 -36.9 524.9 -36.9 521.9 -37.9 520.4 -39.9 520.4 -43.4 521.9 -44.4 521.9 -45.4 520.4 -45.4 519.9 -43.9 517.9 -42.4 517.4 -38.4 516.9 -38.4 513.9 -39.4 512.9 -40.4 512.4 -40.9 511.4 -40.4 510.4 -40.4 509.9 -41.9 508.35 -43.05 508.0 -44.4 507.4 -45.7 506.4 -45.75 505.25 -44.6 504.3 -43.3 503.85 -42.75 502.55 -42.4 498.9 -41.9 498.4 -41.9 497.4 -40.4 494.9 -40.4 492.9 -38.4 488.4 -39.4 487.4 -39.9 487.4 -40.4 486.9 -40.4 484.9 -39.9 484.4 -36.4 484.4 -34.9 482.65 -32.5 481.2 -24.1 478.35 -23.4 476.4 -21.45 475.6 -20.9 473.4 -18.9 470.9 -15.9 470.9 -14.4 471.9 -12.9 471.4 -11.9 470.4 -10.25 470.05 -8.9 470.4 -3.9 470.4 -2.4 469.9 0.05 469.9 0.55 469.4 2.4 468.4 4.0 466.6 5.55 466.4 9.55 464.4 10.55 463.4 17.05 461.9 21.05 459.9 22.05 458.4 24.05 452.4 23.55 450.9 22.2 449.6 22.05 448.4 23.05 445.9 21.05 443.4 20.2 443.2 19.55 441.9 21.55 439.9 22.55 439.4 22.05 438.4 20.55 436.9 21.05 436.4 20.55 435.4 20.55 433.9 19.05 431.4 18.55 429.4 17.55 427.9 19.05 425.9 14.55 424.9 11.55 421.9 10.55 419.9 9.55 415.4 9.55 412.9 9.25 411.65 8.3 410.65 8.85 408.35 10.25 405.25 12.95 401.6 13.55 396.45 14.05 394.45 16.05 378.45 18.25 375.9 19.7 374.85 21.55 374.45 22.05 374.45 23.05 372.45 22.9 370.1 26.05 367.95 28.05 366.95 30.2 365.5 32.0 364.95 47.5 348.45 48.0 347.45 48.0 345.25 48.85 343.5 51.85 341.45 52.5 340.45 54.25 339.2 55.5 337.5 56.35 335.6 57.5 331.45 57.5 327.95 58.5 325.45 58.5 324.45 59.0 323.95 59.0 321.45 60.5 319.95 60.5 318.95 62.0 318.45 63.0 316.45 63.5 312.95 64.0 311.95 66.0 309.95 66.5 308.95 66.5 306.95 67.0 306.45 68.85 301.85 70.05 301.3 70.5 297.45 74.0 292.95 74.0 292.45 78.0 289.95 79.35 288.5 85.0 287.45 89.0 285.45 89.85 284.65 91.0 284.95 92.0 284.95 92.5 284.45 92.5 283.45 94.0 281.95 97.5 279.95 94.45 279.25 93.5 278.45 93.5 276.45 94.0 275.95 97.0 275.45 98.5 273.95 99.75 273.6 102.0 273.95 102.0 273.1 104.75 273.65 107.75 270.75 108.5 268.45 111.0 265.95 113.5 262.45 113.5 260.95 114.5 259.95 115.5 259.45 116.5 257.45 118.2 257.0 119.5 254.95 119.5 252.95 123.5 248.95 124.0 247.45 125.5 245.95 124.7 244.0 125.35 243.1 126.0 243.45 126.5 242.95 126.5 242.45 126.0 241.95 126.0 240.45 126.5 239.95 127.0 233.45 128.0 232.45 131.5 232.45 132.0 231.95 134.25 232.05 134.5 229.95 137.25 229.45 138.0 227.95 138.0 223.95 139.5 220.45 140.0 215.95 141.5 214.45 142.5 213.95 142.5 212.95 141.5 211.45 142.0 209.95 142.5 209.45 142.5 207.95 142.0 207.45 140.0 202.45 138.5 196.45 138.2 193.25 138.75 189.1 139.5 186.95 139.5 186.45 140.0 185.95 140.75 183.75 141.2 182.95 141.0 180.95 139.5 179.45 139.0 178.25 138.0 177.75 138.0 175.95 137.5 175.45 137.25 174.1 137.9 171.3 137.0 168.45 136.0 167.45 132.0 160.95 130.35 150.6 130.7 146.25 130.2 141.5 130.5 138.95 131.0 137.95 131.0 132.45 129.0 126.45 127.8 125.15 128.3 124.2 128.0 123.45 127.5 122.95 127.5 122.45 127.0 122.45 127.0 122.95 125.5 123.45 125.0 123.45 123.5 121.95 123.0 120.45 124.0 119.45 125.0 118.95 126.35 118.85 127.0 117.95 127.05 117.05 128.0 115.95 128.0 114.95 127.5 114.45 127.5 112.95 128.5 112.95 129.5 111.95 129.5 108.45 129.0 107.45 129.0 102.95 130.5 98.95 131.0 94.95 134.0 86.05 133.6 82.65 130.0 81.45 129.75 79.25 126.0 75.95 125.0 58.95 119.5 48.95 119.5 47.95 117.0 40.85 116.1 33.6 117.0 26.95 116.45 25.0 117.5 21.95 120.5 18.95 128.5 14.45 129.5 14.45 130.5 13.95 132.0 12.45 135.0 11.45 137.0 9.45 150.5 6.65 161.9 5.5 175.5 5.45 179.5 6.45 181.0 8.45 181.5 8.45 208.7 21.1 204.85 29.75 230.7 41.35 236.45 28.65 227.2 24.45 228.2 22.2 237.3 26.35 242.95 14.45 263.7 23.05 267.85 13.65 228.1 -3.5 229.25 -6.05 247.85 2.2 259.95 -25.0 262.45 -24.0 262.95 -25.1 231.45 -39.0 230.95 -40.0 230.95 -42.5 231.45 -44.5 230.45 -46.0 229.95 -47.0 230.45 -50.0 231.45 -52.0 231.95 -52.5 234.45 -60.5 234.45 -61.5 235.45 -63.5 237.45 -66.0 240.95 -73.0 242.95 -75.0 248.45 -77.5 249.45 -77.5 263.95 -90.5 264.95 -91.0 266.45 -91.0 269.45 -92.0 274.95 -92.5 279.45 -91.5 309.15 -93.95 314.25 -95.3 327.95 -95.5 332.45 -93.0 333.95 -91.5 340.95 -89.5 358.9 -79.0 362.9 -75.0 363.4 -75.0 374.4 -64.5 374.9 -63.0 378.9 -58.5 379.4 -54.5 383.4 -46.5 388.9 -40.5 390.75 -30.75 390.9 68.95 391.9 72.45 392.9 90.95 394.9 95.95 394.9 96.95 395.9 98.95 399.4 102.45 399.4 102.55 402.4 102.45 403.4 101.95 404.4 100.95 406.5 97.1 406.4 66.45 406.9 65.95 406.9 65.45 407.4 63.45 407.4 57.45 405.9 57.45 405.9 -38.5 407.9 -38.5 408.9 -39.5 410.9 -61.5 411.9 -63.5 411.9 -69.0 412.4 -70.5 412.4 -72.5 417.4 -84.0 417.45 -84.0 417.75 -88.5 417.2 -91.1 417.4 -94.0 418.9 -96.5 418.4 -108.5 416.9 -111.0 416.4 -113.0 415.4 -114.0 413.9 -114.5 390.9 -114.5 390.4 -114.0 388.9 -114.0 386.4 -115.0 371.6 -114.35 369.9 -113.0 316.95 -112.0 310.95 -109.5 278.6 -108.35 248.45 -109.0 247.95 -108.5 247.45 -108.5 245.95 -109.0 234.45 -109.0 232.95 -106.5 232.45 -104.5 232.45 -102.5 230.45 -100.0 229.45 -98.0 229.45 -89.0 228.95 -87.5 228.95 -81.0 229.95 -78.5 229.95 -76.5 227.45 -73.0 223.95 -71.0 222.95 -69.5 222.95 -66.0 222.45 -64.5 222.45 -62.5 219.95 -59.5 219.95 -58.5 218.45 -56.5 218.35 -54.6 213.45 -49.5 210.95 -47.5 197.95 -46.5 195.95 -44.0 190.95 -22.5 189.0 -20.5 178.0 -16.0 158.9 -15.2 144.1 -11.95 141.6 -12.9 132.0 -10.5 128.0 -8.5 123.0 -12.0 122.0 -14.0 116.5 -14.0 116.5 -16.5 117.5 -18.0 119.0 -18.0 119.0 -19.0 118.0 -19.5 117.5 -19.5 117.0 -20.0 117.5 -22.0 117.0 -24.35 114.0 -29.6 112.6 -28.05 110.8 -28.8 107.6 -33.6 105.5 -33.5 103.5 -32.5 102.0 -33.0 101.0 -34.5 97.0 -36.45 96.85 -35.1 95.5 -34.35 94.85 -35.35 94.0 -35.0 93.5 -32.5 92.0 -32.5 90.0 -34.5 90.0 -35.5 91.7 -37.5 93.5 -37.65 93.0 -39.0 93.0 -43.0 91.0 -45.5 90.0 -47.5 90.0 -49.5 88.5 -49.5 87.0 -52.0 82.25 -53.85 75.5 -57.5 75.5 -59.0 72.5 -60.0 71.5 -60.0 70.5 -63.5 68.0 -67.0 66.6 -67.1 65.0 -67.0 61.75 -64.25 60.5 -63.6 57.6 -64.0 50.0 -72.0 47.5 -74.0 47.1 -75.35 43.5 -78.5 41.1 -83.0 39.8 -83.25 38.95 -84.35 40.0 -85.5 36.25 -100.9 33.5 -102.35 33.45 -104.75 35.75 -105.75 35.35 -109.35 35.7 -111.15 34.55 -113.9 35.0 -115.85 34.95 -116.7 33.5 -116.5 33.5 -115.0 32.5 -113.5 31.55 -114.35 32.0 -115.85 32.5 -116.0 33.25 -116.05 32.85 -117.2 33.55 -118.2 35.0 -118.5 35.6 -117.6 36.0 -118.5 36.0 -121.5 34.5 -127.0 30.05 -130.5 28.7 -133.25 27.2 -140.6 27.55 -144.5 29.55 -149.0 28.55 -149.5 29.55 -150.0 30.05 -150.0 30.55 -150.5 30.55 -151.5 29.55 -151.5 29.55 -152.5 31.5 -152.5 38.5 -158.0 42.5 -162.0 45.35 -162.6 48.9 -167.45 49.0 -169.0 49.5 -169.5 51.0 -170.0 56.0 -175.5 63.5 -179.5 67.5 -179.5 80.85 -189.85 86.5 -192.0 88.0 -193.5 89.0 -194.0 96.5 -193.5 99.8 -191.8 101.0 -193.85 105.0 -193.85 109.0 -189.0 118.5 -189.0 122.85 -190.1 123.75 -192.85 125.35 -194.85 127.85 -194.0 128.5 -191.1 130.0 -191.0 131.0 -190.5 132.5 -190.5 136.0 -191.5 139.0 -189.5 141.85 -190.0 143.75 -190.1 146.1 -191.35 147.2 -189.75 145.5 -187.5 146.0 -186.5 146.5 -186.5 148.0 -187.5 149.5 -189.5 150.0 -192.0 149.25 -192.6 150.0 -193.5 150.0 -196.0 149.5 -197.0 149.5 -198.0 151.0 -199.5 157.3 -214.75 158.75 -232.85 156.85 -240.0 157.5 -241.2 157.5 -244.0 156.5 -245.2 153.5 -246.0 152.85 -244.25 149.6 -242.1 145.6 -242.2 144.75 -245.05 140.2 -244.55 140.2 -244.0 139.85 -242.5 138.25 -242.2 132.85 -241.75 130.5 -241.95 128.6 -242.35 128.0 -243.25 127.85 -246.1 128.7 -248.15 126.0 -249.5 123.5 -252.0 121.0 -257.5 121.0 -265.5 119.0 -271.5 110.45 -285.1 109.5 -292.5 110.5 -298.0 110.0 -305.5 115.75 -310.25 121.35 -312.25 122.5 -314.5 122.7 -317.0 123.5 -319.25 129.5 -323.5 132.55 -323.85 135.6 -325.7 138.4 -324.85 139.3 -323.85 154.05 -319.1 170.5 -317.5 175.5 -320.0 177.5 -322.0 178.3 -323.6 179.6 -325.3 180.5 -330.0 181.0 -337.5 177.9 -343.7 176.0 -351.0 176.0 -355.5 171.5 -363.5 168.25 -367.1 162.0 -368.5 157.25 -373.7 154.0 -374.5 151.5 -374.5 148.0 -373.5 143.5 -371.0 141.5 -370.5 139.5 -370.5 137.5 -373.0 126.2 -373.7 124.3 -375.25 123.5 -375.5 123.5 -376.5 122.5 -378.0 116.5 -381.5 114.9 -383.3 113.5 -387.0 113.5 -388.5 112.5 -391.0 112.5 -394.0 109.5 -394.0 98.0 -390.5 90.5 -391.0 87.5 -392.5 84.6 -394.45 73.8 -380.1 78.15 -376.0 71.75 -367.5 67.45 -370.4 64.5 -367.15 61.05 -369.45 82.15 -398.2 44.65 -438.0 30.5 -454.0 13.6 -465.75 0.9 -470.25 -28.9 -477.7 -45.9 -478.5 -58.4 -476.0 -68.9 -470.5 -80.2 -458.6 -85.4 -455.5 -90.6 -454.2 -103.4 -454.5 -112.25 -447.05 -120.35 -445.6 -124.4 -446.5 -139.85 -444.5 -146.85 -447.5 -156.85 -446.35 -160.85 -444.6 -164.85 -441.5 -168.85 -436.0 -170.6 -431.5 -180.85 -420.7 -183.85 -414.0 -185.35 -411.5 -189.85 -409.0 -192.35 -406.5 -195.85 -405.0 -196.85 -404.0 -199.85 -404.0 -201.35 -402.45 -206.1 -401.85 -207.35 -401.0 -209.35 -401.5 -216.35 -405.5 -217.85 -407.0 -221.35 -413.0 -222.35 -414.0 -222.35 -416.5 -220.85 -419.5 -220.85 -421.0 -218.85 -426.5 -219.1 -430.85 -220.2 -434.75 -219.95 -436.55 -221.7 -437.25 -220.7 -441.6 -219.35 -441.1 -218.75 -445.6 -219.05 -454.35 -220.1 -456.2 -219.1 -457.3 -219.25 -461.95 -220.75 -462.1 -223.3 -461.5 -224.65 -462.45 -223.25 -465.05 -221.45 -466.2 -219.35 -465.5 -220.35 -468.0 -222.85 -470.5 -227.7 -473.2 -233.35 -486.0 -233.35 -487.45 -234.75 -489.0 -235.35 -496.5 -237.35 -501.0 -238.85 -503.0 -241.85 -510.5 -243.85 -512.5 -246.0 -516.25 -248.2 -524.35 -249.85 -527.2 -254.85 -543.0 -267.35 -557.5 -268.85 -558.0 -271.75 -556.6 -281.35 -555.5 -283.35 -555.0 -294.3 -549.5 -303.35 -541.2 -309.3 -531.0 -324.3 -523.0 -326.8 -521.0 -328.3 -517.0 -331.3 -514.0 -331.3 -513.5 -332.3 -512.0 -333.8 -511.0 -334.8 -511.0 -339.3 -508.0 -343.3 -508.0 -345.8 -507.0 -348.3 -507.5 -349.8 -509.0 -352.3 -514.0 -352.3 -517.5 -353.3 -518.5 -355.8 -524.5 -356.3 -525.0 -356.3 -527.0 -358.8 -528.5 -358.8 -529.5 -361.3 -532.0 -368.6 -535.1 -370.3 -537.0 -376.3 -549.0 -378.75 -550.7 -380.85 -551.25 -383.1 -550.85 -411.3 -536.0 -412.3 -536.0 -414.8 -534.5 -417.8 -534.5 -420.8 -531.5 -422.8 -531.0 -424.3 -532.0 -430.3 -532.0 -439.8 -527.0 -450.25 -527.0 -455.75 -524.0 -466.25 -522.5 -473.25 -518.0 -477.75 -516.5 -480.25 -514.0 -489.25 -508.5 -496.25 -508.5 -498.75 -508.0 -500.25 -509.0 -509.75 -510.5 -510.25 -510.0 -518.25 -507.5 -524.75 -503.5 -527.75 -503.5 -530.25 -502.0 -538.75 -492.5 -541.75 -492.0 -543.25 -490.5 -543.25 -490.0 -547.25 -487.5 -551.25 -487.5 -552.75 -488.5 -556.25 -488.5 -560.45 -487.25 -562.25 -485.5 -564.25 -485.5 -568.25 -484.0 -572.75 -480.5 -579.25 -478.0 -582.25 -475.45 -583.3 -469.35 -586.75 -465.0 -590.45 -462.1 -593.35 -453.75 -594.85 -452.2 -599.85 -449.7 -602.25 -450.0 -607.5 -449.85 -621.2 -442.5 -623.35 -442.25 -627.7 -438.9 -630.75 -438.3 -633.2 -436.25 -637.3 -434.65 -638.2 -432.7 -641.0 -430.6 -645.1 -429.6 -647.6 -426.75 -648.85 -426.6 -652.2 -423.25 -656.45 -421.25 -658.2 -418.5 -660.65 -417.2 -663.7 -414.0 -667.2 -412.5 -670.6 -412.35 -672.85 -410.75 -676.2 -409.5 -678.2 -407.5 -683.7 -405.5 -690.1 -401.0 -690.7 -399.0 -693.2 -397.5 -698.2 -397.0 -703.65 -395.0 -710.0 -389.45 -713.75 -387.2 -720.5 -380.9 -725.3 -378.7 -736.25 -369.7 -737.75 -365.7 -742.7 -360.5 -745.2 -359.5 -748.7 -356.65 -757.25 -353.0 -759.2 -351.5 -763.0 -351.1 -773.45 -353.0 -779.75 -361.35 -779.75 -363.1 -779.15 -364.5 -779.25 -367.05 -783.65 -372.0 -790.25 -373.05 -795.0 -371.5 -803.3 -366.05 -808.5 -364.85 -810.0 -363.5 -813.85 -361.35 -818.15 -362.0 -828.25 -359.9 -833.9 -355.1 -838.4 -352.6 -845.15 -353.0 -854.65 -358.0 -860.65 -364.0 -860.65 -365.0 -867.85 -374.45 -872.05 -386.5 -875.3 -392.75 -877.15 -401.0 -877.05 -409.85 -878.65 -416.0 -876.65 -417.5 -876.9 -420.7 -879.9 -428.85 -881.35 -447.6 -880.55 -452.65 -882.35 -464.7 -879.95 -468.1 -879.95 -472.35 -879.0 -475.2 -879.85 -477.85 -876.75 -483.25 -876.85 -484.85 -875.15 -487.5 -875.0 -491.25 -871.65 -494.5 -870.65 -494.5 -869.15 -495.0 -867.85 -496.25 -865.15 -497.0 -863.65 -497.0 -860.15 -499.5 -860.0 -504.7 -859.5 -505.4 -858.1 -505.65 -855.15 -508.5 -852.15 -508.5 -850.65 -509.0 -843.15 -518.0 -837.65 -518.0 -831.75 -521.35 -828.1 -525.2 -823.65 -526.5 -812.15 -526.0 -809.65 -527.0 -808.15 -527.0 -801.65 -528.5 -800.65 -528.5 -799.15 -530.5 -796.65 -532.0 -790.95 -530.25 -789.95 -529.5 -788.15 -529.5 -787.65 -530.0 -786.15 -530.0 -784.15 -528.0 -779.15 -526.5 -777.15 -526.5 -767.7 -528.75 -765.15 -530.0 -758.7 -529.5 -758.2 -529.0 -750.2 -529.0 -738.7 -522.5 -730.7 -527.5 -721.7 -532.0 -703.7 -534.5 -701.2 -535.5 -697.2 -540.75 -687.2 -546.0 -683.7 -546.0 -681.2 -547.0 -677.7 -550.5 -674.7 -551.5 -673.2 -553.0 -672.2 -553.5 -669.2 -552.5 -662.6 -559.1 -662.85 -561.95 -661.25 -563.65 -655.1 -566.25 -650.25 -571.75 -646.2 -574.0 -645.2 -575.0 -641.7 -577.0 -636.5 -583.1 -630.2 -592.25 -628.75 -593.05 -626.2 -596.0 -625.7 -597.0 -625.7 -598.0 -626.2 -598.5 -626.2 -600.5 -625.7 -601.0 -625.0 -607.7 -618.7 -616.75 -613.85 -619.25 -613.0 -623.25 -610.7 -626.85 -608.2 -627.5 -603.25 -633.0 -603.0 -635.85 -601.25 -636.35 -600.75 -640.85 -597.25 -649.25 -596.1 -660.85 -593.75 -664.7 -592.7 -670.35 -576.25 -690.95 -576.25 -692.95 -573.75 -695.45 -573.75 -695.95 -572.75 -696.95 -572.25 -698.45 -568.75 -701.95 -568.75 -703.45 -569.05 -704.1 -569.25 -705.45 -570.5 -709.2 -569.75 -711.95 -568.25 -713.45 -569.25 -720.45 -569.25 -729.95 -569.75 -731.45 -570.1 -735.25 -569.5 -736.95 -570.25 -738.95 -568.95 -739.95 -565.25 -740.45 -562.25 -743.45 -559.75 -744.45 -549.75 -753.95 -544.25 -756.95 -539.75 -761.95 -538.25 -762.95 -536.05 -769.1 -534.75 -780.95 -533.75 -782.95 -533.75 -785.95 -533.25 -787.45 -533.5 -789.7 -532.75 -795.2 -532.75 -803.45 -533.25 -807.25 -532.5 -809.75 -526.0 -819.95 -523.25 -822.45 -521.85 -826.2 -522.45 -827.3 -520.75 -828.95 -520.75 -830.95 -518.1 -841.75 -516.85 -844.85 -513.85 -848.3 -511.75 -855.95 -510.5 -857.75 -508.25 -858.95 -507.25 -858.95 -506.75 -858.45 -505.8 -858.65 -504.75 -860.45 -501.75 -860.45 -500.75 -859.95 -499.25 -860.45 -498.25 -860.45 -497.95 -861.35 -495.35 -860.85 -491.75 -861.45 -485.9 -864.3 -478.05 -865.3 -475.7 -865.35 -474.25 -865.95 -472.75 -867.45 -472.25 -867.45 -466.75 -873.95 -465.25 -874.45 -460.25 -874.45 -458.25 -875.95 -456.75 -876.45 -455.25 -876.45 -452.75 -877.45 -451.25 -877.45 -447.25 -879.45 -444.25 -882.45 -438.8 -884.45 -436.8 -884.45 -436.3 -883.95 -435.3 -883.95 -432.3 -884.95 -429.8 -884.95 -428.8 -883.95 -425.8 -883.95 -424.8 -884.45 -423.8 -884.45 -421.8 -882.45 -418.8 -881.95 -415.3 -879.95 -411.2 -879.35 -409.3 -878.45 -407.85 -879.0 -403.75 -876.6 -401.8 -876.45 -393.35 -873.7 -391.3 -874.45 -389.3 -874.45 -387.1 -873.75 -384.8 -871.95 -383.35 -869.0 -380.6 -867.6 -375.8 -866.45 -372.3 -864.45 -371.3 -864.45 -369.3 -863.45 -366.8 -860.45 -366.8 -858.95 -363.8 -855.45 -363.3 -852.45 -360.3 -850.45 -358.8 -850.45 -352.3 -848.45 -351.3 -847.45 -348.8 -846.95 -347.8 -847.45 -346.3 -847.45 -342.8 -844.45 -340.75 -842.1 -339.8 -842.45 -338.3 -842.45 -336.8 -841.95 -336.3 -839.95 -338.3 -836.95 -335.3 -831.95 -335.3 -830.45 -330.25 -822.6 -327.3 -816.95 -325.3 -811.45 -323.8 -809.95 -323.5 -808.75 -319.8 -805.45 -319.8 -803.95 -319.3 -801.95 -316.3 -798.95 -308.3 -799.95 -305.3 -801.45 -304.3 -801.45 -302.8 -800.95 -298.8 -800.95 -295.3 -798.95 -288.8 -791.95 -285.35 -790.95 -283.85 -790.95 -281.35 -789.95 -275.35 -789.45 -270.85 -785.45 -269.85 -785.45 -268.75 -783.2 -264.25 -778.6 -261.85 -778.45 -254.35 -774.45 -247.85 -772.45 -234.7 -762.85 -229.35 -760.95 -219.25 -761.0 -200.85 -763.95 -197.85 -761.45 -181.35 -753.45 -177.35 -753.45 -173.35 -751.45 -162.2 -751.75 -158.85 -750.45 -154.85 -746.35 -149.35 -745.95 -145.35 -742.45 -138.35 -741.45 -133.85 -743.95 -132.85 -743.95 -128.85 -746.95 -119.9 -747.95 -116.4 -749.45 -109.4 -749.95 -105.4 -751.45 -98.4 -747.45 -87.9 -747.45 -84.4 -747.95 -80.9 -744.45 -77.9 -744.45 -71.9 -740.95 -68.4 -740.45 -65.4 -738.45 -62.4 -739.45 -60.5 -739.35 -51.4 -743.95 -46.6 -744.6 -45.4 -746.95 -43.9 -747.45 -40.4 -747.45 -39.9 -746.95 -26.75 -749.2 -18.9 -755.95 -16.4 -756.45 -14.4 -757.45 -7.6 -758.2 -4.2 -759.9 -1.9 -762.45 3.55 -775.95 2.05 -780.45 2.55 -783.95 -2.9 -796.45 -5.9 -808.45 -5.9 -813.45 -2.9 -822.95 4.05 -831.95 4.35 -837.45 6.05 -841.45 5.55 -844.95 5.55 -847.95 8.05 -852.95 12.55 -857.45 20.0 -861.25 25.55 -868.45 29.5 -869.5 34.2 -874.0 49.0 -882.45 54.5 -882.45 63.5 -883.95 68.0 -881.95 69.05 -882.05 75.0 -885.95 92.1 -888.25 99.0 -886.95 104.75 -881.3 110.35 -882.0 115.5 -880.95 117.6 -878.75 121.0 -872.95 123.45 -871.05 127.5 -870.45 129.5 -868.45 133.5 -866.95 143.5 -857.95 151.5 -851.95 155.0 -850.95 157.0 -850.95 163.5 -846.95 170.85 -832.9 176.05 -827.6 179.75 -821.45 184.5 -816.45 187.5 -806.45 187.5 -799.45 189.5 -794.5 197.2 -785.35 198.95 -781.45 199.1 -778.65 198.45 -775.45 196.45 -772.45 193.95 -772.45 193.95 -768.45 196.95 -767.45 202.45 -772.45 204.45 -773.45 207.95 -773.45 214.45 -771.45 220.45 -765.95 225.75 -755.85 227.45 -746.45 230.95 -745.95 232.45 -744.95 233.95 -744.95 244.45 -747.95 255.95 -747.95 262.5 -753.2 268.45 -756.45 280.45 -749.95 283.95 -749.95 290.35 -753.35 305.25 -754.6" fill="#282828" fill-rule="evenodd" stroke="none"/>
    <path d="M787.55 690.45 L784.45 686.85 779.55 683.4 775.0 681.25 769.25 688.4 765.8 693.65 764.85 698.45 766.2 703.1 768.15 706.75 774.5 711.15 778.9 712.15 783.25 711.65 787.3 709.95 790.75 707.0 791.6 704.15 791.6 700.0 790.9 695.6 787.55 690.45 M232.55 660.75 L232.85 666.9 231.0 670.9 225.35 677.05 221.0 680.3 224.35 683.4 Q226.75 684.65 230.45 686.1 L247.0 692.7 252.65 693.35 255.3 693.0 252.65 683.3 252.4 676.85 251.95 674.8 250.95 673.05 248.75 671.0 244.1 663.4 239.95 658.0 Q239.1 658.85 235.95 659.75 L232.55 660.75 M247.55 527.35 L242.5 531.45 238.4 536.65 230.95 551.4 221.8 573.2 216.2 590.1 208.75 604.95 199.9 615.1 197.5 619.2 195.55 625.65 194.75 633.55 195.25 642.45 196.75 645.85 201.6 650.0 208.75 652.45 228.0 656.35 231.15 656.15 236.05 654.7 240.15 651.9 243.55 648.25 246.8 642.95 250.15 635.95 252.15 630.75 252.9 623.2 250.35 612.65 246.3 603.95 245.45 600.1 245.45 596.2 253.05 579.2 264.05 560.2 270.7 552.8 261.25 542.6 253.8 530.45 251.85 524.9 247.55 527.35 M126.5 431.0 L98.7 421.9 92.1 420.65 84.95 420.4 79.85 422.0 75.9 424.8 72.85 428.55 70.4 434.45 68.6 441.65 65.7 456.45 63.85 475.4 64.1 484.75 65.15 494.75 65.45 508.95 64.9 534.5 65.7 570.95 67.7 577.1 69.85 581.7 72.95 585.25 76.2 587.65 79.8 588.1 85.1 587.35 90.3 585.4 106.55 576.05 111.05 574.55 119.4 573.75 125.2 571.95 132.85 568.95 139.6 568.1 146.75 569.25 153.3 572.85 159.3 579.1 172.15 594.4 180.05 604.65 184.55 608.9 189.45 610.45 194.2 610.0 199.5 607.95 204.8 602.2 211.75 588.25 217.35 571.45 226.65 549.3 234.35 534.1 239.05 528.1 244.8 523.4 250.5 520.15 249.2 512.8 248.35 504.85 248.6 498.5 251.0 486.95 254.1 479.65 258.25 471.85 214.15 442.55 203.85 436.9 196.65 433.6 188.55 431.55 163.05 430.5 152.35 431.05 144.8 432.1 134.0 431.85 126.5 431.0 M157.85 265.45 L156.65 263.75 152.95 275.3 156.4 272.25 163.25 268.9 160.75 268.05 157.85 265.45 M182.75 232.55 L175.95 234.05 Q172.9 235.7 169.8 237.3 L164.5 242.25 161.15 247.0 159.45 253.35 160.25 259.1 162.1 261.7 163.6 263.1 164.45 263.35 177.7 263.35 187.65 259.9 194.25 256.45 200.15 251.4 203.3 243.85 203.3 235.15 202.15 232.6 201.45 231.9 198.75 231.7 182.75 232.55 M227.45 69.25 L224.25 68.75 237.7 84.3 237.9 84.65 239.0 60.5 231.55 67.5 227.45 69.25 M253.9 43.4 L246.45 49.55 244.1 52.85 242.95 60.75 242.45 72.85 245.1 68.0 251.35 61.55 263.0 53.05 271.0 49.15 277.5 45.0 266.15 42.25 257.0 42.05 253.9 43.4 M-188.25 -642.85 L-186.6 -646.85 -191.9 -644.9 -189.25 -641.8 -188.8 -640.75 -188.25 -642.85 M644.95 344.6 L644.6 337.15 645.0 335.8 638.25 341.2 640.9 342.05 644.95 344.6 M638.95 333.45 L632.9 333.3 625.75 332.05 626.25 334.2 626.4 338.75 625.2 340.7 630.35 340.55 638.95 333.45 M695.4 267.2 L691.3 267.2 687.0 266.0 686.55 265.8 686.7 266.25 687.2 269.9 686.95 273.95 686.05 276.7 695.4 267.2 M609.65 436.2 L605.0 438.1 603.0 440.2 602.3 442.15 602.0 444.4 602.45 448.1 604.3 451.9 607.6 456.05 610.9 458.9 613.75 459.75 616.65 459.95 620.6 458.75 621.95 457.75 622.95 456.2 623.6 453.8 623.6 450.5 621.9 445.75 612.15 436.95 609.65 436.2 M305.8 505.2 L301.95 500.35 287.75 489.25 263.05 473.1 262.85 473.4 258.4 481.8 255.6 488.45 253.35 499.05 253.2 504.7 253.95 512.25 255.5 520.75 258.15 528.3 265.1 539.75 274.15 549.45 307.55 513.5 309.85 511.65 305.8 505.2 M510.05 370.6 L514.85 368.05 510.0 366.85 510.45 368.6 510.05 370.6 M563.3 261.45 L560.65 262.15 557.25 264.25 553.85 267.45 549.15 274.35 547.7 278.8 547.95 283.8 548.55 287.3 553.1 292.35 555.95 293.9 563.9 295.35 572.7 293.85 574.25 292.6 581.85 285.35 583.6 282.35 584.3 279.6 583.5 274.7 581.2 269.6 578.7 266.1 575.95 264.15 572.75 262.6 569.0 261.65 565.9 261.25 563.3 261.45 M457.95 -2.0 L451.3 -2.6 416.0 -2.6 416.0 51.1 416.25 52.4 417.8 54.75 422.1 57.05 425.3 57.55 428.55 57.2 431.1 56.4 433.15 54.8 441.7 45.4 444.55 44.5 450.1 43.85 459.05 43.7 460.3 43.2 461.4 42.05 462.35 40.6 462.4 40.5 462.15 25.95 463.0 1.45 461.15 -0.8 457.95 -2.0 M460.7 -43.75 L458.7 -50.9 456.2 -56.7 453.1 -62.25 449.3 -66.8 441.65 -70.9 437.5 -72.0 434.1 -72.0 430.3 -71.45 425.95 -68.7 422.7 -65.05 419.9 -58.75 418.35 -52.05 417.35 -43.7 460.7 -43.75 M464.1 -35.2 L462.1 -39.75 416.85 -39.7 416.0 -31.85 416.0 -6.6 451.25 -6.6 457.55 -7.3 460.2 -8.8 462.65 -11.1 463.4 -12.15 464.75 -18.45 464.1 -35.2 M487.65 -40.45 L482.1 -40.25 475.45 -41.55 470.3 -44.3 472.25 -33.85 472.25 -27.4 472.3 -27.5 475.05 -30.5 479.8 -34.6 487.65 -40.45 M464.65 -168.1 L460.05 -167.3 456.0 -164.65 451.35 -157.65 448.5 -150.45 448.75 -146.6 449.75 -141.0 452.9 -130.3 459.9 -111.7 461.6 -95.65 461.3 -78.35 462.1 -68.15 463.4 -59.65 464.0 -57.7 467.25 -52.85 471.85 -48.0 476.8 -45.35 482.4 -44.25 502.65 -45.0 509.65 -44.3 516.75 -42.65 520.6 -40.25 526.65 -31.65 528.45 -28.3 529.4 -25.8 531.45 -21.85 533.15 -17.25 534.0 -10.35 533.6 9.6 533.9 28.6 535.6 34.2 537.6 34.6 540.75 34.0 542.5 31.75 549.85 18.95 552.2 13.4 552.2 6.7 550.4 -0.8 549.95 -10.55 551.1 -17.0 554.6 -22.55 558.7 -26.45 562.65 -31.75 565.65 -36.65 567.0 -42.55 567.15 -49.05 566.05 -57.95 556.2 -74.3 541.6 -94.7 530.5 -108.45 506.2 -136.75 490.55 -155.8 483.3 -162.9 469.9 -167.45 464.65 -168.1 M471.15 -172.95 L474.75 -171.7 460.45 -185.3 460.35 -180.25 459.25 -172.85 464.5 -173.75 471.15 -172.95 M898.0 62.65 L893.95 56.6 889.85 51.75 886.05 49.45 881.3 48.55 876.7 48.2 869.9 49.5 865.3 52.15 861.9 56.2 858.95 63.25 858.4 69.2 858.55 71.2 860.2 77.4 861.7 79.0 868.7 82.7 871.55 83.65 878.1 84.75 884.9 84.4 891.5 82.95 895.2 79.85 896.85 76.9 898.35 69.05 898.0 62.65 M654.7 -35.9 L642.35 -41.1 636.15 -42.4 627.65 -43.15 605.85 -43.0 594.7 -39.2 562.4 -22.3 558.95 -19.0 556.45 -14.95 555.6 -10.2 555.95 -1.55 557.75 6.05 557.75 14.55 554.85 21.5 547.75 33.9 529.75 75.65 529.3 82.35 531.35 91.65 537.2 102.15 568.65 137.2 573.55 139.0 578.05 137.95 581.1 136.3 591.65 127.1 610.75 108.55 611.7 104.75 611.95 100.75 611.4 96.35 610.35 92.2 583.0 65.8 585.75 62.95 613.1 89.3 619.0 90.2 625.15 90.2 629.05 88.65 641.65 76.0 642.3 73.7 642.75 70.55 642.65 67.25 642.1 64.15 602.2 26.65 604.95 23.7 645.0 61.4 649.7 62.8 652.85 63.15 654.75 62.65 681.15 35.7 685.7 32.1 689.25 29.9 696.45 28.95 699.05 29.85 701.05 31.35 703.85 34.25 710.35 42.75 707.2 45.2 700.75 36.75 698.4 34.35 697.15 33.45 695.9 33.0 693.45 33.15 690.7 33.65 687.95 35.4 683.85 38.65 631.85 91.5 630.5 94.6 629.85 97.4 629.6 101.05 629.95 103.95 632.3 106.45 683.95 153.85 685.35 154.5 687.45 155.15 689.05 155.05 691.8 154.45 698.05 151.95 711.05 142.45 720.45 132.7 727.95 122.1 735.1 103.5 742.3 91.25 746.5 86.65 756.2 79.05 758.65 82.2 749.2 89.6 745.5 93.6 738.7 105.25 731.5 124.0 723.5 135.25 713.7 145.5 700.0 155.45 692.95 158.3 689.6 159.05 686.9 159.2 683.8 158.2 681.7 157.2 630.0 109.75 623.25 108.9 613.6 111.35 586.2 137.95 585.0 140.15 583.95 143.05 583.6 147.35 583.8 151.4 585.55 155.95 605.05 175.45 614.95 163.8 637.35 140.6 640.2 143.35 617.85 166.5 607.95 178.2 631.85 200.8 641.75 213.9 653.3 226.3 664.05 239.05 683.75 260.1 688.4 262.25 691.85 263.2 695.1 263.2 700.75 261.45 701.5 260.7 720.95 246.4 729.65 237.35 731.45 231.9 731.45 228.8 728.7 220.3 724.4 210.35 719.2 190.2 718.5 181.95 719.35 174.75 720.75 169.85 724.9 163.6 729.45 159.35 735.85 155.25 760.15 142.15 769.6 139.6 777.35 139.6 786.8 143.8 801.4 152.0 807.25 154.7 813.35 155.4 818.5 153.45 821.3 150.35 824.0 145.55 824.75 133.2 822.8 105.1 817.95 78.5 815.45 69.15 813.05 57.45 809.9 46.65 807.4 39.85 800.55 26.2 796.15 19.3 792.45 15.2 786.5 10.35 753.85 -4.4 744.6 -7.8 738.05 -11.35 719.3 -23.5 711.5 -27.05 704.25 -28.55 688.05 -29.6 676.1 -31.0 654.7 -35.9 M339.9 -533.65 L338.2 -533.1 349.5 -528.95 362.95 -526.2 365.45 -526.0 371.45 -526.8 373.95 -528.05 383.75 -535.4 362.0 -539.7 354.05 -539.85 351.6 -539.05 347.8 -536.95 339.9 -533.65 M454.15 -551.35 L449.2 -554.35 438.7 -558.05 435.15 -551.55 433.15 -549.7 410.4 -533.45 441.9 -524.15 447.45 -523.85 450.95 -524.45 452.85 -525.45 455.4 -528.2 456.45 -529.95 457.0 -531.4 457.15 -541.4 455.7 -548.8 454.85 -550.5 454.15 -551.35 M428.95 -565.9 L423.1 -574.4 414.3 -583.1 410.25 -585.15 404.1 -587.1 390.45 -589.2 361.3 -593.0 354.95 -594.85 340.85 -596.3 327.2 -599.05 320.45 -601.4 312.2 -605.9 314.1 -602.85 322.65 -581.65 325.95 -568.8 327.95 -556.25 328.4 -543.8 327.35 -537.15 329.3 -536.4 334.7 -536.2 346.15 -540.55 349.95 -542.75 353.35 -543.85 356.5 -544.0 362.6 -543.7 396.5 -536.75 404.7 -536.4 408.1 -536.7 430.7 -552.85 432.0 -554.0 435.25 -560.05 433.75 -561.2 428.95 -565.9 M461.6 -520.1 L460.45 -521.65 458.85 -525.4 458.75 -526.0 458.55 -525.75 455.35 -522.25 454.15 -521.6 461.6 -520.1 M310.6 -612.15 L322.4 -605.75 328.65 -603.6 341.6 -601.0 355.95 -599.55 362.5 -597.65 391.15 -593.95 405.2 -591.8 412.1 -589.6 417.0 -587.15 426.85 -577.45 432.6 -569.0 437.05 -564.7 439.2 -563.0 451.15 -558.8 457.4 -555.0 458.9 -553.05 460.25 -550.35 462.0 -541.75 461.75 -531.8 462.7 -526.55 463.95 -523.65 468.75 -517.85 472.25 -516.2 474.2 -513.65 474.95 -510.7 475.2 -506.85 474.1 -501.6 471.5 -493.3 468.35 -477.7 467.55 -470.65 467.4 -463.85 468.75 -450.2 464.8 -449.75 463.35 -463.7 463.6 -471.0 464.4 -478.35 467.65 -494.3 470.25 -502.75 471.15 -507.1 471.0 -510.05 470.55 -511.9 469.7 -512.95 Q467.05 -514.2 464.35 -515.5 L441.0 -520.25 412.75 -528.7 396.0 -532.8 390.15 -533.05 386.2 -532.25 376.15 -524.7 372.75 -523.0 368.95 -522.25 367.9 -522.15 380.25 -517.6 378.9 -513.85 356.45 -522.1 357.75 -520.85 361.55 -515.45 368.15 -508.2 372.35 -504.6 378.45 -500.95 381.4 -500.1 380.35 -496.25 376.9 -497.2 370.0 -501.35 365.3 -505.4 365.25 -505.45 367.5 -491.65 368.9 -487.7 371.2 -483.05 375.3 -476.3 380.55 -471.85 382.8 -470.95 387.85 -469.95 387.05 -466.0 381.65 -467.1 378.6 -468.35 375.0 -471.05 372.15 -473.8 367.65 -481.2 365.15 -486.25 363.65 -490.7 361.25 -505.35 358.25 -513.2 357.15 -515.0 354.7 -518.25 350.35 -522.5 345.0 -525.75 338.0 -528.95 328.55 -532.45 326.4 -532.55 321.3 -511.65 320.05 -493.55 320.75 -488.45 320.55 -469.35 316.5 -444.15 310.0 -424.55 306.5 -415.75 297.0 -395.8 293.9 -385.75 292.75 -378.55 293.15 -359.0 294.35 -348.9 297.05 -338.35 304.2 -316.1 308.7 -304.55 314.15 -294.7 324.0 -281.9 333.15 -273.9 345.05 -267.7 354.7 -263.45 376.5 -257.7 386.85 -252.95 404.4 -240.25 404.45 -240.25 433.75 -218.1 433.85 -218.05 455.25 -198.75 459.75 -193.55 476.15 -178.35 494.7 -159.6 510.5 -140.3 534.8 -112.0 546.15 -97.95 560.9 -77.3 571.0 -60.65 574.5 -57.0 578.7 -53.95 583.6 -51.2 591.95 -49.75 605.5 -48.6 627.9 -48.8 637.15 -47.9 644.0 -46.45 656.45 -41.25 677.05 -36.55 688.65 -35.15 705.0 -34.1 713.25 -32.4 722.0 -28.45 741.0 -16.1 746.95 -12.95 756.2 -9.5 763.95 -5.7 789.45 5.6 796.3 11.15 800.6 15.85 805.45 23.5 812.6 37.8 818.5 56.2 820.9 67.95 823.25 76.7 829.4 86.45 831.5 88.6 833.0 89.6 836.6 89.75 840.3 89.1 844.35 86.65 847.2 84.35 851.75 78.9 854.6 72.15 854.35 69.15 855.0 62.3 858.45 54.15 862.65 49.0 868.45 45.65 876.45 44.15 881.95 44.6 887.5 45.7 892.5 48.6 897.25 54.25 901.95 61.3 902.4 69.3 900.7 78.25 898.35 82.5 893.25 86.6 885.45 88.35 877.85 88.8 870.45 87.5 865.4 85.85 857.1 86.4 852.9 89.3 838.9 101.15 833.7 111.75 829.85 126.55 830.4 133.15 829.55 147.2 825.85 153.6 821.75 158.2 814.05 161.1 805.75 160.15 798.75 156.95 784.2 148.75 776.2 145.2 770.35 145.2 762.2 147.4 738.6 160.1 732.9 163.8 729.2 167.25 725.9 172.25 724.85 175.85 724.1 182.0 724.75 189.2 729.7 208.55 733.95 218.45 737.05 227.95 737.05 232.85 734.6 240.2 724.6 250.75 705.25 264.85 681.1 289.6 656.2 325.2 651.0 335.25 650.2 338.0 650.55 344.25 652.05 349.35 660.85 360.15 669.85 376.0 675.6 391.4 680.7 411.05 685.25 434.6 688.55 455.3 690.6 477.9 690.35 485.5 689.3 494.1 687.7 502.65 683.6 536.7 683.95 548.4 684.75 556.2 686.5 563.7 687.9 566.5 690.4 568.2 695.15 569.5 701.5 568.5 727.75 556.2 731.75 555.2 737.25 554.95 742.95 557.2 747.3 561.55 750.85 569.1 759.25 594.5 768.9 612.5 770.9 617.35 773.45 628.7 772.75 663.45 774.45 670.55 776.55 675.8 782.4 678.55 788.3 682.7 792.0 687.1 796.25 693.55 797.2 699.55 797.2 705.0 795.6 710.15 790.25 714.8 784.7 717.1 778.65 717.8 772.25 716.4 763.8 710.4 760.95 705.25 759.1 698.7 760.55 691.5 764.8 685.05 771.05 677.2 769.1 672.2 767.2 664.1 767.85 629.1 765.6 619.15 763.85 614.95 754.05 596.65 745.55 571.0 742.65 564.8 739.8 561.95 736.3 560.6 732.6 560.75 729.45 561.55 725.9 562.95 703.25 573.85 694.8 575.25 687.95 573.35 683.5 570.25 681.2 565.6 679.2 557.1 678.4 548.65 677.95 536.45 682.15 501.7 683.8 493.15 684.8 484.95 684.95 478.05 683.0 455.9 679.75 435.55 675.35 412.75 655.35 402.75 646.45 397.65 639.5 395.15 636.3 394.95 633.6 395.5 632.3 397.25 630.95 399.9 631.65 408.5 634.35 415.9 634.8 424.25 633.45 432.3 634.05 437.55 631.4 443.35 626.95 445.6 628.35 449.7 628.35 454.4 628.3 454.7 627.45 457.8 625.7 460.75 625.45 461.15 622.8 463.1 617.2 464.8 612.85 464.5 608.55 463.2 604.1 459.4 600.2 454.45 597.8 449.45 597.15 444.35 597.65 441.0 598.8 437.65 602.15 434.1 609.5 431.2 614.5 432.6 624.4 441.5 627.75 439.8 629.1 436.8 628.6 432.2 629.95 424.0 629.6 416.85 626.95 409.55 626.05 398.95 628.2 394.7 630.85 391.15 635.95 390.15 640.45 390.4 648.45 393.25 657.7 398.55 673.8 406.6 670.25 392.95 664.75 378.35 656.2 363.25 647.75 352.95 638.5 347.15 635.25 346.1 622.8 346.35 611.8 347.95 591.4 349.65 578.4 351.15 564.85 353.7 550.9 358.2 538.5 363.0 521.4 370.9 503.65 380.65 498.8 385.15 493.85 390.85 488.15 399.75 482.95 404.95 475.25 410.1 468.7 412.55 435.7 428.65 422.55 438.55 416.0 444.3 408.75 448.3 402.35 450.75 395.85 451.0 388.55 450.1 378.9 446.95 351.95 433.4 343.9 431.45 339.15 431.95 334.35 433.75 330.15 437.2 322.15 446.35 311.05 456.25 305.1 457.8 297.6 458.4 289.85 455.7 285.2 452.25 281.65 448.8 281.2 447.8 266.65 466.9 265.85 468.25 291.0 484.7 291.05 484.75 306.0 496.4 310.5 502.1 314.7 508.9 316.05 508.3 319.85 508.15 324.55 509.2 332.1 514.45 334.5 517.1 343.5 524.95 355.25 528.05 358.45 529.35 361.7 532.15 368.2 546.05 386.1 561.05 390.35 563.45 400.5 570.75 402.35 572.5 403.7 575.05 403.6 578.1 402.9 579.45 401.2 581.3 392.0 593.3 371.05 578.0 371.85 575.6 380.8 565.0 362.95 549.9 356.5 536.15 355.1 534.9 353.25 534.15 340.45 530.8 329.9 521.55 327.85 519.3 322.0 515.15 319.3 514.6 317.5 514.65 315.05 515.75 311.9 518.2 278.65 554.05 282.25 557.7 278.9 561.05 274.05 556.25 267.95 563.1 263.65 570.0 257.3 581.45 250.25 597.1 250.25 599.6 250.85 602.4 254.9 611.05 257.75 622.85 256.85 631.85 254.55 637.95 250.95 645.35 247.35 651.15 243.3 655.55 242.5 656.05 246.8 661.7 251.2 668.95 253.5 671.05 254.95 673.65 255.55 676.45 255.85 682.8 259.2 695.25 261.4 699.2 269.45 707.7 274.8 711.7 280.85 717.25 283.1 721.2 280.3 722.75 278.3 719.25 272.7 714.15 267.25 710.05 258.8 701.05 256.2 696.45 256.1 696.1 252.7 696.6 246.15 695.85 229.3 689.05 Q221.05 685.9 220.45 684.15 L217.6 681.55 217.85 678.6 223.2 674.7 228.35 669.05 229.7 666.25 229.7 664.35 229.35 661.05 227.7 661.2 207.35 657.05 199.15 654.25 192.8 648.75 190.55 643.65 190.0 633.2 190.8 624.7 193.1 617.25 194.55 614.8 188.9 615.35 182.05 613.15 176.45 607.85 168.4 597.35 155.65 582.25 150.35 576.7 145.2 573.9 139.55 572.95 134.05 573.65 126.65 576.55 120.25 578.5 112.1 579.25 108.6 580.45 92.35 589.75 86.3 592.05 79.85 592.95 74.4 592.3 69.65 588.8 65.8 584.35 63.2 578.85 60.9 571.7 60.9 559.85 60.1 534.55 60.65 508.9 60.4 494.95 59.3 485.0 59.05 475.2 60.95 455.75 63.9 440.6 65.8 432.95 68.7 426.05 72.6 421.25 77.7 417.65 84.3 415.55 92.65 415.85 100.05 417.3 127.55 426.3 134.4 427.05 144.5 427.3 152.0 426.25 163.0 425.7 189.25 426.8 198.25 429.05 206.05 432.65 216.75 438.5 260.65 467.7 262.7 464.15 279.1 442.6 277.4 433.95 275.55 413.65 275.2 385.95 270.1 362.35 273.75 316.25 273.4 309.65 270.95 303.55 265.35 298.85 259.95 296.65 252.4 295.7 248.5 296.1 245.4 298.7 241.05 304.15 226.2 324.75 215.8 333.25 205.05 336.8 184.8 338.95 175.5 338.95 161.0 337.55 154.75 336.05 147.1 331.2 143.05 323.1 139.85 312.85 139.85 303.2 143.15 285.9 143.3 285.75 150.3 265.95 156.0 244.55 160.25 238.55 166.5 232.7 174.0 228.7 182.0 227.0 197.75 226.15 206.5 219.4 209.9 212.1 212.1 208.6 215.1 205.05 231.8 187.8 233.65 185.1 236.4 176.2 237.6 167.35 239.4 125.1 239.7 108.2 237.05 98.45 236.65 92.65 236.85 91.55 235.7 88.6 234.45 86.65 208.15 56.05 211.2 53.5 220.25 64.1 226.9 65.1 229.4 64.05 236.1 57.7 243.5 46.8 251.85 39.95 256.15 38.1 266.8 38.3 278.2 41.05 284.35 40.65 285.35 40.0 287.95 38.95 291.65 35.5 292.9 32.75 293.15 24.85 292.4 21.2 291.25 18.5 282.5 11.25 278.3 8.45 274.6 4.85 271.3 0.75 268.85 -4.9 266.95 -18.2 266.9 -24.85 266.7 -26.65 266.05 -27.75 265.35 -28.5 263.9 -29.35 257.75 -31.55 259.65 -36.8 266.3 -34.45 268.9 -32.9 270.55 -31.15 272.15 -28.5 273.05 -13.8 274.3 -6.5 276.15 -2.1 278.75 1.1 281.85 4.1 284.0 5.5 282.45 1.85 281.7 -2.8 281.5 -8.2 285.45 -8.35 285.65 -3.1 286.3 0.7 288.0 4.75 294.1 13.55 294.1 13.6 295.9 15.05 297.75 19.55 298.7 24.15 298.9 28.45 298.45 34.2 296.3 38.85 291.0 43.8 287.9 45.0 273.75 54.0 265.95 57.9 255.0 65.8 249.65 71.35 246.3 77.55 243.8 83.45 242.3 92.9 242.6 97.5 245.3 107.5 244.95 125.3 243.15 167.8 241.95 177.35 238.7 187.65 236.15 191.35 219.1 208.95 216.65 211.9 214.85 214.8 211.45 222.1 208.9 234.8 208.9 244.95 204.8 254.75 197.4 261.1 Q193.65 263.1 189.85 265.05 L167.65 272.95 159.55 276.9 154.75 281.15 148.4 288.45 145.45 303.7 145.45 312.0 148.25 321.0 151.4 327.3 156.95 330.85 161.9 332.0 175.9 333.35 184.65 333.35 203.85 331.3 213.05 328.25 222.15 320.85 236.65 300.7 241.9 294.15 246.95 290.65 251.55 289.95 261.35 291.15 268.25 294.0 275.65 300.15 278.95 308.45 279.35 316.35 275.75 362.0 278.6 373.95 280.8 385.4 281.15 413.35 282.95 433.3 284.65 441.9 286.3 445.55 288.8 448.0 292.5 450.65 298.35 452.75 304.15 452.25 308.35 451.15 318.2 442.4 326.2 433.15 331.5 428.85 337.85 426.4 344.3 425.8 353.9 428.15 381.05 441.8 389.8 444.65 396.1 445.35 401.2 445.2 406.4 443.25 412.75 439.65 419.1 434.1 432.75 423.85 466.45 407.4 472.7 405.05 479.4 400.6 483.8 396.2 489.3 387.5 494.9 381.1 500.3 376.1 505.3 373.2 506.35 368.7 505.85 366.8 504.75 365.2 498.9 363.0 479.65 351.75 471.65 346.15 467.5 344.75 462.45 344.0 459.15 344.65 453.3 347.15 439.05 360.25 429.1 366.45 415.3 373.05 413.6 369.45 427.3 362.9 436.6 357.05 451.15 343.75 457.95 340.8 462.3 339.95 468.45 340.8 473.5 342.6 481.9 348.45 500.65 359.35 508.75 362.45 515.95 364.2 525.0 363.2 525.4 363.05 536.4 357.85 549.1 352.9 563.5 348.25 577.65 345.6 590.9 344.05 615.5 341.8 619.9 338.65 620.75 337.2 620.7 334.95 620.15 332.75 618.9 331.5 614.95 329.65 604.5 327.9 591.7 324.65 585.3 321.8 578.65 317.55 574.05 311.9 568.9 304.15 567.65 301.35 563.65 301.8 553.8 300.05 549.05 297.4 542.6 290.25 541.6 284.55 541.25 277.95 543.35 271.5 548.9 263.3 553.3 259.1 558.1 256.2 562.25 255.1 566.05 254.85 570.15 255.3 575.0 256.55 579.2 258.6 583.25 261.45 586.75 266.35 589.65 272.85 590.85 279.95 589.55 284.8 586.9 289.4 575.65 299.7 573.3 300.25 573.85 301.4 578.65 308.7 582.4 313.3 587.95 316.85 593.55 319.3 605.75 322.45 616.6 324.3 616.65 324.3 629.3 327.1 641.25 327.85 647.35 325.9 651.65 321.95 676.85 285.95 678.3 284.5 681.9 276.65 683.0 273.2 683.15 270.05 682.85 267.3 680.9 262.9 661.05 241.65 650.3 228.9 638.6 216.45 628.9 203.55 603.75 179.8 580.5 156.5 566.75 141.3 566.5 140.8 533.95 104.5 527.55 93.1 525.3 82.65 526.15 69.8 528.5 53.1 529.3 44.5 529.95 24.8 529.55 9.55 530.0 -10.25 529.2 -16.3 527.75 -20.35 525.7 -24.25 524.75 -26.75 523.3 -29.5 517.75 -37.3 515.2 -38.9 508.85 -40.4 502.5 -40.95 495.95 -40.8 490.05 -37.25 482.2 -31.4 477.75 -27.55 472.85 -21.45 471.5 -19.25 469.75 -11.4 468.6 26.0 468.75 41.0 467.35 52.15 467.05 58.5 466.35 63.5 464.75 88.5 464.35 104.0 463.05 110.6 456.55 123.15 446.95 132.1 442.15 135.2 428.2 137.4 408.3 137.15 399.0 136.35 389.05 134.35 385.6 132.65 379.4 127.1 375.95 122.6 370.95 114.35 362.55 90.5 356.05 81.6 351.2 76.85 341.8 66.0 339.55 62.2 338.45 58.75 337.45 52.9 337.2 35.0 334.4 26.4 332.1 22.25 327.3 17.3 322.8 10.05 316.25 -3.15 313.1 -7.85 311.75 -12.4 313.05 -21.05 316.3 -25.85 334.5 -38.0 337.95 -32.6 320.95 -21.3 319.15 -18.65 318.3 -12.85 318.95 -10.6 321.8 -6.35 328.4 7.0 332.35 13.3 337.3 18.4 340.2 23.7 343.55 34.0 343.85 52.35 344.7 57.2 345.45 59.6 346.95 62.2 356.05 72.65 360.9 77.35 368.3 87.65 376.85 111.7 381.2 118.95 384.15 122.75 389.15 127.3 391.3 128.3 393.4 128.85 400.0 130.0 408.75 130.8 427.75 130.95 439.8 129.15 443.0 127.05 451.4 119.2 456.9 108.55 458.0 103.2 458.4 88.15 460.0 62.75 460.9 53.2 460.5 51.4 459.95 50.45 458.5 49.35 455.75 47.85 450.2 47.85 445.4 48.45 443.85 48.95 435.7 57.85 433.05 59.95 429.4 61.15 425.25 61.6 420.85 60.9 415.0 57.8 412.5 53.95 412.0 51.5 412.0 -32.2 414.45 -52.8 416.05 -60.0 419.25 -67.3 423.35 -71.8 428.85 -75.3 434.0 -76.0 438.05 -76.0 443.1 -74.65 451.85 -69.95 456.45 -64.5 457.2 -63.1 455.7 -78.15 455.95 -95.5 454.45 -110.35 447.55 -128.65 444.3 -139.75 443.2 -146.05 442.85 -151.2 446.45 -160.4 453.15 -170.8 454.8 -180.75 454.95 -190.5 451.3 -194.8 430.2 -213.85 401.25 -235.65 391.95 -241.05 384.05 -244.05 373.15 -245.95 352.35 -243.05 330.05 -234.8 321.05 -230.35 303.15 -217.4 294.8 -213.0 287.25 -211.8 280.1 -211.9 277.45 -212.85 272.9 -215.05 267.35 -218.65 258.0 -228.6 256.15 -230.05 253.95 -230.95 248.6 -232.5 250.15 -237.85 255.95 -236.2 259.0 -234.9 261.75 -232.75 271.0 -222.9 275.65 -219.9 279.75 -217.95 281.25 -217.45 286.95 -217.4 292.95 -218.35 295.35 -219.5 305.05 -225.45 318.1 -235.2 328.05 -240.0 349.55 -247.95 350.7 -248.85 351.6 -250.35 352.35 -254.05 352.0 -257.6 351.45 -258.75 342.55 -262.7 330.0 -269.25 319.95 -278.05 309.4 -291.65 303.65 -302.2 298.9 -314.35 291.65 -336.85 288.8 -347.85 287.6 -358.65 287.2 -379.0 288.45 -387.0 291.75 -397.75 301.4 -418.1 309.45 -439.9 311.05 -445.4 314.9 -469.55 315.2 -488.0 314.35 -494.25 314.75 -501.3 302.85 -482.25 293.6 -469.75 282.55 -453.85 270.25 -440.3 263.7 -429.5 260.65 -422.25 258.35 -413.5 256.1 -384.35 256.35 -380.0 257.55 -372.1 261.05 -354.75 262.25 -340.85 264.3 -328.1 264.25 -313.5 264.05 -311.05 262.35 -306.95 258.7 -301.4 257.55 -299.0 254.4 -295.15 252.15 -289.1 252.35 -283.95 251.75 -278.65 250.05 -271.9 246.3 -263.3 241.25 -265.85 244.7 -273.65 246.2 -279.7 246.75 -284.3 246.45 -289.75 249.55 -298.0 252.8 -302.0 253.8 -304.15 257.35 -309.55 258.55 -312.4 258.7 -327.9 256.65 -340.3 255.45 -354.1 252.0 -371.15 250.5 -384.4 252.8 -414.45 255.3 -424.1 258.65 -432.05 265.7 -443.65 278.2 -457.3 288.75 -472.6 298.2 -485.35 315.9 -513.25 321.65 -536.65 322.75 -544.15 322.4 -555.7 320.45 -567.8 317.3 -579.9 309.05 -600.3 302.35 -610.35 289.3 -619.65 267.25 -636.75 243.35 -652.95 226.35 -651.45 211.2 -654.35 198.05 -655.95 195.9 -656.0 196.0 -661.6 198.4 -661.55 211.5 -659.95 226.15 -657.05 236.45 -657.95 219.5 -670.3 207.85 -677.0 190.35 -685.95 185.0 -687.8 178.95 -688.75 169.7 -688.65 145.85 -686.2 137.75 -686.0 123.45 -684.75 118.05 -684.95 131.6 -674.65 160.35 -660.3 163.2 -659.35 164.35 -659.35 164.35 -653.75 162.35 -653.75 158.25 -655.1 128.6 -669.9 108.4 -685.2 94.6 -685.75 71.65 -684.2 53.4 -683.75 41.75 -684.0 21.5 -685.85 6.95 -686.65 -4.4 -686.65 -12.65 -685.35 -55.0 -674.1 -104.15 -673.9 -114.45 -672.4 -133.15 -667.7 -179.6 -651.0 -183.7 -641.35 -184.55 -638.15 -184.65 -634.1 -183.95 -631.05 -182.35 -627.9 -180.5 -625.45 -177.55 -623.85 -174.55 -623.2 -173.7 -622.9 -170.4 -622.75 -170.6 -618.0 -174.55 -618.1 -175.95 -618.6 -179.2 -619.3 -183.7 -621.7 -185.8 -624.55 -186.8 -620.15 -189.05 -616.35 -191.15 -613.8 -193.65 -612.1 -200.25 -609.35 -202.1 -613.8 -195.9 -616.35 -194.4 -617.35 -193.0 -619.1 -191.3 -621.95 -189.75 -629.15 -190.8 -633.2 -193.35 -639.25 -196.7 -643.15 -220.9 -634.35 -221.95 -628.25 -221.6 -621.0 -219.65 -613.1 -205.45 -581.75 -203.05 -573.7 -192.9 -546.2 -190.95 -542.35 -188.55 -539.4 -183.0 -534.75 -180.5 -531.05 -178.75 -522.2 -178.75 -499.35 -182.0 -499.35 -182.0 -522.05 -183.45 -529.7 -185.35 -532.6 -190.8 -537.15 -193.6 -540.6 -195.9 -545.05 -207.25 -576.55 -207.7 -575.35 -210.0 -573.75 -220.05 -569.8 -220.35 -569.5 -220.45 -569.2 -220.4 -568.05 -217.15 -560.05 -220.15 -558.85 -223.55 -567.35 -223.7 -569.55 -223.2 -571.25 -221.75 -572.55 -211.55 -576.6 -210.35 -577.4 -208.75 -581.2 -222.7 -612.05 -224.75 -620.55 -225.2 -628.5 -224.3 -633.4 -225.55 -636.8 -763.7 -440.9 -771.6 -462.7 -279.95 -641.65 -308.45 -636.95 -328.6 -632.15 -337.35 -629.55 -420.5 -600.2 -450.45 -590.0 -479.9 -578.6 -501.4 -571.25 -506.85 -568.85 -518.7 -562.45 -533.8 -555.8 -556.1 -547.4 -574.05 -541.4 -595.65 -533.0 -614.2 -526.4 -692.15 -496.4 -699.85 -492.25 -700.05 -492.2 -744.45 -476.0 -790.65 -459.8 -792.25 -464.35 -746.05 -480.55 -701.85 -496.65 -694.1 -500.75 -615.85 -530.9 -597.3 -537.5 -575.6 -545.95 -557.65 -551.9 -535.55 -560.3 -520.7 -566.8 -508.85 -573.25 -503.05 -575.75 -481.5 -583.1 -452.05 -594.55 -396.25 -613.7 -368.6 -623.85 -338.75 -634.15 -316.45 -640.2 -267.95 -648.5 -273.55 -663.85 -253.7 -671.1 -260.3 -689.2 -204.85 -709.35 -196.15 -685.45 -176.4 -692.6 -165.25 -662.1 -134.8 -673.05 -115.4 -677.95 -104.55 -679.5 -55.65 -679.7 -25.85 -687.9 -13.6 -690.85 -4.85 -692.25 7.2 -692.25 22.0 -691.45 42.1 -689.55 71.45 -689.75 94.55 -691.4 123.3 -690.4 144.15 -691.75 143.95 -702.65 144.6 -709.45 146.7 -719.25 149.8 -723.85 157.4 -733.2 163.6 -748.25 163.75 -752.3 163.2 -757.05 161.9 -761.35 159.3 -765.95 152.8 -771.9 147.85 -777.45 143.65 -786.7 142.35 -795.65 142.75 -806.4 142.75 -826.9 142.6 -827.5 141.65 -828.15 138.15 -829.15 136.05 -830.1 132.8 -831.05 Q131.6 -831.95 130.35 -832.9 L126.8 -839.55 123.85 -843.4 121.65 -845.15 118.85 -846.0 112.55 -846.55 112.6 -849.8 119.5 -849.15 123.1 -848.0 126.1 -845.75 129.55 -841.2 132.8 -835.05 134.25 -833.95 137.25 -833.05 139.35 -832.1 143.1 -831.0 145.25 -829.55 146.0 -827.45 145.6 -795.75 145.8 -792.7 146.7 -787.65 150.5 -779.3 155.1 -774.1 161.85 -768.0 164.85 -762.6 166.35 -757.7 167.0 -752.45 166.75 -747.7 165.45 -743.8 160.15 -731.55 152.25 -721.8 149.65 -717.9 147.75 -708.95 147.2 -702.5 147.35 -691.95 169.55 -694.25 179.4 -694.4 186.4 -693.25 192.55 -691.1 210.55 -681.85 222.55 -675.0 245.7 -658.15 270.55 -641.3 292.7 -624.1 299.5 -619.25 310.6 -612.15" fill="#e6e6e6" fill-rule="evenodd" stroke="none"/>
    <path d="M-60.15 -339.1 L-59.95 -339.15 -56.75 -334.95 -56.2 -335.0 -55.6 -334.65 -55.4 -333.7 -55.05 -333.5 -56.45 -332.75 -57.45 -331.85 -58.3 -331.25 -58.7 -329.4 -58.9 -329.1 -59.3 -327.35 -59.35 -327.25 -59.4 -327.1 -59.45 -327.05 -59.65 -326.75 -60.65 -326.35 -60.75 -327.3 -60.1 -328.5 -60.0 -328.75 -60.2 -330.0 -58.7 -331.25 -60.05 -331.35 -61.3 -332.1 -62.5 -331.7 -64.6 -331.55 -65.85 -332.25 -64.7 -334.5 -63.4 -335.65 -63.2 -335.95 -62.25 -337.0 -60.9 -338.85 -60.4 -339.15 -60.2 -339.1 -60.15 -339.1" fill="#c2ced3" fill-rule="evenodd" stroke="none"/>
    <path d="M314.0 656.9 L309.5 650.2 312.0 648.6 316.25 655.3 314.0 656.9" fill="#c2ced3" fill-rule="evenodd" stroke="none"/>
    <path d="M354.4 611.6 L355.15 612.0 362.35 618.85 361.4 619.55 360.9 620.45 360.9 621.45 361.35 622.4 362.25 623.05 356.55 628.25 356.45 629.2 356.15 630.0 355.55 630.65 354.8 631.15 353.95 631.35 353.1 631.35 352.25 631.05 351.55 630.55 351.05 629.85 350.75 629.0 350.7 628.15 350.9 627.3 351.35 626.55 351.95 626.05 354.5 622.95 354.55 619.8 354.35 618.65 352.15 616.75 351.45 616.25 350.95 615.6 350.65 614.85 350.65 614.0 350.85 613.2 351.3 612.45 351.95 611.9 352.75 611.55 353.6 611.45 354.4 611.6" fill="#c2ced3" fill-rule="evenodd" stroke="none"/>
    <path d="M363.85 619.75 L364.35 620.3 364.5 621.0 364.35 621.7 363.85 622.25 363.15 622.5 362.45 622.4 361.85 622.0 361.5 621.35 361.5 620.6 361.85 619.95 362.5 619.55 363.2 619.5 363.85 619.75" fill="#c2ced3" fill-rule="evenodd" stroke="none"/>
    <path d="M289.8 639.6 L290.25 638.9 301.95 645.95 298.6 651.35 297.9 650.95 300.85 646.2 289.8 639.6" fill="#5c5d5d" fill-rule="evenodd" stroke="none"/>
    <path d="M348.4 619.55 L342.85 625.15 354.3 634.8 352.45 636.1 352.0 635.45 353.0 634.75 341.65 625.2 347.25 619.6 341.1 614.05 341.65 613.5 348.4 619.55" fill="#5c5d5d" fill-rule="evenodd" stroke="none"/>
    <path d="M343.0 612.0 L343.55 611.35 350.9 617.85 350.4 618.45 343.0 612.0" fill="#5c5d5d" fill-rule="evenodd" stroke="none"/>
    <path d="M366.55 619.25 L367.0 618.65 367.65 619.2 366.6 620.4 350.05 605.7 350.6 605.15 366.55 619.25" fill="#5c5d5d" fill-rule="evenodd" stroke="none"/>
    <path d="M337.8 628.2 L338.25 628.85 337.35 629.45 344.05 639.6 345.55 638.7 346.0 639.35 326.7 652.0 321.35 644.05 338.4 632.65 336.2 629.2 337.8 628.2" fill="#5c5d5d" fill-rule="evenodd" stroke="none"/>
    <path d="M372.05 590.55 L363.85 601.45 363.2 601.0 371.4 590.1 372.05 590.55" fill="#5c5d5d" fill-rule="evenodd" stroke="none"/>
    <path d="M383.1 600.9 L382.45 600.4 388.05 592.85 393.4 596.8 392.9 597.45 388.2 593.95 383.1 600.9" fill="#5c5d5d" fill-rule="evenodd" stroke="none"/>
    <path d="M373.75 612.1 L375.3 609.95 375.95 610.4 373.9 613.25 354.15 598.5 354.6 597.85 373.75 612.1" fill="#5c5d5d" fill-rule="evenodd" stroke="none"/>
    <path d="M315.65 579.2 L315.1 579.75 310.35 575.45 314.55 570.8 315.0 571.25 321.5 564.0 321.35 563.6 338.7 552.65 337.95 551.55 338.65 551.1 347.35 564.5 348.4 563.6 374.0 582.55 367.6 591.1 362.65 587.4 368.55 579.55 348.45 564.65 347.85 565.15 350.5 567.7 349.95 568.25 347.05 565.45 339.15 553.3 322.05 564.4 311.8 575.8 315.65 579.2" fill="#5c5d5d" fill-rule="evenodd" stroke="none"/>
    <path d="M333.35 633.05 L329.75 627.6 330.4 627.15 334.0 632.6 333.35 633.05" fill="#5c5d5d" fill-rule="evenodd" stroke="none"/>
    <path d="M333.55 610.65 L329.1 615.65 329.05 615.6 328.55 616.1 334.35 625.0 335.25 624.45 335.7 625.1 334.1 626.05 327.5 616.05 328.45 615.05 324.1 611.15 328.6 606.2 333.55 610.65" fill="#5c5d5d" fill-rule="evenodd" stroke="none"/>
    <path d="M278.85 607.5 L279.35 605.35 280.15 605.55 279.8 606.95 291.2 610.3 292.6 608.1 293.3 608.5 291.55 611.25 304.7 619.05 304.25 619.75 290.85 611.8 287.8 623.1 281.45 633.35 287.7 637.25 287.25 637.9 280.4 633.65 286.85 623.1 279.75 621.25 277.15 631.2 276.4 631.0 279.15 620.25 287.15 622.35 290.3 610.85 278.85 607.5" fill="#5c5d5d" fill-rule="evenodd" stroke="none"/>
    <path d="M298.0 583.15 L298.6 583.7 296.6 585.85 304.2 590.75 304.4 590.5 305.05 590.95 295.65 606.1 295.05 605.7 294.8 606.1 294.1 605.65 296.1 602.45 287.7 597.05 295.45 585.1 295.95 585.45 298.0 583.15" fill="#5c5d5d" fill-rule="evenodd" stroke="none"/>
    <path d="M319.25 592.0 L317.95 594.2 325.05 598.65 316.65 609.8 319.2 611.85 318.65 612.4 316.2 610.45 312.2 615.75 311.55 615.25 315.75 609.7 315.8 609.65 323.85 598.9 314.55 593.05 316.8 589.3 317.45 589.75 315.65 592.75 317.25 593.8 318.65 591.45 320.05 590.05 322.5 592.35 322.0 592.9 320.1 591.2 319.25 592.0" fill="#5c5d5d" fill-rule="evenodd" stroke="none"/>
    <path d="M327.8 581.95 L327.5 581.5 334.7 576.85 335.7 578.3 335.05 578.75 334.45 577.9 328.5 581.8 337.8 590.2 332.25 596.35 335.55 599.15 330.65 604.45 330.1 603.9 334.4 599.2 324.05 590.6 323.5 591.2 321.05 589.15 321.7 588.5 318.05 585.45 318.6 584.8 322.35 588.0 327.8 581.95" fill="#5c5d5d" fill-rule="evenodd" stroke="none"/>
    <path d="M355.35 587.2 L353.85 585.95 339.05 603.2 338.0 601.95 335.85 604.25 335.3 603.7 338.05 600.7 339.1 601.95 353.7 584.8 355.9 586.55 355.35 587.2" fill="#5c5d5d" fill-rule="evenodd" stroke="none"/>
    <path d="M333.95 569.95 L334.4 570.6 333.5 571.2 337.5 577.3 336.8 577.75 332.45 571.0 333.95 569.95" fill="#5c5d5d" fill-rule="evenodd" stroke="none"/>
    <path d="M331.85 569.4 L331.45 568.7 339.3 563.65 339.75 564.3 331.85 569.4" fill="#5c5d5d" fill-rule="evenodd" stroke="none"/>
    <path d="M340.6 566.6 L339.75 567.15 339.3 566.5 340.8 565.5 345.1 572.0 344.45 572.45 340.6 566.6" fill="#5c5d5d" fill-rule="evenodd" stroke="none"/>
    <path d="M345.55 568.35 L353.25 579.4 358.05 583.1 357.6 583.75 352.65 579.9 344.55 568.3 346.0 566.55 349.0 569.05 348.45 569.7 346.1 567.7 345.55 568.35" fill="#5c5d5d" fill-rule="evenodd" stroke="none"/>
    <path d="M300.45 569.65 L301.1 570.2 297.1 574.75 305.2 581.6 308.95 577.25 313.55 581.4 313.0 581.95 309.0 578.4 305.4 582.6 308.0 584.95 306.95 587.1 312.45 590.6 314.2 587.75 314.9 588.2 312.7 591.7 305.95 587.4 307.0 585.15 301.75 580.3 300.95 581.25 300.35 580.7 301.4 579.45 295.95 574.8 300.45 569.65" fill="#5c5d5d" fill-rule="evenodd" stroke="none"/>
    <path d="M272.7 563.65 L271.5 562.6 274.4 559.35 275.6 560.45 272.7 563.65" fill="#5c5d5d" fill-rule="evenodd" stroke="none"/>
    <path d="M282.9 550.05 L284.1 551.1 281.2 554.35 280.0 553.3 282.9 550.05" fill="#5c5d5d" fill-rule="evenodd" stroke="none"/>
    <path d="M346.2 556.95 L345.5 557.4 339.5 548.05 340.2 547.65 346.2 556.95" fill="#5c5d5d" fill-rule="evenodd" stroke="none"/>
    <path d="M348.45 607.4 L348.95 606.8 350.35 608.0 346.85 611.95 345.45 610.7 345.95 610.1 346.8 610.8 349.2 608.1 348.45 607.4" fill="#5c5d5d" fill-rule="evenodd" stroke="none"/>
    <path d="M301.9 546.25 L302.05 546.4 319.75 526.4 342.4 545.85 344.75 548.4 351.85 543.45 358.85 553.45 357.8 554.15 376.95 569.35 372.25 575.65 378.6 580.55 380.2 578.4 388.1 584.35 386.45 586.55 398.25 595.6 397.9 596.1 397.95 596.1 380.55 619.75 377.75 617.65 373.95 622.7 375.85 624.1 373.95 626.55 373.95 626.6 360.55 641.7 356.4 637.85 348.6 642.8 347.65 641.45 335.65 649.35 336.85 651.15 324.4 659.2 323.25 657.4 312.6 664.35 313.55 665.15 313.05 665.75 299.55 654.75 297.1 660.0 267.45 645.4 267.0 646.2 256.85 640.95 261.25 632.35 260.75 609.8 263.2 602.45 261.45 601.75 260.95 602.7 253.6 598.9 270.25 566.65 274.7 568.95 288.1 554.6 291.5 557.7 301.9 546.25 M319.8 527.55 L317.9 529.7 321.75 533.1 308.25 548.25 304.45 544.9 302.65 546.9 319.75 562.45 313.35 569.65 312.95 569.3 312.4 569.85 306.4 564.55 302.65 568.55 302.1 568.0 306.35 563.4 298.35 556.2 295.05 559.85 295.55 560.3 278.4 579.45 277.8 578.9 283.15 572.7 277.3 567.35 275.45 569.35 277.6 570.45 261.8 601.05 275.4 605.6 275.95 604.1 276.7 604.4 275.9 606.6 263.95 602.75 261.6 609.9 261.7 614.7 268.8 616.55 267.45 630.5 266.7 630.45 267.95 617.15 261.7 615.5 262.05 632.8 271.4 637.6 267.8 644.65 296.7 658.9 299.15 653.7 303.3 647.1 303.95 647.55 299.9 654.0 301.15 655.05 306.65 651.45 307.1 652.1 301.85 655.6 311.95 663.8 323.5 656.25 324.65 658.05 335.7 650.9 334.5 649.1 347.9 640.3 348.85 641.75 355.75 637.3 355.05 636.65 349.45 640.35 349.0 639.7 355.1 635.6 360.5 640.55 369.3 630.6 364.95 626.7 368.7 622.5 367.55 621.45 368.75 620.05 369.35 620.55 368.65 621.4 370.15 622.7 375.6 615.4 376.25 615.9 370.75 623.25 373.55 625.75 374.7 624.25 372.8 622.85 377.6 616.5 380.4 618.6 397.2 595.8 385.95 587.15 383.95 589.8 386.2 591.5 385.75 592.1 383.5 590.45 381.2 593.5 373.3 587.6 378.15 581.2 371.1 575.8 375.8 569.5 357.15 554.65 350.35 559.35 343.4 549.4 344.1 548.85 341.85 546.4 319.8 527.55" fill="#5c5d5d" fill-rule="evenodd" stroke="none"/>
    <path d="M426.55 371.7 L429.85 377.95 423.9 381.15 420.55 374.9 426.55 371.7" fill="#5c5d5d" fill-rule="evenodd" stroke="none"/>
    <path d="M659.95 281.8 L665.4 286.35 661.0 291.55 655.6 287.0 659.95 281.8" fill="#5c5d5d" fill-rule="evenodd" stroke="none"/>
    <path d="M365.9 593.7 L361.45 599.6 356.35 595.75 360.8 589.85 365.9 593.7" fill="#5c5d5d" fill-rule="evenodd" stroke="none"/>
    <path d="M377.1 607.9 L380.95 602.7 386.1 606.55 382.2 611.75 377.1 607.9" fill="#5c5d5d" fill-rule="evenodd" stroke="none"/>
    <path d="M285.4 632.95 L290.2 625.35 299.4 631.2 294.65 638.75 285.4 632.95" fill="#5c5d5d" fill-rule="evenodd" stroke="none"/>
    <path d="M284.0 648.65 L288.05 642.25 295.05 646.65 291.05 653.05 284.0 648.65" fill="#5c5d5d" fill-rule="evenodd" stroke="none"/>
    <path d="M278.45 636.4 L285.55 640.85 281.6 647.15 274.45 642.7 278.45 636.4" fill="#5c5d5d" fill-rule="evenodd" stroke="none"/>
    <path d="M304.95 614.75 L299.4 611.2 302.8 605.9 299.7 603.95 307.25 592.0 319.4 599.75 311.7 611.65 308.3 609.5 304.95 614.75" fill="#5c5d5d" fill-rule="evenodd" stroke="none"/>
    <path d="M311.55 647.3 L317.45 643.4 324.2 653.5 318.35 657.45 312.45 648.65 308.7 651.05 308.3 650.35 312.0 648.0 311.55 647.3" fill="#5c5d5d" fill-rule="evenodd" stroke="none"/>
    <path d="M300.75 631.35 L307.05 627.15 314.2 637.85 307.9 642.05 300.75 631.35" fill="#5c5d5d" fill-rule="evenodd" stroke="none"/>
    <path d="M309.05 625.7 L310.05 625.0 307.75 621.4 307.5 621.15 308.0 620.55 308.4 620.9 310.7 624.6 322.35 616.8 321.05 614.55 320.9 614.35 321.5 613.8 321.75 614.1 323.05 616.35 323.6 615.95 329.45 624.7 314.85 634.4 309.05 625.7" fill="#5c5d5d" fill-rule="evenodd" stroke="none"/>
    <path d="M288.1 612.45 L286.15 619.1 276.75 616.4 278.7 609.75 288.1 612.45" fill="#5c5d5d" fill-rule="evenodd" stroke="none"/>
    <path d="M262.8 612.3 L264.75 605.65 274.25 608.4 272.35 615.05 262.8 612.3" fill="#5c5d5d" fill-rule="evenodd" stroke="none"/>
    <path d="M477.45 -13.85 L479.55 -23.5 498.4 -19.4 496.3 -9.75 477.45 -13.85" fill="#5c5d5d" fill-rule="evenodd" stroke="none"/>
    <path d="M417.9 38.2 L417.9 1.2 459.2 1.2 459.2 39.35 433.6 39.35 433.6 52.2 417.5 52.2 417.5 38.2 417.9 38.2" fill="#5c5d5d" fill-rule="evenodd" stroke="none"/>
    <path d="M419.1 -36.75 L431.0 -36.75 431.0 -8.6 419.1 -8.6 419.1 -36.75" fill="#5c5d5d" fill-rule="evenodd" stroke="none"/>
    <path d="M509.45 77.45 L510.05 73.25 514.65 73.9 514.05 78.1 509.45 77.45" fill="#5c5d5d" fill-rule="evenodd" stroke="none"/>
    <path d="M191.55 310.9 L184.75 311.25 184.4 304.55 191.2 304.15 191.55 310.9" fill="#5c5d5d" fill-rule="evenodd" stroke="none"/>
    <path d="M252.85 176.1 L255.2 163.2 265.0 165.0 262.65 177.9 252.85 176.1" fill="#5c5d5d" fill-rule="evenodd" stroke="none"/>
    <path d="M312.05 45.2 L316.3 50.9 311.55 54.4 311.75 54.65 301.55 62.3 303.5 64.9 300.9 66.85 298.95 64.25 289.55 71.3 277.6 55.3 299.8 38.7 307.35 48.75 312.05 45.2" fill="#5c5d5d" fill-rule="evenodd" stroke="none"/>
    <path d="M307.3 -2.4 L318.3 20.75 307.05 26.1 303.1 17.85 298.55 20.0 295.1 12.65 299.6 10.5 296.0 2.95 307.3 -2.4" fill="#5c5d5d" fill-rule="evenodd" stroke="none"/>
    <path d="M266.1 126.7 L274.15 127.1 272.85 151.6 264.8 151.15 266.1 126.7" fill="#5c5d5d" fill-rule="evenodd" stroke="none"/>
    <path d="M226.5 173.2 L223.2 172.85 223.7 167.85 227.0 168.15 226.5 173.2" fill="#5c5d5d" fill-rule="evenodd" stroke="none"/>
    <path d="M220.65 124.5 L221.7 124.5 221.7 119.3 228.65 119.3 228.65 124.5 229.6 124.5 229.6 149.3 220.65 149.3 220.65 124.5" fill="#5c5d5d" fill-rule="evenodd" stroke="none"/>
    <path d="M229.55 93.8 L221.55 99.25 210.6 83.15 218.6 77.7 229.55 93.8" fill="#5c5d5d" fill-rule="evenodd" stroke="none"/>
    <path d="M199.8 74.0 L197.9 71.7 203.5 67.0 205.45 69.25 199.8 74.0" fill="#5c5d5d" fill-rule="evenodd" stroke="none"/>
    <path d="M200.05 16.8 L206.8 19.8 202.65 29.25 195.9 26.25 200.05 16.8" fill="#5c5d5d" fill-rule="evenodd" stroke="none"/>
    <path d="M187.55 22.2 L191.7 12.8 198.5 15.8 194.3 25.2 187.55 22.2" fill="#5c5d5d" fill-rule="evenodd" stroke="none"/>
    <path d="M179.15 18.45 L183.3 9.0 190.1 12.0 185.9 21.45 179.15 18.45" fill="#5c5d5d" fill-rule="evenodd" stroke="none"/>
    <path d="M189.8 47.25 L184.5 51.8 182.6 49.6 187.95 45.05 189.8 47.25" fill="#5c5d5d" fill-rule="evenodd" stroke="none"/>
    <path d="M198.0 56.0 L196.35 58.4 191.15 54.8 195.45 59.15 193.4 61.2 184.6 52.4 186.65 50.35 190.65 54.3 192.2 52.0 198.0 56.0" fill="#5c5d5d" fill-rule="evenodd" stroke="none"/>
    <path d="M197.4 183.45 L201.1 180.45 205.9 180.95 208.9 184.65 208.4 189.4 205.75 191.6 205.55 193.95 201.7 193.6 201.8 192.15 199.95 191.95 196.9 188.25 197.4 183.45" fill="#5c5d5d" fill-rule="evenodd" stroke="none"/>
    <path d="M199.75 192.2 L199.3 198.15 192.1 197.55 192.55 191.6 199.75 192.2" fill="#5c5d5d" fill-rule="evenodd" stroke="none"/>
    <path d="M217.25 127.3 L215.7 125.5 217.5 123.95 219.05 125.75 217.25 127.3" fill="#5c5d5d" fill-rule="evenodd" stroke="none"/>
    <path d="M253.0 152.3 L250.3 151.1 252.9 145.3 249.8 150.7 247.2 149.25 250.7 143.2 253.25 144.65 253.25 144.7 255.9 145.9 253.0 152.3" fill="#5c5d5d" fill-rule="evenodd" stroke="none"/>
    <path d="M256.3 117.8 L256.85 121.2 250.75 122.2 255.45 123.1 254.9 126.0 247.55 124.65 248.1 121.75 249.65 122.05 249.15 119.0 256.3 117.8" fill="#5c5d5d" fill-rule="evenodd" stroke="none"/>
    <path d="M277.05 -32.95 L287.35 -33.35 288.35 -7.65 278.05 -7.25 277.05 -32.95" fill="#5c5d5d" fill-rule="evenodd" stroke="none"/>
    <path d="M245.15 -46.85 L250.5 -58.35 251.05 -58.1 254.55 -65.65 262.5 -62.0 259.05 -54.4 272.2 -48.35 266.85 -36.85 245.15 -46.85" fill="#5c5d5d" fill-rule="evenodd" stroke="none"/>
    <path d="M346.5 -31.2 L339.05 -31.2 339.05 -38.65 346.5 -38.65 346.5 -31.2" fill="#5c5d5d" fill-rule="evenodd" stroke="none"/>
    <path d="M302.8 -20.85 L300.2 -22.1 305.55 -33.1 308.2 -31.8 302.8 -20.85" fill="#5c5d5d" fill-rule="evenodd" stroke="none"/>
    <path d="M302.75 -37.2 L302.65 -34.3 290.4 -34.7 290.5 -37.65 302.75 -37.2" fill="#5c5d5d" fill-rule="evenodd" stroke="none"/>
    <path d="M243.95 -38.1 L241.75 -36.15 233.6 -45.25 235.8 -47.2 243.95 -38.1" fill="#5c5d5d" fill-rule="evenodd" stroke="none"/>
    <path d="M438.5 -49.2 L438.5 -50.5 436.85 -50.5 436.85 -49.2 432.5 -49.2 432.5 -57.6 442.85 -57.6 442.85 -49.2 438.5 -49.2" fill="#5c5d5d" fill-rule="evenodd" stroke="none"/>
    <path d="M458.95 -36.0 L458.95 -13.5 450.5 -13.5 450.5 -13.1 437.85 -13.1 437.85 -36.7 450.5 -36.7 450.5 -36.0 458.95 -36.0" fill="#5c5d5d" fill-rule="evenodd" stroke="none"/>
    <path d="M506.75 -26.7 L517.25 -27.35 518.5 -16.35 507.25 -15.6 506.75 -26.7" fill="#5c5d5d" fill-rule="evenodd" stroke="none"/>
    <path d="M680.05 231.05 L684.15 231.85 681.6 244.7 677.5 243.9 680.05 231.05" fill="#5c5d5d" fill-rule="evenodd" stroke="none"/>
    <path d="M561.6 96.2 L571.05 106.2 567.1 109.9 560.7 103.1 555.2 108.3 552.2 105.1 561.6 96.2" fill="#5c5d5d" fill-rule="evenodd" stroke="none"/>
    <path d="M632.6 116.7 L631.35 117.75 633.9 120.85 629.65 124.45 622.95 116.6 628.5 111.9 632.6 116.7" fill="#5c5d5d" fill-rule="evenodd" stroke="none"/>
    <path d="M720.35 88.0 L724.65 87.95 724.7 92.35 720.4 92.4 720.35 88.0" fill="#5c5d5d" fill-rule="evenodd" stroke="none"/>
    <path d="M674.75 62.35 L674.9 64.4 672.5 64.5 672.4 62.5 674.75 62.35" fill="#5c5d5d" fill-rule="evenodd" stroke="none"/>
    <path d="M762.25 82.85 L769.25 82.85 769.25 89.7 762.25 89.7 762.25 82.85" fill="#5c5d5d" fill-rule="evenodd" stroke="none"/>
    <path d="M708.55 19.7 L707.1 23.65 698.6 20.45 700.1 16.5 708.55 19.7" fill="#5c5d5d" fill-rule="evenodd" stroke="none"/>
    <path d="M445.35 -93.15 L445.35 -100.05 452.1 -100.05 452.1 -93.15 445.35 -93.15" fill="#5c5d5d" fill-rule="evenodd" stroke="none"/>
    <path d="M444.95 -182.2 L439.1 -187.15 442.0 -190.55 447.8 -185.6 444.95 -182.2" fill="#5c5d5d" fill-rule="evenodd" stroke="none"/>
    <path d="M448.05 -197.85 L443.25 -192.2 439.7 -195.2 444.5 -200.85 448.05 -197.85" fill="#5c5d5d" fill-rule="evenodd" stroke="none"/>
    <path d="M464.5 -207.45 L459.55 -201.6 455.8 -204.8 460.75 -210.65 464.5 -207.45" fill="#5c5d5d" fill-rule="evenodd" stroke="none"/>
    <path d="M453.9 -212.35 L448.65 -216.8 452.75 -221.6 458.0 -217.15 453.9 -212.35" fill="#5c5d5d" fill-rule="evenodd" stroke="none"/>
    <path d="M183.5 -211.25 L180.2 -236.85 182.75 -238.75 206.6 -228.75 207.1 -225.7 186.35 -210.1 183.5 -211.25" fill="#5c5d5d" fill-rule="evenodd" stroke="none"/>
    <path d="M207.25 -209.45 L211.3 -214.35 213.1 -217.5 214.6 -216.85 211.75 -206.5 208.65 -201.7 202.7 -201.05 198.25 -201.7 192.2 -203.35 192.35 -204.85 196.75 -205.2 201.2 -206.2 204.3 -207.5 207.25 -209.45" fill="#5c5d5d" fill-rule="evenodd" stroke="none"/>
    <path d="M195.7 -249.25 L202.0 -244.1 201.5 -242.85 193.6 -243.75 191.7 -243.25 186.45 -241.35 185.85 -242.6 189.5 -247.25 193.1 -250.85 195.7 -249.25" fill="#5c5d5d" fill-rule="evenodd" stroke="none"/>
    <path d="M401.05 -458.0 L387.25 -461.5 390.35 -473.85 413.6 -468.0 410.45 -455.65 409.9 -455.75 407.85 -447.45 399.0 -449.7 401.05 -458.0" fill="#5c5d5d" fill-rule="evenodd" stroke="none"/>
    <path d="M460.15 -480.85 L458.3 -473.45 448.3 -475.95 450.2 -483.35 460.15 -480.85" fill="#5c5d5d" fill-rule="evenodd" stroke="none"/>
    <path d="M480.5 -497.6 L480.95 -497.5 478.0 -484.0 481.5 -483.2 479.7 -475.05 476.2 -475.8 476.05 -475.25 475.7 -475.35 474.8 -471.25 468.2 -472.7 469.1 -476.8 468.7 -476.9 473.55 -499.15 473.9 -499.05 474.85 -503.35 481.45 -501.9 480.5 -497.6" fill="#5c5d5d" fill-rule="evenodd" stroke="none"/>
    <path d="M332.6 -511.4 L342.9 -515.75 347.5 -504.9 337.15 -500.55 332.6 -511.4" fill="#5c5d5d" fill-rule="evenodd" stroke="none"/>
    <path d="M335.2 -525.6 L332.2 -520.45 326.9 -523.5 329.9 -528.65 335.2 -525.6" fill="#5c5d5d" fill-rule="evenodd" stroke="none"/>
    <path d="M381.45 -555.85 L377.5 -544.65 347.55 -555.25 351.5 -566.4 381.45 -555.85" fill="#5c5d5d" fill-rule="evenodd" stroke="none"/>
    <path d="M407.6 -548.5 L405.5 -540.1 393.25 -543.15 395.35 -551.5 407.6 -548.5" fill="#5c5d5d" fill-rule="evenodd" stroke="none"/>
    <path d="M445.95 -533.9 L450.3 -532.65 448.55 -526.55 444.25 -527.75 444.15 -527.5 429.1 -531.7 429.4 -532.75 425.35 -533.75 426.9 -539.95 431.1 -538.9 431.85 -541.7 446.95 -537.55 445.95 -533.9" fill="#5c5d5d" fill-rule="evenodd" stroke="none"/>
    <path d="M449.45 -545.05 L448.8 -542.75 446.7 -543.35 447.3 -545.65 449.45 -545.05" fill="#5c5d5d" fill-rule="evenodd" stroke="none"/>
    <path d="M408.9 -564.05 L404.35 -564.45 401.4 -567.95 401.75 -572.5 405.25 -575.45 409.8 -575.05 412.75 -571.55 412.4 -567.0 408.9 -564.05" fill="#5c5d5d" fill-rule="evenodd" stroke="none"/>
    <path d="M181.0 -665.85 L181.0 -659.5 174.6 -659.5 174.6 -665.85 181.0 -665.85" fill="#5c5d5d" fill-rule="evenodd" stroke="none"/>
    <path d="M121.7 -834.85 L119.85 -830.5 109.7 -834.65 111.5 -839.05 112.95 -838.45 114.4 -842.0 120.4 -839.55 118.95 -836.0 121.7 -834.85" fill="#5c5d5d" fill-rule="evenodd" stroke="none"/>
    <path d="M-185.05 -612.15 L-169.5 -617.6 -164.75 -604.0 -180.35 -598.6 -185.05 -612.15" fill="#5c5d5d" fill-rule="evenodd" stroke="none"/>
    <path d="M-170.6 -628.75 L-178.5 -625.75 -182.2 -635.6 -174.25 -638.6 -170.6 -628.75" fill="#5c5d5d" fill-rule="evenodd" stroke="none"/>
    <path d="M-197.25 -635.0 L-192.45 -621.4 -209.9 -615.25 -214.7 -628.85 -197.25 -635.0" fill="#5c5d5d" fill-rule="evenodd" stroke="none"/>
    <path d="M-274.6 -671.0 L-281.85 -691.65 -277.0 -693.35 -279.45 -700.35 -251.35 -710.2 -239.45 -676.2 -267.55 -666.35 -269.75 -672.7 -274.6 -671.0" fill="#5c5d5d" fill-rule="evenodd" stroke="none"/>
    <path d="M-204.9 -606.25 L-195.15 -609.65 -189.8 -594.45 -199.6 -591.05 -204.9 -606.25" fill="#5c5d5d" fill-rule="evenodd" stroke="none"/>
    <path d="M-339.45 -575.9 L-329.2 -579.65 -324.25 -566.05 -334.5 -562.35 -339.45 -575.9" fill="#5c5d5d" fill-rule="evenodd" stroke="none"/>
    <path d="M22.7 384.15 L22.85 383.4 36.25 386.6 57.9 392.6 83.15 400.2 98.75 409.2 103.45 410.8 141.0 412.6 197.5 410.75 197.55 410.8 221.8 416.0 225.5 417.1 267.15 443.4 267.15 443.35 267.55 442.75 273.9 446.8 270.45 452.1 264.2 448.0 266.7 444.05 225.15 417.8 221.6 416.75 197.4 411.6 141.0 413.35 103.3 411.55 98.4 409.9 82.8 400.95 57.65 393.35 36.05 387.35 22.7 384.15" fill="#5c5d5d" fill-rule="evenodd" stroke="none"/>
    <path d="M399.2 569.95 L402.0 566.15 406.75 569.65 403.95 573.45 399.2 569.95" fill="#5c5d5d" fill-rule="evenodd" stroke="none"/>
    <path d="M400.65 378.85 L400.5 368.1 408.85 368.0 409.05 378.7 400.65 378.85" fill="#5c5d5d" fill-rule="evenodd" stroke="none"/>
    <path d="M562.2 277.05 L567.9 274.6 569.3 275.5 568.6 281.7 567.5 283.0 561.1 278.6 562.2 277.05" fill="#5c5d5d" fill-rule="evenodd" stroke="none"/>
    <path d="M383.95 -261.35 L385.95 -267.4 397.65 -263.55 395.7 -257.5 383.95 -261.35" fill="#5c5d5d" fill-rule="evenodd" stroke="none"/>
    <path d="M470.45 -564.1 L477.2 -562.65 475.1 -552.75 468.35 -554.2 470.45 -564.1" fill="#5c5d5d" fill-rule="evenodd" stroke="none"/>
    <path d="M267.7 -676.6 L264.6 -672.1 258.55 -676.25 261.65 -680.75 267.7 -676.6" fill="#5c5d5d" fill-rule="evenodd" stroke="none"/>
    <path d="M727.1 68.1 L711.1 88.9 694.4 77.25 702.95 66.2 690.85 57.25 698.8 46.0 727.1 68.1" fill="#5c5d5d" fill-rule="evenodd" stroke="none"/>
    <path d="M887.5 65.35 L894.75 71.85 886.6 78.25 881.2 72.2 887.5 65.35" fill="#5c5d5d" fill-rule="evenodd" stroke="none"/>
    <path d="M141.65 30.2 L134.15 31.7 132.15 21.9 139.65 20.4 141.65 30.2" fill="#5c5d5d" fill-rule="evenodd" stroke="none"/>
    <path d="M203.3 680.75 L213.3 680.75 213.3 688.65 203.3 688.65 203.3 680.75" fill="#5c5d5d" fill-rule="evenodd" stroke="none"/>
    <path d="M287.35 726.45 L290.95 726.5 293.5 729.15 293.45 732.75 290.8 735.3 287.2 735.25 284.65 732.6 284.7 729.0 287.35 726.45" fill="#5c5d5d" fill-rule="evenodd" stroke="none"/>
    <path d="M471.75 -534.1 L468.75 -534.1 468.75 -538.85 471.75 -538.85 471.75 -534.1" fill="#5c5d5d" fill-rule="evenodd" stroke="none"/>
    <path d="M321.9 -635.8 L321.6 -633.35 314.8 -634.2 315.1 -636.65 321.9 -635.8" fill="#5c5d5d" fill-rule="evenodd" stroke="none"/>
    <path d="M297.35 463.1 L320.2 465.1 327.5 466.45 334.5 468.65 404.55 501.0 427.6 523.55 439.9 536.15 441.55 541.1 445.15 582.0 444.0 582.15 440.4 541.3 438.85 536.8 426.75 524.4 403.75 501.95 334.05 469.75 327.15 467.6 320.0 466.25 297.0 464.25 282.15 454.4 278.5 459.75 278.3 459.65 277.5 459.1 281.8 452.75 297.35 463.1" fill="#5c5d5d" fill-rule="evenodd" stroke="none"/>
    <path d="M690.45 46.9 L687.15 43.6 690.3 40.45 693.6 43.75 690.45 46.9" fill="#5c5d5d" fill-rule="evenodd" stroke="none"/>
    <path d="M749.8 -36.4 L745.5 -32.8 742.9 -35.85 747.2 -39.5 749.8 -36.4" fill="#5c5d5d" fill-rule="evenodd" stroke="none"/>
    <path d="M558.05 285.6 L559.9 283.3 563.15 285.95 561.3 288.25 558.05 285.6" fill="#5c5d5d" fill-rule="evenodd" stroke="none"/>
    <path d="M563.7 265.95 L566.0 267.75 563.4 271.05 561.1 269.25 563.7 265.95" fill="#5c5d5d" fill-rule="evenodd" stroke="none"/>
    <path d="M491.0 -147.5 L500.2 -137.2 494.2 -131.85 485.05 -142.2 491.0 -147.5" fill="#5c5d5d" fill-rule="evenodd" stroke="none"/>
    <path d="M475.15 -159.8 L473.35 -152.7 468.4 -153.9 470.15 -161.05 475.15 -159.8" fill="#5c5d5d" fill-rule="evenodd" stroke="none"/>
    <path d="M463.9 -162.95 L467.75 -155.45 462.15 -152.6 458.3 -160.1 463.9 -162.95" fill="#5c5d5d" fill-rule="evenodd" stroke="none"/>
    <path d="M101.4 -424.05 L98.35 -420.5 95.2 -423.2 98.2 -426.75 101.4 -424.05" fill="#5c5d5d" fill-rule="evenodd" stroke="none"/>
    <path d="M116.6 -496.6 L116.6 -489.0 106.75 -489.0 106.75 -496.6 116.6 -496.6" fill="#5c5d5d" fill-rule="evenodd" stroke="none"/>
    <path d="M164.25 -473.15 L161.0 -466.3 152.3 -470.45 155.6 -477.3 164.25 -473.15" fill="#5c5d5d" fill-rule="evenodd" stroke="none"/>
    <path d="M186.5 -517.05 L185.6 -501.25 174.6 -501.9 175.5 -517.7 186.5 -517.05" fill="#5c5d5d" fill-rule="evenodd" stroke="none"/>
    <path d="M195.6 -525.7 L185.9 -517.9 176.65 -529.4 186.35 -537.2 195.6 -525.7" fill="#5c5d5d" fill-rule="evenodd" stroke="none"/>
    <path d="M167.8 -525.85 L167.45 -519.7 159.8 -520.15 160.15 -526.3 167.8 -525.85" fill="#5c5d5d" fill-rule="evenodd" stroke="none"/>
    <path d="M154.7 -526.85 L158.85 -521.7 155.95 -519.35 151.8 -524.55 154.7 -526.85" fill="#5c5d5d" fill-rule="evenodd" stroke="none"/>
    <path d="M435.6 88.1 L444.9 88.1 444.9 97.7 435.6 97.7 435.6 88.1" fill="#5c5d5d" fill-rule="evenodd" stroke="none"/>
    <path d="M478.5 5.15 L479.1 -5.95 490.3 -5.35 489.75 5.7 478.5 5.15" fill="#5c5d5d" fill-rule="evenodd" stroke="none"/>
  </g>
</svg>
