<?xml version="1.0" encoding="UTF-8" standalone="no"?>
<svg xmlns:ffdec="https://www.free-decompiler.com/flash" xmlns:xlink="http://www.w3.org/1999/xlink" ffdec:objectType="shape" height="60.35px" width="83.25px" xmlns="http://www.w3.org/2000/svg">
  <g transform="matrix(1.0, 0.0, 0.0, 1.0, -303.05, -581.5)">
    <path d="M312.2 635.75 L313.85 638.25 311.35 639.85 309.75 637.4 309.25 637.75 310.9 640.2 308.4 641.85 306.75 639.35 306.6 639.5 304.25 635.9 310.1 632.0 312.45 635.6 312.2 635.75" fill="#434343" fill-rule="evenodd" stroke="none"/>
    <path d="M333.8 586.55 L330.8 589.9 328.35 587.75 325.75 590.7 322.5 587.8 328.15 581.5 333.8 586.55" fill="#434343" fill-rule="evenodd" stroke="none"/>
    <path d="M381.0 603.0 L386.3 606.8 383.9 610.15 381.55 608.45 380.35 610.1 377.4 607.95 381.0 603.0" fill="#434343" fill-rule="evenodd" stroke="none"/>
    <path d="M303.05 605.4 L309.35 595.0 318.45 600.45 312.15 610.9 303.05 605.4" fill="#434343" fill-rule="evenodd" stroke="none"/>
    <path d="M312.1 635.45 L311.9 635.55 313.6 638.15 311.45 639.6 309.8 637.15 309.0 637.7 310.65 640.15 308.45 641.6 306.8 639.15 306.75 639.2 306.65 639.05 306.55 639.15 305.2 637.1 305.3 637.05 305.15 636.75 305.25 636.75 304.65 635.85 306.85 634.4 307.4 635.3 308.2 634.75 307.65 633.9 309.85 632.45 310.6 633.55 310.8 633.4 312.1 635.45" fill="#969696" fill-rule="evenodd" stroke="none"/>
    <path d="M327.6 582.45 L327.7 582.55 327.9 582.3 328.5 582.85 328.85 582.45 330.65 584.05 330.3 584.45 330.35 584.45 330.15 584.7 330.5 585.05 330.75 584.8 330.8 584.85 331.15 584.45 332.95 586.05 332.6 586.45 332.8 586.65 332.6 586.9 332.95 587.25 331.4 589.0 331.0 588.7 330.45 589.3 328.35 587.45 328.9 586.8 328.55 586.5 327.4 587.75 327.8 588.05 326.2 589.85 325.85 589.5 325.65 589.75 325.6 589.7 325.3 590.05 323.55 588.45 323.8 588.1 323.2 587.6 323.4 587.35 323.3 587.25 324.9 585.5 325.0 585.55 326.1 584.3 326.0 584.25 327.6 582.45" fill="#969696" fill-rule="evenodd" stroke="none"/>
    <path d="M380.9 603.35 L381.0 603.45 381.15 603.25 383.15 604.7 383.0 604.9 383.8 605.45 383.95 605.25 385.9 606.7 385.75 606.9 385.9 607.0 384.5 608.95 384.3 608.85 383.6 609.8 381.65 608.4 382.35 607.4 381.6 606.85 381.25 607.35 381.9 607.8 380.45 609.75 379.8 609.3 379.75 609.4 377.7 607.95 377.8 607.85 377.7 607.75 379.1 605.8 379.25 605.85 379.6 605.4 379.45 605.3 380.9 603.35" fill="#969696" fill-rule="evenodd" stroke="none"/>
    <path d="M316.7 602.3 L316.4 602.8 316.5 603.1 316.6 603.2 315.95 604.25 315.85 604.15 315.55 604.25 314.9 605.35 314.95 605.7 315.05 605.75 314.4 606.8 314.3 606.75 314.0 606.85 313.35 607.95 313.4 608.25 313.5 608.3 312.85 609.4 312.75 609.3 312.45 609.4 312.1 609.95 303.75 604.95 303.9 604.65 303.8 604.6 305.0 602.55 305.15 602.6 305.45 602.1 305.35 602.05 306.55 600.0 306.65 600.05 307.0 599.55 306.85 599.5 308.1 597.45 308.2 597.5 308.35 597.3 310.7 598.7 310.2 599.55 310.65 599.8 310.75 599.6 311.0 599.75 311.2 599.45 310.85 599.25 311.05 598.95 313.1 600.15 312.9 600.5 312.6 600.3 312.4 600.6 312.65 600.75 312.55 600.95 313.0 601.2 313.45 600.4 316.7 602.3" fill="#969696" fill-rule="evenodd" stroke="none"/>
    <path d="M304.85 635.8 L306.65 634.65 307.2 635.45 305.4 636.65 304.85 635.8" fill="#707070" fill-rule="evenodd" stroke="none"/>
    <path d="M305.5 637.4 L306.05 637.05 307.05 638.6 306.5 638.95 305.5 637.4" fill="#707070" fill-rule="evenodd" stroke="none"/>
    <path d="M309.55 632.65 L309.9 633.15 308.25 634.25 307.9 633.7 309.55 632.65" fill="#707070" fill-rule="evenodd" stroke="none"/>
    <path d="M311.0 638.6 L312.8 637.4 313.4 638.25 311.6 639.45 311.0 638.6" fill="#707070" fill-rule="evenodd" stroke="none"/>
    <path d="M328.5 587.55 L329.15 586.8 330.8 588.25 330.1 589.0 328.5 587.55" fill="#707070" fill-rule="evenodd" stroke="none"/>
    <path d="M328.25 583.3 L328.9 582.55 330.5 583.95 329.85 584.7 328.25 583.3" fill="#707070" fill-rule="evenodd" stroke="none"/>
    <path d="M325.9 589.25 L327.2 587.8 327.65 588.2 326.35 589.65 325.9 589.25" fill="#707070" fill-rule="evenodd" stroke="none"/>
    <path d="M323.55 587.0 L324.75 585.65 325.25 586.1 324.1 587.45 323.55 587.0" fill="#707070" fill-rule="evenodd" stroke="none"/>
    <path d="M382.4 607.6 L384.15 608.9 383.55 609.65 381.8 608.4 382.4 607.6" fill="#707070" fill-rule="evenodd" stroke="none"/>
    <path d="M382.95 604.65 L382.35 605.4 380.6 604.15 381.2 603.35 382.95 604.65" fill="#707070" fill-rule="evenodd" stroke="none"/>
    <path d="M380.1 609.2 L381.25 607.65 381.75 608.0 380.6 609.55 380.1 609.2" fill="#707070" fill-rule="evenodd" stroke="none"/>
    <path d="M309.0 608.1 L305.95 606.25 306.5 605.35 306.55 605.4 306.7 605.2 309.6 606.95 309.5 607.15 309.55 607.2 309.0 608.1" fill="#707070" fill-rule="evenodd" stroke="none"/>
    <path d="M311.4 606.05 L312.95 603.45 313.85 604.0 312.3 606.55 311.4 606.05" fill="#707070" fill-rule="evenodd" stroke="none"/>
    <path d="M315.25 601.45 L315.0 601.95 313.3 600.9 313.6 600.45 315.25 601.45" fill="#707070" fill-rule="evenodd" stroke="none"/>
    <path d="M309.5 599.6 L308.7 600.95 307.85 600.5 308.7 599.1 309.5 599.6" fill="#707070" fill-rule="evenodd" stroke="none"/>
    <path d="M306.05 605.6 L305.75 606.15 304.05 605.15 304.4 604.6 306.05 605.6" fill="#707070" fill-rule="evenodd" stroke="none"/>
    <path d="M309.65 609.2 L309.95 608.7 310.95 609.3 310.65 609.8 309.65 609.2" fill="#707070" fill-rule="evenodd" stroke="none"/>
    <path d="M314.95 602.55 L314.95 602.3 315.0 602.1 315.15 601.9 315.35 601.8 315.6 601.8 315.8 601.85 315.95 602.0 316.1 602.2 316.1 602.4 316.05 602.65 315.9 602.8 315.7 602.95 315.45 602.95 315.25 602.9 315.1 602.75 314.95 602.55" fill="#707070" fill-rule="evenodd" stroke="none"/>
    <path d="M310.45 598.55 L310.15 599.05 308.95 598.35 309.25 597.85 310.45 598.55" fill="#707070" fill-rule="evenodd" stroke="none"/>
    <path d="M311.1 633.9 L311.25 633.8 312.0 634.85 311.8 635.0 311.1 633.9" fill="#ffffff" fill-rule="evenodd" stroke="none"/>
    <path d="M309.0 641.2 L310.1 640.5 310.2 640.65 309.1 641.4 309.0 641.2" fill="#ffffff" fill-rule="evenodd" stroke="none"/>
    <path d="M326.2 583.7 L327.05 582.7 327.25 582.9 326.35 583.85 326.2 583.7" fill="#ffffff" fill-rule="evenodd" stroke="none"/>
    <path d="M331.55 584.8 L331.65 584.65 332.65 585.5 332.5 585.65 331.55 584.8" fill="#ffffff" fill-rule="evenodd" stroke="none"/>
    <path d="M378.3 608.6 L378.4 608.45 379.0 608.9 378.9 609.05 378.3 608.6" fill="#ffffff" fill-rule="evenodd" stroke="none"/>
    <path d="M385.4 607.7 L385.55 607.85 385.15 608.4 385.0 608.3 385.4 607.7" fill="#ffffff" fill-rule="evenodd" stroke="none"/>
    <path d="M310.85 599.25 L312.1 597.2 314.15 598.45 312.9 600.5 310.85 599.25" fill="#ffffff" fill-rule="evenodd" stroke="none"/>
    <path d="M305.4 601.55 L306.15 600.3 306.35 600.4 305.55 601.65 305.4 601.55" fill="#ffffff" fill-rule="evenodd" stroke="none"/>
  </g>
</svg>
