<?xml version="1.0" encoding="UTF-8" standalone="no"?>
<svg xmlns:ffdec="https://www.free-decompiler.com/flash" xmlns:xlink="http://www.w3.org/1999/xlink" ffdec:objectType="shape" height="82.7px" width="53.55px" xmlns="http://www.w3.org/2000/svg">
  <g transform="matrix(1.0, 0.0, 0.0, 1.0, -276.2, -555.2)">
    <path d="M299.25 577.25 L300.75 575.1 315.3 561.3 327.45 555.2 329.75 559.55 321.6 564.5 314.25 572.75 310.75 579.85 307.15 584.5 307.85 585.0 306.6 587.35 321.85 596.85 308.2 617.75 287.8 605.7 286.35 608.05 281.5 624.1 281.05 637.9 276.2 637.75 276.6 623.35 281.8 606.05 283.65 603.1 277.15 599.1 293.2 572.25 299.25 577.25" fill="#434343" fill-rule="evenodd" stroke="none"/>
    <path d="M326.9 556.9 L328.05 559.05 316.85 565.05 316.4 565.45 316.2 565.2 313.35 567.85 313.6 568.1 304.4 576.75 304.0 577.4 303.65 577.15 301.5 580.65 301.8 580.85 299.55 584.5 299.75 584.6 296.55 589.75 294.05 588.2 297.25 583.1 297.5 583.2 299.75 579.55 300.1 579.8 302.25 576.3 301.9 576.1 302.5 575.2 302.6 575.25 302.5 575.15 311.95 566.3 312.2 566.6 315.05 563.95 314.75 563.7 315.7 562.9 326.9 556.9" fill="#000000" fill-rule="evenodd" stroke="none"/>
    <path d="M292.5 590.75 L295.0 592.3 290.25 599.9 290.0 599.75 287.65 603.55 287.3 603.4 285.25 606.7 285.6 606.9 285.2 607.55 281.55 619.65 281.25 619.55 280.1 623.25 280.45 623.35 280.25 623.9 279.85 636.6 277.45 636.55 277.75 623.8 278.1 622.65 278.5 622.75 279.6 619.05 279.2 618.95 282.95 606.6 283.1 606.6 283.0 606.55 283.55 605.65 283.9 605.85 285.95 602.5 285.6 602.3 287.95 598.5 287.75 598.4 292.5 590.75" fill="#000000" fill-rule="evenodd" stroke="none"/>
    <path d="M305.55 592.25 L303.9 591.2 304.25 590.65 305.9 591.7 305.55 592.25" fill="#000000" fill-rule="evenodd" stroke="none"/>
    <path d="M303.0 590.65 L301.35 589.6 301.7 589.1 303.35 590.1 303.0 590.65" fill="#000000" fill-rule="evenodd" stroke="none"/>
    <path d="M308.1 593.8 L306.4 592.75 306.75 592.2 308.4 593.25 308.1 593.8" fill="#000000" fill-rule="evenodd" stroke="none"/>
    <path d="M310.85 601.75 L310.5 602.3 311.05 602.6 311.35 602.1 310.85 601.75 M307.95 600.7 L308.5 601.0 308.8 600.5 308.3 600.15 307.95 600.7 M310.4 597.95 L309.9 597.6 309.55 598.15 310.1 598.5 310.4 597.95 M312.1 599.75 L312.65 600.05 312.95 599.55 312.45 599.2 312.1 599.75 M299.0 598.85 L299.4 598.2 298.75 597.8 298.35 598.45 299.0 598.85 M301.55 600.4 L301.9 599.75 301.3 599.35 300.9 600.0 301.55 600.4 M305.05 594.75 L305.15 594.6 304.55 594.25 304.45 594.35 304.3 594.25 304.0 594.7 304.2 594.8 304.1 594.95 304.7 595.3 304.8 595.2 304.95 595.3 305.2 594.85 305.05 594.75 M302.65 593.25 L302.5 593.15 302.55 593.0 301.95 592.65 301.85 592.75 301.7 592.65 301.45 593.1 301.6 593.2 301.5 593.35 302.15 593.7 302.2 593.6 302.4 593.7 302.65 593.25 M311.85 568.15 L314.65 569.4 309.55 580.35 306.4 584.25 305.5 583.45 305.35 583.6 306.8 584.8 304.45 588.7 301.1 586.6 300.95 586.85 301.6 587.25 298.6 592.1 298.7 592.15 298.95 591.75 299.6 592.15 299.7 592.0 299.85 592.1 300.1 591.7 299.95 591.6 300.05 591.45 299.75 591.25 300.85 589.5 301.15 589.65 301.2 589.55 303.15 590.7 303.05 590.85 303.7 591.25 303.75 591.1 305.7 592.3 305.6 592.45 306.25 592.85 306.3 592.7 308.25 593.9 308.15 594.0 308.5 594.25 307.4 596.0 307.15 595.85 307.05 595.95 306.85 595.85 306.65 596.2 306.85 596.3 306.75 596.45 307.5 596.9 307.9 596.3 307.6 596.15 308.8 594.2 309.05 594.35 309.4 593.8 309.15 593.65 310.4 591.6 310.7 591.75 311.4 590.65 313.45 591.9 312.75 593.0 312.95 593.1 311.65 595.2 311.45 595.05 311.1 595.6 311.65 595.9 311.75 595.8 312.1 596.0 312.3 595.7 313.6 596.5 313.4 596.85 313.75 597.05 313.65 597.15 314.2 597.5 314.55 596.95 314.4 596.85 315.65 594.85 315.8 594.95 316.5 593.8 318.55 595.1 317.85 596.2 319.05 596.95 317.75 599.0 316.55 598.25 316.25 598.75 317.45 599.5 316.15 601.55 314.95 600.8 314.65 601.3 315.85 602.05 314.55 604.1 313.35 603.35 313.1 603.85 314.3 604.6 313.0 606.65 308.7 603.95 308.5 604.3 309.05 604.65 308.95 604.85 309.45 605.15 309.55 605.0 311.65 606.25 311.55 606.4 312.7 607.15 311.4 609.2 310.25 608.45 310.0 608.85 309.6 608.65 309.45 608.8 309.35 608.95 309.25 609.05 309.1 609.15 308.95 609.2 308.55 609.2 308.4 609.15 308.2 608.95 308.15 608.85 308.1 608.7 308.1 608.25 308.15 608.1 308.25 607.95 308.3 607.8 307.9 607.6 308.15 607.15 307.7 606.85 307.45 607.25 307.05 607.05 306.9 607.25 306.8 607.35 306.65 607.45 306.55 607.55 306.4 607.6 306.25 607.6 306.1 607.65 306.0 607.6 305.85 607.55 305.75 607.5 305.65 607.4 305.6 607.25 305.55 607.15 305.5 607.0 305.5 606.85 305.65 606.35 305.75 606.25 305.4 606.0 305.65 605.6 305.15 605.3 304.9 605.7 304.5 605.45 304.25 605.8 304.15 605.9 303.7 606.05 303.45 606.05 303.35 606.0 303.2 605.9 303.15 605.8 303.05 605.7 303.0 605.55 303.0 605.1 303.05 604.95 303.15 604.8 303.2 604.65 302.85 604.4 303.1 604.0 302.8 603.85 304.15 601.65 306.5 603.05 306.4 603.25 306.9 603.6 307.0 603.4 307.55 603.75 307.8 603.4 304.4 601.3 305.65 599.25 305.95 599.45 306.25 598.95 305.55 598.5 305.55 598.45 305.45 598.6 303.55 597.45 303.65 597.3 303.5 597.2 303.55 597.1 303.6 597.05 302.95 596.65 302.85 596.8 302.7 596.75 302.45 596.6 302.25 596.85 302.7 597.15 302.45 597.45 303.1 597.85 303.3 597.5 305.35 598.8 305.25 599.0 305.4 599.1 304.15 601.1 304.1 601.1 303.85 600.95 303.45 601.6 303.75 601.75 302.55 603.7 302.25 603.5 300.8 605.8 298.95 604.65 300.35 602.35 299.7 601.9 298.2 604.25 296.35 603.1 297.8 600.75 297.15 600.35 296.4 601.5 294.55 600.35 295.3 599.2 294.95 598.95 296.1 597.05 296.45 597.25 296.85 596.6 296.5 596.4 297.7 594.5 298.05 594.7 298.25 594.35 300.15 595.55 299.95 595.9 300.55 596.3 300.8 595.95 301.25 596.25 301.4 595.95 301.05 595.75 301.1 595.7 300.95 595.65 301.05 595.5 300.45 595.15 300.35 595.25 300.2 595.15 300.1 595.3 298.45 594.3 298.55 594.15 298.4 594.05 298.5 593.95 297.85 593.5 298.1 593.15 297.95 593.05 293.65 600.0 293.0 599.6 292.95 599.75 296.45 601.95 293.4 606.85 292.9 606.55 292.85 606.65 291.8 606.0 291.85 605.9 290.45 605.0 292.0 602.55 291.65 602.35 290.05 604.9 288.55 603.95 288.65 603.85 288.65 603.8 287.8 603.3 288.7 601.85 289.35 602.25 289.85 601.05 291.25 598.7 291.85 599.1 291.95 598.95 291.35 598.6 291.45 598.45 291.25 598.3 295.0 592.3 292.5 590.75 292.65 590.5 292.5 590.4 292.55 590.3 292.55 590.25 291.95 589.9 291.85 590.05 291.75 589.95 291.75 590.0 291.7 590.0 291.65 590.15 290.0 589.1 290.1 589.0 290.05 588.95 290.1 588.95 289.95 588.85 290.0 588.75 289.4 588.35 289.3 588.45 289.2 588.35 289.05 588.55 287.4 587.55 287.55 587.3 287.4 587.25 287.5 587.15 287.15 586.95 288.3 585.15 288.6 585.35 288.7 585.25 288.8 585.3 288.85 585.25 289.2 585.45 289.3 585.3 290.3 585.9 290.2 586.05 290.5 586.25 290.45 586.35 290.55 586.4 290.5 586.5 291.15 586.9 291.2 586.8 291.35 586.9 291.45 586.8 293.1 587.8 293.0 587.95 293.1 588.0 293.05 588.1 293.7 588.5 293.75 588.4 293.9 588.5 294.05 588.2 296.55 589.75 299.0 585.85 299.2 585.95 299.3 585.8 299.85 586.15 300.0 585.95 299.45 585.6 301.5 582.8 300.8 582.35 301.7 580.95 302.5 581.45 302.6 581.35 304.4 582.85 304.6 582.65 303.85 582.0 307.0 578.65 311.85 568.15" fill="#000000" fill-rule="evenodd" stroke="none"/>
    <path d="M313.3 593.15 L315.45 594.45 314.0 596.75 311.9 595.4 313.3 593.15" fill="#000000" fill-rule="evenodd" stroke="none"/>
    <path d="M306.45 607.25 L305.85 606.9 306.2 606.3 306.8 606.7 306.45 607.25" fill="#000000" fill-rule="evenodd" stroke="none"/>
    <path d="M303.75 605.9 L303.1 605.5 303.5 604.85 304.15 605.3 303.75 605.9" fill="#000000" fill-rule="evenodd" stroke="none"/>
    <path d="M308.9 609.1 L308.2 608.7 308.6 608.05 309.3 608.45 308.9 609.1" fill="#000000" fill-rule="evenodd" stroke="none"/>
    <path d="M311.45 608.35 L310.65 607.85 311.2 607.0 311.95 607.5 311.45 608.35" fill="#000000" fill-rule="evenodd" stroke="none"/>
    <path d="M314.4 601.4 L315.5 602.1 314.4 603.85 313.3 603.2 314.4 601.4" fill="#000000" fill-rule="evenodd" stroke="none"/>
    <path d="M308.7 594.5 L309.25 594.85 308.3 596.45 307.7 596.1 308.7 594.5" fill="#000000" fill-rule="evenodd" stroke="none"/>
    <path d="M304.65 599.6 L302.85 598.45 303.35 597.6 305.15 598.75 304.65 599.6" fill="#000000" fill-rule="evenodd" stroke="none"/>
    <path d="M303.2 601.5 L303.65 601.8 302.5 603.65 302.05 603.35 303.2 601.5" fill="#000000" fill-rule="evenodd" stroke="none"/>
    <path d="M297.1 596.7 L296.55 596.35 297.6 594.65 298.15 595.0 297.1 596.7" fill="#000000" fill-rule="evenodd" stroke="none"/>
    <path d="M298.4 594.5 L300.0 595.55 299.8 595.95 298.15 594.9 298.4 594.5" fill="#000000" fill-rule="evenodd" stroke="none"/>
    <path d="M295.55 599.15 L295.0 598.85 296.05 597.15 296.6 597.5 295.55 599.15" fill="#000000" fill-rule="evenodd" stroke="none"/>
    <path d="M297.35 601.5 L299.2 602.65 298.65 603.55 296.85 602.4 297.35 601.5" fill="#000000" fill-rule="evenodd" stroke="none"/>
    <path d="M296.85 602.5 L298.55 603.6 298.2 604.2 296.45 603.1 296.85 602.5" fill="#000000" fill-rule="evenodd" stroke="none"/>
    <path d="M301.1 605.15 L300.75 605.75 299.0 604.7 299.4 604.1 301.1 605.15" fill="#000000" fill-rule="evenodd" stroke="none"/>
    <path d="M317.75 598.8 L316.6 598.1 317.0 597.45 318.15 598.15 317.75 598.8" fill="#000000" fill-rule="evenodd" stroke="none"/>
    <path d="M318.2 598.15 L317.85 597.95 318.2 597.4 318.55 597.6 318.2 598.15" fill="#000000" fill-rule="evenodd" stroke="none"/>
    <path d="M318.7 597.4 L318.2 597.1 318.45 596.7 318.95 597.0 318.7 597.4" fill="#000000" fill-rule="evenodd" stroke="none"/>
    <path d="M317.75 596.8 L317.35 596.6 317.6 596.2 318.0 596.45 317.75 596.8" fill="#000000" fill-rule="evenodd" stroke="none"/>
    <path d="M316.45 599.15 L316.25 599.5 315.9 599.35 316.05 598.95 316.45 599.15 M316.9 599.35 L317.05 599.9 316.0 600.15 316.1 600.5 314.95 600.75 314.9 600.4 314.65 600.45 314.5 599.9 314.75 599.85 314.65 599.45 315.8 599.2 315.9 599.6 316.25 599.5 316.9 599.35" fill="#000000" fill-rule="evenodd" stroke="none"/>
    <path d="M317.7 594.6 L318.35 595.05 317.65 596.15 317.0 595.75 317.25 595.4 316.45 594.9 316.85 594.25 317.65 594.75 317.7 594.6" fill="#000000" fill-rule="evenodd" stroke="none"/>
    <path d="M313.7 605.25 L313.15 604.95 313.55 604.3 314.1 604.65 313.7 605.25" fill="#000000" fill-rule="evenodd" stroke="none"/>
    <path d="M312.4 605.55 L312.7 605.05 313.0 604.9 313.65 605.3 313.35 605.8 313.05 605.95 313.0 605.95 312.75 606.35 312.35 606.1 312.65 605.7 312.4 605.55" fill="#000000" fill-rule="evenodd" stroke="none"/>
    <path d="M305.0 600.65 L305.6 601.0 305.25 601.7 304.6 601.35 305.0 600.65" fill="#000000" fill-rule="evenodd" stroke="none"/>
    <path d="M305.2 600.15 L305.6 600.35 305.35 600.75 305.0 600.55 305.2 600.15" fill="#000000" fill-rule="evenodd" stroke="none"/>
    <path d="M312.85 591.55 L313.3 591.85 312.9 592.55 312.4 592.25 312.85 591.55" fill="#000000" fill-rule="evenodd" stroke="none"/>
    <path d="M310.05 593.6 L309.8 593.4 309.55 593.75 309.25 593.55 309.9 592.45 310.55 592.85 310.05 593.6" fill="#000000" fill-rule="evenodd" stroke="none"/>
    <path d="M310.35 591.7 L310.7 591.95 310.45 592.35 310.1 592.1 310.35 591.7" fill="#000000" fill-rule="evenodd" stroke="none"/>
    <path d="M295.45 597.1 L294.85 596.75 295.9 595.05 296.5 595.45 295.45 597.1" fill="#000000" fill-rule="evenodd" stroke="none"/>
    <path d="M314.6 569.6 L314.5 569.55 314.55 569.4 312.0 568.2 309.65 573.4 310.15 573.65 310.05 573.9 309.3 573.55 311.9 567.85 315.0 569.35 309.65 580.45 306.45 584.3 306.25 584.15 307.15 583.1 307.0 582.95 307.25 582.65 307.4 582.75 309.05 580.8 309.0 580.7 309.35 580.3 309.6 579.85 309.65 579.9 310.8 577.55 310.65 577.5 310.85 577.15 310.95 577.2 312.05 574.9 311.9 574.85 312.1 574.5 312.2 574.55 313.35 572.25 313.2 572.2 313.35 571.8 313.5 571.85 314.6 569.6" fill="#000000" fill-rule="evenodd" stroke="none"/>
    <path d="M305.0 581.25 L304.9 581.15 303.9 582.25 303.7 582.05 304.95 580.7 305.0 580.7 306.75 578.8 308.15 575.95 308.9 576.3 308.8 576.55 308.25 576.25 306.95 578.95 305.15 580.85 305.25 580.95 305.0 581.25" fill="#000000" fill-rule="evenodd" stroke="none"/>
    <path d="M326.9 556.9 L328.05 559.05 316.85 565.05 316.4 565.45 316.2 565.2 313.35 567.85 313.6 568.1 304.4 576.75 304.0 577.4 303.65 577.15 301.5 580.65 301.8 580.85 299.55 584.5 299.75 584.6 296.55 589.75 294.05 588.2 297.25 583.1 297.5 583.2 299.75 579.55 300.1 579.8 302.25 576.3 301.9 576.1 302.5 575.2 302.6 575.25 302.5 575.15 311.95 566.3 312.2 566.6 315.05 563.95 314.75 563.7 315.7 562.9 326.9 556.9" fill="#707070" fill-rule="evenodd" stroke="none"/>
    <path d="M292.5 590.75 L295.0 592.3 290.25 599.9 290.0 599.75 287.65 603.55 287.3 603.4 285.25 606.7 285.6 606.9 285.2 607.55 281.55 619.65 281.25 619.55 280.1 623.25 280.45 623.35 280.25 623.9 279.85 636.6 277.45 636.55 277.75 623.8 278.1 622.65 278.5 622.75 279.6 619.05 279.2 618.95 282.95 606.6 283.1 606.6 283.0 606.55 283.55 605.65 283.9 605.85 285.95 602.5 285.6 602.3 287.95 598.5 287.75 598.4 292.5 590.75" fill="#707070" fill-rule="evenodd" stroke="none"/>
    <path d="M305.55 592.25 L303.9 591.2 304.25 590.65 305.9 591.7 305.55 592.25" fill="#707070" fill-rule="evenodd" stroke="none"/>
    <path d="M303.0 590.65 L301.35 589.6 301.7 589.1 303.35 590.1 303.0 590.65" fill="#707070" fill-rule="evenodd" stroke="none"/>
    <path d="M308.1 593.8 L306.4 592.75 306.75 592.2 308.4 593.25 308.1 593.8" fill="#707070" fill-rule="evenodd" stroke="none"/>
    <path d="M310.85 601.75 L310.5 602.3 311.05 602.6 311.35 602.1 310.85 601.75 M307.95 600.7 L308.5 601.0 308.8 600.5 308.3 600.15 307.95 600.7 M310.4 597.95 L309.9 597.6 309.55 598.15 310.1 598.5 310.4 597.95 M312.1 599.75 L312.65 600.05 312.95 599.55 312.45 599.2 312.1 599.75 M299.0 598.85 L299.4 598.2 298.75 597.8 298.35 598.45 299.0 598.85 M301.55 600.4 L301.9 599.75 301.3 599.35 300.9 600.0 301.55 600.4 M305.05 594.75 L305.15 594.6 304.55 594.25 304.45 594.35 304.3 594.25 304.0 594.7 304.2 594.8 304.1 594.95 304.7 595.3 304.8 595.2 304.95 595.3 305.2 594.85 305.05 594.75 M302.65 593.25 L302.5 593.15 302.55 593.0 301.95 592.65 301.85 592.75 301.7 592.65 301.45 593.1 301.6 593.2 301.5 593.35 302.15 593.7 302.2 593.6 302.4 593.7 302.65 593.25 M311.85 568.15 L314.65 569.4 309.55 580.35 306.4 584.25 305.5 583.45 305.35 583.6 306.8 584.8 304.45 588.7 301.1 586.6 300.95 586.85 301.6 587.25 298.6 592.1 298.7 592.15 298.95 591.75 299.6 592.15 299.7 592.0 299.85 592.1 300.1 591.7 299.95 591.6 300.05 591.45 299.75 591.25 300.85 589.5 301.15 589.65 301.2 589.55 303.15 590.7 303.05 590.85 303.7 591.25 303.75 591.1 305.7 592.3 305.6 592.45 306.25 592.85 306.3 592.7 308.25 593.9 308.15 594.0 308.5 594.25 307.4 596.0 307.15 595.85 307.05 595.95 306.85 595.85 306.65 596.2 306.85 596.3 306.75 596.45 307.5 596.9 307.9 596.3 307.6 596.15 308.8 594.2 309.05 594.35 309.4 593.8 309.15 593.65 310.4 591.6 310.7 591.75 311.4 590.65 313.45 591.9 312.75 593.0 312.95 593.1 311.65 595.2 311.45 595.05 311.1 595.6 311.65 595.9 311.75 595.8 312.1 596.0 312.3 595.7 313.6 596.5 313.4 596.85 313.75 597.05 313.65 597.15 314.2 597.5 314.55 596.95 314.4 596.85 315.65 594.85 315.8 594.95 316.5 593.8 318.55 595.1 317.85 596.2 319.05 596.95 317.75 599.0 316.55 598.25 316.25 598.75 317.45 599.5 316.15 601.55 314.95 600.8 314.65 601.3 315.85 602.05 314.55 604.1 313.35 603.35 313.1 603.85 314.3 604.6 313.0 606.65 308.7 603.95 308.5 604.3 309.05 604.65 308.95 604.85 309.45 605.15 309.55 605.0 311.65 606.25 311.55 606.4 312.7 607.15 311.4 609.2 310.25 608.45 310.0 608.85 309.6 608.65 309.45 608.8 309.35 608.95 309.25 609.05 309.1 609.15 308.95 609.2 308.55 609.2 308.4 609.15 308.2 608.95 308.15 608.85 308.1 608.7 308.1 608.25 308.15 608.1 308.25 607.95 308.3 607.8 307.9 607.6 308.15 607.15 307.7 606.85 307.45 607.25 307.05 607.05 306.9 607.25 306.8 607.35 306.65 607.45 306.55 607.55 306.4 607.6 306.25 607.6 306.1 607.65 306.0 607.6 305.85 607.55 305.75 607.5 305.65 607.4 305.6 607.25 305.55 607.15 305.5 607.0 305.5 606.85 305.65 606.35 305.75 606.25 305.4 606.0 305.65 605.6 305.15 605.3 304.9 605.7 304.5 605.45 304.25 605.8 304.15 605.9 303.7 606.05 303.45 606.05 303.35 606.0 303.2 605.9 303.15 605.8 303.05 605.7 303.0 605.55 303.0 605.1 303.05 604.95 303.15 604.8 303.2 604.65 302.85 604.4 303.1 604.0 302.8 603.85 304.15 601.65 306.5 603.05 306.4 603.25 306.9 603.6 307.0 603.4 307.55 603.75 307.8 603.4 304.4 601.3 305.65 599.25 305.95 599.45 306.25 598.95 305.55 598.5 305.55 598.45 305.45 598.6 303.55 597.45 303.65 597.3 303.5 597.2 303.55 597.1 303.6 597.05 302.95 596.65 302.85 596.8 302.7 596.75 302.45 596.6 302.25 596.85 302.7 597.15 302.45 597.45 303.1 597.85 303.3 597.5 305.35 598.8 305.25 599.0 305.4 599.1 304.15 601.1 304.1 601.1 303.85 600.95 303.45 601.6 303.75 601.75 302.55 603.7 302.25 603.5 300.8 605.8 298.95 604.65 300.35 602.35 299.7 601.9 298.2 604.25 296.35 603.1 297.8 600.75 297.15 600.35 296.4 601.5 294.55 600.35 295.3 599.2 294.95 598.95 296.1 597.05 296.45 597.25 296.85 596.6 296.5 596.4 297.7 594.5 298.05 594.7 298.25 594.35 300.15 595.55 299.95 595.9 300.55 596.3 300.8 595.95 301.25 596.25 301.4 595.95 301.05 595.75 301.1 595.7 300.95 595.65 301.05 595.5 300.45 595.15 300.35 595.25 300.2 595.15 300.1 595.3 298.45 594.3 298.55 594.15 298.4 594.05 298.5 593.95 297.85 593.5 298.1 593.15 297.95 593.05 293.65 600.0 293.0 599.6 292.95 599.75 296.45 601.95 293.4 606.85 292.9 606.55 292.85 606.65 291.8 606.0 291.85 605.9 290.45 605.0 292.0 602.55 291.65 602.35 290.05 604.9 288.55 603.95 288.65 603.85 288.65 603.8 287.8 603.3 288.7 601.85 289.35 602.25 289.85 601.05 291.25 598.7 291.85 599.1 291.95 598.95 291.35 598.6 291.45 598.45 291.25 598.3 295.0 592.3 292.5 590.75 292.65 590.5 292.5 590.4 292.55 590.3 292.55 590.25 291.95 589.9 291.85 590.05 291.75 589.95 291.75 590.0 291.7 590.0 291.65 590.15 290.0 589.1 290.1 589.0 290.05 588.95 290.1 588.95 289.95 588.85 290.0 588.75 289.4 588.35 289.3 588.45 289.2 588.35 289.05 588.55 287.4 587.55 287.55 587.3 287.4 587.25 287.5 587.15 287.15 586.95 288.3 585.15 288.6 585.35 288.7 585.25 288.8 585.3 288.85 585.25 289.2 585.45 289.3 585.3 290.3 585.9 290.2 586.05 290.5 586.25 290.45 586.35 290.55 586.4 290.5 586.5 291.15 586.9 291.2 586.8 291.35 586.9 291.45 586.8 293.1 587.8 293.0 587.95 293.1 588.0 293.05 588.1 293.7 588.5 293.75 588.4 293.9 588.5 294.05 588.2 296.55 589.75 299.0 585.85 299.2 585.95 299.3 585.8 299.85 586.15 300.0 585.95 299.45 585.6 301.5 582.8 300.8 582.35 301.7 580.95 302.5 581.45 302.6 581.35 304.4 582.85 304.6 582.65 303.85 582.0 307.0 578.65 311.85 568.15" fill="#969696" fill-rule="evenodd" stroke="none"/>
    <path d="M313.3 593.15 L315.45 594.45 314.0 596.75 311.9 595.4 313.3 593.15" fill="#ffffff" fill-rule="evenodd" stroke="none"/>
    <path d="M306.45 607.25 L305.85 606.9 306.2 606.3 306.8 606.7 306.45 607.25" fill="#707070" fill-rule="evenodd" stroke="none"/>
    <path d="M303.75 605.9 L303.1 605.5 303.5 604.85 304.15 605.3 303.75 605.9" fill="#707070" fill-rule="evenodd" stroke="none"/>
    <path d="M308.9 609.1 L308.2 608.7 308.6 608.05 309.3 608.45 308.9 609.1" fill="#707070" fill-rule="evenodd" stroke="none"/>
    <path d="M311.45 608.35 L310.65 607.85 311.2 607.0 311.95 607.5 311.45 608.35" fill="#707070" fill-rule="evenodd" stroke="none"/>
    <path d="M314.4 601.4 L315.5 602.1 314.4 603.85 313.3 603.2 314.4 601.4" fill="#707070" fill-rule="evenodd" stroke="none"/>
    <path d="M308.7 594.5 L309.25 594.85 308.3 596.45 307.7 596.1 308.7 594.5" fill="#707070" fill-rule="evenodd" stroke="none"/>
    <path d="M304.65 599.6 L302.85 598.45 303.35 597.6 305.15 598.75 304.65 599.6" fill="#707070" fill-rule="evenodd" stroke="none"/>
    <path d="M303.2 601.5 L303.65 601.8 302.5 603.65 302.05 603.35 303.2 601.5" fill="#707070" fill-rule="evenodd" stroke="none"/>
    <path d="M297.1 596.7 L296.55 596.35 297.6 594.65 298.15 595.0 297.1 596.7" fill="#707070" fill-rule="evenodd" stroke="none"/>
    <path d="M298.4 594.5 L300.0 595.55 299.8 595.95 298.15 594.9 298.4 594.5" fill="#707070" fill-rule="evenodd" stroke="none"/>
    <path d="M295.55 599.15 L295.0 598.85 296.05 597.15 296.6 597.5 295.55 599.15" fill="#707070" fill-rule="evenodd" stroke="none"/>
    <path d="M297.35 601.5 L299.2 602.65 298.65 603.55 296.85 602.4 297.35 601.5" fill="#707070" fill-rule="evenodd" stroke="none"/>
    <path d="M296.85 602.5 L298.55 603.6 298.2 604.2 296.45 603.1 296.85 602.5" fill="#707070" fill-rule="evenodd" stroke="none"/>
    <path d="M301.1 605.15 L300.75 605.75 299.0 604.7 299.4 604.1 301.1 605.15" fill="#707070" fill-rule="evenodd" stroke="none"/>
    <path d="M317.75 598.8 L316.6 598.1 317.0 597.45 318.15 598.15 317.75 598.8" fill="#707070" fill-rule="evenodd" stroke="none"/>
    <path d="M318.2 598.15 L317.85 597.95 318.2 597.4 318.55 597.6 318.2 598.15" fill="#707070" fill-rule="evenodd" stroke="none"/>
    <path d="M318.7 597.4 L318.2 597.1 318.45 596.7 318.95 597.0 318.7 597.4" fill="#707070" fill-rule="evenodd" stroke="none"/>
    <path d="M317.75 596.8 L317.35 596.6 317.6 596.2 318.0 596.45 317.75 596.8" fill="#707070" fill-rule="evenodd" stroke="none"/>
    <path d="M316.45 599.15 L316.25 599.5 315.9 599.35 316.05 598.95 316.45 599.15 M316.9 599.35 L317.05 599.9 316.0 600.15 316.1 600.5 314.95 600.75 314.9 600.4 314.65 600.45 314.5 599.9 314.75 599.85 314.65 599.45 315.8 599.2 315.9 599.6 316.25 599.5 316.9 599.35" fill="#707070" fill-rule="evenodd" stroke="none"/>
    <path d="M317.7 594.6 L318.35 595.05 317.65 596.15 317.0 595.75 317.25 595.4 316.45 594.9 316.85 594.25 317.65 594.75 317.7 594.6" fill="#707070" fill-rule="evenodd" stroke="none"/>
    <path d="M313.7 605.25 L313.15 604.95 313.55 604.3 314.1 604.65 313.7 605.25" fill="#707070" fill-rule="evenodd" stroke="none"/>
    <path d="M312.4 605.55 L312.7 605.05 313.0 604.9 313.65 605.3 313.35 605.8 313.05 605.95 313.0 605.95 312.75 606.35 312.35 606.1 312.65 605.7 312.4 605.55" fill="#707070" fill-rule="evenodd" stroke="none"/>
    <path d="M305.0 600.65 L305.6 601.0 305.25 601.7 304.6 601.35 305.0 600.65" fill="#707070" fill-rule="evenodd" stroke="none"/>
    <path d="M305.2 600.15 L305.6 600.35 305.35 600.75 305.0 600.55 305.2 600.15" fill="#707070" fill-rule="evenodd" stroke="none"/>
    <path d="M312.85 591.55 L313.3 591.85 312.9 592.55 312.4 592.25 312.85 591.55" fill="#707070" fill-rule="evenodd" stroke="none"/>
    <path d="M310.05 593.6 L309.8 593.4 309.55 593.75 309.25 593.55 309.9 592.45 310.55 592.85 310.05 593.6" fill="#707070" fill-rule="evenodd" stroke="none"/>
    <path d="M310.35 591.7 L310.7 591.95 310.45 592.35 310.1 592.1 310.35 591.7" fill="#707070" fill-rule="evenodd" stroke="none"/>
    <path d="M295.45 597.1 L294.85 596.75 295.9 595.05 296.5 595.45 295.45 597.1" fill="#707070" fill-rule="evenodd" stroke="none"/>
    <path d="M314.6 569.6 L314.5 569.55 314.55 569.4 312.0 568.2 309.65 573.4 310.15 573.65 310.05 573.9 309.3 573.55 311.9 567.85 315.0 569.35 309.65 580.45 306.45 584.3 306.25 584.15 307.15 583.1 307.0 582.95 307.25 582.65 307.4 582.75 309.05 580.8 309.0 580.7 309.35 580.3 309.6 579.85 309.65 579.9 310.8 577.55 310.65 577.5 310.85 577.15 310.95 577.2 312.05 574.9 311.9 574.85 312.1 574.5 312.2 574.55 313.35 572.25 313.2 572.2 313.35 571.8 313.5 571.85 314.6 569.6" fill="#707070" fill-rule="evenodd" stroke="none"/>
    <path d="M305.0 581.25 L304.9 581.15 303.9 582.25 303.7 582.05 304.95 580.7 305.0 580.7 306.75 578.8 308.15 575.95 308.9 576.3 308.8 576.55 308.25 576.25 306.95 578.95 305.15 580.85 305.25 580.95 305.0 581.25" fill="#707070" fill-rule="evenodd" stroke="none"/>
  </g>
</svg>
