<?xml version="1.0" encoding="UTF-8" standalone="no"?>
<svg xmlns:ffdec="https://www.free-decompiler.com/flash" xmlns:xlink="http://www.w3.org/1999/xlink" ffdec:objectType="shape" height="871.8px" width="1160.6px" xmlns="http://www.w3.org/2000/svg">
  <g transform="matrix(1.0, 0.0, 0.0, 1.0, 993.95, 548.0)">
    <path d="M-350.0 -535.0 L-346.75 -522.5 -346.75 -498.55 -345.65 -474.65 -344.15 -461.15 -340.65 -444.1 -336.2 -427.1 -331.2 -410.9 -323.75 -395.3 -314.0 -380.55 -304.1 -367.3 -290.2 -354.8 -276.15 -343.65 -257.8 -334.0 -238.65 -326.5 -219.05 -320.55 -198.7 -316.55 -179.5 -314.7 -50.5 -314.15 -39.8 -313.4 -28.25 -310.75 -20.0 -303.0 -16.75 -290.5 -16.75 -197.95 -15.5 -181.0 -12.75 -168.0 -8.25 -156.25 -1.0 -146.5 9.75 -139.5 20.75 -134.5 34.0 -132.0 128.5 -132.0 128.5 -15.0 132.75 -4.0 141.25 4.25 152.25 8.0 166.65 8.0 166.65 183.2 165.8 201.8 163.75 215.55 160.0 230.9 154.4 246.7 147.05 260.75 138.05 274.8 127.55 286.15 115.75 296.15 102.7 305.15 88.7 311.55 73.9 316.2 58.5 320.0 42.7 321.9 8.75 323.8 -658.8 323.8 -683.2 323.2 -711.0 320.0 -726.35 316.2 -741.15 311.05 -755.65 304.65 -769.2 296.15 -781.0 285.65 -791.5 273.8 -800.5 260.25 -807.35 246.2 -812.95 231.4 -816.2 214.55 -818.1 198.85 -819.15 184.9 -819.5 90.7 -821.95 71.55 -825.2 55.2 -828.55 44.3 -833.25 33.7 -839.65 23.75 -847.7 14.75 -857.2 6.9 -867.4 -0.1 -878.8 -5.7 -891.05 -10.1 -918.85 -15.5 -952.6 -15.25 -954.9 -15.0 -960.6 -15.2 -966.15 -16.2 -971.55 -18.1 -976.6 -20.7 -981.15 -24.05 -985.2 -28.05 -988.6 -32.65 -991.25 -37.65 -993.15 -43.0 -993.95 -48.65 -993.95 -210.35 -993.05 -221.8 -991.15 -233.3 -988.1 -245.0 -983.15 -256.15 -976.3 -266.55 -967.85 -276.9 -957.85 -285.0 -946.65 -291.7 -934.45 -296.9 -921.5 -300.45 -908.25 -302.25 -895.6 -303.45 -807.15 -304.3 -793.35 -305.9 -783.35 -308.4 -773.95 -312.3 -765.1 -317.05 -757.0 -322.6 -749.8 -329.3 -743.7 -335.95 -738.65 -343.2 -733.5 -352.6 -731.35 -361.05 -729.2 -372.4 -727.9 -421.15 -725.0 -439.8 -717.8 -459.1 -708.3 -476.7 -696.3 -492.7 -681.55 -506.2 -664.9 -517.95 -647.15 -527.15 -627.55 -535.4 -602.8 -543.2 -589.1 -546.1 -576.55 -547.5 -370.5 -548.0 -358.25 -542.75 -350.0 -535.0" fill="#434343" fill-rule="evenodd" stroke="none"/>
    <path d="M-284.1 -16.6 L-284.1 -20.85 -298.35 -20.85 -298.35 -16.6 -284.1 -16.6 M-357.0 22.75 L-360.3 22.75 -360.3 38.5 -364.75 38.5 -364.75 44.85 -373.5 44.85 -373.5 48.35 -470.75 48.35 -470.75 44.85 -479.1 44.85 -479.1 38.25 -486.85 38.25 -487.0 21.0 -490.55 21.0 -490.55 57.0 -483.3 57.0 -483.3 62.15 -480.05 62.15 -480.05 57.0 -357.0 57.0 -357.0 22.75 M-589.8 61.65 L-583.35 63.35 -577.3 66.15 -571.85 70.0 -567.25 74.65 -563.55 80.1 -560.9 86.05 -559.4 92.35 -559.1 124.0 -556.25 124.0 -556.25 113.8 -490.8 113.8 -490.8 115.5 -488.9 115.5 -488.9 96.1 -475.35 96.1 -475.35 94.05 -480.1 94.05 -480.1 88.0 -483.35 88.0 -483.35 94.05 -490.8 94.05 -490.8 109.4 -555.6 109.4 -555.95 92.85 -557.6 85.9 -560.45 79.35 -564.5 73.45 -569.6 68.3 -575.55 64.15 -582.15 61.05 -588.5 59.15 -603.45 58.3 -658.35 58.55 -665.5 59.15 -672.55 61.05 -679.15 64.15 -685.1 68.3 -690.2 73.45 -694.25 79.35 -697.1 85.9 -698.75 92.85 -699.1 110.5 -695.55 110.5 -695.3 92.35 -693.8 86.05 -691.15 80.1 -687.45 74.65 -682.85 70.0 -677.4 66.15 -671.35 63.35 -664.9 61.65 -651.05 60.8 -596.4 61.05 -589.8 61.65 M-597.8 -26.3 L-597.8 -21.3 -582.5 -21.3 -582.5 -26.3 -597.8 -26.3 M-661.75 -21.3 L-661.75 -26.3 -677.25 -26.3 -677.25 -21.3 -661.75 -21.3 M-435.4 -25.55 L-435.4 -21.5 -409.0 -21.5 -409.0 -25.55 -435.4 -25.55 M-506.0 -25.0 L-490.55 -25.0 -490.55 5.5 -487.0 5.5 -487.0 -32.05 -360.3 -32.05 -360.3 5.0 -357.0 5.0 -357.0 -30.55 -190.5 -30.55 -190.5 3.5 -186.5 3.5 -186.5 -30.55 -118.25 -30.55 -118.25 -28.05 -110.8 -28.05 -110.8 51.65 -186.5 51.65 -186.5 24.25 -190.5 24.25 -190.5 55.65 -151.0 55.65 -151.0 59.15 -125.75 59.15 -119.5 54.5 -106.8 54.5 -106.8 -30.05 -80.95 -30.05 -80.95 54.5 -72.75 54.5 -65.0 59.5 -54.3 59.5 -54.3 66.85 -52.65 66.85 -52.65 65.85 -41.15 65.85 -41.15 50.5 -17.1 50.5 -17.1 47.1 -22.85 47.1 -22.85 27.25 -29.65 27.25 -29.65 25.75 -31.1 25.75 -31.1 34.25 -60.0 34.25 -60.0 29.25 -76.35 29.25 -76.35 2.5 -60.0 2.5 -60.0 -2.25 -31.1 -2.25 -31.1 6.0 -29.65 6.0 -29.65 4.4 -22.85 4.4 -22.85 -15.95 -29.35 -15.95 -29.35 -28.5 -52.35 -28.5 -52.35 -120.65 17.75 -120.65 17.75 -52.2 19.6 -52.2 19.6 -120.65 93.15 -120.65 93.15 -83.5 89.0 -83.5 89.0 -63.5 93.2 -63.5 93.2 -33.8 67.5 -33.8 67.5 -27.5 61.5 -27.5 61.5 -25.35 89.85 -25.35 89.85 -0.1 75.85 -0.1 75.85 1.6 93.35 1.6 93.35 20.0 61.6 20.0 61.6 1.6 63.1 1.6 63.1 -0.1 61.75 -0.1 61.75 -6.25 41.1 -6.25 41.1 -4.35 59.85 -4.35 59.85 20.0 19.5 20.0 19.5 -4.35 28.35 -4.35 28.35 -6.25 19.6 -6.25 19.6 -25.35 41.75 -25.35 41.75 -27.5 19.6 -27.5 19.6 -32.45 17.55 -32.45 17.55 -15.95 8.25 -15.95 8.25 4.75 12.2 4.75 12.2 26.85 8.1 26.85 8.1 47.1 2.85 47.1 2.85 50.5 17.75 50.5 17.75 56.75 14.55 56.75 14.55 96.9 17.75 96.9 17.75 104.35 2.85 104.4 2.85 107.1 19.6 107.1 19.6 104.1 23.6 104.1 23.6 83.6 19.55 83.6 19.55 56.15 40.75 56.15 40.75 54.75 19.6 54.75 19.6 23.1 40.75 23.1 40.75 41.75 41.55 41.75 41.55 23.1 70.3 23.1 70.3 40.15 71.65 40.15 71.65 23.1 93.1 23.1 93.1 54.75 71.75 54.75 71.75 53.0 70.3 53.0 70.3 54.75 61.65 54.75 61.65 56.15 93.1 56.15 93.1 60.75 91.1 60.75 91.1 126.25 93.1 126.25 93.1 142.35 -18.6 142.35 -18.6 127.25 -20.75 127.25 -20.75 142.35 -59.1 142.35 -59.1 129.9 -53.9 129.9 -53.9 128.0 -57.25 120.75 -53.9 113.8 -53.9 112.6 -42.25 108.5 -30.6 112.1 -20.75 112.1 -20.75 114.85 -18.6 114.85 -18.6 107.1 -17.1 107.1 -17.1 104.4 -41.15 104.4 -41.15 87.75 -52.65 87.75 -52.65 86.75 -54.3 86.75 -54.3 94.5 -64.55 94.5 -64.55 95.75 -71.35 103.0 -73.1 104.2 -81.6 109.1 -83.85 109.1 -83.85 112.35 -84.4 112.35 -84.4 114.05 -79.85 114.05 -79.85 119.35 -77.45 119.35 -77.45 135.4 -79.85 135.4 -79.85 146.4 -109.85 146.4 -109.85 135.4 -112.25 135.4 -112.25 119.35 -109.85 119.35 -109.85 114.05 -105.35 114.05 -105.35 112.35 -106.1 112.35 -106.1 109.1 -107.95 109.1 -116.45 104.2 -118.2 103.0 -125.0 95.75 -124.95 94.5 -148.75 94.5 -148.75 83.85 -151.0 83.85 -151.0 89.1 -223.25 89.1 -223.25 59.5 -233.75 59.5 -233.75 63.85 -231.75 63.85 -231.75 82.0 -225.35 82.0 -225.35 100.6 -152.4 100.6 -152.4 141.1 -183.35 141.1 -183.35 144.15 -216.35 144.15 -216.35 141.1 -223.55 141.1 -223.55 144.15 -259.4 144.15 -259.4 141.6 -280.25 141.6 -280.25 109.85 -259.0 109.85 -259.0 108.6 -254.7 108.6 -254.75 107.55 -254.3 105.55 -251.35 99.75 -251.35 82.0 -248.75 82.0 -248.75 63.85 -246.5 63.85 -246.5 59.5 -256.75 59.5 -256.75 74.8 -262.65 74.8 -262.65 81.3 -256.75 81.3 -256.75 104.0 -315.75 104.0 -315.75 74.75 -330.95 74.75 -330.95 94.05 -332.1 94.05 -332.1 95.6 -330.95 95.6 -330.95 142.6 -417.0 142.6 -417.0 95.6 -416.5 95.6 -416.5 94.05 -421.0 94.05 -421.0 95.6 -419.0 95.6 -419.0 133.55 -435.5 133.55 -435.5 117.1 -444.05 117.1 -444.05 98.15 -435.8 98.15 -435.8 95.6 -433.35 95.6 -433.35 94.05 -455.85 94.05 -455.85 95.6 -450.65 95.6 -450.65 97.05 -447.55 97.05 -447.55 118.95 -446.15 119.95 -446.15 138.0 -448.95 139.6 -450.65 139.6 -450.65 142.6 -488.9 142.6 -488.9 128.4 -490.8 128.4 -490.8 142.6 -556.25 142.6 -556.25 140.75 -559.1 140.75 -559.1 142.6 -695.55 142.6 -695.55 140.75 -699.1 140.75 -699.1 142.6 -728.35 142.6 -738.65 141.55 -744.4 140.5 -755.45 136.75 -760.6 134.15 -765.55 131.05 -774.35 123.6 -781.55 114.6 -784.5 109.7 -786.9 104.5 -788.8 99.1 -790.2 93.55 -791.05 87.9 -791.8 70.0 -791.8 44.5 -791.05 26.6 -790.2 20.95 -788.8 15.4 -786.9 10.05 -784.5 4.85 -781.55 -0.05 -778.15 -4.7 -774.35 -9.0 -765.55 -16.5 -755.45 -22.2 -750.0 -24.3 -744.4 -25.9 -738.65 -27.0 -728.35 -28.05 -508.55 -28.05 -508.55 28.6 -506.0 28.6 -506.0 -25.0" fill="#969696" fill-rule="evenodd" stroke="none"/>
    <path d="M-72.0 106.1 L-80.65 111.1 -81.6 109.1 -73.1 104.2 -72.0 106.1" fill="#707070" fill-rule="evenodd" stroke="none"/>
    <path d="M-64.55 95.75 L-62.95 97.2 -69.75 104.5 -71.35 103.0 -64.55 95.75" fill="#707070" fill-rule="evenodd" stroke="none"/>
    <path d="M-117.55 106.1 L-116.45 104.2 -107.95 109.1 -108.95 111.1 -117.55 106.1" fill="#707070" fill-rule="evenodd" stroke="none"/>
    <path d="M-126.6 97.2 L-125.0 95.75 -118.2 103.0 -119.8 104.5 -126.6 97.2" fill="#707070" fill-rule="evenodd" stroke="none"/>
    <path d="M-31.1 32.75 L-31.1 38.6 -60.0 38.6 -60.0 32.75 -31.1 32.75" fill="#707070" fill-rule="evenodd" stroke="none"/>
    <path d="M-53.9 112.85 L-53.9 107.0 -30.6 107.0 -30.6 112.85 -53.9 112.85" fill="#707070" fill-rule="evenodd" stroke="none"/>
    <path d="M-53.9 113.8 L-53.9 128.0 -59.4 128.0 -59.4 113.8 -53.9 113.8" fill="#707070" fill-rule="evenodd" stroke="none"/>
    <path d="M-60.0 -0.85 L-60.0 -6.75 -31.1 -6.75 -31.1 -0.85 -60.0 -0.85" fill="#707070" fill-rule="evenodd" stroke="none"/>
    <path d="M-152.4 141.1 L-152.4 101.8 -148.05 101.8 -148.05 141.1 -152.4 141.1" fill="#707070" fill-rule="evenodd" stroke="none"/>
    <path d="M-254.75 82.5 L-251.35 82.5 -251.35 99.75 -254.75 99.75 -254.75 82.5" fill="#707070" fill-rule="evenodd" stroke="none"/>
    <path d="M86.5 -59.9 L88.7 -59.95 89.35 -59.9 90.55 -59.55 91.6 -58.95 92.4 -58.15 92.95 -57.2 93.2 -56.2 93.2 -33.8 82.65 -33.8 82.65 -56.2 82.9 -57.2 83.45 -58.15 84.25 -58.95 85.3 -59.55 86.5 -59.9" fill="#707070" fill-rule="evenodd" stroke="none"/>
    <path d="M17.75 -83.8 L17.75 -64.0 11.5 -64.0 11.5 -83.8 17.75 -83.8" fill="#707070" fill-rule="evenodd" stroke="none"/>
    <path d="M6.15 26.85 L6.15 4.75 12.2 4.75 12.2 26.85 6.15 26.85" fill="#707070" fill-rule="evenodd" stroke="none"/>
    <path d="M-23.15 -28.5 L-23.15 -52.8 -15.3 -52.8 -15.3 -20.8 -29.35 -20.8 -29.35 -28.5 -23.15 -28.5" fill="#707070" fill-rule="evenodd" stroke="none"/>
    <path d="M86.15 -25.35 L93.35 -25.35 93.35 -0.1 86.15 -0.1 86.15 -25.35" fill="#707070" fill-rule="evenodd" stroke="none"/>
    <path d="M87.2 9.35 L88.15 8.7 93.35 8.7 93.35 13.0 88.15 13.0 87.2 12.4 86.7 11.55 86.7 10.4 87.2 9.35" fill="#707070" fill-rule="evenodd" stroke="none"/>
    <path d="M19.5 20.0 L19.5 -4.35 24.25 -4.35 24.25 20.0 19.5 20.0" fill="#707070" fill-rule="evenodd" stroke="none"/>
    <path d="M19.6 -25.35 L27.75 -25.35 27.75 -6.25 19.6 -6.25 19.6 -25.35" fill="#707070" fill-rule="evenodd" stroke="none"/>
    <path d="M53.35 -1.1 L54.9 -1.2 56.65 -1.1 58.2 -0.5 59.3 0.6 59.65 2.0 59.65 16.3 59.3 17.7 58.2 18.8 56.65 19.45 54.9 19.55 53.35 19.45 51.8 18.8 50.7 17.7 50.3 16.3 50.3 2.0 50.7 0.6 51.8 -0.5 53.35 -1.1" fill="#707070" fill-rule="evenodd" stroke="none"/>
    <path d="M-25.7 -87.45 L-22.35 -87.3 -19.45 -85.6 -17.65 -82.75 -17.4 -79.45 -18.7 -76.35 -21.3 -74.25 -24.6 -73.55 -27.8 -74.5 -30.25 -76.8 -31.3 -80.0 -30.75 -83.3 -28.75 -86.0 -25.7 -87.45" fill="#707070" fill-rule="evenodd" stroke="none"/>
    <path d="M-20.45 -109.05 L-19.55 -111.8 -17.45 -113.85 -14.7 -114.7 -11.85 -114.15 -9.55 -112.35 -8.4 -109.65 -8.6 -106.75 -10.1 -104.3 -12.65 -102.8 -15.55 -102.65 -18.2 -103.9 -19.95 -106.2 -20.45 -109.05" fill="#707070" fill-rule="evenodd" stroke="none"/>
    <path d="M-138.5 -8.25 L-138.5 33.75 -157.0 33.75 -157.0 -8.25 -138.5 -8.25" fill="#707070" fill-rule="evenodd" stroke="none"/>
    <path d="M-209.0 99.0 L-209.0 89.1 -165.25 89.1 -165.25 99.0 -209.0 99.0" fill="#707070" fill-rule="evenodd" stroke="none"/>
    <path d="M-318.85 67.0 L-318.85 74.75 -327.15 74.75 -327.15 59.0 -278.4 59.0 -278.4 67.0 -318.85 67.0" fill="#707070" fill-rule="evenodd" stroke="none"/>
    <path d="M-315.75 107.0 L-315.75 100.15 -256.75 100.15 -256.75 107.0 -315.75 107.0" fill="#707070" fill-rule="evenodd" stroke="none"/>
    <path d="M-384.6 127.4 L-384.45 125.25 -383.8 123.2 -382.7 121.4 -381.15 119.85 -379.25 118.65 -377.15 117.95 -374.9 117.7 -372.7 117.95 -370.55 118.65 -368.7 119.85 -367.15 121.4 -366.0 123.2 -365.35 125.25 -365.25 127.4 -384.6 127.4" fill="#707070" fill-rule="evenodd" stroke="none"/>
    <path d="M-264.0 27.1 L-264.0 29.35 -285.5 29.35 -285.5 27.1 -264.0 27.1" fill="#707070" fill-rule="evenodd" stroke="none"/>
    <path d="M-280.8 -14.5 L-280.8 -23.3 -218.8 -23.3 -218.8 3.15 -227.15 3.15 -227.15 -14.5 -280.8 -14.5" fill="#707070" fill-rule="evenodd" stroke="none"/>
    <path d="M-331.65 -19.0 L-326.5 -19.0 -326.5 -24.75 -299.9 -24.75 -299.9 -15.4 -318.05 -15.4 -318.05 21.75 -326.5 21.75 -326.5 11.8 -331.65 11.8 -331.65 -19.0" fill="#707070" fill-rule="evenodd" stroke="none"/>
    <path d="M-436.8 98.15 L-436.8 117.1 -444.05 117.1 -444.05 98.15 -436.8 98.15" fill="#707070" fill-rule="evenodd" stroke="none"/>
    <path d="M-450.65 97.05 L-447.1 97.05 -447.1 118.5 -441.35 118.5 -441.35 139.6 -450.65 139.6 -450.65 97.05" fill="#707070" fill-rule="evenodd" stroke="none"/>
    <path d="M-537.25 116.8 L-537.25 113.8 -509.3 113.8 -509.3 116.8 -537.25 116.8" fill="#707070" fill-rule="evenodd" stroke="none"/>
    <path d="M-375.5 46.25 L-375.5 49.75 -469.5 49.75 -469.5 46.25 -375.5 46.25" fill="#707070" fill-rule="evenodd" stroke="none"/>
    <path d="M-588.5 23.4 L-588.5 59.15 -597.0 58.55 -597.0 32.55 -658.35 32.55 -658.35 41.55 -667.5 41.55 -667.5 23.4 -588.5 23.4" fill="#707070" fill-rule="evenodd" stroke="none"/>
    <path d="M-416.0 27.8 L-428.0 27.8 -428.0 15.3 -416.0 15.3 -416.0 27.8" fill="#707070" fill-rule="evenodd" stroke="none"/>
    <path d="M-403.0 1.5 L-403.0 10.05 -440.0 10.05 -440.0 1.5 -403.0 1.5" fill="#707070" fill-rule="evenodd" stroke="none"/>
    <path d="M-368.8 -15.15 L-362.8 -15.15 -362.8 -9.15 -368.8 -9.15 -368.8 -15.15" fill="#707070" fill-rule="evenodd" stroke="none"/>
    <path d="M-481.5 -15.15 L-475.5 -15.15 -475.5 -9.15 -481.5 -9.15 -481.5 -15.15" fill="#707070" fill-rule="evenodd" stroke="none"/>
    <path d="M-285.8 127.3 L-280.25 127.3 -280.25 138.65 -285.8 138.65 -285.8 127.3" fill="#707070" fill-rule="evenodd" stroke="none"/>
    <path d="M-285.8 123.75 L-285.8 112.4 -280.25 112.4 -280.25 123.75 -285.8 123.75" fill="#707070" fill-rule="evenodd" stroke="none"/>
    <path d="M-198.0 119.7 L-195.35 120.05 -192.85 121.35 -190.75 123.5 -189.2 126.3 -188.4 129.55 -188.35 132.95 -189.1 136.15 -190.55 138.9 -192.6 140.95 -194.55 141.85 -183.35 141.85 -183.35 146.1 -216.35 146.1 -216.35 141.85 -199.2 141.85 -200.35 141.5 -202.7 139.75 -204.5 137.25 -205.7 134.15 -206.15 130.8 -205.8 127.5 -204.7 124.5 -202.9 122.05 -200.6 120.4 -198.0 119.7" fill="#707070" fill-rule="evenodd" stroke="none"/>
    <path d="M-230.2 88.2 L-229.15 88.05 -228.1 88.25 -227.1 88.75 -226.35 89.45 -225.8 90.4 -225.6 91.45 -225.7 92.55 -226.1 93.55 -226.8 94.35 -227.7 94.95 -228.75 95.25 -229.8 95.25 -230.85 94.9 -231.7 94.25 -232.35 93.4 -232.75 92.4 -232.8 91.35 -232.55 90.3 -232.0 89.35 -231.2 88.65 -230.2 88.2" fill="#707070" fill-rule="evenodd" stroke="none"/>
    <path d="M-48.4 -29.25 L-34.15 -29.25 -34.15 -24.15 -48.4 -24.15 -48.4 -29.25" fill="#707070" fill-rule="evenodd" stroke="none"/>
    <path d="M43.15 123.25 L44.4 125.4 44.75 127.85 44.05 130.25 43.4 131.0 93.1 131.0 93.1 142.35 90.15 142.35 90.15 146.1 -18.6 146.1 -18.6 131.0 34.1 131.0 33.65 130.5 32.8 128.15 33.0 125.65 34.2 123.45 36.2 121.95 38.6 121.35 41.05 121.85 43.15 123.25" fill="#707070" fill-rule="evenodd" stroke="none"/>
    <path d="M19.55 56.15 L29.45 56.15 29.35 79.4 28.85 80.55 27.5 81.7 25.6 82.4 23.5 82.4 21.55 81.7 20.15 80.55 19.75 79.35 19.55 77.85 19.55 56.15" fill="#707070" fill-rule="evenodd" stroke="none"/>
    <path d="M57.3 87.5 L57.3 72.5 84.5 72.5 84.5 63.5 91.1 63.5 91.1 126.25 84.5 126.25 84.5 116.9 57.3 116.9 57.3 101.9 84.5 101.9 84.5 87.5 57.3 87.5" fill="#707070" fill-rule="evenodd" stroke="none"/>
    <path d="M70.3 23.1 L70.3 30.15 44.3 30.15 44.3 23.1 70.3 23.1" fill="#707070" fill-rule="evenodd" stroke="none"/>
    <path d="M83.2 29.4 L82.4 29.65 81.55 29.65 80.75 29.4 80.15 28.85 79.85 28.15 79.85 23.1 84.1 23.1 84.1 28.15 83.8 28.85 83.2 29.4" fill="#707070" fill-rule="evenodd" stroke="none"/>
    <path d="M82.0 -109.5 L81.25 -110.6 80.65 -111.05 79.8 -111.15 33.9 -111.15 33.0 -111.05 32.05 -110.3 31.55 -109.8 31.3 -108.65 31.3 -103.15 21.85 -103.15 21.85 -102.25 27.35 -102.25 27.35 -90.0 46.25 -90.0 46.25 -88.85 53.5 -88.85 53.5 -70.1 46.25 -70.1 46.25 -68.75 27.35 -68.75 27.35 -57.1 19.6 -57.1 19.6 -120.65 -52.25 -120.65 -52.25 -116.15 -25.5 -116.15 -25.5 -108.3 -43.0 -108.3 -43.0 -54.65 -52.25 -54.65 -52.25 -34.25 -56.95 -34.25 -56.95 -125.75 97.15 -125.75 97.15 -93.75 93.15 -93.75 93.15 -88.5 82.35 -88.5 82.35 -107.8 82.0 -109.5" fill="#707070" fill-rule="evenodd" stroke="none"/>
    <path d="M10.0 86.55 L10.0 67.05 14.55 67.05 14.55 86.55 10.0 86.55" fill="#707070" fill-rule="evenodd" stroke="none"/>
    <path d="M-253.6 132.0 L-253.3 130.85 -252.65 129.8 -251.75 128.95 -250.65 128.45 -249.4 128.3 -248.2 128.5 -247.15 129.05 -246.25 129.9 -245.65 130.95 -245.5 131.8 -245.5 131.65 -224.35 131.65 -224.35 140.0 -245.5 140.0 -245.5 133.4 -246.0 134.5 -246.75 135.45 -247.6 136.0 -247.4 136.8 -247.55 138.3 -248.1 139.65 -249.05 140.75 -250.25 141.6 -251.2 141.85 -223.55 141.85 -223.55 146.1 -259.4 146.1 -259.4 141.85 -253.5 141.85 -254.55 141.5 -255.75 140.65 -256.65 139.5 -257.15 138.1 -257.25 136.65 -256.9 135.2 -256.1 133.95 -255.05 133.0 -253.7 132.35 -253.55 132.35 -253.6 132.0" fill="#707070" fill-rule="evenodd" stroke="none"/>
    <path d="M-450.65 141.85 L-450.65 146.1 -488.9 146.1 -488.9 136.35 -471.85 136.35 -471.85 141.85 -450.65 141.85" fill="#707070" fill-rule="evenodd" stroke="none"/>
    <path d="M-417.0 146.1 L-417.0 141.85 -330.95 141.85 -330.95 146.1 -417.0 146.1" fill="#707070" fill-rule="evenodd" stroke="none"/>
    <path d="M-20.75 141.85 L-20.75 146.1 -59.1 146.1 -59.1 141.85 -20.75 141.85" fill="#707070" fill-rule="evenodd" stroke="none"/>
    <path d="M-330.95 112.55 L-327.35 112.55 -327.35 139.85 -330.95 139.85 -330.95 112.55" fill="#707070" fill-rule="evenodd" stroke="none"/>
    <path d="M-425.3 127.75 L-424.9 128.65 -424.9 133.55 -429.45 133.55 -429.45 128.65 -429.0 127.75 -428.2 127.1 -427.15 126.85 -426.1 127.1 -425.3 127.75" fill="#707070" fill-rule="evenodd" stroke="none"/>
    <path d="M-490.55 -32.05 L-490.55 -28.05 -728.35 -28.05 -738.65 -27.0 -744.4 -25.9 -750.0 -24.3 -755.45 -22.2 -765.55 -16.5 -774.35 -9.0 -778.15 -4.7 -781.55 -0.05 -784.5 4.85 -786.9 10.05 -788.8 15.4 -790.2 20.95 -791.05 26.6 -791.8 44.5 -791.8 57.75 -777.95 57.75 -779.5 57.6 -781.7 56.7 -783.5 55.2 -784.75 53.2 -785.3 50.9 -785.15 48.55 -784.25 46.35 -782.7 44.55 -780.7 43.3 -778.4 42.7 -776.05 42.9 -773.85 43.8 -772.05 45.3 -770.8 47.3 -770.25 49.6 -770.4 52.0 -771.3 54.15 -772.85 55.95 -774.85 57.2 -776.9 57.75 -753.25 57.75 -753.25 78.25 -763.05 78.25 -760.85 79.1 -759.05 80.65 -757.8 82.65 -757.25 84.95 -757.4 87.3 -758.3 89.5 -759.85 91.3 -761.85 92.55 -764.15 93.1 -766.5 92.95 -768.7 92.05 -770.5 90.55 -771.75 88.5 -772.3 86.2 -772.15 83.85 -771.25 81.7 -769.7 79.85 -767.7 78.6 -766.1 78.25 -782.5 78.25 -782.15 86.95 -780.3 96.2 -776.7 105.0 -771.45 113.0 -764.75 119.9 -756.75 125.4 -754.6 126.5 -756.15 125.2 -757.4 123.2 -757.95 120.9 -757.8 118.55 -756.9 116.35 -755.4 114.55 -753.35 113.3 -752.7 113.1 -753.25 112.25 -753.6 110.7 -753.5 109.1 -752.9 107.6 -751.85 106.35 -750.5 105.5 -748.9 105.15 -747.3 105.25 -745.8 105.85 -744.6 106.9 -743.75 108.25 -743.35 109.85 -743.45 111.45 -744.05 112.95 -745.1 114.15 -745.65 114.5 -744.7 115.3 -743.45 117.3 -742.9 119.6 -743.1 122.0 -743.95 124.15 -745.5 125.95 -747.5 127.2 -749.8 127.8 -752.15 127.6 -753.45 127.1 -747.85 129.4 -738.3 131.65 -728.9 132.6 -720.05 132.6 -720.05 142.6 -490.8 142.6 -490.8 146.6 -728.35 146.6 -739.05 145.55 -745.35 144.35 -751.3 142.65 -757.05 140.4 -762.6 137.6 -767.8 134.35 -772.7 130.6 -777.2 126.4 -781.3 121.8 -784.9 116.8 -788.0 111.55 -790.6 106.0 -792.65 100.25 -794.1 94.35 -795.0 88.3 -795.8 70.1 -795.8 44.45 -795.0 26.2 -794.1 20.2 -792.65 14.25 -790.6 8.5 -788.0 2.95 -784.9 -2.25 -781.3 -7.2 -777.2 -11.8 -772.7 -16.0 -767.8 -19.75 -762.6 -23.05 -757.05 -25.85 -751.3 -28.1 -745.35 -29.8 -739.25 -30.95 -728.55 -32.05 -490.55 -32.05" fill="#707070" fill-rule="evenodd" stroke="none"/>
    <path d="M-589.8 61.65 L-583.35 63.35 -577.3 66.15 -571.85 70.0 -567.25 74.65 -563.55 80.1 -560.9 86.05 -559.4 92.35 -559.1 119.15 -616.0 119.15 -616.0 112.3 -617.5 108.0 -620.5 105.0 -624.0 103.15 -627.3 102.65 -636.45 102.8 -639.05 106.35 -643.85 109.85 -649.5 111.7 -659.5 111.75 -665.95 110.75 -671.6 108.9 -676.4 105.4 -679.9 100.6 -680.15 99.8 -695.55 99.8 -695.3 92.35 -693.8 86.05 -691.15 80.1 -687.45 74.65 -682.85 70.0 -677.4 66.15 -671.35 63.35 -664.9 61.65 -651.05 60.8 -596.4 61.05 -589.8 61.65" fill="#707070" fill-rule="evenodd" stroke="none"/>
    <path d="M-667.5 59.6 L-667.5 52.25 -658.35 52.25 -658.35 58.55 -665.5 59.15 -667.5 59.6" fill="#707070" fill-rule="evenodd" stroke="none"/>
    <path d="M-569.9 -10.9 L-568.85 -12.1 -567.5 -13.0 -565.9 -13.35 -564.3 -13.25 -562.8 -12.65 -561.6 -11.6 -560.75 -10.25 -560.35 -8.65 -560.45 -7.05 -561.05 -5.55 -562.1 -4.35 -563.5 -3.5 -565.05 -3.1 -566.65 -3.2 -568.15 -3.8 -569.35 -4.85 -570.25 -6.25 -570.6 -7.8 -570.5 -9.4 -569.9 -10.9" fill="#707070" fill-rule="evenodd" stroke="none"/>
    <path d="M-624.85 -25.65 L-623.2 -25.55 -621.7 -24.95 -620.5 -23.9 -619.65 -22.5 -619.25 -20.95 -619.35 -19.35 -620.0 -17.85 -621.0 -16.6 -622.4 -15.75 -623.95 -15.4 -625.55 -15.5 -627.05 -16.1 -628.3 -17.15 -629.15 -18.5 -629.55 -20.1 -629.4 -21.7 -628.8 -23.2 -627.75 -24.4 -626.4 -25.25 -624.85 -25.65" fill="#707070" fill-rule="evenodd" stroke="none"/>
    <path d="M-639.6 -11.6 L-638.95 -13.1 -637.95 -14.35 -636.55 -15.2 -635.0 -15.55 -633.4 -15.45 -631.9 -14.85 -630.65 -13.8 -629.8 -12.45 -629.4 -10.85 -629.55 -9.25 -630.15 -7.75 -631.2 -6.55 -632.55 -5.7 -634.1 -5.3 -635.75 -5.4 -637.25 -6.0 -638.45 -7.05 -639.3 -8.45 -639.7 -10.0 -639.6 -11.6" fill="#707070" fill-rule="evenodd" stroke="none"/>
    <path d="M-290.65 -13.85 L-289.4 -12.75 -288.5 -11.35 -288.1 -9.7 -288.2 -8.05 -288.85 -6.5 -289.95 -5.2 -291.35 -4.35 -292.95 -3.95 -294.65 -4.05 -296.2 -4.7 -297.45 -5.75 -298.35 -7.2 -298.75 -8.8 -298.6 -10.45 -298.0 -12.0 -296.9 -13.3 -295.5 -14.2 -293.85 -14.6 -292.2 -14.45 -290.65 -13.85" fill="#707070" fill-rule="evenodd" stroke="none"/>
    <path d="M-286.7 -10.85 L-287.3 -11.35 -287.75 -12.05 -287.9 -12.8 -287.85 -13.6 -287.55 -14.35 -287.05 -14.95 -286.35 -15.35 -285.6 -15.55 -284.8 -15.5 -284.05 -15.2 -283.45 -14.7 -283.05 -14.0 -282.85 -13.25 -282.9 -12.45 -283.2 -11.7 -283.7 -11.1 -284.4 -10.7 -285.15 -10.5 -285.95 -10.55 -286.7 -10.85" fill="#707070" fill-rule="evenodd" stroke="none"/>
    <path d="M-266.0 23.9 L-265.95 23.1 -265.65 22.35 -265.15 21.75 -264.45 21.35 -263.7 21.15 -262.9 21.2 -262.15 21.5 -261.55 22.0 -261.1 22.7 -260.95 23.45 -261.0 24.25 -261.3 25.0 -261.8 25.6 -262.5 26.0 -263.25 26.2 -264.05 26.15 -264.8 25.85 -265.4 25.35 -265.8 24.65 -266.0 23.9" fill="#707070" fill-rule="evenodd" stroke="none"/>
    <path d="M-260.15 19.5 L-260.8 19.95 -261.6 20.15 -262.4 20.05 -263.1 19.75 -263.75 19.25 -264.15 18.6 -264.35 17.8 -264.3 17.0 -264.0 16.25 -263.45 15.65 -262.8 15.25 -262.0 15.05 -261.2 15.1 -260.5 15.4 -259.85 15.95 -259.45 16.6 -259.25 17.4 -259.3 18.15 -259.6 18.9 -260.15 19.5" fill="#707070" fill-rule="evenodd" stroke="none"/>
    <path d="M-270.5 14.15 L-268.9 14.75 -267.6 15.9 -266.7 17.35 -266.25 19.0 -266.4 20.7 -267.05 22.3 -268.15 23.6 -269.6 24.5 -271.25 24.9 -272.95 24.8 -274.55 24.15 -275.85 23.05 -276.75 21.6 -277.15 19.9 -277.05 18.2 -276.4 16.6 -275.3 15.3 -273.85 14.4 -272.2 14.0 -270.5 14.15" fill="#707070" fill-rule="evenodd" stroke="none"/>
    <path d="M-714.8 -10.1 L-713.25 -10.5 -711.65 -10.35 -710.15 -9.75 -708.9 -8.7 -708.05 -7.35 -707.65 -5.8 -707.8 -4.2 -708.4 -2.7 -709.45 -1.45 -710.8 -0.6 -712.35 -0.2 -714.0 -0.35 -715.5 -0.95 -716.7 -2.0 -717.55 -3.35 -717.95 -4.9 -717.85 -6.5 -717.2 -8.0 -716.2 -9.25 -714.8 -10.1" fill="#707070" fill-rule="evenodd" stroke="none"/>
    <path d="M-754.8 7.5 L-753.6 8.55 -752.75 9.95 -752.35 11.5 -752.45 13.1 -753.05 14.6 -754.1 15.85 -755.5 16.7 -757.05 17.05 -758.65 16.95 -760.15 16.35 -761.35 15.3 -762.25 13.95 -762.6 12.35 -762.5 10.75 -761.9 9.25 -760.85 8.05 -759.5 7.2 -757.9 6.8 -756.3 6.9 -754.8 7.5" fill="#707070" fill-rule="evenodd" stroke="none"/>
    <path d="M-751.5 63.45 L-750.9 61.95 -749.85 60.7 -748.5 59.85 -746.9 59.45 -745.3 59.6 -743.8 60.2 -742.6 61.25 -741.75 62.6 -741.35 64.15 -741.45 65.75 -742.05 67.25 -743.1 68.5 -744.5 69.35 -746.05 69.75 -747.65 69.6 -749.15 69.0 -750.35 67.95 -751.25 66.6 -751.6 65.05 -751.5 63.45" fill="#707070" fill-rule="evenodd" stroke="none"/>
    <path d="M-553.9 62.95 L-552.85 61.7 -551.5 60.85 -549.9 60.45 -548.3 60.6 -546.8 61.2 -545.6 62.25 -544.75 63.6 -544.35 65.15 -544.45 66.75 -545.05 68.25 -546.1 69.5 -547.5 70.35 -549.05 70.75 -550.65 70.6 -552.15 70.0 -553.35 68.95 -554.25 67.6 -554.6 66.05 -554.5 64.45 -553.9 62.95" fill="#707070" fill-rule="evenodd" stroke="none"/>
    <path d="M-542.55 86.7 L-541.05 84.85 -539.05 83.6 -536.75 83.05 -534.4 83.25 -532.2 84.1 -530.4 85.65 -529.15 87.65 -528.55 89.95 -528.75 92.3 -529.65 94.5 -531.15 96.3 -533.15 97.55 -535.45 98.1 -537.8 97.95 -540.0 97.05 -541.8 95.55 -543.05 93.5 -543.65 91.2 -543.45 88.85 -542.55 86.7" fill="#707070" fill-rule="evenodd" stroke="none"/>
    <path d="M-540.75 -20.25 L-532.5 -20.25 -532.5 -0.55 -540.75 -0.55 -540.75 -20.25" fill="#707070" fill-rule="evenodd" stroke="none"/>
    <path d="M-556.75 -23.75 L-546.0 -23.75 -546.0 7.0 -556.75 7.0 -556.75 -23.75" fill="#707070" fill-rule="evenodd" stroke="none"/>
    <path d="M-718.2 32.05 L-722.45 36.45 -718.2 40.85 -713.9 36.45 -718.2 32.05 M-713.0 24.3 L-705.9 31.6 -710.9 36.45 -705.9 41.3 -713.0 48.6 -718.2 43.55 -723.35 48.6 -730.45 41.3 -725.45 36.45 -730.45 31.6 -723.35 24.3 -718.2 29.3 -713.0 24.3" fill="#707070" fill-rule="evenodd" stroke="none"/>
    <path d="M-435.4 -25.55 L-435.4 -21.5 -409.0 -21.5 -409.0 -25.55 -435.4 -25.55 M-487.0 -19.3 L-487.0 -32.05 -360.3 -32.05 -360.3 -19.3 -373.65 -19.3 -373.65 -11.15 -470.3 -11.15 -470.3 -19.3 -487.0 -19.3" fill="#707070" fill-rule="evenodd" stroke="none"/>
    <path d="M-186.5 -28.05 L-186.5 -32.05 -118.25 -32.05 -118.25 -28.05 -186.5 -28.05" fill="#707070" fill-rule="evenodd" stroke="none"/>
    <path d="M-357.0 -28.05 L-357.0 -32.05 -190.5 -32.05 -190.5 -28.05 -357.0 -28.05" fill="#707070" fill-rule="evenodd" stroke="none"/>
    <path d="M77.25 -97.2 L74.4 -96.6 71.55 -97.4 69.45 -99.45 68.5 -102.25 69.0 -105.15 70.75 -107.45 73.4 -108.75 76.35 -108.6 78.9 -107.15 80.45 -104.65 80.7 -101.75 79.55 -99.05 77.25 -97.2" fill="#707070" fill-rule="evenodd" stroke="none"/>
    <path d="M-104.5 -29.5 L-104.5 -32.5 -92.15 -32.5 -92.15 -29.5 -104.5 -29.5" fill="#ffffff" fill-rule="evenodd" stroke="none"/>
    <path d="M-84.4 114.55 L-105.35 114.55 -105.35 111.85 -84.4 111.85 -84.4 114.55" fill="#ffffff" fill-rule="evenodd" stroke="none"/>
  </g>
</svg>
