<?xml version="1.0" encoding="UTF-8" standalone="no"?>
<svg xmlns:ffdec="https://www.free-decompiler.com/flash" xmlns:xlink="http://www.w3.org/1999/xlink" ffdec:objectType="shape" height="28.4px" width="21.25px" xmlns="http://www.w3.org/2000/svg">
  <g transform="matrix(1.0, 0.0, 0.0, 1.0, 0.5, 0.5)">
    <path d="M17.4 -0.5 L18.4 -0.4 18.65 -0.3 19.65 0.35 19.75 0.45 20.4 1.2 20.5 1.35 20.75 2.25 20.75 2.4 20.75 25.0 20.75 25.1 20.5 26.0 20.4 26.2 19.75 26.95 19.65 27.05 18.65 27.7 18.4 27.8 17.4 27.9 2.85 27.9 1.85 27.8 1.65 27.75 0.65 27.1 0.55 27.0 -0.1 26.25 -0.25 26.0 -0.5 25.1 -0.5 25.0 -0.5 2.4 -0.45 2.25 -0.2 1.35 -0.1 1.15 0.55 0.4 0.65 0.35 1.65 -0.3 1.85 -0.4 2.85 -0.5 17.4 -0.5" fill="#ffffff" fill-rule="evenodd" stroke="none"/>
  </g>
</svg>
