<?xml version="1.0" encoding="UTF-8" standalone="no"?>
<svg xmlns:ffdec="https://www.free-decompiler.com/flash" xmlns:xlink="http://www.w3.org/1999/xlink" ffdec:objectType="shape" height="30.25px" width="56.1px" xmlns="http://www.w3.org/2000/svg">
  <g transform="matrix(1.0, 0.0, 0.0, 1.0, -3.95, -3.95)">
    <path d="M4.5 33.55 L3.95 31.9 4.75 30.45 6.3 29.8 7.85 30.55 8.4 32.1 7.6 33.65 6.05 34.2 4.5 33.55" fill="#000000" fill-rule="evenodd" stroke="none"/>
    <path d="M30.45 4.5 L32.1 3.95 33.55 4.75 34.2 6.3 33.45 7.85 31.9 8.4 30.35 7.6 29.8 6.05 30.45 4.5" fill="#000000" fill-rule="evenodd" stroke="none"/>
    <path d="M56.15 33.45 L55.6 31.9 56.4 30.35 57.95 29.8 59.5 30.45 60.05 32.1 59.25 33.55 57.7 34.2 56.15 33.45" fill="#000000" fill-rule="evenodd" stroke="none"/>
  </g>
</svg>
