<?xml version="1.0" encoding="UTF-8" standalone="no"?>
<svg xmlns:ffdec="https://www.free-decompiler.com/flash" xmlns:xlink="http://www.w3.org/1999/xlink" ffdec:objectType="shape" height="260.0px" width="492.0px" xmlns="http://www.w3.org/2000/svg">
  <g transform="matrix(1.0, 0.0, 0.0, 1.0, 0.0, 0.0)">
    <path d="M492.0 88.1 L492.0 250.25 Q491.85 254.3 489.1 257.05 486.35 259.85 482.25 260.0 L9.75 260.0 Q5.85 260.0 2.95 257.05 0.15 254.25 0.0 250.25 L0.0 9.75 Q0.1 5.75 2.95 2.95 5.8 0.1 9.75 0.0 L408.15 0.0 447.1 0.0 492.0 44.9 492.0 88.1" fill="#cccccc" fill-rule="evenodd" stroke="none"/>
    <path d="M447.1 35.15 L447.1 0.0 492.0 44.9 456.85 44.9 Q452.8 44.75 450.0 41.95 447.25 39.2 447.1 35.15" fill="#999999" fill-rule="evenodd" stroke="none"/>
  </g>
</svg>
