<?xml version="1.0" encoding="UTF-8" standalone="no"?>
<svg xmlns:ffdec="https://www.free-decompiler.com/flash" xmlns:xlink="http://www.w3.org/1999/xlink" ffdec:objectType="shape" height="390.0px" width="272.0px" xmlns="http://www.w3.org/2000/svg">
  <g transform="matrix(1.0, 0.0, 0.0, 1.0, 0.0, 0.0)">
    <path d="M272.0 88.1 L272.0 380.25 Q271.85 384.3 269.1 387.05 266.35 389.85 262.25 390.0 L9.75 390.0 Q5.85 390.0 2.95 387.05 0.15 384.25 0.0 380.25 L0.0 9.75 Q0.0 5.9 2.95 2.95 5.9 0.0 9.75 0.0 L188.15 0.0 227.1 0.0 227.1 35.15 Q227.25 39.2 230.0 41.95 232.8 44.75 236.85 44.9 L272.0 44.9 272.0 88.1" fill="#cccccc" fill-rule="evenodd" stroke="none"/>
    <path d="M227.1 0.0 L272.0 44.9 236.85 44.9 Q232.8 44.75 230.0 41.95 227.25 39.2 227.1 35.15 L227.1 0.0" fill="#999999" fill-rule="evenodd" stroke="none"/>
  </g>
</svg>
