<?xml version="1.0" encoding="UTF-8" standalone="no"?>
<svg xmlns:ffdec="https://www.free-decompiler.com/flash" xmlns:xlink="http://www.w3.org/1999/xlink" ffdec:objectType="shape" height="260.0px" width="788.0px" xmlns="http://www.w3.org/2000/svg">
  <g transform="matrix(1.0, 0.0, 0.0, 1.0, 0.0, 0.0)">
    <path d="M788.0 88.1 L788.0 250.25 Q787.85 254.3 785.1 257.05 782.35 259.85 778.25 260.0 L9.75 260.0 Q5.85 260.0 2.95 257.05 0.15 254.25 0.0 250.25 L0.0 9.75 Q0.1 5.75 2.95 2.95 5.8 0.1 9.75 0.0 L704.15 0.0 743.1 0.0 788.0 44.9 788.0 88.1" fill="#cccccc" fill-rule="evenodd" stroke="none"/>
    <path d="M743.1 0.0 L788.0 44.9 752.85 44.9 Q748.8 44.75 746.0 41.95 743.25 39.2 743.1 35.15 L743.1 0.0" fill="#999999" fill-rule="evenodd" stroke="none"/>
  </g>
</svg>
