<?xml version="1.0" encoding="UTF-8" standalone="no"?>
<svg xmlns:ffdec="https://www.free-decompiler.com/flash" xmlns:xlink="http://www.w3.org/1999/xlink" ffdec:objectType="shape" height="179.5px" width="391.45px" xmlns="http://www.w3.org/2000/svg">
  <g transform="matrix(1.0, 0.0, 0.0, 1.0, -310.75, -868.85)">
    <path d="M316.25 1046.9 L315.15 1047.95 313.7 1048.35 Q312.85 1048.35 312.2 1047.95 311.5 1047.55 311.15 1046.9 310.75 1046.25 310.75 1045.4 310.75 1044.6 311.15 1043.9 311.5 1043.25 312.2 1042.85 L313.7 1042.45 315.15 1042.85 316.25 1043.9 316.65 1045.4 316.25 1046.9 M316.25 1022.1 L315.15 1023.15 313.7 1023.55 Q312.85 1023.55 312.2 1023.15 311.5 1022.75 311.15 1022.1 310.75 1021.45 310.75 1020.6 310.75 1019.8 311.15 1019.1 311.5 1018.45 312.2 1018.05 L313.7 1017.65 315.15 1018.05 316.25 1019.1 316.65 1020.6 316.25 1022.1 M316.25 997.3 L315.15 998.35 313.7 998.75 Q312.85 998.75 312.2 998.35 311.5 997.95 311.15 997.3 310.75 996.65 310.75 995.8 310.75 995.0 311.15 994.3 311.5 993.65 312.2 993.25 L313.7 992.85 315.15 993.25 316.25 994.3 316.65 995.8 316.25 997.3 M316.25 972.5 L315.15 973.55 313.7 973.95 Q312.85 973.95 312.2 973.55 311.5 973.15 311.15 972.5 310.75 971.85 310.75 971.0 310.75 970.2 311.15 969.5 311.5 968.85 312.2 968.45 L313.7 968.05 315.15 968.45 316.25 969.5 316.65 971.0 316.25 972.5 M316.25 947.7 L315.15 948.75 313.7 949.15 Q312.85 949.15 312.2 948.75 311.5 948.35 311.15 947.7 310.75 947.05 310.75 946.2 310.75 945.4 311.15 944.7 311.5 944.05 312.2 943.65 L313.7 943.25 315.15 943.65 316.25 944.7 316.65 946.2 316.25 947.7 M316.25 922.9 L315.15 923.95 313.7 924.35 Q312.85 924.35 312.2 923.95 311.5 923.55 311.15 922.9 310.75 922.25 310.75 921.4 310.75 920.6 311.15 919.9 311.5 919.25 312.2 918.85 L313.7 918.45 315.15 918.85 316.25 919.9 316.65 921.4 316.25 922.9 M316.25 898.1 L315.15 899.15 313.7 899.55 Q312.85 899.55 312.2 899.15 311.5 898.75 311.15 898.1 310.75 897.45 310.75 896.6 310.75 895.8 311.15 895.1 311.5 894.45 312.2 894.05 L313.7 893.65 315.15 894.05 316.25 895.1 316.65 896.6 316.25 898.1 M316.25 873.3 L315.15 874.35 313.7 874.75 Q312.85 874.75 312.2 874.35 311.5 873.95 311.15 873.3 310.75 872.65 310.75 871.8 310.75 871.0 311.15 870.3 311.5 869.65 312.2 869.25 L313.7 868.85 315.15 869.25 316.25 870.3 316.65 871.8 316.25 873.3" fill="#0e4ba0" fill-rule="evenodd" stroke="none"/>
    <path d="M514.0 1019.1 L514.4 1020.6 514.0 1022.1 512.9 1023.15 Q512.25 1023.55 511.45 1023.55 510.6 1023.55 509.95 1023.15 509.25 1022.75 508.9 1022.1 508.5 1021.45 508.5 1020.6 508.5 1019.8 508.9 1019.1 509.25 1018.45 509.95 1018.05 510.6 1017.7 511.45 1017.65 L512.9 1018.05 514.0 1019.1 M514.0 994.3 L514.4 995.8 514.0 997.3 512.9 998.35 Q512.25 998.75 511.45 998.75 510.6 998.75 509.95 998.35 509.25 997.95 508.9 997.3 508.5 996.65 508.5 995.8 508.5 995.0 508.9 994.3 509.25 993.65 509.95 993.25 510.6 992.9 511.45 992.85 L512.9 993.25 514.0 994.3 M514.0 969.5 L514.4 971.0 514.0 972.5 512.9 973.55 Q512.25 973.95 511.45 973.95 510.6 973.95 509.95 973.55 509.25 973.15 508.9 972.5 508.5 971.85 508.5 971.0 508.5 970.2 508.9 969.5 509.25 968.85 509.95 968.45 510.6 968.1 511.45 968.05 L512.9 968.45 514.0 969.5 M514.0 944.7 L514.4 946.2 514.0 947.7 512.9 948.75 Q512.25 949.15 511.45 949.15 510.6 949.15 509.95 948.75 509.25 948.35 508.9 947.7 508.5 947.05 508.5 946.2 508.5 945.4 508.9 944.7 509.25 944.05 509.95 943.65 510.6 943.3 511.45 943.25 L512.9 943.65 514.0 944.7 M514.0 919.9 L514.4 921.4 514.0 922.9 512.9 923.95 Q512.25 924.35 511.45 924.35 510.6 924.35 509.95 923.95 509.25 923.55 508.9 922.9 508.5 922.25 508.5 921.4 508.5 920.6 508.9 919.9 509.25 919.25 509.95 918.85 510.6 918.5 511.45 918.45 L512.9 918.85 514.0 919.9 M514.0 895.1 L514.4 896.6 514.0 898.1 512.9 899.15 Q512.25 899.55 511.45 899.55 510.6 899.55 509.95 899.15 509.25 898.75 508.9 898.1 508.5 897.45 508.5 896.6 508.5 895.8 508.9 895.1 509.25 894.45 509.95 894.05 510.6 893.7 511.45 893.65 L512.9 894.05 514.0 895.1 M514.0 870.3 L514.4 871.8 514.0 873.3 512.9 874.35 Q512.25 874.75 511.45 874.75 510.6 874.75 509.95 874.35 509.25 873.95 508.9 873.3 508.5 872.65 508.5 871.8 508.5 871.0 508.9 870.3 509.25 869.65 509.95 869.25 510.6 868.9 511.45 868.85 L512.9 869.25 514.0 870.3" fill="#0e4ba0" fill-rule="evenodd" stroke="none"/>
    <path d="M700.7 1023.15 Q700.05 1023.55 699.25 1023.55 698.4 1023.55 697.75 1023.15 697.05 1022.75 696.7 1022.1 696.3 1021.45 696.3 1020.6 696.3 1019.8 696.7 1019.1 697.05 1018.45 697.75 1018.05 698.4 1017.7 699.25 1017.65 700.05 1017.7 700.7 1018.05 L701.8 1019.1 702.2 1020.6 701.8 1022.1 700.7 1023.15 M700.7 998.35 Q700.05 998.75 699.25 998.75 698.4 998.75 697.75 998.35 697.05 997.95 696.7 997.3 696.3 996.65 696.3 995.8 696.3 995.0 696.7 994.3 697.05 993.65 697.75 993.25 698.4 992.9 699.25 992.85 700.05 992.9 700.7 993.25 L701.8 994.3 702.2 995.8 701.8 997.3 700.7 998.35 M700.7 973.55 Q700.05 973.95 699.25 973.95 698.4 973.95 697.75 973.55 697.05 973.15 696.7 972.5 696.3 971.85 696.3 971.0 696.3 970.2 696.7 969.5 697.05 968.85 697.75 968.45 698.4 968.1 699.25 968.05 700.05 968.1 700.7 968.45 L701.8 969.5 702.2 971.0 701.8 972.5 700.7 973.55 M700.7 948.75 Q700.05 949.15 699.25 949.15 698.4 949.15 697.75 948.75 697.05 948.35 696.7 947.7 696.3 947.05 696.3 946.2 696.3 945.4 696.7 944.7 697.05 944.05 697.75 943.65 698.4 943.3 699.25 943.25 700.05 943.3 700.7 943.65 L701.8 944.7 702.2 946.2 701.8 947.7 700.7 948.75 M700.7 923.95 Q700.05 924.35 699.25 924.35 698.4 924.35 697.75 923.95 697.05 923.55 696.7 922.9 696.3 922.25 696.3 921.4 696.3 920.6 696.7 919.9 697.05 919.25 697.75 918.85 698.4 918.5 699.25 918.45 700.05 918.5 700.7 918.85 L701.8 919.9 702.2 921.4 701.8 922.9 700.7 923.95 M700.7 899.15 Q700.05 899.55 699.25 899.55 698.4 899.55 697.75 899.15 697.05 898.75 696.7 898.1 696.3 897.45 696.3 896.6 696.3 895.8 696.7 895.1 697.05 894.45 697.75 894.05 698.4 893.7 699.25 893.65 700.05 893.7 700.7 894.05 L701.8 895.1 702.2 896.6 701.8 898.1 700.7 899.15 M700.7 874.35 Q700.05 874.75 699.25 874.75 698.4 874.75 697.75 874.35 697.05 873.95 696.7 873.3 696.3 872.65 696.3 871.8 696.3 871.0 696.7 870.3 697.05 869.65 697.75 869.25 698.4 868.9 699.25 868.85 700.05 868.9 700.7 869.25 L701.8 870.3 702.2 871.8 701.8 873.3 700.7 874.35" fill="#0e4ba0" fill-rule="evenodd" stroke="none"/>
  </g>
</svg>
