<?xml version="1.0" encoding="UTF-8" standalone="no"?>
<svg xmlns:ffdec="https://www.free-decompiler.com/flash" xmlns:xlink="http://www.w3.org/1999/xlink" ffdec:objectType="shape" height="7.55px" width="3.55px" xmlns="http://www.w3.org/2000/svg">
  <g transform="matrix(1.0, 0.0, 0.0, 1.0, 1.65, 2.95)">
    <path d="M0.7 -1.3 Q0.7 -2.05 0.1 -2.05 -0.5 -2.05 -0.5 -1.3 L-0.5 -0.5 -1.65 -0.5 -1.65 -1.35 Q-1.65 -2.1 -1.2 -2.55 -0.75 -2.95 0.1 -2.95 0.9 -2.95 1.35 -2.55 1.8 -2.1 1.8 -1.35 L1.8 -0.3 1.75 0.3 1.45 0.8 1.05 1.25 0.55 1.6 -0.25 2.35 -0.5 3.05 -0.5 3.7 1.9 3.7 1.9 4.6 -1.65 4.6 -1.65 3.0 -1.5 2.4 -1.25 1.9 -0.85 1.45 -0.35 1.05 0.45 0.4 0.7 -0.35 0.7 -1.3" fill="#000000" fill-rule="evenodd" stroke="none"/>
  </g>
</svg>
