<?xml version="1.0" encoding="UTF-8" standalone="no"?>
<svg xmlns:ffdec="https://www.free-decompiler.com/flash" xmlns:xlink="http://www.w3.org/1999/xlink" ffdec:objectType="shape" height="7.6px" width="3.6px" xmlns="http://www.w3.org/2000/svg">
  <g transform="matrix(1.0, 0.0, 0.0, 1.0, 1.7, 2.9)">
    <path d="M0.75 -1.25 L0.55 -1.8 0.1 -2.0 -0.45 -1.8 -0.6 -1.25 -0.6 -0.45 -1.7 -0.45 -1.7 -1.3 -1.25 -2.5 Q-0.8 -2.9 0.1 -2.9 0.9 -2.9 1.4 -2.5 1.9 -2.05 1.9 -1.3 L1.9 -0.5 1.65 0.3 1.15 0.75 1.7 1.2 1.9 1.95 1.9 3.1 Q1.9 3.9 1.4 4.3 0.9 4.7 0.1 4.7 -0.8 4.7 -1.25 4.3 -1.7 3.9 -1.7 3.1 L-1.7 2.3 -0.6 2.3 -0.6 3.05 -0.45 3.65 0.1 3.8 0.6 3.65 0.75 3.05 0.75 1.95 0.6 1.4 0.1 1.2 -0.55 1.2 -0.55 0.4 0.05 0.4 Q0.4 0.4 0.6 0.2 L0.75 -0.4 0.75 -1.25" fill="#000000" fill-rule="evenodd" stroke="none"/>
  </g>
</svg>
