<?xml version="1.0" encoding="UTF-8" standalone="no"?>
<svg xmlns:ffdec="https://www.free-decompiler.com/flash" xmlns:xlink="http://www.w3.org/1999/xlink" ffdec:objectType="shape" height="7.55px" width="3.65px" xmlns="http://www.w3.org/2000/svg">
  <g transform="matrix(1.0, 0.0, 0.0, 1.0, 1.75, 2.8)">
    <path d="M1.75 -1.9 L-0.4 -1.9 -0.5 0.1 -0.05 -0.2 0.5 -0.35 1.15 -0.2 1.6 0.1 1.85 0.6 1.9 1.15 1.9 3.1 Q1.9 3.9 1.4 4.3 0.95 4.75 0.05 4.75 -0.8 4.75 -1.25 4.3 -1.75 3.9 -1.75 3.1 L-1.75 2.3 -0.65 2.3 -0.65 3.1 -0.45 3.65 0.05 3.85 Q0.4 3.85 0.55 3.65 L0.8 3.1 0.8 1.2 Q0.8 0.5 0.15 0.5 L-0.35 0.7 -0.5 1.2 -0.5 1.25 -1.65 1.25 -1.45 -2.8 1.75 -2.8 1.75 -1.9" fill="#000000" fill-rule="evenodd" stroke="none"/>
  </g>
</svg>
