<?xml version="1.0" encoding="UTF-8" standalone="no"?>
<svg xmlns:ffdec="https://www.free-decompiler.com/flash" xmlns:xlink="http://www.w3.org/1999/xlink" ffdec:objectType="shape" height="51.0px" width="35.95px" xmlns="http://www.w3.org/2000/svg">
  <g transform="matrix(1.0, 0.0, 0.0, 1.0, 17.95, 25.5)">
    <path d="M5.95 -16.1 L6.4 -15.05 6.4 -11.0 6.15 -10.15 5.45 -9.6 7.05 -9.0 Q10.2 -7.65 12.7 -5.15 15.15 -2.7 16.55 0.55 L16.55 0.5 Q18.0 3.85 18.0 7.55 18.0 11.2 16.55 14.55 15.15 17.7 12.75 20.2 L12.7 20.2 Q10.2 22.7 7.05 24.05 3.65 25.5 0.05 25.5 -3.65 25.5 -7.0 24.05 L-6.95 24.05 Q-10.2 22.75 -12.65 20.2 -15.15 17.7 -16.5 14.55 -17.95 11.2 -17.95 7.55 -17.95 3.85 -16.5 0.5 L-16.5 0.55 Q-15.15 -2.7 -12.65 -5.15 -10.2 -7.65 -6.95 -9.0 L-7.0 -9.0 -5.45 -9.6 -6.15 -10.15 -6.4 -11.0 -6.4 -15.05 -5.95 -16.1 Q-5.5 -16.55 -4.9 -16.55 L-2.6 -16.55 -2.9 -17.4 -2.9 -19.75 -2.95 -19.7 -4.8 -20.05 -4.85 -20.05 Q-6.1 -20.05 -6.65 -19.45 L-6.7 -19.45 -6.9 -18.85 -6.9 -17.25 -6.9 -17.15 -6.95 -15.45 -6.95 -15.35 Q-7.3 -13.6 -8.35 -12.35 -10.05 -10.35 -13.25 -10.35 L-13.35 -10.35 -16.75 -10.7 -17.45 -11.1 -17.9 -11.8 -17.9 -12.6 -17.25 -15.0 Q-17.1 -15.6 -16.55 -15.9 L-15.4 -16.05 -13.35 -15.75 -13.3 -15.75 -12.5 -15.9 -12.45 -15.95 -12.35 -16.4 -12.35 -18.85 Q-12.4 -21.15 -10.75 -23.0 L-10.8 -23.0 Q-8.85 -25.45 -4.9 -25.5 -0.9 -25.55 1.0 -23.5 L0.95 -23.5 Q1.95 -22.5 2.4 -21.1 L2.6 -19.75 2.6 -17.4 2.35 -16.55 4.9 -16.55 Q5.5 -16.55 5.95 -16.1" fill="#000000" fill-rule="evenodd" stroke="none"/>
    <path d="M0.95 -20.7 L1.1 -19.75 1.1 -17.4 -1.4 -17.4 -1.4 -19.75 Q-1.4 -20.25 -1.9 -20.75 -2.75 -21.6 -4.85 -21.55 -7.0 -21.55 -7.9 -20.35 -8.4 -19.65 -8.4 -18.85 L-8.4 -17.15 Q-8.35 -16.4 -8.45 -15.65 -8.7 -14.3 -9.5 -13.35 -10.8 -11.85 -13.25 -11.85 L-13.35 -11.85 -16.45 -12.2 -15.8 -14.6 -13.35 -14.25 -13.3 -14.25 Q-11.95 -14.25 -11.35 -14.95 -10.95 -15.4 -10.85 -16.25 L-10.85 -18.85 Q-10.9 -20.6 -9.65 -22.05 -8.05 -23.95 -4.9 -24.0 -1.65 -24.05 -0.1 -22.45 L0.95 -20.7 M4.9 -15.05 L4.9 -11.0 0.1 -11.55 -4.9 -11.0 -4.9 -15.05 4.9 -15.05 M6.45 -7.65 Q9.35 -6.4 11.65 -4.1 13.9 -1.85 15.15 1.1 16.5 4.15 16.5 7.55 16.5 10.9 15.15 13.95 13.9 16.85 11.65 19.15 9.35 21.45 6.45 22.65 3.35 24.0 0.05 24.0 -3.35 24.0 -6.4 22.65 -9.35 21.45 -11.6 19.15 -13.9 16.85 -15.15 13.95 -16.45 10.9 -16.45 7.55 -16.45 4.15 -15.15 1.1 -13.9 -1.85 -11.6 -4.1 -9.35 -6.4 -6.4 -7.65 -3.35 -8.95 0.05 -8.95 3.35 -8.95 6.45 -7.65" fill="#ffffff" fill-rule="evenodd" stroke="none"/>
  </g>
</svg>
