<?xml version="1.0" encoding="UTF-8" standalone="no"?>
<svg xmlns:ffdec="https://www.free-decompiler.com/flash" xmlns:xlink="http://www.w3.org/1999/xlink" ffdec:objectType="shape" height="37.35px" width="48.75px" xmlns="http://www.w3.org/2000/svg">
  <g transform="matrix(1.0, 0.0, 0.0, 1.0, 24.35, 18.7)">
    <path d="M11.3 -16.15 Q14.35 -13.45 14.5 -8.8 L18.85 -8.8 Q21.15 -8.8 22.75 -7.15 L22.8 -7.15 Q24.4 -5.55 24.4 -3.3 L24.4 17.15 23.95 18.2 Q23.5 18.65 22.9 18.65 L-22.85 18.65 Q-23.45 18.65 -23.9 18.2 -24.35 17.75 -24.35 17.15 L-24.35 -3.3 Q-24.35 -5.4 -22.95 -6.9 L-22.85 -6.95 -22.8 -7.0 -22.75 -7.05 -22.8 -7.0 -22.8 -7.05 -22.7 -7.15 Q-21.15 -8.8 -18.8 -8.8 L-14.1 -8.8 Q-13.95 -13.45 -10.9 -16.15 -8.5 -18.35 -5.5 -18.65 L-5.45 -18.65 -5.35 -18.65 5.5 -18.7 5.65 -18.7 Q8.9 -18.35 11.3 -16.15 M5.15 -10.7 L-4.85 -10.7 -5.35 -10.4 -5.45 -10.3 Q-5.95 -9.75 -6.05 -8.8 L6.5 -8.8 Q6.35 -9.75 5.85 -10.3 L5.15 -10.7" fill="#000000" fill-rule="evenodd" stroke="none"/>
    <path d="M5.5 -17.2 Q8.25 -16.9 10.3 -15.05 13.0 -12.6 13.0 -8.3 L13.0 -7.3 18.85 -7.3 Q20.55 -7.3 21.7 -6.1 22.9 -4.95 22.9 -3.3 L22.9 17.15 -22.85 17.15 -22.85 -3.3 Q-22.85 -4.8 -21.85 -5.9 L-21.65 -6.1 Q-20.5 -7.3 -18.8 -7.3 L-12.6 -7.3 -12.6 -8.3 Q-12.6 -12.6 -9.9 -15.05 -7.9 -16.9 -5.35 -17.15 L5.5 -17.2 M8.0 -7.3 L8.0 -8.3 Q8.0 -10.35 6.85 -11.4 6.15 -12.05 5.25 -12.2 L-4.95 -12.2 Q-5.85 -12.05 -6.5 -11.4 -7.6 -10.35 -7.6 -8.3 L-7.6 -7.3 8.0 -7.3" fill="#ffffff" fill-rule="evenodd" stroke="none"/>
  </g>
</svg>
