<?xml version="1.0" encoding="UTF-8" standalone="no"?>
<svg xmlns:ffdec="https://www.free-decompiler.com/flash" xmlns:xlink="http://www.w3.org/1999/xlink" ffdec:objectType="shape" height="261.3px" width="284.05px" xmlns="http://www.w3.org/2000/svg">
  <g transform="matrix(1.0, 0.0, 0.0, 1.0, 0.0, 0.0)">
    <path d="M279.65 252.85 Q279.65 253.8 278.95 254.25 L277.95 254.6 Q278.75 254.75 279.15 255.3 279.55 255.95 279.55 256.4 L279.55 257.45 279.6 257.8 279.65 257.9 278.5 257.9 278.5 257.85 278.45 257.75 278.45 256.95 Q278.45 255.75 277.75 255.35 L276.35 255.15 275.35 255.15 275.35 257.9 274.1 257.9 274.1 250.8 276.6 250.8 278.55 251.05 Q279.65 251.5 279.65 252.85 M276.45 251.7 L275.35 251.7 275.35 254.25 276.5 254.25 277.7 254.1 Q278.45 253.8 278.45 253.0 278.45 252.25 277.95 251.95 L276.45 251.7 M281.3 258.95 Q279.4 260.85 276.7 260.85 274.05 260.85 272.15 258.95 270.25 257.05 270.25 254.35 270.25 251.7 272.15 249.8 274.05 247.9 276.7 247.9 279.4 247.9 281.3 249.8 283.2 251.7 283.2 254.35 283.2 257.05 281.3 258.95 M282.3 254.35 Q282.3 252.1 280.65 250.45 279.0 248.8 276.7 248.8 274.4 248.8 272.8 250.45 271.15 252.1 271.15 254.35 271.15 256.7 272.75 258.35 274.45 259.95 276.7 259.95 279.05 259.95 280.65 258.35 282.3 256.7 282.3 254.35" fill="#000000" fill-rule="evenodd" stroke="none"/>
    <path d="M269.5 14.2 Q284.05 28.45 284.05 49.3 L284.05 212.2 Q284.05 232.95 269.25 247.25 254.65 261.3 233.7 261.3 L50.3 261.3 Q29.35 261.3 14.8 247.25 0.0 232.95 0.0 212.2 L0.0 49.3 Q0.0 28.5 15.05 14.2 29.8 0.0 50.75 0.0 L234.15 0.0 Q255.1 0.0 269.5 14.2" fill="#000000" fill-rule="evenodd" stroke="none"/>
    <path d="M277.05 49.3 L277.05 212.2 Q277.05 229.95 264.4 242.2 251.75 254.3 233.7 254.3 L50.3 254.3 Q32.25 254.3 19.65 242.2 7.0 229.95 7.0 212.2 L7.0 49.3 Q7.0 31.5 19.9 19.25 32.6 7.0 50.75 7.0 L234.15 7.0 Q252.2 7.0 264.6 19.2 277.05 31.45 277.05 49.3 M188.4 73.9 Q188.4 58.3 178.5 51.85 170.5 46.6 154.0 46.6 L101.45 46.6 79.2 151.8 107.15 151.8 115.25 113.55 133.8 113.55 Q141.1 113.55 144.5 117.15 147.75 120.55 147.75 127.65 L147.4 137.3 147.0 145.75 Q147.0 147.85 147.45 150.25 148.0 153.3 148.95 154.4 L149.05 154.4 169.15 175.55 151.85 212.7 188.85 190.7 216.4 211.9 211.25 176.8 243.05 154.55 207.8 154.55 202.2 119.35 181.55 154.3 177.65 154.3 Q176.05 151.5 175.1 147.35 174.3 143.75 174.3 140.6 L174.55 131.45 174.75 121.05 Q174.75 113.3 172.3 109.2 169.7 104.9 163.8 103.5 L163.8 103.2 Q176.15 101.5 182.45 93.6 188.4 86.1 188.4 73.9 M205.85 174.5 L209.65 200.45 189.2 184.7 163.2 200.15 175.1 174.55 160.6 159.3 184.4 159.3 199.45 133.85 203.55 159.55 227.2 159.55 205.85 174.5 M145.9 68.5 Q160.9 68.5 160.9 79.4 160.9 93.85 142.15 93.85 L119.95 93.85 125.25 68.5 145.9 68.5" fill="#101010" fill-rule="evenodd" stroke="none"/>
  </g>
</svg>
