<?xml version="1.0" encoding="UTF-8" standalone="no"?>
<svg xmlns:ffdec="https://www.free-decompiler.com/flash" xmlns:xlink="http://www.w3.org/1999/xlink" ffdec:objectType="shape" height="114.0px" width="116.5px" xmlns="http://www.w3.org/2000/svg">
  <g transform="matrix(1.0, 0.0, 0.0, 1.0, 40.2, 57.35)">
    <path d="M76.3 -19.85 L76.3 56.65 -40.2 56.65 -40.2 -57.35 46.3 -57.35 46.3 -19.85 76.3 -19.85" fill="#424242" fill-rule="evenodd" stroke="none"/>
    <path d="M-38.2 -55.35 L37.3 -55.35 37.3 -48.85 43.8 -48.85 43.8 -35.85 44.8 -35.85 44.8 -22.85 43.8 -22.85 43.8 -19.35 -16.7 -19.35 -16.7 -17.35 73.8 -17.35 73.8 53.65 54.3 53.65 54.3 55.65 33.3 55.65 33.3 53.65 31.3 53.65 31.3 55.65 4.3 55.65 4.3 53.65 2.3 53.65 2.3 55.65 -18.7 55.65 -18.7 53.65 -38.2 53.65 -38.2 -17.35 -30.2 -17.35 -30.2 -19.35 -38.2 -19.35 -38.2 -55.35" fill="#959595" fill-rule="evenodd" stroke="none"/>
    <path d="M-38.2 6.65 L-33.7 6.65 -33.7 12.65 -36.2 12.65 -36.2 13.15 -35.7 13.15 -35.7 53.65 -38.2 53.65 -38.2 6.65" fill="#6f6f6f" fill-rule="evenodd" stroke="none"/>
    <path d="M-26.2 53.65 L-26.2 6.65 -19.2 6.65 -19.2 53.65 -26.2 53.65" fill="#6f6f6f" fill-rule="evenodd" stroke="none"/>
    <path d="M-15.2 -17.35 L73.8 -17.35 73.8 -9.85 27.3 -9.85 27.3 -13.35 6.3 -13.35 6.3 -11.35 -15.2 -11.35 -15.2 -17.35" fill="#6f6f6f" fill-rule="evenodd" stroke="none"/>
    <path d="M2.3 49.65 L2.3 53.15 -17.7 53.15 -17.7 49.65 2.3 49.65" fill="#6f6f6f" fill-rule="evenodd" stroke="none"/>
    <path d="M40.3 5.15 L40.3 25.65 33.3 25.65 33.3 5.15 40.3 5.15" fill="#6f6f6f" fill-rule="evenodd" stroke="none"/>
    <path d="M4.3 25.65 L4.3 5.15 11.8 5.15 11.8 25.65 4.3 25.65" fill="#6f6f6f" fill-rule="evenodd" stroke="none"/>
    <path d="M55.3 49.15 L55.3 53.65 38.3 53.65 38.3 49.15 55.3 49.15" fill="#6f6f6f" fill-rule="evenodd" stroke="none"/>
    <path d="M37.8 50.15 L37.8 53.15 31.8 53.15 31.8 50.15 37.8 50.15" fill="#6f6f6f" fill-rule="evenodd" stroke="none"/>
    <path d="M-8.7 -49.35 L-8.7 -51.85 -33.7 -51.85 -33.7 -26.35 -38.2 -26.35 -38.2 -55.35 37.8 -55.35 37.8 -48.35 9.3 -48.35 9.3 -49.35 -8.7 -49.35" fill="#6f6f6f" fill-rule="evenodd" stroke="none"/>
    <path d="M31.3 56.65 L4.3 56.65 4.3 55.65 31.3 55.65 31.3 56.65" fill="#ffffff" fill-rule="evenodd" stroke="none"/>
  </g>
</svg>
