<?xml version="1.0" encoding="UTF-8" standalone="no"?>
<svg xmlns:ffdec="https://www.free-decompiler.com/flash" xmlns:xlink="http://www.w3.org/1999/xlink" ffdec:objectType="shape" height="270.7px" width="306.35px" xmlns="http://www.w3.org/2000/svg">
  <g transform="matrix(1.0, 0.0, 0.0, 1.0, 152.15, 135.35)">
    <path d="M10.15 -121.05 L16.0 -121.45 Q19.7 -121.45 23.45 -119.5 25.35 -118.55 26.7 -117.4 L29.7 -119.4 Q33.55 -121.45 37.5 -121.45 L43.4 -121.45 43.4 -135.35 74.95 -135.35 74.95 -51.55 -32.45 -51.55 -32.45 -47.9 -26.45 -47.9 Q-22.7 -47.9 -19.0 -46.0 -17.2 -45.1 -16.1 -44.15 L-13.1 -46.05 Q-9.3 -48.0 -5.4 -48.0 L16.25 -48.0 Q20.15 -48.0 24.0 -46.0 25.9 -45.05 27.05 -44.05 L30.05 -46.0 Q33.8 -48.0 37.85 -48.0 L68.0 -48.0 68.0 -50.0 99.4 -50.0 99.4 -44.45 121.05 -44.45 121.05 7.65 Q121.1 10.6 119.55 13.6 L154.2 13.6 154.2 37.25 144.05 37.25 Q140.1 37.5 137.35 40.15 134.45 42.85 130.8 49.95 141.1 56.2 145.6 64.1 148.75 69.7 148.3 74.2 148.2 75.35 146.85 78.0 L145.1 81.5 Q144.25 83.4 144.1 86.95 L144.1 90.1 144.6 95.15 Q144.7 98.25 144.1 100.65 142.95 105.2 139.25 106.9 L135.7 107.7 Q133.45 107.7 130.3 106.55 128.05 105.75 125.55 103.85 123.3 102.05 122.15 100.4 120.45 97.9 120.0 95.05 L116.15 97.35 113.15 99.35 Q110.45 101.2 107.1 101.0 L91.35 135.35 72.85 135.35 54.8 101.05 Q52.0 101.05 49.55 99.35 44.25 95.65 42.75 95.05 41.2 102.9 32.45 106.55 28.85 108.05 25.75 107.6 23.7 107.25 22.15 106.2 19.55 104.4 18.7 100.7 18.1 98.3 18.2 95.25 18.25 93.45 18.65 90.15 19.05 86.55 18.1 82.85 L-5.6 82.85 Q-11.15 82.4 -15.25 79.15 -17.8 81.4 -22.05 82.45 L-25.8 83.0 -47.6 83.0 Q-55.45 83.0 -59.85 77.7 -61.3 79.25 -63.6 80.6 -67.65 82.95 -71.95 82.95 L-136.5 82.9 Q-140.4 82.9 -144.3 81.15 -152.15 77.65 -152.15 68.9 L-152.15 27.25 Q-152.15 18.4 -144.3 14.9 -141.85 13.8 -138.95 13.35 L-136.5 13.15 -106.0 13.1 Q-107.05 10.7 -107.05 7.9 L-107.05 -16.45 -113.7 -16.45 -113.7 -34.1 -150.75 -34.1 -150.75 -107.2 Q-150.75 -116.1 -143.05 -119.65 -139.25 -121.4 -135.4 -121.4 L-70.05 -121.45 -66.5 -120.95 Q-62.3 -119.95 -59.25 -117.4 -56.55 -119.95 -52.3 -120.95 L-48.6 -121.45 -27.6 -121.45 Q-25.15 -121.45 -21.25 -120.4 L-21.25 -121.45 10.15 -121.45 10.15 -121.05 M8.6 -119.85 L-19.65 -119.85 -19.65 -118.0 -22.1 -118.9 Q-25.05 -119.85 -27.55 -119.85 L-48.6 -119.85 -52.05 -119.35 Q-56.15 -118.3 -59.3 -115.3 -62.25 -118.15 -66.45 -119.3 L-70.05 -119.85 -135.35 -119.85 Q-138.8 -119.85 -142.25 -118.25 -149.15 -115.1 -149.15 -107.2 L-149.15 -35.75 -112.15 -35.7 -112.15 -18.0 -105.5 -18.0 -105.5 7.9 Q-105.5 10.35 -104.45 12.75 L-103.4 14.7 -136.5 14.65 -138.7 14.85 Q-141.35 15.25 -143.5 16.25 -150.55 19.4 -150.55 27.25 L-150.55 68.9 Q-150.55 76.65 -143.5 79.75 -140.0 81.3 -136.5 81.3 L-71.95 81.35 Q-67.05 81.35 -62.95 78.25 L-59.8 75.15 -57.0 78.3 Q-53.15 81.45 -47.6 81.45 L-25.45 81.4 Q-21.45 81.2 -17.95 79.1 L-15.25 77.05 -12.3 79.2 Q-8.4 81.3 -3.7 81.3 L17.45 81.3 19.2 81.1 19.2 81.15 Q20.65 85.05 20.1 91.1 19.5 97.65 20.2 100.3 21.05 103.55 23.05 104.9 24.65 106.05 26.9 106.1 30.15 106.2 34.15 104.05 36.65 102.7 38.7 100.25 41.55 96.75 41.25 92.9 L43.35 93.6 Q45.95 94.65 48.4 96.65 51.1 98.8 53.65 99.3 L55.7 99.4 73.8 133.8 90.35 133.8 106.2 99.15 108.55 99.4 Q111.25 99.15 114.35 96.65 115.7 95.55 117.5 94.55 119.7 93.3 121.5 92.9 121.2 95.25 122.75 98.3 125.15 102.9 130.85 105.1 134.55 106.5 137.45 105.9 141.4 105.05 142.55 100.3 143.05 98.2 142.8 93.65 L142.45 89.55 Q142.3 85.1 143.6 81.0 143.85 80.15 145.35 77.55 146.6 75.25 146.75 74.05 147.2 69.9 144.1 64.65 139.6 56.9 128.7 50.55 133.0 42.1 136.2 39.0 139.35 35.95 144.0 35.65 L152.65 35.65 152.65 15.15 116.55 15.15 118.05 13.05 Q119.5 10.35 119.5 7.65 L119.45 -42.85 97.85 -42.85 97.85 -48.45 69.55 -48.45 69.55 -46.45 37.85 -46.45 Q33.7 -46.45 29.95 -44.2 L27.05 -41.95 24.15 -44.2 Q20.4 -46.45 16.25 -46.45 L-5.8 -46.45 Q-9.5 -46.35 -13.2 -44.15 L-16.1 -42.0 Q-17.15 -43.1 -18.95 -44.15 -22.6 -46.35 -26.5 -46.35 L-34.05 -46.35 -34.05 -53.15 73.4 -53.15 73.4 -133.8 45.0 -133.8 45.0 -119.85 37.5 -119.85 Q33.4 -119.85 29.65 -117.55 L26.7 -115.3 23.7 -117.55 Q19.9 -119.85 16.0 -119.85 L11.4 -119.5 8.6 -119.2 8.6 -119.85 M68.0 -2.55 L53.65 -2.55 53.65 13.75 69.55 13.75 Q68.65 12.05 68.25 9.9 L68.0 8.1 68.0 -2.55 M69.55 -4.1 L69.55 8.1 Q69.55 10.35 71.05 13.1 L72.5 15.35 52.1 15.35 52.1 -4.1 69.55 -4.1" fill="#9fa1a5" fill-rule="evenodd" stroke="none"/>
  </g>
</svg>
