<?xml version="1.0" encoding="UTF-8" standalone="no"?>
<svg xmlns:ffdec="https://www.free-decompiler.com/flash" xmlns:xlink="http://www.w3.org/1999/xlink" ffdec:objectType="shape" height="335.45px" width="498.7px" xmlns="http://www.w3.org/2000/svg">
  <g transform="matrix(1.0, 0.0, 0.0, 1.0, 372.2, 241.8)">
    <path d="M-372.2 -168.85 L-372.2 -241.8 -266.65 -241.8 -266.65 -231.8 -199.15 -231.8 126.5 -121.85 126.5 50.15 126.0 50.15 126.0 54.15 91.5 54.15 91.5 50.15 66.5 50.15 66.5 53.15 31.95 53.15 31.95 50.15 12.45 50.15 12.45 53.15 -26.55 53.15 -34.55 50.15 Q-37.05 51.65 -40.05 53.15 L-79.6 53.15 -79.6 50.15 -94.6 50.15 -94.6 53.15 -156.1 53.15 -156.1 50.15 -171.1 50.15 -171.1 53.15 -194.1 53.15 -194.1 81.15 -208.65 81.15 -208.65 85.15 -222.65 85.15 -222.65 88.15 -242.65 88.15 -242.65 85.15 -256.15 85.15 -256.15 88.15 -276.15 88.15 -276.15 85.15 -288.65 85.15 -288.65 88.15 -308.65 88.15 -308.65 85.15 -360.7 85.15 -360.7 81.15 -369.7 81.15 -369.7 59.65 -371.7 59.65 Q-371.7 37.65 -372.2 15.65 L-369.7 15.65 -369.7 11.15 -372.2 11.15 -372.2 -23.85 -369.7 -23.85 -369.7 -28.85 -372.2 -28.85 -372.2 -58.85 -369.7 -58.85 -369.7 -62.85 -372.2 -62.85 -372.2 -125.35 -369.7 -125.35 -369.7 -129.35 -372.2 -129.35 -372.2 -165.35 -369.7 -165.35 -369.7 -168.85 -372.2 -168.85" fill="#424242" fill-rule="evenodd" stroke="none"/>
    <path d="M-175.1 92.15 L-175.1 85.15 -168.1 85.15 -168.1 92.15 -175.1 92.15" fill="#424242" fill-rule="evenodd" stroke="none"/>
    <path d="M-119.6 93.15 L-119.6 86.15 -112.6 86.15 -112.6 93.15 -119.6 93.15" fill="#424242" fill-rule="evenodd" stroke="none"/>
    <path d="M-64.05 93.15 L-64.05 86.15 -57.05 86.15 -57.05 93.15 -64.05 93.15" fill="#424242" fill-rule="evenodd" stroke="none"/>
    <path d="M-8.55 93.15 L-8.55 86.15 -1.55 86.15 -1.55 93.15 -8.55 93.15" fill="#424242" fill-rule="evenodd" stroke="none"/>
    <path d="M47.0 93.65 L47.0 86.65 54.0 86.65 54.0 93.65 47.0 93.65" fill="#424242" fill-rule="evenodd" stroke="none"/>
    <path d="M102.5 93.65 L102.5 86.65 109.5 86.65 109.5 93.65 102.5 93.65" fill="#424242" fill-rule="evenodd" stroke="none"/>
    <path d="M-20.05 -115.85 L-20.05 -112.85 32.95 -112.85 32.95 -104.35 42.45 -104.35 42.45 -115.85 -20.05 -115.85 M-12.55 -44.35 L-12.55 -48.35 -16.55 -48.35 -16.55 -44.35 -12.55 -44.35 M-94.6 -148.85 Q-94.6 -149.85 -95.1 -151.35 -96.1 -151.85 -97.1 -152.85 L-99.1 -153.85 -132.1 -153.85 -134.6 -152.85 Q-135.1 -151.85 -136.1 -151.35 L-137.1 -148.85 -137.1 -143.85 -198.15 -143.85 -198.15 -146.35 -199.15 -152.35 -202.65 -158.85 -207.65 -163.85 -213.65 -167.85 Q-217.15 -168.35 -220.65 -169.35 L-244.15 -169.35 -244.15 -195.85 -135.1 -195.85 -135.1 -186.85 -121.1 -186.85 -121.1 -195.85 -65.55 -173.85 Q-66.55 -170.35 -68.05 -167.35 -49.05 -159.85 -30.05 -152.85 -29.55 -152.35 -29.55 -151.85 -29.05 -151.85 -28.55 -152.35 L4.45 -152.35 4.45 -138.35 59.0 -138.35 59.0 -115.85 58.0 -115.85 58.0 -112.85 64.5 -112.85 64.5 -19.85 62.0 -17.85 62.0 -15.85 91.5 -15.85 91.5 17.65 26.95 17.65 26.95 -15.85 47.0 -15.85 47.0 -17.85 42.45 -17.85 42.45 -29.85 32.95 -29.85 32.95 -17.85 16.45 -17.85 16.45 21.15 32.95 21.15 32.95 47.15 -26.55 47.15 -26.55 50.65 -40.55 50.65 -40.55 47.15 -55.05 47.15 -55.05 41.65 -56.05 41.65 -63.05 47.15 -76.6 47.15 -76.6 42.15 -89.1 42.15 -89.1 29.15 -76.6 29.15 -76.6 20.15 -63.05 20.15 -56.05 26.65 -55.05 26.65 -55.05 21.15 -19.05 21.15 -19.05 -17.85 -41.05 -17.85 -41.05 15.65 -78.6 15.65 -78.6 -13.35 -80.1 -13.35 -80.1 15.65 -121.1 15.65 -121.1 -27.85 -123.6 -27.85 -123.6 44.65 -147.6 44.65 -147.6 24.65 -148.6 24.65 -148.6 44.65 -173.1 44.65 -173.1 24.65 -174.1 24.65 -174.1 44.65 -197.65 44.65 -197.65 24.65 -198.15 24.65 -198.15 44.65 -218.65 44.65 -218.65 -14.35 -198.15 -14.35 -198.15 6.15 -196.6 6.15 -196.6 -14.35 -175.6 -14.35 -175.6 6.15 -174.6 6.15 -174.6 -14.35 -155.1 -14.35 -155.1 6.15 -154.1 6.15 -154.1 -27.35 -156.1 -27.35 -156.1 -16.85 -223.65 -16.85 -223.65 30.15 -274.65 30.15 -274.65 -60.35 -269.15 -60.35 -269.15 -134.85 -267.15 -134.85 -267.15 -137.35 -285.15 -137.35 -285.15 -141.85 -321.7 -141.85 -321.7 -195.85 -299.65 -195.85 -299.65 -199.35 -286.65 -199.35 -286.65 -195.85 -270.65 -195.85 -270.65 -225.35 -260.65 -225.35 -260.65 -231.8 -247.65 -231.8 -247.65 -225.35 -245.65 -225.35 -245.65 -214.35 -244.65 -214.35 -244.65 -201.35 -245.65 -201.35 -245.65 -188.35 -247.65 -188.35 -247.65 -145.35 -245.65 -145.35 -245.65 -137.35 -252.15 -137.35 -252.15 -135.35 -245.15 -135.35 -245.15 -131.85 -242.15 -131.85 -242.15 -167.35 -222.15 -167.35 -215.15 -165.35 -209.15 -162.35 Q-206.65 -159.85 -204.65 -157.35 -202.65 -154.35 -201.15 -151.35 -200.65 -148.85 -200.65 -146.35 L-200.65 -137.35 -130.6 -137.35 -130.6 -147.35 -101.1 -147.35 -101.1 -101.85 -130.6 -101.85 -130.6 -110.85 -200.65 -110.85 -200.65 -101.35 -202.65 -95.85 Q-204.65 -92.85 -206.65 -90.35 -209.15 -87.85 -211.65 -85.85 -214.65 -84.35 -218.15 -82.85 L-224.65 -81.85 -242.15 -81.85 -242.15 -116.85 -245.15 -116.85 -245.15 -60.35 -211.65 -60.35 -211.65 -45.35 -189.6 -45.35 -189.6 -60.35 -172.6 -60.35 -172.6 -42.85 -171.1 -42.85 -171.1 -60.35 -156.1 -60.35 -156.1 -42.35 -154.1 -42.35 -154.1 -59.35 -123.6 -59.35 -123.6 -42.85 -121.6 -42.85 -121.6 -44.35 -121.1 -44.35 Q-121.1 -57.85 -121.6 -71.85 L-135.1 -71.85 -135.1 -62.85 -244.15 -62.85 -244.15 -79.85 -223.65 -79.85 -216.65 -80.85 Q-213.15 -82.35 -210.15 -83.85 -207.15 -85.85 -204.65 -88.35 L-200.65 -94.35 Q-199.15 -97.85 -198.15 -101.35 L-198.15 -104.85 -137.1 -104.85 -137.1 -100.35 -136.1 -98.35 Q-135.1 -97.35 -134.6 -96.35 L-132.1 -95.35 -99.1 -95.35 -97.1 -96.35 -95.1 -98.35 Q-94.6 -99.35 -94.6 -100.35 L-94.6 -148.85" fill="#959595" fill-rule="evenodd" stroke="none"/>
    <path d="M-16.55 -48.35 L-16.55 -112.85 -12.55 -112.85 -12.55 -48.35 -16.55 -48.35" fill="#6f6f6f" fill-rule="evenodd" stroke="none"/>
    <path d="M-92.6 -48.85 L-92.6 -44.35 -121.1 -44.35 -121.1 -48.85 -92.6 -48.85" fill="#6f6f6f" fill-rule="evenodd" stroke="none"/>
    <path d="M-40.55 -44.35 L-40.55 -48.35 -16.55 -48.35 -16.55 -44.35 -40.55 -44.35" fill="#6f6f6f" fill-rule="evenodd" stroke="none"/>
    <path d="M62.5 -112.85 L72.5 -112.85 72.5 -17.85 62.5 -17.85 62.5 -112.85" fill="#6f6f6f" fill-rule="evenodd" stroke="none"/>
    <path d="M-30.05 -152.85 Q-29.05 -152.35 -28.55 -152.35 L-28.55 -151.35 -20.05 -151.35 -20.05 -126.35 -28.55 -126.35 -28.55 -115.85 -20.05 -115.85 -20.05 -114.35 -30.05 -114.35 -30.05 -152.85" fill="#6f6f6f" fill-rule="evenodd" stroke="none"/>
    <path d="M33.95 -104.35 L41.95 -104.35 41.95 -97.35 37.45 -97.35 37.45 -96.85 47.0 -96.85 47.0 -89.85 36.95 -89.85 36.95 -88.85 41.95 -88.85 41.95 -48.35 37.45 -48.35 37.45 -45.85 45.45 -45.85 45.45 -33.85 37.45 -33.85 37.45 -29.85 33.95 -29.85 33.95 -104.35" fill="#6f6f6f" fill-rule="evenodd" stroke="none"/>
    <path d="M-274.15 -195.35 L-274.15 -186.85 -298.15 -186.85 -298.15 -195.35 -274.15 -195.35" fill="#6f6f6f" fill-rule="evenodd" stroke="none"/>
    <path d="M-309.65 -187.85 L-309.65 -195.35 -301.15 -195.35 -301.15 -187.85 -309.65 -187.85" fill="#6f6f6f" fill-rule="evenodd" stroke="none"/>
    <path d="M-322.2 -194.85 L-312.15 -194.85 -312.15 -188.35 -316.65 -188.35 -316.65 -166.35 -311.65 -166.35 -311.65 -141.85 -321.7 -141.85 -321.7 -188.35 -322.2 -188.35 -322.2 -194.85" fill="#6f6f6f" fill-rule="evenodd" stroke="none"/>
    <path d="M-293.65 -142.35 L-293.65 -170.85 -282.65 -170.85 -282.65 -142.35 -293.65 -142.35" fill="#6f6f6f" fill-rule="evenodd" stroke="none"/>
    <path d="M-245.15 -92.85 L-245.15 -60.35 -251.65 -60.35 -251.65 -92.85 -245.15 -92.85" fill="#6f6f6f" fill-rule="evenodd" stroke="none"/>
    <path d="M-251.15 -96.85 L-251.15 -102.85 -245.15 -102.85 -245.15 -96.85 -251.15 -96.85" fill="#6f6f6f" fill-rule="evenodd" stroke="none"/>
    <path d="M-252.15 -144.35 L-246.65 -144.35 -246.65 -138.35 -252.15 -138.35 -252.15 -144.35" fill="#6f6f6f" fill-rule="evenodd" stroke="none"/>
    <path d="M-232.15 -6.35 L-224.65 -6.35 -224.65 9.15 -232.15 9.15 -232.15 -6.35" fill="#6f6f6f" fill-rule="evenodd" stroke="none"/>
    <path d="M-232.15 17.15 L-232.15 9.65 -224.65 9.65 -224.65 17.15 -232.15 17.15" fill="#6f6f6f" fill-rule="evenodd" stroke="none"/>
    <path d="M-274.65 30.15 L-274.65 21.15 -223.65 21.15 -223.65 30.15 -274.65 30.15" fill="#6f6f6f" fill-rule="evenodd" stroke="none"/>
    <path d="M-266.15 11.15 L-273.65 11.15 -273.65 -3.85 -266.15 -3.85 -266.15 11.15" fill="#6f6f6f" fill-rule="evenodd" stroke="none"/>
    <path d="M-224.65 -13.35 Q-224.15 -10.35 -224.15 -7.35 L-230.65 -6.85 Q-230.65 -9.85 -231.15 -12.85 L-224.65 -13.35" fill="#6f6f6f" fill-rule="evenodd" stroke="none"/>
    <path d="M-253.65 -10.85 L-253.65 -5.85 -274.65 -5.85 -274.65 -10.85 -253.65 -10.85" fill="#6f6f6f" fill-rule="evenodd" stroke="none"/>
    <path d="M-274.65 -29.85 L-268.65 -29.85 -268.65 -14.35 -274.65 -14.35 -274.65 -29.85" fill="#6f6f6f" fill-rule="evenodd" stroke="none"/>
    <path d="M-253.15 -37.35 L-253.15 -32.85 -274.65 -32.85 -274.65 -37.35 -253.15 -37.35" fill="#6f6f6f" fill-rule="evenodd" stroke="none"/>
    <path d="M-268.65 -59.35 L-268.65 -39.35 -273.65 -39.35 -273.65 -59.35 -268.65 -59.35" fill="#6f6f6f" fill-rule="evenodd" stroke="none"/>
    <path d="M-244.65 -59.85 L-244.65 -53.85 -251.15 -53.85 -251.15 -59.85 -244.65 -59.85" fill="#6f6f6f" fill-rule="evenodd" stroke="none"/>
    <path d="M-242.15 -51.85 L-242.15 -59.35 -218.65 -59.35 -218.65 -51.85 -242.15 -51.85" fill="#6f6f6f" fill-rule="evenodd" stroke="none"/>
    <path d="M-183.6 -51.85 L-183.6 -59.85 -175.6 -59.85 -175.6 -51.85 -183.6 -51.85" fill="#6f6f6f" fill-rule="evenodd" stroke="none"/>
    <path d="M-213.15 -13.85 L-201.15 -13.85 -201.15 -4.35 -213.15 -4.35 -213.15 -13.85" fill="#6f6f6f" fill-rule="evenodd" stroke="none"/>
    <path d="M-192.6 -13.85 L-180.6 -13.85 -180.6 -4.35 -192.6 -4.35 -192.6 -13.85" fill="#6f6f6f" fill-rule="evenodd" stroke="none"/>
    <path d="M-170.6 -13.85 L-158.6 -13.85 -158.6 -4.35 -170.6 -4.35 -170.6 -13.85" fill="#6f6f6f" fill-rule="evenodd" stroke="none"/>
    <path d="M-144.1 48.15 L-144.1 38.65 -132.1 38.65 -132.1 48.15 -144.1 48.15" fill="#6f6f6f" fill-rule="evenodd" stroke="none"/>
    <path d="M-167.6 48.15 L-167.6 38.65 -155.6 38.65 -155.6 48.15 -167.6 48.15" fill="#6f6f6f" fill-rule="evenodd" stroke="none"/>
    <path d="M-192.6 48.15 L-192.6 38.65 -180.6 38.65 -180.6 48.15 -192.6 48.15" fill="#6f6f6f" fill-rule="evenodd" stroke="none"/>
    <path d="M-213.15 48.15 L-213.15 38.65 -201.15 38.65 -201.15 48.15 -213.15 48.15" fill="#6f6f6f" fill-rule="evenodd" stroke="none"/>
    <path d="M-5.05 47.15 L-5.05 41.15 0.95 41.15 0.95 47.15 -5.05 47.15" fill="#6f6f6f" fill-rule="evenodd" stroke="none"/>
    <path d="M3.95 -152.35 L3.95 -146.85 -11.55 -146.85 -11.55 -152.35 3.95 -152.35" fill="#6f6f6f" fill-rule="evenodd" stroke="none"/>
    <path d="M46.5 -138.35 L46.5 -130.85 18.45 -130.85 18.45 -138.35 46.5 -138.35" fill="#6f6f6f" fill-rule="evenodd" stroke="none"/>
    <path d="M-56.05 20.15 L-56.05 26.65 -55.05 26.65 -55.05 41.65 -56.05 41.65 -56.05 47.15 -63.05 47.15 -63.05 20.15 -56.05 20.15" fill="#6f6f6f" fill-rule="evenodd" stroke="none"/>
    <path d="M16.95 47.15 L16.95 43.65 21.45 43.65 21.45 47.15 16.95 47.15" fill="#6f6f6f" fill-rule="evenodd" stroke="none"/>
    <path d="M-89.1 -5.35 L-80.1 -5.35 -80.1 6.15 Q-81.1 8.15 -82.6 9.65 -83.6 10.65 -84.6 11.15 L-88.1 12.15 -108.6 12.15 -111.6 11.15 -113.6 9.15 -115.6 6.15 -115.6 -5.35 -107.1 -5.35 -107.1 3.65 -89.1 3.65 -89.1 -5.35" fill="#6f6f6f" fill-rule="evenodd" stroke="none"/>
    <path d="M-52.05 -5.35 L-43.05 -5.35 -43.05 6.15 Q-44.05 8.15 -45.55 9.65 -46.55 10.65 -47.55 11.15 L-51.05 12.15 -71.55 12.15 -74.55 11.15 -76.6 9.15 -78.6 6.15 -78.6 -5.35 -70.05 -5.35 -70.05 3.65 -52.05 3.65 -52.05 -5.35" fill="#6f6f6f" fill-rule="evenodd" stroke="none"/>
    <path d="M-40.55 47.15 L-26.55 47.15 -26.55 53.15 -40.55 53.15 -40.55 47.15 M-247.65 -225.35 L-260.65 -225.35 -260.65 -231.8 -247.65 -231.8 -247.65 -225.35" fill="#ffffff" fill-rule="evenodd" stroke="none"/>
    <path d="M1.7 -104.05 L4.0 -104.8 6.35 -104.05 7.8 -102.05 7.8 -99.6 6.35 -97.6 4.05 -96.85 1.7 -97.6 0.25 -99.6 0.25 -102.05 1.7 -104.05 M-200.9 -188.05 L-200.9 -190.5 -199.45 -192.5 -197.15 -193.25 -194.8 -192.5 -193.35 -190.5 -193.35 -188.05 -194.8 -186.05 -197.1 -185.3 -199.45 -186.05 -200.9 -188.05 M-162.45 -69.65 L-161.0 -71.65 -158.7 -72.4 -156.35 -71.65 -154.9 -69.65 -154.9 -67.2 -156.35 -65.2 -158.65 -64.45 -161.0 -65.2 -162.45 -67.2 -162.45 -69.65 M-199.85 -67.2 L-201.3 -65.2 -203.6 -64.45 -205.95 -65.2 -207.4 -67.2 -207.4 -69.65 -205.95 -71.65 -203.65 -72.4 -201.3 -71.65 -199.85 -69.65 -199.85 -67.2 M-44.2 -131.25 L-44.2 -133.7 -42.75 -135.7 -40.45 -136.45 -38.1 -135.7 -36.65 -133.7 -36.65 -131.25 -38.1 -129.25 -40.4 -128.5 -42.75 -129.25 -44.2 -131.25 M-34.0 -107.4 L-31.65 -106.65 -30.2 -104.65 -30.2 -102.2 -31.65 -100.2 -33.95 -99.45 -36.3 -100.2 -37.75 -102.2 -37.75 -104.65 -36.3 -106.65 -34.0 -107.4 M-151.65 -188.05 L-153.1 -186.05 -155.4 -185.3 -157.75 -186.05 -159.2 -188.05 -159.2 -190.5 -157.75 -192.5 -155.45 -193.25 -153.1 -192.5 -151.65 -190.5 -151.65 -188.05 M-2.05 -80.95 L-2.05 -78.5 -3.5 -76.5 -5.8 -75.75 -8.15 -76.5 -9.6 -78.5 -9.6 -80.95 -8.15 -82.95 -5.85 -83.7 -3.5 -82.95 -2.05 -80.95 M-31.65 -86.85 L-30.2 -84.85 -30.2 -82.4 -31.65 -80.4 -33.95 -79.65 -36.3 -80.4 -37.75 -82.4 -37.75 -84.85 -36.3 -86.85 -34.0 -87.6 -31.65 -86.85 M-30.85 -65.7 L-30.85 -63.25 -32.3 -61.25 -34.6 -60.5 -36.95 -61.25 -38.4 -63.25 -38.4 -65.7 -36.95 -67.7 -34.65 -68.45 -32.3 -67.7 -30.85 -65.7 M-10.45 -55.8 L-9.0 -57.8 -6.7 -58.55 -4.35 -57.8 -2.9 -55.8 -2.9 -53.35 -4.35 -51.35 -6.65 -50.6 -9.0 -51.35 -10.45 -53.35 -10.45 -55.8" fill="#6f6f6f" fill-rule="evenodd" stroke="none"/>
  </g>
</svg>
