<?xml version="1.0" encoding="UTF-8" standalone="no"?>
<svg xmlns:ffdec="https://www.free-decompiler.com/flash" xmlns:xlink="http://www.w3.org/1999/xlink" ffdec:objectType="shape" height="10.75px" width="11.8px" xmlns="http://www.w3.org/2000/svg">
  <g transform="matrix(1.0, 0.0, 0.0, 1.0, 5.9, 5.35)">
    <path d="M4.45 -5.2 L5.3 -4.75 5.75 -4.0 5.9 -3.05 5.9 -1.15 Q5.9 -0.1 5.3 0.55 4.65 1.2 3.25 1.2 L2.3 1.2 2.3 5.4 0.7 5.4 0.7 -5.35 3.25 -5.35 4.45 -5.2 M3.25 -4.1 L2.3 -4.1 2.3 -0.1 3.25 -0.1 Q3.8 -0.1 4.05 -0.4 L4.25 -1.2 4.25 -2.95 4.05 -3.8 Q3.8 -4.1 3.25 -4.1 M-1.3 -4.75 L-0.85 -4.0 -0.7 -3.05 -0.7 -1.6 Q-0.7 -1.0 -1.0 -0.65 -1.3 -0.25 -1.7 -0.05 L-0.95 0.6 Q-0.7 1.05 -0.7 1.7 L-0.7 4.15 -0.65 4.8 -0.5 5.4 -2.15 5.4 -2.3 4.9 -2.35 4.3 -2.35 1.75 Q-2.35 1.25 -2.6 0.95 -2.85 0.65 -3.35 0.65 L-4.25 0.65 -4.25 5.4 -5.9 5.4 -5.9 -5.35 -3.35 -5.35 -2.15 -5.2 -1.3 -4.75 M-3.35 -4.1 L-4.25 -4.1 -4.25 -0.55 -3.35 -0.55 Q-2.85 -0.55 -2.6 -0.85 -2.35 -1.15 -2.35 -1.65 L-2.35 -3.0 Q-2.35 -3.5 -2.6 -3.8 -2.85 -4.1 -3.35 -4.1" fill="#ffffff" fill-rule="evenodd" stroke="none"/>
  </g>
</svg>
