<?xml version="1.0" encoding="UTF-8" standalone="no"?>
<svg xmlns:ffdec="https://www.free-decompiler.com/flash" xmlns:xlink="http://www.w3.org/1999/xlink" ffdec:objectType="shape" height="433.5px" width="375.75px" xmlns="http://www.w3.org/2000/svg">
  <g transform="matrix(1.0, 0.0, 0.0, 1.0, 206.55, 213.65)">
    <path d="M-28.9 -210.7 L-5.05 -210.65 -168.55 -116.2 -158.45 -135.9 -28.9 -210.7" fill="#a4867d" fill-rule="evenodd" stroke="none"/>
    <path d="M35.3 -213.65 L53.0 -209.0 -193.95 -66.9 -183.8 -86.65 35.3 -213.65" fill="#a4867d" fill-rule="evenodd" stroke="none"/>
    <path d="M90.45 -210.3 L91.05 -210.3 100.4 -202.2 -206.55 -25.0 -206.55 -38.85 90.45 -210.3" fill="#a4867d" fill-rule="evenodd" stroke="none"/>
    <path d="M114.8 -189.75 L124.4 -181.4 -206.55 9.65 -206.55 -4.2 114.8 -189.75" fill="#a4867d" fill-rule="evenodd" stroke="none"/>
    <path d="M138.8 -168.95 L148.4 -160.65 -206.55 44.3 -206.55 30.45 138.8 -168.95" fill="#a4867d" fill-rule="evenodd" stroke="none"/>
    <path d="M169.2 -142.6 L169.2 -138.0 -205.9 78.55 -206.55 77.25 -206.55 65.1 162.8 -148.15 169.2 -142.6" fill="#a4867d" fill-rule="evenodd" stroke="none"/>
    <path d="M169.2 -117.2 L169.2 -103.35 -192.15 105.25 -197.65 94.6 169.2 -117.2" fill="#a4867d" fill-rule="evenodd" stroke="none"/>
    <path d="M169.2 -82.55 L169.2 -68.7 -178.4 131.95 -183.9 121.3 169.2 -82.55" fill="#a4867d" fill-rule="evenodd" stroke="none"/>
    <path d="M169.2 -47.9 L169.2 -34.05 -164.65 158.7 -170.15 148.0 169.2 -47.9" fill="#a4867d" fill-rule="evenodd" stroke="none"/>
    <path d="M169.2 -13.3 L169.2 0.6 -141.55 180.0 -154.2 173.45 169.2 -13.3" fill="#a4867d" fill-rule="evenodd" stroke="none"/>
    <path d="M169.2 21.35 L169.2 35.2 -109.95 196.4 -122.6 189.85 169.2 21.35" fill="#a4867d" fill-rule="evenodd" stroke="none"/>
    <path d="M169.2 56.0 L169.2 69.85 -78.35 212.8 -91.0 206.25 169.2 56.0" fill="#a4867d" fill-rule="evenodd" stroke="none"/>
    <path d="M165.0 93.05 L150.5 115.3 -29.95 219.5 -53.7 219.35 165.0 93.05" fill="#a4867d" fill-rule="evenodd" stroke="none"/>
    <path d="M128.7 148.65 L114.2 170.9 29.45 219.85 5.7 219.7 128.7 148.65" fill="#a4867d" fill-rule="evenodd" stroke="none"/>
  </g>
</svg>
