<?xml version="1.0" encoding="UTF-8" standalone="no"?>
<svg xmlns:ffdec="https://www.free-decompiler.com/flash" xmlns:xlink="http://www.w3.org/1999/xlink" ffdec:objectType="shape" height="16.0px" width="16.0px" xmlns="http://www.w3.org/2000/svg">
  <g transform="matrix(1.0, 0.0, 0.0, 1.0, 12.8, -1.65)">
    <path d="M2.55 17.05 Q2.0 17.65 1.1 17.65 L-10.7 17.65 Q-11.55 17.65 -12.2 17.05 -12.75 16.45 -12.8 15.55 L-12.8 3.8 Q-12.75 2.9 -12.2 2.25 -11.55 1.7 -10.7 1.65 L1.1 1.65 Q2.0 1.7 2.55 2.25 3.2 2.9 3.2 3.8 L3.2 15.55 Q3.2 16.45 2.55 17.05" fill="#81b1d5" fill-rule="evenodd" stroke="none"/>
    <path d="M0.4 16.65 L-9.9 16.65 Q-10.7 16.65 -11.25 16.1 -11.75 15.6 -11.8 14.8 L-11.8 4.5 Q-11.75 3.75 -11.25 3.2 -10.7 2.7 -9.9 2.65 L0.4 2.65 Q1.15 2.7 1.7 3.2 2.2 3.75 2.2 4.5 L2.2 14.8 Q2.2 15.6 1.7 16.1 1.15 16.65 0.4 16.65" fill="#ffffff" fill-rule="evenodd" stroke="none"/>
  </g>
</svg>
