<?xml version="1.0" encoding="UTF-8" standalone="no"?>
<svg xmlns:ffdec="https://www.free-decompiler.com/flash" xmlns:xlink="http://www.w3.org/1999/xlink" ffdec:objectType="shape" height="662.15px" width="1280.0px" xmlns="http://www.w3.org/2000/svg">
  <g transform="matrix(1.0, 0.0, 0.0, 1.0, 0.0, 0.0)">
    <path d="M1280.0 662.15 L0.0 662.15 0.0 0.0 1280.0 0.0 1280.0 662.15 M437.85 68.1 Q437.85 60.85 431.75 58.75 425.95 56.75 418.35 60.5 410.2 64.5 404.95 73.0 398.85 82.9 398.85 96.15 398.85 98.75 400.35 101.4 403.05 106.15 409.35 106.15 417.75 106.15 419.65 98.05 420.2 95.75 420.3 92.05 420.4 88.8 420.6 88.4 424.4 80.35 432.05 76.55 435.2 74.95 436.2 73.8 437.85 71.9 437.85 68.1" fill="#ffffff" fill-rule="evenodd" stroke="none"/>
  </g>
</svg>
