<?xml version="1.0" encoding="UTF-8" standalone="no"?>
<svg xmlns:ffdec="https://www.free-decompiler.com/flash" xmlns:xlink="http://www.w3.org/1999/xlink" ffdec:objectType="shape" height="22.0px" width="17.0px" xmlns="http://www.w3.org/2000/svg">
  <g transform="matrix(1.0, 0.0, 0.0, 1.0, 6.5, 0.5)">
    <path d="M3.2 -0.5 L4.5 0.8 4.55 5.75 4.8 5.5 6.2 5.5 7.5 6.8 7.5 7.8 7.8 7.5 9.2 7.5 10.5 8.8 10.5 14.15 8.5 21.15 8.0 21.5 -1.0 21.5 -1.45 21.2 -3.45 16.2 -6.5 11.05 -6.5 9.0 -6.0 8.5 -4.0 8.5 -3.55 8.75 -2.5 10.35 -2.5 6.55 -1.2 5.2 0.2 5.2 0.5 5.5 0.5 0.8 1.8 -0.5 3.2 -0.5" fill="#000000" fill-rule="evenodd" stroke="none"/>
    <path d="M2.2 0.5 L2.8 0.5 3.5 1.2 3.5 10.0 4.5 10.0 4.5 7.2 5.2 6.5 5.8 6.5 6.5 7.2 6.5 11.0 7.5 11.0 7.5 9.2 8.2 8.5 8.8 8.5 9.5 9.2 9.5 13.95 7.65 20.5 -0.65 20.5 -2.55 15.75 -5.5 10.95 -5.5 9.5 -4.25 9.5 -2.4 12.3 -1.5 12.0 -1.5 6.9 -0.8 6.2 -0.2 6.2 0.5 6.9 0.5 10.0 1.5 10.0 1.5 1.2 2.2 0.5" fill="#ffffff" fill-rule="evenodd" stroke="none"/>
  </g>
</svg>
