<?xml version="1.0" encoding="UTF-8" standalone="no"?>
<svg xmlns:ffdec="https://www.free-decompiler.com/flash" xmlns:xlink="http://www.w3.org/1999/xlink" ffdec:objectType="shape" height="72.0px" width="88.0px" xmlns="http://www.w3.org/2000/svg">
  <g transform="matrix(1.0, 0.0, 0.0, 1.0, -142.0, -129.0)">
    <path d="M191.0 133.0 L191.0 135.0 161.0 135.0 161.0 133.0 191.0 133.0" fill="#404040" fill-rule="evenodd" stroke="none"/>
    <path d="M200.0 137.0 L200.0 139.0 170.0 139.0 170.0 137.0 200.0 137.0" fill="#404040" fill-rule="evenodd" stroke="none"/>
    <path d="M216.0 153.0 L216.0 155.0 186.0 155.0 186.0 153.0 216.0 153.0" fill="#404040" fill-rule="evenodd" stroke="none"/>
    <path d="M230.0 155.0 L230.0 157.0 200.0 157.0 200.0 155.0 230.0 155.0" fill="#404040" fill-rule="evenodd" stroke="none"/>
    <path d="M175.0 194.0 L175.0 196.0 145.0 196.0 145.0 194.0 175.0 194.0" fill="#404040" fill-rule="evenodd" stroke="none"/>
    <path d="M172.0 199.0 L172.0 201.0 142.0 201.0 142.0 199.0 172.0 199.0" fill="#404040" fill-rule="evenodd" stroke="none"/>
    <path d="M196.4 131.0 L196.4 133.0 166.4 133.0 166.4 131.0 196.4 131.0" fill="#404040" fill-rule="evenodd" stroke="none"/>
    <path d="M204.8 129.0 L204.8 131.0 174.8 131.0 174.8 129.0 204.8 129.0" fill="#404040" fill-rule="evenodd" stroke="none"/>
  </g>
</svg>
