<?xml version="1.0" encoding="UTF-8" standalone="no"?>
<svg xmlns:ffdec="https://www.free-decompiler.com/flash" xmlns:xlink="http://www.w3.org/1999/xlink" ffdec:objectType="shape" height="168.0px" width="624.0px" xmlns="http://www.w3.org/2000/svg">
  <g transform="matrix(1.0, 0.0, 0.0, 1.0, 222.0, -122.0)">
    <path d="M190.0 135.0 L190.0 137.0 160.0 137.0 160.0 135.0 190.0 135.0" fill="#404040" fill-rule="evenodd" stroke="none"/>
    <path d="M196.0 137.0 L196.0 139.0 166.0 139.0 166.0 137.0 196.0 137.0" fill="#404040" fill-rule="evenodd" stroke="none"/>
    <path d="M184.0 189.0 L184.0 191.0 154.0 191.0 154.0 189.0 184.0 189.0" fill="#404040" fill-rule="evenodd" stroke="none"/>
    <path d="M102.0 138.0 L402.0 138.0 402.0 122.0 102.0 122.0 102.0 138.0" fill="#1a1a1a" fill-opacity="0.23137255" fill-rule="evenodd" stroke="none"/>
    <path d="M-222.0 180.0 L78.0 180.0 78.0 164.0 -222.0 164.0 -222.0 180.0" fill="#1a1a1a" fill-opacity="0.23137255" fill-rule="evenodd" stroke="none"/>
    <path d="M26.0 261.0 L326.0 261.0 326.0 245.0 26.0 245.0 26.0 261.0" fill="#1a1a1a" fill-opacity="0.23137255" fill-rule="evenodd" stroke="none"/>
    <path d="M-22.0 290.0 L278.0 290.0 278.0 274.0 -22.0 274.0 -22.0 290.0" fill="#1a1a1a" fill-opacity="0.23137255" fill-rule="evenodd" stroke="none"/>
  </g>
</svg>
