<?xml version="1.0" encoding="UTF-8" standalone="no"?>
<svg xmlns:ffdec="https://www.free-decompiler.com/flash" xmlns:xlink="http://www.w3.org/1999/xlink" ffdec:objectType="shape" height="63.5px" width="173.0px" xmlns="http://www.w3.org/2000/svg">
  <g transform="matrix(1.0, 0.0, 0.0, 1.0, -23.0, -127.5)">
    <path d="M77.0 131.5 L45.0 131.5 45.0 129.5 77.0 129.5 77.0 131.5" fill="#1a1a1a" fill-rule="evenodd" stroke="none"/>
    <path d="M55.0 140.5 L23.0 140.5 23.0 138.5 55.0 138.5 55.0 140.5" fill="#1a1a1a" fill-rule="evenodd" stroke="none"/>
    <path d="M56.5 142.5 L24.5 142.5 24.5 140.5 56.5 140.5 56.5 142.5" fill="#1a1a1a" fill-rule="evenodd" stroke="none"/>
    <path d="M87.0 129.5 L55.0 129.5 55.0 127.5 87.0 127.5 87.0 129.5" fill="#1a1a1a" fill-rule="evenodd" stroke="none"/>
    <path d="M65.0 155.0 L33.0 155.0 33.0 153.0 65.0 153.0 65.0 155.0" fill="#1a1a1a" fill-rule="evenodd" stroke="none"/>
    <path d="M83.0 161.0 L23.0 161.0 23.0 159.0 83.0 159.0 83.0 161.0" fill="#1a1a1a" fill-rule="evenodd" stroke="none"/>
    <path d="M171.5 161.5 L139.5 161.5 139.5 159.5 171.5 159.5 171.5 161.5" fill="#1a1a1a" fill-rule="evenodd" stroke="none"/>
    <path d="M182.0 163.0 L150.0 163.0 150.0 161.0 182.0 161.0 182.0 163.0" fill="#1a1a1a" fill-rule="evenodd" stroke="none"/>
    <path d="M154.0 184.5 L122.0 184.5 122.0 182.5 154.0 182.5 154.0 184.5" fill="#1a1a1a" fill-rule="evenodd" stroke="none"/>
    <path d="M155.0 139.5 L123.0 139.5 123.0 137.5 155.0 137.5 155.0 139.5" fill="#1a1a1a" fill-rule="evenodd" stroke="none"/>
    <path d="M190.0 135.0 L190.0 137.0 160.0 137.0 160.0 135.0 190.0 135.0" fill="#404040" fill-rule="evenodd" stroke="none"/>
    <path d="M196.0 137.0 L196.0 139.0 166.0 139.0 166.0 137.0 196.0 137.0" fill="#404040" fill-rule="evenodd" stroke="none"/>
    <path d="M184.0 189.0 L184.0 191.0 154.0 191.0 154.0 189.0 184.0 189.0" fill="#404040" fill-rule="evenodd" stroke="none"/>
  </g>
</svg>
