<?xml version="1.0" encoding="UTF-8" standalone="no"?>
<svg xmlns:ffdec="https://www.free-decompiler.com/flash" xmlns:xlink="http://www.w3.org/1999/xlink" ffdec:objectType="shape" height="168.0px" width="624.0px" xmlns="http://www.w3.org/2000/svg">
  <g transform="matrix(1.0, 0.0, 0.0, 1.0, 222.0, -22.0)">
    <path d="M97.0 131.5 L65.0 131.5 65.0 129.5 97.0 129.5 97.0 131.5" fill="#1a1a1a" fill-rule="evenodd" stroke="none"/>
    <path d="M75.0 140.5 L43.0 140.5 43.0 138.5 75.0 138.5 75.0 140.5" fill="#1a1a1a" fill-rule="evenodd" stroke="none"/>
    <path d="M76.5 142.5 L44.5 142.5 44.5 140.5 76.5 140.5 76.5 142.5" fill="#1a1a1a" fill-rule="evenodd" stroke="none"/>
    <path d="M107.0 129.5 L75.0 129.5 75.0 127.5 107.0 127.5 107.0 129.5" fill="#1a1a1a" fill-rule="evenodd" stroke="none"/>
    <path d="M65.0 155.0 L33.0 155.0 33.0 153.0 65.0 153.0 65.0 155.0" fill="#1a1a1a" fill-rule="evenodd" stroke="none"/>
    <path d="M103.0 161.0 L43.0 161.0 43.0 159.0 103.0 159.0 103.0 161.0" fill="#1a1a1a" fill-rule="evenodd" stroke="none"/>
    <path d="M102.0 38.0 L402.0 38.0 402.0 22.0 102.0 22.0 102.0 38.0" fill="#1a1a1a" fill-rule="evenodd" stroke="none"/>
    <path d="M-222.0 80.0 L78.0 80.0 78.0 64.0 -222.0 64.0 -222.0 80.0" fill="#1a1a1a" fill-rule="evenodd" stroke="none"/>
    <path d="M26.0 161.0 L326.0 161.0 326.0 145.0 26.0 145.0 26.0 161.0" fill="#1a1a1a" fill-rule="evenodd" stroke="none"/>
    <path d="M-22.0 190.0 L278.0 190.0 278.0 174.0 -22.0 174.0 -22.0 190.0" fill="#1a1a1a" fill-rule="evenodd" stroke="none"/>
  </g>
</svg>
