<?xml version="1.0" encoding="UTF-8" standalone="no"?>
<svg xmlns:ffdec="https://www.free-decompiler.com/flash" xmlns:xlink="http://www.w3.org/1999/xlink" ffdec:objectType="shape" height="175.3px" width="202.6px" xmlns="http://www.w3.org/2000/svg">
  <g transform="matrix(1.0, 0.0, 0.0, 1.0, -91.9, -107.55)">
    <path d="M193.95 172.05 L193.75 172.05 193.55 172.05 193.2 172.05 193.15 172.05 Q175.75 172.15 159.5 179.1 153.95 181.45 148.7 184.6 L193.2 107.55 237.75 184.6 Q232.45 181.5 226.9 179.1 214.8 173.95 202.1 172.5 L193.95 172.05 M193.15 188.95 L193.95 188.95 Q205.1 189.2 213.1 197.2 221.35 205.45 221.35 217.1 221.35 222.85 219.3 227.8 217.25 232.85 213.1 237.0 204.85 245.2 193.2 245.2 181.55 245.2 173.3 237.0 170.85 234.55 169.15 231.85 165.05 225.3 165.05 217.1 165.05 205.45 173.3 197.2 181.5 188.95 193.15 188.95 M134.55 239.5 Q146.35 249.4 159.5 255.05 175.75 262.05 193.2 262.15 210.6 262.05 226.9 255.05 240.05 249.4 251.85 239.5 257.9 234.45 263.2 228.65 L294.5 282.85 91.9 282.85 123.25 228.65 Q128.5 234.45 134.55 239.5" fill="#000000" fill-opacity="0.2" fill-rule="evenodd" stroke="none"/>
  </g>
</svg>
