<?xml version="1.0" encoding="UTF-8" standalone="no"?>
<svg xmlns:ffdec="https://www.free-decompiler.com/flash" xmlns:xlink="http://www.w3.org/1999/xlink" ffdec:objectType="shape" height="175.3px" width="202.6px" xmlns="http://www.w3.org/2000/svg">
  <g transform="matrix(1.0, 0.0, 0.0, 1.0, 0.0, 0.0)">
    <path d="M145.85 77.05 Q153.1 81.35 159.95 87.1 164.8 91.15 169.1 95.65 L175.35 102.65 Q178.65 106.75 180.45 109.55 L180.4 109.55 Q178.65 112.35 175.3 116.4 L171.3 121.1 Q166.0 126.9 159.95 131.95 148.15 141.85 135.0 147.5 118.7 154.5 101.3 154.6 83.85 154.5 67.6 147.5 54.45 141.85 42.65 131.95 36.6 126.9 31.35 121.1 L27.25 116.4 Q23.95 112.35 22.2 109.55 L22.15 109.55 Q23.9 106.75 27.25 102.65 34.2 94.2 42.6 87.1 49.45 81.35 56.8 77.05 62.05 73.9 67.6 71.55 83.85 64.6 101.25 64.5 L101.3 64.5 101.65 64.5 101.85 64.5 102.05 64.5 110.2 64.95 Q122.9 66.4 135.0 71.55 140.55 73.95 145.85 77.05 M102.05 81.4 L101.25 81.4 Q89.6 81.4 81.4 89.65 73.15 97.9 73.15 109.55 73.15 117.75 77.25 124.3 78.95 127.0 81.4 129.45 89.65 137.65 101.3 137.65 112.95 137.65 121.2 129.45 125.35 125.3 127.4 120.25 129.45 115.3 129.45 109.55 129.45 97.9 121.2 89.65 113.2 81.65 102.05 81.4" fill="#000000" fill-rule="evenodd" stroke="none"/>
    <path d="M145.85 77.05 Q140.55 73.95 135.0 71.55 122.9 66.4 110.2 64.95 L102.05 64.5 101.85 64.5 101.65 64.5 101.3 64.5 101.25 64.5 Q83.85 64.6 67.6 71.55 62.05 73.9 56.8 77.05 L101.3 0.0 145.85 77.05 M31.35 121.1 Q36.6 126.9 42.65 131.95 54.45 141.85 67.6 147.5 83.85 154.5 101.3 154.6 118.7 154.5 135.0 147.5 148.15 141.85 159.95 131.95 166.0 126.9 171.3 121.1 L202.6 175.3 0.0 175.3 31.35 121.1 M102.05 81.4 Q113.2 81.65 121.2 89.65 129.45 97.9 129.45 109.55 129.45 115.3 127.4 120.25 125.35 125.3 121.2 129.45 112.95 137.65 101.3 137.65 89.65 137.65 81.4 129.45 78.95 127.0 77.25 124.3 73.15 117.75 73.15 109.55 73.15 97.9 81.4 89.65 89.6 81.4 101.25 81.4 L102.05 81.4" fill="#000000" fill-opacity="0.003921569" fill-rule="evenodd" stroke="none"/>
  </g>
</svg>
