<?xml version="1.0" encoding="UTF-8" standalone="no"?>
<svg xmlns:ffdec="https://www.free-decompiler.com/flash" xmlns:xlink="http://www.w3.org/1999/xlink" ffdec:objectType="shape" height="1450.5px" width="1068.5px" xmlns="http://www.w3.org/2000/svg">
  <g transform="matrix(1.0, 0.0, 0.0, 1.0, 781.8, 605.7)">
    <path d="M-781.8 -83.2 L-469.3 -83.2 -469.3 -605.7 286.7 -605.7 286.7 844.8 -781.8 844.8 -781.8 -83.2" fill="#434343" fill-rule="evenodd" stroke="none"/>
    <path d="M-65.0 143.0 L-65.0 134.5 -73.5 134.5 -73.5 143.0 -65.0 143.0 M-73.5 56.0 L-73.5 63.5 -65.0 63.5 -65.0 56.0 -73.5 56.0 M-65.0 -78.5 L-65.0 -87.0 -72.5 -87.0 -72.5 -78.5 -65.0 -78.5 M-65.0 -157.0 L-65.0 -165.5 -72.5 -165.5 -72.5 -157.0 -65.0 -157.0 M15.0 143.0 L15.0 134.5 6.0 134.5 6.0 143.0 15.0 143.0 M6.0 56.0 L6.0 63.5 14.0 63.5 14.0 56.0 6.0 56.0 M45.5 -87.0 L45.5 -81.0 58.0 -81.0 58.0 59.0 46.5 59.0 46.5 63.5 86.0 63.5 86.0 94.5 92.5 94.5 92.5 -86.5 118.7 -86.5 118.7 -92.35 94.0 -92.35 94.0 -100.2 86.0 -100.2 86.0 -87.0 45.5 -87.0 M15.0 -78.5 L15.0 -87.0 6.0 -87.0 6.0 -78.5 15.0 -78.5 M15.0 -157.0 L15.0 -165.5 6.0 -165.5 6.0 -157.0 15.0 -157.0 M26.0 -237.25 L26.0 -243.5 54.0 -243.5 54.0 -237.25 84.75 -237.25 84.75 -232.25 87.1 -232.25 87.1 -165.5 85.0 -165.5 85.0 -157.0 86.0 -157.0 86.0 -156.25 87.0 -156.25 87.0 -150.85 94.0 -150.85 94.0 -160.5 111.85 -160.5 111.85 -163.7 138.15 -163.7 138.15 -160.5 160.5 -160.5 160.5 -92.35 148.7 -92.35 148.7 -86.5 216.5 -86.5 216.5 136.0 92.5 136.0 92.5 122.5 86.5 122.5 86.5 134.5 84.5 134.5 84.5 193.5 54.5 193.5 54.5 201.0 26.0 201.0 26.0 193.5 -122.05 193.5 -122.05 -237.25 26.0 -237.25" fill="#969696" fill-rule="evenodd" stroke="none"/>
    <path d="M-1.0 70.75 L-1.0 128.75 -58.5 128.75 -58.5 70.75 -1.0 70.75" fill="#707070" fill-rule="evenodd" stroke="none"/>
    <path d="M77.8 -78.7 L92.0 -78.7 92.0 -86.25 108.8 -86.25 108.8 57.0 77.8 57.0 77.8 -78.7" fill="#707070" fill-rule="evenodd" stroke="none"/>
    <path d="M155.9 -86.5 L160.5 -86.5 160.5 80.3 155.9 80.3 155.9 -86.5" fill="#707070" fill-rule="evenodd" stroke="none"/>
    <path d="M48.15 -81.2 L58.5 -81.2 58.5 59.0 48.15 59.0 48.15 -81.2" fill="#707070" fill-rule="evenodd" stroke="none"/>
    <path d="M42.3 -41.0 L42.3 -15.7 -70.35 -15.7 -70.35 -41.0 42.3 -41.0" fill="#707070" fill-rule="evenodd" stroke="none"/>
    <path d="M-1.5 -153.0 L-1.5 -95.25 -58.5 -95.25 -58.5 -153.0 -1.5 -153.0" fill="#707070" fill-rule="evenodd" stroke="none"/>
    <path d="M72.8 143.8 L84.5 143.8 84.5 193.5 72.8 193.5 72.8 143.8" fill="#707070" fill-rule="evenodd" stroke="none"/>
    <path d="M-143.0 65.5 L-114.0 65.5 -114.0 160.0 10.0 160.0 10.0 193.5 -122.05 193.5 -122.05 134.25 -143.0 134.25 -143.0 65.5" fill="#707070" fill-rule="evenodd" stroke="none"/>
    <path d="M-142.35 -78.2 L-107.2 -78.2 -107.2 57.15 -142.35 57.15 -142.35 -78.2" fill="#707070" fill-rule="evenodd" stroke="none"/>
    <path d="M-142.7 -199.5 L-113.85 -199.5 -113.85 -87.2 -142.7 -87.2 -142.7 -199.5" fill="#707070" fill-rule="evenodd" stroke="none"/>
    <path d="M-122.05 -237.25 L19.8 -237.25 19.8 -199.5 -122.05 -199.5 -122.05 -237.25" fill="#707070" fill-rule="evenodd" stroke="none"/>
    <path d="M87.1 -231.65 L87.1 -215.75 80.75 -215.75 80.75 -231.65 87.1 -231.65" fill="#707070" fill-rule="evenodd" stroke="none"/>
    <path d="M83.75 -211.15 L87.1 -211.15 87.1 -170.5 83.75 -170.5 83.75 -211.15" fill="#707070" fill-rule="evenodd" stroke="none"/>
    <path d="M-25.25 70.75 L-25.25 124.5 -55.0 124.5 -55.0 70.75 -25.25 70.75" fill="#ffffff" fill-rule="evenodd" stroke="none"/>
    <path d="M210.5 44.5 L160.5 44.5 160.5 31.55 210.5 31.55 210.5 44.5" fill="#ffffff" fill-rule="evenodd" stroke="none"/>
    <path d="M210.5 13.7 L210.5 26.65 160.5 26.65 160.5 13.7 210.5 13.7" fill="#ffffff" fill-rule="evenodd" stroke="none"/>
    <path d="M210.5 -4.15 L210.5 8.85 160.5 8.85 160.5 -4.15 210.5 -4.15" fill="#ffffff" fill-rule="evenodd" stroke="none"/>
    <path d="M160.5 -21.95 L210.5 -21.95 210.5 -9.0 160.5 -9.0 160.5 -21.95" fill="#ffffff" fill-rule="evenodd" stroke="none"/>
    <path d="M160.5 80.0 L160.5 67.05 210.5 67.05 210.5 80.0 160.5 80.0" fill="#ffffff" fill-rule="evenodd" stroke="none"/>
    <path d="M160.5 62.15 L160.5 49.2 210.5 49.2 210.5 62.15 160.5 62.15" fill="#ffffff" fill-rule="evenodd" stroke="none"/>
  </g>
</svg>
