<?xml version="1.0" encoding="UTF-8" standalone="no"?>
<svg xmlns:ffdec="https://www.free-decompiler.com/flash" xmlns:xlink="http://www.w3.org/1999/xlink" ffdec:objectType="shape" height="22.8px" width="20.05px" xmlns="http://www.w3.org/2000/svg">
  <g transform="matrix(1.0, 0.0, 0.0, 1.0, 10.0, 11.4)">
    <path d="M-9.95 -0.65 Q-9.8 -3.6 -8.6 -7.45 L-7.15 -11.4 -7.1 -11.4 Q-5.65 -8.0 -5.0 -5.2 -4.3 -2.65 -4.25 -0.6 L-4.25 11.4 -10.0 11.4 -9.95 -0.65 M7.2 -11.4 L9.25 -5.55 Q10.0 -2.4 10.05 -0.3 L10.05 11.4 4.35 11.4 4.3 1.2 Q4.3 -1.85 4.8 -4.0 5.6 -7.65 7.15 -11.4 L7.2 -11.4 M2.15 -5.2 Q2.9 -2.1 2.9 -0.25 L2.9 11.4 -2.85 11.4 -2.8 11.3 -2.8 1.65 -2.75 -1.3 Q-2.6 -3.4 -1.85 -6.05 L0.0 -11.4 0.05 -11.4 0.1 -11.25 Q1.45 -8.1 2.15 -5.2" fill="#ffffff" fill-rule="evenodd" stroke="none"/>
  </g>
</svg>
