<?xml version="1.0" encoding="UTF-8" standalone="no"?>
<svg xmlns:ffdec="https://www.free-decompiler.com/flash" xmlns:xlink="http://www.w3.org/1999/xlink" ffdec:objectType="shape" height="25.6px" width="22.85px" xmlns="http://www.w3.org/2000/svg">
  <g transform="matrix(1.0, 0.0, 0.0, 1.0, 11.4, 12.8)">
    <path d="M-1.45 -1.4 Q-1.45 -2.75 -2.4 -3.75 -3.4 -4.8 -4.75 -4.8 -6.05 -4.8 -7.05 -3.8 -8.05 -2.8 -8.1 -1.5 -8.1 -0.5 -7.55 0.3 -6.5 1.85 -4.8 1.85 -3.85 1.9 -3.0 1.3 -2.2 0.75 -1.75 -0.15 -1.45 -0.75 -1.45 -1.4 M8.15 -1.5 Q8.15 -2.8 7.15 -3.8 6.15 -4.8 4.85 -4.8 3.5 -4.8 2.5 -3.75 1.5 -2.75 1.55 -1.4 L1.8 -0.15 Q2.25 0.75 3.05 1.3 3.95 1.9 4.9 1.85 6.55 1.85 7.6 0.3 8.15 -0.5 8.15 -1.5 M5.4 -11.5 L7.0 -10.45 8.05 -9.5 Q9.5 -8.05 10.3 -6.3 L11.1 -3.85 11.4 -1.15 11.4 -1.1 11.4 12.3 7.95 8.85 3.95 12.8 0.05 8.95 -3.85 12.8 -7.85 8.85 -11.35 12.3 -11.35 -1.1 -11.35 -1.15 -11.0 -3.85 -10.7 -5.1 Q-9.85 -7.7 -7.95 -9.5 L-6.9 -10.45 -4.5 -11.95 Q-2.7 -12.65 -0.9 -12.8 L1.0 -12.8 3.7 -12.25 5.4 -11.5" fill="#ffffff" fill-rule="evenodd" stroke="none"/>
  </g>
</svg>
