<?xml version="1.0" encoding="UTF-8" standalone="no"?>
<svg xmlns:ffdec="https://www.free-decompiler.com/flash" xmlns:xlink="http://www.w3.org/1999/xlink" ffdec:objectType="shape" height="29.75px" width="29.7px" xmlns="http://www.w3.org/2000/svg">
  <g transform="matrix(1.0, 0.0, 0.0, 1.0, 14.85, 14.85)">
    <path d="M3.4 -12.85 Q5.85 -15.35 9.35 -14.7 L6.5 -11.9 6.55 -11.85 6.0 -11.35 7.1 -7.15 11.3 -6.05 14.7 -9.45 Q15.05 -7.8 14.6 -6.2 14.1 -4.55 12.9 -3.35 11.55 -2.0 9.65 -1.55 L6.05 -1.75 -1.8 6.05 Q-1.2 7.85 -1.6 9.65 -2.05 11.55 -3.4 12.95 -5.9 15.4 -9.35 14.8 L-6.0 11.4 -7.15 7.2 -11.3 6.1 -11.35 6.1 -14.75 9.5 Q-15.05 7.9 -14.6 6.3 -14.1 4.65 -12.9 3.45 -11.55 2.1 -9.7 1.65 L-6.15 1.8 1.75 -6.1 Q1.2 -7.85 1.6 -9.65 2.05 -11.5 3.4 -12.85" fill="#ffffff" fill-rule="evenodd" stroke="none"/>
  </g>
</svg>
