<?xml version="1.0" encoding="UTF-8" standalone="no"?>
<svg xmlns:ffdec="https://www.free-decompiler.com/flash" xmlns:xlink="http://www.w3.org/1999/xlink" ffdec:objectType="shape" height="725.85px" width="1942.65px" xmlns="http://www.w3.org/2000/svg">
  <g transform="matrix(1.0, 0.0, 0.0, 1.0, 943.65, 390.5)">
    <path d="M401.0 182.5 L332.3 182.5 332.3 335.35 -252.55 335.35 -252.55 187.25 -324.15 187.25 -711.85 85.35 -943.65 -56.3 -894.4 -141.6 -648.45 -1.75 -648.45 -54.6 -252.55 -54.6 -252.55 -390.5 332.3 -390.5 332.3 84.0 387.6 84.0 711.7 -2.85 950.75 -140.85 999.0 -56.55 750.6 88.7 401.0 182.5" fill="#434343" fill-rule="evenodd" stroke="none"/>
    <path d="M-580.7 49.25 L-579.0 42.9 -334.95 108.25 -319.6 108.25 -319.6 116.25 -237.75 116.25 -237.75 108.8 -151.65 108.8 -151.65 104.1 -31.0 104.1 -31.0 162.35 -151.65 162.35 -151.65 157.15 -237.75 157.15 -237.75 148.9 -319.6 148.9 -319.6 156.75 -341.1 156.75 -341.1 153.95 -341.85 156.65 -591.55 89.75 -589.45 81.9 -663.85 61.95 -665.95 69.65 -688.65 62.05 -909.5 -65.45 -885.25 -107.45 -665.05 19.7 -653.35 22.8 -655.1 29.3 -580.7 49.25" fill="#000000" fill-rule="evenodd" stroke="none"/>
    <path d="M711.45 30.1 L709.7 23.6 721.35 20.45 941.55 -106.7 965.8 -64.7 745.35 64.25 722.25 70.4 720.2 62.7 645.8 82.65 647.9 90.5 398.25 157.4 397.5 154.7 397.5 157.5 376.0 157.5 376.0 149.65 298.0 149.65 298.0 158.15 208.35 158.15 208.35 162.35 28.5 162.35 28.5 104.1 208.35 104.1 208.35 109.8 298.0 109.8 298.0 117.0 376.0 117.0 376.0 109.0 391.35 109.0 635.3 43.65 637.05 50.05 711.45 30.1" fill="#000000" fill-rule="evenodd" stroke="none"/>
    <path d="M-96.5 -75.5 L-84.0 -75.5 -84.0 -36.25 -96.5 -36.25 -96.5 -75.5" fill="#000000" fill-rule="evenodd" stroke="none"/>
    <path d="M-96.5 -15.25 L-84.0 -15.25 -84.0 24.0 -96.5 24.0 -96.5 -15.25" fill="#000000" fill-rule="evenodd" stroke="none"/>
    <path d="M-96.5 -134.5 L-84.0 -134.5 -84.0 -95.25 -96.5 -95.25 -96.5 -134.5" fill="#000000" fill-rule="evenodd" stroke="none"/>
    <path d="M82.8 -33.15 L82.8 -18.15 97.8 -18.15 97.8 -33.15 82.8 -33.15 M97.55 -77.9 L97.55 -92.9 82.55 -92.9 82.55 -77.9 97.55 -77.9 M-22.45 -18.15 L-22.45 -32.7 -25.75 -32.7 -25.75 -36.5 -35.65 -36.5 -35.65 -32.7 -38.95 -32.7 -38.95 -18.15 -35.65 -18.15 -35.65 -14.3 -25.75 -14.3 -25.75 -18.15 -22.45 -18.15 M-22.45 -78.8 L-22.45 -93.35 -25.75 -93.35 -25.75 -97.15 -35.65 -97.15 -35.65 -93.35 -38.95 -93.35 -38.95 -78.8 -35.65 -78.8 -35.65 -75.0 -25.75 -75.0 -25.75 -78.8 -22.45 -78.8 M-25.45 -218.2 L-37.95 -218.2 -37.95 -205.7 -25.45 -205.7 -25.45 -218.2 M34.6 -217.85 L22.1 -217.85 22.1 -205.35 34.6 -205.35 34.6 -217.85 M22.1 -277.85 L22.1 -265.35 34.6 -265.35 34.6 -277.85 22.1 -277.85 M-37.95 -278.2 L-37.95 -265.7 -25.45 -265.7 -25.45 -278.2 -37.95 -278.2 M-97.0 -353.65 L-97.0 -325.35 -86.0 -325.35 -86.0 -353.65 -37.0 -353.65 -37.0 -325.35 -26.0 -325.35 -26.0 -353.65 23.0 -353.65 23.0 -325.35 34.0 -325.35 34.0 -353.65 82.35 -353.65 82.35 -277.85 82.15 -277.85 82.15 -265.35 82.35 -265.35 82.35 -252.25 90.6 -252.25 90.6 -265.35 94.65 -265.35 94.65 -277.85 90.6 -277.85 90.6 -326.35 94.0 -326.35 94.0 -353.65 142.5 -353.65 142.5 -325.9 152.05 -325.9 152.05 -316.9 156.8 -316.65 160.1 -316.0 163.15 -314.95 165.95 -313.5 168.4 -311.7 170.4 -309.6 171.95 -307.25 172.9 -304.8 173.35 -302.2 173.2 -299.6 172.5 -297.05 171.25 -294.65 169.45 -292.45 167.25 -290.5 164.6 -288.85 161.65 -287.6 158.45 -286.7 152.05 -286.5 152.05 -277.15 142.5 -277.15 142.5 -265.65 152.05 -265.65 152.05 -256.65 156.8 -256.4 160.1 -255.75 163.15 -254.7 165.95 -253.25 168.4 -251.45 170.4 -249.35 171.95 -247.0 172.9 -244.55 173.35 -241.95 173.2 -239.35 172.5 -236.8 171.25 -234.4 169.45 -232.2 167.25 -230.25 164.6 -228.6 161.65 -227.35 158.45 -226.45 152.05 -226.25 152.05 -217.5 142.5 -217.5 142.5 -206.0 152.05 -206.0 152.05 -197.0 156.8 -196.75 160.1 -196.1 163.15 -195.0 165.95 -193.55 168.4 -191.75 170.4 -189.65 171.95 -187.35 172.9 -184.85 173.35 -182.3 173.2 -179.7 172.5 -177.15 171.25 -174.75 169.45 -172.5 167.25 -170.55 164.6 -168.95 161.65 -167.65 158.45 -166.8 152.05 -166.55 152.05 -157.5 142.5 -157.5 142.5 -150.85 90.6 -150.85 90.6 -205.35 94.65 -205.35 94.65 -217.85 90.6 -217.85 90.6 -230.75 82.35 -230.75 82.35 -217.85 82.15 -217.85 82.15 -205.35 82.35 -205.35 82.35 -150.85 34.35 -150.85 34.35 -158.0 22.35 -158.0 22.35 -141.3 22.5 -141.3 22.5 -140.5 26.0 -140.5 26.0 -96.5 22.5 -96.5 22.5 -92.65 19.7 -92.65 19.7 -92.5 19.0 -92.5 19.0 -77.65 22.7 -77.65 22.7 -74.5 23.5 -74.5 23.5 -68.15 29.85 -68.15 29.85 -78.0 37.7 -78.0 37.7 -92.65 29.85 -92.65 29.85 -141.3 34.35 -141.3 34.35 -144.65 82.35 -144.65 82.35 -144.1 82.45 -144.1 82.45 -138.65 97.45 -138.65 97.45 -144.65 142.5 -144.65 142.5 -137.5 197.0 -137.5 197.0 -93.5 142.5 -93.5 142.5 -77.5 198.0 -77.5 198.0 -33.5 142.5 -33.5 142.5 -18.0 170.35 -18.0 170.35 26.0 142.5 26.0 142.5 34.5 97.45 34.5 97.45 26.85 82.45 26.85 82.45 34.5 37.35 34.5 37.35 26.7 29.85 26.7 29.85 -18.65 37.7 -18.65 37.7 -33.3 29.85 -33.3 29.85 -44.0 23.5 -44.0 23.5 -36.0 22.7 -36.0 22.7 -33.3 19.7 -33.3 19.7 -18.65 22.7 -18.65 22.7 -15.0 26.0 -15.0 26.0 23.7 22.7 23.7 22.7 26.7 19.35 26.7 19.35 42.1 10.35 42.1 10.35 44.85 173.85 44.85 173.85 59.85 177.0 59.85 177.0 -23.0 292.7 -23.0 292.7 -11.0 295.35 -11.0 295.35 13.35 292.7 13.35 292.7 46.35 235.0 46.35 235.0 54.35 294.7 54.35 294.7 90.05 291.9 90.05 291.35 90.15 291.35 109.8 257.7 109.8 257.7 94.8 231.7 98.35 177.0 100.0 177.0 85.35 173.85 85.35 173.85 98.85 170.1 98.85 170.1 104.1 28.5 104.1 28.5 162.35 22.4 162.35 22.4 166.1 19.8 166.1 19.8 180.6 23.2 180.6 23.2 183.35 24.15 183.35 24.15 183.6 27.4 183.6 27.4 221.75 24.15 221.75 24.15 222.5 23.2 222.5 23.2 225.75 20.5 225.75 20.5 240.85 22.75 240.85 22.75 243.85 28.0 243.85 28.0 282.6 22.75 282.6 22.75 285.5 20.5 285.5 20.5 293.0 -22.25 293.0 -22.25 285.5 -24.8 285.5 -24.8 282.6 -26.3 282.6 -26.3 274.35 -30.15 274.35 -30.15 251.1 -26.3 251.1 -26.3 243.85 -24.8 243.85 -24.8 240.85 -22.05 240.85 -22.05 225.75 -24.4 225.75 -24.4 221.75 -27.65 221.75 -27.65 183.6 -24.4 183.6 -24.4 180.6 -22.15 180.6 -22.15 166.1 -24.0 166.1 -24.0 162.35 -31.0 162.35 -31.0 104.1 -123.15 104.1 -123.15 98.85 -126.9 98.85 -126.9 85.35 -132.0 85.35 -132.0 99.0 -201.3 93.1 -201.3 109.35 -234.65 109.35 -234.65 90.2 -237.0 90.0 -230.95 43.2 -236.25 42.5 -239.3 61.7 -330.05 43.45 -560.0 71.7 -567.4 11.5 -328.0 -17.9 -328.0 -18.0 -327.7 -17.95 -327.5 -18.0 -327.5 -17.9 -315.0 -16.65 -228.65 -5.0 -232.5 18.95 -227.9 19.6 -223.0 -18.5 -132.0 -19.0 -132.0 59.85 -126.9 59.85 -126.9 44.85 -12.9 44.85 -12.9 42.1 -22.45 42.1 -22.45 26.95 -25.75 26.95 -25.75 23.15 -35.65 23.15 -35.65 26.95 -38.95 26.95 -38.95 33.7 -80.8 33.7 -80.8 27.0 -84.0 27.0 -84.0 -18.0 -80.8 -18.0 -80.8 -33.0 -84.0 -33.0 -84.0 -78.0 -80.8 -78.0 -80.8 -93.0 -84.0 -93.0 -84.0 -138.0 -80.8 -138.0 -80.8 -146.5 -39.15 -146.5 -39.15 -140.15 -36.4 -140.15 -36.4 -135.3 -28.1 -135.3 -28.1 -140.15 -25.3 -140.15 -25.3 -157.7 -39.15 -157.7 -39.15 -150.85 -84.85 -150.85 -84.85 -157.35 -97.35 -157.35 -97.35 -150.85 -146.2 -150.85 -146.2 -157.35 -172.65 -157.35 -172.65 -205.7 -146.7 -205.7 -146.7 -210.0 -98.05 -210.0 -98.05 -205.2 -85.55 -205.2 -85.55 -217.7 -88.65 -217.7 -88.65 -226.65 -96.0 -226.65 -96.0 -257.3 -88.65 -257.3 -88.65 -265.2 -85.55 -265.2 -85.55 -277.7 -98.05 -277.7 -98.05 -274.0 -145.4 -274.0 -145.4 -278.2 -172.65 -278.2 -172.65 -326.35 -146.0 -326.35 -146.0 -353.65 -97.0 -353.65" fill="#000000" fill-rule="evenodd" stroke="none"/>
    <path d="M-150.25 -216.5 L-150.25 -266.5 -96.5 -266.5 -96.5 -216.5 -150.25 -216.5" fill="#000000" fill-rule="evenodd" stroke="none"/>
    <path d="M162.35 -248.65 L162.35 -234.3 149.0 -234.3 149.0 -248.65 162.35 -248.65" fill="#000000" fill-rule="evenodd" stroke="none"/>
    <path d="M167.75 -189.15 L167.75 -173.5 152.5 -173.5 152.5 -189.15 167.75 -189.15" fill="#000000" fill-rule="evenodd" stroke="none"/>
    <path d="M152.75 -310.0 L168.0 -310.0 168.0 -293.75 152.75 -293.75 152.75 -310.0" fill="#000000" fill-rule="evenodd" stroke="none"/>
    <path d="M127.7 -344.8 L127.7 -326.65 108.1 -326.65 108.1 -344.8 127.7 -344.8" fill="#000000" fill-rule="evenodd" stroke="none"/>
    <path d="M-21.65 -322.0 L-21.65 -348.3 20.7 -348.3 20.7 -322.0 -21.65 -322.0" fill="#000000" fill-rule="evenodd" stroke="none"/>
    <path d="M-78.0 -152.5 L-78.0 -166.0 -41.3 -166.0 -41.3 -152.5 -78.0 -152.5" fill="#000000" fill-rule="evenodd" stroke="none"/>
    <path d="M31.0 -137.5 L50.5 -137.5 50.5 -94.5 31.0 -94.5 31.0 -137.5" fill="#000000" fill-rule="evenodd" stroke="none"/>
    <path d="M142.0 -143.8 L142.0 -133.3 98.5 -133.3 98.5 -143.8 142.0 -143.8" fill="#000000" fill-rule="evenodd" stroke="none"/>
    <path d="M81.0 21.7 L81.0 34.5 41.5 34.5 41.5 21.7 81.0 21.7" fill="#000000" fill-rule="evenodd" stroke="none"/>
    <path d="M30.75 -16.0 L40.0 -16.0 40.0 22.6 30.75 22.6 30.75 -16.0" fill="#000000" fill-rule="evenodd" stroke="none"/>
    <path d="M100.2 34.5 L100.2 21.7 139.7 21.7 139.7 34.5 100.2 34.5" fill="#000000" fill-rule="evenodd" stroke="none"/>
    <path d="M160.25 -33.9 L160.25 -77.4 180.75 -77.4 180.75 -33.9 160.25 -33.9" fill="#000000" fill-rule="evenodd" stroke="none"/>
    <path d="M183.0 -75.8 L197.0 -75.8 197.0 -35.55 183.0 -35.55 183.0 -75.8" fill="#000000" fill-rule="evenodd" stroke="none"/>
    <path d="M183.0 -135.8 L197.0 -135.8 197.0 -95.55 183.0 -95.55 183.0 -135.8" fill="#000000" fill-rule="evenodd" stroke="none"/>
    <path d="M-101.0 -351.5 L-101.0 -325.0 -116.0 -325.0 -116.0 -351.5 -101.0 -351.5" fill="#000000" fill-rule="evenodd" stroke="none"/>
    <path d="M-116.3 -352.8 L-116.3 -344.15 -129.3 -344.15 -129.3 -352.8 -116.3 -352.8" fill="#000000" fill-rule="evenodd" stroke="none"/>
    <path d="M-134.5 -353.15 L-134.5 -341.3 -143.8 -341.3 -143.8 -353.15 -134.5 -353.15" fill="#000000" fill-rule="evenodd" stroke="none"/>
    <path d="M-134.65 -331.0 L-134.65 -321.8 -143.5 -321.8 -143.5 -331.0 -134.65 -331.0" fill="#000000" fill-rule="evenodd" stroke="none"/>
    <path d="M-72.6 -333.6 L-71.75 -325.75 -80.4 -324.8 -81.35 -333.2 -73.15 -334.1 -82.3 -343.3 -74.5 -351.15 -59.8 -336.5 -54.55 -341.75 -37.85 -325.1 -43.15 -319.8 -39.8 -316.5 -47.65 -308.65 -51.0 -312.0 -57.0 -306.0 -73.65 -322.65 -67.65 -328.65 -72.6 -333.6" fill="#000000" fill-rule="evenodd" stroke="none"/>
    <path d="M-171.5 -322.5 L-145.0 -322.5 -145.0 -307.0 -153.5 -307.0 -153.5 -288.5 -169.0 -288.5 -169.0 -307.0 -171.5 -307.0 -171.5 -322.5" fill="#000000" fill-rule="evenodd" stroke="none"/>
    <path d="M52.0 -351.0 L52.0 -338.0 37.0 -338.0 37.0 -351.0 52.0 -351.0" fill="#000000" fill-rule="evenodd" stroke="none"/>
    <path d="M70.25 -331.5 L58.75 -331.5 52.5 -335.25 52.5 -350.85 64.0 -350.85 70.25 -347.1 70.25 -346.5 80.5 -346.5 80.5 -337.25 70.25 -337.25 70.25 -331.5" fill="#000000" fill-rule="evenodd" stroke="none"/>
    <path d="M64.6 -168.7 L80.55 -169.7 81.45 -155.5 65.5 -154.5 64.6 -168.7" fill="#000000" fill-rule="evenodd" stroke="none"/>
    <path d="M54.1 -161.25 L62.65 -161.7 63.1 -153.1 54.55 -152.65 54.1 -161.25" fill="#000000" fill-rule="evenodd" stroke="none"/>
    <path d="M-172.5 -191.3 L-172.5 -203.0 -156.0 -203.0 -156.0 -191.3 -172.5 -191.3" fill="#000000" fill-rule="evenodd" stroke="none"/>
    <path d="M-108.3 -166.0 L-108.3 -159.5 -100.3 -159.5 -100.3 -151.3 -126.15 -151.3 -126.15 -166.0 -108.3 -166.0" fill="#000000" fill-rule="evenodd" stroke="none"/>
    <path d="M-143.3 -159.65 L-134.0 -159.65 -134.0 -151.15 -143.3 -151.15 -143.3 -159.65" fill="#000000" fill-rule="evenodd" stroke="none"/>
    <path d="M66.0 59.0 L66.0 44.85 105.25 44.85 105.25 59.0 66.0 59.0" fill="#000000" fill-rule="evenodd" stroke="none"/>
    <path d="M-563.95 10.05 L-563.6 12.7 -566.35 13.0 -560.45 68.95 -446.65 54.15 -447.9 42.15 -442.9 41.65 -441.15 58.5 -564.9 74.6 -572.1 5.9 -327.3 -20.85 -228.0 -7.1 -228.65 -2.15 -256.0 -5.95 -256.5 -2.05 -264.7 -3.05 -264.2 -7.05 -315.35 -14.15 -316.0 -12.0 -326.65 -14.0 -336.65 -13.3 -336.9 -14.75 -388.2 -9.15 -387.95 -6.9 -396.15 -5.85 -396.45 -8.25 -446.5 -2.8 -446.2 -0.15 -454.4 0.9 -454.75 -1.9 -505.55 3.65 -505.2 6.55 -513.45 7.55 -513.8 4.55 -563.95 10.05" fill="#000000" fill-rule="evenodd" stroke="none"/>
    <path d="M-389.6 35.95 L-384.65 35.45 -383.4 47.35 -324.7 41.25 -272.85 51.2 -272.55 49.0 -264.35 50.05 -264.7 52.75 -236.2 58.25 -237.1 63.15 -273.35 56.2 -273.45 56.2 -324.95 46.3 -387.85 52.85 -389.6 35.95" fill="#000000" fill-rule="evenodd" stroke="none"/>
    <path d="M-580.7 49.25 L-579.0 42.9 -334.95 108.25 -319.6 108.25 -319.6 116.25 -237.75 116.25 -237.75 108.8 -151.65 108.8 -151.65 104.1 -31.0 104.1 -31.0 162.35 -151.65 162.35 -151.65 157.15 -237.75 157.15 -237.75 148.9 -319.6 148.9 -319.6 156.75 -341.1 156.75 -341.1 153.95 -341.85 156.65 -591.55 89.75 -589.45 81.9 -663.85 61.95 -665.95 69.65 -688.65 62.05 -909.5 -65.45 -885.25 -107.45 -665.05 19.7 -653.35 22.8 -655.1 29.3 -580.7 49.25" fill="#707070" fill-rule="evenodd" stroke="none"/>
    <path d="M711.45 30.1 L709.7 23.6 721.35 20.45 941.55 -106.7 965.8 -64.7 745.35 64.25 722.25 70.4 720.2 62.7 645.8 82.65 647.9 90.5 398.25 157.4 397.5 154.7 397.5 157.5 376.0 157.5 376.0 149.65 298.0 149.65 298.0 158.15 208.35 158.15 208.35 162.35 28.5 162.35 28.5 104.1 208.35 104.1 208.35 109.8 298.0 109.8 298.0 117.0 376.0 117.0 376.0 109.0 391.35 109.0 635.3 43.65 637.05 50.05 711.45 30.1" fill="#707070" fill-rule="evenodd" stroke="none"/>
    <path d="M-96.5 -75.5 L-84.0 -75.5 -84.0 -36.25 -96.5 -36.25 -96.5 -75.5" fill="#707070" fill-rule="evenodd" stroke="none"/>
    <path d="M-96.5 -15.25 L-84.0 -15.25 -84.0 24.0 -96.5 24.0 -96.5 -15.25" fill="#707070" fill-rule="evenodd" stroke="none"/>
    <path d="M-96.5 -134.5 L-84.0 -134.5 -84.0 -95.25 -96.5 -95.25 -96.5 -134.5" fill="#707070" fill-rule="evenodd" stroke="none"/>
    <path d="M82.8 -33.15 L82.8 -18.15 97.8 -18.15 97.8 -33.15 82.8 -33.15 M97.55 -77.9 L97.55 -92.9 82.55 -92.9 82.55 -77.9 97.55 -77.9 M-22.45 -18.15 L-22.45 -32.7 -25.75 -32.7 -25.75 -36.5 -35.65 -36.5 -35.65 -32.7 -38.95 -32.7 -38.95 -18.15 -35.65 -18.15 -35.65 -14.3 -25.75 -14.3 -25.75 -18.15 -22.45 -18.15 M-22.45 -78.8 L-22.45 -93.35 -25.75 -93.35 -25.75 -97.15 -35.65 -97.15 -35.65 -93.35 -38.95 -93.35 -38.95 -78.8 -35.65 -78.8 -35.65 -75.0 -25.75 -75.0 -25.75 -78.8 -22.45 -78.8 M-25.45 -218.2 L-37.95 -218.2 -37.95 -205.7 -25.45 -205.7 -25.45 -218.2 M34.6 -217.85 L22.1 -217.85 22.1 -205.35 34.6 -205.35 34.6 -217.85 M22.1 -277.85 L22.1 -265.35 34.6 -265.35 34.6 -277.85 22.1 -277.85 M-37.95 -278.2 L-37.95 -265.7 -25.45 -265.7 -25.45 -278.2 -37.95 -278.2 M-97.0 -353.65 L-97.0 -325.35 -86.0 -325.35 -86.0 -353.65 -37.0 -353.65 -37.0 -325.35 -26.0 -325.35 -26.0 -353.65 23.0 -353.65 23.0 -325.35 34.0 -325.35 34.0 -353.65 82.35 -353.65 82.35 -277.85 82.15 -277.85 82.15 -265.35 82.35 -265.35 82.35 -252.25 90.6 -252.25 90.6 -265.35 94.65 -265.35 94.65 -277.85 90.6 -277.85 90.6 -326.35 94.0 -326.35 94.0 -353.65 142.5 -353.65 142.5 -325.9 152.05 -325.9 152.05 -316.9 156.8 -316.65 160.1 -316.0 163.15 -314.95 165.95 -313.5 168.4 -311.7 170.4 -309.6 171.95 -307.25 172.9 -304.8 173.35 -302.2 173.2 -299.6 172.5 -297.05 171.25 -294.65 169.45 -292.45 167.25 -290.5 164.6 -288.85 161.65 -287.6 158.45 -286.7 152.05 -286.5 152.05 -277.15 142.5 -277.15 142.5 -265.65 152.05 -265.65 152.05 -256.65 156.8 -256.4 160.1 -255.75 163.15 -254.7 165.95 -253.25 168.4 -251.45 170.4 -249.35 171.95 -247.0 172.9 -244.55 173.35 -241.95 173.2 -239.35 172.5 -236.8 171.25 -234.4 169.45 -232.2 167.25 -230.25 164.6 -228.6 161.65 -227.35 158.45 -226.45 152.05 -226.25 152.05 -217.5 142.5 -217.5 142.5 -206.0 152.05 -206.0 152.05 -197.0 156.8 -196.75 160.1 -196.1 163.15 -195.0 165.95 -193.55 168.4 -191.75 170.4 -189.65 171.95 -187.35 172.9 -184.85 173.35 -182.3 173.2 -179.7 172.5 -177.15 171.25 -174.75 169.45 -172.5 167.25 -170.55 164.6 -168.95 161.65 -167.65 158.45 -166.8 152.05 -166.55 152.05 -157.5 142.5 -157.5 142.5 -150.85 90.6 -150.85 90.6 -205.35 94.65 -205.35 94.65 -217.85 90.6 -217.85 90.6 -230.75 82.35 -230.75 82.35 -217.85 82.15 -217.85 82.15 -205.35 82.35 -205.35 82.35 -150.85 34.35 -150.85 34.35 -158.0 22.35 -158.0 22.35 -141.3 22.5 -141.3 22.5 -140.5 26.0 -140.5 26.0 -96.5 22.5 -96.5 22.5 -92.65 19.7 -92.65 19.7 -92.5 19.0 -92.5 19.0 -77.65 22.7 -77.65 22.7 -74.5 23.5 -74.5 23.5 -68.15 29.85 -68.15 29.85 -78.0 37.7 -78.0 37.7 -92.65 29.85 -92.65 29.85 -141.3 34.35 -141.3 34.35 -144.65 82.35 -144.65 82.35 -144.1 82.45 -144.1 82.45 -138.65 97.45 -138.65 97.45 -144.65 142.5 -144.65 142.5 -137.5 197.0 -137.5 197.0 -93.5 142.5 -93.5 142.5 -77.5 198.0 -77.5 198.0 -33.5 142.5 -33.5 142.5 -18.0 170.35 -18.0 170.35 26.0 142.5 26.0 142.5 34.5 97.45 34.5 97.45 26.85 82.45 26.85 82.45 34.5 37.35 34.5 37.35 26.7 29.85 26.7 29.85 -18.65 37.7 -18.65 37.7 -33.3 29.85 -33.3 29.85 -44.0 23.5 -44.0 23.5 -36.0 22.7 -36.0 22.7 -33.3 19.7 -33.3 19.7 -18.65 22.7 -18.65 22.7 -15.0 26.0 -15.0 26.0 23.7 22.7 23.7 22.7 26.7 19.35 26.7 19.35 42.1 10.35 42.1 10.35 44.85 173.85 44.85 173.85 59.85 177.0 59.85 177.0 -23.0 292.7 -23.0 292.7 -11.0 295.35 -11.0 295.35 13.35 292.7 13.35 292.7 46.35 235.0 46.35 235.0 54.35 294.7 54.35 294.7 90.05 291.9 90.05 291.35 90.15 291.35 109.8 257.7 109.8 257.7 94.8 231.7 98.35 177.0 100.0 177.0 85.35 173.85 85.35 173.85 98.85 170.1 98.85 170.1 104.1 28.5 104.1 28.5 162.35 22.4 162.35 22.4 166.1 19.8 166.1 19.8 180.6 23.2 180.6 23.2 183.35 24.15 183.35 24.15 183.6 27.4 183.6 27.4 221.75 24.15 221.75 24.15 222.5 23.2 222.5 23.2 225.75 20.5 225.75 20.5 240.85 22.75 240.85 22.75 243.85 28.0 243.85 28.0 282.6 22.75 282.6 22.75 285.5 20.5 285.5 20.5 293.0 -22.25 293.0 -22.25 285.5 -24.8 285.5 -24.8 282.6 -26.3 282.6 -26.3 274.35 -30.15 274.35 -30.15 251.1 -26.3 251.1 -26.3 243.85 -24.8 243.85 -24.8 240.85 -22.05 240.85 -22.05 225.75 -24.4 225.75 -24.4 221.75 -27.65 221.75 -27.65 183.6 -24.4 183.6 -24.4 180.6 -22.15 180.6 -22.15 166.1 -24.0 166.1 -24.0 162.35 -31.0 162.35 -31.0 104.1 -123.15 104.1 -123.15 98.85 -126.9 98.85 -126.9 85.35 -132.0 85.35 -132.0 99.0 -201.3 93.1 -201.3 109.35 -234.65 109.35 -234.65 90.2 -237.0 90.0 -230.95 43.2 -236.25 42.5 -239.3 61.7 -330.05 43.45 -560.0 71.7 -567.4 11.5 -328.0 -17.9 -328.0 -18.0 -327.7 -17.95 -327.5 -18.0 -327.5 -17.9 -315.0 -16.65 -228.65 -5.0 -232.5 18.95 -227.9 19.6 -223.0 -18.5 -132.0 -19.0 -132.0 59.85 -126.9 59.85 -126.9 44.85 -12.9 44.85 -12.9 42.1 -22.45 42.1 -22.45 26.95 -25.75 26.95 -25.75 23.15 -35.65 23.15 -35.65 26.95 -38.95 26.95 -38.95 33.7 -80.8 33.7 -80.8 27.0 -84.0 27.0 -84.0 -18.0 -80.8 -18.0 -80.8 -33.0 -84.0 -33.0 -84.0 -78.0 -80.8 -78.0 -80.8 -93.0 -84.0 -93.0 -84.0 -138.0 -80.8 -138.0 -80.8 -146.5 -39.15 -146.5 -39.15 -140.15 -36.4 -140.15 -36.4 -135.3 -28.1 -135.3 -28.1 -140.15 -25.3 -140.15 -25.3 -157.7 -39.15 -157.7 -39.15 -150.85 -84.85 -150.85 -84.85 -157.35 -97.35 -157.35 -97.35 -150.85 -146.2 -150.85 -146.2 -157.35 -172.65 -157.35 -172.65 -205.7 -146.7 -205.7 -146.7 -210.0 -98.05 -210.0 -98.05 -205.2 -85.55 -205.2 -85.55 -217.7 -88.65 -217.7 -88.65 -226.65 -96.0 -226.65 -96.0 -257.3 -88.65 -257.3 -88.65 -265.2 -85.55 -265.2 -85.55 -277.7 -98.05 -277.7 -98.05 -274.0 -145.4 -274.0 -145.4 -278.2 -172.65 -278.2 -172.65 -326.35 -146.0 -326.35 -146.0 -353.65 -97.0 -353.65" fill="#969696" fill-rule="evenodd" stroke="none"/>
    <path d="M-150.25 -216.5 L-150.25 -266.5 -96.5 -266.5 -96.5 -216.5 -150.25 -216.5" fill="#ffffff" fill-rule="evenodd" stroke="none"/>
    <path d="M162.35 -248.65 L162.35 -234.3 149.0 -234.3 149.0 -248.65 162.35 -248.65" fill="#707070" fill-rule="evenodd" stroke="none"/>
    <path d="M167.75 -189.15 L167.75 -173.5 152.5 -173.5 152.5 -189.15 167.75 -189.15" fill="#707070" fill-rule="evenodd" stroke="none"/>
    <path d="M152.75 -310.0 L168.0 -310.0 168.0 -293.75 152.75 -293.75 152.75 -310.0" fill="#707070" fill-rule="evenodd" stroke="none"/>
    <path d="M127.7 -344.8 L127.7 -326.65 108.1 -326.65 108.1 -344.8 127.7 -344.8" fill="#707070" fill-rule="evenodd" stroke="none"/>
    <path d="M-21.65 -322.0 L-21.65 -348.3 20.7 -348.3 20.7 -322.0 -21.65 -322.0" fill="#707070" fill-rule="evenodd" stroke="none"/>
    <path d="M-78.0 -152.5 L-78.0 -166.0 -41.3 -166.0 -41.3 -152.5 -78.0 -152.5" fill="#707070" fill-rule="evenodd" stroke="none"/>
    <path d="M31.0 -137.5 L50.5 -137.5 50.5 -94.5 31.0 -94.5 31.0 -137.5" fill="#707070" fill-rule="evenodd" stroke="none"/>
    <path d="M142.0 -143.8 L142.0 -133.3 98.5 -133.3 98.5 -143.8 142.0 -143.8" fill="#707070" fill-rule="evenodd" stroke="none"/>
    <path d="M81.0 21.7 L81.0 34.5 41.5 34.5 41.5 21.7 81.0 21.7" fill="#707070" fill-rule="evenodd" stroke="none"/>
    <path d="M30.75 -16.0 L40.0 -16.0 40.0 22.6 30.75 22.6 30.75 -16.0" fill="#707070" fill-rule="evenodd" stroke="none"/>
    <path d="M100.2 34.5 L100.2 21.7 139.7 21.7 139.7 34.5 100.2 34.5" fill="#707070" fill-rule="evenodd" stroke="none"/>
    <path d="M160.25 -33.9 L160.25 -77.4 180.75 -77.4 180.75 -33.9 160.25 -33.9" fill="#707070" fill-rule="evenodd" stroke="none"/>
    <path d="M183.0 -75.8 L197.0 -75.8 197.0 -35.55 183.0 -35.55 183.0 -75.8" fill="#707070" fill-rule="evenodd" stroke="none"/>
    <path d="M183.0 -135.8 L197.0 -135.8 197.0 -95.55 183.0 -95.55 183.0 -135.8" fill="#707070" fill-rule="evenodd" stroke="none"/>
    <path d="M-101.0 -351.5 L-101.0 -325.0 -116.0 -325.0 -116.0 -351.5 -101.0 -351.5" fill="#707070" fill-rule="evenodd" stroke="none"/>
    <path d="M-116.3 -352.8 L-116.3 -344.15 -129.3 -344.15 -129.3 -352.8 -116.3 -352.8" fill="#707070" fill-rule="evenodd" stroke="none"/>
    <path d="M-134.5 -353.15 L-134.5 -341.3 -143.8 -341.3 -143.8 -353.15 -134.5 -353.15" fill="#707070" fill-rule="evenodd" stroke="none"/>
    <path d="M-134.65 -331.0 L-134.65 -321.8 -143.5 -321.8 -143.5 -331.0 -134.65 -331.0" fill="#707070" fill-rule="evenodd" stroke="none"/>
    <path d="M-72.6 -333.6 L-71.75 -325.75 -80.4 -324.8 -81.35 -333.2 -73.15 -334.1 -82.3 -343.3 -74.5 -351.15 -59.8 -336.5 -54.55 -341.75 -37.85 -325.1 -43.15 -319.8 -39.8 -316.5 -47.65 -308.65 -51.0 -312.0 -57.0 -306.0 -73.65 -322.65 -67.65 -328.65 -72.6 -333.6" fill="#707070" fill-rule="evenodd" stroke="none"/>
    <path d="M-171.5 -322.5 L-145.0 -322.5 -145.0 -307.0 -153.5 -307.0 -153.5 -288.5 -169.0 -288.5 -169.0 -307.0 -171.5 -307.0 -171.5 -322.5" fill="#707070" fill-rule="evenodd" stroke="none"/>
    <path d="M52.0 -351.0 L52.0 -338.0 37.0 -338.0 37.0 -351.0 52.0 -351.0" fill="#707070" fill-rule="evenodd" stroke="none"/>
    <path d="M70.25 -331.5 L58.75 -331.5 52.5 -335.25 52.5 -350.85 64.0 -350.85 70.25 -347.1 70.25 -346.5 80.5 -346.5 80.5 -337.25 70.25 -337.25 70.25 -331.5" fill="#707070" fill-rule="evenodd" stroke="none"/>
    <path d="M64.6 -168.7 L80.55 -169.7 81.45 -155.5 65.5 -154.5 64.6 -168.7" fill="#707070" fill-rule="evenodd" stroke="none"/>
    <path d="M54.1 -161.25 L62.65 -161.7 63.1 -153.1 54.55 -152.65 54.1 -161.25" fill="#707070" fill-rule="evenodd" stroke="none"/>
    <path d="M-172.5 -191.3 L-172.5 -203.0 -156.0 -203.0 -156.0 -191.3 -172.5 -191.3" fill="#707070" fill-rule="evenodd" stroke="none"/>
    <path d="M-108.3 -166.0 L-108.3 -159.5 -100.3 -159.5 -100.3 -151.3 -126.15 -151.3 -126.15 -166.0 -108.3 -166.0" fill="#707070" fill-rule="evenodd" stroke="none"/>
    <path d="M-143.3 -159.65 L-134.0 -159.65 -134.0 -151.15 -143.3 -151.15 -143.3 -159.65" fill="#707070" fill-rule="evenodd" stroke="none"/>
    <path d="M66.0 59.0 L66.0 44.85 105.25 44.85 105.25 59.0 66.0 59.0" fill="#707070" fill-rule="evenodd" stroke="none"/>
    <path d="M-563.95 10.05 L-563.6 12.7 -566.35 13.0 -560.45 68.95 -446.65 54.15 -447.9 42.15 -442.9 41.65 -441.15 58.5 -564.9 74.6 -572.1 5.9 -327.3 -20.85 -228.0 -7.1 -228.65 -2.15 -256.0 -5.95 -256.5 -2.05 -264.7 -3.05 -264.2 -7.05 -315.35 -14.15 -316.0 -12.0 -326.65 -14.0 -336.65 -13.3 -336.9 -14.75 -388.2 -9.15 -387.95 -6.9 -396.15 -5.85 -396.45 -8.25 -446.5 -2.8 -446.2 -0.15 -454.4 0.9 -454.75 -1.9 -505.55 3.65 -505.2 6.55 -513.45 7.55 -513.8 4.55 -563.95 10.05" fill="#707070" fill-rule="evenodd" stroke="none"/>
    <path d="M-389.6 35.95 L-384.65 35.45 -383.4 47.35 -324.7 41.25 -272.85 51.2 -272.55 49.0 -264.35 50.05 -264.7 52.75 -236.2 58.25 -237.1 63.15 -273.35 56.2 -273.45 56.2 -324.95 46.3 -387.85 52.85 -389.6 35.95" fill="#707070" fill-rule="evenodd" stroke="none"/>
  </g>
</svg>
