<?xml version="1.0" encoding="UTF-8" standalone="no"?>
<svg xmlns:ffdec="https://www.free-decompiler.com/flash" xmlns:xlink="http://www.w3.org/1999/xlink" ffdec:objectType="shape" height="515.05px" width="648.05px" xmlns="http://www.w3.org/2000/svg">
  <g transform="matrix(1.0, 0.0, 0.0, 1.0, 175.9, 144.2)">
    <path d="M409.15 319.35 L409.15 311.85 361.65 311.85 361.65 260.35 328.65 260.35 328.65 311.35 315.65 311.35 315.65 318.85 291.65 318.85 291.65 260.35 246.65 260.35 246.65 367.35 162.15 367.35 162.15 166.35 -172.9 166.35 -172.9 32.85 -124.9 32.85 -124.9 -141.2 296.15 -141.2 296.15 -104.2 468.15 -104.2 468.15 319.35 409.15 319.35" fill="#959595" fill-rule="evenodd" stroke="none"/>
    <path d="M403.65 321.35 L403.65 315.85 319.65 315.85 319.65 322.35 288.65 322.35 288.65 264.85 247.65 264.85 247.65 370.85 159.65 370.85 159.65 182.85 145.15 182.85 145.15 167.85 -175.9 167.85 -175.9 31.35 -127.4 31.35 -127.4 -144.2 301.15 -144.2 301.15 -119.7 302.15 -119.7 302.15 -107.2 472.15 -107.2 472.15 321.35 403.65 321.35 M344.15 161.85 L344.15 85.35 238.65 85.35 238.65 32.85 297.15 32.85 297.15 13.35 288.65 13.35 288.65 8.35 216.15 8.35 216.15 -36.15 288.65 -36.15 288.65 -119.7 295.15 -119.7 295.15 -137.7 -121.4 -137.7 -121.4 35.85 -123.4 35.85 -123.4 37.35 -169.9 37.35 -169.9 161.85 344.15 161.85 M349.65 79.85 L349.65 164.85 349.15 164.85 349.15 167.85 303.15 167.85 303.15 221.85 229.65 221.85 229.65 167.85 165.65 167.85 165.65 364.35 241.65 364.35 241.65 259.35 294.65 259.35 294.65 317.35 313.65 317.35 313.65 309.85 317.65 309.85 317.65 237.35 363.15 237.35 363.15 309.85 446.15 309.85 446.15 315.35 466.15 315.35 466.15 -101.2 302.15 -101.2 302.15 -78.15 293.65 -78.15 293.65 8.35 302.15 8.35 302.15 38.35 243.65 38.35 243.65 79.85 349.65 79.85" fill="#424242" fill-rule="evenodd" stroke="none"/>
    <path d="M-39.85 -72.15 L-39.85 -30.15 Q-40.85 -28.65 -41.85 -27.65 -42.85 -27.15 -44.35 -26.65 -72.85 -25.65 -101.9 -25.15 L-101.9 -25.65 -103.4 -25.65 -105.4 -26.65 Q-106.4 -27.65 -107.4 -29.15 -107.4 -30.65 -107.9 -32.15 L-107.9 -120.2 -100.9 -120.2 -100.9 -32.15 Q-73.85 -32.65 -46.85 -33.65 L-46.85 -72.15 -39.85 -72.15" fill="#6f6f6f" fill-rule="evenodd" stroke="none"/>
    <path d="M436.15 251.85 L436.15 258.85 383.65 258.85 383.65 323.35 376.65 323.35 376.65 258.35 Q377.15 256.85 377.15 255.35 378.15 254.35 378.65 252.85 L381.15 251.85 436.15 251.85" fill="#6f6f6f" fill-rule="evenodd" stroke="none"/>
    <path d="M183.15 -130.7 Q184.15 -131.7 185.15 -133.2 L187.15 -134.2 290.15 -134.2 290.15 -127.2 190.15 -127.2 190.15 -89.65 182.65 -89.65 182.65 -127.7 Q183.15 -129.2 183.15 -130.7" fill="#6f6f6f" fill-rule="evenodd" stroke="none"/>
    <path d="M-140.9 41.85 L-116.4 41.85 -116.4 48.85 -138.4 48.85 -138.4 142.35 -75.35 142.35 -75.35 72.35 Q-74.85 70.85 -74.85 69.35 L-72.85 66.85 -70.85 65.85 -32.85 64.85 -32.85 71.85 -68.35 72.85 -68.35 142.35 -36.35 142.35 -36.35 149.35 -150.4 149.35 -150.4 142.35 -145.4 142.35 -145.4 48.35 Q-144.9 46.85 -144.9 45.35 -143.9 44.35 -143.4 42.85 L-140.9 41.85" fill="#6f6f6f" fill-rule="evenodd" stroke="none"/>
    <path d="M126.15 -96.2 L126.15 16.35 12.65 16.35 12.65 -96.2 126.15 -96.2" fill="#6f6f6f" fill-rule="evenodd" stroke="none"/>
    <path d="M242.65 -33.15 Q264.65 -32.65 286.15 -32.65 L286.15 4.85 239.15 4.85 239.15 -12.65 265.65 -12.65 265.65 -15.65 242.65 -15.65 242.65 -33.15" fill="#ffffff" fill-rule="evenodd" stroke="none"/>
    <path d="M220.65 -32.65 L239.15 -32.65 239.15 4.85 220.65 4.85 220.65 -4.15 206.15 -4.15 206.15 -17.15 220.65 -17.15 220.65 -32.65" fill="#959595" fill-rule="evenodd" stroke="none"/>
  </g>
</svg>
