<?xml version="1.0" encoding="UTF-8" standalone="no"?>
<svg xmlns:ffdec="https://www.free-decompiler.com/flash" xmlns:xlink="http://www.w3.org/1999/xlink" ffdec:objectType="shape" height="154.0px" width="169.2px" xmlns="http://www.w3.org/2000/svg">
  <g transform="matrix(1.0, 0.0, 0.0, 1.0, -54.4, -63.0)">
    <path d="M77.25 167.05 L77.25 183.15 Q77.25 198.8 90.8 198.8 97.35 198.8 100.95 195.05 104.55 191.35 104.55 183.15 L104.55 63.0 127.45 63.0 127.45 184.35 Q127.45 200.0 117.85 208.5 108.25 217.0 90.8 217.0 73.35 217.0 63.85 208.5 54.4 200.0 54.4 184.35 L54.4 167.05 77.25 167.05" fill="#ffffff" fill-rule="evenodd" stroke="none"/>
    <path d="M223.6 96.3 L223.6 122.9 Q223.6 138.1 214.85 147.05 206.1 156.05 186.25 156.05 L172.7 156.05 172.7 215.3 149.6 215.3 149.6 63.2 186.25 63.2 Q196.3 63.2 203.3 65.5 210.3 67.85 214.85 72.15 219.4 76.5 221.5 82.65 223.6 88.85 223.6 96.3 M186.25 81.4 L172.7 81.4 172.7 137.85 186.25 137.85 Q193.7 137.85 197.1 133.65 200.5 129.35 200.5 122.1 L200.5 97.15 Q200.5 89.95 197.1 85.6 193.7 81.4 186.25 81.4" fill="#ffffff" fill-rule="evenodd" stroke="none"/>
  </g>
</svg>
