<?xml version="1.0" encoding="UTF-8" standalone="no"?>
<svg xmlns:ffdec="https://www.free-decompiler.com/flash" xmlns:xlink="http://www.w3.org/1999/xlink" ffdec:objectType="shape" height="772.6px" width="1324.3px" xmlns="http://www.w3.org/2000/svg">
  <g transform="matrix(1.0, 0.0, 0.0, 1.0, 674.4, 416.25)">
    <path d="M649.9 -38.05 L642.3 -35.25 613.1 -45.05 602.7 -20.45 596.9 -18.25 578.1 -54.65 556.1 -75.05 541.5 -83.65 442.45 -110.65 358.45 -122.05 312.85 -118.45 256.85 -100.45 223.65 -80.65 143.05 4.35 106.25 34.95 53.85 64.15 7.45 75.95 -38.55 75.75 -76.55 72.35 -105.55 61.15 105.85 266.35 140.05 285.95 177.45 297.15 219.45 300.15 256.05 294.95 291.85 281.55 Q342.05 250.75 392.05 219.95 L396.85 228.15 390.05 255.55 414.25 264.55 421.45 274.35 316.85 332.15 Q293.45 340.95 269.85 349.55 L221.25 356.35 167.25 352.55 117.85 337.75 72.05 311.35 -300.8 -58.45 -674.4 -373.45 -669.2 -379.65 -652.4 -390.65 -643.2 -410.25 -638.4 -416.25 -265.15 -101.85 Q-178.35 -47.45 -91.55 6.75 L-63.95 17.15 -34.75 19.95 0.45 19.95 32.85 11.55 Q53.85 0.15 74.65 -11.45 L104.85 -36.65 188.25 -124.85 233.85 -151.85 301.85 -173.85 360.25 -178.25 453.45 -165.65 563.3 -135.85 589.9 -120.45 622.7 -89.65 649.9 -38.05" fill="#4e4e4e" fill-rule="evenodd" stroke="none"/>
    <path d="M642.3 -35.25 L602.7 -20.45 583.5 -60.45 560.9 -81.65 544.7 -91.05 444.05 -118.45 358.85 -130.05 311.25 -126.45 253.65 -107.85 218.65 -87.05 137.65 -1.45 101.85 28.15 50.85 56.55 6.45 67.95 -38.15 67.75 -74.75 64.35 -102.75 53.75 -111.15 66.95 101.05 272.75 136.85 293.35 176.05 305.15 219.65 308.15 258.05 302.75 295.45 288.75 Q346.25 258.55 396.85 228.15 L414.25 264.55 313.25 324.95 267.85 341.75 221.05 348.35 168.65 344.55 121.05 330.35 76.85 304.95 -295.2 -64.25 -669.2 -379.65 -643.2 -410.25 -270.35 -95.65 -95.15 13.95 -65.75 25.15 -34.75 27.95 0.45 27.95 35.85 19.15 79.05 -4.85 110.25 -30.85 193.25 -118.45 237.05 -144.45 303.45 -165.85 359.85 -170.25 451.85 -157.85 560.1 -128.45 585.1 -113.85 616.3 -84.65 642.3 -35.25" fill="#999999" fill-rule="evenodd" stroke="none"/>
  </g>
</svg>
