<?xml version="1.0" encoding="UTF-8" standalone="no"?>
<svg xmlns:ffdec="https://www.free-decompiler.com/flash" xmlns:xlink="http://www.w3.org/1999/xlink" ffdec:objectType="shape" height="54.1px" width="72.55px" xmlns="http://www.w3.org/2000/svg">
  <g transform="matrix(1.0, 0.0, 0.0, 1.0, 36.25, 27.0)">
    <path d="M22.25 -22.7 L-22.15 -22.7 Q-25.05 -21.1 -27.5 -18.8 -35.1 -11.6 -35.25 -0.45 L35.3 -0.45 Q35.15 -11.45 27.8 -18.55 25.3 -21.0 22.25 -22.7 M8.0 -27.0 Q20.8 -26.75 28.6 -19.1 36.15 -11.75 36.3 -0.45 L36.3 0.05 36.3 0.55 Q36.15 12.0 28.5 19.35 20.55 27.0 7.6 27.1 L-7.5 27.1 Q-20.5 27.0 -28.45 19.35 -36.1 12.0 -36.25 0.55 L-36.25 0.05 -36.25 -0.45 Q-36.2 -4.55 -35.15 -8.1 -33.3 -14.6 -28.25 -19.35 L-28.0 -19.55 Q-20.05 -27.0 -7.15 -27.0 L8.0 -27.0" fill="#000000" fill-opacity="0.047058824" fill-rule="evenodd" stroke="none"/>
    <path d="M22.25 -22.7 Q25.3 -21.0 27.8 -18.55 35.15 -11.45 35.3 -0.45 L-35.25 -0.45 Q-35.1 -11.6 -27.5 -18.8 -25.05 -21.1 -22.15 -22.7 L22.25 -22.7" fill="url(#gradient0)" fill-rule="evenodd" stroke="none"/>
    <path d="M-35.25 -0.45 L-35.2 -1.6 -14.1 -1.6 -14.1 -25.55 -6.95 -26.25 7.75 -26.25 Q20.2 -26.0 27.8 -18.55 35.15 -11.45 35.3 -0.45 L-35.25 -0.45 M3.75 -5.15 L-3.7 -5.15 -3.7 -4.65 3.75 -4.65 3.75 -5.15 M6.7 -10.2 L-6.65 -10.2 -6.65 -9.7 6.7 -9.7 6.7 -10.2 M5.0 -15.25 L-4.95 -15.25 -4.95 -14.75 5.0 -14.75 5.0 -15.25 M9.8 -20.3 L-9.75 -20.3 -9.75 -19.8 9.8 -19.8 9.8 -20.3" fill="#558dba" fill-rule="evenodd" stroke="none"/>
    <path d="M35.3 0.05 L35.3 0.55 Q35.15 11.65 27.7 18.8 19.95 26.25 7.4 26.35 L-7.3 26.35 Q-19.9 26.25 -27.65 18.8 -35.1 11.65 -35.25 0.55 L-35.25 0.05 35.3 0.05" fill="#44301e" fill-rule="evenodd" stroke="none"/>
    <path d="M-35.25 -0.45 L35.3 -0.45 35.3 0.05 -35.25 0.05 -35.25 -0.45" fill="#ffffff" fill-rule="evenodd" stroke="none"/>
  </g>
  <defs>
    <linearGradient gradientTransform="matrix(0.0, -0.0448, 0.0466, 0.0, -1.15, 14.05)" gradientUnits="userSpaceOnUse" id="gradient0" spreadMethod="pad" x1="-819.2" x2="819.2">
      <stop offset="0.0" stop-color="#ffffff"/>
      <stop offset="1.0" stop-color="#ffffff" stop-opacity="0.0"/>
    </linearGradient>
  </defs>
</svg>
