<?xml version="1.0" encoding="UTF-8" standalone="no"?>
<svg xmlns:ffdec="https://www.free-decompiler.com/flash" xmlns:xlink="http://www.w3.org/1999/xlink" ffdec:objectType="shape" height="48.8px" width="80.85px" xmlns="http://www.w3.org/2000/svg">
  <g transform="matrix(1.0, 0.0, 0.0, 1.0, -19.3, -16.65)">
    <path d="M90.7 17.0 Q93.55 17.0 95.05 17.65 96.65 18.2 97.55 19.75 98.5 21.25 98.5 23.1 98.5 25.45 96.9 27.05 L96.95 27.05 Q95.8 28.4 93.5 28.95 L94.15 29.45 Q95.45 30.55 96.55 32.3 L100.1 37.9 100.15 38.2 100.05 38.45 99.75 38.55 96.3 38.55 96.05 38.5 95.95 38.4 93.25 34.1 91.25 31.25 90.0 29.95 88.85 29.45 87.45 29.35 84.7 29.35 84.7 38.1 84.55 38.4 84.25 38.55 81.5 38.55 81.2 38.4 81.05 38.1 81.05 17.45 81.2 17.15 Q81.35 17.0 81.5 17.0 L90.7 17.0 M84.7 20.15 L84.7 26.15 90.1 26.15 92.95 25.8 Q93.8 25.45 94.35 24.75 L94.8 23.1 Q94.8 21.8 93.85 21.0 L93.9 21.0 Q92.9 20.15 90.8 20.15 L84.7 20.15 M88.4 44.05 L88.7 43.95 91.25 43.95 91.55 44.05 91.7 44.35 91.7 65.05 91.55 65.35 91.25 65.45 88.45 65.45 88.3 65.45 88.15 65.3 78.05 50.2 78.05 65.05 77.95 65.35 77.65 65.45 75.0 65.45 74.7 65.35 74.55 65.05 74.55 44.35 74.7 44.05 75.0 43.95 77.8 43.95 78.0 43.95 78.2 44.15 88.25 59.2 88.25 44.35 88.4 44.05 M69.35 21.25 L68.6 23.7 66.5 29.2 72.25 29.2 70.35 24.05 69.35 21.25 M67.85 17.0 L70.8 17.0 71.05 17.1 71.2 17.25 79.7 37.95 79.7 38.25 79.55 38.45 79.3 38.55 76.15 38.55 75.95 38.45 75.75 38.3 73.4 32.3 65.4 32.3 63.2 38.3 63.05 38.45 62.8 38.55 59.9 38.55 59.65 38.45 59.5 38.25 59.5 38.0 67.45 17.3 67.65 17.1 67.85 17.0 M42.95 17.0 L57.9 17.0 Q58.1 17.0 58.2 17.15 L58.35 17.45 58.35 19.9 58.2 20.2 57.9 20.3 46.1 20.3 46.1 25.8 57.1 25.8 Q57.25 25.8 57.4 25.95 L57.55 26.2 57.55 28.65 57.4 28.95 57.1 29.05 46.1 29.05 46.1 35.3 58.4 35.3 58.65 35.4 58.8 35.7 58.8 38.1 58.65 38.4 58.4 38.55 42.95 38.55 42.65 38.4 42.5 38.1 42.5 17.45 Q42.5 17.25 42.65 17.15 L42.95 17.0 M49.05 44.25 L52.2 57.8 52.7 60.2 53.25 58.25 57.2 44.25 57.3 44.0 57.55 43.95 60.85 43.95 61.1 44.0 61.25 44.25 64.25 54.75 65.45 59.9 66.05 57.55 69.3 44.25 69.45 44.0 69.7 43.95 72.45 43.95 72.7 44.0 72.85 44.2 72.85 44.5 67.2 65.2 67.05 65.4 66.8 65.45 64.15 65.45 63.9 65.4 63.75 65.2 59.4 49.4 59.15 48.6 58.95 49.4 54.55 65.2 54.4 65.4 54.15 65.45 51.3 65.45 51.05 65.4 50.95 65.2 45.45 44.5 45.45 44.2 45.65 44.0 45.85 43.95 48.65 43.95 48.9 44.0 49.05 44.25 M30.05 16.65 Q32.4 16.65 34.3 17.45 36.2 18.2 37.3 19.6 38.4 20.9 38.95 23.1 L38.9 23.4 38.65 23.65 36.2 24.3 35.85 24.25 35.7 24.0 34.6 21.7 Q33.95 20.85 32.75 20.35 31.55 19.85 30.05 19.85 28.3 19.85 27.0 20.4 L27.0 20.45 Q25.75 20.9 24.95 21.8 24.15 22.65 23.7 23.7 L23.75 23.7 Q22.95 25.55 22.95 27.7 22.95 30.35 23.85 32.15 24.7 33.85 26.45 34.7 28.15 35.55 30.1 35.55 31.8 35.55 33.45 34.95 L35.7 33.7 35.7 30.45 30.05 30.45 29.75 30.3 29.65 30.0 29.65 27.6 29.75 27.3 30.05 27.15 38.85 27.15 39.1 27.3 39.25 27.6 39.25 35.25 39.2 35.45 39.1 35.55 Q37.05 37.25 34.85 38.1 32.6 38.9 30.3 38.9 27.15 38.9 24.6 37.55 21.95 36.15 20.6 33.6 19.3 31.05 19.3 27.9 19.3 24.8 20.6 22.05 21.9 19.3 24.4 18.0 26.85 16.65 30.05 16.65 M26.85 43.95 L34.0 43.95 37.8 44.25 Q39.7 44.7 41.0 45.85 42.75 47.3 43.6 49.55 44.4 51.75 44.4 54.6 44.4 57.0 43.85 58.9 43.25 60.8 42.35 62.05 L40.4 64.0 40.4 64.05 Q39.25 64.7 37.75 65.15 L34.3 65.45 26.85 65.45 26.55 65.35 26.4 65.05 26.4 44.35 26.55 44.05 26.85 43.95 M33.95 47.25 L30.05 47.25 30.05 62.2 34.0 62.2 37.15 61.85 Q38.15 61.5 38.8 60.85 39.7 59.9 40.25 58.4 40.7 56.8 40.7 54.55 40.7 51.45 39.75 49.8 L39.75 49.85 Q38.75 48.2 37.35 47.65 L33.95 47.25" fill="#000000" fill-rule="evenodd" stroke="none"/>
  </g>
</svg>
