<?xml version="1.0" encoding="UTF-8" standalone="no"?>
<svg xmlns:ffdec="https://www.free-decompiler.com/flash" xmlns:xlink="http://www.w3.org/1999/xlink" ffdec:objectType="shape" height="52.0px" width="14.25px" xmlns="http://www.w3.org/2000/svg">
  <g transform="matrix(1.0, 0.0, 0.0, 1.0, -104.15, -16.0)">
    <path d="M104.7 16.6 L104.7 24.4 117.85 24.4 117.85 16.6 104.7 16.6 M118.4 16.0 L118.4 25.0 104.15 25.0 104.15 16.0 118.4 16.0 M104.15 30.05 L118.4 30.05 118.4 39.05 104.15 39.05 104.15 30.05 M104.7 44.8 L104.7 52.6 117.85 52.6 117.85 44.8 104.7 44.8 M118.4 44.2 L118.4 53.2 104.15 53.2 104.15 44.2 118.4 44.2 M117.85 38.45 L117.85 30.65 104.7 30.65 104.7 38.45 117.85 38.45 M118.4 68.0 L104.15 68.0 104.15 59.0 118.4 59.0 118.4 68.0 M117.85 59.6 L104.7 59.6 104.7 67.4 117.85 67.4 117.85 59.6" fill="#3e9650" fill-rule="evenodd" stroke="none"/>
  </g>
</svg>
