<?xml version="1.0" encoding="UTF-8" standalone="no"?>
<svg xmlns:ffdec="https://www.free-decompiler.com/flash" xmlns:xlink="http://www.w3.org/1999/xlink" ffdec:objectType="shape" height="50.1px" width="80.85px" xmlns="http://www.w3.org/2000/svg">
  <g transform="matrix(1.0, 0.0, 0.0, 1.0, -19.3, -15.15)">
    <path d="M84.7 18.65 L84.7 24.65 90.1 24.65 92.95 24.3 Q93.8 23.95 94.35 23.25 94.8 22.5 94.8 21.6 94.8 20.3 93.85 19.5 L93.9 19.5 Q92.9 18.65 90.8 18.65 L84.7 18.65 M81.2 15.65 Q81.35 15.5 81.5 15.5 L90.7 15.5 Q93.55 15.5 95.05 16.15 96.65 16.7 97.55 18.3 98.5 19.75 98.5 21.6 98.5 23.95 96.9 25.6 L96.95 25.6 Q95.8 26.9 93.5 27.45 L94.15 27.95 Q95.45 29.05 96.55 30.8 L100.1 36.4 100.15 36.7 100.05 37.0 99.75 37.05 96.3 37.05 96.05 37.0 95.95 36.9 93.25 32.6 91.25 29.75 90.0 28.5 88.85 27.95 87.45 27.9 84.7 27.9 84.7 36.65 84.55 36.95 84.25 37.05 81.5 37.05 81.2 36.95 81.05 36.65 81.05 15.95 81.2 15.65 M68.6 22.25 L66.5 27.7 72.25 27.7 70.35 22.55 69.35 19.75 68.6 22.25 M71.2 15.75 L79.7 36.45 79.7 36.75 79.55 37.0 79.3 37.05 76.15 37.05 75.95 37.0 75.75 36.8 73.4 30.8 65.4 30.8 63.2 36.8 63.05 37.0 62.8 37.05 59.9 37.05 59.65 37.0 59.5 36.75 59.5 36.5 67.45 15.8 67.65 15.6 67.85 15.5 70.8 15.5 71.05 15.6 71.2 15.75 M42.95 15.5 L57.9 15.5 Q58.1 15.5 58.2 15.65 L58.35 15.95 58.35 18.4 58.2 18.7 57.9 18.85 46.1 18.85 46.1 24.3 57.1 24.3 Q57.25 24.3 57.4 24.45 L57.55 24.75 57.55 27.15 57.4 27.45 57.1 27.6 46.1 27.6 46.1 33.8 58.4 33.8 58.65 33.9 58.8 34.2 58.8 36.65 58.65 36.95 58.4 37.05 42.95 37.05 42.65 36.95 42.5 36.65 42.5 15.95 Q42.5 15.75 42.65 15.65 L42.95 15.5 M44.1 43.35 Q44.25 43.35 44.4 43.5 L44.5 43.8 44.5 55.7 Q44.5 58.35 45.05 59.6 45.4 60.7 46.5 61.3 47.65 61.9 49.3 61.9 52.1 61.9 53.3 60.7 54.45 59.4 54.45 55.7 L54.45 43.8 54.6 43.5 Q54.7 43.35 54.9 43.35 L57.6 43.35 Q57.8 43.35 57.9 43.5 L58.05 43.8 58.05 55.7 Q58.05 58.95 57.35 60.85 56.55 62.8 54.65 64.05 L54.6 64.05 Q52.65 65.25 49.55 65.25 46.5 65.25 44.6 64.2 L44.55 64.2 Q42.6 63.1 41.75 61.1 40.9 59.15 40.9 55.7 L40.9 43.8 Q40.9 43.6 41.05 43.5 41.15 43.35 41.35 43.35 L44.1 43.35 M65.35 46.65 L65.35 53.2 70.3 53.2 Q72.7 53.2 73.7 52.3 L73.75 52.3 Q74.75 51.45 74.75 49.85 74.75 48.7 74.15 47.9 73.6 47.1 72.65 46.85 L70.2 46.65 65.35 46.65 M61.85 43.5 L62.15 43.35 70.0 43.35 73.2 43.55 Q74.8 43.8 75.95 44.65 77.05 45.35 77.7 46.8 78.4 48.15 78.4 49.75 78.4 52.55 76.6 54.55 74.85 56.5 70.25 56.5 L65.35 56.5 65.35 64.45 65.2 64.75 64.9 64.9 62.15 64.9 61.85 64.75 61.75 64.45 61.75 43.8 61.85 43.5 M27.0 18.9 L27.0 18.95 Q25.75 19.4 24.95 20.3 24.15 21.15 23.7 22.25 L23.75 22.25 Q22.95 24.05 22.95 26.2 22.95 28.85 23.85 30.7 24.7 32.4 26.45 33.25 28.15 34.1 30.1 34.1 L33.45 33.45 35.7 32.2 35.7 28.95 30.05 28.95 29.75 28.8 29.65 28.5 29.65 26.1 29.75 25.8 30.05 25.65 38.85 25.65 39.1 25.8 39.25 26.1 39.25 33.75 39.2 33.95 39.1 34.1 Q37.05 35.75 34.85 36.6 32.6 37.4 30.3 37.4 27.15 37.4 24.6 36.1 21.95 34.7 20.6 32.15 19.3 29.55 19.3 26.4 19.3 23.3 20.6 20.55 21.9 17.8 24.4 16.5 26.85 15.15 30.05 15.15 32.4 15.15 34.3 15.95 36.2 16.7 37.3 18.1 38.4 19.4 38.95 21.65 L38.9 21.95 38.65 22.15 36.2 22.8 35.85 22.8 35.7 22.55 Q35.2 21.05 34.6 20.2 33.95 19.4 32.75 18.85 31.55 18.35 30.05 18.35 28.3 18.35 27.0 18.9" fill="#000000" fill-rule="evenodd" stroke="none"/>
  </g>
</svg>
