<?xml version="1.0" encoding="UTF-8" standalone="no"?>
<svg xmlns:ffdec="https://www.free-decompiler.com/flash" xmlns:xlink="http://www.w3.org/1999/xlink" ffdec:objectType="shape" height="63.45px" width="119.1px" xmlns="http://www.w3.org/2000/svg">
  <g transform="matrix(1.0, 0.0, 0.0, 1.0, -2.9, -12.3)">
    <path d="M86.3 17.0 L87.45 17.5 87.45 17.55 87.5 17.55 87.5 17.6 87.4 17.85 87.35 17.9 87.25 17.9 86.1 17.4 86.1 17.25 86.15 17.05 86.2 17.05 86.2 17.0 86.3 17.0 M88.35 18.35 L88.35 18.25 88.45 18.05 88.5 18.05 88.5 18.0 88.6 18.0 89.65 18.55 89.65 18.6 89.7 18.6 89.7 18.7 89.6 18.85 89.55 18.9 89.5 18.9 88.4 18.4 88.35 18.35 M81.55 15.35 L81.55 15.3 81.6 15.25 81.65 15.25 82.85 15.65 82.85 15.7 82.9 15.75 82.85 16.0 82.85 16.1 82.7 16.1 81.5 15.75 81.5 15.35 81.55 15.35 M85.05 16.95 L84.95 16.95 83.85 16.45 83.8 16.4 83.85 16.2 83.95 16.1 84.0 16.1 85.2 16.5 85.2 16.55 85.25 16.6 85.25 16.65 85.1 16.9 85.05 16.95 M90.7 19.05 L90.8 19.05 91.85 19.65 91.85 19.7 91.9 19.7 91.9 19.8 91.85 20.0 91.8 20.05 91.7 20.05 90.6 19.45 90.55 19.4 90.55 19.3 90.7 19.1 90.7 19.05 M94.05 20.9 L94.1 20.95 94.1 21.0 93.95 21.2 93.85 21.25 93.8 21.25 92.75 20.6 92.7 20.5 92.7 20.45 92.85 20.25 92.9 20.25 92.95 20.2 93.0 20.2 94.05 20.85 94.05 20.9 M95.0 21.45 L95.05 21.45 96.15 22.1 96.15 22.15 96.2 22.15 96.2 22.2 96.0 22.45 96.0 22.5 95.9 22.5 94.85 21.85 94.8 21.8 94.8 21.7 94.9 21.5 94.95 21.5 95.0 21.45 M97.05 22.9 L98.05 23.6 98.05 23.65 98.1 23.7 98.1 23.75 98.0 23.95 97.95 24.0 97.85 24.0 97.05 23.45 96.75 23.2 97.05 22.9 M99.0 24.3 L99.05 24.3 100.0 25.0 100.05 25.05 100.05 25.1 99.95 25.35 99.9 25.4 99.85 25.4 98.8 24.7 98.75 24.6 98.75 24.55 98.9 24.35 98.95 24.35 99.0 24.3 M100.45 26.0 L100.5 25.95 100.75 26.15 100.8 26.2 100.8 26.25 88.45 42.25 88.6 42.35 88.6 42.4 88.65 42.45 88.4 42.75 88.35 42.75 88.2 42.65 69.45 66.95 70.25 67.7 70.25 67.75 70.2 67.8 70.0 67.95 69.95 67.95 69.2 67.3 63.3 74.95 72.15 72.1 71.75 70.95 71.75 70.9 71.8 70.85 71.85 70.85 71.85 70.8 72.1 70.75 72.15 70.75 72.2 70.8 72.55 71.95 82.05 68.9 81.7 67.9 81.7 67.8 81.75 67.8 81.75 67.75 82.0 67.65 82.05 67.65 82.1 67.7 82.45 68.75 91.85 65.8 91.75 65.55 91.75 65.45 91.8 65.45 91.8 65.4 92.05 65.25 92.1 65.25 92.2 65.35 92.25 65.6 101.75 62.6 101.45 61.75 101.45 61.7 101.5 61.65 101.5 61.6 101.7 61.45 101.8 61.45 101.85 61.5 102.15 62.4 111.6 59.45 111.35 58.5 111.35 58.45 111.4 58.4 111.4 58.35 111.8 58.35 112.05 59.25 121.5 56.25 121.3 55.7 121.3 55.6 121.35 55.6 121.35 55.55 121.65 55.5 121.7 55.5 121.75 55.55 122.0 56.4 122.0 56.5 121.95 56.55 92.4 66.05 92.4 66.1 92.35 66.15 92.25 66.15 92.25 66.1 63.05 75.55 62.95 75.6 62.9 75.6 62.65 75.7 62.55 75.65 62.55 75.7 62.5 75.75 62.45 75.75 62.3 75.6 62.3 75.5 52.6 72.3 52.55 72.3 52.2 72.2 52.15 72.2 52.1 72.15 3.75 56.35 3.65 56.4 3.6 56.4 3.55 56.3 3.4 56.25 3.35 56.2 3.35 56.1 3.5 55.85 3.55 55.85 3.55 55.8 3.65 55.8 22.8 62.05 22.7 62.0 22.65 61.95 22.65 61.85 23.0 60.75 23.05 60.75 23.1 60.7 23.4 60.75 23.45 60.85 23.45 60.9 23.05 62.1 23.0 62.15 42.3 68.45 42.55 67.45 42.6 67.45 42.65 67.4 42.7 67.4 42.95 67.55 43.0 67.6 43.0 67.65 42.7 68.6 52.2 71.7 52.25 71.45 52.3 71.45 52.35 71.4 52.6 71.45 52.7 71.5 52.7 71.55 52.65 71.85 62.0 74.95 56.3 66.6 56.0 66.85 55.95 66.85 55.9 66.8 55.85 66.8 55.65 66.55 55.65 66.5 55.7 66.45 55.7 66.4 56.1 66.2 50.4 57.9 50.45 58.0 50.45 58.05 50.45 58.15 50.4 58.15 49.4 58.9 49.35 58.9 49.1 58.6 49.15 58.55 49.15 58.5 50.15 57.75 50.3 57.75 44.65 49.55 44.3 49.75 44.25 49.75 44.2 49.7 44.15 49.7 44.1 49.45 44.1 49.4 44.15 49.35 44.15 49.3 44.4 49.15 32.85 32.35 32.85 32.45 32.8 32.45 31.8 33.1 31.75 33.1 31.7 33.05 31.65 33.05 31.55 32.85 31.55 32.8 31.6 32.75 31.6 32.7 32.6 32.0 32.65 32.0 27.3 24.2 27.3 24.15 27.35 24.1 27.35 24.05 27.55 23.9 27.6 23.9 27.7 23.95 38.95 40.3 39.75 39.75 39.85 39.75 40.05 39.9 40.05 39.95 40.1 39.95 40.1 40.0 40.05 40.05 39.15 40.65 44.8 48.85 45.1 48.6 45.15 48.6 45.25 48.65 45.4 48.9 45.4 49.0 45.35 49.05 45.05 49.25 56.5 65.95 56.8 65.75 56.85 65.75 56.9 65.8 57.0 66.0 57.0 66.1 56.75 66.35 62.45 74.65 62.45 33.5 62.3 33.5 62.1 33.5 62.0 33.4 62.0 33.15 62.1 33.05 62.45 33.05 62.45 23.15 62.4 23.15 61.3 23.2 61.2 23.15 61.2 22.8 61.3 22.7 62.45 22.7 62.45 12.95 62.55 12.9 62.8 12.9 62.9 12.95 62.9 33.05 63.35 33.05 63.45 33.15 63.45 33.5 63.4 33.55 63.35 33.55 62.9 33.5 62.9 43.5 63.75 43.55 63.85 43.65 63.85 43.95 63.8 44.0 63.75 44.0 62.9 43.95 62.9 64.2 63.8 64.25 63.85 64.25 63.9 64.35 63.85 64.6 63.85 64.65 62.9 64.65 62.9 74.65 75.1 58.8 74.4 58.3 74.35 58.25 74.35 58.2 74.6 57.9 74.65 57.9 75.4 58.45 81.5 50.5 80.75 49.95 80.7 49.9 80.7 49.8 80.8 49.65 80.85 49.65 80.9 49.6 80.95 49.6 81.8 50.2 87.85 42.3 87.35 41.95 87.3 41.9 87.3 41.85 87.35 41.8 87.35 41.75 87.55 41.65 87.65 41.65 88.1 41.95 94.15 34.1 93.15 33.3 93.1 33.25 93.1 33.2 93.35 33.0 93.4 33.0 94.35 33.65 94.4 33.7 94.4 33.75 100.4 26.0 100.45 26.0 M100.75 26.1 L100.75 26.05 101.05 25.75 102.0 26.5 102.05 26.55 102.05 26.65 101.9 26.85 101.85 26.9 101.75 26.9 100.8 26.15 100.75 26.1 M92.45 32.4 L92.3 32.55 92.3 32.6 92.2 32.6 92.15 32.6 91.15 31.9 91.1 31.9 91.1 31.85 91.35 31.55 91.4 31.55 92.4 32.25 92.4 32.3 92.45 32.35 92.45 32.4 M95.05 34.75 L95.3 34.5 96.25 35.25 96.3 35.3 96.3 35.35 96.15 35.6 96.1 35.65 96.05 35.65 95.15 34.8 95.05 34.8 95.05 34.75 M97.1 36.05 L97.15 36.05 98.1 36.85 98.15 36.9 98.15 37.0 98.0 37.2 97.95 37.25 97.9 37.25 97.0 36.4 96.95 36.4 96.9 36.35 96.9 36.3 97.1 36.05 M86.15 28.55 L86.05 28.8 86.0 28.85 85.9 28.85 84.85 28.3 84.85 28.25 84.8 28.25 84.8 28.15 84.9 27.95 84.95 27.95 84.95 27.9 85.0 27.9 86.1 28.45 86.15 28.5 86.15 28.55 M87.05 29.05 L87.2 29.05 88.3 29.6 88.3 29.65 88.35 29.7 88.35 29.75 88.2 30.0 88.15 30.05 88.05 30.05 87.0 29.45 87.0 29.4 86.95 29.4 86.95 29.3 87.05 29.05 M89.2 30.25 L89.25 30.25 89.3 30.2 89.35 30.2 90.35 30.85 90.35 30.9 90.4 30.95 90.4 31.0 90.25 31.25 90.2 31.3 90.15 31.3 89.1 30.65 89.05 30.55 89.05 30.5 89.2 30.25 M83.95 27.4 L84.0 27.45 84.0 27.5 83.85 27.75 83.8 27.8 83.75 27.8 82.65 27.3 82.65 27.25 82.6 27.25 82.6 27.15 82.65 26.9 82.7 26.9 82.75 26.85 82.8 26.85 83.95 27.35 83.95 27.4 M81.65 26.45 L81.7 26.45 81.7 26.55 81.6 26.8 81.55 26.85 81.5 26.85 80.35 26.35 80.3 26.3 80.3 26.2 80.4 26.0 80.45 26.0 80.45 25.95 80.55 25.95 81.65 26.4 81.65 26.45 M86.65 41.0 L86.5 41.2 86.45 41.25 86.35 41.25 86.0 40.95 85.4 40.55 85.35 40.55 85.35 40.45 85.45 40.2 85.5 40.2 85.55 40.15 86.6 40.85 86.6 40.9 86.65 40.95 86.65 41.0 M89.5 43.1 L90.5 44.05 90.2 44.35 89.25 43.45 89.2 43.45 89.2 43.4 89.4 43.15 89.45 43.15 89.5 43.1 M84.6 39.55 L84.35 39.85 84.3 39.85 83.25 39.2 83.25 39.15 83.25 39.05 83.3 38.85 83.35 38.85 83.4 38.8 83.45 38.8 84.55 39.45 84.55 39.5 84.6 39.55 M82.45 38.35 L82.3 38.55 82.3 38.6 82.2 38.6 82.15 38.6 81.1 38.0 81.1 37.95 81.05 37.95 81.05 37.85 81.15 37.65 81.3 37.65 82.4 38.25 82.45 38.3 82.45 38.35 M91.1 45.05 L91.1 45.0 91.3 44.85 91.35 44.85 91.35 44.9 92.25 45.8 92.0 46.05 91.05 45.1 91.1 45.05 M99.6 38.9 L98.75 38.1 98.7 38.1 98.65 38.05 98.65 38.0 98.9 37.7 99.9 38.7 99.9 38.75 99.85 38.8 99.65 38.9 99.6 38.9 M100.55 39.5 L100.6 39.55 101.5 40.5 101.5 40.55 101.45 40.6 101.25 40.75 101.15 40.75 101.1 40.7 100.35 39.8 100.35 39.75 100.55 39.5 M93.6 47.85 L92.8 46.9 92.8 46.85 93.0 46.65 93.05 46.65 93.1 46.7 93.1 46.75 93.95 47.65 93.95 47.7 93.9 47.75 93.7 47.9 93.6 47.9 93.6 47.85 M94.75 48.55 L95.5 49.55 95.5 49.65 95.45 49.7 95.3 49.75 95.15 49.75 94.4 48.75 94.4 48.7 94.65 48.5 94.7 48.5 94.75 48.55 M111.5 36.1 L112.3 37.1 112.3 37.15 112.25 37.2 112.05 37.3 112.0 37.3 111.95 37.25 111.2 36.35 111.2 36.3 111.4 36.05 111.45 36.05 111.5 36.1 M106.45 30.6 L106.5 30.55 107.45 31.5 107.45 31.55 107.35 31.8 107.3 31.85 107.25 31.85 106.25 30.8 106.25 30.75 106.4 30.6 106.45 30.6 M102.95 27.3 L103.9 28.05 103.9 28.1 103.95 28.15 103.65 28.45 103.6 28.45 102.65 27.6 102.65 27.55 102.9 27.3 102.95 27.3 M104.5 29.05 L104.7 28.9 104.8 28.9 105.7 29.65 105.7 29.7 105.75 29.75 105.75 29.8 105.6 30.05 105.55 30.1 105.5 30.1 104.5 29.15 104.5 29.05 M108.95 33.6 L108.9 33.6 107.95 32.55 108.0 32.5 108.2 32.35 108.3 32.35 108.3 32.4 109.15 33.35 109.15 33.4 108.95 33.6 M110.4 35.35 L109.65 34.45 109.65 34.4 109.85 34.2 109.95 34.2 109.95 34.25 110.8 35.2 110.8 35.25 110.75 35.3 110.55 35.4 110.45 35.4 110.4 35.35 M102.3 41.4 L103.1 42.35 103.1 42.45 103.05 42.5 102.8 42.6 102.75 42.55 102.7 42.55 101.95 41.65 101.95 41.6 102.0 41.55 102.0 41.5 102.2 41.35 102.3 41.4 M103.75 43.25 L103.8 43.3 104.55 44.3 104.55 44.4 104.5 44.45 104.3 44.55 104.25 44.55 104.2 44.5 104.15 44.5 103.45 43.5 103.45 43.45 103.7 43.25 103.75 43.25 M104.85 45.5 L104.9 45.45 104.9 45.4 105.1 45.2 105.2 45.2 105.25 45.25 105.95 46.3 105.65 46.6 105.65 46.55 105.6 46.55 104.85 45.55 104.85 45.5 M106.25 47.45 L106.45 47.3 106.55 47.3 106.6 47.35 107.2 48.4 107.2 48.45 107.2 48.55 107.15 48.55 106.95 48.65 106.9 48.65 106.85 48.6 106.8 48.6 106.25 47.55 106.25 47.45 M107.8 49.35 L107.85 49.4 108.4 50.5 108.4 50.6 108.35 50.65 108.1 50.75 108.0 50.75 108.0 50.7 107.95 50.7 107.45 49.65 107.45 49.6 107.5 49.55 107.5 49.5 107.7 49.35 107.8 49.35 M114.1 40.15 L114.3 39.95 114.4 39.95 114.45 40.0 115.1 41.1 115.05 41.2 114.85 41.35 114.8 41.35 114.75 41.3 114.7 41.3 114.05 40.3 114.05 40.25 114.1 40.2 114.1 40.15 M112.65 38.2 L112.9 38.0 113.0 38.0 113.05 38.05 113.7 39.05 113.7 39.1 113.7 39.2 113.5 39.35 113.45 39.35 113.4 39.3 113.35 39.3 112.6 38.3 112.6 38.25 112.65 38.25 112.65 38.2 M115.35 42.25 L115.4 42.25 115.4 42.2 115.6 42.1 115.7 42.1 115.75 42.15 116.4 43.15 116.4 43.2 116.4 43.3 116.35 43.3 116.1 43.45 116.05 43.45 116.0 43.4 115.35 42.3 115.35 42.25 M117.0 44.25 L117.5 45.3 117.5 45.45 117.45 45.45 117.25 45.6 117.2 45.6 117.15 45.55 116.6 44.45 116.6 44.3 116.85 44.2 116.95 44.2 116.95 44.25 117.0 44.25 M118.05 46.4 L118.05 46.45 118.1 46.45 118.65 47.5 118.65 47.6 118.6 47.65 118.35 47.8 118.3 47.8 118.3 47.75 118.25 47.75 117.75 46.65 117.75 46.55 117.75 46.5 117.95 46.4 118.05 46.4 M118.8 48.7 L119.0 48.6 119.1 48.6 119.1 48.65 119.15 48.65 119.6 49.75 119.6 49.85 119.55 49.9 119.4 50.0 119.35 50.0 119.3 49.95 119.25 49.95 118.75 48.85 118.75 48.8 118.8 48.75 118.8 48.7 M120.1 50.9 L120.55 52.05 120.55 52.1 120.45 52.2 120.25 52.25 120.2 52.2 120.15 52.2 119.7 51.05 119.7 51.0 119.8 50.9 120.1 50.9 M120.6 53.25 L120.85 53.2 121.0 53.2 121.4 54.35 121.4 54.45 121.35 54.5 121.1 54.6 121.0 54.6 121.0 54.55 120.95 54.55 120.6 53.4 120.6 53.3 120.6 53.25 M111.4 57.25 L111.35 57.3 111.1 57.45 111.05 57.45 111.0 57.4 110.95 57.4 110.55 56.25 110.55 56.15 110.6 56.15 110.6 56.1 110.8 56.05 110.9 56.05 111.4 57.2 111.4 57.25 M109.0 51.55 L109.55 52.7 109.55 52.8 109.5 52.85 109.25 52.95 109.15 52.95 109.15 52.9 109.1 52.9 108.55 51.8 108.55 51.7 108.6 51.7 108.6 51.65 108.85 51.5 108.95 51.5 109.0 51.55 M109.85 53.75 L110.0 53.75 110.5 54.9 110.5 55.0 110.45 55.05 110.25 55.15 110.15 55.15 110.15 55.1 110.1 55.1 109.65 54.0 109.65 53.95 109.7 53.9 109.7 53.85 109.85 53.75 M101.45 60.4 L101.4 60.45 101.15 60.6 101.1 60.6 101.05 60.55 100.6 59.4 100.6 59.3 100.65 59.3 100.65 59.25 100.85 59.15 100.95 59.15 101.0 59.2 101.45 60.3 101.45 60.4 M96.95 51.5 L96.95 51.55 96.65 51.85 96.6 51.8 96.55 51.8 95.85 50.75 95.85 50.7 95.9 50.65 95.9 50.6 96.1 50.45 96.15 50.45 96.25 50.5 96.95 51.5 M97.55 52.55 L97.6 52.6 98.25 53.65 98.25 53.75 98.2 53.75 98.0 53.85 97.95 53.85 97.9 53.8 97.85 53.8 97.25 52.8 97.25 52.75 97.5 52.55 97.55 52.55 M98.55 54.85 L98.55 54.8 98.75 54.65 98.85 54.65 98.9 54.7 99.5 55.8 99.5 55.9 99.45 55.95 99.2 56.05 99.15 56.05 99.1 56.0 99.05 56.0 98.5 54.9 98.5 54.85 98.55 54.85 M99.7 57.0 L99.9 56.9 99.95 56.9 100.0 56.95 100.5 58.05 100.5 58.2 100.25 58.3 100.15 58.3 100.15 58.25 100.1 58.25 99.65 57.15 99.65 57.05 99.7 57.05 99.7 57.0 M86.15 54.65 L86.2 54.6 86.25 54.6 86.3 54.65 87.1 55.6 87.1 55.65 86.8 55.95 86.75 55.9 86.7 55.9 86.0 54.9 86.0 54.85 86.1 54.65 86.15 54.65 M83.6 52.3 L83.55 52.3 82.65 51.45 82.6 51.45 82.6 51.4 82.7 51.15 82.75 51.15 82.8 51.1 83.8 52.05 83.65 52.25 83.6 52.3 M85.25 54.05 L84.3 53.1 84.6 52.75 84.65 52.75 84.7 52.8 84.7 52.85 85.55 53.75 85.25 54.05 M89.15 58.65 L89.75 59.75 89.75 59.85 89.7 59.9 89.55 60.0 89.45 60.0 89.45 59.95 89.4 59.95 88.8 58.9 89.05 58.6 89.1 58.6 89.15 58.65 M87.85 56.6 L88.5 57.65 88.5 57.75 88.45 57.75 88.3 57.85 88.2 57.85 88.15 57.8 87.4 56.85 87.4 56.8 87.45 56.75 87.45 56.7 87.7 56.55 87.8 56.55 87.85 56.6 M90.3 60.8 L90.35 60.8 90.85 61.95 90.85 62.05 90.8 62.1 90.6 62.2 90.5 62.2 90.5 62.15 90.45 62.15 89.9 61.0 89.9 60.95 89.95 60.9 89.95 60.85 90.2 60.75 90.3 60.75 90.3 60.8 M90.95 63.15 L91.05 63.05 91.25 63.0 91.3 63.0 91.3 63.05 91.8 64.2 91.8 64.25 91.7 64.35 91.45 64.4 91.4 64.35 91.35 64.35 90.95 63.2 90.95 63.15 M81.0 65.45 L81.05 65.45 81.6 66.55 81.6 66.65 81.55 66.7 81.35 66.85 81.3 66.85 81.25 66.8 81.2 66.8 80.7 65.65 80.7 65.55 80.75 65.55 80.75 65.5 80.95 65.4 81.0 65.4 81.0 65.45 M66.0 12.35 L66.05 12.45 66.05 12.8 66.0 12.85 64.75 12.8 64.65 12.75 64.65 12.7 64.7 12.4 64.75 12.35 64.8 12.35 66.0 12.35 M62.25 12.35 L62.25 12.3 63.55 12.35 63.65 12.4 63.65 12.6 63.55 12.7 62.3 12.7 62.2 12.6 62.2 12.35 62.25 12.35 M68.5 12.9 L68.5 12.95 67.2 12.9 67.15 12.8 67.15 12.55 67.2 12.45 68.45 12.6 68.5 12.6 68.55 12.7 68.5 12.9 M69.55 13.05 L69.55 12.8 69.65 12.7 70.9 12.85 70.95 12.85 71.0 12.95 70.95 13.15 70.95 13.25 69.65 13.15 69.55 13.05 M61.25 12.6 L61.15 12.7 59.9 12.8 59.8 12.75 59.8 12.4 59.9 12.35 61.15 12.35 61.25 12.55 61.25 12.6 M63.75 23.2 L63.7 23.1 63.7 22.7 64.95 22.75 65.05 22.85 65.05 23.1 64.95 23.2 63.75 23.2 M67.55 23.05 L67.5 23.3 67.5 23.4 67.4 23.4 66.2 23.3 66.1 23.2 66.1 22.9 66.2 22.8 67.45 22.95 67.5 22.95 67.55 23.05 M68.65 23.1 L69.9 23.3 70.0 23.35 70.0 23.4 69.9 23.6 69.85 23.65 69.8 23.65 68.65 23.5 68.55 23.4 68.55 23.2 68.65 23.1 M79.2 14.65 L79.25 14.65 79.3 14.6 79.35 14.6 80.55 14.9 80.55 14.95 80.6 15.0 80.6 15.05 80.45 15.3 80.4 15.35 80.35 15.35 79.2 15.0 79.2 14.65 M76.9 14.1 L76.9 14.0 78.1 14.25 78.2 14.3 78.2 14.35 78.15 14.6 78.15 14.65 78.05 14.65 76.9 14.4 76.85 14.35 76.8 14.35 76.8 14.3 76.85 14.1 76.9 14.1 M75.85 13.85 L75.75 14.1 75.7 14.1 74.45 13.85 74.35 13.75 74.35 13.7 74.45 13.5 74.5 13.5 74.55 13.45 75.75 13.7 75.85 13.8 75.85 13.85 M73.3 13.6 L72.1 13.5 72.0 13.4 72.0 13.1 72.1 13.0 73.35 13.25 73.45 13.35 73.4 13.5 73.4 13.6 73.3 13.6 M70.9 23.8 L70.95 23.5 71.05 23.4 72.25 23.65 72.3 23.7 72.3 24.05 72.25 24.1 72.2 24.1 71.2 23.85 70.9 23.85 70.9 23.8 M73.35 24.3 L73.3 24.3 73.3 24.25 73.35 24.0 73.4 24.0 73.4 23.95 73.45 23.9 74.6 24.2 74.7 24.25 74.7 24.3 74.65 24.45 74.6 24.55 73.4 24.35 73.35 24.3 M75.85 24.45 L77.05 24.85 77.05 24.9 77.1 24.95 77.1 25.0 77.0 25.2 76.95 25.25 76.9 25.25 75.75 24.9 75.7 24.85 75.7 24.8 75.75 24.55 75.75 24.5 75.8 24.45 75.85 24.45 M50.1 13.9 L50.05 13.8 50.0 13.6 50.0 13.55 50.05 13.55 50.1 13.5 51.3 13.25 51.35 13.25 51.4 13.35 51.45 13.6 51.45 13.65 51.35 13.7 50.15 13.9 50.1 13.9 M49.0 13.8 L49.05 14.1 49.05 14.15 48.95 14.15 47.8 14.45 47.75 14.4 47.7 14.4 47.6 14.1 47.7 14.0 48.9 13.7 48.95 13.7 49.0 13.8 M46.55 14.3 L46.55 14.35 46.6 14.35 46.7 14.6 46.7 14.7 46.65 14.7 45.45 15.05 45.35 15.05 45.35 15.0 45.3 15.0 45.25 14.75 45.25 14.7 45.3 14.7 45.3 14.65 46.45 14.3 46.55 14.3 M44.2 14.95 L44.25 15.0 44.25 15.05 44.3 15.25 44.3 15.3 44.25 15.35 43.05 15.75 43.0 15.75 43.0 15.7 42.95 15.65 42.9 15.4 42.95 15.35 42.95 15.3 44.15 14.95 44.2 14.95 M42.0 15.95 L42.0 16.05 41.95 16.1 40.75 16.55 40.7 16.55 40.65 16.45 40.6 16.25 40.65 16.2 40.65 16.15 41.75 15.75 41.85 15.75 41.85 15.8 42.0 15.95 M48.05 24.7 L48.1 24.75 48.2 25.0 48.2 25.1 47.0 25.45 46.9 25.45 46.9 25.4 46.85 25.35 46.8 25.15 46.85 25.1 46.85 25.05 47.95 24.7 48.05 24.7 M50.45 24.5 L49.25 24.8 49.15 24.7 49.1 24.45 49.15 24.45 49.15 24.4 50.35 24.05 50.45 24.05 50.5 24.1 50.5 24.45 50.45 24.5 M58.65 12.85 L57.4 12.9 57.35 12.8 57.35 12.55 57.4 12.45 58.7 12.35 58.75 12.45 58.75 12.75 58.65 12.85 M56.25 12.6 L56.3 12.7 56.3 12.95 56.2 12.95 55.0 13.15 54.9 13.1 54.9 12.8 55.0 12.7 56.2 12.6 56.25 12.6 M53.8 12.85 L53.8 12.9 53.85 12.95 53.9 13.15 53.9 13.2 53.8 13.25 52.6 13.5 52.5 13.45 52.5 13.4 52.45 13.1 52.45 13.05 52.5 13.05 52.55 13.0 53.75 12.85 53.8 12.85 M51.6 24.25 L51.55 24.15 51.5 23.9 51.5 23.85 51.6 23.85 52.8 23.6 52.85 23.6 52.85 23.65 52.9 23.7 52.95 23.9 52.95 23.95 52.85 24.0 51.65 24.25 51.6 24.25 M53.95 23.8 L53.95 23.75 53.9 23.45 54.0 23.35 55.15 23.25 55.2 23.25 55.25 23.3 55.35 23.45 55.35 23.5 55.25 23.6 54.05 23.85 53.95 23.8 M57.7 23.0 L57.7 23.05 57.75 23.25 57.75 23.3 57.65 23.3 56.4 23.45 56.3 23.4 56.3 23.15 56.4 23.05 57.65 22.95 57.7 23.0 M60.15 22.8 L60.2 22.85 60.2 23.1 60.1 23.2 58.8 23.25 58.75 23.2 58.75 22.9 58.85 22.8 60.15 22.75 60.15 22.8 M54.6 33.85 L54.65 33.85 54.7 33.8 55.95 33.6 56.0 33.6 56.05 33.65 56.1 33.95 56.1 34.0 56.0 34.05 54.75 34.2 54.7 34.2 54.65 34.15 54.6 33.9 54.6 33.85 M52.2 34.4 L52.25 34.3 53.5 34.05 53.55 34.05 53.6 34.1 53.6 34.15 53.65 34.35 53.65 34.4 53.55 34.45 52.35 34.75 52.3 34.7 52.25 34.7 52.2 34.45 52.2 34.4 M51.2 35.0 L51.15 35.05 50.05 35.4 49.95 35.4 49.95 35.35 49.9 35.35 49.8 35.1 49.8 35.05 49.85 35.0 49.85 34.95 51.05 34.65 51.1 34.65 51.15 34.7 51.15 34.75 51.2 34.95 51.2 35.0 M58.5 33.65 L58.45 33.7 57.2 33.8 57.1 33.75 57.1 33.5 57.2 33.4 58.45 33.25 58.5 33.25 58.5 33.65 M59.65 33.1 L60.9 33.05 60.95 33.1 60.95 33.15 61.0 33.45 61.0 33.5 60.95 33.55 59.65 33.6 59.6 33.55 59.6 33.2 59.65 33.1 M45.75 25.45 L45.75 25.5 45.8 25.5 45.9 25.65 45.9 25.75 45.85 25.8 44.65 26.25 44.6 26.25 44.5 26.15 44.45 25.9 44.5 25.85 44.5 25.8 45.65 25.45 45.75 25.45 M43.45 26.2 L43.55 26.3 43.6 26.6 43.6 26.65 43.55 26.7 42.4 27.15 42.35 27.15 42.25 27.05 42.2 26.8 42.25 26.75 43.4 26.2 43.45 26.2 M41.35 27.45 L41.35 27.55 41.3 27.6 40.15 28.15 40.1 28.1 40.05 28.1 39.95 27.85 39.95 27.75 40.0 27.75 40.0 27.7 41.05 27.2 41.2 27.2 41.25 27.25 41.35 27.45 M45.2 36.8 L45.25 36.8 45.25 36.75 46.35 36.25 46.45 36.25 46.45 36.3 46.6 36.5 46.6 36.6 46.55 36.65 45.4 37.15 45.35 37.15 45.3 37.1 45.2 36.9 45.2 36.8 M47.55 35.8 L48.7 35.4 48.75 35.4 48.75 35.45 48.8 35.45 48.9 35.65 48.9 35.75 48.85 35.8 47.65 36.25 47.6 36.25 47.55 36.15 47.5 35.9 47.55 35.85 47.55 35.8 M44.3 37.65 L44.25 37.65 43.2 38.25 43.1 38.25 43.1 38.2 43.05 38.2 42.95 37.95 42.95 37.9 43.0 37.85 43.0 37.8 44.1 37.3 44.15 37.3 44.15 37.35 44.2 37.35 44.3 37.55 44.3 37.65 M42.0 38.4 L42.05 38.45 42.15 38.7 42.15 38.8 42.1 38.8 41.05 39.4 40.95 39.4 40.9 39.4 40.75 39.15 40.75 39.1 40.8 39.05 40.8 39.0 41.9 38.4 42.0 38.4 M50.55 45.8 L50.55 45.75 51.65 45.35 51.75 45.35 51.75 45.4 51.8 45.4 51.9 45.6 51.9 45.7 51.85 45.7 50.7 46.2 50.65 46.2 50.55 46.1 50.5 45.85 50.55 45.8 M49.5 46.25 L49.55 46.3 49.65 46.5 49.65 46.6 49.6 46.65 48.5 47.2 48.4 47.2 48.4 47.15 48.35 47.15 48.2 46.9 48.2 46.85 48.25 46.85 48.25 46.8 Q48.85 46.55 49.4 46.25 L49.5 46.25 M47.4 47.75 L46.4 48.4 46.35 48.4 46.3 48.35 46.25 48.35 46.15 48.1 46.15 48.05 46.2 48.0 47.2 47.35 47.3 47.35 47.35 47.4 47.45 47.6 47.45 47.7 47.4 47.75 M55.25 44.25 L56.5 44.0 56.55 44.0 56.6 44.1 56.6 44.45 56.5 44.45 55.3 44.7 55.2 44.65 55.2 44.6 55.15 44.35 55.15 44.3 55.2 44.3 55.25 44.25 M54.15 44.6 L54.15 44.65 54.2 44.9 54.2 44.95 54.15 45.0 53.0 45.35 52.9 45.35 52.9 45.3 52.85 45.3 52.75 45.05 52.75 45.0 52.8 45.0 52.8 44.9 54.0 44.55 54.1 44.55 54.15 44.6 M60.0 43.65 L60.1 43.55 61.4 43.5 61.4 43.9 61.35 44.0 60.0 44.0 60.0 43.65 M59.0 44.1 L58.9 44.1 57.75 44.3 57.7 44.25 57.65 44.25 57.55 44.0 57.55 43.95 57.6 43.9 57.65 43.9 57.65 43.85 58.9 43.65 58.95 43.65 59.0 43.75 59.0 44.1 M79.2 26.0 L78.05 25.6 78.05 25.25 78.1 25.25 78.1 25.2 78.15 25.15 78.2 25.15 79.35 25.55 79.35 25.6 79.4 25.6 79.35 25.9 79.35 26.0 79.2 26.0 M73.2 34.85 L73.2 34.9 73.15 34.95 73.05 34.95 71.85 34.65 71.8 34.6 71.8 34.55 71.85 34.3 71.9 34.3 71.9 34.25 71.95 34.2 72.0 34.2 73.2 34.55 73.2 34.6 73.25 34.65 73.2 34.85 M75.6 35.55 L75.6 35.65 75.45 35.65 74.25 35.3 74.2 35.25 74.2 35.2 74.25 34.95 74.3 34.95 74.3 34.9 74.35 34.85 74.4 34.85 75.6 35.25 75.6 35.3 75.65 35.35 75.6 35.55 M76.5 35.95 L76.65 35.75 76.7 35.75 76.75 35.7 76.8 35.7 77.9 36.1 77.9 36.15 77.95 36.2 77.95 36.25 77.85 36.5 77.8 36.5 77.7 36.5 76.55 36.05 76.5 36.0 76.5 35.95 M80.2 37.1 L80.25 37.15 80.25 37.2 80.1 37.45 80.05 37.5 79.95 37.5 78.85 37.0 78.8 36.95 78.8 36.85 78.9 36.65 78.95 36.65 78.95 36.6 79.05 36.6 80.2 37.1 M64.5 33.2 L64.6 33.1 65.85 33.25 65.95 33.35 65.95 33.6 65.9 33.65 64.6 33.6 64.5 33.5 64.5 33.2 M69.45 33.75 L69.5 33.75 69.55 33.7 70.7 33.95 70.8 34.0 70.8 34.05 70.75 34.25 70.7 34.35 70.65 34.35 69.45 34.15 69.4 34.05 69.4 34.0 69.45 33.75 M67.0 33.45 L67.1 33.35 68.3 33.55 68.4 33.65 68.3 33.85 68.3 33.9 68.25 33.9 67.1 33.75 67.0 33.65 67.0 33.45 M65.0 43.6 L66.25 43.7 66.3 43.7 66.35 43.8 66.3 44.05 66.3 44.15 66.25 44.15 65.0 44.05 64.9 44.0 64.9 43.7 65.0 43.6 M69.9 44.45 L69.95 44.45 71.1 44.75 71.1 44.8 71.15 44.85 71.15 44.9 71.05 45.1 71.0 45.15 70.9 45.15 69.75 44.8 69.7 44.75 69.7 44.65 69.8 44.5 69.85 44.5 69.9 44.45 M68.75 44.55 L68.65 44.55 67.4 44.35 67.3 44.3 67.3 44.25 67.35 44.0 67.4 44.0 67.4 43.95 67.45 43.95 68.7 44.15 68.8 44.25 68.75 44.45 68.75 44.55 M74.3 46.2 L74.45 45.95 74.5 45.95 74.5 45.9 74.6 45.9 75.7 46.4 75.7 46.45 75.75 46.45 75.75 46.55 75.65 46.85 75.5 46.85 74.35 46.3 74.3 46.3 74.3 46.2 M73.45 45.65 L73.4 45.85 73.35 45.9 73.25 45.9 72.1 45.55 72.05 45.5 72.05 45.45 72.1 45.15 72.2 45.1 72.25 45.1 73.45 45.5 73.45 45.65 M77.65 47.95 L76.55 47.45 76.5 47.4 76.5 47.3 76.65 47.0 76.7 47.0 76.75 46.95 76.8 46.95 77.85 47.55 77.85 47.6 77.9 47.6 77.9 47.7 77.8 47.9 77.75 47.95 77.65 47.95 M78.65 48.6 L78.65 48.5 78.9 48.2 78.95 48.2 79.95 48.85 79.95 48.9 80.0 48.95 79.75 49.2 79.7 49.2 78.65 48.6 M29.55 21.5 L29.8 21.4 30.65 20.85 30.75 20.85 30.8 20.9 30.9 21.1 30.9 21.2 30.85 21.25 29.8 21.9 29.75 21.9 29.7 21.85 29.5 21.6 29.5 21.55 29.55 21.55 29.55 21.5 M27.5 22.8 L28.55 22.15 28.65 22.15 28.8 22.4 28.8 22.45 28.75 22.55 27.75 23.2 27.65 23.2 27.6 23.15 27.5 22.95 27.5 22.8 M26.5 23.55 L26.55 23.55 26.8 23.8 26.8 23.85 26.75 23.85 25.75 24.65 25.7 24.6 25.65 24.6 25.45 24.4 25.45 24.35 25.5 24.3 25.5 24.25 26.5 23.55 M36.15 18.35 L36.05 18.1 36.1 18.05 36.1 18.0 37.2 17.5 37.25 17.5 37.3 17.55 37.4 17.75 37.4 17.85 37.35 17.9 36.3 18.4 36.2 18.4 36.2 18.35 36.15 18.35 M39.55 16.6 L39.65 16.85 39.65 16.95 39.6 16.95 38.5 17.4 38.45 17.4 38.4 17.35 38.25 17.15 38.25 17.1 38.3 17.05 38.3 17.0 39.45 16.55 39.55 16.55 39.55 16.6 M35.05 18.55 L35.05 18.6 35.1 18.6 35.2 18.75 35.2 18.85 35.15 18.9 34.05 19.45 34.0 19.45 33.95 19.4 33.9 19.4 33.8 19.2 33.8 19.1 33.85 19.1 33.85 19.05 34.95 18.55 35.05 18.55 M33.05 19.9 L33.05 20.0 33.0 20.05 31.9 20.65 31.85 20.65 31.8 20.6 31.75 20.6 31.65 20.4 31.65 20.3 31.7 20.3 31.7 20.25 32.8 19.65 32.9 19.65 32.95 19.7 33.05 19.9 M19.8 29.05 L19.85 29.05 20.8 28.1 20.85 28.1 20.9 28.15 21.05 28.35 21.05 28.45 20.0 29.35 20.0 29.3 19.95 29.3 19.8 29.05 M18.95 29.8 L19.0 29.8 19.25 29.95 19.25 30.0 19.3 30.05 19.3 30.1 18.3 31.0 18.0 30.75 18.05 30.7 18.1 30.7 18.95 29.8 M12.55 37.1 L12.75 37.3 12.75 37.35 12.8 37.4 12.8 37.45 12.0 38.4 12.0 38.45 11.9 38.45 11.75 38.35 11.7 38.25 12.4 37.15 12.45 37.15 12.5 37.1 12.55 37.1 M14.95 34.65 L14.9 34.6 14.85 34.6 14.75 34.4 14.75 34.3 15.45 33.4 15.5 33.4 15.55 33.35 15.6 33.35 15.85 33.55 15.85 33.6 15.9 33.65 15.0 34.65 14.95 34.65 M14.25 35.4 L14.3 35.45 14.3 35.5 13.5 36.5 13.3 36.5 13.15 36.3 13.15 36.2 13.9 35.3 13.95 35.3 14.0 35.25 14.05 35.25 14.25 35.35 14.25 35.4 M17.2 31.5 L17.25 31.5 17.5 31.7 17.5 31.75 17.55 31.8 16.6 32.8 16.55 32.8 16.55 32.75 16.5 32.75 16.35 32.55 16.35 32.5 17.15 31.55 17.2 31.5 M10.0 41.5 L9.35 42.5 9.3 42.55 9.2 42.55 9.0 42.45 8.95 42.4 8.95 42.3 9.6 41.2 9.65 41.2 9.65 41.15 9.7 41.15 9.95 41.35 10.0 41.4 10.0 41.5 M8.5 43.3 L8.7 43.4 8.7 43.45 8.75 43.5 8.75 43.55 8.1 44.6 8.05 44.65 7.95 44.65 7.8 44.55 7.75 44.45 7.75 44.4 8.35 43.35 8.4 43.35 8.45 43.3 8.5 43.3 M7.55 45.65 L7.55 45.7 6.95 46.8 6.9 46.85 6.8 46.85 6.6 46.7 6.6 46.65 6.55 46.65 6.55 46.55 7.15 45.5 7.2 45.5 7.2 45.45 7.3 45.45 7.5 45.55 7.5 45.6 7.55 45.65 M6.4 47.9 L5.95 49.0 5.9 49.05 5.8 49.05 5.6 48.9 5.6 48.85 5.55 48.85 5.55 48.75 6.05 47.7 6.1 47.7 6.15 47.65 6.2 47.65 6.35 47.75 6.35 47.8 6.4 47.8 6.4 47.9 M11.3 39.35 L11.35 39.4 10.65 40.45 10.6 40.5 10.5 40.5 10.3 40.35 10.25 40.25 10.25 40.2 10.95 39.2 11.0 39.2 11.05 39.15 11.1 39.15 11.3 39.3 11.3 39.35 M18.95 45.95 L19.0 45.9 19.05 45.9 19.3 46.05 19.3 46.1 19.35 46.15 19.35 46.2 18.7 47.2 18.65 47.25 18.55 47.25 18.3 47.15 18.3 47.0 18.9 45.95 18.95 45.95 M19.9 45.25 L19.65 45.1 19.6 45.0 19.6 44.95 20.35 44.0 20.4 44.0 20.45 43.95 20.5 43.95 20.65 44.0 20.65 44.05 20.7 44.1 20.7 44.15 20.0 45.2 20.0 45.25 19.9 45.25 M17.65 48.0 L17.75 48.0 18.0 48.15 18.05 48.2 18.05 48.3 17.4 49.3 17.35 49.35 17.25 49.35 17.05 49.15 17.05 49.1 17.65 48.0 M37.8 28.9 L37.85 28.9 37.85 28.85 38.9 28.25 38.95 28.25 39.0 28.3 39.15 28.45 39.15 28.55 39.1 28.6 38.0 29.2 37.95 29.2 37.9 29.15 37.85 29.15 37.8 29.0 37.8 28.9 M36.7 29.45 L36.75 29.45 36.85 29.5 37.0 29.65 37.0 29.75 36.95 29.8 35.9 30.4 35.8 30.4 35.8 30.35 35.75 30.35 35.6 30.15 35.6 30.1 35.65 30.05 35.65 30.0 36.7 29.45 M34.75 30.65 L34.8 30.7 34.9 30.9 34.9 31.0 34.85 31.05 33.8 31.7 33.75 31.7 33.7 31.65 33.55 31.45 33.55 31.4 33.6 31.35 34.65 30.65 34.75 30.65 M30.9 33.85 L30.85 33.85 29.9 34.65 29.85 34.65 29.8 34.6 29.65 34.35 29.65 34.3 29.7 34.25 29.7 34.2 30.65 33.45 30.75 33.45 30.8 33.5 30.9 33.7 30.9 33.85 M24.8 25.35 L23.8 26.1 23.75 26.1 23.5 25.85 23.55 25.8 23.55 25.75 24.55 25.0 24.6 25.0 24.85 25.25 24.85 25.3 24.8 25.35 M22.9 26.8 L22.9 26.9 22.85 26.9 21.9 27.65 21.85 27.65 21.65 27.4 21.7 27.35 21.75 27.35 22.65 26.5 22.7 26.5 22.75 26.55 22.9 26.75 22.9 26.8 M26.95 36.65 L27.15 36.8 27.15 36.85 27.2 36.9 27.2 36.95 26.2 37.8 26.15 37.75 26.1 37.75 25.95 37.6 25.95 37.55 26.9 36.65 26.95 36.65 M27.7 35.9 L27.75 35.9 28.7 34.95 28.75 34.95 28.8 35.0 29.0 35.25 29.0 35.35 28.0 36.2 27.95 36.15 27.9 36.15 27.7 35.95 27.7 35.9 M25.4 38.6 L24.6 39.55 24.5 39.55 24.25 39.4 24.2 39.4 24.2 39.35 25.2 38.35 25.2 38.3 25.25 38.35 25.4 38.55 25.4 38.6 M23.5 40.1 L23.75 40.35 23.75 40.4 23.0 41.3 23.0 41.35 22.9 41.35 22.65 41.2 22.6 41.15 22.6 41.1 23.45 40.2 23.45 40.15 23.5 40.1 M21.1 43.0 L21.85 42.05 21.9 42.05 21.95 42.0 22.2 42.25 21.45 43.2 21.45 43.25 21.3 43.25 21.15 43.15 21.1 43.1 21.1 43.0 M29.85 49.15 L29.7 49.0 29.7 48.9 30.4 47.95 30.45 47.95 30.5 47.9 30.55 47.9 30.8 48.0 30.8 48.05 30.85 48.1 29.95 49.15 29.85 49.15 M37.75 41.1 L37.85 41.1 38.0 41.35 38.0 41.45 37.95 41.5 37.0 42.25 36.95 42.25 36.9 42.2 36.85 42.2 36.7 41.95 36.7 41.8 37.7 41.1 37.75 41.1 M35.85 42.65 L36.05 42.8 36.05 42.85 36.1 42.85 36.1 42.9 36.05 42.95 35.05 43.8 35.0 43.8 34.75 43.5 34.8 43.45 34.8 43.4 35.75 42.65 35.85 42.65 M34.25 44.55 L33.45 45.3 33.45 45.35 33.4 45.35 33.25 45.45 33.2 45.45 33.0 45.3 32.95 45.25 32.95 45.2 33.9 44.25 33.95 44.25 34.2 44.45 34.2 44.5 34.25 44.55 M32.25 46.0 L32.3 46.05 32.45 46.25 32.45 46.3 31.55 47.25 31.5 47.25 31.3 47.1 31.25 47.05 31.25 47.0 32.2 46.05 32.2 46.0 32.25 46.0 M37.9 55.25 L37.95 55.2 38.25 55.5 37.45 56.5 37.4 56.55 37.35 56.55 37.3 56.5 37.25 56.5 37.15 56.3 37.15 56.2 37.85 55.25 37.9 55.25 M40.4 52.6 L41.3 51.65 41.55 51.9 41.55 51.95 40.55 52.85 40.3 52.6 40.4 52.6 M39.85 53.65 L39.0 54.6 39.0 54.65 38.95 54.65 38.65 54.35 39.45 53.4 39.5 53.4 39.55 53.35 39.8 53.55 39.8 53.6 39.85 53.65 M35.2 59.25 L35.45 59.45 35.5 59.5 35.5 59.55 34.9 60.6 34.85 60.65 34.75 60.65 34.5 60.55 34.45 60.5 34.45 60.4 35.05 59.3 35.1 59.3 35.15 59.25 35.2 59.25 M33.95 61.5 L34.0 61.45 34.05 61.45 34.3 61.6 34.3 61.65 34.35 61.65 34.35 61.75 33.85 62.8 33.8 62.85 33.75 62.85 33.5 62.75 33.5 62.7 33.45 62.7 33.45 62.6 33.9 61.5 33.95 61.5 M36.55 57.2 L36.7 57.3 36.7 57.35 36.75 57.4 36.75 57.45 36.1 58.45 36.1 58.5 36.0 58.5 35.75 58.4 35.7 58.35 35.7 58.3 36.4 57.25 36.45 57.25 36.5 57.2 36.55 57.2 M29.25 50.05 L28.6 51.05 28.6 51.1 28.5 51.1 28.45 51.1 28.2 50.95 28.15 50.9 28.15 50.85 28.9 49.85 28.95 49.85 29.0 49.8 29.05 49.8 29.2 49.9 29.2 49.95 29.25 50.0 29.25 50.05 M27.85 52.1 L27.2 53.15 27.15 53.2 27.05 53.2 26.9 53.1 26.85 53.05 26.85 52.95 27.5 51.85 27.55 51.8 27.85 52.05 27.85 52.1 M26.2 54.0 L26.25 53.95 26.3 53.95 26.5 54.1 26.5 54.15 26.55 54.15 26.55 54.25 25.95 55.3 25.9 55.35 25.8 55.35 25.65 55.25 25.65 55.2 25.6 55.2 25.6 55.1 26.15 54.0 26.2 54.0 M25.05 56.15 L25.05 56.1 25.15 56.1 25.35 56.2 25.35 56.25 25.4 56.3 25.4 56.35 24.9 57.5 24.85 57.55 24.75 57.55 24.5 57.45 24.45 57.4 24.45 57.3 25.0 56.15 25.05 56.15 M24.0 58.4 L24.05 58.35 24.3 58.5 24.3 58.55 24.35 58.6 24.35 58.65 23.95 59.75 23.9 59.8 23.8 59.8 23.5 59.7 23.45 59.65 23.45 59.55 23.95 58.4 24.0 58.4 M33.35 63.85 L33.4 63.9 33.4 63.95 33.0 65.05 32.95 65.1 32.9 65.1 32.65 65.05 32.6 65.0 32.6 64.9 32.95 63.75 33.0 63.75 33.0 63.7 33.1 63.7 33.35 63.8 33.35 63.85 M16.55 50.15 L16.8 50.25 16.8 50.3 16.85 50.3 16.85 50.35 16.25 51.45 16.2 51.5 16.1 51.5 15.9 51.4 15.9 51.35 15.85 51.35 15.85 51.25 16.45 50.2 16.5 50.2 16.5 50.15 16.55 50.15 M15.7 52.45 L15.7 52.55 15.25 53.65 15.2 53.7 15.1 53.7 14.85 53.6 14.85 53.45 15.35 52.35 15.4 52.35 15.4 52.3 15.45 52.3 15.65 52.4 15.65 52.45 15.7 52.45 M14.45 54.5 L14.7 54.6 14.7 54.65 14.75 54.65 14.75 54.75 14.25 55.9 14.25 55.95 14.15 55.95 13.9 55.85 13.9 55.8 13.85 55.8 13.85 55.7 14.3 54.55 14.35 54.55 14.35 54.5 14.45 54.5 M13.8 56.95 L13.8 57.05 13.45 58.15 13.4 58.2 13.35 58.2 13.1 58.15 13.0 58.05 13.0 58.0 13.4 56.85 13.45 56.85 13.5 56.8 13.55 56.8 13.75 56.9 13.75 56.95 13.8 56.95 M5.45 50.1 L5.0 51.25 4.95 51.3 4.85 51.3 4.6 51.2 4.6 51.15 4.55 51.15 4.55 51.05 5.0 49.9 5.05 49.9 5.05 49.85 5.1 49.85 5.4 49.95 5.4 50.0 5.45 50.05 5.45 50.1 M4.15 52.1 L4.2 52.1 4.5 52.25 4.5 52.3 4.5 52.4 4.1 53.5 4.05 53.55 3.95 53.55 3.7 53.45 3.7 53.4 3.65 53.35 3.65 53.3 4.05 52.15 4.1 52.15 4.15 52.1 M3.3 54.5 L3.35 54.5 3.35 54.45 3.6 54.5 3.7 54.6 3.7 54.65 3.3 55.85 3.25 55.9 3.15 55.9 2.95 55.75 2.9 55.7 2.9 55.6 3.3 54.5 M73.65 57.25 L73.7 57.3 73.45 57.6 73.4 57.6 72.35 56.95 72.3 56.9 72.3 56.8 72.4 56.6 72.45 56.6 72.5 56.55 72.55 56.55 73.65 57.2 73.65 57.25 M71.4 56.3 L71.35 56.35 71.25 56.35 70.15 55.9 70.15 55.85 70.1 55.85 70.1 55.75 70.2 55.5 70.25 55.5 70.3 55.45 70.35 55.45 71.5 56.0 71.5 56.05 71.55 56.05 71.55 56.1 71.4 56.3 M76.5 59.5 L77.5 60.5 77.5 60.55 77.45 60.6 77.25 60.7 77.2 60.7 76.35 59.9 76.3 59.9 76.25 59.85 76.25 59.8 76.5 59.5 M78.0 61.45 L78.2 61.3 78.25 61.3 78.35 61.35 79.1 62.35 79.05 62.45 78.85 62.6 78.8 62.6 78.75 62.55 78.7 62.55 77.95 61.6 77.95 61.55 78.0 61.5 78.0 61.45 M66.8 54.35 L66.85 54.35 66.85 54.4 66.75 54.7 66.7 54.75 66.65 54.75 65.5 54.5 65.45 54.45 65.4 54.45 65.4 54.4 65.45 54.2 65.5 54.15 65.5 54.1 65.55 54.1 66.75 54.3 66.8 54.35 M67.95 54.6 L68.05 54.6 69.2 54.95 69.2 55.0 69.25 55.05 69.25 55.1 69.15 55.35 69.1 55.4 69.0 55.4 67.85 55.0 67.8 54.95 67.8 54.9 67.9 54.65 67.95 54.65 67.95 54.6 M63.05 53.85 L64.3 53.9 64.4 54.0 64.4 54.35 63.1 54.3 63.0 54.2 63.0 53.95 63.05 53.9 63.05 53.85 M61.95 53.95 L61.95 54.25 61.85 54.35 60.5 54.35 60.5 54.0 60.6 53.9 61.9 53.85 61.9 53.9 61.95 53.95 M66.25 64.9 L66.3 64.95 66.3 65.0 66.15 65.25 66.0 65.25 64.9 64.95 64.85 64.9 64.85 64.85 64.9 64.6 64.95 64.6 64.95 64.55 65.0 64.5 65.05 64.5 66.25 64.85 66.25 64.9 M68.15 66.4 L67.15 65.8 67.1 65.8 67.1 65.7 67.15 65.45 67.2 65.45 67.2 65.4 67.3 65.4 68.35 66.05 68.35 66.1 68.4 66.15 68.2 66.4 68.15 66.4 M61.4 64.65 L60.25 64.75 60.15 64.7 60.15 64.45 60.2 64.45 60.25 64.4 61.4 64.2 61.45 64.3 61.45 64.55 61.4 64.65 M70.6 68.85 L70.9 68.6 70.95 68.6 71.0 68.65 71.65 69.65 71.65 69.75 71.6 69.8 71.35 69.9 71.3 69.9 71.25 69.85 71.2 69.85 70.6 68.9 70.6 68.85 M79.8 63.35 L80.45 64.35 80.45 64.4 80.45 64.5 80.4 64.5 80.25 64.65 80.2 64.65 80.15 64.6 80.1 64.6 79.45 63.5 79.5 63.45 79.5 63.4 79.7 63.3 79.8 63.3 79.8 63.35 M56.95 54.6 L57.0 54.65 57.0 54.7 57.05 54.9 57.05 54.95 57.0 55.0 55.9 55.4 55.85 55.4 55.8 55.35 55.75 55.35 55.65 55.1 55.65 54.95 56.85 54.6 56.95 54.6 M58.0 54.35 L58.05 54.35 58.1 54.3 59.35 54.1 59.4 54.1 59.4 54.15 59.45 54.2 59.5 54.4 59.5 54.45 59.4 54.5 58.15 54.75 58.05 54.7 58.05 54.65 58.0 54.35 M54.6 55.45 L54.7 55.5 54.75 55.75 54.75 55.8 54.7 55.85 53.55 56.3 53.45 56.3 53.45 56.25 53.4 56.25 53.35 56.05 53.35 55.95 53.35 55.9 54.55 55.45 54.6 55.45 M52.55 56.75 L52.5 56.85 51.4 57.5 51.35 57.5 51.3 57.45 51.25 57.45 51.15 57.2 51.2 57.15 51.2 57.1 52.25 56.45 52.3 56.45 52.4 56.5 52.55 56.7 52.55 56.75 M43.4 50.3 L43.4 50.35 42.4 51.25 42.35 51.2 42.3 51.2 42.15 50.95 42.15 50.9 42.2 50.9 42.2 50.85 43.1 50.1 43.15 50.1 43.4 50.3 M47.25 60.25 L47.3 60.2 47.35 60.2 48.25 59.3 48.55 59.55 48.55 59.6 47.55 60.55 47.25 60.25 M46.75 61.3 L46.0 62.3 46.0 62.35 45.9 62.35 45.65 62.2 45.6 62.15 45.6 62.05 46.5 61.05 46.75 61.25 46.75 61.3 M44.85 63.05 L44.9 63.0 44.95 63.0 45.2 63.15 45.2 63.2 45.25 63.25 45.25 63.3 44.6 64.3 44.55 64.35 44.45 64.35 44.2 64.25 44.15 64.2 44.15 64.1 44.8 63.05 44.85 63.05 M44.0 65.35 L43.45 66.5 43.4 66.55 43.3 66.55 43.1 66.45 43.1 66.4 43.05 66.4 43.05 66.35 43.6 65.2 43.6 65.15 43.7 65.15 43.95 65.25 44.0 65.3 44.0 65.35 M59.05 64.7 L59.1 64.8 59.15 65.0 59.15 65.05 59.1 65.1 58.0 65.55 57.95 65.55 57.95 65.5 57.9 65.5 57.8 65.25 57.85 65.2 57.85 65.15 59.0 64.7 59.05 64.7 M55.15 67.5 L54.35 68.45 54.3 68.5 54.25 68.5 54.0 68.25 54.0 68.2 54.9 67.3 54.95 67.25 55.15 67.5 M53.7 69.4 L53.15 70.45 53.1 70.5 53.0 70.5 52.75 70.4 52.75 70.3 53.35 69.25 53.35 69.2 53.45 69.2 53.65 69.25 53.65 69.3 53.7 69.35 53.7 69.4" fill="#3e9650" fill-rule="evenodd" stroke="none"/>
  </g>
</svg>
