<?xml version="1.0" encoding="UTF-8" standalone="no"?>
<svg xmlns:ffdec="https://www.free-decompiler.com/flash" xmlns:xlink="http://www.w3.org/1999/xlink" ffdec:objectType="shape" height="158.45px" width="607.95px" xmlns="http://www.w3.org/2000/svg">
  <g transform="matrix(1.0, 0.0, 0.0, 1.0, 211.45, 92.95)">
    <path d="M348.5 -24.95 L396.5 -24.95 396.5 65.5 -84.45 65.5 Q-83.95 56.5 -83.95 47.5 L-134.95 47.5 -137.95 43.55 -152.45 42.55 Q-157.45 41.55 -162.45 40.05 -171.45 35.55 -180.95 31.05 L-188.95 24.05 -195.95 16.05 Q-198.45 11.55 -201.45 7.05 L-205.45 -2.45 -208.45 -24.45 -211.45 -24.45 Q-210.95 -58.45 -210.95 -92.95 L354.5 -92.95 354.5 -56.45 348.5 -56.45 348.5 -24.95" fill="#424242" fill-rule="evenodd" stroke="none"/>
    <path d="M278.5 31.05 L258.0 31.05 258.0 8.55 278.5 8.55 278.5 31.05" fill="#424242" fill-rule="evenodd" stroke="none"/>
    <path d="M259.0 30.55 L259.0 28.55 277.0 28.55 277.0 30.55 259.0 30.55" fill="#959595" fill-rule="evenodd" stroke="none"/>
    <path d="M259.0 27.05 L259.0 25.05 277.0 25.05 277.0 27.05 259.0 27.05" fill="#959595" fill-rule="evenodd" stroke="none"/>
    <path d="M259.0 24.05 L259.0 22.05 277.0 22.05 277.0 24.05 259.0 24.05" fill="#959595" fill-rule="evenodd" stroke="none"/>
    <path d="M259.0 21.05 L259.0 19.05 277.0 19.05 277.0 21.05 259.0 21.05" fill="#959595" fill-rule="evenodd" stroke="none"/>
    <path d="M259.0 18.05 L259.0 16.05 277.0 16.05 277.0 18.05 259.0 18.05" fill="#959595" fill-rule="evenodd" stroke="none"/>
    <path d="M259.0 15.05 L259.0 13.05 277.0 13.05 277.0 15.05 259.0 15.05" fill="#959595" fill-rule="evenodd" stroke="none"/>
    <path d="M259.0 11.55 L259.0 9.55 277.0 9.55 277.0 11.55 259.0 11.55" fill="#959595" fill-rule="evenodd" stroke="none"/>
    <path d="M346.5 -72.45 L346.5 -13.95 274.5 -13.95 274.5 -10.95 386.0 -10.95 386.0 59.5 343.5 59.5 343.5 63.0 330.5 63.0 330.5 59.5 258.0 59.5 258.0 -10.95 261.5 -10.95 261.5 -13.95 214.5 -13.95 214.5 -12.45 201.5 -12.45 201.5 -13.95 183.5 -13.95 183.5 -12.45 170.5 -12.45 170.5 -13.95 143.5 -13.95 143.5 -21.45 139.5 -21.45 139.5 12.55 131.5 12.55 131.5 14.05 118.5 14.05 118.5 12.55 102.5 12.55 102.5 14.05 89.5 14.05 89.5 12.55 17.55 12.55 17.55 9.55 15.05 9.55 15.05 24.55 -11.45 24.55 -11.45 27.05 -26.45 27.05 -26.45 24.55 -40.45 24.55 -40.45 27.05 -55.45 27.05 -55.45 24.55 -83.95 24.55 -83.95 45.55 -134.45 45.55 -134.45 39.55 -151.95 39.05 -161.95 36.55 -171.45 32.55 -179.95 27.05 -187.45 20.55 -194.45 12.55 -199.45 4.05 -205.45 -15.45 Q-205.45 -19.95 -205.95 -24.95 -169.95 -55.95 -134.45 -87.45 L15.05 -87.45 15.05 -11.95 17.55 -11.95 17.55 -15.45 85.5 -15.45 85.5 -53.45 89.5 -53.45 89.5 -54.95 102.5 -54.95 102.5 -53.45 139.5 -53.45 139.5 -34.45 143.5 -34.45 143.5 -41.95 170.5 -41.95 170.5 -43.45 183.5 -43.45 183.5 -41.95 201.5 -41.95 201.5 -43.45 214.5 -43.45 214.5 -41.95 261.5 -41.95 261.5 -43.45 274.5 -43.45 274.5 -41.95 276.5 -41.95 276.5 -43.45 297.5 -43.45 297.5 -41.95 307.5 -41.95 307.5 -72.45 346.5 -72.45" fill="#959595" fill-rule="evenodd" stroke="none"/>
    <path d="M311.5 2.05 L295.5 2.05 295.5 -9.95 311.5 -9.95 311.5 2.05" fill="#6f6f6f" fill-rule="evenodd" stroke="none"/>
    <path d="M288.5 -10.45 L288.5 -0.95 278.5 -0.95 278.5 -10.45 288.5 -10.45" fill="#6f6f6f" fill-rule="evenodd" stroke="none"/>
    <path d="M288.0 20.55 L279.5 20.55 279.5 1.05 288.0 1.05 288.0 20.55" fill="#6f6f6f" fill-rule="evenodd" stroke="none"/>
    <path d="M289.5 59.5 L262.0 59.5 262.0 51.0 289.5 51.0 289.5 59.5" fill="#6f6f6f" fill-rule="evenodd" stroke="none"/>
    <path d="M319.5 59.5 L292.5 59.5 292.5 52.0 319.5 52.0 319.5 59.5" fill="#6f6f6f" fill-rule="evenodd" stroke="none"/>
    <path d="M383.5 53.5 L371.5 53.5 371.5 37.55 383.5 37.55 383.5 53.5" fill="#6f6f6f" fill-rule="evenodd" stroke="none"/>
    <path d="M383.5 58.5 L374.0 58.5 374.0 51.5 383.5 51.5 383.5 58.5" fill="#6f6f6f" fill-rule="evenodd" stroke="none"/>
    <path d="M381.0 14.05 L374.5 12.55 375.5 7.55 382.0 9.05 381.0 14.05" fill="#6f6f6f" fill-rule="evenodd" stroke="none"/>
    <path d="M384.0 6.05 L378.5 4.05 380.5 -0.95 386.0 1.55 384.0 6.05" fill="#6f6f6f" fill-rule="evenodd" stroke="none"/>
    <path d="M352.0 -10.95 L352.0 -2.95 326.0 -2.95 326.0 -10.95 352.0 -10.95" fill="#6f6f6f" fill-rule="evenodd" stroke="none"/>
    <path d="M382.0 -10.45 L382.0 -3.45 355.5 -3.45 355.5 -10.45 382.0 -10.45" fill="#6f6f6f" fill-rule="evenodd" stroke="none"/>
    <path d="M342.0 -68.95 L315.5 -68.95 315.5 -72.45 342.0 -72.45 342.0 -68.95" fill="#6f6f6f" fill-rule="evenodd" stroke="none"/>
    <path d="M138.5 -6.45 L138.5 2.05 129.5 2.05 129.5 -6.45 138.5 -6.45" fill="#6f6f6f" fill-rule="evenodd" stroke="none"/>
    <path d="M138.0 -7.95 L131.0 -7.95 131.0 -15.45 138.0 -15.45 138.0 -7.95" fill="#6f6f6f" fill-rule="evenodd" stroke="none"/>
    <path d="M137.5 -44.95 L106.0 -44.95 106.0 -52.95 137.5 -52.95 137.5 -44.95" fill="#6f6f6f" fill-rule="evenodd" stroke="none"/>
    <path d="M137.0 -43.95 L128.5 -43.95 128.5 -51.45 137.0 -51.45 137.0 -43.95" fill="#6f6f6f" fill-rule="evenodd" stroke="none"/>
    <path d="M127.5 -50.45 L137.0 -50.45 137.0 -43.95 127.5 -43.95 127.5 -50.45" fill="#6f6f6f" fill-rule="evenodd" stroke="none"/>
    <path d="M12.05 -43.45 L5.05 -43.45 5.05 -75.45 12.05 -75.45 12.05 -43.45" fill="#6f6f6f" fill-rule="evenodd" stroke="none"/>
    <path d="M-28.95 -62.95 L-76.45 -62.95 -76.45 -76.45 -28.95 -76.45 -28.95 -62.95" fill="#6f6f6f" fill-rule="evenodd" stroke="none"/>
    <path d="M-100.45 -77.45 L-130.95 -77.45 -130.95 -86.45 -100.45 -86.45 -100.45 -77.45" fill="#6f6f6f" fill-rule="evenodd" stroke="none"/>
    <path d="M-133.95 -67.95 L-133.95 -73.95 -127.95 -73.95 -127.95 -67.95 -133.95 -67.95" fill="#6f6f6f" fill-rule="evenodd" stroke="none"/>
    <path d="M-134.45 -57.95 L-134.45 -63.95 -127.45 -63.95 -127.45 -57.95 -134.45 -57.95" fill="#6f6f6f" fill-rule="evenodd" stroke="none"/>
    <path d="M-144.95 34.05 L-151.45 34.05 -151.45 27.55 -144.95 27.55 -144.95 34.05" fill="#6f6f6f" fill-rule="evenodd" stroke="none"/>
    <path d="M-160.95 31.05 L-163.95 24.55 -157.95 21.55 -154.95 28.05 -160.95 31.05" fill="#6f6f6f" fill-rule="evenodd" stroke="none"/>
    <path d="M-166.95 -8.45 Q-166.45 -5.45 -166.45 -2.45 L-172.45 -1.95 Q-172.45 -4.95 -172.95 -7.95 L-166.95 -8.45" fill="#6f6f6f" fill-rule="evenodd" stroke="none"/>
    <path d="M-166.45 21.05 Q-168.45 23.55 -170.95 25.55 L-174.95 21.55 -170.95 17.05 Q-168.45 19.05 -166.45 21.05" fill="#6f6f6f" fill-rule="evenodd" stroke="none"/>
    <path d="M-184.95 11.05 Q-187.45 9.55 -189.95 7.55 L-186.95 2.55 -181.95 6.05 -184.95 11.05" fill="#6f6f6f" fill-rule="evenodd" stroke="none"/>
    <path d="M-176.95 -13.45 L-182.45 -15.45 -180.45 -20.95 -174.95 -18.95 -176.95 -13.45" fill="#6f6f6f" fill-rule="evenodd" stroke="none"/>
    <path d="M-192.95 -6.45 L-198.95 -6.95 Q-198.45 -9.95 -198.45 -12.95 L-192.45 -11.95 Q-192.45 -8.95 -192.95 -6.45" fill="#6f6f6f" fill-rule="evenodd" stroke="none"/>
    <path d="M-179.95 -8.45 L-180.95 -1.95 -187.45 -2.95 -186.45 -9.45 -179.95 -8.45" fill="#6f6f6f" fill-rule="evenodd" stroke="none"/>
    <path d="M-193.45 4.55 L-195.45 4.55 -196.95 3.05 -196.95 1.55 -195.95 -0.45 Q-194.95 -0.45 -194.45 -0.95 L-192.45 0.05 -191.45 1.55 Q-191.45 2.55 -191.95 3.55 L-193.45 4.55" fill="#6f6f6f" fill-rule="evenodd" stroke="none"/>
    <path d="M-165.95 31.05 L-167.95 30.55 Q-168.45 30.05 -169.45 29.55 L-169.45 27.55 -168.45 26.05 Q-167.45 26.05 -166.95 25.55 L-164.95 26.05 -163.95 27.55 Q-163.95 28.55 -164.45 29.55 -164.95 30.55 -165.95 31.05" fill="#6f6f6f" fill-rule="evenodd" stroke="none"/>
    <path d="M-205.95 -24.95 L-204.95 -35.95 -201.95 -45.95 -197.95 -54.95 -191.95 -63.45 Q-188.45 -66.95 -184.95 -70.95 L-176.95 -77.45 -158.45 -85.45 -147.95 -87.45 -134.45 -87.45 -134.45 -48.45 -136.45 -41.45 Q-137.95 -37.95 -139.95 -34.95 -142.45 -31.95 -145.45 -29.45 -148.45 -27.95 -151.95 -26.45 -155.45 -25.45 -159.45 -24.95 L-205.95 -24.95" fill="#6f6f6f" fill-rule="evenodd" stroke="none"/>
    <path d="M-124.95 45.55 L-94.95 45.55 -94.95 47.5 -124.95 47.5 -124.95 45.55" fill="#ffffff" fill-rule="evenodd" stroke="none"/>
    <path d="M348.5 -56.45 L348.5 -26.45 346.5 -26.45 346.5 -56.45 348.5 -56.45" fill="#ffffff" fill-rule="evenodd" stroke="none"/>
    <path d="M343.5 65.5 L330.5 65.5 330.5 61.0 343.5 61.0 343.5 65.5" fill="#ffffff" fill-rule="evenodd" stroke="none"/>
    <path d="M80.5 -79.95 L80.5 -15.45 55.5 -15.45 55.5 -54.95 31.55 -54.95 31.55 -79.95 80.5 -79.95" fill="#ffffff" fill-rule="evenodd" stroke="none"/>
  </g>
</svg>
