<?xml version="1.0" encoding="UTF-8" standalone="no"?>
<svg xmlns:ffdec="https://www.free-decompiler.com/flash" xmlns:xlink="http://www.w3.org/1999/xlink" ffdec:objectType="shape" height="969.8px" width="1200.65px" xmlns="http://www.w3.org/2000/svg">
  <g transform="matrix(1.0, 0.0, 0.0, 1.0, 609.0, 285.3)">
    <path d="M429.9 -101.85 L434.0 -58.5 368.5 -47.5 394.0 77.0 276.0 95.0 165.6 684.5 74.0 658.0 159.45 165.55 142.0 31.0 -64.0 41.0 -75.6 -86.75 -75.6 -224.0 -142.6 -224.0 -237.65 -209.85 -279.85 -200.45 -320.65 -188.8 -362.55 -172.9 -399.9 -155.5 -436.45 -133.05 -470.5 -111.35 -499.95 -87.9 -527.2 -62.8 -550.25 -36.2 -569.5 -11.5 -577.25 -17.35 -578.5 -35.0 -599.1 -32.5 -609.0 -40.0 -587.1 -66.2 -561.35 -95.9 -530.9 -124.0 -498.1 -150.05 -461.5 -173.45 -422.45 -197.4 -380.7 -216.85 -335.6 -233.9 -291.6 -246.5 -246.3 -256.6 -158.05 -269.95 -139.3 -271.5 -121.95 -272.0 200.0 -272.0 200.0 -285.3 591.65 -285.3 591.65 -140.25 431.75 -140.25 429.9 -101.85" fill="#434343" fill-rule="evenodd" stroke="none"/>
    <path d="M71.7 -64.5 L69.5 -70.8 69.0 -78.8 66.35 -80.15 65.75 -80.35 54.4 -77.75 56.75 -70.85 56.65 -60.75 59.2 -51.4 71.95 -53.3 71.85 -53.5 71.7 -64.5 M1.65 -24.35 L1.9 -16.5 3.4 -11.85 17.5 -15.5 33.7 -15.8 33.65 -16.35 34.9 -18.5 33.65 -21.0 34.15 -27.0 34.25 -27.3 32.5 -30.5 17.75 -28.85 5.15 -28.25 1.65 -24.35 M-3.1 -61.25 L-1.75 -64.25 -4.9 -92.85 -26.85 -92.0 -30.55 -87.75 -30.1 -87.85 -28.35 -55.6 -26.6 -53.6 -15.1 -55.25 -14.25 -57.0 -3.1 -61.25 M-21.75 -113.6 L-9.85 -115.6 -0.7 -115.95 -0.75 -116.05 1.1 -117.05 1.2 -117.9 0.35 -119.05 -5.7 -129.2 -17.6 -128.25 -18.1 -124.85 -20.1 -125.6 -38.6 -124.1 -39.75 -123.5 -41.05 -120.55 -38.5 -115.0 -31.85 -114.5 -26.35 -115.5 -21.75 -113.6 M78.2 -110.3 L76.7 -127.8 73.7 -128.65 75.0 -146.5 62.0 -146.15 51.7 -136.65 53.35 -107.0 74.5 -107.8 78.2 -110.3 M65.0 -175.1 L66.5 -177.35 65.15 -189.5 47.4 -190.75 38.15 -188.85 28.25 -188.75 28.5 -179.3 16.7 -181.15 2.2 -178.5 1.6 -178.55 1.5 -168.5 4.55 -160.25 16.5 -159.6 30.1 -161.3 31.4 -163.5 31.4 -175.85 65.0 -175.1 M244.75 -42.75 L248.15 -24.0 249.15 -23.6 254.65 -26.6 255.6 -27.3 255.9 -28.1 256.65 -45.35 255.25 -46.25 245.65 -43.5 244.75 -42.75 M191.25 -60.5 L192.85 -61.0 192.95 -61.05 191.15 -73.5 186.3 -83.8 174.2 -83.0 180.35 -69.4 189.0 -59.85 190.1 -60.15 199.8 -39.15 191.9 -36.0 193.8 -31.6 195.85 -28.3 203.95 -28.3 205.35 -41.25 205.35 -41.3 205.1 -41.3 200.75 -39.5 191.25 -60.5 M172.5 -127.8 L165.2 -126.0 159.0 -125.3 159.2 -115.65 161.85 -107.3 177.6 -111.65 172.5 -127.8 M142.15 -112.7 L137.35 -122.15 133.85 -135.3 130.7 -139.3 129.35 -139.8 125.85 -139.15 121.5 -138.4 121.5 -140.3 120.15 -140.3 120.15 -138.15 115.7 -137.3 114.85 -136.3 116.5 -118.0 120.0 -107.5 120.0 -98.15 121.65 -98.15 121.65 -105.1 123.7 -98.65 124.5 -97.8 137.7 -99.3 143.35 -103.15 143.35 -106.8 142.15 -112.7 M176.1 -198.35 L175.25 -197.5 175.25 -182.75 148.25 -182.75 148.25 -187.05 145.2 -190.0 109.0 -194.95 109.0 -199.35 108.1 -199.1 108.1 -195.1 107.45 -195.2 107.6 -170.05 117.85 -156.75 120.15 -156.95 120.15 -154.25 121.5 -154.25 121.5 -157.15 132.75 -158.25 146.75 -157.75 148.5 -159.75 148.5 -180.6 175.25 -180.6 175.25 -171.6 179.0 -168.85 187.2 -168.85 188.4 -169.95 188.4 -196.15 187.75 -197.1 176.4 -198.35 176.1 -198.35 M306.35 -34.55 L300.2 -33.8 288.7 -35.0 281.4 -23.6 263.05 -0.55 262.85 10.35 260.7 10.5 260.0 16.0 260.5 25.0 263.75 35.45 243.1 35.45 243.1 28.75 242.5 28.75 242.5 37.45 228.85 37.45 228.85 38.5 263.25 38.5 263.45 44.45 283.0 42.9 291.45 41.5 308.7 40.25 308.9 40.25 309.7 -8.3 310.7 -17.0 313.0 -28.85 312.35 -30.9 306.35 -34.55 M340.95 -163.4 L340.9 -178.5 335.75 -180.6 331.75 -195.6 317.15 -195.6 305.75 -193.85 297.7 -194.15 297.75 -199.25 296.0 -201.1 294.5 -203.35 294.45 -203.7 288.0 -204.0 281.2 -203.65 276.2 -202.15 268.7 -201.8 267.2 -201.3 266.5 -200.3 266.5 -197.3 267.5 -194.3 259.5 -194.0 259.35 -189.15 210.2 -193.15 209.0 -192.45 209.0 -161.5 210.4 -160.25 236.75 -165.0 251.0 -129.25 220.75 -115.75 207.6 -89.6 210.9 -80.25 214.1 -68.75 220.5 -69.65 226.75 -72.4 223.5 -82.5 253.0 -94.15 256.25 -88.1 272.9 -88.75 274.75 -88.1 Q276.7 -87.2 277.2 -86.1 L293.1 -52.4 302.75 -49.25 315.15 -51.3 316.9 -52.25 320.0 -71.0 327.0 -104.5 340.95 -163.4 M369.95 -235.0 L366.95 -232.05 366.9 -196.35 365.15 -196.85 359.55 -168.1 360.95 -167.05 350.25 -120.5 350.75 -119.3 374.5 -111.1 384.4 -110.25 385.5 -109.0 394.9 -107.1 396.0 -108.0 397.0 -135.75 402.85 -178.3 403.5 -190.0 401.05 -202.8 401.05 -208.5 404.25 -208.5 404.25 -212.25 401.05 -212.25 401.05 -232.5 393.7 -237.8 393.7 -240.4 390.25 -240.5 390.25 -237.4 369.95 -235.0 M355.15 -264.0 L368.4 -264.0 374.75 -263.35 376.0 -262.5 377.15 -262.5 377.2 -262.55 377.35 -264.15 377.9 -264.6 377.9 -272.25 384.0 -272.25 384.25 -268.8 401.45 -267.85 403.25 -267.9 408.0 -268.8 412.35 -268.75 413.75 -269.25 414.65 -272.25 452.25 -272.25 457.75 -266.5 465.5 -264.0 467.25 -262.0 469.0 -259.25 473.25 -257.0 476.0 -256.75 484.75 -262.0 494.5 -262.05 498.75 -260.5 543.0 -260.5 547.5 -264.5 556.5 -261.25 559.6 -261.25 565.65 -249.65 567.3 -247.3 568.15 -235.0 565.8 -230.65 564.8 -225.15 570.15 -212.3 576.5 -201.15 580.15 -181.8 580.15 -172.0 576.6 -168.2 572.0 -161.5 569.25 -149.85 567.5 -148.0 551.25 -152.5 546.85 -152.5 530.0 -157.6 513.0 -152.0 506.85 -151.25 497.4 -147.0 496.25 -148.0 495.65 -156.35 476.65 -171.35 438.0 -172.6 438.5 -173.35 435.9 -174.25 431.75 -175.0 423.0 -174.5 421.9 -173.85 420.5 -168.75 420.4 -162.1 419.15 -156.6 419.35 -155.0 420.35 -154.5 420.25 -148.5 418.5 -136.25 417.15 -121.0 420.15 -70.85 415.0 -72.75 399.0 -69.75 397.0 -88.0 395.5 -89.75 383.5 -91.5 381.4 -93.1 370.25 -94.1 346.25 -102.75 344.4 -101.35 329.6 -26.4 327.5 -5.3 327.85 38.5 328.2 38.45 335.8 40.3 342.0 38.5 344.35 36.25 343.6 24.7 353.05 22.3 361.25 22.1 369.0 20.95 369.55 30.15 370.65 35.4 378.5 57.95 364.35 60.95 364.95 64.5 329.35 70.85 327.85 67.5 318.7 68.2 290.25 72.4 290.4 74.25 271.9 78.4 248.5 79.2 246.5 81.0 245.7 92.5 244.7 120.45 236.85 119.35 207.25 304.5 217.85 305.5 210.0 348.25 200.2 348.25 170.6 501.0 182.75 503.25 168.25 574.25 155.75 572.75 140.15 658.5 91.25 649.05 151.55 337.7 145.95 337.4 177.65 173.55 187.2 121.2 190.5 110.5 199.25 90.25 199.75 86.0 198.15 85.25 171.9 88.0 172.0 77.65 169.5 53.95 213.75 56.25 214.85 54.75 212.2 44.95 213.0 38.5 221.6 38.5 221.6 37.45 213.0 37.45 213.0 17.6 242.5 17.6 242.5 20.25 243.1 20.25 243.1 17.2 243.9 17.2 243.65 17.0 249.7 16.85 249.5 11.5 245.75 9.7 238.5 8.25 228.5 8.25 226.0 8.5 210.5 8.75 207.25 0.15 189.8 -13.9 187.65 -14.5 181.5 -29.25 180.95 -28.9 187.0 -14.35 185.1 -13.95 174.15 -37.35 163.65 -33.4 164.15 -32.2 173.4 -35.95 183.75 -13.6 159.15 -5.6 154.0 -18.6 150.4 -17.35 147.55 -25.45 158.0 -29.7 157.55 -30.9 146.95 -26.65 139.5 -49.6 140.75 -50.2 137.25 -58.75 165.6 -71.0 168.8 -64.2 171.4 -65.4 168.0 -73.05 167.15 -74.5 154.25 -68.85 150.15 -66.6 136.75 -60.5 131.15 -75.5 125.9 -78.25 121.65 -77.4 121.65 -79.55 120.0 -79.55 120.0 -77.0 102.15 -73.25 100.9 -71.6 92.1 -36.75 92.75 -35.0 92.75 -34.7 107.7 -32.0 111.2 11.35 98.7 11.7 90.25 12.75 90.0 11.7 69.25 15.0 67.45 5.45 41.5 4.5 25.65 8.75 26.65 19.0 -32.85 25.4 -36.6 2.65 -24.45 -0.8 -26.5 -13.25 -57.85 -11.5 -58.75 -17.85 -58.0 -18.1 -59.75 -30.5 -60.6 -30.25 -62.1 -39.85 -59.85 -40.35 -58.85 -42.6 -59.1 -45.75 -51.75 -45.25 -50.25 -47.25 -49.85 -55.35 -46.5 -56.2 -52.75 -96.75 -65.6 -96.75 -65.6 -160.25 -53.1 -160.25 -51.8 -161.75 -53.3 -187.65 -65.8 -187.15 -65.8 -207.65 -46.5 -225.5 53.65 -225.75 65.25 -218.85 108.1 -218.75 108.1 -214.25 109.0 -214.25 109.0 -218.75 128.15 -218.75 128.15 -219.5 177.1 -219.5 192.0 -221.25 199.7 -221.25 204.1 -220.1 207.15 -222.35 206.15 -230.85 214.6 -230.85 214.6 -241.75 214.0 -241.75 214.0 -255.5 214.6 -255.5 214.6 -256.1 214.5 -256.05 214.6 -264.25 213.6 -265.8 218.85 -267.15 222.85 -266.55 227.9 -268.85 229.2 -272.9 247.95 -272.9 248.7 -270.25 251.05 -269.0 263.0 -269.0 263.0 -268.4 267.85 -268.5 271.5 -269.1 277.25 -269.05 277.95 -269.4 279.0 -273.0 297.5 -272.85 298.0 -271.5 329.0 -271.5 330.15 -271.85 330.0 -268.1 336.0 -268.1 336.0 -272.85 331.0 -272.85 331.75 -274.0 331.65 -276.25 354.75 -276.35 354.75 -264.5 355.15 -264.0" fill="#969696" fill-rule="evenodd" stroke="none"/>
    <path d="M207.9 -262.0 L211.25 -262.0 211.25 -234.0 207.9 -234.0 207.9 -262.0" fill="#969696" fill-rule="evenodd" stroke="none"/>
    <path d="M-332.45 -224.4 L-289.1 -236.8 -244.45 -246.75 -199.55 -253.3 -144.55 -261.95 -131.75 -262.2 -131.75 -262.0 206.5 -262.0 206.5 -234.0 -143.35 -234.0 -239.5 -219.7 -282.35 -210.15 -323.8 -198.3 -366.45 -182.15 -404.65 -164.3 -441.75 -141.55 -476.3 -119.5 -506.5 -95.5 -534.4 -69.75 -558.0 -42.5 -577.25 -17.35 -599.1 -32.5 -579.35 -59.9 -554.2 -88.95 -524.4 -116.4 -492.3 -141.9 -456.25 -164.9 -417.7 -188.55 -377.15 -207.5 -332.45 -224.4" fill="#969696" fill-rule="evenodd" stroke="none"/>
    <path d="M160.9 -215.35 L157.15 -215.35 157.15 -219.0 160.9 -219.0 160.9 -215.35" fill="#707070" fill-rule="evenodd" stroke="none"/>
    <path d="M164.9 -215.55 L161.15 -215.55 161.15 -219.15 164.9 -219.15 164.9 -215.55" fill="#707070" fill-rule="evenodd" stroke="none"/>
    <path d="M168.95 -215.75 L165.2 -215.75 165.2 -219.35 168.95 -219.35 168.95 -215.75" fill="#707070" fill-rule="evenodd" stroke="none"/>
    <path d="M172.95 -215.5 L169.2 -215.5 169.2 -219.1 172.95 -219.1 172.95 -215.5" fill="#707070" fill-rule="evenodd" stroke="none"/>
    <path d="M173.2 -219.3 L176.95 -219.3 176.95 -215.65 173.2 -215.65 173.2 -219.3" fill="#707070" fill-rule="evenodd" stroke="none"/>
    <path d="M188.85 -169.95 L188.85 -180.75 190.5 -180.75 190.5 -169.95 188.85 -169.95" fill="#707070" fill-rule="evenodd" stroke="none"/>
    <path d="M172.45 -174.8 L152.5 -174.8 152.5 -179.3 172.45 -179.3 172.45 -174.8" fill="#707070" fill-rule="evenodd" stroke="none"/>
    <path d="M157.55 -184.1 L151.25 -184.1 151.25 -190.4 157.55 -190.4 157.55 -184.1" fill="#707070" fill-rule="evenodd" stroke="none"/>
    <path d="M164.8 -184.1 L158.55 -184.1 158.55 -190.4 164.8 -190.4 164.8 -184.1" fill="#707070" fill-rule="evenodd" stroke="none"/>
    <path d="M172.05 -184.1 L165.8 -184.1 165.8 -190.4 172.05 -190.4 172.05 -184.1" fill="#707070" fill-rule="evenodd" stroke="none"/>
    <path d="M149.25 -160.75 L149.25 -172.0 151.15 -172.0 151.15 -160.75 149.25 -160.75" fill="#707070" fill-rule="evenodd" stroke="none"/>
    <path d="M180.2 -168.85 L185.25 -168.85 185.25 -153.9 180.2 -153.9 180.2 -168.85" fill="#707070" fill-rule="evenodd" stroke="none"/>
    <path d="M160.2 -161.6 L165.25 -161.6 165.25 -146.65 160.2 -146.65 160.2 -161.6" fill="#707070" fill-rule="evenodd" stroke="none"/>
    <path d="M244.7 -139.15 L239.75 -137.4 234.8 -151.45 239.75 -153.2 244.7 -139.15" fill="#707070" fill-rule="evenodd" stroke="none"/>
    <path d="M248.9 -129.35 L244.95 -128.0 242.6 -134.65 246.6 -136.05 248.9 -129.35" fill="#707070" fill-rule="evenodd" stroke="none"/>
    <path d="M229.85 -160.0 L226.8 -159.85 226.7 -162.85 229.75 -163.0 229.85 -160.0" fill="#707070" fill-rule="evenodd" stroke="none"/>
    <path d="M233.15 -161.0 L230.1 -160.6 229.7 -163.6 232.75 -164.0 233.15 -161.0" fill="#707070" fill-rule="evenodd" stroke="none"/>
    <path d="M236.85 -162.2 L234.1 -160.9 232.8 -163.65 235.55 -164.95 236.85 -162.2" fill="#707070" fill-rule="evenodd" stroke="none"/>
    <path d="M236.05 -137.95 L232.4 -136.65 231.1 -140.45 234.7 -141.7 236.05 -137.95" fill="#707070" fill-rule="evenodd" stroke="none"/>
    <path d="M222.9 -144.05 L219.3 -142.8 217.95 -146.55 221.6 -147.85 222.9 -144.05" fill="#707070" fill-rule="evenodd" stroke="none"/>
    <path d="M225.8 -152.15 L223.35 -152.05 223.15 -157.15 225.55 -157.25 225.8 -152.15" fill="#707070" fill-rule="evenodd" stroke="none"/>
    <path d="M205.25 -131.35 L196.25 -126.65 194.25 -130.45 203.2 -135.15 205.25 -131.35" fill="#707070" fill-rule="evenodd" stroke="none"/>
    <path d="M203.15 -135.5 L194.15 -130.75 192.15 -134.55 201.15 -139.3 203.15 -135.5" fill="#707070" fill-rule="evenodd" stroke="none"/>
    <path d="M237.15 -124.15 L220.65 -116.85 219.45 -119.6 235.95 -126.9 237.15 -124.15" fill="#707070" fill-rule="evenodd" stroke="none"/>
    <path d="M159.45 -126.1 L159.15 -127.7 170.8 -129.95 171.1 -128.35 159.45 -126.1" fill="#707070" fill-rule="evenodd" stroke="none"/>
    <path d="M209.3 -94.75 L205.6 -96.65 214.75 -114.3 218.5 -112.4 209.3 -94.75" fill="#707070" fill-rule="evenodd" stroke="none"/>
    <path d="M177.25 -84.25 L177.25 -92.25 181.9 -92.25 181.9 -84.25 177.25 -84.25" fill="#707070" fill-rule="evenodd" stroke="none"/>
    <path d="M179.1 -111.4 L177.65 -116.65 180.95 -117.55 182.4 -112.35 179.1 -111.4" fill="#707070" fill-rule="evenodd" stroke="none"/>
    <path d="M182.95 -119.4 L177.6 -118.7 177.1 -122.05 182.45 -122.8 182.95 -119.4" fill="#707070" fill-rule="evenodd" stroke="none"/>
    <path d="M172.5 -106.8 L168.1 -105.35 167.15 -108.3 171.5 -109.75 172.5 -106.8" fill="#707070" fill-rule="evenodd" stroke="none"/>
    <path d="M147.9 -71.25 L149.65 -67.55 140.8 -63.3 139.0 -67.0 147.9 -71.25" fill="#707070" fill-rule="evenodd" stroke="none"/>
    <path d="M157.85 -75.85 L159.5 -72.1 150.55 -68.1 148.85 -71.85 157.85 -75.85" fill="#707070" fill-rule="evenodd" stroke="none"/>
    <path d="M161.15 -78.4 L163.95 -76.45 161.85 -73.5 159.05 -75.45 161.15 -78.4" fill="#707070" fill-rule="evenodd" stroke="none"/>
    <path d="M236.8 -36.15 L238.25 -25.3 225.85 -23.6 224.35 -34.45 236.8 -36.15" fill="#707070" fill-rule="evenodd" stroke="none"/>
    <path d="M140.35 -151.75 L140.35 -156.55 143.25 -156.55 143.25 -151.75 140.35 -151.75" fill="#707070" fill-rule="evenodd" stroke="none"/>
    <path d="M137.25 -124.95 L134.6 -134.2 138.2 -135.25 140.85 -126.0 137.25 -124.95" fill="#707070" fill-rule="evenodd" stroke="none"/>
    <path d="M134.95 -156.65 L134.95 -151.8 132.0 -151.8 132.0 -156.65 134.95 -156.65" fill="#707070" fill-rule="evenodd" stroke="none"/>
    <path d="M148.9 -41.3 L147.3 -46.15 151.9 -47.65 153.5 -42.8 148.9 -41.3" fill="#707070" fill-rule="evenodd" stroke="none"/>
    <path d="M182.55 -60.45 L185.7 -63.45 188.7 -60.3 185.5 -57.3 182.55 -60.45" fill="#707070" fill-rule="evenodd" stroke="none"/>
    <path d="M146.4 -33.3 L145.15 -37.55 147.25 -38.15 148.45 -33.85 146.4 -33.3" fill="#707070" fill-rule="evenodd" stroke="none"/>
    <path d="M156.75 -11.95 L168.25 -16.1 170.6 -9.75 159.05 -5.55 156.75 -11.95" fill="#707070" fill-rule="evenodd" stroke="none"/>
    <path d="M173.75 -10.75 L172.55 -13.95 175.65 -15.1 176.85 -11.85 173.75 -10.75" fill="#707070" fill-rule="evenodd" stroke="none"/>
    <path d="M177.5 -31.1 L176.2 -34.7 179.7 -36.0 181.0 -32.35 177.5 -31.1" fill="#707070" fill-rule="evenodd" stroke="none"/>
    <path d="M169.7 -33.65 L173.65 -35.4 178.5 -25.0 174.7 -23.1 169.7 -33.65" fill="#707070" fill-rule="evenodd" stroke="none"/>
    <path d="M180.7 -14.15 L177.1 -21.75 179.45 -22.9 183.05 -15.25 180.7 -14.15" fill="#707070" fill-rule="evenodd" stroke="none"/>
    <path d="M147.45 -28.85 L146.4 -32.3 149.65 -33.25 150.7 -29.85 147.45 -28.85" fill="#707070" fill-rule="evenodd" stroke="none"/>
    <path d="M250.7 -68.9 L247.65 -76.2 252.1 -78.05 255.15 -70.8 250.7 -68.9" fill="#707070" fill-rule="evenodd" stroke="none"/>
    <path d="M248.65 -47.3 L247.1 -52.35 250.45 -53.35 251.95 -48.3 248.65 -47.3" fill="#707070" fill-rule="evenodd" stroke="none"/>
    <path d="M244.75 -26.4 L242.5 -38.1 244.8 -38.55 247.1 -26.85 244.75 -26.4" fill="#707070" fill-rule="evenodd" stroke="none"/>
    <path d="M257.35 -30.0 L257.9 -42.4 263.7 -42.15 263.15 -29.7 257.35 -30.0" fill="#707070" fill-rule="evenodd" stroke="none"/>
    <path d="M253.75 -20.15 L253.7 -24.4 257.45 -24.5 257.55 -20.25 253.75 -20.15" fill="#707070" fill-rule="evenodd" stroke="none"/>
    <path d="M241.95 -44.05 L241.85 -48.3 245.6 -48.4 245.7 -44.15 241.95 -44.05" fill="#707070" fill-rule="evenodd" stroke="none"/>
    <path d="M273.35 -25.95 L273.65 -29.3 276.9 -29.0 276.6 -25.7 273.35 -25.95" fill="#707070" fill-rule="evenodd" stroke="none"/>
    <path d="M275.45 -24.6 L278.3 -22.2 265.6 -7.1 262.8 -9.5 275.45 -24.6" fill="#707070" fill-rule="evenodd" stroke="none"/>
    <path d="M281.1 -29.85 L283.55 -33.55 286.2 -31.8 283.8 -28.1 281.1 -29.85" fill="#707070" fill-rule="evenodd" stroke="none"/>
    <path d="M226.9 -77.1 L225.0 -81.85 252.8 -92.75 254.7 -88.0 226.9 -77.1" fill="#707070" fill-rule="evenodd" stroke="none"/>
    <path d="M259.65 -85.6 L259.55 -87.85 270.85 -88.25 270.95 -86.05 259.65 -85.6" fill="#707070" fill-rule="evenodd" stroke="none"/>
    <path d="M168.1 -35.6 L167.4 -37.2 169.5 -38.15 170.2 -36.55 168.1 -35.6" fill="#707070" fill-rule="evenodd" stroke="none"/>
    <path d="M139.45 -59.8 L154.4 -65.85 156.5 -60.65 141.5 -54.6 139.45 -59.8" fill="#707070" fill-rule="evenodd" stroke="none"/>
    <path d="M156.25 -62.55 L154.75 -66.25 165.65 -70.65 167.15 -66.95 156.25 -62.55" fill="#707070" fill-rule="evenodd" stroke="none"/>
    <path d="M270.95 -65.0 L280.6 -69.7 287.1 -56.3 277.4 -51.6 270.95 -65.0" fill="#707070" fill-rule="evenodd" stroke="none"/>
    <path d="M275.4 -73.4 L271.2 -82.1 274.05 -83.5 278.25 -74.8 275.4 -73.4" fill="#707070" fill-rule="evenodd" stroke="none"/>
    <path d="M252.25 20.35 L242.6 20.35 242.6 17.0 243.1 17.0 243.1 19.85 252.25 19.85 252.25 20.35" fill="#707070" fill-rule="evenodd" stroke="none"/>
    <path d="M242.95 37.1 L242.45 37.1 242.45 28.75 252.15 28.75 252.15 29.25 242.95 29.25 242.95 37.1" fill="#707070" fill-rule="evenodd" stroke="none"/>
    <path d="M225.85 3.75 L225.35 0.05 240.4 -1.85 240.85 1.85 225.85 3.75" fill="#707070" fill-rule="evenodd" stroke="none"/>
    <path d="M223.35 8.35 L213.4 8.35 213.4 5.0 223.35 5.0 223.35 8.35" fill="#707070" fill-rule="evenodd" stroke="none"/>
    <path d="M198.9 -15.05 L208.85 -7.35 205.6 -3.2 195.7 -10.9 198.9 -15.05" fill="#707070" fill-rule="evenodd" stroke="none"/>
    <path d="M213.0 28.0 L213.0 19.95 214.5 19.95 214.5 28.0 213.0 28.0" fill="#707070" fill-rule="evenodd" stroke="none"/>
    <path d="M216.4 23.5 L215.65 20.35 220.4 19.25 221.15 22.35 216.4 23.5" fill="#707070" fill-rule="evenodd" stroke="none"/>
    <path d="M226.65 21.45 L218.65 21.45 218.65 18.1 226.65 18.1 226.65 21.45" fill="#707070" fill-rule="evenodd" stroke="none"/>
    <path d="M227.5 108.3 L215.4 107.0 215.95 101.9 228.05 103.25 227.5 108.3" fill="#707070" fill-rule="evenodd" stroke="none"/>
    <path d="M185.8 129.3 L186.8 124.15 190.5 124.75 191.35 119.85 192.25 120.0 191.45 124.95 198.4 126.1 199.25 121.3 200.2 121.45 199.35 126.3 206.4 127.45 207.25 122.55 208.2 122.7 207.35 127.65 214.4 128.8 215.25 123.95 216.2 124.1 215.35 129.0 222.25 130.15 223.1 125.3 224.0 125.45 223.2 130.3 230.3 131.5 231.1 126.8 232.0 126.95 231.25 131.65 234.85 132.3 234.0 137.3 185.8 129.3" fill="#707070" fill-rule="evenodd" stroke="none"/>
    <path d="M198.35 105.8 L199.75 93.45 204.95 94.05 203.55 106.35 198.35 105.8" fill="#707070" fill-rule="evenodd" stroke="none"/>
    <path d="M245.35 94.7 L240.95 94.7 240.95 90.25 245.35 90.25 245.35 94.7" fill="#707070" fill-rule="evenodd" stroke="none"/>
    <path d="M244.7 100.25 L240.35 100.25 240.35 95.8 244.7 95.8 244.7 100.25" fill="#707070" fill-rule="evenodd" stroke="none"/>
    <path d="M301.2 -209.5 L322.85 -209.5 322.85 -201.5 301.2 -201.5 301.2 -209.5" fill="#707070" fill-rule="evenodd" stroke="none"/>
    <path d="M506.05 -246.6 L506.2 -250.6 525.75 -249.85 525.6 -245.85 506.05 -246.6" fill="#707070" fill-rule="evenodd" stroke="none"/>
    <path d="M528.7 -246.65 L528.4 -251.85 536.9 -252.3 537.15 -247.1 528.7 -246.65" fill="#707070" fill-rule="evenodd" stroke="none"/>
    <path d="M538.1 -231.15 L538.1 -241.3 542.3 -241.3 542.3 -231.15 538.1 -231.15" fill="#707070" fill-rule="evenodd" stroke="none"/>
    <path d="M537.5 -223.8 L538.1 -228.65 540.9 -228.3 540.3 -223.45 537.5 -223.8" fill="#707070" fill-rule="evenodd" stroke="none"/>
    <path d="M501.85 -236.25 L504.85 -238.2 506.8 -235.2 503.8 -233.25 501.85 -236.25" fill="#707070" fill-rule="evenodd" stroke="none"/>
    <path d="M539.25 -222.5 L543.05 -216.5 539.7 -214.4 535.9 -220.35 539.25 -222.5" fill="#707070" fill-rule="evenodd" stroke="none"/>
    <path d="M487.3 -242.8 L486.2 -246.25 503.25 -251.65 504.35 -248.2 487.3 -242.8" fill="#707070" fill-rule="evenodd" stroke="none"/>
    <path d="M329.0 -267.0 L329.0 -259.0 289.85 -259.0 289.85 -267.0 329.0 -267.0" fill="#707070" fill-rule="evenodd" stroke="none"/>
    <path d="M279.7 -260.8 L279.7 -267.3 285.5 -267.3 285.5 -260.8 279.7 -260.8" fill="#707070" fill-rule="evenodd" stroke="none"/>
    <path d="M262.2 -267.0 L262.2 -263.75 251.5 -263.75 251.5 -267.0 262.2 -267.0" fill="#707070" fill-rule="evenodd" stroke="none"/>
    <path d="M230.95 -266.3 L230.8 -271.85 239.15 -272.05 239.25 -266.45 230.95 -266.3" fill="#707070" fill-rule="evenodd" stroke="none"/>
    <path d="M337.0 -267.65 L337.0 -274.8 353.35 -274.8 353.35 -267.65 337.0 -267.65" fill="#707070" fill-rule="evenodd" stroke="none"/>
    <path d="M417.6 -267.9 L417.6 -270.8 433.95 -270.8 433.95 -267.9 417.6 -267.9" fill="#707070" fill-rule="evenodd" stroke="none"/>
    <path d="M274.85 -267.0 L273.85 -259.5 264.85 -260.8 265.85 -268.3 274.85 -267.0" fill="#707070" fill-rule="evenodd" stroke="none"/>
    <path d="M38.45 -90.4 L38.45 -92.55 41.0 -92.55 41.0 -90.4 38.45 -90.4" fill="#434343" fill-rule="evenodd" stroke="none"/>
    <path d="M245.95 51.65 L242.6 51.5 242.75 47.55 246.1 47.7 245.95 51.65" fill="#434343" fill-rule="evenodd" stroke="none"/>
    <path d="M234.65 85.95 L237.8 87.0 236.55 90.75 233.4 89.7 234.65 85.95" fill="#434343" fill-rule="evenodd" stroke="none"/>
    <path d="M212.2 314.4 L208.95 313.7 209.8 309.85 213.05 310.55 212.2 314.4" fill="#434343" fill-rule="evenodd" stroke="none"/>
    <path d="M183.5 431.1 L180.25 430.35 181.1 426.5 184.35 427.2 183.5 431.1" fill="#434343" fill-rule="evenodd" stroke="none"/>
    <path d="M-23.5 -198.9 L-23.5 -201.45 -21.1 -201.45 -21.1 -198.9 -23.5 -198.9" fill="#434343" fill-rule="evenodd" stroke="none"/>
    <path d="M78.15 -147.85 L78.15 -150.3 80.85 -150.3 80.85 -147.85 78.15 -147.85" fill="#434343" fill-rule="evenodd" stroke="none"/>
    <path d="M74.35 -213.4 L74.35 -215.85 77.05 -215.85 77.05 -213.4 74.35 -213.4" fill="#434343" fill-rule="evenodd" stroke="none"/>
    <path d="M14.25 -84.55 L14.25 -82.4 11.7 -82.4 11.7 -84.55 14.25 -84.55" fill="#434343" fill-rule="evenodd" stroke="none"/>
    <path d="M20.2 -50.4 L19.85 -52.55 22.4 -52.9 22.75 -50.8 20.2 -50.4" fill="#434343" fill-rule="evenodd" stroke="none"/>
    <path d="M-10.6 12.95 L-10.9 10.8 -8.35 10.45 -8.05 12.55 -10.6 12.95" fill="#434343" fill-rule="evenodd" stroke="none"/>
    <path d="M451.5 -262.75 L443.0 -262.75 443.0 -269.25 451.5 -269.25 451.5 -262.75" fill="#434343" fill-rule="evenodd" stroke="none"/>
    <path d="M259.95 -68.8 L259.95 -72.75 263.65 -72.75 263.65 -68.8 259.95 -68.8" fill="#434343" fill-rule="evenodd" stroke="none"/>
    <path d="M216.2 1.05 L216.2 -2.3 219.2 -2.3 219.2 1.05 216.2 1.05" fill="#434343" fill-rule="evenodd" stroke="none"/>
    <path d="M259.85 -3.6 L259.85 -7.0 262.85 -7.0 262.85 -3.6 259.85 -3.6" fill="#434343" fill-rule="evenodd" stroke="none"/>
    <path d="M330.0 -209.75 L330.0 -214.6 335.75 -214.6 335.75 -209.75 330.0 -209.75" fill="#434343" fill-rule="evenodd" stroke="none"/>
  </g>
</svg>
