<?xml version="1.0" encoding="UTF-8" standalone="no"?>
<svg xmlns:ffdec="https://www.free-decompiler.com/flash" xmlns:xlink="http://www.w3.org/1999/xlink" ffdec:objectType="shape" height="1450.5px" width="1068.5px" xmlns="http://www.w3.org/2000/svg">
  <g transform="matrix(1.0, 0.0, 0.0, 1.0, 472.0, 644.0)">
    <path d="M-472.0 -121.5 L-159.5 -121.5 -159.5 -644.0 596.5 -644.0 596.5 806.5 -472.0 806.5 -472.0 -121.5" fill="#434343" fill-rule="evenodd" stroke="none"/>
    <path d="M77.35 70.5 L77.35 65.0 80.1 65.0 80.1 59.5 -57.1 59.5 -57.1 56.5 -52.0 56.5 -52.0 54.0 -56.85 54.0 -56.85 26.0 -63.85 26.0 -63.85 36.5 -133.25 36.5 -133.25 58.8 -165.75 58.8 -165.75 61.5 -204.45 61.5 -204.45 58.8 -236.95 58.8 -236.95 36.5 -295.75 36.5 -295.75 147.45 -273.75 147.45 -273.75 180.2 -266.85 180.2 -266.85 154.5 -172.5 154.5 -172.5 143.8 -63.5 143.8 -63.5 191.8 -8.5 191.8 -8.5 235.8 -3.0 235.8 -3.0 189.8 80.55 189.8 80.55 183.5 77.3 183.5 77.3 180.5 -49.75 180.5 -49.75 70.5 77.35 70.5 M331.15 268.5 L323.15 268.5 323.15 318.0 175.65 318.0 175.65 256.0 168.0 256.0 168.0 298.25 72.5 298.25 72.5 314.5 32.5 314.5 32.5 298.25 -3.0 298.25 -3.0 277.8 -8.5 277.8 -8.5 317.8 -172.5 317.8 -172.5 272.8 -266.85 272.8 -266.85 218.45 -273.75 218.45 -273.75 251.2 -295.75 251.2 -295.75 458.85 -273.75 458.85 -273.75 491.6 -270.75 491.6 -270.75 529.85 -273.75 529.85 -273.75 562.6 -295.75 562.6 -295.75 621.55 -16.85 621.55 -16.85 598.8 15.4 598.8 15.4 596.15 53.8 596.15 53.8 598.8 86.8 598.8 86.8 621.55 352.25 621.55 352.25 550.75 331.0 550.75 331.0 518.25 327.75 518.25 327.75 479.75 331.0 479.75 331.0 447.25 353.15 447.25 353.15 289.8 331.15 289.8 331.15 268.5 M330.8 34.8 L322.0 34.8 322.0 54.05 315.5 54.05 315.5 56.55 320.65 56.55 320.65 59.5 306.75 59.5 306.75 62.55 300.65 62.55 300.65 69.55 269.9 69.55 269.9 62.55 264.25 62.55 264.25 59.5 250.5 59.5 250.5 56.55 255.5 56.55 255.5 54.05 250.8 54.05 250.8 51.05 244.0 51.05 244.0 54.3 239.5 54.3 239.5 56.3 244.65 56.3 244.65 59.25 230.75 59.25 230.75 62.55 224.4 62.55 224.4 69.55 193.65 69.55 193.65 62.55 188.25 62.55 188.25 59.25 174.5 59.25 174.5 56.3 179.5 56.3 179.5 54.3 172.8 54.3 172.8 34.8 161.5 34.8 161.5 56.5 159.65 56.5 159.65 54.0 154.5 54.0 154.5 56.5 158.75 56.5 158.75 59.5 108.0 59.5 108.0 65.0 110.5 65.0 110.5 70.5 116.25 70.5 116.25 180.5 110.65 180.5 110.65 183.5 107.75 183.5 107.75 189.8 168.0 189.8 168.0 217.0 175.65 217.0 175.65 186.5 323.15 186.5 323.15 210.0 331.15 210.0 331.15 188.15 353.0 188.15 353.0 82.15 330.8 82.15 330.8 34.8 M353.5 -447.25 L353.0 -447.25 353.0 -448.5 230.5 -448.5 230.5 -426.25 198.0 -426.25 198.0 -422.75 159.5 -422.75 159.5 -426.25 127.25 -426.25 127.25 -448.5 16.8 -448.5 16.8 -325.75 38.3 -325.75 38.3 -292.6 41.45 -292.6 41.45 -254.25 38.3 -254.25 38.3 -221.8 16.8 -221.8 16.8 -72.75 6.5 -72.75 6.5 -66.2 51.25 -66.2 51.25 -63.9 46.35 -63.9 46.35 -61.2 53.75 -61.2 53.75 -85.75 84.75 -85.75 84.75 -88.45 124.3 -88.45 124.3 -85.75 154.75 -85.75 154.75 -63.5 159.65 -63.5 159.65 -65.7 161.5 -65.7 161.5 -44.2 172.7 -44.2 172.7 -63.25 179.05 -63.25 179.05 -65.5 174.25 -65.5 174.25 -68.65 188.1 -68.65 188.1 -71.4 193.5 -71.4 193.5 -75.0 224.25 -75.0 224.25 -71.4 230.1 -71.4 230.1 -68.65 244.0 -68.65 244.0 -65.5 239.2 -65.5 239.2 -63.25 243.85 -63.25 243.85 -60.5 250.5 -60.5 250.5 -63.25 255.9 -63.25 255.9 -65.5 251.1 -65.5 251.1 -68.65 264.95 -68.65 264.95 -71.4 270.0 -71.4 270.0 -75.0 301.75 -75.0 301.75 -71.4 306.95 -71.4 306.95 -68.65 320.85 -68.65 320.85 -65.5 316.0 -65.5 316.0 -63.25 322.2 -63.25 322.2 -44.2 330.8 -44.2 330.8 -91.85 353.5 -91.85 353.5 -180.65 331.3 -180.65 331.3 -213.8 328.15 -213.8 328.15 -252.15 331.3 -252.15 331.3 -284.55 353.5 -284.55 353.5 -447.25 M404.5 -561.75 L404.5 -558.5 416.25 -558.5 416.25 -447.25 412.8 -447.25 412.8 -401.2 432.35 -401.2 432.35 -382.8 435.35 -382.8 435.35 -355.45 432.35 -355.45 432.35 -337.05 412.8 -337.05 412.8 -297.55 432.7 -297.55 432.7 -279.15 435.7 -279.15 435.7 -251.8 432.7 -251.8 432.7 -233.4 412.8 -233.4 412.8 -193.8 432.95 -193.8 432.95 -175.4 435.95 -175.4 435.95 -148.05 432.95 -148.05 432.95 -129.65 412.8 -129.65 412.8 -110.35 415.5 -110.35 415.5 -71.5 411.8 -71.5 411.8 141.15 415.8 141.15 415.8 169.0 411.8 169.0 411.8 227.5 431.8 227.5 431.8 245.5 434.8 245.5 434.8 273.15 431.8 273.15 431.8 291.15 412.0 291.15 412.0 331.3 432.15 331.3 432.15 349.3 435.15 349.3 435.15 376.5 432.15 376.5 432.15 395.0 412.0 395.0 412.0 435.0 432.65 435.0 432.65 453.15 435.15 453.15 435.15 480.8 432.65 480.8 432.65 498.8 412.25 498.8 412.25 538.25 432.5 538.25 432.5 557.75 434.75 557.75 434.75 585.25 432.5 585.25 432.5 602.5 412.25 602.5 412.25 620.5 463.8 620.5 463.8 632.8 467.15 632.8 467.15 672.8 463.8 672.8 463.8 684.8 353.15 684.8 353.15 680.0 306.2 680.0 306.2 700.65 288.8 700.65 288.8 703.65 261.65 703.65 261.65 700.65 243.4 700.65 243.4 680.0 202.7 680.0 202.7 700.65 185.3 700.65 185.3 703.65 158.15 703.65 158.15 700.65 139.9 700.65 139.9 680.0 98.3 680.0 98.3 700.65 80.9 700.65 80.9 703.65 53.75 703.65 53.75 700.65 35.5 700.65 35.5 680.5 -5.85 680.5 -5.85 700.65 -23.25 700.65 -23.25 703.65 -50.45 703.65 -50.45 700.65 -68.7 700.65 -68.7 680.0 -110.85 680.0 -110.85 700.65 -128.25 700.65 -128.25 703.65 -155.45 703.65 -155.45 700.65 -173.7 700.65 -173.7 680.0 -213.85 680.0 -213.85 700.65 -231.25 700.65 -231.25 703.65 -258.45 703.65 -258.45 700.65 -276.7 700.65 -276.7 680.0 -295.75 680.0 -295.75 732.25 -307.2 732.25 -307.2 735.35 -347.2 735.35 -347.2 732.25 -358.7 732.25 -358.7 620.8 -355.5 620.8 -355.5 574.3 -374.5 574.3 -374.5 556.4 -377.75 556.4 -377.75 529.3 -374.5 529.3 -374.5 511.4 -355.5 511.4 -355.5 470.45 -374.5 470.45 -374.5 452.6 -377.75 452.6 -377.75 425.45 -374.5 425.45 -374.5 407.6 -355.5 407.6 -355.5 366.6 -374.5 366.6 -374.5 348.75 -377.75 348.75 -377.75 321.6 -374.5 321.6 -374.5 303.75 -355.5 303.75 -355.5 262.8 -374.5 262.8 -374.5 244.9 -377.75 244.9 -377.75 217.8 -374.5 217.8 -374.5 199.9 -355.5 199.9 -355.5 158.55 -374.5 158.55 -374.5 140.65 -377.75 140.65 -377.75 113.55 -374.5 113.55 -374.5 95.65 -355.5 95.65 -355.5 37.05 -406.1 37.05 -406.1 24.9 -409.5 24.9 -409.5 -14.2 -406.1 -14.2 -406.1 -26.85 -296.0 -26.85 -296.0 -23.2 -63.85 -23.2 -63.85 -13.0 -56.85 -13.0 -56.85 -61.2 -52.0 -61.2 -52.0 -63.9 -57.0 -63.9 -57.0 -66.2 -32.75 -66.2 -32.75 -72.75 -43.25 -72.75 -43.25 -157.4 -62.75 -157.4 -62.75 -175.75 -65.75 -175.75 -65.75 -203.15 -62.75 -203.15 -62.75 -221.5 -43.25 -221.5 -43.25 -261.15 -62.5 -261.15 -62.5 -279.5 -65.5 -279.5 -65.5 -306.9 -62.5 -306.9 -62.5 -325.25 -43.25 -325.25 -43.25 -364.8 -62.2 -364.8 -62.2 -383.2 -65.2 -383.2 -65.2 -410.55 -62.2 -410.55 -62.2 -428.95 -43.25 -428.95 -43.25 -448.5 -94.5 -448.5 -94.5 -459.25 -97.5 -459.25 -97.5 -499.0 -94.75 -499.0 -94.75 -511.25 16.5 -511.25 16.5 -507.5 62.9 -507.5 62.9 -525.85 81.25 -525.85 81.25 -529.0 108.5 -529.0 108.5 -525.85 127.15 -525.85 127.15 -507.5 166.9 -507.5 166.9 -525.85 185.25 -525.85 185.25 -529.0 212.5 -529.0 212.5 -525.85 231.15 -525.85 231.15 -507.5 270.8 -507.5 270.8 -525.85 289.1 -525.85 289.1 -529.0 316.35 -529.0 316.35 -525.85 335.05 -525.85 335.05 -507.5 353.0 -507.5 353.0 -558.5 364.75 -558.5 364.75 -561.75 404.5 -561.75" fill="#969696" fill-rule="evenodd" stroke="none"/>
    <path d="M265.75 312.75 L229.55 312.75 229.55 294.55 265.75 294.55 265.75 312.75" fill="#707070" fill-rule="evenodd" stroke="none"/>
    <path d="M229.15 257.4 L269.0 257.4 269.0 275.25 229.15 275.25 229.15 257.4" fill="#707070" fill-rule="evenodd" stroke="none"/>
    <path d="M274.85 293.3 L292.3 280.55 303.25 295.5 285.8 308.25 274.85 293.3" fill="#707070" fill-rule="evenodd" stroke="none"/>
    <path d="M206.75 307.1 L192.75 290.65 206.85 278.65 220.85 295.15 206.75 307.1" fill="#707070" fill-rule="evenodd" stroke="none"/>
    <path d="M228.6 187.55 L228.6 207.0 208.45 207.0 208.45 187.55 228.6 187.55" fill="#707070" fill-rule="evenodd" stroke="none"/>
    <path d="M249.6 207.0 L229.45 207.0 229.45 189.75 249.6 189.75 249.6 207.0" fill="#707070" fill-rule="evenodd" stroke="none"/>
    <path d="M270.55 207.0 L250.4 207.0 250.4 189.75 270.55 189.75 270.55 207.0" fill="#707070" fill-rule="evenodd" stroke="none"/>
    <path d="M288.3 207.0 L271.55 207.0 271.55 194.2 288.3 194.2 288.3 207.0" fill="#707070" fill-rule="evenodd" stroke="none"/>
    <path d="M314.95 310.75 L310.45 311.3 306.85 308.5 306.3 303.95 309.1 300.35 313.65 299.8 317.25 302.65 317.8 307.15 314.95 310.75" fill="#707070" fill-rule="evenodd" stroke="none"/>
    <path d="M191.2 310.75 L186.7 311.3 183.1 308.5 182.55 303.95 185.35 300.35 189.9 299.8 193.5 302.65 194.05 307.15 191.2 310.75" fill="#707070" fill-rule="evenodd" stroke="none"/>
    <path d="M249.9 38.55 L253.1 41.8 253.1 46.35 249.9 49.6 245.3 49.6 242.1 46.35 242.1 41.8 245.3 38.55 249.9 38.55" fill="#707070" fill-rule="evenodd" stroke="none"/>
    <path d="M315.4 203.1 L310.8 203.1 307.6 199.85 307.6 195.3 310.8 192.05 315.4 192.05 318.6 195.3 318.6 199.85 315.4 203.1" fill="#707070" fill-rule="evenodd" stroke="none"/>
    <path d="M189.9 203.1 L185.3 203.1 182.1 199.85 182.1 195.3 185.3 192.05 189.9 192.05 193.1 195.3 193.1 199.85 189.9 203.1" fill="#707070" fill-rule="evenodd" stroke="none"/>
    <path d="M249.8 -47.9 L245.2 -47.9 242.0 -51.1 242.0 -55.65 245.2 -58.9 249.8 -58.9 253.0 -55.7 253.0 -51.1 249.8 -47.9" fill="#707070" fill-rule="evenodd" stroke="none"/>
    <path d="M145.45 -73.55 L140.9 -73.55 137.65 -76.75 137.65 -81.35 140.9 -84.55 145.45 -84.55 148.7 -81.35 148.7 -76.8 145.45 -73.55" fill="#707070" fill-rule="evenodd" stroke="none"/>
    <path d="M69.8 -73.2 L65.2 -73.2 62.0 -76.45 62.0 -81.0 65.2 -84.25 69.8 -84.25 73.0 -81.0 73.0 -76.45 69.8 -73.2" fill="#707070" fill-rule="evenodd" stroke="none"/>
    <path d="M-47.2 -37.9 L-51.8 -37.9 -55.0 -41.1 -55.0 -45.65 -51.8 -48.9 -47.2 -48.9 -44.0 -45.7 -44.0 -41.1 -47.2 -37.9" fill="#707070" fill-rule="evenodd" stroke="none"/>
    <path d="M-41.9 56.8 L-46.45 56.8 -49.7 53.55 -49.7 49.0 -46.45 45.75 -41.9 45.75 -38.65 49.0 -38.65 53.55 -41.9 56.8" fill="#707070" fill-rule="evenodd" stroke="none"/>
    <path d="M23.5 -11.1 L24.55 -13.15 26.05 -14.8 27.85 -16.0 29.9 -16.6 75.95 -16.6 77.95 -16.0 79.8 -14.8 81.3 -13.15 82.35 -11.1 83.1 -6.9 83.05 -1.5 82.35 1.95 81.3 4.0 79.8 5.65 77.95 6.85 75.95 7.5 29.9 7.5 27.85 6.85 26.05 5.65 24.55 4.0 23.5 1.95 22.7 -2.25 22.95 -8.8 23.5 -11.1" fill="#707070" fill-rule="evenodd" stroke="none"/>
    <path d="M190.9 -10.75 L191.95 -12.8 193.4 -14.5 195.15 -15.65 197.15 -16.3 221.25 -16.3 223.25 -15.65 225.0 -14.5 226.5 -12.8 227.5 -10.75 228.3 -6.6 228.3 -1.95 227.5 2.2 226.5 4.25 225.0 5.95 223.25 7.1 221.25 7.75 197.15 7.75 195.15 7.1 193.4 5.95 191.95 4.25 190.9 2.2 190.1 -1.95 190.35 -8.5 190.9 -10.75" fill="#707070" fill-rule="evenodd" stroke="none"/>
    <path d="M297.25 -16.3 L299.25 -15.65 301.0 -14.5 302.5 -12.8 303.5 -10.75 304.3 -6.6 304.3 -1.95 303.5 2.2 302.5 4.25 301.0 5.95 299.25 7.1 297.25 7.75 273.15 7.75 271.15 7.1 269.4 5.95 267.95 4.25 266.9 2.2 266.1 -1.95 266.35 -8.5 266.9 -10.75 267.95 -12.8 269.4 -14.5 271.15 -15.65 273.15 -16.3 297.25 -16.3" fill="#707070" fill-rule="evenodd" stroke="none"/>
    <path d="M51.65 314.5 L36.0 314.5 36.0 294.8 51.65 294.8 51.65 314.5" fill="#707070" fill-rule="evenodd" stroke="none"/>
    <path d="M70.5 314.5 L54.8 314.5 54.8 294.8 70.5 294.8 70.5 314.5" fill="#707070" fill-rule="evenodd" stroke="none"/>
    <path d="M168.0 268.25 L168.0 298.25 84.75 298.25 84.75 278.5 114.75 278.5 114.75 268.25 168.0 268.25" fill="#707070" fill-rule="evenodd" stroke="none"/>
    <path d="M45.0 189.8 L45.0 219.5 25.5 219.5 25.5 227.5 -3.0 227.5 -3.0 189.8 45.0 189.8" fill="#707070" fill-rule="evenodd" stroke="none"/>
    <path d="M-151.75 305.0 L-12.0 305.0 -12.0 318.0 -151.75 318.0 -151.75 305.0" fill="#707070" fill-rule="evenodd" stroke="none"/>
    <path d="M-169.75 270.5 L-157.0 270.5 -157.0 316.75 -169.75 316.75 -169.75 270.5" fill="#707070" fill-rule="evenodd" stroke="none"/>
    <path d="M-265.1 270.5 L-265.1 241.5 -252.35 241.5 -252.35 270.5 -265.1 270.5" fill="#707070" fill-rule="evenodd" stroke="none"/>
    <path d="M-251.1 271.8 L-251.1 262.15 -220.2 262.15 -220.2 271.8 -251.1 271.8" fill="#707070" fill-rule="evenodd" stroke="none"/>
    <path d="M-219.1 269.3 L-217.55 258.45 -197.5 261.3 -199.05 272.2 -219.1 269.3" fill="#707070" fill-rule="evenodd" stroke="none"/>
    <path d="M-162.25 266.75 L-169.75 266.75 -169.75 258.5 -162.25 258.5 -162.25 266.75" fill="#707070" fill-rule="evenodd" stroke="none"/>
    <path d="M-65.25 265.5 L-115.0 265.5 -115.0 235.0 -65.25 235.0 -65.25 265.5" fill="#707070" fill-rule="evenodd" stroke="none"/>
    <path d="M-104.5 193.15 L-10.85 193.15 -10.85 206.15 -104.5 206.15 -104.5 193.15" fill="#707070" fill-rule="evenodd" stroke="none"/>
    <path d="M-63.2 143.15 L-63.2 199.5 -72.5 199.5 -72.5 143.15 -63.2 143.15" fill="#707070" fill-rule="evenodd" stroke="none"/>
    <path d="M-170.2 144.5 L-121.85 144.5 -121.85 156.8 -170.2 156.8 -170.2 144.5" fill="#707070" fill-rule="evenodd" stroke="none"/>
    <path d="M-220.85 154.5 L-172.85 154.5 -172.85 184.8 -191.85 184.8 -192.2 174.8 -220.85 174.8 -220.85 154.5" fill="#707070" fill-rule="evenodd" stroke="none"/>
    <path d="M182.8 69.55 L235.3 69.55 235.3 121.75 182.8 121.75 182.8 69.55" fill="#ffffff" fill-rule="evenodd" stroke="none"/>
    <path d="M311.55 69.55 L311.55 121.75 259.05 121.75 259.05 69.55 311.55 69.55" fill="#ffffff" fill-rule="evenodd" stroke="none"/>
    <path d="M-4.6 180.5 L-4.6 139.5 8.35 139.5 8.35 180.5 -4.6 180.5" fill="#ffffff" fill-rule="evenodd" stroke="none"/>
    <path d="M13.25 180.5 L13.25 139.5 26.2 139.5 26.2 180.5 13.25 180.5" fill="#ffffff" fill-rule="evenodd" stroke="none"/>
    <path d="M31.1 180.5 L31.1 139.5 44.05 139.5 44.05 180.5 31.1 180.5" fill="#ffffff" fill-rule="evenodd" stroke="none"/>
    <path d="M48.9 180.5 L48.9 139.5 61.9 139.5 61.9 180.5 48.9 180.5" fill="#ffffff" fill-rule="evenodd" stroke="none"/>
    <path d="M-4.6 70.5 L8.35 70.5 8.35 111.5 -4.6 111.5 -4.6 70.5" fill="#ffffff" fill-rule="evenodd" stroke="none"/>
    <path d="M13.25 70.5 L26.2 70.5 26.2 111.5 13.25 111.5 13.25 70.5" fill="#ffffff" fill-rule="evenodd" stroke="none"/>
    <path d="M31.1 70.5 L44.05 70.5 44.05 111.5 31.1 111.5 31.1 70.5" fill="#ffffff" fill-rule="evenodd" stroke="none"/>
    <path d="M48.9 111.5 L48.9 70.5 61.9 70.5 61.9 111.5 48.9 111.5" fill="#ffffff" fill-rule="evenodd" stroke="none"/>
    <path d="M409.1 169.15 L409.1 140.8 418.6 140.8 418.6 102.15 525.95 102.15 525.95 130.8 528.95 130.8 528.95 159.15 525.95 159.15 525.95 193.15 418.6 193.15 418.6 169.15 409.1 169.15" fill="#969696" fill-rule="evenodd" stroke="none"/>
    <path d="M488.9 -124.85 L488.9 -129.7 518.3 -129.7 518.3 -124.85 526.25 -124.85 526.25 97.65 419.65 97.65 419.65 -71.5 404.5 -71.5 402.25 -110.35 419.65 -110.35 419.65 -124.85 488.9 -124.85" fill="#969696" fill-rule="evenodd" stroke="none"/>
    <path d="M424.0 111.15 L424.0 89.0 452.15 89.0 452.15 111.15 424.0 111.15" fill="#969696" fill-rule="evenodd" stroke="none"/>
    <path d="M520.25 -6.8 L520.25 6.2 470.25 6.2 470.25 -6.8 520.25 -6.8" fill="#ffffff" fill-rule="evenodd" stroke="none"/>
    <path d="M470.25 -11.65 L470.25 -24.65 520.25 -24.65 520.25 -11.65 470.25 -11.65" fill="#ffffff" fill-rule="evenodd" stroke="none"/>
    <path d="M470.25 -29.5 L470.25 -42.45 520.25 -42.45 520.25 -29.5 470.25 -29.5" fill="#ffffff" fill-rule="evenodd" stroke="none"/>
    <path d="M520.25 -47.35 L470.25 -47.35 470.25 -60.3 520.25 -60.3 520.25 -47.35" fill="#ffffff" fill-rule="evenodd" stroke="none"/>
    <path d="M520.25 41.7 L470.25 41.7 470.25 28.7 520.25 28.7 520.25 41.7" fill="#ffffff" fill-rule="evenodd" stroke="none"/>
    <path d="M520.25 10.85 L520.25 23.85 470.25 23.85 470.25 10.85 520.25 10.85" fill="#ffffff" fill-rule="evenodd" stroke="none"/>
  </g>
</svg>
