<?xml version="1.0" encoding="UTF-8" standalone="no"?>
<svg xmlns:ffdec="https://www.free-decompiler.com/flash" xmlns:xlink="http://www.w3.org/1999/xlink" ffdec:objectType="shape" height="549.55px" width="214.35px" xmlns="http://www.w3.org/2000/svg">
  <g transform="matrix(1.0, 0.0, 0.0, 1.0, 108.05, 423.05)">
    <path d="M-108.05 -423.05 L106.3 -423.05 106.3 126.5 -108.05 126.5 -108.05 -423.05" fill="#434343" fill-rule="evenodd" stroke="none"/>
    <path d="M-72.35 54.65 L-72.35 46.65 -80.35 46.65 -80.35 54.65 -72.35 54.65 M79.2 54.65 L79.2 46.65 71.2 46.65 71.2 54.65 79.2 54.65 M-96.95 -307.3 L-90.35 -307.3 -90.7 -314.0 -96.95 -314.7 -96.95 -394.0 -78.45 -413.55 -24.0 -413.55 -12.25 -400.0 -24.0 -380.9 -24.0 -363.1 -13.0 -340.7 -21.0 -331.0 -34.0 -331.0 -42.3 -319.35 -42.3 -228.35 -31.65 -190.3 -50.65 -190.3 -50.65 -186.4 -31.65 -186.4 -31.65 -106.7 -14.45 -106.7 -14.45 -111.7 -25.8 -111.7 -25.8 -151.6 34.3 -151.6 34.3 -111.7 22.3 -111.7 22.3 -106.7 50.65 -106.7 50.65 -111.35 38.65 -111.35 38.65 -190.45 13.95 -190.45 13.95 -188.45 33.75 -188.45 33.75 -155.8 -25.35 -155.8 -25.35 -188.45 -5.35 -188.45 -5.35 -190.45 -25.35 -190.45 -25.35 -278.45 38.4 -295.8 96.2 -295.8 96.2 -280.25 102.0 -280.25 102.0 -234.0 96.85 -234.0 96.85 -111.35 84.0 -111.35 84.0 -106.7 96.0 -106.7 96.0 14.0 102.65 14.0 102.65 46.0 96.0 46.0 96.0 66.0 -31.65 66.0 -31.65 66.7 -96.95 66.7 -96.95 -186.4 -82.3 -186.4 -82.3 -190.3 -96.95 -190.3 -96.95 -307.3" fill="#969696" fill-rule="evenodd" stroke="none"/>
    <path d="M-68.9 -406.8 L-69.3 -408.6 -68.7 -410.3 -67.35 -411.5 -65.6 -411.85 -63.9 -411.3 -62.7 -409.95 -62.35 -408.15 -62.9 -406.45 -64.25 -405.25 -66.0 -404.9 -67.7 -405.45 -68.9 -406.8" fill="#707070" fill-rule="evenodd" stroke="none"/>
    <path d="M70.0 27.25 L71.9 29.15 73.55 31.4 74.8 33.9 75.6 36.5 75.9 38.95 75.7 41.2 74.95 43.05 73.8 44.4 64.7 49.8 53.25 30.55 62.1 25.3 63.85 24.85 65.85 25.05 67.95 25.85 70.0 27.25" fill="#707070" fill-rule="evenodd" stroke="none"/>
    <path d="M-78.85 35.1 L-79.2 34.05 -79.3 32.95 -79.1 31.85 -78.6 30.85 -77.9 30.0 -77.0 29.35 -76.0 28.95 -74.9 28.8 -73.8 28.95 -72.75 29.35 -71.9 30.0 -71.2 30.85 -70.7 31.85 -70.55 32.75 -65.2 29.55 -53.65 48.7 -62.5 54.0 -64.25 54.5 -66.2 54.3 -68.3 53.5 -70.35 52.1 -72.3 50.2 -73.95 47.95 -75.25 45.45 -76.05 42.9 -76.35 40.4 -76.15 38.2 -75.9 37.5 -76.5 37.3 -77.5 36.8 -78.3 36.05 -78.85 35.1" fill="#707070" fill-rule="evenodd" stroke="none"/>
    <path d="M-85.6 26.2 L-94.25 26.2 -94.25 17.55 -85.6 17.55 -85.6 26.2" fill="#707070" fill-rule="evenodd" stroke="none"/>
    <path d="M84.0 50.0 L84.0 41.3 92.65 41.3 92.65 50.0 84.0 50.0" fill="#707070" fill-rule="evenodd" stroke="none"/>
    <path d="M80.0 -53.7 L80.0 -77.35 96.0 -77.35 96.0 19.3 85.3 19.3 85.3 13.65 80.0 13.65 80.0 -1.0 39.0 -1.0 39.0 -53.7 80.0 -53.7" fill="#707070" fill-rule="evenodd" stroke="none"/>
    <path d="M-19.0 -144.5 L-19.0 -111.7 -25.8 -111.7 -25.8 -151.6 34.3 -151.6 34.3 -111.7 27.5 -111.7 27.5 -144.5 -19.0 -144.5" fill="#707070" fill-rule="evenodd" stroke="none"/>
    <path d="M-96.95 -57.0 L-85.35 -57.0 -85.35 6.3 -96.95 6.3 -96.95 -57.0" fill="#707070" fill-rule="evenodd" stroke="none"/>
    <path d="M40.65 -282.25 L40.65 -295.8 93.3 -295.8 93.3 -282.25 40.65 -282.25" fill="#707070" fill-rule="evenodd" stroke="none"/>
    <path d="M-79.35 -417.15 L-74.7 -412.9 -96.75 -388.7 -101.4 -392.9 -79.35 -417.15" fill="#707070" fill-rule="evenodd" stroke="none"/>
    <path d="M30.9 -266.25 L32.35 -263.9 32.85 -262.55 33.1 -261.2 33.15 -259.8 33.0 -258.45 32.65 -257.2 32.1 -256.05 31.35 -255.0 30.5 -254.2 27.2 -252.3 21.35 -249.7 4.35 -244.15 0.6 -243.6 -0.6 -243.65 -1.8 -244.0 -3.0 -244.55 -4.05 -245.3 -5.05 -246.25 -5.85 -247.35 -7.0 -249.9 -7.25 -251.3 -7.3 -252.65 -7.15 -254.0 -6.8 -255.3 -6.25 -256.45 -5.5 -257.45 -4.65 -258.25 -1.35 -260.2 12.3 -265.55 21.5 -268.3 25.25 -268.9 26.5 -268.8 27.7 -268.5 28.85 -267.95 29.9 -267.2 30.9 -266.25" fill="#707070" fill-rule="evenodd" stroke="none"/>
    <path d="M84.45 -248.1 L85.85 -248.85 86.7 -249.05 89.45 -249.35 96.5 -249.45 96.45 -241.35 89.4 -241.35 86.65 -241.8 85.1 -242.35 84.4 -242.8 83.85 -243.3 83.4 -243.85 83.1 -244.45 82.95 -245.1 83.0 -245.75 83.15 -246.4 83.45 -247.05 83.85 -247.6 84.45 -248.1" fill="#707070" fill-rule="evenodd" stroke="none"/>
    <path d="M102.85 69.75 L102.85 122.4 -103.15 122.4 -103.15 69.75 102.85 69.75" fill="#707070" fill-rule="evenodd" stroke="none"/>
    <path d="M-24.0 -413.55 L59.75 -413.55 59.75 -331.0 -24.0 -331.0 -24.0 -363.1 24.2 -363.1 24.2 -380.9 -24.0 -380.9 -24.0 -413.55" fill="#ffffff" fill-rule="evenodd" stroke="none"/>
  </g>
</svg>
