<?xml version="1.0" encoding="UTF-8" standalone="no"?>
<svg xmlns:ffdec="https://www.free-decompiler.com/flash" xmlns:xlink="http://www.w3.org/1999/xlink" ffdec:objectType="shape" height="358.0px" width="347.95px" xmlns="http://www.w3.org/2000/svg">
  <g transform="matrix(1.0, 0.0, 0.0, 1.0, 187.95, 408.3)">
    <path d="M158.65 -264.35 L158.65 -50.3 -187.95 -50.3 -187.95 -408.3 109.65 -408.3 109.65 -264.35 158.65 -264.35" fill="#434343" fill-rule="evenodd" stroke="none"/>
    <path d="M-15.0 -229.35 L-18.35 -229.35 -18.35 -169.0 -15.0 -169.0 -15.0 -229.35 M-63.95 -307.85 L-54.95 -307.85 -54.95 -309.5 -56.75 -309.5 -56.75 -311.8 -71.45 -311.8 -71.45 -399.7 1.5 -399.7 1.5 -344.25 3.0 -344.25 3.0 -350.9 28.4 -350.9 28.4 -311.8 3.0 -311.8 3.0 -328.4 1.5 -328.4 1.5 -311.8 -25.1 -311.8 -25.1 -309.5 -27.95 -309.5 -27.95 -307.85 -17.95 -307.85 -17.95 -265.0 103.0 -265.0 103.0 -249.0 106.65 -249.0 106.65 -150.35 103.0 -150.35 103.0 -134.35 -17.55 -134.35 -17.55 -132.15 -27.65 -132.15 -27.65 -129.7 -25.0 -129.7 -25.0 -127.45 -18.0 -127.45 -18.0 -114.65 0.65 -114.65 0.65 -66.0 -73.2 -66.0 -73.2 -127.45 -56.55 -127.45 -56.55 -129.7 -53.9 -129.7 -53.9 -132.15 -64.0 -132.15 -64.0 -169.35 -68.35 -169.35 -68.35 -173.85 -73.35 -173.85 -73.35 -148.5 -176.7 -148.5 -176.7 -250.85 -73.35 -250.85 -73.35 -204.2 -68.35 -204.2 -68.35 -264.7 -63.95 -264.7 -63.95 -307.85" fill="#969696" fill-rule="evenodd" stroke="none"/>
    <path d="M106.3 -248.7 L109.65 -248.7 109.65 -259.9 154.75 -259.9 154.75 -143.25 109.65 -143.25 109.65 -150.35 106.3 -150.35 106.3 -248.7" fill="#707070" fill-rule="evenodd" stroke="none"/>
    <path d="M109.65 -263.25 L109.65 -266.35 160.0 -266.35 160.0 -137.7 109.65 -137.7 109.65 -139.9 158.1 -139.9 158.1 -263.25 109.65 -263.25" fill="#707070" fill-rule="evenodd" stroke="none"/>
    <path d="M-14.25 -223.4 L43.1 -223.4 43.1 -174.5 -14.25 -174.5 -14.25 -223.4" fill="#707070" fill-rule="evenodd" stroke="none"/>
    <path d="M-160.7 -234.95 L-160.7 -250.85 -73.35 -250.85 -73.35 -234.95 -160.7 -234.95" fill="#707070" fill-rule="evenodd" stroke="none"/>
    <path d="M-73.35 -164.85 L-73.35 -148.5 -176.7 -148.5 -176.7 -164.85 -73.35 -164.85" fill="#707070" fill-rule="evenodd" stroke="none"/>
    <path d="M46.4 -254.0 L46.4 -265.0 79.1 -265.0 79.1 -254.0 46.4 -254.0" fill="#707070" fill-rule="evenodd" stroke="none"/>
    <path d="M63.3 -150.7 L63.3 -135.35 45.55 -135.35 45.55 -150.7 63.3 -150.7" fill="#707070" fill-rule="evenodd" stroke="none"/>
    <path d="M92.4 -140.9 L92.4 -149.8 100.85 -149.8 100.85 -140.9 92.4 -140.9" fill="#707070" fill-rule="evenodd" stroke="none"/>
    <path d="M89.65 -143.5 L91.3 -138.1 85.6 -136.35 83.95 -141.75 89.65 -143.5" fill="#707070" fill-rule="evenodd" stroke="none"/>
    <path d="M-173.65 -167.7 L-172.1 -177.55 -166.15 -176.6 -167.75 -166.8 -173.65 -167.7" fill="#707070" fill-rule="evenodd" stroke="none"/>
    <path d="M89.25 -258.0 L91.8 -257.8 93.85 -256.35 94.95 -254.1 94.75 -251.55 93.35 -249.45 91.05 -248.4 88.55 -248.6 86.45 -250.0 85.35 -252.3 85.55 -254.8 87.0 -256.9 89.25 -258.0" fill="#707070" fill-rule="evenodd" stroke="none"/>
    <path d="M43.65 -263.35 L45.5 -262.05 46.5 -260.0 46.35 -257.7 45.05 -255.85 43.0 -254.85 40.7 -255.0 38.85 -256.3 37.85 -258.35 38.0 -260.65 39.3 -262.55 41.35 -263.5 43.65 -263.35" fill="#707070" fill-rule="evenodd" stroke="none"/>
    <path d="M5.75 -345.9 L5.75 -350.9 24.2 -350.9 24.2 -345.9 5.75 -345.9" fill="#707070" fill-rule="evenodd" stroke="none"/>
    <path d="M-30.9 -360.25 L-30.9 -399.7 1.5 -399.7 1.5 -360.25 -30.9 -360.25" fill="#707070" fill-rule="evenodd" stroke="none"/>
    <path d="M-64.0 -378.5 L-64.0 -377.35 -58.2 -377.35 -58.2 -332.9 -64.0 -332.9 -64.0 -331.75 -71.45 -331.75 -71.45 -378.5 -64.0 -378.5" fill="#707070" fill-rule="evenodd" stroke="none"/>
    <path d="M-63.5 -393.85 L-62.0 -393.85 -60.55 -393.5 -59.3 -392.75 -58.45 -391.75 -57.95 -390.55 -57.95 -389.3 -58.4 -388.05 -59.25 -387.05 -60.45 -386.3 -61.9 -385.9 -63.4 -385.85 -64.8 -386.25 -65.5 -386.65 -65.5 -385.3 -71.45 -385.3 -71.45 -394.45 -65.5 -394.45 -65.5 -393.05 -64.9 -393.45 -63.5 -393.85" fill="#707070" fill-rule="evenodd" stroke="none"/>
    <path d="M0.65 -59.35 L0.65 -114.65 98.4 -114.65 98.4 -59.35 0.65 -59.35" fill="#ffffff" fill-rule="evenodd" stroke="none"/>
  </g>
</svg>
