<?xml version="1.0" encoding="UTF-8" standalone="no"?>
<svg xmlns:ffdec="https://www.free-decompiler.com/flash" xmlns:xlink="http://www.w3.org/1999/xlink" ffdec:objectType="shape" height="370.05px" width="500.05px" xmlns="http://www.w3.org/2000/svg">
  <g transform="matrix(1.0, 0.0, 0.0, 1.0, 0.0, 0.0)">
    <path d="M405.8 0.0 L492.05 0.0 495.05 0.0 Q500.05 0.0 500.05 5.0 L500.05 25.85 500.05 29.6 495.7 29.6 495.7 25.85 495.7 25.0 492.05 25.0 405.8 25.0 405.8 0.0" fill="url(#gradient0)" fill-rule="evenodd" stroke="none"/>
    <path d="M500.05 29.6 L500.05 359.25 500.05 365.05 Q500.05 370.05 495.05 370.05 L492.05 370.05 6.2 370.05 5.0 370.05 Q0.0 370.05 0.0 365.05 L0.0 359.25 0.0 29.6 3.5 29.6 3.5 359.25 3.5 363.9 Q3.5 366.4 6.0 366.4 L6.2 366.4 492.05 366.4 493.2 366.4 Q495.7 366.4 495.7 363.9 L495.7 359.25 495.7 29.6 500.05 29.6" fill="#7e7e7e" fill-rule="evenodd" stroke="none"/>
    <path d="M0.0 29.6 L0.0 25.85 0.0 5.0 Q0.0 0.0 5.0 0.0 L6.2 0.0 405.8 0.0 405.8 25.0 6.2 25.0 3.5 25.0 3.5 25.85 3.5 29.6 0.0 29.6" fill="url(#gradient1)" fill-rule="evenodd" stroke="none"/>
    <path d="M0.0 20.0 L6.2 20.0 492.05 20.0 500.0 20.0" fill="none" stroke="#5e5e5e" stroke-linecap="butt" stroke-linejoin="miter-clip" stroke-miterlimit="3.0" stroke-width="0.05"/>
    <path d="M0.0 21.0 L6.2 21.0 492.05 21.0 500.0 21.0" fill="none" stroke="#9f9f9f" stroke-linecap="butt" stroke-linejoin="miter-clip" stroke-miterlimit="3.0" stroke-width="0.05"/>
  </g>
  <defs>
    <linearGradient gradientTransform="matrix(0.0, -0.127, 0.1856, 0.0, 348.0, 112.0)" gradientUnits="userSpaceOnUse" id="gradient0" spreadMethod="pad" x1="-819.2" x2="819.2">
      <stop offset="0.0" stop-color="#7d7d7e"/>
      <stop offset="0.9372549019607843" stop-color="#7f7f7f"/>
      <stop offset="1.0" stop-color="#c4c4c4"/>
    </linearGradient>
    <linearGradient gradientTransform="matrix(0.0, -0.127, 0.1856, 0.0, 152.0, 112.0)" gradientUnits="userSpaceOnUse" id="gradient1" spreadMethod="pad" x1="-819.2" x2="819.2">
      <stop offset="0.0" stop-color="#7d7d7e"/>
      <stop offset="0.9372549019607843" stop-color="#7f7f7f"/>
      <stop offset="1.0" stop-color="#c4c4c4"/>
    </linearGradient>
  </defs>
</svg>
