<?xml version="1.0" encoding="UTF-8" standalone="no"?>
<svg xmlns:ffdec="https://www.free-decompiler.com/flash" xmlns:xlink="http://www.w3.org/1999/xlink" ffdec:objectType="shape" height="226.05px" width="304.05px" xmlns="http://www.w3.org/2000/svg">
  <g transform="matrix(1.0, 0.0, 0.0, 1.0, 0.0, 0.0)">
    <path d="M5.0 0.0 L6.2 0.0 297.9 0.0 299.05 0.0 Q304.05 0.0 304.05 5.0 L304.05 25.85 304.05 219.75 304.05 221.05 Q304.05 226.05 299.05 226.05 L297.9 226.05 6.2 226.05 5.0 226.05 Q0.0 226.05 0.0 221.05 L0.0 219.75 0.0 25.85 0.0 5.0 Q0.0 0.0 5.0 0.0" fill="url(#gradient0)" fill-rule="evenodd" stroke="none"/>
    <path d="M300.5 25.85 L300.5 219.75 300.5 220.0 Q300.5 222.5 298.0 222.5 L297.9 222.5 6.2 222.5 6.0 222.5 Q3.5 222.5 3.5 220.0 L3.5 219.75 3.5 25.85 3.5 25.0 6.2 25.0 297.9 25.0 300.5 25.0 300.5 25.85" fill="#3f3f3f" fill-rule="evenodd" stroke="none"/>
    <path d="M300.5 25.85 L300.5 25.0 297.9 25.0 6.2 25.0 3.5 25.0 3.5 25.85 3.5 219.75 3.5 220.0 Q3.5 222.5 6.0 222.5 L6.2 222.5 297.9 222.5 298.0 222.5 Q300.5 222.5 300.5 220.0 L300.5 219.75 300.5 25.85 Z" fill="none" stroke="#343434" stroke-linecap="butt" stroke-linejoin="miter-clip" stroke-miterlimit="3.0" stroke-width="1.0"/>
    <path d="M0.0 20.0 L6.2 20.0 297.9 20.0 304.05 20.0" fill="none" stroke="#5e5e5e" stroke-linecap="butt" stroke-linejoin="miter-clip" stroke-miterlimit="3.0" stroke-width="0.05"/>
    <path d="M0.0 21.0 L6.2 21.0 297.9 21.0 304.05 21.0" fill="none" stroke="#9f9f9f" stroke-linecap="butt" stroke-linejoin="miter-clip" stroke-miterlimit="3.0" stroke-width="0.05"/>
  </g>
  <defs>
    <linearGradient gradientTransform="matrix(0.0, -0.127, 0.1856, 0.0, 152.0, 112.0)" gradientUnits="userSpaceOnUse" id="gradient0" spreadMethod="pad" x1="-819.2" x2="819.2">
      <stop offset="0.0" stop-color="#7d7d7e"/>
      <stop offset="0.9372549019607843" stop-color="#7f7f7f"/>
      <stop offset="1.0" stop-color="#c4c4c4"/>
    </linearGradient>
  </defs>
</svg>
