<?xml version="1.0" encoding="UTF-8" standalone="no"?>
<svg xmlns:ffdec="https://www.free-decompiler.com/flash" xmlns:xlink="http://www.w3.org/1999/xlink" ffdec:objectType="shape" height="158.5px" width="202.45px" xmlns="http://www.w3.org/2000/svg">
  <g transform="matrix(1.0, 0.0, 0.0, 1.0, 4.95, 139.95)">
    <path d="M197.5 -139.95 L197.5 18.55 -4.95 18.55 -4.95 -139.95 197.5 -139.95" fill="#424242" fill-rule="evenodd" stroke="none"/>
    <path d="M52.0 -132.45 L52.0 -128.95 60.0 -128.95 60.0 -132.45 100.0 -132.45 100.0 -128.95 120.5 -128.95 120.5 -132.45 189.0 -132.45 189.0 -59.95 118.5 -59.95 118.5 -82.45 120.5 -82.45 120.5 -88.45 88.5 -88.45 88.5 -80.45 47.0 -80.45 45.55 -76.45 45.55 -74.95 56.0 -74.95 56.0 -42.95 40.05 -42.95 40.05 -40.95 56.0 -40.95 56.0 -39.95 86.0 -39.95 86.0 -43.45 133.5 -43.45 133.5 -39.95 136.0 -39.95 136.0 -25.45 138.5 -25.45 138.5 -39.95 141.0 -39.95 141.0 -43.45 185.5 -43.45 185.5 -39.95 188.5 -39.95 188.5 0.05 185.5 0.05 185.5 3.55 141.5 3.55 141.5 0.05 138.5 0.05 138.5 -12.45 136.0 -12.45 136.0 0.05 133.5 0.05 133.5 3.55 119.5 3.55 119.5 10.05 115.0 10.05 115.0 3.55 105.0 3.55 105.0 10.05 101.0 10.05 101.0 3.55 86.0 3.55 86.0 0.05 56.0 0.05 56.0 11.05 9.05 11.05 9.05 0.05 2.05 0.05 2.05 -39.95 9.05 -39.95 9.05 -40.95 25.05 -40.95 25.05 -42.95 9.05 -42.95 9.05 -74.95 18.55 -74.95 17.05 -80.45 9.05 -80.45 9.05 -128.95 12.05 -128.95 12.05 -132.45 52.0 -132.45" fill="#959595" fill-rule="evenodd" stroke="none"/>
    <path d="M22.55 11.05 L22.55 0.05 43.05 0.05 43.05 11.05 22.55 11.05" fill="#6f6f6f" fill-rule="evenodd" stroke="none"/>
    <path d="M28.55 -6.45 L29.55 -8.45 Q30.55 -8.45 31.05 -8.95 L33.05 -8.95 34.55 -7.95 35.55 -6.45 37.05 -2.95 37.05 -0.95 27.55 -0.95 27.55 -2.95 28.55 -6.45" fill="#6f6f6f" fill-rule="evenodd" stroke="none"/>
    <path d="M163.0 -103.45 Q163.5 -102.45 163.5 -101.45 163.0 -98.95 162.0 -96.45 161.0 -95.45 160.0 -94.95 L153.0 -101.45 154.5 -103.45 Q156.5 -103.95 158.0 -104.95 159.0 -104.95 160.0 -105.45 161.0 -104.95 161.5 -104.95 L163.0 -103.45" fill="#6f6f6f" fill-rule="evenodd" stroke="none"/>
    <path d="M164.5 -27.95 L173.0 -27.95 173.0 -10.95 164.5 -10.95 164.5 -27.95" fill="#6f6f6f" fill-rule="evenodd" stroke="none"/>
    <path d="M101.5 -88.45 L101.5 -94.45 108.0 -94.45 108.0 -88.45 101.5 -88.45" fill="#6f6f6f" fill-rule="evenodd" stroke="none"/>
    <path d="M142.5 -87.95 L163.5 -87.95 163.5 -59.95 156.0 -59.95 156.0 -78.45 142.5 -78.45 142.5 -87.95" fill="#6f6f6f" fill-rule="evenodd" stroke="none"/>
    <path d="M120.0 -59.95 L120.0 -66.45 137.5 -66.45 137.5 -59.95 120.0 -59.95" fill="#6f6f6f" fill-rule="evenodd" stroke="none"/>
    <path d="M122.5 -81.45 L122.5 -76.95 118.5 -76.95 118.5 -81.45 122.5 -81.45" fill="#6f6f6f" fill-rule="evenodd" stroke="none"/>
    <path d="M189.0 -132.45 L189.0 -59.95 142.0 -59.95 142.0 -87.95 164.0 -87.95 164.0 -106.95 139.0 -106.95 139.0 -132.45 189.0 -132.45" fill="#ffffff" fill-rule="evenodd" stroke="none"/>
  </g>
</svg>
