<?xml version="1.0" encoding="UTF-8" standalone="no"?>
<svg xmlns:ffdec="https://www.free-decompiler.com/flash" xmlns:xlink="http://www.w3.org/1999/xlink" ffdec:objectType="shape" height="249.95px" width="368.95px" xmlns="http://www.w3.org/2000/svg">
  <g transform="matrix(1.0, 0.0, 0.0, 1.0, 171.45, 139.95)">
    <path d="M177.5 110.0 L134.5 110.0 134.5 97.0 177.5 97.0 177.5 110.0" fill="#6f6f6f" fill-rule="evenodd" stroke="none"/>
    <path d="M-171.45 59.5 L-171.45 -139.95 197.5 -139.95 197.5 110.0 175.0 110.0 175.0 101.0 138.5 101.0 138.5 110.0 -120.45 110.0 -125.95 105.0 -127.45 106.0 -130.95 106.0 Q-134.95 101.5 -139.45 97.0 L-146.95 84.5 Q-152.45 82.0 -157.95 79.0 L-166.95 70.0 -167.95 66.5 Q-166.95 65.5 -166.45 64.5 L-171.45 59.5" fill="#424242" fill-rule="evenodd" stroke="none"/>
    <path d="M189.0 -132.45 L189.0 -59.95 142.0 -59.95 142.0 -87.95 164.0 -87.95 164.0 -106.95 139.0 -106.95 139.0 -132.45 189.0 -132.45" fill="#ffffff" fill-rule="evenodd" stroke="none"/>
    <path d="M9.05 55.0 L9.05 44.55 -10.95 44.55 -10.95 55.0 9.05 55.0 M68.5 55.0 L68.5 44.55 49.0 44.55 49.0 55.0 68.5 55.0 M-105.95 -10.45 L-115.95 -10.45 -115.95 -0.45 -122.95 -0.45 -122.95 9.55 -115.45 9.55 -73.95 51.0 -70.95 54.5 -70.95 62.5 -60.45 62.5 -60.45 55.0 -50.95 55.0 -50.95 44.55 -60.45 44.55 Q-63.95 41.05 -67.95 37.55 L-72.95 42.55 -102.95 12.05 -97.95 7.55 -105.95 -0.45 -105.95 -10.45 M60.5 -129.95 L60.5 -132.45 112.0 -132.45 112.0 -129.95 117.0 -129.95 117.0 -89.95 120.0 -89.95 120.0 -107.45 142.0 -107.45 142.0 -59.95 120.0 -59.95 120.0 -78.95 117.0 -78.95 117.0 -62.45 112.0 -62.45 112.0 -60.45 109.5 -60.45 109.5 -54.95 83.5 -54.95 83.5 -51.45 109.5 -51.45 109.5 -50.45 119.0 -50.45 119.0 -22.45 121.5 -22.45 121.5 -15.45 124.0 -15.45 124.0 -50.45 189.0 -50.45 189.0 44.55 169.5 44.55 169.5 55.0 189.0 55.0 189.0 92.5 169.5 92.5 169.5 95.5 143.5 95.5 143.5 92.5 124.0 92.5 124.0 55.0 143.5 55.0 143.5 44.55 124.0 44.55 124.0 10.05 121.5 10.05 121.5 17.55 119.5 17.55 119.5 44.55 109.0 44.55 109.0 55.0 119.5 55.0 119.5 94.5 109.0 94.5 109.0 101.0 69.0 101.0 69.0 94.5 49.0 94.5 49.0 101.0 9.05 101.0 9.05 94.5 -10.95 94.5 -10.95 101.0 -50.95 101.0 -50.95 94.5 -60.45 94.5 -60.45 88.5 -70.95 88.5 -70.95 101.0 -110.95 101.0 -110.95 94.5 -116.45 94.5 -121.45 90.0 -122.45 91.0 -128.45 85.5 -129.45 86.5 -147.95 68.0 -146.95 67.0 Q-149.45 64.0 -152.45 61.0 L-151.45 60.0 -155.95 55.5 -155.95 49.0 -161.95 49.0 -161.95 9.55 -148.95 9.55 -148.95 -0.45 -155.95 -0.45 -155.95 -10.45 -161.95 -10.45 -161.95 -50.45 -155.95 -50.45 -155.95 -57.45 -142.45 -57.45 -142.45 -61.45 -155.95 -61.45 -155.95 -86.45 -136.95 -86.45 -136.95 -110.45 -109.95 -110.45 -109.95 -61.45 -129.45 -61.45 -129.45 -57.45 -115.95 -57.45 -115.95 -47.45 -105.95 -47.45 -105.95 -50.45 68.0 -50.45 68.0 -54.95 64.5 -54.95 64.5 -60.95 -103.95 -60.95 -103.95 -66.45 -105.95 -66.45 -105.95 -123.95 -103.95 -123.95 -103.95 -132.45 -60.45 -132.45 -60.45 -129.95 -40.95 -129.95 -40.95 -132.45 -5.45 -132.45 -5.45 -129.95 12.55 -129.95 12.55 -132.45 52.5 -132.45 52.5 -129.95 60.5 -129.95" fill="#959595" fill-rule="evenodd" stroke="none"/>
    <path d="M-132.95 90.0 L-151.45 72.0 Q-149.45 70.0 -147.95 68.0 L-129.45 86.5 Q-130.95 88.5 -132.95 90.0" fill="#ffffff" fill-rule="evenodd" stroke="none"/>
    <path d="M169.5 101.0 L143.5 101.0 143.5 95.5 169.5 95.5 169.5 101.0" fill="#ffffff" fill-rule="evenodd" stroke="none"/>
    <path d="M-151.45 72.0 L-132.95 90.0 Q-135.95 93.5 -139.45 97.0 -148.45 88.0 -157.95 79.0 -154.45 75.5 -151.45 72.0" fill="#6f6f6f" fill-rule="evenodd" stroke="none"/>
    <path d="M69.5 -121.45 L67.5 -122.45 67.0 -124.95 68.0 -126.95 Q69.5 -126.95 70.5 -127.45 L72.5 -126.45 73.5 -123.95 72.0 -121.95 Q71.0 -121.45 69.5 -121.45" fill="#6f6f6f" fill-rule="evenodd" stroke="none"/>
    <path d="M-7.45 -87.45 L-28.95 -87.45 -28.95 -110.45 -7.45 -110.45 -7.45 -87.45" fill="#6f6f6f" fill-rule="evenodd" stroke="none"/>
    <path d="M-57.95 -87.45 L-79.45 -87.45 -79.45 -110.45 -57.95 -110.45 -57.95 -87.45" fill="#6f6f6f" fill-rule="evenodd" stroke="none"/>
    <path d="M-14.95 -125.45 L-38.95 -125.45 -38.95 -130.95 -14.95 -130.95 -14.95 -125.45" fill="#6f6f6f" fill-rule="evenodd" stroke="none"/>
    <path d="M-0.95 -121.45 L-10.45 -121.45 -10.45 -128.95 -0.95 -128.95 -0.95 -121.45" fill="#6f6f6f" fill-rule="evenodd" stroke="none"/>
    <path d="M-41.45 -125.45 L-45.45 -125.45 -45.45 -128.95 -41.45 -128.95 -41.45 -125.45" fill="#6f6f6f" fill-rule="evenodd" stroke="none"/>
    <path d="M-67.45 -124.95 L-92.45 -124.95 -92.45 -130.95 -67.45 -130.95 -67.45 -124.95" fill="#6f6f6f" fill-rule="evenodd" stroke="none"/>
    <path d="M-105.95 -82.95 L-105.95 -108.45 -99.45 -108.45 -99.45 -82.95 -105.95 -82.95" fill="#6f6f6f" fill-rule="evenodd" stroke="none"/>
    <path d="M-156.45 -10.45 L-159.45 -10.45 -159.45 -50.45 -156.45 -50.45 -156.45 -10.45" fill="#6f6f6f" fill-rule="evenodd" stroke="none"/>
    <path d="M-156.45 49.0 L-159.45 49.0 -159.45 9.55 -156.45 9.55 -156.45 49.0" fill="#6f6f6f" fill-rule="evenodd" stroke="none"/>
    <path d="M109.0 96.5 L109.0 99.5 69.0 99.5 69.0 96.5 109.0 96.5" fill="#6f6f6f" fill-rule="evenodd" stroke="none"/>
    <path d="M49.0 96.5 L49.0 99.5 9.05 99.5 9.05 96.5 49.0 96.5" fill="#6f6f6f" fill-rule="evenodd" stroke="none"/>
    <path d="M-10.95 96.5 L-10.95 99.5 -50.95 99.5 -50.95 96.5 -10.95 96.5" fill="#6f6f6f" fill-rule="evenodd" stroke="none"/>
    <path d="M-110.95 96.5 L-70.95 96.5 -70.95 99.5 -110.95 99.5 -110.95 96.5" fill="#6f6f6f" fill-rule="evenodd" stroke="none"/>
    <path d="M-1.95 55.0 L1.05 55.0 1.05 94.5 -1.95 94.5 -1.95 55.0" fill="#6f6f6f" fill-rule="evenodd" stroke="none"/>
    <path d="M-54.45 -54.95 L-99.95 -54.95 -99.95 -60.95 -54.45 -60.95 -54.45 -54.95" fill="#6f6f6f" fill-rule="evenodd" stroke="none"/>
    <path d="M-53.95 -50.45 L-99.95 -50.45 -99.95 -52.45 -53.95 -52.45 -53.95 -50.45" fill="#6f6f6f" fill-rule="evenodd" stroke="none"/>
    <path d="M0.55 -54.95 L-44.95 -54.95 -44.95 -60.95 0.55 -60.95 0.55 -54.95" fill="#6f6f6f" fill-rule="evenodd" stroke="none"/>
    <path d="M1.05 -50.45 L-44.95 -50.45 -44.95 -52.45 1.05 -52.45 1.05 -50.45" fill="#6f6f6f" fill-rule="evenodd" stroke="none"/>
    <path d="M55.5 -54.95 L10.05 -54.95 10.05 -60.95 55.5 -60.95 55.5 -54.95" fill="#6f6f6f" fill-rule="evenodd" stroke="none"/>
    <path d="M56.0 -50.45 L10.05 -50.45 10.05 -52.45 56.0 -52.45 56.0 -50.45" fill="#6f6f6f" fill-rule="evenodd" stroke="none"/>
    <path d="M119.5 30.05 L109.5 30.05 109.5 20.05 119.5 20.05 119.5 30.05" fill="#6f6f6f" fill-rule="evenodd" stroke="none"/>
    <path d="M119.5 42.55 L109.5 42.55 109.5 32.55 119.5 32.55 119.5 42.55" fill="#6f6f6f" fill-rule="evenodd" stroke="none"/>
    <path d="M102.5 73.5 L76.5 73.5 76.5 60.0 102.5 60.0 102.5 73.5" fill="#6f6f6f" fill-rule="evenodd" stroke="none"/>
    <path d="M42.55 74.0 L16.05 74.0 16.05 60.0 42.55 60.0 42.55 74.0" fill="#6f6f6f" fill-rule="evenodd" stroke="none"/>
    <path d="M63.0 44.55 L57.0 44.55 57.0 40.55 63.0 40.55 63.0 44.55" fill="#6f6f6f" fill-rule="evenodd" stroke="none"/>
    <path d="M-10.95 46.5 L-10.95 52.5 -14.95 52.5 -14.95 46.5 -10.95 46.5" fill="#6f6f6f" fill-rule="evenodd" stroke="none"/>
    <path d="M85.0 52.0 L87.5 55.0 Q88.0 56.0 88.0 57.0 83.5 58.5 78.5 59.5 78.5 58.5 78.0 57.0 78.5 55.5 78.5 53.5 79.0 53.0 79.0 52.0 80.0 51.5 80.5 50.5 81.5 50.5 82.0 50.0 L84.0 50.5 85.0 52.0" fill="#6f6f6f" fill-rule="evenodd" stroke="none"/>
    <path d="M97.5 50.5 L99.0 52.0 99.0 53.5 100.0 57.0 Q100.0 58.5 99.5 59.5 95.0 58.5 90.0 57.0 90.5 56.0 90.5 55.0 L93.5 50.5 Q94.5 50.5 95.5 50.0 96.5 50.5 97.5 50.5" fill="#6f6f6f" fill-rule="evenodd" stroke="none"/>
    <path d="M25.05 52.0 L27.55 55.0 Q28.05 56.0 28.05 57.0 23.55 58.5 18.55 59.5 L18.05 57.0 Q18.55 55.5 18.55 53.5 19.05 53.0 19.05 52.0 20.05 51.5 20.55 50.5 21.55 50.5 22.05 50.0 L24.05 50.5 25.05 52.0" fill="#6f6f6f" fill-rule="evenodd" stroke="none"/>
    <path d="M37.55 50.5 L39.05 52.0 39.05 53.5 40.05 57.0 Q40.05 58.5 39.55 59.5 L30.05 57.0 Q30.55 56.0 30.55 55.0 L33.55 50.5 35.55 50.0 Q36.55 50.5 37.55 50.5" fill="#6f6f6f" fill-rule="evenodd" stroke="none"/>
    <path d="M67.5 94.5 L62.5 94.5 62.5 91.0 67.5 91.0 67.5 94.5" fill="#6f6f6f" fill-rule="evenodd" stroke="none"/>
    <path d="M-111.45 13.55 L-73.95 51.0 -76.95 54.5 -114.95 16.55 Q-112.95 15.05 -111.45 13.55" fill="#6f6f6f" fill-rule="evenodd" stroke="none"/>
    <path d="M-24.95 -6.95 L-24.95 2.55 -49.95 2.55 -49.95 -6.95 -24.95 -6.95" fill="#6f6f6f" fill-rule="evenodd" stroke="none"/>
    <path d="M78.0 -6.95 L78.0 2.55 53.0 2.55 53.0 -6.95 78.0 -6.95" fill="#6f6f6f" fill-rule="evenodd" stroke="none"/>
    <path d="M171.0 -40.95 L146.0 -40.95 146.0 -50.45 171.0 -50.45 171.0 -40.95" fill="#6f6f6f" fill-rule="evenodd" stroke="none"/>
    <path d="M189.0 -28.45 L189.0 24.05 183.5 24.05 183.5 -28.45 189.0 -28.45" fill="#6f6f6f" fill-rule="evenodd" stroke="none"/>
    <path d="M-66.45 35.05 Q-69.45 38.55 -72.95 42.05 L-80.95 34.05 -73.95 27.55 -66.45 35.05" fill="#6f6f6f" fill-rule="evenodd" stroke="none"/>
    <path d="M-75.95 24.05 L-82.95 31.05 -90.45 23.55 Q-86.95 20.05 -83.95 16.55 L-75.95 24.05" fill="#6f6f6f" fill-rule="evenodd" stroke="none"/>
    <path d="M-87.45 12.55 L-94.45 19.55 -101.95 11.55 Q-98.45 8.55 -94.95 5.05 L-87.45 12.55" fill="#6f6f6f" fill-rule="evenodd" stroke="none"/>
    <path d="M131.5 -47.45 Q130.0 -44.95 128.0 -42.95 L125.5 -45.45 129.5 -49.45 131.5 -47.45" fill="#6f6f6f" fill-rule="evenodd" stroke="none"/>
    <path d="M9.55 -10.45 Q8.55 -9.45 7.05 -8.95 L5.05 -6.95 4.05 -3.95 4.05 -0.95 5.05 1.55 6.55 4.05 9.05 6.05 12.05 6.55 15.05 6.55 17.55 5.55 20.05 3.55 Q21.05 2.55 21.55 1.05 22.05 -0.45 22.05 -1.95 22.05 -3.45 21.55 -4.95 L20.55 -7.45 18.05 -9.45 Q17.05 -9.95 15.55 -10.95 14.05 -10.95 12.55 -11.45 L9.55 -10.45 M-3.95 -5.45 Q-2.45 -7.95 -1.45 -10.95 L2.05 -14.95 6.55 -17.95 Q9.55 -18.45 12.05 -19.45 L18.05 -18.45 Q20.55 -16.95 23.05 -15.95 L27.05 -11.95 Q28.55 -9.45 29.55 -6.95 30.05 -3.95 30.05 -1.45 L29.05 4.05 26.05 9.05 Q24.05 11.05 21.55 12.55 L16.55 14.55 11.05 14.55 5.55 13.05 Q3.55 11.55 1.05 10.05 L-2.45 5.55 Q-2.95 3.05 -3.95 0.05 L-3.95 -5.45" fill="#6f6f6f" fill-rule="evenodd" stroke="none"/>
    <path d="M65.0 -98.95 L63.0 -102.45 Q63.0 -104.45 62.5 -106.95 L64.5 -110.45 67.5 -112.95 72.0 -113.95 74.5 -113.95 74.5 -132.45 144.0 -132.45 144.0 -106.95 112.5 -106.95 Q112.5 -103.95 112.0 -101.45 L109.0 -98.45 105.5 -96.45 72.5 -96.45 68.5 -96.95 65.0 -98.95" fill="#ffffff" fill-rule="evenodd" stroke="none"/>
    <path d="M-155.95 -132.45 L-109.95 -132.45 -109.95 -86.45 -129.95 -86.45 -129.95 -110.45 -135.95 -110.45 -135.95 -86.45 -155.95 -86.45 -155.95 -132.45" fill="#ffffff" fill-rule="evenodd" stroke="none"/>
    <path d="M146.0 -132.45 L146.0 -106.95 99.0 -106.95 99.0 -98.95 76.5 -98.95 76.5 -132.45 146.0 -132.45" fill="#ffffff" fill-rule="evenodd" stroke="none"/>
  </g>
</svg>
