<?xml version="1.0" encoding="UTF-8" standalone="no"?>
<svg xmlns:ffdec="https://www.free-decompiler.com/flash" xmlns:xlink="http://www.w3.org/1999/xlink" ffdec:objectType="shape" height="83.5px" width="139.5px" xmlns="http://www.w3.org/2000/svg">
  <g transform="matrix(1.0, 0.0, 0.0, 1.0, 60.0, 33.35)">
    <path d="M-59.5 -26.35 L14.0 -26.35 14.0 -33.35 23.0 -33.35 23.0 -26.35 69.5 -26.35 69.5 -8.35 Q73.5 -5.35 77.0 -2.35 78.5 -1.85 79.5 -1.85 L79.5 -0.85 77.0 0.15 69.5 5.15 69.5 20.15 66.5 20.15 66.5 25.15 25.0 25.15 25.0 48.65 28.5 48.65 28.5 50.15 -43.0 50.15 -43.0 25.15 -59.5 25.15 -59.5 21.65 -60.0 21.65 -60.0 20.15 -59.5 20.15 -59.5 -21.85 -60.0 -21.85 -60.0 -23.35 -59.5 -23.35 -59.5 -26.35 M74.5 -2.85 L69.5 -5.85 69.5 3.65 74.5 0.65 74.5 -2.85" fill="#424242" fill-rule="evenodd" stroke="none"/>
    <path d="M-41.0 48.65 L-41.0 25.15 25.0 25.15 25.0 48.65 -41.0 48.65" fill="#6f6f6f" fill-rule="evenodd" stroke="none"/>
    <path d="M2.5 -24.35 L65.0 -24.35 65.0 -22.35 68.5 -22.35 68.5 19.15 65.0 19.15 65.0 22.65 -1.0 22.65 -1.0 25.15 -15.0 25.15 -15.0 22.65 -29.5 22.65 -29.5 10.65 -30.5 10.65 -30.5 22.65 -57.5 22.65 -57.5 -24.35 -30.5 -24.35 -30.5 -2.35 -29.5 -2.35 -29.5 -10.35 -15.5 -10.35 -15.5 -11.85 -29.5 -11.85 -29.5 -24.35 0.5 -24.35 0.5 -11.85 -2.5 -11.85 -2.5 -10.35 2.5 -10.35 2.5 -24.35" fill="#959595" fill-rule="evenodd" stroke="none"/>
    <path d="M-1.0 25.15 L-15.0 25.15 -15.0 22.65 -1.0 22.65 -1.0 25.15" fill="#ffffff" fill-rule="evenodd" stroke="none"/>
    <path d="M30.5 2.15 L35.5 2.15 36.0 3.65 36.0 22.65 1.5 22.65 1.5 17.15 2.5 14.65 29.5 14.65 29.5 3.65 30.5 2.15" fill="#6f6f6f" fill-rule="evenodd" stroke="none"/>
    <path d="M59.0 5.65 L65.0 5.65 65.0 22.65 59.0 22.65 59.0 5.65" fill="#6f6f6f" fill-rule="evenodd" stroke="none"/>
    <path d="M14.5 -14.85 L14.5 -24.35 39.0 -24.35 39.0 -14.85 14.5 -14.85" fill="#6f6f6f" fill-rule="evenodd" stroke="none"/>
    <path d="M13.0 -24.35 L13.0 -15.35 3.5 -15.35 3.5 -24.35 13.0 -24.35" fill="#6f6f6f" fill-rule="evenodd" stroke="none"/>
    <path d="M-29.5 -9.85 L-23.5 -9.85 -23.5 -3.85 -29.5 -3.85 -29.5 -9.85" fill="#6f6f6f" fill-rule="evenodd" stroke="none"/>
    <path d="M-29.5 22.65 L-29.5 12.65 -23.5 12.65 -23.5 22.65 -29.5 22.65" fill="#6f6f6f" fill-rule="evenodd" stroke="none"/>
    <path d="M-43.0 22.65 L-43.0 16.15 -32.0 16.15 -32.0 22.65 -43.0 22.65" fill="#6f6f6f" fill-rule="evenodd" stroke="none"/>
    <path d="M-57.5 22.65 L-57.5 7.65 -51.5 7.65 -51.5 22.65 -57.5 22.65" fill="#6f6f6f" fill-rule="evenodd" stroke="none"/>
    <path d="M-57.5 -24.35 L-37.5 -24.35 -37.5 1.15 -57.5 1.15 -57.5 -24.35" fill="#6f6f6f" fill-rule="evenodd" stroke="none"/>
    <path d="M-32.5 -23.85 Q-32.5 -21.35 -33.0 -19.35 L-37.5 -19.85 Q-37.0 -21.85 -37.0 -24.35 L-32.5 -23.85" fill="#6f6f6f" fill-rule="evenodd" stroke="none"/>
    <path d="M-1.5 -24.35 L0.5 -24.35 0.5 -11.85 -1.5 -11.85 -1.5 -15.85 Q-2.0 -15.35 -2.5 -15.35 L-4.5 -15.35 Q-5.0 -15.85 -6.0 -16.35 -6.0 -16.85 -6.5 -17.85 -6.0 -18.35 -6.0 -19.35 L-4.0 -20.35 -2.0 -20.35 -1.5 -19.85 -1.5 -24.35" fill="#6f6f6f" fill-rule="evenodd" stroke="none"/>
    <path d="M-15.0 -21.35 L-15.0 -24.35 -10.0 -24.35 -10.0 -21.35 -15.0 -21.35" fill="#6f6f6f" fill-rule="evenodd" stroke="none"/>
    <path d="M46.5 -7.35 L44.5 -10.35 Q44.5 -12.35 44.0 -14.35 L45.0 -17.85 47.5 -20.85 51.0 -22.85 55.0 -22.85 Q57.0 -21.85 58.5 -21.35 L61.0 -18.85 Q62.0 -16.85 62.5 -14.85 62.5 -12.85 62.0 -11.35 61.5 -9.35 60.5 -7.85 59.0 -6.35 57.5 -5.35 L53.5 -4.35 50.0 -4.85 46.5 -7.35" fill="#6f6f6f" fill-rule="evenodd" stroke="none"/>
  </g>
</svg>
