<?xml version="1.0" encoding="UTF-8" standalone="no"?>
<svg xmlns:ffdec="https://www.free-decompiler.com/flash" xmlns:xlink="http://www.w3.org/1999/xlink" ffdec:objectType="shape" height="100.0px" width="100.0px" xmlns="http://www.w3.org/2000/svg">
  <g transform="matrix(1.0, 0.0, 0.0, 1.0, 0.0, 0.0)">
    <path d="M100.0 100.0 L75.05 100.0 24.95 100.0 0.0 100.0 0.0 75.05 0.0 24.95 0.0 0.0 24.95 0.0 75.05 0.0 100.0 0.0 100.0 24.95 100.0 75.05 100.0 100.0 M4.0 24.95 L4.0 75.05 4.0 96.0 24.95 96.0 75.05 96.0 96.0 96.0 96.0 75.05 96.0 24.95 96.0 4.0 75.05 4.0 24.95 4.0 4.0 4.0 4.0 24.95" fill="#ffffff" fill-rule="evenodd" stroke="none"/>
  </g>
</svg>
