<?xml version="1.0" encoding="UTF-8" standalone="no"?>
<svg xmlns:ffdec="https://www.free-decompiler.com/flash" xmlns:xlink="http://www.w3.org/1999/xlink" ffdec:objectType="shape" height="167.0px" width="129.0px" xmlns="http://www.w3.org/2000/svg">
  <g transform="matrix(1.0, 0.0, 0.0, 1.0, 85.45, 114.65)">
    <path d="M-10.95 -110.15 L-5.45 -110.15 Q-4.95 -110.65 -4.95 -111.65 L-3.45 -111.65 Q-2.95 -110.65 -2.95 -110.15 L28.55 -110.15 28.55 -68.65 38.55 -68.65 38.55 4.35 43.55 4.35 43.55 22.35 41.05 22.35 41.05 34.35 40.05 34.35 40.05 52.35 -10.45 52.35 -10.45 38.85 Q-25.45 38.85 -40.45 38.35 L-40.45 52.35 -75.95 52.35 -80.95 52.35 -80.95 51.35 -83.45 51.35 -83.45 50.35 -85.45 50.35 -85.45 39.85 -83.45 39.85 -83.45 38.85 -80.95 38.85 -80.95 19.35 -79.95 19.35 -79.95 -7.65 -80.95 -7.65 -80.95 -13.15 -79.95 -13.15 -79.95 -30.15 -80.45 -30.15 -80.45 -36.65 -81.45 -36.65 -81.45 -38.65 -80.95 -38.65 Q-80.45 -38.65 -80.45 -39.15 L-80.45 -65.65 -76.45 -65.65 -76.45 -66.65 -77.95 -66.65 -77.95 -80.15 -74.95 -80.15 -74.95 -83.65 -64.45 -83.65 -64.45 -85.15 -58.95 -85.15 -58.95 -83.65 -37.45 -83.65 -37.45 -110.15 -33.45 -110.15 -33.45 -114.65 -10.95 -114.65 -10.95 -110.15" fill="#424242" fill-rule="evenodd" stroke="none"/>
    <path d="M-35.45 -80.15 L-35.45 -107.15 7.05 -107.15 7.05 -108.15 22.05 -108.15 22.05 -107.15 27.55 -107.15 27.55 -68.15 15.55 -68.15 15.55 -66.65 36.05 -66.65 36.05 -51.65 37.05 -51.65 37.05 -36.15 36.05 -36.15 36.05 -19.65 22.05 -19.65 22.05 -18.15 36.05 -18.15 36.05 -11.65 37.05 -11.65 37.05 -1.15 36.05 -1.15 36.05 3.35 34.55 3.35 34.55 22.85 36.05 22.85 36.05 33.35 37.05 33.35 37.05 38.85 36.05 38.85 36.05 48.85 25.55 48.85 25.55 50.85 5.55 50.85 5.55 48.85 -5.95 48.85 -5.95 12.35 -14.95 12.35 -14.95 11.35 -16.45 11.35 -16.45 15.35 -8.45 15.35 -8.45 31.85 -10.95 31.85 -10.95 33.85 -15.45 33.85 -15.45 31.85 -18.45 31.85 -18.45 35.35 -31.45 35.35 -31.45 31.85 -33.95 31.85 -33.95 33.85 -38.45 33.85 -38.45 31.85 -41.45 31.85 -41.45 18.35 -42.95 18.35 -42.95 48.85 -52.95 48.85 -52.95 50.85 -68.95 50.85 -68.95 48.85 -77.45 48.85 -77.45 35.35 -78.95 35.35 -78.95 24.85 -77.45 24.85 -77.45 1.85 -42.95 1.85 -42.95 5.35 -41.45 5.35 -41.45 -4.65 -42.95 -4.65 -42.95 -0.15 -77.45 -0.15 -77.45 -7.65 -78.95 -7.65 -78.95 -13.15 -77.45 -13.15 -77.45 -20.15 -42.95 -20.15 -42.95 -17.65 -41.45 -17.65 -41.45 -46.65 -42.95 -46.65 -42.95 -21.65 -77.45 -21.65 -77.45 -42.65 -78.95 -42.65 -78.95 -58.15 -77.45 -58.15 -77.45 -64.15 -42.95 -64.15 -42.95 -59.65 -41.45 -59.65 -41.45 -64.15 -35.45 -64.15 -35.45 -67.15 -37.95 -67.15 -37.95 -66.15 -70.45 -66.15 -70.45 -67.15 -73.45 -67.15 -73.45 -80.15 -70.45 -80.15 -70.45 -81.65 -64.45 -81.65 -64.45 -82.65 -58.95 -82.65 -58.95 -81.65 -37.95 -81.65 -37.95 -80.15 -35.45 -80.15 M-14.95 -18.15 L-4.45 -18.15 -4.45 -19.65 -14.95 -19.65 -14.95 -34.15 -16.45 -34.15 -16.45 -1.65 -14.95 -1.65 -14.95 -18.15 M-4.95 -68.15 L-5.95 -68.15 -5.95 -80.65 -7.45 -80.65 -7.45 -68.15 -14.95 -68.15 -14.95 -80.65 -16.45 -80.65 -16.45 -60.15 -14.95 -60.15 -14.95 -66.65 -4.95 -66.65 -4.95 -68.15" fill="#959595" fill-rule="evenodd" stroke="none"/>
    <path d="M-18.45 32.85 L-18.45 35.35 -31.45 35.35 -31.45 32.85 -18.45 32.85" fill="#ffffff" fill-rule="evenodd" stroke="none"/>
    <path d="M-76.45 49.35 L-76.45 33.85 -54.95 33.85 -54.95 49.35 -76.45 49.35" fill="#6f6f6f" fill-rule="evenodd" stroke="none"/>
    <path d="M-72.45 32.35 L-75.95 32.35 -75.95 25.35 -72.45 25.35 -72.45 32.35" fill="#6f6f6f" fill-rule="evenodd" stroke="none"/>
    <path d="M-70.45 2.35 L-70.45 17.35 -76.95 17.35 -76.95 2.35 -70.45 2.35" fill="#6f6f6f" fill-rule="evenodd" stroke="none"/>
    <path d="M-48.95 31.85 L-48.95 20.35 -42.95 20.35 -42.95 31.85 -48.95 31.85" fill="#6f6f6f" fill-rule="evenodd" stroke="none"/>
    <path d="M-48.95 48.85 L-48.95 32.35 -42.95 32.35 -42.95 48.85 -48.95 48.85" fill="#6f6f6f" fill-rule="evenodd" stroke="none"/>
    <path d="M12.55 22.35 L20.05 21.85 21.05 36.35 14.05 36.85 Q13.55 29.85 12.55 22.35" fill="#6f6f6f" fill-rule="evenodd" stroke="none"/>
    <path d="M-4.95 20.35 L4.05 18.35 8.55 40.85 -0.95 42.85 -4.95 20.35" fill="#6f6f6f" fill-rule="evenodd" stroke="none"/>
    <path d="M24.05 6.35 L16.05 3.85 Q17.55 -0.15 18.55 -4.15 22.55 -2.65 26.55 -1.65 25.55 2.35 24.05 6.35" fill="#6f6f6f" fill-rule="evenodd" stroke="none"/>
    <path d="M22.05 42.85 L30.55 33.85 Q33.05 36.35 35.55 38.35 35.55 42.85 35.05 46.85 L26.55 47.35 22.05 42.85" fill="#6f6f6f" fill-rule="evenodd" stroke="none"/>
    <path d="M-13.95 -6.65 L-13.95 -17.15 -10.45 -17.15 -10.45 -6.65 -13.95 -6.65" fill="#6f6f6f" fill-rule="evenodd" stroke="none"/>
    <path d="M-13.95 -20.15 L-13.95 -32.15 -9.45 -32.15 -9.45 -20.15 -13.95 -20.15" fill="#6f6f6f" fill-rule="evenodd" stroke="none"/>
    <path d="M26.55 -22.65 L36.05 -22.65 36.05 -19.65 26.55 -19.65 26.55 -22.65" fill="#6f6f6f" fill-rule="evenodd" stroke="none"/>
    <path d="M-77.45 -20.15 L-67.95 -20.15 -67.95 -0.15 -77.45 -0.15 -77.45 -20.15" fill="#6f6f6f" fill-rule="evenodd" stroke="none"/>
    <path d="M-56.45 -0.15 L-56.45 -4.65 -50.95 -4.65 -50.95 -0.15 -56.45 -0.15" fill="#6f6f6f" fill-rule="evenodd" stroke="none"/>
    <path d="M-46.45 -0.15 L-46.45 -3.65 -42.95 -3.65 -42.95 -0.15 -46.45 -0.15" fill="#6f6f6f" fill-rule="evenodd" stroke="none"/>
    <path d="M-61.45 -5.65 L-59.95 -5.65 -58.95 -4.65 Q-58.45 -3.65 -58.45 -3.15 -58.45 -2.15 -58.95 -1.65 L-58.45 -1.65 -58.45 -0.15 -62.95 -0.15 -62.95 -1.65 -62.45 -1.65 Q-62.45 -2.15 -62.95 -3.15 -62.45 -3.65 -62.45 -4.65 L-61.45 -5.65" fill="#6f6f6f" fill-rule="evenodd" stroke="none"/>
    <path d="M-52.45 -45.65 L-52.45 -21.65 -71.45 -21.65 -71.45 -45.65 -52.45 -45.65" fill="#6f6f6f" fill-rule="evenodd" stroke="none"/>
    <path d="M-43.95 -26.15 L-43.95 -21.65 -50.95 -21.65 -50.95 -26.15 -43.95 -26.15" fill="#6f6f6f" fill-rule="evenodd" stroke="none"/>
    <path d="M-75.45 -59.65 L-75.45 -64.15 -50.95 -64.15 -50.95 -59.65 -75.45 -59.65" fill="#6f6f6f" fill-rule="evenodd" stroke="none"/>
    <path d="M-44.95 -64.15 L-44.95 -60.65 -48.45 -60.65 -48.45 -64.15 -44.95 -64.15" fill="#6f6f6f" fill-rule="evenodd" stroke="none"/>
    <path d="M-14.95 -68.15 L-14.95 -79.15 -7.45 -79.15 -7.45 -68.15 -14.95 -68.15" fill="#6f6f6f" fill-rule="evenodd" stroke="none"/>
    <path d="M21.05 -69.15 L21.05 -100.15 -9.45 -100.15 -9.45 -107.15 27.55 -107.15 27.55 -69.15 21.05 -69.15" fill="#6f6f6f" fill-rule="evenodd" stroke="none"/>
  </g>
</svg>
