<?xml version="1.0" encoding="UTF-8" standalone="no"?>
<svg xmlns:ffdec="https://www.free-decompiler.com/flash" xmlns:xlink="http://www.w3.org/1999/xlink" ffdec:objectType="shape" height="616.0px" width="511.5px" xmlns="http://www.w3.org/2000/svg">
  <g transform="matrix(1.0, 0.0, 0.0, 1.0, 390.4, 746.95)">
    <path d="M102.1 -283.95 L92.1 -260.45 79.1 -238.45 52.1 -204.45 Q43.6 -195.95 34.6 -187.95 L-3.4 -161.95 -34.9 -146.95 Q-54.9 -141.45 -74.9 -136.45 L-125.9 -130.95 -229.4 -130.95 -229.4 -183.45 -390.4 -183.45 -389.4 -511.95 Q-385.9 -531.95 -382.9 -552.45 -376.9 -572.95 -371.4 -593.95 L-348.4 -639.95 -321.4 -673.45 Q-312.4 -681.45 -303.9 -689.95 L-265.9 -715.95 -234.4 -730.95 Q-214.4 -735.95 -194.4 -741.45 L-153.4 -746.45 Q-96.9 -746.45 -40.4 -746.95 L-40.4 -694.45 121.1 -694.45 120.1 -365.95 Q114.6 -335.95 108.6 -306.45 105.6 -294.95 102.1 -283.95" fill="#424242" fill-rule="evenodd" stroke="none"/>
    <path d="M-227.4 -405.95 L-227.4 -345.95 -248.9 -345.95 -248.9 -343.45 -258.4 -343.45 -258.4 -345.95 -275.4 -345.95 -275.4 -405.95 -227.4 -405.95" fill="#6f6f6f" fill-rule="evenodd" stroke="none"/>
    <path d="M-229.4 -348.45 L-243.4 -348.45 -243.4 -403.45 -229.4 -403.45 -229.4 -348.45" fill="#939393" fill-rule="evenodd" stroke="none"/>
  </g>
</svg>
