<?xml version="1.0" encoding="UTF-8" standalone="no"?>
<svg xmlns:ffdec="https://www.free-decompiler.com/flash" xmlns:xlink="http://www.w3.org/1999/xlink" ffdec:objectType="shape" height="42.0px" width="93.1px" xmlns="http://www.w3.org/2000/svg">
  <g transform="matrix(1.0, 0.0, 0.0, 1.0, -3.5, 1.0)">
    <path d="M7.3 -1.0 L92.55 -1.0 Q96.6 -1.0 96.6 3.1 L96.6 37.1 Q96.6 41.0 92.55 41.0 L7.3 41.0 Q3.5 41.0 3.5 37.1 L3.5 3.1 Q3.5 -1.05 7.3 -1.0" fill="#858585" fill-rule="evenodd" stroke="none"/>
    <path d="M95.6 3.1 L95.6 36.1 Q95.6 37.45 94.8 38.25 94.0 39.0 92.55 39.0 L7.3 39.0 Q6.0 39.0 5.25 38.25 4.5 37.45 4.5 36.1 L4.5 3.1 Q4.5 0.0 7.3 0.0 L92.55 0.0 Q95.6 0.0 95.6 3.1" fill="#f0f0f0" fill-rule="evenodd" stroke="none"/>
  </g>
</svg>
