<?xml version="1.0" encoding="UTF-8" standalone="no"?>
<svg xmlns:ffdec="https://www.free-decompiler.com/flash" xmlns:xlink="http://www.w3.org/1999/xlink" ffdec:objectType="shape" height="24.8px" width="624.0px" xmlns="http://www.w3.org/2000/svg">
  <g transform="matrix(1.0, 0.0, 0.0, 1.0, -0.75, -0.25)">
    <path d="M7.15 25.05 Q4.5 25.05 2.65 23.1 0.75 21.05 0.75 18.25 L0.75 7.0 Q0.75 4.2 2.65 2.2 4.6 0.25 7.2 0.25 L624.75 0.25 624.75 25.05 622.8 25.05 622.8 2.95 7.2 2.95 Q5.2 2.95 3.75 4.45 2.25 6.05 2.25 8.2 L2.25 19.45 Q2.25 21.65 3.7 23.2 L3.75 23.2 Q5.5 24.95 7.15 25.05" fill="#e0e0e0" fill-rule="evenodd" stroke="none"/>
    <path d="M7.15 25.05 Q5.5 24.95 3.75 23.2 L3.7 23.2 Q2.25 21.65 2.25 19.45 L2.25 8.2 Q2.25 6.05 3.75 4.45 5.2 2.95 7.2 2.95 L622.8 2.95 622.8 25.05 7.15 25.05" fill="#ffffff" fill-rule="evenodd" stroke="none"/>
  </g>
</svg>
