<?xml version="1.0" encoding="UTF-8" standalone="no"?>
<svg xmlns:ffdec="https://www.free-decompiler.com/flash" xmlns:xlink="http://www.w3.org/1999/xlink" ffdec:objectType="shape" height="27.0px" width="36.15px" xmlns="http://www.w3.org/2000/svg">
  <g transform="matrix(1.0, 0.0, 0.0, 1.0, 0.0, 0.0)">
    <path d="M31.65 25.6 L27.15 21.1 36.15 21.1 31.65 25.6 M24.9 13.5 Q24.9 8.8 21.6 5.5 18.25 2.2 13.5 2.2 8.8 2.2 5.5 5.5 2.2 8.8 2.2 13.5 2.2 18.25 5.5 21.6 8.8 24.9 13.5 24.9 18.25 24.9 21.6 21.6 24.9 18.25 24.9 13.5 M27.1 13.5 Q27.1 19.15 23.1 23.1 19.15 27.0 13.5 27.0 7.95 27.0 4.0 23.1 0.0 19.15 0.0 13.5 0.0 7.95 4.0 4.0 7.95 0.0 13.5 0.0 19.15 0.0 23.1 4.0 27.1 7.95 27.1 13.5 M14.95 5.95 L14.95 12.45 19.35 16.9 17.35 18.9 12.1 13.5 12.1 5.95 14.95 5.95" fill="#ffffff" fill-rule="evenodd" stroke="none"/>
  </g>
</svg>
