<?xml version="1.0" encoding="UTF-8" standalone="no"?>
<svg xmlns:ffdec="https://www.free-decompiler.com/flash" xmlns:xlink="http://www.w3.org/1999/xlink" ffdec:objectType="shape" height="16.1px" width="414.2px" xmlns="http://www.w3.org/2000/svg">
  <g transform="matrix(1.0, 0.0, 0.0, 1.0, 0.2, 0.15)">
    <path d="M-0.2 5.0 L-0.2 4.05 0.0 3.0 Q0.0 2.7 0.35 2.15 0.9 1.15 1.9 0.55 2.9 -0.1 4.1 -0.1 L409.7 -0.15 Q411.5 -0.15 412.75 1.1 414.0 2.35 414.0 4.0 L414.0 4.95 413.5 4.95 Q413.5 3.35 412.4 2.25 411.3 1.15 409.7 1.15 L4.1 1.2 Q2.5 1.2 1.4 2.3 0.3 3.4 0.3 5.0 L-0.2 5.0" fill="#d7d7d7" fill-rule="evenodd" stroke="none"/>
    <path d="M414.0 4.95 L414.0 5.75 413.5 5.75 Q413.5 4.15 412.4 3.05 411.3 1.95 409.7 1.95 L4.1 2.0 Q2.5 2.0 1.4 3.1 0.3 4.2 0.3 5.8 L-0.2 5.8 -0.2 5.0 0.3 5.0 Q0.3 3.4 1.4 2.3 2.5 1.2 4.1 1.2 L409.7 1.15 Q411.3 1.15 412.4 2.25 413.5 3.35 413.5 4.95 L414.0 4.95" fill="#f4f4f4" fill-rule="evenodd" stroke="none"/>
    <path d="M414.0 5.75 L414.0 11.6 Q414.0 13.35 412.75 14.65 411.5 15.9 409.7 15.9 L4.1 15.95 Q2.35 15.95 1.05 14.7 -0.2 13.4 -0.2 11.6 L-0.2 5.8 0.3 5.8 Q0.3 4.2 1.4 3.1 2.5 2.0 4.1 2.0 L409.7 1.95 Q411.3 1.95 412.4 3.05 413.5 4.15 413.5 5.75 L414.0 5.75" fill="#ffffff" fill-rule="evenodd" stroke="none"/>
  </g>
</svg>
