<?xml version="1.0" encoding="UTF-8" standalone="no"?>
<svg xmlns:ffdec="https://www.free-decompiler.com/flash" xmlns:xlink="http://www.w3.org/1999/xlink" ffdec:objectType="shape" height="18.0px" width="24.0px" xmlns="http://www.w3.org/2000/svg">
  <g transform="matrix(1.0, 0.0, 0.0, 1.0, 0.0, 0.0)">
    <path d="M24.0 18.0 L0.0 18.0 0.0 0.0 24.0 0.0 24.0 18.0" fill="#9e9e9b" fill-opacity="0.0" fill-rule="evenodd" stroke="none"/>
    <path d="M16.2 2.7 L16.25 2.75 16.5 3.45 16.2 4.15 11.35 8.95 11.8 9.4 16.2 13.75 16.5 14.45 16.25 15.15 15.0 16.4 14.25 16.7 13.55 16.4 7.3 10.1 6.85 9.65 6.55 8.95 6.85 8.25 13.6 1.5 14.35 1.2 15.05 1.5 16.2 2.7" fill="#454545" fill-rule="evenodd" stroke="none"/>
    <path d="M16.2 2.7 L15.95 2.4 16.7 3.2 16.95 3.9 16.65 4.6 11.8 9.4 11.35 8.95 16.2 4.15 16.5 3.45 16.25 2.75 16.2 2.7 M16.2 13.75 L16.65 14.2 16.95 14.9 16.7 15.6 15.45 16.85 14.7 17.15 14.0 16.85 13.55 16.4 14.25 16.7 15.0 16.4 16.25 15.15 16.5 14.45 16.2 13.75" fill="#000000" fill-opacity="0.64705884" fill-rule="evenodd" stroke="none"/>
  </g>
</svg>
