<?xml version="1.0" encoding="UTF-8" standalone="no"?>
<svg xmlns:ffdec="https://www.free-decompiler.com/flash" xmlns:xlink="http://www.w3.org/1999/xlink" ffdec:objectType="shape" height="18.0px" width="24.0px" xmlns="http://www.w3.org/2000/svg">
  <g transform="matrix(1.0, 0.0, 0.0, 1.0, 0.0, 0.0)">
    <path d="M24.0 18.0 L0.0 18.0 0.0 0.0 24.0 0.0 24.0 18.0" fill="#9e9e9b" fill-opacity="0.0" fill-rule="evenodd" stroke="none"/>
    <path d="M8.25 16.4 L7.35 15.5 7.0 15.15 6.75 14.45 7.05 13.75 11.45 9.4 11.9 8.95 7.4 4.5 7.05 4.15 6.75 3.45 7.0 2.75 8.2 1.5 8.9 1.2 9.65 1.5 9.9 1.75 10.0 1.85 10.25 2.1 16.4 8.25 16.7 8.95 16.4 9.65 15.95 10.1 9.7 16.4 9.0 16.7 8.45 16.5 8.25 16.4" fill="#454545" fill-rule="evenodd" stroke="none"/>
    <path d="M16.4 8.25 L16.75 8.6 17.05 9.3 16.75 10.0 16.3 10.45 10.05 16.75 9.35 17.05 8.8 16.85 8.6 16.75 8.25 16.4 8.45 16.5 9.0 16.7 9.7 16.4 15.95 10.1 16.4 9.65 16.7 8.95 16.4 8.25" fill="#000000" fill-opacity="0.64705884" fill-rule="evenodd" stroke="none"/>
  </g>
</svg>
