<?xml version="1.0" encoding="UTF-8" standalone="no"?>
<svg xmlns:ffdec="https://www.free-decompiler.com/flash" xmlns:xlink="http://www.w3.org/1999/xlink" ffdec:objectType="shape" height="18.0px" width="24.0px" xmlns="http://www.w3.org/2000/svg">
  <g transform="matrix(1.0, 0.0, 0.0, 1.0, 0.0, 0.0)">
    <path d="M24.0 18.0 L0.0 18.0 0.0 0.0 24.0 0.0 24.0 18.0" fill="#9e9e9b" fill-opacity="0.0" fill-rule="evenodd" stroke="none"/>
    <path d="M20.35 9.5 L20.35 10.15 19.95 10.6 19.35 10.75 18.3 10.75 18.3 15.75 18.0 16.45 17.3 16.75 13.3 16.75 12.6 16.45 12.35 16.0 12.05 16.45 11.35 16.75 7.3 16.75 6.6 16.45 6.3 15.75 6.3 10.75 5.3 10.75 4.8 10.6 4.4 10.2 4.35 9.6 4.75 9.0 11.6 3.05 12.3 2.7 13.0 3.0 14.3 4.15 14.3 2.8 14.6 2.1 15.3 1.8 17.25 1.8 17.95 2.1 18.25 2.8 18.25 7.55 20.05 9.05 20.35 9.5" fill="#000000" fill-opacity="0.64705884" fill-rule="evenodd" stroke="none"/>
    <path d="M16.9 1.45 L17.6 1.75 17.9 2.45 17.9 7.2 19.7 8.7 20.0 9.15 20.0 9.8 19.6 10.25 19.0 10.4 17.95 10.4 17.95 15.4 17.65 16.1 16.95 16.4 12.95 16.4 12.25 16.1 12.0 15.65 11.7 16.1 11.0 16.4 6.95 16.4 6.25 16.1 5.95 15.4 5.95 10.4 4.95 10.4 4.45 10.25 4.05 9.85 4.0 9.25 4.4 8.65 11.25 2.7 11.95 2.35 12.65 2.65 13.95 3.8 13.95 2.45 14.25 1.75 14.95 1.45 16.9 1.45" fill="#454545" fill-rule="evenodd" stroke="none"/>
  </g>
</svg>
