<?xml version="1.0" encoding="UTF-8" standalone="no"?>
<svg xmlns:ffdec="https://www.free-decompiler.com/flash" xmlns:xlink="http://www.w3.org/1999/xlink" ffdec:objectType="shape" height="18.0px" width="24.1px" xmlns="http://www.w3.org/2000/svg">
  <g transform="matrix(1.0, 0.0, 0.0, 1.0, 0.0, 0.0)">
    <path d="M24.0 18.0 L0.0 18.0 0.0 0.0 24.0 0.0 24.0 18.0" fill="#9e9e9b" fill-opacity="0.0" fill-rule="evenodd" stroke="none"/>
    <path d="M23.6 10.9 L23.8 11.4 23.5 12.1 20.5 15.1 19.8 15.4 19.1 15.1 16.4 12.4 16.1 12.1 15.8 11.4 16.1 10.7 16.8 10.4 22.8 10.4 23.5 10.7 23.6 10.9 M22.5 11.7 L22.8 11.4 16.8 11.4 17.1 11.7 19.8 14.4 22.5 11.7 M4.15 12.9 L3.95 12.7 Q2.4 11.1 2.4 8.85 2.4 6.55 3.95 4.95 5.55 3.35 7.85 3.35 10.1 3.35 11.7 4.95 L11.85 5.1 Q13.3 6.65 13.3 8.85 13.3 11.1 11.7 12.7 10.1 14.3 7.85 14.3 5.65 14.3 4.15 12.9 M12.55 4.4 L12.4 4.25 Q10.5 2.35 7.8 2.35 5.1 2.35 3.2 4.25 1.3 6.15 1.3 8.85 1.3 11.55 3.2 13.45 L3.35 13.6 Q5.2 15.35 7.8 15.35 10.5 15.35 12.4 13.45 14.3 11.55 14.3 8.85 14.3 6.25 12.55 4.4 M2.65 14.3 L2.5 14.15 Q0.3 11.95 0.3 8.85 0.3 5.75 2.5 3.55 4.7 1.35 7.8 1.35 10.9 1.35 13.1 3.55 L13.25 3.7 Q15.3 5.85 15.3 8.85 15.3 11.95 13.1 14.15 10.9 16.35 7.8 16.35 4.8 16.35 2.65 14.3 M11.15 5.8 L11.0 5.65 Q10.0 4.65 8.65 4.45 L9.0 4.65 9.05 4.8 9.1 4.85 9.3 5.35 9.3 8.5 9.6 8.8 11.1 10.3 11.4 11.0 11.1 11.7 10.4 12.4 9.7 12.7 9.0 12.4 6.95 10.3 6.65 10.0 6.35 9.3 6.35 5.35 6.55 4.95 6.65 4.65 7.0 4.45 Q5.65 4.65 4.65 5.65 3.4 6.95 3.4 8.85 3.4 10.7 4.65 12.0 L4.85 12.2 Q6.1 13.3 7.85 13.3 L9.75 12.9 Q10.45 12.55 11.0 12.0 L11.65 11.2 Q12.3 10.15 12.3 8.85 12.3 7.05 11.15 5.8 M8.3 5.65 L8.3 5.35 7.35 5.35 7.35 9.3 7.65 9.6 9.7 11.7 10.4 11.0 8.3 8.9 8.3 5.65" fill="#454545" fill-rule="evenodd" stroke="none"/>
    <path d="M23.6 10.9 L23.8 11.0 24.1 11.7 23.8 12.4 20.8 15.4 20.1 15.7 19.4 15.4 19.1 15.1 19.8 15.4 20.5 15.1 23.5 12.1 23.8 11.4 23.6 10.9 M17.1 11.7 L16.8 11.4 22.8 11.4 22.5 11.7 17.1 11.7 M11.85 5.1 L12.0 5.25 Q13.6 6.85 13.6 9.15 13.6 11.4 12.0 13.0 10.4 14.6 8.15 14.6 5.85 14.6 4.25 13.0 L4.15 12.9 Q5.65 14.3 7.85 14.3 10.1 14.3 11.7 12.7 13.3 11.1 13.3 8.85 13.3 6.65 11.85 5.1 M3.35 13.6 L3.2 13.45 Q1.3 11.55 1.3 8.85 1.3 6.15 3.2 4.25 5.1 2.35 7.8 2.35 10.5 2.35 12.4 4.25 L12.55 4.4 Q10.7 2.65 8.1 2.65 5.4 2.65 3.5 4.55 1.6 6.45 1.6 9.15 1.6 11.75 3.35 13.6 M13.25 3.7 L13.4 3.85 Q15.6 6.05 15.6 9.15 15.6 12.25 13.4 14.45 11.2 16.65 8.1 16.65 5.0 16.65 2.8 14.45 L2.65 14.3 Q4.8 16.35 7.8 16.35 10.9 16.35 13.1 14.15 15.3 11.95 15.3 8.85 15.3 5.85 13.25 3.7 M9.05 4.8 L9.0 4.65 8.65 4.45 Q10.0 4.65 11.0 5.65 L11.15 5.8 Q10.25 4.95 9.05 4.8 M11.65 11.2 L11.0 12.0 Q10.45 12.55 9.75 12.9 L9.3 12.7 9.0 12.4 9.7 12.7 10.4 12.4 11.1 11.7 11.4 11.0 11.1 10.3 11.4 10.6 11.65 11.2 M4.85 12.2 L4.65 12.0 Q3.4 10.7 3.4 8.85 3.4 6.95 4.65 5.65 5.65 4.65 7.0 4.45 L6.65 4.65 6.55 4.95 Q5.65 5.25 4.95 5.95 3.7 7.25 3.7 9.15 3.7 10.9 4.85 12.2 M9.6 8.8 L9.3 8.5 9.3 5.35 9.1 4.85 9.3 4.95 9.6 5.65 9.6 8.8 M7.65 9.6 L7.35 9.3 7.35 5.35 8.3 5.35 8.3 5.65 7.65 5.65 7.65 9.6" fill="#000000" fill-opacity="0.64705884" fill-rule="evenodd" stroke="none"/>
  </g>
</svg>
