<?xml version="1.0" encoding="UTF-8" standalone="no"?>
<svg xmlns:ffdec="https://www.free-decompiler.com/flash" xmlns:xlink="http://www.w3.org/1999/xlink" ffdec:objectType="shape" height="13.0px" width="21.5px" xmlns="http://www.w3.org/2000/svg">
  <g transform="matrix(1.0, 0.0, 0.0, 1.0, -1.3, -2.35)">
    <path d="M14.3 8.85 Q14.3 11.55 12.4 13.45 10.5 15.35 7.8 15.35 5.1 15.35 3.2 13.45 1.3 11.55 1.3 8.85 1.3 6.15 3.2 4.25 5.1 2.35 7.8 2.35 10.5 2.35 12.4 4.25 14.3 6.15 14.3 8.85 M11.7 4.95 Q10.1 3.35 7.85 3.35 5.55 3.35 3.95 4.95 2.4 6.55 2.4 8.85 2.4 11.1 3.95 12.7 5.55 14.3 7.85 14.3 10.1 14.3 11.7 12.7 13.3 11.1 13.3 8.85 13.3 6.55 11.7 4.95 M8.3 5.35 L8.3 8.9 10.4 11.0 9.7 11.7 7.35 9.3 7.35 5.35 8.3 5.35 M16.8 11.4 L22.8 11.4 19.8 14.4 16.8 11.4" fill="#9e9e9b" fill-rule="evenodd" stroke="none"/>
  </g>
</svg>
