<?xml version="1.0" encoding="UTF-8" standalone="no"?>
<svg xmlns:ffdec="https://www.free-decompiler.com/flash" xmlns:xlink="http://www.w3.org/1999/xlink" ffdec:objectType="shape" height="24.15px" width="622.15px" xmlns="http://www.w3.org/2000/svg">
  <g transform="matrix(1.0, 0.0, 0.0, 1.0, -1.4, -2.55)">
    <path d="M617.05 26.65 L7.85 26.7 Q5.2 26.7 3.3 24.8 1.4 22.85 1.4 20.15 L1.4 11.45 1.4 10.25 1.4 8.85 1.7 7.3 Q1.7 6.85 2.2 6.0 3.05 4.45 4.55 3.6 6.05 2.6 7.85 2.6 L617.05 2.55 Q619.75 2.55 621.65 4.4 623.55 6.3 623.55 8.75 L623.55 10.2 623.55 11.4 623.55 20.15 Q623.55 22.8 621.65 24.75 619.75 26.65 617.05 26.65" fill="#000000" fill-opacity="0.64705884" fill-rule="evenodd" stroke="none"/>
  </g>
</svg>
