<?xml version="1.0" encoding="UTF-8" standalone="no"?>
<svg xmlns:ffdec="https://www.free-decompiler.com/flash" xmlns:xlink="http://www.w3.org/1999/xlink" ffdec:objectType="shape" height="629.6px" width="1229.5px" xmlns="http://www.w3.org/2000/svg">
  <g transform="matrix(1.0, 0.0, 0.0, 1.0, 104.1, 367.7)">
    <path d="M923.8 -42.2 L925.7 -42.7 937.4 -48.1 950.4 -52.8 955.5 -56.3 962.8 -59.5 968.1 -63.1 974.6 -64.7 976.0 -65.3 976.0 -65.0 988.6 -68.0 995.7 -68.6 1032.0 -65.3 1042.5 -56.1 1051.0 -53.3 1067.6 -43.0 1079.0 -33.5 1090.1 -19.4 1098.1 -4.9 1104.1 9.3 1105.7 18.1 1107.6 18.3 1125.4 32.5 1110.8 44.7 1113.5 58.6 1106.1 59.4 1104.6 76.2 1080.1 56.2 1058.1 86.4 1054.6 64.9 1056.1 56.3 1048.9 14.7 1044.4 12.1 1039.4 12.1 1023.0 2.8 1015.1 -0.6 1004.5 -2.4 993.9 -2.5 981.2 1.1 974.1 1.6 960.6 -2.6 946.9 2.4 926.8 11.7 920.6 16.4 914.7 22.2 909.3 29.7 889.7 48.0 878.6 64.5 894.3 77.9 897.6 80.2 904.9 87.7 909.2 90.2 930.6 107.9 906.2 154.2 880.1 139.4 870.5 132.8 811.1 82.2 798.3 97.6 793.4 93.5 790.3 97.2 790.8 97.7 781.2 108.2 788.3 114.3 781.2 122.6 781.3 122.7 770.7 135.2 774.3 138.2 757.2 158.4 746.2 149.3 736.1 161.3 759.1 179.9 755.2 184.7 764.5 195.0 776.5 212.3 782.1 210.6 795.2 238.5 788.5 242.6 791.1 249.2 772.4 241.8 766.8 261.9 763.1 255.2 755.9 258.7 742.1 229.2 746.5 226.6 740.3 217.3 734.5 210.3 734.4 210.2 731.7 213.4 707.7 195.3 698.0 207.0 681.9 193.6 668.8 209.0 634.9 181.3 648.7 165.3 642.7 159.9 652.6 148.0 632.0 128.5 635.5 124.9 626.9 118.1 621.7 115.9 618.8 114.0 616.9 119.2 585.8 106.6 587.4 102.0 559.0 91.3 558.7 91.3 532.1 98.0 516.1 104.2 510.5 107.2 509.0 108.9 506.1 113.1 503.6 118.4 494.4 153.3 499.0 154.6 489.8 187.1 485.1 185.7 484.3 187.3 491.7 196.7 489.3 205.0 493.2 206.9 488.3 215.5 485.9 214.2 484.8 216.3 488.4 218.7 478.4 230.7 470.8 223.7 464.9 228.0 450.6 215.8 425.8 197.8 415.5 191.6 415.4 191.7 396.5 181.9 396.6 181.3 366.0 168.0 349.5 162.5 338.7 159.9 338.2 160.6 320.5 156.6 320.5 156.7 301.5 153.6 301.0 152.9 281.0 151.7 254.2 152.4 254.1 153.1 229.9 155.1 200.9 161.2 159.0 173.8 139.6 176.7 123.6 176.5 101.1 174.0 64.5 164.6 67.4 156.7 52.5 150.8 32.1 139.6 24.5 134.3 18.2 140.9 6.8 127.4 -3.6 112.4 -11.6 98.0 -15.8 88.2 -36.9 91.6 -54.2 -133.2 -51.7 -133.4 -57.1 -193.3 -55.9 -193.4 -59.1 -214.2 -52.9 -214.6 -52.8 -217.6 -54.3 -228.1 -55.0 -241.9 -57.3 -252.1 -57.0 -261.7 -54.1 -275.8 -51.3 -281.7 -48.4 -286.2 -40.8 -295.8 -39.5 -297.1 -59.0 -294.9 -77.2 -291.0 -91.1 -283.2 -104.1 -315.1 -83.1 -325.7 -62.3 -333.9 -31.5 -336.2 -5.9 -332.2 -5.9 -356.3 -1.9 -356.3 -1.9 -367.7 15.8 -349.7 33.4 -367.7 33.4 -356.3 37.8 -356.3 37.8 -333.7 46.2 -333.8 46.1 -339.2 79.6 -340.2 80.8 -296.3 47.3 -295.4 47.2 -300.4 17.1 -299.7 4.2 -290.8 -10.3 -279.2 -21.2 -268.5 -21.8 -267.5 -23.0 -264.4 -23.9 -260.5 -24.3 -253.0 -20.2 -218.2 -20.0 -217.5 -14.5 -217.9 -12.6 -197.8 0.3 -199.1 0.4 -198.4 4.2 -198.7 7.2 -165.3 8.7 -165.3 20.4 -166.5 21.5 -157.8 81.0 -163.7 93.4 -163.6 104.7 -162.2 117.2 -158.9 131.2 -152.8 142.6 -146.2 153.6 -138.0 169.1 -122.3 179.5 -107.4 190.6 -85.8 198.1 -65.6 207.2 -56.4 220.0 -52.7 272.2 -45.1 323.0 -46.0 328.8 -0.6 273.6 0.4 208.8 -7.8 199.6 -10.4 Q187.9 -15.4 176.1 -20.5 L168.3 -4.9 166.1 2.5 169.7 2.5 169.7 22.5 492.1 22.5 492.1 14.7 528.7 14.7 528.7 45.8 556.2 54.9 564.6 32.6 598.9 45.4 591.4 65.3 592.0 65.5 591.0 68.1 598.7 70.8 600.6 65.4 633.2 78.2 632.2 83.7 647.4 92.6 658.5 101.1 662.5 97.0 680.9 114.3 688.7 104.2 664.2 83.2 687.6 54.0 713.6 75.4 733.0 52.5 732.4 52.0 736.9 45.3 733.2 41.6 795.2 -33.8 850.3 14.0 871.1 -1.8 883.2 -17.6 884.1 -22.8 889.0 -32.6 902.7 -41.3 923.8 -42.2" fill="#000000" fill-rule="evenodd" stroke="none"/>
    <path d="M481.8 110.9 L480.2 110.2 474.7 130.0 476.2 130.6 476.4 129.8 480.3 119.0 481.8 110.9 M259.5 110.7 L259.5 80.9 256.7 80.9 256.7 110.7 202.2 110.7 202.2 112.4 205.8 112.4 205.8 125.2 201.1 125.2 198.7 126.1 198.7 131.9 216.0 127.4 214.9 121.8 236.2 118.4 275.4 116.3 275.3 122.5 305.0 123.8 305.8 117.8 330.6 121.5 359.8 128.8 357.9 135.0 362.9 136.7 364.7 136.6 370.5 138.8 371.8 139.1 372.4 139.8 382.7 143.6 384.4 143.9 400.1 149.9 402.2 145.3 403.4 145.1 426.9 157.0 460.4 178.7 461.7 179.2 462.9 177.5 465.1 177.2 467.1 170.3 459.9 168.3 463.7 155.1 467.7 156.2 472.4 145.0 475.0 135.8 473.3 135.0 472.1 139.5 452.8 134.0 463.7 95.5 482.8 100.7 481.1 106.8 483.1 107.6 483.1 107.5 488.5 97.5 493.0 92.2 499.5 87.0 504.9 84.0 528.5 74.5 531.5 73.8 532.2 72.5 532.2 71.7 531.9 71.0 530.9 70.3 503.7 61.8 478.2 55.1 478.2 59.9 464.4 59.9 464.4 52.7 456.2 52.7 456.2 73.2 467.9 73.2 467.9 86.7 456.2 86.7 456.2 110.8 367.4 110.8 367.4 89.3 364.0 89.3 364.0 110.7 259.5 110.7 M84.5 -121.5 L84.4 -121.3 28.9 -115.8 15.7 -116.1 15.7 -115.8 15.2 -114.6 1.7 -113.9 7.7 -34.1 18.6 75.1 17.6 75.2 27.2 95.7 35.4 105.4 40.7 109.9 53.2 118.2 82.4 131.9 94.2 135.7 116.9 140.4 125.7 141.2 144.2 140.7 170.7 133.2 173.1 138.5 189.8 134.2 189.8 134.0 189.4 126.0 187.2 125.2 181.9 125.2 181.9 112.4 186.4 112.4 186.4 110.7 136.4 110.7 136.4 34.4 143.2 34.4 143.2 26.4 135.7 26.4 135.7 12.5 140.2 12.5 140.2 8.8 141.2 -1.3 144.0 -13.3 159.2 -49.2 156.4 -55.6 154.4 -58.6 151.6 -67.6 141.9 -87.5 133.9 -98.6 124.2 -107.1 111.4 -114.8 103.7 -118.1 97.7 -119.8 85.7 -121.1 84.5 -121.5 M929.2 -33.3 L941.2 -38.8 955.0 -43.8 960.4 -47.5 967.2 -50.5 967.2 -50.4 972.2 -53.8 990.2 -58.1 995.7 -58.6 1027.8 -55.6 1037.4 -47.2 1046.8 -44.2 1061.8 -34.8 1071.8 -26.5 1081.8 -13.8 1089.1 -0.5 1094.4 12.2 1097.3 27.5 1103.8 28.0 1109.6 32.7 1106.4 35.3 1103.1 31.3 1098.0 31.8 1101.6 49.8 1095.4 50.5 1092.5 55.4 1095.9 60.5 1095.3 68.0 1066.3 74.3 1064.8 65.0 1066.3 56.3 1058.7 12.7 1055.0 3.4 1052.3 5.2 1047.2 2.1 1042.0 2.1 1027.5 -6.1 1018.0 -10.3 1005.4 -12.4 992.6 -12.6 979.5 -8.8 975.3 -8.5 972.0 -9.5 972.3 -10.2 971.5 -13.1 970.6 -12.7 969.9 -13.8 970.0 -16.2 943.2 -6.8 921.5 3.2 914.0 8.8 907.0 15.7 901.7 23.2 890.2 34.7 888.5 35.5 888.7 36.2 882.4 40.9 867.7 62.9 863.9 65.2 888.2 85.9 891.2 87.9 898.7 95.7 903.4 98.4 917.9 110.4 902.2 140.4 885.4 130.9 876.7 124.9 812.9 70.7 809.5 68.6 797.0 83.5 788.7 76.5 783.9 82.2 775.5 75.2 772.2 77.3 770.7 76.3 767.6 80.0 767.7 80.0 780.4 91.7 775.2 98.5 771.7 95.8 761.1 108.4 762.3 109.5 764.4 107.0 774.2 115.4 767.9 122.9 758.0 114.5 760.0 112.2 758.8 111.2 754.3 116.9 755.3 117.9 757.4 115.4 767.2 123.8 760.9 131.3 751.0 122.9 753.0 120.6 752.0 119.7 745.8 127.3 760.2 139.4 755.9 144.4 745.0 135.3 734.9 147.2 726.6 140.4 721.1 145.5 730.1 152.9 717.7 167.8 729.8 178.6 734.5 172.8 745.0 181.3 742.8 184.1 742.7 186.3 756.7 201.3 772.2 224.0 776.7 222.7 782.4 234.7 776.2 238.5 778.5 244.5 770.9 248.5 767.9 243.0 766.4 242.7 760.7 245.3 755.0 233.2 758.7 231.0 756.9 224.2 748.4 211.3 736.4 198.2 732.7 196.4 730.0 199.7 719.2 191.5 723.9 185.8 711.7 174.9 696.7 192.9 678.9 178.0 680.4 175.7 677.0 172.9 671.3 179.7 676.2 184.9 667.6 195.0 649.2 180.0 658.1 169.8 664.2 173.7 669.6 166.8 667.1 164.8 665.3 166.8 656.6 158.9 671.4 141.1 666.6 137.7 662.1 132.9 661.7 132.6 661.4 132.9 655.9 137.4 646.2 128.2 649.6 124.6 648.3 123.9 646.8 121.5 631.9 109.4 626.4 107.0 621.3 103.7 615.4 101.8 612.8 101.3 611.1 106.0 598.4 100.9 600.9 94.1 593.6 91.2 592.9 93.3 560.4 81.2 558.2 81.3 556.9 81.5 529.0 88.5 506.5 97.7 503.7 99.8 497.4 108.2 494.2 114.9 485.7 146.2 482.7 160.3 482.7 160.4 486.7 161.5 482.9 174.8 475.7 172.7 473.9 180.5 476.2 181.2 472.5 188.5 477.2 194.4 476.2 195.1 477.3 198.8 479.8 202.3 478.1 205.9 471.4 202.4 468.3 207.7 466.9 207.7 466.3 210.6 463.6 213.8 443.2 197.5 415.9 180.3 415.4 180.5 407.4 176.3 407.5 175.8 392.7 168.3 369.4 158.6 352.3 152.9 334.6 148.6 334.4 148.7 333.8 148.6 333.4 149.3 324.7 147.3 324.7 146.4 316.5 145.1 316.0 145.8 307.2 144.4 306.6 143.5 281.2 141.7 245.9 143.0 245.8 143.6 228.4 145.2 190.1 153.8 156.7 164.0 139.0 166.7 113.4 165.7 103.0 164.2 77.7 157.7 80.0 151.3 56.7 141.7 37.4 131.2 23.4 120.9 18.7 125.9 4.9 107.2 -2.6 93.7 -9.3 78.2 -9.3 77.6 -22.7 78.8 -31.6 -20.3 -34.6 -20.1 -35.7 -31.2 -32.6 -31.5 -35.4 -63.3 -38.4 -63.1 -39.6 -74.2 -36.4 -74.5 -39.5 -109.5 -42.1 -109.3 -43.4 -124.1 -40.9 -124.4 -46.2 -184.2 -37.3 -185.0 -37.3 -185.1 -38.1 -189.8 -38.1 -191.3 -39.1 -191.6 -45.6 -191.6 -47.6 -204.8 -43.1 -205.1 -42.8 -218.1 -45.1 -243.1 -47.3 -253.1 -47.1 -260.6 -44.6 -272.6 -42.6 -276.8 -33.3 -289.1 -18.3 -303.1 -15.1 -305.3 -14.1 -307.1 -14.8 -308.3 -16.3 -308.6 -30.8 -308.3 -60.6 -304.8 -71.1 -302.6 -71.8 -304.5 Q-77.5 -301.9 -83.3 -299.4 L-83.6 -295.3 -82.9 -293.6 -85.6 -291.8 -96.0 -311.8 -92.1 -313.7 -91.3 -312.4 -88.1 -310.1 -75.9 -314.6 -76.8 -316.8 -70.6 -318.1 -52.3 -319.3 -52.3 -323.1 -35.8 -321.8 -36.1 -320.6 10.8 -323.1 11.2 -326.1 11.4 -326.1 11.4 -332.6 4.1 -332.6 4.1 -346.3 8.1 -346.3 8.1 -357.7 23.4 -357.7 23.4 -346.3 27.8 -346.3 27.8 -332.6 20.2 -332.6 20.2 -326.1 27.9 -326.1 28.1 -323.6 48.6 -323.8 48.6 -322.2 56.6 -322.2 56.4 -329.5 69.9 -329.9 70.5 -306.0 57.0 -305.6 56.8 -313.0 49.0 -313.0 49.1 -310.5 13.9 -309.6 -1.8 -298.8 -17.1 -286.6 -28.8 -275.1 -30.8 -272.1 -32.6 -267.3 -33.8 -262.1 -34.3 -252.3 -30.1 -216.6 -28.1 -207.1 -23.6 -207.3 -22.3 -193.6 -29.3 -192.3 -29.1 -187.1 -28.8 -185.8 -4.9 -187.9 -2.0 -155.3 9.2 -155.3 11.7 -155.6 13.4 -141.6 27.7 -141.6 27.7 -148.3 81.4 -153.7 92.7 -153.6 102.8 -152.3 113.9 -149.5 126.7 -143.8 137.1 -137.8 147.2 -130.3 153.9 -124.2 166.2 -109.7 170.7 -102.6 181.4 -81.6 185.4 -71.0 179.4 -68.3 179.4 -67.9 189.9 -53.3 Q196.8 -50.1 203.7 -47.0 L217.7 -43.0 232.9 -40.1 271.7 -35.1 314.2 -35.8 317.4 -10.3 273.9 -9.6 240.4 -13.1 210.9 -17.6 202.9 -19.8 173.9 -32.6 172.3 -35.1 159.0 -8.6 155.7 2.3 155.2 12.5 159.7 12.5 159.7 26.4 152.2 26.4 152.2 34.4 201.7 34.4 201.7 32.4 233.4 32.4 233.4 34.4 256.7 34.4 256.7 63.3 259.5 63.3 259.5 34.7 364.0 34.7 364.0 56.1 367.4 56.1 367.4 34.8 392.7 34.8 392.7 31.5 424.2 31.5 424.2 34.8 456.2 34.8 456.2 43.4 464.4 43.4 464.4 35.7 478.2 35.7 478.2 40.3 480.0 41.0 501.5 47.4 501.5 45.9 510.0 45.9 510.0 43.8 512.3 43.8 512.3 43.3 502.1 43.3 502.1 24.7 518.7 24.7 518.7 43.3 516.6 43.3 516.6 43.8 518.6 43.8 518.6 48.0 518.0 52.8 562.3 67.5 562.3 67.3 563.8 63.4 565.7 64.1 565.9 63.6 563.9 62.8 570.5 45.4 586.0 51.3 579.5 68.7 569.9 65.1 569.7 65.6 571.8 66.4 571.1 68.4 579.1 71.4 578.1 74.0 579.7 74.7 597.0 80.8 596.4 82.6 604.0 85.5 606.6 78.4 Q619.4 83.4 619.4 83.2 L618.2 86.6 619.6 88.9 628.6 93.0 641.8 100.9 659.1 113.5 659.8 114.2 662.8 111.0 672.7 120.3 668.2 126.4 668.9 127.0 672.3 130.5 677.5 133.8 689.7 119.3 700.2 128.0 705.4 121.8 698.3 115.8 708.4 103.5 707.8 103.0 706.1 105.0 690.4 91.8 696.6 84.8 712.1 97.9 710.0 100.3 710.7 100.8 713.1 97.9 687.5 76.3 689.2 73.8 685.6 70.7 688.4 67.7 714.8 89.4 741.2 58.3 754.8 69.8 758.3 66.0 757.2 64.5 758.3 60.9 745.7 50.2 749.8 44.0 746.7 40.9 780.2 0.3 784.3 3.4 800.1 -15.0 846.4 24.5 832.0 41.8 832.0 41.9 836.2 41.9 838.2 43.2 840.4 40.7 861.2 24.4 864.4 22.4 862.2 21.4 860.7 18.7 878.4 5.2 878.5 5.4 878.9 4.5 892.7 -13.3 893.7 -19.7 896.7 -25.7 905.7 -31.3 925.7 -32.3 929.2 -33.3" fill="#000000" fill-rule="evenodd" stroke="none"/>
    <path d="M0.7 23.6 L2.5 23.5 3.0 28.6 1.2 28.8 0.7 23.6" fill="#000000" fill-rule="evenodd" stroke="none"/>
    <path d="M-11.3 -41.3 L-11.0 -37.6 -14.9 -37.6 -15.0 -41.2 -11.3 -41.3" fill="#000000" fill-rule="evenodd" stroke="none"/>
    <path d="M-10.4 -31.8 L-10.1 -27.4 -13.4 -27.4 -13.5 -31.7 -10.4 -31.8" fill="#000000" fill-rule="evenodd" stroke="none"/>
    <path d="M-16.9 -184.3 L-17.2 -186.8 -9.3 -187.6 -9.2 -186.8 -11.7 -186.6 -11.6 -184.7 -16.9 -184.3" fill="#000000" fill-rule="evenodd" stroke="none"/>
    <path d="M255.0 73.3 L256.4 73.3 256.4 89.5 255.0 89.5 255.0 73.3" fill="#000000" fill-rule="evenodd" stroke="none"/>
    <path d="M255.0 64.0 L255.0 55.8 256.4 55.8 256.4 64.0 255.0 64.0" fill="#000000" fill-rule="evenodd" stroke="none"/>
    <path d="M363.6 56.1 L367.4 56.1 367.4 89.8 363.6 89.8 363.6 56.1" fill="#000000" fill-rule="evenodd" stroke="none"/>
    <path d="M375.8 54.3 L375.8 47.7 384.8 47.7 384.8 54.3 375.8 54.3" fill="#000000" fill-rule="evenodd" stroke="none"/>
    <path d="M375.8 43.9 L375.8 37.2 384.8 37.2 384.8 43.9 375.8 43.9" fill="#000000" fill-rule="evenodd" stroke="none"/>
    <path d="M461.4 82.4 L461.4 86.6 452.4 86.6 452.4 110.5 406.5 110.5 406.5 110.6 395.4 110.6 395.4 99.6 398.5 99.6 398.5 107.9 406.4 107.9 406.4 95.3 446.4 95.3 446.4 93.2 435.3 93.2 435.3 82.2 438.4 82.2 438.4 90.5 446.4 90.5 446.4 82.4 461.4 82.4" fill="#000000" fill-rule="evenodd" stroke="none"/>
    <path d="M846.4 24.5 L839.3 33.0 836.7 30.7 842.0 24.4 836.2 19.3 828.1 29.0 794.5 0.7 793.2 2.3 801.7 9.4 794.6 17.9 792.2 15.9 797.5 9.5 791.4 4.4 786.3 10.5 777.3 3.9 780.2 0.3 784.3 3.4 800.1 -15.0 846.4 24.5" fill="#000000" fill-rule="evenodd" stroke="none"/>
    <path d="M-24.7 -185.5 L-20.7 -185.7 -2.9 8.6 -0.9 8.5 2.2 45.4 1.1 45.5 2.0 55.2 -2.3 55.6 -3.5 45.7 -5.1 45.8 -8.1 8.9 -6.8 8.8 -9.3 -18.8 -12.0 -18.8 -12.0 -20.6 -9.4 -20.6 -9.8 -25.4 -9.9 -25.7 -9.7 -23.5 -12.0 -23.5 -12.0 -25.9 -9.9 -25.8 -12.9 -58.2 -15.0 -58.3 -15.2 -62.2 -13.2 -62.2 -24.7 -185.5" fill="#000000" fill-rule="evenodd" stroke="none"/>
    <path d="M266.9 60.4 L266.9 51.5 273.3 51.5 273.3 60.4 266.9 60.4" fill="#000000" fill-rule="evenodd" stroke="none"/>
    <path d="M281.1 59.8 L281.1 53.5 290.1 53.5 290.1 59.8 281.1 59.8" fill="#000000" fill-rule="evenodd" stroke="none"/>
    <path d="M288.7 40.3 L288.7 48.8 282.3 48.8 282.3 40.3 288.7 40.3" fill="#000000" fill-rule="evenodd" stroke="none"/>
    <path d="M266.7 46.8 L266.7 37.5 273.3 37.5 273.3 46.8 266.7 46.8" fill="#000000" fill-rule="evenodd" stroke="none"/>
    <path d="M715.8 154.8 L713.7 156.9 711.7 154.8 713.7 152.8 715.8 154.8" fill="#000000" fill-rule="evenodd" stroke="none"/>
    <path d="M691.2 131.7 L689.8 134.2 687.3 132.7 688.7 130.2 691.2 131.7" fill="#000000" fill-rule="evenodd" stroke="none"/>
    <path d="M709.9 105.2 L710.8 108.0 708.1 108.9 707.2 106.1 709.9 105.2" fill="#000000" fill-rule="evenodd" stroke="none"/>
    <path d="M695.3 126.0 L693.3 128.1 691.2 126.1 693.2 124.0 695.3 126.0" fill="#000000" fill-rule="evenodd" stroke="none"/>
    <path d="M692.9 128.3 L690.9 130.3 688.9 128.3 690.9 126.3 692.9 128.3" fill="#000000" fill-rule="evenodd" stroke="none"/>
    <path d="M710.6 110.8 L708.6 112.9 706.5 110.9 708.5 108.8 710.6 110.8" fill="#000000" fill-rule="evenodd" stroke="none"/>
    <path d="M745.1 74.0 L743.1 76.0 741.0 74.0 743.0 71.9 745.1 74.0" fill="#000000" fill-rule="evenodd" stroke="none"/>
    <path d="M708.2 113.1 L706.2 115.1 704.1 113.1 706.1 111.1 708.2 113.1" fill="#000000" fill-rule="evenodd" stroke="none"/>
    <path d="M705.2 173.3 L702.3 177.0 699.3 174.8 702.3 171.0 705.2 173.3" fill="#000000" fill-rule="evenodd" stroke="none"/>
    <path d="M696.9 183.9 L694.5 187.0 692.1 185.1 694.4 182.0 696.9 183.9" fill="#000000" fill-rule="evenodd" stroke="none"/>
    <path d="M690.8 182.2 L689.1 184.1 686.8 182.0 688.5 180.2 690.8 182.2" fill="#000000" fill-rule="evenodd" stroke="none"/>
    <path d="M686.9 180.8 L685.6 182.2 683.3 180.2 684.6 178.8 686.9 180.8" fill="#000000" fill-rule="evenodd" stroke="none"/>
    <path d="M721.1 151.6 L718.2 154.8 715.6 152.4 718.5 149.2 721.1 151.6" fill="#000000" fill-rule="evenodd" stroke="none"/>
    <path d="M721.6 158.7 L718.1 162.6 715.1 159.9 718.6 156.0 721.6 158.7" fill="#000000" fill-rule="evenodd" stroke="none"/>
    <path d="M725.6 154.7 L722.1 158.5 719.3 155.9 722.7 152.1 725.6 154.7" fill="#000000" fill-rule="evenodd" stroke="none"/>
    <path d="M730.2 139.1 L720.6 149.7 718.2 147.5 727.8 136.9 730.2 139.1" fill="#000000" fill-rule="evenodd" stroke="none"/>
    <path d="M720.7 145.9 L728.7 153.1 726.8 155.2 718.8 147.9 720.7 145.9" fill="#000000" fill-rule="evenodd" stroke="none"/>
    <path d="M771.8 93.9 L776.7 98.4 774.9 100.4 770.0 95.9 771.8 93.9" fill="#000000" fill-rule="evenodd" stroke="none"/>
    <path d="M727.9 136.9 L736.6 144.8 734.9 146.7 726.2 138.8 727.9 136.9" fill="#000000" fill-rule="evenodd" stroke="none"/>
    <path d="M744.4 125.9 L749.1 130.2 747.4 132.1 742.7 127.8 744.4 125.9" fill="#000000" fill-rule="evenodd" stroke="none"/>
    <path d="M733.3 145.2 L747.6 128.8 749.5 130.4 735.1 146.8 733.3 145.2" fill="#000000" fill-rule="evenodd" stroke="none"/>
    <path d="M773.5 95.3 L744.6 129.6 742.5 127.8 771.3 93.5 773.5 95.3" fill="#000000" fill-rule="evenodd" stroke="none"/>
    <path d="M772.7 98.2 L779.3 90.4 781.5 92.2 774.9 100.0 772.7 98.2" fill="#000000" fill-rule="evenodd" stroke="none"/>
    <path d="M705.5 182.2 L703.1 184.9 702.2 184.0 704.7 181.4 705.5 182.2" fill="#000000" fill-rule="evenodd" stroke="none"/>
    <path d="M768.4 98.2 L762.7 105.3 760.7 103.2 766.1 96.5 768.4 98.2" fill="#000000" fill-rule="evenodd" stroke="none"/>
    <path d="M672.9 152.0 L670.3 153.2 668.7 149.8 671.4 148.6 672.9 152.0" fill="#000000" fill-rule="evenodd" stroke="none"/>
    <path d="M665.4 156.5 L662.5 154.1 665.6 150.4 668.4 152.9 665.4 156.5" fill="#000000" fill-rule="evenodd" stroke="none"/>
    <path d="M662.8 160.9 L659.9 158.4 663.0 154.8 665.9 157.3 662.8 160.9" fill="#000000" fill-rule="evenodd" stroke="none"/>
    <path d="M684.4 133.7 L681.5 131.2 684.6 127.6 687.4 130.1 684.4 133.7" fill="#000000" fill-rule="evenodd" stroke="none"/>
    <path d="M702.0 118.6 L699.4 115.9 702.8 112.6 705.4 115.3 702.0 118.6" fill="#000000" fill-rule="evenodd" stroke="none"/>
    <path d="M719.5 91.5 L716.5 89.2 719.4 85.5 722.4 87.8 719.5 91.5" fill="#000000" fill-rule="evenodd" stroke="none"/>
    <path d="M746.8 72.5 L743.7 70.2 746.6 66.5 749.6 68.8 746.8 72.5" fill="#000000" fill-rule="evenodd" stroke="none"/>
    <path d="M735.6 77.5 L732.6 75.2 735.5 71.5 738.5 73.8 735.6 77.5" fill="#000000" fill-rule="evenodd" stroke="none"/>
    <path d="M739.0 71.9 L736.0 69.6 738.9 65.8 741.9 68.1 739.0 71.9" fill="#000000" fill-rule="evenodd" stroke="none"/>
    <path d="M774.4 17.0 L771.5 14.5 778.0 6.8 780.9 9.3 774.4 17.0" fill="#000000" fill-rule="evenodd" stroke="none"/>
    <path d="M764.2 22.0 L763.4 21.3 764.9 19.5 765.7 20.2 764.2 22.0" fill="#000000" fill-rule="evenodd" stroke="none"/>
    <path d="M739.2 63.2 L742.2 60.8 745.2 64.6 742.2 66.9 739.2 63.2" fill="#000000" fill-rule="evenodd" stroke="none"/>
    <path d="M695.4 91.1 L693.2 89.4 695.3 86.6 697.5 88.4 695.4 91.1" fill="#000000" fill-rule="evenodd" stroke="none"/>
    <path d="M87.5 -144.2 L82.5 -144.2 82.5 -147.1 87.5 -147.1 87.5 -144.2" fill="#000000" fill-rule="evenodd" stroke="none"/>
    <path d="M81.9 -143.8 L76.9 -143.8 76.9 -146.7 81.9 -146.7 81.9 -143.8" fill="#000000" fill-rule="evenodd" stroke="none"/>
    <path d="M61.7 -148.2 L56.7 -148.2 56.7 -151.1 61.7 -151.1 61.7 -148.2" fill="#000000" fill-rule="evenodd" stroke="none"/>
    <path d="M119.5 -143.7 L114.9 -145.5 116.0 -148.2 120.6 -146.4 119.5 -143.7" fill="#000000" fill-rule="evenodd" stroke="none"/>
    <path d="M410.2 177.0 L406.0 174.5 407.5 172.0 411.7 174.6 410.2 177.0" fill="#000000" fill-rule="evenodd" stroke="none"/>
    <path d="M377.9 161.5 L373.9 158.8 376.3 155.3 380.2 158.0 377.9 161.5" fill="#000000" fill-rule="evenodd" stroke="none"/>
    <path d="M345.9 126.2 L353.6 128.2 352.6 132.1 344.9 130.2 345.9 126.2" fill="#000000" fill-rule="evenodd" stroke="none"/>
    <path d="M312.8 144.9 L308.6 144.2 309.3 140.2 313.5 140.9 312.8 144.9" fill="#000000" fill-rule="evenodd" stroke="none"/>
    <path d="M320.3 126.9 L315.4 127.4 314.9 123.4 319.8 122.8 320.3 126.9" fill="#000000" fill-rule="evenodd" stroke="none"/>
    <path d="M310.5 121.3 L308.4 128.1 304.5 126.9 306.6 120.0 310.5 121.3" fill="#000000" fill-rule="evenodd" stroke="none"/>
    <path d="M242.4 126.2 L238.9 126.4 238.4 119.2 241.9 119.0 242.4 126.2" fill="#000000" fill-rule="evenodd" stroke="none"/>
    <path d="M265.7 138.4 L274.5 138.4 274.5 141.5 265.7 141.5 265.7 138.4" fill="#000000" fill-rule="evenodd" stroke="none"/>
    <path d="M205.2 149.5 L198.1 150.4 197.6 146.4 204.8 145.6 205.2 149.5" fill="#000000" fill-rule="evenodd" stroke="none"/>
    <path d="M209.7 132.1 L204.6 133.5 203.8 130.9 208.9 129.5 209.7 132.1" fill="#000000" fill-rule="evenodd" stroke="none"/>
    <path d="M211.9 129.8 L209.6 130.4 209.3 129.4 211.6 128.8 211.9 129.8" fill="#000000" fill-rule="evenodd" stroke="none"/>
    <path d="M-20.8 -185.6 L-24.5 -185.3 -6.6 8.3 -6.6 9.2 -7.7 9.3 -4.6 45.4 -3.5 45.3 -3.4 46.3 -5.5 46.5 -8.8 8.4 -6.9 8.3 -24.8 -185.6 -20.6 -185.8 -8.0 -55.0 -2.8 7.9 -0.6 7.7 2.6 45.8 1.2 45.9 1.1 44.9 1.5 44.8 -1.5 8.8 -3.0 8.9 -3.0 7.9 -20.8 -185.6" fill="#000000" fill-rule="evenodd" stroke="none"/>
    <path d="M-13.5 -65.5 L-13.4 -63.7 -17.8 -63.5 -17.9 -65.3 -13.5 -65.5" fill="#000000" fill-rule="evenodd" stroke="none"/>
    <path d="M-15.9 -44.5 L-11.6 -44.6 -11.5 -43.0 -15.9 -42.6 -15.9 -44.5" fill="#000000" fill-rule="evenodd" stroke="none"/>
    <path d="M-9.5 -21.3 L-13.9 -21.1 -14.0 -22.9 -9.7 -23.2 -9.5 -21.3" fill="#000000" fill-rule="evenodd" stroke="none"/>
    <path d="M-20.2 -88.6 L-15.7 -88.8 -15.6 -87.1 -20.1 -86.7 -20.2 -88.6" fill="#000000" fill-rule="evenodd" stroke="none"/>
    <path d="M-18.0 -113.0 L-22.6 -112.7 -22.7 -114.4 -18.2 -114.8 -18.0 -113.0" fill="#000000" fill-rule="evenodd" stroke="none"/>
    <path d="M836.6 19.7 L828.1 29.7 794.6 1.4 793.5 2.6 792.8 2.0 794.4 0.0 828.0 28.3 835.8 19.0 836.6 19.7" fill="#000000" fill-rule="evenodd" stroke="none"/>
    <path d="M837.5 17.6 L800.1 -14.3 784.4 4.1 780.3 1.0 778.0 3.8 786.2 9.9 791.0 4.0 791.8 4.7 786.3 11.2 776.6 4.0 780.1 -0.4 784.3 2.7 800.0 -15.7 838.2 16.8 837.5 17.6" fill="#000000" fill-rule="evenodd" stroke="none"/>
    <path d="M1.3 24.1 L1.6 28.3 2.4 28.2 2.1 24.1 1.3 24.1 M0.7 29.4 L0.2 23.1 3.0 23.0 3.5 29.0 0.7 29.4" fill="#000000" fill-rule="evenodd" stroke="none"/>
    <path d="M452.9 87.1 L452.9 111.0 406.4 111.0 406.4 110.0 451.9 110.0 451.9 86.1 460.9 86.1 460.9 82.9 446.9 82.9 446.9 90.5 445.9 90.5 445.9 81.9 461.9 81.9 461.9 87.1 452.9 87.1" fill="#000000" fill-rule="evenodd" stroke="none"/>
    <path d="M446.9 95.8 L406.9 95.8 406.9 108.0 405.9 108.0 405.9 94.8 445.9 94.8 445.9 93.1 446.9 93.1 446.9 95.8" fill="#000000" fill-rule="evenodd" stroke="none"/>
    <path d="M-20.2 -136.7 L-24.7 -136.3 -24.9 -138.1 -20.3 -138.5 -20.2 -136.7" fill="#000000" fill-rule="evenodd" stroke="none"/>
    <path d="M-22.5 -161.4 L-27.0 -161.1 -27.2 -162.9 -22.7 -163.2 -22.5 -161.4" fill="#000000" fill-rule="evenodd" stroke="none"/>
    <path d="M758.8 57.2 L750.0 49.6 764.5 32.3 773.6 39.8 771.0 42.7 770.2 42.1 772.1 39.9 764.7 33.7 751.4 49.5 758.7 55.8 765.4 47.8 766.2 48.4 758.8 57.2" fill="#000000" fill-rule="evenodd" stroke="none"/>
    <path d="M986.8 -15.7 L985.1 -15.3 984.7 -17.1 986.4 -17.5 986.8 -15.7" fill="#000000" fill-rule="evenodd" stroke="none"/>
    <path d="M1000.0 -16.0 L998.4 -16.0 998.5 -17.9 1000.1 -17.8 1000.0 -16.0" fill="#000000" fill-rule="evenodd" stroke="none"/>
    <path d="M1012.3 -14.3 L1010.6 -14.8 1011.1 -16.5 1012.8 -16.1 1012.3 -14.3" fill="#000000" fill-rule="evenodd" stroke="none"/>
    <path d="M1024.5 -10.4 L1022.9 -11.0 1023.6 -12.7 Q1024.5 -12.3 1025.3 -12.0 L1024.5 -10.4" fill="#000000" fill-rule="evenodd" stroke="none"/>
    <path d="M1037.5 -2.7 L1036.0 -3.7 1037.0 -5.2 Q1037.7 -4.7 1038.4 -4.3 L1037.5 -2.7" fill="#000000" fill-rule="evenodd" stroke="none"/>
    <path d="M14.3 80.7 L11.7 81.6 11.4 80.7 14.0 79.8 14.3 80.7" fill="#000000" fill-rule="evenodd" stroke="none"/>
    <path d="M20.4 93.0 L18.2 94.7 17.6 93.9 19.9 92.3 20.4 93.0" fill="#000000" fill-rule="evenodd" stroke="none"/>
    <path d="M34.1 111.4 L32.4 113.7 31.7 113.2 33.3 110.9 34.1 111.4" fill="#000000" fill-rule="evenodd" stroke="none"/>
    <path d="M59.8 127.4 L58.7 130.0 57.9 129.7 59.0 127.1 59.8 127.4" fill="#000000" fill-rule="evenodd" stroke="none"/>
    <path d="M83.0 137.5 L82.1 140.2 81.2 139.9 82.1 137.2 83.0 137.5" fill="#000000" fill-rule="evenodd" stroke="none"/>
    <path d="M99.9 142.4 L99.6 145.2 98.6 145.1 99.0 142.2 99.9 142.4" fill="#000000" fill-rule="evenodd" stroke="none"/>
    <path d="M121.9 146.1 L121.9 148.9 121.0 149.0 120.9 146.1 121.9 146.1" fill="#000000" fill-rule="evenodd" stroke="none"/>
    <path d="M140.3 146.3 L140.4 149.1 139.4 149.1 139.4 146.3 140.3 146.3" fill="#000000" fill-rule="evenodd" stroke="none"/>
    <path d="M165.9 140.3 L166.6 143.1 165.7 143.3 165.0 140.5 165.9 140.3" fill="#000000" fill-rule="evenodd" stroke="none"/>
    <path d="M229.2 124.6 L229.5 127.4 228.6 127.5 228.3 124.7 229.2 124.6" fill="#000000" fill-rule="evenodd" stroke="none"/>
    <path d="M247.9 122.5 L248.3 125.3 247.4 125.4 247.0 122.6 247.9 122.5" fill="#000000" fill-rule="evenodd" stroke="none"/>
    <path d="M266.7 121.4 L266.9 124.2 265.9 124.3 265.8 121.4 266.7 121.4" fill="#000000" fill-rule="evenodd" stroke="none"/>
    <path d="M323.2 125.5 L322.9 128.3 322.0 128.2 322.3 125.4 323.2 125.5" fill="#000000" fill-rule="evenodd" stroke="none"/>
    <path d="M341.7 129.4 L341.3 132.2 340.4 132.1 340.8 129.3 341.7 129.4" fill="#000000" fill-rule="evenodd" stroke="none"/>
    <path d="M360.0 134.2 L359.4 137.0 358.5 136.8 359.1 134.0 360.0 134.2" fill="#000000" fill-rule="evenodd" stroke="none"/>
    <path d="M380.0 141.1 L379.1 143.8 378.2 143.5 379.1 140.8 380.0 141.1" fill="#000000" fill-rule="evenodd" stroke="none"/>
    <path d="M395.4 146.9 L394.5 149.6 393.6 149.3 394.5 146.6 395.4 146.9" fill="#000000" fill-rule="evenodd" stroke="none"/>
    <path d="M412.4 155.5 L411.3 158.1 410.5 157.7 411.6 155.1 412.4 155.5" fill="#000000" fill-rule="evenodd" stroke="none"/>
    <path d="M428.8 164.4 L427.6 167.0 426.7 166.6 428.0 164.0 428.8 164.4" fill="#000000" fill-rule="evenodd" stroke="none"/>
    <path d="M444.7 174.4 L443.3 176.9 442.5 176.4 444.0 174.0 444.7 174.4" fill="#000000" fill-rule="evenodd" stroke="none"/>
    <path d="M452.2 179.3 L450.8 181.7 450.0 181.3 451.5 178.8 452.2 179.3" fill="#000000" fill-rule="evenodd" stroke="none"/>
    <path d="M458.0 208.5 L456.9 208.0 472.0 187.3 472.8 187.9 458.0 208.5" fill="#000000" fill-rule="evenodd" stroke="none"/>
    <path d="M485.0 210.9 L478.2 205.6 479.8 202.3 487.4 208.7 485.0 210.9" fill="#000000" fill-rule="evenodd" stroke="none"/>
    <path d="M469.2 217.7 L463.6 214.1 465.7 211.5 468.4 212.8 472.1 215.2 469.2 217.7" fill="#000000" fill-rule="evenodd" stroke="none"/>
    <path d="M473.4 208.2 L469.0 205.2 471.7 202.8 473.3 200.6 476.0 204.4 473.4 208.2" fill="#000000" fill-rule="evenodd" stroke="none"/>
    <path d="M477.4 214.4 L481.4 217.1 477.7 221.1 474.4 218.7 477.4 214.4" fill="#000000" fill-rule="evenodd" stroke="none"/>
    <path d="M712.6 166.2 L715.3 165.8 717.3 165.9 720.1 165.0 717.4 168.2 716.5 168.0 714.9 168.0 713.7 168.5 712.5 169.5 711.7 170.8 711.3 172.1 711.4 173.7 711.9 174.8 709.3 177.9 709.5 174.8 709.2 172.8 709.2 170.0 710.6 167.8 712.6 166.2" fill="#000000" fill-rule="evenodd" stroke="none"/>
    <path d="M664.2 173.7 L664.1 175.0 664.2 176.5 664.8 177.8 665.8 178.9 667.1 179.7 668.4 180.0 670.0 179.9 671.3 179.5 674.0 182.4 671.1 181.8 669.1 182.2 666.3 182.2 664.1 180.9 662.4 179.0 662.0 176.2 662.0 174.2 660.9 171.6 664.2 173.7" fill="#000000" fill-rule="evenodd" stroke="none"/>
    <path d="M470.1 48.0 L469.8 50.5 468.0 52.7 466.5 54.0 464.4 56.5 464.4 52.7 465.6 51.9 466.8 50.8 467.4 49.5 467.5 48.0 467.3 46.5 466.6 45.3 465.5 44.2 464.4 43.5 464.4 39.5 466.2 42.1 467.8 43.4 469.6 45.5 470.1 48.0" fill="#000000" fill-rule="evenodd" stroke="none"/>
    <path d="M470.2 165.7 L472.8 165.9 475.2 166.9 476.8 169.2 477.6 171.0 479.5 173.7 475.8 172.7 475.4 171.2 474.6 169.9 473.6 169.0 472.2 168.4 470.7 168.2 469.3 168.5 467.9 169.4 467.0 170.2 463.1 169.2 466.1 168.1 467.8 166.9 470.2 165.7" fill="#000000" fill-rule="evenodd" stroke="none"/>
    <path d="M58.1 -323.5 L59.7 -322.3 61.6 -320.3 62.1 -317.7 61.8 -315.2 60.1 -313.0 58.6 -311.7 56.7 -309.2 56.5 -313.0 57.7 -313.8 58.8 -314.9 59.4 -316.2 59.5 -317.7 59.3 -319.2 58.6 -320.4 56.3 -322.2 56.2 -326.1 58.1 -323.5" fill="#000000" fill-rule="evenodd" stroke="none"/>
    <path d="M-82.1 -306.9 L-81.3 -304.4 -82.0 -301.7 -82.8 -299.9 -83.5 -296.8 -85.2 -300.2 -83.9 -302.9 -83.9 -304.3 -84.4 -305.7 -85.3 -307.0 -86.4 -307.8 -89.2 -308.6 -90.9 -312.1 -88.1 -310.5 -86.2 -310.1 Q-84.9 -309.5 -83.6 -309.0 L-82.1 -306.9" fill="#000000" fill-rule="evenodd" stroke="none"/>
    <path d="M923.8 -42.2 L925.7 -42.7 937.4 -48.1 950.4 -52.8 955.5 -56.3 962.8 -59.5 968.1 -63.1 974.6 -64.7 976.0 -65.3 976.0 -65.0 988.6 -68.0 995.7 -68.6 1032.0 -65.3 1042.5 -56.1 1051.0 -53.3 1067.6 -43.0 1079.0 -33.5 1090.1 -19.4 1098.1 -4.9 1104.1 9.3 1105.7 18.1 1107.6 18.3 1125.4 32.5 1110.8 44.7 1113.5 58.6 1106.1 59.4 1104.6 76.2 1080.1 56.2 1058.1 86.4 1054.6 64.9 1056.1 56.3 1048.9 14.7 1044.4 12.1 1039.4 12.1 1023.0 2.8 1015.1 -0.6 1004.5 -2.4 993.9 -2.5 981.2 1.1 974.1 1.6 960.6 -2.6 946.9 2.4 926.8 11.7 920.6 16.4 914.7 22.2 909.3 29.7 889.7 48.0 878.6 64.5 894.3 77.9 897.6 80.2 904.9 87.7 909.2 90.2 930.6 107.9 906.2 154.2 880.1 139.4 870.5 132.8 811.1 82.2 798.3 97.6 793.4 93.5 790.3 97.2 790.8 97.7 781.2 108.2 788.3 114.3 781.2 122.6 781.3 122.7 770.7 135.2 774.3 138.2 757.2 158.4 746.2 149.3 736.1 161.3 759.1 179.9 755.2 184.7 764.5 195.0 776.5 212.3 782.1 210.6 795.2 238.5 788.5 242.6 791.1 249.2 772.4 241.8 766.8 261.9 763.1 255.2 755.9 258.7 742.1 229.2 746.5 226.6 740.3 217.3 734.5 210.3 734.4 210.2 731.7 213.4 707.7 195.3 698.0 207.0 681.9 193.6 668.8 209.0 634.9 181.3 648.7 165.3 642.7 159.9 652.6 148.0 632.0 128.5 635.5 124.9 626.9 118.1 621.7 115.9 618.8 114.0 616.9 119.2 585.8 106.6 587.4 102.0 559.0 91.3 558.7 91.3 532.1 98.0 516.1 104.2 510.5 107.2 509.0 108.9 506.1 113.1 503.6 118.4 494.4 153.3 499.0 154.6 489.8 187.1 485.1 185.7 484.3 187.3 491.7 196.7 489.3 205.0 493.2 206.9 488.3 215.5 485.9 214.2 484.8 216.3 488.4 218.7 478.4 230.7 470.8 223.7 464.9 228.0 450.6 215.8 425.8 197.8 415.5 191.6 415.4 191.7 396.5 181.9 396.6 181.3 366.0 168.0 349.5 162.5 338.7 159.9 338.2 160.6 320.5 156.6 320.5 156.7 301.5 153.6 301.0 152.9 281.0 151.7 254.2 152.4 254.1 153.1 229.9 155.1 200.9 161.2 159.0 173.8 139.6 176.7 123.6 176.5 101.1 174.0 64.5 164.6 67.4 156.7 52.5 150.8 32.1 139.6 24.5 134.3 18.2 140.9 6.8 127.4 -3.6 112.4 -11.6 98.0 -15.8 88.2 -36.9 91.6 -54.2 -133.2 -51.7 -133.4 -57.1 -193.3 -55.9 -193.4 -59.1 -214.2 -52.9 -214.6 -52.8 -217.6 -54.3 -228.1 -55.0 -241.9 -57.3 -252.1 -57.0 -261.7 -54.1 -275.8 -51.3 -281.7 -48.4 -286.2 -40.8 -295.8 -39.5 -297.1 -59.0 -294.9 -77.2 -291.0 -91.1 -283.2 -104.1 -315.1 -83.1 -325.7 -62.3 -333.9 -31.5 -336.2 -5.9 -332.2 -5.9 -356.3 -1.9 -356.3 -1.9 -367.7 15.8 -349.7 33.4 -367.7 33.4 -356.3 37.8 -356.3 37.8 -333.7 46.2 -333.8 46.1 -339.2 79.6 -340.2 80.8 -296.3 47.3 -295.4 47.2 -300.4 17.1 -299.7 4.2 -290.8 -10.3 -279.2 -21.2 -268.5 -21.8 -267.5 -23.0 -264.4 -23.9 -260.5 -24.3 -253.0 -20.2 -218.2 -20.0 -217.5 -14.5 -217.9 -12.6 -197.8 0.3 -199.1 0.4 -198.4 4.2 -198.7 7.2 -165.3 8.7 -165.3 20.4 -166.5 21.5 -157.8 81.0 -163.7 93.4 -163.6 104.7 -162.2 117.2 -158.9 131.2 -152.8 142.6 -146.2 153.6 -138.0 169.1 -122.3 179.5 -107.4 190.6 -85.8 198.1 -65.6 207.2 -56.4 220.0 -52.7 272.2 -45.1 323.0 -46.0 328.8 -0.6 273.6 0.4 208.8 -7.8 199.6 -10.4 Q187.9 -15.4 176.1 -20.5 L168.3 -4.9 166.1 2.5 169.7 2.5 169.7 22.5 492.1 22.5 492.1 14.7 528.7 14.7 528.7 45.8 556.2 54.9 564.6 32.6 598.9 45.4 591.4 65.3 592.0 65.5 591.0 68.1 598.7 70.8 600.6 65.4 633.2 78.2 632.2 83.7 647.4 92.6 658.5 101.1 662.5 97.0 680.9 114.3 688.7 104.2 664.2 83.2 687.6 54.0 713.6 75.4 733.0 52.5 732.4 52.0 736.9 45.3 733.2 41.6 795.2 -33.8 850.3 14.0 871.1 -1.8 883.2 -17.6 884.1 -22.8 889.0 -32.6 902.7 -41.3 923.8 -42.2" fill="#434343" fill-rule="evenodd" stroke="none"/>
    <path d="M481.8 110.9 L480.2 110.2 474.7 130.0 476.2 130.6 476.4 129.8 480.3 119.0 481.8 110.9 M259.5 110.7 L259.5 80.9 256.7 80.9 256.7 110.7 202.2 110.7 202.2 112.4 205.8 112.4 205.8 125.2 201.1 125.2 198.7 126.1 198.7 131.9 216.0 127.4 214.9 121.8 236.2 118.4 275.4 116.3 275.3 122.5 305.0 123.8 305.8 117.8 330.6 121.5 359.8 128.8 357.9 135.0 362.9 136.7 364.7 136.6 370.5 138.8 371.8 139.1 372.4 139.8 382.7 143.6 384.4 143.9 400.1 149.9 402.2 145.3 403.4 145.1 426.9 157.0 460.4 178.7 461.7 179.2 462.9 177.5 465.1 177.2 467.1 170.3 459.9 168.3 463.7 155.1 467.7 156.2 472.4 145.0 475.0 135.8 473.3 135.0 472.1 139.5 452.8 134.0 463.7 95.5 482.8 100.7 481.1 106.8 483.1 107.6 483.1 107.5 488.5 97.5 493.0 92.2 499.5 87.0 504.9 84.0 528.5 74.5 531.5 73.8 532.2 72.5 532.2 71.7 531.9 71.0 530.9 70.3 503.7 61.8 478.2 55.1 478.2 59.9 464.4 59.9 464.4 52.7 456.2 52.7 456.2 73.2 467.9 73.2 467.9 86.7 456.2 86.7 456.2 110.8 367.4 110.8 367.4 89.3 364.0 89.3 364.0 110.7 259.5 110.7 M84.5 -121.5 L84.4 -121.3 28.9 -115.8 15.7 -116.1 15.7 -115.8 15.2 -114.6 1.7 -113.9 7.7 -34.1 18.6 75.1 17.6 75.2 27.2 95.7 35.4 105.4 40.7 109.9 53.2 118.2 82.4 131.9 94.2 135.7 116.9 140.4 125.7 141.2 144.2 140.7 170.7 133.2 173.1 138.5 189.8 134.2 189.8 134.0 189.4 126.0 187.2 125.2 181.9 125.2 181.9 112.4 186.4 112.4 186.4 110.7 136.4 110.7 136.4 34.4 143.2 34.4 143.2 26.4 135.7 26.4 135.7 12.5 140.2 12.5 140.2 8.8 141.2 -1.3 144.0 -13.3 159.2 -49.2 156.4 -55.6 154.4 -58.6 151.6 -67.6 141.9 -87.5 133.9 -98.6 124.2 -107.1 111.4 -114.8 103.7 -118.1 97.7 -119.8 85.7 -121.1 84.5 -121.5 M929.2 -33.3 L941.2 -38.8 955.0 -43.8 960.4 -47.5 967.2 -50.5 967.2 -50.4 972.2 -53.8 990.2 -58.1 995.7 -58.6 1027.8 -55.6 1037.4 -47.2 1046.8 -44.2 1061.8 -34.8 1071.8 -26.5 1081.8 -13.8 1089.1 -0.5 1094.4 12.2 1097.3 27.5 1103.8 28.0 1109.6 32.7 1106.4 35.3 1103.1 31.3 1098.0 31.8 1101.6 49.8 1095.4 50.5 1092.5 55.4 1095.9 60.5 1095.3 68.0 1066.3 74.3 1064.8 65.0 1066.3 56.3 1058.7 12.7 1055.0 3.4 1052.3 5.2 1047.2 2.1 1042.0 2.1 1027.5 -6.1 1018.0 -10.3 1005.4 -12.4 992.6 -12.6 979.5 -8.8 975.3 -8.5 972.0 -9.5 972.3 -10.2 971.5 -13.1 970.6 -12.7 969.9 -13.8 970.0 -16.2 943.2 -6.8 921.5 3.2 914.0 8.8 907.0 15.7 901.7 23.2 890.2 34.7 888.5 35.5 888.7 36.2 882.4 40.9 867.7 62.9 863.9 65.2 888.2 85.9 891.2 87.9 898.7 95.7 903.4 98.4 917.9 110.4 902.2 140.4 885.4 130.9 876.7 124.9 812.9 70.7 809.5 68.6 797.0 83.5 788.7 76.5 783.9 82.2 775.5 75.2 772.2 77.3 770.7 76.3 767.6 80.0 767.7 80.0 780.4 91.7 775.2 98.5 771.7 95.8 761.1 108.4 762.3 109.5 764.4 107.0 774.2 115.4 767.9 122.9 758.0 114.5 760.0 112.2 758.8 111.2 754.3 116.9 755.3 117.9 757.4 115.4 767.2 123.8 760.9 131.3 751.0 122.9 753.0 120.6 752.0 119.7 745.8 127.3 760.2 139.4 755.9 144.4 745.0 135.3 734.9 147.2 726.6 140.4 721.1 145.5 730.1 152.9 717.7 167.8 729.8 178.6 734.5 172.8 745.0 181.3 742.8 184.1 742.7 186.3 756.7 201.3 772.2 224.0 776.7 222.7 782.4 234.7 776.2 238.5 778.5 244.5 770.9 248.5 767.9 243.0 766.4 242.7 760.7 245.3 755.0 233.2 758.7 231.0 756.9 224.2 748.4 211.3 736.4 198.2 732.7 196.4 730.0 199.7 719.2 191.5 723.9 185.8 711.7 174.9 696.7 192.9 678.9 178.0 680.4 175.7 677.0 172.9 671.3 179.7 676.2 184.9 667.6 195.0 649.2 180.0 658.1 169.8 664.2 173.7 669.6 166.8 667.1 164.8 665.3 166.8 656.6 158.9 671.4 141.1 666.6 137.7 662.1 132.9 661.7 132.6 661.4 132.9 655.9 137.4 646.2 128.2 649.6 124.6 648.3 123.9 646.8 121.5 631.9 109.4 626.4 107.0 621.3 103.7 615.4 101.8 612.8 101.3 611.1 106.0 598.4 100.9 600.9 94.1 593.6 91.2 592.9 93.3 560.4 81.2 558.2 81.3 556.9 81.5 529.0 88.5 506.5 97.7 503.7 99.8 497.4 108.2 494.2 114.9 485.7 146.2 482.7 160.3 482.7 160.4 486.7 161.5 482.9 174.8 475.7 172.7 473.9 180.5 476.2 181.2 472.5 188.5 477.2 194.4 476.2 195.1 477.3 198.8 479.8 202.3 478.1 205.9 471.4 202.4 468.3 207.7 466.9 207.7 466.3 210.6 463.6 213.8 443.2 197.5 415.9 180.3 415.4 180.5 407.4 176.3 407.5 175.8 392.7 168.3 369.4 158.6 352.3 152.9 334.6 148.6 334.4 148.7 333.8 148.6 333.4 149.3 324.7 147.3 324.7 146.4 316.5 145.1 316.0 145.8 307.2 144.4 306.6 143.5 281.2 141.7 245.9 143.0 245.8 143.6 228.4 145.2 190.1 153.8 156.7 164.0 139.0 166.7 113.4 165.7 103.0 164.2 77.7 157.7 80.0 151.3 56.7 141.7 37.4 131.2 23.4 120.9 18.7 125.9 4.9 107.2 -2.6 93.7 -9.3 78.2 -9.3 77.6 -22.7 78.8 -31.6 -20.3 -34.6 -20.1 -35.7 -31.2 -32.6 -31.5 -35.4 -63.3 -38.4 -63.1 -39.6 -74.2 -36.4 -74.5 -39.5 -109.5 -42.1 -109.3 -43.4 -124.1 -40.9 -124.4 -46.2 -184.2 -37.3 -185.0 -37.3 -185.1 -38.1 -189.8 -38.1 -191.3 -39.1 -191.6 -45.6 -191.6 -47.6 -204.8 -43.1 -205.1 -42.8 -218.1 -45.1 -243.1 -47.3 -253.1 -47.1 -260.6 -44.6 -272.6 -42.6 -276.8 -33.3 -289.1 -18.3 -303.1 -15.1 -305.3 -14.1 -307.1 -14.8 -308.3 -16.3 -308.6 -30.8 -308.3 -60.6 -304.8 -71.1 -302.6 -71.8 -304.5 Q-77.5 -301.9 -83.3 -299.4 L-83.6 -295.3 -82.9 -293.6 -85.6 -291.8 -96.0 -311.8 -92.1 -313.7 -91.3 -312.4 -88.1 -310.1 -75.9 -314.6 -76.8 -316.8 -70.6 -318.1 -52.3 -319.3 -52.3 -323.1 -35.8 -321.8 -36.1 -320.6 10.8 -323.1 11.2 -326.1 11.4 -326.1 11.4 -332.6 4.1 -332.6 4.1 -346.3 8.1 -346.3 8.1 -357.7 23.4 -357.7 23.4 -346.3 27.8 -346.3 27.8 -332.6 20.2 -332.6 20.2 -326.1 27.9 -326.1 28.1 -323.6 48.6 -323.8 48.6 -322.2 56.6 -322.2 56.4 -329.5 69.9 -329.9 70.5 -306.0 57.0 -305.6 56.8 -313.0 49.0 -313.0 49.1 -310.5 13.9 -309.6 -1.8 -298.8 -17.1 -286.6 -28.8 -275.1 -30.8 -272.1 -32.6 -267.3 -33.8 -262.1 -34.3 -252.3 -30.1 -216.6 -28.1 -207.1 -23.6 -207.3 -22.3 -193.6 -29.3 -192.3 -29.1 -187.1 -28.8 -185.8 -4.9 -187.9 -2.0 -155.3 9.2 -155.3 11.7 -155.6 13.4 -141.6 27.7 -141.6 27.7 -148.3 81.4 -153.7 92.7 -153.6 102.8 -152.3 113.9 -149.5 126.7 -143.8 137.1 -137.8 147.2 -130.3 153.9 -124.2 166.2 -109.7 170.7 -102.6 181.4 -81.6 185.4 -71.0 179.4 -68.3 179.4 -67.9 189.9 -53.3 Q196.8 -50.1 203.7 -47.0 L217.7 -43.0 232.9 -40.1 271.7 -35.1 314.2 -35.8 317.4 -10.3 273.9 -9.6 240.4 -13.1 210.9 -17.6 202.9 -19.8 173.9 -32.6 172.3 -35.1 159.0 -8.6 155.7 2.3 155.2 12.5 159.7 12.5 159.7 26.4 152.2 26.4 152.2 34.4 201.7 34.4 201.7 32.4 233.4 32.4 233.4 34.4 256.7 34.4 256.7 63.3 259.5 63.3 259.5 34.7 364.0 34.7 364.0 56.1 367.4 56.1 367.4 34.8 392.7 34.8 392.7 31.5 424.2 31.5 424.2 34.8 456.2 34.8 456.2 43.4 464.4 43.4 464.4 35.7 478.2 35.7 478.2 40.3 480.0 41.0 501.5 47.4 501.5 45.9 510.0 45.9 510.0 43.8 512.3 43.8 512.3 43.3 502.1 43.3 502.1 24.7 518.7 24.7 518.7 43.3 516.6 43.3 516.6 43.8 518.6 43.8 518.6 48.0 518.0 52.8 562.3 67.5 562.3 67.3 563.8 63.4 565.7 64.1 565.9 63.6 563.9 62.8 570.5 45.4 586.0 51.3 579.5 68.7 569.9 65.1 569.7 65.6 571.8 66.4 571.1 68.4 579.1 71.4 578.1 74.0 579.7 74.7 597.0 80.8 596.4 82.6 604.0 85.5 606.6 78.4 Q619.4 83.4 619.4 83.2 L618.2 86.6 619.6 88.9 628.6 93.0 641.8 100.9 659.1 113.5 659.8 114.2 662.8 111.0 672.7 120.3 668.2 126.4 668.9 127.0 672.3 130.5 677.5 133.8 689.7 119.3 700.2 128.0 705.4 121.8 698.3 115.8 708.4 103.5 707.8 103.0 706.1 105.0 690.4 91.8 696.6 84.8 712.1 97.9 710.0 100.3 710.7 100.8 713.1 97.9 687.5 76.3 689.2 73.8 685.6 70.7 688.4 67.7 714.8 89.4 741.2 58.3 754.8 69.8 758.3 66.0 757.2 64.5 758.3 60.9 745.7 50.2 749.8 44.0 746.7 40.9 780.2 0.3 784.3 3.4 800.1 -15.0 846.4 24.5 832.0 41.8 832.0 41.9 836.2 41.9 838.2 43.2 840.4 40.7 861.2 24.4 864.4 22.4 862.2 21.4 860.7 18.7 878.4 5.2 878.5 5.4 878.9 4.5 892.7 -13.3 893.7 -19.7 896.7 -25.7 905.7 -31.3 925.7 -32.3 929.2 -33.3" fill="#969696" fill-rule="evenodd" stroke="none"/>
    <path d="M0.7 23.6 L2.5 23.5 3.0 28.6 1.2 28.8 0.7 23.6" fill="#707070" fill-rule="evenodd" stroke="none"/>
    <path d="M-11.3 -41.3 L-11.0 -37.6 -14.9 -37.6 -15.0 -41.2 -11.3 -41.3" fill="#707070" fill-rule="evenodd" stroke="none"/>
    <path d="M-10.4 -31.8 L-10.1 -27.4 -13.4 -27.4 -13.5 -31.7 -10.4 -31.8" fill="#707070" fill-rule="evenodd" stroke="none"/>
    <path d="M-16.9 -184.3 L-17.2 -186.8 -9.3 -187.6 -9.2 -186.8 -11.7 -186.6 -11.6 -184.7 -16.9 -184.3" fill="#707070" fill-rule="evenodd" stroke="none"/>
    <path d="M255.0 73.3 L256.4 73.3 256.4 89.5 255.0 89.5 255.0 73.3" fill="#707070" fill-rule="evenodd" stroke="none"/>
    <path d="M255.0 64.0 L255.0 55.8 256.4 55.8 256.4 64.0 255.0 64.0" fill="#707070" fill-rule="evenodd" stroke="none"/>
    <path d="M363.6 56.1 L367.4 56.1 367.4 89.8 363.6 89.8 363.6 56.1" fill="#707070" fill-rule="evenodd" stroke="none"/>
    <path d="M375.8 54.3 L375.8 47.7 384.8 47.7 384.8 54.3 375.8 54.3" fill="#707070" fill-rule="evenodd" stroke="none"/>
    <path d="M375.8 43.9 L375.8 37.2 384.8 37.2 384.8 43.9 375.8 43.9" fill="#707070" fill-rule="evenodd" stroke="none"/>
    <path d="M461.4 82.4 L461.4 86.6 452.4 86.6 452.4 110.5 406.5 110.5 406.5 110.6 395.4 110.6 395.4 99.6 398.5 99.6 398.5 107.9 406.4 107.9 406.4 95.3 446.4 95.3 446.4 93.2 435.3 93.2 435.3 82.2 438.4 82.2 438.4 90.5 446.4 90.5 446.4 82.4 461.4 82.4" fill="#707070" fill-rule="evenodd" stroke="none"/>
    <path d="M846.4 24.5 L839.3 33.0 836.7 30.7 842.0 24.4 836.2 19.3 828.1 29.0 794.5 0.7 793.2 2.3 801.7 9.4 794.6 17.9 792.2 15.9 797.5 9.5 791.4 4.4 786.3 10.5 777.3 3.9 780.2 0.3 784.3 3.4 800.1 -15.0 846.4 24.5" fill="#707070" fill-rule="evenodd" stroke="none"/>
    <path d="M-24.7 -185.5 L-20.7 -185.7 -2.9 8.6 -0.9 8.5 2.2 45.4 1.1 45.5 2.0 55.2 -2.3 55.6 -3.5 45.7 -5.1 45.8 -8.1 8.9 -6.8 8.8 -9.3 -18.8 -12.0 -18.8 -12.0 -20.6 -9.4 -20.6 -9.8 -25.4 -9.9 -25.7 -9.7 -23.5 -12.0 -23.5 -12.0 -25.9 -9.9 -25.8 -12.9 -58.2 -15.0 -58.3 -15.2 -62.2 -13.2 -62.2 -24.7 -185.5" fill="#707070" fill-rule="evenodd" stroke="none"/>
    <path d="M266.9 60.4 L266.9 51.5 273.3 51.5 273.3 60.4 266.9 60.4" fill="#707070" fill-rule="evenodd" stroke="none"/>
    <path d="M281.1 59.8 L281.1 53.5 290.1 53.5 290.1 59.8 281.1 59.8" fill="#707070" fill-rule="evenodd" stroke="none"/>
    <path d="M288.7 40.3 L288.7 48.8 282.3 48.8 282.3 40.3 288.7 40.3" fill="#707070" fill-rule="evenodd" stroke="none"/>
    <path d="M266.7 46.8 L266.7 37.5 273.3 37.5 273.3 46.8 266.7 46.8" fill="#707070" fill-rule="evenodd" stroke="none"/>
    <path d="M715.8 154.8 L713.7 156.9 711.7 154.8 713.7 152.8 715.8 154.8" fill="#707070" fill-rule="evenodd" stroke="none"/>
    <path d="M691.2 131.7 L689.8 134.2 687.3 132.7 688.7 130.2 691.2 131.7" fill="#707070" fill-rule="evenodd" stroke="none"/>
    <path d="M709.9 105.2 L710.8 108.0 708.1 108.9 707.2 106.1 709.9 105.2" fill="#707070" fill-rule="evenodd" stroke="none"/>
    <path d="M695.3 126.0 L693.3 128.1 691.2 126.1 693.2 124.0 695.3 126.0" fill="#707070" fill-rule="evenodd" stroke="none"/>
    <path d="M692.9 128.3 L690.9 130.3 688.9 128.3 690.9 126.3 692.9 128.3" fill="#707070" fill-rule="evenodd" stroke="none"/>
    <path d="M710.6 110.8 L708.6 112.9 706.5 110.9 708.5 108.8 710.6 110.8" fill="#707070" fill-rule="evenodd" stroke="none"/>
    <path d="M745.1 74.0 L743.1 76.0 741.0 74.0 743.0 71.9 745.1 74.0" fill="#707070" fill-rule="evenodd" stroke="none"/>
    <path d="M708.2 113.1 L706.2 115.1 704.1 113.1 706.1 111.1 708.2 113.1" fill="#707070" fill-rule="evenodd" stroke="none"/>
    <path d="M705.2 173.3 L702.3 177.0 699.3 174.8 702.3 171.0 705.2 173.3" fill="#707070" fill-rule="evenodd" stroke="none"/>
    <path d="M696.9 183.9 L694.5 187.0 692.1 185.1 694.4 182.0 696.9 183.9" fill="#707070" fill-rule="evenodd" stroke="none"/>
    <path d="M690.8 182.2 L689.1 184.1 686.8 182.0 688.5 180.2 690.8 182.2" fill="#707070" fill-rule="evenodd" stroke="none"/>
    <path d="M686.9 180.8 L685.6 182.2 683.3 180.2 684.6 178.8 686.9 180.8" fill="#707070" fill-rule="evenodd" stroke="none"/>
    <path d="M721.1 151.6 L718.2 154.8 715.6 152.4 718.5 149.2 721.1 151.6" fill="#707070" fill-rule="evenodd" stroke="none"/>
    <path d="M721.6 158.7 L718.1 162.6 715.1 159.9 718.6 156.0 721.6 158.7" fill="#707070" fill-rule="evenodd" stroke="none"/>
    <path d="M725.6 154.7 L722.1 158.5 719.3 155.9 722.7 152.1 725.6 154.7" fill="#707070" fill-rule="evenodd" stroke="none"/>
    <path d="M730.2 139.1 L720.6 149.7 718.2 147.5 727.8 136.9 730.2 139.1" fill="#707070" fill-rule="evenodd" stroke="none"/>
    <path d="M720.7 145.9 L728.7 153.1 726.8 155.2 718.8 147.9 720.7 145.9" fill="#707070" fill-rule="evenodd" stroke="none"/>
    <path d="M771.8 93.9 L776.7 98.4 774.9 100.4 770.0 95.9 771.8 93.9" fill="#707070" fill-rule="evenodd" stroke="none"/>
    <path d="M727.9 136.9 L736.6 144.8 734.9 146.7 726.2 138.8 727.9 136.9" fill="#707070" fill-rule="evenodd" stroke="none"/>
    <path d="M744.4 125.9 L749.1 130.2 747.4 132.1 742.7 127.8 744.4 125.9" fill="#707070" fill-rule="evenodd" stroke="none"/>
    <path d="M733.3 145.2 L747.6 128.8 749.5 130.4 735.1 146.8 733.3 145.2" fill="#707070" fill-rule="evenodd" stroke="none"/>
    <path d="M773.5 95.3 L744.6 129.6 742.5 127.8 771.3 93.5 773.5 95.3" fill="#707070" fill-rule="evenodd" stroke="none"/>
    <path d="M772.7 98.2 L779.3 90.4 781.5 92.2 774.9 100.0 772.7 98.2" fill="#707070" fill-rule="evenodd" stroke="none"/>
    <path d="M705.5 182.2 L703.1 184.9 702.2 184.0 704.7 181.4 705.5 182.2" fill="#707070" fill-rule="evenodd" stroke="none"/>
    <path d="M768.4 98.2 L762.7 105.3 760.7 103.2 766.1 96.5 768.4 98.2" fill="#707070" fill-rule="evenodd" stroke="none"/>
    <path d="M672.9 152.0 L670.3 153.2 668.7 149.8 671.4 148.6 672.9 152.0" fill="#707070" fill-rule="evenodd" stroke="none"/>
    <path d="M665.4 156.5 L662.5 154.1 665.6 150.4 668.4 152.9 665.4 156.5" fill="#707070" fill-rule="evenodd" stroke="none"/>
    <path d="M662.8 160.9 L659.9 158.4 663.0 154.8 665.9 157.3 662.8 160.9" fill="#707070" fill-rule="evenodd" stroke="none"/>
    <path d="M684.4 133.7 L681.5 131.2 684.6 127.6 687.4 130.1 684.4 133.7" fill="#707070" fill-rule="evenodd" stroke="none"/>
    <path d="M702.0 118.6 L699.4 115.9 702.8 112.6 705.4 115.3 702.0 118.6" fill="#707070" fill-rule="evenodd" stroke="none"/>
    <path d="M719.5 91.5 L716.5 89.2 719.4 85.5 722.4 87.8 719.5 91.5" fill="#707070" fill-rule="evenodd" stroke="none"/>
    <path d="M746.8 72.5 L743.7 70.2 746.6 66.5 749.6 68.8 746.8 72.5" fill="#707070" fill-rule="evenodd" stroke="none"/>
    <path d="M735.6 77.5 L732.6 75.2 735.5 71.5 738.5 73.8 735.6 77.5" fill="#707070" fill-rule="evenodd" stroke="none"/>
    <path d="M739.0 71.9 L736.0 69.6 738.9 65.8 741.9 68.1 739.0 71.9" fill="#707070" fill-rule="evenodd" stroke="none"/>
    <path d="M774.4 17.0 L771.5 14.5 778.0 6.8 780.9 9.3 774.4 17.0" fill="#707070" fill-rule="evenodd" stroke="none"/>
    <path d="M764.2 22.0 L763.4 21.3 764.9 19.5 765.7 20.2 764.2 22.0" fill="#707070" fill-rule="evenodd" stroke="none"/>
    <path d="M739.2 63.2 L742.2 60.8 745.2 64.6 742.2 66.9 739.2 63.2" fill="#707070" fill-rule="evenodd" stroke="none"/>
    <path d="M695.4 91.1 L693.2 89.4 695.3 86.6 697.5 88.4 695.4 91.1" fill="#707070" fill-rule="evenodd" stroke="none"/>
    <path d="M87.5 -144.2 L82.5 -144.2 82.5 -147.1 87.5 -147.1 87.5 -144.2" fill="#707070" fill-rule="evenodd" stroke="none"/>
    <path d="M81.9 -143.8 L76.9 -143.8 76.9 -146.7 81.9 -146.7 81.9 -143.8" fill="#707070" fill-rule="evenodd" stroke="none"/>
    <path d="M61.7 -148.2 L56.7 -148.2 56.7 -151.1 61.7 -151.1 61.7 -148.2" fill="#707070" fill-rule="evenodd" stroke="none"/>
    <path d="M119.5 -143.7 L114.9 -145.5 116.0 -148.2 120.6 -146.4 119.5 -143.7" fill="#707070" fill-rule="evenodd" stroke="none"/>
    <path d="M410.2 177.0 L406.0 174.5 407.5 172.0 411.7 174.6 410.2 177.0" fill="#707070" fill-rule="evenodd" stroke="none"/>
    <path d="M377.9 161.5 L373.9 158.8 376.3 155.3 380.2 158.0 377.9 161.5" fill="#707070" fill-rule="evenodd" stroke="none"/>
    <path d="M345.9 126.2 L353.6 128.2 352.6 132.1 344.9 130.2 345.9 126.2" fill="#707070" fill-rule="evenodd" stroke="none"/>
    <path d="M312.8 144.9 L308.6 144.2 309.3 140.2 313.5 140.9 312.8 144.9" fill="#707070" fill-rule="evenodd" stroke="none"/>
    <path d="M320.3 126.9 L315.4 127.4 314.9 123.4 319.8 122.8 320.3 126.9" fill="#707070" fill-rule="evenodd" stroke="none"/>
    <path d="M310.5 121.3 L308.4 128.1 304.5 126.9 306.6 120.0 310.5 121.3" fill="#707070" fill-rule="evenodd" stroke="none"/>
    <path d="M242.4 126.2 L238.9 126.4 238.4 119.2 241.9 119.0 242.4 126.2" fill="#707070" fill-rule="evenodd" stroke="none"/>
    <path d="M265.7 138.4 L274.5 138.4 274.5 141.5 265.7 141.5 265.7 138.4" fill="#707070" fill-rule="evenodd" stroke="none"/>
    <path d="M205.2 149.5 L198.1 150.4 197.6 146.4 204.8 145.6 205.2 149.5" fill="#707070" fill-rule="evenodd" stroke="none"/>
    <path d="M209.7 132.1 L204.6 133.5 203.8 130.9 208.9 129.5 209.7 132.1" fill="#707070" fill-rule="evenodd" stroke="none"/>
    <path d="M211.9 129.8 L209.6 130.4 209.3 129.4 211.6 128.8 211.9 129.8" fill="#707070" fill-rule="evenodd" stroke="none"/>
    <path d="M-20.8 -185.6 L-24.5 -185.3 -6.6 8.3 -6.6 9.2 -7.7 9.3 -4.6 45.4 -3.5 45.3 -3.4 46.3 -5.5 46.5 -8.8 8.4 -6.9 8.3 -24.8 -185.6 -20.6 -185.8 -8.0 -55.0 -2.8 7.9 -0.6 7.7 2.6 45.8 1.2 45.9 1.1 44.9 1.5 44.8 -1.5 8.8 -3.0 8.9 -3.0 7.9 -20.8 -185.6" fill="#434343" fill-rule="evenodd" stroke="none"/>
    <path d="M-13.5 -65.5 L-13.4 -63.7 -17.8 -63.5 -17.9 -65.3 -13.5 -65.5" fill="#434343" fill-rule="evenodd" stroke="none"/>
    <path d="M-15.9 -44.5 L-11.6 -44.6 -11.5 -43.0 -15.9 -42.6 -15.9 -44.5" fill="#434343" fill-rule="evenodd" stroke="none"/>
    <path d="M-9.5 -21.3 L-13.9 -21.1 -14.0 -22.9 -9.7 -23.2 -9.5 -21.3" fill="#434343" fill-rule="evenodd" stroke="none"/>
    <path d="M-20.2 -88.6 L-15.7 -88.8 -15.6 -87.1 -20.1 -86.7 -20.2 -88.6" fill="#434343" fill-rule="evenodd" stroke="none"/>
    <path d="M-18.0 -113.0 L-22.6 -112.7 -22.7 -114.4 -18.2 -114.8 -18.0 -113.0" fill="#434343" fill-rule="evenodd" stroke="none"/>
    <path d="M836.6 19.7 L828.1 29.7 794.6 1.4 793.5 2.6 792.8 2.0 794.4 0.0 828.0 28.3 835.8 19.0 836.6 19.7" fill="#434343" fill-rule="evenodd" stroke="none"/>
    <path d="M837.5 17.6 L800.1 -14.3 784.4 4.1 780.3 1.0 778.0 3.8 786.2 9.9 791.0 4.0 791.8 4.7 786.3 11.2 776.6 4.0 780.1 -0.4 784.3 2.7 800.0 -15.7 838.2 16.8 837.5 17.6" fill="#434343" fill-rule="evenodd" stroke="none"/>
    <path d="M1.3 24.1 L1.6 28.3 2.4 28.2 2.1 24.1 1.3 24.1 M0.7 29.4 L0.2 23.1 3.0 23.0 3.5 29.0 0.7 29.4" fill="#434343" fill-rule="evenodd" stroke="none"/>
    <path d="M452.9 87.1 L452.9 111.0 406.4 111.0 406.4 110.0 451.9 110.0 451.9 86.1 460.9 86.1 460.9 82.9 446.9 82.9 446.9 90.5 445.9 90.5 445.9 81.9 461.9 81.9 461.9 87.1 452.9 87.1" fill="#434343" fill-rule="evenodd" stroke="none"/>
    <path d="M446.9 95.8 L406.9 95.8 406.9 108.0 405.9 108.0 405.9 94.8 445.9 94.8 445.9 93.1 446.9 93.1 446.9 95.8" fill="#434343" fill-rule="evenodd" stroke="none"/>
    <path d="M-20.2 -136.7 L-24.7 -136.3 -24.9 -138.1 -20.3 -138.5 -20.2 -136.7" fill="#434343" fill-rule="evenodd" stroke="none"/>
    <path d="M-22.5 -161.4 L-27.0 -161.1 -27.2 -162.9 -22.7 -163.2 -22.5 -161.4" fill="#434343" fill-rule="evenodd" stroke="none"/>
    <path d="M758.8 57.2 L750.0 49.6 764.5 32.3 773.6 39.8 771.0 42.7 770.2 42.1 772.1 39.9 764.7 33.7 751.4 49.5 758.7 55.8 765.4 47.8 766.2 48.4 758.8 57.2" fill="#434343" fill-rule="evenodd" stroke="none"/>
    <path d="M986.8 -15.7 L985.1 -15.3 984.7 -17.1 986.4 -17.5 986.8 -15.7" fill="#434343" fill-rule="evenodd" stroke="none"/>
    <path d="M1000.0 -16.0 L998.4 -16.0 998.5 -17.9 1000.1 -17.8 1000.0 -16.0" fill="#434343" fill-rule="evenodd" stroke="none"/>
    <path d="M1012.3 -14.3 L1010.6 -14.8 1011.1 -16.5 1012.8 -16.1 1012.3 -14.3" fill="#434343" fill-rule="evenodd" stroke="none"/>
    <path d="M1024.5 -10.4 L1022.9 -11.0 1023.6 -12.7 Q1024.5 -12.3 1025.3 -12.0 L1024.5 -10.4" fill="#434343" fill-rule="evenodd" stroke="none"/>
    <path d="M1037.5 -2.7 L1036.0 -3.7 1037.0 -5.2 Q1037.7 -4.7 1038.4 -4.3 L1037.5 -2.7" fill="#434343" fill-rule="evenodd" stroke="none"/>
    <path d="M14.3 80.7 L11.7 81.6 11.4 80.7 14.0 79.8 14.3 80.7" fill="#434343" fill-rule="evenodd" stroke="none"/>
    <path d="M20.4 93.0 L18.2 94.7 17.6 93.9 19.9 92.3 20.4 93.0" fill="#434343" fill-rule="evenodd" stroke="none"/>
    <path d="M34.1 111.4 L32.4 113.7 31.7 113.2 33.3 110.9 34.1 111.4" fill="#434343" fill-rule="evenodd" stroke="none"/>
    <path d="M59.8 127.4 L58.7 130.0 57.9 129.7 59.0 127.1 59.8 127.4" fill="#434343" fill-rule="evenodd" stroke="none"/>
    <path d="M83.0 137.5 L82.1 140.2 81.2 139.9 82.1 137.2 83.0 137.5" fill="#434343" fill-rule="evenodd" stroke="none"/>
    <path d="M99.9 142.4 L99.6 145.2 98.6 145.1 99.0 142.2 99.9 142.4" fill="#434343" fill-rule="evenodd" stroke="none"/>
    <path d="M121.9 146.1 L121.9 148.9 121.0 149.0 120.9 146.1 121.9 146.1" fill="#434343" fill-rule="evenodd" stroke="none"/>
    <path d="M140.3 146.3 L140.4 149.1 139.4 149.1 139.4 146.3 140.3 146.3" fill="#434343" fill-rule="evenodd" stroke="none"/>
    <path d="M165.9 140.3 L166.6 143.1 165.7 143.3 165.0 140.5 165.9 140.3" fill="#434343" fill-rule="evenodd" stroke="none"/>
    <path d="M229.2 124.6 L229.5 127.4 228.6 127.5 228.3 124.7 229.2 124.6" fill="#434343" fill-rule="evenodd" stroke="none"/>
    <path d="M247.9 122.5 L248.3 125.3 247.4 125.4 247.0 122.6 247.9 122.5" fill="#434343" fill-rule="evenodd" stroke="none"/>
    <path d="M266.7 121.4 L266.9 124.2 265.9 124.3 265.8 121.4 266.7 121.4" fill="#434343" fill-rule="evenodd" stroke="none"/>
    <path d="M323.2 125.5 L322.9 128.3 322.0 128.2 322.3 125.4 323.2 125.5" fill="#434343" fill-rule="evenodd" stroke="none"/>
    <path d="M341.7 129.4 L341.3 132.2 340.4 132.1 340.8 129.3 341.7 129.4" fill="#434343" fill-rule="evenodd" stroke="none"/>
    <path d="M360.0 134.2 L359.4 137.0 358.5 136.8 359.1 134.0 360.0 134.2" fill="#434343" fill-rule="evenodd" stroke="none"/>
    <path d="M380.0 141.1 L379.1 143.8 378.2 143.5 379.1 140.8 380.0 141.1" fill="#434343" fill-rule="evenodd" stroke="none"/>
    <path d="M395.4 146.9 L394.5 149.6 393.6 149.3 394.5 146.6 395.4 146.9" fill="#434343" fill-rule="evenodd" stroke="none"/>
    <path d="M412.4 155.5 L411.3 158.1 410.5 157.7 411.6 155.1 412.4 155.5" fill="#434343" fill-rule="evenodd" stroke="none"/>
    <path d="M428.8 164.4 L427.6 167.0 426.7 166.6 428.0 164.0 428.8 164.4" fill="#434343" fill-rule="evenodd" stroke="none"/>
    <path d="M444.7 174.4 L443.3 176.9 442.5 176.4 444.0 174.0 444.7 174.4" fill="#434343" fill-rule="evenodd" stroke="none"/>
    <path d="M452.2 179.3 L450.8 181.7 450.0 181.3 451.5 178.8 452.2 179.3" fill="#434343" fill-rule="evenodd" stroke="none"/>
    <path d="M458.0 208.5 L456.9 208.0 472.0 187.3 472.8 187.9 458.0 208.5" fill="#434343" fill-rule="evenodd" stroke="none"/>
    <path d="M485.0 210.9 L478.2 205.6 479.8 202.3 487.4 208.7 485.0 210.9" fill="#434343" fill-rule="evenodd" stroke="none"/>
    <path d="M469.2 217.7 L463.6 214.1 465.7 211.5 468.4 212.8 472.1 215.2 469.2 217.7" fill="#434343" fill-rule="evenodd" stroke="none"/>
    <path d="M473.4 208.2 L469.0 205.2 471.7 202.8 473.3 200.6 476.0 204.4 473.4 208.2" fill="#434343" fill-rule="evenodd" stroke="none"/>
    <path d="M477.4 214.4 L481.4 217.1 477.7 221.1 474.4 218.7 477.4 214.4" fill="#434343" fill-rule="evenodd" stroke="none"/>
    <path d="M712.6 166.2 L715.3 165.8 717.3 165.9 720.1 165.0 717.4 168.2 716.5 168.0 714.9 168.0 713.7 168.5 712.5 169.5 711.7 170.8 711.3 172.1 711.4 173.7 711.9 174.8 709.3 177.9 709.5 174.8 709.2 172.8 709.2 170.0 710.6 167.8 712.6 166.2" fill="#434343" fill-rule="evenodd" stroke="none"/>
    <path d="M664.2 173.7 L664.1 175.0 664.2 176.5 664.8 177.8 665.8 178.9 667.1 179.7 668.4 180.0 670.0 179.9 671.3 179.5 674.0 182.4 671.1 181.8 669.1 182.2 666.3 182.2 664.1 180.9 662.4 179.0 662.0 176.2 662.0 174.2 660.9 171.6 664.2 173.7" fill="#434343" fill-rule="evenodd" stroke="none"/>
    <path d="M470.1 48.0 L469.8 50.5 468.0 52.7 466.5 54.0 464.4 56.5 464.4 52.7 465.6 51.9 466.8 50.8 467.4 49.5 467.5 48.0 467.3 46.5 466.6 45.3 465.5 44.2 464.4 43.5 464.4 39.5 466.2 42.1 467.8 43.4 469.6 45.5 470.1 48.0" fill="#434343" fill-rule="evenodd" stroke="none"/>
    <path d="M470.2 165.7 L472.8 165.9 475.2 166.9 476.8 169.2 477.6 171.0 479.5 173.7 475.8 172.7 475.4 171.2 474.6 169.9 473.6 169.0 472.2 168.4 470.7 168.2 469.3 168.5 467.9 169.4 467.0 170.2 463.1 169.2 466.1 168.1 467.8 166.9 470.2 165.7" fill="#434343" fill-rule="evenodd" stroke="none"/>
    <path d="M58.1 -323.5 L59.7 -322.3 61.6 -320.3 62.1 -317.7 61.8 -315.2 60.1 -313.0 58.6 -311.7 56.7 -309.2 56.5 -313.0 57.7 -313.8 58.8 -314.9 59.4 -316.2 59.5 -317.7 59.3 -319.2 58.6 -320.4 56.3 -322.2 56.2 -326.1 58.1 -323.5" fill="#434343" fill-rule="evenodd" stroke="none"/>
    <path d="M-82.1 -306.9 L-81.3 -304.4 -82.0 -301.7 -82.8 -299.9 -83.5 -296.8 -85.2 -300.2 -83.9 -302.9 -83.9 -304.3 -84.4 -305.7 -85.3 -307.0 -86.4 -307.8 -89.2 -308.6 -90.9 -312.1 -88.1 -310.5 -86.2 -310.1 Q-84.9 -309.5 -83.6 -309.0 L-82.1 -306.9" fill="#434343" fill-rule="evenodd" stroke="none"/>
  </g>
</svg>
