<?xml version="1.0" encoding="UTF-8" standalone="no"?>
<svg xmlns:ffdec="https://www.free-decompiler.com/flash" xmlns:xlink="http://www.w3.org/1999/xlink" ffdec:objectType="shape" height="184.3px" width="186.25px" xmlns="http://www.w3.org/2000/svg">
  <g transform="matrix(1.0, 0.0, 0.0, 1.0, 93.1, 92.15)">
    <path d="M56.4 -86.75 L56.4 -86.85 46.2 -86.85 46.2 -77.25 36.2 -77.25 35.65 -77.2 34.85 -77.05 34.4 -76.9 33.9 -76.75 33.5 -76.55 33.0 -76.25 32.55 -75.95 32.2 -75.6 31.9 -75.1 31.6 -74.6 31.45 -74.0 31.4 -73.3 31.4 -44.7 31.45 -44.0 31.6 -43.4 31.9 -42.9 32.2 -42.5 32.55 -42.05 33.0 -41.75 Q33.25 -41.6 33.5 -41.55 L33.9 -41.35 34.4 -41.1 34.85 -41.05 35.65 -40.9 36.2 -40.8 56.4 -40.8 56.0 -41.2 36.45 -41.2 36.2 -41.25 35.7 -41.25 35.0 -41.4 34.15 -41.7 33.7 -41.85 33.25 -42.05 32.55 -42.7 32.25 -43.15 32.05 -43.55 31.8 -44.05 31.8 -44.7 31.8 -73.3 31.8 -73.95 32.05 -74.45 32.25 -74.95 32.55 -75.3 32.9 -75.65 33.25 -75.95 33.7 -76.2 34.15 -76.4 35.0 -76.7 35.7 -76.75 36.2 -76.8 46.65 -76.8 46.65 -86.4 56.0 -86.4 56.4 -86.75 M57.25 -87.7 L57.25 -39.95 36.15 -39.95 35.5 -40.05 34.55 -40.2 34.0 -40.4 33.4 -40.55 32.9 -40.8 32.35 -41.1 31.8 -41.55 31.4 -42.0 31.05 -42.5 Q30.8 -42.75 30.75 -43.15 L30.55 -43.85 30.45 -44.7 30.45 -73.3 30.55 -74.15 30.75 -74.9 31.05 -75.55 31.4 -76.1 31.8 -76.55 32.35 -76.95 32.9 -77.25 33.4 -77.55 34.0 -77.75 34.55 -77.9 35.5 -78.05 36.15 -78.1 45.3 -78.1 45.3 -87.7 57.25 -87.7 M42.4 -68.55 L42.4 -49.3 45.3 -49.3 45.3 -68.55 42.4 -68.55 M46.45 -69.75 L46.1 -69.4 46.1 -48.45 41.4 -48.4 41.05 -48.0 46.45 -48.0 46.45 -69.75 M24.05 -77.7 L24.7 -77.4 25.25 -77.05 25.9 -76.7 26.4 -76.2 26.95 -75.6 27.3 -74.9 27.5 -74.1 27.6 -73.3 27.6 -39.95 15.7 -39.95 15.7 -68.55 12.8 -68.55 12.8 -39.95 1.0 -39.95 1.0 -78.1 12.8 -78.1 12.8 -75.65 Q14.35 -76.9 16.5 -77.45 L21.65 -78.1 22.2 -78.05 22.75 -78.0 23.35 -77.85 24.05 -77.7 M22.6 -26.85 L21.9 -26.95 6.85 -26.95 6.35 -26.85 5.9 -26.85 5.45 -26.7 5.05 -26.65 4.6 -26.4 4.1 -26.3 3.65 -26.0 3.25 -25.7 2.9 -25.25 2.5 -24.85 2.3 -24.25 2.1 -23.7 2.0 -22.95 2.0 5.45 2.1 6.2 2.3 6.85 2.5 7.35 2.8 7.85 3.25 8.2 3.6 8.55 4.1 8.85 4.55 9.0 5.05 9.2 5.45 9.35 6.25 9.5 6.85 9.5 21.9 9.5 22.4 9.5 22.95 9.45 23.45 9.3 24.0 9.15 24.5 8.85 25.0 8.55 25.05 8.5 24.7 8.3 24.05 8.65 23.35 8.95 22.6 9.05 21.9 9.15 6.85 9.15 6.35 9.05 5.2 8.85 4.75 8.7 4.3 8.5 3.9 8.3 3.55 7.9 3.15 7.55 2.9 7.2 2.65 6.7 Q2.5 6.4 2.5 6.1 L2.45 5.45 2.45 -22.95 2.5 -23.6 2.65 -24.2 2.9 -24.6 3.15 -25.05 3.9 -25.7 4.3 -25.9 4.75 -26.05 5.2 -26.3 6.35 -26.5 6.85 -26.5 7.05 -26.55 21.9 -26.55 22.55 -26.5 23.2 -26.35 23.75 -26.2 24.2 -26.0 24.85 -25.65 25.05 -25.5 25.35 -25.8 25.15 -26.0 24.75 -26.15 24.4 -26.35 23.9 -26.55 23.35 -26.8 22.6 -26.85 M17.0 -69.75 L16.65 -69.4 16.65 -40.8 26.7 -40.8 26.35 -41.2 17.0 -41.2 17.0 -69.75 M21.65 -76.75 L22.25 -76.75 22.8 -76.7 23.35 -76.55 Q23.55 -76.45 23.85 -76.3 L24.25 -76.1 24.75 -75.8 25.05 -76.05 25.05 -76.1 24.25 -76.6 23.45 -76.9 22.6 -77.1 21.65 -77.2 Q18.85 -77.2 16.8 -76.6 14.75 -76.05 13.4 -75.0 L12.0 -73.8 12.0 -77.2 1.95 -77.2 1.95 -40.8 11.95 -40.8 11.6 -41.2 2.3 -41.2 2.3 -76.75 11.6 -76.75 11.6 -73.0 11.65 -73.0 13.7 -74.65 Q14.9 -75.65 16.85 -76.2 L21.65 -76.75 M24.75 -27.2 L25.35 -27.0 25.9 -26.7 26.35 -26.3 26.85 -25.8 27.2 -25.25 27.5 -24.6 27.7 -23.9 27.8 -23.05 27.8 -3.95 27.7 -3.9 13.05 -3.9 13.05 0.85 15.9 0.85 15.9 -1.5 27.8 -1.5 27.8 5.6 27.7 6.5 27.5 7.2 27.2 7.85 26.85 8.4 26.35 8.85 25.9 9.2 25.35 9.6 24.75 9.8 24.25 10.0 23.7 10.15 23.25 10.3 22.75 10.35 22.1 10.45 6.85 10.45 6.1 10.35 5.7 10.3 5.2 10.15 4.7 10.0 4.1 9.8 3.55 9.6 3.0 9.2 2.5 8.85 2.1 8.4 1.65 7.85 1.35 7.2 1.2 6.5 1.15 5.6 1.15 -23.05 1.2 -23.85 1.35 -24.6 1.65 -25.25 2.1 -25.8 2.5 -26.3 3.0 -26.65 3.55 -27.0 4.1 -27.2 4.7 -27.45 5.2 -27.6 6.1 -27.8 6.75 -27.85 22.1 -27.85 22.75 -27.8 23.7 -27.6 24.25 -27.45 24.75 -27.2 M32.1 -26.3 L32.6 -26.65 33.1 -27.0 33.7 -27.2 34.2 -27.45 34.8 -27.6 35.7 -27.8 36.35 -27.85 57.45 -27.85 57.45 -18.2 42.6 -18.2 42.6 -15.9 57.45 -15.9 57.45 -6.35 42.6 -6.35 42.6 10.45 30.65 10.45 30.65 -23.05 30.75 -23.85 30.95 -24.6 31.25 -25.25 31.6 -25.8 32.1 -26.3 M11.75 -19.5 L12.15 -19.15 16.8 -19.15 16.8 -12.6 12.15 -12.6 11.75 -12.25 17.2 -12.25 17.2 -19.5 11.75 -19.5 M32.85 -25.7 L32.4 -25.25 32.1 -24.85 31.8 -24.25 31.7 -23.7 31.6 -22.95 31.6 9.5 41.85 9.5 41.4 9.15 32.05 9.15 32.05 -22.95 32.1 -23.6 32.25 -24.2 32.45 -24.6 32.75 -25.05 33.1 -25.35 33.5 -25.7 33.9 -25.9 34.35 -26.05 34.8 -26.3 35.95 -26.5 36.5 -26.5 36.65 -26.55 56.25 -26.55 56.65 -26.95 36.45 -26.95 35.85 -26.85 35.5 -26.85 35.05 -26.7 34.65 -26.65 34.15 -26.4 33.7 -26.3 33.25 -26.0 32.85 -25.7 M13.05 -13.55 L15.9 -13.55 15.9 -18.2 13.05 -18.2 13.05 -13.55 M63.5 -28.3 L72.8 -28.3 73.15 -28.65 63.05 -28.65 63.05 -24.5 60.1 -24.5 60.1 -16.7 63.05 -16.7 63.05 5.45 63.15 6.2 63.3 6.85 63.5 7.35 63.8 7.8 64.2 8.2 64.6 8.55 65.0 8.8 65.45 9.0 65.95 9.2 66.4 9.3 67.1 9.45 67.7 9.5 83.15 9.5 83.9 9.35 84.4 9.2 84.9 9.05 85.45 8.8 86.05 8.5 85.75 8.2 85.2 8.5 84.6 8.7 83.65 9.0 83.1 9.05 67.4 9.05 66.95 9.0 66.25 8.95 65.9 8.8 65.5 8.65 65.15 8.4 64.8 8.2 64.1 7.55 63.85 7.2 63.65 6.7 63.5 6.1 63.5 5.45 63.45 -17.15 60.55 -17.15 60.55 -24.1 63.5 -24.1 63.5 -28.3 M26.5 -0.2 L26.95 -0.6 26.95 -0.65 16.8 -0.65 16.8 1.8 12.15 1.8 11.75 2.15 11.8 2.25 17.2 2.25 17.2 -0.2 26.5 -0.2 M11.75 -5.2 L12.15 -4.75 26.95 -4.75 26.95 -4.8 26.5 -5.2 11.75 -5.2 M74.0 -25.4 L88.7 -25.4 88.7 -15.85 74.0 -15.85 74.0 0.8 76.9 0.8 76.9 -13.55 88.7 -13.55 88.7 5.6 88.65 6.5 88.5 7.2 88.2 7.85 87.85 8.35 87.4 8.85 86.9 9.2 86.35 9.5 85.8 9.8 85.25 10.0 84.75 10.15 83.8 10.3 83.1 10.35 67.8 10.35 67.1 10.3 66.15 10.15 65.65 10.0 65.1 9.8 64.5 9.5 Q64.2 9.45 64.0 9.2 L63.5 8.85 63.05 8.35 62.7 7.85 62.4 7.2 62.2 6.5 62.15 5.6 62.15 -15.85 59.2 -15.85 59.2 -25.35 59.25 -25.4 62.15 -25.4 62.15 -29.6 74.0 -29.6 74.0 -25.4 M87.5 -12.25 L87.85 -12.6 77.85 -12.6 77.85 1.75 73.15 1.75 72.8 2.1 72.8 2.15 78.25 2.15 78.25 -12.25 87.5 -12.25 M73.15 -24.5 L72.8 -24.1 87.5 -24.1 87.85 -24.5 73.15 -24.5 M72.8 -17.15 L72.8 -17.05 73.15 -16.7 87.85 -16.7 87.5 -17.15 72.8 -17.15 M41.4 -7.65 L41.4 -7.55 41.75 -7.2 56.65 -7.2 56.25 -7.65 41.4 -7.65 M56.6 -19.15 L56.25 -19.5 41.4 -19.5 41.75 -19.15 56.6 -19.15 M56.25 -14.6 L56.65 -15.0 56.6 -15.05 41.75 -15.05 41.4 -14.7 41.4 -14.6 56.25 -14.6 M47.1 15.2 L47.6 15.35 48.15 15.55 48.65 15.85 49.25 16.15 Q49.45 16.25 49.75 16.5 L50.2 17.0 50.55 17.55 50.85 18.2 51.05 18.95 51.1 19.8 51.1 48.3 51.05 49.2 50.85 49.9 50.55 50.55 50.2 51.1 49.75 51.55 49.25 51.9 48.65 52.25 48.15 52.5 47.6 52.7 47.1 52.85 46.1 53.0 45.45 53.05 29.8 53.05 28.5 52.85 28.0 52.7 27.45 52.5 26.85 52.25 26.35 51.9 25.85 51.55 25.4 51.1 25.0 50.55 24.7 49.9 24.55 49.2 24.5 48.3 24.5 19.8 24.55 18.95 24.7 18.2 25.0 17.55 25.4 17.0 25.85 16.55 26.35 16.15 26.85 15.85 27.45 15.55 28.0 15.4 28.5 15.25 29.45 15.05 30.15 15.0 45.45 15.0 46.1 15.05 47.1 15.2 M40.4 23.2 L35.0 23.2 35.0 23.25 35.4 23.6 40.05 23.6 40.05 44.4 35.4 44.4 35.0 44.8 35.0 44.85 40.4 44.85 40.4 23.2 M20.5 18.3 L20.45 18.2 5.75 18.2 5.4 18.65 20.1 18.65 20.5 18.3 M48.0 16.55 L47.6 16.35 47.1 16.15 46.5 16.0 45.85 15.85 45.15 15.85 30.1 15.85 29.5 15.85 28.75 16.0 28.3 16.15 27.8 16.25 27.35 16.5 26.85 16.8 26.4 17.05 26.05 17.5 Q25.85 17.65 25.8 17.95 L25.5 18.5 25.35 19.1 25.25 19.8 25.25 47.8 Q25.25 48.8 25.7 49.55 26.0 50.25 26.65 50.75 L27.2 51.2 27.85 51.55 28.5 51.75 29.15 51.9 29.75 52.05 30.25 52.15 30.8 52.15 45.8 52.15 46.2 52.0 46.8 51.9 47.3 51.7 47.9 51.4 48.4 51.1 48.4 51.05 48.1 50.75 47.6 51.1 47.0 51.35 46.6 51.55 46.1 51.6 45.45 51.7 30.65 51.7 30.1 51.7 29.25 51.55 28.8 51.4 28.3 51.25 27.8 51.05 27.35 50.75 26.95 50.45 26.5 50.05 26.2 49.6 25.9 49.1 25.8 48.45 25.7 47.8 25.7 19.75 25.8 19.15 25.9 18.6 26.15 18.05 26.4 17.7 26.8 17.35 27.15 17.05 27.6 16.85 28.0 16.65 28.45 16.5 29.6 16.25 30.1 16.2 45.15 16.2 45.8 16.25 46.45 16.35 46.95 16.55 47.45 16.7 48.0 17.05 48.3 17.2 48.55 17.0 48.3 16.8 48.0 16.55 M36.35 24.55 L36.35 43.55 39.25 43.55 39.25 24.55 36.35 24.55 M6.75 17.3 L21.45 17.3 21.45 26.85 6.75 26.85 6.75 43.55 9.65 43.55 9.65 29.15 21.45 29.15 21.45 48.4 21.4 49.2 21.25 49.9 20.95 50.55 20.5 51.1 20.1 51.55 19.6 51.9 19.1 52.25 18.5 52.5 18.0 52.7 17.4 52.85 16.5 53.0 15.85 53.05 0.5 53.05 -0.15 53.0 -1.1 52.8 -1.6 52.65 -2.15 52.5 -2.75 52.2 -3.25 51.9 -3.75 51.5 -4.2 51.05 -4.55 50.55 -4.8 49.9 -5.05 49.2 -5.1 48.4 -5.1 26.85 -8.05 26.85 -8.05 17.35 -8.0 17.3 -5.1 17.3 -5.1 13.05 -5.05 12.95 6.75 12.95 6.75 17.3 M5.4 25.65 L5.75 26.05 20.45 26.05 20.45 26.0 20.1 25.65 5.4 25.65 M10.85 30.55 L20.1 30.55 20.5 30.1 10.5 30.1 10.5 44.5 5.75 44.5 5.4 44.85 10.85 44.85 10.85 30.55 M5.4 14.55 L5.75 14.1 -4.3 14.1 -4.3 18.2 -7.2 18.2 -7.2 26.05 -4.3 26.05 -4.3 48.25 -4.25 48.9 -4.05 49.55 -3.75 50.05 -3.4 50.55 -2.9 50.9 -2.4 51.2 -1.8 51.5 -1.2 51.7 -0.7 51.9 -0.15 52.0 0.35 52.15 0.85 52.2 1.5 52.25 15.5 52.25 16.05 52.2 16.4 52.15 17.8 51.7 18.2 51.5 18.65 51.2 18.35 50.9 17.85 51.2 17.35 51.4 16.85 51.6 16.4 51.7 15.75 51.85 1.5 51.85 0.95 51.75 -1.1 51.35 -1.6 51.2 -2.1 50.9 -2.6 50.6 -3.0 50.25 -3.4 49.8 -3.65 49.4 -3.8 48.8 -3.9 48.25 -3.9 25.65 -6.85 25.65 -6.85 18.65 -3.9 18.65 -3.9 14.55 5.4 14.55 M-86.25 -75.1 L-86.6 -74.4 -86.75 -73.8 -86.85 -73.45 -86.85 -44.4 -86.75 -44.0 -86.55 -43.4 -86.2 -42.7 -85.95 -42.35 -85.6 -42.0 -85.2 -41.6 -84.65 -41.35 -84.1 -41.1 -83.45 -40.9 -82.65 -40.75 -81.8 -40.75 -72.0 -40.75 -72.0 -36.65 -86.85 -36.6 -86.85 -28.8 -66.9 -28.8 -66.45 -28.85 -66.0 -28.85 -65.65 -29.0 -65.25 -29.1 -64.8 -29.25 -63.6 -29.95 -63.5 -29.95 -63.45 -30.0 -63.45 -30.1 -63.7 -30.3 -64.95 -29.6 -65.3 -29.5 -65.75 -29.4 -66.1 -29.3 -66.55 -29.25 -86.4 -29.25 -86.4 -36.2 -71.65 -36.2 -71.65 -41.1 -81.8 -41.1 -82.6 -41.2 -83.3 -41.35 -83.95 -41.45 -84.45 -41.7 -84.95 -42.0 -85.3 -42.25 -85.8 -42.9 -86.2 -43.55 -86.35 -44.05 -86.4 -44.5 -86.4 -73.45 -86.4 -73.75 -86.25 -74.3 -85.9 -74.9 -85.4 -75.55 -85.05 -75.8 -84.6 -76.1 -84.1 -76.3 -83.5 -76.55 -82.8 -76.75 -82.0 -76.8 -62.2 -76.8 -61.85 -77.25 -82.1 -77.25 -82.95 -77.1 -83.65 -76.9 -84.3 -76.7 -84.8 -76.4 -85.3 -76.1 -85.7 -75.75 -86.05 -75.45 -86.25 -75.1 M-86.1 -76.6 L-85.6 -77.05 -84.95 -77.4 -84.25 -77.7 -83.5 -77.9 -82.75 -78.1 -81.85 -78.1 -61.0 -78.1 -61.0 -32.75 -61.05 -32.2 -61.35 -31.4 Q-61.35 -31.2 -61.5 -30.95 L-61.7 -30.45 -62.05 -30.0 -62.4 -29.6 -62.95 -29.1 -63.5 -28.75 -64.15 -28.45 -64.95 -28.15 -65.8 -28.0 -66.9 -27.95 -87.75 -27.95 -87.75 -37.5 -72.95 -37.5 -72.95 -39.9 -82.1 -39.9 -82.75 -39.95 -83.65 -40.1 -84.25 -40.3 -84.75 -40.45 -85.3 -40.75 -85.9 -41.05 -86.4 -41.45 -86.85 -41.9 -87.2 -42.4 -87.5 -43.05 -87.7 -43.8 -87.75 -44.65 -87.75 -73.35 -87.7 -73.95 -87.55 -74.45 -87.35 -75.0 -87.05 -75.6 -86.6 -76.1 -86.1 -76.6 M-5.4 -77.75 L-4.9 -77.55 -4.3 -77.25 -3.75 -76.95 -3.3 -76.55 -2.8 -76.1 -2.45 -75.55 -2.15 -74.9 -1.95 -74.15 -1.85 -73.3 -1.85 -39.95 -22.8 -39.95 -23.45 -40.05 -24.0 -40.1 -24.5 -40.25 -25.0 -40.4 -25.55 -40.55 -26.15 -40.8 -26.65 -41.1 -27.15 -41.55 -27.6 -42.0 -27.95 -42.55 -28.2 -43.15 -28.45 -43.9 -28.5 -44.7 -28.5 -59.1 -28.45 -59.9 -28.2 -60.6 -27.95 -61.25 -27.6 -61.85 -27.15 -62.3 -26.65 -62.65 -26.15 -63.0 -25.55 -63.2 -25.0 -63.45 -24.5 -63.6 -24.0 -63.7 -23.45 -63.7 -22.8 -63.8 -13.75 -63.8 -13.75 -68.55 -16.65 -68.55 -16.65 -66.25 -28.5 -66.25 -28.5 -73.3 -28.45 -74.15 -28.2 -74.9 -27.95 -75.55 -27.6 -76.1 -27.15 -76.55 -26.65 -76.95 -26.15 -77.25 -25.55 -77.55 -25.0 -77.7 -24.5 -77.85 -24.0 -78.0 -23.45 -78.05 -22.8 -78.1 -7.55 -78.1 -6.9 -78.05 -6.0 -77.85 -5.4 -77.75 M-35.65 -76.9 L-36.15 -77.05 -37.0 -77.2 -57.0 -77.2 -57.0 -33.2 -47.0 -33.2 -47.0 -33.25 -47.4 -33.6 -56.65 -33.6 -56.65 -76.75 -37.0 -76.75 -36.3 -76.7 -35.8 -76.55 -35.2 -76.3 -34.65 -76.05 -34.0 -75.65 -33.9 -75.65 -33.75 -75.95 -34.35 -76.4 -35.0 -76.75 -35.65 -76.9 M-6.1 -76.55 L-6.05 -76.45 -5.75 -76.4 -5.2 -76.1 -4.95 -75.95 -4.9 -75.95 -4.6 -76.25 -4.9 -76.4 -5.55 -76.75 -6.0 -76.9 -6.5 -77.05 -7.05 -77.2 -7.15 -77.2 -7.8 -77.25 -22.8 -77.25 -23.4 -77.2 -24.2 -77.05 -24.5 -76.9 -24.6 -76.9 -25.05 -76.75 -25.55 -76.55 -26.0 -76.25 -26.4 -75.95 -26.8 -75.6 -27.15 -75.1 -27.35 -74.6 -27.35 -74.5 -27.6 -74.0 -27.6 -73.35 -27.6 -67.1 -17.5 -67.1 -17.95 -67.55 -27.15 -67.55 -27.15 -73.3 -27.15 -73.8 -27.15 -73.85 -27.0 -74.45 -26.7 -74.9 -26.4 -75.3 -26.15 -75.6 -26.15 -75.65 -25.7 -75.95 -25.25 -76.2 Q-25.05 -76.25 -24.85 -76.4 L-24.4 -76.55 -23.25 -76.75 -22.8 -76.8 -7.8 -76.8 -7.2 -76.75 -6.6 -76.7 -6.1 -76.55 M-35.95 -77.9 L-35.4 -77.85 -34.9 -77.7 -34.35 -77.45 -33.75 -77.25 -33.25 -76.9 -32.75 -76.55 -32.35 -76.05 -31.95 -75.55 -31.7 -74.9 -31.45 -74.1 -31.4 -73.3 -31.4 -61.35 -31.45 -60.9 -31.6 -60.5 -32.1 -59.9 -32.7 -59.55 -32.85 -59.4 -32.7 -59.35 -32.1 -58.8 -31.9 -58.4 -31.6 -57.95 -31.45 -57.3 -31.4 -56.65 -31.4 -37.5 -16.35 -37.5 -16.35 -27.8 -6.9 -27.8 -6.7 -27.7 -6.1 -27.65 -5.25 -27.5 -4.8 -27.35 -4.3 -27.15 -3.8 -26.85 -3.3 -26.55 -2.9 -26.2 -2.45 -25.7 -2.15 -25.2 -1.85 -24.55 -1.75 -23.75 -1.65 -22.95 -1.65 10.45 -13.55 10.45 -13.55 -18.2 -16.35 -18.2 -16.35 10.45 -28.2 10.45 -28.2 -28.0 -37.85 -28.0 -39.15 -28.3 -39.75 -28.45 -40.25 -28.6 -40.8 -28.85 -41.4 -29.15 -41.9 -29.6 -42.35 -30.0 -42.75 -30.6 -43.0 -31.25 -43.2 -31.95 -43.25 -32.75 -43.25 -54.2 -46.15 -54.2 -46.15 -32.35 -57.95 -32.35 -57.95 -78.1 -37.3 -78.1 -37.0 -78.05 -36.35 -78.05 -35.95 -77.9 M-17.5 -55.15 L-12.9 -55.15 -12.9 -48.55 -17.55 -48.55 -17.95 -48.15 -12.45 -48.15 -12.45 -55.5 -17.95 -55.5 -17.5 -55.15 M-25.55 -62.2 L-26.0 -62.0 -26.4 -61.7 -26.8 -61.25 -27.15 -60.85 -27.35 -60.35 -27.35 -60.25 -27.6 -59.75 -27.6 -59.1 -27.6 -44.65 -27.6 -44.05 -27.35 -43.5 -27.35 -43.4 -27.15 -42.9 -26.8 -42.5 -26.4 -42.1 -26.0 -41.75 -25.55 -41.55 Q-25.25 -41.4 -25.05 -41.35 L-24.6 -41.2 -24.5 -41.1 -24.2 -41.05 -23.4 -40.9 -23.35 -40.9 -22.8 -40.8 -2.9 -40.8 -2.8 -40.9 -3.25 -41.25 -22.8 -41.25 -23.25 -41.35 -23.35 -41.35 -24.0 -41.45 -24.85 -41.7 Q-25.05 -41.75 -25.25 -41.9 L-25.7 -42.1 -26.15 -42.4 -26.3 -42.55 -26.4 -42.7 -26.7 -43.15 -27.0 -43.55 -27.15 -44.15 -27.15 -44.7 -27.15 -59.05 -27.15 -59.6 -27.15 -59.7 -27.0 -60.2 -26.7 -60.7 -26.4 -61.05 -25.9 -61.55 -25.7 -61.7 -25.25 -61.9 -24.85 -62.05 -24.0 -62.35 -23.25 -62.5 -22.8 -62.5 -12.45 -62.5 -12.45 -69.85 -17.95 -69.85 -17.5 -69.4 -12.9 -69.4 -12.9 -62.95 -22.8 -62.95 -23.4 -62.85 -24.2 -62.7 -24.5 -62.65 -24.6 -62.65 -25.05 -62.4 -25.55 -62.2 M-16.65 -54.3 L-16.65 -49.45 -13.75 -49.45 -13.75 -54.3 -16.65 -54.3 M-75.8 -68.55 L-75.8 -49.4 -72.95 -49.4 -72.95 -68.55 -75.8 -68.55 M-42.0 -69.75 L-42.35 -69.4 -42.35 -62.85 -47.0 -62.85 -47.4 -62.5 -42.0 -62.5 -42.0 -69.75 M-71.65 -69.75 L-72.0 -69.4 -72.0 -48.55 -76.7 -48.55 -77.05 -48.15 -77.05 -48.1 -71.65 -48.1 -71.65 -69.75 M-46.15 -68.55 L-46.15 -63.8 -43.25 -63.8 -43.25 -68.55 -46.15 -68.55 M-42.0 -55.5 L-42.35 -55.1 -42.35 -32.75 -42.35 -32.05 -42.1 -31.45 -41.9 -30.95 -41.55 -30.55 -41.2 -30.15 -40.75 -29.8 Q-40.55 -29.65 -40.3 -29.6 -40.1 -29.45 -39.8 -29.4 L-39.3 -29.25 -38.9 -29.1 -38.1 -28.95 -37.5 -28.85 -27.3 -28.85 -27.3 9.5 -17.2 9.5 -17.55 9.15 -26.95 9.15 -26.95 -29.3 -37.5 -29.3 -38.0 -29.4 -38.75 -29.5 -39.6 -29.75 -40.05 -29.95 Q-40.25 -30.0 -40.45 -30.15 L-40.9 -30.45 -41.25 -30.75 -41.55 -31.2 -41.75 -31.6 -41.9 -32.2 -42.0 -32.75 -42.0 -55.5 M-58.05 -29.75 L-46.1 -29.75 -46.1 -25.4 -31.25 -25.4 -31.25 -15.85 -45.95 -15.85 -45.95 0.85 -43.05 0.85 -43.05 -13.45 -31.25 -13.45 -31.25 5.6 -31.3 6.5 -31.45 7.2 -31.75 7.85 -32.1 8.4 -32.6 8.85 -33.1 9.2 -33.6 9.6 -34.2 9.8 -34.8 10.0 -35.3 10.15 -36.2 10.35 -36.6 10.35 -36.85 10.45 -52.15 10.45 -52.85 10.35 -53.3 10.3 -53.8 10.15 -54.3 10.0 -54.85 9.8 -55.45 9.6 -55.95 9.2 -56.45 8.85 -56.9 8.35 -57.3 7.85 -57.55 7.2 -57.75 6.5 -57.8 5.6 -57.8 -15.85 -60.75 -15.85 -60.75 -25.35 -57.95 -25.4 -58.05 -29.75 M-26.7 15.85 L-26.7 15.75 -36.8 15.75 -36.8 48.3 -36.7 48.95 -36.6 49.55 -36.35 50.1 -36.0 50.55 -35.65 50.9 -35.2 51.2 -34.8 51.5 -34.25 51.7 -33.85 51.85 -33.35 52.0 -32.55 52.15 -31.95 52.2 -17.0 52.2 -16.5 52.2 -16.0 52.05 -15.5 52.0 -15.05 51.75 -14.35 51.5 -13.8 51.2 -14.2 50.9 -14.55 51.1 -15.2 51.4 -15.55 51.55 -16.0 51.7 -16.5 51.75 -17.0 51.75 -31.95 51.75 -32.45 51.7 -32.85 51.7 -33.7 51.5 -34.05 51.35 -34.5 51.1 -34.9 50.9 -35.35 50.6 -35.65 50.25 -35.95 49.9 -36.15 49.45 -36.35 48.9 -36.35 48.3 -36.35 16.2 -27.05 16.2 -26.7 15.85 M-12.4 16.2 L-12.0 15.85 -22.1 15.85 -22.1 44.4 -26.7 44.4 -27.15 44.8 -21.65 44.8 -21.65 16.2 -12.4 16.2 M-17.2 -19.1 L-12.6 -19.1 -12.6 9.5 -2.5 9.5 -2.9 9.15 -12.15 9.15 -12.15 -19.45 -17.65 -19.45 -17.2 -19.1 M-32.6 -12.25 L-32.2 -12.6 -42.25 -12.6 -42.25 1.75 -46.95 1.75 -47.3 2.1 -47.3 2.15 -41.85 2.15 -41.85 -12.25 -32.6 -12.25 M-17.55 -36.2 L-17.2 -36.65 -32.25 -36.65 -32.7 -36.2 -17.55 -36.2 M-17.3 -26.85 L-17.65 -26.5 -17.55 -26.4 -7.5 -26.4 -6.75 -26.4 -6.05 -26.3 -5.4 -26.0 -4.75 -25.7 -4.45 -25.5 -4.2 -25.8 -4.55 -26.0 -5.2 -26.35 -5.9 -26.65 -6.7 -26.8 -7.5 -26.85 -17.3 -26.85 M-46.95 -24.5 L-47.3 -24.1 -32.6 -24.1 -32.2 -24.5 -46.95 -24.5 M-47.3 -17.15 L-47.3 -17.05 -46.95 -16.7 -32.2 -16.7 -32.6 -17.15 -47.3 -17.15 M-47.3 -28.3 L-46.95 -28.65 -57.0 -28.65 -57.0 -24.5 -60.0 -24.5 -59.9 -16.7 -57.0 -16.7 -57.0 5.45 -56.95 6.2 -56.8 6.85 -56.5 7.35 -56.25 7.8 -55.85 8.2 -55.45 8.55 -55.0 8.8 -54.6 9.0 -54.15 9.2 -53.7 9.3 -52.9 9.45 -52.4 9.5 -36.95 9.5 -36.15 9.35 -35.7 9.2 -35.15 9.05 -34.55 8.8 -34.05 8.5 -34.35 8.2 -34.9 8.5 -35.5 8.7 -36.45 9.0 -37.0 9.05 -52.7 9.05 -53.15 9.0 -53.5 9.0 -54.2 8.8 -54.6 8.65 -55.3 8.2 -55.95 7.55 -56.25 7.2 -56.45 6.7 -56.5 6.1 -56.6 5.45 -56.6 -17.15 -59.55 -17.15 -59.55 -24.1 -56.6 -24.1 -56.6 -28.3 -47.3 -28.3 M-25.7 14.9 L-25.7 43.55 -22.9 43.55 -22.9 14.9 -11.0 14.9 -11.0 48.3 -11.1 49.2 -11.3 49.9 -11.6 50.55 -11.95 51.05 -12.4 51.55 -12.9 51.9 -13.45 52.2 -13.95 52.5 -14.55 52.7 -15.05 52.85 -16.0 53.0 -16.7 53.05 -31.95 53.05 -32.6 53.0 -33.55 52.85 -34.05 52.7 -34.65 52.5 -35.2 52.2 -35.7 51.9 -36.2 51.5 -36.65 51.05 -37.0 50.45 -37.35 49.8 -37.5 49.1 -37.6 48.25 -37.6 14.9 -25.7 14.9 M-51.25 23.2 L-56.65 23.2 -56.3 23.55 -51.6 23.55 -51.6 30.0 -61.35 30.0 -61.55 30.1 -62.15 30.1 -62.95 30.25 -63.45 30.4 -63.85 30.55 -64.3 30.75 -64.8 31.05 -65.15 31.3 -65.6 31.7 -65.9 32.2 -66.15 32.7 -66.3 33.25 -66.4 33.9 -66.4 48.3 -66.3 48.95 -66.15 49.55 -65.9 50.1 -65.6 50.55 -64.8 51.2 -64.3 51.5 -63.85 51.7 -63.45 51.85 -62.95 52.0 -62.15 52.15 -61.55 52.15 -61.35 52.2 -41.6 52.2 -41.6 52.15 -42.0 51.7 -61.55 51.75 -62.05 51.7 -62.8 51.55 -63.2 51.5 -63.65 51.35 -64.1 51.1 -64.5 50.9 -65.25 50.25 -65.5 49.9 -65.75 49.45 -65.9 48.9 -65.95 48.3 -65.95 33.9 -65.9 33.35 -65.75 32.75 -65.5 32.35 -65.25 31.95 -64.85 31.6 -64.5 31.3 -64.1 31.1 -63.65 30.9 -63.2 30.75 -62.05 30.55 -61.55 30.45 -51.25 30.45 -51.25 23.2 M-55.3 24.55 L-55.3 26.85 -67.2 26.85 -67.2 19.75 -67.1 18.95 -66.9 18.15 -66.6 17.5 -66.25 17.0 -65.8 16.5 Q-65.6 16.25 -65.3 16.15 L-64.75 15.75 -64.2 15.55 -63.65 15.35 -63.15 15.2 -62.2 15.0 -61.5 14.9 -46.2 14.9 -45.6 15.0 -44.65 15.2 -44.05 15.35 -43.5 15.55 -43.0 15.75 -42.4 16.15 Q-42.2 16.25 -41.9 16.5 L-41.45 17.0 -41.1 17.5 -40.8 18.15 -40.7 18.95 -40.6 19.75 -40.6 53.05 -61.5 53.05 -62.2 53.0 -63.15 52.85 -63.65 52.7 -64.2 52.5 -64.75 52.25 -65.3 51.9 -65.8 51.55 -66.25 51.1 -66.6 50.55 -66.9 49.9 -67.1 49.2 -67.2 48.3 -67.2 34.0 -67.1 33.1 -66.9 32.4 -66.6 31.75 -66.25 31.25 -65.8 30.75 -65.3 30.4 -64.75 30.0 -64.2 29.8 -63.65 29.6 -63.15 29.45 -62.2 29.3 -61.5 29.25 -52.4 29.25 -52.4 24.55 -55.3 24.55 M-43.4 16.7 L-43.65 16.55 -44.3 16.25 -44.8 16.05 -45.3 15.9 -45.95 15.85 -46.6 15.75 -61.55 15.75 -62.15 15.85 -62.95 16.0 -63.45 16.15 -63.85 16.25 -64.3 16.5 -64.8 16.8 -65.15 17.05 -65.6 17.4 -65.9 17.95 -66.15 18.45 -66.3 19.0 -66.4 19.75 -66.4 25.9 -56.3 25.9 -56.3 25.85 -56.65 25.5 -65.95 25.5 -65.95 19.75 -65.9 19.1 -65.75 18.6 -65.5 18.05 -65.25 17.65 -64.85 17.35 -64.5 17.05 -64.1 16.85 -63.65 16.65 -63.2 16.5 -62.8 16.35 -62.05 16.25 -61.55 16.2 -46.6 16.2 -45.95 16.2 -45.45 16.35 -44.95 16.5 Q-44.7 16.5 -44.5 16.65 L-43.9 16.9 -43.7 17.0 -43.4 16.8 -43.4 16.7 M-55.3 38.8 L-55.3 43.55 -52.4 43.55 -52.4 38.8 -55.3 38.8 M-56.65 37.5 L-56.3 37.85 -51.6 37.85 -51.6 44.4 -56.3 44.4 -56.75 44.85 -51.25 44.85 -51.25 37.45 -56.65 37.45 -56.65 37.5" fill="#ffffff" fill-rule="evenodd" stroke="none"/>
    <path d="M56.4 -86.75 L56.0 -86.4 46.65 -86.4 46.65 -76.8 36.2 -76.8 35.7 -76.75 35.0 -76.7 34.15 -76.4 33.7 -76.2 33.25 -75.95 32.9 -75.65 32.55 -75.3 32.25 -74.95 32.05 -74.45 31.8 -73.95 31.8 -73.3 31.8 -44.7 31.8 -44.05 32.05 -43.55 32.25 -43.15 32.55 -42.7 33.25 -42.05 33.7 -41.85 34.15 -41.7 35.0 -41.4 35.7 -41.25 36.2 -41.25 36.45 -41.2 56.0 -41.2 56.4 -40.8 36.2 -40.8 35.65 -40.9 34.85 -41.05 34.4 -41.1 33.9 -41.35 33.5 -41.55 Q33.25 -41.6 33.0 -41.75 L32.55 -42.05 32.2 -42.5 31.9 -42.9 31.6 -43.4 31.45 -44.0 31.4 -44.7 31.4 -73.3 31.45 -74.0 31.6 -74.6 31.9 -75.1 32.2 -75.6 32.55 -75.95 33.0 -76.25 33.5 -76.55 33.9 -76.75 34.4 -76.9 34.85 -77.05 35.65 -77.2 36.2 -77.25 46.2 -77.25 46.2 -86.85 56.4 -86.85 56.4 -86.75 M46.45 -69.75 L46.45 -48.0 41.05 -48.0 41.4 -48.4 46.1 -48.45 46.1 -69.4 46.45 -69.75 M21.65 -76.75 L16.85 -76.2 Q14.9 -75.65 13.7 -74.65 L11.65 -73.0 11.6 -73.0 11.6 -76.75 2.3 -76.75 2.3 -41.2 11.6 -41.2 11.95 -40.8 1.95 -40.8 1.95 -77.2 12.0 -77.2 12.0 -73.8 13.4 -75.0 Q14.75 -76.05 16.8 -76.6 18.85 -77.2 21.65 -77.2 L22.6 -77.1 23.45 -76.9 24.25 -76.6 25.05 -76.1 25.05 -76.05 24.75 -75.8 24.25 -76.1 23.85 -76.3 Q23.55 -76.45 23.35 -76.55 L22.8 -76.7 22.25 -76.75 21.65 -76.75 M17.0 -69.75 L17.0 -41.2 26.35 -41.2 26.7 -40.8 16.65 -40.8 16.65 -69.4 17.0 -69.75 M22.6 -26.85 L23.35 -26.8 23.9 -26.55 24.4 -26.35 24.75 -26.15 25.15 -26.0 25.35 -25.8 25.05 -25.5 24.85 -25.65 24.2 -26.0 23.75 -26.2 23.2 -26.35 22.55 -26.5 21.9 -26.55 7.05 -26.55 6.85 -26.5 6.35 -26.5 5.2 -26.3 4.75 -26.05 4.3 -25.9 3.9 -25.7 3.15 -25.05 2.9 -24.6 2.65 -24.2 2.5 -23.6 2.45 -22.95 2.45 5.45 2.5 6.1 Q2.5 6.4 2.65 6.7 L2.9 7.2 3.15 7.55 3.55 7.9 3.9 8.3 4.3 8.5 4.75 8.7 5.2 8.85 6.35 9.05 6.85 9.15 21.9 9.15 22.6 9.05 23.35 8.95 24.05 8.65 24.7 8.3 25.05 8.5 25.0 8.55 24.5 8.85 24.0 9.15 23.45 9.3 22.95 9.45 22.4 9.5 21.9 9.5 6.85 9.5 6.25 9.5 5.45 9.35 5.05 9.2 4.55 9.0 4.1 8.85 3.6 8.55 3.25 8.2 2.8 7.85 2.5 7.35 2.3 6.85 2.1 6.2 2.0 5.45 2.0 -22.95 2.1 -23.7 2.3 -24.25 2.5 -24.85 2.9 -25.25 3.25 -25.7 3.65 -26.0 4.1 -26.3 4.6 -26.4 5.05 -26.65 5.45 -26.7 5.9 -26.85 6.35 -26.85 6.85 -26.95 21.9 -26.95 22.6 -26.85 M32.85 -25.7 L33.25 -26.0 33.7 -26.3 34.15 -26.4 34.65 -26.65 35.05 -26.7 35.5 -26.85 35.85 -26.85 36.45 -26.95 56.65 -26.95 56.25 -26.55 36.65 -26.55 36.5 -26.5 35.95 -26.5 34.8 -26.3 34.35 -26.05 33.9 -25.9 33.5 -25.7 33.1 -25.35 32.75 -25.05 32.45 -24.6 32.25 -24.2 32.1 -23.6 32.05 -22.95 32.05 9.15 41.4 9.15 41.85 9.5 31.6 9.5 31.6 -22.95 31.7 -23.7 31.8 -24.25 32.1 -24.85 32.4 -25.25 32.85 -25.7 M11.75 -19.5 L17.2 -19.5 17.2 -12.25 11.75 -12.25 12.15 -12.6 16.8 -12.6 16.8 -19.15 12.15 -19.15 11.75 -19.5 M11.75 -5.2 L26.5 -5.2 26.95 -4.8 26.95 -4.75 12.15 -4.75 11.75 -5.2 M26.5 -0.2 L17.2 -0.2 17.2 2.25 11.8 2.25 11.75 2.15 12.15 1.8 16.8 1.8 16.8 -0.65 26.95 -0.65 26.95 -0.6 26.5 -0.2 M63.5 -28.3 L63.5 -24.1 60.55 -24.1 60.55 -17.15 63.45 -17.15 63.5 5.45 63.5 6.1 63.65 6.7 63.85 7.2 64.1 7.55 64.8 8.2 65.15 8.4 65.5 8.65 65.9 8.8 66.25 8.95 66.95 9.0 67.4 9.05 83.1 9.05 83.65 9.0 84.6 8.7 85.2 8.5 85.75 8.2 86.05 8.5 85.45 8.8 84.9 9.05 84.4 9.2 83.9 9.35 83.15 9.5 67.7 9.5 67.1 9.45 66.4 9.3 65.95 9.2 65.45 9.0 65.0 8.8 64.6 8.55 64.2 8.2 63.8 7.8 63.5 7.35 63.3 6.85 63.15 6.2 63.05 5.45 63.05 -16.7 60.1 -16.7 60.1 -24.5 63.05 -24.5 63.05 -28.65 73.15 -28.65 72.8 -28.3 63.5 -28.3 M56.25 -14.6 L41.4 -14.6 41.4 -14.7 41.75 -15.05 56.6 -15.05 56.65 -15.0 56.25 -14.6 M56.6 -19.15 L41.75 -19.15 41.4 -19.5 56.25 -19.5 56.6 -19.15 M41.4 -7.65 L56.25 -7.65 56.65 -7.2 41.75 -7.2 41.4 -7.55 41.4 -7.65 M72.8 -17.15 L87.5 -17.15 87.85 -16.7 73.15 -16.7 72.8 -17.05 72.8 -17.15 M73.15 -24.5 L87.85 -24.5 87.5 -24.1 72.8 -24.1 73.15 -24.5 M87.5 -12.25 L78.25 -12.25 78.25 2.15 72.8 2.15 72.8 2.1 73.15 1.75 77.85 1.75 77.85 -12.6 87.85 -12.6 87.5 -12.25 M48.0 16.55 L48.3 16.8 48.55 17.0 48.3 17.2 48.0 17.05 47.45 16.7 46.95 16.55 46.45 16.35 45.8 16.25 45.15 16.2 30.1 16.2 29.6 16.25 28.45 16.5 28.0 16.65 27.6 16.85 27.15 17.05 26.8 17.35 26.4 17.7 26.15 18.05 25.9 18.6 25.8 19.15 25.7 19.75 25.7 47.8 25.8 48.45 25.9 49.1 26.2 49.6 26.5 50.05 26.95 50.45 27.35 50.75 27.8 51.05 28.3 51.25 28.8 51.4 29.25 51.55 30.1 51.7 30.65 51.7 45.45 51.7 46.1 51.6 46.6 51.55 47.0 51.35 47.6 51.1 48.1 50.75 48.4 51.05 48.4 51.1 47.9 51.4 47.3 51.7 46.8 51.9 46.2 52.0 45.8 52.15 30.8 52.15 30.25 52.15 29.75 52.05 29.15 51.9 28.5 51.75 27.85 51.55 27.2 51.2 26.65 50.75 Q26.0 50.25 25.7 49.55 25.25 48.8 25.25 47.8 L25.25 19.8 25.35 19.1 25.5 18.5 25.8 17.95 Q25.85 17.65 26.05 17.5 L26.4 17.05 26.85 16.8 27.35 16.5 27.8 16.25 28.3 16.15 28.75 16.0 29.5 15.85 30.1 15.85 45.15 15.85 45.85 15.85 46.5 16.0 47.1 16.15 47.6 16.35 48.0 16.55 M20.5 18.3 L20.1 18.65 5.4 18.65 5.75 18.2 20.45 18.2 20.5 18.3 M40.4 23.2 L40.4 44.85 35.0 44.85 35.0 44.8 35.4 44.4 40.05 44.4 40.05 23.6 35.4 23.6 35.0 23.25 35.0 23.2 40.4 23.2 M5.4 14.55 L-3.9 14.55 -3.9 18.65 -6.85 18.65 -6.85 25.65 -3.9 25.65 -3.9 48.25 -3.8 48.8 -3.65 49.4 -3.4 49.8 -3.0 50.25 -2.6 50.6 -2.1 50.9 -1.6 51.2 -1.1 51.35 0.95 51.75 1.5 51.85 15.75 51.85 16.4 51.7 16.85 51.6 17.35 51.4 17.85 51.2 18.35 50.9 18.65 51.2 18.2 51.5 17.8 51.7 16.4 52.15 16.05 52.2 15.5 52.25 1.5 52.25 0.85 52.2 0.35 52.15 -0.15 52.0 -0.7 51.9 -1.2 51.7 -1.8 51.5 -2.4 51.2 -2.9 50.9 -3.4 50.55 -3.75 50.05 -4.05 49.55 -4.25 48.9 -4.3 48.25 -4.3 26.05 -7.2 26.05 -7.2 18.2 -4.3 18.2 -4.3 14.1 5.75 14.1 5.4 14.55 M10.85 30.55 L10.85 44.85 5.4 44.85 5.75 44.5 10.5 44.5 10.5 30.1 20.5 30.1 20.1 30.55 10.85 30.55 M5.4 25.65 L20.1 25.65 20.45 26.0 20.45 26.05 5.75 26.05 5.4 25.65 M-86.25 -75.1 L-86.05 -75.45 -85.7 -75.75 -85.3 -76.1 -84.8 -76.4 -84.3 -76.7 -83.65 -76.9 -82.95 -77.1 -82.1 -77.25 -61.85 -77.25 -62.2 -76.8 -82.0 -76.8 -82.8 -76.75 -83.5 -76.55 -84.1 -76.3 -84.6 -76.1 -85.05 -75.8 -85.4 -75.55 -85.9 -74.9 -86.25 -74.3 -86.4 -73.75 -86.4 -73.45 -86.4 -44.5 -86.35 -44.05 -86.2 -43.55 -85.8 -42.9 -85.3 -42.25 -84.95 -42.0 -84.45 -41.7 -83.95 -41.45 -83.3 -41.35 -82.6 -41.2 -81.8 -41.1 -71.65 -41.1 -71.65 -36.2 -86.4 -36.2 -86.4 -29.25 -66.55 -29.25 -66.1 -29.3 -65.75 -29.4 -65.3 -29.5 -64.95 -29.6 -63.7 -30.3 -63.45 -30.1 -63.45 -30.0 -63.5 -29.95 -63.6 -29.95 -64.8 -29.25 -65.25 -29.1 -65.65 -29.0 -66.0 -28.85 -66.45 -28.85 -66.9 -28.8 -86.85 -28.8 -86.85 -36.6 -72.0 -36.65 -72.0 -40.75 -81.8 -40.75 -82.65 -40.75 -83.45 -40.9 -84.1 -41.1 -84.65 -41.35 -85.2 -41.6 -85.6 -42.0 -85.95 -42.35 -86.2 -42.7 -86.55 -43.4 -86.75 -44.0 -86.85 -44.4 -86.85 -73.45 -86.75 -73.8 -86.6 -74.4 -86.25 -75.1 M-6.1 -76.55 L-6.6 -76.7 -7.2 -76.75 -7.8 -76.8 -22.8 -76.8 -23.25 -76.75 -24.4 -76.55 -24.85 -76.4 Q-25.05 -76.25 -25.25 -76.2 L-25.7 -75.95 -26.15 -75.65 -26.15 -75.6 -26.4 -75.3 -26.7 -74.9 -27.0 -74.45 -27.15 -73.85 -27.15 -73.8 -27.15 -73.3 -27.15 -67.55 -17.95 -67.55 -17.5 -67.1 -27.6 -67.1 -27.6 -73.35 -27.6 -74.0 -27.35 -74.5 -27.35 -74.6 -27.15 -75.1 -26.8 -75.6 -26.4 -75.95 -26.0 -76.25 -25.55 -76.55 -25.05 -76.75 -24.6 -76.9 -24.5 -76.9 -24.2 -77.05 -23.4 -77.2 -22.8 -77.25 -7.8 -77.25 -7.15 -77.2 -7.05 -77.2 -6.5 -77.05 -6.0 -76.9 -5.55 -76.75 -4.9 -76.4 -4.6 -76.25 -4.9 -75.95 -4.95 -75.95 -5.2 -76.1 -5.75 -76.4 -6.05 -76.45 -6.1 -76.55 M-35.65 -76.9 L-35.0 -76.75 -34.35 -76.4 -33.75 -75.95 -33.9 -75.65 -34.0 -75.65 -34.65 -76.05 -35.2 -76.3 -35.8 -76.55 -36.3 -76.7 -37.0 -76.75 -56.65 -76.75 -56.65 -33.6 -47.4 -33.6 -47.0 -33.25 -47.0 -33.2 -57.0 -33.2 -57.0 -77.2 -37.0 -77.2 -36.15 -77.05 -35.65 -76.9 M-25.55 -62.2 L-25.05 -62.4 -24.6 -62.65 -24.5 -62.65 -24.2 -62.7 -23.4 -62.85 -22.8 -62.95 -12.9 -62.95 -12.9 -69.4 -17.5 -69.4 -17.95 -69.85 -12.45 -69.85 -12.45 -62.5 -22.8 -62.5 -23.25 -62.5 -24.0 -62.35 -24.85 -62.05 -25.25 -61.9 -25.7 -61.7 -25.9 -61.55 -26.4 -61.05 -26.7 -60.7 -27.0 -60.2 -27.15 -59.7 -27.15 -59.6 -27.15 -59.05 -27.15 -44.7 -27.15 -44.15 -27.0 -43.55 -26.7 -43.15 -26.4 -42.7 -26.3 -42.55 -26.15 -42.4 -25.7 -42.1 -25.25 -41.9 Q-25.05 -41.75 -24.85 -41.7 L-24.0 -41.45 -23.35 -41.35 -23.25 -41.35 -22.8 -41.25 -3.25 -41.25 -2.8 -40.9 -2.9 -40.8 -22.8 -40.8 -23.35 -40.9 -23.4 -40.9 -24.2 -41.05 -24.5 -41.1 -24.6 -41.2 -25.05 -41.35 Q-25.25 -41.4 -25.55 -41.55 L-26.0 -41.75 -26.4 -42.1 -26.8 -42.5 -27.15 -42.9 -27.35 -43.4 -27.35 -43.5 -27.6 -44.05 -27.6 -44.65 -27.6 -59.1 -27.6 -59.75 -27.35 -60.25 -27.35 -60.35 -27.15 -60.85 -26.8 -61.25 -26.4 -61.7 -26.0 -62.0 -25.55 -62.2 M-17.5 -55.15 L-17.95 -55.5 -12.45 -55.5 -12.45 -48.15 -17.95 -48.15 -17.55 -48.55 -12.9 -48.55 -12.9 -55.15 -17.5 -55.15 M-71.65 -69.75 L-71.65 -48.1 -77.05 -48.1 -77.05 -48.15 -76.7 -48.55 -72.0 -48.55 -72.0 -69.4 -71.65 -69.75 M-42.0 -69.75 L-42.0 -62.5 -47.4 -62.5 -47.0 -62.85 -42.35 -62.85 -42.35 -69.4 -42.0 -69.75 M-42.0 -55.5 L-42.0 -32.75 -41.9 -32.2 -41.75 -31.6 -41.55 -31.2 -41.25 -30.75 -40.9 -30.45 -40.45 -30.15 Q-40.25 -30.0 -40.05 -29.95 L-39.6 -29.75 -38.75 -29.5 -38.0 -29.4 -37.5 -29.3 -26.95 -29.3 -26.95 9.15 -17.55 9.15 -17.2 9.5 -27.3 9.5 -27.3 -28.85 -37.5 -28.85 -38.1 -28.95 -38.9 -29.1 -39.3 -29.25 -39.8 -29.4 Q-40.1 -29.45 -40.3 -29.6 -40.55 -29.65 -40.75 -29.8 L-41.2 -30.15 -41.55 -30.55 -41.9 -30.95 -42.1 -31.45 -42.35 -32.05 -42.35 -32.75 -42.35 -55.1 -42.0 -55.5 M-47.3 -28.3 L-56.6 -28.3 -56.6 -24.1 -59.55 -24.1 -59.55 -17.15 -56.6 -17.15 -56.6 5.45 -56.5 6.1 -56.45 6.7 -56.25 7.2 -55.95 7.55 -55.3 8.2 -54.6 8.65 -54.2 8.8 -53.5 9.0 -53.15 9.0 -52.7 9.05 -37.0 9.05 -36.45 9.0 -35.5 8.7 -34.9 8.5 -34.35 8.2 -34.05 8.5 -34.55 8.8 -35.15 9.05 -35.7 9.2 -36.15 9.35 -36.95 9.5 -52.4 9.5 -52.9 9.45 -53.7 9.3 -54.15 9.2 -54.6 9.0 -55.0 8.8 -55.45 8.55 -55.85 8.2 -56.25 7.8 -56.5 7.35 -56.8 6.85 -56.95 6.2 -57.0 5.45 -57.0 -16.7 -59.9 -16.7 -60.0 -24.5 -57.0 -24.5 -57.0 -28.65 -46.95 -28.65 -47.3 -28.3 M-47.3 -17.15 L-32.6 -17.15 -32.2 -16.7 -46.95 -16.7 -47.3 -17.05 -47.3 -17.15 M-46.95 -24.5 L-32.2 -24.5 -32.6 -24.1 -47.3 -24.1 -46.95 -24.5 M-17.3 -26.85 L-7.5 -26.85 -6.7 -26.8 -5.9 -26.65 -5.2 -26.35 -4.55 -26.0 -4.2 -25.8 -4.45 -25.5 -4.75 -25.7 -5.4 -26.0 -6.05 -26.3 -6.75 -26.4 -7.5 -26.4 -17.55 -26.4 -17.65 -26.5 -17.3 -26.85 M-17.55 -36.2 L-32.7 -36.2 -32.25 -36.65 -17.2 -36.65 -17.55 -36.2 M-32.6 -12.25 L-41.85 -12.25 -41.85 2.15 -47.3 2.15 -47.3 2.1 -46.95 1.75 -42.25 1.75 -42.25 -12.6 -32.2 -12.6 -32.6 -12.25 M-17.2 -19.1 L-17.65 -19.45 -12.15 -19.45 -12.15 9.15 -2.9 9.15 -2.5 9.5 -12.6 9.5 -12.6 -19.1 -17.2 -19.1 M-12.4 16.2 L-21.65 16.2 -21.65 44.8 -27.15 44.8 -26.7 44.4 -22.1 44.4 -22.1 15.85 -12.0 15.85 -12.4 16.2 M-26.7 15.85 L-27.05 16.2 -36.35 16.2 -36.35 48.3 -36.35 48.9 -36.15 49.45 -35.95 49.9 -35.65 50.25 -35.35 50.6 -34.9 50.9 -34.5 51.1 -34.05 51.35 -33.7 51.5 -32.85 51.7 -32.45 51.7 -31.95 51.75 -17.0 51.75 -16.5 51.75 -16.0 51.7 -15.55 51.55 -15.2 51.4 -14.55 51.1 -14.2 50.9 -13.8 51.2 -14.35 51.5 -15.05 51.75 -15.5 52.0 -16.0 52.05 -16.5 52.2 -17.0 52.2 -31.95 52.2 -32.55 52.15 -33.35 52.0 -33.85 51.85 -34.25 51.7 -34.8 51.5 -35.2 51.2 -35.65 50.9 -36.0 50.55 -36.35 50.1 -36.6 49.55 -36.7 48.95 -36.8 48.3 -36.8 15.75 -26.7 15.75 -26.7 15.85 M-51.25 23.2 L-51.25 30.45 -61.55 30.45 -62.05 30.55 -63.2 30.75 -63.65 30.9 -64.1 31.1 -64.5 31.3 -64.85 31.6 -65.25 31.95 -65.5 32.35 -65.75 32.75 -65.9 33.35 -65.95 33.9 -65.95 48.3 -65.9 48.9 -65.75 49.45 -65.5 49.9 -65.25 50.25 -64.5 50.9 -64.1 51.1 -63.65 51.35 -63.2 51.5 -62.8 51.55 -62.05 51.7 -61.55 51.75 -42.0 51.7 -41.6 52.15 -41.6 52.2 -61.35 52.2 -61.55 52.15 -62.15 52.15 -62.95 52.0 -63.45 51.85 -63.85 51.7 -64.3 51.5 -64.8 51.2 -65.6 50.55 -65.9 50.1 -66.15 49.55 -66.3 48.95 -66.4 48.3 -66.4 33.9 -66.3 33.25 -66.15 32.7 -65.9 32.2 -65.6 31.7 -65.15 31.3 -64.8 31.05 -64.3 30.75 -63.85 30.55 -63.45 30.4 -62.95 30.25 -62.15 30.1 -61.55 30.1 -61.35 30.0 -51.6 30.0 -51.6 23.55 -56.3 23.55 -56.65 23.2 -51.25 23.2 M-43.4 16.7 L-43.4 16.8 -43.7 17.0 -43.9 16.9 -44.5 16.65 Q-44.7 16.5 -44.95 16.5 L-45.45 16.35 -45.95 16.2 -46.6 16.2 -61.55 16.2 -62.05 16.25 -62.8 16.35 -63.2 16.5 -63.65 16.65 -64.1 16.85 -64.5 17.05 -64.85 17.35 -65.25 17.65 -65.5 18.05 -65.75 18.6 -65.9 19.1 -65.95 19.75 -65.95 25.5 -56.65 25.5 -56.3 25.85 -56.3 25.9 -66.4 25.9 -66.4 19.75 -66.3 19.0 -66.15 18.45 -65.9 17.95 -65.6 17.4 -65.15 17.05 -64.8 16.8 -64.3 16.5 -63.85 16.25 -63.45 16.15 -62.95 16.0 -62.15 15.85 -61.55 15.75 -46.6 15.75 -45.95 15.85 -45.3 15.9 -44.8 16.05 -44.3 16.25 -43.65 16.55 -43.4 16.7 M-56.65 37.5 L-56.65 37.45 -51.25 37.45 -51.25 44.85 -56.75 44.85 -56.3 44.4 -51.6 44.4 -51.6 37.85 -56.3 37.85 -56.65 37.5" fill="#96989a" fill-rule="evenodd" stroke="none"/>
    <path d="M40.8 -92.15 L61.7 -92.15 61.7 -35.5 -11.9 -35.5 -11.9 -32.25 -6.9 -32.25 -6.2 -32.2 -5.45 -32.1 -4.75 -31.95 -4.1 -31.8 -3.4 -31.6 -2.75 -31.3 -2.0 -31.05 -1.45 -30.65 -0.8 -30.25 -0.2 -29.8 0.35 -30.25 1.0 -30.65 1.65 -31.1 2.4 -31.4 3.1 -31.7 3.9 -31.9 4.7 -32.1 5.45 -32.2 6.25 -32.35 7.05 -32.35 22.45 -32.35 23.55 -32.2 24.2 -32.05 24.9 -31.9 25.7 -31.7 26.5 -31.4 Q28.1 -30.75 29.25 -29.75 L29.9 -30.25 30.55 -30.65 31.2 -31.05 31.9 -31.4 32.7 -31.7 33.4 -31.9 34.2 -32.1 35.0 -32.2 35.85 -32.35 36.65 -32.35 57.65 -32.35 57.65 -34.05 78.5 -34.05 78.5 -29.9 93.15 -29.9 93.15 5.6 Q93.15 7.15 92.8 8.4 L91.65 10.75 89.95 12.55 87.75 13.8 86.6 14.25 85.4 14.6 84.1 14.75 82.8 14.85 67.4 14.85 66.25 14.7 65.6 14.6 64.85 14.4 64.1 14.2 63.3 13.9 62.5 13.55 61.7 13.05 60.9 12.55 60.2 11.8 Q58.9 10.6 58.3 9.0 57.65 7.5 57.65 5.6 L57.65 -1.85 47.1 -1.85 47.1 10.65 48.25 10.85 49.25 11.15 50.35 11.6 51.25 12.15 52.2 12.75 53.0 13.45 54.35 15.2 54.85 16.2 55.2 17.3 55.5 18.5 55.6 19.8 55.6 48.3 Q55.6 49.8 55.15 51.05 54.8 52.25 54.05 53.3 L72.85 53.3 73.65 53.35 74.45 53.5 75.15 53.8 75.9 54.05 76.45 54.5 77.05 55.0 77.55 55.6 78.0 56.25 78.35 56.95 78.6 57.65 78.75 58.45 78.85 59.25 78.85 86.2 78.75 87.0 78.6 87.75 78.35 88.5 78.0 89.2 77.55 89.8 77.05 90.35 76.45 90.85 75.9 91.3 75.15 91.65 74.45 91.95 73.65 92.1 72.85 92.15 -84.25 92.15 Q-86.1 92.1 -87.7 91.45 -89.3 90.7 -90.5 89.55 -91.65 88.35 -92.4 86.75 -93.1 85.1 -93.1 83.3 L-93.1 62.15 -93.0 60.9 -92.75 59.85 -92.4 58.7 -91.85 57.65 -90.5 55.85 -88.7 54.5 -87.7 54.0 -86.55 53.65 -85.4 53.35 -84.25 53.3 -70.15 53.3 Q-70.85 52.25 -71.2 51.05 -71.65 49.8 -71.65 48.3 L-71.65 19.75 Q-71.65 18.2 -71.2 17.0 L-70.05 14.6 -68.4 12.8 Q-67.4 12.0 -66.25 11.5 L-65.1 11.1 -63.8 10.75 -62.55 10.5 -61.25 10.45 -60.9 10.45 -61.9 8.3 Q-62.3 7.05 -62.3 5.6 L-62.3 -11.4 -65.25 -11.4 -65.25 -23.6 -92.25 -23.6 -92.25 -73.35 -92.15 -74.45 -91.85 -75.6 -91.5 -76.7 -90.95 -77.75 -89.35 -79.65 -87.35 -81.2 Q-86.2 -81.85 -84.75 -82.2 L-81.85 -82.65 -56.5 -82.65 -56.5 -82.6 -37.2 -82.6 -36.65 -82.5 -36.2 -82.5 -34.4 -82.15 -33.7 -82.0 -33.0 -81.7 -32.2 -81.45 -31.45 -81.05 -30.65 -80.55 -29.95 -80.0 -29.4 -80.5 -28.75 -80.95 -28.0 -81.3 -27.3 -81.65 -26.55 -81.95 -25.8 -82.15 -25.05 -82.35 -24.2 -82.5 -23.4 -82.6 -22.6 -82.6 -7.8 -82.6 -7.05 -82.6 -6.35 -82.5 -5.6 -82.35 -4.9 -82.2 -4.2 -82.1 -3.45 -81.8 -3.45 -82.6 17.35 -82.6 17.35 -82.2 21.65 -82.6 22.25 -82.6 22.9 -82.5 23.45 -82.45 24.1 -82.3 24.75 -82.15 25.35 -81.95 26.0 -81.65 26.65 -81.45 27.2 -81.05 27.85 -80.8 28.35 -80.35 28.95 -79.9 29.6 -80.4 30.15 -80.85 30.9 -81.3 31.6 -81.65 32.4 -81.95 33.2 -82.15 33.9 -82.35 34.8 -82.5 35.55 -82.6 36.45 -82.6 40.8 -82.6 40.8 -92.15 M42.4 -68.55 L45.3 -68.55 45.3 -49.3 42.4 -49.3 42.4 -68.55 M57.25 -87.7 L45.3 -87.7 45.3 -78.1 36.15 -78.1 35.5 -78.05 34.55 -77.9 34.0 -77.75 33.4 -77.55 32.9 -77.25 32.35 -76.95 31.8 -76.55 31.4 -76.1 31.05 -75.55 30.75 -74.9 30.55 -74.15 30.45 -73.3 30.45 -44.7 30.55 -43.85 30.75 -43.15 Q30.8 -42.75 31.05 -42.5 L31.4 -42.0 31.8 -41.55 32.35 -41.1 32.9 -40.8 33.4 -40.55 34.0 -40.4 34.55 -40.2 35.5 -40.05 36.15 -39.95 57.25 -39.95 57.25 -87.7 M24.05 -77.7 L23.35 -77.85 22.75 -78.0 22.2 -78.05 21.65 -78.1 16.5 -77.45 Q14.35 -76.9 12.8 -75.65 L12.8 -78.1 1.0 -78.1 1.0 -39.95 12.8 -39.95 12.8 -68.55 15.7 -68.55 15.7 -39.95 27.6 -39.95 27.6 -73.3 27.5 -74.1 27.3 -74.9 26.95 -75.6 26.4 -76.2 25.9 -76.7 25.25 -77.05 24.7 -77.4 24.05 -77.7 M32.1 -26.3 L31.6 -25.8 31.25 -25.25 30.95 -24.6 30.75 -23.85 30.65 -23.05 30.65 10.45 42.6 10.45 42.6 -6.35 57.45 -6.35 57.45 -15.9 42.6 -15.9 42.6 -18.2 57.45 -18.2 57.45 -27.85 36.35 -27.85 35.7 -27.8 34.8 -27.6 34.2 -27.45 33.7 -27.2 33.1 -27.0 32.6 -26.65 32.1 -26.3 M24.75 -27.2 L24.25 -27.45 23.7 -27.6 22.75 -27.8 22.1 -27.85 6.75 -27.85 6.1 -27.8 5.2 -27.6 4.7 -27.45 4.1 -27.2 3.55 -27.0 3.0 -26.65 2.5 -26.3 2.1 -25.8 1.65 -25.25 1.35 -24.6 1.2 -23.85 1.15 -23.05 1.15 5.6 1.2 6.5 1.35 7.2 1.65 7.85 2.1 8.4 2.5 8.85 3.0 9.2 3.55 9.6 4.1 9.8 4.7 10.0 5.2 10.15 5.7 10.3 6.1 10.35 6.85 10.45 22.1 10.45 22.75 10.35 23.25 10.3 23.7 10.15 24.25 10.0 24.75 9.8 25.35 9.6 25.9 9.2 26.35 8.85 26.85 8.4 27.2 7.85 27.5 7.2 27.7 6.5 27.8 5.6 27.8 -1.5 15.9 -1.5 15.9 0.85 13.05 0.85 13.05 -3.9 27.7 -3.9 27.8 -3.95 27.8 -23.05 27.7 -23.9 27.5 -24.6 27.2 -25.25 26.85 -25.8 26.35 -26.3 25.9 -26.7 25.35 -27.0 24.75 -27.2 M13.05 -13.55 L13.05 -18.2 15.9 -18.2 15.9 -13.55 13.05 -13.55 M74.0 -25.4 L74.0 -29.6 62.15 -29.6 62.15 -25.4 59.25 -25.4 59.2 -25.35 59.2 -15.85 62.15 -15.85 62.15 5.6 62.2 6.5 62.4 7.2 62.7 7.85 63.05 8.35 63.5 8.85 64.0 9.2 Q64.2 9.45 64.5 9.5 L65.1 9.8 65.65 10.0 66.15 10.15 67.1 10.3 67.8 10.35 83.1 10.35 83.8 10.3 84.75 10.15 85.25 10.0 85.8 9.8 86.35 9.5 86.9 9.2 87.4 8.85 87.85 8.35 88.2 7.85 88.5 7.2 88.65 6.5 88.7 5.6 88.7 -13.55 76.9 -13.55 76.9 0.8 74.0 0.8 74.0 -15.85 88.7 -15.85 88.7 -25.4 74.0 -25.4 M85.2 57.55 L85.2 60.0 84.9 60.0 84.9 58.05 84.15 60.0 83.9 60.0 83.15 58.05 83.15 60.0 82.8 60.0 82.8 57.55 83.3 57.55 84.0 59.55 84.75 57.55 85.2 57.55 M81.7 57.8 L81.7 60.0 81.45 60.0 81.45 57.8 80.65 57.8 80.65 57.55 82.5 57.55 82.5 57.8 81.7 57.8 M47.1 15.2 L46.1 15.05 45.45 15.0 30.15 15.0 29.45 15.05 28.5 15.25 28.0 15.4 27.45 15.55 26.85 15.85 26.35 16.15 25.85 16.55 25.4 17.0 25.0 17.55 24.7 18.2 24.55 18.95 24.5 19.8 24.5 48.3 24.55 49.2 24.7 49.9 25.0 50.55 25.4 51.1 25.85 51.55 26.35 51.9 26.85 52.25 27.45 52.5 28.0 52.7 28.5 52.85 29.8 53.05 45.45 53.05 46.1 53.0 47.1 52.85 47.6 52.7 48.15 52.5 48.65 52.25 49.25 51.9 49.75 51.55 50.2 51.1 50.55 50.55 50.85 49.9 51.05 49.2 51.1 48.3 51.1 19.8 51.05 18.95 50.85 18.2 50.55 17.55 50.2 17.0 49.75 16.5 Q49.45 16.25 49.25 16.15 L48.65 15.85 48.15 15.55 47.6 15.35 47.1 15.2 M6.75 17.3 L6.75 12.95 -5.05 12.95 -5.1 13.05 -5.1 17.3 -8.0 17.3 -8.05 17.35 -8.05 26.85 -5.1 26.85 -5.1 48.4 -5.05 49.2 -4.8 49.9 -4.55 50.55 -4.2 51.05 -3.75 51.5 -3.25 51.9 -2.75 52.2 -2.15 52.5 -1.6 52.65 -1.1 52.8 -0.15 53.0 0.5 53.05 15.85 53.05 16.5 53.0 17.4 52.85 18.0 52.7 18.5 52.5 19.1 52.25 19.6 51.9 20.1 51.55 20.5 51.1 20.95 50.55 21.25 49.9 21.4 49.2 21.45 48.4 21.45 29.15 9.65 29.15 9.65 43.55 6.75 43.55 6.75 26.85 21.45 26.85 21.45 17.3 6.75 17.3 M36.35 24.55 L39.25 24.55 39.25 43.55 36.35 43.55 36.35 24.55 M74.4 59.25 L74.3 58.75 74.0 58.4 73.75 58.05 73.3 57.8 72.85 57.75 50.05 57.75 49.55 57.8 Q49.3 57.9 49.1 58.05 L48.8 58.4 48.6 58.75 48.55 59.25 48.55 86.2 Q48.55 86.85 48.95 87.25 L50.05 87.7 72.85 87.7 73.3 87.6 73.75 87.4 74.0 87.05 74.3 86.6 74.4 86.2 74.4 80.65 74.3 80.15 74.0 79.7 73.75 79.4 73.3 79.2 72.85 79.15 57.95 79.15 57.95 76.6 65.95 76.6 66.45 76.55 66.9 76.3 67.2 76.05 67.4 75.6 67.45 75.1 67.45 69.9 67.4 69.5 67.2 69.05 66.9 68.7 66.45 68.45 65.95 68.4 57.95 68.4 57.95 65.95 72.85 65.95 73.3 65.9 73.75 65.65 74.0 65.3 74.3 64.95 74.4 64.45 74.4 59.25 M0.45 79.4 Q0.3 79.25 0.0 79.2 L-0.45 79.15 -14.2 79.15 -14.25 79.05 -14.25 59.25 -14.35 58.75 -14.55 58.4 -14.9 58.05 Q-15.05 57.9 -15.35 57.8 L-15.75 57.75 -22.25 57.75 -22.75 57.8 -23.1 58.05 -23.45 58.4 -23.7 58.75 -23.75 59.25 -23.75 86.2 Q-23.75 86.85 -23.35 87.25 L-22.25 87.7 -0.45 87.7 0.0 87.6 0.45 87.4 0.8 87.05 1.0 86.6 1.1 86.2 1.1 80.65 1.0 80.15 0.8 79.7 0.45 79.4 M13.45 58.75 L13.3 58.4 12.95 58.05 12.55 57.8 12.1 57.75 5.6 57.75 5.1 57.8 4.7 58.05 4.4 58.4 4.2 58.75 4.1 59.25 4.1 86.2 Q4.1 86.85 4.55 87.25 L5.6 87.7 12.1 87.7 12.55 87.6 12.95 87.4 13.3 87.05 13.45 86.6 13.55 86.2 13.55 59.25 13.45 58.75 M36.7 58.4 L36.5 58.75 36.45 59.25 36.45 71.05 23.9 58.55 23.6 58.25 23.25 58.1 22.9 57.9 22.45 57.8 22.1 57.75 18.15 57.75 17.7 57.8 17.3 58.05 17.0 58.4 16.8 58.75 Q16.65 58.95 16.65 59.25 L16.65 86.2 Q16.7 86.85 17.15 87.25 L18.15 87.7 24.2 87.7 24.6 87.6 25.05 87.4 25.35 87.05 25.55 86.6 25.7 86.2 25.7 74.3 38.15 86.9 38.6 87.2 39.0 87.5 39.55 87.6 40.05 87.7 43.9 87.7 44.4 87.6 44.8 87.4 45.15 87.05 45.35 86.6 45.45 86.2 45.45 59.25 45.35 58.75 45.15 58.4 44.8 58.05 44.4 57.8 43.9 57.75 37.95 57.75 37.45 57.8 37.1 58.05 36.7 58.4 M-5.4 -77.75 L-6.0 -77.85 -6.9 -78.05 -7.55 -78.1 -22.8 -78.1 -23.45 -78.05 -24.0 -78.0 -24.5 -77.85 -25.0 -77.7 -25.55 -77.55 -26.15 -77.25 -26.65 -76.95 -27.15 -76.55 -27.6 -76.1 -27.95 -75.55 -28.2 -74.9 -28.45 -74.15 -28.5 -73.3 -28.5 -66.25 -16.65 -66.25 -16.65 -68.55 -13.75 -68.55 -13.75 -63.8 -22.8 -63.8 -23.45 -63.7 -24.0 -63.7 -24.5 -63.6 -25.0 -63.45 -25.55 -63.2 -26.15 -63.0 -26.65 -62.65 -27.15 -62.3 -27.6 -61.85 -27.95 -61.25 -28.2 -60.6 -28.45 -59.9 -28.5 -59.1 -28.5 -44.7 -28.45 -43.9 -28.2 -43.15 -27.95 -42.55 -27.6 -42.0 -27.15 -41.55 -26.65 -41.1 -26.15 -40.8 -25.55 -40.55 -25.0 -40.4 -24.5 -40.25 -24.0 -40.1 -23.45 -40.05 -22.8 -39.95 -1.85 -39.95 -1.85 -73.3 -1.95 -74.15 -2.15 -74.9 -2.45 -75.55 -2.8 -76.1 -3.3 -76.55 -3.75 -76.95 -4.3 -77.25 -4.9 -77.55 -5.4 -77.75 M-86.1 -76.6 L-86.6 -76.1 -87.05 -75.6 -87.35 -75.0 -87.55 -74.45 -87.7 -73.95 -87.75 -73.35 -87.75 -44.65 -87.7 -43.8 -87.5 -43.05 -87.2 -42.4 -86.85 -41.9 -86.4 -41.45 -85.9 -41.05 -85.3 -40.75 -84.75 -40.45 -84.25 -40.3 -83.65 -40.1 -82.75 -39.95 -82.1 -39.9 -72.95 -39.9 -72.95 -37.5 -87.75 -37.5 -87.75 -27.95 -66.9 -27.95 -65.8 -28.0 -64.95 -28.15 -64.15 -28.45 -63.5 -28.75 -62.95 -29.1 -62.4 -29.6 -62.05 -30.0 -61.7 -30.45 -61.5 -30.95 Q-61.35 -31.2 -61.35 -31.4 L-61.05 -32.2 -61.0 -32.75 -61.0 -78.1 -81.85 -78.1 -82.75 -78.1 -83.5 -77.9 -84.25 -77.7 -84.95 -77.4 -85.6 -77.05 -86.1 -76.6 M-35.95 -77.9 L-36.35 -78.05 -37.0 -78.05 -37.3 -78.1 -57.95 -78.1 -57.95 -32.35 -46.15 -32.35 -46.15 -54.2 -43.25 -54.2 -43.25 -32.75 -43.2 -31.95 -43.0 -31.25 -42.75 -30.6 -42.35 -30.0 -41.9 -29.6 -41.4 -29.15 -40.8 -28.85 -40.25 -28.6 -39.75 -28.45 -39.15 -28.3 -37.85 -28.0 -28.2 -28.0 -28.2 10.45 -16.35 10.45 -16.35 -18.2 -13.55 -18.2 -13.55 10.45 -1.65 10.45 -1.65 -22.95 -1.75 -23.75 -1.85 -24.55 -2.15 -25.2 -2.45 -25.7 -2.9 -26.2 -3.3 -26.55 -3.8 -26.85 -4.3 -27.15 -4.8 -27.35 -5.25 -27.5 -6.1 -27.65 -6.7 -27.7 -6.9 -27.8 -16.35 -27.8 -16.35 -37.5 -31.4 -37.5 -31.4 -56.65 -31.45 -57.3 -31.6 -57.95 -31.9 -58.4 -32.1 -58.8 -32.7 -59.35 -32.85 -59.4 -32.7 -59.55 -32.1 -59.9 -31.6 -60.5 -31.45 -60.9 -31.4 -61.35 -31.4 -73.3 -31.45 -74.1 -31.7 -74.9 -31.95 -75.55 -32.35 -76.05 -32.75 -76.55 -33.25 -76.9 -33.75 -77.25 -34.35 -77.45 -34.9 -77.7 -35.4 -77.85 -35.95 -77.9 M-75.8 -68.55 L-72.95 -68.55 -72.95 -49.4 -75.8 -49.4 -75.8 -68.55 M-16.65 -54.3 L-13.75 -54.3 -13.75 -49.45 -16.65 -49.45 -16.65 -54.3 M-46.15 -68.55 L-43.25 -68.55 -43.25 -63.8 -46.15 -63.8 -46.15 -68.55 M-58.05 -29.75 L-57.95 -25.4 -60.75 -25.35 -60.75 -15.85 -57.8 -15.85 -57.8 5.6 -57.75 6.5 -57.55 7.2 -57.3 7.85 -56.9 8.35 -56.45 8.85 -55.95 9.2 -55.45 9.6 -54.85 9.8 -54.3 10.0 -53.8 10.15 -53.3 10.3 -52.85 10.35 -52.15 10.45 -36.85 10.45 -36.6 10.35 -36.2 10.35 -35.3 10.15 -34.8 10.0 -34.2 9.8 -33.6 9.6 -33.1 9.2 -32.6 8.85 -32.1 8.4 -31.75 7.85 -31.45 7.2 -31.3 6.5 -31.25 5.6 -31.25 -13.45 -43.05 -13.45 -43.05 0.85 -45.95 0.85 -45.95 -15.85 -31.25 -15.85 -31.25 -25.4 -46.1 -25.4 -46.1 -29.75 -58.05 -29.75 M-25.7 14.9 L-37.6 14.9 -37.6 48.25 -37.5 49.1 -37.35 49.8 -37.0 50.45 -36.65 51.05 -36.2 51.5 -35.7 51.9 -35.2 52.2 -34.65 52.5 -34.05 52.7 -33.55 52.85 -32.6 53.0 -31.95 53.05 -16.7 53.05 -16.0 53.0 -15.05 52.85 -14.55 52.7 -13.95 52.5 -13.45 52.2 -12.9 51.9 -12.4 51.55 -11.95 51.05 -11.6 50.55 -11.3 49.9 -11.1 49.2 -11.0 48.3 -11.0 14.9 -22.9 14.9 -22.9 43.55 -25.7 43.55 -25.7 14.9 M-55.3 24.55 L-52.4 24.55 -52.4 29.25 -61.5 29.25 -62.2 29.3 -63.15 29.45 -63.65 29.6 -64.2 29.8 -64.75 30.0 -65.3 30.4 -65.8 30.75 -66.25 31.25 -66.6 31.75 -66.9 32.4 -67.1 33.1 -67.2 34.0 -67.2 48.3 -67.1 49.2 -66.9 49.9 -66.6 50.55 -66.25 51.1 -65.8 51.55 -65.3 51.9 -64.75 52.25 -64.2 52.5 -63.65 52.7 -63.15 52.85 -62.2 53.0 -61.5 53.05 -40.6 53.05 -40.6 19.75 -40.7 18.95 -40.8 18.15 -41.1 17.5 -41.45 17.0 -41.9 16.5 Q-42.2 16.25 -42.4 16.15 L-43.0 15.75 -43.5 15.55 -44.05 15.35 -44.65 15.2 -45.6 15.0 -46.2 14.9 -61.5 14.9 -62.2 15.0 -63.15 15.2 -63.65 15.35 -64.2 15.55 -64.75 15.75 -65.3 16.15 Q-65.6 16.25 -65.8 16.5 L-66.25 17.0 -66.6 17.5 -66.9 18.15 -67.1 18.95 -67.2 19.75 -67.2 26.85 -55.3 26.85 -55.3 24.55 M-55.3 38.8 L-52.4 38.8 -52.4 43.55 -55.3 43.55 -55.3 38.8 M-78.85 66.25 L-78.6 66.0 -78.2 65.95 -69.05 65.95 Q-68.7 65.95 -68.4 66.25 L-68.2 66.9 -68.2 78.2 -68.25 78.55 -68.4 78.85 -68.7 79.05 -69.05 79.15 -78.2 79.15 -78.6 79.05 -78.85 78.85 -79.05 78.55 -79.15 78.2 -79.15 66.9 -79.05 66.55 -78.85 66.25 M-59.05 60.4 L-59.25 59.9 -59.6 59.45 -60.0 59.05 -60.4 58.7 Q-60.6 58.45 -60.85 58.3 L-61.35 58.1 -61.9 57.9 -62.5 57.8 -63.05 57.75 -84.25 57.75 -84.8 57.8 -85.4 57.9 -85.9 58.1 -86.4 58.3 -86.9 58.7 -87.35 59.05 -87.7 59.45 -88.0 59.9 -88.25 60.4 -88.4 61.0 -88.55 61.55 -88.65 62.15 -88.65 83.3 Q-88.65 84.25 -88.25 84.95 L-87.35 86.4 -85.9 87.35 -84.25 87.7 -63.05 87.7 -62.5 87.6 -61.9 87.5 -61.35 87.35 -60.85 87.05 -60.4 86.75 -60.0 86.4 -59.6 85.95 -59.25 85.45 -59.05 84.95 -58.8 84.45 -58.75 83.9 -58.7 83.3 -58.7 62.15 -58.75 61.55 -58.8 61.0 -59.05 60.4 M-48.4 58.55 L-48.65 58.25 -49.05 58.1 Q-49.25 57.95 -49.4 57.9 L-49.8 57.8 -50.2 57.75 -54.15 57.75 -54.6 57.8 -55.0 58.05 -55.35 58.4 -55.5 58.75 -55.6 59.25 -55.6 86.2 -55.15 87.25 Q-54.8 87.6 -54.15 87.7 L-48.1 87.7 -47.65 87.6 -47.25 87.4 -46.95 87.05 -46.75 86.6 -46.65 86.2 -46.65 74.3 -34.15 86.9 -33.75 87.2 -33.25 87.5 -32.75 87.6 -32.25 87.7 -28.35 87.7 -27.85 87.6 -27.45 87.4 -27.15 87.05 -26.95 86.6 -26.85 86.2 -26.85 59.25 -26.95 58.75 -27.15 58.4 -27.45 58.05 -27.85 57.8 -28.35 57.75 -34.35 57.75 -34.85 57.8 -35.2 58.05 -35.55 58.4 -35.8 58.75 -35.85 59.25 -35.85 71.05 -48.4 58.55" fill="#000000" fill-rule="evenodd" stroke="none"/>
    <path d="M36.7 58.4 L37.1 58.05 37.45 57.8 37.95 57.75 43.9 57.75 44.4 57.8 44.8 58.05 45.15 58.4 45.35 58.75 45.45 59.25 45.45 86.2 45.35 86.6 45.15 87.05 44.8 87.4 44.4 87.6 43.9 87.7 40.05 87.7 39.55 87.6 39.0 87.5 38.6 87.2 38.15 86.9 25.7 74.3 25.7 86.2 25.55 86.6 25.35 87.05 25.05 87.4 24.6 87.6 24.2 87.7 18.15 87.7 17.15 87.25 Q16.7 86.85 16.65 86.2 L16.65 59.25 Q16.65 58.95 16.8 58.75 L17.0 58.4 17.3 58.05 17.7 57.8 18.15 57.75 22.1 57.75 22.45 57.8 22.9 57.9 23.25 58.1 23.6 58.25 23.9 58.55 36.45 71.05 36.45 59.25 36.5 58.75 36.7 58.4 M13.45 58.75 L13.55 59.25 13.55 86.2 13.45 86.6 13.3 87.05 12.95 87.4 12.55 87.6 12.1 87.7 5.6 87.7 4.55 87.25 Q4.1 86.85 4.1 86.2 L4.1 59.25 4.2 58.75 4.4 58.4 4.7 58.05 5.1 57.8 5.6 57.75 12.1 57.75 12.55 57.8 12.95 58.05 13.3 58.4 13.45 58.75 M0.45 79.4 L0.8 79.7 1.0 80.15 1.1 80.65 1.1 86.2 1.0 86.6 0.8 87.05 0.45 87.4 0.0 87.6 -0.45 87.7 -22.25 87.7 -23.35 87.25 Q-23.75 86.85 -23.75 86.2 L-23.75 59.25 -23.7 58.75 -23.45 58.4 -23.1 58.05 -22.75 57.8 -22.25 57.75 -15.75 57.75 -15.35 57.8 Q-15.05 57.9 -14.9 58.05 L-14.55 58.4 -14.35 58.75 -14.25 59.25 -14.25 79.05 -14.2 79.15 -0.45 79.15 0.0 79.2 Q0.3 79.25 0.45 79.4 M74.4 59.25 L74.4 64.45 74.3 64.95 74.0 65.3 73.75 65.65 73.3 65.9 72.85 65.95 57.95 65.95 57.95 68.4 65.95 68.4 66.45 68.45 66.9 68.7 67.2 69.05 67.4 69.5 67.45 69.9 67.45 75.1 67.4 75.6 67.2 76.05 66.9 76.3 66.45 76.55 65.95 76.6 57.95 76.6 57.95 79.15 72.85 79.15 73.3 79.2 73.75 79.4 74.0 79.7 74.3 80.15 74.4 80.65 74.4 86.2 74.3 86.6 74.0 87.05 73.75 87.4 73.3 87.6 72.85 87.7 50.05 87.7 48.95 87.25 Q48.55 86.85 48.55 86.2 L48.55 59.25 48.6 58.75 48.8 58.4 49.1 58.05 Q49.3 57.9 49.55 57.8 L50.05 57.75 72.85 57.75 73.3 57.8 73.75 58.05 74.0 58.4 74.3 58.75 74.4 59.25 M-48.4 58.55 L-35.85 71.05 -35.85 59.25 -35.8 58.75 -35.55 58.4 -35.2 58.05 -34.85 57.8 -34.35 57.75 -28.35 57.75 -27.85 57.8 -27.45 58.05 -27.15 58.4 -26.95 58.75 -26.85 59.25 -26.85 86.2 -26.95 86.6 -27.15 87.05 -27.45 87.4 -27.85 87.6 -28.35 87.7 -32.25 87.7 -32.75 87.6 -33.25 87.5 -33.75 87.2 -34.15 86.9 -46.65 74.3 -46.65 86.2 -46.75 86.6 -46.95 87.05 -47.25 87.4 -47.65 87.6 -48.1 87.7 -54.15 87.7 Q-54.8 87.6 -55.15 87.25 L-55.6 86.2 -55.6 59.25 -55.5 58.75 -55.35 58.4 -55.0 58.05 -54.6 57.8 -54.15 57.75 -50.2 57.75 -49.8 57.8 -49.4 57.9 Q-49.25 57.95 -49.05 58.1 L-48.65 58.25 -48.4 58.55 M-59.05 60.4 L-58.8 61.0 -58.75 61.55 -58.7 62.15 -58.7 83.3 -58.75 83.9 -58.8 84.45 -59.05 84.95 -59.25 85.45 -59.6 85.95 -60.0 86.4 -60.4 86.75 -60.85 87.05 -61.35 87.35 -61.9 87.5 -62.5 87.6 -63.05 87.7 -84.25 87.7 -85.9 87.35 -87.35 86.4 -88.25 84.95 Q-88.65 84.25 -88.65 83.3 L-88.65 62.15 -88.55 61.55 -88.4 61.0 -88.25 60.4 -88.0 59.9 -87.7 59.45 -87.35 59.05 -86.9 58.7 -86.4 58.3 -85.9 58.1 -85.4 57.9 -84.8 57.8 -84.25 57.75 -63.05 57.75 -62.5 57.8 -61.9 57.9 -61.35 58.1 -60.85 58.3 Q-60.6 58.45 -60.4 58.7 L-60.0 59.05 -59.6 59.45 -59.25 59.9 -59.05 60.4 M-78.85 66.25 L-79.05 66.55 -79.15 66.9 -79.15 78.2 -79.05 78.55 -78.85 78.85 -78.6 79.05 -78.2 79.15 -69.05 79.15 -68.7 79.05 -68.4 78.85 -68.25 78.55 -68.2 78.2 -68.2 66.9 -68.4 66.25 Q-68.7 65.95 -69.05 65.95 L-78.2 65.95 -78.6 66.0 -78.85 66.25" fill="#e30513" fill-rule="evenodd" stroke="none"/>
  </g>
</svg>
