<?xml version="1.0" encoding="UTF-8" standalone="no"?>
<svg xmlns:ffdec="https://www.free-decompiler.com/flash" xmlns:xlink="http://www.w3.org/1999/xlink" ffdec:objectType="shape" height="1379.0px" width="2173.1px" xmlns="http://www.w3.org/2000/svg">
  <g transform="matrix(1.0, 0.0, 0.0, 1.0, 386.5, 487.2)">
    <path d="M347.7 223.2 L348.2 221.7 347.7 221.6 347.7 223.2 M1582.8 -51.7 L1605.5 -28.9 1625.9 -4.0 1643.8 22.7 1659.0 51.1 1671.3 80.7 1680.5 110.7 1777.2 472.1 1783.3 502.8 1786.5 534.7 1786.6 566.8 1783.6 598.8 1777.5 630.4 1768.3 661.3 1756.2 691.2 1741.2 719.9 1723.6 747.0 1703.5 772.4 1681.0 795.8 1656.4 817.1 1629.9 835.9 1601.7 852.3 1572.1 865.9 1541.4 876.8 1509.8 884.8 1477.6 889.8 1445.1 891.8 1412.5 890.8 1380.2 886.8 1348.5 879.8 1317.6 869.9 1287.8 857.1 1259.4 841.6 1232.7 823.4 1207.8 802.9 1185.1 780.0 1164.7 755.1 1146.8 728.4 1131.6 700.1 1119.3 670.5 1109.9 639.8 1097.1 576.0 1017.8 294.8 954.5 294.8 954.5 315.8 942.9 315.8 942.9 317.5 850.3 317.5 850.3 382.0 838.0 382.0 838.0 387.3 630.1 387.3 630.1 382.0 618.1 382.0 618.1 299.4 601.4 295.0 579.4 295.0 579.4 289.3 499.1 268.5 499.2 268.4 426.5 249.5 426.6 248.8 379.2 236.4 356.4 236.4 356.4 230.4 347.7 228.2 347.7 279.4 336.0 279.4 336.0 287.0 128.4 287.0 128.4 279.4 117.0 279.4 117.0 196.1 -40.0 196.1 -41.7 200.0 -54.4 219.5 -70.1 236.6 -88.5 250.9 -108.9 261.9 -130.9 269.5 -153.8 273.3 -177.1 273.3 -200.0 269.5 -222.0 261.9 -242.4 250.9 -260.8 236.6 -276.5 219.5 -289.2 200.0 -298.6 178.7 -304.3 156.2 -306.2 133.0 -304.3 109.9 -298.6 87.4 -289.2 66.1 -276.5 46.6 -260.8 29.5 -242.4 15.2 -222.3 4.4 -223.2 -8.6 -219.2 -29.2 -210.2 -48.3 -196.8 -64.5 -179.8 -76.9 -174.3 -79.1 -180.1 -89.3 -172.7 -99.8 -174.7 -101.2 -172.7 -104.1 -176.7 -107.2 -222.9 -149.5 Q-231.0 -157.2 -238.7 -165.0 -254.0 -180.4 -270.0 -198.0 L-306.1 -237.7 -386.5 -346.1 -186.2 -487.2 -144.2 -430.5 -96.9 -370.6 -71.2 -344.6 -64.6 -358.5 -43.3 -384.2 Q-29.7 -394.0 -16.2 -403.9 L14.9 -416.2 48.0 -420.4 81.2 -416.2 112.3 -403.9 139.4 -384.2 160.7 -358.5 175.0 -328.2 181.2 -295.3 179.1 -261.9 168.8 -230.1 150.9 -201.9 142.0 -193.6 196.6 -169.8 267.3 -147.5 332.9 -131.8 378.7 -124.9 428.2 -120.3 764.1 -120.3 764.1 -83.5 764.5 -83.5 764.5 82.2 859.7 82.2 859.7 100.5 954.5 100.5 954.5 128.5 1011.7 128.5 1013.2 120.7 1022.3 89.8 1034.4 59.9 1049.4 31.3 1067.0 4.1 1087.1 -21.3 1109.6 -44.7 1134.2 -65.9 1160.7 -84.8 1188.9 -101.1 1218.5 -114.8 1249.2 -125.6 1280.8 -133.6 1313.0 -138.7 1345.6 -140.7 1378.1 -139.7 1410.4 -135.7 1442.1 -128.7 1473.0 -118.7 1502.8 -105.9 Q1517.0 -98.1 1531.2 -90.4 L1558.0 -72.3 1582.8 -51.7" fill="#434343" fill-rule="evenodd" stroke="none"/>
    <path d="M714.1 74.9 L425.9 74.9 350.0 67.4 296.0 58.7 217.3 41.0 156.0 22.5 96.9 0.0 Q67.8 -13.0 38.6 -26.1 14.3 -38.5 -10.0 -51.0 L-56.2 -79.5 -97.5 -109.0 -144.5 -145.5 -188.3 -185.6 -203.2 -200.2 -267.5 -269.5 -315.9 -334.7 -197.3 -418.2 -183.9 -400.1 -134.5 -337.5 -77.6 -280.0 -26.0 -234.0 24.4 -200.0 65.0 -176.0 Q92.9 -162.1 120.7 -148.3 L179.0 -123.0 253.9 -99.3 323.4 -82.6 372.7 -75.3 425.9 -70.3 714.1 -70.3 714.1 74.9" fill="#707070" fill-rule="evenodd" stroke="none"/>
    <path d="M595.7 2.7 L595.7 29.7 588.0 29.7 588.0 2.7 595.7 2.7" fill="#434343" fill-rule="evenodd" stroke="none"/>
    <path d="M405.1 27.8 L406.7 0.8 414.3 1.3 412.8 28.3 405.1 27.8" fill="#434343" fill-rule="evenodd" stroke="none"/>
    <path d="M32.2 -81.1 L44.7 -105.0 51.5 -101.5 39.0 -77.5 32.2 -81.1" fill="#434343" fill-rule="evenodd" stroke="none"/>
    <path d="M-116.6 -217.3 L-134.8 -197.3 -140.5 -202.5 -122.3 -222.5 -116.6 -217.3" fill="#434343" fill-rule="evenodd" stroke="none"/>
    <path d="M662.3 36.8 L648.8 36.8 648.8 2.0 662.3 2.0 662.3 36.8" fill="#434343" fill-rule="evenodd" stroke="none"/>
    <path d="M662.3 -51.5 L662.3 -16.7 648.8 -16.7 648.8 -51.5 662.3 -51.5" fill="#434343" fill-rule="evenodd" stroke="none"/>
    <path d="M564.5 36.8 L551.0 36.8 551.0 2.0 564.5 2.0 564.5 36.8" fill="#434343" fill-rule="evenodd" stroke="none"/>
    <path d="M564.5 -51.5 L564.5 -16.7 551.0 -16.7 551.0 -51.5 564.5 -51.5" fill="#434343" fill-rule="evenodd" stroke="none"/>
    <path d="M473.8 36.8 L460.3 36.8 460.3 2.0 473.8 2.0 473.8 36.8" fill="#434343" fill-rule="evenodd" stroke="none"/>
    <path d="M473.8 -51.5 L473.8 -16.7 460.3 -16.7 460.3 -51.5 473.8 -51.5" fill="#434343" fill-rule="evenodd" stroke="none"/>
    <path d="M358.8 29.9 L345.3 28.5 349.1 -6.1 362.6 -4.6 358.8 29.9" fill="#434343" fill-rule="evenodd" stroke="none"/>
    <path d="M364.6 -23.2 L351.2 -24.7 355.0 -59.3 368.4 -57.8 364.6 -23.2" fill="#434343" fill-rule="evenodd" stroke="none"/>
    <path d="M251.8 -20.6 L217.5 -30.0 221.4 -44.0 255.7 -34.6 251.8 -20.6" fill="#434343" fill-rule="evenodd" stroke="none"/>
    <path d="M243.7 -8.6 L217.3 -15.9 219.7 -24.7 246.1 -17.4 243.7 -8.6" fill="#434343" fill-rule="evenodd" stroke="none"/>
    <path d="M211.0 13.9 L191.0 8.1 194.0 -2.3 214.0 3.5 211.0 13.9" fill="#434343" fill-rule="evenodd" stroke="none"/>
    <path d="M217.7 30.3 L215.0 38.8 166.0 23.9 167.8 17.7 175.9 20.0 176.7 17.6 217.7 30.3" fill="#434343" fill-rule="evenodd" stroke="none"/>
    <path d="M253.1 -39.6 L226.6 -46.9 229.0 -55.7 255.5 -48.4 253.1 -39.6" fill="#434343" fill-rule="evenodd" stroke="none"/>
    <path d="M164.6 -62.6 L198.4 -51.5 193.8 -37.7 160.0 -48.8 164.6 -62.6" fill="#434343" fill-rule="evenodd" stroke="none"/>
    <path d="M172.7 -73.9 L199.1 -65.2 196.2 -56.5 169.8 -65.2 172.7 -73.9" fill="#434343" fill-rule="evenodd" stroke="none"/>
    <path d="M161.7 -43.5 L188.1 -34.8 185.2 -26.1 Q172.0 -30.4 158.8 -34.8 L161.7 -43.5" fill="#434343" fill-rule="evenodd" stroke="none"/>
    <path d="M101.4 -78.9 L113.9 -73.8 100.8 -41.6 Q94.6 -44.1 88.3 -46.7 L101.4 -78.9" fill="#434343" fill-rule="evenodd" stroke="none"/>
    <path d="M134.2 -123.3 L121.0 -91.1 108.5 -96.2 121.7 -128.4 134.2 -123.3" fill="#434343" fill-rule="evenodd" stroke="none"/>
    <path d="M3.6 -127.5 L-14.2 -97.6 -25.8 -104.5 -8.0 -134.4 Q-2.2 -130.9 3.6 -127.5" fill="#434343" fill-rule="evenodd" stroke="none"/>
    <path d="M19.3 -180.4 Q25.1 -176.9 30.9 -173.5 L13.1 -143.6 1.5 -150.5 19.3 -180.4" fill="#434343" fill-rule="evenodd" stroke="none"/>
    <path d="M169.4 -61.6 L152.7 -68.3 119.2 11.0 128.8 15.3 112.6 77.4 307.0 77.4 307.0 102.0 319.0 102.0 319.0 64.0 349.5 68.8 424.8 76.0 491.4 76.0 491.4 -11.5 407.0 -11.5 347.3 -17.5 292.1 -27.2 225.8 -43.0 169.4 -61.6 M-7.1 -147.7 L-8.4 -148.6 -55.8 -79.9 -59.7 -82.6 -62.0 -79.0 -53.5 -65.5 -59.4 -62.1 -54.0 -52.4 -33.7 -64.0 -16.0 -53.0 38.0 -24.2 95.8 0.9 128.8 -77.6 94.4 -92.6 50.4 -113.3 -7.1 -147.7 M709.5 245.0 L692.4 245.0 692.4 247.1 776.1 247.1 776.1 245.0 718.0 245.0 718.0 236.0 709.5 236.0 709.5 245.0 M1267.9 -23.8 L1283.6 -28.5 1287.3 -17.1 1293.8 -18.2 1291.5 -30.9 1315.3 -34.6 1323.8 31.4 1344.8 29.0 1372.2 30.9 1398.9 37.8 1424.3 47.9 1447.5 62.6 1468.0 81.0 1485.2 102.4 1498.7 126.5 1528.0 204.7 1608.6 504.0 1612.0 523.0 1616.8 558.0 1612.4 586.7 1603.4 614.0 1590.1 639.4 1572.7 662.3 1551.8 682.1 1527.9 698.1 1506.0 706.7 1531.3 773.4 1508.0 779.4 1504.5 767.0 1498.0 768.5 1500.9 781.2 1487.3 784.7 1463.3 787.4 1434.0 788.0 1400.0 784.7 1385.9 781.2 1388.7 768.8 1382.2 767.3 1378.5 779.4 1370.6 777.4 1344.0 766.7 1318.0 753.4 1288.6 733.4 1273.4 718.6 1281.5 709.0 1276.0 704.5 1266.0 712.5 1248.7 691.3 1236.0 672.0 1220.0 639.4 1210.0 609.6 1221.7 606.3 1218.3 594.4 1272.6 581.4 1185.3 261.2 1133.1 275.0 1129.5 261.0 1115.0 265.1 1108.9 235.7 1108.9 235.0 1098.0 235.0 1098.0 244.8 1013.3 244.8 1013.3 236.3 1004.5 236.3 1004.5 244.8 912.9 244.8 912.9 236.3 904.5 236.3 904.5 265.8 892.9 265.8 892.9 267.5 862.2 267.5 862.2 265.8 853.9 265.8 853.9 267.5 823.2 267.5 823.2 265.8 812.4 265.8 812.4 236.0 803.3 236.0 803.3 245.0 791.1 245.0 791.1 247.1 800.3 247.1 800.3 332.0 788.0 332.0 788.0 337.3 739.1 337.3 739.1 332.0 729.0 332.0 729.0 337.3 680.1 337.3 680.1 332.0 668.1 332.0 668.1 247.1 677.4 247.1 677.4 245.0 629.4 245.0 629.4 236.4 621.1 236.4 621.0 243.7 611.6 241.0 610.4 245.7 557.7 232.0 558.8 226.7 554.0 225.4 554.0 216.0 546.4 216.0 546.4 223.7 539.0 221.7 537.7 226.7 485.0 213.0 486.2 207.4 481.4 206.0 481.4 196.7 472.7 196.7 472.7 203.7 463.7 200.7 462.3 206.5 409.0 192.5 410.9 186.4 406.4 186.4 406.4 176.4 398.0 176.0 398.0 183.4 319.0 162.0 319.0 137.4 295.4 137.4 295.4 142.4 291.0 142.4 291.0 144.4 297.7 144.4 297.7 229.4 286.0 229.4 286.0 233.3 237.8 233.3 237.8 229.4 226.5 229.4 226.5 233.3 178.3 233.3 178.3 229.4 167.0 229.4 167.0 144.4 273.0 144.4 273.0 142.4 223.0 142.4 223.0 137.0 214.7 137.0 214.7 142.4 141.7 142.4 141.7 137.9 134.2 137.9 134.2 142.4 105.0 142.4 104.0 137.9 87.4 136.7 84.4 143.2 76.4 143.2 76.4 146.1 46.0 146.1 46.0 143.2 37.7 143.2 37.7 146.1 7.0 146.1 7.0 143.2 -5.6 143.2 -26.3 132.7 -24.3 127.0 -31.3 124.0 -33.6 129.0 -58.6 119.4 -78.5 92.5 -82.5 95.5 -83.2 95.9 -79.8 103.6 -76.1 118.1 -74.9 133.0 -76.1 148.0 -79.8 162.5 -85.8 176.2 -94.0 188.7 -104.1 199.7 -115.9 208.9 -129.1 216.0 -143.2 220.8 -158.0 223.3 -172.9 223.3 -187.7 220.8 -201.8 216.0 -215.0 208.9 -226.8 199.7 -236.9 188.7 -245.1 176.2 -251.1 162.5 -254.8 148.0 -256.0 133.0 -254.8 118.1 -251.1 103.6 -245.1 89.9 -236.9 77.4 -226.8 66.4 -215.0 57.2 -201.8 50.1 -187.7 45.3 -172.9 42.8 -158.0 42.8 -143.2 45.3 -129.1 50.1 -115.9 57.2 -104.1 66.4 -103.7 66.9 -98.5 63.0 -109.5 46.0 -106.3 41.4 -106.6 41.0 -113.3 36.0 -116.3 39.4 -143.5 30.1 -151.7 28.0 -159.1 23.9 -165.2 18.2 -169.7 11.0 -172.3 3.0 -172.9 -5.4 -171.3 -13.7 -167.7 -21.3 -162.3 -27.8 -155.5 -32.8 -147.7 -35.9 -139.3 -36.9 -130.9 -35.9 -98.7 -26.9 -84.4 -35.0 -89.8 -44.7 -95.5 -41.5 -121.0 -86.5 -102.7 -112.3 -105.1 -114.0 -57.8 -182.6 -113.0 -228.7 -170.9 -284.8 -231.6 -230.7 -247.6 -248.6 -185.9 -303.6 -245.2 -380.8 -226.0 -395.2 -223.4 -391.7 -196.3 -412.8 -181.6 -393.8 -209.0 -372.5 -154.3 -302.2 -105.0 -254.4 -80.0 -280.8 -62.6 -264.4 -87.1 -238.3 -44.1 -202.4 -25.1 -230.0 -16.5 -224.0 -12.1 -230.4 -15.9 -234.0 -27.1 -251.6 -33.5 -271.4 -34.8 -292.2 -30.9 -312.6 -22.1 -331.5 -8.8 -347.5 8.0 -359.7 27.4 -367.4 48.0 -370.0 68.7 -367.4 88.1 -359.7 104.9 -347.5 118.2 -331.5 127.0 -312.6 130.9 -292.2 129.6 -271.4 123.2 -251.6 112.0 -234.0 96.9 -219.8 78.6 -209.7 58.5 -204.5 37.6 -204.5 17.5 -209.7 16.6 -210.2 12.3 -204.2 Q18.3 -200.0 24.2 -195.9 L5.3 -168.4 6.2 -167.7 53.1 -139.7 69.9 -172.4 91.2 -161.5 74.4 -128.6 104.5 -114.4 163.3 -88.7 222.0 -69.5 231.2 -102.5 254.3 -96.1 245.1 -63.1 297.0 -50.7 351.0 -41.2 401.2 -36.1 403.1 -70.0 427.0 -68.6 425.2 -33.5 578.0 -33.5 578.0 -68.6 602.0 -68.6 602.0 -33.5 714.5 -33.5 714.5 -11.5 515.4 -11.5 515.4 76.0 714.5 76.0 714.5 178.3 812.4 178.3 812.4 173.0 809.7 173.0 809.7 176.7 758.0 176.7 758.0 153.2 756.7 153.2 756.7 176.9 716.0 176.9 716.0 132.4 756.7 132.4 756.7 136.0 758.0 136.0 758.0 132.2 809.7 132.2 809.7 156.7 812.4 156.7 812.4 150.5 904.5 150.5 904.5 178.5 1098.0 178.5 1098.0 201.0 1105.0 201.0 1105.0 189.0 1107.8 189.0 1115.2 147.3 1127.8 150.8 1129.4 143.5 1117.1 140.1 1121.3 122.1 1136.9 88.0 1152.8 63.4 1170.5 40.9 1178.7 33.0 1187.9 42.2 1192.5 37.6 1183.7 28.1 1192.3 19.9 1220.1 0.0 1245.8 -14.1 1267.9 -23.8" fill="#969696" fill-rule="evenodd" stroke="none"/>
    <path d="M153.7 -66.0 L168.7 -59.6 225.9 -41.5 268.9 -31.1 249.5 50.0 215.5 41.5 175.0 29.0 123.0 10.0 153.7 -66.0" fill="#969696" fill-rule="evenodd" stroke="none"/>
    <path d="M220.9 -69.1 Q221.0 -69.4 226.5 -64.1 L232.0 -58.8 246.4 -62.3 237.4 -31.6 211.0 -38.3 220.9 -69.1" fill="#969696" fill-rule="evenodd" stroke="none"/>
    <path d="M514.3 74.9 L514.3 52.0 578.0 52.0 578.0 74.9 514.3 74.9" fill="#ffffff" fill-rule="evenodd" stroke="none"/>
    <path d="M-216.6 -246.0 L-196.3 -222.6 -174.6 -199.3 -188.3 -185.6 -203.2 -200.2 Q-219.9 -217.0 -233.0 -231.6 L-216.6 -246.0" fill="#ffffff" fill-rule="evenodd" stroke="none"/>
    <path d="M38.6 -26.1 L49.5 -46.0 Q62.8 -39.8 76.0 -33.7 L105.8 -21.8 96.9 0.0 Q67.6 -12.1 38.6 -26.1" fill="#ffffff" fill-rule="evenodd" stroke="none"/>
    <path d="M1225.0 387.7 L1212.3 340.4 1250.1 330.2 1262.8 377.6 1225.0 387.7" fill="#ffffff" fill-rule="evenodd" stroke="none"/>
    <path d="M1241.0 450.0 L1278.8 439.9 1291.5 487.2 1253.6 497.4 1241.0 450.0" fill="#ffffff" fill-rule="evenodd" stroke="none"/>
    <path d="M168.7 177.4 L196.0 177.4 196.0 198.7 168.7 198.7 168.7 177.4" fill="#707070" fill-rule="evenodd" stroke="none"/>
    <path d="M434.7 84.3 L434.3 93.8 406.7 92.8 407.0 83.3 434.7 84.3" fill="#707070" fill-rule="evenodd" stroke="none"/>
    <path d="M457.8 94.6 L457.8 85.1 485.5 85.1 485.5 94.6 457.8 94.6" fill="#707070" fill-rule="evenodd" stroke="none"/>
    <path d="M674.2 94.0 L674.2 84.5 701.9 84.5 701.8 94.0 674.2 94.0" fill="#707070" fill-rule="evenodd" stroke="none"/>
    <path d="M114.0 58.8 L106.3 56.7 113.6 29.7 121.3 31.8 114.0 58.8" fill="#707070" fill-rule="evenodd" stroke="none"/>
    <path d="M-9.1 -35.3 L-5.4 -42.4 19.4 -29.5 15.7 -22.4 -9.1 -35.3" fill="#707070" fill-rule="evenodd" stroke="none"/>
    <path d="M227.0 237.0 L178.4 237.0 178.4 228.7 227.0 228.7 227.0 237.0" fill="#707070" fill-rule="evenodd" stroke="none"/>
    <path d="M237.4 228.7 L286.0 228.7 286.0 237.0 237.4 237.0 237.4 228.7" fill="#707070" fill-rule="evenodd" stroke="none"/>
    <path d="M-171.6 110.8 L-168.1 110.1 -164.5 110.0 -160.9 110.5 -157.5 111.5 -154.3 113.1 -148.8 117.8 -145.2 124.0 -144.3 127.5 -143.9 131.1 -144.0 134.7 -144.8 138.2 -148.0 144.6 -150.4 147.3 -153.2 149.6 -156.3 151.4 -159.6 152.7 -166.8 153.5 -170.3 153.0 -173.8 151.9 -177.0 150.3 -179.9 148.2 -182.4 145.6 -186.0 139.4 -187.0 135.9 -187.4 132.4 -187.2 128.8 -186.4 125.3 -185.1 121.9 -183.2 118.9 -180.8 116.1 -178.1 113.9 -175.0 112.0 -171.6 110.8" fill="#707070" fill-rule="evenodd" stroke="none"/>
    <path d="M-125.8 -20.7 L-122.7 -19.7 -119.7 -18.2 -117.0 -16.2 -114.7 -13.9 -112.8 -11.2 -111.4 -8.2 -110.5 -5.0 -110.1 -1.7 -110.3 1.6 -111.0 4.8 -112.3 7.9 -114.0 10.7 -116.2 13.2 -118.7 15.3 -121.6 16.9 -124.7 18.1 -127.9 18.8 -131.2 18.9 -134.5 18.4 -137.6 17.4 -140.6 15.9 -143.3 14.0 -145.6 11.6 -147.5 8.9 -148.9 5.9 -149.8 2.8 -150.0 -3.8 -149.3 -7.1 -148.0 -10.1 -146.3 -12.9 -144.1 -15.4 -141.6 -17.5 Q-140.1 -18.3 -138.7 -19.2 L-135.6 -20.4 -132.4 -21.0 -129.1 -21.1 -125.8 -20.7" fill="#707070" fill-rule="evenodd" stroke="none"/>
    <path d="M649.7 112.7 L663.4 116.0 654.4 156.7 542.4 132.4 545.7 118.4 643.4 139.7 649.7 112.7" fill="#707070" fill-rule="evenodd" stroke="none"/>
    <path d="M730.0 247.5 L765.2 247.5 765.2 262.5 730.0 262.5 730.0 247.5" fill="#707070" fill-rule="evenodd" stroke="none"/>
    <path d="M752.5 299.4 L716.9 299.4 716.9 285.0 752.5 285.0 752.5 299.4" fill="#707070" fill-rule="evenodd" stroke="none"/>
    <path d="M668.1 329.4 L668.1 294.5 683.5 294.5 683.5 329.4 668.1 329.4" fill="#707070" fill-rule="evenodd" stroke="none"/>
    <path d="M727.4 337.3 L698.4 337.3 698.4 330.5 727.4 330.5 727.4 337.3" fill="#707070" fill-rule="evenodd" stroke="none"/>
    <path d="M740.4 330.2 L769.4 330.2 769.4 337.3 740.4 337.3 740.4 330.2" fill="#707070" fill-rule="evenodd" stroke="none"/>
    <path d="M798.7 331.5 L791.2 331.5 791.2 283.9 798.7 283.9 798.7 331.5" fill="#707070" fill-rule="evenodd" stroke="none"/>
    <path d="M756.7 169.4 L756.7 176.9 716.0 176.9 716.0 151.0 723.4 151.0 723.4 169.4 756.7 169.4" fill="#707070" fill-rule="evenodd" stroke="none"/>
    <path d="M790.0 176.7 L758.0 176.7 758.0 169.5 790.0 169.5 790.0 176.7" fill="#707070" fill-rule="evenodd" stroke="none"/>
    <path d="M809.7 140.2 L778.7 140.2 778.7 133.2 809.7 133.2 809.7 140.2" fill="#707070" fill-rule="evenodd" stroke="none"/>
    <path d="M887.5 205.9 L832.2 205.9 832.2 189.9 887.5 189.9 887.5 205.9" fill="#707070" fill-rule="evenodd" stroke="none"/>
    <path d="M877.7 150.5 L877.7 187.9 833.0 187.9 833.0 181.5 863.0 181.5 863.0 150.5 877.7 150.5" fill="#707070" fill-rule="evenodd" stroke="none"/>
    <path d="M858.4 265.8 L858.4 232.8 861.0 232.8 861.0 265.8 858.4 265.8" fill="#707070" fill-rule="evenodd" stroke="none"/>
    <path d="M842.3 215.1 L848.3 215.1 848.6 214.6 850.1 212.8 851.9 211.3 854.0 210.1 856.2 209.3 858.5 208.8 860.8 208.8 863.1 209.1 865.4 209.8 867.5 210.8 869.4 212.2 871.0 213.9 871.8 215.1 876.8 215.1 876.8 230.8 871.8 230.8 871.5 231.3 870.0 233.1 868.2 234.6 866.1 235.8 863.9 236.6 861.6 237.1 859.3 237.1 857.0 236.8 854.7 236.1 852.6 235.1 850.7 233.7 849.1 232.0 848.3 230.8 842.3 230.8 842.3 215.1" fill="#707070" fill-rule="evenodd" stroke="none"/>
    <path d="M1164.6 71.7 L1151.0 91.2 1140.9 112.6 1133.7 132.7 1124.2 129.4 1131.8 108.6 1142.3 86.2 1156.7 65.6 1172.1 46.6 1179.8 52.9 1164.6 71.7" fill="#707070" fill-rule="evenodd" stroke="none"/>
    <path d="M1261.2 -6.3 L1238.4 4.1 1219.2 16.5 1200.7 31.0 1194.5 23.1 1213.6 8.2 1233.5 -4.7 1257.5 -15.6 1278.9 -23.6 1282.4 -14.3 1261.2 -6.3" fill="#707070" fill-rule="evenodd" stroke="none"/>
    <path d="M1189.2 148.0 L1180.0 144.1 1188.1 124.5 1201.0 102.7 1214.0 85.7 1221.9 91.8 1209.1 108.5 1197.1 128.9 1189.2 148.0" fill="#707070" fill-rule="evenodd" stroke="none"/>
    <path d="M1240.5 73.5 L1234.8 65.3 1253.8 52.0 1274.5 40.5 1296.1 32.1 1299.8 41.4 1278.8 49.6 1258.9 60.6 1240.5 73.5" fill="#707070" fill-rule="evenodd" stroke="none"/>
    <path d="M1296.5 111.7 L1281.0 121.5 1269.4 133.6 1258.7 148.8 1250.0 165.4 1245.3 184.3 1235.7 181.6 1240.4 162.9 1250.6 143.0 1261.4 127.7 1275.8 113.0 1291.3 103.2 1296.4 100.8 1300.4 110.0 1296.5 111.7" fill="#707070" fill-rule="evenodd" stroke="none"/>
    <path d="M1388.1 648.8 L1370.3 638.2 1357.2 625.4 1353.7 621.0 1361.3 615.2 1363.4 617.9 1376.1 630.2 1390.0 639.0 1406.8 646.5 1424.6 651.0 1440.1 652.6 1445.7 652.0 1446.4 661.2 1427.2 661.0 1405.4 655.7 1388.1 648.8" fill="#707070" fill-rule="evenodd" stroke="none"/>
    <path d="M1292.0 667.4 L1267.6 642.7 1289.3 621.7 1293.0 620.4 1305.6 654.0 1292.0 667.4" fill="#707070" fill-rule="evenodd" stroke="none"/>
    <path d="M1453.9 727.7 L1414.6 725.9 1415.3 709.2 1454.7 711.1 1453.9 727.7" fill="#707070" fill-rule="evenodd" stroke="none"/>
    <path d="M1521.4 747.9 L1513.6 750.7 1501.1 716.9 1509.0 714.6 1521.4 747.9" fill="#707070" fill-rule="evenodd" stroke="none"/>
    <path d="M1373.2 715.7 L1336.9 699.3 1343.8 684.1 1380.0 700.5 1373.2 715.7" fill="#707070" fill-rule="evenodd" stroke="none"/>
    <path d="M1219.2 608.5 L1222.1 608.5 1224.8 609.6 1226.8 611.6 1228.0 614.2 1228.0 617.1 1226.9 619.7 1224.9 621.8 1222.3 622.9 1219.4 622.9 1216.8 621.9 1214.7 619.9 1213.6 617.3 1213.6 614.4 1214.6 611.7 1216.6 609.7 1219.2 608.5" fill="#707070" fill-rule="evenodd" stroke="none"/>
    <path d="M1218.4 626.4 L1227.5 622.3 1247.9 665.2 1260.6 684.0 1275.7 701.4 1268.2 708.0 1252.5 689.8 1239.1 670.0 1218.4 626.4" fill="#707070" fill-rule="evenodd" stroke="none"/>
    <path d="M1299.6 738.5 L1277.0 718.5 1283.6 711.0 1306.3 731.0 1299.6 738.5" fill="#707070" fill-rule="evenodd" stroke="none"/>
    <path d="M1318.0 738.0 L1351.4 756.5 1381.1 767.7 1377.5 777.1 1347.2 765.6 1313.2 746.8 1318.0 738.0" fill="#707070" fill-rule="evenodd" stroke="none"/>
    <path d="M1464.8 775.0 L1495.2 768.5 1497.3 778.3 1465.8 785.0 1430.9 785.0 1389.9 779.3 1391.3 769.4 1432.0 775.0 1464.8 775.0" fill="#707070" fill-rule="evenodd" stroke="none"/>
    <path d="M358.2 73.1 L354.8 98.7 347.4 97.7 350.9 72.1 358.2 73.1" fill="#434343" fill-rule="evenodd" stroke="none"/>
    <path d="M30.3 7.6 L23.6 4.3 35.1 -18.9 41.8 -15.6 30.3 7.6" fill="#434343" fill-rule="evenodd" stroke="none"/>
    <path d="M582.9 114.8 L575.6 113.5 580.2 87.3 587.5 88.6 582.9 114.8" fill="#434343" fill-rule="evenodd" stroke="none"/>
    <path d="M342.9 154.1 L379.4 163.3 377.5 171.1 340.9 161.8 342.9 154.1" fill="#434343" fill-rule="evenodd" stroke="none"/>
    <path d="M1305.2 554.6 L1279.5 561.3 1277.6 553.5 1303.4 547.1 1305.2 554.6" fill="#434343" fill-rule="evenodd" stroke="none"/>
    <path d="M1414.6 91.7 L1399.4 83.9 1371.7 74.5 1348.5 73.6 1331.6 75.0 1331.3 72.1 1348.4 70.5 1348.5 70.6 1372.2 71.6 1400.6 81.2 1416.6 88.9 1414.6 91.7 M1313.3 104.2 L1330.8 99.0 1349.1 97.2 1367.7 98.5 1385.7 102.8 1403.6 111.0 1401.6 114.7 1383.6 105.7 1367.1 101.5 1349.1 100.2 1331.2 102.0 1314.2 107.0 1297.8 114.5 1282.7 124.0 1271.5 135.8 1261.0 150.6 1252.7 166.5 1248.2 184.8 1246.5 202.0 1247.4 218.8 1241.8 219.0 1241.6 217.2 1236.0 217.0 1236.5 190.2 1244.7 190.0 1245.3 184.5 1250.0 165.4 1258.7 148.8 1269.4 133.6 1281.0 121.5 1296.5 111.7 1313.3 104.2 M1253.6 244.0 L1183.8 264.8 1185.3 261.2 1252.8 240.9 1253.6 244.0 M1339.0 564.0 L1272.6 581.4 1263.0 580.4 1338.5 560.7 1339.0 564.0 M1342.9 585.0 L1346.4 584.0 1347.3 587.4 1356.7 604.2 1365.0 615.5 1376.7 627.0 1389.7 635.8 1405.5 643.5 1422.5 648.0 1440.0 649.6 1458.0 647.8 1475.4 643.2 1491.8 635.7 1506.8 625.6 1519.8 613.2 1531.6 597.7 1534.0 599.8 1522.0 615.3 1508.5 628.0 1493.1 638.4 1476.3 646.0 1458.4 650.8 1440.1 652.6 1424.6 651.0 1406.8 646.5 1390.0 639.0 1376.1 630.2 1363.4 617.9 1358.0 611.0 1350.5 615.0 1337.0 591.5 1344.0 587.4 1342.9 585.0 M1556.0 613.0 L1549.9 624.9 1529.5 646.6 1516.1 656.6 1491.4 671.4 1489.9 668.7 1514.4 654.2 1527.6 644.2 1547.4 623.2 1552.6 612.0 1556.0 613.0" fill="#434343" fill-rule="evenodd" stroke="none"/>
    <path d="M1323.2 374.8 L1317.3 376.1 1315.9 369.6 1321.7 368.3 1323.2 374.8" fill="#434343" fill-rule="evenodd" stroke="none"/>
    <path d="M1465.9 336.5 L1460.0 337.8 1458.5 331.2 1464.4 329.9 1465.9 336.5" fill="#434343" fill-rule="evenodd" stroke="none"/>
    <path d="M1434.3 220.0 L1428.4 221.3 1426.9 214.8 1432.8 213.4 1434.3 220.0" fill="#434343" fill-rule="evenodd" stroke="none"/>
    <path d="M1292.3 259.7 L1286.4 261.0 1284.9 254.4 1290.8 253.1 1292.3 259.7" fill="#434343" fill-rule="evenodd" stroke="none"/>
    <path d="M1483.0 217.5 L1542.5 440.5" fill="none" stroke="#434343" stroke-linecap="butt" stroke-linejoin="miter-clip" stroke-miterlimit="10.0" stroke-width="4.0"/>
  </g>
</svg>
