<?xml version="1.0" encoding="UTF-8" standalone="no"?>
<svg xmlns:ffdec="https://www.free-decompiler.com/flash" xmlns:xlink="http://www.w3.org/1999/xlink" ffdec:objectType="shape" height="874.5px" width="600.5px" xmlns="http://www.w3.org/2000/svg">
  <g transform="matrix(1.0, 0.0, 0.0, 1.0, 355.05, 194.25)">
    <path d="M-355.05 50.25 L-355.05 43.75 -348.55 43.75 -348.55 50.25 -355.05 50.25" fill="#424242" fill-rule="evenodd" stroke="none"/>
    <path d="M132.95 365.75 L133.95 365.75 133.95 346.75 132.95 346.75 132.95 365.75 M133.95 289.25 L132.95 289.25 132.95 331.25 133.95 331.25 133.95 289.25 M133.95 224.25 L132.95 224.25 132.95 273.75 133.95 273.75 133.95 224.25 M133.95 199.25 L132.95 199.25 132.95 215.25 133.95 215.25 133.95 199.25 M47.45 -194.25 L47.95 -191.75 72.45 -191.75 72.45 -130.25 68.95 -130.25 68.95 103.25 47.45 103.25 47.45 158.25 132.95 158.25 132.95 192.75 133.95 192.75 133.95 80.75 125.45 80.75 125.45 15.25 245.45 15.25 245.45 80.75 167.95 80.75 167.95 192.75 171.45 192.75 171.45 199.25 167.95 199.25 167.95 282.75 171.45 282.75 171.45 289.25 167.95 289.25 167.95 365.75 171.45 365.75 171.45 366.75 190.45 366.75 Q190.45 405.75 189.95 444.75 L171.45 444.75 171.45 445.75 132.95 445.75 132.95 455.25 77.95 455.25 77.95 456.75 68.95 456.75 68.95 455.25 41.45 455.25 85.95 519.75 Q-28.55 600.25 -143.55 680.25 L-201.05 595.75 -174.05 576.75 -183.05 563.25 Q-182.55 563.25 -182.05 562.75 -181.55 563.25 -181.55 563.75 L-168.55 554.75 -239.05 455.25 -239.05 454.75 -241.05 452.75 Q-240.55 452.25 -240.55 451.75 L-239.55 451.75 Q-239.05 425.75 -239.05 399.75 L-240.55 399.75 -240.55 396.75 -299.55 396.75 -299.55 160.25 -302.05 160.25 -302.05 154.25 -295.55 154.25 -295.55 159.25 -239.05 159.25 -239.05 44.75 -295.55 44.75 -295.55 49.75 -302.05 49.75 -302.05 43.25 -300.05 43.25 -300.05 -75.75 -286.05 -75.75 -286.05 -94.75 -255.55 -94.75 -255.55 -110.25 -240.55 -110.25 -240.55 -194.25 47.45 -194.25" fill="#424242" fill-rule="evenodd" stroke="none"/>
    <path d="M-355.05 160.25 L-355.05 154.25 -348.55 154.25 -348.55 160.25 -355.05 160.25" fill="#424242" fill-rule="evenodd" stroke="none"/>
    <path d="M-348.05 31.25 L-345.05 29.25 -343.05 32.25 -346.05 34.25 -348.05 31.25" fill="#424242" fill-rule="evenodd" stroke="none"/>
    <path d="M-303.05 29.25 L-300.55 31.75 Q-301.55 33.25 -303.05 34.25 L-305.55 31.75 Q-304.05 30.75 -303.05 29.25" fill="#424242" fill-rule="evenodd" stroke="none"/>
    <path d="M-343.55 0.25 L-345.55 3.25 -348.55 1.25 -346.55 -1.75 -343.55 0.25" fill="#424242" fill-rule="evenodd" stroke="none"/>
    <path d="M-301.05 0.75 Q-302.05 2.25 -303.55 3.25 L-306.05 0.75 Q-304.55 -0.25 -303.55 -1.75 L-301.05 0.75" fill="#424242" fill-rule="evenodd" stroke="none"/>
    <path d="M-166.05 556.75 Q-173.05 561.75 -180.05 566.25 L-181.05 563.75 -167.05 554.75 -166.05 556.75" fill="#6f6f6f" fill-rule="evenodd" stroke="none"/>
    <path d="M-163.55 559.75 L-177.55 569.25 -179.05 566.75 -165.05 557.75 Q-164.05 558.75 -163.55 559.75" fill="#6f6f6f" fill-rule="evenodd" stroke="none"/>
    <path d="M-162.05 562.75 Q-168.55 567.75 -175.55 572.25 -176.05 571.25 -177.05 570.25 L-163.05 560.75 -162.05 562.75" fill="#6f6f6f" fill-rule="evenodd" stroke="none"/>
    <path d="M-159.55 565.75 L-173.55 575.25 Q-174.05 574.25 -175.05 573.25 -168.05 568.75 -161.05 563.75 -160.05 564.75 -159.55 565.75" fill="#6f6f6f" fill-rule="evenodd" stroke="none"/>
    <path d="M-240.55 -106.75 L-254.55 -106.75 -254.55 -108.75 -240.55 -108.75 -240.55 -106.75 M-254.55 -105.75 L-240.55 -105.75 -240.55 -103.75 -254.55 -103.75 -254.55 -105.75 M-254.55 -102.25 L-240.55 -102.25 -240.55 -100.75 -254.55 -100.75 -254.55 -102.25 M-285.55 -93.75 L-254.55 -93.75 -254.55 -96.75 -240.55 -96.75 -240.55 -74.25 -285.55 -74.25 -285.55 -93.75 M-254.55 -99.75 L-240.55 -99.75 -240.55 -97.75 -254.55 -97.75 -254.55 -99.75 M-188.05 611.25 L-198.55 595.75 -158.55 566.75 -147.55 583.25 -188.05 611.25" fill="#6f6f6f" fill-rule="evenodd" stroke="none"/>
    <path d="M-78.55 -15.25 Q-39.55 -15.25 -1.05 -15.75 -4.05 125.25 -7.55 265.75 -45.05 266.25 -83.05 266.25 -80.55 125.75 -78.55 -15.25" fill="#959595" fill-rule="evenodd" stroke="none"/>
    <path d="M-257.55 -44.75 L-260.05 -44.75 -260.05 12.75 -257.55 12.75 -257.55 -44.75 M-295.05 -45.75 L-295.05 -68.75 -283.55 -68.75 -283.55 -71.25 -270.55 -71.25 -270.55 -68.75 -239.55 -68.75 -239.55 -4.75 -235.55 -4.75 -235.55 -31.75 -200.05 -31.75 -200.05 -16.25 -215.55 -16.25 -215.55 15.25 -235.55 15.25 -235.55 6.75 -239.55 6.75 -239.55 12.75 -238.55 12.75 -238.55 40.75 -246.55 40.75 -246.55 41.75 -288.55 41.75 -288.55 40.75 -294.55 40.75 -294.55 -44.75 -283.05 -44.75 -283.05 12.75 -281.05 12.75 -281.05 -46.75 -294.55 -46.75 -294.55 -45.75 -295.05 -45.75" fill="#959595" fill-rule="evenodd" stroke="none"/>
    <path d="M3.95 -21.75 Q-39.55 -21.25 -83.55 -21.25 L-88.55 272.25 Q-45.55 272.25 -3.05 271.75 L3.95 -21.75 M-11.55 -78.25 L-7.05 -78.25 -7.05 -77.75 -11.55 -77.75 -11.55 -78.25 M39.95 -178.25 L39.95 -166.25 -21.05 -166.25 -21.05 -78.25 -14.55 -78.25 -14.55 -76.75 -13.55 -76.75 -13.55 -65.25 -14.55 -65.25 -14.55 -63.75 -11.55 -63.75 -11.55 -64.25 -7.05 -64.25 -7.05 -62.25 9.95 -62.25 9.95 -78.25 22.95 -78.25 22.95 -138.75 39.95 -138.75 39.95 -64.75 29.95 -64.75 29.95 -24.75 40.95 -24.75 40.95 -6.75 29.95 -6.75 29.95 33.25 42.45 33.25 42.45 173.25 130.95 173.25 130.95 450.25 -233.05 450.25 -233.05 140.75 -238.05 140.75 -238.05 57.25 -234.55 57.25 -234.55 16.75 -214.55 16.75 -214.55 -14.75 -200.05 -14.75 -202.05 -24.25 -200.05 -33.25 -235.05 -33.25 Q-235.05 -105.25 -235.55 -177.25 L-114.55 -177.25 -114.55 -190.75 -17.05 -190.75 -17.05 -178.25 39.95 -178.25" fill="#959595" fill-rule="evenodd" stroke="none"/>
    <path d="M42.95 -171.75 L64.95 -171.75 64.95 -109.75 65.45 -109.75 65.45 -97.25 64.95 -97.25 64.95 -93.25 42.95 -93.25 42.95 -148.25 39.95 -148.25 39.95 -140.75 22.95 -140.75 22.95 -148.25 20.95 -148.25 20.95 -80.25 8.45 -80.25 8.45 -78.25 9.45 -78.25 9.45 -62.75 -6.55 -62.75 -6.55 -64.75 -7.05 -64.75 -7.05 -77.25 -6.55 -77.25 -6.55 -78.25 -6.05 -78.25 -6.05 -80.25 -19.05 -80.25 -19.05 -164.25 22.95 -164.25 22.95 -164.75 39.95 -164.75 39.95 -160.75 42.95 -160.75 42.95 -171.75" fill="#959595" fill-rule="evenodd" stroke="none"/>
    <path d="M-13.05 -64.75 L-13.05 -77.25 -11.05 -77.25 -11.05 -64.75 -13.05 -64.75" fill="#959595" fill-rule="evenodd" stroke="none"/>
    <path d="M-8.05 -64.75 L-10.05 -64.75 -10.05 -77.25 -8.05 -77.25 -8.05 -64.75" fill="#959595" fill-rule="evenodd" stroke="none"/>
    <path d="M-193.55 335.75 Q-193.55 331.75 -194.05 327.75 L-186.05 327.25 -186.05 323.75 -194.05 324.25 Q-194.05 320.75 -194.55 316.75 L-186.55 316.25 -186.55 313.25 -194.55 313.25 -194.55 305.25 -187.05 305.75 -187.05 304.25 -176.55 303.75 Q-176.05 304.75 -176.05 305.75 L-168.55 305.75 -168.55 313.75 -176.05 313.75 -176.05 315.25 -168.55 314.75 Q-168.05 318.75 -168.05 322.75 L-175.55 323.25 -175.55 326.75 -168.05 326.25 Q-167.55 330.25 -167.55 334.25 L-175.05 334.75 -175.05 336.75 -185.55 337.25 Q-185.55 336.25 -186.05 335.25 L-193.55 335.75" fill="#6f6f6f" fill-rule="evenodd" stroke="none"/>
    <path d="M-84.05 334.25 L-82.05 294.25 -76.05 294.75 Q-76.55 314.75 -77.55 334.75 L-84.05 334.25" fill="#6f6f6f" fill-rule="evenodd" stroke="none"/>
    <path d="M-51.05 336.25 L-45.55 336.25 -45.55 335.75 -51.05 335.75 -51.05 336.25 M-53.55 310.25 L-53.55 309.25 -61.55 310.75 -61.55 318.25 -58.55 312.75 Q-56.05 311.75 -53.55 310.25 M-46.55 303.25 L-50.05 303.25 -51.05 305.75 -46.05 305.75 Q-46.05 304.75 -46.55 303.25 M-42.55 308.75 L-42.55 310.75 -38.55 312.75 Q-37.05 315.25 -36.05 317.75 L-36.05 310.75 -42.55 308.75 M-51.55 301.25 L-45.05 301.25 Q-44.55 303.75 -44.55 305.75 L-34.55 307.75 -34.55 320.25 -34.05 320.25 -34.05 324.75 -35.05 324.75 -35.05 326.25 Q-36.55 329.25 -38.55 332.25 L-43.55 335.25 -43.55 337.25 -53.05 337.25 -53.05 335.25 Q-55.55 333.75 -58.55 332.25 -60.05 329.25 -62.05 326.25 L-62.05 324.75 -63.05 324.75 -63.05 320.25 -62.55 320.25 -62.55 308.25 Q-57.55 307.25 -53.05 305.75 -52.05 303.75 -51.55 301.25" fill="#6f6f6f" fill-rule="evenodd" stroke="none"/>
    <path d="M-125.05 -150.25 L-127.05 -151.75 -129.05 -147.75 Q-128.05 -147.25 -127.05 -147.25 L-125.05 -150.25 M-135.05 -146.75 Q-136.55 -145.25 -138.55 -144.25 L-144.55 -144.25 -138.05 -140.75 Q-135.55 -143.25 -133.55 -146.25 -134.05 -146.25 -135.05 -146.75 M-133.55 -167.25 L-130.05 -161.75 Q-129.55 -159.25 -129.55 -156.75 -129.05 -156.25 -128.55 -156.25 -127.55 -159.75 -127.05 -163.75 -130.05 -165.25 -133.55 -167.25 M-147.55 -170.75 L-140.55 -171.25 Q-139.55 -170.75 -139.05 -170.25 L-138.05 -171.75 Q-136.05 -170.75 -134.55 -169.75 L-134.55 -168.75 -124.05 -163.75 -126.05 -153.75 -122.55 -150.75 -125.55 -144.75 Q-127.55 -145.25 -130.05 -146.25 L-136.05 -138.25 -147.05 -144.25 Q-147.05 -143.75 -147.55 -143.25 L-151.55 -145.25 Q-151.05 -145.75 -151.05 -146.75 -151.55 -146.75 -152.05 -147.25 L-156.05 -153.25 Q-156.05 -155.75 -156.55 -158.75 L-158.55 -159.75 Q-156.05 -163.75 -154.05 -168.25 L-153.55 -167.75 Q-153.05 -167.25 -152.55 -167.25 -150.05 -168.75 -147.55 -170.75" fill="#6f6f6f" fill-rule="evenodd" stroke="none"/>
    <path d="M-182.05 231.75 L-179.55 231.75 Q-178.55 229.25 -178.05 226.25 L-169.55 228.25 -173.55 245.75 -173.55 263.25 -182.55 263.25 Q-182.05 260.75 -182.05 257.75 L-184.55 257.25 Q-184.05 254.75 -184.05 251.75 L-184.05 251.25 -182.05 231.75 M-194.55 269.75 Q-195.05 257.25 -196.05 244.25 L-185.55 243.25 -184.55 257.25 Q-184.05 263.25 -184.05 269.25 L-194.55 269.75" fill="#6f6f6f" fill-rule="evenodd" stroke="none"/>
    <path d="M-230.55 18.75 L-226.55 17.75 -220.55 49.25 -224.55 49.75 -230.55 18.75" fill="#6f6f6f" fill-rule="evenodd" stroke="none"/>
    <path d="M-95.05 102.75 L-99.05 103.75 -116.05 15.75 -111.55 15.25 Q-103.05 59.25 -95.05 102.75" fill="#6f6f6f" fill-rule="evenodd" stroke="none"/>
    <path d="M-127.55 35.75 Q-127.55 47.75 -128.05 59.25 L-124.55 59.25 Q-125.55 72.25 -127.05 84.75 -127.55 84.75 -128.05 84.25 L-128.05 139.25 -135.05 139.25 -135.05 145.75 -164.05 145.75 -164.05 80.25 -167.05 80.25 Q-165.55 70.25 -164.55 60.25 L-164.55 35.25 Q-146.05 35.75 -127.55 35.75" fill="#6f6f6f" fill-rule="evenodd" stroke="none"/>
    <path d="M119.95 194.25 L122.95 194.25 Q122.95 205.75 122.45 217.25 L118.95 217.25 119.95 194.25" fill="#6f6f6f" fill-rule="evenodd" stroke="none"/>
    <path d="M101.45 175.25 L103.45 172.75 123.95 188.75 121.95 191.25 101.45 175.25" fill="#6f6f6f" fill-rule="evenodd" stroke="none"/>
    <path d="M26.45 228.75 L26.45 223.25 45.95 223.25 45.95 228.75 26.45 228.75" fill="#6f6f6f" fill-rule="evenodd" stroke="none"/>
    <path d="M16.95 210.25 L16.95 213.25 20.95 213.25 20.95 224.25 16.95 224.25 16.95 226.25 13.95 226.25 13.95 224.25 9.45 224.25 9.45 213.25 13.95 213.25 13.95 210.25 16.95 210.25" fill="#6f6f6f" fill-rule="evenodd" stroke="none"/>
    <path d="M18.45 255.75 L17.45 257.75 20.95 259.75 Q18.45 264.75 15.45 269.75 L12.45 267.75 11.45 269.75 Q9.95 269.25 8.45 268.25 L9.45 266.25 5.45 264.25 Q8.45 259.75 10.95 254.75 L14.45 256.25 Q15.45 255.25 15.95 254.25 L18.45 255.75" fill="#6f6f6f" fill-rule="evenodd" stroke="none"/>
    <path d="M-61.55 212.25 Q-61.05 214.25 -61.05 216.25 L-64.05 216.75 Q-63.55 218.75 -63.55 220.75 L-77.05 222.75 Q-77.05 220.75 -77.55 218.75 L-80.05 218.75 Q-80.05 217.25 -80.55 215.25 L-78.05 214.75 -79.05 210.25 -65.55 207.75 -64.55 212.75 -61.55 212.25" fill="#6f6f6f" fill-rule="evenodd" stroke="none"/>
    <path d="M-81.05 189.75 L-76.55 190.25 Q-76.05 188.75 -76.05 186.75 L-72.05 187.25 Q-72.05 189.25 -72.55 190.75 L-68.55 191.25 Q-69.05 198.25 -70.05 204.75 L-74.05 204.25 Q-74.05 205.75 -74.55 206.75 L-78.05 206.25 -78.05 203.75 -83.05 203.25 -81.05 189.75" fill="#6f6f6f" fill-rule="evenodd" stroke="none"/>
    <path d="M-141.55 -47.75 Q-141.55 -54.25 -142.05 -60.75 L-137.05 -60.75 Q-137.05 -62.25 -137.55 -64.25 L-133.55 -64.25 -133.55 -61.25 -129.05 -61.25 Q-128.55 -54.75 -128.55 -48.25 L-133.05 -48.25 -133.05 -45.75 -136.55 -45.75 -136.55 -48.25 -141.55 -47.75" fill="#6f6f6f" fill-rule="evenodd" stroke="none"/>
    <path d="M-137.05 -81.75 Q-137.05 -83.25 -137.55 -84.75 -136.05 -84.75 -134.55 -85.25 -134.05 -83.75 -134.05 -82.75 L-130.55 -83.25 Q-129.05 -77.75 -128.05 -72.25 L-131.55 -71.25 Q-131.05 -70.25 -131.05 -69.25 -132.55 -68.75 -134.05 -68.75 -134.05 -69.75 -134.55 -70.75 L-138.55 -69.75 Q-139.55 -75.25 -141.05 -80.75 L-137.05 -81.75" fill="#6f6f6f" fill-rule="evenodd" stroke="none"/>
    <path d="M-113.05 -79.75 Q-113.05 -84.25 -113.55 -89.25 L-118.55 -89.25 -118.55 -87.75 -115.05 -87.75 -115.05 -75.75 -118.55 -75.75 -118.55 -73.75 -114.55 -73.75 Q-113.55 -76.75 -113.05 -79.75 M-112.55 -90.25 L-112.55 -89.75 Q-112.05 -89.75 -111.55 -90.25 -111.05 -84.25 -111.05 -78.75 L-111.55 -78.75 -112.55 -73.25 -122.05 -73.25 -122.05 -73.75 -121.55 -73.75 -121.55 -75.75 -126.05 -75.75 -126.05 -87.25 -122.05 -87.25 -122.05 -89.25 -122.55 -89.25 -122.55 -90.25 -112.55 -90.25" fill="#6f6f6f" fill-rule="evenodd" stroke="none"/>
    <path d="M-125.55 -89.75 Q-126.55 -88.25 -127.55 -87.25 L-129.05 -88.75 -132.05 -85.25 -141.05 -92.75 Q-139.55 -94.25 -138.55 -96.25 -139.55 -96.75 -140.55 -97.75 -139.55 -98.75 -138.55 -100.25 L-136.05 -98.75 -134.05 -101.75 Q-129.55 -97.75 -125.05 -94.25 L-127.05 -91.25 -125.55 -89.75" fill="#6f6f6f" fill-rule="evenodd" stroke="none"/>
    <path d="M-118.55 -52.25 L-121.55 -54.75 Q-122.05 -53.75 -123.05 -53.25 L-125.55 -55.75 -124.55 -57.25 -128.05 -60.25 Q-124.05 -64.25 -120.55 -68.25 L-117.55 -65.25 -115.55 -67.25 -113.05 -65.25 Q-113.55 -64.25 -114.55 -63.25 L-111.55 -60.25 -118.55 -52.25" fill="#6f6f6f" fill-rule="evenodd" stroke="none"/>
    <path d="M-134.05 -43.25 L-134.05 -40.75 -130.55 -40.75 Q-130.05 -35.75 -130.05 -31.25 L-133.55 -31.25 Q-133.05 -30.25 -133.05 -29.25 L-136.55 -29.25 -136.55 -30.75 -140.55 -30.75 Q-140.55 -35.25 -141.05 -40.25 L-137.05 -40.75 -137.05 -42.75 Q-135.55 -42.75 -134.05 -43.25" fill="#6f6f6f" fill-rule="evenodd" stroke="none"/>
    <path d="M-53.55 234.75 L-54.55 265.25 -86.55 264.25 Q-85.55 248.75 -85.05 233.25 L-53.55 234.75" fill="#6f6f6f" fill-rule="evenodd" stroke="none"/>
    <path d="M-170.55 -97.25 L-170.55 -70.75 -173.05 -70.75 Q-173.05 -70.25 -173.55 -69.75 L-201.05 -70.75 -201.05 -97.25 -199.05 -97.25 -199.05 -98.25 -170.55 -97.25" fill="#6f6f6f" fill-rule="evenodd" stroke="none"/>
    <path d="M129.45 161.75 L130.45 167.25 41.45 171.75 Q41.95 167.25 41.95 162.75 L129.45 161.75" fill="#6f6f6f" fill-rule="evenodd" stroke="none"/>
    <path d="M-102.05 191.25 L-97.05 190.75 Q-96.55 193.25 -96.55 195.25 L-91.05 194.75 -89.05 217.75 -94.55 218.25 Q-94.05 220.25 -94.05 222.25 L-99.55 222.75 Q-100.55 207.25 -102.05 191.25" fill="#6f6f6f" fill-rule="evenodd" stroke="none"/>
    <path d="M-107.05 148.75 L-83.55 162.75 -87.55 169.25 -111.05 155.25 -107.05 148.75" fill="#6f6f6f" fill-rule="evenodd" stroke="none"/>
    <path d="M-21.55 202.75 L-6.05 202.75 -4.05 218.75 -3.55 218.75 -3.55 225.25 -6.05 225.25 -6.05 236.25 -6.55 236.25 -6.55 241.25 -13.05 241.25 -13.05 236.25 -31.05 236.25 -31.05 241.25 -37.05 241.25 -37.05 236.25 -37.55 236.25 -37.55 223.25 -39.05 223.25 -39.05 216.75 -38.55 216.75 -38.55 211.25 -38.05 211.25 -38.05 205.25 -37.55 205.25 -37.55 202.75 -33.55 202.75 -33.55 194.25 -26.05 194.75 Q-25.55 199.75 -25.55 204.75 L-21.55 202.75" fill="#6f6f6f" fill-rule="evenodd" stroke="none"/>
    <path d="M-36.05 187.25 L-36.05 195.75 -67.55 194.75 Q-67.05 190.75 -67.05 186.25 L-36.05 187.25" fill="#6f6f6f" fill-rule="evenodd" stroke="none"/>
    <path d="M-8.55 164.25 L-8.55 131.75 0.45 131.75 0.45 164.25 -8.55 164.25" fill="#6f6f6f" fill-rule="evenodd" stroke="none"/>
    <path d="M15.45 64.25 L20.95 64.25 22.95 154.25 17.95 154.25 Q16.95 109.25 15.45 64.25" fill="#6f6f6f" fill-rule="evenodd" stroke="none"/>
    <path d="M-8.55 111.75 L0.45 110.75 Q0.95 115.25 0.95 119.25 L-8.05 119.25 Q-8.05 115.75 -8.55 111.75" fill="#6f6f6f" fill-rule="evenodd" stroke="none"/>
    <path d="M3.45 65.25 L8.95 64.75 10.95 154.75 5.95 155.25 4.95 110.25 -11.05 109.25 -11.05 102.75 4.45 101.25 3.45 65.25" fill="#6f6f6f" fill-rule="evenodd" stroke="none"/>
    <path d="M-26.55 151.25 Q-26.05 155.25 -26.05 158.75 L-26.55 158.75 -26.55 160.25 -73.55 163.75 Q-73.55 159.75 -74.05 155.75 L-73.55 155.75 -73.55 153.25 -26.55 151.25" fill="#6f6f6f" fill-rule="evenodd" stroke="none"/>
    <path d="M-27.55 110.75 L-27.55 148.25 -82.55 148.25 -82.55 110.75 -27.55 110.75" fill="#6f6f6f" fill-rule="evenodd" stroke="none"/>
    <path d="M-46.05 61.75 L-16.55 61.75 -16.55 75.75 Q-16.05 75.75 -16.05 75.25 L-14.05 83.75 -16.55 84.25 -16.55 87.75 -18.55 87.75 -18.55 89.75 -28.55 89.25 Q-28.05 90.75 -28.05 92.25 L-27.05 92.25 -27.05 97.75 -27.55 97.75 -27.55 100.75 -40.55 100.25 -52.55 102.25 Q-52.55 100.75 -53.05 99.25 L-53.55 99.25 -53.55 95.75 Q-53.55 94.75 -54.05 93.25 L-53.55 93.25 Q-53.05 92.25 -53.05 90.75 L-44.05 91.25 -31.55 89.25 -36.05 88.75 -45.55 90.75 -47.55 82.75 Q-46.55 82.75 -46.05 82.25 L-46.05 61.75" fill="#6f6f6f" fill-rule="evenodd" stroke="none"/>
    <path d="M-83.55 13.25 L-76.05 13.25 -76.05 15.75 -69.05 15.75 -70.05 32.25 -58.55 36.25 -58.55 26.25 -53.55 26.25 -53.55 27.25 -47.05 27.25 -47.05 29.75 -45.05 29.75 -45.05 25.75 -33.55 25.75 -33.55 26.25 -26.55 26.25 -26.55 39.75 19.95 46.75 Q18.95 54.25 17.45 61.75 L-26.55 54.75 -26.55 57.75 -33.55 57.75 -33.55 58.25 -38.55 58.25 -38.55 61.25 -48.55 61.25 -48.55 58.25 -57.05 58.25 -57.05 90.75 -66.05 90.75 -66.05 89.75 -75.55 89.75 -75.55 90.75 -83.05 90.75 -83.05 59.25 -76.05 59.25 -76.05 56.75 -66.05 56.75 -66.05 57.25 -58.55 57.25 -58.55 50.75 Q-64.55 48.75 -70.55 46.25 L-70.55 47.75 -78.05 47.25 -78.05 45.25 -83.55 45.25 -83.55 41.75 -96.05 37.25 Q-93.55 30.75 -91.55 24.25 L-83.55 27.25 -83.55 13.25" fill="#6f6f6f" fill-rule="evenodd" stroke="none"/>
    <path d="M19.95 11.75 Q24.45 26.75 28.45 41.75 22.95 43.75 16.95 45.25 12.95 30.25 8.45 14.75 L19.95 11.75" fill="#6f6f6f" fill-rule="evenodd" stroke="none"/>
    <path d="M-33.55 -13.75 L-33.55 -9.25 -22.05 -9.25 -22.05 12.75 -33.55 12.75 -33.55 18.75 -42.55 18.75 -42.55 12.75 -44.55 12.75 -44.55 17.75 -52.55 17.75 -53.55 -13.75 -45.55 -14.25 -45.55 -9.25 -42.55 -9.25 -42.55 -13.75 -33.55 -13.75" fill="#6f6f6f" fill-rule="evenodd" stroke="none"/>
    <path d="M24.45 -7.75 L25.45 -10.75 21.45 -10.75 21.45 -7.75 24.45 -7.75 M-6.05 9.75 L-6.05 -1.25 -3.05 -1.25 -3.05 -7.75 12.45 -7.75 12.45 -10.75 2.95 -10.25 2.95 -16.75 Q18.95 -16.75 34.45 -17.25 L34.45 -10.75 28.95 -10.75 27.95 -7.75 28.95 -7.75 28.95 -0.75 25.95 -0.75 25.95 5.75 24.45 5.75 24.45 9.75 -6.05 9.75" fill="#6f6f6f" fill-rule="evenodd" stroke="none"/>
    <path d="M39.45 -17.25 L7.95 -17.25 7.95 -24.25 Q23.95 -24.25 39.45 -24.75 L39.45 -17.25" fill="#6f6f6f" fill-rule="evenodd" stroke="none"/>
    <path d="M30.45 -64.75 L30.45 -41.75 22.45 -41.75 22.45 -82.75 40.95 -82.75 40.95 -64.75 30.45 -64.75" fill="#6f6f6f" fill-rule="evenodd" stroke="none"/>
    <path d="M-45.05 -22.75 Q-45.55 -26.75 -46.55 -31.25 L-15.05 -37.25 Q-14.05 -32.75 -13.55 -28.75 L-45.05 -22.75" fill="#6f6f6f" fill-rule="evenodd" stroke="none"/>
    <path d="M-82.05 -32.25 L-49.55 -29.25 -50.55 -20.75 -82.55 -24.25 Q-82.05 -28.25 -82.05 -32.25" fill="#6f6f6f" fill-rule="evenodd" stroke="none"/>
    <path d="M-76.05 -45.25 L-54.05 -41.75 Q-54.05 -40.25 -54.55 -39.25 L-49.55 -38.75 Q-50.05 -34.25 -51.05 -29.75 L-83.05 -34.75 Q-82.05 -39.25 -81.55 -43.75 L-76.55 -42.75 Q-76.05 -43.75 -76.05 -45.25" fill="#6f6f6f" fill-rule="evenodd" stroke="none"/>
    <path d="M-40.55 -47.25 L-18.55 -47.25 -18.55 -41.75 -13.55 -41.75 -13.55 -37.75 -45.55 -37.75 -45.55 -41.75 -40.55 -41.75 -40.55 -47.25" fill="#6f6f6f" fill-rule="evenodd" stroke="none"/>
    <path d="M-99.55 -76.25 Q-96.05 -81.75 -93.05 -87.75 L-78.05 -79.75 Q-81.05 -73.75 -84.55 -67.75 -92.05 -71.75 -99.55 -76.25" fill="#6f6f6f" fill-rule="evenodd" stroke="none"/>
    <path d="M36.45 -148.25 L36.45 -140.25 25.95 -140.25 25.95 -148.25 36.45 -148.25" fill="#6f6f6f" fill-rule="evenodd" stroke="none"/>
    <path d="M46.45 -128.75 L46.45 -118.25 42.95 -118.25 42.95 -128.75 46.45 -128.75" fill="#6f6f6f" fill-rule="evenodd" stroke="none"/>
    <path d="M43.95 -143.25 L43.95 -132.25 42.95 -132.25 42.95 -143.25 43.95 -143.25" fill="#6f6f6f" fill-rule="evenodd" stroke="none"/>
    <path d="M60.95 -112.25 Q61.45 -125.25 61.45 -138.25 L64.95 -138.25 Q64.95 -125.25 64.45 -112.25 L60.95 -112.25" fill="#6f6f6f" fill-rule="evenodd" stroke="none"/>
    <path d="M53.95 -171.25 L53.95 -163.75 46.95 -163.75 46.95 -171.25 53.95 -171.25" fill="#6f6f6f" fill-rule="evenodd" stroke="none"/>
    <path d="M62.45 -171.75 L62.45 -164.25 55.45 -164.25 55.45 -171.75 62.45 -171.75" fill="#6f6f6f" fill-rule="evenodd" stroke="none"/>
    <path d="M-6.55 -157.25 L-6.55 -123.25 -19.05 -123.25 -19.05 -157.25 -6.55 -157.25" fill="#6f6f6f" fill-rule="evenodd" stroke="none"/>
    <path d="M-18.55 -114.25 L-4.55 -114.25 -4.55 -107.25 -12.05 -107.25 -12.05 -96.75 -4.55 -96.75 -4.55 -90.25 -18.55 -90.25 -18.55 -114.25" fill="#6f6f6f" fill-rule="evenodd" stroke="none"/>
    <path d="M20.95 -137.75 L20.95 -118.25 14.95 -118.25 14.95 -137.75 20.95 -137.75" fill="#6f6f6f" fill-rule="evenodd" stroke="none"/>
    <path d="M20.95 -105.75 L17.45 -105.75 17.45 -115.75 20.95 -115.75 20.95 -105.75" fill="#6f6f6f" fill-rule="evenodd" stroke="none"/>
    <path d="M-27.55 -143.25 L-27.55 -134.75 -29.55 -134.75 -29.55 -133.75 -28.55 -133.75 -28.55 -125.25 -27.55 -125.25 -27.55 -116.75 -58.55 -116.75 -58.55 -123.75 Q-59.05 -123.25 -60.05 -123.25 -60.05 -124.25 -60.55 -125.25 L-61.05 -125.25 -61.05 -133.75 -60.55 -133.75 -60.55 -142.25 -58.55 -142.25 -58.55 -143.25 -27.55 -143.25" fill="#6f6f6f" fill-rule="evenodd" stroke="none"/>
    <path d="M-75.05 -174.25 Q-75.05 -171.25 -75.55 -168.25 -75.05 -167.75 -74.55 -167.75 L-74.55 -160.75 -71.55 -160.75 -71.55 -153.25 -74.55 -153.25 -74.55 -145.75 -75.55 -145.75 -75.55 -142.75 -82.05 -143.25 Q-85.55 -136.75 -89.55 -130.75 L-84.55 -130.75 -84.55 -123.75 -88.05 -123.75 -88.05 -116.75 -119.05 -118.25 -119.05 -124.75 -116.05 -124.75 -116.05 -131.25 Q-106.55 -130.75 -97.55 -130.75 -93.55 -136.75 -90.05 -143.25 L-106.05 -143.25 -106.05 -147.25 -105.55 -147.25 -105.55 -154.25 -103.05 -154.25 -103.05 -156.75 -107.55 -156.75 -107.55 -168.25 -106.55 -168.25 -106.55 -174.75 Q-90.55 -174.25 -75.05 -174.25" fill="#6f6f6f" fill-rule="evenodd" stroke="none"/>
    <path d="M-181.05 -158.25 L-174.05 -153.25 Q-168.05 -149.75 -162.05 -146.75 L-154.55 -144.75 Q-165.05 -122.75 -176.05 -101.25 L-195.05 -111.25 -202.55 -114.25 Q-191.55 -136.25 -181.05 -158.25" fill="#6f6f6f" fill-rule="evenodd" stroke="none"/>
    <path d="M-206.05 -144.75 L-206.05 -121.75 -229.55 -121.75 -229.55 -144.75 -206.05 -144.75" fill="#424242" fill-rule="evenodd" stroke="none"/>
    <path d="M-229.55 -95.75 L-229.55 -119.25 -206.05 -119.25 -206.05 -95.75 -229.55 -95.75" fill="#424242" fill-rule="evenodd" stroke="none"/>
    <path d="M23.45 194.25 L23.45 179.75 27.95 179.75 27.95 194.25 23.45 194.25" fill="#424242" fill-rule="evenodd" stroke="none"/>
    <path d="M27.95 65.25 L27.95 80.25 23.45 80.25 23.45 65.25 27.95 65.25" fill="#424242" fill-rule="evenodd" stroke="none"/>
    <path d="M27.95 -124.25 L27.95 -109.25 23.45 -109.25 23.45 -124.25 27.95 -124.25" fill="#424242" fill-rule="evenodd" stroke="none"/>
    <path d="M-196.05 -4.75 L-196.05 9.75 -200.55 9.75 -200.55 -4.75 -196.05 -4.75" fill="#424242" fill-rule="evenodd" stroke="none"/>
    <path d="M-201.55 -85.75 L-201.55 -79.75 -204.05 -79.75 -204.05 -85.75 -201.55 -85.75" fill="#424242" fill-rule="evenodd" stroke="none"/>
    <path d="M-201.05 -151.75 L-201.05 -145.75 -204.55 -145.75 -204.55 -151.75 -201.05 -151.75" fill="#424242" fill-rule="evenodd" stroke="none"/>
    <path d="M-207.55 -8.25 L-207.55 -14.25 -204.55 -14.25 -204.55 -8.25 -207.55 -8.25" fill="#424242" fill-rule="evenodd" stroke="none"/>
    <path d="M-204.55 17.75 L-204.55 12.25 -201.55 12.25 -201.55 17.75 -204.55 17.75" fill="#424242" fill-rule="evenodd" stroke="none"/>
    <path d="M-208.55 58.25 L-208.55 52.75 -206.05 52.75 -206.05 58.25 -208.55 58.25" fill="#424242" fill-rule="evenodd" stroke="none"/>
    <path d="M-204.05 169.25 L-204.05 163.75 -201.05 163.75 -201.05 169.25 -204.05 169.25" fill="#424242" fill-rule="evenodd" stroke="none"/>
    <path d="M-231.55 169.25 L-231.55 163.75 -228.55 163.75 -228.55 169.25 -231.55 169.25" fill="#424242" fill-rule="evenodd" stroke="none"/>
    <path d="M-201.55 276.75 L-201.55 282.75 -204.55 282.75 -204.55 276.75 -201.55 276.75" fill="#424242" fill-rule="evenodd" stroke="none"/>
    <path d="M-229.05 276.75 L-229.05 282.75 -232.05 282.75 -232.05 276.75 -229.05 276.75" fill="#424242" fill-rule="evenodd" stroke="none"/>
    <path d="M-204.05 442.25 L-204.05 436.75 -201.55 436.75 -201.55 442.25 -204.05 442.25" fill="#424242" fill-rule="evenodd" stroke="none"/>
    <path d="M-200.05 394.25 L-197.55 394.25 -197.55 399.75 -200.05 399.75 -200.05 394.25" fill="#424242" fill-rule="evenodd" stroke="none"/>
    <path d="M-160.55 395.75 L-160.55 398.25 -166.05 398.25 -166.05 395.75 -160.55 395.75" fill="#424242" fill-rule="evenodd" stroke="none"/>
    <path d="M-165.55 445.75 L-160.05 445.75 -160.05 448.75 -165.55 448.75 -165.55 445.75" fill="#424242" fill-rule="evenodd" stroke="none"/>
    <path d="M-231.55 442.25 L-231.55 436.75 -228.55 436.75 -228.55 442.25 -231.55 442.25" fill="#424242" fill-rule="evenodd" stroke="none"/>
    <path d="M-200.55 451.75 L-200.55 436.75 -196.05 436.75 -196.05 451.75 -200.55 451.75" fill="#424242" fill-rule="evenodd" stroke="none"/>
    <path d="M23.45 451.75 L23.45 437.25 27.95 437.25 27.95 451.75 23.45 451.75" fill="#424242" fill-rule="evenodd" stroke="none"/>
    <path d="M-196.05 -158.75 L-196.05 -144.25 -200.55 -144.25 -200.55 -158.75 -196.05 -158.75" fill="#424242" fill-rule="evenodd" stroke="none"/>
    <path d="M27.95 -178.25 L27.95 -165.75 23.45 -165.75 23.45 -178.25 27.95 -178.25" fill="#424242" fill-rule="evenodd" stroke="none"/>
    <path d="M12.95 252.75 L12.95 228.75 63.95 228.75 63.95 252.75 12.95 252.75" fill="#424242" fill-rule="evenodd" stroke="none"/>
    <path d="M102.95 229.75 L101.45 229.75 101.45 270.25 102.95 270.25 102.95 229.75 M129.95 229.75 L127.95 229.75 127.95 270.25 130.45 270.25 130.45 275.25 127.95 275.25 127.95 283.25 102.95 283.25 102.95 275.25 101.45 275.25 101.45 278.75 81.45 278.75 81.45 275.25 77.45 275.25 77.45 270.25 81.45 270.25 81.45 229.75 76.45 229.75 76.45 224.25 81.45 224.25 81.45 219.25 101.45 219.25 101.45 224.25 102.95 224.25 102.95 216.75 127.95 216.75 127.95 224.25 129.95 224.25 129.95 229.75" fill="#424242" fill-rule="evenodd" stroke="none"/>
    <path d="M121.45 340.75 Q120.95 339.25 119.95 337.75 120.45 336.25 120.45 334.75 L123.45 332.75 126.95 333.75 Q127.95 335.25 128.45 336.75 L127.45 340.25 Q125.95 341.25 124.45 341.75 L121.45 340.75" fill="#424242" fill-rule="evenodd" stroke="none"/>
    <path d="M124.45 295.75 L121.45 294.75 Q120.95 293.25 119.95 291.75 120.45 290.25 120.45 288.25 121.95 287.75 123.45 286.75 L126.95 287.75 Q127.95 289.25 128.45 290.75 L127.45 293.75 124.45 295.75" fill="#424242" fill-rule="evenodd" stroke="none"/>
    <path d="M45.45 340.75 Q44.95 339.25 43.95 337.75 44.45 336.25 44.45 334.75 L47.45 332.75 50.95 333.75 Q51.95 335.25 52.45 336.75 L51.45 340.25 Q49.95 341.25 48.45 341.75 L45.45 340.75" fill="#424242" fill-rule="evenodd" stroke="none"/>
    <path d="M48.45 295.75 L45.45 294.75 Q44.95 293.25 43.95 291.75 44.45 290.25 44.45 288.25 45.95 287.75 47.45 286.75 L50.95 287.75 Q51.95 289.25 52.45 290.75 L51.45 293.75 48.45 295.75" fill="#424242" fill-rule="evenodd" stroke="none"/>
    <path d="M-13.05 332.75 L-9.55 333.75 Q-8.55 335.25 -8.05 336.75 L-9.05 340.25 Q-10.55 341.25 -12.05 341.75 L-15.05 340.75 -17.05 337.75 -16.05 334.75 -13.05 332.75" fill="#424242" fill-rule="evenodd" stroke="none"/>
    <path d="M-13.05 286.75 L-9.55 287.75 Q-8.55 289.25 -8.05 290.75 L-9.05 293.75 -12.05 295.75 -15.05 294.75 -17.05 291.75 -16.05 288.25 Q-14.55 287.75 -13.05 286.75" fill="#424242" fill-rule="evenodd" stroke="none"/>
    <path d="M-85.05 332.75 L-81.55 333.75 Q-80.55 335.25 -80.05 336.75 L-81.05 340.25 Q-82.55 341.25 -84.05 341.75 L-87.05 340.75 -89.05 337.75 -88.05 334.75 -85.05 332.75" fill="#424242" fill-rule="evenodd" stroke="none"/>
    <path d="M-85.05 415.75 L-81.55 416.75 Q-80.55 418.25 -80.05 419.75 L-81.05 423.25 Q-82.55 424.25 -84.05 424.75 L-87.05 423.75 -89.05 420.75 -88.05 417.25 Q-86.55 416.75 -85.05 415.75" fill="#424242" fill-rule="evenodd" stroke="none"/>
    <path d="M47.45 422.25 L50.95 423.25 Q51.95 424.75 52.45 426.25 L51.45 429.75 Q49.95 430.75 48.45 431.25 L45.45 430.25 Q44.95 428.75 43.95 427.25 44.45 425.75 44.45 424.25 L47.45 422.25" fill="#424242" fill-rule="evenodd" stroke="none"/>
    <path d="M123.45 422.75 L126.95 423.75 Q127.95 425.25 128.45 426.75 L127.45 430.25 Q125.95 431.25 124.45 431.75 L121.45 430.75 Q120.95 429.25 119.95 427.75 120.45 426.25 120.45 424.75 L123.45 422.75" fill="#424242" fill-rule="evenodd" stroke="none"/>
    <path d="M-84.55 287.75 L-81.55 288.75 Q-80.55 290.25 -80.05 291.75 -80.05 293.25 -80.55 294.75 L-83.55 296.75 -87.05 295.75 Q-87.55 294.25 -88.55 292.75 L-87.55 289.25 Q-86.05 288.75 -84.55 287.75" fill="#424242" fill-rule="evenodd" stroke="none"/>
    <path d="M-121.05 295.25 L-117.55 296.25 Q-116.55 297.75 -116.05 299.25 L-117.05 302.75 Q-118.55 303.75 -120.05 304.25 L-123.05 303.25 -125.05 300.25 -124.05 297.25 -121.05 295.25" fill="#424242" fill-rule="evenodd" stroke="none"/>
    <path d="M-152.05 329.25 L-149.05 329.75 Q-148.05 331.25 -147.55 332.75 L-148.55 336.25 Q-149.55 337.25 -151.05 337.75 L-154.55 337.25 Q-155.05 335.75 -156.05 334.25 L-155.05 330.75 Q-153.55 330.25 -152.05 329.25" fill="#424242" fill-rule="evenodd" stroke="none"/>
    <path d="M-132.05 250.75 L-128.05 251.75 -126.05 255.25 Q-126.05 255.75 -126.55 256.25 L-124.05 256.75 Q-124.05 257.75 -124.55 258.75 L-127.05 258.25 Q-127.05 258.75 -127.55 259.25 -129.05 260.75 -131.05 261.75 -133.05 261.25 -135.05 260.25 L-137.05 256.75 Q-136.55 256.25 -136.55 255.75 L-138.55 255.25 Q-138.05 254.25 -138.05 253.25 -137.05 253.75 -136.05 253.75 L-136.05 252.75 -132.05 250.75" fill="#424242" fill-rule="evenodd" stroke="none"/>
    <path d="M-131.05 238.25 Q-130.55 238.75 -130.55 239.25 L-128.55 238.25 -127.55 240.25 -130.05 241.25 Q-129.55 241.75 -129.55 242.25 -130.05 244.25 -131.05 246.25 -133.05 247.25 -135.05 247.75 L-138.55 246.25 Q-138.55 245.75 -139.05 245.25 -139.55 245.75 -140.55 245.75 L-141.55 243.75 Q-140.55 243.75 -140.05 243.25 -140.05 242.75 -140.55 242.25 -139.55 240.25 -139.05 238.25 -137.05 237.75 -135.05 236.75 -133.05 237.75 -131.05 238.25" fill="#424242" fill-rule="evenodd" stroke="none"/>
    <path d="M-129.55 199.25 Q-129.05 199.75 -129.05 200.25 L-131.05 204.25 Q-132.55 205.25 -134.55 205.75 -136.55 205.25 -138.55 204.25 -138.55 203.75 -139.05 203.25 -139.55 203.75 -140.55 203.75 L-141.55 201.75 Q-140.55 201.75 -140.05 201.25 L-140.05 200.25 Q-139.05 198.25 -138.55 196.25 -136.55 195.75 -135.05 194.75 -133.05 195.75 -131.05 196.25 -130.55 196.75 -130.55 197.25 L-128.55 196.25 -127.55 198.25 -129.55 199.25" fill="#424242" fill-rule="evenodd" stroke="none"/>
    <path d="M-139.55 187.25 Q-138.55 185.25 -138.05 183.25 -137.55 183.25 -137.05 182.75 -137.05 182.25 -137.55 181.25 L-135.55 180.25 Q-135.05 181.25 -135.05 182.25 -134.55 182.25 -134.05 181.75 -132.05 182.75 -130.05 183.25 -129.05 185.25 -128.55 186.75 -129.05 188.75 -130.05 190.75 -130.05 191.25 -130.55 191.25 L-129.55 193.25 -131.55 194.25 -132.55 192.25 Q-133.05 192.75 -133.55 192.75 -135.55 192.25 -137.55 191.25 L-139.55 187.25" fill="#424242" fill-rule="evenodd" stroke="none"/>
    <path d="M-140.05 170.25 Q-139.55 170.25 -139.05 169.75 -139.05 169.25 -139.55 168.25 L-137.55 167.25 Q-137.05 168.25 -137.05 169.25 -136.55 169.25 -136.05 168.75 -134.05 169.75 -132.05 170.25 -131.05 172.25 -130.55 173.75 -131.05 175.75 -132.05 177.75 -132.05 178.25 -132.55 178.25 L-131.55 180.25 -133.55 181.25 -134.55 179.25 Q-135.05 179.75 -135.55 179.75 -137.55 179.25 -139.55 178.25 L-141.55 174.25 Q-140.55 172.25 -140.05 170.25" fill="#424242" fill-rule="evenodd" stroke="none"/>
    <path d="M-111.05 140.75 Q-110.05 141.25 -109.05 141.25 L-109.05 142.75 -108.05 142.75 -105.55 146.25 Q-105.55 148.75 -106.05 150.75 -107.55 152.25 -109.55 153.25 -110.05 153.25 -110.55 152.75 -110.55 154.25 -111.05 155.25 L-113.05 155.25 Q-112.55 154.25 -112.55 152.75 -113.05 152.75 -113.55 152.25 L-116.55 148.75 -115.55 144.75 Q-113.55 143.75 -112.05 142.25 -111.55 142.75 -111.05 142.75 L-111.05 140.75" fill="#424242" fill-rule="evenodd" stroke="none"/>
    <path d="M17.95 19.75 L18.45 20.25 Q19.45 19.25 19.95 18.25 L21.95 19.25 Q21.45 20.25 20.45 21.25 20.95 21.75 21.45 21.75 22.45 23.75 22.95 25.75 L20.95 29.75 16.95 30.75 Q16.45 30.75 15.95 30.25 15.95 31.25 15.45 31.75 L13.45 30.75 Q13.95 30.25 13.95 29.25 L13.45 28.75 Q12.95 26.75 11.95 24.75 L13.95 21.25 17.95 19.75" fill="#424242" fill-rule="evenodd" stroke="none"/>
    <path d="M26.45 -33.25 L25.45 -31.25 Q24.45 -31.25 23.45 -31.75 23.45 -31.25 22.95 -30.75 L18.95 -28.75 14.95 -29.75 12.95 -33.75 Q13.45 -34.25 13.45 -34.75 12.95 -34.75 11.95 -35.25 12.45 -36.25 12.45 -37.25 13.45 -36.75 13.95 -36.75 14.45 -37.25 14.45 -37.75 L17.95 -39.75 Q19.95 -38.75 21.95 -38.25 L23.95 -34.75 23.95 -33.75 Q25.45 -33.25 26.45 -33.25" fill="#424242" fill-rule="evenodd" stroke="none"/>
    <path d="M20.45 -48.75 Q20.95 -48.25 20.95 -47.75 20.45 -45.75 19.45 -43.75 17.45 -42.75 15.45 -42.25 13.45 -42.75 11.45 -43.75 11.45 -44.25 10.95 -44.75 L9.45 -43.75 8.45 -45.75 9.95 -46.75 9.95 -47.75 10.95 -51.25 14.95 -53.25 Q16.95 -52.25 18.95 -51.75 19.45 -51.25 19.45 -50.75 L21.45 -51.75 Q21.95 -50.75 22.45 -50.25 L20.45 -48.75" fill="#424242" fill-rule="evenodd" stroke="none"/>
    <path d="M11.95 -60.25 L12.95 -64.25 Q13.45 -64.25 13.95 -64.75 L13.45 -66.25 15.45 -67.25 15.95 -65.75 Q16.45 -65.75 16.95 -66.25 18.95 -65.25 20.95 -64.75 L22.95 -60.75 Q22.45 -58.75 21.45 -56.75 L20.45 -56.75 21.45 -54.25 19.95 -53.25 18.45 -55.75 Q17.95 -55.25 17.45 -55.25 L13.45 -56.25 Q12.95 -58.25 11.95 -60.25" fill="#424242" fill-rule="evenodd" stroke="none"/>
    <path d="M-127.05 215.75 Q-127.05 216.25 -127.55 216.75 -129.05 218.25 -131.05 219.25 L-135.05 218.25 -137.55 214.75 Q-137.05 214.25 -137.05 213.75 L-139.05 213.75 Q-138.55 212.75 -138.55 211.75 L-136.55 211.75 -136.55 210.75 Q-134.55 209.75 -133.05 208.25 L-129.05 209.25 -126.55 212.75 -126.55 213.75 -124.55 214.25 -124.55 216.25 -127.05 215.75" fill="#424242" fill-rule="evenodd" stroke="none"/>
    <path d="M-191.05 175.25 L-191.05 172.75 -184.55 172.75 -184.55 197.25 Q-182.55 196.75 -180.55 195.75 L-177.05 197.25 Q-176.55 197.75 -176.55 198.25 L-174.05 197.25 Q-173.55 198.25 -173.55 199.25 L-175.55 200.25 Q-175.05 200.75 -175.05 201.25 -175.55 203.25 -176.55 205.25 -178.55 206.25 -180.55 206.75 -182.55 206.25 -184.55 205.25 L-184.55 226.75 -191.05 226.75 -191.05 225.25 -194.55 225.25 -194.55 204.75 -200.05 204.75 -200.05 190.25 -194.55 190.25 -194.55 175.25 -191.05 175.25" fill="#424242" fill-rule="evenodd" stroke="none"/>
    <path d="M-174.55 182.75 Q-173.55 184.75 -173.05 186.25 L-174.05 190.25 Q-174.55 190.75 -175.05 190.75 L-174.05 193.25 -175.55 194.25 Q-176.05 193.25 -177.05 191.75 -177.55 192.25 -178.05 192.25 L-182.05 191.25 -184.05 187.25 Q-183.05 185.25 -182.55 183.25 -182.05 183.25 -181.55 182.75 L-182.55 181.25 -180.55 180.25 -179.55 181.75 Q-179.05 181.75 -178.55 181.25 -176.55 182.25 -174.55 182.75" fill="#424242" fill-rule="evenodd" stroke="none"/>
    <path d="M-171.55 213.75 L-171.55 214.75 -169.55 215.25 -169.55 217.25 -172.05 216.75 Q-172.05 217.25 -172.55 217.75 -174.05 219.25 -176.05 220.25 L-180.05 219.25 -182.55 215.75 Q-182.05 215.25 -182.05 214.75 -183.05 214.75 -184.05 214.25 -183.55 213.25 -183.55 212.25 L-181.55 212.75 -181.55 211.75 Q-179.55 210.75 -178.05 209.25 L-174.05 210.25 -171.55 213.75" fill="#424242" fill-rule="evenodd" stroke="none"/>
    <path d="M-134.05 223.75 L-130.05 224.75 -128.05 228.25 Q-128.05 230.25 -128.55 232.25 -129.05 232.75 -129.55 232.75 L-128.05 235.25 -130.05 236.25 Q-130.55 235.25 -131.55 234.25 -132.05 234.75 -132.55 234.75 L-136.55 233.75 -138.55 230.25 -137.55 226.25 Q-137.05 226.25 -137.05 225.75 L-138.05 224.25 -136.05 222.75 -135.05 224.25 Q-134.55 224.25 -134.05 223.75" fill="#424242" fill-rule="evenodd" stroke="none"/>
    <path d="M-134.55 120.75 L-134.55 124.25 -129.55 124.25 -125.55 128.25 -125.55 139.25 -129.55 143.75 -133.05 143.75 -133.05 146.25 -137.05 146.25 -137.05 143.75 -138.05 143.75 -138.05 139.25 -159.05 139.25 -159.05 146.75 -160.55 146.75 -160.55 149.25 -192.05 149.25 -192.05 146.75 -201.55 146.75 -201.55 121.75 -192.05 121.75 -192.05 118.25 -189.55 118.25 -189.55 113.25 -170.55 113.25 -170.55 118.25 -160.55 118.25 -160.55 120.75 -146.05 120.75 -146.05 115.25 -141.55 115.25 -141.55 120.75 -134.55 120.75" fill="#424242" fill-rule="evenodd" stroke="none"/>
    <path d="M-159.55 41.75 L-164.05 41.75 -164.05 49.25 -169.55 49.25 -169.55 30.25 -172.05 30.25 -172.05 25.25 -169.55 25.25 -169.55 5.75 -122.05 5.75 -122.05 25.25 -119.05 25.25 -119.05 30.25 -122.05 30.25 -122.05 49.75 -128.55 49.75 -128.55 41.75 -132.05 41.75 -132.05 49.25 -139.05 49.25 -139.05 41.75 -152.55 41.75 -152.55 49.25 -159.55 49.25 -159.55 41.75" fill="#424242" fill-rule="evenodd" stroke="none"/>
    <path d="M-146.05 153.25 L-146.05 145.25 -142.05 145.25 -142.05 153.25 -146.05 153.25" fill="#424242" fill-rule="evenodd" stroke="none"/>
    <path d="M122.45 224.25 L122.45 292.25 108.95 292.25 108.95 276.25 64.95 276.25 64.95 234.25 76.95 234.25 76.95 265.75 108.95 265.75 108.95 224.25 122.45 224.25" fill="#424242" fill-rule="evenodd" stroke="none"/>
    <path d="M109.95 225.25 L120.95 225.25 120.95 292.25 109.95 292.25 109.95 275.25 103.95 275.25 103.95 266.75 109.95 266.75 109.95 225.25" fill="#939393" fill-rule="evenodd" stroke="none"/>
    <path d="M76.45 266.75 L103.95 266.75 103.95 275.25 65.45 275.25 65.45 234.25 76.45 234.25 76.45 266.75" fill="#ffffff" fill-rule="evenodd" stroke="none"/>
    <path d="M68.95 -97.25 L64.95 -97.25 64.95 -109.75 68.95 -109.75 68.95 -97.25" fill="#ffffff" fill-rule="evenodd" stroke="none"/>
    <path d="M-270.55 -69.75 L-283.55 -69.75 -283.55 -74.25 -270.55 -74.25 -270.55 -69.75" fill="#ffffff" fill-rule="evenodd" stroke="none"/>
  </g>
</svg>
