<?xml version="1.0" encoding="UTF-8" standalone="no"?>
<svg xmlns:ffdec="https://www.free-decompiler.com/flash" xmlns:xlink="http://www.w3.org/1999/xlink" ffdec:objectType="shape" height="889.5px" width="604.0px" xmlns="http://www.w3.org/2000/svg">
  <g transform="matrix(1.0, 0.0, 0.0, 1.0, 358.15, 209.25)">
    <path d="M133.35 365.75 L134.35 365.75 134.35 346.75 133.35 346.75 133.35 365.75 M134.35 289.25 L133.35 289.25 133.35 331.25 134.35 331.25 134.35 289.25 M134.35 224.25 L133.35 224.25 133.35 273.75 134.35 273.75 134.35 224.25 M-243.15 -136.75 L-244.15 -136.75 -244.15 -110.25 -243.15 -110.25 -243.15 -136.75 M134.35 199.25 L133.35 199.25 133.35 215.25 134.35 215.25 134.35 199.25 M-175.65 -194.25 L-175.65 -195.25 -242.15 -195.25 -244.15 -192.75 -244.15 -190.25 -240.15 -190.25 -240.15 -194.25 -175.65 -194.25 M72.85 -130.25 L69.35 -130.25 69.35 -125.75 71.85 -125.75 71.85 -111.75 73.35 -111.75 73.35 -132.75 72.85 -132.75 72.85 -130.25 M48.35 -191.75 L72.85 -191.75 72.85 -137.75 74.35 -137.75 78.35 -134.75 78.35 106.75 86.35 108.75 93.85 114.75 98.85 123.25 Q99.85 128.25 100.35 132.75 99.35 137.25 97.85 141.75 L91.85 149.75 83.85 154.75 74.35 156.25 65.35 153.75 57.85 147.75 52.85 139.75 51.85 130.25 Q53.35 125.75 54.35 120.75 57.35 116.75 59.85 112.75 63.85 110.75 67.85 108.25 L73.35 107.25 73.35 -95.75 71.85 -95.75 71.85 94.75 69.35 94.75 69.35 103.25 47.85 103.25 47.85 158.25 133.35 158.25 133.35 192.75 134.35 192.75 134.35 80.75 125.85 80.75 125.85 15.25 245.85 15.25 245.85 80.75 168.35 80.75 168.35 192.75 171.85 192.75 171.85 199.25 168.35 199.25 168.35 282.75 171.85 282.75 171.85 289.25 168.35 289.25 168.35 365.75 171.85 365.75 171.85 366.75 190.85 366.75 Q190.85 405.75 190.35 444.75 L171.85 444.75 171.85 445.75 133.35 445.75 133.35 455.25 78.35 455.25 78.35 456.75 69.35 456.75 69.35 455.25 41.85 455.25 86.35 519.75 Q-28.15 600.25 -143.15 680.25 L-200.65 595.75 -173.65 576.75 -182.65 563.25 Q-182.15 563.25 -181.65 562.75 -181.15 563.25 -181.15 563.75 L-168.15 554.75 -238.65 455.25 -238.65 454.75 -254.15 454.75 -254.15 396.75 -299.15 396.75 -299.15 175.75 -329.15 175.75 -329.15 396.25 -345.65 396.25 -345.65 342.25 -357.65 342.25 -357.65 326.75 -345.65 326.75 -345.65 161.75 -358.15 161.75 -358.15 41.75 -299.65 41.75 -299.65 -75.75 -285.65 -75.75 -285.65 -94.75 -255.15 -94.75 -255.15 -110.25 -247.65 -110.25 -247.65 -136.75 -253.15 -136.75 -253.15 -190.25 -247.65 -190.25 -247.65 -194.25 -246.65 -194.25 -243.65 -199.25 -242.65 -198.25 -242.65 -198.75 -175.65 -198.75 -175.65 -209.25 -127.15 -209.25 -127.15 -200.75 -118.65 -200.75 -118.65 -209.25 -70.65 -209.25 -70.65 -200.75 -6.65 -200.75 Q-2.65 -199.25 0.85 -198.25 L15.35 -198.75 15.35 -194.25 47.85 -194.25 48.35 -191.75" fill="#424242" fill-rule="evenodd" stroke="none"/>
    <path d="M-340.15 -1.75 L-340.15 -2.25 -332.15 -7.25 -322.65 -8.25 -313.65 -6.25 -307.65 -1.75 -303.15 -1.75 -300.65 0.75 Q-300.65 1.25 -301.15 1.25 L-301.15 7.75 Q-300.15 12.75 -299.65 17.25 -300.15 19.75 -301.15 22.25 L-301.15 30.75 -300.15 31.75 Q-301.15 33.25 -302.65 34.25 L-303.65 33.25 -307.15 33.25 -308.15 34.75 -316.15 39.75 -325.65 40.75 -334.65 38.75 -341.15 33.25 -344.65 33.25 -345.65 34.25 -347.65 31.25 -348.15 31.25 -348.15 1.25 -346.15 -1.75 -340.15 -1.75" fill="#424242" fill-rule="evenodd" stroke="none"/>
    <path d="M-282.65 -91.25 L-267.65 -91.25 -267.65 62.75 -282.65 62.75 -282.65 -91.25" fill="#6f6f6f" fill-rule="evenodd" stroke="none"/>
    <path d="M-343.65 160.75 L-270.15 160.75 -270.15 174.25 -330.65 174.25 -330.65 394.25 -343.65 394.25 -343.65 340.75 -356.15 340.75 -356.15 327.75 -343.65 327.75 -343.65 160.75" fill="#6f6f6f" fill-rule="evenodd" stroke="none"/>
    <path d="M-186.15 419.25 L-186.15 421.25 -147.15 421.25 -147.15 419.25 -186.15 419.25 M-186.15 439.75 L-186.15 445.25 -150.65 445.25 -150.65 439.75 -186.15 439.75 M-147.15 400.25 L-147.15 398.75 -186.15 398.75 -186.15 400.25 -147.15 400.25 M-198.15 449.25 L-198.15 445.25 -188.65 445.25 -188.65 439.75 -196.65 439.75 -196.65 421.25 -188.65 421.25 -188.65 419.25 -205.65 419.25 -205.65 400.25 -188.65 400.25 -188.65 398.75 -197.15 398.75 -197.15 395.75 -147.15 395.75 -147.15 393.25 -124.65 393.25 -124.65 449.75 -150.65 449.75 -150.65 449.25 -198.15 449.25" fill="#424242" fill-rule="evenodd" stroke="none"/>
    <path d="M-196.65 438.75 L-196.65 422.25 Q-171.15 422.75 -145.65 422.75 L-145.65 418.25 -205.65 418.25 -205.65 401.75 -145.65 401.75 -145.65 394.75 -125.65 394.75 -125.65 449.25 -145.65 449.25 -145.65 438.75 -196.65 438.75" fill="#ffffff" fill-rule="evenodd" stroke="none"/>
    <path d="M-292.65 157.25 L-292.65 85.75 -288.65 85.75 -288.65 122.25 -274.65 122.25 -274.65 85.75 -245.65 85.75 -245.65 157.25 -269.65 157.25 -269.65 159.25 -282.65 159.25 -282.65 157.25 -292.65 157.25" fill="#939393" fill-rule="evenodd" stroke="none"/>
    <path d="M-200.15 442.75 L-204.65 442.75 -204.65 437.25 -200.15 437.25 -200.15 442.75" fill="#424242" fill-rule="evenodd" stroke="none"/>
    <path d="M-228.65 442.25 L-232.65 442.25 -232.65 436.75 -228.65 436.75 -228.65 442.25" fill="#424242" fill-rule="evenodd" stroke="none"/>
    <path d="M-246.15 142.75 L-253.65 142.75 -253.65 109.25 -246.15 109.25 -246.15 142.75" fill="#6f6f6f" fill-rule="evenodd" stroke="none"/>
    <path d="M-250.15 106.75 L-253.15 106.75 -251.15 85.75 -248.15 86.25 -250.15 106.75" fill="#6f6f6f" fill-rule="evenodd" stroke="none"/>
    <path d="M-154.15 108.25 L22.35 108.25 22.35 136.75 -197.15 136.75 -197.15 118.25 -200.15 118.25 -200.15 444.25 -232.65 444.25 -232.65 83.25 -246.65 83.25 -246.65 84.25 -276.65 84.25 -276.65 122.25 -287.15 122.25 -287.15 84.25 -291.15 84.25 -291.15 70.25 -246.65 70.25 -246.65 72.25 -232.65 72.25 -232.65 -186.25 -200.15 -186.25 -200.15 107.75 -189.15 107.75 -189.15 108.25 -166.65 108.25 -166.65 97.25 -154.15 97.25 -154.15 108.25" fill="#939393" fill-rule="evenodd" stroke="none"/>
    <path d="M-269.65 161.25 L-282.65 161.25 -282.65 157.25 -269.65 157.25 -269.65 161.25" fill="#ffffff" fill-rule="evenodd" stroke="none"/>
  </g>
</svg>
