<?xml version="1.0" encoding="UTF-8" standalone="no"?>
<svg xmlns:ffdec="https://www.free-decompiler.com/flash" xmlns:xlink="http://www.w3.org/1999/xlink" ffdec:objectType="shape" height="1379.0px" width="2173.1px" xmlns="http://www.w3.org/2000/svg">
  <g transform="matrix(1.0, 0.0, 0.0, 1.0, 386.5, 487.2)">
    <path d="M347.7 223.2 L348.2 221.7 347.7 221.6 347.7 223.2 M1582.8 -51.7 L1605.5 -28.9 1625.9 -4.0 1643.8 22.7 1659.0 51.1 1671.3 80.7 1680.5 110.7 1777.2 472.1 1783.3 502.8 1786.5 534.7 1786.6 566.8 1783.6 598.8 1777.5 630.4 1768.3 661.3 1756.2 691.2 1741.2 719.9 1723.6 747.0 1703.5 772.4 1681.0 795.8 1656.4 817.1 1629.9 835.9 1601.7 852.3 1572.1 865.9 1541.4 876.8 1509.8 884.8 1477.6 889.8 1445.1 891.8 1412.5 890.8 1380.2 886.8 1348.5 879.8 1317.6 869.9 1287.8 857.1 1259.4 841.6 1232.7 823.4 1207.8 802.9 1185.1 780.0 1164.7 755.1 1146.8 728.4 1131.6 700.1 1119.3 670.5 1109.9 639.8 1097.1 576.0 1017.8 294.8 954.5 294.8 954.5 315.8 942.9 315.8 942.9 317.5 850.3 317.5 850.3 382.0 838.0 382.0 838.0 387.3 630.1 387.3 630.1 382.0 618.1 382.0 618.1 299.4 601.4 295.0 579.4 295.0 579.4 289.3 499.1 268.5 499.2 268.4 426.5 249.5 426.6 248.8 379.2 236.4 356.4 236.4 356.4 230.4 347.7 228.2 347.7 279.4 336.0 279.4 336.0 287.0 128.4 287.0 128.4 279.4 117.0 279.4 117.0 196.1 -40.0 196.1 -41.7 200.0 -54.4 219.5 -70.1 236.6 -88.5 250.9 -108.9 261.9 -130.9 269.5 -153.8 273.3 -177.1 273.3 -200.0 269.5 -222.0 261.9 -242.4 250.9 -260.8 236.6 -276.5 219.5 -289.2 200.0 -298.6 178.7 -304.3 156.2 -306.2 133.0 -304.3 109.9 -298.6 87.4 -289.2 66.1 -276.5 46.6 -260.8 29.5 -242.4 15.2 -222.3 4.4 -223.2 -8.6 -219.2 -29.2 -210.2 -48.3 -196.8 -64.5 -179.8 -76.9 -174.3 -79.1 -180.1 -89.3 -172.7 -99.8 -174.7 -101.2 -172.7 -104.1 -176.7 -107.2 -222.9 -149.5 Q-231.0 -157.2 -238.7 -165.0 -254.0 -180.4 -270.0 -198.0 L-306.1 -237.7 -386.5 -346.1 -186.2 -487.2 -144.2 -430.5 -96.9 -370.6 -71.2 -344.6 -64.6 -358.5 -43.3 -384.2 Q-29.7 -394.0 -16.2 -403.9 L14.9 -416.2 48.0 -420.4 81.2 -416.2 112.3 -403.9 139.4 -384.2 160.7 -358.5 175.0 -328.2 181.2 -295.3 179.1 -261.9 168.8 -230.1 150.9 -201.9 142.0 -193.6 196.6 -169.8 267.3 -147.5 332.9 -131.8 378.7 -124.9 428.2 -120.3 764.1 -120.3 764.1 -83.5 764.5 -83.5 764.5 82.2 859.7 82.2 859.7 100.5 954.5 100.5 954.5 128.5 1011.7 128.5 1013.2 120.7 1022.3 89.8 1034.4 59.9 1049.4 31.3 1067.0 4.1 1087.1 -21.3 1109.6 -44.7 1134.2 -65.9 1160.7 -84.8 1188.9 -101.1 1218.5 -114.8 1249.2 -125.6 1280.8 -133.6 1313.0 -138.7 1345.6 -140.7 1378.1 -139.7 1410.4 -135.7 1442.1 -128.7 1473.0 -118.7 1502.8 -105.9 Q1517.0 -98.1 1531.2 -90.4 L1558.0 -72.3 1582.8 -51.7" fill="#434343" fill-rule="evenodd" stroke="none"/>
    <path d="M714.1 74.9 L425.9 74.9 350.0 67.4 296.0 58.7 217.3 41.0 156.0 22.5 96.9 0.0 Q67.8 -13.0 38.6 -26.1 14.3 -38.5 -10.0 -51.0 L-56.2 -79.5 -97.5 -109.0 -144.5 -145.5 -188.3 -185.6 -203.2 -200.2 -267.5 -269.5 -315.9 -334.7 -197.3 -418.2 -183.9 -400.1 -134.5 -337.5 -77.6 -280.0 -26.0 -234.0 24.4 -200.0 65.0 -176.0 Q92.9 -162.1 120.7 -148.3 L179.0 -123.0 253.9 -99.3 323.4 -82.6 372.7 -75.3 425.9 -70.3 714.1 -70.3 714.1 74.9" fill="#969696" fill-rule="evenodd" stroke="none"/>
    <path d="M595.7 2.7 L595.7 29.7 588.0 29.7 588.0 2.7 595.7 2.7" fill="#434343" fill-rule="evenodd" stroke="none"/>
    <path d="M405.1 27.8 L406.7 0.8 414.3 1.3 412.8 28.3 405.1 27.8" fill="#434343" fill-rule="evenodd" stroke="none"/>
    <path d="M32.2 -81.1 L44.7 -105.0 51.5 -101.5 39.0 -77.5 32.2 -81.1" fill="#434343" fill-rule="evenodd" stroke="none"/>
    <path d="M-116.6 -217.3 L-134.8 -197.3 -140.5 -202.5 -122.3 -222.5 -116.6 -217.3" fill="#434343" fill-rule="evenodd" stroke="none"/>
    <path d="M662.3 36.8 L648.8 36.8 648.8 2.0 662.3 2.0 662.3 36.8" fill="#707070" fill-rule="evenodd" stroke="none"/>
    <path d="M662.3 -51.5 L662.3 -16.7 648.8 -16.7 648.8 -51.5 662.3 -51.5" fill="#707070" fill-rule="evenodd" stroke="none"/>
    <path d="M564.5 36.8 L551.0 36.8 551.0 2.0 564.5 2.0 564.5 36.8" fill="#707070" fill-rule="evenodd" stroke="none"/>
    <path d="M564.5 -51.5 L564.5 -16.7 551.0 -16.7 551.0 -51.5 564.5 -51.5" fill="#707070" fill-rule="evenodd" stroke="none"/>
    <path d="M473.8 36.8 L460.3 36.8 460.3 2.0 473.8 2.0 473.8 36.8" fill="#707070" fill-rule="evenodd" stroke="none"/>
    <path d="M473.8 -51.5 L473.8 -16.7 460.3 -16.7 460.3 -51.5 473.8 -51.5" fill="#707070" fill-rule="evenodd" stroke="none"/>
    <path d="M358.8 29.9 L345.3 28.5 349.1 -6.1 362.6 -4.6 358.8 29.9" fill="#707070" fill-rule="evenodd" stroke="none"/>
    <path d="M364.6 -23.2 L351.2 -24.7 355.0 -59.3 368.4 -57.8 364.6 -23.2" fill="#707070" fill-rule="evenodd" stroke="none"/>
    <path d="M251.8 -20.6 L217.5 -30.0 221.4 -44.0 255.7 -34.6 251.8 -20.6" fill="#707070" fill-rule="evenodd" stroke="none"/>
    <path d="M243.7 -8.6 L217.3 -15.9 219.7 -24.7 246.1 -17.4 243.7 -8.6" fill="#707070" fill-rule="evenodd" stroke="none"/>
    <path d="M211.0 13.9 L191.0 8.1 194.0 -2.3 214.0 3.5 211.0 13.9" fill="#707070" fill-rule="evenodd" stroke="none"/>
    <path d="M217.7 30.3 L215.0 38.8 166.0 23.9 167.8 17.7 175.9 20.0 176.7 17.6 217.7 30.3" fill="#707070" fill-rule="evenodd" stroke="none"/>
    <path d="M253.1 -39.6 L226.6 -46.9 229.0 -55.7 255.5 -48.4 253.1 -39.6" fill="#707070" fill-rule="evenodd" stroke="none"/>
    <path d="M164.6 -62.6 L198.4 -51.5 193.8 -37.7 160.0 -48.8 164.6 -62.6" fill="#707070" fill-rule="evenodd" stroke="none"/>
    <path d="M172.7 -73.9 L199.1 -65.2 196.2 -56.5 169.8 -65.2 172.7 -73.9" fill="#707070" fill-rule="evenodd" stroke="none"/>
    <path d="M161.7 -43.5 L188.1 -34.8 185.2 -26.1 Q172.0 -30.4 158.8 -34.8 L161.7 -43.5" fill="#707070" fill-rule="evenodd" stroke="none"/>
    <path d="M101.4 -78.9 L113.9 -73.8 100.8 -41.6 Q94.6 -44.1 88.3 -46.7 L101.4 -78.9" fill="#707070" fill-rule="evenodd" stroke="none"/>
    <path d="M134.2 -123.3 L121.0 -91.1 108.5 -96.2 121.7 -128.4 134.2 -123.3" fill="#707070" fill-rule="evenodd" stroke="none"/>
    <path d="M3.6 -127.5 L-14.2 -97.6 -25.8 -104.5 -8.0 -134.4 Q-2.2 -130.9 3.6 -127.5" fill="#707070" fill-rule="evenodd" stroke="none"/>
    <path d="M19.3 -180.4 Q25.1 -176.9 30.9 -173.5 L13.1 -143.6 1.5 -150.5 19.3 -180.4" fill="#707070" fill-rule="evenodd" stroke="none"/>
    <path d="M514.3 74.9 L514.3 52.0 578.0 52.0 578.0 74.9 514.3 74.9" fill="#ffffff" fill-rule="evenodd" stroke="none"/>
    <path d="M-216.6 -246.0 L-196.3 -222.6 -174.6 -199.3 -188.3 -185.6 -203.2 -200.2 Q-219.9 -217.0 -233.0 -231.6 L-216.6 -246.0" fill="#ffffff" fill-rule="evenodd" stroke="none"/>
    <path d="M38.6 -26.1 L49.5 -46.0 105.8 -21.8 96.9 0.0 Q67.6 -12.1 38.6 -26.1" fill="#ffffff" fill-rule="evenodd" stroke="none"/>
  </g>
</svg>
