<?xml version="1.0" encoding="UTF-8" standalone="no"?>
<svg xmlns:ffdec="https://www.free-decompiler.com/flash" xmlns:xlink="http://www.w3.org/1999/xlink" ffdec:objectType="shape" height="1379.0px" width="2173.1px" xmlns="http://www.w3.org/2000/svg">
  <g transform="matrix(1.0, 0.0, 0.0, 1.0, 386.5, 487.2)">
    <path d="M347.7 223.2 L348.2 221.7 347.7 221.6 347.7 223.2 M1582.8 -51.7 L1605.5 -28.9 1625.9 -4.0 1643.8 22.7 1659.0 51.1 1671.3 80.7 1680.5 110.7 1777.2 472.1 1783.3 502.8 1786.5 534.7 1786.6 566.8 1783.6 598.8 1777.5 630.4 1768.3 661.3 1756.2 691.2 1741.2 719.9 1723.6 747.0 1703.5 772.4 1681.0 795.8 1656.4 817.1 1629.9 835.9 1601.7 852.3 1572.1 865.9 1541.4 876.8 1509.8 884.8 1477.6 889.8 1445.1 891.8 1412.5 890.8 1380.2 886.8 1348.5 879.8 1317.6 869.9 1287.8 857.1 1259.4 841.6 1232.7 823.4 1207.8 802.9 1185.1 780.0 1164.7 755.1 1146.8 728.4 1131.6 700.1 1119.3 670.5 1109.9 639.8 1097.1 576.0 1017.8 294.8 954.5 294.8 954.5 315.8 942.9 315.8 942.9 317.5 850.3 317.5 850.3 382.0 838.0 382.0 838.0 387.3 630.1 387.3 630.1 382.0 618.1 382.0 618.1 299.4 601.4 295.0 579.4 295.0 579.4 289.3 499.1 268.5 499.2 268.4 426.5 249.5 426.6 248.8 379.2 236.4 356.4 236.4 356.4 230.4 347.7 228.2 347.7 279.4 336.0 279.4 336.0 287.0 128.4 287.0 128.4 279.4 117.0 279.4 117.0 196.1 -40.0 196.1 -41.7 200.0 -54.4 219.5 -70.1 236.6 -88.5 250.9 -108.9 261.9 -130.9 269.5 -153.8 273.3 -177.1 273.3 -200.0 269.5 -222.0 261.9 -242.4 250.9 -260.8 236.6 -276.5 219.5 -289.2 200.0 -298.6 178.7 -304.3 156.2 -306.2 133.0 -304.3 109.9 -298.6 87.4 -289.2 66.1 -276.5 46.6 -260.8 29.5 -242.4 15.2 -222.3 4.4 -223.2 -8.6 -219.2 -29.2 -210.2 -48.3 -196.8 -64.5 -179.8 -76.9 -174.3 -79.1 -180.1 -89.3 -172.7 -99.8 -174.7 -101.2 -172.7 -104.1 -176.7 -107.2 -222.9 -149.5 Q-231.0 -157.2 -238.7 -165.0 -254.0 -180.4 -270.0 -198.0 L-306.1 -237.7 -386.5 -346.1 -186.2 -487.2 -144.2 -430.5 -96.9 -370.6 -71.2 -344.6 -64.6 -358.5 -43.3 -384.2 Q-29.7 -394.0 -16.2 -403.9 L14.9 -416.2 48.0 -420.4 81.2 -416.2 112.3 -403.9 139.4 -384.2 160.7 -358.5 175.0 -328.2 181.2 -295.3 179.1 -261.9 168.8 -230.1 150.9 -201.9 142.0 -193.6 196.6 -169.8 267.3 -147.5 332.9 -131.8 378.7 -124.9 428.2 -120.3 764.1 -120.3 764.1 -83.5 764.5 -83.5 764.5 82.2 859.7 82.2 859.7 100.5 954.5 100.5 954.5 128.5 1011.7 128.5 1013.2 120.7 1022.3 89.8 1034.4 59.9 1049.4 31.3 1067.0 4.1 1087.1 -21.3 1109.6 -44.7 1134.2 -65.9 1160.7 -84.8 1188.9 -101.1 1218.5 -114.8 1249.2 -125.6 1280.8 -133.6 1313.0 -138.7 1345.6 -140.7 1378.1 -139.7 1410.4 -135.7 1442.1 -128.7 1473.0 -118.7 1502.8 -105.9 Q1517.0 -98.1 1531.2 -90.4 L1558.0 -72.3 1582.8 -51.7" fill="#434343" fill-rule="evenodd" stroke="none"/>
    <path d="M1424.3 170.2 L1416.1 158.3 1405.9 148.0 1394.1 139.7 1381.1 133.5 1367.1 129.7 1352.7 128.4 1338.3 129.5 1324.3 133.2 1311.2 139.3 1299.3 147.5 1289.1 157.7 1280.7 169.5 1274.5 182.5 1270.7 196.5 1269.4 210.9 1270.6 225.3 1363.3 568.6 1369.3 581.7 1377.6 593.6 1387.8 603.8 1399.5 612.2 1412.6 618.4 1426.6 622.2 1441.0 623.5 1455.4 622.3 1469.3 618.6 1482.5 612.6 1494.4 604.4 1504.6 594.2 1513.0 582.4 1519.2 569.3 1523.0 555.4 1524.3 541.0 1523.1 526.6 1430.4 183.3 1424.3 170.2 M1409.3 113.7 L1425.4 125.0 1439.3 139.0 1450.5 155.2 1458.7 173.1 1471.5 220.7 1632.7 177.1 1642.1 205.6 1479.3 249.7 1530.9 440.1 1693.7 396.0 1702.0 424.0 1538.7 469.0 1552.8 521.5 1554.4 541.1 1552.6 560.8 1547.4 579.8 1539.0 597.6 1527.6 613.7 1513.6 627.5 1497.4 638.8 1479.5 647.0 1460.4 652.0 1440.8 653.6 1421.2 651.8 1402.2 646.6 1384.4 638.2 1368.3 626.8 1354.4 612.8 1343.2 596.6 1335.0 578.7 1321.4 528.0 1155.0 573.0 1147.0 545.0 1313.5 499.1 1261.9 308.6 1098.9 352.7 1090.9 323.8 1254.1 279.6 1240.9 230.3 1239.3 210.7 1241.1 191.1 1246.3 172.1 1254.7 154.3 1266.1 138.2 1280.1 124.3 1296.3 113.1 1314.2 104.9 1333.2 99.9 1352.9 98.2 1372.5 100.1 1391.5 105.2 1409.3 113.7" fill="#969696" fill-rule="evenodd" stroke="none"/>
  </g>
</svg>
