<?xml version="1.0" encoding="UTF-8" standalone="no"?>
<svg xmlns:ffdec="https://www.free-decompiler.com/flash" xmlns:xlink="http://www.w3.org/1999/xlink" ffdec:objectType="shape" height="1661.1px" width="703.15px" xmlns="http://www.w3.org/2000/svg">
  <g transform="matrix(1.0, 0.0, 0.0, 1.0, 299.35, 741.75)">
    <path d="M297.5 344.9 L298.05 345.05 299.9 352.05 299.65 352.5 297.1 353.2 296.45 352.7 296.1 351.25 295.85 351.3 297.1 356.0 297.35 355.9 296.95 354.45 297.25 353.75 299.7 353.1 300.25 353.3 302.1 360.3 301.85 360.7 299.3 361.4 298.65 360.9 298.3 359.45 298.05 359.5 299.6 365.25 299.8 365.2 299.45 363.75 299.75 363.0 302.15 362.35 302.75 362.55 304.6 369.55 304.35 370.0 301.8 370.65 301.15 370.2 300.75 368.75 300.55 368.8 301.8 373.45 302.0 373.4 301.65 371.95 301.95 371.25 304.35 370.6 304.95 370.75 306.8 377.75 306.55 378.2 304.0 378.9 303.35 378.4 302.95 376.95 302.75 377.0 314.2 419.75 314.4 419.7 314.05 418.25 314.35 417.55 316.75 416.85 317.35 417.05 319.2 424.05 318.95 424.5 316.4 425.2 315.75 424.7 315.35 423.25 315.15 423.3 316.4 427.95 316.6 427.9 316.25 426.45 316.55 425.75 318.95 425.1 319.55 425.25 321.4 432.25 321.15 432.7 318.6 433.4 317.95 432.9 317.55 431.45 317.35 431.5 319.3 438.85 319.55 438.8 319.15 437.35 319.45 436.65 321.9 436.0 322.45 436.15 324.35 443.2 324.05 443.6 321.5 444.3 320.9 443.8 320.5 442.35 320.25 442.4 321.5 447.1 321.75 447.05 321.35 445.6 321.65 444.85 324.1 444.2 324.65 444.4 326.55 451.4 326.25 451.8 323.7 452.5 323.1 452.0 322.7 450.55 322.45 450.6 368.95 624.15 369.2 624.05 368.8 622.6 369.1 621.9 371.55 621.25 372.1 621.4 373.95 628.45 373.7 628.85 371.15 629.55 370.5 629.05 370.15 627.6 369.9 627.65 371.15 632.35 371.4 632.3 371.0 630.85 371.3 630.1 373.75 629.45 374.3 629.65 376.15 636.65 375.9 637.05 373.35 637.75 372.7 637.25 372.35 635.8 372.1 635.85 373.7 641.8 373.9 641.75 373.55 640.3 373.85 639.6 376.25 638.95 376.85 639.1 378.7 646.1 378.45 646.55 375.9 647.25 375.25 646.75 374.85 645.3 374.65 645.35 375.9 650.05 376.1 649.95 375.75 648.5 376.05 647.8 378.45 647.15 379.05 647.3 380.9 654.35 380.65 654.75 378.1 655.45 377.45 654.95 377.05 653.5 376.85 653.55 378.4 659.3 378.6 659.25 378.2 657.8 378.5 657.05 380.95 656.4 381.5 656.6 383.4 663.6 383.1 664.05 380.55 664.7 379.95 664.25 379.55 662.8 379.35 662.85 380.6 667.5 380.8 667.45 380.4 666.0 380.7 665.3 383.15 664.65 383.7 664.8 385.6 671.8 385.3 672.25 382.75 672.95 382.15 672.45 381.75 671.0 381.55 671.05 387.65 693.9 387.9 693.85 387.5 692.4 387.8 691.7 390.25 691.05 390.8 691.2 392.65 698.25 392.4 698.65 389.85 699.35 389.2 698.85 388.85 697.4 388.6 697.45 389.85 702.15 390.1 702.05 389.7 700.65 390.0 699.9 392.45 699.25 393.0 699.45 394.85 706.45 394.6 706.85 392.05 707.55 391.4 707.05 391.05 705.6 390.8 705.65 392.4 711.65 392.65 711.6 392.25 710.15 392.55 709.45 395.0 708.8 395.55 708.95 397.45 715.95 397.15 716.4 394.6 717.1 393.95 716.6 393.6 715.15 393.35 715.2 394.6 719.9 394.85 719.8 394.45 718.35 394.75 717.65 397.2 717.0 397.75 717.2 399.65 724.2 399.35 724.6 396.8 725.3 396.15 724.8 395.8 723.35 395.55 723.4 403.8 754.2 367.0 771.45 368.15 775.75 368.6 793.55 369.65 797.5 370.1 797.35 370.5 797.1 372.0 796.7 372.55 796.9 374.45 803.9 374.15 804.35 372.55 804.75 372.05 804.75 371.6 804.85 372.15 806.75 372.6 806.65 373.0 806.4 374.55 806.0 375.1 806.2 377.0 813.2 376.6 813.75 375.1 814.15 374.6 814.15 374.15 814.25 375.05 817.6 359.05 821.9 362.9 836.3 362.95 837.2 362.6 838.0 361.8 838.75 342.85 843.9 344.25 849.15 343.1 849.45 341.7 844.2 338.0 845.2 343.4 856.65 229.55 909.3 225.3 900.2 153.7 919.35 143.2 903.4 138.0 904.8 134.6 903.9 131.45 892.3 128.5 893.1 36.6 884.75 -25.4 653.6 -45.1 633.85 -51.2 611.2 -68.75 613.85 -68.7 614.6 -69.05 615.6 -69.55 616.6 -70.5 617.3 -71.1 617.55 -84.4 621.1 -84.8 621.1 -85.55 621.0 -86.7 620.4 -87.5 619.2 -87.9 618.1 -91.25 605.3 -91.15 603.85 -90.45 602.75 -89.65 602.15 -76.35 598.55 -75.55 598.45 -74.4 598.55 -72.65 599.9 -72.3 600.55 -55.8 594.25 -61.5 573.0 -61.8 573.1 -61.4 574.55 -61.7 575.25 -64.25 575.95 -64.7 575.7 -66.6 568.7 -66.2 568.25 -63.75 567.6 -63.15 568.1 -62.75 569.55 -62.45 569.45 -63.7 564.8 -64.0 564.85 -63.6 566.3 -63.9 567.05 -66.45 567.75 -66.9 567.5 -68.8 560.5 -68.4 560.05 -65.95 559.4 -65.35 559.9 -64.95 561.35 -64.65 561.25 -66.35 554.95 -66.65 555.05 -66.25 556.5 -66.55 557.25 -69.1 557.9 -69.55 557.7 -71.4 550.7 -71.0 550.25 -68.6 549.6 -67.95 550.05 -67.6 551.5 -67.25 551.45 -68.55 546.75 -68.85 546.85 -68.45 548.3 -68.75 549.05 -71.3 549.7 -71.75 549.5 -73.6 542.5 -73.2 542.05 -70.8 541.4 -70.15 541.85 -69.75 543.3 -69.45 543.25 -71.35 536.2 -71.65 536.3 -71.25 537.75 -71.55 538.45 -74.1 539.15 -74.55 538.9 -76.45 531.9 -76.05 531.45 -73.6 530.8 -73.0 531.3 -72.6 532.75 -72.3 532.65 -73.55 528.0 -73.85 528.05 -73.45 529.5 -73.75 530.25 -76.3 530.95 -76.75 530.7 -78.65 523.7 -78.25 523.25 -75.8 522.6 -75.2 523.1 -74.8 524.55 -74.5 524.45 -85.4 483.65 -85.75 483.75 -85.35 485.2 -85.65 485.95 -88.2 486.65 -88.65 486.4 -90.55 479.4 -90.15 478.95 -87.7 478.3 -87.05 478.75 -86.7 480.2 -86.35 480.15 -87.6 475.45 -87.95 475.55 -87.55 477.0 -87.85 477.75 -90.4 478.4 -90.85 478.2 -92.75 471.2 -92.35 470.75 -89.9 470.1 -89.25 470.55 -88.9 472.0 -88.55 471.95 -90.25 465.65 -90.55 465.75 -90.2 467.15 -90.45 467.9 -93.05 468.6 -93.5 468.35 -95.35 461.35 -94.95 460.9 -92.5 460.25 -91.9 460.75 -91.5 462.2 -91.2 462.1 -92.45 457.45 -92.75 457.5 -92.4 458.95 -92.65 459.7 -95.25 460.4 -95.7 460.15 -97.55 453.15 -97.15 452.7 -94.7 452.05 -94.1 452.55 -93.7 454.0 -93.4 453.9 -95.25 446.85 -95.6 446.95 -95.2 448.4 -95.5 449.15 -98.05 449.8 -98.5 449.6 -100.4 442.6 -100.0 442.15 -97.55 441.5 -96.95 441.95 -96.55 443.4 -96.2 443.35 -97.45 438.65 -97.8 438.75 -97.4 440.2 -97.7 440.95 -100.25 441.6 -100.7 441.4 -102.6 434.35 -102.2 433.95 -99.75 433.3 -99.15 433.75 -98.75 435.2 -98.4 435.1 -112.2 383.7 -112.5 383.8 -112.15 385.25 -112.45 385.95 -115.0 386.65 -115.45 386.4 -117.3 379.4 -116.9 378.95 -114.5 378.3 -113.85 378.8 -113.45 380.25 -113.15 380.15 -114.4 375.5 -114.7 375.55 -114.35 377.0 -114.65 377.75 -117.2 378.45 -117.65 378.2 -119.5 371.2 -119.1 370.75 -116.7 370.1 -116.05 370.6 -115.65 372.05 -115.35 371.95 -117.0 365.65 -117.35 365.75 -116.95 367.2 -117.25 367.95 -119.8 368.6 -120.25 368.4 -122.15 361.4 -121.75 360.95 -119.3 360.3 -118.7 360.75 -118.3 362.2 -117.95 362.15 -119.2 357.45 -119.55 357.55 -119.15 359.0 -119.45 359.75 -122.0 360.4 -122.45 360.2 -124.35 353.15 -123.95 352.75 -121.5 352.1 -120.9 352.55 -120.5 354.0 -120.15 353.9 -122.1 346.65 -122.45 346.75 -122.05 348.2 -122.35 348.9 -124.9 349.6 -125.35 349.35 -127.25 342.35 -126.85 341.9 -124.4 341.25 -123.8 341.75 -123.4 343.2 -123.05 343.1 -124.3 338.45 -124.65 338.5 -124.25 339.95 -124.55 340.7 -127.1 341.4 -127.55 341.15 -129.45 334.15 -129.05 333.7 -126.6 333.05 -126.0 333.55 -125.6 335.0 -125.25 334.9 -132.15 309.1 -132.5 309.2 -132.1 310.65 -132.4 311.4 -134.95 312.05 -135.4 311.85 -137.3 304.85 -136.9 304.4 -134.45 303.75 -133.85 304.2 -133.45 305.65 -133.1 305.55 -134.35 300.9 -134.7 301.0 -134.3 302.45 -134.6 303.15 -137.15 303.85 -137.6 303.6 -139.5 296.6 -139.1 296.15 -136.65 295.5 -136.05 296.0 -135.65 297.45 -135.3 297.35 -137.25 290.1 -137.6 290.2 -137.2 291.65 -137.5 292.35 -140.05 293.05 -140.5 292.8 -142.4 285.8 -142.0 285.35 -139.55 284.7 -138.95 285.2 -138.55 286.65 -138.2 286.55 -139.45 281.85 -139.8 281.95 -139.4 283.4 -139.7 284.15 -142.25 284.85 -142.7 284.6 -144.6 277.6 -144.2 277.15 -141.75 276.5 -141.15 277.0 -140.75 278.45 -140.4 278.35 -152.4 233.5 -169.95 236.15 -169.9 236.9 -170.25 237.95 -170.75 238.95 -171.7 239.6 -172.3 239.85 -185.55 243.4 -186.0 243.45 -186.75 243.35 -187.9 242.75 -188.7 241.5 -192.45 227.65 -192.35 226.15 -191.65 225.1 -190.85 224.45 -177.55 220.9 -176.75 220.8 -175.6 220.9 -174.6 221.55 -173.85 222.25 -173.5 222.85 -156.95 216.55 -163.55 191.95 -163.9 192.05 -163.5 193.5 -163.8 194.2 -166.35 194.9 -166.8 194.65 -168.7 187.65 -168.3 187.2 -165.85 186.55 -165.25 187.05 -164.85 188.5 -164.5 188.4 -165.75 183.75 -166.1 183.85 -165.7 185.25 -166.0 186.0 -168.55 186.7 -169.0 186.45 -170.9 179.45 -170.5 179.0 -168.05 178.35 -167.45 178.85 -167.05 180.3 -166.7 180.2 -168.25 174.3 -168.65 174.4 -168.25 175.85 -168.55 176.55 -171.1 177.25 -171.55 177.0 -173.4 170.0 -173.0 169.6 -170.6 168.9 -169.95 169.4 -169.55 170.85 -169.2 170.75 -170.45 166.1 -170.85 166.2 -170.45 167.65 -170.75 168.35 -173.3 169.05 Q-173.5 168.95 -173.75 168.8 L-175.6 161.8 -175.2 161.35 -172.8 160.7 -172.15 161.2 -171.75 162.65 -171.4 162.55 -172.95 156.8 -173.3 156.9 -172.95 158.35 -173.2 159.1 -175.8 159.75 -176.25 159.55 -178.1 152.55 -177.7 152.1 -175.25 151.45 -174.65 151.9 -174.25 153.35 -173.9 153.25 -175.15 148.6 -175.5 148.7 -175.15 150.15 -175.4 150.9 -178.0 151.55 -178.45 151.35 -180.3 144.3 -179.9 143.9 -177.45 143.25 -176.85 143.7 -176.45 145.15 -176.1 145.05 -177.9 138.3 -187.15 39.75 -183.35 39.4 -299.35 -210.0 Q-296.75 -211.1 -294.2 -212.25 L-295.8 -215.6 -185.0 -268.0 -253.9 -686.6 -235.95 -691.4 -241.65 -724.25 -233.75 -726.35 -222.1 -695.1 -178.55 -706.8 -184.25 -739.65 -176.4 -741.75 -164.75 -710.5 -146.8 -715.3 -22.85 -384.75 49.75 -367.6 57.6 -338.35 49.4 -330.3 50.4 -326.65 50.75 -326.75 50.35 -328.2 50.65 -328.9 53.1 -329.55 53.65 -329.4 55.55 -322.4 55.3 -321.95 52.7 -321.25 52.1 -321.75 51.7 -323.2 51.35 -323.1 52.9 -317.3 53.25 -317.4 52.85 -318.85 53.15 -319.6 55.6 -320.25 56.15 -320.05 58.05 -313.05 57.8 -312.65 55.2 -311.95 54.6 -312.45 54.2 -313.9 53.85 -313.8 57.05 -301.8 57.8 -301.6 59.4 -307.25 119.1 -290.75 150.4 -173.9 144.65 -172.4 152.1 -144.65 162.25 -147.4 162.85 -145.0 163.1 -145.05 162.7 -146.5 163.0 -147.2 165.45 -147.85 166.0 -147.7 167.9 -140.7 167.6 -140.25 165.05 -139.55 164.45 -140.05 164.05 -141.5 163.8 -141.45 165.05 -136.75 165.3 -136.85 164.9 -138.3 165.2 -139.0 167.65 -139.65 168.2 -139.45 170.1 -132.45 169.8 -132.05 167.25 -131.35 166.65 -131.85 166.25 -133.3 166.0 -133.25 166.6 -131.1 184.05 -133.9 184.0 -134.6 184.85 -136.65 185.8 -137.35 199.85 -141.2 200.85 -141.05 202.0 -140.45 202.8 -139.25 203.2 -138.15 206.55 -125.35 206.45 -123.9 205.75 -122.8 205.15 -122.3 204.75 -122.15 191.5 -118.6 190.85 -118.5 189.7 -118.6 187.95 -119.95 187.6 -120.6 171.15 -114.15 171.7 -111.95 171.95 -112.0 171.55 -113.45 171.85 -114.2 174.3 -114.85 174.85 -114.65 176.75 -107.65 176.45 -107.2 173.9 -106.55 173.3 -107.0 172.9 -108.45 172.65 -108.4 173.9 -103.75 174.15 -103.8 173.75 -105.25 174.05 -105.95 176.5 -106.6 177.05 -106.45 178.95 -99.45 178.65 -99.0 176.1 -98.3 175.5 -98.8 175.1 -100.25 174.85 -100.2 216.75 56.15 217.0 56.1 216.6 54.65 216.9 53.95 219.35 53.3 219.9 53.45 221.8 60.45 221.5 60.9 218.95 61.6 218.35 61.1 217.95 59.65 217.7 59.7 218.95 64.4 219.2 64.3 218.8 62.85 219.1 62.15 221.55 61.5 222.1 61.7 224.0 68.7 223.7 69.1 221.15 69.8 220.55 69.3 220.15 67.85 219.9 67.9 221.6 74.25 221.85 74.2 221.45 72.75 221.75 72.0 224.2 71.35 224.75 71.55 226.65 78.55 226.35 78.95 223.8 79.65 223.15 79.15 222.8 77.7 222.55 77.75 223.8 82.45 224.05 82.4 223.65 80.95 223.95 80.2 226.4 79.55 226.95 79.75 228.85 86.75 228.55 87.2 226.0 87.85 225.35 87.35 225.0 85.95 224.75 86.0 226.55 92.65 226.75 92.6 226.4 91.15 226.7 90.4 229.1 89.75 229.7 89.95 231.55 96.95 231.3 97.35 228.75 98.05 228.1 97.55 227.7 96.1 227.5 96.15 228.75 100.85 228.95 100.8 228.6 99.35 228.9 98.6 231.3 97.95 231.9 98.15 233.75 105.15 233.5 105.55 230.95 106.25 230.3 105.75 229.9 104.3 229.7 104.4 246.0 165.3 246.25 165.25 245.85 163.8 246.15 163.05 248.6 162.4 249.15 162.6 251.05 169.6 250.75 170.05 248.2 170.7 247.55 170.25 247.2 168.8 246.95 168.85 248.2 173.5 248.45 173.45 248.05 172.0 248.35 171.3 250.8 170.6 251.35 170.8 253.25 177.8 252.95 178.25 250.4 178.95 249.75 178.45 249.4 177.0 249.15 177.05 250.85 183.35 251.1 183.3 250.7 181.85 251.0 181.15 253.45 180.5 254.0 180.65 255.85 187.65 255.6 188.1 253.05 188.8 252.4 188.3 252.05 186.85 251.8 186.9 253.05 191.6 253.3 191.5 252.9 190.05 253.2 189.35 255.6 188.7 256.2 188.9 258.05 195.9 257.8 196.3 255.25 197.0 254.6 196.5 254.25 195.05 254.0 195.1 255.8 201.75 256.0 201.7 255.6 200.25 255.9 199.55 258.35 198.9 258.9 199.05 260.8 206.05 260.5 206.5 257.95 207.2 257.35 206.7 256.95 205.25 256.75 205.3 258.0 210.0 258.2 209.9 257.8 208.45 258.1 207.75 260.55 207.1 261.1 207.25 263.0 214.3 262.75 214.7 260.15 215.4 259.55 214.9 259.15 213.45 258.95 213.5 260.75 220.3 261.0 220.25 260.6 218.8 260.9 218.1 263.35 217.45 263.9 217.6 265.75 224.6 265.5 225.05 262.95 225.75 262.3 225.25 261.95 223.8 261.7 223.85 262.95 228.55 263.2 228.45 262.8 227.0 263.1 226.3 265.5 225.65 266.1 225.8 267.95 232.85 267.7 233.25 265.15 233.95 264.5 233.45 264.15 232.0 263.9 232.05 294.9 347.75 295.15 347.7 294.75 346.25 295.05 345.55 297.5 344.9" fill="#6f6f6f" fill-rule="evenodd" stroke="none"/>
    <path d="M252.15 344.55 L252.4 345.5 252.95 344.75 252.85 344.35 252.15 344.55 M238.05 292.05 L237.55 292.95 238.7 297.35 239.35 297.2 238.1 292.9 238.2 292.65 238.05 292.05 M239.65 297.65 L238.85 297.9 239.75 301.3 240.3 301.15 240.75 302.8 240.2 302.95 240.3 303.25 240.8 303.1 241.05 304.05 240.55 304.2 241.1 306.3 241.85 306.1 252.0 344.05 252.7 343.85 239.65 297.65 M163.65 297.65 L163.5 297.7 165.15 303.85 165.25 303.65 165.3 303.7 163.65 297.65 M162.95 295.8 L163.1 296.2 163.25 296.15 163.15 295.75 162.95 295.8 M162.55 294.25 L162.75 294.25 162.65 293.8 162.45 293.85 162.55 294.25 M162.1 292.5 L162.15 292.8 162.35 292.75 162.25 292.45 162.1 292.5 M175.7 315.25 L176.3 315.15 174.9 309.9 174.55 309.7 175.9 314.85 175.65 314.9 175.7 315.25 M178.9 326.3 L178.55 326.35 187.8 362.4 188.55 362.2 178.9 326.3 M160.1 284.3 L159.9 284.35 161.8 291.45 162.0 291.4 160.1 284.3 M164.7 254.8 L165.35 254.65 165.3 254.5 164.7 254.7 164.7 254.8 M168.55 252.6 L168.35 252.65 167.85 253.75 166.95 254.05 167.0 254.2 168.85 253.7 168.55 252.6 M163.35 255.05 L163.4 255.15 163.8 255.05 163.75 254.95 163.35 255.05 M166.3 243.7 L166.45 244.2 166.65 244.15 166.75 244.55 166.95 244.5 166.9 244.3 167.0 244.25 166.8 243.55 166.3 243.7 M167.0 245.4 L167.15 245.35 167.05 244.95 166.9 245.0 167.0 245.4 M167.3 245.8 L167.1 245.85 169.2 253.6 169.35 253.55 167.3 245.8 M162.95 229.15 L162.7 229.2 162.85 229.75 162.6 229.8 166.2 243.25 166.7 243.1 162.95 229.15 M161.3 223.1 L160.85 223.25 162.2 228.35 162.45 228.3 162.6 228.9 162.85 228.85 161.3 223.1 M213.5 236.2 L213.05 236.3 214.4 241.35 214.9 241.25 214.4 239.35 214.35 239.4 213.5 236.2 M213.35 235.7 L212.8 233.6 212.35 233.7 212.9 235.8 213.35 235.7 M209.7 225.4 L209.2 225.55 210.9 231.8 211.35 231.7 209.7 225.4 M208.7 218.35 L208.25 218.45 211.95 232.15 212.35 232.0 208.7 218.35 M205.8 212.75 L205.95 213.4 206.1 213.35 207.45 218.3 207.75 218.25 206.25 212.6 205.8 212.75 M207.85 218.55 L207.5 218.65 208.15 221.0 208.0 221.0 208.55 223.1 209.05 222.95 207.85 218.55 M207.1 212.4 L206.7 212.5 208.2 218.1 208.6 218.0 207.1 212.4 M205.65 212.25 L206.15 212.15 205.3 209.0 204.8 209.1 205.65 212.25 M203.95 205.9 L204.4 205.75 203.2 201.25 202.75 201.4 203.95 205.9 M204.35 207.4 L204.75 208.85 205.2 208.75 204.85 207.3 204.35 207.4 M201.95 196.6 L200.75 192.0 200.25 192.1 201.5 196.75 201.95 196.6 M242.75 283.7 L242.75 283.85 238.35 291.55 238.5 292.15 243.55 283.45 242.75 283.7 M241.4 276.35 L240.8 276.55 241.2 276.45 242.0 279.4 241.6 279.55 242.65 283.45 243.25 283.3 241.4 276.35 M241.2 275.55 L240.6 275.75 240.75 276.25 241.35 276.1 241.2 275.55 M240.85 274.4 L240.3 274.55 240.5 275.35 241.1 275.2 240.85 274.4 M240.1 273.95 L240.2 274.2 240.75 274.05 240.7 273.8 240.1 273.95 M239.85 272.95 L240.0 273.6 240.6 273.45 240.45 272.8 239.85 272.95 M239.5 271.65 L239.75 272.6 240.35 272.45 240.1 271.5 239.5 271.65 M239.2 270.6 L239.8 270.4 239.6 269.6 239.45 270.0 239.1 270.1 239.2 270.6 M239.15 268.05 L238.6 268.2 238.7 268.65 239.1 268.5 239.35 268.75 239.15 268.05 M238.45 265.5 L237.9 265.65 238.15 266.65 238.75 266.5 238.45 265.5 M238.1 264.1 L237.8 262.95 237.2 263.1 237.5 264.25 238.1 264.1 M238.4 265.2 L238.15 264.4 237.6 264.55 237.8 265.35 238.4 265.2 M216.35 240.7 L215.4 240.95 214.95 239.2 214.65 239.3 215.15 241.15 216.4 240.85 216.35 240.7 M228.15 241.95 L228.4 241.45 224.4 239.6 228.15 241.95 M151.75 185.6 L152.65 184.6 161.8 178.25 161.9 178.15 161.6 177.45 165.55 175.8 165.7 176.2 165.9 176.15 165.7 175.7 167.75 174.85 167.95 175.3 168.4 175.1 166.8 169.0 174.35 166.9 176.0 173.1 177.2 172.9 187.85 172.65 187.95 171.75 189.6 171.95 189.5 172.85 194.0 173.4 195.35 173.9 200.2 191.85 201.1 191.6 206.55 212.0 206.95 211.9 204.8 203.75 206.1 203.4 209.8 217.25 210.05 217.15 210.4 218.5 210.2 218.55 215.55 238.6 216.25 239.75 222.75 238.05 223.9 237.9 229.0 240.25 229.0 240.2 229.8 240.6 229.8 240.65 230.25 240.85 229.7 242.05 229.2 241.8 228.9 242.4 232.2 244.5 235.8 257.9 238.15 257.25 239.35 261.7 237.0 262.3 237.1 262.75 238.15 262.45 243.8 283.5 238.65 292.65 253.1 343.75 253.2 343.75 253.35 344.2 253.25 344.25 253.35 344.65 253.3 345.25 252.55 346.15 253.1 348.25 252.35 348.45 255.3 359.4 254.75 360.3 246.05 362.65 246.3 363.5 202.6 375.25 202.35 374.35 193.55 376.7 192.65 376.15 189.7 365.25 189.35 365.3 188.65 362.6 187.9 362.8 188.0 363.35 188.9 363.85 189.0 364.25 187.8 363.8 187.6 362.9 187.35 362.95 187.25 362.5 187.5 362.45 173.95 309.7 164.75 304.6 164.9 304.25 159.6 284.45 159.55 284.45 159.45 283.8 159.75 283.75 159.85 284.05 160.0 284.0 159.75 283.1 157.95 283.6 156.75 279.05 158.55 278.55 154.85 264.8 155.5 264.65 157.3 261.45 156.6 261.0 156.65 260.95 156.25 260.65 160.3 254.9 167.15 253.0 167.45 251.6 161.7 230.05 161.5 230.1 161.1 228.65 161.3 228.6 158.15 216.9 159.05 216.65 160.75 222.95 161.25 222.8 156.1 203.55 156.5 203.45 151.75 185.6" fill="#424242" fill-rule="evenodd" stroke="none"/>
    <path d="M228.6 261.45 L226.75 261.9 227.25 263.65 229.05 263.15 233.45 279.5 208.25 286.25 208.0 285.35 208.1 285.5 208.75 285.85 209.45 285.85 210.05 285.5 210.4 284.85 210.4 284.15 210.0 283.55 209.4 283.2 208.65 283.2 208.05 283.6 207.7 284.2 207.7 284.3 207.65 284.05 207.05 284.2 207.65 286.55 189.55 291.4 185.15 274.9 205.6 269.45 205.1 267.7 203.75 268.1 203.85 268.45 184.85 273.5 181.75 261.85 182.7 261.6 182.25 260.0 199.05 255.5 199.5 257.1 200.2 256.95 200.0 256.15 225.35 249.35 228.6 261.45 M224.1 253.6 L224.85 253.55 225.45 253.2 225.8 252.55 225.75 251.85 225.4 251.25 224.75 250.9 224.05 250.9 223.45 251.3 223.1 251.9 223.1 252.65 223.5 253.25 224.1 253.6" fill="#959595" fill-rule="evenodd" stroke="none"/>
    <path d="M222.9 257.6 L222.05 254.35 225.1 253.55 225.95 256.75 222.9 257.6" fill="#6f6f6f" fill-rule="evenodd" stroke="none"/>
    <path d="M226.75 259.3 L226.55 258.5 227.75 258.2 227.95 258.95 226.75 259.3" fill="#6f6f6f" fill-rule="evenodd" stroke="none"/>
    <path d="M226.8 267.3 L226.2 264.6 229.0 264.0 229.6 266.65 226.8 267.3" fill="#6f6f6f" fill-rule="evenodd" stroke="none"/>
    <path d="M215.65 253.45 L215.55 252.95 217.15 252.55 217.25 253.0 215.65 253.45" fill="#6f6f6f" fill-rule="evenodd" stroke="none"/>
    <path d="M213.25 254.1 L213.15 253.6 214.7 253.2 214.85 253.65 213.25 254.1" fill="#6f6f6f" fill-rule="evenodd" stroke="none"/>
    <path d="M211.15 254.65 L211.0 254.2 212.5 253.8 212.6 254.25 211.15 254.65" fill="#6f6f6f" fill-rule="evenodd" stroke="none"/>
    <path d="M209.05 255.2 L208.9 254.75 210.4 254.35 210.55 254.8 209.05 255.2" fill="#6f6f6f" fill-rule="evenodd" stroke="none"/>
    <path d="M228.8 276.0 L226.8 268.45 230.25 267.55 232.25 275.1 228.8 276.0" fill="#6f6f6f" fill-rule="evenodd" stroke="none"/>
    <path d="M227.2 271.35 L226.65 269.3 229.95 268.4 230.5 270.45 227.2 271.35" fill="#6f6f6f" fill-rule="evenodd" stroke="none"/>
    <path d="M228.25 275.2 L227.7 273.2 231.0 272.3 231.55 274.3 228.25 275.2" fill="#6f6f6f" fill-rule="evenodd" stroke="none"/>
    <path d="M232.35 279.75 L231.25 275.6 232.35 275.35 233.45 279.5 232.35 279.75" fill="#6f6f6f" fill-rule="evenodd" stroke="none"/>
    <path d="M225.15 281.7 L224.95 280.9 229.1 279.8 229.3 280.6 225.15 281.7" fill="#6f6f6f" fill-rule="evenodd" stroke="none"/>
    <path d="M222.7 282.2 L222.55 281.7 224.4 281.2 224.5 281.7 222.7 282.2" fill="#6f6f6f" fill-rule="evenodd" stroke="none"/>
    <path d="M213.85 284.75 L213.55 283.7 214.4 283.45 214.7 284.5 213.85 284.75" fill="#6f6f6f" fill-rule="evenodd" stroke="none"/>
    <path d="M214.85 282.55 L215.1 283.4 213.4 283.85 213.15 283.0 214.85 282.55" fill="#6f6f6f" fill-rule="evenodd" stroke="none"/>
    <path d="M213.1 283.0 L213.75 282.4 214.55 282.6 214.8 283.45 214.2 284.1 213.35 283.85 213.1 283.0" fill="#6f6f6f" fill-rule="evenodd" stroke="none"/>
    <path d="M188.05 285.7 L185.45 275.8 202.85 271.15 205.5 281.0 188.05 285.7" fill="#ffffff" fill-rule="evenodd" stroke="none"/>
    <path d="M184.7 273.15 L181.7 262.0 199.9 257.1 202.9 268.25 184.7 273.15" fill="#ffffff" fill-rule="evenodd" stroke="none"/>
    <path d="M255.3 350.15 L256.35 354.2 254.05 354.85 253.0 350.75 255.3 350.15" fill="#ffffff" fill-rule="evenodd" stroke="none"/>
    <path d="M189.0 370.85 L187.9 366.65 190.05 366.1 191.15 370.25 189.0 370.85" fill="#ffffff" fill-rule="evenodd" stroke="none"/>
  </g>
</svg>
