<?xml version="1.0" encoding="UTF-8" standalone="no"?>
<svg xmlns:ffdec="https://www.free-decompiler.com/flash" xmlns:xlink="http://www.w3.org/1999/xlink" ffdec:objectType="shape" height="1399.7px" width="2042.2px" xmlns="http://www.w3.org/2000/svg">
  <g transform="matrix(1.0, 0.0, 0.0, 1.0, 971.25, 705.05)">
    <path d="M464.85 -705.05 L1070.95 -355.15 1070.95 344.7 464.85 694.65 -141.25 344.7 -164.15 344.7 -164.15 522.9 -597.85 522.9 -597.85 344.7 -971.25 344.7 -971.25 -355.15 -141.25 -355.15 464.85 -705.05" fill="#434343" fill-rule="evenodd" stroke="none"/>
    <path d="M-841.7 19.25 L-906.35 19.25 -906.35 -11.5 -841.7 -11.5 -841.7 19.25" fill="#969696" fill-rule="evenodd" stroke="none"/>
    <path d="M-876.85 -62.0 L-33.0 -62.0 -33.0 60.25 -876.85 60.25 -876.85 -62.0" fill="#969696" fill-rule="evenodd" stroke="none"/>
    <path d="M66.3 29.65 L-781.5 29.65 -781.5 -20.65 66.3 -20.65 66.3 29.65" fill="#969696" fill-rule="evenodd" stroke="none"/>
    <path d="M-750.5 -117.65 L-750.5 19.05 -801.5 19.05 -801.5 -117.65 -750.5 -117.65" fill="#969696" fill-rule="evenodd" stroke="none"/>
    <path d="M-648.85 -15.65 L-597.85 -15.65 -597.85 121.05 -648.85 121.05 -648.85 -15.65" fill="#969696" fill-rule="evenodd" stroke="none"/>
    <path d="M-114.85 121.05 L-165.85 121.05 -165.85 -15.65 -114.85 -15.65 -114.85 121.05" fill="#969696" fill-rule="evenodd" stroke="none"/>
    <path d="M-478.75 -99.0 L-478.75 37.7 -505.5 37.7 -505.5 -99.0 -478.75 -99.0" fill="#969696" fill-rule="evenodd" stroke="none"/>
    <path d="M-676.8 -255.65 L-387.7 -255.65 -387.7 -69.0 -676.8 -69.0 -676.8 -255.65" fill="#969696" fill-rule="evenodd" stroke="none"/>
    <path d="M-157.35 -98.65 L-157.35 38.05 -183.5 38.05 -183.5 -98.65 -157.35 -98.65" fill="#969696" fill-rule="evenodd" stroke="none"/>
    <path d="M-65.7 -69.0 L-354.7 -69.0 -354.7 -255.65 -65.7 -255.65 -65.7 -69.0" fill="#969696" fill-rule="evenodd" stroke="none"/>
    <path d="M-638.85 -268.3 L-586.35 -268.3 -586.35 -81.65 -638.85 -81.65 -638.85 -268.3" fill="#969696" fill-rule="evenodd" stroke="none"/>
    <path d="M-425.7 -81.65 L-478.2 -81.65 -478.2 -268.3 -425.7 -268.3 -425.7 -81.65" fill="#969696" fill-rule="evenodd" stroke="none"/>
    <path d="M-316.1 13.9 L-316.1 150.65 -342.85 150.65 -342.85 13.9 -316.1 13.9" fill="#969696" fill-rule="evenodd" stroke="none"/>
    <path d="M-225.0 65.75 L-225.0 452.3 -514.95 452.3 -514.95 65.75 -225.0 65.75" fill="#969696" fill-rule="evenodd" stroke="none"/>
    <path d="M-263.75 278.3 L-263.75 465.0 -316.25 465.0 -316.25 278.3 -263.75 278.3" fill="#969696" fill-rule="evenodd" stroke="none"/>
    <path d="M-424.45 278.3 L-424.45 465.0 -476.95 465.0 -476.95 278.3 -424.45 278.3" fill="#969696" fill-rule="evenodd" stroke="none"/>
    <path d="M-265.35 -81.65 L-317.85 -81.65 -317.85 -268.3 -265.35 -268.3 -265.35 -81.65" fill="#969696" fill-rule="evenodd" stroke="none"/>
    <path d="M-104.7 -81.65 L-157.2 -81.65 -157.2 -268.3 -104.7 -268.3 -104.7 -81.65" fill="#969696" fill-rule="evenodd" stroke="none"/>
    <path d="M185.05 115.7 L182.2 117.75 180.25 120.65 179.5 124.05 180.05 127.5 181.8 130.55 184.55 132.75 187.9 133.8 191.35 133.6 194.55 132.1 197.0 129.6 198.35 126.4 198.45 122.9 197.3 119.6 195.0 116.95 191.9 115.25 188.45 114.85 185.05 115.7 M180.05 -118.85 L179.5 -115.4 180.25 -112.0 182.2 -109.05 185.05 -107.05 188.45 -106.2 191.9 -106.6 195.0 -108.25 197.3 -110.9 198.45 -114.2 198.35 -117.7 197.0 -120.95 194.55 -123.45 191.35 -124.9 187.9 -125.15 184.55 -124.1 181.8 -121.9 180.05 -118.85 M131.7 -174.85 L188.0 -174.85 225.0 -119.0 243.0 -118.5 243.0 127.15 225.0 127.65 188.0 183.65 131.7 183.65 99.05 177.5 67.2 165.45 39.6 147.45 15.3 125.35 -4.7 98.7 -19.5 68.75 -28.6 36.65 -31.5 5.4 -31.7 5.25 -31.6 4.3 -31.7 3.35 -31.5 3.2 -28.6 -27.95 -19.5 -60.1 -4.7 -90.0 15.3 -116.65 39.6 -139.0 67.2 -157.0 99.05 -168.85 131.7 -174.85" fill="#969696" fill-rule="evenodd" stroke="none"/>
    <path d="M813.1 116.9 L810.8 119.55 809.65 122.85 809.75 126.35 811.1 129.55 813.55 132.1 816.7 133.55 820.2 133.75 823.55 132.7 826.3 130.5 828.05 127.5 828.55 124.0 827.8 120.6 825.9 117.7 823.05 115.65 819.65 114.8 816.15 115.25 813.1 116.9 M765.1 -118.5 L783.1 -119.0 820.1 -173.5 876.4 -175.0 909.05 -168.9 940.0 -156.8 968.25 -139.2 992.8 -116.7 1012.8 -90.05 1027.6 -60.15 1036.7 -28.0 1039.6 3.15 1039.75 3.3 1039.75 5.2 1039.6 5.4 1036.7 36.6 1027.6 68.75 1012.8 98.65 992.8 125.3 968.25 147.8 940.0 165.4 909.05 177.45 876.4 183.6 820.1 182.1 783.1 127.6 765.1 127.1 765.1 -118.5 M827.8 -112.0 L828.55 -115.45 828.05 -118.9 826.3 -121.95 823.55 -124.1 820.2 -125.2 816.7 -124.95 813.55 -123.5 811.1 -121.0 809.75 -117.75 809.65 -114.25 810.8 -110.95 813.1 -108.3 816.15 -106.65 819.65 -106.2 823.05 -107.1 825.9 -109.1 827.8 -112.0" fill="#969696" fill-rule="evenodd" stroke="none"/>
    <path d="M756.5 -245.75 L754.75 -248.8 752.05 -251.0 748.7 -252.05 745.2 -251.85 742.0 -250.4 739.6 -247.9 738.2 -244.65 738.1 -241.15 739.25 -237.85 741.5 -235.2 744.6 -233.55 748.1 -233.1 751.5 -233.95 754.35 -235.95 756.25 -238.9 757.05 -242.3 756.5 -245.75 M549.2 -362.0 L548.9 -365.5 547.35 -368.65 544.75 -371.0 541.5 -372.25 538.0 -372.25 534.7 -371.0 532.1 -368.65 530.55 -365.5 530.25 -362.0 531.2 -358.65 533.3 -355.85 536.25 -354.0 539.7 -353.35 543.15 -354.0 546.15 -355.85 548.25 -358.65 549.2 -362.0 M753.15 -494.15 L753.35 -494.25 754.15 -493.7 755.0 -493.3 755.05 -493.05 780.65 -474.95 803.9 -450.95 822.35 -423.15 835.4 -392.5 842.6 -360.0 843.65 -326.7 838.6 -293.85 827.55 -262.55 798.05 -214.6 732.35 -209.85 722.9 -194.55 510.3 -317.6 518.85 -333.45 490.25 -392.75 517.15 -442.2 538.8 -467.4 564.75 -488.15 594.15 -503.8 625.9 -513.75 659.0 -517.7 692.3 -515.55 724.7 -507.3 753.15 -494.15" fill="#969696" fill-rule="evenodd" stroke="none"/>
    <path d="M548.25 368.1 L546.15 365.3 543.15 363.45 539.7 362.8 536.25 363.45 533.3 365.3 531.2 368.1 530.25 371.45 530.55 374.95 532.1 378.1 534.7 380.45 538.0 381.7 541.5 381.7 544.75 380.45 547.35 378.1 548.9 374.95 549.2 371.45 548.25 368.1 M754.75 258.25 L756.5 255.2 757.05 251.75 756.25 248.35 754.35 245.45 751.5 243.4 748.1 242.55 744.6 243.0 741.5 244.65 739.25 247.3 738.1 250.65 738.2 254.15 739.6 257.35 742.0 259.85 745.2 261.3 748.7 261.55 752.05 260.45 754.75 258.25 M722.9 204.0 L732.35 219.35 798.05 224.05 827.55 272.0 838.6 303.35 843.65 336.2 842.6 369.45 835.4 401.95 822.35 432.65 803.9 460.45 780.65 484.4 755.05 502.5 755.0 502.75 754.15 503.15 753.35 503.7 753.15 503.65 724.7 516.8 692.3 525.0 659.0 527.2 625.9 523.2 594.15 513.25 564.75 497.6 538.8 476.85 517.15 451.7 490.25 402.2 518.85 342.9 510.3 327.05 722.9 204.0" fill="#969696" fill-rule="evenodd" stroke="none"/>
    <path d="M191.1 -247.9 L188.7 -250.4 185.5 -251.85 182.0 -252.05 178.65 -251.0 175.95 -248.8 174.2 -245.75 173.65 -242.3 174.45 -238.9 176.35 -235.95 179.25 -233.95 182.6 -233.1 186.1 -233.55 189.2 -235.2 191.45 -237.85 192.6 -241.15 192.5 -244.65 191.1 -247.9 M383.4 -368.65 L381.8 -365.5 381.5 -362.0 382.45 -358.65 384.55 -355.85 387.55 -354.0 391.0 -353.35 394.45 -354.0 397.4 -355.85 399.5 -358.65 400.45 -362.0 400.15 -365.5 398.6 -368.65 396.0 -371.0 392.75 -372.25 389.25 -372.25 385.95 -371.0 383.4 -368.65 M175.65 -493.05 L175.7 -493.3 176.55 -493.7 177.35 -494.25 177.55 -494.15 206.0 -507.3 238.4 -515.55 271.7 -517.7 304.8 -513.75 336.55 -503.8 365.95 -488.15 391.9 -467.4 413.55 -442.2 440.45 -392.75 411.85 -333.45 420.4 -317.6 207.8 -194.55 198.35 -209.85 132.65 -214.6 103.15 -262.55 92.1 -293.85 87.05 -326.7 88.1 -360.0 95.3 -392.5 108.35 -423.15 126.8 -450.95 150.05 -474.95 175.65 -493.05" fill="#969696" fill-rule="evenodd" stroke="none"/>
    <path d="M387.55 363.45 L384.55 365.3 382.45 368.1 381.5 371.45 381.8 374.95 383.4 378.1 385.95 380.45 389.25 381.7 392.75 381.7 396.0 380.45 398.6 378.1 400.15 374.95 400.45 371.45 399.5 368.1 397.4 365.3 394.45 363.45 391.0 362.8 387.55 363.45 M191.1 257.35 L192.5 254.15 192.6 250.65 191.45 247.3 189.2 244.65 186.1 243.0 182.6 242.55 179.25 243.4 176.35 245.45 174.45 248.35 173.65 251.75 174.2 255.2 175.95 258.25 178.65 260.45 182.0 261.55 185.5 261.3 188.7 259.85 191.1 257.35 M198.35 219.35 L207.8 204.0 420.4 327.05 411.85 342.9 440.45 402.2 413.55 451.7 391.9 476.85 365.95 497.6 336.55 513.25 304.8 523.2 271.7 527.2 238.4 525.0 206.0 516.8 177.55 503.65 177.35 503.7 176.55 503.15 175.7 502.75 175.65 502.5 150.05 484.4 126.8 460.45 108.35 432.65 95.3 401.95 88.1 369.45 87.05 336.2 92.1 303.35 103.15 272.0 132.65 224.05 198.35 219.35" fill="#969696" fill-rule="evenodd" stroke="none"/>
    <path d="M-501.35 -175.0 L-437.35 -175.0 -437.35 -144.4 -501.35 -144.4 -501.35 -175.0" fill="#707070" fill-rule="evenodd" stroke="none"/>
    <path d="M-625.35 -212.65 L-554.0 -212.65 -554.0 -182.05 -625.35 -182.05 -625.35 -212.65" fill="#707070" fill-rule="evenodd" stroke="none"/>
    <path d="M-175.35 -189.3 L-104.0 -189.3 -104.0 -158.75 -175.35 -158.75 -175.35 -189.3" fill="#707070" fill-rule="evenodd" stroke="none"/>
    <path d="M-238.7 -115.0 L-310.0 -115.0 -310.0 -176.65 -238.7 -176.65 -238.7 -115.0" fill="#707070" fill-rule="evenodd" stroke="none"/>
    <path d="M-658.0 -215.9 L-658.0 -181.75 -673.6 -181.75 -673.6 -215.9 -658.0 -215.9" fill="#707070" fill-rule="evenodd" stroke="none"/>
    <path d="M-659.75 -122.75 L-675.35 -122.75 -675.35 -156.9 -659.75 -156.9 -659.75 -122.75" fill="#707070" fill-rule="evenodd" stroke="none"/>
    <path d="M-523.5 -241.25 L-573.5 -241.25 -573.5 -250.55 -523.5 -250.55 -523.5 -241.25" fill="#707070" fill-rule="evenodd" stroke="none"/>
    <path d="M-387.7 -241.4 L-387.7 -191.4 -398.45 -191.4 -398.45 -241.4 -387.7 -241.4" fill="#707070" fill-rule="evenodd" stroke="none"/>
    <path d="M-402.45 -188.2 L-389.85 -188.2 -389.85 -164.15 -402.45 -164.15 -402.45 -188.2" fill="#707070" fill-rule="evenodd" stroke="none"/>
    <path d="M-387.7 -126.9 L-387.7 -76.9 -398.45 -76.9 -398.45 -126.9 -387.7 -126.9" fill="#707070" fill-rule="evenodd" stroke="none"/>
    <path d="M-666.2 -121.9 L-666.2 -71.9 -676.8 -71.9 -676.8 -121.9 -666.2 -121.9" fill="#707070" fill-rule="evenodd" stroke="none"/>
    <path d="M-341.7 -223.9 L-341.7 -173.9 -352.3 -173.9 -352.3 -223.9 -341.7 -223.9" fill="#707070" fill-rule="evenodd" stroke="none"/>
    <path d="M-336.25 -237.25 L-336.25 -223.25 -352.3 -223.25 -352.3 -237.25 -336.25 -237.25" fill="#707070" fill-rule="evenodd" stroke="none"/>
    <path d="M-168.4 -251.75 L-168.4 -238.85 -194.05 -238.85 -194.05 -251.75 -168.4 -251.75" fill="#707070" fill-rule="evenodd" stroke="none"/>
    <path d="M-175.25 -241.75 L-244.5 -241.75 -244.5 -251.75 -175.25 -251.75 -175.25 -241.75" fill="#707070" fill-rule="evenodd" stroke="none"/>
    <path d="M-338.75 -109.75 L-338.75 -72.4 -351.3 -72.4 -351.3 -109.75 -338.75 -109.75" fill="#707070" fill-rule="evenodd" stroke="none"/>
    <path d="M-625.35 -135.3 L-554.0 -135.3 -554.0 -104.75 -625.35 -104.75 -625.35 -135.3" fill="#707070" fill-rule="evenodd" stroke="none"/>
    <path d="M-674.5 -220.75 L-674.5 -245.75 -661.25 -245.75 -661.25 -220.75 -674.5 -220.75" fill="#707070" fill-rule="evenodd" stroke="none"/>
    <path d="M711.0 -116.35 L724.3 -116.35 724.3 -77.35 729.65 -77.35 729.65 -119.1 765.1 -119.1 765.1 127.7 729.65 127.7 729.65 85.95 724.3 85.95 724.3 124.95 711.0 124.95 711.0 -116.35" fill="#707070" fill-rule="evenodd" stroke="none"/>
    <path d="M491.7 -281.2 L525.45 -261.65 528.15 -266.3 492.0 -287.2 509.8 -317.9 723.4 -194.25 705.65 -163.55 669.5 -184.45 666.85 -179.85 Q683.75 -170.05 700.6 -160.3 L693.9 -148.75 485.05 -269.65 491.7 -281.2" fill="#707070" fill-rule="evenodd" stroke="none"/>
    <path d="M525.45 271.15 L491.7 290.65 485.05 279.15 693.9 158.25 700.6 169.75 Q683.75 179.55 666.85 189.3 L669.5 193.9 705.65 173.0 723.4 203.7 509.8 327.35 492.0 296.65 528.15 275.75 525.45 271.15" fill="#707070" fill-rule="evenodd" stroke="none"/>
    <path d="M405.25 -261.65 L439.0 -281.2 445.65 -269.65 236.8 -148.75 230.1 -160.3 263.85 -179.85 261.2 -184.45 225.05 -163.55 207.3 -194.25 420.9 -317.9 438.7 -287.2 402.55 -266.3 405.25 -261.65" fill="#707070" fill-rule="evenodd" stroke="none"/>
    <path d="M230.1 169.75 L236.8 158.25 445.65 279.15 439.0 290.65 405.25 271.15 402.55 275.75 438.7 296.65 420.9 327.35 207.3 203.7 225.05 173.0 261.2 193.9 263.85 189.3 230.1 169.75" fill="#707070" fill-rule="evenodd" stroke="none"/>
    <path d="M146.2 69.4 L140.0 112.65 121.2 109.95 127.45 66.7 146.2 69.4" fill="#707070" fill-rule="evenodd" stroke="none"/>
    <path d="M53.9 58.7 L90.05 34.25 100.7 49.95 64.5 74.45 53.9 58.7" fill="#707070" fill-rule="evenodd" stroke="none"/>
    <path d="M111.45 -98.35 L129.7 -103.45 141.45 -61.4 123.2 -56.25 111.45 -98.35" fill="#707070" fill-rule="evenodd" stroke="none"/>
    <path d="M100.7 -40.4 L90.05 -24.65 53.9 -49.15 64.5 -64.85 100.7 -40.4" fill="#707070" fill-rule="evenodd" stroke="none"/>
    <path d="M180.0 170.0 L180.0 183.65 133.5 183.65 133.5 170.0 180.0 170.0" fill="#707070" fill-rule="evenodd" stroke="none"/>
    <path d="M73.0 156.35 L67.2 165.45 39.6 147.45 45.15 138.2 73.0 156.35" fill="#707070" fill-rule="evenodd" stroke="none"/>
    <path d="M133.5 1.2 L180.0 1.2 180.0 14.85 133.5 14.85 133.5 1.2" fill="#707070" fill-rule="evenodd" stroke="none"/>
    <path d="M73.0 28.45 L45.15 46.65 39.35 37.75 67.2 19.6 73.0 28.45" fill="#707070" fill-rule="evenodd" stroke="none"/>
    <path d="M133.5 -174.85 L180.0 -174.85 180.0 -161.75 133.5 -161.75 133.5 -174.85" fill="#707070" fill-rule="evenodd" stroke="none"/>
    <path d="M73.0 -148.15 L45.15 -130.0 39.6 -139.0 67.2 -157.0 73.0 -148.15" fill="#707070" fill-rule="evenodd" stroke="none"/>
    <path d="M-479.75 -246.05 L-479.75 -144.4 -510.0 -144.4 -510.0 -246.05 -479.75 -246.05" fill="#707070" fill-rule="evenodd" stroke="none"/>
    <path d="M-394.5 111.5 L-394.5 68.0 -353.0 68.0 -353.0 111.5 -394.5 111.5" fill="#707070" fill-rule="evenodd" stroke="none"/>
    <path d="M-474.5 141.0 L-474.5 100.0 -438.0 100.0 -438.0 141.0 -474.5 141.0" fill="#707070" fill-rule="evenodd" stroke="none"/>
    <path d="M-484.5 80.0 L-461.0 80.0 -461.0 162.0 -484.5 162.0 -484.5 80.0" fill="#707070" fill-rule="evenodd" stroke="none"/>
    <path d="M-475.5 110.5 L-475.5 152.0 -510.5 152.0 -510.5 110.5 -475.5 110.5" fill="#707070" fill-rule="evenodd" stroke="none"/>
    <path d="M-281.0 76.0 L-230.0 76.0 -230.0 116.0 -281.0 116.0 -281.0 76.0" fill="#707070" fill-rule="evenodd" stroke="none"/>
    <path d="M-232.0 84.0 L-232.0 159.0 -257.0 159.0 -257.0 84.0 -232.0 84.0" fill="#707070" fill-rule="evenodd" stroke="none"/>
    <path d="M-254.0 169.5 L-231.5 169.5 -231.5 280.5 -254.0 280.5 -254.0 169.5" fill="#707070" fill-rule="evenodd" stroke="none"/>
    <path d="M-289.0 160.0 L-266.5 160.0 -266.5 201.0 -289.0 201.0 -289.0 160.0" fill="#707070" fill-rule="evenodd" stroke="none"/>
    <path d="M-288.6 129.95 L-265.55 133.7 -269.4 157.45 -292.45 153.65 -288.6 129.95" fill="#707070" fill-rule="evenodd" stroke="none"/>
    <path d="M-272.9 330.45 L-280.25 353.3 -302.5 346.2 -295.15 323.3 -272.9 330.45" fill="#707070" fill-rule="evenodd" stroke="none"/>
    <path d="M-272.65 449.85 L-295.65 445.75 -291.4 422.1 -268.4 426.2 -272.65 449.85" fill="#707070" fill-rule="evenodd" stroke="none"/>
    <path d="M-396.4 95.1 L-419.45 91.35 -415.6 67.6 -392.55 71.4 -396.4 95.1" fill="#707070" fill-rule="evenodd" stroke="none"/>
    <path d="M-486.0 74.55 L-482.8 98.4 -505.95 101.5 -509.2 77.7 -486.0 74.55" fill="#707070" fill-rule="evenodd" stroke="none"/>
    <path d="M-505.7 281.0 L-505.7 223.0 -387.7 223.0 -387.7 281.0 -505.7 281.0" fill="#707070" fill-rule="evenodd" stroke="none"/>
    <path d="M-408.1 220.0 L-432.65 224.6 -440.25 184.0 -415.7 179.35 -408.1 220.0" fill="#707070" fill-rule="evenodd" stroke="none"/>
    <path d="M-411.4 214.65 L-405.8 189.5 -381.4 194.95 -387.0 220.05 -411.4 214.65" fill="#707070" fill-rule="evenodd" stroke="none"/>
    <path d="M-468.35 216.85 L-461.15 192.1 -437.15 199.1 -444.35 223.8 -468.35 216.85" fill="#707070" fill-rule="evenodd" stroke="none"/>
    <path d="M-473.65 159.8 L-450.25 183.15 -466.15 199.05 -489.5 175.65 -473.65 159.8" fill="#707070" fill-rule="evenodd" stroke="none"/>
    <path d="M-514.2 184.2 L-489.5 177.9 -479.0 219.0 -503.7 225.25 -514.2 184.2" fill="#707070" fill-rule="evenodd" stroke="none"/>
    <path d="M-398.35 248.3 L-326.0 248.3 -326.0 278.3 -398.35 278.3 -398.35 248.3" fill="#707070" fill-rule="evenodd" stroke="none"/>
    <path d="M-430.35 389.0 L-512.35 389.0 -512.35 363.3 -430.35 363.3 -430.35 389.0" fill="#707070" fill-rule="evenodd" stroke="none"/>
    <path d="M-377.0 389.0 L-418.0 389.0 -418.0 363.0 -377.0 363.0 -377.0 389.0" fill="#707070" fill-rule="evenodd" stroke="none"/>
    <path d="M-411.7 412.0 L-462.35 412.0 -462.35 386.3 -411.7 386.3 -411.7 412.0" fill="#707070" fill-rule="evenodd" stroke="none"/>
    <path d="M-438.35 447.3 L-489.0 447.3 -489.0 421.65 -438.35 421.65 -438.35 447.3" fill="#707070" fill-rule="evenodd" stroke="none"/>
    <path d="M-301.7 448.3 L-427.0 448.3 -427.0 422.65 -301.7 422.65 -301.7 448.3" fill="#707070" fill-rule="evenodd" stroke="none"/>
    <path d="M-317.0 395.65 L-358.0 395.65 -358.0 369.65 -317.0 369.65 -317.0 395.65" fill="#707070" fill-rule="evenodd" stroke="none"/>
    <path d="M-328.35 420.3 L-369.35 420.3 -369.35 394.3 -328.35 394.3 -328.35 420.3" fill="#707070" fill-rule="evenodd" stroke="none"/>
    <path d="M-483.0 283.0 L-483.0 386.3 -512.35 386.3 -512.35 283.0 -483.0 283.0" fill="#707070" fill-rule="evenodd" stroke="none"/>
    <path d="M-310.5 288.8 L-341.5 288.8 -341.5 243.0 -310.5 243.0 -310.5 288.8" fill="#707070" fill-rule="evenodd" stroke="none"/>
    <path d="M-295.7 224.3 L-295.7 247.0 -347.7 247.0 -347.7 224.3 -295.7 224.3" fill="#707070" fill-rule="evenodd" stroke="none"/>
    <path d="M-280.7 286.3 L-236.5 286.3 -236.5 312.5 -280.7 312.5 -280.7 286.3" fill="#707070" fill-rule="evenodd" stroke="none"/>
    <path d="M-227.5 405.0 L-271.7 405.0 -271.7 378.8 -227.5 378.8 -227.5 405.0" fill="#707070" fill-rule="evenodd" stroke="none"/>
    <path d="M-269.65 420.35 L-313.5 415.4 -310.6 389.4 -266.7 394.35 -269.65 420.35" fill="#707070" fill-rule="evenodd" stroke="none"/>
    <path d="M-399.35 285.65 L-355.2 285.65 -355.2 311.8 -399.35 311.8 -399.35 285.65" fill="#707070" fill-rule="evenodd" stroke="none"/>
    <path d="M-460.7 274.3 L-416.5 274.3 -416.5 305.0 -460.7 305.0 -460.7 274.3" fill="#707070" fill-rule="evenodd" stroke="none"/>
    <path d="M-236.1 323.2 L-224.9 359.25 -248.8 366.7 -260.0 330.65 -236.1 323.2" fill="#707070" fill-rule="evenodd" stroke="none"/>
    <path d="M-335.7 199.65 L-283.7 199.65 -283.7 222.3 -335.7 222.3 -335.7 199.65" fill="#707070" fill-rule="evenodd" stroke="none"/>
    <path d="M-281.6 193.15 L-257.15 223.1 -288.9 248.95 -313.3 219.05 -281.6 193.15" fill="#707070" fill-rule="evenodd" stroke="none"/>
    <path d="M-937.25 -22.0 L-885.0 -22.0 -885.0 30.25 -937.25 30.25 -937.25 -22.0" fill="#ffffff" fill-rule="evenodd" stroke="none"/>
  </g>
</svg>
