<?xml version="1.0" encoding="UTF-8" standalone="no"?>
<svg xmlns:ffdec="https://www.free-decompiler.com/flash" xmlns:xlink="http://www.w3.org/1999/xlink" ffdec:objectType="shape" height="15.35px" width="24.95px" xmlns="http://www.w3.org/2000/svg">
  <g transform="matrix(1.0, 0.0, 0.0, 1.0, 12.45, 7.65)">
    <path d="M-0.65 -4.35 L-0.05 -4.65 Q0.4 -4.6 0.85 -4.05 L9.35 4.65 6.45 3.85 2.95 3.25 1.9 3.15 0.65 3.0 0.3 3.0 0.0 3.0 Q-2.8 3.0 -6.45 3.85 L-9.4 4.7 -0.65 -4.35" fill="#ffffff" fill-rule="evenodd" stroke="none"/>
    <path d="M-0.65 -4.35 L-9.4 4.7 -6.45 3.85 Q-2.8 3.0 0.0 3.0 L0.3 3.0 0.65 3.0 1.9 3.15 2.95 3.25 6.45 3.85 9.35 4.65 0.85 -4.05 Q0.4 -4.6 -0.05 -4.65 L-0.65 -4.35 M-3.2 -6.0 Q-1.85 -7.65 -0.05 -7.65 1.85 -7.65 3.2 -6.05 L11.65 2.6 Q12.4 3.35 12.5 4.35 12.6 5.4 12.05 6.25 11.15 7.7 9.5 7.7 L8.55 7.55 5.7 6.8 Q2.45 6.05 0.05 6.05 -3.85 6.05 -8.5 7.55 L-9.45 7.7 Q-11.1 7.7 -12.0 6.25 -12.55 5.4 -12.4 4.4 -12.3 3.35 -11.6 2.6 L-3.2 -6.0" fill="#000000" fill-rule="evenodd" stroke="none"/>
  </g>
</svg>
