<?xml version="1.0" encoding="UTF-8" standalone="no"?>
<svg xmlns:ffdec="https://www.free-decompiler.com/flash" xmlns:xlink="http://www.w3.org/1999/xlink" ffdec:objectType="shape" height="19.35px" width="19.35px" xmlns="http://www.w3.org/2000/svg">
  <g transform="matrix(1.0, 0.0, 0.0, 1.0, 9.7, 9.65)">
    <path d="M6.85 -6.85 Q9.65 -4.0 9.65 0.0 9.65 4.0 6.95 6.75 L6.85 6.85 Q4.0 9.7 0.0 9.7 -4.05 9.7 -6.85 6.85 -9.7 4.05 -9.7 0.0 -9.7 -4.0 -6.85 -6.85 -4.05 -9.65 0.0 -9.65 4.0 -9.65 6.85 -6.85" fill="#deaf16" fill-rule="evenodd" stroke="none"/>
    <path d="M5.8 -5.8 Q8.2 -3.4 8.2 0.0 8.2 3.4 5.9 5.75 L5.8 5.8 Q3.4 8.25 0.0 8.25 -3.45 8.25 -5.8 5.8 -8.25 3.45 -8.25 0.0 -8.25 -3.4 -5.8 -5.8 -3.45 -8.2 0.0 -8.2 3.4 -8.2 5.8 -5.8" fill="url(#gradient0)" fill-rule="evenodd" stroke="none"/>
  </g>
  <defs>
    <linearGradient gradientTransform="matrix(0.0, 0.01, -0.01, 0.0, 0.0, 0.0)" gradientUnits="userSpaceOnUse" id="gradient0" spreadMethod="pad" x1="-819.2" x2="819.2">
      <stop offset="0.0" stop-color="#e1ba23"/>
      <stop offset="1.0" stop-color="#fdec7c"/>
    </linearGradient>
  </defs>
</svg>
