<?xml version="1.0" encoding="UTF-8" standalone="no"?>
<svg xmlns:ffdec="https://www.free-decompiler.com/flash" xmlns:xlink="http://www.w3.org/1999/xlink" ffdec:objectType="shape" height="17.15px" width="14.15px" xmlns="http://www.w3.org/2000/svg">
  <g transform="matrix(1.0, 0.0, 0.0, 1.0, 0.0, 8.55)">
    <path d="M1.45 -0.05 L0.0 -1.5 7.05 -8.55 8.5 -7.1 1.45 -0.05" fill="#ffffff" fill-rule="evenodd" stroke="none"/>
    <path d="M14.15 -1.45 L12.7 0.0 5.65 -7.05 7.1 -8.5 14.15 -1.45" fill="#ffffff" fill-rule="evenodd" stroke="none"/>
    <path d="M8.5 -2.8 L1.45 4.25 0.0 2.8 7.05 -4.25 8.5 -2.8" fill="#ffffff" fill-rule="evenodd" stroke="none"/>
    <path d="M7.1 -4.2 L14.15 2.85 12.7 4.3 5.65 -2.75 7.1 -4.2" fill="#ffffff" fill-rule="evenodd" stroke="none"/>
    <path d="M0.0 7.1 L7.05 0.05 8.5 1.5 1.45 8.55 0.0 7.1" fill="#ffffff" fill-rule="evenodd" stroke="none"/>
    <path d="M12.7 8.6 L5.65 1.55 7.1 0.1 14.15 7.15 12.7 8.6" fill="#ffffff" fill-rule="evenodd" stroke="none"/>
  </g>
</svg>
