<?xml version="1.0" encoding="UTF-8" standalone="no"?>
<svg xmlns:ffdec="https://www.free-decompiler.com/flash" xmlns:xlink="http://www.w3.org/1999/xlink" ffdec:objectType="shape" height="17.15px" width="14.15px" xmlns="http://www.w3.org/2000/svg">
  <g transform="matrix(1.0, 0.0, 0.0, 1.0, 0.0, 0.0)">
    <path d="M0.0 10.1 L1.45 8.65 8.5 15.7 7.05 17.15 0.0 10.1" fill="#ffffff" fill-rule="evenodd" stroke="none"/>
    <path d="M7.1 17.1 L5.65 15.65 12.7 8.6 14.15 10.05 7.1 17.1" fill="#ffffff" fill-rule="evenodd" stroke="none"/>
    <path d="M8.5 11.4 L7.05 12.85 0.0 5.8 1.45 4.35 8.5 11.4" fill="#ffffff" fill-rule="evenodd" stroke="none"/>
    <path d="M7.1 12.8 L5.65 11.35 12.7 4.3 14.15 5.75 7.1 12.8" fill="#ffffff" fill-rule="evenodd" stroke="none"/>
    <path d="M7.05 8.55 L0.0 1.5 1.45 0.05 8.5 7.1 7.05 8.55" fill="#ffffff" fill-rule="evenodd" stroke="none"/>
    <path d="M5.65 7.05 L12.7 0.0 14.15 1.45 7.1 8.5 5.65 7.05" fill="#ffffff" fill-rule="evenodd" stroke="none"/>
  </g>
</svg>
