<?xml version="1.0" encoding="UTF-8" standalone="no"?>
<svg xmlns:ffdec="https://www.free-decompiler.com/flash" xmlns:xlink="http://www.w3.org/1999/xlink" ffdec:objectType="shape" height="24.0px" width="24.0px" xmlns="http://www.w3.org/2000/svg">
  <g transform="matrix(1.0, 0.0, 0.0, 1.0, 0.0, 0.0)">
    <path d="M0.0 5.0 Q0.0 0.0 5.0 0.0 L19.0 0.0 Q24.0 0.0 24.0 5.0 L24.0 19.0 Q24.0 24.0 19.0 24.0 L5.0 24.0 Q0.0 24.0 0.0 19.0 L0.0 5.0" fill="#ffffff" fill-rule="evenodd" stroke="none"/>
    <path d="M2.0 5.0 Q2.0 2.0 5.0 2.0 L19.0 2.0 Q22.0 2.0 22.0 5.0 L22.0 19.0 Q22.0 22.0 19.0 22.0 L5.0 22.0 Q2.0 22.0 2.0 19.0 L2.0 5.0" fill="#000000" fill-rule="evenodd" stroke="none"/>
  </g>
</svg>
