<?xml version="1.0" encoding="UTF-8" standalone="no"?>
<svg xmlns:ffdec="https://www.free-decompiler.com/flash" xmlns:xlink="http://www.w3.org/1999/xlink" ffdec:objectType="shape" height="616.0px" width="751.0px" xmlns="http://www.w3.org/2000/svg">
  <g transform="matrix(1.0, 0.0, 0.0, 1.0, 387.0, 289.0)">
    <path d="M364.0 -53.0 L364.0 304.0 121.0 304.0 121.0 327.0 -121.0 327.0 -121.0 304.0 -387.0 304.0 -387.0 -53.0 -162.0 -53.0 -162.0 -74.0 -75.0 -74.0 -75.0 -289.0 75.0 -289.0 75.0 -74.0 163.0 -74.0 163.0 -53.0 364.0 -53.0" fill="#434343" fill-rule="evenodd" stroke="none"/>
    <path d="M-374.5 172.5 L-374.5 92.65 -284.5 92.65 -284.5 52.65 -267.5 52.65 -267.5 39.4 -327.85 39.4 -327.85 -44.4 -153.5 -44.4 -153.5 -66.0 57.75 -66.0 57.75 -44.4 126.65 -44.4 126.65 -39.25 131.65 -39.25 131.65 -26.9 142.3 -26.9 142.3 -44.4 261.5 -44.4 261.5 145.0 182.8 145.0 182.8 40.0 142.3 40.0 142.3 22.8 131.65 22.8 131.65 34.5 126.65 34.5 126.65 39.4 21.3 39.4 21.3 47.25 16.15 47.25 16.15 50.9 26.0 50.9 26.0 113.15 -26.85 113.15 -26.85 50.9 -17.0 50.9 -17.0 47.25 -22.5 47.25 -22.5 39.4 -81.65 39.4 -81.65 61.0 -104.65 61.0 -104.65 70.8 -94.7 70.8 -94.7 208.65 -139.65 208.65 -139.65 270.4 -152.65 270.4 -152.65 275.1 -154.4 275.1 -154.4 277.55 -180.5 277.55 -180.5 275.1 -182.5 275.1 -182.5 270.4 -193.2 270.4 -193.2 70.8 -134.5 70.8 -134.5 61.0 -153.5 61.0 -153.5 39.4 -241.0 39.4 -241.0 52.65 -224.0 52.65 -224.0 172.5 -374.5 172.5" fill="#969696" fill-rule="evenodd" stroke="none"/>
    <path d="M-141.85 146.75 L-94.7 146.75 -94.7 214.0 -141.85 214.0 -141.85 146.75" fill="#ffffff" fill-rule="evenodd" stroke="none"/>
  </g>
</svg>
